<?xml version="1.0" encoding="utf-8"?>
<!-- Generator: Adobe Illustrator 16.0.3, SVG Export Plug-In . SVG Version: 6.00 Build 0)  -->
<!DOCTYPE svg PUBLIC "-//W3C//DTD SVG 1.1//EN" "http://www.w3.org/Graphics/SVG/1.1/DTD/svg11.dtd">
<svg version="1.1" id="Kaufpark_Logo" xmlns="http://www.w3.org/2000/svg" xmlns:xlink="http://www.w3.org/1999/xlink" x="0px"
	 y="0px" width="820px" height="394.2px" viewBox="0 0 820 394.2" enable-background="new 0 0 820 394.2" xml:space="preserve">
<path fill="#EBCF0A" stroke="#00669E" stroke-width="2" stroke-miterlimit="10" d="M809,11h-58.176L580.539,115.767
	c-2.979-3.803-6.155-7.444-9.511-10.911L707.025,11H585.931L535.09,78.176c-4.364-2.247-8.864-4.267-13.485-6.044L555.488,11
	h-76.449l-5.356,52.016C473.205,63.011,472.729,63,472.25,63c-5.564,0-11.05,0.338-16.441,0.98L449,11h-76.023l33.587,68.685
	c-3.883,2.116-7.653,4.414-11.299,6.882L335.688,11H201.144l166.387,100.402c-2.616,3.073-5.097,6.264-7.438,9.561L155.3,11H11
	v59.236l335.895,73.722c-1.183,2.619-2.288,5.281-3.308,7.985L11,104v70.33h798v-59.435l-199.369,36.232L809,85.266V11z"/>
<path fill="#EBCF0A" stroke="#00669E" stroke-width="3" stroke-miterlimit="10" d="M337.248,173.83h270.004
	C595.031,110.409,539.246,62.5,472.25,62.5C405.262,62.5,349.471,110.409,337.248,173.83z"/>
<path fill="#009145" stroke="#00669E" stroke-width="3" stroke-miterlimit="10" d="M543.027,118.864
	c2.458-5.621,10.537-19.346,30.999-20.528c21.985-1.251,32.364,12.063,34.913,15.932c2.436-0.842,8.49-2.3,15.067,1.207
	c7.124,3.776,8.079,9.604,8.034,12.745c4.119-1.116,13.814-2.958,21.963,1.342c8.353,4.461,11.063,12.518,11.836,15.841
	c3.892-0.887,14.839-2.572,24.011,4.096c11.403,8.262,6.237,23.285,6.191,23.444l-0.319,0.887H438.651l-0.114-1.207
	c-0.068-0.591-1.388-14.885,8.239-24.398c8.239-8.148,20.938-7.875,24.899-7.579c0.865-2.801,3.961-9.673,14.157-13.247
	c9.582-3.345,17.434-1.638,20.734-0.569c0.66-3.527,3.436-10.969,15.112-13.609C533.65,110.533,540.25,115.746,543.027,118.864z"/>
<rect x="11" y="326" fill="#EBCF0A" stroke="#00669E" stroke-width="2" stroke-miterlimit="10" width="798" height="57"/>
<path fill-rule="evenodd" clip-rule="evenodd" fill="#00669E" d="M65.174,260.243c-5.072,2.767-7.37,6.373-6.64,12.1
	c0.577,4.528,0.116,13.931,0.116,13.931H23v-99.976h35.464c0,0,0,31.733,0,47.717c1.499,0.052,2.011-0.931,2.699-1.553
	c6.187-5.598,12.374-11.196,18.494-16.867c1.34-1.242,2.692-1.764,4.55-1.752c12.469,0.084,24.938,0.044,38.265,0.044
	c-11.541,9.371-22.533,18.298-33.656,27.33c12.929,14.983,25.723,29.806,38.518,44.633c-0.567,1.014-1.471,0.542-2.17,0.544
	c-12.777,0.034-25.554-0.012-38.331,0.066c-1.815,0.012-2.909-0.567-3.962-2.028C77.06,276.367,71.143,268.378,65.174,260.243z
	 M160.391,235.635c0.716-3.946,3.494-5.645,6.881-6.448c3.739-0.886,7.531-1.092,11.359-0.227c4.496,1.016,7.168,3.179,7.216,6.111
	c0.051,3.07-2.292,5.048-7.195,5.976c-8.208,1.553-16.582,1.742-24.827,2.995c-7.866,1.196-15.72,2.521-22.616,6.849
	c-11.249,7.06-11.78,22.62-1.104,30.546c3.195,2.372,6.756,4.071,10.612,4.878c15.978,3.345,31.504,3.108,45.72-6.366
	c0.546,2.164,0.411,4.535,1.637,6.235c12.292,0,24.277,0,36.516,0c-3.146-4.343-4.084-8.997-4.091-13.915
	c-0.015-11.977-0.02-23.953-0.063-35.929c-0.04-10.924-4.394-17.025-14.657-20.612c-0.85-0.297-1.726-0.525-2.597-0.759
	c-11.607-3.111-23.473-3.201-35.338-2.756c-8.846,0.331-17.66,1.234-25.987,4.623c-8.414,3.424-14.205,8.979-14.953,18.8
	C138.257,235.635,149.293,235.635,160.391,235.635z M185.82,260.491c-0.348,4.062-2.212,7.325-5.934,9.143
	c-5.814,2.84-11.785,3.32-17.508-0.148c-4.341-2.63-3.995-7.318,0.481-9.727c2.336-1.258,4.904-1.799,7.454-2.212
	c5.126-0.832,10.183-1.94,15.536-3.525C185.849,256.499,185.989,258.509,185.82,260.491z M229.097,262.102
	c0,11.31,4.983,18.837,15.533,23.013c10.063,3.983,20.411,3.827,30.813,1.555c6.5-1.42,12.108-4.568,17.248-9.806
	c0,3.51,0,9.322,0,9.322h34.522v-72.063h-35.67c0,0-0.004,21.153,0.002,31.612c0.001,3.216,0.05,6.428-0.435,9.625
	c-1.073,7.083-6.764,11.124-15.077,10.653c-7.577-0.429-10.76-3.822-10.821-11.865c-0.093-12.271-0.079-40.107-0.079-40.107h-36.037
	C229.097,214.041,229.096,247.215,229.097,262.102z M348.78,286.171h36.021v-55.265h17.943v-17.112c0,0-12.465,0-18.587,0
	c-0.388-5.229,0.84-7.255,4.765-8.428c1.573-0.47,3.176-0.415,4.773-0.56c3.318-0.302,6.546,0.793,9.922,0.758
	c0-6.404,0-12.574,0-18.783c-11.547-0.701-22.911-1.551-34.165,0.53c-12.454,2.302-20.601,8.944-20.832,22.47
	c-0.022,1.275-0.004,2.552-0.004,4.142c-4.98,0-14.54,0-14.54,0v17.043h14.703V286.171z M443.213,214.091h-34.528v95.622h35.98
	c0,0,0-20.731,0-31.323c1.313,1.151,2.248,2.063,3.278,2.851c1.034,0.79,2.094,1.598,3.261,2.154
	c15.292,7.303,30.32,6.438,44.94-1.831c4.55-2.574,7.918-6.538,10.232-11.221c6.059-12.261,6.574-24.798,0.626-37.16
	c-10.968-22.796-43.367-28.712-63.79-11.241C443.213,218.898,443.213,214.091,443.213,214.091z M474.457,256.015
	c-1.7,8.126-7.686,12.548-16.226,12.059c-8.714-0.498-13.905-5.35-14.794-14.087c-0.333-3.287-0.338-6.607,0.4-9.899
	c1.78-7.943,7.223-12.116,15.713-11.918c8.378,0.195,13.79,4.755,15.019,12.775c0.333,2.166,0.384,4.375,0.507,5.882
	C474.821,253.028,474.765,254.547,474.457,256.015z M614.273,272.814c-0.054-12.278-0.008-24.557-0.085-36.834
	c-0.064-10.412-4.168-16.267-13.869-19.927c-1.775-0.67-3.616-1.221-5.471-1.622c-13.908-3.008-27.956-2.896-42.015-1.554
	c-7.225,0.689-14.316,2.141-20.81,5.654c-6.754,3.653-10.793,9.109-11.356,17.251c10.847,0,21.591-0.001,32.335,0.001
	c0.805,0,1.243-0.318,1.453-1.173c0.67-2.732,2.709-4.166,5.198-4.978c4.291-1.4,8.663-1.588,13.09-0.616
	c4.225,0.929,6.854,3.236,6.862,6.114c0.009,2.989-2.313,4.982-6.954,5.888c-6.621,1.292-13.365,1.572-20.042,2.4
	c-8.885,1.101-17.772,2.206-25.866,6.448c-4.815,2.524-8.497,6.05-9.874,11.537c-2.592,10.333,2.62,19.501,13.652,23.641
	c10.162,3.813,20.669,3.764,31.233,2.259c6.737-0.96,12.958-3.317,18.454-7.675c0.899,6.792,0.899,6.792,7.416,6.792
	c0.302,0,0.604,0,0.905,0c9.831,0,19.661-0.001,30.014-0.001C615.287,281.987,614.294,277.525,614.273,272.814z M579.579,260.484
	c-0.347,4.063-2.219,7.3-5.926,9.151c-5.387,2.69-10.94,3.115-16.485,0.465c-2.237-1.068-4.056-2.573-3.978-5.461
	c0.078-2.874,1.915-4.358,4.236-5.256c2.133-0.826,4.383-1.466,6.638-1.839c5.124-0.844,10.196-1.876,15.544-3.583
	C579.608,256.493,579.748,258.502,579.579,260.484z M624.875,286.169h35.889c0,0-0.105-20.486,0.031-30.632
	c0.129-9.568,4.663-16.146,12.64-18.453c3.77-1.09,7.672-1.396,11.632-1.172c3.855,0.218,7.654,0.855,11.673,1.612
	c0-6.516,0-12.644,0-18.772c0-5.623,0.019-5.798-5.581-6.395c-12.461-1.328-23.416,1.375-31.068,12.311
	c-0.08,0.116-0.316,0.122-0.873,0.317c0-3.756,0-11.067,0-11.067h-34.342V286.169z M701.801,286.175h35.66
	c0,0-0.004-12.517,0.006-18.653c0.003-0.976-0.222-2,0.747-2.765c1.864-1.472,3.683-3.001,5.681-4.638
	c6.048,8.244,11.964,16.233,17.776,24.297c1.049,1.455,2.132,2.056,3.954,2.045c12.778-0.081,25.557-0.034,38.335-0.067
	c0.701-0.001,1.599,0.46,2.188-0.541c-12.796-14.827-25.59-29.651-38.521-44.636c11.119-9.029,22.112-17.957,33.656-27.331
	c-13.324,0-25.795,0.04-38.264-0.044c-1.857-0.012-3.21,0.508-4.552,1.751c-6.119,5.672-12.307,11.271-18.495,16.868
	c-0.688,0.622-1.199,1.606-2.569,1.557c0-15.916,0-47.768,0-47.768h-35.603V286.175z"/>
<path fill-rule="evenodd" clip-rule="evenodd" fill="#00669E" d="M39.094,341.5c0.367-8.256,5.362-11.341,14.033-8.642
	c0,1.25,0,2.537,0,3.99c-2.069,0.41-4.516-0.858-6.203,1.033c-0.925,1.036-0.639,2.451-0.387,3.97c1.872,0,3.751,0,5.603,0
	c0.685,1.44,0.361,2.714,0.3,4.268c-1.887,0-3.744,0-5.998,0c0,7.346,0,14.413,0,21.62c-2.563,0-4.729,0-7.161,0
	c0-7.046,0-14.042,0-20.958c-1.793-1.075-3.595-0.135-5.356-0.817c0-1.192,0-2.443,0-3.739
	C35.56,341.368,37.518,342.546,39.094,341.5z M64.11,357.757c0.001-8.351,2.906-11.135,11.334-10.879
	c0.16,0.005,0.325-0.167,0.692-0.367c-0.28-1.626,0.387-3.408-0.384-5.056c-4.717-0.735-8.498,0.904-11.893,4.488
	c-0.148-1.657-0.244-2.729-0.345-3.855c-2.2,0-4.252,0-6.381,0c0,8.646,0,17.124,0,25.659c2.358,0,4.527,0,6.977,0
	C64.11,364.329,64.11,361.043,64.11,357.757z M86.384,342.096c-2.345,0-4.499,0-6.669,0c0,8.641,0,17.104,0,25.678
	c2.26,0,4.334,0,6.669,0C86.384,359.071,86.384,350.608,86.384,342.096z M86.316,332.282c-2.346,0.064-4.506-0.295-6.689,0.248
	c-0.075,1.748-0.295,3.396,0.137,5.058c2.28,0,4.344,0,6.703,0C86.546,335.67,86.767,334.022,86.316,332.282z M116.236,343.359
	c-6.483-3.079-13.052-2.815-19.508,0.118c-2.143,0.974-3.359,2.75-3.376,5.272c-0.018,2.624,1.225,4.37,3.432,5.57
	c2.339,1.272,4.927,1.672,7.496,2.148c2.663,0.494,5.418,0.643,7.925,1.762c2.356,1.052,2.747,3.058,0.977,4.42
	c-3.261,2.509-10.822,1.377-13.025-2.037c-0.485-0.751-0.853-1.229-1.811-1.196c-1.876,0.063-3.755,0.019-5.704,0.019
	c0.134,3.34,1.536,5.607,4.176,6.846c7.083,3.321,14.218,3.148,21.174-0.37c2.527-1.277,3.726-3.573,3.489-6.503
	c-0.224-2.774-2.012-4.299-4.316-5.327c-2.592-1.156-5.387-1.57-8.177-1.982c-2.378-0.352-4.837-0.493-6.99-1.697
	c-1.866-1.043-1.968-2.883-0.115-3.645c3.08-1.265,6.895-1.923,9.185,0.364c2.954,2.949,5.933,1.833,9.167,2.053
	C120.046,346.239,118.48,344.426,116.236,343.359z M150.126,358.138c-0.968-0.016-1.275,0.524-1.695,1.327
	c-1.961,3.755-4.91,5.037-9.303,4.233c-3.417-0.624-5.747-3.111-6.335-6.76c-0.715-4.435,0.806-8.292,3.935-9.98
	c3.267-1.763,9.092-1.541,10.651,1.106c2.349,3.985,5.528,2.141,8.667,2.525c-0.545-4.01-2.729-6.188-5.826-7.583
	c-4.168-1.876-8.545-2.146-12.982-1.326c-7.634,1.409-11.94,6.41-11.856,13.629c0.082,6.95,4.581,11.764,12.225,12.963
	c3.207,0.503,6.438,0.419,9.562-0.504c4.673-1.382,7.802-4.286,8.86-9.62C153.883,358.146,152.004,358.169,150.126,358.138z
	 M162.251,367.711c2.399,0,4.572,0,6.944,0c0-4.987-0.067-9.801,0.02-14.612c0.081-4.489,3.197-7.254,7.925-7.22
	c4.433,0.033,6.182,1.989,6.211,6.974c0.014,2.416-0.057,4.833,0.019,7.246c0.08,2.555-0.35,5.146,0.253,7.586
	c2.375,0,4.534,0,6.872,0c0-5.926,0.027-11.652-0.008-17.377c-0.029-4.616-2.136-7.326-6.619-8.437
	c-5.206-1.289-10.103-0.683-14.788,3.301c0-4.677,0-8.729,0-12.84c-2.412,0-4.509,0-6.829,0
	C162.251,344.331,162.251,356.037,162.251,367.711z M210.97,352.572c-0.03-2.177-2.205-3.781-5.014-3.632
	c-2.334,0.124-4.167,1.042-4.396,3.622c-0.191,2.154,2.137,3.911,4.834,3.848C208.965,356.349,210.999,354.644,210.97,352.572z
	 M223.641,341.707c-1.588,0.62-3.374-0.251-4.991,0.551c-0.055,1.308-0.388,2.587,0.204,3.763c1.683,0.614,3.486-0.339,5.271,0.809
	c0,6.909,0,13.905,0,20.885c2.432,0,4.597,0,7.041,0c0-7.165,0-14.164,0-21.321c2.212-0.121,4.156-0.226,6.13-0.333
	c-0.051-1.536,0.394-2.832-0.362-4.141c-0.91,0-1.811,0.04-2.707-0.01c-0.982-0.055-2.012,0.264-2.936-0.302
	c-0.298-4.564-0.038-4.755,6.607-4.723c0-1.369,0-2.737,0-4.074C229.26,330.362,225.157,332.944,223.641,341.707z M248.252,342.137
	c-2.212,0-4.268,0-6.268,0c0,8.685,0,17.15,0,25.568c2.408,0,4.575,0,6.93,0c0-4.18-0.084-8.184,0.021-12.182
	c0.142-5.462,3.6-8.711,9.033-8.743c0.944-0.006,1.962,0.497,2.749-0.123c0-1.804,0-3.47,0-5.163
	c-4.778-0.773-8.589,0.759-11.96,4.389C248.545,344.311,248.392,343.175,248.252,342.137z M287.249,344.403
	c-5.665-4.14-14.788-4.228-20.456-0.097c-4.174,3.042-5.922,7.216-5.391,12.356c0.514,4.974,3.149,8.451,7.686,10.329
	c5.345,2.212,10.82,2.16,16.161-0.06c3.132-1.302,5.609-3.39,6.564-7.215c-3.177,0.077-5.931-0.912-8.545,2.138
	c-2.579,3.011-6.631,2.518-10.173,1.271c-2.901-1.021-4.509-3.214-4.429-6.628c7.818,0,15.544,0,23.441,0
	C293.02,351.603,291.226,347.309,287.249,344.403z M268.923,352.613c0.021-3.783,2.563-6.16,7.002-6.636
	c4.706-0.506,8.069,1.844,9.057,6.636C279.513,352.613,274.218,352.613,268.923,352.613z M298.167,360.529
	c0.214,4.145,2.672,6.447,6.751,7.432c5.146,1.241,9.944,0.647,14.314-3.185c0.126,1.214,0.214,2.063,0.305,2.936
	c2.249,0,4.417,0,6.575,0c0-8.656,0-17.135,0-25.822c-2.382,0.207-4.561-0.3-6.675,0.316c-0.059,0.322-0.125,0.52-0.125,0.718
	c-0.013,4.425,0.003,8.852-0.033,13.276c-0.043,5.231-2.592,7.738-7.828,7.765c-4.57,0.024-6.362-2.071-6.373-7.485
	c-0.01-4.788-0.002-9.577-0.002-14.41c-2.536,0-4.702,0-6.99,0C298.086,348.323,297.853,354.44,298.167,360.529z M340.665,367.007
	c0.021-4.325,0.026-8.649,0.045-12.975c0.022-5.26,2.837-8.162,7.897-8.152c4.67,0.009,6.258,1.991,6.26,7.825
	c0.002,4.681,0.001,9.362,0.001,14.006c2.594,0,4.761,0,7.142,0c0-5.893,0.025-11.614-0.008-17.334
	c-0.027-4.763-2.167-7.43-6.84-8.561c-5.273-1.277-10.128-0.439-14.274,3.191c-0.816-1.001,0.028-2.209-0.824-2.909
	c-2.141,0-4.208,0-6.309,0c0,8.667,0,17.154,0,25.713c2.312,0,4.41,0,6.654,0C340.554,367.371,340.664,367.189,340.665,367.007z
	 M400.222,332.301c-2.444,0.045-4.708-0.312-7.175,0.265c0,4.064,0,8.015,0,12.102c-6.396-4.069-12.808-4.813-19.211-1.033
	c-5.049,2.979-6.792,8.156-5.35,13.346c4.099,14.757,14.284,12.75,25.279,8.685c0.197,0.352-0.428,1.354,0.326,2.147
	c1.95,0,3.94,0,6.131,0C400.222,355.818,400.222,344.118,400.222,332.301z M375.432,354.717c0.196-5.582,3.788-9.009,9.281-8.856
	c5.502,0.154,9.123,3.982,8.834,9.341c-0.289,5.378-4.169,8.919-9.538,8.702C378.606,363.687,375.243,360.086,375.432,354.717z
	 M408.87,367.9c2.365-0.159,4.535,0.272,6.637-0.261c0-11.817,0-23.5,0-35.281c-2.282,0-4.356,0-6.637,0
	C408.87,344.323,408.87,356.006,408.87,367.9z M423.931,342.081c0,8.624,0,17.087,0,25.646c2.323,0,4.477,0,6.753,0
	c0-8.557,0-16.954,0-25.646C428.319,342.081,426.166,342.081,423.931,342.081z M424.037,337.665c2.34-0.069,4.503,0.306,6.663-0.25
	c0-1.683,0-3.254,0-4.991c-2.253,0-4.399,0-6.84,0C423.804,334.286,423.55,335.939,424.037,337.665z M458.837,361.47
	c-0.594,0.65-1.367,1.199-2.157,1.599c-3.999,2.021-9.287,0.487-11.341-3.233c-2.294-4.15-0.936-10.489,2.722-12.697
	c3.951-2.386,9.487-1.341,12.005,2.338c0.427,0.625,0.753,1.145,1.576,1.141c1.965-0.011,3.931-0.003,6.041-0.003
	c-0.55-3.993-2.706-6.189-5.796-7.591c-4.163-1.888-8.541-2.165-12.979-1.353c-7.654,1.403-11.96,6.372-11.9,13.594
	c0.057,6.954,4.544,11.786,12.181,13c3.206,0.51,6.438,0.432,9.563-0.487c4.67-1.373,7.833-4.249,8.857-9.423
	C462.084,357.876,462.104,357.895,458.837,361.47z M502.115,350.564c-0.021-4.973-2.132-7.636-6.96-8.771
	c-5.121-1.204-9.887-0.455-14.487,3.367c0-4.69,0-8.747,0-12.702c-2.479,0-4.642,0-6.877,0c0,11.834,0,23.466,0,35.284
	c2.382,0.196,4.622,0.299,7.03-0.097c0-4.956-0.071-9.775,0.021-14.591c0.086-4.47,3.242-7.234,7.969-7.177
	c4.414,0.053,6.147,2.012,6.164,7.021c0.018,4.915,0.003,9.83,0.003,14.865c2.456,0,4.641,0,7.144,0
	C502.121,361.994,502.139,356.279,502.115,350.564z M522.571,352.813c0.132-2.136-1.763-3.791-4.447-3.883
	c-2.813-0.097-4.964,1.5-4.964,3.687c0,2.072,2.043,3.751,4.616,3.792C520.347,356.451,522.444,354.878,522.571,352.813z
	 M540.144,341.973c-2.245,0.039-4.318-0.357-6.315,0.245c0,11.779,0,23.415,0,35.178c2.31,0,4.47,0,6.886,0c0-4.11,0-8.076,0-12.152
	c10.343,4.846,18.577,3.995,22.766-2.206c3.681-5.446,2.927-13.367-1.483-17.825c-4.092-4.134-15.098-6.018-21.431-0.297
	C540.402,343.782,540.28,342.927,540.144,341.973z M540.521,354.837c0.003-5.587,3.454-8.975,9.1-8.93
	c5.354,0.042,9.059,3.848,8.981,9.224c-0.076,5.34-3.614,8.785-9.01,8.769C544.088,363.884,540.521,360.319,540.521,354.837z
	 M590.929,341.455c-4.733-0.726-8.53,0.874-11.914,4.509c-0.146-1.66-0.24-2.732-0.342-3.884c-2.197,0-4.249,0-6.398,0
	c0,8.637,0,17.113,0,25.692c2.429,0.077,4.681,0.392,6.987-0.206c0-4.167-0.094-8.185,0.024-12.196
	c0.142-4.833,3.124-8.083,7.677-8.513c1.291-0.122,2.604-0.019,4.07-0.019C591.335,345.043,591.477,343.227,590.929,341.455z
	 M617.143,344.529c-5.627-4.325-14.955-4.354-20.703-0.177c-8.158,5.927-6.961,18.578,2.219,22.549
	c5.527,2.392,11.194,2.286,16.701-0.145c2.992-1.321,5.354-3.383,6.229-7.323c-2.608,0.677-5.39-1.069-7.088,1.061
	c-2.864,3.595-6.462,3.754-10.345,3.072c-3.669-0.645-5.655-3.299-5.583-7.114c7.732,0,15.472,0,23.49,0
	C622.72,351.245,620.915,347.428,617.143,344.529z M598.618,352.579c0.188-3.935,2.877-6.296,7.432-6.646
	c4.552-0.351,7.831,2.097,8.615,6.646C609.193,352.579,603.907,352.579,598.618,352.579z M634.703,367.618
	c0-8.618,0-17.081,0-25.672c-2.389,0.083-4.561-0.337-6.7,0.27c0,8.53,0,16.931,0,25.728
	C630.509,367.688,632.688,368.24,634.703,367.618z M634.723,332.437c-2.363,0-4.509,0-6.619,0c0,1.815,0,3.447,0,5.16
	c2.276,0,4.342,0,6.619,0C634.723,335.696,634.723,334.064,634.723,332.437z M645.177,366.279c7.083,3.325,14.216,3.15,21.174-0.364
	c2.527-1.276,3.729-3.57,3.494-6.501c-0.222-2.774-2.009-4.302-4.312-5.33c-2.593-1.158-5.387-1.571-8.178-1.984
	c-2.378-0.352-4.836-0.492-6.99-1.694c-1.87-1.043-1.978-2.883-0.125-3.646c3.078-1.269,6.893-1.924,9.186,0.358
	c2.954,2.94,5.935,1.84,9.17,2.06c-0.183-2.934-1.747-4.748-3.991-5.815c-6.483-3.083-13.052-2.818-19.508,0.112
	c-2.144,0.973-3.362,2.748-3.381,5.27c-0.02,2.623,1.22,4.372,3.427,5.573c2.338,1.273,4.926,1.674,7.494,2.151
	c2.664,0.495,5.396,0.69,7.932,1.75c1.061,0.444,1.929,1.128,2.036,2.392c0.087,1.025-0.501,1.689-1.303,2.21
	c-3.631,2.356-10.358,1.1-12.914-2.473c-0.381-0.533-0.671-0.923-1.372-0.915c-1.979,0.024-3.959,0.008-6.011,0.008
	C641.138,362.771,642.536,365.04,645.177,366.279z M700.794,361.787c2.097,6.602,2.102,6.6,9.438,5.897
	c3.309-8.417,6.643-16.904,9.998-25.445c-7.064-1.038-7.052-1.034-9.141,5.129c-1.489,4.392-3.017,8.771-4.77,13.856
	c-2.112-6.929-3.981-13.064-5.885-19.305c-1.32,0-2.549,0.166-3.717-0.032c-2.839-0.481-4.021,0.711-4.736,3.44
	c-1.347,5.129-3.124,10.144-4.956,15.948c-2.048-6.213-3.854-11.703-5.67-17.189c-0.331-0.999-0.335-2.244-1.956-2.183
	c-2.039,0.077-4.085,0.019-6.471,0.019c2.7,6.95,5.207,13.401,7.711,19.854c2.544,6.561,2.543,6.563,9.587,6.022
	c0.094-0.007,0.181-0.086,0.504-0.249c1.856-5.934,3.768-12.043,5.917-18.912C698.2,353.56,699.488,357.676,700.794,361.787z
	 M746.495,360.832c-2.518,3.851-10.248,3.639-12.964,1.535c-1.908-1.479-3.089-3.263-2.788-5.976c7.941,0,15.67,0,23.565,0
	c0.705-4.612-0.809-8.249-4.081-11.183c-5.809-5.206-16.379-5.27-22.349-0.213c-7.558,6.403-5.539,18.765,3.701,22.227
	c5.087,1.906,10.287,1.868,15.342-0.14c3.254-1.292,5.864-3.387,7.003-7.742C751.133,360.246,748.213,358.204,746.495,360.832z
	 M738.628,345.875c4.396-0.188,7.563,2.299,8.275,6.652c-5.361,0-10.695,0-16.035,0
	C731.101,348.559,734.043,346.071,738.628,345.875z M793.316,363.195c-1.425-0.073-2.249-0.897-2.259-2.322
	c-0.034-4.794-0.013-9.588-0.013-14.692c2.268,0,4.219,0,6.172,0c0.269-1.593,0.429-2.863-0.075-4.101
	c-2.003-0.479-4.051,0.239-5.968-0.435c-0.563-2.509,0.277-5.051-0.499-7.394c-2.332,0-4.506,0-6.663,0
	c-0.535,2.607,0.239,5.145-0.458,7.417c-3.199,0.944-6.087-0.713-9.103-0.34c-3.218,0.398-5.709,2.141-8.204,4.48
	c-0.146-1.465-0.252-2.541-0.369-3.74c-2.164,0-4.218,0-6.375,0c0,8.644,0,17.137,0,25.666c2.367,0,4.541,0,6.974,0
	c0-4.146-0.063-8.149,0.02-12.148c0.075-3.709,1.466-6.954,5.191-8.035c3.827-1.111,7.867-1.581,12.132-1.178
	c0,4.071,0,7.88,0,11.688c0,8.748,1.338,10.041,10.231,9.813c1.072-0.027,2.201,0.118,3.196-0.56
	c0.258-1.308,0.35-2.577-0.112-4.106C795.873,363.209,794.591,363.261,793.316,363.195z"/>
</svg>
