<?xml version="1.0" encoding="UTF-8" standalone="no"?>
<!-- Created with Inkscape (http://www.inkscape.org/) -->

<svg
   xmlns:dc="http://purl.org/dc/elements/1.1/"
   xmlns:cc="http://creativecommons.org/ns#"
   xmlns:rdf="http://www.w3.org/1999/02/22-rdf-syntax-ns#"
   xmlns:svg="http://www.w3.org/2000/svg"
   xmlns="http://www.w3.org/2000/svg"
   xmlns:sodipodi="http://sodipodi.sourceforge.net/DTD/sodipodi-0.dtd"
   xmlns:inkscape="http://www.inkscape.org/namespaces/inkscape"
   width="469.41464"
   height="500"
   id="svg13751"
   version="1.1"
   inkscape:version="0.48.4 r9939"
   sodipodi:docname="Neues Dokument 3">
  <defs
     id="defs13753" />
  <sodipodi:namedview
     id="base"
     pagecolor="#ffffff"
     bordercolor="#666666"
     borderopacity="1.0"
     inkscape:pageopacity="0.0"
     inkscape:pageshadow="2"
     inkscape:zoom="1.55"
     inkscape:cx="234.70732"
     inkscape:cy="275.80645"
     inkscape:document-units="px"
     inkscape:current-layer="layer1"
     showgrid="false"
     fit-margin-top="0"
     fit-margin-left="0"
     fit-margin-right="0"
     fit-margin-bottom="0"
     inkscape:window-width="1680"
     inkscape:window-height="990"
     inkscape:window-x="-4"
     inkscape:window-y="-4"
     inkscape:window-maximized="1" />
  <metadata
     id="metadata13756">
    <rdf:RDF>
      <cc:Work
         rdf:about="">
        <dc:format>image/svg+xml</dc:format>
        <dc:type
           rdf:resource="http://purl.org/dc/dcmitype/StillImage" />
        <dc:title></dc:title>
      </cc:Work>
    </rdf:RDF>
  </metadata>
  <g
     inkscape:label="Ebene 1"
     inkscape:groupmode="layer"
     id="layer1"
     transform="translate(-339.20493,-23.083615)">
    <g
       id="g8092"
       transform="matrix(14.108352,0,0,-14.108352,507.29184,523.08361)">
      <path
         inkscape:connector-curvature="0"
         d="m 0,0 -0.059,0 c -3.778,0 -7.555,0 -11.333,0 l -0.148,0 0.064,0.134 0.688,1.44 0.365,0.769 10.802,22.629 -10.653,-0.007 -1.546,0 -0.094,-0.001 0,0.093 c 0,3.43 0,6.859 0,10.289 l 0,0.094 0.094,0 c 9.53,0 19.059,0 28.589,0 l 0.148,0 L 16.853,35.306 16.165,33.865 15.799,33.096 0.446,0.932 0.299,0.626 0.025,0.054"
         style="fill:#005924;fill-opacity:1;fill-rule:nonzero;stroke:none"
         id="path8094" />
    </g>
    <g
       id="g8096"
       transform="matrix(14.108352,0,0,-14.108352,497.50064,507.56442)">
      <path
         inkscape:connector-curvature="0"
         d="m 0,0 -9.102,0 11.92,24.972 -1.274,0 -11.124,-0.006 -0.538,-0.001 0,8.273 25.983,0 L 15.499,32.469 0.146,0.305"
         style="fill:#a7a9ac;fill-opacity:1;fill-rule:nonzero;stroke:none"
         id="path8098" />
    </g>
    <g
       id="g8100"
       transform="matrix(14.108352,0,0,-14.108352,621.93631,405.15133)">
      <path
         inkscape:connector-curvature="0"
         d="m 0,0 c -4.395,0 -7.971,3.576 -7.971,7.972 0,4.394 3.576,7.971 7.971,7.971 4.396,0 7.972,-3.577 7.972,-7.971 C 7.972,3.576 4.396,0 0,0"
         style="fill:#a7a9ac;fill-opacity:1;fill-rule:nonzero;stroke:none"
         id="path8102" />
    </g>
    <g
       id="g8104"
       transform="matrix(14.108352,0,0,-14.108352,492.71791,499.98767)">
      <path
         inkscape:connector-curvature="0"
         d="m 0,0 -7.91,0 11.819,24.762 0.1,0.21 -2.126,0 -11.124,-0.006 0,7.198 24.594,0"
         style="fill:#ffffff;fill-opacity:1;fill-rule:nonzero;stroke:none"
         id="path8106" />
    </g>
    <g
       id="g8108"
       transform="matrix(14.108352,0,0,-14.108352,621.93631,397.56104)">
      <path
         inkscape:connector-curvature="0"
         d="m 0,0 c -4.099,0 -7.433,3.335 -7.433,7.434 0,4.099 3.334,7.433 7.433,7.433 4.099,0 7.434,-3.334 7.434,-7.433 C 7.434,3.335 4.099,0 0,0"
         style="fill:#ffffff;fill-opacity:1;fill-rule:nonzero;stroke:none"
         id="path8110" />
    </g>
    <g
       id="g8112"
       transform="matrix(14.108352,0,0,-14.108352,621.93631,195.40302)">
      <path
         inkscape:connector-curvature="0"
         d="m 0,0 c -3.808,0 -6.896,-3.088 -6.896,-6.897 0,-3.807 3.088,-6.896 6.896,-6.896 3.809,0 6.897,3.089 6.897,6.896 C 6.897,-3.088 3.809,0 0,0"
         style="fill:#ef3829;fill-opacity:1;fill-rule:nonzero;stroke:none"
         id="path8114" />
    </g>
    <g
       id="g8116"
       transform="matrix(14.108352,0,0,-14.108352,706.7275,244.99332)">
      <path
         inkscape:connector-curvature="0"
         d="m 0,0 c 0.198,-0.468 0.309,-0.984 0.309,-1.525 0,-2.164 -1.755,-3.917 -3.92,-3.917 -2.163,0 -3.918,1.753 -3.918,3.917 0,2.164 1.755,3.918 3.918,3.918 0.909,0 1.743,-0.312 2.407,-0.83 -1.243,1.207 -2.937,1.952 -4.806,1.952 -3.808,0 -6.897,-3.088 -6.897,-6.897 0,-3.807 3.089,-6.895 6.897,-6.895 3.809,0 6.897,3.088 6.897,6.895 C 0.887,-2.152 0.564,-1 0,0"
         style="fill:#b81237;fill-opacity:1;fill-rule:nonzero;stroke:none"
         id="path8118" />
    </g>
    <g
       id="g8120"
       transform="matrix(14.108352,0,0,-14.108352,697.74048,172.22244)">
      <path
         inkscape:connector-curvature="0"
         d="m 0,0 c 0.009,-0.065 0.022,-0.129 0.037,-0.193 0.263,-1.13 1.356,-1.892 2.524,-1.722 0.067,0.009 0.133,0.022 0.197,0.037 1.13,0.265 1.89,1.356 1.72,2.526 C 4.468,0.714 4.457,0.779 4.442,0.841 4.178,1.972 3.086,2.734 1.915,2.565 1.85,2.555 1.784,2.543 1.72,2.527 0.591,2.263 -0.17,1.172 0,0 M 2.626,-2.356 C 1.225,-2.557 -0.08,-1.649 -0.396,-0.295 -0.415,-0.219 -0.43,-0.141 -0.44,-0.063 -0.644,1.339 0.265,2.643 1.619,2.96 1.695,2.978 1.773,2.993 1.852,3.004 3.254,3.205 4.558,2.296 4.875,0.942 4.893,0.867 4.907,0.79 4.919,0.713 L 4.698,0.68 4.919,0.712 C 5.121,-0.689 4.212,-1.994 2.859,-2.311 2.782,-2.329 2.704,-2.343 2.626,-2.356 m 3.07,5.023 C 5.699,2.645 5.704,2.621 5.71,2.594 5.814,2.152 6.242,1.854 6.699,1.92 6.725,1.924 6.75,1.928 6.777,1.935 7.219,2.038 7.516,2.464 7.451,2.922 7.446,2.95 7.442,2.976 7.436,3 7.332,3.442 6.905,3.74 6.445,3.674 6.42,3.67 6.395,3.666 6.37,3.66 5.928,3.556 5.63,3.129 5.696,2.667 M 6.757,1.525 C 6.091,1.429 5.472,1.86 5.321,2.504 5.312,2.538 5.305,2.576 5.3,2.613 5.205,3.279 5.635,3.898 6.279,4.049 6.315,4.058 6.352,4.065 6.389,4.069 7.055,4.165 7.674,3.734 7.825,3.091 7.833,3.055 7.839,3.019 7.846,2.983 L 7.647,2.953 7.846,2.98 C 7.941,2.316 7.51,1.696 6.868,1.546 6.83,1.538 6.794,1.531 6.757,1.525"
         style="fill:#005924;fill-opacity:1;fill-rule:nonzero;stroke:none"
         id="path8122" />
    </g>
    <g
       id="g8124"
       transform="matrix(14.108352,0,0,-14.108352,776.62028,95.93914)">
      <path
         inkscape:connector-curvature="0"
         d="m 0,0 c 0.126,-0.875 -0.481,-1.686 -1.355,-1.813 -0.874,-0.126 -1.685,0.481 -1.812,1.356 -0.127,0.874 0.48,1.685 1.354,1.811 C -0.938,1.48 -0.127,0.874 0,0 M -0.785,2.847 C -0.739,2.534 -0.956,2.244 -1.269,2.198 -1.582,2.153 -1.873,2.37 -1.917,2.683 -1.964,2.996 -1.746,3.287 -1.433,3.332 -1.12,3.377 -0.83,3.161 -0.785,2.847"
         style="fill:#005924;fill-opacity:1;fill-rule:nonzero;stroke:none"
         id="path8126" />
    </g>
    <g
       id="g8128"
       transform="matrix(14.108352,0,0,-14.108352,616.06723,258.15697)">
      <path
         inkscape:connector-curvature="0"
         d="M 0,0 C -0.165,0.136 -0.359,0.204 -0.583,0.204 -0.807,0.204 -1,0.133 -1.161,-0.008 -1.321,-0.149 -1.4,-0.351 -1.4,-0.613 l 0,-2.761 c 0,-0.497 -0.224,-0.745 -0.672,-0.745 -0.443,0 -0.665,0.248 -0.665,0.745 l 0,2.761 c 0,0.272 -0.081,0.477 -0.244,0.613 -0.162,0.136 -0.355,0.204 -0.581,0.204 -0.112,0 -0.217,-0.017 -0.316,-0.052 C -3.976,0.117 -4.063,0.066 -4.137,-0.004 -4.212,-0.072 -4.272,-0.159 -4.318,-0.26 -4.362,-0.361 -4.386,-0.479 -4.386,-0.613 l 0,-2.512 c 0,-1.751 0.758,-2.626 2.273,-2.626 l 0.073,0 c 1.526,0 2.288,0.875 2.288,2.626 l 0,2.512 C 0.248,-0.341 0.166,-0.136 0,0 m 3.695,-2.258 -1.076,0 0,1.104 1.076,0 c 0.41,0 0.616,-0.185 0.616,-0.555 0,-0.366 -0.206,-0.549 -0.616,-0.549 m -0.206,2.466 -1.719,0 c -0.276,0 -0.478,-0.07 -0.601,-0.21 -0.124,-0.138 -0.187,-0.343 -0.187,-0.615 0,-0.039 0.001,-0.077 0.004,-0.115 l 0,-2.408 c 0,-0.069 0.001,-0.138 0.004,-0.203 l 0,-1.562 c 0,-0.288 0.063,-0.501 0.187,-0.639 0.125,-0.14 0.33,-0.208 0.617,-0.208 0.537,0 0.811,0.27 0.825,0.806 l 0,1.327 0.87,0 c 1.447,0 2.17,0.626 2.17,1.876 l 0,0.061 c 0,1.26 -0.723,1.89 -2.17,1.89"
         style="fill:#ffffff;fill-opacity:1;fill-rule:nonzero;stroke:none"
         id="path8130" />
    </g>
  </g>
</svg>
