<?xml version="1.0" encoding="UTF-8"?>
<!-- Generator: Adobe Illustrator 26.3.1, SVG Export Plug-In . SVG Version: 6.00 Build 0)  -->
<svg id="Layer_1" width="404.3" height="378.103" version="1.1" viewBox="0 0 404.3 378.103" xml:space="preserve" xmlns="http://www.w3.org/2000/svg">
<style id="style256" type="text/css">
	.st0{fill:#E9530D;}
</style>
<g id="g302" transform="translate(-11 .4)">
	
	
	
	
	
	
	
	<path id="path272" class="st0" d="m398 260.1c5.1 0 9.5-4.3 9.5-9.5s-4.1-9.5-9.5-9.5c-5.1 0-9.5 4.3-9.5 9.5s4.3 9.5 9.5 9.5zm0-17.3c4.3 0 7.9 3.5 7.9 7.7 0 4.3-3.5 7.7-7.9 7.7-4.3 0-7.7-3.5-7.7-7.7s3.3-7.7 7.7-7.7z"/>
	<path id="path274" class="st0" d="m396 256.2h0.6v-4.3l3.4 4.3h2.6l-3.7-4.7c1.6-0.6 2.6-1.6 2.6-3.2 0-2.2-1.6-3.4-4.7-3.4h-2.2v9.3c-0.2 1.4 0.8 2 1.4 2zm0.4-9.3h0.4c1.6 0 2.4 0.6 2.4 1.6s-0.8 1.6-2.4 1.6h-0.4z"/>
	<path id="path276" class="st0" d="m111.8 245.9c-0.8-2.6-2.4-2.6-3.2 0l-39.8 131.4h16.6l5.9-19.1h38.3l6.3 18.9h16zm-16.2 97.5 14.6-47.1 14.6 47.1z"/>
	<path id="path278" class="st0" d="m303.1 320.1s-46.7-69.4-50.1-74.4c-2-3.2-2.4-2.6-2.4-1v132.5h17v-75.3l50.3 73.8s2 3.5 2 0v-131.9l-17-0.4v76.7z"/>
	<path id="path280" class="st0" d="m375.5 245.9c-0.8-2.6-2.4-2.6-3.2 0l-39.8 131.3h16.6l5.9-19.1h38l6.3 18.9h16zm-16.2 97.5 14.6-47.1 14.6 47.1z"/>
	<path id="path282" class="st0" d="m72 291.1c0-28-22.9-50.9-50.9-50.9h-10.1v136.9h17v-28.8c24.8-3.4 44-24.8 44-50.5zm-44 42.4v-77.3c17.6 4.1 29.6 18.3 29.6 37.5 0 19.7-11.7 35.7-29.6 39.8z"/>
	<path id="path284" class="st0" d="m178.9 301s46.7 69.4 50.1 74.4c2 3.2 2.4 2.6 2.4 1v-132.3h-17v75.1l-50.3-73.8s-2-3.5-2 0v131.7h17z"/>
	<path id="path286" class="st0" d="m256 217.7c-6.1 0-6.9-3.7-6.9-15.8v-47.3h-8.3v47.7c0 11 0 23.5 15.4 23.5 14.2 0 15.4-10.6 15.4-23.5v-47.7h-8.3v47.4c-0.2 12-1.2 15.7-7.3 15.7z"/>
	<path id="path288" class="st0" d="m179.9 226c3 0 6.5-1.2 9.3-3l0.4-0.2v-8.8l-1.6 1.2c-2.8 2-5.3 3-7.9 3-11.2 0-11.2-20.5-11.2-28 0-18.7 3.7-27.8 11.6-27.8 2.8 0 4.7 1 7.5 2.8l1.6 1v-9.3l-0.4-0.2c-2.4-1.8-6.1-2.4-8.7-2.4-19.9 0-19.9 29-19.9 38.5-0.1 9.5 1.7 33.2 19.3 33.2z"/>
	<path id="path290" class="st0" d="m297 156-21.3 70h8.9l3.2-10.3h20.5l3.4 10.1h8.5l-21.3-70c-0.5-1.2-1.3-1.2-1.9 0.2zm-6.9 52.1 7.7-25.2 7.7 25.2z"/>
	<path id="path292" class="st0" d="m227.2 217.3c4.1-8.9 4.1-22.5 4.1-28.2 0-8.9 0-35.5-17.7-35.5-15.6 0-17.6 19.3-17.6 36.1 0 24.8 5.3 36.1 17.6 36.1 2 0 4.7-0.2 7.1-1.4l4.3 6.1 6.3-4.5-4.9-6.9c0.4-0.4 0.6-0.8 0.6-1 0.2-0.4 0.2-0.4 0.2-0.8zm-12-14.4-6.3 4.5 7.1 10.1c-0.6 0.2-1.4 0.2-2.2 0.2-5.7 0-9.5-4.7-9.5-28.2 0-26 4.7-28.2 9.5-28.2 8.7 0 9.5 14.8 9.5 28.8 0 5.3-0.4 13.6-1.4 19.7l-0.4 1.8-1.2-1.4z"/>
	<path id="path294" class="st0" d="m126 216h20.5l3.4 10.1h8.5l-21.3-70c-0.4-1.4-1.2-1.4-1.8 0l-21.3 69.9h8.9zm10.3-33.2 7.7 25.2h-15.6z"/>
	<path id="path296" class="st0" d="m169.4 85.2c2.6 2.6 5.7 4.1 9.1 5.1l2.4 0.6c-0.2-0.4-0.4-0.6-0.4-0.8-1-2.2-1.2-4.5-0.6-6.9 0.4-1.8 1.2-3.5 2.8-4.5 2.4-1.6 5.1-1.8 7.9-0.8 2 0.6 3.2 2.2 4.3 3.7 1.4 2.2 2.2 4.5 2.6 6.9 0.2 0.8 0.2 1.8 0.2 2.8h-9.7v0.6 9.5c0 0.6 0 0.6 0.6 0.6h18.7 0.6c-0.4 6.1-3.5 10.1-8.9 12.6 1.8 3.7 4.3 6.5 8.9 6.7 0.4 2.4 1 4.5 2 6.7s2.4 3.9 4.1 5.7c0.8-1.2 1.8-2.2 2.6-3.2 2-2.8 2.8-5.9 3.4-9.3 2.2 0 3.9-0.6 5.3-2 1.6-1.4 2.6-2.8 3.4-4.7-5.3-2.6-8.5-6.5-8.9-12.4h0.6 18.9c0.4 0 0.6 0 0.6-0.4v-9.7-0.4h-9.7v-0.4c0-3.4 1-6.3 2.8-9.1 0.8-1.4 1.8-2.6 3.2-3.4 2.2-1.2 4.3-1.4 6.7-0.8 2 0.6 3.5 1.8 4.3 3.7 1 2 1.2 3.9 0.8 6.1-0.2 1.2-0.6 2.4-1.2 3.4h0.2c2.2-0.4 4.3-1 6.3-2 3.7-1.8 6.7-4.5 8.3-8.5 1.4-3.2 1.6-6.5 1.2-9.9-0.8-5.5-3.4-10.1-8.1-13.2-2.4-1.6-4.7-2.6-7.5-2.6-2.4-0.2-4.5 0.4-6.7 1.4-3.7 1.8-6.9 4.5-9.3 7.9-2.6 3.7-4.3 8.1-5.5 12.4-1.2 4.1-1.6 8.5-1.8 12.8v1.8h-5.5v-0.4c0.2-3 0.2-5.7 0.4-8.7 0.2-3.9 1-7.9 2.2-11.8 1.4-4.9 3.2-9.9 4.9-14.6 1.2-3.5 2.6-6.9 3.7-10.5 1.8-5.3 1.8-10.8 0.8-16.6-1-5.3-3-10.1-5.5-14.8-2.4-4.3-5.3-8.1-8.5-11.8-0.6-0.8-1.4-1.6-2-2.4-0.6 0.6-1 1.2-1.6 1.8-3.4 3.7-6.3 7.5-8.7 11.8-3.4 6.1-5.7 12.4-6.3 19.3-0.4 3.5-0.2 7.1 0.8 10.5 0.8 2.6 1.6 4.9 2.6 7.3 2 5.5 3.9 11 5.9 16.6 1.6 4.3 2.6 8.9 3 13.6 0.4 3.4 0.4 6.7 0.4 9.9v0.4h-5.5v-1.8c-0.2-3.9-0.6-7.9-1.6-11.6-1.2-4.5-2.8-8.9-5.3-12.8-2.4-3.5-5.5-6.5-9.3-8.3-3.5-1.8-7.1-2.2-10.8-0.8-6.7 2.6-10.8 7.7-11.8 14.8-0.2 0.8-0.2 1.4-0.2 2.2v2c0 0.6 0.2 1.4 0.2 2-0.5 3.2 0.8 6.1 3.2 8.7z"/>
	<path id="path298" class="st0" d="m255.2 38.7c-4.3-2.8-7.7-3-9.7-3.2-0.4-3.9-2.8-7.7-4.3-10.1h-0.2c0 2 0 4.1-0.2 6.1-0.4 5.3-1.6 9.7-2.8 13.6 3.2-2.2 6.5-3.9 10.1-4.9 2.4-0.8 4.7-1.3 7.1-1.5z"/>
	<path id="path300" class="st0" d="m180.2 40.2c3.5 1.2 6.7 2.8 10.1 4.9-1.4-3.9-2.4-8.3-2.8-13.6-0.2-2-0.2-4.1-0.2-6.1h-0.2c-1.6 2.4-3.9 6.1-4.3 10.1-2 0.2-5.3 0.4-9.7 3v0.2c2.2 0.2 4.6 0.7 7.1 1.5z"/>
</g>
</svg>
