<?xml version="1.0" encoding="UTF-8" standalone="no"?>
<svg
   width="1000.0001"
   height="139.00737"
   viewBox="0 0 77.102403 10.717802"
   version="1.1"
   id="svg282"
   sodipodi:docname="Ajinomoto_logo.svg"
   inkscape:version="1.2.2 (732a01da63, 2022-12-09)"
   xmlns:inkscape="http://www.inkscape.org/namespaces/inkscape"
   xmlns:sodipodi="http://sodipodi.sourceforge.net/DTD/sodipodi-0.dtd"
   xmlns="http://www.w3.org/2000/svg"
   xmlns:svg="http://www.w3.org/2000/svg">
  <defs
     id="defs286" />
  <sodipodi:namedview
     id="namedview284"
     pagecolor="#ffffff"
     bordercolor="#666666"
     borderopacity="1.0"
     inkscape:pageshadow="2"
     inkscape:pageopacity="0.0"
     inkscape:pagecheckerboard="0"
     showgrid="false"
     inkscape:zoom="0.6"
     inkscape:cx="435"
     inkscape:cy="63.333333"
     inkscape:window-width="1366"
     inkscape:window-height="705"
     inkscape:window-x="-8"
     inkscape:window-y="-8"
     inkscape:window-maximized="1"
     inkscape:current-layer="svg282"
     inkscape:showpageshadow="0"
     inkscape:deskcolor="#d1d1d1" />
  <g
     id="g1068">
    <path
       id="path1057"
       style="clip-rule:evenodd;fill:#e60012;fill-opacity:1;fill-rule:evenodd;stroke-width:0.41211"
       d="m 68.292691,4.445868 c 0,-2.7702141 1.725923,-4.4458601791728 4.39641,-4.4458601791728 2.687377,0 4.4133,1.6756460791728 4.4133,4.4458601791728 0,2.7706261 -1.725923,4.4462722 -4.4133,4.4462722 -2.670898,0 -4.39641,-1.6756461 -4.39641,-4.4462722 z m 4.39641,3.7333194 c 1.608881,0 2.571574,-1.6088837 2.571574,-3.7333194 0,-2.1063021 -0.962693,-3.732495 -2.571574,-3.732495 -1.592812,0 -2.571578,1.6261929 -2.571578,3.732495 0,2.1240235 0.978766,3.7333194 2.571578,3.7333194 z" />
    <path
       id="path1054"
       style="clip-rule:evenodd;fill:#e60012;fill-opacity:1;fill-rule:evenodd;stroke-width:0.41211"
       d="m 52.233113,4.445868 c 0,-2.7702141 1.725923,-4.4458601791728 4.396406,-4.4458601791728 2.687382,0 4.413306,1.6756460791728 4.413306,4.4458601791728 0,2.7706261 -1.725924,4.4462722 -4.413306,4.4462722 -2.670483,0 -4.396406,-1.6756461 -4.396406,-4.4462722 z m 4.396406,3.7333194 c 1.60971,0 2.571579,-1.6088837 2.571579,-3.7333194 0,-2.1063021 -0.961869,-3.732495 -2.571579,-3.732495 -1.591985,0 -2.571576,1.6261929 -2.571576,3.732495 0,2.1240235 0.979591,3.7333194 2.571576,3.7333194 z" />
    <path
       id="path1051"
       style="clip-rule:evenodd;fill:#e60012;fill-opacity:1;fill-rule:evenodd;stroke-width:0.41211"
       d="M 31.296195,4.4458602 C 31.296195,1.6756457 33.021706,1.4760799e-8 35.709085,1.4760799e-8 38.379981,1.4760799e-8 40.105079,1.6756457 40.105079,4.4458602 c 0,2.7706259 -1.725098,4.446272 -4.395994,4.446272 -2.687379,0 -4.41289,-1.6756461 -4.41289,-4.446272 z m 4.4133,3.733319 c 1.592402,0 2.571578,-1.6088837 2.571578,-3.733319 0,-2.1063023 -0.978764,-3.732495 -2.571578,-3.732495 -1.609295,0 -2.571576,1.6261927 -2.571576,3.732495 0,2.1240235 0.962281,3.733319 2.571576,3.733319 z" />
    <path
       id="path1048"
       style="clip-rule:evenodd;fill:#e60012;fill-opacity:1;fill-rule:evenodd;stroke-width:0.41211"
       d="M 10.923844 0.1492353 L 10.641637 0.49740082 L 7.2849718 4.0127882 C 6.8595884 3.8962779 6.4208421 3.8290212 5.9798029 3.8322301 C 4.6692268 3.8417657 3.4416222 4.3128387 2.4294785 4.9598527 C -0.42397708 6.7356383 -0.98828045 9.0487246 1.9480403 9.0574234 C 4.4367666 9.0647962 5.6978887 6.9841003 7.7382496 4.8435967 L 7.8523973 4.7204136 C 8.6514801 5.1551902 9.4481215 5.9303646 10.19363 7.2004905 C 10.492409 7.6979083 10.724361 8.3119615 10.757742 8.743442 L 12.533206 8.743442 L 12.533206 0.1492353 L 10.923844 0.1492353 z M 10.741328 1.5306031 L 10.741328 6.7857639 C 10.137585 5.7579675 9.249074 4.8789446 8.1829437 4.3543278 L 10.741328 1.5306031 z M 5.9463718 4.2468061 C 6.2666034 4.2468061 6.6226988 4.2817979 6.9515642 4.3621585 L 6.7759755 4.5455779 C 3.98887 7.4657953 3.2420283 8.6432992 2.0477312 8.6432992 C 1.2346366 8.6432992 0.72084919 7.1003276 2.8110751 5.3084699 C 3.62417 4.6124147 4.8019436 4.2468061 5.9463718 4.2468061 z " />
    <path
       style="clip-rule:evenodd;fill:#e60012;fill-opacity:1;fill-rule:evenodd;stroke-width:0.41211"
       d="M 63.78048,8.7433755 V 1.0949954 c -1.344308,0.049867 -1.874695,0.09973 -2.52171,0.1825663 V 0.14961128 h 6.802315 V 1.2775607 C 67.214197,1.1947286 67.098392,1.1118906 65.522474,1.0949944 v 7.6483802 z"
       id="path1045" />
    <path
       style="clip-rule:evenodd;fill:#e60012;fill-opacity:1;fill-rule:evenodd;stroke-width:0.41211"
       d="m 48.7994,2.8369913 -2.853461,5.9063842 h -0.299605 l -2.803597,-5.972322 -0.04985,-0.09973 c 0,0.032971 0.01698,0.065938 0,0.09973 a 85.746008,85.746008 0 0 0 -0.58025,5.9723214 h -1.227682 c 0.431481,-2.4718459 0.829171,-5.3092345 1.244578,-8.39512656 0.0162,-0.0663496 0.0162,-0.11621672 0.0162,-0.19904943 h 1.061597 l 2.770631,5.82354919 0.06672,0.1986378 0.09974,-0.2155344 2.903328,-5.80665259 h 0.91194 c 0.398515,3.30183849 0.84607,6.10502189 1.277549,8.59417639 H 49.34674 C 49.247,6.8019173 49.047958,4.744656 48.865394,2.8538879 c 0,-0.049867 -0.01698,-0.1326992 -0.01698,-0.1825663 z"
       id="path1042" />
    <path
       style="clip-rule:evenodd;fill:#e60012;fill-opacity:1;fill-rule:evenodd;stroke-width:0.41211"
       d="M 28.890699,6.0386867 28.857728,5.6570712 V 0.14919951 H 29.95271 V 8.7433755 H 29.023812 C 27.613566,7.183533 24.992534,4.2303406 23.532423,2.6713224 23.482554,2.6214574 23.416628,2.5056531 23.366759,2.422407 V 8.7433755 H 22.271773 V 0.14919951 h 1.26065 c 1.65916,1.82482999 3.517373,3.76628789 5.193017,5.65788029 z"
       id="path1039" />
    <path
       style="clip-rule:evenodd;fill:#e60012;fill-opacity:1;fill-rule:evenodd;stroke-width:0.41211"
       d="M 18.505485,8.7433755 H 20.2141 V 0.14919951 h -1.708615 z"
       id="path1036" />
    <path
       style="clip-rule:evenodd;fill:#e60012;fill-opacity:1;fill-rule:evenodd;stroke-width:0.41211"
       d="M 16.448224,0.14919951 V 7.3660976 c 0,2.2732089 -1.211196,3.1357584 -2.737658,3.3517044 L 13.3953,10.169693 c 1.1943,-0.3317493 1.343897,-1.49308 1.343897,-3.3348068 V 0.14919951 Z"
       id="path1033" />
  </g>
</svg>
