<?xml version="1.0" encoding="UTF-8" standalone="no"?>
<!-- Created with Inkscape (http://www.inkscape.org/) -->

<svg
   width="10.307096mm"
   height="4.4342475mm"
   viewBox="0 0 10.307096 4.4342475"
   version="1.1"
   id="svg5"
   inkscape:version="1.1 (c68e22c387, 2021-05-23)"
   sodipodi:docname="描画.svg"
   xmlns:inkscape="http://www.inkscape.org/namespaces/inkscape"
   xmlns:sodipodi="http://sodipodi.sourceforge.net/DTD/sodipodi-0.dtd"
   xmlns="http://www.w3.org/2000/svg"
   xmlns:svg="http://www.w3.org/2000/svg">
  <sodipodi:namedview
     id="namedview7"
     pagecolor="#ffffff"
     bordercolor="#666666"
     borderopacity="1.0"
     inkscape:pageshadow="2"
     inkscape:pageopacity="0.0"
     inkscape:pagecheckerboard="0"
     inkscape:document-units="mm"
     showgrid="false"
     fit-margin-top="0"
     fit-margin-left="0"
     fit-margin-right="0"
     fit-margin-bottom="0"
     inkscape:zoom="8.7887579"
     inkscape:cx="20.253146"
     inkscape:cy="-9.5007737"
     inkscape:window-width="1920"
     inkscape:window-height="1057"
     inkscape:window-x="-8"
     inkscape:window-y="-8"
     inkscape:window-maximized="1"
     inkscape:current-layer="layer1" />
  <defs
     id="defs2">
    <clipPath
       clipPathUnits="userSpaceOnUse"
       id="clipPath838">
      <path
         d="m 93.496,438.405 h 409.648 v 326.57 H 93.496 Z"
         id="path836" />
    </clipPath>
    <clipPath
       clipPathUnits="userSpaceOnUse"
       id="clipPath856">
      <path
         d="M 303.418,405.104 H 423.974 V 325.79 H 303.418 Z"
         id="path854" />
    </clipPath>
    <clipPath
       clipPathUnits="userSpaceOnUse"
       id="clipPath870">
      <path
         d="M 435.587,405.104 H 556.151 V 325.79 H 435.587 Z"
         id="path868" />
    </clipPath>
    <clipPath
       clipPathUnits="userSpaceOnUse"
       id="clipPath884">
      <path
         d="M 39.136,405.105 H 159.692 V 325.791 H 39.136 Z"
         id="path882" />
    </clipPath>
    <clipPath
       clipPathUnits="userSpaceOnUse"
       id="clipPath898">
      <path
         d="M 171.278,405.105 H 291.834 V 325.791 H 171.278 Z"
         id="path896" />
    </clipPath>
    <clipPath
       clipPathUnits="userSpaceOnUse"
       id="clipPath948">
      <path
         d="M 0,841.89 H 595.28 V 0 H 0 Z"
         id="path946" />
    </clipPath>
    <clipPath
       clipPathUnits="userSpaceOnUse"
       id="clipPath998">
      <path
         d="M 0,841.89 H 595.28 V 0 H 0 Z"
         id="path996" />
    </clipPath>
    <clipPath
       clipPathUnits="userSpaceOnUse"
       id="clipPath1016">
      <path
         d="m 402.777,147.81 h 33.025 v 10.41 h -33.025 z"
         id="path1014" />
    </clipPath>
    <clipPath
       clipPathUnits="userSpaceOnUse"
       id="clipPath1028">
      <path
         d="M 0,841.89 H 595.28 V 0 H 0 Z"
         id="path1026" />
    </clipPath>
    <clipPath
       clipPathUnits="userSpaceOnUse"
       id="clipPath1052">
      <path
         d="M 0,841.89 H 595.28 V 0 H 0 Z"
         id="path1050" />
    </clipPath>
    <clipPath
       clipPathUnits="userSpaceOnUse"
       id="clipPath1088">
      <path
         d="M 0,841.89 H 595.28 V 0 H 0 Z"
         id="path1086" />
    </clipPath>
    <clipPath
       clipPathUnits="userSpaceOnUse"
       id="clipPath1108">
      <path
         d="M 0,841.89 H 595.28 V 0 H 0 Z"
         id="path1106" />
    </clipPath>
  </defs>
  <g
     inkscape:label="レイヤー 1"
     inkscape:groupmode="layer"
     id="layer1"
     transform="translate(212.42775,24.685024)">
    <g
       id="g950"
       transform="matrix(0.35277777,0,0,-0.35277777,-202.1315,-21.724473)">
      <path
         d="M 0,0 V 0.195 C 0.041,0.439 0.041,0.854 0,1.1 0.005,1.406 -0.168,1.535 -0.27,1.736 -0.341,1.828 -0.422,1.908 -0.514,1.979 -0.54,2.053 -0.624,2.064 -0.686,2.103 -0.779,2.195 -0.852,2.311 -0.93,2.42 -0.93,2.593 -1.014,2.679 -1.198,2.664 -1.303,2.69 -1.378,2.746 -1.492,2.763 -1.678,2.879 -2.008,2.85 -2.25,2.91 -2.432,2.968 -2.73,2.934 -2.861,2.861 -3.066,2.878 -3.197,2.82 -3.326,2.763 -3.434,2.765 -3.494,2.719 -3.57,2.688 H -3.596 C -3.831,2.484 -4.2,2.414 -4.475,2.248 -4.512,2.213 -4.578,2.205 -4.598,2.15 -4.641,2.13 -4.668,2.093 -4.721,2.078 -4.762,2.092 -4.863,2.049 -4.866,2.103 c 0.11,0.133 0.244,0.245 0.391,0.342 0.209,0.189 0.482,0.317 0.709,0.489 h 0.025 c 0.116,0.062 0.184,0.173 0.293,0.245 0.125,0.071 0.24,0.151 0.318,0.268 0.036,0.004 0.09,-0.009 0.098,0.025 0.108,0.079 0.216,0.158 0.293,0.268 0.059,-0.002 0.118,-0.004 0.147,0.026 0.008,0.032 0.035,0.046 0.024,0.097 0.073,0.064 0.056,0.248 0,0.318 C -2.602,4.334 -2.701,4.423 -2.714,4.597 -2.749,4.88 -3.109,4.856 -3.375,4.793 -3.598,4.688 -3.801,4.565 -4.01,4.449 -4.053,4.428 -4.132,4.44 -4.157,4.4 -4.262,4.35 -4.348,4.281 -4.451,4.229 c -0.02,-0.004 -0.048,0 -0.048,-0.024 -0.054,-0.02 -0.084,-0.063 -0.172,-0.049 -10e-4,0.032 -0.031,0.033 -0.024,0.073 0.043,0.023 0.075,0.056 0.097,0.099 0.073,0.026 0.145,0.051 0.172,0.121 0.086,0.117 0.207,0.199 0.293,0.319 0.121,0.043 0.179,0.146 0.319,0.17 0.281,0.423 0.793,0.614 1.068,1.042 0.038,0.023 0.075,0.043 0.115,0.063 0.1,0.045 0.206,0.101 0.311,0.133 0.091,0.027 0.185,0.044 0.257,0.117 0.165,0.162 0.111,0.336 -10e-4,0.5 C -2.083,6.855 -2.118,6.899 -2.169,6.928 -2.23,7 -2.295,7.068 -2.35,7.132 c -0.029,0.041 -0.059,0.082 -0.089,0.122 0,0.001 -0.002,0.002 -0.002,0.003 V 7.256 C -2.455,7.272 -2.469,7.291 -2.482,7.308 -2.5,7.332 -2.521,7.35 -2.543,7.363 c -0.021,0.019 -0.044,0.034 -0.074,0.045 -0.081,0.01 -0.274,0.021 -0.365,0 -0.147,-0.01 -0.27,-0.041 -0.393,-0.074 H -3.398 C -3.879,7.18 -4.251,6.916 -4.671,6.699 H -4.695 C -4.896,6.576 -5.061,6.412 -5.258,6.283 c -0.073,0 -0.083,-0.063 -0.146,-0.074 -0.065,0.09 0.039,0.179 0.073,0.246 0.099,0.121 0.227,0.213 0.317,0.342 0.075,0.105 0.187,0.173 0.244,0.294 0.107,0.112 0.241,0.157 0.271,0.268 0.117,0.447 -0.407,0.665 -0.612,0.93 C -5.499,8.343 -5.548,8.058 -5.698,7.873 -5.732,7.867 -5.739,7.832 -5.771,7.824 -5.898,7.731 -5.991,7.604 -6.089,7.481 -6.215,7.262 -6.406,7.106 -6.51,6.865 -6.643,6.729 -6.748,6.549 -6.838,6.386 -6.904,6.267 -6.971,6.131 -6.988,5.992 -7.004,5.957 -7.02,5.921 -7.018,5.867 -7.077,5.759 -7.141,5.656 -7.186,5.533 -7.207,5.503 -7.221,5.468 -7.225,5.431 -7.295,5.297 -7.382,4.988 -7.287,4.865 -7.232,4.894 -7.26,5.076 -7.165,4.988 -7.133,4.963 -7.075,4.964 -7.042,4.938 -7.046,4.845 -7.125,4.826 -7.116,4.719 -7.206,4.377 -7.313,4.051 -7.458,3.766 -7.458,3.74 -7.479,3.736 -7.482,3.717 -7.539,3.617 -7.645,3.568 -7.654,3.423 -7.71,3.252 -7.762,3.074 -7.922,3.007 c -0.047,0.053 -0.017,0.18 -0.025,0.268 -0.004,0.062 0.038,0.077 0.049,0.122 0.237,0.31 0.528,0.696 0.464,1.224 0,0.033 -0.011,0.054 -0.024,0.074 v 0.024 c -0.073,0.017 -0.149,0.029 -0.171,0.097 0.015,0.059 0.035,0.113 0.025,0.197 -0.382,0.106 -0.5,0.479 -1.102,0.366 C -8.957,5.231 -9.182,5.058 -9.438,4.914 -9.477,4.837 -9.531,4.779 -9.561,4.695 -10.169,4.211 -10.777,3.729 -11.395,3.255 -11.467,3.25 -11.539,3.24 -11.609,3.222 c -0.028,0.008 -0.059,0.014 -0.104,0.006 -0.189,-0.055 -0.142,-0.347 -0.439,-0.294 v -0.22 c 0.08,-0.074 0.079,-0.231 0.195,-0.269 0.016,-0.057 0.081,-0.066 0.098,-0.123 0.069,-0.125 0.148,-0.242 0.341,-0.244 h 0.025 c 0.034,-0.03 0.074,-0.055 0.118,-0.073 0.137,-0.093 0.285,-0.165 0.482,-0.183 0.299,-0.024 0.596,0.118 0.791,0.34 0.031,0.016 0.063,0.023 0.101,0.014 V 2.15 C -10.385,1.728 -10.439,0.978 -10.734,0.464 -10.916,0.457 -10.893,0.246 -10.979,0.146 -10.986,0.089 -11.01,0.046 -11.027,0 c -0.101,-0.088 -0.088,-0.288 -0.148,-0.416 0,-0.318 -0.179,-0.459 -0.22,-0.733 -0.039,-0.289 -0.119,-0.536 -0.147,-0.831 -0.007,-0.207 -0.161,-0.263 -0.146,-0.491 0.036,-0.012 0.059,-0.037 0.073,-0.072 h 0.073 c 0.067,-0.084 0.209,0.058 0.245,-0.049 v -0.221 c 0.149,-0.062 0.32,-0.252 0.514,-0.123 0.168,-0.012 0.303,0.008 0.366,0.1 0.028,0.002 0.069,-0.006 0.073,0.023 0.078,0.02 0.145,0.051 0.196,0.098 0.274,0.125 0.27,0.528 0.611,0.586 0.057,-0.057 -0.013,-0.24 0.074,-0.267 0.003,-0.095 0.083,-0.114 0.072,-0.221 -0.041,-0.04 -0.142,-0.02 -0.218,-0.025 -0.03,-0.085 -0.053,-0.175 -0.098,-0.243 -0.037,-0.021 -0.053,-0.062 -0.05,-0.123 -0.046,-0.004 -0.014,-0.082 -0.05,-0.097 -0.043,-0.118 0.011,-0.35 0.1,-0.416 0.011,0.009 0.019,0.021 0.027,0.035 0.217,-0.344 0.935,-0.657 1.437,-0.602 10e-4,-0.006 10e-4,-0.014 0.002,-0.02 0.084,-0.011 0.137,0.008 0.196,0.024 -0.002,0.016 -10e-4,0.029 -10e-4,0.043 0.097,0.037 0.177,0.095 0.233,0.178 0.074,0.019 0.131,0.056 0.135,0.146 0.03,1.279 -0.279,2.467 -0.172,3.717 0.028,0.281 -0.018,0.697 0,1.051 0.161,0.314 0.325,0.621 0.441,0.978 0.031,0.116 -0.013,0.305 0.073,0.367 0.033,0 0.054,-0.011 0.072,-0.025 0.039,-0.035 0.086,-0.061 0.099,-0.123 h 0.22 C -6.911,2.25 -6.891,2.238 -6.871,2.225 -6.844,2.072 -6.695,2.041 -6.7,1.857 -6.749,1.76 -6.827,1.691 -6.871,1.589 V 1.563 C -6.982,1.496 -7.027,1.363 -7.091,1.246 V 1.223 C -7.363,0.728 -7.604,0.201 -7.678,-0.489 v -0.025 c -0.072,-0.188 -0.095,-0.636 0.049,-0.757 0.014,-0.084 0.046,-0.151 0.097,-0.196 v -0.295 c 0.15,-0.299 0.207,-0.688 0.563,-0.781 h 0.024 c 0.058,-0.057 0.22,-0.01 0.319,-0.024 h 0.048 c 0.04,-0.068 0.096,-0.118 0.171,-0.148 0.102,0.069 0.268,0.205 0.245,0.319 0.025,0.3 0.032,0.62 0.122,0.855 0.01,0.047 0.069,0.045 0.049,0.123 0.076,0.135 -0.045,0.469 0.098,0.537 0.064,0.067 0.279,-0.018 0.342,0.049 h 0.735 c 0.17,0.016 0.289,-0.02 0.341,-0.122 -0.084,-0.292 -0.257,-0.492 -0.588,-0.538 -0.108,0.07 -0.123,0.234 -0.244,0.294 0.004,0.061 -0.037,0.076 -0.073,0.096 -0.032,0.068 -0.109,0.073 -0.171,0.049 -0.035,-0.086 -0.045,-0.264 0.049,-0.293 -0.01,-0.123 0.089,-0.138 0.147,-0.195 V -1.59 c -0.092,0.017 -0.183,0.129 -0.293,0.049 -0.008,-0.057 0.003,-0.094 0.024,-0.122 0.058,-0.065 0.097,-0.149 0.194,-0.171 0.041,-0.066 0.184,-0.159 0.099,-0.27 -0.16,0.061 -0.205,0.236 -0.367,0.293 v 0.026 c -0.06,0.003 -0.116,0.004 -0.146,-0.026 0.015,-0.138 0.028,-0.281 0.121,-0.341 0.018,-0.114 0.1,-0.161 0.172,-0.22 0.272,-0.413 0.763,-0.607 1.246,-0.808 0.043,-0.22 -0.274,0.045 -0.416,0.026 -0.07,0.056 -0.172,0.048 -0.267,0.023 -0.073,-0.274 0.28,-0.317 0.489,-0.39 0.074,0.017 0.089,-0.026 0.145,-0.026 h 0.026 c 0,-0.031 0.042,-0.021 0.049,-0.047 h 0.317 c 0.062,-0.062 0.123,-0.123 0.269,-0.098 0.072,-0.027 0.14,-0.055 0.245,-0.049 0.082,0.014 0.227,-0.031 0.268,0.024 0.082,-0.002 0.13,0.032 0.172,0.072 0.133,0.041 0.197,0.145 0.319,0.197 0.243,-0.009 0.494,-0.066 0.585,0.123 0.013,0.134 0.233,0.059 0.293,0.145 0.086,0.062 0.152,0.144 0.319,0.123 0.232,0.1 0.398,0.27 0.562,0.44 0.026,0.064 0.098,0.083 0.123,0.146 0.267,0.385 0.515,0.789 0.611,1.346 0.041,0.113 0.071,0.238 0.122,0.342 v 0.074 c 0.053,0.002 0.053,0.062 0.049,0.121 C 0.031,-0.44 -0.018,-0.188 0,0 m -6.578,3.668 c -0.041,-0.043 -0.081,0.02 -0.171,0 C -6.771,3.607 -6.807,3.562 -6.798,3.472 -6.854,3.397 -6.885,3.298 -6.92,3.203 -6.975,3.144 -7.023,3.078 -7.066,3.007 -7.098,3.002 -7.117,2.969 -7.116,3.031 c 0.136,0.306 0.212,0.668 0.367,0.953 0.091,-0.016 0.104,0.043 0.194,0.026 0.035,-0.04 0.237,-0.04 0.271,0 H -6.26 C -6.232,4.006 -6.239,3.965 -6.236,3.937 -6.294,3.791 -6.438,3.729 -6.578,3.668 m 1.762,-3.277 c -0.062,0.004 -0.008,0.083 0,0.097 0.123,0.055 0.186,0.172 0.293,0.244 h 0.024 c 0.19,0.023 0.194,0.331 0.415,0.246 0.05,-0.007 0.048,-0.066 0.098,-0.074 0.004,-0.453 -0.353,-0.543 -0.83,-0.513 m 1.319,-2.348 c -0.075,-0.018 -0.089,0.025 -0.148,0.025 -0.021,0.051 -0.074,0.072 -0.072,0.147 0.069,0.047 0.123,0.103 0.171,0.171 0.114,0.071 0.18,-0.089 0.269,-0.122 -0.063,-0.084 -0.136,-0.158 -0.22,-0.221 m 1.785,1.81 v -0.025 c -0.162,-0.18 -0.252,-0.432 -0.44,-0.586 -0.169,0.041 -0.244,0.179 -0.342,0.293 0.036,0.16 0.062,0.328 0.122,0.465 0.033,0.008 0.02,0.061 0.024,0.098 v 0.146 c 0.023,0.174 0.084,0.451 0,0.586 0.008,0.058 -0.004,0.095 -0.024,0.123 -0.041,0.147 -0.151,0.224 -0.269,0.293 -0.13,0.062 -0.343,0.101 -0.514,0.05 H -3.57 c 0.011,0.059 0.058,0.087 0.097,0.122 0.133,0.096 0.366,0.092 0.537,0.145 0.161,0.136 0.54,0.05 0.808,0.075 C -2.124,1.584 -2.066,1.586 -2.005,1.589 -1.866,1.533 -1.78,1.423 -1.811,1.197 -1.818,1.06 -1.717,1.029 -1.663,0.953 V 0.488 C -1.661,0.259 -1.65,0.02 -1.712,-0.147"
         style="fill:#e60013;fill-opacity:1;fill-rule:nonzero;stroke:none"
         id="path952" />
    </g>
    <g
       id="g954"
       transform="matrix(0.35277777,0,0,-0.35277777,-205.78056,-23.449768)">
      <path
         d="M 0,0 C -0.008,-0.059 -0.038,-0.092 -0.023,-0.172 0.3,-0.226 0.395,0.158 0.611,0.293 0.705,0.346 0.745,0.453 0.855,0.488 0.99,0.646 1.209,0.941 1.418,0.977 1.719,1.029 2.045,0.752 2.348,0.929 2.4,0.974 2.527,0.944 2.617,0.953 2.742,1.029 2.891,1.086 2.959,1.222 3.001,1.506 3.271,1.563 3.179,1.979 3.111,2.035 3.059,2.104 3.008,2.176 2.871,2.486 2.732,2.888 2.396,2.982 1.962,3.104 1.514,2.953 1.052,3.031 0.938,2.949 0.763,2.929 0.636,2.859 0.617,2.734 0.67,2.683 0.661,2.566 0.57,2.559 0.492,2.539 0.439,2.494 0.402,2.31 0.531,2.291 0.563,2.176 0.543,2.129 0.556,1.908 0.611,1.857 0.681,1.699 0.672,1.453 0.587,1.319 0.361,1.252 0.263,1.058 0.195,0.83 0.193,0.815 0.191,0.802 0.171,0.807 -0.071,0.631 -0.26,0.404 -0.195,0.048 -0.17,-0.008 -0.021,0.06 0,0"
         style="fill:#e60013;fill-opacity:1;fill-rule:nonzero;stroke:none"
         id="path956" />
    </g>
    <g
       id="g958"
       transform="matrix(0.35277777,0,0,-0.35277777,-208.47599,-22.034882)">
      <path
         d="M 0,0 C -0.237,0.351 -0.799,0.769 -1.173,0.782 -1.479,0.794 -1.885,0.665 -2.225,0.709 -2.362,0.726 -2.443,0.856 -2.592,0.808 -2.598,0.788 -2.612,0.778 -2.641,0.782 -2.838,0.783 -3.146,0.841 -3.203,0.636 -3.212,0.604 -3.234,0.586 -3.275,0.586 -3.393,0.589 -3.438,0.521 -3.473,0.44 -3.736,0.272 -3.932,0.036 -4.182,-0.147 -4.232,0 -4.412,0.022 -4.464,0.169 -4.585,0.238 -4.693,0.332 -4.805,0.417 -4.832,0.438 -4.852,0.466 -4.863,0.497 -4.918,0.546 -4.986,0.582 -5.063,0.61 -5.23,0.495 -5.364,0.343 -5.33,0.024 c -0.091,0.026 -0.079,-0.05 -0.123,-0.073 0.053,-0.152 0.154,-0.255 0.269,-0.343 0.029,-0.062 0.077,-0.105 0.118,-0.152 0.002,-0.075 0.002,-0.15 0,-0.223 -0.007,-0.004 -0.013,-0.007 -0.019,-0.016 -0.007,-0.191 -0.07,-0.321 -0.123,-0.464 h -0.009 c -0.017,-0.068 -0.04,-0.136 -0.058,-0.204 0.002,-0.023 0.009,-0.045 0.018,-0.066 0.01,-0.071 -0.03,-0.091 -0.056,-0.129 -0.001,-0.023 -0.001,-0.048 0,-0.074 0.004,-0.093 0.012,-0.187 0.036,-0.273 0.054,-0.092 0.097,-0.195 0.161,-0.279 0.009,-0.008 0.014,-0.016 0.022,-0.023 0.023,-0.018 0.037,-0.037 0.051,-0.056 0.036,-0.03 0.078,-0.054 0.129,-0.07 0.018,-0.144 0.084,-0.241 0.221,-0.269 0.109,0.043 0.226,0.112 0.341,0.025 0.09,0.04 0.154,0.107 0.22,0.17 0.1,0.088 0.208,0.168 0.269,0.294 v 0.025 c 0.161,0.148 0.215,0.405 0.295,0.636 0.056,0.084 0.112,0.178 0.152,0.28 -10e-4,0.09 0.01,0.178 0.033,0.269 0.004,0.019 0.01,0.037 0.014,0.056 -0.002,0.018 -0.002,0.036 -0.004,0.055 0.011,0.01 0.021,0.024 0.027,0.039 0.01,0.044 0.018,0.088 0.02,0.132 0,0.005 10e-4,0.009 0.002,0.015 0,0.027 -0.001,0.054 -0.001,0.082 0.012,0.004 0.022,0.011 0.03,0.019 0.004,0.008 0.008,0.014 0.013,0.022 0.005,0.008 0.007,0.019 0.007,0.033 h 0.022 l 0.003,0.003 c 0.023,0.033 0.023,0.089 0.072,0.095 0.02,-0.013 0.041,-0.021 0.064,-0.028 0.055,0.01 0.114,0.003 0.164,-0.019 0.137,0 0.283,0.024 0.384,-0.028 0.149,-0.075 0.168,-0.263 0.366,-0.293 0.024,0.002 0.042,-0.005 0.057,-0.015 0,-0.001 0.002,-0.002 0.002,-0.002 0.009,-0.009 0.013,-0.015 0.016,-0.017 0.002,-0.009 0.007,-0.014 0.013,-0.02 0.008,-0.011 0.014,-0.022 0.02,-0.034 0.007,-0.009 0.011,-0.021 0.014,-0.033 -0.031,-0.011 -0.05,-0.032 -0.049,-0.074 -0.023,10e-4 -0.029,-0.019 -0.049,-0.023 -0.226,-0.246 -0.459,-0.489 -0.66,-0.759 -0.055,-0.021 -0.098,-0.049 -0.098,-0.123 -0.146,-0.098 -0.248,-0.241 -0.367,-0.366 h -0.024 c -0.133,-0.096 -0.253,-0.204 -0.366,-0.318 -0.026,0 -0.03,-0.02 -0.05,-0.025 -0.073,-0.089 -0.302,-0.118 -0.325,-0.239 -0.153,-0.082 -0.291,-0.186 -0.452,-0.269 -0.033,-0.002 -0.048,-0.021 -0.064,-0.039 -0.007,-0.005 -0.014,-0.01 -0.02,-0.017 -0.218,-0.007 -0.296,-0.155 -0.435,-0.242 -0.201,-0.055 -0.5,-0.133 -0.464,-0.344 0.118,-0.066 0.161,0.125 0.342,0.075 0.026,-0.056 0.016,-0.148 0.05,-0.196 0.211,0.008 0.317,0.121 0.463,0.196 0.251,-0.107 0.476,-0.243 0.857,-0.221 0.203,-0.068 0.31,0.051 0.488,0.074 0.219,0.1 0.363,0.095 0.588,0 h 0.024 c 0.026,-0.04 0.218,-0.04 0.244,0 0.067,0.031 0.136,0.061 0.245,0.049 0.054,-0.061 0.182,0.012 0.22,0.049 0.057,0.008 0.091,0.038 0.171,0.024 v -0.024 c 0.379,-0.199 0.846,0.015 1.027,0.244 0.043,0.021 0.071,0.059 0.122,0.074 0.135,0.036 0.204,0.138 0.293,0.219 0.119,0.256 0.403,0.407 0.513,0.709 C 0.417,-1.76 0.384,-0.563 0,0"
         style="fill:#e60013;fill-opacity:1;fill-rule:nonzero;stroke:none"
         id="path960" />
    </g>
    <g
       id="g962"
       transform="matrix(0.35277777,0,0,-0.35277777,-208.47599,-23.207939)">
      <path
         d="M 0,0 C -0.156,0.178 -0.314,0.494 -0.514,0.563 -0.598,0.592 -0.76,0.557 -0.904,0.587 -1.007,0.609 -1.089,0.678 -1.173,0.686 -1.298,0.693 -1.661,0.677 -1.76,0.66 -1.939,0.63 -2.105,0.457 -2.322,0.464 -2.494,0.471 -2.646,0.631 -2.813,0.611 -2.908,0.6 -2.975,0.484 -3.081,0.464 -3.237,0.434 -3.398,0.541 -3.594,0.538 -3.698,0.537 -3.82,0.439 -3.912,0.489 c 0.035,0.072 0.091,0.12 0.171,0.148 0.087,0.018 0.141,0.07 0.22,0.095 h 0.098 c 0.023,-0.065 0.077,0.036 0.148,0 0.041,0.239 0.595,0.191 0.488,0.418 -0.152,0.163 0.103,0.268 0.074,0.464 h 0.024 c 0.022,0.043 0.068,0.062 0.048,0.146 h -0.026 c 0.009,0.015 0.019,0.031 0.026,0.047 0.017,0.03 0.027,0.06 0.032,0.091 0.013,0.011 0.028,0.023 0.043,0.034 0.076,0.039 0.056,0.223 0,0.269 -0.047,0.1 -0.069,0.225 -0.098,0.342 C -2.729,2.609 -2.889,2.58 -2.909,2.689 -2.895,3.007 -3.132,3.071 -3.252,3.252 -3.548,3.287 -3.652,3.13 -3.912,3.13 -4.146,3.227 -4.227,3.604 -4.475,3.766 -4.564,3.825 -4.811,3.846 -4.988,3.938 -5.098,3.992 -5.169,4.1 -5.257,4.132 -5.717,4.3 -6.02,4.039 -6.381,3.938 -6.541,3.674 -6.686,3.344 -6.455,3.057 -6.415,2.925 -6.257,2.912 -6.112,2.885 h 0.049 V 2.861 c 0.11,-0.028 0.154,-0.095 0.17,-0.172 0.125,-0.555 -0.826,-0.472 -1.246,-0.561 -0.062,0.06 -0.159,0.085 -0.22,0.145 -0.224,0 -0.308,0 -0.491,-0.023 -0.037,-0.167 -0.102,-0.305 -0.096,-0.514 -0.068,-0.101 0.02,-0.256 0.073,-0.318 0.042,-0.202 0.1,-0.391 0.171,-0.563 0.16,-0.451 0.604,-0.618 1.076,-0.757 0.173,-0.039 0.123,0.207 0.293,0.098 -0.063,-0.092 -0.166,-0.143 -0.194,-0.269 -0.721,-0.318 -1.416,-0.616 -2.153,-0.978 -0.722,-0.356 -1.49,-0.952 -2.445,-0.856 -0.014,-0.034 -0.038,-0.06 -0.074,-0.073 -0.031,-0.308 0.205,-0.344 0.097,-0.636 0.021,-0.005 0.03,-0.021 0.026,-0.049 0.154,-0.164 0.323,-0.312 0.489,-0.465 0.433,-0.029 0.853,-0.588 1.368,-0.244 0.096,0.028 0.14,0.104 0.244,0.122 0.291,0.166 0.664,0.25 0.931,0.439 0.046,0.011 0.044,0.071 0.122,0.05 0.156,0.096 0.309,0.197 0.44,0.318 0.072,-0.007 0.075,0.054 0.147,0.049 0.058,0.019 0.169,0.048 0.22,0 0.013,-0.331 -0.09,-0.754 -0.244,-1 -0.013,-0.088 -0.034,-0.172 -0.071,-0.25 0,-0.006 -0.002,-0.014 -0.004,-0.022 V -3.716 C -7.448,-3.718 -7.46,-3.721 -7.475,-3.723 -7.496,-3.751 -7.52,-3.779 -7.547,-3.802 -7.615,-3.857 -7.686,-3.91 -7.757,-3.96 -7.787,-3.98 -7.816,-4.001 -7.848,-4.021 -7.85,-4.023 -7.852,-4.023 -7.852,-4.025 -7.877,-4.054 -7.905,-4.074 -7.936,-4.086 -7.938,-4.093 -7.943,-4.1 -7.946,-4.107 -8.154,-4.104 -8.212,-4.25 -8.313,-4.352 -8.335,-4.396 -8.368,-4.428 -8.411,-4.45 c -0.041,-0.018 -0.112,-0.13 -0.171,-0.049 0.048,0.343 0.075,0.707 0.195,0.978 0.095,0.072 -0.034,0.303 -0.097,0.147 -0.185,-0.036 -0.243,-0.199 -0.293,-0.367 -0.151,-0.128 -0.39,-0.166 -0.537,-0.294 10e-4,-0.002 10e-4,-0.004 0.005,-0.006 -0.039,-0.012 -0.078,-0.025 -0.113,-0.047 -0.053,-0.031 -0.094,-0.069 -0.127,-0.112 -0.004,-0.002 -0.008,-0.003 -0.012,-0.006 -0.267,-0.205 -0.315,-0.629 -0.367,-1.051 -0.047,-0.1 -0.071,-0.279 0,-0.367 v -0.073 c 0.021,-0.127 -0.074,-0.267 0,-0.367 -0.006,-0.12 0.076,-0.154 0.074,-0.269 0.187,-0.246 0.229,-0.635 0.586,-0.709 0,-0.024 0.021,-0.028 0.026,-0.049 0.064,-0.083 0.144,-0.149 0.146,-0.293 0.103,-0.048 0.198,0.042 0.244,0.122 0.1,0.024 0.174,0.071 0.27,0.098 0.123,0.048 0.202,0.141 0.269,0.244 0.084,0.063 0.137,0.154 0.17,0.27 0.06,0.022 0.066,0.097 0.172,0.072 0.014,-0.175 0.052,-0.381 0.098,-0.586 0.023,-0.05 0.05,-0.097 0.072,-0.147 0.089,-0.108 0.132,-0.259 0.173,-0.416 0.307,-0.117 0.48,-0.366 0.733,-0.539 0.077,0.004 0.118,-0.028 0.17,-0.048 0.09,-0.107 0.323,-0.081 0.392,0.025 0.067,0.03 0.071,0.125 0.123,0.171 0.091,0.023 0.114,0.113 0.194,0.147 h 0.026 c 0.156,-0.009 0.2,0.093 0.269,0.171 -0.02,0.359 -0.036,0.924 -0.074,1.345 v 0.023 c -0.055,0.414 0.029,0.825 -0.049,1.224 v 0.073 c -0.006,0.642 0.123,1.149 0.221,1.687 0.066,0.03 0.045,0.151 0.049,0.245 0.015,0.264 0.271,0.403 0.293,0.66 0.015,0.186 -0.05,0.333 0.097,0.416 h 0.049 c -0.017,-0.076 0.069,-0.047 0.05,-0.122 0.116,-0.011 0.185,0.026 0.219,0.097 h 0.024 c 0.283,0.157 0.503,0.379 0.832,0.489 0.093,0.015 0.153,0.059 0.269,0.05 0.177,0.004 0.453,0.095 0.71,0.097 0.035,0.014 0.126,-0.028 0.122,0.024 h 0.196 c 0.517,-0.113 1.007,0.047 1.49,-0.024 0.276,-0.041 0.477,-0.255 0.686,-0.295 0.338,-0.06 0.566,0.132 0.732,0.344 0.026,0.065 0.099,0.082 0.123,0.147 0.073,0.043 0.094,0.134 0.098,0.244 C 0.4,-0.549 0.225,-0.255 0,0 m -7.643,-6.352 c -0.002,-0.007 -0.003,-0.014 -0.005,-0.019 -0.045,-0.018 -0.082,-0.045 -0.107,-0.077 -0.1,0.079 -0.179,0.216 -0.289,0.262 -0.088,0.038 -0.173,0.045 -0.252,0.073 -0.162,0.293 -0.198,0.592 -0.15,0.922 0.01,0.003 0.022,0.005 0.035,0.007 0.007,0.157 0.093,0.234 0.147,0.343 0.01,-0.026 0.023,-0.052 0.034,-0.08 0.001,-0.058 0.009,-0.116 0.021,-0.173 -0.003,-0.006 -0.003,-0.011 -0.006,-0.015 0.004,-0.008 0.009,-0.014 0.013,-0.021 0.02,-0.091 0.05,-0.179 0.09,-0.263 -10e-4,-0.003 -0.004,-0.005 -0.006,-0.011 0.009,-0.006 0.014,-0.013 0.02,-0.019 0.026,-0.047 0.053,-0.091 0.082,-0.134 0.071,-0.213 0.026,-0.521 0.277,-0.572 0.04,-0.044 0.077,-0.091 0.096,-0.146 0.011,-0.034 0.006,-0.048 0,-0.077"
         style="fill:#e60013;fill-opacity:1;fill-rule:nonzero;stroke:none"
         id="path964" />
    </g>
  </g>
</svg>
