<?xml version="1.0" encoding="utf-8"?>
<!-- Generator: Adobe Illustrator 13.0.0, SVG Export Plug-In . SVG Version: 6.00 Build 14948)  -->
<!DOCTYPE svg PUBLIC "-//W3C//DTD SVG 1.1//EN" "http://www.w3.org/Graphics/SVG/1.1/DTD/svg11.dtd">
<svg version="1.1" id="Layer_1" xmlns="http://www.w3.org/2000/svg" xmlns:xlink="http://www.w3.org/1999/xlink" x="0px" y="0px"
	 width="320px" height="300px" viewBox="0 0 320 300" enable-background="new 0 0 320 300" xml:space="preserve">
<g id="_x23_fe020dff">
</g>
<g id="_x23_feffffff">
	<path fill="#E4312B" d="M65.26,31.33c31.35-6.57,65.45,0.26,91.57,18.88c1.93,1.46,3.899-0.92,5.63-1.71
		c19.45-13.13,43.01-20.89,66.62-19.26c19.68,1.09,40.08,7.18,54.5,21.18c10.76,10.1,16.699,24.87,16.449,39.57
		c0.44,16.32-6.449,32.021-16.319,44.72c-14.7,18.87-35.67,32.229-58.2,39.79c-1.64,0.471-3.35,0.439-5.021,0.57
		c-0.489-3.33,2.58-5.01,4.82-6.75c14.561-10.9,28.46-23.24,38.271-38.73c6.609-10.24,10.989-22.32,10.52-34.64
		c-0.58-13.53-8.62-25.88-19.479-33.6c-12.261-8.76-27.71-12.02-42.591-11.59c-17.81,0.7-35.01,7.49-49.46,17.72
		c-1.779,1.09-4.149,3.19-6.1,1.25c-14.62-12.23-33.54-18.57-52.42-19.65c-15.16-0.72-31.021,2.46-43.5,11.46
		c-8.45,5.98-14.83,15.07-16.83,25.3c-2.51,12.05,0.49,24.93,7.49,34.97c8.01,11.7,19.74,20.26,32.069,26.97
		c17.75,9.56,37.101,16,56.851,19.91c6.49,1.031,13.05,2.631,19.649,1.83c6.671-1.6,12.921-4.619,18.91-7.91
		c11.99-6.779,22.9-16.299,29.141-28.77c4.12-8.5,6.13-18.24,4.59-27.63c-1.23-6.96-5.41-13.69-11.98-16.7
		c-7.56-3.43-16.55-1.76-23.39,2.56c-5.83,3.7-10.29,9.11-14.6,14.41c-1.37,1.54-2.721,3.79-5.131,3.38
		c-1.529-1.26-2.39-3.1-3.529-4.68c-4.761-7.57-11.88-13.91-20.49-16.62c-7.14-2.18-15.521-1.55-21.5,3.22
		c-5.41,4.24-7.95,11.49-6.99,18.22c1.09,9.06,7,16.66,13.73,22.44c10.16,8.66,22.42,14.44,34.88,18.99
		c1.31,0.47,2.6,1.14,3.149,2.509c-0.56,2.641-3.609,1.75-5.55,1.73c-9.75-1.189-19.279-3.779-28.53-7.05
		c-13.529-4.92-26.85-11.66-36.93-22.17c-7.31-7.45-11.939-17.9-11-28.46c1.03-13.51,12.22-24.44,25.01-27.61
		c15.66-4.29,32.891-0.35,45.91,9.12c4.75,3.12,8.4,7.52,12.49,11.4c3.89-2.7,7.25-6.1,11.19-8.75
		c9.979-6.91,21.52-12.27,33.81-12.77c11.64-0.59,23.85,4.28,30.83,13.83c6.67,8.96,8.12,20.88,6.1,31.65
		c-2.819,14.25-10.88,26.9-20.55,37.51c-12.5,13.83-29.149,23.18-46.41,29.78c-6.05,2.16-12.37,4.5-18.91,3.709
		c-34.069-3.399-67.909-14.069-96.159-33.75c-16.78-11.929-31.91-27.79-38.21-47.799c-4.4-14.09-3.73-30.08,3.619-43.08
		C31.73,44.62,48.21,34.83,65.26,31.33z"/>
	<path fill="#E4312B" d="M78.4,201.79c6.28,11.51,12.061,23.3,17.88,35.05c-2.359,1.061-4.72,2.131-7.06,3.221
		c-1.1-2.271-2.17-4.561-3.34-6.791c-4.87,0.061-9.74-0.17-14.601,0.061c-1.71,1.949-2.39,4.57-3.56,6.85
		c-2.37-1.119-4.72-2.3-7.08-3.43C66.42,225.029,72.49,213.45,78.4,201.79 M78.32,217.38c-1.47,2.88-2.84,5.82-4,8.841
		c2.7,0.059,5.391,0.059,8.08,0C81.33,223.141,80.03,220.15,78.32,217.38z"/>
	<path fill="#E4312B" d="M220.72,236.76c5.92-11.71,11.79-23.449,17.97-35.02c5.91,11.66,12,23.24,17.63,35.039
		c-2.33,1.131-4.659,2.25-7.01,3.311c-0.99-2.15-1.85-4.359-3.01-6.42c-4.97-0.939-10.14-0.16-15.19-0.42
		c-1.13,2.29-2.18,4.63-3.34,6.91C225.39,239.09,223.06,237.92,220.72,236.76 M234.43,226.24c2.72,0.05,5.45,0.05,8.18-0.01
		c-1.149-2.99-2.479-5.91-3.909-8.78C236.89,220.18,235.6,223.2,234.43,226.24z"/>
	<path fill="#E4312B" d="M103.31,203.3c2.54-0.021,5.08-0.021,7.63-0.04c0.15,9.35-0.069,18.711,0.13,28.061
		c3.881-0.11,7.761-0.08,11.641,0c0.02,2.459,0.02,4.92,0.029,7.39c-6.479,0.04-12.96,0.06-19.439,0
		C103.24,226.9,103.21,215.1,103.31,203.3z"/>
	<path fill="#E4312B" d="M132.85,207.84c4.21-4.47,10.95-6.18,16.82-4.47c3.2,0.771,5.74,2.97,8.3,4.93
		c-1.62,2.07-3.4,4.011-5.17,5.95c-3.04-2.02-6.66-4.68-10.48-2.98c-8,2.73-8.409,15.791-0.92,19.36
		c3.4,1.64,7.141,0.351,10.511-0.67c0.06-1.72,0.09-3.44,0.119-5.16c-1.75-0.04-3.489-0.079-5.229-0.13
		c-0.04-2.3-0.07-4.609-0.09-6.91c4.359-0.02,8.71-0.07,13.069,0.03c-0.01,5.71-0.05,11.41,0.021,17.12
		c-5.82,3.38-12.8,5.449-19.51,3.85c-5.55-1.27-10.141-5.76-11.71-11.199C126.66,220.85,127.88,212.96,132.85,207.84z"/>
	<path fill="#E4312B" d="M170.06,203.25c2.62,0.01,5.24,0.01,7.86,0c0.14,11.82,0.13,23.641,0.02,35.46
		c-2.63-0.01-5.26,0-7.88,0.021C169.96,226.9,169.97,215.08,170.06,203.25z"/>
	<path fill="#E4312B" d="M188.78,203.29c7.15,0.351,15.03-1.45,21.511,2.45c10.479,6.34,10.18,24.029-0.28,30.26
		c-6.25,4.32-14.17,2.3-21.24,2.71C188.71,226.91,188.73,215.1,188.78,203.29 M196.73,211.04c0.05,6.78-0.05,13.569,0.03,20.351
		c2.49-0.17,5.13-0.07,7.4-1.261c6.88-3.021,7.35-14.36,0.819-17.979C202.47,210.71,199.49,211.1,196.73,211.04z"/>
</g>
</svg>
