<?xml version="1.0" encoding="UTF-8" standalone="no"?>
<!-- Created with Inkscape (http://www.inkscape.org/) -->
<!DOCTYPE svg PUBLIC "-//W3C//DTD SVG 1.1//EN" "http://www.w3.org/Graphics/SVG/1.1/DTD/svg11.dtd">
<svg
   xmlns:svg="http://www.w3.org/2000/svg"
   xmlns="http://www.w3.org/2000/svg"
   version="1.1"
   width="400"
   height="240"
   id="svg7740"
   xml:space="preserve"><defs
     id="defs7744"><linearGradient
       x1="-128"
       y1="0"
       x2="128"
       y2="0"
       id="linearGradient7780"
       gradientUnits="userSpaceOnUse"
       gradientTransform="matrix(0,1.6520996,1.1705017,0,446.46201,210.46899)"><stop
         id="stop7782"
         style="stop-color:#ffffff;stop-opacity:1"
         offset="0" /><stop
         id="stop7784"
         style="stop-color:#ffffff;stop-opacity:1"
         offset="1" /></linearGradient></defs><g
     transform="matrix(1.25,0,0,-1.25,0,240)"
     id="g7750"><g
       transform="matrix(2.6398055,0,0,2.6398055,-237.79226,-868.93535)"
       id="g10294"><g
         transform="translate(126.097,382.88699)"
         id="g10072"><path
           d="M 0,0 C 0,8.798 9.947,15.929 22.217,15.929 34.488,15.929 44.435,8.798 44.435,0 44.435,-8.798 34.488,-15.929 22.217,-15.929 9.947,-15.929 0,-8.798 0,0"
           id="path10074"
           style="fill:#99d540;fill-opacity:1;fill-rule:nonzero;stroke:none" /></g><g
         transform="translate(126.097,382.88699)"
         id="g10076"><path
           d="M 0,0 C 0,8.798 9.947,15.929 22.217,15.929 34.488,15.929 44.435,8.798 44.435,0 44.435,-8.798 34.488,-15.929 22.217,-15.929 9.947,-15.929 0,-8.798 0,0 z"
           id="path10078"
           style="fill:none;stroke:#99d540;stroke-width:0.41100001;stroke-linecap:butt;stroke-linejoin:miter;stroke-miterlimit:3.86400008;stroke-opacity:1;stroke-dasharray:none" /></g><g
         transform="translate(126.097,382.88699)"
         id="g10080"><path
           d="M 0,0 C 0,8.798 9.947,15.929 22.217,15.929 34.488,15.929 44.435,8.798 44.435,0 44.435,-8.798 34.488,-15.929 22.217,-15.929 9.947,-15.929 0,-8.798 0,0"
           id="path10082"
           style="fill:#99d540;fill-opacity:1;fill-rule:nonzero;stroke:none" /></g><g
         transform="translate(126.097,382.88699)"
         id="g10084"><path
           d="M 0,0 C 0,8.798 9.947,15.929 22.217,15.929 34.488,15.929 44.435,8.798 44.435,0 44.435,-8.798 34.488,-15.929 22.217,-15.929 9.947,-15.929 0,-8.798 0,0 z"
           id="path10086"
           style="fill:none;stroke:#99d540;stroke-width:0.34200001;stroke-linecap:butt;stroke-linejoin:miter;stroke-miterlimit:4;stroke-opacity:1;stroke-dasharray:none" /></g><g
         transform="translate(152.245,396.44)"
         id="g10088"><path
           d="m 0,0 c -0.57,-2.295 -1.221,-5.058 -1.847,-7.775 -0.439,0.089 -0.894,0.149 -1.359,0.179 L -2.677,0.23 C -1.767,0.193 -0.873,0.116 0,0"
           id="path10090"
           style="fill:#862456;fill-opacity:1;fill-rule:nonzero;stroke:none" /></g><g
         transform="translate(157.21001,395.308)"
         id="g10092"><path
           d="m 0,0 c -1.394,-2.194 -2.969,-4.865 -4.367,-7.492 -0.404,0.21 -0.835,0.392 -1.289,0.543 0.959,2.682 2.031,5.407 2.961,7.685 C -1.766,0.534 -0.865,0.288 0,0"
           id="path10094"
           style="fill:#862456;fill-opacity:1;fill-rule:nonzero;stroke:none" /></g><g
         transform="translate(162.711,392.62601)"
         id="g10096"><path
           d="m 0,0 c -2.491,-1.727 -5.353,-4.052 -7.765,-6.417 -0.286,0.323 -0.612,0.623 -0.974,0.897 1.864,2.537 4.021,5.099 5.972,7.106 C -1.777,1.113 -0.85,0.582 0,0"
           id="path10098"
           style="fill:#862456;fill-opacity:1;fill-rule:nonzero;stroke:none" /></g><g
         transform="translate(167.05499,388.19701)"
         id="g10100"><path
           d="m 0,0 c -2.834,-0.7 -7.376,-2.352 -10.875,-4.343 -0.094,0.434 -0.249,0.852 -0.459,1.249 2.956,2.153 6.502,4.128 9.439,5.493 C -1.154,1.648 -0.517,0.846 0,0"
           id="path10102"
           style="fill:#862456;fill-opacity:1;fill-rule:nonzero;stroke:none" /></g><g
         transform="translate(162.5,376.838)"
         id="g10104"><path
           d="M 0,0 C 1.409,0.529 2.999,0.87 4.694,0.971 4.167,0.063 3.503,-0.798 2.719,-1.599 1.868,-1.021 0.96,-0.487 0,0"
           id="path10106"
           style="fill:#862456;fill-opacity:1;fill-rule:nonzero;stroke:none" /></g><g
         transform="translate(152.742,379.778)"
         id="g10108"><path
           d="M 0,0 C 3.541,2.925 9.183,5.268 15.455,5.887 15.653,5.229 15.781,4.553 15.835,3.864 10.793,3.428 6.056,1.919 2.753,-0.478 1.857,-0.282 0.938,-0.122 0,0"
           id="path10110"
           style="fill:#862456;fill-opacity:1;fill-rule:nonzero;stroke:none" /></g><g
         transform="translate(168.522,381.612)"
         id="g10112"><path
           d="m 0,0 c -0.086,-0.636 -0.234,-1.259 -0.441,-1.866 -2.913,-0.154 -5.591,-0.839 -7.801,-1.905 -0.741,0.296 -1.507,0.566 -2.294,0.807 C -7.705,-1.287 -4.042,-0.201 0,0"
           id="path10114"
           style="fill:#862456;fill-opacity:1;fill-rule:nonzero;stroke:none" /></g><g
         transform="translate(142.313,369.69501)"
         id="g10116"><path
           d="M 0,0 C 1.757,0.748 3.81,1.178 6.001,1.178 8.193,1.178 10.245,0.748 12.002,0 10.106,-0.4 8.091,-0.617 6.001,-0.617 3.912,-0.617 1.896,-0.4 0,0"
           id="path10118"
           style="fill:#862456;fill-opacity:1;fill-rule:nonzero;stroke:none" /></g><g
         transform="translate(137.047,371.431)"
         id="g10120"><path
           d="M 0,0 C 2.995,1.935 6.96,3.113 11.309,3.113 15.658,3.113 19.623,1.935 22.618,0 21.815,-0.369 20.972,-0.7 20.093,-0.989 17.675,0.376 14.625,1.19 11.309,1.19 7.993,1.19 4.943,0.376 2.525,-0.989 1.646,-0.7 0.803,-0.369 0,0"
           id="path10122"
           style="fill:#862456;fill-opacity:1;fill-rule:nonzero;stroke:none" /></g><g
         transform="translate(132.94299,373.931)"
         id="g10124"><path
           d="m 0,0 c 3.991,2.743 9.407,4.428 15.372,4.428 5.987,0 11.421,-1.698 15.417,-4.459 -0.643,-0.511 -1.34,-0.989 -2.084,-1.431 -3.47,2.369 -8.164,3.823 -13.333,3.823 -5.15,0 -9.829,-1.443 -13.294,-3.796 C 1.335,-0.992 0.641,-0.512 0,0"
           id="path10126"
           style="fill:#862456;fill-opacity:1;fill-rule:nonzero;stroke:none" /></g><g
         transform="translate(144.384,396.44)"
         id="g10128"><path
           d="m 0,0 c 0.57,-2.295 1.221,-5.058 1.847,-7.775 0.44,0.089 0.894,0.149 1.36,0.179 L 2.677,0.23 C 1.767,0.193 0.874,0.116 0,0"
           id="path10130"
           style="fill:#862456;fill-opacity:1;fill-rule:nonzero;stroke:none" /></g><g
         transform="translate(139.41901,395.308)"
         id="g10132"><path
           d="m 0,0 c 1.393,-2.194 2.969,-4.865 4.367,-7.492 0.404,0.21 0.836,0.392 1.29,0.543 C 4.697,-4.267 3.625,-1.542 2.695,0.736 1.765,0.534 0.865,0.288 0,0"
           id="path10134"
           style="fill:#862456;fill-opacity:1;fill-rule:nonzero;stroke:none" /></g><g
         transform="translate(133.918,392.62601)"
         id="g10136"><path
           d="M 0,0 C 2.491,-1.727 5.353,-4.052 7.764,-6.417 8.051,-6.094 8.377,-5.794 8.739,-5.52 6.874,-2.983 4.718,-0.421 2.767,1.586 1.776,1.113 0.85,0.582 0,0"
           id="path10138"
           style="fill:#862456;fill-opacity:1;fill-rule:nonzero;stroke:none" /></g><g
         transform="translate(129.57401,388.19701)"
         id="g10140"><path
           d="m 0,0 c 3.572,-0.882 7.545,-2.448 10.875,-4.343 0.094,0.434 0.249,0.852 0.459,1.249 C 8.378,-0.941 4.832,1.034 1.896,2.399 1.154,1.648 0.517,0.846 0,0"
           id="path10142"
           style="fill:#862456;fill-opacity:1;fill-rule:nonzero;stroke:none" /></g><g
         transform="translate(134.13,376.838)"
         id="g10144"><path
           d="M 0,0 C -1.409,0.529 -2.999,0.87 -4.694,0.971 -4.167,0.063 -3.503,-0.798 -2.72,-1.599 -1.869,-1.021 -0.96,-0.487 0,0"
           id="path10146"
           style="fill:#862456;fill-opacity:1;fill-rule:nonzero;stroke:none" /></g><g
         transform="translate(143.88699,379.778)"
         id="g10148"><path
           d="M 0,0 C -3.541,2.925 -9.183,5.268 -15.454,5.887 -15.652,5.229 -15.781,4.553 -15.835,3.864 -10.793,3.428 -6.056,1.919 -2.753,-0.478 -1.856,-0.282 -0.937,-0.122 0,0"
           id="path10150"
           style="fill:#862456;fill-opacity:1;fill-rule:nonzero;stroke:none" /></g><g
         transform="translate(128.10699,381.612)"
         id="g10152"><path
           d="m 0,0 c 0.085,-0.636 0.234,-1.259 0.441,-1.866 2.913,-0.154 5.591,-0.839 7.8,-1.905 0.742,0.296 1.508,0.566 2.294,0.807 C 7.705,-1.287 4.042,-0.201 0,0"
           id="path10154"
           style="fill:#862456;fill-opacity:1;fill-rule:nonzero;stroke:none" /></g><g
         transform="translate(183.22301,359.65401)"
         id="g10156"><path
           d="m 0,0 c 0.375,-0.658 0.24,-1.888 -0.209,-2.473 -0.975,-1.464 -2.753,-2.001 -4.276,-2.516 l 0,6.048 C -3.193,1.122 -0.503,1.311 0,0 z M -2.957,3.741 C -0.07,3.741 2.056,3.51 3.158,0.891 3.983,-0.938 3.535,-3.041 2.335,-4.432 1.81,-5.164 1.231,-5.604 0.481,-6.116 L 0.129,-6.433 c 1.499,-1.83 2.767,-4.424 3.742,-6.473 2.01,7.474 4.428,16.774 6.043,22.496 0.031,0.113 0.02,0.251 -0.063,0.44 l 3.814,0 c 0,0 4.366,-16.903 6.162,-23.894 0.031,-0.119 0.111,-0.221 0.261,-0.294 l -4.368,0 c 0.481,0.378 0.125,1.258 -1.33,6.954 -2.699,-0.806 -5.567,-1.588 -6.898,-4.391 -0.225,-0.733 -0.46,-1.831 -0.01,-2.563 l -7.212,0 c 0.713,0.755 -0.334,2.445 -1.053,3.521 -0.754,1.132 -1.249,2.026 -2.149,2.905 -0.722,-0.222 -0.974,-0.306 -1.598,-0.468 0,0 0.007,-5.447 0.007,-5.527 0,-0.19 0.154,-0.44 0.345,-0.44 l -4.093,0 c 0.19,0 0.335,0.25 0.335,0.44 l 0,17.007 c 0,0.191 -0.176,0.45 -0.367,0.45 l 5.346,0.011 z m 16.64,-7.98 C 12.183,-4.532 10.5,-5.272 9.075,-5.711 l 2.683,9.977 c 0,0 1.404,-5.89 1.925,-8.505"
           id="path10158"
           style="fill:#862456;fill-opacity:1;fill-rule:evenodd;stroke:none" /></g><g
         transform="translate(119.63499,345.495)"
         id="g10160"><path
           d="M 0,0 C -0.007,0 0,3.141 0,3.141 0,2.95 -0.26,2.796 -0.451,2.796 l -4.337,0.002 c 0,0 0,14.48 0,14.67 0,0.191 0.154,0.441 0.345,0.441 l -4.093,0 c 0.19,0 0.334,-0.25 0.334,-0.441 l 0,-17.007 c 0,-0.19 -0.175,-0.449 -0.366,-0.449 C -8.568,0.012 -0.007,0 0,0"
           id="path10162"
           style="fill:#862456;fill-opacity:1;fill-rule:nonzero;stroke:none" /></g><g
         transform="translate(103.61099,369.68401)"
         id="g10164"><path
           d="m 0,0 c 0,0 4.366,-16.903 6.162,-23.894 0.031,-0.119 0.111,-0.221 0.261,-0.294 l -4.369,0 c 0.482,0.378 0.126,1.258 -1.33,6.954 -2.699,-0.806 -5.566,-1.588 -6.898,-4.392 -0.225,-0.732 -0.459,-1.83 -0.009,-2.562 l -4.318,0 c 0,0 0.482,0.461 0.654,1.099 2.01,7.474 4.481,16.926 6.095,22.649 0.032,0.113 0.021,0.251 -0.063,0.44 L 0,0 z m 0.018,-14.227 c -1.5,-0.293 -3.184,-1.033 -4.608,-1.472 0.23,0.859 2.683,9.977 2.683,9.977 0,0 1.404,-5.89 1.925,-8.505"
           id="path10166"
           style="fill:#862456;fill-opacity:1;fill-rule:evenodd;stroke:none" /></g><g
         transform="translate(120.965,363.605)"
         id="g10168"><path
           d="m 0,0 c 0.541,0 1.524,-0.304 1.824,-0.377 3.102,-1.09 5.054,-3.254 7.378,-5.743 0,0 -0.011,5.288 -0.011,5.479 0,0.19 -0.154,0.44 -0.345,0.44 l 3.919,0 c -0.191,0 -0.335,-0.25 -0.335,-0.44 l 0,-17.007 c 0,-0.191 0.175,-0.449 0.366,-0.449 0,0 -4.028,-0.013 -4.034,-0.013 0.503,0.148 0.368,0.525 0.368,3.846 0,3.659 -2.956,6.839 -5.881,9.108 l 0,-12.512 c 0,-0.191 0.145,-0.442 0.335,-0.442 l -3.94,0 c 0.191,0 0.345,0.251 0.345,0.442 C -0.011,-17.478 0,0 0,0"
           id="path10170"
           style="fill:#862456;fill-opacity:1;fill-rule:nonzero;stroke:none" /></g><g
         transform="translate(144.40601,363.395)"
         id="g10172"><path
           d="m 0,0 c 1.913,-5.532 3.137,-11.552 5.101,-17.22 0.11,-0.324 0.113,-0.53 0.416,-0.679 -1.401,0 -2.683,0 -4.23,0 0.79,0.262 -0.113,1.928 -1.06,5.628 -0.568,-0.151 -1.061,-0.269 -1.66,-0.416 -1.894,-0.417 -3.705,-1.434 -4.425,-3.024 -0.303,-0.752 -0.53,-1.698 -0.151,-2.188 l -4.079,0 c 0.265,0.149 0.276,0.297 0.341,0.49 1.82,5.4 3.628,11.29 5.366,16.803 0.119,0.25 0.098,0.523 -0.076,0.732 L 0,0 z m -0.532,-9.759 c -1.199,-0.219 -2.719,-0.77 -3.849,-1.187 0.752,2.229 2.19,6.8 2.19,6.8 l 1.659,-5.613"
           id="path10174"
           style="fill:#862456;fill-opacity:1;fill-rule:evenodd;stroke:none" /></g><g
         transform="translate(158.939,363.40401)"
         id="g10176"><path
           d="m 0,0 c -0.007,0 -0.005,-3.284 -0.005,-3.284 0,0.191 -0.26,0.345 -0.451,0.345 l -3.751,-0.002 10e-4,-14.527 c 0,-0.19 0.144,-0.441 0.335,-0.441 l -4.093,0 c 0.191,0 0.345,0.251 0.345,0.441 0,0.191 0,14.527 0,14.527 l -3.751,0.002 c -0.191,0 -0.451,-0.154 -0.451,-0.345 0,0 0.012,3.284 0.005,3.284 L 0,0"
           id="path10178"
           style="fill:#862456;fill-opacity:1;fill-rule:nonzero;stroke:none" /></g><g
         transform="translate(159.8,351.616)"
         id="g10180"><path
           d="m 0,0 -0.007,11.348 c 0,0.19 -0.144,0.44 -0.335,0.44 l 4.094,0 c -0.191,0 -0.345,-0.25 -0.345,-0.44 0,-0.142 -0.004,-7.777 -0.004,-11.865 0,-1.768 1.433,-3.2 3.2,-3.2 1.768,0 3.2,1.432 3.2,3.2 0,4.088 0,11.682 0,11.823 0,0.191 -0.155,0.441 -0.346,0.441 l 4.094,0 c -0.19,0 -0.335,-0.25 -0.335,-0.441 l 0.013,-11.368 c 0,-4.806 -2.969,-6.621 -6.626,-6.621 C 2.947,-6.683 0,-4.807 0,0"
           id="path10182"
           style="fill:#862456;fill-opacity:1;fill-rule:nonzero;stroke:none" /></g><g
         transform="translate(204.05299,367.75101)"
         id="g10184"><path
           d="m 0,0 0.838,0 c 0.428,0 0.894,-0.084 0.894,-0.624 0,-0.642 -0.512,-0.671 -1.071,-0.671 L 0,-1.295 0,0 z m -0.633,-3.556 0.633,0 0,1.75 0.67,0 1.108,-1.75 0.68,0 -1.164,1.797 c 0.605,0.064 1.07,0.371 1.07,1.107 0,0.782 -0.456,1.164 -1.424,1.164 l -1.573,0 0,-4.068 z m -1.517,2.048 c 0,1.666 1.247,2.951 2.876,2.951 1.61,0 2.858,-1.285 2.858,-2.951 0,-1.704 -1.248,-2.989 -2.858,-2.989 -1.629,0 -2.876,1.285 -2.876,2.989 z m -0.634,0 c 0,-2.002 1.602,-3.501 3.51,-3.501 1.899,0 3.491,1.499 3.491,3.501 0,1.964 -1.592,3.463 -3.491,3.463 -1.908,0 -3.51,-1.499 -3.51,-3.463"
           id="path10186"
           style="fill:#862456;fill-opacity:1;fill-rule:evenodd;stroke:none" /></g><g
         transform="translate(104.96899,340.547)"
         id="g10188"><path
           d="m 0,0 c -0.45,0.23 -1.033,0.395 -1.593,0.395 -0.549,0 -1.285,-0.219 -1.285,-0.879 0,-1.23 2.614,-1.153 2.614,-3.284 0,-1.879 -1.472,-2.56 -3.152,-2.56 -0.736,0 -1.495,0.176 -2.187,0.428 l 0.396,1.308 c 0.593,-0.275 1.219,-0.527 1.878,-0.527 0.736,0 1.461,0.373 1.461,1.197 0,1.384 -2.614,1.165 -2.614,3.208 0,1.614 1.384,2.318 2.856,2.318 0.67,0 1.362,-0.088 1.989,-0.341 L 0,0"
           id="path10190"
           style="fill:#862456;fill-opacity:1;fill-rule:nonzero;stroke:none" /></g><g
         transform="translate(111.077,335.164)"
         id="g10192"><path
           d="m 0,0 c -0.066,-0.34 -0.121,-0.637 -0.143,-0.813 l -1.439,0 0.099,0.55 -0.022,0 c -0.407,-0.374 -0.967,-0.682 -1.604,-0.682 -1.109,0 -1.845,0.692 -1.845,1.813 0,0.428 0.109,0.879 0.186,1.23 l 0.594,2.747 1.472,0 -0.55,-2.67 C -3.329,1.791 -3.416,1.406 -3.416,0.989 c 0,-0.473 0.329,-0.791 0.802,-0.791 1.021,0 1.395,0.956 1.581,1.801 l 0.605,2.846 1.472,0 L 0,0"
           id="path10194"
           style="fill:#862456;fill-opacity:1;fill-rule:nonzero;stroke:none" /></g><g
         transform="translate(116.218,338.998)"
         id="g10196"><path
           d="m 0,0 c -1,0 -1.56,-1.318 -1.56,-2.307 0,-0.725 0.253,-1.329 0.967,-1.329 1.23,0 1.626,1.538 1.626,2.428 C 1.033,-0.516 0.681,0 0,0 z m -2.582,0.275 c 0.055,0.275 0.099,0.494 0.121,0.736 l 1.395,0 -0.164,-0.747 0.022,0 c 0.428,0.604 0.955,0.878 1.702,0.878 1.406,0 2.077,-0.955 2.077,-2.296 0,-1.768 -0.978,-3.625 -2.944,-3.625 -0.649,0 -1.319,0.22 -1.56,1.011 l -0.022,0 -0.649,-3.186 -1.472,0 1.494,7.229"
           id="path10198"
           style="fill:#862456;fill-opacity:1;fill-rule:nonzero;stroke:none" /></g><g
         transform="translate(123.73199,337.735)"
         id="g10200"><path
           d="m 0,0 c 0.022,0.132 0.033,0.253 0.033,0.384 0,0.604 -0.319,0.945 -0.934,0.945 C -1.813,1.329 -2.208,0.78 -2.494,0 L 0,0 z m -2.691,-1.011 c 0,-1.044 0.56,-1.428 1.571,-1.428 0.604,0 1.186,0.154 1.735,0.406 L 0.429,-3.197 c -0.572,-0.176 -1.198,-0.319 -1.802,-0.319 -1.626,0 -2.725,0.791 -2.725,2.472 0,1.758 1.363,3.449 3.219,3.449 1.395,0 2.318,-0.714 2.318,-2.152 0,-0.429 -0.055,-0.847 -0.143,-1.264 l -3.987,0"
           id="path10202"
           style="fill:#862456;fill-opacity:1;fill-rule:nonzero;stroke:none" /></g><g
         transform="translate(126.797,339.25)"
         id="g10204"><path
           d="m 0,0 c 0.044,0.242 0.088,0.494 0.132,0.758 l 1.406,0 -0.198,-1.065 0.022,0 c 0.264,0.615 0.989,1.197 1.67,1.197 0.187,0 0.385,-0.011 0.56,-0.055 L 3.285,-0.604 C 3.12,-0.549 2.911,-0.516 2.724,-0.516 1.681,-0.516 1.176,-1.45 0.989,-2.362 L 0.461,-4.9 -1.011,-4.9 0,0"
           id="path10206"
           style="fill:#862456;fill-opacity:1;fill-rule:nonzero;stroke:none" /></g><g
         transform="translate(134.312,342.019)"
         id="g10208"><path
           d="m 0,0 1.944,0 1.637,-5.822 0.022,0 L 4.855,0 6.306,0 4.647,-7.668 l -1.978,0 -1.603,5.878 -0.022,0 -1.22,-5.878 -1.472,0 L 0,0"
           id="path10210"
           style="fill:#862456;fill-opacity:1;fill-rule:nonzero;stroke:none" /></g><g
         transform="translate(142.869,335.29601)"
         id="g10212"><path
           d="m 0,0 c 1.098,0 1.439,0.758 1.67,1.67 l -0.517,0 c -0.714,0 -1.9,-0.122 -1.9,-1.077 C -0.747,0.198 -0.374,0 0,0 z m 1.439,-0.077 -0.022,0 c -0.505,-0.637 -1.011,-1 -1.824,-1 -1.021,0 -1.746,0.572 -1.746,1.615 0,1.868 2.087,2.01 3.471,2.01 l 0.517,0 c 0.043,0.154 0.043,0.319 0.043,0.484 0,0.571 -0.615,0.736 -1.131,0.736 -0.648,0 -1.274,-0.165 -1.857,-0.44 l 0.209,1.176 c 0.626,0.22 1.263,0.34 1.922,0.34 1.132,0 2.197,-0.417 2.197,-1.746 0,-0.758 -0.56,-2.978 -0.692,-4.043 l -1.241,0 0.154,0.868"
           id="path10214"
           style="fill:#862456;fill-opacity:1;fill-rule:nonzero;stroke:none" /></g><g
         transform="translate(147.571,340.008)"
         id="g10216"><path
           d="M 0,0 1.066,0 1.318,1.165 2.9,1.681 2.537,0 3.856,0 3.625,-1.077 l -1.318,0 -0.539,-2.471 c -0.032,-0.132 -0.065,-0.33 -0.065,-0.55 0,-0.34 0.23,-0.549 0.56,-0.549 0.263,0 0.527,0.055 0.714,0.132 L 2.724,-5.658 C 2.472,-5.712 2.186,-5.789 1.933,-5.789 c -0.999,0 -1.702,0.396 -1.702,1.483 0,0.439 0.088,0.868 0.186,1.318 l 0.418,1.911 -1.066,0 L 0,0"
           id="path10218"
           style="fill:#862456;fill-opacity:1;fill-rule:nonzero;stroke:none" /></g><g
         transform="translate(156.744,335.164)"
         id="g10220"><path
           d="m 0,0 c -0.066,-0.34 -0.12,-0.637 -0.143,-0.813 l -1.439,0 0.099,0.55 -0.022,0 c -0.407,-0.374 -0.967,-0.682 -1.604,-0.682 -1.109,0 -1.845,0.692 -1.845,1.813 0,0.428 0.109,0.879 0.186,1.23 l 0.593,2.747 1.473,0 -0.55,-2.67 C -3.328,1.791 -3.416,1.406 -3.416,0.989 c 0,-0.473 0.329,-0.791 0.801,-0.791 1.022,0 1.396,0.956 1.583,1.801 l 0.604,2.846 1.472,0 L 0,0"
           id="path10222"
           style="fill:#862456;fill-opacity:1;fill-rule:nonzero;stroke:none" /></g><g
         transform="translate(159.314,339.25)"
         id="g10224"><path
           d="m 0,0 c 0.044,0.242 0.088,0.494 0.132,0.758 l 1.406,0 -0.198,-1.065 0.022,0 c 0.264,0.615 0.989,1.197 1.67,1.197 0.187,0 0.385,-0.011 0.56,-0.055 L 3.284,-0.604 c -0.164,0.055 -0.373,0.088 -0.559,0.088 -1.044,0 -1.55,-0.934 -1.736,-1.846 L 0.461,-4.9 -1.01,-4.9 0,0"
           id="path10226"
           style="fill:#862456;fill-opacity:1;fill-rule:nonzero;stroke:none" /></g><g
         transform="translate(166.653,342.019)"
         id="g10228"><path
           d="m 0,0 2.538,0 0.516,-5.525 0.022,0 L 6.097,0 8.657,0 7.02,-7.668 l -1.626,0 1.45,6.35 -0.022,0 -3.471,-6.35 -1.472,0 -0.615,6.35 -0.022,0 -1.407,-6.35 -1.461,0 L 0,0"
           id="path10230"
           style="fill:#862456;fill-opacity:1;fill-rule:nonzero;stroke:none" /></g><g
         transform="translate(177.605,335.29601)"
         id="g10232"><path
           d="m 0,0 c 1.098,0 1.439,0.758 1.67,1.67 l -0.517,0 c -0.714,0 -1.9,-0.122 -1.9,-1.077 C -0.747,0.198 -0.374,0 0,0 z m 1.439,-0.077 -0.022,0 c -0.505,-0.637 -1.011,-1 -1.824,-1 -1.021,0 -1.746,0.572 -1.746,1.615 0,1.868 2.087,2.01 3.471,2.01 l 0.517,0 c 0.043,0.154 0.043,0.319 0.043,0.484 0,0.571 -0.615,0.736 -1.131,0.736 -0.648,0 -1.274,-0.165 -1.856,-0.44 l 0.208,1.176 c 0.626,0.22 1.264,0.34 1.922,0.34 1.132,0 2.198,-0.417 2.198,-1.746 0,-0.758 -0.56,-2.978 -0.692,-4.043 l -1.242,0 0.154,0.868"
           id="path10234"
           style="fill:#862456;fill-opacity:1;fill-rule:nonzero;stroke:none" /></g><g
         transform="translate(182.73599,339.25)"
         id="g10236"><path
           d="m 0,0 c 0.044,0.242 0.088,0.494 0.132,0.758 l 1.406,0 -0.198,-1.065 0.022,0 c 0.264,0.615 0.989,1.197 1.67,1.197 0.186,0 0.385,-0.011 0.56,-0.055 L 3.285,-0.604 C 3.12,-0.549 2.911,-0.516 2.724,-0.516 1.681,-0.516 1.175,-1.45 0.989,-2.362 L 0.461,-4.9 -1.011,-4.9 0,0"
           id="path10238"
           style="fill:#862456;fill-opacity:1;fill-rule:nonzero;stroke:none" /></g><g
         transform="translate(187.91,342.59)"
         id="g10240"><path
           d="m 0,0 1.472,0 -0.978,-4.636 0.022,0 2.055,2.054 1.911,0 -2.714,-2.581 1.704,-3.077 -1.659,0 -1.461,3 -0.022,0 -0.638,-3 -1.439,0 L 0,0"
           id="path10242"
           style="fill:#862456;fill-opacity:1;fill-rule:nonzero;stroke:none" /></g><g
         transform="translate(193.01801,340.008)"
         id="g10244"><path
           d="M 0,0 1.066,0 1.319,1.165 2.9,1.681 2.537,0 3.856,0 3.625,-1.077 l -1.318,0 -0.539,-2.471 c -0.032,-0.132 -0.065,-0.33 -0.065,-0.55 0,-0.34 0.23,-0.549 0.56,-0.549 0.264,0 0.527,0.055 0.714,0.132 L 2.724,-5.658 C 2.472,-5.712 2.186,-5.789 1.933,-5.789 c -0.999,0 -1.702,0.396 -1.702,1.483 0,0.439 0.088,0.868 0.186,1.318 l 0.418,1.911 -1.066,0 L 0,0"
           id="path10246"
           style="fill:#862456;fill-opacity:1;fill-rule:nonzero;stroke:none" /></g></g></g></svg>