<?xml version="1.0" encoding="UTF-8" standalone="no"?>
<svg
   width="57.444469"
   height="15.48061"
   viewBox="0 0 101.00653 15.48061"
   version="1.1"
   id="svg35"
   sodipodi:docname="Fundatia Altex.svg"
   inkscape:version="1.1.1 (3bf5ae0d25, 2021-09-20)"
   xmlns:inkscape="http://www.inkscape.org/namespaces/inkscape"
   xmlns:sodipodi="http://sodipodi.sourceforge.net/DTD/sodipodi-0.dtd"
   xmlns="http://www.w3.org/2000/svg"
   xmlns:svg="http://www.w3.org/2000/svg"
   xmlns:rdf="http://www.w3.org/1999/02/22-rdf-syntax-ns#"
   xmlns:cc="http://creativecommons.org/ns#"
   xmlns:dc="http://purl.org/dc/elements/1.1/">
  <defs
     id="defs39" />
  <sodipodi:namedview
     id="namedview37"
     pagecolor="#ffffff"
     bordercolor="#999999"
     borderopacity="1"
     inkscape:pageshadow="0"
     inkscape:pageopacity="0"
     inkscape:pagecheckerboard="0"
     showgrid="false"
     inkscape:zoom="15.485639"
     inkscape:cx="21.019476"
     inkscape:cy="18.242709"
     inkscape:window-width="1920"
     inkscape:window-height="1001"
     inkscape:window-x="-9"
     inkscape:window-y="-9"
     inkscape:window-maximized="1"
     inkscape:current-layer="Page-1"
     fit-margin-top="0"
     fit-margin-left="0"
     fit-margin-right="0"
     fit-margin-bottom="0" />
  <title
     id="title2">Altex logo</title>
  <g
     id="Page-1"
     stroke="none"
     stroke-width="1"
     fill="none"
     fill-rule="evenodd"
     transform="translate(-34.295563,-8.9183838)">
    <g
       id="Group"
       transform="translate(33.37832,2.838652)"
       fill="none"
       style="fill-rule:nonzero">
      <path
         d="m 90.75,21.87 c 0.16,0 0.23,0.06 0.33,0.16 l 4.47,5.15 c 0.07,0.08 0.19,0.24 0.47,0.24 h 5.55 c 0.2,0 0.43,-0.26 0.2,-0.53 -0.09,-0.1 -5.91,-6.83 -5.91,-6.83 0,0 -0.18,-0.19 -0.18,-0.26 0,-0.07 0.18,-0.26 0.18,-0.26 l 5.99,-6.92 c 0.14,-0.17 0.09,-0.42 -0.23,-0.42 h -5.24 c -0.35,0 -0.48,0.11 -0.6,0.23 0,0 -4.28,4.72 -4.7,5.17 -0.12,0.13 -0.25,0.2 -0.33,0.2 -0.08,0 -0.21,-0.07 -0.33,-0.2 -0.43,-0.46 -4.7,-5.17 -4.7,-5.17 -0.11,-0.12 -0.24,-0.23 -0.6,-0.23 h -5.24 c -0.32,0 -0.37,0.25 -0.23,0.42 l 5.99,6.92 c 0,0 0.18,0.19 0.18,0.26 0,0.07 -0.18,0.26 -0.18,0.26 0,0 -5.81,6.72 -5.91,6.83 -0.24,0.27 0,0.53 0.2,0.53 h 5.55 c 0.27,0 0.39,-0.16 0.47,-0.24 l 4.47,-5.15 c 0.1,-0.11 0.17,-0.16 0.33,-0.16"
         id="Path"
         fill="#d11f44" />
      <path
         d="m 31.37,12.209963 c 0.26,0 0.48,-0.01 0.48,0.300037 v 6.99 c 0,3.86 0,4.38 4.47,4.38 3.7,0 7.47,0 7.47,0 0.26,0 0.48,-0.01 0.48,0.3 v 2.94 c 0,0.31 -0.22,0.300037 -0.48,0.300037 H 35.54 C 33.79,27.420037 32.5,27.37 31.5,27.25 28.63,26.9 27.26,25.9 26.75,23.98 26.48,22.96 26.54,20.22 26.54,20.22 v -7.7 c 0,-0.310037 0.22,-0.3 0.48,-0.3 h 4.35"
         id="path5"
         fill="#d11f44" />
      <path
         d="M 57.6,12.21 H 42.61 c -0.37,0 -0.43,0.08 -0.43,0.35 v 2.87 c 0,0.29 0.1,0.35 0.43,0.35 0,0 4.53,0 4.61,0 0.23,0 0.28,0.05 0.28,0.28 0,0.15 0,11.17 0,11.17 0,0.11 0.12,0.19 0.28,0.19 h 4.65 c 0.16,0 0.28,-0.08 0.28,-0.19 0,0 0,-11.08 0,-11.15 0,-0.22 0.08,-0.3 0.3,-0.3 0.05,0 4.58,0 4.58,0 0.33,0 0.44,-0.06 0.44,-0.35 v -2.81 c 0.01,-0.33 -0.06,-0.41 -0.43,-0.41"
         id="path7"
         fill="#d11f44" />
      <path
         d="m 64.99,16.97 c 0,-0.34 0.09,-0.61 0.28,-0.83 0.22,-0.33 0.73,-0.52 1.36,-0.52 h 4.67 c 0.64,0 1.15,0.19 1.36,0.52 0.19,0.23 0.28,0.49 0.28,0.83 0,0.41 -0.15,0.75 -0.45,1 -0.29,0.25 -0.69,0.37 -1.18,0.37 h -4.7 c -0.49,0 -0.89,-0.13 -1.18,-0.37 -0.29,-0.25 -0.44,-0.59 -0.44,-1 m 1.36,4.43 c 0,0 10.62,0 10.87,0 0.56,0 0.83,-0.04 0.83,-0.7 0,-0.27 0,-3.65 0,-3.65 0,-2.84 -2.29,-4.84 -5.85,-4.84 h -6.7 c -3.56,0 -5.85,2 -5.85,4.84 v 5.54 c 0,2.84 2.29,4.840037 5.85,4.840037 h 12.06 c 0.26,0 0.48,0.01 0.48,-0.300037 v -2.7 c 0,-0.31 -0.22,-0.3 -0.48,-0.3 H 66.35 c -0.75,0 -1.36,-0.61 -1.36,-1.36 0,-0.76 0.61,-1.37 1.36,-1.37 z"
         id="Shape"
         fill="#d11f44" />
      <path
         d="m 13.45,12.21 c -1.41,-0.03 -2.85,0.63 -3.77,2 -0.78,1.16 -7.32,10.78 -8.67,12.76 -0.22,0.33 -0.02,0.45 0.3,0.45 h 4.65 c 0.45,-0.03 0.57,0 0.9,-0.45 0.59,-0.93 4.96,-8.07 5.83,-9.41 0.17,-0.26 0.44,-0.43 0.75,-0.43 0.31,0 0.58,0.17 0.75,0.43 0.86,1.34 5.24,8.48 5.83,9.41 0.34,0.45 0.45,0.42 0.9,0.45 h 4.65 c 0.32,0 0.52,-0.12 0.3,-0.45 -1.35,-1.98 -7.88,-11.59 -8.67,-12.76 -0.9,-1.37 -2.34,-2.03 -3.75,-2 v 0"
         id="path10"
         fill="#d11f44" />
      <path
         d="m 13.49,0.21 v 0 c 0,0 0.05,0 0.07,0.07 0,0 0.58,1.81 1.88,3.11 1.3,1.3 3.12,1.89 3.12,1.89 0.07,0.02 0.07,0.07 0.07,0.07 0,0 0,0.05 -0.07,0.07 0,0 -1.82,0.59 -3.12,1.89 -1.3,1.3 -1.88,3.11 -1.88,3.11 -0.02,0.07 -0.07,0.07 -0.07,0.07 v 0 c 0,0 -0.05,0 -0.07,-0.07 0,0 -0.58,-1.81 -1.88,-3.11 C 10.24,6.01 8.42,5.42 8.42,5.42 8.35,5.4 8.35,5.35 8.35,5.35 c 0,0 0,-0.06 0.07,-0.07 0,0 1.82,-0.59 3.12,-1.89 1.3,-1.3 1.88,-3.11 1.88,-3.11 0.02,-0.07 0.07,-0.07 0.07,-0.07 z"
         id="path12"
         fill="#fab930" />
    </g>
  </g>
  <metadata
     id="metadata1706">
    <rdf:RDF>
      <cc:Work
         rdf:about="">
        <dc:title>Altex logo</dc:title>
      </cc:Work>
    </rdf:RDF>
  </metadata>
</svg>
