<svg width="500" height="151" viewBox="0 0 500 151" fill="none" xmlns="http://www.w3.org/2000/svg">
<g clip-path="url(#clip0_2_1114)">
<path d="M310.121 117.897C281.1 139.288 239.036 150.701 202.819 150.701C152.038 150.701 106.321 131.919 71.7349 100.68C69.0175 98.2237 71.4523 94.8759 74.7131 96.7889C112.038 118.506 158.19 131.571 205.863 131.571C238.014 131.571 273.383 124.919 305.904 111.115C310.817 109.028 314.925 114.332 310.121 117.897Z" fill="#FF9900"/>
<path d="M322.187 104.093C318.491 99.3542 297.665 101.854 288.318 102.963C285.47 103.311 285.035 100.832 287.6 99.0499C304.187 87.3762 331.404 90.7457 334.578 94.6587C337.751 98.5934 333.752 125.875 318.165 138.897C315.774 140.897 313.491 139.832 314.556 137.18C318.056 128.441 325.904 108.854 322.187 104.093Z" fill="#FF9900"/>
<path d="M288.97 16.6385V5.29089C288.97 3.57353 290.274 2.42139 291.839 2.42139H342.643C344.273 2.42139 345.577 3.59528 345.577 5.29089V15.0081C345.556 16.6385 344.186 18.7689 341.751 22.1384L315.426 59.7245C325.208 59.4854 335.534 60.9419 344.403 65.9418C346.403 67.0722 346.947 68.7243 347.099 70.3548V82.4632C347.099 84.1153 345.273 86.0501 343.36 85.0501C327.73 76.8546 306.969 75.9633 289.687 85.1371C287.926 86.0936 286.079 84.1806 286.079 82.5284V71.0287C286.079 69.1809 286.1 66.0288 287.948 63.2245L318.447 19.4862H291.905C290.274 19.4862 288.97 18.3341 288.97 16.6385Z" fill="#221F1F"/>
<path d="M103.648 87.4413H88.1915C86.7133 87.3326 85.5394 86.2239 85.4307 84.8109V5.4865C85.4307 3.89958 86.7567 2.63872 88.4089 2.63872H102.822C104.322 2.7039 105.517 3.85609 105.626 5.29084V15.6602H105.909C109.669 5.63866 116.734 0.964844 126.256 0.964844C135.93 0.964844 141.973 5.63866 146.321 15.6602C150.06 5.63866 158.56 0.964844 167.668 0.964844C174.146 0.964844 181.233 3.6387 185.559 9.63857C190.45 16.3123 189.45 26.0078 189.45 34.5076L189.429 84.5718C189.429 86.1587 188.102 87.4413 186.45 87.4413H171.016C169.472 87.3326 168.233 86.0935 168.233 84.5718V42.5292C168.233 39.1814 168.538 30.8338 167.799 27.6599C166.646 22.334 163.19 20.834 158.712 20.834C154.973 20.834 151.06 23.3339 149.473 27.3339C147.886 31.3338 148.038 38.0293 148.038 42.5292V84.5718C148.038 86.1587 146.712 87.4413 145.06 87.4413H129.625C128.06 87.3326 126.843 86.0935 126.843 84.5718L126.821 42.5292C126.821 33.6816 128.278 20.6601 117.3 20.6601C106.191 20.6601 106.626 33.3555 106.626 42.5292V84.5718C106.626 86.1587 105.3 87.4413 103.648 87.4413Z" fill="#221F1F"/>
<path d="M389.316 0.964844C412.25 0.964844 424.663 20.6601 424.663 45.703C424.663 69.8982 410.946 89.0934 389.316 89.0934C366.794 89.0934 354.534 69.3982 354.534 44.8552C354.534 20.1601 366.947 0.964844 389.316 0.964844ZM389.446 17.1602C378.055 17.1602 377.338 32.6816 377.338 42.3553C377.338 52.0507 377.185 72.746 389.316 72.746C401.294 72.746 401.859 56.0507 401.859 45.8769C401.859 39.1814 401.576 31.1816 399.555 24.8339C397.815 19.3123 394.359 17.1602 389.446 17.1602Z" fill="#221F1F"/>
<path d="M454.401 87.4413H439.01C437.466 87.3326 436.227 86.0935 436.227 84.5718L436.206 5.22562C436.336 3.76913 437.619 2.63872 439.184 2.63872H453.51C454.857 2.7039 455.966 3.61697 456.27 4.85607V16.9862H456.553C460.879 6.13865 466.944 0.964844 477.618 0.964844C484.552 0.964844 491.313 3.46479 495.661 10.3125C499.704 16.6602 499.704 27.3339 499.704 35.0076V84.9414C499.53 86.3326 498.248 87.4413 496.726 87.4413H481.226C479.813 87.3326 478.639 86.2892 478.487 84.9414V41.8553C478.487 33.1816 479.487 20.4862 468.814 20.4862C465.053 20.4862 461.596 23.0079 459.879 26.8339C457.705 31.6816 457.423 36.5076 457.423 41.8553V84.5718C457.401 86.1587 456.053 87.4413 454.401 87.4413Z" fill="#221F1F"/>
<path d="M248.471 49.5509V46.2031C237.297 46.2031 225.493 48.5944 225.493 61.768C225.493 68.4418 228.949 72.9635 234.884 72.9635C239.232 72.9635 243.123 70.2896 245.58 65.9419C248.623 60.5941 248.471 55.5725 248.471 49.5509ZM264.057 87.224C263.036 88.137 261.557 88.2023 260.405 87.5936C255.275 83.3328 254.362 81.3546 251.536 77.2895C243.058 85.9415 237.058 88.5283 226.058 88.5283C213.058 88.5283 202.928 80.5068 202.928 64.4419C202.928 51.8987 209.732 43.3554 219.406 39.1816C227.797 35.486 239.514 34.8338 248.471 33.8121V31.8121C248.471 28.1383 248.753 23.7906 246.601 20.6167C244.71 17.769 241.101 16.5951 237.927 16.5951C232.036 16.5951 226.776 19.6167 225.493 25.8775C225.232 27.2688 224.21 28.6383 222.819 28.7035L207.819 27.0948C206.559 26.8123 205.167 25.7905 205.515 23.8558C208.972 5.68226 225.384 0.204102 240.08 0.204102C247.601 0.204102 257.427 2.20406 263.362 7.89959C270.883 14.9212 270.166 24.2906 270.166 34.486V58.5725C270.166 65.8114 273.166 68.9853 275.992 72.8983C276.992 74.2895 277.209 75.9634 275.948 77.0069C272.796 79.6372 267.188 84.5284 264.101 87.2675L264.057 87.224Z" fill="#221F1F"/>
<path d="M45.8443 49.5509V46.2031C34.6706 46.2031 22.8665 48.5944 22.8665 61.768C22.8665 68.4418 26.3229 72.9635 32.2576 72.9635C36.6053 72.9635 40.4966 70.2896 42.953 65.9419C45.9964 60.5941 45.8443 55.5725 45.8443 49.5509ZM61.4309 87.224C60.4092 88.137 58.931 88.2023 57.7788 87.5936C52.6485 83.3328 51.7355 81.3546 48.9094 77.2895C40.4313 85.9415 34.4315 88.5283 23.4317 88.5283C10.432 88.5283 0.301758 80.5068 0.301758 64.4419C0.301758 51.8987 7.10596 43.3554 16.7797 39.1816C25.1708 35.486 36.8879 34.8338 45.8443 33.8121V31.8121C45.8443 28.1383 46.1269 23.7906 43.9748 20.6167C42.0835 17.769 38.4749 16.5951 35.301 16.5951C29.4098 16.5951 24.1491 19.6167 22.8665 25.8775C22.6056 27.2688 21.5839 28.6383 20.1926 28.7035L5.19296 27.0948C3.93211 26.8123 2.54084 25.7905 2.88866 23.8558C6.34511 5.68226 22.7578 0.204102 37.4532 0.204102C44.9747 0.204102 54.8006 2.20406 60.7353 7.89959C68.2569 14.9212 67.5395 24.2906 67.5395 34.486V58.5725C67.5395 65.8114 70.5394 68.9853 73.3655 72.8983C74.3654 74.2895 74.5828 75.9634 73.322 77.0069C70.1699 79.6372 64.5613 84.5284 61.4744 87.2675L61.4309 87.224Z" fill="#221F1F"/>
</g>
<defs>
<clipPath id="clip0_2_1114">
<rect width="500" height="150.912" fill="white"/>
</clipPath>
</defs>
</svg>
