<svg width="150" height="50" viewBox="0 0 150 50" fill="none" xmlns="http://www.w3.org/2000/svg">
<g clip-path="url(#clip0_1_324)">
<path d="M35.0176 26.4222C34.9953 22.3255 36.8425 19.2334 40.5812 16.9562C38.4893 13.9534 35.3291 12.3013 31.1564 11.9776C27.2062 11.6651 22.8888 14.2883 21.3088 14.2883C19.6397 14.2883 15.8119 12.0893 12.8075 12.0893C6.59848 12.1897 0 17.0567 0 26.958C0 29.8827 0.53411 32.9041 1.60233 36.0222C3.02662 40.1189 8.16743 50.1654 13.5308 49.9979C16.3349 49.931 18.3155 47.9998 21.9653 47.9998C25.5037 47.9998 27.3397 49.9979 30.4665 49.9979C35.8744 49.9198 40.5256 40.7887 41.8831 36.6808C34.6281 33.2538 35.0176 26.6343 35.0176 26.4222ZM28.7195 8.09299C31.7573 4.47626 31.4791 1.18325 31.3901 0C28.7084 0.156278 25.6039 1.83069 23.8347 3.8958C21.8874 6.10602 20.7413 8.84089 20.9861 11.9218C23.8903 12.1451 26.5386 10.6493 28.7195 8.09299Z" fill="black"/>
<path d="M58.9355 32.8451L56.0201 41.7183H52.2727L61.8144 13.5192H66.1874L75.7655 41.7183H71.8905L68.8901 32.8451H58.9355ZM68.1431 29.9971L65.3978 21.8801C64.7722 20.0384 64.3592 18.3674 63.9401 16.7331H63.8612C63.4421 18.404 62.9866 20.1177 62.446 21.8374L59.7007 29.991L68.1431 29.9971ZM78.6079 28.0761C78.6079 25.4843 78.529 23.3864 78.4378 21.4654H81.7297L81.8998 24.9415H81.9788C83.479 22.4717 85.8537 21.0081 89.1456 21.0081C94.0228 21.0081 97.6852 25.1489 97.6852 31.3022C97.6852 38.5837 93.2696 42.1756 88.5201 42.1756C85.8537 42.1756 83.5215 41.0048 82.3128 38.9984H82.2339V49.9999H78.6079V28.0761ZM82.2278 33.4732C82.2278 34.0221 82.3067 34.516 82.3978 34.9795C83.0659 37.5287 85.2707 39.2911 87.9006 39.2911C91.7755 39.2911 94.0288 36.1138 94.0288 31.4668C94.0288 27.4053 91.9031 23.9414 88.0281 23.9414C85.5318 23.9414 83.1996 25.7404 82.4829 28.503C82.3553 28.9604 82.2339 29.5092 82.2339 30.0093L82.2278 33.4732ZM101.475 28.0761C101.475 25.4843 101.396 23.3864 101.305 21.4654H104.597L104.767 24.9415H104.846C106.346 22.4717 108.721 21.0081 112.013 21.0081C116.89 21.0081 120.552 25.1489 120.552 31.3022C120.552 38.5837 116.137 42.1756 111.387 42.1756C108.721 42.1756 106.389 41.0048 105.18 38.9984H105.101V49.9999H101.475V28.0761ZM105.101 33.4732C105.101 34.0221 105.18 34.516 105.271 34.9795C105.939 37.5287 108.144 39.2911 110.774 39.2911C114.649 39.2911 116.902 36.1138 116.902 31.4668C116.902 27.4053 114.776 23.9414 110.901 23.9414C108.405 23.9414 106.073 25.7404 105.356 28.503C105.229 28.9604 105.107 29.5092 105.107 30.0093L105.101 33.4732ZM124.348 12.0129H128.017V41.7122H124.348V12.0129ZM135.39 32.2596C135.469 37.2359 138.64 39.2911 142.302 39.2911C144.926 39.2911 146.511 38.8337 147.884 38.2483L148.509 40.8828C147.222 41.4682 145.011 42.1391 141.804 42.1391C135.597 42.1391 131.886 38.0409 131.886 31.9303C131.886 25.8197 135.469 21.0081 141.342 21.0081C147.926 21.0081 149.675 26.8198 149.675 30.546C149.675 31.3022 149.596 31.8815 149.548 32.2596H135.39ZM146.14 29.6251C146.183 27.2833 145.181 23.6426 141.057 23.6426C137.346 23.6426 135.724 27.076 135.433 29.6251H146.14Z" fill="black"/>
</g>
<defs>
<clipPath id="clip0_1_324">
<rect width="150" height="50" fill="white"/>
</clipPath>
</defs>
</svg>
