<svg width="500" height="381" viewBox="0 0 500 381" fill="none" xmlns="http://www.w3.org/2000/svg">
<path d="M112.069 345.373H59.9029L50.2072 369.496H10.7588L62.3985 234.967C63.4353 232.25 65.2726 229.911 67.6673 228.261C70.0621 226.61 72.9014 225.726 75.8098 225.724H106.681L160.779 369.496H120.906L112.069 345.373ZM102.152 316.923L85.9862 270.367L70.2734 316.923H102.152ZM163.265 349.412V225.752H212.16C226.607 225.752 250.749 227.684 269.281 245.578C286.093 261.743 289.328 282.438 289.328 297.957C289.328 316.923 284.587 333.736 270.575 347.748C259.151 359.172 239.981 369.496 215.395 369.496H183.341C178.017 369.489 172.914 367.37 169.15 363.605C165.387 359.84 163.27 354.735 163.265 349.412ZM200.56 337.83H208.102C217.16 337.83 229.869 336.971 239.574 327.488C244.316 322.959 250.564 313.91 250.564 297.957C250.564 284.592 246.469 273.168 239.362 266.485C230.516 258.296 218.88 257.436 209.609 257.436H200.56V337.83ZM289.402 369.496L313.757 225.733H350.618L379.714 290.433L410.539 225.733H435.494C438.935 225.731 442.262 226.964 444.869 229.209C447.477 231.453 449.191 234.559 449.701 237.962L469.388 369.496H432.093L421.538 286.727L388.707 346.454C387.812 347.988 386.53 349.261 384.989 350.146C383.449 351.03 381.703 351.496 379.927 351.496C378.15 351.496 376.405 351.03 374.864 350.146C373.323 349.261 372.041 347.988 371.146 346.454L338.796 286.773L326.475 369.496H289.402Z" fill="#27245F"/>
<path d="M419.024 10.8745H260.75C193.092 10.8745 135.454 41.4868 111.764 103.534L80.4959 185.416C78.481 190.684 82.6495 196.572 88.3893 196.572H249.224C316.41 196.572 375.083 156.717 398.606 95.1044L428.109 23.6851C430.383 17.6403 425.623 10.8745 419.024 10.8745ZM368.807 82.0443C349.638 132.251 301.862 164.703 247.116 164.703H138.31C150.702 150.567 165.983 139.253 183.12 131.524C200.257 123.796 218.853 119.833 237.652 119.903H259.687C277.313 119.903 301.926 109.606 308.378 87.9782H235.979C201.954 87.8157 168.739 98.3496 141.027 118.091L141.711 116.298C160.955 65.8693 207.492 42.79 262.45 42.79H386.018L368.807 82.0443Z" fill="url(#paint0_linear_2_1803)"/>
<path d="M480.008 234.403C480.038 234.111 479.985 233.815 479.854 233.552C479.723 233.288 479.52 233.068 479.268 232.915C478.81 232.733 478.317 232.657 477.826 232.693H476.31V236.15H478.307C478.536 236.166 478.766 236.133 478.983 236.055C479.199 235.977 479.397 235.855 479.564 235.697C479.719 235.521 479.839 235.316 479.915 235.094C479.991 234.872 480.022 234.637 480.008 234.403ZM480.645 237.915L483.169 242.537C483.203 242.596 483.221 242.663 483.221 242.731C483.221 242.799 483.203 242.866 483.169 242.925C483.139 242.987 483.092 243.039 483.032 243.073C482.973 243.108 482.904 243.124 482.836 243.119H480.987C480.915 243.124 480.843 243.107 480.782 243.068C480.72 243.03 480.672 242.974 480.645 242.907L478.261 238.415H476.347V242.722C476.35 242.775 476.341 242.827 476.322 242.877C476.303 242.926 476.274 242.971 476.236 243.008C476.2 243.044 476.157 243.073 476.109 243.092C476.062 243.111 476.01 243.12 475.959 243.119H474.305C474.253 243.12 474.202 243.111 474.155 243.092C474.107 243.073 474.064 243.044 474.027 243.008C473.987 242.972 473.956 242.928 473.935 242.879C473.914 242.829 473.905 242.775 473.907 242.722V230.854C473.905 230.8 473.914 230.747 473.935 230.697C473.956 230.647 473.987 230.603 474.027 230.567C474.064 230.531 474.107 230.502 474.155 230.483C474.202 230.464 474.253 230.455 474.305 230.456H477.928C478.718 230.422 479.509 230.522 480.266 230.752C480.951 231 481.531 231.472 481.912 232.092C482.325 232.757 482.537 233.528 482.522 234.311C482.533 235.024 482.351 235.726 481.995 236.344C481.669 236.929 481.172 237.399 480.571 237.694L480.645 237.915ZM478.205 227.748C476.994 227.745 475.796 227.99 474.684 228.469C472.506 229.377 470.776 231.108 469.868 233.285C469.393 234.398 469.148 235.596 469.148 236.806C469.148 238.017 469.393 239.215 469.868 240.328C470.779 242.505 472.508 244.238 474.684 245.153C475.798 245.622 476.996 245.864 478.205 245.864C479.415 245.864 480.612 245.622 481.727 245.153C483.907 244.241 485.64 242.508 486.551 240.328C487.027 239.215 487.272 238.017 487.272 236.806C487.272 235.596 487.027 234.398 486.551 233.285C485.643 231.105 483.909 229.373 481.727 228.469C480.617 227.979 479.418 227.724 478.205 227.721V227.748ZM489.241 236.806C489.244 238.281 488.945 239.74 488.363 241.095C487.821 242.412 487.023 243.609 486.016 244.617C485.008 245.624 483.811 246.422 482.494 246.964C481.14 247.544 479.683 247.842 478.21 247.842C476.737 247.842 475.28 247.544 473.926 246.964C472.611 246.416 471.416 245.619 470.404 244.616C469.403 243.602 468.603 242.407 468.047 241.095C467.474 239.739 467.179 238.283 467.179 236.811C467.179 235.339 467.474 233.882 468.047 232.527C468.599 231.212 469.4 230.017 470.404 229.005C471.413 227.997 472.609 227.196 473.926 226.648C475.281 226.075 476.738 225.78 478.21 225.78C479.682 225.78 481.138 226.075 482.494 226.648C483.811 227.194 485.007 227.995 486.014 229.003C487.021 230.012 487.819 231.209 488.363 232.527C488.942 233.87 489.241 235.316 489.241 236.779V236.806Z" fill="#27245F"/>
<defs>
<linearGradient id="paint0_linear_2_1803" x1="79.9783" y1="103.719" x2="428.692" y2="103.719" gradientUnits="userSpaceOnUse">
<stop stop-color="#A6CE39"/>
<stop offset="1" stop-color="#11B04B"/>
</linearGradient>
</defs>
</svg>
