<svg xmlns="http://www.w3.org/2000/svg" viewBox="0 0 486.45 627.26"><defs><style>.cls-1{fill:#45b035;}.cls-2{fill:#35318f;}.cls-3{fill:#e94709;}.cls-4{fill:#737373;}</style></defs><title>アセット 10</title><g id="レイヤー_2" data-name="レイヤー 2"><g id="レイヤー_1-2" data-name="レイヤー 1"><path class="cls-1" d="M384.15,277.24q-4-3.12-8.12-6.24a910.82,910.82,0,0,0-93.66-61.77c-25.22-14.56-50.16-27.49-74.18-38.63-1.38,4.38-2.73,8.94-4,13.65,57.52,34.78,105.91,72.11,139,105.67q5.16,5.22,9.81,10.32c31,33.88,44.87,63,34.84,80.4-11.19,19.38-50,20.3-103.13,6.11,99.29,45,181.35,58.74,198.51,29C498.69,389,457.3,334.23,384.15,277.24Z"/><path class="cls-1" d="M171.39,165.3c.42-3.42.87-6.81,1.33-10.15a569.2,569.2,0,0,0-66.51-22.71C127.31,142,149.19,153,171.39,165.3Z"/><path class="cls-2" d="M376,271q4.13,3.12,8.12,6.24A573.4,573.4,0,0,0,437.09,231C418.24,244.47,397.77,257.92,376,271Z"/><path class="cls-2" d="M182.19,357.49q-7.09,1.85-13.83,3.33c-44.82,9.87-77,7.33-87-10-11.2-19.39,7.39-53.43,46.26-92.37C39,321.88-13.94,386.1,3.22,415.82c15.46,26.77,83.57,18.31,169.5-16.54q4.69-1.9,9.46-3.91a911.26,911.26,0,0,0,100.33-50.23c25.21-14.55,48.86-29.69,70.51-44.9q-4.65-5.1-9.81-10.32C284.34,322.34,227.82,345.58,182.19,357.49Z"/><path class="cls-3" d="M172.72,399.28a570.27,570.27,0,0,0,13.59,68.9c-2.27-23.05-3.68-47.47-4.13-72.81Q177.41,397.37,172.72,399.28Z"/><path class="cls-3" d="M243.16,0c-30.92,0-57.67,63.26-70.44,155.15-.46,3.34-.91,6.73-1.33,10.15a909.43,909.43,0,0,0-6.66,111.91c0,29.14,1.28,57.23,3.63,83.61q6.73-1.49,13.83-3.33c1.36-67.19,9.48-127.76,22-173.24,1.29-4.71,2.64-9.27,4-13.65,13.88-43.8,32.18-70.44,52.23-70.44,22.39,0,42.57,33.12,56.87,86.26C306.65,77.91,277.47,0,243.16,0Z"/><path class="cls-4" d="M77.63,594.78A11.71,11.71,0,0,1,82,602.5H77a9.08,9.08,0,0,0-3.32-5.14,11.21,11.21,0,0,0-7-1.91A11.73,11.73,0,0,0,57.82,599q-3.36,3.53-3.37,10.77a14.71,14.71,0,0,0,3,9.65c2,2.45,5,3.7,9.07,3.7A9.86,9.86,0,0,0,75,619.17a13.87,13.87,0,0,0,2.29-5.39h5a14.79,14.79,0,0,1-4.37,9q-4.44,4.38-12,4.37A16.71,16.71,0,0,1,55,623.56q-5.8-4.72-5.81-14.61,0-7.53,4.37-12.34,4.73-5.22,13-5.23Q73.71,591.38,77.63,594.78Z"/><path class="cls-4" d="M120,597.16a17.45,17.45,0,0,1,3.76,11.56,18.81,18.81,0,0,1-4.29,12.64q-5,5.89-14.38,5.9-8.72,0-13.7-5.16A18.31,18.31,0,0,1,87,609.46a18.62,18.62,0,0,1,3.81-11.79q4.88-6.28,14.45-6.29Q115.21,591.38,120,597.16Zm-4.5,21.66a17.19,17.19,0,0,0,3-10.05,13.4,13.4,0,0,0-3.49-9.66q-3.5-3.66-9.56-3.66a13.17,13.17,0,0,0-9.6,3.63c-2.47,2.4-3.71,6-3.71,10.69a14.56,14.56,0,0,0,3.18,9.55q3.19,3.87,10.33,3.87Q112.5,623.19,115.52,618.82Z"/><path class="cls-4" d="M130.49,592.26h17.13a18.13,18.13,0,0,1,7,1.16q5.22,2.15,5.22,8a8.3,8.3,0,0,1-1.41,5,9.93,9.93,0,0,1-3.93,3.13,7.7,7.7,0,0,1,3.37,2.12,7.1,7.1,0,0,1,1.26,4.29l.16,4.58a13.88,13.88,0,0,0,.35,2.89,2.87,2.87,0,0,0,1.62,2.06v.77H155a4.59,4.59,0,0,1-.4-1.13,22.23,22.23,0,0,1-.23-2.68l-.28-5.67c-.12-2.24-1-3.73-2.66-4.48a11.89,11.89,0,0,0-4.45-.62H135.67v14.58h-5.18Zm16.58,15.58a10,10,0,0,0,5.5-1.3c1.35-.85,2-2.41,2-4.63a5,5,0,0,0-2.83-4.94,10,10,0,0,0-4.05-.69H135.67v11.56Z"/><path class="cls-4" d="M168.33,592.26h16.86a12.38,12.38,0,0,1,8.1,2.56,8.81,8.81,0,0,1,3.1,7.19,9.78,9.78,0,0,1-2.78,6.94q-2.78,3-8.4,2.95H173.5v14.37h-5.17Zm19.8,4.74a11.73,11.73,0,0,0-4.59-.72h-10V608h10a10.29,10.29,0,0,0,5.51-1.32q2.12-1.31,2.12-4.63A5,5,0,0,0,188.13,597Z"/><path class="cls-4" d="M234.08,597.16a17.5,17.5,0,0,1,3.75,11.56,18.81,18.81,0,0,1-4.29,12.64q-5,5.89-14.38,5.9-8.72,0-13.7-5.16A18.35,18.35,0,0,1,201,609.46a18.62,18.62,0,0,1,3.81-11.79c3.24-4.19,8.07-6.29,14.44-6.29Q229.27,591.38,234.08,597.16Zm-4.51,21.66a17.2,17.2,0,0,0,3-10.05,13.37,13.37,0,0,0-3.51-9.66q-3.48-3.66-9.55-3.66a13.13,13.13,0,0,0-9.59,3.63c-2.48,2.4-3.72,6-3.72,10.69a14.51,14.51,0,0,0,3.19,9.55c2.12,2.58,5.57,3.87,10.32,3.87Q226.55,623.19,229.57,618.82Z"/><path class="cls-4" d="M244.54,592.26h17.13a18.19,18.19,0,0,1,7,1.16q5.22,2.15,5.21,8a8.3,8.3,0,0,1-1.41,5,9.93,9.93,0,0,1-3.93,3.13,7.61,7.61,0,0,1,3.36,2.12,7.1,7.1,0,0,1,1.26,4.29l.17,4.58a12.52,12.52,0,0,0,.36,2.89,2.82,2.82,0,0,0,1.62,2.06v.77H269a4.59,4.59,0,0,1-.4-1.13,20.27,20.27,0,0,1-.23-2.68l-.28-5.67c-.12-2.24-1-3.73-2.67-4.48a11.79,11.79,0,0,0-4.44-.62H249.71v14.58h-5.17Zm16.58,15.58a10.08,10.08,0,0,0,5.5-1.3c1.35-.85,2-2.41,2-4.63,0-2.41-.94-4-2.82-4.94a10,10,0,0,0-4.05-.69H249.71v11.56Z"/><path class="cls-4" d="M293,592.26h5.81l13.67,34h-5.6l-4-10.24H288.11L284,626.27h-5.24Zm8.48,20-5.8-15-6,15Z"/><path class="cls-4" d="M340.57,592.26v4H327.86v30h-5.18v-30H310v-4Z"/><path class="cls-4" d="M346.47,592.26h5.17v34h-5.17Z"/><path class="cls-4" d="M391,597.16a17.55,17.55,0,0,1,3.74,11.56,18.81,18.81,0,0,1-4.29,12.64q-5,5.89-14.37,5.9-8.73,0-13.71-5.16A18.35,18.35,0,0,1,358,609.46a18.68,18.68,0,0,1,3.81-11.79q4.88-6.28,14.45-6.29Q386.2,591.38,391,597.16Zm-4.52,21.66a17.19,17.19,0,0,0,3-10.05,13.4,13.4,0,0,0-3.49-9.66q-3.51-3.66-9.56-3.66a13.14,13.14,0,0,0-9.59,3.63c-2.48,2.4-3.72,6-3.72,10.69a14.57,14.57,0,0,0,3.19,9.55q3.18,3.87,10.33,3.87Q383.48,623.19,386.51,618.82Z"/><path class="cls-4" d="M400.87,592.26h6l18.79,27.49V592.26h4.89v34h-5.76l-19.06-27.5v27.5h-4.9Z"/><path class="cls-4" d="M301.66,575.05q-11.78,10.86-34.05,10.85t-34.05-10.85q-15.78-13.38-15.79-38.62,0-25.65,15.79-38.54Q245.33,487,267.61,487t34.05,10.94q15.72,12.89,15.73,38.54Q317.39,561.66,301.66,575.05Zm-13.48-14.21q7.57-8.57,7.59-24.45,0-15.72-7.59-24.33t-20.5-8.62q-12.9,0-20.61,8.58t-7.68,24.37q0,15.89,7.68,24.45t20.61,8.57Q280.6,569.41,288.18,560.84Z"/><path class="cls-4" d="M214.91,483.33V484h0a5.85,5.85,0,0,1-5.78,5.85h-69.8a6.42,6.42,0,0,0-6.37,6.31v16.71H135v-.67h0a5.85,5.85,0,0,1,5.81-5.84h23.32v70.79a6.42,6.42,0,0,0,6.31,6.31H192.3v-2.07h-.67a5.86,5.86,0,0,1-5.87-5.83v-69.2h25A6.43,6.43,0,0,0,217,500v-16.7Z"/><path class="cls-4" d="M147.91,581.38h0a5.85,5.85,0,0,1-5.38-3.56l-.12-.3L109.46,493.7l-.12-.3a5.84,5.84,0,0,0-5.32-3.55H73.28v2.07H74a5.83,5.83,0,0,1,5.84,5.84,5.75,5.75,0,0,1-.35,2c0,.1-.07.2-.11.29L49.75,574.49l-.15.37a6.51,6.51,0,0,0-.37,2.17,6.41,6.41,0,0,0,6.39,6.42H78.78v-2.06H78.1a5.85,5.85,0,0,1-5.52-7.79l3.5-9.53h38.19l5.37,15,.06.21a6.44,6.44,0,0,0,5.91,4.14h23v-2.07ZM82,548l13.5-36.79L108.56,548Z"/><path class="cls-4" d="M436.44,581.38h0a5.83,5.83,0,0,1-5.84-5.79V496.11a6.42,6.42,0,0,0-6.37-6.26h-33.5v2.07h.67a5.84,5.84,0,0,1,5.85,5.84,6.2,6.2,0,0,1-.13,1.24l-.1.38-.39,1.5-16,62.59-19-73.63h-38v2.07h.68a5.83,5.83,0,0,1,5.84,5.71v79.44a6.43,6.43,0,0,0,6.32,6.37h20.26v-2.07H356a5.85,5.85,0,0,1-5.84-5.76V520.13c0-1.78,0-4.32-.08-7.62s-.06-5.84-.06-7.63l18.42,73.62.06.22a6.41,6.41,0,0,0,6.09,4.73h25v-2.07h-.68a5.85,5.85,0,0,1-5.84-5.84,5.64,5.64,0,0,1,.15-1.33l17.46-69.33c0,1.79,0,4.34-.06,7.63s-.08,5.84-.08,7.62v57a6.42,6.42,0,0,0,6.32,6.31h20.27v-2.07Z"/></g></g></svg>