<?xml version="1.0" encoding="utf-8"?>
<!DOCTYPE svg PUBLIC "-//W3C//DTD SVG 1.1//EN" "http://www.w3.org/Graphics/SVG/1.1/DTD/svg11.dtd">
<svg version="1.1" id="VARG" xmlns="http://www.w3.org/2000/svg" xmlns:xlink="http://www.w3.org/1999/xlink" x="0px" y="0px"
 width="180px" height="217px" viewBox="0 0 180 217" enable-background="new 0 0 180 217" xml:space="preserve">
<polygon fill="#E11E2C" points="35.723,118.972 165.908,118.972 100.963,4.433 "/>
<path fill="#E11E2C" d="M176.696,148.769c-0.322-4.5-2.981-8.305-3.98-12.604c-1.066-3.579,1.97-6.139,3.245-9.052
c0.638-1.456-0.2-2.96-1.656-3.598c-1.466-0.342-2.95-0.095-4.159,0.752c-7.348,8.033-11.478,17.057-17.674,26.013
c-0.633,0.886-1.415,1.24-2.042,1.396c-2.696,0.412-4.803,2.693-4.895,5.519c-0.007,0.228,0.002,0.452,0.021,0.674
c0,0,0.112,0.753-0.608,2.727c-0.295,1.181-2.066,1.181-2.066,0c-0.295-4.723-3.247-8.561-4.428-12.988
c-1.181-3.543,1.771-6.2,2.952-9.152c0.59-1.476-0.296-2.952-1.771-3.542c-1.476-0.295-2.952,0-4.133,0.886
c-7.085,8.266-10.923,17.417-16.827,26.568c-0.604,0.906-1.159,1.057-1.995,1.461c-2.683,0.499-4.715,2.847-4.715,5.673
c0,0.228,0.017,0.452,0.043,0.673c-0.22,2.994-1.846,5.291-1.846,5.291c-0.934,1.236-1.758,2.439-3,3.433
c-1.181,0.885-2.73,0.775-3.247-0.59c-0.295-1.181-0.369-1.734,0-3.542c3.247-9.742,5.608-19.188,8.266-29.521
c0-0.295-0.886-0.295-0.886-0.295c-2.657,0.049-5.313,0.886-7.971,1.771c-1.476,0.886-1.181,2.952-2.361,3.542
c-1.476,0.886-3.224-0.751-4.724-0.885c-2.755-0.246-8.068-0.148-12.693,3.837c-6.816,5.874-10.628,13.284-12.989,22.141
c-0.295,1.771-2.583,2.3-3.838,0.886c-2.313-2.607-4.747-5.571-8.266-6.495c-1.018-0.267-1.181-0.886-0.886-1.476
c1.181-2.066,3.225-3.266,4.724-5.019c8.413-9.84,5.313-18.008,4.133-19.778c-1.771-2.362-3.838-3.838-6.495-4.429
c-12.398-2.952-24.207,2.952-33.358,10.923c-6.495,5.904-11.808,12.694-15.646,20.369c-4.723,10.037-8.673,20.665-8.561,31.882
c0.098,9.84,6.523,13.007,10.627,13.58c12.694,1.771,18.008-12.104,21.255-21.846c4.133-13.284,6.495-26.863,12.104-39.558
c0.591-1.476,1.181-3.542,2.657-5.018c0.59-1.181-0.591-2.067-1.771-1.771c-5.904,2.361-14.465,13.579-14.76,14.169
c-2.952,4.428-4.428,9.447-5.904,14.17c-2.952,9.447-3.542,18.893-7.084,28.044c-0.591,2.066-1.477,4.428-3.838,5.314
c-2.362,0.59-4.133-1.181-4.724-3.248c-0.885-2.361-1.181-4.723-0.885-7.38c0.885-7.676,2.657-15.056,5.609-22.436
c1.771-4.133,4.133-7.971,6.79-12.104c5.313-8.561,12.693-15.056,22.14-18.598c3.837-1.476,8.266-0.885,10.922,2.657
c1.181,1.771,0.886,3.838,0.591,5.904c-0.296,1.181-1.378,6.938-5.609,12.398c-1.667,2.151-4.133,2.657-5.608,5.019
c-0.295,0.591,0,1.181,0.295,1.181c3.247,0.885,8.315,1.377,7.971,4.723c-0.049,1.525-4.317,1.734-8.266,5.019
c-2.362,2.066-4.461,4.41-5.904,7.085c-3.001,5.56-2.657,13.284,2.952,15.941c3.837,2.066,8.266,1.476,12.104-0.591
c7.675-4.428,11.808-12.694,12.989-21.55c0-0.886,1.181-1.476,2.066-1.181c2.362,1.771,1.993,4.096,3.837,7.085
c2.543,4.12,9.004,6.457,12.989,3.542c2.952-2.066,5.019-4.723,7.38-7.38c0,0,0.712-0.478,1.181,0
c5.042,5.146,11.735,3.173,15.351-1.477c2.067-2.25,2.952-4.723,5.019-5.313c2.436-0.886,6.565,1.935,11.144,1.698
c8.155-0.422,15.203-6.273,21.624-14.982c2.361,0,4.133,1.771,6.79,2.362c3.542,0.689,6.79,0.59,10.037-0.59
C178.848,161.925,176.696,148.769,176.696,148.769z M56.092,184.803c0,5.904-1.59,12.751-7.38,15.646
c-1.771,0.885-4.133,0-5.019-1.477c-1.181-2.656-0.295-5.313,1.181-7.675c2.361-3.542,5.313-5.904,8.856-7.675
C54.911,183.327,56.387,183.622,56.092,184.803z M98.306,161.187c-2.14,7.675-3.194,16.525-9.151,22.436
c-1.562,1.55-2.374,1.747-3.579,1.919c-4.133,0.591-4.687-4.28-4.687-6.938c0.295-4.723,1.771-9.151,4.133-13.284
c2.362-4.428,5.609-10.332,10.923-10.037C98.601,155.578,98.96,158.842,98.306,161.187z M131.369,160.892
c-0.147,12.054-5.609,13.579-8.266,13.579c-0.886,0-2.066-0.295-1.771-0.59c0,0,3.001-1.82,1.87-6.002
c-0.699-2.584-0.098-3.739-0.098-3.739c2.656-3.838,4.772-7.725,7.085-11.218C131.959,155.282,131.401,158.235,131.369,160.892z
 M165.207,149.214c-0.536,12.044-6.043,13.392-8.699,13.307c-0.886-0.028-2.056-0.362-1.751-0.647c0,0,3.058-1.723,2.062-5.939
c-0.615-2.604,0.022-3.74,0.022-3.74c2.779-3.75,5.019-7.566,7.442-10.983C165.978,143.627,165.324,146.56,165.207,149.214z"/>
<path fill="#E11E2C" d="M92.992,201.63c0,0,28.635-17.909,59.435-21.255c0,0,8.66-1.279,4.035,2.066c0,0-4.527,2.165-9.643,8.069
c0,0,0.196,1.083-4.035,0.689c0,0-22.83-0.099-47.43,15.449c0,0-1.574,1.771-5.018-0.492
C90.335,206.156,87.777,204.778,92.992,201.63z"/>
</svg>
