<?xml version="1.0" encoding="utf-8"?>
<!-- Generator: Adobe Illustrator 24.2.3, SVG Export Plug-In . SVG Version: 6.00 Build 0)  -->
<svg version="1.1" id="Layer_1" xmlns="http://www.w3.org/2000/svg" xmlns:xlink="http://www.w3.org/1999/xlink" x="0px" y="0px"
	 viewBox="0 0 500 333.33" style="enable-background:new 0 0 500 333.33;" xml:space="preserve">
<style type="text/css">
	.st0{fill:#003E27;}
	.st1{fill:#3B443F;}
</style>
<g>
	<path class="st0" d="M11.31,54.27h25.24c16.22,0,28.14,5.22,28.14,20.44c0,7.81-4.05,15.42-10.96,17.96v0.51
		c8.74,2.08,15.16,8.47,15.16,19.68c0,16.59-12.94,24.35-30.31,24.35H11.31V54.27z M35.3,88.51c11.01,0,15.69-4.52,15.69-11.72
		c0-8.01-5.17-11.06-15.4-11.06H25.31v22.78H35.3z M37.14,125.74c11.59,0,18.05-4.36,18.05-13.7c0-8.73-6.27-12.53-18.05-12.53
		H25.31v26.23H37.14z"/>
	<path class="st0" d="M76.27,54.27h47.5v12.38h-33.5V87.9h28.38v12.38H90.27v24.56h34.71v12.38H76.27V54.27z"/>
	<path class="st0" d="M123.63,54.27h14.82l11.1,41.7c2.55,9.41,4.29,17.55,6.95,26.99h0.49c2.65-9.44,4.46-17.58,6.95-26.99
		l10.96-41.7h14.29l-24.42,82.94h-16.61L123.63,54.27z"/>
	<path class="st0" d="M190.98,54.27h47.5v12.38h-33.5V87.9h28.38v12.38h-28.38v24.56h34.71v12.38h-48.71V54.27z"/>
	<path class="st0" d="M248.82,54.27h26.6c16.42,0,29.06,6.09,29.06,24.6c0,17.84-12.65,25.92-29.06,25.92h-12.6v32.42h-14V54.27z
		 M273.96,93.02c10.81,0,16.71-4.72,16.71-14.16c0-9.54-5.89-12.83-16.71-12.83h-11.15v26.99H273.96z M272.79,100.86l10.14-8.78
		l24.64,45.12h-15.74L272.79,100.86z"/>
	<path class="st0" d="M327.9,54.27h16.41l25.73,82.94h-14.82L343.2,93.07c-2.51-8.78-4.82-18.24-7.14-27.34h-0.48
		c-2.17,9.18-4.49,18.57-7,27.34l-12.12,44.14h-14.29L327.9,54.27z M317.38,103.19h37.17v11.54h-37.17V103.19z"/>
	<path class="st0" d="M367.35,96.01c0-27.14,16.36-43.27,37.36-43.27c11.2,0,18.88,5.17,23.85,10.5l-7.48,9.49
		c-3.96-4.06-8.59-7.2-15.93-7.2c-14,0-23.41,11.41-23.41,30.03c0,18.92,8.35,30.39,24.18,30.39c4.39,0,8.74-1.32,11.25-3.66v-17.9
		H402.3V92.31h27.42v36.58c-5.26,5.58-14.39,9.84-25.2,9.84C383.23,138.73,367.35,123.46,367.35,96.01z"/>
	<path class="st0" d="M440.2,54.27h47.5v12.38h-33.5V87.9h28.38v12.38H454.2v24.56h34.71v12.38H440.2V54.27z"/>
	<path class="st1" d="M11.31,278.08V154.61h24.67c11.83,0,21.17,1.23,28.03,3.68c7.36,2.4,14.04,6.48,20.03,12.23
		c12.14,11.62,18.2,26.9,18.2,45.82c0,18.97-6.32,34.33-18.96,46.06c-6.35,5.87-13,9.94-19.95,12.23
		c-6.5,2.29-15.71,3.44-27.64,3.44H11.31z M29.05,260.57h7.99c7.97,0,14.6-0.88,19.88-2.64c5.28-1.87,10.05-4.82,14.32-8.88
		c8.73-8.37,13.1-19.27,13.1-32.7c0-13.54-4.31-24.52-12.95-32.95c-7.77-7.51-19.22-11.27-34.35-11.27h-7.99V260.57z"/>
	<path class="st1" d="M131.69,154.61v123.47h-17.74V154.61H131.69z"/>
	<path class="st1" d="M209.8,213.79h48.59v4.08c0,9.28-1.04,17.49-3.12,24.63c-2.03,6.61-5.46,12.79-10.28,18.55
		c-10.92,12.9-24.8,19.35-41.66,19.35c-16.45,0-30.54-6.23-42.27-18.71c-11.72-12.53-17.59-27.56-17.59-45.1
		c0-17.91,5.96-33.11,17.89-45.58c11.93-12.53,26.45-18.79,43.56-18.79c9.19,0,17.77,1.98,25.75,5.92
		c7.62,3.95,15.1,10.34,22.46,19.19l-12.64,12.71c-9.64-13.49-21.4-20.23-35.26-20.23c-12.44,0-22.87,4.51-31.3,13.51
		c-8.43,8.85-12.64,19.94-12.64,33.27c0,13.75,4.7,25.08,14.09,33.98c8.78,8.26,18.31,12.4,28.56,12.4c8.73,0,16.58-3.09,23.53-9.28
		c6.96-6.23,10.84-13.7,11.65-22.39H209.8V213.79z"/>
	<path class="st1" d="M334.99,172.13h-47.14v29.67h45.77v17.51h-45.77v41.26h47.14v17.51H270.1V154.61h64.88V172.13z"/>
	<path class="st1" d="M414.17,173.01l-14.39,8.95c-2.69-4.9-5.26-8.1-7.69-9.6c-2.54-1.7-5.81-2.55-9.83-2.55
		c-4.92,0-9.01,1.46-12.26,4.4c-3.25,2.88-4.87,6.51-4.87,10.87c0,6.02,4.26,10.88,12.79,14.55l11.73,5.04
		c9.55,4.05,16.53,8.99,20.94,14.83c4.42,5.84,6.63,12.99,6.63,21.47c0,11.35-3.61,20.74-10.81,28.15
		c-7.26,7.46-16.27,11.2-27.03,11.2c-10.21,0-18.64-3.17-25.28-9.52c-6.55-6.34-10.64-15.28-12.26-26.79l17.97-4.16
		c0.81,7.25,2.24,12.26,4.26,15.03c3.66,5.33,8.99,8,15.99,8c5.53,0,10.13-1.95,13.78-5.84c3.66-3.89,5.48-8.82,5.48-14.79
		c0-2.4-0.31-4.6-0.95-6.6c-0.64-2-1.63-3.84-2.97-5.52c-1.35-1.68-3.09-3.25-5.22-4.72c-2.13-1.46-4.67-2.86-7.62-4.2l-11.34-4.96
		c-16.1-7.14-24.14-17.59-24.14-31.34c0-9.28,3.38-17.03,10.13-23.27c6.75-6.29,15.16-9.44,25.21-9.44
		C395.97,152.22,406.55,159.15,414.17,173.01z"/>
	<path class="st1" d="M462.66,172.13v105.95h-17.74V172.13h-27.04v-17.52h71.74v17.52H462.66z"/>
</g>
</svg>
