<?xml version="1.0" encoding="UTF-8" standalone="no"?>
<svg
   xmlns:dc="http://purl.org/dc/elements/1.1/"
   xmlns:cc="http://creativecommons.org/ns#"
   xmlns:rdf="http://www.w3.org/1999/02/22-rdf-syntax-ns#"
   xmlns:svg="http://www.w3.org/2000/svg"
   xmlns="http://www.w3.org/2000/svg"
   viewBox="0 0 891.25049 1062.0875"
   height="1062.0875"
   width="891.25049"
   version="1.1"
   id="svg4206">
  <metadata
     id="metadata4212">
    <rdf:RDF>
      <cc:Work
         rdf:about="">
        <dc:format>image/svg+xml</dc:format>
        <dc:type
           rdf:resource="http://purl.org/dc/dcmitype/StillImage" />
        <dc:title></dc:title>
      </cc:Work>
    </rdf:RDF>
  </metadata>
  <defs
     id="defs4210" />
  <g
     transform="translate(-179.3745,-94.155111)"
     style="display:inline"
     id="layer2">
    <path
       d="m 825.18624,1008.3125 11.37626,-33.125 10.74324,33.125 -22.1195,0 M 565,882 l 0,14 10.38834,0 c 0,0 6.20888,-1.61203 6.20888,-7 0,-5.27376 -6.20888,-7 -6.20888,-7 z m 0,-28 0,13 7,0 c 0,0 4.63994,-1.73813 4.64017,-6.59704 C 576.64043,854.99826 571,854 571,854 Z m 358.1279,40.41368 0,-38.09538 9.47933,0 c 0,0 14.10652,0 14.23426,19.58798 0.10928,16.75846 -14.47263,18.5074 -14.47263,18.5074 z m 16.20291,17.30507 c 18.00787,-5.27418 28.43072,-20.37602 28.43072,-35.38674 0,-15.01072 -11.22677,-35.2165 -31.99803,-38.04493 l -32.43459,0 0,73.43167 z m -102.67506,0.006 0,-42.5884 32.88528,42.5884 20.91237,0 0,-73.6759 -20.91237,0 0,43.29576 -34.29362,-43.29576 -18.28606,0 0,73.6759 z m -134.812,0.0347 0,-34.83802 24.9375,-33.91506 0,-4.75288 -20.79749,0 -13.25798,19.73116 -14.10073,-19.73116 -20.44122,0 0,4.75288 23.82066,33.91506 0,34.83802 z m -47.5932,0.0331 0,-17.35554 -22.4068,0 0,-10.40625 21.14726,0 0,-17.26774 -21.14726,0 0,-11.18538 22.4068,0 0,-17.26896 -42.23722,-0.0654 0,73.54927 z M 580.22028,911.25 c 29.22366,-3.42077 23.76732,-35.92524 7.00857,-38.21355 12.50487,-9.14911 8.76484,-31.95352 -12.69089,-34.61422 l -28.16547,0.039 -0.16078,72.78874 z m 185.70193,-16.40504 c -5.20821,-0.07 -10.72599,-2.37315 -14.259,-6.00459 -3.53301,-3.63144 -5.4617,-8.95576 -5.41321,-13.91124 0.0485,-4.95548 2.09555,-10.18031 5.63859,-13.69136 3.54304,-3.51105 8.93717,-5.50919 14.03362,-5.63123 5.09645,-0.12204 10.45439,2.00883 14.05583,5.60956 3.60144,3.60073 5.49249,8.69926 5.50274,13.71303 0.0103,5.01377 -1.30585,10.48279 -4.85578,14.18454 -3.54993,3.70175 -9.49458,5.80129 -14.70279,5.73129 z m 0,18.78793 c 10.2015,-0.0276 21.38018,-3.59583 28.65561,-10.74702 7.13091,-7.00914 11.10358,-17.90231 11.01568,-27.90081 -0.0875,-9.95559 -4.35739,-20.60227 -11.45514,-27.58392 -7.21202,-7.09405 -18.10032,-11.26987 -28.21615,-11.17577 -10.03407,0.0933 -20.61847,4.57238 -27.77704,11.60417 -7.03764,6.913 -11.67797,17.23698 -11.89425,27.09959 -0.22011,10.03761 3.72751,21.04344 10.88463,28.08459 7.29085,7.17271 18.55907,10.64679 28.78666,10.61917 z m 178.39029,137.97941 0,-87.3623 23.6875,0 0,-24.84375 -77.3125,0 0,24.84375 22.5625,0 0,87.3623 z m -135.24033,0 7.60202,-19.7998 38.82581,0 7.36515,19.7998 32.2389,0 -42.34557,-112.20605 -32.38465,0 -43.2929,112.20605 z m -37.00967,0 0,-25.8977 -33.9375,0 0,-17.7661 32.26784,0 0,-25.94197 -32.26784,0 0,-16.44403 33.9375,0 0,-27.13132 -65.0441,0 0,113.18112 z m -191.76402,0.044 8.48937,-64.51932 26.03409,64.51932 11.50121,0 25.86714,-62.5123 8.17671,62.5123 29.04188,0 -15.73433,-113.22542 -29.16199,0 -24.08596,59.25575 -22.27833,-59.25575 -28.82868,0 -18.61658,113.22542 z M 549.375,1155.9327 c -58.97716,0.3099 -106.72615,-57.8846 -106.72615,-100.0684 l 0.26516,-332.0518 258.46105,0 105.87494,-102.41431 0.19294,-94.40662 159.47312,0.0208 c 48.78554,0 103.70894,51.54921 103.70894,102.72832 l 0,422.69651 c 0,53.8087 -55.103,103.8054 -105.91274,103.8054 z"
       style="opacity:1;fill:#0d1e2a;fill-opacity:1;fill-rule:evenodd;stroke:none;stroke-width:0;stroke-linecap:butt;stroke-linejoin:miter;stroke-miterlimit:4;stroke-dasharray:none;stroke-opacity:1"
       id="path4241" />
    <path
       style="fill:#be3949"
       d="m 442.91401,723.8125 0,-35.05577 c -3.42978,-39.59706 -30.28496,-62.57496 -52.28901,-76.13802 -27.70958,-21.42056 -52.19,-40.0865 -56.64723,-93.05621 l -0.93937,-305.125 c 0.46084,-20.38169 27.22858,-19.8239 27.67984,0 l 0.53033,224.18945 c 11.17753,73.78296 113.27892,69.68855 118.84305,-4.25195 l -0.7759,-219.9375 c -0.82606,-45.2502 -69.43518,-45.2502 -69.04477,0 L 409.6245,439.375 c -0.0526,7.28238 -8.99379,22.29231 -13.09846,22.41081 -4.10467,0.1185 -13.50099,-15.94643 -13.46404,-21.97331 l 0.3151,-225.375 c -1.18589,-45.25024 -71.32394,-45.2502 -70.90958,0 l 0.49561,303.63635 c 3.68588,56.69114 27.023,83.85014 62.80606,109.76875 24.15144,18.54414 42.23953,30.03498 45.48031,60.18265 l -0.35355,35.78725 -142.86689,0 c -34.51052,0 -98.65456,-48.57948 -98.65456,-98.1875 l 0,-428.20222 c 0,-49.37291 54.53885,-103.547677 105.28016,-103.26658 l 416.74904,0 c 61.00695,0 105.49275,60.28258 105.49275,103.2666 L 807.25,621.39819 c 0,50.56076 -59.47967,102.41431 -106.02746,102.41431 l -135.59814,0 L 566.30669,685 c 3.18582,-25.72177 25.85857,-45.27712 42.74541,-55.7111 28.56716,-18.16711 60.01723,-48.60895 65.1354,-111.0699 l 0,-303.7815 c 0,-45.2502 -70.9375,-45.2502 -70.9375,0 l 0.18811,225.875 c -1.03813,12.89965 -17.91183,33.72726 -40.9375,30.47323 7.34268,-7.85036 14.51583,-21.59781 14.49889,-32.41073 l -0.24765,-223.9375 c 0,-45.2502 -69.41519,-45.2502 -69.41519,0 l -0.19077,227.05682 c 13.87074,64.96358 96.5887,70.91857 117.85355,1.7053 l 0.48614,-228.76212 c 0,-19.264 26.4404,-19.264 26.4404,0 l 0.55952,306.1875 c -3.52137,46.79588 -20.87203,65.58339 -54.98526,90.64259 -33.99349,24.23477 -44.97797,40.32317 -52.71225,70.60741 l -1.38346,41.875 z M 417.67513,470.46913 c 5.99475,-6.23416 12.29538,-20.23167 13.25165,-30.27319 L 431.0625,214.4375 c 0,-19.264 27.1427,-19.264 27.32831,0 L 458.125,441.87511 c -7.45198,22.93737 -26.63031,31.34201 -40.44987,28.59402 z M 528.08081,434.55784 528.125,214.4375 c 0,-19.264 26.875,-19.264 26.875,0 l 0.68566,221.12679 c -0.0187,9.20051 -7.95726,26.48762 -14.13524,26.26665 -6.17799,-0.22097 -13.70319,-17.54476 -13.46961,-27.2731 z"
       id="path4250" />
    <path
       d="m 869.11634,189.43735 0,8.6621 6.61333,-0.0312 c 6.47174,-1.46692 5.45575,-8.66215 0.0663,-8.66201 z m -3.58449,-2.64425 0,23.8041 3.58445,0.0312 4e-5,-9.6564 7.20994,0 c 3.18158,1.13841 4.27596,6.62131 4.33102,9.71356 l 5.17072,0 c -1.47774,-2.55952 -0.29803,-9.02081 -5.94411,-11.33581 5.74879,-1.63262 4.88689,-12.55863 -1.72357,-12.55114 z"
       style="fill:#0e1f2b;fill-opacity:1;fill-rule:evenodd;stroke:#0e1f2b;stroke-width:2;stroke-linecap:butt;stroke-linejoin:miter;stroke-miterlimit:4;stroke-dasharray:none;stroke-opacity:1"
       id="path4335" />
    <path
       id="path4409"
       d="m 874.5625,174.07617 c -13.60382,0 -24.67383,11.07001 -24.67383,24.67383 0,13.60382 11.07001,24.67383 24.67383,24.67383 13.60382,0 24.67383,-11.07001 24.67383,-24.67383 0,-13.60382 -11.07001,-24.67383 -24.67383,-24.67383 z m 0,4 c 11.44206,0 20.67383,9.23177 20.67383,20.67383 0,11.44206 -9.23177,20.67383 -20.67383,20.67383 -11.44206,0 -20.67383,-9.23177 -20.67383,-20.67383 0,-11.44206 9.23177,-20.67383 20.67383,-20.67383 z"
       style="color:#000000;font-style:normal;font-variant:normal;font-weight:normal;font-stretch:normal;font-size:medium;line-height:normal;font-family:sans-serif;text-indent:0;text-align:start;text-decoration:none;text-decoration-line:none;text-decoration-style:solid;text-decoration-color:#000000;letter-spacing:normal;word-spacing:normal;text-transform:none;direction:ltr;block-progression:tb;writing-mode:lr-tb;baseline-shift:baseline;text-anchor:start;white-space:normal;clip-rule:nonzero;display:inline;overflow:visible;visibility:visible;opacity:1;isolation:auto;mix-blend-mode:normal;color-interpolation:sRGB;color-interpolation-filters:linearRGB;solid-color:#000000;solid-opacity:1;fill:#0e1f2b;fill-opacity:1;fill-rule:nonzero;stroke:#0e1f2b;stroke-width:2;stroke-linecap:square;stroke-linejoin:miter;stroke-miterlimit:4;stroke-dasharray:none;stroke-dashoffset:0;stroke-opacity:1;color-rendering:auto;image-rendering:auto;shape-rendering:auto;text-rendering:auto;enable-background:accumulate" />
  </g>
</svg>
