<svg xmlns="http://www.w3.org/2000/svg" width="131.68971" height="61.001141" viewBox="0 0 34.842903 16.139884">
  <path d="M29.68117 153.62747v-1.81028c0-.47678-.108212-.85804-.324382-1.14353-.216689-.28575-.53181-.42836-.947201-.42836-.408789 0-.82074.18256-1.235609.54769-.124349-.35322-.367239-.52996-.729189-.52996h-.524672l-.0619.0619v4.40637c.100539.018.210079.0312.329139.04a4.9098729 4.9098729 0 0 0 .728671 0c.11879-.009.22833-.022.328871-.0397v-2.94984c.119068-.1061.234159-.18256.347139-.22966.11244-.0471.213252-.0709.302421-.0709.153448 0 .257429.0474.31115.14155.0532.0945.0796.2413.0796.44186v1.88065c0 .2884.0564.50351.168799.64479.11298.14103.323059.21167.631561.21167.31406 0 .58367-.0997.809098-.30004-.142347-.1942-.213518-.48577-.213518-.87418zm-5.824803-.13679c-.0833.22675-.256119.33999-.518847.33999-.13149 0-.237332-.0294-.318032-.0884-.0802-.0587-.14287-.1487-.187849-.26935-.045-.12065-.0749-.2704-.09-.45032a7.8673854 7.8673854 0 0 1-.0222-.64029c0-.15875.009-.30771.027-.44582.01799-.13838.0508-.26062.0984-.36645.0479-.1061.11218-.18997.192619-.25135.0807-.0622.186531-.0931.318029-.0931.25056 0 .41751.11059.500851.33125.0839.22067.125939.54293.125939.96706 0 .41804-.0423.7403-.125939.96678zm-.505618-3.2983c-.33178 0-.62547.0561-.880002.16775a1.7168812 1.7168812 0 0 0-.64003.47704c-.171979.20611-.302419.45191-.391579.73713-.0886.28575-.13309.6051-.13309.95806 0 .3474.0444.66543.13309.95382.0892.2884.22119.53446.39581.73766a1.7914937 1.7914937 0 0 0 .6403.47228c.25188.11192.543721.16775.875501.16775.33179 0 .62548-.0542.880268-.16352.254532-.10847.4699-.26458.64479-.46804.174892-.20294.308242-.44874.40005-.73713.0918-.2884.137581-.6096.137581-.96282 0-.78846-.213249-1.39515-.640019-1.81901-.361691-.34714-.836092-.52097-1.42267-.52097zm-2.595821.0706c-.51568 0-.88636.26485-1.11125.79481-.21352-.49477-.5932-.76226-1.13824-.8038-.0833.0648-.16616.16933-.24924.31353-.0826.14446-.13917.27517-.1688.39291.22489.17092.33787.47704.33787.91863v2.85221c.20135.0352.43392.0532.69797.0532.26379 0 .49345-.018.68924-.0529v-2.74691c.18944-.3003.43259-.45005.72919-.45005.20108.0233.35243.0529.45323.0881.10663-.17675.19103-.39.25321-.6403.0624-.25003.0934-.46646.0934-.64902-.23707-.0474-.43286-.0706-.58658-.0706zm-4.8903 3.53219c-.15981 0-.35242-.0672-.57785-.20293v-1.94284c.18362-.23548.40032-.35322.64929-.35322.35533 0 .5334.38841.5334 1.16576 0 .889-.20161 1.3335-.60484 1.3335zm1.61502-2.97603c-.13229-.20003-.29369-.35428-.4826-.46329-.18918-.10927-.40799-.16351-.65617-.16351-.48419 0-.89508.16775-1.23216.5035-.16563-.28839-.41804-.43286-.75539-.43286h-.36486l-.0619.0619v6.25211l.0619.0617h.53367c.28469 0 .48286-.0617.59584-.18521.11245-.12356.1688-.33867.1688-.64452v-1.17475c.27199.12356.54346.18547.81518.18547.254 0 .48922-.0545.70459-.16325a1.6880417 1.6880417 0 0 0 .5625-.46328c.15981-.20056.28522-.44477.37677-.73343.0916-.2884.13732-.60907.13732-.96255 0-.35322-.0341-.67099-.10187-.95356-.068-.28284-.1688-.52388-.30162-.72443zm-6.11796 1.53246c-.0741-.003-.12594-.005-.15584-.005h-.64876l-.35586.009.20452-.67997c.23707-.87101.37941-1.43325.42677-1.68646h.0534c.18362.71834.34661 1.32424.48869 1.81875l.15107.54768c-.0352 0-.09-.002-.16404-.004zm-.44027-3.70469c-.30797 0-.57785.0177-.80909.0529l-1.9558001 5.92561.0439.0706c.17832.0648.40931.0974.694.0974.25453 0 .45323-.018.59531-.0529l.38259-1.28059c.0767.006.1957901.009.3556001.009h1.26259c.15399 0 .26961-.003.3466-.009l.16907.58314c.0889.30004.19579.50298.32015.60907.12435.10584.34078.15902.64902.15902.26062 0 .49477-.0558.7022-.16775l-1.92008-5.9346c-.20796-.041-.48657-.0616-.83608-.0616zm10.7524-4.5503c.0913-.13256.230721-.1987.419102-.1987.194209 0 .339457.0706.436567.21166.0968.14129.14605.32094.14605.53896v.0971h-1.165489c.018-.3003.0722-.51647.16351-.64902zm-1.13691 2.82125a1.5832667 1.5832667 0 0 0 .6133.49477c.25215.11748.56489.17648.938222.17648.687379 0 1.268409-.16775 1.742537-.5035-.0474-.34132-.168269-.61225-.363008-.81228-.242091.091-.456142.15637-.641882.19633-.186258.0397-.350297.0598-.492119.0598-.28311 0-.486828-.073-.61119-.21881-.12382-.14552-.19156-.34925-.2032-.61119h2.311931c.0767-.24765.115089-.5506.115089-.90963 0-.27094-.0429-.52123-.12885-.75089a1.6888354 1.6888354 0 0 0-.369091-.59161 1.7107958 1.7107958 0 0 0-.582078-.38841c-.228341-.0942-.484722-.14129-.769152-.14129-.338139 0-.633149.0587-.884499.17648a1.6933333 1.6933333 0 0 0-.62257.48551c-.16298.20611-.28442.44926-.36459.72893-.0802.2794-.12012.58393-.12012.91387 0 .34131.0325.65643.0979.94483.0653.28839.17647.53869.33337.75062zm-4.71646-.95382c0 .47678.10795.85831.32438 1.14353.21616.28575.53207.42862.9472.42862.41434 0 .8562-.20902 1.32451-.62706.21325.39449.56303.60034 1.04907.61833.0889-.0648.17489-.16669.25771-.30533.0831-.13758.13943-.26591.16933-.38364-.16616-.11192-.24897-.32677-.24897-.64479v-3.14378c-.2077-.0355-.44186-.0529-.70247-.0529-.26115 0-.48948.0175-.68474.0529v2.94931c-.20162.20029-.40032.3003-.59532.3003-.20187 0-.32649-.0468-.37412-.14102-.0476-.0942-.0706-.24448-.0706-.45059v-1.87193c0-.28839-.0564-.5035-.16933-.64479-.11245-.14128-.3257-.21193-.64003-.21193-.31406 0-.58049.0974-.79983.29157.14208.20611.21325.50007.21325.88292zm-.22225 1.4478c.0177-.0595.027-.18733.027-.38312 0-.19579-.036-.39185-.10689-.5879h-.24025c-.26114 0-.39132-.13785-.39132-.41408v-4.241c0-.30533-.0561-.51991-.1688-.64373-.11271-.1233-.3085-.18521-.58711-.18521h-.54187l-.0537.0619v5.25462c0 .42387.0847.73449.25374.93134.1688.19738.45455.2958.85778.2958.2786 0 .59557-.0294.95144-.0886zm-5.43243-2.61356h.73369c.31247 0 .54107.0852.68527.25585.14473.17093.21696.37122.21696.60061 0 .24156-.0561.42968-.16827.56515a.71966667.71966667 0 0 1-.4154.25612 2.2198542 2.2198542 0 0 1-.53525.0442 7.2786875 7.2786875 0 0 0-.517 0zm0-2.42834c.0765.006.16616.009.26961.009h.35772c.27649 0 .4736.0661.59161.19843.11774.1323.17727.29898.17727.49927 0 .20003-.0579.36936-.17278.50774-.11456.13838-.31353.20743-.5961.20743h-.62706v-1.4216zm-.0354 5.13027c.36142.006.65193.009.87101.009.7112 0 1.261-.14579 1.64968-.43709.38814-.29157.58208-.74031.58208-1.34673 0-.17092-.0283-.33682-.0841-.49901a1.908175 1.908175 0 0 0-.22622-.45032 1.5967604 1.5967604 0 0 0-.34158-.36222 1.3596937 1.3596937 0 0 0-.42148-.22489c.23045-.10002.41937-.26194.56727-.48578a1.2879917 1.2879917 0 0 0 .22172-.72416c0-.53552-.18521-.93716-.55563-1.20544-.37041-.26776-.87868-.40217-1.52479-.40217-.20743 0-.48154.004-.82232.009-.3410504.006-.7514204.0145-1.2316404.0265l-.0622.0616v5.9436l.0622.0616c.51567.0119.95435.0209 1.3160404.0265zm-6.7561403-6.48626a9.5170625 9.5170625 0 0 0-1.17925-.25056l-.1560999 2.60561H-.54980246l-.15558-2.60561c-.40216984.0595-.79480984.1434-1.17872004.25135-.1608599 1.66793.3770302 5.7912-2.7995499 7.76076v5.44592s1.92854 2.06004 5.42924994 2.06004c3.49938026 0 5.42819006-2.1926 5.42819006-2.1926v-5.31336c-3.17765-1.96956-2.64001-6.09335-2.7995599-7.76155z" style="fill:#0f346c;fill-rule:evenodd;stroke-width:.26458332" transform="translate(4.815945 -140.6311)"/>
</svg>
