<?xml version="1.0" encoding="UTF-8"?>
<svg id="Calque_1" data-name="Calque 1" xmlns="http://www.w3.org/2000/svg" viewBox="0 0 882.64 370.27">
  <defs>
    <style>
      .cls-1 {
        fill: none;
      }

      .cls-2 {
        fill: #325643;
      }
    </style>
  </defs>
  <rect class="cls-1" width="882.64" height="370.27"/>
  <path class="cls-2" d="M113.18,239.85c9.8,5.19,29.37,9.08,51.38,9.08,30.56,0,52.46-8.67,69.49-23.33,21.03-18.1,24.88-38.87,24.7-53-.31-23.73-17.16-39.77-41.31-40.87-.06,0-4.83-.34-9.82-.08l-2.01,.11,1.83-.84c4.36-2,8.41-4.26,8.45-4.28,37.65-19.94,48.09-42.84,46.26-59.3-3.38-30.35-38.12-38.04-68.41-37.47-34.03,.64-63.43,14.01-88.61,38.58-4.42,4.31-12.54,13.78-13.66,19.2-.22,1.07,.41,1.85,1.08,2.23,.72,.4,1.52,.41,1.94,0,15.24-14.58,47.32-32.24,84.61-35.86,24.78-2.4,41.86,4.29,43.64,18.88,1.73,14.26-12.18,32.39-36.32,47.32-14.05,8.69-19.78,14.42-23.77,19.06l-.84,.98,8.5-65.7c-26.09,3.1-37.19,9.06-40.74,36.71-4.13,32.13-13.97,110.69-16.39,128.57Zm109.46-88.13c5.35,25.54-13.32,78.96-61.63,78.33,3.24-10.87,20.55-43.53,32.51-56-19.2,9.05-31.97,29.35-39.98,49.65-12.3-32.36,22.77-79.75,69.1-71.98Z"/>
  <g>
    <path class="cls-2" d="M332.69,165.62c-4.3,2-10.99,3.23-17.29,3.23-19.67,0-27.36-10.07-27.36-29.81s8.38-29.89,27.82-29.89c5.46,0,11.53,1,15.91,2.61l-1.23,11.22c-4.07-1.54-9.22-2.46-13.99-2.46-11.37,0-14.91,4.15-14.91,18.37s3.38,18.37,13.45,18.37c2.23,0,4.3-.23,6.15-.77v-19.67h11.45v28.82Z"/>
    <path class="cls-2" d="M379.26,143.72l13.45,24.05h-15.14l-10.07-21.52h-8.15v21.52h-12.99v-57.63h21.13c14.29,0,21.44,5.61,21.44,17.9,0,8.07-3.46,13.75-9.68,15.68Zm-11.68-22.82h-8.22v15.68h7.99c5.76,0,8.07-1.77,8.07-7.99,0-5.84-2.15-7.68-7.84-7.68Z"/>
    <path class="cls-2" d="M425.22,168.85c-17.75,0-25.44-9.38-25.44-29.89s7.45-29.74,25.44-29.74,25.36,9.22,25.36,29.74-7.3,29.89-25.36,29.89Zm0-48.03c-8.76,0-11.83,3.53-11.83,18.13s3.15,18.29,11.91,18.29,11.76-3.77,11.76-18.29-3-18.13-11.83-18.13Z"/>
    <path class="cls-2" d="M509.36,147.18c0,14.52-7.84,21.67-23.13,21.67s-23.28-7.15-23.28-21.67v-37.04h12.91v36.88c0,6.99,3.15,10.07,10.37,10.07s10.3-3,10.3-10.07v-36.88h12.83v37.04Z"/>
    <path class="cls-2" d="M544.49,149.02h-7.68v18.75h-12.99v-57.63h20.67c15.98,0,22.51,6.3,22.51,19.75,0,12.14-6.46,19.13-22.51,19.13Zm0-28.05h-7.68v17.67h7.68c6.38,0,9.14-1.61,9.14-8.84s-2.46-8.84-9.14-8.84Z"/>
    <path class="cls-2" d="M618.64,156.48l-.31,11.3h-39.19v-57.63h38.04l.23,11.45h-25.28v11.45h21.29v10.3h-21.29v13.14h26.51Z"/>
  </g>
  <g>
    <path class="cls-2" d="M313.94,240.23h-23.74v-57.63h23.44c12.53,0,18.83,5.61,18.83,14.75,0,6.45-3.07,10.45-7.68,12.37v.15c6.38,1.77,9.76,6.3,9.76,13.6,0,10.37-6.07,16.75-20.59,16.75Zm-.15-24.59h-11.14v13.99h11.45c5.15,0,7.45-1.69,7.45-7.15,0-4.84-2.15-6.84-7.76-6.84Zm-.61-22.13h-10.45v12.53h10.76c4.61,0,6.61-1.84,6.61-6.38s-2.08-6.15-6.92-6.15Z"/>
    <path class="cls-2" d="M370.89,241.31c-17.75,0-25.44-9.38-25.44-29.89s7.45-29.74,25.44-29.74,25.36,9.22,25.36,29.74-7.3,29.89-25.36,29.89Zm0-48.03c-8.76,0-11.83,3.53-11.83,18.13s3.15,18.29,11.91,18.29,11.76-3.77,11.76-18.29-3-18.13-11.83-18.13Z"/>
    <path class="cls-2" d="M446.81,240.23l-22.36-31.43-3.46-5.15-.15,.08,.08,6.22v30.28h-11.53v-57.63h11.07l20.52,29.74,3.46,5.15,.15-.08-.15-6.15v-28.66h11.45v57.63h-9.07Z"/>
    <path class="cls-2" d="M492.84,240.23h-21.75v-57.63h21.59c18.29,0,25.9,8.68,25.9,28.59s-8.68,29.05-25.74,29.05Zm-.31-46.03h-8.45v34.5h8.53c8.84,0,12.37-2.84,12.37-17.6,0-13.68-3.3-16.91-12.45-16.91Z"/>
    <path class="cls-2" d="M577.3,219.64c0,14.52-7.84,21.67-23.13,21.67s-23.28-7.15-23.28-21.67v-37.04h12.91v36.88c0,6.99,3.15,10.07,10.37,10.07s10.3-3,10.3-10.07v-36.88h12.83v37.04Z"/>
    <path class="cls-2" d="M631.25,228.94l-.31,11.3h-39.19v-57.63h38.04l.23,11.45h-25.28v11.45h21.29v10.3h-21.29v13.14h26.51Z"/>
    <path class="cls-2" d="M680.43,228.55l-.31,11.68h-36.5v-57.63h13.06v45.95h23.74Z"/>
    <path class="cls-2" d="M728.38,228.55l-.31,11.68h-36.5v-57.63h13.06v45.95h23.74Z"/>
    <path class="cls-2" d="M779.02,228.94l-.31,11.3h-39.19v-57.63h38.04l.23,11.45h-25.28v11.45h21.29v10.3h-21.29v13.14h26.51Z"/>
  </g>
  <g>
    <path class="cls-2" d="M129.6,281.27l-5.37,40.83h17.74l-.82,6.26h-26.09l6.2-47.09h8.35Z"/>
    <path class="cls-2" d="M178.29,326.41l-6.57,2.5s-2.84-2.92-2.45-8.56c-2.27,5.56-6.09,8.42-12.05,8.42-8.77,0-12.01-6.82-10.64-17.25,1.39-10.57,9.22-18.36,19.18-18.36,5.61,0,12.66,1.88,13.27,2.02l-2.16,16.42c-1.45,10.99,1.42,14.82,1.42,14.82Zm-7.82-26.92c-.88-.28-3.06-.76-4.53-.76-7.01,0-9.71,5.08-10.64,12.1-.85,6.47-1.14,12.38,3.98,12.38,4.63,0,8.97-6.89,9.87-13.7l1.32-10.02Z"/>
    <path class="cls-2" d="M228.18,305.89c.51-3.9-.41-6.47-3.78-6.47-4.21,0-9.07,4.45-10.03,11.76l-2.26,17.18h-8l2.31-17.53c1.46-11.06-1.49-14.82-1.49-14.82l6.64-2.5s2.33,2.57,2.45,7.51c3.19-5.56,8.47-7.86,13.52-7.86,7.22,0,9.62,4.66,8.66,11.96l-3.06,23.23h-7.92l2.96-22.47Z"/>
    <path class="cls-2" d="M274.57,326.41l-6.57,2.5s-2.84-2.92-2.45-8.56c-2.27,5.56-6.09,8.42-12.05,8.42-8.77,0-12.01-6.82-10.64-17.25,1.39-10.57,9.22-18.36,19.18-18.36,5.61,0,12.66,1.88,13.27,2.02l-2.16,16.42c-1.45,10.99,1.42,14.82,1.42,14.82Zm-7.82-26.92c-.88-.28-3.06-.76-4.53-.76-7.01,0-9.71,5.08-10.64,12.1-.85,6.47-1.14,12.38,3.98,12.38,4.63,0,8.97-6.89,9.87-13.7l1.32-10.02Z"/>
    <path class="cls-2" d="M288.12,293.72l2.47-8.14,6.79-1.46-1.26,9.6h8.63l-1.72,5.63h-7.64l-2.71,20.59c-.31,2.37,1.17,2.85,2.78,2.85,2.67,0,5.6-.97,5.6-.97l.65,5.22c.07,0-3.93,1.6-9.19,1.6s-8.7-2.09-7.95-7.79l2.83-21.49h-6.31l.74-5.63h6.31Z"/>
    <path class="cls-2" d="M340.51,293.72l-2.35,17.88c-1.45,10.99,1.42,14.82,1.42,14.82l-6.57,2.5s-2.53-2.64-2.49-7.72c-3.24,5.43-8.5,7.58-13.48,7.58-7.36,0-9.63-4.59-8.66-11.96l3.04-23.09h7.99l-3.02,22.96c-.5,3.83,.44,6.26,3.81,6.26,4.14,0,9.13-4.87,10.1-12.24l2.23-16.97h8Z"/>
    <path class="cls-2" d="M372.31,294l-3.26,7.72c-.06-.07-1.16-.77-3.34-.77-3.37,0-7.46,3.41-8.11,8.35l-2.51,19.06h-8l2.31-17.53c1.46-11.06-1.49-14.82-1.49-14.82l6.64-2.5s2.2,2.5,2.41,7.3c2.6-5.36,6.61-7.58,11.1-7.58,2.17,0,4.32,.76,4.25,.76Z"/>
    <path class="cls-2" d="M402.99,302.76c-.88,6.68-9.41,12.38-21.77,12.52-.08,4.31,1.21,7.86,6.75,7.86,4.07,0,10.28-2.44,10.28-2.44l1.45,4.94s-6.52,3.2-13.61,3.2c-10.8,0-14.25-6.82-12.92-16.97,1.63-12.38,9.86-18.99,19.4-18.99,8.35,0,11.14,4.31,10.41,9.88Zm-8,0c.36-2.71-1.17-4.45-3.76-4.45-6.17,0-8.68,6.26-9.57,11.96,8.95-.35,12.9-4.24,13.33-7.51Z"/>
    <path class="cls-2" d="M415.73,323.7c-.99,7.51-6.26,12.38-11.57,14.89l-2.48-4.04c3.99-2.64,5.34-5.43,5.67-7.93,.36-2.71-.59-5.08-.44-6.82,.08-.07,1.5-1.25,4.79-1.25s4.42,2.16,4.02,5.15Z"/>
    <path class="cls-2" d="M468,305.89c.51-3.9-.41-6.47-3.78-6.47-4.21,0-9.07,4.45-10.03,11.76l-2.26,17.18h-8l2.31-17.53c1.46-11.06-1.49-14.82-1.49-14.82l6.64-2.5s2.33,2.57,2.45,7.51c3.19-5.56,8.47-7.86,13.52-7.86,7.22,0,9.63,4.66,8.67,11.96l-3.06,23.23h-7.92l2.96-22.47Z"/>
    <path class="cls-2" d="M495.74,329.06c-10.73,0-14.48-6.68-13.03-17.67,1.38-10.5,7.69-18.5,18.42-18.5s14.48,6.68,13.03,17.74c-1.37,10.43-7.69,18.43-18.42,18.43Zm1.47-5.84c5.4,0,7.35-5.22,8.23-11.9,.92-6.96,.25-12.59-5.78-12.59-5.4,0-7.35,5.22-8.24,11.96-.91,6.89-.24,12.52,5.79,12.52Z"/>
    <path class="cls-2" d="M526.61,293.72l2.47-8.14,6.78-1.46-1.26,9.6h8.63l-1.72,5.63h-7.64l-2.71,20.59c-.31,2.37,1.17,2.85,2.78,2.85,2.67,0,5.6-.97,5.6-.97l.65,5.22c.07,0-3.93,1.6-9.19,1.6s-8.7-2.09-7.95-7.79l2.83-21.49h-6.31l.74-5.63h6.31Z"/>
    <path class="cls-2" d="M571.52,294l-3.26,7.72c-.06-.07-1.16-.77-3.34-.77-3.37,0-7.46,3.41-8.11,8.35l-2.51,19.06h-8l2.31-17.53c1.46-11.06-1.49-14.82-1.49-14.82l6.64-2.5s2.2,2.5,2.41,7.3c2.6-5.36,6.61-7.58,11.1-7.58,2.17,0,4.32,.76,4.25,.76Z"/>
    <path class="cls-2" d="M602.21,302.76c-.88,6.68-9.41,12.38-21.77,12.52-.08,4.31,1.21,7.86,6.75,7.86,4.07,0,10.28-2.44,10.28-2.44l1.46,4.94s-6.52,3.2-13.61,3.2c-10.8,0-14.25-6.82-12.92-16.97,1.63-12.38,9.86-18.99,19.4-18.99,8.35,0,11.14,4.31,10.41,9.88Zm-8,0c.36-2.71-1.17-4.45-3.76-4.45-6.17,0-8.68,6.26-9.57,11.96,8.95-.35,12.9-4.24,13.33-7.51Z"/>
    <path class="cls-2" d="M645.8,284.26c-1.75,0-5.42,.7-6.06,5.57-.14,1.04-.16,2.29,.05,3.89h8.7l-1.72,5.63h-7.29l-3.59,27.27c-1.46,11.06-8.35,14.4-14.33,17.25l-2.53-5.29c7.48-3.55,8.38-8.28,8.77-11.2l3.69-28.03h-6.31l.74-5.63h6.1c-.17-1.39-.1-2.99,.07-4.24,.99-7.51,7.38-11.34,13.97-11.34,3.65,0,5.72,1.32,6.98,2.92l-4.03,4.52c-.24-.28-1.93-1.32-3.19-1.32Z"/>
    <path class="cls-2" d="M681.58,293.72l-2.35,17.88c-1.45,10.99,1.42,14.82,1.42,14.82l-6.57,2.5s-2.53-2.64-2.49-7.72c-3.24,5.43-8.5,7.58-13.48,7.58-7.36,0-9.63-4.59-8.66-11.96l3.04-23.09h7.99l-3.02,22.96c-.5,3.83,.44,6.26,3.81,6.26,4.14,0,9.13-4.87,10.1-12.24l2.23-16.97h7.99Z"/>
    <path class="cls-2" d="M694.55,293.72l2.47-8.14,6.79-1.46-1.26,9.6h8.62l-1.72,5.63h-7.64l-2.71,20.59c-.31,2.37,1.17,2.85,2.78,2.85,2.67,0,5.6-.97,5.6-.97l.65,5.22c.07,0-3.93,1.6-9.19,1.6s-8.7-2.09-7.95-7.79l2.83-21.49h-6.31l.74-5.63h6.31Z"/>
    <path class="cls-2" d="M746.94,293.72l-2.35,17.88c-1.45,10.99,1.42,14.82,1.42,14.82l-6.57,2.5s-2.53-2.64-2.49-7.72c-3.24,5.43-8.5,7.58-13.48,7.58-7.36,0-9.63-4.59-8.67-11.96l3.04-23.09h7.99l-3.02,22.96c-.5,3.83,.44,6.26,3.81,6.26,4.14,0,9.13-4.87,10.1-12.24l2.23-16.97h8Z"/>
    <path class="cls-2" d="M778.74,294l-3.26,7.72c-.06-.07-1.16-.77-3.34-.77-3.37,0-7.46,3.41-8.11,8.35l-2.51,19.06h-8l2.31-17.53c1.46-11.06-1.49-14.82-1.49-14.82l6.64-2.5s2.2,2.5,2.41,7.3c2.6-5.36,6.61-7.58,11.1-7.58,2.17,0,4.32,.76,4.25,.76Z"/>
  </g>
</svg>