<?xml version="1.0" encoding="UTF-8" standalone="no"?>
<!-- Created with Inkscape (http://www.inkscape.org/) -->

<svg
   xmlns:dc="http://purl.org/dc/elements/1.1/"
   xmlns:cc="http://creativecommons.org/ns#"
   xmlns:rdf="http://www.w3.org/1999/02/22-rdf-syntax-ns#"
   xmlns:svg="http://www.w3.org/2000/svg"
   xmlns="http://www.w3.org/2000/svg"
   version="1.1"
   width="300"
   height="68.073578"
   id="svg3362">
  <defs
     id="defs3364" />
  <metadata
     id="metadata3367">
    <rdf:RDF>
      <cc:Work
         rdf:about="">
        <dc:format>image/svg+xml</dc:format>
        <dc:type
           rdf:resource="http://purl.org/dc/dcmitype/StillImage" />
        <dc:title></dc:title>
      </cc:Work>
    </rdf:RDF>
  </metadata>
  <g
     transform="translate(-512.85714,-629.75396)"
     id="layer1">
    <g
       transform="matrix(1.2277878,0,0,1.2277878,242.07315,268.23524)"
       id="g3295">
      <rect
         width="244.34189"
         height="55.444092"
         x="220.54625"
         y="294.44724"
         id="rect12750"
         style="fill:#004795;fill-opacity:1;stroke:none" />
      <path
         d="m 419.16727,305.76586 -0.16625,1.23625 c -0.13125,0.24875 -0.0362,0.53 0.16625,0.6625 l 1.7325,0.3375 c 0.22375,0.1225 0.50625,0.0238 0.6625,-0.17125 0,-0.0937 0.0175,-0.1425 0,-0.16625 l 2.8875,-10.8125 c 0.0725,-0.55875 -0.1875,-1.07625 -0.66375,-1.3125 -0.335,-0.18875 -0.68875,-0.2125 -0.99,-0.09 l -1.39875,0.81875 c -2,1.05125 -3.6025,1.2225 -4.78625,1.41125 -3.70875,0.34125 -9.2175,0.29125 -15.11125,0.4875 -5.89375,-0.19625 -11.40625,-0.14625 -15.10125,-0.4875 -0.66,-0.0925 -1.26125,-0.5725 -1.575,-1.155 l -0.81875,-1.3225 c -0.23625,-0.2725 -0.55875,-0.4175 -0.91,-0.415 -0.56125,-0.002 -1.03625,0.34 -1.24125,0.83 l -2.39875,10.88875 c -0.0337,0.0787 -0.055,0.13875 -0.075,0.17125 0.02,0.295 0.21875,0.43375 0.4925,0.49 l 1.65125,0.4975 c 0.28,-0.0113 0.545,-0.295 0.57875,-0.58 l 2.23,-3.54375 c 1.29875,-1.61875 3.35125,-2.6325 5.615,-2.6375 l 6.68875,0.3175 c 0.45625,-0.01 0.78,0.0738 0.82875,0.83 l 0,38.795 c -0.0487,1.4475 -0.28,2.9075 -1.49125,4.04875 -1.1975,1.16875 -2.5075,0.8825 -4.045,1.32125 -0.25125,0.18375 -0.42875,0.56125 -0.41875,0.9075 -0.01,0.5575 0.345,0.97875 0.745,0.99 0.0325,-0.0112 5.0875,-0.46625 9.17125,-0.4975 4.05625,0.0312 9.22,0.48625 9.245,0.4975 0.4125,-0.0112 0.76625,-0.4325 0.73625,-0.99 0.03,-0.34625 -0.14875,-0.72375 -0.41,-0.9075 -1.5275,-0.43875 -2.84,-0.14375 -4.0475,-1.32125 -1.1825,-1.14125 -1.35625,-2.58875 -1.4025,-4.04875 l 0,-38.795 c 0.04,-0.75625 0.36375,-0.84 0.82375,-0.83 4.86375,-0.0738 6.5075,-0.15625 10.07375,0.33875 1.575,0.3775 2.77125,1.8175 2.80625,3.545 -0.035,0.235 -0.0475,0.44625 -0.0837,0.66125 m -115.475,14.695 c 4.92875,0.52375 15.205,6.685 11.21625,17.5025 -3.29875,9.08 -14.07125,11.09 -24.17875,9.7325 -3.51625,-0.4375 -12.86125,0.40625 -12.88,0.4175 -0.41125,-0.0112 -0.76625,-0.4325 -0.745,-0.99 -0.0213,-0.34625 0.1575,-0.72375 0.4125,-0.9075 1.53375,-0.43875 2.8475,-0.14375 4.04875,-1.32125 1.1825,-1.14125 1.36125,-2.58875 1.40125,-4.04875 l 0,-35.9075 c -0.0562,-1.4125 -0.23875,-2.85875 -1.40125,-4.035 -1.2225,-1.14625 -2.54,-0.8575 -4.04875,-1.325 -0.28,-0.15125 -0.45375,-0.53 -0.4975,-0.91125 0.0437,-0.52 0.4,-0.9375 0.83,-0.90125 -0.005,-0.0362 9.3525,0.8025 12.88,0.3175 10.095,-1.30375 19.29375,0.235 21.12375,10.075 1.21,6.5025 -3.47875,10.5375 -8.0825,12.3025 L 303.69227,320.46086 z m -11.72875,1.8175 c -0.37625,0.0263 -0.8475,0.465 -0.82625,0.8225 l 0,17 c -0.0213,2.6975 2.27375,4.92125 5.1175,4.95875 4.65625,0 8.54625,-3.0125 9.49625,-6.85625 0.47625,-1.51 1.04125,-4.35875 0.33125,-8.25125 -0.6925,-3.8775 -4.87625,-7.6475 -9.91,-7.67375 L 291.96357,322.27836 z m -0.17125,-2.73125 c -0.2775,0.035 -0.665,-0.3475 -0.655,-0.65625 l 0,-14.37 c -0.01,-2.34875 1.87875,-4.03875 4.21,-4.04625 3.7325,0.2375 7.0175,2.5925 7.7625,5.87125 0.4175,1.2625 0.8575,4.0825 0.24875,7.3425 -0.5375,3.345 -3.96625,5.89375 -8.0875,5.85875 L 291.79232,319.54711 z m 60.6825,28.2375 c -7.48875,-9.08625 -7.9425,-11.37875 -14.94375,-22.95 -0.9275,-1.4475 -2.74625,-1.6925 -4.12125,-1.815 -0.365,-0.01 -0.63375,0.27875 -0.6725,0.65625 l 0,17.17 c 0.0838,1.46 0.2575,2.9075 1.48875,4.04875 1.15875,1.1775 2.4725,0.8825 4.04375,1.32125 0.22125,0.18375 0.3925,0.56125 0.4125,0.9075 -0.02,0.5575 -0.37125,0.97875 -0.82375,0.99 0.02,-0.0112 -5.08,-0.46625 -9.16375,-0.4975 -4.0575,0.0312 -9.1075,0.48625 -9.07125,0.4975 -0.46875,-0.0112 -0.825,-0.4325 -0.83,-0.99 0.005,-0.34625 0.1775,-0.72375 0.4125,-0.9075 1.55875,-0.43875 2.87125,-0.14375 4.0475,-1.32125 1.2125,-1.14125 1.39375,-2.58875 1.3975,-4.04875 l 0,-35.9075 c -0.0225,-1.4125 -0.20625,-2.85875 -1.3975,-4.035 -1.20375,-1.14625 -2.5025,-0.8575 -4.0475,-1.325 -0.255,-0.15125 -0.4225,-0.53 -0.4125,-0.91125 -0.01,-0.52 0.33875,-0.9375 0.74625,-0.90125 0.0275,-0.0362 9.37875,0.8025 12.87,0.3175 10.12625,-1.30375 21.29,0.73625 22.45375,10.825 0.86125,7.9 -6.39875,11.54375 -11.06125,12.70375 0.54,0.27 2.6125,2.52625 3.88125,4.4625 4.72875,7.4375 7.7775,13.93875 13.12125,18.1575 0.8275,0.53125 3.82,2.0325 5.53,0.6625 1.3475,-0.99875 1.40125,-2.58875 1.48125,-4.04875 l -0.08,-35.9075 c -0.0175,-1.4125 -0.19875,-2.86375 -1.40125,-4.035 -1.1875,-1.14625 -2.48875,-0.8575 -4.03875,-1.325 -0.25,-0.15125 -0.4175,-0.53 -0.4175,-0.91125 0,-0.52 0.3475,-0.9375 0.745,-0.90125 0.0312,-0.0362 5.11125,0.4225 9.1575,0.49 4.09375,-0.0675 9.26,-0.52625 9.24875,-0.49 0.11625,-0.0163 0.225,0.0238 0.32,0.0625 -0.055,0.315 -0.35,1.6825 -0.36625,1.84375 -1.34875,0.3325 -2.535,0.19 -3.58125,1.23125 -1.2475,1.17125 -1.42375,2.6225 -1.4875,4.035 l 0,35.9075 c 0.0687,1.46 0.2525,2.9075 1.4875,4.04875 1.14375,1.1775 2.46125,0.8825 3.965,1.32125 0.28875,0.18375 0.45625,0.56125 0.48625,0.9075 -0.03,0.5575 -0.37875,0.97875 -0.82375,0.99 0.0113,-0.0112 -5.15875,-0.46625 -9.24875,-0.4975 -4.04625,0.0312 -9.09875,0.4775 -9.07625,0.4975 -1.7275,-0.2275 -2.68375,-0.515 -4.375,-0.58 -1.9475,0 -4.795,0.51875 -4.95125,0.495 -0.4625,0.0525 -0.81625,-0.0875 -0.90375,-0.24375 m -18.9888,-26.6675 c -0.3375,-0.015 -0.7375,-0.43125 -0.74875,-0.825 l 0,-15.44375 c 0.0112,-2.51375 1.96125,-4.35625 4.3775,-4.37375 3.85625,0.2625 7.25125,2.81625 8.0875,6.3675 0.36875,1.3525 0.86375,3.5475 0.24625,7.0925 -0.56375,3.57375 -4.055,6.8825 -8.41,7.1825 L 333.48602,321.11711 z m 80.815,24.77375 c 1.83375,-0.24375 3.5925,-2.1475 5.2825,-6.03625 l 15.84625,-42.175 3.88125,0 16.9175,42.175 c 0.89625,1.9675 1.43625,3.1225 2.31875,5.04 1.19625,1.1775 2.50625,0.8825 4.04125,1.32125 0.26,0.18375 0.42625,0.56125 0.40875,0.9075 0.0175,0.5575 -0.3325,0.97875 -0.7425,0.99 -0.02,-0.0112 -5.1875,-0.46625 -9.24625,-0.4975 -4.0825,0.0312 -9.13125,0.48625 -9.1625,0.4975 -0.40875,-0.0112 -0.755,-0.4325 -0.7425,-0.99 -0.0125,-0.34625 0.15875,-0.72375 0.41125,-0.9075 0.9025,-0.24375 1.8025,-0.25875 2.56125,-0.42 1.265,-0.42625 2.18375,-1.6125 2.145,-2.97 0.0387,-0.39125 -0.0325,-0.735 -0.16,-1.0675 l -5.19625,-13.0475 c -0.0838,-0.19125 -0.30375,-0.3325 -0.58125,-0.3325 l -14.11375,0 c -0.23125,0 -0.495,0.0888 -0.58375,0.3325 l -4.6175,12.2175 c 0.005,0.0163 -0.23125,0.86375 -0.25125,1.1575 -0.02,0.6375 0.0788,1.5025 0.4175,1.97625 0.14125,0.305 0.3575,0.5975 0.65125,0.8325 1.17625,1.1775 2.4875,0.8825 4.05,1.32125 0.23,0.18375 0.40125,0.56125 0.41375,0.9075 -0.0125,0.5575 -0.365,0.97875 -0.825,0.99 0.0288,-0.0112 -3.6775,-0.35375 -7.27125,-0.4975 -3.585,0.1525 -7.2175,0.48625 -7.1725,0.4975 -0.47625,-0.0112 -0.82875,-0.4325 -0.82875,-0.99 0,-0.34625 0.17375,-0.72375 0.4125,-0.9075 0.63125,-0.1525 1.22,-0.22625 1.73625,-0.325 0.0175,0.0163 -1.365,0.19 -1.365,0.1725 0,0 0.34,-0.0438 1.365,-0.1725 m 20.72,-36.7375 6.1025,15.26625 c 0.0188,0.08 0,0.11125 0,0.16875 0,0.3425 -0.25625,0.60375 -0.58125,0.5775 l -10.81,0 c -0.27625,0.0263 -0.5325,-0.235 -0.4925,-0.5775 -0.04,-0.055 -0.0213,-0.12875 0,-0.16875 L 435.02102,309.15336 z m 8.85625,-9.61375 c 0,-1.29375 1.04625,-2.33375 2.32125,-2.3425 1.2975,0.009 2.3425,1.04875 2.3425,2.3425 0,1.285 -1.045,2.32375 -2.3425,2.32375 -1.275,0 -2.32125,-1.03875 -2.32125,-2.32375 m 0.3625,0 c -0.01,-1.08875 0.88,-1.975 1.99125,-1.9825 1.07125,0.007 1.97,0.89375 1.9575,1.9825 0.0125,1.09875 -0.88625,1.98625 -1.9575,1.99625 -1.11125,-0.01 -2.00125,-0.8975 -1.99125,-1.99625 m 2.3925,0.10875 c 0.345,-0.045 0.585,-0.33875 0.575,-0.72625 0.01,-0.2225 -0.10875,-0.4475 -0.3175,-0.5725 -0.2025,-0.10875 -0.43875,-0.10875 -0.65875,-0.10375 l -0.79875,0 0,2.4975 0.33,0 0,-1.0525 0.54,0 0.73125,1.0525 0.39375,0 L 446.63227,299.64836 z m -0.87,-1.1575 0.46875,0 c 0.325,0.02 0.6925,0.0738 0.6925,0.47125 0,0.39625 -0.3375,0.45375 -0.6525,0.48 l -0.50875,0 L 445.76227,298.49086 Z"
         id="path3310"
         style="fill:#ffffff;fill-opacity:1;fill-rule:evenodd;stroke:none" />
      <path
         d="m 262.66552,302.62836 c -0.0337,-2.735 2.1875,-4.94875 4.95125,-4.94875 2.715,0 4.95,2.21375 4.9525,4.94875 -0.002,2.75625 -2.2375,4.98 -4.9525,4.9525 -2.76375,0.0275 -4.985,-2.19625 -4.95125,-4.9525"
         id="path3314"
         style="fill:#00aeef;fill-opacity:1;fill-rule:nonzero;stroke:none" />
      <path
         d="m 262.66552,312.78148 c -0.0337,-2.7275 2.1875,-4.955 4.95125,-4.95125 2.715,-0.004 4.95,2.22375 4.9525,4.95125 -0.002,2.75625 -2.2375,4.9725 -4.9525,4.9525 -2.76375,0.02 -4.985,-2.19625 -4.95125,-4.9525"
         id="path3318"
         style="fill:#00b9f1;fill-opacity:1;fill-rule:nonzero;stroke:none" />
      <path
         d="m 262.66552,322.93574 c -0.0337,-2.745 2.1875,-4.96125 4.95125,-4.95625 2.715,-0.005 4.95,2.21125 4.9525,4.95625 -0.002,2.74 -2.2375,4.96625 -4.9525,4.94625 -2.76375,0.02 -4.985,-2.20625 -4.95125,-4.94625"
         id="path3322"
         style="fill:#c7eafb;fill-opacity:1;fill-rule:nonzero;stroke:none" />
      <path
         d="m 262.66552,333.08898 c -0.0337,-2.74875 2.1875,-4.97125 4.95125,-4.9525 2.715,-0.0188 4.95,2.20375 4.9525,4.9525 -0.002,2.7375 -2.2375,4.96625 -4.9525,4.95125 -2.76375,0.015 -4.985,-2.21375 -4.95125,-4.95125"
         id="path3326"
         style="fill:#c7eafb;fill-opacity:1;fill-rule:nonzero;stroke:none" />
      <path
         d="m 262.66552,343.24323 c -0.0337,-2.755 2.1875,-4.975 4.95125,-4.9475 2.715,-0.0275 4.95,2.1925 4.9525,4.9475 -0.002,2.72875 -2.2375,4.9525 -4.9525,4.9525 -2.76375,0 -4.985,-2.22375 -4.95125,-4.9525"
         id="path3330"
         style="fill:#c7eafb;fill-opacity:1;fill-rule:nonzero;stroke:none" />
      <path
         d="m 252.42803,302.62836 c 0.03,-2.735 2.24875,-4.94875 5.03125,-4.94875 2.70625,0 4.92625,2.21375 4.95625,4.94875 -0.03,2.75625 -2.25,4.98 -4.95625,4.9525 -2.7825,0.0275 -5.00125,-2.19625 -5.03125,-4.9525"
         id="path3334"
         style="fill:#00aeef;fill-opacity:1;fill-rule:nonzero;stroke:none" />
      <path
         d="m 252.42803,312.78148 c 0.03,-2.7275 2.24875,-4.955 5.03125,-4.95125 2.70625,-0.004 4.92625,2.22375 4.95625,4.95125 -0.03,2.75625 -2.25,4.9725 -4.95625,4.9525 -2.7825,0.02 -5.00125,-2.19625 -5.03125,-4.9525"
         id="path3338"
         style="fill:#00b9f1;fill-opacity:1;fill-rule:nonzero;stroke:none" />
      <path
         d="m 252.42803,322.93574 c 0.03,-2.745 2.24875,-4.96125 5.03125,-4.95625 2.70625,-0.005 4.92625,2.21125 4.95625,4.95625 -0.03,2.74 -2.25,4.96625 -4.95625,4.94625 -2.7825,0.02 -5.00125,-2.20625 -5.03125,-4.94625"
         id="path3342"
         style="fill:#44c8f5;fill-opacity:1;fill-rule:nonzero;stroke:none" />
      <path
         d="m 252.42803,333.08898 c 0.03,-2.74875 2.24875,-4.97125 5.03125,-4.9525 2.70625,-0.0188 4.92625,2.20375 4.95625,4.9525 -0.03,2.7375 -2.25,4.96625 -4.95625,4.95125 -2.7825,0.015 -5.00125,-2.21375 -5.03125,-4.95125"
         id="path3346"
         style="fill:#c7eafb;fill-opacity:1;fill-rule:nonzero;stroke:none" />
      <path
         d="m 252.42803,343.24323 c 0.03,-2.755 2.24875,-4.975 5.03125,-4.9475 2.70625,-0.0275 4.92625,2.1925 4.95625,4.9475 -0.03,2.72875 -2.25,4.9525 -4.95625,4.9525 -2.7825,0 -5.00125,-2.22375 -5.03125,-4.9525"
         id="path3350"
         style="fill:#c7eafb;fill-opacity:1;fill-rule:nonzero;stroke:none" />
      <path
         d="m 242.2749,302.62836 c 0,-2.735 2.23125,-4.94875 4.9525,-4.94875 2.75875,0 4.9825,2.21375 4.945,4.94875 0.0375,2.75625 -2.18625,4.98 -4.945,4.9525 -2.72125,0.0275 -4.9525,-2.19625 -4.9525,-4.9525"
         id="path3354"
         style="fill:#00aeef;fill-opacity:1;fill-rule:nonzero;stroke:none" />
      <path
         d="m 242.2749,312.78148 c 0,-2.7275 2.23125,-4.955 4.9525,-4.95125 2.75875,-0.004 4.9825,2.22375 4.945,4.95125 0.0375,2.75625 -2.18625,4.9725 -4.945,4.9525 -2.72125,0.02 -4.9525,-2.19625 -4.9525,-4.9525"
         id="path3358"
         style="fill:#00b9f1;fill-opacity:1;fill-rule:nonzero;stroke:none" />
      <path
         d="m 242.2749,322.93574 c 0,-2.745 2.23125,-4.96125 4.9525,-4.95625 2.75875,-0.005 4.9825,2.21125 4.945,4.95625 0.0375,2.74 -2.18625,4.96625 -4.945,4.94625 -2.72125,0.02 -4.9525,-2.20625 -4.9525,-4.94625"
         id="path3362"
         style="fill:#44c8f5;fill-opacity:1;fill-rule:nonzero;stroke:none" />
      <path
         d="m 242.2749,333.08898 c 0,-2.74875 2.23125,-4.97125 4.9525,-4.9525 2.75875,-0.0188 4.9825,2.20375 4.945,4.9525 0.0375,2.7375 -2.18625,4.96625 -4.945,4.95125 -2.72125,0.015 -4.9525,-2.21375 -4.9525,-4.95125"
         id="path3366"
         style="fill:#8ed8f8;fill-opacity:1;fill-rule:nonzero;stroke:none" />
      <path
         d="m 242.2749,343.24323 c 0,-2.755 2.23125,-4.975 4.9525,-4.9475 2.75875,-0.0275 4.9825,2.1925 4.945,4.9475 0.0375,2.72875 -2.18625,4.9525 -4.945,4.9525 -2.72125,0 -4.9525,-2.22375 -4.9525,-4.9525"
         id="path3370"
         style="fill:#c7eafb;fill-opacity:1;fill-rule:nonzero;stroke:none" />
      <path
         d="m 232.12065,302.62836 c -0.0138,-2.735 2.2075,-4.94875 4.95125,-4.94875 2.74625,0 4.965,2.21375 4.95375,4.94875 0.0112,2.75625 -2.2075,4.98 -4.95375,4.9525 -2.74375,0.0275 -4.965,-2.19625 -4.95125,-4.9525"
         id="path3374"
         style="fill:#00aeef;fill-opacity:1;fill-rule:nonzero;stroke:none" />
      <path
         d="m 232.12065,312.78148 c -0.0138,-2.7275 2.2075,-4.955 4.95125,-4.95125 2.74625,-0.004 4.965,2.22375 4.95375,4.95125 0.0112,2.75625 -2.2075,4.9725 -4.95375,4.9525 -2.74375,0.02 -4.965,-2.19625 -4.95125,-4.9525"
         id="path3378"
         style="fill:#00b9f1;fill-opacity:1;fill-rule:nonzero;stroke:none" />
      <path
         d="m 232.12065,322.93574 c -0.0138,-2.745 2.2075,-4.96125 4.95125,-4.95625 2.74625,-0.005 4.965,2.21125 4.95375,4.95625 0.0112,2.74 -2.2075,4.96625 -4.95375,4.94625 -2.74375,0.02 -4.965,-2.20625 -4.95125,-4.94625"
         id="path3382"
         style="fill:#44c8f5;fill-opacity:1;fill-rule:nonzero;stroke:none" />
      <path
         d="m 232.12065,333.08898 c -0.0138,-2.74875 2.2075,-4.97125 4.95125,-4.9525 2.74625,-0.0188 4.965,2.20375 4.95375,4.9525 0.0112,2.7375 -2.2075,4.96625 -4.95375,4.95125 -2.74375,0.015 -4.965,-2.21375 -4.95125,-4.95125"
         id="path3386"
         style="fill:#c7eafb;fill-opacity:1;fill-rule:nonzero;stroke:none" />
      <path
         d="m 232.12065,343.24323 c -0.0138,-2.755 2.2075,-4.975 4.95125,-4.9475 2.74625,-0.0275 4.965,2.1925 4.95375,4.9475 0.0112,2.72875 -2.2075,4.9525 -4.95375,4.9525 -2.74375,0 -4.965,-2.22375 -4.95125,-4.9525"
         id="path3390"
         style="fill:#c7eafb;fill-opacity:1;fill-rule:nonzero;stroke:none" />
      <path
         d="m 221.96865,302.62836 c -0.0412,-2.735 2.19,-4.94875 4.9525,-4.94875 2.725,0 4.94375,2.21375 4.95125,4.94875 -0.007,2.75625 -2.22625,4.98 -4.95125,4.9525 -2.7625,0.0275 -4.99375,-2.19625 -4.9525,-4.9525"
         id="path3394"
         style="fill:#00aeef;fill-opacity:1;fill-rule:nonzero;stroke:none" />
      <path
         d="m 221.96865,312.78148 c -0.0412,-2.7275 2.19,-4.955 4.9525,-4.95125 2.725,-0.004 4.94375,2.22375 4.95125,4.95125 -0.007,2.75625 -2.22625,4.9725 -4.95125,4.9525 -2.7625,0.02 -4.99375,-2.19625 -4.9525,-4.9525"
         id="path3398"
         style="fill:#00b9f1;fill-opacity:1;fill-rule:nonzero;stroke:none" />
      <path
         d="m 221.96865,322.93574 c -0.0412,-2.745 2.19,-4.96125 4.9525,-4.95625 2.725,-0.005 4.94375,2.21125 4.95125,4.95625 -0.007,2.74 -2.22625,4.96625 -4.95125,4.94625 -2.7625,0.02 -4.99375,-2.20625 -4.9525,-4.94625"
         id="path3402"
         style="fill:#c7eafb;fill-opacity:1;fill-rule:nonzero;stroke:none" />
      <path
         d="m 221.96865,333.08898 c -0.0412,-2.74875 2.19,-4.97125 4.9525,-4.9525 2.725,-0.0188 4.94375,2.20375 4.95125,4.9525 -0.007,2.7375 -2.22625,4.96625 -4.95125,4.95125 -2.7625,0.015 -4.99375,-2.21375 -4.9525,-4.95125"
         id="path3406"
         style="fill:#c7eafb;fill-opacity:1;fill-rule:nonzero;stroke:none" />
      <path
         d="m 221.96865,343.24323 c -0.0412,-2.755 2.19,-4.975 4.9525,-4.9475 2.725,-0.0275 4.94375,2.1925 4.95125,4.9475 -0.007,2.72875 -2.22625,4.9525 -4.95125,4.9525 -2.7625,0 -4.99375,-2.22375 -4.9525,-4.9525"
         id="path3410"
         style="fill:#c7eafb;fill-opacity:1;fill-rule:nonzero;stroke:none" />
    </g>
  </g>
</svg>
