<?xml version="1.0" encoding="utf-8"?>
<!DOCTYPE svg PUBLIC "-//W3C//DTD SVG 1.1//EN" "http://www.w3.org/Graphics/SVG/1.1/DTD/svg11.dtd">
<svg version="1.1" id="Layer_1" xmlns="http://www.w3.org/2000/svg" width="500px" height="144.926px">
<path fill="#EB2227" d="M240.158,0.686c1.423,0,2.767,1.151,2.35,3.176l-28.861,136.932c-0.344,1.72-1.114,2.524-3.002,2.524h-26.912c-1.224,0-2.677-1.075-2.268-2.943L210.299,2.983c0.331-1.453,1.091-2.298,2.533-2.298L240.158,0.686 M141.348,131.646c-4.601,5.896-14.263,13.278-27.564,13.278c-12.646,0-26.332-11.784-26.332-30.913c0-40.785,29.836-74.57,66.235-74.57c16.058,0,34.602,3.407,31.852,15.688c-4.688,21.234-15.399,62.401-15.399,85.433c0,2.182-1.543,2.756-2.847,2.756h-22.664c-2.27,0-2.916-1.03-2.935-2.868c0-1.3,0.217-4.978,0.738-8.646C142.57,130.729,141.774,130.997,141.348,131.646 M120.016,98.589c-1.543,7.697-2.234,20.086,6.546,20.086c10.004,0,17.129-16.559,18.866-23.18c3.469-13.429,7.617-31.031,7.617-31.031c0.245-1.068,0.336-1.263-1.037-1.528C136.605,59.834,123.188,83.173,120.016,98.589 M64.084,116.111c-13.245,0.427-27.387-7.727-27.861-27.961c-0.844-38.796,25.646-58.809,50.373-58.809c8.323,0,13.938,1.797,13.938,1.797c1.577,0.538,2.496-0.038,2.782-0.957l8.246-22.761c0.493-1.341-0.108-2.679-1.026-3.176c0,0-12.441-7.461-40.858-2.604C52.167,4.665,0,25.633,0,90.212c0,27.163,17.557,48.781,43.355,53.106c12.873,2.184,27.719,0.801,33.963-0.992c2.683-0.771,3.512-1.113,3.614-3.678c0.024-0.649,0.916-21.961,0.916-21.961c0.077-1.449-0.835-3.633-3.768-2.525C78.08,114.162,72.601,115.852,64.084,116.111 M256.797,2.64c0.213-1.072,1.078-1.954,2.541-1.954h27.198c1.209,0,2.536,1.263,2.089,3.139l-9.707,43.386c-0.245,0.882,0.077,1.226,0.777,0.497c0.934-1.11,8.4-8.224,20.363-8.224c12.28,0,24.304,8.224,24.304,30.951c0,33.856-20.507,74.491-62.294,74.491c-38.006,0-28.975-31.563-26.963-41.017L256.797,2.64 M290.633,87.881c1.844-7.958,3.693-23.069-4.355-23.069c-9.754,0-13.985,14.879-16.389,23.45c-0.42,1.532-2.256,8.033-3.701,15.109c-1.668,8.311-3.023,17.217,3.69,17.217C279.129,120.588,286.438,105.896,290.633,87.881 M395.341,115.926c1.493-0.688,3.433-0.419,3.728,1.606l1.697,18.479c0.157,1.226,0,2.331-1.836,3.056c0,0-12.484,5.396-29.035,5.396c-11.291,0-18.245-0.956-26.659-6.193c-8.555-5.358-14.779-15.806-14.779-32.483c0-30.265,18.904-66.19,52.885-66.19c28.485,0,32.101,22.384,32.101,29.117c0,8.453-1.989,38.029-53.644,38.029c0,0-0.643,13.734,15.407,13.734C386.396,120.477,395.341,115.926,395.341,115.926 M387.395,70.128c0-3.598-3.698-8.186-10.569-6.352c-13.467,3.52-15.255,22.498-15.255,22.498C378.384,85.587,387.395,80.191,387.395,70.128 M481.94,115.926c1.451-0.688,3.401-0.419,3.692,1.606l1.741,18.479c0.129,1.226,0,2.331-1.879,3.056c0,0-12.446,5.396-29.009,5.396c-11.271,0-18.242-0.956-26.666-6.193c-8.563-5.358-14.788-15.806-14.788-32.483c0-30.265,18.938-66.19,52.891-66.19c28.465,0,32.076,22.384,32.076,29.117c0,8.453-1.99,38.029-53.574,38.029c0,0-0.701,13.734,15.357,13.734C472.962,120.477,481.94,115.926,481.94,115.926 M473.96,70.128c0-3.598-3.681-8.186-10.544-6.352c-13.493,3.52-15.224,22.498-15.224,22.498C464.965,85.587,473.96,80.191,473.96,70.128"/>
</svg>
