<?xml version="1.0" encoding="UTF-8" standalone="no"?>
<!-- Created with Inkscape (http://www.inkscape.org/) -->

<svg
   version="1.0"
   width="123.96875"
   height="35.990002"
   id="svg2"
   xml:space="preserve"
   xmlns="http://www.w3.org/2000/svg"
   xmlns:svg="http://www.w3.org/2000/svg"><defs
     id="defs5"><clipPath
       id="clipPath19"><path
         d="M 31.291,504.168 H 642.713 V 435.602 H 31.291 Z"
         id="path21" /></clipPath><clipPath
       id="clipPath25"><path
         d="M -1155.385,877 H 1171.859 V 35.11 h -2327.244 z"
         id="path27" /></clipPath><clipPath
       id="clipPath31"><path
         d="M 0.015,914 H 667 V 0 H 0.015 Z"
         id="path33" /></clipPath><clipPath
       id="clipPath105"><path
         d="m 293.885,455.755 h 99.261 v 38.929 h -99.261 z"
         id="path107" /></clipPath></defs><g
     transform="matrix(1.25,0,0,-1.25,-369.70789,605.42968)"
     id="g11"><g
   id="g15" /><path
   d="m 295.76631,484.34374 h 99.175 v -28.792 h -99.175 z"
   id="path43"
   style="fill:#0d1b3c;fill-opacity:1;fill-rule:nonzero;stroke:none" /><path
   d="m 295.76631,456.37574 h 99.175 v 1.45 h -99.175 z"
   id="path45"
   style="fill:#b09246;fill-opacity:1;fill-rule:nonzero;stroke:none" /><path
   d="m 295.76631,482.07074 h 99.175 v 1.441 h -99.175 z"
   id="path47"
   style="fill:#b09246;fill-opacity:1;fill-rule:nonzero;stroke:none" /><path
   d="m 313.92131,465.47174 h -3.888 l -0.058,-0.478 c -0.021,-0.16 -0.232,-1.559 -1.521,-1.559 -1.203,0 -1.812,1.995 -1.812,5.93 0,4.093 0.627,6.082 1.918,6.082 1.337,0 1.541,-0.891 1.765,-2.342 l 0.105,-0.675 h 3.204 l -0.101,6.413 -1.673,0.079 -0.183,-0.195 c -0.007,-0.006 -0.172,-0.177 -0.548,-0.237 -0.311,-0.05 -0.489,0.036 -0.677,0.127 l -0.209,0.09 -0.069,0.028 c -0.281,0.108 -0.864,0.335 -1.996,0.335 -0.992,0 -5.937,-0.463 -5.937,-9.619 0,-8.205 3.414,-9.928 6.276,-9.928 3.413,0 5.292,2.71 5.384,5.387 l 0.02,0.562"
   id="path51"
   style="fill:#000000;fill-opacity:1;fill-rule:nonzero;stroke:none" /><path
   d="m 327.34431,463.55174 c -0.333,0.966 -3.079,11.405 -3.109,11.515 -0.006,0.019 -0.237,0.872 0.274,1.179 l 0.356,0.213 -0.56,1.963 h -6.603 l -0.565,-1.984 0.384,-0.205 c 0.498,-0.268 0.257,-1.147 0.254,-1.155 -0.032,-0.121 -2.852,-10.63 -3.142,-11.613 -0.254,-0.862 -0.792,-0.876 -1.048,-0.862 l 0.44,-2.273 h 4.888 l 0.565,1.981 -0.406,0.219 c -0.043,0.023 -0.226,0.141 -0.226,0.489 0,0.076 0.01,0.165 0.031,0.267 0,0 0.368,1.627 0.504,2.223 0.613,0 2.634,0 3.248,0 0.134,-0.596 0.502,-2.223 0.502,-2.223 0.021,-0.102 0.03,-0.191 0.03,-0.267 0,-0.348 -0.181,-0.466 -0.225,-0.489 l -0.385,-0.208 0.1,-0.429 0.445,-1.563 h 4.887 l 0.464,2.203 c -0.226,0.028 -0.778,0.07 -1.103,1.019 z m -7.144,5.55 c 0.148,0.645 0.436,1.896 0.804,3.506 0.369,-1.61 0.655,-2.861 0.802,-3.506 -0.567,0 -1.037,0 -1.606,0"
   id="path53"
   style="fill:#000000;fill-opacity:1;fill-rule:nonzero;stroke:none" /><path
   d="m 387.95831,463.92974 v 11.022 l -0.008,0.051 c -0.025,0.158 -0.123,0.958 0.687,1.16 l 0.54,0.135 -0.602,2.145 h -5.279 l -0.604,-2.145 0.545,-0.135 c 0.807,-0.202 0.708,-1.002 0.684,-1.16 l -0.006,-0.046 -0.002,-0.052 v -10.975 c 0,-1.11 -0.447,-1.341 -0.45,-1.345 l -0.407,-0.2 0.088,-0.45 0.455,-1.584 h 4.67 l 0.58,2.018 -0.443,0.216 c -0.002,0.004 -0.448,0.235 -0.448,1.345"
   id="path55"
   style="fill:#000000;fill-opacity:1;fill-rule:nonzero;stroke:none" /><path
   d="m 343.94231,476.16274 0.543,0.135 -0.604,2.145 h -4.87 c 0,0 -1.903,-3.587 -2.573,-4.845 -0.666,1.258 -2.57,4.845 -2.57,4.845 h -4.872 l -0.602,-2.145 0.543,-0.135 c 0.836,-0.21 0.798,-1.034 0.781,-1.197 l -0.003,-0.028 v -11.008 c 0,-1.107 -0.539,-1.322 -0.562,-1.33 l -0.469,-0.177 0.117,-0.488 0.452,-1.584 h 4.805 l 0.577,2.021 -0.442,0.215 c -0.004,0.002 -0.452,0.233 -0.452,1.343 0,0 0,4.523 0,6.935 0.957,-1.634 2.697,-4.606 2.697,-4.606 0,0 1.741,2.972 2.699,4.605 0,-2.411 0,-6.934 0,-6.934 0,-1.11 -0.447,-1.341 -0.453,-1.343 l -0.406,-0.202 0.09,-0.45 0.453,-1.584 h 4.803 l 0.592,2.064 -0.489,0.185 c -0.022,0.008 -0.562,0.223 -0.562,1.33 v 11.004 l -0.004,0.032 c -0.015,0.163 -0.058,0.987 0.781,1.197"
   id="path57"
   style="fill:#000000;fill-opacity:1;fill-rule:nonzero;stroke:none" /><path
   d="m 349.85131,463.92974 c 0,0 0,2.585 0,3.393 0.324,0 0.658,0 0.658,0 4.194,0 6.228,1.814 6.228,5.55 0,3.474 -2.33,5.549 -6.228,5.549 h 10e-4 l -5.403,0.023 -0.114,-0.398 -0.487,-1.749 0.539,-0.135 c 0.841,-0.21 0.801,-1.034 0.781,-1.197 l -10e-4,-0.028 v -11.008 c 0,-1.107 -0.536,-1.322 -0.563,-1.33 l -0.469,-0.177 0.115,-0.488 0.457,-1.584 h 4.805 l 0.574,2.021 -0.443,0.215 c -0.003,0.002 -0.45,0.233 -0.45,1.343 z m 0,10.774 c 0.139,0 0.303,0 0.303,0 1.047,0 2.299,-0.32 2.299,-1.835 0,-1.304 -0.667,-1.836 -2.299,-1.836 0,0 -0.164,0 -0.303,0 0,0.743 0,2.927 0,3.671"
   id="path59"
   style="fill:#000000;fill-opacity:1;fill-rule:nonzero;stroke:none" /><path
   d="m 381.08231,464.00174 c 0,0 -1.4,3.612 -1.688,4.357 1.528,0.849 2.306,2.403 2.306,4.641 0,3.396 -2.247,5.422 -6.003,5.422 l -5.704,0.023 -0.117,-0.398 -0.49,-1.749 0.544,-0.135 c 0.838,-0.21 0.797,-1.034 0.779,-1.197 l -0.001,-0.028 v -11.008 c 0,-1.107 -0.539,-1.322 -0.561,-1.33 l -0.47,-0.177 0.115,-0.488 0.454,-1.584 h 4.806 l 0.576,2.021 -0.443,0.215 c -0.005,0.002 -0.453,0.233 -0.453,1.343 0,0 0,2.826 0,3.649 0.2,0 0.248,0 0.411,0 0.25,-0.607 3.007,-7.228 3.007,-7.228 h 4.368 l 0.448,1.994 -0.546,0.123 c -0.033,0.006 -0.816,0.198 -1.338,1.534 z m -5.725,7.221 c 0,0 -0.314,0 -0.625,0 0,0.734 0,2.813 0,3.546 0.311,0 0.625,0 0.625,0 0.995,0 2.186,-0.307 2.186,-1.771 0,-1.278 -0.614,-1.775 -2.186,-1.775"
   id="path61"
   style="fill:#000000;fill-opacity:1;fill-rule:nonzero;stroke:none" /><path
   d="m 368.52931,463.55174 c -0.331,0.966 -3.08,11.405 -3.105,11.515 -0.008,0.019 -0.24,0.872 0.272,1.179 l 0.355,0.213 -0.56,1.963 h -6.602 l -0.564,-1.984 0.383,-0.205 c 0.499,-0.268 0.256,-1.147 0.253,-1.155 -0.03,-0.121 -2.852,-10.63 -3.14,-11.613 -0.256,-0.862 -0.792,-0.876 -1.048,-0.862 l 0.438,-2.273 h 4.885 l 0.569,1.981 -0.408,0.219 c -0.043,0.023 -0.226,0.141 -0.226,0.489 0,0.076 0.011,0.165 0.032,0.267 0,0 0.37,1.627 0.504,2.223 0.614,0 2.634,0 3.248,0 0.133,-0.596 0.502,-2.223 0.502,-2.223 0.023,-0.102 0.031,-0.191 0.031,-0.267 0,-0.348 -0.181,-0.466 -0.226,-0.489 l -0.384,-0.208 0.101,-0.429 0.446,-1.563 h 4.886 l 0.464,2.203 c -0.228,0.028 -0.778,0.07 -1.106,1.019 z m -7.142,5.55 c 0.15,0.645 0.436,1.896 0.804,3.506 0.368,-1.61 0.656,-2.861 0.804,-3.506 -0.57,0 -1.038,0 -1.608,0"
   id="path63"
   style="fill:#000000;fill-opacity:1;fill-rule:nonzero;stroke:none" /><path
   d="m 391.05931,461.75674 c -0.052,0.262 -0.322,0.298 -0.545,0.298 h -0.498 v -1.325 h 0.249 v 0.565 h 0.248 l 0.272,-0.565 h 0.278 l -0.298,0.601 c 0.207,0.036 0.334,0.22 0.294,0.426 z m -0.584,-0.304 h -0.21 v 0.437 h 0.201 c 0.159,0 0.33,-0.016 0.345,-0.208 0.017,-0.209 -0.179,-0.229 -0.336,-0.229"
   id="path65"
   style="fill:#b09246;fill-opacity:1;fill-rule:nonzero;stroke:none" /><path
   d="m 390.48431,462.53974 c -0.637,0.016 -1.164,-0.546 -1.166,-1.17 -0.003,-0.647 0.557,-1.188 1.202,-1.166 0.642,0.022 1.155,0.561 1.13,1.206 -0.024,0.626 -0.532,1.134 -1.166,1.13 z m -0.009,-2.18 c -0.548,0.005 -1.006,0.464 -1.004,1.01 0,0.542 0.461,1.031 1.013,1.015 0.57,0.002 1.016,-0.459 1.016,-1.024 -0.005,-0.553 -0.474,-1.009 -1.025,-1.001"
   id="path67"
   style="fill:#b09246;fill-opacity:1;fill-rule:nonzero;stroke:none" /><path
   d="m 313.41131,466.20774 h -3.886 l -0.061,-0.48 c -0.021,-0.159 -0.23,-1.558 -1.52,-1.558 -1.203,0 -1.813,1.995 -1.813,5.931 0,4.092 0.628,6.079 1.92,6.079 1.335,0 1.54,-0.887 1.765,-2.339 l 0.105,-0.676 0.464,0.001 h 2.74 l -0.102,6.414 -1.671,0.077 -0.184,-0.194 c -0.007,-0.007 -0.173,-0.178 -0.549,-0.237 -0.311,-0.049 -0.49,0.036 -0.677,0.126 l -0.209,0.092 -0.07,0.027 c -0.28,0.108 -0.863,0.334 -1.994,0.334 -0.991,0 -5.937,-0.463 -5.937,-9.619 0,-8.204 3.413,-9.927 6.276,-9.927 3.412,0 5.291,2.71 5.384,5.386 l 0.019,0.563"
   id="path69"
   style="fill:#b09246;fill-opacity:1;fill-rule:nonzero;stroke:none" /><path
   d="m 326.83331,464.28774 c -0.331,0.967 -3.078,11.406 -3.107,11.515 -0.005,0.019 -0.238,0.872 0.272,1.178 l 0.358,0.214 -0.56,1.965 h -6.603 l -0.566,-1.984 0.384,-0.207 c 0.498,-0.268 0.257,-1.147 0.254,-1.154 -0.031,-0.121 -2.852,-10.631 -3.141,-11.611 -0.256,-0.865 -0.792,-0.879 -1.048,-0.865 l 0.439,-2.274 h 4.887 l 0.566,1.983 -0.406,0.218 c -0.044,0.024 -0.225,0.142 -0.225,0.488 0,0.078 0.008,0.166 0.031,0.269 0,0 0.368,1.627 0.503,2.222 0.612,0 2.634,0 3.247,0 0.136,-0.595 0.503,-2.222 0.503,-2.222 0.022,-0.103 0.032,-0.192 0.032,-0.269 0,-0.346 -0.184,-0.464 -0.227,-0.488 l -0.385,-0.208 0.1,-0.43 0.446,-1.563 h 4.886 l 0.464,2.204 c -0.227,0.028 -0.777,0.07 -1.104,1.019 z m -7.142,5.55 c 0.147,0.646 0.434,1.896 0.804,3.505 0.368,-1.609 0.655,-2.859 0.803,-3.505 -0.568,0 -1.038,0 -1.607,0"
   id="path71"
   style="fill:#b09246;fill-opacity:1;fill-rule:nonzero;stroke:none" /><path
   d="m 388.12531,476.89774 0.543,0.135 -0.602,2.147 h -5.278 l -0.602,-2.147 0.542,-0.135 c 0.805,-0.202 0.712,-1.001 0.686,-1.158 l -0.011,-0.047 v -11.025 c 0,-1.112 -0.444,-1.344 -0.449,-1.348 l -0.408,-0.199 0.092,-0.451 0.455,-1.583 h 4.667 l 0.578,2.019 -0.44,0.214 c -0.003,0.004 -0.448,0.236 -0.448,1.348 v 11.02 l -0.012,0.052 c -0.025,0.157 -0.118,0.956 0.687,1.158"
   id="path73"
   style="fill:#b09246;fill-opacity:1;fill-rule:nonzero;stroke:none" /><path
   d="m 343.43031,476.89774 0.544,0.135 -0.602,2.147 h -4.872 c 0,0 -1.902,-3.588 -2.569,-4.846 -0.669,1.258 -2.573,4.846 -2.573,4.846 h -4.871 l -0.603,-2.147 0.543,-0.135 c 0.837,-0.209 0.797,-1.033 0.78,-1.196 l -0.002,-0.028 -10e-4,-11.006 c 0,-1.109 -0.537,-1.324 -0.561,-1.334 l -0.47,-0.176 0.117,-0.488 0.453,-1.583 h 4.805 l 0.577,2.022 -0.442,0.212 c -0.004,0.003 -0.452,0.235 -0.452,1.347 0,0 0,4.521 0,6.932 0.958,-1.634 2.7,-4.605 2.7,-4.605 0,0 1.74,2.971 2.698,4.603 0,-2.409 0,-6.93 0,-6.93 0,-1.112 -0.45,-1.344 -0.454,-1.347 l -0.41,-0.198 0.095,-0.453 0.454,-1.583 h 4.801 l 0.59,2.064 -0.488,0.183 c -0.024,0.01 -0.562,0.225 -0.562,1.334 v 11.001 l -0.004,0.033 c -0.017,0.163 -0.057,0.987 0.779,1.196"
   id="path75"
   style="fill:#b09246;fill-opacity:1;fill-rule:nonzero;stroke:none" /><path
   d="m 349.34331,464.66774 c 0,0 0,2.583 0,3.391 0.324,0 0.656,0 0.656,0 4.193,0 6.23,1.814 6.23,5.548 0,3.476 -2.328,5.551 -6.23,5.551 h 0.002 l -5.403,0.023 -0.11,-0.398 -0.491,-1.75 0.541,-0.135 c 0.838,-0.209 0.796,-1.033 0.783,-1.196 l -0.006,-0.028 v -11.006 c 0,-1.109 -0.54,-1.324 -0.561,-1.334 l -0.469,-0.176 0.117,-0.488 0.452,-1.583 h 4.805 l 0.575,2.022 -0.44,0.212 c -0.006,0.003 -0.451,0.235 -0.451,1.347 z m 0,10.769 c 0.14,0 0.302,0 0.302,0 1.048,0 2.297,-0.316 2.297,-1.832 0,-1.304 -0.666,-1.836 -2.297,-1.836 0,0 -0.162,0 -0.302,0 0,0.743 0,2.928 0,3.668"
   id="path77"
   style="fill:#b09246;fill-opacity:1;fill-rule:nonzero;stroke:none" /><path
   d="m 380.57331,464.73774 c 0,0 -1.402,3.612 -1.687,4.356 1.525,0.85 2.308,2.404 2.308,4.642 0,3.395 -2.245,5.422 -6.007,5.422 l -5.709,0.023 -0.109,-0.398 -0.494,-1.75 0.548,-0.135 c 0.833,-0.209 0.795,-1.033 0.778,-1.196 l -0.004,-0.028 v -11.006 c 0,-1.109 -0.539,-1.324 -0.562,-1.334 l -0.464,-0.176 0.113,-0.488 0.453,-1.583 h 4.801 l 0.581,2.022 -0.444,0.212 c -0.004,0.003 -0.451,0.235 -0.451,1.347 0,0 0,2.823 0,3.647 0.199,0 0.246,0 0.41,0 0.252,-0.609 3.009,-7.228 3.009,-7.228 h 4.362 l 0.45,1.994 -0.541,0.122 c -0.035,0.008 -0.819,0.199 -1.341,1.535 z m -5.723,7.221 c 0,0 -0.317,0 -0.626,0 0,0.735 0,2.813 0,3.546 0.309,0 0.626,0 0.626,0 0.995,0 2.182,-0.307 2.182,-1.772 0,-1.277 -0.612,-1.774 -2.182,-1.774"
   id="path79"
   style="fill:#b09246;fill-opacity:1;fill-rule:nonzero;stroke:none" /><path
   d="m 368.02031,464.28774 c -0.333,0.967 -3.077,11.406 -3.108,11.515 -0.003,0.019 -0.237,0.872 0.272,1.178 l 0.359,0.214 -0.561,1.965 h -6.602 l -0.567,-1.984 0.387,-0.207 c 0.499,-0.268 0.255,-1.147 0.253,-1.154 -0.033,-0.121 -2.853,-10.631 -3.142,-11.611 -0.258,-0.865 -0.792,-0.879 -1.048,-0.865 l 0.44,-2.274 h 4.884 l 0.57,1.983 -0.409,0.218 c -0.044,0.024 -0.224,0.142 -0.224,0.488 0,0.078 0.007,0.166 0.028,0.269 0,0 0.368,1.627 0.504,2.222 0.614,0 2.637,0 3.248,0 0.139,-0.595 0.504,-2.222 0.504,-2.222 0.021,-0.103 0.032,-0.192 0.032,-0.269 0,-0.346 -0.184,-0.464 -0.229,-0.488 l -0.384,-0.208 0.101,-0.43 0.447,-1.563 h 4.886 l 0.464,2.204 c -0.229,0.028 -0.778,0.07 -1.105,1.019 z m -7.141,5.55 c 0.146,0.646 0.432,1.896 0.803,3.505 0.367,-1.609 0.653,-2.859 0.802,-3.505 -0.567,0 -1.038,0 -1.605,0"
   id="path81"
   style="fill:#b09246;fill-opacity:1;fill-rule:nonzero;stroke:none" /><path
   d="m 307.94431,463.62674 c -1.826,0 -2.356,2.759 -2.356,6.474 0,3.717 0.488,6.623 2.463,6.623 1.974,0 2.123,-1.676 2.334,-3.013 h 2.187 l -0.084,5.349 -0.914,0.042 c 0,0 -0.265,-0.318 -0.869,-0.413 -0.607,-0.095 -0.924,0.159 -1.158,0.244 -0.233,0.084 -0.732,0.33 -1.878,0.33 -1.148,0 -5.394,-0.712 -5.394,-9.077 0,-8.363 3.568,-9.383 5.733,-9.383 3.079,0 4.756,2.4 4.841,4.861 h -2.846 c 0,0 -0.233,-2.037 -2.059,-2.037"
   id="path83"
   style="fill:#ffffff;fill-opacity:1;fill-rule:nonzero;stroke:none" /><path
   d="m 326.41331,463.75374 c -0.329,0.998 -3.212,11.911 -3.212,11.911 0,0 -0.367,1.251 0.517,1.782 l -0.332,1.167 h -5.784 l -0.333,-1.167 c 0.901,-0.484 0.52,-1.782 0.52,-1.782 0,0 -2.884,-10.913 -3.213,-11.911 -0.328,-0.999 -0.877,-0.892 -0.877,-0.892 l 0.259,-1.253 h 4.033 l 0.334,1.169 c 0,0 -0.713,0.317 -0.488,1.358 0.058,0.278 0.291,1.301 0.599,2.653 h 4.116 c 0.309,-1.352 0.54,-2.375 0.601,-2.653 0.223,-1.041 -0.49,-1.358 -0.49,-1.358 l 0.333,-1.169 h 4.035 l 0.258,1.253 c 0,0 -0.549,-0.107 -0.876,0.892 z m -7.404,5.54 c 0.559,2.445 1.17,5.111 1.486,6.481 0.313,-1.37 0.926,-4.036 1.485,-6.481 h -2.971"
   id="path85"
   style="fill:#ffffff;fill-opacity:1;fill-rule:nonzero;stroke:none" /><path
   d="m 367.60031,463.75374 c -0.329,0.998 -3.212,11.911 -3.212,11.911 0,0 -0.367,1.251 0.516,1.782 l -0.332,1.167 h -5.782 l -0.333,-1.167 c 0.898,-0.484 0.518,-1.782 0.518,-1.782 0,0 -2.885,-10.913 -3.21,-11.911 -0.331,-0.999 -0.878,-0.892 -0.878,-0.892 l 0.259,-1.253 h 4.032 l 0.334,1.169 c 0,0 -0.71,0.317 -0.489,1.358 0.059,0.278 0.292,1.301 0.6,2.653 h 4.115 c 0.312,-1.352 0.544,-2.375 0.602,-2.653 0.223,-1.041 -0.488,-1.358 -0.488,-1.358 l 0.334,-1.169 h 4.031 l 0.26,1.253 c 0,0 -0.548,-0.107 -0.877,0.892 z m -7.406,5.54 c 0.56,2.445 1.174,5.111 1.488,6.481 0.312,-1.37 0.927,-4.036 1.485,-6.481 h -2.973"
   id="path87"
   style="fill:#ffffff;fill-opacity:1;fill-rule:nonzero;stroke:none" /><path
   d="m 386.90531,464.66774 c 0,1.57 0,10.974 0,10.974 0,0 -0.269,1.444 1.088,1.785 l -0.339,1.21 h -4.456 l -0.339,-1.21 c 1.36,-0.341 1.086,-1.785 1.086,-1.785 0,0 0,-9.404 0,-10.974 0,-1.573 -0.783,-1.848 -0.783,-1.848 l 0.337,-1.19 h 3.852 l 0.34,1.19 c 0,0 -0.786,0.275 -0.786,1.848"
   id="path89"
   style="fill:#ffffff;fill-opacity:1;fill-rule:nonzero;stroke:none" /><path
   d="m 343.30031,477.42674 -0.338,1.21 h -4.133 l -2.898,-5.464 -2.9,5.464 h -4.132 l -0.339,-1.21 c 1.358,-0.341 1.189,-1.785 1.189,-1.785 0,0 0,-9.404 0,-10.974 0,-1.573 -0.935,-1.848 -0.935,-1.848 l 0.341,-1.19 h 3.984 l 0.339,1.19 c 0,0 -0.79,0.275 -0.79,1.848 0,1.103 0,6.075 0,8.934 l 3.243,-5.532 3.242,5.532 c 0,-2.859 0,-7.831 0,-8.934 0,-1.573 -0.791,-1.848 -0.791,-1.848 l 0.34,-1.19 h 3.984 l 0.338,1.19 c 0,0 -0.932,0.275 -0.932,1.848 0,1.57 0,10.974 0,10.974 0,0 -0.172,1.444 1.188,1.785"
   id="path91"
   style="fill:#ffffff;fill-opacity:1;fill-rule:nonzero;stroke:none" /><path
   d="m 349.99931,478.61274 -4.989,0.024 -0.342,-1.21 c 1.361,-0.341 1.192,-1.785 1.192,-1.785 0,0 0,-9.404 0,-10.974 0,-1.573 -0.936,-1.848 -0.936,-1.848 l 0.338,-1.19 h 3.987 l 0.337,1.19 c 0,0 -0.787,0.275 -0.787,1.848 0,0.565 0,2.143 0,3.935 h 1.2 c 3.141,0 5.689,0.994 5.689,5.004 0,3.552 -2.548,5.006 -5.689,5.006 z m -0.354,-7.386 h -0.846 c 0,1.489 0,3.488 0,4.755 h 0.846 c 1.566,0 2.843,-0.69 2.843,-2.377 0,-1.906 -1.277,-2.378 -2.843,-2.378"
   id="path93"
   style="fill:#ffffff;fill-opacity:1;fill-rule:nonzero;stroke:none" /><path
   d="m 380.06531,464.53874 c -0.495,1.256 -1.425,3.677 -1.864,4.815 1.474,0.62 2.449,1.916 2.449,4.382 0,3.462 -2.449,4.877 -5.463,4.877 l -5.294,0.024 -0.34,-1.21 c 1.359,-0.341 1.188,-1.785 1.188,-1.785 0,0 0,-9.404 0,-10.974 0,-1.573 -0.933,-1.848 -0.933,-1.848 l 0.341,-1.19 h 3.983 l 0.339,1.19 c 0,0 -0.792,0.275 -0.792,1.848 0,0.59 0,2.296 0,4.19 h 1.316 l 3.012,-7.228 h 3.567 l 0.232,1.041 c 0,0 -1.083,0.191 -1.741,1.868 z m -5.215,6.878 h -1.171 c 0,1.824 0,3.577 0,4.632 h 1.171 c 1.502,0 2.724,-0.673 2.724,-2.316 0,-1.856 -1.222,-2.316 -2.724,-2.316"
   id="path95"
   style="fill:#ffffff;fill-opacity:1;fill-rule:nonzero;stroke:none" />
</g></svg>
