<?xml version="1.0" encoding="UTF-8" standalone="no"?>
<!-- Created with Inkscape (http://www.inkscape.org/) -->
<svg
   xmlns:dc="http://purl.org/dc/elements/1.1/"
   xmlns:cc="http://creativecommons.org/ns#"
   xmlns:rdf="http://www.w3.org/1999/02/22-rdf-syntax-ns#"
   xmlns:svg="http://www.w3.org/2000/svg"
   xmlns="http://www.w3.org/2000/svg"
   xmlns:sodipodi="http://sodipodi.sourceforge.net/DTD/sodipodi-0.dtd"
   xmlns:inkscape="http://www.inkscape.org/namespaces/inkscape"
   width="335.43454"
   height="218.21071"
   id="svg2"
   sodipodi:version="0.32"
   inkscape:version="0.46"
   version="1.0"
   sodipodi:docname="Cervecería Nacional.svg"
   inkscape:output_extension="org.inkscape.output.svg.inkscape">
  <defs
     id="defs4">
    <inkscape:perspective
       sodipodi:type="inkscape:persp3d"
       inkscape:vp_x="0 : 526.18109 : 1"
       inkscape:vp_y="0 : 1000 : 0"
       inkscape:vp_z="744.09448 : 526.18109 : 1"
       inkscape:persp3d-origin="372.04724 : 350.78739 : 1"
       id="perspective10" />
    <inkscape:perspective
       id="perspective2424"
       inkscape:persp3d-origin="372.04724 : 350.78739 : 1"
       inkscape:vp_z="744.09448 : 526.18109 : 1"
       inkscape:vp_y="0 : 1000 : 0"
       inkscape:vp_x="0 : 526.18109 : 1"
       sodipodi:type="inkscape:persp3d" />
  </defs>
  <sodipodi:namedview
     id="base"
     pagecolor="#ffffff"
     bordercolor="#666666"
     borderopacity="1.0"
     inkscape:pageopacity="0.0"
     inkscape:pageshadow="2"
     inkscape:zoom="0.49497475"
     inkscape:cx="208.628"
     inkscape:cy="372.39642"
     inkscape:document-units="px"
     inkscape:current-layer="layer1"
     showgrid="false"
     showguides="true"
     inkscape:guide-bbox="true"
     inkscape:window-width="1024"
     inkscape:window-height="712"
     inkscape:window-x="-4"
     inkscape:window-y="-4" />
  <metadata
     id="metadata7">
    <rdf:RDF>
      <cc:Work
         rdf:about="">
        <dc:format>image/svg+xml</dc:format>
        <dc:type
           rdf:resource="http://purl.org/dc/dcmitype/StillImage" />
      </cc:Work>
    </rdf:RDF>
  </metadata>
  <g
     inkscape:label="Capa 1"
     inkscape:groupmode="layer"
     id="layer1"
     transform="translate(-117.67017,-69.988829)">
    <path
       style="opacity:1;fill:#e10915;fill-opacity:1;stroke:none;stroke-width:0.76599997;stroke-linecap:round;stroke-linejoin:bevel;stroke-miterlimit:3.8636899;stroke-dasharray:none;stroke-dashoffset:0;stroke-opacity:1"
       d="M 234.12706,70.800949 C 169.86429,70.800949 117.6702,119.5072 117.67017,179.50076 C 117.67017,239.49432 169.86429,288.15022 234.12706,288.1502 C 249.07519,288.1502 263.3045,285.44344 276.43838,280.64498 L 276.43838,224.33062 C 274.04977,226.38753 271.66955,228.45809 268.98353,230.17361 C 265.43184,232.44203 261.64305,234.41954 257.65014,236.0166 C 253.65722,237.61367 249.45228,238.85273 245.10785,239.69366 C 240.76342,240.53458 236.26514,240.95292 231.6589,240.95292 C 227.05265,240.95292 222.55437,240.53458 218.20994,239.69366 C 213.86551,238.85273 209.66057,237.61367 205.66765,236.0166 C 201.67474,234.41954 197.88595,232.44203 194.33426,230.17361 C 190.78258,227.90519 187.48239,225.32189 184.46162,222.4669 C 181.44085,219.61191 178.7017,216.50512 176.30158,213.14834 C 173.90145,209.79156 171.84616,206.19319 170.15636,202.41939 C 168.46657,198.6456 167.16757,194.68832 166.27782,190.5823 C 165.38808,186.47628 164.91782,182.192 164.91782,177.83853 C 164.91782,173.48506 165.38808,169.25115 166.27782,165.14513 C 167.16757,161.03911 168.46657,157.08183 170.15636,153.30803 C 171.84616,149.53424 173.90145,145.93587 176.30158,142.57909 C 178.7017,139.22231 181.44085,136.11552 184.46162,133.26053 C 187.48239,130.40553 190.78258,127.82224 194.33426,125.55382 C 197.88595,123.2854 201.67474,121.30789 205.66765,119.71083 C 209.66057,118.11376 213.86551,116.87469 218.20994,116.03377 C 222.55437,115.19285 227.05265,114.7745 231.6589,114.7745 C 236.26514,114.7745 240.76342,115.19285 245.10785,116.03377 C 249.45228,116.87469 253.65722,118.11376 257.65014,119.71083 C 261.64305,121.30789 265.43184,123.2854 268.98353,125.55382 C 271.66955,127.26934 274.04977,129.3399 276.43838,131.39681 L 276.43838,78.356542 C 263.30332,73.5571 249.07682,70.800949 234.12706,70.800949 z"
       id="path2443" />
    <path
       style="fill:#e10915;fill-opacity:1;fill-rule:evenodd;stroke:none;stroke-width:1px;stroke-linecap:butt;stroke-linejoin:miter;stroke-opacity:1"
       d="M 453.10472,69.988829 L 453.10472,210.83026 L 287.83994,127.79081 L 287.83994,74.873506 L 404.25799,133.48959 L 404.25799,69.988829 L 453.10472,69.988829 z"
       id="path2466" />
    <path
       id="path2468"
       d="M 287.83994,288.19954 L 287.83994,147.35811 L 453.10472,230.39756 L 453.10472,283.31486 L 336.68666,224.69878 L 336.68666,288.19954 L 287.83994,288.19954 z"
       style="fill:#e10915;fill-opacity:1;fill-rule:evenodd;stroke:none;stroke-width:1px;stroke-linecap:butt;stroke-linejoin:miter;stroke-opacity:1" />
  </g>
</svg>
