<?xml version="1.0" encoding="UTF-8" standalone="no"?>
<!DOCTYPE svg PUBLIC "-//W3C//DTD SVG 1.1//EN" "http://www.w3.org/Graphics/SVG/1.1/DTD/svg11.dtd">
<svg width="100%" height="100%" viewBox="0 0 462 221" version="1.1" xmlns="http://www.w3.org/2000/svg" xmlns:xlink="http://www.w3.org/1999/xlink" xml:space="preserve" xmlns:serif="http://www.serif.com/" style="fill-rule:evenodd;clip-rule:evenodd;stroke-linejoin:round;stroke-miterlimit:2;">
    <g id="アートボード1" transform="matrix(0.946168,0,0,0.874558,-256.22,-212.285)">
        <rect x="270.797" y="242.734" width="488.146" height="252.09" style="fill:none;"/>
        <g transform="matrix(3.27715,0,0,3.54548,-655.647,-677.263)">
            <g transform="matrix(4.16667,0,0,4.16667,337.763,271.256)">
                <path d="M0,4.251C-0.961,5.376 -2.3,6.128 -3.555,6.128C-5.44,6.123 -6.561,4.332 -6.058,2.125C-5.556,-0.082 -3.621,-1.87 -1.736,-1.866C-0.649,-1.865 0.229,-1.278 0.789,-0.379L1.264,-0.655C0.648,-1.745 -0.549,-2.452 -2.077,-2.456C-4.689,-2.459 -7.27,-0.411 -7.846,2.12C-8.421,4.65 -6.772,6.705 -4.162,6.708C-2.444,6.71 -0.739,5.824 0.392,4.496L0,4.251Z" style="fill:rgb(159,159,160);fill-rule:nonzero;"/>
            </g>
            <g transform="matrix(4.16667,0,0,4.16667,420.182,271.375)">
                <path d="M0,4.254C-0.962,5.379 -2.301,6.131 -3.554,6.13C-5.439,6.128 -6.56,4.336 -6.058,2.127C-5.556,-0.079 -3.621,-1.866 -1.736,-1.863C-0.649,-1.861 0.229,-1.274 0.788,-0.375L1.264,-0.651C0.649,-1.744 -0.55,-2.45 -2.079,-2.453C-4.688,-2.458 -7.27,-0.41 -7.845,2.122C-8.422,4.652 -6.772,6.707 -4.162,6.711C-2.444,6.712 -0.739,5.826 0.391,4.498L0,4.254Z" style="fill:rgb(159,159,160);fill-rule:nonzero;"/>
            </g>
            <g transform="matrix(4.16667,0,0,4.16667,369.824,265.248)">
                <path d="M0,7.165C-0.554,7.435 -1.134,7.585 -1.695,7.584C-3.58,7.58 -4.701,5.789 -4.2,3.583C-3.696,1.375 -1.761,-0.413 0.123,-0.408C1.21,-0.408 2.088,0.179 2.646,1.079L3.122,0.801C2.508,-0.289 1.31,-0.996 -0.22,-0.997C-2.829,-1.002 -5.413,1.045 -5.989,3.575C-6.564,6.106 -4.915,8.16 -2.305,8.165C-0.656,8.167 0.979,7.352 2.109,6.113C2.222,5.989 2.295,5.741 2.295,5.741L2.735,3.826C2.781,3.6 2.532,3.575 2.532,3.575L-1.708,3.575L-1.79,3.891L0.742,3.891C0.742,3.891 0.982,3.907 0.94,4.106L0.311,6.766C0.311,6.766 0.243,7.046 0,7.165" style="fill:rgb(159,159,160);fill-rule:nonzero;"/>
            </g>
            <g transform="matrix(4.16667,0,0,4.16667,430.698,314.525)">
                <path d="M0,-2.634C-1.14,-1.737 -5.836,0.438 -14.405,-0.084C-20.482,-0.455 -21.846,-0.638 -30.209,0.339C-30.6,0.384 -30.295,0.224 -30.295,0.224C-28.627,-0.469 -22.033,-3.072 -13.597,-2.54C-5.394,-2.024 -1.569,-2.45 -0.181,-2.762C-0.181,-2.762 0.296,-2.869 0,-2.634" style="fill:rgb(230,0,19);fill-rule:nonzero;"/>
            </g>
            <g transform="matrix(4.16667,0,0,4.16667,341.643,328.927)">
                <path d="M0,-2.794C-0.405,-2.131 -2.247,-0.651 -6.312,-0.524C-9.16,-0.436 -9.98,-0.787 -13.77,0.128C-13.947,0.172 -13.826,0.047 -13.826,0.047C-13.142,-0.483 -10.384,-2.097 -6.346,-2.258C-2.358,-2.414 -0.711,-2.619 -0.104,-2.878C-0.104,-2.878 0.106,-2.966 0,-2.794" style="fill:rgb(159,159,160);fill-rule:nonzero;"/>
            </g>
        </g>
    </g>
</svg>
