<svg width="500" height="558" viewBox="0 0 500 558" fill="none" xmlns="http://www.w3.org/2000/svg">
<g clip-path="url(#clip0_1_867)">
<mask id="mask0_1_867" style="mask-type:luminance" maskUnits="userSpaceOnUse" x="0" y="0" width="500" height="558">
<path d="M500 0H0V558H500V0Z" fill="white"/>
</mask>
<g mask="url(#mask0_1_867)">
<path d="M72.1598 95.1732C68.3755 97.0206 60.7332 99.2961 49.3987 99.2961C18.012 99.2961 0 77.7027 0 50.1529C0 17.3554 22.9514 0 51.4834 0C62.5449 0 68.3893 2.11745 72.1537 4.11828L68.667 23.7323C64.4762 21.8757 60.0276 20.1848 52.3455 20.1848C38.7575 20.1848 24.3442 28.2679 24.3442 49.7907C24.3442 69.0442 35.8368 79.2279 52.459 79.2279C59.0428 79.2279 63.5113 77.9359 68.6685 75.5684L72.1598 95.1732Z" fill="#0056A2"/>
<path d="M124.277 24.3231C115.822 24.3231 107.639 28.1575 103.473 34.3165H103.217V0.34375L81.9482 7.70879V96.3425H103.217V54.9402C103.217 48.9622 107.102 42.5316 114.554 42.5316C122.527 42.5316 125.598 48.8088 125.598 57.9399V96.344H146.885V55.0031C146.885 33.8992 137.836 24.3231 124.277 24.3231Z" fill="#0056A2"/>
<path d="M178.969 68.3817C179.752 77.3594 187.196 82.1298 198.699 82.2326C205.631 82.2863 213.691 80.2701 219.06 77.1062L222.269 93.6637C214.188 97.7236 204.956 99.2965 195.559 99.2965C170.242 99.2965 156.673 84.0662 156.673 60.7328C156.673 38.162 171.264 23.5977 193.129 23.5977C215.664 23.5977 225.765 40.1935 225.765 60.9875C225.765 63.1786 225.495 66.7476 225.252 68.3817H178.969ZM204.522 53.2419C204.522 48.0281 201.979 38.9108 192.132 38.9108C183.499 38.9108 179.428 46.3449 178.823 53.2419H204.522Z" fill="#0056A2"/>
<path d="M250.765 96.3423L227.265 26.5586H250.73L263.497 75.9212H263.927L276.696 26.5586H300.17L276.671 96.3423H250.765Z" fill="#0056A2"/>
<path d="M306.2 49.5081C306.2 39.2415 305.878 32.544 305.441 26.5568H325.478L326.085 39.5285H326.624C330.13 29.2619 336.86 25.3615 343.781 24.9687C347.072 24.7769 348.852 25.0101 350.89 25.4045V45.8087C348.94 45.4266 345.071 44.9771 342.351 45.2272C334.166 45.9806 329.213 51.9355 327.823 58.7911C327.544 60.212 327.4 61.7893 327.4 63.6352V96.3406H306.208V49.5081H306.2Z" fill="#0056A2"/>
<path d="M425.634 61.4459C425.634 84.3174 411.858 99.2945 389.534 99.2945C367.205 99.2945 353.419 84.3174 353.419 61.4459C353.419 38.5713 367.205 23.5957 389.534 23.5957C411.858 23.5957 425.634 38.5728 425.634 61.4459ZM403.583 61.4459C403.583 50.0899 399.681 40.2054 389.534 40.2054C379.373 40.2054 375.49 50.0884 375.49 61.4459C375.49 72.8126 379.373 82.6817 389.534 82.6817C399.684 82.6817 403.583 72.8126 403.583 61.4459Z" fill="#0056A2"/>
<path d="M435.093 48.8064C435.093 40.0973 434.774 32.6616 434.324 26.5579H454.361L454.82 36.3211H455.249C458.024 31.7809 465.367 24.3223 476.825 24.3223C490.847 24.3223 500 33.8984 500 54.4407V96.3432H478.75V57.6475C478.75 48.6683 475.67 42.5293 467.98 42.5293C462.083 42.5293 458.421 46.6767 457.062 50.6523C456.559 52.1084 456.354 54.0862 456.354 56.084V96.3416H435.093V48.8064Z" fill="#0056A2"/>
<path d="M0.759277 281.335V114.9L250.408 198.122L0.759277 281.335Z" fill="url(#paint0_linear_1_867)"/>
<path d="M0.822266 281.347L250.408 364.559L499.98 281.347V114.92L250.408 198.122L0.822266 281.347Z" fill="url(#paint1_linear_1_867)"/>
<path d="M0.774649 474.797L0.753174 308.309L250.385 391.526L0.774649 474.797Z" fill="url(#paint2_linear_1_867)"/>
<path d="M499.992 308.309L250.337 391.5L0.802246 474.766L250.385 558L499.992 474.74V308.309Z" fill="url(#paint3_linear_1_867)"/>
</g>
</g>
<defs>
<linearGradient id="paint0_linear_1_867" x1="250.408" y1="198.118" x2="96.7754" y2="-32.3285" gradientUnits="userSpaceOnUse">
<stop stop-color="#06549B"/>
<stop offset="0.55" stop-color="#2FA1D3"/>
<stop offset="0.9" stop-color="#2FA1D3"/>
</linearGradient>
<linearGradient id="paint1_linear_1_867" x1="0.822255" y1="264.704" x2="170.843" y2="-194.242" gradientUnits="userSpaceOnUse">
<stop stop-color="#1371B1"/>
<stop offset="0.05" stop-color="#2FA1D3"/>
<stop offset="0.45" stop-color="#2FA1D3"/>
<stop offset="0.6" stop-color="#06569C"/>
</linearGradient>
<linearGradient id="paint2_linear_1_867" x1="250.385" y1="391.553" x2="62.7487" y2="222.748" gradientUnits="userSpaceOnUse">
<stop stop-color="#9D1A36"/>
<stop offset="0.4" stop-color="#9D1A36"/>
<stop offset="0.6" stop-color="#E6192F"/>
</linearGradient>
<linearGradient id="paint3_linear_1_867" x1="0.802238" y1="458.124" x2="170.878" y2="-0.901743" gradientUnits="userSpaceOnUse">
<stop stop-color="#A21C38"/>
<stop offset="0.13" stop-color="#E6192F"/>
<stop offset="0.45" stop-color="#E6192F"/>
<stop offset="0.6" stop-color="#A71C37"/>
</linearGradient>
<clipPath id="clip0_1_867">
<rect width="500" height="558" fill="white"/>
</clipPath>
</defs>
</svg>
