<?xml version="1.0" encoding="UTF-8" standalone="no"?>
<!-- Created with Inkscape (http://www.inkscape.org/) -->
<svg
   xmlns:svg="http://www.w3.org/2000/svg"
   xmlns="http://www.w3.org/2000/svg"
   version="1.0"
   width="739.33832"
   height="421.53812"
   id="svg2">
  <defs
     id="defs4" />
  <g
     transform="translate(-2.9955482,-315.41204)"
     id="layer1">
    <path
       d="M 736.57067,526.1811 C 736.56993,498.73738 727.23902,472.39127 708.5779,447.14271 C 689.91537,422.16901 663.8437,400.21392 630.36282,381.27738 C 596.88068,362.34139 557.9104,347.52171 513.45186,336.81828 C 468.9923,326.11549 421.92607,320.76394 372.25306,320.7636 C 322.30486,320.76394 275.10142,326.11549 230.6426,336.81828 C 186.18331,347.52171 147.21303,362.34139 113.73164,381.27738 C 80.250013,400.21392 54.178346,422.03179 35.516555,446.73105 C 16.854696,471.70517 7.5237836,498.1885 7.5237897,526.1811 C 7.5237836,553.6251 16.854696,579.9712 35.516555,605.2195 C 54.178346,630.19347 80.250013,652.14856 113.73164,671.08483 C 147.21303,690.02108 186.18331,704.84077 230.6426,715.54393 C 275.10142,726.24698 322.30486,731.59853 372.25306,731.5986 C 421.92607,731.59853 468.9923,726.24698 513.45186,715.54393 C 557.9104,704.84077 596.88068,690.02108 630.36282,671.08483 C 663.8437,652.14856 689.91537,630.19347 708.5779,605.2195 C 727.23902,579.9712 736.56993,553.6251 736.57067,526.1811 L 736.57067,526.1811 L 736.57067,526.1811 L 736.57067,525.76944 L 736.57067,526.1811 z "
       style="fill:#ffffff;fill-opacity:1"
       id="weiss" />
    <path
       d="M 741.92223,526.1811 C 741.92149,497.09074 732.31614,469.64688 713.10614,443.84944 C 693.89473,418.05243 667.27419,395.54846 633.24443,376.33748 C 599.21341,357.12706 559.69425,342.17015 514.68684,331.46672 C 469.67839,320.76394 422.33773,315.41239 372.66472,315.41204 C 322.99096,315.41239 275.6503,320.76394 230.6426,331.46672 C 185.63444,342.17015 145.97806,357.12706 111.67334,376.33748 C 77.642847,395.54846 51.022302,418.05243 31.81163,443.84944 C 12.600898,469.64688 2.9955466,497.09074 2.9955482,526.1811 C 2.9955466,555.27173 12.600898,582.71559 31.81163,608.51277 C 51.022302,634.31005 77.642847,656.81401 111.67334,676.02473 C 145.97806,695.23542 185.63444,710.19232 230.6426,720.89549 C 275.6503,731.59853 322.99096,736.95008 372.66472,736.95016 C 422.33773,736.95008 469.67839,731.59853 514.68684,720.89549 C 559.69425,710.19232 599.35063,695.23542 633.65609,676.02473 C 667.68584,656.81401 694.30639,634.31005 713.5178,608.51277 C 732.72779,582.71559 742.33314,555.27173 742.33389,526.1811 L 742.33389,526.1811 L 741.92223,526.1811 z M 734.92404,526.1811 C 734.9233,553.6251 725.59239,579.69676 706.93127,604.39618 C 688.26874,629.09571 662.19707,650.91358 628.71619,669.84986 C 595.23405,688.78611 556.40099,703.46857 512.21689,713.8973 C 467.75732,724.32591 420.6911,729.54024 371.01808,729.54031 C 321.61877,729.54024 274.68976,724.32591 230.23094,713.8973 C 185.77166,703.46857 146.80137,688.78611 113.31998,669.84986 C 79.838356,650.91358 53.766688,629.09571 35.104897,604.39618 C 16.443038,579.69676 7.1121257,553.6251 7.1121314,526.1811 C 7.1121257,498.73738 16.443038,472.66571 35.104897,447.96602 C 53.766688,423.26676 79.838356,401.44889 113.31998,382.51235 C 146.80137,363.30193 185.77166,348.48224 230.23094,338.05325 C 274.68976,327.62491 321.61877,322.41057 371.01808,322.41024 C 420.6911,322.41057 467.75732,327.62491 512.21689,338.05325 C 556.40099,348.48224 595.23405,363.30193 628.71619,382.51235 C 662.19707,401.44889 688.26874,423.26676 706.93127,447.96602 C 725.59239,472.66571 734.9233,498.73738 734.92404,526.1811 L 734.92404,526.1811 L 734.92404,526.1811 z M 604.42835,505.18653 C 611.01427,506.01 614.30754,510.53824 614.30815,518.77125 C 614.30754,523.43685 613.20978,529.06284 611.01488,535.64924 C 608.81876,542.2359 606.07438,548.54798 602.78172,554.58553 C 599.48785,560.62328 596.19459,565.56318 592.90192,569.40523 C 589.8825,573.24746 587.27533,575.16853 585.08041,575.16844 C 582.88432,574.34521 581.23768,572.56136 580.14051,569.81688 C 579.31661,567.34703 578.90496,564.73986 578.90553,561.99538 C 578.90496,557.60446 579.72827,552.66456 581.37548,547.17568 C 583.02154,541.68702 585.21704,536.33547 587.96202,531.121 C 590.70582,525.9068 593.4502,520.9669 596.19518,516.3013 C 599.21341,511.63599 601.82058,507.93107 604.01669,505.18653 L 604.01669,505.18653 L 604.42835,505.18653 z M 493.69226,566.11196 C 493.96621,571.60083 494.6523,576.81516 495.75055,581.75498 C 496.84781,586.69495 499.04332,591.63484 502.33709,596.57467 C 510.02087,609.19891 520.44953,617.43207 533.62312,621.27417 C 546.79564,625.11635 563.53639,627.03742 583.84543,627.03739 C 597.29234,627.03742 610.87705,624.15582 624.59961,618.39257 C 638.32091,612.6294 650.94509,604.53346 662.47217,594.10472 C 673.99793,583.67612 683.05441,571.87526 689.64162,558.70211 C 696.22746,545.52916 699.52072,531.80723 699.52142,517.53628 C 699.52072,497.22796 691.83644,481.31053 676.46855,469.78391 C 661.09932,458.25768 641.47696,452.49447 617.60142,452.49426 C 604.15331,452.49447 589.47084,455.5133 573.55398,461.55075 C 557.63596,467.86303 544.18847,475.68453 533.21146,485.01527 C 527.17328,489.95534 521.95895,495.16967 517.56844,500.65829 L 533.62312,457.02251 L 520.45005,457.02251 C 529.23157,455.10164 536.36697,450.84784 541.85629,444.2611 C 547.34452,437.40035 550.0889,430.40216 550.08945,423.26652 C 550.0889,417.22911 548.16783,411.87756 544.32623,407.21185 C 540.75799,402.82108 535.40644,399.52782 528.27156,397.33205 C 523.33114,395.96012 518.11681,395.27402 512.62854,395.27376 C 498.35723,395.27402 485.04695,398.84172 472.69769,405.97687 C 460.34748,413.11253 453.48651,422.44344 452.11477,433.96964 C 452.11432,433.96987 452.11432,434.51874 452.11477,435.61627 C 451.83988,436.16537 451.70266,436.57703 451.70311,436.85125 C 451.70266,440.14473 452.52598,443.84966 454.17306,447.96602 C 456.09368,452.08281 458.28919,455.10164 460.7596,457.02251 L 443.46995,466.9023 L 417.94713,535.64924 C 418.22115,532.90498 418.49559,528.51396 418.77045,522.47618 C 419.86779,510.40102 420.41666,501.34454 420.41708,495.30673 C 420.41666,482.68272 416.57452,472.25405 408.89065,464.0207 C 401.4804,455.78773 391.60061,451.67116 379.25125,451.67095 C 373.21322,451.67116 366.90113,452.49447 360.31497,454.1409 L 374.31135,409.6818 L 305.97607,409.6818 L 286.62813,419.5616 L 280.86491,434.3813 L 280.45325,434.3813 C 276.06196,417.36633 267.00548,405.29103 253.2838,398.15537 C 239.56162,391.02022 222.54643,387.45252 202.23817,387.45225 C 199.21915,387.45252 194.96535,388.0014 189.47677,389.09888 C 183.98781,390.19691 179.59679,391.29466 176.3037,392.39215 C 160.93496,397.05787 146.93859,402.68387 134.31455,409.27014 C 121.69024,415.85692 110.16382,424.2273 99.735253,434.3813 C 93.148628,440.41917 86.83654,447.6918 80.79897,456.19919 C 74.761241,464.43255 69.546908,473.35181 65.155954,482.95698 C 60.764873,492.28807 57.197171,502.03064 54.452838,512.18472 C 51.708399,522.3391 50.336206,532.35611 50.336255,542.23578 C 50.336206,554.03676 52.531715,564.87708 56.922788,574.75678 C 61.31375,584.63666 67.351399,593.14426 75.035754,600.2796 C 82.719961,607.6895 91.501996,613.31549 101.38189,617.15759 C 111.26158,620.99977 121.69024,622.92084 132.66792,622.92081 C 141.72426,622.92084 149.54576,622.23475 156.13244,620.86252 C 162.71881,619.49036 170.81475,617.15763 180.42028,613.86432 C 190.29989,610.84555 204.02182,604.25902 221.58611,594.10472 L 224.05606,592.86975 L 225.29104,592.86975 L 216.23456,619.21588 L 284.56984,619.21588 L 303.50612,609.33608 L 333.96883,532.76764 L 335.20381,532.76764 C 334.92904,536.06103 334.24294,544.56862 333.14552,558.29045 C 332.04743,572.01248 331.0869,584.63666 330.26391,596.16302 C 329.44027,607.6895 328.89139,615.37378 328.61728,619.21588 L 459.52462,619.21588 L 477.22593,609.33608 L 494.10392,563.23035 L 493.69226,566.11196 z M 181.65526,572.69849 C 176.16631,572.69858 170.95197,571.05195 166.01224,567.75859 C 163.26769,566.38649 161.07218,564.3282 159.42571,561.58372 C 157.77892,558.83943 156.13229,555.54617 154.48581,551.70392 C 152.29015,546.21525 151.19239,539.62873 151.19254,531.94432 C 151.19239,518.77139 154.48566,504.77503 161.07234,489.95517 C 167.65871,475.13566 175.20577,462.78592 183.71355,452.90592 C 186.73219,449.33843 190.02545,446.18238 193.59335,443.43778 C 196.88642,440.96805 201.003,438.36088 205.9431,435.61627 C 207.58953,435.6165 208.41284,436.43981 208.41305,438.08622 C 199.08193,444.12409 194.41647,452.08281 194.41667,461.96241 C 194.41647,472.39127 199.63081,480.34999 210.05968,485.83859 C 214.99937,488.58315 223.23253,489.95534 234.75918,489.95517 C 235.58226,489.40646 238.73831,488.17149 244.22732,486.25025 C 249.71585,484.32935 254.24409,482.5455 257.81205,480.89869 C 261.65393,479.52667 263.575,478.2917 263.57526,477.19376 L 263.98692,478.8404 C 263.98666,481.03609 263.16334,484.05491 261.51697,487.89688 C 259.87008,491.73919 257.67457,495.85577 254.93044,500.24663 C 254.38131,501.34454 254.10687,501.89342 254.10712,501.89326 C 250.26473,509.02882 245.87371,516.30145 240.93406,523.71115 C 235.99392,531.39557 230.36793,539.07985 224.05606,546.76402 C 217.74375,554.44841 211.02001,560.7605 203.88481,565.7003 C 196.7492,570.64029 189.6138,573.11024 182.47857,573.11015 L 182.47857,573.11015 L 182.47857,573.11015 L 182.47857,572.69849 L 181.65526,572.69849 z "
       style="fill:#003c03;fill-opacity:1"
       id="gruen" />
    <path
       d="M 545.14955,423.26652 C 545.14901,414.48473 541.58131,408.5843 534.44644,405.56522 C 527.3105,402.27221 518.8029,400.62558 508.92362,400.62532 C 500.68995,400.62558 492.4568,403.50718 484.22412,409.27014 C 476.26492,415.0336 472.28556,421.75735 472.28603,429.4414 C 472.28556,437.40035 475.85326,443.30078 482.98915,447.14271 C 490.12407,451.2595 497.94557,453.31779 506.45367,453.31758 C 516.88183,453.31779 525.93831,450.5734 533.62312,445.08441 C 541.30687,439.59586 545.14901,431.91158 545.14955,422.03155 L 545.14955,422.03155 L 545.14955,423.26652 z M 514.68684,554.17387 C 514.68632,575.03131 521.82173,590.53709 536.09307,600.69126 C 550.36334,611.11998 568.06463,616.33432 589.19699,616.33427 C 607.85823,616.33432 624.05011,612.76662 637.77267,605.63116 C 651.49397,598.49581 662.47151,589.43933 670.70534,578.46171 C 678.93783,567.48425 684.83826,556.5067 688.40665,545.52904 C 692.2481,534.55161 694.16917,525.2207 694.16986,517.53628 C 694.16917,498.32572 686.75933,483.50603 671.94031,473.07718 C 657.11996,462.6487 638.73257,457.43437 616.7781,457.43416 C 604.15331,457.43437 591.52913,460.17875 578.90553,465.66733 C 566.28078,471.1563 555.16602,478.42892 545.56121,487.48522 C 535.68088,496.81631 527.9966,507.24497 522.50834,518.77125 C 517.01905,530.29782 514.27466,542.2359 514.27518,554.58553 L 514.27518,554.58553 L 514.68684,554.17387 z M 634.89106,509.71477 C 634.89043,515.20369 633.65546,522.06466 631.18614,530.29769 C 628.44112,538.53097 624.87342,546.48969 620.48302,554.17387 C 616.36583,561.85826 611.56315,568.30756 606.07498,573.52181 C 600.58561,578.73623 595.37127,581.3434 590.43197,581.34332 C 584.94261,581.3434 580.82603,579.69676 578.08222,576.40342 C 575.06282,573.11024 573.5534,568.71922 573.55398,563.23035 C 573.5534,558.83943 574.9256,552.66456 577.67056,544.70573 C 580.41437,536.74712 583.98207,528.65118 588.37367,520.41789 C 592.76411,512.45931 597.704,505.73556 603.19337,500.24663 C 608.68154,494.75802 614.17032,492.01363 619.65971,492.01346 C 625.14786,492.01363 629.26444,493.66026 632.00946,496.95336 C 634.47877,500.24679 635.71375,504.63781 635.71438,510.12643 L 635.71438,510.12643 L 634.89106,509.71477 z M 526.21327,462.78572 L 464.46452,462.78572 L 419.18211,586.28322 L 410.12562,610.1594 L 471.87437,610.1594 L 480.93085,586.69488 L 526.21327,463.19738 L 526.21327,462.78572 z M 251.22551,568.99357 L 252.87215,568.99357 L 237.22913,609.33608 L 297.7429,609.33608 C 321.06989,546.76413 332.87075,515.20369 333.14552,514.65467 C 333.41963,514.10594 333.69406,513.55706 333.96883,513.00804 L 333.55718,513.83135 C 335.75235,507.79385 337.94786,503.12839 340.14371,499.83497 C 342.61332,496.54187 345.49492,494.89524 348.78853,494.89507 C 352.08145,494.89524 354.13974,495.99299 354.96341,498.18834 C 355.78637,500.65845 356.19803,504.36337 356.19838,509.30311 C 356.19803,512.59653 355.64915,519.45749 354.55175,529.88603 C 353.72808,538.11932 353.1792,543.88253 352.90512,547.17568 L 347.96522,609.74774 L 407.24402,609.74774 L 413.83055,516.3013 C 414.10457,514.10594 414.37901,511.49877 414.65387,508.47979 C 415.20233,502.4423 415.47677,498.05128 415.47718,495.30673 C 415.47677,484.87823 412.1835,476.37063 405.59738,469.78391 C 399.01045,462.92314 390.50285,459.49266 380.07457,459.49246 C 376.23205,459.49266 371.42937,460.17875 365.66653,461.55075 C 359.90295,462.92314 355.23749,464.43255 351.67014,466.07899 L 367.31316,417.91497 L 308.44602,417.91497 C 307.89684,419.56184 306.2502,423.95286 303.50612,431.08803 C 300.76143,438.22366 298.56592,443.84966 296.91959,447.96602 C 295.27266,451.80838 294.03769,454.55276 293.21466,456.19919 C 282.7857,480.89887 271.80816,502.30508 260.282,520.41789 C 248.75532,538.53097 234.48451,553.35066 217.46953,564.87698 C 212.52942,568.17034 206.76621,571.18917 200.17988,573.93347 C 193.59316,576.67794 187.28107,578.05013 181.2436,578.05005 C 169.16812,578.05013 159.97443,573.93355 153.66249,565.7003 C 147.35025,557.46724 144.19421,546.62691 144.19435,533.17929 C 144.19421,524.12295 146.11528,513.55706 149.95757,501.4816 C 153.79956,489.40646 159.15111,477.6056 166.01224,466.07899 C 173.14748,454.55276 181.1062,445.22185 189.88842,438.08622 C 198.94471,430.95104 208.41284,427.38334 218.29285,427.38311 C 222.68365,427.38334 226.25135,427.93222 228.99596,429.02974 C 231.74012,430.12773 233.52397,432.0488 234.34752,434.79296 C 228.85852,436.71425 224.4675,439.32142 221.17446,442.61446 C 217.88097,445.90795 216.23434,450.5734 216.23456,456.61085 C 216.23434,463.19758 218.70429,468.68635 223.64441,473.07718 C 228.58408,477.46838 234.34729,479.66389 240.93406,479.66371 C 249.16697,479.66389 257.12569,476.64507 264.81024,470.60723 C 272.49426,464.56977 276.3364,455.78773 276.33667,444.2611 C 276.3364,435.47928 274.14089,427.93222 269.75014,421.61989 C 265.63329,415.58248 260.0073,410.64258 252.87215,406.80019 C 245.73649,402.9583 238.18943,400.21392 230.23094,398.56702 C 222.27199,396.92065 214.31327,396.09734 206.35476,396.09707 C 193.1815,396.09734 177.5385,399.66504 159.42571,406.80019 C 147.35025,411.74034 135.96105,418.87574 125.25807,428.20642 C 114.55484,437.26313 105.22393,447.82902 97.265303,459.90411 C 89.306487,471.97961 83.131619,484.87823 78.740679,498.6 C 74.349584,512.04765 72.154075,525.49514 72.154145,538.94251 C 72.154075,546.90135 72.702952,554.03676 73.800779,560.34874 C 74.898461,566.66093 77.09397,572.56136 80.387312,578.05005 C 86.973759,590.39987 96.57911,599.868 109.20339,606.45447 C 121.82746,613.04105 135.82383,616.33432 151.19254,616.33427 C 161.62106,616.33432 171.50085,614.96212 180.83194,612.21769 C 193.1815,608.3756 208.41284,601.10298 226.52601,590.3998 L 226.93767,589.98814 C 238.73831,582.85281 246.83425,576.81516 251.22551,571.87518 L 251.22551,571.87518 L 251.22551,571.87518 L 251.22551,571.46352 L 251.22551,568.99357 z "
       style="fill:#fb3c3c;fill-opacity:1"
       id="rot" />
  </g>
</svg>
