<svg width="500" height="500" viewBox="0 0 500 500" fill="none" xmlns="http://www.w3.org/2000/svg">
<path fill-rule="evenodd" clip-rule="evenodd" d="M249.544 99.84C166.889 99.84 99.8523 166.877 99.8523 249.55C99.8523 332.26 166.889 399.291 249.544 399.291C332.272 399.291 399.309 332.254 399.309 249.55C399.309 166.871 332.272 99.84 249.544 99.84ZM497.568 249.55C497.568 386.531 386.531 497.562 249.544 497.562C112.605 497.562 1.56836 386.531 1.56836 249.55C1.56836 112.605 112.605 1.56836 249.544 1.56836C386.531 1.56836 497.568 112.605 497.568 249.55Z" fill="#AC2318"/>
<path fill-rule="evenodd" clip-rule="evenodd" d="M389.284 249.544C389.284 326.71 326.741 389.266 249.549 389.266C172.438 389.266 109.901 326.71 109.901 249.544C109.901 172.42 172.438 109.877 249.549 109.877C326.741 109.877 389.284 172.42 389.284 249.544Z" fill="#441500"/>
<path fill-rule="evenodd" clip-rule="evenodd" d="M271.864 337.05C277.809 337.05 294.371 328.223 288.229 324.174C284.346 321.63 279.79 318.223 271.377 311.785C267.605 308.902 265.951 309.686 264.79 309.686C261.321 309.686 266.951 304.075 265.099 299.556C263.043 294.63 261.877 287.075 260.154 285.359C258.414 283.618 259.124 274.495 262.759 270.859C266.735 266.89 272.432 255.34 275.574 250.921C279.309 245.637 281.871 234.038 280.395 232.544C278.895 231.063 272.105 216.976 269.148 214.007C267.222 212.093 264.087 207.377 260.926 203.55L260.185 202.495L256.988 204.309C253.796 206.155 249.852 209.927 249.852 209.927C249.852 209.927 247.105 210.84 240.747 209.563C237.321 208.884 236.087 206.47 236.087 203.729C236.087 200.995 234.296 201.686 234.296 201.686C234.296 201.686 202.21 203.242 199.852 204.6C197.519 205.958 187.259 220.013 187.259 220.013C187.259 220.013 181.809 273.427 186.019 277.655C191.05 282.667 217.272 323.982 222.179 328.914C227.056 335.593 265.92 337.05 271.864 337.05ZM209.932 218.809C206.624 219.402 201.272 218.464 198.759 223.044L193.975 243.809C193.975 243.809 194.488 264.661 194.951 268.803C195.395 272.921 200.778 286.365 203.778 289.39C206.432 292.044 211.599 300.828 216.278 305.458C217.543 306.698 220.111 307.297 221.192 308.754C223.136 311.384 221.92 309.575 218.432 304.414C205.611 285.421 202.846 269.032 202.222 266.229C200.852 260.118 201.858 245.766 202.222 240.013C202.408 236.97 204.519 230.137 206.531 228.612C207.469 227.883 216.266 226.908 218.037 226.408C220.784 225.606 224.679 225.655 227.198 225.137C235.253 223.476 250.068 227.6 251.074 228.075C263.136 233.655 258.451 235.6 258.636 236.254C258.821 236.933 241.846 271.13 241.92 272.735C242 274.476 242.617 291.581 244.216 296.254C244.692 297.637 250.05 310.575 251.013 312.921C255.259 323.198 241.883 311.211 241.019 310.742C240.154 310.254 222.506 279.939 219.957 273.501C218.235 269.174 218.864 262.649 219.204 261.266C219.667 259.365 218.296 244.723 221.019 242.723C222.871 241.365 231.124 240.532 235.111 242.279C238.735 243.871 240.685 247.939 240.309 248.896C240.019 249.704 234.29 268.192 233.395 266.643C233.111 266.137 233.087 260.285 232.333 259.704C231.568 259.106 227.358 258.229 226.84 258.902C226.321 259.593 225.309 265.797 225.84 267.927C228.389 278.198 234.333 275.001 235.457 273.081C237.124 270.235 245.198 247.525 245.05 246.056C244.71 242.717 242.241 236.958 237 235.192C233.858 234.143 220.198 234.729 216.438 236.692C210.667 239.723 211.006 265.976 212.105 269.797C213.204 273.593 231.389 304.124 232.241 306.47C233.926 311.044 244.932 321.921 246.654 322.945C247.371 323.377 262.395 329.211 264.34 326.285C265.185 325.013 264.766 321.47 261.012 319.019C257.432 316.674 248.877 291.717 248.901 289.76C248.938 287.908 246.679 274.019 248.179 271.13C251.019 265.612 271.475 234.958 269.235 232.488C266.235 229.174 257.056 213.698 252.753 219.525C248.871 224.803 230.482 219.371 225.901 216.019C225.562 215.76 214.716 217.927 209.932 218.809ZM299.494 146.766C301.315 146.982 309.371 149.809 309.371 149.809C309.371 149.809 317.148 161.18 319.13 163.624C321.13 166.063 320.241 167.834 320.241 167.834L316.426 181.772C315.025 180.643 304.729 181.569 302.284 181.803C299.827 182.013 304.506 178.908 305.617 177.803C306.729 176.692 311.167 173.587 310.593 171.816C310.062 170.032 303.364 157.081 303.364 157.081C303.364 157.081 291.673 156.97 286.124 157.637C280.574 158.297 268.914 169.902 268.914 169.902L264.667 186.68C264.667 186.68 266.383 189.766 268.827 191.766C271.266 193.766 278.364 193.093 281.019 192.877C283.673 192.661 282.58 195.76 280.358 197.754C278.136 199.748 270.154 199.748 270.154 199.748L273.469 200.859C277.148 204.192 283.877 221.242 287.846 225.223C291.809 229.174 287.722 249.174 282.031 254.865C276.321 260.538 273.605 272.797 270.136 276.266C266.648 279.742 263.05 278.383 266.648 281.97C270.266 285.55 268.58 289.877 269.148 293.044C269.519 295.075 270.093 298.779 271.852 300.513C273.562 302.242 299.864 320.47 310.432 321.303C312.358 321.464 312.383 330.742 301.55 342.143C301.55 342.143 299.617 348.723 281.55 349.303C261.84 349.921 242.451 346.63 237.988 346.63C233.543 346.63 220.587 339.266 220.587 339.266C218.124 339.266 176.982 282.025 176.982 278.075C176.982 274.106 174.056 263.402 174.056 259.433C174.056 255.482 178.642 219.229 177.908 214.84C177.327 211.396 179.124 210.593 183.093 206.624C187.05 202.674 194.204 195.958 196.914 193.235C198.136 192.019 207.624 192.285 219.117 189.828L220.901 189.069L218.617 187.958C218.617 187.958 214.914 183.309 208.938 183.532C202.957 183.748 200.951 184.198 204.062 182.871C207.167 181.544 212.741 177.334 212.741 177.334L225.778 183.093H235.636L247.982 172.927L275.994 150.174L299.494 146.766ZM448.531 246.346C447.789 246.331 447.05 246.462 446.358 246.732C445.666 247.002 445.034 247.405 444.499 247.92C443.963 248.434 443.533 249.049 443.235 249.729C442.936 250.409 442.775 251.141 442.759 251.883C442.744 252.626 442.875 253.364 443.145 254.056C443.415 254.748 443.818 255.38 444.333 255.916C444.847 256.452 445.461 256.881 446.142 257.18C446.822 257.478 447.554 257.64 448.296 257.655C449.796 257.686 451.247 257.12 452.329 256.082C453.411 255.044 454.037 253.618 454.068 252.118C454.099 250.618 453.533 249.168 452.495 248.085C451.457 247.003 450.031 246.378 448.531 246.346ZM49.0248 164.334C51.3458 158.964 55.4261 155.618 60.3952 153.248C60.7819 153.056 61.0773 152.72 61.2172 152.312C61.3571 151.904 61.3301 151.457 61.1421 151.069L58.2903 145.143C58.1015 144.758 57.7681 144.465 57.3631 144.326C56.9581 144.187 56.5146 144.214 56.1298 144.402C49.9631 147.322 44.4323 151.846 40.6236 160.6C33.7471 176.408 41.0557 192.785 55.9508 199.279L55.6545 199.155C70.5495 205.63 87.5063 199.816 94.3767 184.007C98.2039 175.254 97.7532 168.13 95.71 161.612C95.5727 161.206 95.2845 160.869 94.9052 160.67C94.526 160.471 94.0847 160.426 93.673 160.544L87.3767 162.501C86.9676 162.633 86.6268 162.92 86.4281 163.302C86.2294 163.683 86.1888 164.127 86.315 164.538C87.9569 169.779 88.2903 175.044 85.9569 180.408C81.5927 190.408 70.2594 194.069 59.9878 189.587C49.6915 185.124 44.6545 174.334 49.0248 164.334ZM199.642 59.828C199.223 59.9138 198.787 59.8301 198.43 59.5952C198.072 59.3604 197.822 58.9935 197.735 58.5749L194.303 41.686C194.221 41.2614 194.31 40.8216 194.55 40.4622C194.79 40.1028 195.163 39.8527 195.587 39.7662L205.358 37.7847C212.692 36.3033 218.074 38.7724 219.42 45.3835C220.636 51.3526 216.84 56.3403 209.432 57.8526L199.642 59.828ZM232.074 43.1181C229.772 31.7477 217.333 26.081 204.358 28.7168L183.975 32.8526C183.556 32.9376 183.186 33.1852 182.948 33.5413C182.71 33.8974 182.622 34.3333 182.704 34.7539L193.371 87.3033C193.531 88.1675 194.395 88.7601 195.266 88.5749L201.889 87.2354C202.312 87.1462 202.682 86.894 202.92 86.5335C203.158 86.173 203.245 85.7332 203.161 85.3094L200.167 70.581C200.086 70.1591 200.174 69.7225 200.412 69.3648C200.65 69.0071 201.018 68.7567 201.438 68.6675L210.908 66.7539C223.173 64.2601 234.624 55.7107 232.074 43.1181ZM461.778 191.698C461.579 191.774 461.367 191.809 461.154 191.802C460.942 191.795 460.733 191.747 460.539 191.659C460.345 191.571 460.17 191.446 460.025 191.291C459.88 191.136 459.766 190.953 459.692 190.754L449.525 163.68C449.453 163.479 449.342 163.294 449.198 163.136C449.055 162.978 448.881 162.851 448.687 162.761C448.493 162.672 448.284 162.622 448.07 162.614C447.857 162.606 447.644 162.641 447.445 162.717L433.296 168.025C432.894 168.18 432.569 168.487 432.391 168.88C432.213 169.273 432.197 169.72 432.346 170.124L439.969 190.433C440.118 190.837 440.101 191.283 439.923 191.674C439.746 192.066 439.421 192.372 439.019 192.525L433.679 194.513C433.278 194.663 432.834 194.648 432.444 194.471C432.054 194.294 431.75 193.969 431.599 193.569L423.982 173.26C423.829 172.86 423.526 172.536 423.137 172.357C422.748 172.178 422.304 172.159 421.901 172.303L413.982 175.272C413.78 175.346 413.595 175.459 413.437 175.604C413.279 175.75 413.152 175.926 413.063 176.121C412.974 176.317 412.925 176.528 412.918 176.742C412.912 176.957 412.948 177.171 413.025 177.371L423.321 204.828C423.399 205.028 423.436 205.241 423.43 205.455C423.424 205.669 423.376 205.88 423.287 206.075C423.198 206.27 423.072 206.445 422.914 206.59C422.757 206.736 422.572 206.848 422.371 206.921L417.05 208.921C416.85 208.995 416.638 209.029 416.426 209.02C416.213 209.012 416.004 208.963 415.811 208.874C415.618 208.785 415.444 208.659 415.3 208.503C415.155 208.346 415.043 208.163 414.969 207.964L401.142 171.149C400.997 170.745 401.017 170.301 401.195 169.911C401.374 169.521 401.699 169.216 402.099 169.063L452.284 150.229C452.689 150.078 453.136 150.093 453.53 150.269C453.924 150.446 454.233 150.771 454.389 151.174L468.074 187.618C468.215 188.021 468.193 188.463 468.013 188.85C467.833 189.237 467.51 189.539 467.111 189.692L461.778 191.698ZM409.648 90.9576C409.972 90.6786 410.393 90.5394 410.819 90.5707C411.245 90.6019 411.641 90.801 411.92 91.1243L416.327 96.2477C416.604 96.5754 416.74 96.9989 416.707 97.4264C416.673 97.854 416.473 98.2511 416.148 98.5317L382.408 127.556C382.243 127.692 382.107 127.859 382.007 128.048C381.908 128.237 381.847 128.444 381.829 128.657C381.811 128.87 381.835 129.084 381.9 129.287C381.966 129.49 382.071 129.678 382.21 129.84L399.599 150.044C400.167 150.723 400.093 151.754 399.432 152.346L394.994 156.149C394.664 156.428 394.238 156.567 393.807 156.537C393.376 156.507 392.974 156.31 392.685 155.988L368.796 128.186C368.519 127.86 368.382 127.438 368.414 127.012C368.447 126.585 368.646 126.189 368.969 125.908L409.648 90.9576ZM341.975 105.791C341.867 105.975 341.723 106.135 341.552 106.263C341.381 106.392 341.186 106.485 340.979 106.537C340.772 106.59 340.557 106.602 340.345 106.571C340.134 106.54 339.931 106.468 339.747 106.359L333.883 102.871C333.516 102.647 333.252 102.288 333.148 101.871C333.044 101.454 333.109 101.013 333.327 100.643L356.043 62.5317C356.258 62.1611 356.319 61.7214 356.214 61.3063C356.109 60.8912 355.847 60.5335 355.482 60.3094L342.784 52.7354C342.602 52.6273 342.443 52.4843 342.316 52.3147C342.189 52.1451 342.097 51.9521 342.045 51.7469C341.993 51.5416 341.982 51.3281 342.012 51.1185C342.043 50.9089 342.114 50.7074 342.222 50.5255L345.284 45.3588C345.509 44.9877 345.87 44.7195 346.29 44.6122C346.71 44.5048 347.156 44.5668 347.531 44.7847L384.358 66.7662C384.542 66.874 384.703 67.017 384.832 67.187C384.961 67.357 385.055 67.5507 385.109 67.7571C385.163 67.9635 385.175 68.1784 385.146 68.3897C385.117 68.601 385.046 68.8045 384.938 68.9884L381.852 74.1551C381.629 74.5214 381.271 74.7852 380.855 74.8892C380.439 74.9932 379.999 74.929 379.63 74.7107L366.926 67.1304C366.553 66.9114 366.109 66.8489 365.69 66.9564C365.272 67.064 364.913 67.333 364.692 67.7045L341.975 105.791ZM288.383 35.6798C277.253 33.723 267.908 41.2415 265.975 52.1983C264.062 63.1613 270.401 73.581 281.531 75.5317C292.667 77.4946 301.963 69.9638 303.889 59.0131C305.803 48.0625 299.469 37.6242 288.383 35.6798ZM279.79 84.5502C262.568 81.5378 252.858 66.3897 255.636 50.544C258.408 34.7045 272.914 23.6304 290.13 26.6551C307.296 29.6736 317.019 44.8033 314.235 60.6675C311.457 76.5131 296.988 87.5687 279.79 84.5502ZM146.235 47.4452C146.616 47.2479 147.061 47.2099 147.47 47.3395C147.88 47.469 148.221 47.7557 148.42 48.1366L173.235 95.6613C173.429 96.0444 173.465 96.4884 173.336 96.898C173.207 97.3077 172.922 97.6504 172.543 97.8526L166.574 100.964C166.194 101.163 165.751 101.204 165.34 101.078C164.93 100.952 164.586 100.669 164.383 100.291L139.568 52.76C139.371 52.3768 139.334 51.931 139.464 51.5203C139.595 51.1097 139.883 50.7675 140.266 50.5687L146.235 47.4452ZM103.556 127.816C102.938 128.451 102.938 129.476 103.58 130.1L115.852 142.075C116.155 142.376 116.327 142.785 116.331 143.212C116.336 143.639 116.173 144.051 115.877 144.359L111.154 149.198C111.007 149.351 110.83 149.473 110.635 149.557C110.44 149.641 110.23 149.686 110.018 149.688C109.805 149.69 109.594 149.65 109.397 149.571C109.201 149.491 109.021 149.373 108.871 149.223L70.5063 111.754C70.2029 111.45 70.0304 111.04 70.0258 110.611C70.0212 110.182 70.1848 109.768 70.4816 109.458L75.1977 104.643C75.3455 104.49 75.522 104.367 75.7172 104.283C75.9123 104.198 76.1223 104.152 76.3351 104.149C76.5478 104.146 76.7591 104.184 76.9569 104.263C77.1548 104.341 77.3352 104.458 77.4878 104.606L94.636 121.365C95.2656 121.982 96.3026 121.982 96.9323 121.34L115.296 102.532C115.595 102.224 115.761 101.811 115.757 101.383C115.754 100.954 115.582 100.544 115.278 100.242L98.1236 83.4823C97.8191 83.1805 97.6458 82.7709 97.6411 82.3423C97.6365 81.9136 97.801 81.5004 98.0989 81.1922L102.809 76.3712C103.112 76.065 103.523 75.8903 103.954 75.8845C104.384 75.8787 104.8 76.0424 105.111 76.3403L143.457 113.816C144.099 114.433 144.105 115.458 143.488 116.106L138.778 120.933C138.472 121.237 138.06 121.41 137.629 121.415C137.197 121.419 136.781 121.255 136.469 120.958L124.21 108.982C123.903 108.684 123.49 108.52 123.062 108.526C122.634 108.531 122.225 108.707 121.926 109.013L103.556 127.816ZM54.0681 332.593L73.389 325.39L57.6421 321.766L57.5742 321.6L67.0187 308.686L47.8211 315.84L45.4384 309.464L75.0248 298.427L77.6421 305.458L68.031 317.884L83.4508 321.001L86.0681 328.025L56.4816 339.063L54.0742 332.593H54.0681ZM449.982 328.186L420.117 317.988L422.352 311.414L446.253 319.581L451.346 304.692L457.303 306.717L449.982 328.186ZM429.352 367.704L402.253 351.538L405.803 345.587L427.488 358.507L435.543 345.013L440.976 348.229L429.352 367.704ZM410.204 392.106L386.352 371.427L390.908 366.192L414.735 386.871L410.204 392.106ZM375.883 396.674C374.037 394.353 371.451 394.439 368.803 396.525L363.401 400.828L369 407.921L374.525 403.556C377.185 401.482 377.599 398.853 375.926 396.766L375.883 396.674ZM388.679 413.081L377.099 409.353L372.809 412.723L379.08 420.649L373.642 424.97L354.056 400.211L365.358 391.254C371.216 386.63 377.148 386.945 381.179 392.044L381.229 392.106C384.389 396.1 384.235 400.328 382 403.982L395.025 408.056L388.679 413.081ZM341.377 443.797C332.445 447.902 323.401 444.433 319.5 435.939L319.469 435.865C315.716 427.717 319.019 418.1 327.716 414.13C332.877 411.76 336.624 411.723 340.796 412.896L339.025 419.507C335.963 418.68 333.5 418.519 330.185 420.032C325.587 422.143 323.796 427.89 326.037 432.748L326.074 432.834C328.494 438.081 333.871 440.291 338.938 437.958C341.247 436.902 343.019 435.377 344.105 433.501L342.222 429.39L335.864 432.322L333.371 426.859L345.803 421.137L351.543 433.612C349.492 438.121 345.882 441.738 341.377 443.797ZM285.84 460.513L268.185 442.495L270.667 462.414L263.846 463.254L259.938 431.945L266.309 431.155L283.401 448.587L280.994 429.328L287.809 428.47L291.698 459.785L285.84 460.513ZM227.84 438.285L222.432 447.958L230.772 448.964L227.84 438.285ZM234.506 462.735L232.494 455.377L219.235 453.748L215.512 460.439L208.482 459.587L225.753 429.637L232.111 430.39L241.71 463.606L234.506 462.735ZM176.698 450.427C168.012 447.093 164.117 437.964 167.346 429.482L167.371 429.39C170.58 421.001 179.5 416.55 188.574 420.007C194.13 422.118 196.753 425.254 198.463 428.988L192.531 432.186C191.043 429.248 189.198 427.087 186.247 425.964C181.272 424.063 176.117 426.828 174.198 431.908L174.167 431.988C172.235 437.038 174.124 442.593 179.185 444.532C182.55 445.809 185.142 445.254 188.259 444.019L190.79 449.772C186.519 451.846 182.389 452.587 176.698 450.427ZM135.759 429.384L152.371 402.587L158.272 406.235L141.648 433.044L135.759 429.384ZM111.71 411.532L113.827 398.785L101.247 401.933L95.4446 396.587L114.408 392.204L117.124 373.661L123.099 379.137L121.062 391.186L132.908 388.149L138.704 393.488L120.5 397.711L117.679 417.032L111.71 411.532ZM68.4384 360.859L94.5002 343.019L107.957 362.649L102.864 366.161L93.2964 352.204L88.0063 355.828L96.4322 368.112L91.3397 371.606L82.9137 359.328L77.4446 363.075L87.136 377.204L82.0434 380.717L68.4384 360.859ZM45.0681 252.118C45.136 255.223 47.7224 257.704 50.8397 257.643C51.5814 257.628 52.3129 257.467 52.9924 257.169C53.6719 256.871 54.2862 256.443 54.8001 255.908C55.3139 255.373 55.7174 254.742 55.9874 254.051C56.2574 253.36 56.3886 252.622 56.3736 251.88C56.3586 251.139 56.1977 250.407 55.9 249.728C55.6023 249.048 55.1736 248.434 54.6386 247.92C54.1035 247.406 53.4724 247.003 52.7814 246.733C52.0904 246.463 51.353 246.331 50.6113 246.346C49.111 246.377 47.6843 247.003 46.6449 248.085C45.6055 249.167 45.0383 250.618 45.0681 252.118Z" fill="#FEFEFE"/>
</svg>
