<?xml version="1.0" encoding="UTF-8"?>
<svg id="svg30" width="1000.0001" height="1210.9983" version="1.1" viewBox="0 0 1e3 1210.9983" xmlns="http://www.w3.org/2000/svg" xmlns:cc="http://creativecommons.org/ns#" xmlns:dc="http://purl.org/dc/elements/1.1/" xmlns:rdf="http://www.w3.org/1999/02/22-rdf-syntax-ns#">
 <metadata id="metadata36">
  <rdf:RDF>
   <cc:Work rdf:about="">
    <dc:format>image/svg+xml</dc:format>
    <dc:type rdf:resource="http://purl.org/dc/dcmitype/StillImage"/>
    <dc:title>logo_chiquita</dc:title>
   </cc:Work>
  </rdf:RDF>
 </metadata>
 <title id="title2">logo_chiquita</title>
 <g id="g28" transform="translate(-9.9997728,1085.2553)" fill-rule="evenodd">
  <path id="path6" d="m507.83355 125.743c-92.71776-0.01077-173.49696-16.14076-240.10721-47.937397-61.80465-29.501594-113.10381-73.322991-152.48596-130.22508-68.78677-99.376624-103.18016-237.44581-105.15196-422.11631-2.0041263-186.20053 29.954138-325.77819 97.695746-426.71717 38.82186-57.85028 90.07791-102.60914 152.32434-133.03734 67.10589-32.8095 148.9949-49.9415 243.40431-50.922 2.94154-0.032 5.81843-0.043 8.72765-0.043 92.70698 0 173.47541 16.1192 240.07488 47.9266 61.79388 29.5016 113.09303 73.31222 152.46441 130.21431 68.74367 99.36585 103.14784 237.41348 105.13044 422.05166 2.0149 186.18975-29.93262 325.77819-97.67423 426.73872-38.81108 57.850177-90.06714 102.61976-152.32434 133.05877-67.10589 32.820255-149.00568 49.973845-243.41509 50.965135-2.90921 0.0216-5.743 0.0431-8.61989 0.0431z" fill="#005ca8" stroke-width="10.7749"/>
  <g id="g14" transform="matrix(10.77487,0,0,10.77487,-97.746476,-1229.1215)" fill="#ffdf00">
   <path id="path8" d="m56.928 118.426c-17.778 0.177-28.671-6.402-34.486-18.936-0.038 0-0.071 3e-3 -0.11 3e-3 -1.315 0-2.442-0.116-3.42-0.32 6.23 14.773 18.439 22.554 38.048 22.347 19.194-0.2 31.132-7.905 37.168-22.207-1.143 0.29-3.515 0.294-3.515 0.294-5.642 12.12-16.3 18.635-33.685 18.819m41.589-43.183c0.079-1.997 0.106-4.052 0.084-6.171-0.363-33.478-12.935-51.812-42.772-51.503-29.837 0.313-42.006 18.904-41.643 52.389 0.024 2.08 0.093 3.859 0.213 5.823 0.47-1.321 1.541-2.059 3.063-2.688a144.825 144.825 0 0 1-0.073-3.175c-0.34-31.482 9.95-48.972 38.475-49.275 28.523-0.295 39.19 16.98 39.531 48.466 0.019 1.763 0 3.476-0.05 5.15 0.282-0.092 0.577-0.16 0.891-0.155 1.17 0.022 1.764 0.452 2.281 1.139"/>
   <path id="path10" d="m38.672 32.014c0.229 0.218 0.634 0.492 0.878 0.532 0.664 0.113 0.974 0.454 0.538 0.427-1.404-0.092-2.76 1.13-3.135 1.866-0.534 1.04-0.942 2.49 0.518 3.057 0.517 0.199 2.08-0.064 2.7-0.31 0.651-0.284 1.54-0.91 1.801 0.38 0.254 1.3 1.287 2.508 1.845 3.08 0.522 0.539 1.537 1.156 2.551 1.65 0.763 0.372 1.255 0.69 1.327 1.725 0.068 1.045 0.553 1.546 0.823 1.779 0.335 0.29 0.61 0.684 0.14 1.679-0.172 0.414-0.58 1.108-0.196 1.613 0.386 0.514 1.552 0.573 1.788-0.012 0.439-1.062 0.722-0.95 1.037-0.421 0.212 0.35 0.156 0.404 0.163 1.26 0.01 0.845-0.1 1.463-1.62 1.633-1.996 0.233-2.18-0.712-3.91-1.016-0.617-0.107-2.38-0.36-3.835 0.289-0.836 0.379-1.31 0.605-1.303 1.39 6e-3 0.231 0.612 1.077-0.102 1.142-0.562 0.054-1.764 0.398-2.341 1.292-0.103 0.199-0.234 0.72-0.024 1.024 0.212 0.305 0.665 0.44-0.196 0.545-0.48 0.058-1.882 0.83-2.182 1.718-0.306 0.894-0.247 2.262 1.04 2.902 0.417 0.202 1.909 0.092 2.523 0 0.871-0.13 0.936 0.163 0.497 0.85-0.073 0.135-0.235 0.51-0.439 0.855-0.202 0.349-0.463 0.676 0.136 1.558 1.512 2.207 3.519 4.242 6.133 6.27 1.745 1.344 2.755 2.044 3.486 2.515 0.35 0.197 1.053 0.796 1.41 0.953 0.449 0.2 1.38 0.273 2.378-0.348 0.999-0.625 1.831-1.115 3.802-1.037 0.656 0.024 0.735-0.43-0.168-0.728-0.866-0.264-2.037-0.973-3.424-0.825-0.412 0.037-1.212 0.325-1.56 0.398-0.379 0.108-1.208 0.194-1.802-0.273-0.418-0.305-1.714-1.454-2.288-2.215-0.425-0.561-2.75-3.42-3.14-3.991-0.456-0.65-1.434-1.072-0.558-2.435 0.349-0.74 0.621-0.965 1.428-0.221 0.245 0.233 0.994 0.338 1.936 0.154 0.473-0.094 1.22 0.223 1.798 1.184 0.333 0.566 1.224 0.719 3.398 0.524 1.35-0.118 2.682-2.856 1.555-4.812-0.3-0.523-0.93-0.753-0.935-1.372-7e-3 -0.61 0.199-0.854 1.094-0.54 0.392 0.144 0.474-0.501 0.017-1.269-0.183-0.3-0.396-0.757-1.2-1.036-0.634-0.216-1.023-0.732 0.289-0.621 0.69 0.046 1.563-0.812 1.624-1.455 0.095-0.689-0.089-1.774-0.683-2.415-0.178-0.2-5e-3 -0.687 0.305-0.65 0.31 0.035 1.266-0.016 1.478 0.014 0.206 0.034 1.065 0.207 1.507-0.93 0.032-0.133 0.115-0.338 0.115-0.437-5e-3 -0.139-0.57-0.056-0.837-0.111-0.169-0.036-0.292-0.053-0.78-0.317-0.207-0.102-0.417-0.34-0.628-0.607-0.316-0.411-0.548-0.595 0.112-0.65 0.474-0.037 0.769-0.123 1.098-0.305 0.19-0.107 0.594-0.284 1.455-0.194-0.182-0.556-0.093-0.443 0.29-1.032-1.212-1.574-0.545-2.582-0.275-2.761 0.416-0.269 0.628-0.446 0.805-0.616 0.135-0.127 0.16-0.638-0.072-0.92-0.245-0.303-0.828-0.587-1.555-0.572-0.76 9e-3 -2.817 0.063-3.266 0.07-2.005 0.042-2.458 2.956-2.562 3.604-0.108 0.74 0.1 0.474 0.145 2.338 0.044 0.649-0.368 1.344-0.591 0.459-0.098-0.396-0.494-0.478-0.599-0.548-0.14-0.103-1.006-0.996-1.58-2.838-0.466-1.498-0.64-1.002-2.133-1.918-1.078-0.661-2.642-1.764-3.348-3.965-0.437-1.354 0.641-1.224 1.122-1.2 8.625 1.076 14.074 0.47 18.696-0.736 1.032-0.253 2.518-0.541 1.85 1.15-0.663 1.685-1.611 2.836-4.039 4.304-0.386 0.234-1.495 0.906-0.846 1.217 0.118 0.062 0.775-0.093 0.775-0.093s-0.15 0.356-0.532 0.533c-0.058 0.087-0.102 0.139 0 0.168 0.421 0.125 0.861-0.176 0.658 0.24-0.066 0.138-1.037 0.324-1.033 0.602-0.062 0.951-0.01 0.07 0.25 1.432 0.256 1.296-1.274 3.341-2.117 4.876-0.413 0.743-0.85 1.216 0.052 2.206 0.952 1.04 2.141 2.493 2.635 3.235 0.459 0.716 1.02 2.666 0.092 5.296-0.187 0.53-0.147 1.056-1.235 2.808-0.578 0.958-0.632 2.01-0.052 3.413 0.407 0.978 1.739 4.01 3.2 4.953 1.183 0.734 1.853-0.355 0.85-1.005-0.569-0.362-2.66-3.338-3.197-4.845-0.287-0.854-0.435-1.574 0.21-2.465 0.515-0.727 1.563-0.527 2.59-0.15 0.628 0.238 1.85 0.495 2.701-0.644 0.309-0.413 0.586-0.352 0.607-2.092-4e-3 -0.486-0.035-0.76 0.466-0.742 1.731 0.066 2.62-0.366 2.983-1.944 0.401-1.544 0.11-2.53 0-2.97-0.107-0.448-0.155-0.688 0.262-0.803 0.447-0.067 2.335-0.222 2.84-1.55 0.538-1.373 0.952-3.742-0.209-5.473-0.173-0.27-0.864-0.595-1.12-1.754-0.074-0.407-0.159-0.528-0.579-1.138-0.14-0.208-0.746-0.851-1.27-0.949-0.209-0.037-0.418-0.23-0.418-0.408-0.038-0.204-4e-3 -0.769 0.308-1.313 0.062-0.174 1.044-2.415 1.79-3.75 0.51-0.928 2.185-4.655 2.662-5.363 0.315-0.467 0.53-0.91 1.167-1.206 1.003-0.479 1.61-0.933 1.95-1.11 0.346-0.175 1.955-1.18 2.718-2.118 0.254-0.303-0.168-0.655-0.719-0.463-0.599 0.219-1.3 0.888-2.334 1.244-0.324 0.117-1.056 0.264-1.365 0.228-0.931-0.102-1.322-0.454-1.537-1.238-0.126-0.447-0.664-1.058-1.021-0.582-0.18 0.246 0.455 2.235-0.259 3.577-0.712 1.34-1.413 3.472-5.063 8.424-0.34 0.45-0.814 1.547-1.92 1.728-1.102 0.19-2.126 0.25-2.722 0.995-0.736 0.925-1.184 0.468-1.188 0.164 0.03-0.345-0.01-0.592 0.731-1.19 0.913-0.745 2.723-2.36 3.467-4.043 0.404-0.858 0.851-1.655-0.06-2.766-0.314-0.339-0.312-1.015 0.312-1.188a14.594 14.594 0 0 1 1.642-0.344c0.323-0.302-0.39-0.418-0.786-0.422-0.154 0-1.038 0.076-0.927-0.687 0.043-0.268 0.578-0.64 0.677-0.945 0.101-0.305-0.03-0.356-0.475-0.26-0.325 0.067-0.477 0.263-0.685 0.304-0.207 0.035-0.433 0.06-0.54-0.143-0.103-0.202-0.191-0.684-0.297-0.889-0.074-0.163-0.103-0.268-0.275 0.042-0.167 0.306-0.158 0.863-0.365 1.072-0.453 0.088-0.744-0.071-0.671-0.478 0.197-1.128 0.579-2.345-0.158-3.563-0.217-0.376-1.166-1.043-2.257-0.039-0.243 0.206-0.048 0.34-1.192 0.24-1.006-0.097-1.029 0.522-1.572 0.8-0.657 0.335-0.672 0.517-0.836 0.666-0.507 0.453-0.318 0.675-1.396 0.102-1.39-0.774-3.631-0.173-4.694 0.699-0.274 0.173-0.791 0.716-1.485 0.139-0.211-0.166-1.118-0.689-1.879-0.784-0.8-0.06-0.832-0.063-0.943-0.438-0.112-0.372 0.06-0.915 0.02-1.188-0.03-0.279-0.66 0.122-0.743 0.807-0.221-7e-3 -0.176 0.25-0.493-0.018-0.244-0.203-0.454-0.266-0.595-0.437-0.105-0.134-0.406-0.067-0.273 0.17 0.373 0.684 0.191 0.838 0.199 1.044 0 0.166-1.349-3e-3 -1.554 0-0.177 6e-3 -0.177 0.122-0.104 0.135 0.575 0.174 0.666 0.47 0.97 0.622 0.207 0.093-0.376 0.354-0.84 0.185-0.85-0.323-2.841-0.656-4.308-0.287-0.845 0.22-2.096 1.363-0.97 2.387"/>
   <path id="path12" d="m58.708 44.182c0.24 0.113 0.094 0.21 0.537 0.138 0.146-0.35 0.468-0.619 0.193-1.384-0.089 0.01-0.35 0.275-0.35 0.275s0.03 0.49-0.38 0.971m-0.413 3.27c-0.422-0.29-0.902-0.266-1.31-0.04-0.383 0.205-0.624 0.205-0.95 0.246 0.273 0.176 0.276 0.556 0.782 0.486 0.437-0.053 0.494 0.09 0.922 0.054 0.356-0.04 0.474-0.42 0.556-0.746"/>
  </g>
  <g id="g24" transform="matrix(10.77487,0,0,10.77487,-97.746476,-1229.1215)" fill="#005ca8">
   <path id="path16" d="m49.025 48.792c4e-3 0.276 0.56 0.547 0.83 0.102 0.24-0.408 0.1-0.797 0.098-0.963-0.042-0.377-0.62-0.856-0.763-0.097-0.053 0.29-0.166 0.652-0.165 0.958m5.263-7.035c0.79-0.031 1.012 0.228 1.363 0.428 0.359 0.2 0.832-0.185 0.257-0.377-0.626-0.223-0.464-0.402-0.924-0.407-0.782-0.01-1.429 0.383-0.696 0.356m0.14 1.001c-0.27 0.1-0.051 0.441-0.858 0.156-0.154 0.104 0.236 0.44 0.126 0.534-0.07 0.054-0.355 0.2-0.744 0.147-0.464-0.064 0.096 0.234 0.48 0.474 0.244 0.17 1.077 0.22 1.43-0.372 0.129-0.22-3e-3 -0.761 0.2-0.857 0.593-9e-3 0.664 0.367 0.72 0.585 0.036 0.13-0.09 0.647-0.047 0.819-3e-3 0.137 0.24 0.173 0.293-0.24 0.023-0.172 0.113-0.353 0.05-0.615-0.062-0.261-0.316-0.75-0.808-0.838-0.362-0.088-0.66 0.146-0.842 0.207m-14.994-11.751c-0.102 0.177 0.01 0.691 0.318 0.791 0.313 0.098 3.435 0.576 3.918 0.637 0.483 0.066 0.795-0.013 0.924-0.485 0.102-0.45 0.065-0.75-0.285-0.925-0.87-0.431-3.5-0.68-4.156-0.538-0.448 0.075-0.615 0.351-0.72 0.52m-0.463 5.789c0.623-0.174 1.444-0.63 2.205-0.733 0.794-0.149 1.93-0.402 2.693-0.414 0.793-0.014 1.08-0.263 0.653-1.11-0.374-0.744 0.108-1.324-1.173-1.342-1.94-0.081-2.703 0.257-3.802 0.98-0.652 0.42-1.388 1.16-1.59 1.475-0.481 0.685 0.049 1.465 1.015 1.144m7.992-6.553c-0.893 0.523-1.402 1.074-1.36 2.268 0.054 1.2 0.506 2.35 0.891 2.856 0.173 0.276 0.244 0.446 0.42 0.444 0.21 0 2.887 0.416 3.126 0.416 0.24-0.013 0.913-0.044 1.017-0.115 0.138-0.1 0.528-0.966 0.629-1.14 0.102-0.17 0.035-0.803 0.035-1.01-5e-3 -0.2-0.575-2.31-1.998-3.213-0.458-0.307-1.832-1.061-2.76-0.506m4.942 1.363c0.14 0.373 0.89 1.528 1.03 1.694 0.137 0.173 0.241 0.035 0.308 0.029 0.106-0.034 0.538-0.346 0.716-0.381 0.202-0.067 0.652-0.282 0.756-0.285 0.133-4e-3 0.128-0.437 0.199-0.502 0.034-0.032 1.29-1.11 1.424-1.283 0.168-0.205 0.476-0.681-0.354-0.948-0.737-0.242-1.218-0.348-2.432-0.018a3.396 3.396 0 0 0-1.504 0.84 0.898 0.898 0 0 0-0.143 0.854m5.266 1.822a2.964 2.964 0 0 0-1.28-0.112c-0.623 0.055-2.259 0.615-2.939 1.63-0.228 0.36-0.933 1.223-0.1 1.248 0.83 0.033 2.7-0.038 3.01-0.053 0.313-0.018 0.516-0.16 0.64-0.401 0.095-0.214 0.69-1.583 0.811-1.862 0.093-0.21 0.177-0.365-0.142-0.45m2.084-4.796c-0.617 0.59-2.114 2.618-2.352 2.962-0.242 0.34-0.688 0.693-0.028 0.887 0.276 0.065 0.94 0.27 1.145 0.332 0.207 0.063 0.484 0.131 0.62-0.08 0.138-0.205 1.02-1.68 1.593-2.913 0.474-1.065-0.362-1.772-0.978-1.188m2.613-0.838c-0.368 0.73-1.134 2.606-1.436 3.223-0.374 0.724-0.222 0.476 0.192 0.409 0.446-0.112 1.708-0.432 2.049-0.607 0.343-0.173 0.219-0.48 0.221-0.652-2e-3 -0.174 0.018-1.5 0.047-2.12-7e-3 -0.577-0.55-1.286-1.073-0.253m-2.871 8.042c0.657-0.1 2.799-0.294 3.283-0.404 0.516-0.15 2.028-0.601 2.307-0.815 0.307-0.233 0.444-0.55 0.16-1.028-0.246-0.436-0.709-1.563-2.263-1.514-1.52 0.019-3.627 0.556-4.4 2.749-0.267 0.825 0.22 1.165 0.913 1.012m-15.845 17.983c0.72 0.099 1.414 0.082 2.057 0.51 0.934 0.604 1.761 0.51 2.49 0.506 0.763-0.044 1.622-0.608 2.732-8e-3 0.798 0.273 1.012 0.286 1.362-0.186 0.284-0.383 0.424-0.98-0.338-1.352-0.735-0.336-1.228-0.369-2.209-0.538-0.925-0.147-1.775 0.056-2.3-0.208-0.798-0.433-2.772-0.686-3.527-0.373-0.729 0.285-0.659 0.387-0.897 0.627-0.272 0.31-0.358 0.884 0.63 1.022"/>
   <path id="path18" d="m40.668 55.32c-0.415 0.547 0.12 0.858 0.666 0.938 0.92 0.16 2.04 0.266 2.95 0.768 0.932 0.54 1.973 0.704 2.84 0.66 0.895-0.082 1.649 0.139 2.628 0.215 1.038 0.075 1.822-0.05 2.132-0.498 0.303-0.451 0.097-1.267-0.632-1.639-0.764-0.404-1.223-0.583-1.979-0.54-0.768 0.039-0.969 0.475-1.487 0.549-0.487 0.035-1.03 0.094-1.97-0.51-1.009-0.672-2.385-0.93-3.283-0.816-0.519 0.036-1.46 0.317-1.865 0.873m-3.008 3.349c-0.231 0.656 0.17 1.384 1.09 1.399 0.69 0.019 1.12-0.298 1.601-0.438 0.452-0.106 1.386-0.013 2.012 0.457 0.63 0.471 2.273 1.306 3.548 1.289 0.658-6e-3 2.14-0.04 3.466 0.934 0.417 0.306 1.712 1.517 2.983 0.506 0.93-0.746 0.674-1.27 0.46-1.989-0.255-0.87-1.63-1.495-2.05-1.76-0.593-0.403-1.645-0.632-3.16-0.21-0.603 0.171-1.71 0.19-2.929-0.548-1.25-0.772-1.671-1.04-2.431-1.239-0.798-0.23-2.19-0.02-2.84 0.226-0.488 0.181-1.51 0.72-1.75 1.373m26.393-12.954c0.418-2e-3 1.026-0.673 1.517 0.043 0.492 0.712 0.7 1.222 0.91 1.491 0.25 0.308 0.55 0.495 0.722 0.488 0.133 0 0.709-0.025 0.921 0.525 0.247 0.578 0.387 0.913 0.667 1.083 0.279 0.173 0.77 0.82 0.497 1.377-0.238 0.581-0.24 1.037-0.222 1.59 0.044 1.472 1.358 1.623 1.775 1.481 0.55-0.208 1.33-1.114 1.462-1.493 0.168-0.412 0.33-1.471 0.257-1.875-0.04-0.447-0.725-1.277-1.213-1.621-0.456-0.302-0.45-0.574-0.515-1.515-0.07-0.918-0.568-1.879-1.362-2.036-0.797-0.172-1.06 7e-3 -1.173-0.879-0.11-0.882-1.494-1.716-2.43-1.708-0.968-0.02-1.99 0.035-2.841 1.338-0.576 0.896-0.01 1.793 1.028 1.71"/>
   <path id="path20" d="m61.19 48.245c4e-3 0.24 0.646 0.935 1.31 1.029 0.69 0.063 2.46 0.728 2.512 2.41 0.01 0.607-0.019 1.553 0.44 2.195 0.455 0.644 0.584 1.534 0.353 2.526-0.063 0.343-0.46 1.27 0.173 2.24 0.389 0.58 2.31 0.727 2.644-0.477 0.371-1.165 0.555-3.82-0.107-4.731-0.597-0.853-1.33-1.146-0.865-2.758 0.168-0.681-0.108-1.919-0.975-2.047-1.108-0.2-1.467-0.667-1.816-1.359-0.35-0.71-1.962-1.024-2.792-0.775-0.48 0.142-1.025 0.415-0.876 1.747"/>
   <path id="path22" d="m60.818 50.442c-0.652 0.34-0.918 0.966-0.988 1.384-0.064 0.4 0.12 1.558 0.471 1.96 0.384 0.441 1.637 1.147 1.51 2.102-0.03 0.443 0.256 1.115 0.762 1.49 0.271 0.206 0.473 0.894 0.072 1.749-0.41 0.86-0.578 2.106-0.506 2.582 0.114 0.652 1.114 1.004 1.945 0.93 0.83-0.083 1.438-1.072 1.507-1.352 0.102-0.307 0.104-1.472-0.463-2.425-0.528-0.918-0.955-1.255-0.482-2.18 0.508-0.96 0.396-2.844-0.33-3.29-0.84-0.524-1.015-0.625-1.06-1.476-3e-3 -0.276-0.15-0.89-0.532-1.264-0.49-0.473-1.08-0.667-1.906-0.21"/>
  </g>
  <path id="path26" d="m897.93772-221.70346v-59.99448l-19.31935 8.99702c-4.32072 2.20885-12.18637 7.98418-12.18637 15.95758v43.42273c0 6.89592 9.35258 11.29206 15.40806 10.23613 0 0 16.09766-0.6465 16.09766-18.61898zm-32.54011 41.86037c-9.98831-0.75424-34.89981-3.12471-37.63662-31.59192-0.73269-7.43466-0.73269-13.36084-0.73269-23.31682 0-33.68224 5.07496-41.3755 21.16184-49.46743 12.08941-6.1309 40.78288-19.48096 44.31704-21.31269 3.67423-1.83173 5.43054-4.32072 5.43054-7.9734v-21.89454c0-6.18477-0.3017-12.53117-15.77441-12.61737-15.16025-0.097-15.35419 6.79894-15.35419 12.94062v19.25469a7.9195295 7.9195295 0 0 1-6.78817 6.64809h-22.91815a7.7363567 7.7363567 0 0 1-6.82049-6.78816v-18.50046c0-18.74827 14.65382-35.74024 51.55775-35.74024 36.18201 0 56.10475 11.92778 56.10475 56.69737v99.15035s0.34479 19.53484 5.37666 23.1552c0 0 1.76708 2.1873 1.86405 4.77326v0.36635s0.35557 2.98464-2.77991 2.98464h-22.49793s-5.49519 0.88354-6.3033-6.68042c-11.96011 9.83746-30.64373 10.0745-30.64373 10.0745zm-665.359-87.68589h-26.18294c-3.83585 0.40944-7.18683 3.37253-7.18683 8.93236v31.62425c0 10.08528-0.58185 22.17468-26.67858 22.17468-26.70013 0-26.70013-14.38445-26.76478-22.17468v-154.70559c0-13.68408 11.66918-16.61485 27.08802-16.61485 15.40807 0 26.99105 5.09652 26.99105 15.89294v34.69508a7.9734038 7.9734038 0 0 0 7.40234 7.04676h23.85556c4.2884-0.30169 7.58551-3.12471 7.66093-7.41311v-33.81154c0-36.90393-31.91516-41.3755-66.31932-41.2893-45.836299 0.10775-74.325056 16.70105-74.325056 47.765v145.42842c0 23.59697 15.548138 49.58595 74.831476 49.58595 49.33813 0 68.0002-16.88422 68.0002-46.80603v-31.59192c-0.29092-6.1309-2.17652-8.72765-8.74919-8.72765m142.81013 52.15037s1.53003 19.53484 5.75378 24.41586c0 0 1.50848 1.7132 1.627 4.29917v0.44177s0.36635 3.02774-2.93076 3.02774l-35.2877-0.14007s-9.37414-5.61371-9.15864-25.73039l0.22627-35.61095v-85.97269c0-8.90004-4.2884-15.13869-15.23567-14.95552-19.17927 0.33403-22.91815 29.69555-22.91815 29.69555l0.2155 126.07675a8.0703777 8.0703777 0 0 1-7.39156 6.80972h-25.42869a8.1350269 8.1350269 0 0 1-7.47776-7.03599v-197.66499s-1.09904-26.10751 32.04446-30.84846c4.4177-0.65726 7.38079 0.72192 7.57474 4.06213v67.76316c11.44291-21.0541 28.79045-23.70472 34.69508-23.70472 18.28495 0 43.74597 8.73842 43.74597 36.78541zm391.49412-102.16731 0.0862-49.59673c0.0323-1.83173-1.76708-3.48028-4.14832-3.30789-1.53003-0.10774-2.54287 0.0862-4.30995 0.2155-35.81567 4.13755-32.02291 31.07473-32.02291 31.07473v130.35437c-0.0646 26.02132 8.22122 25.71962 8.22122 25.71962h36.59146c3.34021 0 2.93077-3.07084 2.93077-3.07084v-0.43099a7.0252153 7.0252153 0 0 0-1.93948-4.3746c-4.22375-5.79688-5.38744-24.6529-5.38744-24.6529v-101.9195zm-328.85981 0 0.0646-49.59673c0.0431-1.83173-1.76707-3.48028-4.14832-3.30789-1.53003-0.10774-2.5321 0.0862-4.30995 0.2155-35.81567 4.13755-32.02291 31.07473-32.02291 31.07473v130.35437c-0.0539 26.02132 8.232 25.71962 8.232 25.71962h36.58068c3.34021 0 2.93077-3.07084 2.93077-3.07084v-0.43099c-0.1293-2.6614-1.61623-4.3746-1.61623-4.3746-3.85741-5.33356-5.71069-24.6529-5.71069-24.6529v-101.9195zm399.26281-25.41792h10.48395c3.12472 0 6.55112-2.71527 6.6481-5.99083v-12.91907c-0.18317-3.23246-3.68501-6.10935-6.92824-6.05548h-10.20381v-47.40942c0.0323-1.83173-1.44383-3.37254-3.92205-3.12472-1.93947-0.0862-2.70449-0.0323-4.30995 0.0323-33.83309 3.66345-31.43029 30.87-31.43029 30.87l-0.0754 19.63181h-10.0745c-3.67423 0-6.94979 3.04929-6.94979 6.5188v12.01398c0 3.37253 3.27556 6.4326 6.74507 6.4326h10.35465v134.31953c-0.10775 25.80581 6.86359 25.51489 6.86359 25.51489h37.33493c3.26478 0 2.88766-3.06006 2.88766-3.06006v-0.42022a7.3915609 7.3915609 0 0 0-1.61623-4.32073c-5.17194-5.8292-5.81843-24.4374-5.81843-24.4374v-127.57446zm-304.15303 127.01417 0.0862-119.73036s0.10775-10.94727-19.57794-10.94727c-19.26546 0-19.13617 10.81797-19.13617 10.81797v119.97818c-0.10775 0 0.0323 10.45162 19.30857 10.45162 16.2916 0 18.79137-6.91746 19.24392-9.60041 0.10775-0.60339 0.0754-0.96973 0.0754-0.96973m43.49815 119.02998h-35.19072s-7.08987 1.961026-7.15452-24.060285l0.0862-11.50756v-18.08023l-0.0323-40.56739-0.097 0.0108s-0.19394 8.93236-28.5534 8.93236c-48.29297 0-47.87275-33.69302-47.87275-33.69302l-0.23705-122.52104s-3.685-33.50985 53.31406-33.50985c32.68018 0 35.74024 11.93856 35.74024 11.93856s3.94361-5.45209 8.18891-8.16735c3.07083-1.96103 6.14167-3.21092 9.58963-3.74966 6.94979-1.07749 7.59628 5.18271 7.59628 5.18271l0.0539 28.27326v146.53824h-0.0646l-0.0754 62.96834s0.53875 19.76111 5.99083 23.11209c0 0 1.46539 2.90922 1.56236 5.46286v0.420221s0.38789 3.016964-2.84457 3.016964m133.59762-95.357595c-3.26479-5.41976-4.82714-6.71275-5.08574-19.43787v-147.63727s0.75424-7.86566-9.83746-7.86566h-20.06281s-9.93443-0.53874-9.93443 7.90876v143.11182s0 11.24897-17.80008 11.24897c-18.24186 0-18.16643-11.24897-18.16643-11.24897v-117.04741h-0.0539v-31.85052c0.10775-3.17858-2.80146-5.10728-7.51008-4.116-32.74483 4.74095-30.63296 31.67812-30.63296 31.67812v4.30995h-0.0216v125.19322s0.24783 28.30558 52.4413 28.30558c30.01878 0 35.93419-11.39981 35.93419-11.39981s3.93283 8.83539 15.33264 8.83539h13.51168s4.36383 0.47409 5.64604-2.25195c0.82966-2.20885-1.14214-3.40486-3.77121-7.74713m250.08474-189.17439-0.3017-24.38353c1.54081 0.0323 3.82508 0 6.91747 0 3.06006-0.0431 4.74094-0.0431 5.09651-0.0431 1.93948 0.10774 3.55571 0.48487 4.89179 1.21756 2.19807 1.14213 3.30789 3.10316 3.31866 5.73223 0 2.11187-0.53874 3.5557-1.6701 4.54699a7.9518541 7.9518541 0 0 1-4.2884 1.61623 10.300776 10.300776 0 0 1 3.53416 1.34686c1.4546 1.19601 2.18729 2.95232 2.20884 5.48441l0.0754 2.15497a2.1226494 2.1226494 0 0 0 0.0539 0.76502 1.993351 1.993351 0 0 0 0.1724 0.66804l0.2155 0.74347-6.174 0.0431a15.882158 15.882158 0 0 1-0.44177-3.36176 12.121729 12.121729 0 0 0-0.40945-2.98464 2.8661154 2.8661154 0 0 0-1.86405-1.7563 5.7861052 5.7861052 0 0 0-2.20885-0.37712l-1.42228-0.0754h-1.32531l0.0647 8.663zm11.52911-19.64259a9.3525872 9.3525872 0 0 0-3.69578-0.50642h-1.58391l0.0431 7.16529 2.53209-0.11853a6.5726707 6.5726707 0 0 0 3.54494-0.85121c0.82966-0.68959 1.22833-1.65933 1.22833-2.98464-0.0216-1.31453-0.71114-2.2304-2.058-2.69372zm13.84571 22.95047c-4.30995 4.16988-9.44957 6.28175-15.51582 6.3895a21.786787 21.786787 0 0 1-15.94681-6.22788c-4.30994-4.13755-6.49724-9.29871-6.57267-15.55891-0.0754-6.44337 2.17653-11.82003 6.75585-16.1192 4.35304-4.04058 9.40646-6.03393 15.27876-6.14168 6.1309 0.0215 11.42137 2.04723 15.80674 6.35717 4.40692 4.23453 6.64809 9.39569 6.72352 15.49427a21.097196 21.097196 0 0 1-6.52957 15.80673zm-28.98441-28.18706a17.498389 17.498389 0 0 0-5.19348 12.72512c0.0862 5.06419 1.91792 9.39569 5.59215 13.01605a17.563038 17.563038 0 0 0 12.98372 5.15038c5.04264-0.0216 9.37414-1.86405 12.97295-5.51673 3.52338-3.59881 5.27968-7.9734 5.24736-13.03759a17.563038 17.563038 0 0 0-5.49519-12.6066 17.595363 17.595363 0 0 0-13.09146-5.40898c-5.06419 0.0215-9.47111 1.90715-13.01605 5.67835zm-536.95487 26.98028c14.47065 0 20.51535-4.16988 20.51535-25.03003 0-19.87963-5.743-25.01925-20.51535-25.01925-17.51994 0-19.79344 8.29665-19.79344 25.6873 0 21.08642 6.3033 24.36198 19.79344 24.36198m328.85981 0c14.48142 0 20.52613-4.16988 20.52613-25.03003 0-19.87963-5.74301-25.01925-20.52613-25.01925-17.50916 0-19.78266 8.29665-19.78266 25.6873 0 21.08642 6.3033 24.36198 19.78266 24.36198" fill="#fefefe" stroke-width="10.7749"/>
 </g>
</svg>
