<svg width="184" height="60" viewBox="0 0 184 60" fill="none" xmlns="http://www.w3.org/2000/svg">
<g clip-path="url(#clip0_1_304)">
<mask id="mask0_1_304" style="mask-type:luminance" maskUnits="userSpaceOnUse" x="0" y="0" width="184" height="60">
<path d="M183.333 0H0V60H183.333V0Z" fill="white"/>
</mask>
<g mask="url(#mask0_1_304)">
<path d="M70.402 52.3397C63.5802 47.9475 54.3221 47.1768 39.3912 51.317C23.4739 55.0556 18.1669 57.4521 11.1973 52.6412C8.51971 50.2779 7.55973 46.4727 8.27657 40.9916C9.93917 32.0564 14.4322 23.4577 22.4129 13.9197C26.8677 8.95801 30.9998 4.70001 36.4562 2.99016C40.6381 1.91753 40.2471 5.20231 39.7411 5.67209C39.2072 5.67209 38.3102 5.75615 37.617 6.20829C37.0544 6.6444 35.51 8.05258 35.4271 9.94681C35.3074 12.8466 38.31 12.243 39.605 10.6509C41.0008 8.85677 43.0638 5.42105 41.4411 2.21896C40.7609 1.07921 39.5857 0.291514 38.1266 0.0232989C33.1303 -0.262095 28.4771 2.1184 24.1828 4.75017C14.7911 11.2709 7.27832 20.3064 3.02728 30.1967C0.576334 36.1641 -1.64016 44.7122 1.6823 51.6695C4.2524 56.497 9.58832 59.0612 15.9543 58.525C20.4192 58.0561 25.8181 56.6138 29.4492 55.7429C33.0804 54.8707 51.6679 48.4846 57.7752 59.5992C57.7752 59.5992 59.806 55.6589 64.8814 55.5748C69.054 55.19 75.0736 56.7821 79.4573 60C77.9968 57.8048 73.8562 54.5695 70.402 52.3397Z" fill="#E61D2A"/>
<path d="M41.2867 15.0426C37.8102 12.7629 30.8229 17.1213 25.2264 24.5972C20.1087 31.303 17.8988 39.0968 20.3037 42.7009C23.8812 46.9417 30.5225 40.7732 33.3467 37.4715L33.7111 37.0856C35.6317 35.0237 37.1156 32.5426 38.5518 30.1621C38.5518 30.1621 39.8718 27.983 39.9348 27.8822C40.7506 27.7319 41.7333 27.4971 42.8406 27.1785C42.8248 27.2285 38.604 34.3193 39.0346 37.8389C39.1687 38.9127 39.0663 42.8351 42.8979 44.025C48.0047 44.8805 52.0825 40.9239 55.6799 37.4037C55.6799 37.4037 56.293 36.8176 56.6397 36.4829C56.5519 36.8341 56.4376 37.3025 56.4376 37.3025C54.9425 42.4991 56.9578 43.5894 58.2184 43.9918C62.0283 45.0988 66.5798 39.5666 66.5945 39.5666C66.4764 41.3092 66.1313 42.7508 67.9692 43.9075C69.704 44.5283 71.4597 43.5821 72.7941 42.6936C77.6009 39.3076 81.4733 34.0081 84.6012 29.4271H82.6061C82.5825 29.4271 77.6829 36.5248 74.5014 38.0675C74.4963 38.0675 73.9175 38.3646 73.5838 38.1296C73.1708 37.7773 73.3338 37.0452 73.5888 36.5267C73.6049 36.4928 85.8729 15.2261 85.8729 15.2261H80.0805C80.0805 15.2261 79.4477 16.2493 79.3962 16.3164C79.3572 16.2829 79.2644 16.107 79.2 16.0227C75.6112 11.0611 67.4843 18.693 61.3658 27.5434C59.0102 30.9466 56.0111 34.7784 52.9013 37.5441C52.9013 37.5441 48.2943 41.765 46.3258 38.7324C45.6062 37.4582 45.8276 35.5954 46.2335 34.372C48.5254 27.8512 52.4746 21.9333 56.9685 18.3625C58.2372 17.3741 59.6161 17.0883 60.3004 17.5074C60.9524 17.8936 61.0576 18.8483 60.6451 19.5022C59.5985 19.4688 58.7599 19.7867 58.0782 20.4908C56.7352 21.899 56.2687 23.257 56.6956 24.5312C58.7698 27.4813 62.9065 21.6477 62.7064 18.094C62.6349 16.8198 61.9547 15.6132 60.9398 15.0259C59.427 14.1212 57.1193 14.3555 55.6259 15.0768C53.6266 15.8308 50.4618 18.4623 48.6145 20.5077C46.2889 23.0728 42.3005 25.9222 41.0531 25.6031C41.4617 24.5131 44.8307 17.6238 41.2867 15.0426ZM69.2131 25.2344C70.34 23.6757 73.6196 19.5015 74.4191 18.7977C77.1082 16.4332 78.183 17.4735 78.276 18.2106C75.7664 22.7029 72.8044 27.8494 70.0196 32.4762C70.0253 32.4597 69.1481 33.8003 69.1481 33.8003C67.9181 35.6774 66.6797 37.2867 64.6596 38.4097C64.3715 38.494 63.8967 38.5276 63.5807 38.2922C63.2003 38.0407 63.0502 37.6215 63.093 37.1854C63.214 35.7443 64.6823 31.3364 69.2131 25.2344ZM37.7016 27.933C37.7016 27.933 37.6512 28.0844 37.6262 28.1339C37.6198 28.1339 35.1008 32.2403 35.1008 32.2403C33.5805 34.269 31.6823 36.8176 29.3095 38.0407C28.6062 38.2755 27.6341 38.4266 27.1386 37.8068C26.0883 36.5494 26.6296 34.8061 27.0694 33.3981L27.225 32.8951C28.4859 29.4759 30.4865 26.4579 32.4337 23.6585C32.458 23.642 32.5126 23.6253 32.5323 23.6253C32.5368 23.642 32.5446 23.642 32.5481 23.6757C33.77 26.0221 36.0612 27.1112 37.7747 27.6149C37.785 27.6149 37.796 27.6316 37.796 27.6653C37.7962 27.7152 37.7683 27.7828 37.7016 27.933ZM40.0881 23.0891C40.0771 23.1225 38.9661 25.6702 38.9661 25.6702C38.8055 25.8042 38.5516 25.7374 38.2605 25.6702L37.7619 25.586C36.196 25.1001 35.0148 24.0607 34.6507 22.8204C34.1483 20.4065 36.2115 18.5123 37.1206 17.8253C37.9928 17.2213 39.3488 16.903 40.1362 17.5235C40.6218 18.0936 40.8059 18.8309 40.8059 19.636C40.8061 20.7253 40.4697 21.9489 40.0881 23.0891Z" fill="#E61D2A"/>
<path d="M113.316 30.8665C112.758 29.6598 111.432 28.8886 110.019 28.9722C105.43 29.3916 100.942 33.1631 98.5852 38.5771C97.3486 41.3601 96.6737 43.6563 96.2312 47.3105C97.658 45.6682 100.568 42.9696 103.871 41.4943C103.871 41.4943 104.321 37.991 106.612 34.873C107.479 33.5818 109.215 31.5034 111.163 32.0564C112.866 32.6267 112.268 37.3371 110.005 41.8956C108.33 45.2486 105.768 48.6021 103.176 50.9148C100.884 52.8594 97.4932 55.206 94.5264 53.3959C92.6578 52.29 91.7047 49.9762 91.9061 46.9924C92.799 38.5274 96.6542 31.3193 102.171 23.1056C107.86 15.4785 114.131 7.65036 122.579 3.47573C124.302 2.6042 125.898 2.40309 127.277 2.93952C127.277 2.93952 119.347 7.29785 115.567 15.361C114.605 17.4064 113.268 20.1715 114.615 22.6191C115.318 23.8929 116.568 23.9936 117.574 23.9265C122.208 22.8534 125.201 18.5288 127.647 14.5731C129.065 11.5726 130.326 8.58877 130.326 5.26963C130.326 4.86742 130.305 4.33122 130.271 3.92855C132.484 2.7556 137.024 4.83375 137.024 4.83375C140.571 6.00762 148.124 11.7911 150.672 12.8969C151.915 11.4555 153.957 9.2766 155.107 8.18679L153.442 7.16409C150.777 5.53808 147.96 3.99566 145.187 2.47043C138.89 -0.96552 133.764 0.241107 131.155 1.17998C130.13 1.54851 129.193 1.86712 129.193 1.86712C127.257 -0.244934 124.082 -0.0442874 121.742 0.526042C113.329 2.93975 105.517 8.82332 97.1421 19.0322C90.9849 27.0283 87.1656 33.9348 85.1299 40.757C83.5608 45.3496 83.0839 52.1052 86.9137 56.1117C90.17 59.5135 94.4877 58.7767 97.5367 57.5533C104.143 54.3013 110.08 47.294 113.039 39.2311C113.753 36.8343 114.545 33.4483 113.316 30.8665ZM128.507 5.60519C127.632 15.6295 119.836 21.5137 117.907 21.9824C116.738 22.2167 114.743 21.6974 116.524 17.4905C119.146 11.8241 123.623 7.0136 128.427 4.54927C128.544 4.96843 128.541 5.23596 128.507 5.60519Z" fill="#E61D2A"/>
<path d="M174.752 6.87875C170.559 9.25947 166.212 10.8012 160.949 10.265C159.491 11.9082 158.071 13.6011 156.762 15.3441C164.148 17.2216 171.978 13.0477 176.345 9.07532C180.964 5.0688 183.333 0.0235596 183.333 0.0235596C183.333 0.0235596 179.871 3.97922 174.752 6.87875Z" fill="#E61D2A"/>
<path d="M92.3963 20.2654L95.5004 15.2263H89.9995L86.8966 20.2654H92.3963Z" fill="#E61D2A"/>
<path d="M160.927 52.8063C160.336 53.2085 159.505 52.8993 159.816 51.9776C160.589 49.6308 163.666 44.8482 163.666 44.8482L172.236 29.6564H166.366C166.087 30.1145 165.49 31.1665 165.49 31.1665C165.219 30.7144 164.406 29.7088 164.072 29.4917C162.638 28.5858 160.534 29.0141 159.082 29.8353C152.771 33.5236 148.167 40.8108 144.535 46.4937C144.535 46.4937 140.712 52.8109 138.59 53.2807C136.934 53.4149 137.105 51.1844 137.176 50.6647C137.817 46.9092 139.304 43.339 140.803 40.1037C143.851 37.9917 147.33 35.2259 150.491 32.192C157.352 25.6371 163.136 18.2111 163.982 16.5516C163.982 16.5516 163.067 16.7362 161.986 16.7695C156.708 24.1283 145.907 34.8235 142.632 36.4156C144.083 32.9283 153.455 16.2832 161.431 8.32101L162.686 7.1137C164.626 5.21947 166.637 3.27508 168.204 2.95648C168.37 2.93976 168.583 2.95648 168.767 3.34265C168.837 4.81749 168.288 5.9073 167.657 7.1476L166.774 8.95823C166.774 8.95823 168.025 8.72345 168.847 8.45455C169.8 6.66179 170.856 4.6496 170.467 2.25307C170.337 1.48186 169.778 0.895271 169.048 0.761049C166.669 0.308449 164.076 2.068 161.99 3.49336L161.906 3.5433C151.18 11.9416 142.124 24.0445 134.206 40.5728C133.632 41.008 131.415 41.5282 131.038 41.2765C131.82 39.6676 132.804 37.5047 133.297 35.1579C133.382 34.4873 133.461 33.8003 133.461 33.1299C133.461 31.6871 133.115 30.3298 131.822 29.3914C130.306 28.6369 128.432 28.9892 127.168 29.5588C121.508 31.9057 117.278 37.7061 114.226 42.4829C112.584 45.5178 110.947 48.7682 110.494 52.4902C110.174 55.4065 110.824 57.284 112.483 58.2231C114.189 59.0941 116.337 58.1887 117.18 57.7533C122.914 54.736 126.921 48.685 130.079 43.1528C130.204 43.1363 131.929 43.0864 133.233 42.7506C133.25 42.7506 133.257 42.7506 133.286 42.7683C133.212 43.0186 132.538 45.0308 132.538 45.0308C130.536 50.8974 129.61 54.8874 131.501 57.2505C134.203 60.5866 138.675 57.1337 142.314 52.5734C141.533 58.038 144.367 58.8933 146.526 58.4746C149.008 57.8044 151.773 55.1552 153.056 53.7978C152.644 55.39 152.756 58.24 155.013 58.5247C156.56 58.8106 157.718 57.9695 159.057 57.2485C163.863 54.6332 169.615 45.9186 171.108 43.3991H169.15C167.027 46.606 164.326 50.8106 160.927 52.8063ZM117.794 52.2227C117.489 51.7701 117.388 51.2751 117.378 50.7401C117.32 47.4532 120.858 41.5669 123.355 38.3602C123.36 38.3602 123.36 38.3602 123.36 38.3602C124.407 40.6507 126.777 42.123 128.208 42.7435C126.431 46.6999 120.337 55.1728 117.794 52.2227ZM129.211 40.9748C129.041 41.0928 126.053 40.0866 125.475 37.3208C124.985 34.9396 126.626 33.0791 128.213 32.1411C128.894 31.6045 129.921 31.4205 130.673 31.6876C131.372 32.1576 131.561 32.9964 131.561 33.9002C131.561 34.4545 131.488 35.0239 131.423 35.5434C131.423 35.5434 131.411 35.6444 131.409 35.6611C130.911 37.5212 130.149 39.3486 129.211 40.9748ZM153.181 51.1668C153.178 51.1668 152.614 51.6695 152.614 51.6695C151.807 52.3899 150.978 53.1611 149.976 52.7754C149.7 52.6748 149.505 52.3065 149.458 52.0207C149.413 49.9588 150.342 48.0483 151.243 46.188L151.474 45.7015C154.065 41.3768 157.077 36.2809 161.501 32.7444C162.247 32.2068 163.056 31.7552 163.909 32.1074C164.106 32.2914 164.335 32.6102 164.335 32.9283C164.335 33.0294 164.245 33.2973 164.193 33.3807C162.958 35.3764 161.781 37.4715 160.637 39.4828C158.4 43.4559 156.081 47.5622 153.181 51.1668Z" fill="#E61D2A"/>
</g>
</g>
<defs>
<clipPath id="clip0_1_304">
<rect width="184" height="60" fill="white"/>
</clipPath>
</defs>
</svg>
