<svg width="460" height="144" viewBox="0 0 460 144" fill="none" xmlns="http://www.w3.org/2000/svg">
<path d="M321.605 11.0575C321.605 11.0575 312.999 14.4833 302.991 25.5146C292.982 36.5459 287.153 48.9505 291.467 52.2494C293.124 53.5033 296.945 53.7421 303.879 47.4727C310.278 41.9169 315.301 34.9524 318.552 27.1268C323.031 16.2074 321.605 11.1919 321.605 11.0725M376.381 30.9034C365.26 25.2011 357.132 18.2152 348.676 13.8937C340.607 9.75139 335.39 8.01982 328.867 8.89307C327.957 9.05528 327.059 9.27972 326.18 9.5648C326.18 9.5648 329.539 21.0364 316.171 40.3076C302.632 59.8474 290.347 59.713 286.854 54.3467C283.197 48.6818 287.922 37.1355 295.811 26.8581C304.073 16.1104 318.582 7.19882 318.582 7.19882C318.582 7.19882 313.955 4.3701 302.595 10.8112C291.512 17.0658 272.434 31.9931 254.731 57.1679C237.027 82.3428 233.519 96.1954 230.981 107.1C228.444 118.004 230.75 129.685 242.841 129.685C254.932 129.685 269.009 111.242 272.979 104.831C280.361 92.889 285.175 74.5732 275.129 77.0884C270.18 78.3274 266.172 83.8057 263.642 89.0825C262.045 92.4717 260.824 96.0257 260 99.6809C256.49 101.128 253.193 103.046 250.2 105.383C246.871 107.849 243.76 110.596 240.901 113.593C240.901 113.593 240.945 104.876 247.894 90.7693C254.843 76.663 267.598 70.2219 274.823 69.6173C281.331 69.0948 289.802 74.6179 282.622 94.9937C275.442 115.369 254.261 140.141 232.011 140.447C211.479 140.731 198.044 114.526 226.623 68.7963C258.254 18.2749 295.355 2.77288 307.402 1.04878C319.448 -0.675324 323.366 4.63879 323.366 4.63879C330.618 1.66382 338.45 0.372554 346.272 0.862187C360.983 1.85485 372.358 12.2666 387.375 19.581C383.471 23.3128 379.747 27.2313 376.388 30.9034M442.471 13.8937C432.276 20.4319 418.17 26.358 404.616 25.0892C401.182 28.6344 397.51 32.7394 393.831 37.2176C417.334 41.8675 437.926 27.3059 448.875 14.9088C452.867 10.4516 456.296 5.52098 459.085 0.227777C454.101 5.41984 448.522 10.0067 442.464 13.8937M411.169 80.1112C411.347 79.8013 411.492 79.4736 411.602 79.1334C411.532 78.5952 411.28 78.0972 410.887 77.7223C410.495 77.3475 409.986 77.1185 409.445 77.0735C407.206 76.969 404.153 77.3944 396.144 86.2612C389.501 93.5835 383.783 101.695 379.12 110.414C374.537 118.788 372.679 125.027 375.313 126.64C376.169 127.083 377.162 127.184 378.09 126.923C379.874 126.498 381.896 124.826 384.971 121.266C386.412 119.594 388.009 117.228 389.92 114.608C395.219 107.398 408.534 84.7013 411.169 80.1112ZM327.979 89.7542C329.315 86.2612 331.017 79.4021 327.479 76.7078C323.68 73.8492 313.992 80.559 313.94 87.4405C313.873 94.4862 320.762 97.6732 322.411 98.121C323.351 98.3747 323.68 98.3374 324.135 97.5836C325.596 95.066 326.881 92.4499 327.979 89.7542ZM320.65 102.569C318.249 101.461 316.009 100.032 313.992 98.3225C311.969 96.6256 310.279 94.5681 309.006 92.2545C308.872 92.0306 308.738 92.2023 308.588 92.4038C308.439 92.6053 307.842 93.1502 302.677 100.718C297.512 108.286 289.578 123.968 296.759 126.64C301.356 128.349 309.006 120.295 313.179 114.959C316.021 111.234 318.598 107.313 320.888 103.226C321.105 102.771 320.888 102.666 320.657 102.569M402.1 120.684C400.152 123.803 397.928 129.789 404.34 126.065C412.184 121.534 423.357 104.584 423.357 104.584H428.425C423.813 111.675 418.679 118.411 413.065 124.736C405.116 133.543 395.42 141.544 388.591 140.753C380.613 139.82 383.113 129.349 383.113 129.349C383.113 129.349 371.701 141.5 363.804 140.626C353.139 139.447 356.393 126.266 356.393 126.266C356.393 126.266 344.332 141.067 336.114 140.612C323.232 139.865 326.471 124.191 330.054 113.153C331.972 107.249 333.748 102.614 333.748 102.614C333.748 102.614 332.472 102.95 329.725 103.36C328.292 103.562 325.68 103.711 325.68 103.711C325.68 103.711 320.314 113.175 316.022 118.862C311.731 124.55 293.489 144.157 282.757 140.231C272.83 136.604 276.114 121.408 281.891 109.331C290.325 91.7246 314.044 66.4303 327.725 69.774C341.906 73.2148 328.046 99.0912 328.046 99.0912C328.046 99.0912 328.046 99.1883 328.195 99.2554C328.479 99.3599 329.218 99.442 330.927 99.1062C332.698 98.7449 334.434 98.2279 336.114 97.5612C336.114 97.5612 350.37 67.7066 366.118 48.1742C381.866 28.6419 413.281 -4.99678 425.611 3.1386C428.596 5.13886 427.253 12.0278 423.193 20.3871C421.364 20.9811 419.505 21.4794 417.625 21.8798C420.342 16.9463 422.14 12.7891 422.678 9.88574C424.536 -0.205115 400.973 21.0812 384.135 43.9498C373.993 57.7363 364.982 72.3206 357.192 87.5599C360.233 85.7048 363.137 83.632 365.879 81.3576C373.39 75.1301 380.528 68.4659 387.255 61.3998C393.734 54.7676 399.81 47.7542 405.452 40.3971C407.244 40.3104 409.031 40.1261 410.803 39.8448C404.652 48.1938 397.944 56.1183 390.726 63.5643C384.009 70.3562 376.739 77.6631 370.425 82.9698C364.785 87.7659 358.836 92.1864 352.616 96.2028C352.616 96.2028 337.891 125.901 345.899 127.804C350.609 128.938 359.908 114.616 359.908 114.616C359.908 114.616 372.044 96.0983 379.359 87.7465C389.338 76.4018 397.928 69.8337 406.511 69.7143C411.512 69.6248 414.46 74.9389 414.46 74.9389L416.811 71.2966H431.291C431.291 71.2966 404.25 117.183 402.086 120.639M442.464 13.8937C432.268 20.4319 418.162 26.358 404.608 25.0892C401.175 28.6344 397.503 32.7394 393.823 37.2176C417.326 41.8675 437.918 27.3059 448.868 14.9088C452.862 10.452 456.293 5.52138 459.085 0.227777C454.101 5.41984 448.522 10.0067 442.464 13.8937ZM239.117 36.4041H225.346L217.562 48.9803H231.332L239.117 36.4041ZM173.914 79.9545C179.773 71.9236 195.94 43.7782 195.94 43.7782C195.871 43.2405 195.621 42.7426 195.229 42.3677C194.838 41.9927 194.33 41.7635 193.79 41.7182C191.551 41.6137 187.819 42.3675 180.408 51.6448C172.996 60.9222 167.242 68.3037 163.047 75.9838C158.45 84.3655 156.442 90.2767 159.084 91.8814C159.941 92.3109 160.926 92.4118 161.853 92.165C163.57 91.7321 165.816 90.008 168.899 86.4627C170.347 84.8058 171.989 82.5742 173.914 79.9545ZM100.024 41.8899C96.2178 39.0163 86.5375 45.7411 86.4852 52.6076C86.4255 59.6608 95.1953 61.8178 96.3298 61.87C96.6635 61.8978 96.998 61.8278 97.2926 61.6685C97.495 61.5505 97.6564 61.3734 97.7553 61.161C98.7864 59.1348 99.7131 57.0572 100.532 54.9363C101.868 51.4433 103.562 44.5842 100.024 41.8899ZM94.2847 66.1691C91.66 65.3491 89.1516 64.1953 86.8211 62.7358C84.5627 61.2635 82.7262 59.2289 81.492 56.8321C81.3577 56.6082 81.2084 56.7798 81.0741 56.9813C80.9397 57.1829 80.1635 58.1531 74.9837 65.7511C69.804 73.3491 62.1313 88.8884 69.3188 91.5604C73.9015 93.2994 81.6413 85.179 85.8433 79.8649C88.9878 75.6888 91.8934 71.338 94.546 66.8334C94.7176 66.3781 94.546 66.2736 94.2922 66.1915M206.754 70.8488H211.8C211.8 70.8488 186.52 107.421 172.243 105.719C164.271 104.786 166.637 94.9489 166.637 94.9489C166.637 94.9489 155.442 108.055 145.157 105.398C135.827 103.002 141.851 87.4853 141.851 87.4853C140.791 87.9107 120.602 110.667 106.413 105.211C91.568 99.4794 99.2779 80.4247 102.099 74.6926C104.495 69.8636 107.145 65.1615 107.145 65.1615C107.145 65.1615 104.868 65.8034 103.413 66.1318C101.957 66.4602 99.8526 66.8781 99.8526 66.8781C99.8526 66.8781 92.8293 78.2901 88.5377 83.9848C84.2461 89.6796 66.005 109.249 55.2573 105.353C44.5097 101.457 47.1742 86.418 53.2123 74.4761C63.0046 55.108 86.2389 31.3064 100.233 34.9188C114.369 38.5237 102.666 61.4521 102.666 61.4521C102.666 61.4521 105.48 61.8178 112.22 57.2202C121.923 50.5999 134.73 32.7917 148.598 34.8815C155.136 35.8667 161.226 42.5467 152.897 55.2349C150.24 59.31 145.784 62.9523 142.373 59.3473C140.246 57.1082 142.104 53.0256 144.336 50.2342C145.205 49.0963 146.34 48.1894 147.641 47.5933C148.943 46.9972 150.371 46.7302 151.8 46.8159C151.8 46.8159 154.091 41.5913 148.262 41.6659C143.545 41.7555 131.603 52.7495 124.863 63.8554C118.683 74.0507 109.317 91.4186 118.721 95.2027C127.341 98.6807 143.746 79.2081 151.344 69.0053C158.942 58.8025 176.258 35.6801 190.782 34.7546C195.783 34.4262 198.761 38.9865 198.761 38.9865L200.44 36.3294H214.964C214.964 36.3294 187.61 81.9771 185.476 85.4328C183.796 88.1346 181.565 94.21 187.715 90.8066C193.865 87.4032 206.754 70.8488 206.754 70.8488ZM198.85 143.993C188.156 136.59 175.35 132.853 162.353 133.342C158.835 133.438 155.39 134.362 152.295 136.038C149.201 137.715 146.546 140.098 144.545 142.992C139.007 133.327 128.058 127.393 111.13 127.528C83.7759 127.841 56.6456 140.455 35.1503 140.44C14.5506 140.44 -0.473717 127.49 0.0114196 104.495C0.914521 64.139 35.0159 27.7985 60.4669 11.4456C75.1405 2.04891 87.4107 -0.742497 95.4341 0.160605C101.286 0.809942 108.324 7.572 103.883 17.536C97.3598 32.0975 88.3511 30.9034 88.687 23.9398C88.8736 19.4093 91.8889 16.5582 94.1578 14.9834C95.5983 13.9907 98.1434 13.7071 99.472 13.6773C100.763 12.5876 101.711 4.6164 91.262 7.23614C80.8128 9.85588 68.1247 20.1557 56.0783 33.4634C44.032 46.7711 25.2759 71.9236 20.6409 98.3374C18.4765 110.585 19.8946 132.924 48.9356 132.67C73.5657 132.469 109.869 116.25 143.231 116.586C156.181 116.713 167.451 120.206 176.236 125.625C184.864 130.939 195.208 138.701 198.88 144" fill="black"/>
</svg>
