<?xml version="1.0" encoding="UTF-8" standalone="no"?>
<!-- Created with Inkscape (http://www.inkscape.org/) -->

<svg
   xmlns:dc="http://purl.org/dc/elements/1.1/"
   xmlns:cc="http://creativecommons.org/ns#"
   xmlns:rdf="http://www.w3.org/1999/02/22-rdf-syntax-ns#"
   xmlns:svg="http://www.w3.org/2000/svg"
   xmlns="http://www.w3.org/2000/svg"
   xmlns:sodipodi="http://sodipodi.sourceforge.net/DTD/sodipodi-0.dtd"
   xmlns:inkscape="http://www.inkscape.org/namespaces/inkscape"
   id="svg2"
   version="1.1"
   inkscape:version="0.91 r13725"
   xml:space="preserve"
   width="206.015"
   height="104.53539"
   viewBox="0 0 206.01501 104.53539"
   sodipodi:docname="conaprole.svg"><metadata
     id="metadata8"><rdf:RDF><cc:Work
         rdf:about=""><dc:format>image/svg+xml</dc:format><dc:type
           rdf:resource="http://purl.org/dc/dcmitype/StillImage" /><dc:title></dc:title></cc:Work></rdf:RDF></metadata><defs
     id="defs6"><clipPath
       clipPathUnits="userSpaceOnUse"
       id="clipPath16"><path
         d="m 0,425.197 850.394,0 L 850.394,0 0,0 0,425.197 Z"
         id="path18"
         inkscape:connector-curvature="0" /></clipPath></defs><sodipodi:namedview
     pagecolor="#ffffff"
     bordercolor="#666666"
     borderopacity="1"
     objecttolerance="10"
     gridtolerance="10"
     guidetolerance="10"
     inkscape:pageopacity="0"
     inkscape:pageshadow="2"
     inkscape:window-width="1280"
     inkscape:window-height="657"
     id="namedview4"
     showgrid="false"
     fit-margin-top="0"
     fit-margin-left="0"
     fit-margin-right="0"
     fit-margin-bottom="0"
     inkscape:zoom="1.4449772"
     inkscape:cx="58.907496"
     inkscape:cy="28.916041"
     inkscape:window-x="-8"
     inkscape:window-y="-8"
     inkscape:window-maximized="1"
     inkscape:current-layer="g14" /><g
     id="g10"
     inkscape:groupmode="layer"
     inkscape:label="file_c21f4ce780"
     transform="matrix(1.25,0,0,-1.25,-198.01462,338.59925)"><g
       id="g12"><g
         id="g14"
         clip-path="url(#clipPath16)"><g
           id="g20"
           transform="translate(240.8037,270.8794)"><path
             d="m 0,0 c 34.299,0 61.803,-3.885 76.099,-7.528 l 0.049,0 c 3.995,-1.159 6.272,-3.887 6.272,-7.455 l 0,-53.896 c 0,-6.903 -1.754,-8.319 -6.797,-10.58 -4.962,-2.227 -30.127,-8.627 -62.428,0.921 -5.01,1.495 -9.841,3.338 -14.294,5.09 -33.799,0.084 -60.907,3.936 -74.998,7.51 l -0.049,0.025 c -3.699,1.076 -5.958,3.567 -6.221,6.82 -0.025,0.498 -0.025,4.615 -0.025,44.11 0,3.568 2.543,6.559 6.246,7.455 C -59.553,-3.535 -34.316,0 0,0"
             style="fill:#ffffff;fill-opacity:1;fill-rule:evenodd;stroke:none"
             id="path22"
             inkscape:connector-curvature="0" /></g><g
           id="g24"
           transform="translate(239.6187,214.6709)"><path
             d="m 0,0 c 42.671,-12.874 68.203,-1.206 80.458,4.412 l 1.42,0.656 0,36.266 c 0,3.014 -2.073,4.793 -4.797,5.587 -11.022,2.808 -37.481,7.474 -75.715,7.474 -38.202,0 -64.651,-4.666 -75.698,-7.474 -2.733,-0.794 -4.848,-2.573 -4.848,-5.587 l 0,-36.631 C -65.519,7.868 -37.469,11.307 0,0"
             style="fill:#324595;fill-opacity:1;fill-rule:evenodd;stroke:none"
             id="path26"
             inkscape:connector-curvature="0" /></g><g
           id="g28"
           transform="translate(160.6694,211.1064)"><path
             d="m 0,0 c 0.548,-2.152 2.36,-3.494 4.617,-4.172 10.415,-2.63 34.61,-6.931 69.457,-7.407 C 56.018,-4.36 35.319,3.511 0,0"
             style="fill:#324595;fill-opacity:1;fill-rule:evenodd;stroke:none"
             id="path30"
             inkscape:connector-curvature="0" /></g><g
           id="g32"
           transform="translate(321.6235,217.6367)"><path
             d="m 0,0 c -12.042,-5.478 -38.336,-18.182 -82.546,-4.824 -41.073,12.382 -70.248,6.561 -78.639,4.533 l 0,-4.328 c 48.588,4.882 69.449,-11.389 94.328,-18.76 32.903,-9.762 57.414,-2.707 61.137,-1.021 4.536,2.048 5.72,2.89 5.72,8.812 L 0,0 Z"
             style="fill:#75b532;fill-opacity:1;fill-rule:evenodd;stroke:none"
             id="path34"
             inkscape:connector-curvature="0" /></g><g
           id="g36"
           transform="translate(200.6558,240.1221)"><path
             d="m 0,0 c -0.184,-1.833 -0.993,-3.8 -3.039,-4.037 -0.137,0 -0.266,-0.026 -0.398,-0.026 -2.338,0 -2.834,2.122 -2.629,4.063 0.189,1.813 0.999,3.786 3.027,4.02 0.127,0.022 0.291,0.022 0.416,0.022 C -0.289,4.042 0.183,1.946 0,0 m -2.231,7.929 c -0.285,0 -0.553,0 -0.808,-0.029 -4.718,-0.339 -7.48,-3.67 -7.931,-7.9 0,-0.185 -0.028,-0.371 -0.028,-0.546 l 0,-0.995 c 0.191,-3.699 2.576,-6.355 7.166,-6.355 0.267,0 0.527,0 0.793,0.029 4.745,0.339 7.497,3.645 7.92,7.867 0.025,0.189 0.025,0.372 0.05,0.53 l 0,1.023 C 4.726,5.249 2.359,7.929 -2.231,7.929"
             style="fill:#ffffff;fill-opacity:1;fill-rule:evenodd;stroke:none"
             id="path38"
             inkscape:connector-curvature="0" /></g><g
           id="g40"
           transform="translate(278.4814,240.1221)"><path
             d="m 0,0 c -0.176,-1.833 -0.995,-3.8 -3.021,-4.037 -0.126,0 -0.255,-0.026 -0.41,-0.026 -2.34,0 -2.807,2.122 -2.62,4.063 0.175,1.813 0.988,3.786 3.03,4.02 0.141,0.022 0.27,0.022 0.396,0.022 C -0.292,4.042 0.219,1.946 0,0 m -2.231,7.929 c -0.264,0 -0.52,0 -0.79,-0.029 -4.738,-0.339 -7.498,-3.67 -7.92,-7.9 -0.027,-0.185 -0.027,-0.371 -0.053,-0.546 l 0,-0.995 c 0.211,-3.699 2.575,-6.355 7.167,-6.355 0.282,0 0.551,0 0.806,0.029 4.735,0.339 7.488,3.645 7.93,7.867 0,0.189 0.032,0.372 0.032,0.53 l 0,1.023 C 4.753,5.249 2.368,7.929 -2.231,7.929"
             style="fill:#ffffff;fill-opacity:1;fill-rule:evenodd;stroke:none"
             id="path42"
             inkscape:connector-curvature="0" /></g><g
           id="g44"
           transform="translate(300.4004,244.7974)"><path
             d="m 0,0 c 0.198,0.051 0.415,0.08 0.634,0.08 1.647,0 2.199,-1.37 2.039,-2.912 l -5.357,0 C -2.288,-1.542 -1.269,-0.317 0,0 M 6.764,-5.822 C 7.268,-0.733 5.979,3.254 0.601,3.254 0.39,3.254 0.198,3.254 0,3.225 -4.122,2.915 -7.431,-0.733 -7.854,-4.991 -7.876,-5.148 -7.876,-5.331 -7.876,-5.487 l 0,-0.861 c 0.156,-3.278 2.206,-6.223 6.743,-6.223 0.368,0 0.767,0.029 1.133,0.054 1.964,0.211 4.011,0.918 5.507,2.125 L 4.196,-7.429 C 2.777,-8.37 1.758,-8.897 0.042,-8.897 l -0.042,0 c -2.656,0 -3.156,1.941 -3.045,3.075 l 9.809,0 z"
             style="fill:#ffffff;fill-opacity:1;fill-rule:evenodd;stroke:none"
             id="path46"
             inkscape:connector-curvature="0" /></g><g
           id="g48"
           transform="translate(289.5342,236.187)"><path
             d="m 0,0 1.624,15.617 -4.909,0 c 0,0 -1.336,-13.044 -1.596,-15.617 -0.45,-4.51 4.617,-4.484 6.949,-3.75 l 0.294,3.047 C 1.024,-1.126 -0.061,-0.626 0,0"
             style="fill:#ffffff;fill-opacity:1;fill-rule:evenodd;stroke:none"
             id="path50"
             inkscape:connector-curvature="0" /></g><g
           id="g52"
           transform="translate(217.895,248.0513)"><path
             d="m 0,0 c -2.54,-0.029 -4.642,-2.201 -5.903,-3.517 l -0.133,0 c -0.056,0.052 0.845,2.734 0.845,2.734 l -4.277,0 -1.658,-14.517 4.885,0 1.071,9.551 c 0.71,0.629 1.916,1.34 2.703,1.34 1.442,0 1.679,-0.946 1.552,-2.124 -0.316,-3.069 -0.632,-5.957 -0.944,-8.767 l 4.877,0 c 0.366,3.224 0.737,6.48 1.024,9.522 C 4.459,-1.731 2.991,0.051 0,0"
             style="fill:#ffffff;fill-opacity:1;fill-rule:evenodd;stroke:none"
             id="path54"
             inkscape:connector-curvature="0" /></g><g
           id="g56"
           transform="translate(250.3833,240.0493)"><path
             d="m 0,0 c -0.217,-2.105 -1.259,-3.91 -3.182,-4.255 -0.205,-0.023 -0.432,-0.054 -0.677,-0.054 -0.769,0 -1.809,0.235 -2.518,0.866 l 0.74,6.268 c 0.858,0.528 1.671,0.896 2.455,1.034 0.182,0.022 0.373,0.05 0.526,0.05 C -0.371,3.909 0.197,2.076 0,0 M -0.945,8.002 C -1.733,7.973 -2.486,7.736 -3.182,7.397 -4.459,6.715 -5.51,5.612 -6.193,4.588 L -6.302,4.62 c 0.218,0.624 0.792,2.569 0.792,2.569 l -4.172,0 c 0,0 -2.047,-17.683 -2.443,-20.832 l 4.622,0 0.804,6.687 c 0.896,-0.5 2.24,-0.867 3.416,-0.867 l 0.101,0 c 4.538,0.054 7.565,3.749 8.008,8.351 0.025,0.128 0.025,0.234 0.025,0.361 l 0,1.051 C 4.672,5.353 2.516,8.107 -0.945,8.002"
             style="fill:#ffffff;fill-opacity:1;fill-rule:evenodd;stroke:none"
             id="path58"
             inkscape:connector-curvature="0" /></g><g
           id="g60"
           transform="translate(231.6416,236.5073)"><path
             d="m 0,0 c -0.05,-0.266 -0.808,-0.787 -1.677,-0.92 -0.127,-0.026 -0.258,-0.049 -0.394,-0.049 -0.783,0 -1.654,0.5 -1.577,1.494 0.135,1.181 1.023,1.859 1.971,2.172 0.397,0.106 0.761,0.189 1.129,0.211 0.394,0.026 0.662,0.077 0.84,0.106 L 0,0 Z m 5.279,-0.787 c -0.634,0 -0.763,0.441 -0.71,0.995 l 0.71,7.161 C 5.566,10.207 3.992,11.493 1.369,11.544 0.447,11.57 -0.603,11.442 -1.677,11.23 -3.43,10.914 -5.242,10.341 -6.425,9.733 L -5.319,6.77 c 1.099,0.448 2.415,0.864 3.642,1.018 0.321,0.028 0.601,0.057 0.896,0.057 0.923,0 1.496,-0.553 1.394,-1.734 L 0.549,5.561 C -0.205,5.482 -0.965,5.378 -1.677,5.273 -2.202,5.167 -2.699,5.062 -3.059,4.956 -6.187,4.145 -7.947,2.985 -8.237,-0.058 c 0,-0.051 -0.02,-0.099 -0.02,-0.153 l 0,-0.735 c 0.153,-2.1 1.775,-3.335 4.009,-3.335 0.867,0 1.76,0.237 2.571,0.606 0.638,0.261 1.218,0.629 1.708,0.972 0.083,-1.053 0.941,-1.578 2.259,-1.578 0.627,0 2.014,0.157 2.906,0.419 l 0.398,3.149 C 5.459,-0.767 5.355,-0.787 5.279,-0.787"
             style="fill:#ffffff;fill-opacity:1;fill-rule:evenodd;stroke:none"
             id="path62"
             inkscape:connector-curvature="0" /></g><g
           id="g64"
           transform="translate(187.1968,236.9009)"><path
             d="m 0,0 c -1.253,-0.473 -2.467,-1.024 -4.094,-1.024 -3.487,0 -5.274,2.752 -4.932,6.217 0.368,3.695 3.227,6.137 6.716,6.137 1.134,0 2.727,-0.336 3.722,-0.993 l 1.815,3.59 c -1.125,0.82 -3.121,1.392 -5.608,1.392 -6.726,0 -10.972,-3.989 -11.575,-9.999 -0.635,-6.245 2.699,-10.333 8.916,-10.333 2.418,0 4.727,0.495 6.506,1.677 L 0,0 Z"
             style="fill:#ffffff;fill-opacity:1;fill-rule:evenodd;stroke:none"
             id="path66"
             inkscape:connector-curvature="0" /></g><g
           id="g68"
           transform="translate(267.54,248.0513)"><path
             d="m 0,0 c -2.515,-0.029 -4.615,-2.201 -5.876,-3.517 l -0.157,0 c -0.026,0.052 0.869,2.734 0.869,2.734 l -4.275,0 -1.658,-14.517 4.882,0 1.07,9.551 c 0.717,0.629 1.892,1.34 2.681,1.34 0.447,0 0.759,-0.08 1.626,-0.387 l 1.439,4.745 C 0.267,0 0.127,0 0,0"
             style="fill:#ffffff;fill-opacity:1;fill-rule:evenodd;stroke:none"
             id="path70"
             inkscape:connector-curvature="0" /></g><g
           id="g72"
           transform="translate(690.8037,270.8794)"><path
             d="m 0,0 c 34.299,0 61.804,-3.885 76.099,-7.528 l 0.049,0 c 3.995,-1.159 6.272,-3.887 6.272,-7.455 l 0,-53.896 c 0,-6.903 -1.754,-8.319 -6.797,-10.58 -4.962,-2.227 -30.127,-8.627 -62.429,0.921 -5.009,1.495 -9.84,3.338 -14.293,5.09 -33.799,0.084 -60.907,3.936 -74.998,7.51 l -0.049,0.025 c -3.699,1.076 -5.958,3.567 -6.22,6.82 -0.026,0.498 -0.026,4.615 -0.026,44.11 0,3.568 2.543,6.559 6.246,7.455 C -59.554,-3.535 -34.315,0 0,0"
             style="fill:#ffffff;fill-opacity:1;fill-rule:evenodd;stroke:none"
             id="path74"
             inkscape:connector-curvature="0" /></g><g
           id="g76"
           transform="translate(689.6191,214.6709)"><path
             d="m 0,0 c 42.671,-12.874 68.202,-1.206 80.457,4.412 l 1.42,0.656 0,36.266 c 0,3.014 -2.072,4.793 -4.797,5.587 -11.021,2.808 -37.48,7.474 -75.715,7.474 -38.202,0 -64.65,-4.666 -75.697,-7.474 -2.733,-0.794 -4.849,-2.573 -4.849,-5.587 l 0,-36.631 C -65.52,7.868 -37.469,11.307 0,0"
             style="fill:#323235;fill-opacity:1;fill-rule:evenodd;stroke:none"
             id="path78"
             inkscape:connector-curvature="0" /></g><g
           id="g80"
           transform="translate(610.6699,211.1064)"><path
             d="m 0,0 c 0.548,-2.152 2.359,-3.494 4.617,-4.172 10.414,-2.63 34.61,-6.931 69.457,-7.407 C 56.018,-4.36 35.318,3.511 0,0"
             style="fill:#323235;fill-opacity:1;fill-rule:evenodd;stroke:none"
             id="path82"
             inkscape:connector-curvature="0" /></g><g
           id="g84"
           transform="translate(771.623,217.6367)"><path
             d="m 0,0 c -12.041,-5.478 -38.336,-18.182 -82.546,-4.824 -41.072,12.382 -70.248,6.561 -78.639,4.533 l 0,-4.328 c 48.588,4.882 69.45,-11.389 94.329,-18.76 32.903,-9.762 57.414,-2.707 61.136,-1.021 4.536,2.048 5.72,2.89 5.72,8.812 L 0,0 Z"
             style="fill:#858488;fill-opacity:1;fill-rule:evenodd;stroke:none"
             id="path86"
             inkscape:connector-curvature="0" /></g><g
           id="g88"
           transform="translate(650.6563,240.1221)"><path
             d="m 0,0 c -0.184,-1.833 -0.993,-3.8 -3.039,-4.037 -0.137,0 -0.266,-0.026 -0.399,-0.026 -2.337,0 -2.833,2.122 -2.628,4.063 0.188,1.813 0.999,3.786 3.027,4.02 0.127,0.022 0.291,0.022 0.416,0.022 C -0.289,4.042 0.182,1.946 0,0 m -2.232,7.929 c -0.284,0 -0.553,0 -0.807,-0.029 -4.719,-0.339 -7.481,-3.67 -7.932,-7.9 0,-0.185 -0.027,-0.371 -0.027,-0.546 l 0,-0.995 c 0.191,-3.699 2.575,-6.355 7.166,-6.355 0.266,0 0.527,0 0.793,0.029 4.744,0.339 7.497,3.645 7.92,7.867 0.025,0.189 0.025,0.372 0.049,0.53 l 0,1.023 C 4.725,5.249 2.359,7.929 -2.232,7.929"
             style="fill:#ffffff;fill-opacity:1;fill-rule:evenodd;stroke:none"
             id="path90"
             inkscape:connector-curvature="0" /></g><g
           id="g92"
           transform="translate(728.4814,240.1221)"><path
             d="m 0,0 c -0.177,-1.833 -0.995,-3.8 -3.021,-4.037 -0.126,0 -0.255,-0.026 -0.41,-0.026 -2.34,0 -2.807,2.122 -2.621,4.063 0.176,1.813 0.989,3.786 3.031,4.02 0.141,0.022 0.27,0.022 0.396,0.022 C -0.292,4.042 0.22,1.946 0,0 m -2.231,7.929 c -0.264,0 -0.52,0 -0.79,-0.029 -4.738,-0.339 -7.498,-3.67 -7.92,-7.9 -0.027,-0.185 -0.027,-0.371 -0.053,-0.546 l 0,-0.995 c 0.212,-3.699 2.575,-6.355 7.167,-6.355 0.282,0 0.551,0 0.806,0.029 4.735,0.339 7.489,3.645 7.93,7.867 0,0.189 0.032,0.372 0.032,0.53 l 0,1.023 C 4.753,5.249 2.368,7.929 -2.231,7.929"
             style="fill:#ffffff;fill-opacity:1;fill-rule:evenodd;stroke:none"
             id="path94"
             inkscape:connector-curvature="0" /></g><g
           id="g96"
           transform="translate(750.4004,244.7974)"><path
             d="m 0,0 c 0.198,0.051 0.415,0.08 0.635,0.08 1.646,0 2.198,-1.37 2.038,-2.912 l -5.357,0 C -2.287,-1.542 -1.269,-0.317 0,0 M 6.764,-5.822 C 7.268,-0.733 5.979,3.254 0.602,3.254 0.39,3.254 0.198,3.254 0,3.225 -4.122,2.915 -7.431,-0.733 -7.854,-4.991 -7.877,-5.148 -7.877,-5.331 -7.877,-5.487 l 0,-0.861 c 0.157,-3.278 2.207,-6.223 6.744,-6.223 0.368,0 0.767,0.029 1.133,0.054 1.964,0.211 4.011,0.918 5.507,2.125 L 4.195,-7.429 C 2.777,-8.37 1.758,-8.897 0.043,-8.897 l -0.043,0 c -2.656,0 -3.156,1.941 -3.045,3.075 l 9.809,0 z"
             style="fill:#ffffff;fill-opacity:1;fill-rule:evenodd;stroke:none"
             id="path98"
             inkscape:connector-curvature="0" /></g><g
           id="g100"
           transform="translate(739.5342,236.187)"><path
             d="m 0,0 1.624,15.617 -4.909,0 c 0,0 -1.335,-13.044 -1.596,-15.617 -0.45,-4.51 4.616,-4.484 6.948,-3.75 l 0.295,3.047 C 1.024,-1.126 -0.062,-0.626 0,0"
             style="fill:#ffffff;fill-opacity:1;fill-rule:evenodd;stroke:none"
             id="path102"
             inkscape:connector-curvature="0" /></g><g
           id="g104"
           transform="translate(667.8945,248.0513)"><path
             d="m 0,0 c -2.539,-0.029 -4.641,-2.201 -5.902,-3.517 l -0.133,0 c -0.057,0.052 0.844,2.734 0.844,2.734 l -4.277,0 -1.658,-14.517 4.886,0 1.07,9.551 c 0.711,0.629 1.916,1.34 2.703,1.34 1.443,0 1.68,-0.946 1.553,-2.124 -0.316,-3.069 -0.633,-5.957 -0.944,-8.767 l 4.876,0 c 0.367,3.224 0.738,6.48 1.024,9.522 C 4.459,-1.731 2.991,0.051 0,0"
             style="fill:#ffffff;fill-opacity:1;fill-rule:evenodd;stroke:none"
             id="path106"
             inkscape:connector-curvature="0" /></g><g
           id="g108"
           transform="translate(700.3828,240.0493)"><path
             d="m 0,0 c -0.217,-2.105 -1.259,-3.91 -3.182,-4.255 -0.205,-0.023 -0.431,-0.054 -0.676,-0.054 -0.769,0 -1.81,0.235 -2.519,0.866 l 0.74,6.268 c 0.859,0.528 1.671,0.896 2.455,1.034 0.182,0.022 0.373,0.05 0.526,0.05 C -0.37,3.909 0.197,2.076 0,0 M -0.944,8.002 C -1.732,7.973 -2.485,7.736 -3.182,7.397 -4.459,6.715 -5.51,5.612 -6.192,4.588 l -0.11,0.032 c 0.218,0.624 0.792,2.569 0.792,2.569 l -4.172,0 c 0,0 -2.047,-17.683 -2.443,-20.832 l 4.623,0 0.804,6.687 c 0.895,-0.5 2.239,-0.867 3.416,-0.867 l 0.1,0 c 4.539,0.054 7.566,3.749 8.008,8.351 0.026,0.128 0.026,0.234 0.026,0.361 l 0,1.051 C 4.673,5.353 2.517,8.107 -0.944,8.002"
             style="fill:#ffffff;fill-opacity:1;fill-rule:evenodd;stroke:none"
             id="path110"
             inkscape:connector-curvature="0" /></g><g
           id="g112"
           transform="translate(681.6416,236.5073)"><path
             d="m 0,0 c -0.05,-0.266 -0.808,-0.787 -1.677,-0.92 -0.127,-0.026 -0.258,-0.049 -0.394,-0.049 -0.783,0 -1.654,0.5 -1.577,1.494 0.135,1.181 1.024,1.859 1.971,2.172 0.397,0.106 0.762,0.189 1.129,0.211 0.395,0.026 0.662,0.077 0.84,0.106 L 0,0 Z m 5.278,-0.787 c -0.632,0 -0.762,0.441 -0.709,0.995 L 5.278,7.369 C 5.566,10.207 3.992,11.493 1.368,11.544 0.446,11.57 -0.603,11.442 -1.677,11.23 -3.431,10.914 -5.242,10.341 -6.425,9.733 L -5.319,6.77 c 1.099,0.448 2.416,0.864 3.642,1.018 0.321,0.028 0.601,0.057 0.896,0.057 0.923,0 1.496,-0.553 1.394,-1.734 L 0.55,5.561 C -0.205,5.482 -0.965,5.378 -1.677,5.273 -2.202,5.167 -2.698,5.062 -3.06,4.956 -6.187,4.145 -7.946,2.985 -8.237,-0.058 c 0,-0.051 -0.02,-0.099 -0.02,-0.153 l 0,-0.735 c 0.153,-2.1 1.776,-3.335 4.009,-3.335 0.867,0 1.761,0.237 2.571,0.606 0.638,0.261 1.217,0.629 1.707,0.972 0.084,-1.053 0.942,-1.578 2.26,-1.578 0.627,0 2.014,0.157 2.906,0.419 l 0.399,3.149 C 5.46,-0.767 5.354,-0.787 5.278,-0.787"
             style="fill:#ffffff;fill-opacity:1;fill-rule:evenodd;stroke:none"
             id="path114"
             inkscape:connector-curvature="0" /></g><g
           id="g116"
           transform="translate(637.1973,236.9009)"><path
             d="m 0,0 c -1.254,-0.473 -2.467,-1.024 -4.094,-1.024 -3.488,0 -5.275,2.752 -4.932,6.217 0.368,3.695 3.226,6.137 6.715,6.137 1.135,0 2.728,-0.336 3.723,-0.993 l 1.815,3.59 c -1.125,0.82 -3.122,1.392 -5.609,1.392 -6.725,0 -10.972,-3.989 -11.574,-9.999 -0.636,-6.245 2.698,-10.333 8.916,-10.333 2.417,0 4.726,0.495 6.506,1.677 L 0,0 Z"
             style="fill:#ffffff;fill-opacity:1;fill-rule:evenodd;stroke:none"
             id="path118"
             inkscape:connector-curvature="0" /></g><g
           id="g120"
           transform="translate(717.54,248.0513)"><path
             d="m 0,0 c -2.515,-0.029 -4.614,-2.201 -5.876,-3.517 l -0.157,0 c -0.027,0.052 0.869,2.734 0.869,2.734 l -4.274,0 -1.659,-14.517 4.882,0 1.07,9.551 c 0.717,0.629 1.892,1.34 2.681,1.34 0.447,0 0.76,-0.08 1.625,-0.387 l 1.44,4.745 C 0.267,0 0.127,0 0,0"
             style="fill:#ffffff;fill-opacity:1;fill-rule:evenodd;stroke:none"
             id="path122"
             inkscape:connector-curvature="0" /></g></g></g></g></svg>