<?xml version="1.0" encoding="UTF-8"?>
<svg width="708.7" height="233.7" version="1.1" xmlns="http://www.w3.org/2000/svg">
<title>Cyberport (Germany) logo</title>
 <g transform="translate(-50.18 -495.5)">
  <g transform="matrix(.8812 0 0 .8812 48.05 72.74)">
   <path d="m717.3 745 89.3-89.82-2e-3 -175.4h-804.2v265.2l714.9-1e-3" style="fill:#175082"/>
   <path d="m663.4 641.1c0 15.42 9.589 22.75 26.72 22.75 5.712 0 8.422 0.0161 11.46 0.0161l-0.0362-19.19h-7.548c-5.304 0-7.752-3.007-7.752-8.272l0.015-55.44h15.32v-22.02h-15.34v-18.04h-22.85v100.2" style="fill:#fff"/>
   <path d="m516.7 596.5v29.7c0 22.18-9.385 37.6-35.5 37.6-4.832 0-8.914-0.6818-12.64-1.676l-1e-3 25.03h-22.61l-2e-3 -126.4h22.61v-1e-3h-0.65c3.884-1.116 8.179-1.865 13.29-1.865 26.11 0 35.5 15.42 35.5 37.6zm-22.85-3.761c0-11.66-4.488-16.54-12.65-16.54-8.148 0-12.63 4.88-12.64 16.5v37.32c0.0125 11.62 4.494 16.5 12.64 16.5 8.161 0 12.65-4.888 12.65-16.54v-37.22" style="fill:#fff"/>
   <path d="m127.1 627.4h22.85c-0.4088 21.62-9.792 36.47-35.5 36.47-26.11 0-35.5-15.42-35.5-37.6v-29.7c0-22.18 9.384-37.6 35.5-37.6 25.71 0 35.09 14.85 35.5 36.47h-22.85v-2.632c0-11.66-4.488-16.54-12.65-16.54-8.161 0-12.65 4.888-12.65 16.54v37.22c0 11.66 4.488 16.55 12.65 16.55 8.16 0 12.65-4.89 12.65-16.55v-2.631" style="fill:#fff"/>
   <path d="m378.3 596.5c0-0.4112-0.1262-0.7275-0.14-1.129h0.1388c-0.4075-21.62-9.792-36.47-35.5-36.47-26.11 0-35.5 15.42-35.5 37.6v29.7c0 22.18 9.385 37.6 35.5 37.6 25.7 0 35.09-14.85 35.5-36.47h-22.85v2.631c0 11.65-4.488 16.54-12.65 16.54-8.16 0-12.65-4.89-12.65-16.54v-14.66h48.15zm-22.85-1.129v2.632h-25.3v-5.265c0-11.66 4.489-16.54 12.65-16.54 8.161 0 12.65 4.889 12.65 16.54v2.632" style="fill:#fff"/>
   <path d="m572.3 630c0 11.66-4.489 16.54-12.65 16.54s-12.65-4.888-12.65-16.54v-37.22c0-11.66 4.489-16.54 12.65-16.54s12.65 4.889 12.65 16.54zm-48.15-3.76c0 22.18 9.384 37.6 35.5 37.6s35.5-15.42 35.5-37.6v-29.71c0-22.18-9.384-37.6-35.5-37.6s-35.5 15.42-35.5 37.6v29.71" style="fill:#fff"/>
   <path d="m656.1 580.9 0.11-21.77h-14.98v1e-3s0-1e-3 -1e-3 -1e-3c-8.31 0-15.22 6.494-15.22 14.8v6.965h30.09zm-52.91 81.1h22.82v-101.2h-22.82zm37.87-81.1h-1e-3zm-1e-3 0h-15.05v14.85h0.0388c0.1125-8.214 6.768-14.85 15.01-14.85" style="fill:#fff"/>
   <path d="m300.3 626.3v-29.7c0-22.18-9.384-37.6-35.5-37.6-4.834 0-8.915 0.6812-12.64 1.678l0.035-25.06h-22.68v126.4h22.64v1e-3h-0.6488c3.885 1.115 8.18 1.865 13.29 1.865 26.11 0 35.5-15.42 35.5-37.6zm-22.85 3.76c0 11.66-4.489 16.54-12.65 16.54-8.148 0-12.63-4.878-12.64-16.49v-37.32c0.015-11.62 4.496-16.5 12.64-16.5 8.16 0 12.65 4.889 12.65 16.54v37.23" style="fill:#fff"/>
   <path d="m438.6 580.9 0.1088-21.77h-14.98v1e-3 -1e-3c-8.31 0-15.22 6.494-15.22 14.8v6.965zm-52.91 81.1h22.82v-101.2h-22.82zm37.87-81.1h-15.05v14.85h0.04c0.1112-8.214 6.766-14.85 15.01-14.85" style="fill:#fff"/>
   <path d="m187.4 619.1h-0.3362l-13.6-58.32h-21.72l23.41 83.97c0.6188 2.745 1.54 7.045 1.54 8.527 0 8.729-7.732 10.56-15.22 10.56v18.05c23.15 0 30.07-8.604 35.39-28.21l2.89-11.35h-0.0575l23.37-81.55h-21.73l-13.93 58.32" style="fill:#fff"/>
  </g>
 </g>
</svg>
