<?xml version="1.0" encoding="UTF-8" standalone="no"?>
<!-- Created with Inkscape (http://www.inkscape.org/) -->
<svg
   xmlns:svg="http://www.w3.org/2000/svg"
   xmlns="http://www.w3.org/2000/svg"
   version="1.0"
   width="799.04999"
   height="158.35001"
   id="svg2744"
   xml:space="preserve"><defs
     id="defs2747"><clipPath
       id="clipPath3113"><path
         d="M 17.008,881.575 L 17.008,17.008 L 634.961,17.008 L 634.961,881.575"
         id="path3115" /></clipPath></defs><g
     transform="matrix(1.25,0,0,-1.25,-16.697354,1096.8572)"
     id="g2753"><g
       transform="matrix(6.653587,0,0,6.9997054,-1801.6145,134.60285)"
       id="g3362"><g
         id="g3346"><g
           id="g3331"><g
             id="g3317"><g
               id="g3304"><g
                 id="g3292"><g
                   id="g3281"><path
                     d="M 304.29,89.42 L 300.901,89.42 L 299.874,91.911 L 294.23,91.911 L 293.291,89.42 L 289.961,89.42 L 295.045,101.961 L 298.688,101.961 L 304.29,89.42 M 296.919,98.957 L 295.066,94.108 L 298.944,94.108 L 296.919,98.957"
                     id="path3195"
                     style="fill:#31336e;fill-opacity:1;fill-rule:nonzero;stroke:none" /><path
                     d="M 318.563,89.42 L 315.928,89.42 L 308.954,97.452 L 308.954,89.42 L 305.804,89.42 L 305.804,101.961 L 308.694,101.961 L 315.421,94.307 L 315.421,101.961 L 318.563,101.961 L 318.563,89.42"
                     id="path3197"
                     style="fill:#31336e;fill-opacity:1;fill-rule:nonzero;stroke:none" /><path
                     d="M 321.787,89.42 L 324.9353,89.42 L 324.9353,101.961 L 321.787,101.961 L 321.787,89.42 z"
                     id="path3199"
                     style="fill:#31336e;fill-opacity:1;fill-rule:nonzero;stroke:none" /><path
                     d="M 336.72,98.706 C 334.886,99.514 333.797,99.832 332.718,99.832 C 331.586,99.832 330.872,99.417 330.872,98.801 C 330.872,96.902 337.285,97.432 337.285,93.074 C 337.285,90.656 335.256,89.258 332.445,89.258 C 330.232,89.258 329.146,89.836 327.884,90.473 L 327.884,93.174 C 329.696,91.983 330.813,91.563 332.202,91.563 C 333.403,91.563 334.049,91.983 334.049,92.726 C 334.049,94.783 327.623,94.032 327.623,98.527 C 327.623,100.691 329.507,102.13 332.445,102.13 C 333.848,102.13 335.125,101.829 336.72,101.152 L 336.72,98.706"
                     id="path3201"
                     style="fill:#31336e;fill-opacity:1;fill-rule:nonzero;stroke:none" /><path
                     d="M 351.457,90.51 C 349.695,89.609 348.364,89.258 346.5,89.258 C 341.585,89.258 339.16,92.429 339.16,95.652 C 339.16,98.993 341.899,102.13 346.74,102.13 C 348.498,102.13 350.063,101.76 351.308,101.026 L 351.308,98.225 C 349.922,98.993 348.51,99.514 346.959,99.514 C 344.265,99.514 342.381,97.927 342.381,95.709 C 342.381,93.472 344.251,91.871 346.883,91.871 C 348.526,91.871 349.641,92.391 351.457,93.255 L 351.457,90.51"
                     id="path3203"
                     style="fill:#31336e;fill-opacity:1;fill-rule:nonzero;stroke:none" /><path
                     d="M 360.268,89.258 C 355.627,89.258 353.043,92.5 353.043,95.692 C 353.043,98.726 355.502,102.13 360.268,102.13 C 365.026,102.13 367.493,98.706 367.493,95.692 C 367.493,92.483 364.805,89.258 360.268,89.258 M 360.268,99.514 C 357.861,99.514 356.267,97.985 356.267,95.692 C 356.267,93.4 357.861,91.871 360.268,91.871 C 362.663,91.871 364.258,93.4 364.258,95.692 C 364.258,97.985 362.663,99.514 360.268,99.514"
                     id="path3205"
                     style="fill:#31336e;fill-opacity:1;fill-rule:nonzero;stroke:none" /><path
                     d="M 282.986,99.331 C 285.388,99.324 286.533,97.803 286.533,95.695 C 286.533,93.866 285.348,92.048 282.85,92.048 L 279.92,92.048 L 279.92,96.263 L 277.01,96.263 L 277.01,89.425 L 282.454,89.425 C 287.481,89.425 289.652,92.639 289.652,95.676 C 289.652,98.686 287.472,101.957 282.986,101.961 L 282.986,99.331"
                     id="path3207"
                     style="fill:#31336e;fill-opacity:1;fill-rule:nonzero;stroke:none" /><path
                     d="M 279.918,96.263 L 282.9864,96.263 L 282.9864,99.3307 L 279.918,99.3307 L 279.918,96.263 z"
                     id="path3209"
                     style="fill:#31336e;fill-opacity:1;fill-rule:nonzero;stroke:none" /><path
                     d="M 282.986,104.842 L 282.986,101.963 L 277.01,101.963 L 277.01,96.262 L 273.943,96.262 L 273.943,104.842 L 282.986,104.842"
                     id="path3211"
                     style="fill:#137b95;fill-opacity:1;fill-rule:nonzero;stroke:none" /></g></g></g></g></g></g></g></g></svg>