<?xml version="1.0" encoding="UTF-8"?>
<svg xmlns="http://www.w3.org/2000/svg" width="280" height="96" fill="none">
  <path d="M279.484.83a1.649 1.649 0 0 0-1.231-.566H1.738C1.283.264.832.472.511.83A2.074 2.074 0 0 0 0 2.204V86.07c0 .513.186 1.011.511 1.37.325.362.772.57 1.231.57h95.745c10.631 4.844 25.467 7.698 41.984 7.727 15.577-.005 29.676-2.593 40.134-6.923a59.337 59.337 0 0 0 1.846-.803h96.807c.459 0 .906-.209 1.231-.572A2.07 2.07 0 0 0 280 86.07V2.204c0-.513-.186-1.01-.511-1.374h-.005Z" fill="url(#a)"></path>
  <path d="M180.781 74.631c-2.037.973-4.286 1.873-6.718 2.695-9.379 3.174-21.449 5.133-34.59 5.11-13.159 0-25.233-1.931-34.617-5.11a66.3 66.3 0 0 1-4.074-1.524c-.91-.377-1.785-.77-2.626-1.17H8.67v2.694h88.996c10.359 4.843 25.224 7.78 41.807 7.804 15.394 0 29.337-2.579 39.531-6.802a61.491 61.491 0 0 0 2.271-1.002h89.954v-2.695H180.781ZM120.379 68.278c-.039.063-.082.096-.121.092-.061-.01-.594-.596-1.296-.721-.451-.078-.945.034-1.036.687-.117.827 1.001 1.185 1.76 2.041.437.504.697 1.142.58 1.97-.199 1.383-1.205 2.143-2.435 1.92-.993-.179-1.972-.841-1.946-1.016.004-.034.043-.101.073-.164l.325-.678c.031-.062.083-.096.122-.091.06.01.71.619 1.551.769.546.097.923-.17 1.023-.847.139-.968-.841-1.243-1.742-2.095-.468-.44-.737-.933-.607-1.838.225-1.568 1.331-2.042 2.462-1.839.927.165 1.816.813 1.785.997-.004.034-.021.072-.073.155l-.425.663v-.005Z" fill="#fff"></path>
  <path d="M125.729 74.624c.017.034.022.082.017.126-.03.285-1.044.527-1.82.43-1.296-.16-2.119-1.093-1.916-3.11.174-1.743 1.127-2.846 2.44-2.681 1.669.208 1.799 1.906 1.669 3.237-.022.207-.065.27-.251.246l-2.64-.324c-.06.614.022 1.389.945 1.5.707.087 1.144-.223 1.283-.208.048.005.082.053.1.102l.182.687-.009-.005Zm-.862-2.913c.043-.45.091-1.229-.586-1.316-.767-.097-.897.823-.957 1.123l1.543.188v.005ZM129.643 75.399c-.009.12-.031.15-.148.14l-.975-.077c-.117-.01-.134-.044-.126-.165l.278-4.257-.759-.063c-.117-.01-.134-.044-.125-.165l.047-.716c.009-.12.031-.155.148-.14l1.872.155c.117.01.134.043.126.164l-.334 5.124h-.004Zm-.239-6.043c-.451-.039-.789-.474-.758-.977.034-.508.424-.871.875-.838.442.04.78.46.75.968-.035.508-.425.885-.867.847ZM135.145 75.534c.009.058.018.058.018.087-.009.208-.737.387-1.409.353-1.274-.058-1.231-1.17-1.196-2.186l.091-2.478-.702-.033c-.117-.005-.139-.04-.135-.16l.026-.716c.005-.121.026-.155.143-.15l.702.034.052-1.389c.005-.145.026-.174.165-.189l.876-.091c.03 0 .069-.01.13-.005.086 0 .095.058.091.193l-.057 1.544 1.127.053c.087 0 .169.005.165.126 0 .024 0 .043-.013.087l-.152.643c-.034.155-.065.165-.182.16l-.975-.044-.1 2.666c-.013.353-.026.673.312.687.395.02.65-.179.789-.174.039 0 .069.024.078.068l.165.914h-.009ZM144.31 75.694c0 .121-.017.155-.134.16l-3.034.063c-.122 0-.139-.03-.143-.15l-.013-.716c0-.121.017-.155.134-.155l.997-.02-.078-4.673-1.036.75c-.048.034-.087.068-.139.068-.06 0-.099-.063-.138-.14l-.265-.49a.268.268 0 0 1-.043-.145c0-.067.048-.12.117-.178l1.842-1.54.689-.014c.178 0 .199.04.204.218l.099 6.12.781-.014c.117 0 .138.029.138.15l.013.716.009-.01ZM148.982 75.768c-1.3.097-2.34-.556-2.418-1.935-.074-1.268.892-1.843 1.287-2.051-.399-.17-1.192-.566-1.257-1.665-.061-1.035.715-1.988 1.955-2.075 1.152-.083 2.097.653 2.162 1.766.061 1.035-.68 1.572-1.014 1.81.499.217 1.413.667 1.482 1.847.061 1.045-.632 2.192-2.201 2.303h.004Zm.949-2.25c-.052-.9-.919-1.17-1.205-1.282-.221.15-.966.581-.914 1.428.039.658.524.992 1.114.948.619-.044 1.04-.508 1.005-1.089v-.004Zm-.464-3.469c-.03-.493-.359-.89-.862-.856-.481.034-.785.465-.754.963.043.735.667.934.923 1.026.238-.14.737-.407.693-1.133ZM155.55 75.114c-1.296.164-2.362-.43-2.501-1.8-.13-1.258.811-1.892 1.196-2.119-.403-.15-1.213-.498-1.326-1.597-.104-1.03.629-2.022 1.864-2.182 1.148-.145 2.124.537 2.241 1.645.104 1.03-.612 1.611-.932 1.863.507.189 1.443.59 1.564 1.766.109 1.04-.537 2.22-2.097 2.424h-.009Zm.234-5.738c-.052-.494-.399-.871-.897-.808-.481.063-.763.508-.711 1.001.074.736.707.895.967.978.234-.15.719-.445.645-1.171h-.004Zm.611 3.445c-.091-.9-.971-1.118-1.257-1.215-.212.16-.94.634-.854 1.476.07.658.568.958 1.158.885.619-.077 1.014-.561.957-1.142l-.004-.004ZM160.636 69.647c.121-.12.359-.401.945-.513 1.187-.222 2.019.683 2.201 1.902.234 1.534-.533 2.83-2.119 3.13-.65.121-1.638.097-1.682-.184-.008-.043 0-.087-.008-.12l.017-.818c0-.044.035-.107.074-.116.086-.015.749.193 1.373.077.937-.174 1.357-.895 1.231-1.732-.099-.672-.494-1.07-1.152-.944-.789.15-.876.77-1.01.794-.039.01-.083-.005-.113-.014l-.615-.097c-.104-.015-.165-.025-.178-.112-.005-.033-.013-.077-.009-.11l-.238-3.634c-.013-.213.017-.218.173-.247l2.852-.537c.178-.034.208-.005.238.179l.104.697c.031.193.005.232-.169.266l-2.006.377.095 1.761-.004-.005ZM8.664 13.68v-2.694h38.374v2.695H8.664ZM232.893 13.68v-2.694h38.379v2.695h-38.379ZM55.742 16.059c0 .198-.03.232-.195.232h-.927c-.17 0-.208-.034-.208-.232V8.97c0-.198.039-.232.208-.232h3.238c.199 0 .247.024.247.12 0 .054-.01.078-.03.156l-.187.74c-.04.164-.148.179-.226.179h-1.915v1.819h1.677c.178 0 .208.034.208.232v.726c0 .198-.039.232-.208.232h-1.677v3.12l-.005-.004ZM63.635 16.059c0 .198-.03.232-.2.232h-3.25c-.169 0-.208-.034-.208-.232V8.97c0-.198.04-.232.208-.232h3.242c.2 0 .247.024.247.12 0 .054-.009.078-.03.156l-.187.74c-.039.164-.147.179-.225.179h-1.916v1.819h1.678c.177 0 .208.034.208.232v.726c0 .198-.04.232-.208.232h-1.678v2.163h2.115c.178 0 .208.034.208.232v.726l-.004-.005ZM68.307 16.059c0 .198-.039.232-.208.232h-2.418c-.17 0-.208-.034-.208-.232v-.595c0-.199.039-.232.208-.232h.541V9.798h-.541c-.17 0-.208-.034-.208-.232v-.595c0-.198.039-.232.208-.232h2.418c.17 0 .208.034.208.232v.595c0 .198-.039.232-.208.232h-.542v5.434h.542c.17 0 .208.034.208.232v.595ZM75.212 16.059c0 .198-.03.232-.209.232h-.65c-.138 0-.169-.024-.225-.155l-1.807-3.759c-.295-.62-.464-1.001-.564-1.5h-.017c0 .145.03.707.03 1.215v3.967c0 .198-.039.232-.208.232h-.72c-.168 0-.207-.034-.207-.232V8.97c0-.198.039-.232.208-.232h.81c.148 0 .17.024.226.145l1.63 3.416a9.17 9.17 0 0 1 .58 1.596h.022c0-.353-.03-1.127-.03-1.432V8.971c0-.198.038-.232.207-.232h.72c.169 0 .208.034.208.232v7.088h-.004ZM81.522 16.059c0 .198-.03.232-.2.232h-3.25c-.169 0-.208-.034-.208-.232V8.97c0-.198.039-.232.208-.232h3.238c.199 0 .247.024.247.12 0 .054-.009.078-.03.156l-.187.74c-.039.164-.147.179-.225.179h-1.916v1.819h1.677c.178 0 .208.034.208.232v.726c0 .198-.039.232-.208.232H79.2v2.163h2.115c.178 0 .208.034.208.232v.726-.005ZM88.742 16.059c0 .198-.03.232-.2.232h-.927c-.169 0-.208-.034-.208-.232V8.97c0-.198.04-.232.208-.232h3.242c.2 0 .247.024.247.12 0 .054-.008.078-.03.156l-.186.74c-.04.164-.148.179-.226.179h-1.916v1.819h1.678c.177 0 .208.034.208.232v.726c0 .198-.04.232-.208.232h-1.678v3.12l-.004-.004ZM96.762 16.093c-.039.174-.069.198-.216.198h-3.26c-.169 0-.208-.034-.208-.232V8.97c0-.198.04-.232.208-.232h.92c.168 0 .207.034.207.232v6h2.38c.138 0 .177.053.177.145a.627.627 0 0 1-.021.145l-.187.837v-.005ZM102.664 16.059c0 .198-.03.232-.2.232h-3.25c-.17 0-.208-.034-.208-.232V8.97c0-.198.039-.232.208-.232h3.242c.199 0 .247.024.247.12 0 .054-.009.078-.03.156l-.187.74c-.039.164-.147.179-.225.179h-1.916v1.819h1.677c.178 0 .208.034.208.232v.726c0 .198-.039.232-.208.232h-1.677v2.163h2.115c.178 0 .208.034.208.232v.726l-.004-.005ZM107.334 16.059c0 .198-.039.232-.208.232h-2.418c-.169 0-.208-.034-.208-.232v-.595c0-.199.039-.232.208-.232h.541V9.798h-.541c-.169 0-.208-.034-.208-.232v-.595c0-.198.039-.232.208-.232h2.418c.169 0 .208.034.208.232v.595c0 .198-.039.232-.208.232h-.542v5.434h.542c.169 0 .208.034.208.232v.595ZM112.65 10.107c-.03.068-.069.111-.108.111-.061 0-.672-.483-1.383-.483-.455 0-.927.198-.927.86 0 .838 1.157.993 2.024 1.709.502.42.849 1.001.849 1.843 0 1.398-.888 2.327-2.132 2.327-1.006 0-2.063-.484-2.063-.663 0-.034.03-.11.047-.174l.226-.726c.021-.067.069-.11.108-.11.061 0 .789.483 1.638.483.555 0 .889-.329.889-1.016 0-.982-1.006-1.079-2.016-1.766-.524-.353-.858-.793-.858-1.708 0-1.587 1.028-2.25 2.172-2.25.94 0 1.907.484 1.907.673a.407.407 0 0 1-.048.164l-.325.726ZM119.128 15.6c.03.068.047.111.047.164 0 .19-.671.707-1.638.707-1.729 0-2.557-1.258-2.557-3.905 0-2.646.849-4.025 2.557-4.025.741 0 1.621.605 1.621.818 0 .043 0 .087-.052.164l-.364.62c-.039.067-.078.11-.117.11-.169 0-.494-.517-1.019-.517-.849 0-1.226.648-1.226 2.545 0 1.896.208 3 1.226 3 .555 0 .911-.407 1.106-.407.039 0 .069.034.108.111l.308.62V15.6ZM125.899 16.059c0 .198-.039.232-.208.232h-.918c-.169 0-.208-.034-.208-.232v-3.077h-1.877v3.077c0 .198-.039.232-.208.232h-.919c-.169 0-.208-.034-.208-.232V8.97c0-.198.039-.232.208-.232h.919c.169 0 .208.034.208.232v2.82h1.877v-2.82c0-.198.039-.232.208-.232h.918c.169 0 .208.034.208.232v7.088ZM131.071 13.87c0 .198-.031.232-.208.232h-2.41c-.178 0-.208-.034-.208-.233v-.803c0-.198.03-.232.208-.232h2.41c.177 0 .208.034.208.232v.803ZM139.701 13.732c0 1.64-.512 2.744-2.38 2.744-1.868 0-2.379-1.104-2.379-2.744V8.967c0-.199.039-.233.208-.233h.919c.169 0 .208.034.208.233v4.765c0 .794.047 1.553 1.049 1.553 1.001 0 1.044-.76 1.044-1.553V8.967c0-.199.039-.233.208-.233h.919c.169 0 .208.034.208.233v4.765h-.004ZM146.922 16.059c0 .198-.031.232-.208.232h-.65c-.139 0-.169-.024-.226-.155l-1.807-3.759c-.295-.62-.464-1.001-.564-1.5h-.021c0 .145.03.707.03 1.215v3.967c0 .198-.039.232-.208.232h-.719c-.169 0-.208-.034-.208-.232V8.97c0-.198.039-.232.208-.232h.81c.147 0 .169.024.225.145l1.63 3.416c.277.585.464 1.146.581 1.596h.022c0-.353-.031-1.127-.031-1.432V8.971c0-.198.039-.232.208-.232h.72c.169 0 .208.034.208.232v7.088ZM151.417 8.734c1.886 0 2.874.683 2.874 3.74 0 3.058-1.144 3.813-2.904 3.813h-1.513c-.169 0-.208-.044-.208-.232V8.966c0-.199.039-.233.217-.233h1.534Zm-.06 6.363c1.118 0 1.529-.542 1.529-2.647 0-1.974-.424-2.525-1.529-2.525h-.356v5.172h.356ZM164.971 8.852c.039-.217.099-.217.147-.217.061 0 .108.01.147.02l.741.164c.078.024.187.043.187.11 0 .054-.031.165-.048.243l-1.443 7.01c-.039.155-.069.199-.217.199h-.849c-.178 0-.187-.034-.217-.199l-.65-3.706a17.56 17.56 0 0 1-.226-1.906h-.021c-.048.74-.139 1.398-.247 1.906l-.802 3.706c-.039.165-.039.199-.217.199h-.849c-.148 0-.187-.044-.217-.199l-1.283-7.025c-.008-.077-.039-.174-.039-.242 0-.067.109-.087.187-.11l.771-.156a.619.619 0 0 1 .147-.02c.048 0 .109 0 .148.219l.593 3.57c.1.605.178 1.524.217 2.085h.018c.06-.629.195-1.524.316-2.085l.702-3.362c.048-.233.061-.33.295-.33h.672c.156 0 .169.097.216.33l.702 3.362c.117.561.217 1.457.278 2.085h.017c.039-.56.13-1.475.23-2.085l.594-3.57v.004ZM173.041 13.732c0 1.64-.516 2.744-2.379 2.744-1.864 0-2.38-1.104-2.38-2.744V8.967c0-.199.039-.233.208-.233h.919c.169 0 .208.034.208.233v4.765c0 .794.048 1.553 1.045 1.553.996 0 1.048-.76 1.048-1.553V8.967c0-.199.04-.233.209-.233h.918c.169 0 .208.034.208.233v4.765h-.004ZM176.972 16.059c0 .198-.039.232-.208.232h-.919c-.169 0-.208-.034-.208-.232V8.97c0-.198.039-.232.208-.232h1.599c.763 0 2.301.053 2.301 2.129 0 1.422-.758 1.828-1.126 2.041l1.473 2.942a.513.513 0 0 1 .078.208c0 .063-.1.101-.199.13l-.828.267c-.039.01-.1.019-.139.019-.047 0-.125-.13-.225-.344l-1.335-2.965h-.472v2.893Zm.255-4.05c.642 0 1.184-.11 1.184-1.122 0-.958-.564-.992-1.075-.992h-.364v2.12h.255v-.006ZM185.428 10.107c-.03.068-.069.111-.108.111-.057 0-.672-.483-1.383-.483-.455 0-.927.198-.927.86 0 .838 1.157.993 2.024 1.709.502.42.849 1.001.849 1.843 0 1.398-.888 2.327-2.132 2.327-1.006 0-2.063-.484-2.063-.663 0-.034.03-.11.052-.174l.225-.726c.017-.067.069-.11.108-.11.057 0 .789.483 1.639.483.55 0 .888-.329.888-1.016 0-.982-1.01-1.079-2.015-1.766-.525-.353-.858-.793-.858-1.708 0-1.587 1.027-2.25 2.171-2.25.936 0 1.907.484 1.907.673a.407.407 0 0 1-.048.164l-.325.726h-.004ZM190.091 16.06c0 .198-.039.232-.208.232h-.919c-.169 0-.208-.034-.208-.233V10.06h-1.295c-.139 0-.169-.034-.169-.189v-.948c0-.155.03-.189.169-.189h4.069c.2 0 .247.025.247.121 0 .054-.008.078-.03.155l-.208.871c-.039.174-.147.174-.225.174h-1.223v6.004ZM199.115 8.852c.039-.217.1-.217.147-.217.061 0 .109.01.148.02l.741.164c.078.024.186.043.186.11 0 .054-.03.165-.047.243l-1.444 7.01c-.039.155-.069.199-.216.199h-.85c-.177 0-.186-.034-.217-.199l-.654-3.706a18.375 18.375 0 0 1-.225-1.906h-.022c-.048.74-.139 1.398-.247 1.906l-.798 3.706c-.039.165-.039.199-.216.199h-.85c-.147 0-.186-.044-.216-.199l-1.283-7.025c-.009-.077-.039-.174-.039-.242 0-.067.108-.087.186-.11l.772-.156a.619.619 0 0 1 .147-.02c.048 0 .108 0 .147.219l.594 3.57c.1.605.178 1.524.217 2.085h.017c.056-.629.195-1.524.316-2.085l.703-3.362c.052-.233.06-.33.294-.33h.672c.156 0 .169.097.217.33l.702 3.362c.117.561.217 1.457.277 2.085h.022c.039-.56.126-1.475.225-2.085l.594-3.57v.004ZM202.774 16.06c-.039.198-.061.232-.208.232h-.997c-.126 0-.187-.025-.195-.102 0-.053.03-.145.039-.189l1.946-7.102c.039-.145.052-.165.217-.165h1.027c.147 0 .169.044.208.175l1.933 7.112c.008.043.039.13.039.174 0 .068-.1.087-.2.087h-1.105c-.1 0-.117-.034-.169-.232l-.433-1.786h-1.699l-.403 1.786v.01Zm1.452-4.68a17.129 17.129 0 0 1-.217-1.543h-.022a13.78 13.78 0 0 1-.225 1.544l-.434 1.896h1.305l-.403-1.896h-.004ZM210.21 16.059c0 .198-.039.232-.208.232h-.919c-.169 0-.208-.034-.208-.232V8.97c0-.198.039-.232.208-.232h1.599c.763 0 2.302.053 2.302 2.129 0 1.422-.763 1.828-1.127 2.041l1.469 2.942c.03.053.078.145.078.208s-.1.101-.199.13l-.828.267c-.039.01-.1.019-.139.019-.052 0-.13-.13-.225-.344l-1.335-2.965h-.472v2.888l.004.005Zm.256-4.05c.641 0 1.187-.11 1.187-1.122 0-.958-.563-.992-1.075-.992h-.364v2.12h.256l-.004-.006ZM219.082 16.059c0 .198-.031.232-.2.232h-3.25c-.169 0-.208-.034-.208-.232V8.97c0-.198.039-.232.208-.232h3.237c.2 0 .247.024.247.12 0 .054-.008.078-.03.156l-.186.74c-.039.164-.148.179-.226.179h-1.916v1.819h1.678c.177 0 .208.034.208.232v.726c0 .198-.039.232-.208.232h-1.678v2.163h2.116c.177 0 .208.034.208.232v.726-.005ZM225.917 16.059c0 .198-.03.232-.208.232h-.65c-.139 0-.169-.024-.23-.155l-1.807-3.759c-.295-.62-.464-1.001-.563-1.5h-.022c0 .145.03.707.03 1.215v3.967c0 .198-.039.232-.208.232h-.719c-.169 0-.208-.034-.208-.232V8.97c0-.198.039-.232.208-.232h.81c.148 0 .169.024.226.145l1.629 3.416c.278.585.464 1.146.581 1.596h.017c0-.353-.03-1.127-.03-1.432V8.971c0-.198.039-.232.208-.232h.72c.169 0 .208.034.208.232v7.088h.008ZM26.913 28.24c.117-.822.295-.822.438-.822.178 0 .32.044.438.082l2.197.62c.234.082.555.164.555.41 0 .209-.087.62-.147.91l-4.278 26.218c-.117.576-.204.74-.646.74h-2.518c-.529 0-.56-.125-.646-.74l-1.933-13.851a84.043 84.043 0 0 1-.672-7.132h-.06c-.148 2.763-.412 5.235-.733 7.132l-2.375 13.851c-.117.62-.117.74-.646.74H13.37c-.437 0-.554-.164-.645-.74l-3.81-26.256c-.03-.29-.117-.658-.117-.905s.32-.33.555-.411l2.284-.576c.117-.039.264-.082.438-.082.147 0 .32 0 .437.822l1.76 13.358c.295 2.265.529 5.69.646 7.79h.056c.178-2.352.585-5.69.936-7.79l2.08-12.574c.148-.866.178-1.239.88-1.239h1.994c.468 0 .498.373.646 1.239l2.08 12.574c.351 2.1.646 5.443.82 7.79h.06c.117-2.105.381-5.525.672-7.79L26.9 28.25l.012-.01ZM37.346 55.443c0 .455-.06.576-.412.576h-2.9c-.35 0-.411-.126-.411-.576V39.492h-2.258c-.351 0-.412-.126-.412-.576v-2.68c0-.455.06-.576.412-.576h5.57c.35 0 .41.126.41.576v19.207ZM35.469 32.98c-1.348 0-2.431-1.524-2.431-3.42 0-1.897 1.083-3.383 2.431-3.383s2.401 1.486 2.401 3.382c0 1.897-1.083 3.42-2.4 3.42ZM48.128 55.24c.03.208.06.208.06.33 0 .575-1.55 1.156-2.96 1.156-3.605 0-3.605-4.166-3.605-7.954V27.75c0-.62.203-.62.554-.74l2.462-.702c.087 0 .351-.126.412-.126.234 0 .294.165.294.866v22.464c0 1.32 0 2.472.82 2.472.585 0 .966-.372 1.144-.372.117 0 .204.082.234.246l.585 3.382ZM62.077 55.443c0 .455-.06.576-.411.576h-2.9c-.351 0-.412-.126-.412-.576V42.748c0-1.567-.147-3.464-1.642-3.464-1.231 0-2.111 1.239-2.492 1.732v14.427c0 .455-.061.576-.412.576h-2.9c-.35 0-.411-.126-.411-.576V27.745c0-.62.203-.62.554-.74l2.462-.702c.087 0 .351-.126.412-.126.234 0 .295.165.295.866v10.262c.788-.905 1.963-2.351 4.043-2.351 3.108 0 3.81 2.927 3.81 6.512v13.973l.004.004ZM76.52 53.838c.061.126.087.29.087.455 0 1.07-2.93 2.434-5.244 2.434-3.866 0-6.566-3.092-6.566-10.678 0-6.556 2.492-11.09 6.419-11.09 4.98 0 5.86 6.266 5.86 11.254 0 .784-.118 1.03-.677 1.03h-7.883c0 2.309.468 5.154 3.224 5.154 2.11 0 3.311-1.36 3.723-1.36.147 0 .265.165.32.329l.733 2.472h.005Zm-3.402-10.43c0-1.69-.086-4.616-2.11-4.616-2.284 0-2.401 3.464-2.492 4.615H73.118ZM86.66 55.24c.03.208.06.208.06.33 0 .575-1.552 1.156-2.96 1.156-3.606 0-3.606-4.166-3.606-7.954V27.75c0-.62.204-.62.559-.74l2.462-.702c.086 0 .35-.126.411-.126.234 0 .295.165.295.866v22.464c0 1.32 0 2.472.82 2.472.584 0 .966-.372 1.144-.372.117 0 .203.082.234.246l.585 3.382h-.005ZM107.818 55.444c0 .455-.061.576-.412.576h-2.9c-.351 0-.411-.126-.411-.576V42.749c0-1.568-.117-3.465-1.231-3.465-1.231 0-2.198 1.196-2.579 1.689v14.466c0 .455-.056.576-.412.576h-2.9c-.35 0-.411-.126-.411-.576V42.744c0-1.568-.117-3.464-1.23-3.464-1.232 0-2.198 1.195-2.58 1.688v14.466c0 .455-.06.576-.411.576h-2.9c-.351 0-.412-.126-.412-.576V42.986c0-5.811-.554-5.482-.554-6.43 0-.208.117-.373.32-.455l2.228-1.03c.178-.083.32-.121.438-.121.381 0 .615.904.936 2.844.88-1.074 2.167-2.844 4.481-2.844 1.262 0 2.64 1.112 2.99 2.844.881-1.074 2.142-2.844 4.543-2.844 2.757 0 3.398 2.927 3.398 6.512v13.972l.009.01ZM123.818 27.78c2.843 0 6.826.576 6.826 7.214 0 4.122-1.877 5.443-2.991 6.227 1.379.537 3.663 2.061 3.663 6.803 0 6.884-3.489 7.997-7.269 7.997h-4.806c-.498 0-.616-.165-.616-.866V28.651c0-.74.118-.866.616-.866h4.572l.005-.005Zm-.321 11.665c1.729 0 3.194-.619 3.194-3.875 0-2.598-1.261-3.464-2.873-3.464h-1.231v7.334h.91v.005Zm.147 12.246c2.02 0 3.723-.494 3.723-3.997 0-3.502-1.699-3.914-3.662-3.914h-1.114v7.916h1.053v-.005ZM138.058 55.444c0 .455-.061.576-.412.576h-2.9c-.351 0-.411-.126-.411-.576V42.996c0-4.534-.763-5.279-.763-6.227 0-.164.117-.29.264-.372l2.228-1.278c.117-.038.264-.164.381-.164.351 0 .936 1.853 1.084 3.256.555-.948 1.642-3.256 3.632-3.256.849 0 1.699.411 1.699.948 0 .165-.031.33-.057.411l-.91 3.465c-.03.125-.117.372-.234.372-.177 0-.702-.455-1.378-.455-.91 0-1.846 1.403-2.228 1.98v13.768h.005ZM152.535 56.557c-.117.039-.264.164-.381.164-.265 0-.703-1.441-.85-2.472-.585.823-1.612 2.472-3.81 2.472-2.695 0-4.394-2.472-4.394-6.347 0-6.967 5.335-6.967 7.649-6.967V42.13c0-1.854-.234-3.049-2.08-3.049-1.643 0-3.255 1.239-3.632 1.239-.147 0-.264-.247-.29-.411l-.586-2.516a1.526 1.526 0 0 1-.086-.494c0-.948 2.899-1.935 5.157-1.935 3.663 0 5.041 2.352 5.041 6.638v7.954c0 3.996.763 4.534.763 5.356 0 .164-.117.29-.265.373l-2.227 1.277-.009-.005Zm-1.79-9.768c-.733 0-4.13-.33-4.13 3.3 0 1.606.819 2.8 1.933 2.8 1.113 0 1.846-1.074 2.197-1.567v-4.533ZM169.85 55.444c0 .455-.056.576-.412.576h-2.899c-.351 0-.412-.126-.412-.576V42.75c0-1.567-.147-3.464-1.643-3.464-1.23 0-2.197 1.195-2.578 1.689V55.44c0 .455-.061.576-.412.576h-2.9c-.351 0-.411-.126-.411-.576V42.99c0-5.81-.559-5.482-.559-6.43 0-.208.117-.372.325-.455l2.227-1.03c.178-.083.321-.121.438-.121.381 0 .616.905.936 2.845.85-1.074 2.167-2.845 4.482-2.845 1.612 0 3.809 1.03 3.809 6.019V55.44l.009.005ZM182.712 56.558c-.117.038-.265.164-.382.164-.264 0-.702-1.442-.849-2.472-.468.62-1.76 2.472-3.866 2.472-3.342 0-5.011-3.793-5.011-10.059 0-7.789 1.994-11.708 5.626-11.708 1.582 0 2.258.784 2.726 1.239V27.74c0-.619.204-.619.559-.74l2.462-.701c.087 0 .351-.126.412-.126.234 0 .295.164.295.866v22.507c0 3.996.528 4.534.528 5.356 0 .165-.117.29-.264.373l-2.228 1.277-.008.005Zm-1.76-16.653c-.264-.208-.763-.823-1.994-.823-2.197 0-2.635 2.308-2.635 6.885s.555 6.638 2.462 6.638c1.317 0 1.816-.905 2.167-1.442V39.905ZM198.972 53.838c.056.126.086.29.086.455 0 1.07-2.929 2.434-5.244 2.434-3.87 0-6.566-3.092-6.566-10.678 0-6.556 2.492-11.09 6.419-11.09 4.984 0 5.86 6.266 5.86 11.254 0 .784-.117 1.03-.672 1.03h-7.884c0 2.309.468 5.154 3.225 5.154 2.11 0 3.311-1.36 3.723-1.36.147 0 .264.165.32.329l.733 2.472Zm-3.398-10.43c0-1.69-.087-4.616-2.111-4.616-2.288 0-2.401 3.464-2.492 4.615h4.603ZM214.39 55.444c0 .455-.061.576-.412.576h-2.899c-.351 0-.412-.126-.412-.576V42.75c0-1.567-.147-3.464-1.643-3.464-1.23 0-2.197 1.195-2.578 1.689V55.44c0 .455-.057.576-.412.576h-2.9c-.351 0-.411-.126-.411-.576V42.99c0-5.81-.559-5.482-.559-6.43 0-.208.117-.372.32-.455l2.228-1.03c.173-.083.321-.121.438-.121.381 0 .615.905.936 2.845.849-1.074 2.167-2.845 4.481-2.845 1.613 0 3.81 1.03 3.81 6.019V55.44l.013.005ZM222.416 36.773c.585-.62 1.643-1.814 3.255-1.814 3.983 0 5.127 4.944 5.127 10.305 0 7.006-2.141 11.462-6.068 11.462-1.668 0-2.314-1.157-2.782-1.815-.117.455-.412 1.815-.85 1.815-.147 0-.294-.044-.411-.083l-2.345-.822c-.148-.044-.295-.165-.295-.33 0-.372.321-.74.529-2.142.117-.823.117-1.689.117-2.555V27.75c0-.62.204-.62.555-.74l2.461-.702c.087 0 .351-.126.412-.126.234 0 .295.165.295.866v9.73-.005Zm0 14.96c.178.208.676.866 1.465.866 2.665 0 3.194-3.832 3.194-7.05 0-3.217-.412-6.473-2.635-6.473-.997 0-1.643.948-2.02 1.403v11.254h-.004ZM243.81 56.6c-.174.083-.321.126-.438.126-.382 0-.616-.783-.936-2.433-.789.987-2.167 2.433-4.482 2.433-1.612 0-3.809-1.03-3.809-6.018V36.527c0-.576.203-.62.559-.74l2.461-.702c.087 0 .382-.12.468-.12.178 0 .235.164.235.865v13.107c0 1.567.147 3.464 1.642 3.464 1.231 0 2.198-.91 2.579-1.277V36.532c0-.576.204-.62.555-.74l2.461-.702c.087 0 .382-.121.499-.121.147 0 .204.164.204.866v12.86c0 5.81.554 5.481.554 6.43a.481.481 0 0 1-.32.455l-2.228 1.03-.004-.01ZM253.683 55.444c0 .455-.056.576-.412.576h-2.903c-.351 0-.412-.126-.412-.576V42.996c0-4.534-.763-5.279-.763-6.227 0-.164.117-.29.264-.372l2.228-1.278c.117-.038.265-.164.382-.164.351 0 .936 1.853 1.083 3.256.555-.948 1.643-3.256 3.632-3.256.85 0 1.699.411 1.699.948 0 .165-.03.33-.061.411l-.91 3.465c-.03.125-.117.372-.234.372-.178 0-.702-.455-1.378-.455-.91 0-1.846 1.403-2.228 1.98v13.768h.013ZM270.449 48.028c0 2.719.147 6.967.147 9.274 0 4.495-1.582 7.46-5.656 7.46-2.284 0-6.067-1.315-6.067-2.186 0-.29.03-.455.117-.822l.554-2.516c.057-.29.178-.411.321-.411.351 0 2.141 1.606 4.746 1.606 2.05 0 2.401-1.195 2.401-3.503 0-1.442-.087-2.434-.087-2.72-.437.412-1.551 1.568-3.545 1.568-3.281 0-5.01-3.875-5.01-10.058 0-6.638 2.05-10.76 5.539-10.76 2.08 0 2.93 1.277 3.489 1.935.086-.373.615-1.935 1.027-1.935a.77.77 0 0 1 .295.082l2.284 1.195c.117.082.264.208.264.372 0 .538-.819 2.018-.819 5.279v6.14Zm-3.519-7.504c-.382-.412-.997-1.239-2.315-1.239-1.759 0-2.518 2.308-2.518 6.266 0 3.75.585 6.1 2.345 6.1 1.495 0 2.197-1.03 2.492-1.403v-9.73l-.004.006Z" fill="#fff"></path>
  <defs>
    <linearGradient id="a" x1="0" y1="48.002" x2="279.996" y2="48.002" gradientUnits="userSpaceOnUse">
      <stop stop-color="#811600"></stop>
      <stop offset=".52" stop-color="#AF1A09"></stop>
      <stop offset="1" stop-color="#811600"></stop>
    </linearGradient>
  </defs>
</svg>
