<svg width="500" height="109" viewBox="0 0 500 109" fill="none" xmlns="http://www.w3.org/2000/svg">
<g clip-path="url(#clip0_2_849)">
<path fill-rule="evenodd" clip-rule="evenodd" d="M330.507 39.666C335.701 39.666 339.911 43.8765 339.911 49.0702C339.911 54.2639 335.701 58.4744 330.507 58.4744C325.314 58.4744 321.103 54.2639 321.103 49.0702C321.103 43.8765 325.314 39.666 330.507 39.666ZM457.275 74.2043C457.753 58.4315 483.092 56.9909 497.782 65.8863L492.357 76.5567C487.297 73.0409 482.918 71.4002 477.347 71.8547C472.062 72.2863 471.49 78.0403 480.06 77.823C493.44 77.4829 500.663 84.5174 499.951 93.5557C498.805 108.151 475.815 114.125 455.646 101.331L463.061 90.4801C468.666 93.7015 474.254 96.5771 479.88 95.9054C485.716 95.2079 488.661 90.5001 478.253 89.3939C464.075 87.8904 456.998 83.3655 457.275 74.2043ZM346.717 108.342V63.3966H363.079V69.7023C369.427 59.1719 394.113 59.0146 394.116 75.462L394.121 108.342H377.805L377.625 85.7437C377.554 76.7054 374.267 75.8564 369.836 76.3567C366.16 76.7711 362.867 78.106 362.867 85.7437V108.342H346.72H346.717ZM322.009 62.5905H339.008V108.342H322.009V62.5905ZM239.121 108.342V63.3966H255.482V69.7023C260.385 61.5215 279.282 57.5311 284.71 70.2168C292.422 58.6916 314.98 59.2176 314.975 74.8789L314.957 108.342H297.613V83.7542C297.613 77.1484 296.486 76.5167 290.935 76.7625C286.393 76.9626 285.359 80.73 285.339 85.0091L285.23 108.345H268.914L268.734 85.7466C268.663 76.7082 266.679 75.9393 262.237 76.3595C257.838 76.774 255.914 77.3857 255.914 85.7466V108.345H239.121V108.342ZM209.619 60.058C222.954 60.058 233.761 70.8656 233.761 84.2002C233.761 97.5347 222.954 108.342 209.619 108.342C196.285 108.342 185.477 97.5347 185.477 84.2002C185.477 70.8656 196.285 60.058 209.619 60.058ZM209.619 75.6106C214.364 75.6106 218.209 79.4552 218.209 84.2002C218.209 88.9451 214.364 92.7897 209.619 92.7897C204.874 92.7897 201.03 88.9451 201.03 84.2002C201.03 79.4552 204.874 75.6106 209.619 75.6106ZM119.136 108.342V44.6997H138.059C144.064 44.6997 149.204 45.0255 153.448 45.6801C157.693 46.3318 161.166 47.3409 163.819 48.7072C169.458 51.5999 173.766 55.4445 176.782 60.2209C179.783 65.0002 181.284 70.4454 181.284 76.5567C181.284 82.668 179.783 88.0704 176.796 92.8183C173.809 97.5661 169.487 101.411 163.816 104.332C161.072 105.727 157.57 106.75 153.34 107.388C149.109 108.025 143.424 108.337 136.326 108.337H119.133L119.136 108.342ZM138.03 91.532V61.5129H145.759C148.212 61.5129 150.31 61.6673 152.045 61.976C153.78 62.2847 155.198 62.7592 156.281 63.4023C158.585 64.7686 160.343 66.5809 161.578 68.8333C162.804 71.0857 163.416 73.6554 163.416 76.5396C163.416 79.4237 162.804 81.9706 161.583 84.2116C160.363 86.4526 158.599 88.2648 156.281 89.6426C155.161 90.3 153.728 90.7831 152.002 91.0832C150.276 91.3834 147.952 91.532 145.053 91.532H138.03ZM422.763 60.058C436.094 60.058 446.905 70.8656 446.905 84.2002C446.905 97.5347 436.097 108.342 422.763 108.342C409.428 108.342 398.621 97.5347 398.621 84.2002C398.621 70.8656 409.428 60.058 422.763 60.058ZM422.763 75.6106C427.508 75.6106 431.352 79.4552 431.352 84.2002C431.352 88.9451 427.508 92.7897 422.763 92.7897C418.018 92.7897 414.173 88.9451 414.173 84.2002C414.173 79.4552 418.018 75.6106 422.763 75.6106ZM451.941 39.7689C455.663 39.7689 458.862 41.9956 460.285 45.1856C461.38 47.6439 461.466 50.7767 460.802 53.3893C459.782 57.4139 456.386 61.35 449.234 65.0831L447.262 62.4133C448.663 61.2471 450.101 60.0408 450.681 59.1604C451.721 57.5854 450.364 57.9742 449.217 57.6169C445.504 56.4592 442.809 52.992 442.809 48.8987C442.809 43.8565 446.896 39.7661 451.941 39.7661V39.7689Z" fill="#0074AD"/>
<path d="M283.166 106.407C283.349 106.407 283.526 106.453 283.701 106.547C283.875 106.642 284.01 106.776 284.107 106.95C284.204 107.125 284.253 107.308 284.253 107.496C284.253 107.685 284.204 107.865 284.11 108.037C284.015 108.211 283.878 108.345 283.707 108.44C283.535 108.537 283.352 108.582 283.163 108.582C282.975 108.582 282.795 108.534 282.62 108.44C282.446 108.345 282.312 108.211 282.217 108.037C282.12 107.865 282.072 107.682 282.072 107.496C282.072 107.31 282.12 107.125 282.217 106.95C282.315 106.776 282.452 106.642 282.626 106.547C282.8 106.453 282.978 106.407 283.161 106.407H283.166ZM283.166 106.587C283.012 106.587 282.863 106.627 282.72 106.704C282.575 106.782 282.463 106.896 282.38 107.042C282.297 107.188 282.257 107.339 282.257 107.496C282.257 107.653 282.297 107.802 282.377 107.948C282.457 108.091 282.569 108.205 282.715 108.285C282.86 108.365 283.009 108.405 283.166 108.405C283.324 108.405 283.475 108.365 283.618 108.285C283.764 108.205 283.875 108.094 283.955 107.948C284.035 107.805 284.075 107.653 284.075 107.496C284.075 107.339 284.035 107.188 283.952 107.042C283.872 106.896 283.758 106.785 283.612 106.704C283.466 106.627 283.318 106.587 283.166 106.587ZM282.689 108.097V106.925H283.092C283.229 106.925 283.329 106.936 283.392 106.956C283.455 106.979 283.504 107.016 283.541 107.07C283.578 107.125 283.595 107.182 283.595 107.242C283.595 107.328 283.564 107.402 283.504 107.465C283.444 107.528 283.361 107.565 283.261 107.571C283.301 107.588 283.335 107.608 283.361 107.633C283.409 107.679 283.466 107.756 283.535 107.865L283.678 108.094H283.446L283.344 107.908C283.261 107.762 283.195 107.671 283.146 107.636C283.112 107.611 283.061 107.596 282.995 107.596H282.883V108.094H282.695L282.689 108.097ZM282.878 107.439H283.106C283.215 107.439 283.289 107.422 283.329 107.391C283.369 107.359 283.389 107.313 283.389 107.259C283.389 107.225 283.381 107.193 283.361 107.165C283.341 107.139 283.315 107.116 283.281 107.105C283.246 107.09 283.183 107.085 283.089 107.085H282.875V107.439H282.878Z" fill="#0074AD"/>
<path fill-rule="evenodd" clip-rule="evenodd" d="M36.705 34.178L69.9598 1.03752C71.3519 -0.348815 73.6243 -0.343099 75.0078 1.04609L106.385 32.5316C107.771 33.9236 107.768 36.1932 106.376 37.5795L73.1184 70.72L36.7021 34.1751L36.705 34.178ZM66.504 28.2954C69.997 24.8167 75.6481 24.8253 79.1268 28.3182C82.6055 31.8112 82.5969 37.4623 79.1039 40.941C75.6109 44.4197 69.9598 44.4111 66.4811 40.9181C63.0024 37.4252 63.011 31.7741 66.504 28.2954Z" fill="#E61E29"/>
<path fill-rule="evenodd" clip-rule="evenodd" d="M41.3813 66.3126C44.8743 62.8339 50.5254 62.8425 54.0041 66.3355C57.4828 69.8285 57.4742 75.4796 53.9812 78.9583C50.4911 82.437 44.8371 82.4284 41.3584 78.9354C37.8797 75.4453 37.8883 69.7913 41.3813 66.3126ZM15.2525 66.3927C18.7455 62.914 24.3966 62.9225 27.8753 66.4155C31.354 69.9085 31.3454 75.5596 27.8524 79.0383C24.3623 82.517 18.7083 82.5084 15.2296 79.0154C11.751 75.5253 11.7595 69.8714 15.2525 66.3927ZM1.04619 69.7113L34.3039 36.5708L70.7201 73.1157L37.4624 106.256C36.0704 107.642 33.8008 107.637 32.4145 106.248L1.03761 74.7621C-0.348722 73.3701 -0.345864 71.1005 1.04619 69.7141V69.7113Z" fill="#0074AD"/>
<path d="M49.0219 107.454V102.995H47.324V102.217H51.603V102.995H49.8937V107.454H49.0219ZM52.1919 107.454V102.214H53.4781L54.8016 106.399L56.0793 102.214H57.3399V107.454H56.5424V103.058L55.1932 107.454H54.4043L52.9951 102.995V107.454H52.1919Z" fill="#0074AD"/>
</g>
<defs>
<clipPath id="clip0_2_849">
<rect width="500" height="108.586" fill="white"/>
</clipPath>
</defs>
</svg>
