<?xml version="1.0" encoding="UTF-8" standalone="no"?>
<svg
   width="240"
   height="81"
   viewBox="0 0 240 81"
   fill="none"
   version="1.1"
   id="svg14"
   sodipodi:docname="logo-douglas-group.svg"
   inkscape:version="1.3.2 (091e20e, 2023-11-25, custom)"
   xmlns:inkscape="http://www.inkscape.org/namespaces/inkscape"
   xmlns:sodipodi="http://sodipodi.sourceforge.net/DTD/sodipodi-0.dtd"
   xmlns="http://www.w3.org/2000/svg"
   xmlns:svg="http://www.w3.org/2000/svg">
  <sodipodi:namedview
     id="namedview14"
     pagecolor="#505050"
     bordercolor="#eeeeee"
     borderopacity="1"
     inkscape:showpageshadow="0"
     inkscape:pageopacity="0"
     inkscape:pagecheckerboard="0"
     inkscape:deskcolor="#505050"
     inkscape:zoom="3.0208333"
     inkscape:cx="120"
     inkscape:cy="40.551724"
     inkscape:window-width="1920"
     inkscape:window-height="1001"
     inkscape:window-x="-9"
     inkscape:window-y="-9"
     inkscape:window-maximized="1"
     inkscape:current-layer="svg14" />
  <g
     clip-path="url(#clip0_1505_13351)"
     id="g13"
     style="fill:#000000">
    <g
       clip-path="url(#clip1_1505_13351)"
       id="g12"
       style="fill:#000000">
      <path
         d="M159.692 61.1255H153.833V79.5138H156.238V73.0456H159.692C161.292 73.0456 162.842 72.4427 163.832 71.4436C164.967 70.2895 165.475 68.9459 165.475 67.0855C165.475 65.2252 164.967 63.8816 163.832 62.7275C162.842 61.7284 161.301 61.1255 159.692 61.1255ZM162.02 69.7727H162.004C161.462 70.3412 160.505 70.6943 159.565 70.6943H156.229V63.4682H159.565C160.505 63.4682 161.462 63.8213 162.012 64.3897C162.774 65.0874 163.053 65.8108 163.053 67.0769C163.053 68.343 162.774 69.0751 162.012 69.7641L162.02 69.7727Z"
         fill="#2F2F2F"
         id="path1"
         style="fill:#000000" />
      <path
         d="M146.527 72.3047C146.527 73.0195 146.442 73.7258 146.256 74.4148C145.697 76.3699 144.114 77.4895 141.912 77.4895C139.711 77.4895 138.162 76.3699 137.594 74.4234C137.408 73.7344 137.323 73.0281 137.323 72.3047V61.0908H134.91V72.4855C134.91 73.4502 135.046 74.4062 135.308 75.3364C136.223 78.2647 138.576 79.8839 141.929 79.8839C145.282 79.8839 147.594 78.2475 148.55 75.2761C148.804 74.3545 148.923 73.3899 148.923 72.4338V61.0908H146.51V72.3047H146.527Z"
         fill="#2F2F2F"
         id="path2"
         style="fill:#000000" />
      <path
         d="M121.93 60.5312C116.638 60.5312 112.642 64.6482 112.642 70.1087C112.642 75.5692 116.545 79.6861 121.93 79.6861C127.315 79.6861 131.218 75.6553 131.218 70.1087C131.218 64.562 127.222 60.5312 121.93 60.5312ZM121.93 77.2831C117.883 77.2831 115.055 74.3203 115.055 70.0828C115.055 65.8453 117.883 62.8825 121.93 62.8825C125.977 62.8825 128.805 65.8453 128.805 70.0828C128.805 74.3203 125.977 77.2831 121.93 77.2831Z"
         fill="#2F2F2F"
         id="path3"
         style="fill:#000000" />
      <path
         d="M107.528 71.4348C108.663 70.2721 109.171 68.9199 109.171 67.0595C109.171 65.1992 108.663 63.847 107.528 62.6929C106.538 61.6852 104.988 61.0823 103.38 61.0823H97.5715V79.5309H99.9845V73.0368H103.134C103.177 73.0368 103.219 73.0368 103.261 73.0368L106.961 79.5395H109.848L105.835 72.5028C106.563 72.2014 107.156 71.8138 107.528 71.4435V71.4348ZM105.7 69.7726C105.149 70.3324 104.116 70.6855 103.007 70.6855H99.9761V63.4336H103.253C104.193 63.4336 105.149 63.7953 105.717 64.3638C106.479 65.0614 106.766 65.7935 106.766 67.0682C106.766 68.3429 106.479 69.0749 105.717 69.7726L105.7 69.7898V69.7726Z"
         fill="#2F2F2F"
         id="path4"
         style="fill:#000000" />
      <path
         d="M82.4242 70.6685V73.0198H90.5693C89.8242 75.7328 87.4873 77.464 84.4986 77.464C80.4768 77.464 77.6743 74.5012 77.6743 70.2637C77.6743 66.0262 80.5446 63.0634 84.4986 63.0634C87.1741 63.0634 89.35 64.4845 90.3068 66.8703L90.3915 67.0856H92.94L92.8045 66.6377C91.7038 63.0376 88.4441 60.7122 84.4986 60.7122C79.2322 60.7122 75.2613 64.8204 75.2613 70.2637C75.2613 75.707 79.0629 79.867 84.4986 79.867C86.9963 79.867 89.2654 78.954 90.8741 77.3004C92.4489 75.6812 93.304 73.4504 93.2786 71.013V70.6685H82.4327H82.4242Z"
         fill="#2F2F2F"
         id="path5"
         style="fill:#000000" />
      <path
         d="M161.064 1.39575H156.813V44.9506H173.959L175.652 40.8681H161.064V1.39575Z"
         fill="#2F2F2F"
         id="path6"
         style="fill:#000000" />
      <path
         d="M27.6695 39.1543C26.5095 39.6796 25.2903 40.0672 24.0372 40.2998C21.785 40.7304 19.499 40.9199 17.213 40.8768H4.25879V5.40078H17.213C19.499 5.34911 21.785 5.5472 24.0372 5.97784C32.2415 7.76069 36.7459 13.8069 36.7459 23.1689C36.8051 26.2351 36.204 29.2754 34.9932 32.0832C35.7637 33.3234 36.712 34.4431 37.8127 35.3905C39.9632 31.6956 41.0639 27.4581 41.0047 23.1603C41.0047 11.8259 35.1202 4.31557 25.104 2.08486C22.7164 1.58532 20.278 1.34417 17.8395 1.38723H0V44.9421H17.8395C20.278 45.0023 22.7079 44.787 25.104 44.3047C26.9752 43.8999 28.7871 43.2367 30.4889 42.3324C29.3882 41.428 28.4399 40.3514 27.6695 39.1457V39.1543Z"
         fill="#2F2F2F"
         id="path7"
         style="fill:#000000" />
      <path
         d="M89.7651 45.8378C97.7747 45.8378 103.1 41.764 105.225 35.1407C105.818 32.9444 106.114 30.6707 106.106 28.3883V1.39575H101.847V28.0782C101.856 29.9041 101.627 31.73 101.161 33.487C99.6628 38.7064 95.404 41.6348 89.7058 41.6348C84.0076 41.6348 79.8166 38.7064 78.3095 33.487C77.8438 31.7214 77.6067 29.9041 77.6237 28.0782V1.39575H73.3649V28.5261C73.3649 30.8085 73.6866 33.0822 74.3047 35.2785C76.3706 41.9018 81.7555 45.8464 89.7651 45.8464V45.8378Z"
         fill="#2F2F2F"
         id="path8"
         style="fill:#000000" />
      <path
         d="M47.3887 0.499921C43.2399 0.474083 39.1759 1.67126 35.6791 3.93643C36.7459 4.77187 37.7111 5.73651 38.5578 6.8045C41.2587 5.30587 44.3068 4.53071 47.3802 4.57378C57.769 4.57378 65.1606 12.3425 65.1606 23.1688C65.1606 33.9951 57.7775 41.6347 47.3802 41.6347C36.983 41.6347 29.7269 33.9262 29.7269 23.1688C29.693 20.0854 30.3619 17.0365 31.6658 14.2546C30.9123 13.0402 29.9301 11.9808 28.7871 11.1367C26.6026 14.7541 25.4511 18.9227 25.4681 23.1688C25.4681 36.2861 34.6715 45.8377 47.3802 45.8377C60.0889 45.8377 69.4109 36.0966 69.4109 23.1688C69.4109 10.241 59.9704 0.499921 47.3887 0.499921Z"
         fill="#2F2F2F"
         id="path9"
         style="fill:#000000" />
      <path
         d="M193.678 1.39575L177.091 44.9506H181.85L186.921 31.1357H204.575L209.705 44.9506H214.591L197.937 1.39575H193.678ZM203.068 27.0618H188.42L193.365 13.6862C194.245 11.3263 194.99 8.97499 195.744 6.61509C196.497 8.97499 197.31 11.3263 198.182 13.6862L203.068 27.0618Z"
         fill="#2F2F2F"
         id="path10"
         style="fill:#000000" />
      <path
         d="M230.923 21.5755L226.419 19.3448C222.584 17.45 220.408 15.1073 220.408 11.4468C220.408 7.373 223.159 4.44466 227.478 4.44466C231.796 4.44466 234.429 7.63139 235.115 12.6613H239.119C238.374 4.25517 233.557 0.5 227.486 0.5C220.789 0.5 216.157 5.40067 216.157 11.6449C216.157 17.3466 219.544 20.9726 224.861 23.4875L229.433 25.6493C232.685 27.1738 235.631 29.6629 235.631 34.1157C235.631 38.5685 232.498 41.626 227.867 41.626C222.863 41.626 219.231 38.6977 218.477 31.7558H214.219C214.904 41.3677 220.289 45.8291 227.799 45.8291C235.309 45.8291 240.008 40.8595 240.008 33.9176C240.008 26.9757 235.563 23.8579 230.932 21.5669L230.923 21.5755Z"
         fill="#2F2F2F"
         id="path11"
         style="fill:#000000" />
      <path
         d="M127.764 29.0256H147.983C146.416 36.6048 140.219 41.6347 132.023 41.6347C121.634 41.6347 114.429 33.9004 114.429 23.1086C114.429 12.3167 121.753 4.58246 132.023 4.58246C138.906 4.58246 144.545 8.20845 147.043 14.4527H151.615C148.982 5.84854 141.286 0.5 132.023 0.5C119.5 0.5 110.17 10.2411 110.17 23.1086C110.17 35.9761 119.187 45.8377 132.014 45.8377C144.156 45.8377 152.86 36.9235 152.733 24.9517H127.756V29.0256H127.764Z"
         fill="#2F2F2F"
         id="path12"
         style="fill:#000000" />
    </g>
  </g>
  <defs
     id="defs14">
    <clipPath
       id="clip0_1505_13351">
      <rect
         width="240"
         height="80"
         fill="white"
         transform="translate(0 0.5)"
         id="rect13" />
    </clipPath>
    <clipPath
       id="clip1_1505_13351">
      <rect
         width="240"
         height="79.3841"
         fill="white"
         transform="translate(0 0.5)"
         id="rect14" />
    </clipPath>
  </defs>
</svg>
