<?xml version="1.0" encoding="UTF-8" standalone="no"?>
<!-- Created with Inkscape (http://www.inkscape.org/) -->

<svg
   xmlns:dc="http://purl.org/dc/elements/1.1/"
   xmlns:cc="http://creativecommons.org/ns#"
   xmlns:rdf="http://www.w3.org/1999/02/22-rdf-syntax-ns#"
   xmlns:svg="http://www.w3.org/2000/svg"
   xmlns="http://www.w3.org/2000/svg"
   version="1.1"
   width="244.97792"
   height="103.78384"
   id="svg2">
  <defs
     id="defs4">
    <clipPath
       id="clipPath3281">
      <path
         d="m -1.00021,85.1889 597.27621,0 0,-86.18901 -597.27621,0 0,86.18901 z"
         id="path3283" />
    </clipPath>
    <clipPath
       id="clipPath3273">
      <path
         d="m 0,0 595.276,0 0,841.89 L 0,841.89 0,0 z"
         id="path3275" />
    </clipPath>
    <clipPath
       id="clipPath3257">
      <path
         d="m 0,737.859 595.275,0 0,84.188 -595.275,0 0,-84.188 z"
         id="path3259" />
    </clipPath>
    <clipPath
       id="clipPath2999">
      <path
         d="m 0,0 595.275,0 0,841.89 L 0,841.89 0,0 z"
         id="path3001" />
    </clipPath>
    <clipPath
       id="clipPath3257-4">
      <path
         d="m 0,737.859 595.275,0 0,84.188 -595.275,0 0,-84.188 z"
         id="path3259-0" />
    </clipPath>
  </defs>
  <metadata
     id="metadata7">
    <rdf:RDF>
      <cc:Work
         rdf:about="">
        <dc:format>image/svg+xml</dc:format>
        <dc:type
           rdf:resource="http://purl.org/dc/dcmitype/StillImage" />
        <dc:title></dc:title>
      </cc:Work>
    </rdf:RDF>
  </metadata>
  <g
     transform="translate(-245.02208,-331.70897)"
     id="layer1">
    <g
       transform="matrix(1.25,0,0,-1.25,-22.0475,1058.5434)"
       id="g2993">
      <path
         d="m 213.65566,498.44047 195.98234,0 0,83.02707 -195.98234,0 0,-83.02707 z"
         id="path3241"
         style="fill:#ffe406;fill-opacity:1;fill-rule:nonzero;stroke:none" />
      <path
         d="m 213.65566,576.56683 195.98234,0 0,4.967 -195.98234,0 0,-4.967 z"
         id="path3243"
         style="fill:#0073b8;fill-opacity:1;fill-rule:nonzero;stroke:none" />
      <path
         d="m 14.857641,571.87411 595.274999,0 0,5.011 -595.274999,0 0,-5.011 z"
         id="path3245"
         style="fill:#ffffff;fill-opacity:1;fill-rule:nonzero;stroke:none" />
      <path
         d="m 213.65566,498.06939 195.98234,0 0,4.81134 -195.98234,0 0,-4.81134 z"
         id="path3247"
         style="fill:#e4312c;fill-opacity:1;fill-rule:nonzero;stroke:none" />
      <path
         d="m 14.857641,502.56011 595.274999,0 0,5.01 -595.274999,0 0,-5.01 z"
         id="path3249"
         style="fill:#ffffff;fill-opacity:1;fill-rule:nonzero;stroke:none" />
      <path
         d="m 219.86764,507.57211 189.77036,0 0,64.302 -189.77036,0 0,-64.302 z"
         id="path3251"
         style="fill:#ffe406;fill-opacity:1;fill-rule:nonzero;stroke:none" />
      <g
         transform="translate(7.5845427,-240.15093)"
         id="g3253">
        <g
           clip-path="url(#clipPath3257-4)"
           id="g3255">
          <g
             transform="translate(336.4521,782.7702)"
             id="g3261">
            <path
               d="m 0,0 c -2.608,1.425 -8.3,2.845 -12.011,2.845 -0.611,0 -0.453,-0.349 -0.116,-0.411 4.354,-0.809 9.703,-2.879 11.342,-6.567 L 0,0 z m 18.273,-31.266 -2.582,0 c -1.236,0 -1.787,0.766 -1.519,2.138 l 1.775,9.039 c 0,0 -2.056,-0.22 -4.19,-0.22 -7.01,0 -11.392,3.694 -12.569,8.676 -2.2,-5.792 -9.169,-8.716 -17.693,-8.716 -4.578,0 -9.888,0.798 -13.044,1.901 -0.79,0.276 -1.386,1.087 -1.13,2.15 l 1.814,9.454 c 0.197,1.033 1.03,1.414 2.298,0.965 3.531,-1.252 7.002,-2.072 10.187,-2.072 0.354,0 0.413,0.35 0.044,0.414 -6.5,1.128 -10.577,3.758 -10.854,8.205 -1.933,0.563 -5.276,0.839 -5.743,-1.933 l -2.897,-17.239 c -0.169,-1.002 -0.801,-1.508 -1.876,-1.508 l -12.062,0 c -0.851,0 -1.545,0.749 -1.383,1.929 -1.162,-1.432 -2.463,-1.938 -5.327,-1.938 l -5.673,0 c -11.438,0 -15.422,4.939 -16.301,10.823 -5.045,-6.306 -14.15,-10.814 -23.043,-10.814 l -12.791,0 c -3.293,0 -5.779,2.513 -4.98,6.758 l 6.654,35.309 c 0.448,2.369 1.947,3.859 4.531,3.859 l 12.676,0 c 10.246,0 17.182,-5.034 20.345,-12.919 0.203,0.678 0.751,0.96 1.602,0.961 l 11.789,0.003 c 0.979,0 1.328,-0.554 1.141,-1.492 l -3.469,-17.345 c -0.215,-1.074 0.363,-1.915 1.791,-1.915 l 3.754,19.298 c 0.203,1.05 0.79,1.454 1.639,1.454 l 11.917,0 c 1.143,0 1.522,-0.434 1.337,-1.49 L -46.04,9.743 c 2.786,3.308 7.437,4.919 12.245,4.919 4.318,0 8.288,-1.159 10.53,-1.923 2.323,0.974 5.762,1.797 10.152,1.797 3.725,0 8.3,-0.857 11.758,-1.714 0.207,0.71 0.844,1.132 1.877,1.134 l 2.15,0.003 0.799,4.294 c 0.55,2.951 3.532,4.64 7.629,4.64 5.961,0 7.896,-2.477 7.129,-6.72 l -0.401,-2.214 16.871,0 c 0.946,0 1.561,-0.397 1.658,-1.589 l 0.471,-5.845 2.211,5.973 c 0.377,1.024 1.121,1.461 2.221,1.461 l 13.368,0 c 1.118,0 1.501,-0.777 1.043,-1.799 L 45.682,-10.086 C 39.762,-23.27 31.704,-31.266 18.273,-31.266 M -103.304,-5.27 c 5.723,0.761 10.815,5.351 10.815,11.744 0,3.318 -2.34,5.432 -7.511,5.451 L -103.304,-5.27 z M 15.422,1.895 13.85,-5.965 c -0.137,-0.684 0.338,-1.132 1.17,-1.132 1.717,0 3.437,0.576 5.083,1.005 1.284,0.335 2.151,-0.236 1.901,-1.464 L 20,-17.463 c 3.991,0 4.783,2.848 4.292,6.54 l -1.707,12.818 -7.163,0 z m -118.162,-24.601 -1.586,0 0,-8.631 1.586,0 0,8.631 z m 7.804,-8.63 0,4.066 c 0,1.823 -1.024,2.282 -1.981,2.282 -0.8,0 -1.481,-0.341 -2.06,-0.813 l 0,3.537 -1.573,0 0,-9.072 1.573,0 0,4.315 c 0.42,0.354 0.972,0.656 1.51,0.656 0.838,0 0.943,-0.656 0.943,-1.351 l 0,-3.62 1.588,0 z m 6.075,6.086 c -0.237,0.17 -0.564,0.262 -0.867,0.262 -0.589,0 -1.075,-0.236 -1.718,-0.8 l -0.171,0.656 -1.324,0 0,-6.204 1.574,0 0,4.394 c 0.42,0.38 0.826,0.551 1.194,0.551 0.196,0 0.472,-0.04 0.733,-0.197 l 0.579,1.338 z m 12.398,-5.404 0,3.673 -1.586,0 0,-2.938 c -0.316,-0.145 -0.789,-0.237 -1.366,-0.237 -1.888,0 -3.029,1.365 -3.029,3.175 0,1.665 0.972,3.055 3.239,3.055 0.906,0 1.706,-0.275 2.361,-0.615 l 0.026,1.481 c -0.628,0.223 -1.441,0.446 -2.543,0.446 -2.886,0 -4.813,-1.927 -4.813,-4.498 0,-2.453 1.664,-4.355 4.366,-4.355 1.39,0 2.558,0.381 3.345,0.813 m 7.381,2.006 0,0.46 c 0,1.927 -1.102,3.2 -2.782,3.2 -1.771,0 -2.819,-1.469 -2.819,-3.239 0,-1.666 0.918,-3.24 3.081,-3.24 0.735,0 1.563,0.197 2.257,0.682 l -0.381,1.01 c -0.538,-0.289 -1.024,-0.433 -1.613,-0.433 -0.957,0 -1.718,0.643 -1.744,1.56 l 4.001,0 z m -1.627,1.116 -2.413,0 c 0,0.682 0.459,1.364 1.219,1.364 0.801,0 1.168,-0.695 1.194,-1.364 m 7.489,-3.266 -0.42,0.997 c -0.235,-0.158 -0.643,-0.341 -1.036,-0.341 -0.406,0 -0.591,0.223 -0.591,0.708 l 0,3.122 1.47,0 0.459,1.18 -1.929,0 0,1.902 -1.572,-0.473 0,-1.429 -1.104,0 0,-1.18 1.104,0 0,-3.699 c 0,-0.839 0.433,-1.456 1.533,-1.456 0.603,0 1.443,0.21 2.086,0.669 m 5.516,5.548 c -0.237,0.17 -0.564,0.262 -0.867,0.262 -0.589,0 -1.075,-0.236 -1.718,-0.8 l -0.17,0.656 -1.325,0 0,-6.204 1.574,0 0,4.394 c 0.42,0.38 0.826,0.551 1.192,0.551 0.198,0 0.474,-0.04 0.735,-0.197 l 0.579,1.338 z m 5.714,1.888 c 0,0.46 -0.367,0.827 -0.826,0.827 -0.447,0 -0.814,-0.367 -0.814,-0.827 0,-0.471 0.367,-0.839 0.814,-0.839 0.459,0 0.826,0.368 0.826,0.839 m -2.453,0 c 0,0.46 -0.379,0.827 -0.826,0.827 -0.445,0 -0.826,-0.367 -0.826,-0.827 0,-0.471 0.381,-0.839 0.826,-0.839 0.447,0 0.826,0.368 0.826,0.839 m 2.978,-7.974 c -0.093,0.289 -0.118,0.748 -0.118,1.64 l 0,2.452 c 0,1.626 -0.918,2.256 -2.453,2.256 -0.827,0 -1.6,-0.131 -2.426,-0.682 l 0.499,-0.984 c 0.391,0.237 0.931,0.459 1.6,0.459 0.653,0 1.193,-0.302 1.193,-1.049 l 0,-0.157 -1.102,-0.039 c -1.6,-0.053 -2.61,-0.748 -2.61,-2.034 0,-1.22 0.89,-1.993 2.033,-1.993 0.826,0 1.39,0.315 1.798,0.682 l 0.26,-0.551 1.326,0 z m -1.718,1.508 c -0.197,-0.183 -0.564,-0.393 -1.116,-0.393 -0.655,0 -1.009,0.354 -1.009,0.865 0,0.526 0.379,0.814 1.233,0.84 l 0.892,0.026 0,-1.338 z m 9.288,-1.508 0,4.119 c 0,1.665 -1.011,2.229 -1.954,2.229 -0.84,0 -1.508,-0.315 -2.177,-0.813 l -0.171,0.669 -1.339,0 0,-6.204 1.576,0 0,4.342 c 0.484,0.367 1.021,0.655 1.573,0.655 0.799,0 0.919,-0.708 0.919,-1.351 l 0,-3.646 1.573,0 z m 7.638,0 -2.766,3.541 2.544,2.663 -1.823,0 -1.994,-2.112 -0.026,4.98 -1.574,0 0,-9.072 1.574,0 0,2.885 2.23,-2.885 1.835,0 z m 6.291,2.688 0,0.46 c 0,1.927 -1.102,3.2 -2.781,3.2 -1.771,0 -2.821,-1.469 -2.821,-3.239 0,-1.666 0.919,-3.24 3.083,-3.24 0.733,0 1.561,0.197 2.257,0.682 l -0.383,1.01 c -0.537,-0.289 -1.023,-0.433 -1.612,-0.433 -0.958,0 -1.718,0.643 -1.745,1.56 l 4.002,0 z m -1.627,1.116 -2.414,0 c 0,0.682 0.459,1.364 1.219,1.364 0.801,0 1.168,-0.695 1.195,-1.364 m 12.859,-3.804 0,4.211 c 0,1.626 -0.983,2.137 -2.046,2.137 -0.681,0 -1.495,-0.315 -2.216,-0.931 -0.29,0.577 -0.852,0.931 -1.627,0.931 -0.722,0 -1.429,-0.301 -2.113,-0.826 l -0.156,0.682 -1.325,0 0,-6.204 1.574,0 0,4.381 c 0.408,0.328 0.931,0.63 1.495,0.63 0.762,0 0.892,-0.577 0.892,-1.273 l 0,-3.738 1.574,0 0,4.158 c 0,0.079 0,0.17 -0.013,0.223 0.408,0.328 0.931,0.63 1.495,0.63 0.775,0 0.906,-0.551 0.906,-1.247 l 0,-3.764 1.56,0 z m 7.136,0 c -0.093,0.289 -0.12,0.748 -0.12,1.64 l 0,2.452 c 0,1.626 -0.929,2.256 -2.465,2.256 -0.826,0 -1.6,-0.131 -2.426,-0.682 l 0.512,-0.984 c 0.394,0.237 0.917,0.459 1.601,0.459 0.655,0 1.18,-0.302 1.18,-1.049 l 0,-0.157 -1.102,-0.039 c -1.588,-0.053 -2.597,-0.748 -2.597,-2.034 0,-1.22 0.892,-1.993 2.033,-1.993 0.826,0 1.39,0.315 1.797,0.682 l 0.262,-0.551 1.325,0 z m -1.718,1.508 c -0.21,-0.183 -0.564,-0.393 -1.114,-0.393 -0.657,0 -1.012,0.354 -1.012,0.865 0,0.526 0.381,0.814 1.232,0.84 l 0.894,0.026 0,-1.338 z m 7.727,4.578 c -0.237,0.17 -0.563,0.262 -0.865,0.262 -0.591,0 -1.077,-0.236 -1.72,-0.8 l -0.169,0.656 -1.326,0 0,-6.204 1.575,0 0,4.394 c 0.42,0.38 0.826,0.551 1.193,0.551 0.198,0 0.472,-0.04 0.735,-0.197 l 0.577,1.338 z m 6.894,-6.086 -2.768,3.541 2.545,2.663 -1.822,0 -1.994,-2.112 -0.027,4.98 -1.573,0 0,-9.072 1.573,0 0,2.885 2.231,-2.885 1.835,0 z m 5.487,0.538 -0.42,0.997 c -0.236,-0.158 -0.642,-0.341 -1.036,-0.341 -0.405,0 -0.589,0.223 -0.589,0.708 l 0,3.122 1.469,0 0.459,1.18 -1.928,0 0,1.902 -1.575,-0.473 0,-1.429 -1.1,0 0,-1.18 1.1,0 0,-3.699 c 0,-0.839 0.434,-1.456 1.536,-1.456 0.604,0 1.442,0.21 2.084,0.669"
               id="path3263"
               style="fill:#0073b8;fill-opacity:1;fill-rule:evenodd;stroke:none" />
          </g>
          <g
             transform="translate(353.1041,755.9988)"
             id="g3265">
            <path
               d="m 0,0 1.497,0 c 10.376,0 16.828,5.475 22.567,18.346 l 9.3,20.856 -9.222,0 -7.022,-18.017 -1.625,18.017 -8.939,0 2.978,-22.89 C 10.29,11.646 8.715,7.503 3.094,7.497 L 1.508,7.496 0,0 z m -12.755,39.202 -3.546,0 -1.357,-6.917 3.461,0 -2.09,-10.752 c -1.442,-8.072 3.749,-10.958 10.377,-10.958 3.174,0 5.369,0.342 5.369,0.342 l 1.532,7.476 c 0,0 -2.865,-0.608 -5.171,-0.608 -2.305,0 -4.035,0.862 -3.46,3.748 l 2.088,10.752 8.729,0 1.305,6.917 -8.59,0 1.071,5.478 c 0.445,2.279 -1.438,3.461 -3.743,3.461 -2.31,0 -4.459,-1.182 -4.904,-3.461 l -1.071,-5.478 z m -17.448,0.454 c -8.647,0 -14.413,-3.169 -14.413,-9.509 0,-8.94 13.897,-7.179 13.897,-10.634 0,-1.731 -2.305,-2.306 -4.616,-2.306 -4.898,0 -10.822,2.061 -10.822,2.061 l -1.417,-7.291 c 0,0 5.324,-1.403 10.801,-1.403 8.647,0 14.988,2.885 14.988,10.089 0,8.939 -14.184,6.598 -14.184,10.059 0,2.018 2.306,2.018 4.611,2.018 4.904,0 10.443,-1.519 10.443,-1.519 l 1.392,7.092 c 0,0 -4.913,1.343 -10.68,1.343 m -14.915,-0.485 c 0,0 -2.161,0.54 -5.616,0.54 -6.342,0 -12.429,-2.816 -13.837,-10.664 l -3.245,-18.095 8.855,0 3.028,17.393 c 0.497,2.856 2.302,4.163 4.98,4.163 2.587,0 4.353,-0.565 4.353,-0.565 l 1.482,7.228 z m -47.131,0.031 -3.129,-16.525 c -1.42,-7.501 1.677,-11.82 12.916,-11.82 l 6.865,0 c 1.893,0 3.171,0.821 3.548,2.825 l 4.813,25.52 -8.653,0 -4.051,-20.847 -1.655,0 c -4.322,0 -5.682,1.443 -5.134,4.329 l 3.131,16.518 -8.651,0 z m -28.702,3.193 2.969,0 c 6.228,0 10.383,-2.964 10.383,-8.898 0,-8.602 -7.124,-13.643 -14.833,-13.643 l -2.674,0 4.155,22.541 z m -5.717,8.903 c -1.513,-0.085 -2.74,-0.683 -3.149,-2.861 l -6.449,-34.363 c -0.367,-1.957 0.642,-3.122 2.346,-3.122 l 10.003,0 c 13.945,0 26.7,9.495 26.7,24.03 0,10.087 -7.419,16.316 -18.69,16.316 l -10.761,0"
               id="path3267"
               style="fill:#ffffff;fill-opacity:1;fill-rule:evenodd;stroke:none" />
          </g>
        </g>
      </g>
    </g>
  </g>
</svg>
