<?xml version="1.0" encoding="UTF-8" standalone="no"?>
<!-- Created with Inkscape (http://www.inkscape.org/) -->
<svg
   xmlns:svg="http://www.w3.org/2000/svg"
   xmlns="http://www.w3.org/2000/svg"
   version="1.0"
   width="219.685"
   height="73.228622"
   id="svg2454">
  <defs
     id="defs2456" />
  <g
     transform="translate(-230.1575,-367.17644)"
     id="layer1">
    <g
       transform="matrix(1.25,0,0,1.25,230.1575,367.17644)"
       id="g8"
       style="fill:#0058a1;fill-rule:evenodd;stroke:none;stroke-width:1;stroke-linecap:butt;stroke-linejoin:miter;stroke-dasharray:none">
      <path
         d="M 29.2988,0 C 29.2988,0 146.45,0 146.45,0 C 162.561,0 175.748,13.1865 175.748,29.2851 C 175.748,45.3979 162.561,58.5829 146.45,58.5829 C 146.45,58.5829 29.2988,58.5829 29.2988,58.5829 C 13.1865,58.5829 0,45.3979 0,29.2851 C 0,13.1865 13.1865,0 29.2988,0 z"
         id="path10" />
    </g>
    <g
       transform="matrix(1.25,0,0,1.25,368.38131,385.82632)"
       id="g12"
       style="fill:#ffffff;fill-rule:evenodd;stroke:none;stroke-width:1;stroke-linecap:butt;stroke-linejoin:miter;stroke-dasharray:none">
      <path
         d="M 39.434,20.188 C 39.434,20.188 33.639,20.188 33.639,20.188 C 33.639,20.188 33.639,5.8379 33.639,5.8379 C 33.639,5.8379 39.476,5.8379 39.476,5.8379 C 42.443,5.8379 43.774,7.0713 44.551,8.2363 C 45.507,9.7061 45.826,11.5781 45.826,13.0479 C 45.826,16.7363 44.412,20.188 39.434,20.188 z M 6.378,12.0352 C 6.378,12.0352 6.378,5.8379 6.378,5.8379 C 6.378,5.8379 13.755,5.8379 13.755,5.8379 C 15.197,5.8379 18.164,5.8379 18.164,8.9014 C 18.164,12.0352 15.267,12.0352 13.99,12.0352 C 13.99,12.0352 6.378,12.0352 6.378,12.0352 z M 50.083,4.8525 C 46.7,0 41.486,0 38.561,0 C 38.561,0 26.982,0 26.982,0 C 26.982,0 26.982,20.161 26.982,20.161 C 26.982,20.161 20.341,20.161 20.341,20.161 C 20.341,20.161 17.929,23.53 17.929,23.53 C 17.929,23.53 13.187,17.859 13.187,17.859 C 13.187,17.859 14.171,17.859 14.171,17.859 C 18.233,17.859 19.994,17.124 21.797,15.6123 C 23.447,14.2129 24.543,11.4258 24.543,8.791 C 24.543,6.1563 23.517,3.5918 21.478,1.8994 C 20.063,0.749 18.262,0 13.436,0 C 13.436,0 0,0 0,0 C 0,0 0,26.026 0,26.026 C 0,26.026 6.378,26.026 6.378,26.026 C 6.378,26.026 6.378,17.859 6.378,17.859 C 6.378,17.859 6.517,17.859 6.517,17.859 C 6.517,17.859 14.851,27.829 14.851,27.829 C 14.851,27.829 9.554,35.233 9.554,35.233 C 9.554,35.233 16.236,35.233 16.236,35.233 C 16.236,35.233 18.455,32.127 18.455,32.127 C 18.455,32.127 21.063,35.233 21.063,35.233 C 21.063,35.233 27.731,35.233 27.731,35.233 C 27.731,35.233 21.533,27.829 21.533,27.829 C 21.533,27.829 26.982,20.216 26.982,20.216 C 26.982,20.216 26.982,26.026 26.982,26.026 C 26.982,26.026 39.046,26.026 39.046,26.026 C 48.96,26.026 52.482,20.05 52.482,12.9365 C 52.482,10.0947 51.886,7.3213 50.083,4.8525 z"
         id="path14" />
    </g>
    <g
       transform="matrix(1.25,0,0,1.25,312.60621,385.70545)"
       id="g16"
       style="fill:#ffffff;fill-rule:evenodd;stroke:none;stroke-width:1;stroke-linecap:butt;stroke-linejoin:miter;stroke-dasharray:none">
      <path
         d="M 21.0625,0 C 21.0625,0 14.0879,0 14.0879,0 C 14.0879,0 6.7246,11.7022 6.7246,11.7022 C 6.7246,11.7022 6.6562,11.7022 6.6562,11.7022 C 6.6562,11.7022 6.6562,0 6.6562,0 C 6.6562,0 0,0 0,0 C 0,0 0,26.0117 0,26.0117 C 0,26.0117 6.6562,26.0117 6.6562,26.0117 C 6.6562,26.0117 6.6562,14.7666 6.6562,14.7666 C 6.6562,14.7666 6.7246,14.7666 6.7246,14.7666 C 6.7246,14.7666 13.8379,26.0117 13.8379,26.0117 C 13.8379,26.0117 21.6172,26.0117 21.6172,26.0117 C 21.6172,26.0117 12.4238,12.9639 12.4238,12.9639 C 12.4238,12.9639 21.0625,0 21.0625,0 z"
         id="path18" />
    </g>
    <g
       transform="matrix(1.25,0,0,1.25,276.43431,385.16832)"
       id="g20"
       style="fill:#ffffff;fill-rule:evenodd;stroke:none;stroke-width:1;stroke-linecap:butt;stroke-linejoin:miter;stroke-dasharray:none">
      <path
         d="M 13.5605,5.8369 C 17.124,5.8369 19.0928,8.4297 19.8281,10.3575 C 19.8281,10.3575 26.7607,10.3575 26.7607,10.3575 C 26.0537,6.295 21.7139,0 13.5879,0 C 5.1162,0 0,6.8213 0,13.4493 C 0,20.4794 5.5322,26.9684 13.6582,26.9684 C 19.9248,26.9684 25.249,22.8914 26.7607,16.7491 C 26.7607,16.7491 19.8281,16.7491 19.8281,16.7491 C 19.3984,17.6641 17.7207,21.1444 13.5879,21.1444 C 9.2764,21.1444 6.6279,17.3457 6.6279,13.4219 C 6.6279,9.7334 9.1094,5.8369 13.5605,5.8369 z"
         id="path22" />
    </g>
    <g
       transform="matrix(1.25,0,0,1.25,341.01451,385.77382)"
       id="g24"
       style="fill:#ffffff;fill-rule:evenodd;stroke:none;stroke-width:1;stroke-linecap:butt;stroke-linejoin:miter;stroke-dasharray:none">
      <path
         d="M 0,26.013 C 0,26.013 19.4535,26.013 19.4535,26.013 C 19.4535,26.013 19.4535,20.175 19.4535,20.175 C 19.4535,20.175 6.5305,20.175 6.5305,20.175 C 6.5305,20.175 6.5305,15.71 6.5305,15.71 C 6.5305,15.71 18.3025,15.71 18.3025,15.71 C 18.3025,15.71 18.3025,9.8731 18.3025,9.8731 C 18.3025,9.8731 6.5305,9.8731 6.5305,9.8731 C 6.5305,9.8731 6.5305,5.8242 6.5305,5.8242 C 6.5305,5.8242 19.4535,5.8242 19.4535,5.8242 C 19.4535,5.8242 19.4535,0 19.4535,0 C 19.4535,0 0,0 0,0 C 0,0 0,26.013 0,26.013 z"
         id="path26" />
    </g>
    <g
       transform="matrix(1.25,0,0,1.25,250.62748,385.77382)"
       id="g28"
       style="fill:#ffffff;fill-rule:evenodd;stroke:none;stroke-width:1;stroke-linecap:butt;stroke-linejoin:miter;stroke-dasharray:none">
      <path
         d="M 0,26.013 C 0,26.013 19.4394,26.013 19.4394,26.013 C 19.4394,26.013 19.4394,20.175 19.4394,20.175 C 19.4394,20.175 6.5303,20.175 6.5303,20.175 C 6.5303,20.175 6.5303,15.71 6.5303,15.71 C 6.5303,15.71 18.3027,15.71 18.3027,15.71 C 18.3027,15.71 18.3027,9.8731 18.3027,9.8731 C 18.3027,9.8731 6.5303,9.8731 6.5303,9.8731 C 6.5303,9.8731 6.5303,5.8242 6.5303,5.8242 C 6.5303,5.8242 19.4394,5.8242 19.4394,5.8242 C 19.4394,5.8242 19.4394,0 19.4394,0 C 19.4394,0 0,0 0,0 C 0,0 0,26.013 0,26.013 z"
         id="path30" />
    </g>
    <g
       transform="matrix(1.25,0,0,1.25,265.65311,422.41507)"
       id="g32"
       style="fill:#e20010;fill-rule:evenodd;stroke:none;stroke-width:1;stroke-linecap:butt;stroke-linejoin:miter;stroke-dasharray:none">
      <path
         d="M 6.2539,0 C 6.2539,0 75.8316,0 75.8316,0 C 79.2706,0 82.0856,2.815 82.0856,6.267 C 82.0856,9.706 79.2706,12.52 75.8316,12.52 C 75.8316,12.52 6.2539,12.52 6.2539,12.52 C 2.8154,12.52 0,9.706 0,6.267 C 0,2.815 2.8154,0 6.2539,0 z"
         id="path34" />
    </g>
    <g
       transform="matrix(1.25,0,0,1.25,265.20386,421.96382)"
       id="g36"
       style="fill:#ffffff;fill-rule:evenodd;stroke:none;stroke-width:1;stroke-linecap:butt;stroke-linejoin:miter;stroke-dasharray:none">
      <path
         d="M 6.6133,0.486 C 6.6133,0.486 76.497,0.499 76.497,0.499 C 76.497,0.499 77.121,0.555 77.121,0.555 C 77.121,0.555 77.717,0.68 77.717,0.68 C 77.717,0.68 78.299,0.86 78.299,0.86 C 78.299,0.86 78.84,1.096 78.84,1.096 C 78.84,1.096 79.367,1.373 79.367,1.373 C 79.367,1.373 79.853,1.705 79.853,1.705 C 79.853,1.705 80.31,2.08 80.31,2.08 C 80.31,2.08 80.726,2.496 80.726,2.496 C 80.726,2.496 81.1,2.953 81.1,2.953 C 81.1,2.953 81.433,3.452 81.433,3.452 C 81.433,3.452 81.724,3.966 81.724,3.966 C 81.724,3.966 81.945,4.521 81.945,4.521 C 81.945,4.521 82.126,5.089 82.126,5.089 C 82.126,5.089 82.251,5.698 82.251,5.698 C 82.251,5.698 82.32,6.309 82.32,6.309 C 82.32,6.309 82.32,6.933 82.32,6.933 C 82.32,6.933 82.251,7.557 82.251,7.557 C 82.251,7.557 82.126,8.153 82.126,8.153 C 82.126,8.153 81.945,8.722 81.945,8.722 C 81.945,8.722 81.724,9.277 81.724,9.277 C 81.724,9.277 81.433,9.803 81.433,9.803 C 81.433,9.803 81.1,10.288 81.1,10.288 C 81.1,10.288 80.726,10.746 80.726,10.746 C 80.726,10.746 80.31,11.162 80.31,11.162 C 80.31,11.162 79.853,11.536 79.853,11.536 C 79.853,11.536 79.367,11.869 79.367,11.869 C 79.367,11.869 78.84,12.16 78.84,12.16 C 78.84,12.16 78.299,12.382 78.299,12.382 C 78.299,12.382 77.717,12.563 77.717,12.563 C 77.717,12.563 77.121,12.688 77.121,12.688 C 77.121,12.688 76.497,12.757 76.497,12.757 C 76.497,12.757 6.6133,12.757 6.6133,12.757 C 6.6133,12.757 5.9893,12.729 5.9893,12.729 C 5.9893,12.729 5.3799,12.632 5.3799,12.632 C 5.3799,12.632 4.7969,12.48 4.7969,12.48 C 4.7969,12.48 4.2285,12.272 4.2285,12.272 C 4.2285,12.272 3.7012,12.022 3.7012,12.022 C 3.7012,12.022 3.1885,11.717 3.1885,11.717 C 3.1885,11.717 2.7168,11.357 2.7168,11.357 C 2.7168,11.357 2.2735,10.954 2.2735,10.954 C 2.2735,10.954 1.8848,10.525 1.8848,10.525 C 1.8848,10.525 1.5244,10.053 1.5244,10.053 C 1.5244,10.053 1.2197,9.54 1.2197,9.54 C 1.2197,9.54 0.9561,9.013 0.9561,9.013 C 0.9561,9.013 0.7481,8.444 0.7481,8.444 C 0.7481,8.444 0.5957,7.862 0.5957,7.862 C 0.5957,7.862 0.5127,7.252 0.5127,7.252 C 0.5127,7.252 0.4707,6.628 0.4707,6.628 C 0.4707,6.628 0.5127,6.004 0.5127,6.004 C 0.5127,6.004 0.5957,5.394 0.5957,5.394 C 0.5957,5.394 0.7481,4.798 0.7481,4.798 C 0.7481,4.798 0.9561,4.243 0.9561,4.243 C 0.9561,4.243 1.2197,3.702 1.2197,3.702 C 1.2197,3.702 1.5244,3.203 1.5244,3.203 C 1.5244,3.203 1.8848,2.732 1.8848,2.732 C 1.8848,2.732 2.2735,2.288 2.2735,2.288 C 2.2735,2.288 2.7168,1.886 2.7168,1.886 C 2.7168,1.886 3.1885,1.539 3.1885,1.539 C 3.1885,1.539 3.7012,1.235 3.7012,1.235 C 3.7012,1.235 4.2285,0.971 4.2285,0.971 C 4.2285,0.971 4.7969,0.763 4.7969,0.763 C 4.7969,0.763 5.3799,0.611 5.3799,0.611 C 5.3799,0.611 5.9893,0.513 5.9893,0.513 C 5.9893,0.513 6.6133,0.486 6.6133,0.486 z M 6.6133,0 C 6.6133,0 76.191,0 76.191,0 C 76.191,0 76.524,0.014 76.524,0.014 C 76.524,0.014 76.857,0.042 76.857,0.042 C 76.857,0.042 77.189,0.083 77.189,0.083 C 77.189,0.083 77.522,0.139 77.522,0.139 C 77.522,0.139 77.842,0.208 77.842,0.208 C 77.842,0.208 78.147,0.305 78.147,0.305 C 78.147,0.305 78.466,0.403 78.466,0.403 C 78.466,0.403 78.757,0.528 78.757,0.528 C 78.757,0.528 79.048,0.665 79.048,0.665 C 79.048,0.665 79.339,0.804 79.339,0.804 C 79.339,0.804 79.616,0.971 79.616,0.971 C 79.616,0.971 79.88,1.137 79.88,1.137 C 79.88,1.137 80.144,1.318 80.144,1.318 C 80.144,1.318 80.393,1.526 80.393,1.526 C 80.393,1.526 80.629,1.734 80.629,1.734 C 80.629,1.734 80.864,1.942 80.864,1.942 C 80.864,1.942 81.086,2.177 81.086,2.177 C 81.086,2.177 81.294,2.412 81.294,2.412 C 81.294,2.412 81.488,2.662 81.488,2.662 C 81.488,2.662 81.669,2.926 81.669,2.926 C 81.669,2.926 81.849,3.203 81.849,3.203 C 81.849,3.203 82.001,3.481 82.001,3.481 C 82.001,3.481 82.154,3.758 82.154,3.758 C 82.154,3.758 82.278,4.049 82.278,4.049 C 82.278,4.049 82.403,4.354 82.403,4.354 C 82.403,4.354 82.515,4.659 82.515,4.659 C 82.515,4.659 82.598,4.978 82.598,4.978 C 82.598,4.978 82.667,5.297 82.667,5.297 C 82.667,5.297 82.736,5.615 82.736,5.615 C 82.736,5.615 82.777,5.948 82.777,5.948 C 82.777,5.948 82.806,6.281 82.806,6.281 C 82.806,6.281 82.806,6.628 82.806,6.628 C 82.806,6.628 82.806,6.961 82.806,6.961 C 82.806,6.961 82.777,7.294 82.777,7.294 C 82.777,7.294 82.736,7.626 82.736,7.626 C 82.736,7.626 82.667,7.959 82.667,7.959 C 82.667,7.959 82.598,8.278 82.598,8.278 C 82.598,8.278 82.515,8.583 82.515,8.583 C 82.515,8.583 82.403,8.888 82.403,8.888 C 82.403,8.888 82.278,9.194 82.278,9.194 C 82.278,9.194 82.154,9.485 82.154,9.485 C 82.154,9.485 82.001,9.776 82.001,9.776 C 82.001,9.776 81.849,10.053 81.849,10.053 C 81.849,10.053 81.669,10.317 81.669,10.317 C 81.669,10.317 81.488,10.58 81.488,10.58 C 81.488,10.58 81.294,10.829 81.294,10.829 C 81.294,10.829 81.086,11.066 81.086,11.066 C 81.086,11.066 80.864,11.301 80.864,11.301 C 80.864,11.301 80.629,11.523 80.629,11.523 C 80.629,11.523 80.393,11.731 80.393,11.731 C 80.393,11.731 80.144,11.925 80.144,11.925 C 80.144,11.925 79.88,12.105 79.88,12.105 C 79.88,12.105 79.616,12.285 79.616,12.285 C 79.616,12.285 79.339,12.438 79.339,12.438 C 79.339,12.438 79.048,12.59 79.048,12.59 C 79.048,12.59 78.757,12.715 78.757,12.715 C 78.757,12.715 78.466,12.84 78.466,12.84 C 78.466,12.84 78.147,12.95 78.147,12.95 C 78.147,12.95 77.842,13.034 77.842,13.034 C 77.842,13.034 77.522,13.104 77.522,13.104 C 77.522,13.104 77.189,13.173 77.189,13.173 C 77.189,13.173 76.857,13.214 76.857,13.214 C 76.857,13.214 76.524,13.242 76.524,13.242 C 76.524,13.242 76.191,13.242 76.191,13.242 C 76.191,13.242 6.6133,13.242 6.6133,13.242 C 6.6133,13.242 6.2803,13.242 6.2803,13.242 C 6.2803,13.242 5.9336,13.214 5.9336,13.214 C 5.9336,13.214 5.6153,13.173 5.6153,13.173 C 5.6153,13.173 5.2822,13.104 5.2822,13.104 C 5.2822,13.104 4.9629,13.034 4.9629,13.034 C 4.9629,13.034 4.6445,12.95 4.6445,12.95 C 4.6445,12.95 4.3399,12.84 4.3399,12.84 C 4.3399,12.84 4.0479,12.715 4.0479,12.715 C 4.0479,12.715 3.7569,12.59 3.7569,12.59 C 3.7569,12.59 3.4658,12.438 3.4658,12.438 C 3.4658,12.438 3.1885,12.285 3.1885,12.285 C 3.1885,12.285 2.9248,12.105 2.9248,12.105 C 2.9248,12.105 2.6611,11.925 2.6611,11.925 C 2.6611,11.925 2.4121,11.731 2.4121,11.731 C 2.4121,11.731 2.1621,11.523 2.1621,11.523 C 2.1621,11.523 1.9404,11.301 1.9404,11.301 C 1.9404,11.301 1.7188,11.066 1.7188,11.066 C 1.7188,11.066 1.5108,10.829 1.5108,10.829 C 1.5108,10.829 1.3164,10.58 1.3164,10.58 C 1.3164,10.58 1.1231,10.317 1.1231,10.317 C 1.1231,10.317 0.9561,10.053 0.9561,10.053 C 0.9561,10.053 0.8037,9.776 0.8037,9.776 C 0.8037,9.776 0.6514,9.485 0.6514,9.485 C 0.6514,9.485 0.5127,9.194 0.5127,9.194 C 0.5127,9.194 0.4014,8.888 0.4014,8.888 C 0.4014,8.888 0.291,8.583 0.291,8.583 C 0.291,8.583 0.207,8.278 0.207,8.278 C 0.207,8.278 0.124,7.959 0.124,7.959 C 0.124,7.959 0.0684,7.626 0.0684,7.626 C 0.0684,7.626 0.0274,7.294 0.0274,7.294 C 0.0274,7.294 0,6.961 0,6.961 C 0,6.961 0,6.628 0,6.628 C 0,6.628 0,6.281 0,6.281 C 0,6.281 0.0274,5.948 0.0274,5.948 C 0.0274,5.948 0.0684,5.615 0.0684,5.615 C 0.0684,5.615 0.124,5.297 0.124,5.297 C 0.124,5.297 0.207,4.978 0.207,4.978 C 0.207,4.978 0.291,4.659 0.291,4.659 C 0.291,4.659 0.4014,4.354 0.4014,4.354 C 0.4014,4.354 0.5127,4.049 0.5127,4.049 C 0.5127,4.049 0.6514,3.758 0.6514,3.758 C 0.6514,3.758 0.8037,3.481 0.8037,3.481 C 0.8037,3.481 0.9561,3.203 0.9561,3.203 C 0.9561,3.203 1.1231,2.926 1.1231,2.926 C 1.1231,2.926 1.3164,2.662 1.3164,2.662 C 1.3164,2.662 1.5108,2.412 1.5108,2.412 C 1.5108,2.412 1.7188,2.177 1.7188,2.177 C 1.7188,2.177 1.9404,1.942 1.9404,1.942 C 1.9404,1.942 2.1621,1.734 2.1621,1.734 C 2.1621,1.734 2.4121,1.526 2.4121,1.526 C 2.4121,1.526 2.6611,1.318 2.6611,1.318 C 2.6611,1.318 2.9248,1.137 2.9248,1.137 C 2.9248,1.137 3.1885,0.971 3.1885,0.971 C 3.1885,0.971 3.4658,0.804 3.4658,0.804 C 3.4658,0.804 3.7569,0.665 3.7569,0.665 C 3.7569,0.665 4.0479,0.528 4.0479,0.528 C 4.0479,0.528 4.3399,0.403 4.3399,0.403 C 4.3399,0.403 4.6445,0.305 4.6445,0.305 C 4.6445,0.305 4.9629,0.208 4.9629,0.208 C 4.9629,0.208 5.2822,0.139 5.2822,0.139 C 5.2822,0.139 5.6153,0.083 5.6153,0.083 C 5.6153,0.083 5.9336,0.042 5.9336,0.042 C 5.9336,0.042 6.2803,0.014 6.2803,0.014 C 6.2803,0.014 6.6133,0 6.6133,0 z"
         id="path38" />
    </g>
    <g
       transform="matrix(1.25,0,0,1.25,271.99711,424.99757)"
       id="g40"
       style="fill:#ffffff;fill-rule:evenodd;stroke:none;stroke-width:1;stroke-linecap:butt;stroke-linejoin:miter;stroke-dasharray:none">
      <path
         d="M 4.1318,0.041 C 4.1318,0.041 0,0 0,0 C 0,0 0,8.458 0,8.458 C 0,8.458 2.0801,8.458 2.0801,8.458 C 2.0801,8.458 2.0801,5.588 2.0801,5.588 C 2.0801,5.588 4.1601,5.588 4.1601,5.588 C 5.0889,5.435 5.6992,4.894 6.0176,3.951 C 6.2402,3.188 6.3096,2.44 6.0176,1.678 C 5.7822,0.873 5.2695,0.249 4.1318,0.041 z M 3.2168,3.729 C 3.2168,3.729 2.0801,3.729 2.0801,3.729 C 2.0801,3.729 2.0801,1.899 2.0801,1.899 C 2.0801,1.899 3.1758,1.899 3.1758,1.899 C 3.9238,2.052 4.3682,3.3 3.2168,3.729 z"
         id="path42" />
    </g>
    <g
       transform="matrix(1.25,0,0,1.25,281.87621,424.99757)"
       id="g44"
       style="fill:#ffffff;fill-rule:evenodd;stroke:none;stroke-width:1;stroke-linecap:butt;stroke-linejoin:miter;stroke-dasharray:none">
      <path
         d="M 5.2412,0 C 5.2412,0 7.543,0 7.543,0 C 7.543,0 7.543,3.286 7.543,3.286 C 7.543,3.286 7.543,4.964 7.543,4.964 C 7.543,4.964 7.543,8.458 7.543,8.458 C 7.543,8.458 5.2412,8.458 5.2412,8.458 C 5.2412,8.458 5.2412,5.033 5.2412,5.033 C 5.2412,5.033 2.3018,5.033 2.3018,5.033 C 2.3018,5.033 2.3018,8.458 2.3018,8.458 C 2.3018,8.458 0,8.458 0,8.458 C 0,8.458 0,0 0,0 C 0,0 2.3018,0 2.3018,0 C 2.3018,0 2.3018,3.23 2.3018,3.23 C 2.3018,3.23 5.2412,3.23 5.2412,3.23 C 5.2412,3.23 5.2412,0 5.2412,0 z"
         id="path46" />
    </g>
    <g
       transform="matrix(1.25,0,0,1.25,293.14211,424.99757)"
       id="g48"
       style="fill:#ffffff;fill-rule:evenodd;stroke:none;stroke-width:1;stroke-linecap:butt;stroke-linejoin:miter;stroke-dasharray:none">
      <path
         d="M 2.3711,8.458 C 2.3711,8.458 0,8.458 0,8.458 C 0,8.458 3.0928,0 3.0928,0 C 3.0928,0 5.6162,0 5.6162,0 C 5.6162,0 8.791,8.458 8.791,8.458 C 8.791,8.458 6.3926,8.458 6.3926,8.458 C 6.3926,8.458 5.7266,6.891 5.7266,6.891 C 5.7266,6.891 3.0088,6.891 3.0088,6.891 C 3.0088,6.891 2.3711,8.458 2.3711,8.458 z M 4.2852,2.939 C 4.2852,2.939 5.1035,5.255 5.1035,5.255 C 5.1035,5.255 3.5361,5.255 3.5361,5.255 C 3.5361,5.255 4.2852,2.939 4.2852,2.939 z"
         id="path50" />
    </g>
    <g
       transform="matrix(1.25,0,0,1.25,315.57011,424.99757)"
       id="g52"
       style="fill:#ffffff;fill-rule:evenodd;stroke:none;stroke-width:1;stroke-linecap:butt;stroke-linejoin:miter;stroke-dasharray:none">
      <path
         d="M 10.4414,8.458 C 10.4414,8.458 9.1797,0 9.1797,0 C 9.1797,0 6.9883,0 6.9883,0 C 6.9883,0 5.2412,4.215 5.2412,4.215 C 5.2412,4.215 3.6191,0 3.6191,0 C 3.6191,0 1.29,0 1.29,0 C 1.29,0 0,8.458 0,8.458 C 0,8.458 2.2881,8.458 2.2881,8.458 C 2.2881,8.458 2.9814,3.993 2.9814,3.993 C 2.9814,3.993 4.7842,8.458 4.7842,8.458 C 4.7842,8.458 5.7265,8.458 5.7265,8.458 C 5.7265,8.458 7.4326,4.201 7.4326,4.201 C 7.4326,4.201 8.1533,8.458 8.1533,8.458 C 8.1533,8.458 10.4414,8.458 10.4414,8.458 z"
         id="path54" />
    </g>
    <g
       transform="matrix(1.25,0,0,1.25,305.70801,424.99757)"
       id="g56"
       style="fill:#ffffff;fill-rule:evenodd;stroke:none;stroke-width:1;stroke-linecap:butt;stroke-linejoin:miter;stroke-dasharray:none">
      <path
         d="M 3.2168,3.729 C 3.2168,3.729 2.3575,3.729 2.3575,3.729 C 2.3575,3.729 2.3575,1.899 2.3575,1.899 C 2.3575,1.899 3.1758,1.899 3.1758,1.899 C 3.9239,2.052 4.3819,3.3 3.2168,3.729 z M 4.1319,0.041 C 4.1319,0.041 0,0 0,0 C 0,0 0,8.458 0,8.458 C 0,8.458 2.3575,8.458 2.3575,8.458 C 2.3575,8.458 2.3711,5.546 2.3711,5.546 C 2.3711,5.546 4.2159,8.458 4.2159,8.458 C 4.2159,8.458 7.1133,8.458 7.1133,8.458 C 7.1133,8.458 4.5762,4.95 4.5762,4.95 C 5.2832,4.742 5.7686,4.284 6.0459,3.48 C 6.1709,2.703 6.1983,2.412 6.0323,1.678 C 5.7823,0.873 5.2696,0.249 4.1319,0.041 z"
         id="path58" />
    </g>
    <g
       transform="matrix(1.25,0,0,1.25,329.81681,424.99757)"
       id="g60"
       style="fill:#ffffff;fill-rule:evenodd;stroke:none;stroke-width:1;stroke-linecap:butt;stroke-linejoin:miter;stroke-dasharray:none">
      <path
         d="M 2.3711,8.458 C 2.3711,8.458 0,8.458 0,8.458 C 0,8.458 3.0928,0 3.0928,0 C 3.0928,0 5.6163,0 5.6163,0 C 5.6163,0 8.7911,8.458 8.7911,8.458 C 8.7911,8.458 6.3926,8.458 6.3926,8.458 C 6.3926,8.458 5.7266,6.891 5.7266,6.891 C 5.7266,6.891 3.0098,6.891 3.0098,6.891 C 3.0098,6.891 2.3711,8.458 2.3711,8.458 z M 4.2989,2.939 C 4.2989,2.939 5.1026,5.255 5.1026,5.255 C 5.1026,5.255 3.5362,5.255 3.5362,5.255 C 3.5362,5.255 4.2989,2.939 4.2989,2.939 z"
         id="path62" />
    </g>
    <g
       transform="matrix(1.25,0,0,1.25,341.65521,424.70257)"
       id="g64"
       style="fill:#ffffff;fill-rule:evenodd;stroke:none;stroke-width:1;stroke-linecap:butt;stroke-linejoin:miter;stroke-dasharray:none">
      <path
         d="M 6.6139,3.175 C 6.6139,3.175 6.6139,0.541 6.6139,0.541 C 5.5739,0.055 4.5339,0 3.4939,0.236 C 2.2325,0.666 1.3038,1.525 0.6104,2.676 C 0,3.882 0.0694,5.075 0.6104,6.281 C 1.1094,7.252 1.8858,8.001 2.9399,8.5 C 4.1739,8.943 5.3939,8.833 6.6279,8.195 C 6.6279,8.195 6.6279,5.809 6.6279,5.809 C 6.2529,6.17 5.8379,6.448 5.3529,6.6 C 4.9079,6.739 4.4649,6.739 4.0349,6.6 C 0.5411,4.88 3.9659,0.25 6.6139,3.175 z"
         id="path66" />
    </g>
    <g
       transform="matrix(1.25,0,0,1.25,351.24011,425.01507)"
       id="g68"
       style="fill:#ffffff;fill-rule:evenodd;stroke:none;stroke-width:1;stroke-linecap:butt;stroke-linejoin:miter;stroke-dasharray:none">
      <path
         d="M 5.505,8.43 C 5.505,8.43 5.519,4.256 5.519,4.256 C 5.519,4.256 8.541,0 8.541,0 C 8.541,0 5.768,0 5.768,0 C 5.768,0 4.312,2.134 4.312,2.134 C 4.312,2.134 2.857,0.027 2.857,0.027 C 2.857,0.027 0,0.027 0,0.027 C 0,0.027 3.148,4.256 3.148,4.256 C 3.148,4.256 3.148,8.43 3.148,8.43 C 3.148,8.43 5.505,8.43 5.505,8.43 z"
         id="path70" />
    </g>
    <g
       transform="matrix(1.25,0,0,1.25,429.97881,382.68907)"
       id="g72"
       style="fill:#ffffff;fill-rule:evenodd;stroke:none;stroke-width:1;stroke-linecap:butt;stroke-linejoin:miter;stroke-dasharray:none">
      <path
         d="M 2.926,0 C 4.549,0 5.866,1.3174 5.866,2.9258 C 5.866,4.5479 4.549,5.8653 2.926,5.8653 C 1.318,5.8653 0,4.5479 0,2.9258 C 0,1.3174 1.318,0 2.926,0 z M 2.926,0.5967 C 4.216,0.5967 5.256,1.6504 5.256,2.9258 C 5.256,4.2149 4.216,5.2549 2.926,5.2549 C 1.651,5.2549 0.597,4.2149 0.597,2.9258 C 0.597,1.6504 1.651,0.5967 2.926,0.5967 z M 3.411,1.2754 C 3.411,1.2754 1.693,1.2754 1.693,1.2754 C 1.693,1.2754 1.693,4.4786 1.693,4.4786 C 1.693,4.4786 2.525,4.4786 2.525,4.4786 C 2.525,4.4786 2.525,3.2032 2.525,3.2032 C 2.525,3.2032 3.024,3.2032 3.024,3.2032 C 3.232,3.2305 3.453,3.3282 3.467,3.6465 C 3.467,3.6465 3.453,4.4512 3.453,4.4512 C 3.453,4.4512 4.327,4.4512 4.327,4.4512 C 4.368,3.8272 4.368,3.3282 3.842,2.8975 C 4.577,2.8565 4.549,1.2481 3.411,1.2754 z M 3.19,1.9131 C 3.19,1.9131 2.594,1.9131 2.594,1.9131 C 2.594,1.9131 2.594,2.6065 2.594,2.6065 C 2.594,2.6065 3.232,2.6065 3.232,2.6065 C 3.578,2.5518 3.55,1.9414 3.19,1.9131 z"
         id="path74" />
    </g>
  </g>
</svg>
