<svg width="500" height="95" viewBox="0 0 500 95" fill="none" xmlns="http://www.w3.org/2000/svg">
<g clip-path="url(#clip0_1_818)">
<mask id="mask0_1_818" style="mask-type:luminance" maskUnits="userSpaceOnUse" x="0" y="0" width="500" height="95">
<path d="M500 0H0V94.32H500V0Z" fill="white"/>
</mask>
<g mask="url(#mask0_1_818)">
<path d="M195.82 18.24H209.642V22.962C211.126 21.67 215.918 17.082 224.768 17.082C235.182 17.082 243.456 24.77 243.456 36.842V68.178H228.856V40.726C228.856 33.996 225.574 30.004 219.634 30.004C213.88 30.004 210.418 33.768 210.418 40.726V68.178H195.82V18.24ZM334.884 43.208C334.884 28.802 346.42 17.082 361.528 17.082C376.632 17.082 388.164 28.802 388.164 43.208C388.164 57.61 376.63 69.316 361.528 69.316C346.42 69.316 334.884 57.61 334.884 43.208ZM349.296 43.208C349.296 50.106 354.45 55.782 361.614 55.782C368.79 55.782 373.952 50.106 373.952 43.208C373.952 36.306 368.79 30.634 361.614 30.634C354.452 30.634 349.296 36.306 349.296 43.208ZM134.376 43.218C134.376 28.806 145.918 17.086 161.012 17.086C176.124 17.086 187.662 28.806 187.662 43.218C187.662 57.616 176.124 69.318 161.012 69.318C145.916 69.32 134.376 57.616 134.376 43.218ZM148.788 43.214C148.788 50.116 153.942 55.792 161.114 55.792C168.29 55.792 173.444 50.116 173.444 43.214C173.444 36.306 168.29 30.64 161.114 30.64C153.942 30.64 148.788 36.306 148.788 43.214ZM458.986 12.708H473.784V0H458.986V12.708ZM458.986 68.178H473.784V18.24H458.986V68.178ZM485.196 68.178H500V0H485.196V68.178ZM410.756 68.178H396.722V0H410.916V22.204C411.62 21.686 416.218 17.082 426.264 17.082C439.404 17.082 450.37 28.366 450.37 43.218C450.37 58.042 438.69 69.326 426.096 69.326C416.516 69.326 411.948 65.118 410.916 64.334L410.756 68.178ZM435.372 43.18C435.372 36.158 430.048 30.71 422.918 30.71C415.83 30.71 410.388 36.108 410.388 43.22C410.388 50.242 415.756 55.69 422.902 55.69C429.978 55.688 435.372 50.222 435.372 43.18ZM48.3 68.178H65.418L80.806 48.402L90.4 58.12L68.446 85.608H85.624L99.682 67.39L126.142 94.32H146.88L108.85 56.078L138.8 18.24H121.612L99.478 46.66L89.9 37.032L114.522 6.024H97.38L80.564 27.66L71.432 18.24H50.98L71.58 39.038L48.3 68.178ZM0 0V68.178H44.902V55.456H15.276V39.166H43.572V26.834H15.276V12.702H44.902V0H0ZM255.15 0V68.178H269.516V16.7H270.168L282.528 68.18H298.666L311.316 16.7H311.97V68.18H326.334V0H302.876L291.196 49.758H290.676L279.286 0H255.15Z" fill="#ED1B2D"/>
</g>
</g>
<defs>
<clipPath id="clip0_1_818">
<rect width="500" height="95" fill="white"/>
</clipPath>
</defs>
</svg>
