<?xml version="1.0" encoding="utf-8"?>
<!-- Generator: Adobe Illustrator 15.0.2, SVG Export Plug-In  -->
<!DOCTYPE svg PUBLIC "-//W3C//DTD SVG 1.1//EN" "http://www.w3.org/Graphics/SVG/1.1/DTD/svg11.dtd" [
	<!ENTITY ns_flows "http://ns.adobe.com/Flows/1.0/">
]>
<svg version="1.1"
	 xmlns="http://www.w3.org/2000/svg" xmlns:xlink="http://www.w3.org/1999/xlink" xmlns:a="http://ns.adobe.com/AdobeSVGViewerExtensions/3.0/"
	 x="0px" y="0px" width="85px" height="83px" viewBox="-1.0356445 -1.1796875 85 83"
	 enable-background="new -1.0356445 -1.1796875 85 83" xml:space="preserve">
<defs>
</defs>
<path fill="#CDD7BF" d="M58.4985352,31.3452148c-0.5634766-2.2148438-0.6503906-3.6347656-0.7529297-5.5576172
	c-0.0878906-1.6269531-0.0537109-3.1728516,0.0820313-4.5585938c0.5634766,1.9677734,0.8798828,4.1469727,0.8798828,6.4443359
	C58.7075195,28.8276367,58.6479492,30.2612305,58.4985352,31.3452148 M67.0512695,26.4516602
	c-1.1640625-2.612793-2.3886719-5.4277344-3.4570313-8.3076172c-1.2109375-3.2724609-2.3349609-6.2124023-2.796875-7.3144531
	c-0.1240234-0.2910156-0.4970703-1.171875-1.3632813-1.4106445C58.6518555,9.2026367,58.081543,9.625,57.8364258,9.8046875
	c0.0048828-0.0029297-0.0898438,0.065918-0.0898438,0.065918c-0.4423828,0.2680664-1.1113281,1.1723633-1.6611328,1.9892578
	c-0.0742188-0.0112305-0.1640625-0.0239258-0.1640625-0.0239258c-0.6816406-0.1049805-1.1708984-0.1801758-1.9326172,0.1977539
	c-1.6826172,0.8378906-2.8525391,2.8359375-3.6845703,6.2890625c-0.3105469,1.3007813-2.9072266,12.9648438,2.0166016,22.1210938
	c0.6269531,1.1679688,2.1357422,2.4599609,3.9648438,2.5351563c1.2568359,0.0517578,3.1201172-0.4501953,4.8564453-3.1298828
	c0.2978516-0.4570313,0.5136719-0.9052734,0.7636719-1.3583984c-0.7490234,2.6728516-2.4384766,5.0908203-5.4492188,5.5722656
	c-0.5263672,0.0859375-0.9609375,0.4873047-1.0830078,0.9970703c0,0.0048828-0.046875,0.3598633-0.046875,0.3598633
	c0,0.6992188,0.4755859,1.0546875,1.8886719,2.1132813c-0.0078125-0.0058594,0.9121094,0.703125,0.9121094,0.703125
	c1.1318359,1.0429688,1.8359375,1.6914063,2.7705078,1.265625c3.8955078-1.7597656,8.0859375-7.0102539,8.0859375-14.3774414
	C68.9838867,32.2456055,68.3325195,29.3276367,67.0512695,26.4516602z"/>
<path fill="#CDD7BF" d="M73.2797852,15.2485352c-0.2802734-1.496582-0.3740234-2.9335938-0.3085938-4.2075195
	c0.4326172,1.1625977,0.7919922,2.4956055,1.0371094,3.9277344c0.2353516,1.3842773,0.3378906,2.7070313,0.3212891,3.8950195
	C73.8891602,17.7949219,73.5249023,16.5698242,73.2797852,15.2485352 M80.5249023,14.2919922L80.5249023,14.2919922
	c-0.0664063-1.0830078-1.9775391-11.1523438-6.6894531-13.0239258c-1.8701172-0.7431641-3.796875-0.2041016-5.7275391,1.6035156
	c-2.4091797,2.2543945-3.9716797,6.5410156-3.7958984,10.425293c-0.0009766-0.0209961,0.0107422,1.105957,0.0107422,1.105957
	c-0.0058594,1.6860352-0.0136719,4.2431641,0.8945313,7.1391602c1.6201172,5.1660156,3.8408203,8.112793,6.5986328,8.762207
	c2.2197266,0.5224609,4.2792969-0.6103516,5.4667969-1.8457031C80.9711914,24.6259766,80.9174805,20.5776367,80.5249023,14.2919922z
	"/>
<path fill="#CDD7BF" d="M43.2924805,45.9238281c-0.3398438-0.4277344-0.9384766-0.6049805-1.4570313-0.4296875
	c-0.6289063,0.2089844-1.2763672,0.1230469-1.9716797-0.2631836c-2.1142578-1.1806641-4.0537109-4.7666016-5.1894531-9.5966797
	c1.6894531,2.1035156,4.3759766,4.3984375,8.9140625,6.3652344c0.0302734,0.2988281,0.0722656,0.703125,0.0722656,0.703125
	c0,0.0097656,0.0527344,0.5458984,0.0527344,0.5458984c0.0048828,0.0478516,0.0908203,1.3486328,0.0908203,1.3486328
	c0,0.4814453-0.0449219,1.0825195-0.2578125,1.793457C43.4985352,46.2324219,43.4174805,46.078125,43.2924805,45.9238281
	 M22.6196289,37.7202148l-0.0742188,0.2519531c-0.5117188,1.7460938-0.8496094,3.5175781-1.0732422,5.28125
	c-0.0361328-0.0117188-0.0615234-0.0410156-0.0976563-0.0498047c-0.7128906-0.1904297-1.4833984,0.1064453-2.0585938,0.7919922
	c-0.0058594,0.0058594-0.9472656,1.1855469-1.6474609,2.0610352c0.0234375-1.5727539,0.1591797-4.0786133,0.6201172-7.887207
	c1.0976563-0.8574219,3.7128906-2.9179688,6.2441406-5.0410156C23.6967773,34.3608398,23.112793,36.0131836,22.6196289,37.7202148z
	 M49.7407227,33.3862305l-0.0107422-0.0488281c-0.6386719-3.3427734-1.6064453-8.3945313-1.1142578-13.4306641
	c0.3007813-3.0878906,1.5878906-6.8388672,3.2050781-9.3359375C52.2915039,9.8417969,52.2006836,8.9086914,51.5952148,8.25
	c-0.7197266-0.7841797-2.3212891-1.2963867-4.4560547-0.1601563c-1.2958984,0.6938477-1.9462891,1.6518555-2.5761719,2.9731445
	c-1.4189453,2.9790039-3.109375,7.7407227-3.109375,13.5019531l0.0283203,1.2919922
	c0.0585938,1.3183594,0.5380859,4.4169922,0.9365234,6.8125c-1.3525391-1.09375-2.3740234-2.1992188-2.8046875-3.0820313
	c-0.7470703-1.5292969-1.0371094-1.9707031-1.2099609-2.234375c-0.0019531-0.0009766-0.0996094-0.1640625-0.0996094-0.1640625
	C37.8305664,26.2036133,37.0063477,25.75,35.878418,25.8847656c-1.0986328,0.1308594-2.6015625,1.0629883-3.1347656,1.5463867
	c-1.3671875,1.2441406-1.1806641,2.6787109-0.7958984,3.4628906c-0.3388672-0.046875-0.7353516-0.0292969-1.1523438,0.1708984
	c-0.2216797,0.1064453-0.3681641,0.2802734-0.5400391,0.4287109c-1.1992188-0.4824219-2.3720703-0.5742188-3.4873047-0.2148438
	c-0.0634766,0.0214844-0.1181641,0.0605469-0.1796875,0.0849609c0.1269531-0.1123047,0.2626953-0.2294922,0.3867188-0.3378906
	c6.3193359-5.6259766,7.0019531-10.5849609,7.0019531-12.4570313l-0.0224609-0.5068359
	c0.0039063,0.0717773,0.0068359-0.0170898,0.0078125-0.0170898c0-1.3481445-1.2753906-2.4472656-2.1953125-2.7211914
	c0-0.0009766,0.0126953,0.0180664,0.0136719,0.0200195c-0.1044922-0.0439453-0.2158203-0.0839844-0.3320313-0.1210938
	c-0.4160156-0.1347656-0.9960938-0.324707-1.6074219-0.0107422c-0.625,0.3198242-0.8212891,0.9360352-0.9365234,1.3046875
	c-1.2138672,3.7861328-6.7255859,8.7231445-11.5878906,13.0786133c-0.0117188,0.0107422-0.1748047,0.15625-0.1748047,0.15625
	l-4.0498047,3.703125C5.3774414,40.8178711,2.4379883,46.0546875,0.5795898,50.2070313
	C-0.6645508,53.0605469,0.3012695,56.4453125,1.5327148,57.25c0.6484375,0.4257813,1.4638672,0.3359375,1.9814453-0.2167969
	c0.0048828-0.0058594,0.265625-0.4277344,0.265625-0.4277344c-0.0029297,0.0058594,0.1601563-0.4238281,0.1601563-0.4238281
	c0.0029297-0.0058594,0.3740234-0.8984375,0.3740234-0.8984375c0.0185547-0.0351563,0.2773438-0.5683594,0.2773438-0.5683594
	c0.5810547-1.2558594,2.2890625-4.8945313,6.8583984-10.0209961c-0.0849609,1.8198242-0.1416016,3.4936523-0.1416016,4.9467773
	c0,2.3925781,0.1210938,4.3144531,0.3574219,5.7226563c-0.0029297,0.0429688-0.0078125,0.1132813-0.0087891,0.1347656
	c-1.5087891,2.8320313-2.640625,6.2148438-3.3251953,8.5722656l-0.0029297,0.0117188L8.3579102,64l-0.171875,0.703125
	l0.2158203,0.875l-0.0263672-0.0839844l0.1142578,0.4609375c0.2050781,0.9179688,0.5507813,2.4628906,1.6982422,3.3125
	c0.7792969,0.578125,1.5117188,0.421875,1.7890625,0.328125c1.0097656-0.3398438,1.4101563-1.4355469,1.5087891-1.765625
	c0,0,0,0.0019531,0,0s0.0439453-0.1992188,0.0439453-0.1992188c0.0712891-0.5429688,0.171875-1.0117188,0.2773438-1.4414063
	c1.1083984,3.5742188,2.7080078,8.453125,4.6484375,12.2773438c0.4248047,0.8378906,1.0097656,1.1210938,1.4257813,1.2109375
	c0.3173828,0.0742188,0.9628906,0.1171875,1.6591797-0.4238281c1.4775391-1.1582031,2.4697266-3.8554688,2.4697266-5.6484375
	l-0.0097656-0.2988281c0.0009766,0.0683594,0.0136719-0.2460938,0.0136719-0.2460938
	c-0.0009766,0.0039063-0.0009766,0.0078125-0.0009766,0.0058594c0-0.0078125,0.0214844-0.28125,0.0214844-0.28125
	c0-0.2988281-0.0761719-0.5898438-0.2412109-0.9140625c-3.0488281-5.9433594-4.2714844-12.0839844-4.9267578-15.3828125
	c-0.0019531-0.0039063-0.1757813-0.8339844-0.2539063-1.2089844c0.2822266-0.578125,1.0771484-2.046875,2.7988281-4.4023438
	c0.5966797,5.0664063,2.2734375,8.7109375,3.0371094,10.3496094c0.6113281,1.3125,1.9003906,2.78125,3.6855469,2.9628906
	c1.6591797,0.1699219,3.2636719-0.7695313,4.7714844-2.796875c1.5634766-2.0996094,2.125-7.7167969,2.1669922-10.2949219
	c1.1953125,0.6875,2.8476563,1.2128906,4.9462891,0.8457031c0.3886719-0.0683594,0.6796875-0.2011719,1.2109375-0.8984375
	l0.0214844,0.1171875c0.2929688,0.78125,0.8544922,0.8515625,2.0869141,1.0058594
	c1.0830078,0.1347656,1.3339844,0.1933594,1.390625,0.2109375c0,0,0.0273438-0.0449219,0.0292969-0.0507813
	c0.4873047,0.1953125,1.0712891,0.1816406,1.4482422-0.1914063c3.6328125-3.625,4.921875-5.9160156,4.0429688-15.6870117
	C50.1791992,35.6811523,49.9868164,34.6694336,49.7407227,33.3862305z"/>
<path fill="#E2202E" d="M29.8833008,56.4453125c-0.28125,0.0644531-0.5957031-0.171875-0.8417969-0.6308594
	c-2.9716797-5.5605469-1.5429688-15.7641602-1.234375-17.0219727c0.4677734-1.9199219,1.2705078-2.5683594,1.5849609-2.5820313
	c0.0419922-0.0019531,0.1289063-0.0048828,0.1894531,0.1757813c1.5214844,4.5351563,1.5302734,13.8852539,1.40625,17.1040039
	C30.9125977,55.3730469,30.3793945,56.3320313,29.8833008,56.4453125 M42.4946289,46.5585938l-0.1259766-0.1601563
	l-0.2080078,0.0625c-0.9082031,0.3027344-1.8486328,0.1894531-2.7939453-0.3398438
	c-2.4003906-1.3383789-4.4746094-5.0854492-5.6914063-10.277832c0-0.0019531-0.0449219-0.2089844-0.0449219-0.2089844
	c-0.2792969-1.3164063-0.6533203-2.8925781-1.0722656-3.4257813l-0.0458984-0.0576172l-0.1601563-0.0703125
	c-0.2714844-0.1201172-0.6826172-0.3017578-1.1181641-0.09375c-0.3212891,0.15625-0.5224609,0.4111328-0.6806641,0.7353516
	c-0.0224609-0.0166016-0.0732422-0.0566406-0.0732422-0.0566406c-1.1767578-0.6367188-2.2890625-0.7724609-3.3994141-0.4140625
	c-1.7607422,0.5683594-2.7128906,3.0996094-3.4804688,5.7519531l-0.0732422,0.2539063
	c-0.8271484,2.8173828-3.3447266,11.3911133,1.8466797,22.5395508c0.4951172,1.0585938,1.5068359,2.2382813,2.8662109,2.3769531
	c1.2734375,0.1308594,2.5683594-0.6738281,3.8457031-2.390625c1.453125-1.9492188,1.9707031-7.7597656,1.9707031-10.0742188
	c0-0.2695313-0.0068359-0.4921875-0.0195313-0.65625c-0.0273438-0.3261719-0.0361328-0.578125-0.0361328-0.7734375
	c0-0.140625,0.0107422-0.1914063,0.0175781-0.28125c0.7626953,0.796875,2.7753906,2.4746094,5.8251953,1.9394531
	c0.1464844-0.0253906,0.3886719-0.0703125,1.7099609-2.2382813C42.7026367,46.8203125,42.6157227,46.7109375,42.4946289,46.5585938z
	"/>
<path fill="#E2202E" d="M59.4282227,32.3237305c-0.2890625,2.1953125-0.9628906,3.2792969-1.5039063,3.3779297
	c-0.3935547,0.0722656-0.8671875-0.3623047-1.3330078-1.2226563c-2.5410156-4.6972656-1.921875-12.9990234-1.7431641-14.0151367
	c0.3945313-2.2490234,1.3632813-3.4501953,1.9238281-3.5839844c0.1181641-0.0288086,0.2734375-0.0341797,0.4355469,0.1831055
	C58.8725586,19.2758789,60.2055664,26.4238281,59.4282227,32.3237305 M62.6391602,18.4975586
	c-1.2451172-3.3544922-2.3369141-6.2109375-2.7841797-7.2729492c-0.2070313-0.4936523-0.4208984-0.7475586-0.6914063-0.8217773
	c-0.3017578-0.0839844-0.5439453,0.09375-0.7207031,0.2241211l-0.1279297,0.0888672
	c-0.4013672,0.2460938-1.3642578,1.6469727-1.7597656,2.2949219c-0.1552734-0.0458984-0.3173828-0.0947266-0.3173828-0.0947266
	l-0.4638672-0.0693359c-0.6074219-0.0957031-0.8583984-0.1337891-1.3330078,0.1030273
	c-1.3710938,0.6811523-2.4003906,2.5180664-3.1435547,5.6123047c-0.3027344,1.2607422-2.8222656,12.5742188,1.9208984,21.3964844
	c0.4130859,0.7705078,1.5820313,1.9365234,3.1074219,1.9980469c0.9912109,0.0419922,2.484375-0.3867188,3.9609375-2.6640625
	c1.3398438-2.0634766,2.1816406-4.0185547,2.5039063-5.8125c0,0,0.109375-0.6464844,0.2148438-1.2695313
	c0.1953125,0.7128906,0.3964844,1.7412109,0.3964844,2.9814453c0,0.2666016-0.0097656,0.5439453-0.03125,0.8271484
	c-0.2851563,3.9003906-2.2089844,8.3261719-6.7539063,9.0527344l-0.1894531,0.0302734l-0.0615234,0.1982422
	c-0.0078125,0.0336914-0.0126953,0.0610352-0.0126953,0.0922852c0,0.203125,0.2392578,0.4003906,1.4794922,1.328125
	l0.9492188,0.7324219c1.2509766,1.1503906,1.4677734,1.2246094,1.6943359,1.1191406
	c5.3476563-2.4121094,10.2822266-11.2973633,5.6416016-21.7075195C64.956543,24.2587891,63.7290039,21.440918,62.6391602,18.4975586
	z"/>
<path fill="#E2202E" d="M17.8637695,56.6855469c0,0-0.2832031-1.3613281-0.3193359-1.53125
	c0.1513672-0.3496094,1.0087891-2.2050781,3.5957031-5.6308594c0.3134766-0.4121094,0.5224609-1.1210938,0.53125-1.1503906
	l0.0117188-0.0390625v-0.0429688c-0.0009766-0.3105469-0.0126953-3.0600586-0.1015625-3.5444336
	c-0.0507813-0.2861328-0.2207031-0.4892578-0.4648438-0.5546875c-0.3222656-0.0859375-0.703125,0.0849609-1.0185547,0.4589844
	l-2.3486328,2.9389648c0,0-0.5996094,0.7519531-1.0117188,1.2714844c-0.0507813-0.4414063-0.1015625-1.1503906-0.1015625-2.2324219
	c0-1.8198242,0.1484375-4.6811523,0.6875-9.0024414c0.515625-0.3994141,5.5302734-4.3027344,8.9736328-7.3652344
	c6.1171875-5.4433594,6.6611328-10.1635742,6.6611328-11.668457c0-0.2861328-0.0205078-0.4550781-0.0253906-0.4916992
	c0.0058594-0.0400391,0.0078125-0.0791016,0.0078125-0.1181641c0-0.800293-1.0019531-1.5439453-1.4628906-1.6821289
	c-0.0019531,0-0.3369141-0.1049805-0.3369141-0.1049805c-0.3623047-0.1171875-0.6025391-0.1948242-0.8330078-0.0761719
	c-0.2265625,0.1171875-0.3261719,0.3769531-0.4306641,0.7060547c-1.2998047,4.0561523-6.9267578,9.0952148-11.8916016,13.5410156
	l-4.1884766,3.8261719C6.2084961,41.4360352,3.3286133,46.5644531,1.5112305,50.625
	c-1.0380859,2.3808594-0.2226563,5.2441406,0.5810547,5.7714844c0.2373047,0.15625,0.4951172,0.1308594,0.6748047-0.0625
	l0.0390625-0.0410156l0.1777344-0.46875l0.4433594-1.046875L3.6674805,54.28125
	c0.6914063-1.5019531,2.7939453-6.0019531,8.9472656-12.3383789c-0.1025391,1.6484375-0.2841797,4.6958008-0.2841797,7.7036133
	c0,2.0976563,0.0898438,4.1621094,0.359375,5.6855469c-0.0039063,0.0566406-0.0224609,0.3320313-0.0302734,0.4394531
	C12.6411133,55.8066406,12.621582,55.84375,12.621582,55.84375c-1.5009766,2.7851563-2.6269531,6.1660156-3.3085938,8.5117188
	l-0.0380859,0.0917969c-0.0458984,0.0917969-0.0664063,0.171875-0.0664063,0.2578125c0,0.125,0.046875,0.265625,0.1367188,0.4804688
	l0.1367188,0.5351563c0.1875,0.8359375,0.46875,2.0996094,1.3134766,2.7246094
	c0.3583984,0.265625,0.6621094,0.2460938,0.8544922,0.1816406c0.578125-0.1953125,0.8300781-0.9980469,0.8574219-1.0898438
	c0.2861328-2.0898438,0.8515625-3.421875,1.375-4.5820313c0.1367188,0.4472656,0.2783203,0.90625,0.2783203,0.90625
	c1.1796875,3.8710938,2.9628906,9.7207031,5.2060547,14.1425781c0.1933594,0.3847656,0.4404297,0.6132813,0.7314453,0.6777344
	c0.2646484,0.0585938,0.5380859-0.0214844,0.8144531-0.2363281c1.2197266-0.9550781,2.078125-3.296875,2.078125-4.8300781
	c0-0.0800781-0.0019531-0.1582031-0.0078125-0.2324219l0.0146484-0.40625c0.0087891-0.0683594,0.015625-0.1269531,0.015625-0.1875
	c0-0.1289063-0.0302734-0.2597656-0.1298828-0.453125C19.7729492,66.2714844,18.5317383,60.0351563,17.8637695,56.6855469"/>
<path fill="#E2202E" d="M75.3012695,19.2666016c0,0.0102539,0,0.0200195,0,0.0302734
	c0,2.1000977-0.3876953,3.5878906-0.9921875,3.7949219c-1.0400391,0.355957-2.4853516-2.5131836-3.1533203-4.4047852
	c-1.2382813-3.5141602-1.2685547-6.3359375-1.2890625-8.3984375l-0.0029297-0.2475586
	c-0.0185547-1.2890625,0.3867188-3.3413086,0.8662109-3.8129883c0.2539063-0.25,0.4394531-0.2451172,0.5566406-0.2192383
	c0.9296875,0.203125,1.9199219,2.8022461,2.3417969,3.9130859l0.1025391,0.2548828
	C74.1567383,11.2270508,75.2875977,14.0117188,75.3012695,19.2666016 M79.5073242,14.355957L79.5073242,14.355957
	c-0.0537109-0.8461914-1.9296875-10.5048828-6.0498047-12.1391602c-1.4707031-0.5839844-3.0361328-0.112793-4.6533203,1.3989258
	C66.9985352,5.3046875,65.1411133,9.0410156,65.331543,13.25l0.0126953,1.1499023
	c-0.0048828,1.6298828-0.0126953,4.09375,0.8457031,6.8349609c1.5048828,4.7978516,3.4775391,7.5146484,5.8603516,8.0761719
	c1.8007813,0.4238281,3.5029297-0.5283203,4.4951172-1.5595703C79.9448242,24.21875,79.8911133,20.5449219,79.5073242,14.355957z"/>
<path fill="#E2202E" d="M48.730957,33.5424805c-0.6523438-3.4023438-1.6376953-8.5458984-1.1318359-13.7348633
	c0.3212891-3.2866211,1.6425781-7.1308594,3.3642578-9.7929688c0.2216797-0.3398438,0.1767578-0.7519531-0.1171875-1.0727539
	c-0.5117188-0.5581055-1.7070313-0.7602539-3.2265625,0.0498047c-1.0615234,0.565918-1.5693359,1.3203125-2.1357422,2.5112305
	c-1.4033203,2.9438477-3.0087891,7.5297852-3.0087891,13.0810547c0,0.4038086,0.0078125,0.8149414,0.0263672,1.2290039
	c0.0791016,1.8046875,1.0146484,7.2783203,1.3417969,9.1474609c-1.6875-1.0742188-4.2197266-3.0253906-5.1464844-4.9267578
	c-0.7255859-1.4853516-0.9921875-1.8857422-1.1503906-2.1259766l-0.1367188-0.2304688
	c-0.1523438-0.3144531-0.4326172-0.8955078-1.4111328-0.7773438c-0.8017578,0.09375-2.1367188,0.8984375-2.5673828,1.2861328
	c-0.5634766,0.5126953-0.7441406,1.0537109-0.7441406,1.5078125c0,0.3935547,0.1347656,0.7236328,0.2724609,0.9199219
	c1.03125,2.4111328,3.0048828,6.9980469,11.1064453,10.4853516c0.0009766,0,0.2646484,0.1210938,0.2646484,0.1210938
	s0.1015625,0.0449219,0.1992188,0.0859375c0.0253906,0.1318359,0.0761719,0.4667969,0.1455078,1.3154297l0.0517578,0.5234375
	c0.0478516,0.4482422,0.1005859,0.9384766,0.1005859,1.4775391c0,1.5317383-0.4208984,3.4516602-2.5664063,5.8754883
	l-0.1162109,0.1328125l0.0605469,0.1699219c0.0771484,0.2050781,0.1669922,0.2167969,1.2617188,0.3554688
	c0.5146484,0.0644531,1.4716797,0.1875,1.6347656,0.2734375l0.1894531,0.0996094l0.1943359-0.1171875
	c3.4550781-3.4472656,4.5898438-5.4902344,3.7460938-14.871582C49.1665039,35.8168945,48.9750977,34.8129883,48.730957,33.5424805"
	/>
<path fill="#692A7C" d="M30.0141602,50.5683594l-0.0488281,2.8828125c-0.0263672,0.6757813-0.1162109,1.1113281-0.2109375,1.4335938
	c-0.9853516-2.0976563-1.5234375-5.1386719-1.5234375-8.9140625c0-3.5102539,0.4423828-6.4243164,0.5664063-6.9360352
	c0.0712891-0.2900391,0.1494141-0.5273438,0.2255859-0.7382813C29.9057617,42.2573242,30.0141602,48.0605469,30.0141602,50.5683594"
	/>
<path fill="#692A7C" d="M57.706543,24.0869141c0-1.1010742,0.0458984-2.0561523,0.0947266-2.7001953
	c-0.3115234-1.315918-0.6845703-2.4038086-1.0634766-3.1328125c-0.2841797,0.409668-0.6669922,1.1450195-0.8847656,2.3857422
	c-0.0595703,0.3393555-0.1708984,1.690918-0.1708984,3.4204102c0,2.4609375,0.2353516,7.0253906,1.8085938,9.9335938
	c0.1171875,0.21875,0.2128906,0.3603516,0.2958984,0.4707031c0.1992188-0.3603516,0.4707031-1.0585938,0.6308594-2.2763672
	c0.0361328-0.2705078,0.0527344-0.5615234,0.0810547-0.8427734C57.8325195,28.7612305,57.706543,25.8759766,57.706543,24.0869141"/>
<path fill="#692A7C" d="M37.456543,38.3979492c-1.1533203-0.9296875-2.0605469-1.8642578-2.7822266-2.7636719
	c1.1357422,4.8300781,3.0751953,8.4160156,5.1894531,9.5966797c0.6953125,0.3862305,1.3427734,0.472168,1.9716797,0.2631836
	c0.0439453-0.0136719,0.0908203-0.0117188,0.1357422-0.0214844C40.2299805,44.4584961,38.6157227,41.9008789,37.456543,38.3979492"
	/>
<path fill="#692A7C" d="M19.7983398,43.5444336c0.09375-1.4453125,0.2568359-3.2578125,0.53125-5.5
	c0.5722656-0.4472656,1.6542969-1.2978516,2.9394531-2.3300781c0.3554688-0.9589844,0.7636719-1.8496094,1.2636719-2.5859375
	c-2.53125,2.1230469-5.1464844,4.1835938-6.2441406,5.0410156c-0.4609375,3.8085938-0.5966797,6.3144531-0.6201172,7.887207
	c0.7001953-0.8754883,1.6416016-2.0551758,1.6474609-2.0610352C19.4643555,43.8188477,19.6274414,43.6674805,19.7983398,43.5444336"
	/>
<path fill="#692A7C" d="M20.8969727,56.5742188c-0.0009766,0-0.2216797-1.0585938-0.2724609-1.3027344
	c0.1474609-0.3105469,0.5048828-1,1.1591797-2.0371094c-0.1464844-0.7480469-0.2744141-1.53125-0.3720703-2.3574219
	c-1.7216797,2.3554688-2.5166016,3.8242188-2.7988281,4.4023438c0.078125,0.375,0.2519531,1.2050781,0.2539063,1.2089844
	c0.6552734,3.2988281,1.8779297,9.4394531,4.9267578,15.3828125c0.1650391,0.3242188,0.2412109,0.6152344,0.2412109,0.9140625
	c0,0-0.0214844,0.2734375-0.0214844,0.28125c0,0.0019531,0-0.0019531,0.0009766-0.0058594
	c0,0-0.0126953,0.3144531-0.0136719,0.2460938l0.0097656,0.2988281c0,1.7421875-0.9404297,4.3261719-2.3496094,5.5351563
	c0.1796875,0.1347656,0.3759766,0.2382813,0.59375,0.2871094c0.3349609,0.0742188,0.8515625,0.0664063,1.421875-0.375
	c1.4121094-1.1054688,2.3603516-3.6953125,2.3603516-5.421875l-0.0078125-0.2675781
	c0,0.0273438,0.0107422-0.2890625,0.0107422-0.2890625l0,0c0-0.0019531,0.0185547-0.2558594,0.0185547-0.2558594
	c0-0.2617188-0.0634766-0.5058594-0.2080078-0.7871094C22.7836914,66.0527344,21.5551758,59.8886719,20.8969727,56.5742188"/>
<path fill="#692A7C" d="M32.9057617,61.3925781c-0.90625,1.21875-1.8486328,2.0351563-2.8154297,2.4628906
	c0.1279297,0.0292969,0.2529297,0.0644531,0.3857422,0.0761719c1.5527344,0.1582031,3.0703125-0.7441406,4.5126953-2.6835938
	c1.3789063-1.8535156,1.9609375-6.5957031,2.0898438-9.3632813c-0.7695313-0.1757813-1.4414063-0.4609375-2.0058594-0.7871094
	C35.0307617,53.6757813,34.4692383,59.2929688,32.9057617,61.3925781"/>
<path fill="#692A7C" d="M41.7397461,29.7143555c-0.7353516-1.5058594-1.0195313-1.9384766-1.1894531-2.1972656
	c-0.0039063-0.0058594-0.1113281-0.1835938-0.1113281-0.1835938c-0.1474609-0.3115234-0.640625-1.3398438-2.1416016-1.1625977
	c-0.2011719,0.0249023-0.421875,0.0849609-0.6455078,0.1606445c0.2617188,0.2143555,0.4814453,0.4990234,0.6523438,0.8574219
	c0,0,0.0976563,0.1630859,0.0996094,0.1640625c0.1728516,0.2636719,0.4628906,0.7050781,1.2099609,2.234375
	c0.4306641,0.8828125,1.4521484,1.9882813,2.8046875,3.0820313c-0.1289063-0.7773438-0.2666016-1.6289063-0.3964844-2.4697266
	C41.9135742,30.0327148,41.8139648,29.8696289,41.7397461,29.7143555"/>
<path fill="#692A7C" d="M36.0024414,18.5976563l-0.0205078-0.4780273c0.0019531,0.0234375,0.0058594-0.046875,0.0058594-0.046875
	c0-1.1938477-1.1767578-2.203125-1.9892578-2.4458008c0,0,0.0126953,0.0200195,0.0136719,0.0229492
	c-0.0830078-0.0380859-0.1748047-0.0732422-0.3359375-0.1230469c-0.4150391-0.1337891-0.8886719-0.2871094-1.3876953-0.0283203
	c-0.0185547,0.0092773-0.0273438,0.0234375-0.0439453,0.0332031c0.8291016,0.4428711,1.7177734,1.387207,1.7177734,2.5131836
	c-0.0009766,0-0.0039063,0.0888672-0.0078125,0.0170898l0.0224609,0.5068359c0,1.8720703-0.6826172,6.8310547-7.0019531,12.4570313
	c-0.1240234,0.1083984-0.2597656,0.2255859-0.3867188,0.3378906c0.0615234-0.0244141,0.1162109-0.0634766,0.1796875-0.0849609
	c0.65625-0.2099609,1.3330078-0.2617188,2.0244141-0.1738281c0.1015625-0.0898438,0.2060547-0.1796875,0.3046875-0.2695313
	C35.3305664,25.2910156,36.0024414,20.4296875,36.0024414,18.5976563"/>
<path fill="#692A7C" d="M4.3139648,55.2832031c0,0-0.3710938,0.8925781-0.3740234,0.8984375
	c0,0-0.1630859,0.4296875-0.1601563,0.4238281c0,0-0.0419922,0.0664063-0.0917969,0.1484375
	c0.1035156,0.1113281,0.2070313,0.2128906,0.3173828,0.2832031c0.5410156,0.3535156,1.1875,0.28125,1.6132813-0.1777344
	c0-0.0019531,0.203125-0.3222656,0.203125-0.3222656l0.1611328-0.4277344
	c0.0136719-0.0351563,0.3955078-0.9414063,0.3955078-0.9414063c0.0087891-0.0175781,0.265625-0.546875,0.265625-0.546875
	c0.4785156-1.0371094,1.7246094-3.6972656,4.7089844-7.4785156c0.0244141-0.78125,0.0566406-1.5976563,0.0966797-2.4487305
	c-4.5693359,5.1264648-6.2773438,8.7651367-6.8583984,10.0209961C4.5913086,54.7148438,4.3325195,55.2480469,4.3139648,55.2832031"
	/>
<path fill="#692A7C" d="M82.5473633,14.3076172c-0.0742188-0.4428711-1.8457031-10.890625-6.5048828-12.7426758
	c-0.6933594-0.2753906-1.3974609-0.3540039-2.1074219-0.2509766c4.6396484,1.9755859,6.5234375,11.9018555,6.5898438,12.9780273
	c0.3925781,6.2856445,0.4462891,10.3339844-3.2421875,14.1665039c-0.6484375,0.6738281-1.5585938,1.3164063-2.6103516,1.6777344
	c1.9160156,0.2421875,3.6679688-0.7626953,4.7148438-1.8505859C82.699707,24.84375,83.6166992,20.7939453,82.5473633,14.3076172"/>
<path fill="#692A7C" d="M74.1606445,18.4707031c-1.0869141-3.0839844-1.2109375-5.6279297-1.2412109-7.574707
	c-0.0507813-0.1259766-0.0966797-0.2431641-0.1357422-0.3393555c0,0-0.1054688-0.2636719-0.1083984-0.2719727
	c-0.6650391-1.7451172-1.1162109-2.5678711-1.3789063-2.9609375c-0.1923828,0.5800781-0.4150391,1.6640625-0.4150391,2.6328125
	c0,0,0.0039063,0.3291016,0.0039063,0.3320313c0.0234375,1.9873047,0.0537109,4.7099609,1.2333984,8.0581055
	c0.6328125,1.7963867,1.4121094,3.0449219,1.8544922,3.5322266c0.140625-0.4130859,0.3056641-1.2080078,0.3056641-2.5649414
	v-0.0439453c-0.0019531-0.1762695-0.0058594-0.3422852-0.0078125-0.5112305
	C74.2338867,18.6606445,74.1967773,18.5727539,74.1606445,18.4707031"/>
<path fill="#692A7C" d="M80.1469727,0.1806641c0.4882813,0,0.8730469,0.3852539,0.8730469,0.8959961
	c0,0.5170898-0.3847656,0.8994141-0.8730469,0.8994141c-0.4921875,0-0.8779297-0.3823242-0.8779297-0.8994141
	C79.269043,0.565918,79.6547852,0.1806641,80.1469727,0.1806641 M80.1469727,2.1547852
	c0.5898438,0,1.0898438-0.4550781,1.0898438-1.078125c0-0.6201172-0.5-1.0766602-1.0898438-1.0766602
	c-0.5927734,0-1.09375,0.456543-1.09375,1.0766602C79.0532227,1.699707,79.5541992,2.1547852,80.1469727,2.1547852z"/>
<path fill="#692A7C" d="M79.9194336,0.6166992h0.2568359c0.1308594,0,0.2705078,0.0292969,0.2705078,0.1821289
	c0,0.190918-0.1425781,0.2021484-0.3027344,0.2021484h-0.2246094V0.6166992 M79.9194336,1.159668h0.2167969l0.328125,0.5400391
	h0.2099609l-0.3515625-0.5478516c0.1816406-0.0219727,0.3212891-0.1191406,0.3212891-0.3417969
	c0-0.2441406-0.1455078-0.3535156-0.4384766-0.3535156h-0.4736328V1.699707h0.1875V1.159668z"/>
<path fill="#692A7C" d="M52.3208008,40.4438477c-4.9238281-9.15625-2.3271484-20.8203125-2.0166016-22.1210938
	c0.5546875-2.3017578,1.2636719-3.9428711,2.1708984-5.0400391c0.4453125-1.0458984,0.9453125-2.0307617,1.4882813-2.8691406
	c0.4042969-0.6259766,0.3271484-1.3989258-0.1953125-1.9677734c-0.4882813-0.5332031-1.4375-0.9189453-2.7236328-0.6298828
	c0.21875,0.1259766,0.4052734,0.2739258,0.5507813,0.434082c0.6054688,0.6586914,0.6962891,1.5917969,0.2255859,2.3208008
	c-1.6171875,2.4970703-2.9042969,6.2480469-3.2050781,9.3359375c-0.4921875,5.0361328,0.4755859,10.0878906,1.1142578,13.4306641
	l0.0107422,0.0488281c0.2460938,1.2832031,0.4384766,2.2949219,0.5087891,3.0634766
	c0.8662109,9.612793-0.3710938,11.9858398-3.8720703,15.5112305c0.5986328,0.0839844,0.7822266,0.1269531,0.8310547,0.1445313
	c0,0,0.0244141-0.0429688,0.0322266-0.0527344c0.3896484,0.1621094,0.859375,0.1640625,1.1464844-0.1230469
	c3.0009766-2.9941406,4.3378906-4.9746094,4.2216797-11.0268555C52.5004883,40.7495117,52.4018555,40.5952148,52.3208008,40.4438477
	"/>
<path fill="#692A7C" d="M65.2172852,21.5419922c-0.8486328-2.7050781-0.8955078-5.105957-0.8945313-6.7861328
	c-0.6679688-1.762207-1.1943359-3.1142578-1.4765625-3.7871094c-0.1894531-0.4467773-0.5166016-1.0620117-1.1738281-1.2426758
	c-0.625-0.1733398-1.1025391,0.159668-1.3251953,0.3237305c0.2451172,0.3041992,0.3837891,0.625,0.4501953,0.7797852
	c0.4619141,1.1020508,1.5859375,4.0419922,2.796875,7.3144531c1.0683594,2.8798828,2.2929688,5.6948242,3.4570313,8.3076172
	c1.28125,2.8759766,1.9326172,5.7939453,1.9326172,8.6728516c0,6.8066406-3.5771484,11.7993164-7.1923828,13.9086914
	c0.4853516,0.3359375,0.8632813,0.4335938,1.2978516,0.2363281c5.0947266-2.3007813,9.8554688-10.137207,7.1210938-19.6459961
	C68.1860352,28.3666992,66.5102539,25.6625977,65.2172852,21.5419922"/>
</svg>
