<?xml version="1.0" encoding="UTF-8" standalone="no"?>
<!-- Created with Inkscape (http://www.inkscape.org/) -->
<svg
   xmlns:svg="http://www.w3.org/2000/svg"
   xmlns="http://www.w3.org/2000/svg"
   version="1.0"
   width="546.67352"
   height="320.7804"
   id="svg2"
   xml:space="preserve"><defs
     id="defs5" /><path
     d="M 281.08305,34.8434 L 284.19137,56.601588 L 299.34439,54.658888 L 298.95585,50.384963 L 288.4653,51.550575 L 286.13406,34.454863 L 281.08305,34.8434 z M 317.21718,34.454863 L 318.38279,37.951713 L 313.72033,38.34025 L 312.55471,36.39755 L 310.22348,34.8434 L 308.28079,34.8434 L 305.17247,36.39755 L 304.3954,37.951713 L 304.00686,39.117325 L 303.61832,41.060025 L 304.00686,44.945413 C 306.4676,51.485813 315.14497,50.469125 314.10887,43.391263 L 319.15988,42.614175 C 319.94992,55.364738 303.9162,57.488738 299.34439,46.499575 C 295.07046,32.725863 310.26234,25.70625 317.21718,34.454863 z M 337.42122,39.8944 L 329.26189,41.060025 L 330.81606,50.384963 L 325.76504,51.162038 L 322.65673,29.015313 L 327.70773,28.626775 L 328.87336,36.786088 L 336.64413,35.620475 L 335.47852,27.46115 L 340.52953,26.684075 L 343.63785,48.442263 L 338.58683,49.219338 L 337.42122,39.8944 z M 349.46593,56.601588 C 359.33481,66.826638 349.53717,82.640175 336.2556,74.862913 C 326.12768,64.58605 336.06133,47.697563 349.46593,56.601588 z M 345.192,58.932825 L 343.63785,58.544288 L 341.69514,58.544288 L 340.14099,58.932825 L 338.58683,59.7099 L 337.80976,61.264063 L 337.42122,62.818213 C 336.2556,67.072713 337.34998,69.45575 340.52953,72.14315 C 349.44002,75.316213 350.49556,63.038388 345.192,58.932825 z M 324.59942,79.136838 L 321.87966,74.085838 L 314.88595,75.25145 L 313.72033,80.691 L 308.28079,81.468075 L 313.72033,58.544288 L 318.38279,57.7672 L 330.03897,78.359763 L 324.59942,79.136838 z M 303.22978,60.098438 L 295.84754,70.20045 L 306.72663,81.856613 L 300.51001,82.6337 L 292.73923,74.085838 L 290.79653,76.417075 L 291.96215,83.799313 L 286.91114,84.576388 L 283.80283,62.818213 L 288.85384,62.041138 L 290.01945,70.20045 L 297.01315,60.875513 L 303.22978,60.098438 z M 315.66302,70.977525 L 319.93696,70.20045 L 316.82865,64.372375 L 315.66302,70.977525 z M 274.08935,80.691 L 266.70711,81.856613 L 265.93003,87.6847 L 260.49048,88.073238 L 265.93003,65.14945 L 270.5925,64.372375 L 282.24867,85.353475 L 276.80912,85.742013 L 274.08935,80.691 z M 360.34502,16.9706 L 193.27323,40.28295 L 202.59816,105.94604 L 369.66996,82.6337 L 360.34502,16.9706 z M 274.47789,36.009013 L 269.42688,36.786088 L 272.53519,58.544288 L 277.5862,57.7672 L 274.47789,36.009013 z M 263.21026,37.563175 L 266.31857,59.321363 L 261.6561,60.098438 L 259.71341,46.888113 L 256.99363,60.486975 L 253.10824,61.264063 L 246.89162,48.8308 L 248.44577,61.6526 L 243.7833,62.429675 L 240.67499,40.671488 L 246.89162,39.8944 L 254.27386,53.881813 L 257.38217,38.34025 L 263.21026,37.563175 z M 269.03834,70.977525 L 267.87273,77.582688 L 272.14666,76.805613 L 269.03834,70.977525 z M 242.22915,77.19415 L 249.22285,67.480688 L 255.43947,66.7036 L 247.66869,76.805613 L 258.93633,88.461788 L 252.7197,89.238863 L 244.94892,80.691 L 243.00623,83.022238 L 244.17184,90.404475 L 239.12083,91.18155 L 236.01252,69.423375 L 241.06353,68.6463 L 242.22915,77.19415 z M 223.96781,58.932825 L 223.57927,55.047425 L 218.13972,55.824513 L 217.36265,50.384963 L 213.47726,51.162038 L 214.25433,56.21305 L 209.20333,56.990125 L 209.59187,60.875513 L 214.64288,60.098438 L 215.41995,65.537988 L 219.69388,64.760913 L 218.9168,59.7099 L 223.96781,58.932825 z M 227.8532,85.742013 L 227.07612,81.079538 L 210.75748,83.410775 L 211.14602,88.073238 L 227.8532,85.742013"
     id="schild"
     style="fill:#0080d0;fill-opacity:1;fill-rule:evenodd;stroke:none" /><path
     d="M 281.08305,34.8434 L 284.19137,56.601588 L 299.34439,54.658888 L 298.95585,50.384963 L 288.4653,51.550575 L 286.13406,34.454863 L 281.08305,34.8434 z M 317.21718,34.454863 L 318.38279,37.951713 L 313.72033,38.34025 L 312.55471,36.39755 L 310.22348,34.8434 L 308.28079,34.8434 L 305.17247,36.39755 L 304.3954,37.951713 L 304.00686,39.117325 L 303.61832,41.060025 L 304.00686,44.945413 C 306.4676,51.485813 315.14497,50.469125 314.10887,43.391263 L 319.15988,42.614175 C 319.94992,55.364738 303.9162,57.488738 299.34439,46.499575 C 295.07046,32.725863 310.26234,25.70625 317.21718,34.454863 z M 337.42122,39.8944 L 329.26189,41.060025 L 330.81606,50.384963 L 325.76504,51.162038 L 322.65673,29.015313 L 327.70773,28.626775 L 328.87336,36.786088 L 336.64413,35.620475 L 335.47852,27.46115 L 340.52953,26.684075 L 343.63785,48.442263 L 338.58683,49.219338 L 337.42122,39.8944 z M 349.46593,56.601588 C 359.33481,66.826638 349.53717,82.640175 336.2556,74.862913 C 326.12768,64.58605 336.06133,47.697563 349.46593,56.601588 z M 345.192,58.932825 L 343.63785,58.544288 L 341.69514,58.544288 L 340.14099,58.932825 L 338.58683,59.7099 L 337.80976,61.264063 L 337.42122,62.818213 C 336.2556,67.072713 337.34998,69.45575 340.52953,72.14315 C 349.44002,75.316213 350.49556,63.038388 345.192,58.932825 z M 324.59942,79.136838 L 321.87966,74.085838 L 314.88595,75.25145 L 313.72033,80.691 L 308.28079,81.468075 L 313.72033,58.544288 L 318.38279,57.7672 L 330.03897,78.359763 L 324.59942,79.136838 z M 303.22978,60.098438 L 295.84754,70.20045 L 306.72663,81.856613 L 300.51001,82.6337 L 292.73923,74.085838 L 290.79653,76.417075 L 291.96215,83.799313 L 286.91114,84.576388 L 283.80283,62.818213 L 288.85384,62.041138 L 290.01945,70.20045 L 297.01315,60.875513 L 303.22978,60.098438 z M 315.66302,70.977525 L 319.93696,70.20045 L 316.82865,64.372375 L 315.66302,70.977525 z M 274.08935,80.691 L 266.70711,81.856613 L 265.93003,87.6847 L 260.49048,88.073238 L 265.93003,65.14945 L 270.5925,64.372375 L 282.24867,85.353475 L 276.80912,85.742013 L 274.08935,80.691 z M 274.47789,36.009013 L 269.42688,36.786088 L 272.53519,58.544288 L 277.5862,57.7672 L 274.47789,36.009013 z M 263.21026,37.563175 L 266.31857,59.321363 L 261.6561,60.098438 L 259.71341,46.888113 L 256.99363,60.486975 L 253.10824,61.264063 L 246.89162,48.8308 L 248.44577,61.6526 L 243.7833,62.429675 L 240.67499,40.671488 L 246.89162,39.8944 L 254.27386,53.881813 L 257.38217,38.34025 L 263.21026,37.563175 z M 269.03834,70.977525 L 267.87273,77.582688 L 272.14666,76.805613 L 269.03834,70.977525 z M 242.22915,77.19415 L 249.22285,67.480688 L 255.43947,66.7036 L 247.66869,76.805613 L 258.93633,88.461788 L 252.7197,89.238863 L 244.94892,80.691 L 243.00623,83.022238 L 244.17184,90.404475 L 239.12083,91.18155 L 236.01252,69.423375 L 241.06353,68.6463 L 242.22915,77.19415 z M 223.96781,58.932825 L 223.57927,55.047425 L 218.13972,55.824513 L 217.36265,50.384963 L 213.47726,51.162038 L 214.25433,56.21305 L 209.20333,56.990125 L 209.59187,60.875513 L 214.64288,60.098438 L 215.41995,65.537988 L 219.69388,64.760913 L 218.9168,59.7099 L 223.96781,58.932825 z M 227.8532,85.742013 L 227.07612,81.079538 L 210.75748,83.410775 L 211.14602,88.073238 L 227.8532,85.742013"
     id="schildtext"
     style="fill:#ffffff;fill-opacity:1;fill-rule:evenodd;stroke:none" /><path
     d="M 276.42059,152.18219 C 274.47789,154.90196 273.31227,158.39881 273.31227,162.2842 C 273.31227,166.55814 274.47789,170.05499 276.42059,172.77476 C 278.36328,175.49454 281.08305,177.04869 283.80283,177.04869 C 286.5226,177.04869 289.24237,175.49454 291.18507,172.77476 C 293.12776,170.05499 294.29338,166.55814 294.29338,162.2842 C 294.29338,158.39881 293.12776,154.90196 291.18507,152.18219 C 289.24237,149.46241 286.5226,147.90825 283.80283,147.90825 C 281.08305,147.90825 278.36328,149.46241 276.42059,152.18219 z M 309.4464,121.48761 L 309.4464,186.76216 L 294.29338,186.76216 L 294.29338,183.65385 C 290.40799,186.37363 286.13406,187.92779 281.47159,187.92779 C 275.25497,187.92779 269.81542,185.59655 265.54149,180.54554 C 261.26756,175.49454 258.93633,169.66645 258.93633,162.67274 C 258.93633,155.67904 261.26756,149.85095 265.54149,144.79994 C 269.81542,139.74894 275.25497,137.4177 281.47159,137.4177 C 287.29968,137.4177 291.57361,138.97185 295.07046,142.08016 L 295.07046,121.48761 L 309.4464,121.48761 z M 333.14728,137.4177 C 339.75246,136.64063 345.96908,138.19478 351.40862,142.46871 C 359.17941,148.29679 362.28772,156.84465 360.34502,167.72375 L 326.93066,167.72375 C 326.93066,172.38623 328.87336,175.10599 333.14728,176.27161 C 337.42122,178.2143 340.91807,176.66015 343.24931,171.99768 L 359.17941,172.38623 C 354.1284,183.65385 346.35762,188.70486 335.47852,187.92779 C 320.71403,186.76216 312.94326,179.76846 311.77764,166.94668 C 310.22348,158.01028 312.94326,150.23949 319.54842,143.63433 C 322.65673,140.13748 327.31919,137.80624 333.14728,137.4177 z M 327.31919,156.84465 L 345.58053,156.84465 C 345.192,151.40511 342.08368,148.68534 336.2556,148.68534 C 331.59313,148.68534 328.48482,151.40511 327.31919,156.84465 z M 378.21781,138.58331 L 363.45333,138.58331 L 363.45333,186.76216 L 377.82927,186.76216 L 377.82927,159.17589 C 378.99489,152.57073 382.88028,150.23949 389.48545,151.40511 L 389.48545,137.80624 C 385.21152,137.4177 381.32612,139.3604 378.21781,142.85725 L 378.21781,138.58331 z M 210.75748,138.19478 L 195.60446,138.19478 L 195.60446,186.37298 L 210.75748,186.37298 L 210.75748,138.19478 z M 195.60446,136.25209 L 210.36894,136.25209 L 210.36894,121.09906 L 195.60446,121.09906 L 195.60446,136.25209 z M 228.63028,154.51343 L 228.63028,186.37363 L 214.25433,186.37363 L 214.25433,138.19478 L 228.63028,138.19478 L 228.63028,141.30309 C 232.90421,138.58331 236.7896,137.4177 240.28645,137.80624 C 251.55409,137.80624 256.99363,142.46871 256.60509,151.79365 L 256.60509,186.37363 L 241.84061,186.37363 L 241.84061,154.51343 C 241.84061,150.23949 239.50937,147.90825 235.23544,148.29679 C 230.96151,148.68534 229.01882,151.01656 228.63028,154.51343"
     id="kinder_inder"
     style="fill:#e00810;fill-opacity:1;fill-rule:evenodd;stroke:none" /><path
     d="M 509.54402,199.97249 C 515.96787,202.33611 518.9402,208.93479 517.31481,215.51405 C 516.72552,218.7972 515.1584,220.00815 513.04087,222.11921 L 512.65233,222.50775 L 511.48672,223.28483 L 509.54402,224.06193 L 508.37841,224.45046 L 507.98987,224.839 L 501.38469,224.839 L 501.38469,224.45046 C 484.29546,218.97205 492.18281,194.28686 509.54402,199.97249 z M 507.60132,205.41204 L 508.37841,205.80058 L 509.15548,206.18911 L 509.54402,206.57765 L 509.93256,207.35473 L 510.3211,207.74326 L 510.3211,209.68596 L 509.93256,210.0745 L 509.93256,210.85158 L 509.15548,211.62866 L 508.76694,211.62866 L 508.37841,212.0172 L 508.76694,212.0172 L 509.54402,212.79428 L 509.93256,213.57135 L 509.93256,213.95989 L 510.3211,216.67966 L 510.3211,217.84529 L 510.70963,218.23383 L 507.98987,218.23383 L 507.98987,217.84529 L 507.60132,217.0682 L 507.60132,214.73698 L 507.21278,213.95989 L 507.21278,213.57135 L 506.82425,213.18281 L 502.16178,213.18281 L 502.16178,218.23383 L 499.44201,218.23383 L 499.44201,205.02349 L 506.82425,205.02349 L 507.60132,205.41204 z M 507.98987,208.90889 C 507.98987,207.74326 507.21278,206.96619 505.65863,206.96619 L 501.77323,206.96619 L 501.77323,211.24011 L 505.65863,211.24011 C 507.21278,211.24011 507.98987,210.46304 507.98987,208.90889 z M 512.2638,204.63495 C 510.3211,202.69226 507.60132,201.52664 504.88155,201.52664 C 502.16178,201.52664 499.44201,202.69226 497.11077,204.63495 C 495.16807,206.57765 494.39099,209.29743 494.39099,212.0172 C 494.39099,214.73698 495.16807,217.45675 497.11077,219.39944 C 499.44201,221.34215 502.16178,222.50775 504.88155,222.50775 C 507.60132,222.50775 510.3211,221.34215 512.2638,219.39944 C 514.2065,217.45675 515.37211,214.73698 515.37211,212.0172 C 515.37211,209.29743 514.2065,206.57765 512.2638,204.63495 z M 457.09126,194.1444 C 469.06473,191.60596 477.94932,198.66441 484.28899,208.1318 C 485.45461,209.29743 485.45461,210.85158 485.06607,212.40574 L 481.56922,223.67339 C 480.79213,226.00461 479.23798,227.17024 476.51821,227.17024 C 474.96406,227.17024 473.79843,226.39314 472.63282,225.22754 C 463.39855,212.87199 455.73136,217.78053 452.04023,231.05563 L 450.87462,235.7181 L 450.09753,246.98573 L 450.48607,255.92213 L 450.87462,258.64189 L 452.81731,265.24705 L 455.14855,270.29806 L 455.14855,270.6866 L 457.09126,273.01784 L 458.6454,274.572 L 460.19957,275.73761 L 464.08496,275.73761 L 466.4162,274.96054 L 466.4162,259.41896 L 460.58811,259.41896 C 457.47978,259.41896 455.92562,257.86481 455.92562,254.36796 L 455.92562,241.15764 C 455.92562,237.66079 457.47978,236.10664 460.58811,236.10664 L 481.95776,236.10664 C 485.06607,236.10664 486.62022,237.66079 486.62022,241.15764 L 486.62022,282.34278 L 485.84314,285.45109 L 482.73483,289.72503 L 479.23798,292.83334 L 477.29528,294.38749 L 477.29528,294.77603 L 475.3526,296.33019 L 470.69012,298.66143 L 466.4162,299.82704 L 461.75372,300.21558 C 449.9486,301.30996 439.60698,288.68244 435.33304,279.23446 L 434.55597,297.4958 C 434.55597,300.99265 433.00182,302.54681 429.50497,302.15828 L 427.17373,302.15828 C 425.23104,302.15828 423.67688,301.38119 422.89981,299.4385 L 408.52386,266.41268 L 407.35825,295.16456 C 407.35825,298.27288 405.80408,299.82704 402.30723,299.82704 L 393.37083,299.4385 C 389.87398,299.4385 388.31983,297.88434 388.70837,294.38749 L 389.09691,284.28548 C 379.83026,291.92674 367.22216,294.43283 359.56795,283.5084 L 360.34502,293.61041 C 360.73356,297.10726 359.17941,298.66143 356.0711,299.04996 L 347.91177,299.4385 L 346.74616,299.4385 C 344.02638,299.04996 342.86077,297.88434 342.47222,295.16456 L 340.14099,266.41268 L 335.08998,266.80121 L 337.42122,295.55311 C 337.80976,299.04996 336.2556,300.60411 333.14728,300.99265 L 324.98797,301.38119 L 323.82234,301.38119 C 321.10257,300.99265 319.93696,299.82704 319.54842,297.10726 L 319.15988,290.11356 L 318.38279,290.5021 L 318.38279,290.89064 L 314.49741,293.99895 L 310.61202,296.71873 L 305.17247,298.66143 L 303.22978,299.04996 L 300.12147,299.4385 L 297.79023,299.04996 C 289.67624,298.22108 281.36151,290.4244 278.36328,283.11985 C 274.35485,292.55486 263.78011,298.54485 254.27386,292.83334 C 253.88532,294.38749 253.49678,295.55311 252.33116,296.33019 L 244.17184,302.15828 C 242.61769,303.32389 241.06353,303.32389 239.50937,302.54681 C 237.95522,302.15828 236.7896,300.99265 236.40106,299.04996 L 233.68129,285.45109 L 231.35005,285.83963 L 227.8532,285.83963 L 225.52197,285.45109 L 222.8022,299.04996 C 222.41366,300.99265 221.24804,302.15828 219.69388,302.54681 C 217.75119,303.32389 216.19703,303.32389 215.03141,302.15828 L 206.87209,296.33019 C 204.9294,295.16456 204.54086,293.22188 204.9294,291.27918 L 206.87209,283.11985 L 206.09501,283.5084 C 202.9867,283.5084 201.04401,281.95424 200.65547,279.23446 L 198.71277,263.30436 L 198.71277,277.29176 C 198.71277,280.40008 197.15862,281.95424 193.66177,281.95424 L 188.61076,281.95424 L 189.77637,290.5021 C 190.16491,292.83334 189.38784,294.77603 187.44514,295.94165 L 178.1202,300.21558 L 176.56605,300.60411 C 173.45773,300.99265 171.51504,299.4385 171.1265,296.33019 L 167.24111,271.46368 L 166.07549,268.74391 L 166.07549,293.99895 C 166.07549,297.4958 164.52134,299.04996 161.02448,299.04996 L 151.69955,299.04996 C 148.2027,299.04996 146.64854,297.4958 146.64854,293.99895 L 147.03708,287.39379 L 146.64854,287.39379 L 122.55912,286.61671 L 122.17058,287.78233 L 121.78204,287.78233 L 121.3935,289.33648 L 121.00496,289.33648 C 114.85309,302.39788 96.947919,303.45339 85.259371,297.88434 C 83.316672,297.4958 82.151059,295.94165 82.151059,293.99895 L 81.762521,288.17086 L 75.934435,294.77603 L 73.603197,296.33019 L 73.603197,296.71873 C 63.546508,303.99086 49.99297,307.80504 40.577382,297.4958 C 35.610545,293.21539 32.502233,284.09768 30.863907,278.06885 L 29.698282,272.6293 L 29.309745,269.90953 L 28.921207,267.18975 L 28.921207,194.1444 C 28.921207,191.0361 30.47537,189.48194 33.583682,189.48194 L 43.297157,189.48194 C 35.42277,188.5365 30.306982,179.12736 33.97222,171.99768 C 39.39232,163.49515 48.056758,162.9512 54.953332,170.05499 L 54.953332,169.66645 L 56.89602,167.72375 L 58.450182,166.55814 L 60.392858,165.78105 L 61.169945,165.78105 L 63.112633,165.39251 C 67.490176,164.20748 72.288634,166.88839 74.76881,170.44353 C 79.742117,178.19488 75.202684,188.14796 66.220945,189.48194 L 77.488585,189.48194 C 80.985434,189.48194 82.539596,191.0361 82.539596,194.1444 L 82.539596,206.96619 C 89.617481,203.63124 92.233644,202.49153 100.02385,204.24641 L 103.5207,205.41204 L 106.62902,207.74326 L 108.18317,209.29743 L 110.12587,211.62866 L 110.51441,212.0172 L 112.06856,214.73698 L 112.06856,215.12551 C 114.32856,219.16633 114.3739,221.51698 115.56542,226.00461 L 115.56542,227.55878 L 115.95395,229.11293 L 115.95395,235.7181 L 115.56542,237.66079 L 114.3998,243.10034 L 114.01126,243.48888 L 114.78834,243.87741 L 117.89665,246.98573 L 118.28519,247.37426 L 119.45081,205.02349 C 119.83934,201.52664 121.3935,199.97249 124.50181,200.36103 L 148.59124,201.1381 C 151.69955,201.1381 153.2537,202.69226 153.2537,205.41204 L 154.03078,205.41204 L 156.36202,204.24641 L 160.63595,203.46934 L 166.46403,202.69226 C 172.73246,203.91616 174.14415,203.59239 179.28582,207.74326 L 179.28582,208.1318 L 180.83998,209.29743 L 181.22852,210.0745 C 181.22852,208.1318 182.00559,206.96619 183.55975,206.18911 C 189.21299,202.9513 197.4824,200.75605 203.76378,203.46934 L 207.26063,205.02349 L 209.59187,207.35473 L 211.9231,210.0745 L 213.08872,212.79428 L 214.25433,215.90259 L 214.64288,217.0682 L 215.03141,217.45675 C 214.6882,219.85921 216.1517,220.49384 215.80849,222.89629 C 216.77984,230.66061 215.5948,238.04933 211.9231,245.04304 L 211.53456,245.04304 L 213.47726,249.31696 L 213.47726,249.7055 L 214.64288,252.81381 L 223.57927,217.45675 C 223.96781,215.12551 225.52197,213.95989 228.24174,213.95989 L 230.96151,213.95989 C 233.68129,213.95989 235.23544,215.12551 235.62398,217.45675 L 239.50937,232.99833 C 239.22445,226.17945 239.48995,222.87686 241.84061,216.29113 L 242.22915,216.29113 C 248.76955,201.83101 266.38333,203.60534 272.92373,217.45675 C 274.08935,218.62236 274.08935,220.17651 273.70081,221.73068 L 270.5925,230.27855 C 269.81542,231.8327 268.6498,232.99833 266.70711,233.38686 C 264.76441,233.7754 263.21026,232.99833 262.04464,231.44416 L 260.49048,229.50148 L 259.71341,228.72439 L 258.54779,228.33585 L 258.15925,227.94731 L 257.77071,227.94731 L 257.77071,228.33585 L 257.38217,229.11293 L 257.38217,231.05563 L 258.15925,232.60979 L 258.15925,233.38686 L 260.87902,236.10664 L 264.37587,238.82641 L 266.70711,240.38056 L 266.70711,240.7691 L 267.87273,241.54619 L 270.98104,244.26595 C 271.8423,232.18238 275.55932,219.39944 283.80283,210.46304 C 290.2202,203.7737 294.51355,202.27783 303.22978,202.69226 L 305.17247,203.0808 L 309.4464,204.63495 L 312.94326,206.57765 L 316.82865,210.0745 L 318.38279,211.62866 L 321.49111,215.51405 L 322.26819,219.0109 L 325.76504,218.62236 L 326.93066,218.62236 C 329.65043,219.0109 330.81606,220.56508 331.20459,223.28483 L 333.14728,246.20865 L 338.1983,245.82011 L 336.2556,222.89629 C 335.86706,219.39944 337.42122,217.84529 340.52953,217.45675 L 348.68885,216.67966 L 349.85447,216.67966 L 352.18571,217.84529 L 352.18571,208.1318 C 352.18571,205.02349 353.73986,203.46934 357.23671,203.46934 L 365.78457,203.46934 C 369.28142,203.46934 370.83557,205.02349 370.83557,208.1318 L 370.83557,260.58459 L 371.22411,263.30436 L 371.61264,265.24705 L 372.77827,267.57829 L 372.77827,267.96683 L 373.55534,268.35536 L 374.33242,268.35536 L 376.66366,267.57829 L 376.66366,208.1318 C 376.66366,205.02349 378.21781,203.46934 381.32612,203.46934 L 389.87398,203.46934 C 391.03961,203.46934 392.20522,203.85788 392.9823,204.63495 C 394.14792,203.46934 395.31353,203.0808 396.8677,203.0808 L 399.19892,203.46934 C 401.14162,203.46934 402.69577,204.24641 403.47286,206.18911 L 417.84881,238.82641 L 419.01442,210.46304 C 419.01442,206.96619 420.56857,205.41204 424.06543,205.80058 L 433.00182,206.18911 C 435.72158,206.18911 437.27574,207.74326 437.66428,210.46304 L 437.66428,210.0745 L 440.7726,205.80058 L 443.88091,201.91518 L 448.15485,198.41833 L 452.04023,196.0871 L 456.7027,194.1444 L 457.09126,194.1444 z M 297.40169,227.17024 C 289.70214,233.1084 290.16839,253.37719 291.57361,261.36166 C 292.05928,264.05554 292.76513,268.21939 294.29338,270.29806 L 295.07046,271.85223 L 296.62462,274.18345 L 297.40169,274.572 L 298.56731,275.73761 L 299.73293,276.12615 L 300.12147,276.12615 C 304.61557,276.76725 307.76921,273.17974 310.61202,270.29806 C 311.77764,269.13245 312.94326,268.74391 314.10887,268.74391 C 315.27449,268.35536 316.05157,268.74391 317.21718,269.52099 L 314.10887,233.38686 L 313.3318,233.38686 C 312.16618,233.38686 311.00056,232.60979 310.22348,231.44416 C 307.957,227.99264 304.1558,225.75854 300.12147,225.22754 L 299.73293,225.61608 L 298.56731,226.00461 L 297.40169,227.17024 z M 174.62335,121.09906 L 193.66177,121.09906 L 175.01189,146.74264 L 194.0503,185.98509 L 176.17751,186.37363 L 164.52134,162.67274 L 158.69325,169.2779 L 158.69325,185.98509 L 141.59753,185.98509 L 141.59753,105.5575 L 158.69325,105.5575 L 158.69325,141.69163 L 174.62335,121.09906 z M 249.99993,255.92213 C 253.74285,260.18956 258.48303,261.86029 261.6561,266.80121 L 262.43318,268.35536 L 262.43318,272.6293 L 262.04464,273.01784 L 262.04464,273.40638 L 260.87902,273.40638 L 259.71341,273.01784 L 258.54779,272.24076 L 256.60509,270.6866 L 255.43947,269.52099 C 254.6624,268.35536 253.49678,267.96683 252.33116,267.57829 L 251.55409,267.57829 L 248.44577,268.74391 L 243.00623,246.20865 L 245.33746,250.48259 L 247.28016,253.20235 L 247.66869,253.59089 L 248.44577,254.7565 L 249.61139,255.92213 L 249.99993,255.92213 z M 136.93506,229.11293 L 146.64854,229.50148 L 146.64854,222.50775 L 137.3236,222.11921 L 136.93506,229.11293 z M 95.749922,227.17024 L 96.527,236.88371 L 96.91554,235.32955 L 96.91554,233.38686 L 96.527,229.89001 L 95.749922,227.55878 L 95.749922,227.17024 z M 98.469696,260.19605 L 100.02385,278.45739 L 101.96655,278.06885 L 103.5207,277.29176 L 104.29778,276.51469 L 105.07486,274.572 L 105.4634,270.6866 L 105.4634,267.57829 L 105.07486,265.24705 L 103.5207,262.13874 L 102.74362,260.97313 C 100.39297,259.61971 102.5105,260.4227 98.469696,260.19605 z M 135.76945,265.6356 L 146.64854,266.02414 L 146.64854,250.87113 L 145.87146,250.87113 L 136.54653,250.48259 L 135.76945,265.6356 z M 166.07549,226.00461 L 166.07549,242.32326 C 169.09962,239.48044 168.44558,228.86038 166.07549,226.00461 z M 53.787708,186.37363 L 54.953332,184.81948 L 55.730407,185.98509 C 58.061645,188.31633 60.781408,189.48194 64.278257,189.87048 L 62.724095,190.64755 C 61.558482,191.81318 61.169945,192.97879 61.169945,194.1444 L 61.169945,274.96054 C 59.227245,276.12615 57.673107,276.90323 55.730407,276.90323 C 54.564795,276.51469 53.787708,275.73761 52.622095,274.18345 L 52.622095,273.79491 C 51.067932,270.6866 50.290857,267.18975 50.290857,262.91583 L 50.290857,194.1444 C 50.290857,192.97879 49.90232,191.81318 48.736707,190.64755 L 46.794008,189.48194 C 49.513783,189.0934 51.84502,187.92779 53.787708,185.98509 L 53.787708,186.37363"
     id="kinder_k+schwarz"
     style="fill:#000000;fill-opacity:1;fill-rule:evenodd;stroke:none" /><path
     d="M 93.807227,208.52035 C 89.144759,208.90889 84.482296,210.85158 80.20836,214.34843 L 86.813521,293.61041 C 91.864533,295.55311 97.304079,296.33019 102.35509,295.94165 C 115.56542,294.77603 121.3935,285.45109 119.83934,267.96683 C 119.45081,262.13874 117.89665,257.08774 115.56542,252.81381 C 113.23418,248.53989 110.51441,246.20865 107.4061,245.43158 C 110.51441,241.93473 111.68003,236.49518 110.90295,229.50148 C 110.51441,223.67339 108.96025,219.0109 106.62902,215.12551 C 103.5207,210.0745 99.246774,208.1318 93.807227,208.52035 z M 99.635314,224.06193 C 100.80093,226.00461 101.57801,228.72439 101.96655,231.44416 C 102.35509,234.55248 101.96655,237.27225 100.80093,239.21495 C 99.635314,241.15764 98.469696,242.32326 96.91554,242.7118 L 92.253071,243.10034 L 90.310376,221.73068 L 94.972845,220.95361 C 96.527,220.95361 98.081156,222.11921 99.635314,224.06193 z M 110.51441,268.35536 C 111.29149,277.68031 108.18317,282.73131 100.80093,283.5084 L 95.749922,283.5084 L 93.03015,255.53359 L 99.635314,255.14505 C 106.24048,254.7565 109.73733,259.03043 110.51441,268.35536"
     id="pink"
     style="fill:#ff4aff;fill-opacity:1;fill-rule:evenodd;stroke:none" /><path
     d="M 461.75372,198.80686 C 453.98293,198.80686 447.37776,203.46934 441.93822,212.40574 C 436.88721,222.11921 434.16743,233.38686 434.16743,246.98573 C 434.16743,260.58459 436.88721,271.85223 441.93822,281.17716 C 447.37776,290.89064 453.98293,295.55311 461.75372,295.55311 C 469.13597,295.55311 476.12967,291.27918 481.95776,282.34278 L 481.95776,241.15764 L 460.58811,241.15764 L 460.58811,254.36796 L 471.4672,254.36796 L 471.4672,277.68031 C 468.35888,279.623 465.25057,280.78863 461.75372,280.78863 C 457.47978,280.78863 453.59438,278.06885 450.48607,272.24076 C 446.98922,266.02414 445.04653,257.47628 445.04653,246.98573 C 445.04653,236.49518 446.98922,228.33585 450.48607,221.73068 C 453.59438,215.90259 457.47978,213.18281 461.75372,213.18281 C 467.58181,213.18281 472.24428,216.29113 476.51821,222.11921 L 480.40359,210.85158 C 474.96406,202.69226 468.74742,198.80686 461.75372,198.80686 z M 300.51001,220.56508 C 305.56101,220.56508 310.22348,223.28483 314.10887,228.72439 L 317.21718,218.23383 C 312.55471,210.85158 307.11517,207.35473 300.51001,207.35473 C 293.5163,207.35473 287.68822,211.62866 283.02575,219.78798 C 277.97474,228.33585 275.64351,238.82641 275.64351,250.87113 C 275.64351,262.91583 277.97474,273.40638 283.02575,281.5657 C 287.68822,290.11356 293.5163,294.38749 300.51001,294.38749 C 307.11517,294.38749 312.55471,290.89064 317.60572,283.89694 L 314.49741,273.79491 C 310.22348,278.84593 305.56101,281.17716 300.51001,281.17716 C 296.62462,281.17716 293.12776,278.45739 290.40799,273.40638 C 287.29968,267.57829 285.74552,260.19605 285.74552,250.87113 C 285.74552,241.54619 287.29968,233.7754 290.40799,227.94731 C 293.12776,222.89629 296.62462,220.56508 300.51001,220.56508 z M 228.24174,218.62236 L 209.59187,292.44479 L 217.75119,297.88434 L 222.02512,278.84593 C 224.35635,280.40008 227.07612,281.17716 229.7959,281.17716 C 232.12713,281.17716 234.45837,280.40008 237.17814,278.84593 L 241.45207,297.88434 L 249.61139,292.44479 L 230.96151,218.62236 L 228.24174,218.62236 z M 234.45837,267.57829 C 232.90421,268.35536 231.35005,268.74391 229.7959,268.74391 C 227.8532,268.74391 225.91051,268.35536 224.35635,267.57829 L 229.40736,244.6545 L 234.45837,267.57829 z M 151.69955,212.0172 L 151.69955,293.99895 L 161.02448,293.99895 L 161.02448,260.58459 L 163.35572,260.58459 C 168.40673,260.58459 171.90358,265.24705 173.0692,274.572 L 176.17751,295.55311 L 185.11391,291.27918 L 182.00559,269.52099 C 180.83998,262.91583 178.89728,257.86481 175.78897,254.36796 C 180.45144,249.7055 182.78267,242.32326 182.78267,232.60979 C 182.78267,226.7817 182.00559,221.73068 180.0629,217.45675 C 176.95459,210.85158 172.29212,207.74326 166.07549,207.74326 C 161.02448,207.74326 156.36202,209.29743 151.69955,212.0172 z M 171.1265,224.839 C 172.29212,227.55878 173.0692,231.05563 173.0692,234.55248 C 173.0692,238.04933 172.29212,241.15764 171.1265,243.87741 C 169.57234,246.59719 168.01819,247.76281 166.07549,247.76281 L 161.02448,247.76281 L 161.02448,220.95361 L 166.07549,220.56508 C 168.01819,220.56508 169.96088,222.11921 171.1265,224.839"
     id="rot"
     style="fill:#e00810;fill-opacity:1;fill-rule:evenodd;stroke:none" /><path
     d="M 424.06543,210.46304 L 422.12273,259.80751 L 398.81038,208.1318 L 396.47915,208.1318 L 393.37083,294.38749 L 402.30723,294.77603 L 404.24993,245.04304 L 427.56227,297.10726 L 429.89351,297.4958 L 433.00182,210.85158 L 424.06543,210.46304 z M 197.54716,207.35473 C 193.66177,207.35473 189.77637,208.52035 185.89098,210.46304 L 185.89098,277.29176 L 193.66177,277.29176 L 193.66177,250.09404 L 195.21592,250.09404 C 199.48985,250.09404 202.20962,253.97943 203.37524,261.36166 L 205.70648,278.45739 L 213.08872,274.96054 L 210.36894,257.47628 C 209.59187,252.03674 208.03771,247.76281 205.70648,244.6545 C 209.20333,241.15764 211.14602,235.32955 211.14602,227.55878 C 211.14602,222.50775 210.36894,218.62236 208.81479,215.12551 C 206.48355,210.0745 202.59816,207.35473 197.54716,207.35473 z M 203.37524,228.72439 C 203.37524,231.44416 202.59816,234.16394 201.43255,236.49518 C 200.26693,238.43786 199.10131,239.60349 197.54716,239.60349 L 193.66177,239.60349 L 193.66177,217.84529 L 197.54716,217.45675 C 199.48985,217.45675 200.65547,218.62236 201.82109,220.95361 C 202.9867,223.28483 203.37524,226.00461 203.37524,228.72439"
     id="blau"
     style="fill:#0080d0;fill-opacity:1;fill-rule:evenodd;stroke:none" /><path
     d="M 381.32612,208.1318 L 381.32612,269.52099 C 378.99489,272.24076 376.27512,273.40638 373.55534,273.40638 C 371.61264,273.40638 369.66996,271.85223 368.11579,269.13245 C 366.56164,266.41268 365.78457,262.91583 365.78457,259.03043 L 365.78457,208.1318 L 357.23671,208.1318 L 357.23671,257.86481 C 357.23671,265.6356 358.79087,272.24076 361.51065,277.68031 C 364.61896,283.11985 368.11579,285.83963 372.38972,285.83963 C 378.99489,285.83963 384.82298,282.34278 389.87398,275.73761 L 389.87398,208.1318 L 381.32612,208.1318 z M 344.41492,260.97313 L 347.52323,294.77603 L 355.68256,293.99895 L 349.07739,221.73068 L 340.91807,222.11921 L 343.63785,250.48259 L 328.87336,251.6482 L 326.15358,223.67339 L 318.38279,224.45046 L 324.59942,296.71873 L 332.75874,295.94165 L 329.65043,262.52729 L 344.41492,260.97313 z M 69.71781,182.48824 C 68.552186,184.04239 66.609495,184.81948 64.666795,184.81948 C 62.724095,184.81948 60.781408,184.04239 59.227245,182.48824 C 58.061645,181.32261 57.284557,179.37993 57.284557,177.43723 C 57.284557,175.49454 58.061645,173.55184 59.227245,171.99768 C 60.781408,170.83206 62.724095,170.05499 64.666795,170.05499 C 66.609495,170.05499 68.552186,170.83206 69.71781,171.99768 C 71.271961,173.55184 72.049036,175.49454 72.049036,177.43723 C 72.049036,179.37993 71.271961,181.32261 69.71781,182.48824 z M 52.233558,177.43723 C 52.233558,175.49454 51.456482,173.55184 50.290857,172.38623 C 48.736707,170.83206 47.182545,170.05499 45.239845,170.05499 C 43.297157,170.05499 41.354457,170.83206 39.800308,172.38623 C 38.634682,173.55184 37.857608,175.49454 37.857608,177.43723 C 37.857608,179.37993 38.634682,181.32261 39.800308,182.48824 C 41.354457,184.04239 43.297157,184.81948 45.239845,184.81948 C 47.182545,184.81948 48.736707,184.04239 50.290857,182.48824 C 51.456482,181.32261 52.233558,179.37993 52.233558,177.43723 z M 66.220945,194.1444 L 66.220945,276.90323 C 62.724095,280.40008 59.227245,281.95424 55.730407,281.95424 C 53.010632,281.95424 50.290857,280.01154 48.348157,276.51469 C 46.40547,272.6293 45.239845,267.96683 45.239845,262.91583 L 45.239845,194.1444 L 33.583682,194.1444 L 33.583682,260.97313 C 33.583682,271.46368 35.52637,280.40008 39.800308,287.78233 C 43.685695,295.16456 48.348157,299.04996 54.176245,299.04996 C 62.724095,299.04996 70.494885,294.38749 77.488585,285.45109 L 77.488585,194.1444 L 66.220945,194.1444"
     id="grün"
     style="fill:#489f2f;fill-opacity:1;fill-rule:evenodd;stroke:none" /><path
     d="M 256.99363,222.89629 C 260.49048,222.50775 263.21026,224.45046 265.93003,228.33585 L 269.03834,220.17651 C 265.15295,213.57135 260.87902,210.85158 256.21655,211.24011 C 251.94262,211.62866 248.44577,213.95989 246.50308,218.23383 C 244.56038,222.50775 244.17184,227.17024 244.56038,232.99833 C 245.33746,241.93473 249.22285,249.31696 256.21655,255.14505 L 263.5988,261.36166 C 265.93003,263.6929 267.09565,266.41268 267.48419,269.52099 C 267.87273,274.96054 266.31857,277.68031 262.04464,278.06885 C 258.54779,278.45739 255.05094,276.90323 251.94262,272.6293 L 248.83431,281.17716 C 253.10824,287.78233 258.15925,290.5021 263.21026,290.11356 C 267.48419,289.72503 270.98104,287.00525 272.92373,282.34278 C 274.86643,278.06885 275.64351,272.6293 275.25497,266.80121 C 274.47789,257.08774 270.5925,249.7055 263.5988,244.26595 L 256.21655,238.82641 C 254.27386,236.49518 253.10824,233.7754 252.7197,231.05563 C 252.33116,226.00461 253.49678,223.28483 256.99363,222.89629 z M 132.66113,217.0682 L 148.2027,217.45675 L 148.59124,206.18911 L 124.50181,205.02349 L 121.78204,281.5657 L 146.64854,282.34278 L 147.03708,270.6866 L 130.71844,270.29806 L 131.49552,245.43158 L 146.26,245.82011 L 146.64854,234.55248 L 131.88405,234.16394 L 132.66113,217.0682"
     id="orange"
     style="fill:#ffba08;fill-opacity:1;fill-rule:evenodd;stroke:none" /></svg>