<?xml version="1.0" encoding="UTF-8" standalone="no"?>
<!-- Created with Inkscape (http://www.inkscape.org/) -->

<svg
   xmlns:dc="http://purl.org/dc/elements/1.1/"
   xmlns:cc="http://creativecommons.org/ns#"
   xmlns:rdf="http://www.w3.org/1999/02/22-rdf-syntax-ns#"
   xmlns:svg="http://www.w3.org/2000/svg"
   xmlns="http://www.w3.org/2000/svg"
   xmlns:sodipodi="http://sodipodi.sourceforge.net/DTD/sodipodi-0.dtd"
   xmlns:inkscape="http://www.inkscape.org/namespaces/inkscape"
   width="447.89999"
   height="203.34"
   id="svg4571"
   version="1.1"
   inkscape:version="0.48.1 "
   sodipodi:docname="Neues Dokument 3">
  <defs
     id="defs4573">
    <clipPath
       clipPathUnits="userSpaceOnUse"
       id="clipPath1100">
      <path
         inkscape:connector-curvature="0"
         d="m 462.79159,1234.0441 3.53119,0 0,-126.7184 -3.53119,0 0,126.7184 z"
         id="path1102" />
    </clipPath>
  </defs>
  <sodipodi:namedview
     id="base"
     pagecolor="#ffffff"
     bordercolor="#666666"
     borderopacity="1.0"
     inkscape:pageopacity="0.0"
     inkscape:pageshadow="2"
     inkscape:zoom="3.476146"
     inkscape:cx="223.95"
     inkscape:cy="101.67002"
     inkscape:document-units="px"
     inkscape:current-layer="layer1"
     showgrid="false"
     fit-margin-top="0"
     fit-margin-left="0"
     fit-margin-right="0"
     fit-margin-bottom="0"
     inkscape:window-width="1680"
     inkscape:window-height="990"
     inkscape:window-x="-4"
     inkscape:window-y="-4"
     inkscape:window-maximized="1" />
  <metadata
     id="metadata4576">
    <rdf:RDF>
      <cc:Work
         rdf:about="">
        <dc:format>image/svg+xml</dc:format>
        <dc:type
           rdf:resource="http://purl.org/dc/dcmitype/StillImage" />
        <dc:title></dc:title>
      </cc:Work>
    </rdf:RDF>
  </metadata>
  <g
     inkscape:label="Ebene 1"
     inkscape:groupmode="layer"
     id="layer1"
     transform="translate(24.202618,-455.75397)">
    <g
       transform="matrix(1.25,0,0,-1.25,-606.25724,1996.5761)"
       id="g4543"
       style="fill:#000000">
      <g
         id="g4546"
         style="fill:#000000">
        <path
           inkscape:connector-curvature="0"
           d="m 732.20538,1171.8872 c -0.19336,-1.3514 -0.29748,-2.7292 -0.29748,-4.1333 l 0,-28.8889 -10.2497,21.298 10.54718,11.7242 m 62.13758,24.7644 -93.98298,0.035 -6.35528,-6.9326 0.0201,36.5323 0,5.3004 -5.28369,0 -30.94238,0 -5.28363,0 0,-5.3004 0,-43.4563 c -5.34833,8.3894 -14.71961,13.9619 -25.37085,13.9619 l -0.005,0 -3.70618,0 -52.54327,0 -0.56525,0 0,0.2018 0,29.5646 0,5.3005 -73.94812,0 c -16.4957,0 -29.93097,-13.5845 -29.93097,-30.1965 l 0,-96.5131 41.42389,0 0,52.5302 20.95093,0.01 0,-52.5566 42.06952,0.018 31.67212,0 5.28363,0 0,5.2916 0,48.0458 7.44201,0 0,-48.0458 0,-5.3004 5.28803,0 31.37457,0 0.56519,0 4.71844,0 0.56519,0 30.94238,0 5.28369,0 0,5.3004 0,9.4601 5.66065,-11.7767 1.44366,-3.0014 3.31854,0 89.89527,0 c 15.89025,0 28.81897,12.9701 28.81897,28.9067 l 0,5.3354 0,1.255 0,4.6071 0,22.5267 c 0,15.9363 -12.92872,28.8977 -28.81897,28.8977 M 472.75342,1088.7393 c 2.87329,0 3.37112,-3.5365 3.37112,-6.0815 0,-2.1938 -0.49783,-5.8006 -3.37112,-5.827 l 0,11.9085 z m -6.30817,-17.5511 5.50415,0 c 3.83737,0 10.60492,0.9919 10.60492,11.7856 0,7.0643 -3.86282,11.5924 -11.03628,11.5924 l -5.07279,0 0,-23.378 z"
           style="fill:#000000;fill-opacity:1;fill-rule:nonzero;stroke:none"
           id="path108" />
      </g>
    </g>
    <path
       inkscape:connector-curvature="0"
       d="m 8.5228107,647.63067 1.08165,-6.77912 c 0.3117,-1.82087 0.5019373,-3.68575 0.7381873,-5.5175 l 0.0755,0 c 0.192488,1.83175 0.348925,3.69663 0.578538,5.5175 l 0.850825,6.77912 -3.3246503,0 z m 12.9849123,9.96026 -6.181325,-29.2225 -9.6197503,0 -6.999288,29.2225 8.115963,0 0.6594,-3.76275 5.2943873,0 0.5785,3.76275 8.152113,0 z m 1.847125,-0.69113 c 1.849363,0.76763 3.902125,1.1955 5.909,1.1955 5.491175,0 9.2807,-4.34362 9.2807,-9.7625 0,-2.21612 -0.502012,-3.7625 -1.431575,-5.07887 -0.889137,-1.31626 -2.202687,-2.40238 -3.866087,-3.56513 -0.4232,-0.35087 -1.001738,-0.746 -1.4294,-1.2065 -0.426488,-0.46088 -0.768775,-1.00925 -0.768775,-1.6345 0,-1.11875 1.115487,-1.777 2.046199,-1.777 1.815376,0 3.711813,1.66725 4.637038,3.13713 l 0,-8.87401 c -1.664513,-0.88875 -3.710713,-1.47 -5.601663,-1.47 -6.729162,0 -8.892437,6.19763 -8.892437,9.60913 0,2.139 0.618975,3.7625 1.590112,5.12275 1.00075,1.39312 2.354663,2.51187 3.897825,3.71862 0.501975,0.351 0.965688,0.69113 1.312375,1.11863 0.392638,0.42775 0.62225,0.93262 0.62225,1.63475 0,1.27213 -1.235812,1.94125 -2.32285,1.94125 -2.0058,0 -3.9022,-1.63425 -4.982712,-3.26862 l 0,9.15937 z m 30.625413,0.69113 14.653775,0 0,-6.88888 -6.765288,0 0,-4.4645 6.070863,0 0,-6.89962 -6.070863,0 0,-4.06975 6.765288,0 0,-6.89975 -14.653775,0 0,29.2225 z m 27.155317,-15.73013 0,-7.21775 c 2.16444,-0.11 3.7152,0.97625 3.7152,3.53213 0,1.8975 -1.12862,3.71849 -3.21312,3.71849 l -0.50208,-0.0325 z m 12.86788,15.73013 -5.87281,-12.16513 c 3.1321,-1.25025 4.52104,-4.1135 4.52104,-7.33837 0,-7.71138 -4.94874,-9.719 -11.78948,-9.719 l -7.60857,0 0,29.2225 7.88194,0 0,-7.78826 c 0,-1.437 -0.0809,-2.863 -0.118,-4.3 l 0.0809,-0.0775 4.36585,12.16513 8.5392,0 z m 16.371922,0 0,-6.88888 -5.91661,0 0,-22.33362 -7.880772,0 0,29.2225 13.797382,0 z m 3.20007,0 14.65378,0 0,-6.88888 -6.76529,0 0,-4.4645 6.0643,0 0,-6.89962 -6.0643,0 0,-4.06975 6.76529,0 0,-6.89975 -14.65378,0 0,29.2225 z m 27.15638,-17.86913 0,-5.046 0.77545,0 c 1.61857,0 2.82157,0.74587 2.82157,2.49 0,1.89787 -1.51359,2.556 -3.13766,2.556 l -0.45936,0 z m 0,11.55075 0,-5.6165 0.62011,0 c 1.81656,0 3.3236,0.812 3.3236,2.78638 0,1.9855 -1.54969,2.83012 -3.28653,2.83012 l -0.65719,0 z m -7.88849,6.31838 10.59204,0 c 7.03864,0 9.19647,-4.72788 9.19647,-8.337 0,-3.91588 -2.04629,-6.30726 -5.90897,-6.62525 l 0,-0.0775 c 3.32359,0 5.44411,-2.55588 5.44411,-5.8575 0,-6.31825 -5.40147,-8.32588 -10.04632,-8.32588 l -9.27733,0 0,29.2225 z m 23.57139,0 7.57797,0 0,-8.56713 c 0,-2.75325 -0.35324,-5.46275 -0.53925,-8.216 l 0.0744,-0.0775 5.87289,16.86013 7.57789,0 0,-29.2225 -7.57789,0 0,7.43712 c 0,3.379 0.5764,6.71325 0.8924,10.08113 l -0.0797,0.0763 -6.29509,-17.595 -7.50351,0 0,29.2225 z m 33.07197,-29.2225 -7.88849,0 0,29.2225 7.88849,0 0,-29.2225 z m 3.89443,28.53137 c 1.85371,0.76763 3.90106,1.1955 5.91003,1.1955 5.49462,0 9.28299,-4.34362 9.28299,-9.7625 0,-2.21612 -0.50209,-3.7625 -1.4328,-5.07887 -0.89225,-1.31626 -2.20031,-2.40238 -3.86261,-3.56513 -0.4222,-0.35087 -1.00509,-0.746 -1.43273,-1.2065 -0.42227,-0.46088 -0.76881,-1.00925 -0.76881,-1.6345 0,-1.11875 1.12199,-1.777 2.04621,-1.777 1.81763,0 3.70842,1.66725 4.63913,3.13713 l 0,-8.87401 c -1.66238,-0.88875 -3.70843,-1.47 -5.60593,-1.47 -6.72272,0 -8.89366,6.19763 -8.89366,9.60913 0,2.139 0.62675,3.7625 1.58814,5.12275 1.00387,1.39312 2.35671,2.51187 3.90099,3.71862 0.50742,0.351 0.96678,0.69113 1.32003,1.11863 0.38498,0.42775 0.61463,0.93262 0.61463,1.63475 0,1.27213 -1.23475,1.94125 -2.31965,1.94125 -2.00898,0 -3.90106,-1.63425 -4.98596,-3.26862 l 0,9.15937 z m 27.5895,-15.23625 -9.46343,0 0,7.05312 9.46343,0 0,-7.05312 z m 3.78295,15.92738 14.64722,0 0,-6.88888 -6.76536,0 0,-4.4645 6.06544,0 0,-6.89962 -6.06544,0 0,-4.06975 6.76536,0 0,-6.89975 -14.64722,0 0,29.2225 z m 27.14981,-29.2225 -7.88849,0 0,29.2225 7.88849,0 0,-29.2225 z m 4.63257,29.2225 7.57255,0 0,-8.56713 c 0,-2.75325 -0.34126,-5.46275 -0.54695,-8.216 l 0.0811,-0.0775 5.87287,16.86013 7.57783,0 0,-29.2225 -7.57783,0 0,7.43712 c 0,3.379 0.58289,6.71325 0.89883,10.08113 l -0.0797,0.0763 -6.30158,-17.595 -7.4971,0 0,29.2225 z m 33.07198,-15.73013 0,-7.21775 c 2.16437,-0.11 3.70201,0.97625 3.70201,3.53213 0,1.8975 -1.11543,3.71849 -3.19993,3.71849 l -0.50208,-0.0325 z m 12.86796,15.73013 -5.87295,-12.16513 c 3.12569,-1.25025 4.52117,-4.1135 4.52117,-7.33837 0,-7.71138 -4.94888,-9.719 -11.7884,-9.719 l -7.61627,0 0,29.2225 7.88849,0 0,-7.78826 c 0,-1.437 -0.0809,-2.863 -0.118,-4.3 l 0.0742,-0.0775 4.3724,12.16513 8.53927,0 z m 10.45517,-29.2225 -7.88185,0 0,29.2225 7.88185,0 0,-29.2225 z m 20.59455,0.1865 c -1.27738,-0.50463 -2.62908,-0.691 -4.02457,-0.691 -3.82028,0 -12.7935,2.20487 -12.7935,15.31325 0,10.00412 5.49445,14.91812 11.9503,14.91812 1.73561,0 3.16269,-0.35112 4.74968,-1.04212 l 0.47135,-8.18313 c -1.28395,1.163 -2.39945,1.86475 -4.17993,1.86475 -3.9437,0 -4.94216,-4.34387 -4.94216,-7.75512 0,-3.21413 0.99846,-7.75525 5.0975,-7.75525 1.62514,0 2.54929,0.62512 3.67134,1.71112 l 0,-8.38062 z m 24.17954,29.036 0,-29.2225 -7.88207,0 0,10.45387 -3.74565,0 0,-10.45387 -7.88849,0 0,29.2225 7.88849,0 0,-11.85813 3.74565,0 0,11.85813 7.88207,0 z m 15.45434,0 0,-22.09238 4.5211,0 0,-7.13012 -16.7318,0 0,7.13012 4.32869,0 0,22.09238 7.88201,0 z m 7.6828,0 14.64721,0 0,-6.88888 -6.76521,0 0,-4.4645 6.07086,0 0,-6.89962 -6.07086,0 0,-4.06975 6.76521,0 0,-6.89975 -14.64721,0 0,29.2225 z m 19.26795,0 7.57126,0 0,-8.56713 c 0,-2.75325 -0.34667,-5.46275 -0.53909,-8.216 l 0.0809,-0.0775 5.86632,16.86013 7.57798,0 0,-29.2225 -7.57798,0 0,7.43712 c 0,3.379 0.58297,6.71325 0.89355,10.08113 l -0.0755,0.0763 -6.30051,-17.595 -7.49695,0 0,29.2225 z"
       style="fill:#000000;fill-opacity:1;fill-rule:nonzero;stroke:none"
       id="path110" />
    <path
       inkscape:connector-curvature="0"
       d="m 177.67312,507.21155 -4.63272,0 -65.68459,0 0,101.3025 39.58909,0 0,-66.67213 18.09005,0 c 2.30095,0 4.42704,0.59238 4.42704,4.92525 l 0,61.75775 39.21821,0 0,-70.26987 c 0,-17.20013 -13.91556,-31.0435 -31.00708,-31.0435 m -116.307447,101.3025 38.677977,0 0,-101.3025 -38.677977,0 0,101.3025 z m 0,-108.18025 38.677977,0 0,-36.95575 -38.677977,0 0,36.95575 z m 260.607747,7.07537 -49.89005,-0.055 -17.44477,19.03188 0.0316,-62.668 -38.67903,0 0,144.80687 38.67903,0 0,-32.18425 2.697,-2.99462 16.93627,35.20075 44.07295,-0.0437 -30.43625,-63.2605 34.0332,-37.83338 z M 22.042473,507.23355 c 0,-3.69663 2.998775,-6.81175 9.182237,-6.81175 l 22.835513,0 0,-36.96713 -34.92135,0 -4.912638,0.0125 c -16.9942503,0 -30.822337,13.83238 -30.822337,31.03238 l 0,114.02687 38.569687,0 0,-65.67375 32.061388,0 0,-35.61762 -31.9925,0 z"
       style="fill:#ed1c24;fill-opacity:1;fill-rule:nonzero;stroke:none"
       id="path112" />
    <path
       inkscape:connector-curvature="0"
       d="m 357.11023,580.30067 c -6.32569,0.86663 -8.63892,-2.69849 -8.63892,-7.3715 l 0,-23.48537 c 0,-3.86125 1.89217,-7.7115 8.42118,-8.666 6.53022,-0.94325 13.34579,-1.744 19.51065,-2.54463 6.16379,-0.80087 6.7588,3.64163 6.7588,6.26338 -4.07379,0.64712 -21.84776,2.83025 -23.8755,3.12625 -2.03408,0.28512 -3.7391,1.459 -3.7391,3.642 l 0,18.52713 c 0,1.95249 0.82459,3.43337 2.93969,3.22499 1.41952,-0.1425 51.04935,-7.06425 57.60467,-7.97474 l 0,-28.15838 c 0,-16.22375 -13.23982,-29.49663 -29.4191,-29.49663 l -42.02781,0 c -16.17836,0 -29.41254,13.27288 -29.41254,29.49663 l 0,42.15525 c 0,16.22375 13.23418,29.50775 29.41254,29.50775 l 42.02781,0 c 16.17928,0 29.4191,-13.284 29.4191,-29.50775 l 0,-6.66925 -58.98147,7.93088 z"
       style="fill:#ed1c24;fill-opacity:1;fill-rule:nonzero;stroke:none"
       id="path114" />
  </g>
</svg>
