<?xml version="1.0" encoding="UTF-8" standalone="no"?>
<!-- Created with Inkscape (http://www.inkscape.org/) -->

<svg
   xmlns:dc="http://purl.org/dc/elements/1.1/"
   xmlns:cc="http://creativecommons.org/ns#"
   xmlns:rdf="http://www.w3.org/1999/02/22-rdf-syntax-ns#"
   xmlns:svg="http://www.w3.org/2000/svg"
   xmlns="http://www.w3.org/2000/svg"
   xmlns:sodipodi="http://sodipodi.sourceforge.net/DTD/sodipodi-0.dtd"
   xmlns:inkscape="http://www.inkscape.org/namespaces/inkscape"
   width="110.72537mm"
   height="46.269062mm"
   viewBox="0 0 110.72537 46.269062"
   version="1.1"
   id="svg8"
   inkscape:version="0.92.2 5c3e80d, 2017-08-06"
   sodipodi:docname="drawing-1.svg">
  <defs
     id="defs2" />
  <sodipodi:namedview
     id="base"
     pagecolor="#ffffff"
     bordercolor="#666666"
     borderopacity="1.0"
     inkscape:pageopacity="0.0"
     inkscape:pageshadow="2"
     inkscape:zoom="1.4"
     inkscape:cx="301.23636"
     inkscape:cy="56.66842"
     inkscape:document-units="mm"
     inkscape:current-layer="layer1"
     showgrid="false"
     fit-margin-top="0"
     fit-margin-left="0"
     fit-margin-right="0"
     fit-margin-bottom="0"
     inkscape:window-width="1440"
     inkscape:window-height="759"
     inkscape:window-x="0"
     inkscape:window-y="1"
     inkscape:window-maximized="1" />
  <metadata
     id="metadata5">
    <rdf:RDF>
      <cc:Work
         rdf:about="">
        <dc:format>image/svg+xml</dc:format>
        <dc:type
           rdf:resource="http://purl.org/dc/dcmitype/StillImage" />
        <dc:title />
      </cc:Work>
    </rdf:RDF>
  </metadata>
  <g
     inkscape:label="Layer 1"
     inkscape:groupmode="layer"
     id="layer1"
     transform="translate(33.946941,-160.53862)">
    <g
       id="g834">
      <path
         inkscape:connector-curvature="0"
         id="path206"
         d="m -33.946483,205.71893 c -0.03007,-1.75602 1.427596,-9.23164 2.463662,-12.63488 0.525812,-1.72717 1.362581,-4.04889 1.859487,-5.15938 0.496903,-1.11049 1.211672,-2.75988 1.588375,-3.66533 0.376701,-0.90544 1.026713,-2.1556 1.444469,-2.77812 0.417754,-0.62253 1.16068,-1.78671 1.650945,-2.58707 0.490265,-0.80037 1.547339,-2.19207 2.349053,-3.09268 0.801711,-0.90061 2.034291,-2.2996 2.739067,-3.10888 3.895458,-4.47304 12.4474445,-9.14125 19.87461052,-10.8488 4.24082098,-0.97499 7.70027798,-1.31261 13.37210648,-1.30505 8.956564,0.0119 12.194368,0.40269 26.19375,3.16117 4.077938,0.80353 6.884506,1.28275 9.921876,1.69418 1.164166,0.15769 3.505152,0.48041 5.202189,0.71714 4.560777,0.63622 12.413586,0.34287 17.894711,-0.66848 2.225796,-0.4107 4.08337,-0.67754 4.127942,-0.59298 0.219117,0.4157 -0.448339,5.48911 -1.029671,7.82667 -1.826181,7.34314 -4.990727,12.95 -10.309167,18.26549 -4.74785,4.74522 -8.953829,7.37097 -14.764176,9.21712 -4.691865,1.49078 -8.259245,2.02008 -13.537373,2.0086 -8.850587,-0.0193 -15.077371,-0.77426 -26.081331,-3.16238 -12.6867855,-2.75333 -18.9759235,-3.70226 -24.55557,-3.70506 -5.88977,-0.003 -9.224468,0.72156 -12.981109,2.82032 -2.968242,1.6583 -6.068455,5.04983 -7.044973,7.70696 l -0.360231,0.98019 -0.01865,-1.08875 z"
         style="fill:#0f317f;fill-opacity:1;stroke:none;stroke-width:0.565;stroke-miterlimit:4;stroke-dasharray:none;stroke-opacity:1" />
      <path
         inkscape:connector-curvature="0"
         id="path947"
         d="m -15.045957,188.3751 c -0.556691,-0.11296 -0.957722,-0.35854 -1.384087,-0.84767 -0.175414,-0.20123 -0.339032,-0.52678 -0.401054,-0.79793 -0.02081,-0.0908 -0.05715,-0.19973 -0.08071,-0.24175 -0.02751,-0.049 -0.04595,-0.22933 -0.05144,-0.50315 -0.0047,-0.23473 -0.01569,-0.53377 -0.02436,-0.66455 -0.04228,-0.63496 -0.105011,-2.00884 -0.128654,-2.81801 -0.01451,-0.49581 -0.03862,-1.1651 -0.05361,-1.48729 -0.06829,-1.46656 -0.08022,-1.77319 -0.09726,-2.50034 -0.02055,-0.87594 -0.155974,-3.61 -0.213386,-4.30719 -0.07679,-0.9326 -0.184999,-1.51731 -0.377605,-2.04052 -0.06486,-0.17623 -0.07732,-0.24357 -0.0479,-0.25936 0.08474,-0.0452 0.653695,-0.0515 3.300847,-0.0354 1.111031,0.006 2.936217,0.0172 4.05599,0.0227 1.1197717,0.005 2.3687347,0.0287 2.7754877,0.0509 l 0.739511,0.041 0.00148,0.1346 c 0.00181,0.16047 -0.1175633,0.52524 -0.2600189,0.79456 -0.2598778,0.4913 -0.7020851,0.89845 -1.2342309,1.13639 -0.803902,0.35947 -1.1793159,0.39424 -3.9441889,0.36531 -0.685531,-0.007 -1.307078,-0.009 -1.381221,-0.003 l -0.134795,0.01 -0.0083,0.13693 c -0.0045,0.0755 0.01245,0.61155 0.0379,1.19162 0.02542,0.58006 0.03925,1.1694 0.0307,1.30966 -0.0084,0.14026 -0.0099,0.26125 -0.0032,0.26891 0.01578,0.018 0.783044,0.0307 2.197677,0.0374 0.617885,0.003 1.189888,0.018 1.271091,0.0344 0.210535,0.0421 0.24514,0.11362 0.185163,0.38271 -0.02532,0.11379 -0.07717,0.27926 -0.115197,0.3677 -0.03801,0.0885 -0.07951,0.19694 -0.09222,0.24114 -0.03541,0.12283 -0.352219,0.53245 -0.563707,0.72873 -0.533398,0.49509 -1.118807,0.69418 -2.221164,0.7554 -0.496827,0.0277 -0.526408,0.0349 -0.509956,0.12424 0.0069,0.0371 0.01875,0.33077 0.02647,0.65251 0.0077,0.32175 0.03887,1.09802 0.06921,1.72506 0.03036,0.62703 0.07215,1.69522 0.09295,2.37377 0.02078,0.67855 0.05391,1.5331 0.07361,1.89898 0.01971,0.3659 0.04442,0.89877 0.0549,1.18416 0.02102,0.57184 0.02972,0.54305 -0.179527,0.5953 -0.141835,0.0356 -1.151677,-0.006 -1.405156,-0.0568 z m 41.785342,1.16154 c 0.0018,-0.0296 0.1456,-0.091 0.204145,-0.0872 0.02081,10e-4 -0.01021,0.0279 -0.06897,0.059 -0.118756,0.0628 -0.137491,0.0668 -0.135149,0.0284 z M -5.0992138,187.1271 c -0.2391493,-0.0416 -0.8696927,-0.19524 -1.0902316,-0.26572 -0.3673331,-0.11736 -0.9646353,-0.41981 -1.3617722,-0.68952 -0.3006919,-0.20417 -0.4270179,-0.31707 -0.727845,-0.65043 -0.366974,-0.40666 -0.6307234,-0.74605 -0.7271937,-0.93573 -0.028787,-0.0566 -0.1132545,-0.22025 -0.1876791,-0.36361 -0.197797,-0.38101 -0.3858008,-0.9061 -0.4875947,-1.36175 -0.090431,-0.40482 -0.2326957,-1.34396 -0.2497735,-1.64893 -0.015862,-0.28354 0.074263,-1.58397 0.1313761,-1.89536 0.077159,-0.42054 0.3747783,-1.32793 0.543266,-1.65623 0.1759234,-0.34276 0.5267865,-0.86252 0.7771214,-1.15113 0.66245,-0.76376 1.6854982,-1.32622 2.7905297,-1.53415 0.6683846,-0.12578 0.8681182,-0.13649 1.6355771,-0.0878 1.179776,0.0749 1.7026709,0.19581 2.4768411,0.57246 1.01646668,0.49455 1.73745578,1.15666 2.24781971,2.06423 0.49238679,0.87559 0.73124249,1.6772 0.83846619,2.8139 0.035536,0.37694 0.033978,0.57622 -0.010496,1.30972 -0.055283,0.91126 -0.1165835,1.27882 -0.3182175,1.90644 -0.1630951,0.50769 -0.65584678,1.39637 -1.00766551,1.81728 -0.89265988,1.06798 -2.36245959,1.75211 -3.92576959,1.82727 -0.2893773,0.014 -1.1058594,-0.0292 -1.3467549,-0.0709 z m 1.5016683,-1.84418 c 0.09638,-0.0143 0.2968405,-0.0753 0.4454581,-0.13547 0.6220673,-0.25179 1.2225264,-0.99958 1.4716456,-1.83271 0.1151658,-0.38514 0.1775577,-0.79871 0.2162147,-1.43315 0.1252539,-2.05567 -0.3172478,-3.58813 -1.2773457,-4.42359 -0.6750559,-0.58741 -1.8350448,-0.74686 -2.5522566,-0.35079 -0.2669312,0.14741 -0.5955163,0.41306 -0.6635707,0.53648 -0.034961,0.0633 -0.113457,0.17704 -0.1744537,0.25259 -0.1811733,0.22438 -0.2799807,0.41956 -0.4353595,0.85999 l -0.1470908,0.41692 -0.076198,1.25836 -0.076197,1.25835 0.1021016,0.51742 c 0.093665,0.47468 0.2098702,0.91725 0.3270107,1.24534 0.081165,0.22738 0.3851812,0.74389 0.554973,0.94289 0.2925425,0.3429 0.8999162,0.75989 1.2455952,0.85518 0.1730103,0.0477 0.80435,0.0673 1.0395244,0.0322 z m 6.1853843,1.60434 c 0.00236,-0.0408 5.85e-5,-0.23078 -0.00507,-0.42211 -0.00514,-0.19136 -0.021303,-0.86015 -0.035859,-1.48622 -0.0146,-0.62608 -0.045963,-1.62258 -0.069682,-2.21449 -0.023717,-0.5919 -0.055162,-1.59554 -0.069892,-2.23028 -0.01475,-0.63478 -0.038413,-1.53138 -0.052645,-1.99245 -0.014204,-0.46107 -0.038929,-1.32929 -0.054889,-1.92942 -0.015956,-0.6001 -0.031363,-1.15718 -0.034224,-1.23796 -0.00727,-0.20591 0.031433,-0.23637 0.3293645,-0.25905 0.4058934,-0.0309 1.3878372,0.007 1.6537447,0.0647 0.4982648,0.10721 0.9132406,0.43885 1.6116349,1.28821 0.4198784,0.51065 1.5474499,1.94804 2.1823747,2.78201 0.2490148,0.32709 0.5985293,0.77464 0.7767019,0.99458 0.3536938,0.43659 0.8716335,1.09662 1.2964945,1.65216 0.149274,0.19518 0.292209,0.35617 0.317633,0.35772 0.05844,0.003 0.0625,-0.062 0.03801,-0.61794 -0.02794,-0.63436 -0.05396,-1.82108 -0.06266,-2.85681 -0.01258,-1.49812 -0.01461,-1.41325 0.03446,-1.42871 0.06282,-0.0199 0.199938,0.0688 0.337858,0.21868 0.172738,0.18755 0.449936,0.39736 0.632222,0.47851 0.0875,0.039 0.28779,0.10271 0.445112,0.14162 0.15731,0.0389 0.292656,0.0832 0.30078,0.0982 0.01875,0.035 0.03825,0.70293 0.06599,2.26 0.01205,0.67802 0.03352,1.73078 0.04764,2.33945 0.01415,0.60869 0.02914,1.41239 0.03336,1.78601 0.0042,0.37364 0.01812,0.98359 0.03091,1.35545 0.02683,0.78052 0.01525,0.83645 -0.180564,0.87658 -0.212413,0.0435 -0.952164,0.0355 -1.264896,-0.014 -0.668223,-0.10513 -1.0198839,-0.34833 -1.874619,-1.29637 -0.2989987,-0.33169 -0.6632786,-0.7524 -0.8095069,-0.93499 -0.1462223,-0.18255 -0.7040511,-0.87016 -1.2396151,-1.52797 -0.5355648,-0.65781 -1.1421255,-1.4113 -1.3479252,-1.67438 -0.6376998,-0.81524 -1.1633544,-1.45745 -1.2393977,-1.51416 -0.0666,-0.0496 -0.074719,-0.05 -0.095714,-0.003 -0.027079,0.0595 -0.020309,0.69595 0.021961,2.06729 0.052196,1.69342 0.1138397,4.43178 0.1049742,4.66299 l -0.00815,0.21981 -0.112327,0.0299 c -0.1083279,0.0287 -0.6099881,0.0445 -1.3524064,0.0424 l -0.3551602,-6.9e-4 0.00428,-0.0742 z m 11.6825502,0.007 c 7.97e-4,-0.0131 -0.0088,-0.43858 -0.02131,-0.9455 -0.02535,-1.02665 -0.07677,-3.77055 -0.111734,-5.96332 -0.01265,-0.7909 -0.03042,-1.65873 -0.03957,-1.92844 -0.0092,-0.26975 -0.01085,-0.58955 -0.0038,-0.71068 0.007,-0.12113 6.35e-4,-0.24231 -0.01425,-0.26925 -0.03115,-0.0563 -0.442608,-0.0817 -1.211663,-0.0741 -0.665593,0.007 -1.262357,-0.0366 -1.476112,-0.10649 -0.215222,-0.0702 -0.443954,-0.19848 -0.59382,-0.33279 -0.151717,-0.13594 -0.334098,-0.5294 -0.400283,-0.86352 -0.06839,-0.34525 -0.06854,-0.41442 -9.35e-4,-0.4685 0.103646,-0.0829 0.261817,-0.0861 3.167124,-0.064 0.772435,0.006 2.625973,0.0182 4.118974,0.0252 1.492988,0.009 2.754653,0.0279 2.803675,0.044 0.08542,0.0277 0.088,0.0347 0.06147,0.16766 -0.07231,0.36215 -0.359665,0.82097 -0.703811,1.12375 -0.47334,0.41645 -0.837945,0.49775 -2.154428,0.48037 -0.674063,-0.009 -0.701665,8e-4 -0.716644,0.24638 -0.01305,0.21426 0.07261,6.47452 0.107278,7.83931 0.01698,0.66781 -0.02901,1.00508 -0.169667,1.24525 -0.240133,0.40996 -0.555533,0.55151 -1.300288,0.5836 -0.443111,0.019 -1.341912,-1.9e-4 -1.340159,-0.0292 z m 3.875427,0.006 c -0.02989,-0.008 -0.05331,-0.0318 -0.05219,-0.0502 0.0012,-0.0186 0.257887,-0.85074 0.570579,-1.84953 1.581575,-5.05175 2.325978,-7.43127 2.632707,-8.41565 0.185873,-0.59649 0.359031,-1.12849 0.384802,-1.18219 0.08591,-0.17897 0.190163,-0.19978 0.864163,-0.17254 0.910556,0.0368 1.245834,0.13272 1.469553,0.42045 0.146059,0.18783 0.294536,0.47695 0.367493,0.71557 0.0318,0.1041 0.07488,0.2116 0.09568,0.23892 0.02081,0.0273 0.06981,0.17239 0.108923,0.32239 0.03906,0.14999 0.119439,0.40354 0.178515,0.56342 0.05912,0.15991 0.201976,0.59487 0.317533,0.96662 0.115566,0.37172 0.405954,1.27035 0.645314,1.99696 0.623165,1.89165 0.987595,3.01805 1.250505,3.86518 0.126356,0.40714 0.354941,1.11609 0.507968,1.57545 0.153028,0.45937 0.269739,0.8539 0.259352,0.87669 -0.04395,0.0965 -0.414916,0.12618 -1.414173,0.11338 -0.920782,-0.0119 -1.151056,-0.0781 -1.496128,-0.43575 -0.204396,-0.21135 -0.34045,-0.46047 -0.490019,-0.89721 -0.312882,-0.91364 -0.398754,-1.14361 -0.471893,-1.26387 l -0.07978,-0.13116 -0.422994,-0.0177 c -0.438816,-0.0177 -1.792399,-0.003 -2.360863,0.0254 -0.272163,0.0136 -0.332134,0.0265 -0.363558,0.0775 -0.02067,0.0336 -0.09886,0.29323 -0.17368,0.57698 -0.235815,0.89422 -0.495031,1.78414 -0.554239,1.90277 -0.08943,0.17919 -0.149491,0.19646 -0.693421,0.19946 -0.694878,0.004 -1.017597,-0.003 -1.080118,-0.0214 z m 4.028885,-4.32579 c 1.291512,-0.004 1.281655,-9.9e-4 1.153719,-0.2947 -0.03094,-0.071 -0.107816,-0.306 -0.170887,-0.52224 -0.06305,-0.21627 -0.248281,-0.81341 -0.411606,-1.32697 -0.163324,-0.51357 -0.331782,-1.05667 -0.374355,-1.20688 -0.153054,-0.54009 -0.150712,-0.54454 -0.635778,1.20849 -0.113417,0.40986 -0.294129,1.03704 -0.401585,1.39368 -0.107438,0.35663 -0.197037,0.67576 -0.199073,0.70917 -0.0033,0.0541 0.01271,0.0597 0.146861,0.0511 0.08281,-0.005 0.484529,-0.0105 0.892709,-0.0117 z m 6.243332,4.28528 c 0.0052,-0.0842 -0.01151,-5.37937 -0.02249,-7.1585 -0.0072,-1.16398 -0.0155,-2.54055 -0.01846,-3.05906 -0.003,-0.51853 -0.0091,-1.01621 -0.01378,-1.10597 -0.01233,-0.24107 0.02604,-0.27097 0.369333,-0.28809 0.155799,-0.008 0.622689,0.0119 1.037552,0.0435 0.719035,0.0549 0.760675,0.0617 0.891327,0.14035 0.315119,0.18996 0.929246,0.85876 1.51941,1.65472 0.163235,0.22017 0.474925,0.63135 0.692634,0.91382 0.47413,0.6151 1.437422,1.89194 1.888507,2.50322 0.302975,0.41059 0.554917,0.74098 1.086795,1.42526 0.117951,0.15174 0.226044,0.2766 0.240213,0.27746 0.01418,8.7e-4 0.03523,-0.0194 0.04692,-0.0449 0.03032,-0.0666 0.04142,-2.20461 0.02479,-4.76198 -0.0092,-1.40882 0.0077,-1.99097 0.05971,-2.06295 0.04231,-0.0586 0.212356,-0.0782 0.830852,-0.0951 0.304418,-0.008 0.614148,-0.017 0.688284,-0.0191 0.117143,-0.003 0.135991,0.005 0.144071,0.0639 0.01037,0.0759 0.01036,-0.0248 0.005,2.54616 -0.0045,2.23421 -0.0047,3.09607 -0.0012,4.40464 0.0044,1.65919 -0.01358,3.41583 -0.04069,3.95472 -0.0252,0.49914 -0.0276,0.51555 -0.100576,0.56766 -0.09593,0.069 -0.376668,0.0833 -0.941853,0.0485 -0.50891,-0.0314 -0.712606,-0.0864 -1.087985,-0.29427 -0.487052,-0.26965 -1.012362,-0.82697 -1.903828,-2.0199 -0.208521,-0.27902 -0.549247,-0.72289 -0.757179,-0.98635 -0.207927,-0.26346 -0.555654,-0.71239 -0.77272,-0.99761 -0.217066,-0.28522 -0.671428,-0.87498 -1.009692,-1.31058 -0.338271,-0.43558 -0.712161,-0.92176 -0.830856,-1.08037 -0.118714,-0.15861 -0.22834,-0.28166 -0.243618,-0.27346 -0.06728,0.0361 -0.0827,1.29496 -0.05867,4.71397 0.01358,1.91297 0.01003,2.12227 -0.03723,2.19895 -0.04863,0.0789 -0.238096,0.10066 -1.037791,0.11907 -0.66525,0.0153 -0.648711,0.0157 -0.646667,-0.0182 z m 10.575804,-0.16999 c -0.017,-0.18152 -0.01721,-1.49378 -2.56e-4,-2.3801 0.0081,-0.42498 0.01152,-0.83682 0.0077,-0.9152 -0.0042,-0.0783 -0.0053,-0.52606 -0.0027,-0.9948 0.0078,-1.51503 0.01333,-5.12617 0.0088,-5.84082 -0.0053,-0.81369 0.01015,-1.13373 0.05817,-1.21159 0.06215,-0.10082 0.301281,-0.11078 2.469369,-0.10276 0.928892,0.003 2.115236,0.005 2.636329,0.003 0.52109,-0.002 1.15762,-3.8e-4 1.414501,0.004 l 0.46706,0.006 -0.03056,0.16877 c -0.08111,0.44808 -0.304868,0.91472 -0.563096,1.1744 -0.142263,0.14303 -0.520739,0.32742 -0.810284,0.39475 -0.164931,0.0386 -0.640732,0.0543 -1.850906,0.062 -0.770376,0.005 -0.802944,0.009 -0.832324,0.10158 -0.01369,0.0432 -0.0234,0.32139 -0.02156,0.61817 0.0018,0.29678 -0.0013,0.8924 -0.0068,1.32362 l -0.01025,0.78408 0.412254,0.004 c 0.226743,0.003 0.59002,0.001 0.807271,-4.8e-4 0.63657,-0.009 1.89818,-0.008 2.058099,10e-4 l 0.147349,0.009 -0.126738,0.31214 c -0.286762,0.70628 -0.586231,1.05669 -1.080484,1.26431 -0.340129,0.14288 -0.555576,0.17211 -1.321973,0.17938 -0.36474,0.004 -0.700308,0.0206 -0.745706,0.038 -0.150212,0.0576 -0.16641,0.16144 -0.166903,1.06898 -2.22e-4,0.45482 -0.0045,1.14619 -0.0094,1.53639 -0.0049,0.39015 -0.0053,0.71356 -8.48e-4,0.71868 0.01034,0.0117 1.338181,0.0122 2.49701,0.002 1.037019,-0.01 1.468802,0.002 1.521054,0.0401 0.05425,0.0399 0.02637,0.3871 -0.04733,0.58935 -0.215256,0.59072 -0.624981,0.94369 -1.230184,1.05979 -0.381875,0.0733 -1.517799,0.0959 -5.314583,0.1058 l -0.320224,9.9e-4 -0.01155,-0.12317 z m 25.837188,1.36932 c -0.432359,-0.09 -0.751251,-0.25771 -1.065546,-0.55995 -0.167975,-0.16152 -0.316455,-0.35731 -0.313072,-0.41283 9.18e-4,-0.0151 -0.03149,-0.0768 -0.07208,-0.13742 -0.108298,-0.16148 -0.383155,-0.93363 -0.527629,-1.4823 -0.06925,-0.26297 -0.166121,-0.60989 -0.215262,-0.77091 -0.04916,-0.161 -0.114083,-0.41168 -0.144335,-0.55707 l -0.05502,-0.26432 -0.09813,0.01 c -0.125424,0.0124 -0.817107,0.0171 -1.898067,0.0125 -1.00313,-0.004 -1.460128,0.008 -1.626765,0.0416 -0.159161,0.0325 -0.16104,0.0371 -0.587185,1.38607 -0.191,0.60461 -0.372456,1.15019 -0.403255,1.21242 -0.0447,0.0903 -0.08092,0.11825 -0.179472,0.13845 -0.162333,0.0332 -1.041755,0.0601 -1.480112,0.0451 -0.293409,-0.0112 -0.345163,-0.019 -0.337236,-0.0586 0.0054,-0.0258 0.157797,-0.48531 0.339219,-1.02129 0.537753,-1.58873 2.591194,-7.7855 3.153726,-9.51714 0.664831,-2.04651 0.936286,-2.8179 1.013473,-2.87995 0.110408,-0.0888 0.414044,-0.0971 0.919281,-0.0253 0.509259,0.0724 0.667254,0.14431 0.870932,0.39637 0.07924,0.0981 0.181883,0.2552 0.228094,0.34916 0.100897,0.2052 0.310341,0.83137 0.498602,1.49071 0.0757,0.26509 0.205642,0.69928 0.288755,0.96483 0.0831,0.26556 0.23301,0.7649 0.333093,1.10964 0.309625,1.06644 0.531207,1.8066 0.582528,1.94577 0.04774,0.12949 0.119051,0.38843 0.150348,0.54594 0.01395,0.0704 0.05909,0.21516 0.100223,0.32185 0.04118,0.10669 0.106453,0.31672 0.145113,0.46668 0.03868,0.14997 0.126856,0.44663 0.195985,0.65925 0.06916,0.21257 0.157638,0.50926 0.196665,0.65927 0.03898,0.14997 0.118902,0.4177 0.177489,0.59493 0.0586,0.17726 0.155623,0.50286 0.215626,0.7236 0.09965,0.36655 0.192375,0.68371 0.408828,1.3984 0.04284,0.14154 0.101882,0.34406 0.131143,0.45005 0.0676,0.24487 0.06848,0.24757 0.09931,0.306 0.01419,0.0269 0.05437,0.15724 0.0893,0.2896 0.05378,0.20395 0.241179,0.8498 0.503567,1.73574 0.118047,0.39861 0.07108,0.46211 -0.370503,0.50114 -0.322425,0.0285 -0.972656,-0.005 -1.267638,-0.0684 z m -4.129201,-5.83722 c 0.538443,-0.001 1.034179,-0.008 1.101621,-0.0146 0.120834,-0.0116 0.12245,-0.0133 0.111181,-0.12747 -0.01116,-0.11258 -0.383414,-1.43003 -0.568718,-2.01261 -0.05068,-0.15938 -0.134726,-0.46288 -0.186728,-0.67445 -0.12427,-0.50556 -0.473409,-1.68521 -0.515996,-1.74337 -0.06324,-0.0864 -0.122647,0.0247 -0.266724,0.49868 -0.07725,0.25423 -0.376228,1.22221 -0.664352,2.15112 -0.288123,0.92891 -0.537105,1.74368 -0.553299,1.81059 l -0.02943,0.12165 0.296718,-0.003 c 0.163197,-0.001 0.73728,-0.005 1.275733,-0.006 z m -13.747311,4.39632 c -0.01984,-0.31899 -0.02036,-0.56514 -0.0041,-2.0605 0.0095,-0.86775 0.02196,-2.34469 0.02776,-3.28212 0.0059,-0.93741 0.01485,-2.03092 0.02011,-2.43005 0.0052,-0.39908 0.0096,-1.18028 0.0098,-1.73602 1.38e-4,-0.55571 0.0108,-1.1833 0.02357,-1.39463 0.02107,-0.34584 0.0296,-0.3871 0.08531,-0.41271 0.09765,-0.0448 0.549746,-0.056 2.058399,-0.0506 2.66201,0.009 3.351491,0.0488 4.0276,0.22959 0.266378,0.0712 0.41076,0.13508 0.787032,0.34826 0.26518,0.15025 0.563429,0.34868 0.702528,0.46743 0.726906,0.62051 1.291623,1.65147 1.513146,2.76241 0.137374,0.68894 0.192614,1.97383 0.112959,2.62761 -0.07115,0.58376 -0.310309,1.47122 -0.541497,2.00912 -0.11258,0.26193 -0.431995,0.82253 -0.605513,1.0627 -0.497189,0.68815 -1.211771,1.24869 -2.014513,1.58018 -0.706211,0.29168 -1.102916,0.3589 -2.32903,0.39482 -0.664695,0.0194 -3.547898,0.0385 -3.770716,0.0249 -0.08761,-0.005 -0.09518,-0.0148 -0.102905,-0.14045 z m 3.925595,-1.66491 c 0.375165,-0.0325 0.851873,-0.14226 1.135559,-0.26133 0.899942,-0.37773 1.470689,-1.28957 1.710902,-2.7334 0.07441,-0.44743 0.10924,-1.45007 0.06456,-1.86195 -0.168643,-1.55572 -0.64719,-2.34177 -1.737414,-2.85378 -0.146067,-0.0686 -0.249299,-0.0864 -0.76556,-0.13169 -0.743236,-0.0652 -1.366291,-0.0562 -1.432982,0.0209 -0.03689,0.0427 -0.04935,0.17267 -0.06236,0.65223 -0.03858,1.41828 -0.07143,3.95252 -0.06894,5.31617 7.23e-4,0.40815 -0.01404,0.99557 -0.03284,1.30538 l -0.03432,0.56329 0.441431,0.007 c 0.242786,0.004 0.5946,-0.006 0.781807,-0.0226 z"
         style="fill:#ffffff;stroke:none;stroke-width:0.33199999;stroke-miterlimit:4;stroke-dasharray:none;stroke-opacity:1" />
      <path
         inkscape:connector-curvature="0"
         id="path1160"
         d="m 39.202198,193.01904 c 0.009,-1.07572 0.01172,-2.14923 0.0063,-2.38554 -0.0098,-0.42397 -0.01217,-0.43004 -0.177379,-0.45914 -0.234935,-0.0412 -0.473989,-0.27725 -0.399085,-0.39386 0.07747,-0.12064 0.342711,-0.16674 0.873326,-0.15185 l 0.442616,0.0124 -0.02494,0.41713 c -0.01365,0.22938 -0.02273,1.2024 -0.01998,2.16225 0.0066,2.33547 -0.0026,2.5629 -0.107067,2.64953 -0.04682,0.0389 -0.203127,0.0782 -0.347451,0.0878 l -0.2624,0.0172 0.01612,-1.95589 z m 2.259683,1.82701 c -0.261365,-0.1491 -0.575352,-0.5139 -0.673574,-0.78258 -0.05125,-0.14019 -0.07133,-0.37795 -0.05501,-0.65139 0.03073,-0.51501 0.173431,-0.82676 0.515223,-1.12513 l 0.230992,-0.20164 -0.164873,-0.16619 c -0.199014,-0.20061 -0.376515,-0.69131 -0.357914,-0.98946 0.03422,-0.54814 0.35254,-1.032 0.823644,-1.25196 0.624617,-0.29161 1.34921,-0.11161 1.650478,0.41002 0.304138,0.5266 0.235394,1.29295 -0.151884,1.69329 l -0.206178,0.21315 0.254936,0.21569 c 0.151182,0.12788 0.314336,0.34263 0.400862,0.52759 0.136493,0.29173 0.142131,0.3425 0.08728,0.78557 -0.04791,0.3866 -0.0931,0.52683 -0.245979,0.76269 -0.204656,0.31574 -0.605897,0.59643 -0.960649,0.67208 -0.335049,0.0714 -0.927283,0.0137 -1.147284,-0.11185 z m 1.321425,-0.57653 c 0.291007,-0.24156 0.398302,-0.58591 0.330175,-1.05964 -0.0281,-0.19536 -0.08558,-0.39419 -0.127725,-0.44181 -0.04212,-0.0475 -0.07554,-0.10578 -0.07412,-0.12901 0.0015,-0.0234 -0.09366,-0.1045 -0.211325,-0.18041 -0.605456,-0.39057 -1.24778,0.0426 -1.273787,0.85887 -0.023,0.72179 0.243749,1.05803 0.876707,1.10504 0.230323,0.017 0.302912,-0.006 0.480018,-0.15304 z m -0.08646,-2.61585 c 0.176545,-0.1394 0.198031,-0.18814 0.240019,-0.54448 0.03824,-0.32422 0.02721,-0.42831 -0.06382,-0.60659 -0.138613,-0.27141 -0.32153,-0.4091 -0.562966,-0.42382 -0.373045,-0.0228 -0.632868,0.28627 -0.663506,0.78909 -0.04461,0.73218 0.552414,1.17886 1.050232,0.7858 z m 2.841295,3.25373 c -0.684535,-0.18101 -1.113049,-0.78794 -1.069942,-1.51542 0.02945,-0.49658 0.145536,-0.74854 0.502276,-1.08966 0.302304,-0.28906 0.311218,-0.30546 0.197924,-0.36444 -0.06523,-0.034 -0.185221,-0.1706 -0.266603,-0.30364 -0.119964,-0.19614 -0.149159,-0.32399 -0.154308,-0.67596 -0.0054,-0.37335 0.01359,-0.46955 0.136174,-0.6878 0.179992,-0.32051 0.618187,-0.6645 0.927836,-0.72835 0.377124,-0.0779 0.869255,0.0214 1.127977,0.22824 0.577891,0.4611 0.595208,1.51375 0.03411,2.07307 -0.124609,0.1242 -0.132283,0.22768 -0.01771,0.23466 0.03078,0.001 0.128952,0.0647 0.218193,0.1394 0.498472,0.41772 0.566262,1.42424 0.138481,2.05626 -0.351228,0.51889 -1.141538,0.80107 -1.774671,0.63363 z m 0.905449,-0.59621 c 0.280565,-0.16035 0.394385,-0.3946 0.423718,-0.87208 0.02136,-0.34792 0.0059,-0.46413 -0.0785,-0.5859 -0.05786,-0.0835 -0.103701,-0.17589 -0.101911,-0.20526 0.01108,-0.18171 -0.515095,-0.41866 -0.797148,-0.35897 -0.384059,0.0812 -0.591332,0.3242 -0.686403,0.80443 -0.13836,0.69889 0.260631,1.30135 0.863594,1.30405 0.123103,0.001 0.292652,-0.0382 0.376653,-0.0862 z m 0.0057,-2.68228 c 0.339684,-0.2732 0.353533,-0.98761 0.02706,-1.39342 -0.251258,-0.31226 -0.738546,-0.22925 -0.952868,0.16239 -0.154119,0.28161 -0.139401,0.80323 0.03027,1.0752 0.187474,0.30044 0.621795,0.37599 0.895524,0.15584 z m 2.092308,3.09613 c -0.0106,-0.0975 -0.0057,-0.66565 0.01085,-1.26246 0.01661,-0.59681 0.02906,-1.2139 0.02774,-1.37129 -0.0013,-0.15742 0.0023,-0.66562 0.0083,-1.12938 l 0.01064,-0.84317 -0.155637,-0.009 c -0.187944,-0.0116 -0.443944,-0.22558 -0.435494,-0.36429 0.0093,-0.15273 0.219239,-0.20895 0.790742,-0.21182 l 0.520571,-0.003 -0.0072,0.78757 c -0.0039,0.43317 -0.01037,1.23791 -0.01429,1.7883 -0.0038,0.55038 -0.0136,1.37591 -0.0216,1.83453 -0.0164,0.93814 0.01029,0.88548 -0.475208,0.93631 -0.234353,0.0244 -0.2406,0.0209 -0.259436,-0.15221 z m -22.051495,-2.36361 c -0.0393,-1.02703 -0.0054,-2.4589 0.05991,-2.52843 0.03757,-0.04 0.229081,-0.0802 0.425676,-0.0892 1.004406,-0.0461 1.470867,0.5239 1.386837,1.69458 -0.03445,0.47501 -0.0529,0.54008 -0.218983,0.75751 -0.316449,0.4143 -0.717044,0.57912 -1.319842,0.543 l -0.319868,-0.0191 z m 0.988766,-0.17951 c 0.433975,-0.3222 0.476557,-1.33329 0.07521,-1.78757 -0.129881,-0.14703 -0.220559,-0.20013 -0.331433,-0.19412 -0.151208,0.008 -0.152754,0.0121 -0.167901,0.43646 -0.0088,0.23543 -0.01524,0.70486 -0.0152,1.04312 2.4e-4,0.59489 0.0045,0.61526 0.132762,0.62307 0.07302,0.003 0.210852,-0.0501 0.306445,-0.12096 z m 1.63228,0.55525 c -0.0154,-0.004 -0.0086,-2.53492 0.0076,-2.81411 0.0095,-0.16439 0.230502,-0.21433 0.938304,-0.21207 l 0.553784,0.002 -0.01487,0.17162 c -0.01938,0.21116 -0.108288,0.25531 -0.564917,0.27898 l -0.355873,0.0184 -0.01524,0.26342 c -0.02932,0.49942 -0.01255,0.52102 0.417798,0.54723 0.370068,0.0226 0.379614,0.0261 0.364877,0.16684 -0.02099,0.20304 -0.09482,0.24826 -0.434567,0.26767 -0.164262,0.009 -0.31285,0.0371 -0.330185,0.0618 -0.01729,0.0245 -0.02445,0.21551 -0.01595,0.42436 l 0.01567,0.37972 0.478557,-0.0106 0.47856,-0.0106 -0.01062,0.17437 c -0.0058,0.0959 -0.04392,0.19268 -0.08465,0.21511 -0.05243,0.0289 -1.34701,0.098 -1.427935,0.0763 z m 2.400227,-0.053 c -0.08393,-0.0323 -0.187706,-0.0982 -0.230632,-0.1467 -0.06836,-0.0772 -0.06661,-0.10253 0.01454,-0.20415 0.153067,-0.19248 0.291092,-0.22853 0.467791,-0.12224 0.207388,0.12475 0.272947,0.12404 0.407995,-0.004 0.179651,-0.17072 0.123698,-0.41337 -0.164045,-0.71187 -0.708833,-0.73527 -0.708238,-0.73435 -0.689712,-1.03445 0.03396,-0.55185 0.415043,-0.83034 1.024411,-0.74878 0.182421,0.0243 0.348271,0.0631 0.368567,0.0861 0.05066,0.0571 -0.115328,0.31527 -0.239633,0.37234 -0.06242,0.0287 -0.155224,0.0223 -0.241259,-0.0168 -0.205661,-0.0929 -0.382712,0.0555 -0.357838,0.29993 0.01455,0.14283 0.09527,0.24632 0.371682,0.47636 0.443909,0.36949 0.608336,0.63614 0.588906,0.955 -0.01592,0.2614 -0.103199,0.49445 -0.225683,0.60287 -0.233301,0.20653 -0.802115,0.30856 -1.094723,0.19639 z m 1.974244,-0.60581 c 7.87e-4,-0.34139 0.0065,-0.94222 0.01268,-1.33514 0.0061,-0.39292 0.0016,-0.75788 -0.01006,-0.81097 -0.03927,-0.178 0.210415,-0.26379 0.68396,-0.23495 0.518682,0.0316 0.772677,0.14197 0.950137,0.41242 0.333262,0.50811 0.370027,1.38268 0.08057,1.91682 -0.249008,0.45947 -0.594428,0.62913 -1.339433,0.6579 l -0.379314,0.0147 z m 0.983024,0.061 c 0.204429,-0.12539 0.317444,-0.4057 0.344837,-0.85524 0.03993,-0.6553 -0.185223,-1.10124 -0.567759,-1.12456 l -0.177086,-0.0105 -0.01845,0.98572 c -0.0101,0.54215 -0.0082,1.00563 0.0045,1.03002 0.03966,0.0771 0.270362,0.0629 0.414082,-0.0252 z m 1.629538,0.52688 c -0.01401,-0.0967 -0.01832,-0.60934 -0.014,-1.64032 0.0038,-0.89454 0.0231,-1.23489 0.0724,-1.27855 0.08433,-0.0745 0.555813,-0.11437 1.05861,-0.0892 l 0.384965,0.0195 -0.01033,0.16898 c -0.01267,0.20871 -0.147341,0.27908 -0.493544,0.25798 -0.394191,-0.0239 -0.437944,0.006 -0.455444,0.30733 -0.02904,0.4947 -0.0067,0.52664 0.35261,0.51371 0.173212,-0.006 0.344526,-0.0151 0.380722,-0.0196 0.08029,-0.01 0.03665,0.29959 -0.05613,0.39845 -0.03523,0.0375 -0.173209,0.0617 -0.306593,0.0534 -0.133398,-0.008 -0.271408,0.0159 -0.306707,0.0534 -0.03873,0.0415 -0.05993,0.21276 -0.05334,0.433 l 0.01073,0.36456 0.478258,-0.01 0.478261,-0.01 -0.01012,0.16698 c -0.01402,0.23014 -0.09808,0.27317 -0.560985,0.28725 -0.220665,0.007 -0.523893,0.019 -0.673845,0.0272 -0.149963,0.008 -0.273944,0.006 -0.275522,-0.005 z"
         style="fill:#f5ef60;fill-opacity:1;stroke-width:0.05710233" />
      <ellipse
         ry="0.5094825"
         rx="1.1943607"
         cy="189.0092"
         cx="26.581255"
         id="path1162"
         style="opacity:1;fill:#0f317f;fill-opacity:1;fill-rule:nonzero;stroke:none;stroke-width:0.56499994;stroke-miterlimit:4;stroke-dasharray:none;stroke-dashoffset:0;stroke-opacity:1" />
      <ellipse
         transform="rotate(-22.500297)"
         ry="0.31301153"
         rx="0.16241165"
         cy="196.01816"
         cx="-30.671474"
         id="path831"
         style="opacity:1;fill:#0f317f;fill-opacity:1;fill-rule:nonzero;stroke:none;stroke-width:0.56499994;stroke-miterlimit:4;stroke-dasharray:none;stroke-dashoffset:0;stroke-opacity:1" />
      <ellipse
         ry="0.2657645"
         rx="0.14174107"
         cy="193.33636"
         cx="46.48521"
         id="path833"
         style="opacity:1;fill:#0f317f;fill-opacity:1;fill-rule:nonzero;stroke:none;stroke-width:1.12999988;stroke-miterlimit:4;stroke-dasharray:none;stroke-dashoffset:0;stroke-opacity:1" />
      <ellipse
         transform="rotate(-14.272287)"
         ry="0.39569381"
         rx="0.15650578"
         cy="197.66432"
         cx="-5.9698644"
         id="path835"
         style="opacity:1;fill:#0f317f;fill-opacity:1;fill-rule:nonzero;stroke:none;stroke-width:0.83727616;stroke-miterlimit:4;stroke-dasharray:none;stroke-dashoffset:0;stroke-opacity:1" />
    </g>
  </g>
</svg>
