<svg width="791" height="174" viewBox="0 0 791 174" fill="none" xmlns="http://www.w3.org/2000/svg">
<g clip-path="url(#clip0_349_2)">
<path d="M77.563 70.5H28.123V13.95C28.123 13.233 28.873 12.563 29.669 12.563H102.976C106.356 12.563 109.178 9.646 109.178 6.297C109.178 2.71 106.356 0 102.976 0H11.702C5.197 0 0 5.182 0 11.766V166.846C0 170.624 3.188 173.813 6.935 173.813C11 173.813 14.035 170.625 14.035 166.846C14.035 170.624 17.271 173.813 21.05 173.813C24.925 173.813 28.113 170.625 28.113 166.846V82.298H77.553C80.805 82.298 83.453 79.748 83.453 76.398C83.4501 74.8342 82.8275 73.3353 81.7217 72.2296C80.6158 71.124 79.1168 70.5016 77.553 70.499M177.26 76.399V70.499C177.26 59.626 167.232 34.994 133.72 34.994C100.176 34.994 89.255 64.058 89.255 72.461V165.839C89.255 169.395 92.029 171.993 95.615 171.993C98.82 171.993 101.61 169.393 101.61 165.839C101.61 169.395 104.304 171.993 107.86 171.993C111.16 171.993 114.062 169.393 114.062 165.839V62.338C114.062 58.272 117.984 44.003 134.389 44.003C148.882 44.003 152.692 57.203 152.692 70.756L152.629 76.4C152.629 79.748 155.499 82.554 158.767 82.554C162.131 82.554 164.907 79.748 164.907 76.4C164.907 79.748 167.601 82.554 170.981 82.554C174.481 82.554 177.261 79.748 177.261 76.399M251.671 141.064C251.671 150.104 240.171 162.779 227.151 162.779C219.275 162.779 202.151 159.717 202.151 130.701C202.151 105.351 224.089 101.159 225.109 100.728C229.509 99.484 246.521 98.178 251.671 95.371V141.064ZM227.979 34.994C196.349 34.994 180.867 57.872 180.867 74.454C180.867 78.201 183.832 80.991 187.467 80.991C191.134 80.991 193.924 78.191 193.924 74.454V70.787C193.924 65.387 197.83 44.003 225.97 44.003C254.333 44.003 251.67 66.61 251.67 67.758C251.67 76.558 251.32 84.178 241.944 87.24C223.29 93.665 202.038 89.68 189.061 101.158C178.841 110.134 174.888 120.338 174.888 132.885C174.888 145.32 181.265 171.835 215.888 171.835C242.481 171.835 249.528 163.975 251.68 162.333L251.18 165.681C251.18 169.316 254.13 172.376 257.732 172.376C261.334 172.376 264.252 169.316 264.252 165.681C264.252 169.316 267.052 172.376 270.822 172.376C274.218 172.376 277.182 169.316 277.182 165.681V75.22C277.18 57.684 259.452 34.996 227.996 34.996M341.939 34.724C312.379 34.724 288.419 50.987 288.419 70.756V165.65C288.419 169.316 291.479 172.377 294.939 172.377C298.574 172.377 301.556 169.317 301.556 165.65C301.556 169.316 304.282 172.377 307.933 172.377C311.489 172.377 314.279 169.317 314.279 165.65V70.708C314.279 55.833 326.794 43.764 341.939 43.764C357.133 43.764 369.473 55.834 369.473 70.708V165.65C369.473 169.316 372.327 172.377 375.93 172.377C379.5 172.377 382.275 169.317 382.275 165.65C382.275 169.316 385.225 172.377 388.828 172.377C392.528 172.377 395.205 169.317 395.205 165.65L395.405 70.756C395.404 50.986 371.41 34.724 341.947 34.724M498.94 69.432V69.112L498.605 69.012L498.94 69.442" fill="#D8001F"/>
<path d="M515.73 138.785C512.557 138.785 510.246 140.618 508.81 143.249C496.645 163.385 482.61 164.661 469.382 164.661C445.382 164.661 425.81 137.143 425.81 102.993C425.81 68.993 445.372 41.643 469.382 41.493C491.527 41.493 496.836 65.408 498.942 69.123C499.175 69.9142 499.563 70.6512 500.083 71.2913C500.603 71.9314 501.245 72.4619 501.972 72.8519C502.699 73.242 503.495 73.4838 504.316 73.5635C505.137 73.6432 505.966 73.559 506.754 73.316C510.069 72.359 512.078 68.438 510.884 65.058C512.079 68.438 515.731 70.351 519.126 69.442C522.506 68.215 523.878 64.866 522.506 60.242C518.648 49.592 498.606 34.765 469.383 34.765C431.326 34.765 400.557 65.535 400.557 103.448C400.557 141.233 431.327 172.004 469.383 172.004C490.38 172.004 508.083 164.304 520.911 149.317C521.804 148.121 522.506 146.654 522.506 144.932C522.506 141.616 519.492 138.794 515.73 138.794M621.606 153.464C601.151 166.857 569.106 155.297 549.846 127.748C530.826 99.975 531.991 66.686 552.412 53.421C572.836 40.061 605.057 51.476 624.092 79.171C643.145 106.751 642.029 140.151 621.605 153.465M587 33.8C548.515 33.8 517.233 64.857 517.233 103.47C517.233 141.893 548.513 173.22 587 173.22C625.567 173.22 656.735 141.89 656.735 103.47C656.735 64.856 625.567 33.8 587 33.8ZM675.177 34.756C668.24 34.756 662.421 40.656 662.421 47.702L662.087 165.682C662.087 169.317 665.037 172.377 668.487 172.377C672.122 172.377 675.087 169.317 675.087 165.682C675.087 169.317 677.957 172.377 681.56 172.377C685.036 172.377 688.16 169.317 688.16 165.682V47.702C688.159 40.655 682.276 34.756 675.167 34.756M775.13 99.516C757.274 86.921 746.623 91.959 729.597 81.389C718.397 74.454 718.627 66.929 718.627 64.059C718.627 56.309 721.577 42.647 739.081 42.854C756.268 42.917 760.881 55.13 760.881 65.812V73.146C760.881 76.876 763.861 79.546 767.338 79.546C770.878 79.546 773.795 76.866 773.795 73.146C773.795 76.876 776.595 79.546 780.22 79.546C783.807 79.546 786.788 76.866 786.788 73.146V70.786C786.788 60.106 781.336 34.436 739.565 34.436C699.467 34.436 693.919 61.141 693.919 70.786C693.919 87.048 703.964 97.252 710.069 100.728C720.129 106.468 737.985 109.368 753.705 116.224C761.245 119.221 768.725 128.82 768.725 140.059C768.725 151.012 759.445 164.293 742.525 164.293C725.498 164.293 715.485 149.067 715.597 135.547V130.7C715.597 127.304 712.902 124.546 709.377 124.546C705.934 124.546 702.969 127.304 702.969 130.7C702.969 127.304 700.227 124.546 696.687 124.546C693.243 124.546 690.469 127.304 690.469 130.7V135.068C690.469 145.318 701.453 173.38 740.227 173.38C778.827 173.38 790.527 147.823 790.527 131.338C790.526 114.938 782.475 104.778 775.127 99.516" fill="#D8001F"/>
</g>
<defs>
<clipPath id="clip0_349_2">
<rect width="790.54" height="173.812" fill="white"/>
</clipPath>
</defs>
</svg>
