<?xml version="1.0" encoding="UTF-8" standalone="no"?>
<!-- Generator: Adobe Illustrator 21.0.2, SVG Export Plug-In . SVG Version: 6.00 Build 0)  -->

<svg
   xmlns:dc="http://purl.org/dc/elements/1.1/"
   xmlns:cc="http://creativecommons.org/ns#"
   xmlns:rdf="http://www.w3.org/1999/02/22-rdf-syntax-ns#"
   xmlns:svg="http://www.w3.org/2000/svg"
   xmlns="http://www.w3.org/2000/svg"
   xmlns:sodipodi="http://sodipodi.sourceforge.net/DTD/sodipodi-0.dtd"
   xmlns:inkscape="http://www.inkscape.org/namespaces/inkscape"
   version="1.1"
   id="Layer_1"
   x="0px"
   y="0px"
   viewBox="0 0 500 500"
   xml:space="preserve"
   sodipodi:docname="Freshiilogo.svg"
   width="500"
   height="500"
   inkscape:version="0.92.1 r15371"><metadata
     id="metadata3830"><rdf:RDF><cc:Work
         rdf:about=""><dc:format>image/svg+xml</dc:format><dc:type
           rdf:resource="http://purl.org/dc/dcmitype/StillImage" /></cc:Work></rdf:RDF></metadata><defs
     id="defs3828" /><sodipodi:namedview
     pagecolor="#ffffff"
     bordercolor="#666666"
     borderopacity="1"
     objecttolerance="10"
     gridtolerance="10"
     guidetolerance="10"
     inkscape:pageopacity="0"
     inkscape:pageshadow="2"
     inkscape:window-width="1366"
     inkscape:window-height="705"
     id="namedview3826"
     showgrid="false"
     inkscape:zoom="0.2979798"
     inkscape:cx="172.5425"
     inkscape:cy="331.52708"
     inkscape:window-x="-8"
     inkscape:window-y="-8"
     inkscape:window-maximized="1"
     inkscape:current-layer="Layer_1" /><style
     type="text/css"
     id="style3797">
	.st0{fill:#017A40;}
	.st1{fill:#EDFCF8;}
</style><g
     id="g3823"
     transform="matrix(1.25,0,0,1.25,-133.75,-246.25)"><g
       id="g3821"><path
         class="st0"
         d="m 107,597 c 0,-133.3 0,-266.7 0,-400 133.3,0 266.7,0 400,0 0,133.3 0,266.7 0,400 -133.3,0 -266.7,0 -400,0 z m 312.9,-40.2 c 0,-28.2 0.1,-56 -0.1,-83.8 -0.1,-6.1 -2.5,-11.5 -7,-16.1 -10.1,-10.2 -32.6,-9.1 -41.8,5.2 -0.7,1.1 -1.1,2.7 -3.1,3.4 0,-47.9 0,-95.5 0,-143.4 -2.8,0 -5.2,-0.6 -7.6,0.5 0,78.1 0,156.1 0,234 2.6,0.9 5,0.7 7.7,0 0,-2 0,-4 0,-6 0,-20.8 0,-41.6 0,-62.5 0,-6.6 1.5,-12.9 4.5,-18.7 5,-9.7 14.4,-14.1 25,-11.8 9.5,2 14.1,8.1 14.6,19.7 1,24.5 0.2,49 0.4,73.4 0,2 -0.4,4 0.5,5.9 2.2,0.8 4.3,0.7 6.9,0.2 z M 285.1,503.4 c 1.2,-11.7 -1.6,-28.5 -5.9,-37.9 -3.5,-7.5 -9.1,-12.6 -17.3,-14.6 -17.6,-4.3 -33.4,4.4 -38.8,21.8 -6.1,19.8 -5.5,39.9 -0.9,59.7 4.5,19.3 15.5,26.4 35,24.6 19.8,-1.8 28.8,-24 26,-35.6 -4.9,-1.3 -7.6,0.1 -7.4,5.7 0.1,2.2 -1.2,4.4 -1.8,6.7 -2.9,10.1 -11.1,16.3 -22,16.7 -9.6,0.3 -17.2,-5.2 -20.7,-15.6 -3.4,-10.1 -3.8,-20.5 -3.5,-31.5 19.2,0 38.1,0 57.3,0 z m -126.9,53.3 c 0,-48 0,-95.7 0,-143.5 5.7,-0.7 11,0.4 16.1,-0.7 0.3,-2.3 0.6,-4.2 -0.5,-6.7 -5.1,0 -10.3,0 -15.8,0 0,-20.9 0,-41.2 0,-61.5 0,-1.5 0,-3 0.1,-4.5 0.7,-7.2 4.7,-10.5 12,-10.3 2.1,0.1 4.2,1 6.3,0.3 0.8,-5.4 0.7,-6.2 -1.9,-6.7 -10,-1.9 -22.2,-0.4 -24,14.5 -0.3,2.5 -0.4,5 -0.4,7.5 0,15 0,30 0,45 0,5.1 0,10.2 0,15.9 -4.9,0 -9.3,0 -13.8,0 -0.5,2.6 -0.6,4.6 0.1,7.1 4.6,0 9,0 13.8,0 0,48.2 0,95.9 0,143.6 2.6,0.7 4.9,0.6 8,0 z m 189.7,-76 c 0.3,-7.3 -0.5,-13.9 -3.7,-20.2 -6.9,-13.6 -31.2,-12.5 -40.8,-6.3 -13.4,8.7 -16.3,36.7 4.4,45.9 6.8,3 13.9,5.7 20.7,8.7 11.2,4.9 15.3,12.2 13.7,24.2 -1.2,9.2 -7.1,15.6 -15.7,16.9 -12.4,1.9 -21.2,-2 -25.4,-10.9 -2.5,-5.3 -2.1,-11 -2.7,-16.7 -2.5,-0.5 -4.9,-0.5 -7.2,0 0,4 -0.4,7.7 0.1,11.3 1.3,10.3 6.2,18.2 16.5,21.8 7.2,2.5 14.8,2.6 22.2,0.9 12.1,-2.8 20.6,-12.9 21.1,-24.2 0.8,-16.2 -5.3,-25.5 -19.4,-31.2 -6.5,-2.6 -13.5,-3.3 -19.5,-7.5 -8.7,-6 -11.8,-11.9 -10.2,-22.3 1.4,-8.8 7.8,-13.9 18.2,-14.4 10.2,-0.5 16.7,3.8 19.2,12.3 1.1,3.9 0.6,7.9 1.3,11.8 2.2,0.5 4.5,0.6 7.2,-0.1 z M 179.5,452.3 c 0,35.2 0,69.8 0,104.6 2.6,0 4.9,0 7.5,0 0,-2.1 0,-3.9 0,-5.7 0,-20 0,-40 0,-60 0,-5 0.5,-10 2.1,-14.8 3.3,-9.7 8.8,-17.2 19.6,-19.2 2.7,-0.5 5.6,-0.4 8.4,-0.5 0.6,-2.3 0.9,-4.3 -0.1,-6.5 -6.2,-0.9 -11.9,0.1 -17.4,3 -5.3,2.8 -7.9,8.4 -12.9,13.6 0,-5.9 0,-10.2 0,-14.6 -2.5,0.1 -4.6,0.1 -7.2,0.1 z m 256.1,104.3 c 2.6,0.8 4.9,0.8 7.2,0.2 0,-34.8 0,-69.5 0,-104.3 -2.6,-0.3 -4.8,-0.7 -7.2,0.5 0,34.4 0,68.8 0,103.6 z m 24.6,0.3 c 2.8,0.2 5,0.6 7.3,-0.3 0,-34.8 0,-69.4 0,-104.1 -2.7,-0.3 -4.9,-0.6 -7.3,0.2 0,34.7 0,69.2 0,104.2 z m 3.6,-141.4 c 3.5,0.1 6.7,-2.9 6.8,-6.4 0.1,-3.8 -3,-6.9 -6.9,-6.9 -3.5,0 -6.5,3.1 -6.5,6.7 -0.1,3.5 2.9,6.5 6.6,6.6 z m -24.3,-13.4 c -3.6,0 -6.6,2.9 -6.7,6.6 -0.1,3.7 2.7,6.5 6.6,6.7 3.8,0.1 6.6,-2.6 6.6,-6.5 0,-3.7 -2.9,-6.7 -6.5,-6.8 z"
         id="path3799"
         inkscape:connector-curvature="0"
         style="fill:#017a40" /><path
         class="st1"
         d="m 419.9,556.8 c -2.6,0.5 -4.7,0.6 -6.9,0 -1,-1.9 -0.5,-4 -0.5,-5.9 -0.2,-24.5 0.5,-49 -0.4,-73.4 -0.5,-11.7 -5,-17.7 -14.6,-19.7 -10.6,-2.3 -20.1,2.1 -25,11.8 -3,5.8 -4.5,12.1 -4.5,18.7 0,20.8 0,41.6 0,62.5 0,2 0,4 0,6 -2.7,0.7 -5.1,0.8 -7.7,0 0,-78 0,-155.9 0,-234 2.4,-1.1 4.8,-0.5 7.6,-0.5 0,47.9 0,95.5 0,143.4 2,-0.7 2.4,-2.3 3.1,-3.4 9.2,-14.2 31.7,-15.4 41.8,-5.2 4.5,4.5 6.9,10 7,16.1 0.2,27.6 0.1,55.4 0.1,83.6 z"
         id="path3801"
         inkscape:connector-curvature="0"
         style="fill:#edfcf8" /><path
         class="st1"
         d="m 285.1,503.4 c -19.2,0 -38.1,0 -57.2,0 -0.3,11 0.1,21.4 3.5,31.5 3.5,10.4 11,15.9 20.7,15.6 10.9,-0.4 19,-6.6 22,-16.7 0.6,-2.2 1.9,-4.5 1.8,-6.7 -0.2,-5.6 2.5,-7 7.4,-5.7 2.8,11.6 -6.2,33.8 -26,35.6 -19.5,1.8 -30.5,-5.3 -35,-24.6 -4.6,-19.8 -5.2,-39.9 0.9,-59.7 5.4,-17.4 21.1,-26.1 38.8,-21.8 8.2,2 13.8,7 17.3,14.6 4.2,9.4 7,26.2 5.8,37.9 z m -8.7,-7.1 c 1.3,-8.2 -0.7,-20.7 -4.2,-27.6 -7.6,-14.9 -28.1,-16.2 -37.4,-2.2 -5.9,8.9 -7.2,19 -7,29.8 16.5,0 32.4,0 48.6,0 z"
         id="path3803"
         inkscape:connector-curvature="0"
         style="fill:#edfcf8" /><path
         class="st1"
         d="m 158.2,556.7 c -3.1,0.6 -5.3,0.7 -8.1,0 0,-47.7 0,-95.4 0,-143.6 -4.9,0 -9.3,0 -13.8,0 -0.7,-2.5 -0.6,-4.5 -0.1,-7.1 4.5,0 8.9,0 13.8,0 0,-5.6 0,-10.7 0,-15.9 0,-15 0,-30 0,-45 0,-2.5 0.1,-5 0.4,-7.5 1.9,-14.9 14,-16.4 24,-14.5 2.6,0.5 2.7,1.3 1.9,6.7 -2.1,0.8 -4.2,-0.2 -6.3,-0.3 -7.3,-0.2 -11.3,3.1 -12,10.3 -0.1,1.5 -0.1,3 -0.1,4.5 0,20.3 0,40.6 0,61.5 5.5,0 10.7,0 15.8,0 1.1,2.5 0.8,4.4 0.5,6.7 -5.1,1.1 -10.4,0 -16.1,0.7 0.1,47.8 0.1,95.5 0.1,143.5 z"
         id="path3805"
         inkscape:connector-curvature="0"
         style="fill:#edfcf8" /><path
         class="st1"
         d="m 347.9,480.7 c -2.6,0.7 -4.9,0.5 -7.4,0 -0.7,-3.9 -0.1,-7.9 -1.3,-11.8 -2.5,-8.5 -9,-12.8 -19.2,-12.3 -10.3,0.5 -16.7,5.6 -18.2,14.4 -1.7,10.4 1.4,16.4 10.2,22.3 6,4.1 13.1,4.9 19.5,7.5 14.1,5.7 20.2,15 19.4,31.2 -0.5,11.3 -9,21.4 -21.1,24.2 -7.4,1.7 -14.9,1.6 -22.2,-0.9 -10.3,-3.6 -15.2,-11.4 -16.5,-21.8 -0.5,-3.6 -0.1,-7.3 -0.1,-11.3 2.3,-0.5 4.6,-0.5 7.2,0 0.7,5.7 0.2,11.4 2.7,16.7 4.2,9 13,12.8 25.4,10.9 8.6,-1.3 14.5,-7.7 15.7,-16.9 1.6,-12 -2.5,-19.3 -13.7,-24.2 -6.8,-3 -13.9,-5.6 -20.7,-8.7 -20.7,-9.2 -17.8,-37.2 -4.4,-45.9 9.6,-6.2 33.9,-7.4 40.8,6.3 3.4,6.5 4.1,13.1 3.9,20.3 z"
         id="path3807"
         inkscape:connector-curvature="0"
         style="fill:#edfcf8" /><path
         class="st1"
         d="m 179.5,452.3 c 2.6,0 4.7,0 7.3,0 0,4.4 0,8.7 0,14.6 5,-5.2 7.6,-10.8 12.9,-13.6 5.5,-2.9 11.2,-3.9 17.4,-3 1,2.1 0.7,4.2 0.1,6.5 -2.8,0.2 -5.7,0 -8.4,0.5 -10.8,1.9 -16.3,9.5 -19.6,19.2 -1.6,4.7 -2.1,9.7 -2.1,14.8 0.1,20 0,40 0,60 0,1.8 0,3.6 0,5.7 -2.6,0 -4.9,0 -7.5,0 -0.1,-34.8 -0.1,-69.5 -0.1,-104.7 z"
         id="path3809"
         inkscape:connector-curvature="0"
         style="fill:#edfcf8" /><path
         class="st1"
         d="m 435.6,556.6 c 0,-34.7 0,-69.2 0,-103.6 2.4,-1.2 4.6,-0.8 7.2,-0.5 0,34.8 0,69.5 0,104.3 -2.3,0.6 -4.6,0.6 -7.2,-0.2 z"
         id="path3811"
         inkscape:connector-curvature="0"
         style="fill:#edfcf8" /><path
         class="st1"
         d="m 460.2,556.9 c 0,-35 0,-69.5 0,-104.3 2.4,-0.8 4.6,-0.5 7.3,-0.2 0,34.7 0,69.4 0,104.1 -2.3,1.1 -4.6,0.6 -7.3,0.4 z"
         id="path3813"
         inkscape:connector-curvature="0"
         style="fill:#edfcf8" /><path
         class="st1"
         d="m 463.8,415.5 c -3.6,-0.1 -6.7,-3.1 -6.6,-6.7 0,-3.7 3,-6.7 6.5,-6.7 3.8,0 6.9,3.1 6.9,6.9 -0.1,3.6 -3.3,6.6 -6.8,6.5 z"
         id="path3815"
         inkscape:connector-curvature="0"
         style="fill:#edfcf8" /><path
         class="st1"
         d="m 439.5,402.1 c 3.6,0 6.5,3 6.5,6.8 0,3.9 -2.8,6.6 -6.6,6.5 -3.9,-0.1 -6.6,-2.9 -6.6,-6.7 0.1,-3.6 3.1,-6.6 6.7,-6.6 z"
         id="path3817"
         inkscape:connector-curvature="0"
         style="fill:#edfcf8" /><path
         class="st0"
         d="m 276.4,496.3 c -16.2,0 -32.2,0 -48.6,0 -0.1,-10.7 1.2,-20.9 7,-29.8 9.3,-14 29.8,-12.7 37.4,2.2 3.6,6.8 5.5,19.4 4.2,27.6 z"
         id="path3819"
         inkscape:connector-curvature="0"
         style="fill:#017a40" /></g></g></svg>