<?xml version="1.0" encoding="UTF-8" standalone="no"?>
<svg
   xmlns:dc="http://purl.org/dc/elements/1.1/"
   xmlns:cc="http://creativecommons.org/ns#"
   xmlns:rdf="http://www.w3.org/1999/02/22-rdf-syntax-ns#"
   xmlns:svg="http://www.w3.org/2000/svg"
   xmlns="http://www.w3.org/2000/svg"
   version="1.1"
   id="svg8344"
   viewBox="0 0 300 99.981531"
   height="99.981529"
   width="300">
  <defs
     id="defs8346" />
  <metadata
     id="metadata8349">
    <rdf:RDF>
      <cc:Work
         rdf:about="">
        <dc:format>image/svg+xml</dc:format>
        <dc:type
           rdf:resource="http://purl.org/dc/dcmitype/StillImage" />
        <dc:title></dc:title>
      </cc:Work>
    </rdf:RDF>
  </metadata>
  <g
     transform="translate(-365.13117,-648.15768)"
     id="layer1">
    <path
       id="path8130"
       style="fill:#231f20;fill-opacity:1;fill-rule:nonzero;stroke:none"
       d="m 476.30536,672.06266 76.96105,0 0,-15.57686 -76.96105,0 0,15.57686 z" />
    <g
       transform="matrix(2.6228078,0,0,-2.6228078,457.98452,674.35787)"
       id="g8132">
      <path
         id="path8134"
         style="fill:#231f20;fill-opacity:1;fill-rule:nonzero;stroke:none"
         d="m 0,0 0,5.939 -34.409,0 0,-5.939 9.297,0 -9.909,-26.721 7.054,0 7.707,20.789 0,-20.789 6.112,0 0,20.996 7.786,-20.996 7.049,0 L -9.22,0 0,0 Z" />
    </g>
    <path
       id="path8136"
       style="fill:#231f20;fill-opacity:1;fill-rule:nonzero;stroke:none"
       d="m 471.72331,743.98529 89.33808,0 0,-15.57947 -89.33808,0 0,15.57947 z" />
    <g
       transform="matrix(2.6228078,0,0,-2.6228078,661.84383,659.23713)"
       id="g8138">
      <path
         id="path8140"
         style="fill:#231f20;fill-opacity:1;fill-rule:nonzero;stroke:none"
         d="m 0,0 0,1.048 -13.273,0 0,2.795 -6.816,0 0,-2.795 -13.271,0 0,-1.048 0,-3.84 0,-6.291 5.062,0 0,6.291 23.319,0 0,-6.291 5.066,0 L 0.087,0 0,0 Z" />
    </g>
    <g
       transform="matrix(2.6228078,0,0,-2.6228078,664.13117,731.90594)"
       id="g8142">
      <path
         id="path8144"
         style="fill:#231f20;fill-opacity:1;fill-rule:nonzero;stroke:none"
         d="m 0,0 -14.145,6.254 0,0.463 13.273,4.05 0,5.414 -13.273,-4.052 0,5.624 6.11,0 0,5.063 -19.562,0 0,-5.063 6.636,0 0,-0.32 -13.447,-4.792 0,-4.499 13.447,4.796 0,-1.965 -13.447,-4.793 0,-4.494 13.447,4.791 0,-1.968 -13.447,-4.791 0,-4.498 13.447,4.792 0,-4.792 6.816,0 0,5.225 L 0,-5.808 0,0 Z" />
    </g>
  </g>
</svg>
