<?xml version="1.0" encoding="UTF-8" standalone="no"?>
<!-- Created with Inkscape (http://www.inkscape.org/) -->

<svg
   width="346.50937mm"
   height="129.36551mm"
   viewBox="0 0 346.50937 129.36551"
   version="1.1"
   id="svg5"
   inkscape:version="1.1.1 (c3084ef, 2021-09-22)"
   sodipodi:docname="Géant Casino 2015.svg"
   xmlns:inkscape="http://www.inkscape.org/namespaces/inkscape"
   xmlns:sodipodi="http://sodipodi.sourceforge.net/DTD/sodipodi-0.dtd"
   xmlns="http://www.w3.org/2000/svg"
   xmlns:svg="http://www.w3.org/2000/svg">
  <sodipodi:namedview
     id="namedview7"
     pagecolor="#ffffff"
     bordercolor="#666666"
     borderopacity="1.0"
     inkscape:pageshadow="2"
     inkscape:pageopacity="0.0"
     inkscape:pagecheckerboard="0"
     inkscape:document-units="mm"
     showgrid="false"
     fit-margin-top="0"
     fit-margin-left="0"
     fit-margin-right="0"
     fit-margin-bottom="0"
     inkscape:zoom="0.49976852"
     inkscape:cx="643.29782"
     inkscape:cy="393.18203"
     inkscape:window-width="1440"
     inkscape:window-height="783"
     inkscape:window-x="256"
     inkscape:window-y="25"
     inkscape:window-maximized="0"
     inkscape:current-layer="layer1" />
  <defs
     id="defs2" />
  <g
     inkscape:label="Calque 1"
     inkscape:groupmode="layer"
     id="layer1"
     transform="translate(65.254684,-44.376071)">
    <g
       id="g32"
       style="fill:#dd1f26;fill-opacity:1"
       transform="matrix(0.26458333,0,0,0.26458333,-72.663017,29.16253)">
      <g
         id="g18"
         style="fill:#dd1f26;fill-opacity:1">
        <g
           id="g16"
           style="fill:#dd1f26;fill-opacity:1">
          <path
             class="st0"
             d="m 323.7,135.2 c -45.3,-22.9 -64.2,-26.4 -102.4,-26.4 -84.1,0 -113.7,66.7 -113.7,113.3 0,55.8 43.2,104.3 107.3,104.3 19.1,0 28.6,-1.9 56.5,-11 V 263.3 H 221.3 V 209.2 H 347.2 V 337.8 C 320.4,362.3 263.1,380.3 213.1,380.3 104.9,380.3 28,313.4 28,219.4 c 0,-96 76.4,-161.9 186.9,-161.9 46.4,0 91.4,10.6 128,29.3 z"
             id="path4"
             style="fill:#dd1f26;fill-opacity:1" />
          <path
             class="st0"
             d="m 782.4,271.7 c -39.1,14.3 -57.7,23.5 -57.7,44.7 0,12.5 9.6,22.6 21.3,22.6 12.3,0 25.5,-6 36.4,-16.2 z m 95.8,89.2 c -17.6,11.1 -43.6,19.4 -61.3,19.4 -21.8,0 -32.3,-6.9 -36.8,-23.9 -25.4,17.5 -46.4,23.9 -69.1,23.9 -33.7,0 -58.6,-25.4 -58.6,-52.1 0,-50.7 42.7,-64 130.5,-91.7 1.3,-19.8 -9.9,-35.9 -38.6,-35.9 -26.4,0 -48.5,4 -72.9,17.2 l -7.3,-39.5 c 27.3,-17.1 59.5,-24.3 92.8,-24.3 52.8,0 98,23.5 98,70 l 1,92 c 0,10.6 3,12.7 9.8,12.7 4.6,0 3.4,-0.4 12.6,-5.3 v 37.5 z"
             id="path6"
             style="fill:#dd1f26;fill-opacity:1" />
          <path
             class="st0"
             d="m 983.4,185.1 c 22.1,-24.4 43.7,-32.2 72.1,-32.2 34.6,0 80.7,21.4 80.7,84.1 v 139.1 h -69.7 V 246.6 c 0,-30 -14.9,-42.4 -34.6,-42.4 -17.3,0 -30.3,8.7 -48.6,35 V 376.1 H 913.6 V 158.9 h 69.7 v 26.2 z"
             id="path8"
             style="fill:#dd1f26;fill-opacity:1" />
          <path
             class="st0"
             d="m 1325.3,205 h -64 v 91.8 c 0,20.8 11.9,34.1 32.3,34.1 13.6,0 20.2,-3.2 43.2,-12.4 v 48.4 c -28.5,9.7 -45.8,13.4 -66.2,13.4 -43.7,0 -81.4,-20.3 -81.4,-79.8 V 205 h -30 v -47.6 l 31.5,-0.2 v -46.5 l 70.7,-30.3 V 157 h 64 v 48 z"
             id="path10"
             style="fill:#dd1f26;fill-opacity:1" />
          <path
             class="st0"
             d="m 549.8,245.6 c -2.7,-29 -20,-46.6 -45.5,-46.6 -25.9,0 -42.8,17.1 -45.5,46.6 z m 63.5,105.5 c -46.7,29.1 -86.2,29.1 -102.6,29.1 -73.7,0 -121.4,-43.3 -121.4,-109.7 0,-77.1 54.7,-116 119.3,-116 61,0 111.5,48.7 108.3,124.2 h -156 c 2.3,39.8 27.7,59.6 69.1,59.6 26.4,0 43.5,-5.4 83.3,-29 z"
             id="path12"
             style="fill:#dd1f26;fill-opacity:1" />
          <path
             class="st0"
             d="m 425.7,133.2 c 17.9,-8.3 107,-61.4 109.7,-62.6 4.1,-1.9 19.1,-3.9 27.2,11.6 8.1,15.5 8.8,30.7 -12.2,38.3 -20.9,7.6 -110.4,21.3 -124.7,12.7"
             id="path14"
             style="fill:#dd1f26;fill-opacity:1" />
        </g>
      </g>
      <g
         id="g30"
         style="fill:#dd1f26;fill-opacity:1">
        <path
           class="st0"
           d="m 967,453.2 0.3,1 c 0.2,0.7 0.4,1 1.6,1 11.2,-0.2 19.6,-7.7 19.6,-11.9 0.1,-5 -5.1,-11.3 -27,-11.7 -64.6,-1 -106.7,27.7 -110.2,59.7 -4.7,42.2 57.4,64.5 110.6,51.4 12.2,-3 19.1,-7.2 19.3,-9 0.2,-1.8 0.1,-3 -0.1,-4.4 -3.7,1.6 -7.4,3 -11.2,4.1 -43.3,13 -94.5,-4.7 -90.2,-43.5 3.1,-28 39.7,-51.1 78.1,-50.1 2.3,0.1 4.4,0.2 6.2,0.6 5.5,1 7.5,3.3 7.4,6 -0.2,2.2 -1.9,4.7 -4.4,6.8"
           id="path20"
           style="fill:#dd1f26;fill-opacity:1" />
        <path
           class="st0"
           d="m 972.5,512.5 c -4.3,-0.3 -6.7,-3.1 -6.5,-7.1 1.1,-17.2 27.1,-38.8 53,-34.7 -12.8,28.6 -33.6,42.6 -46.5,41.8 m 70.3,-44.3 c 1.3,-2.4 0.9,-4.4 -1.6,-5 -3.6,-0.9 -9.2,-1.8 -14,-2.1 -49.8,-2.9 -85.1,26 -86.5,48.1 -0.6,9.2 4.6,15.4 17.2,15.6 13.9,0.2 30.8,-7.2 42.1,-15.5 2.8,-2.1 3.2,-1.2 2.7,0.5 -2.3,7.8 -1.6,14.6 5.8,15.1 8.3,0.5 19,-3.7 22.6,-5.4 0.3,-0.2 0.8,-1.1 0.5,-3.2 -4.6,-0.3 -6.2,-4.5 -5,-9.4 2.8,-10.3 11.9,-30.2 16.2,-38.7"
           id="path22"
           style="fill:#dd1f26;fill-opacity:1" />
        <path
           class="st0"
           d="m 1105.9,475.2 c 0.4,0.6 0.6,0.7 1.5,0.4 3.9,-1.5 8.3,-4.9 8.5,-7.8 0.2,-3.7 -4.7,-6.3 -18.6,-7.1 -22.3,-1.3 -41,5.8 -41.2,18.4 -0.3,15.2 29.9,17.6 29.6,30 -0.1,6.1 -6.5,11.1 -19.5,11 -8.9,-0.1 -16.5,-3.3 -16.4,-9.9 0,-4.3 3.8,-9.3 17.3,-12.3 -1.8,-2.4 -2.8,-2.6 -5.4,-2.3 -15.6,2.2 -24.6,8.3 -25.1,15.9 -0.5,8.3 6.3,15.2 31.5,15.7 28.4,0.5 41,-12.1 41.2,-23.5 0.3,-12.6 -18.4,-19.5 -26.5,-25.4 -2.6,-1.9 -3.6,-3.8 -3.6,-5.5 0.1,-3.3 3.9,-6.6 14.1,-6.6 4.9,0.1 9.6,1.2 11.7,3.2 1.7,1.6 1.8,3.6 0.7,5.5 z"
           id="path24"
           style="fill:#dd1f26;fill-opacity:1" />
        <path
           class="st0"
           d="m 1317,488.7 c -3.6,16.5 -16.5,28.8 -28.1,28.1 -7.3,-0.4 -9.5,-8.1 -7.6,-16.5 3.1,-13.6 15.3,-28 27.5,-27.2 6.5,0.4 10.3,6.5 8.2,15.6 m -3.7,-26.2 c -24.8,-1.5 -44.3,16.9 -47.9,35.8 -18.1,19 -26,16.5 -24.2,9.6 2.1,-8.4 13.7,-29.7 14.3,-37.9 0.3,-4.5 -2.6,-7.9 -8.6,-8.2 -10.1,-0.6 -26.9,9.7 -42.3,22.4 -2.7,2.2 -4.6,1.1 -3.6,-1.3 2.5,-6.1 3.8,-9.3 6.1,-15.3 0.5,-1.4 0.4,-2 -0.5,-2.8 -3.2,-2.8 -6.1,-4.2 -8.8,-4.3 -2.9,-0.2 -5.2,1.1 -7.2,3.5 -13.4,11.9 -40.4,48.1 -49.3,47.5 -1.6,-0.1 -3,-0.7 -2.9,-2.9 0.3,-5.1 17.1,-40.6 17.3,-44.8 0.1,-2.2 -1.8,-2.8 -2.8,-2.8 -4,-0.2 -22.4,5.9 -24.6,7.9 -0.7,0.6 -1,1.8 -1.3,3.3 2,0 4,1.1 2.8,4.7 -2.6,8.3 -15,34.4 -15.3,40.1 -0.3,5.1 2.6,8 8.2,8.3 15.7,0.9 31.8,-10.7 52.8,-34.5 -5.5,10.9 -9.3,20.1 -9.7,26.9 -0.4,6.6 8.9,7.8 14.6,7.1 1.9,-0.2 2.1,-0.2 2.8,-2.3 2,-6.1 9.3,-18.2 24.1,-31.5 7.1,-6.4 15.8,-12.7 19.8,-12.4 3,0.2 3.3,2.9 2.9,4.5 -1.6,6.5 -6.9,17.5 -10.4,27.1 -3.3,9.1 0.9,14.8 8.4,15.3 10.2,0.6 23.4,-5.2 37,-18 1.3,10.4 8.8,19.2 22.5,20 25.1,1.5 48.6,-16.5 50.1,-41.3 0.8,-13.5 -10,-22.9 -24.3,-23.7"
           id="path26"
           style="fill:#dd1f26;fill-opacity:1" />
        <path
           class="st0"
           d="m 1136.4,458.2 c -1.9,-0.5 -2.4,-0.9 -1.8,-3.6 0.8,-3.8 1.9,-8.1 3.1,-11.7 1.7,-5.4 4.9,-8.4 13.8,-9.2 7.3,-0.6 16.3,-1.1 22.1,-3.3 -6.6,19.6 -26.9,14 -36.3,28 z"
           id="path28"
           style="fill:#dd1f26;fill-opacity:1" />
      </g>
    </g>
  </g>
  <style
     type="text/css"
     id="style2">
	.st0{fill:#D43A30;}
</style>
</svg>
