<svg width="86" height="49" viewBox="0 0 86 49" fill="none" xmlns="http://www.w3.org/2000/svg">
<path fill-rule="evenodd" clip-rule="evenodd" d="M47.9236 14.878C47.9236 17.1669 47.9236 21.7448 47.9236 31.4516C47.9236 41.3702 53.4628 48.7033 67.0439 48.7033C78.2862 48.7033 85.9589 41.1583 85.9589 31.4516C85.9589 28.3996 85.9589 16.9126 85.9589 14.878C84.687 14.878 76.645 14.878 75.4141 14.878C75.4141 17.0822 75.4141 27.5943 75.4141 32.2145C75.4141 35.4784 72.624 38.827 67.0439 38.827C60.9303 38.827 58.6736 35.0545 58.6736 32.2145C58.6736 28.0605 58.6736 17.2941 58.6736 14.878C57.4427 14.878 49.1956 14.878 47.9236 14.878Z" fill="black"/>
<path fill-rule="evenodd" clip-rule="evenodd" d="M53.832 4.78979C53.832 7.46021 55.9246 9.57959 58.5095 9.57959C61.0944 9.57959 63.146 7.41782 63.146 4.78979C63.146 2.11938 61.0534 0 58.5095 0C55.9246 0 53.832 2.16176 53.832 4.78979Z" fill="black"/>
<path fill-rule="evenodd" clip-rule="evenodd" d="M79.4351 4.78979C79.4351 7.46021 77.3426 9.57959 74.7987 9.57959C72.2137 9.57959 70.1622 7.41782 70.1622 4.78979C70.1212 2.16176 72.2137 0 74.7576 0C77.3426 0 79.4351 2.16176 79.4351 4.78979Z" fill="black"/>
<path fill-rule="evenodd" clip-rule="evenodd" d="M43.5744 23.9913H23.4695V32.2569H31.9628C29.9933 35.8599 26.2185 38.3183 21.9103 38.3183C15.5095 38.3183 10.3397 32.9775 10.3397 26.4074C10.3397 19.8374 15.5095 14.4965 21.9103 14.4965C24.8645 14.4965 27.5725 15.641 29.624 17.5484L36.5172 9.5372C32.6603 5.93425 27.5315 3.7301 21.9103 3.7301C9.8063 3.7301 0 13.8607 0 26.3651C0 38.8694 9.8063 49 21.9103 49C34.0143 49 43.8206 38.8694 43.8206 26.3651C43.8206 25.5597 43.7796 24.7543 43.6975 23.949C43.6155 23.9914 43.5744 23.9913 43.5744 23.9913Z" fill="black"/>
</svg>
