<?xml version="1.0" encoding="UTF-8" standalone="no"?>
<!-- Created with Inkscape (http://www.inkscape.org/) -->

<svg
   xmlns:dc="http://purl.org/dc/elements/1.1/"
   xmlns:cc="http://creativecommons.org/ns#"
   xmlns:rdf="http://www.w3.org/1999/02/22-rdf-syntax-ns#"
   xmlns:svg="http://www.w3.org/2000/svg"
   xmlns="http://www.w3.org/2000/svg"
   xmlns:sodipodi="http://sodipodi.sourceforge.net/DTD/sodipodi-0.dtd"
   xmlns:inkscape="http://www.inkscape.org/namespaces/inkscape"
   width="384.02106"
   height="110.56519"
   viewBox="0 0 101.60557 29.253707"
   version="1.1"
   id="svg11337"
   inkscape:version="0.92.0 r15299"
   sodipodi:docname="harps.svg">
  <defs
     id="defs11331" />
  <sodipodi:namedview
     id="base"
     pagecolor="#ffffff"
     bordercolor="#666666"
     borderopacity="1.0"
     inkscape:pageopacity="0.0"
     inkscape:pageshadow="2"
     inkscape:zoom="2.348038"
     inkscape:cx="191.01054"
     inkscape:cy="54.282595"
     inkscape:document-units="mm"
     inkscape:current-layer="layer1"
     showgrid="false"
     fit-margin-top="0"
     fit-margin-left="0"
     fit-margin-right="0"
     fit-margin-bottom="0"
     units="px"
     inkscape:window-width="1280"
     inkscape:window-height="744"
     inkscape:window-x="-4"
     inkscape:window-y="-4"
     inkscape:window-maximized="1" />
  <metadata
     id="metadata11334">
    <rdf:RDF>
      <cc:Work
         rdf:about="">
        <dc:format>image/svg+xml</dc:format>
        <dc:type
           rdf:resource="http://purl.org/dc/dcmitype/StillImage" />
        <dc:title></dc:title>
      </cc:Work>
    </rdf:RDF>
  </metadata>
  <g
     inkscape:label="Layer 1"
     inkscape:groupmode="layer"
     id="layer1"
     transform="translate(-65.122509,-170.22765)">
    <g
       id="g11733"
       transform="translate(0.26458018,-0.2645738)">
      <path
         style="fill:#4f3f45;fill-opacity:1;stroke:none;stroke-width:0.35277778"
         d="m 65.122539,173.04947 h 7.68946 v 1.21267 h -0.52917 c -0.61047,0 -1.04869,0.0579 -1.31189,0.17088 -0.26183,0.11438 -0.44373,0.31557 -0.54571,0.60082 -0.0854,0.20946 -0.12678,0.65319 -0.12678,1.32843 v 5.56176 h 10.33529 v -5.41844 c 0,-0.73036 -0.0248,-1.17409 -0.0717,-1.32843 -0.0772,-0.30455 -0.24391,-0.53192 -0.49609,-0.68351 -0.2508,-0.15296 -0.63252,-0.23151 -1.14653,-0.23151 h -0.78824 v -1.21267 h 7.63433 v 1.21267 h -0.68901 c -0.53331,0 -0.91227,0.062 -1.13551,0.1819 -0.22462,0.11851 -0.38309,0.27974 -0.47404,0.48507 -0.0882,0.20671 -0.13229,0.64768 -0.13229,1.32292 v 13.58194 c 0,0.75379 0.0469,1.23335 0.14331,1.43867 0.0951,0.20258 0.28663,0.34865 0.57327,0.43546 0.16812,0.0551 0.74,0.0827 1.71427,0.0827 v 1.20165 h -7.63433 v -1.20165 h 0.55673 c 0.70418,0 1.17409,-0.0469 1.4056,-0.14331 0.23427,-0.0951 0.38585,-0.24805 0.452,-0.45751 0.0579,-0.16123 0.0882,-0.66973 0.0882,-1.52687 v -6.19014 h -10.33529 v 6.36102 c 0,0.75379 0.0496,1.2361 0.14883,1.44418 0.0978,0.20947 0.29215,0.35416 0.57878,0.42995 0.20808,0.0551 0.80477,0.0827 1.78594,0.0827 v 1.20165 h -7.68946 v -1.20165 h 0.48507 c 0.74139,0 1.20441,-0.04 1.38906,-0.12127 0.18604,-0.0799 0.33625,-0.23426 0.44649,-0.46302 0.10886,-0.22737 0.16536,-0.63389 0.16536,-1.21818 v -13.73628 c 0,-0.62012 -0.0524,-1.05007 -0.15434,-1.28985 -0.0992,-0.2384 -0.25631,-0.41478 -0.46853,-0.52916 -0.2136,-0.113 -0.56913,-0.17088 -1.06385,-0.17088 h -0.79926 z m 0,0"
         id="path11596"
         inkscape:connector-curvature="0" />
      <path
         style="fill:#4f3f45;fill-opacity:1;stroke:none;stroke-width:0.35277778"
         d="m 95.983049,173.04947 h 2.359199 l 6.190152,16.66875 c 0.30455,0.83784 0.61185,1.39319 0.92053,1.66467 0.3073,0.27285 0.72485,0.4079 1.25126,0.4079 h 0.31419 v 1.20165 h -7.10516 v -1.20165 c 0.22737,-0.0179 0.45199,-0.0276 0.67248,-0.0276 0.45475,0 0.75516,-0.0469 0.89848,-0.14332 0.27836,-0.17914 0.41892,-0.40928 0.41892,-0.68902 0,-0.19706 -0.13505,-0.68902 -0.40238,-1.47174 l -1.31741,-3.85851 h -7.231942 l -1.543409,4.31602 c -0.1626,0.44924 -0.24253,0.7593 -0.24253,0.93155 0,0.19155 0.0496,0.35967 0.14883,0.50161 0.0978,0.14331 0.23426,0.25218 0.4079,0.32521 0.172249,0.0703 0.44786,0.10473 0.82682,0.10473 0.25631,0 0.465781,0.004 0.62838,0.011 v 1.20165 h -5.95863 v -1.20165 c 0.54983,0 0.94809,-0.0551 1.19062,-0.16536 0.24529,-0.10887 0.45889,-0.28663 0.63941,-0.52917 0.17915,-0.24115 0.41617,-0.75516 0.71107,-1.53789 z m -2.50252,11.15108 h 6.162591 l -3.086812,-8.57691 z m 0,0"
         id="path11600"
         inkscape:connector-curvature="0" />
      <path
         style="fill:#4f3f45;fill-opacity:1;stroke:none;stroke-width:0.35277778"
         d="m 108.51623,173.04947 h 10.29119 c 1.95406,0 3.43132,0.20257 4.43177,0.60633 1.00184,0.40515 1.77216,0.99081 2.3096,1.75838 0.53881,0.76895 0.81028,1.65778 0.81028,2.66788 0,1.03629 -0.2632,1.95957 -0.78824,2.7671 -0.52641,0.80478 -1.28157,1.44005 -2.26549,1.9017 -0.9853,0.46026 -2.29443,0.70142 -3.92465,0.72209 l 5.2641,6.43268 c 0.42582,0.5333 0.70694,0.86265 0.84336,0.98668 0.32935,0.2949 0.67937,0.51952 1.04731,0.67248 0.36656,0.15158 0.77997,0.226 1.24024,0.226 h 0.35277 v 1.20165 h -4.54201 l -7.32014,-9.51949 h -2.56315 v 6.14605 c 0,0.68764 0.0234,1.11621 0.0717,1.28433 0.10611,0.32384 0.2756,0.55397 0.50712,0.68902 0.23426,0.13229 0.69039,0.19844 1.36701,0.19844 h 0.51263 v 1.20165 h -7.64536 v -1.20165 h 0.68351 c 0.51401,0 0.8599,-0.0331 1.03628,-0.0992 0.17502,-0.0648 0.33349,-0.1819 0.47405,-0.34727 0.13918,-0.16812 0.23702,-0.38171 0.29214,-0.63941 0.0179,-0.10611 0.0331,-0.58704 0.0441,-1.44418 v -13.06932 c 0,-0.56912 -0.0579,-0.97702 -0.17088,-1.22369 -0.11437,-0.24943 -0.27423,-0.42995 -0.47955,-0.54019 -0.20671,-0.10887 -0.56086,-0.16537 -1.06385,-0.16537 h -0.8158 z m 5.18694,1.55442 v 7.50756 h 4.10655 c 1.38769,0 2.36472,-0.0854 2.92696,-0.25907 0.80064,-0.22738 1.43316,-0.6463 1.89618,-1.25678 0.46164,-0.60909 0.69453,-1.3863 0.69453,-2.33164 0,-0.7965 -0.16812,-1.46898 -0.50161,-2.01744 -0.33486,-0.54984 -0.79099,-0.96187 -1.36701,-1.23473 -0.57327,-0.27147 -1.43454,-0.4079 -2.57969,-0.4079 z m 0,0"
         id="path11604"
         inkscape:connector-curvature="0" />
      <path
         style="fill:#4f3f45;fill-opacity:1;stroke:none;stroke-width:0.35277778"
         d="m 129.51405,173.04947 h 7.87687 c 2.3909,0 4.04041,0.15296 4.9444,0.45751 1.13413,0.36104 2.07257,0.97978 2.8112,1.85759 0.73725,0.87919 1.10794,1.99402 1.10794,3.34588 0,1.15479 -0.2825,2.15112 -0.84336,2.98759 -0.67661,1.01148 -1.50068,1.72943 -2.46944,2.15525 -0.96738,0.42305 -2.48874,0.63389 -4.56406,0.63389 h -3.64905 v 5.11528 c 0,0.76481 0.0441,1.24713 0.13229,1.44419 0.113,0.2756 0.2701,0.46991 0.46854,0.57877 0.20119,0.11025 0.60771,0.16537 1.21818,0.16537 h 0.68351 v 1.20165 h -7.71702 v -1.20165 h 0.46854 c 0.65732,0 1.10518,-0.0551 1.34496,-0.16537 0.2384,-0.10886 0.41341,-0.28112 0.52366,-0.51263 0.10886,-0.23426 0.16536,-0.67524 0.16536,-1.32291 v -13.63707 c 0,-0.63114 -0.0524,-1.0542 -0.15434,-1.2678 -0.0992,-0.21221 -0.26734,-0.36931 -0.5016,-0.46853 -0.23151,-0.10197 -0.69178,-0.15434 -1.37804,-0.15434 h -0.46854 z m 5.2145,1.55442 v 8.36745 h 3.07578 c 1.55305,0 2.64308,-0.1378 3.26871,-0.41341 0.62425,-0.27836 1.14101,-0.75792 1.54891,-1.43867 0.41066,-0.68213 0.61737,-1.48277 0.61737,-2.39779 0,-0.99907 -0.23978,-1.83554 -0.71658,-2.50803 -0.47818,-0.6711 -1.12724,-1.12585 -1.94579,-1.3615 -0.57051,-0.16399 -1.68535,-0.24805 -3.34588,-0.24805 z m 0,0"
         id="path11608"
         inkscape:connector-curvature="0" />
      <path
         style="fill:#4f3f45;fill-opacity:1;stroke:none;stroke-width:0.35277778"
         d="m 161.17469,173.04947 h 1.03078 l 1.52686,6.14605 -1.31189,0.40239 c -0.83785,-1.72669 -1.95406,-3.08681 -3.34588,-4.079 -1.14377,-0.82544 -2.41156,-1.24023 -3.80338,-1.24023 -0.83785,0 -1.59164,0.15158 -2.25998,0.45199 -0.6656,0.29766 -1.16582,0.68627 -1.49931,1.16307 -0.33486,0.47818 -0.50161,0.96325 -0.50161,1.45521 0,0.44924 0.12816,0.8847 0.38586,1.30638 0.25631,0.41892 0.6463,0.78961 1.16857,1.10794 0.52503,0.31695 1.38493,0.65181 2.57969,1.00321 l 3.73173,1.10243 c 0.45475,0.13229 1.11896,0.38999 1.98988,0.7717 0.87368,0.3831 1.55443,0.78686 2.0395,1.21268 0.48369,0.42305 0.86541,0.9412 1.14102,1.55442 0.27836,0.61461 0.41892,1.2802 0.41892,1.9954 0,1.58061 -0.69591,2.96416 -2.08359,4.15065 -1.38631,1.18787 -3.17914,1.78043 -5.37987,1.78043 -1.1355,0 -2.15249,-0.16399 -3.04822,-0.49058 -0.8971,-0.32935 -1.86448,-0.91502 -2.89939,-1.75287 l -0.66146,1.9017 h -0.9977 l -1.32842,-7.16029 1.32842,-0.27561 c 0.4837,1.32705 1.13,2.45429 1.93477,3.37895 0.80753,0.92329 1.69912,1.62195 2.67339,2.09462 0.97703,0.47129 1.9706,0.70556 2.98208,0.70556 1.3739,0 2.57555,-0.41479 3.60495,-1.24575 0.85576,-0.69315 1.28433,-1.51309 1.28433,-2.45842 0,-0.86679 -0.31006,-1.57785 -0.92604,-2.1332 -0.63252,-0.54984 -1.757,-1.06523 -3.37344,-1.54341 l -3.57739,-1.02526 c -2.00367,-0.58291 -3.41478,-1.32843 -4.23333,-2.23242 -0.81993,-0.90261 -1.22921,-1.94166 -1.22921,-3.11437 0,-0.91364 0.26596,-1.75975 0.79926,-2.53559 0.53606,-0.77859 1.35737,-1.4304 2.46393,-1.95681 1.10519,-0.52503 2.31511,-0.78824 3.627,-0.78824 1.10519,0 2.16352,0.19155 3.175,0.57327 0.7152,0.26871 1.3739,0.65181 1.97335,1.14652 z m 0,0"
         id="path11612"
         inkscape:connector-curvature="0" />
      <path
         style="fill:#94c745;fill-opacity:1;stroke:none;stroke-width:0.35277778"
         d="m 77.200619,195.89839 h 0.62288 v 1.38907 h 1.63159 v -1.38907 h 0.62288 v 3.4947 h -0.62288 v -1.54339 h -1.63159 v 1.54339 h -0.62288 z m 0,0"
         id="path11540"
         inkscape:connector-curvature="0" />
      <path
         style="fill:#94c745;fill-opacity:1;stroke:none;stroke-width:0.35277778"
         d="m 82.688449,197.66228 c 0,-0.28249 0.0455,-0.53744 0.1378,-0.7662 0.0909,-0.22737 0.21773,-0.42168 0.38034,-0.58428 0.16399,-0.16123 0.35967,-0.28387 0.58429,-0.36931 0.22324,-0.0868 0.47129,-0.13229 0.74414,-0.13229 0.27147,-0.003 0.5209,0.0372 0.74965,0.12126 0.22738,0.0813 0.42168,0.20257 0.58429,0.3638 0.16399,0.16261 0.29352,0.35691 0.38585,0.58429 0.0951,0.22875 0.14332,0.48231 0.14332,0.76069 0,0.27284 -0.0482,0.52088 -0.14332,0.74413 -0.0923,0.22462 -0.22186,0.41755 -0.38585,0.57877 -0.16261,0.16261 -0.35691,0.2894 -0.58429,0.38035 -0.22875,0.0868 -0.47818,0.13367 -0.74965,0.1378 -0.27285,0 -0.5209,-0.0427 -0.74414,-0.12678 -0.22462,-0.0868 -0.4203,-0.21084 -0.58429,-0.36932 -0.16261,-0.16122 -0.28939,-0.35416 -0.38034,-0.57877 -0.0923,-0.22325 -0.1378,-0.47129 -0.1378,-0.74414 z m 0.65043,-0.0441 c 0,0.18741 0.0276,0.36104 0.0827,0.51813 0.0579,0.15848 0.14056,0.29628 0.24804,0.41342 0.10611,0.11438 0.23151,0.20533 0.37483,0.2701 0.14607,0.0661 0.31144,0.0992 0.49609,0.0992 0.17915,0 0.34313,-0.0331 0.49058,-0.0992 0.15021,-0.0648 0.27699,-0.15572 0.38034,-0.2701 0.10611,-0.11714 0.18742,-0.25494 0.24254,-0.41342 0.0579,-0.15709 0.0882,-0.33072 0.0882,-0.51813 0,-0.17226 -0.0303,-0.33349 -0.0882,-0.48507 -0.0551,-0.15296 -0.13643,-0.28663 -0.24254,-0.39688 -0.10335,-0.113 -0.23013,-0.20119 -0.38034,-0.26458 -0.14745,-0.0648 -0.31143,-0.0992 -0.49058,-0.0992 -0.18465,0 -0.35002,0.0344 -0.49609,0.0992 -0.14332,0.0634 -0.26872,0.15158 -0.37483,0.26458 -0.10748,0.11025 -0.19017,0.24392 -0.24804,0.39688 -0.0551,0.15158 -0.0827,0.31281 -0.0827,0.48507 z m 0,0"
         id="path11544"
         inkscape:connector-curvature="0" />
      <path
         style="fill:#94c745;fill-opacity:1;stroke:none;stroke-width:0.35277778"
         d="m 89.019729,195.89839 h 0.9536 l 0.93155,2.44739 0.942581,-2.44739 h 0.93707 v 3.4947 h -0.589801 v -2.9049 h -0.01101 l -1.063841,2.9049 h -0.435449 l -1.05834,-2.9049 h -0.011 v 2.9049 h -0.59531 z m 0,0"
         id="path11548"
         inkscape:connector-curvature="0" />
      <path
         style="fill:#94c745;fill-opacity:1;stroke:none;stroke-width:0.35277778"
         d="m 95.60412,195.89839 h 2.31511 v 0.56223 H 96.227 v 0.8599 h 1.604028 v 0.56225 H 96.227 v 0.94809 h 1.780418 v 0.56223 H 95.60412 Z m 0,0"
         id="path11552"
         inkscape:connector-curvature="0" />
      <path
         style="fill:#94c745;fill-opacity:1;stroke:none;stroke-width:0.35277778"
         d="m 101.34933,196.46062 h -1.07487 v -0.56223 h 2.7671 v 0.56223 h -1.06935 v 2.93247 h -0.62288 z m 0,0"
         id="path11556"
         inkscape:connector-curvature="0" />
      <path
         style="fill:#94c745;fill-opacity:1;stroke:none;stroke-width:0.35277778"
         d="m 105.28994,197.66228 c 0,-0.28249 0.0455,-0.53744 0.1378,-0.7662 0.091,-0.22737 0.21773,-0.42168 0.38034,-0.58428 0.16399,-0.16123 0.35967,-0.28387 0.58429,-0.36931 0.22324,-0.0868 0.47129,-0.13229 0.74414,-0.13229 0.27147,-0.003 0.5209,0.0372 0.74965,0.12126 0.22738,0.0813 0.42168,0.20257 0.58429,0.3638 0.16399,0.16261 0.29352,0.35691 0.38585,0.58429 0.0951,0.22875 0.14332,0.48231 0.14332,0.76069 0,0.27284 -0.0482,0.52088 -0.14332,0.74413 -0.0923,0.22462 -0.22186,0.41755 -0.38585,0.57877 -0.16261,0.16261 -0.35691,0.2894 -0.58429,0.38035 -0.22875,0.0868 -0.47818,0.13367 -0.74965,0.1378 -0.27285,0 -0.5209,-0.0427 -0.74414,-0.12678 -0.22462,-0.0868 -0.4203,-0.21084 -0.58429,-0.36932 -0.16261,-0.16122 -0.28939,-0.35416 -0.38034,-0.57877 -0.0923,-0.22325 -0.1378,-0.47129 -0.1378,-0.74414 z m 0.65043,-0.0441 c 0,0.18741 0.0276,0.36104 0.0827,0.51813 0.0579,0.15848 0.14056,0.29628 0.24804,0.41342 0.10611,0.11438 0.23151,0.20533 0.37483,0.2701 0.14607,0.0661 0.31144,0.0992 0.49609,0.0992 0.17915,0 0.34313,-0.0331 0.49058,-0.0992 0.15021,-0.0648 0.27699,-0.15572 0.38034,-0.2701 0.10611,-0.11714 0.18742,-0.25494 0.24254,-0.41342 0.0579,-0.15709 0.0882,-0.33072 0.0882,-0.51813 0,-0.17226 -0.0303,-0.33349 -0.0882,-0.48507 -0.0551,-0.15296 -0.13643,-0.28663 -0.24254,-0.39688 -0.10335,-0.113 -0.23013,-0.20119 -0.38034,-0.26458 -0.14745,-0.0648 -0.31143,-0.0992 -0.49058,-0.0992 -0.18465,0 -0.35002,0.0344 -0.49609,0.0992 -0.14332,0.0634 -0.26872,0.15158 -0.37483,0.26458 -0.10748,0.11025 -0.19017,0.24392 -0.24804,0.39688 -0.0551,0.15158 -0.0827,0.31281 -0.0827,0.48507 z m 0,0"
         id="path11560"
         inkscape:connector-curvature="0" />
      <path
         style="fill:#94c745;fill-opacity:1;stroke:none;stroke-width:0.35277778"
         d="m 111.21883,195.89839 h 0.68351 l 0.65594,2.51905 h 0.011 l 0.78272,-2.51905 h 0.61185 l 0.7717,2.51905 h 0.011 l 0.6835,-2.51905 h 0.6339 l -1.01975,3.4947 h -0.5898 l -0.81028,-2.66237 h -0.011 l -0.81028,2.66237 h -0.57327 z m 0,0"
         id="path11564"
         inkscape:connector-curvature="0" />
      <path
         style="fill:#94c745;fill-opacity:1;stroke:none;stroke-width:0.35277778"
         d="m 118.47918,195.89839 h 0.82131 l 1.69775,2.59622 h 0.011 v -2.59622 h 0.61736 v 3.4947 h -0.78824 l -1.73081,-2.68442 h -0.006 v 2.68442 h -0.62288 z m 0,0"
         id="path11568"
         inkscape:connector-curvature="0" />
      <path
         style="fill:#94c745;fill-opacity:1;stroke:none;stroke-width:0.35277778"
         d=""
         id="path11572"
         inkscape:connector-curvature="0" />
      <path
         style="fill:#94c745;fill-opacity:1;stroke:none;stroke-width:0.35277778"
         d="m 127.88984,195.89839 h 2.25447 v 0.56223 h -1.63159 v 0.91502 h 1.53789 v 0.56776 h -1.53789 v 1.44969 h -0.62288 z m 0,0"
         id="path11576"
         inkscape:connector-curvature="0" />
      <path
         style="fill:#94c745;fill-opacity:1;stroke:none;stroke-width:0.35277778"
         d="m 132.73444,195.89839 h 1.21268 c 0.16812,0 0.33073,0.0179 0.48507,0.0496 0.15709,0.0303 0.29765,0.0841 0.41892,0.15985 0.11989,0.0744 0.21773,0.17501 0.29214,0.30317 0.073,0.12953 0.11025,0.29352 0.11025,0.49058 0,0.25356 -0.0703,0.46715 -0.20947,0.63941 -0.14055,0.1695 -0.34037,0.27286 -0.60082,0.30869 l 0.92604,1.54339 h -0.74965 l -0.81029,-1.48277 h -0.45199 v 1.48277 h -0.62288 z m 1.10243,1.47725 c 0.091,0 0.1819,-0.003 0.2701,-0.011 0.0868,-0.007 0.16812,-0.0248 0.24253,-0.0551 0.073,-0.0317 0.1323,-0.0799 0.17639,-0.14331 0.0469,-0.0648 0.0717,-0.15572 0.0717,-0.2701 0,-0.10197 -0.0234,-0.18465 -0.0661,-0.24804 -0.0413,-0.062 -0.0965,-0.10749 -0.16536,-0.13781 -0.0661,-0.0317 -0.14194,-0.0551 -0.226,-0.0661 -0.0854,-0.01 -0.16812,-0.0165 -0.24805,-0.0165 h -0.53467 v 0.94809 z m 0,0"
         id="path11580"
         inkscape:connector-curvature="0" />
      <path
         style="fill:#94c745;fill-opacity:1;stroke:none;stroke-width:0.35277778"
         d="m 137.85757,195.89839 h 2.31511 v 0.56223 h -1.69223 v 0.8599 h 1.60403 v 0.56225 h -1.60403 v 0.94809 h 1.78042 v 0.56223 h -2.4033 z m 0,0"
         id="path11584"
         inkscape:connector-curvature="0" />
      <path
         style="fill:#94c745;fill-opacity:1;stroke:none;stroke-width:0.35277778"
         d="m 144.60049,196.64804 c -0.0661,-0.0951 -0.15572,-0.16537 -0.26458,-0.20946 -0.11024,-0.0427 -0.22738,-0.0661 -0.34727,-0.0661 -0.0744,0 -0.14607,0.01 -0.21497,0.0276 -0.0661,0.0152 -0.12816,0.0413 -0.1819,0.0772 -0.0524,0.0331 -0.0951,0.0799 -0.12678,0.1378 -0.0331,0.0593 -0.0496,0.12816 -0.0496,0.20395 0,0.11852 0.04,0.20809 0.12127,0.2701 0.0799,0.0634 0.1819,0.11851 0.30317,0.16537 0.12402,0.0482 0.25907,0.0951 0.40238,0.1378 0.14607,0.0413 0.28112,0.10061 0.40239,0.1764 0.11989,0.0744 0.22186,0.17363 0.30317,0.29764 0.0841,0.12541 0.12678,0.29354 0.12678,0.50161 0,0.18741 -0.0358,0.35141 -0.10473,0.49058 -0.0703,0.14056 -0.16399,0.25632 -0.28112,0.34728 -0.11851,0.0923 -0.25494,0.16122 -0.4079,0.20394 -0.15434,0.0468 -0.31695,0.0716 -0.48507,0.0716 -0.21773,0 -0.42719,-0.0358 -0.62839,-0.10473 -0.20257,-0.073 -0.3762,-0.19568 -0.51814,-0.36931 l 0.46853,-0.452 c 0.0758,0.11438 0.17639,0.20533 0.29766,0.2701 0.12402,0.0634 0.25494,0.0937 0.39136,0.0937 0.073,0 0.1447,-0.008 0.21498,-0.0276 0.073,-0.0207 0.13918,-0.051 0.19843,-0.0882 0.062,-0.04 0.11025,-0.0896 0.14332,-0.14883 0.0358,-0.062 0.0551,-0.13367 0.0551,-0.21497 0,-0.12816 -0.0413,-0.22738 -0.12127,-0.29766 -0.0813,-0.0689 -0.18465,-0.12678 -0.30868,-0.17088 -0.12126,-0.0468 -0.25631,-0.0937 -0.40238,-0.1378 -0.14332,-0.0427 -0.27699,-0.10197 -0.39688,-0.17639 -0.12127,-0.073 -0.22462,-0.17087 -0.30868,-0.29214 -0.0813,-0.12403 -0.12127,-0.29215 -0.12127,-0.50161 0,-0.17914 0.0358,-0.33624 0.11025,-0.46853 0.0758,-0.13091 0.17363,-0.23978 0.29214,-0.32522 0.11989,-0.0868 0.25907,-0.15158 0.41341,-0.19292 0.15296,-0.0427 0.31144,-0.0661 0.47405,-0.0661 0.18328,0 0.36104,0.0289 0.53468,0.0827 0.17225,0.0551 0.32797,0.14745 0.46853,0.27561 z m 0,0"
         id="path11588"
         inkscape:connector-curvature="0" />
      <path
         style="fill:#94c745;fill-opacity:1;stroke:none;stroke-width:0.35277778"
         d="m 147.7308,195.89839 h 0.62288 v 1.38907 h 1.63159 v -1.38907 h 0.62288 v 3.4947 h -0.62288 v -1.54339 h -1.63159 v 1.54339 h -0.62288 z m 0,0"
         id="path11592"
         inkscape:connector-curvature="0" />
      <path
         style="fill:#4f3f45;fill-opacity:1;stroke:none;stroke-width:0.35277778"
         d="m 163.6693,172.50416 h -0.1819 v -1.5875 h -0.58429 v -0.15985 h 1.35048 v 0.15985 h -0.58429 z m 0,0"
         id="path11532"
         inkscape:connector-curvature="0" />
      <path
         style="fill:#4f3f45;fill-opacity:1;stroke:none;stroke-width:0.35277778"
         d="m 165.33351,172.17894 0.5898,-1.42213 h 0.27561 v 1.74735 h -0.1819 v -1.51033 l -0.6339,1.51033 h -0.0937 l -0.6339,-1.51033 h -0.006 v 1.51033 h -0.17639 v -1.74735 h 0.2701 z m 0,0"
         id="path11536"
         inkscape:connector-curvature="0" />
    </g>
  </g>
</svg>
