<svg width="500" height="216" viewBox="0 0 500 216" fill="none" xmlns="http://www.w3.org/2000/svg">
<g clip-path="url(#clip0_2_1336)">
<path d="M46.2644 7.64814H437.068V144.142H46.2644V7.64814ZM39.4253 151.039H444.022V0.808997H39.4253V151.039Z" fill="#231F20"/>
<path d="M147.701 40.062V111.614L153.333 112.361V116.556H125.574V112.361L131.551 111.614V79.0275H96.0343V111.614L101.494 112.361V116.556H74.1953V112.361L79.6551 111.614V40.062L74.1953 39.3149V35.2345H101.494V39.3149L96.0343 40.062V70.6366H131.551V40.062L125.574 39.3149V35.2345H153.333V39.3149L147.701 40.062Z" fill="#231F20"/>
<path d="M185.574 112.131L190.804 112.878V116.556H165.287V112.878L170.517 112.131V63.108L165.287 62.3609V58.6828H185.574V112.131Z" fill="#231F20"/>
<path d="M201.896 112.993L207.011 112.303V39.6025L201.896 38.8555V35.2921H222.183V112.303L227.413 112.993V116.614H201.896V112.993Z" fill="#231F20"/>
<path d="M258.448 58.6826H272.126V64.0848H258.448V98.51C258.448 107.418 260.287 110.234 268.39 110.234C271.379 110.234 274.023 110.234 276.494 109.602V113.568C269.138 116.154 262.931 117.246 257.701 117.246C245.977 117.246 243.276 111.958 243.276 101.843V64.0848H232.586V58.6826H243.678V46.6137L258.505 42.1883V58.6826" fill="#231F20"/>
<path d="M340.804 88.1653C340.804 106.211 328.62 118.28 309.425 118.28C290.862 118.28 279.022 110.407 279.022 88.1653C279.022 69.5447 291.206 57.0735 310.402 57.0735C329.367 57.0735 340.804 68.3378 340.804 88.1653ZM324.137 87.8206C324.137 69.5448 318.678 61.5563 309.827 61.5563C301.206 61.5563 295.747 69.1999 295.747 87.8206C295.747 106.211 301.206 113.855 309.827 113.855C319.022 113.855 324.137 106.556 324.137 87.8206Z" fill="#231F20"/>
<path d="M410.114 112.878V116.556H384.597V112.878L389.712 112.131V79.1999C389.712 70.062 386.321 65.9816 379.367 65.9816C376.149 65.9816 371.034 68.2229 367.298 70.8091V112.131L372.528 112.878V116.556H346.896V112.878L352.126 112.131V63.5103L346.896 62.7631V58.6828H367.298V66.7287C373.62 61.6713 379.769 57.5907 388.333 57.5907C399.769 57.5907 404.884 64.2575 404.884 77.3609V112.188L410.114 112.878Z" fill="#231F20"/>
<path d="M186.322 43.3953C186.322 47.878 182.643 51.5562 178.103 51.5562C173.563 51.5562 169.885 47.9355 169.885 43.3953C169.885 38.9125 173.563 35.2344 178.103 35.2344C182.643 35.2344 186.322 38.9125 186.322 43.3953Z" fill="#231F20"/>
<path d="M454.252 5.23466H455.459C456.263 5.23466 456.551 5.00469 456.551 4.42998C456.551 3.85527 456.263 3.62544 455.459 3.62544H454.252V5.23466ZM457.585 4.37259C457.585 5.17719 457.24 5.63687 456.551 5.86676L457.815 7.7058H456.665L455.516 6.0392H454.252V7.7058H453.275V2.76337H455.459C456.953 2.76337 457.585 3.28064 457.585 4.37259ZM451.263 5.29204C451.263 7.53342 453.102 9.42994 455.401 9.42994C457.642 9.42994 459.539 7.59089 459.539 5.29204C459.539 3.05067 457.7 1.15415 455.401 1.15415C453.102 1.15415 451.263 2.9932 451.263 5.29204ZM460.574 5.29204C460.574 8.1656 458.217 10.522 455.344 10.522C452.47 10.522 450.114 8.1656 450.114 5.29204C450.114 2.41849 452.47 0.0622568 455.344 0.0622568C458.275 0.0622568 460.574 2.36102 460.574 5.29204Z" fill="#231F20"/>
<path d="M54.1956 214.832H48.0462C47.3565 214.832 47.0117 214.487 47.0117 213.798V180.349C47.0117 179.66 47.3565 179.315 48.0462 179.315H70.23C70.9197 179.315 71.2645 179.66 71.2645 180.349V185.752C71.2645 186.441 70.9197 186.786 70.23 186.786H55.2301V195.349H66.5519C67.2416 195.349 67.5864 195.694 67.5864 196.384V201.384C67.5864 202.073 67.2416 202.418 66.5519 202.418H55.2301V213.97C55.2301 214.545 54.8853 214.832 54.1956 214.832Z" fill="#231F20"/>
<path d="M100.632 206.269C102.184 205.349 103.39 204.085 104.31 202.476C105.23 200.866 105.689 199.085 105.689 197.131C105.689 195.177 105.23 193.395 104.31 191.786C103.39 190.177 102.126 188.912 100.574 187.993C99.0226 187.073 97.356 186.613 95.5744 186.613C93.7927 186.613 92.0686 187.073 90.5744 187.993C89.0226 188.912 87.8157 190.177 86.8962 191.786C85.9767 193.395 85.5169 195.177 85.5169 197.131C85.5169 199.085 85.9767 200.866 86.8962 202.476C87.8157 204.085 89.0801 205.349 90.6318 206.269C92.1836 207.188 93.8502 207.648 95.6318 207.648C97.4134 207.648 99.0801 207.188 100.632 206.269ZM86.264 213.05C83.4479 211.384 81.2066 209.2 79.5974 206.384C77.9882 203.567 77.1836 200.464 77.1836 197.073C77.1836 193.682 77.9882 190.637 79.5974 187.82C81.2066 185.004 83.4479 182.82 86.264 181.154C89.0801 179.545 92.1836 178.74 95.6318 178.74C99.0226 178.74 102.126 179.545 104.942 181.154C107.758 182.763 110 185.004 111.609 187.82C113.218 190.637 114.023 193.74 114.023 197.073C114.023 200.464 113.218 203.51 111.609 206.384C110 209.2 107.758 211.441 104.942 213.05C102.126 214.717 99.0226 215.521 95.6318 215.521C92.1836 215.464 89.0801 214.659 86.264 213.05Z" fill="#231F20"/>
<path d="M139.138 195.579C139.885 195.119 140.459 194.544 140.862 193.797C141.264 193.05 141.494 192.245 141.494 191.326C141.494 190.349 141.264 189.487 140.862 188.74C140.459 188.05 139.885 187.475 139.138 187.131C138.448 186.786 137.643 186.613 136.724 186.613H130.517V196.211H136.609C137.528 196.211 138.39 196.039 139.138 195.579ZM122.356 213.855V180.406C122.356 179.717 122.701 179.372 123.39 179.372H137.413C139.827 179.372 142.011 179.889 143.85 180.866C145.747 181.901 147.183 183.28 148.218 185.062C149.252 186.843 149.77 188.912 149.77 191.268C149.77 193.567 149.31 195.521 148.333 197.13C147.356 198.74 146.034 200.062 144.252 201.096L150.459 213.625C150.574 213.855 150.632 214.027 150.632 214.142C150.632 214.372 150.574 214.487 150.402 214.602C150.229 214.717 150 214.774 149.77 214.774H142.701C142.126 214.774 141.724 214.544 141.494 214.027L136.436 203.165H130.517V213.74C130.517 214.429 130.172 214.774 129.482 214.774H123.333C122.643 214.832 122.356 214.544 122.356 213.855Z" fill="#231F20"/>
<path d="M191.838 214.832H185.689C184.999 214.832 184.655 214.487 184.655 213.798V186.959H175.804C175.114 186.959 174.77 186.614 174.77 185.924V180.292C174.77 179.602 175.114 179.257 175.804 179.257H201.723C202.413 179.257 202.758 179.602 202.758 180.292V185.924C202.758 186.614 202.413 186.959 201.723 186.959H192.815V213.798C192.873 214.545 192.528 214.832 191.838 214.832Z" fill="#231F20"/>
<path d="M219.425 214.832H213.275C212.586 214.832 212.241 214.487 212.241 213.798V180.349C212.241 179.66 212.586 179.315 213.275 179.315H219.425C220.114 179.315 220.459 179.66 220.459 180.349V192.418H234.884V180.349C234.884 179.66 235.229 179.315 235.919 179.315H242.126C242.815 179.315 243.16 179.66 243.16 180.349V213.798C243.16 214.487 242.815 214.832 242.126 214.832H235.919C235.229 214.832 234.884 214.487 234.884 213.798V200.234H220.459V213.798C220.402 214.545 220.114 214.832 219.425 214.832Z" fill="#231F20"/>
<path d="M280.344 214.832H256.379C255.689 214.832 255.344 214.487 255.344 213.798V180.349C255.344 179.66 255.689 179.315 256.379 179.315H279.999C280.689 179.315 281.034 179.66 281.034 180.349V185.809C281.034 186.499 280.689 186.844 279.999 186.844H263.563V193.223H276.206C276.896 193.223 277.241 193.568 277.241 194.257V199.257C277.241 199.947 276.896 200.292 276.206 200.292H263.563V207.476H280.344C281.034 207.476 281.379 207.821 281.379 208.51V213.97C281.321 214.545 280.976 214.832 280.344 214.832Z" fill="#231F20"/>
<path d="M313.333 213.912C310.976 212.878 308.907 211.383 307.126 209.429C306.896 209.2 306.838 208.97 306.838 208.74C306.838 208.51 306.953 208.223 307.241 207.993L311.149 204.257C311.379 204.027 311.608 203.912 311.838 203.912C312.126 203.912 312.356 204.027 312.585 204.314C313.735 205.464 314.999 206.383 316.436 206.958C317.873 207.533 319.367 207.878 320.861 207.878C322.471 207.878 323.735 207.59 324.597 206.958C325.459 206.383 325.919 205.521 325.919 204.487C325.919 203.797 325.746 203.165 325.344 202.705C324.942 202.188 324.252 201.728 323.275 201.326C322.298 200.866 320.919 200.406 319.137 199.889C316.206 199.027 313.677 197.763 311.494 196.039C309.367 194.314 308.275 191.958 308.275 188.855C308.275 187.016 308.735 185.349 309.712 183.797C310.631 182.246 312.068 181.039 313.965 180.119C315.861 179.2 318.16 178.74 320.861 178.74C323.16 178.74 325.344 179.142 327.47 179.947C329.539 180.751 331.436 181.843 333.103 183.28C333.333 183.51 333.505 183.74 333.505 183.97C333.505 184.2 333.39 184.429 333.218 184.659L329.654 188.682C329.425 188.97 329.195 189.085 328.907 189.085C328.677 189.085 328.447 188.97 328.218 188.797C327.241 188.05 326.149 187.418 324.884 186.901C323.62 186.383 322.413 186.154 321.206 186.154C319.827 186.154 318.735 186.383 317.988 186.843C317.183 187.303 316.838 187.993 316.838 188.855C316.838 189.544 317.068 190.119 317.528 190.636C317.988 191.096 318.562 191.498 319.31 191.843C320.057 192.188 321.206 192.59 322.7 193.05C322.758 193.05 322.988 193.108 323.333 193.28C325.746 194.085 327.758 194.947 329.367 195.866C330.976 196.786 332.183 197.935 333.103 199.314C334.022 200.694 334.425 202.36 334.425 204.314C334.425 206.556 333.85 208.51 332.758 210.176C331.666 211.843 330.114 213.165 328.16 214.085C326.149 215.004 323.907 215.464 321.264 215.464C318.275 215.464 315.689 214.947 313.333 213.912Z" fill="#231F20"/>
<path d="M357.643 214.832H351.493C350.804 214.832 350.459 214.487 350.459 213.798V186.959H341.608C340.919 186.959 340.574 186.614 340.574 185.924V180.292C340.574 179.602 340.919 179.257 341.608 179.257H367.528C368.217 179.257 368.562 179.602 368.562 180.292V185.924C368.562 186.614 368.217 186.959 367.528 186.959H358.62V213.798C358.677 214.545 358.332 214.832 357.643 214.832Z" fill="#231F20"/>
<path d="M392.241 201.901L388.218 190.522L387.815 189.085L387.47 190.522L383.448 201.901H392.241ZM404.769 214.142C404.769 214.372 404.712 214.545 404.539 214.66C404.367 214.775 404.195 214.832 403.907 214.832H397.585C397.011 214.832 396.608 214.545 396.436 213.97L394.539 208.74H381.034L379.195 213.97C379.022 214.545 378.62 214.832 378.045 214.832H371.723C371.436 214.832 371.264 214.775 371.091 214.66C370.919 214.545 370.861 214.372 370.861 214.142C370.861 214.027 370.861 213.855 370.919 213.74L383.965 180.177C384.195 179.66 384.539 179.372 385.114 179.372H390.574C391.149 179.372 391.551 179.66 391.781 180.177L404.712 213.74C404.769 213.855 404.769 213.97 404.769 214.142Z" fill="#231F20"/>
<path d="M424.827 214.832H418.62C417.93 214.832 417.585 214.487 417.585 213.798V200.981L405.919 180.522C405.804 180.292 405.746 180.119 405.746 179.947C405.746 179.717 405.804 179.602 405.976 179.487C406.148 179.372 406.321 179.315 406.608 179.315H413.907C414.482 179.315 414.884 179.545 415.114 180.062L421.781 193.338L428.275 180.062C428.505 179.545 428.907 179.315 429.482 179.315H436.781C437.068 179.315 437.24 179.372 437.413 179.487C437.585 179.602 437.643 179.775 437.643 179.947C437.643 180.119 437.585 180.292 437.47 180.522L425.861 200.924V213.798C425.861 214.545 425.516 214.832 424.827 214.832Z" fill="#231F20"/>
<path d="M441.421 177.954V177.795H442.527V177.954H442.064V179.27H441.885V177.954H441.421Z" fill="black"/>
<path d="M446.936 177.795H447.149L447.65 179.019H447.668L448.169 177.795H448.382V179.27H448.215V178.149H448.201L447.74 179.27H447.578L447.117 178.149H447.103V179.27H446.936V177.795Z" fill="black"/>
</g>
<defs>
<clipPath id="clip0_2_1336">
<rect width="500" height="215.517" fill="white"/>
</clipPath>
</defs>
</svg>
