<?xml version="1.0" standalone="no"?><!DOCTYPE svg PUBLIC "-//W3C//DTD SVG 1.1//EN" "http://www.w3.org/Graphics/SVG/1.1/DTD/svg11.dtd"><svg width="83px" height="100px" viewBox="0 0 83 100" version="1.1" xmlns="http://www.w3.org/2000/svg" xmlns:xlink="http://www.w3.org/1999/xlink"><defs xmlns="http://www.w3.org/2000/svg"></defs>
      <g>
        <path fill="#FFBE46" d="M3.32,0h76.362C81.514,0,83,1.492,83,3.333v93.333c0,1.841-1.486,3.333-3.318,3.333H3.32
          C1.487,100,0,98.507,0,96.667V3.333C0.001,1.492,1.487,0,3.32,0L3.32,0z"/>
        <path fill="#FA6E0A" d="M9.131,6.25h64.741c0.916,0,1.66,0.746,1.66,1.667v84.167c0,0.92-0.744,1.667-1.66,1.667H9.131
          c-0.916,0-1.66-0.747-1.66-1.667V7.917C7.471,6.996,8.214,6.25,9.131,6.25L9.131,6.25z"/>
        <path fill="#F03C14" d="M12.035,8.75h58.932c0.457,0,0.83,0.373,0.83,0.833v80.833c0,0.46-0.373,0.833-0.83,0.833H12.035
          c-0.458,0-0.83-0.373-0.83-0.833V9.583C11.206,9.123,11.577,8.75,12.035,8.75L12.035,8.75z"/>
        <path fill="#001E78" d="M13.696,10h55.609c0.23,0,0.416,0.187,0.416,0.417v79.167c0,0.229-0.186,0.416-0.416,0.416H13.696
          c-0.229,0-0.416-0.188-0.416-0.417V10.417C13.28,10.187,13.467,10,13.696,10L13.696,10z"/>
        <g>
          <polygon fill="#00B4DC" points="41.135,43.75 60.592,43.75 60.592,41.25 41.838,41.25"/>
          <polygon fill="#00B4DC" points="42.307,39.583 60.592,39.583 60.592,37.083 43.008,37.083"/>
          <polygon fill="#00B4DC" points="39.965,47.917 60.592,47.917 60.592,45.417 40.667,45.417"/>
          <polygon fill="#00B4DC" points="35.514,57.5 47.415,15 44.727,15 32.825,57.5"/>
          <polygon fill="#00B4DC" points="31.032,57.5 42.934,15 40.245,15 28.344,57.5"/>
          <path fill="#00B4DC" d="M17.846,12.5V60h47.311V12.5H17.846z M63.081,58.75h-43.16v-45h43.16V58.75z"/>
          <polygon fill="#00B4DC" points="38.452,15 35.763,15 23.862,57.5 26.55,57.5"/>
        </g>
      </g>
      <path fill-rule="evenodd" clip-rule="evenodd" fill="#FFFFFF" d="M65.48,70.301c-0.268-0.062-0.595-0.123-0.8-0.123
        c-0.819,0-2.173,0.368-2.869,1.994l-0.308-1.749h-3.012v10.865h3.422v-4.486c0-2.263,0.615-3.766,2.131-3.766
        c0.328,0,0.8,0.083,1.005,0.185L65.48,70.301z M57.492,75.774c0-3.85-2.049-5.556-4.938-5.556c-2.746,0-5.144,1.646-5.144,5.822
        c0,4.095,2.377,5.453,5.144,5.453c2.091,0,3.771-0.617,4.386-1.049l-0.697-2.018c-1.146,0.576-2.274,0.761-3.033,0.761
        c-1.291,0-2.274-0.657-2.315-2.653h6.579C57.492,76.329,57.492,75.958,57.492,75.774z M54.009,74.744h-3.115
        c0.041-2.078,0.923-2.469,1.599-2.469S53.968,72.501,54.009,74.744z M47.537,66.432c-0.532-0.186-1.332-0.411-2.684-0.411
        c-2.111,0-2.869,1.111-2.869,2.982v1.42h-1.455l0.143,2.037h1.312v8.828h3.422V72.46h1.537l0.267-2.037h-1.804v-0.638
        c0-1.029,0-1.461,0.799-1.461c0.41,0,0.779,0.104,1.128,0.206L47.537,66.432z M40.45,75.856c0-4.383-2.091-5.638-5.247-5.638
        s-5.246,1.255-5.246,5.638s2.09,5.638,5.246,5.638S40.45,80.239,40.45,75.856z M36.946,75.856c0,2.551-0.41,3.538-1.742,3.538
        c-1.332,0-1.742-0.987-1.742-3.538c0-2.553,0.41-3.54,1.742-3.54C36.536,72.316,36.946,73.304,36.946,75.856z M28.687,81.288V67.563
        h-3.484v5.391h-3.874v-5.391h-3.484v13.725h3.484v-5.782h3.874v5.782H28.687z">
      </path>
    </svg>