<svg width="500" height="179" viewBox="0 0 500 179" fill="none" xmlns="http://www.w3.org/2000/svg">
<g clip-path="url(#clip0_2_2139)">
<path d="M96.1291 0.0229565C40.1164 0.00438496 0 35.6177 0 86.9992C0 145.84 47.1374 178.369 101.477 178.371H402.11C457.634 178.396 500 138.696 499.901 87.442C499.817 45.139 467.346 0.0464152 405.692 0.0669416L96.1291 0.0229565Z" fill="white"/>
<path d="M84.5911 78.6959L79.1731 98.6906C78.8535 99.9222 77.9533 101.68 80.0606 103.009L79.7479 105.778C72.419 105.089 64.3364 104.784 60.5967 105.658L55.7095 105.078L73.2791 42.4971C73.7825 40.5843 74.1676 39.0399 74.0161 37.1554C73.9105 36.6627 73.2185 35.8876 72.808 35.7039L73.1589 33.2661C76.7872 33.5769 84.4533 34.6443 91.488 33.3248L97.2413 33.8985C97.2413 33.8985 95.9911 38.5785 95.2052 41.3897L86.4414 72.7228C92.2592 68.3819 103.439 62.8799 110.02 62.0393L115.194 42.7376C115.685 41.1013 116.367 37.6138 116.094 36.6813C115.694 36.3299 115.243 36.0406 114.757 35.8231L115.32 33.2661C118.412 33.6923 128.335 34.4068 134.349 33.3248L139.325 33.8985C139.325 33.8985 138.077 38.5785 137.289 41.3897L128.611 72.237L121.392 98.6906C121.234 99.975 119.91 101.646 122.343 103.15L121.856 105.834C114.789 104.928 106.425 104.784 102.685 105.658L97.861 105.136L107.391 70.9487C101.483 70.9487 91.3482 73.8459 84.5911 78.6959ZM378.013 60.9054C371.184 62.1653 368.431 68.1356 367.209 72.2467C372.78 72.2927 379.344 72.2595 382.488 72.281C383.661 69.9713 384.865 66.2599 383.632 63.6345C382.51 61.4831 380.85 60.6523 378.013 60.9054ZM401.611 62.1155C404.666 66.7359 403.613 72.4061 402.427 76.8173L366.128 76.7606C364.342 82.7465 362.774 91.2405 368.53 96.7142C374.168 101.099 382.054 99.1129 386.834 96.7142C389.701 95.3478 392.321 93.7936 394.795 91.6726C395.8 92.651 398.155 95.4905 398.155 95.4905C388.891 102.781 376.578 109.448 361.875 106.506C354.654 105.562 347.679 99.8538 345.737 94.4026C341.997 80.4886 350.338 67.0448 363.448 59.9045C373.372 54.5931 393.763 51.6236 401.611 62.1155ZM168.653 60.5183C165.071 61.7294 161.596 64.9364 159.014 70.1902C154.85 78.6627 151.374 90.0246 153.296 98.9506C154.519 102.119 157.478 102.831 159.719 102.351C165.972 100.93 172.073 90.5485 174.622 83.4864C175.948 79.2609 179.235 68.7338 175.55 62.3022C173.979 60.4656 172.06 59.6758 168.653 60.5183ZM193.739 63.9805C200.591 74.0843 194.992 91.1574 182.908 99.977C175.444 105.445 166.829 107.718 156.38 107.379C150.479 107.324 143.979 105.24 139.827 101.878C134.445 97.8432 132.384 89.4088 133.184 85.7815C135.283 71.3954 148.213 58.4031 165.831 55.9722C175.439 54.6468 188.087 56.4199 193.739 63.9805ZM259.501 51.995C260.698 49.7312 256.568 47.1166 253.366 47.1576C241.011 46.7881 233.343 59.6426 226.549 68.2861L226.239 68.4171C226.239 68.4171 227.694 62.8476 228.504 60.1176L224.599 59.5155C216.865 61.1351 208.406 59.6132 206.657 59.4686L206.285 61.7089C208.912 63.0157 207.601 64.8778 207.296 66.9773L196.876 105.136L201.758 105.685C203.224 104.979 209.57 105.03 211.414 105.03L220.935 105.81L221.221 103.331C219.375 102.179 220.083 100.396 220.426 98.5509C220.426 98.5509 225.97 76.2289 228.348 72.713C233.673 60.8976 249.242 54.7191 246.258 65.4809C246.463 65.649 247.045 66.1719 247.045 66.1719C247.508 65.7682 257.382 56.0006 259.501 51.995ZM431.8 72.5664L439.471 44.9838C440.259 42.1716 441.552 37.3616 441.552 37.3616L436.46 36.8827C428.325 38.2902 422.363 36.9491 417.456 36.6579L417.065 39.3292C417.332 39.3292 417.786 39.771 418.335 40.4113C418.941 41.117 417.866 44.713 417.373 46.3473L400.991 105.169L406.326 105.629C410.066 104.757 417.897 104.877 424.963 105.783L425.432 103.377C423.73 102.356 423.983 100.692 424.196 99.6622L431.8 72.5664Z" fill="#ED1C24"/>
<path d="M264.559 60.0111C261.146 62.0852 248.276 69.2128 246.799 69.7953C246.68 70.2215 246.546 71.6779 246.546 71.6779C247.43 72.0053 248.007 72.9544 247.536 74.4323C244.879 84.1824 239 105.104 239 105.104L243.913 105.739C245.561 104.969 253.347 104.779 263.019 105.813L263.443 103.284L262.679 102.677C261.65 101.763 262.127 100.418 262.655 98.1648L267.178 81.6879C268.599 77.7068 269.229 68.8619 277.471 63.7987C279.034 63.0949 280.372 63.0363 281.192 63.1946C286.486 63.8075 283.865 70.8598 283.264 73.538L275.389 101.969L274.529 105.136L279.347 105.727C283.783 104.615 292.136 105.183 298.51 105.824L298.885 103.338L298.416 102.893C297.355 102.179 297.242 101.169 298.275 98.1267C298.275 98.1267 303.103 79.8484 304.944 73.7726C306.113 69.5187 311.208 61.7118 318.008 63.2875C319.937 63.9169 321.298 66.0654 320.087 70.5939L310.596 105.111L315.551 105.64C320.908 104.375 329.106 105.308 334.66 105.773L335.027 103.296C334.667 103.009 334.282 102.712 334.026 102.375C333.251 101.228 334.098 99.0904 334.534 97.073C334.534 97.073 341.31 73.7511 341.085 67.8404C340.985 65.2326 340.143 62.095 337.369 59.1822C334.486 56.0866 330.37 55.5519 328.003 55.16C317.162 53.8991 307.86 60.7793 304.149 65.6656C304.149 65.6656 303.345 62.3237 302.261 60.8047C300.768 58.6006 297.761 56.59 294.879 55.7494C283.12 52.5981 277.049 59.0238 270.721 65.6402L272.171 61.0882C273.372 56.9771 271.268 55.9341 264.559 60.0111Z" fill="#ED1C24"/>
<path d="M262.387 57.0345C271.475 48.3704 280.766 39.0036 284.217 30.0003C285.51 26.6897 286.278 22.4739 285.508 17.8359C284.3 10.5295 280.887 9.91567 278.824 10.2324C277.805 10.3878 275.547 11.5891 275.217 14.191C273.991 12.0123 270.25 10.3878 267.453 12.9203C267.453 12.9203 265.026 14.9789 266.307 19.1809C263.261 18.1546 260.224 20.2727 259.486 23.0125C259.121 25.8764 260.391 28.4764 263.996 29.3464C268.312 30.3844 274.005 35.9549 268.602 46.7567C267.237 49.8131 262.205 55.2605 261.643 56.0053C261.232 56.4207 261.705 57.6494 262.387 57.0345Z" fill="#00A650"/>
<path d="M310.906 124.222L313.195 116.201C313.421 115.432 313.916 113.741 313.633 113.409C313.383 113.106 313.175 112.898 313.05 112.898L313.232 111.642C315.496 111.777 318.132 112.41 321.886 111.746L324.234 111.972C324.234 111.972 323.638 114.235 323.277 115.559L319.331 130.186L315.822 142.938C315.727 143.426 315.606 144.208 316.393 144.687L316.18 145.821C312.916 145.394 309.418 145.338 307.693 145.749L305.812 145.735L307.244 140.113C305.536 143.814 301.673 146.169 298.899 146.169C296.064 146.144 294.059 145.422 292.331 143.633C290.618 141.861 289.699 137.53 290.025 135.283C291.031 128.239 295.581 122.293 304.045 121.098C306.189 120.798 309.952 121.475 310.906 124.222ZM308.597 133.088C310.448 126.359 308.186 123.914 305.672 124.366C304.105 124.8 302.453 125.803 301.212 128.376C299.21 132.526 296.983 137.579 298.578 141.162C299.423 143.065 302.193 142.593 303.426 141.526C304.584 140.526 307.303 138.359 308.23 134.352L308.597 133.088ZM323.973 140.53C326.594 142.197 328.929 142.942 332.627 143.135C336.675 143.348 339.221 142.255 339.82 139.958C340.736 136.438 325.107 135.843 327.183 128.815C328.014 126.004 329.866 124.077 332.971 122.724C336.087 121.316 339.34 121.057 342.397 121.057C345.454 121.057 348.405 121.419 351.216 122.048L349.829 126.314C348.234 125.058 345.658 124.234 343.009 124.234C341.834 124.234 337.311 124.385 336.705 126.887C336.314 128.524 339.561 129.378 340.843 129.802C342.825 130.462 344.926 131.158 346.479 132.252C348.536 133.657 350.041 135.481 349.254 138.135C347.192 145.111 338.716 146.571 332.485 146.571C329.197 146.571 325.802 145.79 322.753 145.166L323.973 140.53ZM270.847 123.328C269.131 123.919 267.462 125.491 266.222 128.063C264.223 132.211 262.55 137.778 263.473 142.148C264.065 143.697 265.483 144.048 266.558 143.814C269.562 143.118 272.489 138.034 273.713 134.574C274.351 132.504 275.932 127.351 274.164 124.202C273.409 123.3 272.485 122.916 270.847 123.328ZM282.893 125.021C286.184 129.97 283.494 138.332 277.693 142.65C274.109 145.328 269.974 146.44 264.955 146.274C262.121 146.248 259.002 145.228 257.006 143.584C254.422 141.605 253.434 137.475 253.821 135.699C254.826 128.655 261.037 122.293 269.495 121.098C274.109 120.453 280.18 121.32 282.893 125.021ZM214.67 124.547C214.67 124.547 208.458 124.593 202.651 124.519L204.968 116.213C204.968 116.213 214.471 116.233 216.127 116.233C217.782 116.233 219.417 117.787 219.526 118.723H220.983L222.666 112.004C222.666 112.004 199.807 112.083 194.969 111.863L194.708 113.065C194.898 113.151 195.133 113.291 195.324 113.47C195.451 113.91 195.137 115.551 194.91 116.319L186.912 145.686L189.137 145.93C190.863 145.519 194.722 145.585 197.984 146.016L198.209 144.75C197.085 144.042 197.696 143.259 197.769 142.65L201.617 128.771L208.131 128.777C209.787 128.777 211.422 130.334 211.533 131.27H212.989L214.67 124.547ZM234.888 123.328C233.167 123.919 231.499 125.491 230.259 128.063C228.261 132.211 226.589 137.778 227.514 142.148C228.1 143.697 229.522 144.048 230.597 143.814C233.599 143.118 236.528 138.034 237.754 134.574C238.389 132.504 239.967 127.351 238.199 124.202C237.445 123.3 236.523 122.916 234.888 123.328ZM246.932 125.021C250.219 129.97 247.532 138.332 241.731 142.65C238.146 145.328 234.012 146.44 228.993 146.274C226.159 146.248 223.04 145.228 221.046 143.584C218.461 141.605 217.473 137.475 217.857 135.699C218.865 128.655 225.072 122.293 233.532 121.098C238.146 120.453 244.217 121.32 246.933 125.021" fill="#ED1C24"/>
<path d="M136.338 167.606H401.287C449.736 167.596 489.272 134.768 489.272 87.8125C489.262 47.0461 457.713 10.8727 407.397 10.7456H320.506C323.082 11.0955 324.633 15.408 323.124 16.6826H401.81C453.115 16.6826 478.555 47.1644 478.555 87.4518C478.555 124.706 446.463 152.636 400.684 152.636H168.05C157.194 159.228 153.492 162.17 136.337 166.705C135.696 166.746 135.776 167.606 136.338 167.606Z" fill="#00A650"/>
<path d="M128.709 151.876C118.019 153.05 116.237 152.831 96.6333 152.82C58.4034 152.793 21.3053 128.546 21.3053 88.0587V87.6922C21.3053 39.7591 55.8698 16.6825 96.1798 16.6825H260.607C259.78 13.9691 261.442 11.6506 263.231 10.7455H94.4751C43.4777 10.7455 10.4087 44.3032 10.4087 87.7821C10.4087 141.217 55.5404 167.679 98.6459 167.679C115.7 167.679 128.153 164.388 137.618 161.257C153.536 155.988 168.938 144.576 183.069 131.972C184.238 130.828 183.385 129.952 182.087 130.945C165.544 142.938 143.892 150.208 128.708 151.876M300.077 2.42936C300.077 2.42936 295.929 2.36485 295.554 7.11134C295.554 7.11134 291.497 3.49087 288.235 6.82006C287.333 7.96759 287.534 9.30082 287.964 10.4972C287.964 10.4972 295.205 22.2071 286.315 35.6118L286.108 35.9226C285.029 37.4592 284.896 38.1316 287.068 36.4983C288.671 35.2912 290.205 34.0342 290.205 34.0342C307.189 20.3773 315.193 18.2973 315.193 18.2973C316.052 18.005 317.019 17.7509 317.48 16.8047C318.089 15.5604 317.072 14.2594 316.204 13.6642C316.204 13.6642 314.787 12.7082 312.435 12.9154C312.435 12.9154 315.49 9.1894 312.152 6.1769C312.152 6.1769 308.949 3.91118 305.469 6.6148C305.469 6.6148 304.656 2.29448 300.077 2.42936ZM282.138 46.6364C283.793 45.6365 285.393 44.702 286.762 43.9905C299.608 37.6507 304.759 42.7569 304.759 42.7569C309.147 45.5602 308.053 50.0516 308.053 50.0516C311.908 51.2177 314.677 49.1299 315.531 47.3803C316.598 45.1947 316.186 43.1811 316.186 43.1811C322.359 43.8634 323.501 38.8843 323.501 38.8843C324.59 33.8866 319.852 32.2601 319.852 32.2601C326.023 29.1372 323.87 24.0007 320.033 23.5579C316.198 23.1141 312.634 24.8325 309.401 26.4853C304.56 28.9583 291.028 38.462 281.724 46.0372C280.65 46.96 280.822 47.4027 282.138 46.6364Z" fill="#00A650"/>
</g>
<defs>
<clipPath id="clip0_2_2139">
<rect width="500" height="178.4" fill="white"/>
</clipPath>
</defs>
</svg>
