<svg width="157" height="50" viewBox="0 0 157 50" fill="none" xmlns="http://www.w3.org/2000/svg">
<g clip-path="url(#clip0_1_178)">
<mask id="mask0_1_178" style="mask-type:luminance" maskUnits="userSpaceOnUse" x="0" y="0" width="157" height="50">
<path d="M156.343 0H0V50H156.343V0Z" fill="white"/>
</mask>
<g mask="url(#mask0_1_178)">
<path d="M15.8813 9.03534H5.07414V0H0V23.1432H5.07414V13.5591H15.8813V23.1432H20.9533V0H15.8813V9.03534Z" fill="#003C83"/>
<path d="M126.067 1.32003C125.002 2.40916 124.959 3.99829 124.932 4.92464V23.1432H129.997V15.759H140.76V23.1432H145.848V0H130.034C128.531 0.0138426 127.125 0.232002 126.067 1.32003ZM131.291 4.5221H140.761V11.2402H129.998V5.84379C130.019 5.57801 129.968 5.09629 130.192 4.81113C130.432 4.51047 130.814 4.53483 131.291 4.5221Z" fill="#003C83"/>
<path d="M90.1784 0H74.3347V23.1432H79.4089V4.5221H88.9226C89.3955 4.53483 89.7831 4.51047 90.0178 4.81058C90.2449 5.09574 90.2 5.57746 90.2161 5.84324V23.1426H95.2852V4.92464C95.257 3.99829 95.2171 2.40916 94.1573 1.32003C93.0937 0.232002 91.6895 0.0138426 90.1784 0Z" fill="#003C83"/>
<path d="M64.7723 17.2972C64.754 17.5685 64.8 18.0397 64.5763 18.327C64.336 18.6305 63.95 18.6039 63.4794 18.6166H53.9679V0H48.8915V23.1432H64.7385C66.2457 23.1315 67.651 22.9073 68.7113 21.8192C69.7761 20.7318 69.8165 19.1449 69.8453 18.2152V0H64.7734V17.2972H64.7723Z" fill="#003C83"/>
<path d="M120.724 4.92464C120.699 3.99829 120.657 2.40916 119.597 1.32003C118.537 0.232002 117.129 0.0138426 115.624 0H104.853H99.7841V23.1432H115.624C117.129 23.1315 118.537 22.9073 119.597 21.8192C120.657 20.7318 120.699 19.1449 120.724 18.2152V4.92464ZM115.67 17.2972C115.652 17.5685 115.699 18.0397 115.477 18.327C115.238 18.6305 114.848 18.6039 114.377 18.6166H104.853V4.5221H114.377C114.849 4.53483 115.239 4.51047 115.477 4.81058C115.698 5.09574 115.652 5.57746 115.67 5.84324V17.2972Z" fill="#003C83"/>
<path d="M34.9271 10.1256L28.7727 0H22.7456L32.2167 14.5906V23.1432H37.6341V14.5906L47.1036 0H41.0743L34.9271 10.1256Z" fill="#003C83"/>
<path d="M156.343 0H150.932V23.1432H156.343V0Z" fill="#003C83"/>
<path d="M156.343 29.1979H0V32.684H156.343V29.1979Z" fill="#003C83"/>
<path d="M101.663 46.5089C102.162 46.4513 102.613 46.3018 102.977 45.9242C103.471 45.4209 103.494 44.6878 103.504 44.2576V41.509C103.494 41.081 103.47 40.3451 102.977 39.8412C102.489 39.3379 101.839 39.236 101.143 39.2294H93.7775V49.9995H96.159V46.5349H99.1683L101.487 49.9995H104L101.663 46.5089ZM101.266 43.8489C101.255 43.9597 101.243 44.0754 101.178 44.1607C101.068 44.3002 100.887 44.2908 100.67 44.2908H96.1595V41.473H100.67C100.887 41.4791 101.068 41.4674 101.178 41.6081C101.243 41.6922 101.255 41.8124 101.266 41.9176V43.8489Z" fill="#003C83"/>
<path d="M72.8563 46.5089C73.3563 46.4513 73.8065 46.3018 74.173 45.9242C74.6647 45.4209 74.6891 44.6878 74.6985 44.2576V41.509C74.6891 41.081 74.6647 40.3451 74.173 39.8412C73.6841 39.3379 73.0319 39.236 72.3342 39.2294H64.9722V49.9995H67.3509V46.5349H70.3619L72.6808 49.9995H75.1913L72.8563 46.5089ZM72.4566 43.8489C72.4483 43.9597 72.4355 44.0754 72.3713 44.1607C72.2617 44.3002 72.0817 44.2908 71.863 44.2908H67.3514V41.473H71.863C72.0817 41.4791 72.2617 41.4674 72.3713 41.6081C72.4361 41.6922 72.4488 41.8124 72.4566 41.9176V43.8489Z" fill="#003C83"/>
<path d="M42.0616 39.2299V41.5881H45.7409V50H48.1002V41.5881H51.7829V39.2299H42.0616Z" fill="#003C83"/>
<path d="M17.4738 39.2299V50H19.8309V43.1861L22.1382 50H24.2218L26.5268 43.1861V50H28.8834V39.2299H25.7577L23.1786 46.8145L20.6 39.2299H17.4738Z" fill="#003C83"/>
<path d="M129.162 50H131.518V46.9131H136.505C137.204 46.9098 137.855 46.8057 138.341 46.3024C138.835 45.7946 138.858 45.0632 138.869 44.6374V41.5112C138.858 41.0815 138.835 40.3495 138.341 39.8434C137.854 39.3423 137.204 39.2371 136.505 39.2305H129.162V50ZM136.622 44.2232C136.617 44.3295 136.606 44.4497 136.541 44.535C136.43 44.6723 136.25 44.6689 136.031 44.6689H131.518V41.4724H136.031C136.25 41.4768 136.43 41.468 136.541 41.6097C136.606 41.6928 136.618 41.8096 136.622 41.9181V44.2232Z" fill="#003C83"/>
<path d="M84.4232 41.7199C84.5279 41.5837 84.7078 41.5909 84.9243 41.5859H91.7033V39.2299H84.3396C83.6419 39.2365 82.993 39.3417 82.4991 39.8428C82.0057 40.3489 81.9886 41.0809 81.9775 41.5089V47.7209C81.9891 48.1495 82.0063 48.8853 82.4991 49.3887C82.9935 49.8898 83.6419 49.995 84.3396 50H89.339C90.0378 49.9955 90.6867 49.8903 91.1784 49.3887C91.6684 48.8853 91.6911 48.1495 91.7028 47.7209V43.5449H86.6214V45.6478H89.3418V47.1954C89.3384 47.3051 89.3257 47.4252 89.2565 47.5072C89.1485 47.6456 88.968 47.6379 88.751 47.6412H84.9238C84.7067 47.6379 84.5273 47.6456 84.4226 47.5061C84.3557 47.4252 84.3396 47.3051 84.3352 47.1954V42.0322C84.3396 41.9253 84.3562 41.8062 84.4232 41.7199Z" fill="#003C83"/>
<path d="M124.739 47.2857C124.731 47.4108 124.752 47.6301 124.65 47.7652C124.535 47.9047 124.359 47.8942 124.138 47.8992H119.721V39.2299H117.366V50H124.725C125.423 49.9966 126.074 49.8914 126.571 49.3887C127.062 48.8815 127.081 48.145 127.093 47.7154V39.2299H124.739V47.2857Z" fill="#003C83"/>
<path d="M114.836 39.8434C114.348 39.3423 113.694 39.2371 112.998 39.2305H107.998C107.302 39.2371 106.652 39.3423 106.16 39.8434C105.668 40.3495 105.648 41.0815 105.635 41.5112V47.7215C105.648 48.1501 105.669 48.886 106.16 49.3893C106.652 49.8904 107.302 49.9956 107.998 50.0006H112.998C113.694 49.9961 114.348 49.8909 114.836 49.3893C115.332 48.886 115.353 48.1501 115.363 47.7215V41.5106C115.352 41.0809 115.331 40.349 114.836 39.8434ZM113.002 47.1961C112.997 47.3057 112.984 47.4258 112.92 47.5078C112.809 47.6462 112.632 47.6385 112.412 47.6418H108.587C108.369 47.6385 108.189 47.6462 108.081 47.5078C108.013 47.4258 107.998 47.3057 107.992 47.1961V42.0328C107.998 41.9253 108.013 41.8063 108.081 41.7216C108.189 41.5832 108.369 41.5937 108.587 41.5854H112.412C112.632 41.5937 112.809 41.5832 112.92 41.7216C112.984 41.8057 112.998 41.9248 113.002 42.0328V47.1961Z" fill="#003C83"/>
<path d="M62.4246 39.8434C61.9362 39.3423 61.2823 39.2371 60.5874 39.2305H55.5858C54.8909 39.2371 54.2403 39.3423 53.7486 39.8434C53.2563 40.3495 53.2369 41.0815 53.2242 41.5112V47.7215C53.2364 48.1501 53.2563 48.886 53.7486 49.3893C54.2403 49.8904 54.8909 49.9956 55.5858 50.0006H60.5874C61.2828 49.9961 61.9362 49.8909 62.4246 49.3893C62.9201 48.886 62.9395 48.1501 62.9489 47.7215V41.5106C62.9395 41.0809 62.9201 40.349 62.4246 39.8434ZM60.5896 47.1961C60.5874 47.3057 60.5719 47.4258 60.5065 47.5078C60.398 47.6462 60.2192 47.6385 59.9988 47.6418H56.1738C55.9567 47.6385 55.7779 47.6462 55.6699 47.5078C55.6029 47.4258 55.5858 47.3057 55.5802 47.1961V42.0328C55.5858 41.9253 55.6029 41.8063 55.6699 41.7216C55.7773 41.5832 55.9567 41.5937 56.1738 41.5854H59.9988C60.2192 41.5937 60.3986 41.5832 60.5065 41.7216C60.5724 41.8057 60.5874 41.9248 60.5896 42.0328V47.1961Z" fill="#003C83"/>
<path d="M40.0915 39.8434C39.6042 39.3423 38.9503 39.2371 38.2543 39.2305H33.2549C32.5572 39.2371 31.9061 39.3423 31.4177 39.8434C30.9244 40.3495 30.9039 41.0815 30.89 41.5112V47.7215C30.9039 48.1501 30.9249 48.886 31.4177 49.3893C31.9061 49.8904 32.5578 49.9956 33.2549 50.0006H38.2543C38.9508 49.9961 39.6042 49.8909 40.0915 49.3893C40.5881 48.886 40.6064 48.1501 40.618 47.7215V41.5106C40.6064 41.0809 40.5881 40.349 40.0915 39.8434ZM38.2576 47.1961C38.2543 47.3057 38.2427 47.4258 38.1746 47.5078C38.066 47.6462 37.8861 47.6385 37.6674 47.6418H33.8424C33.6242 47.6385 33.4437 47.6462 33.3379 47.5078C33.2709 47.4258 33.2549 47.3057 33.2488 47.1961V42.0328C33.2549 41.9253 33.2709 41.8063 33.3379 41.7216C33.4437 41.5832 33.6242 41.5937 33.8424 41.5854H37.6674C37.8855 41.5937 38.066 41.5832 38.1746 41.7216C38.2427 41.8057 38.2543 41.9248 38.2576 42.0328V47.1961Z" fill="#003C83"/>
</g>
</g>
<defs>
<clipPath id="clip0_1_178">
<rect width="157" height="50" fill="white"/>
</clipPath>
</defs>
</svg>
