<?xml version="1.0" encoding="UTF-8" standalone="no"?>
<!-- Created with Inkscape (http://www.inkscape.org/) -->

<svg
   xmlns:dc="http://purl.org/dc/elements/1.1/"
   xmlns:cc="http://creativecommons.org/ns#"
   xmlns:rdf="http://www.w3.org/1999/02/22-rdf-syntax-ns#"
   xmlns:svg="http://www.w3.org/2000/svg"
   xmlns="http://www.w3.org/2000/svg"
   xmlns:sodipodi="http://sodipodi.sourceforge.net/DTD/sodipodi-0.dtd"
   xmlns:inkscape="http://www.inkscape.org/namespaces/inkscape"
   width="268.26941"
   height="363.2641"
   id="svg3825"
   version="1.1"
   inkscape:version="0.48.2 r9819"
   sodipodi:docname="cmc.svg">
  <defs
     id="defs3827" />
  <sodipodi:namedview
     id="base"
     pagecolor="#ffffff"
     bordercolor="#666666"
     borderopacity="1.0"
     inkscape:pageopacity="0.0"
     inkscape:pageshadow="2"
     inkscape:zoom="0.8710308"
     inkscape:cx="91.542068"
     inkscape:cy="105.79207"
     inkscape:document-units="px"
     inkscape:current-layer="layer1"
     showgrid="true"
     showborder="false"
     inkscape:showpageshadow="false"
     inkscape:window-width="1366"
     inkscape:window-height="746"
     inkscape:window-x="-8"
     inkscape:window-y="-8"
     inkscape:window-maximized="1"
     inkscape:snap-global="false"
     fit-margin-top="0"
     fit-margin-left="0"
     fit-margin-right="0"
     fit-margin-bottom="0">
    <inkscape:grid
       type="xygrid"
       id="grid3833"
       empspacing="5"
       visible="true"
       enabled="true"
       snapvisiblegridlinesonly="true"
       spacingx="10px"
       spacingy="10px" />
  </sodipodi:namedview>
  <metadata
     id="metadata3830">
    <rdf:RDF>
      <cc:Work
         rdf:about="">
        <dc:format>image/svg+xml</dc:format>
        <dc:type
           rdf:resource="http://purl.org/dc/dcmitype/StillImage" />
        <dc:title></dc:title>
      </cc:Work>
    </rdf:RDF>
  </metadata>
  <g
     inkscape:label="Layer 1"
     inkscape:groupmode="layer"
     id="layer1"
     transform="translate(1079.4152,-662.10607)">
    <g
       id="g6001"
       transform="translate(308.82949,1.148065)">
      <path
         style="fill:#989898"
         d="m -1245.3197,1024.1811 -69.4199,0.041 -0.6018,-2.2457 c -0.3311,-1.2352 -0.608,-3.2812 -0.6155,-4.5468 l -0.014,-2.301 3.6608,-1.5296 3.6607,-1.5295 9.5893,-0.9719 c 5.274,-0.5345 12.9295,-1.6575 17.0122,-2.4956 l 7.423,-1.5237 4.4477,-2.0907 4.4478,-2.0907 1.3664,-3.27034 1.3665,-3.27032 0.6382,-6.86684 0.6382,-6.86684 -6.829,-1.25829 -6.829,-1.2583 -12.0258,-4.02007 c -6.6142,-2.21104 -16.8897,-6.19047 -22.8346,-8.84319 l -10.8089,-4.82312 -8.4871,-5.34447 -8.4871,-5.34447 -6.9424,-6 c -3.8183,-3.3 -9.2312,-8.7 -12.0287,-12 -2.7975,-3.3 -6.7111,-8.43799 -8.697,-11.41775 -1.986,-2.97975 -5.5338,-9.27975 -7.884,-14 -2.3503,-4.72024 -5.4691,-12.16459 -6.9307,-16.543 -1.4616,-4.37842 -3.5043,-12.32915 -4.5393,-17.66829 l -1.8818,-9.70754 -0.6596,-10.86013 -0.6596,-10.86013 1.2336,-11.97158 1.2336,-11.97158 2.3909,-9.5 2.3909,-9.5 6.508,-13 6.5081,-13 6.7543,-9.43974 6.7544,-9.43975 8.4913,-8.94441 8.4913,-8.94441 8.0087,-6.17241 c 4.4048,-3.39482 10.2587,-7.58155 13.0087,-9.30384 2.75,-1.72228 8.6,-4.91354 13,-7.09169 4.4,-2.17814 11.375,-5.17465 15.5,-6.65891 4.125,-1.48425 11.55,-3.7321 16.5,-4.99521 l 9,-2.29656 0.3144,-4.84084 0.3143,-4.84084 -1.2233,-4.36938 -1.2234,-4.36939 -4.091,-1.73308 c -2.2501,-0.9532 -6.116,-2.23294 -8.591,-2.84386 -2.475,-0.61093 -10.575,-1.85096 -18,-2.75563 l -13.5,-1.64485 -3.1462,-1.31318 -3.1461,-1.31318 -0.7031,-4.16181 -0.7032,-4.1618 0.569,-0.56894 0.5689,-0.56894 42.2804,1.26937 42.2803,1.26936 25,-0.66683 c 13.75,-0.36676 26.9125,-0.92772 29.25,-1.24659 l 4.25,-0.57975 0,4.575 0,4.575 -3.75,0.98918 c -2.0625,0.54405 -9.375,1.91843 -16.25,3.05418 -6.875,1.13576 -14.8802,2.7507 -17.7894,3.58876 l -5.2894,1.52374 -1.8957,1.89568 -1.8956,1.89568 -1.0594,3.81494 c -0.5826,2.09821 -1.0619,5.27743 -1.0649,7.06493 l -0.01,3.25 8.75,8.4e-4 c 4.8125,4.6e-4 13.5778,0.45865 19.4784,1.01819 5.9006,0.55955 14.9091,1.87758 20.0188,2.92896 5.1098,1.05138 13.7821,3.34528 19.2717,5.09755 5.4896,1.75227 12.7941,4.45587 16.2322,6.00799 l 6.2511,2.82203 0.9579,2.51961 0.958,2.51961 1.1116,12.79261 1.1117,12.79261 -0.3207,7 -0.3207,7 -4.5085,0.29493 -4.5085,0.29492 -3.6178,-7.29492 -3.6178,-7.29493 -4.7358,-6.28639 -4.7358,-6.28639 -5.3989,-4.39786 c -2.9693,-2.41882 -8.0892,-6.03216 -11.3773,-8.02963 l -5.9786,-3.63176 -8.0388,-2.9338 -8.0388,-2.9338 -8.6027,-1.50018 -8.6027,-1.50019 -6.4213,0 -6.4212,0 0.3022,5.11827 0.3023,5.11828 7.2983,1.84882 7.2983,1.84882 5.7017,3.07492 c 3.1359,1.69121 6.8267,4.00729 8.2017,5.14685 l 2.5,2.07194 0,20.42294 0,20.42295 -1.4093,0.87059 -1.4093,0.87058 -1.1395,-0.43727 -1.1395,-0.43726 -1.7861,-6.72022 -1.7861,-6.72021 -4.0957,-7.88302 -4.0958,-7.88302 -4.6661,-4.61698 c -2.5664,-2.53934 -6.1486,-5.46741 -7.9604,-6.50682 l -3.2942,-1.88983 0.4883,44.84223 0.4883,44.84224 1.7471,1.0476 c 0.9609,0.57618 6.0349,3.87055 11.2756,7.32083 5.2407,3.45027 11.5544,8.05643 14.0304,10.23592 2.4761,2.17948 6.3827,6.38481 8.6815,9.34516 l 4.1795,5.38248 2.7926,6.22271 2.7926,6.22271 1.4679,8.1589 1.4678,8.15889 -0.6358,7.77641 -0.6359,7.77641 -1.957,7.06223 c -1.0764,3.88423 -3.1232,9.38484 -4.5485,12.22359 -1.4252,2.83875 -4.5748,7.95905 -6.9989,11.37844 l -4.4076,6.21708 -5.6608,4.61126 c -3.1134,2.53619 -7.7138,5.65032 -10.2229,6.92029 -2.5092,1.26997 -6.4747,2.88095 -8.8122,3.57995 l -4.25,1.27092 0,11.32258 0,11.32258 4.75,-0.57271 c 2.6125,-0.31499 8.7332,-1.22815 13.6015,-2.02924 l 8.8515,-1.45654 8.1485,-2.565 c 4.4817,-1.41076 10.9328,-3.823 14.3359,-5.36055 3.4031,-1.53755 8.3531,-4.26048 11,-6.05095 2.6469,-1.79048 7.6107,-5.68186 11.0306,-8.64753 l 6.218,-5.39212 5.9411,-7.88446 c 3.2676,-4.33645 7.2195,-10.16481 8.782,-12.95191 l 2.8409,-5.06745 1.6091,-0.51432 1.6091,-0.51431 1.6409,0.62966 1.6409,0.62967 0,3.21518 0,3.21519 -6.0974,20.92782 c -3.3535,11.51031 -6.5453,22.50283 -7.0929,24.42783 -0.5476,1.925 -1.331,3.85475 -1.741,4.28833 -0.4099,0.43358 -5.3597,2.11633 -10.9995,3.73944 l -10.2541,2.9511 -13.6575,2.02474 -13.6576,2.02473 -19.0923,0.63882 -19.0923,0.63881 0.7985,4.27436 c 0.4392,2.3509 1.4423,5.81516 2.2292,7.69836 l 1.4306,3.42396 2.8632,2.0304 c 1.5747,1.1167 4.963,2.7405 7.5296,3.6084 2.5667,0.868 7.7417,2.0663 11.5,2.6629 3.7584,0.5966 9.48,1.4983 12.7146,2.0039 l 5.8812,0.9192 1.8688,1.6912 1.8689,1.6913 0,3.7381 0,3.738 -1.4646,0.562 -1.4646,0.562 -69.4199,0.041 z m -16.5445,-53.02518 0.6064,0.0744 0.667,-7.1766 0.667,-7.17661 -0.7734,-0.6667 c -0.4254,-0.36666 -4.5984,-1.22635 -9.2734,-1.91039 l -8.5,-1.24372 -9.5,-3.03288 c -5.225,-1.66809 -12.1039,-4.34367 -15.2864,-5.94573 l -5.7863,-2.91284 -1.1493,-2.52242 -1.1493,-2.52243 1.1873,-14.19482 c 0.653,-7.80716 1.476,-18.8095 1.8289,-24.44966 l 0.6417,-10.25482 1.2981,-1.74518 1.2982,-1.74517 1.8085,1.0968 1.8086,1.0968 0.8496,4.9032 c 0.4673,2.69676 1.6903,7.8282 2.7179,11.4032 l 1.8683,6.5 3.7821,6.44218 3.7821,6.44218 7.0229,7.06464 7.023,7.06464 7.227,3.79771 7.2271,3.79771 0,-35.89482 c 0,-19.74215 -0.2958,-43.39616 -0.6574,-52.56446 l -0.6575,-16.66965 -8.9283,-5.63357 -8.9283,-5.63357 -7.2918,-7.1065 -7.2919,-7.10649 -4.0895,-6.35418 -4.0896,-6.35418 -2.1206,-5.64582 -2.1207,-5.64582 -0.5446,-9.00764 -0.5447,-9.00763 2.1043,-8.32144 2.1043,-8.32144 3.0598,-5.34798 c 1.6829,-2.94139 5.097,-7.61382 7.5869,-10.38317 l 4.527,-5.03519 6.6913,-4.43728 6.6913,-4.43727 6.75,-2.34716 6.75,-2.34715 0,-2.75333 c 0,-1.51432 -0.2545,-2.75332 -0.5655,-2.75332 -0.3111,0 -3.9062,1.54347 -7.9892,3.42992 -4.083,1.88646 -11.2153,5.90147 -15.8496,8.92226 l -8.426,5.49234 -7.5835,7.20354 -7.5834,7.20355 -4.9092,6.6242 c -2.7001,3.6433 -6.7194,9.99919 -8.9318,14.12419 -2.2125,4.125 -5.4286,11.06138 -7.1471,15.41417 l -3.1245,7.91418 -2.835,11.60984 -2.835,11.60985 -1.2518,11.33556 -1.2517,11.33556 0.571,17.14042 0.571,17.14042 1.6829,9.5 c 0.9255,5.225 2.7873,13.325 4.1373,18 1.35,4.675 3.9533,11.96012 5.7851,16.18915 l 3.3307,7.68916 5.5192,8.46722 5.5192,8.46721 6.3334,6.45508 6.3335,6.45507 7.2822,4.7078 c 4.0051,2.5893 9.8551,5.85786 12.9999,7.26348 3.1449,1.40561 8.6429,3.59096 12.2179,4.85631 3.575,1.26536 6.7729,2.33415 7.1064,2.37509 z m 44.999,-32.57946 5.1054,-2.77871 4.0333,-4.5337 4.0332,-4.5337 3.6113,-7.5 3.6114,-7.5 0,-10.5 0,-10.5 -3.2793,-6.27958 -3.2794,-6.27958 -3.6791,-4.07242 c -2.0236,-2.23983 -6.2854,-6.07782 -9.4707,-8.52887 l -5.7915,-4.45644 0,40.12086 0,40.12085 5.1054,-2.77871 z m -44.3421,-173.4043 0.2633,-34.24853 -0.5352,-0.53524 -0.5353,-0.53525 -4.228,2.05696 -4.2281,2.05696 -5.2194,4.69683 -5.2195,4.69682 -3.2805,6.66379 -3.2806,6.6638 0.019,8.02102 0.019,8.02103 2.6482,5 2.6482,5 4.8325,4.62764 c 2.6578,2.54521 7.3074,6.30053 10.3324,8.34517 l 5.5,3.71753 0.2633,-34.24853 z"
         id="path6005"
         inkscape:connector-curvature="0" />
      <path
         style="fill:#656565"
         d="m -1193.5146,1023.5236 c -10.9758,0.2046 -42.7935,0.2181 -70.706,0.03 l -50.75,-0.3418 0,-4.0418 0,-4.0419 3.25,-1.3311 3.25,-1.3311 8,-0.7049 c 4.4,-0.3877 11.3654,-1.3387 15.4786,-2.1134 4.1132,-0.7747 9.6124,-2.1173 12.2204,-2.9836 l 4.742,-1.575 2.4183,-2.8741 2.4184,-2.87402 1.3611,-8.80536 1.3612,-8.80537 0,-71.5363 0,-71.53631 10.5,5.91005 c 5.775,3.25053 14.2125,8.13457 18.75,10.85343 l 8.25,4.94337 0.016,55.18288 0.016,55.18288 0.9381,11.33995 0.938,11.33995 2.1166,4.37234 2.1166,4.37231 3.1791,1.9424 c 1.7485,1.0683 5.654,2.6781 8.679,3.5773 l 5.5,1.6349 10.7763,1.4393 10.7763,1.4393 1.8836,1.0081 1.8836,1.0081 0.6894,4.0804 c 0.3792,2.2442 0.5124,4.2574 0.2961,4.4737 -0.2163,0.2163 -9.3734,0.5606 -20.3492,0.7652 z m -29.3676,-265.55062 -0.5884,63.24262 -17,-9.58187 c -9.35,-5.27004 -17.5614,-10.11922 -18.2476,-10.77596 l -1.2476,-1.19409 -0.5086,-50.46666 c -0.2797,-27.75667 -0.7588,-53.20615 -1.0646,-56.55441 l -0.556,-6.08774 -1.8126,-2.98045 -1.8125,-2.98044 -6.3752,-2.09165 -6.3753,-2.09165 -8.5,-1.12445 c -4.675,-0.61844 -12.0526,-1.62416 -16.3948,-2.23493 l -7.8947,-1.11049 -1.8553,-1.85523 -1.8552,-1.85523 0,-3.14867 0,-3.14868 37.75,0.89868 c 20.7625,0.49427 44.05,0.82576 51.75,0.73666 7.7,-0.0891 22.6625,-0.45367 33.25,-0.81013 l 19.25,-0.64812 0,3.95172 0,3.95172 -2.75,0.69504 c -1.5125,0.38228 -9.05,1.76642 -16.75,3.07589 -7.7,1.30947 -15.7645,2.8879 -17.9212,3.50764 l -3.9212,1.1268 -2.7023,2.70231 -2.7023,2.70232 -1.2881,5.45341 -1.288,5.45341 -0.5885,63.24263 z"
         id="path6003"
         inkscape:connector-curvature="0" />
    </g>
  </g>
</svg>
