<?xml version="1.0" encoding="UTF-8" standalone="no"?>
<!-- Created with Inkscape (http://www.inkscape.org/) -->
<svg
   xmlns:dc="http://purl.org/dc/elements/1.1/"
   xmlns:cc="http://creativecommons.org/ns#"
   xmlns:rdf="http://www.w3.org/1999/02/22-rdf-syntax-ns#"
   xmlns:svg="http://www.w3.org/2000/svg"
   xmlns="http://www.w3.org/2000/svg"
   xmlns:sodipodi="http://sodipodi.sourceforge.net/DTD/sodipodi-0.dtd"
   xmlns:inkscape="http://www.inkscape.org/namespaces/inkscape"
   width="440"
   height="146.09"
   id="svg2"
   sodipodi:version="0.32"
   inkscape:version="0.46"
   version="1.0"
   sodipodi:docname="jaycar-brand.svg"
   inkscape:output_extension="org.inkscape.output.svg.inkscape">
  <defs
     id="defs4">
    <inkscape:perspective
       sodipodi:type="inkscape:persp3d"
       inkscape:vp_x="0 : 526.18109 : 1"
       inkscape:vp_y="0 : 1000 : 0"
       inkscape:vp_z="744.09448 : 526.18109 : 1"
       inkscape:persp3d-origin="372.04724 : 350.78739 : 1"
       id="perspective10" />
    <clipPath
       id="clipPath2796"
       clipPathUnits="userSpaceOnUse">
      <path
         id="path2798"
         d="M 3615.23,2.08203 L 3615.23,7014.58 L 1334.77,7014.58 L 1334.77,2.08203 L 3615.23,2.08203 z" />
    </clipPath>
    <clipPath
       id="clipPath2784"
       clipPathUnits="userSpaceOnUse">
      <path
         id="path2786"
         clip-rule="evenodd"
         d="M 1334.77,2.08203 L 2174.051,2.08203 L 2174.051,286.03503 L 1334.77,286.03503 L 1334.77,2.08203 z" />
    </clipPath>
    <clipPath
       id="clipPath2772"
       clipPathUnits="userSpaceOnUse">
      <path
         id="path2774"
         clip-rule="evenodd"
         d="M 1858.74,511.523 C 1984.21,511.523 2104.51,461.688 2193.26,372.98 C 2281.93,284.27 2331.77,163.973 2331.77,38.5391 L 2331.77,-113.922 L 2293.43,-113.922 L 2293.43,38.5391 C 2293.43,153.816 2247.62,264.375 2166.12,345.875 C 2084.66,427.418 1974.06,473.188 1858.74,473.188 L 1215.09,473.188 L 1215.09,511.523 L 1858.74,511.523" />
    </clipPath>
    <clipPath
       id="clipPath2766"
       clipPathUnits="userSpaceOnUse">
      <path
         id="path2768"
         d="M 3615.23,2.08203 L 3615.23,7014.58 L 1334.77,7014.58 L 1334.77,2.08203 L 3615.23,2.08203 z" />
    </clipPath>
    <clipPath
       id="clipPath2754"
       clipPathUnits="userSpaceOnUse">
      <path
         id="path2756"
         clip-rule="evenodd"
         d="M 2174.05,-113.922 L 2174.05,286.035 L 1215.09,286.035 L 1215.09,473.188 L 1858.74,473.188 C 1974.06,473.188 2084.66,427.418 2166.12,345.875 C 2247.62,264.375 2293.43,153.816 2293.43,38.5391 L 2293.43,-113.922 L 2174.05,-113.922" />
    </clipPath>
    <clipPath
       id="clipPath2748"
       clipPathUnits="userSpaceOnUse">
      <path
         id="path2750"
         d="M 3615.23,2.08203 L 3615.23,7014.58 L 1334.77,7014.58 L 1334.77,2.08203 L 3615.23,2.08203 z" />
    </clipPath>
    <clipPath
       id="clipPath2736"
       clipPathUnits="userSpaceOnUse">
      <path
         id="path2738"
         clip-rule="evenodd"
         d="M 1215.09,7246.51 L 2577.07,7246.51 C 2644.97,7167.85 2682.65,7067.14 2682.65,6962.56 L 2682.65,-113.922 L 2331.77,-113.922 L 2331.77,38.5391 C 2331.77,163.973 2281.93,284.27 2193.26,372.98 C 2104.51,461.688 1984.21,511.523 1858.74,511.523 L 1215.09,511.523 L 1215.09,7246.51" />
    </clipPath>
    <clipPath
       id="clipPath2730"
       clipPathUnits="userSpaceOnUse">
      <path
         id="path2732"
         d="M 3615.23,2.08203 L 3615.23,7014.58 L 1334.77,7014.58 L 1334.77,2.08203 L 3615.23,2.08203 z" />
    </clipPath>
    <clipPath
       id="clipPath2718"
       clipPathUnits="userSpaceOnUse">
      <path
         id="path2720"
         clip-rule="evenodd"
         d="M 3053,2 L 3616,2 L 3616,190 L 3053,190 L 3053,2 z" />
    </clipPath>
    <clipPath
       id="clipPath2706"
       clipPathUnits="userSpaceOnUse">
      <path
         id="path2708"
         clip-rule="evenodd"
         d="M 3723.54,3355.57 C 3838.82,3355.57 3949.41,3309.75 4030.88,3228.25 C 4112.45,3146.71 4158.19,3036.15 4158.19,2920.88 L 4158.19,189.66 L 3053.78,189.66 L 3053.78,2920.88 C 3053.78,3036.15 3099.59,3146.71 3181.09,3228.25 C 3262.59,3309.75 3373.15,3355.57 3488.43,3355.57 L 3723.54,3355.57" />
    </clipPath>
    <clipPath
       id="clipPath2700"
       clipPathUnits="userSpaceOnUse">
      <path
         id="path2702"
         d="M 3615.23,2.08203 L 3615.23,7014.58 L 1334.77,7014.58 L 1334.77,2.08203 L 3615.23,2.08203 z" />
    </clipPath>
    <clipPath
       id="clipPath2688"
       clipPathUnits="userSpaceOnUse">
      <path
         id="path2690"
         clip-rule="evenodd"
         d="M 2877.93,2.08203 L 3053.774,2.08203 L 3053.774,189.66003 L 2877.93,189.66003 L 2877.93,2.08203 z" />
    </clipPath>
    <clipPath
       id="clipPath2676"
       clipPathUnits="userSpaceOnUse">
      <path
         id="path2678"
         clip-rule="evenodd"
         d="M 4435.28,-113.922 L 4411.36,-113.922 L 4411.36,189.66 L 4158.19,189.66 L 4158.19,2920.88 C 4158.19,3036.15 4112.45,3146.71 4030.88,3228.25 C 3949.41,3309.75 3838.82,3355.57 3723.54,3355.57 L 3488.43,3355.57 C 3373.15,3355.57 3262.59,3309.75 3181.09,3228.25 C 3099.59,3146.71 3053.78,3036.15 3053.78,2920.88 L 3053.78,189.66 L 2877.93,189.66 L 2877.93,-113.922 L 2682.65,-113.922 L 2682.65,5320.96 L 4435.28,5320.96 L 4435.28,-113.922" />
    </clipPath>
    <clipPath
       id="clipPath2670"
       clipPathUnits="userSpaceOnUse">
      <path
         id="path2672"
         d="M 3615.23,2.08203 L 3615.23,7014.58 L 1334.77,7014.58 L 1334.77,2.08203 L 3615.23,2.08203 z" />
    </clipPath>
    <clipPath
       id="clipPath2658"
       clipPathUnits="userSpaceOnUse">
      <path
         id="path2660"
         clip-rule="evenodd"
         d="M 2682.65,6962.56 C 2682.65,7067.14 2644.97,7167.85 2577.07,7246.51 L 2973.85,7246.51 L 2973.85,6053.09 L 2682.65,6053.09 L 2682.65,6962.56" />
    </clipPath>
    <clipPath
       id="clipPath2652"
       clipPathUnits="userSpaceOnUse">
      <path
         id="path2654"
         d="M 3615.23,2.08203 L 3615.23,7014.58 L 1334.77,7014.58 L 1334.77,2.08203 L 3615.23,2.08203 z" />
    </clipPath>
    <clipPath
       id="clipPath2640"
       clipPathUnits="userSpaceOnUse">
      <path
         id="path2642"
         clip-rule="evenodd"
         d="M 2973.85,6053.09 L 3615.229,6053.09 L 3615.229,7014.586 L 2973.85,7014.586 L 2973.85,6053.09 z" />
    </clipPath>
    <clipPath
       id="clipPath2628"
       clipPathUnits="userSpaceOnUse">
      <path
         id="path2630"
         clip-rule="evenodd"
         d="M 2682.65,5320.95 L 3615.224,5320.95 L 3615.224,6053.083 L 2682.65,6053.083 L 2682.65,5320.95 z" />
    </clipPath>
    <clipPath
       id="clipPath2616"
       clipPathUnits="userSpaceOnUse">
      <path
         id="path2618"
         clip-rule="evenodd"
         d="M 0,0 L 0,0 L 0,0 L 0,0 z" />
    </clipPath>
    <clipPath
       id="clipPath2606"
       clipPathUnits="userSpaceOnUse">
      <path
         id="path2608"
         d="M -27123,-15836.2 L -27123,10454.4 L 6774.1,10454.4 L 6774.1,-15836.2 L -27123,-15836.2 z" />
    </clipPath>
    <clipPath
       id="clipPath2600"
       clipPathUnits="userSpaceOnUse">
      <path
         id="path2602"
         d="M -27122.5,-15836.2 L -27122.5,10454.2 L 6774.63,10454.2 L 6774.63,-15836.2 L -27122.5,-15836.2 z" />
    </clipPath>
    <clipPath
       id="clipPath2594"
       clipPathUnits="userSpaceOnUse">
      <path
         id="path2596"
         clip-rule="evenodd"
         d="M -4701.86,-2610.45 L -4701.86,38.5 C -4701.86,299.758 -4490.05,511.523 -4228.83,511.523 L 1858.74,511.523 C 2120,511.523 2331.77,299.758 2331.77,38.5 L 2331.77,-5259.4 C 2331.77,-5520.66 2120,-5732.42 1858.74,-5732.42 L -4228.83,-5732.42 C -4490.05,-5732.42 -4701.86,-5520.66 -4701.86,-5259.4 L -4701.86,-2610.45 z" />
    </clipPath>
    <clipPath
       id="clipPath2588"
       clipPathUnits="userSpaceOnUse">
      <path
         id="path2590"
         d="M 3615.23,2.08203 L 3615.23,7014.58 L 1334.77,7014.58 L 1334.77,2.08203 L 3615.23,2.08203 z" />
    </clipPath>
    <linearGradient
       id="linearGradient2574"
       gradientTransform="matrix(-3.29701,0,0,-2.92669,-142.203,1155.272)"
       gradientUnits="userSpaceOnUse"
       y2="0"
       x2="128"
       y1="0"
       x1="-128">
      <stop
         id="stop2576"
         offset="0"
         style="stop-opacity:1;stop-color:#d9f1d9" />
      <stop
         id="stop2578"
         offset="0.5"
         style="stop-opacity:1;stop-color:#e6f6e5" />
      <stop
         id="stop2580"
         offset="1"
         style="stop-opacity:1;stop-color:#f3fbf2" />
    </linearGradient>
    <clipPath
       id="clipPath2568"
       clipPathUnits="userSpaceOnUse">
      <path
         id="path2570"
         d="M -27123,-15836.2 L -27123,10454.4 L 6774.1,10454.4 L 6774.1,-15836.2 L -27123,-15836.2 z" />
    </clipPath>
    <clipPath
       id="clipPath2562"
       clipPathUnits="userSpaceOnUse">
      <path
         id="path2564"
         d="M -27122.5,-15836.2 L -27122.5,10454.2 L 6774.63,10454.2 L 6774.63,-15836.2 L -27122.5,-15836.2 z" />
    </clipPath>
    <clipPath
       id="clipPath2556"
       clipPathUnits="userSpaceOnUse">
      <path
         id="path2558"
         clip-rule="evenodd"
         d="M -4663.52,-2610.45 L -4663.52,38.5 C -4663.52,278.559 -4468.89,473.188 -4228.83,473.188 L 1858.74,473.188 C 2098.84,473.188 2293.43,278.559 2293.43,38.5 L 2293.43,-5259.4 C 2293.43,-5499.46 2098.84,-5694.09 1858.74,-5694.09 L -4228.83,-5694.09 C -4468.89,-5694.09 -4663.52,-5499.46 -4663.52,-5259.4 L -4663.52,-2610.45 z" />
    </clipPath>
    <clipPath
       id="clipPath2550"
       clipPathUnits="userSpaceOnUse">
      <path
         id="path2552"
         d="M 3615.23,2.08203 L 3615.23,7014.58 L 1334.77,7014.58 L 1334.77,2.08203 L 3615.23,2.08203 z" />
    </clipPath>
    <linearGradient
       id="linearGradient2536"
       gradientTransform="matrix(-12.5551,0,0,-9.47656,-1280.53,1162.729)"
       gradientUnits="userSpaceOnUse"
       y2="0"
       x2="128"
       y1="0"
       x1="-128">
      <stop
         id="stop2538"
         offset="0"
         style="stop-opacity:1;stop-color:#ffffff" />
      <stop
         id="stop2540"
         offset="0.5"
         style="stop-opacity:1;stop-color:#f9fbfe" />
      <stop
         id="stop2542"
         offset="1"
         style="stop-opacity:1;stop-color:#f2f6fc" />
    </linearGradient>
    <clipPath
       id="clipPath2530"
       clipPathUnits="userSpaceOnUse">
      <path
         id="path2532"
         clip-rule="evenodd"
         d="M -24024.6,-2672.78 L -24024.6,6962.52 C -24024.6,7202.58 -23829.9,7397.21 -23589.9,7397.21 L 2248,7397.21 C 2488.06,7397.21 2682.65,7202.58 2682.65,6962.52 L 2682.65,-12308.1 C 2682.65,-12548.1 2488.06,-12742.7 2248,-12742.7 L -23589.9,-12742.7 C -23829.9,-12742.7 -24024.6,-12548.1 -24024.6,-12308.1" />
    </clipPath>
    <clipPath
       id="clipPath2524"
       clipPathUnits="userSpaceOnUse">
      <path
         id="path2526"
         d="M 3615.23,2.08203 L 3615.23,7014.58 L 1334.77,7014.58 L 1334.77,2.08203 L 3615.23,2.08203 z" />
    </clipPath>
    <clipPath
       id="clipPath2514"
       clipPathUnits="userSpaceOnUse">
      <path
         id="path2516"
         d="M 2665.4,2.08203 L 3615.224,2.08203 L 3615.224,5322.722 L 2665.4,5322.722 L 2665.4,2.08203 z" />
    </clipPath>
    <clipPath
       id="clipPath2502"
       clipPathUnits="userSpaceOnUse">
      <path
         id="path2504"
         d="M 1334.77,6050.02 L 2976.41,6050.02 L 2976.41,7014.583 L 1334.77,7014.583 L 1334.77,6050.02 z" />
    </clipPath>
    <clipPath
       id="clipPath2488"
       clipPathUnits="userSpaceOnUse">
      <path
         id="path2490"
         d="M 3615.23,2.08203 L 3615.23,7014.58 L 1334.77,7014.58 L 1334.77,2.08203 L 3615.23,2.08203 z" />
    </clipPath>
    <inkscape:perspective
       id="perspective2478"
       inkscape:persp3d-origin="372.04724 : 350.78739 : 1"
       inkscape:vp_z="744.09448 : 526.18109 : 1"
       inkscape:vp_y="0 : 1000 : 0"
       inkscape:vp_x="0 : 526.18109 : 1"
       sodipodi:type="inkscape:persp3d" />
  </defs>
  <sodipodi:namedview
     id="base"
     pagecolor="#ffffff"
     bordercolor="#666666"
     borderopacity="1.0"
     gridtolerance="10000"
     guidetolerance="10"
     objecttolerance="10"
     inkscape:pageopacity="0.0"
     inkscape:pageshadow="2"
     inkscape:zoom="3.1800002"
     inkscape:cx="220"
     inkscape:cy="73.045001"
     inkscape:document-units="px"
     inkscape:current-layer="layer1"
     showgrid="false"
     inkscape:window-width="1680"
     inkscape:window-height="970"
     inkscape:window-x="-6"
     inkscape:window-y="-6" />
  <metadata
     id="metadata7">
    <rdf:RDF>
      <cc:Work
         rdf:about="">
        <dc:format>image/svg+xml</dc:format>
        <dc:type
           rdf:resource="http://purl.org/dc/dcmitype/StillImage" />
      </cc:Work>
    </rdf:RDF>
  </metadata>
  <g
     inkscape:label="Layer 1"
     inkscape:groupmode="layer"
     id="layer1"
     transform="translate(-59.278211,-334.36791)">
    <g
       id="g2612"
       transform="matrix(0,5.7993705e-2,5.7993705e-2,0,159.94805,302.04704)">
      <g
         clip-path="url(#clipPath2616)"
         id="g2614">
        <g
           transform="matrix(0,2392.35,-4242.49,0,2088.64,-2239.4)"
           id="g2620" />
      </g>
    </g>
    <path
       id="path2800"
       style="fill:#1f4fa2;fill-opacity:1;fill-rule:nonzero;stroke:none"
       d="M 79.278221,344.36563 L 79.278221,470.46018 L 479.2782,470.46018 L 479.2782,344.36563 L 79.278221,344.36563 z" />
    <path
       id="path2802"
       style="fill:#ffffff;fill-opacity:1;fill-rule:nonzero;stroke:none"
       d="M 124.50309,361.76026 L 121.61953,378.63237 L 131.94421,378.63237 L 122.82446,431.99876 L 102.1776,431.99876 L 99.178459,449.54417 L 121.89975,449.54417 C 132.57129,449.54417 142.81107,441.96324 144.1629,434.05058 C 145.51473,426.13791 156.51498,361.76026 156.51498,361.76026 L 124.50309,361.76026" />
    <path
       id="path2804"
       style="fill:#ffffff;fill-opacity:1;fill-rule:nonzero;stroke:none"
       d="M 157.13319,416.43151 C 156.19311,421.94091 159.35899,424.26646 165.00584,424.26646 C 168.78993,424.26646 206.62212,424.26646 206.62212,424.26646 L 215.09964,374.66386 C 215.75091,370.85541 213.21832,367.54745 208.0563,367.54745 C 202.89429,367.54745 165.43035,367.54745 165.43035,367.54745 L 163.56063,378.48101 L 191.39297,378.48101 C 194.21669,378.48101 195.09935,379.85314 194.69456,382.22276 C 194.34137,384.28618 189.41017,413.1479 189.41017,413.1479 L 178.04688,413.1479 C 176.33085,413.1479 176.91311,411.76939 177.32486,409.35744 C 177.73604,406.94722 179.83715,394.65719 179.83715,394.65719 C 180.30168,391.93613 183.17643,391.21352 183.17643,391.21352 L 169.73464,391.21352 C 163.95441,391.21352 160.87959,394.51511 159.9946,399.68641 L 157.13319,416.43151" />
    <path
       id="path2806"
       style="fill:#ffffff;fill-opacity:1;fill-rule:nonzero;stroke:none"
       d="M 340.12479,416.43151 C 339.18413,421.94091 342.34769,424.26646 347.99454,424.26646 C 351.77862,424.26646 389.61314,424.26646 389.61314,424.26646 L 398.08834,374.66386 C 398.74193,370.85541 396.2076,367.54745 391.0479,367.54745 C 385.88298,367.54745 348.41963,367.54745 348.41963,367.54745 L 346.55223,378.48101 L 374.38457,378.48101 C 377.2077,378.48101 378.09037,379.85314 377.68383,382.22276 C 377.33239,384.28618 372.39945,413.1479 372.39945,413.1479 L 361.03848,413.1479 C 359.32013,413.1479 359.90238,411.76939 360.31588,409.35744 C 360.72705,406.94722 362.82816,394.65719 362.82816,394.65719 C 363.29269,391.93613 366.16512,391.21352 366.16512,391.21352 L 352.72392,391.21352 C 346.94543,391.21352 343.86886,394.51511 342.9862,399.68641 L 340.12479,416.43151" />
    <path
       id="path2808"
       style="fill:#ffffff;fill-opacity:1;fill-rule:nonzero;stroke:none"
       d="M 399.80263,424.22644 L 409.48932,367.54281 C 409.48932,367.54281 447.32383,367.54281 451.1056,367.54281 C 456.75477,367.54281 459.91833,369.86662 458.97825,375.37544 L 457.41068,384.54599 L 438.42876,384.54599 L 438.82022,382.26278 C 439.23139,379.85314 438.56678,378.47231 436.11423,378.47231 L 426.73491,378.47231 L 418.91562,424.22644 L 399.80263,424.22644" />
    <path
       id="path2810"
       style="fill:#ffffff;fill-opacity:1;fill-rule:nonzero;stroke:none"
       d="M 248.63218,424.2508 L 247.07853,433.33261 C 246.86685,434.55976 245.81543,436.6255 242.96736,436.6255 L 214.57248,436.6255 L 212.70508,447.55905 L 255.43948,447.55905 C 260.80448,447.55905 264.10606,444.3665 264.79503,440.33825 L 277.37618,367.48308 L 257.98135,367.48308 L 250.30646,413.1479 L 241.03327,413.1479 C 239.39262,413.1479 238.40789,411.79607 238.40789,410.48251 C 238.40789,409.16838 245.50226,367.51382 245.50226,367.51382 L 226.40261,367.51382 L 217.86072,417.52759 C 217.41823,420.11121 219.04553,422.12533 219.04553,422.12533 C 220.67516,423.61693 222.15399,424.16845 224.45055,424.2508 L 248.63218,424.2508" />
    <path
       id="path2812"
       style="fill:#ffffff;fill-opacity:1;fill-rule:nonzero;stroke:none"
       d="M 278.8411,417.57224 C 278.39223,420.19762 280.45797,424.26182 285.36249,424.26182 L 328.52837,424.26182 L 330.42708,413.1479 L 304.24872,413.1479 L 302.56575,413.13457 C 300.2112,413.13457 298.85705,411.96773 299.26416,409.58651 L 304.56421,378.57264 L 313.94411,378.57264 C 316.32939,378.57264 317.00502,380.26895 316.6472,382.36311 L 316.25864,384.64632 L 335.08224,384.64632 L 336.78725,374.66386 C 337.53479,370.2865 334.81779,367.51382 330.08898,367.51382 L 287.21597,367.51382 L 278.8411,417.57224" />
    <path
       id="path2814"
       style="fill:#ef2e31;fill-opacity:1;fill-rule:nonzero;stroke:none"
       d="M 273.66806,442.30772 L 275.22635,433.19227 C 275.77323,429.9887 278.55461,428.46578 284.30817,428.46578 L 294.6728,428.46578 L 294.20421,431.19613 L 282.22503,431.19613 C 281.79182,431.19613 281.30061,431.30283 280.83145,431.51161 C 280.23991,431.74765 279.77538,432.16752 279.47497,432.77239 C 279.40828,432.93014 279.34159,433.08788 279.31027,433.2723 L 278.76165,436.47645 L 293.26356,436.47645 L 292.79207,439.23521 L 278.29016,439.23521 L 277.86101,441.7562 L 277.65861,442.93695 C 277.62323,443.14805 277.67427,443.30579 277.76126,443.48847 C 278.3035,444.45987 278.98145,444.64429 281.89853,444.64429 L 291.78704,444.64429 L 291.32019,447.37695 L 280.32632,447.37695 C 275.47979,447.37695 273.10552,445.59132 273.66806,442.30772" />
    <path
       id="path2816"
       style="fill:#ef2e31;fill-opacity:1;fill-rule:nonzero;stroke:none"
       d="M 295.85124,447.37695 L 299.0838,428.46578 L 302.63012,428.46578 L 299.39755,447.37695 L 295.85124,447.37695" />
    <path
       id="path2818"
       style="fill:#ef2e31;fill-opacity:1;fill-rule:nonzero;stroke:none"
       d="M 309.12831,440.20661 L 320.03751,437.00071 C 320.04911,436.94968 320.06013,436.86965 320.07579,436.79194 C 320.23121,435.87158 319.73536,435.55551 318.11908,435.55551 L 312.32551,435.55551 C 310.63093,435.55551 309.83352,436.08267 309.6172,437.34346 L 309.12831,440.20661 z M 304.99336,443.64621 L 306.08016,437.2901 C 306.54295,434.58644 308.8685,433.19227 313.36127,433.19227 L 318.6416,433.19227 C 322.10788,433.19227 324.00602,434.53308 323.61746,436.81861 L 323.32807,438.49927 L 308.68408,442.80588 L 308.60347,443.27911 C 308.59477,443.33015 308.58375,443.3835 308.57505,443.43686 C 308.67074,444.72432 309.05524,445.01139 310.74924,445.01139 L 322.45237,445.01139 L 322.04757,447.37695 L 310.149,447.37695 C 308.06123,447.37695 306.74767,446.98085 305.77106,446.00946 C 305.13545,445.35355 304.82866,444.61761 304.99336,443.64621" />
    <path
       id="path2820"
       style="fill:#ef2e31;fill-opacity:1;fill-rule:nonzero;stroke:none"
       d="M 326.9144,443.7796 L 328.11487,436.76526 C 328.45936,434.74186 330.16263,433.53501 333.64167,433.24562 C 333.9618,433.21953 334.2796,433.19227 334.59567,433.19227 L 342.75248,433.19227 L 342.34769,435.55551 L 334.19087,435.55551 C 333.99543,435.55551 333.71475,435.58277 333.34591,435.66222 C 332.36349,435.87158 331.7273,436.36974 331.60493,437.08075 L 330.55119,443.25244 C 330.53379,443.35683 330.51581,443.46121 330.53843,443.56792 C 330.60918,444.06609 330.89625,444.45987 331.32946,444.69764 C 331.7273,444.90642 332.18081,445.01139 332.69232,445.01139 L 340.77142,445.01139 L 340.3672,447.37695 L 332.24982,447.37695 C 330.98962,447.37695 330.071,447.21863 329.26199,446.87646 C 327.45258,446.1672 326.69635,445.06474 326.9144,443.7796" />
    <path
       id="path2822"
       style="fill:#ef2e31;fill-opacity:1;fill-rule:nonzero;stroke:none"
       d="M 344.33745,447.37695 L 347.57002,428.46578 L 351.11634,428.46578 L 350.30906,433.19227 L 353.97311,433.19227 L 353.56831,435.55551 L 349.90485,435.55551 L 347.88377,447.37695 L 344.33745,447.37695" />
    <path
       id="path2824"
       style="fill:#ef2e31;fill-opacity:1;fill-rule:nonzero;stroke:none"
       d="M 353.67096,447.37695 L 355.45137,436.94968 C 355.49834,436.68755 355.58707,436.39642 355.66942,436.13371 C 356.30329,434.27095 357.53276,433.53501 360.42027,433.24562 C 360.73865,433.21953 361.05878,433.19227 361.33425,433.19227 L 363.34431,433.19227 L 362.93719,435.58277 L 361.20086,435.58277 C 360.72937,435.58277 360.27818,435.68716 359.93602,435.8449 C 359.29983,436.10935 359.09743,436.36974 358.9884,437.00071 L 357.21669,447.37695 L 353.67096,447.37695" />
    <path
       id="path2826"
       style="fill:#ef2e31;fill-opacity:1;fill-rule:nonzero;stroke:none"
       d="M 370.30239,445.01139 L 376.01651,445.01139 C 377.59046,445.01139 378.59781,444.43551 378.80195,443.22576 L 379.82264,437.26343 C 380.0204,436.10935 379.20675,435.55551 377.63048,435.55551 L 371.91926,435.55551 C 370.26238,435.55551 369.25735,436.13371 369.06423,437.26343 L 368.06384,443.12137 C 367.84404,444.40883 368.64667,445.01139 370.30239,445.01139 z M 364.38646,443.88399 L 365.64956,436.50313 C 365.9807,434.55744 367.82374,433.45498 370.93858,433.21953 C 371.25407,433.21953 371.57188,433.19227 371.88794,433.19227 L 378.39078,433.19227 C 378.70626,433.19227 378.97767,433.21953 379.24908,433.24562 C 382.35059,433.53501 383.81319,434.66415 383.49944,436.50313 L 382.23692,443.88399 C 382.00378,445.24916 381.01847,446.1672 378.79557,446.95649 C 377.9593,447.2453 377.10795,447.37695 375.9649,447.37695 L 369.34666,447.37695 C 364.14404,447.37695 364.26409,443.90835 364.38646,443.88399" />
    <path
       id="path2828"
       style="fill:#ef2e31;fill-opacity:1;fill-rule:nonzero;stroke:none"
       d="M 386.60094,447.37695 L 388.39991,436.84297 C 388.80471,434.47973 391.15229,433.19227 395.01409,433.19227 L 400.6099,433.19227 C 404.47112,433.19227 406.37854,434.47973 405.97432,436.84297 L 404.17362,447.37695 L 400.6273,447.37695 L 402.37929,437.13178 L 402.4773,436.5559 L 402.49064,436.47645 C 402.41699,435.97597 401.65437,435.60945 400.23642,435.60945 L 394.6006,435.60945 C 392.74828,435.60945 392.09005,436.00264 391.89693,437.13178 L 390.14726,447.37695 L 386.60094,447.37695" />
    <path
       id="path2830"
       style="fill:#ef2e31;fill-opacity:1;fill-rule:nonzero;stroke:none"
       d="M 412.63722,447.37695 L 415.0631,433.19227 L 411.51678,433.19227 L 409.09148,447.37695 L 412.63722,447.37695 z M 411.37644,430.09308 C 411.44777,429.67321 411.75455,429.25276 412.2794,428.96395 C 413.29777,428.30804 414.83344,428.30804 415.67203,428.93727 C 416.55005,429.56882 416.37027,430.61793 415.31189,431.27616 C 414.25814,431.90539 412.72189,431.90539 411.88794,431.24948 C 411.46575,430.96067 411.29872,430.54022 411.37644,430.09308" />
    <path
       id="path2832"
       style="fill:#ef2e31;fill-opacity:1;fill-rule:nonzero;stroke:none"
       d="M 418.25101,443.7796 L 419.44916,436.76526 C 419.79364,434.74186 421.49924,433.53501 424.97596,433.24562 C 425.29608,433.21953 425.61621,433.19227 425.92996,433.19227 L 434.08677,433.19227 L 433.68429,435.55551 L 425.52748,435.55551 C 425.32972,435.55551 425.04961,435.58277 424.68019,435.66222 C 423.7001,435.87158 423.06217,436.36974 422.94212,437.08075 L 421.88605,443.25244 C 421.86808,443.35683 421.8501,443.46121 421.87214,443.56792 C 421.94405,444.06609 422.23054,444.45987 422.66375,444.69764 C 423.06217,444.90642 423.51568,445.01139 424.02892,445.01139 L 432.10629,445.01139 L 431.70381,447.37695 L 423.58411,447.37695 C 422.32391,447.37695 421.40587,447.21863 420.59627,446.87646 C 418.78687,446.1672 418.03063,445.06474 418.25101,443.7796" />
    <path
       id="path2834"
       style="fill:#ef2e31;fill-opacity:1;fill-rule:nonzero;stroke:none"
       d="M 434.96537,447.37695 L 435.36959,445.01139 L 446.24341,445.01139 C 446.51888,445.01139 446.84828,444.93309 447.15507,444.74867 C 447.58654,444.5399 447.83998,444.19773 447.94437,443.59518 L 448.12879,442.5165 C 448.28885,441.57178 447.76633,441.17858 446.26777,441.17858 L 441.46125,441.17858 C 438.97796,441.17858 437.68412,440.6781 436.95514,439.65335 C 436.64139,439.18186 436.53004,438.68137 436.60602,438.23482 L 436.91454,436.4231 C 437.26135,434.3997 439.24067,433.19227 442.19487,433.19227 L 453.30704,433.19227 L 452.90225,435.55551 L 442.10614,435.55551 C 441.91012,435.55551 441.62595,435.60945 441.29249,435.71383 C 440.792,435.87158 440.50551,436.16039 440.42954,436.60752 L 440.2544,437.63227 C 440.22308,437.81437 440.3008,438.05272 440.46318,438.2615 C 440.72357,438.57698 441.27915,438.78866 441.98841,438.78866 L 447.26816,438.78866 C 447.58422,438.78866 447.93335,438.81244 448.24419,438.8397 C 450.66311,439.20854 452.01958,440.496 451.75513,442.04559 L 451.37237,444.27777 C 451.2877,444.77535 450.94786,445.38023 450.34531,445.90507 C 450.01184,446.24723 449.57399,446.50936 449.10018,446.7454 C 448.12647,447.14091 447.0617,447.37695 446.31242,447.37695 L 434.96537,447.37695" />
  </g>
</svg>
