<svg width="500" height="91" viewBox="0 0 500 91" fill="none" xmlns="http://www.w3.org/2000/svg">
<g clip-path="url(#clip0_1_728)">
<mask id="mask0_1_728" style="mask-type:luminance" maskUnits="userSpaceOnUse" x="0" y="0" width="500" height="91">
<path d="M500 0H0V90.677H500V0Z" fill="white"/>
</mask>
<g mask="url(#mask0_1_728)">
<path fill-rule="evenodd" clip-rule="evenodd" d="M181.421 32.8335C181.421 32.0101 181.981 31.5701 182.684 31.5701C183.874 31.5701 185.671 32.8335 186.684 35.3601C186.321 35.3601 185.774 35.4701 185.407 35.4701C183.241 35.4701 181.421 34.4401 181.421 32.8335ZM50.3335 32.8335C50.3335 32.0101 50.8702 31.5701 51.6035 31.5701C52.7635 31.5701 54.4869 32.8335 55.4869 35.3601C52.1402 35.3601 50.3335 34.6368 50.3335 32.8335ZM75.617 19.7767C75.617 6.26002 78.2503 4.18335 79.067 4.18335C80.5203 4.18335 80.6936 5.09002 80.6936 10.2734C80.6936 15.6001 78.4236 22.5701 75.617 26.3968V19.7767ZM167.654 33.1035C166.094 35.2768 164.831 38.3635 164.831 42.3402C164.831 49.9569 169.174 57.2269 177.614 57.2269C185.774 57.2269 191.491 50.7802 191.491 41.7902C191.491 39.1802 191.391 38.8202 191.221 37.7368C193.117 36.9101 194.754 35.6468 196.027 34.6368C197.111 33.8201 197.921 33.3635 198.567 33.3635C199.381 33.3635 199.737 34.0001 199.737 35.1768V52.9635C199.737 55.8602 200.654 57.2269 202.911 57.2269C204.991 57.2269 206.454 55.7669 207.264 54.0469C210.264 47.7902 214.608 39.4502 216.504 36.2835C216.961 35.5568 217.331 35.0001 217.591 35.0001C217.954 35.0001 218.141 35.2768 218.141 36.4501V50.6102C218.141 54.5935 219.961 57.2269 223.934 57.2269C228.114 57.2269 230.188 53.2235 233.841 47.0602C234.014 46.6902 234.091 46.4268 234.091 46.1635C234.091 45.3468 233.384 44.8835 232.654 44.8835C231.831 44.8835 231.378 45.7068 228.664 48.6902C228.114 49.2569 227.581 50.0435 226.574 50.0435C226.214 50.0435 225.938 49.6069 225.938 49.0535V33.1801C225.938 28.9168 224.031 27.1968 221.584 27.1968C219.594 27.1968 217.954 28.0134 216.234 30.5535C213.151 35.0968 209.977 41.5402 208.261 44.7868C208.067 45.1669 207.807 45.7068 207.631 45.7068C207.441 45.7068 207.361 45.4268 207.361 44.7868V33.1801C207.361 29.8334 206.454 27.1968 202.911 27.1968C199.191 27.1968 197.291 29.7401 194.571 31.6401C192.847 32.9235 191.311 33.8201 190.137 34.3635C188.314 29.7401 184.964 27.3968 182.154 27.4668C179.334 27.5634 177.341 29.2968 177.341 32.2001C177.341 35.1768 179.164 37.2501 181.601 38.1735C182.954 38.7168 184.227 38.8202 186.051 38.8202C186.597 38.8202 187.137 38.8201 187.487 38.7168C187.681 39.6202 187.594 40.9068 187.594 41.9002C187.594 46.3502 184.964 50.7802 180.074 50.7802C174.984 50.7802 172.004 45.8835 172.004 40.2668C172.004 36.0002 173.267 32.4701 175.337 30.0301C176.174 29.1168 176.797 28.5635 176.797 27.7268C176.797 27.3035 176.174 27.1968 175.624 27.1968C172.171 27.1968 168.374 28.7435 165.751 30.0968C162.287 31.9135 158.217 34.9168 154.857 37.9068C153.227 34.2702 151.234 31.0968 150.231 28.6401C149.871 27.6435 149.607 26.4868 148.881 26.4868C148.237 26.4868 147.957 27.1201 147.514 28.3701C145.887 33.1802 137.177 47.2469 135.274 49.1502C135.094 49.4102 134.831 49.6969 134.744 49.6969C134.547 49.6969 134.444 49.6069 134.444 49.0536V33.1802C134.444 28.9168 132.724 27.1968 130.384 27.1968C128.381 27.1968 126.664 28.0135 125.034 30.5535C122.047 35.0968 118.404 41.7169 116.687 44.9735C116.41 45.5335 116.137 45.7069 116.044 45.7069C115.954 45.7069 115.88 45.3469 115.88 44.7869V33.1802C115.88 28.9168 114.15 27.1968 111.79 27.1968C109.79 27.1968 107.897 27.9401 106.347 30.5535C102.547 37.0002 96.2037 46.8835 95.0237 48.5035C94.8404 48.7836 94.657 48.9669 94.477 49.0536C94.2971 49.0536 94.1937 48.8769 94.1937 48.4269V33.1802C94.1937 28.9168 92.4737 27.1968 90.1304 27.1968C86.8603 27.1968 85.057 30.2035 83.867 32.0968C82.227 34.7268 80.0603 38.2702 78.3436 41.5402C77.1603 43.7269 76.157 45.7069 75.7903 45.7069C75.617 45.7069 75.617 44.8835 75.617 43.3469V31.2001C81.3203 24.8401 84.8604 17.0501 84.8604 8.52672C84.8604 3.62003 82.6937 0.913358 79.347 0.913358C73.077 0.913358 68.2836 10.7101 68.2836 22.3068V31.7368C65.3769 33.5535 62.6536 34.4402 59.2936 35.0968C57.5769 30.0301 53.9436 27.3968 51.0536 27.4668C48.2502 27.5635 46.2469 29.2968 46.2469 32.2001C46.2469 37.0002 50.9636 38.9935 55.1236 38.9935H56.3036C56.4802 39.9068 56.4802 40.9068 56.4802 41.9002C56.4802 46.3502 53.8536 50.7802 48.9702 50.7802C43.8969 50.7802 40.8969 45.8835 40.8969 40.2668C40.8969 36.0002 42.1535 32.4701 44.2402 30.0301C45.0635 29.1168 45.7035 28.3001 45.7035 27.7268C45.7035 27.3035 45.0635 27.1968 44.5135 27.1968C41.0702 27.1968 33.4635 31.8401 24.3901 40.9068C23.5868 33.6501 22.6734 26.5701 22.6734 19.6767C22.6734 11.9734 24.1968 5.43002 24.5601 3.54335C24.7434 2.37334 24.8568 1.63667 24.8568 1.10334C24.8568 0.373335 24.4701 0 23.4934 0C16.1401 0 0 11.7034 0 29.2034C0 41.6135 4.54335 47.6035 12.4167 55.3102C7.6367 63.0202 3.80335 72.1736 3.80335 80.337C3.80335 86.2203 5.17669 90.677 9.5167 90.677C18.5867 90.677 25.3801 71.827 25.3801 57.8536C25.3801 53.6869 25.2134 49.5102 24.8568 45.3468C28.2001 41.7902 33.3701 37.0001 34.6301 36.5468C34.0901 38.4535 33.7268 40.4535 33.7268 42.3402C33.7268 49.9569 38.0868 57.2269 46.5102 57.2269C54.4102 57.2269 60.3836 50.7802 60.3836 41.7902C60.3836 40.6302 60.2902 39.6202 60.2102 38.5368C63.0969 37.9935 65.7536 37.2501 68.2836 35.7335V53.9569C68.2836 56.3036 69.9036 57.2269 71.4469 57.2269C73.5436 57.2269 74.6303 55.7669 76.1569 52.4302C77.4403 49.6969 80.8736 43.4468 82.957 39.7168C84.6003 36.8068 85.507 34.9168 86.237 34.9168C86.407 34.9168 86.6003 35.3601 86.6003 36.4501V51.9602C86.6003 56.1336 88.777 57.2269 90.6603 57.2269C92.4737 57.2269 93.6603 56.2302 94.8403 54.5935C99.5604 47.8769 104.554 39.9068 106.534 36.4501C106.9 35.8301 107.35 35.3601 107.717 35.3601C108.07 35.3601 108.254 35.5568 108.254 36.7201V52.9635C108.254 55.8602 109.16 57.2269 111.437 57.2269C113.51 57.2269 114.867 55.7669 115.677 54.0469C118.69 47.7902 123.12 39.5335 125.034 36.2835C125.477 35.5568 125.934 34.9168 126.204 34.9168C126.58 34.9168 126.664 35.3601 126.664 36.5468V51.9602C126.664 56.1336 128.84 57.2269 130.757 57.2269C133.274 57.2269 134.924 55.4036 136.554 53.3269C139.527 49.4102 143.884 42.4568 146.517 37.9935C147.431 39.4502 148.417 41.1768 149.247 43.0768C147.067 45.7068 144.887 48.6902 144.887 51.8602C144.887 55.2202 147.244 57.2269 149.694 57.2269C153.857 57.2269 157.661 53.2235 157.661 47.7035C157.661 45.5335 157.037 43.2602 156.227 41.0902C159.924 37.4535 164.374 33.9168 167.654 33.1035ZM18.3067 52.8702C19.0401 57.6702 19.6767 62.3969 19.6767 66.1069C19.6767 74.797 16.7834 84.957 11.7934 84.8737C9.86671 84.8737 8.2467 82.947 8.1667 79.6103C7.98337 68.7403 13.1501 59.4869 18.3067 52.8702ZM150.684 46.6902C151.234 48.2502 151.511 49.5102 151.511 50.7802C151.511 52.2335 150.964 53.6869 149.961 53.6869C149.247 53.6869 148.521 52.8702 148.521 51.5969C148.521 50.2335 149.694 48.0569 150.684 46.6902ZM21.5801 3.44668C21.5801 4.00002 20.3101 6.53003 18.6834 11.07C16.9601 15.7767 15.3167 22.4801 15.3167 30.5535C15.3167 35.3601 16.5067 41.7168 17.5101 48.1502L14.6067 52.0635C9.97671 46.4268 7.08003 40.0902 7.08003 29.2034C7.08003 13.7934 16.4167 3.10335 21.2134 3.10335C21.5001 3.10335 21.5801 3.18335 21.5801 3.44668Z" fill="#D51900"/>
<path fill-rule="evenodd" clip-rule="evenodd" d="M447.337 32.8335C447.337 32.0101 447.867 31.5701 448.6 31.5701C449.77 31.5701 451.587 32.8335 452.58 35.3601C452.227 35.3601 451.683 35.4701 451.303 35.4701C449.147 35.4701 447.337 34.4401 447.337 32.8335ZM316.223 32.8335C316.223 32.0101 316.776 31.5701 317.493 31.5701C318.673 31.5701 320.413 32.8335 321.389 35.3601C318.036 35.3601 316.223 34.6368 316.223 32.8335ZM341.523 19.7767C341.523 6.26002 344.14 4.18335 344.966 4.18335C346.413 4.18335 346.596 5.09002 346.596 10.2734C346.596 15.6001 344.323 22.5701 341.523 26.3968V19.7767ZM284.229 52.8702C284.933 57.6702 285.593 62.3969 285.593 66.1069C285.593 74.797 282.696 84.957 277.696 84.8737C275.796 84.8737 274.163 82.947 274.073 79.6103C273.886 68.7403 279.063 59.4869 284.229 52.8702ZM416.603 46.6902C417.153 48.2502 417.413 49.5102 417.413 50.7802C417.413 52.2335 416.87 53.6869 415.873 53.6869C415.156 53.6869 414.41 52.8702 414.41 51.5969C414.41 50.2335 415.6 48.0569 416.603 46.6902ZM287.476 3.44668C287.476 4.00002 286.219 6.53003 284.576 11.07C282.866 15.7767 281.223 22.4801 281.223 30.5535C281.223 35.3601 282.433 41.7168 283.423 48.1502L280.513 52.0635C275.896 46.4268 272.979 40.0902 272.979 29.2034C272.979 13.7934 282.336 3.10335 287.133 3.10335C287.396 3.10335 287.476 3.18335 287.476 3.44668ZM272.359 48.7835C273.979 50.9602 275.979 53.0435 278.336 55.3102C273.526 63.0202 269.723 72.1736 269.723 80.337C269.723 86.2203 271.093 90.677 275.446 90.677C284.503 90.677 291.296 71.827 291.296 57.8536C291.296 53.6869 291.119 49.5102 290.756 45.3468C294.116 41.7902 299.266 37.0001 300.553 36.5468C300.006 38.4535 299.629 40.4535 299.629 42.3402C299.629 49.9569 303.986 57.2269 312.426 57.2269C320.306 57.2269 326.289 50.7802 326.289 41.7902C326.289 40.6302 326.206 39.6202 326.106 38.5368C329.013 37.9935 331.659 37.2501 334.183 35.7335V53.9569C334.183 56.3036 335.806 57.2269 337.336 57.2269C339.45 57.2269 340.536 55.7669 342.07 52.4302C343.333 49.6969 346.786 43.4468 348.876 39.7168C350.503 36.8068 351.41 34.9168 352.153 34.9168C352.323 34.9168 352.493 35.3601 352.493 36.4501V51.9602C352.493 56.1336 354.663 57.2269 356.57 57.2269C358.39 57.2269 359.556 56.2302 360.76 54.5935C365.46 47.8769 370.453 39.9068 372.443 36.4501C372.806 35.8301 373.266 35.3601 373.616 35.3601C373.97 35.3601 374.17 35.5568 374.17 36.7201V52.9635C374.17 55.8602 375.066 57.2269 377.33 57.2269C379.416 57.2269 380.776 55.7669 381.6 54.0469C384.593 47.7902 389.033 39.5335 390.93 36.2835C391.393 35.5568 391.843 34.9168 392.126 34.9168C392.48 34.9168 392.58 35.3601 392.58 36.5468V51.9602C392.58 56.1336 394.736 57.2269 396.636 57.2269C399.193 57.2269 400.826 55.4036 402.446 53.3269C405.436 49.4102 409.8 42.4568 412.426 37.9935C413.323 39.4502 414.333 41.1768 415.156 43.0768C412.956 45.7068 410.803 48.6902 410.803 51.8602C410.803 55.2202 413.133 57.2269 415.6 57.2269C419.763 57.2269 423.566 53.2235 423.566 47.7035C423.566 45.5335 422.937 43.2602 422.12 41.0902C425.833 37.4535 430.28 33.9168 433.543 33.1035C432.003 35.2768 430.733 38.3635 430.733 42.3402C430.733 49.9569 435.09 57.2269 443.523 57.2269C451.683 57.2269 457.38 50.7802 457.38 41.7902C457.38 39.1802 457.297 38.8202 457.127 37.7368C459.01 36.9101 460.653 35.6468 461.937 34.6368C463 33.8201 463.833 33.3635 464.457 33.3635C465.277 33.3635 465.66 34.0001 465.66 35.1768V52.9635C465.66 55.8602 466.553 57.2269 468.82 57.2269C470.897 57.2269 472.357 55.7669 473.177 54.0469C476.15 47.7902 480.51 39.4502 482.407 36.2835C482.86 35.5568 483.23 35.0001 483.503 35.0001C483.873 35.0001 484.05 35.2768 484.05 36.4501V50.6102C484.05 54.5935 485.847 57.2269 489.847 57.2269C494.03 57.2269 496.11 53.2235 499.743 47.0602C499.913 46.6902 500 46.4268 500 46.1635C500 45.3468 499.273 44.8835 498.554 44.8835C497.744 44.8835 497.28 45.7068 494.567 48.6902C494.03 49.2569 493.477 50.0435 492.484 50.0435C492.11 50.0435 491.854 49.6069 491.854 49.0535V33.1801C491.854 28.9168 489.927 27.1968 487.48 27.1968C485.497 27.1968 483.873 28.0134 482.143 30.5535C479.053 35.0968 475.89 41.5402 474.18 44.7868C473.983 45.1669 473.72 45.7068 473.527 45.7068C473.333 45.7068 473.263 45.4268 473.263 44.7868V33.1801C473.263 29.8334 472.357 27.1968 468.82 27.1968C465.093 27.1968 463.2 29.7401 460.483 31.6401C458.743 32.9235 457.213 33.8201 456.023 34.3635C454.227 29.7401 450.86 27.3968 448.063 27.4668C445.237 27.5634 443.26 29.2968 443.26 32.2001C443.26 35.1768 445.073 37.2501 447.5 38.1735C448.863 38.7168 450.133 38.8202 451.97 38.8202C452.5 38.8202 453.027 38.8201 453.413 38.7168C453.59 39.6202 453.497 40.9068 453.497 41.9002C453.497 46.3502 450.86 50.7802 445.96 50.7802C440.887 50.7802 437.907 45.8835 437.907 40.2668C437.907 36.0002 439.167 32.4701 441.243 30.0301C442.07 29.1168 442.71 28.5635 442.71 27.7268C442.71 27.3035 442.07 27.1968 441.527 27.1968C438.097 27.1968 434.277 28.7435 431.647 30.0968C428.197 31.9135 424.117 34.9168 420.773 37.9068C419.137 34.2701 417.153 31.0968 416.143 28.6401C415.77 27.6434 415.523 26.4868 414.77 26.4868C414.143 26.4868 413.866 27.1201 413.42 28.3701C411.783 33.1801 403.086 47.2469 401.183 49.1502C401 49.4102 400.73 49.6969 400.633 49.6969C400.463 49.6969 400.363 49.6068 400.363 49.0535V33.1801C400.363 28.9168 398.653 27.1968 396.273 27.1968C394.276 27.1968 392.58 28.0134 390.93 30.5535C387.933 35.0968 384.316 41.7168 382.593 44.9735C382.326 45.5335 382.06 45.7068 381.973 45.7068C381.87 45.7068 381.776 45.3468 381.776 44.7868V33.1801C381.776 28.9168 380.066 27.1968 377.706 27.1968C375.706 27.1968 373.79 27.9401 372.263 30.5535C368.443 37.0001 362.106 46.8835 360.92 48.5035C360.76 48.7835 360.566 48.9669 360.373 49.0535C360.213 49.0535 360.106 48.8769 360.106 48.4269V33.1801C360.106 28.9168 358.39 27.1968 356.023 27.1968C352.75 27.1968 350.95 30.2035 349.763 32.0968C348.133 34.7268 345.97 38.2701 344.24 41.5402C343.07 43.7268 342.07 45.7068 341.706 45.7068C341.523 45.7068 341.523 44.8835 341.523 43.3468V31.2001C347.243 24.8401 350.766 17.0501 350.766 8.5267C350.766 3.62001 348.596 0.913337 345.23 0.913337C338.983 0.913337 334.183 10.71 334.183 22.3068V31.7368C331.273 33.5535 328.553 34.4401 325.193 35.0968C323.483 30.0301 319.853 27.3968 316.969 27.4668C314.139 27.5634 312.153 29.2968 312.153 32.2001C312.153 37.0001 316.853 38.9935 321.033 38.9935H322.219C322.386 39.9068 322.386 40.9068 322.386 41.9002C322.386 46.3502 319.766 50.7802 314.866 50.7802C309.786 50.7802 306.809 45.8835 306.809 40.2668C306.809 36.0001 308.076 32.4701 310.146 30.0301C310.959 29.1168 311.599 28.3001 311.599 27.7268C311.599 27.3034 310.959 27.1968 310.423 27.1968C306.973 27.1968 299.363 31.8401 290.286 40.9068C289.489 33.6501 288.573 26.5701 288.573 19.6767C288.573 11.9734 290.113 5.43002 290.476 3.54335C290.656 2.37334 290.756 1.63667 290.756 1.10334C290.756 0.373335 290.386 0 289.406 0C282.059 0 265.919 11.7034 265.919 29.2034C265.919 36.3568 267.459 41.4468 270.179 45.8835C269.166 45.7068 268.369 45.7068 267.626 45.7068C264.736 45.7068 262.006 46.4268 260.313 46.7968V44.9735C260.313 41.0902 259.393 35.7335 257.756 33.9168C257.563 33.7301 257.293 33.6501 257.039 33.6501C256.293 33.6501 255.399 34.0001 254.406 34.5501C253.306 35.0968 252.219 35.6468 252.219 36.0001C252.219 36.1735 252.219 36.3568 252.493 36.8068C253.133 37.7368 254.859 39.5335 255.483 43.8068C252.393 40.7202 248.872 39.3502 244.266 39.3502C238.816 39.3502 237.176 41.7902 237.176 44.2535C237.176 48.9669 243.432 51.3235 251.333 51.3235C252.779 51.3235 254.406 51.0502 256.029 50.6802C256.029 52.1335 256.213 53.4202 256.213 54.5002C256.213 56.0435 256.476 57.2269 257.486 57.2269C259.023 57.2269 259.936 54.1302 260.109 49.6969C262.919 48.9669 265.826 48.3402 268.283 48.3402C269.456 48.3402 270.923 48.5035 272.359 48.7835ZM254.499 47.8769C252.973 48.0568 252.043 48.0568 250.426 48.0568C246.879 48.0568 244.266 46.6902 244.266 44.7135C244.266 43.4468 244.892 42.7102 246.706 42.7102C249.613 42.7102 251.956 44.7135 254.499 47.8769Z" fill="#D51900"/>
</g>
</g>
<defs>
<clipPath id="clip0_1_728">
<rect width="500" height="91" fill="white"/>
</clipPath>
</defs>
</svg>
