<svg xmlns="http://www.w3.org/2000/svg" width="1276" height="228" viewBox="0 0 1276 228">
    <g fill="#000" fill-rule="evenodd">
        <path fill-rule="nonzero" d="M31.47 127.98c5.38 0 10.04.74 13.98 2.23 3.94 1.49 7.18 3.51 9.73 6.05 2.54 2.55 4.44 5.54 5.69 9.01 1.25 3.46 1.87 7.11 1.87 10.95 0 3.84-.65 7.45-1.95 10.81-1.3 3.36-3.31 6.27-6.05 8.72-2.74 2.45-6.2 4.39-10.37 5.83-4.18 1.44-9.1 2.16-14.77 2.16H14.9v42.51H.78v-98.27h30.69zM14.9 171.06h15.99c5.28 0 9.48-1.34 12.61-4.03 3.12-2.69 4.68-6.48 4.68-11.38 0-1.82-.27-3.63-.79-5.4-.53-1.78-1.44-3.39-2.74-4.83-1.3-1.44-3.03-2.59-5.19-3.46-2.16-.87-4.83-1.3-8-1.3H14.89v30.4h.01zM192.62 226.25h-14.41l-13.11-28.96h-41.79l-12.39 28.96H96.51l42.22-98.84h9.94l43.95 98.84zm-63.83-41.64h30.55l-15.85-35.59-14.7 35.59zM266.35 127.98c9.99 0 17.87 2.45 23.63 7.35 5.76 4.9 8.65 11.62 8.65 20.17 0 5.76-1.42 10.69-4.25 14.77-2.84 4.08-6.89 7.18-12.18 9.29 4.42 2.98 8.24 6.73 11.45 11.24 3.22 4.52 6.7 9.85 10.45 15.99 1.06 1.73 2.02 3.27 2.88 4.61.87 1.35 1.8 2.74 2.81 4.18 1.01 1.44 2.11 3 3.31 4.68 1.2 1.68 2.67 3.67 4.39 5.98h-16.86l-12.97-20.17c-3.27-5-6.12-8.98-8.57-11.96-2.45-2.98-4.66-5.26-6.63-6.84-1.97-1.58-3.82-2.59-5.55-3.02-1.73-.43-3.51-.65-5.33-.65h-5.91v42.65h-14.12v-98.27h24.8zm-10.67 42.94h9.08c3.75 0 6.87-.45 9.37-1.37 2.5-.91 4.49-2.12 5.98-3.6 1.49-1.49 2.52-3.19 3.1-5.11.58-1.92.87-3.89.87-5.91-.1-4.61-1.61-8.24-4.54-10.88-2.93-2.64-7.85-3.96-14.77-3.96h-9.08v30.83h-.01z"/>
        <path d="M433.06 140.66h-34v85.59h-14.12v-85.59h-34v-12.68h82.13v12.68zM577.98 226.25h-12.1l-65.7-75.64v75.64h-13.26v-98.27h11.24l66.57 76.08v-76.08h13.26v98.27zM699.02 140.66h-41.64v29.68h40.2v12.68h-40.2v30.55h42.94v12.68h-57.06v-98.27h55.76z"/>
        <path fill-rule="nonzero" d="M787.45 127.98c9.99 0 17.87 2.45 23.63 7.35 5.76 4.9 8.65 11.62 8.65 20.17 0 5.76-1.42 10.69-4.25 14.77-2.84 4.08-6.89 7.18-12.17 9.29 4.42 2.98 8.23 6.73 11.45 11.24 3.22 4.52 6.7 9.85 10.45 15.99 1.06 1.73 2.02 3.27 2.88 4.61.86 1.35 1.8 2.74 2.81 4.18 1.01 1.44 2.11 3 3.31 4.68 1.2 1.68 2.67 3.67 4.39 5.98h-16.86l-12.97-20.17c-3.27-5-6.12-8.98-8.58-11.96-2.45-2.98-4.66-5.26-6.63-6.84-1.97-1.58-3.82-2.59-5.54-3.02-1.73-.43-3.51-.65-5.33-.65h-5.91v42.65h-14.12v-98.27h24.79zm-10.66 42.94h9.08c3.75 0 6.87-.45 9.37-1.37 2.5-.91 4.49-2.12 5.98-3.6 1.49-1.49 2.52-3.19 3.1-5.11.58-1.92.86-3.89.86-5.91-.09-4.61-1.61-8.24-4.54-10.88-2.93-2.64-7.85-3.96-14.77-3.96h-9.08v30.83z"/>
        <path d="M935.32 149.59c-4.23-4.03-8.29-6.75-12.18-8.14-3.89-1.39-7.52-2.09-10.88-2.09-4.61 0-8.36 1.08-11.24 3.24-2.88 2.16-4.32 4.97-4.32 8.43 0 3.17 1.06 5.86 3.17 8.07s4.73 4.3 7.85 6.27c3.12 1.97 6.53 3.94 10.23 5.91 3.7 1.97 7.11 4.28 10.23 6.91 3.12 2.65 5.74 5.79 7.85 9.44 2.11 3.65 3.17 8.07 3.17 13.26 0 3.84-.7 7.4-2.09 10.66-1.39 3.27-3.31 6.08-5.76 8.43-2.45 2.36-5.36 4.2-8.72 5.55-3.36 1.34-7.01 2.02-10.95 2.02-5.38 0-10.28-.74-14.7-2.23s-8.69-3.77-12.82-6.84V200.6c3.65 4.61 7.66 8.14 12.03 10.59 4.37 2.45 9.01 3.67 13.9 3.67 2.69 0 5.04-.38 7.06-1.15 2.02-.77 3.7-1.75 5.04-2.95 1.34-1.2 2.32-2.54 2.95-4.03.63-1.49.94-2.91.94-4.25 0-3.36-1.06-6.31-3.17-8.86-2.11-2.54-4.73-4.9-7.86-7.06-3.13-2.16-6.53-4.3-10.23-6.41-3.7-2.11-7.11-4.44-10.23-6.99-3.13-2.54-5.74-5.43-7.86-8.65-2.11-3.22-3.17-7.08-3.17-11.6 0-4.03.72-7.66 2.16-10.88 1.44-3.22 3.46-5.95 6.05-8.21 2.59-2.25 5.71-4.01 9.37-5.26 3.65-1.25 7.73-1.87 12.25-1.87 7.68 0 14.99 2.3 21.9 6.91v15.99h.03zM1077.11 226.25H1063v-42.79h-55.04v42.79h-14.12v-98.27h14.12v42.79H1063v-42.79h14.12v98.27zM1152.68 226.25h-14.12v-98.27h14.12z"/>
        <path fill-rule="nonzero" d="M1244.4 127.98c5.38 0 10.04.74 13.98 2.23 3.94 1.49 7.18 3.51 9.73 6.05 2.55 2.55 4.44 5.54 5.69 9.01 1.25 3.46 1.87 7.11 1.87 10.95 0 3.84-.65 7.45-1.94 10.81-1.3 3.36-3.31 6.27-6.05 8.72-2.74 2.45-6.2 4.39-10.38 5.83-4.18 1.44-9.1 2.16-14.77 2.16h-14.7v42.51h-14.12v-98.27h30.69zm-16.57 43.08h15.99c5.28 0 9.48-1.34 12.61-4.03 3.12-2.69 4.68-6.48 4.68-11.38 0-1.82-.27-3.63-.79-5.4-.53-1.78-1.44-3.39-2.74-4.83-1.3-1.44-3.02-2.59-5.18-3.46-2.16-.87-4.83-1.3-8-1.3h-16.57v30.4z"/>
        <g>
            <path d="M299.88 1.56h7.97V49.2c0 5.35-.3 11.33-4.14 15.48-1.89 1.98-4.19 3.25-6.92 3.79-.14-.11-7.39-7.4-7.39-7.4 2.15-.02 4.41.14 6.45-.7 1.43-.55 2.44-1.53 3.03-2.92.74-1.39 1.01-4.6 1.01-9.17V1.56h-.01z"/>
            <path fill-rule="nonzero" d="M373.06.77c8.6 0 15.77 2.72 21.49 8.17 5.72 5.45 8.58 12.28 8.58 20.49 0 8.21-2.89 15.01-8.66 20.39-5.78 5.38-13.06 8.07-21.85 8.07-8.39 0-15.38-2.69-20.97-8.07-5.59-5.38-8.38-12.12-8.38-20.23 0-8.32 2.81-15.2 8.44-20.65C357.34 3.5 364.45.77 373.06.77zm.31 7.58c-6.37 0-11.61 1.99-15.71 5.98-4.1 3.99-6.15 9.08-6.15 15.27 0 6 2.06 11 6.17 14.99 4.11 3.99 9.27 5.98 15.45 5.98 6.21 0 11.4-2.03 15.55-6.1 4.16-4.07 6.23-9.13 6.23-15.19 0-5.9-2.08-10.86-6.23-14.89-4.15-4.03-9.25-6.04-15.31-6.04z"/>
            <path d="M479 1.56h7.97v55.68H479V33.01h-32.57v24.23h-7.97V1.56h7.97v24.25H479zM572.99 1.56h7.57v55.68h-6.86l-38.91-42.88v42.88h-7.49V1.56h6.46l39.23 43.25z"/>
            <g>
                <path d="M649.93 1.56v55.69h34.13v-7.19h-26.13V1.56zM721.67 1.56v55.69h35.93v-7.19h-27.93V32.75h26.38v-7.18h-26.38V8.74h27.2V1.56zM868.21 1.56l-15.2 38.38L837.5 1.56h-7.59l-15.42 38.38-15.36-38.38h-8l22.53 56.18h1.55l18.46-45.57 18.29 45.57h1.55l22.61-56.18zM910.46 1.56h8v55.69h-8zM972.22 33.94l-6.06-3.68c-3.8-2.32-6.2-4.64-7.93-6.79-1.79-2.23-2.69-4.97-2.69-7.9 0-4.38 1.52-7.94 4.56-10.68 3.04-2.74 7.1-4.06 11.96-4.06 5.13 0 8.91 1.31 12.79 3.92v9.05c-4.01-3.86-8.33-5.79-12.95-5.79-2.61 0-4.74.6-6.42 1.81-1.67 1.2-2.51 2.78-2.51 4.66 0 1.67.41 3.05 1.64 4.51s3.43 3.16 6.16 4.76l6.32 3.6c6.79 4.06 9.95 9.22 9.95 15.49 0 4.46-1.54 8.14-4.53 10.93-2.99 2.79-6.83 4.28-11.61 4.19-5.49-.1-10.4-1.63-15.03-5.13V42.71c4.3 5.45 9.29 8.06 14.95 8.06 2.5 0 4.58-.58 6.24-1.97 1.66-1.39 2.56-3.13 2.56-5.22.01-3.38-2.51-6.6-7.4-9.64z"/>
            </g>
        </g>
    </g>
</svg>
