<?xml version="1.0" encoding="UTF-8" standalone="no"?>
<!-- Created with Inkscape (http://www.inkscape.org/) -->

<svg
   xmlns:dc="http://purl.org/dc/elements/1.1/"
   xmlns:cc="http://creativecommons.org/ns#"
   xmlns:rdf="http://www.w3.org/1999/02/22-rdf-syntax-ns#"
   xmlns:svg="http://www.w3.org/2000/svg"
   xmlns="http://www.w3.org/2000/svg"
   xmlns:sodipodi="http://sodipodi.sourceforge.net/DTD/sodipodi-0.dtd"
   xmlns:inkscape="http://www.inkscape.org/namespaces/inkscape"
   width="165.84814"
   height="166.09285"
   viewBox="0 0 43.880653 43.9454"
   version="1.1"
   id="svg25295"
   inkscape:version="0.92.0 r15299"
   sodipodi:docname="karns quality foods.svg">
  <defs
     id="defs25289">
    <clipPath
       id="clipPath14528"
       clipPathUnits="userSpaceOnUse">
      <path
         inkscape:connector-curvature="0"
         id="path14526"
         d="m 17.28,611.691 123.606,-3.236 3.241,123.789 -123.605,3.236 z" />
    </clipPath>
    <clipPath
       id="clipPath14512"
       clipPathUnits="userSpaceOnUse">
      <path
         inkscape:connector-curvature="0"
         id="path14510"
         d="m 17.28,611.691 123.605,-3.236 3.242,123.789 -123.605,3.236 z" />
    </clipPath>
    <linearGradient
       id="linearGradient14502"
       spreadMethod="pad"
       gradientTransform="matrix(73.415063,-94.333724,-94.333724,-73.415063,45.018508,714.05011)"
       gradientUnits="userSpaceOnUse"
       y2="0"
       x2="1"
       y1="0"
       x1="0">
      <stop
         id="stop14492"
         offset="0"
         style="stop-opacity:1;stop-color:#72a4d2" />
      <stop
         id="stop14494"
         offset="0.252747"
         style="stop-opacity:1;stop-color:#26469a" />
      <stop
         id="stop14496"
         offset="0.532967"
         style="stop-opacity:1;stop-color:#010309" />
      <stop
         id="stop14498"
         offset="0.791209"
         style="stop-opacity:1;stop-color:#26469a" />
      <stop
         id="stop14500"
         offset="1"
         style="stop-opacity:1;stop-color:#72a4d2" />
    </linearGradient>
    <clipPath
       id="clipPath8982"
       clipPathUnits="userSpaceOnUse">
      <path
         inkscape:connector-curvature="0"
         id="path8980"
         d="M 0,0.337 H 702 V 738 H 0 Z" />
    </clipPath>
    <linearGradient
       id="linearGradient8972"
       spreadMethod="pad"
       gradientTransform="matrix(67.54464,-82.254517,82.254517,67.54464,49.017868,710.96967)"
       gradientUnits="userSpaceOnUse"
       y2="0"
       x2="1"
       y1="0"
       x1="0">
      <stop
         id="stop8954"
         offset="0"
         style="stop-opacity:1;stop-color:#70a3d2" />
      <stop
         id="stop8956"
         offset="0.24672927"
         style="stop-opacity:1;stop-color:#26489b" />
      <stop
         id="stop8958"
         offset="0.252747"
         style="stop-opacity:1;stop-color:#26489b" />
      <stop
         id="stop8960"
         offset="0.3015249"
         style="stop-opacity:1;stop-color:#26489b" />
      <stop
         id="stop8962"
         offset="0.532974"
         style="stop-opacity:1;stop-color:#121111" />
      <stop
         id="stop8964"
         offset="0.77968754"
         style="stop-opacity:1;stop-color:#26489b" />
      <stop
         id="stop8966"
         offset="0.791214"
         style="stop-opacity:1;stop-color:#26489b" />
      <stop
         id="stop8968"
         offset="0.80131325"
         style="stop-opacity:1;stop-color:#26489b" />
      <stop
         id="stop8970"
         offset="1"
         style="stop-opacity:1;stop-color:#70a3d2" />
    </linearGradient>
  </defs>
  <sodipodi:namedview
     id="base"
     pagecolor="#ffffff"
     bordercolor="#666666"
     borderopacity="1.0"
     inkscape:pageopacity="0.0"
     inkscape:pageshadow="2"
     inkscape:zoom="3.2284861"
     inkscape:cx="82.424067"
     inkscape:cy="82.546428"
     inkscape:document-units="mm"
     inkscape:current-layer="layer1"
     showgrid="false"
     fit-margin-top="0"
     fit-margin-left="0"
     fit-margin-right="0"
     fit-margin-bottom="0"
     units="px"
     inkscape:window-width="1280"
     inkscape:window-height="744"
     inkscape:window-x="-4"
     inkscape:window-y="-4"
     inkscape:window-maximized="1" />
  <metadata
     id="metadata25292">
    <rdf:RDF>
      <cc:Work
         rdf:about="">
        <dc:format>image/svg+xml</dc:format>
        <dc:type
           rdf:resource="http://purl.org/dc/dcmitype/StillImage" />
        <dc:title></dc:title>
      </cc:Work>
    </rdf:RDF>
  </metadata>
  <g
     inkscape:label="Layer 1"
     inkscape:groupmode="layer"
     id="layer1"
     transform="translate(-64.370537,-205.34739)">
    <g
       id="g25987"
       transform="translate(0.13229301,-0.13229271)">
      <g
         transform="matrix(0.35277777,0,0,-0.35277777,57.733747,464.51336)"
         id="g8942">
        <g
           id="g8944">
          <g
             id="g8950">
            <g
               id="g8952">
              <path
                 inkscape:connector-curvature="0"
                 id="path8974"
                 style="fill:url(#linearGradient8972);stroke:none"
                 d="m 26.757,671.969 c 0,-29.155 24.305,-52.793 54.288,-52.793 v 0 c 29.977,0 54.28,23.638 54.28,52.793 v 0 c 0,29.166 -24.303,52.795 -54.28,52.795 v 0 c -29.983,0 -54.288,-23.629 -54.288,-52.795" />
            </g>
          </g>
        </g>
      </g>
      <g
         transform="matrix(0.35277777,0,0,-0.35277777,57.733747,464.51336)"
         id="g8976">
        <g
           clip-path="url(#clipPath8982)"
           id="g8978">
          <g
             transform="translate(130.2678,675.6919)"
             id="g8984">
            <path
               inkscape:connector-curvature="0"
               id="path8986"
               style="fill:#ffffff;fill-opacity:1;fill-rule:nonzero;stroke:none"
               d="m 0,0 c 0,-24.805 -18.575,-44.914 -41.495,-44.914 -22.914,0 -41.492,20.109 -41.492,44.914 0,24.804 18.578,44.914 41.492,44.914 C -18.575,44.914 0,24.804 0,0" />
          </g>
          <g
             transform="translate(110.8826,630.9185)"
             id="g8988">
            <path
               inkscape:connector-curvature="0"
               id="path8990"
               style="fill:#26489b;fill-opacity:1;fill-rule:nonzero;stroke:none"
               d="m 0,0 c -4.27,-2.442 -8.813,-4.091 -13.462,-4.989 -4.701,-0.915 -9.511,-1.053 -14.279,-0.466 -9.642,1.185 -19.05,5.357 -26.903,12.089 L 22.495,47.362 C 23.62,37.96 22.195,28.584 18.45,20.37 14.646,12.02 8.425,4.81 0,0 m -46.791,91.468 c 8.644,3.753 17.895,4.516 26.708,2.812 8.685,-1.678 17.002,-5.771 23.962,-11.828 L -73.836,45.699 c -0.482,9.934 1.871,19.523 6.609,27.583 4.658,7.939 11.615,14.346 20.436,18.186 m -1.618,3.157 C -54.867,91.854 -60.392,87.793 -64.856,82.787 -69.377,77.72 -72.796,71.705 -74.944,65.12 -77.119,58.473 -78,51.282 -77.428,43.937 c 0.571,-7.387 2.615,-14.859 6.247,-22.005 7.268,-14.303 19.393,-24.278 32.891,-28.767 6.656,-2.217 13.605,-3.081 20.442,-2.482 6.753,0.588 13.374,2.601 19.494,6.125 6.019,3.464 10.978,8.079 14.807,13.436 3.788,5.28 6.472,11.295 8.003,17.666 3.02,12.555 1.558,26.604 -5.042,39.415 -6.58,12.796 -17.184,22.209 -29.173,27.176 -6.074,2.506 -12.537,3.898 -19.052,3.999 -6.584,0.087 -13.239,-1.131 -19.598,-3.875" />
          </g>
          <g
             transform="translate(133.2038,678.291)"
             id="g8992">
            <path
               inkscape:connector-curvature="0"
               id="path8994"
               style="fill:#ffffff;fill-opacity:1;fill-rule:nonzero;stroke:none"
               d="m 0,0 -1.924,-1.016 c 0.122,-1.264 0.206,-2.535 0.24,-3.828 0.155,-6.367 -0.882,-12.401 -2.921,-17.884 -2.06,-5.537 -5.145,-10.52 -9.033,-14.698 -3.942,-4.227 -8.727,-7.639 -14.123,-9.957 -5.463,-2.358 -11.566,-3.581 -18.05,-3.387 -10.728,0.318 -20.789,4.435 -28.949,11.159 l -2.353,-1.253 c 7.88,-6.745 17.326,-10.899 27.007,-12.058 4.777,-0.569 9.589,-0.42 14.295,0.511 4.653,0.923 9.191,2.587 13.463,5.048 8.4,4.846 14.588,12.071 18.369,20.427 C -0.271,-18.723 1.132,-9.375 0,0" />
          </g>
          <g
             transform="translate(87.3928,723.4609)"
             id="g8996">
            <path
               inkscape:connector-curvature="0"
               id="path8998"
               style="fill:#ffffff;fill-opacity:1;fill-rule:nonzero;stroke:none"
               d="m 0,0 c 9.484,-1.14 18.162,-5.188 25.248,-11.12 l 2.003,0.937 C 20.314,-4.139 12.023,-0.04 3.362,1.667 -5.43,3.392 -14.682,2.654 -23.34,-1.068 c -8.841,-3.804 -15.828,-10.187 -20.514,-18.115 -4.787,-8.059 -7.17,-17.668 -6.7,-27.642 l 2.403,1.138 c -0.021,0.873 -0.021,1.778 0.003,2.658 0.182,6.873 1.764,13.246 4.428,18.876 2.632,5.566 6.325,10.394 10.786,14.252 4.402,3.811 9.553,6.669 15.169,8.383 C -12.225,0.166 -6.217,0.735 0,0" />
          </g>
          <g
             transform="translate(131.5202,673.4473)"
             id="g9000">
            <path
               inkscape:connector-curvature="0"
               id="path9002"
               style="fill:#211d1d;fill-opacity:1;fill-rule:nonzero;stroke:none"
               d="M 0,0 C -0.035,1.292 -0.119,2.563 -0.241,3.828 L -0.56,3.651 c 0.115,-1.193 0.184,-2.405 0.215,-3.623 0.156,-6.332 -0.879,-12.324 -2.897,-17.763 -2.043,-5.487 -5.094,-10.43 -8.952,-14.583 -3.916,-4.187 -8.66,-7.567 -14.015,-9.859 -5.422,-2.32 -11.482,-3.535 -17.918,-3.342 -10.587,0.309 -20.514,4.345 -28.583,10.946 l -0.366,-0.193 c 8.159,-6.726 18.221,-10.842 28.949,-11.16 6.483,-0.195 12.587,1.029 18.049,3.387 5.396,2.318 10.182,5.731 14.123,9.956 3.889,4.179 6.974,9.162 9.034,14.699 C -0.882,-12.401 0.155,-6.367 0,0" />
          </g>
          <g
             transform="translate(39.6496,680.4033)"
             id="g9004">
            <path
               inkscape:connector-curvature="0"
               id="path9006"
               style="fill:#211d1d;fill-opacity:1;fill-rule:nonzero;stroke:none"
               d="m 0,0 c 0.183,6.818 1.74,13.148 4.376,18.731 2.609,5.529 6.266,10.31 10.684,14.142 4.368,3.776 9.471,6.615 15.043,8.317 5.496,1.668 11.46,2.232 17.64,1.495 9.362,-1.12 17.929,-5.08 24.925,-10.898 l 0.323,0.15 C 65.905,37.869 57.227,41.918 47.743,43.058 41.526,43.793 35.519,43.223 29.979,41.54 24.362,39.827 19.211,36.968 14.81,33.156 10.348,29.299 6.655,24.47 4.023,18.905 1.359,13.275 -0.223,6.902 -0.405,0.029 -0.429,-0.852 -0.429,-1.756 -0.408,-2.629 l 0.397,0.189 C -0.026,-1.63 -0.026,-0.815 0,0" />
          </g>
          <g
             transform="translate(56.8137,686.0552)"
             id="g9008">
            <path
               inkscape:connector-curvature="0"
               id="path9010"
               style="fill:#211d1d;fill-opacity:1;fill-rule:nonzero;stroke:none"
               d="m 0,0 0.459,0.213 c 1.742,6.928 5.751,12.685 11.13,16.485 5.294,3.758 11.917,5.618 18.99,4.873 3.383,-0.352 6.608,-1.268 9.609,-2.654 l 0.423,0.196 c -3.118,1.481 -6.494,2.458 -10.032,2.839 -7.235,0.762 -13.985,-1.16 -19.367,-5.01 C 5.75,13.03 1.695,7.109 0,0" />
          </g>
          <g
             transform="translate(87.3928,644.8359)"
             id="g9012">
            <path
               inkscape:connector-curvature="0"
               id="path9014"
               style="fill:#211d1d;fill-opacity:1;fill-rule:nonzero;stroke:none"
               d="m 0,0 c -4.124,0.181 -8.085,1.229 -11.719,2.964 l -0.45,-0.233 C -8.402,0.896 -4.293,-0.21 0,-0.399 c 7.675,-0.348 14.577,2.285 19.779,6.87 5.12,4.511 8.609,10.918 9.596,18.277 L 28.989,24.546 C 27.937,17.35 24.478,11.097 19.42,6.687 14.292,2.215 7.516,-0.351 0,0" />
          </g>
          <g
             transform="translate(87.3928,708.0073)"
             id="g9016">
            <path
               inkscape:connector-curvature="0"
               id="path9018"
               style="fill:#ed1c24;fill-opacity:1;fill-rule:nonzero;stroke:none"
               d="M 0,0 C 3.538,-0.381 6.914,-1.358 10.032,-2.839 L 24.925,4.183 C 17.929,10.001 9.362,13.961 0,15.081 c -6.18,0.737 -12.144,0.173 -17.641,-1.495 -5.571,-1.702 -10.674,-4.542 -15.042,-8.317 -4.418,-3.832 -8.075,-8.613 -10.684,-14.14 -2.636,-5.585 -4.194,-11.915 -4.376,-18.733 -0.027,-0.816 -0.027,-1.63 -0.011,-2.44 l 17.175,8.092 c 1.695,7.109 5.749,13.03 11.212,16.942 C -13.984,-1.159 -7.235,0.762 0,0" />
          </g>
          <g
             transform="translate(87.3928,644.4365)"
             id="g9020">
            <path
               inkscape:connector-curvature="0"
               id="path9022"
               style="fill:#ed1c24;fill-opacity:1;fill-rule:nonzero;stroke:none"
               d="m 0,0 c -4.293,0.189 -8.402,1.295 -12.169,3.131 l -16.414,-8.693 c 8.07,-6.602 17.997,-10.638 28.583,-10.946 6.436,-0.191 12.497,1.022 17.918,3.341 5.355,2.293 10.1,5.672 14.015,9.86 3.858,4.153 6.91,9.096 8.953,14.582 2.017,5.439 3.052,11.433 2.897,17.764 -0.032,1.217 -0.1,2.429 -0.215,3.623 L 29.375,25.147 C 28.388,17.788 24.899,11.382 19.779,6.871 14.577,2.286 7.675,-0.348 0,0" />
          </g>
          <g
             transform="translate(54.925,648.0024)"
             id="g9024">
            <path
               inkscape:connector-curvature="0"
               id="path9026"
               style="fill:#26489b;fill-opacity:1;fill-rule:nonzero;stroke:none"
               d="m 0,0 0.823,0.428 c 0.999,0.517 0.916,0.947 0.303,2.16 l -8.298,16.3 c -0.612,1.198 -0.913,1.529 -1.926,1.041 l -0.83,-0.411 -0.87,1.721 7.09,3.42 0.863,-1.694 -0.7,-0.339 c -1.002,-0.483 -0.92,-0.912 -0.308,-2.114 l 4.478,-8.807 0.284,8.975 c 0.055,1.796 -0.075,2.284 -0.312,2.744 -0.294,0.565 -0.752,0.847 -1.95,0.266 l -0.384,-0.183 -0.866,1.695 6.16,2.98 0.859,-1.69 C 3.437,26.018 2.677,24.478 2.517,20.417 L 2.408,17.534 12.498,8.146 C 13.453,7.256 13.64,7.198 14.631,7.595 L 15.499,5.907 8.958,2.498 8.093,4.202 8.421,4.366 C 9.453,4.904 9.489,5.242 9.249,5.72 9.103,6 8.857,6.264 8.534,6.58 L 2.213,12.583 2.054,8.891 4.405,4.278 C 5.018,3.077 5.318,2.766 6.306,3.267 L 7,3.629 7.865,1.93 0.878,-1.722 Z" />
          </g>
          <g
             transform="translate(54.925,648.0024)"
             id="g9028">
            <path
               inkscape:connector-curvature="0"
               id="path9030"
               style="fill:none;stroke:#26489b;stroke-width:0.87099999;stroke-linecap:butt;stroke-linejoin:miter;stroke-miterlimit:4;stroke-dasharray:none;stroke-opacity:1"
               d="m 0,0 0.823,0.428 c 0.999,0.517 0.916,0.947 0.303,2.16 l -8.298,16.3 c -0.612,1.198 -0.913,1.529 -1.926,1.041 l -0.83,-0.411 -0.87,1.721 7.09,3.42 0.863,-1.694 -0.7,-0.339 c -1.002,-0.483 -0.92,-0.912 -0.308,-2.114 l 4.478,-8.807 0.284,8.975 c 0.055,1.796 -0.075,2.284 -0.312,2.744 -0.294,0.565 -0.752,0.847 -1.95,0.266 l -0.384,-0.183 -0.866,1.695 6.16,2.98 0.859,-1.69 C 3.437,26.018 2.677,24.478 2.517,20.417 L 2.408,17.534 12.498,8.146 C 13.453,7.256 13.64,7.198 14.631,7.595 L 15.499,5.907 8.958,2.498 8.093,4.202 8.421,4.366 C 9.453,4.904 9.489,5.242 9.249,5.72 9.103,6 8.857,6.264 8.534,6.58 L 2.213,12.583 2.054,8.891 4.405,4.278 C 5.018,3.077 5.318,2.766 6.306,3.267 L 7,3.629 7.865,1.93 0.878,-1.722 Z" />
          </g>
          <g
             transform="translate(72.2732,654.8794)"
             id="g9032">
            <path
               inkscape:connector-curvature="0"
               id="path9034"
               style="fill:#26489b;fill-opacity:1;fill-rule:nonzero;stroke:none"
               d="M 0,0 5.11,2.666 4.258,4.334 C 3.292,3.841 2.252,3.919 1.423,5.531 1.093,6.186 0.811,7.051 0.378,8.898 L 4.82,11.156 7.088,8.371 C 7.386,8.019 7.657,7.658 7.831,7.313 8.157,6.671 8.044,6.299 7.539,6.038 L 7.001,5.761 7.848,4.1 13.875,7.243 13.033,8.887 C 11.922,8.392 11.512,8.689 10.263,10.161 L -3.76,26.719 -5.095,26.081 -0.533,6.831 C 0.255,3.553 -0.068,2.242 -0.86,1.68 Z m -0.125,10.974 -2.107,8.588 5.65,-6.796 z" />
          </g>
          <g
             transform="translate(72.2732,654.8794)"
             id="g9036">
            <path
               inkscape:connector-curvature="0"
               id="path9038"
               style="fill:none;stroke:#26489b;stroke-width:0.87099999;stroke-linecap:butt;stroke-linejoin:miter;stroke-miterlimit:4;stroke-dasharray:none;stroke-opacity:1"
               d="M 0,0 5.11,2.666 4.258,4.334 C 3.292,3.841 2.252,3.919 1.423,5.531 1.093,6.186 0.811,7.051 0.378,8.898 L 4.82,11.156 7.088,8.371 C 7.386,8.019 7.657,7.658 7.831,7.313 8.157,6.671 8.044,6.299 7.539,6.038 L 7.001,5.761 7.848,4.1 13.875,7.243 13.033,8.887 C 11.922,8.392 11.512,8.689 10.263,10.161 L -3.76,26.719 -5.095,26.081 -0.533,6.831 C 0.255,3.553 -0.068,2.242 -0.86,1.68 Z m -0.125,10.974 -2.107,8.588 5.65,-6.796 z" />
          </g>
          <g
             transform="translate(88.3664,663.2847)"
             id="g9040">
            <path
               inkscape:connector-curvature="0"
               id="path9042"
               style="fill:#26489b;fill-opacity:1;fill-rule:nonzero;stroke:none"
               d="M 0,0 6.589,3.434 5.756,5.058 4.92,4.627 C 4.011,4.158 3.732,4.467 3.141,5.62 l -3.767,7.359 0.878,0.442 c 1.713,0.854 2.706,0.154 5.243,-4.769 1.896,-3.654 3.757,-4.395 5.229,-3.625 1.566,0.814 1.991,2.937 0.042,6.746 L 9.955,11.363 C 10.987,9.103 11.081,8.317 10.669,8.104 10.291,7.905 9.911,8.353 8.548,10.416 6.285,13.822 4.863,15.21 2.696,15.103 l -0.03,0.066 c 1.894,1.242 2.501,3.877 0.916,6.979 -1.495,2.919 -3.893,5.038 -7.093,3.486 l -7.704,-3.721 0.84,-1.634 0.753,0.364 c 0.926,0.46 1.214,0.138 1.808,-1.002 L 0.146,4.065 C 0.731,2.917 0.818,2.5 -0.096,2.019 L -0.839,1.634 Z m -4.524,20.606 c -0.927,1.808 -0.887,2.093 0.543,2.773 1.528,0.753 2.795,0.325 4.272,-2.551 1.748,-3.417 0.857,-4.914 -1.089,-5.888 l -0.66,-0.334 z" />
          </g>
          <g
             transform="translate(88.3664,663.2847)"
             id="g9044">
            <path
               inkscape:connector-curvature="0"
               id="path9046"
               style="fill:none;stroke:#26489b;stroke-width:0.87099999;stroke-linecap:butt;stroke-linejoin:miter;stroke-miterlimit:4;stroke-dasharray:none;stroke-opacity:1"
               d="M 0,0 6.589,3.434 5.756,5.058 4.92,4.627 C 4.011,4.158 3.732,4.467 3.141,5.62 l -3.767,7.359 0.878,0.442 c 1.713,0.854 2.706,0.154 5.243,-4.769 1.896,-3.654 3.757,-4.395 5.229,-3.625 1.566,0.814 1.991,2.937 0.042,6.746 L 9.955,11.363 C 10.987,9.103 11.081,8.317 10.669,8.104 10.291,7.905 9.911,8.353 8.548,10.416 6.285,13.822 4.863,15.21 2.696,15.103 l -0.03,0.066 c 1.894,1.242 2.501,3.877 0.916,6.979 -1.495,2.919 -3.893,5.038 -7.093,3.486 l -7.704,-3.721 0.84,-1.634 0.753,0.364 c 0.926,0.46 1.214,0.138 1.808,-1.002 L 0.146,4.065 C 0.731,2.917 0.818,2.5 -0.096,2.019 L -0.839,1.634 Z m -4.524,20.606 c -0.927,1.808 -0.887,2.093 0.543,2.773 1.528,0.753 2.795,0.325 4.272,-2.551 1.748,-3.417 0.857,-4.914 -1.089,-5.888 l -0.66,-0.334 z" />
          </g>
          <g
             transform="translate(92.8332,692.7783)"
             id="g9048">
            <path
               inkscape:connector-curvature="0"
               id="path9050"
               style="fill:#26489b;fill-opacity:1;fill-rule:nonzero;stroke:none"
               d="M 0,0 4.228,2.043 17.367,-8.384 13.146,-0.168 C 11.754,2.55 11.064,3.238 9.513,2.632 L 8.699,4.211 13.298,6.432 14.102,4.86 C 12.691,4.023 12.838,3.081 14.227,0.36 l 8.289,-16.14 -1.017,-0.535 -15.988,12.752 -0.036,-0.019 5.672,-11.057 c 1.411,-2.747 2.104,-3.431 3.662,-2.78 l 0.819,-1.585 -4.644,-2.429 -0.824,1.6 c 1.444,0.908 1.302,1.88 -0.118,4.642 L 3.443,-2.314 C 2.488,-1.456 1.572,-1.23 0.821,-1.603 Z" />
          </g>
          <g
             transform="translate(92.8332,692.7783)"
             id="g9052">
            <path
               inkscape:connector-curvature="0"
               id="path9054"
               style="fill:none;stroke:#26489b;stroke-width:0.87099999;stroke-linecap:butt;stroke-linejoin:miter;stroke-miterlimit:4;stroke-dasharray:none;stroke-opacity:1"
               d="M 0,0 4.228,2.043 17.367,-8.384 13.146,-0.168 C 11.754,2.55 11.064,3.238 9.513,2.632 L 8.699,4.211 13.298,6.432 14.102,4.86 C 12.691,4.023 12.838,3.081 14.227,0.36 l 8.289,-16.14 -1.017,-0.535 -15.988,12.752 -0.036,-0.019 5.672,-11.057 c 1.411,-2.747 2.104,-3.431 3.662,-2.78 l 0.819,-1.585 -4.644,-2.429 -0.824,1.6 c 1.444,0.908 1.302,1.88 -0.118,4.642 L 3.443,-2.314 C 2.488,-1.456 1.572,-1.23 0.821,-1.603 Z" />
          </g>
          <g
             transform="translate(115.7253,687.6777)"
             id="g9056">
            <path
               inkscape:connector-curvature="0"
               id="path9058"
               style="fill:#26489b;fill-opacity:1;fill-rule:nonzero;stroke:none"
               d="m 0,0 0.756,0.385 c 2.325,-2.982 5.6,-5.749 7.658,-4.682 1.062,0.547 1.718,2.089 0.533,4.388 C 8.076,1.781 7.128,2.388 5.766,2.233 L 3.898,2.014 c -3.313,-0.407 -5.872,1.813 -7.39,4.771 -2.293,4.45 -1.459,7.525 0.756,8.599 0.991,0.473 2.154,0.388 3.517,-0.276 L 0.889,16.917 1.55,17.236 5.636,9.782 4.867,9.404 c -2.138,2.785 -5.09,5.258 -7.009,4.319 C -3.135,13.246 -3.833,11.791 -2.764,9.708 -2.127,8.468 -1.189,7.524 0.448,7.68 L 2.746,7.882 C 5.791,8.13 7.977,6.462 9.803,2.912 11.596,-0.576 11.843,-4.483 9.272,-5.819 8.035,-6.473 6.607,-6.377 5.103,-5.543 L 5.052,-7.846 4.37,-8.202 Z" />
          </g>
          <g
             transform="translate(115.7253,687.6777)"
             id="g9060">
            <path
               inkscape:connector-curvature="0"
               id="path9062"
               style="fill:none;stroke:#26489b;stroke-width:0.87099999;stroke-linecap:butt;stroke-linejoin:miter;stroke-miterlimit:4;stroke-dasharray:none;stroke-opacity:1"
               d="m 0,0 0.756,0.385 c 2.325,-2.982 5.6,-5.749 7.658,-4.682 1.062,0.547 1.718,2.089 0.533,4.388 C 8.076,1.781 7.128,2.388 5.766,2.233 L 3.898,2.014 c -3.313,-0.407 -5.872,1.813 -7.39,4.771 -2.293,4.45 -1.459,7.525 0.756,8.599 0.991,0.473 2.154,0.388 3.517,-0.276 L 0.889,16.917 1.55,17.236 5.636,9.782 4.867,9.404 c -2.138,2.785 -5.09,5.258 -7.009,4.319 C -3.135,13.246 -3.833,11.791 -2.764,9.708 -2.127,8.468 -1.189,7.524 0.448,7.68 L 2.746,7.882 C 5.791,8.13 7.977,6.462 9.803,2.912 11.596,-0.576 11.843,-4.483 9.272,-5.819 8.035,-6.473 6.607,-6.377 5.103,-5.543 L 5.052,-7.846 4.37,-8.202 Z" />
          </g>
          <g
             transform="translate(54.925,648.0024)"
             id="g9064">
            <path
               inkscape:connector-curvature="0"
               id="path9066"
               style="fill:#ffffff;fill-opacity:1;fill-rule:nonzero;stroke:none"
               d="m 0,0 0.823,0.428 c 0.999,0.517 0.916,0.947 0.303,2.16 l -8.298,16.3 c -0.612,1.198 -0.913,1.529 -1.926,1.041 l -0.83,-0.411 -0.87,1.721 7.09,3.42 0.863,-1.694 -0.7,-0.339 c -1.002,-0.483 -0.92,-0.912 -0.308,-2.114 l 4.478,-8.807 0.284,8.975 c 0.055,1.796 -0.075,2.284 -0.312,2.744 -0.294,0.565 -0.752,0.847 -1.95,0.266 l -0.384,-0.183 -0.866,1.695 6.16,2.98 0.859,-1.69 C 3.437,26.018 2.677,24.478 2.517,20.417 L 2.408,17.534 12.498,8.146 C 13.453,7.256 13.64,7.198 14.631,7.595 L 15.499,5.907 8.958,2.498 8.093,4.202 8.421,4.366 C 9.453,4.904 9.489,5.242 9.249,5.72 9.103,6 8.857,6.264 8.534,6.58 L 2.213,12.583 2.054,8.891 4.405,4.278 C 5.018,3.077 5.318,2.766 6.306,3.267 L 7,3.629 7.865,1.93 0.878,-1.722 Z" />
          </g>
          <g
             transform="translate(72.2732,654.8794)"
             id="g9068">
            <path
               inkscape:connector-curvature="0"
               id="path9070"
               style="fill:#ffffff;fill-opacity:1;fill-rule:nonzero;stroke:none"
               d="M 0,0 5.11,2.666 4.258,4.334 C 3.292,3.841 2.252,3.919 1.423,5.531 1.093,6.186 0.811,7.051 0.378,8.898 L 4.82,11.156 7.088,8.371 C 7.386,8.019 7.657,7.658 7.831,7.313 8.157,6.671 8.044,6.299 7.539,6.038 L 7.001,5.761 7.848,4.1 13.875,7.243 13.033,8.887 C 11.922,8.392 11.512,8.689 10.263,10.161 L -3.76,26.719 -5.095,26.081 -0.533,6.831 C 0.255,3.553 -0.068,2.242 -0.86,1.68 Z m -0.125,10.974 -2.107,8.588 5.65,-6.796 z" />
          </g>
          <g
             transform="translate(88.3664,663.2847)"
             id="g9072">
            <path
               inkscape:connector-curvature="0"
               id="path9074"
               style="fill:#ffffff;fill-opacity:1;fill-rule:nonzero;stroke:none"
               d="M 0,0 6.589,3.434 5.756,5.058 4.92,4.627 C 4.011,4.158 3.732,4.467 3.141,5.62 l -3.767,7.359 0.878,0.442 c 1.713,0.854 2.706,0.154 5.243,-4.769 1.896,-3.654 3.757,-4.395 5.229,-3.625 1.566,0.814 1.991,2.937 0.042,6.746 L 9.955,11.363 C 10.987,9.103 11.081,8.317 10.669,8.104 10.291,7.905 9.911,8.353 8.548,10.416 6.285,13.822 4.863,15.21 2.696,15.103 l -0.03,0.066 c 1.894,1.242 2.501,3.877 0.916,6.979 -1.495,2.919 -3.893,5.038 -7.093,3.486 l -7.704,-3.721 0.84,-1.634 0.753,0.364 c 0.926,0.46 1.214,0.138 1.808,-1.002 L 0.146,4.065 C 0.731,2.917 0.818,2.5 -0.096,2.019 L -0.839,1.634 Z m -4.524,20.606 c -0.927,1.808 -0.887,2.093 0.543,2.773 1.528,0.753 2.795,0.325 4.272,-2.551 1.748,-3.417 0.857,-4.914 -1.089,-5.888 l -0.66,-0.334 z" />
          </g>
          <g
             transform="translate(92.8332,692.7783)"
             id="g9076">
            <path
               inkscape:connector-curvature="0"
               id="path9078"
               style="fill:#ffffff;fill-opacity:1;fill-rule:nonzero;stroke:none"
               d="M 0,0 4.228,2.043 17.367,-8.384 13.146,-0.168 C 11.754,2.55 11.064,3.238 9.513,2.632 L 8.699,4.211 13.298,6.432 14.102,4.86 C 12.691,4.023 12.838,3.081 14.227,0.36 l 8.289,-16.14 -1.017,-0.535 -15.988,12.752 -0.036,-0.019 5.672,-11.057 c 1.411,-2.747 2.104,-3.431 3.662,-2.78 l 0.819,-1.585 -4.644,-2.429 -0.824,1.6 c 1.444,0.908 1.302,1.88 -0.118,4.642 L 3.443,-2.314 C 2.488,-1.456 1.572,-1.23 0.821,-1.603 Z" />
          </g>
          <g
             transform="translate(115.7253,687.6777)"
             id="g9080">
            <path
               inkscape:connector-curvature="0"
               id="path9082"
               style="fill:#ffffff;fill-opacity:1;fill-rule:nonzero;stroke:none"
               d="m 0,0 0.756,0.385 c 2.325,-2.982 5.6,-5.749 7.658,-4.682 1.062,0.547 1.718,2.089 0.533,4.388 C 8.076,1.781 7.128,2.388 5.766,2.233 L 3.898,2.014 c -3.313,-0.407 -5.872,1.813 -7.39,4.771 -2.293,4.45 -1.459,7.525 0.756,8.599 0.991,0.473 2.154,0.388 3.517,-0.276 L 0.889,16.917 1.55,17.236 5.636,9.782 4.867,9.404 c -2.138,2.785 -5.09,5.258 -7.009,4.319 C -3.135,13.246 -3.833,11.791 -2.764,9.708 -2.127,8.468 -1.189,7.524 0.448,7.68 L 2.746,7.882 C 5.791,8.13 7.977,6.462 9.803,2.912 11.596,-0.576 11.843,-4.483 9.272,-5.819 8.035,-6.473 6.607,-6.377 5.103,-5.543 L 5.052,-7.846 4.37,-8.202 Z" />
          </g>
          <g
             transform="translate(52.7395,649.272)"
             id="g9084">
            <path
               inkscape:connector-curvature="0"
               id="path9086"
               style="fill:#26489b;fill-opacity:1;fill-rule:nonzero;stroke:none"
               d="m 0,0 0.819,0.421 c 0.997,0.528 0.918,0.962 0.305,2.171 l -8.311,16.317 c -0.607,1.217 -0.91,1.536 -1.931,1.043 l -0.831,-0.401 -0.876,1.718 7.131,3.42 0.868,-1.699 -0.715,-0.343 c -1.001,-0.49 -0.919,-0.92 -0.314,-2.115 l 4.492,-8.816 0.297,8.989 c 0.055,1.786 -0.075,2.27 -0.312,2.738 -0.288,0.569 -0.756,0.85 -1.955,0.263 l -0.386,-0.178 -0.864,1.694 6.185,2.97 0.856,-1.687 C 3.477,26.036 2.711,24.489 2.548,20.427 L 2.43,17.542 12.552,8.142 c 0.953,-0.891 1.146,-0.964 2.145,-0.56 L 15.556,5.899 8.99,2.487 8.125,4.195 8.454,4.362 C 9.488,4.9 9.528,5.238 9.292,5.709 9.144,5.986 8.889,6.251 8.566,6.569 L 2.229,12.598 2.066,8.899 4.417,4.28 C 5.036,3.079 5.338,2.751 6.329,3.269 L 7.024,3.628 7.891,1.924 0.872,-1.722 Z" />
          </g>
          <g
             transform="translate(52.7395,649.272)"
             id="g9088">
            <path
               inkscape:connector-curvature="0"
               id="path9090"
               style="fill:none;stroke:#26489b;stroke-width:0.87099999;stroke-linecap:butt;stroke-linejoin:miter;stroke-miterlimit:4;stroke-dasharray:none;stroke-opacity:1"
               d="m 0,0 0.819,0.421 c 0.997,0.528 0.918,0.962 0.305,2.171 l -8.311,16.317 c -0.607,1.217 -0.91,1.536 -1.931,1.043 l -0.831,-0.401 -0.876,1.718 7.131,3.42 0.868,-1.699 -0.715,-0.343 c -1.001,-0.49 -0.919,-0.92 -0.314,-2.115 l 4.492,-8.816 0.297,8.989 c 0.055,1.786 -0.075,2.27 -0.312,2.738 -0.288,0.569 -0.756,0.85 -1.955,0.263 l -0.386,-0.178 -0.864,1.694 6.185,2.97 0.856,-1.687 C 3.477,26.036 2.711,24.489 2.548,20.427 L 2.43,17.542 12.552,8.142 c 0.953,-0.891 1.146,-0.964 2.145,-0.56 L 15.556,5.899 8.99,2.487 8.125,4.195 8.454,4.362 C 9.488,4.9 9.528,5.238 9.292,5.709 9.144,5.986 8.889,6.251 8.566,6.569 L 2.229,12.598 2.066,8.899 4.417,4.28 C 5.036,3.079 5.338,2.751 6.329,3.269 L 7.024,3.628 7.891,1.924 0.872,-1.722 Z" />
          </g>
          <g
             transform="translate(70.1599,656.1387)"
             id="g9092">
            <path
               inkscape:connector-curvature="0"
               id="path9094"
               style="fill:#26489b;fill-opacity:1;fill-rule:nonzero;stroke:none"
               d="M 0,0 5.127,2.66 4.273,4.325 C 3.311,3.829 2.257,3.914 1.44,5.526 1.102,6.178 0.818,7.046 0.388,8.895 L 4.842,11.15 7.124,8.362 C 7.415,8.01 7.693,7.641 7.865,7.303 8.194,6.653 8.069,6.288 7.574,6.028 L 7.029,5.747 7.874,4.086 13.932,7.229 13.091,8.868 C 11.979,8.37 11.565,8.667 10.305,10.146 L -3.75,26.734 -5.083,26.096 -0.526,6.827 C 0.253,3.547 -0.072,2.246 -0.862,1.674 Z m -0.119,10.98 -2.097,8.584 5.656,-6.792 z" />
          </g>
          <g
             transform="translate(70.1599,656.1387)"
             id="g9096">
            <path
               inkscape:connector-curvature="0"
               id="path9098"
               style="fill:none;stroke:#26489b;stroke-width:0.87099999;stroke-linecap:butt;stroke-linejoin:miter;stroke-miterlimit:4;stroke-dasharray:none;stroke-opacity:1"
               d="M 0,0 5.127,2.66 4.273,4.325 C 3.311,3.829 2.257,3.914 1.44,5.526 1.102,6.178 0.818,7.046 0.388,8.895 L 4.842,11.15 7.124,8.362 C 7.415,8.01 7.693,7.641 7.865,7.303 8.194,6.653 8.069,6.288 7.574,6.028 L 7.029,5.747 7.874,4.086 13.932,7.229 13.091,8.868 C 11.979,8.37 11.565,8.667 10.305,10.146 L -3.75,26.734 -5.083,26.096 -0.526,6.827 C 0.253,3.547 -0.072,2.246 -0.862,1.674 Z m -0.119,10.98 -2.097,8.584 5.656,-6.792 z" />
          </g>
          <g
             transform="translate(86.3122,664.5088)"
             id="g9100">
            <path
               inkscape:connector-curvature="0"
               id="path9102"
               style="fill:#26489b;fill-opacity:1;fill-rule:nonzero;stroke:none"
               d="M 0,0 6.625,3.44 5.786,5.067 4.952,4.641 C 4.042,4.168 3.761,4.482 3.171,5.628 l -3.774,7.374 0.88,0.443 c 1.722,0.858 2.709,0.141 5.261,-4.786 1.895,-3.657 3.768,-4.396 5.241,-3.63 1.566,0.807 1.999,2.93 0.046,6.755 L 10.02,11.372 C 11.052,9.103 11.139,8.321 10.726,8.107 10.35,7.905 9.968,8.357 8.605,10.413 6.331,13.834 4.911,15.225 2.732,15.12 l -0.024,0.065 c 1.895,1.248 2.51,3.881 0.919,6.988 -1.497,2.928 -3.897,5.043 -7.113,3.501 l -7.736,-3.716 0.842,-1.634 0.758,0.36 c 0.93,0.451 1.22,0.137 1.805,-1.019 L 0.159,4.078 C 0.747,2.934 0.834,2.511 -0.088,2.036 L -0.836,1.653 Z m -4.511,20.64 c -0.923,1.817 -0.877,2.09 0.552,2.778 1.538,0.746 2.81,0.318 4.29,-2.563 1.747,-3.426 0.85,-4.923 -1.108,-5.895 l -0.656,-0.335 z" />
          </g>
          <g
             transform="translate(86.3122,664.5088)"
             id="g9104">
            <path
               inkscape:connector-curvature="0"
               id="path9106"
               style="fill:none;stroke:#26489b;stroke-width:0.87099999;stroke-linecap:butt;stroke-linejoin:miter;stroke-miterlimit:4;stroke-dasharray:none;stroke-opacity:1"
               d="M 0,0 6.625,3.44 5.786,5.067 4.952,4.641 C 4.042,4.168 3.761,4.482 3.171,5.628 l -3.774,7.374 0.88,0.443 c 1.722,0.858 2.709,0.141 5.261,-4.786 1.895,-3.657 3.768,-4.396 5.241,-3.63 1.566,0.807 1.999,2.93 0.046,6.755 L 10.02,11.372 C 11.052,9.103 11.139,8.321 10.726,8.107 10.35,7.905 9.968,8.357 8.605,10.413 6.331,13.834 4.911,15.225 2.732,15.12 l -0.024,0.065 c 1.895,1.248 2.51,3.881 0.919,6.988 -1.497,2.928 -3.897,5.043 -7.113,3.501 l -7.736,-3.716 0.842,-1.634 0.758,0.36 c 0.93,0.451 1.22,0.137 1.805,-1.019 L 0.159,4.078 C 0.747,2.934 0.834,2.511 -0.088,2.036 L -0.836,1.653 Z m -4.511,20.64 c -0.923,1.817 -0.877,2.09 0.552,2.778 1.538,0.746 2.81,0.318 4.29,-2.563 1.747,-3.426 0.85,-4.923 -1.108,-5.895 l -0.656,-0.335 z" />
          </g>
          <g
             transform="translate(90.8352,694.0337)"
             id="g9108">
            <path
               inkscape:connector-curvature="0"
               id="path9110"
               style="fill:#26489b;fill-opacity:1;fill-rule:nonzero;stroke:none"
               d="M 0,0 4.244,2.031 17.417,-8.417 13.204,-0.196 C 11.801,2.533 11.113,3.208 9.565,2.606 L 8.748,4.185 13.355,6.407 14.163,4.836 C 12.742,4.01 12.895,3.057 14.287,0.346 L 22.588,-15.823 21.556,-16.357 5.527,-3.57 5.497,-3.595 11.17,-14.66 c 1.417,-2.756 2.116,-3.444 3.679,-2.791 l 0.817,-1.6 -4.666,-2.42 -0.818,1.609 c 1.452,0.905 1.3,1.879 -0.111,4.638 L 3.456,-2.327 c -0.962,0.864 -1.868,1.085 -2.638,0.718 z" />
          </g>
          <g
             transform="translate(90.8352,694.0337)"
             id="g9112">
            <path
               inkscape:connector-curvature="0"
               id="path9114"
               style="fill:none;stroke:#26489b;stroke-width:0.87099999;stroke-linecap:butt;stroke-linejoin:miter;stroke-miterlimit:4;stroke-dasharray:none;stroke-opacity:1"
               d="M 0,0 4.244,2.031 17.417,-8.417 13.204,-0.196 C 11.801,2.533 11.113,3.208 9.565,2.606 L 8.748,4.185 13.355,6.407 14.163,4.836 C 12.742,4.01 12.895,3.057 14.287,0.346 L 22.588,-15.823 21.556,-16.357 5.527,-3.57 5.497,-3.595 11.17,-14.66 c 1.417,-2.756 2.116,-3.444 3.679,-2.791 l 0.817,-1.6 -4.666,-2.42 -0.818,1.609 c 1.452,0.905 1.3,1.879 -0.111,4.638 L 3.456,-2.327 c -0.962,0.864 -1.868,1.085 -2.638,0.718 z" />
          </g>
          <g
             transform="translate(113.8093,688.8887)"
             id="g9116">
            <path
               inkscape:connector-curvature="0"
               id="path9118"
               style="fill:#26489b;fill-opacity:1;fill-rule:nonzero;stroke:none"
               d="M 0,0 0.763,0.391 C 3.08,-2.6 6.374,-5.383 8.434,-4.31 9.508,-3.755 10.164,-2.225 8.982,0.081 8.107,1.78 7.163,2.392 5.786,2.231 L 3.914,2.01 c -3.328,-0.395 -5.885,1.826 -7.411,4.786 -2.289,4.461 -1.456,7.531 0.766,8.607 0.999,0.473 2.167,0.386 3.535,-0.28 l 0.112,1.808 0.661,0.32 L 5.666,9.787 4.895,9.41 c -2.15,2.787 -5.097,5.267 -7.033,4.331 -0.997,-0.474 -1.691,-1.934 -0.625,-4.012 0.641,-1.25 1.579,-2.198 3.215,-2.041 L 2.77,7.882 C 5.814,8.137 8.01,6.456 9.837,2.906 11.635,-0.588 11.876,-4.494 9.301,-5.837 8.056,-6.481 6.617,-6.39 5.11,-5.556 L 5.059,-7.853 4.377,-8.216 Z" />
          </g>
          <g
             transform="translate(113.8093,688.8887)"
             id="g9120">
            <path
               inkscape:connector-curvature="0"
               id="path9122"
               style="fill:none;stroke:#26489b;stroke-width:0.87099999;stroke-linecap:butt;stroke-linejoin:miter;stroke-miterlimit:4;stroke-dasharray:none;stroke-opacity:1"
               d="M 0,0 0.763,0.391 C 3.08,-2.6 6.374,-5.383 8.434,-4.31 9.508,-3.755 10.164,-2.225 8.982,0.081 8.107,1.78 7.163,2.392 5.786,2.231 L 3.914,2.01 c -3.328,-0.395 -5.885,1.826 -7.411,4.786 -2.289,4.461 -1.456,7.531 0.766,8.607 0.999,0.473 2.167,0.386 3.535,-0.28 l 0.112,1.808 0.661,0.32 L 5.666,9.787 4.895,9.41 c -2.15,2.787 -5.097,5.267 -7.033,4.331 -0.997,-0.474 -1.691,-1.934 -0.625,-4.012 0.641,-1.25 1.579,-2.198 3.215,-2.041 L 2.77,7.882 C 5.814,8.137 8.01,6.456 9.837,2.906 11.635,-0.588 11.876,-4.494 9.301,-5.837 8.056,-6.481 6.617,-6.39 5.11,-5.556 L 5.059,-7.853 4.377,-8.216 Z" />
          </g>
          <g
             transform="translate(52.7395,649.272)"
             id="g9124">
            <path
               inkscape:connector-curvature="0"
               id="path9126"
               style="fill:#ffffff;fill-opacity:1;fill-rule:nonzero;stroke:none"
               d="m 0,0 0.819,0.421 c 0.997,0.528 0.918,0.962 0.305,2.171 l -8.311,16.317 c -0.607,1.217 -0.91,1.536 -1.931,1.043 l -0.831,-0.401 -0.876,1.718 7.131,3.42 0.868,-1.699 -0.715,-0.343 c -1.001,-0.49 -0.919,-0.92 -0.314,-2.115 l 4.492,-8.816 0.297,8.989 c 0.055,1.786 -0.075,2.27 -0.312,2.738 -0.288,0.569 -0.756,0.85 -1.955,0.263 l -0.386,-0.178 -0.864,1.694 6.185,2.97 0.856,-1.687 C 3.477,26.036 2.711,24.489 2.548,20.427 L 2.43,17.542 12.552,8.142 c 0.953,-0.891 1.146,-0.964 2.145,-0.56 L 15.556,5.899 8.99,2.487 8.125,4.195 8.454,4.362 C 9.488,4.9 9.528,5.238 9.292,5.709 9.144,5.986 8.889,6.251 8.566,6.569 L 2.229,12.598 2.066,8.899 4.417,4.28 C 5.036,3.079 5.338,2.751 6.329,3.269 L 7.024,3.628 7.891,1.924 0.872,-1.722 Z" />
          </g>
          <g
             transform="translate(70.1599,656.1387)"
             id="g9128">
            <path
               inkscape:connector-curvature="0"
               id="path9130"
               style="fill:#ffffff;fill-opacity:1;fill-rule:nonzero;stroke:none"
               d="M 0,0 5.127,2.66 4.273,4.325 C 3.311,3.829 2.257,3.914 1.44,5.526 1.102,6.178 0.818,7.046 0.388,8.895 L 4.842,11.15 7.124,8.362 C 7.415,8.01 7.693,7.641 7.865,7.303 8.194,6.653 8.069,6.288 7.574,6.028 L 7.029,5.747 7.874,4.086 13.932,7.229 13.091,8.868 C 11.979,8.37 11.565,8.667 10.305,10.146 L -3.75,26.734 -5.083,26.096 -0.526,6.827 C 0.253,3.547 -0.072,2.246 -0.862,1.674 Z m -0.119,10.98 -2.097,8.584 5.656,-6.792 z" />
          </g>
          <g
             transform="translate(86.3122,664.5088)"
             id="g9132">
            <path
               inkscape:connector-curvature="0"
               id="path9134"
               style="fill:#ffffff;fill-opacity:1;fill-rule:nonzero;stroke:none"
               d="M 0,0 6.625,3.44 5.786,5.067 4.952,4.641 C 4.042,4.168 3.761,4.482 3.171,5.628 l -3.774,7.374 0.88,0.443 c 1.722,0.858 2.709,0.141 5.261,-4.786 1.895,-3.657 3.768,-4.396 5.241,-3.63 1.566,0.807 1.999,2.93 0.046,6.755 L 10.02,11.372 C 11.052,9.103 11.139,8.321 10.726,8.107 10.35,7.905 9.968,8.357 8.605,10.413 6.331,13.834 4.911,15.225 2.732,15.12 l -0.024,0.065 c 1.895,1.248 2.51,3.881 0.919,6.988 -1.497,2.928 -3.897,5.043 -7.113,3.501 l -7.736,-3.716 0.842,-1.634 0.758,0.36 c 0.93,0.451 1.22,0.137 1.805,-1.019 L 0.159,4.078 C 0.747,2.934 0.834,2.511 -0.088,2.036 L -0.836,1.653 Z m -4.511,20.64 c -0.923,1.817 -0.877,2.09 0.552,2.778 1.538,0.746 2.81,0.318 4.29,-2.563 1.747,-3.426 0.85,-4.923 -1.108,-5.895 l -0.656,-0.335 z" />
          </g>
          <g
             transform="translate(90.8352,694.0337)"
             id="g9136">
            <path
               inkscape:connector-curvature="0"
               id="path9138"
               style="fill:#ffffff;fill-opacity:1;fill-rule:nonzero;stroke:none"
               d="M 0,0 4.244,2.031 17.417,-8.417 13.204,-0.196 C 11.801,2.533 11.113,3.208 9.565,2.606 L 8.748,4.185 13.355,6.407 14.163,4.836 C 12.742,4.01 12.895,3.057 14.287,0.346 L 22.588,-15.823 21.556,-16.357 5.527,-3.57 5.497,-3.595 11.17,-14.66 c 1.417,-2.756 2.116,-3.444 3.679,-2.791 l 0.817,-1.6 -4.666,-2.42 -0.818,1.609 c 1.452,0.905 1.3,1.879 -0.111,4.638 L 3.456,-2.327 c -0.962,0.864 -1.868,1.085 -2.638,0.718 z" />
          </g>
          <g
             transform="translate(113.8093,688.8887)"
             id="g9140">
            <path
               inkscape:connector-curvature="0"
               id="path9142"
               style="fill:#ffffff;fill-opacity:1;fill-rule:nonzero;stroke:none"
               d="M 0,0 0.763,0.391 C 3.08,-2.6 6.374,-5.383 8.434,-4.31 9.508,-3.755 10.164,-2.225 8.982,0.081 8.107,1.78 7.163,2.392 5.786,2.231 L 3.914,2.01 c -3.328,-0.395 -5.885,1.826 -7.411,4.786 -2.289,4.461 -1.456,7.531 0.766,8.607 0.999,0.473 2.167,0.386 3.535,-0.28 l 0.112,1.808 0.661,0.32 L 5.666,9.787 4.895,9.41 c -2.15,2.787 -5.097,5.267 -7.033,4.331 -0.997,-0.474 -1.691,-1.934 -0.625,-4.012 0.641,-1.25 1.579,-2.198 3.215,-2.041 L 2.77,7.882 C 5.814,8.137 8.01,6.456 9.837,2.906 11.635,-0.588 11.876,-4.494 9.301,-5.837 8.056,-6.481 6.617,-6.39 5.11,-5.556 L 5.059,-7.853 4.377,-8.216 Z" />
          </g>
          <g
             transform="translate(58.7702,692.479)"
             id="g9144">
            <path
               inkscape:connector-curvature="0"
               id="path9146"
               style="fill:#ffffff;fill-opacity:1;fill-rule:nonzero;stroke:none"
               d="M 0,0 -1.052,1.163 -2.606,0.717 c -0.814,1.2 -2.295,2.159 -3.992,2.807 -3.083,1.181 -6.174,1.112 -7.121,-1.756 -0.949,-2.891 1.42,-5.05 4.544,-6.224 3.094,-1.158 6.16,-1.054 7.069,1.811 0.237,0.748 0.251,1.446 0.083,2.081 z M -3.751,-1.033 C -3.683,-1.348 -3.719,-1.676 -3.812,-2 -4.326,-3.59 -6.275,-3.875 -8.7,-2.963 c -2.429,0.923 -3.807,2.469 -3.276,4.066 0.525,1.597 2.491,1.867 4.903,0.949 1.223,-0.473 2.172,-1.1 2.745,-1.806 l -1.529,-0.425 1.029,-1.158 z" />
          </g>
          <g
             transform="translate(49.3464,703.0269)"
             id="g9148">
            <path
               inkscape:connector-curvature="0"
               id="path9150"
               style="fill:#ffffff;fill-opacity:1;fill-rule:nonzero;stroke:none"
               d="M 0,0 0.875,1.169 6.17,-2.879 c 1.291,-0.995 2.884,-2.161 3.991,-0.637 1.105,1.52 -0.432,2.749 -1.721,3.74 L 3.181,4.258 4.034,5.417 9.336,1.34 c 1.535,-1.183 4.218,-3.287 2.278,-5.969 -1.953,-2.698 -4.71,-0.648 -6.257,0.54 z" />
          </g>
          <g
             transform="translate(63.8987,702.666)"
             id="g9152">
            <path
               inkscape:connector-curvature="0"
               id="path9154"
               style="fill:#ffffff;fill-opacity:1;fill-rule:nonzero;stroke:none"
               d="M 0,0 1.241,0.9 0.065,3.611 2.627,5.458 4.916,3.58 6.178,4.499 -3.209,11.988 -4.584,11.015 Z M -0.693,5.305 -2.694,9.89 1.185,6.663 Z" />
          </g>
          <g
             transform="translate(67.3493,718.3125)"
             id="g9156">
            <path
               inkscape:connector-curvature="0"
               id="path9158"
               style="fill:#ffffff;fill-opacity:1;fill-rule:nonzero;stroke:none"
               d="M 0,0 1.328,0.463 5.082,-8.23 8.877,-6.877 9.622,-8.585 4.508,-10.427 Z" />
          </g>
          <g
             transform="translate(76.7073,720.8223)"
             id="g9160">
            <path
               inkscape:connector-curvature="0"
               id="path9162"
               style="fill:#ffffff;fill-opacity:1;fill-rule:nonzero;stroke:none"
               d="M 0,0 1.386,0.167 3.887,-10.599 2.505,-10.797 Z" />
          </g>
          <g
             transform="translate(84.8967,719.4536)"
             id="g9164">
            <path
               inkscape:connector-curvature="0"
               id="path9166"
               style="fill:#ffffff;fill-opacity:1;fill-rule:nonzero;stroke:none"
               d="M 0,0 -2.507,0.2 -2.58,1.883 3.812,1.378 3.888,-0.295 1.392,-0.102 1.77,-9.167 0.368,-9.071 Z" />
          </g>
          <g
             transform="translate(94.1145,712.8262)"
             id="g9168">
            <path
               inkscape:connector-curvature="0"
               id="path9170"
               style="fill:#ffffff;fill-opacity:1;fill-rule:nonzero;stroke:none"
               d="M 0,0 -1.427,7.221 0.209,6.641 1.054,1.521 3.84,5.369 5.469,4.808 1.345,-0.455 l -0.838,-3.87 -1.35,0.458 z" />
          </g>
          <g
             transform="translate(81.6614,642.6929)"
             id="g9172">
            <path
               inkscape:connector-curvature="0"
               id="path9174"
               style="fill:#ffffff;fill-opacity:1;fill-rule:nonzero;stroke:none"
               d="M 0,0 5.808,-0.729 5.67,-2.561 1.33,-2.023 1.09,-4.988 5.212,-5.473 5.073,-7.325 l -4.125,0.494 -0.404,-5.145 -1.481,0.167 z" />
          </g>
          <g
             transform="translate(96.2766,630.7222)"
             id="g9176">
            <path
               inkscape:connector-curvature="0"
               id="path9178"
               style="fill:#ffffff;fill-opacity:1;fill-rule:nonzero;stroke:none"
               d="M 0,0 C 2.836,0.55 3.389,3.602 2.766,6.838 2.142,10.067 0.487,12.696 -2.343,12.188 -5.199,11.688 -5.775,8.64 -5.15,5.382 -4.531,2.105 -2.86,-0.542 0,0 m -0.35,1.833 c -1.592,-0.308 -2.834,1.272 -3.319,3.831 -0.489,2.533 0.087,4.441 1.672,4.728 C -0.421,10.673 0.815,9.104 1.302,6.576 1.792,4.042 1.229,2.125 -0.35,1.833" />
          </g>
          <g
             transform="translate(109.1213,635.5171)"
             id="g9180">
            <path
               inkscape:connector-curvature="0"
               id="path9182"
               style="fill:#ffffff;fill-opacity:1;fill-rule:nonzero;stroke:none"
               d="m 0,0 c 2.442,1.416 2.101,4.479 0.632,7.349 -1.476,2.87 -3.708,4.856 -6.176,3.483 C -8.017,9.457 -7.692,6.371 -6.212,3.475 -4.719,0.566 -2.46,-1.418 0,0 M -0.823,1.614 C -2.19,0.832 -3.772,1.931 -4.931,4.199 -6.081,6.456 -6.094,8.452 -4.713,9.223 -3.354,9.99 -1.781,8.886 -0.627,6.641 0.514,4.379 0.538,2.392 -0.823,1.614" />
          </g>
          <g
             transform="translate(116.9875,641.6714)"
             id="g9184">
            <path
               inkscape:connector-curvature="0"
               id="path9186"
               style="fill:#ffffff;fill-opacity:1;fill-rule:nonzero;stroke:none"
               d="m 0,0 2.598,2.934 c 1.487,1.674 -0.154,4.383 -1.786,6.141 -2.154,2.329 -4.273,3.684 -6.024,1.756 L -7.629,8.177 Z m -5.489,7.932 1.272,1.401 C -3.691,9.917 -2.633,10.76 -0.174,8.107 2.039,5.733 1.706,4.535 1.042,3.789 L -0.265,2.317 Z" />
          </g>
          <g
             transform="translate(116.4202,659.9941)"
             id="g9188">
            <path
               inkscape:connector-curvature="0"
               id="path9190"
               style="fill:#ffffff;fill-opacity:1;fill-rule:nonzero;stroke:none"
               d="M 0,0 C 0.445,0.938 1.59,2.618 4.294,1.134 L 3.648,-0.232 C 2.929,0.166 1.961,0.23 1.462,-0.831 1.062,-1.68 1.186,-2.49 2.037,-3.02 4.183,-4.358 4.269,1.409 8.124,-1.01 10.449,-2.463 10.304,-4.456 9.7,-5.728 8.691,-7.905 7.005,-7.981 5.082,-6.815 l 0.653,1.376 C 6.94,-6.154 7.819,-5.849 8.31,-4.808 8.667,-4.034 8.66,-3.106 7.673,-2.49 5.438,-1.082 5.291,-6.76 1.552,-4.431 -0.489,-3.162 -0.704,-1.467 0,0" />
          </g>
        </g>
      </g>
      <g
         transform="matrix(0.35277777,0,0,-0.35277777,57.733747,464.51336)"
         id="g14480">
        <g
           id="g14482">
          <g
             id="g14488">
            <g
               id="g14490">
              <path
                 inkscape:connector-curvature="0"
                 id="path14504"
                 style="fill:url(#linearGradient14502);stroke:none"
                 d="m 18.837,671.131 -0.004,-0.157 v -0.008 c -0.855,-32.738 25.739,-59.989 59.399,-60.87 v 0 c 33.663,-0.882 61.648,24.945 62.505,57.686 v 0 c 0.857,32.74 -25.737,59.997 -59.4,60.878 v 0 c -0.561,0.014 -1.116,0.021 -1.674,0.021 v 0 C 46.806,728.679 19.761,703.253 18.837,671.131" />
            </g>
          </g>
        </g>
      </g>
      <g
         transform="matrix(0.35277777,0,0,-0.35277777,57.733747,464.51336)"
         id="g14506">
        <g
           clip-path="url(#clipPath14512)"
           id="g14508">
          <g
             transform="translate(135.1682,672.1052)"
             id="g14514">
            <path
               inkscape:connector-curvature="0"
               id="path14516"
               style="fill:#ffffff;fill-opacity:1;fill-rule:nonzero;stroke:none"
               d="m 0,0 c -0.729,-27.852 -22.18,-49.886 -47.911,-49.212 -25.732,0.674 -46,23.8 -45.271,51.652 0.73,27.853 22.181,49.886 47.912,49.212 C -19.539,50.978 0.729,27.853 0,0" />
          </g>
          <g
             transform="translate(112.0899,622.4036)"
             id="g14518">
            <path
               inkscape:connector-curvature="0"
               id="path14520"
               style="fill:#26469a;fill-opacity:1;fill-rule:nonzero;stroke:none"
               d="m 0,0 c -4.873,-2.618 -10.02,-4.341 -15.272,-5.214 -5.303,-0.882 -10.707,-0.898 -16.04,-0.098 -10.795,1.619 -21.238,6.567 -29.855,14.357 L 26.651,52.517 C 27.634,41.927 25.757,31.443 21.311,22.328 16.794,13.063 9.596,5.155 0,0 m -49.857,104.078 c 9.814,3.964 20.227,4.552 30.074,2.378 9.702,-2.141 18.918,-6.979 26.561,-13.984 L -81.574,53.486 c -0.246,11.169 2.673,21.868 8.235,30.783 5.47,8.768 13.467,15.762 23.482,19.809 m -1.726,3.601 c -7.327,-2.928 -13.657,-7.331 -18.813,-12.814 -5.228,-5.557 -9.238,-12.211 -11.847,-19.535 -2.638,-7.402 -3.835,-15.461 -3.41,-23.714 0.427,-8.307 2.494,-16.769 6.362,-24.896 7.742,-16.274 21.061,-27.838 36.091,-33.277 7.406,-2.681 15.186,-3.853 22.882,-3.384 7.598,0.463 15.093,2.524 22.061,6.301 6.864,3.721 12.57,8.759 17.029,14.657 4.401,5.822 7.599,12.496 9.505,19.602 3.758,14.003 2.528,29.826 -4.498,44.407 -7.019,14.561 -18.642,25.446 -31.958,31.37 -6.748,3.001 -13.966,4.75 -21.274,5.048 -7.399,0.303 -14.91,-0.88 -22.13,-3.765" />
          </g>
        </g>
      </g>
      <g
         transform="matrix(0.35277777,0,0,-0.35277777,57.733747,464.51336)"
         id="g14522">
        <g
           clip-path="url(#clipPath14528)"
           id="g14524">
          <g
             transform="translate(138.5442,674.9429)"
             id="g14530">
            <path
               inkscape:connector-curvature="0"
               id="path14532"
               style="fill:#ffffff;fill-opacity:1;fill-rule:nonzero;stroke:none"
               d="m 0,0 -2.195,-1.091 c 0.105,-1.423 0.16,-2.856 0.158,-4.302 -0.009,-7.153 -1.358,-13.901 -3.806,-19.994 -2.476,-6.157 -6.083,-11.663 -10.577,-16.241 -4.551,-4.636 -10.021,-8.325 -16.149,-10.769 -6.208,-2.476 -13.094,-3.671 -20.37,-3.269 -12.031,0.666 -23.207,5.583 -32.173,13.378 l -2.683,-1.333 c 8.656,-7.806 19.142,-12.743 29.971,-14.333 5.345,-0.785 10.759,-0.75 16.067,0.153 5.255,0.894 10.398,2.637 15.265,5.276 9.575,5.19 16.74,13.121 21.226,22.39 C -0.856,-21.023 0.994,-10.56 0,0" />
          </g>
          <g
             transform="translate(88.4289,727.0022)"
             id="g14534">
            <path
               inkscape:connector-curvature="0"
               id="path14536"
               style="fill:#ffffff;fill-opacity:1;fill-rule:nonzero;stroke:none"
               d="m 0,0 c 10.616,-1.555 20.243,-6.357 28.019,-13.23 l 2.28,1.001 C 22.685,-5.235 13.502,-0.392 3.827,1.773 c -9.83,2.199 -20.238,1.648 -30.06,-2.277 -10.04,-4.01 -18.072,-10.979 -23.579,-19.739 -5.607,-8.918 -8.563,-19.636 -8.334,-30.838 l 2.734,1.202 c 10e-4,0.991 0.026,1.986 0.08,2.983 0.412,7.706 2.37,14.818 5.527,21.062 3.124,6.175 7.414,11.485 12.535,15.687 5.056,4.147 10.919,7.211 17.277,8.968 C -13.719,0.556 -6.959,1.019 0,0" />
          </g>
          <g
             transform="translate(136.5075,669.5504)"
             id="g14538">
            <path
               inkscape:connector-curvature="0"
               id="path14540"
               style="fill:#231f20;fill-opacity:1;fill-rule:nonzero;stroke:none"
               d="M 0,0 C 0.001,1.445 -0.053,2.879 -0.159,4.302 L -0.523,4.121 c 0.095,-1.35 0.144,-2.711 0.141,-4.082 -0.011,-7.109 -1.348,-13.811 -3.777,-19.858 -2.454,-6.11 -6.03,-11.57 -10.487,-16.106 -4.515,-4.594 -9.94,-8.248 -16.021,-10.664 -6.161,-2.449 -12.995,-3.629 -20.223,-3.226 -11.88,0.661 -22.906,5.481 -31.766,13.127 l -0.419,-0.207 c 8.965,-7.795 20.142,-12.713 32.173,-13.379 7.276,-0.401 14.162,0.794 20.37,3.27 6.128,2.444 11.597,6.133 16.148,10.769 4.495,4.578 8.101,10.083 10.577,16.241 C -1.358,-13.902 -0.009,-7.154 0,0" />
          </g>
          <g
             transform="translate(33.5508,680.06)"
             id="g14542">
            <path
               inkscape:connector-curvature="0"
               id="path14544"
               style="fill:#231f20;fill-opacity:1;fill-rule:nonzero;stroke:none"
               d="m 0,0 c 0.408,7.654 2.344,14.713 5.47,20.909 3.091,6.128 7.339,11.395 12.414,15.562 5.011,4.113 10.823,7.15 17.13,8.892 6.226,1.72 12.938,2.179 19.853,1.168 C 65.349,45 74.849,40.294 82.537,33.554 l 0.36,0.158 C 75.121,40.585 65.494,45.387 54.878,46.942 47.919,47.962 41.159,47.498 34.885,45.763 28.527,44.006 22.664,40.943 17.608,36.795 12.487,32.594 8.197,27.283 5.073,21.109 1.916,14.864 -0.042,7.752 -0.454,0.046 -0.508,-0.951 -0.533,-1.946 -0.534,-2.937 l 0.456,0.2 C -0.073,-1.827 -0.048,-0.915 0,0" />
          </g>
          <g
             transform="translate(52.9947,685.8986)"
             id="g14546">
            <path
               inkscape:connector-curvature="0"
               id="path14548"
               style="fill:#231f20;fill-opacity:1;fill-rule:nonzero;stroke:none"
               d="m 0,0 0.527,0.231 c 2.148,7.728 6.828,14.073 12.977,18.192 6.06,4.059 13.541,5.951 21.464,4.911 3.785,-0.498 7.386,-1.629 10.711,-3.269 l 0.483,0.212 C 42.703,22.026 38.943,23.23 34.979,23.752 26.88,24.819 19.247,22.872 13.088,18.7 6.835,14.465 2.109,7.942 0,0" />
          </g>
          <g
             transform="translate(86.1149,638.7139)"
             id="g14550">
            <path
               inkscape:connector-curvature="0"
               id="path14552"
               style="fill:#231f20;fill-opacity:1;fill-rule:nonzero;stroke:none"
               d="m 0,0 c -4.624,0.332 -9.04,1.623 -13.074,3.683 l -0.505,-0.25 c 4.172,-2.177 8.758,-3.54 13.567,-3.882 8.611,-0.615 16.438,2.143 22.414,7.136 5.884,4.916 9.984,12.01 11.318,20.247 L 33.276,26.713 C 31.888,18.67 27.813,11.746 22.009,6.95 16.118,2.081 8.433,-0.604 0,0" />
          </g>
          <g
             transform="translate(87.9735,709.6501)"
             id="g14554">
            <path
               inkscape:connector-curvature="0"
               id="path14556"
               style="fill:#eb1e41;fill-opacity:1;fill-rule:nonzero;stroke:none"
               d="m 0,0 c 3.964,-0.522 7.724,-1.726 11.183,-3.474 l 16.931,7.438 c -7.688,6.74 -17.187,11.445 -27.669,12.977 -6.916,1.011 -13.627,0.552 -19.853,-1.168 -6.308,-1.742 -12.12,-4.779 -17.13,-8.892 -5.076,-4.167 -9.324,-9.434 -12.415,-15.562 -3.126,-6.196 -5.062,-13.256 -5.47,-20.909 -0.048,-0.915 -0.073,-1.827 -0.077,-2.737 l 19.521,8.575 c 2.109,7.943 6.835,14.466 13.088,18.7 C -15.731,-0.88 -8.098,1.068 0,0" />
          </g>
          <g
             transform="translate(86.1032,638.2645)"
             id="g14558">
            <path
               inkscape:connector-curvature="0"
               id="path14560"
               style="fill:#eb1e41;fill-opacity:1;fill-rule:nonzero;stroke:none"
               d="m 0,0 c -4.809,0.343 -9.395,1.705 -13.567,3.882 l -18.685,-9.284 c 8.861,-7.646 19.887,-12.466 31.766,-13.128 7.228,-0.402 14.062,0.778 20.223,3.227 6.081,2.416 11.507,6.07 16.021,10.664 4.458,4.536 8.034,9.996 10.488,16.106 2.429,6.047 3.766,12.749 3.776,19.858 0.003,1.371 -0.045,2.732 -0.14,4.082 L 33.732,27.383 C 32.398,19.146 28.298,12.052 22.413,7.136 16.438,2.143 8.611,-0.615 0,0" />
          </g>
          <g
             transform="translate(49.7556,643.2303)"
             id="g14562">
            <path
               inkscape:connector-curvature="0"
               id="path14564"
               style="fill:#26469a;fill-opacity:1;fill-rule:nonzero;stroke:none"
               d="M 0,0 0.93,0.452 C 2.069,1.005 1.988,1.5 1.334,2.873 L -7.498,21.42 c -0.653,1.369 -0.987,1.744 -2.138,1.221 l -0.941,-0.427 -0.929,1.951 8.063,3.64 0.922,-1.933 -0.799,-0.363 C -4.457,24.993 -4.379,24.505 -3.729,23.141 L 1.044,13.124 1.633,23.199 c 0.108,2.007 -0.026,2.553 -0.281,3.088 -0.305,0.642 -0.818,0.972 -2.177,0.356 l -0.438,-0.2 -0.92,1.929 7.004,3.162 0.912,-1.914 C 4.62,29.115 3.723,27.411 3.422,22.849 L 3.213,19.616 14.272,8.779 C 15.315,7.753 15.526,7.681 16.655,8.098 L 17.57,6.182 10.13,2.542 9.208,4.477 9.581,4.658 c 1.177,0.572 1.226,0.949 0.97,1.485 -0.153,0.322 -0.426,0.629 -0.776,0.988 L 2.851,14.064 2.568,9.927 5.068,4.678 C 5.72,3.312 6.05,2.941 7.174,3.489 L 7.965,3.872 8.888,1.935 0.932,-1.958 Z" />
          </g>
          <g
             transform="translate(49.7556,643.2303)"
             id="g14566">
            <path
               inkscape:connector-curvature="0"
               id="path14568"
               style="fill:none;stroke:#26469a;stroke-width:1.50600004;stroke-linecap:butt;stroke-linejoin:miter;stroke-miterlimit:4;stroke-dasharray:none;stroke-opacity:1"
               d="M 0,0 0.93,0.452 C 2.069,1.005 1.988,1.5 1.334,2.873 L -7.498,21.42 c -0.653,1.369 -0.987,1.744 -2.138,1.221 l -0.941,-0.427 -0.929,1.951 8.063,3.64 0.922,-1.933 -0.799,-0.363 C -4.457,24.993 -4.379,24.505 -3.729,23.141 L 1.044,13.124 1.633,23.199 c 0.108,2.007 -0.026,2.553 -0.281,3.088 -0.305,0.642 -0.818,0.972 -2.177,0.356 l -0.438,-0.2 -0.92,1.929 7.004,3.162 0.912,-1.914 C 4.62,29.115 3.723,27.411 3.422,22.849 L 3.213,19.616 14.272,8.779 C 15.315,7.753 15.526,7.681 16.655,8.098 L 17.57,6.182 10.13,2.542 9.208,4.477 9.581,4.658 c 1.177,0.572 1.226,0.949 0.97,1.485 -0.153,0.322 -0.426,0.629 -0.776,0.988 L 2.851,14.064 2.568,9.927 5.068,4.678 C 5.72,3.312 6.05,2.941 7.174,3.489 L 7.965,3.872 8.888,1.935 0.932,-1.958 Z" />
          </g>
          <g
             transform="translate(69.4333,650.4414)"
             id="g14570">
            <path
               inkscape:connector-curvature="0"
               id="path14572"
               style="fill:#26469a;fill-opacity:1;fill-rule:nonzero;stroke:none"
               d="M 0,0 5.819,2.846 4.912,4.745 C 3.814,4.211 2.643,4.337 1.769,6.168 1.416,6.908 1.118,7.891 0.689,9.977 l 5.048,2.41 2.475,-3.195 C 8.528,8.786 8.824,8.371 9.009,7.986 9.359,7.252 9.215,6.838 8.644,6.56 L 8.029,6.262 8.934,4.371 15.796,7.727 14.899,9.601 C 13.638,9.074 13.188,9.412 11.822,11.107 L -3.442,30.112 -4.95,29.432 -0.391,7.686 c 0.778,-3.705 0.38,-5.16 -0.521,-5.774 z m 0.183,12.326 -2.109,9.704 6.143,-7.79 z" />
          </g>
          <g
             transform="translate(69.4333,650.4414)"
             id="g14574">
            <path
               inkscape:connector-curvature="0"
               id="path14576"
               style="fill:none;stroke:#26469a;stroke-width:1.50600004;stroke-linecap:butt;stroke-linejoin:miter;stroke-miterlimit:4;stroke-dasharray:none;stroke-opacity:1"
               d="M 0,0 5.819,2.846 4.912,4.745 C 3.814,4.211 2.643,4.337 1.769,6.168 1.416,6.908 1.118,7.891 0.689,9.977 l 5.048,2.41 2.475,-3.195 C 8.528,8.786 8.824,8.371 9.009,7.986 9.359,7.252 9.215,6.838 8.644,6.56 L 8.029,6.262 8.934,4.371 15.796,7.727 14.899,9.601 C 13.638,9.074 13.188,9.412 11.822,11.107 L -3.442,30.112 -4.95,29.432 -0.391,7.686 c 0.778,-3.705 0.38,-5.16 -0.521,-5.774 z m 0.183,12.326 -2.109,9.704 6.143,-7.79 z" />
          </g>
          <g
             transform="translate(87.7485,659.4001)"
             id="g14578">
            <path
               inkscape:connector-curvature="0"
               id="path14580"
               style="fill:#26469a;fill-opacity:1;fill-rule:nonzero;stroke:none"
               d="M 0,0 7.502,3.67 6.614,5.52 5.665,5.058 C 4.636,4.558 4.324,4.914 3.699,6.221 l -4.013,8.377 0.996,0.468 c 1.946,0.917 3.042,0.092 5.747,-5.504 2.02,-4.162 4.095,-5.046 5.768,-4.228 1.775,0.87 2.322,3.234 0.238,7.576 L 11.521,12.47 C 12.613,9.903 12.692,9.02 12.226,8.792 11.794,8.583 11.386,9.098 9.912,11.447 7.467,15.34 5.911,16.944 3.479,16.885 l -0.033,0.068 c 2.161,1.35 2.924,4.288 1.229,7.818 -1.594,3.325 -4.221,5.772 -7.863,4.127 l -8.753,-3.951 0.892,-1.863 0.858,0.39 c 1.053,0.478 1.368,0.118 1.995,-1.19 L 0.286,4.57 C 0.914,3.258 0.996,2.788 -0.046,2.282 L -0.894,1.869 Z m -4.471,23.275 c -0.986,2.057 -0.928,2.375 0.69,3.11 1.743,0.792 3.157,0.271 4.725,-3.001 1.865,-3.888 0.818,-5.547 -1.398,-6.584 l -0.749,-0.35 z" />
          </g>
          <g
             transform="translate(87.7485,659.4001)"
             id="g14582">
            <path
               inkscape:connector-curvature="0"
               id="path14584"
               style="fill:none;stroke:#26469a;stroke-width:1.50600004;stroke-linecap:butt;stroke-linejoin:miter;stroke-miterlimit:4;stroke-dasharray:none;stroke-opacity:1"
               d="M 0,0 7.502,3.67 6.614,5.52 5.665,5.058 C 4.636,4.558 4.324,4.914 3.699,6.221 l -4.013,8.377 0.996,0.468 c 1.946,0.917 3.042,0.092 5.747,-5.504 2.02,-4.162 4.095,-5.046 5.768,-4.228 1.775,0.87 2.322,3.234 0.238,7.576 L 11.521,12.47 C 12.613,9.903 12.692,9.02 12.226,8.792 11.794,8.583 11.386,9.098 9.912,11.447 7.467,15.34 5.911,16.944 3.479,16.885 l -0.033,0.068 c 2.161,1.35 2.924,4.288 1.229,7.818 -1.594,3.325 -4.221,5.772 -7.863,4.127 l -8.753,-3.951 0.892,-1.863 0.858,0.39 c 1.053,0.478 1.368,0.118 1.995,-1.19 L 0.286,4.57 C 0.914,3.258 0.996,2.788 -0.046,2.282 L -0.894,1.869 Z m -4.471,23.275 c -0.986,2.057 -0.928,2.375 0.69,3.11 1.743,0.792 3.157,0.271 4.725,-3.001 1.865,-3.888 0.818,-5.547 -1.398,-6.584 l -0.749,-0.35 z" />
          </g>
          <g
             transform="translate(93.6347,692.3943)"
             id="g14586">
            <path
               inkscape:connector-curvature="0"
               id="path14588"
               style="fill:#26469a;fill-opacity:1;fill-rule:nonzero;stroke:none"
               d="M 0,0 4.804,2.168 19.255,-9.923 14.76,-0.576 c -1.485,3.09 -2.241,3.881 -3.999,3.244 l -0.863,1.799 5.225,2.359 0.86,-1.787 C 14.369,4.144 14.506,3.076 15.991,-0.01 l 8.834,-18.373 -1.163,-0.57 -17.579,14.79 -0.037,-0.017 6.041,-12.579 c 1.503,-3.132 2.268,-3.923 4.033,-3.231 l 0.872,-1.814 -5.287,-2.585 -0.876,1.826 c 1.651,0.969 1.513,2.067 0.006,5.203 L 3.8,-2.706 c -1.047,0.999 -2.066,1.275 -2.925,0.883 z" />
          </g>
          <g
             transform="translate(93.6347,692.3943)"
             id="g14590">
            <path
               inkscape:connector-curvature="0"
               id="path14592"
               style="fill:none;stroke:#26469a;stroke-width:1.50600004;stroke-linecap:butt;stroke-linejoin:miter;stroke-miterlimit:4;stroke-dasharray:none;stroke-opacity:1"
               d="M 0,0 4.804,2.168 19.255,-9.923 14.76,-0.576 c -1.485,3.09 -2.241,3.881 -3.999,3.244 l -0.863,1.799 5.225,2.359 0.86,-1.787 C 14.369,4.144 14.506,3.076 15.991,-0.01 l 8.834,-18.373 -1.163,-0.57 -17.579,14.79 -0.037,-0.017 6.041,-12.579 c 1.503,-3.132 2.268,-3.923 4.033,-3.231 l 0.872,-1.814 -5.287,-2.585 -0.876,1.826 c 1.651,0.969 1.513,2.067 0.006,5.203 L 3.8,-2.706 c -1.047,0.999 -2.066,1.275 -2.925,0.883 z" />
          </g>
          <g
             transform="translate(119.1878,685.9918)"
             id="g14594">
            <path
               inkscape:connector-curvature="0"
               id="path14596"
               style="fill:#26469a;fill-opacity:1;fill-rule:nonzero;stroke:none"
               d="m 0,0 0.867,0.412 c 2.516,-3.419 6.116,-6.626 8.453,-5.488 1.215,0.592 1.995,2.303 0.736,4.915 C 9.129,1.765 8.083,2.472 6.541,2.341 L 4.443,2.15 c -3.739,-0.359 -6.54,2.204 -8.157,5.567 -2.444,5.075 -1.422,8.5 1.094,9.634 1.13,0.509 2.432,0.382 3.943,-0.405 L 1.498,18.97 2.25,19.308 6.616,10.822 5.747,10.418 C 3.422,13.608 0.185,16.47 -1.998,15.48 -3.131,14.966 -3.952,13.353 -2.812,10.987 -2.132,9.574 -1.108,8.48 0.73,8.609 l 2.586,0.16 c 3.428,0.198 5.831,-1.748 7.776,-5.784 1.915,-3.973 2.075,-8.364 -0.85,-9.797 -1.41,-0.691 -3.014,-0.541 -4.675,0.437 L 5.444,-8.959 4.669,-9.338 Z" />
          </g>
          <g
             transform="translate(119.1878,685.9918)"
             id="g14598">
            <path
               inkscape:connector-curvature="0"
               id="path14600"
               style="fill:none;stroke:#26469a;stroke-width:1.50600004;stroke-linecap:butt;stroke-linejoin:miter;stroke-miterlimit:4;stroke-dasharray:none;stroke-opacity:1"
               d="m 0,0 0.867,0.412 c 2.516,-3.419 6.116,-6.626 8.453,-5.488 1.215,0.592 1.995,2.303 0.736,4.915 C 9.129,1.765 8.083,2.472 6.541,2.341 L 4.443,2.15 c -3.739,-0.359 -6.54,2.204 -8.157,5.567 -2.444,5.075 -1.422,8.5 1.094,9.634 1.13,0.509 2.432,0.382 3.943,-0.405 L 1.498,18.97 2.25,19.308 6.616,10.822 5.747,10.418 C 3.422,13.608 0.185,16.47 -1.998,15.48 -3.131,14.966 -3.952,13.353 -2.812,10.987 -2.132,9.574 -1.108,8.48 0.73,8.609 l 2.586,0.16 c 3.428,0.198 5.831,-1.748 7.776,-5.784 1.915,-3.973 2.075,-8.364 -0.85,-9.797 -1.41,-0.691 -3.014,-0.541 -4.675,0.437 L 5.444,-8.959 4.669,-9.338 Z" />
          </g>
          <g
             transform="translate(47.3321,644.7211)"
             id="g14602">
            <path
               inkscape:connector-curvature="0"
               id="path14604"
               style="fill:#26469a;fill-opacity:1;fill-rule:nonzero;stroke:none"
               d="m 0,0 0.934,0.452 c 1.144,0.551 1.064,1.046 0.407,2.422 l -8.843,18.573 c -0.653,1.372 -0.987,1.747 -2.143,1.226 l -0.945,-0.426 -0.93,1.953 8.097,3.631 0.923,-1.936 -0.802,-0.362 C -4.444,25.018 -4.366,24.53 -3.715,23.165 L 1.064,13.134 1.666,23.215 c 0.112,2.007 -0.022,2.555 -0.276,3.09 -0.307,0.642 -0.822,0.974 -2.186,0.359 l -0.44,-0.199 -0.922,1.933 7.035,3.153 0.914,-1.916 C 4.673,29.131 3.77,27.427 3.462,22.862 L 3.249,19.626 14.336,8.766 C 15.382,7.738 15.593,7.664 16.729,8.081 L 17.645,6.162 10.171,2.531 9.247,4.468 9.622,4.648 c 1.182,0.571 1.231,0.949 0.976,1.485 -0.153,0.322 -0.427,0.63 -0.777,0.99 L 2.879,14.071 2.588,9.931 5.093,4.675 C 5.745,3.307 6.076,2.936 7.207,3.481 L 8,3.864 8.924,1.924 0.932,-1.959 Z" />
          </g>
          <g
             transform="translate(47.3321,644.7211)"
             id="g14606">
            <path
               inkscape:connector-curvature="0"
               id="path14608"
               style="fill:none;stroke:#26469a;stroke-width:1.50600004;stroke-linecap:butt;stroke-linejoin:miter;stroke-miterlimit:4;stroke-dasharray:none;stroke-opacity:1"
               d="m 0,0 0.934,0.452 c 1.144,0.551 1.064,1.046 0.407,2.422 l -8.843,18.573 c -0.653,1.372 -0.987,1.747 -2.143,1.226 l -0.945,-0.426 -0.93,1.953 8.097,3.631 0.923,-1.936 -0.802,-0.362 C -4.444,25.018 -4.366,24.53 -3.715,23.165 L 1.064,13.134 1.666,23.215 c 0.112,2.007 -0.022,2.555 -0.276,3.09 -0.307,0.642 -0.822,0.974 -2.186,0.359 l -0.44,-0.199 -0.922,1.933 7.035,3.153 0.914,-1.916 C 4.673,29.131 3.77,27.427 3.462,22.862 L 3.249,19.626 14.336,8.766 C 15.382,7.738 15.593,7.664 16.729,8.081 L 17.645,6.162 10.171,2.531 9.247,4.468 9.622,4.648 c 1.182,0.571 1.231,0.949 0.976,1.485 -0.153,0.322 -0.427,0.63 -0.777,0.99 L 2.879,14.071 2.588,9.931 5.093,4.675 C 5.745,3.307 6.076,2.936 7.207,3.481 L 8,3.864 8.924,1.924 0.932,-1.959 Z" />
          </g>
          <g
             transform="translate(67.0924,651.9104)"
             id="g14610">
            <path
               inkscape:connector-curvature="0"
               id="path14612"
               style="fill:#26469a;fill-opacity:1;fill-rule:nonzero;stroke:none"
               d="M 0,0 5.844,2.841 4.936,4.742 C 3.833,4.208 2.659,4.336 1.783,6.17 1.428,6.911 1.132,7.895 0.704,9.983 l 5.068,2.404 2.483,-3.2 C 8.57,8.78 8.868,8.364 9.051,7.978 9.403,7.245 9.258,6.83 8.684,6.552 L 8.068,6.254 8.973,4.361 15.864,7.709 14.965,9.587 C 13.701,9.061 13.248,9.4 11.882,11.098 L -3.419,30.138 -4.932,29.461 -0.383,7.693 c 0.776,-3.71 0.377,-5.166 -0.53,-5.778 z m 0.199,12.335 -2.106,9.713 6.157,-7.805 z" />
          </g>
          <g
             transform="translate(67.0924,651.9104)"
             id="g14614">
            <path
               inkscape:connector-curvature="0"
               id="path14616"
               style="fill:none;stroke:#26469a;stroke-width:1.50600004;stroke-linecap:butt;stroke-linejoin:miter;stroke-miterlimit:4;stroke-dasharray:none;stroke-opacity:1"
               d="M 0,0 5.844,2.841 4.936,4.742 C 3.833,4.208 2.659,4.336 1.783,6.17 1.428,6.911 1.132,7.895 0.704,9.983 l 5.068,2.404 2.483,-3.2 C 8.57,8.78 8.868,8.364 9.051,7.978 9.403,7.245 9.258,6.83 8.684,6.552 L 8.068,6.254 8.973,4.361 15.864,7.709 14.965,9.587 C 13.701,9.061 13.248,9.4 11.882,11.098 L -3.419,30.138 -4.932,29.461 -0.383,7.693 c 0.776,-3.71 0.377,-5.166 -0.53,-5.778 z m 0.199,12.335 -2.106,9.713 6.157,-7.805 z" />
          </g>
          <g
             transform="translate(85.4864,660.85)"
             id="g14618">
            <path
               inkscape:connector-curvature="0"
               id="path14620"
               style="fill:#26469a;fill-opacity:1;fill-rule:nonzero;stroke:none"
               d="M 0,0 7.534,3.661 6.646,5.514 5.693,5.053 C 4.659,4.554 4.348,4.911 3.72,6.219 l -4.018,8.388 1.002,0.468 c 1.954,0.915 3.053,0.088 5.76,-5.516 2.023,-4.168 4.105,-5.056 5.785,-4.239 1.782,0.868 2.333,3.232 0.247,7.58 L 11.578,12.462 C 12.672,9.891 12.75,9.006 12.28,8.78 11.849,8.572 11.438,9.088 9.963,11.44 7.514,15.34 5.954,16.946 3.512,16.891 L 3.48,16.959 c 2.17,1.348 2.939,4.286 1.242,7.821 -1.596,3.331 -4.229,5.781 -7.888,4.142 l -8.789,-3.941 0.893,-1.866 0.862,0.389 c 1.056,0.477 1.373,0.117 2.001,-1.194 L 0.293,4.572 C 0.922,3.258 1.003,2.788 -0.042,2.283 L -0.895,1.871 Z m -4.46,23.297 c -0.986,2.059 -0.928,2.378 0.697,3.11 1.752,0.79 3.168,0.268 4.739,-3.009 1.866,-3.893 0.816,-5.552 -1.411,-6.587 l -0.751,-0.349 z" />
          </g>
          <g
             transform="translate(85.4864,660.85)"
             id="g14622">
            <path
               inkscape:connector-curvature="0"
               id="path14624"
               style="fill:none;stroke:#26469a;stroke-width:1.50600004;stroke-linecap:butt;stroke-linejoin:miter;stroke-miterlimit:4;stroke-dasharray:none;stroke-opacity:1"
               d="M 0,0 7.534,3.661 6.646,5.514 5.693,5.053 C 4.659,4.554 4.348,4.911 3.72,6.219 l -4.018,8.388 1.002,0.468 c 1.954,0.915 3.053,0.088 5.76,-5.516 2.023,-4.168 4.105,-5.056 5.785,-4.239 1.782,0.868 2.333,3.232 0.247,7.58 L 11.578,12.462 C 12.672,9.891 12.75,9.006 12.28,8.78 11.849,8.572 11.438,9.088 9.963,11.44 7.514,15.34 5.954,16.946 3.512,16.891 L 3.48,16.959 c 2.17,1.348 2.939,4.286 1.242,7.821 -1.596,3.331 -4.229,5.781 -7.888,4.142 l -8.789,-3.941 0.893,-1.866 0.862,0.389 c 1.056,0.477 1.373,0.117 2.001,-1.194 L 0.293,4.572 C 0.922,3.258 1.003,2.788 -0.042,2.283 L -0.895,1.871 Z m -4.46,23.297 c -0.986,2.059 -0.928,2.378 0.697,3.11 1.752,0.79 3.168,0.268 4.739,-3.009 1.866,-3.893 0.816,-5.552 -1.411,-6.587 l -0.751,-0.349 z" />
          </g>
          <g
             transform="translate(91.4336,693.8565)"
             id="g14626">
            <path
               inkscape:connector-curvature="0"
               id="path14628"
               style="fill:#26469a;fill-opacity:1;fill-rule:nonzero;stroke:none"
               d="M 0,0 4.824,2.162 19.312,-9.957 14.813,-0.599 C 13.327,2.497 12.569,3.288 10.805,2.654 L 9.94,4.456 15.187,6.808 16.047,5.019 C 14.425,4.127 14.563,3.056 16.049,-0.034 l 8.845,-18.397 -1.169,-0.568 -17.624,14.824 -0.038,-0.016 6.048,-12.597 c 1.506,-3.135 2.271,-3.928 4.044,-3.238 l 0.873,-1.816 -5.309,-2.58 -0.878,1.829 c 1.659,0.968 1.52,2.065 0.013,5.206 L 3.811,-2.714 c -1.05,1.002 -2.072,1.28 -2.935,0.89 z" />
          </g>
          <g
             transform="translate(91.4336,693.8565)"
             id="g14630">
            <path
               inkscape:connector-curvature="0"
               id="path14632"
               style="fill:none;stroke:#26469a;stroke-width:1.50600004;stroke-linecap:butt;stroke-linejoin:miter;stroke-miterlimit:4;stroke-dasharray:none;stroke-opacity:1"
               d="M 0,0 4.824,2.162 19.312,-9.957 14.813,-0.599 C 13.327,2.497 12.569,3.288 10.805,2.654 L 9.94,4.456 15.187,6.808 16.047,5.019 C 14.425,4.127 14.563,3.056 16.049,-0.034 l 8.845,-18.397 -1.169,-0.568 -17.624,14.824 -0.038,-0.016 6.048,-12.597 c 1.506,-3.135 2.271,-3.928 4.044,-3.238 l 0.873,-1.816 -5.309,-2.58 -0.878,1.829 c 1.659,0.968 1.52,2.065 0.013,5.206 L 3.811,-2.714 c -1.05,1.002 -2.072,1.28 -2.935,0.89 z" />
          </g>
          <g
             transform="translate(117.0723,687.4126)"
             id="g14634">
            <path
               inkscape:connector-curvature="0"
               id="path14636"
               style="fill:#26469a;fill-opacity:1;fill-rule:nonzero;stroke:none"
               d="M 0,0 0.87,0.411 C 3.39,-3.013 7,-6.228 9.347,-5.093 c 1.221,0.591 2.003,2.302 0.744,4.918 C 9.162,1.754 8.115,2.461 6.567,2.334 L 4.461,2.145 c -3.752,-0.354 -6.56,2.215 -8.18,5.582 -2.445,5.082 -1.418,8.508 1.11,9.639 1.133,0.508 2.441,0.378 3.956,-0.412 L 1.526,18.979 2.28,19.316 6.652,10.819 5.779,10.416 C 3.449,13.611 0.204,16.479 -1.988,15.492 -3.124,14.98 -3.951,13.367 -2.81,10.998 -2.129,9.583 -1.103,8.487 0.742,8.614 L 3.337,8.769 C 6.778,8.963 9.187,7.012 11.134,2.97 13.052,-1.008 13.207,-5.402 10.27,-6.831 8.855,-7.52 7.245,-7.368 5.578,-6.388 L 5.453,-8.972 4.674,-9.351 Z" />
          </g>
          <g
             transform="translate(117.0723,687.4126)"
             id="g14638">
            <path
               inkscape:connector-curvature="0"
               id="path14640"
               style="fill:none;stroke:#26469a;stroke-width:1.50600004;stroke-linecap:butt;stroke-linejoin:miter;stroke-miterlimit:4;stroke-dasharray:none;stroke-opacity:1"
               d="M 0,0 0.87,0.411 C 3.39,-3.013 7,-6.228 9.347,-5.093 c 1.221,0.591 2.003,2.302 0.744,4.918 C 9.162,1.754 8.115,2.461 6.567,2.334 L 4.461,2.145 c -3.752,-0.354 -6.56,2.215 -8.18,5.582 -2.445,5.082 -1.418,8.508 1.11,9.639 1.133,0.508 2.441,0.378 3.956,-0.412 L 1.526,18.979 2.28,19.316 6.652,10.819 5.779,10.416 C 3.449,13.611 0.204,16.479 -1.988,15.492 -3.124,14.98 -3.951,13.367 -2.81,10.998 -2.129,9.583 -1.103,8.487 0.742,8.614 L 3.337,8.769 C 6.778,8.963 9.187,7.012 11.134,2.97 13.052,-1.008 13.207,-5.402 10.27,-6.831 8.855,-7.52 7.245,-7.368 5.578,-6.388 L 5.453,-8.972 4.674,-9.351 Z" />
          </g>
          <g
             transform="translate(47.7942,643.2035)"
             id="g14642">
            <path
               inkscape:connector-curvature="0"
               id="path14644"
               style="fill:#ffffff;fill-opacity:1;fill-rule:nonzero;stroke:none"
               d="m 0,0 0.934,0.452 c 1.144,0.551 1.063,1.046 0.407,2.422 l -8.843,18.573 c -0.653,1.372 -0.987,1.747 -2.143,1.226 l -0.945,-0.426 -0.93,1.953 8.097,3.631 0.923,-1.935 -0.802,-0.363 c -1.142,-0.515 -1.064,-1.002 -0.413,-2.369 l 4.779,-10.03 0.602,10.081 c 0.112,2.007 -0.022,2.555 -0.276,3.09 -0.307,0.642 -0.822,0.974 -2.186,0.359 l -0.44,-0.199 -0.922,1.933 7.035,3.153 0.914,-1.916 C 4.673,29.131 3.77,27.427 3.462,22.862 L 3.249,19.626 14.336,8.766 c 1.046,-1.028 1.257,-1.102 2.393,-0.684 l 0.916,-1.92 -7.474,-3.631 -0.924,1.937 0.375,0.18 c 1.182,0.571 1.231,0.949 0.976,1.485 -0.153,0.322 -0.427,0.63 -0.777,0.99 L 2.879,14.071 2.588,9.931 5.093,4.675 C 5.745,3.307 6.076,2.936 7.207,3.481 L 8,3.864 8.924,1.924 0.932,-1.959 Z" />
          </g>
          <g
             transform="translate(67.5545,650.3929)"
             id="g14646">
            <path
               inkscape:connector-curvature="0"
               id="path14648"
               style="fill:#ffffff;fill-opacity:1;fill-rule:nonzero;stroke:none"
               d="M 0,0 5.844,2.841 4.935,4.742 C 3.833,4.208 2.659,4.336 1.783,6.17 1.428,6.911 1.132,7.895 0.704,9.983 l 5.068,2.404 2.483,-3.2 C 8.57,8.78 8.868,8.364 9.051,7.978 9.403,7.244 9.258,6.83 8.684,6.552 L 8.068,6.254 8.973,4.361 15.864,7.709 14.965,9.587 C 13.701,9.061 13.248,9.4 11.882,11.098 L -3.419,30.138 -4.932,29.461 -0.383,7.693 c 0.776,-3.71 0.377,-5.166 -0.53,-5.778 z m 0.199,12.335 -2.106,9.713 6.157,-7.805 z" />
          </g>
          <g
             transform="translate(85.9485,659.3325)"
             id="g14650">
            <path
               inkscape:connector-curvature="0"
               id="path14652"
               style="fill:#ffffff;fill-opacity:1;fill-rule:nonzero;stroke:none"
               d="M 0,0 7.534,3.661 6.646,5.514 5.693,5.053 C 4.659,4.554 4.348,4.911 3.72,6.219 l -4.018,8.388 1.002,0.468 c 1.954,0.915 3.052,0.088 5.76,-5.516 2.023,-4.168 4.105,-5.056 5.785,-4.239 1.782,0.868 2.333,3.232 0.247,7.58 L 11.578,12.462 C 12.672,9.891 12.75,9.006 12.28,8.78 11.849,8.572 11.438,9.088 9.963,11.44 7.514,15.34 5.954,16.946 3.512,16.891 L 3.48,16.959 c 2.17,1.348 2.939,4.286 1.242,7.821 -1.596,3.331 -4.229,5.781 -7.888,4.142 l -8.789,-3.941 0.893,-1.866 0.862,0.389 c 1.056,0.477 1.373,0.117 2.001,-1.194 L 0.293,4.572 C 0.922,3.258 1.003,2.788 -0.042,2.283 L -0.896,1.871 Z m -4.46,23.297 c -0.986,2.059 -0.928,2.378 0.697,3.11 1.752,0.79 3.168,0.268 4.739,-3.009 1.866,-3.893 0.816,-5.552 -1.411,-6.587 l -0.751,-0.349 z" />
          </g>
          <g
             transform="translate(91.8957,692.339)"
             id="g14654">
            <path
               inkscape:connector-curvature="0"
               id="path14656"
               style="fill:#ffffff;fill-opacity:1;fill-rule:nonzero;stroke:none"
               d="M 0,0 4.824,2.162 19.312,-9.957 14.813,-0.599 C 13.327,2.497 12.569,3.288 10.805,2.654 L 9.94,4.456 15.186,6.808 16.047,5.019 C 14.425,4.127 14.563,3.056 16.049,-0.034 l 8.845,-18.397 -1.169,-0.568 -17.624,14.824 -0.038,-0.016 6.048,-12.597 c 1.506,-3.135 2.271,-3.928 4.044,-3.238 l 0.873,-1.816 -5.309,-2.58 -0.878,1.829 c 1.659,0.968 1.52,2.065 0.013,5.206 L 3.811,-2.714 c -1.05,1.002 -2.072,1.28 -2.935,0.89 z" />
          </g>
          <g
             transform="translate(117.5339,685.8951)"
             id="g14658">
            <path
               inkscape:connector-curvature="0"
               id="path14660"
               style="fill:#ffffff;fill-opacity:1;fill-rule:nonzero;stroke:none"
               d="m 0,0 0.871,0.411 c 2.519,-3.424 6.13,-6.639 8.476,-5.504 1.222,0.591 2.004,2.302 0.744,4.918 C 9.163,1.754 8.115,2.461 6.568,2.334 L 4.462,2.144 C 0.709,1.791 -2.099,4.36 -3.719,7.727 c -2.445,5.082 -1.417,8.509 1.11,9.639 1.134,0.508 2.441,0.378 3.957,-0.412 L 1.526,18.979 2.28,19.315 6.652,10.819 5.78,10.416 C 3.45,13.611 0.204,16.479 -1.987,15.492 -3.123,14.98 -3.95,13.367 -2.81,10.998 -2.128,9.583 -1.102,8.487 0.743,8.614 L 3.338,8.769 C 6.778,8.963 9.188,7.012 11.134,2.97 13.052,-1.008 13.207,-5.402 10.271,-6.831 8.855,-7.52 7.246,-7.368 5.578,-6.388 L 5.453,-8.972 4.675,-9.351 Z" />
          </g>
          <g
             transform="translate(55.3735,693.0604)"
             id="g14662">
            <path
               inkscape:connector-curvature="0"
               id="path14664"
               style="fill:#ffffff;fill-opacity:1;fill-rule:nonzero;stroke:none"
               d="m 0,0 -1.139,1.333 -1.76,-0.447 c -0.88,1.372 -2.512,2.479 -4.401,3.261 -3.431,1.422 -6.898,1.43 -8.047,-1.762 -1.154,-3.211 1.445,-5.71 4.912,-7.12 3.449,-1.401 6.889,-1.372 7.997,1.822 0.288,0.834 0.326,1.611 0.155,2.343 z m -4.236,-1.053 c 0.071,-0.355 0.02,-0.72 -0.103,-1.079 -0.62,-1.776 -2.82,-2.041 -5.51,-0.943 -2.701,1.102 -4.203,2.884 -3.564,4.666 0.635,1.777 2.851,2.025 5.535,0.917 1.364,-0.562 2.412,-1.296 3.025,-2.103 l -1.73,-0.433 1.135,-1.324 z" />
          </g>
          <g
             transform="translate(45.1074,705.1797)"
             id="g14666">
            <path
               inkscape:connector-curvature="0"
               id="path14668"
               style="fill:#ffffff;fill-opacity:1;fill-rule:nonzero;stroke:none"
               d="m 0,0 1.013,1.286 5.826,-4.699 c 1.425,-1.151 3.176,-2.508 4.462,-0.834 1.286,1.676 -0.402,3.099 -1.819,4.246 l -5.791,4.692 1,1.271 5.836,-4.733 c 1.684,-1.367 4.636,-3.815 2.376,-6.771 -2.271,-2.969 -5.305,-0.581 -7.007,0.791 z" />
          </g>
          <g
             transform="translate(61.4373,704.3482)"
             id="g14670">
            <path
               inkscape:connector-curvature="0"
               id="path14672"
               style="fill:#ffffff;fill-opacity:1;fill-rule:nonzero;stroke:none"
               d="M 0,0 1.418,0.978 0.181,4.047 3.109,6.049 5.632,3.88 7.071,4.872 -3.258,13.556 -4.823,12.511 Z M -0.619,5.978 -2.736,11.18 1.529,7.44 Z" />
          </g>
          <g
             transform="translate(65.778,721.8184)"
             id="g14674">
            <path
               inkscape:connector-curvature="0"
               id="path14676"
               style="fill:#ffffff;fill-opacity:1;fill-rule:nonzero;stroke:none"
               d="M 0,0 1.502,0.472 5.46,-9.394 9.762,-7.985 10.545,-9.931 4.75,-11.844 Z" />
          </g>
          <g
             transform="translate(76.3523,724.3488)"
             id="g14678">
            <path
               inkscape:connector-curvature="0"
               id="path14680"
               style="fill:#ffffff;fill-opacity:1;fill-rule:nonzero;stroke:none"
               d="m 0,0 1.558,0.154 2.496,-12.163 -1.56,-0.175 z" />
          </g>
          <g
             transform="translate(85.5074,722.5869)"
             id="g14682">
            <path
               inkscape:connector-curvature="0"
               id="path14684"
               style="fill:#ffffff;fill-opacity:1;fill-rule:nonzero;stroke:none"
               d="M 0,0 -2.81,0.292 -2.834,2.183 4.322,1.427 4.354,-0.451 1.565,-0.162 1.719,-10.351 0.145,-10.203 Z" />
          </g>
          <g
             transform="translate(95.6646,714.8702)"
             id="g14686">
            <path
               inkscape:connector-curvature="0"
               id="path14688"
               style="fill:#ffffff;fill-opacity:1;fill-rule:nonzero;stroke:none"
               d="M 0,0 -1.391,8.138 0.431,7.448 1.23,1.681 4.475,5.915 6.282,5.231 1.497,-0.557 0.441,-4.877 -1.063,-4.323 Z" />
          </g>
          <g
             transform="translate(79.62,636.4811)"
             id="g14690">
            <path
               inkscape:connector-curvature="0"
               id="path14692"
               style="fill:#ffffff;fill-opacity:1;fill-rule:nonzero;stroke:none"
               d="M 0,0 6.499,-0.987 6.29,-3.037 1.431,-2.309 1.082,-5.627 5.689,-6.304 5.478,-8.369 l -4.613,0.67 -0.607,-5.763 -1.664,0.232 z" />
          </g>
          <g
             transform="translate(95.6752,622.6173)"
             id="g14694">
            <path
               inkscape:connector-curvature="0"
               id="path14696"
               style="fill:#ffffff;fill-opacity:1;fill-rule:nonzero;stroke:none"
               d="M 0,0 C 3.205,0.53 3.916,3.942 3.308,7.594 2.701,11.237 0.926,14.232 -2.27,13.75 -5.487,13.268 -6.226,9.865 -5.625,6.186 -5.023,2.496 -3.227,-0.533 0,0 m -0.338,2.051 c -1.791,-0.291 -3.143,1.523 -3.614,4.398 -0.472,2.87 0.23,4.997 2.017,5.268 C -0.153,11.989 1.187,10.186 1.66,7.335 2.136,4.477 1.446,2.342 -0.338,2.051" />
          </g>
          <g
             transform="translate(110.2417,627.619)"
             id="g14698">
            <path
               inkscape:connector-curvature="0"
               id="path14700"
               style="fill:#ffffff;fill-opacity:1;fill-rule:nonzero;stroke:none"
               d="M 0,0 C 2.781,1.511 2.49,4.964 0.924,8.232 -0.641,11.5 -3.1,13.791 -5.901,12.325 -8.722,10.848 -8.447,7.379 -6.868,4.077 -5.286,0.774 -2.802,-1.522 0,0 m -0.876,1.832 c -1.559,-0.841 -3.3,0.449 -4.531,3.022 -1.233,2.575 -1.182,4.817 0.381,5.641 1.56,0.821 3.289,-0.471 4.515,-3.029 C 0.714,4.909 0.674,2.671 -0.876,1.832" />
          </g>
          <g
             transform="translate(119.2511,634.2893)"
             id="g14702">
            <path
               inkscape:connector-curvature="0"
               id="path14704"
               style="fill:#ffffff;fill-opacity:1;fill-rule:nonzero;stroke:none"
               d="m 0,0 3.004,3.221 c 1.721,1.844 -0.04,4.936 -1.815,6.951 -2.355,2.675 -4.699,4.26 -6.716,2.155 L -8.319,9.414 Z m -5.922,9.073 1.466,1.538 c 0.606,0.633 1.823,1.557 4.508,-1.49 2.413,-2.738 2,-4.069 1.231,-4.89 L -0.225,2.622 Z" />
          </g>
          <g
             transform="translate(119.157,654.892)"
             id="g14706">
            <path
               inkscape:connector-curvature="0"
               id="path14708"
               style="fill:#ffffff;fill-opacity:1;fill-rule:nonzero;stroke:none"
               d="M 0,0 C 0.529,1.029 1.863,2.895 4.86,1.141 L 4.093,-0.371 C 3.296,0.096 2.213,0.189 1.615,-0.983 1.136,-1.92 1.259,-2.83 2.205,-3.455 c 2.368,-1.564 2.628,4.912 6.89,2.078 2.56,-1.702 2.341,-3.926 1.634,-5.349 C 9.526,-9.141 7.628,-9.179 5.51,-7.809 l 0.767,1.527 c 1.338,-0.833 2.334,-0.517 2.911,0.638 0.425,0.852 0.446,1.896 -0.641,2.618 C 6.072,-1.384 5.746,-7.75 1.614,-5.027 -0.638,-3.542 -0.837,-1.634 0,0" />
          </g>
        </g>
      </g>
    </g>
  </g>
</svg>
