<svg xmlns="http://www.w3.org/2000/svg" width="314.82" height="193.93"><path fill="#fff" d="M0 0h314.82v193.93H0"/><path fill="#ed3326" d="M2.87 20.41h308.96v13.78H2.87M2.87 2.97h308.96v13.78H2.87M2.87 37.86h308.96v13.78H2.87M2.87 55.27h308.96v13.78H2.87M2.87 72.67h308.96v13.78H2.87M2.87 90.08h308.96v13.78H2.87M2.87 107.48h308.96v13.78H2.87M2.87 124.89h308.96v13.78H2.87M2.87 142.3h308.96v13.78H2.87M2.87 159.7h308.96v13.78H2.87M2.87 177.11h308.96v13.78H2.87"/><path fill="#fff" stroke="#e12228" stroke-width="4.19" d="m 97.099996,69.35 v 27.19 c 0,0 -26.83,0.18 -26.83,0 V 82.41 c 0,-7.34 -13.06,-7.34 -13.06,-0.18 v 14.34 h -27.56 V 24.09 h 27.75 V 45.6 l 16,-21.5 H 102.05 L 80.259996,54.3 c 7.5,-0.99 16.84,4.81 16.84,15.05 z"/><rect width="27.02" height="72.410004" x="106.71001" y="24.120001" fill="#fff" stroke="#e12228" stroke-width="4.19"/><polygon fill="#ffffff" stroke="#e12228" stroke-width="4.19" points="383.04,24.03 383.04,43.24 367.81,24.05 343.51,24.05 343.51,96.55 371.07,96.55 371.07,74.43 386.67,96.43 411.69,96.43 411.69,24.03" transform="translate(-199.27)"/><path fill="#fff" stroke="#e12228" stroke-width="4.19" d="m 231.18,96.48 h 42.25 c 7.94,0 12.6,-4.74 12.6,-11.53 V 58.11 h -26.11 v 11.06 c 0,5.81 -10.51,5.62 -10.51,-0.09 V 48.77 A 2.72,2.72 0 0 1 252,46.14 h 26.26 V 24.03 h -45.5 a 10.85,10.85 0 0 0 -11.24,10.46 c 0,0.14 0,0.27 0,0.41 v 50.59 c -0.04,5.8 4.35,10.99 9.66,10.99 z"/><path fill="#fff" stroke="#e12228" stroke-width="3.7" d="m 63.279996,100.13 c 26.72,-3.06 21.19,16 21.19,16 l -6.17,14.51 h -12 l 5.46,-13.81 c 3.63,-9.79 -10.51,-8.34 -20.67,0.36 -3.59,3.08 -13.78,13.06 -2.17,17.41 a 71.3,71.3 0 0 1 15.59,7.23 c 9.79,9.79 -1.45,22.48 -10.51,22.48 h -32.24 l 4.92,-11.24 h 26.32 c 3.21,0 2.54,-2.9 1.09,-3.63 -1.45,-0.73 -4.4,-2.17 -10.21,-4.71 -16.89,-6.57 -13,-17.76 -13,-17.76 5.72,-16.28 19.71,-25.39 32.4,-26.84 z"/><polygon fill="#ed3326" points="438.76,144.06 434.95,144.06 439.49,137.35 442.48,137.35" transform="translate(-214.22)"/><polygon fill="#ed3326" points="428.24,137.62 422.17,138.25 420,143.15 423.94,143.24" transform="translate(-275.76)"/><polygon fill="#ed3326" points="263.29,155.25 263.15,163.5 255.72,162.78"/><path fill="#fff" stroke="#e12228" stroke-width="3.7" d="m 251.27,153.48 25.75,-27.2 h 15.23 l -8.7,29.38 c -4.35,8 -9.79,8.08 -9.79,8.08 h -10.52 l 0.14,-8.71 -8.89,8.86 -13.26,-0.1 c -10.16,-0.54 -5.8,-10.15 -5.8,-10.15 l 8.05,-16.48 h -3.26 L 221.54,164 h -22.12 c -12.87,0 -10.15,-14.87 -10.15,-14.87 h -3.63 c -9.79,17.05 -21.4,16.68 -21.4,16.68 l -7.25,-5.44 -8.7,23.57 h -11.61 l 13.33,-34.81 h -4.15 c -3.63,8.16 -9.79,15.59 -20.31,16.68 -10.52,1.09 -13,-9.31 -13.42,-10.88 a 17.23,17.23 0 0 1 0,-5.82 h -4.08 c -3.81,8.16 -9.790004,15.59 -20.310004,16.68 -10.52,1.09 -13,-9.31 -13.42,-10.88 -1.09,-4 0.79,-24.27 18.86,-27.55 C 109.18,124.45 109.86,140.41 109.86,140.41 h 4.74 c 2.64,-5.81 7.6,-11.45 16.4,-13 16,-2.91 16.68,12.33 16.68,12.33 h 6.08 l 9.79,-23.58 h 10.83 l -5.39,13.78 6.89,-2.89 c 10.33,-3.81 11.6,12.69 11.6,12.69 h 4.72 c 0.36,-0.37 6.16,-14.87 19.22,-14.87 14.5,0 11.6,12.51 11.6,12.51 l -5.08,11.45 h -13.81 c -3.62,0 -2.9,5.44 0.37,5.44 h 13 l 12.69,-17.77 c -6.16,-1.81 -2.9,-8 -2.9,-8 l 4,-8.7 h 10.88 c -2.9,6.89 0.73,6.52 0.73,6.52 h 16.31 l -11.24,24.3 c -1.77,3.21 1.13,4.5 3.3,2.86 z"/><path fill="#fff" d="m 97.099996,69.5 v 27.18 c 0,0 -26.83,0.18 -26.83,0 V 82.56 c 0,-7.35 -13.06,-7.35 -13.06,-0.19 v 14.35 h -27.56 V 24.23 h 27.75 v 21.52 l 16,-21.5 H 102.05 l -21.790004,30.2 a 15.18,15.18 0 0 1 16.84,15.05 z"/><rect width="27.02" height="72.410004" x="106.71001" y="24.27" fill="#fff"/><polygon fill="#ffffff" points="383.04,24.17 383.04,43.39 367.81,24.19 343.51,24.19 343.51,96.7 371.07,96.7 371.07,74.58 386.67,96.58 411.69,96.58 411.69,24.17" transform="translate(-199.27)"/><path fill="#fff" d="m 231.18,96.63 h 42.25 c 7.94,0 12.6,-4.74 12.6,-11.54 V 58.26 h -26.11 v 11.06 c 0,5.8 -10.51,5.62 -10.51,-0.09 V 48.92 A 2.72,2.72 0 0 1 252,46.29 h 26.26 V 24.17 h -45.5 a 10.85,10.85 0 0 0 -11.24,10.46 c 0,0.14 0,0.28 0,0.42 v 50.59 c -0.04,5.8 4.35,10.99 9.66,10.99 z"/><path fill="#fcee1f" d="m 63.279996,100.15 c 26.72,-3.06 21.19,16 21.19,16 l -6.17,14.5 h -12 l 5.46,-13.77 c 3.63,-9.79 -10.51,-8.34 -20.67,0.36 -3.59,3.08 -13.78,13.06 -2.17,17.41 a 71.3,71.3 0 0 1 15.59,7.25 c 9.79,9.79 -1.45,22.48 -10.51,22.48 h -32.24 l 4.92,-11.24 h 26.32 c 3.21,0 2.54,-2.9 1.09,-3.63 -1.45,-0.73 -4.4,-2.17 -10.21,-4.71 -16.89,-6.57 -13,-17.76 -13,-17.76 5.72,-16.32 19.71,-25.44 32.4,-26.89 z"/><path fill="#fcee1f" d="m 251.27,153.51 25.75,-27.2 h 15.23 l -8.7,29.37 c -4.35,8 -9.79,8.08 -9.79,8.08 h -10.52 l 0.14,-8.71 -8.89,8.86 -13.26,-0.08 c -10.16,-0.55 -5.8,-10.16 -5.8,-10.16 l 8.05,-16.47 h -3.26 l -18.68,26.83 h -22.12 c -12.87,0 -10.15,-14.87 -10.15,-14.87 h -3.63 c -9.79,17.05 -21.4,16.69 -21.4,16.69 l -7.25,-5.44 -8.7,23.57 h -11.61 l 13.33,-34.82 h -4.15 c -3.63,8.16 -9.79,15.6 -20.31,16.69 -10.52,1.09 -13,-9.32 -13.42,-10.88 a 17.29,17.29 0 0 1 0,-5.83 h -4.08 c -3.81,8.16 -9.790004,15.6 -20.310004,16.69 -10.52,1.09 -13,-9.32 -13.42,-10.88 -1.09,-4 0.79,-24.28 18.86,-27.56 C 109.18,124.49 109.86,140.44 109.86,140.44 h 4.74 c 2.64,-5.82 7.6,-11.45 16.4,-13.05 16,-2.9 16.68,12.33 16.68,12.33 h 6.08 l 9.79,-23.57 h 10.83 l -5.42,13.78 6.89,-2.89 c 10.33,-3.81 11.6,12.69 11.6,12.69 h 4.72 c 0.36,-0.37 6.16,-14.87 19.22,-14.87 14.5,0 11.6,12.51 11.6,12.51 l -5.08,11.46 h -13.78 c -3.62,0 -2.9,5.44 0.37,5.44 h 13 l 12.69,-17.77 c -6.16,-1.81 -2.9,-8 -2.9,-8 l 4,-8.71 h 10.88 c -2.9,6.89 0.73,6.53 0.73,6.53 h 16.31 l -11.24,24.29 c -1.77,3.22 1.13,4.53 3.3,2.9 z"/><path fill="#fcee1f" d="m 99.179996,140.45 c 0,0 -3.11,-11.24 -12.17,0.36 0,0 -6.35,11.07 -1.09,14.87 0,0 6,2.54 10.67,-6.53 h -5.23 l 2.9,-8.7 z"/><path fill="#fcee1f" d="m 137,140.45 c 0,0 -2.49,-11.24 -12.18,0.36 0,0 -6.34,11.07 -1.08,14.87 0,0 6,2.54 10.67,-6.53 h -5.23 l 2.9,-8.7 z"/><path fill="#fcee1f" d="m 168.96,140.09 c -7.43,6.53 -9.61,15.95 -9.61,15.95 0,0 10.85,-3.37 15,-11.24 2.95,-5.44 -1.22,-8.16 -5.39,-4.71 z"/><path fill="#fcee1f" d="m 205.4,139.73 h 6.36 c 0,0 2.36,-2.67 0,-4.72 -2.73,-2.36 -6.9,4.72 -6.36,4.72 z"/><path fill="#fcee1f" d="m 269.76,152.83 c 5.8,-1.45 8,-13.78 8,-13.78 l -12,13.42 c 0,0 -1.79,1.76 4,0.36 z"/><path fill="#ed3326" d="m 99.179996,140.43 c 0,0 -3.11,-11.24 -12.17,0.36 0,0 -6.35,11.06 -1.09,14.87 0,0 6,2.54 10.67,-6.53 h -5.23 l 2.9,-8.7 z"/><path fill="#ed3326" d="m 137,140.43 c 0,0 -2.49,-11.24 -12.18,0.36 0,0 -6.34,11.06 -1.08,14.87 0,0 6,2.54 10.67,-6.53 h -5.23 l 2.9,-8.7 z"/><path fill="#ed3326" d="m 174.4,144.83 c -4.2,7.87 -15,11.24 -15,11.24 0,0 2.18,-9.42 9.61,-15.95 4.12,-3.5 8.29,-0.78 5.39,4.71 z"/><path fill="#ed3326" d="m 205.4,139.71 h 6.36 c 0,0 2.36,-2.68 0,-4.72 -2.73,-2.36 -6.9,4.72 -6.36,4.72 z"/><path fill="#ed3326" d="m 265.76,152.4 12,-13.42 c 0,0 -2.18,12.33 -8,13.78 -5.82,1.45 -4,-0.36 -4,-0.36 z"/></svg>