<?xml version="1.0" encoding="utf-8"?>
<!-- Generator: Adobe Illustrator 13.0.2, SVG Export Plug-In . SVG Version: 6.00 Build 14948)  -->
<!DOCTYPE svg PUBLIC "-//W3C//DTD SVG 1.0//EN" "http://www.w3.org/TR/2001/REC-SVG-20010904/DTD/svg10.dtd">
<svg version="1.0" id="Layer_1" xmlns="http://www.w3.org/2000/svg" xmlns:xlink="http://www.w3.org/1999/xlink" x="0px" y="0px"
	 width="187.086px" height="90.76px" viewBox="0 0 187.086 90.76" enable-background="new 0 0 187.086 90.76" xml:space="preserve">
<g>
	<path fill-rule="evenodd" clip-rule="evenodd" fill="#393996" d="M7.152,27.16c-0.453-2.716-3.848-2.037-3.848-2.942
		c0-1.584,1.811-2.037,3.168-2.49c4.753-2.49,9.733-4.074,14.712-5.659c0.679-0.226,1.132-0.226,1.132,0.227
		c0,2.037-2.49,3.169-2.49,5.206c-0.226,4.979-0.226,11.09,0,16.07c0.227,0.453,0.227,0.905,0.679,0.679
		c3.621-4.527,6.563-9.28,10.185-13.58C39.292,14.259,50.608,7.016,62.377,3.168c4.979-1.584,12.222-2.263,15.391,2.942
		c1.358,3.169,0.679,7.017-1.584,9.506c-2.942,2.716-6.563,4.527-10.638,4.301c-0.679-0.453-0.227-1.584-0.453-2.037
		c-1.131-2.716-4.074-3.168-6.563-3.168c-11.091,1.584-20.37,9.506-27.386,18.333c-0.679,1.584-2.264,2.942-1.358,4.979
		c4.301,7.695,8.148,15.39,12.901,22.859c0.679,0.453,0.679,1.359,1.811,1.359c0.905-0.906,0.453-2.49,0.679-3.621
		c0.227-7.469-0.226-13.807-0.226-21.276c0-2.037-2.942-1.584-2.942-3.622l0.679-0.453c4.074-1.132,7.921-2.49,11.996-2.942
		c0.679,0.453,0.226,2.037,1.358,1.811c2.49-3.621,7.016-4.753,11.09-4.074c2.942,0.679,5.432,3.395,6.111,6.337v1.584l0.453,18.56
		c0.227,0.678,0.227,1.811,1.132,2.037c0.453,0,0.679,0.227,1.132,0.451c0.226,0.68-0.679,0.906-1.132,1.133
		c-3.848,0.453-7.243,1.131-11.09,1.811h-0.679L62.83,39.156c0-1.584-0.679-3.395-2.263-4.074c-1.132-0.226-2.264,0-2.942,0.679
		c-2.037,2.037-1.584,5.206-1.584,8.148c0,4.753-0.453,9.958,0.226,14.486c0,1.584,3.848,1.131,1.811,2.941
		c-9.28,2.037-18.333,4.98-27.16,8.602c-0.453,0.227-0.905-0.227-0.679-0.906c0.453-1.131,1.132-2.037,1.132-3.168
		c-0.226-3.168-2.263-5.205-3.621-7.695c-2.49-3.848-4.074-7.922-7.017-11.77c0-0.227-0.226-0.227-0.453-0.227l-0.453,0.68
		l0.453,21.727c0,1.133,0,2.49,1.131,2.943c0.906,0.68,2.264-0.227,3.169,0.904c-0.227,0.906-1.358,0.906-1.811,1.359
		c-5.432,2.488-10.638,5.432-15.843,8.373c-0.453,0.227-0.679-0.227-0.905-0.451c0.226-1.811,1.811-2.943,1.811-4.754L7.152,27.16
		L7.152,27.16z"/>
	<path fill-rule="evenodd" clip-rule="evenodd" fill="#393996" d="M129.146,26.934l0.679,0.679
		c5.206,0.227,12.222,4.075,16.069-2.037c1.358-1.811,2.264-3.848,2.942-5.885c0.227-0.679,0.905-0.679,1.358-0.453
		c0.452,4.074,0,8.601,0.679,12.675c1.584,0.905,3.621,1.131,5.432,1.811c0.68,0.905,0.227,2.49,0.227,3.395
		c-1.811-0.227-3.395-0.905-5.206-0.679l-0.452,0.453v16.295c0.452,2.943-0.679,6.791,2.49,8.148c1.357,1.133,4.3-1.357,4.073,1.359
		c-2.037,2.488-5.205,3.168-8.601,2.715c-2.716-0.68-5.658-1.811-7.469-4.752c-0.679-1.586-0.905-3.17-1.132-4.98l-0.227-19.917
		c-0.452-3.848-4.753-3.395-7.469-4.074c-0.905,0-2.264-0.227-2.716,0.905l-0.453,1.811c0.227,6.111,0.227,11.543,0.453,17.427
		c0.452,1.811,1.357,3.395,3.395,3.848c0.905,0.227,2.037-0.227,3.169-0.453c0.452,0.453,0,1.133-0.227,1.586
		c-2.489,2.715-5.885,3.848-9.506,2.941c-3.168-0.68-6.563-3.395-7.242-6.564l-0.453-3.621l-0.452-16.748
		c0-0.905,0.452-2.264-0.227-2.942c-1.358-0.905-2.942-0.679-4.527-1.131c-0.226-0.906-0.226-2.264,0-3.169
		c4.527,0.227,8.375-1.132,11.317-4.753c1.132-1.584,1.584-3.395,2.489-5.206c0.453-0.679,0.905-0.453,1.358-0.226L129.146,26.934
		L129.146,26.934z"/>
	<path fill-rule="evenodd" clip-rule="evenodd" fill="#393996" d="M170.565,21.954c1.357,2.264,0.452,5.432-0.905,7.469
		c-1.358,1.811-3.849,3.621-6.111,3.848c-0.227-0.227-0.227-0.679,0-0.905c1.358-1.132,2.263-2.49,2.263-4.3
		c0-0.906-0.679-1.132-1.357-1.584s-1.584,0-2.037-0.905c-0.452-1.358-0.227-3.169,0.679-4.527c1.132-1.358,2.716-1.811,4.527-1.358
		C168.753,19.917,169.885,20.596,170.565,21.954L170.565,21.954z"/>
	<path fill-rule="evenodd" clip-rule="evenodd" fill="#393996" d="M111.718,33.044c2.716,5.432,2.489,12.675-0.906,17.428
		c-4.073,6.338-11.316,7.469-18.106,6.789c-5.885-0.678-11.317-4.979-13.354-10.637c-1.811-6.111-0.679-12.901,3.848-17.654
		c5.432-5.658,14.485-5.658,21.275-2.942C107.644,27.386,110.133,30.102,111.718,33.044L111.718,33.044z M94.517,28.065
		c-1.358,0.453-2.716,1.584-3.169,3.168c-0.679,4.979-0.453,9.959-0.226,14.938c0,2.49,0,4.98,1.811,6.791
		c1.584,0.904,4.3,1.357,6.111,0.225c2.037-1.131,2.037-3.621,2.263-5.658c-0.226-5.658,0.453-11.769-0.904-16.975
		C99.496,28.518,96.78,27.839,94.517,28.065L94.517,28.065z"/>
	<path fill-rule="evenodd" clip-rule="evenodd" fill="#393996" d="M178.259,40.514c1.812,1.358,3.622-1.132,5.206,0.453
		c0.227,2.942,0.453,5.885,0.227,8.827c-0.453,0.68-1.132,0.453-1.811,0.453c-1.358-0.68-1.811-2.264-2.716-3.395
		c-1.585-2.49-4.074-3.848-7.017-3.622c-0.453,0.226-1.132,0.905-1.358,1.357c-0.226,2.038,1.585,3.395,2.942,4.075
		c4.979,2.715,13.128,5.658,13.354,12.9v2.822c-0.339,2.738-1.697,5.156-4.073,6.684c-5.885,4.074-14.938,2.037-20.37-1.584
		c-2.49-2.037-4.526-4.754-3.621-7.922c0.452-1.811,2.036-3.168,3.621-3.621c3.621-0.68,7.017,0.904,8.827,3.848
		c0.452,1.584-1.811,1.131-2.037,2.715c-0.453,1.133-0.453,2.49,0.452,3.396c1.585,1.357,3.622,1.811,5.658,1.357
		c1.358-0.68,2.49-2.037,2.49-3.395c-0.227-4.98-5.885-6.111-9.054-8.602c-3.848-1.811-9.279-4.979-9.279-9.959
		c-0.227-3.167,0.905-5.884,3.621-7.694C167.623,36.666,174.186,37.798,178.259,40.514L178.259,40.514z"/>
	<path fill-rule="evenodd" clip-rule="evenodd" fill="#393996" d="M61.698,1.358C47.439,6.111,34.312,16.069,25.259,29.197
		c-1.358,1.811-2.49,4.074-3.848,5.658c-0.453-0.227-0.226-0.906-0.226-1.358c8.375-14.032,23.539-27.16,38.477-32.366
		C61.698,0.453,62.83,0.905,61.698,1.358L61.698,1.358z"/>
	<path fill-rule="evenodd" clip-rule="evenodd" fill="#393996" d="M129.146,13.127v0.453c-3.622-0.453-3.169,3.621-4.753,5.432
		c-2.264,4.301-7.243,5.659-11.996,4.979c-0.227-0.226-0.452,0.227-0.679,0.453c0,1.358,0.227,2.716,0,4.074
		c-0.453,0.453-0.453-0.453-0.68-0.906v-4.3l0.453-0.227c4.526,0.905,9.506-0.226,11.996-4.074c1.584-1.811,1.584-4.752,3.621-6.111
		C127.788,12.901,128.466,12.901,129.146,13.127L129.146,13.127z"/>
	<path fill-rule="evenodd" clip-rule="evenodd" fill="#393996" d="M21.185,14.259c-6.337,2.037-13.806,5.206-18.559,7.695
		c-0.453,0.227-1.358,0.679-1.584,1.584c-0.227,0.679,0.226,1.132,0.679,1.584c1.811,1.132,3.621,0.905,3.621,2.716l0.453,19.464
		l0.227,20.371c-0.453,4.301,1.358,10.186-1.811,13.58c-0.905,0.904,1.358,2.715-0.679,2.49c-1.584-1.813,0.226-3.623,0.905-5.207
		l0.453-2.264V61.109L4.663,48.662L4.436,33.497c-0.453-2.037,0.905-5.885-2.037-7.016c-0.679-0.226-1.811-0.453-2.263-1.358
		c-0.227-1.132-0.227-2.263,0.453-2.942c6.111-4.074,12.901-6.111,19.917-8.375h0.679V14.259L21.185,14.259z"/>
	<path fill-rule="evenodd" clip-rule="evenodd" fill="#393996" d="M150.421,17.654c-0.227,0-0.227,0-0.227,0.227
		c-1.132-0.227-2.49-0.227-2.942,1.131c-0.679,3.622-2.942,7.243-6.563,8.375c-3.396,0.226-6.564-0.905-9.732-1.358
		c-0.227-0.226-0.227-0.453-0.227-0.679c4.301,0,9.506,3.396,12.675-0.679c2.037-1.811,2.489-4.527,3.621-6.79
		c0.453-0.453,0.679-0.905,1.132-0.905C148.836,17.201,149.968,16.975,150.421,17.654L150.421,17.654z"/>
	<path fill-rule="evenodd" clip-rule="evenodd" fill="#393996" d="M170.338,19.238v0.227c-2.264-0.906-5.206-1.811-7.469-0.227
		c-1.812,1.584-2.942,4.074-2.49,6.564c0.453,0.679,0.453,1.584,1.358,1.81c0.679-0.226,1.357,0,1.811,0.227
		c0.227,0.453,0.679,1.132,0.452,1.584c-0.452,1.358-1.584,2.037-2.263,2.942c-0.227-0.227-0.227-0.679,0-0.905
		c0-1.132,2.263-2.263,0.679-3.169c-1.132,0-2.264-0.679-2.716-1.811c-0.679-3.168,0.452-6.337,2.942-8.148
		C164.907,16.749,168.753,17.654,170.338,19.238L170.338,19.238z"/>
	<path fill-rule="evenodd" clip-rule="evenodd" fill="#393996" d="M105.154,24.67c-0.905,0-2.036-0.453-3.168-0.905
		c-7.469-2.037-16.296-0.679-21.275,5.658c-3.848,4.753-4.753,11.543-2.942,17.428c0.227,0.678,0.227,1.131,0.453,1.584
		c1.131,3.168,4.753,6.338,7.921,8.148c-4.979-0.906-8.601-5.885-9.958-10.638c-1.584-8.148,0.905-16.296,7.922-20.823
		c5.658-3.848,14.711-3.848,20.823-0.679L105.154,24.67L105.154,24.67z"/>
	<path fill-rule="evenodd" clip-rule="evenodd" fill="#393996" d="M72.11,28.745c0,0.226,0.226,0.679,0.226,0.905
		c-2.263-2.716-5.884-3.395-9.506-2.942c-2.263,0.452-4.3,1.358-6.111,2.942c0.453-1.584,2.264-2.263,3.395-3.168
		C63.962,25.349,69.167,25.349,72.11,28.745L72.11,28.745z"/>
	<path fill-rule="evenodd" clip-rule="evenodd" fill="#393996" d="M54.229,28.518c-4.3,1.131-8.827,2.037-13.127,3.621
		c-0.453,0.453-1.132,0.679-1.358,1.358c-0.227,2.49,2.716,2.49,3.621,4.301c0.453,6.79,0,14.259,0.453,20.823
		c-0.226,0.225-0.226,0.451-0.453,0.225c-0.905-1.131-0.679-3.168-0.679-4.525L42.46,38.929c-0.679-2.716-4.753-2.49-3.622-5.658
		c1.132-2.263,3.622-2.263,5.659-2.942c3.168-0.679,6.111-2.263,9.732-2.037V28.518L54.229,28.518z"/>
	<path fill-rule="evenodd" clip-rule="evenodd" fill="#393996" d="M97.459,30.102c1.357,0.906,1.131,1.811,1.357,4.301v14.259
		c0,1.131,0,2.037-0.679,2.715c-0.905,1.586-3.169,1.133-4.074,0.68c-0.453-0.453-0.679-0.227-0.227,0.227
		c1.132,0.904,2.942,0.904,4.074,0.453c2.264-1.359,1.811-4.074,2.037-6.338c-0.227-5.206,0.453-10.864-0.905-15.617
		c-0.227-0.679-0.905-1.358-1.811-1.358C96.78,29.423,97.233,29.876,97.459,30.102L97.459,30.102z"/>
	<path fill-rule="evenodd" clip-rule="evenodd" fill="#393996" d="M156.532,31.234v0.679c-1.584-0.453-3.395-0.679-4.526-1.584
		l0.227-0.453C153.816,30.102,155.173,30.781,156.532,31.234L156.532,31.234z"/>
	<path fill-rule="evenodd" clip-rule="evenodd" fill="#393996" d="M116.923,30.781l0.453,19.465
		c0.227,2.941,0.905,5.885,3.395,7.922v0.227c-1.584-0.453-2.716-1.811-3.395-3.17c-0.68-1.131-0.68-2.488-0.905-3.621
		l-0.453-21.049C116.471,30.555,116.697,30.329,116.923,30.781L116.923,30.781z"/>
	<path fill-rule="evenodd" clip-rule="evenodd" fill="#393996" d="M138.199,34.855l0.453,22.633
		c0.452,2.037,1.357,3.848,2.489,5.432c-1.584-0.225-2.037-2.262-2.942-3.395c-0.905-2.715-0.452-6.563-0.679-9.506
		c0-5.432-0.227-10.638-0.227-15.617C137.747,34.176,138.199,34.629,138.199,34.855L138.199,34.855z"/>
	<path fill-rule="evenodd" clip-rule="evenodd" fill="#393996" d="M179.844,38.929c1.132,0,2.489-1.358,3.395,0
		c-1.584,0-2.716,1.358-4.073,0.453c-4.527-2.49-10.638-4.074-15.617-1.584c-3.169,1.584-5.206,4.753-5.432,8.374
		c-0.227,2.037,0.226,3.848,1.357,5.432c-1.132,0.227-1.132-1.357-1.811-1.811c-1.584-3.395-0.453-7.469,1.811-9.958
		c3.621-4.3,9.959-4.753,14.938-3.168C176.45,37.119,178.034,38.477,179.844,38.929L179.844,38.929z"/>
	<path fill-rule="evenodd" clip-rule="evenodd" fill="#393996" d="M60.793,37.798l0.227,2.49l0.453,19.917
		c-0.227,0.453-0.679,0.453-0.905,0.453l-0.227-0.453L60.114,43.23c-0.453-1.811,0.679-4.753-1.131-6.111
		C59.661,36.213,60.793,37.119,60.793,37.798L60.793,37.798z"/>
	<path fill-rule="evenodd" clip-rule="evenodd" fill="#393996" d="M179.392,49.34c-1.585,0.227-2.037-1.811-2.942-2.715
		c-0.68-0.679-1.585-0.906-1.812-1.811c0.68-0.227,1.358,0.453,2.037,0.679C177.807,46.852,178.939,47.982,179.392,49.34
		L179.392,49.34z"/>
	<path fill-rule="evenodd" clip-rule="evenodd" fill="#393996" d="M29.333,64.053c1.811,2.715-1.811,4.301-0.905,6.789
		c-0.226,0.227-0.453,0.453-0.679,0.227c-1.358-2.264,1.811-3.621,0.905-5.885c-2.264-4.301-4.753-8.6-7.243-12.674l0.227-1.811
		C24.353,54.998,26.617,59.752,29.333,64.053L29.333,64.053z"/>
	<path fill-rule="evenodd" clip-rule="evenodd" fill="#393996" d="M162.87,56.584c-2.037,0.227-4.301,0.904-5.206,2.715
		c-0.453,0.227-0.905,0.227-1.132-0.227c0.679-1.357,1.811-2.037,3.169-2.488C160.606,56.131,161.964,56.131,162.87,56.584
		L162.87,56.584z"/>
	<path fill-rule="evenodd" clip-rule="evenodd" fill="#393996" d="M176.45,64.957c0.226,0.906,0,2.037-0.68,2.717
		c-0.227,0.227-0.452,0.453-0.679,0.453c0.452-0.906,0.679-2.037,0.452-3.17c-0.226-0.904-1.131-1.357-1.357-2.262
		c0.227,0,0.679,0.225,0.905,0.225C175.77,63.373,176.223,64.279,176.45,64.957L176.45,64.957z"/>
	<path fill-rule="evenodd" clip-rule="evenodd" fill="#393996" d="M157.21,66.09c0.906,1.131,1.812,2.264,2.942,3.395v0.227
		c-1.584-0.227-2.716-1.584-3.621-2.943C156.305,66.316,156.758,65.863,157.21,66.09L157.21,66.09z"/>
	<path fill-rule="evenodd" clip-rule="evenodd" fill="#393996" d="M111.039,70.389c-0.227-0.678-0.452-0.225-0.452,0
		c-0.227,0.906-0.679,1.359-1.358,1.586c-0.452,0.227-0.905,0.227-1.132-0.227c0-1.133-0.226-2.49,0.227-3.621
		c1.358,0,2.942,0.227,3.848,1.357c0.453,0.453,0.227,1.811,1.132,1.584c-0.227-1.357,0.679-3.168-0.679-3.848
		c-0.453-0.227-7.695-0.68-8.601-0.453c-0.453,0-0.227,0.227,0,0.453c0.452,0.227,0.679,0.227,0.679,0.68
		c0.679,2.941,0.452,6.563,0.227,9.959c0,1.131-0.227,1.584-0.905,2.262c1.584,0.453,3.395,0.453,4.979,0.453
		c0.226-0.453-0.227-0.453-0.453-0.678c-0.679-2.037-0.227-4.301-0.453-6.338l0.227-0.453c1.585-0.227,2.264,1.584,2.264,2.264
		c0,0.453,0.452,0.453,0.452,0C111.039,75.143,111.039,70.842,111.039,70.389L111.039,70.389z"/>
	<path fill-rule="evenodd" clip-rule="evenodd" fill="#393996" d="M64.867,70.615l-0.226,3.623
		c-0.905-0.227-0.905-1.359-1.811-1.813c-0.679-0.678-1.584-0.451-2.49-0.451l-0.453,0.451v3.848
		c0.226,0.453,0.679,0.453,1.132,0.227c1.131-0.453,0.905-1.811,1.811-2.488l0.226,0.451c-0.226,2.037,0,3.17-0.226,5.207
		c-0.679-0.227-0.453-1.133-0.906-1.584c-0.226-0.68-1.131-0.453-1.584-0.453l-0.453,0.678l0.226,5.207
		c0.906,0.451,2.037-0.227,2.942-0.68c1.132-1.131,1.358-2.49,2.037-3.848c0.453-0.227,0.679,0.227,0.679,0.68
		c-0.226,1.357,0.68,3.395-0.905,4.074c-3.168,0.678-6.337,1.584-9.279,2.262c-0.227-0.678,0.905-0.904,0.905-1.584
		c0.453-3.168,0.226-7.469,0-10.863c-0.227-0.453-1.132-0.453-1.358-1.133c2.942-0.904,6.111-1.811,9.506-2.262L64.867,70.615
		L64.867,70.615z"/>
	<path fill-rule="evenodd" clip-rule="evenodd" fill="#393996" d="M53.324,75.596c0,0.904,0.227,1.811-0.453,2.49
		c-0.453,0.678-1.358,0.904-1.811,1.584c1.358,0.451,3.168,0.227,3.848,1.811c0.227,1.131,0.227,2.941-0.453,3.848
		c-2.942,3.168-7.469,3.395-11.09,4.979c-0.226-1.131,0.679-0.678,0.679-1.811c0-2.037,0-7.922-0.905-10.637
		c-0.227-0.68-1.132-0.453-1.358-0.906c1.811-1.131,3.622-1.584,5.658-2.264C49.25,74.012,52.192,73.105,53.324,75.596
		L53.324,75.596z M46.76,81.707c0,1.357-0.226,4.074,0.453,5.885c1.358,0.225,2.942-0.68,3.848-1.811
		c0.906-1.133,0.906-2.943,0-4.074C50.155,80.348,47.666,80.574,46.76,81.707L46.76,81.707z M46.76,76.273
		c-0.226,0.227-0.226,2.943,0.227,3.623c0,0.225,0.452,0.225,0.679,0c0.227,0,1.584-0.68,1.811-0.906
		c0.679-0.227,1.358-1.584,0.905-2.264C49.703,75.369,47.666,75.369,46.76,76.273L46.76,76.273z"/>
	<path fill-rule="evenodd" clip-rule="evenodd" fill="#393996" d="M100.175,66.768c0,0.68-0.68,0.68-1.132,1.133
		c-2.264,3.168-4.527,6.789-3.169,11.09l0.679,1.131l-0.226,0.227c-3.395-0.227-7.696,1.133-10.186-1.584
		c-1.358-1.357-2.037-2.941-3.621-4.074l-0.227,0.227v4.754c0,0.451,0.905,0.678,0.679,1.131c-2.49,0.227-5.885,1.357-8.148-0.453
		c-1.132-1.131-2.263-2.488-3.169-3.848c-0.679-0.227-0.453,0.68-0.679,0.906c0.226,1.584-0.679,3.848,1.584,4.525
		c-0.227,0.453-0.679,0.453-1.132,0.68l-4.527,0.453c0-0.453,0.679-0.68,0.905-1.133v-9.957c-0.226-0.453-0.226-1.133-0.905-1.359
		c-0.226-0.227-0.679,0-0.452-0.451c2.716-0.906,5.658-1.359,8.601-1.359c0.905,0.227,1.81,0.68,2.037,1.584
		c0.453,1.133,0,2.264-0.905,3.17c-0.679,0.68-1.584,0.68-2.037,1.584c1.358,1.811,2.49,3.848,4.527,5.205l0.453-0.678
		c0-3.396,0.453-7.469-0.453-10.412c-0.226-0.453-0.905-0.453-0.679-0.904c2.716-0.68,6.563-1.586,9.279,0
		c0.679,0.451,0.905,1.131,1.131,2.035c0,1.586-1.584,2.49-2.716,3.396c1.584,2.262,3.622,4.301,5.885,5.885
		c0.905,0,0.905-0.906,1.132-1.359c0.905-3.848-1.811-6.789-3.622-9.732c-0.227-0.451-1.131-0.678-1.358-1.357
		c1.811-0.227,3.621-0.453,5.206-0.227c0.226,0.453-0.453,0.68-0.453,1.133c0.453,1.357,1.358,2.715,2.263,3.848
		c0.905-0.227,1.132-1.359,1.585-2.037c0.226-0.68,0.679-1.359,0.452-2.037c0-0.453-0.679-0.68-0.679-1.133
		C97.233,66.316,98.817,66.768,100.175,66.768L100.175,66.768z M71.204,70.164c0.227,1.584-0.453,3.168,0.227,4.525
		c0.679,0,1.584-0.451,2.037-1.131s0.679-2.037,0.226-2.943C73.241,69.938,71.883,69.484,71.204,70.164L71.204,70.164z
		 M82.747,68.578c-0.679,0.906-0.453,2.943-0.226,4.527c0.679,0.227,1.358,0,1.811-0.68c0.679-0.904,0.679-2.037,0.453-3.168
		C84.558,68.354,83.653,68.354,82.747,68.578L82.747,68.578z"/>
	<path fill-rule="evenodd" clip-rule="evenodd" fill="#393996" d="M118.96,68.578c1.132,4.301,2.716,8.375,4.301,12.676
		c0.452,0.227,0.679,0.227,0.905,0c0.452-3.848,0.227-7.242,0-11.09c-0.227-0.453-0.905-0.68-0.679-1.133
		c3.395,0.906,8.374,0,10.185,3.621c0,0.906,0.227,1.586,0,2.49c-0.453,0.904-1.585,1.357-2.49,1.811
		c0.68,1.811,2.037,3.621,2.717,5.432c0.452,0.68,0.679,1.811,1.811,2.037l0.227-0.904c0-3.621,0.679-7.695-0.227-11.092
		c0-0.451-0.453-0.678-0.453-1.131l4.526,1.131c0.453,0.906,0.68,2.037,0.906,3.17c0.452,1.584,0.679,3.395,1.584,4.979
		c1.357-2.037,2.037-4.301,3.169-6.336c1.357,0,2.716,0.904,4.3,1.357c0,0.678-1.132,0.227-1.357,0.904l0.226,11.77
		c0,0.453,0.905,0.906,0.453,1.359l-4.979-1.813c0-0.451,0.905-0.451,1.132-1.131c0-2.717,0.452-5.658,0-8.148l-0.227-0.227
		c-0.905,1.133-1.358,2.717-2.037,4.074c-0.452,1.359-0.905,2.943-1.811,4.301l-0.452-0.227c-0.906-3.395-1.585-6.789-2.717-10.186
		l-0.226-0.227L137.52,76.5c0,3.17-0.68,6.338,0.679,9.281h-1.132c-1.811-0.906-4.3-0.68-5.658-2.49
		c-1.357-2.037-2.037-4.301-3.395-6.111c-0.453-0.227-0.453,0.227-0.68,0.227v4.752c0.227,0.453,0.905,0.68,0.68,1.133
		c-3.169-0.227-6.111-1.133-9.506-1.584c0.905-0.453,1.131-1.811,0.679-2.717c-0.227-0.904-0.227-2.037-1.358-2.037
		s-3.168-1.357-3.621,0.453c-0.227,0.904-1.132,2.49,0,3.395c-0.679,0.227-1.811,0.227-2.716,0c-0.227-0.227-0.68,0.227-0.905-0.227
		c3.168-2.715,3.621-7.016,5.205-10.637c0.227-0.906-0.226-1.584-0.679-2.037c0.905-0.68,2.264,0.227,3.396,0.227L118.96,68.578
		L118.96,68.578z M116.697,71.748c-0.452,1.131-0.905,2.264-1.357,3.395c0.679,0.68,1.811,0.227,2.489,0.68l0.227-0.227
		C117.603,74.238,117.376,73.105,116.697,71.748L116.697,71.748z M127.788,70.842c-0.679,1.359-0.453,2.717-0.227,4.074
		c0.227,0.68,0.905,0.906,1.358,0.68c0.679-0.227,1.132-0.68,1.357-1.133c0.227-1.131,0.453-2.262-0.452-2.941
		C129.146,71.068,128.466,70.842,127.788,70.842L127.788,70.842z"/>
	<path fill-rule="evenodd" clip-rule="evenodd" fill="#393996" d="M150.874,88.949c0-0.906,0.905-1.584,1.811-1.584
		s1.811,0.678,1.811,1.584c0,1.131-0.905,1.811-1.811,1.811S150.874,90.08,150.874,88.949L150.874,88.949z M152.684,90.533
		c0.905,0,1.358-0.68,1.358-1.584c0-0.68-0.453-1.357-1.358-1.357c-0.679,0-1.358,0.678-1.358,1.357
		C151.326,89.854,152.005,90.533,152.684,90.533L152.684,90.533z M152.458,90.08h-0.452v-2.037h0.905
		c0.453,0,0.679,0.227,0.679,0.68c0,0.227-0.226,0.453-0.679,0.453l0.679,0.904h-0.452l-0.453-0.904h-0.227V90.08L152.458,90.08z
		 M152.684,88.949c0.227,0,0.453,0,0.453-0.453c0-0.227-0.227-0.227-0.453-0.227h-0.227v0.68H152.684L152.684,88.949z"/>
	<path fill-rule="evenodd" clip-rule="evenodd" fill="#393996" d="M60.567,0.905c0,0,2.856-0.765,6.288-0.905h2.07
		c2.165,0.094,4.375,0.518,6.127,1.584c0,0-6.564-1.811-14.485,0.226V0.905L60.567,0.905z"/>
</g>
</svg>
