<?xml version="1.0" encoding="UTF-8" standalone="no"?>
<svg
   xmlns:dc="http://purl.org/dc/elements/1.1/"
   xmlns:cc="http://creativecommons.org/ns#"
   xmlns:rdf="http://www.w3.org/1999/02/22-rdf-syntax-ns#"
   xmlns:svg="http://www.w3.org/2000/svg"
   xmlns="http://www.w3.org/2000/svg"
   viewBox="0 0 363.28 109.34667"
   height="109.34667"
   width="363.28"
   xml:space="preserve"
   id="svg2"
   version="1.1"><metadata
     id="metadata8"><rdf:RDF><cc:Work
         rdf:about=""><dc:format>image/svg+xml</dc:format><dc:type
           rdf:resource="http://purl.org/dc/dcmitype/StillImage" /></cc:Work></rdf:RDF></metadata><defs
     id="defs6" /><g
     transform="matrix(1.3333333,0,0,-1.3333333,0,109.34667)"
     id="g10"><g
       transform="scale(0.1)"
       id="g12"><path
         id="path14"
         style="fill:#d62226;fill-opacity:1;fill-rule:nonzero;stroke:none"
         d="M 1408.59,625.18 H 945.488 V 816.211 H 1408.59 V 625.18" /><path
         id="path16"
         style="fill:#d62226;fill-opacity:1;fill-rule:nonzero;stroke:none"
         d="m 1615.62,625.18 h -125.99 v 194.886 h 125.99 V 625.18" /><path
         id="path18"
         style="fill:#d62226;fill-opacity:1;fill-rule:nonzero;stroke:none"
         d="m 1775.77,625.18 h -125.98 v 194.886 h 125.98 V 625.18" /><path
         id="path20"
         style="fill:#d62226;fill-opacity:1;fill-rule:nonzero;stroke:none"
         d="M 1408.59,358.902 H 945.488 V 547.996 H 1408.59 V 358.902" /><path
         id="path22"
         style="fill:#d62226;fill-opacity:1;fill-rule:nonzero;stroke:none"
         d="M 1588.04,0 H 945.488 v 192.961 h 466.962 c 52.1,0 77.18,0 77.18,65.602 v 289.433 h 287.51 V 212.25 C 1777.14,125.422 1759.77,0 1588.04,0" /><path
         id="path24"
         style="fill:#d62226;fill-opacity:1;fill-rule:nonzero;stroke:none"
         d="M 0,816.211 V 630.973 H 542.211 V 245.055 c 0,-34.735 -15.438,-52.094 -65.606,-52.094 L 0,192.961 V 0 h 762.184 c 27.011,0 67.535,11.5781 67.535,67.5352 V 816.211 H 0" /><path
         id="path26"
         style="fill:#d62226;fill-opacity:1;fill-rule:nonzero;stroke:none"
         d="M 2724.56,625.18 V 816.211 H 1892.91 V 625.18 h 549.93 c 0,-104.196 -10.23,-154.223 -34.73,-194.887 -40.28,-66.855 -129.29,-75.254 -162.09,-75.254 l -65.6,104.199 H 1890.98 L 2170.77,0 h 299.08 l -104.2,160.156 c 154.37,32.805 358.91,59.813 358.91,465.024" /></g></g></svg>