<svg width="500" height="100" viewBox="0 0 500 100" fill="none" xmlns="http://www.w3.org/2000/svg">
<g clip-path="url(#clip0_2_2484)">
<path fill-rule="evenodd" clip-rule="evenodd" d="M84.3203 94.73C84.3203 97.2024 82.466 99.6747 78.9852 99.6747C77.131 99.6747 74.561 98.959 74.561 97.6253C74.561 96.9096 74.9839 96.4216 75.602 96.4216C75.8948 96.4216 76.1876 96.5843 76.578 96.812C77.131 97.1373 77.8792 97.5602 79.0178 97.5602C80.6443 97.5602 81.7829 96.4542 81.7829 94.8276C81.7829 93.3962 80.4491 92.9408 78.8551 92.3878C76.9033 91.7372 74.6912 90.989 74.6912 88.1913C74.6912 86.2069 76.578 84.1249 79.3756 84.1249C81.2949 84.1249 83.3119 84.9057 83.3119 86.1093C83.3119 86.7274 82.8564 87.1828 82.2709 87.1828C81.848 87.1828 81.5552 86.9877 81.2624 86.7925C80.8395 86.5322 80.3515 86.2395 79.3105 86.2395C78.0744 86.2395 77.2286 86.9877 77.2286 88.0612C77.2286 89.3299 78.5298 89.7853 80.0262 90.3058C81.9456 90.9564 84.3203 91.8022 84.3203 94.73ZM89.5903 86.4672V90.7938H93.3639C94.1121 90.7938 94.535 91.2167 94.535 91.8998C94.535 92.583 94.1121 93.0059 93.3639 93.0059H89.5903V97.3325H93.7868C94.5025 97.3325 94.9579 97.7554 94.9579 98.4385C94.9579 99.1217 94.5025 99.5446 93.7868 99.5446H88.4843C87.7035 99.5446 87.2156 99.0892 87.2156 98.3084V85.4912C87.2156 84.7105 87.7035 84.2551 88.4843 84.2551H93.7868C94.5025 84.2551 94.9579 84.678 94.9579 85.3611C94.9579 86.0443 94.5025 86.4672 93.7868 86.4672H89.5903ZM100.716 86.4672V90.7938H104.489C105.205 90.7938 105.661 91.2167 105.661 91.8998C105.661 92.583 105.205 93.0059 104.489 93.0059H100.716V97.3325H104.88C105.596 97.3325 106.051 97.7554 106.051 98.4385C106.051 99.1217 105.596 99.5446 104.88 99.5446H99.5773C98.7966 99.5446 98.3086 99.0892 98.3086 98.3084V85.4912C98.3086 84.7105 98.7966 84.2551 99.5773 84.2551H104.88C105.596 84.2551 106.051 84.678 106.051 85.3611C106.051 86.0443 105.596 86.4672 104.88 86.4672H100.716ZM111.809 85.3611V98.4385C111.809 99.1868 111.353 99.6747 110.638 99.6747C109.922 99.6747 109.434 99.1868 109.434 98.4385V85.3611C109.434 84.6129 109.922 84.1249 110.638 84.1249C111.353 84.1249 111.809 84.6129 111.809 85.3611ZM127.619 85.3611V98.3409C127.619 99.2193 127.229 99.6747 126.513 99.6747C125.83 99.6747 125.504 99.3819 124.984 98.6012L117.892 88.5166V98.4385C117.892 99.1868 117.404 99.6747 116.689 99.6747C115.973 99.6747 115.485 99.1868 115.485 98.4385V85.4587C115.485 84.5804 115.875 84.1249 116.591 84.1249C117.274 84.1249 117.599 84.4502 118.12 85.1985L125.244 95.283V85.3611C125.244 84.6129 125.7 84.1249 126.415 84.1249C127.131 84.1249 127.619 84.6129 127.619 85.3611ZM144.21 92.3227C144.21 97.1373 141.9 99.6747 137.541 99.6747C132.856 99.6747 130.742 95.6409 130.742 91.8998C130.742 88.0286 132.921 84.1249 137.834 84.1249C140.892 84.1249 143.201 85.719 143.201 86.7599C143.201 86.9118 143.18 87.0527 143.136 87.1828C143.071 87.3347 142.984 87.4648 142.876 87.5732C142.768 87.6817 142.648 87.7576 142.518 87.8009C142.366 87.866 142.214 87.8985 142.063 87.8985C141.64 87.8985 141.282 87.6383 140.826 87.3455C140.143 86.8575 139.298 86.2395 137.704 86.2395C134.613 86.2395 133.247 89.0696 133.247 91.8998C133.247 94.5023 134.45 97.5602 137.769 97.5602C140.729 97.5602 141.802 95.0228 141.802 93.3963V92.7782H139.493C138.745 92.7782 138.322 92.3553 138.322 91.6721C138.322 90.989 138.745 90.5661 139.493 90.5661H142.583C143.722 90.5661 144.21 91.0865 144.21 92.3227ZM164.151 89.1672C164.151 91.8998 161.907 94.0469 159.076 94.0469H156.506V98.4385C156.506 99.1868 156.018 99.6747 155.303 99.6747C154.587 99.6747 154.099 99.1868 154.099 98.4385V85.4912C154.099 84.7105 154.587 84.2551 155.368 84.2551H159.011C162.037 84.2551 164.151 86.272 164.151 89.1672ZM158.881 86.3696H156.506V91.9324H158.946C160.573 91.9324 161.744 90.7612 161.744 89.1672C161.744 87.8009 160.996 86.3696 158.881 86.3696ZM173.13 99.6747C169.389 99.6747 166.331 96.1939 166.331 91.8998C166.331 87.6057 169.389 84.1249 173.13 84.1249C176.903 84.1249 179.961 87.6057 179.961 91.8998C179.961 96.1939 176.903 99.6747 173.13 99.6747ZM177.456 91.8998C177.456 88.7769 175.537 86.2395 173.162 86.2395C170.755 86.2395 168.836 88.7769 168.836 91.8998C168.836 95.0228 170.755 97.5602 173.162 97.5602C175.537 97.5602 177.456 95.0228 177.456 91.8998ZM192.063 94.73C192.063 97.2024 190.208 99.6747 186.728 99.6747C184.873 99.6747 182.303 98.959 182.303 97.6253C182.303 96.9096 182.726 96.4216 183.344 96.4216C183.637 96.4216 183.93 96.5843 184.32 96.812C184.873 97.1373 185.622 97.5602 186.76 97.5602C188.387 97.5602 189.525 96.4542 189.525 94.8276C189.525 93.3962 188.191 92.9408 186.597 92.3878C184.646 91.7372 182.434 90.989 182.434 88.1913C182.434 86.2069 184.32 84.1249 187.118 84.1249C189.037 84.1249 191.054 84.9057 191.054 86.1093C191.054 86.2611 191.033 86.4021 190.989 86.5322C190.946 86.6624 190.87 86.7708 190.761 86.8575C190.653 86.966 190.534 87.0527 190.404 87.1178C190.273 87.1612 190.143 87.1828 190.013 87.1828C189.59 87.1828 189.298 86.9877 189.005 86.7925C188.582 86.5322 188.094 86.2395 187.053 86.2395C185.817 86.2395 184.971 86.9877 184.971 88.0612C184.971 89.3299 186.272 89.7853 187.769 90.3058C189.688 90.9564 192.063 91.8022 192.063 94.73ZM203.936 94.73C203.936 97.2024 202.115 99.6747 198.601 99.6747C196.747 99.6747 194.177 98.959 194.177 97.6253C194.177 96.9096 194.6 96.4216 195.218 96.4216C195.543 96.4216 195.836 96.5843 196.194 96.812C196.747 97.1373 197.495 97.5602 198.634 97.5602C200.26 97.5602 201.432 96.4542 201.432 94.8276C201.432 93.3962 200.065 92.9408 198.471 92.3878C196.519 91.7372 194.34 90.989 194.34 88.1913C194.34 86.2069 196.194 84.1249 198.992 84.1249C200.911 84.1249 202.928 84.9057 202.928 86.1093C202.928 86.7274 202.473 87.1828 201.887 87.1828C201.464 87.1828 201.171 86.9877 200.879 86.7925C200.456 86.5322 199.968 86.2395 198.927 86.2395C197.691 86.2395 196.845 86.9877 196.845 88.0612C196.845 89.3299 198.146 89.7853 199.642 90.3058C201.562 90.9564 203.936 91.8022 203.936 94.73ZM209.337 85.3611V98.4385C209.337 99.1868 208.881 99.6747 208.165 99.6747C207.45 99.6747 206.962 99.1868 206.962 98.4385V85.3611C206.962 84.6129 207.45 84.1249 208.165 84.1249C208.881 84.1249 209.337 84.6129 209.337 85.3611ZM223 94.9577C223 97.6578 220.852 99.5446 217.827 99.5446H214.281C213.501 99.5446 213.013 99.0892 213.013 98.3084V85.4912C213.013 84.7105 213.501 84.2551 214.281 84.2551H217.534C220.332 84.2551 221.828 86.2069 221.828 88.0287C221.828 89.4275 221.243 90.5986 220.267 91.2167C221.861 91.7046 223 93.2011 223 94.9577ZM217.827 92.5179H215.42V97.4626H217.762C219.421 97.4626 220.592 96.4216 220.592 94.9577C220.592 93.4938 219.486 92.5179 217.827 92.5179ZM217.242 90.501C218.575 90.501 219.454 89.6552 219.454 88.3865C219.454 87.0853 218.673 86.3696 217.307 86.3696H215.42V90.501H217.242ZM228.465 85.3611V98.4385C228.465 99.1868 227.977 99.6747 227.261 99.6747C226.545 99.6747 226.057 99.1868 226.057 98.4385V85.3611C226.057 84.6129 226.545 84.1249 227.261 84.1249C227.977 84.1249 228.465 84.6129 228.465 85.3611ZM239.363 98.4385C239.363 99.1217 238.94 99.5446 238.191 99.5446H233.409C232.629 99.5446 232.141 99.0892 232.141 98.3084V85.3611C232.141 84.6129 232.629 84.1249 233.344 84.1249C234.06 84.1249 234.515 84.6129 234.515 85.3611V97.3325H238.191C238.94 97.3325 239.363 97.7554 239.363 98.4385ZM244.47 85.3611V98.4385C244.47 99.1868 243.982 99.6747 243.266 99.6747C242.583 99.6747 242.095 99.1868 242.095 98.4385V85.3611C242.095 84.6129 242.583 84.1249 243.266 84.1249C243.982 84.1249 244.47 84.6129 244.47 85.3611ZM257.157 85.3611C257.157 86.0443 256.734 86.4672 255.986 86.4672H253.481V98.4385C253.481 99.1868 252.993 99.6747 252.277 99.6747C251.562 99.6747 251.074 99.1868 251.074 98.4385V86.4672H248.569C247.853 86.4672 247.398 86.0443 247.398 85.3611C247.398 84.678 247.853 84.2551 248.569 84.2551H255.986C256.734 84.2551 257.157 84.678 257.157 85.3611ZM262.492 85.3611V98.4385C262.492 99.1868 262.004 99.6747 261.288 99.6747C260.573 99.6747 260.085 99.1868 260.085 98.4385V85.3611C260.085 84.6129 260.573 84.1249 261.288 84.1249C262.004 84.1249 262.492 84.6129 262.492 85.3611ZM268.445 86.4672V90.7938H272.219C272.934 90.7938 273.39 91.2167 273.39 91.8998C273.39 92.583 272.934 93.0059 272.219 93.0059H268.445V97.3325H272.609C273.357 97.3325 273.78 97.7554 273.78 98.4385C273.78 99.1217 273.357 99.5446 272.609 99.5446H267.307C266.526 99.5446 266.07 99.0892 266.07 98.3084V85.4912C266.07 84.7105 266.526 84.2551 267.307 84.2551H272.609C273.357 84.2551 273.78 84.678 273.78 85.3611C273.78 86.0443 273.357 86.4672 272.609 86.4672H268.445ZM286.142 94.73C286.142 97.2024 284.32 99.6747 280.807 99.6747C278.953 99.6747 276.383 98.959 276.383 97.6253C276.383 96.9096 276.806 96.4216 277.456 96.4216C277.749 96.4216 278.042 96.5843 278.4 96.812C278.953 97.1373 279.701 97.5602 280.839 97.5602C282.499 97.5602 283.637 96.4542 283.637 94.8276C283.637 93.3962 282.271 92.9408 280.709 92.3878C278.758 91.7372 276.545 90.989 276.545 88.1913C276.545 86.2069 278.432 84.1249 281.23 84.1249C283.117 84.1249 285.166 84.9057 285.166 86.1093C285.166 86.2611 285.134 86.4021 285.069 86.5322C285.025 86.6624 284.949 86.7708 284.841 86.8575C284.754 86.966 284.646 87.0527 284.515 87.1178C284.385 87.1612 284.244 87.1828 284.093 87.1828C283.67 87.1828 283.409 86.9877 283.084 86.7925C282.661 86.5322 282.173 86.2395 281.165 86.2395C279.929 86.2395 279.05 86.9877 279.05 88.0612C279.05 89.3299 280.352 89.7853 281.848 90.3058C283.767 90.9564 286.142 91.8022 286.142 94.73ZM298.471 85.3611V98.4385C298.471 99.1868 297.983 99.6747 297.268 99.6747C296.552 99.6747 296.096 99.1868 296.096 98.4385V85.3611C296.096 84.6129 296.552 84.1249 297.268 84.1249C297.983 84.1249 298.471 84.6129 298.471 85.3611ZM314.281 85.3611V98.3409C314.281 99.2193 313.891 99.6747 313.175 99.6747C312.492 99.6747 312.167 99.3819 311.646 98.6012L304.522 88.5166V98.4385C304.522 99.1868 304.067 99.6747 303.351 99.6747C302.635 99.6747 302.147 99.1868 302.147 98.4385V85.4587C302.147 84.5695 302.516 84.1249 303.253 84.1249C303.936 84.1249 304.262 84.4502 304.782 85.1985L311.874 95.283V85.3611C311.874 84.6129 312.362 84.1249 313.078 84.1249C313.793 84.1249 314.281 84.6129 314.281 85.3611ZM335.003 89.1672C335.003 91.8998 332.791 94.0469 329.961 94.0469H327.359V98.4385C327.359 99.1868 326.903 99.6747 326.188 99.6747C325.472 99.6747 324.984 99.1868 324.984 98.4385V85.4912C324.984 84.7105 325.472 84.2551 326.253 84.2551H329.896C332.889 84.2551 335.003 86.272 335.003 89.1672ZM329.733 86.3696H327.359V91.9324H329.831C331.458 91.9324 332.629 90.7612 332.629 89.1672C332.629 87.8009 331.848 86.3696 329.733 86.3696ZM343.917 99.6747C340.143 99.6747 337.085 96.1939 337.085 91.8998C337.085 87.6057 340.143 84.1249 343.917 84.1249C347.69 84.1249 350.716 87.6057 350.716 91.8998C350.716 96.1939 347.69 99.6747 343.917 99.6747ZM348.211 91.8998C348.211 88.7769 346.292 86.2395 343.917 86.2395C341.542 86.2395 339.59 88.7769 339.59 91.8998C339.59 95.0228 341.542 97.5602 343.917 97.5602C346.292 97.5602 348.211 95.0228 348.211 91.8998ZM361.972 85.3611C361.972 86.0443 361.516 86.4672 360.8 86.4672H358.263V98.4385C358.263 99.1868 357.775 99.6747 357.059 99.6747C356.344 99.6747 355.888 99.1868 355.888 98.4385V86.4672H353.351C352.635 86.4672 352.18 86.0443 352.18 85.3611C352.18 84.678 352.635 84.2551 353.351 84.2551H360.8C361.516 84.2551 361.972 84.678 361.972 85.3611ZM375.667 97.7554C375.797 98.0807 375.895 98.406 375.895 98.6663C375.895 99.2518 375.407 99.6747 374.756 99.6747C374.192 99.6747 373.802 99.3928 373.585 98.8289L372.674 96.3566H366.136L365.257 98.8289C365.04 99.3928 364.65 99.6747 364.086 99.6747C363.403 99.6747 362.947 99.2518 362.947 98.6663C362.947 98.406 363.045 98.0807 363.175 97.7554L363.208 97.6578L367.827 85.4262C368.152 84.5478 368.673 84.1249 369.421 84.1249C370.137 84.1249 370.69 84.5478 370.983 85.4262L375.667 97.7554ZM369.421 87.2154L366.916 94.2095H371.926L369.421 87.2154ZM386.63 85.3286C386.63 86.0443 386.207 86.4672 385.459 86.4672H382.954V98.406C382.954 99.1542 382.466 99.6747 381.75 99.6747C381.035 99.6747 380.579 99.1542 380.579 98.406V86.4672H378.042C377.326 86.4672 376.871 86.0443 376.871 85.3286C376.871 84.6454 377.326 84.2225 378.042 84.2225H385.459C386.207 84.2225 386.63 84.6454 386.63 85.3286ZM394.763 99.6747C390.989 99.6747 387.964 96.1939 387.964 91.8673C387.964 87.5732 390.989 84.0924 394.763 84.0924C398.536 84.0924 401.594 87.5732 401.594 91.8673C401.594 96.1939 398.536 99.6747 394.763 99.6747ZM399.057 91.8673C399.057 88.7443 397.137 86.2069 394.763 86.2069C392.388 86.2069 390.469 88.7443 390.469 91.8673C390.469 95.0228 392.388 97.5602 394.763 97.5602C397.137 97.5602 399.057 95.0228 399.057 91.8673ZM406.994 86.4672V90.7612H410.768C411.484 90.7612 411.939 91.1841 411.939 91.8673C411.939 92.583 411.484 93.0059 410.768 93.0059H406.994V97.3H411.158C411.874 97.3 412.329 97.7229 412.329 98.406C412.329 99.1217 411.874 99.5446 411.158 99.5446H405.856C405.075 99.5446 404.587 99.0566 404.587 98.2759V85.4912C404.587 84.7105 405.075 84.2225 405.856 84.2225H411.158C411.874 84.2225 412.329 84.6454 412.329 85.3286C412.329 86.0443 411.874 86.4672 411.158 86.4672H406.994ZM425.016 94.6975C425.016 97.1698 423.195 99.6747 419.681 99.6747C417.827 99.6747 415.257 98.959 415.257 97.5927C415.257 96.8771 415.68 96.3891 416.331 96.3891C416.624 96.3891 416.916 96.5517 417.274 96.7795C417.827 97.1048 418.608 97.5277 419.714 97.5277C421.34 97.5277 422.512 96.3891 422.512 94.7951C422.512 93.3637 421.145 92.9083 419.584 92.3553C417.632 91.6721 415.42 90.9239 415.42 88.1262C415.42 86.1419 417.307 84.0273 420.104 84.0273C421.991 84.0273 424.041 84.8406 424.041 86.0443C424.041 86.1744 424.008 86.3045 423.943 86.4346C423.9 86.5648 423.824 86.684 423.715 86.7925C423.628 86.9009 423.509 86.9768 423.357 87.0202C423.227 87.0853 423.097 87.1178 422.967 87.1178C422.544 87.1178 422.251 86.9226 421.959 86.7274C421.536 86.4672 421.048 86.1419 420.039 86.1419C418.803 86.1419 417.925 86.9226 417.925 87.9961C417.925 89.2648 419.226 89.7203 420.722 90.2407C422.642 90.9239 425.016 91.7372 425.016 94.6975Z" fill="#F06323"/>
<path fill-rule="evenodd" clip-rule="evenodd" d="M375.082 56.3433C375.082 60.2796 369.161 67.4039 362.98 67.4039C353.579 67.4039 358.523 47.2347 356.051 47.2347C354.555 47.2347 346.162 61.0278 343.429 63.7279C341.217 65.94 337.248 67.4039 335.524 67.4039C331.067 67.4039 335.264 57.3193 337.996 42.5502C335.784 43.7214 332.596 44.9575 329.994 45.8033C329.311 55.5951 322.804 67.4039 312.752 67.4039C306.962 67.4039 303.091 63.0772 301.854 57.1241C298.178 62.6543 292.648 67.4039 287.541 67.4039C281.36 67.4039 280.872 61.7435 282.336 52.1469C275.927 61.7435 266.754 67.4039 260.345 67.4039C260.15 67.4039 259.976 67.4039 259.825 67.4039C255.888 67.4039 252.895 64.4761 252.895 61.7435C252.895 59.3037 267.014 62.264 262.557 43.2985C258.849 49.1866 249.707 67.4039 234.125 67.4039C226.448 67.4039 222.251 62.4917 222.251 54.8795C222.251 43.2985 230.644 29.0174 241.542 29.0174C247.463 29.0174 249.935 32.9536 249.935 37.3778C249.935 46.2913 240.957 54.5541 233.474 55.3024C233.702 57.7096 234.45 59.3037 236.337 59.3037C244.015 59.3037 256.116 42.5502 259.337 34.4501C260.345 31.9777 266.526 28.5294 268.998 28.5294C272.447 28.5294 273.683 45.7708 273.943 51.6589C273.943 51.8975 273.932 52.1252 273.91 52.342C279.766 46.5515 284.711 39.2646 286.044 34.938C286.283 34.0922 286.522 33.2464 286.76 32.4006C286.999 31.5548 287.237 30.709 287.476 29.8632C287.714 29.0174 287.964 28.1716 288.224 27.3258C288.463 26.48 288.712 25.645 288.972 24.8209C287.216 24.6908 285.719 24.5932 284.581 24.5932C279.864 24.5932 278.4 26.0571 278.4 24.1052C278.4 21.1449 281.1 18.1846 286.532 18.1846H290.924C291.217 17.2087 291.51 16.2978 291.737 15.4845C292.974 11.5483 298.666 8.58798 302.115 8.58798C303.351 8.58798 303.871 9.33619 303.351 10.8001C302.961 12.2965 302.18 14.9315 301.236 18.1846H303.123C312.525 18.1846 315.485 14.0206 315.485 16.9484C315.485 20.3967 313.501 26.0571 306.083 26.0571C304.229 26.0571 301.724 25.8944 298.992 25.6667C295.121 38.8743 290.599 55.3674 293.234 55.3674C295.186 55.3674 299.675 49.6095 303.416 43.0057C306.506 35.2633 312.687 28.7897 317.957 28.7897C320.169 28.7897 321.406 30.2536 321.406 32.7259C324.366 32.7259 327.717 33.7994 329.245 38.2236C332.694 36.2393 337.085 33.4416 339.232 32.2379C341.445 31.0018 345.153 29.9933 347.137 29.9933C351.334 29.9933 349.35 37.1501 346.389 48.2106C349.122 45.0226 352.147 40.4032 354.555 38.126C356.897 35.9465 361.744 34.938 363.696 34.938C369.389 34.938 364.932 57.3193 369.389 57.3193C371.373 57.3193 375.082 53.1553 375.082 56.3433ZM233.702 49.1865C240.469 48.7962 245.674 37.1501 241.282 37.1501C239.395 37.1501 234.938 42.1924 233.702 49.1865ZM322.642 46.7467C318.705 46.7467 316.461 43.0382 317.697 38.614C313.013 42.0623 308.556 58.3277 315.485 58.3277C319.193 58.2952 322.642 50.4227 322.642 46.7467ZM166.363 38.126C166.363 57.0916 152.993 67.4039 144.112 67.4039C139.655 67.4039 135.426 64.6387 134.581 54.9445C130.807 62.2314 123.65 67.4039 119.128 67.4039C114.411 67.4039 112.427 63.9556 114.672 50.195C111.711 54.8469 108.003 60.2796 103.546 64.7038C101.562 66.6882 97.3652 67.4039 95.641 67.4039C92.4205 67.4039 93.6567 62.0037 96.8772 46.9744C93.8844 52.4071 87.9637 60.7675 83.507 65.1918C82.0106 66.6882 78.8226 67.4039 76.8382 67.4039C73.6176 67.4039 74.5935 64.2158 76.5779 51.4312C71.1453 60.0193 65.7126 67.4039 59.0112 67.4039C54.8148 67.4039 51.8544 64.4435 53.5786 56.3433C51.5942 60.7676 46.1615 67.4039 40.7289 67.4039C35.5239 67.4039 32.0756 63.7279 32.0756 57.0916C32.0756 44.2744 40.7289 28.2692 53.8388 28.2692C58.5233 28.2692 62.2318 31.0018 62.2318 35.9139C62.2318 37.3778 60.0197 35.426 56.5389 35.426C47.8857 35.426 39.9807 56.3433 44.9254 56.3433C49.6423 56.3433 54.3268 45.2503 57.2871 38.8743C58.5233 36.4019 64.7041 40.5984 64.7041 43.0382C64.7041 47.7227 60.7679 55.5951 63.2403 55.5951C65.7126 55.5951 72.8694 44.7623 77.5864 35.9139C78.8226 33.4416 83.507 30.7415 85.9794 30.7415C88.712 30.7415 87.9637 37.8658 86.7276 49.707C89.9481 45.7708 95.3808 35.426 99.317 32.9536C101.301 31.7175 104.294 29.9933 106.246 29.9933C109.727 29.9933 108.491 41.5743 107.255 49.707C110.963 43.5262 114.184 38.614 115.908 37.1501C117.144 36.1417 120.365 33.4416 122.577 33.4416C128.009 33.4416 122.577 54.8795 125.049 54.8795C127.782 54.8795 134.45 44.2744 135.947 37.6381C135.947 37.6598 135.958 37.6706 135.979 37.6706C137.996 27.0005 141.575 15.9725 143.592 10.5724C145.316 6.86384 150.521 4.65174 153.481 4.65174C155.953 4.65174 156.474 5.88792 155.238 8.84823C151.009 18.9328 139.883 56.8313 147.3 56.8313C153.741 56.8313 156.702 35.6537 150.781 35.6537C147.56 35.6537 152.277 29.9933 158.686 29.9933C164.607 29.9933 166.363 34.1898 166.363 38.126ZM30.0913 59.5314C30.0913 63.7279 11.0282 67.4039 6.3437 67.4039C-0.0974196 67.4039 -0.325136 62.7519 0.650791 55.3674C2.89542 40.5984 5.85574 24.8534 11.2884 5.88792C12.0366 3.41557 18.7054 0.487786 21.1778 0.487786C23.6501 0.487786 24.3984 1.20347 23.9104 3.67581C22.1863 12.7845 16.4933 31.4897 13.0125 46.9744C12.0366 50.9107 11.2884 54.8469 14.509 54.8469C17.7295 54.8469 23.1622 54.6192 25.8948 54.6192C27.8466 54.6192 30.0913 57.0916 30.0913 59.5314ZM231.88 6.14816C231.88 25.0811 211.353 67.4039 200.976 67.4039C197.268 67.4039 194.047 65.1918 194.047 50.4227C191.835 57.8072 185.394 67.4039 179.961 67.4039C172.772 67.4039 170.299 48.9588 170.299 27.2933C170.299 17.9569 171.308 9.82416 172.284 5.88792C173.032 2.69989 178.465 0.227539 182.921 0.227539C184.906 0.227539 185.394 0.97575 185.166 2.69989C183.182 12.7845 181.946 23.1293 181.946 31.9777C181.946 42.0623 181.685 51.6589 184.418 51.6589C187.118 51.6589 194.047 31.4897 195.283 27.2933C196.519 20.3967 196.78 18.1846 198.244 13.5327C198.992 11.0603 203.936 7.8723 207.905 7.8723C209.402 7.8723 210.378 8.36027 210.378 9.82416C210.378 12.7845 204.685 29.7656 204.685 45.0226C204.685 50.4227 205.173 51.4312 206.409 51.4312C209.402 51.4312 219.291 23.1293 221.015 12.0363C221.503 8.36026 227.196 4.16378 230.156 4.16378C231.393 4.16378 231.88 4.91199 231.88 6.14816ZM373.845 43.2334C370.95 43.2334 368.575 40.8912 368.575 37.9959C368.575 35.1007 370.95 32.7584 373.845 32.7584C376.741 32.7584 379.115 35.1007 379.115 37.9959C379.115 40.8912 376.741 43.2334 373.845 43.2334ZM378.27 37.9959C378.27 35.5886 376.285 33.6042 373.845 33.6042C371.406 33.6042 369.421 35.5886 369.421 37.9959C369.421 40.4357 371.406 42.3876 373.845 42.3876C376.285 42.3876 378.27 40.4357 378.27 37.9959ZM375.016 38.4514L376.188 40.761H375.049L373.943 38.5489H372.837V40.761H371.861V35.0356H374.366C375.374 35.0356 376.253 35.5886 376.253 36.7597C376.253 37.6706 375.765 38.2236 375.016 38.4514ZM374.333 35.979H372.837V37.6055H374.333C374.854 37.6055 375.244 37.3778 375.244 36.7923C375.244 36.2718 374.854 35.979 374.333 35.979Z" fill="#163B64"/>
<path fill-rule="evenodd" clip-rule="evenodd" d="M499.837 66.7858C498.374 66.7858 496.617 66.9159 495.088 66.7858C494.437 66.7533 493.689 66.8183 493.071 66.7533C492.258 66.6557 491.412 66.8834 490.631 66.7858C489.785 66.6882 488.387 66.7858 487.606 66.7208C487.118 66.7208 486.565 66.7858 486.077 66.7533C486.055 66.7533 486.023 66.7533 485.979 66.7533C485.958 66.7533 485.925 66.7533 485.882 66.7533C485.86 66.7533 485.827 66.7533 485.784 66.7533C485.762 66.7533 485.73 66.7533 485.686 66.7533C483.865 66.6232 482.076 66.8834 480.091 66.7533C480.026 66.7533 479.994 66.7858 479.896 66.7533C479.31 66.6882 478.627 66.8183 477.977 66.8183C476.773 66.7858 475.537 66.8183 474.236 66.8834C473.618 66.8834 472.967 66.9485 472.349 66.9159C470.82 66.8183 469.323 66.9485 467.697 66.8509C466.103 66.7858 464.379 66.7858 462.752 66.7858C462.655 66.5256 462.59 66.2978 462.557 65.8424C462.524 64.9641 462.394 63.5978 462.459 63.2725C462.427 63.0773 462.459 62.7845 462.427 62.4917C462.427 62.0038 462.362 61.4833 462.427 60.9628C462.427 60.8001 462.524 60.6049 462.524 60.4098C462.752 59.1411 462.817 57.8398 463.012 56.5711C463.056 56.2675 463.11 55.9639 463.175 55.6602C463.218 55.3566 463.284 55.053 463.37 54.7494C463.457 54.4458 463.544 54.153 463.63 53.871C463.717 53.5674 463.815 53.2746 463.923 52.9927C464.476 51.4963 465.029 50.0324 465.81 48.7637C466.396 47.9179 466.916 47.1046 467.567 46.3239C467.762 46.0962 468.022 45.8684 468.185 45.5757C468.282 45.4781 468.705 45.0877 468.77 44.9576C469.128 44.6648 469.779 43.9817 469.844 43.9166C470.299 43.5913 470.625 43.331 471.015 43.0383C471.405 42.7346 471.796 42.4419 472.186 42.1599C472.772 41.8997 473.26 41.6394 473.813 41.3792C474.333 41.1515 474.854 40.8912 475.439 40.6635C475.602 40.5659 475.96 40.4033 475.96 40.4033C475.96 40.4033 476.708 40.0779 477.066 39.9153C478.074 39.6876 479.148 39.5249 480.189 39.3297C482.466 39.102 485.036 39.3297 486.988 39.8828C487.508 40.0454 487.899 40.0779 488.289 40.2731C488.354 40.3057 488.387 40.3382 488.419 40.3707C488.614 40.4683 488.842 40.5659 489.07 40.696C489.135 40.7286 489.2 40.7936 489.265 40.8262C489.428 40.8912 489.525 40.9563 489.688 41.0213C489.883 41.1189 490.013 41.184 490.208 41.2816C490.338 41.3466 490.696 41.5418 490.761 41.6069C490.826 41.6394 490.891 41.7045 490.989 41.737C491.379 41.9973 491.835 42.3226 492.225 42.5828C492.485 42.778 492.681 43.0383 492.941 43.2009C493.169 43.3961 493.234 43.4612 493.591 43.7539C493.689 43.9491 493.722 44.0142 493.819 44.1443L493.917 44.2419C493.949 44.2744 494.144 44.5672 494.21 44.6648C494.372 44.86 494.502 44.9576 494.665 45.1853C494.795 45.3588 494.925 45.5431 495.055 45.7383C495.164 45.9335 495.283 46.1395 495.413 46.3564C495.543 46.5516 495.663 46.7468 495.771 46.942C495.901 47.1371 496.02 47.3432 496.129 47.56C496.151 47.6034 496.172 47.636 496.194 47.6576C496.216 47.701 496.248 47.7444 496.292 47.7878C496.313 47.8095 496.335 47.842 496.357 47.8854C496.378 47.9287 496.4 47.9721 496.422 48.0155C496.487 48.1131 496.584 48.4709 496.649 48.5685C497.202 49.8047 497.755 50.9758 498.113 52.4397C498.135 52.5264 498.146 52.624 498.146 52.7325C498.168 52.8192 498.2 52.906 498.243 52.9927C498.265 53.1011 498.287 53.1987 498.308 53.2855C498.33 53.3939 498.363 53.4915 498.406 53.5783C498.471 53.8819 498.536 54.1855 498.601 54.4891C498.666 54.7928 498.731 55.0855 498.796 55.3675C498.84 55.6711 498.894 55.9747 498.959 56.2783C499.024 56.582 499.089 56.8856 499.154 57.1892C499.187 57.482 499.187 57.8073 499.252 58.0675C499.414 59.2386 499.48 60.4423 499.61 61.6134C499.642 62.0038 499.675 62.5568 499.707 62.7845C499.707 64.1833 500.098 65.5496 499.837 66.7858Z" fill="#FCB717"/>
<path fill-rule="evenodd" clip-rule="evenodd" d="M459.922 67.0785C459.369 67.111 458.686 67.0134 458.198 67.111C457.807 67.111 457.384 67.1435 456.929 67.1435C454.326 67.2086 451.496 67.1761 448.959 67.111C448.438 67.111 447.853 67.1761 447.43 67.0785C447.267 67.111 447.072 67.0785 446.909 67.0785C446.291 67.0785 445.478 67.111 444.925 67.0134C444.307 66.9158 443.656 67.0134 443.038 66.9809C441.119 66.8508 439.557 66.8833 437.606 66.8182C437.573 66.8182 437.508 66.7857 437.475 66.7857C437.378 66.7857 437.313 66.8182 437.183 66.7857C436.857 66.7532 436.434 66.7857 436.077 66.7857C435.036 66.7857 433.897 66.8182 432.824 66.7532C431.75 66.6881 430.709 66.7206 429.733 66.6231C429.05 66.5905 428.269 66.6231 427.554 66.6231C426.968 66.6231 426.317 66.6231 425.699 66.558H425.472C424.3 66.4604 423.325 66.5905 422.218 66.4604C422.218 65.1592 422.121 64.0206 422.056 62.7519C422.056 62.4266 421.991 62.1013 421.991 61.8085C421.991 61.5808 422.056 61.353 422.056 61.1253C422.056 60.4422 422.121 59.8892 422.218 59.2385C422.305 58.7397 422.392 58.2409 422.479 57.7421C422.511 57.5144 422.609 57.2867 422.674 57.0264C422.706 56.8963 422.674 56.7662 422.706 56.6361C422.739 56.5385 422.804 56.4409 422.837 56.3433C422.869 56.2132 422.837 56.083 422.869 55.9855C422.902 55.8879 422.967 55.7903 422.999 55.6927C423.032 55.4975 423.032 55.3023 423.097 55.1071C423.227 54.6517 423.422 54.1312 423.552 53.6107C423.639 53.242 423.715 52.8842 423.78 52.5372C424.04 51.5612 424.528 50.6179 424.886 49.707C425.049 49.4142 425.114 49.1214 425.309 48.8287C425.927 47.8202 426.61 46.8117 427.261 45.8358C427.293 45.8033 427.358 45.6406 427.391 45.6406C427.391 45.6081 427.619 45.3478 427.684 45.2503C427.901 44.9683 428.107 44.6864 428.302 44.4044C428.519 44.1225 428.746 43.8514 428.985 43.5912C429.202 43.3092 429.429 43.0381 429.668 42.7779C429.885 42.5177 430.113 42.2574 430.351 41.9972C430.969 41.5092 431.62 41.1839 432.271 40.7935C432.889 40.4031 433.507 39.9802 434.157 39.5899C435.003 39.2646 435.947 39.0368 436.857 38.7766C437.833 38.5814 438.842 38.4838 439.883 38.3862C439.991 38.3862 440.089 38.3862 440.176 38.3862C440.262 38.3862 440.349 38.3862 440.436 38.3862C440.544 38.3862 440.642 38.3971 440.729 38.4188C440.815 38.4188 440.902 38.4296 440.989 38.4513C441.347 38.4838 441.802 38.4513 442.095 38.5164C442.388 38.5489 442.68 38.5164 442.973 38.5489C443.06 38.5489 443.147 38.5597 443.233 38.5814C443.32 38.6031 443.407 38.6248 443.494 38.6465C443.58 38.6465 443.656 38.6682 443.721 38.7115C443.808 38.7332 443.895 38.7549 443.982 38.7766C444.405 38.9067 444.958 39.0694 445.413 39.1995C445.608 39.2646 445.771 39.3622 445.933 39.4272C446.129 39.4923 446.356 39.5248 446.519 39.5899C446.617 39.6224 446.779 39.72 446.877 39.7525C447.918 40.1104 448.503 40.4357 449.252 40.7935C449.675 41.0538 450.097 41.2815 450.455 41.5743C450.65 41.7044 450.846 41.8345 451.041 41.9646C451.236 42.0948 451.431 42.2357 451.626 42.3875C451.8 42.5177 451.973 42.6695 452.147 42.843C452.342 42.9948 452.526 43.1466 452.7 43.2984C453.058 43.5912 453.318 43.9815 453.708 44.2743C453.969 44.6647 454.326 44.9575 454.522 45.4129C454.814 45.7382 455.01 46.1936 455.335 46.519C455.367 46.6165 455.465 46.7792 455.498 46.8443C455.986 47.5274 456.311 48.113 456.766 48.7961C457.092 49.6419 457.352 50.5528 457.71 51.3335C457.753 51.4853 457.786 51.6372 457.807 51.789C457.851 51.9625 457.894 52.1251 457.937 52.2769C458.002 52.4287 458.057 52.5697 458.1 52.6998C458.143 52.8516 458.198 53.0034 458.263 53.1553C458.328 53.7733 458.523 54.2938 458.686 54.8794C458.946 55.7903 459.076 56.7662 459.369 57.6771C459.531 58.9783 459.694 60.1494 459.792 61.4832C459.792 62.0037 459.759 62.6543 459.857 62.9796C459.824 63.6302 459.889 64.411 459.922 64.8339C459.954 65.4845 459.889 66.2977 459.922 67.0785Z" fill="#F06323"/>
<path fill-rule="evenodd" clip-rule="evenodd" d="M418.705 66.6882C417.306 66.6231 416.005 66.7858 414.574 66.6882C413.826 66.6231 413.142 66.7207 412.427 66.6556C412.004 66.6231 411.548 66.5906 411.191 66.6231C411.093 66.6231 410.735 66.5906 410.442 66.5906C409.922 66.5906 409.434 66.5906 408.848 66.5906C408.805 66.5906 408.762 66.5906 408.718 66.5906C407.189 66.5255 405.628 66.5255 403.969 66.5255C403.448 66.5255 402.928 66.558 402.472 66.5255C401.789 66.4279 401.073 66.558 400.39 66.5255C398.894 66.4605 397.365 66.558 395.836 66.493C394.665 66.4605 393.461 66.5581 392.258 66.5581C388.094 66.6556 383.832 66.7207 379.863 66.8183C379.766 65.9725 379.961 65.1592 380.026 64.3459C380.124 63.4676 380.156 62.6218 380.254 61.7435C380.275 61.4615 380.297 61.1796 380.319 60.8977C380.34 60.6157 380.373 60.3338 380.416 60.0519C380.438 59.7916 380.47 59.5205 380.514 59.2386C380.557 58.9567 380.601 58.6747 380.644 58.3928C380.839 57.3518 380.969 56.3433 381.295 55.4325C381.522 54.2939 381.945 53.2854 382.401 52.342C382.498 52.1143 382.791 51.3336 383.279 50.4553C383.702 49.6745 384.19 48.8938 384.678 48.1781C384.841 47.9829 385.036 47.8202 385.166 47.6576C385.328 47.3648 385.589 47.0395 385.816 46.7467C385.903 46.6166 386.001 46.4865 386.109 46.3564C386.196 46.2262 386.294 46.107 386.402 45.9985C386.51 45.8684 386.608 45.7383 386.695 45.6081C386.803 45.4997 386.912 45.3804 387.02 45.2503C387.118 45.1527 387.313 45.0226 387.41 44.8925C387.541 44.7949 387.996 44.2093 388.159 44.0467C388.712 43.5587 388.679 43.5262 390.11 42.4852C391.509 41.4442 392.388 41.1839 393.624 40.6309C394.6 40.3707 395.543 40.1104 396.617 39.8827C398.048 39.7851 399.349 39.9152 400.585 40.0128C400.781 40.0128 400.943 40.0128 401.106 40.0128C401.854 40.1104 402.635 40.3381 403.383 40.5008C403.936 40.6309 404.587 40.761 405.14 40.9237C405.292 40.9671 405.433 41.0104 405.563 41.0538C405.714 41.1189 405.855 41.1731 405.986 41.2165C406.137 41.2815 406.278 41.3358 406.409 41.3791C406.56 41.4442 406.701 41.5093 406.831 41.5743C407.287 41.802 407.677 41.9647 408.068 42.1924C408.263 42.2792 408.458 42.3767 408.653 42.4852C408.848 42.6153 409.033 42.7346 409.206 42.843C409.38 42.9731 409.564 43.1033 409.759 43.2334C409.933 43.3635 410.106 43.4936 410.28 43.6238C410.605 43.884 411.451 44.5997 411.776 44.925C412.166 45.5431 412.719 46.0311 413.142 46.6166C413.565 47.2022 413.891 47.8528 414.346 48.4383C414.509 48.8287 414.704 49.154 414.932 49.4793C414.953 49.5661 414.986 49.6528 415.029 49.7396C415.073 49.8046 415.116 49.8805 415.159 49.9673C415.203 50.054 415.246 50.1299 415.289 50.195C415.333 50.2818 415.376 50.3577 415.42 50.4227C415.777 51.1384 416.103 51.8541 416.461 52.5372C416.688 53.2529 416.949 53.9361 417.209 54.6192C417.371 55.3024 417.599 55.8554 417.697 56.5711C417.957 57.4169 418.12 58.3277 418.315 59.2386C418.412 60.0519 418.51 61.1579 418.575 61.8085C418.597 61.917 418.608 62.0146 418.608 62.1013C418.608 62.2097 418.618 62.3073 418.64 62.3941C418.64 62.5025 418.651 62.6001 418.673 62.6869C418.673 62.7953 418.673 62.8929 418.673 62.9797C418.738 64.3134 418.77 65.452 418.705 66.6882Z" fill="#163B64"/>
</g>
<defs>
<clipPath id="clip0_2_2484">
<rect width="500" height="99.8699" fill="white"/>
</clipPath>
</defs>
</svg>
