<?xml version="1.0" encoding="UTF-8" standalone="no"?>
<svg
   xmlns:svg="http://www.w3.org/2000/svg"
   xmlns="http://www.w3.org/2000/svg"
   version="1.1"
   width="318.56018"
   height="318.5575"
   id="svg4031">
  <defs
     id="defs4033" />
  <g
     transform="translate(-190.71991,-373.08343)"
     id="layer1">
    <path
       d="m 509.28009,691.64093 -318.56018,0 0,-318.5575 318.56018,0 0,318.5575 z"
       id="path38"
       style="fill:#9e8f6a;fill-opacity:1;fill-rule:nonzero;stroke:none" />
    <path
       d="m 359.9795,522.89922 c 0,0 -6.71177,16.50872 -18.48955,12.0619 -12.49345,-4.74703 -6.22931,-21.36565 -6.22931,-21.36565 6.36332,-16.83038 18.89698,-12.11283 18.89698,-12.11283 0,0 12.19324,4.04475 5.82188,21.41658 m -13.21985,-25.29246 c -10.93076,-0.74784 -21.06275,8.04662 -20.62049,21.75429 0.36186,11.34088 11.43469,19.56709 22.78091,18.93452 12.58727,-0.0885 21.33617,-8.73283 20.67679,-21.33885 -0.6031,-11.30334 -12.05655,-19.12481 -22.83721,-19.34996 m 70.95882,40.25457 c -1.2866,0.12062 -2.60268,0.19299 -3.88393,0.12062 -1.26784,-0.0562 -2.5866,-0.20371 -2.5866,-0.20371 l 0,-12.98934 c 0,0 -0.0429,-0.74783 0.4235,-1.0132 0.80145,-0.44226 2.46063,-0.50391 2.46063,-0.50391 0,0 0.93814,-0.0536 1.36165,-0.0536 0.45568,0 1.56,0.0536 1.56,0.0536 2.29713,0.21979 3.83302,0.90866 3.83302,0.90866 0,0 3.49526,1.26784 3.49526,6.30435 0,5.11425 -4.60496,6.86457 -4.60496,6.86457 0,0 -0.88187,0.3699 -2.05857,0.51196 m 15.14439,15.87882 c -0.82021,-0.57361 -10.7887,-14.71016 -10.7887,-14.71016 0,0 -0.43959,-0.40474 -0.0885,-0.4932 0.63794,-0.0482 2.70186,-0.40206 5.40641,-1.6699 3.90002,-1.84412 4.29404,-6.33384 4.29404,-6.33384 0,0 0.46103,-3.82765 -2.42846,-6.88065 -3.09054,-3.26742 -9.40829,-2.95918 -9.40829,-2.95918 l -18.48687,0 0,0.37258 c 2.26227,1.00248 2.11217,2.68578 2.11217,2.68578 l 0,32.16507 c 0,0 -0.0321,2.32125 -2.15239,2.82249 l 0,0.3967 12.01903,0 0,-0.3967 c -2.03176,-0.7934 -2.05589,-2.68579 -2.05589,-2.68579 l 0,-16.83037 0,-0.38598 c 0.12866,-0.25196 0.62721,-0.1367 0.62721,-0.1367 0,0 1.48764,0.29217 2.92703,2.51692 1.44475,2.23011 9.23941,12.97861 11.06746,14.83613 1.66455,1.6565 5.12498,4.73363 11.78314,5.0794 0,0 3.87054,0 4.90517,-0.36721 l 0.23588,-0.23051 c -5.4761,-0.73176 -9.96849,-6.79488 -9.96849,-6.79488 m -29.56206,-34.60506 0.3565,-0.0321 0,-6.78952 -31.4628,0 0,6.78952 0.33772,0.0321 c 0,0 0.27877,-1.56536 2.33734,-2.79032 1.37505,-0.79608 4.58888,-0.8899 4.58888,-0.8899 l 4.62373,-0.0482 -0.0267,32.2562 c 0,0 -0.0991,2.30785 -2.1497,2.80103 l 0,0.3699 12.01903,0 0,-0.3699 c -2.20331,-0.86577 -2.16846,-2.80103 -2.16846,-2.80103 l 0,-32.2562 4.61836,0.0482 c 0,0 3.23527,0.0804 4.59692,0.8899 2.15774,1.30001 2.32929,2.79032 2.32929,2.79032 m -102.8913,39.60941 c -2.56516,-1.02392 -2.27567,-2.51691 -2.27567,-2.51691 l 0,-26.53351 c 0,0 0.0429,-0.44495 0.32165,-0.13134 l 22.67368,31.26981 0.76125,0 0,-37.34096 c 0,0 0.0536,-1.89775 2.27568,-2.55445 l 0,-0.37794 -8.02519,0 0.005,0.36722 c 2.26228,0.85237 2.2998,2.56517 2.2998,2.56517 l 0,19.73595 c 0,0 0,0.34041 -0.21711,0.42886 -0.15546,0.0831 -0.35918,-0.0161 -0.35918,-0.0161 l -16.17635,-22.94709 -9.57715,0 0,0.25195 c 2.3132,0.6031 2.27568,3.14683 2.27568,3.14683 l -0.0616,32.13558 c 0,0 0.0616,1.49299 -2.31856,2.54372 l 0,0.36453 8.39776,0 0,-0.39133 z m -14.47804,-19.00366 -7.11116,-0.16886 c 0,0 -6.13549,0.21711 -6.13549,-1.82001 l 0,-14.80665 12.43717,0 c 0,0 1.31876,-0.0885 1.78516,2.14165 l 0.20907,0 0,-7.7625 -0.23052,0 c -0.31896,2.25691 -1.76371,2.18722 -1.76371,2.18722 l -12.43717,0 0,-11.30602 c 0,0 -0.10987,-0.74515 1.63774,-0.8068 1.68063,-0.0616 9.44313,0.0241 9.44313,0.0241 2.71258,0 3.74991,2.91094 3.74991,2.91094 l 0.3431,0 0.007,-6.2856 -25.06731,0 0,0.36186 c 2.23815,0.88723 2.18454,2.80373 2.18454,2.80373 l 0,32.78425 c 0,0 -0.0643,1.67526 -2.22207,2.50082 l 0,0.30558 26.89536,0 0,-6.2293 -0.32432,0 c -1.7128,3.49795 -3.40146,3.16557 -3.40146,3.16557 m 175.14042,-3.16477 c -1.69135,3.49795 -3.40681,3.16557 -3.40681,3.16557 l -7.1058,-0.16886 c 0,0 -6.10869,0.21444 -6.13549,-1.8066 l 0,-14.82006 12.45593,0 c 0,0 1.29731,-0.0885 1.77443,2.14166 l 0.19835,0 0,-7.76519 -0.22516,0 c -0.30289,2.25691 -1.74762,2.1899 -1.74762,2.1899 l -12.45593,0 0,-11.30601 c 0,0 -0.1045,-0.74516 1.64845,-0.80949 1.69671,-0.059 9.43509,0.0267 9.43509,0.0267 2.72064,0 3.76331,2.91094 3.76331,2.91094 l 0.3297,0 0.0161,-6.28828 -25.06195,0 0,0.36454 c 2.2462,0.88723 2.1631,2.80373 2.1631,2.80373 l 0,32.78157 c 0,0 -0.0429,1.67526 -2.20867,2.50351 l 0,0.30289 26.91413,0 0,-6.22662 -0.35114,0 z m -199.72686,11.2374 -8.93921,0 c 0,0 -3.93218,0.2198 -3.93218,-2.90558 l 0,-29.42836 c 0,0 0.0295,-2.21135 2.17114,-2.80373 l 0,-0.37257 -12.02437,0 0,0.37257 c 2.30784,0.98908 2.17114,2.80373 2.17114,2.80373 l -0.0375,32.60734 c 0,0 0.0965,1.47155 -2.16578,2.50083 l 0,0.2466 26.86587,0 0.0161,-5.96393 -0.35113,0 c -0.95155,2.93506 -3.77404,2.9431 -3.77404,2.9431 m 84.64265,-64.62338 c 6.58044,4.64249 15.18191,10.31426 22.63617,6.8324 -7.859,-2.32929 -12.75881,-10.01942 -19.44915,-14.15531 l -1.51712,0 -19.39285,13.64066 2.01299,1.6994 c 4.29672,0.62185 13.84438,-9.80499 15.70996,-8.01715 m 61.08309,93.93273 c 0,-1.233 0.98907,-1.56537 1.74227,-1.56537 0.79073,0 1.57073,0.16083 2.28373,0.48515 l 0.21442,-1.82805 c -0.83361,-0.29752 -1.71815,-0.40206 -2.68577,-0.40206 -1.98352,0 -3.90538,0.90866 -3.90538,3.40146 0,3.70434 4.89981,2.82249 4.89981,4.94807 0,1.0266 -1.1365,1.4501 -1.98887,1.4501 -0.87919,0 -1.73691,-0.28413 -2.53836,-0.69155 l -0.19032,2.03712 c 1.10165,0.25196 1.64578,0.42083 2.86538,0.42083 2.26495,0 4.2029,-0.94352 4.2029,-3.3961 0,-3.73114 -4.89981,-2.91898 -4.89981,-4.8596 m -52.06937,1.64122 -0.74783,0 0,-3.02084 0.74783,0 c 1.09898,0 2.35609,0.1045 2.35609,1.47155 0,1.3965 -1.26247,1.54929 -2.35609,1.54929 m 2.39362,0.87381 0,-0.0161 c 1.42867,-0.19299 2.30785,-1.29196 2.30785,-2.60001 0,-3.11733 -2.87878,-3.02888 -5.27239,-3.02888 l -2.42311,0 0,11.19344 2.2462,0 0,-4.65858 0.71567,0 c 0.95423,0 1.23568,0.32434 1.56,1.15259 l 1.35094,3.50599 2.49815,0 -1.78516,-4.3798 c -0.24124,-0.49856 -0.59773,-1.11506 -1.19815,-1.16868 m -33.36643,1.21509 1.6163,-4.61301 0.0349,0 1.62166,4.61301 -3.2728,0 z m 0.4101,-6.86189 -4.35569,11.19613 2.32929,0 0.973,-2.56516 4.53528,0 0.95422,2.56516 2.49011,0 -4.40124,-11.19613 -2.52497,0 z m -27.07039,5.18127 -0.77999,0 0,-3.42827 0.77999,0 c 1.15794,0 2.13094,0.45568 2.13094,1.753 0,1.3 -0.9998,1.67527 -2.13094,1.67527 m -0.18762,-5.18127 -2.81981,0 0,11.19613 2.22744,0 0,-4.2565 0.9435,0 c 2.41775,0 4.3128,-0.93548 4.3128,-3.55693 0,-2.6697 -2.22475,-3.3827 -4.66393,-3.3827 m 84.30544,11.19694 2.25424,0 0,-11.19612 -2.25424,0 0,11.19612 z"
       id="path96"
       style="fill:#ffffff;fill-opacity:1;fill-rule:nonzero;stroke:none" />
  </g>
</svg>
