<svg width="128" height="60" viewBox="0 0 128 60" fill="none" xmlns="http://www.w3.org/2000/svg">
<path d="M63.7073 1.39636L31.5255 15.1816H11.4516V20.8052H1.39633V58.6037H126.004V20.8052H115.954V15.1816H95.8873L63.7073 1.39636Z" fill="#004990"/>
<path d="M93.4225 25.2344L93.4211 31.345L97.3745 31.352L98.1983 25.2361L93.4225 25.2344Z" fill="white"/>
<path d="M114.798 30.5293C115.053 30.5293 115.283 30.5102 115.283 30.1994C115.283 29.9551 115.056 29.9097 114.847 29.9097H114.435V30.5293H114.798ZM114.435 31.6499H114.133V29.6531H114.894C115.364 29.6531 115.597 29.8276 115.597 30.2221C115.597 30.5799 115.376 30.7353 115.082 30.7719L115.65 31.6499H115.311L114.784 30.7841H114.435V31.6499ZM114.801 32.0967C115.585 32.0967 116.203 31.4841 116.203 30.648C116.203 29.8277 115.585 29.2098 114.801 29.2098C114.007 29.2098 113.389 29.8277 113.389 30.648C113.389 31.4841 114.007 32.0967 114.801 32.0967ZM113.04 30.648C113.04 29.6531 113.847 28.92 114.801 28.92C115.746 28.92 116.554 29.6531 116.554 30.648C116.554 31.6499 115.746 32.3864 114.801 32.3864C113.847 32.3864 113.04 31.6499 113.04 30.648Z" fill="white"/>
<path d="M21.2733 46.058V25.2336H15.5781V51.0167H30.0859V46.058H21.2733Z" fill="white"/>
<path d="M78.6072 51.0176H92.1638V46.052H84.3304V42.816H92.1638V38.0353H84.3304V34.7819H92.1638V29.7953H78.6072V29.8197V51.0176Z" fill="white"/>
<path d="M43.1029 34.7824H38.0936V46.0315H43.1029V34.7824ZM48.8086 48.3075C48.8086 49.8033 47.5956 51.0182 46.098 51.0182H35.0967C33.6009 51.0182 32.3879 49.8033 32.3879 48.3075V32.5064C32.3879 31.0088 33.6009 29.7958 35.0967 29.7958H46.098C47.5956 29.7958 48.8086 31.0088 48.8086 32.5064V48.3075Z" fill="white"/>
<path d="M69.6444 29.7963V46.0582H66.206V29.7963H61.1967V46.0582H57.7582V29.7963H52.0525V48.3063C52.0525 49.8038 53.2656 51.0186 54.7631 51.0186H61.5073C62.6436 51.0186 63.7013 50.2332 63.7013 49.097C63.7013 50.2332 64.759 51.0186 65.8953 51.0186H72.6413C74.1371 51.0186 75.3501 49.8038 75.3501 48.3063V29.7963H69.6444Z" fill="white"/>
<path d="M112.163 42.998L112.164 42.9994L112.129 42.9262C112.107 42.8808 112.084 42.837 112.061 42.7918L112.027 42.722C111.124 40.912 109.103 39.4005 105.85 38.0984L105.734 38.0549C105.09 37.8018 103.13 37.0356 102.912 35.7893C102.853 35.4403 102.994 34.8922 103.383 34.5588C103.793 34.1417 104.422 33.927 105.251 33.927C106.577 33.927 108.085 34.4698 108.867 34.7927C110.513 35.4751 111.957 36.0843 111.971 36.093L112.114 36.1524V31.52L112.067 31.4903C112.035 31.4694 108.923 29.5075 105.78 29.0572C105.419 29.0258 105.061 29.0118 104.717 29.0118C101.823 29.0118 99.6308 30.0626 98.203 32.1361C97.0039 33.8397 96.8713 36.5363 97.8906 38.5488C99.2014 40.823 101.303 41.7725 103.336 42.6923C104.174 43.0693 105.042 43.4638 105.853 43.9455L105.861 43.9511C106.78 44.5027 107.247 45.3457 107.054 46.0945C106.853 46.8712 105.964 47.393 104.842 47.393C104.689 47.393 104.533 47.3847 104.381 47.3635L104.327 47.3565C102.168 47.0563 97.7907 45.426 97.7471 45.4086L97.6074 45.3563V50.4354L97.679 50.4598C97.7193 50.4738 101.957 51.8771 105.718 51.8771H105.72C107.772 51.8771 109.322 51.4634 110.324 50.65C110.349 50.6326 112.647 48.7842 112.749 45.6407C112.776 44.7715 112.579 43.8814 112.162 42.9982" fill="white"/>
</svg>
