<?xml version="1.0" encoding="UTF-8" standalone="no"?>
<!-- Created with Inkscape (http://www.inkscape.org/) -->
<svg
   xmlns:svg="http://www.w3.org/2000/svg"
   xmlns="http://www.w3.org/2000/svg"
   version="1.0"
   width="956.69287"
   height="339.80313"
   id="svg2">
  <defs
     id="defs4" />
  <g
     transform="translate(-94.732795,-179.53903)"
     id="layer1">
    <g
       transform="matrix(1.8489167,0,0,1.8489167,-44.987199,-345.46444)"
       id="g2513">
      <path
         d="M 506.86256,322.31401 C 506.86256,313.67417 515.89301,309.09685 526.63569,309.09685 C 544.52972,309.09685 555.43642,321.53279 560.37591,335.79759 L 567.19259,335.79759 L 567.19259,304.64752 L 560.03839,304.64752 C 558.15835,307.00349 556.80355,310.01364 553.38573,310.01364 C 548.79039,310.01364 542.65253,303.08034 524.07398,303.08034 C 502.60474,303.07845 484.36655,313.80975 484.36655,332.65376 C 484.36655,362.62347 550.32533,356.07888 550.32533,375.05657 C 550.32533,386.04954 540.26811,390.23436 528.50814,390.23436 C 506.86256,390.23436 495.44675,374.40145 490.84193,360.1395 L 483.354,360.13761 L 483.354,394.68559 L 490.1631,394.68559 C 491.51791,392.98284 494.08246,389.4522 497.4908,389.4522 C 502.93941,389.45125 510.95636,396.25751 531.92028,396.25751 C 550.83445,396.25561 573.83862,386.05049 573.83862,366.54757 C 573.83862,332.65376 506.86256,342.73088 506.86256,322.31496 M 407.57124,346.78582 L 407.57124,318.52075 C 407.57124,312.50045 412.93547,310.66971 419.20037,310.66971 C 431.55194,310.66781 439.06736,317.99741 439.06736,328.86429 C 439.06736,343.90935 427.07985,346.13543 407.57124,346.78771 M 280.11534,358.04425 L 294.60673,330.43146 L 310.1154,358.04425 L 280.11534,358.04425 L 280.11534,358.04425 z M 308.75206,303.08034 L 299.71687,303.08034 L 261.88,372.83143 C 256.01708,383.50774 251.94983,387.48209 239.66178,389.35075 C 230.47774,388.86818 227.32633,386.55866 227.32633,380.81236 L 227.32633,318.52075 C 227.32633,311.97901 231.4135,309.8866 243.85892,309.8866 L 243.85987,304.64752 L 193.92078,304.64752 L 169.71918,365.63362 L 169.38166,365.63362 L 145.35071,304.64752 L 95.75293,304.64752 L 95.75293,309.88565 C 105.81015,310.01364 111.43225,311.06127 111.43225,317.73669 L 111.4332,377.14519 C 111.4332,386.17848 103.76799,389.32041 94.732798,389.4522 L 94.732798,394.68559 L 138.87249,394.68559 L 138.87249,389.45125 C 128.64746,389.31947 120.9813,386.18038 120.9813,377.14709 L 120.9813,314.33498 L 121.31882,314.33498 L 152.50397,394.68559 L 167.1679,394.68559 L 199.71638,314.33498 L 200.05769,314.33498 L 200.05769,380.81236 C 200.05769,387.35694 195.96389,389.4522 184.71588,389.4522 L 184.71683,394.68559 L 286.93772,394.68559 L 286.93772,389.45125 L 278.5823,389.45125 C 271.93722,389.45125 268.87303,387.09338 268.87303,383.42811 C 268.87398,379.76757 270.06382,376.88921 270.91329,375.19025 L 276.36949,364.84671 L 313.86125,364.84671 L 322.21667,379.89556 C 323.23965,381.7282 324.08913,383.42811 324.08913,385.1337 C 324.08913,387.87839 322.72484,389.4522 313.86125,389.4522 L 307.04552,389.45125 L 307.04552,394.68559 L 424.74853,394.68559 L 424.74853,389.45125 C 409.89972,389.45125 407.57124,386.4411 407.57124,378.98351 L 407.57124,351.49492 C 426.89687,353.45934 427.61457,357.78163 428.86603,373.74538 C 430.11749,389.18579 437.27738,396.25751 455.53264,396.25751 C 474.32356,396.25561 481.65694,387.74566 481.65694,374.79206 L 474.49705,374.79206 C 473.96234,379.24708 472.88722,384.47858 468.41323,384.47668 C 464.12128,384.47668 463.04426,383.04034 457.49611,370.34083 C 453.38619,361.31607 448.3718,352.8118 426.5385,350.71465 L 426.5385,350.45298 C 446.58278,350.18752 469.84104,345.87092 469.84104,328.73061 C 469.84104,313.54428 454.45846,304.64941 424.03273,304.64941 L 361.39886,304.64752 L 361.39886,309.88565 C 374.64352,309.88565 378.93737,311.97996 378.93737,318.52265 L 378.93832,380.81236 C 378.93832,386.36999 375.81724,388.7127 366.76973,389.29102 C 359.21828,388.59513 355.69617,386.50462 352.38453,380.68531 L 308.75206,303.08034 L 308.75206,303.08034 z"
         id="_68160208"
         style="fill:#005595" />
      <path
         d="M 336.03397,440.74609 C 336.92042,440.74609 337.76516,439.7326 337.76516,438.7191 L 337.76516,419.80304 C 337.76516,418.79049 336.92042,417.73528 336.03397,417.73528 L 333.71118,417.73528 C 332.86739,417.73528 331.97998,418.79144 331.97998,419.80399 L 331.98093,438.71815 C 331.98093,439.73165 332.86739,440.74609 333.71118,440.74609 L 336.03397,440.74609 L 336.03397,440.74609 z M 332.10797,412.33028 C 332.10797,413.80928 333.24662,415.11763 334.89343,415.11763 C 336.58291,415.11668 337.7225,413.80928 337.7225,412.33123 C 337.7225,410.7688 336.58291,409.37607 334.89343,409.37607 C 333.24757,409.37512 332.10703,410.7688 332.10703,412.33123 L 332.10797,412.33028 L 332.10797,412.33028 z"
         id="_68263568"
         style="fill:#000000" />
      <path
         d="M 359.59372,440.74609 C 360.43751,440.74609 361.28225,439.77526 361.28225,438.80348 L 361.28225,427.10798 C 361.19787,422.46335 358.32709,417.48214 351.82517,417.48214 C 350.3054,417.48119 348.91172,417.90404 347.64509,418.66439 C 347.30757,418.15717 346.84301,417.81966 346.37845,417.81966 L 343.84519,417.81966 C 342.95873,417.81966 342.32542,418.83315 342.32542,419.80399 L 342.32542,438.80253 C 342.32542,439.77336 342.95873,440.74609 343.84519,440.74609 L 346.37845,440.74609 C 347.18148,440.74609 348.02527,439.77526 348.02527,438.80348 L 348.02527,427.52988 C 348.02527,425.62993 349.16486,423.73093 351.82517,423.73093 C 354.35843,423.72903 355.49802,425.67354 355.49802,427.53083 L 355.49897,438.80253 C 355.49897,439.77336 356.3001,440.74609 357.14483,440.74609 L 359.59372,440.74609 L 359.59372,440.74609 z"
         id="_67024440"
         style="fill:#000000" />
      <path
         d="M 365.33718,431.16102 C 365.33718,435.80566 368.75595,440.91485 375.1735,440.91485 C 378.2557,440.9139 380.66287,439.77526 382.09826,438.63472 C 382.85767,437.74732 383.11176,436.65039 382.6472,435.89098 C 382.26702,435.13062 381.38057,433.94837 381.0421,433.56819 C 380.45145,432.97659 379.565,432.97754 378.88902,433.4421 C 378.04523,434.07446 376.65155,434.70873 375.38492,434.70873 C 372.59851,434.70683 371.3736,432.97754 371.3736,431.07759 L 371.37455,427.19331 C 371.37455,425.37774 372.64023,423.68921 375.1735,423.68921 C 376.69327,423.68826 378.08694,424.27986 378.8473,424.87147 C 379.73375,425.58821 380.83163,425.16632 381.3379,424.32253 L 381.33885,424.36329 L 382.43673,422.84353 C 382.98472,421.7466 382.77329,420.4373 382.18264,419.88836 C 380.62116,418.6625 378.42446,417.48214 375.42663,417.48214 C 368.54548,417.48119 365.33623,422.46429 365.33623,427.10893 L 365.33718,431.16102 L 365.33718,431.16102 z"
         id="_68094776"
         style="fill:#000000" />
      <path
         d="M 406.206,427.23408 C 406.206,422.59134 402.95504,417.48214 396.45312,417.48214 C 389.86682,417.48119 386.48881,422.46429 386.4471,427.10893 L 386.4471,431.16102 C 386.4471,435.80566 389.78244,440.91485 396.2417,440.91485 C 402.95504,440.9139 406.206,435.8066 406.206,431.16197 L 406.206,427.23408 z M 396.28531,434.75044 C 393.66767,434.75044 392.4418,432.97754 392.4418,431.1193 L 392.44275,427.19331 C 392.48446,425.41851 393.66672,423.73093 396.28436,423.73093 C 398.98639,423.72903 400.25302,425.46212 400.25302,427.32035 L 400.25397,431.16102 C 400.12692,433.01925 398.94372,434.75044 396.28436,434.75044 L 396.28531,434.75044 L 396.28531,434.75044 z"
         id="_68147184"
         style="fill:#000000" />
      <path
         d="M 414.52445,440.74609 C 415.41185,440.74609 416.25564,439.7326 416.25564,438.7191 L 416.25564,427.27769 C 416.25564,425.29241 418.15559,423.60483 420.09725,423.60483 C 420.60542,423.60294 421.53359,423.73093 422.08253,423.89968 C 423.13869,424.27892 423.64401,423.60483 424.10857,422.76009 L 424.99503,420.39559 C 425.29177,419.33848 425.16473,418.66439 424.15124,418.19984 C 423.01165,417.69167 421.27951,417.48214 420.05554,417.48214 C 418.66281,417.48119 417.26913,417.9467 415.95984,418.74877 C 415.66498,418.11546 415.11605,417.69356 414.52445,417.69356 L 412.20355,417.69167 C 411.31615,417.69167 410.47141,418.74877 410.47141,419.76227 L 410.47141,438.71815 C 410.47141,439.73165 411.31615,440.74609 412.2026,440.74609 L 414.52445,440.74609 L 414.52445,440.74609 z"
         id="_68067336"
         style="fill:#000000" />
      <path
         d="M 437.53526,434.75044 C 434.96123,434.75044 433.94678,433.01925 433.94678,431.16197 L 433.94678,427.23408 C 433.94678,425.33413 434.8759,423.77359 437.57793,423.77359 C 440.19557,423.77264 441.12374,425.5465 441.12374,427.36207 L 441.12469,431.16102 C 441.12469,433.01925 440.06853,434.75044 437.53526,434.75044 L 437.53526,434.75044 L 437.53526,434.75044 z M 428.53326,448.60851 L 433.44335,448.60851 C 433.73821,448.24634 433.94678,447.81117 433.94678,447.41677 L 433.94678,440.36591 C 435.002,440.74609 436.14253,440.95751 437.53526,440.95751 C 444.20689,440.95657 447.03501,435.9327 447.07767,431.20368 L 447.07767,427.10798 C 447.03501,422.46335 444.16423,417.48214 437.57793,417.48214 C 436.05816,417.48119 434.5801,417.81966 433.31347,418.45297 C 433.01862,418.03108 432.55311,417.73528 432.17293,417.73528 L 429.85203,417.73528 C 428.83759,417.73528 428.16256,418.9602 428.16256,419.80399 L 428.16256,447.41583 C 428.16256,447.81023 428.29624,448.24634 428.53326,448.60851 L 428.53326,448.60851 z"
         id="_68120424"
         style="fill:#000000" />
      <path
         d="M 471.01761,427.23408 C 471.01761,422.59134 467.76664,417.48214 461.26472,417.48214 C 454.67842,417.48119 451.30041,422.46429 451.25775,427.10893 L 451.2587,431.16102 C 451.2587,435.80566 454.59309,440.91485 461.0533,440.91485 C 467.76664,440.9139 471.01761,435.8066 471.01761,431.16197 L 471.01761,427.23408 L 471.01761,427.23408 z M 461.09596,434.75044 C 458.47832,434.75044 457.2534,432.97754 457.2534,431.1193 L 457.2534,427.19331 C 457.29606,425.41851 458.47737,423.73093 461.09596,423.73093 C 463.79799,423.72903 465.06462,425.46212 465.06462,427.32035 L 465.06557,431.16102 C 464.93853,433.01925 463.75532,434.75044 461.09596,434.75044 L 461.09596,434.75044 L 461.09596,434.75044 z"
         id="_56698168"
         style="fill:#000000" />
      <path
         d="M 479.33605,440.74609 C 480.22345,440.74609 481.06724,439.7326 481.06724,438.7191 L 481.06724,427.27769 C 481.06724,425.29241 482.96719,423.60483 484.90885,423.60483 C 485.41702,423.60294 486.34424,423.73093 486.89318,423.89968 C 487.94934,424.27892 488.45561,423.60483 488.92017,422.76009 L 489.80663,420.39559 C 490.10338,419.33848 489.97538,418.66439 488.96189,418.19984 C 487.82325,417.69167 486.09111,417.48214 484.86714,417.48214 C 483.47441,417.48119 482.07979,417.9467 480.77144,418.74877 C 480.47659,418.11546 479.9267,417.69356 479.33605,417.69356 L 477.0142,417.69167 C 476.12775,417.69167 475.28301,418.74877 475.28301,419.76227 L 475.28301,438.71815 C 475.28301,439.73165 476.1268,440.74609 477.0142,440.74609 L 479.33605,440.74609 L 479.33605,440.74609 z"
         id="_33652040"
         style="fill:#000000" />
      <path
         d="M 508.84973,440.74609 C 509.65181,440.74609 510.4956,439.77526 510.4956,438.88786 L 510.4956,425.62993 C 510.4956,421.11233 507.58215,417.44043 501.41775,417.44043 C 498.33649,417.44043 495.7179,418.32688 494.15641,419.63523 C 493.43872,420.35197 493.31167,421.28204 493.81795,422.0424 L 493.8189,421.99879 L 494.70535,423.47684 C 495.42304,424.36329 496.09808,424.49129 496.77406,424.15282 C 497.78755,423.39246 499.85626,422.76009 501.37603,422.76009 C 504.03634,422.7582 505.00717,424.57566 505.04889,426.09543 C 503.86663,425.5446 502.4739,425.1246 501.08023,425.1246 C 494.66363,425.12365 491.70752,428.24852 491.70752,432.97754 C 491.70752,437.7056 494.53659,440.91485 500.95319,440.91485 C 502.39047,440.9139 503.78225,440.53467 505.13327,439.85964 C 505.42907,440.36591 505.93534,440.74609 506.44256,440.74609 L 508.84973,440.74609 L 508.84973,440.74609 z M 501.20727,430.48504 C 503.4874,430.48504 504.88013,431.37339 504.88013,432.89316 C 504.88108,434.32665 503.4874,435.17329 501.20727,435.17329 C 498.88543,435.17139 497.44909,434.32855 497.44909,432.89316 C 497.45004,431.37149 498.88448,430.48599 501.20727,430.48599 L 501.20727,430.48504 L 501.20727,430.48504 z"
         id="_57647800"
         style="fill:#000000" />
      <path
         d="M 527.93361,436.77649 C 527.93361,435.80566 527.04715,434.87749 526.11804,434.87749 C 524.09199,434.9192 522.86708,433.73695 522.86708,431.96404 L 522.86708,422.96962 L 526.03461,422.96962 C 526.92106,422.96962 527.80751,421.95802 527.80751,420.94452 L 527.80751,419.80304 C 527.80751,418.79049 526.92106,417.73528 526.03366,417.73528 L 522.86708,417.73528 L 522.86708,415.03231 C 522.86708,414.06147 521.98062,413.00721 521.09417,413.00721 L 518.77232,413.00531 C 517.92759,413.00531 517.08285,414.06242 517.08285,415.03325 L 517.0838,417.73528 L 514.29739,417.73528 C 513.36733,417.73528 512.56525,418.79144 512.56525,419.80399 L 512.5662,420.94263 C 512.5662,421.95707 513.36733,422.97057 514.29644,422.97057 L 517.0838,422.96962 L 517.0838,433.99008 C 517.12551,438.59206 519.82754,440.87314 525.94928,440.87314 C 527.30124,440.87219 527.93361,439.81698 527.93361,438.50863 L 527.93361,436.77649 L 527.93361,436.77649 z"
         id="_57647728"
         style="fill:#000000" />
      <path
         d="M 547.27157,434.07446 C 546.63825,433.48381 545.53943,433.27334 544.82173,433.73695 C 544.0206,434.41198 542.41551,434.79311 541.14887,434.79311 C 538.61656,434.79121 536.9688,432.89316 537.13755,431.24635 L 549.21418,431.2454 C 550.05797,431.2454 550.94442,430.27551 550.94442,429.21935 L 550.94442,427.10798 C 550.86004,422.46335 547.56642,417.48214 541.19154,417.48214 C 534.60524,417.48119 531.22723,422.46429 531.18457,427.10893 L 531.18457,431.16102 C 531.18457,435.80566 534.47819,440.91485 540.98012,440.91485 C 543.93528,440.9139 546.34245,439.77526 547.9466,438.59301 C 548.49648,438.00141 548.79039,436.81915 548.36849,436.01708 L 547.27157,434.07446 L 547.27157,434.07446 z M 541.02278,423.054 C 542.88007,423.054 544.48422,424.02673 544.56859,425.46212 L 544.56859,426.43295 L 537.47602,426.43295 L 537.47602,425.46212 C 537.5604,424.02673 539.16455,423.05589 541.02183,423.05589 L 541.02278,423.054 z"
         id="_57654824"
         style="fill:#000000" />
      <path
         d="M 564.41378,434.70683 C 561.92222,434.70683 560.78263,432.97754 560.78263,431.1193 L 560.78358,427.3194 C 560.78358,425.46212 561.75347,423.73093 564.37111,423.73093 C 567.03142,423.72903 567.95959,425.29336 567.95959,427.19331 L 567.96054,431.1193 C 567.96054,432.97659 566.98876,434.70873 564.41378,434.70873 L 564.41378,434.70683 L 564.41378,434.70683 z M 572.05624,440.70248 C 573.11145,440.70248 573.78648,439.6065 573.78648,438.7191 L 573.78743,410.81051 C 573.78743,410.00844 573.1105,408.78447 572.05529,408.78447 L 569.69173,408.78352 C 569.05841,408.78352 567.95959,410.00939 567.95959,410.81146 L 567.96054,418.11546 C 566.86266,417.6509 565.63774,417.44043 564.37111,417.44043 C 557.74309,417.44043 554.82965,422.42258 554.78699,427.06627 L 554.78699,431.16102 C 554.82965,435.89003 557.74215,440.91485 564.41378,440.91485 C 565.97526,440.9139 567.36894,440.66171 568.59291,440.07011 C 568.93137,440.40763 569.39593,440.70343 569.69078,440.70343 L 572.05624,440.70248 L 572.05624,440.70248 z"
         id="_67969144"
         style="fill:#000000" />
    </g>
  </g>
</svg>
