<svg xmlns="http://www.w3.org/2000/svg" xmlns:xlink="http://www.w3.org/1999/xlink" version="1.1" id="Livello_1" x="0px" y="0px" viewBox="0 0 375.6 78" style="enable-background:new 0 0 375.6 78;" xml:space="preserve" width="375.6"  height="78" >
<style type="text/css">
	.st0{fill:#2E2D30;stroke:#2E2D30;stroke-width:0.5;stroke-miterlimit:10;}
</style>
<g>
	<path class="st0" d="M29.6,34.1C28,36,25.5,36.9,22,36.9h-8.2v-0.7h2.8V18.8h-2.8v-0.7h8.5c3,0,5.4,0.9,7.1,2.7   c1.7,1.8,2.5,4,2.5,6.7C32,30.1,31.2,32.3,29.6,34.1 M26.9,20.5c-0.8-1.1-2.7-1.7-5.5-1.7h-1.3v17.3h1.9c2.4,0,4-0.7,4.8-2.1   c0.8-1.4,1.2-3.8,1.2-7.1C28.1,23.8,27.7,21.6,26.9,20.5"/>
	<polygon class="st0" points="33.5,36.9 33.5,36.2 36.3,36.2 36.3,18.8 33.5,18.8 33.5,18.1 42.6,18.1 42.6,18.8 39.9,18.8    39.9,36.2 42.6,36.2 42.6,36.9  "/>
	<path class="st0" d="M55.7,35.5c-1.1,1.2-2.5,1.7-4.2,1.7c-0.8,0-1.5-0.1-2.2-0.4c-0.7-0.3-1.3-0.6-1.9-1.1L46.2,37h-0.5v-5.6h0.8   c0.3,1.4,0.8,2.6,1.7,3.6c0.9,1,2,1.5,3.4,1.5c1.2,0,2.2-0.4,3-1.1c0.8-0.8,1.2-1.7,1.2-2.8c0-1.2-0.5-2-1.4-2.6   c-1-0.6-2.2-1.1-3.6-1.5c-1.8-0.5-3-1.1-3.8-2c-0.8-0.9-1.2-2.1-1.2-3.6c0-1.5,0.5-2.8,1.4-3.8c1-1,2.2-1.5,3.7-1.5   c0.8,0,1.5,0.1,2.2,0.3c0.7,0.2,1.3,0.6,1.9,1l1.1-1.1h0.5v5.3h-0.9c-0.2-1.4-0.7-2.5-1.5-3.5c-0.9-0.9-2-1.4-3.3-1.4   c-1,0-1.8,0.3-2.5,1c-0.7,0.6-1,1.4-1,2.3c0,1.1,0.4,1.8,1.1,2.1c0.7,0.4,1.8,0.7,3.2,1.1c2.2,0.6,3.7,1.3,4.5,2.2   c0.8,1,1.3,2.3,1.3,4C57.4,32.9,56.8,34.4,55.7,35.5"/>
	<path class="st0" d="M75.3,24.1c-0.3-2.2-0.9-3.6-1.7-4.3c-0.9-0.7-1.9-1-3.2-1h-0.7v17.3h2.9v0.7h-9.4v-0.7h2.9V18.8h-0.8   c-1.2,0-2.3,0.3-3.2,1c-0.8,0.7-1.4,2.1-1.7,4.3h-0.9l0.3-6h16.1l0.3,6H75.3z"/>
	<polygon class="st0" points="78.5,36.9 78.5,36.2 81.3,36.2 81.3,18.8 78.5,18.8 78.5,18.1 87.6,18.1 87.6,18.8 84.8,18.8    84.8,36.2 87.6,36.2 87.6,36.9  "/>
	<path class="st0" d="M104.7,36.9H89.2v-0.7h2.8V18.8h-2.8v-0.7h9.3v0.7h-2.9v17.3h3.6c1.7,0,2.9-0.5,3.7-1.5c0.8-1,1.2-2.3,1.3-4.1   h0.9L104.7,36.9z"/>
	<path class="st0" d="M121.8,36.9h-15.5v-0.7h2.8V18.8h-2.8v-0.7h9.3v0.7h-2.9v17.3h3.6c1.7,0,2.9-0.5,3.7-1.5   c0.8-1,1.2-2.3,1.3-4.1h0.9L121.8,36.9z"/>
	<path class="st0" d="M138.6,36.9h-15.9v-0.7h2.8V18.8h-2.8v-0.7h15.4l0.2,5h-0.8c-0.4-1.8-1-3-1.8-3.5c-0.8-0.6-1.9-0.8-3.5-0.8   H129v8h0.8c1.4,0,2.4-0.3,2.8-1c0.5-0.7,0.7-1.5,0.7-2.4h0.8v7.8h-0.8c0-1-0.2-1.9-0.7-2.6c-0.5-0.7-1.4-1.1-2.8-1.1H129v8.6h3.8   c1.8,0,3.1-0.4,3.8-1.3c0.7-0.9,1.2-2.2,1.5-4h0.8L138.6,36.9z"/>
	<path class="st0" d="M155.9,37.2c-0.8,0-1.5-0.1-2-0.4c-1.1-0.5-1.8-1.4-2-2.7l-0.1-1.2c-0.1-0.9-0.1-1.7-0.3-2.4s-0.3-1.3-0.6-1.8   c-0.6-1-1.6-1.5-2.9-1.5h-1.5v8.9h2.8v0.7h-9.1v-0.7h2.8V18.8h-2.8v-0.7h9.9c2.1,0,3.6,0.3,4.6,1c1,0.7,1.6,1.7,1.6,3.2   c0,1.2-0.5,2.2-1.5,3c-1,0.8-2.5,1.3-4.5,1.6c2.3,0.5,3.8,1.3,4.4,2.5c0.3,0.6,0.6,1.3,0.7,2c0.1,0.7,0.2,1.5,0.2,2.4l0,1.4   c0.1,0.4,0.3,0.7,0.7,0.9c0.2,0.1,0.5,0.1,0.9,0.1c0.3,0,0.7,0,1.2-0.1v0.6C157.5,37.1,156.7,37.2,155.9,37.2 M151.7,19.8   c-0.5-0.6-1.3-0.9-2.5-0.9h-2.7v7.7h2.4c1.2,0,2.1-0.3,2.7-0.9c0.6-0.6,0.8-1.6,0.8-2.9C152.4,21.4,152.2,20.4,151.7,19.8"/>
	<polygon class="st0" points="160,36.9 160,36.2 162.8,36.2 162.8,18.8 160,18.8 160,18.1 169.2,18.1 169.2,18.8 166.4,18.8    166.4,36.2 169.2,36.2 169.2,36.9  "/>
	<path class="st0" d="M179.8,36.9v-0.7h2.9l-1.7-5H175l-1.7,5h2.9v0.7h-5.9v-0.7h2.2l6.7-18.4h1l6.4,18.4h2.2v0.7H179.8z    M178.1,22.7l-2.8,7.8h5.4L178.1,22.7z"/>
</g>
<g>
	<polygon class="st0" points="216,36.9 216,36.2 218.8,36.2 218.8,19.1 213.1,36.9 212.1,36.9 206.4,19.1 206.4,36.2 209.2,36.2    209.2,36.9 202.8,36.9 202.8,36.2 205.6,36.2 205.6,18.9 202.8,18.9 202.8,18.2 210,18.2 214,31 218,18.2 225.1,18.2 225.1,18.9    222.3,18.9 222.3,36.2 225.1,36.2 225.1,36.9  "/>
	<path class="st0" d="M235.4,36.9v-0.7h2.9l-1.7-5h-6.1l-1.7,5h2.9v0.7h-5.9v-0.7h2.2l6.7-18.4h1l6.4,18.4h2.2v0.7H235.4z    M233.7,22.7l-2.8,7.8h5.4L233.7,22.7z"/>
	<path class="st0" d="M261.3,37.2c-0.8,0-1.5-0.1-2-0.4c-1.1-0.5-1.8-1.4-2-2.8l-0.1-1.2c-0.1-0.9-0.1-1.7-0.3-2.4   c-0.1-0.7-0.3-1.3-0.6-1.8c-0.6-1-1.6-1.5-2.9-1.5h-1.5v8.9h2.8v0.7h-9.1v-0.7h2.8V18.9h-2.8v-0.7h9.9c2.1,0,3.6,0.3,4.6,1   c1,0.6,1.6,1.7,1.6,3.2c0,1.2-0.5,2.2-1.5,3c-1,0.8-2.5,1.3-4.5,1.6c2.3,0.5,3.8,1.3,4.4,2.5c0.3,0.6,0.5,1.3,0.7,2   c0.1,0.7,0.2,1.5,0.2,2.4l0,1.4c0.1,0.4,0.3,0.7,0.7,0.9c0.2,0.1,0.5,0.1,0.9,0.1c0.3,0,0.7,0,1.2-0.1v0.6   C262.9,37.1,262.1,37.2,261.3,37.2 M257.1,19.8c-0.5-0.6-1.3-0.9-2.5-0.9h-2.7v7.7h2.4c1.2,0,2.1-0.3,2.7-0.9   c0.6-0.6,0.8-1.6,0.8-2.9C257.8,21.4,257.6,20.4,257.1,19.8"/>
	<path class="st0" d="M280.4,36.9h-14.7v-0.8l10.9-17.3h-3.7c-1.3,0-2.5,0.2-3.4,0.7c-0.9,0.5-1.6,1.7-2,3.6h-0.9l0.4-5h13.5V19   l-10.8,17.2h4.5c1.3,0,2.5-0.2,3.4-0.7c0.9-0.5,1.6-2,2.2-4.6h0.8L280.4,36.9z"/>
	<path class="st0" d="M291.4,36.9v-0.7h2.9l-1.7-5h-6.1l-1.7,5h2.9v0.7h-5.9v-0.7h2.2l6.7-18.4h1l6.4,18.4h2.2v0.7H291.4z    M289.7,22.7l-2.8,7.8h5.4L289.7,22.7z"/>
	<path class="st0" d="M316.8,34.2c-1.6,1.8-4.1,2.7-7.5,2.7h-8.2v-0.7h2.8V18.9h-2.8v-0.7h8.5c3,0,5.4,0.9,7.1,2.7   c1.7,1.8,2.5,4,2.5,6.7C319.2,30.1,318.4,32.3,316.8,34.2 M314.2,20.5c-0.8-1.1-2.7-1.7-5.5-1.7h-1.3v17.3h1.9c2.4,0,4-0.7,4.8-2.1   c0.8-1.4,1.2-3.8,1.2-7.1C315.4,23.8,315,21.6,314.2,20.5"/>
	<path class="st0" d="M336.5,37.2c-0.8,0-1.5-0.1-2-0.4c-1.1-0.5-1.8-1.4-2-2.8l-0.1-1.2c-0.1-0.9-0.1-1.7-0.3-2.4   c-0.1-0.7-0.3-1.3-0.6-1.8c-0.6-1-1.6-1.5-2.9-1.5h-1.5v8.9h2.8v0.7h-9.1v-0.7h2.8V18.9h-2.8v-0.7h9.9c2.1,0,3.6,0.3,4.6,1   c1,0.6,1.6,1.7,1.6,3.2c0,1.2-0.5,2.2-1.5,3c-1,0.8-2.5,1.3-4.5,1.6c2.3,0.5,3.8,1.3,4.4,2.5c0.3,0.6,0.5,1.3,0.7,2   c0.1,0.7,0.2,1.5,0.2,2.4l0,1.4c0.1,0.4,0.3,0.7,0.7,0.9c0.2,0.1,0.5,0.1,0.9,0.1c0.3,0,0.7,0,1.2-0.1v0.6   C338.1,37.1,337.2,37.2,336.5,37.2 M332.3,19.8c-0.5-0.6-1.3-0.9-2.5-0.9h-2.7v7.7h2.4c1.2,0,2.1-0.3,2.7-0.9   c0.6-0.6,0.8-1.6,0.8-2.9C333,21.4,332.7,20.4,332.3,19.8"/>
	<path class="st0" d="M355.1,34.4c-1.8,2-3.8,2.9-6.1,2.9c-2.3,0-4.3-1-6.1-2.9c-1.8-1.9-2.6-4.2-2.6-6.9c0-2.6,0.9-4.9,2.6-6.8   c1.8-2,3.8-2.9,6.1-2.9c2.3,0,4.3,1,6.1,2.9c1.8,1.9,2.6,4.2,2.6,6.9C357.7,30.2,356.8,32.4,355.1,34.4 M353.6,24.2   c0-1.8-0.4-3.3-1.1-4.3c-0.8-1-2-1.5-3.5-1.5c-1.6,0-2.7,0.5-3.5,1.5c-0.7,1-1.1,2.4-1.1,4.3v6.7c0,1.9,0.4,3.3,1.1,4.3   c0.7,1,1.9,1.5,3.5,1.5c1.6,0,2.7-0.5,3.5-1.5c0.8-1,1.2-2.4,1.2-4.3V24.2z"/>
</g>
<path class="st0" d="M127.2,65.7c0-0.2-0.1-0.4-0.1-0.7c0-0.2-0.2-0.2-0.3-0.2c-0.1,0-0.4,0.1-0.7,0.3c-0.9,0.5-1.8,0.7-2.9,0.7  c-3.2,0-4.9-2-4.9-4.7c0-2.3,0.7-4.8,2.4-6.5c1.3-1.3,2.9-1.9,5-1.9c1.4,0,2.6,0.2,3.3,0.6c0.3,0.2,0.4,0.4,0.4,0.8  c0,0.6-0.3,1.7-0.5,2.5h-0.4c0-0.8,0-1.8-0.5-2.5c-0.4-0.6-1.3-0.8-2.4-0.8c-1.7,0-2.9,0.7-3.9,2c-1.3,1.6-1.8,3.8-1.8,5.9  c0,2.8,1.5,4.1,3.5,4.1c0.9,0,2.1-0.2,2.8-0.9c0.2-0.3,0.4-0.8,0.6-1.4c0.4-1.6,0.4-2,0.4-2.2c0-0.2,0-0.4-0.2-0.5  c-0.2-0.1-0.6-0.2-1.5-0.3l0.1-0.4c0.6,0,2,0.1,2.5,0.1c0.5,0,1.3,0,2-0.1l-0.1,0.4c-0.7,0.1-1,0.2-1.1,0.3  c-0.1,0.2-0.2,0.6-0.4,1.2c-0.3,1.2-0.7,3.1-0.8,4.3H127.2z"/>
<path class="st0" d="M131.2,65.5l1-3.7c0.4-1.4,0.5-2.8,0.5-3.6c0-0.5-0.2-0.6-0.5-0.6c-0.2,0-0.6,0.1-0.9,0.2l-0.1-0.3  c0.7-0.5,1.7-0.7,2.3-0.7c0.4,0,0.6,0.2,0.6,0.6c0,0.7-0.3,1.8-0.5,2.7l0.1,0c0.5-1.5,1.9-3.4,3.7-3.4c0.5,0,0.8,0.1,0.8,0.7  c0,0.3-0.2,0.9-0.5,1.6l-0.3,0c0-1-0.3-1.2-0.7-1.2c-0.7,0-1.5,0.6-2.3,2c-0.3,0.6-0.8,1.8-1,2.6c-0.3,1.3-0.7,2.6-0.7,3L131.2,65.5  z"/>
<path class="st0" d="M144.6,65.6c-0.6,0-1-0.2-1-0.9c0-0.4,0.2-1.3,0.4-1.8l-0.1,0c-0.8,1.6-2.2,2.8-3.7,2.8c-1.4,0-2.2-0.8-2.2-2.3  c0-1.5,0.8-3.8,2.2-5.2c0.9-0.9,2.1-1.4,3.3-1.4c0.8,0,1.3,0.2,1.7,0.5c0.1,0.1,0.2,0.2,0.3,0.2c0.1,0,0.2-0.1,0.3-0.2  c0.2-0.2,0.2-0.3,0.3-0.5l0.5,0c-0.6,2-1.1,3.8-1.6,5.8c-0.1,0.4-0.2,1-0.2,1.5c0,0.5,0.2,0.7,0.5,0.7c0.5,0,1.4-0.6,2-2.1l0.3,0.1  C146.8,64.8,145.6,65.6,144.6,65.6 M144.7,58.6c0-0.8-0.4-1.3-1.4-1.3c-0.8,0-1.7,0.4-2.4,1.3c-1,1.1-1.7,3.1-1.7,4.7  c0,1.2,0.5,1.5,1.3,1.5c1.5,0,3.3-2,3.9-4.5C144.5,59.9,144.7,59.2,144.7,58.6"/>
<path class="st0" d="M148.4,69.6c-0.4,0-1.1,0-2,0.1l0.1-0.3c1-0.2,1.1-0.3,1.3-0.4c0.2-0.1,0.4-0.6,0.7-1.7l1.6-5.9  c0.4-1.4,0.5-2.7,0.5-3.1c0-0.4-0.2-0.6-0.4-0.6c-0.2,0-0.7,0.1-1,0.2l-0.1-0.3c0.7-0.4,1.7-0.7,2.3-0.7c0.4,0,0.7,0.1,0.7,0.6  c0,0.5-0.4,1.6-0.7,2.5l0.1,0c0.6-1.5,2.1-3.2,3.9-3.2c1.2,0,2.1,0.6,2.1,2.6c0,1.3-0.6,3.2-1.7,4.5c-0.9,1.1-2.1,1.6-3.3,1.6  c-0.7,0-1.6-0.2-2-1.2c-0.4,1.5-0.5,2.1-0.7,2.8c-0.3,1-0.3,1.3-0.3,1.6c0,0.1,0.1,0.3,0.3,0.4c0.4,0.1,0.7,0.2,1.4,0.3l-0.1,0.3  C150,69.6,148.8,69.6,148.4,69.6 M152.3,65c0.8,0,1.7-0.4,2.5-1.5c0.7-1.1,1.3-2.9,1.3-4.1c0-1.5-0.6-1.8-1.3-1.8  c-1,0-2.1,0.9-2.9,2.3c-0.5,0.9-1,2.2-1,3.2C150.7,64.3,151.1,65,152.3,65"/>
<path class="st0" d="M158.6,69.6c-0.4,0-1.1,0-2,0.1l0.1-0.3c1-0.2,1.1-0.3,1.3-0.4c0.2-0.1,0.4-0.6,0.7-1.7l1.6-5.9  c0.4-1.4,0.5-2.7,0.5-3.1c0-0.4-0.2-0.6-0.4-0.6c-0.2,0-0.7,0.1-1,0.2l-0.1-0.3c0.7-0.4,1.7-0.7,2.3-0.7c0.4,0,0.7,0.1,0.7,0.6  c0,0.5-0.4,1.6-0.7,2.5l0.1,0c0.6-1.5,2.1-3.2,3.9-3.2c1.2,0,2.1,0.6,2.1,2.6c0,1.3-0.6,3.2-1.7,4.5c-0.9,1.1-2.1,1.6-3.3,1.6  c-0.7,0-1.6-0.2-2-1.2c-0.4,1.5-0.5,2.1-0.7,2.8c-0.3,1-0.3,1.3-0.3,1.6c0,0.1,0.1,0.3,0.3,0.4c0.4,0.1,0.7,0.2,1.4,0.3l-0.1,0.3  C160.2,69.6,159.1,69.6,158.6,69.6 M162.5,65c0.8,0,1.7-0.4,2.4-1.5c0.7-1.1,1.3-2.9,1.3-4.1c0-1.5-0.6-1.8-1.4-1.8  c-1,0-2.1,0.9-2.9,2.3c-0.5,0.9-1,2.2-1,3.2C161,64.3,161.4,65,162.5,65"/>
<path class="st0" d="M175.7,65.6c-0.6,0-1-0.2-1-0.9c0-0.4,0.2-1.3,0.4-1.8l-0.1,0c-0.8,1.6-2.2,2.8-3.7,2.8c-1.4,0-2.2-0.8-2.2-2.3  c0-1.5,0.8-3.8,2.2-5.2c0.9-0.9,2.1-1.4,3.3-1.4c0.8,0,1.3,0.2,1.7,0.5c0.2,0.1,0.2,0.2,0.3,0.2c0.1,0,0.2-0.1,0.3-0.2  c0.1-0.2,0.2-0.3,0.3-0.5l0.5,0c-0.6,2-1.1,3.8-1.6,5.8c-0.1,0.4-0.2,1-0.2,1.5c0,0.5,0.2,0.7,0.5,0.7c0.5,0,1.4-0.6,2-2.1l0.3,0.1  C178,64.8,176.7,65.6,175.7,65.6 M175.8,58.6c0-0.8-0.4-1.3-1.4-1.3c-0.8,0-1.6,0.4-2.4,1.3c-1,1.1-1.7,3.1-1.7,4.7  c0,1.2,0.5,1.5,1.3,1.5c1.5,0,3.3-2,3.9-4.5C175.6,59.9,175.8,59.2,175.8,58.6"/>
<path class="st0" d="M190.7,65.6c-0.6,0-1.1-0.2-1.1-1c0-0.4,0.2-1.1,0.4-1.7l-0.1,0c-0.7,1.5-2.2,2.8-3.7,2.8  c-1.5,0-2.4-0.8-2.4-2.5c0-2.8,2.2-6.4,5.2-6.4c0.7,0,1.6,0.2,2,1.1c0.4-1.6,1-3.9,1-4.6c0-0.4-0.2-0.5-0.5-0.5  c-0.3,0-0.7,0.1-1,0.2l-0.1-0.3c0.9-0.5,1.9-0.8,2.5-0.8c0.4,0,0.6,0.2,0.6,0.6c0,0.2-0.1,0.4-0.2,0.9c-0.4,1.7-1.4,5.5-2.3,9.2  c-0.1,0.3-0.2,1.1-0.2,1.3c0,0.7,0.2,0.8,0.6,0.8c0.4,0,1.3-0.5,2-2.1l0.3,0.2C193.1,64.4,191.9,65.6,190.7,65.6 M190.6,58.9  c0-1.2-0.7-1.5-1.5-1.5c-2.2,0-3.9,3.5-3.9,5.8c0,1.4,0.6,1.8,1.3,1.8c1.6,0,3.1-1.9,3.8-4.1C190.5,60,190.6,59.2,190.6,58.9"/>
<path class="st0" d="M201.2,65.6c-0.6,0-1-0.2-1-0.9c0-0.4,0.2-1.3,0.4-1.8l-0.1,0c-0.8,1.6-2.2,2.8-3.7,2.8c-1.4,0-2.2-0.8-2.2-2.3  c0-1.5,0.8-3.8,2.2-5.2c0.9-0.9,2.1-1.4,3.3-1.4c0.8,0,1.3,0.2,1.7,0.5c0.1,0.1,0.2,0.2,0.3,0.2c0.1,0,0.2-0.1,0.3-0.2  c0.1-0.2,0.2-0.3,0.3-0.5l0.5,0c-0.6,2-1.1,3.8-1.6,5.8c-0.1,0.4-0.2,1-0.2,1.5c0,0.5,0.2,0.7,0.5,0.7c0.5,0,1.4-0.6,2-2.1l0.3,0.1  C203.5,64.8,202.3,65.6,201.2,65.6 M201.3,58.6c0-0.8-0.4-1.3-1.4-1.3c-0.8,0-1.6,0.4-2.4,1.3c-1,1.1-1.7,3.1-1.7,4.7  c0,1.2,0.5,1.5,1.3,1.5c1.5,0,3.3-2,3.9-4.5C201.1,59.9,201.3,59.2,201.3,58.6"/>
<path class="st0" d="M206.5,65.6c-0.6,0-1-0.4-1-0.9c0-0.5,0.2-1.3,0.4-2c1.2-4.4,1.7-6.6,2-8.1c0.1-0.6,0.2-1.1,0.2-1.4  c0-0.3-0.1-0.5-0.5-0.5c-0.2,0-0.7,0.1-1,0.2l-0.1-0.3c0.8-0.4,1.7-0.8,2.4-0.8c0.4,0,0.6,0.2,0.6,0.6c0,0.2-0.1,0.5-0.2,0.9  c-0.4,1.8-1.3,5.5-2.2,8.9c-0.2,0.7-0.4,1.5-0.4,1.9c0,0.3,0.1,0.5,0.4,0.5c0.6,0,1.3-0.5,2-1.9l0.3,0.2  C208.6,65.1,207.4,65.6,206.5,65.6"/>
<path class="st0" d="M218,65.4c-0.6,0-1.4,0-2.5,0.1l0.1-0.4c1.3-0.2,1.6-0.3,1.8-0.4c0.2-0.2,0.3-0.6,0.6-1.6l1.9-8.8  c-0.4,0.1-1.1,0.2-2,0.3l0-0.4c1.1-0.2,2.4-0.6,3.6-1.1c-0.2,0.9-0.5,2.2-0.8,3.7l-1.4,6.4c-0.2,0.7-0.2,1.1-0.2,1.4  c0,0.2,0.1,0.4,0.4,0.4c0.2,0.1,0.7,0.2,1.4,0.2l-0.1,0.4C219.8,65.5,218.6,65.4,218,65.4"/>
<path class="st0" d="M225.7,62.5c0,0.8,0.2,1.6,0.5,2.1c0.3,0.4,1,0.6,1.5,0.6c1.1,0,2.3-0.4,3.3-2.2c0.5-0.9,1-2.5,1.4-4l-0.1,0  c-0.7,1.3-1.9,2-3.3,2c-2,0-3.1-1.3-3.1-3c0-1.2,0.3-2.5,1.2-3.5c0.8-1,2.1-1.4,3.4-1.4c1.9,0,3.5,1.1,3.5,3.8  c0,2.3-0.6,4.9-2.1,6.7c-1.1,1.4-2.6,2.1-4.3,2.1c-0.9,0-1.8-0.1-2.2-0.4c-0.3-0.2-0.5-0.4-0.5-0.7c0-0.5,0.1-1.4,0.3-2.1H225.7z   M230.4,53.7c-1,0-1.8,0.4-2.4,1.4c-0.5,0.8-0.7,1.9-0.7,2.9c0,1.3,0.6,2.2,2,2.2c1.2,0,2.2-0.7,2.8-1.9c0.4-0.6,0.4-1.3,0.4-2.1  C232.6,54.7,231.9,53.7,230.4,53.7"/>
<path class="st0" d="M240.3,65.4c-0.5,0-1.3,0-2.4,0.1l0.1-0.4c1.1-0.2,1.5-0.3,1.7-0.4c0.2-0.2,0.3-0.6,0.5-1.5l0.2-1.1h-5.5  l0.1-0.5c2.5-2.8,5.3-5.8,7.7-8.4h0.9c-0.2,1-0.4,1.9-1.7,7.8h2l-0.2,1.1h-2l-0.2,1.1c-0.1,0.4-0.2,0.9-0.2,1.2  c0,0.3,0.1,0.4,0.4,0.5c0.3,0.1,0.7,0.1,1.3,0.2l-0.1,0.4C242,65.4,240.8,65.4,240.3,65.4 M240.7,61c0.1-0.5,1.3-6,1.4-6.2  c-1.4,1.6-4,4.5-5.6,6.2H240.7z"/>
<path class="st0" d="M246.1,62.5c0,0.8,0.2,1.6,0.5,2.1c0.3,0.4,1,0.6,1.5,0.6c1.1,0,2.3-0.4,3.3-2.2c0.5-0.9,1-2.5,1.4-4l-0.1,0  c-0.7,1.3-1.9,2-3.3,2c-2,0-3.1-1.3-3.1-3c0-1.2,0.3-2.5,1.2-3.5c0.8-1,2.1-1.4,3.4-1.4c1.9,0,3.5,1.1,3.5,3.8  c0,2.3-0.6,4.9-2.1,6.7c-1.1,1.4-2.6,2.1-4.3,2.1c-0.9,0-1.8-0.1-2.2-0.4c-0.3-0.2-0.5-0.4-0.5-0.7c0-0.5,0.1-1.4,0.3-2.1H246.1z   M250.9,53.7c-1,0-1.8,0.4-2.4,1.4c-0.5,0.8-0.7,1.9-0.7,2.9c0,1.3,0.6,2.2,2,2.2c1.2,0,2.2-0.7,2.8-1.9c0.4-0.6,0.4-1.3,0.4-2.1  C253,54.7,252.3,53.7,250.9,53.7"/>
</svg>