<!-- Created with Inkscape (http://www.inkscape.org/) -->
<svg width="809.64" height="100" version="1.1" viewBox="0 0 809.64 100" xmlns="http://www.w3.org/2000/svg">
 <g transform="matrix(1.3333 0 0 -1.3333 -769.49 349.8)">
  <g transform="matrix(2.7679 0 0 2.7679 -1020.3 -463.82)">
   <g fill="#ea1d25">
    <path d="m609.76 261.26c-0.719-0.037-1.295-0.135-1.73-0.292-0.435-0.158-0.833-0.42-1.2-0.785-0.277-0.264-0.485-0.557-0.622-0.878-0.14-0.321-0.234-0.728-0.285-1.219-0.088-0.655-0.132-1.43-0.132-2.325v-13.927c0-1.297 0.076-2.261 0.228-2.891 0.151-0.629 0.421-1.133 0.811-1.511 0.693-0.668 1.671-1.033 2.93-1.098v-0.434h-12.076v0.434c0.73 0.039 1.321 0.142 1.767 0.314 0.448 0.17 0.847 0.431 1.2 0.784 0.39 0.401 0.659 0.916 0.804 1.539 0.144 0.624 0.216 1.578 0.216 2.863v16.894l-9.732-22.828h-0.396l-9.675 22.489v-16.555c0-1.297 0.071-2.254 0.217-2.871 0.145-0.619 0.413-1.13 0.804-1.531 0.351-0.368 0.752-0.632 1.2-0.794 0.446-0.164 1.028-0.265 1.747-0.304v-0.434h-8.712v0.434c0.719 0.039 1.301 0.14 1.749 0.304 0.446 0.162 0.847 0.426 1.198 0.794 0.392 0.401 0.659 0.916 0.805 1.539 0.144 0.624 0.217 1.578 0.217 2.863v13.927c0 0.579-0.02 1.128-0.056 1.643-0.063 0.933-0.209 1.614-0.436 2.043-0.314 0.59-0.745 1.029-1.294 1.313-0.546 0.284-1.274 0.449-2.183 0.5v0.435h8.201l8.182-20.199 8.487 20.199h7.766z"/>
    <path d="m634.92 235.9h-10.159v0.355c0.919 0.084 1.557 0.238 1.917 0.464 0.641 0.404 0.959 0.96 0.959 1.67 0 0.424-0.144 0.99-0.432 1.7l-0.263 0.651-1.485 3.649h-6.804l-0.802-2.135-0.387-0.959c-0.463-1.133-0.695-2.024-0.695-2.673 0-0.382 0.084-0.738 0.255-1.067 0.169-0.33 0.4-0.599 0.689-0.805 0.4-0.277 0.916-0.442 1.544-0.495v-0.355h-6.927v0.355c0.546 0.032 1.027 0.167 1.439 0.403 0.413 0.237 0.815 0.619 1.206 1.144 0.329 0.423 0.653 0.967 0.966 1.631 0.314 0.666 0.728 1.662 1.245 2.991l5.659 14.58h0.88l6.726-16.248c0.506-1.228 0.908-2.103 1.207-2.63 0.298-0.526 0.625-0.923 0.974-1.19 0.246-0.186 0.53-0.327 0.85-0.425s0.797-0.182 1.438-0.256zm-9.709 9.122-3.248 8.009-3.06-8.009z"/>
    <path d="m635.24 257h10.19v-0.355c-0.711 0-1.257-0.061-1.64-0.186-0.618-0.196-0.926-0.566-0.926-1.113 0-0.567 0.422-1.462 1.267-2.69l2.707-3.959 2.364 2.923c0.929 1.144 1.532 1.945 1.809 2.403 0.279 0.46 0.417 0.885 0.417 1.277 0 0.546-0.288 0.923-0.866 1.129-0.267 0.103-0.737 0.175-1.406 0.216v0.355h7.097v-0.355c-0.784 0-1.391-0.103-1.825-0.309-0.67-0.309-1.563-1.164-2.675-2.568l-1.175-1.483-3.355-4.159 5.319-7.901c0.938-1.401 1.788-2.417 2.553-3.045 0.39-0.32 0.773-0.547 1.149-0.68 0.377-0.134 0.879-0.217 1.508-0.249v-0.355h-10.745v0.355c0.836 0.093 1.442 0.238 1.823 0.434 0.62 0.309 0.929 0.742 0.929 1.298 0 0.196-0.062 0.422-0.187 0.681-0.122 0.258-0.352 0.644-0.691 1.159l-3.776 5.721-3.68-4.483c-0.566-0.691-0.971-1.266-1.214-1.725-0.241-0.458-0.362-0.885-0.362-1.275 0-0.555 0.208-0.988 0.627-1.29 0.416-0.307 1.036-0.478 1.862-0.52v-0.355h-7.514v0.355c0.568 0.106 1.038 0.25 1.413 0.442 0.378 0.19 0.817 0.522 1.323 0.996 0.743 0.681 1.789 1.84 3.139 3.479l4.02 4.917-4.793 7.189-0.82 1.192c-0.598 0.875-1.102 1.441-1.514 1.699-0.372 0.227-0.999 0.377-1.886 0.449-0.103 0-0.258 0.01-0.466 0.031z"/>
    <path d="m658.43 249.43-0.138 0.325c0.67 0.278 1.2 0.572 1.592 0.88 0.392 0.31 0.725 0.706 1.005 1.192 0.433 0.741 0.679 1.464 0.742 2.164-0.278-0.092-0.519-0.139-0.725-0.139-0.569 0-1.034 0.168-1.394 0.502-0.359 0.336-0.539 0.771-0.539 1.306 0 0.516 0.18 0.958 0.539 1.331 0.36 0.371 0.795 0.556 1.298 0.556 0.62 0 1.12-0.248 1.501-0.743s0.572-1.149 0.572-1.962c0-0.805-0.194-1.601-0.58-2.389-0.385-0.789-0.899-1.435-1.537-1.94-0.671-0.537-1.449-0.897-2.336-1.083"/>
    <path d="m665.69 235.96 0.047 6.387 0.354-0.017c0.432-1.624 0.949-2.903 1.547-3.839 1.122-1.727 2.534-2.592 4.236-2.592 1.186 0 2.163 0.397 2.937 1.19 0.773 0.794 1.159 1.799 1.159 3.014 0 0.527-0.083 1.063-0.255 1.61-0.17 0.546-0.399 1.015-0.687 1.406-0.3 0.402-0.719 0.789-1.26 1.159-0.542 0.372-1.369 0.84-2.482 1.408-0.979 0.494-1.73 0.912-2.249 1.252-0.522 0.34-0.941 0.686-1.26 1.036-0.886 0.97-1.33 2.149-1.33 3.541 0 0.855 0.172 1.679 0.518 2.474 0.344 0.794 0.827 1.473 1.444 2.041 1.093 1.01 2.387 1.514 3.882 1.514 0.484 0 0.933-0.049 1.344-0.147 0.414-0.098 0.966-0.291 1.655-0.58 0.516-0.206 0.866-0.337 1.052-0.394 0.185-0.056 0.35-0.084 0.495-0.084 0.361 0 0.603 0.262 0.726 0.789h0.357l0.106-6.139h-0.356c-0.277 0.979-0.515 1.729-0.716 2.249-0.201 0.521-0.44 1.002-0.717 1.445-0.505 0.804-1.061 1.401-1.668 1.787s-1.306 0.579-2.099 0.579c-1.152 0-2.063-0.392-2.731-1.176-0.278-0.318-0.497-0.697-0.656-1.129-0.159-0.434-0.24-0.867-0.24-1.3 0-1.723 1.106-3.11 3.32-4.163l2.177-1.053c1.677-0.795 2.886-1.672 3.627-2.631 0.843-1.073 1.266-2.321 1.266-3.745 0-0.947-0.191-1.852-0.573-2.716-0.534-1.202-1.34-2.13-2.411-2.783-1.073-0.653-2.334-0.98-3.788-0.98-1.33 0-2.608 0.264-3.833 0.789-0.64 0.278-1.022 0.437-1.145 0.479-0.125 0.041-0.263 0.061-0.417 0.061-0.494 0-0.836-0.246-1.021-0.742z"/>
   </g>
   <g fill="#f4931f">
    <path d="m706.76 261.69 0.227-8.221-0.435-0.037c-0.869 2.796-1.985 4.878-3.345 6.245-1.362 1.367-3.004 2.051-4.932 2.051-1.499 0-2.787-0.305-3.864-0.916-1.077-0.613-2.081-1.605-3.015-2.977-1.889-2.81-2.834-6.022-2.834-9.637 0-1.726 0.225-3.355 0.681-4.884 0.453-1.531 1.114-2.882 1.983-4.055 1.689-2.266 3.747-3.403 6.18-3.403 0.957 0 1.857 0.204 2.702 0.608 0.846 0.402 1.536 0.955 2.078 1.661 0.743 0.984 1.117 2.149 1.117 3.496 0 1.248-0.338 2.147-1.013 2.702-0.674 0.556-1.785 0.831-3.334 0.831v0.436h12.056v-0.436c-1.111-0.101-1.888-0.254-2.335-0.461-0.447-0.208-0.778-0.564-0.991-1.068-0.24-0.556-0.36-1.659-0.36-3.309 0-0.452 0.026-1.157 0.077-2.115l0.036-0.435c-0.478 0.175-0.831 0.266-1.058 0.266-0.276 0-0.629-0.145-1.058-0.436-1.096-0.755-2.368-1.333-3.817-1.74-1.449-0.402-2.979-0.602-4.591-0.602-2.219 0-4.218 0.377-6.001 1.134-1.782 0.754-3.227 1.839-4.337 3.25-0.83 1.057-1.47 2.316-1.918 3.779-0.447 1.462-0.67 3.011-0.67 4.65 0 2.254 0.403 4.351 1.21 6.291 0.805 1.941 1.939 3.541 3.401 4.8 1.198 1.02 2.576 1.807 4.138 2.362 1.562 0.556 3.213 0.83 4.951 0.83 1.008 0 1.943-0.093 2.806-0.283 0.863-0.187 1.779-0.498 2.749-0.925l1.115-0.509c0.278-0.115 0.529-0.172 0.757-0.172 0.502 0 0.887 0.409 1.152 1.229z"/>
    <path d="m717.93 246.23v-5.474c0-1.052 0.059-1.832 0.179-2.341 0.117-0.512 0.338-0.931 0.656-1.262 0.28-0.288 0.602-0.502 0.967-0.641 0.366-0.138 0.848-0.224 1.444-0.256v-0.355h-9.878v0.355c0.597 0.032 1.08 0.118 1.445 0.256 0.366 0.139 0.689 0.353 0.967 0.641 0.329 0.331 0.553 0.747 0.665 1.252 0.113 0.507 0.17 1.29 0.17 2.351v11.394c0 1.062-0.057 1.844-0.17 2.351-0.112 0.505-0.336 0.923-0.665 1.252-0.278 0.299-0.603 0.515-0.974 0.649s-0.85 0.217-1.438 0.248v0.355h7.453c1.246 0 2.066-5e-3 2.457-0.015 1.599-0.071 2.851-0.289 3.757-0.649 1.021-0.414 1.812-1.028 2.373-1.848 0.563-0.818 0.843-1.771 0.843-2.853 0-1.606-0.608-2.896-1.823-3.864-0.372-0.289-0.782-0.527-1.23-0.712s-1.05-0.361-1.801-0.525c0.618-0.258 1.078-0.526 1.375-0.804 0.237-0.215 0.454-0.487 0.651-0.812 0.196-0.325 0.489-0.899 0.88-1.725 0.917-1.885 1.611-3.264 2.08-4.134 0.468-0.872 0.862-1.503 1.183-1.896 0.258-0.319 0.507-0.541 0.749-0.663 0.242-0.124 0.574-0.207 0.997-0.249v-0.355h-5.133c-0.257 0.567-0.421 0.927-0.493 1.083l-1.083 2.457c-0.65 1.474-1.305 2.778-1.963 3.913-0.661 1.122-1.264 1.89-1.81 2.303-0.277 0.207-0.578 0.354-0.897 0.441-0.318 0.088-0.71 0.132-1.175 0.132zm0 0.341h0.588c1.278 0 2.193 0.071 2.744 0.215 0.553 0.145 1.071 0.442 1.555 0.897 1.081 1.031 1.623 2.309 1.623 3.834 0 0.813-0.157 1.58-0.472 2.296s-0.751 1.305-1.306 1.77c-0.432 0.351-0.948 0.596-1.547 0.735-0.596 0.138-1.448 0.208-2.55 0.208h-0.635z"/>
    <path d="m731.35 246.31c0 1.732 0.368 3.339 1.11 4.818 0.744 1.482 1.825 2.773 3.249 3.877 1.06 0.814 2.205 1.442 3.432 1.879 1.226 0.44 2.462 0.658 3.709 0.658 1.589 0 3.124-0.348 4.609-1.044 1.484-0.696 2.783-1.678 3.896-2.947 1.815-2.064 2.721-4.41 2.721-7.04 0-1.322-0.238-2.595-0.713-3.821-0.473-1.229-1.161-2.347-2.07-3.359-1.112-1.257-2.43-2.232-3.95-2.923-1.521-0.692-3.11-1.036-4.771-1.036-1.638 0-3.204 0.333-4.699 1.006-1.496 0.667-2.783 1.618-3.866 2.845-0.855 0.958-1.51 2.051-1.971 3.274-0.458 1.222-0.686 2.491-0.686 3.813m3.74-0.232c0-2.992 0.815-5.514 2.441-7.565 0.733-0.919 1.51-1.588 2.328-2.004 0.821-0.419 1.765-0.627 2.837-0.627 1.083 0 2.033 0.205 2.853 0.618 0.819 0.413 1.601 1.083 2.343 2.013 1.627 2.062 2.443 4.605 2.443 7.627 0 1.661-0.225 3.231-0.673 4.711-0.449 1.48-1.08 2.735-1.895 3.768-0.659 0.844-1.392 1.461-2.202 1.848-0.809 0.386-1.767 0.58-2.869 0.58-1.093 0-2.038-0.191-2.837-0.571-0.798-0.383-1.538-1.002-2.217-1.857-0.815-1.022-1.445-2.276-1.887-3.759-0.444-1.486-0.665-3.081-0.665-4.782"/>
    <path d="m764.68 257v-0.355c-0.587-0.031-1.067-0.113-1.437-0.246-0.372-0.136-0.697-0.352-0.974-0.651-0.339-0.35-0.565-0.784-0.672-1.298-0.109-0.515-0.163-1.402-0.163-2.659v-8.751c0-1.423 0.054-2.452 0.163-3.086 0.107-0.634 0.325-1.218 0.656-1.755 0.495-0.813 1.105-1.403 1.833-1.769 0.725-0.366 1.64-0.549 2.743-0.549 1.071 0 2.096 0.162 3.069 0.485 0.974 0.327 1.785 0.777 2.437 1.355 0.4 0.36 0.697 0.752 0.889 1.175 0.189 0.423 0.316 0.959 0.378 1.608 0.041 0.423 0.062 1.423 0.062 2.999v8.644c0 1.06-0.06 1.843-0.178 2.349-0.118 0.505-0.338 0.923-0.657 1.252-0.288 0.299-0.617 0.515-0.982 0.651-0.366 0.133-0.842 0.215-1.43 0.246v0.355h7.126v-0.355c-0.585-0.031-1.063-0.113-1.428-0.246-0.367-0.136-0.693-0.352-0.984-0.651-0.318-0.329-0.537-0.75-0.655-1.259-0.12-0.512-0.179-1.291-0.179-2.342v-9.756c0-1.444-0.11-2.508-0.333-3.194-0.22-0.685-0.66-1.312-1.32-1.878-1.507-1.299-3.656-1.947-6.449-1.947-2.916 0-5.066 0.612-6.448 1.838-0.894 0.784-1.431 1.815-1.606 3.092-0.062 0.455-0.093 1.273-0.093 2.459v9.386c0 1.06-0.056 1.843-0.169 2.349-0.114 0.505-0.337 0.923-0.667 1.252-0.276 0.299-0.601 0.515-0.966 0.651-0.365 0.133-0.848 0.215-1.444 0.246v0.355z"/>
    <path d="m785.89 246.3v-5.549c0-1.052 0.059-1.833 0.179-2.342 0.118-0.511 0.337-0.931 0.657-1.262 0.277-0.288 0.6-0.501 0.967-0.641 0.365-0.138 0.845-0.224 1.444-0.256v-0.355h-9.88v0.355c0.599 0.032 1.079 0.118 1.446 0.256 0.366 0.14 0.689 0.353 0.966 0.641 0.33 0.331 0.552 0.747 0.665 1.252 0.114 0.506 0.17 1.29 0.17 2.352v11.395c0 0.887-0.039 1.568-0.116 2.048-0.077 0.477-0.209 0.867-0.393 1.167-0.267 0.412-0.608 0.719-1.021 0.92s-0.948 0.321-1.608 0.363h-0.109v0.355h9.323c1.629 0 2.83-0.083 3.604-0.247 0.772-0.165 1.477-0.495 2.118-0.99 1.463-1.112 2.195-2.596 2.195-4.452 0-1.886-0.743-3.267-2.226-4.144-0.774-0.452-1.712-0.726-2.815-0.819-0.35-0.03-1.195-0.047-2.535-0.047zm0 0.495h1.515c1.021 0 1.807 0.076 2.358 0.224 0.552 0.15 1.044 0.425 1.478 0.827 1.009 0.916 1.514 2.139 1.514 3.665 0 0.845-0.147 1.621-0.44 2.328-0.295 0.704-0.715 1.28-1.261 1.722-0.628 0.527-1.374 0.835-2.241 0.928-0.238 0.021-0.779 0.031-1.623 0.031h-1.3z"/>
   </g>
  </g>
 </g>
</svg>
