<svg xmlns="http://www.w3.org/2000/svg" xmlns:xlink="http://www.w3.org/1999/xlink" width="136" height="136" viewBox="0 0 136 136"><defs><clipPath id="clip-path"><rect id="Rettangolo_1141" data-name="Rettangolo 1141" width="130" height="130" fill="none"></rect></clipPath></defs><g id="MD-logo" transform="translate(18662 10748)"><path id="Unione_1" data-name="Unione 1" d="M19,136A18.986,18.986,0,0,1,0,117V19A18.986,18.986,0,0,1,19,0h98a18.986,18.986,0,0,1,19,19v98a18.986,18.986,0,0,1-19,19ZM3,117a16,16,0,0,0,16,16h98a16,16,0,0,0,16-16v0a16,16,0,0,1-16,16H19A16,16,0,0,1,3,117Z" transform="translate(-18662 -10748)" fill="#fff"></path><g id="Raggruppa_713" data-name="Raggruppa 713" transform="translate(-18659 -10745)"><path id="Tracciato_683" data-name="Tracciato 683" d="M15.8,0V130h98.4V0Z" fill="#ffec00"></path><g id="Raggruppa_712" data-name="Raggruppa 712"><g id="Raggruppa_711" data-name="Raggruppa 711" clip-path="url(#clip-path)"><path id="Tracciato_684" data-name="Tracciato 684" d="M107.7,130H91.3V118c0-1.5,1.5-2.7,3.3-2.7h9.8c1.8,0,3.3,1.2,3.3,2.7v12" fill="#005ea7"></path><path id="Tracciato_685" data-name="Tracciato 685" d="M84.7,130H68.3V118c0-1.5,1.5-2.7,3.3-2.7h9.8c1.8,0,3.3,1.2,3.3,2.7v12" fill="#005ea7"></path><path id="Tracciato_686" data-name="Tracciato 686" d="M61.7,130H45.3V118c0-1.5,1.5-2.7,3.3-2.7h9.8c1.8,0,3.3,1.2,3.3,2.7v12Z" fill="#005ea7"></path><path id="Tracciato_687" data-name="Tracciato 687" d="M38.7,130H22.3V118c0-1.5,1.5-2.7,3.3-2.7h9.8c1.8,0,3.3,1.2,3.3,2.7v12Z" fill="#005ea7"></path><path id="Tracciato_688" data-name="Tracciato 688" d="M130,113.7V16.2S130,.3,114.2,0V130c2.7-.2,15.8-1.6,15.8-16.3" fill="#005ea7"></path><path id="Tracciato_689" data-name="Tracciato 689" d="M0,113.7V16.2S0,.3,15.8,0V130C13.1,129.8,0,128.4,0,113.7" fill="#005ea7"></path><path id="Tracciato_690" data-name="Tracciato 690" d="M66.1,75.4c-1-.8-1.4-1.2-1.4-1.3a6.263,6.263,0,0,1-.4-1.6,123.612,123.612,0,0,1-.6-13,68.511,68.511,0,0,1,.6-9.8,4.854,4.854,0,0,1,1.2-2.6,4.707,4.707,0,0,0,1.2-1.4,3.808,3.808,0,0,0,.3-1.6c0-2.9-2.5-4.4-7.5-4.4-2.8,0-4.7.5-5.8,1.4a9.961,9.961,0,0,0-2.5,4.1c-.1.3-.4,1-.8,2l-3.4,8a13.235,13.235,0,0,1-.8,1.5.914.914,0,0,1-.5.3.52.52,0,0,1-.4-.2,12.236,12.236,0,0,1-1.1-2.1L39.1,43.5A14.344,14.344,0,0,0,38,41.3a4,4,0,0,0-1.2-1,11,11,0,0,0-4.7-.7,18.921,18.921,0,0,0-3.1.3,16.7,16.7,0,0,0-3,.7A4.069,4.069,0,0,0,24,42a3.716,3.716,0,0,0-.8,2.2,3.573,3.573,0,0,0,2,3.1,5.3,5.3,0,0,1,.9.7,3.217,3.217,0,0,1,.4.7,21.617,21.617,0,0,1,.6,6.3c0,2.5-.1,5.6-.2,9.2-.1,3.5-.3,6.1-.4,7.6a8.743,8.743,0,0,1-.5,2.8,1.419,1.419,0,0,1-.8.9c-1.2.7-1.6,1.1-1.8,1.2a2.364,2.364,0,0,0-.4,1.6c0,2.5,2.2,3.8,6.5,3.8,5.1,0,7.6-1.3,7.6-3.9A2.342,2.342,0,0,0,36,76c-1.1-.7-1.4-.9-1.4-.9-.1-.1-.2-.2-.3-.7a19.081,19.081,0,0,1-.2-4c0-1.9.1-4.1.2-6.4,0-.7.2-1,.3-1,0,0,.4.1.8,1.4l3.2,8.7c.4,1.2,1,2.5,1.6,4,.9,2,1.2,2.5,1.3,2.7a1.6,1.6,0,0,0,1.4.8,1.763,1.763,0,0,0,1.5-.9,15.348,15.348,0,0,0,1.3-2.8L48.6,69a31.77,31.77,0,0,1,1.9-4.4c.4-.8.7-.8.8-.8,0,0,.1,0,.2.3a11.879,11.879,0,0,1,.2,2.9c0,2.8-.1,4.8-.2,5.9a3.651,3.651,0,0,1-.7,2,10.731,10.731,0,0,0-1.6,1.8,2.5,2.5,0,0,0-.3,1.3c0,1.1.5,2.5,2.7,3.3A20.475,20.475,0,0,0,58,82c1.8,0,3.2-.1,4.1-.1a7.714,7.714,0,0,0,2.6-.7,3.238,3.238,0,0,0,1.4-5.8" fill="#e1001a"></path><path id="Tracciato_691" data-name="Tracciato 691" d="M93.7,62.1c0,8.5-2.3,12.7-6.9,12.7a2.444,2.444,0,0,1-2-.7,3.982,3.982,0,0,1-.6-2.5V49.1a2.5,2.5,0,0,1,.4-1.7,2.07,2.07,0,0,1,1.5-.5q4.2,0,6,4.2a31.589,31.589,0,0,1,1.6,11m11-12.9a15.263,15.263,0,0,0-7.4-7.8,21.978,21.978,0,0,0-9-1.6,15.519,15.519,0,0,0-2.3.1c-2.9.2-5.6.3-7.9.3-.6,0-1.6,0-3-.1H73.5a5.714,5.714,0,0,0-3.4.9,3.115,3.115,0,0,0,.6,5.4c.7.3,1.2.7,1.3,1.2a10.754,10.754,0,0,1,.3,3.2c0,4.2-.1,8.4-.2,12.6s-.2,7.1-.3,8.5a8.121,8.121,0,0,1-.5,2.5,1.837,1.837,0,0,1-1.2.8,4,4,0,0,0-1.6,1A2.969,2.969,0,0,0,68,78a3.467,3.467,0,0,0,1.1,2.6,4.336,4.336,0,0,0,2.8,1,13.054,13.054,0,0,0,1.7-.1c1.3-.1,2.4-.2,3.4-.2h1.8c1.5,0,3.2,0,5.2.1l5.5.2a16.947,16.947,0,0,0,6.4-1.2,15.97,15.97,0,0,0,8-7,21.913,21.913,0,0,0,2.2-5.8,30.661,30.661,0,0,0,.8-6.7,29.068,29.068,0,0,0-2.2-11.7" fill="#e1001a"></path><path id="Tracciato_692" data-name="Tracciato 692" d="M76.6,97.8c.2.1.5,0,.6.1a1.337,1.337,0,0,1-.9-.1c.1,0,.1.1.3,0a23,23,0,0,0-2.6-.3c2.4-.1,4.7.5,7.1.3-.3-.3-1.1-.1-1.4-.3a17.111,17.111,0,0,1,3.9.1c2.8.2,5.4.7,7.9,1a15.469,15.469,0,0,0-3.1-.6c-.2,0-.3-.2-.5-.2a16.6,16.6,0,0,0-2.2-.3c-.2,0-.4-.2-.6-.2-.6-.1-1.4-.1-2.1-.2-1.9-.3-4.1-.5-6.2-.7-.2,0,0-.1-.2-.2a3.75,3.75,0,0,1-1.1-.1,4.034,4.034,0,0,1,1.1,0c-.9-.4-2.5-.2-3.5-.5,2.2,0,4.4.3,6.5.3,1,0,1.8.2,2.8.2.6,0,1.3.2,2,.2.9.1,1.5.2,2.5.3.8.1,1.6.3,2.4.4.6.1,1.1.1,1.7.2,1.5.3,3.3.6,4.8.8a16.539,16.539,0,0,0-3.2-.7h.1c.2-.1-.2,0-.2,0-.6,0-1.2-.3-1.9-.3.1-.1.4,0,.6,0-3.3-.8-6.8-1-10.3-1.6-1.3-.2-2.7-.4-3.9-.6s-2.6-.2-3.9-.3A65.314,65.314,0,0,0,63,93.9H60.9c-1.2-.1-2.5,0-3.9,0a97.064,97.064,0,0,0-17.6,1.8c-.1.2-.3.4-.2.7a2.388,2.388,0,0,1,.9.2c0,.2-.4.2-.5.3a3.083,3.083,0,0,0,1,.1c.2.2-.1.2-.1.4.1.1.4,0,.5.1a.139.139,0,0,1,0,.2,40.889,40.889,0,0,0,7,0c7.6-.2,15.4-.4,22.3-.1,1.5.2,3.5.1,5.1.3a8.879,8.879,0,0,0,2.3.1c.1-.2.5-.1.9-.1-.7,0-1.3-.1-2-.1" fill="#009c30"></path><path id="Tracciato_693" data-name="Tracciato 693" d="M76.6,100.4c.2.1.5,0,.6.1a1.337,1.337,0,0,1-.9-.1c.2,0,.2.1.3,0a23,23,0,0,0-2.6-.3c2.4-.1,4.7.5,7.1.3-.3-.3-1.1-.1-1.4-.3a17.111,17.111,0,0,1,3.9.1c2.8.2,5.4.7,7.9,1a15.47,15.47,0,0,0-3.1-.6c-.2,0-.3-.2-.5-.2a16.6,16.6,0,0,0-2.2-.3c-.2,0-.4-.2-.6-.2-.6-.1-1.4-.1-2.1-.2-1.9-.3-4.1-.5-6.2-.7-.2,0,0-.1-.2-.2a3.749,3.749,0,0,1-1.1-.1,4.034,4.034,0,0,1,1.1,0c-.9-.4-2.5-.2-3.5-.5,2.2,0,4.4.3,6.5.3,1,0,1.8.2,2.8.2.6,0,1.3.2,2,.2.9.1,1.5.2,2.5.3.8.1,1.6.3,2.4.4.6.1,1.1.1,1.7.2,1.5.3,3.3.6,4.8.8a16.539,16.539,0,0,0-3.2-.7h.1c.2-.1-.2,0-.2,0-.6,0-1.2-.3-1.9-.3.1-.1.4,0,.6,0-3.3-.8-6.8-1-10.3-1.6-1.3-.2-2.7-.4-3.9-.6s-2.6-.2-3.9-.3c-3.3-.2-6.7-.3-10.3-.4H60.7c-1.2-.1-2.5,0-3.9,0a97.065,97.065,0,0,0-17.6,1.8c-.1.2-.3.4-.2.7a2.388,2.388,0,0,1,.9.2c0,.2-.4.2-.5.3a3.083,3.083,0,0,0,1,.1c.2.2-.1.2-.1.4.1.1.4,0,.5.1a.139.139,0,0,1,0,.2,40.889,40.889,0,0,0,7,0c7.6-.2,15.4-.4,22.3-.1,1.5.2,3.5.1,5.1.3a8.879,8.879,0,0,0,2.3.1c.1-.2.5-.1.9-.1a4.5,4.5,0,0,0-1.8-.3" fill="#fff"></path><path id="Tracciato_694" data-name="Tracciato 694" d="M76.6,103.1c.2.1.5,0,.6.1a1.337,1.337,0,0,1-.9-.1c.2-.1.2,0,.3,0a23,23,0,0,0-2.6-.3c2.4-.1,4.7.5,7.1.3-.3-.3-1-.1-1.4-.3a17.111,17.111,0,0,1,3.9.1c2.8.2,5.4.7,7.9,1a15.469,15.469,0,0,0-3.1-.6c-.2-.1-.3-.2-.5-.2a16.6,16.6,0,0,0-2.2-.3c-.2,0-.4-.2-.6-.2-.6-.1-1.4-.1-2.1-.2-1.9-.3-4.1-.5-6.2-.7-.2,0,0-.1-.2-.2a3.75,3.75,0,0,1-1.1-.1,4.034,4.034,0,0,1,1.1,0c-.9-.4-2.5-.2-3.5-.5,2.2,0,4.4.3,6.5.3,1,0,1.8.2,2.8.2.6,0,1.3.2,2,.2.9.1,1.5.2,2.5.3.8.1,1.6.3,2.4.4.6.1,1.1.1,1.7.2,1.5.3,3.3.6,4.8.8a16.54,16.54,0,0,0-3.2-.7h.1c.2-.1-.2,0-.2,0-.6,0-1.2-.3-1.9-.3.1-.2.4,0,.6,0-3.3-.8-6.8-1-10.3-1.6-1.3-.2-2.7-.4-3.9-.6s-2.6-.2-3.9-.3c-3.3-.2-6.7-.3-10.3-.4H60.7c-1.2-.1-2.5,0-3.9,0a97.064,97.064,0,0,0-17.6,1.8c-.1.2-.3.4-.2.7a2.388,2.388,0,0,1,.9.2c0,.2-.4.2-.5.3a3.083,3.083,0,0,0,1,.1c.2.2-.1.2-.1.4.1.1.4,0,.5.1a.139.139,0,0,1,0,.2,40.889,40.889,0,0,0,7,0c7.6-.2,15.4-.4,22.3-.1,1.5.2,3.5.1,5.1.3a8.879,8.879,0,0,0,2.3.1c.1-.2.5-.1.9-.1a4.5,4.5,0,0,0-1.8-.3" fill="#e1001a"></path><path id="Tracciato_695" data-name="Tracciato 695" d="M38.7,0V12c0,1.5-1.5,2.7-3.3,2.7H25.6c-1.8,0-3.3-1.2-3.3-2.7V0Z" fill="#005ea7"></path><path id="Tracciato_696" data-name="Tracciato 696" d="M45.3,0H61.7V12c0,1.5-1.5,2.7-3.3,2.7H48.6c-1.8,0-3.3-1.2-3.3-2.7V0Z" fill="#005ea7"></path><path id="Tracciato_697" data-name="Tracciato 697" d="M68.3,0H84.7V12c0,1.5-1.5,2.7-3.3,2.7H71.6c-1.8,0-3.3-1.2-3.3-2.7V0" fill="#005ea7"></path><path id="Tracciato_698" data-name="Tracciato 698" d="M91.3,0h16.4V12c0,1.5-1.5,2.7-3.3,2.7H94.6c-1.8,0-3.3-1.2-3.3-2.7V0Z" fill="#005ea7"></path><path id="Tracciato_699" data-name="Tracciato 699" d="M130,113.7V16.2S130,.3,114.2,0V130c2.7-.2,15.8-1.6,15.8-16.3" fill="#005ea7"></path><path id="Tracciato_700" data-name="Tracciato 700" d="M0,113.7V16.2S0,.3,15.8,0V130C13.1,129.8,0,128.4,0,113.7" fill="#005ea7"></path></g></g></g></g></svg>