<?xml version="1.0" encoding="utf-8"?>
<!-- Generator: Adobe Illustrator 24.1.2, SVG Export Plug-In . SVG Version: 6.00 Build 0)  -->
<svg version="1.1" id="Layer_1" xmlns="http://www.w3.org/2000/svg" xmlns:xlink="http://www.w3.org/1999/xlink" x="0px" y="0px"
	 viewBox="0 0 606.9 615.4" style="enable-background:new 0 0 606.9 615.4;" xml:space="preserve">
<style type="text/css">
	.st0{fill:#FF8000;}
</style>
<g>
	<path id="House_8_" class="st0" d="M462.4,245.9c-10.6-17.7-22.2-34.7-35-50.9l-0.3-0.4l-0.1-0.1c-0.6-0.8-2.3-2.9-2.9-3.7
		c-5.8-7.9-5-13.7-5-13.7c-3.5-39.6-7.6-57.8-8.4-62.5c-0.9-5.5-2.5-11.3-10.5-12.1c-6.5-0.7-16.1-1.8-26.7-2.3
		c-8.9-0.5-10,8.7-10,8.7c-0.2,9.2,0,13.7,0,14.8c0,1.1-0.2,2.3-1.9,2.7c-0.7,0-1.4-0.2-1.9-0.6c-14.6-12.1-30-23.2-46.1-33.2
		c-3.2-1.9-6.8-2.9-10.5-3c-3.3,0.1-6.4,1.2-9.1,3c-4.8,3-86.7,49.5-148.7,153c0,0-3.9,5.4-1,10.5c1.6,3.1,4.9,5,8.3,4.9
		c0,0,21.5,2.5,25.8,3c4.9,0.5,4.9,4.5,4.9,4.5c-0.4,45.2,2.4,90.3,8.2,135.1c0,0,1.1,7.5,8.5,7.9c3,0.2,14.2-0.5,43.9-1.2
		c1.1,0.1,2.1-0.7,2.3-1.8c0-0.2,0-0.3,0-0.5c-2.8-29.4-3.7-54.8-3.8-56.3c-0.1-1.1-0.7-2-1.7-2.4c-11-6.3-17.8-17.9-17.9-30.5
		c-0.8-58.2,2.7-102.9,2.7-102.9s0.3-6.2,5.8-5.7c5.4,0.5,5.1,6.6,5.1,6.6c-2,25.1-2.7,70.2-2.7,70.2s0,8.6,8.2,8.6
		c8.2,0,8.2-8.6,8.2-8.6c-0.3-35.4,2.7-70.9,2.7-70.9s0-6,5.8-6c5.3,0,5.1,6.7,5.1,6.7c-2.5,30.7-2.7,70.1-2.7,70.1s0,8.6,8.2,8.6
		c8.2,0,8.2-9.3,8.2-9.3c-0.1-29.3,2.8-70.4,2.8-70.4c-0.1-3,2.2-5.5,5.2-5.7c0.2,0,0.3,0,0.5,0c4.9,0,5.2,5.7,5.2,5.7
		c-2.7,31.8-2.7,80.7-2.6,101.8c0.4,12.6-6,24.4-16.7,31c-1,0.7-1.5,1.8-1.4,3c0.7,19.3,2.3,40.8,3.7,56.2c0.1,1,0.9,1.9,1.9,2
		c8.2,0,17.2-0.1,27.1-0.1c15.9,0,29,0.1,40.7,0.3c1.3,0,1.9-1,2-2.3c3-27.8,4.1-48,4.2-49.8c0.2-2-2.3-2.4-2.3-2.4
		c-4.3-0.2-12.2-1.5-19.4-2.7c-7.3-1.2-7.5-9.4-7.5-9.4c-6.1-86.8,39.7-141,39.7-141s4.5-5.9,10.9-3.7c6.4,2.2,6.3,9,6.3,9
		c6.4,72.3,0.1,165.6-4,200.1c-0.2,1.4,0.5,2.5,1.8,2.8c0.1,0,0.3,0,0.4,0.1c19.6,0.6,28.7,1.1,31.2,0.8c4.5-0.5,8.1-3.9,8.8-8.3
		c9.7-67.3,8.3-134.7,8.3-134.7c0.2-2.4,2.1-4.3,4.5-4.5l26.4-2.8c3.5-0.5,6.4-1.9,7.9-4.9C464.4,252.8,464.2,249,462.4,245.9"/>
	<g>
		<path class="st0" d="M91.8,450.5h19.6c1,0,1.8,0.6,2.2,1.5l19.8,50.6c0.4,1,1.8,1,2.2,0l20.1-50.6c0.4-0.9,1.2-1.5,2.2-1.5h19.2
			c1.3,0,2.3,1,2.3,2.3v70.9c0,1.3-1,2.3-2.3,2.3h-13.2c-1.3,0-2.3-1-2.3-2.3v-37.4c0-1.3-1.8-1.6-2.2-0.4l-15.8,38.7
			c-0.4,0.9-1.2,1.4-2.2,1.4h-13.7c-0.9,0-1.8-0.6-2.2-1.4l-15.8-38.7c-0.5-1.2-2.2-0.8-2.2,0.4v37.4c0,1.3-1,2.3-2.3,2.3H91.8
			c-1.3,0-2.3-1-2.3-2.3v-70.9C89.4,451.5,90.5,450.5,91.8,450.5z"/>
		<path class="st0" d="M184.3,497.3c0-14.1,8.6-30.1,29.4-30.1c20.9,0,29,16,29,30.1c0,1.1-0.1,2.6-0.3,3.9c-0.2,1.1-1.1,2-2.3,2
			h-36.7c-0.8,0-1.4,0.9-1.1,1.6c2.2,5.1,7.6,7.4,12.9,7.4c4.3,0,8.4-1.2,11.1-3.2c0.9-0.7,2.2-0.6,3,0.2l7.2,7c0.9,0.9,1,2.4,0,3.3
			c-4.7,4.5-12.6,7.8-22,7.8C193.9,527.4,184.3,511.4,184.3,497.3z M203,491.3h21.3c0.8,0,1.3-0.8,1.1-1.5
			c-1.8-5.7-6.3-8.1-11.7-8.1c-5.5,0-10,2.4-11.8,8.1C201.7,490.5,202.2,491.3,203,491.3z"/>
		<path class="st0" d="M248.8,468.6h11.5c1.3,0,2.3,1,2.3,2.3v3.3h0.2c3-4.2,8.9-7,16.5-7c16.8,0,24.2,11.2,24.2,26.5v30
			c0,1.3-1,2.3-2.3,2.3h-12.5c-1.3,0-2.3-1-2.3-2.3v-27.3c0-7.3-2.9-13.4-11.2-13.4c-7.9,0-11.5,5.7-11.5,13.4v27.3
			c0,1.3-1,2.3-2.3,2.3h-12.5c-1.3,0-2.3-1-2.3-2.3v-52.7C246.5,469.7,247.5,468.6,248.8,468.6z"/>
		<path class="st0" d="M308.2,500.9v-30c0-1.3,1-2.3,2.3-2.3H323c1.3,0,2.3,1,2.3,2.3v27.5c0,7.2,2.7,13.1,10.5,13.1
			c7.7,0,11.3-5.6,11.3-13.1v-27.5c0-1.3,1-2.3,2.3-2.3H362c1.3,0,2.3,1,2.3,2.3v52.7c0,1.3-1,2.3-2.3,2.3h-11.5
			c-1.3,0-2.3-1-2.3-2.3v-3.3h-0.2c-3,4.2-8.7,7-16,7C315.4,527.4,308.2,516.2,308.2,500.9z"/>
		<path class="st0" d="M374,444.1h12.5c1.3,0,2.3,1,2.3,2.3v77.2c0,1.3-1,2.3-2.3,2.3H374c-1.3,0-2.3-1-2.3-2.3v-77.2
			C371.7,445.1,372.8,444.1,374,444.1z"/>
		<path class="st0" d="M393.1,497.3c0-14.1,9.9-30.1,30.8-30.1s30.8,16,30.8,30.1s-9.9,30.1-30.8,30.1S393.1,511.4,393.1,497.3z
			 M423.9,511.1c7.2,0,13.2-5.7,13.2-13.8c0-8.1-6-13.8-13.2-13.8c-7.2,0-13.2,5.7-13.2,13.8C410.6,505.4,416.7,511.1,423.9,511.1z"
			/>
		<path class="st0" d="M464.5,538.3l7.7-7.8c0.8-0.8,2.1-0.9,3-0.2c2.7,2.1,6.8,3.6,11.2,3.6c7.3,0,13.8-2.4,13.8-11.5v-5.7H500
			c-2.1,2.8-7.4,6.2-15.6,6.2c-17.3,0-26.9-12.9-26.9-27.3c0-16.1,11.2-28.3,26.9-28.3c8,0,13.5,2.8,16.6,6.7h0.2v-3
			c0-1.3,1-2.3,2.3-2.3h11.6c1.3,0,2.3,1,2.3,2.3v51.8c0,15.4-11.2,26.1-31.1,26.1c-9.3,0-17.3-3.1-21.8-7.2
			C463.6,540.8,463.6,539.3,464.5,538.3z M500.3,495c0-6.6-4.5-12.9-12.7-12.9c-8.1,0-12.7,6.3-12.7,12.9c0,6.6,4.5,12.9,12.7,12.9
			C495.8,507.9,500.3,501.6,500.3,495z"/>
	</g>
</g>
</svg>
