<?xml version="1.0" encoding="utf-8"?>
<!-- Generator: Adobe Illustrator 22.0.1, SVG Export Plug-In . SVG Version: 6.00 Build 0)  -->
<svg version="1.1" id="レイヤー_1" xmlns="http://www.w3.org/2000/svg" xmlns:xlink="http://www.w3.org/1999/xlink" x="0px"
	 y="0px" viewBox="0 0 276.3 63.6" style="enable-background:new 0 0 276.3 63.6;" xml:space="preserve">
<style type="text/css">
	.st0{fill:#060001;}
	.st1{fill:#F62837;}
</style>
<g>
	<path class="st0" d="M133.7,46.3h4.4v-3.5h-7.8v-1.3c0-1-0.5-1.7-1.8-1.7h-2.9v3h-6.7v3.5h3.2l-4,8.9l-4-8.9h3.3v-3.5h-6.8v-1.3
		c0-1-0.5-1.7-1.8-1.7H106v3h-7.7v3.5h4.3L97.8,59h2.9c1,0,1.5-0.4,1.8-1.2l3.7-10.5V59h4.4V47.3l4.2,10.5c0.3,0.7,0.9,1.2,1.8,1.2
		h2.9c0.9,0,1.6-0.4,1.8-1.2l4.2-10.5v11.7h4.4V47.2l3.8,10.5c0.3,0.7,0.8,1.2,1.8,1.2h2.9L133.7,46.3z"/>
	<path class="st0" d="M104.6,39.1c1.6,0,3.2-0.5,4.2-1.4l6.5-5.8v7.9h5.6v-7.9l6.6,5.8c1,0.9,2.7,1.4,4.2,1.4h5l-11.9-9.4h11.9v-3.5
		h-15.6v-1.1c0-1-0.5-1.7-1.8-1.7h-4.1v2.8H99.7v3.5h11.9l-12,9.4H104.6z"/>
	<path class="st0" d="M221.4,55.3c-1.6,0-2.9-1.3-2.9-2.9v-26c0-0.9-0.5-1.7-1.7-1.7h-4.1v28.8c0,2.9,2.4,5.4,5.4,5.4h7.8v-3.6
		L221.4,55.3L221.4,55.3z"/>
	<path class="st0" d="M209.1,26.4c0-1-0.6-1.7-1.7-1.7h-21.3v3.4h23V26.4z"/>
	<path class="st0" d="M208.2,42.5c1.8-1,1-4.1-0.9-4.1h-21.6v3.5h16.9l-5.6,3h-2.6v4.2h-9.2v3.6h9.2v6.3h5.9v-6.3h8.7v-3.6h-8.7
		v-2.3L208.2,42.5z"/>
	<path class="st0" d="M202.5,36.4h2.9c1.3,0,2.2-0.6,2.5-1.6l1.4-4.7h-4.8L202.5,36.4z"/>
	<path class="st0" d="M194.8,30.1v6.3h4.8v-4.6c0-1-0.6-1.7-1.7-1.7H194.8z"/>
	<path class="st0" d="M190.8,31.8c0-1-0.6-1.7-1.7-1.7h-2.9v6.3h4.8L190.8,31.8L190.8,31.8z"/>
	<path class="st0" d="M180.6,26.3c0-1-0.6-1.7-1.7-1.7h-35.5v3.8h37.4L180.6,26.3L180.6,26.3z"/>
	<path class="st0" d="M161.3,32.6h-18v3.8h13.9c1,0,1.7,0.8,1.7,1.7v20.7h6.1V36.2C164.9,34.4,163.5,32.6,161.3,32.6"/>
	<path class="st0" d="M173.3,42.7l7.4-10.9h-6.6l-7,10.7l6.4,14.2c0.6,1.5,1.7,2.1,3.6,2.1h4L173.3,42.7z"/>
	<path class="st0" d="M143.3,40.8v3.8h6L143,58.8h3.5c1.9,0,3-0.6,3.7-2.1l6.6-15.9L143.3,40.8L143.3,40.8z"/>
	<path class="st0" d="M257.8,50.8h10.8v-3.3h-16.5v-2.6h15.1v-3.3h-15.1v-2.5h16.5v-3.3h-10l1.5-4h8.8v-3.3h-5.2l1.8-3.9h-5.2
		l-1.8,3.9h-2.6v-4c0-0.6-0.3-1-1.1-1h-4v5h-2.9v-4c0-0.6-0.3-1-1.1-1h-4v5h-2.6l-1.8-3.9H233l1.8,3.9h-5.2v3.3h8.8l1.5,4h-10.3v3.3
		h16.5v2.6H231V45h15.1v2.6h-16.5v3.3h10.8l-12,8.1h4.7c2.2,0,3.9-0.5,5.7-1.8l7.4-5.5v7.4h5.9v-7.4l7.4,5.5
		c1.8,1.4,3.5,1.8,5.7,1.8h4.7L257.8,50.8z M244.1,31.8h9.8l-1.5,4h-6.9L244.1,31.8z"/>
	<path class="st1" d="M8.1,51.9c0.6-0.2,1.5-0.5,1.8-0.6c0.4-0.2,0.6-0.2,0.6,0.3c0,0.3-0.1,0.3,0,0.6c0.1,0.5,0.5,0.3,0.8,0.1
		c0.5-0.3,1.9-0.9,2.3-1c0.5-0.1,1.7-0.3,1.7,0.8c0,0.6,0.4,0.5,0.7,0.3c0.7-0.4,1.7-1,2.3-1.1c0.7-0.1,2.5-0.1,2.1,1.6
		c-0.4,1.9-0.9,4.3-1,5c-0.2,0.6-0.3,1.4-1.7,1.4h-1.7c0.1-0.5,1.1-5.2,1.1-5.5c0.3-1.2-1.8-1.3-2.1,0c-0.4,1.7-0.8,4-0.9,4.4
		c-0.1,0.4-0.6,1.1-1.2,1.2c-0.6,0-1.7,0-1.9,0c0.1-0.5,1-5,1.1-5.5c0.4-1.5-1.9-1.1-2.1-0.3c-0.4,1.6-0.8,4.1-0.9,4.5
		c-0.1,0.4-0.5,1.3-1.3,1.3H6c0.1-0.6,1.2-6,1.3-6.4C7.5,52.2,7.5,52,8.1,51.9"/>
	<path class="st1" d="M24.7,51.6c1.1-0.4,5.2-1.4,5.8,1.7c0.4,2-1.1,4.4-3.6,5.4c-1.6,0.6-5.5,1-5.9-1.6
		C20.6,54.7,21.8,52.6,24.7,51.6 M23.9,57.4c-0.1,1.7,2.2,1.5,2.7,0.3c0.4-1,0.8-3.7,0.9-4.7c0.1-1.4-2.5-1.5-2.8,0.2
		C24.6,53.9,23.9,55.9,23.9,57.4"/>
	<path class="st1" d="M31.8,53.3c0.4-1.2,0.5-1.3,1.5-1.7c0.5-0.2,2-0.8,1.9,0.2c-0.2,1.1,0.4,0.6,0.9,0.4c0.9-0.6,2-1.6,1.9-0.1
		c-0.2,2.2-0.7,2.6-1.4,1.7c-0.7-0.8-1.7-0.6-1.8,0.4c-0.2,0.9-0.6,2.7-0.7,3.5c-0.3,1.2-0.6,1.6-1.6,1.6s-1.7,0-1.8,0
		C30.7,58.5,31.7,53.5,31.8,53.3"/>
	<path class="st1" d="M40.2,52c0.6-0.3,1.2-0.6,1.6-0.6c0.6-0.2,0.8,0,0.7,0.5c-0.1,0.5-1.1,5.6-1.3,6.3c-0.2,0.6-0.6,1.3-1.4,1.3
		h-2c0.2-0.8,1.1-5.2,1.2-5.9C39.1,52.6,39.4,52.2,40.2,52"/>
	<path class="st1" d="M39.6,50.1c0.2-0.8,0.1-1.3,1.5-1.7c1-0.3,1-0.3,1.5-0.5c0.6-0.2,0.7-0.1,0.6,0.8c-0.2,0.9-0.1,1.1-1.6,1.6
		C39.5,51,39.4,51,39.6,50.1"/>
	<path class="st1" d="M42.5,59.2c0.4-1.7,1.1-5.3,1.2-6.1c0.2-0.7,0.4-1,1.5-1.4c1.6-0.6,1.9-0.7,1.8,0.1c-0.1,0.8,0.8,0.6,1.1,0.4
		c0.3-0.2,1.5-0.7,2-0.9c0.6-0.2,2.6-0.2,2.3,1.5c-0.4,1.7-0.7,4.4-1,5.2c-0.2,0.6-0.5,1.3-1.2,1.3H48c0.2-0.9,1-4.9,1.1-5.6
		c0.2-1.2-1.9-1.7-2.7,0.6c-0.3,0.7-0.7,3.4-0.8,4.1c-0.1,0.6-0.4,0.9-1.4,0.9H42.5z"/>
	<path class="st1" d="M57.7,51.3c1.3-0.2,2.2-0.1,2.8-0.1c1.2,0,2.1,0.1,1.9,1.1c-0.2,1-0.9,5-1.2,5.8c-0.3,0.8-0.5,1.1-1.7,1.1
		s-1.4-0.4-1.4-0.6c0-0.4-0.2-0.7-0.9-0.3c-1.7,1.2-4.3,1.2-4.5-1.4C52.6,54.3,55.4,51.7,57.7,51.3 M56,56.9
		c-0.3,1.4,1.9,1.5,2.3,0.3c0.2-0.6,0.7-2.9,0.9-4c0.4-2.1-1.8-2-2.4-0.4C56.7,53.2,56.3,55.7,56,56.9"/>
	<path class="st1" d="M70.2,51.2c1.5,0.2,1.9,0.2,1.7,1.4c-0.3,1.6-0.9,5.1-1.2,6c-0.6,2.4-2.3,3.3-5.2,4.1c-3.7,1.1-4.5-2-3.3-2.3
		c1-0.2,1.9-0.4,2.2-0.5s0.6-0.2,0.6,0.5c-0.3,1.4,1.3,2.5,2.2-0.3c0.5-1.4,0.6-2.5-1-1.5c-1.4,0.9-3.8,0.4-3.7-2.1
		c0.1-2.9,2.8-4.9,5.1-5.3C69,51,70,51.1,70.2,51.2 M65.6,56.7c-0.4,1.8,1.9,1.7,2.4,0.3c0.4-1,0.6-2.6,0.8-4.2
		c0.2-1.6-2-1.6-2.6,0.4C66.2,53.7,65.9,55,65.6,56.7"/>
	<path class="st1" d="M77,51.3c1.3-0.2,2.2-0.1,2.8-0.1c1.2,0,2.1,0.1,1.9,1.1c-0.2,1-0.9,5-1.2,5.8c-0.3,0.8-0.5,1.1-1.7,1.1
		s-1.4-0.4-1.4-0.6c0-0.4-0.2-0.7-0.9-0.3c-1.7,1.2-4.3,1.2-4.5-1.4C71.8,54.3,74.6,51.7,77,51.3 M75.1,56.9
		c-0.3,1.4,1.9,1.5,2.3,0.4c0.2-0.6,0.7-2.9,0.9-4c0.4-2.1-1.8-2-2.4-0.4C75.9,53.2,75.4,55.7,75.1,56.9"/>
	<path class="st1" d="M16.6,46c-2.4,0-8.9,0-8.9,0l3-14.7c0,0,4,0,5.5,0c2.3,0,4.3-1.3,7.7-6.4c3.5-5.3,8.7-13.8,9.8-15.6
		c1.4-2.1,3.7-1.9,3.6,1c-0.1,4.4,0,9.8-0.1,12.7c-0.1,6.3,5.5,5.5,8,1.7c3.2-5.1,9-14.3,9.8-15.6c0.9-1.5,3.6-1.9,3.6,1.4v9.4
		c0,8.4,5.3,11.5,10.1,11.5h16.4L82.4,46h-9.8c-14,0-13.5-9.3-15.1-13.9c-0.7-2.1-2.7-3-4.6,0c-2.2,3.6-5.9,9.4-6.6,10.4
		c-3.7,5.1-9.7,4.4-9.8-1c-0.1-5.4,0-7.9,0-8.9c0-2.2-2.8-4-5-0.5C28,38.1,24.7,46,16.6,46"/>
	<path class="st0" d="M102.5,8.6c0.1-0.5,0.5-2.4,0.6-2.9c0.1-0.3,0.2-0.6,0.8-0.6c0.6,0,0.9,0.3,0.9,0.6s-0.3,1.7-0.6,2.7
		c3.6-0.3,4.2,1.7,4.2,4.2c0,5.2-1.6,5.6-3.4,5.6c-1.5,0-1.9-0.3-1.9-0.9c0-0.6,0.3-0.8,0.6-0.8c0.3,0,0.9,0.1,1.2,0.1
		c0.8,0,1.8-0.2,1.8-4c0-1.6-0.1-2.7-1.9-2.7c-0.3,0-0.6,0-1,0c-1,3.6-1.8,5.5-2.6,7c-0.5,0.8-0.6,1.3-1.1,1.3
		c-0.4,0-0.9-0.3-0.9-0.8c0-0.2,0.1-0.5,0.6-1.1c0.9-1.7,1.7-3.8,2.4-6.2c-0.5,0.1-2.5,0.4-2.7,0.4c-0.5,0-0.7-0.4-0.7-0.8
		c0-0.6,0.5-0.7,1-0.8L102.5,8.6z M110.6,8.7c1,1.7,1.5,3.6,1.5,4.3c0,0.6-0.4,0.8-0.9,0.8c-0.6,0-0.7-0.2-0.8-1.2
		c-0.2-0.9-0.6-2.7-1.7-4.1c-0.4-0.6-0.5-0.6-0.5-0.9c0-0.4,0.4-0.7,0.8-0.7C109.4,6.9,110,7.9,110.6,8.7"/>
	<path class="st0" d="M118.3,8.6c0.1-0.5,0.4-2,0.5-2.7c0.1-0.4,0.2-0.7,0.9-0.7c0.5,0,0.9,0.2,0.9,0.6c0,0.4-0.4,2.1-0.5,2.7
		c3.1,0,3.8,1.4,3.8,4.1c0,3.9-0.8,5.7-3.5,5.7c-0.9,0-1.7-0.1-1.7-0.9c0-0.5,0.3-0.8,0.6-0.8c0.2,0,0.5,0,0.6,0
		c0.6,0,1.4-0.2,1.6-0.6c0.6-0.8,0.6-2.9,0.6-3.6c0-2-0.5-2.6-2.5-2.4c-0.6,2.1-1.3,4.2-2.2,6.2c-0.9,1.9-1.2,2.1-1.6,2.1
		s-1-0.3-1-0.8c0-0.2,0.1-0.4,0.6-1.3c0.4-0.7,1.5-2.7,2.4-6c-0.5,0.1-2.5,0.5-2.7,0.5c-0.6,0-0.7-0.5-0.7-0.9
		c0-0.6,0.5-0.7,1.1-0.8L118.3,8.6z M127.5,13.1c0,0.6-0.6,0.8-0.9,0.8c-0.6,0-0.6-0.3-0.8-1c-0.2-1-0.8-2.9-2.2-4.4
		C123.1,8,123,7.9,123,7.7c0-0.4,0.4-0.7,0.8-0.7C125,7.1,127.5,11.5,127.5,13.1 M127.3,7.8c0,0.3-0.3,0.6-0.6,0.6
		c-0.3,0-0.4-0.2-0.6-0.6c-0.4-0.6-0.8-1-1.3-1.6c-0.2-0.2-0.3-0.4-0.3-0.5c0-0.5,0.5-0.6,0.7-0.6C125.7,5.4,127.3,7.3,127.3,7.8
		 M128.5,5.6c0.5,0.6,0.6,0.8,0.6,1c0,0.3-0.3,0.6-0.6,0.6c-0.3,0-0.4-0.1-0.6-0.6c-0.4-0.6-0.9-1.2-1.3-1.6
		c-0.1-0.2-0.2-0.3-0.2-0.5c0-0.5,0.5-0.6,0.7-0.6C127.4,4.2,128,4.9,128.5,5.6"/>
	<path class="st0" d="M136.9,6.9c-0.3-0.5-0.4-0.6-0.4-0.8c0-0.5,0.5-0.7,0.9-0.7s0.6,0.2,1.7,2.1c0.2,0,0.6-0.1,1.1-0.1
		c2.4,0,3.9,1.5,3.9,3.5c0,2.1-1.7,3.6-4.4,3.6c-0.9,0-1.5-0.4-1.5-0.9c0-0.5,0.3-0.7,0.6-0.7c0.2,0,0.7,0.1,0.9,0.1
		c1.5,0,2.7-0.7,2.7-1.9c0-0.6-0.4-1.8-2-1.8c-1.5,0-3.5,0.8-5,1.4c1.7,4.4,2.7,7.4,2.7,7.8c0,0.5-0.5,0.8-1,0.8s-0.6-0.3-1-1.4
		c-0.5-1.7-1.3-4-2.2-6.5c-0.3,0.1-1.5,0.6-1.7,0.7c-0.4,0.2-0.5,0.2-0.6,0.2c-0.6,0-0.8-0.5-0.8-0.9c0-0.6,0.2-0.6,2.6-1.6
		c-0.2-0.4-0.9-2.1-1.1-2.5c-0.1-0.3-0.2-0.4-0.2-0.6c0-0.5,0.6-0.8,0.9-0.8c0.6,0,0.6,0.3,0.8,0.7c0.6,1.4,0.9,2,1.1,2.5
		c0.6-0.3,1.8-0.6,2.7-0.9C137.3,7.6,137.2,7.3,136.9,6.9"/>
	<path class="st0" d="M148.8,9.6c2-1.2,4-2.6,5.6-3.7c0.9-0.6,1-0.7,1.4-0.7c0.6,0,0.9,0.5,0.9,0.9c0,0.4,0,0.6-4,3
		c-0.6,0.4-3.4,2.1-3.7,2.3c-0.2,0.1-0.3,0.2-0.3,0.4c0,0.2,0.2,0.3,1.8,1.2c1.7,0.8,3.3,1.8,4.9,2.9c1.7,1.2,1.7,1.4,1.7,1.7
		c0,0.5-0.5,1-0.9,1c-0.4,0-0.5-0.1-1.6-0.9c-1.9-1.6-5-3.2-6.4-4c-1-0.6-1.7-0.9-1.7-1.8C146.6,10.9,147.2,10.6,148.8,9.6"/>
	<path class="st0" d="M162.6,7.2c0,0.7-0.6,1.4-1.4,1.4c-0.6,0-1.4-0.3-1.4-1.7c0-1.7,1.5-2.8,2-2.8c0.4,0,0.6,0.3,0.6,0.6
		s-0.2,0.4-0.4,0.5c-0.1,0.1-0.6,0.3-0.7,0.7C161.9,5.9,162.6,6.4,162.6,7.2 M165.7,7.2c0,0.7-0.6,1.4-1.4,1.4
		c-0.6,0-1.4-0.4-1.4-1.7c0-1.7,1.5-2.8,2-2.8c0.4,0,0.6,0.3,0.6,0.6s-0.2,0.4-0.4,0.5c-0.1,0.1-0.6,0.3-0.7,0.7
		C164.9,5.9,165.7,6.4,165.7,7.2"/>
	<path class="st0" d="M170.3,7.3c-0.6,0.8-1.3,1.9-1.8,1.9c-0.5,0-0.8-0.4-0.8-0.8c0-0.3,0.1-0.3,0.7-1c0.6-0.6,0.9-1.3,1.5-2.2
		c0.1-0.2,0.3-0.5,0.6-0.5c0.6,0,0.9,0.3,0.9,0.6c0,0.2,0,0.3-0.2,0.6h2.9c0.3,0,0.7,0,0.7,0.7c0,0.6-0.3,0.7-0.7,0.7h-1.7
		c0.2,0.3,0.6,1.2,0.6,1.5c0,0.6-0.7,0.6-0.9,0.6c-0.5,0-0.6-0.2-0.6-0.5c-0.1-0.3-0.5-1.4-0.6-1.7h-0.6V7.3z M173.8,12.8
		c0.1-0.5,0.2-1,0.2-1.5c-0.6,0-3.8,0.1-4.3,0.1c-0.6,0-1.1,0-1.1-0.8c0-0.5,0.3-0.6,0.4-0.6c0.2,0,0.6,0,1.8,0c0.4,0,4,0,6.8-0.5
		c0.4-0.1,1.9-0.5,2.4-0.5c0.6,0,0.7,0.6,0.7,0.8c0,0.5-0.4,0.6-0.7,0.7c-0.3,0.1-2,0.5-4.5,0.6c0,0.6-0.1,1-0.2,1.6h5.9
		c0.2,0,0.8,0,0.8,0.7s-0.6,0.7-0.8,0.7h-4.8c1.4,2.1,3.5,2.8,3.9,2.9c1.4,0.4,1.6,0.5,1.6,0.9c0,0.3-0.2,1-0.8,1
		c-0.6,0-4.8-1.1-6.2-4.4c-1.7,3.9-6.1,4.4-6.2,4.4c-0.6,0-0.8-0.6-0.8-0.9c0-0.5,0.1-0.6,1.7-0.9c0.6-0.2,2.8-1,3.7-2.8h-4.9
		c-0.2,0-0.8,0-0.8-0.7s0.6-0.7,0.8-0.7h5.4V12.8z M176.4,7.3c-0.6,0.8-1.3,1.8-1.8,1.8c-0.5,0-0.8-0.4-0.8-0.8
		c0-0.3,0.1-0.3,0.6-0.9s1-1.6,1.4-2.2c0.1-0.3,0.3-0.6,0.7-0.6c0.2,0,0.9,0.1,0.9,0.6c0,0.2-0.1,0.4-0.2,0.6h4.1
		c0.2,0,0.7,0,0.7,0.7s-0.5,0.7-0.7,0.7h-2.4c0.2,0.3,0.6,1,0.6,1.3c0,0.5-0.6,0.6-0.9,0.6c-0.3,0-0.6-0.1-0.7-0.5
		c-0.1-0.2-0.5-1.2-0.5-1.4L176.4,7.3L176.4,7.3z"/>
	<path class="st0" d="M187,5.9V5.3c0-0.6,0.5-0.6,0.8-0.6c0.5,0,0.7,0.2,0.7,0.6v0.6h2c0.2,0,0.7,0,0.7,0.7c0,0.6-0.5,0.6-0.7,0.6
		h-0.3c-0.2,1-0.2,1-0.5,2.1h0.9c0.5,0,0.6,0.3,0.6,0.7c0,0.7-0.5,0.7-0.7,0.7h-4c-0.4,0-0.5,0.2-0.5,0.5v2.1c0,1.6-0.1,3.1-0.5,4.2
		c-0.3,1.1-0.5,1.4-0.9,1.4s-0.8-0.3-0.8-0.7c0-0.2,0-0.3,0.1-0.6c0.5-1.5,0.6-2,0.6-4.4V11c0-1,0.2-1.5,1.1-1.6
		c0-0.2-0.3-1.4-0.5-2.1H185c-0.2,0-0.7,0-0.7-0.7c0-0.6,0.6-0.6,0.7-0.6C185,5.9,187,5.9,187,5.9z M191.4,15.8
		c0,0.3-0.1,0.4-0.6,0.8c-1.7,1.5-3.7,2.3-4,2.3s-0.6-0.5-0.6-0.8s0.3-0.6,0.5-0.6c1.7-0.6,2.3-1.1,3.4-1.9c0.1-0.1,0.5-0.5,0.6-0.5
		c0,0,0.2-0.1,0.3-0.1C191.2,15,191.4,15.4,191.4,15.8 M190.9,13.6c0,0.3-0.1,0.5-1.3,1.4c-0.4,0.3-1.9,1.3-2.4,1.3
		c-0.4,0-0.6-0.4-0.6-0.8c0-0.4,0-0.4,1.2-0.9c0.4-0.2,1.3-0.7,2.1-1.4c0.1-0.1,0.3-0.2,0.5-0.2C190.6,12.8,190.9,13.3,190.9,13.6
		 M190.4,11.5c0,0.3-0.4,0.6-0.8,0.8c-1.2,0.8-2.2,1.3-2.5,1.3c-0.3,0-0.6-0.4-0.6-0.7c0-0.4,0.1-0.4,1-0.8c0.4-0.2,1-0.6,1.6-0.9
		c0.5-0.3,0.5-0.4,0.6-0.4C190.2,10.9,190.4,11.4,190.4,11.5 M186.8,7.3c0.2,0.7,0.2,0.9,0.4,2.1h1.3c0.3-1,0.4-1.8,0.5-2.1
		C188.9,7.3,186.8,7.3,186.8,7.3z M194,16.9c0,0.3-0.1,0.5-1,1.1c-0.3,0.2-1.6,1.1-2,1.1c-0.6,0-0.7-0.6-0.7-0.8
		c0-0.2,0.1-0.4,0.5-0.6c0.7-0.4,1.3-0.6,1.8-1c0.6-0.5,0.6-0.5,0.8-0.5C193.8,16.1,194,16.6,194,16.9 M196.4,7.7
		c1.3,0,1.6,0.3,1.6,1.6v5c0,1.3-0.3,1.6-1.6,1.6h-3c-1.3,0-1.6-0.3-1.6-1.6v-5c0-1.2,0.3-1.6,1.5-1.6h0.5c0.2-0.4,0.3-0.7,0.4-1.2
		h-2c-0.2,0-0.7,0-0.7-0.7s0.5-0.7,0.7-0.7h5.8c0.2,0,0.7,0,0.7,0.7s-0.5,0.7-0.7,0.7h-2.3c-0.2,0.6-0.3,0.7-0.4,1.2
		C195.2,7.7,196.4,7.7,196.4,7.7z M193.2,10h3.2V9.3c0-0.3-0.1-0.5-0.5-0.5h-2.3c-0.3,0-0.5,0.2-0.5,0.5V10z M196.4,11.1h-3.2v1.1
		h3.2V11.1z M193.2,13.4v0.8c0,0.3,0.1,0.5,0.5,0.5h2.3c0.3,0,0.5-0.2,0.5-0.5v-0.8H193.2z M197.2,16.7c0.3,0.3,0.6,0.5,1.2,0.9
		c0.2,0.1,0.4,0.3,0.4,0.6c0,0.4-0.4,0.8-0.7,0.8c-0.5,0-1.4-0.8-1.8-1.3c-0.5-0.5-0.6-0.6-0.6-0.8c0-0.3,0.3-0.7,0.8-0.7
		C196.5,16.1,196.5,16.1,197.2,16.7"/>
	<path class="st0" d="M200.8,5.6c0-0.7,0.6-1.4,1.4-1.4c0.5,0,1.4,0.3,1.4,1.7c0,1.7-1.5,2.8-2,2.8c-0.4,0-0.6-0.3-0.6-0.6
		s0.2-0.4,0.4-0.5c0.4-0.2,0.6-0.4,0.7-0.7C201.5,6.9,200.8,6.4,200.8,5.6 M203.9,5.6c0-0.7,0.6-1.4,1.4-1.4c0.6,0,1.4,0.3,1.4,1.7
		c0,1.7-1.5,2.8-2,2.8c-0.4,0-0.6-0.3-0.6-0.6s0.2-0.4,0.4-0.5c0.4-0.2,0.6-0.4,0.7-0.7C204.6,6.9,203.9,6.4,203.9,5.6"/>
	<path class="st0" d="M214.2,14.9c-0.4,0.9-1.1,2.7-2.6,2.7c-1.4,0-3.2-2-3.2-5.1c0-3.7,2.8-6.7,7-6.7c4.1,0,6.4,2.9,6.4,6.1
		c0,4.7-4.2,6.4-5,6.4c-0.6,0-0.8-0.5-0.8-0.9c0-0.4,0.1-0.5,0.9-0.9c1.6-0.8,3.1-2.1,3.1-4.6c0-0.6-0.1-4-4-4.5
		C215.8,8.6,215.4,11.8,214.2,14.9 M210,12.6c0,1.7,0.8,3.2,1.5,3.2s1.1-1.3,1.4-2.3c0.6-1.7,1-3.6,1.3-6.1
		C210.3,8.2,210,11.6,210,12.6"/>
	<path class="st0" d="M227,15.7c-0.8,2.1-0.9,2.3-1.5,2.3c-0.3,0-0.9-0.2-0.9-0.7c0-0.2,0-0.3,0.6-1.5c0.5-1.1,1.6-3.9,2.2-6.6
		c-0.8,0-1.5,0-1.7,0c-0.8,0-1.2-0.1-1.2-0.8c0-0.6,0.3-0.8,0.8-0.8c0.5,0,2,0,2.4,0c0.1-0.4,0.4-1.8,0.5-2.2
		c0.1-0.2,0.3-0.5,0.6-0.5c0.5,0,0.9,0.3,0.9,0.6c0,0.3-0.3,1.5-0.4,1.8c0.9-0.1,1.7-0.2,2.2-0.4c0.1,0,0.6-0.1,0.6-0.1
		c0.6,0,0.7,0.5,0.7,0.8c0,0.6-0.5,0.6-0.7,0.7c-0.6,0.2-2.2,0.4-3.4,0.5C228.3,12,227.5,14.2,227,15.7 M230.4,13.7
		c0.5,0,0.8,0.3,0.8,0.6c0,0.2-0.1,0.4-0.4,0.7c-0.2,0.2-0.3,0.5-0.3,0.7c0,0.8,1.4,1,3,1c0.6,0,1.6-0.1,2-0.1
		c0.1,0,0.8-0.1,0.9-0.1c0.3,0,0.7,0.2,0.7,0.8c0,0.4-0.2,0.7-0.6,0.8c-0.5,0.2-1.7,0.2-2.8,0.2c-1.7,0-5.1,0-5.1-2.5
		C229,15,229.7,13.7,230.4,13.7 M231.6,9.6c0.5-0.1,1.7-0.2,2.9-0.2c2.4,0,2.8,0.2,2.8,0.9c0,0.6-0.3,0.8-0.8,0.8
		c-0.1,0-0.7,0-0.8-0.1c-0.6,0-1.1-0.1-1.6-0.1c-0.6,0-1.3,0-1.9,0.1c-0.5,0-0.5,0-0.6,0c-0.3,0-0.7,0-0.7-0.7
		C230.7,9.9,230.9,9.7,231.6,9.6"/>
	<path class="st0" d="M242.3,17.4c-1,0-2.3-0.9-2.3-3.1c0-1,0.3-3.1,2.2-4.9c-0.2-0.6-0.6-2.1-0.6-2.6c0-0.6,0.5-0.7,0.9-0.7
		s0.6,0.2,0.7,0.6c0.1,0.3,0.4,1.6,0.4,1.8c1.4-0.8,2.7-0.9,3.4-1c0.1-0.4,0.2-1.2,0.4-1.7c0.1-0.5,0.5-0.6,0.7-0.6s0.9,0.1,0.9,0.7
		c0,0.4-0.2,1.1-0.3,1.7c2.8,0.4,4.8,2.3,4.8,5.2c0,5.1-5.5,5.8-5.8,5.8c-0.6,0-0.8-0.5-0.8-0.9c0-0.6,0.3-0.6,0.9-0.7
		c0.8-0.2,4-0.9,4-4.1c0-1.6-0.9-3.3-3.4-3.7C246.2,16.8,243.3,17.4,242.3,17.4 M242.7,11.1c-0.9,1.1-1.3,2.4-1.3,3.2
		c0,0.5,0.1,1.6,0.9,1.6c0.7,0,1.6-0.9,1.8-1.3C243.5,13,242.9,11.6,242.7,11.1 M244,10c0.4,1.3,0.6,1.7,1.3,3
		c0.3-0.5,0.9-1.8,1.5-4C245.3,9.2,244.5,9.7,244,10"/>
	<path class="st0" d="M257.4,6c0.1-0.3,0.3-0.4,0.7-0.4s0.9,0.3,0.9,0.7c0,0.2,0,0.4-0.2,0.7c-0.4,1.7-0.6,3.7-0.6,5.4
		c0,1.6,0.2,2.9,0.5,4.1c0.2,0.6,0.2,0.7,0.2,0.9c0,0.6-0.6,0.7-0.8,0.7c-0.5,0-0.6-0.2-0.8-0.6c-0.3-0.6-0.6-2.6-0.6-5.2
		C256.5,10.4,257,6.8,257.4,6 M262,12.6c0.3,0,0.7,0.2,0.7,0.6c0,0.2-0.1,0.3-0.2,0.5c-0.4,0.6-0.5,0.7-0.5,1c0,1,1.3,1.2,3.1,1.2
		c0.8,0,1.5-0.1,2.4-0.2c0.4,0,0.5,0,0.6,0c0.7,0,0.8,0.6,0.8,0.8c0,0.6-0.4,0.7-0.6,0.8c-0.4,0.1-1.8,0.3-3.1,0.3
		c-1.9,0-4.8-0.2-4.8-2.6C260.6,14.2,261,12.6,262,12.6 M267.5,8.6c-0.1,0-1.7,0-2,0c-0.6,0-1.4,0-2.6,0.1c-0.2,0-1,0-1.1,0
		c-0.2,0-0.7,0-0.7-0.8c0-0.6,0.5-0.8,0.9-0.8c0.5-0.1,2.1-0.2,3.5-0.2c2.6,0,2.9,0.1,2.9,0.8C268.3,8.5,267.8,8.6,267.5,8.6"/>
</g>
</svg>
