<svg width="500" height="188" viewBox="0 0 500 188" fill="none" xmlns="http://www.w3.org/2000/svg">
<g clip-path="url(#clip0_1_629)">
<path d="M53.325 79.3783C51.0084 81.478 47.6622 82.1808 45.5711 82.4469C41.3052 82.9791 36.8889 81.5619 34.0748 78.1694C31.7611 75.3958 30.5753 71.8067 28.3166 68.9348C24.7506 64.3912 19.0472 61.4152 13.1762 62.465C1.56708 64.5705 -3.70241 78.1087 2.86277 87.4995C12.2449 100.919 33.3402 98.5967 44.1684 89.2984C47.5407 86.4062 50.6873 83.1902 53.3279 79.3783" fill="#4F2170"/>
<path d="M446.678 79.3754C448.997 81.4809 452.332 82.1808 454.434 82.4468C458.7 82.9819 463.117 81.5676 465.928 78.1722C468.239 75.3958 469.433 71.8095 471.686 68.9376C475.258 64.394 480.958 61.4151 486.829 62.4679C498.433 64.5734 503.702 78.1115 497.134 87.5023C487.758 100.919 466.662 98.5995 455.843 89.3012C452.468 86.4091 449.315 83.1901 446.678 79.3754Z" fill="#4F2170"/>
<path d="M408.022 7.80653C407.73 7.79496 380.023 7.79496 379.765 7.80653C376.729 7.89908 374.218 10.7102 374.074 13.6024C373.92 16.6768 376.593 19.7251 379.765 19.8755C380.06 19.887 407.764 19.887 408.022 19.8755C411.061 19.7858 413.572 16.9717 413.713 14.0796C413.87 11.0024 411.197 7.9627 408.022 7.80653Z" fill="#4F2170"/>
<path d="M231.559 68.0175C231.172 66.4152 230.967 64.8361 230.854 63.2454C230.834 60.9462 230.834 57.7243 230.834 54.7541C231.123 44.5043 233.037 26.4689 219.132 26.4689C209.741 26.4689 204.18 34.3702 202.603 36.9529C202.378 29.7515 196.698 24.5225 188.015 24.5225C182.477 24.5225 179.186 28.9301 179.186 28.9301C179.186 28.9301 184.588 30.8042 184.588 38.0635C184.646 43.2607 184.577 68.5699 184.588 68.6769C184.799 73.1626 187.934 77.3678 193.539 77.3678C199.144 77.3678 202.624 73.0585 202.624 68.6711V46.2251C203.404 42.555 205.469 38.8097 208.581 38.8097C212.619 38.8097 212.844 43.2983 212.865 43.2983L212.844 65.027C212.865 65.7327 212.954 66.4123 213.076 67.0775C213.275 68.2084 213.619 69.264 214.111 70.23C216.266 74.6058 221.029 77.4603 227.432 77.4603C232.968 77.4603 236.256 73.0556 236.256 73.0556C236.256 73.0556 233.008 71.9103 231.554 68.0146" fill="#4F2170"/>
<path d="M365.211 68.0175C364.821 66.4153 364.609 64.8362 364.505 63.2455L364.52 9.46889C364.52 4.23989 360.28 0 355.051 0C349.822 0 345.582 4.23989 345.582 9.46889L345.594 57.0939C345.64 61.383 345.221 65.7675 347.245 69.7095C349.388 74.0882 354.681 77.4633 361.078 77.4633C366.628 77.4633 369.911 73.0586 369.911 73.0586C369.911 73.0586 366.669 71.9133 365.208 68.0175" fill="#4F2170"/>
<path d="M153.593 26.001C139.381 26.001 127.861 37.5175 127.861 51.7324C127.861 65.9473 139.381 77.461 153.593 77.461C167.805 77.461 179.324 65.9416 179.324 51.7324C179.324 37.5233 167.799 26.001 153.593 26.001ZM153.784 66.5344V66.546C153.761 66.546 153.746 66.5402 153.726 66.5402C153.706 66.5402 153.691 66.546 153.674 66.546V66.5344C148.815 66.4448 146.38 60.8629 146.38 51.7353C146.38 42.6077 149.466 37.0287 153.674 36.9304C153.691 36.9304 153.708 36.9304 153.726 36.9304C153.746 36.9304 153.761 36.9304 153.784 36.9304C157.986 37.0316 161.075 42.6222 161.075 51.7382C161.075 60.8543 158.645 66.4477 153.784 66.5373" fill="#4F2170"/>
<path d="M289.435 68.0175C289.042 66.4153 288.833 64.8362 288.729 63.2455L288.744 9.47179C288.744 4.24278 284.504 0 279.275 0C274.046 0 269.803 4.23989 269.803 9.47179L269.766 34.94C267.487 31.7703 262.472 26.4111 254.567 26.4111C232.818 26.4111 231.445 65.1399 246.359 74.7187C250.565 77.417 256.904 78.1111 261.702 76.8646C265.017 75.9999 270.237 72.7462 271.079 68.8592C271.2 69.1426 271.327 69.4289 271.472 69.7123C273.618 74.0911 278.911 77.4633 285.305 77.4633C290.852 77.4633 294.138 73.0586 294.138 73.0586C294.138 73.0586 290.896 71.9133 289.435 68.0175ZM261.211 64.8882V64.8969C261.19 64.8969 261.176 64.8969 261.159 64.8969C261.138 64.8969 261.127 64.8969 261.101 64.8969V64.8882C256.242 64.8159 253.81 59.9456 253.81 51.995C253.81 44.0445 256.89 39.1857 261.101 39.0961V39.0903C261.124 39.0903 261.135 39.0961 261.159 39.0961C261.179 39.0961 261.19 39.0903 261.211 39.0903V39.0961C265.422 39.1857 268.505 44.0503 268.505 51.995C268.505 59.9398 266.066 64.8159 261.211 64.8882Z" fill="#4F2170"/>
<path d="M338.705 61.5426C338.705 61.5426 335.929 65.3487 325.152 65.3487C314.376 65.3487 312.065 56.973 312.065 56.973C327.767 56.973 340.938 55.9232 340.938 43.2093C340.938 30.4954 326.57 26.3047 318.049 26.3047C303.982 26.3047 293.706 37.5233 293.706 52.3311C293.706 69.0073 307.091 77.4668 318.2 77.4668C337.765 77.4668 338.705 61.5455 338.705 61.5455M311.047 48.8143C311.6 44.7566 312.572 39.6433 316.221 37.2746C319.252 35.3051 323.498 37.5465 323.562 41.3381C323.631 45.3408 321.043 48.071 317.439 48.8259C317.057 48.9097 310.995 49.2105 311.047 48.8143Z" fill="#4F2170"/>
<path d="M414.468 61.5426C414.468 61.5426 411.691 65.3487 400.915 65.3487C390.139 65.3487 387.828 56.973 387.828 56.973C403.53 56.973 416.7 55.9232 416.7 43.2093C416.7 30.4954 402.332 26.3047 393.812 26.3047C379.745 26.3047 369.469 37.5233 369.469 52.3311C369.469 69.0073 382.854 77.4668 393.962 77.4668C413.528 77.4668 414.468 61.5455 414.468 61.5455M386.81 48.8143C387.362 44.7566 388.334 39.6433 391.984 37.2746C395.015 35.3051 399.261 37.5465 399.324 41.3381C399.394 45.3408 396.805 48.071 393.202 48.8259C392.82 48.9097 386.758 49.2105 386.81 48.8143Z" fill="#4F2170"/>
<path d="M449.998 62.9158H439.208C440.003 62.9158 447.985 56.1857 450.629 53.9414C457.561 48.0588 470.026 39.5703 466.394 28.5773L466.402 28.6525C465.737 26.0351 463.718 24.5254 463.718 24.5254C463.718 24.5254 462.964 26.6627 460.401 27.62C459.354 27.8745 458.307 28.0654 457.263 28.1261C456.401 28.1435 427.104 28.1261 427.104 28.1261C423.142 28.1203 419.821 31.3075 419.766 35.0673C419.72 38.8589 422.855 41.8985 426.87 41.9506L443.962 42.0605C436.038 46.4797 426.577 51.7116 421.774 59.6997C419.032 64.2866 416.093 71.3551 417.21 76.7778C421.007 73.4143 430.974 70.1548 438.56 71.7368C441.4 72.3297 444.419 73.7787 446.875 75.3144C461.101 84.2136 469.653 66.8086 462.851 59.1357C462.851 59.1357 458.972 62.91 449.998 62.91" fill="#4F2170"/>
<path d="M129.256 73.7415C120.527 64.1713 117.8 48.2587 117.262 37.6822C116.799 28.5459 117.294 12.72 124.495 8.11572C122.083 5.08474 117.328 3.86426 113.716 3.86426C105.598 3.86426 101.685 9.27258 98.9082 13.1596C97.9914 14.4437 84.3376 33.2774 84.3376 33.2774C84.3376 33.2774 72.8558 15.5138 71.4444 13.3794C69.4951 10.4352 65.8423 5.02401 59.4246 4.08695C56.6597 3.68205 49.4901 3.31764 45.5886 8.6739C52.3157 14.0562 52.148 27.7621 50.6874 37.1182C46.3058 65.2067 34.3555 67.7952 34.3555 67.7952C40.4781 84.3296 56.2432 77.7963 60.7001 64.6138C63.5864 56.0473 65.449 45.1988 65.8799 36.2043L83.1807 62.7455C83.1807 62.7455 102.772 36.2852 102.772 36.3113C99.5445 83.1033 115.616 96.3667 129.666 96.3667C143.716 96.3667 148.517 83.5054 148.517 83.5054C140.911 83.0455 134.256 79.2221 129.258 73.7415" fill="#4F2170"/>
<path d="M173.144 88.9622C173.312 89.6505 173.401 90.3273 173.448 91.004C173.448 91.2123 173.436 115.483 173.448 115.775C173.508 117.814 175.394 119.495 177.337 119.593C179.4 119.697 181.441 117.904 181.543 115.775C181.551 115.498 181.543 93.6359 181.543 93.6359C181.525 91.7994 181.702 89.9253 180.84 88.2362C179.92 86.3621 177.656 84.9189 174.92 84.9189C172.542 84.9189 171.137 86.8046 171.137 86.8046C171.137 86.8046 172.525 87.2934 173.15 88.9593" fill="#4F2170"/>
<path d="M429.759 115.556C429.591 114.868 429.502 114.194 429.455 113.511C429.455 113.306 429.467 89.032 429.458 88.7428C429.395 86.701 427.509 85.0177 425.568 84.9223C423.506 84.8182 421.464 86.6113 421.363 88.7428C421.355 89.0205 421.363 110.879 421.363 110.879C421.383 112.713 421.204 114.59 422.066 116.279C422.986 118.153 425.25 119.596 427.989 119.596C430.364 119.596 431.769 117.711 431.769 117.711C431.769 117.711 430.384 117.219 429.759 115.553" fill="#4F2170"/>
<path d="M283.291 97.4858C279.083 97.4858 276.59 101.026 275.884 102.183L275.861 102.2C275.861 101.032 275.858 100.103 275.858 100.057C275.795 98.0208 273.909 96.4966 271.971 96.4012C269.912 96.2971 267.867 97.9311 267.766 100.057C267.76 100.335 267.76 115.553 267.766 115.758C267.827 117.794 269.715 119.478 271.653 119.573C273.715 119.677 275.754 117.884 275.858 115.758C275.861 115.599 275.864 110.633 275.864 106.356L275.896 106.336C276.246 104.693 277.168 103.013 278.565 103.013C280.373 103.013 280.474 105.026 280.483 105.026L280.465 115.758C280.526 117.794 282.415 119.478 284.353 119.573C286.415 119.677 288.454 117.884 288.558 115.758L288.546 110.148C288.546 104.381 289.148 97.4568 283.291 97.4829" fill="#4F2170"/>
<path d="M386.752 97.4858C382.544 97.4858 380.051 101.026 379.345 102.183L379.322 102.2C379.322 101.032 379.319 100.103 379.319 100.057C379.256 98.0208 377.37 96.4966 375.432 96.4012C373.373 96.2971 371.328 97.9311 371.227 100.057C371.221 100.335 371.221 115.553 371.227 115.758C371.288 117.794 373.176 119.478 375.114 119.573C377.176 119.677 379.215 117.884 379.319 115.758C379.322 115.599 379.325 110.633 379.325 106.356L379.357 106.336C379.707 104.693 380.629 103.013 382.026 103.013C383.834 103.013 383.935 105.026 383.944 105.026L383.926 115.758C383.987 117.794 385.876 119.478 387.813 119.573C389.876 119.677 391.915 117.884 392.019 115.758L392.007 110.148C392.007 104.381 392.609 97.4568 386.752 97.4829" fill="#4F2170"/>
<path d="M201.117 97.4858C196.909 97.4858 194.416 101.026 193.71 102.183L193.687 102.2C193.687 101.032 193.682 100.103 193.682 100.057C193.621 98.0208 191.732 96.4966 189.794 96.4012C187.735 96.2971 185.691 97.9311 185.589 100.057C185.584 100.335 185.584 115.553 185.589 115.758C185.653 117.794 187.539 119.478 189.479 119.573C191.538 119.677 193.58 117.884 193.684 115.758C193.69 115.599 193.69 110.633 193.69 106.356L193.722 106.336C194.072 104.693 194.995 103.013 196.394 103.013C198.202 103.013 198.303 105.026 198.312 105.026L198.292 115.758C198.352 117.794 200.241 119.478 202.179 119.573C204.241 119.677 206.283 117.884 206.384 115.758L206.372 110.148C206.372 104.381 206.974 97.4568 201.117 97.4829" fill="#4F2170"/>
<path d="M357.412 96.4707C351.043 96.4707 345.884 101.627 345.884 107.999C345.884 114.37 351.046 119.524 357.412 119.524C363.778 119.524 368.94 114.367 368.94 107.999C368.94 101.63 363.778 96.4707 357.412 96.4707ZM357.499 114.628V114.633C357.499 114.633 357.478 114.633 357.47 114.633C357.461 114.633 357.452 114.633 357.449 114.633V114.628C355.269 114.584 354.181 112.088 354.181 107.999C354.181 103.909 355.564 101.411 357.449 101.367C357.449 101.367 357.461 101.367 357.47 101.367C357.478 101.367 357.484 101.367 357.499 101.367C359.381 101.413 360.761 103.915 360.761 108.002C360.761 112.088 359.674 114.59 357.499 114.631" fill="#4F2170"/>
<path d="M314.364 99.7796C314.298 97.6452 312.291 95.881 310.26 95.7798C308.1 95.6727 305.96 97.5497 305.853 99.7796C305.853 99.9329 305.832 100.265 305.832 100.326C304.809 98.9033 302.564 96.5057 299.021 96.5057C289.278 96.5057 288.662 113.859 295.343 118.151C297.228 119.359 300.068 119.669 302.22 119.111C303.435 118.793 305.225 117.757 306.038 116.435C306.538 118.139 308.227 119.438 309.96 119.524C312.12 119.631 314.257 117.757 314.367 115.527C314.376 115.238 314.373 99.9791 314.367 99.7825M301.995 113.743C301.995 113.743 301.98 113.743 301.971 113.743H301.942C299.765 113.708 298.677 111.525 298.677 107.961C298.677 104.398 300.057 102.223 301.942 102.183C301.942 102.183 301.96 102.183 301.971 102.183C301.977 102.183 301.986 102.183 301.995 102.183C303.88 102.226 305.266 104.407 305.266 107.961C305.266 111.516 304.172 113.708 301.995 113.74" fill="#4F2170"/>
<path d="M417.739 99.7796C417.676 97.6452 415.668 95.881 413.635 95.7798C411.478 95.6727 409.34 97.5497 409.231 99.7796C409.228 99.9329 409.207 100.265 409.207 100.326C408.186 98.9033 405.939 96.5057 402.396 96.5057C392.653 96.5057 392.037 113.859 398.718 118.151C400.603 119.359 403.443 119.669 405.592 119.111C406.807 118.793 408.603 117.757 409.413 116.435C409.91 118.139 411.599 119.438 413.332 119.524C415.492 119.631 417.629 117.757 417.736 115.527C417.745 115.238 417.739 99.9791 417.736 99.7825M405.375 113.743C405.375 113.743 405.361 113.743 405.352 113.743H405.326C403.151 113.708 402.058 111.525 402.058 107.961C402.058 104.398 403.44 102.223 405.326 102.183C405.326 102.183 405.343 102.183 405.352 102.183C405.361 102.183 405.367 102.183 405.375 102.183C407.261 102.226 408.643 104.407 408.643 107.961C408.643 111.516 407.553 113.708 405.375 113.74" fill="#4F2170"/>
<path d="M343.344 101.951C343.248 99.9407 341.666 98.3616 339.676 98.1939C339.555 98.1823 339.448 98.1592 339.332 98.1592C337.527 98.1592 335.26 99.7181 335.26 101.688L335.272 109.152H335.26C335.286 111.48 335.257 115.686 335.26 115.732C335.355 117.742 336.937 119.321 338.924 119.489C339.046 119.503 339.153 119.523 339.268 119.523C341.07 119.523 343.341 117.965 343.341 115.995L343.332 109.76H343.341C343.312 107.429 343.344 101.997 343.341 101.948" fill="#4F2170"/>
<path d="M343.316 91.858C343.316 94.0733 341.52 95.8665 339.304 95.8665C337.089 95.8665 335.293 94.0733 335.293 91.858C335.293 89.6426 337.086 87.8438 339.304 87.8438C341.523 87.8438 343.316 89.6397 343.316 91.858Z" fill="#4F2170"/>
<path d="M261.323 97.2083C258.92 97.3067 257.731 99.0969 256.094 101.347C256.083 101.364 256.097 100.309 256.094 100.268C256.031 98.2322 254.148 96.5489 252.21 96.4506C250.145 96.3465 248.106 98.1396 248.002 100.268V115.811H247.996C248.057 117.85 249.943 119.533 251.883 119.628C253.925 119.729 255.947 117.971 256.083 115.871H256.1V106.027C256.221 104.583 256.849 102.782 258.012 102.787C259.654 102.802 257.957 106.773 261.722 106.773C267.125 106.773 267.703 96.9452 261.32 97.2083" fill="#4F2170"/>
<path d="M244.817 112.381C244.817 112.381 243.571 114.087 238.741 114.087C233.911 114.087 232.867 110.33 232.867 110.33C239.912 110.33 245.821 109.859 245.821 104.153C245.821 98.4463 239.374 96.5693 235.554 96.5693C229.243 96.5693 224.63 101.602 224.63 108.245C224.63 115.727 230.634 119.519 235.617 119.519C244.395 119.519 244.814 112.378 244.814 112.378M232.407 106.672C232.656 104.85 233.092 102.556 234.732 101.495C236.091 100.613 237.995 101.619 238.026 103.317C238.058 105.113 236.895 106.336 235.279 106.677C235.108 106.712 232.384 106.848 232.41 106.672" fill="#4F2170"/>
<path d="M224.141 115.263C224.141 115.263 222.035 119.524 218.146 119.524C214.944 119.524 211.005 116.695 210.84 112.603C210.837 112.565 210.817 106.674 210.802 101.751H209.715C209.145 101.751 208.142 101.413 208.142 99.935C208.142 98.4571 209.272 98.1448 209.831 98.1448H210.791C210.785 96.424 210.785 95.2411 210.788 95.1659C210.889 93.043 212.928 91.2557 214.984 91.3598C216.919 91.4552 218.848 93.1327 218.909 95.1659V98.1419H222.336C222.811 98.1419 223.91 98.4513 223.91 99.9582C223.91 101.465 222.811 101.754 222.218 101.754H218.909V110.795C218.909 113.728 221.437 115.252 224.15 115.261" fill="#4F2170"/>
<path d="M332.423 115.263C332.423 115.263 330.318 119.524 326.431 119.524C323.229 119.524 319.287 116.695 319.125 112.603C319.122 112.565 319.102 106.674 319.088 101.751H318C317.43 101.751 316.427 101.413 316.427 99.935C316.427 98.4571 317.558 98.1448 318.116 98.1448H319.076C319.07 96.424 319.07 95.2411 319.073 95.1659C319.177 93.043 321.213 91.2557 323.27 91.3598C325.204 91.4552 327.133 93.1327 327.194 95.1659V98.1419H330.621C331.096 98.1419 332.195 98.4513 332.195 99.9582C332.195 101.465 331.096 101.754 330.503 101.754H327.194V110.795C327.194 113.728 329.722 115.252 332.435 115.261" fill="#4F2170"/>
<path d="M21.8589 177.731C21.8589 178.029 22.0729 178.229 22.0729 178.515C22.0758 178.819 21.9254 179.082 21.7316 179.334C21.4771 179.658 21.1503 179.956 20.9854 180.285C20.407 181.448 19.6608 182.492 18.6833 183.406C18.1685 183.889 17.5929 184.172 16.9798 184.519C16.2134 184.95 15.5106 185.482 14.7442 185.922C13.9951 186.35 13.0928 186.639 12.1788 186.639C11.5194 186.639 10.8513 186.55 10.2295 186.55C9.60772 186.55 9.01194 186.599 8.38434 186.599C7.10601 186.599 7.15229 186.547 5.97518 186.11C4.827 185.685 3.7193 184.676 2.9095 183.707C2.9095 183.903 2.90661 184.112 2.90082 184.6C2.89793 184.904 2.89793 185.462 2.79382 185.977C2.67235 186.596 2.40338 187.154 1.79603 187.154C1.31304 187.154 1.1048 187.044 0.737499 186.741C0.430931 186.489 0.274754 186.084 0.185097 185.717C0.0751957 185.251 0.0404899 184.921 0.0404899 184.626C0.0404899 184.126 0.138822 183.724 0.138822 182.932C0.138822 182.353 0.127255 180.922 0.127255 179.38C0.127255 177.384 0.147499 175.212 0.234263 174.469C0.292106 173.986 0.312353 173.33 0.529264 172.896C0.639165 172.67 0.702793 172.514 0.95441 172.262C1.07877 172.135 1.35063 171.933 1.55019 171.933C1.76421 171.933 1.9869 172.164 2.05921 172.268C2.29926 172.612 2.49014 173.136 2.54798 173.529C2.6145 174.012 2.6521 175.108 2.67235 176.291C2.69259 177.153 2.70994 178.064 2.73308 178.804C2.7996 179.461 2.91818 180.146 3.22764 180.641C3.61519 181.263 4.05768 181.656 4.44234 182.258C4.87616 182.937 5.16249 183.302 6.02146 183.432C6.50444 183.507 7.99101 183.869 8.70537 183.869C9.41684 183.869 9.59904 183.571 10.2237 183.264C10.8687 182.946 11.7421 183.076 12.3495 182.703C12.8296 182.414 13.5237 181.78 13.7984 181.303C14.0703 180.835 14.2178 180.355 14.2178 179.915C14.2178 179.637 14.1571 179.348 14.0327 179.027C13.7811 178.368 13.3675 177.781 13.0581 177.147C12.7023 176.421 12.4854 175.661 12.0545 174.964C11.1926 173.567 9.92875 172.517 8.88468 171.265C7.86086 170.041 6.75895 168.867 5.6715 167.69C4.53489 166.461 3.4272 165.162 2.4323 163.823C1.46054 162.516 1.05274 160.763 0.665195 159.228C0.341274 157.932 0 156.549 0 155.187C0 153.333 0.697007 152.026 1.56754 150.548C2.39759 149.134 3.61808 147.977 5.00342 147.144C6.30489 146.366 7.19567 146.094 8.8037 145.958C9.7263 145.88 10.0213 145.458 11.0972 145.458C11.7826 145.458 12.3292 145.637 12.9944 145.765C13.6105 145.886 14.3132 146.213 14.99 146.482C15.7969 146.806 16.5604 147.109 17.0868 147.668C17.1389 146.791 17.1649 146.158 17.376 145.741C17.4859 145.516 17.5496 145.36 17.8012 145.108C17.9255 144.981 18.3333 144.778 18.53 144.778C18.744 144.778 18.9696 145.007 19.039 145.114C19.2762 145.461 19.4699 145.984 19.5278 146.378C19.6059 146.942 19.6608 148.905 19.6608 150.117C19.6608 151.205 19.6088 152.281 19.6088 152.957C19.6088 154.551 19.7823 155.207 19.7505 156.639C19.7331 157.313 19.7592 159.196 18.6428 159.196C18.1627 159.196 17.9516 159.086 17.5843 158.779C17.2777 158.528 17.1215 158.126 17.0319 157.755C16.922 157.293 16.8873 156.963 16.8873 156.665C16.8873 156.168 16.9856 155.766 16.9856 154.976C16.9856 154.542 16.9798 153.75 16.974 152.833C16.9538 152.278 16.8786 151.743 16.7224 151.265C16.4939 150.577 16.1324 149.921 15.6379 149.397C15.1925 148.929 14.6401 148.564 13.9806 148.379C13.3878 148.211 12.6474 148.081 11.9157 148.081C11.0885 148.081 10.27 148.246 9.69159 148.709C9.21439 149.091 9.06689 149.675 8.77767 150.178C8.3988 150.834 8.13562 151.427 7.93317 152.159C7.75385 152.813 7.52537 153.319 7.52537 154.105C7.52537 154.418 7.77699 154.849 7.84062 155.155C7.93606 155.607 7.79723 156.107 7.90424 156.535C8.05464 157.139 8.77478 157.576 9.2086 157.995C9.73786 158.504 9.89693 159.175 10.3076 159.771C10.8253 160.515 11.4847 161.148 12.1702 161.758C12.7168 162.247 13.275 162.721 13.7811 163.227C14.8309 164.271 15.9647 165.232 16.9422 166.339C17.405 166.863 17.6971 167.589 18.1974 168.066C18.3623 168.225 18.6023 168.28 18.7614 168.433C18.9927 168.659 19.1055 169.012 19.2964 169.263C19.7505 169.853 20.3752 170.345 20.7714 170.973C21.1387 171.563 21.2631 172.317 21.5378 172.954C21.8068 173.584 21.9341 174.246 22.1625 174.88C22.2493 175.111 22.2811 175.34 22.2811 175.562C22.2811 176.005 22.1568 176.447 22.0584 176.939C22.0093 177.182 21.8618 177.483 21.8618 177.729H21.8589V177.731Z" fill="#4F2170"/>
<path d="M52.3937 146.939C52.9923 146.939 54.1521 146.976 54.1521 147.896C54.1521 148.425 54.0798 148.555 53.8368 148.931C53.6431 149.226 53.3307 149.377 53.0473 149.466C52.6048 149.602 52.3242 149.643 52.0524 149.643C51.9222 149.643 51.098 149.637 50.1638 149.631C50.2303 150.082 50.3026 150.533 50.3026 151.011C50.3026 151.731 50.1812 152.448 50.1812 153.171C50.1812 154.273 50.3778 155.369 50.5138 156.465C50.6468 157.564 50.6873 158.669 50.7133 159.771C50.7307 160.682 50.7451 161.593 50.7885 162.501C50.8348 163.467 50.962 164.436 50.962 165.402C50.962 166.368 50.7133 167.32 50.7133 168.28C50.7133 169.24 50.7278 170.163 50.7278 171.091C50.7278 172.201 50.7046 173.309 50.5976 174.44C50.5109 175.342 50.5658 176.227 50.5282 177.13C50.4935 178.052 50.3865 178.952 50.3865 179.874C50.3865 180.719 50.7133 181.827 50.7133 182.833C50.7133 183.521 50.56 184.161 50.0394 184.632C49.2383 185.361 48.2087 185.656 47.1415 185.656C46.2999 185.656 45.4322 185.407 44.6282 185.109C43.7577 184.791 42.9595 184.401 42.3434 183.897C40.9668 182.778 40.1801 181.196 39.4802 179.6C38.6907 177.801 37.8895 176.002 37.1665 174.174C36.7558 173.133 36.3625 172.086 35.9807 171.039C35.3734 169.376 34.7978 167.696 34.2396 166.015C33.8752 164.922 33.5195 163.823 33.1638 162.73C32.8659 161.81 32.5275 160.922 32.0734 160.066C31.9201 159.771 31.7611 159.476 31.6107 159.476C31.4082 159.476 31.388 160.023 31.388 160.3C31.388 160.604 31.4285 160.928 31.4285 161.18C31.4285 162.218 31.5702 163.201 31.5875 164.236C31.6193 166.244 31.8016 168.236 31.9346 170.241C31.9751 170.842 31.9867 171.444 31.9867 172.048C31.9867 173.387 31.9201 174.721 31.9201 176.065C31.9201 177.642 31.7755 179.177 31.7755 180.736C31.7755 181.216 31.7871 181.702 31.8247 182.191C31.8247 182.781 31.6974 183.345 31.6454 183.915C32.7849 183.88 33.7971 183.848 34.3322 183.848C34.9309 183.848 36.0935 183.883 36.0935 184.803C36.0935 185.335 36.0183 185.462 35.7754 185.841C35.5816 186.139 35.275 186.292 34.9858 186.379C34.5491 186.515 34.2657 186.552 33.9909 186.555C33.8376 186.555 32.7444 186.544 31.7119 186.535C30.7228 186.523 29.7944 186.515 29.5688 186.515C28.8863 186.515 27.5964 186.573 26.9051 186.573C26.5263 186.573 26.1532 186.558 25.7801 186.506C25.407 186.454 24.9038 186.419 24.5625 186.237C24.1807 186.032 23.8105 185.491 23.8105 185.262C23.8105 185.118 23.8308 184.976 24.013 184.771C24.2299 184.528 24.736 184.346 25.0397 184.288C25.8958 184.126 27.4113 183.999 27.767 183.999C27.9579 183.999 28.1603 183.996 28.3772 183.993C28.4177 181.364 28.5855 178.885 28.5855 176.17C28.5855 175.406 28.5739 174.645 28.5421 173.888C28.4264 171.169 28.3772 168.456 28.3772 165.746C28.3772 164.173 28.3946 162.602 28.4206 161.035C28.4524 159.308 28.4958 157.582 28.545 155.855C28.6086 153.799 28.678 151.737 28.7561 149.657H26.9109C26.535 149.657 26.159 149.643 25.7859 149.591C25.4128 149.539 24.9096 149.504 24.5683 149.322C24.1894 149.119 23.8163 148.576 23.8163 148.35C23.8163 148.205 23.8395 148.061 24.0188 147.858C24.2357 147.61 24.7418 147.433 25.0455 147.378C25.9016 147.216 28.0851 147.083 28.4409 147.083C28.7966 147.083 29.5341 147.051 30.3294 147.02C30.6794 146.71 31.0438 146.43 31.3793 146.175C31.8305 145.834 32.3742 145.666 32.9179 145.666C33.7277 145.666 34.526 146.048 34.9453 146.817C35.2982 147.462 35.7551 148.032 36.0328 148.717C36.3885 149.599 36.6141 150.502 37.0161 151.364C37.3574 152.098 37.5714 152.862 37.8722 153.608C38.2077 154.444 38.5923 155.242 38.8237 156.115C39.0493 156.974 39.3298 157.81 39.5612 158.663C39.7868 159.49 39.7636 160.219 40.2293 160.977C41.1461 162.461 41.9241 164.208 42.3348 165.908C42.543 166.77 42.7715 167.516 43.1735 168.306C43.6073 169.15 43.7577 170.024 43.9544 170.943C44.1395 171.797 44.5357 172.534 44.9348 173.3C45.1228 173.662 45.3947 173.98 45.5682 174.342C45.7504 174.721 45.7822 175.134 45.921 175.525C46.1119 176.051 46.2565 176.693 46.485 177.196C46.5978 177.445 46.7193 177.575 46.8292 177.575C46.9506 177.575 47.0634 177.451 47.1386 177.17C47.1878 176.982 47.2051 176.788 47.2051 176.586C47.2051 175.565 47.1444 174.541 47.1444 173.52C47.1444 171.429 47.2572 169.353 47.1589 167.265C47.075 165.338 46.7482 163.473 46.7482 161.541C46.7482 160.185 46.7424 158.825 46.7424 157.472C46.7424 156.688 46.7482 155.91 46.7482 155.126C46.7482 153.917 46.6585 152.705 46.6585 151.494C46.6585 150.86 46.6846 150.236 46.7569 149.608C46.1669 149.625 45.5074 149.66 44.9637 149.66C44.5849 149.66 44.2089 149.643 43.8358 149.594C43.4656 149.541 42.9624 149.507 42.6182 149.325C42.2364 149.122 41.8662 148.578 41.8662 148.35C41.8662 148.205 41.8923 148.061 42.0716 147.858C42.2914 147.61 42.7917 147.433 43.0983 147.375C43.9544 147.213 46.1379 147.08 46.4937 147.08C46.7742 147.08 47.2572 147.072 47.8356 147.054C48.1567 146.742 48.55 146.539 49.0301 146.539C49.5478 146.539 49.811 146.725 49.9411 146.991C50.9505 146.959 51.902 146.933 52.3879 146.933H52.3908L52.3937 146.939Z" fill="#4F2170"/>
<path d="M70.0191 169.348C70.0133 169.081 69.9092 168.471 69.8687 168.214C69.7241 167.352 69.5737 166.742 69.5621 165.941C69.5303 164.133 69.4956 162.259 69.3973 160.457C69.3539 159.604 69.218 158.751 69.0849 157.889C68.9316 156.929 68.787 155.963 68.7697 154.974C68.7668 154.664 68.7118 153.481 68.6251 152.605C68.5441 151.772 68.3966 151.228 68.1045 151.228C67.636 151.228 67.0517 152.295 66.991 152.567C66.8001 153.235 66.6642 154.034 66.4936 154.707C66.4068 155.057 66.3721 155.39 66.3432 155.711C66.3027 156.073 66.2535 156.42 66.1291 156.778C65.8717 157.513 65.8139 158.317 65.6982 159.051C65.4582 160.59 64.9492 162.062 64.5038 163.531C64.2984 164.226 64.1769 164.934 64.0497 165.648C63.908 166.45 63.7576 167.268 63.4481 168.081C63.3209 168.413 63.0693 169.481 63.0779 169.885C63.0808 170.085 63.2139 170.085 63.4828 170.085C63.8819 170.085 64.6194 170.019 64.8161 170.019C65.302 170.019 65.7647 169.958 66.2304 169.9C66.5977 169.857 66.9679 169.816 67.3554 169.816C67.743 169.816 68.2896 169.883 68.8246 169.883C69.1601 169.883 69.4956 169.883 69.7617 169.75C69.9005 169.654 70.0249 169.509 70.022 169.345M84.7748 185.561C84.7806 185.922 84.5174 186.064 84.2542 186.382C84.0113 186.68 83.6093 186.833 83.242 186.92C82.6173 187.071 82.169 187.1 81.7149 187.097C81.3014 187.094 80.8907 187.059 80.3383 187.059C80.2313 187.059 80.0664 187.062 79.8437 187.065C79.569 187.189 79.2653 187.264 78.9674 187.342C78.6348 187.409 78.3022 187.476 77.9667 187.476C77.2408 187.476 76.4715 187.354 75.7889 187.114C75.3146 187.117 74.8403 187.117 74.3862 187.114C73.0067 187.114 71.8151 187.1 71.3321 187.047C70.8491 186.998 70.1926 186.981 69.753 186.779C69.4609 186.643 68.7697 186.232 68.7639 185.807C68.7523 185.043 69.7501 184.922 70.3401 184.832C70.6178 184.792 71.228 184.76 72.0089 184.731C71.9539 184.294 71.9337 183.843 71.9048 183.565C71.844 183.001 71.8151 182.423 71.711 181.923C71.6589 181.657 71.5693 181.434 71.5664 181.121C71.5606 180.852 71.6879 180.462 71.685 180.182C71.6792 179.849 71.4709 179.649 71.3986 179.181C71.3206 178.51 71.1123 177.842 71.0284 177.174C70.9533 176.572 70.9966 176.043 70.8665 175.438C70.7219 174.767 70.7537 174.105 70.6293 173.431C70.5541 173.029 70.4876 172.896 70.2215 172.896C70.0885 172.896 69.886 172.963 69.62 172.963C68.949 172.963 68.3011 173.012 67.6562 173.064C67.0141 173.113 66.3779 173.165 65.7445 173.165C65.2094 173.165 64.6773 173.232 64.1393 173.232C63.8993 173.232 63.1936 173.122 62.7251 173.119C62.1669 173.119 62.138 173.553 62.1438 173.929C62.1524 174.556 61.9211 175.381 61.7765 176.043C61.5277 177.179 61.3311 178.267 61.1026 179.45C60.8683 180.667 60.368 182.808 60.0267 184.034C60.5878 184.008 61.146 183.999 61.9471 183.999C62.7482 183.999 64.1509 184.037 64.2406 185.04C64.2059 185.503 64.1451 185.639 63.8501 185.995C63.6072 186.29 63.2081 186.446 62.8379 186.533C62.2681 186.669 61.9066 186.706 61.5509 186.709C61.1691 186.709 60.796 186.671 60.2002 186.671C59.3239 186.671 58.4274 186.729 57.5366 186.729C57.0478 186.729 56.5619 186.715 56.0789 186.663C55.5988 186.611 54.9481 186.576 54.4998 186.394C54.0024 186.191 53.5136 185.648 53.5078 185.419C53.5078 185.275 53.5367 185.13 53.7652 184.928C54.0429 184.679 54.6907 184.502 55.084 184.447C55.8852 184.329 56.7036 184.28 57.5134 184.222C57.5077 184.17 57.5019 184.121 57.5019 184.066C57.4903 183.398 57.6812 182.599 57.7419 182.261C57.982 180.855 58.2336 179.519 58.4707 178.114C58.6501 177.041 58.8149 175.904 59.081 174.767C59.1446 174.501 59.3962 173.631 59.3875 173.162C59.376 172.627 58.1728 172.627 57.7014 172.361C57.2965 172.162 57.0912 171.959 57.0912 171.69C57.0796 171.155 57.6147 171.022 58.2133 170.889C58.6125 170.823 59.4772 170.747 59.8763 170.421C60.206 170.152 60.1829 169.081 60.3101 168.616C60.6919 167.277 61.039 165.935 61.3802 164.668C61.7591 163.262 62.1351 161.926 62.4446 160.587C62.7598 159.254 63.0548 157.912 63.3151 156.576C63.5609 155.303 63.7605 154.045 64.1856 152.83C64.631 151.561 65.0735 150.161 65.6548 148.949L66.2362 147.746C66.508 147.185 66.6787 146.598 67.2137 146.207C68.1392 145.536 69.5419 145.337 70.7421 145.337C71.5461 145.337 72.0176 145.47 72.622 145.742C73.2323 146.008 73.238 146.41 73.6487 147.009C73.9206 147.413 74.3313 147.743 74.5366 148.148C74.7449 148.617 74.7535 149.082 74.8952 149.554C75.1816 150.488 75.144 151.555 75.3493 152.564C75.572 153.634 76.0087 154.569 76.1389 155.639C76.2979 156.908 76.3645 158.051 76.671 159.254C76.9602 160.388 77.1858 161.527 77.2668 162.727C77.3044 163.297 77.4172 163.867 77.5445 164.434C77.7151 165.194 77.9118 165.946 78.0043 166.675C78.0477 166.999 78.1345 167.696 78.2935 168.332C78.4266 168.87 78.6088 169.368 78.8575 169.553C79.0137 169.669 79.2942 169.695 79.595 169.697C79.8264 169.697 80.0635 169.686 80.266 169.686C80.8675 169.686 81.5906 169.9 81.9521 170.421C82.088 170.626 82.1574 170.756 82.1574 170.892C82.1632 171.091 82.0302 171.291 81.767 171.494C81.3737 171.826 81.044 172.228 80.5812 172.431C80.4366 172.503 80.1647 172.517 79.9189 172.546C79.7194 172.572 79.54 172.607 79.4475 172.697C79.3839 172.763 79.3839 172.833 79.3868 172.966C79.3896 173.159 79.4562 173.417 79.5256 173.686C79.6008 173.981 79.6789 174.293 79.6818 174.568L79.6933 175.302C79.6991 175.569 79.7078 175.768 79.7714 176.037C79.916 176.639 80.1271 177.243 80.2052 177.845C80.2775 178.429 80.4337 179.03 80.5754 179.635C80.7258 180.268 80.856 180.905 80.8704 181.523C80.8878 182.394 80.9601 182.863 81.1741 183.664C81.2348 183.895 81.2985 184.147 81.339 184.41C81.8219 184.395 82.3252 184.39 82.8949 184.39C83.8551 184.39 84.7662 184.844 84.7777 185.564H84.7806L84.7748 185.561Z" fill="#4F2170"/>
<path d="M107.625 184.346C107.613 185.017 107.637 186.903 106.566 186.903C106.104 186.903 105.901 186.79 105.546 186.487C105.251 186.235 105.103 185.833 105.016 185.463C104.768 184.384 104.918 183.427 104.958 182.536C104.533 183.132 103.787 184.283 103.261 184.766C101.806 186.099 100.241 186.941 98.1069 186.941C97.6702 186.941 97.2191 186.906 96.7563 186.834C95.3045 186.602 93.7658 186.099 92.3718 185.367C91.2757 184.789 90.2692 184.066 89.4681 183.213C88.5686 182.261 87.941 181.116 87.487 179.959C86.9722 178.655 86.6887 177.321 86.4892 175.895C86.2809 174.4 86.1826 172.885 86.1826 171.384C86.1826 169.883 86.2607 168.431 86.3764 166.947C86.4892 165.55 86.4516 164.145 86.6916 162.759C86.9404 161.331 87.4523 159.867 87.915 158.427C88.3951 156.94 88.8232 155.474 89.4103 154.103C89.9742 152.784 90.784 151.76 91.7124 150.685C92.6003 149.661 93.3783 148.495 94.405 147.599C95.4086 146.722 96.5799 146.352 97.8467 146.011C98.7114 145.777 99.6976 145.528 100.649 145.528C101.034 145.528 101.413 145.568 101.771 145.667C102.254 145.8 102.659 146.236 103.05 146.537C103.582 146.942 103.628 147.431 104.088 147.92C104.394 148.244 104.646 148.944 104.86 149.334C104.877 148.802 104.901 148.021 104.93 147.732C104.987 147.252 105.008 146.592 105.216 146.158C105.32 145.936 105.384 145.78 105.621 145.525C105.736 145.401 106.003 145.195 106.193 145.195C106.396 145.195 106.616 145.427 106.685 145.531C106.914 145.881 107.102 146.401 107.154 146.798C107.217 147.275 107.252 148.377 107.278 149.557C107.31 151.104 107.321 152.79 107.373 153.415C107.475 154.696 107.524 155.358 107.495 156.637C107.506 156.775 107.515 156.917 107.515 157.059C107.515 157.337 107.489 157.614 107.423 157.874C107.321 158.554 107.07 159.216 106.436 159.216C105.971 159.216 105.771 159.104 105.415 158.8C105.12 158.548 104.97 158.146 104.886 157.776C104.6 156.533 104.843 156.252 104.837 154.994C104.837 154.844 104.837 154.65 104.834 154.424C104.568 153.23 104.206 152.116 103.796 150.899C103.469 149.924 102.101 148.354 100.889 148.354C100.172 148.354 99.4865 148.805 98.9515 149.247C98.723 149.438 98.535 149.655 98.3296 149.866C98.1445 150.051 97.8091 150.257 97.6963 150.462C97.4678 150.878 97.624 151.575 97.4446 152.05C97.1786 152.755 96.979 153.38 96.8286 154.126C96.5683 155.445 96.2444 156.77 95.9986 158.103C95.747 159.436 95.5734 160.784 95.611 162.14C95.6168 162.366 95.692 162.623 95.692 162.858C95.692 163.208 95.5011 163.451 95.4924 163.803C95.4838 164.197 95.5966 164.578 95.6226 164.96C95.6342 165.157 95.6255 165.356 95.5619 165.556C95.4549 165.912 95.3941 166.085 95.3941 166.305C95.3941 166.45 95.4173 166.612 95.478 166.858C95.5243 167.074 95.5416 167.3 95.5445 167.52C95.5474 167.899 95.5069 168.286 95.5069 168.668C95.5069 170.155 96.042 171.557 96.0969 173.032C96.149 174.519 96.1981 175.945 96.5423 177.399C96.684 178.007 96.684 178.681 96.8575 179.271C97.0311 179.866 97.5227 180.361 97.7686 180.945C98.2631 182.102 99.1076 182.987 100.461 183.025C101.728 183.059 103.319 181.651 103.903 180.673C104.366 179.895 104.716 179.317 104.958 178.449C104.964 176.699 104.99 174.724 105.063 174.091C105.118 173.611 105.138 172.951 105.346 172.517C105.45 172.295 105.514 172.136 105.751 171.884C105.872 171.76 106.133 171.554 106.329 171.554C106.526 171.554 106.749 171.786 106.818 171.89C107.047 172.24 107.235 172.757 107.287 173.154C107.353 173.634 107.385 176.069 107.411 177.249C107.443 178.796 107.454 180.482 107.506 181.104C107.608 182.397 107.657 183.056 107.628 184.349" fill="#4F2170"/>
<path d="M129.452 163.374C129.01 164.106 128.223 164.968 128.223 165.807C128.223 166.376 129.336 166.423 130.493 166.926C131.656 167.435 133.111 168.603 133.652 169.754C133.958 170.402 134.288 171.03 134.574 171.672C134.895 172.392 135.164 173.133 135.291 173.945C135.416 174.741 135.511 175.186 135.85 175.918C136.176 176.629 136.228 177.468 136.428 178.226C136.581 178.816 136.549 179.547 136.755 180.1C136.862 180.386 137.142 180.617 137.287 180.883C137.458 181.193 137.729 181.528 137.825 181.867C138.01 182.52 138.369 182.995 138.635 183.593C138.93 184.27 139.271 184.418 139.939 184.759C140.318 184.953 140.61 185.392 140.61 185.841C140.61 185.997 140.575 186.156 140.494 186.3C140.231 186.783 139.329 187.081 138.505 187.081C137.68 187.081 136.523 186.951 135.372 186.624C134.163 186.28 132.874 185.066 132.286 184.53C131.734 184.027 131.341 183.495 131.011 182.925C130.658 182.309 130.383 181.647 130.074 180.93C129.478 179.539 129.354 178.648 128.877 177.184C128.558 176.213 128.362 175.212 128.139 174.217C128.003 173.615 127.859 173.017 127.665 172.433C127.578 172.169 127.352 171.559 127.13 171.036C126.841 170.356 126.514 169.772 126.028 169.772C125.834 169.772 125.632 169.873 125.412 170.11C125.068 170.483 124.657 171.013 124.359 171.432C123.925 172.033 123.656 172.826 123.567 173.561C123.509 174.015 123.416 174.532 123.416 175.012C123.416 175.119 123.422 175.226 123.434 175.328C123.471 175.678 123.494 176.687 123.491 177.3C123.491 179.137 123.607 180.239 123.491 182.072C123.454 182.679 123.416 183.293 123.321 183.888C123.966 183.877 124.489 183.868 124.807 183.868C125.614 183.868 127.176 183.906 127.176 184.825C127.176 185.358 127.078 185.485 126.748 185.864C126.491 186.162 126.071 186.315 125.689 186.402C125.097 186.538 124.712 186.575 124.348 186.578C124.18 186.578 123.194 186.581 122.054 186.587C121.669 186.916 121.227 187.047 120.767 187.047C120.209 187.047 119.628 186.856 119.087 186.601H118.129C117.213 186.601 115.74 186.595 114.815 186.595C114.306 186.595 113.8 186.581 113.294 186.526C112.796 186.477 112.12 186.442 111.66 186.257C111.145 186.055 110.645 185.514 110.645 185.285C110.645 185.144 110.679 184.999 110.925 184.797C111.217 184.548 111.891 184.371 112.305 184.316C113.456 184.152 114.65 184.021 115.119 184.021C115.414 184.021 115.839 184.019 116.345 184.007C116.302 183.874 116.247 183.741 116.177 183.614C115.399 182.26 115.278 180.814 115.278 179.27C115.278 177.465 115.321 175.654 115.367 173.841C115.419 171.889 115.472 169.931 115.472 167.984C115.472 166.342 115.338 164.708 115.338 163.062C115.338 161.509 115.518 159.973 115.518 158.409C115.518 157.443 115.66 156.508 115.66 155.525C115.66 154.767 115.547 154.015 115.526 153.258C115.492 151.924 115.521 150.704 115.532 149.428C115.315 149.443 115.495 149.478 114.815 149.478C114.306 149.478 113.8 149.463 113.3 149.411C112.799 149.359 112.125 149.321 111.66 149.142C111.151 148.94 110.647 148.396 110.647 148.165C110.647 148.023 110.679 147.878 110.925 147.676C111.217 147.427 111.897 147.251 112.305 147.196C113.456 147.031 115.07 146.933 115.538 146.933C115.625 146.933 115.781 146.93 115.998 146.927C116.342 146.49 116.86 146.221 117.496 146.215C117.655 146.212 117.826 146.224 117.999 146.256C118.485 146.343 119.194 146.557 119.732 146.846C121.802 146.802 124.015 146.756 124.813 146.756C125.611 146.756 127.182 146.791 127.182 147.711C127.182 148.24 127.086 148.37 126.757 148.749C126.496 149.047 126.077 149.2 125.692 149.287C125.068 149.428 124.677 149.466 124.29 149.466C123.986 149.466 122.803 149.46 121.421 149.452C121.684 149.943 121.898 150.432 121.895 150.99C121.895 151.279 121.834 151.548 121.834 151.901C121.834 152.13 121.912 152.243 121.962 152.488C122.095 153.104 122.115 153.778 122.225 154.435C122.259 154.64 122.274 154.848 122.274 155.057C122.274 155.49 122.219 155.927 122.219 156.367C122.219 157.266 122.433 158.171 122.549 159.077C122.638 159.774 122.922 160.422 123.055 161.107C123.159 161.651 123.225 162.197 123.225 162.75C123.225 162.943 123.22 163.14 123.199 163.337C123.159 163.753 123.159 164.135 123.168 164.557C123.179 164.919 123.075 165.405 123.075 165.807C123.075 166.067 123.162 166.599 123.428 166.599C123.694 166.599 124.006 166.131 124.171 165.801C124.553 165.029 124.917 164.254 125.299 163.481C125.577 162.917 125.877 162.362 126.187 161.813C126.722 160.861 127.289 159.927 127.804 158.964C128.217 158.197 128.628 157.422 129.033 156.65C129.591 155.592 130.14 154.524 130.681 153.457C131.277 152.289 131.861 151.112 132.434 149.937C132.483 149.839 132.521 149.761 132.553 149.689C132.237 149.686 131.928 149.666 131.616 149.622C131.257 149.57 130.777 149.535 130.447 149.353C130.083 149.151 129.724 148.607 129.724 148.379C129.724 148.234 129.747 148.089 129.921 147.887C130.132 147.638 130.615 147.462 130.907 147.404C131.731 147.242 132.677 147.109 133.198 147.109C133.438 147.109 133.724 147.106 134.048 147.097C134.117 147.048 134.192 146.996 134.276 146.95C134.58 146.779 134.855 146.721 135.132 146.721C135.424 146.721 135.722 146.788 136.061 146.849C136.266 146.886 136.376 146.935 136.454 147.028C137.573 146.993 138.635 146.959 139.173 146.959C139.745 146.959 140.862 146.996 140.862 147.913C140.862 148.445 140.795 148.575 140.558 148.954C140.373 149.249 140.075 149.4 139.8 149.489C139.378 149.625 139.106 149.663 138.843 149.666C138.698 149.666 137.455 149.654 136.205 149.645C135.983 150.175 135.754 150.493 135.471 151.031C134.829 152.24 134.351 153.463 133.727 154.655C133.015 156.023 132.521 157.558 131.902 158.978C131.234 160.517 130.32 161.94 129.455 163.374" fill="#4F2170"/>
<path d="M156.639 183.874C157.469 183.874 159.098 183.914 159.005 184.915C158.962 185.375 158.892 185.511 158.583 185.87C158.322 186.165 157.903 186.315 157.521 186.405C156.928 186.54 156.547 186.581 156.179 186.581C156 186.581 154.806 186.535 153.559 186.555C152.018 186.581 150.363 186.676 150.022 186.676C149.111 186.676 147.569 186.604 146.641 186.601C146.135 186.601 145.629 186.581 145.126 186.532C144.625 186.48 143.948 186.445 143.486 186.263C142.977 186.06 142.473 185.517 142.473 185.288C142.473 185.146 142.505 185.002 142.751 184.797C143.04 184.554 143.723 184.374 144.131 184.316C145.282 184.152 146.621 184.021 147.089 184.021C147.243 184.021 147.468 184.019 147.743 184.016C147.298 183.619 146.977 183.151 146.977 182.578C146.977 182.246 146.927 181.971 146.849 181.65C146.797 181.442 146.78 181.236 146.78 181.031C146.78 180.84 146.794 180.649 146.806 180.45C146.832 179.891 146.846 179.333 146.846 178.778C146.846 178.549 146.846 178.321 146.841 178.093C146.783 174.995 146.942 171.906 146.867 168.812C146.826 167.172 146.87 165.541 146.922 163.907C146.965 162.492 147.017 161.075 147.026 159.661C147.029 158.886 147.029 158.108 147.029 157.333C147.029 156.358 147.029 155.38 147.029 154.409C147.029 153.035 146.988 151.655 147.032 150.282C147.034 150.079 147.052 149.88 147.069 149.677C146.936 149.677 146.791 149.683 146.644 149.683C146.135 149.683 145.629 149.663 145.123 149.614C144.625 149.564 143.948 149.53 143.489 149.345C142.974 149.142 142.473 148.601 142.473 148.373C142.473 148.231 142.401 148.049 142.618 147.815C142.844 147.572 143.653 147.459 144.067 147.398C145.155 147.248 146.601 147.121 147.156 147.109C147.144 146.987 147.136 146.869 147.136 146.756C147.136 146.461 147.185 146.192 147.344 146.013C147.543 145.796 147.977 145.646 148.246 145.521C148.57 145.371 148.906 145.258 149.258 145.197C149.556 145.148 149.866 145.119 150.175 145.119C150.592 145.119 151.005 145.168 151.399 145.27C152.379 145.518 153.186 146.143 153.663 146.996C154.968 146.976 156.101 146.956 156.639 146.956C157.466 146.956 159.1 146.996 159.005 147.994C158.962 148.454 158.892 148.59 158.583 148.948C158.322 149.243 157.903 149.394 157.518 149.483C156.926 149.619 156.544 149.657 156.176 149.66C156.043 149.66 155.286 149.657 154.308 149.648L154.323 149.773C154.43 150.533 154.563 151.288 154.661 152.052C154.762 152.806 154.82 153.558 154.82 154.319C154.82 155.08 154.777 155.768 154.777 156.52C154.777 156.89 154.704 157.243 154.704 157.625C154.704 157.931 154.756 158.232 154.806 158.539C155.034 160.057 155.023 161.633 155.077 163.169C155.141 164.881 155.173 166.59 155.205 168.303C155.231 169.7 155.257 171.094 155.303 172.485C155.349 174.041 155.604 175.582 155.641 177.135C155.662 177.879 155.693 178.622 155.717 179.368C155.74 180.16 155.743 180.953 155.691 181.742C155.641 182.439 155.615 183.226 155.367 183.885C155.91 183.877 156.35 183.874 156.631 183.874H156.639Z" fill="#4F2170"/>
<path d="M189.306 146.962C189.904 146.962 191.064 147 191.064 147.919C191.064 148.449 190.992 148.579 190.749 148.955C190.555 149.25 190.243 149.4 189.959 149.49C189.517 149.626 189.236 149.666 188.964 149.666C188.834 149.666 188.01 149.66 187.076 149.655C187.142 150.106 187.215 150.557 187.215 151.034C187.215 151.754 187.093 152.472 187.093 153.195C187.093 154.296 187.29 155.393 187.426 156.489C187.559 157.588 187.602 158.693 187.625 159.794C187.643 160.705 187.657 161.617 187.701 162.525C187.747 163.491 187.874 164.459 187.874 165.425C187.874 166.391 187.625 167.343 187.625 168.303C187.625 169.252 187.64 170.186 187.64 171.114C187.64 172.225 187.617 173.333 187.51 174.463C187.423 175.366 187.478 176.251 187.44 177.153C187.406 178.076 187.299 178.975 187.296 179.898C187.296 180.742 187.625 181.85 187.625 182.856C187.625 183.545 187.472 184.184 186.951 184.655C186.15 185.384 185.121 185.679 184.054 185.679C183.212 185.679 182.344 185.43 181.54 185.133C180.67 184.814 179.871 184.424 179.255 183.921C177.879 182.802 177.092 181.219 176.392 179.623C175.603 177.824 174.802 176.025 174.079 174.197C173.668 173.156 173.274 172.109 172.89 171.062C172.285 169.399 171.707 167.719 171.149 166.039C170.784 164.945 170.429 163.846 170.073 162.753C169.775 161.833 169.437 160.946 168.983 160.089C168.829 159.794 168.67 159.499 168.52 159.499C168.317 159.499 168.297 160.046 168.297 160.324C168.297 160.627 168.338 160.951 168.338 161.203C168.338 162.241 168.479 163.225 168.497 164.26C168.528 166.267 168.711 168.26 168.844 170.264C168.884 170.866 168.896 171.467 168.896 172.072C168.896 173.411 168.829 174.744 168.829 176.089C168.829 177.665 168.685 179.201 168.685 180.76C168.685 181.24 168.696 181.726 168.734 182.214C168.734 182.804 168.607 183.368 168.555 183.938C169.694 183.903 170.706 183.872 171.241 183.872C171.84 183.872 173.003 183.906 173.003 184.826C173.003 185.358 172.927 185.485 172.685 185.864C172.491 186.162 172.184 186.315 171.895 186.402C171.458 186.538 171.172 186.576 170.9 186.579C170.747 186.579 169.654 186.567 168.618 186.558C167.629 186.547 166.701 186.538 166.475 186.538C165.793 186.538 164.503 186.596 163.811 186.596C163.433 186.596 163.059 186.582 162.686 186.529C162.313 186.477 161.81 186.443 161.469 186.261C161.087 186.055 160.717 185.514 160.717 185.286C160.717 185.141 160.74 185 160.919 184.794C161.136 184.551 161.642 184.369 161.946 184.311C162.802 184.149 164.318 184.022 164.673 184.022C164.864 184.022 165.067 184.019 165.283 184.016C165.324 181.387 165.492 178.909 165.492 176.193C165.492 175.429 165.48 174.669 165.448 173.911C165.333 171.192 165.283 168.48 165.283 165.77C165.283 164.196 165.301 162.626 165.327 161.058C165.359 159.332 165.402 157.605 165.451 155.878C165.515 153.822 165.584 151.76 165.659 149.681H163.814C163.438 149.681 163.062 149.666 162.689 149.614C162.316 149.562 161.813 149.527 161.472 149.345C161.093 149.143 160.72 148.599 160.72 148.373C160.72 148.229 160.743 148.084 160.922 147.882C161.139 147.633 161.645 147.457 161.949 147.402C162.805 147.24 164.989 147.107 165.344 147.107C165.7 147.107 166.437 147.075 167.233 147.043C167.583 146.734 167.947 146.453 168.283 146.198C168.734 145.857 169.278 145.689 169.821 145.689C170.631 145.689 171.429 146.071 171.849 146.841C172.202 147.485 172.658 148.055 172.936 148.741C173.292 149.623 173.517 150.525 173.919 151.387C174.261 152.122 174.475 152.885 174.776 153.631C175.111 154.467 175.496 155.265 175.727 156.139C175.953 156.998 176.233 157.834 176.465 158.687C176.69 159.514 176.667 160.243 177.133 161C178.049 162.484 178.827 164.231 179.238 165.932C179.446 166.793 179.675 167.54 180.077 168.329C180.511 169.174 180.661 170.047 180.858 170.967C181.043 171.82 181.439 172.558 181.838 173.324C182.026 173.685 182.298 174.004 182.472 174.365C182.654 174.744 182.686 175.158 182.824 175.548C183.015 176.074 183.16 176.716 183.388 177.22C183.501 177.468 183.623 177.599 183.733 177.599C183.854 177.599 183.967 177.474 184.042 177.194C184.091 177.006 184.108 176.812 184.108 176.609C184.108 175.588 184.051 174.565 184.051 173.544C184.051 171.453 184.163 169.376 184.065 167.288C183.981 165.362 183.654 163.496 183.654 161.564C183.654 160.208 183.649 158.849 183.649 157.495C183.649 156.711 183.654 155.933 183.654 155.15C183.654 153.941 183.565 152.729 183.565 151.517C183.565 150.884 183.591 150.259 183.663 149.631C183.073 149.646 182.414 149.684 181.87 149.684C181.491 149.684 181.115 149.666 180.742 149.617C180.372 149.565 179.869 149.53 179.524 149.348C179.143 149.146 178.772 148.602 178.772 148.373C178.772 148.229 178.799 148.084 178.978 147.882C179.198 147.633 179.698 147.457 180.005 147.399C180.861 147.237 183.044 147.104 183.4 147.104C183.68 147.104 184.163 147.095 184.742 147.078C185.063 146.765 185.456 146.563 185.936 146.563C186.454 146.563 186.717 146.748 186.847 147.014C187.857 146.982 188.808 146.956 189.294 146.956H189.297L189.306 146.962Z" fill="#4F2170"/>
<path d="M218.753 169.41C218.753 170.018 218.082 170.46 217.587 170.697C216.867 171.042 215.78 171.206 214.999 171.305C214.302 171.389 213.871 171.435 213.871 172.089C213.871 172.577 213.978 173.734 213.978 174.133C213.978 174.359 213.978 175.921 213.987 176.146C214.001 176.568 214.013 177.04 214.024 177.529C214.056 179.076 214.068 180.965 214.12 181.586C214.221 182.876 214.27 183.539 214.241 184.828C214.23 185.505 214.253 187.388 213.183 187.388C212.717 187.388 212.518 187.275 212.162 186.972C211.867 186.72 211.716 186.318 211.633 185.948C211.526 185.485 211.491 185.155 211.491 184.857C211.491 184.36 211.586 183.955 211.583 183.168V183.003C211.205 184.282 210.392 185.343 209.281 186.199C207.708 187.414 206.531 187.966 204.55 187.966C203.355 187.966 202.161 187.767 201.047 187.394C199.734 186.948 198.667 186.228 197.762 185.335C196.455 184.042 195.491 182.387 194.621 180.681C193.95 179.368 193.591 178.023 193.343 176.644C193.169 175.695 193.045 174.729 192.906 173.743C192.767 172.783 192.819 172.117 192.819 171.25C192.819 167.88 193.684 164.485 194.543 160.777C194.927 159.109 195.318 157.391 195.85 155.728C196.42 153.955 197.146 152.243 198.207 150.716C199.124 149.394 200.18 147.968 201.406 146.918C201.976 146.432 202.583 146.117 203.3 145.909C204.2 145.649 204.986 145.171 205.947 145.137C206.111 145.131 206.25 145.128 206.375 145.128C206.803 145.128 207.063 145.166 207.708 145.264C208.492 145.388 209.249 145.608 209.857 145.97C210.4 146.293 210.811 146.768 211.126 147.309C211.164 146.918 211.213 146.49 211.364 146.181C211.471 145.958 211.531 145.802 211.771 145.547C211.89 145.423 212.153 145.218 212.347 145.218C212.541 145.218 212.763 145.449 212.836 145.553C213.064 145.903 213.252 146.424 213.304 146.82C213.371 147.297 213.403 148.399 213.429 149.576C213.46 151.123 213.472 152.809 213.524 153.437C213.625 154.727 213.672 155.386 213.648 156.679C213.631 157.353 213.657 159.236 212.584 159.236C212.121 159.236 211.919 159.123 211.563 158.822C211.271 158.568 211.106 158.169 211.031 157.796C210.962 157.425 210.944 157.101 210.944 156.766C210.944 156.283 210.985 155.774 210.988 155.051C210.947 154.637 210.901 154.218 210.855 153.799C210.756 152.882 210.6 151.965 210.464 151.077C210.334 150.241 209.97 149.426 209.472 148.662C209.131 148.13 208.269 147.913 207.65 147.913C206.765 147.913 206.236 148.344 205.808 149.05C205.394 149.741 204.781 150.308 204.506 151.077C204.229 151.87 204.072 152.766 204 153.599C203.922 154.472 203.775 155.172 203.529 156.008C203.263 156.916 203.199 157.9 203.02 158.828C202.855 159.667 202.774 160.505 202.696 161.356C202.624 162.145 202.389 162.903 202.302 163.696C202.207 164.595 202.088 165.489 201.973 166.382C201.866 167.238 201.756 168.094 201.675 168.956C201.6 169.717 201.496 170.483 201.496 171.25C201.496 172.337 201.637 173.41 201.684 174.495C201.744 175.958 202.21 177.439 202.49 178.879C202.597 179.449 202.719 180.03 202.881 180.594C203.086 181.329 203.361 182.04 203.772 182.685C204.359 183.611 205.383 184.672 206.568 184.666C207.555 184.661 208.307 183.883 208.824 183.122C209.631 181.933 210.077 180.603 210.343 179.229C210.577 178.02 210.675 176.777 210.756 175.559C210.814 174.715 210.837 173.535 210.843 172.69C210.843 172.54 210.849 172.375 210.849 172.219C210.849 171.574 210.823 171.374 209.9 171.374C209.16 171.374 208.359 171.478 207.575 171.478C206.892 171.478 206.224 171.397 205.623 171.097C205.371 170.969 205.226 170.825 205.218 170.651C205.209 170.518 205.281 170.362 205.443 170.183C205.811 169.781 206.195 169.72 206.603 169.515C207.422 169.107 208.362 169.006 209.325 168.852C210.192 168.716 211.077 168.647 211.896 168.577C212.567 168.525 213.241 168.499 213.914 168.499C214.933 168.499 216.517 168.404 217.168 168.404C217.911 168.404 218.762 168.656 218.762 169.416" fill="#4F2170"/>
<path d="M263.116 183.891C263.923 183.891 265.485 183.929 265.485 184.849C265.485 185.378 265.387 185.508 265.057 185.884C264.8 186.179 264.38 186.332 263.998 186.419C263.406 186.555 263.021 186.596 262.654 186.596C262.518 186.596 261.751 186.593 260.774 186.587C259.918 187.058 258.908 187.362 257.919 187.362C257.326 187.362 256.742 187.255 256.204 187.009C255.932 186.885 255.686 186.731 255.475 186.558C254.677 186.567 253.945 186.61 253.121 186.61C252.612 186.61 252.106 186.593 251.6 186.543C251.099 186.491 250.423 186.457 249.96 186.274C249.451 186.072 248.948 185.528 248.948 185.3C248.948 185.155 248.98 185.014 249.225 184.808C249.52 184.565 250.197 184.383 250.605 184.325C251.759 184.163 253.347 184.036 253.818 184.036H254.047C253.98 183.767 253.922 183.498 253.879 183.223C253.607 181.601 253.483 179.938 253.347 177.867C253.211 175.764 253.263 173.647 253.167 171.582C253.078 169.711 253.04 167.84 252.997 165.972C252.953 164.141 252.91 162.31 252.812 160.485C252.725 158.799 252.595 156.506 252.595 155.864C252.595 155.566 252.52 155.401 252.41 155.401C252.346 155.401 252.277 155.493 252.23 155.678C252.042 156.425 251.987 157.206 251.823 157.957C251.461 159.629 251.137 161.309 250.758 162.975C250.388 164.583 249.974 166.2 249.784 167.837C249.688 168.667 249.503 169.46 249.295 170.246C249.087 171.053 248.852 171.86 248.693 172.696C248.52 173.575 248.369 174.477 247.921 175.14C247.516 175.733 246.874 176.126 245.755 176.126C244.485 176.126 243.126 175.643 242.229 174.787C241.052 173.665 240.67 171.848 240.294 170.333C239.875 168.653 239.56 166.943 239.204 165.251C239.135 164.916 238.86 163.47 238.504 161.7C238.177 160.089 237.79 158.215 237.431 156.67C237.168 155.531 236.922 154.568 236.728 154.033C236.624 153.735 236.598 153.634 236.532 153.634C236.396 153.634 236.318 154.027 236.274 154.686C236.237 155.25 236.225 156.075 236.211 156.225C236.162 156.974 236.101 157.735 236.101 158.49C236.101 159.091 236.049 160.124 235.982 161.257C235.922 162.27 235.849 163.36 235.794 164.277C235.745 165.078 235.693 165.894 235.676 166.695C235.664 167.412 235.54 168.054 235.54 168.751C235.54 169.289 235.554 169.83 235.554 170.368C235.554 170.856 235.54 171.339 235.488 171.825C235.389 172.765 235.224 173.705 235.074 174.636C234.77 176.499 234.565 178.385 234.42 180.268C234.357 181.069 234.406 182.104 234.325 183.096C234.302 183.385 234.267 183.674 234.218 183.952C235.566 183.917 236.856 183.886 237.423 183.886C238.07 183.886 239.395 184.05 239.395 184.979C239.395 185.523 239.051 185.505 238.785 185.878C238.576 186.173 238.241 186.324 237.932 186.413C237.451 186.552 237.145 186.59 236.85 186.59C236.526 186.593 233.298 186.552 232.801 186.552C232.063 186.552 229.929 186.613 229.18 186.61C228.772 186.61 228.364 186.596 227.959 186.543C227.557 186.489 227.014 186.454 226.643 186.274C226.23 186.069 225.961 185.528 225.961 185.297C225.961 185.155 225.99 185.011 226.184 184.808C226.421 184.559 226.829 184.383 227.158 184.325C228.084 184.163 229.9 184.03 230.279 184.03C230.487 184.03 230.831 184.024 231.262 184.019C231.317 182.405 231.54 180.788 231.667 179.18C231.829 177.153 231.948 175.122 232.046 173.092C232.133 171.397 232.205 169.7 232.277 168.005C232.382 165.596 232.497 163.184 232.659 160.777C232.74 159.563 232.836 158.351 232.945 157.139C233.122 155.221 233.353 154.044 233.631 152.138C233.761 151.248 233.825 150.224 233.952 149.333C233.961 149.261 233.975 149.188 233.984 149.116C233.585 149.136 233.275 149.16 232.665 149.16C232.159 149.16 231.653 149.142 231.149 149.09C230.649 149.038 229.972 149.003 229.51 148.821C228.998 148.619 228.497 148.078 228.497 147.847C228.497 147.705 228.529 147.56 228.772 147.358C229.064 147.109 229.744 146.933 230.152 146.875C231.303 146.71 232.891 146.58 233.362 146.58C234.692 146.58 235.754 146.426 237.313 146.429C237.486 146.429 237.686 146.426 237.897 146.426C238.484 146.426 239.152 146.458 239.618 146.695C240.48 147.138 241.498 148.046 241.957 149.724C242.394 151.326 243.117 152.989 243.551 154.712C243.748 155.482 243.649 156.251 243.892 157.012C244.179 157.903 244.401 158.796 244.529 159.722C244.636 160.494 244.667 161.226 244.997 161.946C245.338 162.698 245.399 163.291 245.535 164.1C245.584 164.378 245.972 165.555 246.267 166.495C246.544 167.366 246.718 168.013 246.923 168.013C247.337 168.013 247.473 165.98 247.536 165.622C247.707 164.69 247.872 163.753 248.045 162.822C248.401 160.905 248.792 158.987 249.179 157.075C249.575 155.106 249.925 153.119 250.394 151.17C250.781 149.573 251.383 147.988 252.531 146.785C253.289 145.993 254.353 145.426 255.432 145.426C255.86 145.426 256.421 145.481 256.869 145.784L261.184 145.77C262.012 145.77 263.55 145.81 263.547 146.811C263.547 147.274 263.437 147.407 263.125 147.766C262.865 148.061 262.445 148.214 262.061 148.301C261.468 148.439 261.086 148.477 260.722 148.48C260.493 148.48 259.756 148.468 259.044 148.457C259.108 148.59 259.157 148.734 259.18 148.891C259.313 149.715 259.42 150.556 259.516 151.401C259.617 152.286 259.712 153.171 259.822 154.044C259.9 154.66 260.094 155.262 260.094 155.881C260.094 155.982 260.094 156.083 260.085 156.187C260.065 156.39 260.056 156.589 260.056 156.786C260.056 157.394 260.132 157.986 260.201 158.62C260.291 159.421 260.476 160.251 260.487 161.058C260.49 161.304 260.43 161.558 260.43 161.81C260.43 162.209 260.655 162.536 260.736 162.915C260.788 163.149 260.814 163.392 260.823 163.635C260.849 164.126 260.814 164.635 260.814 165.159C260.814 165.682 260.834 166.186 260.875 166.698C260.921 167.262 260.996 167.825 261.098 168.392C261.187 168.852 261.228 169.248 261.228 169.656C261.228 169.905 261.176 170.133 261.176 170.454C261.176 170.758 261.19 170.721 261.28 170.981C261.43 171.412 261.505 171.762 261.566 172.236C261.656 172.971 261.74 173.705 261.815 174.446C261.913 175.391 262 176.337 262.078 177.28C262.09 177.404 262.093 177.529 262.093 177.647C262.093 177.991 262.029 178.318 262.029 178.645C262.029 179.484 262.124 179.796 262.214 180.129C262.283 180.38 262.307 180.617 262.312 180.849C262.318 181.155 262.289 181.45 262.289 181.76C262.289 181.939 262.301 182.124 262.33 182.318C262.399 182.735 262.445 183.157 262.445 183.576C262.445 183.686 262.442 183.799 262.434 183.906C262.711 183.903 262.94 183.903 263.116 183.903V183.891Z" fill="#4F2170"/>
<path d="M283.043 169.379C283.038 169.113 282.931 168.502 282.89 168.245C282.746 167.383 282.595 166.773 282.584 165.972C282.552 164.164 282.517 162.29 282.422 160.488C282.378 159.635 282.242 158.782 282.106 157.92C281.953 156.96 281.809 155.994 281.791 155.005C281.788 154.695 281.733 153.512 281.647 152.636C281.566 151.803 281.418 151.259 281.126 151.259C280.657 151.259 280.073 152.327 280.013 152.599C279.825 153.267 279.686 154.065 279.515 154.739C279.428 155.089 279.394 155.421 279.365 155.742C279.327 156.104 279.275 156.451 279.151 156.81C278.893 157.544 278.835 158.348 278.72 159.083C278.48 160.621 277.971 162.093 277.525 163.563C277.32 164.257 277.198 164.965 277.071 165.68C276.929 166.481 276.779 167.299 276.47 168.112C276.342 168.445 276.091 169.512 276.099 169.917C276.102 170.116 276.235 170.116 276.504 170.116C276.903 170.116 277.641 170.05 277.838 170.05C278.324 170.05 278.786 169.992 279.252 169.934C279.619 169.891 279.989 169.85 280.377 169.85C280.764 169.85 281.314 169.917 281.846 169.917C282.182 169.917 282.517 169.917 282.783 169.784C282.922 169.688 283.046 169.544 283.043 169.379ZM297.799 185.592C297.805 185.954 297.542 186.095 297.279 186.414C297.036 186.711 296.637 186.865 296.266 186.951C295.642 187.102 295.193 187.131 294.739 187.128C294.326 187.125 293.915 187.09 293.363 187.09C293.256 187.09 293.091 187.093 292.871 187.096C292.593 187.22 292.293 187.296 291.992 187.374C291.659 187.44 291.327 187.507 290.991 187.507C290.265 187.507 289.496 187.385 288.813 187.145C288.339 187.148 287.865 187.148 287.411 187.145C286.031 187.145 284.84 187.131 284.357 187.079C283.876 187.03 283.217 187.012 282.777 186.81C282.485 186.674 281.794 186.263 281.788 185.838C281.777 185.074 282.775 184.953 283.365 184.863C283.639 184.823 284.25 184.791 285.033 184.762C284.978 184.325 284.958 183.874 284.929 183.597C284.868 183.033 284.84 182.454 284.735 181.954C284.683 181.688 284.594 181.465 284.591 181.153C284.585 180.884 284.712 180.493 284.709 180.213C284.704 179.88 284.495 179.681 284.423 179.212C284.345 178.541 284.137 177.873 284.053 177.205C283.978 176.603 284.021 176.074 283.891 175.47C283.746 174.799 283.778 174.136 283.654 173.462C283.579 173.06 283.512 172.927 283.246 172.927C283.113 172.927 282.913 172.994 282.644 172.994C281.973 172.994 281.326 173.043 280.681 173.095C280.039 173.144 279.402 173.196 278.769 173.196C278.234 173.196 277.702 173.263 277.164 173.263C276.924 173.263 276.218 173.153 275.75 173.15C275.191 173.15 275.162 173.584 275.168 173.96C275.177 174.588 274.945 175.412 274.801 176.074C274.552 177.211 274.355 178.298 274.127 179.481C273.893 180.699 273.392 182.839 273.051 184.065C273.612 184.039 274.17 184.03 274.972 184.03C275.773 184.03 277.175 184.068 277.265 185.072C277.23 185.534 277.17 185.67 276.875 186.026C276.632 186.321 276.232 186.477 275.862 186.564C275.293 186.7 274.931 186.737 274.575 186.74C274.191 186.74 273.82 186.703 273.225 186.703C272.348 186.703 271.452 186.761 270.561 186.761C270.072 186.761 269.586 186.746 269.103 186.694C268.623 186.645 267.973 186.607 267.524 186.425C267.027 186.223 266.538 185.679 266.532 185.45C266.532 185.306 266.561 185.161 266.79 184.959C267.067 184.71 267.715 184.534 268.108 184.479C268.91 184.36 269.728 184.311 270.538 184.253C270.532 184.201 270.526 184.152 270.526 184.097C270.515 183.429 270.706 182.631 270.766 182.292C271.006 180.887 271.258 179.55 271.495 178.145C271.674 177.072 271.839 175.935 272.105 174.799C272.169 174.533 272.421 173.662 272.412 173.194C272.4 172.658 271.197 172.658 270.726 172.392C270.321 172.193 270.116 171.99 270.116 171.721C270.104 171.186 270.639 171.053 271.238 170.92C271.637 170.854 272.502 170.779 272.901 170.452C273.23 170.186 273.207 169.113 273.335 168.647C273.716 167.308 274.063 165.966 274.405 164.699C274.784 163.294 275.16 161.958 275.469 160.618C275.784 159.282 276.079 157.943 276.34 156.607C276.585 155.335 276.785 154.076 277.21 152.862C277.655 151.592 278.098 150.192 278.682 148.98L279.261 147.777C279.532 147.216 279.703 146.629 280.238 146.239C281.164 145.568 282.566 145.368 283.772 145.368C284.573 145.368 285.042 145.501 285.649 145.773C286.26 146.039 286.265 146.441 286.676 147.04C286.948 147.445 287.359 147.774 287.564 148.179C287.772 148.648 287.781 149.114 287.923 149.585C288.209 150.519 288.168 151.586 288.374 152.596C288.596 153.666 289.033 154.6 289.163 155.67C289.322 156.94 289.389 158.082 289.695 159.285C289.985 160.419 290.21 161.558 290.291 162.759C290.329 163.328 290.442 163.898 290.569 164.465C290.74 165.226 290.936 165.978 291.029 166.706C291.072 167.03 291.159 167.727 291.318 168.364C291.451 168.902 291.633 169.399 291.882 169.584C292.038 169.7 292.319 169.726 292.619 169.729C292.851 169.729 293.088 169.717 293.29 169.717C293.892 169.717 294.615 169.931 294.977 170.452C295.112 170.657 295.182 170.787 295.182 170.923C295.188 171.123 295.057 171.322 294.791 171.525C294.398 171.857 294.068 172.262 293.606 172.462C293.461 172.534 293.189 172.549 292.943 172.578C292.744 172.604 292.559 172.638 292.469 172.728C292.408 172.794 292.408 172.864 292.408 172.997C292.411 173.191 292.478 173.448 292.55 173.72C292.622 174.015 292.7 174.324 292.703 174.602L292.715 175.337C292.721 175.603 292.729 175.802 292.793 176.071C292.938 176.673 293.149 177.277 293.227 177.879C293.299 178.463 293.455 179.065 293.597 179.669C293.747 180.302 293.877 180.939 293.892 181.558C293.909 182.428 293.982 182.897 294.196 183.698C294.256 183.929 294.32 184.181 294.36 184.444C294.843 184.43 295.347 184.424 295.916 184.424C296.877 184.424 297.788 184.878 297.799 185.598H297.802L297.799 185.592Z" fill="#4F2170"/>
<path d="M320.578 167.233C320.578 166.571 320.505 165.26 320.372 163.78C320.219 162.068 320.031 160.795 319.993 160.462C319.716 158.024 319.346 155.954 318.669 153.585C318.492 152.96 318.539 151.815 316.422 149.97C315.985 149.588 314.102 149.131 312.838 149.131C312.104 149.131 311.707 149.287 311.571 149.701C311.464 150.045 311.473 151.364 311.444 153.035C311.383 156.679 311.383 162.015 311.3 162.802C311.253 163.262 311.236 163.728 311.236 164.193C311.236 165.055 311.294 165.92 311.326 166.77C311.366 167.924 311.395 169.078 311.412 170.229C311.427 171.21 311.435 172.19 311.435 173.165C311.435 174.486 311.569 177.321 311.519 178.645C311.499 179.137 311.398 179.649 311.398 180.138C311.398 180.436 311.198 182.304 311.198 183.29C311.198 183.62 311.256 183.811 311.635 183.811C312.098 183.811 312.393 183.814 312.589 183.822C313.177 183.842 312.96 183.88 313.894 183.88C314.218 183.88 315.282 183.163 315.597 183.096C315.791 183.056 316.338 182.793 316.531 182.68C316.977 182.417 317.228 181.841 317.463 181.413C317.816 180.785 318.154 180.146 318.452 179.493C318.984 178.321 319.377 178.333 319.667 175.577C319.828 174.044 320.242 172.612 320.378 171.23C320.523 169.807 320.572 168.465 320.572 167.233M328.198 167.152C328.198 167.38 328.329 168.037 328.329 168.424C328.329 168.962 328.039 169.428 327.955 169.949C327.872 170.501 327.941 171.077 327.874 171.632C327.848 171.883 327.681 172.314 327.556 172.763C327.441 173.156 327.377 173.561 327.244 173.865C327.013 174.408 326.94 175.047 326.822 175.637C326.712 176.216 326.587 176.786 326.35 177.324C326.133 177.827 325.778 178.183 325.451 178.68C325.208 179.042 325.188 179.452 324.939 179.811C324.635 180.248 324.042 181.306 323.721 181.743C322.391 183.559 321.173 184.372 320.271 185.057C319.649 185.537 318.836 185.829 317.96 186.055C317.197 186.26 316.384 186.425 315.606 186.425C314.947 186.425 314.336 186.2 313.758 186.2C312.023 186.2 312.668 186.35 310.906 186.359C310.684 186.879 310.403 187.194 309.914 187.385C309.616 187.501 309.272 187.524 308.94 187.591C308.607 187.657 308.266 187.695 307.919 187.753C307.722 187.784 307.314 187.842 307.112 187.842C306.666 187.842 306.047 187.573 305.92 187.484C305.559 187.241 305.206 186.957 304.755 186.622C304.622 186.521 304.491 186.417 304.373 186.301C303.89 186.315 304.289 186.359 303.485 186.359C302.979 186.359 302.473 186.338 301.969 186.292C301.469 186.24 300.792 186.205 300.33 186.023C299.818 185.824 299.317 185.294 299.317 185.069C299.317 184.661 299.349 184.519 299.592 184.32C299.884 184.08 300.564 183.903 300.972 183.848C301.68 183.75 302.612 183.675 303.335 183.623C303.254 183.096 303.254 182.547 303.254 182.015C303.254 179.296 303.158 176.632 303.158 173.934C303.158 172.858 303.311 170.22 303.378 166.293C303.43 163.49 303.497 160.697 303.497 157.874C303.497 156.324 303.525 154.441 303.612 152.558C303.661 151.476 303.777 150.403 303.829 149.316C303.751 149.319 303.638 149.322 303.488 149.322C302.982 149.322 302.476 149.302 301.969 149.252C301.472 149.203 300.795 149.169 300.335 148.989C299.821 148.79 299.32 148.26 299.32 148.035C299.32 147.896 299.355 147.488 299.598 147.286C299.89 147.046 300.567 146.872 300.977 146.814C302.097 146.658 303.306 146.534 304.104 146.525C304.188 146.331 304.341 146.161 304.457 146.033C304.653 145.817 305.16 145.6 305.428 145.475C305.752 145.325 306.088 145.212 306.441 145.151C306.739 145.099 307.048 145.073 307.358 145.073C307.771 145.073 308.188 145.12 308.581 145.224C309.31 145.409 309.851 145.825 310.244 146.389C310.64 146.369 311.033 146.357 311.447 146.357C312.639 146.357 313.741 146.699 315.675 146.699C316.774 146.699 317.737 147.28 318.825 147.28C319.345 147.28 319.985 147.315 320.447 147.578C320.936 147.855 321.315 148.365 321.74 148.726C322.11 149.044 322.57 149.307 322.825 149.73C323.053 150.106 323.1 150.528 323.377 150.886C323.713 151.32 324.077 151.618 324.945 152.147C325.509 152.494 325.269 153.339 325.595 153.917C326.269 155.129 327.449 156.445 327.773 157.666C328.083 158.825 328.198 159.829 328.198 161.009C328.198 161.799 328.155 162.582 328.155 163.375C328.155 163.945 328.198 164.468 328.32 165.017C328.357 165.194 328.378 165.353 328.378 165.509C328.383 166.053 328.207 166.501 328.207 167.143" fill="#4F2170"/>
<path d="M354.077 183.247C354.274 183.38 354.401 183.579 354.401 183.866C354.401 184.418 353.996 184.919 353.554 185.214C353.091 185.523 352.515 185.584 351.983 185.685C350.774 185.899 349.554 185.928 348.348 186.125C347.752 186.223 347.159 186.333 346.558 186.414C346.112 186.472 344.871 186.486 344.056 186.498C343.764 186.55 343.535 186.61 343.307 186.613H342.604C342.387 186.952 342.104 187.177 341.681 187.325C341.352 187.44 340.973 187.467 340.605 187.533C340.238 187.6 339.862 187.634 339.48 187.692C339.264 187.724 338.809 187.779 338.587 187.779C338.098 187.779 337.413 187.51 337.271 187.42C336.877 187.177 336.496 186.905 336.01 186.573C335.628 186.573 335.365 186.57 335.267 186.57C334.387 186.57 335.032 186.631 334.139 186.631C333.65 186.631 333.164 186.613 332.681 186.561C332.201 186.509 331.55 186.474 331.105 186.292C330.613 186.09 330.13 185.347 330.13 185.118C330.13 184.976 330.162 184.832 330.396 184.626C330.68 184.383 331.327 184.204 331.721 184.143C332.606 184.019 333.595 183.906 334.468 183.869C334.431 182.885 334.457 181.5 334.457 180.071C334.457 177.911 334.376 175.655 334.361 175.024C334.356 174.715 334.341 172.8 334.275 171.519C334.208 170.276 334.185 169.029 334.17 167.783C334.165 167.294 334.136 166.802 334.136 166.316C334.136 165.57 334.286 164.835 334.289 164.092C334.292 163.548 334.237 163.01 334.237 162.47C334.237 161.787 334.312 161.11 334.405 160.436C334.57 159.242 334.749 158.036 334.784 156.83C334.815 155.491 334.778 154.158 334.778 152.819C334.778 151.766 334.804 150.71 334.908 149.652C334.497 149.669 334.815 149.707 334.078 149.707C333.589 149.707 333.1 149.689 332.62 149.64C332.137 149.588 331.489 149.553 331.044 149.371C330.552 149.169 330.072 148.425 330.072 148.194C330.072 148.052 330.104 147.908 330.338 147.705C330.619 147.457 331.273 147.28 331.666 147.222C332.724 147.069 334.477 146.942 335.269 146.927C335.275 146.904 335.284 146.884 335.29 146.861C335.359 146.624 335.611 146.499 335.805 146.372C336.267 146.068 336.817 145.964 337.343 145.822C337.736 145.718 338.191 145.614 338.621 145.611C338.783 145.611 338.937 145.623 339.087 145.655C339.336 145.704 339.556 145.843 339.784 145.941C340.053 146.057 340.337 146.143 340.62 146.222C341.175 146.378 341.693 146.65 342.251 146.783C342.439 146.832 342.633 146.843 342.824 146.843C343.197 146.843 343.579 146.791 343.937 146.783C344.547 146.768 346.494 146.774 347.098 146.788C347.662 146.806 348.229 146.829 348.793 146.878C349.444 146.93 350.089 147.005 350.734 147.109C351.124 147.173 351.518 147.243 351.902 147.335C352.125 147.092 352.374 146.919 352.512 146.919C352.651 146.919 352.799 146.95 353.004 147.185C353.247 147.465 353.551 148.035 353.585 148.434C353.75 150.21 353.681 149.415 353.776 150.511C353.901 151.893 353.927 151.884 353.927 153.377C353.927 154.149 353.889 155.653 352.969 155.653C352.44 155.653 352.313 155.563 351.934 155.245C351.639 154.996 351.489 154.594 351.399 154.224C351.263 153.654 351.225 153.287 351.223 152.937C351.22 152.55 351.26 152.182 351.26 151.586C351.26 150.991 351.301 150.421 351.26 149.843C350.737 149.952 350.196 150.013 349.672 150.013C348.981 150.013 348.319 150.042 347.639 150.135C347.02 150.221 346.401 150.297 344.446 150.372C344.157 150.386 343.868 150.441 343.584 150.485C343.35 150.522 343.09 150.563 342.939 150.774C342.801 150.968 342.818 151.242 342.815 151.474C342.809 151.789 342.87 152.093 342.905 152.405C342.965 153.007 342.971 153.617 342.989 154.221C342.997 154.646 343 155.074 343 155.502C343 156.275 342.989 157.05 342.965 157.819C342.948 158.409 342.841 158.996 342.824 159.589C342.809 160.199 342.815 160.807 342.804 161.414C342.801 161.718 342.789 162.018 342.775 162.322C342.766 162.527 342.697 162.849 342.789 163.045C342.885 163.242 343.133 163.239 343.321 163.253C343.622 163.282 343.92 163.329 344.218 163.332C346.106 163.381 346.665 163.381 347.211 163.473C347.735 163.56 348.261 163.618 348.793 163.638C348.79 163.525 348.79 163.412 348.79 163.297C348.79 162.814 348.805 162.325 348.86 161.839C348.909 161.362 348.946 160.711 349.129 160.269C349.331 159.777 349.872 159.294 350.1 159.294C350.245 159.294 350.387 159.326 350.589 159.56C350.838 159.844 351.014 160.491 351.069 160.885C351.234 161.99 351.269 163.126 351.364 164.225C351.486 165.605 351.515 166.264 351.515 167.759C351.515 168.532 351.477 170.036 350.557 170.036C350.028 170.036 349.898 169.94 349.522 169.628C349.227 169.376 349.071 168.974 348.981 168.607C348.845 168.034 348.805 167.667 348.805 167.314C348.805 166.976 348.837 166.649 348.842 166.174C347.619 166.235 345.855 166.273 343.527 166.247C342.986 166.244 342.72 166.545 342.694 167.074C342.656 167.67 342.662 168.26 342.604 168.861C342.581 169.087 342.572 169.307 342.572 169.529C342.572 169.882 342.598 170.229 342.63 170.585C342.673 171.085 342.769 171.577 342.769 172.077C342.769 172.578 342.711 173.043 342.711 173.523C342.711 174.325 342.882 175.085 342.89 175.881C342.911 177.092 342.867 178.304 342.931 179.513C342.963 180.115 343.035 180.705 343.182 181.289C343.298 181.746 343.151 182.874 343.55 183.149C343.706 183.256 344.148 183.287 345.01 183.287C345.806 183.287 346.792 183.215 347.266 183.215C348.012 183.215 348.773 183.374 349.519 183.374C350.32 183.374 350.806 183.149 351.532 183.039C351.549 182.428 351.575 181.824 351.575 181.225C351.575 180.627 351.535 180.262 351.538 179.875C351.541 179.522 351.578 179.154 351.717 178.585C351.804 178.215 351.957 177.815 352.255 177.564C352.631 177.246 352.761 177.156 353.29 177.156C354.207 177.156 354.245 178.66 354.245 179.432C354.245 180.927 354.216 181.587 354.094 182.966C354.083 183.079 354.074 183.172 354.066 183.247H354.077Z" fill="#4F2170"/>
<path d="M384.357 154.059C384.357 153.842 384.357 153.501 384.334 153.13C384.282 152.393 383.727 151.491 383.064 150.687C382.804 150.371 382.521 150.12 382.226 149.914C381.792 149.611 381.326 149.42 380.852 149.293C379.924 149.05 378.963 149.05 378.281 149.07L376.684 149.122C376.661 149.932 376.644 151.077 376.681 152.52C376.734 154.38 376.93 156.546 376.979 158.455C377.049 160.936 377.104 162.784 377.104 163.16C377.104 163.84 377.28 164.494 377.196 165.17C377.182 165.295 377.173 165.396 377.173 165.486C377.173 165.908 377.344 165.983 377.673 165.98C377.873 165.977 378.133 165.948 378.446 165.948C378.816 165.948 379.062 165.974 379.432 165.974C380.216 165.974 381.494 165.668 382.061 165.008C382.518 164.476 382.793 164.164 383.033 163.45C383.235 162.825 383.397 162.186 383.562 161.607C383.796 160.797 383.955 160.349 384.062 159.554C384.169 158.73 384.216 158.51 384.216 157.68C384.216 156.575 384.265 156.951 384.308 155.956C384.346 155.103 384.36 154.921 384.357 154.065M393.196 185.144C393.557 185.392 394.118 185.702 394.095 186.115C394.089 186.237 394.052 186.367 393.945 186.503C393.627 186.925 392.987 187.05 392.47 187.05C390.902 187.05 388.707 185.948 387.625 184.851C386.547 183.758 385.858 182.503 385.118 181.17C384.722 180.464 384.389 179.741 384.062 179.015C383.764 178.353 383.504 177.673 383.325 176.947C383.137 176.178 382.917 175.423 382.671 174.674C382.417 173.887 382.13 173.112 381.827 172.334C381.601 171.756 381.326 170.981 381.052 170.249C380.762 169.488 380.447 169.156 379.895 168.754C379.51 168.476 379.044 168.456 378.735 168.41C378.472 168.372 378.049 168.398 377.645 168.398C377.494 168.398 377.439 168.548 377.439 168.713C377.439 169.17 377.54 169.971 377.538 170.156C377.532 170.972 377.373 171.773 377.373 172.586C377.373 173.861 377.691 174.492 377.691 175.77C377.691 177.309 377.436 178.868 377.286 180.409C377.237 180.918 377.136 181.459 377.136 181.98C377.136 182.269 377.176 182.598 377.228 182.946C378.165 182.925 378.94 182.911 379.417 182.911C380.227 182.911 381.786 182.951 381.786 184.114C381.786 184.663 381.699 184.788 381.361 185.173C381.101 185.468 380.687 185.618 380.297 185.708C379.678 185.852 379.284 185.884 378.9 185.884C378.619 185.884 377.587 185.878 376.401 185.87C375.747 186.312 374.888 186.621 374.2 186.705C373.775 186.755 373.419 186.827 373.049 186.827C372.815 186.827 372.578 186.798 372.314 186.72C371.724 186.538 371.178 186.257 370.701 185.87C370.099 185.884 369.483 185.904 368.954 185.904C368.424 185.904 367.939 185.89 367.432 185.835C366.932 185.786 366.258 185.482 365.793 185.3C365.284 185.097 364.78 184.554 364.78 184.325C364.78 184.181 364.815 184.039 365.058 183.833C365.353 183.59 366.03 183.408 366.44 183.353C367.291 183.232 368.529 183.131 369.309 183.087C369.249 182.706 369.205 182.327 369.168 181.959C369.116 181.497 368.997 178.361 368.997 177.274C368.997 175.99 369.101 174.605 369.101 173.364C369.101 171.915 368.977 170.477 368.977 169.034C368.977 167.418 369.011 165.804 369.058 164.19C369.113 162.492 369.182 160.786 369.252 159.082C369.318 157.454 369.376 157.093 369.376 155.464C369.376 154.727 369.344 153.986 369.344 153.252C369.344 152.474 369.503 151.731 369.509 150.958C369.512 150.559 369.422 150.03 369.385 149.515C369.301 149.518 369.171 149.521 368.954 149.521C368.445 149.521 367.939 149.504 367.435 149.454C366.935 149.4 366.258 149.365 365.795 149.185C365.286 148.983 364.783 148.373 364.783 148.141C364.783 148 364.818 147.855 365.061 147.653C365.356 147.404 366.033 147.228 366.443 147.173C367.594 147.008 368.708 146.878 369.558 146.878C369.613 146.742 369.694 146.629 369.816 146.559C370.082 146.4 370.446 146.25 370.871 146.065C371.172 145.932 371.554 145.732 371.869 145.648C372.063 145.599 372.505 145.57 372.89 145.57C373.382 145.57 374.151 145.721 374.787 145.941C375.432 146.163 375.947 146.325 376.19 146.614C376.991 146.585 377.477 146.548 378.142 146.548C378.877 146.548 379.571 146.606 380.548 146.606C380.78 146.606 381.292 146.539 381.751 146.539C382.411 146.539 383.345 146.909 384.641 147.242C385.205 147.384 385.682 147.696 386.13 148.008C386.419 148.211 387.116 148.616 387.776 149.055C388.447 149.501 389.083 149.975 389.219 150.302C389.488 150.947 390.277 151.522 390.561 152.162C390.911 152.942 391.021 153.793 391.073 154.652C391.113 155.294 391.316 155.754 391.316 156.002C391.316 156.17 391.313 156.329 391.313 156.494C391.313 156.751 391.51 157.142 391.51 157.489C391.51 157.885 391.408 158.319 391.356 158.698C391.269 159.32 391.269 159.649 391.122 160.416C390.98 161.15 390.76 161.856 390.379 162.356C390.182 162.614 389.902 162.724 389.748 163.019C389.627 163.247 389.635 163.487 389.471 163.719C389.21 164.092 388.695 164.748 388.348 164.994C388.105 165.162 387.851 165.147 387.614 165.393C387.365 165.648 387.174 165.919 386.897 166.157C386.463 166.535 386.061 167.068 385.557 167.334C385.135 167.562 384.736 167.556 384.768 168.187C384.794 168.716 386.098 169.425 386.324 169.908C386.758 170.833 387.359 171.571 387.718 172.511C388.022 173.318 388.299 174.13 388.557 174.955C388.907 176.077 389.213 177.219 389.491 178.382C389.768 179.568 390.474 180.649 390.882 181.809C391.113 182.468 391.388 183.102 391.752 183.669C392.12 184.241 392.58 184.753 393.175 185.152L393.196 185.144Z" fill="#4F2170"/>
<path d="M409.991 183.912C410.821 183.912 412.449 183.953 412.357 184.953C412.313 185.413 412.244 185.549 411.934 185.908C411.674 186.203 411.255 186.356 410.873 186.443C410.28 186.579 409.898 186.619 409.531 186.619C409.352 186.619 408.157 186.573 406.911 186.593C405.369 186.619 403.715 186.715 403.374 186.715C402.463 186.715 400.921 186.642 399.996 186.642C399.487 186.642 398.98 186.622 398.48 186.573C397.98 186.521 397.303 186.486 396.84 186.304C396.331 186.101 395.828 185.558 395.828 185.329C395.828 185.187 395.86 185.043 396.106 184.838C396.398 184.595 397.077 184.415 397.485 184.357C398.636 184.193 399.975 184.062 400.444 184.062C400.597 184.062 400.823 184.06 401.097 184.057C400.652 183.66 400.331 183.192 400.331 182.619C400.334 182.287 400.282 182.012 400.204 181.691C400.152 181.483 400.134 181.277 400.134 181.072C400.134 180.881 400.149 180.69 400.16 180.491C400.186 179.932 400.201 179.374 400.201 178.819C400.201 178.59 400.201 178.362 400.195 178.134C400.137 175.036 400.296 171.947 400.221 168.853C400.181 167.213 400.224 165.582 400.276 163.948C400.319 162.533 400.372 161.116 400.38 159.702C400.383 158.927 400.383 158.149 400.383 157.374C400.383 156.399 400.383 155.421 400.383 154.45C400.383 153.076 400.343 151.696 400.386 150.323C400.389 150.12 400.406 149.921 400.424 149.718C400.291 149.718 400.146 149.724 399.998 149.724C399.489 149.724 398.983 149.704 398.477 149.655C397.98 149.602 397.303 149.568 396.843 149.383C396.328 149.18 395.828 148.639 395.828 148.411C395.828 148.269 395.756 148.087 395.973 147.853C396.198 147.61 397.008 147.497 397.422 147.436C398.509 147.286 399.955 147.159 400.51 147.147C400.502 147.026 400.49 146.907 400.49 146.794C400.49 146.499 400.539 146.23 400.698 146.051C400.898 145.834 401.332 145.684 401.601 145.559C401.925 145.409 402.26 145.296 402.613 145.235C402.911 145.186 403.22 145.157 403.53 145.157C403.943 145.157 404.36 145.206 404.753 145.308C405.734 145.556 406.541 146.181 407.018 147.034C408.322 147.014 409.456 146.994 409.994 146.994C410.821 146.994 412.455 147.034 412.36 148.032C412.316 148.492 412.247 148.628 411.937 148.986C411.677 149.281 411.258 149.432 410.873 149.521C410.28 149.657 409.898 149.695 409.531 149.698C409.398 149.698 408.64 149.695 407.663 149.686L407.677 149.811C407.784 150.571 407.917 151.326 408.015 152.09C408.12 152.845 408.175 153.597 408.175 154.357C408.175 155.118 408.131 155.806 408.131 156.558C408.131 156.928 408.059 157.281 408.059 157.663C408.059 157.969 408.111 158.27 408.16 158.577C408.389 160.095 408.377 161.671 408.432 163.207C408.496 164.919 408.527 166.629 408.559 168.341C408.585 169.738 408.611 171.132 408.658 172.523C408.704 174.079 408.958 175.62 408.996 177.173C409.016 177.917 409.048 178.66 409.071 179.406C409.094 180.198 409.097 180.991 409.045 181.781C408.996 182.478 408.97 183.264 408.721 183.924C409.265 183.915 409.705 183.912 409.985 183.912H409.991Z" fill="#4F2170"/>
<path d="M440.737 169.443C440.737 170.05 440.066 170.492 439.572 170.73C438.852 171.074 437.764 171.239 436.983 171.337C436.286 171.421 435.855 171.467 435.855 172.121C435.855 172.61 435.962 173.766 435.962 174.166C435.962 174.391 435.962 175.953 435.971 176.178C435.986 176.601 435.997 177.072 436.009 177.561C436.041 179.108 436.052 180.997 436.104 181.619C436.205 182.908 436.255 183.571 436.226 184.861C436.214 185.537 436.237 187.42 435.167 187.42C434.701 187.42 434.502 187.307 434.146 187.004C433.851 186.752 433.701 186.35 433.617 185.98C433.51 185.517 433.475 185.187 433.475 184.89C433.475 184.392 433.571 183.987 433.568 183.201V183.036C433.189 184.314 432.376 185.375 431.266 186.232C429.692 187.446 428.515 187.999 426.534 187.999C425.34 187.999 424.145 187.799 423.032 187.426C421.719 186.981 420.651 186.26 419.746 185.367C418.439 184.074 417.476 182.42 416.608 180.713C415.934 179.4 415.579 178.055 415.327 176.676C415.153 175.727 415.029 174.761 414.89 173.775C414.751 172.815 414.804 172.15 414.804 171.282C414.804 167.913 415.668 164.517 416.527 160.81C416.912 159.141 417.302 157.423 417.834 155.76C418.404 153.987 419.133 152.275 420.192 150.748C421.108 149.426 422.164 148 423.39 146.95C423.96 146.465 424.57 146.149 425.285 145.941C426.184 145.681 426.971 145.204 427.931 145.169C428.096 145.163 428.235 145.16 428.359 145.16C428.787 145.16 429.047 145.198 429.692 145.296C430.476 145.42 431.234 145.64 431.841 146.002C432.385 146.326 432.796 146.8 433.111 147.341C433.148 146.95 433.198 146.522 433.348 146.213C433.455 145.99 433.516 145.834 433.756 145.58C433.874 145.455 434.138 145.25 434.331 145.25C434.525 145.25 434.748 145.481 434.82 145.585C435.049 145.935 435.237 146.456 435.289 146.852C435.355 147.329 435.387 148.431 435.413 149.608C435.445 151.156 435.456 152.842 435.508 153.469C435.61 154.759 435.656 155.419 435.633 156.711C435.615 157.385 435.641 159.268 434.568 159.268C434.106 159.268 433.903 159.155 433.548 158.854C433.255 158.6 433.091 158.201 433.015 157.828C432.946 157.458 432.929 157.134 432.929 156.798C432.929 156.315 432.969 155.806 432.972 155.083C432.931 154.67 432.885 154.25 432.839 153.831C432.741 152.914 432.584 151.997 432.449 151.109C432.318 150.273 431.954 149.458 431.456 148.694C431.115 148.162 430.253 147.945 429.634 147.945C428.749 147.945 428.22 148.376 427.792 149.082C427.379 149.773 426.765 150.34 426.491 151.109C426.213 151.902 426.057 152.798 425.985 153.631C425.906 154.505 425.759 155.205 425.513 156.04C425.247 156.949 425.183 157.932 425.004 158.86C424.839 159.699 424.758 160.538 424.68 161.388C424.608 162.178 424.374 162.935 424.287 163.728C424.191 164.63 424.073 165.524 423.957 166.417C423.85 167.274 423.74 168.13 423.659 168.991C423.584 169.752 423.48 170.519 423.48 171.285C423.48 172.372 423.622 173.445 423.668 174.53C423.729 175.993 424.194 177.474 424.469 178.914C424.579 179.484 424.7 180.066 424.862 180.629C425.068 181.364 425.343 182.076 425.753 182.72C426.34 183.646 427.364 184.707 428.55 184.702C429.536 184.696 430.288 183.918 430.806 183.157C431.613 181.969 432.058 180.638 432.324 179.264C432.558 178.055 432.657 176.812 432.738 175.594C432.796 174.75 432.819 173.57 432.824 172.725C432.824 172.575 432.83 172.41 432.83 172.254C432.83 171.609 432.804 171.409 431.882 171.409C431.141 171.409 430.34 171.513 429.556 171.513C428.874 171.513 428.206 171.432 427.604 171.132C427.353 171.004 427.208 170.86 427.199 170.686C427.191 170.553 427.263 170.397 427.425 170.218C427.792 169.816 428.177 169.755 428.585 169.55C429.403 169.142 430.343 169.041 431.306 168.887C432.174 168.751 433.059 168.682 433.877 168.613C434.548 168.561 435.222 168.535 435.896 168.535C436.914 168.535 438.499 168.439 439.15 168.439C439.893 168.439 440.743 168.691 440.743 169.451" fill="#4F2170"/>
<path d="M470.585 183.917C471.394 183.917 472.956 183.955 472.956 184.875C472.956 185.404 472.858 185.534 472.528 185.91C472.268 186.205 471.854 186.361 471.467 186.448C470.845 186.59 470.452 186.624 470.073 186.624C469.344 186.624 463.698 186.587 463.1 186.584C462.189 186.584 462.857 186.642 461.925 186.642C461.419 186.642 460.916 186.624 460.41 186.575C459.91 186.523 459.233 186.488 458.77 186.306C458.261 186.104 457.758 185.56 457.758 185.332C457.758 185.187 457.79 185.042 458.036 184.84C458.331 184.591 459.007 184.415 459.415 184.357C460.453 184.212 461.388 184.091 461.905 184.071C461.434 183.712 461.156 183.359 461.087 182.584C460.951 181.112 460.919 179.628 460.919 178.148C460.919 176.745 460.948 175.336 460.948 173.934C460.948 173.023 460.936 172.117 460.896 171.212C460.855 170.264 460.792 169.324 460.824 168.378C460.832 168.06 460.933 167.551 460.936 167.128C460.936 166.833 460.887 166.579 460.719 166.463C460.615 166.394 460.422 166.365 460.181 166.365C459.493 166.365 458.429 166.588 458.064 166.617C457.495 166.669 456.928 166.721 455.028 166.721C454.102 166.721 453.639 166.55 453.417 166.55C453.258 166.55 453.154 166.57 453.154 166.868C453.154 167.296 453.159 167.687 453.159 168.068C453.159 168.566 453.151 169.046 453.107 169.572C453.07 170.015 453.055 170.457 453.055 170.906C453.055 171.611 453.09 172.317 453.13 173.023C453.133 173.118 453.136 173.214 453.136 173.306C453.136 173.986 453.015 174.619 453.015 175.29C453.015 176.033 452.974 176.771 452.931 177.508C452.893 178.226 452.853 178.94 452.853 179.654C452.853 180.658 452.679 181.459 452.676 182.468C452.676 182.951 452.78 183.431 452.835 183.914C453.663 183.943 454.767 184.094 454.767 184.863C454.767 185.392 454.672 185.522 454.342 185.901C454.082 186.199 453.663 186.353 453.281 186.439C452.694 186.578 452.315 186.616 451.948 186.619C451.927 186.63 451.904 186.645 451.881 186.659C451.577 186.833 451.459 186.783 451.193 187C450.938 187.203 451.039 187.428 450.713 187.59C450.527 187.686 450.273 187.721 450.001 187.721C449.087 187.721 448.509 187.472 448.037 187.104C447.838 186.951 447.656 186.775 447.476 186.587C446.586 186.581 445.857 186.575 445.651 186.575C444.735 186.575 445.403 186.636 444.477 186.636C443.968 186.636 443.462 186.616 442.956 186.567C442.458 186.517 441.782 186.48 441.322 186.298C440.807 186.095 440.307 185.551 440.307 185.323C440.307 185.181 440.341 185.037 440.587 184.831C440.879 184.588 441.553 184.409 441.967 184.354C442.797 184.233 444.049 184.134 444.853 184.088C444.807 183.917 444.787 183.744 444.787 183.565C444.787 183.235 444.847 182.885 444.862 182.506C444.891 181.8 444.899 181.098 444.902 180.392C444.902 179.608 444.891 178.824 444.891 178.046C444.891 177.046 444.888 176.039 444.891 175.038C444.891 173.679 444.894 172.314 444.911 170.949C444.925 170.032 444.934 169.112 444.911 168.199C444.908 167.964 444.917 167.707 444.917 167.452C444.917 167.224 444.868 166.732 444.868 166.524C444.868 166.243 444.827 166.145 444.468 166.087C444.252 166.055 443.456 165.977 442.91 165.876C442.161 165.737 441.388 165.52 441.388 165.13C441.388 164.985 441.495 164.815 441.756 164.615C442.071 164.372 442.421 164.248 442.782 164.17C443.161 164.089 443.555 164.051 443.939 163.982C444.538 163.869 444.549 163.904 444.775 163.557C444.839 163.461 444.856 163.27 444.856 163.05C444.856 161.538 444.836 159.991 444.839 158.435C444.839 155.768 444.899 153.073 445.22 150.467C445.27 150.071 445.293 149.605 445.325 149.128C444.905 149.139 445.102 149.154 444.321 149.154H443.951C443.621 149.154 443.332 149.151 442.959 149.113C442.461 149.061 441.785 149.024 441.322 148.844C440.807 148.642 440.31 148.098 440.31 147.87C440.31 147.725 440.373 147.543 440.587 147.311C440.813 147.063 441.487 146.886 441.9 146.831C443.051 146.666 444.706 146.603 445.177 146.603H445.787C446.155 145.741 446.834 145.122 448.139 145.122C449.119 145.122 450.01 145.64 450.646 146.487C451.337 146.467 451.942 146.455 452.405 146.455C453.214 146.455 455.039 146.493 455.039 147.421C455.039 147.942 454.675 148.075 454.348 148.448C454.088 148.743 453.668 148.896 453.287 148.983C452.694 149.122 452.309 149.16 451.945 149.16H451.485C451.511 149.261 451.54 149.359 451.574 149.457C451.945 150.496 452.066 151.505 452.185 152.616C452.3 153.637 452.347 154.66 452.459 155.684C452.564 156.63 452.731 157.576 452.821 158.521C452.853 158.831 452.856 159.163 452.856 159.479V159.777C452.856 160.303 452.864 160.829 452.98 161.33C453.049 161.625 453.255 161.865 453.31 162.168C453.318 162.209 453.321 162.258 453.321 162.31C453.321 162.455 453.298 162.622 453.295 162.776C453.292 163.137 453.391 163.21 453.83 163.21C454.591 163.212 457.356 162.952 457.645 162.932C458.212 162.883 458.811 162.912 459.404 162.912C459.768 162.912 460.121 162.854 460.471 162.854C460.878 162.854 461.179 162.715 461.179 162.206C461.179 161.697 461.069 160.91 461.066 160.676C461.055 159.56 461.104 158.449 461.194 157.341C461.208 157.127 461.295 156.072 461.373 154.895C461.44 153.853 461.497 152.723 461.5 151.991C461.5 151.52 461.411 150.849 461.411 150.496C461.411 149.978 461.399 149.83 461.396 149.446C461.069 149.434 460.743 149.417 460.419 149.385C459.918 149.333 459.244 149.298 458.779 149.116C458.27 148.914 457.9 148.37 457.9 148.144C457.9 148 457.931 147.855 458.174 147.653C458.469 147.407 459.013 147.228 459.421 147.173C460.173 147.068 460.959 147.002 461.547 146.973C461.662 146.756 461.856 146.632 462.085 146.632C462.536 146.632 463.178 146.447 463.273 146.444C463.372 146.432 463.479 146.429 463.583 146.429C463.996 146.429 464.445 146.49 464.82 146.597C465.043 146.664 465.237 146.753 465.405 146.863C467.102 146.805 468.872 146.727 469.786 146.727C470.593 146.727 472.088 146.768 472.088 147.679C472.088 148.214 472.062 148.341 471.73 148.72C471.47 149.018 471.05 149.171 470.666 149.258C470.073 149.394 469.691 149.431 469.324 149.434C469.147 149.434 468.039 149.428 466.805 149.417C466.975 149.952 467.273 150.406 467.383 150.958C467.588 151.976 467.892 152.997 468.12 154.036C468.308 154.883 468.248 155.71 468.476 156.537C468.713 157.391 468.789 158.154 468.846 159.039C468.893 159.774 468.768 160.242 468.771 160.974C468.774 161.254 468.913 161.897 468.913 162.174C468.913 162.281 468.91 162.359 468.91 162.417C468.91 162.68 469.17 162.677 469.442 162.677C469.613 162.677 469.847 162.666 470.096 162.666C470.622 162.666 471.215 162.732 471.435 163.163C471.493 163.279 471.516 163.398 471.516 163.516C471.516 164.086 470.906 164.644 470.466 164.855C470.223 164.968 469.833 165.063 469.546 165.127C469.269 165.188 469.095 165.214 469 165.442C468.985 165.48 468.977 165.544 468.977 165.619C468.977 165.83 469.031 166.142 469.034 166.293C469.034 166.391 469.04 166.492 469.04 166.59C469.04 167.137 468.965 167.663 468.965 168.213C468.965 169.575 468.979 170.949 469.101 172.323C469.231 173.769 469.387 175.215 469.387 176.646C469.387 177.335 469.347 178.023 469.257 178.703C469.095 179.897 469.029 181.086 468.93 182.283C468.916 182.457 468.716 182.599 468.696 182.813C468.676 183.035 468.82 183.284 468.803 183.533C468.794 183.663 468.768 183.799 468.731 183.938C469.52 183.926 470.183 183.917 470.579 183.917V183.912L470.585 183.917Z" fill="#4F2170"/>
<path d="M499.997 154.051C499.997 154.768 499.96 156.156 499.043 156.156C498.514 156.156 498.381 156.069 498.005 155.777C497.71 155.546 497.556 155.176 497.47 154.831C497.334 154.305 497.293 153.967 497.293 153.64C497.29 153.284 497.331 151.072 497.331 150.519C497.331 150.14 497.319 149.759 497.305 149.371C496.776 149.397 496.249 149.406 495.72 149.414C495.202 149.426 494.676 149.438 494.161 149.478C493.617 149.519 493.074 149.573 492.53 149.62C492.327 149.64 492.125 149.66 491.923 149.675C491.899 149.678 491.873 149.678 491.85 149.678C491.338 149.678 491.211 149.825 491.211 150.083C491.211 150.297 491.298 150.542 491.324 150.699C491.419 151.26 491.489 152.35 491.529 152.917C491.567 153.455 491.604 154.001 491.61 154.542C491.616 155.04 491.512 155.543 491.512 156.037C491.512 156.532 491.74 157.301 491.729 157.807C491.711 158.354 491.668 158.898 491.633 159.442C491.561 160.558 491.622 161.697 491.677 162.814C491.703 163.343 491.749 163.869 491.763 164.399C491.769 164.647 491.726 164.893 491.726 165.142C491.726 165.405 491.827 166.108 491.827 166.368C491.827 167.487 491.833 168.141 491.85 169.263C491.862 170.382 491.972 171.505 491.911 172.624C491.885 173.15 491.804 173.671 491.81 174.197C491.813 174.793 491.868 175.389 491.897 175.985C491.954 177.13 491.978 178.269 491.986 179.418C491.992 180.473 492.012 181.798 491.963 182.851C491.949 183.039 491.94 183.224 491.925 183.412C492.594 183.397 493.137 183.389 493.458 183.389C494.265 183.389 495.827 183.617 495.827 184.542C495.827 185.075 495.732 185.205 495.402 185.581C495.142 185.876 494.728 186.029 494.34 186.116C493.748 186.255 493.366 186.292 492.998 186.292C492.86 186.292 492.041 186.292 491.014 186.284C490.832 186.393 490.636 186.492 490.479 186.59C490.008 186.876 489.606 186.957 489.094 186.957C488.709 186.957 488.322 186.998 487.937 186.998C487.255 186.998 486.809 186.769 486.303 186.477C486.173 186.402 486.043 186.327 485.907 186.252C485.068 186.258 484.334 186.312 483.466 186.312C482.957 186.312 482.454 186.292 481.95 186.243C481.45 186.191 480.773 186.156 480.311 185.974C479.802 185.772 479.298 185.028 479.298 184.8C479.298 184.655 479.33 184.511 479.576 184.308C479.868 184.059 480.548 183.883 480.956 183.825C481.994 183.681 483.035 183.614 483.573 183.6V183.527C483.576 182.92 483.405 182.336 483.405 181.717C483.405 180.687 483.492 179.386 483.506 178.356C483.53 177.243 483.585 176.132 483.634 175.022C483.692 173.694 483.758 172.361 483.758 171.036C483.758 170.09 483.718 169.148 483.767 168.205C483.796 167.667 483.908 167.138 483.949 166.6C483.987 166.099 484.122 165.599 484.14 165.101C484.172 163.988 484.105 162.86 484.105 161.744C484.105 160.581 484.177 159.418 484.177 158.256C484.177 157.267 484.137 156.278 484.137 155.288C484.137 154.016 484.148 152.214 484.189 150.95C484.198 150.684 484.287 150.325 484.287 150.028C484.287 149.62 483.943 149.6 483.796 149.6C483.425 149.6 481.384 149.652 481.12 149.652C480.076 149.652 479.029 149.646 478.003 149.519C477.829 149.498 477.658 149.466 477.485 149.426C477.575 150.673 477.592 152.842 477.592 154.042C477.592 154.759 477.551 156.147 476.638 156.147C476.108 156.147 475.978 156.061 475.599 155.766C475.301 155.537 475.148 155.167 475.061 154.826C474.923 154.299 474.885 153.961 474.882 153.634C474.882 153.278 474.923 151.598 474.923 151.048C474.923 150.314 474.873 149.565 474.865 148.819C474.671 148.553 474.521 148.246 474.521 147.971C474.521 147.728 474.639 147.503 474.949 147.347C475.475 147.083 475.692 146.788 476.594 146.791C477.037 146.791 477.543 146.774 477.962 146.765C479.102 146.742 480.23 146.762 481.36 146.635C481.893 146.574 482.422 146.522 482.957 146.496C483 146.496 483.047 146.496 483.096 146.496C483.344 146.496 483.625 146.519 483.891 146.519C484.105 146.519 484.305 146.505 484.475 146.447C484.871 146.32 485.221 145.981 485.626 145.831C485.971 145.701 486.335 145.681 486.699 145.681C487.336 145.681 487.986 145.681 488.605 145.857C488.834 145.924 489.051 146.01 489.259 146.126C489.493 146.253 489.722 146.488 489.973 146.583C490.121 146.641 490.3 146.655 490.488 146.655C490.766 146.655 491.061 146.618 491.298 146.615C491.885 146.606 492.472 146.595 493.059 146.595C494.476 146.583 495.893 146.58 497.325 146.58C498.031 146.58 498.786 146.629 499.338 146.959C499.731 147.196 499.992 147.656 499.992 148.11C499.992 148.339 499.925 148.564 499.775 148.755C499.795 148.85 499.795 148.871 499.853 149.446C499.974 150.725 500 152.671 500 154.051" fill="#4F2170"/>
</g>
<defs>
<clipPath id="clip0_1_629">
<rect width="500" height="188" fill="white"/>
</clipPath>
</defs>
</svg>
