<?xml version="1.0" encoding="UTF-8" standalone="no"?>
<!-- Created with Inkscape (http://www.inkscape.org/) -->
<svg
   xmlns:dc="http://purl.org/dc/elements/1.1/"
   xmlns:cc="http://creativecommons.org/ns#"
   xmlns:rdf="http://www.w3.org/1999/02/22-rdf-syntax-ns#"
   xmlns:svg="http://www.w3.org/2000/svg"
   xmlns="http://www.w3.org/2000/svg"
   xmlns:sodipodi="http://sodipodi.sourceforge.net/DTD/sodipodi-0.dtd"
   xmlns:inkscape="http://www.inkscape.org/namespaces/inkscape"
   width="542"
   height="324"
   id="svg2"
   sodipodi:version="0.32"
   inkscape:version="0.46"
   version="1.0"
   sodipodi:docname="MountainDew-70s.svg"
   inkscape:output_extension="org.inkscape.output.svg.inkscape">
  <defs
     id="defs4">
    <inkscape:perspective
       sodipodi:type="inkscape:persp3d"
       inkscape:vp_x="0 : 526.18109 : 1"
       inkscape:vp_y="0 : 1000 : 0"
       inkscape:vp_z="744.09448 : 526.18109 : 1"
       inkscape:persp3d-origin="372.04724 : 350.78739 : 1"
       id="perspective10" />
    <inkscape:perspective
       id="perspective2447"
       inkscape:persp3d-origin="372.04724 : 350.78739 : 1"
       inkscape:vp_z="744.09448 : 526.18109 : 1"
       inkscape:vp_y="0 : 1000 : 0"
       inkscape:vp_x="0 : 526.18109 : 1"
       sodipodi:type="inkscape:persp3d" />
    <inkscape:perspective
       id="perspective2459"
       inkscape:persp3d-origin="372.04724 : 350.78739 : 1"
       inkscape:vp_z="744.09448 : 526.18109 : 1"
       inkscape:vp_y="0 : 1000 : 0"
       inkscape:vp_x="0 : 526.18109 : 1"
       sodipodi:type="inkscape:persp3d" />
  </defs>
  <sodipodi:namedview
     id="base"
     pagecolor="#ffffff"
     bordercolor="#666666"
     borderopacity="1.0"
     gridtolerance="10000"
     guidetolerance="10"
     objecttolerance="10"
     inkscape:pageopacity="0.0"
     inkscape:pageshadow="2"
     inkscape:zoom="7.9195959"
     inkscape:cx="62.948575"
     inkscape:cy="299.25676"
     inkscape:document-units="px"
     inkscape:current-layer="layer1"
     showgrid="false"
     inkscape:window-width="1621"
     inkscape:window-height="872"
     inkscape:window-x="95"
     inkscape:window-y="25" />
  <metadata
     id="metadata7">
    <rdf:RDF>
      <cc:Work
         rdf:about="">
        <dc:format>image/svg+xml</dc:format>
        <dc:type
           rdf:resource="http://purl.org/dc/dcmitype/StillImage" />
      </cc:Work>
    </rdf:RDF>
  </metadata>
  <g
     inkscape:label="Layer 1"
     inkscape:groupmode="layer"
     id="layer1"
     transform="translate(-92.789192,-35.631432)">
    <rect
       style="opacity:1;fill:#ffffff;fill-opacity:1;stroke:none;stroke-width:2;stroke-linecap:round;stroke-linejoin:round;stroke-miterlimit:4;stroke-dasharray:2, 16;stroke-dashoffset:0;stroke-opacity:1"
       id="rect2396"
       width="542"
       height="324"
       x="92.789192"
       y="35.631432" />
    <g
       id="g3261"
       style="fill:#ff3333;fill-opacity:1">
      <path
         id="path2485"
         d="M 444.78125,212.28125 C 428.67296,212.09514 416.67067,216.3161 407.53125,225.3125 C 398.84731,233.86054 394.82812,243.30934 392.09375,261.5625 C 386.86868,296.44196 395.91457,332.28793 412.9375,344 C 415.40872,345.70024 419.82743,347.74778 422.75,348.5625 C 431.7958,351.08417 446.29598,348.7317 458.5625,342.75 C 468.14137,338.07891 478.4863,327.55233 483.15625,317.71875 C 485.16875,313.481 487.0454,308.05722 487.3125,305.6875 L 487.78125,301.40625 L 477.03125,300.75 C 471.10901,300.38764 463.72538,300.06249 460.625,300.0625 L 455,300.0625 L 453.75,304.71875 C 452.99403,307.54525 451.1332,310.71055 449,312.84375 C 445.90343,315.94032 445.08,316.27431 441.78125,315.75 C 434.62529,314.61263 430.23245,305.98433 432,296.5625 L 432.65625,293.03125 L 460.125,293.71875 L 487.5625,294.40625 L 487.5625,275 C 487.55333,244.80604 484.30031,228.62601 476.65625,220.9375 C 471.5782,215.82993 462.21617,213.02954 448.0625,212.375 C 446.95183,212.32364 445.85514,212.29366 444.78125,212.28125 z M 442.46875,244.0625 C 448.63519,244.0625 452.24317,249.63349 453.28125,260.75 L 453.875,267.0625 L 443.21875,267.0625 L 432.5625,267.0625 L 432.5625,263.125 C 432.5625,257.09522 434.49359,249.45383 436.71875,246.625 C 438.2247,244.71049 439.64052,244.06249 442.46875,244.0625 z"
         style="fill:#ff3333;fill-opacity:1" />
      <path
         id="path2481"
         d="M 497.07143,345.22904 C 494.87143,344.83157 492.59512,344.21134 492.01295,343.85076 C 491.27217,343.39194 491.33175,339.50066 492.21149,330.88582 C 498.21124,272.1328 495.60649,227.86641 484.90714,206.75226 C 483.54854,204.0712 482.57972,201.78342 482.7542,201.66831 C 485.16142,200.08016 521.0536,184.2253 521.4176,184.58931 C 522.27078,185.44249 528.35898,219.9557 529.70623,231.57647 L 530.98151,242.57647 L 533.13809,235.68115 C 534.98145,229.78731 535.39623,225.28488 535.99392,204.68115 C 536.60056,183.76873 536.91686,180.4027 538.3823,179.26432 C 541.85926,176.56336 561.82303,167.07647 564.02985,167.07647 C 565.84259,167.07647 566.79556,168.16999 568.56273,172.27788 C 570.77973,177.43145 580.2545,205.41357 582.71576,214.07647 L 583.99427,218.57647 L 584.6836,210.07647 C 585.6337,198.36098 585.65091,170.43817 584.71104,165.57647 C 583.776,160.7398 584.86496,156.02579 587.45974,153.67755 C 588.51494,152.72261 592.38526,151.31215 596.06047,150.5432 C 599.97514,149.72414 606.18779,147.26716 611.06097,144.61079 C 619.53037,139.99411 623.0333,139.0887 623.76766,141.32647 C 624.5347,143.6638 622.36352,341.57188 621.56143,342.43038 C 620.05682,344.04078 608.0692,346.00622 599.57143,346.03576 C 589.93377,346.06927 585.30158,345.0431 580.50787,341.81262 C 574.99462,338.09724 573.49759,334.23422 570.44998,315.85856 C 566.30589,290.87162 561.56121,275.07647 558.19951,275.07647 C 556.04336,275.07647 553.46886,282.72149 545.57235,312.57298 C 541.74145,327.05512 538.09419,340.02978 537.46735,341.40556 C 536.84051,342.78133 535.36999,344.2053 534.19953,344.56993 C 531.05905,345.54829 501.72111,346.0691 497.07143,345.22904 z"
         style="fill:#ff3333;fill-opacity:1" />
      <path
         id="path2479"
         d="M 322.3125,233.0625 C 307.3101,233.08332 292.47759,233.90301 290.28125,235.34375 C 286.12783,238.06827 285.91917,241.09187 289.40625,248.28125 C 293.29103,256.29055 294.22997,266.39817 295.1875,310.9375 L 295.875,343.3125 L 323.46875,342.78125 C 352.94938,342.19988 362.03776,341.04755 370.5,336.84375 C 380.12633,332.06167 383.62643,321.95519 384.28125,297.0625 C 384.932,272.32448 381.65599,251.8898 375.9375,245.09375 C 372.16386,240.60904 362.35256,236.33139 351.75,234.53125 C 345.74724,233.51209 333.98103,233.04631 322.3125,233.0625 z M 335.21875,262.21875 C 337.61464,262.17122 338.82608,262.69903 340.3125,264.28125 C 343.77073,267.96237 345.58712,277.03335 345.5625,290.53125 C 345.53618,304.96113 343.96126,309.72573 338.3125,312.40625 C 336.37211,313.32703 333.59492,314.06249 332.15625,314.0625 L 329.53125,314.0625 L 329.8125,288.3125 L 330.0625,262.5625 L 334.09375,262.28125 C 334.48845,262.25219 334.87648,262.22554 335.21875,262.21875 z"
         style="fill:#ff3333;fill-opacity:1" />
    </g>
    <g
       id="g3266"
       style="fill:#006633;fill-opacity:1">
      <path
         id="path2475"
         d="M 103.04106,266.32647 C 103.35487,224.66397 103.88184,158.96397 104.21211,120.32647 L 104.81261,50.076466 L 127.7961,50.076466 L 150.77959,50.076466 L 150.10785,57.826466 C 149.27013,67.491336 151.08279,103.22663 153.08567,116.53223 C 154.65461,126.95505 158.307,141.79501 159.48204,142.52122 C 159.85928,142.75437 160.95802,135.43718 161.92369,126.2608 C 164.15734,105.03532 169.12467,69.958246 171.20771,60.701136 C 173.84608,48.976156 171.20942,49.964796 197.86085,50.707246 C 210.62667,51.062866 221.18873,51.446236 221.33211,51.559166 C 221.47548,51.672096 220.88952,53.747186 220.02997,56.170476 C 219.17042,58.593776 217.61537,65.538876 216.5743,71.604046 C 207.82567,122.5729 220.31809,191.6763 251.2744,263.55204 C 258.22789,279.69695 275.14169,313.92009 283.41085,328.57647 L 288.48867,337.57647 L 264.29894,337.84477 C 250.99459,337.99234 239.50665,337.88185 238.77018,337.59924 C 235.96897,336.52432 216.4877,293.20872 207.05243,267.07647 C 204.17299,259.10147 201.57233,251.90147 201.2732,251.07647 C 200.32198,248.45301 200.53295,259.79985 201.62257,269.86588 C 204.63474,297.69292 210.04344,320.14217 218.23723,338.82647 C 218.66552,339.80309 214.40869,340.07647 198.77335,340.07647 L 178.7613,340.07647 L 173.58589,327.82647 C 164.50446,306.33105 155.41212,283.05941 149.45986,266.07647 C 146.27921,257.00147 143.66178,250.70147 143.64334,252.07647 C 143.57092,257.47636 145.59294,291.1774 146.61327,301.57647 C 148.02616,315.97644 150.19348,328.68393 152.50115,336.0985 L 154.36171,342.07647 L 128.41611,342.07647 L 102.47051,342.07647 L 103.04106,266.32647 z"
         style="fill:#006633;fill-opacity:1" />
      <path
         id="path2473"
         d="M 257.09375,51.40625 C 249.55883,51.709189 239.05398,59.414123 233.1875,69.34375 C 225.80499,81.83945 223.39407,98.164859 223.21875,137.0625 C 223.10567,162.15332 223.2914,165.47538 225.34375,174.8125 C 231.2149,201.5232 244.23757,224.74428 256.8125,230.96875 C 264.74924,234.89737 271.37164,233.29853 278.25,225.8125 C 288.67674,214.46459 294.78486,194.23877 296.53125,165.09375 C 298.49029,132.39961 293.48046,92.744574 285.0625,74.375 C 279.57823,62.40729 269.4647,53.467069 259.3125,51.5625 C 258.60491,51.429755 257.87322,51.374911 257.09375,51.40625 z M 259.75,93.59375 C 262.36049,93.477348 265.47153,103.35133 268.25,121.5 C 270.39195,135.49111 270.73077,168.75118 268.78125,174.25 C 266.63547,180.30234 265.13414,180.83299 261.25,176.9375 C 254.64292,170.31111 250.73646,152.41147 252,134.5625 C 252.79805,123.28914 255.33824,104.82903 256.96875,98.4375 C 257.78663,95.23143 258.7285,93.639299 259.75,93.59375 z"
         style="fill:#006633;fill-opacity:1" />
      <path
         id="path2469"
         d="M 323.07143,216.17662 C 311.65942,210.88166 305.57372,195.9512 305.56973,173.2385 C 305.56756,160.8658 303.27499,130.47771 299.52664,93.137066 C 297.90127,76.945396 296.57143,62.870196 296.57143,61.858846 C 296.57143,60.149416 297.53898,60.039606 310.32143,60.298246 L 324.07143,60.576466 L 325.88339,67.576466 C 327.26207,72.902616 327.9162,81.152296 328.61894,102.07647 C 329.62039,131.89445 330.83337,148.26438 333.13891,163.07647 C 335.69955,179.52745 339.34769,186.94518 340.94643,178.95147 C 342.77758,169.79572 340.89766,132.60364 336.25657,86.167956 C 335.03302,73.926016 334.30539,63.740886 334.6396,63.534336 C 334.9738,63.327786 340.64941,63.430406 347.25205,63.762386 L 359.25686,64.365976 L 360.46162,83.844806 C 366.06422,174.4291 362.99827,208.57065 348.60954,215.82647 C 342.69444,218.80928 329.14586,218.99504 323.07143,216.17662 z"
         style="fill:#006633;fill-opacity:1" />
      <path
         id="path2467"
         d="M 367.92773,202.82647 C 368.73003,199.84511 369.07143,179.39767 369.07143,134.32643 L 369.07143,70.076386 L 375.18186,70.076426 C 378.54259,70.076446 383.26759,70.348366 385.68186,70.680686 L 390.07143,71.284896 L 399.07143,86.406146 L 408.07143,101.5274 L 408.34836,87.387506 L 408.6253,73.247616 L 418.03229,77.367456 L 427.43929,81.487306 L 427.99217,88.531886 C 428.29626,92.406406 429.22332,115.60147 430.05231,140.07647 C 430.8813,164.55147 431.82101,188.51397 432.14057,193.32647 L 432.72158,202.07647 L 420.72984,202.07647 L 408.7381,202.07647 L 404.23371,188.82647 L 399.72932,175.57647 L 399.65038,186.6869 C 399.60696,192.79763 399.28526,199.88513 398.93551,202.4369 L 398.29958,207.07647 L 382.5418,207.07647 L 366.78402,207.07647 L 367.92773,202.82647 z"
         style="fill:#006633;fill-opacity:1" />
      <path
         id="path2465"
         d="M 439.26012,150.82647 C 438.24057,81.612466 437.64626,78.426116 424.52553,71.827936 C 420.42577,69.766246 414.37143,67.398736 411.07143,66.566796 C 403.50688,64.659756 385.96962,62.304346 373.47608,61.517396 L 363.88072,60.913006 L 364.28142,55.744736 C 364.50181,52.902186 364.86218,49.676466 365.08224,48.576466 C 365.48021,46.587186 365.81906,46.582656 428.27689,47.731646 C 462.81389,48.366996 498.15893,48.929496 506.82143,48.981646 L 522.57143,49.076466 L 522.57143,55.848166 L 522.57143,62.619866 L 509.82143,62.707456 C 485.50758,62.874486 471.35896,69.592086 466.05177,83.488766 C 464.30765,88.055686 464.32005,89.782086 466.4352,136.89236 C 467.6374,163.66862 468.84018,187.26397 469.10804,189.32647 L 469.59507,193.07647 L 454.73877,193.07647 L 439.88248,193.07647 L 439.26012,150.82647 z"
         style="fill:#006633;fill-opacity:1" />
      <path
         id="path2463"
         d="M 501.71875,66.21875 C 493.99847,66.260324 486.71673,68.113915 482.3125,71.25 C 476.47932,75.40359 472.56249,87.268574 472.5625,100.78125 L 472.5625,108.375 L 479.3125,107.71875 C 483.025,107.36813 487.26448,107.09766 488.71875,107.09375 C 491.32878,107.08673 491.35598,106.95681 491.71875,98.96875 C 492.06695,91.30104 492.26036,90.723754 495.34375,87.96875 C 497.13354,86.36957 499.25886,85.062497 500.0625,85.0625 C 504.57498,85.0625 506.56812,97.889725 502.84375,102.9375 C 501.7712,104.39117 495.91438,108.7125 489.8125,112.5625 C 483.71063,116.4125 477.59165,120.64276 476.21875,121.9375 C 472.8671,125.09831 471.16598,132.58788 471.3125,143.5625 C 471.50801,158.20543 477.05244,171.91723 484.875,177.0625 C 487.55447,178.82492 489.28193,179.10694 495.5625,178.84375 C 504.35834,178.47516 510.81562,175.84996 522.875,167.78125 L 530.65625,162.5625 L 530.0625,123.0625 C 529.73363,101.3375 529.23862,82.115062 528.96875,80.34375 C 527.78477,72.57225 518.54243,67.155438 505.03125,66.3125 C 503.91725,66.243001 502.82165,66.212811 501.71875,66.21875 z M 503.875,126.625 C 504.46382,126.63704 504.55959,128.09504 504.53125,132.21875 C 504.50718,135.7236 503.71969,140.78631 502.78125,143.5 C 501.84282,146.21369 500.59014,148.59407 500,148.78125 C 498.3153,149.31563 495.56249,145.67724 495.5625,142.90625 C 495.5625,140.05842 500.86184,128.91481 503.09375,127.0625 C 503.41109,126.79913 503.67873,126.62099 503.875,126.625 z"
         style="fill:#006633;fill-opacity:1" />
      <path
         id="path2459"
         d="M 537.35268,124.64386 C 537.23237,103.98179 537.11987,84.038966 537.10268,80.326466 L 537.07143,73.576466 L 549.82143,73.296586 L 562.57143,73.016716 L 562.44662,94.796586 C 562.37797,106.77553 562.04047,124.62958 561.69662,134.47227 C 561.08109,152.09153 561.03262,152.397 558.55973,154.23961 C 556.4175,155.83583 547.98902,159.12129 539.82143,161.54387 L 537.57143,162.21125 L 537.35268,124.64386 z"
         style="fill:#006633;fill-opacity:1" />
      <path
         id="path2457"
         d="M 567.23222,139.32647 C 567.42827,133.96397 568.04713,111.60164 568.60746,89.632396 C 569.16779,67.663156 569.76346,49.551096 569.93117,49.383386 C 570.09889,49.215676 574.30379,48.789726 579.27541,48.436836 L 588.31472,47.795206 L 595.19307,57.575976 L 602.07143,67.356746 L 602.57143,57.966606 L 603.07143,48.576466 L 612.32143,48.288936 L 621.57143,48.001416 L 621.56938,60.788936 C 621.56826,67.822076 621.26866,85.484016 620.90361,100.03769 C 620.25623,125.84756 620.18355,126.55526 617.95112,128.78769 C 616.00633,130.73248 614.62053,131.07647 608.73063,131.07647 L 601.79892,131.07647 L 596.43518,118.93869 L 591.07143,106.8009 L 590.30413,122.68869 C 589.88211,131.42697 589.11261,139.57064 588.59412,140.78574 C 587.42357,143.52899 581.73962,146.47647 574.77221,147.95326 C 566.38258,149.7315 566.83297,150.24682 567.23222,139.32647 z"
         style="fill:#006633;fill-opacity:1" />
      <path
         id="path2453"
         d="M 538.5562,64.826466 C 533.8651,62.448686 530.87731,58.366576 529.56309,52.539476 L 528.78205,49.076466 L 546.67674,49.076466 C 556.51882,49.076466 564.57143,49.316426 564.57143,49.609706 C 564.57143,51.314166 559.32307,59.987336 556.91468,62.262846 C 551.33085,67.538606 545.51047,68.351376 538.5562,64.826466 z"
         style="fill:#006633;fill-opacity:1" />
    </g>
  </g>
</svg>
