<?xml version="1.0" encoding="UTF-8" standalone="no"?>
<!-- Created with Inkscape (http://www.inkscape.org/) -->

<svg
   xmlns:dc="http://purl.org/dc/elements/1.1/"
   xmlns:cc="http://creativecommons.org/ns#"
   xmlns:rdf="http://www.w3.org/1999/02/22-rdf-syntax-ns#"
   xmlns:svg="http://www.w3.org/2000/svg"
   xmlns="http://www.w3.org/2000/svg"
   xmlns:sodipodi="http://sodipodi.sourceforge.net/DTD/sodipodi-0.dtd"
   xmlns:inkscape="http://www.inkscape.org/namespaces/inkscape"
   width="60.058815mm"
   height="55.47728mm"
   viewBox="0 0 60.058815 55.47728"
   version="1.1"
   id="svg5841"
   inkscape:version="0.91 r13725"
   sodipodi:docname="Moxie_soda,_full_logo.svg">
  <defs
     id="defs5835">
    <clipPath
       id="clipPath6402"
       clipPathUnits="userSpaceOnUse">
      <path
         inkscape:connector-curvature="0"
         id="path6400"
         d="m 0,0 612,0 0,792 -612,0 z" />
    </clipPath>
    <clipPath
       id="clipPath6582"
       clipPathUnits="userSpaceOnUse">
      <path
         inkscape:connector-curvature="0"
         id="path6580"
         d="m 0,0 612,0 0,792 -612,0 z" />
    </clipPath>
    <clipPath
       id="clipPath6998"
       clipPathUnits="userSpaceOnUse">
      <path
         inkscape:connector-curvature="0"
         id="path6996"
         d="m 0,0 612,0 0,792 -612,0 z" />
    </clipPath>
  </defs>
  <sodipodi:namedview
     id="base"
     pagecolor="#ffffff"
     bordercolor="#666666"
     borderopacity="1.0"
     inkscape:pageopacity="0.0"
     inkscape:pageshadow="2"
     inkscape:zoom="0.94019461"
     inkscape:cx="83.216718"
     inkscape:cy="102.53453"
     inkscape:document-units="mm"
     inkscape:current-layer="g6394"
     showgrid="false"
     inkscape:snap-global="false"
     fit-margin-top="0"
     fit-margin-left="0"
     fit-margin-right="0"
     fit-margin-bottom="0"
     inkscape:window-width="1172"
     inkscape:window-height="687"
     inkscape:window-x="185"
     inkscape:window-y="4"
     inkscape:window-maximized="0" />
  <metadata
     id="metadata5838">
    <rdf:RDF>
      <cc:Work
         rdf:about="">
        <dc:format>image/svg+xml</dc:format>
        <dc:type
           rdf:resource="http://purl.org/dc/dcmitype/StillImage" />
        <dc:title></dc:title>
      </cc:Work>
    </rdf:RDF>
  </metadata>
  <g
     inkscape:label="Layer 1"
     inkscape:groupmode="layer"
     id="layer1"
     transform="translate(-45.066219,-13.423355)">
    <g
       transform="matrix(-0.35277777,0,0,0.35277777,200.37294,-90.255682)"
       inkscape:label="11_15_CardTemp"
       id="g6394">
      <rect
         style="fill:#ff5300;fill-opacity:1;stroke:none;stroke-width:2.55118108;stroke-miterlimit:4;stroke-dasharray:none"
         id="rect4365"
         width="170.24547"
         height="157.25844"
         x="-440.23953"
         y="293.89334"
         transform="scale(-1,1)" />
      <g
         id="g6576"
         transform="matrix(0.53959419,0,0,0.53959419,282.84416,61.49066)">
        <g
           clip-path="url(#clipPath6582)"
           id="g6578">
          <g
             transform="translate(213.1903,503.9354)"
             id="g6688">
            <path
               inkscape:connector-curvature="0"
               id="path6690"
               style="fill:#ffffff;fill-opacity:1;fill-rule:nonzero;stroke:none"
               d="m 0,0 2.479,0.656 2.045,1.095 1.167,1.313 -1.971,5.981 -4.887,5.691 -1.897,6.126 -1.821,2.407 -1.825,2.625 0.947,1.826 5.837,4.593 13.494,11.889 11.378,6.638 10.724,5.035 5.834,5.759 3.575,7.296 3.72,11.526 3.356,11.523 3.208,4.961 1.825,2.699 3.573,5.543 3.722,10.724 0.218,9.553 -1.897,5.617 -1.167,1.825 -2.845,3.061 -5.18,3.21 -10.866,2.846 -16.559,-2.846 -19.606,-8.351 -190.39,0 -0.728,-11.854 -0.438,-5.908 3.647,-8.023 5.031,-4.23 4.087,-3.866 4.667,-3.282 2.554,-2.991 5.397,-9.266 5.835,-8.533 6.857,-6.2 6.345,-7.147 1.461,-2.044 3.426,-4.449 11.672,-10.647 4.667,-3.432 1.971,-1.601 2.844,-6.347 2.992,-2.625 5.396,-2.847 10.867,-2.622 7.879,-1.679 7.004,-1.822 5.91,-0.804 7.074,-1.752 -0.805,-1.385 -2.697,-2.699 -0.875,-2.916 c 0,0 0,-4.229 0.072,-4.449 0.074,-0.219 -0.511,-4.232 -0.511,-4.232 l -2.042,-3.648 c 0,0 -1.604,-4.009 -1.604,-4.228 0,-0.219 0.293,-3.503 0.293,-3.503 l 1.385,-1.823 2.407,-0.146 3.429,0.95 1.896,-5.252 2.843,-16.631 21.154,-1.385 31.876,-2.19 9.7,10.506 0.876,15.607 z" />
          </g>
          <g
             transform="translate(210.4499,608.1654)"
             id="g6692">
            <path
               inkscape:connector-curvature="0"
               id="path6694"
               style="fill:#d3d2d2;fill-opacity:1;fill-rule:nonzero;stroke:none"
               d="m 0,0 c -0.493,-3.286 -2.522,-6.456 -3.119,-9.88 -0.147,-0.846 -0.484,-2.046 -0.469,-2.867 0.027,-1.443 0.087,-1.23 1.585,-1.429 1.913,-0.254 3.953,-0.244 5.705,0.451 -0.037,1.513 0.492,2.934 0.734,4.417 0.331,1.999 0.215,3.831 0.146,5.843 C 4.501,-1.04 3.361,1.83 0.573,-0.427" />
          </g>
          <g
             transform="translate(97.4383,586.9675)"
             id="g6696">
            <path
               inkscape:connector-curvature="0"
               id="path6698"
               style="fill:#d3d2d2;fill-opacity:1;fill-rule:nonzero;stroke:none"
               d="m 0,0 c -1.111,-8.672 -2.703,-8.459 -4.704,-12.464 -2.343,-4.69 -4.271,-9.667 -6.47,-14.456 -2.364,7.316 1.659,16.691 4.683,22.99 -5.272,0.071 -8.299,-7.686 -10.696,-11.367 -2.527,6.324 6.407,13.102 4.317,17.896 -1.362,3.125 -5.778,1.861 -8.089,1.172 -2.041,-0.605 -7.848,-3.81 -4.415,0.634 3.504,4.533 15.516,2.676 17.767,7.497 1.28,2.743 -2.189,6.537 -4.404,7.983 -3.528,2.305 -7.699,0.572 -11.194,2.029 -0.575,0.241 -1.882,0.037 -2.511,0.066 -1.418,9.043 16.743,6.309 20.57,2.954 4.085,-3.575 4.464,-20.5 5.109,-24.869" />
          </g>
          <g
             transform="translate(235.3726,582.6697)"
             id="g6700">
            <path
               inkscape:connector-curvature="0"
               id="path6702"
               style="fill:#d3d2d2;fill-opacity:1;fill-rule:nonzero;stroke:none"
               d="m 0,0 c 2.76,2.221 5.481,3.02 7.896,5.861 2.158,2.548 3.601,3.334 6.714,4.19 3.124,0.858 6.031,2.068 9.026,3.33 2.773,1.168 4.263,3.045 6.631,4.808 C 28.853,15.204 25.956,12.734 23.004,11.172 20.154,9.668 16.822,10.104 14.14,8.648 11.452,7.188 9.601,4.371 7.086,2.632 4.889,1.114 2.297,-0.013 -0.215,-0.645" />
          </g>
          <g
             transform="translate(241.8205,612.7498)"
             id="g6704">
            <path
               inkscape:connector-curvature="0"
               id="path6706"
               style="fill:#d3d2d2;fill-opacity:1;fill-rule:nonzero;stroke:none"
               d="m 0,0 c 0.886,3.718 6.659,6.352 9.452,8.589 3.745,3.001 5.672,6.627 8.735,9.908 C 15.718,17.003 13.763,14.254 11.345,12.468 9.203,10.885 6.855,9.776 4.51,8.658 1.166,7.066 -2.799,3.939 -0.861,0" />
          </g>
          <g
             transform="translate(216.0359,618.5518)"
             id="g6708">
            <path
               inkscape:connector-curvature="0"
               id="path6710"
               style="fill:#d3d2d2;fill-opacity:1;fill-rule:nonzero;stroke:none"
               d="m 0,0 c 3.429,2.66 6.744,4.873 11.388,4.738 3.8,-0.112 7.505,-1.356 10.267,1.706 1.43,1.592 2.163,2.105 3.912,3.171 1.695,1.033 2.682,2.458 4.246,3.808 3.503,3.021 6.964,4.277 11.439,5 3.118,0.507 7.13,0.007 10.078,0.909 -2.501,2.24 -7.819,2 -11.147,2.153 -4.446,0.205 -7.999,-0.601 -11.88,-2.632 -2.02,-1.056 -3.74,-2.282 -5.061,-4.257 -1.178,-1.758 -1.21,-3.178 -3.26,-4.242 C 16.728,8.668 12.608,9.185 9.23,7.96 6.831,7.091 -1.402,3.685 0.216,0.215" />
          </g>
          <g
             transform="translate(147.2848,548.152)"
             id="g6712">
            <path
               inkscape:connector-curvature="0"
               id="path6714"
               style="fill:#d3d2d2;fill-opacity:1;fill-rule:nonzero;stroke:none"
               d="m 0,0 c -0.325,1.84 0.285,4.111 0.433,6.023 0.177,2.329 0.384,4.649 0.601,6.978 0.374,4.011 0.897,8.076 1.264,12.034 0.508,5.444 1.606,10.722 2.284,16.072 0.02,0.164 0.015,0.366 0,0.531 C 3.675,36.058 2.099,30.315 1.148,24.643 0.172,18.815 -0.473,12.853 -1.147,7.016 c -0.809,-7.043 -2.309,-14.737 0.652,-21.329 -0.748,1.674 0.2,5.104 0.204,7.006 0.006,1.924 -0.199,3.821 0.006,5.73" />
          </g>
          <g
             transform="translate(195.4099,549.8689)"
             id="g6716">
            <path
               inkscape:connector-curvature="0"
               id="path6718"
               style="fill:#d3d2d2;fill-opacity:1;fill-rule:nonzero;stroke:none"
               d="m 0,0 c -1.648,1.565 -3.198,4.911 -4.256,7.05 -1.655,3.349 -3.728,6.63 -6.059,9.565 -3.329,4.194 -6.666,8.07 -10.421,11.885 -2.71,2.757 -5.236,5.738 -7.593,8.885 -1.128,1.503 -2.003,3.117 -3.149,4.584 -0.591,0.754 -1.479,1.471 -1.937,2.281 -0.464,0.82 -0.323,1.59 -1.118,2.246 1.227,-1.518 2.974,-2.479 4.295,-3.93 1.589,-1.75 3.161,-3.501 4.855,-5.217 2.746,-2.776 4.885,-5.998 7.368,-8.987 3.823,-4.596 7.633,-9.136 11.249,-13.894 1.949,-2.569 3.63,-5.488 5.225,-8.3 1.238,-2.181 2.914,-5.007 2.687,-7.6" />
          </g>
          <g
             transform="translate(205.4382,531.3929)"
             id="g6720">
            <path
               inkscape:connector-curvature="0"
               id="path6722"
               style="fill:#d3d2d2;fill-opacity:1;fill-rule:nonzero;stroke:none"
               d="m 0,0 c 1.429,0.894 3.21,3.014 4.698,4.336 1.878,1.668 4.006,2.946 5.936,4.509 4.011,3.243 7.778,6.926 11.75,10.173 4.326,3.535 9.356,6.317 14.419,8.731 5.221,2.485 9.597,5.204 12.469,10.353 2.671,4.792 3.568,9.822 4.869,15.036 1.231,4.932 3.711,9.759 6.694,13.925 0.865,1.209 1.573,2.372 2.882,2.957 C 59.398,64.051 59.023,56.647 57.579,49.595 55.756,40.68 52.485,32.84 44.685,27.756 40.332,24.919 35.831,23.171 31.222,20.887 27.751,19.168 24.84,16.423 21.628,14.332 15.875,10.586 11.191,6.187 5.903,2.006 4.337,0.766 2.948,-1.492 0.716,-1.29" />
          </g>
          <g
             transform="translate(204.4342,557.8903)"
             id="g6724">
            <path
               inkscape:connector-curvature="0"
               id="path6726"
               style="fill:#d3d2d2;fill-opacity:1;fill-rule:nonzero;stroke:none"
               d="M 0,0 C -1.75,1.101 -2.568,2.279 -3.326,4.122 -4.012,5.797 -4.979,6.775 -6,8.251 -3.777,7.23 -2.095,5.495 0.288,4.732 1.656,4.292 2.993,3.956 4.183,3.161 2.781,2.502 0.999,1.8 0.288,0.144" />
          </g>
          <g
             transform="translate(207.55,595.9918)"
             id="g6728">
            <path
               inkscape:connector-curvature="0"
               id="path6730"
               style="fill:#d3d2d2;fill-opacity:1;fill-rule:nonzero;stroke:none"
               d="m 0,0 c -0.109,1.684 0.612,3.881 0.971,5.586 0.385,1.85 0.852,3.722 1.609,5.596 0.613,1.531 1.602,3.197 2.767,4.421 0.874,0.916 3.251,3.805 4.644,3.629 C 11.511,19.039 9.692,16.163 9.239,15.254 8.405,13.578 7.668,11.892 6.96,10.205 6.308,8.652 5.989,7.223 5.699,5.586 5.518,4.563 5.395,1.548 4.099,1.415 3.478,2.564 4.202,4.465 4.404,5.695 4.584,6.787 4.973,10.193 3.354,7.623 2.469,6.221 1.746,4.477 1.287,2.901 0.962,1.78 1.04,0.11 0.321,-0.753" />
          </g>
          <g
             transform="translate(208.3034,591.5876)"
             id="g6732">
            <path
               inkscape:connector-curvature="0"
               id="path6734"
               style="fill:#d3d2d2;fill-opacity:1;fill-rule:nonzero;stroke:none"
               d="m 0,0 c 3.142,0.565 6.093,0.5 9.319,-0.32 1.883,-0.478 4.078,-1.419 5.535,-2.666 0.579,-0.493 1.439,-1.304 1.799,-1.958 0.339,-0.624 0.275,-1.326 0.748,-1.945 1.32,1.156 0.976,4.136 1.694,5.707 0.869,1.886 2.027,2.425 3.889,2.253 2.039,-0.187 3.683,0.818 4.298,2.821 0.328,1.059 0.415,1.715 1.16,2.55 0.711,0.796 1.543,0.893 2.283,1.591 1.199,1.13 1.154,4.39 1.178,6.017 0.037,2.285 0.061,4.41 -0.94,6.467 -1.359,2.803 -3.885,4.897 -6.676,6.23 -3.593,1.721 -6.951,0.478 -10.191,-1.21 C 12.434,24.673 11.489,22.998 10.342,21.56 9.245,20.192 8.202,19.022 7.276,17.511 6.421,16.106 6.026,14.81 5.613,13.293 5.202,11.805 4.359,10.415 4.295,8.808 4.231,7.106 5.019,5.313 4.27,3.675 3.443,1.866 1.195,2.271 0,1.505" />
          </g>
          <g
             transform="translate(197.2365,590.7269)"
             id="g6736">
            <path
               inkscape:connector-curvature="0"
               id="path6738"
               style="fill:#d3d2d2;fill-opacity:1;fill-rule:nonzero;stroke:none"
               d="M 0,0 C -0.81,1.553 0.074,3.757 1.723,4.212 3.587,4.732 5.604,4.03 7.408,3.412 8.929,2.893 11.385,2.218 10.126,0.192 9.133,-1.403 7.763,-1.232 7.844,-3.544 7.906,-5.333 8.123,-6.618 6.875,-8.055 5.794,-9.304 3.93,-9.739 3.647,-11.595 c -0.314,-2.056 0.987,-2.703 1.805,-4.219 0.946,-1.749 -0.432,-3.281 -1.343,-4.626 -1.053,-1.557 -1.195,-2.611 -1.116,-4.464 -1.523,-0.273 -2.823,1.228 -3.875,2.1 -1.469,1.22 -3.065,2.311 -4.597,3.438 -1.614,1.189 -3.187,2.2 -5.156,2.608 -1.53,0.318 -3.708,-0.916 -3.569,1.503 0.096,1.664 1.222,3.433 3.033,3.334 0.756,-0.041 1.614,-0.797 2.284,-0.219 0.507,0.44 0.413,1.835 0.697,2.495 0.309,0.723 0.686,1.641 1.423,1.992 0.811,0.391 1.815,-0.212 2.553,0.004 1.315,0.381 0.537,2.85 1.099,4.105 0.729,1.622 2.099,2.317 3.547,3.117" />
          </g>
          <g
             transform="translate(218.3454,558.1213)"
             id="g6740">
            <path
               inkscape:connector-curvature="0"
               id="path6742"
               style="fill:#d3d2d2;fill-opacity:1;fill-rule:nonzero;stroke:none"
               d="m 0,0 c 0.862,-1.342 1.992,3.554 2.336,4.568 0.578,1.711 2.039,2.62 2.637,4.213 0.697,1.864 1.287,2.705 2.71,4.166 1.197,1.229 1.68,2.864 2.579,4.303 1.245,2 3.22,3.085 4.702,4.853 0.855,1.02 1.756,2.154 2.412,3.305 0.74,1.289 0.966,2.988 1.814,4.153 -1.691,-2.808 -3.63,-6.025 -6.67,-7.598 -1.141,-0.589 -2.205,-0.84 -3.448,-0.636 -0.54,0.093 -1.985,0.779 -2.44,0.621 C 4.605,21.252 6.782,18.622 7.117,17.672 7.927,15.409 6.724,13.488 5.104,11.98 4.249,11.184 3.829,10.775 2.633,10.69 1.904,10.641 0.856,11.132 0.268,10.373 -0.396,9.518 0.578,8.994 1.051,8.351 1.62,7.584 1.785,7.061 1.775,6.072 1.752,3.897 0.629,3.302 -1.151,2.765 -2.985,2.212 -2.401,0.798 -3.502,-0.482 c 0.877,-0.666 2.563,-0.523 3.183,0.324" />
          </g>
          <g
             transform="translate(183.7042,546.9517)"
             id="g6744">
            <path
               inkscape:connector-curvature="0"
               id="path6746"
               style="fill:#d3d2d2;fill-opacity:1;fill-rule:nonzero;stroke:none"
               d="m 0,0 c 0.709,-0.454 0.572,-1.271 1.082,-1.87 1.03,-0.173 1.52,1.228 1.774,1.976 C 3.221,1.17 3.465,1.99 4.139,2.847 3.523,3.592 2.452,2.428 2.04,2.029 1.347,1.361 0.804,0.83 -0.217,0.86" />
          </g>
          <g
             transform="translate(183.2721,532.9861)"
             id="g6748">
            <path
               inkscape:connector-curvature="0"
               id="path6750"
               style="fill:#d3d2d2;fill-opacity:1;fill-rule:nonzero;stroke:none"
               d="m 0,0 c -0.652,-0.564 -1.668,-1.546 -1.45,-2.526 0.255,-1.141 1.445,-0.72 2.081,-0.146 0.533,0.482 1.301,1.131 1.624,1.762 C 2.66,-0.127 2.949,0.806 3.423,1.611 3.826,2.297 4.367,2.556 4.838,3.116 4.307,3.545 3.556,3.302 2.901,3.275 2.149,3.246 1.577,3.6 0.918,3.641 1.823,2.569 0.631,0.787 -0.053,0" />
          </g>
          <g
             transform="translate(202.7139,533.2542)"
             id="g6752">
            <path
               inkscape:connector-curvature="0"
               id="path6754"
               style="fill:#d3d2d2;fill-opacity:1;fill-rule:nonzero;stroke:none"
               d="m 0,0 c -1.319,3.789 -1.918,6.707 -3.972,10.31 -2.226,3.903 -5.305,7.561 -8.543,10.611 -1.915,1.804 -3.81,3.318 -6.074,4.727 -1.883,1.174 -3.969,2.022 -5.569,3.441 1.13,0.411 4.715,-1.989 5.789,-2.66 1.821,-1.142 3.963,-2.268 5.778,-3.547 3.739,-2.627 6.249,-7 8.589,-10.724 2.003,-3.188 3.826,-7.234 4.894,-10.869 0.963,-3.285 2.902,-6.07 3.191,-9.559 0.039,-0.468 0.141,-0.927 0.196,-1.368 -1.104,1.082 -1.833,3.41 -2.578,4.802 -0.897,1.67 -1.103,3.265 -1.805,4.943" />
          </g>
          <g
             transform="translate(215.2861,503.9261)"
             id="g6756">
            <path
               inkscape:connector-curvature="0"
               id="path6758"
               style="fill:#d3d2d2;fill-opacity:1;fill-rule:nonzero;stroke:none"
               d="m 0,0 c 0.724,-1.348 3.4,1.209 3.785,2.148 0.774,1.892 -0.16,3.903 -0.859,5.697 -1.032,2.658 -2.994,4.541 -4.532,6.873 -1.311,1.987 -1.907,4.214 -2.99,6.444 -0.971,2.008 -1.969,4.97 -4.516,5.246 -0.56,-1.657 0.778,-3.571 1.51,-5.032 1.103,-2.196 2.338,-4.385 3.334,-6.658 C -3.332,12.58 -4.247,11.756 -4.937,9.879 -5.37,8.701 -5.321,8.983 -4.299,8.139 -3.457,7.445 -2.938,6.647 -2.283,5.797 -1.679,5.011 -1.051,4.211 0,4.078 0.816,3.976 1.927,4.768 2.496,3.976 3.915,2.007 -1.004,1.375 -1.29,0.106" />
          </g>
          <g
             transform="translate(144.7073,491.7883)"
             id="g6760">
            <path
               inkscape:connector-curvature="0"
               id="path6762"
               style="fill:#d3d2d2;fill-opacity:1;fill-rule:nonzero;stroke:none"
               d="m 0,0 c -1.689,-0.031 -3.407,-1.059 -5.157,-0.747 -1.685,0.3 -2.429,1.817 -2.579,3.431 -0.22,2.368 0.185,4.578 0.94,6.797 0.731,2.142 2.867,4.004 2.951,6.203 0.098,2.544 -0.505,5.143 0.188,7.71 0.651,2.413 2.993,6.32 6.003,5.915 0.374,-1.492 -3.345,-3.054 -4.151,-4.177 -0.968,-1.354 -1.341,-3.191 -1.208,-4.726 0.173,-2.001 1.118,-3.42 0.433,-5.473 -0.78,-2.354 -1.984,-3.97 -3.197,-6.1 C -6.932,6.797 -7.99,3.395 -6.045,1.474 -3.882,-0.659 0.31,3.645 1.824,1.289" />
          </g>
          <g
             transform="translate(176.7191,553.3429)"
             id="g6764">
            <path
               inkscape:connector-curvature="0"
               id="path6766"
               style="fill:#d3d2d2;fill-opacity:1;fill-rule:nonzero;stroke:none"
               d="m 0,0 c -0.962,0.233 -2.164,-0.282 -3.2,-0.322 -1.276,-0.047 -2.514,0.07 -3.76,0.19 -1.493,0.146 -5.2,1.045 -4.328,3.361 0.937,2.474 5.472,3.828 7.742,4.184 C -1.21,7.78 0.938,7.574 3.219,7.192 3.881,7.082 4.518,6.997 5.14,6.784 3.286,10.047 -0.905,10.28 -4.304,10.421 -8.482,10.59 -12.535,9.33 -15.897,6.902 -18.182,5.254 -19.754,3.02 -21.401,0.835 c -1.819,-2.407 -3.488,-4.899 -5.371,-7.253 -1.917,-2.391 -2.402,-6.267 -3.017,-9.242 -0.418,-2.019 -0.173,-4.126 -0.501,-6.152 -0.278,-1.717 -0.326,-3.372 -0.326,-5.128 0,-5.242 -0.421,-10.677 -0.646,-15.813 -0.081,-1.799 0.61,-3.656 0.988,-5.397 0.382,-1.754 0.758,-3.702 2.153,-5.02 1.272,-1.201 2.893,-1.142 3.945,0.286 1.581,2.153 0.577,5.255 0.672,7.764 0.099,2.562 0.238,4.791 2.125,6.659 1.098,1.086 2.612,1.674 3.559,2.905 -1.28,0.894 -3.703,0.186 -5.273,1.152 -1.79,1.105 -1.772,3.134 -1.506,5.077 0.634,4.691 3.467,9.848 8.483,10.636 3.539,0.554 6.062,-2.587 9.323,0.43 1.342,1.25 1.695,2.797 1.846,4.625 0.072,0.881 0.397,1.68 -0.319,2.254 -0.259,0.21 -1.929,0.804 -2.363,0.937 -1.8,0.559 -3.471,-0.207 -5.154,-0.595 -2.761,-0.64 -5.492,1.1 -3.223,1.401 1.072,0.145 3.286,0.863 4.517,1.365 1.465,0.597 6.091,1.823 4.506,2.038 -2.65,0.358 2.205,2.499 3.868,3.149 1.331,0.524 4.008,0.786 3.651,2.55" />
          </g>
          <g
             transform="translate(170.9194,483.6231)"
             id="g6768">
            <path
               inkscape:connector-curvature="0"
               id="path6770"
               style="fill:#d3d2d2;fill-opacity:1;fill-rule:nonzero;stroke:none"
               d="m 0,0 c 3.695,0.698 7.23,3.776 9.457,6.751 1.583,2.118 2.584,4.37 5.664,3.641 1.314,-0.307 2.276,-1.285 3.385,-1.987 1.857,-1.178 3.907,-1.762 5.983,-2.412 3.588,-1.126 8.595,-1.089 11.064,2.147 1.417,1.856 2.61,4.429 3.015,6.769 0.374,2.184 -0.946,3.967 -1.75,5.921 -0.337,0.824 -1.34,5.856 0.649,5.468 0.362,-0.072 1.912,-1.899 2.15,-2.234 0.808,-1.128 1.14,-2.661 1.552,-3.978 0.878,-2.801 0.834,-5.888 0.945,-8.841 C 42.257,7.437 41.181,2.842 36.952,1.72 31.457,0.259 26.12,3.021 20.62,2.9 17.332,2.829 14.619,1.446 11.497,0.639 9.489,0.121 7.54,-0.352 5.546,-0.972 3.99,-1.455 2.211,-2.232 0.639,-1.504 c -0.327,0.151 -0.587,0.31 -0.856,0.539" />
          </g>
          <g
             transform="translate(168.7693,484.913)"
             id="g6772">
            <path
               inkscape:connector-curvature="0"
               id="path6774"
               style="fill:#d3d2d2;fill-opacity:1;fill-rule:nonzero;stroke:none"
               d="m 0,0 c -2.982,0.556 -8.326,1.249 -8.271,5.267 0.039,3.032 3.145,3.79 3.841,6.33 1.035,3.792 -9.61,2.804 -7.041,7.395 0.19,0.339 0.614,0.628 0.933,0.771 -0.792,1.031 -4.293,1.918 -5.575,1.806 -2.145,-0.189 -2.244,-3.136 -1.939,-4.838 0.33,-1.848 0.93,-3.982 1.964,-5.535 1.095,-1.644 2.526,-2.77 2.254,-4.857 -0.344,-2.662 -2.683,-4.463 -3.032,-7.303 -0.263,-2.127 -0.313,-4.243 1.048,-5.999 1.189,-1.534 3.332,-2.709 5.319,-2.467 2.871,0.347 6.239,3.272 8.464,5.003 0.999,0.777 2.193,1.522 3.319,2.09 0.524,0.264 1.967,0.427 2.236,0.941 0.534,1.019 -2.496,0.995 -3.199,1.073" />
          </g>
          <g
             transform="translate(182.1977,520.0396)"
             id="g6776">
            <path
               inkscape:connector-curvature="0"
               id="path6778"
               style="fill:#d3d2d2;fill-opacity:1;fill-rule:nonzero;stroke:none"
               d="m 0,0 c -0.419,-1.752 -0.897,-3.108 -2.798,-3.43 -2.047,-0.348 -3.087,1.357 -3.542,3.219 -0.511,2.087 -0.652,4.359 -0.216,6.443 0.371,1.781 0.884,3.627 -0.131,5.267 -0.85,1.37 -1.929,2.411 -0.862,4.102 1.04,1.654 2.947,1.309 4.524,1.283 -0.138,1.934 -2.015,2.1 -3.503,1.836 -1.579,-0.279 -2.675,-1.173 -4.107,-2.095 -2.004,-1.292 -6.748,-3.69 -4.969,-6.636 0.876,-1.449 2.826,-1.604 3.925,-2.87 1.156,-1.331 1.602,-3.581 1.266,-5.291 -0.865,-4.388 -5.326,-4.007 -8.597,-2.9 -2.012,0.68 -4.302,0.612 -6.131,-0.564 -1.182,-0.765 -1.928,-1.958 -2.924,-2.955 -0.455,-0.458 -0.995,-1.059 -1.585,-1.315 -0.71,-0.31 -1.545,-0.129 -2.253,-0.458 -0.713,-0.33 -1.298,-0.938 -1.19,-1.797 0.056,-0.442 0.455,-0.747 0.542,-1.076 0.104,-0.389 0.068,-0.76 0.104,-1.176 0.183,-2.14 0.514,-3.956 2.822,-4.6 3.182,-0.885 5.972,-0.839 9.238,-0.43 2.916,0.361 6.225,1.165 8.977,2.042 1.652,0.529 2.609,1.131 3.997,2.229 1.237,0.976 3.186,2.409 4.726,2.881 1.418,0.434 3.701,-0.568 5.054,-0.831 5.485,-1.077 11.113,-0.504 16.754,-0.005 1.652,0.147 2.741,-0.868 3.969,-1.832 1.13,-0.888 1.572,-2.514 2.693,-3.23 1.841,1.081 0.947,4.402 0.644,6.027 -0.448,2.411 -1.571,1.937 -3.545,2.576 -1.982,0.646 -0.282,2.885 -2.122,4.111 -0.634,0.421 -1.5,0.516 -2.178,0.911 C 17.84,-0.129 17.277,0.628 16.62,1.264 14.069,3.748 10.153,4.257 6.984,2.391 5.487,1.511 4.811,-0.229 3.337,-1.096 1.139,-2.389 1.183,0.468 0.109,0.109" />
          </g>
          <g
             transform="translate(183.3795,533.0392)"
             id="g6780">
            <path
               inkscape:connector-curvature="0"
               id="path6782"
               style="fill:#2151a8;fill-opacity:1;fill-rule:nonzero;stroke:none"
               d="M 0,0 C 1.12,0.407 1.169,2.234 0.555,3.063 -0.216,4.099 -1.524,4.007 -2.651,4.152 -3.786,4.298 -4.494,5.436 -5.659,5.735 -6.786,6.023 -8.195,5.779 -9.083,4.922 -9.787,4.24 -9.767,3.209 -10.457,2.578 -11.122,1.966 -12.071,2.01 -12.89,1.847 c -1.816,-0.361 -3.577,-1.5 -3.223,-3.543 -0.236,1.188 0.009,2.227 0.788,3.117 0.924,1.049 0.485,1.701 0.143,2.948 -0.333,1.204 0.249,2.343 1.645,1.933 1.15,-0.338 2.022,-1.51 3.312,-0.879 1.327,0.649 0.526,1.951 1.396,2.831 1.036,1.051 2.39,0.161 3.014,-0.876 C -5.198,6.347 -4.983,5.227 -3.58,5.157 -2.37,5.096 -1.566,5.388 -0.43,4.799 0.509,4.31 1.025,3.87 1.145,2.794 1.222,2.114 1.193,0.624 0.429,0.359" />
          </g>
          <g
             transform="translate(184.9565,546.3613)"
             id="g6784">
            <path
               inkscape:connector-curvature="0"
               id="path6786"
               style="fill:#2151a8;fill-opacity:1;fill-rule:nonzero;stroke:none"
               d="m 0,0 c -1.404,2.078 -4.87,-0.32 -6.444,-0.86 -1.269,-0.435 -1.94,0.121 -3.081,0.362 -1.222,0.259 -2.098,-0.481 -2.939,-1.237 -2.048,-1.845 -4.076,0.1 -6.377,-0.34 -1.763,-0.34 -4.485,-2.178 -6.097,-0.662 -0.07,0.067 -0.238,0.102 -0.324,0.162 1.342,-0.019 2.555,0.286 3.775,0.832 0.439,0.199 1.045,0.411 1.414,0.686 0.513,0.383 0.542,0.597 1.003,0.978 0.924,0.766 2.276,-0.028 3.311,0.221 0.712,0.171 0.669,0.76 1.167,1.056 0.409,0.243 1.167,0.06 1.63,0.024 1.21,-0.102 2.169,0.226 3.288,0.357 1.268,0.147 2.503,-0.277 3.729,-0.076 1.149,0.185 2.179,0.44 3.437,0.288 0.539,-0.066 1.154,-0.186 1.646,-0.358 0.12,-0.041 0.477,-0.288 0.573,-0.288 0.34,0.003 0.39,0.266 0.555,0.291 C 0.372,1.45 0.559,1.679 0.702,1.709 0.744,1.131 0.735,0.211 0.072,0.072" />
          </g>
          <g
             transform="translate(178.6531,549.2265)"
             id="g6788">
            <path
               inkscape:connector-curvature="0"
               id="path6790"
               style="fill:#2151a8;fill-opacity:1;fill-rule:nonzero;stroke:none"
               d="m 0,0 c -2.13,0.944 -4.427,1.653 -6.88,0.928 -0.403,-0.12 -2.84,-1.504 -3.026,-1.308 -0.129,0.136 0.453,1.137 0.437,1.453 -0.025,0.536 -0.793,1.22 -0.415,1.706 0.535,0.681 2.824,-0.324 3.58,-0.22 1.255,0.174 2.6,0.908 3.778,1.323 0.489,0.172 1.242,0.432 1.575,-0.108 0.298,-0.481 -0.29,-1.022 -0.195,-1.556 0.182,-1.037 2.167,-1.327 2.2,-2.295 10e-4,-0.033 0.085,-0.1 0.099,-0.139 -0.289,-0.259 -0.661,-0.04 -1.011,0.072" />
          </g>
          <g
             transform="translate(139.9774,472.6723)"
             id="g6792">
            <path
               inkscape:connector-curvature="0"
               id="path6794"
               style="fill:#2151a8;fill-opacity:1;fill-rule:nonzero;stroke:none"
               d="m 0,0 c 0.485,-3.906 2.923,-4.71 4.191,-8.173 0.791,-2.156 2.614,-3.88 4.619,-5.235 1.742,-1.175 2.479,-2.485 3.894,-3.973 0.552,-0.58 1.173,-1.161 1.793,-1.663 0.91,-0.736 1.49,-0.58 2.484,-0.938 1.878,-0.678 2.114,-2.04 4.399,-2.047 l 0,0.106 c 0.026,0.012 0.048,0.028 0.072,0.038 0.192,-0.909 0.55,-1.343 1.948,-1.994 0.719,-0.334 0.894,-0.547 1.634,-0.944 0.815,-0.436 2.135,-1.367 3.008,-1.691 1.858,-0.689 4.762,-0.858 6.658,-0.779 4.593,0.19 8.781,-1.587 13.348,-1.849 4.265,-0.246 8.573,0.158 12.516,1.873 1.795,0.781 3.198,2.285 4.968,3.117 1.814,0.854 2.805,0.961 3.76,2.876 0.79,1.578 1.915,3.475 2.922,4.936 1.133,1.645 2.385,2.595 3.12,4.49 1.417,3.66 3.364,6.983 4.594,10.661 l -0.165,0.014 c 0.197,0.536 0.842,2.887 1.024,3.424 0.712,2.107 0.458,4.692 0.536,7.306 0.109,3.544 -1.601,7.747 -3.759,11.816 -1.698,3.206 -4.644,7.094 -1.728,10.404 -1.2,0.403 -2.041,1.741 -2.884,2.678 -0.779,0.862 -2.068,1.68 -2.347,2.809 -0.037,-0.593 -0.047,-1.215 -0.024,-1.815 0.079,-1.928 0.482,-3.768 0.967,-5.612 0.473,-1.806 0.347,-4.091 0.346,-5.886 -0.003,-1.861 -0.192,-3.112 -1.502,-4.431 -0.774,-0.78 -1.84,-2.264 -2.921,-2.864 -0.998,0.321 -2.191,0.365 -3.441,0.314 -2.25,-0.092 -4.482,-0.147 -6.742,-0.241 -1.465,-0.059 -2.9,-0.171 -4.316,0.211 -1.091,0.296 -2.096,0.81 -3.198,1.079 -2.161,0.527 -4.343,0.467 -6.375,-0.486 C 41.136,16.467 39.667,14.506 37.495,13.447 35.586,12.515 33.882,12.811 31.91,12.46 29.939,12.111 28.735,10.662 26.968,9.953 25.965,9.555 25.013,9.664 23.942,9.555 22.816,9.438 21.91,8.891 20.944,8.291 20.162,7.807 19.467,7.267 19.014,6.442 18.797,6.045 18.635,5.035 18.55,4.512 17.698,5.12 16.717,5.505 15.872,6.419 c -1.432,1.546 -2.096,4.17 -2.013,6.245 0.093,2.279 0.442,4.808 0,7.096 -0.383,1.997 -1.495,1.882 -2.657,3.245 C 9.901,24.53 9.879,27.11 9.669,29.003 9.461,30.886 8.334,32.213 7.93,33.931 7.006,32.976 7.306,31.575 7.2,30.289 7.076,28.795 6.53,27.86 5.722,26.632 4.802,25.228 4.538,23.374 3.52,22.152 2.985,21.513 1.933,21.082 1.747,20.161 1.525,19.059 2.251,20.056 3.226,19.76 6.578,18.742 3.868,15.463 2.472,11.382 2.147,10.431 1.184,8.959 0.945,7.949 0.732,7.051 0.857,5.908 0.857,5.042 0.854,4.168 0.937,3.166 0.649,2.358 0.312,1.416 -0.134,1.05 0,0" />
          </g>
          <g
             transform="translate(142.4498,496.2993)"
             id="g6796">
            <path
               inkscape:connector-curvature="0"
               id="path6798"
               style="fill:#2151a8;fill-opacity:1;fill-rule:nonzero;stroke:none"
               d="m 0,0 c -0.312,-1.87 -2.364,-1.209 -2.899,0.11 -0.572,1.424 -0.264,2.935 0.244,4.38 1.017,2.899 2.423,5.604 3.681,8.395 C 0.661,10.56 3.21,9.634 2.801,7.627 2.65,6.901 2.138,5.933 1.206,6.146 0.337,6.344 0.58,7.685 -0.423,7.283 -1.537,6.841 -2.141,3.24 -2.154,2.262 -2.17,1.256 -1.913,0.449 -0.86,1.203 -0.042,1.789 -0.351,3.223 0.236,3.871 0.363,4.012 0.44,4.208 0.536,4.367 1.095,3.418 0.379,1.359 0,0.43" />
          </g>
          <g
             transform="translate(142.2349,511.6622)"
             id="g6800">
            <path
               inkscape:connector-curvature="0"
               id="path6802"
               style="fill:#2151a8;fill-opacity:1;fill-rule:nonzero;stroke:none"
               d="M 0,0 C 0.296,2.492 1.324,6.368 4.173,6.969 3.477,5.66 3.779,3.644 3.655,2.152 3.508,0.384 3.489,-1.651 4.115,-3.316 4.152,-3.356 4.153,-3.353 4.12,-3.31 3.121,-2.434 2.767,-0.319 2.602,0.965 2.486,1.868 3.01,3.442 2.472,4.092 0.972,3.36 1.076,-0.168 -0.109,-0.325" />
          </g>
          <g
             transform="translate(209.5915,511.0164)"
             id="g6804">
            <path
               inkscape:connector-curvature="0"
               id="path6806"
               style="fill:#2151a8;fill-opacity:1;fill-rule:nonzero;stroke:none"
               d="M 0,0 C 0.394,1.15 -0.253,2.479 0.861,3.437 2.028,4.444 2.519,3.702 2.905,2.576 3.448,0.977 5.228,-3.021 7.12,-0.467 7.714,-1.495 6.836,-2.532 5.801,-2.576 4.59,-2.628 3.793,-1.599 3.356,-0.641 3.051,0.028 3.06,1.539 2.178,1.855 0.984,2.288 0.907,0.656 0.324,0.106" />
          </g>
          <g
             transform="translate(207.0152,523.4801)"
             id="g6808">
            <path
               inkscape:connector-curvature="0"
               id="path6810"
               style="fill:#2151a8;fill-opacity:1;fill-rule:nonzero;stroke:none"
               d="M 0,0 C 0.12,1.788 -1.189,4.337 -1.743,6.041 -2.155,7.304 -3.495,8.432 -4.061,9.869 -3.444,8.304 -1.697,8.456 -0.218,7.304 0.858,6.465 0.739,5.259 1.214,4.093 1.254,4.056 1.256,4.057 1.217,4.101 -0.757,5.005 0.595,0.589 0.757,-0.109 1.166,-1.897 1.582,-3.717 1.635,-5.578 1.746,-4.376 0.444,-0.485 -0.325,0.32" />
          </g>
          <g
             transform="translate(165.547,563.4404)"
             id="g6812">
            <path
               inkscape:connector-curvature="0"
               id="path6814"
               style="fill:#2151a8;fill-opacity:1;fill-rule:nonzero;stroke:none"
               d="m 0,0 c 0.527,0.512 0.111,2.672 0.106,3.545 -0.004,1.34 0.239,2.542 0.347,3.869 0.203,2.485 0.982,5.317 3.323,6.338 -4.092,0.013 -3.891,5.993 -4.714,8.914 -0.497,1.766 -0.585,3.547 -1.188,5.266 -0.636,1.818 -1.147,3.434 -2.279,5.051 -1.166,1.668 -2.547,3.269 -3.629,4.937 -1.024,1.58 -1.753,3.418 -2.812,4.848 -0.529,-0.555 -0.373,-1.948 -0.44,-2.723 -0.094,-1.099 -0.429,-2.03 -0.667,-3.085 -0.6,-2.64 -0.915,-5.54 -1.267,-8.248 -0.316,-2.447 -0.316,-4.8 -1.045,-7.203 -0.622,-2.05 -1.191,-4.408 -0.988,-6.58 0.116,-1.223 1.17,-1.705 2.149,-2.704 1.081,-1.103 2.223,-2.483 3.543,-3.336 2.008,-1.298 4.191,-1.666 6.43,-1.922 -0.099,-1.888 0.817,-4.069 0.982,-5.999 0.046,-0.536 -0.267,-2.293 0.342,-2.558 0.545,-0.233 1.588,1.022 2.131,1.16" />
          </g>
          <g
             transform="translate(149.9316,560.6111)"
             id="g6816">
            <path
               inkscape:connector-curvature="0"
               id="path6818"
               style="fill:#2151a8;fill-opacity:1;fill-rule:nonzero;stroke:none"
               d="m 0,0 c 1.363,3.296 3.297,6.177 3.929,7.659 0.653,1.53 1.33,3.218 1.15,4.91 0.883,-0.781 2.052,-1.1 3.112,-1.598 C 7.018,9.694 5.829,8.338 4.762,6.91 3.844,5.683 1.507,2.005 0.075,-0.5" />
          </g>
          <g
             transform="translate(168.7693,576.8677)"
             id="g6820">
            <path
               inkscape:connector-curvature="0"
               id="path6822"
               style="fill:#2151a8;fill-opacity:1;fill-rule:nonzero;stroke:none"
               d="m 0,0 c 2.27,1.435 7.54,-0.869 9.654,-1.966 0.038,-0.042 0.036,-0.042 -0.005,0 C 7.781,-0.439 7.03,1.163 4.403,1.719 2.427,2.137 -0.151,1.549 -1.396,-0.105" />
          </g>
          <g
             transform="translate(217.003,571.4977)"
             id="g6824">
            <path
               inkscape:connector-curvature="0"
               id="path6826"
               style="fill:#2151a8;fill-opacity:1;fill-rule:nonzero;stroke:none"
               d="m 0,0 c -6.149,4.402 -14.438,3.815 -20.435,9.105 -1.401,1.233 -2.221,3.815 -4.164,4.001 -1.69,0.162 -3.798,-1.539 -3.494,-3.23 1.52,0.931 3.255,-0.243 4.277,-1.465 1.325,-1.595 1.97,-2.93 3.843,-4.006 2.003,-1.15 2.689,-2.122 2.893,-4.405 0.252,-2.826 1.733,-1.53 3.23,-0.347 2.231,1.77 4.496,1.338 7.191,0.862 1.924,-0.342 5.236,-1.807 6.984,-1.266" />
          </g>
          <g
             transform="translate(221.9454,581.1678)"
             id="g6828">
            <path
               inkscape:connector-curvature="0"
               id="path6830"
               style="fill:#2151a8;fill-opacity:1;fill-rule:nonzero;stroke:none"
               d="m 0,0 c -0.795,1.329 -3.048,2.358 -4.375,2.93 -1.854,0.798 -3.65,1.151 -5.614,1.606 -4.201,0.98 -8.291,2.122 -12.165,4.032 -1.405,0.693 -2.628,1.34 -4.172,0.676 -1.337,-0.577 -2.058,-2.254 -1.931,-3.62 1.169,1.585 3.096,0.481 4.383,-0.383 1.525,-1.026 1.951,-2.043 2.601,-3.628 0.806,-1.964 1.163,-2.63 3.088,-1.158 1.727,1.322 2.928,1.745 5.078,1.907 2.18,0.165 4.373,-0.285 6.554,-0.56 1.567,-0.201 4.849,-0.503 5.694,-1.587" />
          </g>
          <g
             transform="translate(221.838,593.2005)"
             id="g6832">
            <path
               inkscape:connector-curvature="0"
               id="path6834"
               style="fill:#2151a8;fill-opacity:1;fill-rule:nonzero;stroke:none"
               d="m 0,0 c -1.34,1.359 -2.411,2.462 -4.616,2.576 -2.077,0.109 -4.088,-0.887 -6.127,-1.072 -2.239,-0.2 -4.402,0.394 -6.551,0.886 -1.559,0.359 -3.947,0.659 -5.356,-0.261 -0.982,-0.642 -1.428,-1.881 -1.828,-2.976 3.089,1.926 6.546,0.235 8.681,-2.366 1.361,1.051 1.828,1.931 3.658,2.346 1.576,0.358 3.226,0.487 4.752,0.947 1.791,0.539 3.164,0.453 4.911,-0.112 2.064,-0.662 2.577,-1.7 3.843,-3.158 0.522,0.651 0.16,2.183 -0.721,2.327" />
          </g>
          <g
             transform="translate(230.7536,596.0992)"
             id="g6836">
            <path
               inkscape:connector-curvature="0"
               id="path6838"
               style="fill:#2151a8;fill-opacity:1;fill-rule:nonzero;stroke:none"
               d="m 0,0 c -1.71,1.128 -2.68,2.565 -4.859,3.115 -2.038,0.515 -5.014,0.942 -6.923,-0.118 1.876,0.965 2.322,3.822 4.259,4.764 1.415,0.689 1.127,-0.336 1.8,-1.233 C -4.912,5.44 -3.718,5.525 -2.495,5.394 -0.507,5.184 2.507,4.618 3.004,2.469 3.281,1.264 2.679,-2.022 0.641,-1.511 0.325,-1.433 0.065,-0.308 -0.107,0" />
          </g>
          <g
             transform="translate(215.6073,602.5448)"
             id="g6840">
            <path
               inkscape:connector-curvature="0"
               id="path6842"
               style="fill:#2151a8;fill-opacity:1;fill-rule:nonzero;stroke:none"
               d="m 0,0 c 1.317,3.922 4.539,7.954 8.057,10.123 2.72,1.676 6.777,4.347 9.8,4.572 1.756,0.127 3.498,-0.974 5.136,-1.782 0.675,-0.33 2.035,-0.494 2.574,-0.992 0.646,-0.598 0.225,-1.302 0.108,-2.252 -0.544,-4.413 0.821,-8.652 0.214,-13.108 -1.021,-7.459 -3.863,-16.301 -10.591,-20.42 2.069,1.609 3.493,4.86 4.683,7.21 1.406,2.777 2.647,5.504 3.005,8.567 0.62,5.294 0.497,11.242 -1.934,16.14 -0.443,0.893 -0.928,1.415 -1.81,1.848 0.482,0.733 1.854,0.348 1.925,1.377 0.069,1.03 -1.305,1.071 -2.044,1.071 -1.867,0 -4.11,-0.689 -5.812,-1.479 C 9.525,9.114 7.08,5.682 5.294,2.041 3.832,-0.943 1.597,-5.741 -1.92,-6.533 c 0.647,1.191 1.414,2.376 2.16,3.526 0.58,0.892 1.888,2.233 2.045,3.325 C 2.523,1.976 1.379,0.625 0.781,-0.133 0.173,-0.902 -0.151,-2.01 -0.843,-2.645 -0.772,-1.993 -0.296,0.058 -0.106,0" />
          </g>
          <g
             transform="translate(212.8161,597.9246)"
             id="g6844">
            <path
               inkscape:connector-curvature="0"
               id="path6846"
               style="fill:#2151a8;fill-opacity:1;fill-rule:nonzero;stroke:none"
               d="m 0,0 c 0.698,1.804 0.958,3.919 1.635,5.795 1.012,2.822 2.623,5.186 4.188,7.714 1.506,2.433 3.262,4.915 5.89,6.233 1.69,0.849 4.1,0.841 5.977,0.908 -1.989,0.394 -3.971,1.183 -6.092,0.837 C 9.705,21.181 7.575,20.345 5.884,19.363 1.913,17.065 -1.847,14.123 -3.221,9.452 -3.6,8.162 -3.697,6.77 -4.068,5.518 c 0.775,1.201 1.24,2.759 1.896,4.048 0.782,1.548 1.652,2.757 2.812,4.079 1.518,1.732 3.512,3.059 5.467,4.221 0.039,0.039 0.038,0.042 -0.005,0.002 C 3.957,14.932 2.119,12.163 0.936,8.702 0.137,6.366 -0.625,2.542 0,0.324" />
          </g>
          <g
             transform="translate(162.1804,452.3981)"
             id="g6848">
            <path
               inkscape:connector-curvature="0"
               id="path6850"
               style="fill:#ffffff;fill-opacity:1;fill-rule:nonzero;stroke:none"
               d="m 0,0 c 0.328,0.415 0.236,1.929 0.214,2.507 -0.046,1.392 -0.436,2.881 -0.875,4.209 -0.216,0.652 -0.321,2.115 -0.683,2.611 -0.26,0.362 -1.593,0.908 -2.085,0.903 -0.207,-1.21 1.486,-2.191 1.698,-3.345 -0.797,0 -1.843,0.374 -1.368,-0.813 C -2.887,5.545 -1.366,4.224 -1.573,3.649 -1.909,2.718 -3.837,4.074 -3.94,3.294 -4.03,2.636 -1.992,2.227 -1.564,1.933 -3.829,1.123 -5.313,3.918 -7.292,3.999 -7.801,2.341 -1.308,-0.927 0,-0.143" />
          </g>
          <g
             transform="translate(186.8167,451.8233)"
             id="g6852">
            <path
               inkscape:connector-curvature="0"
               id="path6854"
               style="fill:#ffffff;fill-opacity:1;fill-rule:nonzero;stroke:none"
               d="m 0,0 c -1.523,0.648 -2.955,1.453 -4.448,2.146 -1.147,0.534 -2.579,1.589 -3.213,2.714 1.169,0.085 2.371,-0.495 0.841,0.725 -0.704,0.561 -1.943,1.246 -2.121,2.143 1.81,-1.422 4.514,-2.579 6.785,-2.699 -0.64,0.864 -3.087,1.408 -3.133,2.625 0.776,0.065 3.624,-2.293 3.572,-0.347 -0.053,1.897 -2.874,2.121 -3.288,3.782 1.225,0.479 2.713,-1.33 3.934,-0.848 1.297,0.514 -1.658,1.642 -2,2.284 1.315,0.184 2.501,-1.016 3.847,-0.836 0.461,1.082 -2.11,1.506 -2.373,2.421 -0.27,0.944 1.805,0.09 2.456,-0.07 0.576,-0.142 2.329,-1.003 2.563,0.003 C 3.598,14.8 1.505,15.199 1.299,16.247 2.489,16.251 3.657,15.084 4.661,14.54 5.673,13.99 7.597,13.725 8.225,12.694 7.165,12.259 5.927,13.077 4.856,13.093 3.163,13.117 5.1,12.249 5.656,11.946 6.07,11.723 8.244,10.438 7.438,9.826 6.631,9.212 4.427,11.018 3.371,10.587 3.845,9.645 5.558,9.494 6.306,8.667 7.105,7.781 6.285,7.529 5.338,7.717 4.039,7.978 2.713,9.072 1.372,8.506 1.695,7.841 3.169,7.842 3.07,7.032 2.639,7.006 1.131,7.575 0.804,7.292 0.229,6.802 1.178,6.249 1.525,6.02 3.364,4.806 5.208,3.718 7.297,3.067 6.324,2.157 2.777,3.478 1.649,3.87 1.229,4.016 -1.012,5.197 -0.772,4.3 -0.601,3.644 2.038,2.785 1.728,2.132 1.317,1.264 -1.462,2.816 -2.137,2.783 -2.431,1.218 0.795,1.159 1.064,-0.195 0.85,-0.295 0.548,-0.334 0.286,-0.284" />
          </g>
          <g
             transform="translate(196.4139,466.2926)"
             id="g6856">
            <path
               inkscape:connector-curvature="0"
               id="path6858"
               style="fill:#ffffff;fill-opacity:1;fill-rule:nonzero;stroke:none"
               d="m 0,0 c -0.863,-0.049 -1.942,0.57 -2.719,0.946 -1.245,0.606 -2.53,1.101 -3.743,1.775 -1.178,0.654 -2.582,1.195 -3.641,2.02 -0.627,0.489 -1.925,1.443 -1.775,2.336 1.361,0.05 2.744,-1.438 4.09,-1.834 0.804,-0.238 3.452,-1.144 4.07,-0.374 -0.237,0.302 -1.374,0.879 -1.371,1.286 0.009,0.765 1.16,0.309 1.578,0.204 C -2.322,6.057 -1.138,5.748 0.077,5.443 0.323,5.381 0.752,5.178 1.002,5.225 1.481,5.32 1.286,5.56 1.635,5.729 1.9,5.858 1.725,5.904 2.147,5.927 2.408,5.941 2.888,5.666 3.169,5.602 3.593,5.502 5.179,5.546 5.396,5.085 5.867,4.086 3.823,4.077 3.369,4.08 2.647,4.089 -0.533,4.869 -0.923,4.371 -0.223,3.688 0.932,3.639 1.636,2.991 2.815,1.9 1.235,2.103 0.445,2.221 c -1.12,0.168 -2.162,0.421 -3.224,0.77 -0.499,0.166 -1.259,0.488 -1.671,0.235 0.555,-0.761 4.885,-2.8 4.666,-3.298" />
          </g>
          <g
             transform="translate(198.4184,473.5971)"
             id="g6860">
            <path
               inkscape:connector-curvature="0"
               id="path6862"
               style="fill:#ffffff;fill-opacity:1;fill-rule:nonzero;stroke:none"
               d="m 0,0 c -0.676,-0.697 -3.543,-0.099 -4.42,0.087 -1.096,0.232 -3.06,1.085 -3.236,2.335 0.83,0.117 3.317,-1.223 3.917,-0.617 0.289,0.289 -1.34,1.048 -1.631,1.273 -0.501,0.39 -0.98,0.805 -1.139,1.424 1.084,0.145 2.204,-0.598 3.279,-0.625 -0.133,0.996 -1.736,1.005 -1.701,2.13 1.053,0.171 1.847,-0.9 2.917,-0.767 -0.112,0.747 -1.879,1.385 -1.695,2.138 0.219,0.901 2.034,-0.465 2.494,-0.507 1.254,-0.115 0.692,0.6 0.57,1.181 -0.143,0.69 -0.235,0.494 0.428,0.685 0.395,0.113 0.822,0.044 1.208,0.153 0.115,0.585 -0.825,1.396 -0.547,1.713 0.218,0.253 1.964,-0.596 2.336,-0.637 0.173,0.359 0.07,0.77 0.46,0.977 0.464,0.245 1.254,-0.296 1.626,-0.485 C 6.712,9.517 8.462,8.69 10.481,8.176 10.933,8.061 12.154,7.963 12.464,7.536 12.891,6.939 12.069,6.928 11.447,6.945 9.692,6.987 7.719,8.636 6.028,8.152 5.985,6.819 9.155,6.054 9.878,5.17 8.383,4.316 6.964,5.979 5.596,5.934 5.536,4.573 8.422,4.151 8.873,2.877 6.918,2.767 6.003,3.391 4.369,4.301 3.32,4.885 2.017,5.512 0.799,5.432 0.667,4.479 3.34,3.502 3.789,2.646 2.907,1.984 1.476,3.283 0.501,3.078 -0.705,2.825 1.274,1.776 1.57,1.163 0.788,0.805 -0.322,1.622 -1.063,1.061 -0.862,0.645 -0.347,0.196 0,0.215" />
          </g>
          <g
             transform="translate(144.9915,523.3715)"
             id="g6864">
            <path
               inkscape:connector-curvature="0"
               id="path6866"
               style="fill:#d3d2d2;fill-opacity:1;fill-rule:nonzero;stroke:none"
               d="m 0,0 c -1.36,2.036 -3.332,3.771 -4.758,5.735 -1.407,1.942 -2.948,3.941 -4.549,5.728 -3.487,3.897 -6.863,8.03 -10.347,11.847 -0.65,0.708 -2.057,1.788 -2.4,2.643 -0.475,1.179 0.56,2.054 1.39,3.265 1.536,2.246 2.872,4.774 4.602,6.842 -3.643,2.438 -7.606,4.224 -11.726,5.043 2.01,-0.65 5.536,-2.811 6.988,-4.579 0.965,-1.178 0.531,-1.615 -0.393,-2.932 -0.741,-1.06 -1.65,-2.052 -2.432,-3.083 -0.727,-0.958 -1.448,-1.892 -2.125,-2.901 -1.023,-1.525 -0.961,-1.29 0.404,-2.362 2.422,-1.899 4.936,-4.124 6.908,-6.481 3.114,-3.723 6.1,-7.509 9.279,-11.174 C -6.637,4.677 -3.48,1.21 0,-0.286" />
          </g>
          <g
             transform="translate(117.7766,565.1954)"
             id="g6868">
            <path
               inkscape:connector-curvature="0"
               id="path6870"
               style="fill:#d3d2d2;fill-opacity:1;fill-rule:nonzero;stroke:none"
               d="m 0,0 c 0.766,3.274 2.784,6.05 4.293,8.99 1.926,3.743 4.076,7.475 6.3,11.047 2.329,3.743 4.103,7.791 6.312,11.583 2.286,3.929 4.859,7.77 7.297,11.604 3.235,5.1 7.445,10.028 11.085,14.34 -1.28,-1.481 -3.779,-2.264 -5.32,-3.739 -2.5,-2.396 -5.453,-4.434 -7.621,-7.264 C 16.101,38.395 11.604,29.353 6.16,20.725 3.475,16.471 1.979,11.972 0.33,7.313 -0.524,4.895 -0.984,1.961 -2.305,-0.142 c 0.532,-0.386 1.677,-0.4 2.02,-0.716" />
          </g>
          <g
             transform="translate(194.6959,590.2625)"
             id="g6872">
            <path
               inkscape:connector-curvature="0"
               id="path6874"
               style="fill:#d3d2d2;fill-opacity:1;fill-rule:nonzero;stroke:none"
               d="m 0,0 c -3.286,5.876 -10.166,8.113 -15.577,11.735 -1.715,1.147 -3.857,2.376 -5.765,3.304 -1.885,0.918 -2.713,2.046 -4.615,2.97 -2.808,1.362 -5.498,2.915 -8.248,4.301 -1.6,0.806 -3.131,1.692 -4.74,2.174 0.616,2.198 1.665,4.586 3.275,6.251 1.491,-0.263 3.205,-0.167 4.723,-0.378 1.426,-0.194 4.324,-0.223 5.327,-1.273 -1.181,-1.832 -5.243,-1.435 -5.32,-4.019 -0.058,-2.026 3.69,-3.553 5.158,-4.438 6.287,-3.802 13.857,-6.943 19.193,-12.057 2.749,-2.634 5.166,-5.169 6.874,-8.427" />
          </g>
          <g
             transform="translate(157.7116,510.5173)"
             id="g6876">
            <path
               inkscape:connector-curvature="0"
               id="path6878"
               style="fill:#ffffff;fill-opacity:1;fill-rule:nonzero;stroke:none"
               d="M 0,0 C 0.557,3.082 4.427,5.795 7.316,5.818 8.834,5.832 11.248,5.779 12.635,5.241 14.844,4.38 13.704,1.879 12.196,0.7 9.702,-1.242 2.112,-3.429 -0.222,-0.349" />
          </g>
          <g
             transform="translate(171.2775,515.6377)"
             id="g6880">
            <path
               inkscape:connector-curvature="0"
               id="path6882"
               style="fill:#2151a8;fill-opacity:1;fill-rule:nonzero;stroke:none"
               d="M 0,0 C 1.222,-0.665 1.881,0.443 3.006,0.575 4.942,0.803 2.916,-1.093 3.096,-1.776 3.223,-2.255 3.9,-2.456 3.993,-3.081 4.092,-3.74 3.661,-4.074 3.505,-4.654 3.311,-5.383 3.434,-5.63 2.862,-6.248 2.41,-6.74 1.959,-7.251 1.428,-7.662 c -2.512,-1.941 -5.975,-2.447 -9.039,-3.084 -2.772,-0.573 -5.832,-1.351 -8.718,-1 -1.248,0.151 -2.623,0.46 -3.6,1.271 -0.729,0.609 -1.595,1.889 -0.125,1.824 3.071,-0.134 6.343,-1.7 9.437,-0.356 0.376,0.164 0.831,0.432 1.082,0.752 -2.113,0.565 -4.419,0.127 -6.279,1.397 -1.278,0.873 -4.088,1.562 -4.661,3.118 1.107,-0.006 2.161,-0.56 3.355,-0.56 0.408,0 1.412,-0.173 1.724,0.072 0.398,0.314 0.201,1.109 0.351,1.58 0.846,2.675 3.261,3.547 5.806,3.649 1.157,0.048 2.344,-0.1 3.491,-0.145 1.025,-0.04 2.27,0.186 3.091,-0.426 C -3.639,0.104 -5.041,0.247 -6.091,0.159 -7.242,0.06 -8.184,-0.18 -9.245,-0.647 c -1.438,-0.631 -4.327,-1.829 -4.352,-3.785 0.835,0.259 1.539,1.194 2.323,1.574 -0.927,-0.734 -0.433,-1.73 0.603,-1.798 1.156,-0.076 1.204,0.94 2.02,1.703 0.742,0.693 1.833,0.914 2.834,0.642 0.59,-0.16 2.176,-0.799 2.029,-1.539 0.029,-0.025 0.052,-0.05 0.077,-0.076 0.779,0.109 1.957,0.509 2.119,1.491 0.125,0.776 -0.78,1.585 -1.606,1.571 0.927,0.59 2.431,-0.201 3.361,-0.398 C 0.608,-0.805 -0.15,-0.217 -0.504,0" />
          </g>
          <g
             transform="translate(186.9253,516.8185)"
             id="g6884">
            <path
               inkscape:connector-curvature="0"
               id="path6886"
               style="fill:#ffffff;fill-opacity:1;fill-rule:nonzero;stroke:none"
               d="M 0,0 C 1.779,3.236 4.458,4.233 8.056,3.437 9.336,3.154 11.425,2.472 11.708,0.968 12.207,-1.684 8.508,-2.694 6.63,-3.004 4.15,-3.417 0.01,-3.309 -0.109,0" />
          </g>
          <g
             transform="translate(206.8707,513.2023)"
             id="g6888">
            <path
               inkscape:connector-curvature="0"
               id="path6890"
               style="fill:#2151a8;fill-opacity:1;fill-rule:nonzero;stroke:none"
               d="m 0,0 c -2.701,-2.721 -8.411,-2.798 -12.464,-3.008 -2.292,-0.119 -4.636,-0.312 -7.018,0.11 -1.178,0.208 -2.042,0.325 -2.759,1.433 -0.286,0.441 -1.33,2.783 -1.369,3.302 -0.014,0.196 -0.206,0.504 -0.255,0.719 0.872,-0.197 1.784,-0.59 2.65,-0.92 -2.396,2.089 0.879,3.443 2.836,3.669 -2.447,-1.252 -1.608,-2.976 0.767,-3.463 1.372,1.955 2.404,4.422 5.291,2.31 0.655,-0.477 1.523,-2.04 2.476,-1.042 1.037,1.085 -0.699,2.401 -1.453,2.736 0.972,-0.306 2.025,-0.804 2.968,-1.243 -0.872,2.007 -2.142,2.576 -4.275,2.845 -1.507,0.186 -4.799,0.384 -6.034,-0.521 1.683,1.914 5.942,1.828 8.182,1.207 1.242,-0.347 2.572,-1.318 3.55,-2.152 0.832,-0.71 0.077,-0.85 1.319,-1.113 0.646,-0.134 1.356,0.233 1.983,0.265 C -3.728,4.096 -4.807,3.72 -5.282,3.032 -3.577,2.978 -3.057,2.964 -4.584,1.966 -5.576,1.318 -7.865,0.741 -8.951,0.358 -6.662,-1.647 -1.877,1.964 -0.074,0" />
          </g>
          <g
             transform="translate(164.8296,510.7669)"
             id="g6892">
            <path
               inkscape:connector-curvature="0"
               id="path6894"
               style="fill:#ffffff;fill-opacity:1;fill-rule:nonzero;stroke:none"
               d="M 0,0 C 0,0.356 0.289,0.646 0.646,0.646 1.002,0.646 1.289,0.356 1.289,0 1.289,-0.356 1.002,-0.647 0.646,-0.647 0.289,-0.647 0,-0.356 0,0" />
          </g>
          <g
             transform="translate(193.0484,515.2056)"
             id="g6896">
            <path
               inkscape:connector-curvature="0"
               id="path6898"
               style="fill:#ffffff;fill-opacity:1;fill-rule:nonzero;stroke:none"
               d="M 0,0 C 0,0.358 0.289,0.645 0.644,0.645 1,0.645 1.289,0.358 1.289,0 1.289,-0.354 1,-0.642 0.644,-0.642 0.289,-0.642 0,-0.354 0,0" />
          </g>
          <g
             transform="translate(180.2289,561.4717)"
             id="g6900">
            <path
               inkscape:connector-curvature="0"
               id="path6902"
               style="fill:#2151a8;fill-opacity:1;fill-rule:nonzero;stroke:none"
               d="m 0,0 c -2.664,1.728 -8.108,1.638 -11.165,1.138 -3.212,-0.523 -7.655,-2.032 -10.267,-4.308 6.443,6.063 14.42,7.527 22.146,3.313" />
          </g>
          <g
             transform="translate(214.4265,560.432)"
             id="g6904">
            <path
               inkscape:connector-curvature="0"
               id="path6906"
               style="fill:#d3d2d2;fill-opacity:1;fill-rule:nonzero;stroke:none"
               d="m 0,0 c -1.46,-2.015 -3.515,-2.848 -5.802,-3.246 -1.794,-0.317 -4.619,0.097 -5.765,-4.416 -1.986,2.642 2.028,6.444 3.504,7.478 2.377,1.667 4.631,0.392 7.095,0.184" />
          </g>
          <g
             transform="translate(201.1404,562.0448)"
             id="g6908">
            <path
               inkscape:connector-curvature="0"
               id="path6910"
               style="fill:#d3d2d2;fill-opacity:1;fill-rule:nonzero;stroke:none"
               d="m 0,0 c -2.172,3.965 -8.046,3.747 -11.569,5.475 -2.108,1.033 -2.755,3.282 -4.435,4.733 -1.088,0.943 -4.011,3.375 -0.943,4.413 -1.943,-1.455 1.563,-3.722 2.616,-4.449 1.599,-1.107 2.414,-3.088 4.154,-4.013 3.236,-1.722 8.714,-2.343 11.035,-5.301" />
          </g>
          <g
             transform="translate(202.6793,554.5607)"
             id="g6912">
            <path
               inkscape:connector-curvature="0"
               id="path6914"
               style="fill:#d3d2d2;fill-opacity:1;fill-rule:nonzero;stroke:none"
               d="m 0,0 c -0.843,-5.638 6.941,-1.605 9.06,-0.976 3.133,0.931 8.158,2.94 7.886,6.977 C 16.082,4.677 14.756,3.147 13.501,2.184 11.72,0.82 10.396,0.846 8.344,0.319 6.816,-0.074 3.678,-2.773 2.043,-2.256 1.096,-1.957 0.826,-1.611 1.037,1.183" />
          </g>
          <g
             transform="translate(214.6403,561.079)"
             id="g6916">
            <path
               inkscape:connector-curvature="0"
               id="path6918"
               style="fill:#2151a8;fill-opacity:1;fill-rule:nonzero;stroke:none"
               d="m 0,0 c -1.727,0.201 -3.287,1.354 -4.962,1.849 -1.724,0.508 -3.346,1.047 -5.034,1.694 -3.435,1.319 -5.938,2.977 -8.564,5.484 -2.255,2.151 -4.56,4.613 -6.149,7.307 -0.915,1.555 -1.507,2.128 -3.436,2.035 -1.285,-0.063 -3.693,-1.016 -3.524,-2.676 2.946,3.257 7.034,-3.495 8.896,-5.184 3.656,-3.324 6.646,-7.117 11.393,-8.898 1.126,-0.426 2.314,-0.57 3.422,-0.989 -1.754,-1.366 -3.095,-2.42 -3.305,-4.807 1.643,1.318 3.534,3.02 5.676,3.459 1.977,0.403 4.461,-0.553 6.017,0.511" />
          </g>
          <g
             transform="translate(204.6502,558.0704)"
             id="g6920">
            <path
               inkscape:connector-curvature="0"
               id="path6922"
               style="fill:#2151a8;fill-opacity:1;fill-rule:nonzero;stroke:none"
               d="M 0,0 C -1.645,-1.273 -2.844,-3.531 -1.265,-5.485 0.711,-7.932 2.557,-4.449 3.39,-2.934 3.084,-4.606 2.787,-5.786 1.1,-6.473 c -1.486,-0.605 -3.066,0.105 -3.656,1.639 -0.77,2.027 0.957,2.671 1.269,4.298 0.072,0.386 -2.064,3.588 -1.723,3.773 l 0,0.06 c 0.457,-1.503 2.199,-2.43 3.547,-2.652" />
          </g>
          <g
             transform="translate(209.1629,552.8058)"
             id="g6924">
            <path
               inkscape:connector-curvature="0"
               id="path6926"
               style="fill:#2151a8;fill-opacity:1;fill-rule:nonzero;stroke:none"
               d="M 0,0 C 0.633,0.237 2.142,0.879 1.803,1.801 1.486,2.668 -0.307,2.61 -0.951,2.27 -0.404,2.968 1.63,3.287 2.387,2.716 3.646,1.76 1.682,0.505 0.645,0.537" />
          </g>
          <g
             transform="translate(187.1724,569.9219)"
             id="g6928">
            <path
               inkscape:connector-curvature="0"
               id="path6930"
               style="fill:#2151a8;fill-opacity:1;fill-rule:nonzero;stroke:none"
               d="m 0,0 c -0.922,1.619 -2.692,2.653 -3.592,4.285 -0.491,0.889 -0.593,1.502 -0.075,2.448 0.46,0.842 1.386,1.678 2.392,1.576 C -2.311,8.3 -3.419,8.448 -4.204,7.376 -4.852,6.492 -4.761,5.423 -4.242,4.499 c 0.963,-1.717 3.017,-2.694 4.016,-4.441 0.02,-0.041 0.025,-0.083 0.013,-0.127" />
          </g>
          <g
             transform="translate(207.5871,532.2524)"
             id="g6932">
            <path
               inkscape:connector-curvature="0"
               id="path6934"
               style="fill:#d3d2d2;fill-opacity:1;fill-rule:nonzero;stroke:none"
               d="m 0,0 c -0.03,1.374 0.966,3.223 1.331,4.689 0.457,1.828 0.501,3.888 0.665,5.768 0.256,2.903 0.168,5.649 0.148,8.552 C 4.548,13.607 5.093,4.738 0.573,0.429" />
          </g>
          <g
             transform="translate(154.1244,607.4861)"
             id="g6936">
            <path
               inkscape:connector-curvature="0"
               id="path6938"
               style="fill:#d3d2d2;fill-opacity:1;fill-rule:nonzero;stroke:none"
               d="M 0,0 C 0.21,0.739 0.133,1.611 0.29,2.364 0.463,3.205 0.683,4.049 0.935,4.871 1.341,6.206 1.667,8.101 2.776,9.089 2.986,8.452 3.766,8.322 4.297,8.042 4.957,7.693 5.415,7.075 6.129,6.877 5.366,6.444 4.373,6.889 3.564,6.606 2.797,6.342 2.4,5.737 1.991,5.09 1.057,3.609 0.795,1.832 0.07,0.359" />
          </g>
          <g
             transform="translate(161.679,577.7272)"
             id="g6940">
            <path
               inkscape:connector-curvature="0"
               id="path6942"
               style="fill:#ffffff;fill-opacity:1;fill-rule:nonzero;stroke:none"
               d="m 0,0 -1.719,-0.374 -1.288,2.094 -1.182,-2.685 -1.934,-0.699 0,0.539 0.753,0.751 c 0,0 -0.323,2.149 -0.109,3.114 l -0.753,-0.107 0.056,1.235 1.934,0.968 c 0,0 -0.913,-1.289 -0.377,-3.705 0,0 1.02,0.32 0.698,2.524 0,0 1.289,-0.538 1.988,-2.204 0,0 -0.806,4.619 1.503,4.781 0,0 -1.289,-2.149 -0.483,-5.371 l 0.645,0.163 z" />
          </g>
          <g
             transform="translate(219.9756,560.3973)"
             id="g6944">
            <path
               inkscape:connector-curvature="0"
               id="path6946"
               style="fill:#2151a8;fill-opacity:1;fill-rule:nonzero;stroke:none"
               d="m 0,0 c 0.392,0.977 0.463,2.092 0.843,3.078 0.439,1.139 1.152,1.926 1.875,2.867 1.383,1.796 1.664,3.942 3.438,5.457 0.868,0.738 1.617,1.729 2.028,2.778 0.395,1.004 0.668,2.157 1.358,2.993 0.658,0.798 1.506,1.423 2.257,2.096 1.059,0.94 2.057,2.28 2.868,3.505 0.196,0.298 0.388,0.602 0.596,0.902 -0.5,-1.137 -0.832,-2.004 -1.601,-3.05 C 12.899,19.59 12.131,18.608 11.26,17.695 10.438,16.834 9.823,16.124 9.436,14.983 9.057,13.862 8.77,12.756 7.968,11.797 7.239,10.927 6.213,10.311 5.461,9.434 4.747,8.601 4.465,7.581 4.024,6.588 3.153,4.626 1.54,3.149 0.59,1.274 0.403,0.903 0.244,0.36 0,0.143" />
          </g>
          <g
             transform="translate(269.4639,602.7239)"
             id="g6948">
            <path
               inkscape:connector-curvature="0"
               id="path6950"
               style="fill:#d3d2d2;fill-opacity:1;fill-rule:nonzero;stroke:none"
               d="m 0,0 c 3.198,3.757 5.601,9.61 6.581,14.324 1.033,4.956 1.46,10.305 0.286,15.325 -0.376,1.607 -0.924,3.532 -1.723,4.969 1.408,-2.03 3.093,-3.244 4.027,-5.677 1.062,-2.768 1.313,-5.913 0.99,-8.889 C 9.508,14.007 5.936,7.075 2.401,2.177 1.714,1.232 0.786,0.044 -0.144,-0.575" />
          </g>
          <g
             transform="translate(103.8849,617.4774)"
             id="g6952">
            <path
               inkscape:connector-curvature="0"
               id="path6954"
               style="fill:#2151a8;fill-opacity:1;fill-rule:nonzero;stroke:none"
               d="m 0,0 c -3.866,-1.56 -5.093,-8.325 -6.052,-11.713 -1.25,-4.405 -0.779,-9.873 -0.399,-14.499 0.418,-5.073 0.389,-9.287 -0.572,-14.282 0.895,3.58 0.111,7.871 -0.567,11.373 -0.887,-1.962 -0.701,-4.49 -1.328,-6.547 -0.604,-1.989 -1.598,-3.77 -2.625,-5.609 2.885,4.576 0.727,11.271 2.894,16.057 -3.041,-1.796 -5.924,-4.652 -8.512,-6.994 0.127,2.885 4.543,5.928 6.414,7.894 1.994,2.099 1.638,4.616 1.865,7.418 0.405,4.995 -1.455,11.105 -6.411,13.138 -1.567,0.645 -3.074,1.587 -4.62,2.158 -1.325,0.489 -2.698,0.612 -3.822,1.465 2.603,0.055 5.29,-0.894 7.793,-1.61 2.182,-0.624 4.05,-1.971 6.029,-2.527 0.125,1.395 -2.271,3.21 -2.823,4.539 1.513,-0.134 2.493,-1.622 3.863,-1.963 0.615,1.446 -2.703,4.131 -0.869,4.854 2.146,0.847 2.044,-3.043 2.149,-4.155 0.352,-3.785 -1.07,-8.048 -0.143,-11.703 0.539,2.654 1.09,5.951 2.327,8.376 0.554,1.084 1.67,2.803 2.691,3.51 0.724,0.501 2.749,0.917 2.86,0.82" />
          </g>
          <g
             transform="translate(144.9199,522.0822)"
             id="g6956">
            <path
               inkscape:connector-curvature="0"
               id="path6958"
               style="fill:#d3d2d2;fill-opacity:1;fill-rule:nonzero;stroke:none"
               d="m 0,0 c -3.54,0.706 -7.197,1.287 -10.742,1.887 -3.646,0.615 -6.708,2.212 -10.311,3.114 -7.337,1.832 -15.31,1.173 -21.916,5.903 -3.103,2.219 -4.551,6.194 -7.271,8.78 1.371,-6.372 7.354,-11.856 13.238,-13.718 6.788,-2.145 14.105,-3.722 21.109,-4.894 2.883,-0.481 6.01,-0.822 9.018,-1.071 2.931,-0.244 5.32,-1.117 7.918,-1.473 0.182,0.835 -0.209,0.91 -0.613,1.257" />
          </g>
          <g
             transform="translate(95.2882,541.1242)"
             id="g6960">
            <path
               inkscape:connector-curvature="0"
               id="path6962"
               style="fill:#d3d2d2;fill-opacity:1;fill-rule:nonzero;stroke:none"
               d="m 0,0 c -0.151,0.287 -0.066,1.378 -0.394,1.398 0.05,0.236 -0.825,0.375 -0.7,0.626 -3.064,2.165 -5.52,5.125 -8.526,7.353 -3.754,2.782 -7.263,5.557 -10.144,9.392 -2.694,3.589 -5.386,7.099 -8.184,10.531 -2.533,3.113 -5.561,5.459 -8.379,8.377 -1.528,1.589 -2.753,3.699 -3.795,5.583 -0.956,1.728 -2.92,4.175 -3.442,6.031 -1.446,5.146 8.009,4.66 10.455,7.683 -3.738,0.301 -7.635,-1.652 -11.374,-1.477 -2.517,0.116 -5.83,1.804 -7.912,2.771 2.65,-1.28 5.171,-5.962 6.627,-8.438 1.95,-3.318 3.751,-6.98 5.92,-10.169 2.56,-3.77 5.774,-7.34 9.339,-10.156 3.002,-2.372 5.227,-5.366 7.94,-7.989 3.909,-3.779 5.314,-9.66 9.024,-13.534 1.949,-2.041 4.689,-3.097 7.096,-4.411 C -4.688,2.609 -0.719,1.065 0,-0.78" />
          </g>
          <g
             transform="translate(44.3696,599.0002)"
             id="g6964">
            <path
               inkscape:connector-curvature="0"
               id="path6966"
               style="fill:#d3d2d2;fill-opacity:1;fill-rule:nonzero;stroke:none"
               d="m 0,0 c -0.219,2.846 -7.646,6.559 -9.894,8.796 -3.375,3.357 -4.826,8.46 -4.485,13.038 -0.92,-0.205 -1.925,-0.195 -2.81,0.101 -4.252,-3.517 4.086,-13.786 6.715,-16.133 2.16,-1.933 4.923,-3.74 7.513,-5.101 2.497,-1.31 3.959,-3.398 6.15,-4.827 C 3.371,-4.671 2.99,-4.324 2.792,-4.511" />
          </g>
          <g
             transform="translate(145.5657,522.7267)"
             id="g6968">
            <path
               inkscape:connector-curvature="0"
               id="path6970"
               style="fill:#2151a8;fill-opacity:1;fill-rule:nonzero;stroke:none"
               d="m 0,0 c 0.069,1.073 0.238,2.877 0.322,3.661 0.169,1.568 0.264,2.698 0.105,4.244 -0.242,2.364 0.216,4.732 0.216,7.087 0,5.702 0.166,11.529 1.717,17.05 0.74,2.629 1.71,5.164 2.693,7.6 C 4.766,37.892 4.267,35.903 3.793,34.161 3.319,32.405 3.049,30.882 2.901,29.147 2.753,27.5 2.487,25.838 2.363,24.208 2.235,22.538 2.589,20.883 2.299,19.25 c 0.779,2.165 0.847,2.879 1.281,3.883 0.566,1.305 1.332,2.203 2.111,3.411 1.524,2.362 3.613,4.149 5.376,6.26 1.943,2.325 4.942,5.403 7.939,6.218 C 18.56,38.301 17.519,37.631 16.839,37.098 15.775,36.261 15.026,35.364 14.096,34.414 12.511,32.793 10.972,30.857 9.773,28.856 8.462,26.67 6.885,24.532 5.827,22.19 4.791,19.894 4.222,17.45 3.519,15.055 3.005,13.309 2.721,11.564 2.176,9.81 1.704,8.3 1.827,6.964 1.695,5.386 1.457,2.588 1.123,-0.894 0.501,-3.438 0.128,-2.635 -0.384,-1.194 0,-0.286" />
          </g>
          <g
             transform="translate(99.4451,535.113)"
             id="g6972">
            <path
               inkscape:connector-curvature="0"
               id="path6974"
               style="fill:#d3d2d2;fill-opacity:1;fill-rule:nonzero;stroke:none"
               d="m 0,0 c -4.115,5.466 -4.886,12.974 -4.299,19.552 0.362,4.052 0.716,8.371 1.705,12.258 0.766,3.013 2.239,7.088 0.364,9.995 -0.049,-3.639 -1.896,-6.197 -2.88,-9.432 -1.095,-3.597 -1.259,-7.917 -1.256,-11.747 0.004,-3.325 0.198,-7.151 0.637,-10.599 0.446,-3.507 2.583,-5.885 3.437,-9.166" />
          </g>
          <g
             transform="translate(93.7135,612.1768)"
             id="g6976">
            <path
               inkscape:connector-curvature="0"
               id="path6978"
               style="fill:#2151a8;fill-opacity:1;fill-rule:nonzero;stroke:none"
               d="m 0,0 c -0.351,3.064 -4.717,5.037 -7.305,5.735 -1.85,0.497 -3.824,0.868 -5.732,0.998 -1.543,0.104 -3.757,-0.388 -4.568,1.292 1.453,1.46 5.242,1.829 7.234,1.971 2.42,0.171 5.015,0.108 7.365,-0.253 C -1.012,9.437 1.733,8.789 2.44,6.622 2.969,5.019 2.554,1.497 1.576,0.146" />
          </g>
          <g
             transform="translate(210.1634,611.174)"
             id="g6980">
            <path
               inkscape:connector-curvature="0"
               id="path6982"
               style="fill:#2151a8;fill-opacity:1;fill-rule:nonzero;stroke:none"
               d="m 0,0 c 1.322,4.441 2.255,10.204 6.128,13.503 2.054,1.75 4.888,2.58 7.198,3.972 3.034,1.832 6.111,3.748 9.164,5.595 5.195,3.135 10.67,6.557 16.613,8.121 5.67,1.489 11.427,0.412 17.046,-0.537 3.394,-0.574 5.277,-1.501 7.57,-4.137 -1.624,1.892 -2.422,4.91 -4.705,6.253 -2.119,1.243 -5.24,1.204 -7.585,1.901 -2.198,0.654 -4.299,1.486 -6.595,1.851 -2.6,0.411 -5.204,-0.233 -7.761,-0.604 -3.504,-0.512 -6.95,-2.025 -10.288,-3.222 -3.08,-1.108 -6.31,-2.298 -9.166,-3.869 C 13.375,26.488 8.612,23.505 5.021,20.061 3.351,18.459 1.958,16.639 0.317,15.04 -1.399,13.372 -1.548,12.326 -0.464,10.429 0.589,8.586 0.984,6.749 0.391,4.734 -0.288,2.425 0.069,0.894 -0.141,-1.433" />
          </g>
        </g>
      </g>
      <g
         id="g6992"
         transform="matrix(0.84225117,0,0,0.84225117,219.87871,-184.97963)">
        <g
           clip-path="url(#clipPath6998)"
           id="g6994">
          <g
             transform="translate(81.297,716.7893)"
             id="g7000"
             style="fill:#2151a8;fill-opacity:1">
            <path
               inkscape:connector-curvature="0"
               id="path7002"
               style="fill:#2151a8;fill-opacity:1;fill-rule:nonzero;stroke:none"
               d="m 0,0 c -2.922,-2.101 -3.916,-5.3 -4.88,-7.746 -0.912,0.398 -2.103,1.177 -2.88,0.604 -0.745,-5.545 -3.203,-10.437 -6.216,-15.195 l 5.864,-5.168 24.377,0.002 10.865,0 0.033,-0.165 c -3.158,-1.707 -6.991,-2.645 -10.735,-2.405 -1.121,0 -2.485,0.19 -3.244,0.388 0.131,-0.897 0.397,-1.917 1.104,-2.659 13.191,-13.867 31.804,-1.198 33.622,0.19 2.271,1.821 4.612,4.48 6.637,6.828 0.303,-0.674 0.978,-1.178 1.239,-1.901 6.116,-0.042 12.09,-0.093 18.253,-0.127 0.554,1.757 0.868,3.594 1.305,5.363 l 0.401,0.456 c 4.294,-6.704 12.316,-8.964 19.964,-7.209 -0.412,-1.795 -0.789,-3.707 -1.183,-5.43 l 3.565,-5.748 16.502,-0.072 6.539,9.837 c 0.174,-1.593 0.092,-3.316 0.152,-4.987 l 2.853,-4.671 c 6.773,0.102 13.171,0.075 19.937,0.318 l 0.923,4.577 c 0.89,3.666 1.484,6.74 2.348,10.427 l -2.224,3.752 c 0.008,1.795 1.083,3.629 1.562,5.454 l 8.271,23.445 c 1.561,4.64 4.731,8.763 8.301,12.718 2.526,2.265 9.969,6.149 9.969,6.149 l -2.21,1.445 c -5.702,3.365 -14.614,2.366 -20.537,-1.718 -1.838,-1.527 -4.453,-3.18 -6.217,-5.444 -2.631,-3.369 -5.453,-7.691 -7.573,-11.207 -0.038,0.998 -0.056,1.64 -0.072,3.101 -1.075,1.953 -2.579,3.994 -3.87,5.895 -0.087,0.208 -0.32,0.145 -0.512,0.136 l -3.204,-4.004 c -0.765,1.055 -1.365,1.913 -2.569,3.561 -6.667,0.126 -13.285,-0.176 -19.975,-0.076 l -1.524,-6.812 c -2.671,2.171 -5.553,3.59 -8.723,4.273 3.988,2.237 8.848,3.799 13.835,4.521 -9.229,6.655 -23.856,5.476 -33.452,0.539 0,0 -6.888,-3.795 -8.759,-5.578 -1.136,-0.623 -1.934,-1.987 -3.141,-2.449 l -4.917,5.136 -14.612,0.023 -1.9,-2.366 L 41.06,18.464 27.068,18.429 24.876,16.14 23.187,18.255 8.665,18.38 C 6.14,18.626 3.526,18.1 1.317,17.22 -3.568,14.825 -7.705,9.21 -8.56,3.94 l 5.034,-4.431 C -2.477,-0.065 -1.036,0.506 0,0 m 70.26,-4.84 -0.614,-3.863 c -0.275,0.603 -0.671,1.175 -1.064,1.748 z M 43.054,0.569 c 1.035,0.665 2.511,0.351 3.796,0.435 1.164,-1.071 1.821,-2.729 2.744,-4.08 -2.613,-3.633 -4.83,-7.432 -7.851,-10.968 -0.724,0.143 -1.526,-0.049 -2.191,0.311 0.963,4.725 1.86,9.73 3.502,14.302 m -18.807,0.339 0.747,0.086 -2.711,-12 -0.789,0.017 z" />
          </g>
          <g
             transform="translate(76.3774,733.2169)"
             id="g7004">
            <path
               inkscape:connector-curvature="0"
               id="path7006"
               style="fill:#000000;fill-opacity:1;fill-rule:nonzero;stroke:none"
               d="m 0,0 c -0.005,-1.633 -1.331,-2.836 -2.897,-2.831 -1.55,0.006 -2.872,1.215 -2.87,2.85 0.01,1.65 1.338,2.853 2.885,2.849 C -1.313,2.862 0.007,1.652 0,0 m -2.881,2.39 c -1.289,0.006 -2.308,-1 -2.312,-2.373 -0.006,-1.347 1.009,-2.369 2.296,-2.375 1.303,-0.002 2.323,1.013 2.324,2.363 0.008,1.37 -1.006,2.381 -2.308,2.385 m 0.601,-0.73 0.497,-0.003 -0.013,-3.285 -1.247,0.004 c -0.776,0.005 -1.161,0.29 -1.158,0.94 10e-4,0.586 0.374,0.842 0.853,0.901 l -0.928,1.447 0.557,-10e-4 0.86,-1.426 0.575,-0.003 z m -0.601,-1.845 c -0.424,0.001 -0.798,-0.028 -0.8,-0.531 -0.004,-0.408 0.368,-0.484 0.713,-0.487 l 0.678,-0.002 10e-4,1.02 z" />
          </g>
          <g
             transform="translate(78.629,704.3542)"
             id="g7008">
            <path
               inkscape:connector-curvature="0"
               id="path7010"
               style="fill:#ffffff;fill-opacity:1;fill-rule:nonzero;stroke:none"
               d="m 0,0 c 1.99,-0.542 2.854,-2.521 3.208,-4.314 l 7.595,-0.04 1.202,5.455 -8.973,-0.046 c 1.611,2.849 1.941,7.008 5.512,8.31 l 5.459,0.086 1.566,6.578 c 0,0 -10.105,0.858 -14.834,-0.59 0.16,3.047 2.023,6.082 4.665,8.066 1.217,0.725 2.47,1.376 3.961,1.544 l 20.48,0.015 -1.948,-8.705 C 26.807,16.148 25.008,16.654 24.495,15.308 23.096,8.859 21.523,2.809 20.168,-3.639 c -0.415,-1.34 3.08,-0.755 3.08,-0.755 l -1.765,-7.572 -5.601,-0.093 -21.15,-0.062 C -3.008,-8.272 -0.972,-4.317 0,0" />
          </g>
          <g
             transform="translate(104.9122,699.8888)"
             id="g7012">
            <path
               inkscape:connector-curvature="0"
               id="path7014"
               style="fill:#ffffff;fill-opacity:1;fill-rule:nonzero;stroke:none"
               d="m 0,0 c 0,0 2.554,-0.41 3.049,0.865 l 4.316,19.156 c -0.337,1.148 -2.57,0.604 -2.57,0.604 l 2.031,8.948 15.207,0.085 -2.016,-8.925 c 0,0 -2.918,0.509 -3.222,-1.067 C 15.524,13.42 13.903,7.341 12.528,1.135 12.516,0.611 12.974,0.21 13.477,0.166 c 0.59,0.111 1.626,0.007 1.626,0.007 L 13.414,-7.46 -1.673,-7.469 Z" />
          </g>
          <g
             transform="translate(144.2371,729.4526)"
             id="g7016">
            <path
               inkscape:connector-curvature="0"
               id="path7018"
               style="fill:#ffffff;fill-opacity:1;fill-rule:nonzero;stroke:none"
               d="m 0,0 c -0.55,-2.973 -1.222,-5.93 -2.048,-8.757 -0.853,-0.042 -1.3,-0.078 -1.97,-0.055 l 1.515,-3.273 c 6.02,7.463 12.676,15.03 21.111,18.29 5.884,2.097 13.252,3.786 19.63,2.21 C 23.537,4.515 11.189,-6.263 1.994,-19.326 l 0.121,-0.422 6.138,-9.723 1.911,0.03 -1.757,-7.715 -14.089,0.059 1.664,7.608 2.709,0.029 c 0,0 -0.949,2.289 -1.698,3.171 l -0.333,-0.022 c -6.118,-7.371 -11.681,-17.117 -20.569,-20.436 -6.01,-2.651 -14.237,-2.868 -19.89,0.454 17.095,-1.941 27.826,15.16 36.086,27.567 -1.885,3.372 -3.981,6.655 -6.329,9.801 l -2.082,0.034 2.031,8.949 z" />
          </g>
          <g
             transform="translate(157.7771,709.2146)"
             id="g7020">
            <path
               inkscape:connector-curvature="0"
               id="path7022"
               style="fill:#ffffff;fill-opacity:1;fill-rule:nonzero;stroke:none"
               d="m 0,0 c 1.083,7.67 3.294,17.178 11.681,20.131 4.702,1.465 9.713,0.736 13.442,-2.279 7.536,-5.47 5.387,-16.026 3.57,-23.456 -0.917,-5.079 -4.751,-10.46 -9.762,-12.382 C 13.146,-19.813 6.588,-18.702 2.769,-13.495 -0.295,-9.942 -0.757,-4.638 0,0" />
          </g>
          <g
             transform="translate(192.3712,729.5535)"
             id="g7024">
            <path
               inkscape:connector-curvature="0"
               id="path7026"
               style="fill:#ffffff;fill-opacity:1;fill-rule:nonzero;stroke:none"
               d="m 0,0 15.672,0.072 -1.785,-8.308 c 0,0 -3.11,1.195 -3.638,-1.381 -0.76,-4.542 -3.035,-14.055 -3.035,-14.055 l 15.199,22.524 -0.276,-21.547 c 0.108,-0.186 0.341,-0.122 0.533,-0.113 5.724,12.845 9.917,30.169 25.348,35.676 2.034,0.677 4.061,1.094 6.277,0.804 C 48.956,10.155 43.879,3.663 41.489,-2.324 l -13.05,-37.395 c 1.055,-0.091 2.499,-0.08 4.062,-0.191 l -2.156,-9.651 -14.934,-0.191 c -0.467,6.571 -0.075,13.144 -0.664,19.775 l -1.046,-1.192 -12.205,-18.681 -12.873,0.11 2.084,9.608 4.273,0.101 6.452,29.426 c 0.004,0.666 0.516,1.247 0.212,1.923 -1.27,0.56 -3.545,0.201 -3.545,0.201 z" />
          </g>
          <g
             transform="translate(175.7919,723.629)"
             id="g7028"
             style="fill:#2151a8;fill-opacity:1">
            <path
               inkscape:connector-curvature="0"
               id="path7030"
               style="fill:#2151a8;fill-opacity:1;fill-rule:nonzero;stroke:none"
               d="m 0,0 c -2.381,0.508 -4.72,-1.016 -5.227,-3.397 l -3.767,-17.707 c -0.505,-2.385 1.015,-4.727 3.396,-5.233 2.373,-0.507 4.716,1.017 5.218,3.4 L 3.392,-5.231 C 3.896,-2.847 2.375,-0.507 0,0" />
          </g>
        </g>
      </g>
    </g>
  </g>
</svg>
