<svg xmlns="http://www.w3.org/2000/svg" viewBox="0 0 283.46457 121.1062">
  <defs>
    <style type="text/css">
      .cls-1 {
        fill: #dc0d15;
      }

      .cls-2 {
        fill: #ffe500;
      }
    </style>
  </defs>
  <title>Netto_Logo_RGB</title>
  <g id="NettoLogoRed">
    <path class="cls-1" d="M276.22806,111.00941h-.77918v7.95484a1.87326,1.87326,0,1,1-3.72823,0v-7.95484c-1.11326,0-2.11468-.41717-2.11468-1.66868s1.00142-1.66869,2.11468-1.66869V105.28a1.87326,1.87326,0,1,1,3.72823,0V107.672h.77918a1.67893,1.67893,0,1,1,0,3.33737Zm-7.31206,7.95481v-5.00634a6.10812,6.10812,0,0,0-6.03772-6.56407c-3.673,0-5.92672,2.94821-5.92672,6.45285v5.11756a1.87943,1.87943,0,0,0,1.86412,2.05812,1.85858,1.85858,0,0,0,1.83637-2.05812V113.485a2.25555,2.25555,0,0,1,4.28487-1.11227,4.51759,4.51759,0,0,1,.25056,1.91888v4.67265a1.87339,1.87339,0,1,0,3.72852,0Zm-13.51139-4.33869v-5.09011a1.87339,1.87339,0,1,0-3.72853,0v5.45152a2.31777,2.31777,0,0,1-2.2537,2.41982,2.35835,2.35835,0,0,1-2.03144-1.30726,4.39577,4.39577,0,0,1-.25029-1.89114v-4.67294a1.84469,1.84469,0,0,0-1.83637-2.05812,1.87987,1.87987,0,0,0-1.86411,2.05812V114.542a6.19205,6.19205,0,0,0,1.75285,4.78388,6.09909,6.09909,0,0,0,4.2571,1.78019C253.15061,121.10611,255.40461,118.1579,255.40461,114.62553Zm-20.20052,6.48067a6.84633,6.84633,0,0,1-6.98363-6.73134,6.92826,6.92826,0,1,1,13.85628-.02774A6.84546,6.84546,0,0,1,235.20409,121.1062Zm-.02774-10.041a3.20627,3.20627,0,0,0-3.17189,3.25417,3.1601,3.1601,0,0,0,6.316-.02774A3.21217,3.21217,0,0,0,235.17635,111.06522Zm-7.86587,6.731a1.90081,1.90081,0,0,0-1.8644-1.86341c-1.33552,0-1.75284,1.44623-3.56146,1.44623a3.13449,3.13449,0,0,1-3.14415-3.11519,3.1764,3.1764,0,0,1,3.22767-3.14294c1.69735,0,2.17045,1.30727,3.31118,1.30727a1.82958,1.82958,0,0,0,1.86439-1.86368c0-2.08586-3.673-3.19841-5.34234-3.19841a6.87016,6.87016,0,0,0,.08325,13.74C223.58225,121.10614,227.31048,119.9101,227.31048,117.79623Zm-17.39528-5.312c-.62458-.14667-1.26424-.24555-1.88836-.36-.48713-.08741-1.10009-.23254-1.10009-.81753a.98676.98676,0,0,1,.95575-1.00413c1.80943-.13019,2.19135,1.02854,3.76746.97345a1.37591,1.37591,0,0,0,1.25052-1.2679c.18742-1.88212-2.9771-2.642-4.47937-2.642-2.421,0-4.814,1.33472-4.814,4.005a3.69516,3.69516,0,0,0,2.03116,3.28219,16.34027,16.34027,0,0,0,3.22795,1.08453c.50058.13924,1.19622.30595,1.19622.94557a1.23518,1.23518,0,0,1-1.22426,1.08667c-2.10023,0-2.29648-1.52259-3.97614-1.80345a1.66528,1.66528,0,0,0-1.92282,1.55325c0,2.4753,3.56174,3.586,5.59291,3.586,2.78229,0,5.3146-1.61321,5.3146-4.6169C213.8467,113.70605,211.72156,112.974,209.9152,112.48425Zm-8.54766,6.48v-9.4288a1.86087,1.86087,0,1,0-3.70077,0v9.4288a1.86087,1.86087,0,1,0,3.70077,0Zm.33406-14.49078a2.20848,2.20848,0,0,0-2.19821-2.2251,2.26776,2.26776,0,0,0-2.28173,2.25283,2.17922,2.17922,0,0,0,2.22595,2.14161A2.22679,2.22679,0,0,0,201.7016,104.47344Zm-8.6368,13.68434a9.52249,9.52249,0,0,1-7.23421,2.67h-4.06231a2.2187,2.2187,0,0,1-2.47624-2.47557v-13.6008a2.24271,2.24271,0,0,1,2.47624-2.47529h4.06231a9.2925,9.2925,0,0,1,9.98877,9.31758A9.2154,9.2154,0,0,1,193.0648,118.15778Zm-7.67956-11.90437h-1.83637v10.70833h1.80862a9.09181,9.09181,0,0,0,2.61554-.27821,5.21926,5.21926,0,0,0,3.5895-5.08982C191.56253,108.0336,188.66867,106.25341,185.38524,106.25341Zm-19.66367,12.71081v-5.00634a6.10812,6.10812,0,0,0-6.038-6.56407c-3.67274,0-5.92672,2.94821-5.92672,6.45285v5.11756a1.87959,1.87959,0,0,0,1.86411,2.05812,1.8588,1.8588,0,0,0,1.83666-2.05812V113.485a2.25571,2.25571,0,0,1,4.28514-1.11227,4.5218,4.5218,0,0,1,.25029,1.91888v4.67265a1.87339,1.87339,0,1,0,3.72851,0Zm-13.90105-1.05691c0,1.53-2.00313,2.5868-3.2554,2.92044a7.6189,7.6189,0,0,1-1.9196.27825,6.99493,6.99493,0,0,1-6.92871-6.89776,6.91308,6.91308,0,0,1,6.78937-6.81429c2.47652,0,5.731,1.76345,5.731,4.57275,0,.8905-.59814,1.374-1.43868,1.73864l-6.74215,2.95857.13189.14943a3.541,3.541,0,0,0,2.256.97279l.15737.00146a3.61926,3.61926,0,0,0,1.33763-.19448,4.47709,4.47709,0,0,0,1.0274-.58367,3.74145,3.74145,0,0,1,.73331-.43477,1.663,1.663,0,0,1,.30451-.086l.24851-.02144C151.28248,116.4672,151.82052,116.87821,151.82052,117.90731Zm-8.842-3.6605,6.0487-2.59145-.1132-.16962a2.39231,2.39231,0,0,0-2.09739-1.06958,3.74367,3.74367,0,0,0-3.85613,3.5679Zm-3.88178,4.85657a2.51121,2.51121,0,0,0-1.02945-1.75217l-3.78429-3.6436,3.534-2.55878a2.357,2.357,0,0,0,1.27974-1.89142,1.912,1.912,0,0,0-1.89186-1.89142,2.6441,2.6441,0,0,0-1.64186.8066l-4.56318,3.58813v-7.42644a1.85873,1.85873,0,0,0-1.83637-2.05812,1.87979,1.87979,0,0,0-1.86439,2.05812v14.62986a1.87988,1.87988,0,0,0,1.86439,2.0584,1.85882,1.85882,0,0,0,1.83637-2.0584v-3.61558l4.39613,4.64492c.50086.5284.94622,1.0568,1.75313,1.0568A1.93549,1.93549,0,0,0,139.09671,119.10338Zm-13.00478-9.42878a2.37079,2.37079,0,0,0-2.39328-2.28085,4.40339,4.40339,0,0,0-2.86554,1.168,1.86615,1.86615,0,0,0-1.69735-1.08453,1.81114,1.81114,0,0,0-1.75285,1.44623,4.06013,4.06013,0,0,0-.08352,1.00133v9.03937a1.86077,1.86077,0,1,0,3.70048,0v-6.11889c0-.58416-.02775-1.69671.80692-1.69671.63986,0,1.08522.69538,2.05919.69538A2.20248,2.20248,0,0,0,126.09193,109.6746Zm-12.64611,11.348a1.85276,1.85276,0,0,1-1.8644-1.41878,5.59348,5.59348,0,0,1-3.784,1.50227,6.59724,6.59724,0,0,1-6.455-6.89776,6.53069,6.53069,0,0,1,6.39955-6.81455,5.59785,5.59785,0,0,1,3.8395,1.44651,1.70037,1.70037,0,0,1,1.80862-1.363,1.82776,1.82776,0,0,1,1.91989,2.03038v9.45655A1.80957,1.80957,0,0,1,113.44582,121.02257Zm-5.11981-9.98522a3.12844,3.12844,0,0,0-3.08836,3.14293,3.19951,3.19951,0,0,0,3.17188,3.22643,3.18507,3.18507,0,0,0-.08352-6.36936Zm-7.79176,7.84355a4.528,4.528,0,0,0-.22254-1.22378l-3.33893-13.68457a2.19353,2.19353,0,0,0-2.0589-1.8634c-1.1965,0-1.75285.83434-2.11469,1.8634l-2.8661,8.7456-3.03287-8.99579a2.03307,2.03307,0,0,0-4.00654.167L79.666,117.68486a5.90933,5.90933,0,0,0-.1948,1.22378,2.07783,2.07783,0,0,0,2.08694,2.0584c1.44679,0,1.94764-1.08482,2.22595-2.30859L85.537,110.7797l2.47652,8.40714c.278.8901.86241,1.80793,1.89186,1.80793a1.937,1.937,0,0,0,1.8644-1.41849,2.05332,2.05332,0,0,0,.111-.38944L94.385,110.7797l1.80862,7.87875c.30606,1.25151.75142,2.30859,2.22623,2.30859A2.08967,2.08967,0,0,0,100.53425,118.8809Zm70.04257-7.24918a1.86034,1.86034,0,1,0,0,3.69936H174.205a1.86032,1.86032,0,1,0,0-3.69936Z" transform="translate(0)"/>
    <path class="cls-1" d="M246.09946,88.42675a58.47317,58.47317,0,0,0,6.60288-.38706l.00061-.00007.00058-.00008A32.67024,32.67024,0,0,0,265.47188,83.943a29.88942,29.88942,0,0,0,9.95218-9.45245,46.77757,46.77757,0,0,0,4.27505-8.04772,48.68317,48.68317,0,0,0,2.59772-8.46456,55.04612,55.04612,0,0,0,1.09894-8.6979,65.872,65.872,0,0,0-.18991-8.795,24.23708,24.23708,0,0,0-1.6835-7.12632,20.56249,20.56249,0,0,0-3.73806-5.968,21.16829,21.16829,0,0,0-5.49508-4.33871,25.90439,25.90439,0,0,0-6.73914-2.53793,48.10751,48.10751,0,0,0-5.45388-.92727,49.74949,49.74949,0,0,0-5.50753-.3074h-.00006c-.77537,0-1.557.01869-2.32344.05555a42.84274,42.84274,0,0,0-4.82832.50071,36.95228,36.95228,0,0,0-4.60758,1.05273,32.9828,32.9828,0,0,0-4.34962,1.637,30.79215,30.79215,0,0,0-4.03916,2.24141,30.2964,30.2964,0,0,0-3.66837,2.84455,31.14931,31.14931,0,0,0-2.19934,2.20682l.2496-1.28419a7.06319,7.06319,0,0,0-6.98334-8.523h-7.13417L215.91,13.77248a7.063,7.063,0,0,0-6.985-8.51437h-11.3887a7.98169,7.98169,0,0,0-5.10665,1.89179,8.08216,8.08216,0,0,0-2.75746,4.63346l-1.58938,8.22805h-12.86l1.20516-6.239a7.063,7.063,0,0,0-6.985-8.51435H158.05433a7.98165,7.98165,0,0,0-5.10665,1.89179,8.08208,8.08208,0,0,0-2.75748,4.63346l-1.58937,8.22805h-3.76174a7.98174,7.98174,0,0,0-5.10353,1.88916,8.0832,8.0832,0,0,0-2.75892,4.62753l-.47126,2.42468-.01551-.02237a20.15334,20.15334,0,0,0-6.10694-5.66917,24.19919,24.19919,0,0,0-8.0319-3.00555,44.1131,44.1131,0,0,0-9.47777-.97594H112.873c-1.08165,0-2.19017.03458-3.29522.10282a45.817,45.817,0,0,0-4.98041.57627A39.32664,39.32664,0,0,0,99.84452,21.085,34.837,34.837,0,0,0,95.3558,22.7981a32.19564,32.19564,0,0,0-4.17127,2.327,31.33174,31.33174,0,0,0-3.79034,2.94765,32.2484,32.2484,0,0,0-3.34982,3.55186,35.0765,35.0765,0,0,0-2.86812,4.12476q-.36336.61032-.70961,1.24635a.11226.11226,0,0,1-.151.0503.11024.11024,0,0,1-.05782-.11875L85.779,8.52311A7.06322,7.06322,0,0,0,78.79529,0H66.18517a7.98277,7.98277,0,0,0-5.10335,1.88865A8.083,8.083,0,0,0,58.32213,6.5162L53.42664,31.69739,47.57074,6.33667a7.97136,7.97136,0,0,0-1.10361-2.575,8.392,8.392,0,0,0-1.73619-1.92239A8.08419,8.08419,0,0,0,39.66333,0H22.27744a7.98284,7.98284,0,0,0-5.10336,1.88865A8.083,8.083,0,0,0,14.4144,6.5162L.139,79.90364a7.17468,7.17468,0,0,0,1.46777,5.96188,7.10611,7.10611,0,0,0,5.51593,2.56123Z" transform="translate(0)"/>
  </g>
  <g id="NettoLogoYellow">
    <path class="cls-2" d="M277.96737,40.93952c-.70973-8.17367-5.664-13.471-13.59921-15.30154a43.90931,43.90931,0,0,0-11.85038-1.05068c-11.65987.55918-20.40448,5.95688-25.28516,17.019A58.37147,58.37147,0,0,0,222.912,61.0348c.03345,12.83118,5.07582,19.5389,15.89278,21.50986a45.94091,45.94091,0,0,0,13.301.27082c7.83925-.89689,14.458-4.48246,18.937-11.23223C277.15589,62.37286,278.91215,51.83593,277.96737,40.93952ZM258.53688,63.258c-1.95535,4.34851-5.46808,6.45789-9.5761,6.29982-6.57765.1767-9.93034-2.797-9.40178-8.75671a72.85729,72.85729,0,0,1,3.11712-15.83326c2.24771-6.96121,8.56755-8.41626,14.56-6.82595,2.96061.78734,4.74922,3.27056,4.75037,7.227A43.1491,43.1491,0,0,1,258.53688,63.258ZM166.56731,37.82187a.1696.1696,0,0,0-.16655.13762L161.5494,63.211c-.74571,3.83918,1.02362,6.49337,3.73012,7.00947,3.8354.73136,8.02065.16393,11.1738.01a.16964.16964,0,0,1,.17481.20184l-1.72258,8.8635a2.19194,2.19194,0,0,1-1.06724,1.57347c-1.55131.85449-5.20605,2.24276-12.578,2.24276-15.41758,0-17.23708-11.23231-15.29422-21.69664l4.51083-23.39184a.16962.16962,0,0,0-.16654-.20175H142.3995a1.80992,1.80992,0,0,1-1.8218-2.26168l1.56046-8.029a2.88019,2.88019,0,0,1,2.70093-2.26168h7.9614a.1696.1696,0,0,0,.16652-.13745l2.38587-12.35148a2.88006,2.88006,0,0,1,2.70145-2.26438H169.443a1.8097,1.8097,0,0,1,1.82232,2.259l-2.37447,12.2925a.16962.16962,0,0,0,.16652.20181h23.22515a.16961.16961,0,0,0,.16652-.13745L194.8349,12.7806a2.88006,2.88006,0,0,1,2.70145-2.26438H208.925a1.80971,1.80971,0,0,1,1.82233,2.259l-2.37448,12.2925a.16963.16963,0,0,0,.16653.20181H221.839a1.80991,1.80991,0,0,1,1.8218,2.26168l-1.56044,8.029a2.88022,2.88022,0,0,1-2.70094,2.26168H206.04933a.16962.16962,0,0,0-.16656.13762L201.03142,63.211c-.73857,3.8342,1.02361,6.49337,3.73012,7.00947,3.83539.73136,8.02065.16393,11.17379.01a.16965.16965,0,0,1,.17482.20184l-1.72259,8.8635a2.19188,2.19188,0,0,1-1.06724,1.57347c-1.55131.85449-5.20605,2.24276-12.578,2.24276-15.41758,0-17.28183-11.23231-15.31672-21.69664l4.53332-23.39184a.16962.16962,0,0,0-.16653-.20175ZM121.2931,25.40694a41.21973,41.21973,0,0,0-11.39124-.77626c-12.1245.74927-21.30272,6.31323-26.26278,17.86045a54.63335,54.63335,0,0,0-4.27543,20.79112c-.16316,9.97647,5.03195,18.7432,20.4113,19.72393a68.9115,68.9115,0,0,0,24.97547-2.70061,2.25875,2.25875,0,0,0,1.5736-1.7498l1.92228-9.93554a.16973.16973,0,0,0-.21379-.194c-5.75149,1.62277-10.1821,2.6682-20.36993,2.53563-11.03642-.1436-12.44466-4.668-12.18347-10.24583a.1697.1697,0,0,1,.17071-.16213c1.86057.01468,15.16124.20746,21.07924-.1079,9.0755-.48211,16.82811-4.21457,18.19688-15.55232C136.17218,34.5703,130.92492,27.20963,121.2931,25.40694Zm-1.79866,19.36734c-.44428,3.20039-2.33713,4.47856-5.92093,4.47521-4.73451-.00445-14.44724-.00073-15.95608-.00012a.16941.16941,0,0,1-.16736-.197,16.28459,16.28459,0,0,1,2.68812-6.57174c3.42649-5.15777,8.9988-6.43874,14.67864-5.05029C118.05433,38.23544,120.02742,40.92368,119.49444,44.77428ZM80.61755,7.51967,66.5481,79.88938a2.88068,2.88068,0,0,1-2.70158,2.26156H46.137a3.01767,3.01767,0,0,1-2.78411-2.26156L32.28754,31.9678a.16965.16965,0,0,0-.33182.00579L22.64037,79.88938a2.88066,2.88066,0,0,1-2.70158,2.26156H7.32866a1.81,1.81,0,0,1-1.82224-2.26156L19.57587,7.51967a2.88065,2.88065,0,0,1,2.70158-2.26156H39.66333a3.01768,3.01768,0,0,1,2.78411,2.26156l11.241,48.68264a.16965.16965,0,0,0,.33182-.00579l9.4633-48.67685a2.88067,2.88067,0,0,1,2.70158-2.26156H78.79531A1.81,1.81,0,0,1,80.61755,7.51967Z" transform="translate(0)"/>
  </g>
</svg>
