<svg width="500" height="231" viewBox="0 0 500 231" fill="none" xmlns="http://www.w3.org/2000/svg">
<g clip-path="url(#clip0_2_1440)">
<path d="M375.488 60.9955L304.775 14.8287L234.197 61.0963C231.809 62.6767 228.682 61.937 227.102 59.6841L225.286 56.8932C223.739 54.5059 224.445 51.3788 226.732 49.7984L301.043 1.10979C303.329 -0.336075 306.221 -0.336075 308.507 1.10979L382.952 49.6976C385.34 51.2443 385.945 54.3714 384.398 56.7924L382.583 59.5496C381.036 61.937 377.909 62.5422 375.488 60.9955Z" fill="#288DC1"/>
<path d="M438.03 27.236C438.03 23.9072 440.72 21.1836 444.082 21.1836H447.243C450.572 21.1836 453.295 23.9072 453.295 27.236V165.669C453.295 168.998 450.572 171.722 447.243 171.722H444.082C440.72 171.722 438.03 168.998 438.03 165.669V27.236Z" fill="#696057"/>
<path d="M484.566 6.55636C484.566 3.22751 487.256 0.503906 490.619 0.503906H493.78C497.108 0.503906 499.832 3.22751 499.832 6.55636V165.669C499.832 168.998 497.108 171.721 493.78 171.721H490.619C487.256 171.721 484.566 168.998 484.566 165.669V6.55636Z" fill="#696057"/>
<path fill-rule="evenodd" clip-rule="evenodd" d="M170.578 90.8208C177.807 98.151 181.775 108.373 181.775 119.536C181.775 120.982 181.54 123.874 181.304 125.421C181.035 127.606 179.354 129.288 177.202 129.288H116.846C116.241 129.288 115.77 129.388 115.265 129.893C114.795 130.364 114.559 130.958 114.559 131.675L114.66 132.516C114.66 142.973 125.017 158.003 143.645 158.003C153.026 158.003 158.91 154.775 163.719 152.253C164.324 151.883 164.929 151.648 165.534 151.278C168.056 149.967 171.318 150.673 172.999 153.094L174.311 154.876C175.286 156.322 175.655 158.003 175.286 159.684C174.916 161.366 173.84 162.711 172.394 163.551C165.77 167.149 155.447 172.092 141.964 172.092C129.354 172.092 118.527 167.384 110.692 158.743C103.261 150.572 99.0583 139.274 98.9238 126.867V125.32C98.9238 112.946 103.026 101.379 110.457 92.9728C118.393 84.0622 129.354 79.2539 141.964 79.2539C153.026 79.2539 163.248 83.3561 170.578 90.8208ZM166.14 114.493C165.299 108.709 162.407 103.296 158.07 99.3279C153.631 95.1248 147.848 92.8383 141.964 92.8383C128.614 92.8383 117.451 101.749 114.929 114.358C114.795 114.963 114.929 115.468 115.265 115.939C115.624 116.409 116.106 116.645 116.711 116.645H164.223C164.828 116.645 165.299 116.409 165.669 116.039C166.005 115.569 166.14 115.098 166.14 114.493Z" fill="#696057"/>
<path fill-rule="evenodd" clip-rule="evenodd" d="M403.026 90.6863C410.256 98.0165 414.223 108.238 414.223 119.435C414.223 120.881 413.954 123.739 413.719 125.32C413.484 127.472 411.802 129.153 409.65 129.153H349.26C348.689 129.153 348.184 129.388 347.714 129.893C347.221 130.364 346.974 130.958 346.974 131.675L347.108 132.516C347.108 142.973 357.465 158.003 376.093 158.003C385.474 158.003 391.359 154.775 396.167 152.253C396.772 151.883 397.377 151.648 397.983 151.278C400.505 149.967 403.733 150.673 405.414 153.094L406.759 154.876C407.7 156.322 408.07 158.003 407.7 159.684C407.364 161.366 406.254 162.711 404.842 163.551C398.218 167.149 387.862 172.092 374.412 172.092C361.769 172.092 350.942 167.384 343.141 158.743C335.676 150.572 331.473 139.274 331.372 126.867V125.32C331.372 112.946 335.441 101.379 342.905 92.9728C350.841 84.0622 361.769 79.2539 374.412 79.2539C385.474 79.2539 395.562 83.3561 403.026 90.6863ZM347.714 115.939C348.072 116.409 348.554 116.645 349.16 116.645H396.638C397.243 116.645 397.747 116.409 398.084 116.039C398.453 115.703 398.689 115.098 398.588 114.627C397.747 108.844 394.856 103.43 390.518 99.4624C386.08 95.2593 380.296 92.9728 374.412 92.9728C361.063 92.9728 350 101.883 347.344 114.493C347.243 114.963 347.344 115.569 347.714 115.939Z" fill="#696057"/>
<path d="M313.214 79.3877H309.717C307.196 79.3877 305.01 81.0689 304.304 83.4563L288.063 142.131L263.887 83.4563C263.046 81.4388 261.029 79.9929 258.742 79.9929H255.245C252.959 79.9929 250.908 81.3043 250.067 83.4563L225.891 142.131L209.684 83.5908C208.944 81.2034 206.792 79.4886 204.27 79.4886H200.773C198.957 79.4886 197.411 80.3628 196.335 81.6742C195.225 83.12 194.889 84.8013 195.36 86.4825L217.855 167.754C218.561 170.175 220.746 171.856 223.268 171.856H225.286C227.572 171.856 229.623 170.511 230.464 168.359L256.927 104.035L283.389 168.224C284.23 170.275 286.281 171.721 288.534 171.721H290.585C293.107 171.721 295.292 170.04 295.998 167.619L318.493 86.348C318.964 84.6668 318.628 82.8847 317.518 81.5397C316.577 80.2283 314.896 79.3877 313.214 79.3877Z" fill="#696057"/>
<path d="M36.8863 79.3877C24.7141 79.3877 14.7612 82.3803 6.55674 85.4065C2.85802 86.5834 0.20166 90.0804 0.20166 93.8127V165.837C0.20166 169.199 2.95889 171.856 6.22049 171.856H9.34759C12.7101 171.856 15.3664 169.065 15.3664 165.837V100.201C15.3664 98.8564 16.207 97.6459 17.3839 97.1752C20.7464 95.7293 27.8412 93.4428 36.6509 93.4428C44.2165 93.4428 51.1768 95.7293 56.2205 99.9324C61.2978 104.136 64.0551 110.053 64.0551 116.543V165.702C64.0551 169.065 66.8123 171.721 70.0739 171.721H73.201C76.5635 171.721 79.1862 168.964 79.1862 165.702V116.543C79.4552 94.7878 62.0039 79.3877 36.8863 79.3877Z" fill="#696057"/>
<path fill-rule="evenodd" clip-rule="evenodd" d="M231.439 202.388C232.65 203.834 232.986 205.75 232.515 207.801C231.675 211.534 228.077 213.787 226.496 214.526C228.178 215.232 231.305 217.284 230.363 221.487C229.254 226.43 224.21 229.926 218.46 229.926H207.868C207.51 229.926 207.263 229.803 207.129 229.557C207.028 229.321 206.893 229.086 207.028 228.817L213.652 200.471C213.753 199.866 214.223 199.496 214.829 199.496H224.95C227.841 199.496 230.229 200.471 231.439 202.388ZM215.804 212.475H221.688C224.345 212.475 226.631 210.66 227.236 208.037C227.472 206.826 227.337 205.75 226.732 205.011C226.127 204.17 225.051 203.834 223.739 203.834H217.72L215.804 212.475ZM224.58 218.225C223.739 217.284 222.293 216.678 220.747 216.678H214.728L212.677 225.555H219.402C222.058 225.555 224.58 223.639 225.185 221.016C225.421 220.041 225.185 219.066 224.58 218.225Z" fill="#288DC1"/>
<path fill-rule="evenodd" clip-rule="evenodd" d="M264.997 202.489C266.409 204.304 266.914 206.591 266.308 208.978C265.468 212.845 262.105 216.208 257.633 217.754L261.265 228.481C261.366 228.817 261.366 229.187 261.13 229.422C260.895 229.657 260.525 229.926 260.054 229.926H256.557C256.221 229.926 255.952 229.657 255.851 229.422L252.489 218.124H245.865L243.343 228.951C243.208 229.422 242.603 229.926 242.132 229.926H239.24C238.882 229.926 238.646 229.803 238.534 229.557C238.4 229.321 238.299 229.086 238.4 228.817L245.024 200.471C245.125 199.866 245.629 199.496 246.234 199.496H258.474C261.265 199.496 263.652 200.572 264.997 202.489ZM260.659 205.515C259.819 204.54 258.608 203.935 257.162 203.935H249.227L246.941 214.056H254.775C257.633 214.056 260.76 211.635 261.366 208.877C261.735 207.667 261.5 206.456 260.659 205.515Z" fill="#288DC1"/>
<path fill-rule="evenodd" clip-rule="evenodd" d="M298.185 228.346C298.185 228.582 298.185 228.951 297.916 229.187C297.68 229.557 297.344 229.658 296.974 229.658H294.082C293.477 229.658 293.118 229.422 293.006 228.951L291.56 223.168H277.001C276.396 224.143 275.69 224.984 275.084 225.959C274.345 226.9 273.639 227.976 272.932 228.951C272.663 229.321 272.193 229.658 271.587 229.658H268.696C268.225 229.658 267.99 229.557 267.855 229.321C267.754 229.086 267.754 228.716 267.99 228.346L288.534 199.496C288.803 199.261 289.274 199.025 289.509 199.025H289.98C290.35 199.025 290.72 199.261 290.821 199.631L298.185 228.346ZM287.862 207.902L279.792 219.301H290.619L287.862 207.902Z" fill="#288DC1"/>
<path d="M336.752 199.496H333.894C333.389 199.496 332.784 199.866 332.683 200.471L328.11 220.411L313.685 199.126V199.025H312.475C312.004 199.025 311.399 199.362 311.264 199.866L304.674 228.716C304.674 228.951 304.674 229.187 304.775 229.422C304.909 229.669 305.156 229.792 305.514 229.792H308.406C308.978 229.792 309.482 229.422 309.583 228.817L314.391 208.272L328.816 230.263H330.027C330.632 230.263 331.103 229.927 331.237 229.422L337.861 200.572C337.861 200.337 337.861 200.101 337.727 199.866C337.256 199.631 337.021 199.496 336.752 199.496Z" fill="#288DC1"/>
<path fill-rule="evenodd" clip-rule="evenodd" d="M370.915 204.069C373.201 206.961 374.042 210.66 373.067 214.627C371.15 222.933 362.374 229.792 353.598 229.792H343.275C343.006 229.792 342.771 229.792 342.67 229.557C342.536 229.321 342.435 229.086 342.536 228.817L349.16 200.471C349.261 199.967 349.866 199.496 350.37 199.496H360.693C365.031 199.496 368.763 201.177 370.915 204.069ZM366.577 207.062C365.031 205.011 362.374 203.935 359.146 203.935H353.228L348.319 225.454H354.069C360.592 225.454 366.476 220.881 367.922 214.627C368.628 211.635 368.158 208.978 366.577 207.062Z" fill="#288DC1"/>
<path d="M403.497 202.253C403.497 202.018 403.396 201.782 403.161 201.648C402.421 201.043 399.529 199.126 395.326 199.126C387.996 199.126 384.129 203.934 383.423 207.196C382.213 212.374 385.71 214.761 389.677 216.443C394.015 218.359 395.562 219.94 395.091 222.226C394.62 224.513 392.098 226.059 389.207 226.059C385.945 226.059 383.289 223.672 382.717 223.168C382.213 222.697 381.507 222.932 380.901 223.538L380.061 224.378C380.061 224.378 379.59 224.983 379.321 225.219C378.615 226.059 378.985 226.429 379.321 226.799C379.825 227.371 382.717 230.262 388.366 230.262C394.116 230.262 399.429 226.799 400.505 222.092C401.816 216.577 397.243 214.156 392.939 212.374C389.308 210.794 387.996 209.348 388.467 207.061C388.702 205.75 390.384 203.329 394.351 203.329C395.461 203.329 397.243 203.699 399.765 205.38L399.899 205.515C400.505 205.851 401.211 205.75 401.816 205.01C402.051 204.775 402.287 204.54 402.421 204.304C402.657 203.934 403.026 203.699 403.262 203.329C403.497 202.858 403.497 202.488 403.497 202.253Z" fill="#288DC1"/>
</g>
<defs>
<clipPath id="clip0_2_1440">
<rect width="500" height="230.33" fill="white"/>
</clipPath>
</defs>
</svg>
