<svg width="500" height="179" viewBox="0 0 500 179" fill="none" xmlns="http://www.w3.org/2000/svg">
<g clip-path="url(#clip0_2_1455)">
<path d="M55.1537 178.122C40.2558 177.53 28.067 173.453 18.5365 165.882C16.7176 164.436 12.3834 160.099 10.9293 158.27C7.06453 153.41 4.43698 148.681 2.68443 143.433C-2.70842 127.28 0.067091 106.084 10.6232 82.8209C19.6615 62.9051 33.6079 43.1526 57.9395 15.7955C61.5236 11.77 72.1971 -0.00292969 72.266 -0.00292969C72.2915 -0.00292969 71.7098 1.00472 70.9777 2.23177C64.6512 12.8287 59.2379 25.3108 56.289 36.1169C51.5517 53.4562 52.1231 68.3363 57.9624 79.8745C61.9905 87.8235 68.8961 94.7087 76.6614 98.5148C90.2557 105.175 110.159 105.727 134.465 100.127C136.138 99.7393 219.062 77.7265 318.74 51.2087C418.419 24.6883 499.987 3.00727 500 3.02512C500.028 3.04812 268.419 102.155 148.187 153.571C129.146 161.711 124.054 163.767 115.103 166.91C92.22 174.946 71.7226 178.78 55.1537 178.122Z" fill="black"/>
</g>
<defs>
<clipPath id="clip0_2_1455">
<rect width="500" height="178.195" fill="white"/>
</clipPath>
</defs>
</svg>
