<?xml version="1.0" encoding="UTF-8" standalone="no"?>
<!-- Created with Inkscape (http://www.inkscape.org/) -->

<svg
   xmlns:dc="http://purl.org/dc/elements/1.1/"
   xmlns:cc="http://creativecommons.org/ns#"
   xmlns:rdf="http://www.w3.org/1999/02/22-rdf-syntax-ns#"
   xmlns:svg="http://www.w3.org/2000/svg"
   xmlns="http://www.w3.org/2000/svg"
   xmlns:sodipodi="http://sodipodi.sourceforge.net/DTD/sodipodi-0.dtd"
   xmlns:inkscape="http://www.inkscape.org/namespaces/inkscape"
   width="260"
   height="120.97438"
   viewBox="0 0 68.791665 32.007806"
   version="1.1"
   id="svg1785"
   inkscape:version="0.92.1 r15371"
   sodipodi:docname="Nippon Flour Mills company logo.svg">
  <defs
     id="defs1779" />
  <sodipodi:namedview
     id="base"
     pagecolor="#ffffff"
     bordercolor="#666666"
     borderopacity="1.0"
     inkscape:pageopacity="0.0"
     inkscape:pageshadow="2"
     inkscape:zoom="1"
     inkscape:cx="211.21652"
     inkscape:cy="104.86021"
     inkscape:document-units="px"
     inkscape:current-layer="layer1"
     showgrid="false"
     units="px"
     fit-margin-top="5"
     fit-margin-bottom="5"
     fit-margin-right="5"
     fit-margin-left="5"
     inkscape:window-width="1280"
     inkscape:window-height="972"
     inkscape:window-x="-8"
     inkscape:window-y="-8"
     inkscape:window-maximized="1" />
  <metadata
     id="metadata1782">
    <rdf:RDF>
      <cc:Work
         rdf:about="">
        <dc:format>image/svg+xml</dc:format>
        <dc:type
           rdf:resource="http://purl.org/dc/dcmitype/StillImage" />
        <dc:title></dc:title>
      </cc:Work>
    </rdf:RDF>
  </metadata>
  <g
     inkscape:label="Layer 1"
     inkscape:groupmode="layer"
     id="layer1"
     transform="translate(-49.948961,-144.56978)">
    <path
       inkscape:connector-curvature="0"
       style="fill:#211e1e;fill-opacity:1;fill-rule:nonzero;stroke:none;stroke-width:0.52900136"
       d="m 61.961426,165.01767 h 3.752603 v -12.07405 h -4.314668 v 5.48012 l -6.37901,-5.48012 h -3.748473 v 12.07405 h 4.308469 v -5.50079 z m 0,0"
       id="path610" />
    <path
       inkscape:connector-curvature="0"
       style="fill:#211e1e;fill-opacity:1;fill-rule:nonzero;stroke:none;stroke-width:0.52900136"
       d="m 113.66511,165.01767 h 3.7526 v -12.07405 h -4.31466 v 5.48012 l -6.37488,-5.48012 h -3.75674 v 12.07405 h 4.31467 v -5.50079 z m 0,0"
       id="path612" />
    <path
       inkscape:connector-curvature="0"
       style="fill:#211e1e;fill-opacity:1;fill-rule:nonzero;stroke:none;stroke-width:0.52900136"
       d="m 68.553281,165.01767 h 4.314666 v -12.07405 h -4.314666 z m 0,0"
       id="path614" />
    <path
       inkscape:connector-curvature="0"
       style="fill:#211e1e;fill-opacity:1;fill-rule:nonzero;stroke:none;stroke-width:0.52900136"
       d="m 82.051079,158.90522 h -1.865968 v -2.96736 h 1.865968 c 0.913357,0 1.655198,0.66331 1.655198,1.4878 0,0.81417 -0.741841,1.47956 -1.655198,1.47956 m 0.832763,-5.9616 h -7.013399 v 12.07405 h 4.314668 v -2.98184 h 2.698731 c 2.795858,0 5.068908,-2.03749 5.068908,-4.54611 0,-2.51481 -2.27305,-4.5461 -5.068908,-4.5461"
       id="path616" />
    <path
       inkscape:connector-curvature="0"
       style="fill:#211e1e;fill-opacity:1;fill-rule:nonzero;stroke:none;stroke-width:0.52900136"
       d="m 95.557144,158.90522 h -1.859766 v -2.96736 h 1.859766 c 0.915424,0 1.661399,0.66331 1.661399,1.4878 0,0.81417 -0.745975,1.47956 -1.661399,1.47956 m 0.828635,-5.9616 h -7.005138 v 12.07405 h 4.316737 v -2.98184 h 2.688401 c 2.804121,0 5.075111,-2.03749 5.075111,-4.54611 0,-2.51481 -2.27099,-4.5461 -5.075111,-4.5461"
       id="path618" />
    <path
       inkscape:connector-curvature="0"
       style="fill:#eb1923;fill-opacity:1;fill-rule:nonzero;stroke:none;stroke-width:0.52900136"
       d="m 72.518722,151.56946 c 2.182131,-1.17787 3.359984,-3.22362 2.638807,-4.5709 -0.731509,-1.34317 -3.087214,-1.48162 -5.267283,-0.31203 -2.182132,1.17578 -3.366184,3.22566 -2.634675,4.5709 0.721177,1.35144 3.08722,1.48781 5.263151,0.31203"
       id="path620" />
    <path
       inkscape:connector-curvature="0"
       style="fill:#211e1e;fill-opacity:1;fill-rule:nonzero;stroke:none;stroke-width:0.52900136"
       d="m 79.193233,170.18576 h 2.661538 v -0.63439 h -3.138878 v -1.25638 h -0.634389 v 1.25638 h -3.064489 v 0.63439 h 2.655339 c -0.177712,0.55793 -0.89269,2.37637 -2.684269,3.20087 v 0.65919 c 0,0 1.744054,-0.59513 3.093419,-3.14715 v 2.41356 h -1.43409 v 0.6344 h 1.43409 v 1.30804 h 0.634389 v -1.30804 h 1.498149 v -0.6344 h -1.498149 v -2.54169 c 1.359699,2.66155 3.161609,3.27528 3.161609,3.27528 v -0.65919 c -1.787448,-0.8245 -2.498293,-2.64294 -2.684269,-3.20087"
       id="path622" />
    <path
       inkscape:connector-curvature="0"
       style="fill:#211e1e;fill-opacity:1;fill-rule:nonzero;stroke:none;stroke-width:0.52900136"
       d="m 85.828481,169.37987 h 0.836896 v 0.48766 h -1.31424 v 0.36781 h 1.31424 v 0.44222 h -1.31424 v 1.24398 h 0.440152 v -0.90508 h 0.874088 v 1.02493 h 0.500072 v -1.02493 h 0.946413 v 0.56206 h -0.460807 v 0.34302 h 0.896823 v -1.24398 h -1.382429 v -0.44222 h 1.382429 v -0.36781 h -1.382429 v -0.48766 h 1.382429 v -0.41536 h -1.382429 v -0.41329 h -0.500072 v 0.41329 H 86.07232 c 0.04544,-0.12188 0.08265,-0.2583 0.0992,-0.41329 h -0.485608 c 0,0 0.105388,0.34096 -0.603395,0.75425 v 0.36782 l 0.219038,0.0951 c 0,0 0.281032,-0.0951 0.526939,-0.38849"
       id="path624" />
    <path
       inkscape:connector-curvature="0"
       style="fill:#211e1e;fill-opacity:1;fill-rule:nonzero;stroke:none;stroke-width:0.52900136"
       d="M 89.607949,168.54916 H 89.10994 v 2.22346 h 0.498009 z m 0,0"
       id="path626" />
    <path
       inkscape:connector-curvature="0"
       style="fill:#211e1e;fill-opacity:1;fill-rule:nonzero;stroke:none;stroke-width:0.52900136"
       d="m 90.696945,171.45867 h -0.752171 v 0.46287 h 1.246046 v -3.37032 h -0.493875 z m 0,0"
       id="path628" />
    <path
       inkscape:connector-curvature="0"
       style="fill:#211e1e;fill-opacity:1;fill-rule:nonzero;stroke:none;stroke-width:0.52900136"
       d="m 89.709204,173.79371 c -0.309964,-0.21904 -0.574463,-0.49388 -0.708781,-0.83689 h 1.754385 z m -0.91542,-1.86184 h -0.582733 v 0.51249 h -3.05209 v 0.51246 h 2.041619 c -0.132259,0.17564 -0.562065,0.5228 -2.041619,0.7687 v 0.4918 c 0,0 0.710846,-0.0434 1.560141,-0.39055 v 0.73977 l -0.985676,0.064 v 0.51042 l 2.107743,-0.12188 0.979477,-0.16739 -0.02481,-0.48973 -1.514678,0.16737 v -0.97327 c 0.285163,-0.15499 0.570331,-0.35337 0.834833,-0.59928 h 0.22937 c 0.142575,0.3575 0.789369,1.50849 3.174008,2.18421 v -0.61166 c 0,0 -0.669516,-0.124 -1.332836,-0.45461 l 0.929883,-0.78938 -0.28723,-0.32856 h 0.752175 v -0.51246 H 88.79377 Z m 0,0"
       id="path630" />
    <path
       inkscape:connector-curvature="0"
       style="fill:#211e1e;fill-opacity:1;fill-rule:nonzero;stroke:none;stroke-width:0.52900136"
       d="m 95.400103,168.99137 h -0.495939 v 1.36797 h 0.495939 z m 0,0"
       id="path632" />
    <path
       inkscape:connector-curvature="0"
       style="fill:#211e1e;fill-opacity:1;fill-rule:nonzero;stroke:none;stroke-width:0.52900136"
       d="M 97.276402,168.99137 H 96.77633 v 1.36797 h 0.500072 z m 0,0"
       id="path634" />
    <path
       inkscape:connector-curvature="0"
       style="fill:#211e1e;fill-opacity:1;fill-rule:nonzero;stroke:none;stroke-width:0.52900136"
       d="m 97.299132,170.86767 h -0.956746 v -2.34124 h -0.495939 v 2.34124 h -0.98568 v 0.51454 h 0.719111 c -0.03924,0.37816 -0.200439,1.53741 -0.770772,1.90317 v 0.61166 c 0,0 0.576526,-0.41536 1.037341,-1.27705 v 2.47143 h 0.495939 v -2.60369 c 0.316155,0.46909 0.934016,0.99603 0.934016,0.99603 v -0.61167 c -0.545532,-0.47113 -0.626121,-1.18406 -0.63439,-1.48988 h 0.65712 z m 0,0"
       id="path636" />
    <path
       inkscape:connector-curvature="0"
       style="fill:#211e1e;fill-opacity:1;fill-rule:nonzero;stroke:none;stroke-width:0.52900136"
       d="m 98.569976,168.47683 h 0.576527 c 0,0 0.281035,1.93004 -1.384495,2.6884 l -0.169443,-0.58685 c 0,0 1.101397,-0.58892 0.977411,-2.10155"
       id="path638" />
    <path
       inkscape:connector-curvature="0"
       style="fill:#211e1e;fill-opacity:1;fill-rule:nonzero;stroke:none;stroke-width:0.52900136"
       d="m 99.611449,168.52643 h 0.586861 c 0,0 0.32649,1.68413 1.03321,1.85563 v 0.73358 c 0,0 -1.21299,-0.2955 -1.620071,-2.58921"
       id="path640" />
    <path
       inkscape:connector-curvature="0"
       style="fill:#211e1e;fill-opacity:1;fill-rule:nonzero;stroke:none;stroke-width:0.52900136"
       d="m 98.030641,171.23756 v 0.56 h 0.733576 c 0,0.46081 -0.06406,2.4611 -0.927817,2.58921 v 0.6592 c 0,0 1.291503,-0.0971 1.442356,-2.41565 v -0.83276 h 0.993944 v 1.95482 c 0,0 0.0682,0.75011 -0.700514,0.68193 v 0.6881 H 100.002 c 0,0 0.78936,0.0496 0.78936,-0.6881 v -3.19675 z m 0,0"
       id="path642" />
    <path
       inkscape:connector-curvature="0"
       style="fill:#211e1e;fill-opacity:1;fill-rule:nonzero;stroke:none;stroke-width:0.52900136"
       d="m 71.103231,171.48139 h -3.692679 v -2.3681 h 3.692679 z m 0,3.02524 h -3.692679 v -2.41564 h 3.692679 z m -4.324999,0.63439 h 4.994519 v -6.59186 h -4.994519 z m 0,0"
       id="path644" />
  </g>
</svg>
