<svg xmlns="http://www.w3.org/2000/svg" width="60mm" height="12mm" viewBox="0 0 60 12"><path fill="#231f20" d="M51.80963 6.54471v3.775h3.581v-4.956h-2.401c-.652 0-1.18.529-1.18 1.181m2.224.181v2.231h-.867v-2.231zm1.935-.181v3.775h3.593v-4.956h-2.413c-.652 0-1.18.529-1.18 1.181m2.235.181v2.231h-.878v-2.231zm.422-5.539h-4.71c-.652 0-1.18.529-1.18 1.18v2.497h5.89zm-4.435 2.315v-.953h2.979v.953zm-14.847-2.806h-1.423v.538h-1.678c-.256 0-.462.208-.462.463s.206.462.462.462h1.678v.458h-1.944v.865h1.944v.458h-1.944v.924h5.311v-.924h-1.944v-.458h1.944v-.865h-1.944v-.458h1.944v-.925h-1.944zm-5.939 1.513 2.115 1.373v-1.689l-1.344-.872c-.328-.213-.766-.12-.979.208-.213.328-.12.767.208.98m2.572 4.132v3.979h1.398v-1.418h2.511v.473h-.589c-.261 0-.473.212-.473.473 0 .26.212.472.473.472h1.991v-4.962h-4.327c-.543 0-.984.44-.984.983m3.909-.078v.464h-2.511v-.464zm0 1.309v.484h-2.511v-.484zm-6.481-2.683 2.115 1.374v-1.689l-1.344-.873c-.328-.213-.766-.12-.979.208-.213.328-.12.767.208.98m-.363 4.638c-.139.383.058.806.441.946.383.139.806-.058.945-.441l1.203-3.306h-1.569zm-8.087-7.16v7.953h6.688v-9.133h-5.508c-.652 0-1.18.529-1.18 1.18m5.167.256v2.24h-3.656v-2.24zm0 3.618v2.643h-3.656v-2.643zm12.752-4.056c-.358.159-.518.578-.359.935.159.357.577.518.935.359l.06-.027v5.624l-.237.131c-.337.188-.459.613-.272.95.187.338.612.46.949.272l2.94-1.629 3.494 1.937v-1.597l-.813-.451.761-.444c.262-.152.35-.487.198-.749-.102-.173-.283-.269-.47-.271v-2.692c0-.652-.528-1.18-1.18-1.18h-1.351v-.217c0-.397-.322-.719-.719-.719-.397 0-.72.322-.72.719v.217h-2.357l3.077-1.37 3.908 1.74v-1.55l-3.908-1.74zm6.951 5.091c-.015.007-.03.015-.044.023l-1.324.772-1.434-.795zm-1.245-2.963v.551h-3.59v-.551zm0 1.447v.557h-3.59v-.557zm-3.59 1.516h1.767l-1.767.98z"/><path fill="#ed1c24" d="M11.25603 11.56751c6.004 0 10.872-4.868 10.872-10.872H.38403c0 6.004 4.868 10.872 10.872 10.872"/><path fill="#fff" d="M6.93213 6.62531v-3.857h1.048v3.857zm8.648 0v-3.857h-1.05v3.857zm-9.277-3.857h-.971v1.963l-1.211-1.963h-1.017v3.856h1.017v-2.046l.705 1.139c.153.25.399.565.707.746.191.109.475.213.819.213v-3.908zm13.056 0h-.969v1.963l-1.211-1.963h-1.02v3.856h1.02v-2.046l.703 1.139c.152.25.398.565.707.746.191.109.474.213.819.213v-3.908zm-5.779 2.351c-.493-.332-.907-.451-1.037-.512-.145-.069-.244-.217-.244-.387 0-.239.204-.434.452-.434h1.172v-1.018h-1.399c-.773 0-1.4.628-1.4 1.4 0 .066.005.129.013.192-.098-.132-.216-.246-.352-.338-.492-.332-.908-.449-1.037-.511-.145-.069-.243-.218-.243-.385 0-.24.202-.434.451-.434h1.174v-1.019h-1.401c-.773 0-1.4.627-1.4 1.4 0 .531.297.994.734 1.231.16.086.289.16.5.249.137.057.717.246.717.621 0 .235-.228.428-.51.428h-1.435v1.021h1.661c.783 0 1.42-.637 1.42-1.42 0-.069-.006-.134-.014-.198.121.162.275.297.455.395.16.086.289.158.501.248.135.058.718.247.718.62 0 .236-.229.428-.512.428h-1.434v1.02h1.66c.784 0 1.421-.635 1.421-1.419 0-.49-.252-.925-.631-1.178"/></svg>