<svg baseProfile="basic" xmlns="http://www.w3.org/2000/svg" width="190" height="42"><g fill="#E60012"><path d="M33.981 14.65c-1.741-1.514-3.893-2.627-6.387-2.627-4.898 0-8.898 3.884-9.076 8.741a10.521 10.521 0 0 0-9.119-5.275c-3.37 0-6.379 1.59-8.3 4.063C2.056 8.893 12.793.494 25.91.494c13.738 0 24.884 9.224 24.884 20.608 0 2.163-.404 4.244-1.15 6.202-5.664-2.922-11.52-9.045-15.663-12.654M5.974 23.368c-1.589 0-3.102.684-4.443 1.897 1.646 6.626 7.129 12.09 14.446 14.728-.482-9.324-4.779-16.625-10.003-16.625"/><path d="M28.213 20.379c-.585-.521-1.409-.848-2.303-.848-1.945 0-3.134 1.47-3.273 3.274-.099 1.218-.656 7.253 6.737 18.7 4.765-.547 9.097-2.213 12.6-4.669-5.93-5.601-9.554-12.696-13.761-16.457"/></g><g fill="#004098"><path d="M182.543 8.253h6.357V33.89h-6.357zM124.141 8.2v3.869h-11.004s-3.957.109-3.957 2.641c0 0-.113 1.723 2.135 2.513 2.244.79 7.455 2.106 7.455 2.106s3.645.901 5.707 3.506c2.07 2.596 1.213 5.837.604 6.899-.623 1.066-2.488 3.979-5.936 4.259-3.441.283-8.359.092-8.359.092h-6.646v-3.753h9.277s2.639-.027 3.516-.406c0 0 2.184-.821 2.184-2.51 0-1.688-1.951-3.024-3.086-3.267-1.131-.245-5.562-1.16-5.562-1.16s-5.777-1.238-7.162-4.869c-1.369-3.626-.057-8.313 4.197-9.317 0 0 1.637-.466 4.125-.513 2.502-.051 4.039-.064 4.039-.064l8.473-.026zM150.012 8.2v3.869H139s-3.949.109-3.949 2.641c0 0-.121 1.723 2.127 2.513 2.248.79 7.457 2.106 7.457 2.106s3.646.901 5.707 3.506c2.07 2.596 1.223 5.837.602 6.899-.619 1.066-2.488 3.979-5.932 4.259-3.436.283-8.355.092-8.355.092h-6.645v-3.753h9.277s2.631-.027 3.508-.406c0 0 2.188-.821 2.188-2.51 0-1.688-1.953-3.024-3.086-3.267-1.133-.245-5.559-1.16-5.559-1.16s-5.783-1.238-7.164-4.869c-1.371-3.626-.059-8.313 4.191-9.317 0 0 1.637-.466 4.131-.513 2.496-.052 4.037-.067 4.037-.067l8.477-.023zM91.464 8.253h6.362V33.89h-6.362zM85.34 18.086V33.89h-6.365V18.086l-.018-1.083c-.021-1.739-1.913-3.304-1.913-3.304-2.094-1.579-7.587-1.565-7.587-1.565l-2.664-.106V33.89h-6.358V8.253h12.87s3.575-.083 6.348 1.16c2.766 1.247 4.221 3.004 4.97 4.622.751 1.619.682 2.665.682 2.665l.035 1.386zM163.301 12.914c.266-.245.914-.553 1.6-.732.689-.184 1.666-.184 1.666-.184h10.281V8.28h-10.281s-2.438-.03-3.334.072c-.893.104-3.797.485-5.158 1.842-1.367 1.369-2.051 2.181-2.09 4.592v12.876c.039 1.481.318 2.753 1.629 4.112 1.316 1.365 3.459 1.82 4.609 2.037 1.154.222 4.344.266 4.344.266h10.281v-3.72h-10.281s-.52-.014-.732-.049c-.209-.041-.736-.07-2.066-.615-1.338-.533-1.348-2.031-1.348-2.031V23.09h14.428v-3.719H162.42v-4.585c-.029-1.216.601-1.621.881-1.872"/></g></svg>