<svg xmlns="http://www.w3.org/2000/svg" viewBox="0 0 260 48.74"><defs><style>.cls-1,.cls-2{fill:#ff4c00;stroke-width:0}.cls-2{fill:#231815}</style></defs><path class="cls-1" d="M68.23 36.98c.46 0 .93-.03 1.39-.03.56 0 .88.13.88.75 0 .45-.02.9-.02 1.36v6.66c0 .42.03.82.03 1.22 0 1.2-.32 1.76-2.75 1.76-.56 0-1.01.02-1.01-1.18 0-.24.02-.53.32-.53.29 0 .62.05.99.05.7 0 .74-.24.74-.88v-7.17c0-.32-.13-.45-.45-.45h-8.47c-.32 0-.45.13-.45.45v7.15c0 .66.03 1.33.03 1.99 0 .5-.18.51-.86.51s-.88 0-.88-.5c0-.67.03-1.33.03-2v-7.07c0-.45-.02-.91-.02-1.36 0-.61.3-.75.86-.75.46 0 .93.03 1.41.03h.85c.34 0 .48-.06.64-.37.4-.74.62-1.36.93-2.13.05-.11.1-.26.24-.26.21 0 1.2.35 1.46.45.16.06.42.14.42.32s-.14.19-.27.19c-.14.02-.22.05-.29.16-.29.5-.35.69-.7 1.26-.03.05-.05.1-.05.16 0 .16.13.19.26.21h4.74Zm-5.38 9.33c0 .38-.19.37-.82.37-.66 0-.86.02-.86-.35 0-.5.03-.98.03-1.47v-2.9c0-.37-.02-.74-.02-1.1 0-.56.27-.7.77-.7.29 0 .58.03.86.03h2.58c.29 0 .58-.03.86-.03.48 0 .77.14.77.67 0 .38-.02.75-.02 1.14v2.55c0 .46.03.91.03 1.38 0 .37-.24.34-.85.34s-.83.02-.83-.35v-.06c0-.21-.08-.29-.29-.29h-1.81c-.3 0-.42.13-.43.43 0 .13.02.26.02.37Zm2.1-2.27c.27 0 .42-.16.45-.43v-1.52c-.03-.27-.18-.42-.45-.45h-1.68c-.29.03-.45.18-.45.45v1.52c0 .27.16.43.45.43h1.68ZM78.5 35.72c.13.37.22.7.54.7.22 0 .99-.42 1.23-.54.11-.05.29-.16.4-.16.29 0 .7.98.7 1.25 0 .19-.19.29-.34.38-.37.21-.77.37-1.15.53-.16.06-.37.11-.37.32 0 .08.05.18.08.24.18.45.29.66.48.66.34 0 1.57-.72 1.9-.93.1-.06.27-.18.38-.18.27 0 .82.99.82 1.23s-.35.38-.67.56c-.42.21-.85.4-1.28.58-.19.08-.45.16-.45.43 0 .35 1.33 2.42 1.62 2.79.13.18.38.48.38.69 0 .37-.94 1.04-1.3 1.04-.11 0-.18-.05-.26-.13-.77-.75-1.89-1.14-2.95-1.14-.67 0-1.58.26-1.58 1.09 0 1.15 1.63 1.41 2.5 1.41.34 0 .64-.03.98-.08.13-.02.32-.03.46-.03.32 0 .38.27.38.74 0 .99-.16 1.02-.91 1.02-1.04 0-2.11-.03-3.09-.42-1.12-.43-1.92-1.33-1.92-2.58 0-1.74 1.42-2.61 3.04-2.61.58 0 1.04.1 1.58.27.05.02.11.03.16.03.08 0 .14-.06.14-.14s-.51-1.01-.61-1.17c-.1-.19-.19-.38-.43-.38-.1 0-.14.02-.22.05-.83.26-3.44.8-4.26.8-.27 0-.34-.16-.42-.4-.08-.26-.19-.71-.19-.98 0-.3.29-.27.7-.3 1.15-.06 2.29-.24 3.41-.54.16-.05.35-.13.35-.3 0-.03-.29-.93-.61-.93-.08 0-.38.08-.5.1-.4.08-1.44.29-1.82.29-.21 0-.27-.1-.35-.27-.1-.21-.27-.8-.27-1.02 0-.34.42-.32.64-.34.53-.03.74-.08 1.23-.16.21-.03.42-.11.42-.37 0-.16-.35-.82-.45-.98-.06-.11-.19-.3-.19-.42 0-.34 1.12-.56 1.39-.56.38 0 .42.26.64.86ZM89.89 40.21c0-.1-.05-.19-.16-.19-.06 0-.1.02-.13.05-.38.32-2.06 1.63-2.45 1.63-.34 0-1.01-.78-1.01-1.12 0-.19.29-.32.43-.4 1.75-.98 3.38-2.32 4.63-3.86.42-.5.99-1.26 1.3-1.84.05-.11.11-.22.26-.22.21 0 1.28.27 1.55.34.13.03.32.08.32.24 0 .11-.1.19-.19.22-.05.03-.08.06-.08.11 0 .03.02.05.03.08 1.42 2.1 3.49 3.58 5.68 4.83.32.18.45.24.45.4 0 .29-.48 1.26-.78 1.26-.35 0-2.4-1.47-2.79-1.78-.06-.05-.11-.08-.19-.08-.14 0-.16.14-.16.26v.3c0 .37-.02.64-.32.64-.51 0-1.04-.03-1.55-.03h-2.96c-.53 0-1.04.03-1.55.03-.34 0-.32-.35-.32-.7v-.18Zm.87 7.57c-.26 0-.37.1-.37.35v.16c0 .43-.24.42-.86.42s-.83.02-.83-.4c0-.06.03-.98.03-1.17v-2.87c0-.32-.03-.64-.03-.94 0-.75.45-.9 1.12-.9.38 0 .78.03 1.18.03h4.5c.4 0 .8-.03 1.2-.03.66 0 1.1.14 1.1.88 0 .32-.02.64-.02.96v2.9c0 .38.03.9.03 1.15 0 .42-.22.42-.85.42s-.86 0-.86-.4v-.21c0-.22-.08-.35-.37-.35h-4.98Zm4.93-1.42c.27-.03.42-.18.45-.45v-1.5c-.03-.29-.18-.42-.45-.45h-4.88c-.27.03-.42.16-.45.45v1.5c.03.27.18.42.45.45h4.88Zm-2.43-9.92c-.11 0-.18.06-.26.14-.78.99-1.58 1.79-2.48 2.67-.05.05-.06.08-.06.14 0 .11.1.16.19.16.37.02.74.03 1.12.03h2.96c1.04 0 1.3.02 1.3-.22 0-.14-.18-.29-.4-.5-.06-.05-.11-.1-.18-.14-.67-.61-1.38-1.41-1.94-2.15-.06-.06-.13-.14-.26-.14ZM111.79 42.1c0 2.51-1.86 4.5-3.89 5.73-.27.16-1.07.59-1.38.59-.48 0-1.14-1.09-1.14-1.34 0-.16.18-.22.32-.27 1.92-.61 4.29-2.35 4.29-4.58 0-1.36-.86-2.21-2.22-2.21s-2.43.67-3.43 1.5c-.1.06-.22.16-.34.16-.38 0-.9-1.15-.9-1.52 0-.26.29-.4.48-.5 1.28-.71 2.79-1.3 4.27-1.3 2.27 0 3.92 1.38 3.92 3.73Zm-6.65-6.8c.06-.14.13-.3.32-.3.08 0 .18.05.26.1 1.01.43 2.9.69 4 .8.22.02.4.02.4.26 0 .18-.11.8-.16.98-.08.32-.18.48-.43.48-.51 0-3.07-.56-3.68-.72-.67-.18-1.02-.26-1.02-.51 0-.27.21-.82.32-1.07ZM122.23 36.84c0 .18-.34.43-.46.54-.78.7-1.54 1.7-2.06 2.61-.69 1.22-1.17 2.39-1.17 3.81s.66 2.46 2.18 2.46c1.07 0 2.06-.51 2.71-1.36.88-1.18 1.04-3.09 1.04-4.53s-.16-2.69-.7-4.05c-.03-.06-.05-.16-.05-.22 0-.35 1.17-.56 1.47-.56.38 0 .4.24.45.54.32 1.71 1.26 3.33 2.34 4.66.11.13.29.32.29.5 0 .35-1.09.86-1.3.86-.27 0-.56-.64-.67-.86-.05-.13-.27-.64-.4-.64-.11 0-.11.13-.11.21 0 .26.03.5.03.74 0 1.15-.22 2.69-.75 3.71-.83 1.63-2.45 2.62-4.29 2.62-2.35 0-3.84-1.62-3.84-3.94 0-1.71.59-3.09 1.44-4.56.02-.03.06-.1.06-.14s-.05-.1-.11-.1c-.08 0-.42.14-.53.19-.14.06-.61.26-.74.26-.18 0-.27-.21-.34-.34-.14-.32-.42-.96-.42-1.3 0-.21.14-.22.48-.26.85-.06 1.71-.19 2.5-.5.59-.22.88-.59 1.2-1.12.1-.16.19-.38.4-.38.42 0 1.36.78 1.36 1.14ZM134.31 35.36c.24-.03.51-.08.77-.08.45 0 .42.24.45.61.1.96.27 1.92.5 2.87.05.21.1.48.37.48.29 0 2.85-1.5 3.27-1.78.13-.06.27-.16.42-.16.21 0 .48.48.58.64.13.21.46.75.46.98 0 .16-.18.21-.3.26-1.15.38-2.87 1.25-3.95 1.84-.85.46-2.21 1.25-2.88 1.89-.42.4-.78.83-.78 1.44 0 .58.56.98 1.06 1.15.67.24 1.42.29 2.13.29 1.34 0 2.88-.18 4.18-.42.05-.02.1-.02.14-.02.22 0 .24.66.24.99v.19c0 .42-.02.59-.34.67-.61.16-3.63.26-4.4.26-1.18 0-2.23-.06-3.28-.69-.9-.51-1.47-1.41-1.47-2.46 0-1.75 1.44-2.88 2.77-3.75.16-.11.27-.22.27-.42 0-.13-.02-.19-.06-.29-.19-.58-.64-2.27-.8-2.93-.1-.37-.18-.72-.3-1.06-.02-.06-.05-.13-.05-.19 0-.24.53-.24 1.04-.32ZM155.11 37.76c1.07 1.07 1.62 2.42 1.62 3.94 0 2.22-1.17 4.13-3.12 5.17-.37.19-1.36.64-1.75.64-.42 0-1.07-.99-1.07-1.34 0-.16.24-.19.4-.22 2.1-.5 3.75-1.87 3.75-4.16 0-1.71-.9-3.25-2.56-3.83-.14-.05-.46-.14-.61-.14-.37 0-.37.35-.38.62-.18 2.34-.74 5.19-2.27 7.03-.53.64-1.23 1.23-2.11 1.23-.98 0-1.75-.7-2.18-1.52-.35-.66-.5-1.52-.5-2.27 0-3.75 2.87-6.72 6.64-6.72 1.57 0 3.01.46 4.15 1.58Zm-6.22.47c-1.83.86-2.88 2.58-2.88 4.61 0 .59.21 2.08 1.02 2.08s1.7-1.83 2.15-3.46c.21-.77.51-2.35.51-3.12 0-.16-.08-.29-.26-.29-.13 0-.42.11-.54.18ZM168.87 36.76c0 .22-.32.37-.66.56-.59.34-3.09 2.59-3.84 3.2-.06.06-.18.16-.18.26 0 .06.06.11.14.11.19 0 5.52-1.42 6.08-1.6.06-.02.13-.03.19-.03.13 0 .19.14.22.24.03.14.16 1.09.16 1.23 0 .3-.16.3-.64.37-1.2.18-2.26.48-3.3 1.09-.91.54-2.16 1.54-2.16 2.71 0 1.39 2.08 1.58 3.11 1.65.16.02.32.02.32.22 0 .19-.21.98-.29 1.17-.1.22-.22.32-.48.32-.56 0-1.6-.29-2.14-.5-1.18-.45-2.22-1.31-2.22-2.69 0-1.1.62-1.81 1.39-2.5.05-.03.08-.1.08-.14 0-.11-.11-.14-.16-.14-.11 0-.94.24-1.12.29-.66.19-2.19.7-2.83.96-.11.05-.3.13-.43.13-.37 0-.66-1.1-.66-1.41 0-.24.21-.26.74-.38.5-.11.62-.18 1.02-.48 1.34-1.04 2.99-2.61 4.26-3.78.05-.05.11-.11.11-.19s-.06-.13-.14-.13c-.13 0-1.79.45-2.03.51-.11.03-.26.08-.37.08-.4 0-.61-1.17-.61-1.47s.16-.32.45-.35c.91-.08 3.65-.46 4.4-.82.1-.05.27-.14.37-.14.48 0 1.22 1.3 1.22 1.66ZM176.93 36.37c.21.08.48.16.48.35 0 .1-.08.13-.16.16-.27.13-.38.26-.51.54-.58 1.2-.91 3.54-.91 4.88 0 .29.05 2.05.37 2.05.14 0 .24-.27.48-.9.06-.16.13-.4.29-.4.18 0 .69.32.69.51 0 .1-.06.29-.11.4-.24.67-.62 1.81-.62 2.53 0 .27.05.59.05.83 0 .5-1.04.77-1.22.77-.24 0-.4-.34-.5-.53-.78-1.62-1.04-3.43-1.04-5.2 0-1.67.26-3.33.67-4.93.13-.46.27-.91.37-1.38.03-.13.06-.29.21-.29.11 0 .62.22 1.02.4.19.08.37.16.45.19Zm6.25-.37c.16.03.22.05.22.18 0 .1-.06.19-.1.27-.1.22-.11.64-.11.96v.71c0 .22.06.43.35.43.21 0 1.18-.29 1.44-.37.08-.03.29-.1.38-.1.14 0 .21.14.26.26.08.27.21.83.21 1.12 0 .32-.38.4-2 .66-.34.05-.53.13-.53.51 0 .14.16 2.96.18 3.15.03.38.19.43.56.61.46.21 2.16 1.14 2.16 1.68 0 .37-.54 1.12-.91 1.12-.21 0-.45-.24-.61-.38-.24-.22-.51-.42-.78-.61-.08-.05-.16-.11-.26-.11-.18 0-.22.21-.27.35-.35 1.06-1.36 1.3-2.35 1.3-1.26 0-2.62-.62-2.62-2.06s1.31-2.03 2.58-2.03c.21 0 .4.05.61.05.24 0 .35-.1.35-.34 0-.56-.11-1.78-.14-2.37-.02-.14.02-.56-.37-.56-.03 0-1.47.1-2.29.1h-.21c-.32 0-.8-.02-.9-.19-.08-.14-.13-.98-.13-1.18 0-.18.03-.35.26-.35.19 0 1.46.13 2.16.13.85 0 1.28.02 1.28-.38 0-.3-.18-1.97-.22-2.34-.02-.06-.02-.13-.02-.21 0-.16.08-.21.22-.21.3 0 1.26.16 1.6.22Zm-3.3 9.69c0 .5.74.69 1.14.69.59 0 1.02-.24 1.02-.9 0-.42-.59-.43-.96-.43s-1.2.13-1.2.64Zm6.32-8.79c0 .22-.59.69-.8.69-.1 0-.16-.1-.22-.19-.34-.45-.69-.88-1.07-1.28-.05-.06-.14-.16-.14-.24 0-.18.62-.61.8-.61s1.44 1.44 1.44 1.63Zm1.6-1.01c0 .22-.59.69-.8.69-.1 0-.16-.1-.21-.18-.35-.45-.72-.9-1.12-1.31-.05-.05-.13-.13-.13-.21 0-.19.62-.62.8-.62s1.46 1.44 1.46 1.63ZM193.38 36.37c.13.05.32.11.32.27 0 .1-.06.11-.22.21-.27.14-.34.29-.5.69-.56 1.42-.9 3.02-.9 4.55 0 .3.06 2.24.43 2.24.14 0 .37-.46.43-.62.1-.21.19-.38.34-.38.16 0 .58.34.58.51 0 .14-.64 1.6-.64 2.32 0 .16.05.53.06.67.02.08.03.18.03.24 0 .4-.91.78-1.25.78-.27 0-.46-.35-.67-.78-.75-1.52-.98-3.23-.98-4.91 0-1.87.32-3.5.82-5.3.08-.27.16-.53.21-.8.03-.14.06-.35.24-.35.13 0 1.47.58 1.7.67Zm1.99 7.65c.69.85 1.36 1.12 2.43 1.12 1.2 0 2.37-.19 3.52-.51.08-.03.24-.06.34-.06.26 0 .29.38.29 1.2 0 .19.02.48-.19.59-.45.24-3.15.48-3.79.48-2.59 0-3.67-1.34-3.67-1.6 0-.22.56-1.36.86-1.36.1 0 .16.08.21.14Zm.57-6.99c.66.14 1.42.24 2.1.24.8 0 1.65-.13 2.43-.32.08-.02.19-.05.29-.05.22 0 .29.19.32.38.03.29.06.58.06.86 0 .34 0 .46-.3.53-.64.13-2.02.22-2.69.22-.5 0-2.46-.1-2.8-.32-.18-.11-.16-.45-.16-.62 0-.77.08-1.01.34-1.01.11 0 .29.05.42.08ZM.1 25.33c.41.24.96.3 1.41.15.32-.11.56-.31.67-.58v-.08s-.15-12.92-.15-13.03c.02-.05.09-.17.18-.33 2.63 2.71 5.01 5.85 7.32 8.88 1.25 1.64 2.54 3.33 3.85 4.95l.13.06c.86.09 1.63-.29 1.92-.98v-.07l.01-16.53V7.7c-.24-.51-.72-.47-1.12-.44-.2.01-.41.03-.56-.02l-.16.02-.09.13c-.52 2.55-.38 5.17-.25 7.71.09 1.71.18 3.47.08 5.23-.04.15-.18.32-.34.37-.11.03-.19 0-.27-.07L2.33 7.5l-.12-.08c-.82-.16-1.36.24-1.88.63l-.24.18-.08.16v16.78c0 .07.04.14.1.16M36.34 7.82c0-.06-.01-.12-.06-.16l-.34-.34c-.06-.05-.13-.07-.2-.05-.16.05-.4.02-.64 0-.38-.04-.77-.09-1.04.14-.15.12-.24.31-.26.56v11.72c0 1.31-.5 2.38-1.48 3.21-1.76 1.48-4.79.83-6.02.48-1.01-.39-1.93-1.63-2.35-2.61 0-.08-.17-12.95-.17-12.95l-.03-.09c-.28-.49-.74-.45-1.12-.41-.19.01-.39.03-.54-.02h-.15l-.1.13c-.72 2.23-.59 4.64-.45 7.19.09 1.68.19 3.41.01 5.07 0 1.75.66 3.26 2.03 4.63 2.42 2.15 6.92 2.11 9.6.73 3.8-2.58 3.54-7.12 3.28-11.52-.11-1.91-.23-3.9 0-5.67M54.29 7.27h-.07l-14.53-.01-.12.04c-.29.24-.43.65-.43 1.06 0 .31.08.61.21.83l.16.1s5.68.31 6.02.34c0 .34.34 15.55.34 15.55 0 .08.04.14.11.17.63.32 1.74.46 2.23-.23l.04-.11V9.84c.04-.06.19-.28.26-.39.73-.06 1.48-.04 2.22-.02 1.33.03 2.7.06 3.93-.33l.11-.1v-.15c-.04-.14 0-.33.01-.51.05-.36.12-.85-.46-1.06M68.27 20.32c-.76-.74-1.54-1.49-2.16-2.29-.01-.08-.12-.65-.15-.8.24-.26.49-.46.77-.69.31-.24.62-.49.89-.8.72-.89 1.28-2.19 1.28-3.53 0-.62-.12-1.24-.39-1.84-1.57-3.23-4.97-3.18-8.25-3.13h-1.81l-.09.02-.34.18c-.06.03-.11.09-.11.16l-.18 16.7.03.09.51 1.03c.04.07.1.11.17.11h.26c.54.01 1.09.02 1.52-.41l.06-.14V9.84c1.14-1.21 3.76-.24 4.64.09.93.5 1.5 1.5 1.51 2.64-.3 1.48-.9 2.5-1.9 3.21l-.02.03c-.16.16-.44.27-.71.39-.48.19-1.06.43-1.06 1.04v.11l.05.11 6.71 7.83c.76.66 1.42-.06 1.82-.49l.19-.19.06-.14v-.07c-.67-1.58-1.99-2.85-3.28-4.08M76.42 6.8c-.44 0-.85.17-1.09.46l-.04.13.17 17.78c0 .07.04.14.09.16.32.19.89.35 1.36.22.28-.07.49-.23.63-.46l.02-.09V7.39l-.04-.13c-.23-.29-.65-.46-1.1-.46M76.42 0c-.44 0-.85.17-1.09.46l-.04.13.17 3.76.09.16c.32.19.89.35 1.36.22.28-.07.49-.23.63-.46l.02-.1V.58l-.04-.12c-.23-.29-.65-.46-1.1-.46M34.23 4.51c.33.19.89.35 1.37.22.28-.07.49-.23.62-.46l.03-.1V.58l-.04-.12c-.24-.29-.65-.46-1.1-.46-.45 0-.86.17-1.09.46l-.04.13.16 3.76.09.16M21.83 4.51c.32.19.89.35 1.36.22.28-.07.49-.23.62-.46l.03-.1V.58L23.8.46C23.56.17 23.15 0 22.7 0c-.44 0-.86.17-1.09.46l-.05.13.17 3.76.1.16M13.51 4.51c.32.19.88.35 1.36.22.28-.07.49-.23.63-.46l.03-.1V.58l-.05-.12C15.25.17 14.83 0 14.39 0c-.45 0-.86.17-1.1.46l-.04.13.17 3.76.09.16M84.08 10.57l-.04.04.04-.04m.02-.06-.02.06.02-.06Zm-.49 2.88c.66 0 1.23-.29 1.47-.73.06-.13.1-.26.1-.41 0-.16-.05-.32-.14-.48-.13-.74-.59-1.09-.86-1.29l-.05-.04v-.05c-.02-.09-.09-.15-.18-.16-.76-.05-1.34.09-1.69.41-.24.21-.37.51-.39.85 0 .56.21 1.09.56 1.43.31.3.71.46 1.17.46M84.08 19.8l-.04.04.04-.04m.02-.05-.02.05.02-.05Zm.09-.02-.05-.04v-.05c-.02-.09-.09-.15-.18-.16-.76-.06-1.34.09-1.69.41-.24.21-.37.51-.39.85 0 .56.21 1.09.56 1.43.31.3.71.46 1.17.46.66 0 1.24-.29 1.47-.73.06-.13.1-.27.1-.41 0-.16-.05-.32-.14-.48-.13-.74-.6-1.1-.86-1.28"/><path class="cls-2" d="M96.38 10.89h13.11v1.18H96.38zM94.89 21.3h16.34v1.18H94.89zM169.11 15.9h13.64v1.18h-13.64zM127.82 15.9h13.64v1.18h-13.64zM123.08 22.34c.89-2.02 1.65-6.32 1.65-7.75v-1.17h-9.14v1.17h7.3c-.06 1.11-1.05 6.75-1.71 7.75h-7.27v1.18h13.55v-1.18h-4.38M191.51 10.64h-2.23V7.76h-1.84v2.88h-2.75v1.06h2.48c-.14 1.51-2.06 6.28-2.88 7.4v.28h.49c.3-.31 1.98-2.39 2.66-3.43v9.52h1.84v-9.88c.36.44.93 1.24 1.36 1.37h.44v-1.09c-.41-.37-1.47-3.18-1.69-4.16h2.11v-1.06"/><path class="cls-2" d="M198.79 15.87h3.48v-.89h-4.35v-3.55h3.96v-1.04h-3.96V7.76h-1.94v2.63h-2.24c.33-.77.58-1.55.64-2.25h-1.66c-.13 1.1-1.46 5.28-1.87 5.63h.61c.43-.3 1.14-1.23 1.76-2.34h2.76v3.55h-4.47v.89h4.09c-.69 1.45-2.88 5.37-3.13 5.72-.26.36-1.26 1.56-1.48 1.72v.66h.3c1.26-.8 3.71-3.53 4.69-4.82v6.3h1.94v-6.68c.78 1.2 3.25 4.22 4.44 5.13h.88v-.36c-.74-.43-3.97-5.7-4.45-7.68M221.83 23.61l-1.26 1.03c-3.17-2.93-3.43-9.32-3.55-13.21h3.64v-.92h-3.67V7.49h-1.98v3.02h-10.75v.92h10.77c.41 8.12 3.22 14.03 5.53 14.16.69.03 1.49-1.21 1.58-1.61l-.3-.36"/><path class="cls-2" d="m217.85 7.81.9-.8c.48.36 1.63 1.66 1.81 1.95-.14.3-.73.73-.96.79-.42-.11-1.61-1.55-1.75-1.93M210.27 23.2v-7.31h3.43v-.91h-8.67v.91h3.16v7.47c-1.62.1-2.99.13-3.55.14-.08.6.03 1.38.48 1.68 2.65 0 8.07-.83 9.8-2.31v-.55c-1.18.42-2.92.69-4.65.88M149.49 17.93c1.34.92 2.43 1.74 2.88 2.08.44-.43.83-1.11.66-1.63-2.08-1.63-6.86-4.33-9.14-4.23l-.34.43c1.19.4 2.73 1.26 4.2 2.18l1.75 1.16M225.63 14.06h12.09v.92h-12.09zM230.41 7.51h2.48c1.65 2.53 6.58 5.23 7.69 5.55l-.52.62c-2.34-.55-7.34-3.57-8.49-4.55-1.68 1.4-6.72 4.23-8.67 4.49v-.71c2.08-.39 6.46-4.06 7.51-5.41M240.06 18.12v-1.05h-16.78v1.05h4.57v1.08c0 .54-1.35 3.52-2.07 4.4-1.06.03-1.84.05-1.84.05-.08.42.27 1.68.71 1.92 3.31-.07 9.79-1.29 12.16-2.63.63 1.06 1.17 1.97 1.26 2.18.49-.09 1.16-.31 1.48-.83-.45-.87-3.13-4.25-4.18-5.07h-.9c.16.14 1.04 1.56 1.9 2.98-.82.4-2.98.94-4.28 1.09-.78.09-3.14.18-5.1.27 1.77-1.86 3.23-4 3.58-5.45h9.52M255.44 23.89V11.43h3.67v-1.31h-3.67V7.49h-1.84v2.63h-3.29v1.31h3.29v12.46h-4.46v1.07H260v-1.07h-4.56z"/><path class="cls-2" d="M247.56 15.14c.88-1.5 1.56-3.19 1.83-5.03h-2.48V7.48h-1.85v2.63h-3.15v1.31h5.23c-.04 2.13-3.82 7.8-5.58 8.8l-.04.41.39.24c.91-.46 2.04-1.31 3.16-2.46v6.77h1.85v-7.66c1.04.95 2.23 1.78 2.66 1.93l.28-.07.1-.43c-.27-.3-1.9-2.92-2.38-3.82M143.28 8.33h1.59v16.63h-1.59zM155.37 9.02h1.58v10.05h-1.58zM167.11 17.55V8.62h-1.98v8.5c0 1.1-.48 2.27-.61 2.49-.98 1.72-3.63 3.9-5.35 4.45h-.34v.63h1.01c2.74-.94 5.02-2.41 6.05-3.5.53-.59 1.21-1.79 1.21-3.65"/></svg>