<?xml version="1.0" encoding="UTF-8" standalone="no"?>
<!-- Created with Inkscape (http://www.inkscape.org/) -->

<svg
   width="211.72173mm"
   height="186.25783mm"
   viewBox="0 0 211.72173 186.25783"
   version="1.1"
   id="svg5"
   xml:space="preserve"
   inkscape:version="1.2.1 (9c6d41e410, 2022-07-14)"
   sodipodi:docname="Oscar Mayer 2021.svg"
   xmlns:inkscape="http://www.inkscape.org/namespaces/inkscape"
   xmlns:sodipodi="http://sodipodi.sourceforge.net/DTD/sodipodi-0.dtd"
   xmlns="http://www.w3.org/2000/svg"
   xmlns:svg="http://www.w3.org/2000/svg"><sodipodi:namedview
     id="namedview7"
     pagecolor="#ffffff"
     bordercolor="#000000"
     borderopacity="0.25"
     inkscape:showpageshadow="2"
     inkscape:pageopacity="0.0"
     inkscape:pagecheckerboard="0"
     inkscape:deskcolor="#d1d1d1"
     inkscape:document-units="mm"
     showgrid="false"
     inkscape:zoom="0.70710678"
     inkscape:cx="241.83052"
     inkscape:cy="523.25902"
     inkscape:window-width="1920"
     inkscape:window-height="1009"
     inkscape:window-x="-8"
     inkscape:window-y="-8"
     inkscape:window-maximized="1"
     inkscape:current-layer="layer1" /><defs
     id="defs2" /><g
     inkscape:label="Layer 1"
     inkscape:groupmode="layer"
     id="layer1"
     transform="translate(-12.629682,-92.598356)"><g
       id="g4162"
       style="stroke:none"
       transform="matrix(1.2270964,0,0,1.2270964,-2.8681552,-21.028752)"><path
         id="path2310"
         style="fill:#ffc800;fill-opacity:1;stroke:none;stroke-width:7;stroke-linecap:square;stroke-dasharray:none;stroke-opacity:1;paint-order:stroke fill markers"
         d="m 163.85508,100.06581 c -0.24318,0.0393 -0.48707,0.0867 -0.73174,0.14265 L 32.881159,124.14083 C 22.367141,126.75665 19.901073,136.3091 19.901073,139.4823 v 86.33375 c 0,5.62277 6.684535,12.45083 13.904061,11.00818 L 164.9594,212.71969 c 7.00147,-1.2857 12.85324,-8.23735 12.92479,-15.90386 v -84.94624 c 0.23098,-6.38684 -6.49053,-13.02111 -14.02911,-11.80378 z" /><path
         id="rect1527"
         style="fill:#ffffff;fill-opacity:1;stroke:none;stroke-width:32.085;stroke-linecap:square;paint-order:stroke fill markers"
         d="M 34.603554,131.09863 164.48853,107.24735 c 3.39323,-0.62311 6.12497,1.60698 6.12497,5.00021 v 84.60452 c 0,4.1965 -3.37841,8.1953 -7.57491,8.96593 L 33.339447,229.63516 c -3.466523,0.63658 -6.257261,-1.64171 -6.257261,-5.10823 v -84.1516 c 0,-4.30935 3.445876,-8.5283 7.521368,-9.2767 z"
         sodipodi:nodetypes="sssssssss" /><path
         id="path1470"
         style="fill:#ec072b;fill-opacity:1;stroke:none;stroke-width:7;stroke-linecap:square;stroke-dasharray:none;stroke-opacity:1;paint-order:stroke fill markers"
         d="m 162.68771,92.831537 c -0.38952,0.06291 -0.78011,0.139155 -1.17203,0.228666 L 31.36549,116.97776 c -15.175884,3.77562 -18.735808,17.5631 -18.735808,22.14326 v 87.33524 c 0,8.99791 10.697201,19.92528 22.250322,17.61664 L 166.19292,219.93615 c 10.27421,-1.8867 18.86128,-12.08783 18.96628,-23.33797 v -84.85994 c 0.36998,-10.23032 -10.39635,-20.856598 -22.47149,-18.906703 z m 1.16737,7.234273 c 7.53859,-1.217332 14.26009,5.41693 14.02911,11.80378 v 84.94624 c -0.0716,7.66652 -5.92332,14.61816 -12.92479,15.90386 L 33.805134,236.82423 c -7.219533,1.44265 -13.904061,-5.3854 -13.904061,-11.00818 V 139.4823 c 0,-3.1732 2.466057,-12.72565 12.980086,-15.34147 L 163.12334,100.20846 c 0.24467,-0.0559 0.48856,-0.10337 0.73174,-0.14265 z" /><path
         id="rect462"
         style="fill:#ec072b;fill-opacity:1;stroke:none;stroke-width:18.554;stroke-linecap:square;stroke-opacity:1;paint-order:stroke fill markers"
         d="m 54.581127,137.1565 c -6.865395,1.26072 -12.191885,7.76713 -12.193054,14.58869 l -0.0016,9.05037 c -0.0012,6.82155 5.844768,11.27636 12.665377,10.02386 4.299468,-0.78954 12.147986,-4.56997 12.149129,-14.58065 l 10e-4,-9.05027 c 7.06e-4,-6.22108 -5.106188,-11.41196 -12.620935,-10.032 z m 48.197573,-5.05404 c -1.17165,0.21515 -4.094977,1.05139 -6.758242,3.69361 -2.993567,2.9699 -4.134632,6.64799 -4.134632,9.07555 v 7.24555 c 0,3.90537 0.740767,6.52649 4.59972,8.93767 2.150601,1.34376 5.121504,1.17051 6.293154,0.95536 6.67504,-1.22577 11.03007,-6.962 11.35796,-11.62415 l -6.5443,-0.38936 c -0.11416,1.98531 -1.13886,3.39639 -2.19883,4.24385 -0.99756,0.79755 -1.93543,1.17587 -2.60294,1.24333 -2.33723,0.23612 -4.453994,-1.01965 -4.453994,-4.55128 v -6.12108 c 0,-2.51831 2.172194,-5.67134 4.453994,-6.1199 0.97977,-0.19263 1.69847,-0.30006 2.76159,0.15951 1.32035,0.57073 1.78515,1.7523 1.78697,3.50365 l 6.51278,-1.51688 c -0.17117,-4.97356 -3.81601,-10.0681 -11.07323,-8.73543 z m -23.489521,4.40441 c -4.693214,0.86184 -9.091907,4.58673 -9.327079,10.05284 -0.178915,4.15853 2.512702,7.23749 8.489921,7.46365 1.926698,0.073 4.876705,0.34196 4.876705,2.46087 0,2.20073 -2.084724,3.05089 -3.570325,3.32369 -1.668932,0.30648 -2.432802,-0.10969 -3.072164,-0.66782 -0.460647,-0.40212 -0.969605,-1.11293 -0.846459,-2.35189 l -6.538103,2.81241 c 0.842696,5.11148 5.167913,7.70834 10.609689,6.70904 4.489158,-0.82437 10.057784,-4.88538 10.057784,-10.91823 0,-5.65272 -3.69941,-7.91946 -10.51202,-7.98893 -0.853039,-0.008 -2.82205,-0.17404 -2.82205,-2.04028 0,-1.36834 1.61025,-2.20399 2.821016,-2.33703 1.746022,-0.19181 3.167249,0.10018 3.167249,2.41406 l 6.472473,-3.10421 c -0.3817,-2.45135 -2.968988,-7.08379 -9.806637,-5.82817 z M 126.07754,127.978 c -6.05728,1.11232 -9.56531,4.87208 -9.56531,4.87208 l 2.99465,4.74588 c 0,0 2.8674,-3.03596 6.15931,-3.64047 2.78847,-0.51204 4.13372,0.61688 4.65708,1.58703 0.49907,0.92506 0.47444,2.39146 0.47439,2.3944 -1.75864,-0.81662 -3.81677,-0.89108 -5.76089,-0.55649 l -5.1e-4,1e-4 c -2.77066,0.50879 -9.61183,3.44306 -9.61182,12.07296 0,5.26144 4.78928,9.33386 10.37198,8.30868 2.08015,-0.38199 4.1295,-1.67811 5.51077,-3.21854 l 0.86765,1.65762 5.11493,-0.93929 v -18.5167 c 0,-2.19551 -1.10022,-5.17202 -2.84065,-6.79937 -2.20042,-2.0574 -5.50812,-2.49373 -8.37158,-1.96789 z m 25.87956,-4.57614 c -3.43432,0.63065 -4.93045,2.8081 -4.93045,2.8081 l -1.00976,-1.37519 -5.01003,0.9567 v 28.78791 l 6.45077,-1.18459 v -16.67288 c 0,-4.0069 1.62968,-6.1197 4.68188,-6.79067 2.243,-0.41187 3.93155,0.47178 3.93155,0.47178 l 2.00711,-6.10931 c 0,0 -2.63475,-1.53205 -6.12107,-0.89185 z m -97.289674,20.56008 c 3.73986,-0.68675 5.80909,2.22922 5.808948,4.63371 l -5.17e-4,8.75046 c -2.62e-4,3.69038 -2.966882,6.26799 -5.528344,6.73836 -4.063466,0.74618 -5.839064,-2.24086 -5.83892,-4.71813 l 5.16e-4,-8.95767 c 1.27e-4,-2.18435 1.753165,-5.74797 5.558317,-6.44673 z m 71.164644,-1.17388 c 1.75201,-0.32173 3.28003,-0.0698 4.31395,0.77413 2.16973,1.77129 1.69765,5.02057 -0.0408,6.74093 -0.97442,0.96426 -2.45577,1.61136 -3.88555,1.68245 -2.09344,0.10407 -2.93474,-0.59557 -3.86902,-1.73535 -1.30167,-1.588 -0.92151,-4.25008 0.57206,-5.91401 0.89758,-0.83134 1.53913,-1.29652 2.90938,-1.54815 z m -80.659154,32.98274 -6.45077,1.18509 v 32.98093 l 6.45077,-1.18457 v -18.54512 l 5.879744,12.23006 c 0,0 4.362008,-0.76125 4.362008,-0.79325 0,-0.0317 5.289599,-14.13231 5.289599,-14.13231 v 18.38803 l 6.450769,-1.18457 v -32.98094 l -6.450769,1.18457 -7.804175,20.53789 z m 35.380269,-2.81093 c -6.057274,1.11231 -9.565308,4.8721 -9.565308,4.8721 l 2.99465,4.74588 c 0,0 2.867397,-3.03598 6.159313,-3.64049 2.788468,-0.51204 4.066542,0.62924 4.589901,1.59938 0.49907,0.92505 0.47444,2.31289 0.47439,2.31583 -1.758648,-0.81662 -3.760451,-0.93784 -5.996017,-0.45697 -2.943352,0.63311 -5.570151,2.52228 -7.091556,4.61523 -1.511264,2.07898 -2.273763,4.26444 -2.273763,7.42692 0.156332,5.40595 4.717968,9.35471 10.300663,8.32954 2.080148,-0.38198 4.256113,-1.70137 5.637382,-3.24181 l 0.867647,1.60957 5.075659,-0.93206 v -18.46864 c 0,-2.19551 -1.060951,-5.17924 -2.801379,-6.80658 -2.200418,-2.05742 -5.508125,-2.49373 -8.371582,-1.9679 z m 50.490975,-9.25067 c -7.68034,1.41037 -10.99603,8.71797 -11.02258,12.23641 l -0.0636,8.42874 c -0.0469,6.20852 4.9811,10.11253 11.08615,8.99144 6.67504,-1.22578 9.89009,-5.35961 11.00966,-9.56548 l -6.10092,-1.10382 c -0.55979,3.16254 -3.03278,3.77538 -4.89685,4.16518 -2.43931,0.44796 -4.64727,-1.10279 -4.64727,-4.00109 l 0.006,-1.35867 15.68431,-2.95148 v -5.81721 c 0,-5.8192 -4.01572,-10.31671 -11.05514,-9.02402 z m 25.30957,-4.53865 c -3.43432,0.63064 -4.93045,2.8081 -4.93045,2.8081 l -1.00976,-1.37519 -5.01003,0.95671 v 28.7879 l 6.45077,-1.18458 v -16.67288 c 0,-3.79643 1.62968,-6.11969 4.68188,-6.79066 2.243,-0.41188 3.97237,0.4994 3.97237,0.4994 l 2.00711,-6.1093 c 0,0 -2.67557,-1.55972 -6.16189,-0.9195 z m -45.85819,8.74356 v 17.9281 c 0,3.56473 -2.77734,5.29474 -4.67103,5.64249 -3.02709,0.55588 -4.50515,-1.97014 -4.50515,-3.95742 v -17.87022 l -6.45077,1.18457 v 17.87022 c 0,7.31256 5.46334,9.82122 10.2371,9.40007 3.99951,-0.35285 5.48597,-2.78922 5.48597,-2.78922 0.13364,5.72572 -2.74557,8.45718 -7.63467,9.35498 -3.121918,0.57329 -6.343287,-0.54925 -6.343287,-0.54925 l -0.91829,6.41941 c 0,0 4.293433,0.83678 8.770007,0.0144 2.1622,-0.39706 4.66032,-1.55901 6.94996,-3.2756 1.8638,-1.39732 3.35801,-3.46254 4.13308,-5.4388 1.0804,-2.7547 1.44436,-6.80391 1.44436,-9.26625 v -25.84956 z m 20.55999,2.29493 5.2e-4,-10e-5 c 2.00688,-0.31743 4.59196,0.18229 4.59196,3.82419 l -0.003,1.20153 -9.23251,1.72123 -0.004,-1.03898 c 0,-2.8983 2.20795,-5.25992 4.64726,-5.70787 z m -50.814988,17.55617 c 1.752009,-0.32173 3.28003,-0.0698 4.313949,0.77412 2.169728,1.7713 1.61312,5.10423 -0.04082,6.74093 -0.97442,0.96428 -2.455773,1.61139 -3.885551,1.68247 -2.093438,0.10407 -2.934737,-0.59559 -3.869015,-1.73536 -1.240782,-1.51371 -0.92151,-4.25007 0.572058,-5.914 0.897579,-0.83134 1.539125,-1.29652 2.909383,-1.54816 z" /></g></g></svg>
