<?xml version="1.0" encoding="UTF-8" standalone="no"?>
<svg
   xmlns:dc="http://purl.org/dc/elements/1.1/"
   xmlns:cc="http://creativecommons.org/ns#"
   xmlns:rdf="http://www.w3.org/1999/02/22-rdf-syntax-ns#"
   xmlns:svg="http://www.w3.org/2000/svg"
   xmlns="http://www.w3.org/2000/svg"
   version="1.1"
   id="svg4264"
   viewBox="0 0 300 105.01784"
   height="105.01784"
   width="300">
  <defs
     id="defs4266">
    <clipPath
       id="clipPath4206"
       clipPathUnits="userSpaceOnUse">
      <path
         id="path4208"
         d="m 0,0 595.27502,0 0,841.89001 L 0,841.89001 0,0 Z" />
    </clipPath>
  </defs>
  <metadata
     id="metadata4269">
    <rdf:RDF>
      <cc:Work
         rdf:about="">
        <dc:format>image/svg+xml</dc:format>
        <dc:type
           rdf:resource="http://purl.org/dc/dcmitype/StillImage" />
        <dc:title></dc:title>
      </cc:Work>
    </rdf:RDF>
  </metadata>
  <g
     transform="translate(-248.43734,-537.57021)"
     id="layer1">
    <g
       id="g4202"
       transform="matrix(2.4417597,0,0,-2.4417597,-838.53375,1173.9361)">
      <g
         clip-path="url(#clipPath4206)"
         id="g4204">
        <g
           transform="translate(557.7395,224.9313)"
           id="g4210">
          <path
             id="path4212"
             style="fill:#009a4e;fill-opacity:1;fill-rule:nonzero;stroke:none"
             d="M 0,0 C -5.6630001,-2.211 -9.2150002,13.066 -5.7870002,18.18 -5.3179998,18.881001 -4.79,19.327999 -4.3699999,19.521 2.3840001,22.74 5.4689999,2.135 0,0 M 6.5999999,18.882999 C 5.2010002,20.871 2.0339999,24.148001 -2.724,24.148001 -4.8210001,24.166 -7.0689998,23.51 -8.5050001,22.528999 -14.716,18.301001 -15.638,8.8299999 -11.331,1.979 c 0.909,-1.45400003 1.8889996,-2.563 3.18,-3.639 2.125,-1.7849999 4.3700001,-2.3500002 5.3959999,-2.4339999 C 0.218,-4.3340001 1.454,-3.951 2.964,-3.395 8.0830002,-1.49 13.522,9.0349998 6.5999999,18.882999" />
        </g>
        <g
           transform="translate(533.11737,249.2184)"
           id="g4214">
          <path
             id="path4216"
             style="fill:#009a4e;fill-opacity:1;fill-rule:nonzero;stroke:none"
             d="m 0,0 c 2.721,0.094 9.6210003,-1.158 9.6210003,-7.6409998 0,-2.3530006 -1.8630004,-3.8160002 -4.0000005,-3.6930002 -1.5499997,0.09 -3.1919999,1.086 -3.2459998,2.5800003 -0.035,0.9429998 0.158,1.5329995 0.2820001,2.0449996 0.097,0.4219999 0.018,0.9120002 -0.059,1.1560001 -0.625,1.889 -3.31000001,1.2480002 -4.422,0.2909999 C -4.018,-7.1129999 -4.459,-9.2889996 -4.7239999,-10.66 c -1.1100001,-5.635 0.78,-15.806999 6.921,-13.735 0.9159999,0.309 1.727,0.94 2.0510001,1.763999 0.4389997,1.193001 0.3049999,2.75 0.4579997,3.600001 0.4780002,2.863001 4.3410001,1.937 4.5160003,0.285 0.099999,-0.883 0.3459997,-2.99 -0.5360002,-4.867001 -0.5999995,-1.288999 -1.5279999,-2.073 -2.5710001,-2.969 -0.2339998,-0.205 -1.448,-0.955 -2.1909998,-1.196998 C 1.105,-28.672001 -2.2130001,-28.223 -4.3730001,-27.254 -13.477,-23.139 -14.332,-7.6989999 -6.2150001,-2.0469999 -4.4879999,-0.83600002 -2.681,-0.098 0,0" />
        </g>
        <g
           transform="translate(508.35669,249.3571)"
           id="g4218">
          <path
             id="path4220"
             style="fill:#009a4e;fill-opacity:1;fill-rule:nonzero;stroke:none"
             d="M 0,0 C 5.546,0.97899997 12.276,-2.773 10.558,-8.1929998 10.319,-8.9320002 9.5500002,-9.4799995 9.21,-9.6330004 7.8169999,-10.252 5.974,-10.08 5.112,-8.4099998 c -0.3059998,0.592 -0.2550001,1.4309997 -0.2870002,2.019 -0.01,0.25 -0.105,0.4849997 -0.2359996,0.6759997 C 3.3429999,-3.961 0.51099997,-4.0289998 -0.70999997,-5.4840002 -1.329,-6.2249999 -1.441,-7.8930001 -0.61900001,-8.5780001 1.313,-10.182 3.72,-11.211 4.9050002,-11.854 8.6709995,-13.916 13.015,-15.596 11.72,-22.132999 11.167,-24.879 8.7819996,-26.639 6.5630002,-27.568001 c -4.6140002,-1.904999 -10.4290001,-0.175998 -12.849,2.576 -1.0700001,1.219 -2.1250005,3.91 -1.0580001,5.861 0.7669998,1.424 2.3740001,2.32 4.415,1.555001 1.703,-0.633 2.07099992,-2.242001 2.04699988,-2.542999 -0.066,-0.621001 -0.017,-1.004 0,-1.522002 C -0.86799997,-22.33 0.015,-23.372999 1.462,-23.773001 c 0.521,-0.132999 1.5730001,-0.274 2.6849998,0.105002 0.5550003,0.205 1.092,0.495998 1.4450002,1.181999 0.612,1.202999 0,2.497999 -0.3889999,2.92 -0.2860003,0.295 -0.922,0.733999 -1.6400001,1.167999 -1.9390001,1.183001 -4.119,2.392 -7.3320001,4.474001 -2.8449997,1.838 -3.8299999,3.899 -3.8569998,6.3750002 C -7.651,-5.3239999 -6.1079998,-1.0779999 0,0" />
        </g>
        <g
           transform="translate(487.68579,227.8922)"
           id="g4222">
          <path
             id="path4224"
             style="fill:#009a4e;fill-opacity:1;fill-rule:nonzero;stroke:none"
             d="M 0,0 C -2.279,-1.809 -5.1739998,-1.516 -5.8569999,-0.66799998 -6.9260001,0.66000002 -5.7969999,3.049 -3.625,4.4180002 -1.501,5.756 0.97799998,6.0209999 1.9069999,4.77 2.642,3.777 2.223,1.7640001 0,0 M 11.456,-1.373 C 11.171,-1.326 10.395,-1.1289999 9.9650002,-0.996 9.2360001,-0.78500002 8.7989998,-0.57 8.6660004,-0.264 8.566,-0.031 8.5609999,0.467 8.507,1.008 8.4790001,1.291 8.3620005,5.1950002 8.375,7.6760001 8.4119997,11.42 8.7279997,15.701 7.5019998,17.41 6.836,18.334 5.927,19.201 4.9239998,19.806999 3.0880001,20.927999 0.193,21.924 -3.1440001,21.434 -6.131,20.996 -8.5380001,19.395 -9.8909998,17.391001 -12.273,13.826 -10.215,8.7419996 -5.4580002,10.49 c 1.1770001,0.442 2.2630003,1.887 1.9070001,3.528 -0.1149998,0.519 -0.1659999,0.863 -0.09,1.132 0.1270001,0.567 0.532,1.871 2.358,1.871 1.604,0 2.78,-1.373 2.78,-2.677 0,-1.389 -0.802,-2.321 -1.48,-2.905 C -3.9100002,8.1619997 -12.463,7.2989998 -12.41,0.359 c 0.017,-3.5880001 1.941,-5.6029999 4.9080001,-6.7440002 C -5.007,-7.355 -3.1719999,-6.5609999 0.61699998,-4.6209998 1.137,-4.3439999 1.96,-4.0469999 2.365,-3.914 4.7779999,-3.207 6.836,-7.6820002 9.8669996,-6.2789998 10.408,-6.033 10.908,-5.5229998 11.242,-5.1149998 c 0.468,0.5939999 0.707,1.6029997 0.742,2.1719997 C 12.023,-2.346 11.896,-1.449 11.456,-1.373" />
        </g>
        <g
           transform="translate(465.5159,238.3121)"
           id="g4226">
          <path
             id="path4228"
             style="fill:#009a4e;fill-opacity:1;fill-rule:nonzero;stroke:none"
             d="M 0,0 C -5.902,-1.047 -9.7130003,14.533 -5.0799999,15.67 0.43399998,17.041 4.4650001,0.787 0,0 m 5.862,17.438999 c -1.7599998,2.303002 -3.5980001,5 -9.289,4.362002 C -4.7360001,21.653999 -6.9899998,21.047001 -8.6269999,20.951 -11.682,20.768 -16.268,21.997999 -18.072,20.754 c -0.699,-0.480999 -1.595999,-1.514 -1.590001,-3.42 -0.016,-1.666 1.131001,-2.783 2.002001,-3.113 1.51,-0.578 2.121,-0.85 2.492,-1.321 1.115,-1.412 1.516,-22.5190004 0.36,-24.625 -0.654,-1.154 -2.696,-1.515 -3.667,-2.121 -1.404,-0.859 -1.463999,-1.748 -1.472,-2.285001 -0.016,-0.841999 0.401,-1.577999 0.859001,-1.931999 0.837999,-0.642 1.628999,-0.573999 2.226999,-0.493999 1.256,0.179998 4.56,1.743 8.6590003,1.081999 C -6.8239999,-17.697001 -4.335,-18.27 -2.957,-18.966999 -1.8099999,-19.555 -0.005,-20.51 1.8380001,-20.25 4.4939999,-19.858999 4.757,-16.055 2.6329999,-15.004 1.791,-14.582 0.944,-14.406 -0.768,-14.107 c -2.0170001,0.347 -4.8360001,1.359 -5.2690002,2.775 -0.1659999,0.514 -0.2649998,1.5719998 -0.2789998,2.5590002 -0.02,0.9899998 0.068,1.7959996 0.3179999,2.349 0.5940003,1.3339997 1.8590002,1.6559997 3.2640001,1.6039996 1.209,-0.053 2.79,-0.2519998 4.236,-0.018 2.682,0.467 5.6090001,2.6969998 6.5840004,4.9449998 1.073,2.4710001 1.1679993,5.7190002 1.158,6.9110001 C 8.934,11.402 7.842,14.848 5.862,17.438999" />
        </g>
        <g
           transform="translate(474.76001,245.3844)"
           id="g4230">
          <path
             id="path4232"
             style="fill:#009a4e;fill-opacity:1;fill-rule:nonzero;stroke:none"
             d="M 0,0 0,-0.055 C 0.002,-0.088 0.005,-0.123 0.005,-0.152 0.005,-0.1 0.002,-0.055 0,0" />
        </g>
        <g
           transform="translate(474.76001,245.3844)"
           id="g4234">
          <path
             id="path4236"
             style="fill:#009a4e;fill-opacity:1;fill-rule:nonzero;stroke:none"
             d="M 0,0 C -0.01,0.50199997 -0.038,0.57999998 0,0" />
        </g>
      </g>
    </g>
  </g>
</svg>
