<?xml version="1.0" encoding="UTF-8"?>
<svg width="600" height="85" version="1.1" xmlns="http://www.w3.org/2000/svg">
 <path d="m529 41.45v-7.3797c0.043-1.6944 1.1439-7.5431 5.9175-7.5431 1.3676 0 5.2638 0.67949 5.2638 3.9651v10.958zm39.702-30.155s-42.317 0.0516-42.343 0.0516c-19.37-1.1353-40.623 12.592-18.071 37.544 2.847 3.148 5.324 11.689-7.8528 10.399-1.7116 0.086-2.8814-0.48166-4.2747-1.0665 0.27524 2.7695 0.14622 7.999 4.6016 13.099 6.3218 7.0787 28.211 4.0167 28.237-11.113 0 0-0.0258-1.2988 0.0774-1.2988h11.104l0.043 10.02c0 2.6233-3.0362 3.9995-3.0362 4.2059l31.359 0.0344c-0.0516-0.24083-3.0878-1.617-3.0878-4.2403l0.0602-51.555c0-3.8963 3.2684-5.9691 3.1824-6.081m-530.2 23.403v-7.8184h4.3693c2.4771 0 7.2249 2.0643 7.2249 7.8184 0 5.7197-4.7478 7.8098-7.2249 7.8098h-4.3693zm34.834 0.38705c0-6.9153-2.2879-11.697-7.1131-16.093-5.5133-5.0402-14.63-7.6463-22.569-7.9474h-33.647c-0.043 0.0602 3.234 2.1331 3.234 6.0466v51.555c0 2.6061-3.062 3.9737-3.062 4.2145l31.291 0.0516c0-0.25804-2.9846-1.5998-2.9846-4.2661v-10.321c16.222 0 34.8-4.2145 34.851-23.24m374.5-23.877c-0.086 0.15482 0.0602 3.6727 0.043 3.7329 5.4617-2.8125 9.4956-4.3263 13.839-4.8338 19.318-1.0321 40.563 13.856 17.968 38.748-2.8642 3.1394-5.3154 11.672 7.8786 10.433 1.6772 0.086 2.8556-0.44726 4.2145-1.0665-0.27523 2.7695-0.13761 7.999-4.593 13.099-6.3304 7.0357-28.237 3.9651-28.237-11.173l0.043-26.104c0-1.7202-1.1697-7.5431-5.8745-7.5431-1.4536 0-5.3757 0.61067-5.3757 3.9221v38.455c0 2.6147 3.0362 3.9823 3.0362 4.2231h-31.334c0-0.24083 3.0706-1.6084 3.0706-4.2489v-51.538c0-3.9049-3.2684-5.9691-3.2168-6.0896 0 0 28.564-0.0602 28.538-0.0172m-69.617 0.0172c-0.0946 0.0688 3.2254 2.1761 3.2254 6.0379l-0.0602 51.563c0 2.6577-3.0276 4.0339-3.0276 4.2489h31.334c0-0.21503-3.0276-1.5826-3.0276-4.2231v-51.589c0-3.8533 3.3372-5.9175 3.2168-6.0379zm-8.3774 61.463c-3.406-2.8986-18.974-0.27524-27.842 0.29243-18.131 1.0751-33.415-7.3883-35.961-25.106-0.36985-2.3223-0.36985-9.1859 0.0258-11.551 2.5287-17.692 17.839-26.113 35.987-25.029 8.8247 0.55047 24.393 3.2426 27.807 0.30964-0.0946 0-0.0172 16.471-0.0172 16.471-0.67088-1.0063-3.363-2.0814-5.1004-2.0642 0.043 0-4.1027-0.31824-9.2977-0.31824-4.7822 0-10.614 0.35264-14.476 1.8922-8.9021 3.6726-10.278 18.974-4.7306 25.218 8.042 8.9279 15.164 0.0602 12.91-9.4784-0.65368-2.5373-5.8315-3.191-6.0552-3.7415 0.0774 0 28.332 0.043 28.332 0.043-1.1612 0.53326-1.6342 1.4192-1.6342 1.6256-0.0516 0-0.0516 31.437 0.0516 31.437m-230.7-23.369c-2.1761-2.0556-4.0167-1.4966-4.1113-1.4966 0 0-23.059-0.0774-23.128-0.11182-0.24943 0 0.37845 6.2358 2.3911 8.0678 4.3693 3.9909 27.05 2.4427 26.99 2.4169 1.7546 0.0258 4.3951-1.1267 5.0574-2.1159 0 0-0.0344 16.48 0.0688 16.497-3.3974-2.9072-18.957-0.30104-27.833 0.28383-18.131 1.0923-33.484-7.4227-36.013-25.081-0.33545-2.3739-0.33545-9.2031 0-11.56 2.5975-17.692 17.916-26.139 36.03-25.012 8.8677 0.55047 24.418 3.2168 27.824 0.26664-0.0774 0.0258-0.0774 16.488-0.0774 16.488-0.64508-1.0063-3.3028-2.0815-5.0488-2.0643 0.10321-0.0172-22.629-1.6256-26.999 2.3395-2.0126 1.8492-2.5889 8.0162-2.3653 8.0162 0.043 0 23.128 0.043 23.128 0.043 0.10322 0 1.9094 0.47305 4.0855-1.531zm48.527-6.7518h-4.3607v-15.611h4.4209c2.4513 0 7.1991 2.0557 7.1991 7.8184 0 5.7541-4.7478 7.7926-7.2593 7.7926m18.587 8.9881c-0.39565-1.4106-0.44726-3.0534 0.26663-3.1824 12.549-2.9674 14.57-19.008 9.0311-25.958-8.1194-10.235-18.621-11.19-44.949-11.267l-15.637-0.043c-0.0946 0.10321 3.2168 2.1761 3.2168 6.0724l-0.0172 51.546c0 2.6233-3.0448 3.9909-3.0448 4.2575h30.224c0.0602-0.17202-2.0384-0.94611-2.0384-3.9737-0.14622-0.7741 0.46446-10.45 0.40425-10.45 0 0 0.55047-0.0688 1.875-0.0688 1.4708 0.29244 4.7134 6.9497 6.253 8.6785 5.281 5.8143 13.598 9.3322 21.829 7.0873 7.1733-1.9352 10.863-9.1515 12.429-15.826-9.2461 1.3934-18.355-1.1697-19.843-6.8722m58.771 22.027c-16.05 0.47306-32.718-10.545-33.493-27.025-0.52466-11.723 3.8361-31.041-0.0774-35.393-9e-3 -0.0516 27.962 0 27.962 0s-1.0235 1.4966-1.2902 2.3137c-3.191 7.3625-9.7708 37.888 6.8206 37.888 16.591 0 10.123-30.465 7.0185-37.836-0.30104-0.86011-1.3418-2.3653-1.3418-2.3653s28.048-0.0172 28.014 0.043c-3.9135 4.3091 0.48166 23.679-0.13762 35.393-0.75689 16.48-17.34 27.48-33.475 26.982m314.37-9.9326h1.6686c1.4278 0 2.6835-0.0774 2.6835-1.6858 0-1.359-1.1439-1.574-2.2277-1.574h-2.1245zm-1.5912-4.5328h3.9565c2.4513 0 3.5952 0.93752 3.5952 2.9158 0 1.8492-1.1784 2.6233-2.6921 2.7781l2.9416 4.5328h-1.7288l-2.7867-4.3865h-1.6944v4.3865h-1.5912zm3.4318 12.592c4.0597 0 7.1905-3.234 7.1905-7.5345 0-4.1629-3.1308-7.4055-7.1905-7.4055-4.0941 0-7.2421 3.2426-7.2421 7.4055 0 4.3005 3.148 7.5345 7.2421 7.5345m0-16.23c4.7822 0 8.7645 3.7673 8.7645 8.6957 0 5.0488-3.9823 8.8247-8.7645 8.8247-4.8424 0-8.8333-3.7759-8.8333-8.8247 0-4.9284 3.9909-8.6957 8.8333-8.6957"/>
</svg>
