<?xml version="1.0" encoding="utf-8"?>
<!-- Generator: Adobe Illustrator 19.1.0, SVG Export Plug-In . SVG Version: 6.00 Build 0)  -->
<svg version="1.1" id="working" xmlns="http://www.w3.org/2000/svg" xmlns:xlink="http://www.w3.org/1999/xlink" x="0px" y="0px"
	 viewBox="-211 272 600 225" style="enable-background:new -211 272 600 225;" xml:space="preserve">
<style type="text/css">
	.st0{fill:#1667A1;}
</style>
<g>
	<g>
		<g>
			<path class="st0" d="M69,437.7h17.5v-52.2V340H69v45.4V437.7z M96.3,339.5c-2.8,0.1-5.8,1.2-7.2,2.7v7.6c6.6-1.9,6.1,3.9,6.1,6.3
				v81.5h17.5v-79.9C112.5,343.8,106.3,339,96.3,339.5z M121.9,339.3c-1,0-2,0.1-3,0.2l0,0c-0.1,0-0.1,0-0.2,0
				c-2.6,0.4-5,1.4-7.5,3.3c1.2,1.6,2.2,3.4,2.8,5.5c0.2,0.5,0.3,1.1,0.4,1.6c0.4-0.1,0.8-0.2,1.2-0.3c0,0,0,0,0.1,0s0.2,0,0.3,0
				s0.2,0,0.3,0s0.2,0,0.3,0s0.2,0,0.3,0c0,0,0,0,0.1,0c4.8,0.5,4.4,6.4,4.4,6.4v81.5h17.5v-80C138.8,344.3,132.9,339.3,121.9,339.3
				z"/>
			<path class="st0" d="M148.6,459.5h17.5v-64.3V340h-17.5v55.2V459.5z M175.9,339.5c-2.8,0.1-5.8,1.2-7.2,2.7v7.6
				c6.6-1.9,6.1,3.9,6.1,6.3v33.4c0,3,0,5,0,5v27.1c0,2.4,0.5,8.2-6.1,6.3v7.6c1.4,1.5,4.4,2.6,7.2,2.7c10,0.5,16.3-4.3,16.3-18.2
				v-62.3C192.2,343.8,185.9,339,175.9,339.5z"/>
			<path class="st0" d="M253.2,437.7h17.5V386V340h-17.5v46.4V437.7z M280.5,339.5c-2.8,0.1-5.8,1.2-7.2,2.7v7.6
				c5.8-1.3,5.1,2.6,5.1,6.3v11.4h16.1v-9.8C294.4,343.7,290.5,339,280.5,339.5z"/>
			<path class="st0" d="M235.6,342c0,0-2.5-1.4-6-1.8c-1.5-0.2-3.7-0.3-5.7-0.3h-2.6c-0.1,0-0.3,0-0.4,0v10.5c0.1,0,0.3-0.1,0.4-0.1
				c0,0,1-0.2,2.6,0c3.3,0.5,3,4,3,4v68.8c0,0,0.3,3.5-3,4c-1.6,0.2-2.6,0-2.6,0c-0.2,0-0.3-0.1-0.4-0.1v10.5c0.1,0,0.3,0,0.4,0h2.6
				c2.1,0,4.2-0.1,5.7-0.3c3.5-0.4,6-1.8,6-1.8c4.7-2.6,8.8-7.3,8.8-17.2v-59C244.4,349.5,240.3,344.8,235.6,342z M209.6,342
				c-4.7,2.6-8.8,7.3-8.8,17.2v59c0,9.9,4.1,14.6,8.8,17.2c0,0,2.5,1.4,6,1.8c0.8,0.1,1.7,0.2,2.7,0.2v-13.9c0-0.2,0-0.4,0-0.4
				v-68.8c0,0,0-0.1,0-0.4v-13.9c-1,0-1.9,0.1-2.7,0.2C212.1,340.7,209.6,342,209.6,342z"/>
			<path class="st0" d="M316.7,351.2h6.1V340h-6.1v-16.2h-17.5V420c0,13.3,6.2,18.4,16.3,18.4c2.4,0,5.5-0.3,7.2-1.5v-9
				c-6.6,0.9-6.1-6.3-6.1-6.3v-70.4H316.7z"/>
			<path class="st0" d="M359.9,342c0,0-2.5-1.4-6-1.8c-1.5-0.2-3.7-0.3-5.7-0.3h-2.6c-0.1,0-0.3,0-0.4,0v10.5c0.1,0,0.3-0.1,0.4-0.1
				c1.6-0.2,2.6,0,2.6,0c3.3,0.5,3,4,3,4v13.1h17.5v-8.1C368.8,349.5,364.7,344.8,359.9,342z M345.7,427.2c-3.3-0.5-3-4-3-4V405
				h-17.5v13.1c0,9.9,4.1,14.6,8.8,17.2c0,0,2.5,1.4,6,1.8c1.5,0.2,3.7,0.3,5.7,0.3h2.6c0.1,0,0.3,0,0.4,0V427
				c-0.1,0-0.3,0.1-0.4,0.1C346.7,427.5,345.7,427.2,345.7,427.2z M368.8,405.2c0-2.7-0.2-8.4-4.7-13.4c-1.9-2.1-3.4-3.5-7.3-6.7
				l-8.8-7.6c0,0-0.5-0.5-1.2-1.1c-0.5-0.4-1.9-1.8-2.6-3.1c-0.8-1.5-1.5-3.7-1.5-6.5v-5.1v-7.4c0,0,0-0.1,0-0.4V340
				c-1,0-1.9,0.1-2.7,0.2c-3.5,0.4-6,1.8-6,1.8c-4.7,2.6-8.8,7.3-8.8,17.2v2.5l0,0v8.4c0,2.7,0.2,8.4,4.7,13.4
				c1.9,2.1,3.4,3.6,7.3,6.7l8.8,7.6c0,0,0.5,0.5,1.2,1.1c0.5,0.4,1.9,1.8,2.6,3.1c0.8,1.5,1.5,3.7,1.5,6.5v7.2v7.4c0,0,0,0.1,0,0.4
				v13.9c1,0,1.9-0.1,2.7-0.2c3.5-0.4,6-1.8,6-1.8c4.7-2.6,8.8-7.3,8.8-17.2v-2.5l0,0V405.2L368.8,405.2z"/>
		</g>
		<path class="st0" d="M371.2,347.5L371.2,347.5c0-4.1,3.3-7.5,7.4-7.5c4.2,0,7.4,3.4,7.4,7.4l0,0c0,4.1-3.3,7.5-7.4,7.5
			C374.5,355,371.2,351.5,371.2,347.5z M385.2,347.5L385.2,347.5c0-3.7-2.8-6.7-6.6-6.7c-3.7,0-6.6,3-6.6,6.7l0,0
			c0,3.6,2.8,6.6,6.6,6.6C382.4,354.2,385.2,351,385.2,347.5z M375.9,343.5h3.3c1.5,0,2.8,0.8,2.8,2.3c0,1.2-0.8,2-1.8,2.3l2.1,2.9
			h-1.5l-1.9-2.7h-1.8v2.7h-1.2V343.5L375.9,343.5L375.9,343.5z M379.1,347.3c1.1,0,1.7-0.6,1.7-1.4c0-0.9-0.6-1.3-1.7-1.3h-2v2.7
			L379.1,347.3L379.1,347.3z"/>
	</g>
	<g>
		<g>
			<path class="st0" d="M-10.6,319.5c0,10.5-3.1,19-13.5,20.5V355h12v82.7H8V319.5H-10.6z"/>
		</g>
		<g>
			<path class="st0" d="M-152.9,437.7h17.5V385V340h-17.5v45.4V437.7z"/>
			<path class="st0" d="M-152.9,336.5h17.5v-7v-5.8h-17.5v6.3V336.5z"/>
			<path class="st0" d="M41.7,437.7h17.5v-51.2V340H41.7v47.6V437.7z"/>
			<path class="st0" d="M41.7,336.5h17.5v-7v-5.8H41.7v5.8V336.5z"/>
			<path class="st0" d="M-101.3,423.2c0,0,0.3,3.5-3,4c-1.6,0.2-2.6,0-2.6,0c-0.2,0-0.3-0.1-0.4-0.1v10.5c0.1,0,0.3,0,0.4,0h2.6
				c2.1,0,4.2-0.1,5.7-0.3c3.5-0.4,6-1.8,6-1.8c4.7-2.6,8.8-7.3,8.8-17.2V405h-17.5V423.2L-101.3,423.2z M-118.6,342
				c-4.7,2.6-8.8,7.3-8.8,17.2v59c0,9.9,4.1,14.6,8.8,17.2c0,0,2.5,1.4,6,1.8c0.8,0.1,1.7,0.2,2.7,0.2v-13.9c0-0.2,0-0.4,0-0.4
				v-68.8c0,0,0-0.1,0-0.4v-13.9c-1,0-1.9,0.1-2.7,0.2C-116.1,340.7-118.6,342-118.6,342z M-92.6,342c0,0-2.5-1.4-6-1.8
				c-1.5-0.2-3.7-0.3-5.7-0.3h-2.6c-0.1,0-0.3,0-0.4,0v10.5c0.1,0,0.3-0.1,0.4-0.1c0,0,1-0.2,2.6,0c3.3,0.5,3,4,3,4v21.3
				c0,0.9-0.4,3.2-3,3.6h-3.1v11.3h23.6v-31.3C-83.8,349.5-88.1,344.8-92.6,342z"/>
			<path class="st0" d="M-76.2,437.7h17.5V386V340h-17.5v47V437.7z M-48.9,339.5c-2.8,0.1-5.8,1.2-7.2,2.7v7.6
				c5.8-1.3,5.1,2.6,5.1,6.3v11.4h16.1v-9.8C-35,343.7-38.9,339-48.9,339.5z"/>
			<path class="st0" d="M-168.8,322c0,0-2.9-1.6-7-2.1c-1.6-0.2-5.4-0.3-7.6-0.3c-0.2,0-0.8,0-1,0l0,0v11.1c4.4-0.5,6.3,0.6,7.2,1.8
				s0.8,3,0.8,3v39.3c0,0,0.1,1.8-0.8,3c-0.9,1.3-2.8,2.4-7.2,1.8v11.1l0,0c0.2,0,0.8,0,1,0c2.2,0,5.9-0.1,7.6-0.3
				c4.1-0.5,7-2.1,7-2.1c5.5-3.1,10.3-8.6,10.3-20.2v-25.9C-158.5,330.5-163.3,325-168.8,322z M-206.2,437.7h19.2V379v-59.4h-19.2
				v59.9V437.7z"/>
		</g>
	</g>
</g>
</svg>
