<?xml version="1.0" encoding="UTF-8" standalone="no"?>
<svg
   xmlns:dc="http://purl.org/dc/elements/1.1/"
   xmlns:cc="http://creativecommons.org/ns#"
   xmlns:rdf="http://www.w3.org/1999/02/22-rdf-syntax-ns#"
   xmlns:svg="http://www.w3.org/2000/svg"
   xmlns="http://www.w3.org/2000/svg"
   xmlns:sodipodi="http://sodipodi.sourceforge.net/DTD/sodipodi-0.dtd"
   xmlns:inkscape="http://www.inkscape.org/namespaces/inkscape"
   version="1.1"
   id="svg2"
   width="700"
   height="581.71301"
   viewBox="0 0 700 581.71301"
   sodipodi:docname="Pizza Hut (1973).svg"
   inkscape:version="1.0.1 (3bc2e813f5, 2020-09-07)">
  <metadata
     id="metadata8">
    <rdf:RDF>
      <cc:Work
         rdf:about="">
        <dc:format>image/svg+xml</dc:format>
        <dc:type
           rdf:resource="http://purl.org/dc/dcmitype/StillImage" />
        <dc:title></dc:title>
      </cc:Work>
    </rdf:RDF>
  </metadata>
  <defs
     id="defs6" />
  <sodipodi:namedview
     pagecolor="#ffffff"
     bordercolor="#666666"
     borderopacity="1"
     objecttolerance="10"
     gridtolerance="10"
     guidetolerance="10"
     inkscape:pageopacity="0"
     inkscape:pageshadow="2"
     inkscape:window-width="1920"
     inkscape:window-height="1017"
     id="namedview4"
     showgrid="false"
     showguides="true"
     inkscape:guide-bbox="true"
     inkscape:zoom="0.88499637"
     inkscape:cx="256.49065"
     inkscape:cy="375.56181"
     inkscape:window-x="-8"
     inkscape:window-y="-8"
     inkscape:window-maximized="1"
     inkscape:current-layer="g10" />
  <g
     inkscape:groupmode="layer"
     inkscape:label="Image"
     id="g10">
    <path
       style="opacity:1;fill:#000000;fill-opacity:1;fill-rule:evenodd;stroke:none;stroke-width:12.0058;stroke-linecap:square;stroke-miterlimit:8;paint-order:markers fill stroke"
       d="m 15.409743,13.938548 c 20.491434,3.35708 21.852661,8.008044 22.375346,11.527922 l -3.178664,207.13412 c -0.0766,4.99206 -4.170366,9.01154 -23.598082,8.27462 -10.49727065,-0.39817 -11.26711485,11.61079 4.297876,12.24981 l 92.292511,3.78907 c 8.97647,0.36853 10.53384,-11.83913 -6.99916,-12.87868 -10.632539,-0.63042 -20.430301,-3.11147 -20.441309,-6.53776 l -0.17663,-54.98371 c -0.725303,4.35182 98.119849,1.51834 97.221759,-77.2272 C 176.2215,19.194564 70.836421,1.9916706 55.551101,1.3702887 40.265783,0.74890679 8.717865,0.46618548 3.4653731,4.2586094 -2.338548,8.4491802 2.2888777,11.788977 15.409743,13.938548 Z M 113.61647,52.01945 c 6.8467,7.862743 18.01556,13.687058 18.30331,45.045143 0.27075,29.504427 -11.9651,57.612257 -18.89061,64.620207 -6.92551,7.00795 -33.015675,8.8504 -33.015675,8.8504 0,0 -1.518812,-137.261521 0.917439,-139.507915 3.095198,-2.853985 25.838816,13.129421 32.685536,20.992165 z"
       id="path869"
       sodipodi:nodetypes="scsssssscszsszszcsz" />
    <path
       style="opacity:1;fill:#000000;fill-opacity:1;fill-rule:evenodd;stroke:none;stroke-width:12.0058;stroke-linecap:square;stroke-miterlimit:8;paint-order:markers fill stroke"
       d="m 285.23038,51.083479 -25.12604,61.588661 c -4.30814,10.56006 6.59409,5.91669 10.1826,-0.61514 0,0 9.00297,-14.756647 18.78968,-25.833089 9.78669,-11.076446 24.19442,-17.293535 27.82312,-18.782018 3.62871,-1.488483 50.31444,-5.712951 47.08918,-0.0097 L 260.33877,250.71993 c -1.6057,2.83939 -4.48429,6.6206 2.67677,6.15493 l 128.60823,-8.363 22.2245,-62.91131 c 3.6752,-10.40344 -4.25879,-14.8156 -10.0061,-0.58287 0,0 -15.17259,31.12613 -36.48077,44.20058 -11.31495,6.94272 -48.70297,12.32873 -45.67225,6.85423 L 422.65803,55.068729 c 2.36704,-4.243316 0.81148,-6.523803 -6.12498,-6.396426 z"
       id="path871"
       sodipodi:nodetypes="csszzssscssssssc" />
    <path
       style="opacity:1;fill:#000000;fill-opacity:1;fill-rule:evenodd;stroke:none;stroke-width:12.0058;stroke-linecap:square;stroke-miterlimit:8;paint-order:markers fill stroke"
       d="m 618.65521,25.675036 -66.8438,164.564144 c -4.99337,12.29325 -17.87889,12.66417 -17.87889,12.66417 -9.46104,0.61062 -14.56704,11.11895 -3.2742,11.43936 l 49.02374,1.39098 c 7.33165,0.20802 10.63755,-4.8772 0.99477,-8.3954 -9.64279,-3.51822 -12.49675,-9.41833 -11.6809,-11.46668 l 8.79319,-22.07687 40.2601,4.67307 10.96129,59.46831 c 1.61569,8.76557 -8.01517,9.78193 -17.49524,11.9093 -9.48006,2.12736 -13.52816,11.79271 2.56556,11.46774 l 77.70278,-1.56902 c 13.19677,-0.26647 5.72296,-7.87903 -2.08224,-8.46066 -7.8052,-0.58164 -15.72462,-9.27946 -16.37612,-12.43618 L 629.8321,28.108984 C 625.29802,6.1399286 624.22278,11.968108 618.65521,25.675036 Z m -14.177,83.073244 c 2.1513,0.0874 12.48228,51.87416 10.66655,54.42932 -1.2085,1.70065 -7.55584,0.64269 -14.86782,-0.0831 -7.0199,-0.69676 -15.59812,-1.4213 -16.21278,-2.74044 -1.26392,-2.71253 18.67261,-51.67656 20.41405,-51.60583 z"
       id="path875"
       sodipodi:nodetypes="ssssszsccszsszssssssss" />
    <path
       style="opacity:1;fill:#000000;fill-opacity:1;fill-rule:evenodd;stroke:none;stroke-width:12.0058;stroke-linecap:square;stroke-miterlimit:8;paint-order:markers fill stroke"
       d="m 334.29839,316.46155 -61.63515,0.9273 c -7.56677,0.11385 -7.62269,7.3719 1.70388,7.59358 2.70588,0.0643 6.16814,3.00235 6.27821,6.65229 l 4.39087,145.59133 c 0.50639,16.79079 1.45975,68.44636 54.06325,69.29095 46.2419,0.74245 53.06454,-42.4555 53.20461,-50.43679 l 2.08397,-118.74744 c 0.15611,-8.89526 13.10872,-11.28285 17.7895,-12.49728 7.58994,-1.96921 10.47794,-10.2801 3.26925,-10.18205 l -52.59609,0.71535 c -11.59274,0.15766 -4.48221,8.01347 1.14873,8.73184 9.45393,1.20611 14.93992,7.94199 14.93518,13.38913 l -0.10325,118.49002 c -0.009,9.34873 -7.01778,29.01549 -29.32506,28.06214 -22.30727,-0.95334 -25.45543,-21.66416 -25.51424,-26.37532 l -2.01359,-161.28557 c -0.0632,-5.06925 6.68783,-9.25232 12.46125,-11.30005 6.10246,-2.16443 13.59791,-8.82615 -0.14132,-8.61943 z"
       id="path879"
       sodipodi:nodetypes="sssssssssssssszssss" />
    <path
       style="opacity:1;fill:#000000;fill-opacity:1;fill-rule:evenodd;stroke:none;stroke-width:12.0058;stroke-linecap:square;stroke-miterlimit:8;paint-order:markers fill stroke"
       d="m 186.29169,301.89673 -81.22856,1.4721 c -9.107253,0.16504 -5.973285,6.45096 1.79476,7.26059 7.76805,0.80963 16.30778,7.56412 16.37385,12.21905 l 2.55014,179.70637 c 0.0764,5.38268 -5.03685,6.33131 -10.96645,9.24441 -5.92959,2.91309 -10.16759,11.33517 3.07003,10.96452 l 69.1552,-1.93635 c 10.40043,-0.29121 11.93844,-9.01839 -1.44156,-9.91864 -5.46407,-0.36763 -9.14351,-6.22392 -9.25238,-9.91712 l -2.14943,-68.05021 39.09175,2.55336 -14.44844,120.04913 c -0.96616,8.02763 -13.29412,6.14198 -13.29412,6.14198 -12.29688,-0.78048 -14.01705,10.54503 -2.39309,11.74713 l 68.41171,7.07489 c 15.90353,1.64469 13.30196,-7.08111 5.32263,-9.57717 -7.97936,-2.49604 -15.20116,-4.56745 -14.29172,-14.60986 L 260.9136,354.04908 c 0.81939,-9.04801 5.23091,-8.17296 8.3832,-8.53362 3.15229,-0.36067 12.3751,-4.97243 0.0581,-6.92447 l -55.08553,-8.73013 c -8.13794,-1.28972 -13.75553,2.13606 -3.88594,6.67247 7.08001,3.25422 14.36752,4.13479 13.16211,14.08713 l -8.46377,69.88076 -41.7554,-3.96977 -3.17545,-93.8978 c -0.20975,-6.20225 9.08439,-12.53018 16.52143,-13.38373 7.43703,-0.85353 12.98729,-7.59545 -0.38064,-7.35319 z"
       id="path881"
       sodipodi:nodetypes="sszsszssssccsssszsszssssccszs" />
    <path
       style="opacity:1;fill:#000000;fill-opacity:1;fill-rule:evenodd;stroke:none;stroke-width:12.0058;stroke-linecap:square;stroke-miterlimit:8;paint-order:markers fill stroke"
       d="m 194.78348,71.46618 -1.5573,190.74432 c -0.0532,6.52401 -4.54192,12.05036 -15.7918,14.26895 -11.2499,2.2186 -15.52042,13.66837 -2.27709,13.43593 l 78.8774,-1.38438 c 12.32521,-0.21632 9.93794,-11.2195 -0.59866,-11.55509 -10.53659,-0.33558 -16.09873,-8.34119 -16.09837,-12.35851 l 0.018,-190.554409 c 5.9e-4,-6.247621 13.79125,-12.632322 18.26841,-13.897775 4.47717,-1.265453 13.78477,-10.274442 -1.52244,-10.838596 l -73.57242,-2.711538 c -15.68438,-0.578054 -8.95152,11.812659 -0.45405,12.615299 8.49746,0.802642 14.73281,9.247581 14.70841,12.235799 z"
       id="path883"
       sodipodi:nodetypes="sszsszsszsszs" />
    <path
       style="opacity:1;fill:#000000;fill-opacity:1;fill-rule:evenodd;stroke:none;stroke-width:12.4235;stroke-linecap:square;stroke-miterlimit:8;paint-order:markers fill stroke"
       d="m 427.46969,71.61945 -23.52087,55.41064 c -4.72818,11.13872 5.55905,10.37078 9.29503,3.45407 0,0 6.1285,-8.91567 16.16442,-20.56632 10.03592,-11.650675 24.58153,-18.001079 28.24321,-19.517688 3.66168,-1.516597 48.96296,-5.708345 45.52448,0.280946 L 393.97564,280.89141 c -1.71193,2.98194 -4.63952,6.8327 2.53645,6.64605 l 130.74742,-6.22699 20.82143,-46.81465 c 4.76713,-10.71838 -3.92153,-15.9514 -9.99061,-0.83611 0,0 -9.79963,12.22936 -31.39978,25.77479 -11.47,7.19281 -56.52025,10.29996 -53.5893,5.38066 L 566.56358,74.379361 c 2.62236,-4.401378 0.95592,-7.197371 -5.9784,-6.977658 z"
       id="path871-4"
       sodipodi:nodetypes="csszzssscssssssc" />
    <path
       style="opacity:1;fill:#000000;fill-opacity:1;fill-rule:evenodd;stroke:none;stroke-width:11.627;stroke-linecap:square;stroke-miterlimit:8;paint-order:markers fill stroke"
       d="m 460.42637,319.22323 -3.67298,183.83081 c -0.13033,6.52291 -0.44464,9.50688 -10.99591,11.72547 -10.55128,2.2186 -12.95662,13.73003 -0.53701,13.43593 l 70.82313,-1.67704 c 14.09276,-0.3337 9.39437,-10.29097 -0.48788,-10.62656 -9.88228,-0.33558 -14.6674,-8.12975 -14.6041,-12.14656 l 2.91858,-185.21447 c 0,0 20.18154,-6.32884 33.27584,5.1169 15.95254,13.94412 16.91391,31.49498 23.4111,31.05095 6.4972,-0.44402 -2.92331,-55.43388 -5.8742,-55.37669 l -143.89221,2.78872 c -2.9265,0.0567 -18.95123,45.34144 -13.50218,46.29898 5.44906,0.95755 17.98708,-23.53463 30.2171,-27.44847 12.23001,-3.91385 32.92072,-1.75797 32.92072,-1.75797 z"
       id="path883-6"
       sodipodi:nodetypes="sszsszscszsszzs" />
  </g>
</svg>
