<svg version="1.1" xmlns="http://www.w3.org/2000/svg" xmlns:xlink="http://www.w3.org/1999/xlink" width="491.89999" height="394.96457" viewBox="0,0,491.89999,394.96457"><g transform="translate(5.95,17.48228)"><g data-paper-data="{&quot;isPaintingLayer&quot;:true}" stroke="none" stroke-width="2.03349" stroke-linecap="butt" stroke-linejoin="miter" stroke-miterlimit="10" stroke-dasharray="" stroke-dashoffset="0" style="mix-blend-mode: normal"><path d="M178.32265,112.17208c11.77388,0 18.69059,6.56689 18.69059,14.96518c0,8.3983 -6.91671,14.9493 -18.68042,14.90759c-11.76371,-0.04171 -18.67692,-6.64974 -18.67692,-14.98703c0,-8.33729 6.89288,-14.88575 18.66675,-14.88574zM120.61458,123.5588c29.85155,0 37.13095,24.40437 37.13095,41.75c0,30.50227 -21.47312,45.42772 -39.16444,45.42772c-9.49637,0 -19.37768,-5.10064 -19.37768,-10.16742c0,-0.90594 0.69792,-1.66408 1.52512,-2.03349c2.9919,-1.33611 19.25429,-6.50716 18.94874,-32.53576c-0.24349,-20.74155 -7.52215,-30.26 -14.98504,-30.26c-6.10045,0 -8.28194,3.25618 -8.31664,12.77283l-0.32567,89.40979c-0.01837,5.04301 6.17885,10.83755 6.10045,13.48375c-0.05313,1.79242 -1.43972,3.25278 -3.23292,3.25278h-44.47454c-1.69093,0 -3.03339,-1.39901 -3.02639,-3.08994c0.01463,-3.31455 5.99719,-4.45475 5.99719,-14.68318v-96.85268c0,-6.89351 -5.18698,-8.86838 -5.18698,-12.10162c0,-2.60286 1.32145,-4.37279 3.7413,-4.37279zM396.71982,144.07635c18.85036,0 35.11712,6.89526 35.11712,21.61769v39.91887c0,16.99994 8.56299,9.41372 8.56299,14.29408c0,3.23324 -4.67695,11.48531 -18.48406,11.56941c-6.46142,0.03937 -12.64644,-2.56367 -16.99867,-7.33962c-0.71955,-0.78961 -1.94345,-0.86158 -2.76824,-0.18261c-6.13404,5.04956 -13.85138,7.71355 -21.79642,7.68515c-17.20317,-0.0615 -28.75474,-10.94031 -28.75474,-24.05629c0,-14.07171 6.8711,-23.00735 26.43531,-27.47191c13.31724,-3.039 23.69884,-5.08397 23.62734,-14.74276c-0.03898,-5.269 -4.38998,-9.51008 -9.65905,-9.53593c-3.47722,-0.01706 -8.10606,1.99886 -10.16743,8.90445c-1.19225,3.99405 -5.55143,9.76456 -12.20091,9.78216c-6.11968,0.0162 -11.05469,-4.94136 -11.04119,-11.06104c0.03118,-14.11235 19.2776,-19.38165 38.12795,-19.38165zM354.08009,145.58159c3.04343,0 5.50921,2.4692 5.50869,5.51264c-0.00048,2.76554 -7.39814,13.05447 -8.53905,14.82221l-35.16103,54.47912c23.62909,0 30.50276,15.96206 49.29216,15.96206c8.37796,0 8.5444,-2.23878 12.79268,-2.35917c1.74753,-0.04952 3.20493,1.22264 3.18923,2.9708c-0.0305,3.39578 -12.20028,17.932 -29.34256,17.932c-20.33484,0 -30.50126,-24.47612 -55.7977,-24.40182l-14.88574,0.0437c-3.78259,0.0111 -6.01994,-4.20145 -3.94386,-7.36343l41.60304,-63.36369c0.54152,-0.82477 -0.07,-1.92909 -1.05645,-1.91038c-10.26927,0.19481 -14.45959,1.70517 -17.97571,4.43237c-6.99699,5.42707 -8.3773,16.65312 -13.07465,16.65312c-2.64353,0 -3.64201,-1.70622 -3.64201,-4.65477v-22.87671c0,-3.82295 1.03754,-5.87803 4.55549,-5.87803zM298.50283,234.01844c1.68374,0 3.11176,1.24064 3.11176,2.99063c0,3.35388 -12.28208,17.93596 -29.32269,17.93596c-20.29418,0 -30.56169,-24.40182 -55.81757,-24.40182h-14.88574c-0.63754,0 -1.26542,-0.15649 -1.8508,-0.40907c-0.46557,0.24538 -0.97898,0.40907 -1.50525,0.40907h-37.07139c0,0 -3.1098,-1.06009 -3.1098,-3.78496c0,-5.47008 6.10046,-3.90382 6.10046,-13.74589v-51.07939c0,-8.5203 -5.32996,-10.23018 -5.32996,-13.48376c0,-2.44018 1.72839,-2.76434 3.63009,-2.76434l28.46085,0c3.29424,0 4.67463,2.05254 4.67463,6.32286v62.26748c0,3.01596 0.72051,5.98622 2.58554,8.35637l41.23769,-62.81561c0.54147,-0.8248 -0.06996,-1.92734 -1.05647,-1.91038c-10.24887,0.17622 -14.45493,1.71172 -17.95582,4.43237c-6.9919,5.43362 -8.40116,16.65312 -13.09851,16.65312c-2.62319,0 -3.63802,-1.70622 -3.63802,-4.65477v-22.79711c0,-3.84329 1.03754,-5.87407 4.55547,-5.87407h66.49337c3.03571,0 5.49227,2.47298 5.49279,5.50869c0.00048,2.76554 -7.3811,13.05916 -8.52315,14.82616l-35.15706,54.39572c23.62909,0 30.56376,15.96206 49.29216,15.96206c8.35762,0 8.51883,-2.33932 12.68742,-2.33932zM399.34498,186.29507c-1.68832,0.52701 -15.92235,7.50134 -15.92235,18.5635c0,5.51358 4.14268,10.09701 9.64911,10.09701c5.50646,0 9.64913,-4.59055 9.64913,-10.09701v-18.5635c0,-0.49566 -0.13729,-0.72852 -0.4329,-0.78242c-0.49267,-0.08979 -1.43111,0.31048 -2.94299,0.78242zM157.3603,244.00307c0.87211,0 5.02017,-0.06071 5.02017,4.37279c0,2.92724 -5.183,5.93778 -5.183,12.20091v38.00471c3.68099,-1.01279 7.44682,-1.82265 11.2636,-1.91035c4.48207,-0.10299 8.86264,1.3535 12.66956,3.72142v-38.25095c0,-10.2081 -5.97733,-11.43125 -5.97733,-14.65937c0,-1.74508 1.28531,-3.37589 3.03037,-3.37589h44.47056c0.76479,0 3.21307,-0.218 3.21307,3.53873c0,2.64353 -6.09746,8.41688 -6.10046,13.45992l-0.0596,97.78998c-0.00387,6.34447 5.14746,9.39474 5.16316,12.20091c0.02455,4.37679 -4.02531,4.37279 -5.02415,4.37279h-39.71252c-2.50119,0 -4.24967,-1.22154 -4.24967,-3.49904c0,-4.0263 5.16712,-4.02455 5.16712,-12.95155v-39.22798c0,-3.86817 -3.03153,-9.87269 -12.66957,-9.75835c-3.82287,0.04535 -7.60482,0.79473 -11.26757,1.89051v45.40786c0,10.2081 6.08336,11.36867 6.10046,14.68321c0.00897,1.73963 -1.2907,3.35208 -3.03037,3.35208h-44.53014c-0.23202,0 -3.21307,0.30803 -3.21307,-3.51492c0,-2.64353 6.10046,-8.44071 6.10046,-13.48376v-33.14739c-11.1435,3.78229 -22.06363,6.7518 -30.82795,6.7518c-31.13266,0 -30.76838,-35.48272 -24.15955,-35.48272c3.27391,0 9.59686,12.77338 35.8084,12.70928c6.43042,-0.01573 12.84329,-0.67217 19.1791,-1.77135v-46.95284c0,-8.90666 -5.16712,-8.90445 -5.16712,-12.97142c0,-2.2775 1.748,-3.49902 4.26952,-3.49902zM352.49143,272.14618v18.30136h11.87524c2.54184,0 3.74129,2.90947 3.74129,5.69535c0,2.78587 -1.19943,5.30613 -3.74129,5.30613h-11.87524v50.20563c0,3.72127 1.83062,7.16087 5.57223,7.16087c3.05023,0 2.84688,-1.03659 5.08372,-1.03659c2.80621,0 2.95482,3.88444 0.38524,8.2928c-4.07992,6.9995 -10.24527,11.208 -20.81939,11.208c-13.64468,0 -20.96635,-9.56071 -20.96635,-24.26281v-51.18265c-9.27269,-0.06101 -8.32888,-6.85415 -4.75802,-9.53593l29.23927,-21.95926c1.03055,-0.77396 2.16019,-1.27578 3.18131,-1.37418c1.70184,-0.16403 3.08199,0.75381 3.08199,3.18128zM249.4152,290.40783c4.57534,0 11.47011,-0.12201 11.47011,6.10046v52.19939c0,4.71768 2.03349,11.24375 8.13394,11.24375c6.10046,0 11.54957,-3.59657 11.54957,-10.9578v-40.01833c0,-11.69254 -4.84145,-10.92315 -4.84145,-15.11213c0,-1.78308 1.34641,-3.43549 3.1932,-3.43549h24.40182c6.28347,0 8.27694,1.72846 8.27694,4.06697v64.38045c0,8.43897 5.36966,10.04463 5.36966,13.92858c0,1.30642 -1.13537,2.56173 -2.52199,2.56173h-24.8109c-7.42224,0 -6.26329,-7.35949 -6.26329,-7.35949c0,0 -9.35228,9.47636 -26.67757,9.47636c-21.02624,0 -27.30908,-14.33732 -27.30908,-21.63754v-50.06267c0,-8.60162 -4.06697,-8.706 -4.06697,-11.9189c0,-1.91952 1.62396,-3.45534 3.5586,-3.45534z" fill="#000000" fill-rule="nonzero"/><path d="M337.46493,-17.48228l24.1578,59.64211l124.32727,53.74501v6.3038h-491.89999v-6.3038l124.32727,-53.74501l24.13746,-59.64211z" fill="#ed1c24" fill-rule="evenodd"/></g></g></svg>