<?xml version="1.0" encoding="UTF-8" standalone="no"?>
<!-- Created with Inkscape (http://www.inkscape.org/) -->

<svg
   xmlns:dc="http://purl.org/dc/elements/1.1/"
   xmlns:cc="http://creativecommons.org/ns#"
   xmlns:rdf="http://www.w3.org/1999/02/22-rdf-syntax-ns#"
   xmlns:svg="http://www.w3.org/2000/svg"
   xmlns="http://www.w3.org/2000/svg"
   xmlns:sodipodi="http://sodipodi.sourceforge.net/DTD/sodipodi-0.dtd"
   xmlns:inkscape="http://www.inkscape.org/namespaces/inkscape"
   width="1000"
   height="1022.955"
   id="svg2"
   version="1.1"
   inkscape:version="0.91 r13725"
   sodipodi:docname="Pizza_Hut.svg">
  <metadata
     id="metadata23">
    <rdf:RDF>
      <cc:Work
         rdf:about="">
        <dc:format>image/svg+xml</dc:format>
        <dc:type
           rdf:resource="http://purl.org/dc/dcmitype/StillImage" />
        <dc:title></dc:title>
      </cc:Work>
    </rdf:RDF>
  </metadata>
  <defs
     id="defs21" />
  <sodipodi:namedview
     pagecolor="#ffffff"
     bordercolor="#666666"
     borderopacity="1"
     objecttolerance="10"
     gridtolerance="10"
     guidetolerance="10"
     inkscape:pageopacity="0"
     inkscape:pageshadow="2"
     inkscape:window-width="1366"
     inkscape:window-height="705"
     id="namedview19"
     showgrid="false"
     inkscape:zoom="0.58852868"
     inkscape:cx="587.49083"
     inkscape:cy="570.19746"
     inkscape:window-x="-8"
     inkscape:window-y="-8"
     inkscape:window-maximized="1"
     inkscape:current-layer="layer1" />
  <g
     inkscape:label="Layer 1"
     inkscape:groupmode="layer"
     id="layer1"
     transform="translate(-127.79516,412.05563)">
    <path
       id="path4002"
       d="m 277.66348,86.497965 c 0,0 -78.97867,89.613775 -116.63739,279.999465 0,0 -6.27646,47.07339 11.68117,49.16553 17.78329,2.09217 28.59273,-24.75709 34.86918,-41.14561 2.61518,-6.97383 118.72954,-275.466477 97.6337,-290.111527 0,0 72.52788,-4.009975 80.37344,45.329927 8.0199,49.16553 -68.34359,87.34726 -90.65987,91.88027 -22.49061,4.35865 -21.96757,13.42462 -20.5728,14.64506 1.39477,1.2204 6.27645,7.67122 35.21788,3.31257 28.9414,-4.53301 95.54153,-24.58278 124.48293,-86.12686 0,0 27.89536,-58.231529 -24.05972,-100.946273 C 357.86259,9.6114358 281.49909,31.230313 252.90637,49.885338 c -28.76707,18.655 -18.48067,39.053469 -15.69113,41.84301 2.96388,2.963877 9.58903,6.625127 40.44824,-5.230383"
       style="fill:#000000;fill-rule:nonzero;stroke:none"
       inkscape:connector-curvature="0" />
    <path
       id="path4006"
       d="m 526.87348,33.305032 c 0,0 0.87173,-10.635101 8.54296,-11.681173 7.84556,-1.046071 13.25028,1.046072 14.81939,23.711046 1.74346,22.839311 -9.41467,55.965025 -27.54666,87.870305 -8.19424,14.64505 -23.71102,50.56031 -23.36235,54.22158 0,0 5.40472,14.99375 -12.02985,14.81939 -17.43459,-0.17424 -28.24403,-27.89533 -25.45451,-49.86291 2.78954,-21.96758 9.24033,-45.67862 65.03102,-119.078238"
       style="fill:#000000;fill-rule:nonzero;stroke:none"
       inkscape:connector-curvature="0" />
    <path
       id="path4010"
       d="m 674.78853,46.293808 c 0,0 -46.89903,9.763367 -72.52788,7.148188 0,0 -38.87914,-5.056045 -28.24403,-27.372321 0,0 4.53298,-9.240331 15.34242,-8.542933 10.80946,0.697372 24.58278,2.440842 43.58648,-0.697398 19.0037,-2.963878 75.84046,-4.532985 83.33732,-3.66125 7.49689,0.871735 18.48066,8.542933 13.59898,24.234081 -5.05602,15.691122 -44.45819,58.928902 -44.45819,58.928902 l -62.76451,59.451943 c 0,0 41.843,-8.3686 91.70591,0.17423 49.86294,8.54296 76.53786,10.80946 88.39337,9.41469 11.68117,-1.39477 32.07964,-5.75341 37.48436,-8.01992 5.40472,-2.26648 10.11207,-0.52304 12.02987,2.78954 2.09215,3.31258 1.22041,8.19426 -6.97385,13.25028 -8.19423,5.05605 -36.61263,23.53671 -90.13681,21.6189 -53.52418,-1.9178 -84.73209,-1.56913 -84.73209,-1.56913 0,0 -60.14934,-0.87171 -93.10069,8.7173 0,0 -25.97755,13.77334 -37.13569,1.04607 -11.15813,-12.72725 -2.61517,-29.2901 3.13824,-38.53043 8.3686,-13.25028 51.25768,-52.82679 131.45679,-118.380844"
       style="fill:#000000;fill-rule:nonzero;stroke:none"
       inkscape:connector-curvature="0" />
    <path
       id="path4014"
       d="m 743.58539,2.4806961 c 0,0 -4.88168,-12.3785457 2.61518,-19.3523981 2.09217,-2.092142 6.79949,-4.358647 10.28643,-4.532984 3.48691,0 5.92775,1.39477 11.15811,2.092143 4.70734,0.871734 91.35724,-11.681174 91.35724,-11.681174 0,0 26.84926,-4.184285 41.49431,10.983801 12.37857,13.0759439 -10.11204,37.135663 -10.11204,37.135663 0,0 -74.96872,76.886529 -77.58393,77.758264 0,0 21.09587,2.266505 27.02363,2.963878 5.92775,0.697372 39.9252,6.450791 51.60637,4.707351 11.68118,-1.74347 14.29635,-2.09217 15.69113,-2.44085 1.5691,-0.523032 8.89163,-2.6152 10.80943,3.48692 2.09217,6.27645 -5.40472,15.51678 -26.32622,24.75711 -21.09584,9.24034 -51.95508,10.11204 -65.03099,9.58901 -12.90161,-0.87171 -49.3399,-2.44084 -62.59018,-1.39475 -13.42464,1.04608 -27.54666,4.70733 -29.11577,4.70733 -1.9178,0.17449 -15.34242,-0.69738 -7.67122,-21.61888 C 734.86809,98.719623 756.487,83.202838 756.487,83.202838 l 86.47553,-70.610076 c 0,0 -73.39962,9.240332 -85.42946,4.184286 -5.57908,-2.26648 -12.37857,-8.3685969 -13.94768,-14.2963519"
       style="fill:#000000;fill-rule:nonzero;stroke:none"
       inkscape:connector-curvature="0" />
    <path
       id="path4018"
       d="m 342.06685,374.56965 c 18.13196,-3.31258 48.81683,-7.14819 48.81683,-7.14819 0,0 62.41585,-142.44056 88.39337,-143.3123 25.97753,-0.87173 -25.45449,130.06202 -25.45449,130.06202 l 76.3635,-16.21416 c 0,0 17.78326,-62.24148 34.69482,-90.48551 16.73719,-28.24403 22.31627,-29.2901 25.10581,-29.2901 2.78952,0 13.94765,0.52303 11.85551,13.59898 -2.09214,13.07591 -15.51678,90.83418 -15.51678,90.83418 l 21.09584,-7.84556 c 0,0 4.88168,-2.44084 7.67122,2.09214 2.78954,4.70735 -4.88168,10.6351 -4.88168,10.6351 l -29.81314,19.3524 c 0,0 -20.5728,89.61377 -28.59273,101.64365 -8.0199,12.02987 -17.78329,19.0037 -27.37229,18.30632 -9.4147,-0.69739 -18.82937,-10.11206 -17.95763,-31.9053 0.69737,-21.79324 9.58903,-52.82681 10.11207,-55.26765 0,0 -69.38967,27.72099 -80.02477,28.76709 0,0 -23.18799,93.27502 -30.16184,105.30489 -6.79949,12.02988 -21.44454,19.87544 -33.12571,18.48067 -15.86546,-1.91781 -18.13197,-23.88539 -18.3063,-36.96133 -0.17449,-13.07594 9.9377,-55.79069 17.9576,-80.37344 0,0 -35.7409,-3.83561 -41.84301,-12.37857 0,0 -5.23036,-6.1021 -3.83559,-15.86546 1.56911,-9.93773 14.81939,-12.02987 14.81939,-12.02987"
       style="fill:#000000;fill-rule:nonzero;stroke:none"
       inkscape:connector-curvature="0" />
    <path
       id="path4022"
       d="m 791.40847,425.26941 c 0,0 104.25883,-32.07964 167.19771,-39.22783 62.93882,-7.32252 91.70592,-9.24033 91.70592,-9.24033 0,0 6.2764,-1.39474 7.6712,5.57908 1.2204,6.45079 -8.5429,7.84556 -8.5429,7.84556 -192.47787,57.7085 -328.2933,115.76567 -344.33312,122.56516 -15.16811,6.10209 -210.78418,92.05461 -210.78418,92.05461 0,0 -24.05972,8.7173 -43.58646,5.23038 -19.70109,-3.48691 -23.53668,-12.5529 -25.10581,-21.44454 0,0 -5.75342,-20.04977 22.66497,-29.6388 26.15189,-8.89163 96.23893,-40.2739 96.23893,-40.2739 l 184.28357,-73.05092 62.59017,-20.39847 z"
       style="fill:#fcc607;fill-rule:nonzero;stroke:none"
       inkscape:connector-curvature="0" />
    <path
       id="path4026"
       d="m 1037.3931,27.813145 c -1.5691,4.184311 -2.0922,10.460739 -2.0922,10.460739 0,0 -24.5828,14.122041 -35.7409,18.480663 -11.50681,4.533011 -25.62882,3.661276 -25.62882,3.661276 14.12201,-47.945127 74.27132,-57.3597953 74.27132,-57.3597953 0,0 -9.2403,20.7471683 -10.8094,24.7571173 m 89.7881,30.161836 c -0.8717,-3.486913 -19.8754,-5.753418 -26.8493,-6.450791 -6.9738,-0.523035 -13.0759,-4.009974 -16.0398,-12.029872 -2.7895,-7.671224 7.3225,-31.9053056 11.8555,-48.9911982 4.7074,-17.0858928 -4.7073,-23.1879848 -10.112,-23.7110198 -5.2304,-0.523036 -11.8555,4.358648 -11.8555,4.358648 -69.9128,-14.645077 -149.06579,59.277575 -153.59877,92.054616 -3.31258,23.885382 3.48691,40.796936 23.36235,44.981226 19.70107,4.18431 37.6587,-2.96388 53.17548,-9.065972 15.34244,-5.753418 46.02734,-29.464464 46.02734,-29.464464 2.9639,7.496863 19.5267,14.99375 34.6948,15.516786 15.1681,0.697372 41.4943,-11.506837 46.0273,-14.645051 4.533,-2.963877 4.3587,-9.065995 3.3126,-12.552908"
       style="fill:#000000;fill-rule:nonzero;stroke:none"
       inkscape:connector-curvature="0" />
    <path
       id="path4030"
       d="m 592.89827,-100.66234 c 0,0 8.0199,-4.00995 11.33248,-0.52303 3.31257,3.486909 1.39477,8.717292 -1.22041,13.424639 -2.6152,4.707321 -39.40217,61.544081 -51.78074,72.527881 -7.84556,6.7994902 -19.0037,8.0198983 -27.72099,2.789516 -8.89164,-5.056021 -7.6712,-22.141913 -4.53299,-29.290102 3.13824,-7.148189 13.59898,-27.197959 35.21786,-40.622576 21.44456,-13.250306 38.70479,-18.306328 38.70479,-18.306328"
       style="fill:#009867;fill-rule:nonzero;stroke:none"
       inkscape:connector-curvature="0" />
    <path
       id="path4034"
       d="m 1071.6346,-175.78797 -15.5168,-10.80944 c -43.9351,-34.34615 -222.11662,-104.95623 -222.11662,-104.95623 0,0 -12.55291,-28.24403 -19.7011,-42.01734 -20.04977,-38.7048 -50.2116,-69.21533 -51.60638,-70.2614 -1.5691,-0.87171 -2.96387,-0.87171 -2.96387,-0.87171 l -1.39477,0.34867 -52.30375,13.94768 -119.94998,34.69482 c 0,0 -82.29124,25.80319 -86.12686,27.19796 -3.83561,1.5691 -6.62512,4.18431 -6.62512,4.18431 0,0 -28.0697,48.2938 -30.3362,53.87286 -2.44084,5.57908 -34.69482,67.99489 -34.69482,67.99489 l -80.19911,37.83306 c -7.32252,4.00995 -7.32252,3.66125 -62.76451,37.13567 l -67.12317,46.899051 c 0,0 -63.63624,48.119464 -68.8666,53.001147 -5.23038,4.707322 -11.15814,14.993724 -5.57908,23.8853825 5.40472,8.8916325 19.17806,7.3225254 19.17806,7.3225254 l 64.33362,-16.9115559 129.19028,-32.777015 153.77306,-32.079642 21.09586,-3.661276 c 4.53299,-4.184285 9.76337,-8.368597 15.69113,-12.029872 20.5728,-12.727245 37.48436,-18.306305 41.31997,-19.526735 8.0199,-3.66125 18.48066,-4.53298 25.62883,2.78954 2.9639,2.96388 5.57908,7.67123 5.40474,14.122016 l 8.71727,-1.569107 0.3487,0 164.40816,-21.270199 c 0,0 104.95622,-10.63511 140.17408,-11.68118 85.08078,-2.61518 126.05208,-15.34242 126.05208,-15.34242 3.4869,-1.56913 14.9937,-5.57908 17.2602,-14.99375 2.2665,-9.41469 -4.7073,-14.47071 -4.7073,-14.47071"
       style="fill:#ee1c23;fill-rule:nonzero;stroke:none"
       inkscape:connector-curvature="0" />
    <path
       id="path4038"
       d="m 846.67613,275.38429 c 0,0 -44.80689,0.17423 -45.85296,-16.56286 -1.04607,-16.73719 17.95763,-20.39847 26.50056,-16.03982 0,0 4.88168,1.04607 9.58903,0.3487 4.70735,-0.6974 28.06969,-4.88168 28.06969,-4.88168 0,0 35.21786,-57.0111 41.66865,-62.93888 0,0 6.97385,-9.41467 18.13199,-1.91781 11.15811,7.67123 3.13821,25.28016 3.13821,25.28016 l -14.64505,29.6388 105.47925,-19.70107 c 0,0 6.4508,-1.56911 7.6712,3.66125 1.0461,4.35864 -10.112,9.24033 -10.112,9.24033 0,0 -108.61753,43.58648 -120.12434,45.50428 l -29.9875,81.07082 -24.58275,72.87658 c 0,0 -2.96388,5.92775 -9.066,5.57908 -6.10212,-0.17449 -9.06599,-10.80946 -9.24033,-13.42464 -0.3487,-2.61518 -2.61518,-40.97128 1.91781,-66.77447 4.53298,-25.80318 21.44454,-70.43574 21.44454,-70.43574"
       style="fill:#000000;fill-rule:nonzero;stroke:none"
       inkscape:connector-curvature="0" />
    <path
       id="path4042"
       d="m 631.1323,306.27837 c 0,0 -3.48691,-8.0199 -10.80943,-11.68117 -7.32253,-3.83562 -8.54296,-7.49686 -5.05605,-11.33248 3.13824,-3.66127 17.78329,-7.67122 32.42834,-4.70734 14.81939,2.78954 24.93145,20.5728 26.15189,32.77701 1.22041,12.20421 -0.3487,32.25401 -8.54296,53.34985 0,0 65.20536,-40.62258 78.45564,-62.76452 0,0 16.21418,-33.12571 23.71104,-39.05347 0,0 15.16809,-11.50683 21.6189,5.75342 0,0 0.52304,13.59898 -4.35864,40.97128 -4.88169,27.37229 -5.23039,80.37344 -4.35865,81.94255 0.87171,1.74347 7.14816,10.46076 -2.78954,16.21418 0,0 -6.97383,2.26648 -16.91156,-5.75342 -9.9377,-8.01992 -27.19796,-23.01367 -26.32622,-53.17551 0,0 -31.20791,44.98125 -57.53413,56.83676 -26.32623,11.85554 -37.65873,13.07595 -54.22159,0.6974 -16.56285,-12.20421 -5.05602,-50.03727 -5.05602,-50.03727 0,0 13.07595,-39.40217 13.25028,-40.2739 0.17449,-1.04607 1.91781,-6.45079 0.3487,-9.76337"
       style="fill:#000000;fill-rule:nonzero;stroke:none"
       inkscape:connector-curvature="0" />
    <path
       id="path4046"
       d="m 429.01315,-218.24119 c -0.17424,0.69737 -1.56911,0.87174 -2.78954,0.3487 -1.39477,-0.52304 -2.96388,-2.09217 -1.56911,-5.75342 1.22043,-3.83561 31.90531,-66.94882 51.95508,-100.77191 0,0 1.9178,-5.75342 9.76336,-8.19426 7.67123,-2.44084 203.63597,-58.5802 203.63597,-58.5802 l 50.73467,-13.07595 c 0,0 9.589,-1.56913 13.07594,8.3686 3.31255,9.9377 -6.27645,14.12202 -8.36862,14.81939 -1.91781,0.87173 -119.77561,37.83306 -119.77561,37.83306 l -132.50286,31.20791 c 0,0 -63.81058,93.27505 -64.15928,93.79808"
       style="fill:#000000;fill-rule:nonzero;stroke:none"
       inkscape:connector-curvature="0" />
    <path
       id="path4050"
       d="m 785.98631,-409.48119 c 0,0 -0.69738,-1.74347 0.87173,-2.44084 1.56911,-0.69737 2.78954,1.56911 2.78954,1.56911 0,0 13.42462,24.58278 15.16809,29.9875 1.74344,5.40472 30.51051,84.90643 30.51051,84.90643 0,0 97.6337,28.41839 102.68972,29.81316 5.23038,1.39474 111.0583,38.53043 164.9312,66.42576 0,0 5.056,2.44085 5.5791,2.78954 0.523,0.3487 6.2764,5.92776 3.4869,12.90159 -2.6152,6.79949 -9.589,8.01992 -11.8555,7.84556 -2.2665,-0.17424 -14.4707,-4.88169 -14.4707,-4.88169 0,0 -194.047,-69.73834 -244.43294,-81.76821 0,0 -25.28015,-8.3686 -28.94143,-16.38849 -3.48691,-8.01993 -9.9377,-50.38597 -9.9377,-50.38597 l -16.38852,-80.37345 z"
       style="fill:#000000;fill-rule:nonzero;stroke:none"
       inkscape:connector-curvature="0" />
    <path
       id="path4054"
       d="m 1017.3084,-166.94864 c -3.6613,-19.0037 -35.74087,-20.04977 -40.44822,-19.52673 -4.70735,0.3487 -324.80637,42.54038 -346.07655,46.02729 -115.76566,19.00373 -314.51997,68.866634 -314.51997,68.866634 l -121.86775,35.915255 c 2.26648,-4.53301 99.72584,-73.399619 105.47926,-77.758269 5.75339,-4.35864 118.72953,-73.74831 118.72953,-73.74831 0,0 9.06597,-3.48691 6.1021,-9.06597 -2.44085,-5.05605 -7.14819,-3.48691 -7.14819,-3.48691 0,0 -6.97383,2.96387 -27.19794,11.50681 -39.22783,16.73722 -102.16668,54.57025 -102.16668,54.57025 -49.68859,27.54666 -153.94742,112.104414 -153.94742,112.104414 0,0 -10.2864,6.973826 -4.88168,19.5267344 5.23038,12.7272446 19.35239,11.1581376 19.35239,11.1581376 L 300.0495,-31.656242 c 11.15814,-5.056021 208.69201,-45.329923 208.69201,-45.329923 l 21.44455,-3.835612 c 4.88168,-4.532985 10.2864,-9.065995 16.91155,-13.075944 20.39847,-12.727249 37.31,-18.306299 41.14561,-19.526739 8.01993,-3.48691 18.65503,-4.53298 25.62885,2.78955 3.13822,3.13821 5.92776,8.01989 5.57906,14.819383 l 8.7173,-1.39477 0.17449,-0.174235 c 112.45308,-19.352398 360.02423,-35.740888 360.02423,-35.740888 9.06596,-1.39477 33.64875,-9.58903 28.94135,-33.82312"
       style="fill:#000000;fill-rule:nonzero;stroke:none"
       inkscape:connector-curvature="0" />
  </g>
</svg>
