<svg width="500" height="500" viewBox="0 0 500 500" fill="none" xmlns="http://www.w3.org/2000/svg">
<g clip-path="url(#clip0_2_1780)">
<path d="M250 500C388.071 500 500 388.071 500 250C500 111.929 388.071 0 250 0C111.929 0 0 111.929 0 250C0 388.071 111.929 500 250 500Z" fill="url(#paint0_radial_2_1780)"/>
<path d="M66.3889 249.931C66.3889 135.417 138.681 37.7779 240.139 0.208496C106.667 5.41683 0 115.208 0 250C0 384.931 106.875 494.861 240.556 499.792C138.958 462.292 66.3889 364.583 66.3889 249.931Z" fill="url(#paint1_radial_2_1780)"/>
<mask id="mask0_2_1780" style="mask-type:luminance" maskUnits="userSpaceOnUse" x="0" y="0" width="241" height="500">
<path d="M66.3889 249.931C66.3889 135.417 138.681 37.7779 240.139 0.208496C106.667 5.41683 0 115.208 0 250C0 384.931 106.875 494.861 240.556 499.792C138.958 462.292 66.3889 364.583 66.3889 249.931Z" fill="url(#paint2_radial_2_1780)"/>
</mask>
<g mask="url(#mask0_2_1780)">
<path d="M66.3889 249.931C66.3889 135.417 138.681 37.7779 240.139 0.208496C106.667 5.41683 0 115.208 0 250C0 384.931 106.875 494.861 240.556 499.792C138.958 462.292 66.3889 364.583 66.3889 249.931Z" fill="url(#paint3_radial_2_1780)"/>
</g>
<path d="M245.764 226.18C262.361 185.278 231.319 174.167 211.111 174.167H144.167C149.722 177.986 148.819 183.055 147.708 186.18L108.68 310.833C107.153 315.764 101.319 320.972 98.1943 321.736H152.361C149.375 321.18 145.139 316.944 146.667 311.18L160.833 266.111C160.903 266.111 226.042 274.93 245.764 226.18ZM193.125 185.625C200.208 185.625 219.861 186.597 207.153 223.75C193.889 262.778 164.444 254.722 164.444 254.722L186.111 185.625H193.125Z" fill="white"/>
<path d="M289.097 321.805H325.556C313.889 318.055 296.667 307.014 289.792 299.166C295.347 293.125 302.222 285.486 303.472 270H284.583C284.583 270 288.194 272.083 288.194 276.528C288.194 280.625 286.528 286.319 283.333 290.278C277.778 282.083 271.875 272.708 269.792 258.958C277.222 255.278 287.639 251.25 295.903 244.028C303.75 237.153 305.556 230.625 305.694 226.389V225.833C305.694 221.389 303.958 217.222 300.764 214.097C295.278 208.68 286.667 206.458 277.569 208.125C270.278 209.514 264.097 213.403 260.972 216.25C250 226.597 248.611 243.611 248.611 251.319C248.611 253.194 248.681 254.583 248.75 255.416C248.125 255.694 247.014 256.111 247.014 256.111C238.958 259.097 217.5 264.791 209.861 282.43C208.889 284.653 207.5 289.514 207.5 295.139C207.5 300 208.542 305.416 211.667 310.347C217.083 318.819 226.25 324.166 240.972 323.889C256.944 323.611 272.708 312.708 275.486 310.694C278.194 313.264 285.347 320 289.097 321.805ZM289.097 223.194C287.222 235.069 271.806 247.083 268.056 248.68C267.361 242.014 267.708 231.458 273.264 222.847C276.944 217.153 281.875 214.653 285.833 216.041C289.028 217.153 289.375 220.069 289.097 223.194ZM267.708 302.639C265.556 303.958 257.083 308.264 249.167 309.028C241.806 309.722 229.583 306.875 229.653 292.153C229.653 279.583 243.333 270.347 250.764 267.153C253.75 279.305 260.486 293.055 267.708 302.639Z" fill="white"/>
<path d="M399.861 185.764C421.528 180.555 439.375 197.5 440.972 198.68L447.153 179.028C438.611 176.458 376.458 155.417 332.5 205.555C305.486 236.389 298.889 299.583 333.125 316.528C369.792 334.653 410.278 313.75 413.264 312.292L430 258.958C431.806 252.5 435.903 248.333 443.125 245.625H384.931C393.403 249.167 392.778 255.555 392.153 258.194L375.417 311.528C373.195 311.944 326.389 323.611 352.57 241.736C358.333 224.167 374.097 191.944 399.861 185.764Z" fill="white"/>
</g>
<defs>
<radialGradient id="paint0_radial_2_1780" cx="0" cy="0" r="1" gradientUnits="userSpaceOnUse" gradientTransform="translate(106.039 97.2986) scale(466.884)">
<stop stop-color="#00A1DF"/>
<stop offset="0.13" stop-color="#0092D7"/>
<stop offset="0.37" stop-color="#006CC1"/>
<stop offset="0.62" stop-color="#003DA6"/>
<stop offset="0.73" stop-color="#043799"/>
<stop offset="0.93" stop-color="#102777"/>
<stop offset="1" stop-color="#152169"/>
</radialGradient>
<radialGradient id="paint1_radial_2_1780" cx="0" cy="0" r="1" gradientUnits="userSpaceOnUse" gradientTransform="translate(72.0505 38.549) scale(774.125 774.125)">
<stop offset="0.02" stop-color="white"/>
<stop offset="0.03" stop-color="#FBFEFF"/>
<stop offset="0.09" stop-color="#BAE7F9"/>
<stop offset="0.14" stop-color="#87D5F4"/>
<stop offset="0.19" stop-color="#63C9F1"/>
<stop offset="0.23" stop-color="#4CC1EF"/>
<stop offset="0.26" stop-color="#44BEEE"/>
<stop offset="0.28" stop-color="#37B8EB"/>
<stop offset="0.35" stop-color="#19ACE5"/>
<stop offset="0.41" stop-color="#07A4E0"/>
<stop offset="0.45" stop-color="#00A1DF"/>
<stop offset="0.79" stop-color="#0045AB"/>
<stop offset="0.82" stop-color="#003DA6"/>
<stop offset="0.96" stop-color="#0059B6"/>
</radialGradient>
<radialGradient id="paint2_radial_2_1780" cx="0" cy="0" r="1" gradientUnits="userSpaceOnUse" gradientTransform="translate(209.714 242.381) rotate(-88.2324) scale(269.259 274.002)">
<stop offset="0.1" stop-color="white"/>
<stop offset="0.35" stop-color="#FDFDFD"/>
<stop offset="0.45" stop-color="#F6F6F6"/>
<stop offset="0.51" stop-color="#EAEAEA"/>
<stop offset="0.57" stop-color="#D9D9D9"/>
<stop offset="0.62" stop-color="#C3C3C3"/>
<stop offset="0.66" stop-color="#A7A7A7"/>
<stop offset="0.7" stop-color="#868686"/>
<stop offset="0.73" stop-color="#606060"/>
<stop offset="0.77" stop-color="#353535"/>
<stop offset="0.8"/>
</radialGradient>
<radialGradient id="paint3_radial_2_1780" cx="0" cy="0" r="1" gradientUnits="userSpaceOnUse" gradientTransform="translate(194.485 201.221) scale(314.534 314.535)">
<stop offset="0.32" stop-color="#44BEEE" stop-opacity="0"/>
<stop offset="0.48" stop-color="#2B99D9" stop-opacity="0.27"/>
<stop offset="0.67" stop-color="#1476C6" stop-opacity="0.58"/>
<stop offset="0.82" stop-color="#0561BA" stop-opacity="0.84"/>
<stop offset="0.92" stop-color="#0059B6"/>
</radialGradient>
<clipPath id="clip0_2_1780">
<rect width="500" height="500" fill="white"/>
</clipPath>
</defs>
</svg>
