<?xml version="1.0" encoding="UTF-8" standalone="no"?>
<!-- Created with Inkscape (http://www.inkscape.org/) -->

<svg
   xmlns:dc="http://purl.org/dc/elements/1.1/"
   xmlns:cc="http://creativecommons.org/ns#"
   xmlns:rdf="http://www.w3.org/1999/02/22-rdf-syntax-ns#"
   xmlns:svg="http://www.w3.org/2000/svg"
   xmlns="http://www.w3.org/2000/svg"
   xmlns:sodipodi="http://sodipodi.sourceforge.net/DTD/sodipodi-0.dtd"
   xmlns:inkscape="http://www.inkscape.org/namespaces/inkscape"
   id="svg2"
   version="1.1"
   inkscape:version="0.48.3.1 r9886"
   width="975.975"
   height="462.6125"
   xml:space="preserve"
   sodipodi:docname="025121_RD_Wordmark_solid.eps"><metadata
     id="metadata8"><rdf:RDF><cc:Work
         rdf:about=""><dc:format>image/svg+xml</dc:format><dc:type
           rdf:resource="http://purl.org/dc/dcmitype/StillImage" /><dc:title></dc:title></cc:Work></rdf:RDF></metadata><defs
     id="defs6"><clipPath
       clipPathUnits="userSpaceOnUse"
       id="clipPath18"><path
         d="M 0,3700.94 0,0 l 7807.76,0 0,3700.94 -7807.76,0 z"
         id="path20" /></clipPath></defs><sodipodi:namedview
     pagecolor="#ffffff"
     bordercolor="#666666"
     borderopacity="1"
     objecttolerance="10"
     gridtolerance="10"
     guidetolerance="10"
     inkscape:pageopacity="0"
     inkscape:pageshadow="2"
     inkscape:window-width="1229"
     inkscape:window-height="1000"
     id="namedview4"
     showgrid="false"
     inkscape:zoom="1.3910654"
     inkscape:cx="733.00488"
     inkscape:cy="90.119683"
     inkscape:window-x="51"
     inkscape:window-y="24"
     inkscape:window-maximized="1"
     inkscape:current-layer="g10" /><g
     id="g10"
     inkscape:groupmode="layer"
     inkscape:label="ink_ext_XXXXXX"
     transform="matrix(1.25,0,0,-1.25,0,462.6125)"><g
       id="g12"
       transform="scale(0.1,0.1)"><g
         id="g14"><g
           id="g16"
           clip-path="url(#clipPath18)"><path
             d="m 2976.52,898.551 c -2.5,6.289 -5.89,11.25 -10.07,14.781 -4.13,3.789 -9.09,6.406 -14.59,8.109 -5.69,1.7 -11.51,2.618 -17.58,2.618 l -9.94,0 c -1.51,0 -2.88,0 -4.32,0 -1.5,0 -2.75,-0.059 -3.98,-0.399 -0.28,-17.262 -0.59,-34.058 -0.73,-50.68 -0.13,-16.539 -0.19,-33.218 -0.19,-49.82 7.18,0 14.65,0.578 22.36,1.828 7.66,1.172 14.65,3.602 21,7.25 6.4,3.672 11.56,9.024 15.54,15.84 4.07,7.051 6.1,16.012 6.1,27.602 0,9.082 -1.17,16.66 -3.6,22.871 z m -126.4,-0.121 c -0.45,15.492 -1.25,31 -2.37,46.742 4.93,-0.391 10.34,-0.781 16.1,-1.102 5.76,-0.211 12.22,-0.461 19.49,-0.461 10.06,0 20.53,0.332 31.25,0.782 10.78,0.468 21.45,0.781 31.78,0.781 20.41,0 36.42,-1.231 47.93,-3.652 11.58,-2.622 20.6,-6.411 27.34,-11.059 9.22,-6.352 16.02,-13.262 20.27,-20.922 4.38,-7.789 6.47,-17.008 6.47,-27.848 0,-13.812 -2.68,-25.453 -8.17,-35.312 -5.56,-9.938 -13.28,-17.789 -23.16,-24.059 -10,-6.16 -21.76,-10.531 -35.37,-13.422 -13.54,-3.007 -28.32,-4.507 -44.53,-4.507 l -22.03,0 c 0,-17.661 0.19,-35.571 0.64,-53.422 0.39,-18.047 1.39,-35.571 2.89,-53.11 -4.9,0.2 -10.21,0.391 -16.03,0.391 -5.69,0 -12.15,0 -19.42,0 -7.13,0 -13.59,0 -19.35,0 -5.76,0 -11.17,-0.191 -16.1,-0.391 1.12,14.789 1.92,29.891 2.37,45.45 0.52,15.632 0.84,33.363 0.84,53.23 l 0,48.84 c 0,19.832 -0.32,37.543 -0.84,53.051"
             style="fill:#231f20;fill-opacity:1;fill-rule:nonzero;stroke:none"
             id="path22" /><path
             d="m 3191.91,898.43 c -0.66,15.492 -1.5,31 -2.75,46.742 4.9,-0.391 10.27,-0.781 16.04,-1.102 5.82,-0.211 12.14,-0.461 19.41,-0.461 7.19,0 13.59,0.25 19.41,0.461 5.82,0.321 11.06,0.711 15.9,1.102 -0.92,-15.742 -1.7,-31.25 -2.22,-46.742 -0.45,-15.508 -0.73,-33.219 -0.73,-53.051 l 0,-48.84 c 0,-19.867 0.28,-37.598 0.73,-53.23 0.52,-15.559 1.3,-30.661 2.22,-45.45 -4.84,0.2 -10.08,0.391 -15.9,0.391 -5.82,0 -12.22,0 -19.41,0 -7.27,0 -13.59,0 -19.41,0 -5.77,0 -11.14,-0.191 -16.04,-0.391 1.25,14.789 2.09,29.891 2.75,45.45 0.53,15.632 0.84,33.363 0.84,53.23 l 0,48.84 c 0,19.832 -0.31,37.543 -0.84,53.051"
             style="fill:#231f20;fill-opacity:1;fill-rule:nonzero;stroke:none"
             id="path24" /><path
             d="m 3431.89,898.43 c -0.58,15.492 -1.64,31 -2.81,46.742 4.9,-0.391 10.28,-0.781 16.15,-1.102 5.63,-0.211 12.04,-0.461 19.3,-0.461 6.99,0 13.54,0.25 19.36,0.461 5.74,0.321 11.11,0.711 15.95,1.102 -0.91,-15.82 -1.77,-31.25 -2.22,-46.742 -0.47,-15.508 -0.78,-33.219 -0.78,-53.051 l 0,-48.899 c 0,-13.789 0.05,-27.07 0.31,-39.628 0.08,-12.813 0.33,-23.93 0.72,-33.153 16.43,0 32.83,0.34 49.38,1.039 16.48,0.723 33.02,1.891 49.9,3.731 -0.67,-2.739 -1.06,-5.098 -1.39,-7.438 -0.39,-2.031 -0.45,-4.98 -0.45,-8.769 0,-4.063 0.06,-7.133 0.45,-9.102 0.33,-2.351 0.72,-3.988 1.39,-5.301 -7.93,0.141 -17.46,0.2 -28.85,0.282 -11.39,0.109 -27.26,0.109 -47.01,0.109 -17.66,0 -31.97,0 -43.03,0 -10.8,0 -19.3,0 -25.84,0 -6.46,0 -11.5,0 -14.84,-0.109 -3.4,-0.082 -6.13,-0.141 -8.5,-0.282 1.17,14.789 2.23,29.891 2.81,45.45 0.53,15.632 0.79,33.363 0.79,53.23 l 0,48.84 c 0,19.832 -0.26,37.543 -0.79,53.051"
             style="fill:#231f20;fill-opacity:1;fill-rule:nonzero;stroke:none"
             id="path26" /><path
             d="m 3820.78,927.449 c -13.48,0 -24.33,-3.058 -32.58,-9.469 -8.43,-6.679 -12.54,-14.332 -12.54,-22.89 0,-8.828 3.13,-16.149 9.73,-21.84 6.41,-5.621 14.59,-10.66 24.47,-15.23 9.87,-4.59 20.2,-8.961 31.59,-13.032 11.36,-4.367 21.69,-9.527 31.69,-15.816 9.89,-6.012 17.93,-13.594 24.4,-22.172 6.6,-8.691 9.88,-19.879 9.88,-33.609 0,-11.891 -2.75,-22.95 -8.24,-32.891 -5.37,-9.859 -13.2,-18.629 -23.34,-25.57 -10.21,-7.18 -22.17,-12.61 -36.23,-16.282 -14,-3.66 -29.69,-5.609 -47.09,-5.609 -15.55,0 -29.41,1.43 -41.72,4.242 -12.34,2.559 -21.58,6.09 -27.85,10.129 2.75,8.5 5.29,16.219 7.38,23.231 1.9,6.847 3.54,14.449 5.04,22.48 l 8.3,0 c 1.12,-5.223 3.28,-10.199 6.54,-14.902 3.21,-4.77 7.08,-8.828 12.11,-12.367 4.83,-3.653 10.84,-6.543 17.72,-8.493 7.05,-1.961 14.78,-3.148 23.28,-3.148 17.52,0 30.14,3.598 38.44,10.801 8.32,7.25 12.42,15.879 12.42,26.019 0,9.289 -3.13,16.539 -9.61,22.301 -6.33,5.957 -14.37,10.918 -23.79,15.488 -9.69,4.399 -20.02,8.629 -31.13,12.641 -11.39,4.238 -21.78,9.269 -31.39,15.289 -9.47,6.07 -17.46,13.281 -23.92,22.23 -6.35,8.711 -9.5,20.079 -9.5,33.692 0,12.418 2.76,23.457 8.11,33.199 5.29,9.488 12.42,17.738 21.52,24.059 8.89,6.55 19.22,11.59 30.92,14.851 11.58,3.399 23.81,4.981 36.95,4.981 15.57,0 29.3,-1.512 40.8,-4.59 11.92,-3.012 21.98,-7.383 30.28,-12.871 -2.62,-5.692 -4.83,-10.922 -6.74,-16.153 -1.82,-5.097 -4.18,-11.648 -7.05,-19.687 l -6.54,0 c -9.42,20.801 -26.68,30.988 -52.31,30.988"
             style="fill:#231f20;fill-opacity:1;fill-rule:nonzero;stroke:none"
             id="path28" /><path
             d="m 4059.12,915.23 c -0.4,11.309 -0.85,21.25 -1.13,29.942 7.92,-0.981 14.51,-1.563 19.51,-1.563 4.75,0 11.43,0.582 19.34,1.563 31.53,-29.082 62.58,-57.742 93.38,-85.781 30.73,-28.243 62.25,-56.84 94.69,-85.61 l 0,66.059 c 0,11.832 -0.08,23.39 -0.2,34.922 -0.13,11.367 -0.38,21.699 -0.53,31.5 -0.13,9.629 -0.33,17.847 -0.72,24.867 -0.38,6.992 -0.84,11.562 -1.37,14.043 7.97,-0.981 14.46,-1.563 19.42,-1.563 4.9,0 11.39,0.582 19.44,1.563 -1.58,-21.902 -2.7,-41.641 -3.62,-59.301 -0.98,-17.711 -1.5,-34.332 -2.15,-49.961 -0.72,-15.699 -1.05,-31.051 -1.17,-46.09 -0.14,-15.179 -0.2,-31.531 -0.2,-48.851 l 0,-43.11 c -5.82,0.2 -11.72,0.391 -17.65,0.391 -6.49,0 -12.11,-0.191 -17.01,-0.391 -59.57,57.481 -122.48,115.161 -189.11,173.7 -0.38,-7.02 -0.58,-13.809 -0.86,-20.938 -0.1,-6.742 -0.18,-13.992 -0.18,-21.121 l 0,-41.578 c 0,-14.531 0.08,-26.762 0.18,-36.813 0.28,-10.14 0.4,-18.769 0.59,-25.57 0.39,-7.07 0.72,-12.641 1.06,-17.269 0.19,-4.391 0.52,-7.911 0.64,-10.411 -3.26,0.2 -6.8,0.391 -10.25,0.391 -3.54,0 -6.73,0 -9.94,0 -6.69,0 -13.2,-0.191 -20.03,-0.391 0.53,1.84 1.39,8.442 2.31,20.36 0.85,11.953 1.82,26.211 2.81,43.14 1.04,16.821 1.9,35.313 2.54,54.942 0.59,19.808 1.06,38.828 1.06,57.07 0,16.68 -0.47,30.551 -0.85,41.859"
             style="fill:#231f20;fill-opacity:1;fill-rule:nonzero;stroke:none"
             id="path30" /><path
             d="m 4487.68,898.43 c -0.47,15.492 -1.31,31 -2.42,46.742 13.15,-0.203 26.03,-0.512 38.71,-0.902 12.57,-0.411 25.62,-0.661 38.46,-0.661 21.36,0 40.33,0.25 57.01,0.461 16.55,0.321 27.8,0.711 33.55,1.102 -1.11,-3.652 -1.89,-8.832 -1.89,-15.043 0,-3.649 0.19,-6.719 0.7,-8.891 0.14,-2.027 0.61,-4.449 1.19,-7.179 -8.32,0.523 -17.59,0.972 -27.48,1.621 -9.92,0.41 -19.74,0.8 -29.01,1.3 -9.48,0.668 -17.85,1 -25.38,1.122 -7.46,0.269 -12.89,0.386 -16.02,0.386 -1.19,-13.258 -1.83,-26.269 -2.02,-39.359 -0.15,-13.141 -0.15,-26.231 -0.15,-39.488 18.77,0.199 35.9,0.648 50.88,1.039 15.31,0.39 31.15,1.05 47.48,1.699 -0.71,-4.238 -1.38,-7.328 -1.7,-9.668 -0.33,-2.031 -0.46,-4.18 -0.46,-6.68 0,-2.011 0.28,-3.992 0.72,-5.941 0.4,-2.168 0.84,-4.981 1.44,-8.91 -32.83,2.429 -65.71,3.679 -98.36,3.679 0,-7.578 -0.1,-15.32 -0.18,-22.89 -0.21,-7.719 -0.21,-15.379 -0.21,-23.149 0,-15.761 0.39,-30.859 1.58,-45.121 16.28,0 32.82,0.34 49.3,1.039 16.41,0.723 33.03,1.891 49.77,3.731 -0.53,-2.739 -0.92,-5.098 -1.25,-7.438 -0.32,-2.031 -0.44,-4.98 -0.44,-8.769 0,-4.063 0.12,-7.133 0.44,-9.102 0.33,-2.351 0.72,-3.988 1.25,-5.301 -7.66,0.141 -17.27,0.2 -28.7,0.282 -11.46,0.109 -27.14,0.109 -47.02,0.109 -17.66,0 -31.85,0 -43.03,0 -10.72,0 -19.15,0 -25.84,0 -6.54,0 -11.36,0 -14.71,-0.109 -3.34,-0.082 -6.27,-0.141 -8.63,-0.282 1.11,14.789 1.95,29.891 2.42,45.45 0.59,15.632 0.84,33.363 0.84,53.23 l 0,48.84 c 0,19.832 -0.25,37.543 -0.84,53.051"
             style="fill:#231f20;fill-opacity:1;fill-rule:nonzero;stroke:none"
             id="path32" /><path
             d="m 4937.56,902.02 c -2.54,6.21 -6.6,10.859 -11.75,14.128 -5.18,3.332 -12.31,5.352 -20.75,6.461 -8.48,1 -18.3,1.45 -30.06,1.45 -1.19,-32.84 -1.71,-65.399 -1.71,-98.227 1.75,-0.254 3.54,-0.512 4.98,-0.641 1.63,-0.062 3.12,-0.203 4.63,-0.203 18.9,0 33.41,4.184 43.41,12.871 10.08,8.641 15.24,21.532 15.24,38.911 0,10.609 -1.3,18.91 -3.99,25.25 z m -64.27,-90.84 0,-14.571 c 0,-19.937 0.25,-37.668 0.91,-53.097 0.39,-15.492 1.18,-30.864 2.15,-45.653 -4.9,0.2 -10.19,0.391 -15.93,0.391 -5.63,0 -12.25,0 -19.43,0 -7.24,0 -13.68,0 -19.31,0 -5.87,0 -11.02,-0.191 -16.13,-0.391 1.1,14.789 2.21,29.891 2.68,45.45 0.72,15.632 0.97,33.363 0.97,53.23 l 0,48.84 c 0,19.832 -0.25,37.543 -0.97,53.051 -0.47,15.492 -1.58,31 -2.68,46.742 5.11,-0.391 10.26,-0.781 16.13,-1.102 5.72,-0.211 12.11,-0.461 19.5,-0.461 7.86,0 16.54,0.332 26.54,0.782 9.94,0.468 22.18,0.781 36.95,0.781 10.86,0 20.29,-0.203 28.13,-0.59 7.71,-0.582 14.51,-1.363 20.28,-2.223 5.48,-0.898 10.32,-2.289 14.56,-3.91 4.26,-1.5 8.11,-3.398 11.92,-5.629 8.69,-5.308 15.43,-11.711 20.58,-19.621 4.98,-7.64 7.4,-17.07 7.4,-27.719 0,-17.73 -5.62,-32.05 -17.14,-42.968 -11.65,-11.172 -28.05,-18.883 -49.89,-23.473 13.99,-20.277 28.83,-40.668 44.65,-60.879 15.84,-20.39 31.8,-40.551 47.76,-60.301 -6.63,0.2 -13.23,0.391 -19.5,0.391 -6.4,0 -13,0 -19.49,0 -6.6,0 -13.34,0 -19.75,0 -6.46,0 -13.08,-0.191 -19.68,-0.391 l -77.29,113.321 -3.92,0"
             style="fill:#231f20;fill-opacity:1;fill-rule:nonzero;stroke:none"
             id="path34" /><path
             d="m 2947.03,899.211 c -2.5,6.348 -5.82,11.25 -10.02,14.961 -4.24,3.808 -9.22,6.43 -14.84,8.187 -5.74,1.641 -11.56,2.422 -17.72,2.422 l -10.06,0 c -1.44,0 -2.89,0 -4.31,0 -1.51,0 -2.76,-0.14 -4.01,-0.332 -0.31,-17.328 -0.58,-34.34 -0.78,-51.078 -0.19,-16.66 -0.25,-33.473 -0.25,-50.211 7.32,0 14.84,0.578 22.62,1.828 7.71,1.172 14.78,3.602 21.19,7.391 6.46,3.73 11.64,9.019 15.9,16.09 3.98,6.851 6.01,16.07 6.01,27.66 0,9.351 -1.19,16.871 -3.73,23.082 z m -127.38,-0.141 c -0.47,15.629 -1.31,31.391 -2.36,47.149 4.9,-0.449 10.33,-0.778 16.23,-1.11 5.68,-0.25 12.28,-0.449 19.61,-0.449 10.13,0 20.6,0.199 31.58,0.781 10.86,0.59 21.52,0.778 32.05,0.778 20.58,0 36.74,-1.25 48.32,-3.86 11.56,-2.597 20.72,-6.41 27.4,-11.121 9.34,-6.328 16.15,-13.258 20.53,-21.109 4.31,-7.719 6.46,-17.008 6.46,-27.988 0,-13.871 -2.67,-25.7 -8.3,-35.512 -5.56,-10.07 -13.34,-18.039 -23.34,-24.309 -10.08,-6.16 -21.83,-10.672 -35.51,-13.48 -13.67,-3.07 -28.77,-4.57 -45.05,-4.57 l -22.23,0 c 0,-17.79 0.25,-35.981 0.72,-53.961 0.45,-18.047 1.43,-35.829 3.07,-53.559 -5.04,0.391 -10.39,0.531 -16.15,0.531 -5.88,0 -12.43,0 -19.61,0 -7.33,0 -13.87,0 -19.69,0 -5.76,0 -11.19,-0.14 -16.09,-0.531 1.05,14.98 1.89,30.289 2.36,45.98 0.53,15.559 0.72,33.469 0.72,53.551 l 0,49.297 c 0,20.024 -0.19,37.871 -0.72,53.492"
             style="fill:#efb557;fill-opacity:1;fill-rule:nonzero;stroke:none"
             id="path36" /><path
             d="m 3164.18,899.07 c -0.7,15.629 -1.5,31.391 -2.81,47.149 4.92,-0.449 10.33,-0.778 16.29,-1.11 5.62,-0.25 12.16,-0.449 19.49,-0.449 7.24,0 13.87,0.199 19.61,0.449 5.76,0.332 11.11,0.661 16.09,1.11 -1.05,-15.758 -1.83,-31.52 -2.36,-47.149 -0.59,-15.621 -0.78,-33.468 -0.78,-53.492 l 0,-49.297 c 0,-20.082 0.19,-37.992 0.78,-53.551 0.53,-15.691 1.31,-31 2.36,-45.98 -4.98,0.391 -10.33,0.531 -16.09,0.531 -5.74,0 -12.37,0 -19.61,0 -7.33,0 -13.87,0 -19.49,0 -5.96,0 -11.37,-0.14 -16.29,-0.531 1.31,14.98 2.11,30.289 2.81,45.98 0.61,15.559 0.86,33.469 0.86,53.551 l 0,49.297 c 0,20.024 -0.25,37.871 -0.86,53.492"
             style="fill:#efb557;fill-opacity:1;fill-rule:nonzero;stroke:none"
             id="path38" /><path
             d="m 3404.18,899.07 c -0.66,15.629 -1.64,31.391 -2.89,47.149 5.04,-0.449 10.33,-0.778 16.09,-1.11 5.88,-0.25 12.42,-0.449 19.61,-0.449 7.33,0 13.87,0.199 19.69,0.449 5.76,0.332 11.05,0.661 16.09,1.11 -1.11,-15.758 -1.89,-31.52 -2.42,-47.149 -0.53,-15.621 -0.78,-33.531 -0.78,-53.492 l 0,-49.297 c 0,-13.793 0.12,-27.211 0.25,-39.961 0.14,-13.011 0.45,-24.121 0.84,-33.531 16.57,0 33.17,0.441 49.85,1.25 16.54,0.641 33.34,1.813 50.08,3.512 -0.59,-2.621 -0.98,-5.02 -1.23,-7.192 -0.28,-2.218 -0.47,-5.23 -0.47,-9.078 0,-3.922 0.19,-6.871 0.47,-9.101 0.25,-2.34 0.64,-3.93 1.23,-5.43 -7.78,0.141 -17.39,0.332 -28.97,0.391 -11.44,0.078 -27.32,0.14 -47.34,0.14 -17.85,0 -32.31,0 -43.28,0 -10.86,0 -19.55,0 -26.16,0 -6.54,0 -11.64,-0.062 -14.98,-0.14 -3.28,-0.059 -6.21,-0.25 -8.57,-0.391 1.25,14.98 2.23,30.289 2.89,45.98 0.59,15.559 0.84,33.469 0.84,53.551 l 0,49.297 c 0,20.024 -0.25,37.871 -0.84,53.492"
             style="fill:#efb557;fill-opacity:1;fill-rule:nonzero;stroke:none"
             id="path40" /><path
             d="m 3795.02,928.43 c -13.34,0 -24.2,-3.258 -32.7,-9.668 -8.37,-6.68 -12.55,-14.262 -12.55,-23.032 0,-8.941 3.2,-16.261 9.8,-22.031 6.6,-5.679 14.79,-10.777 24.65,-15.429 10,-4.508 20.47,-8.961 31.85,-13.2 11.37,-4.32 22.04,-9.492 31.98,-15.57 9.94,-6.34 18.1,-13.922 24.65,-22.629 6.6,-8.641 9.8,-20.062 9.8,-33.793 0,-12.109 -2.73,-23.027 -8.16,-33.297 -5.57,-10 -13.48,-18.633 -23.56,-25.691 -10.33,-7.32 -22.36,-12.75 -36.54,-16.34 -14.2,-3.871 -29.88,-5.77 -47.48,-5.77 -15.57,0 -29.69,1.372 -42.11,4.258 -12.36,2.742 -21.78,6.274 -28.19,10.203 2.95,8.547 5.49,16.289 7.52,23.34 2.04,7.071 3.68,14.649 5.24,22.891 l 8.24,0 c 1.37,-5.371 3.34,-10.332 6.54,-15.043 3.27,-4.789 7.33,-8.828 12.29,-12.699 4.9,-3.45 10.92,-6.321 17.79,-8.301 7.05,-2.149 14.96,-3.258 23.67,-3.258 17.66,0 30.39,3.789 38.64,10.981 8.32,7.207 12.5,15.898 12.5,26.089 0,9.219 -3.28,16.821 -9.61,22.5 -6.41,5.879 -14.46,11.118 -24.07,15.571 -9.55,4.367 -20.15,8.75 -31.46,12.867 -11.31,4.18 -21.89,9.301 -31.45,15.371 -9.74,6.07 -17.59,13.539 -24,22.309 -6.46,8.82 -9.61,20.191 -9.61,34 0,12.543 2.48,23.73 7.97,33.339 5.43,9.75 12.56,17.993 21.72,24.454 8.89,6.546 19.35,11.578 31.19,14.918 11.84,3.402 24.26,5.16 37.15,5.16 15.82,0 29.61,-1.7 41.39,-4.711 11.89,-3.258 21.89,-7.52 30.33,-13.078 -2.54,-5.551 -4.77,-10.981 -6.72,-16.161 -1.97,-5.152 -4.32,-11.89 -7.21,-19.941 l -6.54,0 c -9.28,21 -26.93,31.391 -52.95,31.391"
             style="fill:#efb557;fill-opacity:1;fill-rule:nonzero;stroke:none"
             id="path42" /><path
             d="m 4036.55,916.012 c -0.59,11.308 -0.92,21.386 -1.17,30.207 8.11,-1.047 14.65,-1.559 19.62,-1.559 4.97,0 11.29,0.512 19.74,1.559 31.65,-29.43 62.96,-58.199 94.04,-86.438 30.92,-28.441 62.57,-57.422 95.19,-86.39 l 0,66.64 c 0,11.969 -0.06,23.481 -0.25,35.039 -0.06,11.578 -0.26,22.051 -0.39,31.86 -0.14,9.66 -0.34,17.98 -0.79,25.09 -0.33,7.128 -0.86,11.839 -1.38,14.199 8.18,-1.047 14.79,-1.559 19.83,-1.559 4.89,0 11.44,0.512 19.6,1.559 -1.55,-22.16 -2.8,-42.047 -3.72,-59.899 -0.91,-17.851 -1.71,-34.511 -2.16,-50.211 -0.58,-15.898 -1.11,-31.449 -1.25,-46.488 -0.19,-15.449 -0.3,-31.851 -0.3,-49.312 l 0,-43.559 c -5.63,0.391 -11.65,0.531 -17.74,0.531 -6.53,0 -12.23,-0.14 -17.26,-0.531 -59.89,58.199 -123.33,116.27 -190.56,175.309 -0.31,-7.129 -0.51,-14.039 -0.69,-21.168 -0.23,-6.93 -0.33,-14.141 -0.33,-21.391 l 0,-41.91 c 0,-14.59 0.1,-26.949 0.25,-37.012 0.13,-10.269 0.26,-18.906 0.58,-25.84 0.27,-6.988 0.67,-12.808 0.86,-17.328 0.25,-4.371 0.64,-8.101 1.03,-10.66 -3.71,0.391 -7.05,0.531 -10.58,0.531 -3.46,0 -6.88,0 -10,0 -6.6,0 -13.34,-0.14 -20.01,-0.531 0.51,1.898 1.25,8.711 2.21,20.801 0.86,11.699 1.7,26.23 2.83,43.359 0.96,16.988 1.88,35.57 2.6,55.391 0.65,19.937 1.06,39.097 1.06,57.461 0,16.758 -0.33,30.879 -0.86,42.25"
             style="fill:#efb557;fill-opacity:1;fill-rule:nonzero;stroke:none"
             id="path44" /><path
             d="m 4464.26,899.07 c -0.39,15.629 -1.23,31.391 -2.34,47.149 13.2,-0.188 26.16,-0.52 38.96,-1.047 12.7,-0.313 25.77,-0.512 38.86,-0.512 21.38,0 40.6,0.199 57.2,0.449 16.87,0.332 28.12,0.661 34.01,1.11 -1.24,-3.86 -1.77,-8.879 -1.77,-15.09 0,-3.867 0.15,-6.82 0.4,-9.027 0.25,-2.172 0.67,-4.454 1.37,-7.204 -8.45,0.461 -17.72,0.993 -27.79,1.5 -10.07,0.391 -19.87,0.922 -29.29,1.442 -9.43,0.531 -17.99,0.922 -25.31,1.18 -7.72,0.128 -12.94,0.269 -16.21,0.269 -1.1,-13.418 -1.84,-26.68 -2.02,-39.769 -0.08,-13.141 -0.08,-26.29 -0.08,-39.758 19.03,0.269 35.83,0.597 51.2,0.988 15.18,0.512 31.25,1.039 47.79,1.699 -0.78,-4.25 -1.36,-7.258 -1.7,-9.488 -0.25,-2.152 -0.3,-4.43 -0.3,-6.93 0,-2.011 0.05,-3.992 0.64,-5.941 0.33,-2.168 0.78,-4.981 1.36,-9.02 -33.2,2.539 -66.31,3.789 -98.99,3.789 0,-7.859 -0.21,-15.379 -0.25,-23.23 -0.26,-7.57 -0.34,-15.481 -0.34,-23.34 0,-15.68 0.59,-30.988 1.63,-45.5 16.68,0 33.09,0.441 49.58,1.25 16.6,0.641 33.54,1.813 50.28,3.512 -0.46,-2.621 -1.05,-5.02 -1.32,-7.192 -0.31,-2.218 -0.39,-5.23 -0.39,-9.078 0,-3.922 0.08,-6.871 0.39,-9.101 0.27,-2.34 0.86,-3.93 1.32,-5.43 -7.92,0.141 -17.66,0.332 -28.98,0.391 -11.64,0.078 -27.26,0.14 -47.4,0.14 -17.71,0 -32.11,0 -43.22,0 -10.78,0 -19.55,0 -26.22,0 -6.48,0 -11.52,-0.062 -14.78,-0.14 -3.59,-0.059 -6.35,-0.25 -8.63,-0.391 1.11,14.98 1.95,30.289 2.34,45.98 0.53,15.559 0.8,33.469 0.8,53.551 l 0,49.297 c 0,20.024 -0.27,37.871 -0.8,53.492"
             style="fill:#efb557;fill-opacity:1;fill-rule:nonzero;stroke:none"
             id="path46" /><path
             d="m 4913.56,902.609 c -2.54,6.411 -6.52,11.11 -11.84,14.371 -5.41,3.231 -12.34,5.43 -20.72,6.29 -8.69,1.121 -18.63,1.511 -30.66,1.511 -0.92,-32.972 -1.45,-65.98 -1.45,-98.949 1.84,-0.254 3.35,-0.512 4.9,-0.641 1.64,-0.062 3.21,-0.203 4.59,-0.203 19.22,0 33.62,4.512 44.02,13.071 10.07,8.57 15.09,21.722 15.09,39.121 0,10.531 -1.24,19.082 -3.93,25.429 z m -64.67,-91.621 0,-14.566 c 0,-20.082 0.33,-38.07 0.78,-53.633 0.41,-15.629 1.25,-31.059 2.24,-46.039 -4.97,0.391 -10.21,0.531 -15.96,0.531 -5.83,0 -12.43,0 -19.62,0 -7.38,0 -13.86,0 -19.68,0 -5.74,0 -11.31,-0.14 -16.07,-0.531 1.22,14.98 2.21,30.289 2.8,45.98 0.66,15.559 0.9,33.469 0.9,53.551 l 0,49.297 c 0,20.024 -0.24,37.871 -0.9,53.492 -0.59,15.629 -1.58,31.391 -2.8,47.149 4.76,-0.449 10.33,-0.778 16.07,-1.11 5.89,-0.25 12.36,-0.449 19.82,-0.449 7.77,0 16.74,0.199 26.69,0.781 10,0.59 22.42,0.778 37.26,0.778 10.91,0 20.53,-0.188 28.37,-0.778 7.86,-0.39 14.59,-1.113 20.22,-2.089 5.74,-0.993 10.64,-2.422 14.96,-3.872 4.26,-1.691 8.05,-3.589 11.97,-5.742 8.5,-5.308 15.57,-11.968 20.67,-19.679 5.09,-7.989 7.57,-17.27 7.57,-28.27 0,-17.769 -5.74,-32.027 -17.32,-43.219 -11.78,-11.172 -28.57,-18.941 -50.21,-23.531 13.86,-20.391 28.82,-41.059 44.86,-61.469 16.01,-20.41 32.09,-40.66 47.93,-60.82 -6.61,0.391 -13.15,0.531 -19.48,0.531 -6.3,0 -13.02,0 -19.7,0 -6.66,0 -13.34,0 -19.88,0 -6.41,0 -13.15,-0.14 -19.87,-0.531 l -77.83,114.238 -3.79,0"
             style="fill:#efb557;fill-opacity:1;fill-rule:nonzero;stroke:none"
             id="path48" /><path
             d="M 1837.87,698 C 2225.57,425.969 2660.35,231.629 3120.51,121.129 3611,2.71094 4130.84,-20.5195 4632.92,15.5781 5569.05,82.8086 6560.36,342.141 7251.55,1012.26 c 313.67,304 556.66,696.15 556.21,1145.78 -0.59,221.93 -57.42,450.74 -185.59,633.38 -127.3,181.58 -312.5,308.71 -510.09,403.51 -414.71,198.87 -900.12,254.77 -1348.75,156.04 -232.88,-51.6 -457.74,-137.19 -662.68,-260.06 -98.03,-58.14 -199.03,-119.34 -283.07,-196.76 -30.74,-28.12 -88.8,-74.22 -91.75,-118.44 -0.65,-11.89 -32.5,8.83 -28.83,-2.48 9.41,-29.35 66.23,-86.89 97.22,-91.09 46.9,-6.52 66.99,14.45 94.83,47.93 35.04,42.32 72.71,82.27 112.67,120.06 78.21,74.16 164.57,139.55 255.86,196.25 189.63,117.44 398.57,191.13 617.89,229.71 438.38,77.11 912.78,6.79 1273.15,-267.5 157.53,-119.87 286.01,-277.33 360.12,-461.74 83.94,-208.2 97.03,-439.3 58.84,-659.12 C 7493.29,1462.08 7228.07,1108.53 6879.34,862.84 6497.78,594.289 6034.83,439.309 5579.91,351.828 5081.88,255.5 4570.92,227.379 4064.54,237.199 c -247.43,4.571 -494.21,17.129 -739.5,54.391 -237.75,36.101 -470.55,95.75 -697.97,173.68 -220.57,75.519 -436.29,169.429 -631.87,297.402 -187.6,122.09 -361.74,267.518 -518.81,426.618 -97.82,99.06 -188.91,204.28 -273.73,314.32 -46.55,60.56 -89.26,123.84 -132.29,187.14 -21.37,31.53 -40.72,64.36 -61.85,96 -19.692,29.36 -48.911,78.01 -56.899,91.74 227.169,28.46 426.679,114.04 600.039,263.59 167.79,144.2 296.15,339.18 349.24,555.57 54.94,224.02 -5.94,449.88 -138.56,635.14 -129.41,180.87 -326.23,285.29 -545.04,309.88 -231.929,26.29 -469.683,-29.75 -660.034,-164.98 -180.606,-128.23 -293.672,-302.37 -342.52,-518.03 -24.59,-107.3 -21.582,-215.33 3.652,-322.5 12.032,-51.6 37.207,-148.96 101.036,-157.6 29.238,-3.92 95.8,24.26 71.796,56.57 -36.679,49.31 -62.05,99.47 -74.609,159.82 -22.305,107.69 -13.203,227.89 19.414,332.64 63.047,200.93 230.254,362.71 434.336,418.24 197.676,53.75 441.519,17.19 612.249,-97.25 164.65,-110.04 263.59,-322.75 276.99,-516.64 14.65,-210.68 -65.51,-431.25 -209.77,-585.97 -132.87,-141.96 -339.64,-245.47 -536.793,-246.98 -35.703,-0.33 -73.945,9.48 -109.453,18.3 -20.078,4.79 18.164,124.71 24.062,147.66 30.332,119.02 57.344,239.67 91.153,358.09 29.609,104.23 64.804,212.77 118.481,307.26 40.35,71.21 108.35,127.19 194.21,124.63 33.68,-1.04 52.25,-5.02 61.86,-61.97 5.1,-29.3 40.08,-67.76 58.59,-22.37 9.16,22.37 6.16,55.51 -9.16,87.87 -20.19,42.39 -60.02,61.47 -105.66,72.33 -193.89,45.78 -346.642,-102.85 -433.673,-259.34 -53.223,-95.66 -85.078,-202.57 -113.398,-307.98 -14.903,-55.92 -28.575,-112.15 -43.282,-167.99 -7.265,-27.99 -14.785,-56.04 -22.695,-83.64 -4.512,-15.95 -12.812,-67.48 -27.383,-76.38 -11.445,-7.13 -29.629,6.01 -41.406,7.32 -23.926,2.81 -48.379,0.78 -71.133,-7.52 -41.133,-15.1 -71.601,-46.62 -79.922,-90.29 -6.328,-33.75 0.078,-71.6 20.157,-99.98 10,-14.2 23.203,-25.9 38.769,-33.36 14.063,-6.6 68.594,-11.56 70.352,-27.13 5.312,-42.38 -25.098,-100.31 -38.77,-139.35 -21.445,-60.88 -44.98,-121.1 -68.848,-181.2 -32.773,-81.73 -59.785,-185 -126.21,-246.6 -28.575,-26.74 -72.852,-44.98 -111.817,-31.97 -50.098,16.68 -61.543,72.21 -40.605,116.02 4.511,9.27 30.722,33.2 27.265,43.14 -4.258,13.03 -33.086,56.64 -42.773,56.05 -52.1682,-4.06 -84.9416,-82.65 -90.7619,-131.38 -27.2656,-228.46 269.0819,-243.71 401.0549,-129.2 82.441,71.46 124.355,174.14 163.789,272.93 21.445,54.47 40.937,109.72 60.039,164.92 9.805,28.52 19.883,57.23 29.609,85.8 8.379,24.45 13.477,55.76 28.067,77.23 26.406,38.83 80.234,-36.51 98.73,-56.12 40.078,-42.11 76.895,-86.83 112.207,-132.81 68.788,-89.45 131.698,-182.56 200.178,-271.95 199.88,-260.06 441.11,-486.971 703.2,-683.01"
             style="fill:#231f20;fill-opacity:1;fill-rule:nonzero;stroke:none"
             id="path50" /><path
             d="m 2458.61,1684.09 c 11.39,141.7 81.82,280.39 183.83,378.54 42.5,41.13 102.79,89 166.1,65.39 57.67,-21.64 32.75,-126.39 26.54,-168.05 -19.69,-137.85 -57.74,-305.11 -152.56,-412.75 -42.05,-47.6 -91.09,-76.17 -153.67,-47.66 -70.88,32.56 -70.49,117.78 -70.24,184.53 m 858.32,101.88 c 16.1,104.35 46.62,206.76 106.66,294.51 22.11,32.58 55.32,71.02 98.48,70.24 47.93,-0.65 49.24,-53.17 42.83,-88.09 -18.77,-101.74 -68.45,-183.28 -131.36,-263.91 -23.09,-30.02 -48.33,-60.93 -79.26,-83.1 -51.33,-36.51 -37.35,38.63 -37.35,70.35 m 1322.2,34.73 c 19.49,94.16 54.39,206.75 116.91,281.89 21.79,26.35 71.46,67.42 106.2,37.73 32.76,-28.37 16.73,-92.2 7.06,-127.38 -26.95,-98.61 -88.47,-182.69 -157.79,-255.54 -16.35,-17.13 -37.73,-44.34 -61.92,-50.3 -28.51,-6.99 -12.24,99.01 -10.46,113.6 m 1739.2,-11.39 c 17.71,96.27 50.41,197.28 109.12,276.99 20.8,28.65 50.74,57.56 88.61,56.56 47.4,-1.23 43.94,-44.39 39.63,-80.29 -12.42,-101.68 -61.8,-191.33 -128.24,-268.36 -23.99,-27.73 -59.05,-71.8 -93.17,-87.5 -34.79,-15.96 -16.87,89.34 -15.95,102.6 m -4120.07,375.35 c -12.42,22.75 -27.32,43.28 -40.94,61.07 -103.3,136.67 -289.86,-35.25 -387.55,-116.79 -148.32,-124.04 -234.69,-313.15 -269.61,-500.57 -19.81,-106.72 -36.76,-296.93 100.31,-333.61 97.89,-25.76 174.92,44.14 242.21,104.69 28.18,25.31 32.36,7.96 41.13,-23.42 8.89,-32.29 11.17,-60.47 41.13,-81.8 49.55,-34.78 115.02,5.18 157.77,33.87 54.67,37.15 100.65,85.27 147.33,131.7 10.53,-48.13 22.56,-101.49 58.65,-137.25 43.56,-42.91 111.9,-44.8 166.62,-25.9 53.17,18.3 97.37,53.5 140.2,88.09 7.52,6.07 79.72,58.12 77.42,63.69 18.65,-48.01 36.23,-100.39 81.03,-130.33 38.64,-25.96 87.15,-28.71 131.49,-20.72 54.41,9.8 102.48,36.09 149.82,63.02 16.61,9.36 31.64,21.64 48.66,30.08 14.37,7.27 16.85,-14.96 21.11,-25.62 40.41,-97.25 179.43,-73.64 256.52,-44.54 57.35,21.7 110.78,52.19 162.17,84.81 27.54,17.54 55.39,38.32 81.02,57.15 21.25,15.12 42.11,37.48 65.58,48.26 15.18,-58.13 23.67,-126.13 74.22,-165.57 70.04,-55.25 164.65,-41.05 239.86,-5.82 125.88,59.12 190.08,195.65 246.84,314.4 27.72,-24.51 56.29,-48.91 92.87,-58.71 14.04,-3.93 26.59,-2.37 41.18,-2.23 25.57,0.14 16.69,-31.13 17.86,-50.49 4.25,-68.85 7.06,-151.31 59.63,-203.49 67.02,-66.63 171.84,-35.24 247.76,-3.4 41.66,17.59 81.15,37.59 119.79,60.43 14.2,8.55 42.32,25.17 39.63,18.38 -8.82,-23.23 -38.52,-145.71 20.74,-130.79 70.54,17.66 173.92,64.79 205.84,131.9 77.22,163.53 88.28,353.1 175.7,512.19 27.15,-35.04 16.88,-91.02 52.64,-120.65 29.49,-24.98 75.41,-13.53 108.36,-3.2 11.05,3.4 22.95,6.93 34.72,7.26 18.64,0.26 -2.36,-22.42 -5.82,-28.96 -30.15,-47.62 -51.07,-104.38 -64.22,-159.04 -21.97,-92.78 -46.23,-204.09 23.74,-283.21 77.22,-87.48 207.42,-4.37 274.58,52.97 9.34,7.91 17.97,25.65 31.65,26.43 17.71,1.37 8.77,-24.2 6.21,-31.39 -5.43,-14.26 -13.07,-27.73 -17.86,-41.85 -6.66,-18.72 -46.03,-35.77 -60.82,-46.29 -88,-63.64 -179.55,-129.61 -246.11,-216.78 -51.66,-68.4 -94.76,-190.411 -53.16,-273.732 46.54,-93.437 198.79,49.372 240.31,85.602 83.24,72 149.14,158.7 208.32,251.04 31.33,48.46 60.23,98.53 85.08,151.11 8.83,18.69 14.78,41.98 29.49,57.29 20.41,21.05 53.04,33.61 78.4,46.76 47.54,25.23 100.51,55.11 152.75,68.9 4.18,0.92 38.52,-76.89 42.64,-83.75 64.94,-98.69 164.73,-96.27 263.2,-50.54 47.87,22.09 73.95,39.68 117.5,68.9 14.12,9.36 9.49,3.48 6.88,-10.53 -4.79,-24.64 -13.03,-48.32 -11.64,-73.22 2.73,-61.01 159.22,12.54 180.74,26.02 16.46,10.52 45.76,21.44 55.31,38.84 7.91,15.1 11.58,32.43 16.29,48.72 15.63,55.11 39.69,109.66 58.38,164.59 40.55,118.16 78.09,238.34 129.08,352.57 29.83,-32.5 21.78,-83.55 50.35,-117.95 30.61,-37.2 72.99,-46.17 118.64,-35.7 39.16,9.42 77.34,30.2 105.6,59.18 9.53,9.92 76.11,141.31 40.22,146.72 -131.78,19.63 -91.76,-80.49 -124.91,-59.24 -37.54,23.95 -16.87,88.48 0,122.09 23.68,46.56 64.67,83.58 99.59,121.37 21.06,22.75 74.22,87.36 26.35,93.9 -38.44,5.16 -71.99,12.43 -99.98,-7.4 -19.49,-13.59 -109.73,-139.27 -122.21,-96.5 -4.84,17.38 -10.41,108.14 -37.79,107.42 -22.3,-0.59 -28.65,-0.59 -50.04,-4.71 -19.41,-3.65 -56.56,-70.43 -72.58,-83.16 -17.4,-13.42 -28.12,-48.15 -37.54,-67.62 -12.28,-25.17 -23.28,-50.82 -33.53,-76.89 -22.95,-55.98 -42.91,-113.4 -64.41,-169.9 -39.77,-104.16 -83.44,-207.15 -167.27,-283.79 -59.04,-54.34 -134.05,-107.7 -218.93,-91.68 -33.69,6.21 -65.07,28.32 -72.12,63.36 -11.12,55.91 12.75,60.37 54.59,82.26 96.26,50.49 190.15,124.63 253.14,214.16 59.37,83.89 99.12,205.39 44.27,301.19 -113.86,199.96 -357.63,-16.68 -434.66,-138.88 -54.61,-87.37 -89.84,-188.07 -106.78,-289.83 -7.65,-46.48 -11.11,-92.71 -6.87,-139.47 0.86,-12.81 5.82,-36.23 -2.82,-47.54 -10.12,-14.12 -37.07,-17.66 -52.69,-21.64 -51.47,-13.48 -94.04,-47.73 -145.24,-62.52 40.02,122.15 79.91,244.38 119.88,366.78 5.87,17.91 68.89,180.8 57.86,190.68 -18.05,15.04 -70.18,19.75 -91.68,19.28 -100.83,-3.01 -135.29,-174.4 -166.37,-251.02 -21.56,-53.49 -42.11,-107.58 -64.59,-160.93 -20.8,-48.52 -33.81,-83.44 -81.35,-109.15 -65.07,-34.92 -122.27,-9.8 -129.41,65.67 -6.99,71.99 12.17,150.25 34.39,218.01 28.85,88.86 73.89,175.17 140.4,241.54 64.27,64.22 162.05,116.86 247.57,57.56 35.63,-25.26 63.62,-40.55 97.76,-2.7 36.56,40.82 -9.75,136.8 -55.12,158.66 -90.18,43.34 -174.34,-16.88 -259.8,-63.19 -80.88,-43.28 -166.35,-115.02 -214.75,-194.06 -20.66,-34.28 -40.22,-69 -84.55,-71.09 -46.43,-1.96 -77.23,32.69 -73.11,78.47 8.3,93.38 106.66,132.35 154.07,200.29 21.77,31.45 -34.01,85.2 -53.36,82.86 -51.53,-5.77 -85.78,-97.84 -126.41,-124.96 -14.95,-9.81 -36.02,-12.82 -41.91,8.63 -4.24,14.31 7.4,30.8 1.11,44.2 -16.6,35.25 -27.6,78.47 -89.65,64.8 -46.48,-10.08 -100.04,-118.83 -114.76,-164.14 -17.78,-55.7 -31.39,-111.87 -52.24,-166.68 -39.42,-102.99 -80.29,-216.83 -147.65,-304.98 -56.76,-74.41 -155.25,-156.21 -254.37,-149.35 -36.95,2.36 -78.01,14 -91.82,52.65 -15.29,42.5 -10.92,71.33 32.38,87.42 92.86,34.13 177.42,96.64 239.13,174.14 85.99,108.29 182.83,317.99 32.69,416.66 -81.8,54.01 -201.6,-21.83 -265.41,-74.16 -89.14,-72.71 -140.92,-173.86 -184.28,-278.69 -21.64,-52.5 -38.38,-106.32 -51.91,-161.64 -2.8,-11.83 -4.64,-35.84 -20.47,-38.18 -20.41,-2.95 -45,3.79 -61.21,15.62 -40.94,30.08 -40.21,83.11 -33.48,128.23 8.98,60.56 23.48,119.33 27.4,180.74 3.01,50.82 -11.11,145.23 -69.84,162.56 -79.9,23.86 -126.91,-127.31 -134.42,-180.86 -7.14,-49.38 -3.28,-104.3 7.23,-153.03 5.96,-26.99 15.78,-53.16 27.21,-77.87 9.56,-20.86 32.17,-43.81 26.94,-67.95 -17.66,-82.05 -93.44,-187.79 -185.32,-193.09 -120.97,-7.01 -101.47,146.66 -93.96,222.47 11.9,119 40.74,235.66 77.87,349.23 27.09,82.66 51.66,176.9 89.47,255.88 27.91,58.46 57.15,148.69 116.91,168.85 27.91,9.53 43.87,-9.94 38.83,-38.07 -6.59,-35.76 -31.7,-72.71 -49.09,-104.16 -19.95,-35.97 -45.77,-47.73 -66.32,-83.51 -6.27,-10.98 -42.35,-54.87 -51.51,-69.63 -0.66,-1 -8.7,-8.52 -9.23,-9.63 10.27,-8.89 22.36,-9.47 31.45,-12.62 138.96,141.64 266.07,279.75 343.49,466.31 22.89,54.67 22.97,174.53 -60.21,200.35 -7.07,2.23 10.92,-47.48 1.45,-48.26 -86.33,-7.38 -165.12,-80.96 -221.62,-140.78 -156.54,-165.37 -257.65,-380.45 -337.61,-590.61 -20.98,-54.8 -40.67,-109.66 -56.09,-166.62 -14.71,-54 -17.27,-110.89 -32.37,-164.59 -27.15,-94.61 -144.72,-176.23 -231.68,-209.9 -73.04,-28.24 -227.56,-37.54 -198.28,88.03 4.45,19.08 79.2,43.28 101.17,54.59 48.58,25.57 92.6,55.98 130.2,96.25 63.69,67.3 118.67,152.05 144.51,241.76 22.42,76.97 20.78,201.54 -63.89,242.87 -74.16,36.01 -174.72,-12.95 -236.05,-54.55 -89.47,-60.61 -152.44,-152.42 -197.95,-249.07 -47.87,-101.09 -88.28,-213.24 -96.52,-325.52 -1.9,-26.27 -2.35,-52.37 3,-78.26 5.04,-24.59 8.19,-46.1 -15.09,-61.41 -41.98,-27.33 -91.68,-33.28 -130.79,0.66 -41.97,36.74 -29.74,119.53 -26.42,167.8 5.51,77.73 18.18,154.84 37.81,230.04 39.36,150.05 97.62,283.78 155.1,427.32 11.78,29.82 69.76,176.76 109.92,194.53 14.12,6.29 13.48,4.32 30.61,6.93 18.43,3.21 19.29,-21.58 16.68,-33.28 -9.22,-43.36 -34.73,-80.17 -53.5,-119.86 -14.45,-30.27 -92.46,-133.52 -101.04,-140.59 -0.64,-0.72 -3.26,-0.86 -2.81,-15.82 6.21,-4.12 14.73,-7.2 27.15,-12.22 72.91,84.8 138.16,163.98 201.27,256.13 30.33,43.95 57.68,89.84 80.23,138.16 19.75,42.31 53.23,112.41 29.69,158.97 -9.49,19.35 -34.78,69.12 -55.39,71.07 -15.23,1.45 -25.17,-42.03 -38.44,-44.59 -54.21,-9.94 -102.79,-41.38 -143.47,-77.03 -81.68,-71.8 -144.96,-170.13 -198.93,-263.85 -26.74,-47.01 -51.25,-94.88 -73.89,-143.73 -11.3,-24.78 -22.22,-49.37 -32.81,-74.55 -8.71,-21.17 -11.91,-36.87 -29.57,-15.43 -71.52,87.62 -205.33,61.94 -287.97,7.85 -185.64,-121.17 -253.2,-347.09 -317.42,-547.18 -21.64,-67.48 -64.28,-170.67 -151.23,-167.54 -58.98,2.22 -27.54,109.61 -18.91,140.53 23.48,86.11 55.12,170.35 84.89,254.51 5.02,14.04 61.66,149.27 46.95,158.83 -23.42,14.98 -80.23,26.79 -104.32,19.6 -97.42,-29.16 -123.71,-221.79 -149.8,-304.7 -26.09,-83.97 -51.39,-199.18 -137.13,-243.01 -36.29,-18.3 -89.51,-25.96 -119.39,7.91 -33.29,37.93 -24.59,98.81 -18.52,144.39 14.59,109.93 52.66,222.72 109.28,318.19 53.42,89.92 139.94,189.71 256.72,178.46 21.77,-1.98 43.49,-12.7 60.48,-26.68 14.71,-12.04 24.34,-38.19 41.92,-46.04 18.24,-7.77 45.45,21.91 53.94,34.92 13.73,20.53 15.38,45.06 8.44,68.4"
             style="fill:#231f20;fill-opacity:1;fill-rule:nonzero;stroke:none"
             id="path52" /><path
             d="M 1803.01,745.012 C 2190.78,473.121 2625.57,278.922 3085.78,167.879 3576.35,49.9688 4095.92,26.8906 4597.99,62.9219 5534,129.559 6525.65,389.48 7216.63,1059.48 c 313.8,304.13 556.87,696.16 556.15,1146.04 -0.47,221.74 -57.42,450.41 -185.53,633.05 -127.11,181.72 -312.42,308.63 -509.9,403.51 -414.79,198.93 -900.04,254.57 -1348.69,155.76 -232.99,-51.13 -458.13,-136.91 -662.93,-259.33 -97.89,-58.4 -198.85,-119.79 -283.01,-197.23 -30.66,-28.05 -88.79,-74 -91.68,-118.73 -2.92,-41.74 25.37,-87.25 68.54,-93.18 46.57,-6.49 66.75,14.45 94.6,47.93 35.06,42.16 72.91,82.32 112.94,120.06 78.28,74.21 164.33,139.72 255.81,196.42 189.44,117.25 398.5,190.74 617.74,229.32 438.18,77.36 912.54,7.07 1273.16,-267.17 157.6,-120 285.82,-277.27 359.98,-461.66 83.97,-208.48 97.37,-439.57 58.91,-659.61 C 7458.44,1508.84 7193.15,1155.87 6844.42,910.129 6462.99,641.5 6000.1,486.539 5545.18,398.648 5047.29,302.84 4536.21,274.66 4029.7,284.539 c -247.57,4.77 -494.35,17.133 -739.37,54.199 -237.97,36.102 -470.56,95.614 -698.18,173.871 -220.57,75.211 -436.02,169.493 -631.8,297.012 -187.54,122.399 -361.81,267.719 -518.94,427.129 -97.64,99.06 -188.66,204.02 -273.54,314.14 -46.48,60.55 -89.32,123.91 -132.48,186.9 -21.11,31.64 -41.132,61.97 -62.382,93.43 -19.551,29.5 -40.41,64.67 -53.946,94.55 226.778,28.32 424.398,113.46 597.818,263.13 167.59,144.51 296.07,339.51 349.31,555.82 55.06,224.16 -6.09,449.96 -138.71,635.27 -129.34,180.69 -326.15,285.18 -544.96,310.16 C 950.586,3716.24 712.891,3660.07 522.48,3524.7 341.934,3396.73 228.809,3222.41 179.824,3007 c -24.316,-107.44 -21.445,-215.58 3.731,-322.5 12.09,-51.6 37.265,-149.02 101.152,-157.52 29.355,-3.8 93.848,23.21 69.785,55.51 -36.758,49.38 -60.176,100.37 -72.656,160.72 -22.031,107.25 -13.203,228.03 19.355,332.47 62.911,201.19 230.313,362.85 434.317,418.22 197.949,53.89 441.522,17.34 612.262,-97.03 164.52,-110.26 263.66,-322.89 277.25,-516.58 14.51,-210.96 -65.72,-431.53 -209.96,-586.1 -132.76,-142.56 -339.85,-245.74 -536.798,-247.05 -35.899,0 -75.332,5.49 -109.473,18.44 -20.723,7.65 19.043,124.32 25.117,147.65 30.274,119.01 56.367,239.73 89.981,358.09 29.629,104.3 65.058,212.52 118.553,307.07 40.27,71.33 108.67,127.25 194.4,124.88 33.75,-0.97 65.8,-14.96 83.18,-45.31 15.12,-25.37 11.97,-110.96 51.27,-60.49 26.35,33.81 1.84,79.73 -19.41,109.73 -26.96,38.46 -63.83,61.01 -109.54,71.87 -194.02,45.65 -346.637,-103.06 -433.805,-259.53 -53.105,-95.6 -84.883,-202.4 -113.379,-307.67 -14.785,-56.04 -28.379,-112.27 -43.027,-168.32 -7.324,-27.99 -14.785,-55.84 -22.754,-83.24 -4.59,-16.41 -12.363,-63.62 -26.035,-74.42 -6.348,-4.96 -34.922,4.32 -42.774,4.84 -24.062,1.45 -48.378,0.79 -71.269,-7.71 -40.938,-14.84 -71.602,-46.09 -79.961,-89.59 -6.348,-34.26 0.254,-71.66 20.391,-100.31 9.882,-14.18 23.144,-25.96 38.711,-33.21 14.121,-6.6 68.535,-11.58 70.488,-27.07 5.039,-42.44 -25.039,-100.5 -38.965,-139.49 -21.133,-60.99 -44.863,-121.29 -68.926,-181.25 -32.558,-81.54 -59.57,-184.61 -126.133,-246.66 -28.652,-26.54 -72.793,-44.72 -111.699,-31.97 -50.156,16.87 -61.66,72.64 -40.723,116.27 4.434,9.28 30.586,32.69 27.383,42.83 -4.375,12.93 -40.8591,13.79 -50.5466,12.93 C 37.0703,1501.79 12.0312,1466.4 6.34766,1417.43 -21.0547,1188.68 275.293,1173.59 407.246,1288.22 c 82.266,71.6 124.316,174.53 163.672,273.06 21.777,54.47 41.211,109.42 60.176,164.67 9.726,28.83 19.668,57.21 29.492,86.11 8.613,24.01 13.398,55.84 28.105,77.09 26.289,38.85 80.235,-36.68 98.868,-55.9 40.019,-42.44 76.914,-87.1 112.343,-133.14 68.594,-89.32 131.368,-182.89 200.038,-271.76 199.71,-260.19 441,-487.088 703.07,-683.338"
             style="fill:#efb557;fill-opacity:1;fill-rule:nonzero;stroke:none"
             id="path54" /><path
             d="M 1803.01,745.012 C 2190.78,473.121 2625.57,278.922 3085.78,167.879 3576.35,49.9688 4095.92,26.8906 4597.99,62.9219 5534,129.559 6525.65,389.48 7216.63,1059.48 c 313.8,304.13 556.87,696.16 556.15,1146.04 -0.47,221.74 -57.42,450.41 -185.53,633.05 -127.11,181.72 -312.42,308.63 -509.9,403.51 -414.79,198.93 -900.04,254.57 -1348.69,155.76 -232.99,-51.13 -458.13,-136.91 -662.93,-259.33 -97.89,-58.4 -198.85,-119.79 -283.01,-197.23 -30.66,-28.05 -88.79,-74 -91.68,-118.73 -2.92,-41.74 25.37,-87.25 68.54,-93.18 46.57,-6.49 66.75,14.45 94.6,47.93 35.06,42.16 72.91,82.32 112.94,120.06 78.28,74.21 164.33,139.72 255.81,196.42 189.44,117.25 398.5,190.74 617.74,229.32 438.18,77.36 912.54,7.07 1273.16,-267.17 157.6,-120 285.82,-277.27 359.98,-461.66 83.97,-208.48 97.37,-439.57 58.91,-659.61 C 7458.44,1508.84 7193.15,1155.87 6844.42,910.129 6462.99,641.5 6000.1,486.539 5545.18,398.648 5047.29,302.84 4536.21,274.66 4029.7,284.539 c -247.57,4.77 -494.35,17.133 -739.37,54.199 -237.97,36.102 -470.56,95.614 -698.18,173.871 -220.57,75.211 -436.02,169.493 -631.8,297.012 -187.54,122.399 -361.81,267.719 -518.94,427.129 -97.64,99.06 -188.66,204.02 -273.54,314.14 -46.48,60.55 -89.32,123.91 -132.48,186.9 -21.11,31.64 -41.132,61.97 -62.382,93.43 -19.551,29.5 -40.41,64.67 -53.946,94.55 226.778,28.32 424.398,113.46 597.818,263.13 167.59,144.51 296.07,339.51 349.31,555.82 55.06,224.16 -6.09,449.96 -138.71,635.27 -129.34,180.69 -326.15,285.18 -544.96,310.16 C 950.586,3716.24 712.891,3660.07 522.48,3524.7 341.934,3396.73 228.809,3222.41 179.824,3007 c -24.316,-107.44 -21.445,-215.58 3.731,-322.5 12.09,-51.6 37.265,-149.02 101.152,-157.52 29.355,-3.8 93.848,23.21 69.785,55.51 -36.758,49.38 -60.176,100.37 -72.656,160.72 -22.031,107.25 -13.203,228.03 19.355,332.47 62.911,201.19 230.313,362.85 434.317,418.22 197.949,53.89 441.522,17.34 612.262,-97.03 164.52,-110.26 263.66,-322.89 277.25,-516.58 14.51,-210.96 -65.72,-431.53 -209.96,-586.1 -132.76,-142.56 -339.85,-245.74 -536.798,-247.05 -35.899,0 -75.332,5.49 -109.473,18.44 -20.723,7.65 19.043,124.32 25.117,147.65 30.274,119.01 56.367,239.73 89.981,358.09 29.629,104.3 65.058,212.52 118.553,307.07 40.27,71.33 108.67,127.25 194.4,124.88 33.75,-0.97 65.8,-14.96 83.18,-45.31 15.12,-25.37 11.97,-110.96 51.27,-60.49 26.35,33.81 1.84,79.73 -19.41,109.73 -26.96,38.46 -63.83,61.01 -109.54,71.87 -194.02,45.65 -346.637,-103.06 -433.805,-259.53 -53.105,-95.6 -84.883,-202.4 -113.379,-307.67 -14.785,-56.04 -28.379,-112.27 -43.027,-168.32 -7.324,-27.99 -14.785,-55.84 -22.754,-83.24 -4.59,-16.41 -12.363,-63.62 -26.035,-74.42 -6.348,-4.96 -34.922,4.32 -42.774,4.84 -24.062,1.45 -48.378,0.79 -71.269,-7.71 -40.938,-14.84 -71.602,-46.09 -79.961,-89.59 -6.348,-34.26 0.254,-71.66 20.391,-100.31 9.882,-14.18 23.144,-25.96 38.711,-33.21 14.121,-6.6 68.535,-11.58 70.488,-27.07 5.039,-42.44 -25.039,-100.5 -38.965,-139.49 -21.133,-60.99 -44.863,-121.29 -68.926,-181.25 -32.558,-81.54 -59.57,-184.61 -126.133,-246.66 -28.652,-26.54 -72.793,-44.72 -111.699,-31.97 -50.156,16.87 -61.66,72.64 -40.723,116.27 4.434,9.28 30.586,32.69 27.383,42.83 -4.375,12.93 -40.8591,13.79 -50.5466,12.93 C 37.0703,1501.79 12.0312,1466.4 6.34766,1417.43 -21.0547,1188.68 275.293,1173.59 407.246,1288.22 c 82.266,71.6 124.316,174.53 163.672,273.06 21.777,54.47 41.211,109.42 60.176,164.67 9.726,28.83 19.668,57.21 29.492,86.11 8.613,24.01 13.398,55.84 28.105,77.09 26.289,38.85 80.235,-36.68 98.868,-55.9 40.019,-42.44 76.914,-87.1 112.343,-133.14 68.594,-89.32 131.368,-182.89 200.038,-271.76 199.71,-260.19 441,-487.088 703.07,-683.338"
             style="fill:none;stroke:#231f20;stroke-opacity:1;stroke-width:9.14004;stroke-linecap:butt;stroke-linejoin:miter;stroke-miterlimit:4;stroke-dasharray:none"
             id="path56" /><path
             d="m 2424.02,1731.3 c 11.45,142.09 81.49,280.59 183.69,378.67 42.45,40.41 102.47,89.2 166.16,65.2 57.34,-21.84 32.56,-126.19 26.42,-167.99 -19.82,-137.77 -57.81,-305.23 -152.42,-412.81 -42.13,-47.6 -91.42,-76.76 -153.87,-47.6 -70.82,32.44 -70.48,117.83 -69.98,184.53 m 858.27,102.01 c 15.87,104.16 46.62,206.57 106.44,294.59 22.05,32.11 55.59,70.94 98.36,69.96 47.99,-0.64 49.37,-52.89 42.89,-87.89 -18.63,-101.74 -68.26,-183.61 -131.31,-264.18 -23.28,-29.68 -48.26,-60.6 -79.18,-83.04 -51.52,-36.49 -37.2,38.65 -37.2,70.56 m 1322.12,34.79 c 19.3,93.96 54.21,206.76 116.71,281.64 22.11,26.29 71.54,67.48 106.38,37.34 32.64,-28.45 16.68,-91.56 6.94,-126.66 -27.07,-98.81 -88.45,-182.97 -157.97,-255.88 -16.22,-16.93 -37.34,-44.27 -61.68,-50.02 -28.5,-6.81 -12.23,98.54 -10.38,113.58 m 1739.33,-11.37 c 17.32,96.17 50.27,197.07 108.86,276.86 20.73,28.04 50.61,57.14 88.48,56.23 47.6,-1.12 44.06,-44.46 39.88,-80.1 -12.42,-101.54 -61.79,-191.47 -128.16,-268.16 -24.4,-27.93 -58.93,-71.94 -93.31,-87.7 -34.72,-16.07 -17,89.79 -15.75,102.87 m -4121.57,374.16 c -97.31,155.29 -318.13,36.49 -427.19,-54.86 -148.52,-123.93 -234.49,-313.22 -269.47,-500.51 -19.96,-106.52 -36.96,-297.13 100.23,-333.36 97.76,-25.96 174.73,43.95 242.27,104.49 28.38,25.18 32.3,8.3 41.01,-23.34 8.89,-32.24 11.12,-60.68 41.19,-81.79 49.63,-35 114.97,4.82 157.66,33.8 54.53,37.13 100.7,85.26 147.52,131.37 10.39,-47.67 22.5,-101.09 58.46,-136.93 43.61,-43.03 111.87,-44.92 166.68,-25.9 53.02,18.18 97.44,53.3 140.39,87.95 7.26,6.15 71.79,59.12 77.22,63.83 18.72,-48.13 36.43,-100.26 81.1,-130.39 38.51,-25.96 86.97,-28.64 131.31,-20.61 54.39,9.69 102.46,35.98 149.92,63.05 16.56,9.35 31.8,21.44 48.79,30.02 14.39,7.24 16.68,-14.85 21.25,-25.78 40.35,-97.17 179.1,-73.3 256.33,-44.53 57.48,21.97 109.08,53.1 162.11,85.01 27.2,16.35 47.79,28.64 73.43,47.15 21.45,15.63 54.87,41.64 73.3,58.13 14.98,-58.13 23.54,-125.88 74.22,-165.82 69.77,-54.94 164.64,-40.69 239.64,-5.43 126.01,58.9 190.09,195.39 246.91,314.2 27.68,-24.4 56.25,-48.66 92.88,-58.79 14.17,-3.93 26.54,-2.15 41.1,-2.03 25.65,0 16.69,-31.25 17.99,-50.41 4.12,-69.18 6.88,-151.45 59.45,-203.56 67.1,-66.7 172.23,-35.31 247.96,-3.47 41.52,17.46 80.82,37.67 119.66,60.68 14.59,8.3 86.64,62.91 90.43,22.56 2.09,-24.98 -49.09,-137.78 10.47,-122.74 70.44,17.6 133.32,52.5 165.24,119.87 77.55,163.2 88.62,352.71 175.58,511.73 27.38,-35.17 16.8,-90.82 52.64,-120.76 29.55,-24.72 75.53,-13.34 108.61,-3.28 10.92,3.6 22.95,7.66 34.53,7.72 18.64,0.33 -2.22,-22.62 -5.95,-29.03 -29.83,-47.73 -50.88,-104.43 -63.75,-159.1 -22.05,-92.91 -46.17,-203.94 23.53,-283.2 77.42,-87.42 207.68,-4.45 274.51,52.83 9.28,7.85 18.11,25.7 31.59,26.74 17.71,1.25 9.02,-24.38 6.34,-31.5 -5.31,-14.34 -12.95,-27.8 -17.79,-42.11 -6.6,-18.58 -45.84,-35.59 -60.68,-46.45 -88.21,-63.36 -179.89,-128.87 -246.2,-216.62 -51.6,-68.28 -94.68,-190.431 -53.22,-273.611 46.43,-93.359 198.97,49.641 240.43,85.602 82.91,72.189 148.91,158.909 208.07,250.979 31.46,48.51 60.38,98.92 85.15,151.17 9.15,18.77 15.16,41.99 29.81,57.29 19.75,21.25 52.71,33.75 77.95,47.08 47.73,24.85 100.64,54.54 152.95,68.27 4.06,1.11 38.38,-76.64 42.83,-83.3 64.67,-99.01 164.53,-96.53 263.07,-50.82 47.87,22.3 90.89,51.13 134.96,79.7 25.31,16.49 46.7,20.94 42.11,-16.21 -3.07,-24.92 -16.8,-49.43 -15.36,-74.47 2.88,-61.35 109.99,8.89 131.82,22.48 16.29,10.27 45.51,21.13 55.14,38.79 8.1,14.84 11.76,32.17 16.4,48.06 15.77,55.71 39.55,110.18 58.52,165.04 40.35,118.23 77.7,238.34 128.63,352.86 29.75,-32.64 21.84,-83.97 50.74,-118.36 30.41,-36.76 73.11,-45.98 118.36,-35.12 39.69,9.16 77.35,29.69 105.8,58.98 9.48,9.67 64.48,98.62 28.52,97.37 -39.82,-1.7 -74.63,-43.03 -113.19,-9.89 -33.88,28.79 -17,88.48 -0.27,121.9 23.99,46.42 64.81,83.44 99.79,121.42 21.11,22.84 46.68,48.85 -1.64,48.27 -42.05,-0.65 -81.6,-20.73 -114.04,-45.96 -18.7,-14.65 -67.68,-55.2 -80.24,-12.36 -5.04,17.38 5.04,54.53 -22.62,55.05 -22.95,0.14 -121.89,-22.95 -137.65,-35.25 -17.46,-13.59 -28.19,-48.57 -37.6,-68.2 -12.23,-25.18 -23.2,-50.28 -33.48,-76.37 -22.89,-56.17 -43.08,-113.4 -64.53,-169.88 -39.81,-104.5 -83.12,-207.48 -167.15,-284.12 -58.98,-54.09 -133.98,-107.5 -219.18,-91.35 -33.16,6.21 -64.8,28.16 -71.93,63.36 -11.19,55.58 12.56,60.02 54.53,81.93 96.39,50.67 190.29,124.83 253.32,214.28 59.51,84.16 98.81,205.39 44.4,301.05 -114.11,200.18 -358.07,-16.4 -434.91,-138.69 -54.53,-87.56 -89.92,-188.38 -106.85,-289.94 -7.64,-46.48 -10.98,-92.52 -6.8,-139.34 0.92,-13.02 5.69,-36.17 -2.81,-47.61 -10.14,-13.87 -37.21,-17.52 -52.64,-21.64 -51.72,-13.28 -94.29,-47.8 -145.43,-62.72 40.16,122.29 80.04,244.77 120,366.92 5.88,18.04 58.14,143.06 46.43,151.38 -19.24,14.05 -63.29,9.42 -84.69,8.75 -100.9,-3.26 -130.64,-124.57 -161.78,-201.13 -21.91,-53.63 -42.36,-107.83 -64.86,-160.94 -20.72,-48.57 -33.81,-83.44 -81.48,-109.12 -65.06,-35.06 -122.02,-9.69 -129.28,65.65 -6.8,71.93 12.23,150.13 34.21,218 29.1,88.73 74.15,175.45 140.71,241.82 64.08,63.55 162.03,116.6 247.38,56.62 35.82,-24.45 63.81,-39.8 97.89,-2.28 36.68,40.8 13.61,91.87 -31.46,113.79 -90.42,43.14 -198.07,27.91 -283.59,-17.93 -80.83,-43.54 -166.16,-115.14 -214.5,-194.54 -20.39,-33.86 -40.27,-68.65 -84.21,-70.54 -46.82,-1.84 -77.62,32.36 -73.5,78.53 8.44,92.91 106.72,131.96 153.92,200.08 21.92,31.47 -33.61,35.45 -52.77,33.22 -51.44,-6.07 -86.37,-48.38 -126.97,-75.39 -14.59,-9.88 -35.59,-12.61 -41.72,8.64 -4.12,14.37 7.32,30.8 1.17,44.27 -16.68,35.3 -97.95,2.15 -121.37,-8.43 -42.96,-19.83 -68.45,-45.59 -82.98,-91.16 -18.05,-55.58 -31.65,-111.64 -52.64,-166.56 -39.24,-102.85 -79.96,-216.7 -147.33,-305.04 -56.75,-74.16 -155.56,-155.96 -254.48,-149.22 -37.02,2.4 -78.15,14.18 -91.75,52.64 -15.45,42.44 -11.04,71.33 32.43,87.42 92.79,34.4 177.2,96.84 239.06,174.34 86.05,108.02 182.58,317.4 32.64,416.34 -81.74,54.2 -201.46,-21.52 -265.49,-74.1 -89.12,-72.57 -140.64,-173.81 -184.13,-278.36 -21.79,-52.77 -38.59,-106.38 -51.93,-161.83 -2.87,-11.84 -4.9,-35.84 -20.47,-38.26 -20.4,-3.07 -45.06,3.39 -61.52,15.68 -40.55,30.02 -40.02,83.05 -33.29,128.24 9.09,60.82 23.75,119.08 27.39,180.74 3.28,50.75 -11.1,145.3 -69.76,162.76 -80.09,23.61 -126.86,-127.58 -134.51,-181 -7,-49.57 -3.21,-104.1 7.26,-153.08 5.95,-27.02 15.96,-53.17 27.46,-78.21 9.47,-20.6 31.91,-43.55 26.54,-67.75 -17.26,-81.86 -93.24,-187.54 -185.17,-193.09 -120.63,-7.07 -101.28,146.8 -93.89,222.39 11.89,119.14 40.72,235.93 77.93,349.39 27.08,82.77 59.04,163.67 96.5,242.79 27.99,58.58 56.25,126.47 112.93,163.6 24.73,16.48 47.04,6.68 35.65,-19.67 -19.3,-44.34 -33.55,-76.39 -44.4,-96.08 -19.88,-35.82 -37.93,-73.1 -62.64,-121.09 -14.91,-28.96 -28.38,-64.8 -31.58,-93.77 139.16,141.76 260.04,311.19 337.66,497.48 24.98,60.69 38.26,160.61 -58.71,152.17 -86.64,-7.58 -165.31,-81.21 -221.74,-140.78 -156.68,-165.37 -257.62,-380.37 -337.66,-590.55 -20.94,-54.78 -40.6,-109.65 -56.05,-166.68 -14.65,-54.08 -17.25,-110.95 -32.62,-164.51 -27.15,-94.57 -144.71,-176.31 -231.56,-209.84 -73.23,-28.25 -226.37,-37.93 -198.32,88.14 6.21,27.46 71.27,40.67 98.94,52.64 50.41,22.03 94.87,57.81 132.68,97.95 63.49,67.17 118.61,152.44 144.43,241.56 22.37,77.28 20.8,201.66 -64.08,243.05 -73.95,36.31 -174.73,-12.82 -235.86,-54.59 -89.45,-60.88 -152.56,-152.37 -198.2,-249.01 -47.54,-100.97 -88.01,-213.18 -96.51,-325.33 -1.89,-26.41 -2.16,-52.5 3.07,-78.4 5.16,-24.26 8.11,-45.97 -15.1,-61.46 -41.85,-27.46 -91.42,-33.56 -130.66,0.92 -42.11,36.73 -29.88,119.19 -26.49,167.52 5.37,77.89 18.19,154.78 37.93,230.17 39.1,150.02 100.45,293.81 167.93,433.03 26.29,54 52.78,110.64 87.76,159.69 9.08,12.75 22.75,33.34 39.74,36.09 18.38,3.34 19.36,-21.72 16.68,-33.42 -14.18,-66.05 -70.23,-175.12 -81.34,-199.31 -17.33,-37.02 -39.11,-92.86 -37.6,-120.84 72.52,84.1 126.93,195.64 190.15,287.85 30.28,43.81 57.68,90.04 80.24,138.36 19.69,42.44 53.03,112.34 29.76,158.9 -16.68,33.28 -62.79,32.31 -94.18,26.43 -53.86,-10.02 -102.65,-41.14 -143.32,-77.31 -81.62,-71.85 -144.92,-170.07 -198.67,-263.65 -26.93,-46.62 -51.38,-94.94 -74.08,-143.79 -11.45,-24.72 -22.3,-49.57 -32.75,-74.61 -8.91,-21.19 -11.92,-36.76 -29.69,-15.17 -71.6,87.95 -205.47,62.05 -287.99,7.77 -185.64,-121.43 -253.26,-347.21 -317.27,-547.11 -21.71,-67.62 -64.35,-170.6 -151.13,-167.46 -59.37,2.09 -27.52,109.39 -19.16,140.31 23.56,86.25 55.2,170.55 84.96,254.51 4.9,13.99 50.67,110.12 36.49,120.12 -22.64,16.35 -80.32,7.72 -104.3,0.67 -97.64,-29.57 -113.26,-164.28 -139.3,-247.06 -26.15,-83.96 -51.52,-199.06 -137.3,-242.73 -36.17,-18.5 -89.4,-26.23 -119.22,7.77 -33.42,37.82 -24.65,98.62 -18.57,144.07 14.59,109.98 52.51,222.91 109.21,318.45 53.48,89.85 140.12,189.69 256.78,178.77 21.78,-2.09 46.29,-13.53 63.3,-27.4 14.59,-12.23 21.51,-37.91 38.97,-45.31 18.24,-8.05 45.52,21.25 54.27,34.39 13.48,20.47 13.73,57.09 6.94,67.56"
             style="fill:#efb557;fill-opacity:1;fill-rule:nonzero;stroke:none"
             id="path58" /><path
             d="m 2424.02,1731.3 c 11.45,142.09 81.49,280.59 183.69,378.67 42.45,40.41 102.47,89.2 166.16,65.2 57.34,-21.84 32.56,-126.19 26.42,-167.99 -19.82,-137.77 -57.81,-305.23 -152.42,-412.81 -42.13,-47.6 -91.42,-76.76 -153.87,-47.6 -70.82,32.44 -70.48,117.83 -69.98,184.53 m 858.27,102.01 c 15.87,104.16 46.62,206.57 106.44,294.59 22.05,32.11 55.59,70.94 98.36,69.96 47.99,-0.64 49.37,-52.89 42.89,-87.89 -18.63,-101.74 -68.26,-183.61 -131.31,-264.18 -23.28,-29.68 -48.26,-60.6 -79.18,-83.04 -51.52,-36.49 -37.2,38.65 -37.2,70.56 m 1322.12,34.79 c 19.3,93.96 54.21,206.76 116.71,281.64 22.11,26.29 71.54,67.48 106.38,37.34 32.64,-28.45 16.68,-91.56 6.94,-126.66 -27.07,-98.81 -88.45,-182.97 -157.97,-255.88 -16.22,-16.93 -37.34,-44.27 -61.68,-50.02 -28.5,-6.81 -12.23,98.54 -10.38,113.58 m 1739.33,-11.37 c 17.32,96.17 50.27,197.07 108.86,276.86 20.73,28.04 50.61,57.14 88.48,56.23 47.6,-1.12 44.06,-44.46 39.88,-80.1 -12.42,-101.54 -61.79,-191.47 -128.16,-268.16 -24.4,-27.93 -58.93,-71.94 -93.31,-87.7 -34.72,-16.07 -17,89.79 -15.75,102.87 m -4121.57,374.16 c -97.31,155.29 -318.13,36.49 -427.19,-54.86 -148.52,-123.93 -234.49,-313.22 -269.47,-500.51 -19.96,-106.52 -36.96,-297.13 100.23,-333.36 97.76,-25.96 174.73,43.95 242.27,104.49 28.38,25.18 32.3,8.3 41.01,-23.34 8.89,-32.24 11.12,-60.68 41.19,-81.79 49.63,-35 114.97,4.82 157.66,33.8 54.53,37.13 100.7,85.26 147.52,131.37 10.39,-47.67 22.5,-101.09 58.46,-136.93 43.61,-43.03 111.87,-44.92 166.68,-25.9 53.02,18.18 97.44,53.3 140.39,87.95 7.26,6.15 71.79,59.12 77.22,63.83 18.72,-48.13 36.43,-100.26 81.1,-130.39 38.51,-25.96 86.97,-28.64 131.31,-20.61 54.39,9.69 102.46,35.98 149.92,63.05 16.56,9.35 31.8,21.44 48.79,30.02 14.39,7.24 16.68,-14.85 21.25,-25.78 40.35,-97.17 179.1,-73.3 256.33,-44.53 57.48,21.97 109.08,53.1 162.11,85.01 27.2,16.35 47.79,28.64 73.43,47.15 21.45,15.63 54.87,41.64 73.3,58.13 14.98,-58.13 23.54,-125.88 74.22,-165.82 69.77,-54.94 164.64,-40.69 239.64,-5.43 126.01,58.9 190.09,195.39 246.91,314.2 27.68,-24.4 56.25,-48.66 92.88,-58.79 14.17,-3.93 26.54,-2.15 41.1,-2.03 25.65,0 16.69,-31.25 17.99,-50.41 4.12,-69.18 6.88,-151.45 59.45,-203.56 67.1,-66.7 172.23,-35.31 247.96,-3.47 41.52,17.46 80.82,37.67 119.66,60.68 14.59,8.3 86.64,62.91 90.43,22.56 2.09,-24.98 -49.09,-137.78 10.47,-122.74 70.44,17.6 133.32,52.5 165.24,119.87 77.55,163.2 88.62,352.71 175.58,511.73 27.38,-35.17 16.8,-90.82 52.64,-120.76 29.55,-24.72 75.53,-13.34 108.61,-3.28 10.92,3.6 22.95,7.66 34.53,7.72 18.64,0.33 -2.22,-22.62 -5.95,-29.03 -29.83,-47.73 -50.88,-104.43 -63.75,-159.1 -22.05,-92.91 -46.17,-203.94 23.53,-283.2 77.42,-87.42 207.68,-4.45 274.51,52.83 9.28,7.85 18.11,25.7 31.59,26.74 17.71,1.25 9.02,-24.38 6.34,-31.5 -5.31,-14.34 -12.95,-27.8 -17.79,-42.11 -6.6,-18.58 -45.84,-35.59 -60.68,-46.45 -88.21,-63.36 -179.89,-128.87 -246.2,-216.62 -51.6,-68.28 -94.68,-190.431 -53.22,-273.611 46.43,-93.359 198.97,49.641 240.43,85.602 82.91,72.189 148.91,158.909 208.07,250.979 31.46,48.51 60.38,98.92 85.15,151.17 9.15,18.77 15.16,41.99 29.81,57.29 19.75,21.25 52.71,33.75 77.95,47.08 47.73,24.85 100.64,54.54 152.95,68.27 4.06,1.11 38.38,-76.64 42.83,-83.3 64.67,-99.01 164.53,-96.53 263.07,-50.82 47.87,22.3 90.89,51.13 134.96,79.7 25.31,16.49 46.7,20.94 42.11,-16.21 -3.07,-24.92 -16.8,-49.43 -15.36,-74.47 2.88,-61.35 109.99,8.89 131.82,22.48 16.29,10.27 45.51,21.13 55.14,38.79 8.1,14.84 11.76,32.17 16.4,48.06 15.77,55.71 39.55,110.18 58.52,165.04 40.35,118.23 77.7,238.34 128.63,352.86 29.75,-32.64 21.84,-83.97 50.74,-118.36 30.41,-36.76 73.11,-45.98 118.36,-35.12 39.69,9.16 77.35,29.69 105.8,58.98 9.48,9.67 64.48,98.62 28.52,97.37 -39.82,-1.7 -74.63,-43.03 -113.19,-9.89 -33.88,28.79 -17,88.48 -0.27,121.9 23.99,46.42 64.81,83.44 99.79,121.42 21.11,22.84 46.68,48.85 -1.64,48.27 -42.05,-0.65 -81.6,-20.73 -114.04,-45.96 -18.7,-14.65 -67.68,-55.2 -80.24,-12.36 -5.04,17.38 5.04,54.53 -22.62,55.05 -22.95,0.14 -121.89,-22.95 -137.65,-35.25 -17.46,-13.59 -28.19,-48.57 -37.6,-68.2 -12.23,-25.18 -23.2,-50.28 -33.48,-76.37 -22.89,-56.17 -43.08,-113.4 -64.53,-169.88 -39.81,-104.5 -83.12,-207.48 -167.15,-284.12 -58.98,-54.09 -133.98,-107.5 -219.18,-91.35 -33.16,6.21 -64.8,28.16 -71.93,63.36 -11.19,55.58 12.56,60.02 54.53,81.93 96.39,50.67 190.29,124.83 253.32,214.28 59.51,84.16 98.81,205.39 44.4,301.05 -114.11,200.18 -358.07,-16.4 -434.91,-138.69 -54.53,-87.56 -89.92,-188.38 -106.85,-289.94 -7.64,-46.48 -10.98,-92.52 -6.8,-139.34 0.92,-13.02 5.69,-36.17 -2.81,-47.61 -10.14,-13.87 -37.21,-17.52 -52.64,-21.64 -51.72,-13.28 -94.29,-47.8 -145.43,-62.72 40.16,122.29 80.04,244.77 120,366.92 5.88,18.04 58.14,143.06 46.43,151.38 -19.24,14.05 -63.29,9.42 -84.69,8.75 -100.9,-3.26 -130.64,-124.57 -161.78,-201.13 -21.91,-53.63 -42.36,-107.83 -64.86,-160.94 -20.72,-48.57 -33.81,-83.44 -81.48,-109.12 -65.06,-35.06 -122.02,-9.69 -129.28,65.65 -6.8,71.93 12.23,150.13 34.21,218 29.1,88.73 74.15,175.45 140.71,241.82 64.08,63.55 162.03,116.6 247.38,56.62 35.82,-24.45 63.81,-39.8 97.89,-2.28 36.68,40.8 13.61,91.87 -31.46,113.79 -90.42,43.14 -198.07,27.91 -283.59,-17.93 -80.83,-43.54 -166.16,-115.14 -214.5,-194.54 -20.39,-33.86 -40.27,-68.65 -84.21,-70.54 -46.82,-1.84 -77.62,32.36 -73.5,78.53 8.44,92.91 106.72,131.96 153.92,200.08 21.92,31.47 -33.61,35.45 -52.77,33.22 -51.44,-6.07 -86.37,-48.38 -126.97,-75.39 -14.59,-9.88 -35.59,-12.61 -41.72,8.64 -4.12,14.37 7.32,30.8 1.17,44.27 -16.68,35.3 -97.95,2.15 -121.37,-8.43 -42.96,-19.83 -68.45,-45.59 -82.98,-91.16 -18.05,-55.58 -31.65,-111.64 -52.64,-166.56 -39.24,-102.85 -79.96,-216.7 -147.33,-305.04 -56.75,-74.16 -155.56,-155.96 -254.48,-149.22 -37.02,2.4 -78.15,14.18 -91.75,52.64 -15.45,42.44 -11.04,71.33 32.43,87.42 92.79,34.4 177.2,96.84 239.06,174.34 86.05,108.02 182.58,317.4 32.64,416.34 -81.74,54.2 -201.46,-21.52 -265.49,-74.1 -89.12,-72.57 -140.64,-173.81 -184.13,-278.36 -21.79,-52.77 -38.59,-106.38 -51.93,-161.83 -2.87,-11.84 -4.9,-35.84 -20.47,-38.26 -20.4,-3.07 -45.06,3.39 -61.52,15.68 -40.55,30.02 -40.02,83.05 -33.29,128.24 9.09,60.82 23.75,119.08 27.39,180.74 3.28,50.75 -11.1,145.3 -69.76,162.76 -80.09,23.61 -126.86,-127.58 -134.51,-181 -7,-49.57 -3.21,-104.1 7.26,-153.08 5.95,-27.02 15.96,-53.17 27.46,-78.21 9.47,-20.6 31.91,-43.55 26.54,-67.75 -17.26,-81.86 -93.24,-187.54 -185.17,-193.09 -120.63,-7.07 -101.28,146.8 -93.89,222.39 11.89,119.14 40.72,235.93 77.93,349.39 27.08,82.77 59.04,163.67 96.5,242.79 27.99,58.58 56.25,126.47 112.93,163.6 24.73,16.48 47.04,6.68 35.65,-19.67 -19.3,-44.34 -33.55,-76.39 -44.4,-96.08 -19.88,-35.82 -37.93,-73.1 -62.64,-121.09 -14.91,-28.96 -28.38,-64.8 -31.58,-93.77 139.16,141.76 260.04,311.19 337.66,497.48 24.98,60.69 38.26,160.61 -58.71,152.17 -86.64,-7.58 -165.31,-81.21 -221.74,-140.78 -156.68,-165.37 -257.62,-380.37 -337.66,-590.55 -20.94,-54.78 -40.6,-109.65 -56.05,-166.68 -14.65,-54.08 -17.25,-110.95 -32.62,-164.51 -27.15,-94.57 -144.71,-176.31 -231.56,-209.84 -73.23,-28.25 -226.37,-37.93 -198.32,88.14 6.21,27.46 71.27,40.67 98.94,52.64 50.41,22.03 94.87,57.81 132.68,97.95 63.49,67.17 118.61,152.44 144.43,241.56 22.37,77.28 20.8,201.66 -64.08,243.05 -73.95,36.31 -174.73,-12.82 -235.86,-54.59 -89.45,-60.88 -152.56,-152.37 -198.2,-249.01 -47.54,-100.97 -88.01,-213.18 -96.51,-325.33 -1.89,-26.41 -2.16,-52.5 3.07,-78.4 5.16,-24.26 8.11,-45.97 -15.1,-61.46 -41.85,-27.46 -91.42,-33.56 -130.66,0.92 -42.11,36.73 -29.88,119.19 -26.49,167.52 5.37,77.89 18.19,154.78 37.93,230.17 39.1,150.02 100.45,293.81 167.93,433.03 26.29,54 52.78,110.64 87.76,159.69 9.08,12.75 22.75,33.34 39.74,36.09 18.38,3.34 19.36,-21.72 16.68,-33.42 -14.18,-66.05 -70.23,-175.12 -81.34,-199.31 -17.33,-37.02 -39.11,-92.86 -37.6,-120.84 72.52,84.1 126.93,195.64 190.15,287.85 30.28,43.81 57.68,90.04 80.24,138.36 19.69,42.44 53.03,112.34 29.76,158.9 -16.68,33.28 -62.79,32.31 -94.18,26.43 -53.86,-10.02 -102.65,-41.14 -143.32,-77.31 -81.62,-71.85 -144.92,-170.07 -198.67,-263.65 -26.93,-46.62 -51.38,-94.94 -74.08,-143.79 -11.45,-24.72 -22.3,-49.57 -32.75,-74.61 -8.91,-21.19 -11.92,-36.76 -29.69,-15.17 -71.6,87.95 -205.47,62.05 -287.99,7.77 -185.64,-121.43 -253.26,-347.21 -317.27,-547.11 -21.71,-67.62 -64.35,-170.6 -151.13,-167.46 -59.37,2.09 -27.52,109.39 -19.16,140.31 23.56,86.25 55.2,170.55 84.96,254.51 4.9,13.99 50.67,110.12 36.49,120.12 -22.64,16.35 -80.32,7.72 -104.3,0.67 -97.64,-29.57 -113.26,-164.28 -139.3,-247.06 -26.15,-83.96 -51.52,-199.06 -137.3,-242.73 -36.17,-18.5 -89.4,-26.23 -119.22,7.77 -33.42,37.82 -24.65,98.62 -18.57,144.07 14.59,109.98 52.51,222.91 109.21,318.45 53.48,89.85 140.12,189.69 256.78,178.77 21.78,-2.09 46.29,-13.53 63.3,-27.4 14.59,-12.23 21.51,-37.91 38.97,-45.31 18.24,-8.05 45.52,21.25 54.27,34.39 13.48,20.47 13.73,57.09 6.94,67.56 z"
             style="fill:none;stroke:#231f20;stroke-opacity:1;stroke-width:9.14004;stroke-linecap:round;stroke-linejoin:round;stroke-miterlimit:4;stroke-dasharray:none"
             id="path60" /><path
             d="m 1641.56,2873.74 0,0 c 1.25,-16.93 1.78,-33.94 1.78,-50.88 0,-195.89 -77.7,-394.43 -213.13,-539.59 -140,-149.68 -352.18,-247.63 -541.167,-248.94 -34.199,-0.27 -63.887,4.18 -89.18,11.64 -0.136,-1.58 -0.332,-3.59 -0.332,-5.18 0,-9.86 2.481,-11.31 2.617,-11.36 27.012,-12.23 62.188,-18.13 107.051,-17.66 185.761,1.11 394.691,97.42 532.661,245.02 133.28,142.87 209.98,338.65 209.98,531.82 0,16.73 -0.73,33.14 -1.84,49.96 -2.68,37.26 -9.47,74.94 -18.38,112.26 4.84,-25.68 8.18,-51.58 9.94,-77.09"
             style="fill:#ffffff;fill-opacity:1;fill-rule:nonzero;stroke:none"
             id="path62" /><path
             d="m 5740.88,3388.82 0,0 c -239.59,-52.77 -462.3,-139.8 -661.34,-258.75 -87.11,-52.05 -195.46,-116.86 -281.84,-196.23 l -12.8,-11.64 c -29.7,-26.62 -74.76,-66.7 -77.18,-103.13 -0.06,-1.69 -0.06,-3.39 -0.06,-5.35 0,-12.36 3.46,-24.59 8.63,-36.03 0,0.52 -0.27,1.42 -0.27,2.22 0,1.76 0,3.79 0.06,5.55 2.75,41.27 48.01,81.68 81.23,111.09 l 12.28,11.33 c 87.57,80.55 196.45,145.63 284.2,197.87 199.96,119.59 423.73,207.23 664.5,260.26 447.2,98.53 939.86,28.83 1352.48,-169.24 139.2,-66.84 253.04,-149.22 348.06,-233.18 -99.06,93.63 -221.15,183.94 -373.18,256.99 -410.25,196.89 -900.18,266.6 -1344.77,168.24"
             style="fill:#ffffff;fill-opacity:1;fill-rule:nonzero;stroke:none"
             id="path64" /><path
             d="M 536.465,3506.98 C 359.707,3381.44 245.469,3208.21 196.562,2992.63 c -11.113,-48.79 -16.738,-98.67 -16.738,-149.43 0,-55.9 6.875,-112.93 20.332,-170.53 2.09,-8.69 4.453,-17.79 6.797,-26.54 -12.09,54.66 -18.75,109.31 -18.75,162.75 0,51.46 5.684,102.26 16.992,151.89 49.434,218.68 165.567,393.93 344.746,521.43 189.161,134.18 424.766,193.36 664.239,166.15 165.96,-18.83 313.09,-89.51 430.06,-190.08 -119.01,113.71 -274.3,192.89 -451.51,212.97 C 956.348,3698 723.281,3639.66 536.465,3506.98"
             style="fill:#ffffff;fill-opacity:1;fill-rule:nonzero;stroke:none"
             id="path66" /><path
             d="m 100.645,1492.88 c -56.3677,-4.18 -73.3208,-47.34 -77.5591,-82.91 -1.1718,-9.8 -1.8945,-18.9 -1.8945,-28.18 0,-21.7 4.2383,-41.07 10.7227,-58.71 -0.9766,8.22 -2.2852,16.21 -2.2852,24.84 0,9.42 0.7227,18.83 1.6992,28.97 6.7969,56.62 38.2422,89.9 88.4769,93.51 0,0 -4.922,-0.27 1.035,-0.52 6.738,8.63 8.105,10 8.105,11.17 l 3.145,4.2 c -2.149,6.85 -15.567,8.55 -31.445,7.63"
             style="fill:#ffffff;fill-opacity:1;fill-rule:nonzero;stroke:none"
             id="path68" /><path
             d="m 784.551,2809.86 c -54.336,-97.9 -86.699,-209.65 -112.735,-306.88 l -25.488,-98.61 -17.793,-69.12 -22.617,-83.83 -7.324,-31.39 c -6.934,-30.21 -16.231,-45.17 -22.637,-48.71 -5.625,-2.89 -17.324,0.25 -20.664,1.17 l -24.648,5.18 c -24.454,3.12 -47.735,0.64 -68.34,-6.88 -40.918,-14.98 -68.711,-46.17 -76.367,-85.47 -1.309,-8.1 -2.09,-16.34 -2.09,-24.31 0,-17.46 4.707,-34.14 11.25,-50.04 -0.528,5.57 -1.973,33.42 -0.469,41.99 8.242,43.81 38.984,78.01 83.633,94.3 22.441,8.16 41.601,11.56 68.203,8.69 l 20.937,-5.57 c 8.555,-3.2 17.129,-6.52 22.422,-3.4 9.356,5.57 17.071,39.97 21.192,58.27 l 3.652,14.92 22.5,83.63 17.793,68.99 25.488,99.06 c 26.367,97.56 59.063,210.29 113.926,309.24 112.793,202.63 277.185,300.8 440.195,262.28 27.93,-6.6 46.76,-21.85 67.17,-36.82 -24.14,27.66 -50.24,50.41 -89.85,59.77 -227.046,53.69 -374.429,-161.58 -427.339,-256.46"
             style="fill:#ffffff;fill-opacity:1;fill-rule:nonzero;stroke:none"
             id="path70" /><path
             d="m 487.754,1813.82 -11.25,-29.35 0,0 -69.063,-181.59 -19.082,-50.54 C 362.988,1483.08 334.023,1404.68 279.746,1354 c -26.426,-24.4 -72.851,-47.6 -117.637,-33.15 -3.867,1.43 -7.07,4.9 -10.468,6.66 7.91,-13.34 18.632,-24.45 34.394,-29.69 39.688,-13.06 81.934,8.19 105.664,30.47 52.266,48.66 79.531,122.35 105.684,193.36 l 19.219,51.21 68.867,181 11.699,30.21 c 12.285,30.34 27.324,67.68 27.324,97.31 0,3.2 0,6.35 -0.449,9.47 0,0.08 -1.172,2.95 -10.273,6.6 -4.122,-27.38 -15.235,-57.07 -26.016,-83.63"
             style="fill:#ffffff;fill-opacity:1;fill-rule:nonzero;stroke:none"
             id="path72" /><path
             d="m 7570.06,2160.79 c 0,-76.5 -6.73,-154.84 -20.66,-233.84 C 7479.75,1528.2 7234.54,1163.25 6858.48,898.43 6519.3,659.43 6081.31,487.121 5557.33,385.891 5101.43,298.332 4605.18,260.789 4040.53,271.648 3837.58,275.379 3570,285.32 3300.27,325.73 3072.38,360.52 2837.36,419.109 2601.31,499.801 2351.5,585.602 2144.55,682.898 1967.93,797.922 1836.56,883.309 1708.59,983.18 1585.72,1094.6 1716.56,972.898 1853.36,864.93 1994.47,773.332 2170.06,658.84 2376.37,561.59 2625.04,476.59 2860.59,395.969 3095,337.77 3322.11,303.039 c 269.08,-40.801 536.19,-50.289 738.64,-54.141 563.99,-10.668 1059.59,26.543 1514.31,114.434 522.66,100.508 959.14,272.477 1296.96,510.367 373.24,262.931 616.95,625.341 685.88,1020.821 13.47,78.27 20.66,155.96 20.66,231.94 0,87.56 -10.33,172.83 -28.18,255.02 13.08,-71.47 19.68,-145.35 19.68,-220.69"
             style="fill:#ffffff;fill-opacity:1;fill-rule:nonzero;stroke:none"
             id="path74" /><path
             d="m 7019.73,2246.07 c 0,0 -50.6,-13.28 -60.74,-21 -12.17,-9.41 -21.45,-31.52 -28.77,-49.57 l -40.55,-92.6 -40.99,-107.5 -23.34,-62.05 c -40.55,-106.97 -84.05,-209.31 -168.79,-286.6 -56.62,-52.25 -133.6,-109.92 -224.28,-92.66 -12.75,2.35 -24.59,7.58 -35.39,14.24 13.28,-21.17 36.89,-33.34 57.95,-37.2 85.19,-16.22 159.22,39.62 214.14,89.78 82.54,75.53 125.29,176.29 165.64,281.9 l 23.15,62.26 41.07,107.75 40.67,93.13 c 8.49,19.94 17.93,42.5 32.36,53.95 12.44,9.66 56.89,19.68 56.89,19.68 15.51,4.9 53.5,14.9 68.99,15.82 -1.16,14.91 2.42,25.96 -7.83,26.02 -15.76,0.27 -53.5,-10.26 -70.18,-15.35"
             style="fill:#ffffff;fill-opacity:1;fill-rule:nonzero;stroke:none"
             id="path76" /><path
             d="M 6285.45,2065.77 C 6233.4,1982.73 6200,1883.22 6182.66,1778 c -5.67,-35 -8.75,-67.17 -8.75,-97.69 0,-13.74 0.45,-27.08 1.84,-40.49 l 0.78,-6.86 c 0.72,-6.09 1.5,-13.14 1.5,-20.47 0,-8.96 -1.31,-17.85 -6.29,-24.26 -9.55,-13.02 -33.47,-17.85 -49.82,-21.44 l -9.08,-2.03 c -26.29,-6.8 -50.75,-19.63 -74.42,-31.66 0,0 -27.99,-13.99 -32.05,-16.21 -1.31,-3.66 -9.08,-27.93 -11.11,-34.01 19.94,7.13 39.37,16.68 57.93,25.96 24.39,12.7 49.24,25.76 76.64,32.64 l 9.41,2.22 c 13.81,3.27 32.64,7.52 39.91,17.19 3.12,3.99 12.43,18.63 12.43,25.57 0,6.68 -0.87,13.47 -1.52,19.16 l -0.66,7.52 c -1.37,13.42 -1.9,26.81 -1.9,41.07 0,31.19 -2.14,59.38 3.79,94.75 17.93,106.46 51.55,204.35 104.18,288.63 55.12,87.5 191.08,219 308.64,222.72 32.16,0.85 54.61,-8.75 79.45,-26.68 -26.29,31.79 -52.89,48.53 -91.29,49.37 -109.78,2.23 -248.87,-124.82 -306.82,-217.23"
             style="fill:#ffffff;fill-opacity:1;fill-rule:nonzero;stroke:none"
             id="path78" /><path
             d="m 6064.58,2017.59 -13.08,-0.59 0.08,0 c -83,-2.5 -116.61,-92.2 -143.35,-164.27 l -12.89,-33.21 -24.32,-61.21 -40.68,-99.72 -2.41,-6.08 c -19.68,-46.81 -33.88,-80.37 -81.34,-105.99 -33.5,-18.19 -65.86,-20.02 -90.9,-7.99 7.19,-11.7 16.21,-21.31 28.05,-26.02 21.59,-9.1 48.98,-5.37 77.16,9.87 43.87,23.67 57.48,55.72 76.25,100.11 l 2.68,6.16 40.16,99.45 24.7,61.46 12.56,32.84 c 27.91,75.44 63.36,169.21 154.18,171.83 l 11.84,0.53 c 14.14,1.05 14.45,-1.11 23.86,-3.01 3.68,8.18 5.82,18.57 5.82,18.71 -12.53,10.2 -26.79,8.56 -48.37,7.13"
             style="fill:#ffffff;fill-opacity:1;fill-rule:nonzero;stroke:none"
             id="path80" /><path
             d="m 4200.16,1712.73 c -17,-79.38 -92.6,-191.92 -190.88,-197.54 -21.58,-1.64 -38.85,3.59 -54.14,12.36 15.44,-25.37 39.16,-37.34 73.51,-35.17 92.31,5.29 163.85,112.79 180.01,188.37 0.34,1.84 0.46,4.07 0.46,6.22 0,8.63 -4.06,17.71 -8.96,26.42 0,-0.14 0,-0.33 0,-0.66 z m 26.49,478.79 c -48.53,-31.2 -77.03,-128.95 -82.99,-169.11 l 0,0 c -2.29,-16.46 -3.26,-34.39 -3.26,-52.63 0,-31.92 3.45,-65.45 10.64,-98.34 1.31,-6.49 4,-14.01 5.96,-21 -5.04,28.65 -8.25,57.29 -8.25,84.94 0,18.71 1.18,37.21 3.54,54.22 6.21,43.62 35.7,144.12 87.96,177.27 17.06,11.05 35.3,13.92 54.13,8.49 4.12,-1.36 7.61,-3.59 11.39,-5.43 -9.89,13.68 -21.14,24.48 -34.86,28.4 -15.49,4.83 -30.08,2.4 -44.26,-6.81"
             style="fill:#ffffff;fill-opacity:1;fill-rule:nonzero;stroke:none"
             id="path82" /><path
             d="m 4241.8,2465.38 -10.18,-18.04 c -19.95,-35.59 -38.06,-77.82 -65.93,-115.16 l -19.81,-50.88 c -3.86,-14.84 -14.97,-33.53 -19.1,-42.44 27.01,28.26 97.97,151.52 97.97,151.91 0,0.12 4.51,7.39 4.51,7.39 l 12.15,20.41 10.42,18.49 c 15.34,26.16 32.61,55.98 37.84,83.83 0.47,3.01 0.86,6.02 0.86,8.63 0,5.96 -1.58,10.92 -4.25,13.68 -1.95,2.28 -4.45,2.95 -7.53,2.95 -6.92,-27.6 -22.36,-55.67 -36.95,-80.77"
             style="fill:#ffffff;fill-opacity:1;fill-rule:nonzero;stroke:none"
             id="path84" /><path
             d="m 4376.39,2822.47 0,0 c -83.12,-7.05 -159.88,-77.87 -217.74,-138.88 -166.38,-175.45 -267.24,-407 -336.56,-588.52 -18.46,-48.98 -39.57,-106.78 -55.53,-166.15 -7.24,-25.96 -13.59,-54.34 -17.71,-80.63 -4.65,-27.93 -10,-59.7 -18.05,-87.44 -28.96,-101.35 -153.53,-180.08 -232.15,-210.29 -41.64,-16.21 -118.34,-29.16 -166.93,-4.9 5.57,-9.22 13.01,-17.19 23.53,-22.95 40.88,-21.31 112.62,-13.67 159.24,4.45 94.55,36.35 199.49,120.45 228.87,203.75 18.05,51.41 14.18,47.4 20.14,75.08 6.93,32.62 16.07,91.01 18.69,102.71 11.52,50.36 30.41,107 49.04,156.23 69.71,182.56 171.18,415.49 338.97,592.43 59.06,62.38 138.25,134.78 225.47,142.83 11.97,1.03 35.78,-2.17 45.06,-4.73 -8.3,26.62 -32.24,29.83 -64.34,27.01"
             style="fill:#ffffff;fill-opacity:1;fill-rule:nonzero;stroke:none"
             id="path86" /><path
             d="m 5809.22,2219.19 c -87.5,-46.89 -168.43,-120.45 -212.13,-192.19 0,0 -41.05,-73.04 -89.45,-73.63 -14.65,0 -27.52,3.26 -39.24,9.42 10.86,-21 31.93,-33.03 58.73,-31.92 39.95,1.64 80.04,67.87 80.04,67.87 44.41,73.44 127.58,148.44 216.57,196.45 96.38,51.78 210.82,69.96 288.9,17.91 2.15,-1.43 5.11,-4.04 7.78,-5.69 -7.92,11.78 -18.64,22.7 -33.15,29.42 -80.96,39.04 -184.86,32.3 -278.05,-17.64"
             style="fill:#ffffff;fill-opacity:1;fill-rule:nonzero;stroke:none"
             id="path88" /><path
             d="m 7277.7,2256.79 c -44.73,-0.39 -105.66,-47.23 -105.66,-47.23 -13.62,-10.45 -43.83,-27.58 -63.89,-29.29 0.31,-4.24 0.93,-8.7 0.93,-8.7 2.19,-7.77 5.87,-12.36 11.02,-14.17 15.96,-4.99 45.26,17.91 57.68,27.71 l 2.28,1.78 c 24.79,19.55 69.91,42.5 114.38,46.23 8.96,10.53 13.08,13.53 13.08,15.54 0,0.41 -6.68,4.32 -6.79,4.79 -0.33,0.33 -4.26,3.53 -23.03,3.34"
             style="fill:#ffffff;fill-opacity:1;fill-rule:nonzero;stroke:none"
             id="path90" /><path
             d="m 5259.17,2245.07 c -42.96,-19.47 -66,-44.84 -79.65,-87.28 l -18.64,-60.96 c -10.33,-34.85 -20.86,-70.74 -34.2,-105.92 l -8.12,-21.66 c -37.91,-99.18 -77.03,-201.91 -140.12,-284.9 -59.44,-77.76 -158.9,-158.38 -259.55,-151.56 -25.37,1.81 -44.84,8.55 -61.19,18.1 12.63,-23.87 39.76,-38.07 81.93,-40.99 96.45,-6.29 191.98,71.85 249.65,147.32 62.07,81.21 100.9,183.42 138.11,281.76 l 8.44,21.52 c 13.02,34.79 23.67,70.49 33.75,105.27 l 18.57,61.27 c 14.77,45.26 40.47,73.5 86.25,94.3 15.35,6.99 52.56,27.73 86.31,23.67 0.19,1.56 2.09,5.3 2.09,6.74 0,2.29 0.97,5.23 0,7.38 -12.47,26.29 -67.22,2.68 -103.63,-14.06"
             style="fill:#ffffff;fill-opacity:1;fill-rule:nonzero;stroke:none"
             id="path92" /><path
             d="m 5541.12,2280.91 0,0 c -35.24,-4.18 -63.17,-26.82 -89.9,-48.32 l -34.34,-26.09 c -6.21,-3.93 -12.7,-5.57 -19.22,-6.47 -0.39,-2.5 -0.72,-11.13 -0.19,-13.08 1.5,-5.43 4.43,-9.28 8.43,-10.59 6.47,-2.36 15.82,-0.27 24.71,5.55 l 33.36,25.37 c 28.05,23.03 57.34,46.37 95.66,50.88 6.53,0.78 8.75,0.58 20.08,-1.18 2.6,3.74 6.13,8.5 6.13,10.84 0,1.65 0.47,1.84 0,2.76 -5.74,9.61 -28.24,12.03 -44.72,10.33"
             style="fill:#ffffff;fill-opacity:1;fill-rule:nonzero;stroke:none"
             id="path94" /><path
             d="m 4430.4,1593.14 0.39,-6.99 c 2.09,-37.29 2.37,-76.33 20.27,-114.32 -3.65,30.35 -3.65,107.97 -3.65,111.31 0,7.11 -2.82,13.92 -5.96,17.05 -1.05,1.5 -5.04,1.11 -6.68,1.38 -5.28,-4.78 -4.37,-8.43 -4.37,-8.43"
             style="fill:#ffffff;fill-opacity:1;fill-rule:nonzero;stroke:none"
             id="path96" /><path
             d="m 3385.21,2230.11 0,0 c -77.61,-53.16 -143.61,-135.9 -196.05,-246.6 -57.28,-121.76 -88.59,-227.62 -95.86,-323.36 -1.7,-22.81 -2.62,-49.63 3.09,-76.82 4.43,-22.05 10,-49.18 -17.74,-67.69 -42.89,-28.19 -87.42,-41.39 -123.38,-19.16 3.85,-6.6 8.11,-12.35 13.34,-17 33.99,-29.29 78.99,-17.71 123.58,11.7 19.69,12.89 17.85,30.22 12.75,55.2 -6.01,28.83 -4.84,57.93 -3.26,80.1 7.32,97.44 39.02,204.61 97.17,327.42 53.16,112.73 120.31,196.95 199.82,251.35 44.47,30.35 108.75,73.96 177.09,72.52 10,-0.2 45.76,-13.6 49.77,-15.96 -10.47,13.09 -12.7,11.97 -26.82,20.21 -56.23,32.25 -170.55,-22.75 -213.5,-51.91"
             style="fill:#ffffff;fill-opacity:1;fill-rule:nonzero;stroke:none"
             id="path98" /><path
             d="m 7306.47,1986.52 -0.32,0 c -12.82,-0.59 -33.29,-13.6 -46.69,-16.35 -29.16,-6.33 -51.47,-0.98 -72.78,8.32 2.68,-6.09 25.38,-21.86 30.34,-26.09 22.03,-18.85 42.44,-10.42 65.97,-0.67 0,0 28.32,8.58 33.36,10.53 3.21,8.83 6.66,15.12 6.66,19.3 0,2.34 0.86,5.68 0,6.73 0,0.32 -6.15,0.32 -16.54,-1.77"
             style="fill:#ffffff;fill-opacity:1;fill-rule:nonzero;stroke:none"
             id="path100" /><path
             d="m 4948.87,1453.33 c -1.23,-4.78 -3.2,-13.01 -3.2,-13.01 -4.83,-18.71 -9.46,-42.18 -10.98,-58.73 -1.17,-15.29 6.74,-18.96 9.61,-19.74 1.91,15.1 5.82,31.91 10.08,47.07 4.77,17.15 7.71,32.64 7.52,33.1 -0.32,3.99 -2.03,18.11 -13.03,11.31"
             style="fill:#ffffff;fill-opacity:1;fill-rule:nonzero;stroke:none"
             id="path102" /><path
             d="m 6658.85,1462.75 c -1.38,-5.88 -5.23,-20.47 -5.23,-20.47 -4.06,-13.34 -7.72,-25.9 -7.72,-38.46 0,-0.98 0.2,-20.19 10.26,-20.66 1.83,8.57 14.06,63.96 14.06,66.58 0,8.55 -2.34,11.37 -3.26,12.34 -1.84,1.58 -4.9,1 -8.11,0.67"
             style="fill:#ffffff;fill-opacity:1;fill-rule:nonzero;stroke:none"
             id="path104" /><path
             d="m 5766.2,1413.04 0,0 c -6.55,-0.51 -11.98,-6.66 -18.19,-13.93 l 0,0 c 0,-0.45 -8.43,-21.05 -8.43,-21.05 -5.43,-15.49 -28.38,-28.77 -46.94,-39.49 l -16.03,-9.94 c -88.48,-63.5 -179.16,-128.7 -245.02,-215.34 -38.71,-51.13 -68.46,-125.88 -68.46,-192.571 0,-20.278 3.79,-39.75 10,-57.489 -0.53,7.469 -1.55,14.848 -1.55,22.641 0,70.16 31.25,147.909 71.06,200.219 66.56,87.69 158.05,153.67 246.39,217.22 0.87,0.73 18.12,10.86 18.12,10.86 15.69,9.36 37.27,21.78 41.14,33.17 l 9.54,22.28 8.5,19.88 c 3.26,8.64 4.12,14.59 4.12,17.91 0,2.7 -0.39,4.26 -0.86,4.59 -0.51,1.04 -1.75,1.31 -3.39,1.04"
             style="fill:#ffffff;fill-opacity:1;fill-rule:nonzero;stroke:none"
             id="path106" /><path
             d="m 5515.94,1821.03 c -10.06,-0.14 -20.27,-3.21 -29.29,-5.96 -23.4,-41.46 -42.7,-90.76 -55.18,-143.01 -10.22,-42.89 -22.3,-94.29 -22.3,-144.84 0,-25.43 3.53,-50.35 11.58,-73.69 -1.84,12.87 -3.42,25.62 -3.42,38.85 0,52.24 12.75,104.88 22.97,147.96 14.32,61.02 36.79,116.27 64.39,160.92 l 3.54,4.85 c 2.28,2.95 9.35,12.42 9.35,15.5 0,0.12 0,0.39 0,0.39 l -1.64,-0.97"
             style="fill:#ffffff;fill-opacity:1;fill-rule:nonzero;stroke:none"
             id="path108" /><path
             d="m 4658.62,2191.13 0,0 c -88.81,-75.79 -137.4,-179.36 -176.75,-279.81 -19.41,-50.6 -35.32,-103.57 -48.12,-162.36 l -0.99,-5.96 c -2.42,-13.65 -6.02,-34.12 -23.35,-37.01 -18.5,-3.4 -40.48,1.83 -57.94,11.52 5.29,-8.1 11.5,-15.23 19.3,-20.6 15.88,-11.12 38.77,-16.68 57.48,-13.48 9.08,1.84 11.56,16.62 13.59,27.6 l 1.17,6.54 c 12.95,59.24 29.05,112.87 48.86,163.73 39.56,102.01 89.19,207.17 179.76,284.65 50.99,43.61 179.04,138.24 270.97,80.18 3.93,-2.48 7.52,-5.69 11.12,-8.38 -10.79,12.22 -23.34,22.97 -38.25,32.44 -85.02,53.94 -208.07,-37.35 -256.85,-79.06"
             style="fill:#ffffff;fill-opacity:1;fill-rule:nonzero;stroke:none"
             id="path110" /><path
             d="m 3570.33,2142.08 c 0,-11.44 -1.5,-21.97 -3.01,-29.88 l 0,0 c -20.46,-112.21 -78.47,-197.68 -132.28,-266.6 -24.65,-31.78 -49.83,-62.05 -80.51,-83.95 -6.4,-4.45 -11.31,-6.21 -16.4,-8.04 0.58,-17.27 4.12,-23.56 7.18,-24.98 4.12,-2.04 12.17,0.72 22.31,8.04 29.68,21.17 53.94,50.86 78.28,81.74 52.95,67.74 109.84,151.95 130.12,261.49 0.78,5.42 2.48,15.89 2.48,27.65 0,12.64 -2.09,26.43 -8.5,37.01 0,-0.78 0.33,-1.75 0.33,-2.48"
             style="fill:#ffffff;fill-opacity:1;fill-rule:nonzero;stroke:none"
             id="path112" /><path
             d="m 2115,2024.58 c -77.03,-23.08 -100.9,-114.1 -121.84,-194.41 l -13.45,-48.85 -8.97,-28.89 c -23.61,-79.25 -52.89,-177.53 -131.36,-217.5 -31.92,-16.21 -72.58,-21.5 -103.77,-5.87 2.2,-3.54 3.51,-8.19 6.21,-11.45 26.79,-30.47 75.64,-25.23 112.34,-6.6 73.95,37.85 102.46,133.32 125.55,210.15 l 8.83,29.36 13.34,48.34 c 20.66,78.93 46.42,177.32 129.72,202.64 17.01,4.9 38.46,10.91 66.64,7.38 1.31,6.02 3.85,10.27 3.85,12.75 0,2.56 -0.39,3.6 -0.45,3.68 -19.75,13.92 -62.85,6.4 -86.64,-0.73"
             style="fill:#ffffff;fill-opacity:1;fill-rule:nonzero;stroke:none"
             id="path114" /><path
             d="m 2594.96,2229.52 c -178.18,-116.46 -247.69,-333.77 -308.85,-525.43 l -6.07,-18.49 c -37.74,-118.11 -89.26,-174.2 -156.99,-171.72 0,0 -3.01,0.64 -6.02,1.56 5.16,-19.8 16.99,-23.98 26.35,-24.26 61.99,-2.14 109.53,51.22 145.62,163.48 l 5.94,18.52 c 61.88,193.61 132.03,413 313.5,531.81 79.57,51.99 168.51,77.03 242.4,24.4 -65.98,79.31 -169.49,56.89 -255.88,0.13 z m 762.13,566.8 c -46.09,-8.57 -93.38,-34 -140.59,-75.72 -83.77,-73.83 -146.68,-174.06 -197.67,-262.54 -25.65,-44.41 -49.71,-91.23 -73.77,-143.28 l -32.76,-74.42 -2.61,-6.46 c -4.77,-11.78 -15.18,-35.57 -23.54,-36.88 -3.4,-0.46 -8.57,1.96 -11.44,3.71 6.27,-5.54 8.24,-7.83 14.12,-13.92 7.13,-7.44 13.4,-11.64 13.4,-11.64 2.03,0.86 14.53,23.03 16.62,28.77 l 2.81,6.54 32.89,74.75 c 24.06,52.3 48.58,99.59 74.22,144.45 51.27,88.98 115.02,190.41 199.9,265.29 48.83,43.03 98.21,69.57 146.21,78.54 17.58,3.06 33.87,5.74 50.02,0.06 -0.72,2.14 -1.56,6.73 -1.56,6.73 -4.12,32.43 -40.29,20.79 -66.25,16.02"
             style="fill:#ffffff;fill-opacity:1;fill-rule:nonzero;stroke:none"
             id="path116" /><path
             d="m 2832.79,2085.07 c 0,-26.62 -4.7,-54.67 -8.24,-75.6 l -2.28,-15.36 0,0 c -17.99,-123.79 -53.25,-301.32 -154.07,-415.56 -52.63,-59.9 -103.71,-75.59 -160.54,-49.38 -4.24,1.98 -7.52,4.46 -11.18,6.55 9.67,-12.43 21.06,-23.48 36.1,-30.47 51.6,-23.42 98.28,-8.77 146.87,46.56 98.79,111.82 133.52,287.32 151.18,409.73 l 2.48,15.31 c 3.34,20.58 8.04,48.38 8.04,73.83 0,19.27 -2.81,37.13 -10.19,50.99 0.52,-5.49 1.83,-10.92 1.83,-16.6"
             style="fill:#ffffff;fill-opacity:1;fill-rule:nonzero;stroke:none"
             id="path118" /><path
             d="m 4889.24,2146.07 c 0,-23.93 -5.75,-50.28 -12.36,-73.69 l 0,0 c -23.13,-85.73 -75.53,-170.14 -159.22,-257.97 l -8.17,-8.64 c -13.21,-14.57 -29.9,-31.5 -48.2,-39.21 1.04,-20.41 5.04,-25.77 6.27,-26.57 0.47,-0.64 1.25,-0.9 2.77,-0.64 18.48,4.65 36.14,23.92 50.4,39.43 l 8.39,9.28 c 82.46,86.33 133.78,169.1 156.67,252.87 4.51,16.29 12.04,44.98 12.04,71.47 0,13.41 -3.16,25.31 -8.65,35.5 0.06,-0.58 0.06,-1.11 0.06,-1.83"
             style="fill:#ffffff;fill-opacity:1;fill-rule:nonzero;stroke:none"
             id="path120" /><path
             d="m 3295.35,2530.25 -0.31,-0.14 c -7.33,-28.77 -21.84,-56.37 -36.37,-83.11 l -18.96,-36.36 c -13.85,-29.08 -25.63,-47.46 -44.73,-79.12 0,0 -25.43,-61.33 -31.19,-75.34 2.69,3.23 66.78,95.8 66.78,95.8 0.25,1.39 18.69,29.18 18.69,29.18 l 19.29,37.27 c 15.04,27.46 30.53,56.09 36.88,85.27 0.66,2.87 1.84,8.03 1.84,10.98 0,6.29 -1.31,9.49 -4.07,12.62 -1.23,1.19 -3.79,3.59 -7.85,2.95"
             style="fill:#ffffff;fill-opacity:1;fill-rule:nonzero;stroke:none"
             id="path122" /><path
             d="m 6623.46,2127.9 c -11.64,-93.84 -54.92,-185.06 -129.59,-271.17 l -8.77,-10.21 c -22.56,-26.41 -53.22,-62.31 -83.95,-77.62 1.3,-19.94 5.43,-24.9 6.78,-25.76 0.53,-0.33 2.17,-1.25 6.1,0.52 29.02,13.54 59.82,49.63 82.32,76.06 l 8.56,10.14 c 73.18,84.47 115.82,173.67 126.93,264.96 1.23,10.25 2.24,20.52 2.24,29.8 0,12.36 -3.16,22.05 -8.59,29.57 -0.25,-8.83 -1.03,-17.85 -2.03,-26.29"
             style="fill:#ffffff;fill-opacity:1;fill-rule:nonzero;stroke:none"
             id="path124" /><path
             d="m 1805.12,2165.64 0,0 c -133.54,-111.43 -228.36,-288.05 -267.66,-496.92 -7.19,-39.16 -13.14,-84.41 -13.14,-128.69 0,-33.87 4.39,-66.56 13.14,-96.25 -3.01,20.41 -4.65,41.19 -4.65,62.52 0,45.9 6.23,91.88 13.23,129.86 39.68,211.74 136.01,390.9 271.75,504.3 43.23,36.02 236.98,204.4 375.28,101.54 -26.49,30.28 -41.45,46.37 -81.21,51.66 -123.32,16.16 -265.88,-93.63 -306.74,-128.02"
             style="fill:#ffffff;fill-opacity:1;fill-rule:nonzero;stroke:none"
             id="path126" /></g></g></g></g></svg>