<svg enable-background="new 0 0 323.003 164" height="164" viewBox="0 0 323.003 164" width="323.003" xmlns="http://www.w3.org/2000/svg">
  <path d="m70.885 39.992c-9.611 0-18.168-4.538-23.739-11.174 3.581 9.194 12.843 16.043 23.739 16.043 10.894 0 20.158-6.845 23.737-16.04-5.569 6.633-14.128 11.171-23.737 11.171" fill="#df0109"/>
  <g fill="#ed1c24">
    <path d="m120.93 111.44c4.169 0 7.562-3.387 7.562-7.557 0-4.184-3.393-7.571-7.562-7.571-4.184 0-7.562 3.387-7.562 7.571 0 4.17 3.378 7.557 7.562 7.557"/>
    <path d="m283.535 84.36c0 11.517-8.308 16.555-12.74 18.443 6.554 2.113 15.262 9.087 15.262 19.648 0 10.341-8.559 20.859-19.848 20.859h-53.662c-.349 0-.451-.391.02-.56 4.772-2.205 9.027-3.858 9.027-11.949v-57.092c0-4.521-4.438-7.265-8.745-8.787-.428-.148-.231-.48.077-.48h49.358c11.242 0 21.251 7.08 21.251 19.918m-35.147-16.357c-2.699 0-5.872.111-8.276.374v32.616h8.276c10.453 0 18.355-7.443 18.355-16.044 0-9.763-7.637-16.946-18.355-16.946zm-8.276 37.671v33.696c1.833.414 5.063.737 8.276.737 9.858 0 19.014-6.84 19.014-16.864 0-7.922-4.901-17.569-19.014-17.569z"/>
    <path d="m195.972 84.36c0 11.517-8.314 16.555-12.744 18.443 6.559 2.113 15.26 9.087 15.26 19.648 0 10.341-8.559 20.859-19.844 20.859h-53.665c-.348 0-.454-.391.017-.56 4.772-2.205 9.03-3.858 9.03-11.949v-57.092c0-4.521-4.438-7.265-8.747-8.787-.425-.148-.226-.48.077-.48h49.361c11.239 0 21.255 7.08 21.255 19.918m-35.157-16.357c-2.696 0-5.866.111-8.271.374v32.616h8.271c10.455 0 18.363-7.443 18.363-16.044 0-9.763-7.637-16.946-18.363-16.946zm-8.271 37.671v33.696c1.828.414 5.066.737 8.271.737 9.864 0 19.02-6.84 19.02-16.864 0-7.922-4.9-17.569-19.02-17.569z"/>
    <path d="m208.489 111.44c4.178 0 7.565-3.387 7.565-7.557 0-4.184-3.387-7.571-7.565-7.571-4.17 0-7.562 3.387-7.562 7.571 0 4.17 3.392 7.557 7.562 7.557"/>
    <path d="m160.032 154.712c-18.249 0-32.762-4.458-47.49-15.308-4.581-3.373-8.747-6.626-13.517-9.29 5.286-7.023 8.51-16.141 8.51-26.14 0-22.151-15.707-40.115-35.081-40.115-19.38 0-35.087 17.963-35.087 40.115 0 10.241 3.384 19.554 8.907 26.643-2.964 1.811-5.098 3.758-6.06 5.555 2.393-.82 5.297-1.814 8.416-2.799 6.266 6.626 14.61 10.709 23.823 10.709 8.379 0 16.067-3.37 22.099-8.976 18.155 9.973 27.479 28.879 61.641 28.879 18.746 0 39.829-7.431 49.379-19.103-12.682 5.577-27.471 9.83-45.54 9.83m-104.867-50.738c0-18.98 7.736-34.374 17.289-34.374 9.539 0 17.272 15.394 17.272 34.374 0 8.002-1.388 15.347-3.693 21.188-3.915-.86-8.359-1.351-13.58-1.351-4.778 0-9.342.64-13.477 1.674-2.377-5.889-3.811-13.363-3.811-21.511zm17.289 34.371c-4.289 0-8.202-3.118-11.224-8.256 3.084-.588 6.117-.98 8.916-.98 4.963 0 9.296.563 13.188 1.542-2.969 4.809-6.756 7.694-10.88 7.694z"/>
  </g>
  <g fill="#df0109">
    <path d="m6.649 4.429v-4.035h3.812v4.035h5.953v3.477h-5.953v3.06c1.251-.25 2.559-.388 3.894-.388 5.288 0 7.931 2.643 7.931 7.067 0 4.228-2.616 6.955-8.041 6.955-.557 0-1.337-.056-2.032-.14l.111-3.588c.751.111 1.447.139 2.004.139 3.144 0 4.145-1.057 4.145-3.394 0-2.476-1.502-3.756-4.841-3.756-1.085 0-2.142.139-3.172.417v5.509c0 3.2-1.336 4.897-4.368 4.897-3.783-.001-6.092-1.949-6.092-4.425 0-3.283 2.67-6.343 6.649-8.096v-4.257h-6.065v-3.477zm-3.143 15.302c0 .778.64 1.475 1.863 1.475.974 0 1.28-.474 1.28-1.531v-3.811c-1.893 1.168-3.143 2.643-3.143 3.867zm20.949-11.852-2.643 2.532c-1.057-1.448-3.199-3.478-4.897-4.564l2.338-2.532c1.892 1.224 4.005 3.256 5.202 4.564z"/>
    <path d="m35.04 4.066c-.278 2.142-.445 4.118-.445 5.899 0 5.843 1.558 9.264 3.06 9.264.808 0 1.642-1.613 2.088-4.062l3.227 1.448c-1.057 4.756-2.837 6.955-5.148 6.955-3.31 0-7.094-4.23-7.094-13.523 0-1.919.083-4.034.278-6.343zm13.271-1.056c4.23 4.479 5.509 8.986 5.759 15.442l-4.201.361c-.027-6.427-1.168-9.905-4.841-13.688z"/>
    <path d="m66.24.701c-.445 5.87-.584 11.324-.584 13.883 0 4.619 1.418 6.26 4.841 6.26 3.283 0 5.536-1.696 7.373-7.317l3.645 1.781c-2.81 7.373-6.483 9.376-11.129 9.376-5.926 0-8.598-3.394-8.598-10.016 0-2.616.167-8.069.251-13.967h4.201z"/>
    <path d="m91.152 4.066c-.279 2.142-.446 4.118-.446 5.899 0 5.843 1.558 9.264 3.06 9.264.808 0 1.642-1.613 2.088-4.062l3.227 1.448c-1.057 4.756-2.837 6.955-5.148 6.955-3.31 0-7.094-4.23-7.094-13.523 0-1.919.083-4.034.279-6.343zm13.271-1.056c4.23 4.479 5.509 8.986 5.759 15.442l-4.201.361c-.027-6.427-1.168-9.905-4.841-13.688z"/>
  </g>
  <g fill="#1e120d">
    <path d="m126.191 8.88c4.869 0 7.762 2.616 7.762 7.011 0 5.036-3.227 8.263-12.157 8.402l-.641-3.506c7.013-.027 9.154-1.781 9.154-4.702 0-2.476-1.531-3.783-4.758-3.783-2.03 0-5.954.918-9.264 2.002l-.862-3.588c3.894-.779 8.262-1.836 10.766-1.836z"/>
    <path d="m150.266 2.8c2.476-.201 5.565-.545 7.706-.833l.473 3.9c-1.308.086-3.533.373-4.535.603-.5.114-1.613.63-2.086.974-3.2 2.238-4.925 4.904-4.925 8.056 0 3.069 2.587 5.132 9.487 5.419l-.5 3.928c-8.263-.287-12.966-3.297-12.966-9.174 0-3.47 1.642-6.594 4.479-9.032-2.783.287-7.624.66-10.989.861l-.307-3.842c3.84-.143 11.212-.603 14.163-.86z"/>
    <path d="m163.464 16.711c1.948 1.781 4.257 4.202 5.676 5.983l-3.117 2.587c-1.139-1.642-3.477-4.48-5.34-6.204z"/>
    <path d="m188.733 21.606v-4.954h-6.871v-3.366h6.871v-4.507h-5.035c-.78 1.642-1.698 3.2-2.783 4.647l-3.394-1.725c2.449-3.033 4.034-6.733 4.785-10.628l3.728.695c-.278 1.225-.584 2.449-.974 3.617h3.673v-5.37h3.813v5.369h9.097v3.394h-9.097v4.508h7.067v3.366h-7.067v4.954h10.6v3.421h-25.263v-3.421z"/>
    <path d="m209.751 9.374c3.588 0 7.539-.111 11.379-.361-.223-.585-.445-1.225-.64-1.865-3.256.223-6.567.39-9.516.417l-.194-3.283c2.782 0 5.814-.111 8.792-.278-.251-.945-.445-1.891-.613-2.837l4.063-.446c.111 1.003.25 1.976.445 2.977 2.448-.223 4.729-.501 6.704-.834l.474 3.283c-1.892.25-4.091.501-6.427.722.167.641.361 1.252.584 1.865 2.532-.223 4.925-.501 7.011-.835l.361 3.311c-1.752.25-3.811.445-5.982.64.891 1.698 2.003 3.2 3.367 4.452l-1.754 2.809c-3.116-1.474-6.566-2.225-9.57-2.225-2.449 0-3.561 1.085-3.561 2.336 0 1.448 2.086 2.505 6.76 2.505 1.42 0 3.423-.083 5.453-.278l-.25 3.561c-1.502.14-3.144.196-4.396.196-7.929 0-11.324-2.393-11.324-6.01 0-3.171 2.338-5.37 6.844-5.37 1.892 0 4.229.278 6.066.835-.473-.724-.918-1.558-1.364-2.505-4.312.307-8.792.501-12.52.557z"/>
    <path d="m255.697 1.577 1.808 2.67c-2.086 1.669-5.175 4.312-7.038 6.093.807-.25 1.669-.388 2.587-.388 4.562 0 7.178 3.45 7.178 7.234 0 4.729-3.283 7.762-9.877 7.762-4.591 0-7.067-1.892-7.067-4.702 0-2.449 2.253-4.424 5.565-4.424 3.254 0 5.091 1.752 5.703 4.979 1.196-.695 1.836-1.836 1.836-3.477 0-2.282-1.781-4.257-4.424-4.257-.891 0-2.365.194-3.423.557-2.448.862-5.509 3.198-8.041 5.563l-2.503-2.893c4.201-3.004 9.543-7.762 12.547-10.795-2.226.223-6.399.445-9.403.584l-.223-3.644c4.174.001 11.129-.389 14.775-.862zm-6.817 17.223c-1.364 0-2.226.555-2.226 1.391 0 .945.974 1.529 3.34 1.529.5 0 .974 0 1.418-.056-.223-1.835-1.03-2.864-2.532-2.864z"/>
    <path d="m266.112 19.091c0-1.754 1.085-3.978 3.199-6.093l2.922 2.031c-1.362 1.308-2.113 2.587-2.113 3.506 0 1.446 2.197 1.865 7.428 1.865 2.365 0 5.62-.307 8.012-.947l.613 3.978c-2.532.474-5.955.751-8.876.751-7.428 0-11.184-1.28-11.184-5.063v-.028zm10.461-16.026c2.503 0 5.092-.084 7.372-.334l1.419 3.311c-1.642.945-5.647 3.894-7.512 5.398l-2.615-2.31c1.251-.834 2.726-1.892 3.7-2.587-1.057.056-2.449.111-3.423.111-2.809 0-5.592-.334-7.956-.778l.613-3.561c2.309.5 5.231.751 8.373.751h.029z"/>
    <path d="m310.388 10.285c-7.484 2.059-14.496 4.675-14.496 7.958 0 1.863 1.921 2.921 7.624 2.921 2.56 0 5.426-.223 7.902-.64l.361 3.838c-2.782.363-5.425.474-8.291.474-7.652 0-11.546-2.032-11.546-6.427 0-3.006 2.309-5.342 5.982-7.374-1.446-2.643-1.642-5.759-1.642-10.35h3.98c0 4.034.11 6.761 1.028 8.736 2.31-.974 4.925-1.892 7.708-2.782z"/>
    <path d="m323.003 21.424c0 2.031-1.669 3.755-3.784 3.755-2.086 0-3.784-1.725-3.784-3.784 0-2.115 1.698-3.784 3.784-3.784 2.115 0 3.784 1.669 3.784 3.784zm-5.982 0c0 1.168.974 2.17 2.197 2.17 1.224 0 2.226-.974 2.226-2.199 0-1.224-1.002-2.225-2.226-2.225s-2.197 1.001-2.197 2.225z"/>
  </g>
</svg>
