<?xml version="1.0" encoding="utf-8"?>
<!-- Generator: Adobe Illustrator 13.0.0, SVG Export Plug-In . SVG Version: 6.00 Build 14948)  -->
<!DOCTYPE svg PUBLIC "-//W3C//DTD SVG 1.1//EN" "http://www.w3.org/Graphics/SVG/1.1/DTD/svg11.dtd">
<svg version="1.1" id="Layer_1" xmlns="http://www.w3.org/2000/svg" xmlns:xlink="http://www.w3.org/1999/xlink" x="0px" y="0px"
	 width="178.756px" height="88.756px" viewBox="0 0 178.756 88.756" enable-background="new 0 0 178.756 88.756"
	 xml:space="preserve">
<g>
	<polygon fill-rule="evenodd" clip-rule="evenodd" fill="none" points="0,0 178.756,0 178.756,88.756 0,88.756 0,0 	"/>
	<path fill-rule="evenodd" clip-rule="evenodd" fill="#ED1C24" d="M57.391,73.58c1.913-3.34,2.641-7.555,1.896-11.465
		c-0.356-1.895-1.04-3.652-2.014-5.232c0.002-1.924-0.125-4.613,1.059-7.016c0.885-1.672,1.74-2.182,2.858-2.766
		c1.485-0.736,3.624-1.078,5.732-1.074h8.907V40.09H59.129V30.068h15.588c1.43,0,2.863,0.109,4.042,0.318
		c2.01,0.385,3.424,0.904,4.899,2.275c2.176,2.182,2.897,4.757,2.935,7.428v40.453H65.81c-1.003,0-2.009-0.104-2.852-0.291
		c-2.204-0.33-4.071-2.268-4.858-4.197C57.764,75.289,57.521,74.441,57.391,73.58L57.391,73.58z M66.923,55.305v16.33h8.907v-16.33
		H66.923L66.923,55.305z"/>
	<path fill-rule="evenodd" clip-rule="evenodd" fill="#ED1C24" d="M110.718,13.368h11.134v67.544h-18.93
		c-1.44,0-2.888-0.152-4.086-0.436c-1.198-0.281-2.146-0.686-2.975-1.236c-3.044-2.223-4.013-5.094-4.073-7.975V39.719
		c0.042-2.051,0.319-4.15,1.665-6.008c2.144-2.684,5.186-4.018,7.983-4.013h9.281V13.368L110.718,13.368z M102.552,39.719v31.547
		h8.166V39.719H102.552L102.552,39.719z"/>
	<polygon fill-rule="evenodd" clip-rule="evenodd" fill="#ED1C24" points="137.81,29.698 137.81,80.543 126.676,80.543 
		126.676,29.698 137.81,29.698 	"/>
	<path fill-rule="evenodd" clip-rule="evenodd" fill="#ED1C24" d="M159.708,30.068c1.428,0,2.861,0.109,4.041,0.318
		c2.01,0.385,3.425,0.904,4.897,2.275c2.179,2.182,2.897,4.757,2.937,7.428v40.453H150.8c-1.096,0-2.194-0.127-3.102-0.352
		c-1.547-0.406-2.677-0.988-3.869-2.771c-1.007-1.525-1.581-3.52-1.565-5.414V55.305c0-1.088,0.099-2.178,0.284-3.107
		c0.339-1.543,0.751-2.738,1.936-3.938c0.464-0.449,1.017-0.832,1.697-1.158c1.485-0.736,3.623-1.078,5.731-1.074h8.907V40.09
		H144.12V30.068H159.708L159.708,30.068z M151.912,55.305v16.33h8.907v-16.33H151.912L151.912,55.305z"/>
	<path fill-rule="evenodd" clip-rule="evenodd" d="M132.155,13.093c1.36,0.017,2.875,0.38,4.271,1.74
		c2.052,2.358,2.767,5.238,0,8.573c-2.354,2.055-5.221,2.771-8.546,0c-2.049-2.356-2.767-5.236,0.003-8.573
		C129.056,13.652,130.644,13.088,132.155,13.093L132.155,13.093z"/>
	<path fill-rule="evenodd" clip-rule="evenodd" d="M45.976,6.36c3.277-0.067,7.788-0.027,11.668,0.327v11.134
		c-3.717-0.312-7.46-0.305-9.888-0.348c-2.428-0.045-3.554-0.004-4.584,0.015s-1.965,0.019-3.413,0.089
		c-1.448,0.068-3.407,0.208-5.569,0.559c-2.163,0.351-4.529,0.915-6.367,1.517c-1.838,0.601-3.15,1.24-4.298,1.983
		c-5.946,4.164-7,8.92-4.125,13.498c1.204,2.158,3.107,3.484,4.946,4.275c2.033,0.885,3.77,1.527,5.572,2.314
		c0.922,0.384,1.907,0.77,3.282,1.27c2.788,1.045,7.534,2.5,11.806,4.432c2.186,1.006,4.196,2.164,5.9,3.326
		c7.605,5.266,8.446,9.561,8.667,14.576c-0.083,3.676-0.941,7.432-4.469,11.354c-0.952,1.023-2.04,1.941-3.212,2.711
		c-1.171,0.77-2.427,1.393-3.863,1.881c-1.436,0.49-3.051,0.842-4.994,1.02c-3.754,0.322-9.724,0.072-15.195-1.039
		c-2.679-0.576-5.02-1.41-7.251-2.295c-2.233-0.885-4.357-1.818-5.988-2.773c-1.631-0.955-2.724-1.967-3.72-3.066l5.196-9.648
		c1.816,1.32,3.76,2.463,5.749,3.451c1.987,0.986,4.031,1.801,6.301,2.531c2.27,0.73,4.767,1.375,6.863,1.754
		c2.096,0.377,3.794,0.486,5.19,0.455c1.396-0.029,2.492-0.201,3.449-0.482c0.958-0.281,1.776-0.672,2.442-1.117
		c3.142-2.377,2.83-4.813,1.507-7.697c-0.391-0.719-0.904-1.389-1.617-2.027c-2.194-2.09-6.847-3.332-10.481-4.863
		c-1.168-0.496-2.314-1.059-4.025-1.793c-1.71-0.732-3.987-1.639-5.5-2.242c-1.514-0.604-2.264-0.906-3.686-1.563
		c-1.42-0.656-3.513-1.67-5.26-2.732c-1.749-1.063-3.153-2.176-4.337-3.282c-5.686-5.377-5.704-9.465-5.394-14.61
		c0.478-3.994,1.888-8.42,5.556-12.583c2.293-2.591,5.205-4.658,8.1-6.123c3.27-1.738,7.369-2.598,11.625-3.128
		c2.255-0.283,4.447-0.455,6.021-0.588c1.573-0.132,2.527-0.225,3.58-0.3C43.211,6.455,44.361,6.393,45.976,6.36L45.976,6.36z"/>
</g>
</svg>
