<?xml version="1.0" encoding="utf-8"?>
<!-- Generator: Adobe Illustrator 15.0.0, SVG Export Plug-In . SVG Version: 6.00 Build 0)  -->
<!DOCTYPE svg PUBLIC "-//W3C//DTD SVG 1.1//EN" "http://www.w3.org/Graphics/SVG/1.1/DTD/svg11.dtd" [
	<!ENTITY st0 "clip-path:url(#SVGID_2_);fill-rule:evenodd;clip-rule:evenodd;fill:#E30D13;">
	<!ENTITY st1 "clip-path:url(#SVGID_2_);fill-rule:evenodd;clip-rule:evenodd;fill:#FFD406;">
	<!ENTITY st2 "clip-path:url(#SVGID_2_);fill-rule:evenodd;clip-rule:evenodd;fill:#010202;">
]>
<svg version="1.1" id="Ebene_1" xmlns="http://www.w3.org/2000/svg" xmlns:xlink="http://www.w3.org/1999/xlink" x="0px" y="0px"
	 width="534.523px" height="225px" viewBox="0 0 534.523 225" style="enable-background:new 0 0 534.523 225;" xml:space="preserve"
	>
<g>
	<defs>
		<rect id="SVGID_1_" x="4.784" y="5.327" width="523.844" height="213.912"/>
	</defs>
	<clipPath id="SVGID_2_">
		<use xlink:href="#SVGID_1_"  style="overflow:visible;"/>
	</clipPath>
	<path style="&st2;" d="M486.3,201.705h4.247v17.516H486.3V201.705z M470.208,204.838h-12.062v3.701h11.414
		c1.791,0,3,0.283,3.614,0.857c0.624,0.572,0.933,1.664,0.933,3.263v2.409c0,1.612-0.318,2.7-0.951,3.281
		c-0.628,0.579-1.833,0.87-3.596,0.87h-11.371c-1.81,0-3.033-0.291-3.676-0.87c-0.642-0.581-0.961-1.669-0.961-3.281v-0.48
		l3.807-0.71v2.063h12.881v-4.006h-11.348c-1.791,0-3.005-0.288-3.638-0.874c-0.638-0.591-0.956-1.678-0.956-3.274v-1.961
		c0-1.575,0.318-2.658,0.956-3.244c0.633-0.586,1.847-0.877,3.638-0.877h10.401c1.771,0,2.977,0.284,3.638,0.844
		c0.651,0.559,0.975,1.545,0.975,2.961v0.419l-3.698,0.788V204.838z M423.511,219.22v-17.516h4.313v7.078l10.219-7.078h6.188
		l-12.122,8.112l13.473,9.403h-6.75l-11.007-7.906v7.906H423.511z M389.213,219.22v-17.516h2.938l14.859,11.625v-11.625h3.872
		v17.516h-2.958l-14.821-11.813v11.813H389.213z M372.352,201.705h4.244v17.516h-4.244V201.705z M340.617,219.22v-17.516h15.778
		c1.443,0,2.491,0.268,3.136,0.802c0.646,0.53,0.971,1.401,0.971,2.602v4.116c0,1.186-0.324,2.043-0.971,2.575
		c-0.645,0.522-1.692,0.788-3.136,0.788h-2.405l8.335,6.633h-6.132l-7.345-6.633h-4.026v6.633H340.617z M354.576,204.721h-9.754
		v4.85h9.754c0.741,0,1.252-0.112,1.528-0.328c0.276-0.214,0.413-0.577,0.413-1.088v-2.018c0-0.511-0.137-0.879-0.413-1.09
		C355.828,204.832,355.317,204.721,354.576,204.721 M323.752,201.705h4.244v17.516h-4.244V201.705z M307.659,204.838h-12.063v3.701
		h11.414c1.796,0,3.003,0.283,3.617,0.857c0.623,0.572,0.933,1.664,0.933,3.263v2.409c0,1.612-0.319,2.7-0.954,3.281
		c-0.626,0.579-1.83,0.87-3.596,0.87h-11.369c-1.81,0-3.033-0.291-3.675-0.87c-0.643-0.581-0.961-1.669-0.961-3.281v-0.48
		l3.804-0.71v2.063h12.886v-4.006h-11.351c-1.791,0-3.005-0.288-3.64-0.874c-0.636-0.591-0.954-1.678-0.954-3.274v-1.961
		c0-1.575,0.318-2.658,0.954-3.244c0.635-0.586,1.849-0.877,3.64-0.877h10.401c1.77,0,2.977,0.284,3.636,0.844
		c0.653,0.559,0.977,1.545,0.977,2.961v0.419l-3.698,0.788V204.838z M263.031,192.419h2.609l3.398,4.232l3.354-4.232h2.651
		l-3.807,7.04h-4.402L263.031,192.419z M275.372,204.838h-12.059v3.701h11.411c1.796,0,3.005,0.283,3.619,0.857
		c0.619,0.572,0.933,1.664,0.933,3.263v2.409c0,1.612-0.318,2.7-0.954,3.281c-0.628,0.579-1.828,0.87-3.598,0.87h-11.37
		c-1.81,0-3.032-0.291-3.672-0.87c-0.643-0.581-0.961-1.669-0.961-3.281v-0.48l3.804-0.71v2.063h12.883v-4.006h-11.352
		c-1.786,0-3.002-0.288-3.639-0.874c-0.633-0.591-0.953-1.678-0.953-3.274v-1.961c0-1.575,0.32-2.658,0.953-3.244
		c0.636-0.586,1.853-0.877,3.639-0.877h10.405c1.767,0,2.977,0.284,3.633,0.844c0.656,0.559,0.979,1.545,0.979,2.961v0.419
		l-3.703,0.788V204.838z M242.318,201.705h4.246v17.516h-4.246V201.705z M189.105,212.177h8.031l-4.081-7.299L189.105,212.177z
		 M180.813,219.22l10.399-17.516h4.109l10.555,17.516h-4.789l-2.211-3.847h-11.584l-2.21,3.847H180.813z M150.65,219.22v-17.516
		h11.794c3.381,0,5.978,0.75,7.795,2.26c1.814,1.495,2.719,3.643,2.719,6.44c0,2.933-0.959,5.143-2.879,6.614
		c-1.926,1.47-4.827,2.201-8.713,2.201H150.65z M154.958,215.941h5.503c3.002,0,5.109-0.434,6.302-1.313
		c1.202-0.877,1.802-2.354,1.802-4.432c0-1.803-0.497-3.148-1.498-4.034c-0.994-0.881-2.526-1.324-4.591-1.324h-7.519V215.941z
		 M124.704,212.177h8.031l-4.081-7.299L124.704,212.177z M116.412,219.22l10.399-17.516h4.106l10.558,17.516h-4.79l-2.211-3.847
		H122.89l-2.21,3.847H116.412z M103.708,204.838h-12.06v3.701h11.412c1.795,0,3.002,0.283,3.616,0.857
		c0.623,0.572,0.934,1.664,0.934,3.263v2.409c0,1.612-0.319,2.7-0.953,3.281c-0.628,0.579-1.832,0.87-3.598,0.87H91.69
		c-1.81,0-3.032-0.291-3.675-0.87c-0.641-0.581-0.957-1.669-0.957-3.281v-0.48l3.804-0.71v2.063h12.884v-4.006H92.393
		c-1.789,0-3.002-0.288-3.639-0.874c-0.636-0.591-0.953-1.678-0.953-3.274v-1.961c0-1.575,0.316-2.658,0.953-3.244
		s1.85-0.877,3.639-0.877h10.406c1.766,0,2.975,0.284,3.631,0.844c0.655,0.559,0.979,1.545,0.979,2.961v0.419l-3.701,0.788V204.838z
		 M70.651,201.705h4.246v17.516h-4.246V201.705z M47.863,219.22l-10.598-17.516h4.832l7.43,12.703l6.994-12.703h4.433L50.796,219.22
		H47.863z"/>
	<path style="&st1;" d="M477.586,6.497c17.682,1.537,34.898,11.99,42.891,27.055c9.38,17.524,9.225,35.203,0.464,53.188
		c-7.997,14.603-25.523,25.518-43.969,27.364h-49.805l1.383-0.925c2.151-1.229,8.302-5.225,13.064-14.602l1.692-4.152l31.823,0.154
		c9.375-0.614,17.217-3.688,25.364-13.373c0.918-1.076,2.151-3.535,3.074-5.074c2.766-4.917,9.685-19.828-2.615-36.893
		c-2.92-3.995-12.146-13.219-22.289-13.219H362.604c-3.382,0-11.069,2.306-11.069,11.219c0,5.688,4.308,11.07,10.917,11.686
		c7.379,0.459,41.658,3.075,51.343,3.843c26.592,5.07,28.748,30.59,25.06,40.428c-3.694,9.53-13.533,21.06-24.445,21.06
		l-107.762-0.153c2.002-1.383,11.377-5.842,15.989-17.372l0.924-2.307h85.931c5.531,0,11.223-3.842,11.527-10.912
		c0.154-5.535-3.689-10.299-8.452-11.377c-3.384-0.46-48.886-3.841-53.958-4.457c0,0-12.297-0.923-20.906-11.992
		c-6.609-9.224-7.688-20.136-3.688-30.128c3.534-9.069,14.446-19.216,28.591-19.216L477.586,6.497z"/>
	<path style="&st0;" d="M346.003,6.497c-6.459,3.227-12.914,9.069-15.989,17.371l-0.769,1.846h-86.238
		c-6.916,0.614-11.837,7.223-11.219,13.68c1.381,6.456,5.842,9.532,10.913,9.992c3.535,0.152,43.812,3.227,55.031,4.612
		c20.906,5.996,25.366,27.055,21.984,37.814c-3.228,9.84-12.45,21.367-27.671,22.445H187.207l3.689-2.307
		c2.46-2.15,7.379-5.842,10.145-11.376c0.31-0.768,2.46-4.61,2.46-5.842h86.393c1.843,0,10.144-1.075,11.222-11.066
		c0.308-3.536-1.847-9.069-8.146-11.222c-5.227-0.615-46.733-3.689-54.265-4.611c-30.744-6.609-29.515-33.204-23.213-45.347
		c5.842-10.609,16.296-15.068,26.441-15.989h98.534H346.003z"/>
	<path style="&st2;" d="M55.466,113.949c-17.678-1.692-34.742-12.144-42.887-27.209c-9.224-17.524-9.84-34.585-1.078-52.42
		C19.649,19.564,37.02,6.035,56.388,6.035h50.575l-2.306,1.383c-2.613,1.846-7.992,5.228-12.758,14.144l-1.383,3.845H58.541
		c-0.769,0-18.907,0-29.208,18.6c-2.614,4.919-8.917,19.983,3.228,36.893c3.845,5.38,12.914,13.372,27.362,13.372h110.681
		c3.382,0,11.53-2.304,11.53-11.066c0-5.842-4.458-10.301-9.07-11.07c-7.377-0.46-43.965-3.841-53.649-4.61
		c-26.595-5.073-28.898-30.593-25.056-40.43c4.457-12.298,15.373-21.061,29.361-21.061h104.379c-2,1.383-11.377,5.228-16.757,17.218
		l-0.922,2.153h-86.854c-5.38,0-10.761,4.764-11.068,11.833c-0.153,5.381,4.764,10.456,9.531,11.376
		c3.228,0.614,47.346,3.538,52.42,3.996c0,0,12.298,0.924,21.06,11.993c6.609,9.223,7.531,20.29,3.689,30.126
		c-3.689,9.07-14.451,19.217-28.594,19.217c-7.378,0-98.228,0.154-110.835,0H55.466z M64.229,145
		c-0.922-3.996-1.692-7.533-4.153-9.839c-2.304-2.307-4.917-3.535-7.377-3.535c-4.919,0-7.534,5.072-7.534,6.765
		c0,1.999,0.31,3.075,1.846,4.458c1.385,1.383,4.15,3.225,7.995,5.071c5.071,2.769,8.609,4.458,11.223,6.609
		c2.765,2.151,4.917,5.382,4.917,8.608c0,4.615-1.536,8.305-4.61,11.07c-3.075,2.613-7.074,3.844-14.144,3.534
		c-2.768-0.152-3.382-0.152-7.073-1.535c-1.075-0.462-2.304-0.616-2.765-0.462c-0.46,0.31-0.616,0.462-0.923,1.383l-0.155,0.462
		h-3.841v-15.832h3.841c1.078,6.454,4.46,11.99,11.223,13.219c3.996,0.769,9.685-2.769,9.685-7.071c0-1.845-0.922-4.612-2.461-5.995
		c-5.531-5.074-12.758-7.535-18.754-11.991c-2.613-1.844-4.303-4.765-4.303-8.148c0-7.992,7.378-12.758,15.526-12.758
		c2.46,0,4.303-0.152,7.531,1.076c1.385,0.459,2.152,1.23,2.768,1.23c0.77,0,0.924-0.771,1.23-1.692l0.309-0.614h3.688V145H64.229z
		 M96.972,176.514v-1.078c2.461-0.154,4.765-0.614,5.535-1.228c0.768-0.77,1.076-2.766,1.076-4.763v-32.747
		c0-1.997-0.308-3.534-1.076-4.303c-0.77-0.614-3.074-0.924-5.535-1.076v-1.692h17.218h22.289l0.768,10.451h-4.457
		c-1.232-5.991-2.615-7.528-9.07-7.528h-10.455v17.983h7.995c6.917,0,6.763-3.841,7.225-6.302h3.999v15.834h-3.999
		c-1.076-5.69-3.229-6.609-7.378-6.609l-7.841-0.154v16.907c-0.153,1.386,0.154,2.771,0.925,3.385
		c0.768,0.614,2.611,0.614,3.996,0.614h4.457c7.379,0,10.454-1.848,13.836-9.378l4.457,0.155l-3.996,11.528h-22.75H96.972z
		 M177.676,168.058c0,2.615,0.308,4.15,0.615,5.381c0.768,1.69,3.227,1.843,6.149,1.843v1.232h-19.215v-1.232
		c4.304,0,5.072-0.46,5.839-1.843c0.618-1.078,0.618-2.766,0.618-5.381V135.93c-0.464-2.921-5.535-4.763-9.07-4.763v-1.232h10.913
		h4.767l26.288,31.514l-0.155-22.903c0-2.771-0.31-4.303-0.617-5.381c-0.46-1.23-1.843-1.845-6.148-1.845v-1.54h8.301h11.376v1.078
		c-2.306,0.155-5.535,0.769-5.995,1.997c-0.46,0.924-0.922,2.92-0.922,5.69v38.737h-3.845l-28.898-33.975V168.058z M285.897,159.756
		c0,6.15-1.692,11.069-5.533,14.452c-3.694,3.074-9.07,3.534-15.219,3.534c-5.688,0-10.455-0.921-13.529-3.842
		c-3.228-2.923-5.071-7.688-5.071-13.221v-23.827c0-4.457-2.306-5.686-6.92-5.533v-1.54h22.752v1.233
		c-2.46,0.154-4.303,0.613-5.073,1.228c-0.768,0.769-1.229,2.616-1.229,4.612v24.286c0,4.612,0.922,8.307,3.382,10.608
		c2,1.847,3.843,2.92,7.378,2.92c4.151,0,8.303-2.307,10.3-4.765c1.996-2.459,2.768-5.379,2.768-10.761v-20.597
		c0-2.771,0-4.612-0.771-5.69c-1.228-1.688-3.227-1.383-5.995-1.535v-1.54h19.679v1.078c-2.307,0.155-5.534,0.924-6.15,2.151
		c-0.459,0.924-0.767,2.766-0.767,5.536V159.756z M322.177,170.055l0.154-33.356c0-1.997-0.464-3.689-1.232-4.303
		c-0.769-0.77-3.075-0.924-5.536-1.076v-1.54h11.686h11.527v1.233c-2.611,0.154-4.148,0.307-5.379,1.383
		c-0.922,0.769-1.383,2.306-1.383,4.303v13.068l11.376-9.993c3.228-2.921,3.996-5.227,4.304-6.305c0-1.843-0.77-1.997-4.456-2.149
		v-1.54h11.222h9.066v1.078c-3.535,0.31-8.145,3.385-10.605,5.841l-9.992,9.839l-4.152,3.996l18.909,18.601
		c3.075,2.922,7.84,6.147,12.3,6.302v1.078h-14.604h-11.07v-1.232c2.921,0.154,3.689-1.073,3.844-1.229
		c0.46-0.614,0.924-1.692-0.461-2.92l-15.68-15.37v13.683c0,1.997,0.461,3.993,1.23,4.763c0.769,0.613,2.766,1.228,5.531,1.228
		v1.078h-11.527h-11.686v-1.078c2.461-0.154,4.612-0.154,5.69-1.383C321.867,173.439,322.177,172.056,322.177,170.055
		 M415.177,128.861v14.293l-6.765,14.915h6.765v2.918h-7.533l-3.688,6.919c-1.692,3.228-1.538,5.381-0.614,6.147
		c0.923,0.769,1.692,1.229,5.071,1.229v1.232h-17.676v-1.232c1.537,0,2.61-0.46,3.379-1.073c0.77-0.77,2.152-2,3.075-4.153
		L415.177,128.861z M415.177,160.987v-2.918h6.764l-6.764-15.067h0.154l-0.154,0.152v-14.293h3.998l17.831,41.349
		c0.924,1.999,1.997,3.385,2.921,3.999c0.769,0.613,2.615,1.073,4.148,1.228v1.078H422.4v-1.232c2.77,0.154,6.609-1.229,4.303-6.147
		l-3.994-8.302L415.177,160.987z M474.052,169.446v-32.747c0-1.997-0.305-3.229-0.919-3.996c-0.769-0.921-1.078-1.23-5.846-1.383
		v-1.54h11.991h11.071v1.078c-2.615,0.155-4.462,0.924-5.23,1.538c-0.919,0.613-1.379,2.306-1.379,4.303v32.747
		c0.15,2.149,0.614,4.148,1.379,4.763c1.078,0.921,2.615,0.921,5.381,1.073v1.232h-11.222h-11.991v-1.232
		c2.616-0.152,4.153,0.154,5.536-1.073C473.747,173.594,474.052,171.443,474.052,169.446"/>
</g>
</svg>
