<svg width="177" height="51" viewBox="0 0 177 51" fill="none" xmlns="http://www.w3.org/2000/svg">
<g clip-path="url(#clip0_1_68)">
<path d="M88.211 17.8726C86.5435 16.5079 84.4211 15.5981 82.1472 15.5981C80.4797 15.5981 78.2057 16.6595 78.2057 18.4791C78.2057 20.4503 80.6313 21.2085 82.2988 21.815L84.5727 22.5732C89.4238 24.0895 93.2137 26.5156 93.2137 32.126C93.2137 35.6135 92.4557 39.1011 89.5754 41.5272C86.8467 43.8017 83.2084 44.8631 79.7217 44.8631C75.3254 44.8631 71.0808 43.3468 67.4425 40.9207L71.384 33.6423C73.6579 35.6135 76.235 37.2815 79.4185 37.2815C81.5408 37.2815 83.8148 36.2201 83.8148 33.794C83.8148 31.2162 80.1765 30.3064 78.3573 29.8515C72.7483 28.3352 68.9585 26.8189 68.9585 19.9954C68.9585 12.8687 73.9611 8.31973 80.9345 8.31973C84.4211 8.31973 88.6658 9.38116 91.8493 11.2007L88.211 17.8726ZM105.19 5.43872V23.0281H105.341C107.312 20.4503 109.586 19.2373 112.921 19.2373C118.985 19.2373 121.865 23.1797 121.865 29.245V43.65H113.527V31.5195C113.527 28.7901 113.073 25.9091 109.738 25.9091C106.402 25.9091 105.341 28.7901 105.341 31.5195V43.65H97.0035V5.43872H105.19ZM151.275 33.1874H133.538C133.538 36.5233 135.357 38.4945 138.844 38.4945C140.663 38.4945 141.876 37.888 142.785 36.3717H150.82C149.455 41.9821 144.15 44.5598 138.844 44.5598C130.961 44.5598 125.2 40.1625 125.2 31.9744C125.2 24.0895 130.506 19.3889 138.237 19.3889C146.424 19.3889 151.275 24.3927 151.275 32.5809V33.1874ZM143.392 28.3352C142.937 26.0607 140.966 24.5444 138.692 24.5444C136.267 24.5444 134.296 25.9091 133.69 28.3352H143.392ZM154.61 5.43872H162.947V43.8017H154.61V5.43872ZM167.95 5.43872H176.439V43.8017H167.95V5.43872Z" fill="#DD1D21"/>
<path fill-rule="evenodd" clip-rule="evenodd" d="M27.003 50.1025C25.0714 50.1025 24.0787 48.8429 24.0787 48.8429C22.4912 48.7739 10.0848 48.8084 10.0848 48.8084L8.87696 38.6133C8.87696 38.6133 1.23556 33.2271 0.614375 32.6059C-3.05357 15.966 10.2044 0.102539 27.0035 0.102539C43.8026 0.102539 57.0606 15.966 53.3926 32.6059C52.7714 33.2271 45.13 38.6133 45.13 38.6133L43.9222 48.8084C43.9222 48.8084 31.5158 48.7739 29.9283 48.8429C29.9283 48.8429 28.9356 50.1025 27.003 50.1025Z" fill="#ED1C24"/>
<path fill-rule="evenodd" clip-rule="evenodd" d="M27.0209 34.5975L25.8487 5.16823C24.4349 4.8797 20.8284 5.22593 18.8953 6.66854L24.5215 34.7129L16.8468 7.82263C15.007 7.80008 11.2944 10.9109 11.0186 11.8331L22.2133 35.6939L9.63373 13.8816C8.39308 14.3432 5.68096 19.3347 6.11375 19.9147L20.1359 37.0788L5.70982 22.4219C5.70982 22.4219 3.83442 25.2783 5.05742 30.1164L13.206 36.001L14.2261 44.0404H24.2165C24.2165 44.0404 25.851 45.5897 27.0107 45.5897C28.1704 45.5897 29.8049 44.0404 29.8049 44.0404H39.7953L40.8155 36.001L48.964 30.1164C50.187 25.2783 48.3116 22.4219 48.3116 22.4219L33.8855 37.0788L47.9077 19.9147C48.3405 19.3347 45.6284 14.3432 44.3877 13.8816L31.8081 35.6939L43.0028 11.8331C42.7271 10.9109 39.0145 7.80008 37.1747 7.82263L29.5 34.7129L35.1262 6.66854C33.1931 5.22593 29.5865 4.8797 28.1728 5.16823L27.0209 34.5975Z" fill="#FFD500"/>
</g>
<defs>
<clipPath id="clip0_1_68">
<rect width="177" height="51" fill="white"/>
</clipPath>
</defs>
</svg>
