<svg xmlns="http://www.w3.org/2000/svg" xmlns:xlink="http://www.w3.org/1999/xlink" width="300" height="67.996" viewBox="0 0 300 67.996"><defs><clipPath id="a"><rect width="300" height="67.996" fill="none"/></clipPath></defs><g clip-path="url(#a)"><path d="M623.573,31.205s-7.807,1.722-11.305,3.225c-3.145,1.351-8.615,3.461-10.056,12.9v-16a11.065,11.065,0,0,1,4.966-9.119s4.421-3.43,16.4-6.083l.006-.006s7.806-1.722,11.305-3.225c3.145-1.35,8.615-3.461,10.056-12.9V16a11.065,11.065,0,0,1-4.967,9.119s-4.421,3.43-16.395,6.083Z" transform="translate(-344.944 -0.001)" fill="#dc000c"/><path d="M16.868,36.807c0,2.343.383,3.9,1.533,5.075A6.048,6.048,0,0,0,23,43.443c3.451,0,7.285-.781,7.285-3.9a3.006,3.006,0,0,0-.767-1.952c-2.3-2.734-21.085-4.686-26.452-9.371A10.126,10.126,0,0,1,.384,21.19c0-8.981,8.05-12.884,23.768-12.884C41.019,8.306,46,12.99,46.386,21.58H29.9c0-2.343-.767-3.9-1.916-4.685A8.57,8.57,0,0,0,23,15.723c-3.449,0-5.366,1.562-5.366,3.514A3.012,3.012,0,0,0,18.4,21.19c2.684,2.342,21.085,4.295,26.068,8.979,1.534,1.562,3.067,3.514,3.067,7.808,0,7.81-6.9,12.884-24.919,12.884C1.15,50.861.384,44.615,0,36.807Z" transform="translate(0 -4.758)" fill="#dc000c"/><path d="M119.942,26.582h13.8V39.076h13.8V26.582h13.8V60.549h-13.8V47.275h-13.8V60.549h-13.8Z" transform="translate(-68.702 -15.226)" fill="#dc000c"/><rect width="13.801" height="33.966" transform="translate(96.455 11.356)" fill="#dc000c"/><path d="M267.034,60.549h19.934c10.351,0,13.8-1.561,17.635-4.683,3.066-2.345,4.6-7.029,4.6-12.1s-1.534-8.98-4.216-11.713c-4.217-4.685-10.735-5.466-20.319-5.466H267.034Zm13.8-26.158h3.833c6.134,0,9.967,2.733,9.967,8.98,0,6.637-3.833,9.37-9.967,9.37h-3.833Z" transform="translate(-152.957 -15.226)" fill="#dc000c"/><path d="M442.013,30.568l17.252-19.522H438.948l-9.2,12.494-9.2-12.494H399.077l17.251,19.522-9.583,11.323L394.861,17.683H377.614L360.745,51.65h13.8l11.117-24.987L396.394,51.65h22.235L428.6,37.986,438.18,51.65h21.85Z" transform="translate(-206.634 -6.327)" fill="#dc000c"/><path d="M13.891,129.574l.74-1.262c.084-.152.151-.219.252-.219.067,0,.135.034.3.185L16.7,129.54a.361.361,0,0,1,.168.252c0,.151-.151.185-.252.185H10.376a11.65,11.65,0,0,0,6.778,4.743v.117a3.392,3.392,0,0,0-1.951,1.816,11.09,11.09,0,0,1-5.1-6.677c0,.387.017,2.288.017,2.355.1,4.255.1,4.541.1,4.743a1.056,1.056,0,0,1-1.177,1.042.708.708,0,0,1-.79-.757c0-.135.151-4.608.151-4.827v-.606a14.351,14.351,0,0,1-6.71,4.911v-.1a21.868,21.868,0,0,0,5.752-6.761h-3.5a10.262,10.262,0,0,0-1.816.1l-.269-.605c.706.05,1.648.1,2.388.1H8.408c0-1.514,0-1.682-.017-3.178H5.129a8.451,8.451,0,0,0-1.816.117l-.269-.622c.723.05,1.665.1,2.388.1H8.375a9.56,9.56,0,0,0-.353-3.4l2.337.589c.085.017.32.084.32.269,0,.219-.353.4-.588.538v2h2.456l.723-1.194c.067-.117.151-.2.252-.2a.545.545,0,0,1,.32.168l1.329,1.194a.364.364,0,0,1,.168.252c0,.151-.135.185-.252.185H10.09c0,1.042.017,2.136.017,3.178Z" transform="translate(-0.973 -70.222)" fill="#1a1311"/><path d="M71.114,137.03a12.057,12.057,0,0,1-5.029-5.466c0,1.816,0,2.422.017,3.666,0,.3.067,1.614.067,1.867,0,.975-.555,1.211-1.059,1.211-.858,0-.858-.454-.858-.959,0-.269.034-.639.05-.942.1-1.144.135-2.371.135-3.65v-.421a13.662,13.662,0,0,1-6.643,4.844l-.084-.1a19.708,19.708,0,0,0,5.483-6.088h-3.28a9.8,9.8,0,0,0-1.816.117l-.269-.622c1.009.1,2.2.1,2.388.1h4.221c0-2.623,0-2.91-.017-4.642H60.855a8.343,8.343,0,0,0-1.816.118l-.286-.622c1.026.084,2.22.1,2.405.1H64.4a5.932,5.932,0,0,0-.32-2.674l2.321.522c.084.017.286.067.286.2,0,.151-.353.37-.555.487-.017.2-.017,1.194-.034,1.463h2.943l.74-1.077c.118-.185.185-.2.252-.2.1,0,.235.117.3.168l1.262,1.093c.1.084.168.135.168.236,0,.168-.151.185-.269.185H66.1c-.017,1.547-.017,3.095-.017,4.642h.707a14.574,14.574,0,0,0,1.681-4.238l2.019,1.059c.117.067.2.117.2.2,0,.185-.084.2-.824.42a13.751,13.751,0,0,1-2.725,2.556h2.792l.807-1.093c.05-.067.151-.219.252-.219.068,0,.135.05.3.185l1.346,1.109c.1.085.168.135.168.252,0,.152-.135.168-.252.168H66.2a11.151,11.151,0,0,0,6.693,4.053l.034.118a3.71,3.71,0,0,0-1.816,1.867m-9.1-6.9c-.672,0-.757-.4-.975-1.362a5.4,5.4,0,0,0-1.026-2.2l.084-.067c.589.2,2.876,1.026,2.876,2.556a1,1,0,0,1-.959,1.077" transform="translate(-33.056 -70.379)" fill="#1a1311"/><path d="M121.524,139.6l-.033-.117c2.472-.959,5.3-2.943,5.3-6.576,0-2.438-1.531-4.507-4.793-4.507a2.093,2.093,0,0,0-.807.1c1.5.79,1.5,1.514,1.5,1.732a23.971,23.971,0,0,1-2.556,5.5c-1.295,2.119-1.934,2.674-2.523,2.674-.538,0-.689-.252-1.211-1.059a2.277,2.277,0,0,0-.656-.707,2.677,2.677,0,0,1-.757-2.035c0-3.717,3.2-6.778,7.4-6.778,3.246,0,6.408,1.9,6.408,5.5,0,5.247-5.92,6.088-7.265,6.273m-.908-11a6.442,6.442,0,0,0-4.188,5.785c0,.69.32,2.338,1.026,2.338.69,0,1.514-1.716,2.2-3.179a12.851,12.851,0,0,0,1.379-3.851,1.631,1.631,0,0,0-.42-1.093" transform="translate(-65.862 -73.22)" fill="#1a1311"/><path d="M184.4,131.162h-6.508v5.1c0,.79,0,2.136-2.658,2.455a3.516,3.516,0,0,0-2.153-2.506l.017-.135a15.259,15.259,0,0,0,2.119.185c.757,0,.807-.169.807-.74v-4.356H171.4a10.308,10.308,0,0,0-1.833.1l-.269-.605c.791.067,1.6.1,2.405.1h4.322v-1.648a5.265,5.265,0,0,0-.387-2.17l2.035.522c.521-.874.959-1.665,1.463-2.674h-5.987a9.9,9.9,0,0,0-1.816.1l-.286-.605c.807.067,1.6.1,2.405.1h5.718l.707-.707c.151-.151.235-.218.32-.218a.693.693,0,0,1,.3.168l1.648,1.346c.067.05.218.185.218.32,0,.235-.2.32-.572.336-.538.034-.606.05-.757.151a31.016,31.016,0,0,1-2.926,1.783c.185.034.286.084.286.219,0,.151-.218.3-.5.471v2.506h3.632l.942-1.211c.117-.152.168-.219.252-.219a.582.582,0,0,1,.32.185l1.447,1.211a.4.4,0,0,1,.168.252c0,.151-.135.185-.252.185" transform="translate(-96.975 -70.718)" fill="#1a1311"/><path d="M229.626,124.6a20.863,20.863,0,0,1-1.043,2.153l.488.218c.135.067.219.118.219.235,0,.219-.168.353-.5.589,0,.807-.033,4.524-.033,5.062,0,.723.017,4.457.017,4.524,0,.437-.471.774-1.059.774s-.774-.286-.774-.774c0-.252.068-1.4.084-1.631.05-1.581.067-2.069.168-6.845a14.833,14.833,0,0,1-2.523,2.707l-.1-.084c1.766-2.725,3.414-6.929,3.364-8.813l2.236,1.11c.067.034.269.135.269.286,0,.185-.084.219-.807.487m3.969,10.141a12.211,12.211,0,0,1-4.574,3.095l-.067-.118a10.99,10.99,0,0,0,3.212-4.592l2.018,1.043a.249.249,0,0,1,.168.219c0,.218-.487.3-.757.353m6.341-1.884h-8.729a8.48,8.48,0,0,0-1.816.117l-.286-.622c.857.067,1.766.1,2.539.1v-5.011a8.352,8.352,0,0,0-1.732.117l-.286-.622c.689.067.925.067,2.018.1,0-2.859-.168-3.414-.37-4.07l2.321.589c.168.05.32.084.32.269,0,.135-.337.4-.572.589-.034.4-.017,2.253-.034,2.623h1.783c0-3.01-.135-3.4-.32-4.019l2.321.521c.185.034.252.1.252.236,0,.185-.05.218-.589.588-.017.219-.034,2.3-.034,2.674h.454l.706-.959c.118-.151.185-.218.269-.218.068,0,.135.034.3.185L239.6,127a.361.361,0,0,1,.168.252c0,.168-.134.185-.252.185h-2.808c0,.79.017,4.288.017,5.011h.639l.774-1.244c.05-.084.151-.219.252-.219s.219.118.3.185l1.329,1.244c.118.1.168.168.168.252,0,.151-.152.185-.252.185m-4.844-5.415h-1.783c0,.908-.017,2.153-.017,5.011h1.816c0-.723-.017-4.222-.017-5.011m3.313,10.427c-.656,0-.874-.488-1.16-1.144a8.466,8.466,0,0,0-2.422-3.128l.067-.117c.639.168,4.49,1.194,4.49,3.363a1.007,1.007,0,0,1-.975,1.026" transform="translate(-128.63 -70.289)" fill="#1a1311"/><path d="M290.528,128.036a18.983,18.983,0,0,1-2.708.942c-1.194,3.515-2.573,7.08-2.977,7.921-.521,1.127-.757,1.144-1.043,1.144a1.03,1.03,0,0,1-.908-1.11c0-.387.051-.488.589-1.362a29.831,29.831,0,0,0,2.96-6.29,10.961,10.961,0,0,1-1.648.185,2.01,2.01,0,0,1-2.169-1.681,3.881,3.881,0,0,0,1.934.454,8.965,8.965,0,0,0,2.3-.336,9.1,9.1,0,0,0,.421-2.119c0-.723-.724-1.042-1.3-1.194a1.413,1.413,0,0,1,1.059-.42c.774,0,2.2.606,2.2,1.4,0,.235-.05.32-.3.757a6.959,6.959,0,0,0-.538,1.06,4.736,4.736,0,0,0,.924-.454c.69-.437.774-.487,1.059-.487a.946.946,0,0,1,.925.84c0,.4-.488.622-.791.757m5.365,9.671a5.924,5.924,0,0,1-2.354.37c-4.12,0-4.793-1.833-4.793-2.573a2.333,2.333,0,0,1,.774-1.715,3.036,3.036,0,0,0-.084.689c0,1.833,2.152,1.833,2.977,1.833a8.312,8.312,0,0,0,1.9-.2,2.64,2.64,0,0,1,.622-.084,1.452,1.452,0,0,1,1.3,1.177.538.538,0,0,1-.337.5m-.151-6.862c-.185,0-1.06-.084-1.228-.084a9.181,9.181,0,0,0-2.674.824l-.05-.1c.454-.336,1.581-1.144,1.581-1.413,0-.437-1.53-.437-1.681-.437a5.057,5.057,0,0,0-1.177.1,4.692,4.692,0,0,1,3.178-1.093c2.119,0,2.758,1.093,2.758,1.564,0,.454-.286.639-.706.639" transform="translate(-161.887 -71.123)" fill="#1a1311"/><path d="M345.232,138.221a12.721,12.721,0,0,1-1.329-.067v-.135a9.109,9.109,0,0,0,4.978-1.934,3.374,3.374,0,0,0,1.43-2.775,1.8,1.8,0,0,0-1.951-1.985c-1.9,0-3.448,1.615-4.255,2.641-.1.118-.454.689-.555.791a.624.624,0,0,1-.47.218c-.471,0-1.228-.975-1.228-1.547,0-.235.033-.319.32-1.059a29.04,29.04,0,0,0,.79-3.835,6.334,6.334,0,0,1-1.026.084c-1.6,0-2.438-.841-2.472-1.816a2.836,2.836,0,0,0,2.018.622,8.384,8.384,0,0,0,1.7-.235,14.1,14.1,0,0,0,.219-1.917c0-.421-.033-1.144-1.547-1.3a1.766,1.766,0,0,1,1.311-.555c.69,0,2.422.42,2.422,1.177a.971.971,0,0,1-.185.522,5.647,5.647,0,0,0-.673,1.648,8.027,8.027,0,0,0,1.833-.79,1.4,1.4,0,0,1,.774-.286c.521,0,1.379.387,1.379.858,0,.639-3.245,1.514-4.406,1.749a19.242,19.242,0,0,0-.739,3.952,11.386,11.386,0,0,0,1.749-.707,8.88,8.88,0,0,1,3.414-.841,3.356,3.356,0,0,1,3.431,3.28c0,2.792-2.943,4.238-6.929,4.238" transform="translate(-194.444 -70.695)" fill="#1a1311"/><path d="M400.993,139.6l-.034-.117c2.472-.959,5.3-2.943,5.3-6.576,0-2.438-1.531-4.507-4.793-4.507a2.1,2.1,0,0,0-.808.1c1.5.79,1.5,1.514,1.5,1.732a23.971,23.971,0,0,1-2.556,5.5c-1.295,2.119-1.934,2.674-2.523,2.674-.538,0-.69-.252-1.211-1.059a2.274,2.274,0,0,0-.656-.707,2.677,2.677,0,0,1-.757-2.035c0-3.717,3.2-6.778,7.4-6.778,3.245,0,6.408,1.9,6.408,5.5,0,5.247-5.92,6.088-7.265,6.273m-.908-11a6.442,6.442,0,0,0-4.188,5.785c0,.69.32,2.338,1.026,2.338.689,0,1.514-1.716,2.2-3.179a12.851,12.851,0,0,0,1.379-3.851,1.633,1.633,0,0,0-.42-1.093" transform="translate(-225.941 -73.22)" fill="#1a1311"/><path d="M458.21,128.036a18.966,18.966,0,0,1-2.708.942c-1.194,3.515-2.573,7.08-2.977,7.921-.521,1.127-.757,1.144-1.042,1.144a1.03,1.03,0,0,1-.908-1.11c0-.387.05-.488.589-1.362a29.811,29.811,0,0,0,2.96-6.29,10.955,10.955,0,0,1-1.648.185,2.01,2.01,0,0,1-2.169-1.681,3.882,3.882,0,0,0,1.934.454,8.971,8.971,0,0,0,2.3-.336,9.108,9.108,0,0,0,.42-2.119c0-.723-.723-1.042-1.295-1.194a1.415,1.415,0,0,1,1.059-.42c.774,0,2.2.606,2.2,1.4,0,.235-.05.32-.3.757a7.013,7.013,0,0,0-.538,1.06,4.712,4.712,0,0,0,.925-.454c.689-.437.774-.487,1.059-.487a.946.946,0,0,1,.925.84c0,.4-.488.622-.79.757m5.365,9.671a5.923,5.923,0,0,1-2.354.37c-4.121,0-4.793-1.833-4.793-2.573a2.331,2.331,0,0,1,.774-1.715,3,3,0,0,0-.085.689c0,1.833,2.153,1.833,2.977,1.833a8.312,8.312,0,0,0,1.9-.2,2.643,2.643,0,0,1,.622-.084,1.452,1.452,0,0,1,1.3,1.177.538.538,0,0,1-.337.5m-.151-6.862c-.185,0-1.059-.084-1.228-.084a9.184,9.184,0,0,0-2.674.824l-.05-.1c.455-.336,1.581-1.144,1.581-1.413,0-.437-1.531-.437-1.682-.437a5.057,5.057,0,0,0-1.177.1,4.692,4.692,0,0,1,3.179-1.093c2.119,0,2.758,1.093,2.758,1.564,0,.454-.286.639-.706.639" transform="translate(-257.934 -71.123)" fill="#1a1311"/><path d="M512.252,138.393v-.1a9.508,9.508,0,0,0,3.75-1.9,5.328,5.328,0,0,0,2.1-4.1c0-.42-.067-3.162-3.65-3.38-.151.286-.874,1.732-1.042,2.069a23.177,23.177,0,0,1-1.85,3.027c.084.084.487.522.572.622a1.6,1.6,0,0,1,.487,1.043c0,.32-.134.858-.706.858-.5,0-1.042-.757-1.345-1.177-.673.791-1.783,1.934-2.59,1.934a.985.985,0,0,1-.942-.605,4.714,4.714,0,0,0-.5-1.094,1.532,1.532,0,0,1-.336-.891,5.077,5.077,0,0,1,.252-1.194,6.34,6.34,0,0,1,2.069-3.027c-.69-2.506-.757-2.775-1.413-3.683a2.47,2.47,0,0,1,2.287,1.564c.05.185.2,1.127.235,1.329a9.6,9.6,0,0,1,3.414-1.245,7.09,7.09,0,0,0,.555-1.951c0-.589-.269-.773-1.042-1.312a1.587,1.587,0,0,1,.841-.219c.908,0,2.22.74,2.22,1.6a1.555,1.555,0,0,1-.336.857c-.2.354-.337.572-.5.892,3.7.152,5.231,2.186,5.231,4.541,0,4.121-4.339,5.449-7.753,5.55m-3.5-7.03a5.084,5.084,0,0,0-1.3,3.145c0,.454.068,1.262.707,1.262.521,0,1.278-.925,1.749-1.531a14.524,14.524,0,0,1-1.16-2.876m1.043-1.009a8.138,8.138,0,0,0,.992,2.59,23.919,23.919,0,0,0,2.035-3.969,6.371,6.371,0,0,0-3.027,1.379" transform="translate(-289.95 -71.575)" fill="#1a1311"/><path d="M566.587,134.364a15.888,15.888,0,0,0-.3,2.438c0,.2.118,1.11.118,1.295,0,.37-.1.807-.656.807-1.026,0-2-1.614-2-5.079a24.055,24.055,0,0,1,.723-5.331,7.976,7.976,0,0,0,.152-1.228,2.3,2.3,0,0,0-.774-1.732,1.253,1.253,0,0,1,.4-.067,2.694,2.694,0,0,1,2.338,2.153,2.289,2.289,0,0,1-.353,1.059,8.94,8.94,0,0,0-1.345,4.558c0,.286.068,1.85.4,1.85.152,0,.152-.033.521-.84a31.174,31.174,0,0,1,1.413-2.91l.118.033c-.1.488-.673,2.557-.757,2.994m7.669,3.178c-3.4,0-5.4-.79-5.4-2.859a1.87,1.87,0,0,1,.336-1.211c.2,1.211.606,2.321,3.6,2.321a12.778,12.778,0,0,0,2.051-.169c.185-.017.37-.033.437-.033a1.287,1.287,0,0,1,1.362,1.042c0,.908-1.329.908-2.388.908m.437-8.981a6.812,6.812,0,0,0-3.313,1.329l-.1-.084a17.532,17.532,0,0,0,1.295-1.53c0-.219-.387-.219-.538-.219a8.338,8.338,0,0,0-3.094.824c.74-1.379,3.01-2.253,4.927-2.253.874,0,2.1.3,2.1,1.144,0,.5-.487.673-1.278.79" transform="translate(-322.912 -71.868)" fill="#1a1311"/></g></svg>