<?xml version="1.0" encoding="UTF-8" standalone="no"?>
<!-- Created with Inkscape (http://www.inkscape.org/) -->

<svg
   xmlns:dc="http://purl.org/dc/elements/1.1/"
   xmlns:cc="http://creativecommons.org/ns#"
   xmlns:rdf="http://www.w3.org/1999/02/22-rdf-syntax-ns#"
   xmlns:svg="http://www.w3.org/2000/svg"
   xmlns="http://www.w3.org/2000/svg"
   xmlns:sodipodi="http://sodipodi.sourceforge.net/DTD/sodipodi-0.dtd"
   xmlns:inkscape="http://www.inkscape.org/namespaces/inkscape"
   width="187.53"
   height="58.18"
   id="svg2"
   version="1.1"
   inkscape:version="0.47 r22583"
   sodipodi:docname="New document 1">
  <defs
     id="defs4">
    <inkscape:perspective
       sodipodi:type="inkscape:persp3d"
       inkscape:vp_x="0 : 526.18109 : 1"
       inkscape:vp_y="0 : 1000 : 0"
       inkscape:vp_z="744.09448 : 526.18109 : 1"
       inkscape:persp3d-origin="372.04724 : 350.78739 : 1"
       id="perspective10" />
    <clipPath
       id="clipPath3104"
       clipPathUnits="userSpaceOnUse">
      <path
         id="path3106"
         d="M 214.424,608 66,608 l 0,-44.945 148.424,0 0,44.945 z" />
    </clipPath>
    <clipPath
       id="clipPath3048"
       clipPathUnits="userSpaceOnUse">
      <path
         id="path3050"
         d="M 214.424,608 66,608 l 0,-44.945 148.424,0 0,44.945 z" />
    </clipPath>
    <clipPath
       id="clipPath3034"
       clipPathUnits="userSpaceOnUse">
      <path
         id="path3036"
         d="m 0,711.03 495,0 0,-711 -495,0 0,711 z" />
    </clipPath>
    <clipPath
       id="clipPath3028"
       clipPathUnits="userSpaceOnUse">
      <path
         id="path3030"
         d="m 3.1e-5,711 494.999999,0 0,-711 L 3.1e-5,0 l 0,711 z" />
    </clipPath>
    <clipPath
       id="clipPath3022"
       clipPathUnits="userSpaceOnUse">
      <path
         id="path3024"
         clip-rule="evenodd"
         d="m 203.224,544.117 0.18,-0.9 -0.18,0 c -0.118,-0.467 -0.284,-0.588 -0.54,-0.9 l -0.18,0 -0.18,-0.54 -0.36,-0.18 0,-0.36 -0.36,-0.18 0,-0.36 -0.54,-0.36 0,-0.36 -0.54,-0.36 0,-0.36 -0.36,-0.18 0,-0.36 -0.54,-0.36 0,-0.36 -0.54,-0.36 0,-0.36 -0.36,-0.179 0,-0.361 -0.54,-0.36 0,-0.36 -0.54,-0.36 0,-0.36 -0.54,-0.36 0,-0.36 -0.54,-0.36 0,-0.36 -0.36,-0.18 0,-0.36 -0.36,-0.18 -0.18,-0.54 -0.54,-0.36 0,-0.36 -0.54,-0.36 0,-0.36 -0.54,-0.36 0,-0.36 -0.54,-0.36 0,-0.36 -0.54,-0.36 0,-0.36 -0.54,-0.36 0,-0.36 -0.54,-0.36 0,-0.36 -0.72,-0.54 0,-0.36 -0.72,-0.54 0,-0.36 -0.72,-0.54 0,-0.36 -0.54,-0.36 0,-0.36 -1.08,-0.9 0,-0.36 -0.18,0 c -0.208,-0.263 -0.263,-0.316 -0.36,-0.72 -0.011,0.002 -0.355,0.005 -0.18,-0.18 l 0.36,0 0.18,-1.08 1.62,0.54 0,0.18 0.54,0 0,0.18 0.36,0 0,0.18 0.54,0 0,0.18 0.36,0 0,0.18 0.54,0 0,0.18 0.9,0.18 0,0.18 0.36,0 0,0.18 0.54,0 0,0.18 0.36,0 0,0.18 1.08,0.18 0,0.18 0.36,0 0,0.18 0.54,0 0,0.18 0.36,0 0,0.18 0.54,0 0,0.18 0.9,0.18 0,0.18 0.36,0 0,0.18 0.54,0 0,0.18 0.36,0 0,0.18 0.54,0 0,0.18 0.36,0 0,0.18 0.54,0 0,0.18 0.54,0 0,0.18 0.36,0 0,0.18 0.54,0 0,0.18 0.36,0 0,0.18 1.08,0.18 0,0.18 0.36,0 0,0.18 0.54,0 0,0.18 0.36,0 0,0.18 0.9,0.18 0,0.18 1.08,0.18 0,0.18 0.36,0 0,0.18 0.54,0 0,0.18 0.36,0 0,0.18 1.08,0.18 c 1.173,0.512 2.549,1.147 3.96,1.44 l 0,-0.54 -0.36,0 -0.18,-0.54 c 0.157,0.056 0.399,0.345 0.72,0.18 l 0,-0.18 -0.36,0 c -0.298,-0.43 -0.134,-0.112 -0.54,-0.36 l 0,-0.18 -0.36,0 -0.18,-0.36 -0.36,0 0,-0.18 -0.36,0 -0.18,-0.36 -0.72,-0.18 -0.18,-0.36 -0.72,-0.18 -0.18,-0.36 -0.72,-0.18 -0.18,-0.36 -0.72,-0.18 -0.18,-0.36 -0.72,-0.18 -0.18,-0.36 -0.72,-0.18 -0.18,-0.36 -0.72,-0.18 -0.18,-0.36 -0.72,-0.18 -0.18,-0.36 -0.72,-0.18 -0.18,-0.36 -0.36,0 0,-0.18 -0.36,0 -0.18,-0.36 -0.72,-0.18 -0.18,-0.36 -1.08,-0.36 0,-0.18 -0.54,-0.18 -0.18,-0.36 -0.72,-0.18 -0.18,-0.36 -0.72,-0.18 -0.18,-0.36 -0.72,-0.18 0,-0.18 -0.54,-0.18 -0.18,-0.36 -0.72,-0.18 -0.18,-0.36 -0.72,-0.18 -0.18,-0.36 -0.72,-0.18 -0.18,-0.36 -0.72,-0.18 0,-0.18 -0.54,-0.18 -0.18,-0.36 -0.72,-0.18 -0.18,-0.36 -0.36,0 -0.18,-0.36 -1.08,-0.36 -0.18,-0.36 -0.36,0 0,-0.18 -0.54,-0.18 -0.72,-44.64 1.08,-0.36 0,-0.36 0.36,0 c 0.169,-0.954 0.027,-0.621 -0.18,-1.44 l -0.36,0 c -0.174,-0.601 -0.212,-0.35 -0.54,-0.72 l -0.18,0 0,-0.54 -0.36,-0.18 0,-0.36 -0.18,0 c -0.249,-0.32 -0.283,-0.357 -0.36,-0.9 l -0.36,0 0,-0.36 -0.54,0 -0.18,-0.72 -0.54,0 c -0.22,-0.726 -0.491,-0.447 -0.9,-0.9 l -0.18,0 0,-0.36 -0.36,0 0,-0.54 c -0.737,-0.081 -0.773,-0.383 -1.44,-0.54 -0.161,-0.63 -1.339,-1.466 -1.98,-1.62 l 0,-0.36 c -0.497,-0.13 -0.402,-0.05 -0.54,-0.54 l -0.54,0 c -0.122,-0.246 -0.27,-0.231 -0.36,-0.36 l 0,-0.36 -0.18,0 c -0.276,-0.299 -0.148,-0.297 -0.72,-0.36 l 0,-0.54 -0.72,0 c -0.17,-0.324 -0.249,-0.283 -0.36,-0.72 l -0.54,0 0,-0.36 -0.36,0 0,-0.36 -0.9,-0.18 0,-0.18 c -0.205,-0.205 -0.071,0 -0.18,-0.36 -0.416,-0.093 -0.439,-0.159 -0.72,-0.36 l 0,-0.18 -0.54,0 -0.18,-0.36 -0.9,-0.18 -0.18,-0.54 -0.72,0 0,-0.72 c -1.009,-0.074 -1.445,-0.554 -2.16,-0.9 l 0,-0.54 -0.54,0 0,-0.36 -0.72,0 0,-0.36 -0.54,0 -0.18,-0.72 -1.8,-0.36 c -0.413,-5.198 -0.001,-11.677 0,-17.64 l 0.18,-3.42 0.18,0 c 0.144,-0.399 0.359,-1.92 0.18,-2.52 l -0.18,0 0,-0.9 -0.18,0 0.18,-0.54 -0.18,0 0,-1.44 -0.18,0 0,-0.72 -0.18,0 0,-0.54 -0.18,0 0,-0.36 -0.18,0 -0.18,-0.9 -0.36,-0.18 0,-0.36 -0.18,0 c -0.258,-0.316 -0.411,-0.433 -0.54,-0.9 -0.469,-0.128 -0.579,-0.283 -0.9,-0.54 l 0,-0.18 -0.72,-0.18 -0.18,-0.36 -0.72,-0.18 0,-0.18 -1.08,-0.36 0,-0.18 -0.54,0 0,-0.18 -0.36,0 0,-0.18 -1.8,-0.36 0,-0.18 -0.9,0 0,-0.18 -1.98,-0.18 0,-0.18 -2.16,0 0,-0.18 c -0.859,-0.239 -3.178,0.012 -3.78,0.18 l -1.98,0 0,0.18 -1.08,0 0,0.18 -0.9,0 0,0.18 -0.9,0 0,0.18 -0.54,0 0,0.18 -0.54,0 0,0.18 -0.54,0 0,0.18 -0.54,0 0,0.18 -0.36,0 0,0.18 -0.54,0 0,0.18 -1.08,0.36 0,0.18 -0.72,0.18 -0.18,0.36 -0.36,0 -0.36,0.54 -0.36,0 -0.36,0.54 -1.08,0.9 0,0.36 -0.36,0.18 -0.18,0.72 -0.18,0 0,1.44 -0.18,0 c -0.218,0.732 -0.681,4.197 -0.36,5.22 l 0.18,0 0,0.54 0.18,0 0,3.78 c 0,2.969 0.286,6.522 -0.18,9.18 -0.529,0.122 -0.433,0.314 -0.54,0.36 -0.317,0.14 -0.64,-0.243 -0.72,-0.18 l -0.18,0.54 -0.72,0 0,0.18 -0.36,0 0,0.18 -0.36,0 c -0.543,0.263 -0.978,0.501 -1.8,0.54 l -0.18,0.54 -2.16,0.36 0,0.36 c -0.555,0.207 -0.721,0.085 -0.9,0.72 -1.263,0.1 -1.817,0.757 -3.06,0.9 l 0,0.36 -1.26,0.18 0,0.36 -0.72,0 0,0.36 c -0.419,0.112 -0.423,0.165 -0.72,0.36 l 0,0.18 -1.26,0 0,0.36 -0.72,0 c -0.109,0.431 -0.057,0.335 -0.36,0.54 l 0,0.18 -1.08,0 0,0.18 c -0.508,0.227 -0.75,0.327 -1.44,0.36 l 0,0.36 -1.26,0.18 -0.18,0.36 -0.54,0 -0.18,0.36 -0.9,0.18 0,0.18 -0.54,0 -0.18,0.36 -1.44,0.18 0.18,-5.4 -0.18,0 0,-0.9 -0.18,0 0,-0.54 -0.18,0 0,-0.9 -0.18,0 0,-0.36 -0.18,0 -0.18,-0.72 -0.36,-0.18 0,-0.36 -0.54,-0.36 -0.72,-0.9 -0.36,0 -0.36,-0.54 -1.08,-0.36 -0.18,-0.36 -3.96,-1.62 -2.7,-0.36 0,-0.18 -1.08,0 0,-0.18 -2.34,0 0,-0.18 -2.52,0 0,0.18 -4.68,0.36 0,0.18 -0.72,0 0,0.18 -0.54,0 0,0.18 -0.54,0 0,0.18 -0.36,0 0,0.18 -0.54,0 -0.36,0.54 -0.72,0.18 -0.18,0.36 -0.54,0.18 -0.18,0.54 -0.72,0 0,0.18 -0.54,0.18 -0.18,0.54 -0.18,0 0,0.36 -0.36,0.18 -0.18,0.72 -0.18,0 0,2.7 c -0.173,0.613 -0.635,2.305 -0.36,3.24 0.153,0.518 0.616,1.427 0.36,2.34 l -0.18,0 0,4.68 c -0.261,0.928 0.113,2.561 -0.18,3.6 l -0.18,0 -0.18,4.86 c -0.531,0.041 -1.787,0.321 -2.16,0.54 l -0.18,0.36 -0.72,0 -0.18,0.36 c -0.499,0.315 -1.09,0.46 -1.8,0.54 l 0,0.36 c -0.309,0.117 -0.565,0.172 -1.08,0.18 l 0,0.54 c -0.81,0.012 -0.969,0.276 -1.44,0.54 l -0.36,0 -0.18,0.36 c -0.432,0.238 -0.484,-0.09 -0.9,0.36 l -0.18,0 0,0.36 -0.54,0 0,0.18 c -0.205,0.206 -0.071,10e-4 -0.18,0.36 l -0.36,0 c -0.123,0.527 -0.2,0.59 -0.72,0.72 l 0,0.54 -0.54,0 c -0.107,0.414 -0.157,0.436 -0.36,0.72 l -0.18,0 0,0.54 -0.18,0 0,0.36 -0.18,0 0,0.54 -0.36,0.18 0,0.9 -0.36,0.18 0.36,3.6 0.36,0 0,0.54 0.18,0 0,0.18 0.54,0 0.36,1.08 0.54,0 0,0.36 0.9,0.18 c 0.131,0.498 0.051,0.403 0.54,0.54 l 0,0.18 1.26,0.18 -2.7,37.44 -20.7,7.74 c 0.231,0.107 0.386,0.178 0.54,0.36 -0.244,0.071 0.06,0.094 -0.18,0.18 l -1.08,0 0,0.18 0.36,0 -0.18,0.54 1.08,0 c 0.454,-0.388 1.14,-0.157 1.8,-0.36 l 0,-0.18 1.26,0 0,-0.18 0.72,0 0,-0.18 0.9,0 c 1.803,-0.58 4.12,-0.89 5.94,-1.44 l 2.16,-0.18 0,-0.18 0.72,0 0,-0.18 1.62,-0.18 0,-0.18 0.9,0 0,-0.18 0.9,0 c 1.169,-0.365 2.479,-0.685 3.96,-0.72 l 0,0.36 -1.08,0.9 0,0.18 -0.36,0 0,0.18 -0.54,0.36 c -0.431,0.427 -0.564,0.89 -1.26,1.08 l 0,0.36 -0.36,0 0,0.36 -0.54,0.18 0,0.18 c -0.441,0.383 -0.8,0.918 -1.44,1.08 l 0,0.36 c -0.497,0.131 -0.402,0.051 -0.54,0.54 -0.62,0.166 -1.026,0.689 -1.44,1.08 l -0.18,0.36 -0.36,0 -2.34,2.52 -0.54,0.36 0,0.18 -0.36,0 0,0.18 -0.54,0.36 -0.18,0.54 -0.54,0.18 -2.16,2.34 -0.36,0 -2.88,3.06 -0.36,0 -2.88,3.06 c 0.198,0.096 0.31,0.333 0.36,0.36 l 0.9,0.18 0,0.18 1.08,0.18 0,0.18 0.36,0 0,0.181 0.54,0 0,0.179 0.36,0 0,0.18 1.08,0.18 0,0.18 0.36,0 0,0.18 1.08,0.18 0,0.181 0.36,0 0,0.179 1.08,0.18 c 4.98,2.189 10.496,3.942 15.48,6.12 l 1.08,0.18 0,0.18 0.36,0 0,0.181 1.08,0.179 0,0.18 0.36,0 0,0.18 0.54,0 0,0.181 0.54,0 0,0.179 0.36,0 0,0.18 0.9,0.18 0,0.18 1.08,0.18 0,0.181 0.36,0 0,0.18 1.08,0.179 0,0.181 0.36,0 0,0.179 1.08,0.181 0,0.179 0.36,0 0,0.181 1.08,0.179 0,0.181 0.36,0 0,0.18 0.54,0 0,0.18 0.36,0 0,0.179 1.08,0.181 c 1.263,0.55 2.758,1.435 4.32,1.619 0.26,-0.403 0.419,-0.263 0.72,-0.539 l 1.44,-1.62 0.36,0 1.44,-1.62 0.36,0 1.62,-1.801 0.36,0 1.26,-1.44 0.36,0 1.62,-1.8 0.54,-0.18 1.44,-1.62 0.36,0 1.44,-1.619 0.36,0 1.62,-1.8 0.36,0 1.26,-1.441 0.36,0 0.54,-0.72 0.9,-0.719 0.18,-0.361 0.36,0 0.72,-0.9 0.72,-0.18 0,-0.18 1.98,0.18 0.18,0.54 0.36,-0.18 0,1.081 c 0.227,0.192 0.189,0.318 0.36,0.539 l 0.18,0 0,0.36 0.9,0.72 0,0.36 1.26,1.08 0,0.36 1.08,0.9 0,0.361 1.08,0.899 0,0.361 1.08,0.899 0,0.36 1.08,0.9 0,0.36 1.08,0.9 0,0.36 1.08,0.9 0,0.36 1.26,1.08 0,0.36 1.08,0.9 0,0.36 1.08,0.901 0,0.36 0.9,0.72 0,0.36 0.72,0.539 0,0.181 0.36,0.179 0,0.36 1.08,0.9 c 0.432,0.477 0.326,0.877 1.08,1.08 l 0,-0.179 2.16,-0.36 0,-0.181 0.9,0 0,-0.179 1.08,0 0,-0.181 0.54,0 0,-0.179 0.54,0 0,-0.18 2.34,-0.36 c 2.351,-0.804 5.193,-1.217 7.56,-1.981 l 0.9,0 0,-0.179 0.72,0 0,-0.181 0.72,0 0,-0.179 0.72,0 0,-0.18 0.9,0 2.88,-0.9 2.34,-0.36 0,-0.181 0.9,0 0,-0.179 0.54,0 0,-0.18 1.8,-0.181 c 3.703,-1.237 8.152,-1.856 11.88,-3.06 l 0.9,0 0,-0.18 0.72,0 0,-0.18 0.9,0 0,-0.18 0.54,0 0,-0.18 0.9,0 0,-0.179 0.72,0 0,-0.181 0.72,0 0,-0.18 0.9,0 0,-0.18 0.54,0 0,-0.18 0.9,0 0,-0.18 0.72,0 0,-0.18 0.72,0 0,-0.18 0.72,0 0,-0.18 1.62,-0.18 0,-0.179 0.72,0 0,-0.181 0.72,0 0,-0.18 0.9,0 c 2.821,-0.913 6.182,-1.387 9,-2.34 l 1.62,-0.179 0,-0.181 0.72,0 0,-0.18 0.72,0 0,-0.18 0.9,0 0,-0.18 0.54,0 0,-0.18 1.62,-0.18 0,-0.179 0.9,0 c 0.935,-0.303 1.837,-0.667 3.06,-0.721 z m 14.22,-57.96 0,-1.26 c 0.275,-0.103 0.296,-0.137 0.72,-0.18 l 0,0.18 1.8,-0.36 0.18,-0.36 0.36,0 0.18,-0.36 0.36,0 0.18,-0.54 0.36,-0.18 0,-0.36 0.18,0 0,-0.36 0.18,0 0,-0.54 0.18,0 -0.18,-4.32 -0.18,0 0,-1.08 -0.18,0 c -0.197,-0.295 -0.241,-0.305 -0.36,-0.72 l 0.36,0.18 0,-1.08 -0.18,0 -0.18,-0.9 -0.18,0 0,-0.36 -0.36,-0.18 -0.18,-0.54 -0.18,0 0,-0.18 0.36,0 0.18,-0.9 0.18,0 0,-0.36 0.36,-0.18 0.18,-0.9 0.18,0 0,-0.72 0.36,-0.18 0.72,-2.16 0.18,0 0.18,-0.72 0.18,0 0.36,-1.62 0.18,0 c 0.31,-0.964 -0.155,-2.917 -0.36,-3.6 l -0.18,0 0,-0.72 0.18,0 0,-2.7 c 0.564,-1.995 -0.001,-5.471 0.36,-7.56 0.053,-0.304 -0.268,-0.662 -0.18,-1.26 l 0.18,0 -0.18,-0.36 c -0.147,-1.15 -0.063,-2.923 0.18,-3.78 l 0,-5.58 0.18,0 0,-4.68 0.18,0 0,-0.36 0.18,0 0,-0.54 0.18,0 0,-2.34 -0.18,-2.52 -0.18,0 0,-1.62 -0.18,0 c -0.174,-0.483 -0.108,-1.049 -0.36,-1.44 l -0.54,-0.36 0,-0.36 -0.72,-0.54 0,-0.18 -0.36,0 -0.36,-0.54 -0.54,0 -0.18,-0.36 -0.36,0 0,-0.18 -0.72,-0.18 -0.18,-0.36 -1.8,-0.54 0,-0.18 -0.36,0 -0.18,-0.36 -0.54,0 0,-0.18 -1.26,-0.18 0,-0.18 -0.9,0 c -1.424,-0.435 -2.965,-0.718 -4.86,-0.72 -1.388,0 -3.228,-0.133 -4.32,0.18 l -1.98,0 0,0.18 -1.08,0 0,0.18 -0.72,0 0,0.18 -1.08,0 0,0.18 -1.62,0.36 0,0.18 -1.08,0.36 0,0.18 -0.72,0.18 -0.54,0.72 -0.36,0 -0.18,0.36 -0.36,0 0,0.18 -0.72,0.54 0,0.36 -0.72,0.54 0,0.36 -0.54,0.36 0,0.54 -0.36,0.18 0,1.26 c 0.639,0.741 -0.411,3.209 0,4.5 l 0.18,0 0,0.54 0.18,0 0,0.54 0.18,0 -0.18,7.74 -0.36,12.24 c -0.367,1.294 -0.046,3.279 -0.18,4.86 -0.037,0.447 -0.342,0.972 -0.18,1.62 l 0.18,0 -0.18,0.9 -0.18,0 0,0.72 c -0.147,0.456 -0.593,1.559 -0.36,2.34 l 0.18,0 0,0.9 0.18,0 0,0.18 -0.18,0 0,0.18 0.18,0 0.18,0.72 0.18,0 0.18,0.9 0.18,0 0.36,1.8 0.18,0 0,0.36 0.18,0 0.18,1.08 0.18,0 0,0.36 0.18,0 0,0.54 c 0.193,0.481 0.47,0.763 0.54,1.44 l 0.36,0 0,0.18 c -0.478,0.318 -0.462,0.71 -0.72,1.26 l -0.18,0 0,0.72 -0.18,0 0,0.36 -0.18,0 0.18,0.54 -0.18,0 0,0.36 -0.18,0 0,1.8 c -0.34,1.165 -0.581,3.602 0,4.68 l 0.36,0.18 0,0.36 0.36,0.18 0.9,1.08 0.18,0 0,-0.18 c 0.503,0.174 0.741,0.351 0.9,0.9 0.485,0.097 0.982,0.331 1.44,0.54 l 0,0.18 0.9,0 0,0.18 0.18,0 0,-0.18 0.18,0 0.54,0.72 0.54,0 0,0.18 0.54,0 0,0.18 0.72,0 0,0.18 1.62,0.18 0,-0.18 0.18,0 0,0.18 2.88,0.18 0,0.18 0.36,-0.18 0,0.18 0.36,0 0,0.18 c 0.735,0.263 3.134,-0.215 3.6,-0.36 l 1.08,0 0,-0.18 1.26,0 0,-0.18 0.18,0 0,0.18 0.18,0 0,-0.18 0.18,0 c 0.002,10e-4 0.086,0.245 0.36,0.18 l 0,-0.18 3.06,-0.72" />
    </clipPath>
    <clipPath
       id="clipPath2882"
       clipPathUnits="userSpaceOnUse">
      <path
         id="path2884"
         d="m 0,711.03 495,0 0,-711 -495,0 0,711 z" />
    </clipPath>
    <clipPath
       id="clipPath2876"
       clipPathUnits="userSpaceOnUse">
      <path
         id="path2878"
         d="m 3.1e-5,711 494.999999,0 0,-711 L 3.1e-5,0 l 0,711 z" />
    </clipPath>
    <clipPath
       id="clipPath2866"
       clipPathUnits="userSpaceOnUse">
      <path
         id="path2868"
         d="m 0,711.03 495,0 0,-711 -495,0 0,711 z" />
    </clipPath>
    <clipPath
       id="clipPath2860"
       clipPathUnits="userSpaceOnUse">
      <path
         id="path2862"
         d="m 3.1e-5,711 494.999999,0 0,-711 L 3.1e-5,0 l 0,711 z" />
    </clipPath>
    <clipPath
       id="clipPath2854"
       clipPathUnits="userSpaceOnUse">
      <path
         id="path2856"
         clip-rule="evenodd"
         d="m 36,351 423,0 0,-315 -423,0 0,315 z" />
    </clipPath>
    <clipPath
       id="clipPath2838"
       clipPathUnits="userSpaceOnUse">
      <path
         id="path2840"
         d="m 0,711.03 495,0 0,-711 -495,0 0,711 z" />
    </clipPath>
    <clipPath
       id="clipPath2832"
       clipPathUnits="userSpaceOnUse">
      <path
         id="path2834"
         d="m 3.1e-5,711 494.999999,0 0,-711 L 3.1e-5,0 l 0,711 z" />
    </clipPath>
    <inkscape:perspective
       id="perspective2824"
       inkscape:persp3d-origin="0.5 : 0.33333333 : 1"
       inkscape:vp_z="1 : 0.5 : 1"
       inkscape:vp_y="0 : 1000 : 0"
       inkscape:vp_x="0 : 0.5 : 1"
       sodipodi:type="inkscape:persp3d" />
  </defs>
  <sodipodi:namedview
     id="base"
     pagecolor="#ffffff"
     bordercolor="#666666"
     borderopacity="1.0"
     inkscape:pageopacity="0.0"
     inkscape:pageshadow="2"
     inkscape:zoom="5.6428571"
     inkscape:cx="122.85714"
     inkscape:cy="11.428571"
     inkscape:document-units="px"
     inkscape:current-layer="layer1"
     showgrid="false"
     inkscape:window-width="1680"
     inkscape:window-height="1000"
     inkscape:window-x="-8"
     inkscape:window-y="-8"
     inkscape:window-maximized="1" />
  <metadata
     id="metadata7">
    <rdf:RDF>
      <cc:Work
         rdf:about="">
        <dc:format>image/svg+xml</dc:format>
        <dc:type
           rdf:resource="http://purl.org/dc/dcmitype/StillImage" />
        <dc:title></dc:title>
      </cc:Work>
    </rdf:RDF>
  </metadata>
  <g
     inkscape:label="Layer 1"
     inkscape:groupmode="layer"
     id="layer1"
     transform="translate(1045.0217,-132.35004)">
    <g
       id="g2850"
       transform="matrix(1.25,0,0,-1.25,65.146756,976.67428)">
      <g
         id="g2852"
         clip-path="url(#clipPath2854)">
        <g
           id="g2858"
           clip-path="url(#clipPath2860)">
          <g
             id="g2864"
             clip-path="url(#clipPath2866)">
            <g
               id="g2870"
               transform="matrix(307.194,0,0,268.699,152.37,82.67)" />
          </g>
        </g>
      </g>
    </g>
    <g
       id="g3018"
       transform="matrix(1.25,0,0,-1.25,65.146756,976.67428)">
      <g
         id="g3020"
         clip-path="url(#clipPath3022)">
        <g
           id="g3026"
           clip-path="url(#clipPath3028)">
          <g
             id="g3032"
             clip-path="url(#clipPath3034)">
            <g
               id="g3038"
               transform="matrix(175.673,0,0,146.334,49.504,415.064)" />
          </g>
        </g>
      </g>
    </g>
    <g
       id="g3040"
       transform="matrix(1.25,0,0,-1.25,-951.01681,135.03214)">
      <path
         d="m 0,0 c -23.603,0 -46.468,-4.712 -71.824,-18.681 l 2.628,-5.087 c -2.424,-1.178 -4.043,-3.68 -4.043,-6.557 0,-4.015 3.254,-7.27 7.269,-7.27 1.313,0 2.543,0.423 3.605,1.031 l 2.699,-4.955 c 23.057,12.104 40.865,15.506 59.666,15.506 18.801,0 36.609,-3.402 59.666,-15.506 l 2.698,4.955 c 1.063,-0.608 2.294,-1.031 3.606,-1.031 4.015,0 7.27,3.255 7.27,7.27 0,2.877 -1.619,5.379 -4.044,6.557 l 2.628,5.087 C 46.467,-4.712 23.603,0 0,0"
         style="fill:#ffffff;fill-opacity:1;fill-rule:nonzero;stroke:none"
         id="path3042" />
    </g>
    <g
       id="g3044"
       transform="matrix(1.25,0,0,-1.25,-1126.2818,893.81714)">
      <g
         id="g3046"
         clip-path="url(#clipPath3048)">
        <g
           id="g3052"
           transform="translate(140.212,607.028)">
          <path
             d="m 0,0 c -23.603,0 -46.468,-4.712 -71.824,-18.681 l 2.628,-5.087 c -2.424,-1.178 -4.043,-3.68 -4.043,-6.557 0,-4.015 3.254,-7.27 7.269,-7.27 1.313,0 2.543,0.423 3.605,1.031 l 2.699,-4.955 c 23.057,12.104 40.865,15.506 59.666,15.506 18.801,0 36.609,-3.402 59.666,-15.506 l 2.698,4.955 c 1.063,-0.608 2.294,-1.031 3.606,-1.031 4.015,0 7.27,3.255 7.27,7.27 0,2.877 -1.619,5.379 -4.044,6.557 l 2.628,5.087 C 46.467,-4.712 23.603,0 0,0 z"
             style="fill:none;stroke:#ef3e42;stroke-width:1.94500005;stroke-linecap:butt;stroke-linejoin:miter;stroke-miterlimit:3.86400008;stroke-opacity:1;stroke-dasharray:none"
             id="path3054" />
        </g>
      </g>
    </g>
    <g
       id="g3056"
       transform="matrix(1.25,0,0,-1.25,-1035.0068,172.93839)">
      <path
         d="M 0,0 C 0,0.675 0.547,1.222 1.223,1.222 1.898,1.222 2.445,0.675 2.445,0 2.445,-0.675 1.898,-1.222 1.223,-1.222 0.547,-1.222 0,-0.675 0,0"
         style="fill:#ef3e42;fill-opacity:1;fill-rule:nonzero;stroke:none"
         id="path3058" />
    </g>
    <g
       id="g3060"
       transform="matrix(1.25,0,0,-1.25,-870.08181,172.93839)">
      <path
         d="M 0,0 C 0,0.675 0.547,1.222 1.222,1.222 1.897,1.222 2.444,0.675 2.444,0 2.444,-0.675 1.897,-1.222 1.222,-1.222 0.547,-1.222 0,-0.675 0,0"
         style="fill:#ef3e42;fill-opacity:1;fill-rule:nonzero;stroke:none"
         id="path3062" />
    </g>
    <g
       id="g3064"
       transform="matrix(1.25,0,0,-1.25,-1017.2718,154.91089)">
      <path
         d="M 0,0 2.107,-4.755 0.162,-5.619 c -0.512,1.086 -1.242,1.721 -2.431,1.891 -1.513,0.216 -4.377,-1.621 -3.999,-2.81 0.386,-1.212 0.973,-1.405 2,-1.405 2.196,0 3.513,0.281 5.619,0.379 2.323,0.108 3.722,-2.072 3.836,-4.323 0.162,-3.188 -5.403,-5.457 -7.456,-5.295 -2.185,0.173 -3.404,1.297 -4.431,3.458 l 2.324,1.135 c 0.486,-0.865 1.175,-1.987 2.431,-2.053 1.027,-0.055 4.269,0.864 3.89,2.755 -0.166,0.833 -0.27,1.675 -1.567,1.513 -2.048,-0.256 -3.138,-0.286 -5.295,-0.432 -3.187,-0.216 -4.43,2.215 -4.43,4.43 0,2.702 3.89,4.917 6.646,4.863 0.337,-0.007 0.529,-0.017 0.864,-0.054 l 0.108,0.81 L 0,0"
         style="fill:#231f20;fill-opacity:1;fill-rule:nonzero;stroke:none"
         id="path3066" />
    </g>
    <g
       id="g3068"
       transform="matrix(1.25,0,0,-1.25,-1012.1943,152.90714)">
      <path
         d="m 0,0 5.988,1.909 4.701,-6.862 0.054,8.267 5.551,1.517 0.716,-2.274 c 0,0 -1.621,-0.108 -0.918,-1.837 l 2.971,-6.375 c 0.757,-1.459 2.27,-0.865 2.27,-0.865 l 0.594,-2.431 -6.052,-1.621 -0.648,2.269 c 0,0 1.837,0.649 1.189,2.107 l -3.08,6.052 0.108,-11.13 -1.891,-0.487 -5.889,9.185 0.432,-6.645 c 0.162,-1.567 2.377,-1.081 2.377,-1.081 l 0.649,-2.269 -5.566,-1.999 -0.864,2.269 c 0,0 1.081,0.432 1.027,1.567 L 2.908,-3.278 C 2.692,-1.279 0.801,-2.035 0.801,-2.035 L 0,0"
         style="fill:#231f20;fill-opacity:1;fill-rule:nonzero;stroke:none"
         id="path3070" />
    </g>
    <g
       id="g3072"
       transform="matrix(1.25,0,0,-1.25,-987.62181,145.86089)">
      <path
         d="m 0,0 5.673,1.189 0.324,-2.161 c 0,0 -1.513,0.108 -0.972,-2.108 l 1.513,-6.862 c 0.324,-1.134 1.554,-1.329 2.917,-1.134 1.135,0.162 2.107,0.864 1.945,1.837 l -1.08,7.834 c -0.162,1.189 -1.513,1.027 -1.513,1.027 l -0.384,2.084 5.539,0.838 0.322,-2.319 c 0,0 -1.425,0.153 -1.047,-1.954 l 0.865,-6.268 c 0.378,-2.539 -0.324,-4.754 -3.944,-5.456 -3.787,-0.735 -5.836,0.432 -6.43,2.863 L 2.053,-3.296 C 1.729,-1.837 0.378,-2.053 0.378,-2.053 L 0,0"
         style="fill:#231f20;fill-opacity:1;fill-rule:nonzero;stroke:none"
         id="path3074" />
    </g>
    <g
       id="g3076"
       transform="matrix(1.25,0,0,-1.25,-951.62556,141.87589)">
      <path
         d="m 0,0 -0.108,-5.565 -2.431,0.054 c 0.048,1.758 -0.92,3.299 -3.134,3.242 -2.107,-0.055 -3.188,-0.973 -3.08,-2.756 l 0.217,-5.295 c 0.108,-1.945 1.524,-2.597 3.079,-2.539 1.268,0.046 2.593,0.27 2.648,1.891 l 0.162,1.999 2.863,0 -0.107,-2.648 c -0.217,-3.187 -3.026,-3.836 -5.674,-3.836 -4.43,0 -6.051,2.216 -6.159,7.024 l 0,4.323 c 0,3.242 2.917,4.484 6.159,4.484 1.326,0 2.139,-0.291 3.242,-1.026 L -1.999,0.054 0,0"
         style="fill:#231f20;fill-opacity:1;fill-rule:nonzero;stroke:none"
         id="path3078" />
    </g>
    <g
       id="g3080"
       transform="matrix(1.25,0,0,-1.25,-948.45056,141.87589)">
      <path
         d="m 0,0 6.051,-0.216 -0.107,-2.27 c 0,0 -1.405,0.054 -1.514,-1.188 0,0 -0.161,-2.107 0.217,-2.486 0.702,-0.054 3.62,2.162 3.62,2.162 0.81,0.594 0.81,1.404 -0.109,1.512 l 0.055,2.108 6.537,-0.486 -0.216,-2.378 c 0,0 -0.81,0.378 -2.593,-0.81 l -3.188,-2.378 2.756,-5.133 c 1.08,-1.728 2.215,-1.782 2.215,-1.782 l -0.216,-2.216 -4.431,0.324 c 0.162,2.702 -0.594,3.566 -0.594,3.566 L 6.268,-8.159 C 5.242,-8.483 4.269,-9.563 4.269,-9.563 c -0.325,-1.081 -0.108,-1.838 -0.108,-1.838 0,-1.296 1.459,-1.242 1.459,-1.242 l -0.055,-2.27 -6.052,0.163 -0.107,2.161 c 0,0 1.729,-0.054 1.837,1.621 l 0.216,7.402 C 1.405,-2.486 0,-2.432 0,-2.432 L 0,0"
         style="fill:#231f20;fill-opacity:1;fill-rule:nonzero;stroke:none"
         id="path3082" />
    </g>
    <g
       id="g3084"
       transform="matrix(1.25,0,0,-1.25,-926.43306,143.56464)">
      <path
         d="M 0,0 12.049,-2.107 10.914,-7.078 8.915,-6.7 c 0.27,1.297 0.162,2.81 -2.485,3.242 l -1.837,0.216 c 0,0 -0.811,-0.054 -0.973,-0.918 L 3.404,-5.511 C 3.188,-6.592 4.16,-6.808 4.16,-6.808 l 3.404,-0.54 -0.486,-2.486 -3.242,0.54 c 0,0 -0.972,0.163 -1.189,-0.864 l -0.216,-1.351 c 0,0 0,-1.404 1.027,-1.566 l 1.621,-0.271 c 1.188,-0.216 2.431,0.379 2.809,2.162 l 2.053,-0.433 -1.08,-5.024 -11.292,2.053 0.432,2.431 c 0,0 1.621,-0.324 1.837,1.081 l 1.027,7.834 c 0.107,1.027 -1.243,1.243 -1.243,1.243 L 0,0"
         style="fill:#231f20;fill-opacity:1;fill-rule:nonzero;stroke:none"
         id="path3086" />
    </g>
    <g
       id="g3088"
       transform="matrix(1.25,0,0,-1.25,-889.17931,149.12339)">
      <path
         d="M 0,0 3.349,-1.417 C 2.755,-3.795 0.965,-5.733 0.451,-6.055 c 0.063,0 -1.095,0.58 -1.095,0.58 l 0.579,1.288 c 0.838,2.061 -0.837,1.997 -0.837,1.997 L 0,0"
         style="fill:#231f20;fill-opacity:1;fill-rule:nonzero;stroke:none"
         id="path3090" />
    </g>
    <g
       id="g3092"
       transform="matrix(1.25,0,0,-1.25,-872.04431,160.33089)">
      <path
         d="m 0,0 -2.255,-4.685 -1.918,0.921 c 0.495,1.094 0.506,2.06 -0.135,3.076 -0.817,1.292 -4.07,2.281 -4.73,1.223 -0.673,-1.079 -0.439,-1.651 0.226,-2.432 1.423,-1.672 2.437,-2.544 3.928,-4.033 1.518,-1.513 0.835,-4.174 -0.804,-5.72 -2.321,-2.189 -7.655,0.577 -8.862,2.245 -1.285,1.775 -1.218,3.431 -0.238,5.613 l 2.369,-1.033 c -0.343,-0.93 -0.751,-2.183 0.012,-3.182 0.624,-0.816 3.424,-2.688 4.619,-1.175 0.526,0.666 1.1,1.291 0.136,2.172 -1.522,1.394 -2.252,2.204 -3.76,3.751 -2.23,2.287 -1.185,4.808 0.502,6.243 2.056,1.751 6.263,0.225 8.008,-1.908 0.213,-0.261 0.334,-0.41 0.519,-0.693 L -1.697,0.826 0,0"
         style="fill:#231f20;fill-opacity:1;fill-rule:nonzero;stroke:none"
         id="path3094" />
    </g>
    <g
       id="g3096"
       transform="matrix(1.25,0,0,-1.25,-907.38806,147.14464)">
      <path
         d="m 0,0 8.7,-2.486 c 1.778,-0.522 3.206,-1.77 3.079,-3.62 -0.27,-3.944 -1.866,-4.953 -4.43,-4.862 L 8.7,-14.805 c 0.432,-1.458 1.512,-1.728 1.512,-1.728 l -0.972,-2.162 -3.674,1.351 c 0,0 0.918,5.997 -3.134,7.402 -0.454,0.158 -0.811,-0.27 -0.973,-0.756 l -0.216,-0.973 c -0.432,-1.458 1.081,-1.945 1.081,-1.945 l -0.865,-2.323 -5.349,1.675 0.594,2.377 c 0,0 1.351,-0.648 2,1.243 l 1.621,5.943 c 0.594,2.377 -0.865,2.432 -0.865,2.432 L 0,0"
         style="fill:#231f20;fill-opacity:1;fill-rule:nonzero;stroke:none"
         id="path3098" />
    </g>
    <g
       id="g3100"
       transform="matrix(1.25,0,0,-1.25,-1126.2818,893.81714)">
      <g
         id="g3102"
         clip-path="url(#clipPath3104)">
        <g
           id="g3108"
           transform="translate(202.428,565.943)">
          <path
             d="m 0,0 c -0.533,-0.919 -0.22,-2.096 0.699,-2.628 0.92,-0.533 2.096,-0.221 2.629,0.699 0.533,0.919 0.22,2.095 -0.7,2.628 C 1.709,1.232 0.533,0.919 0,0 z M 0.907,-2.27 C 0.213,-1.867 -0.011,-0.958 0.408,-0.237 0.827,0.486 1.725,0.744 2.421,0.341 3.116,-0.062 3.339,-0.97 2.92,-1.693 2.501,-2.415 1.603,-2.673 0.907,-2.27 z m 0.447,1.659 0.314,0.543 0.368,-0.213 C 2.225,-0.39 2.437,-0.562 2.309,-0.781 2.156,-1.046 1.933,-0.946 1.695,-0.808 L 1.354,-0.611 z M 1.494,-2.136 1.88,-2.36 1.833,-1.242 c 0.297,-0.107 0.601,-0.09 0.8,0.255 0.224,0.385 0.076,0.687 -0.395,0.96 L 1.498,0.402 0.395,-1.5 0.727,-1.692 1.193,-0.889 1.475,-1.053 1.494,-2.136"
             style="fill:#231f20;fill-opacity:1;fill-rule:nonzero;stroke:none"
             id="path3110" />
        </g>
      </g>
    </g>
    <g
       id="g3112"
       transform="matrix(1.25,0,0,-1.25,-903.77056,156.38839)">
      <path
         d="M 0,0 C -0.097,0.875 0.632,2.918 1.021,3.209 1.459,3.452 3.939,2.577 3.939,2.577 5.154,2.188 5.835,1.653 5.398,0.097 4.923,-1.591 3.793,-1.167 2.528,-0.875 2.528,-0.875 0.292,-0.34 0,0"
         style="fill:#ffffff;fill-opacity:1;fill-rule:nonzero;stroke:none"
         id="path3114" />
    </g>
  </g>
</svg>
