<svg xmlns="http://www.w3.org/2000/svg" width="92" height="364" viewBox="0 0 92 364">
  <g id="グループ_10" data-name="グループ 10" transform="translate(-125 -108)">
    <path id="パス_47" data-name="パス 47" d="M19.541-12.92q.322-.088,1-.205.293-.029.615-.029h.527l-.205,2.93a6.41,6.41,0,0,1-1.055.146q-.205.029-.527.088-.381.088-.586.117.088-.527.117-.791.029-.41.059-.762.029-.469.029-.7Q19.541-12.539,19.541-12.92Zm-2.432-4.189a20,20,0,0,1,2.373-.5,19.11,19.11,0,0,1,2.373-.234l-.146,2.461q-.205.029-.557.059-.381.059-.615.088a4.1,4.1,0,0,0-.557.117l-.527.088a7.758,7.758,0,0,0-1.025-1.23A4.373,4.373,0,0,0,17.109-17.109ZM9.229-13.1q.059-.586.059-.937-.029-.439-.088-.879a.8.8,0,0,0-.029-.176.908.908,0,0,0-.059-.176,1.433,1.433,0,0,0-.088-.146l-.117-.117q.381-.586.762-1.23.41-.645.732-1.23.381-.615.762-1.26.352-.615.732-1.26a.816.816,0,0,0,.176-.5,2.338,2.338,0,0,0-.088-.615,5.918,5.918,0,0,0-1.611-1.553,7.281,7.281,0,0,0-2.051-.85H8.174A.239.239,0,0,0,8-23.965a.356.356,0,0,0-.088.176.271.271,0,0,0,0,.176.341.341,0,0,0,.059.088q.264.352.352.5.117.234.352.674A30.289,30.289,0,0,1,5.6-14.795,28.9,28.9,0,0,1,.645-8.35q.234-.059.645-.117a6.238,6.238,0,0,1,.645.059h.029a1.2,1.2,0,0,0,.645,0,1.422,1.422,0,0,0,.615-.234q.791-.7,1.7-1.611a10.856,10.856,0,0,0,1.436-1.787q.117,1.26.176,2.2.088,1.2.088,2.168Q6.65-5.6,6.475-3.281a1.659,1.659,0,0,1-.088.527q-.117.381-.176.527a1.083,1.083,0,0,0-.176.615,1.756,1.756,0,0,0,.117.7,5.068,5.068,0,0,0,.674,1.2,11.984,11.984,0,0,0,1,1,.585.585,0,0,0,.41.088.52.52,0,0,0,.352-.234Q8.613,1,8.643.879,8.73.439,8.789.234q.059-.41.117-.7.029-.352.059-.791v-.85q-.029-1.23-.059-2.549,0-1.23.029-2.578.029-1.377.059-2.578.059-1.348.146-2.578a18,18,0,0,0,1.67.791,7.586,7.586,0,0,0,1.729.615q.967-.381,2.168-.762a12.824,12.824,0,0,1,2.227-.439q0,.322-.029.674a5.6,5.6,0,0,1-.059.7q-.088.732-.176,1.348-1.729.264-3.516.645-1.963.439-3.4.908a8.287,8.287,0,0,0,1.523,1.025,10.9,10.9,0,0,0,1.7.791.631.631,0,0,0,.41.088.591.591,0,0,0,.381-.117,11.336,11.336,0,0,1,1.2-.5q.117-.029.381-.117L16.143-7a39.742,39.742,0,0,1-.82,4.248q-.527,2.051-1.26,4.16a3.48,3.48,0,0,1-.234.439,2.841,2.841,0,0,1-.41.352l.82.088a1.821,1.821,0,0,0,.85-.146,2.282,2.282,0,0,0,.674-.557,31.355,31.355,0,0,0,2.051-4.395A27.233,27.233,0,0,0,19.1-7.529a20,20,0,0,1,2.93-.381q.674-.029,1.465-.029.645,0,1.465.059l.352-.469L24.961-9.99l-.7-.205.381-3.252h.82q.615-.029.908-.029.352,0,.82.029.264,0,.82.029H28.1a.685.685,0,0,0,.586-.088.728.728,0,0,0,.352-.469l.146-.527a.457.457,0,0,0,0-.322,1.782,1.782,0,0,0-.205-.264,3.146,3.146,0,0,0-1.055-.586,3.5,3.5,0,0,0-1.2-.176l-1.465.088a5.57,5.57,0,0,1,.293-.7,3.99,3.99,0,0,1,.5-.586.344.344,0,0,0,.146-.322,1.034,1.034,0,0,0-.088-.41,10.942,10.942,0,0,0-1.436-1.406,9.754,9.754,0,0,0-1.816-.879,4.846,4.846,0,0,0-.762-.176,2.466,2.466,0,0,0-.762.146,2.841,2.841,0,0,1-.615.117,2.781,2.781,0,0,1-.645.059q-1.143,0-2.285.088-1.084.117-2.256.293a25.19,25.19,0,0,0-4.395,1.172q.82.557,1.67,1.025a14.533,14.533,0,0,0,1.846.732.317.317,0,0,0,.234.088.762.762,0,0,0,.234-.029l.645-.205a5.2,5.2,0,0,1,.645.967,3.71,3.71,0,0,1,.352,1.143q-.469.088-.908.146-.557.088-.967.176-1.055.176-1.9.352-.674.176-1.553.381-.762.176-1.553.352Q9.551-13.154,9.229-13.1Zm9.961,38.986,1.025-.264q-.117.732-.205,1.523a13.327,13.327,0,0,0-.146,1.494,2.564,2.564,0,0,0-.557-.381,3.666,3.666,0,0,0-.586-.234Zm-9.668,3.6.117,1.377q-.908.234-1.787.557-.85.322-1.729.7a2.177,2.177,0,0,1-.381.088,3.111,3.111,0,0,1-.439-.029Zm5.713,9.111A8,8,0,0,1,16.7,38.4a12.635,12.635,0,0,1,1.494.029,6.8,6.8,0,0,1-.264,2.109,8.194,8.194,0,0,1-.82,1.846,5.407,5.407,0,0,1-1.816-.615,6.016,6.016,0,0,1-1.436-1.289ZM7.881,27.971l2.344-.762L14.5,30.285a.39.39,0,0,0,.234.088.278.278,0,0,0,.234-.117l.439-.264a3.664,3.664,0,0,0-1.23-2.256,3.626,3.626,0,0,0-2.4-.908l3.135-.879a3.735,3.735,0,0,0,.469.5,3.319,3.319,0,0,0,.586.381l.82-.264-.293,1.26H15.088a4.054,4.054,0,0,0,.5.7l.586.645q-.381,1.143-.879,2.285-.469,1.143-1.055,2.256a1.367,1.367,0,0,0-.41-.41,1.35,1.35,0,0,0-.5-.264l-1.494.176v-.732l1.875-.791a1.82,1.82,0,0,0-.732-.967,2.056,2.056,0,0,0-1.2-.439V29.113a1.245,1.245,0,0,0-.146-.5.651.651,0,0,0-.381-.264l-1.289-.088a2.078,2.078,0,0,0-.264.088.435.435,0,0,0-.205.117l-.615.381ZM2.2,28.146a7.157,7.157,0,0,0,1.348.645,11.588,11.588,0,0,0,1.465.439.542.542,0,0,0,.352,0,1.1,1.1,0,0,0,.352-.205,3.238,3.238,0,0,1,.615-.439,2.614,2.614,0,0,1,.732-.293l.146.264-4.629,3.75a1.593,1.593,0,0,1,.439-.059,1.327,1.327,0,0,1,.469.088,1.752,1.752,0,0,0,.732.146,1.961,1.961,0,0,0,.762-.146,9.092,9.092,0,0,1,1.172.381q.527.264,1.084.557A2.181,2.181,0,0,0,8,33.508a1.6,1.6,0,0,0,.82-.088l.938-.293.029.7q-1.494.527-3.018,1.084-1.494.615-2.959,1.23a9.8,9.8,0,0,1-1.2.586,7.914,7.914,0,0,1-1.26.381q.85.615,1.729,1.143a16.375,16.375,0,0,0,1.875.791.5.5,0,0,0,.41,0,.756.756,0,0,0,.381-.176A18.319,18.319,0,0,1,9.316,36.32a17.777,17.777,0,0,1,4.131-1.67,1.845,1.845,0,0,0,.176.908,1.551,1.551,0,0,0,.557.674l-.234.469q-1.436.205-2.812.5-1.377.322-2.754.762a4.583,4.583,0,0,0-.732,0q-.322.059-.674.117a.881.881,0,0,0,.264.41q.176.176.352.322l1.934,1.113a8.7,8.7,0,0,1,1.318-.439q.645-.176,1.348-.352-1.934,1.963-4.014,3.75a46.2,46.2,0,0,1-4.453,3.223l1.23.264a3,3,0,0,0,1.025.059,3.384,3.384,0,0,0,1-.352,33.465,33.465,0,0,0,3.4-2.4,35.79,35.79,0,0,0,3.135-2.783q.791,1.348,1.729,2.7.967,1.318,1.992,2.549l.82-.059a2.539,2.539,0,0,0,.527-.5l.41-.586a5.54,5.54,0,0,0,.732-1.23,6.3,6.3,0,0,0,.439-1.377q.146-.908.352-1.787.234-.937.527-1.816.176-.059.41-.146.234-.146.41-.264a2.425,2.425,0,0,0-.146-.82,1.472,1.472,0,0,0-.557-.586l-2.432-1.084a1.538,1.538,0,0,0-.615-.059,1.8,1.8,0,0,0-.557.146,4.069,4.069,0,0,1-.586.264q-.322.088-.645.146a1.926,1.926,0,0,0-.059-.469q-.059-.205-.146-.439l-.762-.557a11.487,11.487,0,0,0,1.582-2.051A11.179,11.179,0,0,0,17.9,30.52l1.348.908a.858.858,0,0,0,.527.205.645.645,0,0,0,.469-.205,6.964,6.964,0,0,0,7.646,4.014.975.975,0,0,0,.469-.41.717.717,0,0,0,.117-.557A12.178,12.178,0,0,0,24.961,28a6.521,6.521,0,0,1,.586,2.109,5.732,5.732,0,0,1-.146,2.227,3.88,3.88,0,0,1-1.816-.205,3.4,3.4,0,0,1-1.494-1.084,6.383,6.383,0,0,1-.234-2.578,6.436,6.436,0,0,1,.938-2.4A3.2,3.2,0,0,0,23.7,25.3q.41-.41.791-.85a1.309,1.309,0,0,0-.293-.762,1.683,1.683,0,0,0-.557-.5l-2.08-.908a.892.892,0,0,0-.322,0,1.284,1.284,0,0,0-.234.117l-.5.586-.908.234a6.07,6.07,0,0,0,.146-1.289,9.113,9.113,0,0,0-.088-1.289,6.5,6.5,0,0,0-1.582-1.523,5.014,5.014,0,0,0-1.963-.85l-.293.615q.41.527.82,1,.439.527.82,1.055,0,.732-.029,1.436-.059.732-.176,1.406l-2.344.615a2.362,2.362,0,0,0-.381-.205l-.41-.117a2.236,2.236,0,0,0,.088.645,2.36,2.36,0,0,0,.293.645l-.732-.586a.473.473,0,0,0-.264-.117,1.49,1.49,0,0,0-.293-.029,3.292,3.292,0,0,0-.645.059q-.264.029-.557.088l-.059-.762,2.139-.7.176-.41a3.11,3.11,0,0,0-.879-1,3.856,3.856,0,0,0-1.172-.645,3.791,3.791,0,0,1,.176-.674,4.576,4.576,0,0,1,.234-.732,4.407,4.407,0,0,0-1.2-1.289,4.765,4.765,0,0,0-1.611-.7.813.813,0,0,0-.527,0,1.756,1.756,0,0,0-.469.234q.205.352.439.732.264.381.527.732l.059,2.4-5.01,1.553A5.658,5.658,0,0,0,6.24,24.543a7.168,7.168,0,0,0,1.611.557l2.08-.615v.586l.117.205q-1.992.645-3.955,1.377Q4.1,27.326,2.2,28.146ZM14.209,79.408a33.9,33.9,0,0,1,3.6-.615,31.8,31.8,0,0,1,3.633-.264,12.8,12.8,0,0,1-.234,2.08,14.182,14.182,0,0,1-.381,2.021q-1.582,0-3.047.059-1.523.117-3.018.352Zm1.23-14.355a3.909,3.909,0,0,0-1.23-1.172,4.784,4.784,0,0,0-1.582-.674l-.937.293.586.5a11.932,11.932,0,0,1-2.139,2.4,11.178,11.178,0,0,1-2.666,1.787l1.67,1.2a5.268,5.268,0,0,0,1.729-.293,4.393,4.393,0,0,0,1.494-.908q.469-.381.938-.732.469-.41.938-.762A13.751,13.751,0,0,0,16,66.986a10.637,10.637,0,0,0,1.758-.029l-4.219,5.449a8.428,8.428,0,0,0-2.373-1.758,7.9,7.9,0,0,0-2.842-.7A.52.52,0,0,0,8.086,70a.282.282,0,0,0-.117.146.649.649,0,0,0-.029.205.282.282,0,0,0,.117.146q.527.439,1.025.85t1,.85a3.045,3.045,0,0,0,.791,1.084,3.1,3.1,0,0,0,1.143.732A48.178,48.178,0,0,1,8.584,77.5q-1.816,1.641-3.75,3.135a11.424,11.424,0,0,1-1.055.732q-.527.293-1.113.615a2.034,2.034,0,0,0,1,1.025,1.9,1.9,0,0,0,1.465.176l.527-.176a1.9,1.9,0,0,0,.469-.264,26.871,26.871,0,0,0,2.314-1.582,26.121,26.121,0,0,0,2.08-1.816,10.593,10.593,0,0,1,.791,2.021,10.362,10.362,0,0,1,.439,2.051,4.169,4.169,0,0,0,.381,1.377,6.3,6.3,0,0,0,.674,1.23l1.348,1.26,1.318-1.406q2.051-.322,4.1-.439,2.08-.117,4.131-.088l-.615-.879a9.554,9.554,0,0,0,1.348-1.7,11.487,11.487,0,0,0,.938-1.9q.381-.469.791-.908a9.5,9.5,0,0,1,.85-.908.513.513,0,0,0,.176-.469.548.548,0,0,0-.352-.439l-5.1-2.549-.732.146q-2.021.146-3.984.469t-3.926.85q1.2-1.113,2.344-2.344,1.143-1.2,2.2-2.49a28.04,28.04,0,0,1,2.256-2.549q1.23-1.2,2.52-2.285a.614.614,0,0,0,.381-.41.779.779,0,0,0-.029-.557,3.528,3.528,0,0,0-1.055-1.348,3.721,3.721,0,0,0-1.523-.879.928.928,0,0,0-.41-.029,1.154,1.154,0,0,0-.469.176l-.586.674a11.587,11.587,0,0,1-1.641.117A15.389,15.389,0,0,1,15.439,65.053Zm7.529,48.918A1.6,1.6,0,0,1,23.5,114a1.634,1.634,0,0,1,.469.205A17.386,17.386,0,0,1,23,120.914a17.574,17.574,0,0,1-3.545,5.83,10.558,10.558,0,0,1-1.406-.879,9.272,9.272,0,0,1-1.143-1.172,35.165,35.165,0,0,0,3.311-3.955A38.278,38.278,0,0,0,23,116.373l.527-.674-.117-1.084Zm-6.445-1.055q.645-1.143,1.289-2.256.674-1.084,1.348-2.139a1.358,1.358,0,0,0,.146-.615,1.679,1.679,0,0,0-.146-.7,3.793,3.793,0,0,0-1.143-1,3.254,3.254,0,0,0-1.436-.439l-1.289.088.85,1.582-2.783,6.8a6.634,6.634,0,0,0-1.143-.732,5.859,5.859,0,0,0-1.26-.469l-.469.146q.117-1.172.352-2.344t.5-2.314a1.745,1.745,0,0,0,.088-.7,2.005,2.005,0,0,0-.205-.762,5.824,5.824,0,0,0-1.084-1.318,7.55,7.55,0,0,0-1.406-1,1.014,1.014,0,0,0-.5-.176,1.479,1.479,0,0,0-.586,0,3.509,3.509,0,0,0,.176.879,2.894,2.894,0,0,0,.439.791l.088,7.412-1.641.381a1.133,1.133,0,0,0,.146-.82,1.574,1.574,0,0,0-.293-.791,3.568,3.568,0,0,0-1.143-.85,4.566,4.566,0,0,0-1.348-.557,1.487,1.487,0,0,0-.41-.059,1.882,1.882,0,0,0-.469,0l.7,1.113a20.681,20.681,0,0,1-1,2.49A19.65,19.65,0,0,1,1.611,116.9l1.113.645a.958.958,0,0,0,.615.088A1.3,1.3,0,0,0,3.9,117.4l.967-.937.82.088a13.577,13.577,0,0,1,1.348-.41q.645-.176,1.348-.352l-.029,2.607q-1.553.762-3.018,1.553-1.494.791-2.9,1.67l-.967-.322-.088.908a7.061,7.061,0,0,0,.908,1.846,7.422,7.422,0,0,0,1.348,1.582l.85-.059a2.153,2.153,0,0,1,.176-.908,3.529,3.529,0,0,1,.5-.7q.791-.674,1.582-1.23a16.771,16.771,0,0,1,1.67-1.143l-.029,4.98a.472.472,0,0,1-.146.41.479.479,0,0,1-.439.176,7.965,7.965,0,0,1-1.816-.146,5.967,5.967,0,0,1-1.729-.557,32.432,32.432,0,0,0,2.139,2.754,33.045,33.045,0,0,0,2.4,2.549,6.613,6.613,0,0,0,1.289-2.08,7.1,7.1,0,0,0,.527-2.373l-.117-7.236,1.26-1.084a3.686,3.686,0,0,0,.234-1.055,4.651,4.651,0,0,0-.059-1.055l-1.465.5.029-1.963q.586-.117,1.172-.176.615-.029,1.172,0l-.7,1.436a3.019,3.019,0,0,0,1.348-.264,4.65,4.65,0,0,0,1.172-.762l.557-.762,1.348-.059a16.373,16.373,0,0,1-2.109,3.223,19.981,19.981,0,0,1-2.754,2.7l-.791.381a2.264,2.264,0,0,0,1.172.5,2.439,2.439,0,0,0,1.23-.146,19.127,19.127,0,0,0,3.6-3.164,16.723,16.723,0,0,0,2.607-3.955l1.494-.234a30.946,30.946,0,0,1-4.189,7.09,33.107,33.107,0,0,1-5.771,5.8,2.019,2.019,0,0,0,1.172.615,2.062,2.062,0,0,0,1.289-.264,16.634,16.634,0,0,0,1.641-1.143A10.073,10.073,0,0,0,16.7,124.9q.469,1.377.908,2.783t.967,2.813l.088.469.938.205A13.484,13.484,0,0,0,22.354,129a16.706,16.706,0,0,0,2.139-2.783,24.311,24.311,0,0,0,1.611-3.955,24.5,24.5,0,0,0,.82-4.16,4.88,4.88,0,0,1,.5-1.641,3.95,3.95,0,0,1,1.055-1.348l-.059-.937a21.83,21.83,0,0,0-1.963-1.436,18.122,18.122,0,0,0-2.051-1.2,7.147,7.147,0,0,1-.732.293,7.208,7.208,0,0,1-.791.146Z" transform="translate(187 245)" fill="#000"/>
    <g id="アートワーク_4" data-name="アートワーク 4" transform="translate(169.423 433.625)">
      <g id="グループ_6" data-name="グループ 6" transform="translate(-44.423 -217.026)">
        <g id="グループ_2" data-name="グループ 2" transform="translate(1.096 53.892)">
          <path id="パス_28" data-name="パス 28" d="M46.3,130.969c-1.427-1.292-1.47-1.937-.217-3.322.888-.981.887-1.172-.008-2.537-1.293-1.974-3.069-2.324-6.193-1.222a6.869,6.869,0,0,1-2.879.629c-.588-.588,1.252-2.08,2.566-2.08,1.762,0,2.247-.834,1.4-2.41-.917-1.713.309-2.877,3.479-3.3,2.756-.37,3.159-1.418.936-2.431-1.952-.89-3.988-.853-7.709.138-2.784.741-3.071.722-3.53-.235-.432-.9-.8-.67-2.724,1.687-4.381,5.379-6.718,11.718-5.2,14.11.363.573.844.086,1.748-1.765a8.887,8.887,0,0,1,3.609-3.9c1.3-.738,2.362-1.081,2.362-.763,0,.967-1.335,3.576-1.829,3.576-.906,0-2.57,6.485-1.926,7.506,1.034,1.639,1.95,1.489,3.019-.493,1.44-2.673,4.831-6.424,5.806-6.424,1.318,0,.958.77-1.52,3.252-3.589,3.594-3.27,4.053,2.481,3.573C47.8,133.906,48.876,133.3,46.3,130.969Zm-13.31-11.054c-.18-.18.424-.735,1.343-1.233,1.938-1.05,2.553-1.155,2.553-.435C36.889,118.888,33.443,120.363,32.994,119.914Z" transform="translate(-11.701 -100.672)" fill="#000"/>
          <path id="パス_29" data-name="パス 29" d="M62.062,103.273c-1.278-.658-1.372-.623-.987.371,1.426,3.681,2.237,8.4,2.464,14.337.34,8.9-.6,11.864-4.509,14.267-2.149,1.322-3.6,1.708-7.327,1.95a31.429,31.429,0,0,0-4.873.527c-.66.66,3.267,2.248,6.887,2.785,11.92,1.769,16.619-2.068,16.709-13.645.042-5.332-1.033-12.29-2.272-14.71A18.924,18.924,0,0,0,62.062,103.273Z" transform="translate(-20.34 -96.216)" fill="#000"/>
          <path id="パス_30" data-name="パス 30" d="M22.38,102.147c0-2.939.854-2.994,4.119-.267,3.47,2.9,4.7,2.707,9.415-1.471,2.19-1.942,4.3-3.53,4.688-3.53a.507.507,0,0,0,.464-.736c-.454-1.382-3.735-1.09-8.3.737L28.211,98.7l-3.186-1.559a10.221,10.221,0,0,1-4.367-3.56c-1.254-2.127-2.844-2.539-5.046-1.309-.647.361-1.262.725-1.365.808a8.4,8.4,0,0,0,1.03,2.537A11.49,11.49,0,0,1,16.5,98.888c0,1.428-5.333,5.17-6.832,4.794-1.325-.332-1.994.526-1.994,2.557,0,1.41,2.6,3.737,3.9,3.488.942-.182,3.157-2.853,3.968-4.785.187-.444.767-.1,1.56.911C19.654,109.129,22.38,107.217,22.38,102.147Z" transform="translate(-4.253 -91.59)" fill="#000"/>
          <path id="パス_31" data-name="パス 31" d="M2.721,122.121c-2.7,4.371,1.465,20.152,5.705,21.608,1.395.479,1.818.38,2.527-.588,1.539-2.1,1.53-3.735-.045-8.618C8.611,127.4,3.883,120.24,2.721,122.121Z" transform="translate(-1.863 -104.031)" fill="#000"/>
        </g>
        <g id="グループ_3" data-name="グループ 3" transform="translate(0 208.414)">
          <path id="パス_32" data-name="パス 32" d="M82.7,414.869c-2.571-2.255-7.652-3.881-6.034-1.931a3.223,3.223,0,0,1,.451,2.339,2.413,2.413,0,0,0,.667,2.28c1.077.935,4.023,1.587,5.174,1.145C84.065,418.276,83.907,415.93,82.7,414.869Z" transform="translate(-31.426 -378.017)" fill="#000"/>
          <path id="パス_33" data-name="パス 33" d="M49.8,385.1c1.5-.939.754-3.294-1.931-6.1-2.73-2.849-4.527-5.733-3.939-6.322a2.361,2.361,0,0,1,1.336-.33,2.682,2.682,0,0,0,1.766-.915c1.127-1.358-.756-2.956-5.4-4.577L37.8,365.523l4.876-2.878c6.415-3.786,6.813-4.894,2.6-7.262-2.464-1.385-4.241-1.536-6.513-.554-.809.35-2.755,1.276-4.325,2.057-2.6,1.3-2.944,1.339-3.871.5-.983-.889-3.058-1.237-3.679-.617-.711.711.736,6.43,1.954,7.726,1.975,2.1,3.329,1.807,3.751-.821.733-4.559.929-4.914,3.656-6.644,3.219-2.041,4.646-2.194,5.167-.553.4,1.255-.188,2.089-5.825,8.3-2.577,2.839-3.448,3.4-6.123,3.972-4.607.98-6.448.86-6.863-.447-.194-.61-2.066-2.111-4.159-3.336-3.553-2.078-3.806-2.365-3.815-4.333A7.228,7.228,0,0,0,14.1,357.7c-1.6-2.535-8.8,5.277-12.387,13.446C-.24,375.6-.4,376.495.608,377.5c1.455,1.455,7.669-3.327,9.476-7.292.643-1.411,3.07-2.482,3.852-1.7.227.227-.469,1.2-1.548,2.165-1.153,1.03-1.828,2.1-1.637,2.6.18.47-.413,1.6-1.333,2.541-2.065,2.113-4.533,11.809-3.943,15.5.717,4.488,3.151,6.424,5.2,4.141,1.183-1.315,5.141-10.3,5.141-11.672,0-.907-.179-.869-1.427.3-1.746,1.641-2.694,1.174-2.683-1.317.015-3.648.565-4.611,2.571-4.5,1.009.054,2.164.071,2.568.038,1.281-.1.8-2.58-.84-4.287-.866-.9-1.427-1.792-1.247-1.972a9.026,9.026,0,0,1,2.9-.512,27.671,27.671,0,0,0,4.247-.639c1.384-.376,1.926-.185,3.113,1.094a5.294,5.294,0,0,0,2,1.549c.967,0,.617,2.556-.63,4.6a9.825,9.825,0,0,1-4.558,3.471c-1.852.835-3.486,1.619-3.629,1.742-.528.45,2.405,2.857,4.234,3.475a2.834,2.834,0,0,1,2.25,2.433c.46,2.244,2.791,5.593,3.694,5.305.725-.232,2.208-2.906,3.585-6.462.811-2.1.987-2.207,3.5-2.207,1.454,0,2.813.275,3.02.61.688,1.113-.4,5.315-1.759,6.778s-8.624,5.109-11.744,5.892c-1.594.4-1.633.477-.613,1.223a8.577,8.577,0,0,0,3.944.8c3.509,0,10.432-1.63,11.629-2.739.486-.449,1.545-3.393,2.354-6.541l1.471-5.724,2.648-.31A12.2,12.2,0,0,0,49.8,385.1Zm-17.1-7.41c-.231.241-.615.185-.577,0,0,0,.077-.567.347-.721s.1-.154.358,0S32.929,377.451,32.7,377.692Zm1.07-3.573c-1.063,1.174-2.648,1.6-2.648.706,0-.858,1.4-1.883,2.563-1.883C34.8,372.942,34.8,372.98,33.767,374.119Zm3.009,3.929c-.308.116-.347-.076-.462-.2s.269-.843.269-.843c.693-.308.808-.077.885.344S37.084,377.933,36.776,378.048Zm2.828-6.207c-.464.751-1.425.032-1.425-1.066,0-.748.164-.784.877-.193C39.539,370.983,39.785,371.549,39.6,371.842Z" transform="translate(0 -354.199)" fill="#000"/>
        </g>
        <path id="パス_34" data-name="パス 34" d="M45.41,293.391c-3.162-.006-6.014-1.173-7.307-2.991-1.071-1.5-1.594-1.749-3.409-1.6-1.559.13-2.3.54-2.726,1.505-.32.729-.8,1.252-1.074,1.162-.59-.2-.612-.657-.167-3.44.3-1.9.568-2.165,2.447-2.47a8.413,8.413,0,0,1,3.613.231c1.966.747,3.706.165,3.706-1.242,0-1.937-3.464-5.263-6.261-6.011-1.411-.377-2.567-.962-2.569-1.3a12.454,12.454,0,0,0-2.622-6.418c-1.688-1.822-2.718-1.947-4.036-.491-.835.923-.871,1.536-.281,4.713.626,3.365.59,3.719-.455,4.5A15.057,15.057,0,0,1,19.9,281.1c-3.993.868-4.9,1.618-4.391,3.636.521,2.078,2.891,3.5,5.959,3.586,2.428.065,2.544.149,2.547,1.862a4.212,4.212,0,0,1-.7,2.5,3,3,0,0,1-4-.177c-1.075-1.3-2.29-1.078-3.027.541-.514,1.128-1.459,1.609-4.548,2.313-3.577.816-8.312,2.49-8.312,2.939,0,.3,5.48,3.7,6.586,4.089a6.21,6.21,0,0,0,2.942-.208c2.217-.639,3.417.353,3.417,2.825a7.683,7.683,0,0,0,3.256,5.7c1.388.909,1.655.923,2.535.126.79-.715,2.084-.828,6.57-.574,6.156.348,8.823-.272,8.823-2.053a3.584,3.584,0,0,0-1.177-2.165c-1.529-1.383-1.495-1.767.5-5.6l1.679-3.225,2.587.187a48.442,48.442,0,0,1,5.85.923c3.563.8,4.681.68,4.681-.521C51.673,296.515,47.249,293.4,45.41,293.391Zm-22.53,8.535-.02-1.569c-.017-1.4.554-2.068,1.893-2.209a.432.432,0,0,1,.441.477,5.307,5.307,0,0,1-1.157,1.912Zm4.544,3.191c-4.1,1.429-4.338,0-.886-5.278,1.5-2.3,2.225-2.9,3.51-2.9,1.331-.009,1.618.247,1.618,1.442C31.667,300.858,29.424,304.421,27.424,305.118Z" transform="translate(-1.409 -110.856)" fill="#000"/>
        <g id="グループ_4" data-name="グループ 4" transform="translate(1.49)">
          <path id="パス_35" data-name="パス 35" d="M68.054,54.04c-5.408-3.086-11.009-4.927-12.853-4.224-1.369.522-.608,1.472,3.576,4.464,3.557,2.544,3.727,3.7.706,4.785l-2.059.743,2.059.093c3.706.168,5.273.6,7.442,2.076,3.617,2.455,6.327,1.719,6.327-1.717C73.252,57.759,72.048,56.319,68.054,54.04Z" transform="translate(-23.954 -20.442)" fill="#000"/>
          <path id="パス_36" data-name="パス 36" d="M26.224,33.635c-.991-.345-1.7-.833-1.574-1.081.98-1.945,3.33-7.128,3.622-7.985.475-1.4,5.593-3.7,10.534-4.733,4.662-.977,5.851-1.8,5.61-3.862-.248-2.122-2.6-3.076-8.494-3.444-2.707-.169-4.922-.483-4.922-.7s.563-2.056,1.25-4.092c1.244-3.686,1.245-3.707.094-5.249C30.336-.2,24.661-.9,23.09,1.339A4.2,4.2,0,0,0,23.351,6.8c1.308,1.183,1.5,3.51.574,6.854-.657,2.368-2.409,3.443-9.478,5.82-4.744,1.6-5.383,2.1-4.576,3.608.7,1.308,5.225,3.43,7.316,3.43,2.355,0,2.221,1.026-.7,5.381-3.074,4.581-8.208,9.453-12.123,11.5C2.21,44.522,2.072,44.7,3.345,44.714,5,44.732,12.79,42.8,14.017,42.069c.441-.264,2.181-1.513,3.866-2.775L20.946,37l2.325,2.444c2.052,2.157,2.59,2.422,4.585,2.258,1.979-.163,2.284-.39,2.448-1.816C30.56,37.664,28.432,34.4,26.224,33.635Z" transform="translate(-2.532 0)" fill="#000"/>
        </g>
        <g id="グループ_5" data-name="グループ 5" transform="translate(8.05 106.956)">
          <path id="パス_37" data-name="パス 37" d="M35.617,211.883c-1.083.391-2.121.56-2.307.374a9.044,9.044,0,0,1,.065-3.382c.4-3.024.425-3.053,4-4.842,4.637-2.32,5.657-3.258,5.657-5.209,0-2.587-2-4.571-5.076-5.032-2.591-.389-2.677-.466-2.349-2.11.568-2.841-1.218-6.29-4.257-8.217a11.042,11.042,0,0,0-3.785-1.693c-1.043,0-1.086.331-.665,5.149a52.055,52.055,0,0,1,.317,9.065c-.045.607-1.11,1.328-2.824,1.912-1.514.516-2.813.938-2.886.938a26.528,26.528,0,0,1-1.472-3.23c-1.49-3.594-3.17-4.679-4.478-2.891-2.4,3.285-2.53,11.4-.208,13.277,1.367,1.107,2.048,1.094,7.609-.148a6.643,6.643,0,0,1,2.9-.253c.511.511-3.379,4.3-7.34,7.143-3.676,2.642-4.86,4.551-4.444,7.17.364,2.287,2.484,2.787,6.722,1.586,2.035-.577,5.563-1.377,7.839-1.778,7.556-1.331,12.026-4.028,11.166-6.738C39.312,211.431,37.892,211.061,35.617,211.883Zm-8.165.857c-1.126.432-1.754-.044-1.213-.92a.978.978,0,0,1,1.792-.035C28.233,212.111,27.972,212.541,27.452,212.741Z" transform="translate(-13.68 -181.772)" fill="#000"/>
          <path id="パス_38" data-name="パス 38" d="M62.408,227.772c-1.014,0-1.843.206-1.843.457a5.6,5.6,0,0,0,.943,1.8c.925,1.321.917,3.939-.018,6.084-.323.742.16,1.381,1.929,2.552,2.745,1.816,4.138,1.735,5.282-.309C70.579,235,66.284,227.772,62.408,227.772Z" transform="translate(-32.977 -200.705)" fill="#000"/>
        </g>
      </g>
    </g>
    <g id="アートワーク_5" data-name="アートワーク 5" transform="translate(166.521 149.52)">
      <g id="グループ_7" data-name="グループ 7" transform="translate(-41.521 -41.521)">
        <path id="パス_39" data-name="パス 39" d="M24.039,24.958a1.275,1.275,0,0,0,.076-.158c.1-.249-.03-3.116.019-3.116h1.941c0,.783-.015,1.569,0,2.352.024,1.284,1.212,1.78,1.942,2.694a9.572,9.572,0,0,1,1.7,3.591,18.258,18.258,0,0,1,.058,8.166c-.23,1.115-.814,2.116-1.09,3.217a18.949,18.949,0,0,0-.312,2.937c-.175,1.988-.362,4.31.9,6.012a14.9,14.9,0,0,1,2.859,5.8,19.864,19.864,0,0,1,0,8.706,11.116,11.116,0,0,1-7.353,6.706H22.016s-6.647-1.471-7.294-7.824a16.368,16.368,0,0,1,1.011-7.526c.957-2.461,2.923-4.086,4.11-6.374.99-1.908.968-4.1,1.006-6.2a14.933,14.933,0,0,0-.833-5.843,13.894,13.894,0,0,1-.411-8.353,7.01,7.01,0,0,1,2.041-3.112C22.285,26.059,23.588,25.748,24.039,24.958Z" transform="translate(2.016 8.959)" fill="#000"/>
        <path id="パス_40" data-name="パス 40" d="M41.672,11.6c.016-.028.032-.057.046-.086a11.066,11.066,0,0,0,.243-3.129H43.9c0,1.373-.5,2.677.532,3.7,3.481,3.473,4.25,8.822,3.085,13.478-.938,3.748-2.667,8.714-.029,12.231a20.008,20.008,0,0,1,2.47,5.353,19.862,19.862,0,0,1,0,8.706c-.987,3.74-5.273,7.038-9.161,6.914-4.093-.131-7.844-4.041-8.25-8.032a16.247,16.247,0,0,1,.82-7.057c.879-2.456,2.682-4.06,4.067-6.2a7.155,7.155,0,0,0,1.08-4.249c.034-1.066.063-2.132.037-3.2a17.178,17.178,0,0,0-.71-5.24,13.9,13.9,0,0,1-.412-8.353,7.249,7.249,0,0,1,2.024-3.138C40.138,12.683,41.194,12.435,41.672,11.6Z" transform="translate(4.471)" fill="#000"/>
        <path id="パス_41" data-name="パス 41" d="M59.761,24.951c-.016-.033-.031-.066-.044-.1a21.35,21.35,0,0,1,.068-3.145l-1.939-.089a23.593,23.593,0,0,1-.078,2.649c-.251,1.2-1,1.422-1.79,2.219a10.6,10.6,0,0,0-1.729,2.309A13.66,13.66,0,0,0,52.6,36.365a8.764,8.764,0,0,0,1.073,3.572c1.332,2.424,1.255,6.268.407,8.855A18.164,18.164,0,0,1,51.9,52.359a15.829,15.829,0,0,0-1.718,3.7,19.864,19.864,0,0,0-.4,8.7,9.775,9.775,0,0,0,5.032,6.2c4.039,2.162,9.206.289,11.359-3.647,1.846-3.374,1.417-7.646.013-11.094a19.48,19.48,0,0,0-2.009-3.69c-.764-1.112-1.879-2.217-2.129-3.588-.707-3.869.664-7.965,1.551-11.694.8-3.35,1.329-7.128-1.071-9.974a8.194,8.194,0,0,0-.635-.67C61.288,26.026,60.162,25.769,59.761,24.951Z" transform="translate(6.807 8.959)" fill="#000"/>
        <path id="パス_42" data-name="パス 42" d="M46,92A46,46,0,1,1,92,46,46.052,46.052,0,0,1,46,92ZM46,1.662A44.338,44.338,0,1,0,90.338,46,44.388,44.388,0,0,0,46,1.662Z" fill="#000"/>
      </g>
    </g>
  </g>
</svg>
