<?xml version="1.0" encoding="UTF-8" standalone="no"?>
<!-- Created with Inkscape (http://www.inkscape.org/) -->

<svg
   xmlns:dc="http://purl.org/dc/elements/1.1/"
   xmlns:cc="http://creativecommons.org/ns#"
   xmlns:rdf="http://www.w3.org/1999/02/22-rdf-syntax-ns#"
   xmlns:svg="http://www.w3.org/2000/svg"
   xmlns="http://www.w3.org/2000/svg"
   xmlns:sodipodi="http://sodipodi.sourceforge.net/DTD/sodipodi-0.dtd"
   xmlns:inkscape="http://www.inkscape.org/namespaces/inkscape"
   width="187.41322"
   height="54.60685"
   viewBox="0 0 49.586414 14.448062"
   version="1.1"
   id="svg668"
   inkscape:version="0.92.0 r15299"
   sodipodi:docname="tazo.svg">
  <defs
     id="defs662">
    <clipPath
       id="clipPath355"
       clipPathUnits="userSpaceOnUse">
      <path
         inkscape:connector-curvature="0"
         id="path353"
         d="M 0,0 H 612 V 792 H 0 Z" />
    </clipPath>
    <clipPath
       id="clipPath335"
       clipPathUnits="userSpaceOnUse">
      <path
         inkscape:connector-curvature="0"
         id="path333"
         d="M 0,0 H 612 V 792 H 0 Z" />
    </clipPath>
  </defs>
  <sodipodi:namedview
     id="base"
     pagecolor="#ffffff"
     bordercolor="#666666"
     borderopacity="1.0"
     inkscape:pageopacity="0.0"
     inkscape:pageshadow="2"
     inkscape:zoom="1.431383"
     inkscape:cx="153.78105"
     inkscape:cy="-106.70186"
     inkscape:document-units="mm"
     inkscape:current-layer="layer1"
     showgrid="false"
     fit-margin-top="0"
     fit-margin-left="0"
     fit-margin-right="0"
     fit-margin-bottom="0"
     units="px"
     inkscape:window-width="1280"
     inkscape:window-height="744"
     inkscape:window-x="-4"
     inkscape:window-y="-4"
     inkscape:window-maximized="1" />
  <metadata
     id="metadata665">
    <rdf:RDF>
      <cc:Work
         rdf:about="">
        <dc:format>image/svg+xml</dc:format>
        <dc:type
           rdf:resource="http://purl.org/dc/dcmitype/StillImage" />
        <dc:title></dc:title>
      </cc:Work>
    </rdf:RDF>
  </metadata>
  <g
     inkscape:label="Layer 1"
     inkscape:groupmode="layer"
     id="layer1"
     transform="translate(-90.243845,-165.66749)">
    <g
       id="g740"
       style="fill:#f26a55;fill-opacity:1"
       transform="translate(0.13229016,-0.13228902)">
      <path
         d="M 100.49592,166.52224 H 90.243845 v 1.58221 h 4.246033 v 11.72915 h 1.763537 v -11.72915 h 4.242505 z"
         style="fill:#f26a55;fill-opacity:1;fill-rule:nonzero;stroke:none;stroke-width:0.35277778"
         id="path327"
         inkscape:connector-curvature="0" />
      <path
         d="m 138.60136,178.9396 h -0.17921 v -0.35101 h 0.22719 c 0.11606,0 0.242,0.0226 0.242,0.16933 0,0.17392 -0.13864,0.18168 -0.28998,0.18168 m 0.46179,-0.17427 c 0,-0.21202 -0.12383,-0.31574 -0.38594,-0.31574 h -0.42686 v 1.10349 h 0.1718 v -0.47449 h 0.18168 l 0.30057,0.47449 h 0.18415 l -0.31539,-0.48719 c 0.16404,-0.0176 0.28999,-0.10089 0.28999,-0.30056"
         style="fill:#f26a55;fill-opacity:1;fill-rule:nonzero;stroke:none;stroke-width:0.35277778"
         id="path339"
         inkscape:connector-curvature="0" />
      <path
         d="m 103.3482,175.39604 2.67582,-5.53297 2.67582,5.53297 z m -4.049183,4.44077 h 1.901473 l 1.34514,-2.78095 h 6.95713 l 1.34479,2.78095 h 1.90182 l -6.72535,-13.90474 z"
         style="fill:#f26a55;fill-opacity:1;fill-rule:nonzero;stroke:none;stroke-width:0.35277778"
         id="path343"
         inkscape:connector-curvature="0" />
      <path
         d="m 119.13853,173.72599 h 1.79176 v -1.37125 h -1.12854 l 2.84057,-5.87128 h -8.01617 v 1.65982 h 5.31319 l -2.03765,4.21146 h -1.7967 v 1.37125 h 1.13313 l -2.95381,6.10694 h 8.92281 v -1.65982 h -6.21983 z"
         style="fill:#f26a55;fill-opacity:1;fill-rule:nonzero;stroke:none;stroke-width:0.35277778"
         id="path347"
         inkscape:connector-curvature="0" />
      <path
         d="m 131.60323,178.45573 c -2.85715,0 -5.1816,-2.37102 -5.1816,-5.28496 0,-2.91395 2.32445,-5.28497 5.1816,-5.28497 2.85715,0 5.1816,2.37102 5.1816,5.28497 0,2.91394 -2.32445,5.28496 -5.1816,5.28496 m 0,-12.22939 c -3.8294,0 -6.94478,3.11538 -6.94478,6.94443 0,3.8294 3.11538,6.94478 6.94478,6.94478 3.8294,0 6.94478,-3.11538 6.94478,-6.94478 0,-3.82905 -3.11538,-6.94443 -6.94478,-6.94443"
         style="fill:#f26a55;fill-opacity:1;fill-rule:nonzero;stroke:none;stroke-width:0.35277778"
         id="path359"
         inkscape:connector-curvature="0" />
      <path
         d="m 138.61882,179.80793 c -0.44168,0 -0.77999,-0.34854 -0.77999,-0.81033 0,-0.45156 0.33831,-0.8001 0.77999,-0.8001 0.43674,0 0.77505,0.34854 0.77505,0.8001 0,0.46179 -0.33831,0.81033 -0.77505,0.81033 m 0,-1.74942 c -0.51717,0 -0.95179,0.4064 -0.95179,0.93909 0,0.54292 0.43462,0.94897 0.95179,0.94897 0.51506,0 0.94686,-0.40605 0.94686,-0.94897 0,-0.53269 -0.4318,-0.93909 -0.94686,-0.93909"
         style="fill:#f26a55;fill-opacity:1;fill-rule:nonzero;stroke:none;stroke-width:0.35277778"
         id="path363"
         inkscape:connector-curvature="0" />
    </g>
  </g>
</svg>
