<svg width="500" height="81" viewBox="0 0 500 81" fill="none" xmlns="http://www.w3.org/2000/svg">
<g clip-path="url(#clip0_1_403)">
<mask id="mask0_1_403" style="mask-type:luminance" maskUnits="userSpaceOnUse" x="0" y="0" width="500" height="81">
<path d="M500 0H0V80.4054H500V0Z" fill="white"/>
</mask>
<g mask="url(#mask0_1_403)">
<mask id="mask1_1_403" style="mask-type:luminance" maskUnits="userSpaceOnUse" x="0" y="0" width="500" height="81">
<path d="M500 0H0V80.4054H500V0Z" fill="white"/>
</mask>
<g mask="url(#mask1_1_403)">
<path d="M261.178 6.18616C261.178 6.18616 256.373 8.10058 250.788 14.2567C245.18 20.4354 241.944 27.3423 244.354 29.1742C245.277 29.8723 247.41 29.9925 251.283 26.509C254.309 23.7988 257.387 20.2402 259.474 15.1501C261.974 9.05403 261.178 6.25373 261.178 6.18616ZM291.756 17.2672C285.548 14.0841 281.013 10.1952 276.291 7.77025C271.786 5.45793 268.873 4.48947 265.232 4.97745C264.632 5.06004 263.731 5.35283 263.731 5.35283C263.731 5.35283 265.608 11.7567 258.145 22.5225C250.585 33.4234 243.731 33.3633 241.779 30.3528C239.737 27.1922 242.372 20.7432 246.771 15.0075C251.381 9.00898 259.482 4.03151 259.482 4.03151C259.482 4.03151 256.899 2.45493 250.555 6.05103C244.376 9.54202 233.708 17.8754 223.843 31.9294C213.986 45.9835 212.004 53.7162 210.585 59.8048C209.159 65.8934 210.458 72.4099 217.207 72.4099C223.964 72.4174 231.816 62.1171 234.031 58.536C238.153 51.8693 240.84 41.6441 235.232 43.048C232.47 43.7387 230.232 46.8018 228.821 49.7447C227.372 52.7702 226.786 55.6606 226.786 55.6606C226.786 55.6606 224.452 56.494 221.313 58.8438C218.175 61.1862 216.126 63.4309 216.126 63.4309C216.126 63.4309 216.148 58.566 220.03 50.6907C223.911 42.8153 231.028 39.2192 235.06 38.8814C238.693 38.5886 243.423 41.6741 239.414 53.063C235.413 64.4519 223.588 78.2657 211.163 78.4384C199.699 78.5961 192.199 63.9639 208.153 38.4459C225.803 10.2177 246.524 1.56154 253.25 0.600576C259.977 -0.360385 262.162 2.60508 262.162 2.60508C262.162 2.60508 267.8 0.00748315 274.947 0.495471C283.16 1.05103 289.512 6.86184 297.89 10.9459C295.713 13.0405 293.633 15.2177 291.756 17.2672ZM328.648 7.77025C322.958 11.4189 315.082 14.7297 307.515 14.0015C305.6 15.9835 303.551 18.2732 301.494 20.7732C314.617 23.3708 326.111 15.2402 332.222 8.31829C336.043 4.00148 337.928 0.142618 337.928 0.142618C337.928 0.142618 334.279 4.15163 328.648 7.77025ZM311.178 44.7372C311.343 44.4444 311.419 44.1892 311.419 44.1892C311.419 44.1892 311.268 43.0856 310.217 43.0405C308.971 42.9805 307.259 43.2207 302.792 48.1681C298.34 53.0931 295.638 57.3723 293.288 61.6516C290.728 66.3288 289.692 69.8123 291.163 70.7132C291.576 70.9684 292.199 70.9985 292.71 70.8708C293.708 70.6306 294.834 69.6997 296.554 67.7102C297.357 66.7793 298.25 65.4579 299.316 63.994C302.274 59.9699 309.707 47.2973 311.178 44.7372ZM264.737 50.1201C265.48 48.1681 266.434 44.3393 264.459 42.8378C262.334 41.2387 256.929 44.985 256.899 48.8288C256.861 52.7627 260.705 54.542 261.629 54.7898C262.154 54.9324 262.334 54.9099 262.59 54.4895C262.747 54.2117 263.986 52.0796 264.737 50.1201ZM260.645 57.2747C260.503 57.2297 258.753 56.4264 256.929 54.9024C255.112 53.3859 254.196 51.6516 254.129 51.5165C254.054 51.3889 253.979 51.4865 253.896 51.5991C253.813 51.7117 253.491 51.997 250.593 56.2387C247.702 60.4805 243.28 69.2192 247.289 70.7132C249.857 71.6666 254.129 67.1696 256.471 64.1892C258.633 61.4189 260.66 57.8979 260.773 57.6426C260.893 57.3874 260.788 57.3273 260.645 57.2747ZM306.111 67.3874C305.022 69.1291 303.783 72.4699 307.379 70.3904C311.756 67.8603 317.995 58.4009 317.995 58.4009H320.818C320.818 58.4009 317.094 64.2793 312.244 69.6471C307.807 74.5645 302.394 79.0315 298.581 78.5886C294.129 78.0705 295.525 72.2222 295.525 72.2222C295.525 72.2222 289.129 79.009 284.737 78.521C278.783 77.8603 280.6 70.503 280.6 70.503C280.6 70.503 273.866 78.7838 269.279 78.5135C262.087 78.1006 263.896 69.3243 265.893 63.1832C266.967 59.8874 267.958 57.2973 267.958 57.2973C267.958 57.2973 267.244 57.485 265.713 57.7102C264.91 57.8228 263.453 57.9054 263.453 57.9054C263.453 57.9054 260.458 63.1907 258.063 66.3663C255.668 69.5495 245.48 80.488 239.489 78.2958C233.949 76.2687 235.78 67.7853 239.009 61.0435C243.716 51.2162 256.959 37.0946 264.594 38.9489C272.515 40.8708 264.774 55.3153 264.774 55.3153C264.774 55.3153 264.774 55.3678 264.857 55.4054C265.015 55.4654 265.428 55.5105 266.381 55.3228C267.905 55.03 269.279 54.4594 269.279 54.4594C269.279 54.4594 277.237 37.7928 286.028 26.8919C294.819 15.991 312.357 -2.7778 319.241 1.76424C320.923 2.88286 320.157 6.7267 317.89 11.3964C316.884 11.7117 315.848 11.9895 314.782 12.2072C316.298 9.45193 317.304 7.13211 317.605 5.51049C318.641 -0.120144 305.488 11.7492 296.088 24.527C286.689 37.3048 281.043 48.8738 281.043 48.8738C281.043 48.8738 282.935 47.8003 285.893 45.4204C288.979 42.9354 293.228 39.039 297.83 34.2793C300.931 31.0735 304.579 27.0495 307.988 22.5525C309.009 22.5 310.007 22.4024 310.976 22.2447C307.169 27.3648 303.168 32.042 299.767 35.488C296.028 39.2793 291.959 43.3558 288.431 46.3288C282.815 51.0435 278.491 53.7162 278.491 53.7162C278.491 53.7162 270.27 70.2928 274.744 71.3588C277.372 71.9895 282.567 63.994 282.567 63.994C282.567 63.994 289.339 53.6561 293.423 49.009C298.994 42.6726 303.791 39.0165 308.581 38.9414C311.373 38.8889 313.018 41.8693 313.018 41.8693L314.331 39.8348L322.417 39.8423C322.417 39.8423 307.319 65.4579 306.111 67.3874ZM328.648 7.77025C322.958 11.4189 315.082 14.7297 307.515 14.0015C305.6 15.9835 303.551 18.2732 301.494 20.7732C314.617 23.3708 326.111 15.2402 332.222 8.31829C336.043 4.00148 337.928 0.142618 337.928 0.142618C337.928 0.142618 334.279 4.15163 328.648 7.77025ZM215.127 20.3378L207.44 20.3303L203.093 27.3573L210.78 27.3648L215.127 20.3378ZM178.723 44.6471C181.997 40.1651 191.021 24.4519 191.021 24.4519C191.021 24.4519 190.87 23.3483 189.819 23.3033C188.573 23.2432 186.501 23.6636 182.349 28.8438C178.198 34.0165 175 38.1456 172.657 42.4324C170.09 47.1096 168.971 50.4129 170.443 51.3063C170.855 51.554 171.479 51.5916 171.989 51.4639C172.95 51.2237 174.204 50.2627 175.923 48.2808C176.734 47.3573 177.65 46.1111 178.723 44.6471ZM137.47 23.4009C135.345 21.7943 129.94 25.548 129.909 29.3844C129.879 33.3183 134.789 34.4444 135.428 34.4744C135.428 34.4744 135.983 34.6246 136.201 34.1591C136.336 33.8663 137.004 32.6351 137.755 30.6832C138.498 28.7312 139.444 24.9024 137.47 23.4009ZM134.264 36.9519C134.121 36.8994 132.087 36.3138 130.097 35.0375C128.108 33.7687 127.192 31.8769 127.124 31.7417C127.049 31.6141 126.967 31.7117 126.891 31.8243C126.809 31.9369 126.381 32.4775 123.491 36.7192C120.6 40.9534 116.313 49.6396 120.33 51.1261C122.897 52.0796 127.214 47.5675 129.549 44.5871C131.711 41.8168 134.294 37.56 134.406 37.3123C134.504 37.057 134.399 36.997 134.264 36.9519ZM197.079 39.5645H199.894C199.894 39.5645 185.78 59.9624 177.8 59.0315C173.348 58.5135 174.669 53.018 174.669 53.018C174.669 53.018 168.4 60.3378 162.68 58.8738C157.47 57.5375 160.833 48.8814 160.833 48.8814C160.24 49.1216 148.971 61.8243 141.051 58.7763C132.762 55.5781 137.064 44.9399 138.641 41.7417C139.977 39.0465 141.456 36.4189 141.456 36.4189C141.456 36.4189 140.187 36.7793 139.391 36.9594C138.603 37.1396 137.402 37.3723 137.402 37.3723C137.402 37.3723 133.483 43.7462 131.088 46.9219C128.693 50.1051 118.506 61.0285 112.507 58.8513C106.509 56.6666 107.995 48.2808 111.366 41.6141C116.831 30.8033 129.804 17.515 137.612 19.512C145.503 21.524 138.971 34.3243 138.971 34.3243C138.971 34.3243 140.54 34.527 144.301 31.9594C149.729 28.2657 156.869 18.3258 164.609 19.4895C168.243 20.0375 171.629 23.7687 166.997 30.8483C165.51 33.1231 163.025 35.1576 161.118 33.1456C159.932 31.9069 160.968 29.6171 162.214 28.0555C163.971 25.8408 166.396 26.1486 166.396 26.1486C166.396 26.1486 167.672 23.2132 164.422 23.2732C161.786 23.3258 155.12 29.4594 151.358 35.6606C147.905 41.3513 142.68 51.051 147.928 53.1681C152.74 55.1126 161.899 44.2417 166.141 38.5435C170.382 32.8528 180.037 19.9324 188.145 19.4144C190.938 19.2342 192.597 21.7793 192.597 21.7793L193.536 20.2928L201.629 20.3003C201.629 20.3003 186.358 45.7808 185.165 47.7102C184.226 49.2192 182.98 52.6126 186.434 50.7132C189.902 48.8063 197.079 39.5645 197.079 39.5645ZM192.665 80.4054C186.539 76.0886 179.069 74.1892 172.289 74.4594C165.428 74.7297 162.349 79.8498 162.349 79.8498C159.256 74.4519 153.145 71.1411 143.693 71.2162C128.423 71.3889 113.265 78.4309 101.276 78.4234C89.7593 78.4159 81.3735 71.1862 81.6512 58.3408C82.1467 35.8183 101.186 15.533 115.412 6.40388C123.588 1.15613 130.435 -0.397922 134.917 0.105081C138.183 0.465441 142.109 4.24172 139.632 9.80478C135.991 17.9504 130.961 17.2672 131.148 13.3784C131.253 10.8483 132.935 9.25673 134.204 8.38586C135.007 7.83031 136.426 7.67265 137.169 7.65763C137.89 7.04953 138.438 2.59757 132.582 4.06154C126.719 5.5255 119.669 11.2763 112.943 18.6937C106.216 26.1036 95.7503 40.1651 93.1602 54.9099C91.9515 61.7492 92.7548 74.2192 108.956 74.0841C122.687 73.9714 142.973 64.9324 161.599 65.1051C168.828 65.1726 175.12 67.1246 180.022 70.1501C184.842 73.1156 190.615 77.4474 192.665 80.4054Z" fill="#120F0D"/>
</g>
<path d="M45.3303 51.2009L61.5841 51.2084L61.0511 47.5147L49.5721 47.5072V43.0327H57.3048V39.3165L49.5721 39.309V35.4802L60.7808 35.4877L61.3213 31.794L45.3378 31.7865L45.3303 51.2009ZM21.3138 51.1859H25.5405L25.548 42.5898L35.4655 42.5973L35.458 51.1934H39.6922L39.7072 31.7865H35.473V38.821L25.5556 38.8135V31.779H21.3288L21.3138 51.1859ZM0 35.5703L6.47147 35.5778L6.46396 51.1784H10.6982L10.7057 35.5703H17.1772V31.7715H0V35.5703Z" fill="#120F0D"/>
<mask id="mask2_1_403" style="mask-type:luminance" maskUnits="userSpaceOnUse" x="0" y="0" width="500" height="81">
<path d="M500 0H0V80.4054H500V0Z" fill="white"/>
</mask>
<g mask="url(#mask2_1_403)">
<path d="M500 31.8319H495.338L490.263 40.9085L485.12 31.8244H480.353L488.108 44.7974L488.101 51.2388H492.335V44.7148L500 31.8319ZM472.883 31.8169L472.875 44.9701L463.588 31.8094H459.204L459.197 51.2163H463.318L463.326 37.8454L472.748 51.2163H477.004L477.012 31.8094L472.883 31.8169ZM442.29 43.2283L445.18 35.5481L448.063 43.2358L442.29 43.2283ZM451.043 51.2088H455.495L447.8 31.8019H442.597L434.872 51.2013H439.294L440.908 46.892L449.429 46.8995L451.043 51.2088ZM427.898 40.3604H422.267V35.5331H427.898C428.739 35.5331 429.399 35.7433 429.865 36.1562C430.33 36.5692 430.563 37.1622 430.563 37.9355C430.563 38.7088 430.33 39.3094 429.857 39.7223C429.399 40.1502 428.739 40.3604 427.898 40.3604ZM428.01 31.7944L418.033 31.7869L418.025 51.1938H422.26L422.267 44.1067H428.01C429.482 44.1067 430.736 43.8364 431.757 43.3034C432.778 42.7629 433.551 42.0271 434.069 41.0962C434.594 40.1653 434.85 39.1142 434.85 37.943C434.85 36.7719 434.594 35.7208 434.069 34.7824C433.551 33.8514 432.778 33.1157 431.757 32.5902C430.736 32.0571 429.482 31.7944 428.01 31.7944ZM412.402 31.7794H406.719L401.021 45.2553L395.21 31.7719H389.527L389.519 51.1788H393.619L393.626 37.2974L399.519 50.9085H402.35L408.311 36.9445L408.303 51.1788H412.402V31.7794ZM374.549 47.6878C373.401 47.6878 372.372 47.425 371.464 46.892C370.555 46.3589 369.842 45.6232 369.332 44.6773C368.821 43.7313 368.566 42.6653 368.566 41.4565C368.566 40.2478 368.821 39.1743 369.339 38.2358C369.85 37.2899 370.563 36.5541 371.471 36.0286C372.372 35.5031 373.401 35.2328 374.557 35.2328C375.713 35.2328 376.734 35.5031 377.643 36.0286C378.551 36.5617 379.264 37.2899 379.767 38.2433C380.278 39.1818 380.533 40.2629 380.533 41.4641C380.533 42.6653 380.278 43.7388 379.767 44.6848C379.257 45.6307 378.543 46.3665 377.635 46.892C376.734 47.4325 375.706 47.6878 374.549 47.6878ZM374.549 51.5166C376.546 51.5166 378.333 51.0887 379.902 50.2403C381.479 49.3845 382.703 48.1983 383.596 46.6668C384.482 45.1427 384.932 43.4085 384.932 41.4716C384.932 39.5271 384.489 37.8004 383.604 36.2689C382.718 34.7448 381.486 33.5511 379.91 32.6953C378.341 31.8394 376.554 31.4115 374.557 31.4115C372.56 31.4115 370.781 31.8394 369.204 32.6878C367.628 33.5436 366.396 34.7373 365.51 36.2613C364.617 37.7929 364.174 39.5196 364.174 41.4641C364.174 43.401 364.617 45.1352 365.51 46.6668C366.396 48.1983 367.628 49.3845 369.197 50.2403C370.781 51.0887 372.552 51.5166 374.549 51.5166ZM354.174 51.5091C355.758 51.5091 357.23 51.2538 358.611 50.7433C359.985 50.2328 361.111 49.4671 361.997 48.4385L359.354 45.5556C357.95 46.9746 356.261 47.6803 354.264 47.6803C353.003 47.6803 351.869 47.41 350.856 46.8544C349.835 46.3064 349.054 45.5632 348.483 44.6172C347.92 43.6713 347.635 42.6127 347.635 41.449C347.635 40.2779 347.92 39.2268 348.498 38.2809C349.069 37.3349 349.857 36.5917 350.856 36.0436C351.854 35.4956 352.973 35.2178 354.212 35.2178C355.165 35.2178 356.051 35.398 356.869 35.7433C357.688 36.0962 358.476 36.6517 359.227 37.41L361.869 34.4746C361.006 33.4686 359.902 32.7028 358.543 32.1848C357.185 31.6592 355.706 31.3965 354.107 31.3965C352.042 31.3965 350.18 31.8319 348.528 32.7028C346.877 33.5737 345.578 34.7749 344.647 36.3139C343.709 37.8529 343.243 39.5647 343.243 41.449C343.243 43.3334 343.709 45.0451 344.64 46.5842C345.57 48.1157 346.869 49.3244 348.528 50.1953C350.188 51.0737 352.072 51.5091 354.174 51.5091Z" fill="#120F0D"/>
</g>
</g>
</g>
<defs>
<clipPath id="clip0_1_403">
<rect width="500" height="81" fill="white"/>
</clipPath>
</defs>
</svg>
