<?xml version="1.0" encoding="UTF-8" standalone="no"?>
<!-- Generator: Adobe Illustrator 12.0.0, SVG Export Plug-In . SVG Version: 6.00 Build 51448)  -->

<svg
   xmlns:dc="http://purl.org/dc/elements/1.1/"
   xmlns:cc="http://creativecommons.org/ns#"
   xmlns:rdf="http://www.w3.org/1999/02/22-rdf-syntax-ns#"
   xmlns:svg="http://www.w3.org/2000/svg"
   xmlns="http://www.w3.org/2000/svg"
   xmlns:sodipodi="http://sodipodi.sourceforge.net/DTD/sodipodi-0.dtd"
   xmlns:inkscape="http://www.inkscape.org/namespaces/inkscape"
   version="1.1"
   id="Layer_1"
   width="178.10931"
   height="163.38499"
   viewBox="0 0 178.10931 163.385"
   overflow="visible"
   enable-background="new 0 0 192.756 192.756"
   xml:space="preserve"
   sodipodi:docname="Tim_Hortons_logo_(original).svg"
   style="overflow:visible"
   inkscape:version="0.92.2 (5c3e80d, 2017-08-06)"><metadata
     id="metadata93"><rdf:RDF><cc:Work
         rdf:about=""><dc:format>image/svg+xml</dc:format><dc:type
           rdf:resource="http://purl.org/dc/dcmitype/StillImage" /></cc:Work></rdf:RDF></metadata><defs
     id="defs91" /><sodipodi:namedview
     pagecolor="#ffffff"
     bordercolor="#666666"
     borderopacity="1"
     objecttolerance="10"
     gridtolerance="10"
     guidetolerance="10"
     inkscape:pageopacity="0"
     inkscape:pageshadow="2"
     inkscape:window-width="1920"
     inkscape:window-height="1017"
     id="namedview89"
     showgrid="false"
     inkscape:zoom="4"
     inkscape:cx="44.088948"
     inkscape:cy="102.28495"
     inkscape:window-x="-8"
     inkscape:window-y="-8"
     inkscape:window-maximized="1"
     inkscape:current-layer="Layer_1" /><path
     style="clip-rule:evenodd;fill:#402400;fill-rule:evenodd"
     inkscape:connector-curvature="0"
     id="path6"
     d="m 145.45639,21.691 c 11.195,2.799 23.79,5.598 30.787,16.793 2.799,4.898 2.449,11.546 -1.05,16.094 -6.647,8.747 -16.443,11.545 -25.89,14.344 l -3.848,1.05 v 0.7 23.44 c 10.845,3.148 22.041,5.598 29.737,15.394 3.499,4.549 3.849,11.896 0.7,16.794 -7.348,10.495 -19.242,13.645 -30.438,16.443 v 0.699 19.592 h -0.351 l -56.673998,-9.445 -55.278,9.796 v -20.292 c -10.496,-2.799 -20.991,-5.248 -28.6879996,-13.645 -4.19900004,-4.198 -5.598,-10.846 -3.49900004,-16.443 C 6.2123923,102.159 18.108392,98.311 28.253392,95.162 c 1.75,-0.35 3.149,-0.35 4.548,-1.05 0,-8.396 0.35,-14.694 0,-23.791 C 21.606392,67.173 9.0103923,64.374 2.0133924,53.529 -0.78560764,48.981 -0.43560764,41.284 3.0633924,36.736 10.760392,27.29 21.955392,24.491 33.150392,21.342 V 0.35 l 56.328,9.096 L 145.45639,0 v 0 z" /><path
     style="clip-rule:evenodd;fill:#f8f400;fill-rule:evenodd"
     inkscape:connector-curvature="0"
     id="path8"
     d="m 137.671,19.908854 -7.25961,-1.015854 0.0111,-16.200932 7.24856,-1.20468 z"
     sodipodi:nodetypes="ccccc" /><path
     style="clip-rule:evenodd;fill:#f8f400;fill-rule:evenodd"
     inkscape:connector-curvature="0"
     id="path10"
     d="m 47.845392,18.893 c -2.449,0.35 -4.898,0.7 -7.347,1.049 V 1.749 l 7.347,1.119312 c 0,0 0,10.659688 0,16.024688 z"
     sodipodi:nodetypes="ccccc" /><path
     style="clip-rule:evenodd;fill:#f8f400;fill-rule:evenodd"
     inkscape:connector-curvature="0"
     id="path12"
     d="m 123.07999,18.193 -7.7126,-0.7 V 5.248 l 7.70155,-1.266417 z"
     sodipodi:nodetypes="ccccc" /><polygon
     style="clip-rule:evenodd;fill:#f8f400;fill-rule:evenodd"
     id="polygon14"
     points="70.261,32.004 62.914,32.704 62.914,18.709 70.261,19.759 "
     transform="translate(-7.3716076,-14.511)" /><path
     style="clip-rule:evenodd;fill:#f8f400;fill-rule:evenodd"
     inkscape:connector-curvature="0"
     id="path16"
     d="m 108.02139,17.143 -7.696,-0.35 V 7.696 l 7.74112,-1.30876 z"
     sodipodi:nodetypes="ccccc" /><polygon
     style="clip-rule:evenodd;fill:#f8f400;fill-rule:evenodd"
     id="polygon18"
     points="85.305,31.304 77.958,31.654 77.958,21.158 85.305,22.208 "
     transform="translate(-7.3716076,-14.511)" /><polygon
     style="clip-rule:evenodd;fill:#f8f400;fill-rule:evenodd"
     id="polygon20"
     points="93.001,31.304 93.001,23.607 96.85,23.957 100.349,23.607 100.349,31.304 "
     transform="translate(-7.3716076,-14.383381)" /><path
     style="clip-rule:evenodd;fill:#ffffff;fill-rule:evenodd"
     inkscape:connector-curvature="0"
     id="path22"
     d="m 155.60239,27.289 c 8.396,2.799 19.592,8.047 19.941,18.542 -0.35,10.846 -12.245,15.744 -20.642,18.893 -24.14,7.347 -51.079,7.697 -77.317998,7.347 -21.691,-1.05 -44.433,-2.099 -63.325,-11.195 C 9.0103923,58.077 3.0633924,53.179 2.7133924,46.532 c -0.35,-6.298 4.5479999,-11.545 9.7959996,-14.694 11.896,-6.647 25.54,-9.096 39.534,-10.496 27.639,-2.799 57.726998,-2.799 85.015998,1.4 6.647,1.048 12.595,2.448 18.543,4.547 z" /><path
     style="clip-rule:evenodd;fill:#df002c;fill-rule:evenodd"
     inkscape:connector-curvature="0"
     id="path24"
     d="m 46.795392,29.738 c 0.7,0.7 0.7,1.749 0.7,2.449 l -0.35,0.7 c -6.647,0 -12.595,0.35 -18.893,0.699 0,1.4 2.099,2.449 1.399,3.849 -3.148,6.647 -5.947,13.645 -8.747,20.292 -0.35,0.35 -1.049,0.35 -1.399,0 -0.699,-1.05 -2.798,-1.75 -2.099,-3.149 2.799,-6.997 5.947,-13.645 9.446,-20.292 -3.848,0 -7.347,0.35 -11.195,0.7 v 0 l 1.399,-3.149 c 9.797,-1.399 19.593,-2.099 29.739,-2.099 z" /><path
     style="clip-rule:evenodd;fill:#df002c;fill-rule:evenodd"
     inkscape:connector-curvature="0"
     id="path26"
     d="m 39.448392,37.085 c 0,0.7 0,1.75 -0.35,2.449 -0.7,0.7 -1.399,1.399 -2.449,1.399 -1.05,0.35 -2.1,-0.35 -2.449,-1.05 -0.35,-1.049 -0.35,-2.099 0,-3.148 0.35,-0.7 1.05,-1.049 1.75,-1.399 1.399,0 2.799,0.699 3.498,1.749 z" /><path
     style="clip-rule:evenodd;fill:#df002c;fill-rule:evenodd"
     inkscape:connector-curvature="0"
     id="path28"
     d="m 33.501392,41.983 c 0.7,1.049 2.449,1.749 2.099,3.149 -1.749,3.148 -3.148,5.947 -4.198,9.096 1.749,-0.7 3.499,-2.449 4.898,-3.849 2.449,-2.799 4.898,-5.248 6.998,-7.697 1.049,0.35 2.099,1.049 2.799,2.099 -1.399,2.449 -2.799,4.898 -3.849,7.347 l 8.747,-8.397 c 1.049,0.35 2.449,1.4 2.449,2.799 -1.399,1.749 -2.449,4.198 -3.149,6.297 l 8.397,-7.697 c 1.049,-0.35 2.099,1.049 2.799,2.099 -1.399,2.799 -3.849,5.248 -3.849,8.397 0.35,0.7 1.05,0.7 1.75,0.7 -0.35,0.7 -1.049,1.399 -2.099,1.749 -1.05,0 -1.749,-0.35 -2.799,-0.699 -2.099,-2.799 0.7,-5.598 2.099,-8.047 -3.149,1.75 -5.948,5.248 -8.396,7.697 -1.05,-0.35 -2.099,-1.399 -3.149,-2.099 l 0.35,-0.7 c 1.05,-2.099 2.1,-4.198 3.149,-5.948 v 0 c -3.149,2.799 -5.948,5.248 -8.396,8.396 -1.05,0.35 -2.1,-0.7 -2.799,-1.399 l -0.35,-0.35 c 1.049,-2.099 2.099,-4.199 3.149,-6.647 -3.149,2.799 -6.297,6.297 -9.796,8.396 -1.049,0 -1.749,-1.399 -2.798,-2.099 l -0.35,-0.35 c 1.75,-4.198 3.148,-8.747 5.598,-12.245 h 0.696 z" /><path
     style="clip-rule:evenodd;fill:#df002c;fill-rule:evenodd"
     inkscape:connector-curvature="0"
     id="path30"
     d="m 80.032392,30.787 -4.898,12.245 c 2.449,0 4.898,-0.35 7.697,-0.35 1.75,-4.199 3.499,-8.396 5.948,-12.595 1.05,-0.7 2.1,1.05 2.799,1.75 l 0.35,0.35 c -1.749,3.499 -3.498,6.647 -4.898,10.496 4.199,0.35 10.496001,-1.75 12.246001,2.799 0.35,0.35 0,1.05 0.35,1.05 2.798997,-1.399 5.247997,-4.548 6.996997,-6.998 1.05,0.35 0,1.399 0.35,2.449 0.351,0.7 0.7,1.399 1.399,1.399 0.351,0.35 1.05,0 1.399,0.7 -1.049,2.449 -2.799,4.548 -3.849,6.997 -0.35,1.399 -1.399,2.449 -0.699,3.849 0.35,0.7 1.399,0.7 1.749,0.35 4.898,-3.499 6.298,-9.096 8.747,-13.994 v -0.35 l -3.148,0.35 c -0.351,-0.7 0.35,-1.05 0.699,-1.4 l 3.148,-0.35 c 1.399,-2.099 2.1,-4.198 3.148,-6.297 1.4,0.35 2.449,1.399 2.8,2.799 -0.351,1.049 -1.05,2.099 -1.399,2.799 3.848,0 7.696,-0.35 11.545,-0.35 0.35,0.7 0.35,1.399 0.699,2.1 -4.548,0 -8.746,0 -13.294,0.35 -2.1,4.548 -4.198,9.097 -5.947,13.645 0,0.35 0,1.05 0.699,1.399 2.099,-0.35 3.849,-1.749 4.897,-3.499 1.4,-3.499 3.499,-8.047 7.697,-9.096 1.749,-0.35 3.148,0.35 4.198,1.75 1.05,1.049 1.399,2.099 1.399,3.499 2.449,-0.7 4.198,-2.799 6.298,-4.548 1.05,0.35 1.749,1.749 2.449,2.449 v 1.049 c -1.05,1.399 -2.1,3.499 -2.799,4.898 2.799,-2.099 5.947,-5.248 8.746,-7.697 1.05,0.35 1.749,1.75 1.749,2.799 -1.399,2.099 -2.448,4.548 -3.148,7.347 0,0.7 0,1.399 0.7,1.749 h 0.699 c 3.498,-4.548 6.298,-9.796 10.846,-13.994 0.7,1.049 1.749,2.449 1.399,3.849 -3.148,3.499 2.799,6.997 -1.05,10.496 -1.399,1.399 -3.498,1.399 -5.248,0.7 -0.699,0 -1.399,-0.35 -1.749,-1.05 0.35,-1.049 0.699,-1.749 1.399,-2.449 0,1.049 0.35,2.449 1.399,2.799 0.7,0.35 1.399,0 1.749,-0.7 1.05,-2.449 -1.749,-3.849 -1.049,-6.297 0,-1.05 0.35,-2.1 0.699,-3.149 -3.148,3.499 -4.898,6.997 -7.696,10.496 -0.7,0.699 -1.75,1.049 -2.799,1.049 -1.05,-0.35 -1.75,-0.7 -2.1,-1.75 -1.05,-2.099 -0.35,-4.898 1.05,-6.997 h -0.7 c -2.449,2.449 -5.248,5.248 -7.347,7.697 -1.399,0 -2.1,-1.4 -2.799,-2.1 1.05,-2.799 2.449,-5.248 3.849,-7.697 -1.75,1.05 -3.149,1.749 -4.898,2.449 -1.05,3.499 -3.499,7.347 -7.347,8.396 -1.399,0.35 -3.499,0 -4.549,-1.399 -0.699,-0.7 -0.699,-1.75 -1.05,-2.449 -2.099,1.75 -4.897,3.849 -7.696,2.449 -1.399,-0.7 -1.399,-2.099 -1.399,-3.499 -1.749,2.449 -3.849,3.849 -6.647,3.849 -1.05,-0.35 -2.449,-0.7 -2.799,-1.75 -0.699,-3.849 2.1,-7.347 4.198,-10.496 0,-0.35 -0.35,-0.7 -0.35,-1.05 -1.749,1.399 -3.499,3.148 -5.597997,4.198 -0.35,3.849 -3.149,8.747 -7.348001,9.446 -1.399,0 -2.799,0 -3.848,-1.05 -1.749,-1.399 -2.099,-3.848 -1.749,-6.297 0.699,-2.449 2.798,-4.548 4.898,-6.297 v 0 h -5.248 c -2.099,4.548 -4.198,9.096 -5.598,13.645 -0.35,0.35 -0.7,0.35 -1.05,0.35 -2.799,-1.049 -0.35,-3.848 -1.399,-5.598 -0.35,-2.449 -1.749,-4.898 -4.198,-6.297 v 0 c -1.75,3.849 -3.499,7.697 -5.248,11.545 h -0.35 c -1.05,-1.05 -3.149,-2.099 -2.449,-3.849 l 3.849,-8.746 c -0.7,-0.35 -1.749,0 -1.749,-1.05 0.699,-1.05 2.449,0 2.798,-1.05 l 6.298,-14.344 c 0.35,-0.35 0.7,-0.35 1.049,0 0.702,0.7 1.752,1.05 2.102,2.099 z m -4.198,13.995 c 2.099,1.399 3.149,3.499 3.848,5.248 0.7,-1.75 1.75,-3.849 2.1,-5.598 -1.75,0 -3.849,0 -5.948,0.35 z m 17.842,2.099 c -1.749,1.049 -3.148,2.799 -3.498,4.548 0,1.049 0,2.099 0.7,2.799 0.35,0.35 1.049,0.7 1.749,0.7 2.799,-0.7 4.198001,-3.499 4.897001,-5.948 h -1.399 c -1.050001,0 -2.099001,-1.399 -2.449001,-2.099 z m 32.887998,1.049 c -1.75,2.1 -3.499,4.199 -2.799,6.647 0.35,1.05 1.049,1.399 2.099,1.399 2.449,-0.35 3.849,-3.499 4.198,-5.598 -0.699,0 -1.399,0 -1.749,-0.35 -1.05,-0.348 -1.4,-1.397 -1.749,-2.098 z" /><path
     style="clip-rule:evenodd;fill:#f8f400;fill-rule:evenodd"
     inkscape:connector-curvature="0"
     id="path32"
     d="m 137.75939,92.713 -7.348,-1.05 V 72.771 c 2.449,-0.35 4.898,-1.05 7.348,-1.399 z" /><path
     style="clip-rule:evenodd;fill:#f8f400;fill-rule:evenodd"
     inkscape:connector-curvature="0"
     id="path34"
     d="m 47.845392,72.421 c 0,6.297 0,12.596 0,19.242 l -7.347,1.05 v -20.992 0 z" /><path
     style="clip-rule:evenodd;fill:#f8f400;fill-rule:evenodd"
     inkscape:connector-curvature="0"
     id="path36"
     d="m 122.71539,73.47 c 0.35,5.598 0.35,11.546 0.35,17.143 l -0.35,0.351 -7.348,-0.7 V 74.17 c 2.449,-0.7 4.899,-0.35 7.348,-0.7 z" /><polygon
     style="clip-rule:evenodd;fill:#f8f400;fill-rule:evenodd"
     id="polygon38"
     points="70.261,104.774 62.914,105.124 62.914,87.981 70.261,88.681 "
     transform="translate(-7.3716076,-14.511)" /><polygon
     style="clip-rule:evenodd;fill:#f8f400;fill-rule:evenodd"
     id="polygon40"
     points="115.043,89.031 115.393,89.031 115.393,104.425 107.696,104.075 107.696,89.031 "
     transform="translate(-7.3716076,-14.511)" /><path
     style="clip-rule:evenodd;fill:#f8f400;fill-rule:evenodd"
     inkscape:connector-curvature="0"
     id="path42"
     d="m 77.933392,74.52 c 0,4.898 0,9.796 0,15.044 l -7.347,0.35 V 74.52 Z" /><path
     style="clip-rule:evenodd;fill:#f8f400;fill-rule:evenodd"
     inkscape:connector-curvature="0"
     id="path44"
     d="m 92.977392,74.87 c 0,4.548 0,9.796 0,14.344 -2.099,0 -4.898,0 -7.697,0 V 74.87 Z" /><path
     style="clip-rule:evenodd;fill:#f8f400;fill-rule:evenodd"
     inkscape:connector-curvature="0"
     id="path46"
     d="m 158.05139,100.76 c 6.997,2.799 16.443,8.047 17.143,16.443 0.7,5.947 -3.148,11.195 -8.047,14.694 -15.044,9.096 -33.236,10.496 -51.079,12.245 l -13.645,0.699 -19.241998,0.351 c -20.992,-0.7 -42.333,-1.75 -61.226,-8.047 -7.347,-2.799 -17.4929996,-7.348 -19.2419996,-16.443 -1.05,-6.998 3.8489999,-12.596 9.0959996,-15.744 14.694,-8.746 32.187,-10.496 49.68,-11.896 27.639,-1.749 54.228998,-1.399 80.816998,3.149 5.249,1.4 10.846,2.799 15.745,4.549 z" /><path
     style="clip-rule:evenodd;fill:#f8f400;fill-rule:evenodd"
     inkscape:connector-curvature="0"
     id="path48"
     d="m 137.75939,161.635 -7.3259,-1.24687 -0.0221,-14.84513 c 2.449,-0.35 4.898,-0.7 7.348,-1.05 z"
     sodipodi:nodetypes="ccccc" /><path
     style="clip-rule:evenodd;fill:#f8f400;fill-rule:evenodd"
     inkscape:connector-curvature="0"
     id="path50"
     d="m 47.845392,160.586 -7.347,1.399 v -17.493 l 7.347,1.05 z"
     sodipodi:nodetypes="ccccc" /><path
     style="clip-rule:evenodd;fill:#f8f400;fill-rule:evenodd"
     inkscape:connector-curvature="0"
     id="path52"
     d="m 123.06539,159.186 -7.66385,-1.30412 -0.0332,-10.94088 c 2.449,0 5.248,-0.351 7.697,-0.7 z"
     sodipodi:nodetypes="ccccc" /><polygon
     style="clip-rule:evenodd;fill:#f8f400;fill-rule:evenodd"
     id="polygon54"
     points="70.261,172.647 62.914,174.047 62.914,161.102 70.261,161.452 "
     transform="translate(-7.3716076,-14.511)" /><polygon
     style="clip-rule:evenodd;fill:#f8f400;fill-rule:evenodd"
     id="polygon56"
     points="77.958,161.802 85.305,162.151 85.305,170.198 77.958,171.248 77.958,162.151 "
     transform="translate(-7.3716076,-14.511)" /><path
     style="clip-rule:evenodd;fill:#f8f400;fill-rule:evenodd"
     inkscape:connector-curvature="0"
     id="path58"
     d="m 108.02139,156.737 c -2.449,-0.35 -5.248,-0.699 -7.696,-1.05 0,-2.449 0,-5.598 0,-8.047 2.448,0 5.247,-0.35 7.696,-0.35 z" /><path
     style="clip-rule:evenodd;fill:#f8f400;fill-rule:evenodd"
     inkscape:connector-curvature="0"
     id="path60"
     d="m 92.680522,147.59313 0.0625,6.4595 -4.37088,-0.66675 -3.0615,0.54275 0.02188,-6.27201 c 2.45,-0.001 4.898,-0.0635 7.34801,-0.0635 z"
     sodipodi:nodetypes="cccccc" /><path
     style="clip-rule:evenodd;fill:#402400;fill-rule:evenodd"
     inkscape:connector-curvature="0"
     id="path64"
     d="m 139.50839,110.905 c -0.35,0.7 -0.35,1.75 -1.05,2.449 -1.049,-0.35 -0.35,-2.099 -1.749,-2.449 -1.05,-0.35 -1.749,0 -2.449,0.7 -1.05,0.699 -1.399,1.749 -1.05,2.799 1.05,1.399 3.499,1.05 4.199,2.799 1.049,1.749 0,4.198 -1.399,5.598 -1.399,1.749 -3.849,2.099 -5.948,1.749 -0.699,-0.35 -1.749,-1.05 -2.099,-2.099 0,-0.35 0,-1.399 0.35,-2.1 0.35,-0.35 0.699,-0.35 1.05,-0.35 0.699,0.7 0.35,2.1 1.049,2.449 1.05,0.699 1.75,0.699 2.799,0.35 1.05,-0.35 1.75,-1.399 2.1,-2.449 0,-2.799 -3.849,-1.749 -4.548,-3.498 -1.05,-1.75 -0.351,-3.499 0.699,-4.549 1.05,-1.749 2.799,-3.148 4.898,-3.148 1.049,0.35 2.798,0.35 3.148,1.749 z" /><path
     style="clip-rule:evenodd;fill:#402400;fill-rule:evenodd"
     inkscape:connector-curvature="0"
     id="path66"
     d="m 91.577392,110.555 c -0.35,1.05 -0.35,2.449 -1.05,2.799 -1.049,-0.35 -0.35,-1.399 -1.049,-2.099 -0.35,-0.351 -1.399,-0.7 -2.099,-0.351 -0.7,0.351 -1.75,1.05 -2.099,1.75 0,0.699 -0.35,1.399 0,1.749 1.399,1.749 4.898,1.05 4.548,4.198 0,2.1 -1.05,3.849 -2.799,5.248 -1.749,0.699 -3.848,1.399 -5.598,0.35 -1.049,-0.35 -1.399,-1.399 -1.399,-2.449 0,-0.699 0.35,-1.399 1.05,-1.749 h 0.35 c 0.7,0.7 0.35,2.1 1.05,2.449 0.7,0.699 1.749,0.699 2.449,0.699 0.7,-0.35 1.75,-1.049 2.099,-1.749 0.35,-0.699 0.35,-1.749 0,-2.099 -1.399,-1.75 -4.898,-0.7 -4.548,-3.849 -0.35,-2.449 1.749,-4.898 4.198,-5.598 1.749,-0.698 3.498,-0.698 4.897,0.701 z" /><path
     style="clip-rule:evenodd;fill:#402400;fill-rule:evenodd"
     inkscape:connector-curvature="0"
     id="path68"
     d="m 129.01239,109.856 c 0.351,1.049 0,2.099 -0.699,2.799 -0.7,0 -0.7,-1.399 -1.749,-1.399 -1.05,-0.351 -2.1,-0.351 -2.799,0 -0.7,1.399 -1.05,2.799 -1.399,3.848 1.049,0.7 2.448,0 3.148,0.351 0.35,-0.351 0.699,-0.7 1.05,-0.351 0,0.7 0,2.1 -0.7,2.8 -0.699,0 -0.699,-0.7 -1.05,-0.7 h -2.799 c -0.699,1.749 -1.399,3.499 -1.749,5.248 2.1,0.35 4.198,0.699 5.598,-1.399 h 0.7 c 0,1.05 -0.7,2.099 -1.05,2.799 -3.148,0.699 -5.948,0.35 -9.097,0.35 -0.35,-0.35 0,-0.7 0.35,-1.05 1.05,-0.35 0.7,-1.399 1.05,-2.099 l 2.799,-9.796 c -0.35,-0.351 -0.35,-1.05 0,-1.399 0.351,-0.351 1.399,0 2.1,-0.351 z" /><path
     style="clip-rule:evenodd;fill:#402400;fill-rule:evenodd"
     inkscape:connector-curvature="0"
     id="path70"
     d="m 153.50239,109.856 c 0.7,0.699 -0.35,1.049 -0.699,1.749 l -3.499,10.846 c 0.351,0.699 0.7,1.049 0.351,1.399 -1.05,0.699 -2.449,0.35 -3.849,0.35 -0.7,-0.7 0.699,-1.05 1.05,-1.749 l 1.399,-4.898 c -1.399,-0.35 -3.149,0 -4.549,-0.35 -0.699,1.749 -1.399,3.849 -1.749,5.598 0.35,0.35 0.35,1.05 0.35,1.399 -1.05,0.35 -2.799,0 -3.849,0 -0.699,-0.7 0.7,-1.05 0.7,-1.749 l 3.498,-11.195 c -0.699,-0.351 -0.699,-0.7 -0.35,-1.05 l 0.35,-0.35 c 1.05,-0.351 2.449,-0.351 3.499,0 0.35,0.699 -0.699,1.049 -1.05,1.749 l -1.05,3.849 0.351,0.35 4.198,-0.35 1.399,-4.198 c -0.35,-0.351 -0.35,-0.7 -0.35,-1.05 0,-0.35 0.35,-0.35 0.699,-0.7 z" /><path
     style="clip-rule:evenodd;fill:#402400;fill-rule:evenodd"
     inkscape:connector-curvature="0"
     id="path72"
     d="m 106.62139,109.856 c 0.7,0.35 0,1.749 0,2.448 -0.35,0.351 -0.35,0.7 -0.7,0.7 -0.699,-0.35 -0.35,-1.399 -1.399,-1.749 -1.049,0 -2.099,0 -2.798,0.35 -0.7,1.399 -1.05,2.799 -1.399,4.198 l 0.35,0.35 c 1.05,-0.35 2.799,0.7 3.498,-1.05 0.35,0 0.35,0.351 0.35,0.7 -0.35,0.699 -0.35,2.1 -1.049,2.799 -0.7,0 -0.7,-1.05 -1.399,-0.699 h -2.448997 l -1.399,4.897 c 0.7,0 0.7,0.699 0.35,1.05 l -0.35,0.35 h -3.849001 c 0,-0.35 0,-0.7 0.35,-0.7 1.399001,-0.699 1.050001,-2.448 1.750001,-3.848 l 2.449,-8.047 c 0,-0.7 -0.7,-1.05 -0.351,-1.399 0.351,-0.7 0.7,-0.35 1.05,-0.7 z" /><path
     style="clip-rule:evenodd;fill:#402400;fill-rule:evenodd"
     inkscape:connector-curvature="0"
     id="path74"
     d="m 82.831392,110.206 c 0,1.05 -1.399,1.399 -1.749,2.449 -1.4,2.099 -3.149,3.848 -4.548,5.947 l -1.049,3.849 c 0.35,0.35 0.7,1.049 0.35,1.399 -1.399,0.699 -3.149,0.35 -4.198,0.35 -0.35,-1.05 0.35,-1.399 1.049,-1.749 l 1.05,-4.198 c -0.7,-2.1 -1.05,-4.549 -1.399,-6.647 -0.35,-0.35 -0.35,-1.05 -0.35,-1.399 1.05,-1.05 2.799,-0.35 3.849,-0.35 0.7,0 0.35,0.699 0.35,1.049 -0.35,0.351 -1.05,0.351 -0.7,1.05 0,1.399 0.35,3.148 1.049,4.548 1.05,-1.749 2.799,-3.148 3.499,-5.247 -0.7,0 -0.7,-0.7 -0.35,-1.05 1.05,-0.7 1.75,-0.35 2.799,-0.35 z" /><path
     style="clip-rule:evenodd;fill:#402400;fill-rule:evenodd"
     inkscape:connector-curvature="0"
     id="path76"
     d="m 56.241392,109.856 c 0.35,0.35 0.35,0.699 0,1.049 -1.049,0.351 -1.049,1.399 -1.399,2.449 0,2.449 -0.35,4.898 -0.35,7.697 2.099,-2.799 3.849,-5.948 4.548,-9.446 -0.35,-0.35 -1.049,-0.7 -0.699,-1.399 1.049,-0.7 2.449,-0.35 3.499,0 0,0.699 -1.05,1.05 -1.399,1.749 -1.75,4.198 -3.849,8.747 -6.998,12.595 -0.35,0.35 -0.7,0.35 -1.049,0 -0.7,-1.05 -0.35,-2.448 -0.7,-3.848 0.35,-1.05 0.35,-1.75 0,-2.799 -1.05,2.448 -2.099,4.548 -3.849,6.646 -0.7,0.35 -1.05,0.35 -1.399,0 -1.05,-1.399 -0.35,-3.498 -0.35,-5.598 l 1.049,-7.347 c -0.7,-0.35 -0.35,-0.7 -0.35,-1.05 0.7,-1.05 2.799,-0.699 3.849,-0.699 0.7,1.049 -0.35,1.399 -1.049,2.099 -0.35,2.799 -1.05,5.948 -0.7,9.097 1.75,-2.799 3.149,-5.948 3.849,-9.446 0,-0.35 -0.35,-1.05 0,-1.399 1.398,-0.7 2.448,-0.35 3.497,-0.35 z" /><path
     style="clip-rule:evenodd;fill:#402400;fill-rule:evenodd"
     inkscape:connector-curvature="0"
     id="path78"
     d="m 43.297392,109.856 c 0.35,0.35 0.35,0.699 0,1.049 -1.4,0.351 -1.4,1.75 -1.75,2.449 -0.7,3.148 -2.099,6.298 -2.799,9.446 1.399,0.35 2.799,0.35 3.848,-0.699 0.35,-0.351 0.7,-1.05 1.75,-1.05 0,1.399 -0.7,2.448 -1.399,3.148 -2.449,0.35 -5.598,0.35 -8.047,0 -0.35,0 0,-0.35 0,-0.7 1.399,-0.35 1.05,-1.749 1.75,-2.798 l 2.449,-9.097 c -0.35,-0.35 -0.7,-1.05 0,-1.399 0.35,-0.35 1.05,0 1.399,-0.35 h 2.799 z" /><path
     style="clip-rule:evenodd;fill:#402400;fill-rule:evenodd"
     inkscape:connector-curvature="0"
     id="path80"
     d="m 117.11739,110.206 c 1.049,0.699 0.699,2.099 0.35,3.148 -0.35,1.399 -1.749,2.799 -3.148,3.499 0.35,1.749 0.35,4.198 0.35,5.947 0.699,0 0.699,0.699 0.35,1.05 -1.049,0.699 -2.799,0.35 -4.198,0.35 -0.35,-0.7 0.7,-1.05 1.05,-1.749 0,-1.399 0,-3.148 -0.35,-4.548 -0.7,0 -1.399,0.35 -2.1,0.35 l -1.399,4.548 c 0.35,0.35 0.7,0.699 0.35,1.399 -1.049,0.35 -2.799,0 -4.198,0 -0.35,-1.399 1.399,-1.05 1.399,-2.449 l 3.149,-10.146 c -0.351,-0.35 -0.7,-1.05 -0.351,-1.399 0,-0.35 0.351,-0.7 0.7,-0.7 2.798,0.35 5.247,0 8.046,0.7 z m -5.597,1.749 -1.399,4.198 c 1.049,0.35 2.099,-0.35 3.148,-0.699 1.05,-0.7 1.749,-2.1 1.399,-3.499 -0.699,-1.05 -2.449,-1.05 -3.148,0 z" /><path
     style="clip-rule:evenodd;fill:#402400;fill-rule:evenodd"
     inkscape:connector-curvature="0"
     id="path82"
     d="m 68.836392,110.206 c 0.7,3.849 0.35,8.396 0,12.595 0.35,0.35 0.7,0.699 0.35,1.05 l -0.35,0.35 h -3.498 c -0.35,-0.7 0.35,-1.05 0.7,-1.749 l 0.35,-2.799 c -1.399,0 -2.799,0 -3.849,0 -0.699,1.05 -1.399,2.099 -1.749,3.148 0.35,0.35 0.7,0.699 0.35,1.05 -1.049,0.699 -2.099,0.35 -3.148,0.35 -0.35,-1.05 1.049,-1.05 1.049,-1.749 2.799,-4.198 4.898,-8.747 8.047,-12.945 0.699,-0.001 1.398,-0.351 1.748,0.699 z m -2.798,3.148 c -1.05,1.399 -1.75,2.799 -2.449,4.549 l 2.449,-0.351 c 0.349,-1.399 0.349,-2.798 0,-4.198 z" /><path
     style="clip-rule:evenodd;fill:#402400;fill-rule:evenodd"
     inkscape:connector-curvature="0"
     id="path84"
     d="m 33.150392,110.206 c 0.35,4.198 0.35,8.396 0,12.595 0.35,0.35 0.7,1.05 0.35,1.399 l -0.7,0.35 h -3.499 c -0.35,-0.699 0.35,-1.399 1.049,-1.749 v -2.799 0 h -3.848 l -1.75,2.799 c 0,0.35 0.7,0.699 0.35,1.399 -0.7,0.699 -1.75,0.35 -2.799,0.35 -0.7,-1.05 1.049,-1.399 1.049,-2.099 2.449,-4.198 4.898,-8.396 7.697,-12.245 0.352,-0.7 1.752,-0.7 2.101,0 z m -2.798,3.148 c -1.049,1.399 -2.099,3.148 -2.798,4.549 1.049,0 2.099,0 2.798,0 0.35,-1.4 0.35,-3.149 0,-4.549 z" /></svg>