<?xml version="1.0" encoding="UTF-8" standalone="no"?>
<svg xmlns="http://www.w3.org/2000/svg" width="354.33072" height="142.26619">
  <path fill="#d4241d" d="M30.98044 108.04588c6.706367-19.951945 18.231404-42.765696 30.476926-66.366228.913588-1.758008.11528-3.351743-1.755125-3.242228-16.922976 1.000047-35.203374.302608-46.555492-2.340167C-4.6581218 31.863629.12308256 19.096458 2.0799468 15.914753 4.0368111 12.361272 10.67401 1.4299224 25.265474 8.9057779c19.779027 9.5479991 39.0854 10.2829041 46.411393 9.8131411 3.106774-.198972 4.086647-1.086506 5.565102-3.167296 1.466928-2.063497 3.299867-4.58523 4.328734-5.8850025C86.043536 4.0237042 92.179271.05810003 97.925938 3.9141889c3.801332 2.5447882 2.720592 7.3202291.985637 10.6777351-1.141264 2.207596-.945289 3.305631 1.495745 3.141358C143.4958 14.845538 243.25841.60855817 267.70913.04945409c33.31569-.76372463 58.23616 7.39227811 73.31756 19.28620891 8.51337 6.71213 20.07876 17.412921 8.27705 26.496921-8.83039 6.787063-14.33209 7.4528-20.86553 1.930927l-.59369-.504347c-3.68605-3.118302-9.39237-3.256637-13.12166.325664-2.89638 2.778229-5.28555 8.444201-.6225 14.634693 8.16753 10.839126 12.00921 14.415663 15.19668 19.40437 3.3575 5.230793 6.62567 11.190727 6.53921 19.366899-.10952 22.44198-21.07592 39.24104-45.44882 41.16332-20.50817 1.34877-52.52408-9.09264-34.98147-52.287757 2.38339-6.300008 4.90801-12.600015 4.40078-16.614613-.83577-6.634318-9.03789-6.106915-15.90565 3.308512-9.13299 12.519321-7.81304 37.249588-8.88514 48.178058-1.1038 11.07545-5.67174 17.52532-19.36979 17.51667-18.54842-.30837-9.37796-21.87134-6.20778-31.30983 4.99447-14.499237 11.71813-29.321259 10.95441-36.932568-.77237-7.689122-11.07545-6.928279-17.99509 2.54767-8.39232 11.487572-8.69493 38.402378-9.90536 48.189588-1.35741 11.08985-6.06945 17.53108-19.70986 17.50226-18.48214-.3199-8.85632-21.85694-5.51035-31.30407 5.27115-14.502117 12.66054-29.373133 11.66626-36.935448-.86171-6.533448-10.91694-6.962863-17.50226-1.389114-.98564.832892-1.66579 1.959746-1.36894 4.07512 1.14126 8.081071 1.21907 18.75016-3.04338 30.364542-8.81309 24.00401-27.31828 35.19185-44.4603 35.19185-22.675413 0-37.310107-15.13039-37.949906-35.48293-.6398-20.349663 11.827645-41.422699 25.750486-51.858347 6.88793-5.161626 18.90579-10.271376 23.41609-4.216337 3.63417 4.87631-.47841 9.262683-3.68317 12.363693-8.55948 8.285692-19.6551 19.655102-20.658032 35.471407-.956818 15.069874 7.654542 20.150804 15.381122 20.150804 15.28891 0 24.09912-14.92577 25.66115-27.23471.23344-1.847349-.3833-2.789757-1.48422-2.596664-5.10687.87324-10.03217-.821364-13.05537-5.092458-5.01176-7.083906-2.89927-18.551304 4.7178-25.615036 6.88217-6.380703 15.90277-6.983037 21.27478-1.818529 1.08651 1.043276 2.30846.792544 3.6457-.198972 6.83894-5.057875 16.69243-8.749691 23.00108-9.386608 11.00052-1.10668 16.11603 4.322969 18.33516 8.069543 1.15279 1.9511 2.69465 1.847349 4.21057.56775 6.16456-5.199091 13.81909-8.029196 19.85972-8.637293 11.00052-1.10668 16.11603 4.322969 18.33516 8.069543 1.15567 1.9511 2.76958 1.945336 4.21345.56775 5.66598-5.409476 12.75853-8.075307 18.14207-8.637293 15.88547-1.662903 20.3266 10.885237 20.7416 16.652079.72626 10.092693-3.15576 15.920056-6.31441 32.188832-3.80422 19.617636 7.51332 23.669696 15.433 23.038546 9.7872-.77525 18.14494-7.41245 18.71557-17.51379.57928-10.095576-6.51615-17.505146-12.72394-25.21156-5.20773-6.464281-8.48454-13.885379-8.41538-20.960639.10099-9.87078 6.99745-17.136251 13.82774-20.81654 1.93093-1.037512 1.93669-2.585135.2882-3.374798-11.89393-5.709202-32.33293-7.605544-66.00886-5.510345-20.83384 1.296891-111.86405 9.277093-148.646756 12.254178-1.864641.149863-3.893555.8156-4.977179 3.031842-9.516297 19.47642-19.902952 44.711034-24.672629 82.597542-1.521685 12.06685-6.196256 19.14787-21.162368 19.13923-20.266082-.3372-10.24832-23.8945-6.781298-34.2091"/>
</svg>