<svg width="500" height="176" viewBox="0 0 500 176" fill="none" xmlns="http://www.w3.org/2000/svg">
<g clip-path="url(#clip0_2_2421)">
<path fill-rule="evenodd" clip-rule="evenodd" d="M296.494 132.346L276.577 87.1895H269.535V80.0194H298.343V87.1895H289.515L302.613 120.332L315.711 87.1895H308.285V80.0194H329.413V87.1895H323.645L305.322 130.497C299.49 144.36 292.893 150.893 282.664 150.893C276.8 150.893 271.224 147.801 271.224 142.193C271.224 138.018 274.155 134.831 278.107 134.831C282.313 134.831 284.672 138.305 284.672 141.523C284.672 144.105 283.524 145.379 283.524 145.379C289.77 144.583 292.638 142.161 296.494 132.346ZM457.202 90.8861C462.141 81.8677 469.535 78.8403 477.406 78.8403C486.329 78.8403 491.651 85.0544 491.651 95.5069V124.188H499.809V131.358H472.721V124.188H479.796V98.6937C479.796 91.3004 476.163 87.1895 470.522 87.1895C464.404 87.1895 457.744 93.3399 457.744 103.123V124.188H464.723V131.358H437.763V124.188H445.793V87.1895H437.763V80.0194H457.202V90.8861ZM408.158 132.569C393.467 132.569 381.58 120.555 381.58 105.705C381.58 90.8543 393.467 78.8403 408.158 78.8403C422.881 78.8403 434.735 90.8543 434.735 105.705C434.735 120.555 422.881 132.569 408.158 132.569ZM421.542 105.705C421.542 93.9454 415.551 84.4489 408.158 84.4489C400.797 84.4489 394.805 93.9454 394.805 105.705C394.805 117.464 400.797 126.96 408.158 126.96C415.551 126.96 421.542 117.464 421.542 105.705ZM365.647 86.0742L367.208 78.8403H373.614V95.9531H367.081C363.703 89.8027 359.528 83.8434 352.071 83.8434C347.196 83.8434 343.945 86.9027 343.945 90.9499C343.945 95.8893 348.598 97.9926 357.712 100.415C369.152 103.442 375.781 107.043 375.781 116.38C375.781 124.283 369.216 132.569 357.074 132.569C349.171 132.569 343.977 129.031 340.599 124.666L338.942 132.569H332.664V114.213H339.292C343.053 122.244 349.872 127.47 356.724 127.47C362.269 127.47 365.392 124.857 365.392 120.364C365.392 115.169 361.026 113.161 351.179 110.58C338.273 107.107 333.461 102.773 333.461 94.6784C333.461 85.7236 341.045 78.8403 351.498 78.8403C358.572 78.8403 363.002 81.9314 365.647 86.0742ZM275.175 55.4496V75.0162H269.535C267.559 63.8626 265.264 62.6516 253.728 62.6197H244.901V124.219H259.974V131.39H217.623V124.219H232.696V62.6197H223.837C212.333 62.6516 210.07 63.8626 208.062 75.0162H202.422V55.4496H275.175ZM88.1133 175.908C39.4836 175.908 0.15918 136.616 0.15918 87.9862C0.15918 39.3565 39.4836 0.0639648 88.1133 0.0639648C136.743 0.0639648 176.067 39.3565 176.067 87.9862C176.067 136.616 136.743 175.908 88.1133 175.908ZM166.539 87.9862C166.539 44.6146 131.485 9.56046 88.1133 9.56046C44.7417 9.56046 9.65567 44.6146 9.65567 87.9862C9.65567 131.358 44.7417 166.412 88.1133 166.412C131.485 166.412 166.539 131.358 166.539 87.9862ZM63.0655 136.903V128.426H81.6123V55.4496H70.4587C57.0107 55.4496 54.1426 56.9155 51.7526 70.1086H45.0923V46.941H131.134V70.1086H124.442C122.084 56.9155 119.216 55.4496 105.736 55.4496H94.6142V128.426H113.161V136.903H63.0655ZM75.9081 97.8014H66.2841C63.9259 97.8014 61.982 99.7453 61.982 102.135H55.9591C55.9591 100.128 56.5327 98.2475 57.5206 96.686H56.5327C53.5371 96.686 51.1152 99.1398 51.1152 102.135H45.0923C45.0923 99.1398 46.3351 96.4629 48.3427 94.5828C46.3351 92.7345 45.0923 90.0257 45.0923 87.0621H51.1152C51.1152 90.0576 53.5371 92.5114 56.5327 92.5114H57.5206C56.5327 90.918 55.9591 89.0697 55.9591 87.0621H61.982C61.982 89.4521 63.9259 91.396 66.2841 91.396H75.9081V97.8014ZM131.134 91.8103V97.3552C127.47 97.3552 124.378 99.6816 123.231 102.932H118.61V97.8014H100.287V91.3642H118.61V86.2016H123.231C124.378 89.484 127.47 91.8103 131.134 91.8103ZM166.539 166.412V174.921H164.978V168.005L162.587 174.921H161.313L158.923 168.101V174.921H157.361V166.412H159.847L162.014 172.722L164.053 166.412H166.539ZM149.171 166.412H156.118V167.782H153.473V174.921H151.784V167.782H149.171V166.412Z" fill="#00205B"/>
</g>
<defs>
<clipPath id="clip0_2_2421">
<rect width="500" height="175.908" fill="white"/>
</clipPath>
</defs>
</svg>
