<?xml version="1.0" encoding="utf-8"?>
<!-- Generator: Adobe Illustrator 16.0.0, SVG Export Plug-In . SVG Version: 6.00 Build 0)  -->
<!DOCTYPE svg PUBLIC "-//W3C//DTD SVG 1.1//EN" "http://www.w3.org/Graphics/SVG/1.1/DTD/svg11.dtd">
<svg version="1.1" id="Layer_1" xmlns="http://www.w3.org/2000/svg" xmlns:xlink="http://www.w3.org/1999/xlink" x="0px" y="0px"
	 width="225px" height="71px" viewBox="193.59 398.269 225 71" enable-background="new 193.59 398.269 225 71" xml:space="preserve"
	>
<path fill="#70CCE3" d="M262.745,413.503c-0.919-3.4-4.031-4.533-8.132-3.4c-4.667,1.276-6.647,4.748-5.94,7.297
	c0.707,2.553,4.101,4.535,8.839,3.33c4.102-1.133,6.293-3.542,5.374-7.083L262.745,413.503z"/>
<path fill="#E31C24" d="M256.38,451.199c-3.182,3.188-7.425,2.41-11.313-1.417c-4.384-4.393-4.313-9.565-1.98-11.975
	c2.404-2.41,7.496-2.41,11.95,1.983c3.889,3.897,4.738,8.008,1.414,11.338L256.38,451.199z"/>
<path fill="#FFD100" d="M219.258,419.881c0,5.03,3.889,7.793,9.97,7.793c6.929,0,10.96-4.11,10.96-7.863
	c0-3.757-4.031-7.796-10.96-7.796c-6.082,0-9.97,2.551-9.97,7.724V419.881z"/>
<path fill="#241F21" d="M255.107,449.64l-0.142,0.143c-0.919,0.922-1.98,1.417-3.111,1.417c-1.626,0-3.535-0.992-5.374-2.834
	c-1.697-1.7-2.758-3.685-2.97-5.527c-0.141-1.487,0.212-2.835,0.99-3.613c0.637-0.639,1.697-0.993,2.899-0.993
	c1.201,0,3.606,0.425,6.222,2.978C256.946,444.468,257.441,447.302,255.107,449.64 M221.45,419.738c0-3.685,2.616-5.525,7.778-5.525
	c5.374,0,8.697,2.905,8.697,5.598c0,2.267-2.758,5.668-8.697,5.668l0,0c-2.899,0-7.778-0.71-7.778-5.526V419.738z M257.017,419.172
	c-0.849,0.214-1.626,0.354-2.333,0.354c-2.616,0-4.172-1.345-4.526-2.55c-0.212-0.851,0.071-1.914,0.708-2.834
	c0.848-1.205,2.333-2.127,4.171-2.623c0.849-0.211,1.697-0.354,2.475-0.354c2.051,0,3.323,0.85,3.818,2.692v0.071
	C261.966,416.551,260.552,418.251,257.017,419.172 M280.209,408.897c-0.283-1.133-0.707-1.984-0.707-1.984l-11.95,3.686v-8.362
	c0-2.267-1.274-3.968-4.173-3.968h-1.626v11.054c-1.131-0.779-2.617-1.204-4.243-1.204c-0.99,0-2.122,0.142-3.253,0.496
	c-3.182,0.851-4.95,2.479-5.869,3.756c-1.272,1.7-1.697,3.684-1.202,5.454c0.778,2.905,3.819,4.82,7.566,4.82
	c1.061,0,2.122-0.143,3.182-0.425c1.556-0.425,2.829-0.993,3.89-1.701v14.313c0,2.977-0.637,5.882-1.839,8.432
	c-0.637-1.629-1.768-3.26-3.394-4.889c-2.688-2.692-5.94-4.181-9.051-4.181c-2.263,0-4.313,0.78-5.728,2.196
	c-1.626,1.631-2.475,4.181-2.122,6.873c0.213,1.984,1.132,4.961,4.102,7.937c1.273,1.274,2.616,2.268,4.03,2.977
	c-1.98,0.636-4.101,0.991-6.364,0.991c-11.243,0-20.364-9.14-20.364-20.407v-7.086c2.05,1.418,4.878,2.198,8.201,2.198l0,0
	c8.203,0,13.153-5.173,13.153-10.134c0-4.959-4.95-10.062-13.153-10.062c-3.394,0-6.151,0.709-8.201,2.127v-3.614
	c0-2.268-1.273-3.968-4.172-3.968h-1.626v13.25l-18.739-0.709c-1.627,0-2.97,1.347-2.97,2.976c0,1.63,0.283,2.977,0.283,2.977
	l21.426-0.709v12.754c0,14.455,11.737,26.217,26.162,26.217c6.152,0,11.879-2.124,16.334-5.738l13.081,14.03
	c0,0,0.991-0.71,2.051-1.772c1.061-1.063,1.061-2.765,0-3.827l-12.233-11.195c4.242-4.675,6.859-10.84,6.859-17.643v-20.832
	l11.171-2.551C279.856,411.165,280.492,410.032,280.209,408.897"/>
<path fill="#241F21" d="M296.19,449.924c-0.99,1.7-1.556,3.329-2.051,5.243h4.171C297.746,453.253,297.11,451.554,296.19,449.924
	 M300.079,458.992c-0.566,0-0.849-0.282-0.99-0.708c-0.142-0.708-0.354-1.487-0.496-1.983h-4.808
	c-0.212,0.779-0.495,1.914-0.637,2.763h-0.565c-0.424,0-0.637-0.211-0.637-0.638c0-1.416,2.051-7.722,3.606-9.636h0.424
	c0.566,0,0.99,0.354,1.415,1.134c0.918,1.558,2.545,5.81,3.04,9.14h-0.354V458.992z"/>
<path fill="#241F21" d="M305.312,459.063c-1.555,0-2.475-0.779-2.475-2.409v-8.573h0.424c0.566,0,0.99,0.354,0.99,1.063v7.369
	c0,0.991,0.495,1.274,1.272,1.274h0.919v0.427C306.372,458.853,306.019,459.063,305.312,459.063"/>
<path fill="#241F21" d="M311.039,459.136c-1.555,0-2.404-0.78-2.404-2.411v-5.81h0.425c0.495,0,0.919,0.355,0.919,1.063v4.536
	c0,0.991,0.495,1.346,1.273,1.346h0.565v0.425C311.889,458.781,311.534,459.136,311.039,459.136 M309.342,449.782
	c-0.494,0-0.918-0.426-0.918-0.921c0-0.496,0.424-0.922,0.918-0.922c0.495,0,0.92,0.426,0.92,0.922
	C310.262,449.356,309.908,449.782,309.342,449.782"/>
<path fill="#241F21" d="M324.898,458.992c-0.565,0-0.919-0.353-0.919-0.991v-3.613c0-1.701-0.637-2.339-1.768-2.339
	c-1.344,0-1.91,0.709-1.91,2.339v4.676h-0.494c-0.637,0-0.919-0.354-0.919-0.991v-3.613c0-1.487-0.637-2.339-1.839-2.339
	s-1.839,0.708-1.839,2.339v4.604h-0.424c-0.565,0-0.99-0.354-0.99-0.991v-3.757c0-1.842,1.202-3.472,3.324-3.472
	c1.202,0,2.05,0.496,2.545,1.489c0.565-0.852,1.485-1.489,2.546-1.489c1.979,0,3.11,1.205,3.11,3.615v4.677h-0.424V458.992z"/>
<path fill="#241F21" d="M331.757,451.978c-1.343,0-2.191,1.134-2.191,2.198v0.354h1.839c1.979,0,2.263-0.214,2.263-0.852
	C333.596,452.758,333.03,451.978,331.757,451.978 M331.475,455.592h-1.98c0.142,1.347,1.061,2.339,2.617,2.339
	c1.271,0,1.979-0.426,2.474-0.852h0.071v0.639c0,0.85-0.919,1.488-2.758,1.488c-2.191,0-3.817-1.701-3.817-4.039
	c0-2.622,1.626-4.394,3.817-4.394c1.556,0,3.041,1.204,3.041,2.834C334.939,455.025,334.303,455.592,331.475,455.592"/>
<path fill="#241F21" d="M343.849,458.992c-0.566,0-0.848-0.282-0.848-0.92v-3.757c0-1.699-0.637-2.338-2.052-2.338
	c-1.202,0-1.908,0.709-1.908,2.338v4.606h-0.565c-0.495,0-0.85-0.282-0.85-0.921v-3.686c0-2.267,1.344-3.611,3.465-3.611
	c2.052,0,3.254,1.204,3.254,3.611v4.677H343.849L343.849,458.992z"/>
<path fill="#241F21" d="M348.799,450.915h2.758v0.425c0,0.497-0.354,0.852-1.061,0.852h-1.697v4.038c0,1.134,0.424,1.63,1.344,1.63
	c0.495,0,0.99-0.071,1.271-0.212h0.071v0.495c0,0.71-0.495,1.063-1.484,1.063c-1.839,0-2.617-0.922-2.617-2.834v-5.314
	c0-0.496,0.142-0.92,0.354-1.275c0.211-0.283,0.637-0.567,0.848-0.567h0.142v1.7H348.799z"/>
<path fill="#241F21" d="M356.152,459.206c-1.344,0-2.476-0.639-2.476-1.63v-0.566h0.071c0.424,0.495,1.344,0.921,2.404,0.921
	c1.202,0,1.697-0.354,1.697-1.206c0-0.637-0.282-0.919-2.121-1.344c-1.486-0.355-2.191-0.852-2.191-2.057
	c0-1.347,1.202-2.551,3.181-2.551c1.202,0,2.334,0.566,2.334,1.56v0.639h-0.071c-0.353-0.427-1.202-0.852-2.191-0.852
	c-1.415,0-1.91,0.496-1.91,1.133c0,0.567,0.284,0.781,1.98,1.135c1.627,0.354,2.404,1.063,2.404,2.195
	C359.264,458.284,357.991,459.206,356.152,459.206"/>
<path fill="#241F21" d="M367.04,453.467c0.637,0,1.132,0.496,1.132,1.134s-0.495,1.133-1.132,1.133
	c-0.636,0-1.131-0.495-1.131-1.133S366.404,453.467,367.04,453.467"/>
<path fill="#241F21" d="M380.335,449.994h-3.889v2.978h4.03v0.424c0,0.496-0.353,0.78-0.849,0.78h-3.111v4.816h-0.566
	c-0.564,0-0.848-0.211-0.848-0.85v-8.219c0-0.922,0.354-1.276,1.484-1.276h4.598v0.567
	C381.185,449.569,380.972,449.994,380.335,449.994"/>
<path fill="#241F21" d="M386.488,452.049c-1.273,0-2.193,1.063-2.193,2.763c0,1.843,0.92,3.048,2.475,3.048
	c1.345,0,2.121-1.135,2.121-2.764C388.891,453.111,388.043,452.049,386.488,452.049 M386.699,459.206
	c-2.121,0-3.747-1.63-3.747-4.039c0-2.693,1.484-4.323,3.747-4.323c2.122,0,3.606,1.63,3.606,4.04
	C390.306,457.505,388.891,459.206,386.699,459.206"/>
<path fill="#241F21" d="M396.386,452.049c-1.271,0-2.191,1.063-2.191,2.763c0,1.843,0.92,3.048,2.476,3.048
	c1.344,0,2.12-1.135,2.12-2.764C398.79,453.111,397.942,452.049,396.386,452.049 M396.599,459.206c-2.121,0-3.747-1.63-3.747-4.039
	c0-2.693,1.484-4.323,3.747-4.323c2.121,0,3.606,1.63,3.606,4.04C400.205,457.505,398.79,459.206,396.599,459.206"/>
<path fill="#241F21" d="M406.285,452.049c-1.413,0-2.191,1.063-2.191,2.905c0,1.629,0.989,2.905,2.476,2.905
	c1.484,0,2.12-0.779,2.12-2.764C408.689,453.609,408.266,452.049,406.285,452.049 M406.428,459.206c-2.051,0-3.678-1.843-3.678-4.11
	c0-2.763,1.273-4.322,3.535-4.322c0.991,0,1.91,0.426,2.404,1.56v-4.252h0.355c0.705,0,1.06,0.355,1.06,1.134v5.527
	C410.104,457.859,408.974,459.206,406.428,459.206"/>
<path fill="#241F21" d="M415.338,459.206c-1.345,0-2.476-0.639-2.476-1.63v-0.566h0.071c0.424,0.495,1.342,0.921,2.404,0.921
	c1.202,0,1.696-0.354,1.696-1.206c0-0.637-0.283-0.919-2.122-1.344c-1.484-0.355-2.263-0.852-2.263-2.057
	c0-1.347,1.202-2.551,3.183-2.551c1.202,0,2.334,0.566,2.334,1.56v0.639h-0.071c-0.354-0.427-1.202-0.852-2.191-0.852
	c-1.344,0-1.91,0.496-1.91,1.133c0,0.567,0.284,0.781,1.98,1.135c1.626,0.354,2.403,1.063,2.403,2.195
	C418.519,458.284,417.246,459.206,415.338,459.206"/>
<path fill="#241F21" d="M393.841,440.217c-3.111,0-4.385-1.489-4.385-4.181v-8.929c0-3.825-1.696-5.455-4.241-5.455
	c-2.334,0-3.889,1.63-3.889,4.817v13.818h-1.557c-2.546,0-4.173-1.489-4.173-4.182v-8.928c0-3.826-1.769-5.455-4.313-5.455
	c-2.262,0-3.889,1.771-3.889,4.959v13.675h-1.557c-2.333,0-4.17-1.559-4.17-4.18v-8.999c0-6.307,3.322-10.558,10.323-10.558
	c2.969,0,5.373,1.347,7,3.613c1.344-2.125,3.89-3.613,6.647-3.613c5.304,0,9.616,3.189,9.616,9.778v13.889h-1.414V440.217z"/>
<path fill="#241F21" d="M412.934,430.083h-2.052c-4.384,0-5.586,1.063-5.586,2.905c0,1.771,1.484,2.906,3.96,2.906
	c2.475,0,3.678-1.205,3.678-3.544V430.083L412.934,430.083z M409.821,440.642h-1.132c-5.515,0-9.263-3.118-9.263-7.369
	c0-4.109,3.041-7.228,11.525-7.228h1.981v-0.283c0-3.26-1.556-4.252-4.951-4.252c-4.171,0-6.504,1.559-7.354,2.692h-0.213v-1.982
	c0-2.553,2.334-5.669,8.416-5.669c5.161,0,9.758,2.408,9.758,10.416v5.313C418.59,437.24,414.983,440.642,409.821,440.642"/>
<path fill="#241F21" d="M351.98,417.543h-1.627v19.06c0,2.196,1.273,3.896,4.102,3.896h1.626v-19.06
	C356.081,419.172,354.809,417.543,351.98,417.543"/>
<path fill="#241F21" d="M343.425,422.645c2.333,0,3.465-1.56,3.465-2.764v-2.338h-7.99v-6.732h-1.626
	c-2.828,0-4.102,1.701-4.102,3.898v17.217c0,5.387,2.828,8.573,8.697,8.573c3.323,0,5.091-1.487,5.091-3.896v-2.056h-0.213
	c-0.918,0.567-2.333,0.851-4.17,0.851c-2.334,0-3.678-1.204-3.678-4.18v-8.573H343.425L343.425,422.645z"/>
<path fill="#241F21" d="M323.414,410.811h-1.626v25.792c0,2.196,1.271,3.896,4.102,3.896h1.626v-25.79
	C327.516,412.441,326.242,410.811,323.414,410.811"/>
<path fill="#241F21" d="M311.889,410.811h-1.697v16.51c0,5.172-1.697,7.936-5.869,7.936c-4.526,0-6.364-2.692-6.364-8.148v-12.257
	c0-2.27-1.273-4.04-4.243-4.04h-1.697v16.652c0,8.502,4.596,13.25,11.738,13.25c8.414,0,12.374-5.173,12.374-13.817v-12.116
	C316.13,412.512,314.858,410.811,311.889,410.811"/>
<path fill="#241F21" d="M353.183,415.346c-1.839,0-3.323-1.56-3.323-3.402c0-1.841,1.484-3.329,3.323-3.329s3.394,1.488,3.394,3.329
	C356.576,413.857,355.021,415.346,353.183,415.346"/>
</svg>
