<svg xmlns="http://www.w3.org/2000/svg" width="210.918" height="47.981" viewBox="0 0 210.918 47.981"><defs><clipPath id="clip-path"><path id="長方形_155903" data-name="長方形 155903" fill="none" d="M0 0h210.918v47.982H0z"/></clipPath><style>.cls-2{clip-path:url(#clip-path)}.cls-3{fill:#fa0014}.cls-4{fill:#0042bc}</style></defs><g id="グループ_143097" data-name="グループ 143097" transform="translate(-3259 -20528)"><g id="グループ_143026" data-name="グループ 143026" transform="translate(3259 20528)"><g id="グループ_143023" data-name="グループ 143023"><g id="グループ_143022" data-name="グループ 143022" class="cls-2"><path id="パス_399356" data-name="パス 399356" class="cls-3" d="M187 45.915v10.773a1.625 1.625 0 01-.248 1.14 5.055 5.055 0 01-4.258 1.941c-2.327 0-3.689-1.092-3.689-4.537v-13.66c0-2.232-1.362-3.13-4.432-3.13a17.256 17.256 0 00-5.967 1.14c-.471.194-.421.461-.149.8.941 1.189 1.09 2.16 1.09 5.532v10.36c0 6.5 3.392 10.578 9.606 10.578 4.258 0 6.635-1.14 8.269-3.348.174-.242.322-.218.322.049v1.941c0 .728.247.971.99.971h6.932c.743 0 .99-.243.99-.971V41.572c0-2.232-1.362-3.13-4.432-3.13a17.258 17.258 0 00-5.967 1.14c-.47.194-.421.461-.148.8.941 1.189 1.089 2.16 1.089 5.532" transform="translate(-110.992 -25.389)"/><path id="パス_399357" data-name="パス 399357" class="cls-3" d="M560.911 46.933c0-1.286 1.139-1.965 3.293-1.965a23.279 23.279 0 015.6.946c.842.218 1.51.073 1.782-.51a14.382 14.382 0 001.411-5.556c.025-.509-.223-.582-.718-.558a18.167 18.167 0 01-3.491-.315 32.27 32.27 0 00-5.546-.461c-7.353 0-11.834 3.494-11.834 8.419 0 4.683 3.144 7.012 8.368 8.3 4.159 1.019 5.125 1.577 5.125 3.081 0 1.456-1.065 2.062-3.491 2.062a15.189 15.189 0 01-7.625-2.16c-.5-.315-.817-.267-1.065.17a28.518 28.518 0 00-2.179 4.926c-.272.776.05 1.164.817 1.528a26.808 26.808 0 0010.89 2.06c7.6 0 12.206-3.543 12.206-8.638 0-4.634-3.169-7.012-8.343-8.249-4.209-1.019-5.2-1.5-5.2-3.081" transform="translate(-363.535 -25.436)"/><path id="パス_399358" data-name="パス 399358" class="cls-3" d="M473.14 38.371c-10.027 0-14.36 6.066-14.36 14.218 0 8.128 4.333 14.218 14.36 14.218s14.36-6.066 14.36-14.194c0-8.395-4.333-14.242-14.359-14.242m.012 21.351c-3.342 0-4.828-2.378-4.828-7.133s1.486-7.133 4.828-7.133c3.317 0 4.8 2.378 4.8 7.133s-1.486 7.133-4.8 7.133" transform="translate(-302.998 -25.342)"/><path id="パス_399359" data-name="パス 399359" class="cls-3" d="M418.148 0c-3.516 0-5.521 1.965-5.521 5s2.005 5 5.521 5 5.521-1.965 5.521-5-2.005-5-5.521-5" transform="translate(-272.517)"/><path id="パス_399360" data-name="パス 399360" class="cls-3" d="M413.608 45.915v19.58c0 .728.248.971.99.971h7.774c.743 0 .99-.243.99-.971V41.572c0-2.232-1.362-3.13-4.729-3.13a17.258 17.258 0 00-5.967 1.14c-.47.194-.421.461-.148.8.941 1.189 1.089 2.16 1.089 5.532" transform="translate(-272.309 -25.389)"/><path id="パス_399361" data-name="パス 399361" class="cls-3" d="M266.252 45.915v19.58c0 .728.248.971.99.971h7.453c.742 0 .99-.243.99-.971V48.851a1.874 1.874 0 01.2-1.14 4.731 4.731 0 013.936-2.16c2.674 0 3.912 1.213 3.912 4.61v15.334c0 .728.248.971.991.971h7.452c.743 0 .99-.243.99-.971V48.851a1.882 1.882 0 01.2-1.14 4.732 4.732 0 013.937-2.16c2.674 0 3.912 1.189 3.912 4.586v15.358c0 .728.248.971.991.971h7.452c.743 0 .991-.243.991-.971V47.977c0-6.769-4.036-9.535-10.126-9.535a12.21 12.21 0 00-8.467 3.542c-.3.291-.4.315-.619-.024-.867-1.383-3.07-3.518-7.427-3.518a10.233 10.233 0 00-8.1 3.639c-.223.243-.322.218-.322-.049 0-2.693-1.238-3.591-4.308-3.591a17.258 17.258 0 00-5.967 1.14c-.47.194-.421.461-.148.8.941 1.189 1.089 2.16 1.089 5.532" transform="translate(-174.989 -25.389)"/></g></g><g id="グループ_143025" data-name="グループ 143025"><g id="グループ_143024" data-name="グループ 143024" class="cls-2"><path id="パス_399362" data-name="パス 399362" class="cls-4" d="M62.236 5.355c0-1.829 6.616-1.34 11.408.814 4.881 2.194 9.644 6.246 6.918 9.052-.961.989-3.77 1.422-6.025.055-2.417-1.465-2.933-3.633-7.38-6.329-2.688-1.63-4.922-2.138-4.922-3.591" transform="translate(-41.103 -2.793)"/><path id="パス_399363" data-name="パス 399363" class="cls-4" d="M18.441 15.477c-3.465 2.9-3.236 5.551-2.4 6.7 1.708 2.349 6.848 1.941 19.276 6.1A43.992 43.992 0 0148 34.587c5.9 4.047 7.334 2.31 8.223.348.807-1.779.607-9.664-3.864-9.423-9.059.488-13.844-.431-17.584-3.349-5.147-4.015-5.16-7.341-8.333-8.565-3.583-1.382-6.691.782-8 1.878" transform="translate(-10.248 -8.686)"/><path id="パス_399364" data-name="パス 399364" class="cls-4" d="M.085 53.043c-.356 3.058.341 6.381 3.14 7.31 3.131 1.039 8.028-.674 15.5 3.846 8.024 4.853 8.951 9.323 14.356 10.266 3.3.576 6.06-.715 8.663-3.945 1.656-2.055 3.558-5.867.147-7.484-2.283-1.082-8.655-.316-20.042-3.67C9.434 55.709 7.332 48.8 4.265 48.315c-2.346-.369-3.744 2.1-4.179 4.728" transform="translate(0 -31.885)"/><path id="パス_399365" data-name="パス 399365" class="cls-4" d="M10.96 96.892c-1.8 2.642 2.5 8.715 9.536 11.923 7.129 3.251 15.619 2.22 15.485.081-.13-2.08-3.193-.674-8.373-3.663-4.526-2.611-5.018-5.559-8.966-8.359-3.151-2.235-6.372-2.088-7.682.018" transform="translate(-6.969 -62.91)"/></g></g></g></g></svg>