<?xml version="1.0" encoding="UTF-8" standalone="no"?>
<svg xmlns:rdf="http://www.w3.org/1999/02/22-rdf-syntax-ns#" xmlns="http://www.w3.org/2000/svg" height="43.5895" width="158.885" version="1.1" xmlns:cc="http://creativecommons.org/ns#" xmlns:dc="http://purl.org/dc/elements/1.1/">
 <g fill-rule="evenodd" transform="translate(-276.83 -230.886)">
  <g fill="#231f20">
   <path d="m417.588 246.272c-0.5-0.5-0.54875-1.23875-1.025-1.73875-1.3575-1.59625-3.45375-3.04875-3.45375-5.36 0-2.12 2.0725-4.2875 4.21625-4.2875 2.2625 0 4.33625 2.14375 4.33625 4.4075 0 2.85875-3.335 4.335-4.07375 6.97875"/>
   <path d="m290.189 241.269c-0.28563 3.47875-0.40475 6.9325-0.40475 10.4342 0 1.358 0.0239 2.71587 0.0239 4.07375 0 0.80962-0.0479 1.61962-0.0479 2.40575 0 5.86037 5.812 5.55037 5.836-0.71475l0.0717-14.1265c-0.0717-1.83375-1.1435-3.45375-1.1435-5.31125 0-1.835 2.45362-2.21625 3.812-2.21625 1.90525 0 3.85887 0.64375 3.85887 2.85875 0 0.33375-0.0479 0.62-0.14312 0.9525-0.95313 0.78625-1.0005 1.835-1.11963 3.02625l-0.0713 0.52375v0.16625l-0.0239 1.64375c-0.0714 4.05 0.0473 8.09987-0.14313 12.1492l-0.0953 2.33487c-0.26212 5.8125-2.57275 10.5771-9.07612 10.5771-2.57275 0-4.90725-0.73875-6.71725-2.59663-2.45413-3.52587-2.71588-7.4565-2.71588-11.6968 0-1.31062 0.024-2.59675 0.024-3.90675v-0.85787c-0.0479-0.5-0.0958-1.0005-0.0958-1.50075 0-1.54875 0.19038-3.0975 0.19038-4.645 0-2.00125-0.3335-3.57375-1.28613-5.36-0.28612-1.09625 0.11913-2.12 0.8575-2.9775 1.3105-0.64375 2.71575-0.73875 4.16888-0.73875 2.1675 0 5.26462-0.28625 5.26462 2.69125 0 1.0725-0.40475 1.9775-1.02437 2.81125"/>
   <path d="m379.616 251.513c0.23875 0.833 0.9775 1.167 1.43 1.834 1.19 1.85788 1.59625 4.478 1.59625 6.66988 0 3.002-0.8575 7.00387-3.52625 8.76662-2.025 1.334-4.43125 1.144-6.76625 1.144h-1.0475l-7.885-0.0718c-0.92875 0-1.525-1.33399-1.525-2.09662 0-1.54838 1.81125-2.45313 1.93-3.71588l0.28625-2.95412-0.0713-19.105c-1.025-1.90625-3.02625-4.05-0.33375-5.7175h12.72c4.43125 0 5.765 5.5275 5.765 9.005 0 2.45375-0.81 4.57337-2.5725 6.24137"/>
   <path d="m342.668 237.196 0.1675 1.31125v26.0366c0.095 1.09625 1.31 1.81051 1.31 2.90675 0 1.81001-2.4775 2.4775-3.9075 2.4775-1.42875 0-2.835-0.28662-4.24-0.54825-0.715-0.61924-0.8575-1.38187-0.9525-2.28662 0.095-0.834 0.83375-1.28663 1.1675-2.0015 0.2375-3.93063 0.38125-7.86138 0.35625-11.7681v-4.43012c-0.0238-1.835 0.31-3.9075-0.4525-5.59875-0.3325-0.7625-0.8575-1.5725-0.8575-2.43 0-1.92875 4.55-3.9775 6.075-4.57375 0.57125 0.0475 1.0725 0.405 1.33375 0.905"/>
   <path d="m333.878 255.182c-0.69125 0.52388-1.38125 0.9765-2.26375 0.9765-1.02375 0-1.7625-0.71437-2.23875-1.52437-0.73875-1.40575-0.0238-3.1685-1.33375-4.28813-0.095-0.0239-0.19125-0.0479-0.31-0.0479-1.5725 0-1.33375 3.8355-1.33375 4.43112 0 3.40625 0.405 6.09825 3.025 8.481 1.62 0.26125 2.45375-1.38187 3.7875-1.38187 1.23875 0 1.5725 1.45312 1.5725 2.42975 0 3.52587-3.45375 5.83637-6.765 5.83637-6.0985 0-8.14737-7.88525-8.14737-12.7211 0-3.59675 0.73825-7.38475 3.12062-10.1962 1.38137-1.64375 3.3105-2.95375 5.503-2.95375 3.955 0 6.43125 3.47875 6.43125 7.171 0 1.38137-0.405 2.59662-1.0475 3.78762"/>
   <path d="m319.823 267.378c-0.0244 0.85738-0.31 1.59613-1.04875 2.07275-1.21438 0.21438-2.42925 0.38088-3.668 0.38088-1.04838 0-2.04888-0.1665-3.04988-0.45263-0.35687-0.30962-0.76162-0.691-0.76162-1.1915 0-1.07175 0.71425-1.977 0.76162-3.02487 0.11925-2.62063 0.191-5.24075 0.191-7.86125 0-1.57288-0.0718-3.12063-0.191-4.669-0.23775-0.52438-0.57175-1.19138-1.21475-1.23875-0.5235-0.0718-0.90487 0.59525-1.11962 0.95212-0.1905 2.21625-0.333 4.40725-0.333 6.623 0 1.35801 0.0239 2.71588 0.0472 4.07375l0.0719 2.59676c0.54774 1.02437 1.09562 2.19137 0.33349 3.23924-1.04837 0.834-2.14412 1.0005-3.45462 1.0005-2.001 0-3.69187 0.26213-4.8355-1.5245-0.0956-0.23775-0.19088-0.4765-0.19088-0.73875 0-1.04787 1.09575-1.78612 1.21538-2.8105 0.26162-2.40625 0.3335-4.836 0.3335-7.24175 0-0.76262 0-1.52487-0.0245-2.26362v-1.334l-0.0234-1.3335c-0.14312-1.38188-1.40575-2.45363-1.40575-3.85975 0-1.83375 4.57413-4.35875 5.93163-4.35875 0.61962 0 1.28662 0.1425 1.477 0.81 0.23825 0.595 0.0717 1.23875 0.78612 1.52375 1.62013-1.11875 3.09725-2.47625 5.16951-2.47625 0.42862 0 0.88137 0.095 1.26262 0.3325l0.8335 0.5725c1.78712 1.21375 1.92975 5.21675 1.92975 7.00287 0 1.07225-0.0953 2.144-0.0474 3.21625l0.0474 1.04838v0.76225c0 1.71487-0.1905 3.38275-0.1905 5.09812 0 1.88188 0.28575 3.38238 1.1675 5.07375"/>
   <path d="m351.292 259.112c-0.28625 0.21437-0.5475 0.57225-0.47625 0.92962l0.19 0.90488 0.0713 0.35737c0.19125 1.02438 0.9525 2.02538 1.81125 2.59675 0.30875 0.19088 0.6425 0.40525 1 0.40525 1.50125 0 2.0725-2.12062 3.45375-2.21587 1.09625-0.0712 1.62 1.334 1.62 2.19187 0 3.54938-3.54875 5.8125-6.83625 5.8125-6.3375 0-8.26625-7.623-8.26625-12.6732 0-4.95512 2.025-13.0541 8.48-13.0541 5.59875 0 7.0275 7.47987 7.0275 11.7914 0 0.81013-0.0712 2.95363-1.405 2.95363h-6.67"/>
   <path d="m397.601 259.16c-2.31 0.19088-4.62125 0.0244-6.9325 0.23825-0.1425 0.167-0.285 0.35738-0.285 0.59575v0.26163c0 0.5005 0.2625 0.95312 0.285 1.45362 0.5725 1.09575 1.40625 2.6675 2.83625 2.6675 1.81 0 2.1675-2.73925 4.09625-1.92912 0.90625 0.61912 0.76375 1.66737 0.90625 2.644-0.90625 3.19237-3.62125 5.05025-6.90875 5.05025-5.86 0-8.14625-7.09863-8.14625-11.9819 0-4.76462 1.69-13.6741 8.09875-13.6741 5.765 0 7.385 6.93237 7.385 11.53 0 1.191-0.0238 2.6675-1.335 3.14412"/>
   <path d="m406.392 245.438c0.1425 0.5725 0.0712 1.23875 0.69 1.525 1.43-1.0725 3.0975-2.3825 4.955-2.3825 0.59625 0 1.19125 0.1675 1.73875 0.3575 2.04875 1.7625 2.645 3.88375 2.645 6.50337 0 1.69138-0.215 3.38275-0.215 5.05025v9.00438c0.3575 0.73875 1 1.501 1.025 2.35887 0.0238 0.26225-0.0475 0.5-0.11875 0.76225-0.78625 0.9765-1.81125 1.477-3.07375 1.477-1.54875 0-3.025-0.38125-4.52625-0.5005-0.69-0.52387-0.905-1.19087-0.905-2.02437 0-0.6675 0.3575-1.1675 0.6675-1.73925l0.095-0.19038c0.11875-2.04937 0.23875-4.07375 0.26125-6.12262v-3.04925c0.0238-1.57188 0.35875-3.62063-0.97625-4.812-0.095-0.0235-0.21375-0.0474-0.33375-0.0474-0.5 0.0239-0.83375 0.54775-1.02375 0.95263-0.33375 2.12062-0.5 4.21675-0.5 6.36037 0 1.33388 0.0238 2.66838 0.0475 4.00238l0.0238 0.834v0.85737c-0.0238 0.14263-0.0475 0.30963-0.0475 0.45263 0 0.95275 1.12 1.59625 1.12 2.525 0 0.23825-0.0962 0.45262-0.1675 0.667-0.57125 1.40575-1.59625 1.73925-3.025 1.73925-0.81 0-1.59625-0.0714-2.40625-0.0714-0.31 0-0.62 0.0235-0.9525 0.0714-1.215-0.21438-2.5025-0.78613-2.5025-2.26325 0-0.40475 0.19125-0.73875 0.42875-1.04838 0.81125-0.71425 0.9775-1.57225 0.9775-2.644 0-0.57225-0.095-1.1675-0.0475-1.73875l0.0238-0.40525v-9.9575c-0.38125-0.858-1.405-1.57237-1.31-2.59637 0.21375-2.50125 4.00125-4.8125 6.3125-4.8125 0.5 0 0.8575 0.52375 1.12 0.905"/>
   <path d="m428.046 245.009c0.1425 0 0.285-0.0238 0.42875-0.0238 1.835 0 2.23875 4.38375 2.23875 5.7175 0 0.64312-0.0937 1.28625-0.16625 1.92975-0.215 0.28562-0.62 0.54787-0.9775 0.54787-0.19 0-0.38125-0.0479-0.57125-0.11912-1.0475-0.8575-1.9525-3.02538-3.45375-3.02538-0.2625 0-0.5 0.0951-0.7625 0.1665-0.285 0.35738-0.4525 0.69088-0.4525 1.16738 0 0.191 0.0475 0.3335 0.11875 0.5 1.04875 1.358 2.54875 1.92975 3.93125 2.93025 2.33375 1.69137 3.335 4.52587 3.335 7.36125 0 3.26375-1.31 7.45612-4.97875 8.171-1.50125 0.3095-2.835-0.5005-4.28875-0.667-0.61875 0.1665-1.1425 0.8095-1.81 0.8095-0.16625 0-0.33375-0.0713-0.47625-0.1425-1.2625-1.78663-1.85875-3.71638-1.85875-5.90825 0-0.78613 0.0725-1.59625 0.12-2.38188 0.31-0.45262 0.7625-0.6675 1.31-0.6675 0.21375 0 0.42875 0.0479 0.61875 0.11963 1.50125 1.11925 2.00125 3.6685 4.12125 3.6685h0.23875c0.42875-0.23825 0.6425-0.76225 0.6425-1.23875v-0.35738c-1.5475-4.28812-7.455-2.23925-7.455-11.1485 0-3.09662 1.07125-6.67037 4.4775-7.48037 0.28625-0.0475 0.54875-0.0712 0.83375-0.0712 1.1675 0 2.215 0.69125 3.3825 0.73875 0.54875 0.0238 1.025-0.28625 1.45375-0.59625"/>
  </g>
  <g fill="#fff">
   <path d="m374.066 242.937c-0.47625-0.595-0.92875-1.0725-1.73875-0.9525-0.54875 0.57125-0.715 1.23875-0.715 2.04875 0 1.8825 0.0238 4.0025 0.52375 5.83612 0.14375 0.0239 0.28625 0.0477 0.42875 0.0477 0.42875 0 0.78625-0.21425 1.09625-0.47637 0.69-1.12 1-2.26375 1-3.57375 0-1.0475-0.21375-1.97625-0.595-2.93"/>
   <path d="m353.246 250.346c-0.28625-0.57175-0.71625-1.16762-1.3825-1.16762-0.88125 0.45325-1.00125 1.40587-1.2625 2.28725 0.0237 0.0958 0.0237 0.1905 0.0237 0.28562 0 0.54838-0.095 1.09625-0.095 1.62013 0 0.61962 0.095 1.0245 0.5 1.47712 0.42875 0 0.83375 0.0478 1.2625 0.0478 0.405 0 0.69125-0.0718 1.025-0.3335 0.0712-0.42912 0.1425-0.88175 0.1425-1.33437 0-0.97663-0.0713-1.92925-0.21375-2.88238"/>
   <path d="m392.193 254.777c0.43-0.11913 0.90625-0.38125 0.90625-0.90525 0-1.644 0.11875-3.9785-1.74-4.57475-1.095 0.57237-0.9525 1.81112-1.2375 2.85937 0 0.40488-0.0725 0.78625-0.0725 1.191 0 0.52438 0.095 0.88138 0.405 1.28663 0.21375 0.143 0.50125 0.21437 0.73875 0.21437 0.3575 0 0.6675-0.0479 1-0.0714"/>
   <path d="m374.423 263.21c0.38125-0.90525 0.6425-1.835 0.6425-2.835 0-1.57225-0.2375-4.90762-2.54875-4.90762-0.405 0-0.61875 0.28612-0.81 0.61962l-0.0475 6.16988c-0.0238 0.76225 0.23875 1.71537 1.1675 1.71537 0.6425 0 1.1425-0.334 1.59625-0.76225"/>
  </g>
 </g>
</svg>
