<?xml version="1.0" encoding="UTF-8" standalone="no"?>
<svg
   id="uno-x-logo"
   width="228.96272"
   height="124.75607"
   viewBox="0 0 228.96271 124.75608"
   version="1.1"
   sodipodi:docname="Uno X.svg"
   inkscape:version="1.4 (86a8ad7, 2024-10-11)"
   xmlns:inkscape="http://www.inkscape.org/namespaces/inkscape"
   xmlns:sodipodi="http://sodipodi.sourceforge.net/DTD/sodipodi-0.dtd"
   xmlns="http://www.w3.org/2000/svg"
   xmlns:svg="http://www.w3.org/2000/svg">
  <sodipodi:namedview
     id="namedview1"
     pagecolor="#ffffff"
     bordercolor="#000000"
     borderopacity="0.25"
     inkscape:showpageshadow="2"
     inkscape:pageopacity="0.0"
     inkscape:pagecheckerboard="0"
     inkscape:deskcolor="#d1d1d1"
     inkscape:zoom="1.8711288"
     inkscape:cx="63.865194"
     inkscape:cy="21.110252"
     inkscape:window-width="1920"
     inkscape:window-height="1001"
     inkscape:window-x="-9"
     inkscape:window-y="-9"
     inkscape:window-maximized="1"
     inkscape:current-layer="uno-x-logo" />
  <defs
     id="defs1">
    <clipPath
       id="clip-path">
      <rect
         id="Rectangle_484"
         data-name="Rectangle 484"
         width="96"
         height="52.307999"
         fill="none"
         x="0"
         y="0" />
    </clipPath>
  </defs>
  <rect
     id="Rectangle_482"
     data-name="Rectangle 482"
     width="228.96272"
     height="124.75607"
     fill="#ffbd00"
     x="0"
     y="0"
     style="stroke-width:2.38504" />
  <g
     id="Group_616"
     data-name="Group 616"
     transform="scale(2.3850283)">
    <g
       id="Group_615"
       data-name="Group 615"
       clip-path="url(#clip-path)">
      <path
         id="Path_28112"
         data-name="Path 28112"
         d="m 199.972,385.188 -1.31,8.389 c -0.3,1.919 -0.674,3.819 -2.364,5.263 a 7.961,7.961 0 0 1 -5.139,1.662 6.057,6.057 0 0 1 -4.62,-1.662 c -1.238,-1.444 -1.02,-3.344 -0.72,-5.263 l 1.31,-8.389 h 3.825 l -1.227,7.855 c -0.3,1.939 -0.5,4.056 1.962,4.056 2.462,0 2.926,-2.117 3.229,-4.056 l 1.227,-7.855 z"
         transform="translate(-176.988,-367.094)" />
      <path
         id="Path_28113"
         data-name="Path 28113"
         d="m 501.193,481.186 h 0.039 a 4.082,4.082 0 0 1 3.457,-1.642 c 2.693,0 3.5,1.721 3.108,4.214 l -0.979,6.272 h -3.552 l 0.772,-4.947 c 0.151,-0.97 0.573,-2.671 -1.183,-2.671 -1.444,0 -2.024,1.088 -2.222,2.354 l -0.822,5.263 h -3.551 l 1.585,-10.15 h 3.555 z"
         transform="translate(-473.267,-457.018)" />
      <path
         id="Path_28114"
         data-name="Path 28114"
         d="m 786.275,484.965 c -0.538,3.443 -3.654,5.4 -6.874,5.4 -3.2,0 -5.728,-1.939 -5.187,-5.4 0.541,-3.461 3.657,-5.421 6.877,-5.421 3.22,0 5.725,1.959 5.184,5.421 m -8.314,0 a 1.812,1.812 0 0 0 1.928,2.275 2.6,2.6 0 0 0 2.639,-2.275 1.839,1.839 0 0 0 -1.925,-2.3 2.647,2.647 0 0 0 -2.642,2.3"
         transform="translate(-738.272,-457.018)" />
      <rect
         id="Rectangle_483"
         data-name="Rectangle 483"
         width="34.396"
         height="34.872002"
         transform="translate(53.005,8.718)"
         fill="#db002a"
         x="0"
         y="0" />
      <path
         id="Path_28115"
         data-name="Path 28115"
         d="m 1263.833,261.06 -0.934,2.738 -1.336,3.749 -0.133,0.327 a 7.858,7.858 0 0 1 -1.738,2.97 3.448,3.448 0 0 1 -3.691,0.511 c -1.715,-1.078 -1.743,-3.265 -1.771,-5.58 v -0.344 c 0,0 0,-0.343 0,-0.342 l -0.01,-0.516 h -6.932 l -0.023,0.844 a 23.479,23.479 0 0 0 0.294,4.959 8.7,8.7 0 0 0 3.85,6.33 l -5.879,11 -0.621,1.2 h 7.691 l 0.238,-0.387 4.826,-8.951 c 2.694,1.431 3.09,4.97 3.441,8.119 l 0.059,0.522 c 0,0 0.085,0.7 0.084,0.7 h 7.1 l -0.034,-0.828 a 21.847,21.847 0 0 0 -2.122,-9.431 10.453,10.453 0 0 0 -2.076,-2.65 7.424,7.424 0 0 0 1.876,-1.976 34.947,34.947 0 0 0 3.109,-7.312 c 0,0 0.8,-2.39 1.914,-5.652 z"
         transform="translate(-1187.224,-248.797)"
         fill="#ffffff" />
    </g>
  </g>
</svg>
