<?xml version="1.0" encoding="UTF-8"?>
<svg width="600" height="290" version="1.1" xmlns="http://www.w3.org/2000/svg">
 <path d="m579.38 264.54h-5.9485l0.0754-27.935h-10.617v-5.4214h27.107v5.4214h-10.617zm-18.674 0.0754h-7.078l-11.37-15.06-5.1955 5.3461v9.7134h-5.8732v-33.432h-0.0754 5.8732v16.791l15.888-16.791h7.2286l-13.93 14.382zm-64.003-33.432h14.909c4.2167 0 7.4545 1.2048 9.6381 3.3131 1.7319 1.8072 2.786 4.292 2.786 7.2286v0.0754c0 5.4968-3.3131 8.8098-7.9062 10.09l9.0357 12.65h-6.9274l-8.2074-11.671h-7.3792v11.671h-5.8732l-0.0754-33.357zm14.457 16.565c4.2167 0 6.8521-2.1836 6.8521-5.572v-0.0754c0-3.6143-2.5601-5.4968-6.9274-5.4968h-8.5086v11.219h8.584zm-40.284-16.791h5.4214l14.683 33.658h-6.1744l-3.3884-8.0569h-15.813l-3.4637 8.0569h-6.0238zm8.358 20.33-5.798-13.328-5.7226 13.328zm-34.637 13.252v-23.945l-10.542 15.737h-0.22581l-10.391-15.587v23.869h-5.7979v-33.432h6.2497l10.165 15.813 10.165-15.813h6.2497v33.357zm-57.603-33.357h-0.0754 9.2616v25.3h16.189v8.1322h-25.375zm-6.7768 20.255h-16.038v5.2709h17.921v7.9063h-27.107v-33.432h26.881v7.831h-17.695v5.1203h16.038zm-31.851 0h-16.038v5.2709h17.996v7.9063h-27.107v-33.432h26.806v7.831h-17.695v5.1203h16.038zm-61.669-20.255h12.951c11.897 0 18.749 6.8521 18.749 16.49v0.0754c0 9.6381-7.0027 16.791-18.975 16.791h-12.725zm9.2616 8.1322v17.017h3.7649c5.572 0 9.2616-3.0872 9.2616-8.4334v-0.0754c0-5.3461-3.6896-8.5086-9.2616-8.5086zm-43.522-8.1322h15.813c5.1203 0 8.6592 1.3554 10.843 3.6143 1.9577 1.9577 2.9366 4.5178 2.9366 7.7557v0.0754c0 5.1202-2.7107 8.5086-6.8521 10.316l7.9816 11.671h-10.617l-6.7015-10.09h-4.0661v10.09h-9.3369zm15.361 16.038c3.0872 0 4.9697-1.506 4.9697-3.9908v-0.0754c0-2.6354-1.9578-3.9908-4.9697-3.9908h-6.0991v8.0568zm-56.097 0.75298v-0.0754c0-9.5628 7.7556-17.394 17.996-17.394 10.24 0 17.921 7.6804 17.921 17.243v0.0754c0 9.5628-7.7557 17.394-17.996 17.394s-17.921-7.6804-17.921-17.243zm26.429 0v-0.0754c0-4.8944-3.4637-9.0357-8.5086-9.0357-5.1202 0-8.5086 4.0661-8.5086 8.8851v0.0754c0 4.8191 3.4637 9.0357 8.584 9.0357 5.1202 0.0754 8.4333-4.0661 8.4333-8.8851zm-66.036 0v-0.0754c0-9.5628 7.7557-17.394 17.996-17.394s17.921 7.6804 17.921 17.243v0.0754c0 9.5628-7.7557 17.394-17.996 17.394-10.241 0-17.921-7.6804-17.921-17.243zm26.429 0v-0.0754c0-4.8944-3.4637-9.0357-8.5086-9.0357-5.1203 0-8.5086 4.0661-8.5086 8.8851v0.0754c0 4.8191 3.4637 9.0357 8.5839 9.0357 5.0449 0.0754 8.4333-4.0661 8.4333-8.8851zm-48.567 16.867-13.478-33.658h10.316l7.6051 21.159 7.6051-21.159h10.09l-13.554 33.658zm2.033-124.17c-1.2801-9.0357-9.4122-15.737-18.674-15.737-7.3039 0-17.846 6.5509-22.966 11.445-15.285 14.532-22.062 40.435-20.481 60.841 0.75298 9.4122 8.358 16.189 17.017 18.674 11.671 3.3131 19.954-4.819 25.978-13.779 11.37-16.641 22.062-40.661 19.126-61.443-0.45181-3.0119 0.52709 3.6896 0 0m-14.984 11.897c-1.8824 15.587-9.111 32.604-18.9 44.877-3.9155 4.9697-10.24 9.9393-12.424 1.506-0.90358-3.4637-3.0872-13.252-0.45181-16.189 1.9578-2.1836 1.7319-3.6143 3.3131-7.1533 1.2048-2.8613 2.3342-5.572 3.539-8.358 2.7107-6.325 6.1744-11.069 10.165-16.641 3.3884-4.7438 8.0569-7.9816 12.65-11.445 3.1625-2.4095 2.3342 11.521 2.1083 13.403-0.3766 3.2378 0.30121-2.1836 0 0m22.439-139.15c-2.9366-2.5602-6.0238-3.8403-9.2616-3.8403-11.521 0.0754-21.686 16.34-27.107 25.074l-0.3012 0.52709c-18.749 29.968-34.035 64.605-48.115 109.03-5.2709 16.566-10.165 34.562-15.813 58.205-1.8072 7.4545-3.9155 16.114-5.798 24.622-0.52709 2.4095-1.1295 4.8943-1.6566 7.3039l-1.1295 5.0449c-0.15041 0.75301-0.30121 1.8072-0.45177 2.8613-0.3766 2.4095-0.75298 5.3462-1.8072 6.9274-1.9577-4.3672-2.6354-9.864-3.3131-15.135-0.22581-1.8072-0.45177-3.4637-0.67765-5.0449l-0.6777-4.2167c-1.6566-10.391-3.3131-21.159-4.819-31.776-3.2378-22.966-5.1203-46.76-6.8521-67.693-0.60237-7.078-0.90357-14.231-1.2801-21.159-0.15041-3.4637-0.3012-7.0026-0.52709-10.466-0.3012-5.1955-1.6566-7.078-6.5509-8.9604-1.2801-0.52709-3.1625-1.1295-5.0449-1.1295-1.7319 0-3.2378 0.60237-4.4426 1.7318-4.0661 3.8402-3.9155 9.1863-3.7649 14.382 0 0.67769 0 1.3554 0.0754 2.033 0.15079 9.5628 0.97886 19.276 1.8072 28.613 0.15042 1.4306 0.22581 2.8613 0.3766 4.292 2.1083 25.225 4.8943 49.847 8.1321 73.189 1.8825 13.78 3.6896 24.848 5.6473 34.938 0.30121 1.6566 0.60238 3.4637 0.90358 5.4214 1.3554 8.6592 3.0872 19.352 8.5839 24.773 4.4426 4.3672 11.671 7.4545 17.243 7.4545s8.2828-12.575 9.5628-18.523c0.15042-0.8283 0.30121-1.506 0.45177-2.033 2.3342-9.6381 4.6684-19.502 6.9274-29.065 1.5813-6.6262 3.1625-13.478 4.7438-20.18 8.5839-35.691 16.942-64.53 26.354-90.734 6.2497-17.469 12.575-32.378 19.201-45.63 4.8943-9.7887 9.111-17.544 13.328-24.472 2.4848-4.0661 4.8944-7.6804 7.3039-11.069 0.1508-0.22581 0.37661-0.3766 0.67766-0.3766 0.90358 0 2.1836 1.1295 3.0119 1.7318l0.22581 0.22581c2.4095 2.033 5.0449 3.1625 7.3791 3.0872 2.9366 0 5.1956-1.8072 6.4756-5.045 4.9697-12.725 5.2709-21.159 0.9789-24.924m277.47 124.47c-3.7649-6.8521-11.37 1.3554-14.758 3.9908-8.5839 6.5509-11.671 8.7345-21.234 13.704-6.8521 3.539-16.565 5.1955-24.547 4.819-8.2827-0.3766-15.135-2.786-21.385-7.6804-1.4307-1.1295-14.156-11.219-12.801-12.876 2.7107-3.1625 7.2286-5.4967 10.391-8.4334 4.2167-3.9155 8.1322-8.2827 11.521-12.876 6.0991-8.2828 22.363-36.068 0.67769-36.67-9.111 0.3766-19.126 7.6051-25.074 14.156-3.0119 3.3884-5.4968 7.1533-8.0569 10.843-1.3554 2.033-2.7107 6.2497-4.7437 3.2378-6.4003-9.2616-13.102 0.0754-15.662 7.0027-3.6896 9.864-3.2378 21.008-7.6804 30.646-3.3131 7.2285-4.4426 18.373-12.499 20.933-4.3673 1.3554-0.90358-22.062-0.60241-24.848 1.2048-9.5628 4.6684-18.674 6.0991-28.237 1.2801-8.7345-7.831-17.168-16.565-11.897-12.424 7.4545-21.008 21.008-27.559 33.658-3.6896 7.078-6.6262 14.608-8.4333 22.363-1.0542 4.5932-2.786 6.9274-7.4545 9.0357 0.82826-6.325 0.67766-12.801 1.0542-19.201 0.52709-8.7345 2.4848-19.954-0.45177-28.387-2.4848-7.1533-12.65-9.1863-17.77-4.1414-6.5509 6.4756-11.069 15.285-15.285 23.418-0.8283-6.1744 0-12.048-5.3461-16.34-11.37-7.9816-18.975 4.5932-24.02 13.93-0.67766-5.4214 4.3673-13.554-1.8071-16.791-5.4215-2.786-7.7557-2.033-9.9393 3.9155-3.2378 8.7345-3.8402 19.352-5.4214 28.463-1.8072 10.918-3.6896 21.912-5.2709 32.83-0.97886 7.1533-3.4637 15.662 5.4968 18.523 7.3792 2.3342 8.8851-7.1533 10.617-12.274 3.4637-9.864 6.7015-19.803 10.617-29.517 2.7107-6.9274 5.4215-15.963 10.09-21.836 3.8402 10.617-17.093 58.808 4.5178 56.022 5.0449 0 6.1744-8.0569 7.6051-11.746 2.786-7.2286 5.4967-14.457 8.358-21.686 3.7649-9.4875 7.3792-23.869 14.834-30.872 1.5813 14.005-1.5812 29.969-2.7107 43.974-0.4518 5.798-0.97889 13.403 5.7226 15.888 7.6051 2.786 17.168-6.0238 20.406-11.671 2.1836 3.4637 4.4425 7.2286 9.0357 7.2286 9.4875-0.0754 14.307-6.4003 18.222-14.005 3.4637 18.448 24.095 5.4967 30.345-4.292 0.90358 4.6685 2.7107 7.2286 7.831 7.7557 3.3131 0.3766 5.4967 0.15041 6.4756-3.3131 2.8613-10.015 1.1295-21.385 6.4756-30.721 6.1744 7.0027 10.993 14.532 18.599 20.255 9.6381 7.2286 23.267 12.123 36.068 11.295 11.521-0.75298 23.041-3.8402 35.013-11.596 5.9485-3.6896 24.848-18.297 21.008-25.978-0.3766-0.75297 0.3766 0.75298 0 0m-156.92-11.069c-5.1955 15.06-8.9604 31.324-21.159 42.769-1.3554-8.6592 3.6143-19.126 7.0027-26.731 3.3884-7.5298 8.2074-18.749 16.038-22.815-0.0754 2.2589-1.1295 4.6684-1.8824 6.7768-0.15079 0.45177 0.30121-0.9789 0 0m80.945-29.065c2.6354 4.3672-15.662 26.806-21.46 29.366-0.9789 0.45181-1.0542-0.97886-1.2801-1.5812-1.9578-5.9485 15.285-28.688 22.74-27.785" fill="#fc0816"/>
</svg>
