<svg width="500" height="115" viewBox="0 0 500 115" fill="none" xmlns="http://www.w3.org/2000/svg">
<g clip-path="url(#clip0_2_2500)">
<path fill-rule="evenodd" clip-rule="evenodd" d="M94.4265 65.3847C94.5569 62.712 94.622 59.974 94.622 57.3013C94.622 54.6285 94.5569 51.8906 94.4265 49.2179C97.197 49.3482 99.9024 49.5112 102.543 49.6742C102.705 52.2165 102.803 54.7589 102.803 57.3013C102.803 59.8111 102.705 62.386 102.543 64.9284C99.935 65.0914 97.197 65.2544 94.4265 65.3847ZM76.0106 100.945C76.3691 98.3704 76.6625 95.6976 76.9558 92.9923C81.2257 92.4056 85.4304 91.6559 89.4395 90.6781C88.755 93.3834 87.9728 96.0236 87.1253 98.5334C83.5399 99.5112 79.8241 100.293 76.0106 100.945ZM65.5803 114.602C65.9063 111.05 66.1996 107.236 66.4604 103.26C69.1983 103.031 71.9363 102.771 74.609 102.347C74.0875 106.128 73.5008 109.713 72.8489 113.103C70.4695 113.788 67.9923 114.277 65.5803 114.602ZM20.9258 65.3847C18.1553 65.2544 15.4174 65.0914 12.8098 64.9284C12.6468 62.386 12.549 59.8111 12.549 57.3013C12.549 54.7589 12.6468 52.2165 12.8098 49.6742C15.45 49.5112 18.1553 49.3482 20.9258 49.2179C20.7955 51.8906 20.7303 54.6285 20.7303 57.3013C20.7303 59.974 20.7955 62.712 20.9258 65.3847ZM57.6925 77.0862C54.759 77.0862 51.858 77.0536 48.9571 76.9884C48.8593 73.8593 48.7942 70.665 48.7616 67.4056C51.7603 67.4382 54.759 67.4708 57.6925 67.4708C60.626 67.4708 63.6247 67.4382 66.5908 67.4056C66.5582 70.665 66.493 73.8593 66.3952 76.9884C63.4943 77.0536 60.5934 77.0862 57.6925 77.0862ZM76.9232 36.7667C73.8593 36.6364 70.7303 36.4734 67.5686 36.4082C67.4382 31.4538 67.2752 26.5647 67.0471 21.871C70.0132 22.0666 72.9467 22.2948 75.8476 22.6859C76.3039 27.2491 76.6625 32.0079 76.9232 36.7667ZM25.9128 23.8919C26.5973 21.1866 27.3795 18.5464 28.227 16.0366C31.7798 15.0914 35.5282 14.2765 39.3091 13.6572C38.9832 16.2322 38.6573 18.9049 38.3965 21.6103C34.094 22.197 29.9219 22.9793 25.9128 23.8919ZM66.5908 47.1644C63.6573 47.1318 60.6586 47.1318 57.6925 47.1318C54.6938 47.1318 51.6951 47.1318 48.7616 47.1644C48.7942 43.9375 48.8593 40.7433 48.9571 37.6142C51.858 37.549 54.759 37.5164 57.6925 37.5164C60.5934 37.5164 63.4943 37.549 66.3952 37.6142C66.493 40.7433 66.5582 43.9375 66.5908 47.1644ZM17.7968 95.0132C15.5803 94.1222 13.4726 93.1661 11.4734 92.1448C9.51775 89.5373 7.75765 86.7993 6.2583 83.931C9.09402 85.3 12.1579 86.5386 15.3848 87.6468C16.1018 90.1566 16.9167 92.6338 17.7968 95.0132ZM109.094 30.6716C106.258 29.3026 103.194 28.064 99.9676 26.9558C99.2505 24.4134 98.4465 21.958 97.5556 19.5894C99.772 20.4586 101.88 21.4147 103.879 22.4577C105.835 25.0327 107.595 27.8032 109.094 30.6716Z" fill="#43BEAC"/>
<path fill-rule="evenodd" clip-rule="evenodd" d="M102.771 74.2177C103.194 71.5124 103.455 68.807 103.683 66.0691C107.66 65.8083 111.441 65.515 115.026 65.189C114.7 67.6336 114.211 70.0782 113.56 72.4576C110.17 73.0769 106.552 73.6962 102.771 74.2177ZM91.0693 89.0482C92.0472 85.0391 92.7968 80.8344 93.3835 76.5645C96.0889 76.2712 98.7616 75.9452 101.337 75.6193C100.717 79.4329 99.935 83.1486 98.9572 86.7014C96.4474 87.5489 93.8073 88.3638 91.0693 89.0482ZM67.0472 92.7314C67.2753 88.0378 67.4383 83.1486 67.5687 78.1943C70.7303 78.0965 73.8594 77.9987 76.9233 77.8357C76.6625 82.6271 76.2714 87.3533 75.8477 91.9166C72.9468 92.2425 70.0133 92.5359 67.0472 92.7314ZM37.1254 76.5319C32.334 76.2712 27.6078 75.88 23.0446 75.4563C22.686 72.5554 22.3927 69.6219 22.1971 66.6558C26.8581 66.884 31.7473 67.0469 36.7668 67.1773C36.8646 70.339 36.995 73.4681 37.1254 76.5319ZM49.7721 114.602C47.3601 114.276 44.8829 113.787 42.5035 113.103C41.8842 109.713 41.2649 106.128 40.7434 102.347C43.4161 102.771 46.1541 103.031 48.892 103.259C49.1854 107.236 49.4461 111.05 49.7721 114.602ZM101.369 38.983C98.7942 38.6245 96.1215 38.3312 93.3835 38.0378C92.7968 33.7679 92.0472 29.5958 91.1019 25.5541C93.8073 26.2386 96.4474 27.0209 98.9572 27.8683C99.935 31.4537 100.717 35.1695 101.369 38.983ZM74.6091 12.2229C71.9363 11.8318 69.1984 11.5385 66.4605 11.3429C66.1997 7.36636 65.9064 3.5528 65.5804 0C67.9924 0.325945 70.4696 0.814863 72.849 1.46675C73.4683 4.85658 74.0876 8.47458 74.6091 12.2229ZM0.326172 49.4133C0.652117 46.9687 1.14103 44.5241 1.79293 42.1447C5.18276 41.5254 8.80075 40.9061 12.5817 40.3846C12.158 43.0574 11.8972 45.7953 11.6691 48.5332C7.69253 48.794 3.87897 49.0874 0.326172 49.4133ZM22.1971 47.9465C22.3927 44.9804 22.6534 42.0143 23.0446 39.146C27.6078 38.6897 32.334 38.3312 37.1254 38.0704C36.995 41.1343 36.832 44.2634 36.7668 47.3924C31.8125 47.5228 26.9233 47.7184 22.1971 47.9465ZM65.776 20.5671C63.0706 20.4368 60.3653 20.3716 57.6925 20.3716C54.9872 20.3716 52.2818 20.4368 49.5765 20.5671C49.7069 17.8292 49.8698 15.0913 50.0328 12.4511C52.6078 12.2881 55.1502 12.2229 57.6925 12.2229C60.2023 12.2229 62.7447 12.2881 65.3196 12.4511C65.4826 15.0913 65.6456 17.8292 65.776 20.5671ZM31.0302 108.638C28.1619 107.138 25.3914 105.411 22.7838 103.455C21.7625 101.456 20.8064 99.3481 19.9155 97.1317C22.2949 98.0443 24.7721 98.8266 27.2818 99.5437C28.4118 102.76 29.6612 105.791 31.0302 108.638ZM95.437 17.4381C93.0576 16.558 90.5804 15.7757 88.0706 15.0587C86.9624 11.8318 85.6912 8.76793 84.3223 5.9322C87.1906 7.43155 89.9611 9.15906 92.5687 11.1473C93.5465 13.1356 94.5569 15.2868 95.437 17.4381Z" fill="#56AEE1"/>
<path fill-rule="evenodd" clip-rule="evenodd" d="M24.2505 89.0156C21.5451 88.3312 18.905 87.5489 16.3952 86.7014C15.4174 83.1486 14.6351 79.4329 14.0158 75.6193C16.5908 75.9452 19.2635 76.2712 21.9689 76.5645C22.5556 80.8344 23.3052 85.0391 24.2505 89.0156ZM47.5556 66.1995C44.3287 66.1669 41.1344 66.1017 37.9728 66.0039C37.9076 63.103 37.875 60.2021 37.875 57.3012C37.875 54.4003 37.9076 51.4668 37.9728 48.5658C41.1344 48.4681 44.3287 48.4355 47.5556 48.3703C47.523 51.369 47.4904 54.3351 47.4904 57.3012C47.4904 60.2347 47.523 63.2334 47.5556 66.1995ZM57.6925 102.379C55.1501 102.379 52.6077 102.282 50.0327 102.119C49.8698 99.4785 49.7068 96.7731 49.5764 94.0026C52.2818 94.1656 55.0197 94.2308 57.6925 94.2308C60.3326 94.2308 63.0706 94.1656 65.7759 94.0026C65.6455 96.7731 65.4825 99.5111 65.3196 102.119C62.7446 102.282 60.2022 102.379 57.6925 102.379ZM93.1553 47.9465C88.4617 47.7184 83.5725 47.5554 78.5855 47.3924C78.5204 44.2634 78.39 41.1343 78.227 38.0704C83.0184 38.3312 87.7446 38.6897 92.3078 39.146C92.6664 42.0143 92.9597 44.9804 93.1553 47.9465ZM40.7433 12.2229C41.2648 8.47458 41.8515 4.85658 42.5034 1.46675C44.8828 0.814863 47.3274 0.325945 49.772 0C49.446 3.5528 49.1527 7.36636 48.8919 11.3429C46.154 11.5385 43.4161 11.8318 40.7433 12.2229ZM97.5556 95.013C98.4682 92.6336 99.2505 90.1564 99.9676 87.6467C103.194 86.5385 106.258 85.2999 109.094 83.9309C107.595 86.7992 105.856 89.5372 103.879 92.1447C101.858 93.1552 99.7394 94.133 97.5556 95.013ZM6.2583 30.6714C7.75765 27.7814 9.49602 25.0435 11.4734 22.4576C13.4726 21.4146 15.5803 20.4585 17.7968 19.5893C16.8841 21.9687 16.1018 24.4459 15.3848 26.9557C12.1688 28.0639 9.12662 29.3025 6.2583 30.6714Z" fill="#91AEDB"/>
<path fill-rule="evenodd" clip-rule="evenodd" d="M78.1945 76.5319C78.3575 73.468 78.4878 70.3389 78.553 67.2098C83.5726 67.0795 88.4618 66.9165 93.1228 66.6883C92.9272 69.6544 92.6339 72.5879 92.3079 75.4562C87.7447 75.9126 83.0185 76.2711 78.1945 76.5319ZM67.7968 66.1994C67.8294 63.2333 67.862 60.2346 67.862 57.3011C67.862 54.335 67.8294 51.3689 67.7968 48.3702C71.0237 48.4354 74.218 48.5006 77.3796 48.5658C77.4448 51.4667 77.4774 54.4002 77.4774 57.3011C77.4774 60.202 77.4448 63.1029 77.3796 66.0038C74.2505 66.1016 71.0237 66.1668 67.7968 66.1994ZM12.5817 74.2177C8.80075 73.6961 5.18276 73.1094 1.79293 72.4576C1.14103 70.0782 0.652117 67.6336 0.326172 65.189C3.91157 65.5149 7.69253 65.8083 11.6691 66.069C11.8646 68.807 12.158 71.5449 12.5817 74.2177ZM39.3092 100.913C35.4957 100.293 31.7799 99.511 28.1945 98.5332C27.347 96.0234 26.5648 93.4158 25.8803 90.6779C29.922 91.6557 34.0941 92.4054 38.3966 92.9921C38.6573 95.6648 38.9833 98.3702 39.3092 100.913ZM48.3053 92.7313C45.3392 92.5684 42.4057 92.275 39.5048 91.9165C39.0811 87.3532 38.6899 82.627 38.4292 77.8356C41.4931 77.966 44.6221 78.0964 47.7838 78.1942C47.8816 83.1486 48.0771 88.0377 48.3053 92.7313ZM115.026 49.4132C111.441 49.0873 107.66 48.7939 103.683 48.5332C103.455 45.7952 103.194 43.0573 102.771 40.3845C106.552 40.9061 110.17 41.4928 113.56 42.1446C114.211 44.524 114.7 46.9686 115.026 49.4132ZM89.4722 23.9243C85.4305 22.9791 81.2584 22.1968 76.9559 21.6427C76.6951 18.9047 76.3692 16.2646 76.0432 13.6896C79.8242 14.2763 83.54 15.0912 87.1254 16.069C87.9728 18.5788 88.7551 21.219 89.4722 23.9243ZM14.0159 38.9504C14.6352 35.1368 15.4174 31.421 16.3953 27.8682C18.905 27.0208 21.5452 26.2059 24.2506 25.5214C23.3053 29.5632 22.523 33.7353 21.9689 38.0377C19.2636 38.2985 16.5908 38.6244 14.0159 38.9504ZM38.4292 36.7665C38.6899 31.9752 39.0811 27.2489 39.5048 22.6857C42.4057 22.3272 45.3392 22.0664 48.3053 21.8708C48.0771 26.5319 47.9142 31.421 47.7838 36.408C44.6221 36.5058 41.4931 36.6362 38.4292 36.7665ZM84.3223 108.637C85.6912 105.834 86.9298 102.77 88.0706 99.5436C90.5913 98.8265 93.0467 98.0225 95.437 97.1316C94.5461 99.348 93.59 101.456 92.5687 103.455C89.9611 105.411 87.1906 107.138 84.3223 108.637ZM19.9155 17.438C20.8064 15.2433 21.7625 13.1464 22.7838 11.1473C25.3914 9.15899 28.1619 7.43148 31.0302 5.93213C29.6612 8.76785 28.4226 11.8317 27.2818 15.0586C24.7721 15.7757 22.2949 16.5905 19.9155 17.438Z" fill="#8FC73E"/>
<path fill-rule="evenodd" clip-rule="evenodd" d="M153.26 60.2674L156.682 43.579H160.496L155.378 65.7433H151.695L147.491 49.5764L143.156 65.7433H139.472L134.355 43.579H138.169L141.624 60.2348L145.861 43.579H149.088L153.26 60.2674ZM172.784 65.7433C172.61 65.4391 172.458 64.9285 172.328 64.2114C171.154 65.4282 169.72 66.0367 168.025 66.0367C166.352 66.0367 164.994 65.5695 163.951 64.6351C162.908 63.7007 162.386 62.5382 162.386 61.1475C162.386 59.3874 163.038 58.0401 164.342 57.1058C165.646 56.1497 167.514 55.6716 169.948 55.6716H172.23V54.596C172.23 53.7485 171.991 53.0749 171.513 52.5751C171.035 52.0536 170.307 51.7929 169.329 51.7929C168.481 51.7929 167.786 51.9993 167.243 52.4122C166.721 52.8468 166.461 53.3791 166.461 54.0093H162.745C162.745 53.1184 163.038 52.2818 163.625 51.4995C164.233 50.6955 165.048 50.0762 166.069 49.6416C167.112 49.1853 168.264 48.9571 169.524 48.9571C171.458 48.9571 173.001 49.4461 174.153 50.4239C175.305 51.4017 175.891 52.7598 175.913 54.4982V61.9298C175.913 63.4291 176.13 64.6134 176.565 65.4826V65.7433H172.784ZM168.71 63.0706C169.427 63.0706 170.111 62.8967 170.763 62.5491C171.415 62.2014 171.904 61.7233 172.23 61.1149V58.0184H170.209C168.84 58.0184 167.819 58.2574 167.145 58.7355C166.45 59.2135 166.102 59.8872 166.102 60.7564C166.102 61.4734 166.33 62.0384 166.787 62.4513C167.265 62.8641 167.906 63.0706 168.71 63.0706ZM180.509 42.373H184.225V65.7433H180.509V42.373ZM188.071 57.3991C188.071 54.835 188.668 52.7924 189.863 51.2714C191.059 49.7503 192.656 48.9897 194.655 48.9897C196.545 48.9897 198.023 49.6416 199.088 50.9454L199.251 49.2831H202.608V65.2544C202.608 67.4274 201.934 69.1331 200.587 70.3717C199.24 71.6321 197.425 72.2622 195.144 72.2622C193.927 72.2622 192.743 72.0015 191.591 71.48C190.439 70.9802 189.559 70.3283 188.951 69.5243L190.711 67.3079C191.841 68.6551 193.242 69.3287 194.916 69.3287C196.154 69.3287 197.121 68.9919 197.817 68.3183C198.534 67.6664 198.892 66.6886 198.892 65.3848V64.2766C197.827 65.4717 196.404 66.0693 194.622 66.0693C192.688 66.0693 191.113 65.2979 189.896 63.7551C188.679 62.234 188.071 60.1153 188.071 57.3991ZM191.754 57.7251C191.754 59.3765 192.091 60.6803 192.764 61.6364C193.438 62.5708 194.372 63.038 195.567 63.038C197.067 63.038 198.175 62.4078 198.892 61.1475V53.8789C198.197 52.6403 197.099 52.021 195.6 52.021C194.383 52.021 193.438 52.4991 192.764 53.4552C192.091 54.433 191.754 55.8563 191.754 57.7251ZM215.515 52.6729C215.016 52.586 214.505 52.5425 213.983 52.5425C212.288 52.5425 211.148 53.1944 210.561 54.4982V65.7759H206.878V49.2831H210.398L210.496 51.141C211.387 49.7068 212.625 48.9897 214.212 48.9897C214.733 48.9897 215.168 49.0549 215.515 49.1853V52.6729ZM225.294 66.0693C222.947 66.0693 221.046 65.3413 219.59 63.8854C218.134 62.4078 217.406 60.4304 217.406 57.9532V57.4969C217.406 55.8672 217.721 54.4004 218.351 53.0966C218.981 51.8146 219.872 50.815 221.024 50.0979C222.175 49.3591 223.458 48.9897 224.87 48.9897C227.108 48.9897 228.836 49.7068 230.052 51.141C231.291 52.5751 231.91 54.6069 231.91 57.2362V58.7029H221.122C221.252 60.0719 221.708 61.1475 222.491 61.9298C223.295 62.7338 224.305 63.1358 225.522 63.1358C227.217 63.1358 228.597 62.4513 229.661 61.0823L231.65 62.9728C230.998 63.9506 230.118 64.722 229.009 65.287C227.901 65.8085 226.663 66.0693 225.294 66.0693ZM224.87 51.9558C223.849 51.9558 223.023 52.3144 222.393 53.0315C221.763 53.7485 221.361 54.7372 221.187 55.9976H228.26V55.7368C228.173 54.4982 227.836 53.5638 227.249 52.9337C226.684 52.2818 225.891 51.9558 224.87 51.9558ZM242.504 66.0693C240.157 66.0693 238.255 65.3413 236.8 63.8854C235.344 62.4078 234.616 60.4304 234.616 57.9532V57.4969C234.616 55.8672 234.931 54.4004 235.561 53.0966C236.213 51.8146 237.104 50.815 238.234 50.0979C239.385 49.3591 240.667 48.9897 242.08 48.9897C244.34 48.9897 246.078 49.7068 247.295 51.141C248.512 52.5751 249.12 54.6069 249.12 57.2362V58.7029H238.364C238.473 60.0719 238.918 61.1475 239.7 61.9298C240.504 62.7338 241.515 63.1358 242.732 63.1358C244.427 63.1358 245.807 62.4513 246.871 61.0823L248.86 62.9728C248.208 63.9506 247.328 64.722 246.219 65.287C245.111 65.8085 243.873 66.0693 242.504 66.0693ZM242.08 51.9558C241.059 51.9558 240.233 52.3144 239.603 53.0315C238.994 53.7485 238.603 54.7372 238.429 55.9976H245.47V55.7368C245.383 54.4982 245.057 53.5638 244.492 52.9337C243.905 52.2818 243.101 51.9558 242.08 51.9558ZM255.9 49.3157L255.998 51.2062C257.236 49.7285 258.844 48.9897 260.822 48.9897C264.255 48.9897 266.004 50.9563 266.069 54.8893V65.7759H262.354V55.1175C262.354 54.0745 262.126 53.3031 261.669 52.8033C261.213 52.2818 260.474 52.021 259.453 52.021C257.953 52.021 256.845 52.6946 256.128 54.0419V65.7759H252.412V49.3157H255.9ZM279.531 61.3105C279.531 60.6368 279.259 60.1371 278.716 59.8111C278.173 59.4634 277.271 59.1592 276.011 58.8985C274.75 58.616 273.697 58.2792 272.849 57.888C271.002 56.9971 270.079 55.7042 270.079 54.0093C270.079 52.5751 270.676 51.38 271.871 50.4239C273.088 49.4678 274.62 48.9897 276.467 48.9897C278.423 48.9897 280.009 49.4787 281.226 50.4565C282.443 51.4343 283.051 52.7055 283.051 54.27H279.368C279.368 53.553 279.096 52.9554 278.553 52.4773C278.032 51.9993 277.336 51.7603 276.467 51.7603C275.641 51.7603 274.968 51.9558 274.446 52.347C273.946 52.7164 273.697 53.2162 273.697 53.8463C273.697 54.4113 273.936 54.8568 274.414 55.1827C274.892 55.4869 275.859 55.802 277.315 56.1279C278.77 56.4322 279.911 56.8124 280.737 57.2687C281.563 57.7033 282.171 58.2357 282.562 58.8659C282.975 59.4743 283.182 60.224 283.182 61.1149C283.182 62.5925 282.562 63.7876 281.324 64.7003C280.107 65.6129 278.499 66.0693 276.5 66.0693C275.152 66.0693 273.946 65.8302 272.882 65.3522C271.839 64.8741 271.024 64.2005 270.437 63.3313C269.829 62.4839 269.524 61.5712 269.524 60.5934H273.142C273.186 61.4626 273.512 62.1362 274.12 62.6142C274.729 63.0706 275.544 63.2987 276.565 63.2987C277.521 63.2987 278.26 63.1249 278.781 62.7772C279.281 62.3861 279.531 61.8972 279.531 61.3105ZM295.47 65.7759V43.6116H303.064C305.585 43.6116 307.497 44.1114 308.801 45.111C310.105 46.1106 310.757 47.6099 310.757 49.609C310.757 50.6303 310.485 51.543 309.942 52.347C309.398 53.151 308.594 53.7811 307.53 54.2375C308.725 54.5634 309.648 55.1827 310.3 56.0953C310.974 56.9863 311.311 58.0619 311.311 59.3222C311.311 61.3865 310.637 62.9836 309.29 64.1136C307.964 65.2218 306.052 65.7759 303.553 65.7759H295.47ZM299.348 55.7694V62.712H303.618C304.835 62.712 305.78 62.4078 306.454 61.7994C307.128 61.2127 307.464 60.387 307.464 59.3222C307.464 57.0189 306.291 55.8346 303.944 55.7694H299.348ZM299.348 52.9337H303.129C304.325 52.9337 305.259 52.6729 305.933 52.1514C306.606 51.5864 306.943 50.815 306.943 49.8372C306.943 48.729 306.628 47.9358 305.998 47.4578C305.389 46.958 304.422 46.7081 303.097 46.7081H299.348V52.9337ZM314.603 57.3991C314.603 55.7694 314.918 54.3135 315.548 53.0315C316.2 51.7277 317.102 50.739 318.253 50.0654C319.405 49.3483 320.73 48.9897 322.23 48.9897C324.468 48.9897 326.272 49.7068 327.641 51.141C329.031 52.5751 329.792 54.4765 329.922 56.845V57.6925C329.922 59.3222 329.607 60.7781 328.977 62.0601C328.368 63.3422 327.478 64.3309 326.304 65.0262C325.131 65.7216 323.783 66.0693 322.262 66.0693C319.937 66.0693 318.079 65.2979 316.689 63.7551C315.298 62.2122 314.603 60.1479 314.603 57.5621V57.3991ZM318.286 57.7251C318.286 59.42 318.644 60.7455 319.361 61.7016C320.057 62.6577 321.024 63.1358 322.262 63.1358C323.523 63.1358 324.501 62.6577 325.196 61.7016C325.891 60.7238 326.239 59.2896 326.239 57.3991C326.239 55.7477 325.88 54.433 325.163 53.4552C324.446 52.4773 323.468 51.9884 322.23 51.9884C321.035 51.9884 320.079 52.4665 319.361 53.4226C318.644 54.3787 318.286 55.8129 318.286 57.7251ZM332.823 57.3991C332.823 55.7911 333.149 54.3461 333.801 53.0641C334.431 51.7603 335.322 50.7607 336.474 50.0654C337.647 49.37 338.983 49.0223 340.483 49.0223C342.699 49.0223 344.503 49.7394 345.893 51.1736C347.284 52.6077 348.034 54.4982 348.142 56.845L348.175 57.7251C348.175 59.3548 347.86 60.8107 347.23 62.0927C346.6 63.3748 345.698 64.3635 344.524 65.0588C343.373 65.7542 342.036 66.1019 340.515 66.1019C338.19 66.1019 336.322 65.3305 334.909 63.7876C333.518 62.2448 332.823 60.1805 332.823 57.5947V57.3991ZM336.539 57.7251C336.539 59.42 336.886 60.7455 337.582 61.7016C338.277 62.6577 339.255 63.1358 340.515 63.1358C341.754 63.1358 342.721 62.6468 343.416 61.669C344.112 60.6912 344.459 59.2679 344.459 57.3991C344.459 55.7259 344.101 54.4004 343.384 53.4226C342.667 52.4665 341.7 51.9884 340.483 51.9884C339.266 51.9884 338.31 52.4665 337.614 53.4226C336.897 54.3787 336.539 55.8129 336.539 57.7251ZM356.389 45.3066V49.3157H359.322V52.0536H356.389V61.2453C356.389 61.8754 356.519 62.3318 356.78 62.6142C357.019 62.8967 357.464 63.038 358.116 63.038C358.529 63.038 358.953 62.9836 359.388 62.875V65.7433C358.562 65.9823 357.758 66.1019 356.976 66.1019C354.129 66.1019 352.706 64.5265 352.706 61.3757V52.0536H350V49.3157H352.706V45.3066H356.389ZM371.839 61.3105C371.839 60.6586 371.556 60.1588 370.991 59.8111C370.47 59.4634 369.579 59.1592 368.318 58.8985C367.058 58.6377 366.004 58.3009 365.157 57.888C363.31 56.9971 362.386 55.7042 362.386 54.0093C362.386 52.5751 362.984 51.38 364.179 50.4239C365.374 49.4895 366.895 49.0223 368.742 49.0223C370.72 49.0223 372.317 49.5004 373.534 50.4565C374.75 51.4343 375.359 52.7055 375.359 54.27H371.643C371.643 53.553 371.382 52.9554 370.861 52.4773C370.318 52.021 369.611 51.7929 368.742 51.7929C367.938 51.7929 367.275 51.9776 366.754 52.347C366.254 52.7164 366.004 53.2162 366.004 53.8463C366.004 54.4113 366.243 54.8568 366.721 55.1827C367.199 55.4869 368.155 55.802 369.59 56.1279C371.046 56.4539 372.186 56.8341 373.012 57.2687C373.86 57.7033 374.479 58.2357 374.87 58.8659C375.261 59.4743 375.457 60.224 375.457 61.1149C375.457 62.5925 374.848 63.7985 373.631 64.7329C372.393 65.6455 370.785 66.1019 368.807 66.1019C367.46 66.1019 366.254 65.852 365.189 65.3522C364.125 64.8741 363.299 64.2114 362.712 63.3639C362.126 62.4947 361.832 61.5712 361.832 60.5934H365.418C365.483 61.4626 365.82 62.1362 366.428 62.6142C367.036 63.0923 367.84 63.3313 368.84 63.3313C369.818 63.3313 370.557 63.1466 371.056 62.7772C371.578 62.4078 371.839 61.9189 371.839 61.3105ZM400.196 60.626H391.591L389.798 65.7759H385.789L394.166 43.6116H397.621L406.03 65.7759H401.989L400.196 60.626ZM392.699 57.5295H399.12L395.893 48.3378L392.699 57.5295ZM408.931 42.4056H412.614V65.7759H408.931V42.4056ZM417.373 42.4056H421.056V65.8085H417.373V42.4056ZM425.815 49.3157H429.498V65.7759H425.815V49.3157ZM425.587 45.0458C425.587 44.4808 425.761 44.0136 426.109 43.6442C426.478 43.2531 426.999 43.0575 427.673 43.0575C428.325 43.0575 428.836 43.2531 429.205 43.6442C429.574 44.0136 429.759 44.4808 429.759 45.0458C429.759 45.6108 429.574 46.078 429.205 46.4474C428.836 46.8168 428.325 47.0015 427.673 47.0015C426.999 47.0015 426.478 46.8168 426.109 46.4474C425.739 46.078 425.565 45.6108 425.587 45.0458ZM443.84 65.8085C443.688 65.4826 443.547 64.9719 443.416 64.2766C442.243 65.4934 440.809 66.1019 439.114 66.1019C437.441 66.1019 436.082 65.6347 435.039 64.7003C433.996 63.7442 433.475 62.5708 433.475 61.1801C433.475 59.4417 434.127 58.1053 435.431 57.171C436.734 56.2149 438.603 55.7368 441.037 55.7368H443.318V54.6612C443.318 53.8137 443.079 53.1292 442.601 52.6077C442.123 52.1079 441.395 51.8581 440.418 51.8581C439.57 51.8581 438.875 52.0645 438.332 52.4773C437.788 52.8902 437.517 53.4226 437.517 54.0745H433.833C433.833 53.1836 434.127 52.347 434.713 51.5647C435.322 50.7607 436.137 50.1414 437.158 49.7068C438.201 49.2505 439.353 49.0223 440.613 49.0223C442.547 49.0223 444.09 49.5112 445.242 50.4891C446.393 51.4452 446.98 52.8033 447.002 54.5634V61.9949C447.002 63.4726 447.208 64.6568 447.621 65.5478V65.8085H443.84ZM439.798 63.1358C440.515 63.1358 441.2 62.9619 441.852 62.6142C442.504 62.2448 442.993 61.7668 443.318 61.1801V58.0836H441.298C439.929 58.0836 438.896 58.3226 438.201 58.8007C437.528 59.257 437.191 59.9306 437.191 60.8215C437.191 61.5169 437.419 62.0819 437.875 62.5165C438.353 62.9293 438.994 63.1358 439.798 63.1358ZM454.792 49.3157L454.89 51.2388C456.106 49.7611 457.714 49.0223 459.714 49.0223C463.147 49.0223 464.885 50.9889 464.929 54.9219V65.8085H461.245V55.1175C461.245 54.0745 461.017 53.3031 460.561 52.8033C460.105 52.3035 459.366 52.0536 458.345 52.0536C456.845 52.0536 455.737 52.7272 455.02 54.0745V65.8085H451.304V49.3157H454.792ZM475.946 63.1684C476.88 63.1684 477.651 62.8967 478.26 62.3535C478.868 61.8102 479.194 61.1475 479.238 60.3652H482.725C482.682 61.3865 482.356 62.3426 481.747 63.2335C481.161 64.1245 480.357 64.8198 479.335 65.3196C478.292 65.8411 477.184 66.1019 476.011 66.1019C473.686 66.1019 471.85 65.3631 470.502 63.8854C469.155 62.3861 468.481 60.3218 468.481 57.6925V57.3013C468.481 54.8024 469.155 52.8033 470.502 51.3039C471.85 49.7829 473.675 49.0223 475.978 49.0223C477.934 49.0223 479.531 49.5982 480.77 50.7498C482.008 51.8798 482.66 53.3791 482.725 55.2479H479.238C479.194 54.2918 478.868 53.5095 478.26 52.9011C477.651 52.2926 476.88 51.9884 475.946 51.9884C474.75 51.9884 473.827 52.423 473.175 53.2922C472.523 54.1614 472.197 55.476 472.197 57.2362V57.8554C472.197 59.6373 472.512 60.9628 473.142 61.832C473.794 62.7229 474.729 63.1684 475.946 63.1684ZM493.253 66.1019C490.906 66.1019 488.994 65.3631 487.517 63.8854C486.082 62.4078 485.365 60.4413 485.365 57.9858V57.5295C485.365 55.8998 485.68 54.433 486.311 53.1292C486.941 51.8255 487.832 50.815 488.983 50.0979C490.135 49.3809 491.417 49.0223 492.83 49.0223C495.068 49.0223 496.795 49.7394 498.012 51.1736C499.251 52.6077 499.87 54.6286 499.87 57.2362V58.7355H489.081C489.19 60.1045 489.646 61.1801 490.45 61.9624C491.254 62.7664 492.254 63.1684 493.449 63.1684C495.144 63.1684 496.524 62.4839 497.588 61.1149L499.609 63.0054C498.936 63.9832 498.045 64.7438 496.936 65.287C495.85 65.8302 494.622 66.1019 493.253 66.1019ZM492.797 51.9884C491.776 51.9884 490.95 52.347 490.32 53.0641C489.711 53.7811 489.32 54.7698 489.146 56.0301H496.187V55.7694C496.122 54.5308 495.796 53.5964 495.209 52.9663C494.622 52.3144 493.818 51.9884 492.797 51.9884Z" fill="#232C64"/>
</g>
<defs>
<clipPath id="clip0_2_2500">
<rect width="500" height="114.733" fill="white"/>
</clipPath>
</defs>
</svg>
