<svg width="696" height="144" viewBox="0 0 696 144" fill="none" xmlns="http://www.w3.org/2000/svg">
<path d="M660.377 84.8779C673.482 68.4604 656.311 44.3751 674.863 37.8564C674.438 33.2402 670.102 30.4782 664.568 30.4782C661.895 30.576 659.278 31.2661 656.905 32.4987C654.532 33.7312 652.462 35.4754 650.845 37.6053C631.298 62.8206 611.008 82.2414 599.4 82.2414C595.537 82.2414 594.176 80.4645 594.176 77.4128C594.176 68.0065 605.987 54.2352 615.074 44.5779C616.072 43.6118 616.669 42.3047 616.745 40.9178C616.745 38.0978 613.51 36.2147 609.531 36.2147C599.555 36.2147 578.821 52.014 563.514 66.4421C568.999 56.0798 575.103 47.8324 575.103 43.3707C575.103 38.6676 570.197 37.3059 564.547 37.4122C542.693 66.471 514.638 87.9392 496.637 87.9392C491.972 87.9392 488.863 86.3651 486.902 84.0763C509.829 74.7087 528.979 59.0542 528.979 47.5041C528.979 40.3577 522.972 37.1707 514.571 37.1707C492.977 37.1707 465.656 60.1455 464.352 83.1395C443.551 90.624 428.051 89.2912 423.27 84.1053C446.168 74.7473 465.27 59.1025 465.27 47.5524C465.27 40.3963 459.273 37.2094 450.861 37.2094C429.084 37.2094 401.483 60.5801 400.566 83.7769C390.155 86.9831 378.354 88.3834 378.354 79.7981C378.354 65.6405 399.6 54.0131 399.6 44.5876C399.649 43.3971 399.376 42.2156 398.81 41.1671C398.244 40.1187 397.406 39.2419 396.384 38.629C389.624 42.1153 379.561 45.0028 372.241 45.0028C374.115 39.1505 372.135 34.5536 366.389 34.5536C357.919 34.5536 351.468 44.0564 351.468 51.7919C351.383 53.1862 351.639 54.5801 352.212 55.8537C352.786 57.1273 353.661 58.2422 354.761 59.1025C345.852 71.2793 334.485 81.4491 321.395 88.9532C325.674 80.0685 328.996 70.4981 333.602 56.9972C344.737 50.4302 350.387 37.0549 327.953 37.0549C309.604 37.0549 289.246 48.1028 276.537 62.9751C259.936 82.3766 239.733 93.2121 236.141 78.4847C263.548 57.876 289.034 28.7303 288.754 14.2153C288.657 8.96174 285.528 5.39819 278.179 5.39819C260.796 5.39819 220.235 44.9932 216.758 80.1554C187.709 95.7134 191.002 71.2031 199.906 58.3106C212.818 51.6857 221.751 37.0645 197.676 37.0645C162.755 37.0645 134.005 69.542 134.497 90.3149C134.633 96.4666 137.723 101.537 144.261 101.546C151.745 101.546 163.759 96.3604 176.42 83.2844C173.977 95.8389 176.883 101.546 187.149 101.546C195.493 101.546 206.193 97.3454 217.492 90.8461C219.376 96.6405 224.252 101.546 233.833 101.546C243.78 101.546 256.044 93.7143 265.634 83.6031C265.138 85.8224 264.886 88.0892 264.881 90.3632C264.881 97.6255 268.744 101.575 274.538 101.585C281.057 101.585 290.82 96.4087 301.579 86.2588C299.87 90.9933 297.9 95.6295 295.678 100.146C272.558 108.316 248.695 117.153 248.695 133.164C248.695 139.925 254.335 144 261.433 144C278.816 144 300.062 123.295 313.38 103.101C329.865 95.7037 349.054 81.7199 363.849 61.71C367.927 61.7237 371.989 61.1811 375.921 60.0972C363.26 73.5498 357.417 82.2511 357.417 90.7205C357.417 97.7221 362.748 101.585 372.154 101.585C380.363 101.585 390.677 98.6878 402.874 93.3087C406.438 98.7747 413.874 101.585 423.434 101.585C437.689 101.585 453.459 96.7563 465.695 91.6669C468.409 97.4613 474.927 101.585 485.386 101.585C506.632 101.585 525.879 88.0648 542.113 73.6367C534.783 84.7813 523.88 101.585 539.216 101.585C542.118 101.572 545.002 101.126 547.772 100.262C558.647 80.4065 572.756 67.5526 586.865 59.0928C575.276 73.5112 570.448 84.4819 570.448 91.5897C570.448 98.176 574.523 101.585 581.216 101.585C601.583 101.585 625.514 80.648 646.113 56.6689C647.175 65.824 652.747 75.6551 642.984 84.1825C628.237 83.8349 619.99 88.0454 619.999 94.9987C619.999 99.2576 623.582 101.585 628.633 101.585C633.804 101.469 638.881 100.174 643.476 97.7993C651.733 100.185 660.261 102.754 670.227 102.754C684.771 102.754 695.008 95.4526 695.336 83.3617C687.002 87.7268 673.568 86.085 660.386 84.9261L660.377 84.8779ZM268.705 21.3038C269.032 21.2544 269.366 21.2826 269.679 21.3861C269.993 21.4897 270.278 21.6656 270.511 21.8998C270.745 22.1339 270.919 22.4196 271.022 22.7338C271.124 23.048 271.151 23.3819 271.1 23.7085C271.1 30.9225 253.862 53.2791 236.517 67.3885C240.902 52.0237 260.545 21.3038 268.705 21.3038V21.3038ZM150.654 76.9299C150.654 64.7617 169.573 50.3626 184.725 50.3626C187.613 50.3057 190.481 50.8517 193.146 51.9657C174.797 80.8025 150.654 90.2763 150.654 76.9299ZM264.514 135.009C262.824 135.009 261.732 134.159 261.732 132.363C261.732 128.442 269.458 118.234 289.739 110.933C281.124 125.014 271.1 135.009 264.543 135.009H264.514ZM281.028 76.9299C281.028 64.3754 300.188 50.4109 315.002 50.4109C317.908 50.3814 320.793 50.9092 323.501 51.9657C306.137 79.7112 281.028 90.7785 281.028 76.9299ZM444.623 48.9237C446.834 48.9237 448.263 49.8894 448.263 52.1106C448.263 57.9629 435.892 68.3928 420.537 75.8096C420.537 65.2445 436.597 48.9237 444.623 48.9237ZM484.218 75.7807C484.218 65.2156 500.268 48.8947 508.303 48.8947C510.505 48.8947 511.944 49.8604 511.944 52.0816C511.944 57.934 499.573 68.3639 484.218 75.7807" fill="black"/>
<path d="M146.009 0C139.49 0 133.203 3.91121 129.128 9.83114C148.375 22.3856 124.792 85.0809 90.0158 85.0809C85.8438 85.0809 82.2899 83.8737 79.9432 81.3918C98.7653 64.4336 112.372 41.3719 112.372 27.7648C112.372 20.8115 108.973 16.3981 101.015 16.3981C77.9152 16.4174 53.5595 54.3031 58.0694 81.6429C43.5062 86.8192 36.2729 80.3488 36.2729 67.3501C36.2729 40.2034 64.6267 12.0523 62.985 3.61183C33.5978 12.6704 10.623 -8.44049 0 25.9106C14.2832 18.1847 27.4654 30.5654 43.7669 21.4875C29.7735 37.6635 15.6448 60.4837 15.838 79.7887C15.9635 92.4205 22.7816 101.537 37.5669 101.537C45.9591 101.537 54.67 98.6398 63.0526 93.8111C66.6451 98.3018 72.4395 101.537 81.2856 101.537C117.365 101.537 156.786 50.8457 156.786 14.6791C156.786 5.07975 152.981 0.0386292 146.009 0V0ZM76.6018 69.6968C76.9108 50.1601 90.7111 29.619 97.7127 29.619C99.7793 29.619 100.214 30.9613 100.214 32.3906C100.214 39.0735 90.2862 56.9492 76.6018 69.6968Z" fill="black"/>
</svg>
