<?xml version="1.0" encoding="UTF-8" standalone="no"?>
<!-- Created with Inkscape (http://www.inkscape.org/) -->

<svg
   xmlns:dc="http://purl.org/dc/elements/1.1/"
   xmlns:cc="http://creativecommons.org/ns#"
   xmlns:rdf="http://www.w3.org/1999/02/22-rdf-syntax-ns#"
   xmlns:svg="http://www.w3.org/2000/svg"
   xmlns="http://www.w3.org/2000/svg"
   xmlns:sodipodi="http://sodipodi.sourceforge.net/DTD/sodipodi-0.dtd"
   xmlns:inkscape="http://www.inkscape.org/namespaces/inkscape"
   width="289.64261"
   height="100.45164"
   id="svg3018"
   version="1.1"
   inkscape:version="0.48.4 r9939"
   sodipodi:docname="Wawel-cropped.svg">
  <title
     id="title3033">Wawel logo</title>
  <defs
     id="defs3020" />
  <sodipodi:namedview
     id="base"
     pagecolor="#ffffff"
     bordercolor="#666666"
     borderopacity="1.0"
     inkscape:pageopacity="0.0"
     inkscape:pageshadow="2"
     inkscape:zoom="0.35"
     inkscape:cx="721.24987"
     inkscape:cy="-58.345604"
     inkscape:document-units="px"
     inkscape:current-layer="layer1"
     showgrid="false"
     fit-margin-top="0"
     fit-margin-left="0"
     fit-margin-right="0"
     fit-margin-bottom="0"
     inkscape:window-width="1440"
     inkscape:window-height="838"
     inkscape:window-x="-8"
     inkscape:window-y="172"
     inkscape:window-maximized="1" />
  <metadata
     id="metadata3023">
    <rdf:RDF>
      <cc:Work
         rdf:about="">
        <dc:format>image/svg+xml</dc:format>
        <dc:type
           rdf:resource="http://purl.org/dc/dcmitype/StillImage" />
        <dc:title>Wawel logo</dc:title>
        <dc:rights>
          <cc:Agent>
            <dc:title>Wawel S.A.</dc:title>
          </cc:Agent>
        </dc:rights>
        <dc:subject>
          <rdf:Bag>
            <rdf:li>wawel</rdf:li>
          </rdf:Bag>
        </dc:subject>
      </cc:Work>
    </rdf:RDF>
  </metadata>
  <g
     inkscape:label="Layer 1"
     inkscape:groupmode="layer"
     id="layer1"
     transform="translate(-272.32156,-373.56493)">
    <path
       d="m 279.49306,415.1061 c 8.81975,-3.96 0.0899,12.33 8.01025,11.79 14.0395,-0.99 9.35988,-14.4 10.34963,-23.58 0.63037,-6.21 7.20012,-14.94 9.36037,-9.18 4.31975,11.97 9.71963,28.35 18.17963,42.48 4.23,7.2 16.29,20.61 17.37012,17.64 3.51025,-9.9 -4.04975,-19.17 -8.54975,-29.7 -3.4205,-8.19 -9.45025,-16.65 -4.59037,-24.66 5.40037,-8.73 9.90037,12.6 14.31,19.8 5.85012,9.45 17.46,28.53 20.07037,24.57 2.96975,-4.5 -1.4405,-20.25 -6.39012,-33.21 -2.87988,-7.47 -9,-8.01 -14.12988,-13.32 -6.66025,-7.11 -9.90037,-18 -6.03025,-22.5 6.57025,-7.74 14.66988,13.23 23.04,25.56 2.79,4.14 7.74025,2.61 12.96001,2.34 7.92025,-0.45 6.39025,-15.39 26.28025,-20.43 3.24,-0.81 6.93,-0.54 8.37,0.9 3.06,3.24 1.17,16.74 1.44,30.51 0.18,7.65 2.43,22.41 8.37,21.87 11.88,-0.99 -4.59,-44.82 10.98,-54.27 8.19,-4.95 4.41,7.11 3.87,19.53 -0.72,16.02 -1.35,35.55 3.87,35.28 9.72,-0.63 9.09,-15.75 8.91,-29.88 -0.09,-9.99 -0.09,-19.53 5.13,-22.95 8.19,-5.4 5.76,4.77 4.32,17.19 -1.62,15.03 -0.9,36.54 4.86,37.08 2.7,0.27 4.86,-2.88 7.29,-8.55 6.75,-15.57 -1.8,-20.61 -1.35,-31.41 0.36,-7.02 3.87,-15.93 9.54,-13.77 9.27,3.51 -3.24,33.3 4.5,35.64 5.76,1.71 6.66,-10.35 21.06,-21.87 12.24,-9.81 22.86,1.71 22.41,9.9 -1.26,19.71 -21.15,23.22 -25.29,22.23 -4.77,-1.08 4.95,-5.49 11.25,-13.41 4.05,-5.04 6.75,-12.24 0.99,-14.76 -6.66,-2.88 -27.54,36.72 -16.92,45.81 12.24,10.35 48.69,-42.21 56.79,-50.31 3.51,-3.42 14.49,-1.17 11.25,2.52 -17.28,18.99 -30.51,35.55 -40.59,57.87 -2.97,6.57 11.25,-0.9 19.71,-8.73 1.71,-1.62 4.59,5.22 0.81,7.92 -9.9,6.93 -19.44,16.65 -29.88,13.32 -8.19,-2.7 3.06,-16.74 -1.98,-19.98 -0.54,-0.27 -16.02,12.15 -25.38,6.21 -11.61,-7.38 -0.72,-29.43 -7.38,-30.87 -6.12,-1.35 -7.38,26.37 -19.71,25.56 -4.77,-0.36 -7.92,-5.31 -9.81,-13.77 -5.22,9.54 -8.37,12.87 -13.77,13.05 -4.32,0.18 -5.49,-6.57 -8.01,-11.88 -3.69,5.22 -3.96,12.24 -10.71,12.15 -5.58,-0.09 -7.38,-8.1 -11.43,-12.15 -2.34,7.38 -6.75,18.63 -14.04,13.41 -12.42,-8.91 -12.33,-27.63 -13.05,-41.13 0,-0.63 -13.41026,-1.35 -12.33026,0.27 5.94,8.91 14.85026,43.92 7.02013,48.96 -6.75,4.32 -17.91025,-8.19 -21.60013,-11.07 0.18013,4.59 6.48,24.21 -0.27,24.84 -18.62987,1.71 -40.04987,-40.5 -45.98975,-54.54 -3.15037,6.3 -7.02,16.47 -14.85012,17.91 -7.74025,1.35 -13.32038,-1.89 -15.03025,-8.01 -2.52,-9.09 1.43987,-12.06 6.39012,-14.22 z m 117.18026,-24.3 c 4.14,-0.63 3.15,37.71 3.06,39.87 -0.27,4.05 -5.49,12.15 -7.56,7.65 -13.95,-30.42 2.34,-47.07 4.5,-47.52"
       inkscape:connector-curvature="0"
       id="path20"
       style="fill:#891c33;fill-opacity:1;fill-rule:evenodd;stroke:none" />
  </g>
</svg>
