<?xml version="1.0" encoding="UTF-8" standalone="no"?>
<!-- Created with Inkscape (http://www.inkscape.org/) -->

<svg
   xmlns:dc="http://purl.org/dc/elements/1.1/"
   xmlns:cc="http://creativecommons.org/ns#"
   xmlns:rdf="http://www.w3.org/1999/02/22-rdf-syntax-ns#"
   xmlns:svg="http://www.w3.org/2000/svg"
   xmlns="http://www.w3.org/2000/svg"
   xmlns:sodipodi="http://sodipodi.sourceforge.net/DTD/sodipodi-0.dtd"
   xmlns:inkscape="http://www.inkscape.org/namespaces/inkscape"
   width="242"
   height="50.300018"
   viewBox="0 0 64.029166 13.308546"
   version="1.1"
   id="svg2738"
   inkscape:version="0.92.0 r15299"
   sodipodi:docname="west cornwall pasty.svg">
  <defs
     id="defs2732" />
  <sodipodi:namedview
     id="base"
     pagecolor="#ffffff"
     bordercolor="#666666"
     borderopacity="1.0"
     inkscape:pageopacity="0.0"
     inkscape:pageshadow="2"
     inkscape:zoom="3.7375"
     inkscape:cx="120"
     inkscape:cy="24.150009"
     inkscape:document-units="mm"
     inkscape:current-layer="layer1"
     showgrid="false"
     fit-margin-top="0"
     fit-margin-left="0"
     fit-margin-right="0"
     fit-margin-bottom="0"
     units="px"
     inkscape:window-width="1280"
     inkscape:window-height="744"
     inkscape:window-x="-4"
     inkscape:window-y="-4"
     inkscape:window-maximized="1" />
  <metadata
     id="metadata2735">
    <rdf:RDF>
      <cc:Work
         rdf:about="">
        <dc:format>image/svg+xml</dc:format>
        <dc:type
           rdf:resource="http://purl.org/dc/dcmitype/StillImage" />
        <dc:title></dc:title>
      </cc:Work>
    </rdf:RDF>
  </metadata>
  <g
     inkscape:label="Layer 1"
     inkscape:groupmode="layer"
     id="layer1"
     transform="translate(-123.22024,-159.30139)">
    <g
       id="g2804"
       transform="translate(0.26458541,-0.26457764)">
      <polygon
         transform="matrix(0.26458333,0,0,0.26458333,122.55878,159.53951)"
         id="polygon2613"
         points="19.9,14.2 15.6,3.3 14.4,3.3 10.1,14.2 6.9,3.5 9.1,3.5 9.1,1.5 2.5,1.5 2.5,3.5 4.4,3.5 9.1,18.7 10.5,18.7 15,7.5 19.4,18.7 20.7,18.7 25.4,3.5 27.3,3.5 27.3,1.5 20.7,1.5 20.7,3.5 22.9,3.5 "
         class="st0"
         style="fill:#3c3935" />
      <polygon
         transform="matrix(0.26458333,0,0,0.26458333,122.55878,159.53951)"
         id="polygon2615"
         points="40.8,10.8 40.8,8.8 35.5,8.8 35.5,3.5 41.3,3.5 41.3,5.9 43.5,5.9 43.5,1.5 31.1,1.5 31.1,3.5 33.1,3.5 33.1,16.3 31.1,16.3 31.1,18.4 43.5,18.4 43.5,14 41.3,14 41.3,16.4 35.5,16.4 35.5,10.8 "
         class="st0"
         style="fill:#3c3935" />
      <path
         id="path2617"
         d="m 136.8992,161.84138 c -0.50271,-0.1852 -0.92605,-0.37041 -0.92605,-0.8202 0,-0.37042 0.29105,-0.635 0.79375,-0.635 0.29105,0 0.55563,0.0794 0.66146,0.1852 -0.0265,0.0529 -0.0529,0.1323 -0.0529,0.23813 0,0.21167 0.15875,0.39687 0.42333,0.39687 0.21167,0 0.39687,-0.15875 0.39687,-0.44979 0,-0.50271 -0.60854,-0.92604 -1.40229,-0.92604 -0.87312,0 -1.42875,0.52917 -1.42875,1.21708 0,0.79375 0.58209,1.05834 1.37584,1.37584 0.47625,0.18521 0.89958,0.37041 0.89958,0.79375 0,0.44979 -0.34396,0.71437 -0.89958,0.71437 -0.37042,0 -0.66146,-0.10583 -0.82021,-0.23812 0.0529,-0.0794 0.0794,-0.15875 0.0794,-0.29104 0,-0.18521 -0.15875,-0.37042 -0.39687,-0.37042 -0.23813,0 -0.39688,0.18521 -0.39688,0.47625 0,0.47625 0.66146,0.97896 1.53459,0.97896 0.87312,0 1.53458,-0.47625 1.53458,-1.29646 -0.0265,-0.79375 -0.60854,-1.05833 -1.37583,-1.34938 z"
         class="st0"
         inkscape:connector-curvature="0"
         style="fill:#3c3935;stroke-width:0.26458332" />
      <polygon
         transform="matrix(0.26458333,0,0,0.26458333,122.55878,159.53951)"
         id="polygon2619"
         points="65.3,6.2 65.3,3.5 69,3.5 69,16.3 66.8,16.3 66.8,18.4 73.6,18.4 73.6,16.3 71.4,16.3 71.4,3.5 75.2,3.5 75.2,6.2 77.4,6.2 77.4,1.5 63,1.5 63,6.2 "
         class="st0"
         style="fill:#3c3935" />
      <path
         id="path2621"
         d="m 148.46149,164.48722 c 0.66146,0 1.29646,-0.26459 1.71979,-0.71438 l -0.39688,-0.42333 c -0.37041,0.37042 -0.8202,0.58208 -1.34937,0.58208 -1.00542,0 -1.69333,-0.82021 -1.69333,-1.74625 0,-0.97896 0.71437,-1.77271 1.66687,-1.77271 0.50271,0 0.84667,0.18521 0.9525,0.34396 -0.0529,0.0529 -0.10583,0.13229 -0.10583,0.26459 0,0.23812 0.18521,0.39687 0.44979,0.39687 0.23812,0 0.44979,-0.18521 0.44979,-0.47625 0,-0.52917 -0.71437,-1.11125 -1.69333,-1.11125 -1.24354,0 -2.30188,0.97896 -2.30188,2.32833 -0.0265,1.32292 0.92604,2.32834 2.30188,2.32834 z"
         class="st0"
         inkscape:connector-curvature="0"
         style="fill:#3c3935;stroke-width:0.26458332" />
      <path
         id="path2623"
         d="m 153.56795,159.83055 c -1.34938,0 -2.30188,1.00542 -2.30188,2.32833 0,1.32292 0.9525,2.32834 2.27542,2.32834 1.34937,0 2.30187,-1.00542 2.30187,-2.32834 0,-1.29645 -0.9525,-2.32833 -2.27541,-2.32833 z m 0,4.10104 c -0.9525,0 -1.64042,-0.74083 -1.64042,-1.74625 0,-1.00541 0.68792,-1.74625 1.64042,-1.74625 0.9525,0 1.64041,0.74084 1.64041,1.74625 0,1.00542 -0.68791,1.74625 -1.64041,1.74625 z"
         class="st0"
         inkscape:connector-curvature="0"
         style="fill:#3c3935;stroke-width:0.26458332" />
      <path
         id="path2625"
         d="m 159.33586,162.47638 c 0.52917,-0.1852 0.92604,-0.635 0.92604,-1.21708 0,-0.84667 -0.68791,-1.32292 -1.69333,-1.32292 h -1.71979 v 0.55563 h 0.55562 v 3.38667 h -0.55562 v 0.55562 h 1.74625 v -0.55562 h -0.58208 v -1.21709 c 0.10583,0 0.29104,0.0265 0.44979,0.0265 0.0794,0 0.18521,0 0.26458,-0.0265 l 1.00542,1.77271 h 0.9525 v -0.55562 h -0.52917 z m -0.84666,-0.37041 c -0.23813,0 -0.37042,0 -0.50271,-0.0265 v -1.61396 h 0.52916 c 0.66146,0 1.0848,0.26458 1.0848,0.79375 0,0.55563 -0.47625,0.84667 -1.11125,0.84667 z"
         class="st0"
         inkscape:connector-curvature="0"
         style="fill:#3c3935;stroke-width:0.26458332" />
      <polygon
         transform="matrix(0.26458333,0,0,0.26458333,122.55878,159.53951)"
         id="polygon2627"
         points="163.1,3.5 165.1,3.5 165.1,1.5 158.6,1.5 158.6,3.5 160.8,3.5 160.8,13.4 151.6,1.5 147.5,1.5 147.5,3.5 149.6,3.5 149.6,16.3 147.5,16.3 147.5,18.4 154,18.4 154,16.3 151.9,16.3 151.9,5.6 161.8,18.5 163.1,18.5 "
         class="st0"
         style="fill:#3c3935" />
      <polygon
         transform="matrix(0.26458333,0,0,0.26458333,122.55878,159.53951)"
         id="polygon2629"
         points="185.7,14.2 181.5,3.3 180.2,3.3 176,14.2 172.7,3.5 174.9,3.5 174.9,1.5 168.3,1.5 168.3,3.5 170.2,3.5 175,18.7 176.3,18.7 180.8,7.5 185.2,18.7 186.5,18.7 191.2,3.5 193.1,3.5 193.1,1.5 186.5,1.5 186.5,3.5 188.8,3.5 "
         class="st0"
         style="fill:#3c3935" />
      <path
         id="path2631"
         d="m 176.66607,160.46555 h 0.50271 v -0.52917 h -2.24896 v 0.55563 h 0.50271 l -1.27,3.36021 h -0.39688 v 0.55562 h 1.5875 v -0.55562 h -0.55562 l 0.34396,-0.9525 h 1.77271 l 0.34395,0.9525 h -0.52916 v 0.55562 h 1.5875 v -0.55562 h -0.42334 z m -1.34937,1.93146 0.71437,-1.95792 0.71438,1.95792 z"
         class="st0"
         inkscape:connector-curvature="0"
         style="fill:#3c3935;stroke-width:0.26458332" />
      <polygon
         transform="matrix(0.26458333,0,0,0.26458333,122.55878,159.53951)"
         id="polygon2633"
         points="214.4,16.3 214.4,18.4 226.4,18.4 226.4,13.9 224.2,13.9 224.2,16.4 218.8,16.4 218.8,3.5 221.1,3.5 221.1,1.5 214.4,1.5 214.4,3.5 216.5,3.5 216.5,16.3 "
         class="st0"
         style="fill:#3c3935" />
      <polygon
         transform="matrix(0.26458333,0,0,0.26458333,122.55878,159.53951)"
         id="polygon2635"
         points="232.5,16.3 230.5,16.3 230.5,18.4 242.5,18.4 242.5,13.9 240.3,13.9 240.3,16.4 234.9,16.4 234.9,3.5 237.2,3.5 237.2,1.5 230.5,1.5 230.5,3.5 232.5,3.5 "
         class="st0"
         style="fill:#3c3935" />
      <path
         id="path2637"
         d="m 140.10065,168.03263 h -1.74625 v 0.55563 h 0.55563 v 3.38667 h -0.55563 v 0.55562 h 1.74625 v -0.55562 h -0.58208 v -1.03188 c 0.10583,0 0.3175,0.0265 0.55563,0.0265 1.03187,0 1.71979,-0.52917 1.71979,-1.48167 -0.0265,-0.89958 -0.74084,-1.45521 -1.69334,-1.45521 z m 0,2.38125 c -0.29104,0 -0.47625,0 -0.58208,-0.0265 v -1.82563 h 0.58208 c 0.60855,0 1.05834,0.34396 1.05834,0.89958 0,0.60855 -0.39688,0.9525 -1.05834,0.9525 z"
         class="st0"
         inkscape:connector-curvature="0"
         style="fill:#3c3935;stroke-width:0.26458332" />
      <path
         id="path2639"
         d="m 145.18065,168.58826 h 0.50271 v -0.55563 h -2.24896 v 0.55563 h 0.50271 l -1.24354,3.38667 h -0.39687 v 0.55562 h 1.5875 v -0.55562 h -0.55563 l 0.34396,-0.9525 h 1.77271 l 0.34396,0.9525 h -0.52917 v 0.55562 h 1.5875 v -0.55562 h -0.42333 z m -1.34937,1.93146 0.71437,-1.95792 0.71438,1.95792 z"
         class="st0"
         inkscape:connector-curvature="0"
         style="fill:#3c3935;stroke-width:0.26458332" />
      <path
         id="path2641"
         d="m 149.33461,169.96409 c -0.50271,-0.18521 -0.92604,-0.37041 -0.92604,-0.82021 0,-0.37041 0.29104,-0.635 0.79375,-0.635 0.29104,0 0.55563,0.0794 0.66146,0.18521 -0.0529,0.0529 -0.0794,0.13229 -0.0794,0.23813 0,0.21166 0.15875,0.39687 0.42334,0.39687 0.21166,0 0.39687,-0.15875 0.39687,-0.44979 0,-0.50271 -0.60854,-0.92604 -1.40229,-0.92604 -0.87312,0 -1.42875,0.52917 -1.42875,1.21708 0,0.79375 0.58208,1.05834 1.37583,1.37584 0.47625,0.1852 0.87313,0.37041 0.87313,0.79375 0,0.44979 -0.34396,0.71437 -0.89958,0.71437 -0.37042,0 -0.66146,-0.10583 -0.82021,-0.23812 0.0529,-0.0794 0.0794,-0.15875 0.0794,-0.29105 0,-0.1852 -0.15875,-0.37041 -0.39687,-0.37041 -0.23813,0 -0.39688,0.18521 -0.39688,0.47625 0,0.47625 0.66146,0.97896 1.53459,0.97896 0.87312,0 1.53458,-0.47625 1.53458,-1.29646 0.0265,-0.79375 -0.52917,-1.08479 -1.32292,-1.34938 z"
         class="st0"
         inkscape:connector-curvature="0"
         style="fill:#3c3935;stroke-width:0.26458332" />
      <polygon
         transform="matrix(0.26458333,0,0,0.26458333,122.55878,159.53951)"
         id="polygon2643"
         points="120.4,49.1 120.4,47 118.2,47 118.2,34.2 122,34.2 122,36.9 124.2,36.9 124.2,32.1 109.8,32.1 109.8,36.9 112,36.9 112,34.2 115.8,34.2 115.8,47 113.6,47 113.6,49.1 "
         class="st0"
         style="fill:#3c3935" />
      <polygon
         transform="matrix(0.26458333,0,0,0.26458333,122.55878,159.53951)"
         id="polygon2645"
         points="136,40.5 132.4,34.2 134.1,34.2 134.1,32.1 128.1,32.1 128.1,34.2 129.8,34.2 134.8,42.5 134.8,47 132.5,47 132.5,49.1 139.4,49.1 139.4,47 137.1,47 137.1,42.4 142,34.2 143.8,34.2 143.8,32.1 137.8,32.1 137.8,34.2 139.5,34.2 "
         class="st0"
         style="fill:#3c3935" />
      <path
         id="path2647"
         d="m 165.92399,172.0543 c -1.00542,0 -1.69334,-0.82021 -1.69334,-1.74625 0,-0.97896 0.71438,-1.77271 1.66688,-1.77271 0.50271,0 0.84667,0.18521 0.9525,0.34396 -0.0529,0.0529 -0.10583,0.13229 -0.10583,0.26458 0,0.23813 0.1852,0.39688 0.44979,0.39688 0.23812,0 0.44979,-0.18521 0.44979,-0.47625 0,-0.52917 -0.71438,-1.11125 -1.69333,-1.11125 -1.24355,0 -2.30188,0.97896 -2.30188,2.32833 0,1.29646 0.9525,2.30188 2.32833,2.30188 0.66146,0 1.29646,-0.26459 1.7198,-0.71438 l -0.39688,-0.42333 c -0.42333,0.39687 -0.84667,0.60854 -1.37583,0.60854 z"
         class="st0"
         inkscape:connector-curvature="0"
         style="fill:#3c3935;stroke-width:0.26458332" />
      <path
         id="path2649"
         d="m 170.05149,167.95326 c -1.03188,0 -1.69334,0.76729 -1.69334,1.66687 0,0.89959 0.66146,1.66688 1.69334,1.66688 1.00541,0 1.69333,-0.76729 1.69333,-1.66688 0,-0.89958 -0.66146,-1.66687 -1.69333,-1.66687 z m 0,2.80458 c -0.60854,0 -1.03188,-0.47625 -1.03188,-1.11125 0,-0.66146 0.42334,-1.13771 1.03188,-1.13771 0.60854,0 1.00541,0.47625 1.00541,1.13771 0.0265,0.635 -0.39687,1.11125 -1.00541,1.11125 z"
         class="st0"
         inkscape:connector-curvature="0"
         style="fill:#3c3935;stroke-width:0.26458332" />
      <rect
         id="rect2651"
         height="0.37041667"
         width="3.0956249"
         class="st0"
         y="172.16014"
         x="168.51689"
         style="fill:#3c3935;stroke-width:0.26458332" />
    </g>
  </g>
</svg>
