<?xml version="1.0" encoding="UTF-8" standalone="no"?>
<!-- Created with Inkscape (http://www.inkscape.org/) by Marsupilami -->
<svg
   xmlns:svg="http://www.w3.org/2000/svg"
   xmlns="http://www.w3.org/2000/svg"
   version="1.0"
   width="1024"
   height="287"
   viewBox="0 0 162.99637 45.632008"
   id="svg2334">
  <defs
     id="defs2336" />
  <g
     transform="translate(-345.94709,-60.149244)"
     id="layer1">
    <path
       d="M 494.03125,60.15625 C 492.90339,60.040751 491.79325,61.359375 491.0625,63.65625 C 490.06975,66.769876 489.625,70.831125 489.625,75.5 C 489.62501,77.518003 489.8415,79.553375 490.03125,81.4375 C 482.28312,84.719122 479.34013,93.84875 479.3125,93.9375 C 478.05701,97.904378 476.3435,99.4375 475.28125,99.1875 C 474.27974,98.942877 473.53125,97.227125 473.53125,93.96875 C 473.53124,92.564126 473.6445,90.902875 473.96875,88.90625 C 473.98763,88.845621 474,88.7615 474,88.6875 C 474.00001,88.358748 473.87325,88.031625 473.625,87.75 C 473.36163,87.438253 472.9955,87.238375 472.59375,87.125 C 472.88175,86.872753 473.0625,86.526375 473.0625,86.125 C 473.0625,86.040752 473.0525,85.937 473.03125,85.84375 C 472.88175,84.889374 471.91087,83.899375 470.59375,83.9375 C 469.53664,83.965624 464.01662,84.592125 459.8125,94.90625 C 459.28188,96.794751 456.08238,100.01163 453.59375,100.125 C 452.38077,100.18787 451.48525,99.50325 450.90625,98.125 C 455.41676,94.942998 457.34375,90.9385 457.34375,88.03125 C 457.34374,87.752748 457.31688,87.479125 457.28125,87.21875 C 457.09151,85.746248 456.31987,84.691625 455.15625,84.28125 C 453.90425,83.841376 452.46775,84.24525 451.09375,85.40625 C 448.92713,87.258002 446.96875,91.062875 446.96875,95.09375 C 446.96877,95.724752 447.01925,96.393 447.125,97.03125 C 446.17187,97.420375 444.9325,97.5165 443.75,97.28125 C 442.98886,97.136376 442.56075,97.56675 442.46875,98.0625 C 442.31925,98.806998 442.86037,99.725125 444.0625,99.96875 C 445.49799,100.264 446.6655,100.17038 447.875,99.65625 C 449.07188,102.17225 450.58787,103.54737 452.40625,103.75 C 455.40188,104.08013 458.19288,101.16125 459.53125,99.5 C 459.72612,102.39813 460.84813,104.35825 462.5625,104.625 C 464.64239,104.94438 467.77738,102.693 470.40625,95.53125 C 471.06739,99.958504 472.31675,102.50513 474.09375,102.84375 C 475.62688,103.13212 477.40362,101.71937 479,99.03125 C 479.24601,102.046 480.157,103.96038 481.65625,104.40625 C 483.07901,104.83562 484.85037,103.87112 486.28125,101.90625 C 488.52163,98.824128 490.176,95.489125 491.21875,92 C 492.14438,98.337627 493.94788,102.07912 496.375,102.5625 C 498.145,102.91 499.98837,101.48813 501.71875,98.4375 C 502.19186,97.617873 501.90487,96.617 501.34375,96.28125 C 501.1455,96.163253 500.45687,95.8815 499.71875,97.03125 C 498.84613,98.353375 498.04025,98.931875 497.3125,98.75 C 495.2125,98.252002 493.74687,91.92475 493.09375,86.15625 C 494.52301,81.393873 496.1875,74.894 496.1875,67.8125 C 496.18749,66.365501 496.1275,64.905625 495.96875,63.4375 C 495.75264,61.484749 495.0425,60.251625 494.03125,60.15625 z M 353.09375,60.84375 C 352.25719,60.789177 351.13303,61.505953 350.53125,62.875 C 345.94975,73.311249 345.11375,86.84625 346.65625,94.28125 C 348.17125,101.594 350.96562,105.7835 354.3125,105.78125 C 357.08976,105.77288 359.62375,102.63637 360.78125,97.9375 C 361.62474,101.133 363.0825,103.02662 364.96875,103.25 C 366.92501,103.49037 369.08288,101.81262 370.4375,99 C 372.13662,95.494128 372.96875,91.506875 372.96875,86.875 C 372.96874,85.570628 372.91375,84.2135 372.78125,82.8125 C 373.45214,83.663878 374.23613,83.985875 374.84375,84.09375 C 375.7895,84.255501 376.6845,84.014 377.28125,83.65625 C 377.04537,86.005999 376.90625,89.074125 376.90625,92.125 C 376.90625,95.541128 377.073,98.919125 377.46875,101.21875 C 377.66264,102.30212 378.38188,103.09125 379.21875,103.125 C 380.04201,103.162 380.69937,102.49863 381,101.34375 C 381.56337,99.246373 383.058,94.9535 384,93.3125 C 384.76599,91.977 385.59425,91.255875 386.21875,91.375 C 386.72351,91.468125 387.11075,92.148 387.28125,93.25 L 387.59375,95.34375 C 387.87075,97.292498 388.09862,98.979 388.5,100.53125 C 388.93288,102.2025 389.77025,103.227 390.84375,103.4375 C 391.83624,103.63012 392.90875,103.096 393.71875,102 C 394.72151,100.64538 395.59937,98.7375 396.25,96.625 C 396.87938,99.466753 398.2585,101.28475 399.96875,101.375 C 402.39601,101.50313 404.72587,98.355625 406.40625,92.75 C 407.09725,100.89475 409.70063,103.1665 411.84375,103.59375 C 414.43189,104.1085 417.19088,102.06675 418.5625,99.6875 C 418.96375,101.43187 419.54175,102.45488 420.34375,102.71875 C 420.93412,102.91975 421.63288,102.69938 422.375,102.09375 C 422.50726,102.44688 422.68712,102.70688 422.96875,102.8125 C 423.5765,103.02125 424.472,102.60562 425.65625,101.5625 C 427.10438,100.27063 428.64213,96.97 429.5625,94.25 C 431.41237,92.360877 434.00575,89.90675 435.21875,90.28125 C 435.57161,90.392376 435.83287,90.79575 435.9375,91.46875 C 436.15011,92.661751 435.9205,98.315375 435.71875,100.25 C 435.63074,101.14825 435.97037,101.897 436.65625,102.34375 C 437.30011,102.75762 438.12075,102.80737 438.71875,102.46875 C 439.28613,102.14037 439.572,101.5565 439.53125,100.78125 C 439.32249,96.448875 440.509,88.03625 444.28125,87.25 C 444.74001,87.156872 445.43762,87.295125 445.71875,87.4375 C 446.26601,87.720124 446.90138,87.6905 447.375,87.34375 C 447.88839,86.97375 448.1185,86.315125 448,85.59375 C 447.87014,84.762877 447.31012,84.09425 446.4375,83.78125 C 445.07789,83.282123 443.36075,83.693 442.09375,84.8125 C 439.92126,86.717875 439.06262,89.02225 438.375,91.3125 C 438.10539,89.38575 437.46137,88.210875 436.4375,87.8125 C 434.77451,87.188001 432.54737,88.708375 430.78125,90.34375 C 431.02851,89.554126 431.21875,88.60275 431.21875,87.65625 C 431.21876,86.467503 430.93925,85.308875 430.15625,84.46875 C 428.65701,82.870499 425.755,82.82625 421.5625,84.34375 C 421.94938,80.409126 422.46887,76.363125 423.625,73.03125 C 424.00614,72.819 424.23688,72.291875 424.34375,71.96875 C 424.47662,71.563996 424.5625,71.10375 424.5625,70.625 C 424.5625,70.020254 424.44175,69.400625 424.125,68.9375 C 423.62951,68.223125 423.12038,67.909625 422.59375,67.96875 C 421.91888,68.048496 421.32337,68.746875 420.78125,70.125 C 419.65339,72.977498 418.20887,81.504875 418.125,85.71875 C 416.88212,86.298503 416.25,86.883 416.25,87.5 C 416.24999,87.524752 416.25,87.545625 416.25,87.5625 C 416.29487,88.372249 417.374,88.863375 418.09375,89.125 C 418.09375,90.302504 418.12375,94.8325 418.375,97.0625 C 416.17999,99.543374 414.25575,100.52888 412.78125,99.90625 C 410.72261,99.039379 409.5,95.09375 409.5,89.6875 C 409.50001,88.757747 409.52187,87.7865 409.59375,86.78125 C 411.01599,86.400003 413.01525,86.061875 414.53125,86.21875 C 415.466,86.317502 415.88363,85.990125 416.0625,85.71875 C 416.29751,85.376622 416.286,84.920875 416.03125,84.4375 C 415.70474,83.822625 414.9515,83.1875 414,83.1875 C 412.22375,83.187498 411.1285,83.45225 409.90625,83.875 C 410.04776,82.956499 410.25037,82.010875 410.5625,81.125 C 411.27124,79.628753 411.60925,78.309875 411.6875,76.59375 C 411.68751,76.534498 411.6875,76.4925 411.6875,76.4375 C 411.68751,75.404626 411.2255,74.623125 410.5,74.5 C 409.67562,74.358503 408.518,75.100625 407.75,77.59375 C 406.86813,80.455997 406.57438,82.565 406.375,85.21875 C 404.97514,85.83675 403.87238,86.40775 402.9375,87.03125 C 402.47688,87.331879 402.21875,87.8155 402.21875,88.34375 C 402.21876,88.388998 402.2165,88.454 402.21875,88.5 C 402.25238,88.920499 402.47975,89.243625 402.78125,89.375 C 402.93626,89.442248 403.24212,89.5115 403.625,89.21875 C 403.94,88.968622 405.06763,88.33675 405.84375,87.96875 C 403.94839,94.832746 401.81137,97.819875 400.5,97.71875 C 399.85301,97.66825 399.40575,96.809625 399.25,95.34375 C 399.10175,93.845373 399.2725,90.1315 399.65625,87.25 C 399.76486,86.429 399.51725,85.75 398.96875,85.34375 C 398.41601,84.940129 397.613,84.872375 396.9375,85.1875 C 396.21361,85.516253 395.78162,86.186875 395.71875,87.03125 C 395.44063,90.904372 394.86437,94.12625 393.96875,96.625 C 393.11625,99.037251 392.48763,99.168625 392.3125,99.15625 C 392.13875,99.132625 391.53325,98.88875 391.125,96.3125 C 390.85361,94.576125 390.33813,91.349625 389.65625,89.03125 C 389.17036,87.364503 388.19912,86.33075 387,86.21875 C 385.587,86.088502 384.1505,87.229375 383.0625,89.375 C 381.91638,91.634625 381.04237,93.75825 380.34375,95.90625 C 380.27864,94.867623 380.21875,93.432375 380.21875,91.59375 C 380.21875,88.936872 380.36512,85.484875 380.8125,81.3125 C 384.50938,77.026003 385.75,70.924375 385.75,66.28125 C 385.75001,63.986251 385.08112,62.506625 383.96875,62.28125 C 382.82801,62.052376 381.596,63.227875 380.65625,65.4375 C 379.16424,68.967122 377.94863,74.9675 377.5,81.125 C 376.80587,81.787873 375.994,82.01425 375.1875,81.8125 C 373.88988,81.482623 372.7875,80.095375 372.15625,77.96875 C 371.76237,75.071626 370.93012,72.207625 369.96875,70.5625 C 369.33188,69.468878 368.37213,68.907375 367.59375,69.15625 C 367.255,69.261877 366.53125,69.68075 366.53125,71.25 C 366.53126,71.397 366.552,71.577375 366.5625,71.75 C 366.87512,75.423378 367.92337,77.19375 369.625,79.78125 C 369.98063,82.272123 370.125,84.736625 370.125,87 C 370.12501,91.607378 369.48975,95.42175 368.59375,97.03125 C 367.70538,98.645875 366.6545,99.35125 365.625,99.03125 C 363.83936,98.473751 362.26612,94.74825 362.84375,88.9375 C 362.91561,88.176003 362.66775,87.547125 362.15625,87.21875 C 361.60101,86.861999 360.81025,86.889875 360.125,87.28125 C 359.34438,87.728751 358.89625,88.534375 358.9375,89.46875 C 359.23475,96.816126 356.93325,100.92437 354.625,101.0625 C 352.52649,101.18488 350.13575,98.002875 349.5625,90.59375 C 348.80549,80.823621 351.2445,71.613125 353.96875,63.125 C 354.49926,61.460875 353.69437,61.00475 353.4375,60.90625 C 353.33178,60.866844 353.21326,60.851546 353.09375,60.84375 z M 493.4375,65.25 C 493.47201,65.413746 493.52913,65.705125 493.5625,66.21875 C 493.57739,66.365625 493.5625,66.547875 493.5625,66.75 C 493.5625,68.819001 493.30662,74.3385 492.34375,78.34375 C 492.32125,77.928749 492.3125,77.492125 492.3125,77.03125 C 492.3125,73.463503 492.39137,68.96225 493.125,66.375 C 493.26861,65.741246 493.372,65.418125 493.4375,65.25 z M 502.625,65.71875 L 502.625,66.125 C 502.62499,66.125003 503.33825,66.125 503.375,66.125 C 503.37499,66.166503 503.375,68.125 503.375,68.125 L 503.84375,68.125 C 503.84376,68.125002 503.84375,66.1665 503.84375,66.125 C 503.88339,66.125003 504.59375,66.125 504.59375,66.125 L 504.59375,65.71875 L 502.625,65.71875 z M 505.125,65.71875 L 505.125,68.125 L 505.5625,68.125 C 505.56249,68.125002 505.53125,66.438375 505.53125,66.25 C 505.59787,66.426003 506.25,68.125 506.25,68.125 L 506.625,68.125 C 506.62499,68.125002 507.27587,66.426 507.34375,66.25 C 507.34376,66.438378 507.3125,68.125 507.3125,68.125 L 507.75,68.125 L 507.75,65.71875 L 507.125,65.71875 C 507.12499,65.718747 506.47375,67.434625 506.4375,67.53125 C 506.39612,67.434628 505.75,65.71875 505.75,65.71875 L 505.125,65.71875 z M 382.9375,67.0625 C 382.98874,67.172248 383.0625,67.420625 383.0625,67.90625 C 383.0625,70.060629 382.3715,74.10775 381.03125,76.9375 C 381.36663,74.198748 381.92312,69.965375 382.59375,67.875 C 382.77425,67.329625 382.88025,67.1385 382.9375,67.0625 z M 501.90625,68.59375 C 501.78613,68.627374 501.71438,68.75975 501.75,68.875 C 502.20012,70.347875 503.672,71.375 505.34375,71.375 C 507.01437,71.375001 508.49138,70.347875 508.9375,68.875 C 508.96451,68.75975 508.89738,68.627375 508.78125,68.59375 C 508.66113,68.557749 508.52925,68.630125 508.5,68.75 C 508.11762,70.025246 506.81887,70.9375 505.34375,70.9375 C 503.86812,70.9375 502.5675,70.02525 502.1875,68.75 C 502.14725,68.630121 502.02475,68.55775 501.90625,68.59375 z M 398.4375,78.6875 C 397.31587,78.6875 396.40625,79.5895 396.40625,80.71875 C 396.40625,81.848376 397.31588,82.78125 398.4375,82.78125 C 399.60837,82.78125 400.4375,81.90525 400.4375,80.71875 C 400.43749,79.589501 399.54775,78.6875 398.4375,78.6875 z M 490.25,85.5625 C 489.53714,89.137878 487.8615,94.474125 486.875,96.375 C 485.5125,98.977127 484.02737,100.5165 483.09375,100.28125 C 482.43951,100.11287 482.0625,98.990625 482.0625,97.1875 C 482.06249,97.145874 482.0625,97.10425 482.0625,97.0625 C 482.11537,91.632746 486.91113,86.691875 490.25,85.5625 z M 426.71875,86.4375 C 427.48911,86.368999 428.0565,86.589 428.375,87.09375 C 428.59176,87.436998 428.6875,87.902375 428.6875,88.46875 C 428.68751,89.777622 428.103,91.6015 427.0625,93.375 C 425.90924,94.318124 423.65237,96.9315 422.28125,100.15625 C 422.27325,100.1415 422.26662,100.15088 422.25,100.125 C 421.56988,99.190872 421.21875,94.180125 421.21875,90.84375 C 421.21876,89.750125 421.26725,88.852875 421.34375,88.3125 C 422.60563,87.509371 424.92287,86.59775 426.71875,86.4375 z M 453.21875,87.75 C 453.42759,87.720897 453.59247,87.741563 453.75,87.8125 C 454.13688,87.992126 454.4375,88.469625 454.4375,89.21875 C 454.43749,89.618247 454.35062,90.10075 454.15625,90.65625 C 453.46638,92.654499 452.09287,94.295875 450.15625,95.5625 C 450.082,95.127246 450.0625,94.643625 450.0625,94.125 C 450.06251,92.620375 450.36513,90.889125 451.0625,89.65625 C 451.77604,88.39878 452.59223,87.83731 453.21875,87.75 z M 470.40625,87.875 C 469.44501,93.4225 467.72037,96.615 466.3125,98.75 C 465.32789,100.2355 464.165,101.00887 463.3125,100.75 C 462.60875,100.54337 462.1875,99.62125 462.1875,98.1875 C 462.1875,95.315875 465.71012,88.984375 470.40625,87.875 z "
       style="fill:#19215a;fill-opacity:1;fill-rule:nonzero;stroke:none"
       id="path8540" />
  </g>
</svg>
