<?xml version="1.0" encoding="UTF-8" standalone="no"?>
<!-- Created with Inkscape (http://www.inkscape.org/) -->

<svg
   xmlns:dc="http://purl.org/dc/elements/1.1/"
   xmlns:cc="http://creativecommons.org/ns#"
   xmlns:rdf="http://www.w3.org/1999/02/22-rdf-syntax-ns#"
   xmlns:svg="http://www.w3.org/2000/svg"
   xmlns="http://www.w3.org/2000/svg"
   xmlns:sodipodi="http://sodipodi.sourceforge.net/DTD/sodipodi-0.dtd"
   xmlns:inkscape="http://www.inkscape.org/namespaces/inkscape"
   width="147.34615"
   height="22.42123"
   viewBox="0 0 38.985336 5.9322836"
   version="1.1"
   id="svg1733"
   inkscape:version="0.92.0 r15299"
   sodipodi:docname="winn dixie.svg">
  <defs
     id="defs1727">
    <clipPath
       id="clipPath666-8"
       clipPathUnits="userSpaceOnUse">
      <path
         inkscape:connector-curvature="0"
         id="path664-7"
         d="M 251.121,711.917 H 360.88 V 746.48 H 251.121 Z" />
    </clipPath>
  </defs>
  <sodipodi:namedview
     id="base"
     pagecolor="#ffffff"
     bordercolor="#666666"
     borderopacity="1.0"
     inkscape:pageopacity="0.0"
     inkscape:pageshadow="2"
     inkscape:zoom="6.129366"
     inkscape:cx="73.173265"
     inkscape:cy="-1.6208745"
     inkscape:document-units="mm"
     inkscape:current-layer="layer1"
     showgrid="false"
     fit-margin-top="0"
     fit-margin-left="0"
     fit-margin-right="0"
     fit-margin-bottom="0"
     units="px"
     inkscape:window-width="1280"
     inkscape:window-height="744"
     inkscape:window-x="-4"
     inkscape:window-y="-4"
     inkscape:window-maximized="1" />
  <metadata
     id="metadata1730">
    <rdf:RDF>
      <cc:Work
         rdf:about="">
        <dc:format>image/svg+xml</dc:format>
        <dc:type
           rdf:resource="http://purl.org/dc/dcmitype/StillImage" />
        <dc:title></dc:title>
      </cc:Work>
    </rdf:RDF>
  </metadata>
  <g
     inkscape:label="Layer 1"
     inkscape:groupmode="layer"
     id="layer1"
     transform="translate(-80.425288,-174.97815)">
    <g
       id="g1969"
       transform="translate(0.13229118,-0.13228791)">
      <path
         d="m 87.704857,175.33333 c -0.07691,-0.0219 -0.161925,-0.0423 -0.255058,-0.0617 -0.09313,-0.019 -0.202848,-0.0289 -0.329142,-0.0289 -0.367242,0 -0.608542,0.2032 -0.7239,0.60889 l -0.929217,3.35598 -0.970491,-3.42195 c -0.05503,-0.19191 -0.138642,-0.3302 -0.250825,-0.41522 -0.112536,-0.085 -0.264584,-0.1277 -0.456847,-0.1277 -0.115006,0 -0.295981,0.0247 -0.542573,0.0741 l 0.378531,1.39841 -0.80645,2.58269 -1.068917,-3.52037 c -0.05503,-0.18627 -0.141464,-0.32209 -0.259291,-0.40711 -0.117828,-0.085 -0.27305,-0.1277 -0.464609,-0.1277 -0.08784,0 -0.193322,0.0113 -0.316794,0.0332 -0.123472,0.0219 -0.218017,0.0466 -0.283986,0.0741 l 1.834444,5.47793 h 0.921103 l 0.896761,-2.87902 0.929217,2.87902 h 0.929569 z"
         style="fill:#cd1421;fill-opacity:1;fill-rule:nonzero;stroke:none;stroke-width:0.35277778"
         id="path706-4"
         inkscape:connector-curvature="0" />
      <path
         d="m 89.133784,177.53968 c 0,-0.43497 -0.248003,-0.65264 -0.743656,-0.65264 -0.07161,0 -0.148519,0.004 -0.231069,0.0123 -0.0829,0.008 -0.132292,0.0152 -0.148872,0.0208 v 3.30447 c 0,0.23707 0.05644,0.41063 0.169333,0.5207 0.112889,0.11007 0.29845,0.1651 0.557742,0.1651 0.225778,0 0.357716,-0.0109 0.396522,-0.0328 z"
         style="fill:#cd1421;fill-opacity:1;fill-rule:nonzero;stroke:none;stroke-width:0.35277778"
         id="path710-2"
         inkscape:connector-curvature="0" />
      <path
         d="m 88.968507,175.43289 c -0.115711,-0.11571 -0.258939,-0.17357 -0.429683,-0.17357 -0.176389,0 -0.321028,0.0579 -0.433564,0.17357 -0.112889,0.11571 -0.169334,0.25894 -0.169334,0.42968 0,0.17075 0.05645,0.31256 0.169334,0.42545 0.112536,0.11289 0.257175,0.16934 0.433564,0.16934 0.170744,0 0.313972,-0.0564 0.429683,-0.16934 0.115711,-0.11289 0.173214,-0.2547 0.173214,-0.42545 0,-0.17074 -0.0575,-0.31397 -0.173214,-0.42968"
         style="fill:#cd1421;fill-opacity:1;fill-rule:nonzero;stroke:none;stroke-width:0.35277778"
         id="path714-9"
         inkscape:connector-curvature="0" />
      <path
         d="m 90.803269,178.15107 c 0,-0.12665 0.07161,-0.23248 0.214842,-0.31821 0.143227,-0.0854 0.319264,-0.12805 0.528814,-0.12805 0.148519,0 0.265641,0.0236 0.351366,0.0705 0.08502,0.0466 0.145697,0.12242 0.181328,0.22719 0.03598,0.10442 0.05362,0.28646 0.05362,0.54504 v 2.28036 h 1.12395 v -2.32975 c 0,-0.37465 -0.02223,-0.65828 -0.06632,-0.8509 -0.06068,-0.2868 -0.192969,-0.49847 -0.396522,-0.63641 -0.203553,-0.13758 -0.481895,-0.20673 -0.83432,-0.20673 -0.55633,0 -0.961319,0.1711 -1.214614,0.51259 -0.06068,-0.28645 -0.294569,-0.42968 -0.702027,-0.42968 -0.09384,0 -0.184856,0.005 -0.272698,0.0166 l -0.09948,0.0162 v 3.90807 h 1.132064 z"
         style="fill:#cd1421;fill-opacity:1;fill-rule:nonzero;stroke:none;stroke-width:0.35277778"
         id="path718-2"
         inkscape:connector-curvature="0" />
      <path
         d="m 94.926395,178.15107 c 0,-0.12665 0.07161,-0.23248 0.214842,-0.31821 0.143227,-0.0854 0.319264,-0.12805 0.528814,-0.12805 0.148519,0 0.265641,0.0236 0.351013,0.0705 0.08537,0.0466 0.14605,0.12242 0.181681,0.22719 0.03598,0.10442 0.05362,0.28646 0.05362,0.54504 v 2.28036 h 1.12395 v -2.32975 c 0,-0.37465 -0.02223,-0.65828 -0.06632,-0.8509 -0.06068,-0.2868 -0.192969,-0.49847 -0.396522,-0.63641 -0.203553,-0.13758 -0.481895,-0.20673 -0.83432,-0.20673 -0.55633,0 -0.961319,0.1711 -1.214614,0.51259 -0.06068,-0.28645 -0.294569,-0.42968 -0.702027,-0.42968 -0.09384,0 -0.184856,0.005 -0.272698,0.0166 l -0.09948,0.0162 v 3.90807 h 1.132064 z"
         style="fill:#cd1421;fill-opacity:1;fill-rule:nonzero;stroke:none;stroke-width:0.35277778"
         id="path722-7"
         inkscape:connector-curvature="0" />
      <path
         d="m 106.03325,177.98583 c 0,0.68862 -0.13229,1.18957 -0.39652,1.50354 -0.26459,0.31432 -0.68051,0.47096 -1.24742,0.47096 h -0.45473 v -3.80859 c 0.17638,-0.0166 0.34184,-0.0247 0.49565,-0.0247 0.5401,0 0.94191,0.15276 1.2065,0.45826 0.26423,0.30586 0.39652,0.77259 0.39652,1.40053 m 1.15676,-0.0166 c 0,-0.90311 -0.23848,-1.58327 -0.71473,-2.04047 -0.4766,-0.4572 -1.18569,-0.6858 -2.1276,-0.6858 -0.52352,0 -1.04105,0.0328 -1.55328,0.0991 v 5.4857 h 1.76001 c 0.53975,0 1.00647,-0.11289 1.40017,-0.33867 0.39405,-0.22578 0.6985,-0.55633 0.91299,-0.99166 0.21484,-0.43462 0.32244,-0.94403 0.32244,-1.52823"
         style="fill:#cd1421;fill-opacity:1;fill-rule:nonzero;stroke:none;stroke-width:0.35277778"
         id="path726-8"
         inkscape:connector-curvature="0" />
      <path
         d="m 108.76435,177.53968 c 0,-0.43497 -0.248,-0.65264 -0.74366,-0.65264 -0.0716,0 -0.14851,0.004 -0.23106,0.0123 -0.0829,0.008 -0.1323,0.0152 -0.14923,0.0208 v 3.30447 c 0,0.23707 0.0568,0.41063 0.16969,0.5207 0.11289,0.11007 0.2988,0.1651 0.55774,0.1651 0.22578,0 0.35807,-0.0109 0.39652,-0.0328 z"
         style="fill:#cd1421;fill-opacity:1;fill-rule:nonzero;stroke:none;stroke-width:0.35277778"
         id="path730-1"
         inkscape:connector-curvature="0" />
      <path
         d="m 108.59914,175.43289 c -0.11571,-0.11571 -0.25894,-0.17357 -0.42968,-0.17357 -0.17639,0 -0.32103,0.0579 -0.43357,0.17357 -0.11289,0.11571 -0.16933,0.25894 -0.16933,0.42968 0,0.17075 0.0564,0.31256 0.16933,0.42545 0.11254,0.11289 0.25718,0.16934 0.43357,0.16934 0.17074,0 0.31397,-0.0564 0.42968,-0.16934 0.11571,-0.11289 0.17321,-0.2547 0.17321,-0.42545 0,-0.17074 -0.0575,-0.31397 -0.17321,-0.42968"
         style="fill:#cd1421;fill-opacity:1;fill-rule:nonzero;stroke:none;stroke-width:0.35277778"
         id="path734-7"
         inkscape:connector-curvature="0" />
      <path
         d="m 110.6382,177.34141 c -0.0882,-0.1651 -0.18874,-0.28363 -0.30162,-0.35525 -0.11289,-0.0716 -0.25189,-0.10759 -0.41734,-0.10759 -0.20355,0 -0.42933,0.0416 -0.67733,0.12417 l 1.15675,1.8669 -1.25588,1.95827 h 1.18145 l 0.67733,-1.13206 0.49601,0.77682 c 0.0991,0.1598 0.2106,0.27269 0.33443,0.33866 0.12418,0.066 0.29598,0.0991 0.51647,0.0991 0.18168,0 0.35524,-0.0332 0.5207,-0.0991 l -1.2065,-1.90006 1.25589,-1.88383 c -0.22049,-0.0935 -0.41593,-0.14041 -0.58667,-0.14041 -0.18168,0 -0.33338,0.036 -0.45438,0.10725 -0.12136,0.0716 -0.24236,0.20672 -0.36372,0.40499 l -0.44591,0.72672 z"
         style="fill:#cd1421;fill-opacity:1;fill-rule:nonzero;stroke:none;stroke-width:0.35277778"
         id="path738-9"
         inkscape:connector-curvature="0" />
      <path
         d="m 114.36784,177.53968 c 0,-0.43497 -0.248,-0.65264 -0.74366,-0.65264 -0.0713,0 -0.14851,0.004 -0.23106,0.0123 -0.0825,0.008 -0.1323,0.0152 -0.14888,0.0208 v 3.30447 c 0,0.23707 0.0564,0.41063 0.16934,0.5207 0.11289,0.11007 0.2988,0.1651 0.55774,0.1651 0.22578,0 0.35807,-0.0109 0.39652,-0.0328 z"
         style="fill:#cd1421;fill-opacity:1;fill-rule:nonzero;stroke:none;stroke-width:0.35277778"
         id="path742-6"
         inkscape:connector-curvature="0" />
      <path
         d="m 114.20263,175.43289 c -0.11571,-0.11571 -0.25894,-0.17357 -0.42968,-0.17357 -0.17639,0 -0.32103,0.0579 -0.43357,0.17357 -0.11289,0.11571 -0.16933,0.25894 -0.16933,0.42968 0,0.17075 0.0564,0.31256 0.16933,0.42545 0.11254,0.11289 0.25718,0.16934 0.43357,0.16934 0.17074,0 0.31397,-0.0564 0.42968,-0.16934 0.11571,-0.11289 0.17357,-0.2547 0.17357,-0.42545 0,-0.17074 -0.0579,-0.31397 -0.17357,-0.42968"
         style="fill:#cd1421;fill-opacity:1;fill-rule:nonzero;stroke:none;stroke-width:0.35277778"
         id="path746-9"
         inkscape:connector-curvature="0" />
      <path
         d="m 117.27448,178.47362 h -1.397 c 0,-0.26599 0.0638,-0.4766 0.19156,-0.63077 0.1277,-0.15416 0.30339,-0.23142 0.5267,-0.23142 0.45261,0 0.67874,0.28752 0.67874,0.86219 m 0.98213,0.10372 c 0,-0.52705 -0.14252,-0.94086 -0.42721,-1.24143 -0.28505,-0.30056 -0.68792,-0.45085 -1.20932,-0.45085 -0.34643,0 -0.65899,0.0773 -0.93804,0.23142 -0.27975,0.15417 -0.49777,0.37536 -0.65475,0.66252 -0.15699,0.28751 -0.23531,0.63359 -0.23531,1.03787 0,0.68157 0.17392,1.20051 0.52282,1.55681 0.34819,0.35666 0.84737,0.53481 1.49684,0.53481 0.24447,0 0.47342,-0.0279 0.6865,-0.084 0.21273,-0.0557 0.38312,-0.13159 0.51082,-0.22754 0.133,-0.0956 0.19968,-0.20214 0.19968,-0.31926 0,-0.0691 -0.0307,-0.16369 -0.0921,-0.28329 -0.061,-0.11959 -0.13159,-0.23001 -0.21131,-0.33125 -0.0639,0.0586 -0.13829,0.121 -0.22331,0.18767 -0.0854,0.0663 -0.1905,0.12348 -0.31574,0.17145 -0.12488,0.048 -0.27516,0.072 -0.45085,0.072 -0.31397,0 -0.5588,-0.0878 -0.73448,-0.26352 -0.17568,-0.17569 -0.27411,-0.42828 -0.29528,-0.75848 h 2.34703 c 0.0159,-0.0744 0.024,-0.23953 0.024,-0.49494"
         style="fill:#cd1421;fill-opacity:1;fill-rule:nonzero;stroke:none;stroke-width:0.35277778"
         id="path750-7"
         inkscape:connector-curvature="0" />
      <path
         d="m 102.2205,175.30444 c -0.82938,0.56233 -2.2733,2.35726 -2.98838,4.01038 0,0 -0.0025,-7.1e-4 -0.0053,-0.002 l -0.352072,-0.44274 c -0.258939,-0.32526 -0.555978,-0.35489 -0.89147,-0.0882 -0.04868,0.0388 -0.09807,0.0836 -0.149225,0.13406 -0.05115,0.0504 -0.08043,0.0825 -0.08855,0.0956 l 1.259417,1.58468 c 3.52e-4,3.5e-4 7.05e-4,0.001 0.0014,0.002 0.0011,0.002 0.0025,0.003 0.0042,0.005 l 0.01023,0.0127 0.0032,0.001 c 0.186972,0.20708 0.322086,0.21625 0.401461,0.21625 0,0 0.135819,0.0236 0.278694,-0.0621 0.05856,-0.0349 0.128058,-0.085 0.172861,-0.17286 0.06174,-0.12029 0.08537,-0.20531 0.08537,-0.20531 0.687214,-2.83387 1.538464,-3.86327 2.387254,-4.98052 0.0787,-0.10336 0.0307,-0.21625 -0.12912,-0.10795"
         style="fill:#cd1421;fill-opacity:1;fill-rule:nonzero;stroke:none;stroke-width:0.35277778"
         id="path754-5"
         inkscape:connector-curvature="0" />
      <path
         d="m 119.14589,180.52315 c 0,0.0741 -0.0166,0.14076 -0.0497,0.20002 -0.0332,0.0593 -0.0769,0.10513 -0.13194,0.13688 -0.0547,0.0317 -0.11606,0.0476 -0.18486,0.0476 -0.0741,0 -0.13864,-0.0169 -0.19297,-0.0505 -0.055,-0.0335 -0.097,-0.0794 -0.12664,-0.13794 -0.0296,-0.0589 -0.0444,-0.12417 -0.0444,-0.19614 0,-0.0734 0.0162,-0.1397 0.0487,-0.19826 0.0325,-0.0586 0.0762,-0.10336 0.13123,-0.13547 0.055,-0.0318 0.11677,-0.0476 0.18521,-0.0476 0.0727,0 0.13688,0.0173 0.19227,0.0515 0.0554,0.0342 0.0981,0.0804 0.12805,0.13864 0.03,0.0582 0.0452,0.12207 0.0452,0.19121 m -0.0624,0 c 0,-0.0607 -0.0134,-0.11606 -0.0409,-0.16616 -0.0268,-0.0501 -0.0635,-0.0889 -0.10901,-0.11606 -0.0455,-0.0272 -0.0963,-0.0409 -0.15311,-0.0409 -0.06,0 -0.11289,0.0148 -0.15804,0.0445 -0.0459,0.0296 -0.0811,0.0691 -0.10584,0.11818 -0.0254,0.0494 -0.0377,0.10265 -0.0377,0.16051 0,0.0621 0.0134,0.11853 0.0402,0.16898 0.0268,0.0505 0.0628,0.0893 0.1076,0.11571 0.0444,0.0272 0.0956,0.0406 0.15275,0.0406 0.06,0 0.11325,-0.0152 0.15911,-0.0445 0.0459,-0.03 0.0815,-0.0695 0.10689,-0.11924 0.0254,-0.0497 0.0381,-0.10371 0.0381,-0.16157 m -0.11218,0.20673 c -0.0215,0.01 -0.0392,0.0148 -0.054,0.0148 -0.0282,0 -0.0501,-0.012 -0.0649,-0.036 l -0.0857,-0.13899 h -0.0402 v 0.16651 h -0.09 v -0.4438 c 0.0508,-0.004 0.0959,-0.006 0.13582,-0.006 0.0575,0 0.10195,0.0117 0.13264,0.0353 0.0307,0.0236 0.0462,0.0572 0.0462,0.10019 0,0.0614 -0.03,0.10548 -0.09,0.13229 z m -0.11677,-0.30198 c 0,-0.0466 -0.0279,-0.0699 -0.0836,-0.0699 -0.0141,0 -0.0289,7.1e-4 -0.0444,0.002 v 0.14076 h 0.0501 c 0.0519,0 0.078,-0.0243 0.078,-0.073"
         style="fill:#cd1421;fill-opacity:1;fill-rule:nonzero;stroke:none;stroke-width:0.35277778"
         id="path758-8"
         inkscape:connector-curvature="0" />
    </g>
  </g>
</svg>
