<?xml version="1.0" encoding="UTF-8" standalone="no"?>
<!-- Created with Inkscape (http://www.inkscape.org/) -->

<svg
   xmlns:svg="http://www.w3.org/2000/svg"
   xmlns="http://www.w3.org/2000/svg"
   version="1.1"
   width="400"
   height="82.180313"
   id="svg2">
  <defs
     id="defs6" />
  <g
     transform="translate(-2401.653,548.27468)"
     id="g2820">
    <g
       transform="matrix(0.16131178,0,0,0.16131178,2400.8775,-548.30367)"
       id="g3600">
      <rect
         width="2478.0193"
         height="508.05951"
         ry="40.972542"
         x="6.1365232"
         y="0.80882639"
         id="rect2826"
         style="fill:#fff500;fill-opacity:1;stroke:none" />
      <path
         d="m 43.243757,508.93978 c -13.74031,-1.5989 -24.80643,-7.7507 -31.16261,-17.3238 -7.57451,-11.4081 -6.91399,9.6428 -7.22044,-230.116 -0.1749,-136.8415 0.0844,-218.225498 0.71318,-223.872698 1.23662,-11.1057 4.90379,-19.3116 11.64109,-26.0488 6.20138,-6.2013998 13.49357,-9.5606998 23.26434,-10.71719976 4.54771,-0.5382 495.476733,-0.7955 1209.156183,-0.6337 1163.2034,0.2637 1201.6754,0.331 1207.0001,2.11069996 15.6661,5.236 24.9464,16.3529998 27.0672,32.4239998 0.6765,5.1263 0.9121,80.465798 0.698,223.237698 -0.2918,194.5846 -0.4792,216.0012 -1.9309,220.6636 -4.8568,15.5989 -13.6705,24.6304 -28.3343,29.0344 -5.7648,1.7314 -52.9954,1.8068 -1205.0001,1.9229 -659.44998,0.066 -1202.101273,-0.2401 -1205.891743,-0.6811 z M 2450.1131,488.14018 c 5.3817,-1.8399 11.0274,-7.7083 12.6764,-13.1764 1.1104,-3.6821 1.3461,-42.6407 1.3461,-222.4638 0,-212.418398 -0.049,-218.098298 -1.9063,-221.839198 -2.4326,-4.8992 -7.707,-8.3802 -14.6362,-9.6596 -3.6514,-0.6742 -403.0781,-0.9239 -1206.9576,-0.7544 -1132.53109,0.2387 -1201.679703,0.3516 -1204.630873,1.9673 -4.08785,2.238 -7.86648,6.8004 -9.53318,11.5105 -1.09895,3.1057 -1.33593,42.4471 -1.33593,221.775398 l 0,218 2.34605,4.7641 c 2.81954,5.7257 8.2527,9.2792 16.20763,10.6004 3.22981,0.5365 493.203253,0.8499 1203.946303,0.7701 1007.5402,-0.1131 1199.1338,-0.3512 1202.4776,-1.4944 z m -2362.227583,-56.8459 -2.25,-0.4334 0,-47.3878 0,-47.3878 3.25,-2.5656 c 1.7875,-1.4111 52.721313,-39.1178 113.186233,-83.7927 60.46494,-44.6748 110.11429,-81.7876 110.33191,-82.4727 0.31389,-0.9883 -23.02587,-1.2983 -112.93624,-1.5 l -113.331903,-0.2543 -0.26043,-44.9345 c -0.20449,-35.284298 0.0103,-45.106398 1,-45.734698 1.45043,-0.9208 412.784563,-1.1425 415.178643,-0.2238 1.40862,0.5405 1.58179,5.3384 1.58179,43.825798 l 0,43.2188 -112.6939,81.9242 c -61.98166,45.0583 -117.63985,85.5242 -123.68487,89.9242 -6.04502,4.4 -10.90781,8.45 -10.80619,9 0.1214,0.6571 42.45378,1.1715 123.43487,1.5 l 123.25009,0.5 0.26053,43.1306 0.26054,43.1306 -2.26054,0.6058 c -2.53313,0.6788 -409.980863,0.6071 -413.510533,-0.073 z m 521.250003,-0.4316 c -42.83124,-5.4107 -72.93558,-30.7435 -80.46999,-67.7154 -2.04405,-10.0303 -2.07981,-12.2175 -1.79749,-109.9406 0.28764,-99.5672 0.29115,-99.7176 2.50897,-107.5432 10.84316,-38.2598 45.55437,-65.578598 88.57709,-69.712898 7.53613,-0.7242 50.95507,-0.9499 133.18142,-0.6923 119.25477,0.3736 122.21377,0.4291 131.5,2.4693 35.48072,7.7949 60.01024,26.874198 70.87589,55.127998 4.85431,12.6226 5.62411,18.5279 5.62411,43.1444 l 0,22.5 -51,0 -51,0 -0.53881,-7.5 c -0.83625,-11.6401 -5.09257,-17.7273 -15.2485,-21.8075 -3.8294,-1.5385 -12.38809,-1.718 -94.06838,-1.9732 -98.98171,-0.3093 -97.14704,-0.4096 -106.17766,5.8037 -5.20509,3.5812 -8.56219,7.7556 -11.68665,14.5321 l -2.28,4.9449 0,65 0,65 2.28694,5.6567 c 2.87054,7.1002 9.00397,12.919 16.29183,15.4561 5.16276,1.7972 9.85514,1.8872 98.42123,1.8872 88.4997,0 93.26178,-0.091 98.40974,-1.8834 9.92002,-3.4537 16.09026,-12.0439 16.09026,-22.4008 0,-7.8981 6.13553,-7.214 -64.85699,-7.2311 -35.00365,-0.01 -64.21087,-0.3758 -64.90492,-0.8164 -0.98801,-0.6272 -1.20507,-9.2517 -1,-39.7347 l 0.26191,-38.9336 114.89243,-0.2542 c 87.32958,-0.1933 115.2346,0.03 116.31869,0.9294 1.21378,1.0074 1.37022,10.1324 1.05017,61.2543 -0.36377,58.1065 -0.44773,60.3321 -2.56793,68.0705 -8.09992,29.5636 -30.80192,51.3919 -64.5304,62.0467 -17.32742,5.4737 -16.69602,5.4516 -152.16296,5.3209 -68.75,-0.066 -128.15,-0.5185 -132,-1.0049 z m 468.13468,0.037 c -41.8661,-6.1136 -71.7927,-31.2635 -80.27473,-67.462 -1.74762,-7.4582 -1.85995,-13.9467 -1.85995,-107.4376 0,-92.3497 0.13049,-100.1108 1.81588,-108 8.7357,-40.8915 40.7426,-67.388298 86.868,-71.913498 13.0338,-1.2787 125.5278,-1.8899 200.3162,-1.0884 61.7634,0.6619 64.7697,0.9105 80.8496,6.6843 33.9025,12.1733 58.2763,39.172998 63.6547,70.512398 0.7412,4.3187 0.9897,38.1271 0.7889,107.3052 l -0.2932,101 -2.3648,7 c -6.1249,18.1304 -17.0356,32.8346 -32.691,44.0573 -12.7989,9.1749 -33.0108,17.0242 -49.8785,19.3703 -9.3744,1.3039 -257.9891,1.2778 -266.9311,-0.028 z m 230.8654,-88.8632 c 7.0524,-3.4749 13.8994,-10.8153 16.4519,-17.6374 2.0701,-5.5328 2.0997,-6.6656 1.8262,-69.7615 l -0.2781,-64.1375 -2.2831,-4.586 c -2.9534,-5.9326 -9.1745,-12.1705 -15.0544,-15.095 l -4.6625,-2.319 -92.0001,0 -92,0 -5.6816,2.7901 c -6.686,3.2833 -11.1273,8.0104 -14.7173,15.6643 l -2.6011,5.5456 0,64.5 c 0,60.87 0.1064,64.776 1.8914,69.4036 3.5645,9.2416 11.7302,15.9157 21.529,17.5965 2.5188,0.4321 44.6296,0.7213 93.5796,0.6427 l 89.0001,-0.1428 5,-2.4636 z m 755.7084,87.8929 c -33.113,-4.3007 -59.9426,-21.8898 -72.1682,-47.3126 -9.079,-18.8797 -8.4424,-10.0486 -8.7945,-121.9861 -0.346,-110.0191 -0.3603,-109.7311 6.215,-124.9491 5.6213,-13.0098 9.5611,-18.7033 20.5393,-29.6815 14.0439,-14.043898 26.1287,-21.063398 46,-26.719398 13.1728,-3.7494 44.1036,-4.4899 166,-3.9745 113.3098,0.4791 111.0862,0.3808 129,5.7042 7.7188,2.2938 21.2517,8.7033 27.809,13.1709 13.3196,9.074998 25.5189,24.248498 31.0422,38.610298 4.8808,12.6911 5.6488,18.566 5.6488,43.2085 l 0,22.5 -48,0.778 c -26.4,0.4278 -48.9516,0.5471 -50.1146,0.2649 -1.8287,-0.4437 -2.1802,-1.4275 -2.6001,-7.2779 -0.7286,-10.15 -5.2726,-17.5122 -13.3055,-21.5577 -6.8539,-3.4517 -13.8492,-3.7073 -101.4534,-3.7073 -95.1653,0 -93.6785,-0.088 -102.5791,6.0362 -5.1864,3.5684 -8.5458,7.7488 -11.6673,14.5189 l -2.28,4.9449 0,64 c 0,48.7071 0.3019,64.9934 1.2636,68.1574 2.2816,7.5067 7.1497,13.4986 13.6657,16.8201 l 5.9293,3.0225 96.1414,0 96.1414,0 5.896,-3.0153 c 8.1861,-4.1865 11.4659,-9.5576 12.3296,-20.1911 l 0.633,-7.7936 49.3861,-0.2595 c 38.114,-0.2003 49.7267,0.023 50.8786,0.9792 2.3686,1.9657 1.1678,39.5318 -1.5958,49.9238 -9.0361,33.9794 -41.8561,60.1167 -82.6032,65.7841 -9.1972,1.2792 -257.509,1.2807 -267.3573,0 z m -592.7432,-1.1708 c -0.2632,-0.6922 -0.363,-80.4585 -0.2218,-177.2585 l 0.2566,-175.999998 84.2352,-0.2557 84.2353,-0.2556 7.7647,9.4013 c 4.2707,5.1708 47.1398,57.797398 95.2648,116.948198 48.125,59.1507 88.0625,107.5726 88.75,107.6043 0.993,0.046 1.2531,-23.7362 1.2653,-115.6925 0.01,-63.6625 0.3749,-116.316398 0.8144,-117.008698 0.6295,-0.9916 12.3488,-1.2038 55.2347,-1 l 54.4356,0.2587 0,176.999998 0,177 -87.3914,0 -87.3915,0 -91.8203,-121 c -50.5012,-66.55 -92.175,-121 -92.6086,-121 -0.4335,0 -1.0132,54.45 -1.2882,121 l -0.5,121 -55.2781,0.2585 c -43.6913,0.2043 -55.3785,0 -55.7567,-1 z"
         id="path2822"
         style="fill:#1a1a1a" />
    </g>
  </g>
</svg>
