<?xml version="1.0" encoding="UTF-8" standalone="no"?>
<svg
   id="body_1"
   width="796"
   height="186"
   version="1.1"
   sodipodi:docname="202410_syouyoudai.svg"
   xml:space="preserve"
   inkscape:version="1.3 (0e150ed6c4, 2023-07-21)"
   inkscape:export-filename="202410_syouyoudai.svg"
   inkscape:export-xdpi="96"
   inkscape:export-ydpi="96"
   xmlns:inkscape="http://www.inkscape.org/namespaces/inkscape"
   xmlns:sodipodi="http://sodipodi.sourceforge.net/DTD/sodipodi-0.dtd"
   xmlns="http://www.w3.org/2000/svg"
   xmlns:svg="http://www.w3.org/2000/svg"><sodipodi:namedview
     id="namedview1938"
     pagecolor="#505050"
     bordercolor="#eeeeee"
     borderopacity="1"
     inkscape:showpageshadow="0"
     inkscape:pageopacity="0"
     inkscape:pagecheckerboard="0"
     inkscape:deskcolor="#505050"
     showgrid="false"
     inkscape:zoom="0.97920605"
     inkscape:cx="161.35521"
     inkscape:cy="21.956564"
     inkscape:window-width="1920"
     inkscape:window-height="991"
     inkscape:window-x="-9"
     inkscape:window-y="-9"
     inkscape:window-maximized="1"
     inkscape:current-layer="body_1" /><defs
     id="defs786"><style
       type="text/css"
       id="style786"><![CDATA[
.screen{ mix-blend-mode:screen; }
.multiply{ mix-blend-mode:multiply; }
]]></style><clipPath
       id="87-3"><path
         id="path784-3"
         clip-rule="evenodd"
         d="m 0,-0.5500488 h 841.89 v 0 V 1190 v 0 H 0 Z" /></clipPath><clipPath
       id="clip0_2597_3341"><rect
         width="104.507"
         height="30.167101"
         fill="#ffffff"
         id="rect1"
         x="0"
         y="0" /></clipPath></defs><g
     clip-path="url(#87-3)"
     id="g1803"
     transform="matrix(1.7835806,0,0,1.7835806,-281.16336,-54.02983)"><path
       id="path1793"
       d="m 204.347,1133.8258 c 4.609,2.37 9.763,3.65 15.137,3.559 19.699,-0.334 32.919,-18.93 29.534,-41.538 -3.378,-22.608 -19.661,-40.705 -36.368,-40.418 -2.353,0.037 -4.726,0.214 -6.836,1.154 -0.842,0.377 -1.786,0.581 -2.771,0.602 -0.982,0.016 -1.936,-0.157 -2.788,-0.504 -2.14,-0.869 -4.515,-0.969 -6.871,-0.928 -16.703,0.283 -32.36,18.921 -34.977,41.634 -2.608,22.706 11.237,40.846 30.933,40.511 5.377,-0.095 10.479,-1.552 15.007,-4.072"
       stroke="none"
       fill="#cd232b"
       fill-rule="nonzero"
       transform="matrix(1,0,0,-1,0,1190)" /><path
       id="path1794"
       transform="matrix(1,0,0,-1,0,1190)"
       d="m 207.2123,1158.5559 -0.75501,-44.5279 v 0 l -4.89099,0.083 v 0 l 0.759,44.5299 z"
       stroke="none"
       fill="#cd232b"
       fill-rule="nonzero" /><path
       id="path1795"
       transform="matrix(1,0,0,-1,0,1190)"
       d="m 205.6889,1131.1462 0.103,6.052 v 0 l 7.923,-0.133 v 0 l -0.101,-6.053 z"
       stroke="none"
       fill="#cd232b"
       fill-rule="nonzero" /><path
       id="path1796"
       transform="matrix(1,0,0,-1,0,1190)"
       d="m 206.7858,1136.2925 c 7.737,0.025 15.451,2.081 21.42799,6.2099 5.97901,4.1271 9.125,9.5621 9.43601,15.1011 -7.735,-0.024 -15.443,-2.079 -21.42301,-6.208 -5.98199,-4.124 -9.12899,-9.571 -9.44099,-15.103"
       stroke="none"
       fill="#039c4d"
       fill-rule="nonzero" /><path
       id="path1797"
       transform="matrix(1,0,0,-1,0,1190)"
       d="m 206.7858,1136.2925 c 7.73399,-0.288 15.368,-2.606 21.203,-6.932 5.836,-4.333 8.795,-9.8791 8.92099,-15.4151 -7.73799,0.2841 -15.36899,2.6051 -21.20399,6.9341 -5.832,4.323 -8.795,9.867 -8.92,15.413"
       stroke="none"
       fill="#039c4d"
       fill-rule="nonzero" /></g><g
     style="fill:none"
     id="g1939"
     transform="matrix(5.7448345,0,0,6.1544962,195.65905,0.3397791)"><g
       id="_レイヤー_1"
       clip-path="url(#clip0_2597_3341)"><path
         id="Vector"
         d="m 20.2402,10.524 v 19.1106 h 4.2213 V 10.524 Z"
         fill="#b90015"
         style="fill:#cd232b;fill-opacity:1" /><path
         id="Vector_2"
         d="M 31.7414,29.635 V 16.0579 L 40.0411,29.635 H 44.287 V 10.5245 H 40.3268 V 23.8657 L 32.234,10.5245 H 27.7812 V 29.635 Z"
         fill="#b90015"
         style="fill:#cd232b;fill-opacity:1" /><path
         id="Vector_3"
         d="m 46.6953,23.7358 h 4.0538 c 0.1281,0.8737 0.3793,1.5264 0.7585,1.9582 0.6945,0.7883 1.8718,1.18 3.5465,1.18 1.0048,0 1.8175,-0.1004 2.4431,-0.3113 1.1871,-0.3967 1.7781,-1.1348 1.7781,-2.2143 0,-0.6327 -0.2955,-1.1198 -0.8817,-1.4662 -0.5861,-0.3364 -1.5121,-0.6377 -2.7731,-0.8938 L 53.468,21.5365 c -2.1131,-0.4469 -3.576,-0.9389 -4.3838,-1.4662 -1.3693,-0.8787 -2.0539,-2.2595 -2.0539,-4.1374 0,-1.7122 0.66,-3.1332 1.985,-4.268 1.325,-1.1348 3.2706,-1.69713 5.8319,-1.69713 2.1426,0 3.97,0.53223 5.4822,1.60173 1.5122,1.0645 2.3052,2.616 2.3791,4.6496 h -4.0834 c -0.0738,-1.1498 -0.6058,-1.9633 -1.6008,-2.4503 -0.66,-0.3163 -1.4826,-0.482 -2.4677,-0.482 -1.0935,0 -1.9653,0.2058 -2.6204,0.6226 -0.6551,0.4167 -0.9802,0.9942 -0.9802,1.7373 0,0.6829 0.3201,1.19 0.9654,1.5314 0.4137,0.226 1.3003,0.4871 2.65,0.7884 l 3.5021,0.7933 c 1.5368,0.3465 2.6943,0.8084 3.4775,1.3858 1.2117,0.8988 1.8175,2.1993 1.8175,3.9065 0,1.7072 -0.7093,3.1985 -2.1279,4.3483 -1.4235,1.1549 -3.4282,1.7323 -6.0191,1.7323 -2.5908,0 -4.7285,-0.5674 -6.2456,-1.7072 -1.5171,-1.1347 -2.2757,-2.6963 -2.2757,-4.6897 z"
         fill="#b90015"
         style="fill:#cd232b;fill-opacity:1" /><path
         id="Vector_4"
         d="M 70.1323,29.6349 H 65.9258 V 10.5244 h 4.2065 v 7.2857 h 7.945 v -7.2857 h 4.2212 V 29.6349 H 78.0773 V 21.104 h -7.945 z"
         fill="#b90015"
         style="fill:#cd232b;fill-opacity:1" /><path
         id="Vector_5"
         d="m 90.7392,25.03 c -1.0048,-1.1649 -1.5023,-2.8269 -1.5023,-4.976 0,-2.149 0.5024,-3.811 1.5023,-4.981 0.9999,-1.1649 2.3446,-1.7524 4.0291,-1.7524 1.6846,0 3.0194,0.5875 4.0046,1.7574 0.9851,1.17 1.4781,2.827 1.4781,4.971 0,2.144 -0.493,3.811 -1.4781,4.976 -0.9901,1.1699 -2.3249,1.7523 -4.0046,1.7523 -1.6796,0 -3.0243,-0.5824 -4.0291,-1.7523 z M 101.428,12.1708 c -1.537,-1.4863 -3.7536,-2.22939 -6.6597,-2.22939 -2.9061,0 -5.1275,0.74309 -6.6643,2.22939 -2.0589,1.7574 -3.0884,4.3835 -3.0884,7.8832 0,3.4998 1.0295,6.0605 3.0884,7.8832 1.5368,1.4863 3.7582,2.2294 6.6643,2.2294 2.9061,0 5.1227,-0.7431 6.6597,-2.2294 2.049,-1.8227 3.073,-4.4537 3.073,-7.8832 0,-3.4294 -1.024,-6.1308 -3.073,-7.8832 z"
         fill="#b90015"
         style="fill:#cd232b;fill-opacity:1" /><path
         id="Vector_6"
         d="M 4.18677,10.4727 H 0 v 19.1456 h 4.18677 z"
         fill="#b90015"
         style="fill:#cd232b;fill-opacity:1" /><path
         id="Vector_7"
         d="m 4.25586,20.0877 c 3.65973,-0.0703 7.28994,-1.0494 10.08764,-2.9424 2.7928,-1.893 4.241,-4.3533 4.3444,-6.8338 -3.6647,0.0703 -7.2948,1.0494 -10.08765,2.9424 -2.79775,1.893 -4.24095,4.3534 -4.34439,6.8338 z"
         fill="#00842f"
         style="fill:#039c4d;fill-opacity:1" /><path
         id="Vector_8"
         d="m 4.25586,20.0889 c 3.65973,0.0703 7.28994,1.0494 10.08764,2.9424 2.7928,1.8929 4.241,4.3533 4.3444,6.8338 C 15.0232,29.7948 11.3931,28.8156 8.60025,26.9227 5.8025,25.0297 4.3593,22.5693 4.25586,20.0889 Z"
         fill="#00842f"
         style="fill:#039c4d;fill-opacity:1" /><path
         id="Vector_9"
         d="m 13.628,5.55801 c 0.4186,-0.16068 1.4777,-0.56237 2.5908,-1.662 0.9556,-0.94398 1.3053,-1.77749 1.4679,-2.17918 H 14.0713 V 0.652344 h 5.2014 C 19.1841,1.13437 18.9772,2.22396 17.9182,3.64495 18.79,4.23243 19.6175,4.8902 20.3711,5.61324 L 19.3663,6.53713 C 18.6669,5.76388 17.7212,4.90526 17.204,4.48348 17.0858,4.60901 16.8148,4.8902 16.4109,5.22661 15.4209,6.0551 14.6821,6.34131 14.3028,6.49696 L 13.623,5.55801 Z"
         fill="#b90015"
         style="fill:#cd232b;fill-opacity:1" /><path
         id="Vector_10"
         d="M 28.1492,2.80273 V 3.97266 H 22.8887 V 2.80273 Z"
         fill="#b90015"
         style="fill:#cd232b;fill-opacity:1" /><path
         id="Vector_11"
         d="m 36.8584,1.55656 c -0.4532,0 -0.8226,-0.34144 -0.8226,-0.778282 C 36.0358,0.341438 36.4003,0 36.8584,0 c 0.458,0 0.8275,0.341438 0.8275,0.778278 0,0.436842 -0.3645,0.778282 -0.8275,0.778282 z m 0,-1.084572 c -0.1774,0 -0.3202,0.140592 -0.3202,0.30629 0,0.165698 0.1428,0.306292 0.3202,0.306292 0.1773,0 0.33,-0.140594 0.33,-0.306292 0,-0.165698 -0.1429,-0.30629 -0.33,-0.30629 z m -6.29,5.091452 c 0.9408,-1.07955 1.4087,-2.90223 1.4579,-4.905669 l 1.1822,0.105444 C 33.1395,2.40513 32.7898,5.00609 31.588,6.39695 Z M 35.755,0.607559 c -0.0147,0.065275 -0.0197,0.110466 -0.0197,0.190804 0,0.200846 0.0591,0.391647 0.1724,0.562367 0.1478,1.4712 0.6453,3.02274 1.6107,4.23283 L 36.4397,6.3869 C 35.4152,5.10651 34.7699,2.75661 34.6714,0.778278 L 35.76,0.607559 Z"
         fill="#b90015"
         style="fill:#cd232b;fill-opacity:1" /><path
         id="Vector_12"
         d="M 45.5906,2.80273 V 3.97266 H 40.3301 V 2.80273 Z"
         fill="#b90015"
         style="fill:#cd232b;fill-opacity:1" /><path
         id="Vector_13"
         d="M 52.0973,6.37231 C 51.2846,5.30783 49.9596,4.2333 49.073,3.6157 l 0.9162,-0.75819 c 0.2758,0.17072 0.5369,0.33139 1.192,0.84857 0.1428,-0.09038 0.3989,-0.2611 0.7684,-0.56237 0.7634,-0.63266 0.9851,-1.00925 1.1181,-1.2352 H 48.2012 V 0.833984 h 6.62 c -0.0739,0.386626 -0.2808,1.395876 -1.325,2.440276 -0.6157,0.60756 -1.192,0.98917 -1.453,1.15487 0.6551,0.58245 0.9063,0.86364 1.1131,1.09963 l -1.0491,0.83853 z"
         fill="#b90015"
         style="fill:#cd232b;fill-opacity:1" /><path
         id="Vector_14"
         d="M 63.0027,2.80273 V 3.97266 H 57.7422 V 2.80273 Z"
         fill="#b90015"
         style="fill:#cd232b;fill-opacity:1" /><path
         id="Vector_15"
         d="M 72.1518,1.49915 V 2.54857 H 70.4475 C 70.2407,4.18045 69.9648,5.85751 66.7336,6.54541 L 66.1573,5.55624 c 0.4975,-0.09038 1.7437,-0.31633 2.453,-1.1649 0.3251,-0.39165 0.4679,-0.91385 0.5812,-1.84277 H 67.5907 C 67.0784,3.37706 66.6302,3.7185 66.3543,3.92939 L 65.4727,3.1712 c 1.0146,-0.67284 1.5515,-1.79256 1.719,-2.917294 l 1.261,0.105444 c -0.0838,0.371566 -0.1626,0.67283 -0.3448,1.13478 h 4.039 z"
         fill="#b90015"
         style="fill:#cd232b;fill-opacity:1" /><path
         id="Vector_16"
         d="M 75.7766,4.05652 C 75.6781,3.55943 75.5008,2.93681 75.1855,2.28908 l 0.9458,-0.236 c 0.3645,0.66782 0.5615,1.36074 0.6551,1.78251 l -1.0147,0.22595 z m 1.6846,-0.3565 c -0.1773,-0.949 -0.3793,-1.43103 -0.532,-1.75238 l 0.9457,-0.1908 c 0.3448,0.63768 0.4975,1.36575 0.5566,1.73229 L 77.4563,3.70002 Z M 75.7815,5.70848 C 76.7519,5.48253 77.8848,5.1913 78.6039,4.25235 79.0817,3.62973 79.2935,2.8866 79.5299,1.78696 l 1.1526,0.25106 c -0.5369,1.8277 -0.7979,2.72649 -2.1229,3.63531 -0.926,0.63267 -1.788,0.81845 -2.2264,0.91888 L 75.7865,5.70848 Z"
         fill="#b90015"
         style="fill:#cd232b;fill-opacity:1" /><path
         id="Vector_17"
         d="M 85.4448,0.334961 V 2.007 c 1.2314,0.34144 2.5712,0.89879 3.5858,1.46618 L 88.4051,4.64311 C 87.6318,4.14602 86.361,3.4782 85.4448,3.18698 V 6.50094 H 84.1543 V 0.334961 Z"
         fill="#b90015"
         style="fill:#cd232b;fill-opacity:1" /></g></g></svg>
