<svg width="791" height="144" viewBox="0 0 791 144" fill="none" xmlns="http://www.w3.org/2000/svg">
<path opacity="0.88" d="M232.354 62.5104C251.091 54.9187 258.037 44.6618 258.037 31.982C258.037 9.85306 238.735 0 207.076 0H150.461C154.015 5.4111 157.407 11.226 157.407 19.9484V63.8833C140.769 67.1946 125.828 70.0213 111.776 73.4133C99.1766 38.6853 85.1239 0 85.1239 0H49.9114C50.4767 4.84576 49.9921 10.0146 47.4077 17.0409L7.99551 126.878C7.99551 126.878 5.4111 134.631 0 141.577H28.8323C28.267 137.781 28.9938 132.774 29.963 129.705C32.8704 121.063 40.7044 115.329 49.023 111.614C59.8452 106.688 78.6629 100.792 87.5468 98.1267L96.9153 124.94C96.9153 124.94 100.711 135.035 98.6921 141.577H139.396C133.259 133.259 131.159 127.04 131.159 126.878C130.19 124.294 124.859 109.434 117.994 90.6966C130.432 87.7083 143.435 85.2047 157.407 82.4588V121.467C157.407 128.978 154.338 135.601 150.461 141.496H204.249C213.052 141.496 220.886 141.012 226.782 139.962C249.88 135.924 266.436 124.132 266.436 99.0151C266.517 79.7936 253.595 68.3253 232.354 62.5104ZM50.4767 91.7465C47.0847 93.3617 42.7235 96.0269 40.2198 98.5305C47.9731 75.917 58.6337 44.8233 63.8026 30.1245L81.5704 80.8435C72.6057 83.4279 58.7953 87.7891 50.4767 91.7465ZM188.823 17.687C194.396 17.364 196.415 17.364 200.049 17.364C217.413 17.364 225.49 24.6326 225.49 34.8895C225.49 44.6618 219.029 50.719 208.287 53.9495C203.764 55.3225 196.253 56.857 188.823 58.1492V17.687ZM201.907 123.971H188.904V76.8054C193.75 75.6747 201.503 74.3017 206.591 73.7364C222.259 77.3707 233.808 83.8317 233.808 99.8227C233.727 118.479 220.078 123.971 201.907 123.971Z" fill="white"/>
<path d="M281.054 141.577C288 131.159 288 121.709 288 121.548V20.1099C288 19.9484 288 10.5799 281.054 0.08078H326.524C319.578 10.5799 319.578 19.9484 319.578 20.1099V121.548C319.578 121.709 319.578 131.159 326.524 141.577H281.054Z" fill="white"/>
<path d="M790.021 41.9159H759.574C762.158 46.1155 761.108 52.8188 758.443 59.6029L738.737 112.179L718.304 59.6029C715.558 52.8188 714.589 46.1155 717.173 41.9159H677.842C683.253 47.65 686.645 54.9994 688.583 59.6029L722.423 141.577H748.751C748.751 141.577 749.398 134.874 752.386 127.363L779.603 59.6029C781.46 54.9187 785.337 46.8424 790.021 41.9159Z" fill="white"/>
<path d="M681.88 94.6539C683.818 73.8172 678.084 37.5547 632.049 37.5547C594.494 37.5547 580.684 63.7218 580.684 89.2428C580.684 121.709 598.371 144 640.691 144C657.893 144 671.784 138.912 680.022 133.905L671.542 115.168C663.547 119.206 653.774 122.759 642.871 122.759C623.973 122.759 612.343 116.137 609.839 97.3999H650.705C665.727 97.4806 677.922 96.5923 681.88 94.6539ZM609.92 80.2782C611.778 64.2064 618.966 56.0494 632.049 56.0494C645.617 56.0494 652.321 66.5485 652.886 80.1167C652.886 80.1167 646.91 80.2782 639.156 80.2782H609.92Z" fill="white"/>
<path d="M404.299 141.577H444.599C438.461 132.37 438.461 123.971 438.461 123.89V70.6674C438.461 51.6074 428.204 39.8968 406.56 39.8968C392.749 39.8968 381.362 46.1155 372.963 53.7072V41.9159H338.719C344.857 51.2036 344.857 59.5221 344.857 59.6029V123.809C344.857 123.971 344.857 132.289 338.719 141.496H379.101C372.963 132.289 372.963 123.89 372.963 123.809V70.6674C378.131 65.3371 385.481 61.4604 393.557 61.4604C405.914 61.4604 410.436 68.3253 410.436 78.986V123.809C410.436 123.971 410.436 132.289 404.299 141.577Z" fill="white"/>
<path d="M508.725 74.7863C528.592 74.7863 539.495 84.4778 539.495 100.146C539.495 114.199 531.096 124.455 508.24 124.455H494.591V74.7863H508.725ZM505.736 17.2025C523.1 17.2025 531.177 23.9866 531.177 36.7471C531.177 49.4268 523.908 57.0185 507.19 57.0185C503.96 57.0185 498.064 57.0993 494.591 57.0185V17.2025H505.736ZM509.371 141.577C518.174 141.577 526.331 141.093 532.227 140.043C554.921 136.085 571.719 124.455 571.719 99.4189C571.719 79.309 558.878 68.8906 538.688 63.0757C556.778 56.2109 562.836 46.3578 562.836 33.5166C562.836 11.3876 544.825 0.08078 512.359 0.08078H458.086C461.882 5.81493 463.174 14.1335 463.174 20.1099V121.548C463.174 128.17 461.963 135.116 458.086 141.577H509.371Z" fill="white"/>
</svg>
