<?xml version="1.0" encoding="UTF-8" standalone="no"?>
<!-- Created with Inkscape (http://www.inkscape.org/) -->
<svg
   xmlns:svg="http://www.w3.org/2000/svg"
   xmlns="http://www.w3.org/2000/svg"
   version="1.0"
   width="537.62616"
   height="166.87184"
   viewBox="0 0 595 842"
   id="root"
   xml:space="preserve"><defs
     id="logo-clipping"><style
       type="text/css"
       id="style7" /><clipPath
       id="id5"><path
         d="M 2331.71,3273.84 L 2617.194,3273.84 L 2617.194,3746.281 L 2331.71,3746.281 L 2331.71,3273.84 z "
         id="path10" /></clipPath><clipPath
       id="id2"><rect
         width="595"
         height="842"
         x="0"
         y="0"
         id="rect13" /></clipPath><clipPath
       id="id4"><path
         d="M 2422.17,3509.89 C 2422.17,3509.89 2410.12,3597.82 2409.55,3601.98 C 2409.52,3602.19 2409.47,3602.43 2409.39,3602.63 C 2408.57,3605.28 2406.16,3607.25 2403.29,3607.41 L 2353.54,3607.41 C 2350.66,3607.25 2348.25,3605.28 2347.42,3602.63 C 2347.36,3602.43 2347.3,3602.19 2347.27,3601.98 C 2346.7,3597.82 2334.66,3509.89 2334.66,3509.89 C 2334.66,3509.89 2346.7,3421.96 2347.27,3417.79 C 2347.3,3417.59 2347.36,3417.36 2347.42,3417.14 C 2348.25,3414.49 2350.66,3412.52 2353.54,3412.37 L 2403.29,3412.37 C 2406.16,3412.52 2408.57,3414.49 2409.39,3417.14 C 2409.47,3417.36 2409.52,3417.59 2409.55,3417.79 C 2410.12,3421.96 2422.17,3509.89 2422.17,3509.89"
         id="path16" /></clipPath><clipPath
       id="id3"><path
         d="M 2331.71,3273.84 L 2617.194,3273.84 L 2617.194,3746.281 L 2331.71,3746.281 L 2331.71,3273.84 z "
         id="path19" /></clipPath></defs><defs
     id="defs21" /><g
     transform="matrix(4.878445,0,0,4.878445,-1156.7881,-1622.9912)"
     id="logo_all"><g
       transform="matrix(0,1.2327648,1.2327648,0,-4030.1447,-2629.6247)"
       id="Actimel"><path
         d="M 2539.95,3313.54 L 2539.95,3291.01 L 2537,3291.82 L 2536.5,3293.36 L 2535.11,3295.32 L 2532.75,3297.76 L 2529.12,3300.84 L 2450.57,3359.07 L 2450.57,3362.23 L 2483.6,3360.14 L 2488.14,3355.29 L 2494.98,3348.38 L 2499.52,3343.99 L 2501.8,3341.88 L 2479.17,3343.4 L 2506.2,3323.89 L 2506.2,3341.57 L 2504.57,3343.68 L 2498.16,3352.53 L 2493.41,3359.51 L 2527.86,3357.34 L 2528.86,3357.3 L 2531.6,3357.4 L 2532.45,3357.52 L 2533.24,3357.73 L 2534.01,3357.99 L 2534.72,3358.32 L 2535.63,3358.88 L 2536.26,3359.51 L 2536.75,3360.46 L 2536.97,3361.58 L 2537,3363.85 L 2539.95,3363.04 L 2539.95,3329.83 L 2537,3330.64 L 2536.97,3332.46 L 2536.62,3334.13 L 2535.73,3336.1 L 2535.05,3337.05 L 2534.21,3337.8 L 2532.41,3338.84 L 2529.67,3339.69 L 2528.77,3339.83 L 2511.81,3341.15 L 2511.81,3319.93 L 2525.66,3309.95 L 2526.89,3309.07 L 2529.77,3307.54 L 2530.44,3307.33 L 2531.16,3307.19 L 2531.96,3307.12 L 2532.75,3307.12 L 2534.17,3307.46 L 2535.35,3308.21 L 2536.18,3309.2 L 2536.7,3310.4 L 2536.87,3311.02 L 2536.97,3311.66 L 2537,3314.36"
         style="fill:#81187c;fill-rule:nonzero;stroke:none"
         id="A" /><path
         d="M 2540.85,3393.3 L 2540.8,3391.89 L 2540.38,3389.02 L 2539.53,3386.1 L 2538.84,3384.67 L 2537.96,3383.23 L 2536.85,3381.82 L 2536.22,3381.13 L 2535.55,3380.46 L 2534.82,3379.83 L 2533.2,3378.68 L 2532.33,3378.19 L 2531.39,3377.73 L 2530.42,3377.3 L 2528.3,3376.57 L 2526.14,3376.07 L 2523.86,3375.76 L 2521.55,3375.66 L 2519.14,3375.76 L 2517.91,3375.9 L 2515.35,3376.32 L 2512.7,3376.96 L 2509.99,3377.82 L 2507.88,3378.64 L 2503.44,3380.83 L 2498.71,3383.75 L 2494.78,3386.65 L 2491.95,3389.17 L 2489.44,3391.81 L 2487.23,3394.64 L 2484.58,3398.74 L 2482.73,3402.39 L 2481.67,3405.57 L 2480.95,3409.09 L 2480.82,3411.16 L 2481.04,3413.57 L 2481.61,3416.01 L 2482.32,3417.75 L 2483.31,3419.32 L 2484.12,3420.29 L 2485.04,3421.12 L 2486.05,3421.85 L 2487.14,3422.43 L 2488.35,3422.91 L 2490.19,3423.35 L 2492.05,3423.45 L 2493.85,3423.25 L 2495.75,3422.66 L 2497.86,3421.46 L 2499.61,3419.93 L 2500.58,3418.63 L 2501.2,3417.27 L 2501.51,3415.58 L 2501.33,3413.96 L 2500.64,3412.42 L 2499.75,3411.38 L 2498.61,3410.57 L 2498.04,3410.27 L 2497.47,3410.04 L 2496.93,3409.88 L 2495.77,3409.71 L 2494.11,3409.74 L 2492.41,3410.23 L 2491.09,3410.99 L 2490.47,3411.46 L 2489.89,3411.99 L 2489.36,3412.56 L 2488.59,3413.55 L 2487.41,3414.87 L 2486.7,3415.05 L 2485.95,3414.87 L 2485.1,3414.32 L 2484.6,3413.63 L 2484.17,3411.99 L 2484.05,3410.2 L 2484.2,3408.87 L 2485,3406.18 L 2486.41,3403.65 L 2487.66,3402.05 L 2488.67,3400.99 L 2490.45,3399.45 L 2492.26,3398.18 L 2496.18,3396.02 L 2501.95,3393.51 L 2505.8,3392.18 L 2509.42,3391.16 L 2513.8,3390.31 L 2517.55,3389.96 L 2521.71,3390.14 L 2524.84,3390.69 L 2526.93,3391.38 L 2528.13,3391.96 L 2529.2,3392.66 L 2530.14,3393.45 L 2530.92,3394.29 L 2531.86,3395.64 L 2532.33,3396.63 L 2532.93,3398.88 L 2533.18,3401.46 L 2533.05,3403.38 L 2532.69,3405.18 L 2532.05,3406.86 L 2531.11,3408.57 L 2529.83,3410.27 L 2527.36,3412.96 L 2524.13,3415.4 L 2525.63,3418.06 L 2527.07,3417 L 2530.6,3414.02 L 2533.34,3411.28 L 2535.2,3409.01 L 2536.34,3407.38 L 2537.85,3404.81 L 2539.06,3402.21 L 2539.93,3399.63 L 2540.62,3396.32"
         style="fill:#81187c;fill-rule:nonzero;stroke:none"
         id="c" /><path
         d="M 2540.8,3443.15 L 2540.64,3441.3 L 2540.38,3440.18 L 2539.98,3439.19 L 2539.43,3438.29 L 2538.78,3437.45 L 2537.62,3436.42 L 2536.3,3435.58 L 2534.84,3434.99 L 2533.34,3434.69 L 2531.29,3434.69 L 2529.46,3434.93 L 2489.46,3446.57 L 2489.46,3436.11 L 2481.86,3438.18 L 2481.77,3439.32 L 2481.38,3442.38 L 2481.11,3443.45 L 2479.58,3447.21 L 2477.55,3451.13 L 2475.64,3454.14 L 2473.39,3457.18 L 2471.77,3459.13 L 2469.21,3461.83 L 2467.43,3463.45 L 2465.14,3465.34 L 2465.14,3468.06 L 2481.86,3463.49 L 2481.86,3470.76 L 2489.46,3468.69 L 2489.46,3461.43 L 2527.25,3450.39 L 2527.62,3450.29 L 2530.68,3449.7 L 2531.45,3449.7 L 2532.05,3449.84 L 2532.81,3450.25 L 2533.2,3450.63 L 2533.5,3451.23 L 2533.5,3451.83 L 2532.79,3453.31 L 2531.11,3455.12 L 2529.24,3456.57 L 2525.55,3458.83 L 2527.25,3461.73 L 2529.95,3459.95 L 2533.3,3457.46 L 2534.9,3455.93 L 2537.05,3453.43 L 2538,3452.03 L 2539.2,3449.8 L 2540.1,3447.45 L 2540.62,3445.21"
         style="fill:#81187c;fill-rule:nonzero;stroke:none"
         id="t" /><path
         d="M 2541.23,3487.48 L 2541.2,3486.32 L 2540.8,3484.11 L 2540.28,3482.71 L 2539.55,3481.49 L 2538.61,3480.43 L 2537.48,3479.52 L 2536.16,3478.81 L 2534.68,3478.37 L 2532.47,3478.16 L 2530.24,3478.18 L 2528.05,3478.45 L 2526.08,3478.85 L 2496.76,3487.94 L 2492.32,3489.06 L 2490.62,3489.09 L 2489.97,3488.89 L 2489,3488.38 L 2488.45,3487.9 L 2488,3487.31 L 2487.54,3486.21 L 2487.36,3485.02 L 2487.61,3482.67 L 2484.47,3483.54 L 2480.91,3508 L 2528.7,3493.46 L 2530.58,3493.03 L 2531.47,3493.05 L 2532.02,3493.29 L 2532.28,3493.54 L 2532.49,3493.84 L 2532.66,3494.21 L 2532.67,3494.88 L 2532.33,3495.75 L 2531.25,3497.25 L 2530.31,3498.2 L 2524.11,3503.04 L 2526.05,3505.35 L 2529.49,3503.21 L 2531.33,3501.9 L 2534.27,3499.37 L 2535.2,3498.43 L 2536.1,3497.45 L 2536.95,3496.46 L 2538.64,3494.29 L 2540.04,3492.04 L 2541,3489.54"
         style="fill:#81187c;fill-rule:nonzero;stroke:none"
         id="i" /><path
         d="M 2468.24,3503.04 L 2467.89,3500.95 L 2467.3,3499.39 L 2466.42,3497.83 L 2465.25,3496.27 L 2463.21,3494.23 L 2462.11,3493.34 L 2460.44,3492.23 L 2458.71,3491.43 L 2456.95,3490.91 L 2455.16,3490.7 L 2452.75,3490.85 L 2451,3491.32 L 2449.3,3492.08 L 2447.63,3493.13 L 2446.56,3493.99 L 2444.98,3495.52 L 2443.27,3497.63 L 2442.36,3499.21 L 2441.71,3500.8 L 2441.37,3502.38 L 2441.36,3503.94 L 2441.75,3506.05 L 2442.42,3507.63 L 2443.36,3509.21 L 2445.09,3511.35 L 2446.67,3512.87 L 2448.27,3514.13 L 2449.91,3515.06 L 2451.58,3515.73 L 2453.26,3516.07 L 2455,3516.13 L 2457.39,3515.73 L 2459.14,3515.04 L 2460.89,3514.06 L 2462.04,3513.23 L 2463.77,3511.71 L 2465.33,3510.04 L 2466.55,3508.4 L 2467.42,3506.79 L 2468,3505.18"
         style="fill:#eb0400;fill-rule:nonzero;stroke:none"
         id="i_dot" /><path
         d="M 2539.95,3532.23 L 2539.95,3516.06 L 2481.86,3533.73 L 2481.86,3549.89 L 2490.75,3547.18 L 2489.66,3548.43 L 2487.11,3551.62 L 2484.39,3555.99 L 2482.52,3559.96 L 2481.57,3562.98 L 2481.14,3565.27 L 2480.95,3568.45 L 2481.08,3569.99 L 2481.53,3572.23 L 2482.34,3574.36 L 2483.05,3575.61 L 2483.9,3576.75 L 2484.37,3577.26 L 2484.87,3577.74 L 2485.97,3578.57 L 2487.55,3579.55 L 2489.01,3580.13 L 2493.25,3580.73 L 2489.39,3584.46 L 2487.33,3586.83 L 2484.55,3590.85 L 2483.16,3593.44 L 2482.14,3596 L 2481.3,3599.31 L 2480.98,3602.38 L 2481.23,3606.93 L 2481.93,3609.79 L 2482.28,3610.67 L 2482.66,3611.46 L 2483.13,3612.23 L 2483.66,3612.96 L 2484.27,3613.65 L 2484.94,3614.32 L 2485.66,3614.93 L 2486.44,3615.48 L 2487.25,3615.94 L 2488.11,3616.37 L 2488.98,3616.73 L 2490.8,3617.26 L 2491.74,3617.44 L 2494.45,3617.65 L 2497.92,3617.46 L 2500.64,3616.93 L 2539.95,3605.09 L 2539.95,3588.93 L 2507.96,3598.66 L 2503.76,3599.82 L 2501.63,3600.23 L 2500.64,3600.32 L 2499.22,3600.34 L 2497.31,3600.06 L 2495.38,3599.11 L 2494.61,3598.39 L 2494.19,3597.85 L 2494,3597.55 L 2493.58,3596.41 L 2493.31,3594.2 L 2493.62,3591.7 L 2494.66,3588.57 L 2496.38,3585.49 L 2497.64,3583.68 L 2499.99,3580.77 L 2539.95,3568.63 L 2539.95,3552.46 L 2507.09,3562.45 L 2501.6,3564.03 L 2498.81,3564.23 L 2497.19,3564.03 L 2496.22,3563.71 L 2495.35,3563.24 L 2494.57,3562.63 L 2494.25,3562.29 L 2493.7,3561.49 L 2493.3,3560.54 L 2493.05,3559.51 L 2492.99,3557.87 L 2493.25,3556.1 L 2494.17,3553.32 L 2495.45,3550.8 L 2496.58,3549 L 2499.99,3544.38"
         style="fill:#004d9a;fill-rule:nonzero;stroke:none"
         id="m" /><path
         d="M 2490.92,3662.3 L 2490.94,3661.59 L 2491.14,3660.19 L 2491.51,3658.79 L 2492.07,3657.38 L 2492.83,3655.98 L 2493.78,3654.55 L 2494.33,3653.87 L 2495.67,3652.44 L 2498.3,3650.25 L 2499.28,3649.6 L 2500.27,3649.03 L 2504.35,3647.13 L 2504.35,3670.73 L 2500.91,3671.14 L 2498.64,3670.82 L 2495.85,3669.91 L 2494.17,3668.93 L 2493.58,3668.48 L 2493.09,3667.98 L 2492.62,3667.48 L 2492.22,3666.93 L 2491.57,3665.71 L 2491.14,3664.39 L 2490.94,3663.01 L 2490.92,3662.3 z M 2541.27,3648.52 L 2541.2,3645.98 L 2540.91,3643.68 L 2540.46,3641.58 L 2540.18,3640.63 L 2539.12,3638.05 L 2537.7,3635.32 L 2536.25,3633.27 L 2535.43,3632.38 L 2534.55,3631.56 L 2533.63,3630.79 L 2532.11,3629.77 L 2529.14,3628.42 L 2526.46,3627.63 L 2522.69,3627.07 L 2519.45,3627.06 L 2515.08,3627.52 L 2510.78,3628.56 L 2505.8,3630.2 L 2504.57,3630.73 L 2502.2,3631.93 L 2501.05,3632.59 L 2499.93,3633.31 L 2497.78,3634.82 L 2493.54,3638.16 L 2491.22,3640.31 L 2490.17,3641.42 L 2489.16,3642.6 L 2488.14,3643.82 L 2486.72,3645.8 L 2484.97,3648.73 L 2483.44,3652.01 L 2482.16,3655.64 L 2481.43,3658.63 L 2481.12,3660.75 L 2480.98,3662.98 L 2481.02,3666.49 L 2481.25,3668.68 L 2481.61,3670.63 L 2482.11,3672.38 L 2482.76,3673.88 L 2484.39,3676.9 L 2485.69,3678.58 L 2486.36,3679.27 L 2487.11,3679.93 L 2487.88,3680.49 L 2488.69,3681 L 2489.58,3681.46 L 2490.54,3681.87 L 2491.55,3682.21 L 2494.53,3682.91 L 2498.22,3683.27 L 2502.55,3683.11 L 2507.57,3682.38 L 2512.83,3680.92 L 2512.83,3644.51 L 2515.89,3643.69 L 2518.91,3643.59 L 2522.43,3644.06 L 2524.6,3644.85 L 2525.35,3645.27 L 2526.05,3645.77 L 2526.73,3646.31 L 2527.34,3646.94 L 2527.86,3647.59 L 2528.36,3648.26 L 2528.75,3648.98 L 2529.1,3649.76 L 2529.64,3651.34 L 2529.85,3652.18 L 2530.05,3653.62 L 2530.14,3657.51 L 2529.81,3659.92 L 2528.86,3663.57 L 2527.09,3668.23 L 2524.11,3673.96 L 2522.16,3676.9 L 2532.97,3673.62 L 2533.3,3673.19 L 2535.16,3670.43 L 2537.54,3665.52 L 2539.41,3660.46 L 2540.61,3655.98 L 2541.13,3652.36"
         style="fill:#004d9a;fill-rule:nonzero;stroke:none"
         id="e" /><path
         d="M 2539.95,3703.85 L 2539.95,3687.68 L 2450.6,3714.84 L 2450.6,3731.01"
         style="fill:#004d9a;fill-rule:nonzero;stroke:none"
         id="l" /><path
         d="M 2527.73,3717.84 L 2527.73,3716.54 L 2531.05,3716.54 L 2531.05,3717.52 L 2530.93,3718.54 L 2530.5,3719.2 L 2530.22,3719.43 L 2529.3,3719.64 L 2528.78,3719.57 L 2528.34,3719.34 L 2527.86,3718.73 L 2527.73,3717.84 z M 2536.11,3716.54 L 2536.11,3715.43 L 2526.94,3715.43 L 2526.94,3718.11 L 2527.05,3718.98 L 2527.35,3719.71 L 2527.57,3719.99 L 2528.01,3720.38 L 2528.86,3720.74 L 2529.66,3720.74 L 2530.01,3720.68 L 2530.55,3720.46 L 2531.07,3720.05 L 2531.52,3719.2 L 2531.82,3719.61 L 2536.11,3722.24 L 2536.11,3721.02 L 2532.45,3718.86 L 2531.86,3718.17 L 2531.78,3716.54 L 2536.11,3716.54 z M 2525.24,3718.33 L 2525.28,3717.73 L 2525.36,3717.12 L 2525.52,3716.55 L 2525.75,3715.98 L 2526.01,3715.43 L 2526.33,3714.91 L 2526.7,3714.43 L 2527.12,3713.98 L 2528.11,3713.21 L 2529.23,3712.64 L 2529.84,3712.44 L 2531.05,3712.21 L 2532.33,3712.21 L 2532.95,3712.3 L 2534.17,3712.64 L 2535.28,3713.21 L 2536.25,3713.98 L 2536.68,3714.43 L 2537.06,3714.91 L 2537.39,3715.43 L 2537.66,3715.98 L 2538.01,3717.12 L 2538.11,3717.73 L 2538.11,3718.92 L 2538.01,3719.52 L 2537.66,3720.68 L 2537.39,3721.23 L 2537.06,3721.73 L 2536.68,3722.21 L 2536.25,3722.66 L 2535.28,3723.43 L 2534.17,3724 L 2533.56,3724.2 L 2532.33,3724.44 L 2531.05,3724.44 L 2530.45,3724.34 L 2529.23,3724 L 2528.11,3723.43 L 2527.12,3722.66 L 2526.7,3722.21 L 2526.33,3721.73 L 2525.75,3720.68 L 2525.52,3720.09 L 2525.36,3719.52 L 2525.28,3718.92 L 2525.24,3718.33 z M 2539.13,3718.33 L 2539.09,3717.62 L 2538.99,3716.93 L 2538.8,3716.27 L 2538.56,3715.62 L 2538.24,3714.99 L 2537.87,3714.38 L 2537.43,3713.83 L 2536.95,3713.33 L 2536.41,3712.84 L 2535.83,3712.44 L 2535.2,3712.07 L 2534.54,3711.79 L 2533.14,3711.39 L 2532.43,3711.28 L 2531.7,3711.24 L 2530.95,3711.28 L 2530.24,3711.39 L 2529.53,3711.55 L 2528.86,3711.79 L 2528.2,3712.07 L 2527.57,3712.44 L 2526.98,3712.84 L 2526.44,3713.33 L 2525.95,3713.83 L 2525.52,3714.38 L 2525.14,3714.99 L 2524.84,3715.62 L 2524.57,3716.27 L 2524.41,3716.93 L 2524.3,3717.62 L 2524.27,3718.33 L 2524.3,3719.02 L 2524.41,3719.71 L 2524.57,3720.38 L 2524.84,3721.02 L 2525.14,3721.65 L 2525.52,3722.26 L 2525.95,3722.81 L 2526.44,3723.33 L 2526.98,3723.8 L 2527.57,3724.2 L 2528.2,3724.57 L 2528.86,3724.85 L 2529.53,3725.09 L 2530.24,3725.27 L 2530.95,3725.38 L 2531.7,3725.39 L 2532.43,3725.38 L 2533.14,3725.27 L 2533.85,3725.09 L 2534.54,3724.85 L 2535.2,3724.57 L 2535.83,3724.2 L 2536.41,3723.8 L 2536.95,3723.33 L 2537.43,3722.81 L 2537.87,3722.26 L 2538.24,3721.65 L 2538.56,3721.02 L 2538.8,3720.38 L 2538.99,3719.71 L 2539.09,3719.02"
         style="fill:#004d9a;fill-rule:nonzero;stroke:none"
         id="(R)" /></g><path
       d="M 93.305624,453.85291 L 98.544875,448.36711 L 108.46863,439.12137 L 117.31988,431.244 L 131.42271,419.37248 L 146.20356,407.72285 L 161.28028,396.50469 L 169.7617,390.68604 L 178.42803,385.10162 L 187.31627,379.80073 L 196.38942,374.75872 L 208.80336,368.39766 L 218.35729,363.97203 L 231.39994,358.44924 L 241.42231,354.59069 L 255.106,349.89386 L 265.58451,346.66401 L 276.12464,343.84098 L 286.75108,341.41243 L 297.42682,339.34139 L 308.15187,337.66483 L 318.97555,336.39508 L 329.86086,335.47051 L 340.80781,334.92809 L 351.80408,334.80481 L 362.91129,335.0637 L 374.06781,335.68008 L 385.19967,336.69094 L 396.25757,338.03466 L 407.17987,339.71122 L 418.00354,341.76994 L 428.74093,344.13684 L 439.36736,346.87358 L 449.88284,349.94317 L 460.28738,353.39491 L 470.63027,357.14251 L 480.84989,361.27227 L 491.35305,365.9198 L 498.88524,369.54413 L 506.42976,373.42734 L 513.96196,377.54477 L 521.51881,381.90876 L 529.03867,386.53163 L 536.58319,391.40105 L 541.89641,395.01305 L 534.01904,420.9874 L 533.40266,420.53128 L 527.91685,416.48781 L 522.1845,412.51831 L 513.38256,406.74897 L 504.35872,401.26316 L 495.076,396.01159 L 485.37414,390.89561 L 475.42573,386.0755 L 465.35404,381.60057 L 455.1714,377.4708 L 444.86549,373.64923 L 434.41164,370.19749 L 423.85918,367.0786 L 409.58376,363.41729 L 395.09877,360.39701 L 384.10251,358.52321 L 372.97065,356.99458 L 361.91275,355.83578 L 350.91648,355.07147 L 339.93255,354.68931 L 332.63458,354.66466 L 321.73694,354.94819 L 310.87628,355.61388 L 300.04028,356.67406 L 289.3029,358.1164 L 278.56552,359.95322 L 267.88978,362.18452 L 257.288,364.74867 L 246.85881,367.59636 L 233.26141,371.8494 L 223.25136,375.32579 L 213.43855,379.09805 L 200.67944,384.54687 L 191.2981,388.9725 L 182.114,393.65701 L 173.11482,398.62505 L 164.27589,403.83964 L 155.14111,409.64597 L 148.87866,413.71409 L 142.6532,417.85618 L 136.42774,422.08456 L 130.20227,426.41157 L 123.98914,430.78788 L 117.81299,435.27515 L 111.63684,439.82405 L 102.44041,446.73986"
       style="fill:#ffc90d;fill-rule:nonzero;stroke:none"
       id="bogen" /></g></svg>