<svg width="500" height="65" viewBox="0 0 500 65" fill="none" xmlns="http://www.w3.org/2000/svg">
<g clip-path="url(#clip0_2_1123)">
<path fill-rule="evenodd" clip-rule="evenodd" d="M500 29.243C500 35.7032 494.698 40.9396 488.157 40.9396C481.619 40.9396 476.317 35.7032 476.317 29.243C476.317 22.7828 481.619 17.5464 488.157 17.5464C494.698 17.5464 500 22.7828 500 29.243ZM11.8402 40.9396C5.30221 40.9396 0 35.7032 0 29.243C0 22.7828 5.30221 17.5464 11.8402 17.5464C18.3812 17.5464 23.6834 22.7828 23.6834 29.243C23.6834 35.7032 18.3812 40.9396 11.8402 40.9396Z" fill="#F84018"/>
<path fill-rule="evenodd" clip-rule="evenodd" d="M382.481 0H399.755L411.733 48.477H415.634L427.523 0H444.444L426.789 64.3327H400.222L382.481 0ZM327.594 0H344.093V64.3327H327.594V0ZM289.052 14.7756H270.066V64.3327H253.564V14.7756H234.671V0H289.052V14.7756ZM180.38 0C195.371 0 204.064 7.74985 204.064 21.173C204.064 34.7786 195.371 42.708 180.38 42.708H166.538V64.3327H150.036V0H180.38ZM178.247 28.3842C184.725 28.3842 187.208 26.0383 187.208 21.4452C187.208 16.8492 184.725 14.596 178.247 14.596H166.538V28.3842H178.247ZM102.041 64.3327L97.4298 47.6631H76.1371L71.6129 64.3327H55.5566L74.5393 0H99.4675L118.456 64.3327H102.041ZM79.6859 34.5093H93.7942L88.7344 15.8588H84.8325L79.6859 34.5093Z" fill="black"/>
</g>
<defs>
<clipPath id="clip0_2_1123">
<rect width="500" height="64.3327" fill="white"/>
</clipPath>
</defs>
</svg>
