<?xml version="1.0"?>
<svg xmlns="http://www.w3.org/2000/svg" width="193.42351" height="46.392307" viewBox="0 0 193.42352 46.392307">
<g transform="matrix(1.25,0,0,-1.25,-863.62028,743.72765)">
 <g transform="matrix(1.4971599,0,0,1.4971599,-343.48586,-295.80122)">
  <path transform="translate(750.7383,585.5264)" style="fill:#7b7979;fill-rule:evenodd;stroke:none" d="M 0,0 4.313,0 4.326,-14.676 7.931,-14.675 7.919,0 12.132,0.001 12.713,2.941 -0.002,2.939 0,0 Z" />
  <path transform="translate(775.4248,588.8228)" style="fill:#7b7979;fill-rule:evenodd;stroke:none" d="m 0,0 c 0.128,-1.166 0.18,-2.206 0.18,-3.903 l 0.009,-9.682 c 0,-1.851 0.052,-2.256 0.306,-2.916 0.406,-1.09 1.575,-1.774 3.023,-1.774 0.735,0 1.446,0.127 2.029,0.355 l -0.584,2.027 c -0.18,-0.049 -0.254,-0.049 -0.381,-0.049 -0.28,0 -0.56,0.126 -0.687,0.354 -0.203,0.355 -0.227,0.659 -0.231,2.889 L 3.657,-2.585 C 3.656,-0.76 3.604,0.077 3.476,0.787 L 0,0 Z" />
  <path transform="translate(785.8584,578.2031)" style="fill:#7b7979;fill-rule:evenodd;stroke:none" d="m 0,0 4.371,-7.35 4.01,0 -5.108,7.553 4.132,5.476 -4.085,0 L 0,0 Z" />
  <path transform="translate(782.374,585.4775)" style="fill:#7b7979;fill-rule:evenodd;stroke:none" d="m 0,0 0.013,-14.625 3.4,0 L 3.401,0 c 0,1.724 -0.052,3.245 -0.207,4.208 L -0.229,3.372 C -0.025,2.028 0,1.141 0,0" />
  <path transform="translate(763.916,579.8486)" style="fill:#7b7979;fill-rule:evenodd;stroke:none" d="M 0,0 C 1.395,0.939 2.664,1.471 3.756,1.471 5,1.471 5.277,0.99 5.279,-0.455 l 0,-0.532 -0.761,0.025 c -4.136,-0.001 -6.243,-1.42 -6.239,-4.462 0.002,-2.586 1.577,-4.055 4.47,-4.055 1.066,0 1.98,0.254 2.612,0.709 0.256,0.178 0.306,0.229 0.785,0.685 0.333,-0.658 1.044,-1.241 1.831,-1.571 l 1.801,2.079 c -0.99,0.735 -1.22,1.266 -1.22,2.66 l 0.071,4.589 C 8.629,1.066 8.578,1.471 8.4,2.004 7.89,3.448 6.392,4.259 4.209,4.259 3.018,4.259 1.926,4.031 0.658,3.499 -0.256,3.144 -0.611,2.966 -1.448,2.434 L 0,0 Z M 5.183,-6.107 C 4.675,-6.666 4.041,-6.995 3.406,-6.995 c -0.862,0 -1.498,0.684 -1.498,1.698 -0.002,1.546 0.811,1.977 3.172,1.977 l 0.103,-2.787 z" />
  <path transform="translate(790.4561,590.4551)" style="fill:#7b7979;fill-rule:evenodd;stroke:none" d="m 0,0 0.63,0 0,1.335 C 0.681,1.331 0.698,1.321 0.731,1.308 0.842,1.252 0.942,1.101 1.261,0.524 1.385,0.299 1.436,0.212 1.56,0 L 2.319,0 C 2.319,0 1.733,1.013 1.551,1.243 1.509,1.298 1.48,1.326 1.416,1.376 1.812,1.386 2.131,1.781 2.131,2.261 2.131,2.822 1.757,3.199 1.19,3.199 L 0,3.204 0,0 Z M 0.861,2.684 C 1.017,2.684 1.149,2.665 1.225,2.638 1.376,2.578 1.455,2.444 1.455,2.246 1.455,2.113 1.407,1.998 1.329,1.924 1.243,1.846 1.122,1.818 0.847,1.818 l -0.217,0 0.004,0.866 0.227,0 z M -1.67,1.65 c 0,1.43 1.159,2.589 2.59,2.589 1.429,0 2.589,-1.159 2.589,-2.589 0,-1.43 -1.16,-2.589 -2.589,-2.589 -1.431,0 -2.59,1.159 -2.59,2.589 m -0.288,0 c 0,1.589 1.289,2.877 2.878,2.877 1.588,0 2.875,-1.288 2.875,-2.877 0,-1.589 -1.287,-2.877 -2.875,-2.877 -1.589,0 -2.878,1.288 -2.878,2.877" />
  <path transform="translate(705.4434,580.4775)" style="fill:#f57c14;fill-rule:evenodd;stroke:none" d="m 0,0 0.007,-9.631 1.979,0 -0.006,7.908 c 0,1.039 0.152,1.419 0.734,2.003 0.585,0.583 1.345,0.912 2.106,0.912 0.23,0 0.306,-0.025 0.56,-0.101 l 0.809,2.154 c 0,0 -0.355,0.127 -0.683,0.127 -1.295,0 -2.64,-0.811 -3.554,-2.104 0,1.013 -0.127,1.394 -0.431,2.053 L -0.459,2.789 C -0.103,1.977 -0.002,1.445 0,0" />
  <path transform="translate(690.9102,570.8447)" style="fill:#f57c14;fill-rule:evenodd;stroke:none" d="m 0,0 4.492,0 c 2.588,0 3.023,0.051 3.96,0.406 1.726,0.609 2.942,2.459 2.942,4.36 C 11.392,6.135 10.78,7.529 9.842,8.264 9.258,8.72 8.825,8.898 7.532,9.227 c 1.979,0.634 3.119,2.003 3.117,3.802 0,1.775 -1.194,3.371 -2.972,3.979 -0.888,0.304 -1.726,0.38 -5.177,0.38 l -2.514,0 L 0,0 Z m 4.456,15.64 c 0.887,0 1.42,-0.026 1.901,-0.153 C 7.551,15.209 8.338,14.12 8.34,12.75 8.342,12.268 8.241,11.813 8.063,11.407 7.556,10.241 6.896,9.912 5.019,9.911 l -3.023,0 -0.003,5.728 2.463,0.001 z M 5.07,8.188 C 5.934,8.188 6.618,8.111 7.1,8.011 8.344,7.731 9.208,6.464 9.21,4.944 9.21,4.437 9.109,3.955 8.932,3.499 8.375,2.104 7.613,1.699 5.481,1.699 L 2.004,1.698 2,8.188 l 3.07,0 z" />
  <path transform="translate(718.3887,572.2158)" style="fill:#f57c14;fill-rule:evenodd;stroke:none" d="M 0,0 C -1.268,0 -2.437,0.456 -3.147,1.546 -3.58,2.205 -3.732,3.118 -3.734,4.309 L 4.159,4.613 C 4.106,7.909 3.8,9.1 2.707,10.215 c -0.838,0.912 -2.056,1.393 -3.427,1.393 -1.523,0 -2.766,-0.583 -3.779,-1.774 -1.09,-1.241 -1.522,-2.636 -1.52,-4.765 0.004,-4.182 2.112,-6.717 5.614,-6.716 1.625,0 3.147,0.557 4.262,1.571 L 3.095,1.191 C 2.207,0.38 1.22,0 0,0 m -0.82,10.038 c 0.966,0 1.854,-0.431 2.285,-1.116 C 1.846,8.314 2.025,7.478 2.051,6.109 L -3.735,6.108 c 0.1,2.611 1.113,3.929 2.915,3.93" />
  <path transform="translate(726.3525,580.6826)" style="fill:#f57c14;fill-rule:evenodd;stroke:none" d="m 0,0 c 0.584,0.456 0.837,0.633 1.599,0.937 0.937,0.406 1.699,0.559 2.436,0.559 0.787,0 1.294,-0.228 1.7,-0.685 0.356,-0.405 0.409,-0.861 0.409,-1.977 l 0.002,-0.887 -0.89,0.026 c -4.239,-10e-4 -6.697,-1.674 -6.697,-4.538 0.001,-0.811 0.306,-1.926 1.016,-2.586 0.661,-0.608 1.449,-1.014 3.047,-1.013 1.446,0 2.436,0.481 3.653,1.699 0.23,-0.888 0.864,-1.572 1.728,-1.85 l 1.015,1.419 c -0.814,0.405 -1.04,0.962 -1.044,2.509 l 0.025,0.583 0.099,4.157 0,0.633 C 8.096,0.152 8.045,0.583 7.816,1.142 7.281,2.434 6.064,3.118 4.312,3.118 2.485,3.118 0.683,2.535 -0.991,1.419 L 0,0 Z m 6.021,-6.717 c -0.584,-1.191 -1.775,-1.977 -3.07,-1.977 -1.447,0 -2.182,0.811 -2.183,2.306 -0.002,0.862 0.226,1.496 0.709,2.003 0.631,0.659 1.699,1.014 3.627,1.014 l 0.99,-0.05 -0.073,-3.296 z" />
  <path transform="translate(746.4727,589.3525)" style="fill:#f57c14;fill-rule:evenodd;stroke:none" d="m 0,0 0.004,-5.297 0.027,-1.952 c -0.762,1.014 -2.006,1.622 -3.427,1.622 -0.915,0 -1.624,-0.254 -2.435,-0.811 -1.725,-1.192 -2.613,-3.169 -2.609,-5.855 0.002,-4.031 1.882,-6.388 5.155,-6.388 0.99,0 1.853,0.229 2.487,0.685 0.33,0.203 0.482,0.38 0.862,0.786 0.078,-0.634 0.102,-0.811 0.281,-1.293 l 2.031,0.001 c -0.152,0.405 -0.179,0.582 -0.256,1.013 -0.077,0.557 -0.127,1.774 -0.129,3.067 L 1.981,-0.329 0,0 Z m -0.014,-15.284 c -0.101,-0.203 -0.304,-0.583 -0.759,-0.913 -0.787,-0.608 -1.396,-0.811 -2.437,-0.811 -0.938,0 -1.497,0.203 -2.056,0.811 -0.761,0.811 -0.99,1.774 -0.993,3.954 0,1.774 0.2,2.687 0.81,3.65 0.533,0.862 1.37,1.318 2.359,1.318 1.497,0.001 2.438,-0.431 3.073,-1.318 l 0.003,-6.691 z" />
 </g>
</g>
</svg>