<svg width="500" height="78" viewBox="0 0 500 78" fill="none" xmlns="http://www.w3.org/2000/svg">
<g clip-path="url(#clip0_2_2063)">
<path d="M35.4031 77.1782C54.9557 77.1782 70.8062 59.9012 70.8062 38.5891C70.8062 17.2769 54.9557 0 35.4031 0C15.8505 0 0 17.2769 0 38.5891C0 59.9012 15.8505 77.1782 35.4031 77.1782Z" fill="#A2674F"/>
<path d="M47.334 16.4501H49.5446C49.5446 18.6932 49.8697 25.6503 49.9348 26.3981C49.9348 26.6581 49.9564 26.9074 49.9998 27.1458C50.0431 27.4059 50.1081 27.6551 50.1948 27.8935C50.2815 28.1319 50.3899 28.3595 50.5199 28.5762C50.6283 28.7929 50.7692 28.988 50.9426 29.1614C51.1593 29.3781 51.3652 29.5948 51.5603 29.8116C51.7553 30.0066 51.9395 30.2125 52.1129 30.4293C52.308 30.646 52.4922 30.8736 52.6656 31.112C52.8606 31.3287 53.0449 31.5454 53.2182 31.7622C53.4783 32.1306 53.7167 32.5207 53.9335 32.9325C54.1285 33.3443 54.2911 33.7669 54.4211 34.2004C54.5728 34.6339 54.6812 35.0782 54.7462 35.5333C54.8112 35.9884 54.8329 36.4436 54.8112 36.8987C54.8112 37.7114 54.5511 58.5827 54.5511 59.428H52.5355C52.5355 59.2004 52.7956 37.6464 52.7956 36.8987C52.7956 36.5519 52.7848 36.216 52.7631 35.8909C52.7198 35.5658 52.6439 35.2515 52.5355 34.9481C52.4272 34.623 52.2971 34.3196 52.1454 34.0378C51.9937 33.7344 51.8203 33.4527 51.6253 33.1926C51.4519 32.9975 51.2785 32.8025 51.1051 32.6074C50.9317 32.4124 50.7583 32.2173 50.585 32.0222C50.4116 31.8489 50.2382 31.6646 50.0648 31.4696C49.8914 31.2962 49.7072 31.112 49.5121 30.9169C49.2521 30.6352 49.0137 30.3209 48.7969 29.9741C48.5802 29.6274 48.396 29.2697 48.2443 28.9013C48.0925 28.5329 47.9733 28.1536 47.8866 27.7635C47.8216 27.3733 47.7783 26.9724 47.7566 26.5606C47.6591 25.6503 47.334 18.5307 47.334 16.3525V16.4501Z" fill="white"/>
<path d="M21.554 16.2549H23.5696C23.5696 18.433 23.2445 25.5527 23.1794 26.4955C23.1794 26.8856 23.1361 27.2757 23.0494 27.6658C22.9627 28.0776 22.8435 28.4677 22.6918 28.8362C22.5401 29.2046 22.3559 29.5622 22.1391 29.909C21.9224 30.2341 21.6732 30.5483 21.3914 30.8518C21.218 31.0251 21.0338 31.1985 20.8387 31.3719C20.6654 31.567 20.492 31.762 20.3186 31.9571C20.1452 32.1305 19.9718 32.3147 19.7984 32.5098C19.625 32.7048 19.4625 32.9107 19.3108 33.1274C19.1157 33.3875 18.9315 33.6584 18.7581 33.9402C18.6064 34.2436 18.4872 34.547 18.4005 34.8505C18.2921 35.1756 18.2163 35.5007 18.1729 35.8258C18.1296 36.1509 18.1188 36.476 18.1404 36.801C18.1404 37.6463 18.4005 59.2003 18.4005 59.3628H16.3524C16.3524 58.5176 16.1248 37.6463 16.1248 36.801C16.1032 36.3459 16.1248 35.8908 16.1898 35.4356C16.2549 34.9805 16.3632 34.5362 16.5149 34.1027C16.645 33.6693 16.8184 33.2466 17.0351 32.8349C17.2518 32.4231 17.5011 32.0438 17.7828 31.697C17.9562 31.4586 18.1404 31.231 18.3355 31.0143C18.5089 30.7759 18.6931 30.5483 18.8882 30.3316C19.0615 30.1149 19.2566 29.909 19.4733 29.7139C19.6684 29.4972 19.8634 29.2913 20.0585 29.0962C20.2319 28.9012 20.3944 28.6953 20.5462 28.4786C20.6762 28.2835 20.7954 28.0668 20.9038 27.8284C20.9905 27.59 21.0555 27.3407 21.0988 27.0806C21.1422 26.8206 21.1638 26.5713 21.1638 26.3329C21.2289 25.4877 21.554 18.5306 21.554 16.3524V16.2549Z" fill="white"/>
<path d="M42.5553 58.6803C42.4578 59.363 42.0351 59.5255 41.3849 59.5255H29.1938C28.5436 59.5255 28.0234 59.363 28.0234 58.6803C28.0234 57.9976 28.6086 57.835 29.1938 57.77C29.8765 57.6725 32.3147 57.3474 32.8999 57.2499C33.0516 57.2282 33.2033 57.174 33.355 57.0873C33.5067 57.0223 33.6368 56.9248 33.7452 56.7947C33.8535 56.6647 33.951 56.5238 34.0377 56.3721C34.1028 56.2204 34.1461 56.0687 34.1678 55.917C34.1678 55.2343 34.3303 39.402 34.3303 36.9638C34.3303 34.4605 33.16 33.0951 31.1444 31.112C30.8626 30.8086 30.6134 30.4835 30.3967 30.1367C30.1799 29.8116 29.9957 29.454 29.844 29.0639C29.7139 28.6955 29.6056 28.3162 29.5189 27.9261C29.4322 27.5359 29.378 27.1458 29.3563 26.7557C29.2913 25.8129 28.9662 20.1237 28.9662 17.848V16.5151H41.9701V17.848C41.9701 20.1237 41.645 25.8129 41.5475 26.7232C41.5258 27.135 41.4825 27.5251 41.4175 27.8936C41.3308 28.2837 41.2116 28.663 41.0599 29.0314C40.9081 29.3998 40.7239 29.7466 40.5072 30.0717C40.2905 30.4185 40.052 30.7327 39.792 31.0145C39.3152 31.3613 38.8925 31.7405 38.5241 32.1523C38.134 32.5858 37.798 33.0518 37.5163 33.5502C37.2345 34.0487 37.007 34.5689 36.8336 35.1107C36.6602 35.6742 36.5518 36.2377 36.5085 36.8012C36.606 39.6621 36.671 55.1692 36.671 55.7544C36.6927 55.9061 36.7361 56.0687 36.8011 56.2421C36.8661 56.3938 36.9528 56.5238 37.0611 56.6322C37.1695 56.7622 37.2996 56.8706 37.4513 56.9573C37.603 57.0223 37.7655 57.0656 37.9389 57.0873C38.6216 57.1848 40.8648 57.5099 41.5475 57.575C42.1327 57.6725 42.7178 57.835 42.5553 58.6803Z" fill="white"/>
<path fill-rule="evenodd" clip-rule="evenodd" d="M90.2469 37.8089C90.2469 31.2745 90.2469 30.1041 90.1819 28.7387C90.0844 27.3408 89.7593 26.5606 88.3289 26.333C88.1988 26.2897 88.0579 26.2571 87.9062 26.2355C87.7762 26.2355 87.6353 26.2246 87.4836 26.203C87.3536 26.1813 87.2127 26.1704 87.061 26.1704C86.9309 26.1704 86.7901 26.1704 86.6383 26.1704C86.1507 26.1704 85.8906 26.0729 85.8906 25.7478C85.8906 25.4227 86.2157 25.3252 86.8009 25.3252C89.0766 25.3252 91.7749 25.4877 92.6852 25.4877C94.7983 25.4877 96.4563 25.4227 97.8867 25.4227C105.689 25.4227 107.054 29.6165 107.054 31.8597C107.011 32.6182 106.881 33.3659 106.664 34.1028C106.448 34.818 106.155 35.5116 105.787 36.1835C105.396 36.8336 104.941 37.4297 104.421 37.9715C103.901 38.5133 103.316 38.9901 102.666 39.4019C106.209 40.5723 110.468 43.6932 110.468 48.7322C110.468 53.3161 106.859 58.095 98.9921 58.03C97.9842 58.03 94.0181 57.7699 92.7827 57.7699C91.7749 57.7699 89.0766 57.8675 87.4186 57.8675C86.8334 57.8675 86.5733 57.7049 86.5733 57.4448C86.5733 57.1848 86.7359 57.1197 87.2235 57.1197C87.3536 57.1197 87.4836 57.1089 87.6136 57.0872C87.7437 57.0872 87.8737 57.0764 88.0038 57.0547C88.1338 57.0547 88.253 57.0439 88.3614 57.0222C88.4914 57.0005 88.6214 56.968 88.7515 56.9247C89.5967 56.7621 89.8243 55.8519 90.0194 54.584C90.0627 53.8254 90.106 53.0669 90.1494 52.3083C90.1927 51.5497 90.2253 50.7912 90.2469 50.0326C90.2686 49.274 90.2794 48.5155 90.2794 47.7569C90.2794 46.9767 90.2686 46.2073 90.2469 45.4487V37.8089ZM95.3835 38.4916C95.3835 38.535 95.3835 38.5892 95.3835 38.6542C95.4051 38.6975 95.4268 38.7409 95.4485 38.7842C95.4918 38.8493 95.5352 38.8926 95.5785 38.9143C95.6219 38.9576 95.6652 38.9793 95.7086 38.9793C95.8819 39.0226 96.0553 39.0551 96.2287 39.0768C96.3804 39.0985 96.543 39.1093 96.7164 39.1093C96.8898 39.131 97.0631 39.1418 97.2365 39.1418C97.3882 39.1635 97.5508 39.1635 97.7242 39.1418C98.0059 39.1852 98.2768 39.196 98.5369 39.1744C98.8187 39.1527 99.0896 39.1093 99.3497 39.0443C99.6314 38.9576 99.8915 38.8601 100.13 38.7517C100.368 38.6217 100.596 38.4808 100.813 38.3291C101.138 38.0257 101.409 37.7006 101.625 37.3538C101.864 37.007 102.059 36.6386 102.211 36.2485C102.362 35.8584 102.471 35.4574 102.536 35.0456C102.601 34.6121 102.622 34.1895 102.601 33.7777C102.601 30.9169 100.91 27.1457 97.2365 27.1457C97.1065 27.1457 96.9873 27.1457 96.8789 27.1457C96.7489 27.1457 96.6297 27.1566 96.5213 27.1783C96.3913 27.1783 96.2721 27.1891 96.1637 27.2108C96.0337 27.2108 95.9145 27.2216 95.8061 27.2433C95.4485 27.3408 95.3835 27.5033 95.3835 27.991V38.4916ZM101.105 41.9377C100.845 41.7643 100.574 41.6126 100.292 41.4825C100.011 41.3525 99.7181 41.2441 99.4147 41.1574C99.1112 41.0708 98.8078 41.0057 98.5044 40.9624C98.1793 40.919 97.865 40.9082 97.5616 40.9299C97.4099 40.9082 97.2582 40.8974 97.1065 40.8974C96.9548 40.8757 96.8031 40.8649 96.6513 40.8649C96.4996 40.8432 96.3479 40.8323 96.1962 40.8323C96.0228 40.8323 95.8603 40.8323 95.7086 40.8323C95.546 40.8323 95.481 40.9299 95.481 41.19V51.333C95.481 54.1613 95.546 54.8441 96.9764 55.4292C97.2148 55.5376 97.4641 55.6243 97.7242 55.6893C97.9843 55.7543 98.2443 55.8085 98.5044 55.8519C98.7645 55.8952 99.0246 55.9277 99.2846 55.9494C99.5447 55.9494 99.8048 55.9494 100.065 55.9494C100.78 55.9819 101.495 55.8519 102.178 55.5918C102.828 55.3317 103.446 54.9091 103.934 54.3889C104.421 53.8688 104.811 53.2511 105.039 52.6009C105.266 51.9182 105.364 51.203 105.266 50.4877C105.288 49.6642 105.212 48.8406 105.039 48.017C104.865 47.2151 104.595 46.4457 104.226 45.7088C103.858 44.9719 103.403 44.2784 102.861 43.6282C102.341 43.0105 101.755 42.4253 101.105 41.9377Z" fill="#776E64"/>
<path fill-rule="evenodd" clip-rule="evenodd" d="M119.116 37.8089C119.116 31.2745 119.116 30.1041 119.051 28.7387C118.953 27.3408 118.628 26.5606 117.198 26.333C116.872 26.2355 116.092 26.2355 115.507 26.1704C115.019 26.1704 114.759 26.0729 114.759 25.7478C114.759 25.4227 115.084 25.3252 115.67 25.3252C117.945 25.3252 120.644 25.4877 121.554 25.4877C122.984 25.4877 126.268 25.4227 127.601 25.4227C128.294 25.3577 128.977 25.3577 129.649 25.4227C130.342 25.4661 131.025 25.5744 131.697 25.7478C132.369 25.8995 133.019 26.1054 133.647 26.3655C134.276 26.6039 134.894 26.8965 135.5 27.2433C135.934 27.59 136.335 27.991 136.703 28.4461C137.072 28.8796 137.375 29.3456 137.614 29.8441C137.874 30.3642 138.069 30.8952 138.199 31.437C138.351 32.0005 138.426 32.564 138.426 33.1275C138.426 36.3135 137.093 39.2394 132.737 42.7504C136.508 47.5294 139.532 51.398 142.035 54.0963C142.338 54.4431 142.674 54.779 143.043 55.1041C143.411 55.4076 143.79 55.6893 144.181 55.9494C144.592 56.1878 145.015 56.3937 145.448 56.5671C145.904 56.7621 146.359 56.9138 146.814 57.0222C146.922 57.0439 147.02 57.0656 147.106 57.0872C147.215 57.0872 147.312 57.0981 147.399 57.1197C147.507 57.1414 147.605 57.1522 147.692 57.1522C147.8 57.1739 147.898 57.1848 147.984 57.1848C148.342 57.1848 148.504 57.3473 148.504 57.5099C148.504 57.8675 148.179 57.9325 147.659 57.9325H143.563C143.151 57.9758 142.75 57.9867 142.36 57.965C141.97 57.9433 141.58 57.9 141.19 57.8349C140.8 57.7483 140.409 57.6507 140.019 57.5424C139.651 57.4123 139.293 57.2606 138.947 57.0872C138.34 56.6754 137.765 56.2311 137.224 55.7543C136.682 55.2775 136.162 54.779 135.663 54.2589C135.186 53.717 134.72 53.1644 134.265 52.6009C133.832 52.0157 133.431 51.4197 133.062 50.8128C131.372 48.4721 129.356 45.5138 128.771 44.8636C128.728 44.7985 128.673 44.7444 128.608 44.701C128.565 44.6577 128.511 44.6252 128.446 44.6035C128.381 44.5818 128.305 44.5601 128.218 44.5385C128.153 44.5168 128.088 44.5059 128.023 44.5059L124.252 44.4409C123.992 44.4409 123.895 44.5059 123.895 44.766V45.3512C123.895 49.3824 123.895 52.7309 124.057 54.584C124.155 55.8519 124.48 56.7621 125.748 56.9247C125.921 56.9464 126.094 56.968 126.268 56.9897C126.441 57.0114 126.615 57.0222 126.788 57.0222C126.961 57.0439 127.135 57.0547 127.308 57.0547C127.503 57.0764 127.687 57.0872 127.861 57.0872C128.186 57.0872 128.348 57.2498 128.348 57.4123C128.348 57.7699 128.023 57.8349 127.503 57.8349C125 57.8349 121.814 57.6724 121.229 57.6724C120.383 57.6724 117.685 57.7699 116.027 57.7699C115.409 57.7699 115.182 57.5749 115.182 57.3473C115.182 57.0872 115.344 57.0222 115.832 57.0222C115.962 57.0222 116.092 57.0114 116.222 56.9897C116.352 56.9897 116.482 56.9789 116.612 56.9572C116.742 56.9572 116.862 56.9464 116.97 56.9247C117.1 56.903 117.23 56.8705 117.36 56.8271C118.205 56.6646 118.433 55.7543 118.628 54.4864C118.671 53.7279 118.715 52.9693 118.758 52.2108C118.801 51.4522 118.834 50.6936 118.856 49.9351C118.877 49.1765 118.888 48.418 118.888 47.6594C118.888 46.8792 118.877 46.1098 118.856 45.3512L119.116 37.8089ZM124.155 41.255C124.155 41.7426 124.252 41.9377 124.577 42.0027C124.837 42.0894 125.108 42.1544 125.39 42.1978C125.65 42.2628 125.921 42.317 126.203 42.3603C126.463 42.382 126.734 42.4037 127.015 42.4253C127.297 42.4253 127.579 42.4253 127.861 42.4253C128.121 42.4687 128.381 42.4795 128.641 42.4578C128.901 42.4362 129.161 42.3928 129.421 42.3278C129.681 42.2628 129.941 42.1761 130.201 42.0677C130.44 41.9594 130.667 41.8293 130.884 41.6776C131.318 41.2658 131.708 40.8107 132.054 40.3122C132.401 39.8137 132.683 39.2936 132.9 38.7517C133.116 38.1882 133.268 37.603 133.355 36.9962C133.442 36.411 133.452 35.815 133.387 35.2082C133.387 29.0963 129.356 27.3408 126.853 27.3408C126.658 27.3191 126.463 27.3191 126.268 27.3408C126.073 27.3408 125.888 27.3516 125.715 27.3733C125.52 27.3733 125.325 27.3841 125.13 27.4058C124.935 27.4275 124.751 27.46 124.577 27.5033C124.22 27.5684 124.155 27.7634 124.155 28.0885V41.255Z" fill="#776E64"/>
<path fill-rule="evenodd" clip-rule="evenodd" d="M146.814 41.5801C146.814 34.2003 151.691 24.74 164.629 24.805C175.26 24.805 181.99 31.0144 181.99 40.8974C182.087 43.2706 181.665 45.6113 180.819 47.7894C179.942 49.9676 178.641 51.9507 176.951 53.6087C175.293 55.2667 173.277 56.5671 171.099 57.4123C168.888 58.2576 166.548 58.6152 164.207 58.5176C161.931 58.6152 159.655 58.2901 157.51 57.4773C155.364 56.6646 153.414 55.4292 151.788 53.8362C150.163 52.2433 148.895 50.3577 148.017 48.2446C147.172 46.1314 146.749 43.8557 146.814 41.5801ZM175.943 42.4253C175.943 32.7699 170.416 26.8206 163.362 26.8206C158.388 26.8206 152.763 29.584 152.763 40.2472C152.763 49.1223 157.737 56.242 165.962 56.242C168.986 56.3395 175.943 54.8115 175.943 42.4253Z" fill="#776E64"/>
<path d="M186.931 29.6815C186.888 29.3998 186.812 29.118 186.704 28.8362C186.617 28.5762 186.498 28.3161 186.346 28.056C186.216 27.7959 186.064 27.5467 185.891 27.3083C185.739 27.0699 185.555 26.8532 185.338 26.6581C185.208 26.5931 185.078 26.5281 184.948 26.463C184.818 26.4197 184.677 26.3763 184.526 26.333C184.395 26.3113 184.255 26.2897 184.103 26.268C183.951 26.2463 183.81 26.2355 183.68 26.2355C183.258 26.2355 182.998 26.1704 182.998 25.8454C182.998 25.4877 183.323 25.4227 183.908 25.4227C186.184 25.4227 188.524 25.5853 188.882 25.5853C189.304 25.5853 191.158 25.4227 193.661 25.4227C194.246 25.4227 194.571 25.5853 194.571 25.8454C194.571 26.1704 194.246 26.2355 193.823 26.2355C193.737 26.2355 193.65 26.2355 193.563 26.2355C193.455 26.2355 193.357 26.2463 193.271 26.268C193.184 26.2897 193.097 26.3113 193.011 26.333C192.902 26.3547 192.805 26.3763 192.718 26.398C192.328 26.5606 192.23 26.9182 192.23 27.3408C192.274 27.6659 192.328 27.991 192.393 28.3161C192.458 28.6629 192.534 28.9988 192.62 29.3239C192.707 29.649 192.794 29.9741 192.881 30.2992C192.967 30.6243 193.054 30.9494 193.141 31.2745C193.921 34.1353 197.855 47.1067 198.602 49.4474H198.765L207.087 27.0807C207.575 25.9104 207.835 25.5853 208.193 25.5853C208.68 25.5853 208.843 26.2355 209.428 27.6009L218.336 49.1223H218.498C219.246 46.294 222.692 34.9481 224.22 29.9416C224.285 29.7248 224.339 29.519 224.382 29.3239C224.447 29.1072 224.491 28.9013 224.512 28.7062C224.556 28.4895 224.588 28.2727 224.61 28.056C224.61 27.8393 224.61 27.6226 224.61 27.4058C224.61 26.7556 224.22 26.1704 222.529 26.1704C222.107 26.1704 221.782 26.0079 221.782 25.7478C221.782 25.4227 222.107 25.3252 222.789 25.3252C225.033 25.3252 226.886 25.4877 227.211 25.4877C227.568 25.4877 229.421 25.3252 230.754 25.3252C231.242 25.3252 231.502 25.4227 231.502 25.6828C231.502 26.0079 231.242 26.0729 230.917 26.0729C230.787 26.0729 230.657 26.0838 230.527 26.1054C230.397 26.1271 230.267 26.1379 230.137 26.1379C230.028 26.1596 229.909 26.1921 229.779 26.2355C229.649 26.2571 229.53 26.2897 229.421 26.333C228.414 26.7556 227.894 28.4461 226.983 30.8844C224.968 36.216 220.416 49.9026 218.336 56.3395C217.815 57.8675 217.653 58.3551 217.068 58.3551C216.645 58.3551 216.385 57.8675 215.735 56.2745L206.827 34.818H206.73C205.917 36.9962 200.195 52.1783 198.342 56.1119C197.497 57.8675 197.334 58.3876 196.847 58.3876C196.424 58.3876 196.164 57.8675 195.839 56.7946L186.931 29.6815Z" fill="#776E64"/>
<path d="M238.654 52.0483C238.719 55.3969 239.304 56.5022 240.15 56.8273C240.345 56.8923 240.529 56.9465 240.702 56.9898C240.897 57.0332 241.092 57.0657 241.287 57.0874C241.461 57.1307 241.645 57.1524 241.84 57.1524C242.035 57.1741 242.23 57.1849 242.425 57.1849C242.913 57.1849 243.173 57.2499 243.173 57.51C243.173 57.8351 242.75 57.9326 242.165 57.9326C239.402 57.9326 237.646 57.7701 236.899 57.7701C236.476 57.7701 234.46 57.8351 232.282 57.8351C231.697 57.8351 231.339 57.7701 231.339 57.4125C231.339 57.1849 231.599 57.0874 232.022 57.0874C232.174 57.0874 232.336 57.0874 232.51 57.0874C232.661 57.0874 232.824 57.0765 232.997 57.0548C233.149 57.0548 233.312 57.044 233.485 57.0223C233.637 57.0007 233.788 56.9682 233.94 56.9248C235.045 56.5997 235.208 55.3318 235.306 51.6582L235.696 26.2356C235.696 25.3903 235.858 24.8052 236.281 24.8052C236.801 24.8052 237.126 25.4229 237.874 26.1706C238.394 26.7558 244.928 33.7128 251.138 39.9222C254.096 42.8481 259.883 49.0574 260.533 49.7076H260.793L260.403 30.4294C260.306 27.8286 259.98 27.0158 258.973 26.5932C258.778 26.5282 258.583 26.4848 258.387 26.4632C258.214 26.4198 258.03 26.3873 257.835 26.3656C257.64 26.344 257.445 26.3331 257.25 26.3331C257.076 26.3331 256.892 26.3331 256.697 26.3331C256.177 26.3331 256.014 26.1706 256.014 25.9105C256.014 25.5854 256.534 25.5204 257.12 25.5204C259.395 25.5204 261.378 25.6829 262.321 25.6829C262.809 25.6829 264.402 25.5204 266.515 25.5854C267.1 25.5854 267.523 25.6829 267.523 26.008C267.523 26.2681 267.263 26.3982 266.775 26.3982C266.667 26.3982 266.558 26.3982 266.45 26.3982C266.342 26.4198 266.233 26.4307 266.125 26.4307C266.016 26.4523 265.908 26.474 265.8 26.4957C265.713 26.5174 265.615 26.5499 265.507 26.5932C264.337 26.9183 263.979 27.8286 263.914 30.1693L263.394 57.2499C263.394 58.1927 263.231 58.6153 262.809 58.6153C262.321 58.6153 261.801 58.0952 261.378 57.6725C258.713 55.0718 253.153 49.4801 248.732 45.0262C244.018 40.4099 239.304 35.0457 238.492 34.2005H238.296L238.654 52.0483Z" fill="#776E64"/>
<path d="M272.724 42.9131C274.317 39.8246 274.805 39.4995 275.975 39.4995C277.341 39.4995 278.836 39.6621 281.794 39.6621C284.883 39.6621 285.045 39.6621 285.63 38.6543L286.216 39.0444C284.623 42.2304 284.46 42.4904 283.55 42.4904C280.787 42.4904 277.503 42.4254 275 42.4254C274.826 42.3821 274.653 42.3821 274.48 42.4254C274.328 42.4471 274.176 42.5013 274.025 42.588C273.873 42.6747 273.743 42.783 273.634 42.9131C273.526 43.0431 273.45 43.184 273.407 43.3357L272.724 42.9131Z" fill="#776E64"/>
<path d="M301.593 45.5136C301.593 49.6099 301.593 52.8933 301.755 54.6489C301.918 55.9167 302.178 56.827 303.446 56.9896C303.619 57.0329 303.793 57.0546 303.966 57.0546C304.161 57.0763 304.345 57.0979 304.519 57.1196C304.692 57.1413 304.876 57.1521 305.071 57.1521C305.245 57.1521 305.429 57.163 305.624 57.1846C306.209 57.1846 306.372 57.3472 306.372 57.5097C306.372 57.8348 306.047 57.9324 305.461 57.9324C302.763 57.9324 300 57.7373 298.894 57.7373C297.822 57.7373 295.026 57.8348 293.433 57.8348C292.848 57.8348 292.523 57.7373 292.523 57.4122C292.523 57.1846 292.685 57.0871 293.205 57.0871C293.314 57.0871 293.433 57.0871 293.563 57.0871C293.693 57.0654 293.823 57.0546 293.953 57.0546C294.083 57.0329 294.213 57.0112 294.343 56.9896C294.451 56.9679 294.571 56.9462 294.701 56.9246C295.546 56.762 295.806 55.8192 295.969 54.5838C296.034 53.8253 296.088 53.0667 296.131 52.3082C296.153 51.5279 296.174 50.7585 296.196 50C296.218 49.2414 296.229 48.4829 296.229 47.7243C296.229 46.9657 296.229 46.2072 296.229 45.4486V37.9063C296.229 31.3394 296.229 30.169 296.131 28.8361C296.034 27.4057 295.709 26.658 294.278 26.3979C294.148 26.3762 294.007 26.3545 293.855 26.3329C293.725 26.3112 293.595 26.2895 293.465 26.2679C293.314 26.2679 293.173 26.257 293.043 26.2353C292.891 26.2353 292.75 26.2353 292.62 26.2353C292.197 26.2353 291.84 26.1703 291.84 25.9102C291.84 25.5526 292.197 25.4876 292.848 25.4876C295.123 25.4876 297.822 25.6502 299.057 25.6502H310.403C310.555 25.6718 310.706 25.6827 310.858 25.6827C310.988 25.6827 311.129 25.6718 311.281 25.6502C311.432 25.6285 311.584 25.6068 311.736 25.5851C311.888 25.5635 312.028 25.531 312.158 25.4876C312.223 25.4659 312.278 25.4443 312.321 25.4226C312.386 25.4009 312.44 25.3793 312.484 25.3576C312.549 25.3359 312.603 25.3142 312.646 25.2926C312.711 25.2709 312.776 25.2492 312.841 25.2275C312.884 25.2492 312.928 25.2709 312.971 25.2926C313.015 25.3142 313.058 25.3467 313.101 25.3901C313.123 25.4118 313.145 25.4551 313.166 25.5201C313.166 25.5635 313.166 25.6068 313.166 25.6502C313.166 25.9753 312.906 26.4954 312.841 27.5682C312.744 27.9909 312.679 30.5266 312.581 31.0143C312.484 31.3394 312.419 31.5995 312.158 31.5995C311.833 31.5995 311.768 31.3394 311.768 30.9493C311.768 30.7975 311.768 30.6567 311.768 30.5266C311.747 30.3966 311.725 30.2666 311.703 30.1365C311.682 30.0065 311.66 29.8764 311.638 29.7464C311.595 29.5947 311.552 29.4646 311.508 29.3563C311.357 29.1179 311.172 28.912 310.956 28.7386C310.739 28.5652 310.5 28.4243 310.24 28.316C310.002 28.2076 309.742 28.1317 309.46 28.0884C309.2 28.0451 308.929 28.0451 308.647 28.0884L302.015 27.9258C301.755 27.9258 301.593 28.0884 301.593 28.511V39.2392C301.593 39.4668 301.69 39.6294 301.95 39.6294H307.412C307.564 39.651 307.726 39.651 307.9 39.6294C308.051 39.6294 308.203 39.6294 308.355 39.6294C308.528 39.6294 308.691 39.6185 308.842 39.5969C309.016 39.5969 309.178 39.586 309.33 39.5643C309.503 39.5643 309.677 39.5427 309.85 39.4993C310.024 39.4776 310.186 39.4343 310.338 39.3693C310.49 39.3043 310.641 39.2284 310.793 39.1417C310.923 39.0333 311.053 38.925 311.183 38.8166C311.443 38.5565 311.508 38.394 311.768 38.394C311.931 38.394 312.028 38.5565 312.028 38.8166C312.028 39.0442 311.768 40.1495 311.671 41.4824C311.606 42.3277 311.508 44.3433 311.508 44.5708C311.508 44.9935 311.508 45.4161 311.086 45.4161C310.858 45.4161 310.761 45.091 310.761 44.8309C310.761 44.7226 310.75 44.6034 310.728 44.4733C310.728 44.3649 310.717 44.2566 310.696 44.1482C310.674 44.0399 310.641 43.9315 310.598 43.8231C310.576 43.7148 310.544 43.6064 310.5 43.498C310.414 43.2813 310.295 43.0754 310.143 42.8803C309.991 42.7069 309.818 42.5552 309.623 42.4252C309.428 42.2952 309.222 42.1868 309.005 42.1001C308.788 42.0351 308.561 41.9917 308.322 41.9701C307.249 41.8075 302.698 41.8075 301.95 41.8075C301.69 41.8075 301.625 41.905 301.625 42.2301L301.593 45.5136Z" fill="#776E64"/>
<path fill-rule="evenodd" clip-rule="evenodd" d="M317.523 41.7426C317.523 34.3629 322.399 24.9026 335.338 24.9676C346.001 24.9676 352.699 31.177 352.699 41.0599C352.796 43.4332 352.373 45.7739 351.528 47.952C350.65 50.1302 349.35 52.1133 347.659 53.7713C346.001 55.4293 344.018 56.7296 341.808 57.5749C339.597 58.4202 337.256 58.7778 334.916 58.6802C322.497 58.5827 317.523 49.3824 317.523 41.7426ZM346.587 42.5879C346.587 32.9325 341.028 26.9832 333.973 26.9832C329.031 26.9832 323.407 29.7466 323.407 40.4098C323.407 49.3824 328.349 56.4045 336.574 56.4045C339.597 56.4045 346.554 55.0066 346.587 42.5879Z" fill="#776E64"/>
<path fill-rule="evenodd" clip-rule="evenodd" d="M360.923 38.0687C360.923 31.5342 360.923 30.3314 360.826 28.9985C360.761 27.5681 360.436 26.8203 359.005 26.5603C358.853 26.5386 358.713 26.5169 358.582 26.4952C358.431 26.4736 358.29 26.4627 358.16 26.4627C358.008 26.4411 357.867 26.4302 357.737 26.4302C357.586 26.4085 357.445 26.3977 357.315 26.3977C356.794 26.3977 356.567 26.3327 356.567 26.0076C356.567 25.65 356.892 25.585 357.477 25.585C359.753 25.585 362.451 25.7475 363.361 25.7475C364.792 25.7475 368.043 25.585 369.408 25.65C370.08 25.6066 370.763 25.6175 371.456 25.6825C372.15 25.7258 372.822 25.8234 373.472 25.9751C374.144 26.1485 374.805 26.3544 375.455 26.5928C376.084 26.8528 376.69 27.1563 377.276 27.503C377.731 27.8498 378.143 28.2399 378.511 28.6734C378.858 29.1285 379.161 29.6053 379.421 30.1038C379.681 30.624 379.876 31.155 380.006 31.6968C380.136 32.2386 380.212 32.8021 380.234 33.3873C380.234 36.5733 378.869 39.4991 374.512 43.0102C378.381 47.7891 381.307 51.6578 383.843 54.3236C384.146 54.692 384.482 55.028 384.85 55.3314C385.197 55.6565 385.576 55.9382 385.988 56.1766C386.4 56.4367 386.823 56.6535 387.256 56.8268C387.711 57.0219 388.166 57.1736 388.622 57.282C388.708 57.3036 388.806 57.3145 388.914 57.3145C389.001 57.3362 389.098 57.3578 389.207 57.3795C389.293 57.3795 389.391 57.3903 389.499 57.412C389.608 57.412 389.705 57.4228 389.792 57.4445C390.117 57.4445 390.312 57.6071 390.312 57.7696C390.312 58.0947 389.954 58.1922 389.467 58.1922H385.338C384.948 58.2139 384.558 58.2139 384.168 58.1922C383.778 58.1922 383.387 58.1489 382.997 58.0622C382.607 57.9972 382.217 57.8997 381.827 57.7696C381.459 57.6613 381.09 57.5204 380.722 57.347C380.136 56.9352 379.573 56.4909 379.031 56.0141C378.489 55.5373 377.969 55.028 377.471 54.4861C376.972 53.966 376.506 53.4133 376.073 52.8281C375.639 52.2646 375.238 51.6795 374.87 51.0726C373.179 48.6994 371.164 45.7735 370.579 45.0908C370.535 45.0475 370.481 45.0041 370.416 44.9608C370.351 44.9174 370.286 44.8849 370.221 44.8632C370.156 44.8416 370.091 44.8199 370.026 44.7982C369.961 44.7766 369.896 44.7657 369.831 44.7657L366.125 44.7007C365.865 44.7007 365.8 44.7657 365.8 45.0258V45.611C365.8 49.6422 365.8 52.9907 365.962 54.8437C366.125 56.0791 366.352 57.0219 367.62 57.1844C367.794 57.2061 367.967 57.2278 368.14 57.2495C368.335 57.2495 368.52 57.2603 368.693 57.282C368.866 57.3036 369.04 57.3145 369.213 57.3145C369.387 57.3362 369.56 57.347 369.733 57.347C370.058 57.347 370.221 57.5095 370.221 57.6721C370.221 58.0297 369.896 58.0947 369.408 58.0947C366.872 58.0947 363.687 57.9322 363.101 57.9322C362.256 57.9322 359.59 57.9972 357.9 57.9972C357.315 57.9972 357.055 57.8346 357.055 57.6071C357.055 57.347 357.217 57.2495 357.737 57.2495C357.867 57.2495 357.986 57.2495 358.095 57.2495C358.225 57.2495 358.355 57.2386 358.485 57.217C358.615 57.217 358.745 57.2061 358.875 57.1844C358.983 57.1628 359.103 57.1303 359.233 57.0869C360.078 56.9244 360.338 56.0141 360.501 54.7462C360.566 53.9876 360.62 53.2291 360.663 52.4705C360.706 51.712 360.728 50.9534 360.728 50.1948C360.75 49.4146 360.761 48.6452 360.761 47.8867C360.782 47.1281 360.782 46.3695 360.761 45.611L360.923 38.0687ZM366.027 41.4172C366.027 41.9374 366.125 42.0999 366.45 42.1649C366.71 42.2516 366.981 42.3166 367.263 42.36C367.523 42.425 367.794 42.4792 368.075 42.5225C368.335 42.5442 368.606 42.5659 368.888 42.5876C369.17 42.5876 369.452 42.5876 369.733 42.5876C369.993 42.6309 370.253 42.6417 370.514 42.6201C370.774 42.6201 371.034 42.5876 371.294 42.5225C371.554 42.4575 371.803 42.36 372.042 42.23C372.302 42.1216 372.529 41.9915 372.724 41.8398C373.179 41.428 373.58 40.9729 373.927 40.4744C374.274 39.9976 374.556 39.4775 374.772 38.914C374.989 38.3505 375.141 37.7653 375.227 37.1584C375.314 36.5733 375.325 35.9772 375.26 35.3704C375.26 29.2586 371.229 27.503 368.726 27.503C368.53 27.503 368.335 27.503 368.14 27.503C367.945 27.503 367.761 27.5139 367.588 27.5355C367.393 27.5355 367.198 27.5464 367.003 27.5681C366.807 27.5897 366.623 27.6222 366.45 27.6656C366.092 27.7631 366.027 27.9257 366.027 28.2508V41.4172Z" fill="#776E64"/>
<path d="M394.733 25.8126C394.896 25.0648 395.156 24.7397 395.514 24.7397C395.839 24.7397 396.099 24.9673 396.684 26.0726L408.42 50.2924L420.091 25.8126C420.416 25.1624 420.676 24.8048 421.001 24.8048C421.424 24.8048 421.684 25.2274 421.781 26.1702L425.618 52.6331C426.04 55.3314 426.463 56.5993 427.731 56.9894C427.947 57.0761 428.164 57.1411 428.381 57.1845C428.598 57.2495 428.814 57.2928 429.031 57.3145C429.269 57.3579 429.497 57.3904 429.714 57.4121C429.952 57.4121 430.18 57.4121 430.397 57.4121C430.819 57.4121 431.079 57.5096 431.079 57.7371C431.079 58.0948 430.559 58.2573 429.974 58.2573C428.901 58.2573 423.017 58.0948 421.261 57.9972C420.253 57.9322 419.993 57.7371 419.993 57.5096C419.993 57.2495 420.156 57.152 420.514 56.9894C420.741 56.9244 420.904 56.3392 420.741 55.1689L418.14 36.2807H417.978L408.582 55.559C407.575 57.5746 407.412 57.9972 406.989 57.9972C406.567 57.9972 406.144 57.152 405.494 55.8191C404.486 53.8035 401.04 47.269 400.52 46.0987C400.097 45.1884 397.594 39.8243 396.066 36.5408H395.904L393.628 53.6409C393.606 53.8143 393.585 53.9877 393.563 54.1611C393.563 54.3128 393.552 54.4753 393.53 54.6487C393.509 54.8221 393.498 54.9955 393.498 55.1689C393.476 55.3206 393.465 55.4831 393.465 55.6565C393.465 56.5018 394.051 56.8269 394.733 56.9894C394.885 57.0328 395.037 57.0653 395.188 57.087C395.34 57.1303 395.492 57.1628 395.644 57.1845C395.795 57.2062 395.947 57.217 396.099 57.217C396.272 57.2387 396.435 57.2495 396.586 57.2495C396.911 57.2495 397.237 57.347 397.237 57.5746C397.237 57.9972 396.846 58.0948 396.229 58.0948C394.408 58.0948 392.458 57.9322 391.71 57.9322C390.865 57.9322 388.849 58.0948 387.419 57.9972C386.996 57.9972 386.671 57.9322 386.671 57.5096C386.671 57.2495 386.898 57.1845 387.321 57.1845C387.429 57.1845 387.538 57.1736 387.646 57.152C387.755 57.152 387.863 57.152 387.971 57.152C388.08 57.1303 388.188 57.1086 388.296 57.087C388.383 57.0653 388.481 57.0328 388.589 56.9894C389.759 56.7619 390.117 55.0713 390.344 53.6409L394.733 25.8126Z" fill="#776E64"/>
<path fill-rule="evenodd" clip-rule="evenodd" d="M440.085 46.8463C439.825 46.8463 439.727 46.9439 439.662 47.2039L437.321 53.3158C437.235 53.5325 437.148 53.7384 437.061 53.9335C436.996 54.1502 436.931 54.3669 436.866 54.5836C436.823 54.8004 436.779 55.0171 436.736 55.2338C436.693 55.4722 436.66 55.6998 436.639 55.9166C436.639 56.6643 437.061 57.2495 438.394 57.2495H439.077C439.564 57.2495 439.727 57.347 439.727 57.6071C439.727 57.9322 439.499 57.9972 438.979 57.9972C437.646 57.9972 435.793 57.8346 434.46 57.8346C433.94 57.8346 431.6 57.9322 429.421 57.9322C428.836 57.9322 428.576 57.8346 428.576 57.5095C428.576 57.2494 428.739 57.1844 429.064 57.1844C429.486 57.1844 430.072 57.0869 430.429 57.0869C432.445 56.8268 433.193 55.4289 434.103 53.2182L444.929 26.3327C445.449 25.0648 445.676 24.5771 446.099 24.5771C446.522 24.5771 446.782 24.9673 447.204 25.91C448.212 28.2507 455.104 45.7735 457.867 52.308C459.46 56.1766 460.728 56.7618 461.639 57.0219C461.79 57.0436 461.931 57.0652 462.061 57.0869C462.213 57.1086 462.365 57.1302 462.516 57.1519C462.668 57.1519 462.82 57.1628 462.971 57.1844C463.102 57.1844 463.242 57.1844 463.394 57.1844C463.752 57.1844 463.979 57.2494 463.979 57.5095C463.979 57.8346 463.589 57.9322 461.964 57.9322C460.468 57.9322 457.282 57.9322 453.836 57.8346C453.089 57.7371 452.568 57.7371 452.568 57.5095C452.568 57.2494 452.731 57.1519 453.154 57.0869C453.262 57.0436 453.349 56.9894 453.414 56.9244C453.5 56.8593 453.554 56.7726 453.576 56.6643C453.619 56.5776 453.641 56.4801 453.641 56.3717C453.641 56.2633 453.619 56.1658 453.576 56.0791L450.13 47.2039C450.13 47.1606 450.108 47.1172 450.065 47.0739C450.043 47.0306 450.022 46.9872 450 46.9439C449.957 46.9222 449.913 46.9005 449.87 46.8788C449.827 46.8572 449.773 46.8463 449.708 46.8463H440.085ZM448.895 44.7657C449.155 44.7657 449.155 44.6032 449.155 44.5056L445.286 33.94C445.221 33.7774 445.221 33.5498 445.059 33.5498C444.896 33.5498 444.799 33.7774 444.799 33.94L440.865 44.5056C440.865 44.6682 440.865 44.8632 441.027 44.8632L448.895 44.7657Z" fill="#776E64"/>
<path d="M471.034 52.308C471.131 55.6565 471.716 56.7618 472.562 57.0869C472.735 57.1519 472.919 57.2061 473.114 57.2495C473.288 57.2928 473.472 57.3253 473.667 57.347C473.862 57.3687 474.057 57.3903 474.252 57.412C474.447 57.412 474.631 57.412 474.805 57.412C475.325 57.412 475.585 57.5095 475.585 57.7696C475.585 58.0947 475.162 58.1597 474.577 58.1597C471.814 58.1597 470.026 57.9972 469.278 57.9972C468.855 57.9972 466.84 58.1597 464.662 58.0947C464.077 58.0947 463.751 57.9972 463.751 57.6721C463.751 57.412 463.979 57.347 464.402 57.347C464.575 57.347 464.738 57.3362 464.889 57.3145C465.063 57.3145 465.225 57.3037 465.377 57.282C465.55 57.2603 465.713 57.2278 465.865 57.1845C466.016 57.1628 466.179 57.1303 466.352 57.0869C467.425 56.7618 467.588 55.4939 467.685 51.8203L468.108 26.3977C468.108 25.5525 468.27 24.9673 468.693 24.9673C469.181 24.9673 469.538 25.585 470.286 26.3327C470.774 26.9179 477.341 33.875 483.55 40.0843C486.476 43.0102 492.263 49.2196 493.043 49.8698H493.205L492.783 30.5915C492.685 27.9907 492.36 27.1779 491.352 26.7553C491.179 26.6903 490.995 26.647 490.8 26.6253C490.605 26.5819 490.42 26.5494 490.247 26.5278C490.052 26.5061 489.857 26.4952 489.662 26.4952C489.467 26.4952 489.272 26.4952 489.077 26.4952C488.589 26.4952 488.426 26.3327 488.426 26.0726C488.426 25.7475 488.914 25.6825 489.499 25.6825C491.775 25.6825 493.79 25.845 494.701 25.845C495.221 25.845 496.814 25.6825 498.895 25.7475C499.512 25.7475 499.902 25.845 499.902 26.1701C499.902 26.4302 499.675 26.5603 499.155 26.5603C499.046 26.5603 498.938 26.5603 498.829 26.5603C498.721 26.5819 498.624 26.5928 498.537 26.5928C498.429 26.6144 498.32 26.6361 498.212 26.6578C498.103 26.6795 497.995 26.712 497.887 26.7553C496.716 27.0804 496.391 27.9907 496.294 30.4289L495.806 57.5095C495.806 58.4198 495.644 58.8425 495.221 58.8425C494.701 58.8425 494.213 58.3548 493.79 57.9322C491.092 55.3314 485.566 49.7072 481.112 45.2859C476.43 40.6695 471.619 35.3054 470.871 34.4601H470.709L471.034 52.308Z" fill="#776E64"/>
</g>
<defs>
<clipPath id="clip0_2_2063">
<rect width="500" height="77.3732" fill="white"/>
</clipPath>
</defs>
</svg>
