<svg width="500" height="131" viewBox="0 0 500 131" fill="none" xmlns="http://www.w3.org/2000/svg">
<g clip-path="url(#clip0_2_2509)">
<path fill-rule="evenodd" clip-rule="evenodd" d="M146.778 1.50975e-05C153.464 1.50975e-05 159.614 2.36113 164.439 6.31113H129.119C134.097 2.22416 140.337 -0.00669597 146.778 1.50975e-05ZM170.25 12.7333C171.506 14.6361 172.536 16.7111 173.311 18.9H120.247C121.025 16.7111 122.053 14.6361 123.308 12.7333H170.25ZM174.778 25.3528C175.006 27.4457 175.006 29.5572 174.778 31.65H118.778C118.549 29.5572 118.549 27.4457 118.778 25.3528H174.778ZM173.311 38.0889C172.558 40.21 171.56 42.2358 170.336 44.125H123.222C121.998 42.236 120.998 40.2102 120.244 38.0889H173.311ZM164.608 50.5639C159.601 54.7299 153.292 57.0084 146.778 57.0028C140.008 57.0028 133.803 54.5861 128.95 50.5639H164.608ZM0 114.55V37.5556H48.3944C90.4 37.5556 88.7778 66.1278 62.9361 72.9667C92.7278 74.6278 97.9333 114.547 48.3944 114.547L0 114.55ZM17.8583 70.0084H36.7583C76.1972 70.0084 74.4611 45.4556 48.3972 45.4556H17.8556V70.0111L17.8583 70.0084ZM17.8583 106.508C24.4306 106.508 33.9361 106.453 40.5111 106.453C80.075 106.508 75.6028 76.7195 48.4083 76.7195H17.8611L17.8583 106.508Z" fill="#002D6E"/>
<path fill-rule="evenodd" clip-rule="evenodd" d="M99.4419 85.6472V37.5583H115.309V85.6472C116.086 96.6778 121.486 105.192 136.003 108.728C141.814 109.228 147.639 109.297 153.447 108.728C166.525 107.525 176.597 98.0944 178.375 85.3889V37.5722H189.278V84.0583C189.278 101.458 173.45 113.333 160.32 114.578C147.186 115.822 141.067 115.794 127.525 114.578C113.997 113.333 99.4419 101.1 99.4419 85.6472ZM206.217 114.55V37.5556H215.611L284.77 93.3556V37.5583H295.42V114.55H286.759L216.797 58.3472V114.55H206.217ZM359.556 44.0972C379.628 41.5222 393.675 47.3306 405.114 56.7444L409.347 43.9972C391.617 36.9861 372.545 36.7417 358.497 37.5583C305.15 39.4333 290.072 102.489 344.675 114.55C366.761 118.111 389.656 117.011 408.684 111.203V77.5361C399.825 77.3056 390.967 77.0917 382.109 76.8639V85.175C385.761 84.9028 389.431 84.6333 393.084 84.375V106.508C377.581 112.047 362.278 111.503 347.128 106.481C314.645 90.5139 323.475 49.1333 359.556 44.0972ZM500 106.181V114.55H423.761V38.7611H500V47.9611C479.281 46.4 459.053 46.1861 439.036 46.6167V70.5806C458.967 70.8667 478.164 71.525 496.559 70.0944V78.7667L439.036 77.9055V107.783C462.82 108.425 483.272 107.939 500 106.181Z" fill="#002D6E"/>
</g>
<defs>
<clipPath id="clip0_2_2509">
<rect width="500" height="130.556" fill="white"/>
</clipPath>
</defs>
</svg>
