<svg width="500" height="136" viewBox="0 0 500 136" fill="none" xmlns="http://www.w3.org/2000/svg">
<g clip-path="url(#clip0_2_2515)">
<path fill-rule="evenodd" clip-rule="evenodd" d="M499.648 102.853C499.712 103.13 499.744 103.419 499.744 103.718C499.744 103.996 499.712 104.274 499.648 104.551C499.605 104.829 499.541 105.096 499.455 105.353C499.412 105.481 499.359 105.609 499.295 105.737C499.231 105.844 499.167 105.962 499.103 106.09C499.039 106.197 498.964 106.303 498.878 106.41C498.793 106.517 498.707 106.613 498.622 106.699C498.536 106.806 498.44 106.902 498.333 106.987C498.227 107.073 498.12 107.147 498.013 107.212C497.906 107.297 497.799 107.372 497.692 107.436C497.564 107.5 497.447 107.553 497.34 107.596C497.062 107.703 496.784 107.788 496.506 107.853C496.229 107.917 495.94 107.949 495.641 107.949C495.363 107.949 495.075 107.917 494.776 107.853C494.498 107.788 494.22 107.703 493.942 107.596C493.836 107.553 493.718 107.5 493.59 107.436C493.483 107.372 493.376 107.297 493.269 107.212C493.162 107.147 493.056 107.073 492.949 106.987C492.842 106.902 492.746 106.806 492.66 106.699C492.575 106.613 492.489 106.517 492.404 106.41C492.318 106.303 492.244 106.197 492.18 106.09C492.115 105.962 492.051 105.844 491.987 105.737C491.945 105.609 491.902 105.481 491.859 105.353C491.752 105.096 491.677 104.829 491.635 104.551C491.592 104.274 491.571 103.996 491.571 103.718C491.571 103.419 491.592 103.13 491.635 102.853C491.677 102.575 491.752 102.308 491.859 102.051C491.902 101.923 491.945 101.795 491.987 101.667C492.051 101.56 492.115 101.453 492.18 101.346C492.244 101.218 492.318 101.1 492.404 100.994C492.489 100.887 492.575 100.791 492.66 100.705C492.746 100.598 492.842 100.502 492.949 100.417C493.056 100.331 493.162 100.256 493.269 100.192C493.376 100.107 493.483 100.032 493.59 99.9679C493.718 99.9038 493.836 99.8397 493.942 99.7756C494.22 99.6688 494.498 99.594 494.776 99.5513C495.075 99.4872 495.363 99.4551 495.641 99.4551C495.94 99.4551 496.229 99.4872 496.506 99.5513C496.784 99.594 497.062 99.6688 497.34 99.7756C497.447 99.8397 497.564 99.9038 497.692 99.9679C497.799 100.032 497.906 100.107 498.013 100.192C498.12 100.256 498.227 100.331 498.333 100.417C498.44 100.502 498.536 100.598 498.622 100.705C498.707 100.791 498.793 100.887 498.878 100.994C498.964 101.1 499.039 101.218 499.103 101.346C499.167 101.453 499.231 101.56 499.295 101.667C499.359 101.795 499.412 101.923 499.455 102.051C499.541 102.308 499.605 102.575 499.648 102.853ZM498.974 104.776C498.996 104.669 499.017 104.551 499.039 104.423C499.06 104.295 499.071 104.177 499.071 104.071C499.092 103.942 499.103 103.825 499.103 103.718C499.103 103.59 499.092 103.462 499.071 103.333C499.071 103.226 499.06 103.109 499.039 102.981C499.017 102.853 498.996 102.735 498.974 102.628C498.932 102.5 498.889 102.382 498.846 102.276C498.803 102.169 498.761 102.062 498.718 101.955C498.675 101.848 498.622 101.752 498.558 101.667C498.494 101.56 498.43 101.464 498.365 101.378C498.301 101.293 498.237 101.207 498.173 101.122C498.088 101.036 498.002 100.951 497.917 100.865C497.831 100.801 497.746 100.737 497.66 100.673C497.575 100.609 497.479 100.545 497.372 100.481C497.286 100.417 497.19 100.363 497.083 100.321C496.955 100.278 496.838 100.235 496.731 100.192C496.624 100.171 496.506 100.15 496.378 100.128C496.25 100.085 496.133 100.064 496.026 100.064C495.897 100.043 495.769 100.032 495.641 100.032C495.406 100.032 495.171 100.053 494.936 100.096C494.722 100.139 494.498 100.214 494.263 100.321C494.049 100.406 493.846 100.513 493.654 100.641C493.462 100.791 493.291 100.951 493.141 101.122C493.056 101.207 492.981 101.293 492.917 101.378C492.853 101.464 492.789 101.56 492.724 101.667C492.66 101.752 492.607 101.848 492.564 101.955C492.521 102.062 492.479 102.169 492.436 102.276C492.393 102.382 492.361 102.5 492.34 102.628C492.297 102.735 492.265 102.853 492.244 102.981C492.222 103.109 492.212 103.226 492.212 103.333C492.19 103.462 492.18 103.59 492.18 103.718C492.18 103.825 492.19 103.942 492.212 104.071C492.212 104.177 492.222 104.295 492.244 104.423C492.265 104.551 492.297 104.669 492.34 104.776C492.361 104.882 492.393 105 492.436 105.128C492.479 105.235 492.521 105.331 492.564 105.417C492.607 105.523 492.66 105.63 492.724 105.737C492.789 105.823 492.853 105.919 492.917 106.026C492.981 106.111 493.056 106.197 493.141 106.282C493.291 106.453 493.462 106.603 493.654 106.731C493.868 106.859 494.081 106.966 494.295 107.051C494.509 107.158 494.733 107.233 494.968 107.276C495.182 107.318 495.406 107.34 495.641 107.34C495.769 107.34 495.897 107.34 496.026 107.34C496.133 107.318 496.25 107.297 496.378 107.276C496.506 107.254 496.624 107.222 496.731 107.179C496.859 107.137 496.977 107.094 497.083 107.051C497.19 107.009 497.286 106.955 497.372 106.891C497.479 106.848 497.575 106.795 497.66 106.731C497.746 106.667 497.831 106.592 497.917 106.506C498.002 106.442 498.088 106.368 498.173 106.282C498.237 106.197 498.301 106.111 498.365 106.026C498.43 105.919 498.494 105.823 498.558 105.737C498.622 105.63 498.675 105.523 498.718 105.417C498.761 105.331 498.803 105.235 498.846 105.128C498.889 105 498.932 104.882 498.974 104.776ZM497.18 103.558C497.115 103.6 497.051 103.643 496.987 103.686C496.944 103.729 496.891 103.771 496.827 103.814C496.742 103.857 496.667 103.889 496.603 103.91L497.885 106.09H496.923L495.769 104.071H494.84V106.09H493.974V101.09H495.962C496.068 101.09 496.186 101.1 496.314 101.122C496.421 101.122 496.517 101.143 496.603 101.186C496.709 101.229 496.806 101.271 496.891 101.314C496.998 101.378 497.094 101.442 497.18 101.506C497.244 101.571 497.297 101.645 497.34 101.731C497.404 101.816 497.447 101.902 497.468 101.987C497.511 102.073 497.543 102.169 497.564 102.276C497.586 102.361 497.586 102.447 497.564 102.532C497.564 102.618 497.564 102.692 497.564 102.756C497.543 102.842 497.521 102.917 497.5 102.981C497.479 103.045 497.457 103.109 497.436 103.173C497.393 103.259 497.35 103.323 497.308 103.365C497.265 103.429 497.222 103.494 497.18 103.558ZM495.93 103.365C495.994 103.365 496.047 103.355 496.09 103.333C496.154 103.312 496.207 103.291 496.25 103.269C496.293 103.248 496.336 103.226 496.378 103.205C496.421 103.162 496.464 103.12 496.506 103.077C496.549 103.034 496.581 102.981 496.603 102.917C496.624 102.874 496.645 102.821 496.667 102.756C496.667 102.692 496.667 102.639 496.667 102.596C496.667 102.532 496.667 102.468 496.667 102.404C496.645 102.361 496.624 102.308 496.603 102.244C496.581 102.201 496.549 102.158 496.506 102.115C496.485 102.073 496.453 102.03 496.41 101.987C496.368 101.966 496.314 101.944 496.25 101.923C496.207 101.902 496.165 101.88 496.122 101.859C496.079 101.838 496.026 101.827 495.962 101.827C495.919 101.827 495.876 101.827 495.833 101.827H494.84V103.397H495.769C495.833 103.397 495.887 103.387 495.93 103.365ZM86.827 10.641C86.827 7.08333 85.2565 4.67949 81.0578 4.67949C67.4039 4.67949 50.0322 29.4551 43.7501 39.7436C35.2886 53.6859 25.577 74.8718 25.577 91.7628C25.577 98.3333 28.3975 103.237 35.4168 103.237C50.2886 103.237 61.8911 83.8782 61.8911 70.9295C61.9339 70.2244 61.9232 69.5085 61.8591 68.782C61.795 68.0769 61.6774 67.3825 61.5065 66.6987C61.3356 66.015 61.1112 65.3419 60.8334 64.6795C60.5557 64.0171 60.2245 63.3867 59.8398 62.7885C60.2672 62.2329 60.748 61.7308 61.2821 61.282C61.8163 60.8547 62.4039 60.4808 63.045 60.1603C63.6646 59.8611 64.3163 59.6368 65.0001 59.4872C65.6839 59.3376 66.3676 59.2628 67.0514 59.2628C72.0834 59.2628 74.6796 62.5641 74.6796 68.2051C74.6796 86.3782 55.4168 110.16 32.468 110.16C15.0642 110.16 5.70523 101.346 5.70523 84.2949C5.70523 49.7756 41.9873 0 81.7309 0C91.0257 0 100.545 2.82051 100.545 13.0449C100.545 26.5385 86.7629 36.0577 75.1283 39.8718C73.8249 40.2778 72.5108 40.641 71.186 40.9615C69.8612 41.2607 68.5364 41.5171 67.2116 41.7308C65.8655 41.9444 64.5193 42.094 63.1732 42.1795C61.8057 42.2863 60.4488 42.3397 59.1027 42.3397C58.3334 42.3397 57.5642 42.3291 56.795 42.3077C56.0257 42.265 55.2565 42.2115 54.4873 42.1474C53.718 42.062 52.9488 41.9658 52.1796 41.859C51.4104 41.7521 50.6518 41.6346 49.9039 41.5064L50.2245 40.1603C64.5514 39.6795 86.827 25.5128 86.827 10.641ZM475.673 30.7692L475.032 29.5833C479.006 26.2821 483.045 20.0321 483.045 14.5833C483.077 13.7179 482.981 12.8526 482.756 12.0513C482.532 11.2179 482.148 10.4487 481.667 9.74359C481.154 9.03846 480.545 8.42949 479.872 7.91667C479.167 7.40385 478.397 7.05128 477.564 6.79487C478.013 6.05769 478.59 5.38461 479.199 4.77564C479.84 4.16667 480.545 3.65385 481.314 3.23718C482.083 2.85256 482.885 2.53205 483.75 2.33974C484.583 2.14744 485.449 2.05128 486.314 2.08333C487.532 1.98718 488.75 2.14744 489.904 2.5641C491.026 3.01282 492.051 3.6859 492.917 4.55128C493.75 5.38461 494.423 6.44231 494.808 7.59615C495.224 8.71795 495.385 9.9359 495.256 11.1538C495.256 21.0577 483.462 27.9167 475.673 30.7692ZM0.320613 11.1859C0.25651 9.9359 0.448818 8.6859 0.897536 7.53205C1.34625 6.3782 2.05138 5.35256 2.94882 4.48718C3.84625 3.62179 4.90395 2.94872 6.05779 2.5641C7.24369 2.14744 8.49369 1.98718 9.71164 2.08333C10.577 2.08333 11.4104 2.14744 12.2437 2.33974C13.045 2.5641 13.8463 2.85256 14.5834 3.26923C15.3206 3.6859 15.9937 4.19872 16.6027 4.80769C17.2116 5.38462 17.7245 6.05769 18.1411 6.79487C17.3078 7.05128 16.5386 7.4359 15.8334 7.94872C15.1604 8.42949 14.5514 9.07051 14.0706 9.74359C13.5578 10.4487 13.2052 11.25 12.9488 12.0513C12.7245 12.8846 12.6283 13.75 12.6604 14.5833C12.6604 20.0321 16.7309 26.2821 20.6732 29.6154L20.0321 30.8013C12.2757 27.9487 0.320613 21.0577 0.320613 11.1859ZM446.506 92.6923L447.756 93.4936C444.071 101.346 438.558 109.647 429.391 109.647C422.019 109.647 418.013 105.096 418.013 97.6603C418.013 91.282 421.923 82.6603 424.423 76.859L456.795 3.04487H471.571L436.41 85.0961C436.004 85.8867 435.652 86.6987 435.353 87.532C435.032 88.344 434.744 89.1773 434.487 90.032C434.252 90.8867 434.039 91.7414 433.846 92.5961C433.675 93.4722 433.547 94.3483 433.462 95.2244C433.398 95.6731 433.462 96.1538 433.622 96.6026C433.75 97.0192 434.006 97.4359 434.327 97.7564C434.68 98.0769 435.064 98.3333 435.513 98.4936C435.93 98.6538 436.41 98.7179 436.891 98.6859C440.897 98.6859 443.654 95.9936 446.506 92.6923ZM413.622 92.6923L414.904 93.5256C411.186 101.346 405.641 109.647 396.442 109.647C389.103 109.647 385.096 105.096 385.096 97.6603C385.096 91.282 388.974 82.6603 391.506 76.859L423.878 3.04487H438.622L403.462 85.0961C403.077 85.8867 402.724 86.6987 402.404 87.532C402.083 88.344 401.806 89.1773 401.571 90.032C401.314 90.8867 401.101 91.7414 400.93 92.5961C400.759 93.4722 400.63 94.3483 400.545 95.2244C400.481 95.6731 400.545 96.1538 400.673 96.6026C400.833 97.0192 401.09 97.4359 401.41 97.7564C401.763 98.0769 402.147 98.3333 402.596 98.4936C403.013 98.6538 403.494 98.7179 403.942 98.6859C407.981 98.6859 411.026 95.8333 413.622 92.6923ZM204.808 109.647C198.269 109.647 194.615 105.737 194.615 98.9423C194.615 88.109 209.648 65.7372 209.648 58.2692C209.712 57.7885 209.648 57.3077 209.487 56.8269C209.327 56.3782 209.071 55.9615 208.718 55.609C208.365 55.2564 207.949 55 207.5 54.8077C207.051 54.6474 206.571 54.5833 206.058 54.6154C199.84 54.6154 195.256 64.4551 193.141 69.6154L177.436 107.885L162.115 107.917L179.84 64.7115C180.075 64.1987 180.289 63.6752 180.481 63.141C180.673 62.6068 180.844 62.0726 180.994 61.5385C181.143 61.0043 181.271 60.4594 181.378 59.9038C181.485 59.3483 181.571 58.7927 181.635 58.2372C181.667 57.7564 181.603 57.2436 181.442 56.7949C181.282 56.3461 181.026 55.9295 180.673 55.5769C180.353 55.2244 179.936 54.9679 179.455 54.8077C179.006 54.6474 178.526 54.5833 178.045 54.6154C171.923 54.6154 167.051 64.4231 164.968 69.4551L149.231 107.917H133.878L158.622 47.532H172.885L169.744 55.3846C174.071 50.609 179.487 46.4423 186.442 46.4423C187.756 46.3141 189.071 46.4744 190.321 46.891C191.539 47.3077 192.692 47.9808 193.654 48.8782C194.648 49.7436 195.417 50.8333 195.962 52.0192C196.506 53.2051 196.763 54.5192 196.795 55.8333C201.571 50.6731 207.019 46.4423 214.199 46.4423C220.385 46.4423 225.032 50.0962 225.032 56.282C225.032 67.8205 210.449 87.9167 210.449 95.7051C210.385 96.0897 210.417 96.4744 210.545 96.859C210.641 97.2436 210.865 97.5641 211.122 97.8526C211.378 98.141 211.731 98.3654 212.083 98.4936C212.468 98.6218 212.853 98.6859 213.237 98.6538C216.603 98.6538 219.423 95.2564 221.571 92.6923L222.853 93.4936C219.135 101.891 214.039 109.647 204.808 109.647ZM491.346 47.2115C490.94 47.9808 490.598 48.7607 490.321 49.5513C490.021 50.3632 489.776 51.1752 489.583 51.9872C489.391 52.8205 489.252 53.6645 489.167 54.5192C489.081 55.3739 489.049 56.2179 489.071 57.0513C489.071 64.391 490.93 72.6282 490.93 83.5897C490.93 99.5833 480.609 109.904 465.16 109.904C455.865 109.904 450.769 106.154 450.769 101.571C450.791 101.058 450.876 100.545 451.026 100.032C451.197 99.5406 451.421 99.0812 451.699 98.6538C451.998 98.2265 452.35 97.8526 452.756 97.532C453.162 97.2115 453.611 96.9444 454.103 96.7308C455.385 99.9679 457.949 102.115 463.109 102.115C472.981 102.115 476.25 93.2692 476.25 84.9359C476.25 77.6923 475.673 71.4423 475.673 64.2949C475.673 63.3974 475.833 61.25 475.833 61.25C472.083 64.3269 464.327 74.5513 461.506 77.6603L460.224 76.8269C461.336 74.7115 462.479 72.6068 463.654 70.5128C464.829 68.4188 466.047 66.3462 467.308 64.2949C468.547 62.2436 469.829 60.2137 471.154 58.2051C472.457 56.1966 473.803 54.2201 475.192 52.2756C475.897 51.3462 476.731 50.5128 477.628 49.8077C478.526 49.0705 479.519 48.4615 480.545 47.9808C481.603 47.4679 482.692 47.1154 483.846 46.891C484.968 46.6667 486.122 46.5705 487.276 46.6026C487.618 46.6026 487.959 46.6132 488.301 46.6346C488.643 46.656 488.985 46.6987 489.327 46.7628C489.669 46.8056 490.011 46.8697 490.353 46.9551C490.673 47.0192 491.004 47.1047 491.346 47.2115ZM134.68 93.4936C131.378 100.962 126.25 109.647 116.987 109.647C110.577 109.647 107.372 105.224 107.372 98.6859C107.372 98.3654 107.383 98.0342 107.404 97.6923C107.425 97.3504 107.447 97.0085 107.468 96.6667C107.489 96.3462 107.521 96.015 107.564 95.6731C107.607 95.3312 107.66 95 107.724 94.6795C103.301 101.891 96.795 109.551 87.8206 109.551C79.7757 109.551 75.9296 104.071 75.9296 95.9936C75.9296 86.0897 82.1155 73.1731 87.3398 64.9359C93.4937 55.2885 102.949 46.4423 115.16 46.4423C119.712 46.4423 123.622 48.1731 125.128 52.1795L127.051 47.532H141.763C138.974 54.4551 129.872 75.3526 125.93 84.4551C123.91 89.1026 122.276 92.8526 122.276 95.609C122.276 97.4359 123.013 98.6538 124.968 98.6538C128.173 98.6538 131.154 95.3526 133.398 92.6923L134.68 93.4936ZM121.763 55.9295C121.827 55.4167 121.795 54.8718 121.635 54.359C121.474 53.8462 121.186 53.3654 120.801 52.9808C120.417 52.5962 119.968 52.2756 119.455 52.1154C118.942 51.9231 118.398 51.859 117.853 51.9231C107.244 51.9231 92.1796 83.8461 92.2757 93.8782C92.3078 97.0833 93.4296 98.6859 96.0898 98.6859C103.205 98.6859 110.865 82.4038 117.724 67.9487C119.712 63.8461 121.763 59.359 121.763 55.9295ZM343.974 59.4872C343.974 78.6218 323.077 109.744 302.148 109.744C291.699 109.744 286.506 103.942 286.506 95.4167C286.506 74.4551 306.026 40.4487 321.506 21.0577C329.359 11.2179 339.455 1.28205 350.673 1.28205C356.859 1.28205 360.577 4.48718 360.577 9.42308C360.577 22.2115 343.878 31.6026 333.173 35.2244L332.404 34.0064C340.353 28.1731 349.84 16.0577 349.84 9.35897C349.872 8.94231 349.84 8.55769 349.744 8.17308C349.615 7.78846 349.391 7.4359 349.135 7.11538C348.846 6.82692 348.526 6.60256 348.141 6.44231C347.756 6.3141 347.372 6.25 346.955 6.28205C337.34 6.28205 320.192 45.8333 316.539 53.75C317.564 52.6282 318.686 51.6346 319.904 50.7372C321.09 49.8718 322.404 49.1026 323.75 48.4936C325.128 47.8526 326.539 47.3718 328.013 47.0192C329.455 46.6987 330.962 46.4744 332.468 46.4423C340.577 46.4423 343.974 52.3077 343.974 59.4872ZM327.949 60C327.949 56.5385 326.699 54.0064 323.494 54.0064C316.314 54.0064 308.718 70.3205 304.808 83.3013C304.445 84.3697 304.113 85.4487 303.814 86.5385C303.515 87.6282 303.259 88.7286 303.045 89.8397C302.81 90.9508 302.618 92.062 302.468 93.1731C302.34 94.3056 302.244 95.438 302.18 96.5705C302.18 99.2949 303.013 101.218 305.898 101.218C315.385 101.218 327.949 71.0256 327.949 60ZM384.615 58.6218C385.673 55.1282 384.84 50.7372 378.974 50.7372C377.66 50.7051 376.346 50.9615 375.128 51.4744C373.878 51.9551 372.789 52.7244 371.859 53.6538C370.93 54.6154 370.224 55.7372 369.776 56.9872C369.295 58.2372 369.103 59.5513 369.167 60.8654C369.167 65.8333 372.051 68.9423 378.397 70.7372L377.885 72.5961C367.436 74.0064 357.212 80.2244 357.212 90.7372C357.212 96.0577 360.032 99.2628 366.41 99.2628C367.628 99.2415 368.846 99.1239 370.064 98.9103C371.282 98.6752 372.479 98.3547 373.654 97.9487C374.808 97.5427 375.93 97.0299 377.019 96.4102C378.088 95.812 379.103 95.1282 380.064 94.359L381.186 95.2564C380 97.4038 378.558 99.391 376.859 101.154C375.16 102.917 373.237 104.455 371.154 105.705C369.039 106.955 366.795 107.949 364.423 108.59C362.083 109.263 359.648 109.615 357.18 109.615C347.276 109.615 340.673 104.295 340.673 95.1923C340.673 84.0064 348.494 76.8269 361.667 72.532C360.673 72.0833 359.776 71.5385 358.942 70.8654C358.109 70.1603 357.404 69.359 356.795 68.4936C356.186 67.5961 355.737 66.6346 355.385 65.609C355.064 64.6154 354.872 63.5577 354.84 62.4679C354.84 51.282 368.077 46.282 379.423 46.282C387.212 46.282 393.75 48.6218 393.75 53.5577C393.75 57.6603 388.494 59.1026 384.615 58.6218ZM285.93 59.2949C285.93 76.1859 271.731 109.647 251.731 109.647C245.321 109.647 240.994 106.25 240 100.481L225.737 135.321H210.641L250.641 37.8205H265.737L259.135 53.9423C260.096 52.7885 261.186 51.7628 262.34 50.8654C263.526 49.9359 264.808 49.1667 266.122 48.5256C267.468 47.8846 268.878 47.3718 270.321 47.0192C271.763 46.6667 273.237 46.4744 274.744 46.4103C282.532 46.4103 285.93 51.9551 285.93 59.2949ZM270.16 60.3846C270.16 56.9231 269.071 54.5513 265.865 54.5513C260.289 54.5513 255.481 62.5641 253.237 68.2051L245.513 87.0192C245.214 87.703 244.936 88.3974 244.68 89.1026C244.423 89.8077 244.188 90.5235 243.974 91.25C243.782 91.9765 243.622 92.7137 243.494 93.4615C243.365 94.188 243.269 94.9252 243.205 95.6731C243.141 96.3461 243.205 97.0192 243.398 97.6603C243.622 98.3013 243.974 98.8782 244.423 99.359C244.904 99.8397 245.481 100.192 246.09 100.449C246.731 100.673 247.372 100.769 248.045 100.737C253.558 100.737 257.885 93.75 260.641 88.782C264.199 82.2756 270.16 67.6603 270.16 60.3846Z" fill="#BA0018"/>
</g>
<defs>
<clipPath id="clip0_2_2515">
<rect width="500" height="135.577" fill="white"/>
</clipPath>
</defs>
</svg>
