<svg width="500" height="240" viewBox="0 0 500 240" fill="none" xmlns="http://www.w3.org/2000/svg">
<path fill-rule="evenodd" clip-rule="evenodd" d="M72.3862 164.702C72.3862 164.033 72.1095 163.498 71.3449 163.498C70.789 163.498 70.3036 163.898 69.7478 164.899C66.0027 171.715 62.3255 174.383 56.6363 174.383C46.9227 174.383 39.3622 164.967 39.3622 152.881C39.3622 142.926 45.7457 132.176 57.1217 132.176C67.1823 132.176 68.7794 140.723 71.0682 140.723C71.9007 140.723 72.0391 140.124 72.0391 139.455C71.4832 135.245 72.0391 132.441 68.6386 131.641C65.5852 130.906 60.7309 130.305 57.5392 130.305C51.0878 130.305 45.2602 131.842 40.6122 134.646C33.7458 138.789 29.3745 145.934 29.3745 153.08C29.3745 159.826 33.3962 167.039 39.5735 171.315C44.151 174.517 49.9082 176.199 56.3621 176.199C60.3159 176.199 71.3474 175.052 71.7624 170.709L72.3862 164.702Z" fill="#231F20"/>
<path fill-rule="evenodd" clip-rule="evenodd" d="M102.258 160.897C102.676 159.561 102.05 159.091 105.035 159.091H113.984H115.025C115.926 159.091 116.343 159.491 117.037 161.229L120.229 169.778C120.579 170.648 120.715 171.383 120.715 171.845C120.715 174.65 115.443 172.446 115.443 174.788C115.443 175.455 115.858 175.731 117.105 175.731C120.02 175.731 123.003 175.387 125.918 175.387C128.763 175.387 131.608 175.731 134.452 175.731C135.562 175.731 136.117 175.321 136.117 174.723C136.117 173.651 134.87 173.651 134.037 173.518C130.29 172.987 129.178 168.91 127.931 166.038L116.346 138.925C115.581 137.187 114.89 135.383 114.195 133.514C113.086 130.378 112.807 129.976 112.047 129.976C111.63 129.976 111.283 130.24 110.938 130.713C110.035 132.715 109.341 134.852 108.579 136.922L104.349 147.808C101.642 154.755 97.8242 165.306 94.22 171.584C92.3462 174.388 88.0327 172.718 88.0327 174.655C88.0327 175.326 88.4477 175.671 89.3632 175.671C91.4433 175.671 93.5233 175.392 95.6058 175.392C98.3096 175.392 100.946 175.671 103.652 175.671C104.899 175.671 105.458 175.324 105.458 174.655C105.458 172.587 99.0742 174.655 99.0742 171.654C99.0742 171.051 99.3509 169.846 99.7659 168.513L102.258 160.897ZM108.919 142.33L114.122 154.617C114.469 155.419 114.54 155.688 114.54 155.955C114.54 156.352 114.122 156.485 112.875 156.485H105.8C104.343 156.485 103.996 156.352 103.996 155.753C103.996 155.419 104.135 154.954 104.343 154.347L108.919 142.33Z" fill="#231F20"/>
<path fill-rule="evenodd" clip-rule="evenodd" d="M181.529 152.745C187.288 151.541 191.727 148.203 191.727 142.129C191.727 134.045 184.791 130.773 177.436 130.773C173.342 130.773 169.25 131.04 165.155 131.04C162.381 131.04 159.674 130.773 156.9 130.773C155.791 130.773 155.376 131.04 155.376 131.771C155.376 133.776 159.4 131.973 161.201 134.312C161.687 134.981 161.757 135.313 161.757 138.049V168.437C161.757 171.242 161.689 173.314 158.012 173.513C155.932 173.649 155.376 173.915 155.376 174.718C155.376 175.45 155.791 175.726 156.832 175.726C159.745 175.726 162.73 175.382 165.643 175.382C168.487 175.382 171.332 175.726 174.177 175.726H174.386C175.495 175.726 175.983 175.45 175.983 174.718C175.983 173.915 175.427 173.646 173.344 173.513C169.737 173.38 169.599 171.312 169.599 168.437V155.547C169.599 154.212 169.808 153.945 171.055 153.945C174.318 153.945 174.733 154.209 176.398 157.285L185.279 173.51C186.317 175.316 186.664 175.593 187.774 175.593C189.092 175.593 190.412 175.447 191.727 175.447C194.087 175.447 196.378 175.661 198.735 175.661C199.499 175.661 199.914 175.382 199.914 174.781C199.914 174.308 199.499 173.842 198.943 173.78C194.849 173.244 194.502 172.779 192.283 168.971L185.138 156.749C183.817 154.483 182.985 153.548 181.529 152.745ZM169.597 149.476V137.453C169.597 133.577 170.223 132.778 173.065 132.778C179.381 132.778 183.334 136.917 183.334 142.999C183.334 149.541 179.655 152.076 173.135 152.076C169.667 152.079 169.597 152.011 169.597 149.476Z" fill="#231F20"/>
<path fill-rule="evenodd" clip-rule="evenodd" d="M255.245 164.036L230.204 132.845C229.44 131.776 228.886 130.909 227.428 130.778L222.5 130.977C220.28 130.911 218.132 130.778 215.911 130.778C214.522 130.778 213.969 131.11 213.969 131.776C213.969 132.579 214.595 132.845 216.746 132.845C218.27 132.911 219.382 133.182 219.799 133.713C220.355 134.317 220.632 136.12 220.632 139.058V162.901C220.632 165.039 220.561 167.308 220.423 169.843C220.423 175.256 213.625 172.718 213.625 174.924C213.625 175.522 214.107 175.867 214.94 175.867C217.646 175.867 220.282 175.392 222.988 175.392C225.136 175.392 227.221 175.603 229.369 175.603C230.619 175.603 231.175 175.326 231.175 174.592C231.175 173.52 229.857 173.591 227.845 173.455C225.418 173.256 224.377 172.386 224.027 170.319C223.753 169.046 223.544 165.175 223.474 162.102V137.252L254.627 175.387C255.731 176.669 256.357 177.132 257.049 177.132C257.884 177.132 258.301 176.667 258.301 175.387V175.055V137.654C258.301 134.115 258.857 133.514 262.117 133.245C264.403 133.047 265.1 132.777 265.1 131.978C265.1 131.243 264.617 130.909 263.711 130.909C261.352 130.909 258.925 131.175 256.566 131.175C254.345 131.175 252.059 130.974 249.838 130.974C248.52 130.974 247.964 131.241 247.964 131.975C247.964 134.244 254.068 131.306 254.83 135.848C255.039 136.917 255.177 139.855 255.245 141.928V164.036Z" fill="#231F20"/>
<path fill-rule="evenodd" clip-rule="evenodd" d="M294.696 138.12C294.696 135.449 294.764 135.117 295.254 134.382C295.805 133.645 296.985 133.112 298.443 133.047C300.523 132.911 301.079 132.647 301.079 131.844C301.079 131.107 300.664 130.775 299.623 130.775C296.64 130.775 293.727 131.107 290.745 131.107C287.897 131.107 285.053 130.843 282.208 130.843C282.07 130.778 282.002 130.778 281.934 130.778C280.825 130.778 280.407 131.11 280.407 131.776C280.407 132.647 280.963 132.911 283.046 133.047C286.652 133.182 286.791 135.187 286.791 138.122V168.445C286.791 171.249 286.723 173.322 283.046 173.52C280.963 173.656 280.407 173.923 280.407 174.725C280.407 175.392 280.825 175.734 281.864 175.734C284.779 175.734 287.764 175.389 290.674 175.389C293.66 175.389 296.572 175.734 299.555 175.734C300.664 175.734 301.079 175.457 301.079 174.725C301.079 173.923 300.523 173.654 298.443 173.52C294.837 173.387 294.698 171.32 294.698 168.445L294.696 138.12Z" fill="#231F20"/>
<path fill-rule="evenodd" clip-rule="evenodd" d="M348.364 163.9L336.5 137.252C335.811 135.718 335.529 135.046 335.529 134.646C335.529 131.774 341.286 133.645 341.286 131.774C341.286 131.105 340.804 130.775 339.901 130.775C336.779 130.775 333.585 131.175 330.464 131.175C327.481 131.042 324.43 130.775 321.444 130.775C320.74 130.775 320.325 131.107 320.325 131.709C320.325 132.511 320.74 132.71 322.692 132.843C325.189 133.044 325.954 133.778 327.551 137.586L343.854 175.052C344.34 176.199 344.684 176.599 345.24 176.599C345.658 176.599 346.143 176.063 346.488 175.253L361.408 139.458C363.49 134.581 364.391 133.313 366.264 133.044L368.345 132.777C369.036 132.644 369.454 132.242 369.454 131.709C369.454 131.107 369.036 130.775 368.138 130.775C365.917 130.775 363.767 131.042 361.546 131.042C359.463 131.042 357.316 130.841 355.23 130.841C353.706 130.841 353.218 131.105 353.218 131.842C353.218 134.181 359.461 131.575 359.461 135.114C359.461 136.047 359.116 137.519 358.42 139.123L348.364 163.9Z" fill="#231F20"/>
<path fill-rule="evenodd" clip-rule="evenodd" d="M388.508 160.897C388.923 159.561 388.3 159.091 391.285 159.091H400.234H401.275C402.176 159.091 402.591 159.491 403.288 161.229L406.479 169.778C406.829 170.648 406.965 171.383 406.965 171.845C406.965 174.65 401.693 172.446 401.693 174.788C401.693 175.455 402.108 175.731 403.355 175.731C406.271 175.731 409.253 175.387 412.166 175.387C415.011 175.387 417.858 175.731 420.7 175.731C421.809 175.731 422.365 175.321 422.365 174.723C422.365 173.651 421.117 173.651 420.285 173.518C416.54 172.987 415.428 168.91 414.178 166.038L402.593 138.925C401.831 137.187 401.137 135.383 400.443 133.514C399.339 130.378 399.057 129.976 398.295 129.976C397.88 129.976 397.53 130.24 397.186 130.713C396.285 132.715 395.591 134.852 394.827 136.922L390.596 147.808C387.89 154.755 384.074 165.306 380.468 171.584C378.596 174.388 374.28 172.718 374.28 174.655C374.28 175.326 374.698 175.671 375.608 175.671C377.691 175.671 379.773 175.392 381.853 175.392C384.557 175.392 387.196 175.671 389.899 175.671C391.149 175.671 391.705 175.324 391.705 174.655C391.705 172.587 385.324 174.655 385.324 171.654C385.324 171.051 385.598 169.846 386.016 168.513L388.508 160.897ZM395.166 142.33L400.37 154.617C400.717 155.419 400.785 155.688 400.785 155.955C400.785 156.352 400.37 156.485 399.12 156.485H392.045C390.589 156.485 390.241 156.352 390.241 155.753C390.241 155.419 390.382 154.954 390.589 154.347L395.166 142.33Z" fill="#231F20"/>
<path fill-rule="evenodd" clip-rule="evenodd" d="M465.487 175.52C466.458 175.52 467.358 175.598 468.332 175.598C469.579 175.598 469.997 175.253 470.135 173.918C470.278 171.513 471.176 167.371 471.176 165.902C471.176 165.168 470.827 164.765 470.203 164.765C469.788 164.765 469.511 164.966 469.162 165.635C466.111 171.043 462.086 173.515 456.327 173.515C452.094 173.515 450.572 171.649 450.572 166.571V138.054C450.572 135.381 450.572 135.049 451.058 134.317C451.611 133.58 452.788 133.047 454.247 132.981C456.327 132.845 456.885 132.581 456.885 131.776C456.885 131.044 456.468 130.778 455.426 130.778C452.443 130.778 449.531 131.11 446.548 131.11C443.565 131.11 440.582 130.778 437.594 130.778C436.49 130.778 436.072 131.044 436.072 131.776C436.072 133.781 440.096 131.978 441.897 134.317C442.383 134.986 442.453 135.318 442.453 138.054V168.442C442.453 171.247 442.385 173.319 438.711 173.518C436.628 173.654 436.072 173.92 436.072 174.723C436.072 175.389 436.49 175.731 437.529 175.731C439.123 175.731 440.791 175.52 442.385 175.52H465.487Z" fill="#231F20"/>
<path d="M49.37 191.019C49.37 191.323 49.37 191.534 48.9399 191.534C48.6884 191.534 48.4746 191.477 48.0823 190.989C46.7945 189.349 45.474 187.918 42.1867 187.918C36.3264 187.918 33.6101 192.782 33.6101 196.67C33.6101 200.921 36.5402 205.783 41.9377 205.783C45.225 205.783 46.797 204.083 48.296 201.743C48.3665 201.623 48.6557 201.168 49.0104 201.168C49.5486 201.168 49.5486 201.439 49.5486 201.653L49.2619 204.236C49.2267 204.659 49.1562 204.933 48.4042 205.297C47.8307 205.602 45.4388 206.542 41.8296 206.542C32.7901 206.542 28.8237 200.649 28.8237 196.789C28.8237 192.568 33.1121 187.128 42.4383 187.128C44.0807 187.128 44.6893 187.218 47.1164 187.553C48.7261 187.797 48.9047 188.069 49.0481 188.889L49.37 191.019Z" fill="#231F20"/>
<path d="M72.2025 206.545C65.9498 206.545 59.9839 202.599 59.9839 196.791C59.9839 191.323 65.3789 187.13 72.3081 187.13C78.9909 187.13 84.3884 191.293 84.3884 196.517C84.3884 202.415 78.2766 206.545 72.2025 206.545ZM71.8806 187.92C66.8779 187.92 64.2697 191.841 64.2697 196.155C64.2697 201.074 67.6652 205.755 72.4892 205.755C77.4919 205.755 80.1001 201.044 80.1001 196.64C80.1001 193.023 77.5623 187.92 71.8806 187.92Z" fill="#231F20"/>
<path d="M97.4294 190.38C97.4294 189.137 97.4294 188.318 95.6789 188.224C94.8916 188.194 94.3911 188.167 94.3911 187.739C94.3911 187.314 94.5345 187.314 95.7116 187.314C96.0712 187.314 97.8218 187.437 98.2494 187.437C99.2152 187.437 103.966 187.314 105.038 187.314C111.363 187.314 111.899 191.021 111.899 192.083C111.899 195.637 108.219 196.366 107.005 196.58C107.47 196.824 107.897 197.005 108.722 198.283L112.188 203.507C112.903 204.57 113.403 205.33 114.404 205.451C115.584 205.574 115.868 205.604 115.868 205.997C115.868 206.331 115.511 206.364 115.262 206.364C114.797 206.364 112.475 206.243 111.939 206.243C111.655 206.243 110.33 206.364 110.008 206.364C109.366 206.364 109.22 206.092 108.828 205.453L104.505 198.527C103.717 197.219 103.539 197.098 101.934 197.098C101.325 197.098 101.252 197.279 101.252 197.797V203.268C101.252 204.543 101.252 205.363 103.041 205.453C103.828 205.483 104.326 205.511 104.326 205.969C104.326 206.396 103.861 206.364 103.576 206.364C102.895 206.364 99.4315 206.243 99.2881 206.243C98.682 206.243 95.7845 206.364 95.1457 206.364C94.8589 206.364 94.3936 206.396 94.3936 205.939C94.3936 205.511 94.9294 205.481 95.6814 205.453C97.4319 205.33 97.4319 204.543 97.4319 203.268L97.4294 190.38ZM101.252 195.184C101.252 196.248 101.252 196.306 103.041 196.306C104.326 196.306 107.865 196.306 107.865 192.508C107.865 191.414 107.364 188.164 102.933 188.164C101.29 188.164 101.252 188.891 101.252 190.078V195.184Z" fill="#231F20"/>
<path d="M127.123 190.413C127.123 189.168 127.123 188.348 125.3 188.255C124.548 188.197 124.05 188.197 124.05 187.739C124.05 187.314 124.193 187.314 125.37 187.314C125.906 187.314 128.514 187.437 129.088 187.437C129.945 187.437 134.055 187.314 134.983 187.314C140.881 187.314 142.453 190.533 142.453 192.691C142.453 196.401 138.557 198.071 135.627 198.071C134.737 198.071 133.985 197.948 132.483 197.495C132.269 197.432 131.412 197.188 131.268 197.188C130.946 197.188 130.946 197.342 130.946 197.737V203.237C130.946 204.513 130.946 205.333 132.913 205.426C133.7 205.456 134.198 205.483 134.198 205.941C134.198 206.366 133.733 206.366 133.449 206.366C132.234 206.366 130.305 206.246 129.09 206.246C128.484 206.246 125.481 206.366 124.802 206.366C124.518 206.366 124.052 206.366 124.052 205.911C124.052 205.483 124.55 205.453 125.302 205.426C127.126 205.302 127.126 204.513 127.126 203.27L127.123 190.413ZM130.946 195.667C130.946 196.185 130.946 196.306 131.376 196.457C131.985 196.731 133.019 196.791 133.771 196.791C135.7 196.791 138.416 195.546 138.416 192.571C138.416 189.895 136.057 188.071 133.2 188.071C131.127 188.071 130.946 188.954 130.946 190.44V195.667Z" fill="#231F20"/>
<path d="M164.463 206.545C158.213 206.545 152.245 202.599 152.245 196.791C152.245 191.323 157.642 187.13 164.571 187.13C171.254 187.13 176.649 191.293 176.649 196.517C176.647 202.415 170.54 206.545 164.463 206.545ZM164.141 187.92C159.141 187.92 156.533 191.841 156.533 196.155C156.533 201.074 159.928 205.755 164.752 205.755C169.755 205.755 172.363 201.044 172.363 196.64C172.361 193.023 169.826 187.92 164.141 187.92Z" fill="#231F20"/>
<path d="M189.691 190.38C189.691 189.137 189.691 188.318 187.94 188.224C187.153 188.194 186.655 188.167 186.655 187.739C186.655 187.314 186.798 187.314 187.975 187.314C188.332 187.314 190.083 187.437 190.513 187.437C191.479 187.437 196.23 187.314 197.301 187.314C203.627 187.314 204.163 191.021 204.163 192.083C204.163 195.637 200.483 196.366 199.268 196.58C199.734 196.824 200.161 197.005 200.984 198.283L204.45 203.507C205.164 204.57 205.664 205.33 206.668 205.451C207.847 205.574 208.132 205.604 208.132 205.997C208.132 206.331 207.772 206.364 207.526 206.364C207.055 206.364 204.734 206.243 204.201 206.243C203.914 206.243 202.591 206.364 202.269 206.364C201.625 206.364 201.482 206.092 201.089 205.453L196.766 198.527C195.978 197.219 195.8 197.098 194.193 197.098C193.587 197.098 193.514 197.279 193.514 197.797V203.268C193.514 204.543 193.514 205.363 195.299 205.453C196.087 205.483 196.587 205.511 196.587 205.969C196.587 206.396 196.122 206.364 195.835 206.364C195.156 206.364 191.693 206.243 191.549 206.243C190.941 206.243 188.046 206.364 187.404 206.364C187.12 206.364 186.655 206.396 186.655 205.939C186.655 205.511 187.191 205.481 187.94 205.453C189.691 205.33 189.691 204.543 189.691 203.268V190.38ZM193.514 195.184C193.514 196.248 193.514 196.306 195.299 196.306C196.587 196.306 200.123 196.306 200.123 192.508C200.123 191.414 199.625 188.164 195.191 188.164C193.549 188.164 193.514 188.891 193.514 190.078V195.184Z" fill="#231F20"/>
<path d="M223.099 199.284C222.028 199.284 222.028 199.284 221.741 200.071L220.529 203.326C220.529 203.419 220.207 204.239 220.207 204.603C220.207 205.363 221.1 205.423 221.922 205.453C222.85 205.484 223.281 205.577 223.281 205.939C223.281 206.364 222.85 206.364 222.03 206.364C221.671 206.364 219.566 206.243 218.527 206.243C218.135 206.243 216.027 206.364 215.561 206.364C215.345 206.364 214.88 206.364 214.88 205.909C214.88 205.511 215.38 205.451 215.954 205.391C217.133 205.3 217.455 205.27 218.132 204.206C219.276 202.322 222.42 195.214 224.78 189.958C226.1 187.01 226.1 186.977 226.46 186.977C226.852 186.977 226.958 187.191 227.496 188.436C227.853 189.288 228.245 190.139 228.532 190.712L234.106 202.259C235.25 204.601 235.607 205.267 237.074 205.451C237.68 205.509 238.072 205.574 238.072 205.966C238.072 206.361 237.466 206.361 237.25 206.361C236.644 206.361 233.678 206.241 233.069 206.241C230.891 206.241 229.033 206.361 228.927 206.361C228.567 206.361 228.105 206.361 228.105 205.936C228.105 205.541 228.678 205.451 229.392 205.388C230.32 205.328 230.642 205.174 230.642 204.719C230.642 204.417 230.464 203.959 230.391 203.836L228.857 200.192C228.464 199.281 228.356 199.281 227.39 199.281L223.099 199.284ZM226.852 198.192C227.674 198.192 227.674 198.069 227.674 197.978C227.674 197.825 227.566 197.583 227.458 197.402L224.958 192.176L222.742 197.309C222.705 197.372 222.599 197.677 222.599 197.888C222.599 198.192 222.813 198.192 223.457 198.192H226.852Z" fill="#231F20"/>
<path d="M256.259 203.235C256.259 204.48 256.259 205.3 258.047 205.39C258.797 205.423 259.297 205.451 259.297 205.908C259.297 206.364 258.832 206.364 258.548 206.364C257.368 206.364 255.51 206.243 254.33 206.243C253.724 206.243 250.826 206.364 250.15 206.364C249.866 206.364 249.398 206.364 249.398 205.908C249.398 205.481 249.898 205.451 250.648 205.39C252.436 205.3 252.436 204.48 252.436 203.295V189.168C252.436 188.378 252.152 188.378 251.438 188.378C249.292 188.378 246.935 188.378 245.112 191.263C244.79 191.751 244.611 191.869 244.29 191.869C244.005 191.869 243.824 191.658 243.824 191.476C243.824 191.323 243.895 191.142 243.932 190.991L245.396 186.708C245.504 186.34 245.61 186.159 245.932 186.159C246.219 186.159 246.324 186.313 246.362 186.584C246.541 187.404 247.184 187.437 247.969 187.437H259.441C263.123 187.437 263.299 187.042 263.551 186.494C263.659 186.25 263.767 186.069 264.051 186.069C264.552 186.069 264.552 186.554 264.552 187.281L264.3 190.991C264.262 191.6 264.192 191.964 263.727 191.964C263.548 191.964 263.297 191.934 263.153 191.295C262.547 188.378 260.794 188.378 258.472 188.378C256.435 188.378 256.257 188.378 256.257 189.379L256.259 203.235Z" fill="#231F20"/>
<path d="M280.52 203.235C280.52 204.51 280.52 205.33 282.309 205.423C283.096 205.453 283.597 205.481 283.597 205.939C283.597 206.364 283.129 206.364 282.845 206.364C282.092 206.364 280.913 206.243 278.556 206.243C276.519 206.243 274.733 206.364 274.376 206.364C274.092 206.364 273.626 206.364 273.626 205.908C273.626 205.481 274.162 205.451 274.912 205.423C276.7 205.3 276.7 204.51 276.7 203.268V190.443C276.7 189.168 276.7 188.378 274.912 188.255C274.124 188.224 273.626 188.197 273.626 187.739C273.626 187.314 274.092 187.314 274.376 187.314C275.128 187.314 276.416 187.437 278.594 187.437C281.164 187.437 282.311 187.314 282.845 187.314C283.129 187.314 283.597 187.314 283.597 187.769C283.597 188.197 283.058 188.227 282.309 188.255C280.52 188.378 280.52 189.168 280.52 190.352V203.235Z" fill="#231F20"/>
<path d="M305.82 206.545C299.568 206.545 293.602 202.599 293.602 196.791C293.602 191.323 298.999 187.13 305.928 187.13C312.609 187.13 318.006 191.293 318.006 196.517C318.006 202.415 311.897 206.545 305.82 206.545ZM305.498 187.92C300.496 187.92 297.887 191.841 297.887 196.155C297.887 201.074 301.283 205.755 306.107 205.755C311.11 205.755 313.718 201.044 313.718 196.64C313.715 193.023 311.18 187.92 305.498 187.92Z" fill="#231F20"/>
<path d="M348.163 201.321L348.019 191.962C347.949 188.285 347.554 188.285 346.125 188.224C345.054 188.194 344.518 188.167 344.518 187.739C344.518 187.314 345.16 187.314 345.409 187.314C345.801 187.314 347.803 187.437 348.268 187.437C348.807 187.437 351.483 187.314 352.094 187.314C352.27 187.314 352.738 187.314 352.738 187.769C352.738 188.136 352.378 188.227 351.342 188.287C350.021 188.408 349.486 188.471 349.518 190.141L349.591 206.029C349.591 206.331 349.591 206.912 349.053 206.912C348.766 206.912 348.517 206.882 347.911 206.213L332.687 190.113L332.617 190.171L332.76 200.622C332.798 205.028 333.225 205.33 334.832 205.453C336.261 205.544 336.442 205.544 336.442 205.939C336.442 206.364 335.869 206.364 335.582 206.364C335.154 206.364 333.799 206.243 332.69 206.243C330.866 206.243 329.261 206.364 328.617 206.364C328.509 206.364 328.009 206.364 328.009 205.969C328.009 205.604 328.152 205.577 329.654 205.423C331.226 205.242 331.369 205.119 331.369 200.986V190.868C331.369 188.529 331.118 188.224 329.51 188.224C328.761 188.194 328.19 188.194 328.19 187.739C328.19 187.347 328.655 187.314 329.297 187.314C329.689 187.314 331.299 187.437 332.441 187.437C333.442 187.437 334.299 187.314 334.765 187.314C335.408 187.314 335.728 187.953 335.977 188.224L348.09 201.379L348.163 201.321Z" fill="#231F20"/>
<path d="M378.749 199.681C378.893 199.834 378.966 199.834 379.001 199.834C379.144 199.834 379.215 199.771 379.285 199.681L380.5 198.373C381.001 197.857 381.607 196.854 381.607 196.429C381.607 195.823 380.749 195.732 380.248 195.699C379.25 195.639 378.928 195.546 378.928 195.217C378.928 194.759 379.534 194.759 380.178 194.759C381.214 194.759 382.821 194.879 383.86 194.879C384.25 194.879 386.219 194.759 386.682 194.759C386.966 194.759 387.218 194.849 387.218 195.151C387.218 195.609 386.006 195.667 385.681 195.667C384.182 195.853 382.429 197.734 382.037 198.159L380.359 199.985C380.289 200.043 379.859 200.408 379.859 200.654C379.859 200.775 379.967 200.896 380.216 201.11L381.969 202.782C382.789 203.569 384.826 205.212 385.9 205.363C387.256 205.544 387.399 205.576 387.399 205.911C387.399 206.366 386.828 206.366 386.328 206.366C385.435 206.366 381.971 206.245 380.933 206.245C378.433 206.245 378.433 206.366 377.932 206.366C377.716 206.366 377.145 206.366 377.145 205.941C377.145 205.637 377.429 205.483 378.181 205.393C378.433 205.363 378.86 205.272 378.86 204.968C378.86 204.756 378.717 204.573 378.433 204.271L377.572 203.388C377.464 203.268 377.288 203.144 377.18 203.144C377.037 203.144 376.928 203.235 376.896 203.268C374.788 204.877 372.572 206.547 368.855 206.547C364.247 206.547 362.532 203.723 362.532 201.686C362.532 199.892 363.352 197.948 368.568 195.823C368.711 195.79 369.033 195.667 369.033 195.486C369.033 195.305 368.749 195.033 368.603 194.879C367.64 193.878 366.78 192.603 366.78 191.326C366.78 189.017 369.496 187.133 373.284 187.133C377.359 187.133 379.036 189.17 379.036 190.868C379.036 192.176 378.5 193.3 374.856 194.331C374.537 194.424 373.752 194.636 373.752 194.849C373.752 194.91 373.857 195.033 373.895 195.093L378.749 199.681ZM369.675 196.61C369.318 196.306 369.245 196.218 368.993 196.218C368.601 196.218 365.565 197.764 365.565 200.468C365.565 202.261 367.172 204.631 370.568 204.631C373.533 204.631 375.535 202.566 375.535 202.38C375.535 202.292 375.392 202.138 375.321 202.045L369.675 196.61ZM375.89 191.019C375.89 189.349 374.64 187.89 372.783 187.89C371.174 187.89 370.138 189.014 370.138 190.141C370.138 191.841 372.819 194.18 373.068 194.18C374.069 194.18 375.89 192.842 375.89 191.019Z" fill="#231F20"/>
<path d="M399.047 190.413C399.047 189.168 399.047 188.348 397.223 188.255C396.471 188.197 395.971 188.197 395.971 187.739C395.971 187.314 396.114 187.314 397.291 187.314C397.827 187.314 400.435 187.437 401.011 187.437C401.869 187.437 405.978 187.314 406.907 187.314C412.802 187.314 414.374 190.533 414.374 192.691C414.374 196.401 410.481 198.071 407.55 198.071C406.658 198.071 405.906 197.948 404.406 197.495C404.19 197.432 403.333 197.188 403.192 197.188C402.87 197.188 402.87 197.342 402.87 197.737V203.237C402.87 204.513 402.87 205.333 404.834 205.426C405.621 205.456 406.122 205.483 406.122 205.941C406.122 206.366 405.654 206.366 405.37 206.366C404.158 206.366 402.226 206.246 401.014 206.246C400.405 206.246 397.402 206.366 396.725 206.366C396.441 206.366 395.973 206.366 395.973 205.911C395.973 205.483 396.474 205.453 397.226 205.426C399.049 205.302 399.049 204.513 399.049 203.27V190.413H399.047ZM402.87 195.667C402.87 196.185 402.87 196.306 403.297 196.457C403.906 196.731 404.942 196.791 405.692 196.791C407.623 196.791 410.337 195.546 410.337 192.571C410.337 189.895 407.978 188.071 405.121 188.071C403.048 188.071 402.87 188.954 402.87 190.44V195.667Z" fill="#231F20"/>
<path d="M426.847 190.413C426.847 189.168 426.847 188.348 425.023 188.255C424.271 188.224 423.773 188.197 423.773 187.739C423.773 187.314 424.239 187.314 424.523 187.314C425.132 187.314 427.023 187.437 428.882 187.437C431.135 187.437 432.385 187.314 433.064 187.314C433.349 187.314 433.811 187.314 433.811 187.739C433.811 188.197 433.278 188.224 432.564 188.255C430.74 188.348 430.67 189.168 430.67 190.322V202.445C430.67 204.357 431.311 205.39 433.527 205.39C435.245 205.39 437.78 205.089 439.709 202.048C439.855 201.806 439.996 201.683 440.21 201.683C440.567 201.683 440.675 201.927 440.675 202.168C440.675 202.41 440.21 205.116 440.175 205.632C440.107 206.208 439.923 206.361 439.282 206.361C438.962 206.361 438.998 206.241 430.886 206.241C424.85 206.241 424.85 206.361 424.49 206.361C424.239 206.361 423.776 206.361 423.776 205.936C423.776 205.509 424.312 205.478 425.026 205.421C426.849 205.327 426.849 204.508 426.849 203.232L426.847 190.413Z" fill="#231F20"/>
<path d="M470.477 191.019C470.477 191.323 470.477 191.534 470.047 191.534C469.798 191.534 469.584 191.477 469.192 190.989C467.904 189.349 466.584 187.918 463.294 187.918C457.433 187.918 454.717 192.782 454.717 196.67C454.717 200.921 457.647 205.783 463.045 205.783C466.335 205.783 467.906 204.083 469.403 201.743C469.476 201.623 469.763 201.168 470.12 201.168C470.656 201.168 470.656 201.439 470.656 201.653L470.369 204.236C470.334 204.659 470.263 204.933 469.511 205.297C468.94 205.602 466.546 206.542 462.939 206.542C453.897 206.542 449.931 200.649 449.931 196.789C449.931 192.568 454.219 187.128 463.543 187.128C465.188 187.128 465.796 187.218 468.223 187.553C469.836 187.797 470.012 188.069 470.155 188.889L470.477 191.019Z" fill="#231F20"/>
<path fill-rule="evenodd" clip-rule="evenodd" d="M203.961 49.7172L212.251 46.8776L204.137 32.4834L203.961 49.7172Z" fill="#231F20"/>
<path fill-rule="evenodd" clip-rule="evenodd" d="M209.226 46.8223C211.774 46.8223 213.849 48.9979 213.849 51.669C213.849 54.3375 211.774 56.5132 209.226 56.5132C206.68 56.5132 204.605 54.3375 204.605 51.669C204.605 48.9979 206.68 46.8223 209.226 46.8223Z" fill="#231F20"/>
<path d="M210.534 55.7915L230.029 114.963" stroke="#231F20" stroke-width="3.2231" stroke-miterlimit="2.6131"/>
<path fill-rule="evenodd" clip-rule="evenodd" d="M209.226 46.8223C211.774 46.8223 213.849 48.9979 213.849 51.669C213.849 54.3375 211.774 56.5132 209.226 56.5132C206.68 56.5132 204.605 54.3375 204.605 51.669C204.605 48.9979 206.68 46.8223 209.226 46.8223Z" fill="#231F20"/>
<path fill-rule="evenodd" clip-rule="evenodd" d="M211.092 47.9438C211.031 47.9438 213.051 49.4479 212.867 51.5632C212.684 53.8167 210.662 54.7046 210.662 54.7046C210.662 54.7046 211.829 50.879 210.968 49.9937C211.829 49.3775 211.15 47.9438 211.092 47.9438Z" fill="white" stroke="#231F20" stroke-width="0.1612" stroke-miterlimit="2.6131"/>
<path fill-rule="evenodd" clip-rule="evenodd" d="M214.92 54.5991C217.267 53.0523 218.371 52.0915 221.816 50.3737C225.297 48.6583 228.381 48.0371 231.588 47.2825C233.142 46.8449 237.871 46.4777 238.223 47.7001C238.927 49.3248 237.184 49.6116 237.8 51.3948C238.389 53.2133 257.625 48.7514 264.086 49.5864C271.941 49.765 284.718 52.3632 284.718 52.3632C283.664 53.9251 283.312 65.5753 286.006 75.3969C288.244 87.1402 295.226 98.1691 295.226 98.1691C295.239 98.5162 286.184 95.8426 278.591 96.0941C270.995 96.3809 266.403 101.278 256.49 101.298C246.608 101.288 245.034 97.7315 241.067 96.9619C237.101 96.1897 230.026 98.1037 230.026 98.1037C229.842 98.1742 227.697 85.5707 226.049 79.0992C223.124 67.0366 214.92 54.5991 214.92 54.5991Z" fill="#E03A3E" stroke="#E03A3E" stroke-width="0.3664"/>
<path fill-rule="evenodd" clip-rule="evenodd" d="M252.604 56.3344C262.363 55.8214 270.874 63.6334 271.551 73.7292C272.227 83.8251 264.823 92.4747 255.064 92.9878C245.305 93.5009 236.794 85.6863 236.117 75.593C235.438 65.4997 242.845 56.8501 252.604 56.3344Z" fill="white"/>
<path fill-rule="evenodd" clip-rule="evenodd" d="M253.055 58.603C259.899 58.2459 265.97 65.1852 266.571 74.0486C267.172 82.912 262.084 90.4323 255.235 90.7869C248.394 91.1441 242.32 84.2048 241.719 75.3389C241.118 66.478 246.214 58.9577 253.055 58.603Z" fill="#485E87"/>
<path d="M210.534 55.7915L230.029 114.963" stroke="#231F20" stroke-width="3.2231" stroke-miterlimit="2.6131"/>
<path fill-rule="evenodd" clip-rule="evenodd" d="M211.092 47.9438C211.031 47.9438 213.051 49.4479 212.867 51.5632C212.684 53.8167 210.662 54.7046 210.662 54.7046C210.662 54.7046 211.829 50.879 210.968 49.9937C211.829 49.3775 211.15 47.9438 211.092 47.9438Z" fill="white" stroke="#231F20" stroke-width="0.1612" stroke-miterlimit="2.6131"/>
<path fill-rule="evenodd" clip-rule="evenodd" d="M252.604 56.3344C262.363 55.8214 270.874 63.6334 271.551 73.7292C272.227 83.8251 264.823 92.4747 255.064 92.9878C245.305 93.5009 236.794 85.6863 236.117 75.593C235.438 65.4997 242.845 56.8501 252.604 56.3344Z" fill="white"/>
<path fill-rule="evenodd" clip-rule="evenodd" d="M253.055 58.603C259.899 58.2459 265.97 65.1852 266.571 74.0486C267.172 82.912 262.084 90.4323 255.235 90.7869C248.394 91.1441 242.32 84.2048 241.719 75.3389C241.118 66.478 246.214 58.9577 253.055 58.603Z" fill="#005A9C"/>
<path fill-rule="evenodd" clip-rule="evenodd" d="M207.92 47.1645L205.287 35.8413L210.667 46.1761L207.92 47.1645Z" fill="white"/>
</svg>
