<?xml version="1.0" encoding="utf-8"?>
<!-- Generator: Adobe Illustrator 17.1.0, SVG Export Plug-In . SVG Version: 6.00 Build 0)  -->
<!DOCTYPE svg PUBLIC "-//W3C//DTD SVG 1.1//EN" "http://www.w3.org/Graphics/SVG/1.1/DTD/svg11.dtd">
<svg version="1.1" id="Capa_2" xmlns="http://www.w3.org/2000/svg" xmlns:xlink="http://www.w3.org/1999/xlink" x="0px" y="0px"
	 viewBox="0 0 595.3 283.5" enable-background="new 0 0 595.3 283.5" xml:space="preserve">
<g>
	<path fill="#0A5CA6" stroke="#020403" stroke-width="1.3921" stroke-miterlimit="10" d="M580.2,157.1
		c0,72.1-126.3,115.1-282.2,115.1S15.1,227.8,15.1,155.7C15.1,47.2,298,11.2,298,11.2S580.2,45.1,580.2,157.1z"/>
	<path fill="#FDFCFE" stroke="#000000" stroke-width="1.5" stroke-miterlimit="10" d="M569.4,168c0,51.3-121.3,92.8-270.8,92.8
		S27.7,219.3,27.7,168c0-34.3,15.5-69,89.7-97.5c45.2-17.4,34.9,10.2,53.9,11.1c10.9,0.5,15.5-12,27.8-11.5
		c10.6,0.5,28.8,13.8,39.7,13.2c34.8-1.7,35.2-61,55-60.9c6.8,0,63,9.7,63,9.7c-49.8,35.2-27.4,50.5-22.6,50.5
		c27.2,0,51-21.3,73.8-19.1c22.8,2.1,37.8,21.3,56,25.4c27.9,6.3,35.2-24.4,79.7,18.8C562.3,125.7,569.4,149.6,569.4,168z"/>
	<g>
		<path d="M104.2,200.2v-4.8c6.9-1.2,7.4-2.9,5.6-9c-1.2-4.2-2.9-10-4.6-15.6H82.8c-1.3,4.3-2.8,9.3-4.2,14.8
			c-1.6,6.6-1.4,8.6,7.1,9.8v4.8h-26l0.1-4.8c7.7-1.1,9.1-2.6,12.9-14.3L96.5,110l5.9-1.8c7.4,24.2,14.6,48.3,22.2,72.1
			c4,12.2,5.5,14,12.8,15.1v4.8H104.2z M94.3,133.5H94c-3.3,10.1-6.2,20.1-9.2,29.9h18.1L94.3,133.5z"/>
		<path d="M175.4,157.8c-2-5.5-5.4-11.9-13-11.9c-5.2,0-9,3.7-9,8.6c0,4.8,3.3,7.6,11.5,11.4c9.8,4.4,16.4,9.3,16.4,17.9
			c0,9.9-9,17.7-22.6,17.7c-3.3,0-6.6-0.4-9.4-1.2c-2.6-0.7-4.4-1.4-5.7-1.9c-0.8-2.2-2-9.5-2.7-14.8l3.3-1
			c1.9,5.6,7.3,15.3,16.3,15.3c5.7,0,9.3-3.7,9.3-9.1c0-5.1-4.1-8.4-11.1-11.8c-9.6-4.5-16.2-9.2-16.2-17.6
			c0-9.6,8.1-17.1,21.3-17.1c5.9,0,11.2,1.7,12.9,2.4c0.4,3.2,1,7.1,1.8,12.5L175.4,157.8z"/>
		<path d="M288.4,146.1c-4.4,0.3-6.5,2.1-6.9,5.3c-0.4,2.8-0.7,6.1-0.7,12.4v9.7c0,9.5-1.3,17-5.8,22.4c-3.7,4.3-9.2,6.5-15,6.5
			c-5.3,0-10.4-1.3-14.3-4.6c-4.6-3.9-6.7-10.5-6.7-21v-21c0-8.4-0.8-9-6.8-9.7v-3.1h24.3v3.1c-5.9,0.6-6.7,1.3-6.7,9.7v19.4
			c0,13.4,4.4,21.2,13.1,21.2c9.6,0,13.8-8,13.8-23v-9.6c0-6.3-0.4-9.7-0.8-12.4c-0.4-3.1-2.3-4.9-7.8-5.3v-3.1h20.3V146.1z"/>
		<path d="M342.1,200.5c-24.3,0-18.2,0.5-21.5-8.5c-1.6-4.2-1.8-8.2-4.3-12.8c-1.5-2.7-3.1-3.7-5.9-3.8h-1.7v12.7
			c0,6.6,0.8,7.8,6.2,8.5c0.8,0.1,1.4,0.8,1.4,1.6v0c0,0.9-0.7,1.6-1.6,1.6h-23.9c-0.9,0-1.6-0.7-1.6-1.6v0c0-0.8,0.6-1.5,1.4-1.6
			c5.2-0.6,4.4-1.9,4.4-8.5v-33.5c0-6.4,0.9-7.7-4-8.3c-0.8-0.1-1.4-0.8-1.4-1.6v0c0-0.9,0.7-1.6,1.6-1.6h23.6
			c7.8,0,13.1,0.2,16.7,2.7c3.6,2.3,6.2,6.8,6.2,12.2c0,7.7-3.3,11.8-9.3,14.2c1.3,2.5-2.2-3.5,2.4,3.2c3.3,4.7,4.9,15.2,6.7,17.1
			c1.7,1.8,3.4,2.5,5.2,3.1c0.5,0.2,0.9,0.6,1,1.1C344.1,198.1,344.4,200.5,342.1,200.5z M311.1,172.1c3.8,0,6.8-0.6,8.8-2.4
			c3.1-2.4,4.3-5.9,4.3-10.4c0-9.2-5.6-12.6-10.6-12.6c-2.2,0-3.5,0.3-4,0.9c-0.6,0.5-0.8,1.4-0.8,3.2v19.7c0,0.9,0.7,1.6,1.6,1.6
			H311.1z"/>
		<path d="M346.3,197c6.9-0.6,7.7-1.6,7.7-8.4v-33.4c0-6.9-0.9-7.9-7.7-8.5c-0.8-0.1-0.7-3.2,0.1-3.2h30c0.9,0,0.9,3.1,0.1,3.2
			c-6.9,0.6-7.7,1.6-7.7,8.5v33.4c0,6.9,0.9,7.8,7.7,8.4c0.8,0.1,0.7,3.2-0.1,3.2h-30C345.6,200.2,345.5,197.1,346.3,197z"/>
		<path d="M403.7,199L403.7,199c0-1.2,1-2.4,2.2-2.6c3.1-0.6,3.8-1,2.8-4.1c-0.8-2.6-1-4.3-2.3-7.9h-14.9c-0.9,2.7-0.7,2.3-1.6,5.7
			c-1,3.8-1,5.4,3.5,6.2c0.8,0.1,1.6,1.9,1.6,2.7l0,0c0.2,1.5-1.4,1.6-2.3,1.6h-14.8c-0.9,0-1-3.1-0.3-3.2c4.2-0.7,5.2-2.1,7.7-8.8
			l12-43.4c0.6-2.2,2.6-3.8,5-3.8l4.4-0.1c1.5,0,2.8,0.9,3.2,2.3c4.7,14.6,8,30.2,13,44.4c2.5,6.9,2.4,8.5,6,9.3
			c0.8,0.2,1.3,0.8,1.3,1.6v0c0,0.9-0.7,1.6-1.6,1.6h-23.3C404.5,200.7,403.7,199.9,403.7,199z M399.6,159.4l-0.7,0.1
			c-2.3,6.4-3.1,11.9-5.2,18.1h10.9L399.6,159.4z"/>
		<path d="M489,144.8c0,0.8-0.6,1.5-1.4,1.6c-3.3,0.4-4.7,1.7-5.1,5.3c-0.2,2.7-0.7,47.5-0.7,47.5c0,0.9-0.7,1.6-1.6,1.6h-7.8
			c-0.6,0-1.1-0.3-1.4-0.8l-24.6-44l-0.3,0.3v19.6c0,7.7,0.4,11.5,0.6,14.1c0.4,3.5-0.1,6.1,4.4,6.7c0.8,0.1,1.4,0.8,1.4,1.6v0
			c0,0.9-0.7,1.6-1.6,1.6h-16.7c-0.9,0-1.6-0.7-1.6-1.6v-0.1c0-0.8,0.6-1.4,1.4-1.6c3.6-0.5,5.1-2,5.4-5.3c0.3-2.9,0.8-6.7,0.8-14.4
			v-18.2c0-5.7,1-7-0.5-9.1c-1.2-1.7-1.7-0.8-3.4-0.9c-0.8-0.1-1.6-1.8-1.6-2.7v-1.3c0-0.9,0.7-1.6,1.6-1.6h21.1
			c0.6,0,1.1,0.3,1.4,0.8l17.3,30.9l0,0c0,0,0.6-20.2,0.4-22.7c-0.4-3.4-1-5.3-5.7-5.8c-0.8-0.1-1.4-0.8-1.4-1.6v0
			c0-0.9,0.7-1.6,1.6-1.6h16.6C488.3,143.1,489,143.8,489,144.8L489,144.8z"/>
		<path d="M230.1,143.3c0-0.8-0.8-1.5-1.6-1.5h-0.4c-0.4,0-0.8,0.2-1.1,0.4c-1.7,1.4-3.2,1.8-5.9,1.8h-3.4H214h-16.1h-5.3h-1.4
			c-2.8,0-4.2-0.1-5.8-1.7c-0.3-0.3-0.8-0.5-1.2-0.5h-0.3c-0.9,0-1.6,0.6-1.6,1.5c-0.2,3.9-0.7,9-1.1,14.2c-0.1,0.9,0.7,1.7,1.6,1.7
			h1c0.7,0,1.3-0.5,1.6-1.1c1.3-3.8,2.6-6.4,4.2-7.8c1.3-1.1,2.8-1.9,7.6-2.2c0.6,0.2,1,0.8,1,1.4v40.1c0,7.1-1,7.9-8.7,8.5
			c-0.9,0.1-1.5,0.8-1.5,1.6v0c0,0.9,0.7,1.6,1.7,1.6h32.3c0.9,0,1.7-0.7,1.7-1.6v0c0-0.8-0.7-1.5-1.5-1.6c-8.2-0.6-9.2-1.5-9.2-8.5
			v-40.1c0-0.8,0.6-1.4,1.4-1.5c4.5,0.1,6.8,0.7,8.3,2.1c1.8,1.4,3.2,4,4.4,7.9c0.2,0.7,0.9,1.2,1.7,1.1l0.9,0
			c0.9,0,1.6-0.8,1.6-1.7C230.7,152.6,230.3,146.9,230.1,143.3z"/>
		<path d="M511.6,199L511.6,199c0-1.2,1-2.4,2.2-2.6c3.1-0.6,3.8-1,2.8-4.1c-0.8-2.6-1-4.3-2.3-7.9h-14.9c-0.9,2.7-0.7,2.3-1.6,5.7
			c-1,3.8-1,5.4,3.5,6.2c0.8,0.1,1.6,1.9,1.6,2.7l0,0c0.2,1.5-1.4,1.6-2.3,1.6h-14.8c-0.9,0-1-3.1-0.3-3.2c4.2-0.7,5.2-2.1,7.7-8.8
			l12-43.4c0.6-2.2,2.6-3.8,5-3.8l4.4-0.1c1.5,0,2.8,0.9,3.2,2.3c4.7,14.6,8,30.2,13,44.4c2.5,6.9,2.4,8.5,6,9.3
			c0.8,0.2,1.3,0.8,1.3,1.6v0c0,0.9-0.7,1.6-1.6,1.6h-23.3C512.4,200.7,511.6,199.9,511.6,199z M507.5,159.4l-0.7,0.1
			c-2.3,6.4-3.1,11.9-5.2,18.1h10.9L507.5,159.4z"/>
		<g>
			<path d="M159.4,123.6c-1.7,0-3.2-0.3-4.4-0.8c-1.3-0.5-2.3-1.2-3.2-2.1c-0.8-0.9-1.5-1.9-1.9-3.1c-0.4-1.2-0.6-2.5-0.6-3.9
				c0-1.1,0.2-2.3,0.6-3.5c0.4-1.2,1-2.2,1.9-3.2c0.8-0.9,1.9-1.7,3.2-2.3c1.3-0.6,2.7-0.9,4.4-0.9c0.7,0,1.3,0,1.8,0
				c0.6,0,1.1,0.1,1.6,0.1c0.5,0.1,1,0.2,1.5,0.3c0.5,0.1,1,0.2,1.5,0.4c0,0.5,0.1,1.2,0.2,1.9c0.1,0.8,0.3,1.5,0.5,2.3
				c-0.2,0.1-0.3,0.1-0.5,0.1c-0.2,0-0.3,0-0.4-0.1c-0.1,0-0.2-0.1-0.3-0.3c-0.4-1.3-0.9-2.2-1.7-2.7c-0.8-0.5-1.9-0.8-3.4-0.8
				c-1.2,0-2.3,0.2-3.3,0.6c-1,0.4-1.8,0.9-2.4,1.6c-0.7,0.7-1.1,1.5-1.5,2.5c-0.3,1-0.5,2.1-0.5,3.3c0,1.3,0.2,2.6,0.6,3.7
				c0.4,1.1,1,2.1,1.7,2.9c0.7,0.8,1.5,1.5,2.5,1.9c1,0.4,2,0.7,3.1,0.7c0.9,0,1.6-0.1,2.2-0.2c0.6-0.2,1.1-0.4,1.5-0.7
				c0.4-0.3,0.7-0.7,1-1.2c0.3-0.5,0.5-1,0.8-1.6c0.1-0.3,0.4-0.4,0.7-0.4c0.1,0,0.2,0,0.3,0c0.1,0,0.2,0.1,0.3,0.1
				c-0.2,0.7-0.5,1.4-0.7,2.3c-0.2,0.8-0.4,1.6-0.6,2.5c-1,0.2-2,0.3-3,0.4C161.8,123.6,160.7,123.6,159.4,123.6z"/>
			<path d="M181.2,105.5v7.5h4.7c0.4,0,0.7-0.2,0.9-0.6c0.2-0.4,0.3-0.8,0.4-1.4c0.1-0.3,0.2-0.4,0.5-0.4c0.1,0,0.1,0,0.2,0
				c0.1,0,0.2,0,0.2,0.1c0,0.4-0.1,0.9-0.1,1.5c0,0.5,0,1,0,1.4c0,0.3,0,0.7,0,1.2c0,0.5,0.1,1,0.1,1.6c-0.2,0-0.3,0.1-0.5,0.1
				c-0.3,0-0.5-0.1-0.6-0.4c-0.1-0.5-0.2-1-0.4-1.4c-0.2-0.4-0.5-0.6-0.9-0.6h-4.7v6.9c0,0.4,0.3,0.7,0.8,0.8s1.4,0.2,2.7,0.2h1.7
				c0.6,0,1.1-0.1,1.5-0.2c0.4-0.2,0.8-0.4,1.1-0.7c0.3-0.3,0.6-0.6,0.9-1c0.3-0.4,0.5-0.8,0.8-1.3c0.1-0.1,0.2-0.2,0.5-0.2
				c0.1,0,0.2,0,0.3,0.1c0.1,0.1,0.2,0.1,0.3,0.2c-0.2,0.4-0.3,0.8-0.5,1.3c-0.1,0.5-0.3,1-0.4,1.5c-0.1,0.5-0.2,0.9-0.4,1.2
				c-0.1,0.3-0.3,0.5-0.5,0.5c-0.2,0-0.4,0-0.7,0c-0.3,0-0.6,0-1,0c-0.4,0-0.7,0-1.1,0c-0.4,0-0.7,0-0.9,0h-6.6c-0.6,0-1.2,0-1.9,0
				c-0.7,0-1.3,0.1-1.9,0.1c0-0.2-0.1-0.4-0.1-0.5c0-0.3,0.1-0.4,0.3-0.5c0.8-0.1,1.3-0.3,1.6-0.4c0.3-0.2,0.5-0.4,0.5-0.8v-14.9
				c0-0.4-0.1-0.7-0.4-0.8c-0.3-0.1-0.9-0.3-1.7-0.5c-0.2,0-0.3-0.2-0.3-0.5c0-0.1,0-0.2,0-0.2c0-0.1,0-0.1,0-0.2
				c0.9,0.1,1.6,0.1,2.2,0.1c0.6,0,1.1,0,1.6,0h5.9c0.9,0,1.7,0,2.4-0.1c0.7-0.1,1.1-0.1,1.3-0.1c0.3,0,0.4,0.2,0.5,0.5
				c0.1,0.3,0.2,0.7,0.2,1.2c0.1,0.4,0.1,0.9,0.2,1.4c0.1,0.5,0.2,0.9,0.5,1.3c-0.2,0.1-0.3,0.2-0.5,0.2c-0.3,0-0.4-0.1-0.5-0.3
				c-0.2-0.5-0.5-0.9-0.7-1.3c-0.2-0.4-0.5-0.7-0.8-0.9c-0.3-0.2-0.6-0.4-1.1-0.5c-0.4-0.1-0.9-0.2-1.5-0.2H181.2z"/>
			<path d="M216.1,118.6v-12.2c0-0.4-0.2-0.7-0.5-0.9c-0.3-0.2-0.9-0.3-1.6-0.4c-0.2,0-0.3-0.2-0.3-0.5c0-0.1,0-0.3,0.1-0.5
				c0.5,0,1,0.1,1.5,0.1c0.5,0,1,0,1.5,0c0.4,0,0.9,0,1.4,0c0.5,0,1-0.1,1.4-0.1c0,0.2,0.1,0.4,0.1,0.5c0,0.3-0.1,0.5-0.3,0.5
				c-0.7,0.1-1.2,0.2-1.4,0.4c-0.3,0.2-0.4,0.5-0.4,0.8v17.2c0,0-0.1,0-0.2,0c-0.1,0-0.2,0-0.2,0c-0.1,0-0.3,0-0.4-0.1
				c-0.1-0.1-0.3-0.2-0.4-0.4L204,107.4v13.8c0,0.4,0.1,0.7,0.4,0.8c0.3,0.2,0.8,0.3,1.6,0.4c0.2,0,0.3,0.2,0.3,0.5
				c0,0.1,0,0.3-0.1,0.5c-0.5,0-1-0.1-1.5-0.1c-0.5,0-1,0-1.4,0c-0.4,0-0.9,0-1.4,0c-0.5,0-1,0.1-1.5,0.1c0-0.2-0.1-0.4-0.1-0.5
				c0-0.3,0.1-0.4,0.3-0.5c0.7-0.1,1.2-0.3,1.5-0.4c0.3-0.2,0.4-0.4,0.4-0.8v-15c0-0.3-0.1-0.5-0.3-0.7s-0.7-0.3-1.4-0.4
				c-0.2,0-0.3-0.2-0.3-0.5c0-0.1,0-0.2,0-0.3c0-0.1,0-0.1,0-0.2c0.4,0,0.8,0.1,1.1,0.1c0.3,0,0.7,0,1,0c0.4,0,0.7,0,1,0
				c0.6,0,1,0,1.2,0.1c0.2,0,0.3,0.1,0.5,0.3L216.1,118.6z"/>
			<path d="M238.4,105.5v15.6c0,0.4,0.2,0.8,0.6,1c0.4,0.2,1,0.3,1.9,0.4c0.2,0,0.3,0.2,0.3,0.5c0,0.1,0,0.3-0.1,0.5
				c-0.6,0-1.3-0.1-2-0.1c-0.7,0-1.4,0-2.2,0c-0.7,0-1.4,0-2.2,0s-1.4,0.1-2.1,0.1c0-0.2-0.1-0.4-0.1-0.5c0-0.3,0.1-0.4,0.3-0.5
				c0.9-0.1,1.6-0.3,2-0.4s0.6-0.5,0.6-0.9v-15.6h-3.1c-0.6,0-1.1,0.1-1.5,0.2c-0.4,0.1-0.8,0.3-1.1,0.5c-0.3,0.2-0.6,0.5-0.8,0.9
				c-0.2,0.4-0.5,0.8-0.7,1.3c0,0.1-0.1,0.2-0.2,0.2c-0.1,0-0.2,0.1-0.3,0.1c-0.2,0-0.4-0.1-0.6-0.2c0.2-0.7,0.4-1.3,0.5-1.9
				c0.1-0.5,0.2-1,0.3-1.4c0.1-0.4,0.2-0.6,0.3-0.8c0.1-0.2,0.2-0.3,0.4-0.3c0.1,0,0.3,0,0.6,0c0.3,0,0.5,0,0.8,0.1
				c0.3,0,0.6,0,0.9,0.1c0.3,0,0.6,0,0.8,0H242c0.2,0,0.5,0,0.8,0c0.3,0,0.6,0,0.9-0.1c0.3,0,0.6,0,0.8-0.1c0.3,0,0.5,0,0.6,0
				c0.2,0,0.3,0.1,0.4,0.3c0.1,0.2,0.2,0.5,0.3,0.9c0.1,0.4,0.2,0.8,0.3,1.4c0.1,0.5,0.2,1.2,0.5,1.8c-0.1,0-0.2,0.1-0.3,0.1
				c-0.1,0-0.2,0.1-0.3,0.1c-0.1,0-0.2,0-0.3-0.1c-0.1,0-0.2-0.1-0.2-0.2c-0.2-0.5-0.4-0.9-0.7-1.3c-0.2-0.4-0.5-0.7-0.8-0.9
				c-0.3-0.2-0.6-0.4-1.1-0.5c-0.4-0.1-0.9-0.2-1.5-0.2H238.4z"/>
			<path d="M262,114.7h-2.2v6.4c0,0.4,0.2,0.7,0.6,0.9c0.4,0.2,1,0.3,1.9,0.4c0.2,0,0.4,0.2,0.4,0.5c0,0.1,0,0.3-0.1,0.5
				c-0.5,0-1.2-0.1-2-0.1c-0.8,0-1.5,0-2.3,0c-0.5,0-1.1,0-1.8,0s-1.3,0.1-1.9,0.1c0-0.2-0.1-0.4-0.1-0.5c0-0.3,0.1-0.4,0.3-0.5
				c0.8-0.1,1.3-0.3,1.6-0.4c0.3-0.2,0.5-0.4,0.5-0.8v-14.9c0-0.4-0.1-0.6-0.4-0.8c-0.3-0.2-0.9-0.3-1.7-0.4c-0.2,0-0.3-0.2-0.3-0.5
				c0-0.1,0-0.3,0.1-0.5c0.6,0,1.2,0.1,1.9,0.1s1.3,0,1.8,0h4.1c2.2,0,3.8,0.5,4.9,1.4c1.1,0.9,1.7,2.2,1.7,3.8
				c0,0.4-0.1,0.9-0.2,1.3c-0.2,0.5-0.4,0.9-0.7,1.4c-0.3,0.4-0.7,0.9-1.2,1.2c-0.5,0.4-1.1,0.7-1.7,0.9l5,6.8
				c0.4,0.5,0.8,0.9,1.3,1.1c0.5,0.2,0.9,0.3,1.3,0.4c0.2,0,0.3,0.2,0.3,0.4c0,0.2,0,0.3-0.1,0.5c-0.5,0-1-0.1-1.7-0.1
				c-0.7,0-1.3,0-1.8,0c-0.4,0-0.8-0.2-1.3-0.5c-0.4-0.4-0.8-0.8-1.2-1.3L262,114.7z M261.3,113.5c1.4,0,2.5-0.3,3.3-0.9
				c0.8-0.6,1.1-1.6,1.1-3c0-0.6-0.1-1.2-0.2-1.7c-0.2-0.5-0.4-0.9-0.8-1.3c-0.4-0.4-0.8-0.7-1.4-0.9c-0.6-0.2-1.3-0.3-2.1-0.3h-1.5
				v8.1H261.3z"/>
			<path d="M291.9,116.3h-6.7l-1.9,4.7c-0.1,0.2-0.2,0.4-0.2,0.6c0,0.4,0.6,0.7,1.8,0.9c0.1,0,0.2,0.1,0.3,0.2s0.1,0.2,0.1,0.3
				c0,0.1,0,0.3-0.1,0.5c-0.5,0-1.1-0.1-1.7-0.1c-0.6,0-1.2,0-1.8,0c-0.4,0-0.8,0-1.2,0c-0.4,0-0.9,0.1-1.3,0.1
				c0-0.2-0.1-0.3-0.1-0.5c0-0.1,0-0.3,0.1-0.4c0-0.1,0.2-0.2,0.3-0.2c0.6-0.1,1.1-0.2,1.4-0.4c0.3-0.1,0.5-0.4,0.7-0.7l7.3-17
				c0.1-0.3,0.3-0.5,0.6-0.5c0.1,0,0.2,0,0.4,0.1l7.3,17.5c0.1,0.3,0.4,0.5,0.8,0.6c0.4,0.2,0.8,0.3,1.2,0.3c0.1,0,0.2,0.1,0.3,0.2
				c0.1,0.1,0.1,0.2,0.1,0.4c0,0.1,0,0.3-0.1,0.5c-0.6,0-1.3-0.1-1.9-0.1c-0.6,0-1.2,0-1.7,0c-0.6,0-1.2,0-1.9,0s-1.4,0.1-2,0.1
				c0-0.2-0.1-0.4-0.1-0.5c0-0.2,0-0.3,0.1-0.4c0.1-0.1,0.1-0.1,0.2-0.1c0.5-0.1,0.9-0.2,1.3-0.3c0.3-0.1,0.5-0.3,0.5-0.6
				c0-0.1,0-0.3-0.1-0.4L291.9,116.3z M291.4,115.1l-2.8-7.2l-2.9,7.2H291.4z"/>
			<path d="M312.7,121.2c0,0.3,0.2,0.6,0.5,0.7c0.3,0.1,0.7,0.2,1.2,0.2h3.3c0.6,0,1.1-0.1,1.5-0.2c0.4-0.1,0.8-0.4,1.1-0.6
				c0.3-0.3,0.6-0.6,0.8-1c0.2-0.4,0.4-0.9,0.6-1.4c0.1-0.2,0.2-0.2,0.4-0.2c0.1,0,0.2,0,0.3,0.1c0.1,0,0.2,0.1,0.3,0.2
				c-0.1,0.6-0.3,1.2-0.4,1.9c-0.1,0.7-0.2,1.4-0.3,2.2c0,0.2-0.1,0.4-0.2,0.4c-0.1,0.1-0.2,0.1-0.4,0.1c-0.3,0-0.8,0-1.3-0.1
				c-0.5,0-1-0.1-1.3-0.1h-7.5c-0.5,0-1,0-1.7,0c-0.7,0-1.4,0.1-2,0.1c0-0.2-0.1-0.4-0.1-0.5c0-0.3,0.1-0.4,0.3-0.5
				c0.8-0.1,1.4-0.3,1.7-0.5c0.3-0.2,0.5-0.4,0.5-0.8v-14.9c0-0.4-0.1-0.7-0.4-0.8c-0.3-0.2-0.8-0.3-1.6-0.4c-0.1,0-0.2-0.1-0.2-0.2
				c-0.1-0.1-0.1-0.2-0.1-0.3c0-0.1,0-0.3,0.1-0.5c0.7,0,1.4,0.1,2,0.1c0.7,0,1.2,0,1.7,0c0.7,0,1.4,0,2.2,0s1.4-0.1,2.1-0.1
				c0,0.2,0.1,0.4,0.1,0.5c0,0.3-0.1,0.5-0.3,0.5c-0.9,0.1-1.5,0.2-1.9,0.4c-0.4,0.2-0.6,0.5-0.6,1V121.2z"/>
		</g>
		<g>
			<g>
				<path d="M348.3,121.2c0,0.3,0.2,0.6,0.5,0.7c0.3,0.1,0.7,0.2,1.3,0.2h3.4c0.6,0,1.1-0.1,1.5-0.2c0.4-0.1,0.8-0.4,1.1-0.6
					c0.3-0.3,0.6-0.6,0.8-1c0.2-0.4,0.4-0.9,0.6-1.4c0.1-0.2,0.2-0.2,0.4-0.2c0.1,0,0.2,0,0.3,0.1c0.1,0,0.2,0.1,0.4,0.2
					c-0.1,0.6-0.3,1.2-0.4,1.9c-0.1,0.7-0.3,1.4-0.4,2.2c0,0.2-0.1,0.4-0.2,0.4c-0.1,0.1-0.2,0.1-0.4,0.1c-0.3,0-0.8,0-1.3-0.1
					c-0.5,0-1-0.1-1.4-0.1h-7.7c-0.5,0-1.1,0-1.8,0s-1.4,0.1-2.1,0.1c0-0.2-0.1-0.4-0.1-0.5c0-0.3,0.1-0.4,0.3-0.5
					c0.8-0.1,1.4-0.3,1.7-0.5c0.3-0.2,0.5-0.4,0.5-0.8v-14.9c0-0.4-0.1-0.7-0.4-0.8c-0.3-0.2-0.8-0.3-1.7-0.4
					c-0.1,0-0.2-0.1-0.2-0.2c-0.1-0.1-0.1-0.2-0.1-0.3c0-0.1,0-0.3,0.1-0.5c0.7,0,1.4,0.1,2.1,0.1c0.7,0,1.3,0,1.7,0
					c0.7,0,1.4,0,2.2,0c0.8,0,1.5-0.1,2.1-0.1c0,0.2,0.1,0.4,0.1,0.5c0,0.3-0.1,0.5-0.3,0.5c-0.9,0.1-1.5,0.2-2,0.4
					c-0.4,0.2-0.6,0.5-0.6,1V121.2z"/>
				<path d="M371.9,105.5v7.5h4.8c0.4,0,0.7-0.2,0.9-0.6c0.2-0.4,0.3-0.8,0.4-1.4c0.1-0.3,0.2-0.4,0.6-0.4c0.1,0,0.1,0,0.2,0
					c0.1,0,0.2,0,0.2,0.1c0,0.4-0.1,0.9-0.1,1.5c0,0.5,0,1,0,1.4c0,0.3,0,0.7,0,1.2c0,0.5,0.1,1,0.1,1.6c-0.2,0-0.3,0.1-0.5,0.1
					c-0.3,0-0.5-0.1-0.6-0.4c-0.1-0.5-0.2-1-0.4-1.4c-0.2-0.4-0.5-0.6-0.9-0.6h-4.8v6.9c0,0.4,0.3,0.7,0.8,0.8
					c0.6,0.1,1.5,0.2,2.7,0.2h1.7c0.6,0,1.1-0.1,1.6-0.2c0.4-0.2,0.8-0.4,1.2-0.7c0.3-0.3,0.6-0.6,0.9-1c0.3-0.4,0.5-0.8,0.8-1.3
					c0.1-0.1,0.2-0.2,0.5-0.2c0.1,0,0.2,0,0.3,0.1c0.1,0.1,0.2,0.1,0.3,0.2c-0.2,0.4-0.3,0.8-0.5,1.3c-0.1,0.5-0.3,1-0.4,1.5
					c-0.1,0.5-0.3,0.9-0.4,1.2c-0.1,0.3-0.3,0.5-0.5,0.5c-0.2,0-0.4,0-0.7,0c-0.3,0-0.6,0-1,0c-0.4,0-0.7,0-1.1,0c-0.4,0-0.7,0-1,0
					h-6.7c-0.6,0-1.2,0-1.9,0c-0.7,0-1.3,0.1-1.9,0.1c0-0.2-0.1-0.4-0.1-0.5c0-0.3,0.1-0.4,0.3-0.5c0.8-0.1,1.3-0.3,1.7-0.4
					c0.3-0.2,0.5-0.4,0.5-0.8v-14.9c0-0.4-0.1-0.7-0.4-0.8c-0.3-0.1-0.9-0.3-1.7-0.5c-0.2,0-0.3-0.2-0.3-0.5c0-0.1,0-0.2,0-0.2
					c0-0.1,0-0.1,0-0.2c0.9,0.1,1.6,0.1,2.2,0.1c0.6,0,1.1,0,1.6,0h6.1c0.9,0,1.7,0,2.4-0.1s1.1-0.1,1.4-0.1c0.3,0,0.4,0.2,0.5,0.5
					c0.1,0.3,0.2,0.7,0.2,1.2c0.1,0.4,0.1,0.9,0.2,1.4c0.1,0.5,0.2,0.9,0.5,1.3c-0.2,0.1-0.3,0.2-0.6,0.2c-0.3,0-0.4-0.1-0.5-0.3
					c-0.2-0.5-0.5-0.9-0.7-1.3c-0.2-0.4-0.5-0.7-0.8-0.9c-0.3-0.2-0.7-0.4-1.1-0.5c-0.4-0.1-0.9-0.2-1.6-0.2H371.9z"/>
				<path d="M401.9,123.6c-1.7,0-3.2-0.3-4.5-0.8s-2.4-1.2-3.2-2.1c-0.9-0.9-1.5-1.9-1.9-3.1c-0.4-1.2-0.6-2.5-0.6-3.9
					c0-1.1,0.2-2.3,0.6-3.5c0.4-1.2,1.1-2.2,1.9-3.2c0.9-0.9,1.9-1.7,3.2-2.3c1.3-0.6,2.8-0.9,4.5-0.9c0.7,0,1.3,0,1.9,0
					c0.6,0,1.1,0.1,1.6,0.1c0.5,0.1,1,0.2,1.5,0.3c0.5,0.1,1,0.2,1.5,0.4c0,0.5,0.1,1.2,0.2,1.9c0.1,0.8,0.3,1.5,0.5,2.3
					c-0.2,0.1-0.3,0.1-0.5,0.1s-0.3,0-0.4-0.1c-0.1,0-0.2-0.1-0.3-0.3c-0.4-1.3-1-2.2-1.8-2.7c-0.8-0.5-2-0.8-3.5-0.8
					c-1.3,0-2.4,0.2-3.4,0.6c-1,0.4-1.8,0.9-2.5,1.6c-0.7,0.7-1.2,1.5-1.5,2.5c-0.3,1-0.5,2.1-0.5,3.3c0,1.3,0.2,2.6,0.6,3.7
					c0.4,1.1,1,2.1,1.7,2.9c0.7,0.8,1.6,1.5,2.6,1.9c1,0.4,2,0.7,3.1,0.7c0.9,0,1.6-0.1,2.2-0.2c0.6-0.2,1.1-0.4,1.5-0.7
					c0.4-0.3,0.7-0.7,1-1.2c0.3-0.5,0.5-1,0.8-1.6c0.1-0.3,0.4-0.4,0.7-0.4c0.1,0,0.2,0,0.3,0c0.1,0,0.2,0.1,0.3,0.1
					c-0.2,0.7-0.5,1.4-0.7,2.3c-0.2,0.8-0.5,1.6-0.6,2.5c-1,0.2-2,0.3-3.1,0.4C404.3,123.6,403.1,123.6,401.9,123.6z"/>
				<path d="M436.5,121.2c0,0.4,0.1,0.7,0.4,0.8c0.3,0.1,0.8,0.3,1.6,0.5c0.2,0,0.3,0.2,0.3,0.4c0,0.2,0,0.3-0.1,0.5
					c-0.5,0-1.1-0.1-1.8-0.1c-0.7,0-1.3,0-1.9,0c-0.6,0-1.2,0-1.8,0s-1.3,0.1-1.9,0.1c0-0.2-0.1-0.4-0.1-0.5c0-0.2,0.1-0.4,0.3-0.4
					c0.8-0.1,1.3-0.3,1.6-0.4c0.3-0.2,0.4-0.4,0.4-0.8v-7.1h-9.7v7.1c0,0.4,0.1,0.7,0.4,0.8s0.8,0.3,1.6,0.5c0.2,0,0.3,0.2,0.3,0.4
					c0,0.2,0,0.3-0.1,0.5c-0.5,0-1.1-0.1-1.8-0.1c-0.7,0-1.3,0-1.9,0c-0.6,0-1.2,0-1.8,0c-0.6,0-1.3,0.1-1.9,0.1
					c0-0.2-0.1-0.4-0.1-0.5c0-0.2,0.1-0.4,0.3-0.4c0.8-0.1,1.3-0.3,1.6-0.4c0.3-0.2,0.4-0.4,0.4-0.8v-14.9c0-0.2,0-0.4-0.1-0.5
					c-0.1-0.1-0.1-0.2-0.3-0.3c-0.1-0.1-0.3-0.2-0.6-0.2c-0.3-0.1-0.6-0.1-1-0.2c-0.2,0-0.3-0.2-0.3-0.5c0-0.1,0-0.3,0.1-0.5
					c0.5,0,1.1,0.1,1.8,0.1c0.7,0,1.3,0,1.8,0c0.6,0,1.2,0,1.8,0c0.6,0,1.3-0.1,1.9-0.1c0,0.2,0.1,0.4,0.1,0.5
					c0,0.3-0.1,0.4-0.3,0.5c-0.8,0.1-1.3,0.3-1.6,0.4c-0.3,0.2-0.4,0.5-0.4,0.8v6.5h9.7v-6.5c0-0.3-0.1-0.6-0.4-0.8
					c-0.2-0.2-0.8-0.4-1.6-0.5c-0.2,0-0.3-0.2-0.3-0.5c0-0.1,0-0.3,0.1-0.5c0.5,0,1.1,0.1,1.8,0.1c0.7,0,1.3,0,1.8,0
					c0.6,0,1.2,0,1.8,0c0.6,0,1.3-0.1,1.9-0.1c0,0.2,0.1,0.4,0.1,0.5c0,0.3-0.1,0.4-0.3,0.5c-0.8,0.1-1.3,0.3-1.6,0.4
					c-0.3,0.2-0.4,0.5-0.4,0.8V121.2z"/>
				<path d="M453.5,105.5v7.5h4.8c0.4,0,0.7-0.2,0.9-0.6c0.2-0.4,0.3-0.8,0.4-1.4c0.1-0.3,0.2-0.4,0.6-0.4c0.1,0,0.1,0,0.2,0
					c0.1,0,0.2,0,0.2,0.1c0,0.4-0.1,0.9-0.1,1.5c0,0.5,0,1,0,1.4c0,0.3,0,0.7,0,1.2c0,0.5,0.1,1,0.1,1.6c-0.2,0-0.3,0.1-0.5,0.1
					c-0.3,0-0.5-0.1-0.6-0.4c-0.1-0.5-0.2-1-0.4-1.4c-0.2-0.4-0.5-0.6-0.9-0.6h-4.8v6.9c0,0.4,0.3,0.7,0.8,0.8
					c0.6,0.1,1.5,0.2,2.7,0.2h1.7c0.6,0,1.1-0.1,1.6-0.2c0.4-0.2,0.8-0.4,1.2-0.7c0.3-0.3,0.6-0.6,0.9-1c0.3-0.4,0.5-0.8,0.8-1.3
					c0.1-0.1,0.2-0.2,0.5-0.2c0.1,0,0.2,0,0.3,0.1s0.2,0.1,0.3,0.2c-0.2,0.4-0.3,0.8-0.5,1.3c-0.1,0.5-0.3,1-0.4,1.5
					c-0.1,0.5-0.3,0.9-0.4,1.2c-0.1,0.3-0.3,0.5-0.5,0.5c-0.2,0-0.4,0-0.7,0c-0.3,0-0.6,0-1,0c-0.4,0-0.7,0-1.1,0c-0.4,0-0.7,0-1,0
					H452c-0.6,0-1.2,0-1.9,0c-0.7,0-1.3,0.1-1.9,0.1c0-0.2-0.1-0.4-0.1-0.5c0-0.3,0.1-0.4,0.3-0.5c0.8-0.1,1.3-0.3,1.7-0.4
					c0.3-0.2,0.5-0.4,0.5-0.8v-14.9c0-0.4-0.1-0.7-0.4-0.8s-0.9-0.3-1.7-0.5c-0.2,0-0.3-0.2-0.3-0.5c0-0.1,0-0.2,0-0.2
					c0-0.1,0-0.1,0-0.2c0.9,0.1,1.6,0.1,2.2,0.1c0.6,0,1.1,0,1.6,0h6.1c0.9,0,1.7,0,2.4-0.1c0.7-0.1,1.1-0.1,1.4-0.1
					c0.3,0,0.4,0.2,0.5,0.5c0.1,0.3,0.2,0.7,0.2,1.2c0.1,0.4,0.1,0.9,0.2,1.4c0.1,0.5,0.2,0.9,0.5,1.3c-0.2,0.1-0.3,0.2-0.6,0.2
					c-0.3,0-0.4-0.1-0.5-0.3c-0.2-0.5-0.5-0.9-0.7-1.3c-0.2-0.4-0.5-0.7-0.8-0.9c-0.3-0.2-0.7-0.4-1.1-0.5c-0.4-0.1-0.9-0.2-1.6-0.2
					H453.5z"/>
				<path d="M480.9,114.7h-2.3v6.4c0,0.4,0.2,0.7,0.6,0.9c0.4,0.2,1.1,0.3,1.9,0.4c0.2,0,0.4,0.2,0.4,0.5c0,0.1,0,0.3-0.1,0.5
					c-0.6,0-1.2-0.1-2-0.1s-1.6,0-2.3,0c-0.5,0-1.2,0-1.8,0c-0.7,0-1.4,0.1-2,0.1c0-0.2-0.1-0.4-0.1-0.5c0-0.3,0.1-0.4,0.3-0.5
					c0.8-0.1,1.3-0.3,1.6-0.4c0.3-0.2,0.5-0.4,0.5-0.8v-14.9c0-0.4-0.1-0.6-0.4-0.8c-0.3-0.2-0.9-0.3-1.7-0.4
					c-0.2,0-0.3-0.2-0.3-0.5c0-0.1,0-0.3,0.1-0.5c0.6,0,1.3,0.1,1.9,0.1c0.7,0,1.3,0,1.9,0h4.2c2.2,0,3.9,0.5,5,1.4
					c1.1,0.9,1.7,2.2,1.7,3.8c0,0.4-0.1,0.9-0.2,1.3c-0.2,0.5-0.4,0.9-0.7,1.4c-0.3,0.4-0.7,0.9-1.2,1.2c-0.5,0.4-1.1,0.7-1.8,0.9
					l5.1,6.8c0.4,0.5,0.8,0.9,1.3,1.1s0.9,0.3,1.3,0.4c0.2,0,0.3,0.2,0.3,0.4c0,0.2,0,0.3-0.1,0.5c-0.5,0-1-0.1-1.7-0.1
					c-0.7,0-1.3,0-1.9,0c-0.4,0-0.9-0.2-1.3-0.5c-0.4-0.4-0.9-0.8-1.2-1.3L480.9,114.7z M480.2,113.5c1.4,0,2.5-0.3,3.3-0.9
					c0.8-0.6,1.2-1.6,1.2-3c0-0.6-0.1-1.2-0.2-1.7c-0.2-0.5-0.4-0.9-0.8-1.3c-0.4-0.4-0.8-0.7-1.4-0.9c-0.6-0.2-1.3-0.3-2.1-0.3
					h-1.5v8.1H480.2z"/>
				<path d="M511.4,116.3h-6.9l-2,4.7c-0.1,0.2-0.2,0.4-0.2,0.6c0,0.4,0.6,0.7,1.9,0.9c0.1,0,0.2,0.1,0.3,0.2
					c0.1,0.1,0.1,0.2,0.1,0.3c0,0.1,0,0.3-0.1,0.5c-0.6,0-1.1-0.1-1.8-0.1c-0.6,0-1.2,0-1.8,0c-0.4,0-0.8,0-1.3,0
					c-0.4,0-0.9,0.1-1.4,0.1c0-0.2-0.1-0.3-0.1-0.5c0-0.1,0-0.3,0.1-0.4c0.1-0.1,0.2-0.2,0.3-0.2c0.6-0.1,1.1-0.2,1.4-0.4
					s0.5-0.4,0.7-0.7l7.4-17c0.1-0.3,0.3-0.5,0.6-0.5c0.1,0,0.2,0,0.4,0.1l7.4,17.5c0.1,0.3,0.4,0.5,0.8,0.6
					c0.4,0.2,0.9,0.3,1.3,0.3c0.1,0,0.2,0.1,0.3,0.2c0.1,0.1,0.1,0.2,0.1,0.4c0,0.1,0,0.3-0.1,0.5c-0.7,0-1.3-0.1-1.9-0.1
					s-1.2,0-1.8,0c-0.6,0-1.2,0-2,0c-0.7,0-1.4,0.1-2,0.1c0-0.2-0.1-0.4-0.1-0.5c0-0.2,0-0.3,0.1-0.4c0.1-0.1,0.1-0.1,0.2-0.1
					c0.5-0.1,1-0.2,1.3-0.3c0.3-0.1,0.5-0.3,0.5-0.6c0-0.1,0-0.3-0.1-0.4L511.4,116.3z M510.9,115.1l-2.9-7.2l-3,7.2H510.9z"/>
			</g>
		</g>
	</g>
</g>
</svg>
