<?xml version="1.0" encoding="UTF-8" standalone="no"?>
<!-- Generator: Adobe Illustrator 18.1.1, SVG Export Plug-In . SVG Version: 6.00 Build 0)  -->

<svg
   xmlns:dc="http://purl.org/dc/elements/1.1/"
   xmlns:cc="http://creativecommons.org/ns#"
   xmlns:rdf="http://www.w3.org/1999/02/22-rdf-syntax-ns#"
   xmlns:svg="http://www.w3.org/2000/svg"
   xmlns="http://www.w3.org/2000/svg"
   xmlns:sodipodi="http://sodipodi.sourceforge.net/DTD/sodipodi-0.dtd"
   xmlns:inkscape="http://www.inkscape.org/namespaces/inkscape"
   version="1.1"
   id="Layer_1"
   x="0px"
   y="0px"
   width="600"
   height="315"
   viewBox="268 -231.8 600.00001 314.99999"
   enable-background="new 268 -231.8 1464.1 527.4"
   xml:space="preserve"
   inkscape:version="0.48.1 "
   sodipodi:docname="cervymalteria textlogo.svg"><metadata
   id="metadata3261"><rdf:RDF><cc:Work
       rdf:about=""><dc:format>image/svg+xml</dc:format><dc:type
         rdf:resource="http://purl.org/dc/dcmitype/StillImage" /><dc:title></dc:title></cc:Work></rdf:RDF></metadata><defs
   id="defs3259">
	
	
	
	
	
	
	
	
	
	
	
	
	
	
	
	
	
	
	
	
	
	
	
	
	
	
	
	
	
	
	
	
	
	
	
	
	
	
	
	
	
	
	
	
	
	
	
	
	
	
	
	
	
	
	
	
	
	
	
	
	
	
	
	
	
</defs><sodipodi:namedview
   pagecolor="#ffffff"
   bordercolor="#666666"
   borderopacity="1"
   objecttolerance="10"
   gridtolerance="10"
   guidetolerance="10"
   inkscape:pageopacity="0"
   inkscape:pageshadow="2"
   inkscape:window-width="1280"
   inkscape:window-height="657"
   id="namedview3257"
   showgrid="false"
   inkscape:zoom="1.1745409"
   inkscape:cx="395.44099"
   inkscape:cy="140.88189"
   inkscape:window-x="0"
   inkscape:window-y="0"
   inkscape:window-maximized="1"
   inkscape:current-layer="Layer_1" />
<g
   id="g3328"
   transform="matrix(0.69262436,0,0,0.69262436,65.465876,101.0003)"><path
     d="m 369.25155,-435.44849 c 4.9,1.9 9.6,4.6 14,8.4 l -11.4,13.6 c -3,-2.3 -6,-4.1 -8.9,-5.3 -2.9,-1.2 -6.1,-1.8 -9.4,-1.8 -6.8,0 -12.2,2.9 -16.2,8.6 -4,5.8 -5.9,14.7 -5.9,26.7 0,11.8 2,20.6 5.9,26.3 4,5.7 9.5,8.6 16.5,8.6 3.7,0 7.1,-0.7 10.1,-2.1 3,-1.4 6.3,-3.4 9.8,-6.1 l 10.7,13.8 c -3.8,3.8 -8.4,6.9 -13.9,9.4 -5.4,2.4 -11.4,3.7 -18,3.7 -9.4,0 -17.5,-2.1 -24.5,-6.2 -6.9,-4.1 -12.3,-10.2 -16.2,-18.2 -3.9,-8.1 -5.8,-17.8 -5.8,-29.1 0,-11 2,-20.6 5.9,-28.6 4,-8 9.4,-14.1 16.4,-18.2 7,-4.2 14.9,-6.2 23.8,-6.2 6.5,-0.1 12.1,0.8 17.1,2.7"
     id="path3127"
     inkscape:connector-curvature="0"
     style="fill:#365cd6" /><polygon
     transform="translate(-579.04845,-282.54848)"
     points="1004.8,-136 1004.8,-111.7 1036,-111.7 1036,-94.9 1004.8,-94.9 1004.8,-68.9 1043,-68.9 1043,-51.6 980.7,-51.6 980.7,-153.2 1043,-153.2 1040.5,-136 "
     id="polygon3129"
     style="fill:#365cd6" /><path
     d="m 518.75155,-373.04849 h -9.4 v 38.8 h -24 v -101.6 h 33.3 c 13.9,0 24.3,2.5 31.3,7.6 7,5.1 10.5,12.9 10.5,23.3 0,6.5 -1.6,12 -4.7,16.3 -3.1,4.3 -8.1,8 -14.8,11.1 l 25.8,43.2 h -27.1 l -20.9,-38.7 z m -9.3,-16.5 h 10.1 c 5.4,0 9.4,-1.2 12.1,-3.7 2.7,-2.4 4,-6.3 4,-11.6 0,-4.9 -1.4,-8.5 -4.3,-10.7 -2.9,-2.2 -7.3,-3.4 -13.3,-3.4 h -8.6 v 29.4 z"
     id="path3131"
     inkscape:connector-curvature="0"
     style="fill:#365cd6" /><polygon
     transform="translate(-579.04845,-282.54848)"
     points="1148.7,-153.2 1174.1,-153.2 1193.4,-70.4 1211.6,-153.2 1236.2,-153.2 1207.9,-51.6 1178,-51.6 "
     id="polygon3133"
     style="fill:#365cd6" /><polygon
     transform="translate(-579.04845,-282.54848)"
     points="1274.3,-136 1274.3,-111.7 1305.5,-111.7 1305.5,-94.9 1274.3,-94.9 1274.3,-68.9 1312.6,-68.9 1312.6,-51.6 1250.3,-51.6 1250.3,-153.2 1312.6,-153.2 1310.1,-136 "
     id="polygon3135"
     style="fill:#365cd6" /><path
     d="m 811.25155,-435.44849 c 4.9,1.9 9.6,4.6 14,8.4 l -11.4,13.6 c -3,-2.3 -6,-4.1 -8.9,-5.3 -2.9,-1.2 -6.1,-1.8 -9.4,-1.8 -6.8,0 -12.2,2.9 -16.2,8.6 -4,5.8 -5.9,14.7 -5.9,26.7 0,11.8 2,20.6 5.9,26.3 4,5.7 9.5,8.6 16.5,8.6 3.7,0 7.1,-0.7 10.1,-2.1 3,-1.4 6.3,-3.4 9.8,-6.1 l 10.7,13.8 c -3.8,3.8 -8.4,6.9 -13.9,9.4 -5.4,2.4 -11.4,3.7 -18,3.7 -9.4,0 -17.5,-2.1 -24.5,-6.2 -6.9,-4.1 -12.3,-10.2 -16.2,-18.2 -3.9,-8.1 -5.8,-17.8 -5.8,-29.1 0,-11 2,-20.6 5.9,-28.6 4,-8 9.4,-14.1 16.4,-18.2 7,-4.2 14.9,-6.2 23.8,-6.2 6.5,-0.1 12.2,0.8 17.1,2.7"
     id="path3137"
     inkscape:connector-curvature="0"
     style="fill:#365cd6" /><polygon
     transform="translate(-579.04845,-282.54848)"
     points="1446.8,-136 1446.8,-111.7 1478,-111.7 1478,-94.9 1446.8,-94.9 1446.8,-68.9 1485.1,-68.9 1485.1,-51.6 1422.8,-51.6 1422.8,-153.2 1485.1,-153.2 1482.6,-136 "
     id="polygon3139"
     style="fill:#365cd6" /><path
     d="m 960.85155,-373.04849 h -9.4 v 38.8 h -24 v -101.6 h 33.3 c 13.9,0 24.3,2.5 31.3,7.6 7,5.1 10.50005,12.9 10.50005,23.3 0,6.5 -1.6,12 -4.70005,16.3 -3.1,4.3 -8.1,8 -14.8,11.1 l 25.80005,43.2 h -27.10005 l -20.9,-38.7 z m -9.4,-16.5 h 10.1 c 5.4,0 9.4,-1.2 12.1,-3.7 2.7,-2.4 4,-6.3 4,-11.6 0,-4.9 -1.4,-8.5 -4.3,-10.7 -2.9,-2.2 -7.3,-3.4 -13.3,-3.4 h -8.6 v 29.4 z"
     id="path3141"
     inkscape:connector-curvature="0"
     style="fill:#365cd6" /><path
     d="m 1048.2516,-474.24849 8.6,17.3 -35.2,12.8 -5.9,-11.7 32.5,-18.4 z m 0.3,140.1 h -24 v -101.6 h 24 v 101.6 z"
     id="path3143"
     inkscape:connector-curvature="0"
     style="fill:#365cd6" /><path
     d="m 1127.5516,-334.14849 -5.3,-21.8 h -29.6 l -5.1,21.8 h -24.9 l 30.6,-101.6 h 29.2 l 30.6,101.6 h -25.5 z m -30.8,-39.3 h 21.4 l -10.7,-44.9 -10.7,44.9 z"
     id="path3145"
     inkscape:connector-curvature="0"
     style="fill:#365cd6" /><polygon
     transform="translate(-579.04845,-282.54848)"
     points="935.9,90.9 911.8,90.9 911.8,52.9 879.3,-10.7 905.5,-10.7 924.3,34 943.1,-10.7 968.4,-10.7 935.9,52.8 "
     id="polygon3147"
     style="fill:#365cd6" /><path
     d="m 546.65155,-191.64848 h -23.6 l -1.8,-39.7 c -0.5,-9.5 -0.7,-17.9 -0.7,-25.4 0,-5.7 0.1,-11 0.4,-16.1 l -15.7,70.5 h -22.7 l -16.7,-70.5 c 0.6,8.5 0.9,16.5 0.9,24 0,5.7 -0.1,11.6 -0.4,17.7 l -1.8,39.4 h -23.5 l 7.6,-101.6 h 30.3 l 15.2,68.9 14.2,-68.9 h 30.5 l 7.8,101.7 z"
     id="path3149"
     inkscape:connector-curvature="0"
     style="fill:#365cd6" /><path
     d="m 621.05155,-191.64848 -5.3,-21.8 h -29.6 l -5.1,21.8 h -24.9 l 30.6,-101.6 h 29.2 l 30.6,101.6 h -25.5 z m -30.7,-39.3 h 21.4 l -10.7,-44.9 -10.7,44.9 z"
     id="path3151"
     inkscape:connector-curvature="0"
     style="fill:#365cd6" /><polygon
     transform="translate(-579.04845,-282.54848)"
     points="1303.3,71.8 1300.8,90.9 1239.7,90.9 1239.7,-10.7 1263.8,-10.7 1263.8,71.8 "
     id="polygon3153"
     style="fill:#365cd6" /><polygon
     transform="translate(-579.04845,-282.54848)"
     points="1299.5,7.8 1299.5,-10.7 1377.2,-10.7 1374.9,7.8 1349.8,7.8 1349.8,90.9 1325.8,90.9 1325.8,7.8 "
     id="polygon3155"
     style="fill:#365cd6" /><polygon
     transform="translate(-579.04845,-282.54848)"
     points="1417.5,6.5 1417.5,30.8 1448.7,30.8 1448.7,47.7 1417.5,47.7 1417.5,73.6 1455.8,73.6 1455.8,90.9 1393.5,90.9 1393.5,-10.7 1455.8,-10.7 1453.3,6.5 "
     id="polygon3157"
     style="fill:#365cd6" /><path
     d="m 931.55155,-230.44848 h -9.4 v 38.8 h -24 v -101.6 h 33.3 c 13.9,0 24.3,2.5 31.3,7.6 7,5.1 10.5,12.9 10.5,23.3 0,6.5 -1.6,12 -4.7,16.3 -3.1,4.3 -8.1,8 -14.8,11.1 l 25.8,43.2 h -27.1 l -20.9,-38.7 z m -9.4,-16.6 h 10.1 c 5.4,0 9.4,-1.2 12.1,-3.7 2.7,-2.4 4,-6.3 4,-11.6 0,-4.9 -1.4,-8.5 -4.3,-10.7 -2.9,-2.2 -7.3,-3.4 -13.3,-3.4 h -8.6 v 29.4 z"
     id="path3159"
     inkscape:connector-curvature="0"
     style="fill:#365cd6" /><path
     d="m 1018.8516,-331.74849 8.6,17.30001 -35.20005,12.8 -5.9,-11.7 32.50005,-18.40001 z m 0.3,140.10001 h -24.00005 v -101.6 h 24.00005 v 101.6 z"
     id="path3161"
     inkscape:connector-curvature="0"
     style="fill:#365cd6" /><path
     d="m 1098.1516,-191.64848 -5.3,-21.8 h -29.6 l -5.1,21.8 h -24.9 l 30.6,-101.6 h 29.2 l 30.6,101.6 h -25.5 z m -30.7,-39.3 h 21.4 l -10.7,-44.9 -10.7,44.9 z"
     id="path3163"
     inkscape:connector-curvature="0"
     style="fill:#365cd6" /><path
     d="m 398.35155,-45.048488 -8.4,10.7 c -11.3,-10.1 -20.1,-13.3 -38.3,-13.3 -24.8,0 -41.9,-17.9 -41.9,-51.6 0,-33.299992 17.3,-52.499992 42.2,-52.499992 25.1,0 42.2,18.3 42.2,52.299992 0,25.4 -9.2,38.1 -23.6,45.1 11.5,0.1 20.4,3.9 27.8,9.3 m -46.4,-12.9 c 17.6,0 28.7,-12 28.7,-41.5 0,-29.499992 -11,-41.799992 -28.7,-41.799992 -17.3,0 -28.7,12.3 -28.7,41.899992 0,29.4 11.7,41.4 28.7,41.4"
     id="path3165"
     inkscape:connector-curvature="0"
     style="fill:#365cd6" /><path
     d="m 492.25155,-81.248488 c 0,19.8 -12.3,33.9 -34.9,33.9 -22.9,0 -34.6,-14.1 -34.6,-33.9 v -68.699992 h 12.6 v 67.699992 c 0,15.8 7,24 22,24 15.1,0 22,-8.2 22,-24 v -67.699992 h 12.9 v 68.699992 z"
     id="path3167"
     inkscape:connector-curvature="0"
     style="fill:#365cd6" /><rect
     x="527.55151"
     y="-149.94847"
     width="12.6"
     height="100.8"
     id="rect3169"
     style="fill:#365cd6" /><polygon
     transform="translate(-579.04845,-282.54848)"
     points="1208.8,233.4 1156,233.4 1156,132.6 1168.6,132.6 1168.6,222.3 1210.3,222.3 "
     id="polygon3171"
     style="fill:#365cd6" /><path
     d="m 743.75155,-49.148488 h -12.3 l -3.8,-46.2 c -1.5,-16.000002 -2.6,-33.299992 -2.8,-41.799992 l -22.7,76.399992 h -11.9 l -23.7,-76.499992 c -0.1,11.39999 -1,27.69999 -2.3,42.699992 l -3.5,45.4 h -12 l 8.5,-100.799992 h 17.3 l 22.1,74.599992 21.1,-74.599992 h 17.3 l 8.7,100.799992 z"
     id="path3173"
     inkscape:connector-curvature="0"
     style="fill:#365cd6" /><polygon
     transform="translate(-579.04845,-282.54848)"
     points="1366.4,176.8 1400.8,176.8 1400.8,187.1 1366.4,187.1 1366.4,223.2 1408.6,223.2 1408.6,233.4 1353.8,233.4 1353.8,132.6 1407.5,132.6 1406.1,142.8 1366.4,142.8 "
     id="polygon3175"
     style="fill:#365cd6" /><path
     d="m 912.45155,-140.14848 -6.9,7.8 c -7.6,-6.2 -14.7,-8.8 -23.2,-8.8 -10.7,0 -18.8,5.1 -18.8,14.99999 0,8.9 4.3,13.2 22.4,18.8 16.6,5 29.6,11.400002 29.6,30.300002 0,17.6 -13.2,29.8 -35.3,29.8 -14.4,0 -25.5,-4.8 -33.9,-12.9 l 7,-7.9 c 7.6,6.3 15.5,10.3 26.7,10.3 12.3,0 22.3,-6.3 22.3,-18.8 0,-10.4 -5,-15 -22.3,-20.2 -19.8,-6.000002 -29.6,-13.500002 -29.6,-28.900002 0,-15.09999 12.9,-25.89999 31.2,-25.89999 14,-0.2 22.6,3.9 30.8,11.4"
     id="path3177"
     inkscape:connector-curvature="0"
     style="fill:#365cd6" /></g>
</svg>