<?xml version="1.0" encoding="UTF-8" standalone="no"?>
<svg
   xmlns:dc="http://purl.org/dc/elements/1.1/"
   xmlns:cc="http://creativecommons.org/ns#"
   xmlns:rdf="http://www.w3.org/1999/02/22-rdf-syntax-ns#"
   xmlns:svg="http://www.w3.org/2000/svg"
   xmlns="http://www.w3.org/2000/svg"
   xmlns:sodipodi="http://sodipodi.sourceforge.net/DTD/sodipodi-0.dtd"
   xmlns:inkscape="http://www.inkscape.org/namespaces/inkscape"
   width="100"
   height="80"
   viewBox="0 0 26.458333 21.166667"
   version="1.1"
   id="svg8"
   inkscape:version="1.0.2-2 (e86c870879, 2021-01-15)"
   sodipodi:docname="Mifarma logo.svg">
  <title
     id="title16">China Wok logo</title>
  <defs
     id="defs2" />
  <sodipodi:namedview
     id="base"
     pagecolor="#ffffff"
     bordercolor="#666666"
     borderopacity="1.0"
     inkscape:pageopacity="0"
     inkscape:pageshadow="2"
     inkscape:zoom="4"
     inkscape:cx="121.65168"
     inkscape:cy="61.108857"
     inkscape:document-units="px"
     inkscape:current-layer="layer1"
     inkscape:document-rotation="0"
     showgrid="false"
     units="px"
     inkscape:showpageshadow="false"
     inkscape:window-width="1366"
     inkscape:window-height="745"
     inkscape:window-x="-8"
     inkscape:window-y="-8"
     inkscape:window-maximized="1"
     objecttolerance="11.8"
     guidetolerance="10.6" />
  <metadata
     id="metadata5">
    <rdf:RDF>
      <cc:Work
         rdf:about="">
        <dc:format>image/svg+xml</dc:format>
        <dc:type
           rdf:resource="http://purl.org/dc/dcmitype/StillImage" />
        <dc:title>China Wok logo</dc:title>
        <cc:license
           rdf:resource="http://scripts.sil.org/OFL" />
        <dc:date>17 de marzo 2021</dc:date>
      </cc:Work>
      <cc:License
         rdf:about="http://scripts.sil.org/OFL">
        <cc:permits
           rdf:resource="http://scripts.sil.org/pub/OFL/Reproduction" />
        <cc:permits
           rdf:resource="http://scripts.sil.org/pub/OFL/Distribution" />
        <cc:permits
           rdf:resource="http://scripts.sil.org/pub/OFL/Embedding" />
        <cc:permits
           rdf:resource="http://scripts.sil.org/pub/OFL/DerivativeWorks" />
        <cc:requires
           rdf:resource="http://scripts.sil.org/pub/OFL/Notice" />
        <cc:requires
           rdf:resource="http://scripts.sil.org/pub/OFL/Attribution" />
        <cc:requires
           rdf:resource="http://scripts.sil.org/pub/OFL/ShareAlike" />
        <cc:requires
           rdf:resource="http://scripts.sil.org/pub/OFL/DerivativeRenaming" />
        <cc:requires
           rdf:resource="http://scripts.sil.org/pub/OFL/BundlingWhenSelling" />
      </cc:License>
    </rdf:RDF>
  </metadata>
  <g
     inkscape:label="Capa 1"
     inkscape:groupmode="layer"
     id="layer1">
    <g
       id="rect47"
       style="opacity:1"
       inkscape:transform-center-x="0.52916666"
       inkscape:transform-center-y="0.79374994"
       transform="translate(-26.51797,125.72359)" />
    <g
       id="rect77"
       transform="matrix(0.98179228,-0.18995768,0,1,-32.808334,75.670834)"
       style="opacity:1" />
    <g
       id="g33"
       transform="matrix(0.9454178,0,0,0.94016651,1.3507492,0.12953874)">
      <path
         id="path72-0"
         style="fill:#000000;stroke:#fff100;stroke-width:0"
         d="m 0.355343,6.8052467 c 0,0.018585 0,0.03717 0,0.055744 -3.76e-6,3.4609503 1.3748753,6.7801213 3.8221345,9.2273893 2.4472594,2.447269 5.7664356,3.822174 9.2273895,3.822184 3.460965,0 6.78017,-1.374868 9.227441,-3.822138 2.447268,-2.447273 3.822138,-5.766474 3.822134,-9.2274353 -3e-6,-0.018585 -3.3e-5,-0.03717 -9.4e-5,-0.055744 z m 14.238082,0.8734997 c 0.397483,0.00108 0.794814,0.081166 1.159789,0.240257 0.601563,0.2587541 1.111479,0.7210907 1.434588,1.290145 0.368753,0.6442499 0.495512,1.4267416 0.331987,2.1520966 -0.231824,1.060614 -1.098041,1.939996 -2.144209,2.215493 -0.719444,0.197019 -1.511811,0.120814 -2.175763,-0.220684 -0.504366,-0.256452 -0.930245,-0.661961 -1.213951,-1.150891 -0.329349,-0.563144 -0.468565,-1.232671 -0.40125,-1.880862 0.0637,-0.60616 0.329371,-1.1864038 0.737855,-1.6379047 0.480725,-0.5375311 1.159103,-0.8928047 1.874607,-0.9824479 0.131346,-0.017159 0.263851,-0.025562 0.396347,-0.025198 z m 7.735371,0.01717 c 0.205237,0.00611 0.407963,0.1078389 0.525928,0.2782594 0.143823,0.1996448 0.162871,0.4866351 0.03055,0.6971157 -0.09556,0.1533459 -0.234788,0.2718823 -0.360223,0.3996157 -0.5198,0.5096206 -1.04093,1.0176328 -1.559743,1.5282388 0.652785,0.600248 1.303957,1.202474 1.956089,1.803708 0.126419,0.117226 0.254458,0.246919 0.306014,0.416355 0.07191,0.23511 -0.0043,0.508305 -0.191441,0.668546 -0.195704,0.174361 -0.49911,0.222962 -0.734874,0.104425 -0.157615,-0.07815 -0.278754,-0.209198 -0.406159,-0.327081 -0.718458,-0.673474 -1.432356,-1.352528 -2.153443,-2.023045 -0.0027,0.559859 1.5e-5,1.119749 -0.0013,1.679609 -6.27e-4,0.205884 -0.06566,0.421596 -0.219673,0.565419 -0.199318,0.191108 -0.523091,0.220316 -0.763782,0.09225 -0.237737,-0.123136 -0.356244,-0.398623 -0.35296,-0.657045 0,-1.434621 -3.72e-4,-2.86923 0,-4.3035228 -0.0039,-0.1819165 -0.0052,-0.3713591 0.07552,-0.5391537 0.100813,-0.2354361 0.350362,-0.3933928 0.606158,-0.383213 0.237408,-0.00257 0.466928,0.1411896 0.568064,0.3559392 0.09063,0.1737077 0.09096,0.3743483 0.08701,0.5651274 v 1.3755194 c 0.666252,-0.6685484 1.331838,-1.337757 1.998417,-2.0063065 0.111973,-0.1093447 0.234132,-0.2177216 0.386821,-0.2640207 0.06592,-0.020193 0.13462,-0.028778 0.203033,-0.026741 z M 7.4337133,7.703744 c 0.2512576,0.00493 0.5062381,0.143643 0.5993296,0.3844156 0.3500356,1.0057785 0.6905654,2.0155244 1.0425714,3.0206454 l 0.020686,0.0078 C 9.3543935,10.206729 9.6190252,9.29917 9.8794184,8.3902595 9.936223,8.1998084 10.003562,8.0008001 10.149356,7.858947 10.29712,7.7151143 10.520729,7.6842447 10.717418,7.7164241 c 0.258751,0.043343 0.487959,0.2505707 0.534588,0.5126055 0.03875,0.195048 -0.03646,0.3854756 -0.0913,0.5693599 -0.461345,1.4461135 -0.92303,2.8918865 -1.3850392,4.3376725 -0.063707,0.195376 -0.1855027,0.387826 -0.3798937,0.472873 C 9.0739724,13.747816 8.653007,13.590542 8.5318403,13.253313 8.1542221,12.2124 7.7949525,11.164239 7.414379,10.12464 7.0663138,11.144867 6.7136838,12.163765 6.3643048,13.183664 6.330483,13.287098 6.2759652,13.384632 6.1991277,13.462453 6.0057214,13.661442 5.6839445,13.710704 5.4327495,13.60103 5.2472212,13.515984 5.1457303,13.322926 5.0849832,13.137729 4.6449756,11.794724 4.2056216,10.452018 3.7662708,9.1093383 3.7038801,8.9024696 3.6191673,8.701531 3.5807487,8.4887513 3.5367465,8.2559411 3.6336039,8.0083251 3.815187,7.8585911 4.0200859,7.6799618 4.3435275,7.6514073 4.5730543,7.7985175 4.7415045,7.9121312 4.8275492,8.1068448 4.8919084,8.292698 5.1871075,9.2423267 5.4694903,10.196582 5.7686328,11.144896 6.0878027,10.158162 6.4184583,9.1749982 6.7422251,8.1899072 6.8197216,7.9324737 7.0581375,7.7344965 7.326739,7.709869 7.362001,7.705049 7.39782,7.703009 7.433713,7.703759 Z m 7.1487437,1.3039947 c -0.05313,8.144e-4 -0.106246,0.00439 -0.159115,0.010718 -0.71222,0.069613 -1.346651,0.6327572 -1.484565,1.3374263 -0.106717,0.518486 0.04958,1.085226 0.414721,1.469412 0.313915,0.339856 0.775295,0.531623 1.236318,0.528668 0.452485,0.0032 0.900385,-0.190105 1.211018,-0.518469 0.316542,-0.32738 0.485958,-0.792013 0.446226,-1.24647 C 16.21586,10.117815 15.985666,9.6607361 15.6156,9.3652082 15.327133,9.1293218 14.954453,9.002031 14.582457,9.0077747 Z" />
      <path
         id="path2-4-4"
         style="fill:#e30e1a;fill-opacity:1;stroke-width:0.0328363"
         d="M 3.3184057,-0.06494269 C 3.1559014,-0.06412824 2.9935945,-0.0512967 2.8338457,-0.02732512 1.8448139,0.13521486 0.98121707,0.8470781 0.59276293,1.7655118 0.30051907,2.440628 0.27784221,3.2257719 0.52378703,3.9186193 0.74444776,4.547764 1.18281,5.0961013 1.7436553,5.4556601 2.365576,5.8572482 3.1392277,6.0263955 3.8701651,5.8986621 4.381099,5.8063919 4.8739831,5.5939189 5.280169,5.2688387 5.4853962,5.0994031 5.6787631,4.8945198 5.7634808,4.6367544 5.8229141,4.4600945 5.787803,4.2587879 5.681085,4.1074122 5.5106637,3.8555571 5.1507972,3.7514813 4.8730013,3.8769163 4.635594,3.9865897 4.4792862,4.2092285 4.2589575,4.3451711 3.7266799,4.7198343 2.9740441,4.6827055 2.4411093,4.3290578 2.0270428,4.0597996 1.7499266,3.596141 1.7032992,3.1049088 1.6510899,2.6501246 1.8057517,2.1809149 2.1068618,1.838431 2.433255,1.4572008 2.9389223,1.2322765 3.4419758,1.2683971 3.775593,1.279888 4.0970741,1.4115438 4.3574666,1.6180842 4.5055586,1.7238171 4.6247317,1.8679616 4.786615,1.9549782 5.0460226,2.095189 5.394755,2.0223163 5.5845488,1.7987004 5.7070286,1.6634148 5.7618424,1.4739288 5.7332749,1.293986 5.7109451,1.0723398 5.5687776,0.8858159 5.4042677,0.74593219 5.1934581,0.56697372 4.9665451,0.40610348 4.723556,0.27344425 4.2952878,0.03800799 3.8059205,-0.06740245 3.3184057,-0.06494023 Z M 7.32842,-0.03035785 C 7.1494321,-0.02916741 6.9707137,0.0387367 6.8484273,0.17166278 6.7157688,0.31351568 6.6589457,0.51182976 6.6602589,0.70326566 6.6605848,2.1920667 6.6605848,3.6811895 6.6599332,5.1699909 6.6576221,5.3844124 6.7298808,5.6096874 6.8950481,5.754167 7.1321265,5.9669467 7.5294569,5.9698876 7.7668637,5.7554531 7.9211948,5.6181978 7.992105,5.4083655 7.9973584,5.205765 c 0.00558,-0.5680693 -0.00589,-1.1371125 0.00589,-1.7045251 l 2.1603226,0.001 V 5.17031 c -6.89e-4,0.194063 0.05645,0.3953563 0.190427,0.5401648 0.177316,0.195705 0.477113,0.2534872 0.721744,0.16253 0.18257,-0.065668 0.323113,-0.2242855 0.380906,-0.4078409 0.0601,-0.1684507 0.04267,-0.3490336 0.04498,-0.5240512 0,-1.4122926 10e-6,-2.8246099 3.25e-4,-4.23690264 6.9e-4,-0.17468912 -0.044,-0.3542897 -0.151706,-0.49384458 -0.220333,-0.29257213 -0.694819,-0.31915481 -0.960465,-0.0751805 -0.158928,0.14218129 -0.22687,0.36118728 -0.226213,0.56969824 0,0.52373988 -3.25e-4,1.04783608 3.26e-4,1.57157658 L 7.9983202,2.2767726 V 0.70259836 C 7.998646,0.4901472 7.9296624,0.26555741 7.7641671,0.12337612 7.6444164,0.01948066 7.4863092,-0.03140038 7.3283792,-0.03035164 Z m 6.124882,1.8606e-4 c -0.07271,-8.1446e-4 -0.145564,0.0091637 -0.214623,0.02967884 -0.291258,0.0791343 -0.466931,0.38091577 -0.465946,0.67118969 -0.0016,1.43363516 -2.97e-4,2.86763216 -6.24e-4,4.30159686 0.0016,0.1428381 -0.01018,0.2882964 0.02755,0.4278508 0.04105,0.1717345 0.145798,0.3309695 0.299473,0.4215988 0.24463,0.1467779 0.58809,0.1208546 0.795287,-0.080759 0.153019,-0.1457942 0.217043,-0.3628383 0.21573,-0.5700358 -3.26e-4,-1.4884731 -3.26e-4,-2.976617 0,-4.46508979 C 14.111749,0.4983321 14.046789,0.27960669 13.890812,0.13611278 13.77275,0.02594544 13.61327,-0.02833648 13.453299,-0.03017095 Z m 6.221709,1.8606e-4 c -0.181739,-0.0053911 -0.365417,0.05778538 -0.491632,0.19139013 -0.146451,0.15137582 -0.198619,0.36875216 -0.195336,0.57397938 0.0019,0.90070202 -0.003,1.80108462 0.0026,2.70178602 -0.834075,-1.0464952 -1.663169,-2.0965864 -2.4959,-3.14406661 -0.10836,-0.13167371 -0.238077,-0.26075348 -0.40784,-0.30442621 -0.192093,-0.04728509 -0.406503,-0.0032582 -0.562148,0.11952885 -0.159912,0.12543581 -0.247276,0.32934547 -0.248918,0.53030408 -3.25e-4,1.51113019 -8e-6,3.02259869 -3.35e-4,4.53372919 -0.0027,0.2255858 0.07981,0.4632947 0.262387,0.6051482 0.244302,0.193078 0.630141,0.1832422 0.856712,-0.033472 0.155644,-0.1464508 0.219665,-0.3661025 0.219336,-0.5749419 3.27e-4,-0.8977461 -6.26e-4,-1.7958143 3.35e-4,-2.6935607 0.761147,0.979181 1.521294,1.9590176 2.282113,2.9381982 0.125105,0.156958 0.240374,0.3349195 0.422944,0.4314586 0.291916,0.145137 0.680707,0.058766 0.879367,-0.2012991 0.122479,-0.1510473 0.128685,-0.3542943 0.129341,-0.5394916 0.001,-1.3899637 1e-5,-2.7799354 3.73e-4,-4.16989896 C 20.32681,0.76822718 20.34024,0.59749714 20.28868,0.43692763 20.24107,0.27734299 20.134671,0.13316925 19.987235,0.05337666 19.892425,0.00116779 19.784061,-0.02674689 19.675018,-0.02998047 Z m 4.006405,0.03294994 c -0.03677,-5.5883e-4 -0.07369,0.00193988 -0.110437,0.00774897 -0.23478,0.01838864 -0.444905,0.1763132 -0.536847,0.39139077 -0.659354,1.47533865 -1.318065,2.95099985 -1.976435,4.42699485 -0.09819,0.2226307 -0.170433,0.4997627 -0.03646,0.7233788 0.145466,0.2561233 0.464995,0.3618658 0.745746,0.3300155 0.202601,-0.029881 0.342783,-0.2016244 0.438337,-0.3697464 0.115914,-0.2104815 0.200299,-0.436731 0.299135,-0.6557496 0.779207,-0.0023 1.558125,0.00234 2.337332,-0.00226 0.17239,0.3211397 0.263651,0.7088924 0.557865,0.9472845 0.36514,0.2420041 0.948325,0.00172 1.029104,-0.4340559 0.0371,-0.2259215 -0.04826,-0.4479281 -0.141849,-0.6492151 C 25.623613,3.2788754 24.961284,1.838374 24.297004,0.39882754 24.187537,0.16351336 23.938775,0.00714225 23.681419,0.00296325 Z m -0.01453,2.04521909 0.713856,1.6532985 h -1.39226 z"
         sodipodi:nodetypes="sccccccccccccccccccccsscccccccccccccccccccccsscccccccccsscccccccccccccccccccssccccccccccccscccccccc" />
      <path
         fill="#009849"
         opacity="1"
         d="m -1.0769801,12.474775 c 0.1083602,-0.08603 0.25448179,-0.06042 0.37039488,-0.0059 0.97359843,0.355289 1.94785352,0.709265 2.92145182,1.064227 0.9046424,0.329348 1.8096132,0.65804 2.7135983,0.988375 0.1021209,0.03842 0.2134367,0.01641 0.3198265,0.02167 6.2142846,0.0023 12.4288986,3.26e-4 18.6431816,0.0043 0.63637,3.27e-4 1.272738,-6.27e-4 1.909107,3.27e-4 0.301439,0.0029 0.578248,0.237406 0.634399,0.532934 0.06075,0.274184 -0.07355,0.576278 -0.317857,0.71452 -0.113614,0.06699 -0.247257,0.09721 -0.378601,0.0903 -0.964734,-0.02922 -1.929467,-0.05747 -2.8942,-0.08669 -5.219013,-0.155316 -10.438357,-0.308334 -15.6570417,-0.466934 0.058118,0.0417 0.1290473,0.05748 0.1950479,0.08308 3.4159688,1.24417 6.8319378,2.487355 10.2475778,3.732183 1.717342,0.624875 3.434685,1.251065 5.152028,1.875942 0.192748,0.06337 0.352005,0.219347 0.418006,0.411439 0.07618,0.210153 0.03678,0.457082 -0.100813,0.633085 -0.139554,0.184212 -0.379916,0.284692 -0.609443,0.256124 -0.106718,-0.01083 -0.203585,-0.05779 -0.302095,-0.09621 -2.163917,-0.861309 -4.327834,-1.722935 -6.49208,-2.583906 -3.609703,-1.436919 -7.219406,-2.87351 -10.8291088,-4.310758 -0.080121,-0.02922 -0.1569582,-0.07552 -0.2439747,-0.07619 -0.3956783,-0.0105 -0.7913564,-0.02331 -1.1870346,-0.0348 -0.9184338,-0.02825 -1.8365386,-0.05483 -2.75497229,-0.08242 -0.098509,0.0032 -0.19833155,-0.04138 -0.25513839,-0.122808 -0.14316691,-0.176659 -0.002637,-0.475472 0.22558527,-0.472843 0.73323691,0.0013 1.46680141,-0.0049 2.19970941,0.0032 -0.027913,-0.03908 -0.078151,-0.0463 -0.1188679,-0.0637 -1.2513889,-0.49877 -2.50376864,-0.995912 -3.754834,-1.495354 -0.2055562,-0.07979 -0.2367508,-0.392065 -0.053852,-0.513232 z"
         id="path33-6-8"
         style="fill:#009849;fill-opacity:1;stroke-width:0.0328363" />
    </g>
  </g>
</svg>
