<?xml version="1.0" encoding="UTF-8"?> <!-- Generator: Adobe Illustrator 24.2.3, SVG Export Plug-In . SVG Version: 6.00 Build 0) --> <svg xmlns="http://www.w3.org/2000/svg" xmlns:xlink="http://www.w3.org/1999/xlink" version="1.1" id="Layer_1" x="0px" y="0px" viewBox="0 0 132.5 100" style="enable-background:new 0 0 132.5 100;" xml:space="preserve"> <style type="text/css"> .st0{fill:url(#SVGID_1_);} .st1{fill:#2E3191;} .st2{fill:#FEFEFE;} </style> <linearGradient id="SVGID_1_" gradientUnits="userSpaceOnUse" x1="83.4411" y1="66.7396" x2="32.6666" y2="19.0218" gradientTransform="matrix(1 0 0 -1 0 101.7)"> <stop offset="0" style="stop-color:#FBC341"></stop> <stop offset="1" style="stop-color:#F28036"></stop> </linearGradient> <circle class="st0" cx="66.4" cy="51" r="47"></circle> <g> <path class="st1" d="M128.4,38.1c0.9,0,1.1,0.2,1.1,1.1c0,8.7,0,17.4,0,26.1c0,0.9-0.2,1.1-1.1,1.1c-5.3-0.1-44.2,0.4-48.6,0.4 c-1.9,0.2-1.4-1.4-2.5-1c-1.6,0.6-3.3,0.8-5,1c-0.8,0.1-1.1,0.4-1.1,1.2c0,1.3,0,2.6,0,3.9c0.2,1.3-0.6,1.6-1.7,1.5 c-3.7,0-7.3,0-11,0c-0.5,0-1,0-1.5-0.3c-0.5-0.7-0.3-1.6-0.3-2.4c0-0.7,0-1.3,0-2c-0.1-1.9-0.1-1.9-1.9-1.9 c-9.7,0.2-19.6-0.4-29.2,0.3c-32.2,2.2-28.2-44.7,3.1-37.9c3.9,0.3,7.8-0.1,11.7,0.1c1.4,0,1.6,0.3,1.7,1.7c0,1.8-0.1,3.6,0,5.4 c0,1.3,0.1,1.3,1.3,1.4c1.9,0.1,3.6,0.7,5.5,1.6c-2.8-11,13.5-13.4,14.4-2.6c0,0.8,0.3,1.1,1.1,1.1c5.7,0.3,11.8-1.2,16.6,2.7 c-2.6-5.3,1.8-11.5,7.6-10.7c1.1,0,2,0.6,2.9,1c1.2,1.3,2.8,1.2,4.4,1.1c2.3,0,4.5-0.1,6.8,0c1.2,0.3,0.5,3.1,0.7,4.1 c0,0.7-0.3,1.8,0.8,1.7C105.3,37.9,123.9,38.1,128.4,38.1z"></path> <path class="st2" d="M66.8,43.4c4-1.8,7.7-1.8,11.3,0.7c3.6,2.5,5.1,7.1,3.8,11.3c-1.2,4.1-5.2,7.2-9.5,7.3c-1.6,0-3.3-0.2-4.8-0.9 c-0.6-0.3-0.9-0.3-0.8,0.5c0,2.1,0,4.2,0,6.3c0,0.7-0.2,0.9-0.9,0.9c-1.2,0-2.5,0-3.7,0c-0.6,0-0.8-0.1-0.8-0.8 c0-8.6,0-17.1,0-25.7c0-0.6,0.2-0.8,0.7-0.8c1.2,0,2.4,0,3.6,0C66.5,42.2,67,42.3,66.8,43.4z"></path> <path class="st2" d="M28.5,40.2c-2.9-1.9-5.9-2.2-9-1.1c-5.1,1.9-7.6,7.7-5.5,12.7c2.2,5,8.2,7.3,13.1,4.9c0.3-0.1,0.6-0.3,0.8-0.5 c0.4-0.2,0.5-0.2,0.7,0.3c0.4,1.6,0.8,3.2,1.3,4.8c0.2,0.7-0.4,0.7-0.7,0.8c-6,2.4-11.7,1.6-16.6-2.6C7.7,55.4,6,49.9,7.8,43.8 s6.1-9.7,12.4-10.9c3.1-0.6,6.1-0.3,9,0.9c0.6,0.3,0.9,0.5,0.7,1.3C29.3,36.7,28.9,38.4,28.5,40.2z"></path> <path class="st2" d="M37.7,43.2c1.5-0.7,3-1.2,4.6-1.2c4.3,0.1,7.5,3,7.9,7.2c0.3,4.2,0.1,8.4,0.2,12.6c0,0.5-0.2,0.7-0.7,0.7 c-1.5,0-3,0-4.4,0c-0.8,0-0.7-0.5-0.7-0.9c0-3.2,0-6.4,0-9.7c0-0.8,0-1.5-0.2-2.3c-0.5-1.6-1.6-2.5-3.3-2.5c-1.7,0-3,1.1-3.3,2.8 c-0.1,0.6-0.2,1.2-0.2,1.7c0,3.3,0,6.7,0,10c0,0.7-0.2,0.9-0.9,0.9c-1.3,0-2.6,0-3.9,0c-0.7,0-1-0.2-0.9-0.9c0-0.3,0-0.7,0-1 c0-8.6,0-17.3,0-25.9c0-0.8,0.2-1.1,1-1c1.3,0.1,2.6,0.1,3.9,0c0.8,0,1,0.3,1,1c0,2.4,0,4.8,0,7.3C37.7,42.3,37.7,42.7,37.7,43.2z"></path> <path class="st2" d="M120.1,43.5c-0.3-1.2,0.2-1.2,1-1.2c1.2,0,2.3,0,3.5,0c0.6,0,0.8,0.1,0.8,0.8c0,6.2,0,12.3,0,18.5 c0,0.7-0.2,0.8-0.8,0.8c-1.2,0-2.4,0-3.6,0c-0.7,0-1.2-0.1-1-1.1c-2.7,1.5-5.5,1.8-8.4,0.9c-2.2-0.7-4-2-5.3-3.9 c-2.7-3.8-2.5-8.9,0.5-12.5C109.2,42.8,114.2,40.5,120.1,43.5z"></path> <path class="st2" d="M93,46.4c0-3.1,0-6.1,0-9.2c0-0.7,0.1-1,0.9-1c1.3,0.1,2.6,0.1,3.9,0c0.7,0,1,0.2,1,1c-0.1,1.4,0,2.9,0,4.3 c0,0.6,0.2,0.8,0.8,0.8c1,0,2,0,3,0c0.6,0,0.8,0.2,0.8,0.7c0,1.4,0,2.8,0,4.1c0,0.6-0.2,0.8-0.7,0.7c-1,0-2,0-2.9,0 c-0.7,0-1,0.1-0.9,0.9c0.1,1.9,0,3.8,0,5.8c0,2,0.7,2.7,2.7,2.8c1.8,0.1,1.8,0.1,1.8,1.8c0,0.9,0,1.9,0,2.8c0,0.3,0,0.7-0.5,0.7 c-2.8,0-5.5,0-7.7-2.2c-1.3-1.4-2.1-3-2.1-4.9C93,52.4,93.1,49.4,93,46.4C93.1,46.4,93.1,46.4,93,46.4z"></path> <path class="st2" d="M90.5,52.5c0,3.1,0,6.1,0,9.2c0,0.7-0.2,0.9-0.9,0.9c-1.4,0-2.8,0-4.1,0c-0.6,0-0.8-0.2-0.8-0.8 c0-6.2,0-12.5,0-18.7c0-0.6,0.2-0.8,0.8-0.7c1.5,0,2.9,0,4.3,0c0.7,0,0.8,0.3,0.8,0.8C90.4,46.3,90.5,49.4,90.5,52.5z"></path> <path class="st2" d="M52.9,52.4c0-3.1,0-6.1,0-9.2c0-0.8,0.2-1,1-1c1.3,0.1,2.7,0,4,0c0.6,0,0.8,0.2,0.8,0.8c0,6.2,0,12.5,0,18.7 c0,0.6-0.2,0.7-0.8,0.7c-1.4,0-2.8-0.1-4.1,0c-0.8,0-0.9-0.3-0.9-1C52.9,58.5,52.9,55.5,52.9,52.4z"></path> <path class="st2" d="M84.3,37c0-1.8,1.5-3.2,3.3-3.1c1.7,0,3.2,1.5,3.2,3.2c0,1.8-1.5,3.2-3.3,3.2C85.7,40.2,84.3,38.8,84.3,37z"></path> <path class="st2" d="M59.1,37c0,1.8-1.5,3.2-3.3,3.1c-1.8,0-3.2-1.4-3.2-3.1c0-1.7,1.5-3.2,3.3-3.2C57.7,33.8,59.1,35.2,59.1,37z"></path> <path class="st1" d="M76.8,52.4c0,2.8-2.2,5-5,5c-2.8,0-5-2.3-4.9-5.1c0-2.7,2.3-4.9,5-4.9C74.6,47.4,76.8,49.6,76.8,52.4z"></path> <path class="st1" d="M110,52.3c0-2.8,2.3-5,5.1-5c2.8,0,4.9,2.3,4.9,5.1c0,2.6-2.3,4.9-5,4.9C112.2,57.4,110,55.1,110,52.3z"></path> </g> </svg> 