<?xml version="1.0" encoding="UTF-8" standalone="no"?>
<!-- Created with Inkscape (http://www.inkscape.org/) -->

<svg
   xmlns:dc="http://purl.org/dc/elements/1.1/"
   xmlns:cc="http://creativecommons.org/ns#"
   xmlns:rdf="http://www.w3.org/1999/02/22-rdf-syntax-ns#"
   xmlns:svg="http://www.w3.org/2000/svg"
   xmlns="http://www.w3.org/2000/svg"
   xmlns:sodipodi="http://sodipodi.sourceforge.net/DTD/sodipodi-0.dtd"
   xmlns:inkscape="http://www.inkscape.org/namespaces/inkscape"
   width="331.51001"
   height="54.426922"
   viewBox="0 0 87.71202 14.400456"
   version="1.1"
   id="svg4039"
   inkscape:version="0.92.0 r15299"
   sodipodi:docname="chobani.svg">
  <defs
     id="defs4033">
    <clipPath
       id="clipPath3356"
       clipPathUnits="userSpaceOnUse">
      <path
         inkscape:connector-curvature="0"
         id="path3354"
         d="M 177.998,680.904 H 434.001 V 756 H 177.998 Z" />
    </clipPath>
  </defs>
  <sodipodi:namedview
     id="base"
     pagecolor="#ffffff"
     bordercolor="#666666"
     borderopacity="1.0"
     inkscape:pageopacity="0.0"
     inkscape:pageshadow="2"
     inkscape:zoom="2.3495865"
     inkscape:cx="170.66833"
     inkscape:cy="2.3629395"
     inkscape:document-units="mm"
     inkscape:current-layer="layer1"
     showgrid="false"
     fit-margin-top="0"
     fit-margin-left="0"
     fit-margin-right="0"
     fit-margin-bottom="0"
     units="px"
     inkscape:window-width="1280"
     inkscape:window-height="744"
     inkscape:window-x="-4"
     inkscape:window-y="-4"
     inkscape:window-maximized="1" />
  <metadata
     id="metadata4036">
    <rdf:RDF>
      <cc:Work
         rdf:about="">
        <dc:format>image/svg+xml</dc:format>
        <dc:type
           rdf:resource="http://purl.org/dc/dcmitype/StillImage" />
        <dc:title></dc:title>
      </cc:Work>
    </rdf:RDF>
  </metadata>
  <g
     inkscape:label="Layer 1"
     inkscape:groupmode="layer"
     id="layer1"
     transform="translate(-89.403528,-170.58784)">
    <g
       id="g3378"
       transform="matrix(0.35277777,0,0,-0.35277777,150.25241,178.74956)">
      <path
         d="M 0,0 5.066,10.355 10.14,0 Z M 5.066,21.847 -5.829,0 h -5.5 v -5.443 h 2.698 l -5.449,-10.952 h 6.037 l 5.502,10.952 h 15.264 l 5.451,-10.952 h 5.984 z"
         style="fill:#000000;fill-opacity:1;fill-rule:nonzero;stroke:none"
         id="path3380"
         inkscape:connector-curvature="0" />
    </g>
    <g
       id="g3382"
       transform="matrix(0.35277777,0,0,-0.35277777,96.593494,184.72371)">
      <path
         d="m 0,0 c -10.787,0 -19.631,8.794 -19.631,19.63 0,10.842 8.682,19.69 19.685,19.69 5.232,0 9.924,-1.942 13.322,-5.449 l -3.72,-3.883 c -2.484,2.482 -5.826,3.883 -9.602,3.883 -7.497,0 -14.185,-6.365 -14.185,-14.241 0,-7.817 6.634,-14.179 14.185,-14.179 3.722,0 7.228,1.402 9.71,3.883 L 13.485,5.451 C 10.032,2.053 5.232,0 0,0"
         style="fill:#000000;fill-opacity:1;fill-rule:nonzero;stroke:none"
         id="path3384"
         inkscape:connector-curvature="0" />
    </g>
    <g
       id="g3386"
       transform="matrix(0.35277777,0,0,-0.35277777,114.4806,184.53314)">
      <path
         d="M 0,0 H -5.502 V 16.395 H -25.944 V 0 h -5.503 v 16.395 h -4.096 v 5.45 h 4.096 v 16.396 h 5.503 V 21.845 H -5.502 V 38.241 H 0 Z"
         style="fill:#000000;fill-opacity:1;fill-rule:nonzero;stroke:none"
         id="path3388"
         inkscape:connector-curvature="0" />
    </g>
    <g
       id="g3390"
       transform="matrix(0.35277777,0,0,-0.35277777,172.07538,184.53314)">
      <path
         d="M 0,0 -27.344,24.592 V 0 h -5.449 V 38.241 L -5.5,13.646 V 38.241 H 0 Z"
         style="fill:#000000;fill-opacity:1;fill-rule:nonzero;stroke:none"
         id="path3392"
         inkscape:connector-curvature="0" />
    </g>
    <path
       d="m 176.85097,184.53349 h -1.92123 v -13.49057 h 1.92123 z"
       style="fill:#000000;fill-opacity:1;fill-rule:nonzero;stroke:none;stroke-width:0.35277778"
       id="path3394"
       inkscape:connector-curvature="0" />
    <g
       id="g3396"
       transform="matrix(0.35277777,0,0,-0.35277777,123.28939,182.80065)">
      <path
         d="M 0,0 C -7.819,0.048 -14.13,6.416 -14.13,14.179 -14.13,22 -7.819,28.42 0,28.42 7.822,28.42 14.24,22.055 14.24,14.179 14.24,6.362 7.822,0 0,0 m 0,33.869 c -10.839,0 -19.685,-8.848 -19.685,-19.69 0,-10.836 8.846,-19.63 19.685,-19.63 10.842,0 19.633,8.794 19.633,19.63 0,10.842 -8.791,19.69 -19.633,19.69"
         style="fill:#000000;fill-opacity:1;fill-rule:nonzero;stroke:none"
         id="path3398"
         inkscape:connector-curvature="0" />
    </g>
    <g
       id="g3404"
       transform="matrix(0.35277777,0,0,-0.35277777,140.2434,182.61082)">
      <path
         d="M 0,0 H -14.996 V 10.945 H 0 c 3.073,0 5.609,-2.421 5.609,-5.443 C 5.609,2.428 3.073,0 0,0 M -14.996,27.344 H 0 c 3.018,0 5.444,-2.482 5.444,-5.502 0,-2.97 -2.426,-5.446 -5.444,-5.446 H -14.996 Z M 6.957,13.534 c 2.264,1.835 3.989,5.071 3.989,8.308 0,6.04 -4.961,10.95 -10.946,10.95 H -20.496 V 16.396 h -4.1 v -5.451 h 4.1 V -5.449 H 0 c 5.985,0 10.946,4.911 10.946,10.951 0,3.183 -1.51,6.146 -3.989,8.032"
         style="fill:#000000;fill-opacity:1;fill-rule:nonzero;stroke:none"
         id="path3406"
         inkscape:connector-curvature="0" />
    </g>
  </g>
</svg>
