<svg width="274" height="144" viewBox="0 0 274 144" fill="none" xmlns="http://www.w3.org/2000/svg">
<path d="M134.685 96.3382C134.328 96.2408 128.84 94.8254 123.008 94.8254C111.965 94.8254 105.317 100.788 105.317 109.667C105.317 117.527 110.879 121.447 117.554 123.556C118.294 123.8 119.384 124.141 120.11 124.382C123.081 125.317 125.453 126.705 125.453 129.111C125.453 131.802 122.712 133.543 116.753 133.543C111.516 133.543 106.496 132.046 105.439 131.779V142.704C106.028 142.829 111.995 144 118.368 144C127.536 144 138.023 139.994 138.023 128.069C138.023 122.285 134.482 116.959 126.706 114.488L123.401 113.436C121.429 112.813 117.909 111.805 117.909 108.915C117.909 106.632 120.517 105.024 125.32 105.024C129.464 105.024 134.507 106.417 134.685 106.472V96.3382ZM235.927 119.413C235.927 126.321 230.636 131.909 223.536 131.909C216.429 131.909 211.152 126.321 211.152 119.413C211.152 112.52 216.429 106.929 223.536 106.929C230.636 106.929 235.927 112.52 235.927 119.413ZM223.536 94.8406C208.935 94.8406 198.463 105.854 198.463 119.413C198.463 132.994 208.935 144 223.536 144C238.137 144 248.624 132.994 248.624 119.413C248.624 105.854 238.137 94.8406 223.536 94.8406ZM89.252 143.155H77.2711V95.6817H89.252" fill="black"/>
<path d="M60.803 96.5418C59.6772 96.2078 55.5158 94.8405 49.8795 94.8405C35.3005 94.8405 24.5984 105.235 24.5984 119.413C24.5984 134.709 36.4123 144 49.8795 144C55.2299 144 59.3142 142.733 60.803 142.31V129.566C60.2882 129.852 56.3721 132.086 50.7383 132.086C42.757 132.086 37.6089 126.469 37.6089 119.413C37.6089 112.143 42.9796 106.751 50.7383 106.751C56.4682 106.751 60.3211 109.034 60.803 109.285" fill="black"/>
<path d="M185.848 96.5418C184.722 96.2078 180.561 94.8405 174.925 94.8405C160.346 94.8405 149.643 105.235 149.643 119.413C149.643 134.709 161.457 144 174.925 144C180.275 144 184.359 142.733 185.848 142.31V129.566C185.333 129.852 181.417 132.086 175.783 132.086C167.802 132.086 162.654 126.469 162.654 119.413C162.654 112.143 168.025 106.751 175.783 106.751C181.513 106.751 185.366 109.034 185.848 109.285" fill="black"/>
<path d="M77.2347 5.92595C77.2347 2.65371 74.562 0 71.286 0C68.0112 0 65.3385 2.65371 65.3385 5.92595V68.9674C65.3385 72.2587 68.0112 74.9111 71.286 74.9111C74.562 74.9111 77.2347 72.2587 77.2347 68.9674V5.92595ZM44.5642 28.3042C44.5642 25.0332 41.8927 22.3757 38.6167 22.3757C35.3407 22.3757 32.6693 25.0332 32.6693 28.3042V57.1244C32.6693 60.4143 35.3407 63.0681 38.6167 63.0681C41.8927 63.0681 44.5642 60.4143 44.5642 57.1244V28.3042ZM11.8949 44.6616C11.8949 41.3893 9.22349 38.7369 5.94745 38.7369C2.67522 38.7369 0 41.3893 0 44.6616V57.1244C0 60.4143 2.67522 63.0681 5.94745 63.0681C9.22349 63.0681 11.8949 60.4143 11.8949 57.1244" fill="black"/>
<path d="M65.3383 5.92595C65.3383 2.65371 68.011 0 71.287 0C74.5618 0 77.2345 2.65371 77.2345 5.92595V68.9674C77.2345 72.2587 74.5618 74.9111 71.287 74.9111C68.011 74.9111 65.3383 72.2587 65.3383 68.9674V5.92595ZM98.0088 28.3042C98.0088 25.0332 100.68 22.3757 103.956 22.3757C107.232 22.3757 109.904 25.0332 109.904 28.3042V57.1244C109.904 60.4143 107.232 63.0681 103.956 63.0681C100.68 63.0681 98.0088 60.4143 98.0088 57.1244V28.3042ZM130.678 44.6616C130.678 41.3893 133.35 38.7369 136.626 38.7369C139.898 38.7369 142.573 41.3893 142.573 44.6616V57.1244C142.573 60.4143 139.898 63.0681 136.626 63.0681C133.35 63.0681 130.678 60.4143 130.678 57.1244" fill="black"/>
<path d="M195.979 5.92595C195.979 2.65371 198.651 0 201.928 0C205.202 0 207.875 2.65371 207.875 5.92595V68.9674C207.875 72.2587 205.202 74.9111 201.928 74.9111C198.651 74.9111 195.979 72.2587 195.979 68.9674V5.92595ZM228.649 28.3042C228.649 25.0332 231.321 22.3757 234.597 22.3757C237.873 22.3757 240.544 25.0332 240.544 28.3042V57.1244C240.544 60.4143 237.873 63.0681 234.597 63.0681C231.321 63.0681 228.649 60.4143 228.649 57.1244V28.3042ZM261.319 44.6616C261.319 41.3893 263.99 38.7369 267.266 38.7369C270.538 38.7369 273.214 41.3893 273.214 44.6616V57.1244C273.214 60.4143 270.538 63.0681 267.266 63.0681C263.99 63.0681 261.319 60.4143 261.319 57.1244" fill="black"/>
<path d="M207.875 5.92595C207.875 2.65371 205.203 0 201.927 0C198.652 0 195.979 2.65371 195.979 5.92595V68.9674C195.979 72.2587 198.652 74.9111 201.927 74.9111C205.203 74.9111 207.875 72.2587 207.875 68.9674V5.92595ZM175.205 28.3042C175.205 25.0332 172.533 22.3757 169.257 22.3757C165.981 22.3757 163.31 25.0332 163.31 28.3042V57.1244C163.31 60.4143 165.981 63.0681 169.257 63.0681C172.533 63.0681 175.205 60.4143 175.205 57.1244V28.3042ZM142.536 44.6616C142.536 41.3893 139.864 38.7369 136.588 38.7369C133.316 38.7369 130.641 41.3893 130.641 44.6616V57.1244C130.641 60.4143 133.316 63.0681 136.588 63.0681C139.864 63.0681 142.536 60.4143 142.536 57.1244" fill="black"/>
</svg>
