<?xml version="1.0" encoding="UTF-8" standalone="no"?>
<!-- Created with Inkscape (http://www.inkscape.org/) -->

<svg
   xmlns:dc="http://purl.org/dc/elements/1.1/"
   xmlns:cc="http://creativecommons.org/ns#"
   xmlns:rdf="http://www.w3.org/1999/02/22-rdf-syntax-ns#"
   xmlns:svg="http://www.w3.org/2000/svg"
   xmlns="http://www.w3.org/2000/svg"
   xmlns:sodipodi="http://sodipodi.sourceforge.net/DTD/sodipodi-0.dtd"
   xmlns:inkscape="http://www.inkscape.org/namespaces/inkscape"
   id="svg2"
   version="1.1"
   inkscape:version="0.48.4 r9939"
   width="2549.4875"
   height="1420.1487"
   sodipodi:docname="logo-cola-cao_with_background_new.svg">
  <metadata
     id="metadata8">
    <rdf:RDF>
      <cc:Work
         rdf:about="">
        <dc:format>image/svg+xml</dc:format>
        <dc:type
           rdf:resource="http://purl.org/dc/dcmitype/StillImage" />
        <dc:title />
      </cc:Work>
    </rdf:RDF>
  </metadata>
  <defs
     id="defs6" />
  <sodipodi:namedview
     pagecolor="#ffffff"
     bordercolor="#666666"
     borderopacity="1"
     objecttolerance="10"
     gridtolerance="10"
     guidetolerance="10"
     inkscape:pageopacity="0"
     inkscape:pageshadow="2"
     inkscape:window-width="1024"
     inkscape:window-height="755"
     id="namedview4"
     showgrid="false"
     showguides="true"
     inkscape:guide-bbox="true"
     fit-margin-top="0"
     fit-margin-left="0"
     fit-margin-right="0"
     fit-margin-bottom="0"
     inkscape:zoom="0.23887153"
     inkscape:cx="1274.7438"
     inkscape:cy="710.07434"
     inkscape:window-x="0"
     inkscape:window-y="13"
     inkscape:window-maximized="0"
     inkscape:current-layer="layer3"
     inkscape:snap-page="true" />
  <g
     inkscape:groupmode="layer"
     id="layer2"
     inkscape:label="background"
     style="display:inline"
     transform="translate(100,100)"
     sodipodi:insensitive="true">
    <rect
       style="fill:#fedb03;fill-opacity:1;stroke:none"
       id="rect3054"
       width="2549.4875"
       height="1420.1487"
       x="-4.1910919e-15"
       y="0"
       transform="translate(-100,-100)" />
  </g>
  <g
     inkscape:groupmode="layer"
     id="layer3"
     inkscape:label="red"
     style="display:inline"
     sodipodi:insensitive="true">
    <g
       style="display:inline"
       id="g2993"
       transform="translate(97.438628,28.512041)">
      <path
         style="fill:#cf2625"
         d="m 201.10452,1290.8817 c -18.49669,-2.48 -41.79471,-10.1535 -62.17166,-20.477 C 71.829382,1236.4083 25.742011,1172.0697 8.962623,1088.9645 3.2344421,1060.5939 2.5467572,1051.5733 2.5616019,1005 2.5764983,958.26447 3.5423233,945.80326 10.079736,908 43.344816,715.64126 166.26888,526.40637 307.78543,449.6983 347.8183,427.99876 382.73077,417.51298 419,416.29557 c 18.46633,-0.61984 28.7713,0.37875 45.19944,4.38 l 10.69945,2.60596 26.30055,-4.25399 c 14.46531,-2.3397 41.60056,-6.90205 60.30056,-10.13856 18.7,-3.23651 34.3375,-5.88556 34.75,-5.88677 0.4125,-10e-4 0.75,0.92487 0.75,2.05796 0,1.8419 -20.96535,91.53976 -33.87716,144.93955 -2.7262,11.27485 -4.74753,20.70892 -4.49184,20.96461 0.25568,0.25569 5.73081,-2.30434 12.16694,-5.68895 36.49224,-19.19042 80.08594,-28.56591 117.70206,-25.31361 40.43155,3.49571 72.90859,16.07307 101.16626,39.17858 3.94145,3.22281 7.62362,5.85965 8.18262,5.85965 1.35575,0 1.12553,0.92881 8.67519,-35 15.69335,-74.68466 34.13177,-146.98357 51.35822,-201.38071 3.28852,-10.38439 6.34781,-19.23003 6.79842,-19.65697 0.45061,-0.42694 8.91929,-2.8763 18.81929,-5.44301 37.61851,-9.75313 141.6325,-38.11814 180.3072,-49.17049 22.169,-6.33537 40.9255,-11.28165 41.681,-10.99172 1.1059,0.42436 0.6951,3.12205 -2.1065,13.83502 -24.3406,93.07549 -44.9099,175.61302 -43.9932,176.52968 0.3701,0.37012 4.3716,-2.94523 8.8922,-7.36744 30.9192,-30.24619 69.416,-51.96397 110.3261,-62.23989 20.7682,-5.21662 31.4931,-6.4286 57.749,-6.52599 l 23.8559,-0.0885 3.6441,-4.7274 c 3.6035,-4.67455 3.8343,-4.79007 20.6442,-10.33199 22.7712,-7.50725 63.6795,-19.52929 98.5,-28.94696 15.675,-4.23952 35.25,-9.5813 43.5,-11.87064 l 15,-4.16243 9.6299,-19.1471 c 36.2413,-72.05886 86.2466,-133.52267 141.4707,-173.88816 30.3356,-22.17347 64.1345,-38.197435 94.1024,-44.613657 9.2015,-1.970069 13.6785,-2.310347 30.297,-2.302758 17.264,0.0079 20.5261,0.278998 28.4482,2.364382 6.8784,1.81061 10.2325,2.199643 14.5,1.6818 3.0535,-0.370523 17.0268,-1.992258 31.0518,-3.603855 14.025,-1.611598 32.1827,-3.879738 40.3504,-5.040312 8.3184,-1.181987 15.2296,-1.730878 15.7126,-1.2479 0.9505,0.950525 -0.044,5.450692 -16.1721,73.18125 -6.0696,25.48935 -10.7609,46.61903 -10.4251,46.95483 0.3358,0.33581 2.0559,0.012 3.8224,-0.71965 28.2779,-11.71155 56.3428,-16.84952 86.5004,-15.83598 17.0461,0.57288 15.2494,1.10751 21.7971,-6.48631 2.7663,-3.20829 4.9003,-4.15813 20.6175,-9.17642 9.6425,-3.07873 26.9289,-8.26897 38.4143,-11.53385 28.1245,-7.9948 117.6164,-31.14631 118.1876,-30.57509 0.2509,0.25087 -0.2997,3.46525 -1.2236,7.14308 -1.0511,4.18478 -1.3271,7.03953 -0.7374,7.62921 0.5897,0.58968 3.8822,-1.54748 8.7991,-5.71149 42.2467,-35.777717 90.0424,-48.628384 138.8568,-37.333934 54.8106,12.681824 88.2869,57.068314 95.5811,126.731544 2.5645,24.49244 -0.087,60.52023 -6.5866,89.50041 -10.5586,47.07705 -33.6368,95.70978 -62.1977,131.06938 -8.9775,11.11448 -29.553,31.61277 -38.7968,38.65118 -24.5244,18.67339 -49.4571,30.36558 -76.5,35.87469 -33.5862,6.84208 -64.6697,1.07903 -91.3748,-16.94137 -4.1442,-2.79648 -7.9564,-5.0845 -8.4716,-5.0845 -1.1882,0 -1.1456,-0.18491 -6.6869,28.98833 -2.5583,13.46858 -5.0243,25.18507 -5.4801,26.03665 -1.103,2.06107 -24.4336,15.92519 -35.0466,20.82633 -21.3655,9.8667 -39.9435,13.68463 -61.94,12.72917 -7.975,-0.34641 -15.8513,-0.87849 -17.5029,-1.18239 -2.6173,-0.4816 -4.1391,0.38835 -11.8512,6.77468 -33.5897,27.81547 -78.3869,46.92537 -121.6459,51.89259 -11.7755,1.35212 -35.7319,0.75495 -45.9314,-1.14496 l -6.4314,-1.198 -2.5686,2.97506 c -1.4127,1.63628 -6.3936,7.87197 -11.0686,13.85708 -10.8862,13.93699 -35.4953,38.79153 -49,49.48877 -29.4241,23.30719 -62.2662,39.53974 -92.7989,45.86674 -36.4045,7.54374 -67.9718,3.57758 -100.7011,-12.65219 -38.7206,-19.20075 -69.6447,-53.05179 -87.6648,-95.96236 -2.8243,-6.72549 -5.4563,-12.0297 -5.8487,-11.78713 -1.5523,0.95936 -3.4865,23.9776 -3.4865,41.49163 l 0,18.5 3.7826,7.92239 c 2.9115,6.09796 5.5022,9.61437 11.25,15.26965 4.1071,4.041 7.4673,8.12593 7.4672,9.07762 -10e-5,1.82399 -15.6729,84.64325 -16.5069,87.22733 -0.7657,2.37254 -17.5915,12.80235 -33.9871,21.06767 -15.9775,8.05451 -31.8836,13.76381 -46.2123,16.58735 -10.8458,2.13721 -38.3986,2.42091 -48.933,0.50383 l -7.1395,-1.29926 -10.3605,8.68125 c -57.0964,47.84197 -138.3761,71.66112 -199.3137,58.40919 -4.9242,-1.07086 -9.7051,-1.94702 -10.6241,-1.94702 -0.919,0 -5.1963,4.1625 -9.5051,9.25 -11.3026,13.34519 -35.2646,36.96273 -47.1761,46.4979 -17.67834,14.15154 -35.65572,25.43807 -51.7415,32.48428 -39.02349,17.09384 -81.77862,19.16134 -113.41342,5.48429 -10.70262,-4.62718 -18.27589,-9.87205 -28.06242,-19.43461 -4.66171,-4.55502 -8.71171,-8.2696 -9,-8.25461 -0.28829,0.015 -4.27022,5.98927 -8.84873,13.27617 -45.46743,72.3634 -109.93855,124.7007 -177.5822,144.1603 -21.0773,6.0635 -38.66592,8.5363 -60.71762,8.5363 -18.72407,0 -33.41604,-2.2231 -49.89141,-7.5492 -6.13822,-1.9844 -11.30414,-3.4601 -11.47982,-3.2794 -0.17568,0.1807 -4.44797,6.143 -9.49398,13.2496 -5.04601,7.1065 -13.7354,18.5815 -19.30975,25.5 -13.31294,16.523 -45.95539,49.1525 -61.77054,61.746 -42.0825,33.5102 -84.50504,53.6446 -130.43011,61.9043 -10.84842,1.9511 -50.33168,2.7938 -61.39548,1.3104 z m 45.21077,-32.3784 c 66.11364,-8.6668 137.9493,-54.8644 191.04552,-122.8618 7.68414,-9.8407 21.69695,-30.3525 27.66024,-40.4888 2.37737,-4.041 4.82381,-7.5397 5.43652,-7.7748 0.61272,-0.2351 4.69792,1.6173 9.07823,4.1164 22.64883,12.9221 51.17109,19.0087 77.91441,16.6268 53.11681,-4.7309 102.29454,-28.6849 145.94934,-71.0906 33.14564,-32.1973 59.24734,-69.03941 81.31906,-114.7805 4.04727,-8.3875 7.75553,-15.25 8.24058,-15.25 0.48504,0 1.20046,1.4625 1.58981,3.25 2.86247,13.14157 11.77852,32.25671 19.66884,42.16808 9.63126,12.09824 23.82508,21.21236 39.28216,25.22383 9.96697,2.58666 37.55043,2.57175 49.5,-0.0268 24.00395,-5.2198 48.4738,-17.87085 74,-38.25842 12.77538,-10.20359 36.9433,-34.94282 50.9035,-52.10674 6.8219,-8.3875 12.6856,-15.25 13.0303,-15.25 0.3448,0 4.4383,1.60835 9.0966,3.57411 58.0326,24.48921 139.747,3.4998 198.9696,-51.10792 5.225,-4.81785 10.088,-9.59368 10.8067,-10.61296 1.6732,-2.37297 3.7041,-2.33098 15.2401,0.31512 12.7597,2.92678 37.3957,3.14291 49.9263,0.43799 10.7381,-2.31798 26.3149,-7.72387 35.4507,-12.30313 9.3518,-4.68746 20.1833,-11.12483 21.6088,-12.84249 0.6284,-0.75716 4.0336,-15.90807 7.5671,-33.66869 l 6.4246,-32.29203 -3.2622,-2.46135 c -5.6743,-4.28144 -12.5941,-11.789 -14.7364,-15.98826 -4.195,-8.22299 -5.341,-15.51068 -4.6465,-29.55039 1.624,-32.83034 9.0459,-80.84457 24.1913,-156.5 9.3914,-46.91285 22.351,-105.43102 31.4522,-142.02037 3.8375,-15.42802 6.9773,-28.97065 6.9773,-30.09474 0,-2.52698 2.7932,-3.10291 -39.5,8.14459 -54.0068,14.36264 -108.3876,30.4838 -113.2233,33.56498 -1.2228,0.77913 -4.5182,4.81763 -7.3232,8.97444 -4.6138,6.83739 -5.3551,7.50601 -7.7767,7.01414 -14.2114,-2.88657 -42.8536,-3.40423 -60.3756,-1.09119 -42.8597,5.65783 -82.0917,24.67122 -115.8935,56.16665 -20.492,19.09379 -38.3903,41.04948 -53.844,66.10907 -15.4538,25.05959 -35.656,65.58096 -45.01351,104.68422 -5.88261,18.25384 44.82591,-218.07732 71.80111,-316.76998 2.3139,-8.46559 2.6714,-10.92775 1.6439,-11.32201 -0.7221,-0.2771 -12.0414,2.25647 -25.1541,5.63016 -24.7961,6.3797 -147.44585,39.32646 -153.03035,41.10776 -3.89697,1.24303 -4.1848,1.96374 -12.34118,30.90228 -21.91094,77.73922 -44.33146,174.95602 -60.48112,262.25 -1.50084,8.1125 -3.10736,14.75 -3.57004,14.75 -0.46269,0 -3.58112,-5.37407 -6.92984,-11.94238 -14.95902,-29.34116 -34.26539,-48.85592 -61.44815,-62.11143 -31.83626,-15.52476 -70.12056,-19.79575 -106.03125,-11.82883 -28.85082,6.40065 -60.62272,22.60229 -89.50758,45.64314 -5.22588,4.16857 -16.88685,14.93002 -25.91328,23.91433 -9.02643,8.98432 -16.65372,16.09309 -16.94954,15.79727 -0.29582,-0.29581 -0.0242,-2.88555 0.60352,-5.75497 1.78058,-8.13887 37.50503,-153.26527 44.65972,-181.42489 4.70177,-18.50533 6.09804,-25.44963 5.25134,-26.11741 -1.2301,-0.97017 -32.03917,3.21778 -64.9238,8.82524 -17.7252,3.02249 -18.98698,3.11408 -22.65888,1.64488 -14.52772,-5.81284 -36.90705,-8.53707 -56.10498,-6.82965 -26.37172,2.34545 -48.79303,9.07232 -77.46569,23.24135 -37.08183,18.32456 -68.33985,41.12669 -103.38103,75.4145 C 105.748,668.14668 26.63794,860.88473 34.094911,1025.4863 c 1.473974,32.5358 5.010672,55.8235 12.350877,81.3254 18.121873,62.9602 60.811112,114.3893 114.830672,138.34 29.28628,12.9847 55.92815,17.1676 85.03883,13.3516 z M 216,1228.4741 c -0.825,-0.1616 -4.875,-0.8342 -9,-1.4945 -35.28076,-5.6481 -72.86898,-29.7958 -97.66594,-62.7432 C 85.730545,1132.8747 72.245298,1095.3491 66.844473,1046 c -1.63269,-14.9184 -1.611947,-68.68924 0.0326,-84.5 6.347504,-61.02532 19.852634,-115.47582 42.908467,-173 46.89918,-117.01323 126.62234,-220.50352 210.89791,-273.77101 14.74537,-9.32 41.4808,-22.49553 54.81655,-27.01423 17.72529,-6.00605 27.20739,-7.79226 44.5,-8.38278 18.18703,-0.62107 30.22198,1.30875 41.99051,6.73321 l 7.00101,3.22698 20.75424,-4.14666 c 20.91899,-4.17958 25.2923,-4.76865 25.20843,-3.39551 -0.0252,0.4125 -9.13769,37.2 -20.25,81.75 L 474.5,644.5 462,649.21644 c -6.875,2.59403 -12.91559,4.593 -13.42354,4.44215 -0.50795,-0.15086 -1.74953,-5.19825 -2.75908,-11.21644 -2.79041,-16.63434 -7.44031,-29.21995 -14.68722,-39.75296 -7.16793,-10.41824 -20.77855,-19.98765 -32.15797,-22.60978 -6.56359,-1.51243 -19.68374,-1.29938 -26.51209,0.43053 -3.27806,0.83047 -9.7851,3.36822 -14.4601,5.63945 -7.61818,3.7011 -9.95241,5.59359 -22.5,18.24203 -20.68922,20.85551 -34.93741,41.58111 -50.94727,74.10858 -10.83959,22.02294 -16.57216,36.13193 -24.58154,60.5 -13.39397,40.75041 -23.14239,88.09574 -28.51721,138.5 -2.14932,20.15608 -3.05929,75.67457 -1.54069,94 4.49021,54.1847 17.97716,94.0238 37.00739,109.3162 11.09282,8.914 25.866,11.5508 40.32317,7.1972 29.6864,-8.9396 67.32076,-42.8534 92.33195,-83.204 8.65942,-13.97026 20.64153,-39.49316 26.20054,-55.8094 l 4.94022,-14.5 0.61403,-17 c 2.00301,-55.45472 16.42219,-111.40342 42.26632,-164 C 500.91301,697.90774 547.0191,648.23544 597,620.55197 c 31.36419,-17.37203 64.85882,-25.51494 93.02035,-22.61424 47.42598,4.88496 81.62217,33.82281 98.01233,82.941 6.53452,19.58272 9.11023,35.99061 9.7094,61.8514 0.31597,13.63739 0.056,27.1129 -0.67262,34.86227 -5.75692,61.23019 -30.28285,129.41665 -65.61004,182.4076 -36.79024,55.1855 -86.77917,95.5107 -139.32488,112.3908 -52.83976,16.9746 -94.8401,7.0069 -127.15738,-30.1773 -4.99999,-5.753 -6.5749,-7.0157 -7.48325,-6 -0.63276,0.7076 -3.07356,5.7865 -5.424,11.2865 -15.77852,36.9216 -42.18255,76.1831 -71.50076,106.318 -42.69434,43.8836 -89.67041,68.9959 -138.7343,74.1641 -8.6684,0.913 -22.35537,1.1737 -25.83485,0.492 z M 602.0685,954.40365 c 10.52508,-3.09338 18.92562,-8.35839 28.53115,-17.8818 10.0529,-9.96694 16.71456,-19.29244 24.83327,-34.76348 20.76861,-39.57675 36.11346,-107.45787 32.61776,-144.29137 -1.3441,-14.16254 -3.12444,-21.03398 -8.06516,-31.12841 C 673.00489,712.0764 662.39771,705 648,705 622.873,705 593.8328,733.75882 574.44806,777.83926 559.88953,810.94503 552.67564,845.72781 552.6379,883 c -0.0299,29.49848 3.87689,48.31763 12.71004,61.22531 6.02047,8.79757 11.85724,11.77469 23.08475,11.77469 4.57783,0 10.60515,-0.70562 13.63581,-1.59635 z M 589.53114,920.8932 c -2.65062,-2.32728 -4.10209,-4.89911 -5.7848,-10.25 -2.04429,-6.50069 -2.24268,-9.07707 -2.20567,-28.6432 0.0446,-23.55893 1.37044,-34.99585 6.48529,-55.94195 9.6535,-39.53259 32.10296,-78.43074 50.75758,-87.94762 7.49024,-3.82124 13.63507,-2.00389 17.44762,5.16018 2.02788,3.81052 2.28505,5.90418 2.59669,21.14003 0.39357,19.24135 -0.69618,30.87958 -4.83056,51.58936 -8.61281,43.14285 -24.72623,81.36604 -41.5766,98.62524 -5.52476,5.6588 -12.02902,9.31554 -16.63589,9.3528 -1.63469,0.0132 -4.12334,-1.2144 -6.25366,-3.08484 z M 608.33725,887.75 c 10.12156,-13.48693 25.65673,-66.98956 29.54653,-101.75732 1.62192,-14.49705 -1.37719,-17.94995 -7.40557,-8.52608 -11.90717,18.61392 -26.14683,68.75284 -28.15885,99.14946 -0.94648,14.29901 0.97486,17.85375 6.01789,11.13394 z M 287.5877,1056.7953 c -10.42635,-6.1171 -18.02826,-26.7176 -23.55711,-63.83755 -3.27946,-22.01784 -4.34302,-42.18482 -3.68943,-69.95775 2.64808,-112.52489 36.58558,-224.55155 86.18679,-284.5 17.16388,-20.74442 29.04097,-29.6378 39.66732,-29.70228 15.91279,-0.0966 27.06003,24.40869 30.79721,67.70228 1.64317,19.03534 2.01397,21.5 3.23464,21.5 0.60751,0 16.80786,-5.85 36.00078,-13 19.19291,-7.15 35.09328,-13 35.33415,-13 1.46364,0 -0.58684,3.47815 -8.86504,15.03748 -47.13151,65.81239 -76.59664,146.30208 -81.68616,223.14147 -0.94267,14.23204 -1.40698,16.74756 -5.03127,27.25839 -14.82185,42.98499 -39.64154,79.30426 -71.89977,105.21286 -18.98495,15.248 -28.39518,18.8956 -36.49211,14.1451 z M 310,1012.876 c 1.925,-1.1641 7.10799,-5.7749 11.51776,-10.2462 14.82286,-15.02997 28.13319,-34.78752 42.56839,-63.18761 l 8.67015,-17.0578 0.68776,-11.4422 c 3.26475,-54.31537 17.68513,-111.32776 41.94844,-165.84727 2.54687,-5.7228 4.36769,-10.66806 4.04628,-10.98947 -0.32141,-0.32141 -4.71412,0.91892 -9.76158,2.75629 -17.13439,6.23725 -18.72925,6.67208 -19.55732,5.33223 -0.41701,-0.67473 -1.30951,-12.08008 -1.98334,-25.34522 -1.80518,-35.53724 -4.68889,-58.40242 -7.6785,-60.88357 -3.84952,-3.19482 -9.13136,1.83435 -21.71859,20.67964 C 326.98322,724.18944 303.79766,799.17047 294.31208,885 c -2.40015,21.71756 -2.42559,77.03943 -0.0439,95.5 4.35144,33.7285 6.42807,38.0021 15.73182,32.376 z m 552.27451,-61.41504 c -20.9443,-5.64109 -35.36749,-22.40702 -42.15809,-49.00577 -9.5675,-37.4758 -5.57676,-98.86485 13.42111,-206.45519 17.59334,-99.63608 47.64608,-235.66944 65.8347,-298 6.35378,-21.77376 6.96968,-23.33769 9.71585,-24.67117 2.46294,-1.19594 112.16802,-31.2433 117.16192,-32.08973 1.5125,-0.25635 2.75,-0.25115 2.75,0.0116 0,0.26271 -3.3508,14.15129 -7.4463,30.8635 -24.60197,100.39195 -57.43375,268.3002 -73.2052,374.38583 -3.1802,21.39139 -3.72619,27.60064 -3.78259,43.01692 l -0.0659,18.01691 3.3089,6.72545 c 5.83724,11.86436 14.85474,14.74741 27.05613,8.6503 10.10838,-5.05121 24.45499,-20.90423 31.64306,-34.96561 2.2265,-4.35541 2.2695,-4.83977 0.9784,-11 -2.3867,-11.38721 -3.7559,-31.76355 -3.0538,-45.44397 4.8734,-94.952 38.5436,-182.09277 91.5332,-236.89428 19.6505,-20.32243 39.342,-34.94963 61.5341,-45.70874 36.4546,-17.67379 76.9965,-22.90329 115.5,-14.89832 5.225,1.08628 10.2545,1.98098 11.1766,1.9882 1.0105,0.008 2.947,-2.27119 4.8743,-5.73686 7.2015,-12.94945 9.3856,-16.12791 11.8566,-17.25491 4.5657,-2.08237 26.7796,-8.9331 56.5925,-17.45299 34.1186,-9.75039 39.2848,-11.09068 39.9984,-10.37708 0.2937,0.2937 -1.4652,9.71422 -3.9085,20.93449 -17.6776,81.17756 -46.6571,247.44748 -48.1744,276.40049 -1.1022,21.03075 3.7289,36.3378 14.738,46.69686 l 6.0544,5.69686 -3.5131,18.62405 c -2.1566,11.43257 -4.1324,19.30826 -5.1168,20.39599 -2.8327,3.13016 -18.3605,10.14248 -28.3659,12.80997 -8.521,2.27176 -11.7357,2.59606 -26.2121,2.64427 -18.2972,0.0609 -27.5596,-1.58568 -41.2312,-7.32987 l -7.0185,-2.94887 -3.1251,3.6351 c -21.6666,25.20201 -41.4115,41.18335 -68.6252,55.54467 -43.6759,23.04884 -82.1568,27.49333 -118.0835,13.63851 -7.9791,-3.07706 -23.5888,-12.67794 -27.3252,-16.80661 -1.0457,-1.15551 -2.394,-2.07321 -2.9963,-2.03933 -0.6022,0.0339 -4.9965,5.99638 -9.765,13.25 -32.57076,49.54536 -77.4197,89.32341 -114.60469,101.64681 -15.33567,5.08236 -36.37842,6.61942 -47.95079,3.50255 z M 1171.5,750.30873 c 26.7674,-8.32461 50.8661,-37.46068 64.3562,-77.80873 9.5281,-28.49767 18.3757,-83.11143 18.5495,-114.5 0.124,-22.40451 -2.6604,-32.62635 -10.8446,-39.81217 -5.0558,-4.43909 -15.7399,-7.51902 -24.354,-7.02058 -24.0024,1.38888 -53.2383,31.52791 -73.0309,75.28703 -6.6902,14.7912 -15.2121,40.2798 -18.5713,55.54572 -11.5137,52.32387 -4.7263,96.5777 16.4958,107.55207 6.8926,3.56428 17.4353,3.85543 27.3993,0.75666 z m -13.7445,-31.87782 c -7.8126,-4.23871 -10.5328,-21.77073 -7.256,-46.76696 6.3539,-48.47059 25.5109,-95.14674 48.6653,-118.57364 15.2459,-15.42519 25.1522,-16.23796 27.7991,-2.28078 2.9259,15.4282 -6.978,81.87916 -16.6465,111.69047 -8.3829,25.84755 -24.211,48.35051 -38.781,55.13518 -5.7734,2.68848 -9.8576,2.92431 -13.7809,0.79573 z m 20.9096,-37.12158 c 10.2288,-15.9902 17.4105,-37.82882 25.2654,-76.82957 3.3628,-16.69638 4.2306,-26.53264 2.3981,-27.18013 -1.7394,-0.6146 -8.6026,11.63232 -13.8373,24.69166 -10.523,26.25271 -23.4746,77.39792 -21.1402,83.48134 1.1296,2.94373 3.7057,1.47735 7.314,-4.1633 z M 1594.5,719.66915 c 53.4137,-13.52754 104.3264,-51.66285 142.9701,-107.08944 3.6735,-5.26884 6.9402,-9.57971 7.2594,-9.57971 0.3192,0 5.3481,1.53027 11.1754,3.4006 14.5578,4.67247 25.782,6.01386 44.3543,5.30073 24.2187,-0.92994 44.8927,-6.49294 69.4484,-18.68733 20.3577,-10.10968 35.9572,-21.05783 52.5099,-36.85297 l 7.7175,-7.36428 11.2086,2.23185 c 9.6641,1.9243 13.2169,2.15418 25.7825,1.66825 14.7839,-0.57172 22.1924,-1.97846 34.3243,-6.51757 12.7156,-4.75752 31.3599,-15.19683 32.0908,-17.96826 0.2482,-0.94106 2.8565,-14.03377 5.7962,-29.09491 l 5.345,-27.38388 -2.4653,-1.61612 c -6.3789,-4.18181 -10.7188,-8.03907 -13.4917,-11.99136 l -3.0254,-4.31228 0.069,-18.65624 c 0.069,-18.45937 0.9069,-27.15359 5.559,-57.65623 2.1769,-14.27312 3.3026,-18.4367 4.1908,-15.5 0.2495,0.825 0.958,7.575 1.5744,15 5.0615,60.9692 37.9939,103.83313 86.8816,113.08284 10.2307,1.93568 33.5907,0.6271 45.7248,-2.56141 48.5959,-12.76965 90.5568,-48.62514 121.346,-103.68988 26.2338,-46.91748 40.7284,-103.9439 38.8458,-152.83155 -2.2184,-57.60538 -23.9836,-97.75925 -62.8483,-115.94656 -24.4693,-11.45079 -54.9222,-12.9173 -82.9805,-3.99607 -11.5157,3.66146 -31.8056,14.44561 -42.863,22.7818 -19.6038,14.77936 -41.2529,39.26371 -57.0007,64.46567 -6.5535,10.4878 -18.0692,32.44569 -23.9647,45.69516 -1.8549,4.16867 -3.5114,6.7918 -3.7293,5.90559 -0.5033,-2.04689 9.0483,-44.62908 16.7402,-74.62995 3.275,-12.7734 5.9545,-23.9109 5.9545,-24.75 0,-0.8391 -0.8147,-1.52564 -1.8105,-1.52564 -0.9958,0 -14.1583,3.16999 -29.25,7.04442 -46.8131,12.01812 -60.1002,15.69665 -83.7545,23.18747 l -16.315,5.16661 -4.185,5.58592 c -2.3018,3.07225 -4.86,6.60997 -5.685,7.86159 -1.4328,2.1737 -1.7913,2.23002 -8,1.25692 -47.5992,-7.46025 -98.4561,7.93365 -139.4883,42.22174 -8.1649,6.8229 -9.5515,7.61825 -9.4589,5.42533 0.029,-0.6875 8.0567,-33.65 17.8392,-73.25 9.7826,-39.6 17.4414,-72.39494 17.0196,-72.87765 -0.7807,-0.893491 -7.4962,-0.34203 -42.6484,3.50221 l -19.2369,2.10373 -9.2631,-2.61128 c -29.9374,-8.439297 -62.8978,-3.51762 -99.2641,14.82222 -57.1708,28.83168 -114.0397,86.80234 -157.0188,160.06077 -19.4205,33.10252 -33.1975,63.53729 -45.4938,100.5 -17.6013,52.90952 -24.7084,91.55841 -25.6915,139.7119 -0.754,36.93177 1.1494,56.99495 7.7949,82.16292 16.4866,62.43774 60.6087,107.81352 116.9101,120.23173 12.6756,2.79582 38.5862,2.08641 52.5,-1.4374 z m -45.5913,-21.15226 c -22.9901,-4.37738 -47.0183,-18.13864 -64.7346,-37.07423 -21.7974,-23.29754 -35.1111,-52.96423 -40.8606,-91.04875 -2.5189,-16.6852 -2.5237,-68.94464 -0.01,-87.89391 8.0038,-60.28851 26.7801,-117.98187 56.1111,-172.41011 42.4129,-78.704 98.6863,-139.07401 157.3107,-168.76295 33.2472,-16.83724 65.8188,-20.82314 88.175,-10.79029 5.7913,2.59898 5.9421,2.61197 17.7194,1.52623 6.533,-0.60228 14.0158,-1.35505 16.6283,-1.67281 4.3267,-0.52626 4.75,-0.39275 4.75,1.49801 0,3.81285 -29.0207,118.56301 -30.2696,119.68823 -0.6767,0.60975 -5.2206,2.58332 -10.0975,4.38572 -9.7414,3.6002 -10.5881,3.39669 -10.6176,-2.55207 -0.025,-5.08484 -3.8219,-18.43535 -7.3685,-25.90996 -8.1965,-17.27473 -25.5817,-27.98835 -42.1468,-25.97298 -13.8823,1.68898 -24.938,7.84437 -36.8695,20.52764 -40.6309,43.19092 -69.0044,118.77563 -78.2477,208.44534 -2.4256,23.53139 -2.443,67.15759 -0.034,84.49991 4.6518,33.48319 11.8503,54.49225 22.7617,66.4311 12.6391,13.82916 25.9314,15.6066 45.3891,6.06941 24.9298,-12.21935 52.4398,-41.55955 67.978,-72.50042 l 4.2686,-8.5 0.5306,-22 c 1.236,-51.24069 12.9146,-99.71041 34.6963,-144 32.5864,-66.25914 80.4549,-106.26618 139.0146,-116.18415 12.5766,-2.13003 38.4513,-2.07865 50.0119,0.0993 4.675,0.88074 10.3518,1.87549 12.6151,2.21054 l 4.1152,0.60919 4.2444,-7.68909 c 2.3345,-4.229 5.2077,-8.7504 6.3849,-10.04755 2.7727,-3.05523 14.2442,-6.6813 78.9564,-24.95774 3.9755,-1.12279 4.9043,-1.12998 5.3221,-0.0412 0.2784,0.72543 -1.7473,12.04735 -4.5016,25.15983 -12.5592,59.79268 -23.4549,120.20998 -35.6787,197.84086 -3.2142,20.41282 -3.5754,24.57481 -3.2116,37 0.3291,11.23954 0.8288,15.06032 2.5343,19.37755 2.7818,7.04203 6.5887,12.43587 10.8015,15.30444 1.8724,1.27491 3.4074,3.13633 3.4112,4.1365 0.019,5.01554 -5.4536,31.39338 -6.8457,32.99697 -2.2991,2.64853 -14.4302,8.21892 -23.6475,10.85855 -6.7973,1.94659 -10.3303,2.29043 -23.5,2.28701 -16.5614,-0.004 -21.8176,-0.92412 -34.6758,-6.06819 l -6.5216,-2.60905 -3.1119,3.85811 c -25.0012,30.99578 -64.9949,55.45107 -103.6907,63.40462 -8.6945,1.78707 -12.6494,2.06774 -23,1.63223 -20.0472,-0.84349 -34.8787,-5.73662 -49.7966,-16.42874 -4.0287,-2.8875 -7.6837,-5.25 -8.1221,-5.25 -0.4384,0 -2.9533,4.1625 -5.5885,9.25 -24.426,47.15628 -62.3659,86.76098 -102.1872,106.6712 -11.506,5.7529 -26.9376,11.15224 -38.8056,13.57764 -11.3367,2.31683 -30.2199,2.80239 -39.5913,1.01805 z m 306.0015,-203.38807 c 21.7447,-8.27323 41.5005,-33.70617 52.671,-67.80685 9.5947,-29.29014 17.7874,-91.94298 14.5487,-111.26022 -2.3891,-14.24987 -8.6587,-21.41518 -21.0365,-24.04194 -7.7381,-1.64212 -13.3943,-0.73741 -21.8264,3.49116 -22.5289,11.29783 -44.6116,43.17102 -58.1902,83.98903 -15.3637,46.18448 -15.5501,89.45785 -0.4704,109.22838 6.93,9.08576 20.5613,11.6291 34.3038,6.40044 z M 1838.7507,466.25 c -3.6148,-3.78915 -4.7879,-7.39698 -5.4484,-16.75707 -1.573,-22.28945 7.4349,-61.55374 20.2855,-88.42224 C 1865.6737,335.80112 1882.2262,317 1892.3876,317 c 3.298,0 6.3489,4.06011 7.1712,9.54342 1.5765,10.51327 -5.3053,60.57452 -11.5581,84.07752 -5.5498,20.86075 -13.8192,37.10341 -24.3512,47.83037 -10.4081,10.60075 -19.5069,13.45065 -24.8988,7.79869 z m 18.4955,-32 c 3.1129,-3.50057 8.7138,-14.96511 11.748,-24.04701 5.2972,-15.85585 13.2997,-54.24239 11.6516,-55.89053 -4.6012,-4.60124 -24.5909,51.83581 -26.3653,74.43754 -0.5896,7.51075 0.077,8.74794 2.9657,5.5 z m -246.7785,132.89337 c -10.9653,-6.68696 -20.4742,-49.7551 -20.4544,-92.64337 0.03,-64.60626 15.9759,-137.50681 41.0131,-187.5 14.551,-29.05478 34.6525,-54.20534 48.4736,-60.64928 6.2871,-2.93127 9.3132,-2.94775 13.6021,-0.0741 9.4242,6.31431 14.9837,22.99313 17.9075,53.72338 0.6018,6.325 1.4083,11.80368 1.7923,12.17484 0.3839,0.37116 9.0231,-2.42249 19.1981,-6.20812 10.175,-3.78563 19.1106,-6.90181 19.857,-6.92484 1.9082,-0.0589 0.9992,1.8099 -4.6933,9.6492 -36.1254,49.74929 -59.7758,123.00971 -61.8553,191.60525 l -0.6001,19.79632 -4.9646,8.70368 c -10.6714,18.70863 -25.2187,35.9755 -40.6726,48.27632 -14.4963,11.53854 -21.9139,14.15013 -28.6034,10.07072 z m 19.1323,-33.971 c 6.3734,-4.62091 17.1887,-16.97649 24.3642,-27.8341 l 6.7155,-10.16173 0.643,-15.83827 c 1.9101,-47.05485 13.1827,-97.94264 31.2476,-141.06077 2.4364,-5.81512 4.4297,-10.94301 4.4297,-11.39532 0,-0.45231 -1.6875,-0.72333 -3.75,-0.60228 l -3.75,0.2201 -1.2065,-20.5 c -1.3693,-23.26547 -3.7051,-42.58616 -5.3948,-44.62211 -2.8493,-3.43312 -6.6041,-0.18815 -16.0798,13.89631 -26.3936,39.231 -45.3302,102.1873 -50.9014,169.2258 -2.1882,26.33123 0.1103,73.9221 4.1654,86.24229 0.9325,2.83334 3.1388,5.1321 5.0171,5.2273 0.3299,0.0167 2.3549,-1.24202 4.5,-2.79722 z m 500.9,-62.81867 c -32.5619,-5.24383 -57.031,-29.70718 -66.3694,-66.3537 -4.3254,-16.97385 -5.5809,-28.23625 -5.5181,-49.5 0.1758,-59.55988 20.5118,-119.50017 55.0103,-162.14285 9.9516,-12.30093 28.8856,-30.35657 40.4378,-38.56178 56.6982,-40.27155 115.3338,-32.08901 141.202,19.70463 4.3899,8.78955 9.2351,23.84018 11.345,35.24117 2.1579,11.66048 2.9447,41.23218 1.476,55.47783 -0.6397,6.20455 -2.4746,17.806 -4.0777,25.781 -17.9007,89.05498 -74.6932,160.60899 -140.9743,177.61624 -9.2607,2.3762 -26.0185,3.78634 -32.5316,2.73746 z m 47.5685,-89.94196 c 22.7556,-6.6541 40.4379,-36.19556 49.9267,-83.41174 8.399,-41.79359 5.7906,-71.83772 -7.4012,-85.24842 -5.6616,-5.75555 -9.093,-7.19956 -17.094,-7.19348 -8.8259,0.007 -15.2432,3.10854 -24.1748,11.68518 -15.6682,15.04538 -28.3241,41.30418 -34.4019,71.37815 -3.0253,14.96953 -3.8438,46.76168 -1.5454,60.02113 2.8982,16.71885 8.3691,27.79281 16.0424,32.47195 3.8372,2.33995 11.258,2.45823 18.6482,0.29723 z m -8.1561,-24.49939 c -3.2028,-3.20274 -4.7363,-7.81476 -6.0011,-18.04804 -4.3302,-35.03444 8.7178,-85.08169 27.0887,-103.9024 6.2563,-6.40951 9.9551,-7.87658 13.6894,-5.42976 4.9067,3.215 5.8076,7.3433 5.7756,26.46785 -0.074,44.06491 -15.697,92.82892 -32.5298,101.53353 -3.8313,1.98125 -5.5538,1.84788 -8.0228,-0.62118 z m 13.9663,-32.48656 c 4.799,-11.9554 11.3882,-42.19628 12.7487,-58.50951 0.5616,-6.7342 0.4311,-7.91628 -0.8735,-7.91628 -4.8354,0 -14.8549,36.25427 -17.3293,62.70392 -1.1295,12.07313 1.407,13.80401 5.4541,3.72187 z"
         id="path2997"
         inkscape:connector-curvature="0"
         sodipodi:nodetypes="sssssssscsscsscssssssssscscsssccssscsssssssscsccssssccssssssssssscsssssscsssssscscsscsssscsssssssscsssssssssssssssssssssssssssssssscsccsssssssssssscscssssssssssccsssssssssssccsssssssscscscscsssssssssssssscsssssssssscssccsssssssssssssssssssscssssssssssssssssssssssscssssssssssscssssssssscsssssssscssssssscscssscsssscssccsssssssssssssssssssssscsssssscssscsccsccscsssssssssssssssscsssscscscssssssscccsscsssssscscsssscssscsssssccsscsssccccscscssssssssccsssssssssssscssscssscsssssscscsscssscscscsscsssscccsssssssssssssscssssscssssscsssss" />
    </g>
  </g>
  <g
     style="display:inline"
     inkscape:label="white"
     id="g3073"
     inkscape:groupmode="layer"
     sodipodi:insensitive="true">
    <g
       transform="translate(97.438628,28.512041)"
       id="g3075"
       style="display:inline">
      <path
         style="fill:#ffffff"
         d="m 1163.6875,330.84375 c -1.8866,0.0624 -12.6129,2.49342 -24.9063,5.65625 -24.7959,6.3797 -147.4467,39.3437 -153.0312,41.125 -3.89697,1.24303 -4.18737,1.93646 -12.34375,30.875 -21.91094,77.73922 -44.31909,174.95602 -60.46875,262.25 -1.50084,8.1125 -3.13107,14.75 -3.59375,14.75 -0.46269,0 -3.55753,-5.36919 -6.90625,-11.9375 -14.95902,-29.34116 -34.28599,-48.83824 -61.46875,-62.09375 -31.83626,-15.52476 -70.12056,-19.81067 -106.03125,-11.84375 -28.85082,6.40065 -60.61514,22.6154 -89.5,45.65625 -5.22588,4.16857 -16.87982,14.92194 -25.90625,23.90625 -9.02643,8.98432 -16.67293,16.07707 -16.96875,15.78125 -0.29582,-0.29581 -0.003,-2.88058 0.625,-5.75 1.78058,-8.13887 37.50156,-153.24663 44.65625,-181.40625 4.70177,-18.50533 6.0967,-25.45722 5.25,-26.125 -1.2301,-0.97017 -32.05287,3.20504 -64.9375,8.8125 -17.7252,3.02249 -18.98435,3.12545 -22.65625,1.65625 -14.52772,-5.81284 -36.89582,-8.55117 -56.09375,-6.84375 -26.37172,2.34545 -48.79609,9.08097 -77.46875,23.25 -37.08183,18.32456 -68.33382,41.11844 -103.375,75.40625 C 203.19153,696.64433 124.07428,889.39843 131.53125,1054 c 1.47397,32.5358 5.00355,55.8106 12.34375,81.3125 18.12187,62.9602 60.82419,114.3933 114.84375,138.3437 29.28628,12.9849 55.92057,17.1598 85.03125,13.3438 66.11364,-8.6668 137.96628,-54.8462 191.0625,-122.8438 7.68414,-9.8404 21.69296,-30.3634 27.65625,-40.5 2.37737,-4.0407 4.82479,-7.5461 5.4375,-7.7812 0.61272,-0.2351 4.68219,1.6259 9.0625,4.125 22.64883,12.9221 51.16293,19.0069 77.90625,16.625 53.11681,-4.7309 102.31395,-28.688 145.96875,-71.0938 33.14564,-32.1971 59.24078,-69.04011 81.3125,-114.7812 4.04727,-8.3875 7.76495,-15.25 8.25,-15.25 0.48504,0 1.2044,1.4625 1.59375,3.25 2.86247,13.14157 11.76593,32.27613 19.65625,42.1875 9.63126,12.09824 23.82417,21.2074 39.28125,25.2187 9.96697,2.5867 37.55043,2.5673 49.5,-0.031 24.004,-5.2198 48.4738,-17.86243 74,-38.25 12.7754,-10.20359 36.9459,-34.96108 50.9063,-52.125 6.8216,-8.3875 12.6865,-15.25 13.0312,-15.25 0.3448,0 4.4352,1.62799 9.0938,3.59375 58.0326,24.48921 139.7461,3.48272 198.9687,-51.125 5.225,-4.81785 10.0938,-9.57447 10.8125,-10.59375 1.6732,-2.37297 3.714,-2.3336 15.25,0.3125 12.7597,2.92678 37.3758,3.14242 49.9062,0.4375 10.7384,-2.31798 26.333,-7.73324 35.4688,-12.3125 9.3518,-4.68746 20.168,-11.12609 21.5938,-12.84375 0.6282,-0.75716 4.0289,-15.89563 7.5624,-33.65625 l 6.4376,-32.3125 -3.2813,-2.4375 c -5.6743,-4.28144 -12.5765,-11.80074 -14.7187,-16 -4.1953,-8.22299 -5.3508,-15.52279 -4.6563,-29.5625 1.624,-32.83034 9.0421,-80.84457 24.1875,-156.5 9.3914,-46.91285 22.3673,-105.41065 31.4688,-142 3.8373,-15.42802 6.9687,-28.96966 6.9687,-30.09375 0,-2.52698 2.7932,-3.1225 -39.5,8.125 -54.0068,14.36264 -108.3832,30.48132 -113.2187,33.5625 -1.2231,0.77913 -4.5074,4.84319 -7.3126,9 -4.6136,6.83739 -5.3596,7.49187 -7.7812,7 -14.2114,-2.88657 -42.853,-3.40679 -60.375,-1.09375 -42.8597,5.65783 -82.1046,24.66082 -115.9062,56.15625 -20.4923,19.09379 -38.3901,41.06541 -53.8438,66.125 -15.4538,25.05959 -35.6425,65.58424 -45,104.6875 -5.8826,18.25384 44.8063,-218.08859 71.7812,-316.78125 2.3142,-8.46559 2.6838,-10.91824 1.6563,-11.3125 -0.045,-0.0173 -0.1242,-0.0354 -0.25,-0.0313 z m -38.0625,38.71875 c 0.4984,0.002 0.8125,0.0561 0.8125,0.1875 0,0.26271 -3.342,14.16279 -7.4375,30.875 -24.602,100.39195 -57.4473,268.28937 -73.2188,374.375 -3.1801,21.39139 -3.7248,27.61497 -3.7812,43.03125 l -0.063,18 3.3125,6.75 c 5.8372,11.86436 14.8611,14.72211 27.0625,8.625 10.1084,-5.05121 24.4369,-20.87612 31.625,-34.9375 2.2265,-4.35541 2.2911,-4.83977 1,-11 -2.3867,-11.38721 -3.7646,-31.78833 -3.0625,-45.46875 4.8734,-94.952 38.5417,-182.07349 91.5312,-236.875 19.6505,-20.32243 39.3392,-34.95964 61.5313,-45.71875 36.4546,-17.67379 76.9965,-22.91122 115.5,-14.90625 5.225,1.08628 10.2654,1.99278 11.1875,2 1.0105,0.008 2.9477,-2.28433 4.875,-5.75 7.2015,-12.94945 9.3727,-16.123 11.8438,-17.25 4.5657,-2.08237 26.7808,-8.91761 56.5937,-17.4375 34.1186,-9.75039 39.2864,-11.0886 40,-10.375 0.2937,0.2937 -1.463,9.71723 -3.9063,20.9375 -17.6775,81.17756 -46.6702,247.42199 -48.1874,276.375 -1.1023,21.03075 3.7409,36.35969 14.75,46.71875 l 6.0624,5.6875 -3.5312,18.625 c -2.1566,11.43257 -4.1093,19.31852 -5.0938,20.40625 -2.8326,3.13016 -18.3695,10.14501 -28.375,12.8125 -8.521,2.27176 -11.7423,2.57679 -26.2187,2.625 -18.2972,0.0609 -27.5472,-1.56831 -41.2187,-7.3125 l -7.0313,-2.96875 -3.125,3.65625 c -21.6666,25.20201 -41.4113,41.16993 -68.625,55.53125 -43.6759,23.04884 -82.1671,27.47982 -118.0937,13.625 -7.9792,-3.07706 -23.5762,-12.65258 -27.3126,-16.78125 -1.0457,-1.15551 -2.3976,-2.09638 -3,-2.0625 -0.6021,0.0339 -4.9814,5.99638 -9.75,13.25 -32.5707,49.54536 -77.44,89.33285 -114.625,101.65625 -15.33562,5.08236 -36.36508,6.61687 -47.93745,3.5 -20.9443,-5.64109 -35.36565,-22.40125 -42.15625,-49 -9.5675,-37.4758 -5.59162,-98.87841 13.40625,-206.46875 17.59334,-99.63608 47.65513,-235.66944 65.84375,-298 6.3538,-21.77376 6.9726,-23.32277 9.7187,-24.65625 2.463,-1.19594 112.1624,-31.24732 117.1563,-32.09375 0.7563,-0.12817 1.4391,-0.1896 1.9375,-0.1875 z M 523.96875,507.71875 c 14.64835,0.0275 25.17129,2.09735 35.46875,6.84375 l 7,3.25 20.75,-4.15625 c 20.91899,-4.17958 25.30262,-4.77939 25.21875,-3.40625 -0.0252,0.4125 -9.13769,37.2 -20.25,81.75 l -20.21875,81 -12.5,4.71875 c -6.875,2.59403 -12.92955,4.58835 -13.4375,4.4375 -0.50795,-0.15086 -1.74045,-5.16931 -2.75,-11.1875 -2.79041,-16.63434 -7.44059,-29.24824 -14.6875,-39.78125 -7.16793,-10.41824 -20.77683,-19.97162 -32.15625,-22.59375 -6.56359,-1.51243 -19.67165,-1.29241 -26.5,0.4375 -3.27806,0.83047 -9.79375,3.35377 -14.46875,5.625 -7.61818,3.7011 -9.95241,5.60156 -22.5,18.25 C 412.24828,653.76176 398.00986,674.47253 382,707 c -10.83959,22.02294 -16.58437,36.13193 -24.59375,60.5 -13.39397,40.75041 -23.12518,88.09574 -28.5,138.5 -2.14932,20.15608 -3.0811,75.67457 -1.5625,94 4.49021,54.1847 17.96977,94.0512 37,109.3438 11.09282,8.9139 25.88658,11.5412 40.34375,7.1874 29.6864,-8.9393 67.30131,-42.8681 92.3125,-83.2187 8.65942,-13.9703 20.65974,-39.49626 26.21875,-55.8125 l 4.9375,-14.5 0.625,-17 c 2.00301,-55.45472 16.40587,-111.40342 42.25,-164 27.3161,-55.59226 73.42535,-105.25403 123.40625,-132.9375 31.36419,-17.37203 64.86972,-25.5257 93.03125,-22.625 47.42598,4.88496 81.60984,33.85056 98,82.96875 6.53452,19.58272 9.11958,35.98296 9.71875,61.84375 0.31597,13.63739 0.0411,27.09438 -0.6875,34.84375 -5.75692,61.23019 -30.26656,129.4153 -65.59375,182.40625 -36.79024,55.1855 -86.79804,95.5264 -139.34375,112.4062 -52.83976,16.9749 -94.83897,6.9966 -127.15625,-30.1874 -4.99999,-5.7532 -6.5604,-7.0159 -7.46875,-6 -0.63276,0.7074 -3.08706,5.7812 -5.4375,11.2812 -15.77852,36.9216 -42.18179,76.2088 -71.5,106.3438 -42.69434,43.8834 -89.65486,68.988 -138.71875,74.1562 -8.6684,0.913 -22.36427,1.1817 -25.84375,0.5 -0.825,-0.1616 -4.875,-0.8397 -9,-1.5 -35.28076,-5.6481 -72.85929,-29.8026 -97.65625,-62.75 -23.60351,-31.3617 -37.09918,-68.9009 -42.5,-118.25 -1.63269,-14.9184 -1.6133,-68.6892 0.0313,-84.5 6.3475,-61.02532 19.85042,-115.47582 42.90625,-173 46.89918,-117.01323 126.63068,-220.48251 210.90625,-273.75 14.74537,-9.32 41.47675,-22.51255 54.8125,-27.03125 17.72529,-6.00605 27.20739,-7.78448 44.5,-8.375 2.27338,-0.0776 4.43863,-0.12892 6.53125,-0.125 z M 483.625,637.3125 c 15.91279,-0.0966 27.07532,24.39391 30.8125,67.6875 1.64317,19.03534 1.99808,21.5 3.21875,21.5 0.60751,0 16.80708,-5.85 36,-13 19.19291,-7.15 35.10288,-13 35.34375,-13 1.46364,0 -0.5968,3.50317 -8.875,15.0625 -47.13151,65.81239 -76.59798,146.28561 -81.6875,223.125 -0.94267,14.23204 -1.40696,16.73917 -5.03125,27.25 -14.82185,42.985 -39.61677,79.3102 -71.875,105.2187 -18.98495,15.2482 -28.40307,18.9068 -36.5,14.1563 -10.42635,-6.1171 -18.03365,-26.7238 -23.5625,-63.8437 -3.27946,-22.01794 -4.34109,-42.19587 -3.6875,-69.9688 2.64808,-112.52489 36.58629,-224.55155 86.1875,-284.5 17.16388,-20.74442 29.0299,-29.62302 39.65625,-29.6875 z"
         transform="translate(-97.438628,-28.512041)"
         id="path3121"
         inkscape:connector-curvature="0" />
      <path
         style="fill:#ffffff"
         d="m 745.4375,733.5 c -25.127,0 -54.17776,28.76331 -73.5625,72.84375 -14.55853,33.10577 -21.77476,67.88406 -21.8125,105.15625 -0.0299,29.49848 3.8856,48.34232 12.71875,61.25 6.02047,8.79757 11.86624,11.75 23.09375,11.75 4.57783,0 10.59434,-0.70302 13.625,-1.59375 10.52508,-3.09338 18.92572,-8.35159 28.53125,-17.875 10.0529,-9.96694 16.72504,-19.27896 24.84375,-34.75 20.76861,-39.57675 36.1207,-107.479 32.625,-144.3125 -1.3441,-14.16254 -3.12178,-21.03057 -8.0625,-31.125 -6.98063,-14.26219 -17.60229,-21.34375 -32,-21.34375 z m -2.625,31.1875 c 4.50518,-0.22387 8.22262,2.16845 10.84375,7.09375 2.02788,3.81052 2.31336,5.9204 2.625,21.15625 0.39357,19.24135 -0.70937,30.85272 -4.84375,51.5625 -8.61281,43.14285 -24.74338,81.3658 -41.59375,98.625 -5.52476,5.6588 -12.01813,9.33774 -16.625,9.375 -1.63469,0.0132 -4.11968,-1.22331 -6.25,-3.09375 -2.65062,-2.32728 -4.09854,-4.89911 -5.78125,-10.25 -2.04429,-6.50069 -2.25576,-9.09012 -2.21875,-28.65625 0.0446,-23.55893 1.38515,-34.9914 6.5,-55.9375 9.6535,-39.53259 32.09538,-78.42062 50.75,-87.9375 2.3407,-1.19414 4.54594,-1.83574 6.59375,-1.9375 z"
         transform="translate(-97.438628,-28.512041)"
         id="path3117"
         inkscape:connector-curvature="0" />
      <path
         style="fill:#ffffff"
         d="m 1318.2812,539.625 c -0.5526,0.004 -1.0866,0.0313 -1.625,0.0625 -24.0023,1.38888 -53.2386,31.52213 -73.0312,75.28125 -6.6902,14.7912 -15.2346,40.26533 -18.5938,55.53125 -11.5136,52.32387 -4.722,96.58813 16.5,107.5625 6.8927,3.56428 17.4423,3.84877 27.4063,0.75 26.7674,-8.32461 50.8537,-37.46445 64.3437,-77.8125 9.5281,-28.49767 18.3887,-83.11143 18.5626,-114.5 0.1239,-22.40451 -2.6596,-32.62668 -10.8438,-39.8125 -4.7398,-4.16165 -14.4286,-7.11857 -22.7188,-7.0625 z m -2.1874,29.78125 c 4.2331,0.0679 7.0717,3.36382 8.3124,9.90625 2.9259,15.4282 -6.9877,81.87619 -16.6562,111.6875 -8.3829,25.84755 -24.2112,48.37158 -38.7812,55.15625 -5.7735,2.68848 -9.858,2.90983 -13.7813,0.78125 -7.8126,-4.23871 -10.5268,-21.75377 -7.25,-46.75 6.3539,-48.47059 25.5019,-95.16685 48.6563,-118.59375 8.0993,-8.19463 14.7024,-12.26451 19.5,-12.1875 z"
         transform="translate(-97.438628,-28.512041)"
         id="path3105"
         inkscape:connector-curvature="0" />
      <path
         style="fill:#ffffff"
         d="m 1813.25,128.125 c -21.9066,-0.0571 -45.3107,6.20386 -70.3125,18.8125 -57.1708,28.83168 -114.0521,86.80407 -157.0313,160.0625 -19.4202,33.10252 -33.1724,63.53729 -45.4687,100.5 -17.6013,52.90952 -24.7359,91.56526 -25.7187,139.71875 -0.7542,36.93177 1.1671,56.98828 7.8124,82.15625 16.4869,62.43774 60.6049,107.83179 116.9063,120.25 12.6756,2.79582 38.5862,2.08631 52.5,-1.4375 53.4137,-13.52754 104.3252,-51.66716 142.9687,-107.09375 3.6738,-5.26884 6.9311,-9.59375 7.25,-9.59375 0.3194,0 5.3601,1.53592 11.1876,3.40625 14.5576,4.67247 25.7714,6.02563 44.3437,5.3125 24.2187,-0.92994 44.9133,-6.49311 69.4687,-18.6875 20.3578,-10.10968 35.9475,-21.04861 52.5,-36.84375 l 7.7188,-7.375 11.2188,2.21875 c 9.6639,1.9243 13.2156,2.17343 25.7812,1.6875 14.7839,-0.57172 22.1806,-1.99214 34.3125,-6.53125 12.7156,-4.75752 31.3628,-15.19732 32.0937,-17.96875 0.2482,-0.94106 2.8416,-14.03261 5.7813,-29.09375 l 5.3437,-27.375 -2.4374,-1.625 c -6.379,-4.18181 -10.7274,-8.04771 -13.5,-12 l -3.0313,-4.3125 0.063,-18.65625 c 0.069,-18.45937 0.9104,-27.15361 5.5625,-57.65625 2.1769,-14.27312 3.2993,-18.4367 4.1875,-15.5 0.2495,0.825 0.9774,7.575 1.5938,15 5.0614,60.9692 37.9872,103.84404 86.875,113.09375 10.2307,1.93568 33.5846,0.62601 45.7187,-2.5625 48.5959,-12.76965 90.5547,-48.62276 121.3437,-103.6875 26.2338,-46.91748 40.7264,-103.9561 38.8438,-152.84375 -2.2184,-57.60538 -23.9788,-97.75019 -62.8438,-115.9375 -24.4692,-11.45079 -54.9104,-12.92123 -82.9687,-4 -11.5157,3.66146 -31.8176,14.44506 -42.875,22.78125 -19.6038,14.77936 -41.2522,39.26679 -57,64.46875 -6.5535,10.4878 -18.0732,32.43803 -23.9687,45.6875 -1.8551,4.16867 -3.5009,6.79246 -3.7188,5.90625 -0.5033,-2.04689 9.0266,-44.62413 16.7188,-74.625 3.275,-12.7734 5.9687,-23.9109 5.9687,-24.75 0,-0.8391 -0.8167,-1.53125 -1.8125,-1.53125 -0.9958,0 -14.1583,3.18807 -29.25,7.0625 -46.8131,12.01812 -60.0957,15.69668 -83.75,23.1875 l -16.3125,5.15625 -4.1875,5.59375 c -2.3018,3.07225 -4.8625,6.59213 -5.6875,7.84375 -1.4328,2.1737 -1.7913,2.25435 -8,1.28125 -47.5992,-7.46025 -98.4678,7.93066 -139.5,42.21875 -8.1649,6.8229 -9.5301,7.59917 -9.4375,5.40625 0.029,-0.6875 8.0611,-33.65 17.8438,-73.25 9.7826,-39.6 17.4216,-72.39229 17,-72.875 -0.7808,-0.89349 -7.5041,-0.34424 -42.6563,3.5 l -19.2187,2.125 -9.2813,-2.625 c -9.3554,-2.63728 -18.9799,-3.97403 -28.9375,-4 z m 0.125,25.5 c 10.7536,-0.11889 20.585,1.67518 28.9688,5.4375 5.791,2.59898 5.9414,2.58574 17.7187,1.5 6.533,-0.60228 14.0125,-1.33849 16.625,-1.65625 4.3267,-0.52626 4.75,-0.39076 4.75,1.5 0,3.81285 -29.0322,118.56228 -30.2813,119.6875 -0.6766,0.60975 -5.2168,2.5726 -10.0937,4.375 -9.7414,3.6002 -10.5955,3.41751 -10.625,-2.53125 -0.025,-5.08484 -3.7973,-18.46289 -7.3437,-25.9375 -8.1966,-17.27473 -25.5912,-27.98412 -42.1563,-25.96875 -13.8823,1.68898 -24.9435,7.84798 -36.875,20.53125 -40.6309,43.19092 -69.0067,118.76779 -78.25,208.4375 -2.4256,23.53139 -2.44,67.15768 -0.031,84.5 4.6521,33.48319 11.8699,54.49865 22.7813,66.4375 12.6391,13.82916 25.9173,15.59969 45.375,6.0625 24.9298,-12.21935 52.4307,-41.55913 67.9687,-72.5 l 4.2813,-8.5 0.5313,-22 c 1.2358,-51.24069 12.9057,-99.71041 34.6874,-144 32.5867,-66.25914 80.4716,-106.26953 139.0313,-116.1875 12.5766,-2.13003 38.4394,-2.05295 50,0.125 4.675,0.88074 10.3617,1.85245 12.625,2.1875 l 4.0937,0.625 4.25,-7.6875 c 2.3345,-4.229 5.1978,-8.76535 6.375,-10.0625 2.7727,-3.05523 14.2566,-6.66106 78.9688,-24.9375 3.9755,-1.12279 4.8947,-1.15128 5.3125,-0.0625 0.2784,0.72543 -1.7457,12.04377 -4.5,25.15625 -12.5592,59.79268 -23.4324,120.21287 -35.6563,197.84375 -3.2139,20.41282 -3.5825,24.57481 -3.2187,37 0.3291,11.23954 0.8256,15.05777 2.5313,19.375 2.7817,7.04203 6.5997,12.44393 10.8124,15.3125 1.8725,1.27491 3.4025,3.15608 3.4063,4.15625 0.019,5.01554 -5.4516,31.36516 -6.8437,32.96875 -2.2992,2.64853 -14.439,8.23537 -23.6563,10.875 -6.7973,1.94659 -10.3303,2.28467 -23.5,2.28125 -16.5614,-0.004 -21.8293,-0.91843 -34.6875,-6.0625 l -6.5,-2.625 -3.125,3.875 c -25.0012,30.99578 -64.9917,55.4527 -103.6875,63.40625 -8.6945,1.78707 -12.6494,2.06051 -23,1.625 -20.0472,-0.84349 -34.8946,-5.74538 -49.8125,-16.4375 -4.0287,-2.8875 -7.6551,-5.25 -8.0938,-5.25 -0.4384,0 -2.9585,4.1625 -5.5937,9.25 -24.426,47.15628 -62.3662,86.77728 -102.1875,106.6875 -11.506,5.7529 -26.9445,11.1371 -38.8125,13.5625 -11.3367,2.31683 -30.2226,2.81559 -39.5937,1.03125 -22.9903,-4.37738 -47.0025,-18.12691 -64.7188,-37.0625 -21.7974,-23.29754 -35.1255,-52.97798 -40.875,-91.0625 -2.5189,-16.6852 -2.5137,-68.95698 0,-87.90625 8.0038,-60.28851 26.7625,-117.97801 56.0938,-172.40625 42.4127,-78.704 98.6883,-139.06106 157.3124,-168.75 20.7798,-10.52328 41.2962,-16.0206 59.2188,-16.21875 z m 508.3125,3.21875 c 30.1528,-0.14474 56.0449,15.21305 71,45.15625 4.3899,8.78955 9.234,23.84901 11.3437,35.25 2.158,11.66048 2.9687,41.2231 1.5,55.46875 -0.6396,6.20455 -2.4906,17.80625 -4.0937,25.78125 -17.9007,89.05498 -74.6878,160.61775 -140.9687,177.625 -9.2608,2.3762 -26.0182,3.79888 -32.5313,2.75 -32.5619,-5.24383 -57.0366,-29.72848 -66.375,-66.375 -4.3254,-16.97385 -5.5628,-28.23625 -5.5,-49.5 0.1758,-59.55988 20.5015,-119.48232 55,-162.125 9.9516,-12.30093 28.8853,-30.35729 40.4375,-38.5625 23.9196,-16.98956 48.1841,-25.36313 70.1875,-25.46875 z M 1784.5,252.65625 c 2.0785,-0.0113 3.8868,0.68818 6.0312,2.125 9.4242,6.31431 14.9825,22.9885 17.9063,53.71875 0.6018,6.325 1.4285,11.81634 1.8125,12.1875 0.3839,0.37116 9.0125,-2.43312 19.1875,-6.21875 10.175,-3.78563 19.0974,-6.88322 19.8437,-6.90625 1.9083,-0.0589 1.0051,1.7857 -4.6874,9.625 -36.1254,49.74929 -59.7643,123.02946 -61.8438,191.625 l -0.5938,19.78125 -4.9687,8.71875 c -10.6714,18.70863 -25.2336,35.98043 -40.6875,48.28125 -14.4963,11.53854 -21.9043,14.14191 -28.5938,10.0625 -10.9653,-6.68696 -20.4885,-49.76798 -20.4687,-92.65625 0.03,-64.60626 15.9941,-137.50681 41.0313,-187.5 14.5509,-29.05478 34.6476,-54.18106 48.4687,-60.625 3.1436,-1.46564 5.484,-2.20743 7.5625,-2.21875 z"
         transform="translate(-97.438628,-28.512041)"
         id="path3099"
         inkscape:connector-curvature="0" />
      <path
         style="fill:#ffffff"
         d="m 1991.75,319.75 c -4.7515,0.0176 -9.2342,1.37411 -15.0312,4.28125 -22.5289,11.29783 -44.6402,43.15074 -58.2188,83.96875 -15.3637,46.18448 -15.5485,89.47947 -0.4688,109.25 6.93,9.08576 20.5701,11.63491 34.3126,6.40625 21.7446,-8.27323 41.517,-33.71182 52.6874,-67.8125 9.5948,-29.29014 17.77,-91.96401 14.5313,-111.28125 -2.3891,-14.24987 -8.6534,-21.40449 -21.0313,-24.03125 -2.4181,-0.51316 -4.6214,-0.78923 -6.7812,-0.78125 z m -1.9375,25.75 c 3.298,0 6.3652,4.07919 7.1875,9.5625 1.5765,10.51327 -5.3097,60.5595 -11.5625,84.0625 -5.5498,20.86075 -13.8117,37.11679 -24.3437,47.84375 -10.4082,10.60075 -19.5144,13.43321 -24.9063,7.78125 -3.6148,-3.78915 -4.777,-7.38991 -5.4375,-16.75 -1.573,-22.28945 7.4306,-61.53775 20.2812,-88.40625 12.086,-25.26957 28.6199,-44.09375 38.7813,-44.09375 z"
         transform="translate(-97.438628,-28.512041)"
         id="path3095"
         inkscape:connector-curvature="0" />
      <path
         style="fill:#ffffff"
         d="m 2300.9375,233.0625 c -8.8259,0.007 -15.2559,3.11086 -24.1875,11.6875 -15.6682,15.04538 -28.2972,41.30103 -34.375,71.375 -3.0253,14.96953 -3.8609,46.7718 -1.5625,60.03125 2.8982,16.71885 8.358,27.78961 16.0313,32.46875 3.8371,2.33995 11.266,2.4735 18.6562,0.3125 22.7556,-6.6541 40.4487,-36.22132 49.9375,-83.4375 8.399,-41.79359 5.7855,-71.8393 -7.4063,-85.25 -5.6615,-5.75555 -9.0927,-7.19358 -17.0937,-7.1875 z m -2.375,22.875 c 1.2392,-0.0312 2.3955,0.32912 3.5625,1.09375 4.9067,3.215 5.8133,7.3442 5.7812,26.46875 -0.074,44.06491 -15.6984,92.82664 -32.5312,101.53125 -3.8313,1.98125 -5.5622,1.87531 -8.0312,-0.59375 -3.2029,-3.20274 -4.7353,-7.82922 -6,-18.0625 -4.3302,-35.03444 8.7228,-85.08554 27.0937,-103.90625 4.3012,-4.40654 7.3988,-6.46263 10.125,-6.53125 z"
         transform="translate(-97.438628,-28.512041)"
         id="path3083"
         inkscape:connector-curvature="0" />
    </g>
  </g>
  <g
     inkscape:groupmode="layer"
     id="layer1"
     inkscape:label="blue"
     style="display:inline"
     transform="translate(100,100)"
     sodipodi:insensitive="true">
    <path
       transform="translate(-2.561372,-71.487959)"
       style="fill:#0419db;display:inline"
       d="m 216,1228.4741 c -0.825,-0.1616 -4.875,-0.8342 -9,-1.4945 -35.28076,-5.6481 -72.86898,-29.7958 -97.66594,-62.7432 C 85.730545,1132.8747 72.245298,1095.3491 66.844473,1046 c -1.63269,-14.9184 -1.611947,-68.68924 0.0326,-84.5 6.347504,-61.02532 19.852634,-115.47582 42.908467,-173 46.89918,-117.01323 126.62234,-220.50352 210.89791,-273.77101 14.74537,-9.32 41.4808,-22.49553 54.81655,-27.01423 17.72529,-6.00605 27.20739,-7.79226 44.5,-8.38278 18.18703,-0.62107 30.22198,1.30875 41.99051,6.73321 l 7.00101,3.22698 20.75424,-4.14666 c 20.91899,-4.17958 25.2923,-4.76865 25.20843,-3.39551 -0.0252,0.4125 -9.13769,37.2 -20.25,81.75 L 474.5,644.5 462,649.21644 c -6.875,2.59403 -12.91559,4.593 -13.42354,4.44215 -0.50795,-0.15086 -1.74953,-5.19825 -2.75908,-11.21644 -2.79041,-16.63434 -7.44031,-29.21995 -14.68722,-39.75296 -7.16793,-10.41824 -20.77855,-19.98765 -32.15797,-22.60978 -6.56359,-1.51243 -19.68374,-1.29938 -26.51209,0.43053 -3.27806,0.83047 -9.7851,3.36822 -14.4601,5.63945 -7.61818,3.7011 -9.95241,5.59359 -22.5,18.24203 -20.68922,20.85551 -34.93741,41.58111 -50.94727,74.10858 -10.83959,22.02294 -16.57216,36.13193 -24.58154,60.5 -13.39397,40.75041 -23.14239,88.09574 -28.51721,138.5 -2.14932,20.15608 -3.05929,75.67457 -1.54069,94 4.49021,54.1847 17.97716,94.0238 37.00739,109.3162 11.09282,8.914 25.866,11.5508 40.32317,7.1972 29.6864,-8.9396 67.32076,-42.8534 92.33195,-83.204 8.65942,-13.97026 20.64153,-39.49316 26.20054,-55.8094 l 4.94022,-14.5 0.61403,-17 c 2.00301,-55.45472 16.42219,-111.40342 42.26632,-164 C 500.91301,697.90774 547.0191,648.23544 597,620.55197 c 31.36419,-17.37203 64.85882,-25.51494 93.02035,-22.61424 47.42598,4.88496 81.62217,33.82281 98.01233,82.941 6.53452,19.58272 9.11023,35.99061 9.7094,61.8514 0.31597,13.63739 0.056,27.1129 -0.67262,34.86227 -5.75692,61.23019 -30.28285,129.41665 -65.61004,182.4076 -36.79024,55.1855 -86.77917,95.5107 -139.32488,112.3908 -52.83976,16.9746 -94.8401,7.0069 -127.15738,-30.1773 -4.99999,-5.753 -6.5749,-7.0157 -7.48325,-6 -0.63276,0.7076 -3.07356,5.7865 -5.424,11.2865 -15.77852,36.9216 -42.18255,76.1831 -71.50076,106.318 -42.69434,43.8836 -89.67041,68.9959 -138.7343,74.1641 -8.6684,0.913 -22.35537,1.1737 -25.83485,0.492 z M 602.0685,954.40365 c 10.52508,-3.09338 18.92562,-8.35839 28.53115,-17.8818 10.0529,-9.96694 16.71456,-19.29244 24.83327,-34.76348 20.76861,-39.57675 36.11346,-107.45787 32.61776,-144.29137 -1.3441,-14.16254 -3.12444,-21.03398 -8.06516,-31.12841 C 673.00489,712.0764 662.39771,705 648,705 622.873,705 593.8328,733.75882 574.44806,777.83926 559.88953,810.94503 552.67564,845.72781 552.6379,883 c -0.0299,29.49848 3.87689,48.31763 12.71004,61.22531 6.02047,8.79757 11.85724,11.77469 23.08475,11.77469 4.57783,0 10.60515,-0.70562 13.63581,-1.59635 z m 260.20601,-2.94269 c -20.9443,-5.64109 -35.36749,-22.40702 -42.15809,-49.00577 -9.5675,-37.4758 -5.57676,-98.86485 13.42111,-206.45519 17.59334,-99.63608 47.64608,-235.66944 65.8347,-298 6.35378,-21.77376 6.96968,-23.33769 9.71585,-24.67117 2.46294,-1.19594 112.16802,-31.2433 117.16192,-32.08973 1.5125,-0.25635 2.75,-0.25115 2.75,0.0116 0,0.26271 -3.3508,14.15129 -7.4463,30.8635 -24.60197,100.39195 -57.43375,268.3002 -73.2052,374.38583 -3.1802,21.39139 -3.72619,27.60064 -3.78259,43.01692 l -0.0659,18.01691 3.3089,6.72545 c 5.83724,11.86436 14.85474,14.74741 27.05613,8.6503 10.10838,-5.05121 24.45499,-20.90423 31.64306,-34.96561 2.2265,-4.35541 2.2695,-4.83977 0.9784,-11 -2.3867,-11.38721 -3.7559,-31.76355 -3.0538,-45.44397 4.8734,-94.952 38.5436,-182.09277 91.5332,-236.89428 19.6505,-20.32243 39.342,-34.94963 61.5341,-45.70874 36.4546,-17.67379 76.9965,-22.90329 115.5,-14.89832 5.225,1.08628 10.2545,1.98098 11.1766,1.9882 1.0105,0.008 2.947,-2.27119 4.8743,-5.73686 7.2015,-12.94945 9.3856,-16.12791 11.8566,-17.25491 4.5657,-2.08237 26.7796,-8.9331 56.5925,-17.45299 34.1186,-9.75039 39.2848,-11.09068 39.9984,-10.37708 0.2937,0.2937 -1.4652,9.71422 -3.9085,20.93449 -17.6776,81.17756 -46.6571,247.44748 -48.1744,276.40049 -1.1022,21.03075 3.7289,36.3378 14.738,46.69686 l 6.0544,5.69686 -3.5131,18.62405 c -2.1566,11.43257 -4.1324,19.30826 -5.1168,20.39599 -2.8327,3.13016 -18.3605,10.14248 -28.3659,12.80997 -8.521,2.27176 -11.7357,2.59606 -26.2121,2.64427 -18.2972,0.0609 -27.5596,-1.58568 -41.2312,-7.32987 l -7.0185,-2.94887 -3.1251,3.6351 c -21.6666,25.20201 -41.4115,41.18335 -68.6252,55.54467 -43.6759,23.04884 -82.1568,27.49333 -118.0835,13.63851 -7.9791,-3.07706 -23.5888,-12.67794 -27.3252,-16.80661 -1.0457,-1.15551 -2.394,-2.07321 -2.9963,-2.03933 -0.6022,0.0339 -4.9965,5.99638 -9.765,13.25 -32.57076,49.54536 -77.4197,89.32341 -114.60469,101.64681 -15.33567,5.08236 -36.37842,6.61942 -47.95079,3.50255 z M 1171.5,750.30873 c 26.7674,-8.32461 50.8661,-37.46068 64.3562,-77.80873 9.5281,-28.49767 18.3757,-83.11143 18.5495,-114.5 0.124,-22.40451 -2.6604,-32.62635 -10.8446,-39.81217 -5.0558,-4.43909 -15.7399,-7.51902 -24.354,-7.02058 -24.0024,1.38888 -53.2383,31.52791 -73.0309,75.28703 -6.6902,14.7912 -15.2121,40.2798 -18.5713,55.54572 -11.5137,52.32387 -4.7263,96.5777 16.4958,107.55207 6.8926,3.56428 17.4353,3.85543 27.3993,0.75666 z m 377.4087,-51.79184 c -22.9901,-4.37738 -47.0183,-18.13864 -64.7346,-37.07423 -21.7974,-23.29754 -35.1111,-52.96423 -40.8606,-91.04875 -2.5189,-16.6852 -2.5237,-68.94464 -0.01,-87.89391 8.0038,-60.28851 26.7801,-117.98187 56.1111,-172.41011 42.4129,-78.704 98.6863,-139.07401 157.3107,-168.76295 33.2472,-16.83724 65.8188,-20.82314 88.175,-10.79029 5.7913,2.59898 5.9421,2.61197 17.7194,1.52623 6.533,-0.60228 14.0158,-1.35505 16.6283,-1.67281 4.3267,-0.52626 4.75,-0.39275 4.75,1.49801 0,3.81285 -29.0207,118.56301 -30.2696,119.68823 -0.6767,0.60975 -5.2206,2.58332 -10.0975,4.38572 -9.7414,3.6002 -10.5881,3.39669 -10.6176,-2.55207 -0.025,-5.08484 -3.8219,-18.43535 -7.3685,-25.90996 -8.1965,-17.27473 -25.5817,-27.98835 -42.1468,-25.97298 -13.8823,1.68898 -24.938,7.84437 -36.8695,20.52764 -40.6309,43.19092 -69.0044,118.77563 -78.2477,208.44534 -2.4256,23.53139 -2.443,67.15759 -0.034,84.49991 4.6518,33.48319 11.8503,54.49225 22.7617,66.4311 12.6391,13.82916 25.9314,15.6066 45.3891,6.06941 24.9298,-12.21935 52.4398,-41.55955 67.978,-72.50042 l 4.2686,-8.5 0.5306,-22 c 1.236,-51.24069 12.9146,-99.71041 34.6963,-144 32.5864,-66.25914 80.4549,-106.26618 139.0146,-116.18415 12.5766,-2.13003 38.4513,-2.07865 50.0119,0.0993 4.675,0.88074 10.3518,1.87549 12.6151,2.21054 l 4.1152,0.60919 4.2444,-7.68909 c 2.3345,-4.229 5.2077,-8.7504 6.3849,-10.04755 2.7727,-3.05523 14.2442,-6.6813 78.9564,-24.95774 3.9755,-1.12279 4.9043,-1.12998 5.3221,-0.0412 0.2784,0.72543 -1.7473,12.04735 -4.5016,25.15983 -12.5592,59.79268 -23.4549,120.20998 -35.6787,197.84086 -3.2142,20.41282 -3.5754,24.57481 -3.2116,37 0.3291,11.23954 0.8288,15.06032 2.5343,19.37755 2.7818,7.04203 6.5887,12.43587 10.8015,15.30444 1.8724,1.27491 3.4074,3.13633 3.4112,4.1365 0.019,5.01554 -5.4536,31.39338 -6.8457,32.99697 -2.2991,2.64853 -14.4302,8.21892 -23.6475,10.85855 -6.7973,1.94659 -10.3303,2.29043 -23.5,2.28701 -16.5614,-0.004 -21.8176,-0.92412 -34.6758,-6.06819 l -6.5216,-2.60905 -3.1119,3.85811 c -25.0012,30.99578 -64.9949,55.45107 -103.6907,63.40462 -8.6945,1.78707 -12.6494,2.06774 -23,1.63223 -20.0472,-0.84349 -34.8787,-5.73662 -49.7966,-16.42874 -4.0287,-2.8875 -7.6837,-5.25 -8.1221,-5.25 -0.4384,0 -2.9533,4.1625 -5.5885,9.25 -24.426,47.15628 -62.3659,86.76098 -102.1872,106.6712 -11.506,5.7529 -26.9376,11.15224 -38.8056,13.57764 -11.3367,2.31683 -30.2199,2.80239 -39.5913,1.01805 z m 306.0015,-203.38807 c 21.7447,-8.27323 41.5005,-33.70617 52.671,-67.80685 9.5947,-29.29014 17.7874,-91.94298 14.5487,-111.26022 -2.3891,-14.24987 -8.6587,-21.41518 -21.0365,-24.04194 -7.7381,-1.64212 -13.3943,-0.73741 -21.8264,3.49116 -22.5289,11.29783 -44.6116,43.17102 -58.1902,83.98903 -15.3637,46.18448 -15.5501,89.45785 -0.4704,109.22838 6.93,9.08576 20.5613,11.6291 34.3038,6.40044 z M 2130.5,470.3537 c -32.5619,-5.24383 -57.031,-29.70718 -66.3694,-66.3537 -4.3254,-16.97385 -5.5809,-28.23625 -5.5181,-49.5 0.1758,-59.55988 20.5118,-119.50017 55.0103,-162.14285 9.9516,-12.30093 28.8856,-30.35657 40.4378,-38.56178 56.6982,-40.27155 115.3338,-32.08901 141.202,19.70463 4.3899,8.78955 9.2351,23.84018 11.345,35.24117 2.1579,11.66048 2.9447,41.23218 1.476,55.47783 -0.6397,6.20455 -2.4746,17.806 -4.0777,25.781 -17.9007,89.05498 -74.6932,160.60899 -140.9743,177.61624 -9.2607,2.3762 -26.0185,3.78634 -32.5316,2.73746 z m 47.5685,-89.94196 c 22.7556,-6.6541 40.4379,-36.19556 49.9267,-83.41174 8.399,-41.79359 5.7906,-71.83772 -7.4012,-85.24842 -5.6616,-5.75555 -9.093,-7.19956 -17.094,-7.19348 -8.8259,0.007 -15.2432,3.10854 -24.1748,11.68518 -15.6682,15.04538 -28.3241,41.30418 -34.4019,71.37815 -3.0253,14.96953 -3.8438,46.76168 -1.5454,60.02113 2.8982,16.71885 8.3691,27.79281 16.0424,32.47195 3.8372,2.33995 11.258,2.45823 18.6482,0.29723 z"
       id="path2995"
       inkscape:connector-curvature="0" />
  </g>
</svg>
