<svg width="201" height="72" viewBox="0 0 201 72" fill="none" xmlns="http://www.w3.org/2000/svg">
<path d="M192.934 20.783C189.74 16.91 184.104 14.689 177.475 14.689C170.461 14.689 164.147 17.074 159.774 20.945L160.487 16.476L158.591 15.912C155.907 15.112 152.927 14.689 149.972 14.689C144.894 14.689 140.038 16.259 136.115 18.846L137.244 15.126H106.88L106.52 16.314C103.822 15.229 100.854 14.689 97.51 14.689C91.259 14.689 84.493 17.115 80.98 21.786C80.75 21.444 80.509 21.107 80.241 20.783C77.046 16.91 71.411 14.689 64.781 14.689C57.975 14.689 51.82 16.933 47.466 20.605L49.161 10.3L47.235 9.74301C43.946 8.79201 40.291 8.289 36.664 8.289C23.358 8.289 11.247 16.747 9.09299 27.543C8.17599 32.136 9.24699 36.585 12.106 40.072C14.543 43.043 18.142 45.161 22.418 46.243H9.23499V63.105H76.386L76.49 62.899L76.503 63.105H84.586L85.682 61.318L85.343 63.105H103.618L103.886 61.696C105.492 62.736 107.577 63.301 109.978 63.301C112.124 63.301 114.115 62.856 115.831 62.065L115.634 63.105H141.257L141.301 62.876C142.489 63.144 143.737 63.302 144.929 63.302C145.653 63.302 146.399 63.237 147.141 63.106H156.91L157.635 61.567H158.286L158.485 63.106H188.615L190.113 55.216H189.563L189.769 54.132H190.163L191.663 46.243H190.829C191.509 45.628 192.004 44.838 192.175 43.939C192.377 42.871 192.1 41.784 191.415 40.958C191.237 40.744 191.033 40.556 190.813 40.387C193.203 37.932 194.86 34.961 195.504 31.621C196.291 27.524 195.404 23.776 192.934 20.783ZM175.502 54.626H174.577L175.973 47.29C176.291 47.249 176.608 47.203 176.922 47.153L175.502 54.626ZM153.938 30.762C153.842 31.252 153.776 31.736 153.727 32.213C151.694 33.573 149.789 34.216 147.751 34.216C146.372 34.216 145.178 33.766 144.557 33.012C144.203 32.584 144.084 32.105 144.194 31.548C144.557 29.669 147.106 28.021 149.647 28.021C151.237 28.021 152.731 28.583 154.196 29.733C154.105 30.074 154.004 30.413 153.938 30.762ZM155.996 46.242L155.004 47.877L154.179 47.415C153.636 47.11 153.053 46.875 152.452 46.671C152.892 46.566 153.303 46.448 153.661 46.318L154.818 45.898L155.955 40.913C156.109 41.127 156.255 41.346 156.425 41.552C158.141 43.631 160.613 45.221 163.598 46.241L155.996 46.242ZM166.059 46.932L165.664 49.007L165.115 46.702C165.426 46.783 165.738 46.862 166.059 46.932ZM175.727 28.239C176.965 28.239 177.918 28.568 178.412 29.165C178.865 29.715 178.849 30.416 178.752 30.909C178.358 32.942 176.271 34.362 173.67 34.362C172.405 34.362 171.405 34.028 170.925 33.446C170.593 33.043 170.494 32.478 170.632 31.765C170.969 30.013 172.828 28.239 175.727 28.239ZM118.544 47.757C118.188 47.516 117.801 47.303 117.397 47.111H118.668L118.544 47.757ZM111.553 54.624C111.389 54.77 111.122 54.868 110.813 54.886C110.971 54.75 111.219 54.638 111.553 54.624ZM109.566 28.429L108.058 33.393C107.961 32.067 107.548 30.862 106.824 29.79C106.525 29.351 106.169 28.951 105.777 28.571L109.566 28.429ZM66.057 30.908C65.664 32.942 63.574 34.362 60.975 34.362C59.711 34.362 58.71 34.028 58.23 33.446C57.897 33.043 57.799 32.478 57.937 31.765C58.276 30.012 60.135 28.239 63.033 28.239C64.271 28.239 65.225 28.568 65.718 29.165C66.17 29.715 66.152 30.417 66.057 30.908ZM83.484 47.049L83.435 47.153L83.425 47.04C83.445 47.042 83.464 47.046 83.484 47.049ZM105.921 40.44L104.16 46.242H97.397C100.854 45.101 103.954 43.188 105.921 40.44ZM106.655 47.111H107.032C106.892 47.17 106.756 47.23 106.621 47.293L106.655 47.111ZM33.895 31.892C31.965 31.892 30.293 31.258 29.422 30.197C28.918 29.583 28.749 28.903 28.905 28.119C29.409 25.594 32.776 23.461 36.257 23.461C38.607 23.461 40.784 24.343 42.91 26.144C42.348 27.194 41.901 28.294 41.576 29.441C38.979 31.103 36.526 31.892 33.895 31.892ZM73.675 43.847L75.872 44.836C77.086 45.382 78.435 45.849 79.847 46.243H75.76L75.322 47.12L75.266 46.243H68.2C70.176 45.636 72.011 44.829 73.675 43.847ZM127.221 54.626L128.815 46.242H121.079L126.5 28.377L128.153 28.44C127.848 29.256 127.591 30.087 127.424 30.944C126.653 34.931 127.59 38.779 130.066 41.778C131.697 43.755 133.937 45.257 136.558 46.241H129.741L128.146 54.625L127.221 54.626ZM41.054 45.615L42.219 45.205L43.237 40.879C43.4 41.106 43.552 41.336 43.732 41.553C45.447 43.632 47.919 45.222 50.903 46.242H38.565C39.498 46.067 40.356 45.86 41.054 45.615ZM180.895 46.242C181.897 45.933 182.862 45.575 183.789 45.168C183.925 45.494 184.09 45.809 184.319 46.086C184.368 46.144 184.432 46.188 184.483 46.242H180.895Z" fill="white"/>
<path d="M73.147 48.5L73.613 55.869H73.731C73.972 55.116 74.24 54.33 74.616 53.593L77.156 48.5H81.283L81.907 55.869H82.025C82.24 55.148 82.482 54.394 82.812 53.691L85.292 48.5H90.893L83.319 60.847H78.622L78.208 54.133H78.031C77.851 54.773 77.693 55.394 77.401 56L74.986 60.847H70.406L67.565 48.5H73.147Z" fill="#005DAA"/>
<path d="M90.5 48.5H95.688L94.898 52.659H98.199L98.99 48.5H104.178L101.832 60.847H96.644L97.459 56.557H94.157L93.342 60.847H88.154L90.5 48.5Z" fill="#005DAA"/>
<path d="M119.373 54.706C118.62 58.669 114.493 61.043 109.975 61.043C105.454 61.043 102.229 58.668 102.983 54.706C103.72 50.825 107.895 48.303 112.395 48.303C116.895 48.303 120.109 50.825 119.373 54.706ZM108.395 54.771C108.126 56.179 109.083 57.146 110.714 57.146C112.346 57.146 113.669 56.179 113.938 54.771C114.186 53.46 113.334 52.364 111.624 52.364C109.912 52.365 108.643 53.461 108.395 54.771ZM120.553 48.5H125.938L124.344 56.884H128.865L128.111 60.846H118.206L120.553 48.5ZM141.604 56.425L141.844 56.606C142.688 57.228 143.751 57.736 144.99 57.736C145.521 57.736 146.4 57.555 146.506 56.999C146.612 56.443 145.914 56.394 145.44 56.311L144.389 56.148C142.344 55.836 140.774 54.804 141.139 52.873C141.698 49.942 145.211 48.304 148.434 48.304C150.124 48.304 151.613 48.649 152.926 49.385L150.871 52.546C150.047 52.022 149.083 51.612 147.923 51.612C147.452 51.612 146.735 51.758 146.641 52.266C146.553 52.724 147.208 52.79 147.606 52.872L148.782 53.101C150.979 53.528 152.438 54.542 152.041 56.638C151.479 59.586 147.979 61.043 144.776 61.043C142.91 61.043 140.828 60.617 139.292 59.913L141.604 56.425Z" fill="#005DAA"/>
<path d="M160.104 56.376L159.889 54.198C159.831 53.674 159.835 53.134 159.838 52.609H159.641L157.944 56.376H160.104ZM155.416 60.847H149.717L157.213 48.5H163.167L166.107 60.847H160.408L160.21 59.308H156.143L155.416 60.847Z" fill="#005DAA"/>
<path d="M168.004 48.5H173.389L171.795 56.884H176.316L175.562 60.846H165.658L168.004 48.5ZM178.909 48.5H188.874L188.232 51.874H183.691L183.467 53.053H187.613L187.004 56.263H182.857L182.628 57.474H187.326L186.683 60.847H176.562L178.909 48.5Z" fill="#005DAA"/>
<path d="M105.848 26.31L112.647 26.055L106.942 44.854H119.141L124.844 26.055L131.49 26.31L134.198 17.384H108.554L105.848 26.31ZM80.589 31.191C78.883 40.006 69.537 45.29 59.297 45.29C49.058 45.29 41.755 40.007 43.461 31.191C45.131 22.556 54.586 16.947 64.781 16.947C74.975 16.947 82.259 22.557 80.589 31.191ZM55.719 31.337C55.114 34.47 57.281 36.62 60.974 36.62C64.669 36.62 67.667 34.471 68.273 31.337C68.837 28.423 66.905 25.983 63.032 25.983C59.159 25.981 56.283 28.423 55.719 31.337Z" fill="#E31837"/>
<path d="M76.798 42.776C80.279 44.341 84.993 45.29 89.222 45.29C96.479 45.29 104.407 42.048 105.675 35.49C106.577 30.827 103.276 28.568 98.294 27.621L95.632 27.111C94.732 26.928 93.247 26.783 93.444 25.762C93.662 24.633 95.284 24.304 96.353 24.304C98.978 24.304 101.163 25.215 103.029 26.381L107.683 19.35C104.705 17.711 101.337 16.947 97.508 16.947C90.207 16.947 82.245 20.59 80.984 27.111C80.152 31.41 83.715 33.705 88.344 34.398L90.722 34.761C91.8 34.945 93.382 35.053 93.142 36.291C92.902 37.529 90.911 37.93 89.708 37.93C86.903 37.93 84.495 36.801 82.582 35.417L82.037 35.016L76.798 42.776ZM157.943 18.076C155.503 17.347 152.73 16.947 149.969 16.947C140.131 16.947 131.189 23.359 129.638 31.374C128.122 39.207 134.425 45.291 143.997 45.291C146.177 45.291 150.781 44.963 152.89 44.198L155.234 33.925C152.97 35.491 150.556 36.475 147.751 36.475C144.102 36.475 141.391 34.143 141.977 31.121C142.555 28.133 145.997 25.766 149.647 25.766C152.407 25.766 154.608 27.041 156.28 28.536L157.943 18.076ZM177.475 16.947C167.281 16.947 157.826 22.556 156.155 31.191C154.45 40.006 161.753 45.29 171.993 45.29C182.231 45.29 191.579 40.007 193.284 31.191C194.952 22.557 187.668 16.947 177.475 16.947ZM175.727 25.981C179.6 25.981 181.533 28.421 180.967 31.335C180.362 34.468 177.363 36.618 173.668 36.618C169.973 36.618 167.807 34.469 168.413 31.335C168.977 28.423 171.854 25.981 175.727 25.981ZM46.606 11.911C43.561 11.03 40.105 10.546 36.662 10.546C24.391 10.546 13.238 18.296 11.305 27.984C9.41599 37.452 17.276 44.805 29.213 44.805C31.934 44.805 37.677 44.409 40.304 43.485L43.227 31.066C40.406 32.96 37.393 34.149 33.894 34.149C29.341 34.149 25.962 31.33 26.691 27.674C27.412 24.064 31.704 21.2 36.256 21.2C39.698 21.2 42.444 22.742 44.527 24.547L46.606 11.911Z" fill="#E31837"/>
<path d="M185.777 43.518C185.96 42.559 187.029 41.786 188.193 41.786C189.348 41.786 190.131 42.559 189.949 43.518C189.764 44.483 188.69 45.256 187.533 45.256C186.37 45.256 185.595 44.482 185.777 43.518ZM189.405 43.518C189.551 42.746 188.997 42.239 188.105 42.239C187.199 42.239 186.467 42.746 186.322 43.518C186.175 44.291 186.713 44.803 187.62 44.803C188.511 44.803 189.258 44.292 189.405 43.518ZM188.662 44.425H188.123L187.784 43.656H187.431L187.285 44.425H186.827L187.172 42.609H188.229C188.695 42.609 188.947 42.738 188.867 43.165C188.806 43.476 188.563 43.636 188.282 43.658L188.662 44.425ZM187.994 43.309C188.223 43.309 188.42 43.309 188.458 43.115C188.488 42.955 188.29 42.955 188.061 42.955H187.565L187.5 43.309H187.994Z" fill="#E31837"/>
<path d="M12.158 60.867H69.251L69.247 60.847H69.2L68.478 57.707H12.158V60.867ZM12.158 56.379H68.172L67.444 53.22H12.158V56.379ZM12.158 51.872H67.116L66.869 50.721L66.364 48.524H12.158V51.872ZM131.459 48.5H141.423L140.782 51.874H136.242L136.017 53.053H140.163L139.554 56.263H135.408L135.178 57.474H139.875L139.234 60.847H129.111L131.459 48.5Z" fill="#005DAA"/>
</svg>
