<svg width="379" height="144" viewBox="0 0 379 144" fill="none" xmlns="http://www.w3.org/2000/svg">
<path d="M192.273 1.48743H220.807C211.043 6.04076 204.345 15.4759 205.285 26.1064C206.654 41.6553 220.807 47.6686 220.807 66.0005C220.807 78.2188 212.886 88.9314 204.145 93.5669L178.184 86.4038C187.154 82.2155 193.104 73.5194 192.711 64.0295C192.109 49.2746 178.184 42.513 178.184 25.8053C178.184 14.4722 184.481 5.40201 192.273 1.48743Z" fill="black"/>
<path d="M253.317 78.5016V21.1425H235.925V1.48743H293.758V21.1425H276.202V78.5016H253.317Z" fill="black"/>
<path d="M0 40.1222C0 62.3049 17.9761 80.2627 40.177 80.2627C51.2272 80.2627 61.2372 75.8189 68.5007 68.6193L52.9062 53.0613C49.6304 56.2733 45.1409 58.2625 40.177 58.2625C30.1669 58.2625 22.0184 50.1414 22.0184 40.1313C22.0184 30.1213 30.1669 22.0002 40.177 22.0002C45.1409 22.0002 49.6304 23.9894 52.9062 27.2013L68.5007 11.6343C61.2372 4.44383 51.2272 0 40.177 0C17.9761 0 0 17.9396 0 40.1222Z" fill="black"/>
<path d="M120.072 0C97.8711 0 79.895 17.9578 79.895 40.1496C79.895 62.3596 97.8711 80.3266 120.072 80.3266C142.3 80.3266 160.267 62.3596 160.267 40.1496C160.267 17.9578 142.3 0 120.072 0ZM119.378 58.2625C109.378 58.2625 101.22 50.1322 101.22 40.1405C101.22 30.1304 109.378 22.0093 119.378 22.0093C129.416 22.0093 137.537 30.1304 137.537 40.1405C137.537 50.1322 129.416 58.2625 119.378 58.2625Z" fill="black"/>
<path d="M354.118 1.48743H326.287L301.896 78.5016H325.411L328.559 65.234H351.81L354.94 78.5016H378.509L354.118 1.48743ZM332.565 48.3165L339.564 18.8065H340.778L347.777 48.3165H332.565Z" fill="black"/>
<path d="M165.965 112.683H189.389V118.834H173.138V124.911H186.615V131.061H173.138V143.443H165.965V112.683Z" fill="black"/>
<path d="M199.196 112.683H222.629V118.834H206.378V124.911H219.855V131.061H206.378V143.443H199.196V112.683Z" fill="black"/>
<path d="M112.317 133.041C110.683 135.596 107.827 137.293 104.57 137.293C99.4964 137.293 95.3902 133.178 95.3902 128.113C95.3902 123.04 99.4964 118.925 104.57 118.925C107.408 118.925 109.944 120.211 111.623 122.237L116.387 117.492C113.476 114.253 109.26 112.218 104.57 112.218C95.7916 112.218 88.6833 119.335 88.6833 128.113C88.6833 136.883 95.7916 144 104.57 144C109.652 144 114.169 141.527 117.08 137.813L112.317 133.041Z" fill="black"/>
<path d="M239.682 137.266V131.07H253.16V124.911H239.682V118.834H255.523V112.683H232.501V143.453H256.152V137.266H239.682Z" fill="black"/>
<path d="M289.899 118.834V112.674H266.868V143.453H290.529V137.266H274.049V131.061H287.527V124.911H274.049V118.834H289.899Z" fill="black"/>
<path d="M140.098 112.2C131.319 112.2 124.211 119.308 124.211 128.086C124.211 136.864 131.319 143.973 140.098 143.973C148.867 143.973 155.984 136.864 155.984 128.086C155.984 119.308 148.867 112.2 140.098 112.2ZM140.125 137.202C135.079 137.202 130.982 133.105 130.982 128.059C130.982 123.004 135.079 118.907 140.125 118.907C145.18 118.907 149.277 123.004 149.277 128.059C149.277 133.105 145.18 137.202 140.125 137.202Z" fill="black"/>
</svg>
