<svg xmlns="http://www.w3.org/2000/svg" xmlns:xlink="http://www.w3.org/1999/xlink" width="337.241" height="22.424" viewBox="0 0 337.241 22.424">
  <defs>
    <clipPath id="clip-path">
      <rect id="長方形_19558" data-name="長方形 19558" width="337.241" height="22.425" fill="none"/>
    </clipPath>
  </defs>
  <g id="グループ_5670" data-name="グループ 5670" transform="translate(-101 -6614.234)">
    <g id="グループ_5492" data-name="グループ 5492" transform="translate(101 6614.234)">
      <g id="グループ_5491" data-name="グループ 5491" transform="translate(0 0)" clip-path="url(#clip-path)">
        <path id="パス_48962" data-name="パス 48962" d="M21.955,19.367c-8.99-.063-14.975-3.7-14.975-8.181,0-4.518,6.111-8.181,15.208-8.181l1.732-2.7C23.382.29,22.739.28,22.189.28,10.059.28.226,5.163.226,11.186s9.833,10.908,21.963,10.908q.873,0,1.728-.033Z" transform="translate(-0.128 -0.158)" fill="#e57400"/>
        <path id="パス_48963" data-name="パス 48963" d="M22.062,22.064C9.9,22.064,0,17.127,0,11.058s9.9-11,22.062-11c.588,0,1.221.01,1.735.029l.173.007L22.115,2.976h-.054A23.164,23.164,0,0,0,11.094,5.36c-2.671,1.484-4.142,3.508-4.142,5.7,0,4.623,6.257,8.023,14.877,8.083h.049l2.1,2.883-.183.007c-.572.022-1.155.033-1.732.033m0-21.814C10.005.25.2,5.1.2,11.058s9.808,10.81,21.865,10.81c.513,0,1.029-.009,1.54-.026l-1.824-2.5c-8.708-.074-15.022-3.551-15.022-8.279,0-2.265,1.507-4.35,4.243-5.87A23.324,23.324,0,0,1,22.008,2.78L23.618.274C23.14.259,22.583.25,22.062.25" transform="translate(0 -0.031)" fill="#212b2e"/>
        <path id="パス_48964" data-name="パス 48964" d="M89.049,9.765c0-5.437-7.223-9.394-21.558-9.531-.5,0,.322-.017-.166,0l1.9,2.778c8.211.9,13.693,2.631,13.693,6.709,0,4.042-5.5,6.394-10.591,6.631l-4.57,3.244c.008.414,0,2.756,0,2.756h4.828l-.27-3.632a37.452,37.452,0,0,0,7.892-1.29l1.655,5.024h4.383l-2.195-6.488c3.111-1.557,5-3.683,5-6.2" transform="translate(-37.995 -0.127)" fill="#e57400"/>
        <path id="パス_48965" data-name="パス 48965" d="M86.148,22.425H81.557l-1.648-5a37.387,37.387,0,0,1-7.724,1.262l.271,3.638H67.424v-.1c0-.024.009-2.346,0-2.754v-.052l.043-.03,4.594-3.261h.029c5.089-.236,10.5-2.606,10.5-6.533,0-3.544-4.2-5.583-13.6-6.611l-.045-.005L67.008.16l0,0-.1-.141L67.062.01A.783.783,0,0,1,67.227,0a.189.189,0,0,1,.06.009C80.829.143,88.913,3.742,88.913,9.638c0,2.441-1.721,4.6-4.976,6.25Zm-4.449-.2h4.176L83.7,15.789l.077-.038c3.234-1.619,4.943-3.733,4.943-6.113,0-5.775-8.015-9.3-21.439-9.433l1.77,2.587c9.5,1.043,13.736,3.141,13.736,6.8,0,4.041-5.484,6.479-10.656,6.727l-4.5,3.2c.006.46,0,2.177,0,2.608h4.624l-.27-3.625.1-.006a37.151,37.151,0,0,0,7.872-1.286l.091-.026Z" transform="translate(-37.76 0)" fill="#212b2e"/>
        <path id="パス_48966" data-name="パス 48966" d="M136.9,19.251c-.019-.785-.345-1.741-1.459-1.741-1.227,0-1.247,2.3-1.286,3.041.077.88.1,3.309,1.325,3.309,1.113,0,1.439-1.09,1.458-1.875h2.8c-.1,2.451-1.612,3.794-4.261,3.794-2.854,0-4.288-2.551-4.288-5.094s1.434-5.1,4.288-5.1c2.457,0,4.279,1.4,4.261,3.661Z" transform="translate(-74.037 -8.798)" fill="#212b2e"/>
        <path id="パス_48967" data-name="パス 48967" d="M165.5,16.089l.057,1.74h.038a3.013,3.013,0,0,1,3.257-1.852v2.539H167.6a2.077,2.077,0,0,0-1.4.71,3.441,3.441,0,0,0-.384,1.714v4.773h-2.86l-.019-7.707c0-.4-.058-1.208-.1-1.918Z" transform="translate(-91.901 -9.015)" fill="#212b2e"/>
        <path id="パス_48968" data-name="パス 48968" d="M191.329,19.54c.038-1.053.326-2.031,1.646-2.031,1.4,0,1.684.978,1.684,2.031Zm6.294,1.919a14.512,14.512,0,0,0-.077-1.842,5.262,5.262,0,0,0-.477-1.725,4.119,4.119,0,0,0-4.093-2.3c-2.927,0-4.61,2.226-4.61,5.123,0,3.205,1.32,5.067,4.61,5.067,2.238,0,4.093-.786,4.342-3.157h-2.581a1.572,1.572,0,0,1-1.76,1.237c-1.474,0-1.646-1.161-1.646-2.4Z" transform="translate(-106.304 -8.798)" fill="#212b2e"/>
        <path id="パス_48969" data-name="パス 48969" d="M227.422,20.959c0,1.135-.057,2.906-1.649,2.906a1.348,1.348,0,0,1-1.4-1.386c0-1.56,2.051-1.54,3.049-1.52m-2.608-2.366a1.291,1.291,0,0,1,1.285-1.364,1.222,1.222,0,0,1,1.323,1.174v.89a9.137,9.137,0,0,0-3.76.518,3.348,3.348,0,0,0-2.053,3.054,2.845,2.845,0,0,0,3.147,2.921,3.139,3.139,0,0,0,2.954-1.574h.038a10.022,10.022,0,0,0,.1,1.286h2.589a8.641,8.641,0,0,1-.133-1.056V19.18c0-2.871-2.169-3.581-4.107-3.581a5.668,5.668,0,0,0-2.839.614,2.592,2.592,0,0,0-1.306,2.38Z" transform="translate(-125.066 -8.803)" fill="#212b2e"/>
        <path id="パス_48970" data-name="パス 48970" d="M255.057,12.434v-1.9L257.936,9.5v2.936H260.1v1.919h-2.169v4.461c0,1.263.192,1.607,1.191,1.607.307,0,.614-.038.921-.057v1.689a10.731,10.731,0,0,1-2.265.288c-2.245,0-2.725-1.17-2.725-3.26V14.354h-1.938V12.434Z" transform="translate(-142.848 -5.36)" fill="#212b2e"/>
        <path id="パス_48971" data-name="パス 48971" d="M283.888,19.54c.039-1.053.326-2.031,1.646-2.031,1.4,0,1.684.978,1.684,2.031Zm6.294,1.919a14.518,14.518,0,0,0-.077-1.842,5.272,5.272,0,0,0-.477-1.725,4.119,4.119,0,0,0-4.094-2.3c-2.927,0-4.61,2.226-4.61,5.123,0,3.205,1.319,5.067,4.61,5.067,2.239,0,4.094-.786,4.342-3.157h-2.582a1.571,1.571,0,0,1-1.76,1.237c-1.474,0-1.646-1.161-1.646-2.4Z" transform="translate(-158.54 -8.798)" fill="#212b2e"/>
        <path id="パス_48972" data-name="パス 48972" d="M739.045,28.273h-1.524V22.8h1.524Zm0-6.618h-1.524v-1.2h1.524Z" transform="translate(-416.221 -11.544)" fill="#212b2e"/>
        <path id="パス_48973" data-name="パス 48973" d="M746.415,26.238h.023a1.37,1.37,0,0,1,1.3-.662A1.238,1.238,0,0,1,749.1,26.77v4.394h-1.523V27.388c0-.488-.088-.868-.579-.868s-.579.38-.579.868v3.775h-1.523V25.687h1.523Z" transform="translate(-420.381 -14.434)" fill="#212b2e"/>
        <path id="パス_48974" data-name="パス 48974" d="M760.706,27.635c0-.816-.207-1.089-.687-1.089-.655,0-.71.577-.71,1.72,0,1.676.142,2.034.71,2.034.48,0,.71-.435.71-1.153h1.524c0,1.489-.8,2.127-2.234,2.127-1.974,0-2.233-1.2-2.233-2.921,0-1.5.216-2.78,2.233-2.78,1.412,0,2.211.628,2.211,2.062Z" transform="translate(-427.658 -14.432)" fill="#212b2e"/>
        <rect id="長方形_19555" data-name="長方形 19555" width="1.298" height="1.425" transform="translate(335.943 15.304)" fill="#212b2e"/>
        <path id="パス_48975" data-name="パス 48975" d="M315.642,17.17h.039a2.942,2.942,0,0,1,2.667-1.484v1.158a2.321,2.321,0,0,0-2.706,2.492v6.229h-1.153V15.884h1.153Z" transform="translate(-177.483 -8.852)" fill="#e57400"/>
        <path id="パス_48976" data-name="パス 48976" d="M329.159,20.039c0-2.14.345-3.42,2.176-3.42s2.176,1.28,2.176,3.42Zm5.5.926c0-2.875,0-5.273-3.328-5.273-2.156,0-3.327,1.29-3.327,4.079v2.383c0,2.933,1.666,3.609,3.327,3.609,1.929,0,3.194-.81,3.328-3.15h-1.208a1.979,1.979,0,0,1-2.12,2.224c-1.812,0-2.176-1.782-2.176-3.125v-.747Z" transform="translate(-185.112 -8.856)" fill="#e57400"/>
        <path id="パス_48977" data-name="パス 48977" d="M352.234,25.764c-2.088,0-2.9-1.024-2.884-3.077h1.157c0,1.325.308,2.207,1.8,2.207a1.5,1.5,0,0,0,1.645-1.705c0-2.528-4.346-1.877-4.346-5.076,0-1.784,1.229-2.42,2.912-2.42,1.915,0,2.53,1.329,2.53,2.8h-1.134c-.055-1.225-.382-1.877-1.682-1.877a1.376,1.376,0,0,0-1.472,1.4c0,2.414,4.346,1.763,4.346,5,0,1.819-1.056,2.747-2.871,2.747" transform="translate(-197.156 -8.856)" fill="#e57400"/>
        <path id="パス_48978" data-name="パス 48978" d="M367.239,13.839v-.927h1.555v-2l1.151-.5v2.5H371.9v.927h-1.958v6.2c0,1.282.134,1.588,1.056,1.588a5.761,5.761,0,0,0,.9-.057v.988a10.18,10.18,0,0,1-1.094.057c-1.555,0-2.015-.684-2.015-1.868V13.839Z" transform="translate(-207.252 -5.879)" fill="#e57400"/>
        <path id="パス_48979" data-name="パス 48979" d="M388.248,22.387a2.479,2.479,0,0,1-2.387,2.45c-1.184,0-1.738-.9-1.738-1.99,0-2.356,2.482-2.163,4.125-2.22Zm.083,3.179h1.185a20.573,20.573,0,0,1-.115-2.433V18.265c0-2.476-2.032-2.573-3.007-2.573-1.684,0-3.13.734-3.226,2.592H384.4c0-1.148.841-1.665,1.892-1.665,1.531,0,1.951.862,1.951,2.278v.8c-1.945.154-5.363-.192-5.363,3.2a2.57,2.57,0,0,0,2.673,2.859,3.093,3.093,0,0,0,2.733-1.385h.04Z" transform="translate(-216.082 -8.856)" fill="#e57400"/>
        <path id="パス_48980" data-name="パス 48980" d="M411.628,16.14v9.679h-.986V24.745h-.038a2.919,2.919,0,0,1-2.455,1.271c-2,0-2.557-1.462-2.557-3.034V16.14h1.152v6.651c0,.269-.058,2.3,1.616,2.3a2.164,2.164,0,0,0,2.116-2.127V16.14Z" transform="translate(-228.897 -9.109)" fill="#e57400"/>
        <path id="パス_48981" data-name="パス 48981" d="M428.288,17.17h.039A2.944,2.944,0,0,1,431,15.686v1.158a2.322,2.322,0,0,0-2.708,2.492v6.229h-1.151V15.884h1.151Z" transform="translate(-241.056 -8.852)" fill="#e57400"/>
        <path id="パス_48982" data-name="パス 48982" d="M445.562,22.387a2.478,2.478,0,0,1-2.386,2.45c-1.185,0-1.739-.9-1.739-1.99,0-2.356,2.483-2.163,4.126-2.22Zm.083,3.179h1.185a20.568,20.568,0,0,1-.115-2.433V18.265c0-2.476-2.031-2.573-3.006-2.573-1.683,0-3.13.734-3.226,2.592h1.237c0-1.148.841-1.665,1.893-1.665,1.529,0,1.949.862,1.949,2.278v.8c-1.944.154-5.362-.192-5.362,3.2a2.569,2.569,0,0,0,2.671,2.859,3.1,3.1,0,0,0,2.735-1.385h.038Z" transform="translate(-248.428 -8.856)" fill="#e57400"/>
        <path id="パス_48983" data-name="パス 48983" d="M463.866,25.568h-1.152V15.889h1.152v1.19h.039a2.822,2.822,0,0,1,2.356-1.387c2.407,0,2.657,1.789,2.657,3.053v6.823h-1.152V18.8c0-1.131-.443-2.185-1.8-2.185-1.042,0-2.1.709-2.1,2.875Z" transform="translate(-261.134 -8.856)" fill="#e57400"/>
        <path id="パス_48984" data-name="パス 48984" d="M482.31,13.839v-.927h1.554v-2l1.151-.5v2.5h1.958v.927h-1.958v6.2c0,1.282.134,1.588,1.056,1.588a5.763,5.763,0,0,0,.9-.057v.988a10.187,10.187,0,0,1-1.094.057c-1.554,0-2.016-.684-2.016-1.868V13.839Z" transform="translate(-272.193 -5.879)" fill="#e57400"/>
        <path id="パス_48985" data-name="パス 48985" d="M500.654,25.764c-2.089,0-2.9-1.024-2.885-3.077h1.157c0,1.325.307,2.207,1.8,2.207a1.5,1.5,0,0,0,1.645-1.705c0-2.528-4.346-1.877-4.346-5.076,0-1.784,1.229-2.42,2.911-2.42,1.915,0,2.53,1.329,2.53,2.8h-1.134c-.056-1.225-.382-1.877-1.683-1.877a1.378,1.378,0,0,0-1.473,1.4c0,2.414,4.348,1.763,4.348,5,0,1.819-1.056,2.747-2.87,2.747" transform="translate(-280.917 -8.856)" fill="#e57400"/>
        <path id="パス_48986" data-name="パス 48986" d="M683.171,16.718a2.98,2.98,0,0,1,1.48,1.339V16.726h2.53L687.1,18.6v6.912a4.773,4.773,0,0,1-.625,2.7q-1.08,1.566-4.131,1.565a5.828,5.828,0,0,1-3.012-.695A2.569,2.569,0,0,1,678.045,27h2.734a1.081,1.081,0,0,0,.344.614,2.185,2.185,0,0,0,1.369.334,1.866,1.866,0,0,0,1.822-.877,4.318,4.318,0,0,0,.3-1.887v-.6a2.985,2.985,0,0,1-.779.893,3.2,3.2,0,0,1-1.95.555,3.757,3.757,0,0,1-2.963-1.254,4.956,4.956,0,0,1-1.106-3.395,5.566,5.566,0,0,1,1.066-3.47,3.569,3.569,0,0,1,3.022-1.406,3.441,3.441,0,0,1,1.263.212m.856,6.635a2.894,2.894,0,0,0,.606-2.043,3.04,3.04,0,0,0-.576-2,1.9,1.9,0,0,0-1.543-.69,1.816,1.816,0,0,0-1.818,1.2,4.134,4.134,0,0,0-.263,1.571,3.492,3.492,0,0,0,.28,1.435A1.835,1.835,0,0,0,682.542,24a1.964,1.964,0,0,0,1.485-.643" transform="translate(-382.528 -9.315)" fill="#212b2e"/>
        <path id="パス_48987" data-name="パス 48987" d="M551.466,21.2a5.544,5.544,0,0,0,.98,3.551,4.44,4.44,0,0,0,3.628,1.384,4.732,4.732,0,0,0,3.62-1.293,5.4,5.4,0,0,0,1.05-3.639,5.425,5.425,0,0,0-1.119-3.51,4.56,4.56,0,0,0-3.551-1.432,4.192,4.192,0,0,0-3.51,1.469,5.434,5.434,0,0,0-1.1,3.471m6.363-.067a5.116,5.116,0,0,1-.336,2.451,1.7,1.7,0,0,1-1.459.684,1.515,1.515,0,0,1-1.459-1,7.95,7.95,0,0,1-.166-2.169,5.316,5.316,0,0,1,.294-2.248,1.712,1.712,0,0,1,2.788-.009,5.71,5.71,0,0,1,.339,2.295" transform="translate(-311.221 -9.175)" fill="#212b2e"/>
        <path id="パス_48988" data-name="パス 48988" d="M528.869,13.065a2.85,2.85,0,0,1,1.214.892A2.284,2.284,0,0,1,530.575,15a12.014,12.014,0,0,1,.09,1.755v5.333h-2.617V16.563a2.3,2.3,0,0,0-.268-1.183,1.369,1.369,0,0,0-1.32-.633,1.874,1.874,0,0,0-1.53.629,2.744,2.744,0,0,0-.522,1.8v4.917h-2.564V9.86h2.564v4.328a3.056,3.056,0,0,1,1.284-1.1,3.86,3.86,0,0,1,1.535-.312,4.449,4.449,0,0,1,1.643.292" transform="translate(-294.503 -5.565)" fill="#212b2e"/>
        <rect id="長方形_19556" data-name="長方形 19556" width="2.562" height="12.272" transform="translate(253.829 4.253)" fill="#212b2e"/>
        <path id="パス_48989" data-name="パス 48989" d="M603.484,13.144a3.021,3.021,0,0,1,1.123,1.007V9.8h2.7l-.1,1.561V22.118h-2.491V20.854a3.494,3.494,0,0,1-1.25,1.179,4.021,4.021,0,0,1-4.635-.924,4.743,4.743,0,0,1-1.174-3.317,5.436,5.436,0,0,1,1.155-3.673A3.877,3.877,0,0,1,601.9,12.78a3.346,3.346,0,0,1,1.583.364m.629,6.5a3.154,3.154,0,0,0,.567-1.95,2.877,2.877,0,0,0-.908-2.393,2.042,2.042,0,0,0-1.295-.436,1.84,1.84,0,0,0-1.65.791,3.463,3.463,0,0,0-.526,1.963,3.44,3.44,0,0,0,.535,2.021,1.856,1.856,0,0,0,1.623.757,1.942,1.942,0,0,0,1.654-.753" transform="translate(-337.289 -5.531)" fill="#212b2e"/>
        <path id="パス_48990" data-name="パス 48990" d="M633.748,11.8h-2.6V9.591h2.6Zm-2.6,1.091h2.6v9.144h-2.6Z" transform="translate(-356.191 -5.413)" fill="#212b2e"/>
        <path id="パス_48991" data-name="パス 48991" d="M656.812,17.208a2.949,2.949,0,0,1,.963,2.478v6.193h-2.626V20.284a2.433,2.433,0,0,0-.206-1.114,1.465,1.465,0,0,0-1.428-.708,1.781,1.781,0,0,0-1.777,1.037,3.4,3.4,0,0,0-.25,1.4v4.979h-2.563V18.629l-.081-1.932h2.564v1.342a4.177,4.177,0,0,1,.931-1.022,3.377,3.377,0,0,1,2-.556,3.928,3.928,0,0,1,2.476.746" transform="translate(-366.177 -9.29)" fill="#212b2e"/>
        <path id="パス_48992" data-name="パス 48992" d="M710.471,22.944a1.516,1.516,0,0,0,.353.9,2.518,2.518,0,0,0,1.77.474,2.909,2.909,0,0,0,1.207-.207.675.675,0,0,0,.087-1.232,15.682,15.682,0,0,0-2.682-.717,5.8,5.8,0,0,1-2.353-.957,2,2,0,0,1-.683-1.632,2.743,2.743,0,0,1,1.067-2.161,4.522,4.522,0,0,1,3.005-.9,5.879,5.879,0,0,1,3,.677,2.858,2.858,0,0,1,1.33,2.345H714a1.345,1.345,0,0,0-.279-.724,1.841,1.841,0,0,0-1.442-.484,2.214,2.214,0,0,0-1.195.241.686.686,0,0,0-.356.567.613.613,0,0,0,.378.591,17.419,17.419,0,0,0,2.675.658,5.077,5.077,0,0,1,2.3,1.007,2.208,2.208,0,0,1,.755,1.707,2.674,2.674,0,0,1-1.086,2.2,5.4,5.4,0,0,1-3.356.853,5.347,5.347,0,0,1-3.419-.9,2.845,2.845,0,0,1-1.1-2.3Z" transform="translate(-399.489 -9.317)" fill="#212b2e"/>
        <rect id="長方形_19557" data-name="長方形 19557" width="1.158" height="14.887" transform="translate(25.999 3.054)" fill="#212b2e"/>
      </g>
    </g>
  </g>
</svg>
