<?xml version="1.0" encoding="UTF-8" standalone="no"?>
<!-- Created with Inkscape (http://www.inkscape.org/) -->
<svg
   xmlns:svg="http://www.w3.org/2000/svg"
   xmlns="http://www.w3.org/2000/svg"
   version="1.0"
   width="602.36218"
   height="180.92125"
   id="svg4752">
  <defs
     id="defs4754" />
  <g
     id="layer1">
    <g
       transform="translate(84.03823,-533.3301)"
       id="g4769">
      <path
         d="M 79.131758,623.78792 C 79.131758,663.9552 46.588609,696.53414 6.4188465,696.53414 C -33.751271,696.53414 -66.321703,663.9552 -66.321703,623.78792 C -66.321703,583.61816 -33.751271,551.04737 6.4188465,551.04737 C 46.588609,551.04737 79.131758,583.61816 79.131758,623.78792 z "
         style="fill:#f5821f;fill-rule:evenodd"
         id="_90599384" />
      <path
         d="M 64.473097,623.78792 C 64.473097,655.84067 38.471247,681.84252 6.4188465,681.84252 C -25.668987,681.84252 -51.671191,655.84067 -51.671191,623.78792 C -51.671191,591.69725 -25.671822,565.7365 6.4188465,565.7365 C 38.471247,565.7365 64.470262,591.69725 64.473097,623.78792 z "
         style="fill:white;fill-rule:evenodd"
         id="_91018952" />
      <polygon
         points="2228540,2934670 2255930,4443660 1918720,4451120 1903020,2934670 1635610,2766070 1638840,1407520 1771360,1406440 1819140,2395990 1989830,2392690 2006680,1406440 2132960,1406440 2150040,2393760 2324880,2392690 2368290,1406440 2508420,1407520 2510570,2766070 2228540,2934670 "
         transform="matrix(3.543307e-5,0,0,3.543307e-5,-84.03824,533.3308)"
         style="fill:#f5821f;fill-rule:evenodd"
         id="_93344008" />
      <g
         transform="matrix(3.543307e-5,0,0,3.543307e-5,-84.03824,533.3308)"
         style="fill-rule:evenodd"
         id="g4718">
    <polyline
   style="fill:none;fill-rule:nonzero;stroke:#f5821f;stroke-width:48250;stroke-linejoin:round;stroke-miterlimit:4;stroke-dasharray:none"
   points="2.22854e+006,2.93467e+006 2.25593e+006,4.44366e+006 1.91872e+006,4.45112e+006 1.90302e+006,2.93467e+006 1.63561e+006,2.76607e+006 1.63884e+006,1.40752e+006 1.77136e+006,1.40644e+006 1.81914e+006,2.39599e+006 1.98983e+006,2.39269e+006 2.00668e+006,1.40644e+006 2.13296e+006,1.40644e+006 2.15004e+006,2.39376e+006 2.32488e+006,2.39269e+006 2.36829e+006,1.40644e+006 2.50842e+006,1.40752e+006 2.51057e+006,2.76607e+006 2.22854e+006,2.93467e+006 "
   class="fil2 str0"
   id="_93208592" />

   </g>
      <path
         d="M 36.363334,583.24186 L 36.259869,688.49296 L 23.705933,688.90469 L 23.927035,648.36111 C 23.927035,648.36111 16.335854,642.95119 16.335854,620.02528 C 16.338689,593.54331 36.363334,583.24186 36.363334,583.24186 z "
         style="fill:#f5821f;fill-rule:evenodd"
         id="path4721" />
      <g
         transform="matrix(3.543307e-5,0,0,3.543307e-5,-84.03824,533.3308)"
         style="fill-rule:evenodd"
         id="g4723">
    <path
   d="M 3398000,1408600 L 3395080,4379020 L 3040780,4390640 L 3047020,3246410 C 3047020,3246410 2832780,3093730 2832780,2446710 C 2832780,1699330 3398000,1408600 3398000,1408600"
   style="fill:none;fill-rule:nonzero;stroke:#f5821f;stroke-width:48250;stroke-linejoin:round;stroke-miterlimit:4;stroke-dasharray:none"
   id="path4725" />

   </g>
      <path
         d="M 255.99168,575.53871 L 241.18561,575.53871 L 241.18561,565.32194 L 282.93427,565.32194 L 282.93427,575.53871 L 268.16931,575.53871 L 268.16931,635.21012 L 255.99168,635.21012 L 255.99168,575.53871 z M 310.78219,608.57012 L 302.40297,575.91253 L 302.25026,575.91253 L 293.08301,608.57012 L 310.78219,608.57012 z M 313.33159,618.38083 L 290.52262,618.38083 L 285.75368,635.21012 L 273.57356,635.21012 L 295.86167,565.32194 L 309.16537,565.32194 L 330.54002,635.21012 L 317.99707,635.21012 L 313.33159,618.38083 z M 333.43561,565.32194 L 366.98789,565.32194 L 366.98789,575.53871 L 345.57215,575.53871 L 345.57215,594.55493 L 366.05246,594.55493 L 366.05246,604.76922 L 345.57215,604.76922 L 345.57215,635.21012 L 333.43561,635.21012 L 333.43561,565.32194 z M 372.70041,565.32194 L 407.60766,565.32194 L 407.60766,575.53871 L 384.8777,575.53871 L 384.8777,594.14036 L 406.36679,594.14036 L 406.36679,604.36564 L 384.8777,604.36564 L 384.8777,624.99052 L 408.55088,624.99052 L 408.55088,635.21012 L 372.70041,635.21012 L 372.70041,565.32194 z M 414.93982,565.32194 L 427.07919,565.32194 L 427.07919,624.99052 L 448.98002,624.99052 L 448.98002,635.21012 L 414.93982,635.21012 L 414.93982,565.32194 z M 452.84931,565.32194 L 467.3145,565.32194 L 489.37336,620.18048 L 489.56435,620.18048 L 489.56435,565.32194 L 500.60742,565.32194 L 500.60742,635.21012 L 486.0632,635.21012 L 464.08336,580.72221 L 463.90053,580.72221 L 463.90053,635.21012 L 452.84931,635.21012 L 452.84931,565.32194 z M 113.76936,625.36682 L 117.86754,625.36682 C 131.54754,625.36682 137.73983,615.56426 137.73983,600.26745 C 137.74266,584.9352 131.54471,575.1245 117.86754,575.1245 L 113.76936,575.1245 L 113.76936,625.36682 z M 101.6027,565.32194 L 118.87916,565.32194 C 139.62664,565.32194 150.66971,577.11477 150.66971,600.26745 C 150.66971,623.78792 137.3281,635.17469 118.87632,635.17469 L 101.6027,635.17469 L 101.6027,565.32194 L 101.6027,565.32194 z M 157.39384,635.21012 L 169.57148,635.21012 L 169.57148,565.32194 L 157.39384,565.32194 L 157.39384,635.21012 z M 178.99774,565.32194 L 213.90782,565.32194 L 213.90782,575.53871 L 191.17502,575.53871 L 191.17502,594.14036 L 212.66412,594.14036 L 212.66412,604.36564 L 191.17502,604.36564 L 191.17502,624.99052 L 214.84821,624.99052 L 214.84821,635.21012 L 178.99774,635.21012 L 178.99774,565.32194 z M 101.56443,653.7356 L 114.45357,653.7356 L 114.45357,656.92847 L 105.05459,656.92847 L 105.05459,666.17189 L 114.00109,666.17189 L 114.00109,669.32969 L 105.05459,669.32969 L 105.05459,679.69918 L 114.93369,679.69918 L 114.93369,682.85662 L 101.56443,682.85662 L 101.56443,653.7356 L 101.56443,653.7356 z M 118.81113,678.723 C 120.31065,679.69918 121.88955,680.30189 123.5418,680.30189 C 126.09121,680.30189 127.36999,678.94941 127.36999,677.3326 C 127.37282,675.86815 126.69676,674.85371 124.82341,673.98949 L 122.60105,672.9343 C 119.70546,671.58465 118.61731,670.1939 118.61731,667.48894 C 118.61731,663.99347 121.21597,661.28851 125.12069,661.28851 C 126.81404,661.28851 128.23703,661.58827 129.40136,662.03827 L 129.25715,665.04583 C 128.23703,664.55508 126.81404,664.14335 125.27341,664.14335 C 123.13006,664.14335 121.96573,665.38386 121.96573,667.03646 C 121.96573,668.76524 123.16833,669.70599 125.37971,670.6439 L 126.54404,671.13182 C 129.02506,672.18453 130.56569,673.95123 130.56569,676.58 C 130.56569,680.22536 128.68987,683.15674 124.07081,683.15674 C 121.96573,683.15674 120.05164,682.70674 118.57904,681.87796 L 118.81113,678.723 L 118.81113,678.723 z M 133.8351,678.723 C 135.33747,679.69918 136.9518,680.30189 138.60687,680.30189 C 141.16443,680.30189 142.44321,678.94941 142.44321,677.3326 C 142.44605,675.86815 141.72357,674.85371 139.88565,673.98949 L 137.67428,672.9343 C 134.77869,671.58465 133.69054,670.1939 133.69054,667.48894 C 133.69054,663.99347 136.27821,661.28851 140.18294,661.28851 C 141.83802,661.28851 143.31061,661.58827 144.47459,662.03827 L 144.32223,665.04583 C 143.31061,664.55508 141.83802,664.14335 140.33849,664.14335 C 138.15439,664.14335 137.02798,665.38386 137.02798,667.03646 C 137.03081,668.76524 138.19231,669.70599 140.41467,670.6439 L 141.61727,671.13182 C 144.06038,672.18453 145.63892,673.95123 145.63892,676.58 C 145.63892,680.22536 143.75211,683.15674 139.13589,683.15674 C 137.03081,683.15674 135.11388,682.70674 133.65262,681.87796 L 133.8351,678.723 L 133.8351,678.723 z M 160.36597,670.60563 C 160.36597,666.17189 159.04644,663.9552 156.38223,663.9552 C 154.23924,663.9552 152.36306,665.64571 152.24577,670.60563 L 160.36597,670.60563 z M 152.24577,673.27516 C 152.24577,678.19682 154.09467,680.49004 157.76731,680.49004 C 159.46065,680.49004 161.26845,679.623 162.43278,678.723 L 162.57735,681.87796 C 160.99845,682.66847 158.94262,683.15674 156.91124,683.15674 C 151.57502,683.15674 148.79388,678.91115 148.79388,672.22245 C 148.79388,665.5341 151.57254,661.28851 156.60333,661.28851 C 161.154,661.28851 163.67365,665.11953 163.67365,671.3965 L 163.67365,673.27516 L 152.24577,673.27516 L 152.24577,673.27516 z M 167.76369,666.17189 C 167.76369,664.63126 167.65739,663.09099 167.61912,661.58827 L 170.81199,661.58827 L 170.92644,664.74607 L 170.99483,664.74607 C 172.09077,662.34087 173.77313,661.28851 176.15105,661.28851 C 179.64368,661.28851 182.04605,663.43186 182.04605,668.08882 L 182.04888,682.85662 L 178.70046,682.85662 L 178.70046,669.14154 C 178.70046,665.75768 177.49786,664.29323 175.36302,664.29323 C 172.76435,664.29323 171.10928,666.21016 171.10928,670.04402 L 171.10928,682.85662 L 167.76369,682.85662 L 167.76369,666.17189 L 167.76369,666.17189 z M 187.8677,678.19682 L 191.47514,678.19682 L 188.88746,687.85197 L 185.87707,687.85197 L 187.8677,678.19682 L 187.8677,678.19682 z M 222.5542,682.85662 L 218.71502,682.85662 L 214.51301,664.89595 L 214.39573,664.89595 L 210.52927,682.85662 L 206.73085,682.85662 L 201.4003,661.58827 L 204.85502,661.58827 L 208.72148,679.36115 L 208.75975,679.36115 L 212.63719,661.58827 L 216.57983,661.58827 L 220.60183,679.36115 L 220.66986,679.36115 L 224.46829,661.58827 L 227.81672,661.58827 L 222.5542,682.85662 z M 238.10719,680.34016 C 241.26463,680.34016 242.72341,677.55867 242.72341,672.22245 C 242.72341,666.88658 241.26215,664.14335 238.10719,664.14335 C 234.95258,664.14335 233.49097,666.88658 233.49097,672.22245 C 233.49097,677.55867 234.95258,680.34016 238.10719,680.34016 M 238.10719,661.28851 C 243.44624,661.28851 246.22738,665.57201 246.22738,672.22245 C 246.22738,678.91115 243.44624,683.15674 238.10719,683.15674 C 232.77097,683.15674 229.98983,678.91115 229.98983,672.22245 C 229.98983,665.57201 232.76849,661.28851 238.10719,661.28851 z M 270.94762,670.60563 C 270.94762,666.17189 269.63057,663.9552 267.00498,663.9552 C 264.8588,663.9552 262.94471,665.64571 262.86853,670.60563 L 270.94762,670.60563 z M 262.86853,673.27516 C 262.86853,678.19682 264.71459,680.49004 268.39006,680.49004 C 270.04514,680.49004 271.85293,679.623 273.01443,678.723 L 273.16998,681.87796 C 271.58293,682.66847 269.52427,683.15674 267.49573,683.15674 C 262.15667,683.15674 259.37553,678.91115 259.37553,672.22245 C 259.37553,665.5341 262.15667,661.28851 267.18746,661.28851 C 271.73849,661.28851 274.29604,665.11953 274.29604,671.3965 L 274.29604,673.27516 L 262.86853,673.27516 z M 277.48892,678.723 C 278.9888,679.69918 280.60561,680.30189 282.26069,680.30189 C 284.78034,680.30189 286.08923,678.94941 286.08923,677.3326 C 286.08923,675.86815 285.37738,674.85371 283.50156,673.98949 L 281.27919,672.9343 C 278.3836,671.58465 277.33372,670.1939 277.33372,667.48894 C 277.3362,663.99347 279.93203,661.28851 283.83675,661.28851 C 285.49183,661.28851 286.95345,661.58827 288.11778,662.03827 L 287.93494,665.04583 C 286.91518,664.55508 285.49183,664.14335 283.9923,664.14335 C 281.80821,664.14335 280.68215,665.38386 280.68215,667.03646 C 280.68215,668.76524 281.84648,669.70599 284.05786,670.6439 L 285.26293,671.13182 C 287.70604,672.18453 289.24384,673.95123 289.24384,676.58 C 289.24384,680.22536 287.36801,683.15674 282.75144,683.15674 C 280.68215,683.15674 278.76805,682.70674 277.29545,681.87796 L 277.48892,678.723 z M 303.2973,651.59225 L 306.64573,651.59225 L 306.64573,664.51965 L 306.72226,664.51965 C 307.58931,662.71469 309.34785,661.28851 311.67652,661.28851 C 315.21593,661.28851 317.5825,663.43186 317.5825,668.08882 L 317.5825,682.85662 L 314.27234,682.85662 L 314.27234,669.14154 C 314.27234,665.75768 313.06974,664.29323 310.92392,664.29323 C 308.30081,664.29323 306.64573,666.21016 306.64573,670.04402 L 306.64573,682.85662 L 303.2973,682.85662 L 303.2973,651.59225 z M 323.1423,661.58827 L 326.45246,661.58827 L 326.45246,682.85662 L 323.1423,682.85662 L 323.1423,661.58827 z M 326.59419,657.00465 L 322.94884,657.00465 L 322.94884,652.83312 L 326.59419,652.83312 L 326.59419,657.00465 z M 332.01226,666.17189 C 332.01226,664.63126 331.85707,663.09099 331.8188,661.58827 L 335.04994,661.58827 L 335.16722,664.74607 L 335.24341,664.74607 C 336.33156,662.34087 338.02207,661.28851 340.35073,661.28851 C 343.88163,661.28851 346.24573,663.43186 346.24573,668.08882 L 346.24856,682.85662 L 342.93841,682.85662 L 342.93841,669.14154 C 342.93841,665.75768 341.73581,664.29323 339.60061,664.29323 C 337.00478,664.29323 335.30896,666.21016 335.30896,670.04402 L 335.31179,682.85662 L 332.01226,682.85662 L 332.01226,666.17189 z M 358.27065,680.34016 C 361.32179,680.34016 362.70687,677.55867 362.70687,672.22245 C 362.70687,666.88658 361.32179,664.14335 358.27065,664.14335 C 355.23297,664.14335 353.83691,666.88658 353.83691,672.22245 C 353.83691,677.55867 355.23014,680.34016 358.27065,680.34016 M 366.05246,683.79489 C 366.05246,689.65729 361.83982,692.1004 357.40608,692.1004 C 355.68297,692.1004 352.96986,691.45941 351.46998,690.82162 L 351.6638,687.29036 C 353.08715,688.26654 355.3747,689.09284 357.18533,689.09284 C 361.28352,689.09284 362.85959,686.57603 362.85959,682.89489 L 362.85959,679.5493 L 362.7834,679.5493 C 361.46636,681.99241 359.70463,683.15674 357.48262,683.15674 C 353.31888,683.15674 350.49947,679.5493 350.49947,672.22245 C 350.49947,664.89595 353.31604,661.28851 357.81781,661.28851 C 359.84919,661.28851 361.69526,662.64099 362.7834,664.66953 L 362.85959,664.66953 L 362.96589,661.58827 L 366.19703,661.58827 C 366.15876,662.82914 366.05246,664.18162 366.05246,665.4604 L 366.05246,683.79489 z M 381.53211,670.60563 C 381.53211,666.17189 380.21222,663.9552 377.54837,663.9552 C 375.40254,663.9552 373.52636,665.64571 373.45018,670.60563 L 381.53211,670.60563 z M 373.45018,673.27516 C 373.45018,678.19682 375.25797,680.49004 378.94159,680.49004 C 380.62679,680.49004 382.43459,679.623 383.59892,678.723 L 383.75447,681.87796 C 382.17557,682.66847 380.10592,683.15674 378.07738,683.15674 C 372.73833,683.15674 369.95718,678.91115 369.95718,672.22245 C 369.96002,665.5341 372.73833,661.28851 377.7801,661.28851 C 382.32014,661.28851 384.83943,665.11953 384.83943,671.3965 L 384.83943,673.27516 L 373.45018,673.27516 z M 388.93797,651.59225 L 392.27541,651.59225 L 392.27541,664.51965 L 392.35159,664.51965 C 393.21864,662.71469 394.95025,661.28851 397.31435,661.28851 C 400.80734,661.28851 403.21218,663.43186 403.21218,668.08882 L 403.21218,682.85662 L 399.86659,682.85662 L 399.86659,669.14154 C 399.86659,665.75768 398.66116,664.29323 396.56459,664.29323 C 393.93049,664.29323 392.27541,666.21016 392.27541,670.04402 L 392.27541,682.85662 L 388.93797,682.85662 L 388.93797,651.59225 z M 417.1512,653.02127 L 420.3058,653.02127 L 420.3058,657.1928 L 417.1512,657.1928 L 417.1512,653.02127 z M 415.53403,680.30189 C 418.72974,680.30189 420.19951,677.55867 420.19951,672.22245 C 420.19951,666.88658 418.72726,664.14335 415.53403,664.14335 C 412.37943,664.14335 410.91781,666.88658 410.91781,672.22245 C 410.91781,677.55867 412.37943,680.30189 415.53403,680.30189 M 410.80336,653.02127 L 413.95797,653.02127 L 413.95797,657.1928 L 410.80336,657.1928 L 410.80336,653.02127 z M 415.53403,661.28851 C 420.91136,661.28851 423.6925,665.5341 423.6925,672.22245 C 423.6925,678.91115 420.91136,683.15674 415.53403,683.15674 C 410.20632,683.15674 407.42482,678.91115 407.42482,672.22245 C 407.42482,665.5341 410.20632,661.28851 415.53403,661.28851 z M 427.89415,666.17189 C 427.89415,664.63126 427.78785,663.09099 427.74994,661.58827 L 430.98356,661.58827 L 431.08986,664.93138 L 431.1664,664.93138 C 432.22443,662.34087 433.94506,661.28851 436.91683,661.28851 L 436.91966,664.74607 C 436.5051,664.66953 436.05262,664.63126 435.63805,664.63126 C 433.05037,664.63126 431.24258,666.96276 431.24258,671.58465 L 431.24258,682.85662 L 427.89415,682.85662 L 427.89415,666.17189 z M 448.94175,682.59229 C 448.15372,682.89205 447.06592,683.15674 446.12234,683.15674 C 443.08466,683.15674 441.46785,681.84252 441.46785,678.12063 L 441.46785,664.44347 L 438.27498,664.44347 L 438.27498,661.58827 L 441.46785,661.58827 L 441.46785,657.2665 L 444.80529,656.21697 L 444.80529,661.58827 L 448.94175,661.58827 L 448.94175,664.44347 L 444.80529,664.44347 L 444.80529,676.99422 C 444.80529,679.39941 445.41084,680.30189 446.87494,680.30189 C 447.73915,680.30189 448.33655,680.07548 448.94175,679.77571 L 448.94175,682.59229 z "
         style="fill:#f5821f;fill-rule:evenodd"
         id="path4727" />
    </g>
  </g>
</svg>
