<svg width="500" height="93" viewBox="0 0 500 93" fill="none" xmlns="http://www.w3.org/2000/svg">
<path d="M487.498 2.39453C493.131 2.39453 497.596 6.831 497.596 12.5308V80.1125C497.596 85.85 493.131 90.2578 487.498 90.2578H486.829C407.84 85.4825 328.747 83.0896 249.675 83.0896C170.59 83.0896 91.5097 85.4825 12.5155 90.2578H11.8455C6.24571 90.2578 1.75732 85.85 1.75732 80.1125V12.5308C1.75732 6.831 6.24571 2.39453 11.8455 2.39453C12.0909 2.39453 12.2843 2.42306 12.5155 2.42306C91.5071 7.17113 170.592 9.53546 249.675 9.53546C328.75 9.53546 407.84 7.17113 486.829 2.42306C487.055 2.42306 487.281 2.39453 487.498 2.39453Z" fill="#CACBCC"/>
<path d="M487.497 5.97803C487.356 5.97803 487.196 5.978 487.055 6.00656C408.349 10.7442 328.484 13.128 249.675 13.128C170.844 13.128 90.9953 10.7442 12.3153 6.00656C12.1504 5.978 11.9998 5.97803 11.844 5.97803C8.19821 5.97803 5.35352 8.86936 5.35352 12.5346V80.1164C5.35352 83.7712 8.19821 86.6641 11.844 86.6641C11.9998 86.6641 12.1504 86.6639 12.2828 86.6354C90.994 81.9159 170.843 79.5139 249.673 79.5139C328.501 79.5139 408.347 81.9159 487.025 86.6354C487.195 86.6639 487.354 86.6641 487.496 86.6641C491.142 86.6641 494.015 83.7712 494.015 80.1164V12.5346C494.015 10.7442 493.327 9.09668 492.103 7.87104C490.887 6.66617 489.259 5.97803 487.497 5.97803Z" fill="#FFEE00"/>
<path d="M261.844 27.79C250.984 27.79 244.702 34.5732 244.702 46.3402C244.702 56.749 249.344 64.8781 260.903 64.8781C264.445 64.8781 267.98 63.8617 270.222 62.3828L271.407 64.2005H277.238V45.8491H263.674V51.5415H267.528V56.4671C266.435 56.9761 264.748 57.3597 263.26 57.3597C257.824 57.3597 255.206 53.4138 255.206 45.9627C255.206 39.1996 257.646 35.3 261.292 35.3C264.165 35.3 265.539 37.1641 266.283 40.5827L276.552 38.834C275.073 31.6088 269.89 27.79 261.844 27.79ZM82.5015 27.7941C71.7148 27.7941 65.834 35.412 65.834 46.3402C65.834 57.3047 71.7148 64.8781 82.5015 64.8781C93.2922 64.8781 99.169 57.3047 99.169 46.3402C99.169 35.412 93.292 27.7941 82.5015 27.7941ZM27.95 28.4595V35.4139H31.5732V64.1999H43.4895C55.0098 64.1999 63.4883 60.234 63.4883 46.6884C63.4883 31.8703 55.9734 28.4587 42.4218 28.4587L27.95 28.4595ZM102.939 28.4595V64.2005H127.389L127.84 57.2584H112.811V28.4599L102.939 28.4595ZM130.935 28.4595V64.2005H155.388L155.838 57.2584H140.81V28.4599L130.935 28.4595ZM168.567 28.4595L166.627 35.4139L157.239 64.1999H166.895L168.814 57.6554H180.722L182.869 64.1999H193.211L180.325 28.4589L168.567 28.4595ZM196.152 28.4595L196.168 64.2005H206.031V52.3328H208.689L212.645 58.7271C214.057 60.9889 215.243 62.2789 216.544 63.2308C218.014 64.2565 219.825 64.8213 222.236 64.8213C224.149 64.8213 226.418 64.2029 227.604 63.5148L228.217 57.0311C227.548 57.4739 226.541 57.8791 225.401 57.8791C223.931 57.8791 223.083 57.3612 222.009 55.6761L219.137 51.0953C223.141 49.4477 225.852 45.7851 225.852 40.0959C225.852 35.7621 224.102 32.4182 220.597 30.4395C218.129 29.0269 214.51 28.4595 209.545 28.4595H196.152ZM281.725 28.4595V64.2005H306.499L306.95 57.2584H291.605V49.5048H303.115V42.6113H291.605V35.4137H305.667V28.4593L281.725 28.4595ZM310.349 28.4595V64.2005H318.471V44.7211C318.764 45.456 319.376 46.3408 320.017 47.0743L334.457 64.2003H340.673V28.4593H332.599V48.0929C332.26 47.3113 331.642 46.4149 330.964 45.6137L316.378 28.4593L310.349 28.4595ZM345.863 28.4595V64.2005H370.65L371.113 57.2584H355.76V49.5048H367.25V42.6113H355.76V35.4137H369.802V28.4593L345.863 28.4595ZM374.504 28.4595V64.2005H384.383V52.3328H387.021L390.989 58.7271C392.401 60.9889 393.589 62.2789 394.88 63.2308C396.36 64.2565 398.155 64.8213 400.605 64.8213C402.517 64.8213 404.77 64.2029 405.956 63.5148L406.589 57.0311C405.901 57.4739 404.884 57.8791 403.753 57.8791C402.284 57.8791 401.435 57.3612 400.361 55.6761L397.489 51.0953C401.493 49.4477 404.204 45.7851 404.204 40.0959C404.204 35.7619 402.463 32.4182 398.949 30.4395C396.462 29.0269 392.855 28.4595 387.881 28.4595H374.504ZM419.341 28.4595L417.41 35.4139L408.03 64.1999H417.686L419.597 57.6554H431.534L433.68 64.1999H444.006L431.136 28.4589L419.341 28.4595ZM446.501 28.4595V64.2005H470.953L471.388 57.2584H456.392V28.4599L446.501 28.4595ZM82.4849 35.3647C86.4411 35.3647 88.648 38.6432 88.648 46.3398C88.648 54.0923 86.4411 57.3068 82.4849 57.3068C78.5327 57.3068 76.326 54.0923 76.326 46.3398C76.326 38.6432 78.5327 35.3647 82.4849 35.3647ZM41.4446 35.4134H43.5828C49.6304 35.4134 53.077 37.1187 53.077 46.0112C53.077 53.0678 51.8392 57.3069 44.4308 57.3069H41.4446V35.4134ZM206.015 35.4134H208.843C211.557 35.4134 213.317 35.6685 214.325 36.6955C215.172 37.5615 215.623 38.8306 215.623 40.6391C215.623 44.4914 214.108 46.1815 210.198 46.1815H206.015V35.4134ZM384.367 35.4134H387.175C389.897 35.4134 391.65 35.6685 392.668 36.6955C393.516 37.5615 393.967 38.8306 393.967 40.6391C393.967 44.4914 392.442 46.1815 388.542 46.1815H384.367V35.4134ZM174.304 37.0628H174.406C174.472 38.4949 175.085 40.4165 175.745 42.451L178.524 51.0324H170.673L173.172 42.4147C173.766 40.2671 174.238 38.3248 174.304 37.0628ZM425.083 37.0628H425.197C425.272 38.4949 425.887 40.4165 426.556 42.451L429.323 51.0324H421.484L423.955 42.4147C424.586 40.2671 425.026 38.3248 425.083 37.0628Z" fill="#1C1B1B"/>
</svg>
