<svg height="304.29031" viewBox="0 0 14.382491 13.126743" width="328.633535" xmlns="http://www.w3.org/2000/svg"><g transform="translate(-146.267091 -167.216389)"><path d="m147.32657 171.57732-.30727.59725-.0854 2.20204.0684 1.60408 10.80311.11924 1.68981-3.8742-.0512-.56304z" fill="#fff"/><g fill="#0066a4"><path d="m153.89388 172.57345c-.55069 0-1.06997.52105-1.20191 1.20615-.13194.6858.17321 1.20685.72425 1.20685.55068 0 1.06997-.52105 1.20156-1.20685.13229-.6851-.17286-1.20615-.7239-1.20615"/><path d="m157.29046 175.77901-.9973-.00072.41063-1.98155c.055-.26282.20179-.48648.44027-.66534.22331-.16439.47448-.26105.75282-.29033l.008-.001zm-1.64818-1.99919c-.22013 1.1437-1.28834 2.07116-2.38583 2.07116-1.0975 0-1.8087-.92746-1.58856-2.07116.22013-1.14371 1.28834-2.07116 2.38583-2.07116 1.0975 0 1.8087.92745 1.58856 2.07116m3.84493-1.6129c-.0653.115-.14711.21907-.24483.3115-.20849.20144-.45015.30198-.72425.30198h-2.68817l.17251-.99942h3.44487c-.34537-2.57281-2.40559-4.4323-5.25956-4.4323-2.85362 0-5.62963 1.85949-6.9656 4.4323l2.54424-.00035c1.09749 0 1.86937.85548 1.64923 1.99919-.22013 1.1437-1.29258 1.99919-2.39042 1.99919h-.14993l-.76306-.001-.00035.001-.99307-.00071.41345-2.0006c.055-.26282.20215-.48683.44027-.66569.22366-.16439.47449-.26106.75318-.29034l.008-.00069-.41134 1.95686h.74894l.0441.00034c.55069 0 1.11372-.33055 1.24566-1.01565.13194-.68508-.2794-.99271-.83044-.99271l-.061.002h-1.4605-.14005c-.23001 0-.41628-.0783-.5588-.2353-.12665-.13934-.1965-.30902-.21096-.5087-.26459.55739-.46355 1.14442-.58068 1.7519-.68368 3.55174 1.64148 6.43112 5.19325 6.43112 3.55176 0 6.98535-2.87938 7.66868-6.43114.1076-.55704.14076-1.09749.10654-1.6129"/><path d="m160.18807 171.98001h-.031v.0924h.0205c.0459 0 .0621-.0265.0621-.0512 0-.0282-.0134-.0413-.0515-.0413m.0529.27905-.078-.13935h-.006v.13935h-.072v-.33479h.11606c.0826 0 .11466.0353.11466.0882 0 .0543-.0307.0868-.078.0956.008.009.018.0261.0282.0441l.0631.10689zm-.28223-.16722c0 .12912.10443.24095.23531.24095s.23495-.10725.23495-.23672c0-.13088-.10407-.24094-.23495-.24094s-.23531.10583-.23531.23671m.55845.001c0 .17639-.14675.32173-.32314.32173-.18239 0-.32491-.14111-.32491-.32173 0-.1778.14534-.32208.32491-.32208.18097 0 .32314.14111.32314.32208"/></g></g></svg>