<?xml version="1.0" encoding="UTF-8"?>
<!-- Created with Inkscape (http://www.inkscape.org/) -->
<svg id="svg74" width="117.84mm" height="23.119169mm" version="1.1" viewBox="0 0 117.84 23.119169" xmlns="http://www.w3.org/2000/svg" xmlns:cc="http://creativecommons.org/ns#" xmlns:dc="http://purl.org/dc/elements/1.1/" xmlns:rdf="http://www.w3.org/1999/02/22-rdf-syntax-ns#">
 <metadata id="metadata71">
  <rdf:RDF>
   <cc:Work rdf:about="">
    <dc:format>image/svg+xml</dc:format>
    <dc:type rdf:resource="http://purl.org/dc/dcmitype/StillImage"/>
   </cc:Work>
  </rdf:RDF>
 </metadata>
 <g id="layer1" transform="translate(-97.306191,-320.47018)">
  <g id="g103" transform="translate(.49999867 -.50000191)" stroke-width=".264583">
   <path id="path78" class="st0" d="m108.39223 321.47018c-6.11187 0-11.086039 4.97417-11.086039 11.08604 0 5.715 4.339169 10.45104 9.895419 11.03313v-2.30188c0-0.47625-0.18521-0.82021-0.66146-0.9525-0.82021-0.21167-2.59292-0.66146-3.46604-1.71979-0.0794-0.0794-0.47625-0.60854-0.44979-1.24354 0.0264-0.68792 0.76729-11.64167 0.76729-11.64167 0-0.23812 0.21166-0.44979 0.47625-0.44979h0.79375c0.13229 0 0.26458 0.0529 0.34396 0.15875 0.0794 0.0794 0.10583 0.18521 0.10583 0.29104v0.10583l-0.58208 9.57792c0 0.23813 0.21166 0.44979 0.47625 0.44979h1.95791c0.26459 0 0.47625-0.21166 0.47625-0.44979v-9.57792c0-0.23812 0.21167-0.44979 0.47625-0.44979h0.82021c0.26458 0 0.47625 0.21167 0.47625 0.44979v9.57792c0 0.23813 0.21167 0.44979 0.47625 0.44979h1.95792c0.26458 0 0.47625-0.21166 0.47625-0.44979l-0.58209-9.57792v-0.10583c0-0.10583 0.0265-0.21167 0.10584-0.29104 0.0794-0.0794 0.21166-0.15875 0.34396-0.15875h0.79375c0.26458 0 0.47625 0.21167 0.47625 0.44979 0-0.0265 0.74083 10.84792 0.76729 11.61521 0.0529 0.66146-0.39688 1.16417-0.44979 1.24354-0.84667 1.05833-2.69875 1.50813-3.46605 1.71979-0.52916 0.15875-0.66145 0.50271-0.66145 0.9525v2.30188c5.5827-0.58209 9.92187-5.29167 9.92187-11.03313 0.13229-6.08541-4.84187-11.05958-10.98021-11.05958z" fill="#6bad44"/>
   <path id="path80" d="m123.26182 338.5358h1.85208v-11.16541h-1.85208v-2.14313h11.45645v3.96875h-2.43416v-1.69333h-4.31271v4.23333h5.08v2.27542h-5.08v4.33917h4.65667v-1.74625h2.43416v4.02166h-11.80041zm19.2352-4.70958h0.68792v-0.37042c0-1.40229-0.89958-1.905-2.03729-1.905-1.64042 0-3.12208 1.05834-3.12208 1.05834l-1.03188-1.905s1.71979-1.37584 4.39208-1.37584c2.9898 0 4.5773 1.53459 4.5773 4.36563v4.445c0 0.3175 0.1852 0.47625 0.47625 0.47625h1.00541v2.06375h-2.61937c-1.03188 0-1.40229-0.55563-1.40229-1.16417v-0.13229c0-0.34396 0.0529-0.55562 0.0529-0.55562h-0.0529s-0.92605 2.14312-3.4925 2.14312c-1.87855 0-3.67771-1.11125-3.67771-3.36021 0.0265-3.43958 4.47146-3.78354 6.24416-3.78354zm-1.82562 5.02708c1.50812 0 2.56646-1.61395 2.56646-2.98979v-0.37041h-0.44979c-1.0848 0-3.70417 0.1852-3.70417 1.85208-0.0265 0.82021 0.55562 1.50812 1.5875 1.50812zm7.80521-7.22312h-1.69334v-2.06375h1.77271v-3.01625h2.67229v3.01625h2.51355v2.06375h-2.51355v4.68312c0 1.87855 1.42875 2.14313 2.2225 2.14313 0.3175 0 0.50271-0.0265 0.50271-0.0265v2.24896s-0.34396 0.0529-0.84666 0.0529c-1.56105 0-4.63021-0.4498-4.63021-4.18042z" fill="#357c3d"/>
   <path id="path82" class="st0" d="m157.44598 335.78414v1.16416c0 1.00542 1.27 1.5875 2.72521 1.5875 1.56104 0 2.67229-0.66145 2.67229-1.905 0-1.56104-1.77271-2.06375-3.54541-2.75166-2.06375-0.79375-4.07459-1.71979-4.07459-4.47146 0-3.09563 2.51354-4.31271 5.18584-4.31271 2.43416 0 4.89479 0.92604 4.89479 2.72521v2.01083h-2.59292v-1.03187c0-0.79375-1.16417-1.19063-2.30187-1.19063-1.27 0-2.30188 0.52917-2.30188 1.69334 0 1.40229 1.42875 1.905 3.04271 2.51354 2.30187 0.82021 4.60375 1.74625 4.60375 4.63021 0 3.14854-2.64583 4.60375-5.55625 4.60375-2.56646 0-5.29167-1.16417-5.29167-3.46605v-1.7727h2.54zm10.53042-4.15396h-1.69333v-2.06375h1.7727v-3.01625h2.6723v3.01625h2.51354v2.06375h-2.51354v4.68312c0 1.87855 1.42875 2.14313 2.2225 2.14313 0.3175 0 0.5027-0.0265 0.5027-0.0265v2.24896s-0.34395 0.0529-0.84666 0.0529c-1.56104 0-4.63021-0.4498-4.63021-4.18042zm7.14375 6.95854h1.61396v-6.48229c0-0.29104-0.18521-0.47625-0.47625-0.47625h-1.24354v-2.06375h2.88395c0.97896 0 1.48167 0.42333 1.48167 1.34937v0.66146c0 0.42334-0.0529 0.68792-0.0529 0.68792h0.0529c0.50271-1.5875 1.82562-2.8575 3.51896-2.8575 0.26458 0 0.50271 0.0529 0.50271 0.0529v2.7252s-0.29105-0.0529-0.66146-0.0529c-2.24896 0-3.22792 1.95791-3.22792 4.04812v2.40771h1.5875v2.06375h-5.95312v-2.06375zm14.63146-9.28687c3.20145 0 4.92125 2.32833 4.92125 5.2652 0 0.3175-0.0529 0.92605-0.0529 0.92605h-7.67292c0.18521 2.03729 1.64042 3.09562 3.33375 3.09562 1.79917 0 3.22792-1.16417 3.22792-1.16417l1.05833 1.95792s-1.69333 1.53458-4.47146 1.53458c-3.6777 0-5.95312-2.64583-5.95312-5.79437-0.0265-3.41313 2.27542-5.82083 5.60917-5.82083zm2.06375 4.57729c-0.0529-1.53459-0.97896-2.43417-2.14313-2.43417-1.40229 0-2.40771 0.97896-2.67229 2.43417zm9.78958-4.57729c3.20146 0 4.92125 2.32833 4.92125 5.2652 0 0.3175-0.0529 0.92605-0.0529 0.92605h-7.67291c0.1852 2.03729 1.64041 3.09562 3.33375 3.09562 1.79916 0 3.22791-1.16417 3.22791-1.16417l1.05834 1.95792s-1.69334 1.53458-4.47146 1.53458c-3.67771 0-5.95313-2.64583-5.95313-5.79437-0.0265-3.41313 2.27542-5.82083 5.60917-5.82083zm2.09021 4.57729c-0.0529-1.53459-0.97896-2.43417-2.14313-2.43417-1.40229 0-2.40771 0.97896-2.67229 2.43417zm4.97416-2.24896h-1.69333v-2.06375h1.77271v-3.01625h2.67229v3.01625h2.51354v2.06375h-2.51354v4.68312c0 1.87855 1.42875 2.14313 2.2225 2.14313 0.3175 0 0.50271-0.0265 0.50271-0.0265v2.24896s-0.34396 0.0529-0.84667 0.0529c-1.56104 0-4.63021-0.4498-4.63021-4.18042z" fill="#6bad44"/>
  </g>
 </g>
 <style id="style76">.st0{fill:#6bad44}</style>
</svg>
