<?xml version="1.0" encoding="utf-8"?>
<!-- Generator: Adobe Illustrator 23.0.1, SVG Export Plug-In . SVG Version: 6.00 Build 0)  -->
<svg version="1.1" id="Ebene_1" xmlns="http://www.w3.org/2000/svg" xmlns:xlink="http://www.w3.org/1999/xlink" x="0px" y="0px"
	 viewBox="0 0 202 42" style="enable-background:new 0 0 202 42;" xml:space="preserve">
<style type="text/css">
	.st0{fill:#8D1922;}
</style>
<g>
	<path class="st0" d="M35.9,31.7H38v0.9h-9.9v-0.9h2.1v-17l5.7-2.7V31.7z M12.2,23v-2h13.7c0-1.6-0.3-2.9-0.8-4.1
		c-0.6-1.1-1.3-2-2.1-2.7c-0.9-0.7-1.8-1.2-2.9-1.6c-1.1-0.3-2.1-0.5-3.2-0.5c-1.5,0-2.9,0.3-4.3,0.9s-2.4,1.4-3.4,2.4
		s-1.7,2.1-2.3,3.3C6.3,19.9,6,21.3,6,22.6c0,1.7,0.3,3.2,0.9,4.5s1.4,2.4,2.4,3.3s2.3,1.6,3.6,2.1c1.4,0.5,2.9,0.7,4.5,0.7
		c1.4,0,2.5-0.2,3.5-0.6c0.9-0.4,1.8-0.9,2.4-1.4c0.7-0.6,1.2-1.2,1.5-1.8c0.4-0.7,0.6-1.3,0.8-1.9L25,27.2c0,0.3-0.2,0.7-0.5,1.3
		c-0.3,0.6-0.7,1.2-1.2,1.8c-0.5,0.6-1.2,1.1-2.1,1.6c-0.8,0.5-1.9,0.7-3.1,0.7c-1.4,0-2.4-0.3-3.2-0.9c-0.8-0.6-1.4-1.4-1.8-2.3
		c-0.4-0.9-0.7-1.9-0.8-3C12.3,25.2,12.2,24.2,12.2,23L12.2,23z M19.7,20.3h-7.4c0-0.8,0.1-1.7,0.2-2.5c0.1-0.9,0.3-1.7,0.5-2.4
		c0.3-0.8,0.7-1.4,1.3-1.9s1.4-0.8,2.4-0.8c0.8,0,1.3,0.2,1.7,0.5c0.4,0.3,0.7,0.8,0.9,1.2c0.2,0.5,0.3,1,0.3,1.5s0,0.9,0,1.2v3.2
		H19.7z M42.3,25.8h-0.7v6.7h0.6c0.1-0.3,0.2-0.5,0.3-0.5c0.1-0.1,0.3-0.2,0.5-0.2c0.3,0,0.7,0.1,1.2,0.2c0.5,0.2,1.1,0.3,1.7,0.5
		c0.6,0.2,1.2,0.3,1.9,0.5s1.2,0.2,1.8,0.2c1,0,2-0.2,3-0.5c0.9-0.3,1.8-0.8,2.5-1.3c0.7-0.6,1.3-1.2,1.8-2.1
		c0.5-0.8,0.7-1.7,0.7-2.7c0-1.5-0.4-2.7-1.3-3.6c-0.9-1-2.1-1.7-3.8-2.3l-3.9-1.4c-0.8-0.3-1.4-0.6-1.8-0.9c-0.5-0.3-0.8-0.6-1-0.9
		c-0.2-0.3-0.3-0.6-0.4-0.9c0-0.3-0.1-0.5-0.1-0.8c0-1,0.4-1.8,1.3-2.4c0.8-0.6,1.8-0.8,2.8-0.8c0.9,0,1.8,0.2,2.4,0.5
		c0.7,0.3,1.2,0.7,1.7,1.2s0.8,1.1,1.2,1.8c0.3,0.7,0.6,1.4,0.9,2.1h0.6v-5.6h-0.6c0,0.2-0.2,0.3-0.2,0.4c-0.1,0.1-0.3,0.2-0.6,0.2
		c-0.2,0-0.4-0.1-0.8-0.2c-0.3-0.1-0.7-0.2-1.1-0.4c-0.4-0.1-0.9-0.3-1.4-0.4S50.4,12,49.8,12c-1.1,0-2.1,0.2-3.1,0.5
		c-0.9,0.3-1.7,0.8-2.4,1.4c-0.6,0.6-1.2,1.3-1.5,2.1c-0.4,0.8-0.6,1.7-0.6,2.6c0,0.8,0.2,1.5,0.4,2.1c0.3,0.6,0.6,1.1,1.1,1.5
		c0.4,0.5,0.9,0.8,1.4,1.1c0.5,0.3,1,0.5,1.4,0.6l3.8,1.4c0.8,0.3,1.5,0.6,2,0.9s0.8,0.6,1.1,0.9s0.4,0.6,0.5,0.9s0.1,0.6,0.1,0.9
		c0,0.9-0.2,1.6-0.5,2.1s-0.7,0.8-1.2,1.1c-0.5,0.2-0.9,0.3-1.4,0.4c-0.5,0-0.9,0-1.1,0c-1.1,0-2-0.2-2.7-0.6s-1.4-0.9-1.9-1.5
		s-1-1.4-1.4-2.1C43,27.5,42.6,26.7,42.3,25.8L42.3,25.8z M68,12.7h-7.7v0.9h2.1v18h-2.1v0.9h9.9v-0.9H68V20.4c0-0.8,0-1.4,0.1-2
		c0-0.5,0.1-1,0.2-1.4c0.1-0.5,0.3-0.8,0.5-1.1c0.2-0.3,0.4-0.6,0.6-0.9c0.9-1.1,2-1.6,3.2-1.6c0.7,0,1.4,0.3,2,0.8
		c0.6,0.6,0.9,1.5,0.9,2.9v14.5h-2.1v0.9h9.9v-0.9h-2.1V18.1c0-0.8,0.2-1.5,0.5-2.1s0.7-1.1,1.2-1.5s0.9-0.6,1.4-0.8
		s0.9-0.3,1.2-0.3c1.1,0,1.9,0.4,2.4,1.1s0.7,1.7,0.7,3v14.1h-2.1v0.9h9.9v-0.9h-2.1V19.2c0-0.6,0-1.2-0.1-2s-0.3-1.6-0.8-2.3
		s-1.1-1.4-2.1-1.9s-2.3-0.8-4-0.8c-0.3,0-0.8,0-1.3,0.1s-1.1,0.3-1.7,0.5c-0.6,0.3-1.2,0.6-1.7,1.1c-0.6,0.5-1.1,1.1-1.5,2
		c-0.3-0.4-0.5-0.9-0.8-1.3s-0.7-0.8-1.2-1.2c-0.5-0.3-1.1-0.6-1.8-0.9c-0.7-0.2-1.6-0.3-2.7-0.3s-1.9,0.2-2.6,0.4
		c-0.7,0.3-1.3,0.6-1.8,1s-0.9,0.8-1.2,1.2c-0.3,0.4-0.6,0.8-0.8,1.1H68V12.7L68,12.7z M118.7,33c0.8-0.2,1.5-0.5,1.8-1.1l-0.4-0.4
		c-0.2,0.3-0.5,0.5-0.8,0.6c-0.2,0.2-0.6,0.2-1,0.2c-0.7,0-1.1-0.2-1.3-0.7c-0.2-0.5-0.3-0.9-0.3-1.5V18.7c0-1.3-0.2-2.4-0.7-3.2
		c-0.5-0.9-1.1-1.5-1.8-2s-1.6-0.8-2.7-1c-1-0.2-2.1-0.3-3.3-0.3c-1,0-2,0.1-2.9,0.3s-1.8,0.5-2.5,0.9s-1.3,0.9-1.8,1.6
		c-0.5,0.6-0.7,1.4-0.7,2.1c0,0.5,0.1,0.9,0.3,1.2c0.2,0.3,0.4,0.6,0.6,0.7c0.3,0.2,0.5,0.3,0.9,0.3c0.3,0,0.6,0.1,0.9,0.1
		c0.2,0,0.5,0,0.8,0s0.6-0.1,0.9-0.2s0.5-0.3,0.8-0.6s0.3-0.6,0.3-1.1c0-0.1,0-0.3,0-0.5c0-0.3,0-0.5-0.1-0.8c0-0.3,0-0.5-0.1-0.8
		c0-0.2,0-0.4,0-0.5c0-0.9,0.3-1.4,0.8-1.8c0.5-0.3,1.1-0.5,1.8-0.5c1.1,0,1.8,0.3,2.3,1c0.4,0.7,0.6,1.4,0.6,2.3v2.8
		c0,0.6-0.1,1.1-0.3,1.4c-0.2,0.3-0.5,0.7-0.9,1c-0.5,0.3-1.1,0.6-1.8,0.8c-0.8,0.3-1.8,0.6-3.1,0.9c-0.8,0.2-1.5,0.5-2.3,0.8
		s-1.4,0.6-2,1s-1.1,0.9-1.4,1.5S99,27.7,99,28.6c0,0.8,0.2,1.6,0.6,2.2s0.9,1.1,1.6,1.4s1.4,0.6,2.1,0.8c0.8,0.2,1.5,0.2,2.3,0.2
		c1.7,0,2.9-0.2,3.8-0.6c0.9-0.5,1.5-1.3,2-2.5h0.1c0.2,1,0.7,1.8,1.4,2.3c0.8,0.6,1.9,0.8,3.5,0.8C117.1,33.2,117.9,33.1,118.7,33
		L118.7,33z M111.1,21.1L111.1,21.1l0.1,6c0,0.9-0.1,1.7-0.3,2.3s-0.5,1.2-0.8,1.5c-0.3,0.4-0.7,0.7-1.1,0.9
		c-0.4,0.2-0.8,0.3-1.2,0.3c-0.7,0-1.2-0.2-1.7-0.5c-0.4-0.3-0.7-0.7-0.9-1.2s-0.3-0.9-0.4-1.4s-0.1-0.9-0.1-1.3
		c0-0.9,0.2-1.7,0.5-2.3c0.3-0.6,0.7-1.1,1.1-1.5c0.5-0.4,1-0.7,1.6-1s1.2-0.6,1.8-0.8c0.4-0.2,0.7-0.4,0.9-0.6
		C111,21.4,111.1,21.3,111.1,21.1L111.1,21.1z M125.1,31.6h-2.2v0.9h9.9v-0.9h-2.1v-9.7c0-1.4,0.2-2.6,0.5-3.7
		c0.3-1.1,0.7-1.9,1.2-2.6c0.5-0.7,1.1-1.2,1.8-1.6c0.7-0.3,1.4-0.5,2.1-0.5c0.9,0,1.6,0.3,2.1,0.9s0.8,1.6,0.8,2.9v14.4h-2.1v0.9
		h9.9v-0.9h-2.1V18.8c0-2-0.6-3.6-1.7-4.8s-2.7-1.8-4.7-1.8c-1.4,0-2.5,0.2-3.5,0.6c-0.9,0.4-1.7,0.9-2.3,1.5s-1.1,1.1-1.4,1.7
		c-0.3,0.6-0.5,1-0.6,1.3h-0.1v-4.6H123v0.9h2.1V31.6L125.1,31.6z M152,31.6h-2.2v0.9h9.9v-0.9h-2.1v-9.7c0-1.4,0.2-2.6,0.5-3.7
		c0.3-1.1,0.7-1.9,1.2-2.6c0.5-0.7,1.1-1.2,1.8-1.6c0.7-0.3,1.4-0.5,2.1-0.5c0.9,0,1.6,0.3,2.1,0.9c0.5,0.6,0.8,1.6,0.8,2.9v14.4
		H164v0.9h9.9v-0.9h-2.1V18.8c0-2-0.6-3.6-1.7-4.8c-1.1-1.2-2.7-1.8-4.7-1.8c-1.4,0-2.5,0.2-3.5,0.6c-0.9,0.4-1.7,0.9-2.3,1.5
		s-1.1,1.1-1.4,1.7c-0.3,0.6-0.5,1-0.6,1.3h-0.1v-4.6h-7.7v0.9h2.1L152,31.6L152,31.6z M60.3,40H198v-1.7H60.3V40z"/>
</g>
</svg>
