<svg xmlns="http://www.w3.org/2000/svg" viewBox="0 0 280 42">
    <path d="M273.641.428v26.555L260.319.428h-6.355v41.156h6.355V14.328l13.275 27.183.047.073H280V.428zM42.281 2.995c-1.492 1.329-3.267 3.807-3.267 8.053V41.63h6.358V23.94l4.307.007c7.913 0 9.607 3.422 10.258 7.091.381 2.15.325 8.454.271 10.574h6.355c.022-.839.196-8.474-.358-11.59-.674-3.792-2.267-6.448-4.341-8.285.56-.37 1.095-.78 1.577-1.242 3.311-3.173 3.393-7.24 3.393-7.681L66.84.273 50.377.267c-.906-.036-4.992-.042-8.096 2.728zm18.195 9.791c-.032 1.195-.617 5.083-6.935 5.083h-8.169v-6.824c0-1.642.41-2.848 1.222-3.588 1.098-.998 2.902-1.148 3.481-1.121l10.404.012zM149.869 35.438c-2.002-.244-4.873-.851-6.374-2.199-1.073-.968-2.068-2.992-2.068-4.694V8.829h-6.359v19.713c0 1.702-1.092 3.726-2.162 4.694-1.499 1.35-4.275 1.955-6.277 2.202V.465h-6.356v41.318l2.966.19c.163.009.554.027 1.117.027 2.531 0 9.463-.406 13.451-3.976.154-.141.296-.292.441-.439.144.147.283.298.44.44C142.68 41.59 149.608 42 152.139 42c.566 0 .96-.021 1.117-.027l2.972-.19V.465h-6.359zM226.17 0c-8.786 0-14.924 5.56-14.924 13.524v14.94c0 7.964 6.138 13.525 14.924 13.525 8.789 0 14.924-5.56 14.924-13.524v-14.94C241.094 5.56 234.959 0 226.17 0zm8.565 28.465c0 4.664-3.201 7.45-8.565 7.45s-8.565-2.786-8.565-7.45v-14.94c0-4.665 3.201-7.45 8.565-7.45s8.565 2.785 8.565 7.45zM191.63 17.946h-14.602V.464h-6.359v41.16h6.359v-17.6h14.602v17.59h6.359V.464h-6.359zM0 41.643h25.705v-6.036H6.36V23.686h12.175v-6.078H6.36V6.49h19.346V.415H0zM81.11 41.642h25.708v-6.036h-19.35V23.684h12.176v-6.077H87.468V6.488h19.35V.413H81.109z"/>
</svg>
