<?xml version="1.0" encoding="utf-8"?>
<!-- Generator: Adobe Illustrator 14.0.0, SVG Export Plug-In . SVG Version: 6.00 Build 43363)  -->
<!DOCTYPE svg PUBLIC "-//W3C//DTD SVG 1.1//EN" "http://www.w3.org/Graphics/SVG/1.1/DTD/svg11.dtd" [
	<!ENTITY ns_flows "http://ns.adobe.com/Flows/1.0/">
	<!ENTITY ns_extend "http://ns.adobe.com/Extensibility/1.0/">
	<!ENTITY ns_ai "http://ns.adobe.com/AdobeIllustrator/10.0/">
	<!ENTITY ns_graphs "http://ns.adobe.com/Graphs/1.0/">
]>
<svg version="1.1" xmlns:x="&ns_extend;" xmlns:i="&ns_ai;" xmlns:graph="&ns_graphs;"
	 xmlns="http://www.w3.org/2000/svg" xmlns:xlink="http://www.w3.org/1999/xlink" xmlns:a="http://ns.adobe.com/AdobeSVGViewerExtensions/3.0/"
	 x="0px" y="0px" width="841.89px" height="595.275px" viewBox="0 0 841.89 595.275" enable-background="new 0 0 841.89 595.275"
	 xml:space="preserve">
<g id="Ebene_1_Kopie">
	<g>
		<path fill-rule="evenodd" clip-rule="evenodd" fill="#B7274C" d="M228.195,131.29c-4.494,4.5-17.319,6.732-24.34,3.704
			c-3.41-5.571-5.508-15.81-0.529-21.166c-8.295-6.858-26.089-3.039-38.627-0.529c-7.814,1.564-16.805,4.955-24.34,8.466
			c-7.462,3.477-13.825,8.669-20.637,11.641c-1.171,0.511-7.456,2.648-7.408,2.646c-12.625,0.66-2.94-8.75,2.117-12.17
			c11.16-7.546,25.35-13.046,41.272-16.932c11.023-2.69,22.713-5.977,33.865-6.879c7.634-0.618,16.259-1.4,23.282-1.588
			c9.387-0.25,23.219,1.391,24.34,7.408c0.372,1.995-0.845,4.237-2.116,7.408c-0.952,2.374-1.289,5.514-2.117,7.408
			C231.563,123.897,228.187,125.8,228.195,131.29z"/>
		<path fill-rule="evenodd" clip-rule="evenodd" fill="#B7274C" d="M557.318,100.6c14.1,19.614-5.285,44.29-16.933,60.322
			c-3.162,4.354-8.481,10.372-7.937,14.287c1.455,10.446,27.884,9.711,33.336,2.117c-7.395-20.461,17.936-39.494,36.51-32.807
			c9.131,3.287,20.443,14.919,21.695,22.224c1.576,9.202-5.751,15.139-13.229,15.874c-8.165,0.804-15.293-5.145-21.166-7.408
			c-2.395,10.68,8.725,18.835,20.107,18.52c11.863-0.329,16.271-12.214,22.224-19.579c-6.049-6.57,3.941-10.834,4.763-19.049
			c0.529-5.3-3.179-7.484,0-12.17c10.702,1.997,10.644,14.754,17.99,20.107c10.169-2.615,21.506-11.908,31.748-16.403
			c7.648-3.357,16.551-0.301,21.694,6.35c11.045-1.876,20.78,2.574,29.633,0c3.755-1.092,8.577-9.75,11.111-13.757
			c5.956-9.419,7.124-19.998,5.292-31.749c16.814,4.096,27.811,25.587,16.932,43.39c11.223,0.59,24.63,6.429,22.753,17.99
			c-1.837,11.315-25.631,2.875-37.039,5.821c-8.414,9.048-12.636,22.288-18.521,33.864c-10.74-3.883-17.795-17.916-12.17-31.748
			c-0.382-2.264-5.171-0.121-6.35-1.588c-1.688-6.601-3.183-13.396-8.467-16.403c-8.034,4.589-18.03,9.533-18.519,22.224
			c-0.249,6.428,5.415,16.69-2.646,17.991c-10.752,1.735-13.927-16.558-16.934-23.811c-5.587,1.108-15.583,7.057-22.224,11.641
			c-2.398,1.656-5.129,4.84-6.879,4.762c-4.604-0.205-4.859-7.612-8.466-10.583c-5.574,10.967-14.295,22.571-29.632,23.282
			c-15.28,0.708-27.614-9.798-35.981-19.049c-3.742,4.48-6.646,11.537-13.757,13.757c-12.862,4.017-28.08-1.502-34.395-7.937
			c-7.571,9.073-17.249,15.828-35.452,13.228c-10.562-1.509-17.595-9.379-20.636-19.049c-7.065,7.484-16.112,15.048-28.573,15.345
			c-15.836,0.376-26.694-10.296-34.924-18.52c-7.433,8.004-16.373,19.451-30.69,20.636c-11.645,0.964-19.624-5.671-28.044-10.583
			c-1.68,1.318-0.693,5.303-2.646,6.35c-11.002,1.773-21.607-1.648-32.807-4.762c-6.878-1.913-15.276-7.889-21.165-7.937
			c-4.66-0.038-10.365,3.708-15.875,5.292c-5.785,1.663-11.96,2.887-16.403,4.762c-4.742,2.001-8.884,6.619-14.287,5.82
			c-2.886-3.269-4.545-13.365-3.704-16.933c2.749-11.651,21.935-13.764,29.103-21.166c-1.783-4.141-8.675-22.936,2.646-21.694
			c3.476,0.381,4.979,5.076,7.408,8.466c1.109,1.548,5.407,7.658,7.408,7.938c2.496,0.348,8.651-4.127,11.641-5.821
			c3.727-2.111,6.487-5.233,12.17-4.762c6.085,0.504,15.208,7.323,14.287,14.287c-0.823,6.222-10.672,5.893-15.875,10.054
			c5.266,3.799,11.63,5.101,17.462,7.937c5.528,2.689,10.54,6.594,16.403,8.466c-3.464-9.066-10.039-17.386-7.938-29.103
			c1.708-9.521,16.622-23.638,30.161-17.991c5.838,2.436,18.87,13.58,23.282,19.578c2.772,3.769,5.267,12.083-1.587,12.699
			c-6.935,0.623-9.359-11.226-20.107-9.524c-4.805,0.761-14.662,7.141-14.816,12.7c-0.218,7.872,17.456,14.142,26.986,13.228
			c11.667-1.118,17.476-9.397,21.695-17.461c-2.812-7.085-0.774-14.775,3.175-20.107c4.13-5.577,15.518-12.563,23.282-13.228
			c14.186-1.215,31.051,13.479,32.277,24.34c2.098,18.597-23.792,15.523-33.865,7.408c-4.388,9.573,6.039,18.938,16.932,18.52
			c12.188-0.469,21.884-10.139,26.458-17.461c1.221-16.849,8.541-29.735,13.757-39.686c2.69-5.132,5.275-10.383,10.055-16.403
			c4.112-5.182,10.541-15.018,17.99-10.054c3.066,2.044,5.552,12.396,4.762,19.049c-1.148,9.674-7.345,19.827-13.758,29.103
			c-2.194,3.176-5.149,7.729-8.994,12.699c-3.484,4.504-7.868,10.448-7.408,13.758c1.693,12.201,31.156,6.931,34.394-0.529
			c-2.741-25.173,9.841-48.405,21.165-65.084C541.928,107.94,546.244,97.699,557.318,100.6z M539.857,137.64
			c2.675-1.295,4.522-5.938,4.232-8.466C541.438,130.755,540.226,133.775,539.857,137.64z M491.177,138.698
			c2.455-0.719,2.968-3.381,3.703-5.82c-0.715-0.167-1.011-0.753-2.116-0.529C492.138,134.368,490.724,135.6,491.177,138.698z
			 M443.555,159.334c-1.049-6.883-16.023-5.531-17.462,1.587C429.586,167.42,445,168.831,443.555,159.334z M595.417,164.625
			c1.015,6.578,14.525,6.976,14.815-1.587C608.187,155.03,594.29,157.322,595.417,164.625z"/>
		<path fill-rule="evenodd" clip-rule="evenodd" fill="none" d="M544.09,129.173c0.29,2.529-1.558,7.171-4.232,8.466
			C540.226,133.775,541.438,130.755,544.09,129.173z"/>
		<path fill-rule="evenodd" clip-rule="evenodd" fill="none" d="M492.764,132.349c1.105-0.224,1.401,0.363,2.116,0.529
			c-0.735,2.438-1.248,5.101-3.703,5.82C490.724,135.6,492.138,134.368,492.764,132.349z"/>
		<path fill-rule="evenodd" clip-rule="evenodd" fill="#B7274C" d="M160.466,152.985c-3.173,5.097-9.649,4.171-14.816,5.292
			c-13.391,2.902-29.693,9.984-41.273,16.932c-5.706,3.424-11.591,6.939-15.345,11.112c-1.739,1.933-5.943,7.39-5.821,10.053
			c0.334,7.241,18.575,10.794,26.986,11.112c3.001,0.113,5.979-0.59,8.996-0.53c8.914,0.181,18.842,1.03,28.573,1.587
			c21.257,1.219,44.522-2.609,64.025-5.82c6.253-1.029,13.558-4.185,18.52,0.529c0.977,2.55,0.359,6.696,0.529,10.053
			c1.69,2.624,6.313-0.97,7.938,1.588c1.852,8.412-0.882,16.731-1.588,24.34c-14.689,6.852-40.643,9.873-61.379,12.7
			c-20.201,2.754-43.577,1.737-63.497,1.587c-18.901-0.142-43.995-4.309-55.03-15.345c-4.797-4.796-11.799-15.106-11.112-24.87
			c0.904-12.844,13.008-24.253,22.753-29.631c16.176-8.927,36.206-16.704,49.739-26.457c-8.26-2.853-18.667-6.376-15.345-19.049
			c0.187-0.695,0.932-0.832,1.058-1.587c0.616-0.086,0.942,0.117,1.059,0.529c3.583,1.5,2.783,4.208,5.292,6.349
			C121.95,153.042,147.789,144.706,160.466,152.985z"/>
		<path fill-rule="evenodd" clip-rule="evenodd" fill="none" d="M426.093,160.922c1.438-7.119,16.413-8.47,17.462-1.587
			C445,168.831,429.586,167.42,426.093,160.922z"/>
		<path fill-rule="evenodd" clip-rule="evenodd" fill="none" d="M610.232,163.039c-0.29,8.562-13.801,8.165-14.815,1.587
			C594.29,157.322,608.187,155.03,610.232,163.039z"/>
	</g>
	<rect x="276.5" y="214.123" fill="none" width="455.5" height="31.107"/>
	
		<text transform="matrix(1 0 0 1 278.207 244.4048)" fill="#817A6C" font-family="'FrutigerNextLT-Bold'" font-size="42" letter-spacing="9">EVENTCATERING</text>
</g>
<g id="Ebene_2">
</g>
<g id="Ebene_1">
</g>
</svg>
