<?xml version="1.0" encoding="UTF-8" standalone="no"?>
<!-- Created with Inkscape (http://www.inkscape.org/) -->
<svg
   xmlns:svg="http://www.w3.org/2000/svg"
   xmlns="http://www.w3.org/2000/svg"
   version="1.0"
   width="743.77502"
   height="463.10526"
   id="svg2"
   xml:space="preserve"><defs
     id="defs5" /><path
     d="M 707.71954,21.012725 C 434.14709,-6.223625 204.66481,28.266275 19.272725,124.55354 C 55.753793,200.28909 80.003391,309.09228 91.950408,451.10531 C 270.44452,383.47668 481.29514,342.08879 724.50225,326.94169 C 693.28356,241.46363 687.73674,139.48731 707.71954,21.012725"
     id="bg_blau"
     style="fill:#2f7ee1;fill-opacity:1;fill-rule:evenodd;stroke:none" /><path
     d="M 690.08348,45.1201 C 486.69974,8.21235 270.44452,29.830763 41.317815,109.8331 C 65.851866,214.3695 85.905786,321.25263 101.33735,430.5536 C 318.3037,365.20058 514.505,346.35559 690.08348,374.01861 C 670.66956,263.79316 670.66956,154.13663 690.08348,45.1201"
     id="bg_weiss"
     style="fill:#ffffff;fill-opacity:1;fill-rule:evenodd;stroke:none" /><path
     d="M 527.9454,161.88794 C 527.9454,149.94093 531.35884,139.77174 538.25681,131.30926 C 545.29702,122.8468 553.7595,118.65111 563.57311,118.65111 C 573.38674,118.65111 581.84921,122.8468 588.88941,131.30926 C 595.78739,139.77174 599.20083,149.94093 599.20083,161.88794 C 599.20083,173.90606 595.78739,184.00414 588.88941,192.25328 C 581.84921,200.64463 573.38674,204.84031 563.57311,204.84031 C 553.7595,204.84031 545.29702,200.64463 538.25681,192.25328 C 531.35884,184.00414 527.9454,173.90606 527.9454,161.88794 z M 585.0493,161.88794 C 585.0493,152.501 582.70256,144.74966 578.0091,138.70504 C 573.52896,133.37155 568.69326,130.74036 563.57311,130.74036 C 558.23963,130.74036 553.47504,133.37155 549.13714,138.70504 C 544.23032,144.74966 541.81247,152.501 541.81247,161.88794 C 541.81247,171.34599 544.23032,178.9551 549.13714,184.8575 C 553.47504,190.33321 558.23963,193.10663 563.57311,193.10663 C 568.69326,193.10663 573.52896,190.33321 578.0091,184.8575 C 582.70256,178.81288 585.0493,171.13265 585.0493,161.88794 M 239.65251,189.55098 L 239.65251,135.71829 C 239.65251,129.46033 238.44359,124.05571 236.09685,119.57559 L 281.39596,119.57559 L 281.39596,133.94045 C 279.26256,132.16263 276.06248,131.30926 271.72456,131.30926 L 252.59511,131.30926 L 252.59511,155.7722 L 264.04434,155.7722 C 267.95556,155.7722 271.72456,154.98996 275.28022,153.35435 L 275.28022,170.13706 C 271.72456,168.35924 267.95556,167.50588 264.04434,167.50588 L 252.59511,167.50588 L 252.59511,192.82218 L 271.72456,192.82218 C 276.06248,192.82218 279.26256,191.82659 281.39596,189.83543 L 281.39596,204.55585 L 236.09685,204.55585 C 238.44359,198.8668 239.65251,193.88888 239.65251,189.55098 M 181.69526,189.55098 L 181.69526,119.22003 C 181.69526,112.96206 180.62856,107.69969 178.42405,103.36178 L 232.89676,103.36178 L 232.89676,117.5133 C 230.69225,115.73548 227.49216,114.811 223.15425,114.811 L 196.41569,114.811 L 196.41569,143.96741 L 215.8296,143.96741 L 226.70991,141.90513 L 226.70991,158.68785 C 223.15425,156.91001 219.52748,156.05665 215.8296,156.05665 L 196.41569,156.05665 L 196.41569,190.19099 C 196.41569,193.88888 197.5535,198.65346 199.90024,204.55585 L 178.42405,204.55585 C 180.62856,198.29789 181.69526,193.31998 181.69526,189.55098 M 445.02742,155.7722 L 456.19219,153.35435 L 456.19219,170.13706 C 452.70765,168.35924 448.93865,167.50588 445.02742,167.50588 L 433.50709,167.50588 L 433.50709,192.82218 L 452.35208,192.82218 C 456.68999,192.82218 459.89008,191.82659 462.09459,189.83543 L 462.09459,204.55585 L 416.79549,204.55585 C 419.14221,200.07573 420.28003,195.02669 420.28003,189.55098 L 420.28003,135.71829 C 420.28003,129.46033 419.14221,124.05571 416.79549,119.57559 L 462.09459,119.57559 L 462.09459,133.94045 C 459.89008,132.16263 456.68999,131.30926 452.35208,131.30926 L 433.50709,131.30926 L 433.50709,155.7722 L 445.02742,155.7722 M 304.93443,166.65253 L 313.82358,166.65253 L 331.7441,204.55585 L 349.38018,204.55585 L 345.89562,200.14684 L 340.84659,192.53773 L 326.76617,164.23468 C 336.15313,160.53679 340.84659,153.0699 340.84659,141.90513 C 340.84659,136.57164 339.06876,131.80706 335.58421,127.46915 C 330.6774,121.99344 324.2061,119.22003 316.17031,119.22003 L 288.22283,119.22003 C 290.99624,123.77126 292.34739,129.10475 292.34739,135.14938 L 291.99183,188.12871 C 291.99183,193.81776 290.85401,199.29348 288.50727,204.55585 L 308.77454,204.55585 C 306.21446,199.50681 304.93443,193.67554 304.93443,187.20424 L 304.93443,166.65253 z M 304.93443,154.84774 L 304.93443,131.30926 L 313.18356,131.30926 C 322.99717,131.30926 327.90399,135.43383 327.90399,143.68296 C 327.90399,151.14985 322.49939,154.84774 311.7613,154.84774 L 304.93443,154.84774 M 377.89656,166.65253 L 395.8882,204.55585 L 413.52427,204.55585 L 409.96861,200.14684 L 404.70624,192.53773 L 390.55471,164.23468 C 400.155,160.53679 404.99069,153.0699 404.99069,141.90513 C 404.99069,136.78498 403.14175,131.94929 399.37275,127.46915 C 394.89261,121.99344 388.42131,119.22003 379.95885,119.22003 L 352.36692,119.22003 C 354.85589,123.77126 356.13593,129.10475 356.13593,135.14938 L 356.13593,188.12871 C 356.13593,193.81776 354.99811,199.29348 352.65138,204.55585 L 372.91864,204.55585 C 370.35856,199.50681 369.07852,193.67554 369.07852,187.20424 L 369.07852,166.65253 L 377.89656,166.65253 z M 369.07852,154.84774 L 369.07852,131.30926 L 377.32766,131.30926 C 387.14127,131.30926 392.04809,135.43383 392.04809,143.68296 C 392.04809,151.14985 386.64349,154.84774 375.9054,154.84774 L 369.07852,154.84774 M 495.02,166.65253 L 512.65606,204.55585 L 530.64771,204.55585 C 526.87871,200.85796 524.03418,196.87563 522.11413,192.53773 L 507.9626,164.23468 C 517.42065,160.53679 522.11413,153.0699 522.11413,141.90513 C 522.11413,136.57164 520.26517,131.80706 516.49617,127.46915 C 511.80271,121.99344 505.40253,119.22003 497.36674,119.22003 L 469.41925,119.22003 C 472.19266,123.77126 473.54381,129.10475 473.54381,135.14938 L 473.54381,188.12871 C 473.54381,193.81776 472.26378,199.29348 469.7037,204.55585 L 490.04208,204.55585 C 487.69534,199.86239 486.48641,194.10221 486.48641,187.20424 L 486.48641,166.65253 L 495.02,166.65253 z M 486.48641,154.84774 L 486.48641,131.30926 L 494.73554,131.30926 C 504.33582,131.30926 509.17152,135.43383 509.17152,143.68296 C 509.17152,151.14985 503.6958,154.84774 492.67326,154.84774 L 486.48641,154.84774 M 250.53284,329.2884 L 265.82218,329.2884 L 265.53771,328.15059 C 264.32879,320.6837 263.75989,313.43015 263.75989,306.38995 L 263.75989,261.9442 C 263.75989,254.47731 264.32879,249.0016 265.53771,245.44594 L 266.10663,244.30813 L 247.61719,244.30813 L 248.1861,245.44594 C 249.96392,249.57051 250.81729,255.82846 250.81729,264.29094 L 250.24838,304.89657 C 249.2528,308.8078 247.26163,312.079 244.34599,314.63908 C 241.43035,317.4125 238.15914,318.76365 234.67459,318.76365 C 227.2077,318.76365 221.94533,314.63908 219.02969,306.38995 C 218.10521,303.82988 217.60742,300.2031 217.60742,295.50963 L 217.60742,265.21541 C 217.60742,257.32185 218.38967,250.77943 219.95416,245.44594 L 220.23861,244.30813 L 201.96252,244.30813 L 202.60254,245.44594 C 203.95369,249.78385 204.66483,256.04181 204.66483,264.29094 L 204.66483,296.9319 C 204.66483,306.95885 206.94045,314.99465 211.42057,321.11038 C 215.75849,327.01278 221.73199,329.92841 229.3411,329.92841 C 236.02574,329.92841 243.27929,327.29723 251.10174,321.96374 L 250.81729,328.15059 L 250.53284,329.2884 M 288.22283,329.92841 C 296.40085,329.92841 303.08549,327.6528 308.20564,323.17266 C 313.11245,318.83476 315.53029,312.93236 315.53029,305.46548 C 315.53029,296.86078 310.62349,289.46501 300.88097,283.42039 L 289.07619,275.17126 C 285.9472,272.25561 284.38271,268.98441 284.38271,265.49986 C 284.38271,262.37089 285.52052,259.81081 287.86726,257.81964 C 290.07178,255.89958 292.77407,254.904 296.11639,254.904 C 300.88097,254.904 305.8589,256.96628 311.12127,261.09085 L 311.7613,261.9442 L 311.7613,247.50823 L 311.12127,247.22378 C 305.21887,244.6637 299.9565,243.38366 295.26304,243.38366 C 288.57839,243.38366 282.96045,245.87263 278.48032,250.77943 C 273.57351,255.4729 271.15566,261.23308 271.15566,268.13105 C 271.15566,274.17568 273.07571,279.29583 276.98694,283.42039 L 294.97857,296.9319 C 299.45871,299.84754 301.73434,303.47431 301.73434,307.81221 C 301.73434,310.58563 300.66764,313.1457 298.46312,315.49244 C 296.11639,317.83918 293.41409,319.0481 290.28511,319.0481 C 285.52052,319.0481 280.5426,315.91911 275.28022,309.59004 L 274.0713,308.16778 L 274.0713,327.58168 L 274.64021,327.58168 L 288.22283,329.92841 M 361.18496,261.65975 L 361.18496,247.22378 L 360.54495,246.93931 C 354.64255,244.37924 349.30906,243.0992 344.40225,243.0992 C 337.93095,243.0992 332.31301,245.58816 327.61954,250.49498 C 322.92606,255.18845 320.57932,260.94861 320.57932,267.8466 C 320.57932,273.89123 322.49939,279.01138 326.41061,283.13594 L 344.40225,296.64744 C 348.88239,299.56309 351.158,303.18985 351.158,307.52776 C 351.158,310.30118 349.94907,312.86125 347.60235,315.20799 C 345.46895,317.76806 342.69554,319.0481 339.35321,319.0481 C 334.87309,319.0481 329.96627,315.77689 324.7039,309.30559 L 323.49497,307.81221 L 323.49497,327.29723 L 323.77943,327.29723 L 337.6465,329.64396 C 345.82451,329.64396 352.43804,327.36834 357.34485,322.8171 C 362.39389,318.47919 364.95396,312.64791 364.95396,305.18103 C 364.95396,296.57633 359.97604,289.18055 349.94907,283.13594 L 338.2154,274.8868 C 335.29976,271.97116 333.80639,268.84219 333.80639,265.49986 C 333.80639,262.15754 334.87309,259.45524 337.00648,257.53519 C 339.35321,255.61513 342.19774,254.61954 345.54006,254.61954 C 350.44688,254.61954 355.35369,256.68183 360.26049,260.80639 L 361.18496,261.65975 M 447.37415,292.23843 L 478.23729,292.23843 L 478.23729,306.1055 C 478.23729,314.71019 477.38393,321.89263 475.6061,327.58168 L 475.03719,329.00395 L 495.02,329.00395 L 494.45109,327.86614 C 492.45992,321.53706 491.46434,314.07018 491.46434,305.46548 L 491.46434,266.92213 C 491.46434,258.45965 492.45992,251.34834 494.45109,245.44594 L 495.02,244.30813 L 475.03719,244.30813 L 475.6061,245.44594 C 477.38393,252.34393 478.23729,259.17079 478.23729,266.06876 L 478.23729,279.86473 L 447.37415,279.86473 L 447.37415,264.00649 C 447.37415,257.32185 448.44085,251.27723 450.57425,245.80151 L 450.92981,244.30813 L 430.8759,244.30813 L 431.4448,245.44594 C 433.22262,250.92166 434.1471,257.89075 434.1471,266.35323 L 434.1471,306.95885 C 434.1471,315.20799 433.22262,322.17708 431.4448,327.86614 L 430.8759,329.00395 L 450.92981,329.00395 L 450.2898,327.58168 C 448.36974,321.11038 447.37415,313.50126 447.37415,304.89657 L 447.37415,292.23843 M 168.46821,272.82453 L 183.18864,252.27281 C 189.80216,242.81475 196.55793,235.20564 203.4559,229.30325 L 204.94928,227.80988 L 180.48634,227.80988 L 180.48634,228.73434 C 179.70409,232.43223 177.5707,236.6279 174.01504,241.32138 L 153.74777,270.47779 L 153.74777,251.34834 C 153.74777,241.74805 154.9567,233.99671 157.30344,228.09433 L 136.1117,227.80988 C 138.03176,234.49451 139.02735,241.9614 139.02735,250.21053 L 139.02735,302.26539 C 139.02735,312.43458 137.81842,321.46595 135.47169,329.2884 L 156.94788,329.2884 C 154.81447,320.89704 153.74777,312.29235 153.74777,303.4032 L 153.74777,277.51799 L 175.22396,309.59004 C 179.70409,315.91911 182.76196,322.24819 184.32645,328.71949 L 184.32645,329.2884 L 207.86491,329.00395 L 206.7271,327.58168 L 168.46821,272.82453 M 218.74524,233.71226 C 218.74524,238.40574 220.87864,240.75248 225.21654,240.75248 C 229.55444,240.75248 231.68784,238.40574 231.68784,233.71226 C 231.68784,229.23214 229.55444,226.95651 225.21654,226.95651 C 220.87864,226.95651 218.74524,229.23214 218.74524,233.71226 M 236.73687,233.71226 C 236.73687,238.40574 238.87027,240.75248 243.20818,240.75248 C 247.54607,240.75248 249.67948,238.40574 249.67948,233.71226 C 249.67948,229.23214 247.54607,226.95651 243.20818,226.95651 C 238.87027,226.95651 236.73687,229.23214 236.73687,233.71226 M 623.02375,327.58168 C 621.6726,322.24819 620.96146,315.13688 620.96146,306.1055 L 620.96146,262.79756 C 620.96146,256.75294 621.45926,250.92166 622.45484,245.44594 L 622.7393,244.30813 L 605.67212,244.30813 C 607.23661,249.0016 608.01886,255.18845 608.01886,262.79756 L 608.01886,302.83429 L 572.1067,244.30813 L 550.91496,244.30813 L 554.47063,246.08596 C 557.59961,248.00601 559.1641,249.85496 559.1641,251.63279 L 559.1641,306.1055 C 559.1641,314.71019 558.38185,321.89263 556.81736,327.58168 L 556.53291,329.00395 L 575.94681,329.00395 L 575.37791,327.58168 C 573.38674,321.89263 572.39115,314.71019 572.39115,306.1055 L 572.39115,269.90888 L 601.26311,316.70136 L 606.80994,328.43504 L 607.09439,329.00395 L 623.3082,329.00395 L 623.02375,327.58168 M 547.43043,329.00395 L 502.0602,329.00395 C 504.40694,323.31489 505.61586,318.33696 505.61586,313.99906 L 505.61586,260.45083 C 505.61586,254.19286 504.40694,248.78826 502.0602,244.30813 L 547.43043,244.30813 L 547.43043,258.38854 C 545.08369,256.82405 541.81247,256.04181 537.68791,256.04181 L 518.84291,256.04181 L 518.55846,280.22029 L 530.36325,280.22029 L 541.24357,278.15801 L 541.24357,294.86961 L 530.36325,292.23843 L 518.84291,292.23843 L 518.84291,317.55473 L 537.68791,317.55473 C 541.81247,317.55473 545.08369,316.55914 547.43043,314.63908 L 547.43043,329.00395 M 425.89798,307.24331 C 421.2045,314.92354 414.94654,318.76365 407.05298,318.76365 C 399.79942,318.76365 393.61257,315.49244 388.49243,309.02114 C 383.4434,302.76318 380.88333,295.29629 380.88333,286.6916 C 380.88333,278.0869 383.4434,270.40668 388.49243,263.72204 C 393.61257,257.03739 399.79942,253.69508 407.05298,253.69508 C 412.52869,253.69508 418.14664,256.46849 423.83569,261.9442 L 424.12014,247.22378 C 418.78665,244.45036 413.0976,243.0992 407.05298,243.0992 C 396.03043,243.0992 386.7146,247.43711 379.10549,256.04181 C 371.49637,264.29094 367.65626,274.53124 367.65626,286.6916 C 367.65626,298.85195 371.21193,309.02114 378.25212,317.27026 C 385.71901,325.73274 395.3193,329.92841 407.05298,329.92841 C 413.95095,329.92841 419.99558,327.6528 425.32906,323.17266 L 425.89798,307.24331"
     id="Schrift"
     style="fill:#ca4500;fill-opacity:1;fill-rule:evenodd;stroke:none" /></svg>