<?xml version="1.0" encoding="UTF-8" standalone="no"?>
<svg
   width="75.536423"
   height="42.708"
   version="1.1"
   id="svg3"
   xmlns:xlink="http://www.w3.org/1999/xlink"
   xmlns="http://www.w3.org/2000/svg"
   xmlns:svg="http://www.w3.org/2000/svg">
  <defs
     id="defs1">
    <path
       id="path-1"
       d="M 0.472,0.607 H 9.9 V 13.76 H 0.472 Z" />
    <path
       id="path-3"
       d="m 0.018,0.429 h 6.21 v 4.649 h -6.21 z" />
    <path
       id="path-5"
       d="M 0.482,0.852 H 5.246 V 4.314 H 0.482 Z" />
  </defs>
  <g
     id="desktop"
     stroke="none"
     stroke-width="1"
     fill="none"
     fill-rule="evenodd"
     transform="translate(4.228998e-4,-0.863)">
    <g
       id="03-formulazione"
       transform="translate(-1158,-2928)"
       fill="#000000">
      <g
         fill="none"
         transform="translate(1158,2928)"
         id="Group-46">
        <g
           id="Group-3"
           transform="translate(65.636,17.689)">
          <mask
             id="mask-2"
             fill="#ffffff">
            <use
               xlink:href="#path-1"
               id="use1" />
          </mask>
          <path
             d="m 9.9,13.3 v 0.46 H 1.792 V 13.3 c 0.272,-0.258 0.89,-1.095 0.89,-2.017 L 2.688,3.678 C 2.692,2.796 2.12,2.329 0.472,2.242 V 2.025 L 2.288,0.607 6.934,0.615 c 1.134,0 2.05,0.5 2.05,1.117 v 9.55 c 0.002,0.923 0.647,1.76 0.916,2.018"
             id="Fill-1"
             fill="#667d64"
             mask="url(#mask-2)" />
        </g>
        <path
           d="m 71.008,16.547 c 1.46,0 2.639,-0.797 2.639,-1.784 0,-0.987 -1.178,-1.791 -2.639,-1.791 -1.455,0 -2.632,0.804 -2.632,1.79 0,0.988 1.177,1.785 2.632,1.785"
           id="Fill-4"
           fill="#667d64" />
        <path
           d="m 65.549,30.682 a 1.92,1.92 0 0 1 -0.156,0.002 1.441,1.441 0 0 1 -1.417,-1.41 V 12.732 c 0,-0.574 -0.92,-1.043 -2.05,-1.043 l -4.648,-0.002 -1.819,1.32 v 0.2 c 1.653,0.085 2.22,0.517 2.215,1.34 l -0.002,14.629 c 0,1.282 1.07,2.295 2.415,2.295 h 4.49 c 0.504,0.012 0.957,-0.22 1.226,-0.587 l 0.003,-0.006 -0.252,-0.196 z"
           id="Fill-6"
           fill="#667d64" />
        <path
           d="m 55.417,18.022 -0.208,0.019 c -4.266,0.537 -5.16,2.18 -5.852,2.754 v -1.358 c 0,-0.618 -0.921,-1.115 -2.053,-1.115 l -4.646,-0.007 -1.82,1.415 v 0.218 c 1.65,0.089 2.223,0.553 2.217,1.432 l -0.004,7.593 c -0.003,0.553 -0.223,1.072 -0.46,1.454 a 2.01,2.01 0 0 1 -0.437,0.478 c -0.15,0.123 -0.312,0.09 -0.296,0.093 0,0 -0.233,-0.019 -0.346,-0.099 -0.162,-0.111 -0.325,-0.317 -0.445,-0.544 -0.34,-0.622 -3.486,-8.575 -3.855,-9.328 -0.71,-1.425 -1.596,-2.237 -3.187,-2.62 -0.52,-0.128 -1.39,-0.268 -2.675,-0.275 -1.033,0 -4.495,-0.005 -4.495,-0.005 l -1.833,1.44 v 0.2 h 0.73 c 3.782,0 4.635,-0.047 5.886,3.108 -8.06,0.657 -10.033,2.987 -10.238,5.393 -0.023,0.28 0.002,0.531 0.053,0.765 a 2.62,2.62 0 0 1 -0.393,0.094 c -4.658,0.876 -8.456,0.2 -10.984,-1.96 -1.876,-1.599 -2.923,-3.953 -2.87,-6.45 0.082,-3.808 2.674,-7.648 8.273,-7.648 1.141,0 2.492,0.392 3.32,0.796 0.904,0.438 2.536,1.64 2.536,1.64 h 0.047 l 3.141,-2.467 v -0.057 c -0.27,-0.138 -1.78,-0.879 -4.12,-1.444 C 14.37,10.084 8.503,10.947 4.421,13.895 1.537,15.98 -0.03,18.818 0,21.876 c 0.054,5.156 4.835,10.466 13.853,10.603 2.838,0 5.72,-0.45 9.037,-1.395 0.09,-0.025 0.175,-0.055 0.258,-0.082 0.05,0.03 0.545,0.242 0.545,0.242 2.301,0.974 5.4,1.17 10.735,-1 0.887,0.863 2.016,1.09 2.718,1.186 0.115,0.015 0.236,0.015 0.236,0.015 l 12.886,0.004 v -0.46 c -0.27,-0.253 -0.906,-1.095 -0.906,-2.016 v -6.305 c 0.6,-0.899 1.599,-1.604 3.98,-1.604 1.068,0.019 1.66,0.496 1.798,0.893 h 0.326 v -3.9 z M 30.291,29.814 c -1.765,-0.002 -2.734,-1.312 -2.623,-2.501 0.148,-1.562 1.535,-2.999 3.686,-2.999 0.53,0 0.715,0.237 0.857,0.532 0.133,0.317 0.232,0.643 0.618,1.899 0.423,1.255 0.504,1.404 0.883,2.246 -1.132,0.414 -2.218,0.827 -3.421,0.823 z"
           id="Fill-8"
           fill="#667d64" />
        <path
           id="Fill-10"
           fill="#667d64"
           d="M 62.324,7.279 62.342,7.173 62.479,6.387 62.497,6.28 62.39,6.261 59.14,5.735 59.641,2.257 59.657,2.147 59.548,2.132 58.468,1.983 58.36,1.968 l -0.014,0.108 -0.58,4.388 -0.015,0.105 0.105,0.015 4.363,0.678 z" />
        <path
           id="Fill-12"
           fill="#667d64"
           d="M 64.809,7.761 64.83,7.655 65.66,3.31 65.68,3.205 65.575,3.184 64.508,2.968 l -0.109,-0.02 -0.02,0.107 -0.79,4.358 -0.02,0.105 0.106,0.02 1.025,0.203 z" />
        <path
           d="M 56.421,6.4 56.435,6.293 56.53,5.499 56.545,5.392 56.437,5.377 c 0,0 -0.918,-0.106 -1.545,-0.171 C 54.355,5.148 53.457,5.063 53.148,5.033 l 0.334,-3.5 0.01,-0.109 -0.111,-0.01 -1.083,-0.091 -0.107,-0.01 -0.013,0.107 -0.376,4.404 -0.008,0.11 0.107,0.01 c 0.016,0 1.515,0.13 2.267,0.207 0.748,0.075 2.132,0.234 2.146,0.238 l 0.107,0.01 z"
           id="Fill-14"
           fill="#667d64" />
        <g
           id="Group-18"
           transform="translate(37.136,0.434)">
          <mask
             id="mask-4"
             fill="#ffffff">
            <use
               xlink:href="#path-3"
               id="use2" />
          </mask>
          <path
             d="M 2.508,5.078 H 2.615 L 3.658,5.071 3.767,5.069 V 4.962 L 3.76,1.465 6.088,1.478 6.195,1.479 6.196,1.373 6.225,0.543 6.228,0.429 H 3.15 C 2.157,0.436 0.148,0.481 0.129,0.481 L 0.018,0.483 0.021,0.592 0.043,1.4 0.047,1.509 0.154,1.507 2.467,1.465 2.504,4.97 Z"
             id="Fill-16"
             fill="#667d64"
             mask="url(#mask-4)" />
        </g>
        <path
           d="M 37.66,5.379 34.735,1.062 34.702,1.012 34.642,1.013 33.408,1.074 33.347,1.078 33.319,1.133 30.924,5.719 30.836,5.892 31.029,5.88 32.175,5.795 32.236,5.793 32.263,5.738 32.753,4.802 35.724,4.653 36.326,5.539 36.359,5.59 36.42,5.587 37.576,5.547 37.772,5.542 37.661,5.379 Z M 33.314,3.743 34.101,2.272 35.045,3.657 Z"
           id="Fill-19"
           fill="#667d64" />
        <path
           d="M 50.134,5.813 50.146,5.706 50.198,4.908 50.205,4.798 50.097,4.794 A 162.74,162.74 0 0 0 45.884,4.576 l 0.03,-0.783 1.502,0.061 c 0.47,0.023 1.285,0.067 1.285,0.067 l 0.108,0.006 0.006,-0.108 0.049,-0.807 0.007,-0.11 -0.109,-0.006 c -0.009,0 -0.954,-0.056 -1.39,-0.072 L 45.951,2.765 45.985,1.978 c 0.328,0.013 1.336,0.053 1.971,0.087 0.788,0.039 2.178,0.127 2.178,0.127 l 0.11,0.006 0.006,-0.107 0.058,-0.806 0.008,-0.11 -0.11,-0.007 C 50.19,1.168 48.48,1.058 47.48,1.017 46.42,0.967 44.85,0.918 44.836,0.918 l -0.11,-0.003 -0.003,0.108 -0.126,4.42 -0.004,0.108 0.11,0.004 c 0,0 1.777,0.057 2.735,0.1 0.891,0.04 2.573,0.15 2.59,0.15 z"
           id="Fill-21"
           fill="#667d64" />
        <path
           d="m 17.104,7.774 0.108,-0.021 0.996,-0.204 0.106,-0.022 -0.02,-0.104 -0.261,-1.444 2.924,-0.53 0.103,-0.02 -0.016,-0.104 -0.124,-0.8 -0.019,-0.11 -0.109,0.02 -2.945,0.527 -0.178,-0.99 4.226,-0.728 0.103,-0.02 -0.015,-0.104 -0.118,-0.799 -0.017,-0.11 -0.11,0.02 c -0.039,0.005 -3.994,0.654 -5.401,0.963 l -0.103,0.023 0.02,0.104 0.829,4.343 0.02,0.11 z"
           id="Fill-23"
           fill="#667d64" />
        <path
           d="M 29.992,5.77 28.63,4.349 28.636,4.347 c 0.275,-0.105 0.5,-0.25 0.674,-0.436 0.23,-0.253 0.343,-0.545 0.344,-0.891 0,-0.045 -0.003,-0.09 -0.007,-0.146 C 29.6,2.399 29.394,2.047 29.014,1.799 28.711,1.599 28.328,1.498 27.877,1.498 A 3.7,3.7 0 0 0 27.553,1.516 C 25.625,1.705 23.464,1.989 23.442,1.99 l -0.11,0.016 0.017,0.109 c 0.112,0.784 0.216,1.576 0.317,2.344 0.086,0.679 0.178,1.358 0.274,2.041 L 23.954,6.608 24.062,6.593 25.099,6.454 25.206,6.439 25.192,6.333 25.008,4.863 27.188,4.616 28.624,6.035 28.659,6.07 28.71,6.066 29.928,5.955 30.15,5.933 29.993,5.772 Z m -2.37,-2.233 -2.741,0.31 -0.124,-0.988 2.696,-0.304 c 0.075,-0.01 0.147,-0.01 0.211,-0.01 h 0.022 c 0.393,0 0.619,0.172 0.626,0.469 -0.002,0.206 -0.077,0.487 -0.69,0.523 z"
           id="Fill-25"
           fill="#667d64" />
        <path
           id="Fill-27"
           fill="#667d64"
           d="m 66.205,42.358 h -6.1 v -0.926 h 6.1 v 0.859 z" />
        <path
           id="Fill-29"
           fill="#667d64"
           d="m 19.87,42.358 h -6.103 v -0.926 h 6.103 v 0.859 z" />
        <path
           d="m 53.596,43.55 h -0.862 v -2.746 l -0.64,0.206 -0.079,0.024 V 40.43 l 0.046,-0.012 a 2.24,2.24 0 0 0 0.699,-0.302 h 0.836 z"
           id="Fill-31"
           fill="#667d64" />
        <path
           d="m 57.237,43.55 h -0.863 v -2.746 l -0.64,0.206 -0.077,0.024 V 40.43 l 0.045,-0.012 a 2.27,2.27 0 0 0 0.699,-0.302 h 0.836 z"
           id="Fill-33"
           fill="#667d64" />
        <path
           id="Fill-35"
           fill="#667d64"
           d="M 38.429,43.552 V 42.89 h -2.805 v -2.778 h -0.777 v 3.44 z" />
        <path
           d="M 26.685,40.586 C 26.3,40.271 25.775,40.113 25.123,40.113 h -2.386 v 3.44 h 2.502 c 0.558,0 1.032,-0.151 1.41,-0.45 0.414,-0.328 0.623,-0.744 0.623,-1.235 0,-0.53 -0.197,-0.962 -0.587,-1.282 m -0.56,2.01 c -0.221,0.197 -0.495,0.294 -0.832,0.294 h -1.779 v -2.116 h 1.66 c 0.384,0 0.695,0.102 0.927,0.303 a 0.975,0.975 0 0 1 0.345,0.776 c 0,0.308 -0.105,0.55 -0.32,0.743"
           id="Fill-37"
           fill="#667d64" />
        <path
           d="m 31.358,40.111 h -0.866 l -2.248,3.441 h 0.905 l 0.515,-0.758 h 2.522 l 0.514,0.758 h 0.906 l -2.248,-3.44 z m -1.278,2.049 0.845,-1.358 0.846,1.358 h -1.69 z"
           id="Fill-39"
           fill="#667d64" />
        <g
           id="Group-43"
           transform="translate(44.91,39.257)">
          <mask
             id="mask-6"
             fill="#ffffff">
            <use
               xlink:href="#path-5"
               id="use3" />
          </mask>
          <path
             d="M 2.739,4.314 C 1.914,4.314 1.232,4.122 0.714,3.745 L 0.694,3.731 0.714,3.717 1.215,3.357 C 1.549,3.633 2.037,3.773 2.688,3.773 2.95,3.773 3.192,3.74 3.435,3.672 3.732,3.586 3.977,3.443 4.16,3.25 A 0.934,0.934 0 0 0 4.433,2.605 0.51,0.51 0 0 0 4.423,2.51 L 4.409,2.445 4.357,2.485 C 3.903,2.841 3.289,3.021 2.532,3.021 1.897,3.021 1.41,2.927 1.042,2.737 0.671,2.549 0.482,2.294 0.482,1.977 c 0,-0.345 0.196,-0.622 0.585,-0.824 0.38,-0.199 0.915,-0.3 1.586,-0.3 0.78,0 1.415,0.16 1.884,0.473 0.47,0.32 0.71,0.75 0.71,1.276 0,0.498 -0.254,0.919 -0.754,1.25 -0.47,0.307 -1.06,0.462 -1.754,0.462 M 2.59,1.368 c -0.408,0 -0.733,0.054 -0.968,0.158 -0.231,0.103 -0.348,0.238 -0.348,0.402 0,0.177 0.111,0.315 0.341,0.42 0.22,0.106 0.54,0.16 0.951,0.16 0.694,0 1.243,-0.196 1.628,-0.581 L 4.223,1.899 4.195,1.871 C 3.89,1.537 3.35,1.368 2.59,1.368"
             id="Fill-41"
             fill="#667d64"
             mask="url(#mask-6)" />
        </g>
        <path
           d="M 43.234,43.55 H 42.372 V 40.804 L 41.73,41.01 41.654,41.034 V 40.43 l 0.044,-0.012 c 0.264,-0.063 0.493,-0.169 0.7,-0.302 h 0.836 z"
           id="Fill-44"
           fill="#667d64" />
      </g>
    </g>
  </g>
</svg>
