<?xml version="1.0" encoding="UTF-8" standalone="no"?>
<!-- Created with Inkscape (http://www.inkscape.org/) -->
<svg
   xmlns:svg="http://www.w3.org/2000/svg"
   xmlns="http://www.w3.org/2000/svg"
   version="1.0"
   width="476"
   height="91"
   viewBox="-0.42 -0.998 476 91"
   id="svg2"
   xml:space="preserve">
	<defs
   id="defs4">
	</defs>
	<g
   id="g6">
		<path
   d="M 72.424,18.235 L 72.424,33.985 C 74.713,33.985 85.028,33.989 85.028,33.989 C 89.868,33.966 92.989,30.466 92.958,25.54 C 92.929,21.419 89.749,18.235 84.981,18.235 L 72.424,18.235 M 53.172,0.622 L 76.557,0.622 C 89.172,0.622 96.729,0.309 104.348,7.673 C 109.057,12.239 112.084,18.251 112.084,24.579 C 112.084,36.716 104.936,44.7 93.393,49.47 L 120.377,87.95 L 98.072,87.95 L 71.512,51.583 L 71.512,87.95 L 53.172,87.95 L 53.172,0.622 z "
   style="fill:#0054a4"
   id="path8" />
		<path
   d="M 285.537,28.829 L 269.176,52.575 L 285.537,52.575 L 285.537,28.829 M 275.412,0.618 L 263.396,18.337 L 245.091,18.337 L 245.091,56.626 L 283.292,0.618 L 303.579,0.618 L 303.579,87.95 L 285.536,87.95 L 285.536,70.153 L 257.087,70.153 L 244.752,87.95 L 226.037,87.95 L 226.037,18.337 L 206.728,18.372 L 198.408,18.337 C 195.267,18.177 192.793,20.458 192.793,23.466 C 192.793,25.986 194.625,27.587 195.856,28.935 L 213.34,47.498 C 217.713,52.166 221.744,57.768 221.744,64.201 C 221.744,79.443 208.824,87.951 192.049,87.951 L 169.684,87.951 L 181.825,70.123 L 192.05,70.119 L 198.909,70.103 C 201.669,70.091 203.356,68.365 204.169,65.619 C 204.405,64.826 203.933,62.431 202.253,60.76 L 181.513,39.822 C 177.142,35.263 174.341,29.455 174.341,23.232 C 174.341,10.888 185.886,0.619 199.222,0.619 L 275.412,0.619 L 275.412,0.618 z "
   style="fill:#0054a4"
   id="path10" />
		<polyline
   fill="#0054A4"
   points="0,0.63 48.199,0.63 48.18,18.349 18.74,18.349 18.717,33.899 48.199,33.899 48.199,51.591     18.717,51.591 18.717,87.958 0,87.958 0,0.63 "
   id="polyline12"
   style="fill:#0054a4" />
		<path
   d="M 128.381,55.333 C 128.381,64.454 135.776,71.849 144.897,71.849 C 154.02,71.849 161.413,64.454 161.413,55.333 C 161.413,46.212 154.02,38.813 144.897,38.813 C 135.775,38.813 128.381,46.212 128.381,55.333 M 110.752,55.337 C 110.752,36.478 126.041,21.189 144.897,21.189 C 163.753,21.189 179.042,36.478 179.042,55.337 C 179.042,74.2 163.753,89.485 144.897,89.485 C 126.041,89.485 110.752,74.2 110.752,55.337 z "
   style="fill:#0054a4"
   id="path14" />
		<path
   d="M 383.494,28.915 L 367.135,52.657 L 383.494,52.657 L 383.494,28.915 M 381.252,0.704 L 401.541,0.704 L 401.541,88.032 L 383.494,88.032 L 383.494,70.239 L 355.045,70.239 L 342.713,88.032 L 321.986,88.032 L 381.252,0.704 z "
   style="fill:#54b948"
   id="path16" />
		<path
   d="M 472.557,85.431 C 461.159,89.052 452.127,89.29 445.971,89.29 C 427.823,89.29 406.854,76.333 406.854,44.29 C 406.854,14.54 427.627,0.356 449.792,0.009 C 454.214,-0.061 462.698,0.243 469.362,3.427 L 475.495,6.583 L 466.073,21.911 C 461.182,18.997 455.862,18.009 452.28,18.009 C 438.175,18.009 426.721,25.279 426.721,44.29 C 426.721,60.356 435.76,71.29 448.264,71.29 C 450.389,71.29 452.377,70.899 453.83,70.157 L 453.83,54.13 L 443.396,54.13 L 443.396,36.845 L 472.548,36.845 L 472.548,83.822 L 472.557,85.431"
   style="fill:#54b948"
   id="path18" />
	</g>
</svg>