<?xml version="1.0" encoding="iso-8859-1"?>
<!-- Generator: Adobe Illustrator 13.0.0, SVG Export Plug-In . SVG Version: 6.00 Build 14948)  -->
<!DOCTYPE svg PUBLIC "-//W3C//DTD SVG 1.1//EN" "http://www.w3.org/Graphics/SVG/1.1/DTD/svg11.dtd">
<svg version="1.1" id="Layer_2" xmlns="http://www.w3.org/2000/svg" xmlns:xlink="http://www.w3.org/1999/xlink" x="0px" y="0px"
	 width="227px" height="227px" viewBox="0 0 227 227" style="enable-background:new 0 0 227 227;" xml:space="preserve">
<g>
	<rect style="fill:#231F20;" width="227" height="227"/>
	<g>
		<g>
			<path style="fill:#FFFFFF;" d="M198.871,136.914c-0.443-8.549-1.46-14.439-3.146-19.398c-1.686-4.958-4.021-8.918-6.979-13.594
				l-3.093-4.885l-0.065,5.78c0,0.001-0.001,0.148-0.022,0.438c-0.076,1.076-0.428,3.946-1.848,7.043
				c-1.188,2.587-3.082,5.318-6.193,7.431V96.015l-5.811,4.055V62.082l-0.245-0.046l-6.106,15.901V27.16L104.96,55.133v-11.87
				l-8.784,5.405l0.002-27.422L93.56,22.88L55.916,46.354l7.647,4.589l0.001,34.274c-0.315,0.423-0.841,1.125-1.528,2.028
				c-1.739,2.288-4.511,5.864-7.452,9.393c-2.936,3.525-6.063,7.02-8.41,9.074l-1.801,1.583l1.907,1.091
				c-1.563,1.406-3.985,3.611-6.575,6.072c-2.212,2.101-4.541,4.382-6.574,6.524c-2.035,2.146-3.766,4.133-4.829,5.757l-0.055,0.086
				l-0.226,0.346l0.229,45.181l0.25,0.029l6.551-26.206l0.064,57.728l0.243,0.05c0.013-0.031,3.503-8.861,4.549-11.571
				c2.149-5.582,6.617-15.941,13.361-26.074l4.392-0.74l0.005-0.004h0.005c0.734-0.146,9.558-1.858,15.476-9.99
				c2.994-4.133,4.183-7.773,5.443-10.742c1.288-2.997,2.509-5.276,5.792-7.656c3.039-2.181,4.91-3.39,6.013-4.039
				c0.773,1.846,2.275,4.805,4.898,7.784c4.161,4.755,11.296,9.504,22.438,9.582v0.001h0.343c0.565,0,1.143-0.014,1.727-0.034
				l1.644-0.067v-4.41c0.068-0.233,0.256-0.758,0.709-1.35c0.521-0.668,1.357-1.427,2.885-1.975c2.37-0.846,4.182-2.167,5.462-3.372
				c1.181-1.11,1.908-2.112,2.24-2.633c0.026-0.022,0.063-0.052,0.096-0.072l0.011-0.008l0.004-0.002
				c0.447-0.349,1.812-0.919,2.558-0.912h0.004h0.014l0.005,0.001h0.071c0.366,0.003,0.565,0.081,0.669,0.155l6.852,4.911
				l-1.619,2.834l1.689,0.175l-0.037,0.038l0.588,0.035v0.025h0.414c0.104,0.012,0.422,0.055,0.911,0.154
				c1.921,0.379,6.308,1.635,9.787,5.039l0.031,0.029l0.034,0.033l0.008,0.008l0.08,0.063c0.039,0.029,0.013,0.009,0.033,0.025
				c0.132,0.1,0.733,0.562,1.718,1.367c3.249,2.658,10.603,9.039,18.292,18.086l-1.416,1.771l1.646,1.01
				c0.004,0.003,0.008,0.005,0.014,0.009c0.002,0,0.003,0.002,0.004,0.002c0.392,0.274,6.285,4.463,11.277,20.525l0.922,3.084
				l2.008-1.947c0.007-0.007,0.016-0.015,0.023-0.022l0.301-0.292l-0.016-0.016c1.68-1.938,9.154-12.51,9.159-39.897v-0.063
				c0-4.1,0.103-7.772,0.104-11.115C198.977,140.021,198.95,138.432,198.871,136.914z M57.688,160.162
				c-0.487,0.979-1.048,1.888-1.678,2.605l-1.59,1.842C55.459,163.109,56.549,161.623,57.688,160.162z"/>
			<path style="fill:#ED1C24;" d="M198.43,136.938c-0.443-8.525-1.455-14.373-3.123-19.278c-1.668-4.906-3.979-8.829-6.937-13.499
				l-2.29-3.619l-0.049,4.282c0,0.004-0.002,0.164-0.024,0.466c-0.081,1.113-0.437,4.029-1.887,7.196
				c-1.296,2.828-3.435,5.843-7.041,8.063v-23.68l-5.81,4.054V63.805l-6.353,16.523V27.855l-60.403,27.972v-11.77l-8.783,5.405
				l0.003-27.416l-1.939,1.21l-37.03,23.09l7.242,4.345v34.673c-0.3,0.403-0.862,1.155-1.618,2.15
				c-1.742,2.291-4.518,5.87-7.465,9.407c-2.943,3.534-6.074,7.036-8.458,9.124l-1.335,1.173l1.902,1.087
				c-1.519,1.36-4.169,3.762-7.023,6.474c-2.208,2.099-4.533,4.375-6.558,6.509c-2.026,2.138-3.747,4.114-4.78,5.692l-0.053,0.082
				l-0.154,0.238l0.146,43.412l6.882-28.201l-0.001,59.979c0.003-0.009,2.958-7.571,4.001-10.271
				c2.773-7.205,9.38-22.31,19.768-34.712c-0.673,1.956-1.639,4.089-2.918,5.552l-2.298,2.664l3.489-0.591c0,0,0,0,0.001,0
				l0.021-0.004l0.012-0.002c0.646-0.127,9.393-1.805,15.219-9.819c2.954-4.076,4.123-7.658,5.395-10.654
				c1.289-3.014,2.583-5.418,5.94-7.844c3.378-2.422,5.321-3.652,6.385-4.256c0.038-0.021,0.073-0.041,0.107-0.061
				c0.688,1.748,2.193,4.928,5.011,8.128c4.129,4.713,11.202,9.423,22.365,9.433l0,0h0.084c0.561,0,1.129-0.012,1.708-0.035
				l1.217-0.049v-4.047c0.063-0.232,0.263-0.855,0.804-1.56c0.563-0.728,1.482-1.548,3.084-2.119
				c2.301-0.82,4.063-2.104,5.309-3.276c1.191-1.123,1.908-2.133,2.205-2.604c0.035-0.033,0.108-0.096,0.19-0.149
				c0.563-0.414,1.931-0.999,2.853-0.993h0.011h0.047c0.429,0.002,0.726,0.094,0.927,0.238l7.178,5.145l-1.479,2.59l1.94,0.199l0,0
				c0.002,0,0.002,0,0.004,0c0.037,0.006,0.391,0.043,0.986,0.164c1.967,0.394,6.43,1.664,10.008,5.158l0.024,0.023l0.036,0.033
				l0.055,0.043c0.02,0.014,0.01,0.006,0.033,0.023c0.133,0.102,0.739,0.565,1.729,1.375c3.295,2.699,10.785,9.198,18.584,18.424
				l-1.33,1.661l1.225,0.749c0.005,0.004,0.014,0.01,0.027,0.018c0.481,0.336,6.441,4.63,11.451,20.764l0.717,2.388l1.482-1.438l0,0
				c0.039-0.037,0.072-0.072,0.149-0.154c1.237-1.329,9.18-11.573,9.185-39.756v-0.062c0-4.108,0.103-7.783,0.103-11.117
				C198.533,140.025,198.506,138.443,198.43,136.938z M144.085,143.396L144.085,143.396L144.085,143.396L144.085,143.396z"/>
			<path style="fill:#FFFFFF;" d="M187.116,104.192l-0.009,0.642c0,0.005-0.002,0.187-0.026,0.534
				c-0.177,2.393-1.476,12.144-10.896,16.912l-0.185,0.093v-23.44l-5.81,4.054v-33.36l-6.107,15.862l-0.244-0.045V29.542
				l-60.404,27.972V45.985l-8.783,5.405l0.002-27.402l-0.291,0.182L58.831,46.329l6.255,3.753v35.639l-0.025,0.034
				c-0.196,0.264-0.846,1.14-1.813,2.412c-3.499,4.601-11.129,14.357-16.07,18.689l-0.2,0.176l1.893,1.082l-0.132,0.117
				c-1.035,0.917-4.347,3.874-7.985,7.33c-4.396,4.18-9.26,9.07-11.177,12.01l-0.03,0.048l0.243,33.713l6.534-26.744l0.25,0.031
				v61.89c0.388-0.896,1.178-2.757,1.917-4.675c3.036-7.873,10.567-25.054,22.671-38.106l0.31-0.334l-0.093,0.445
				c-0.008,0.036-0.015,0.074-0.023,0.111c-0.458,2.187-1.704,6.932-4.196,9.816l-0.345,0.398l0.509-0.085
				c0.046-0.011,8.857-1.496,14.592-9.402c2.856-3.942,3.978-7.381,5.275-10.442c1.298-3.064,2.756-5.752,6.303-8.297
				c3.398-2.438,5.364-3.686,6.483-4.318c0.56-0.317,0.908-0.482,1.115-0.564l0.13-0.054l0.043,0.13
				c0.353,1.079,1.773,4.926,5.169,8.781c3.991,4.533,10.729,9.066,21.626,9.066c0,0,0.002,0,0.004,0c0.004,0,0.008,0,0.01,0
				c0.545,0,1.1-0.012,1.667-0.033l0.183-0.008v-3.14l0.002-0.013c0.006-0.02,0.012-0.053,0.024-0.102
				c0.153-0.604,0.985-3.178,4.575-4.453c4.254-1.514,6.566-4.782,6.986-5.478c0.059-0.104,0.215-0.249,0.473-0.428
				c0.754-0.527,2.213-1.179,3.498-1.183c0.002,0,0.016,0,0.02,0.002c0.579,0,1.116,0.127,1.553,0.438l7.969,5.71l-1.142,1.998
				l0.278,0.027c0.031,0.004,0.408,0.041,1.109,0.183c2.082,0.42,6.734,1.729,10.545,5.44l0.004,0.005l0.021,0.017l0.002,0.001
				c0.004,0.005,0.014,0.011,0.021,0.019c0.021,0.016,0.051,0.037,0.09,0.067c0.079,0.062,0.195,0.15,0.348,0.271
				c0.305,0.238,0.75,0.594,1.32,1.062c3.404,2.787,11.191,9.548,19.229,19.159l0.067,0.079l-1.119,1.397l0.185,0.112
				c0.002,0.001,0.021,0.013,0.067,0.045c0.707,0.482,6.818,5.024,11.876,21.335l0.092,0.297l0.226-0.219
				c0.036-0.033,9.108-8.88,9.108-38.768c0-0.002,0-0.01,0-0.014c0-4.127,0.104-7.807,0.104-11.117c0-1.654-0.025-3.219-0.104-4.698
				c-0.883-16.941-3.996-22.939-9.894-32.258L187.116,104.192z"/>
			<path d="M94.467,24.331L59.195,46.326l6.081,3.648v35.81c0,0-11.351,15.405-17.973,21.216l1.893,1.081
				c0,0-15.676,13.784-19.459,19.595l0.036,33.903l6.991-29.715v64.187c0,0,8.243-25.674,25-43.24c0,0-1.082,7.162-4.46,11.08
				c0,0,8.784-1.485,14.459-9.324c5.675-7.838,4.459-13.646,11.621-18.782c7.162-5.136,7.973-5,7.973-5s5.271,18.919,28.377,17.973
				v-2.973c0,0,0.541-3.243,4.729-4.729c4.189-1.486,6.486-4.729,6.893-5.404c0.406-0.676,3.918-2.567,5.812-1.217l8.106,5.811
				l-1.08,1.893c0,0,6.621,0.676,11.757,5.676c0,0,10.403,7.838,21.215,20.81l-1.081,1.353c0,0,6.621,4.055,12.025,21.484
				c0,0,9.056-8.783,9.056-38.646c0-6.192,0.231-11.375,0-15.806c-0.888-16.926-3.974-22.848-9.865-32.166
				c0,0-0.135,12.433-11.485,17.838V99.297l-5.811,4.054V70.784l-6.352,16.351V29.84l-60.404,27.972V46.326l-8.783,5.405
				L94.467,24.331z"/>
			<g>
				<path style="fill:#FFFFFF;" d="M67.454,99.388c0,0-0.518,2.487-0.207,4.144c0,0,4.869-10.256,16.265-16.575
					c0,0,0.311-0.829-1.036-0.726c-1.309,0.101-6.241-1.071-6.515-6.941c-0.008-0.169-0.012-0.341-0.012-0.518
					c0-6.319,0-14.193,0-14.193s0-1.14,1.657-1.14c1.658,0,4.662,0.208,6.009,3.211c0,0,0.622,1.14,1.14,1.14V50.905
					c0,0-0.519-0.207-1.036,0.829c-0.518,1.036-1.45,3.522-3.937,5.491c-2.486,1.968-3.729,2.175-3.729,0.104l0.018-11.677
					c0,0,0.046-1.141,0.594-1.506l7.055-4.221c0,0,3.49-2.215,5.077,0.414c1.396,2.313,2.382,5.077,2.59,5.491
					c0.207,0.415,0.207,0.829,0.518,0.622V29.668L64.76,45.829c0,0-1.036,0.518-0.311,0.829c0.725,0.311,3.315,1.865,3.315,1.865
					v49.956C67.765,98.479,67.708,98.859,67.454,99.388z"/>
				<path style="fill:#FFFFFF;" d="M122.878,50.406c-0.968,0.604-11.646,6.736-11.646,6.736s3.425-0.114,3.425,1.142v21.008
					c0,0-4.566,2.169-8.563,2.055c-3.997-0.115-5.595-2.055-5.595-4.682V52.461c0,0,0.114-1.827-0.8-0.913
					c-0.913,0.913-8.677,5.937-11.075,6.622c0,0,2.626,1.142,2.626,3.197v22.607c0,0-0.229,1.027,1.142,1.826l10.162,6.737
					c0,0,0.913,0.799,1.37,0.114c0.457-0.686,6.051-12.445,23.178-9.591c0,0-3.197-1.598-3.197-2.969V50.749
					C123.904,50.749,123.792,49.835,122.878,50.406z"/>
				<path style="fill:#FFFFFF;" d="M128.473,48.465l12.445-6.051v43.158c0,0-0.113,1.484,0.913,1.142
					c1.026-0.342,4.683-1.484,6.965-7.649v13.929l-17.583-8.221V50.634C131.213,50.634,131.896,48.237,128.473,48.465z"/>
				<path style="fill:#FFFFFF;" d="M149.023,39.788l12.444-6.051v58.8c0,0-0.112,1.484,0.914,1.142
					c1.026-0.343,4.681-7.079,6.052-13.244v24.205l-16.67-10.275V41.958C151.764,41.958,152.449,39.56,149.023,39.788z"/>
				<path style="fill:#FFFFFF;" d="M31.192,149.839v-20.1c0,0,9.471-11.261,19.679-19.785v15.996c0,0-1.684-4.314-3.052-5.367
					c-1.368-1.052-2.842-1.263-2.842,0.421v33.781c0,0-0.736,9.156,3.263,8.104c0,0,1.368-0.736,0.526,0.633
					c-0.842,1.367-6.42,10.943-10.208,23.15v-59.563c0,0-0.21-1.686-0.947-1.579C36.875,125.635,33.612,136.475,31.192,149.839z"/>
				<path style="fill:#FFFFFF;" d="M53.292,107.955v49.672c0,0-0.106,2.525,0.315,1.895s4.946-10.313,8.735-13.364
					c0,0,0.315-0.737-0.211-1.158c-0.526-0.421-1.158-1.263-1.158-3.894v-19.47c0,0,2.421-2.842,4.105-2.632
					c1.684,0.211,1.999,2.211,1.999,3.368v24.101c0,0-0.947,9.155-4.841,13.892c0,0,5.893-3.894,7.998-7.894
					c2.104-4,3.999-8.209,3.999-13.05v-25.889c0,0-5.051-3.578-6.104-4.315c0,0-1.157-0.947-1.474,0.421
					c-0.315,1.368-1.999,5.157-2.946,6.418c-0.947,1.264-2.631,2.526-2.631,0.844V94.168c0,0-0.947,0.947-1.368,1.894
					s-5.578,7.999-6.946,8.735c-1.368,0.737-0.842,1.263-0.21,1.474C53.186,106.481,53.292,107.218,53.292,107.955z"/>
				<path style="fill:#FFFFFF;" d="M77.18,108.06v29.782c0,0,0.105,1.158,0.842,0.105c0.736-1.053,4.735-6.525,9.05-7.473
					c0,0,0.315-0.947-0.21-1.263c-0.527-0.315-0.842-0.632-0.842-1.578v-20.627c0,0,0.526-2.42,1.789-2.42
					c1.263,0,3.578,2.525,3.999,5.578c0.421,3.052,1.895-1.368,1.895-1.368s3.684-4.841,3.368-6.42
					c-0.316-1.579-3.473-5.578-4.841-4.104s-4.736,5.052-5.472,4.631c-0.737-0.421-0.842-0.737-0.842-1.789v-2.736
					c0,0,0-1.052-1.368,0.21c-1.369,1.263-7.156,5.893-8.208,6.525c-1.053,0.631-2.105,1.158-1.263,1.473
					C75.919,106.902,77.18,106.797,77.18,108.06z"/>
				<path style="fill:#FFFFFF;" d="M122.854,126.792c0,6.735-3.957,11.997-8.84,11.997l0,0c-4.881,0-8.839-5.053-8.839-11.997
					v-14.628c0-6.735,3.958-12.839,8.839-12.839l0,0c4.883,0,8.84,4.525,8.84,12.628V126.792z M110.961,93.432
					c0,0-0.42,3.367-3.578,4.946c-3.158,1.579-10.208,4.209-13.26,15.996c-3.052,11.787,0.842,29.678,22.73,31.045
					c0,0,0-4.735,5.369-6.524c5.366-1.789,12.627-9.682,12.838-22.836c0.211-13.156-10.313-22.836-23.362-23.469
					C111.698,92.59,111.382,92.8,110.961,93.432z"/>
				<path style="fill:#FFFFFF;" d="M145.917,103.392v-8.369l-9.239,5.869c0,0-1.304,0.652-0.324,1.196
					c0.978,0.543,1.304,0.979,1.304,2.392v22.172c0,0-0.978,0.545-2.064,1.849c-1.088,1.306-2.608,2.937-2.174,3.151
					c0.435,0.219,2.499-0.979,3.912-0.325l9.131,6.414c0,0,1.413,0.978,1.413-0.546c0-1.521,2.5-6.303,3.262-7.28
					c0,0-0.545-0.326-1.74,0.435c0,0-2.826-1.521-3.151-3.369v-18.262c0,0,0-2.5,2.935-0.87c0,0,2.393,0.544,2.393,2.935v25.325
					c0,0-1.957,3.043-2.826,3.912c-0.869,0.871-0.107,1.088,0.544,0.653c0.651-0.437,2.5-0.327,3.694,0.651
					c1.195,0.979,8.043,6.848,8.043,6.848s0.762,0.217,0.652-0.761c-0.109-0.979,2.717-7.282,3.369-8.479
					c0,0-1.304,0.109-2.391,0.871c0,0-2.5-2.176-2.827-2.828c-0.325-0.65-0.543-1.412-0.543-2.606v-19.456
					c0,0,0.543-1.849,1.739-1.196c1.195,0.652,3.478,1.849,3.478,1.849v-2.936l-4.999-2.935v-9.021c0,0-0.218-0.87-1.195,0
					c-0.979,0.87-5.761,4.782-5.761,4.782s-0.87,0.652-1.522,0.326L145.917,103.392z"/>
				<path style="fill:#FFFFFF;" d="M165.699,112.631v38.913l12.935,15.651c0,0,0.869,0.543,0.869-1.305v-23.478
					c0,0-0.326,0.216-0.543,1.086c-0.218,0.869-1.739,10.108-2.718,10.869s-2.174,1.413-2.174,0.435v-50.216
					c0,0,0-1.087-0.979-0.218c-0.979,0.87-9.238,6.087-9.238,6.087s-0.979,0.87,0.543,0.87
					C165.916,111.327,165.699,112.631,165.699,112.631z"/>
				<path style="fill:#FFFFFF;" d="M178.96,123.826c0,0,7.717-4.999,8.804-12.173c0,0,0.219-2.283,1.088-0.87
					c0.869,1.413,7.5,12.174,7.174,28.586l-8.479,8.152v21.412c0,0,0,2.717,1.305,2.717s5.107-6.848,7.064-19.674
					c0,0-0.544,15.108-2.718,24.021c-2.175,8.912-4.675,11.956-5.108,9.348c-0.436-2.609-5.543-12.5-6.848-13.804
					c-1.305-1.306-1.195-1.414-0.652-2.174c0.544-0.763,0.869-1.739,0.869-2.937v-38.26c0,0-0.543-2.717-2.064-3.26
					S178.96,123.826,178.96,123.826z M193.742,135.564c0.217-3.369-3.043-10.543-4.674-11.955c-1.631-1.414-1.521,1.195-1.521,1.195
					v18.151C187.547,146,193.523,138.936,193.742,135.564z"/>
			</g>
			<path style="fill:#C9CBCC;" d="M132.607,83.885l7.352,3.438c-0.116-0.168-0.191-0.333-0.248-0.48
				c-0.066-0.181-0.107-0.344-0.136-0.493l-4.95-2.315V50.932c0.027-0.149,0.055-0.359,0.057-0.618
				c0.002-0.48-0.107-1.217-0.636-1.877l5.478-2.663v-1.13l-7.494,3.644c0.527,0.66,0.637,1.396,0.635,1.877
				c-0.001,0.259-0.027,0.469-0.057,0.618V83.885L132.607,83.885z M116.029,98.079c-0.105,0-0.211,0.008-0.315,0.012
				c2.216,0.429,4.218,1.711,5.669,3.675c1.827,2.454,2.864,5.912,2.865,10.187v14.838c-0.002,3.641-1.063,6.92-2.863,9.354
				c-1.713,2.324-4.188,3.896-6.996,4.024c0.53,0.106,1.074,0.162,1.631,0.162h0.012c0.555,0.001,1.097-0.056,1.623-0.163
				c0.949-1.035,2.287-1.995,4.127-2.6c0.271-0.09,0.554-0.199,0.843-0.33c0.272-0.299,0.534-0.613,0.778-0.944
				c1.802-2.435,2.861-5.714,2.863-9.354v-14.838c-0.002-4.274-1.039-7.732-2.865-10.187
				C121.585,99.459,118.91,98.067,116.029,98.079z M92.646,61.367v22.76l-0.008,0.038c0.003,0.01,0.009,0.025,0.019,0.044
				c0.035,0.06,0.115,0.194,0.438,0.387l0.037,0.021l9.999,6.628c0.141-0.235,0.318-0.519,0.53-0.836l-8.512-5.643l-0.036-0.021
				c-0.324-0.193-0.404-0.328-0.439-0.387c-0.011-0.019-0.016-0.033-0.019-0.044l0.008-0.038V61.517
				c0.001-0.816-0.268-1.54-0.62-2.104c-0.19-0.302-0.402-0.567-0.62-0.8c0.161-0.083,0.326-0.17,0.494-0.26
				c1.639-0.884,3.556-2.052,5.187-3.106V53.75c-0.548,0.382-1.204,0.82-1.919,1.284c-1.65,1.07-3.614,2.268-5.284,3.168
				c-0.169,0.09-0.333,0.177-0.494,0.261c0.218,0.233,0.429,0.498,0.619,0.8C92.379,59.828,92.647,60.551,92.646,61.367z
				 M108.419,82.896c2.201-0.004,4.373-0.56,6.031-1.099c1.653-0.542,2.784-1.078,2.821-1.096l0.797-0.378v-21.89
				c0.004-0.403-0.131-0.818-0.338-1.123c-0.19-0.279-0.404-0.479-0.623-0.629c0.718-0.412,1.502-0.864,2.299-1.323
				c1.064-0.613,2.146-1.238,3.104-1.793v-1.321c-0.333,0.195-0.725,0.422-1.16,0.676c-1.14,0.661-2.565,1.485-3.961,2.289
				c-0.796,0.458-1.58,0.911-2.298,1.323c0.218,0.151,0.433,0.349,0.623,0.629c0.206,0.305,0.343,0.72,0.337,1.123v21.89
				l-0.796,0.378c-0.037,0.018-1.168,0.555-2.823,1.096c-1.638,0.532-3.777,1.079-5.95,1.097c0.5,0.082,1.029,0.131,1.588,0.147
				C108.187,82.895,108.302,82.896,108.419,82.896z M83.359,55.356c-0.646,0.968-1.52,2.018-2.712,2.961
				c-0.683,0.54-1.294,0.971-1.876,1.294c-0.317,0.17-0.624,0.318-0.952,0.423c0.021,0.012,0.039,0.027,0.06,0.039
				c0.342,0.191,0.721,0.264,1.052,0.263c0.722-0.013,1.271-0.261,1.858-0.575c0.583-0.324,1.192-0.754,1.876-1.295
				c0.246-0.194,0.475-0.395,0.695-0.597L83.359,55.356L83.359,55.356z M81.222,62.615c0.727,0.268,1.474,0.696,2.138,1.311v-1.114
				c-0.041-0.016-0.081-0.033-0.121-0.047c-1.388-0.522-2.719-0.566-3.609-0.57C80.135,62.278,80.674,62.408,81.222,62.615z
				 M69.094,46.648c-0.119-0.069-0.241-0.139-0.364-0.209l21.777-12.967v-1.351L66.713,46.289c0.123,0.07,0.245,0.141,0.364,0.21
				c0.749,0.434,1.401,0.825,1.405,0.827l0.677,0.406v50.131c0.585-0.794,1.257-1.648,2.017-2.535V47.881l-0.677-0.406
				C70.495,47.473,69.843,47.082,69.094,46.648z M177.1,155.471c-0.356,0.275-0.738,0.543-1.144,0.768
				c-0.179,0.091-0.353,0.182-0.543,0.258c0.354,0.26,0.78,0.355,1.071,0.346c0.679-0.021,1.07-0.24,1.488-0.453
				c0.045-0.025,0.09-0.054,0.135-0.08v-2.553c-0.142,0.402-0.278,0.748-0.477,1.087C177.512,155.034,177.391,155.234,177.1,155.471
				z M190.389,172.361c-0.203,0.173-0.42,0.356-0.709,0.49c0.016,0.01,0.028,0.021,0.043,0.03c0.325,0.195,0.739,0.315,1.146,0.313
				c0.788-0.033,1.178-0.379,1.538-0.685c0.039-0.036,0.078-0.077,0.117-0.116c0.275-1.537,0.519-3.168,0.729-4.815
				c-0.381,0.897-0.759,1.68-1.121,2.347C191.531,171.014,190.999,171.795,190.389,172.361z M192.663,123.416
				c-0.21-0.264-0.429-0.502-0.665-0.712c-0.475-0.397-0.979-0.741-1.736-0.761c-0.295-0.01-0.586,0.072-0.839,0.199
				c0.198,0.121,0.38,0.263,0.56,0.412c0.627,0.56,1.125,1.303,1.688,2.254c0.551,0.944,1.107,2.072,1.615,3.271
				c0.273,0.653,0.533,1.321,0.77,1.991C193.701,127.645,193.213,125.42,192.663,123.416z M164.833,95.153
				c0.335-0.117,0.517-0.259,0.683-0.392c0.299-0.253,0.526-0.527,0.778-0.86c0.235-0.315,0.485-0.688,0.745-1.109v-4.019
				c-0.975,2.142-1.952,3.894-2.762,4.979c-0.254,0.333-0.48,0.607-0.779,0.86c-0.131,0.105-0.271,0.215-0.489,0.314
				c0.308,0.217,0.724,0.355,1.106,0.347C164.375,95.273,164.615,95.224,164.833,95.153z M145.732,86.146
				c-1.508,1.256-2.937,1.717-3.465,1.891c-0.166,0.055-0.346,0.097-0.535,0.113l5.668,2.65v-0.794l-3.65-1.707
				c0.189-0.017,0.369-0.058,0.535-0.113c0.486-0.16,1.742-0.567,3.115-1.615V84.45C146.848,85.134,146.282,85.692,145.732,86.146z
				 M153.159,42.105v51.479l13.88,8.555v-1.094l-11.863-7.312V42.255c0.027-0.149,0.055-0.359,0.057-0.618
				c0.002-0.481-0.106-1.217-0.635-1.878l5.477-2.663v-1.13l-7.494,3.644c0.529,0.66,0.638,1.397,0.636,1.878
				C153.214,41.747,153.188,41.957,153.159,42.105z M185.525,172.497c-0.236-0.39-0.459-0.731-0.664-1.024
				c-0.209-0.297-0.387-0.533-0.615-0.768c-0.186-0.184-0.333-0.337-0.445-0.46c0.688-0.996,1.074-2.255,1.07-3.661v-38.398
				l-0.027-0.135c-0.013-0.06-0.16-0.813-0.551-1.712c-0.197-0.45-0.455-0.94-0.828-1.409c-0.167-0.207-0.361-0.416-0.589-0.605
				c0.796-0.612,1.923-1.555,3.101-2.777c1.42-1.48,2.936-3.384,3.986-5.652c-0.426-0.942-0.826-1.748-1.175-2.405
				c-0.925,3.282-2.96,5.958-4.829,7.909c-1.177,1.223-2.305,2.164-3.102,2.777c0.229,0.188,0.422,0.397,0.591,0.605
				c0.372,0.468,0.631,0.959,0.827,1.408c0.391,0.898,0.537,1.652,0.552,1.711l0.026,0.136v38.397
				c0.004,1.407-0.383,2.666-1.07,3.662c0.111,0.123,0.262,0.277,0.445,0.461c0.229,0.231,0.406,0.471,0.617,0.768
				c0.203,0.293,0.426,0.636,0.663,1.023c0.478,0.776,1.021,1.736,1.587,2.787c1.131,2.104,2.342,4.563,3.207,6.592
				c0.314,0.748,0.586,1.42,0.791,2.023c0.104-0.193,0.211-0.409,0.32-0.645c0.225-0.479,0.461-1.045,0.704-1.69
				c-0.847-1.935-1.959-4.185-3.007-6.131C186.547,174.232,186.004,173.273,185.525,172.497z M101.481,136.4
				c-3.44-4.148-4.859-9.494-4.858-14.623c0-2.414,0.315-4.772,0.868-6.904c1.473-5.667,3.839-8.991,6.183-11.148
				c1.466-1.341,2.923-2.223,4.214-2.896c0.588-0.624,1.233-1.169,1.933-1.619c0.732-0.471,1.53-0.827,2.371-1.043
				c0.658-0.696,1.124-1.44,1.439-2.1c0.358-0.748,0.545-1.398,0.641-1.819c-0.659-0.099-1.325-0.177-2-0.226
				c-0.089,0.417-0.277,1.103-0.657,1.896c-0.587,1.229-1.684,2.749-3.606,3.708c-1.656,0.824-3.994,1.792-6.35,3.95
				c-2.344,2.158-4.71,5.481-6.184,11.148c-0.553,2.131-0.868,4.489-0.868,6.903c0,5.13,1.418,10.476,4.858,14.624
				c3.271,3.936,8.367,6.912,16.202,7.672c0.008-0.031,0.02-0.066,0.025-0.1C108.973,142.785,104.466,139.992,101.481,136.4z
				 M89.989,39.617c0.181,0.299,0.354,0.604,0.519,0.908v-2.229c-0.039-0.021-0.076-0.043-0.115-0.063
				c-0.627-0.318-1.28-0.428-1.867-0.427c-0.246,0.001-0.482,0.02-0.709,0.05c0.187,0.06,0.375,0.134,0.56,0.228
				C89.003,38.398,89.576,38.927,89.989,39.617z M94.29,100.412c-0.446-0.49-0.92-0.885-1.199-1.008
				c-0.002-0.001-0.004-0.001-0.006-0.003c-0.894,0.959-2.403,2.557-3.706,3.654c-0.16,0.133-0.314,0.259-0.469,0.377
				c0.287,0.123,0.549,0.284,0.805,0.459c0.541,0.385,1.043,0.885,1.51,1.482c0.549,0.709,1.049,1.557,1.418,2.51
				c0.049-0.065,0.133-0.178,0.243-0.33c0.187-0.256,0.446-0.62,0.734-1.042c0.05-0.072,0.1-0.148,0.151-0.224
				c-0.17-0.268-0.346-0.526-0.53-0.764c-0.467-0.597-0.97-1.098-1.51-1.482c-0.255-0.175-0.518-0.336-0.805-0.46
				c0.154-0.118,0.309-0.244,0.469-0.376C92.357,102.394,93.433,101.309,94.29,100.412z M139.934,130.209
				c-0.527-0.242-1.061-0.32-1.539-0.326c0.097-0.113,0.191-0.228,0.287-0.34c0.471-0.566,0.916-0.964,1.229-1.21
				c0.156-0.124,0.279-0.209,0.357-0.26c0.039-0.026,0.067-0.043,0.082-0.052l0.002-0.002l0.717-0.398v-22.993
				c-0.004-0.798-0.08-1.527-0.473-2.218c-0.14-0.24-0.303-0.444-0.479-0.621l4.404-2.797v-1.431l-6.422,4.079
				c0.176,0.177,0.338,0.381,0.479,0.621c0.395,0.691,0.47,1.42,0.473,2.219v22.993l-0.717,0.398l-0.002,0.002
				c-0.014,0.008-0.042,0.025-0.081,0.051c-0.078,0.053-0.202,0.137-0.358,0.26c-0.313,0.248-0.759,0.644-1.229,1.211
				c-0.095,0.111-0.19,0.226-0.287,0.34c0.479,0.005,1.013,0.084,1.54,0.326l0.113,0.053l8.599,6.039
				c0.044-0.172,0.097-0.348,0.151-0.529c0.052-0.166,0.111-0.337,0.174-0.51l-6.906-4.852L139.934,130.209z M153.248,139.254
				c0.783-1.107,1.504-2.23,1.512-2.242l0.223-0.345v-25.735c0.002-0.83-0.219-1.579-0.563-2.166
				c-0.359-0.619-0.824-1.055-1.264-1.365c0.101,0.012,0.199,0.018,0.295,0.017c0.627-0.007,1.066-0.201,1.389-0.355
				c0.318-0.16,0.516-0.307,0.561-0.34l0.021-0.016l0.026-0.021c0.001,0,1.198-0.979,2.519-2.069
				c0.047-0.039,0.096-0.079,0.145-0.118v-1.823c-0.635,0.53-1.414,1.175-2.161,1.792c-1.32,1.089-2.519,2.068-2.519,2.069
				l-0.025,0.021l-0.021,0.016c-0.046,0.033-0.242,0.18-0.561,0.34c-0.321,0.154-0.762,0.347-1.391,0.355
				c-0.095,0-0.192-0.005-0.295-0.018c0.44,0.31,0.903,0.747,1.266,1.365c0.343,0.587,0.563,1.336,0.561,2.166v25.735l-0.222,0.344
				c-0.007,0.013-0.728,1.135-1.513,2.242c0.881,0.136,1.81,0.479,2.636,1.143c0.885,0.725,4.638,3.932,6.698,5.695
				c0.013-0.041,0.024-0.08,0.037-0.123c0.108-0.334,0.24-0.702,0.385-1.092c-2.008-1.715-4.418-3.771-5.104-4.332
				C155.057,139.732,154.128,139.389,153.248,139.254z M173.128,156.102c-0.088-0.101-0.155-0.205-0.214-0.309l-3.805-4.604v-38.333
				c0.007-0.064,0.012-0.145,0.012-0.241c-0.006-0.339-0.044-0.923-0.492-1.539c-0.094-0.126-0.206-0.248-0.335-0.359
				c0.739-0.471,1.649-1.054,2.584-1.657c0.603-0.389,1.213-0.786,1.795-1.168v-1.495c-0.205,0.141-0.427,0.291-0.662,0.449
				c-0.924,0.619-2.053,1.355-3.149,2.064c-0.935,0.603-1.846,1.187-2.584,1.657c0.13,0.111,0.242,0.233,0.336,0.359
				c0.447,0.615,0.486,1.199,0.492,1.539c-0.002,0.096-0.006,0.176-0.012,0.241v38.334l11.014,13.328v-2.292l-4.779-5.783
				C173.257,156.236,173.189,156.174,173.128,156.102z M84.52,100.462c-0.565,0.478-1.263,1.053-2.016,1.663
				c-1.284,1.041-2.701,2.162-3.786,2.99c-0.468,0.354-0.854,0.645-1.174,0.87c0.184,0.13,0.366,0.296,0.535,0.511
				c0.341,0.438,0.503,1.023,0.496,1.564v26.906c0.475-0.559,1.03-1.17,1.648-1.784c0.12-0.117,0.245-0.234,0.369-0.354v-24.619
				c0.007-0.541-0.155-1.126-0.496-1.564c-0.17-0.215-0.352-0.381-0.535-0.511c0.32-0.226,0.707-0.516,1.174-0.87
				c1.085-0.828,2.503-1.949,3.786-2.99c0.027-0.022,0.052-0.042,0.079-0.064c-0.074-0.375-0.074-0.726-0.08-1.096V100.462z
				 M47.22,118.635c0.514,0.201,0.985,0.498,1.45,0.844c0.313,0.246,0.572,0.521,0.807,0.819v-1.413
				c-0.461-0.213-0.953-0.351-1.51-0.365C47.735,118.516,47.476,118.553,47.22,118.635z M38.06,124.17
				c0.216,0.047,0.417,0.131,0.578,0.23c0.259,0.16,0.435,0.346,0.569,0.518c0.264,0.35,0.388,0.665,0.488,0.948
				c0.188,0.562,0.24,1.016,0.248,1.067l0.011,0.086v51.521c0.672-1.702,1.353-3.307,2.017-4.796V127.17l-0.011-0.086
				c-0.008-0.052-0.06-0.507-0.248-1.068c-0.1-0.283-0.223-0.6-0.488-0.947c-0.134-0.172-0.31-0.357-0.568-0.517
				c-0.162-0.102-0.363-0.186-0.579-0.231c1.069-1.143,2.255-2.381,3.524-3.668c0.047-0.524,0.207-1.051,0.587-1.502
				c0.447-0.537,1.139-0.772,1.696-0.776c1.155-1.133,2.358-2.279,3.593-3.415v-1.968C45.193,116.768,41.149,120.872,38.06,124.17z
				 M32.586,130.252v6.326c0.851-3.455,1.667-6.338,2.333-8.375c0.118-0.354,0.228-0.68,0.333-0.979
				c-1.203,1.334-2.093,2.358-2.577,2.922C32.645,130.186,32.615,130.22,32.586,130.252z M69.041,118.561
				c-0.457-0.41-1.087-0.709-1.773-0.791c-0.122-0.017-0.247-0.021-0.356-0.021c-0.265,0.003-0.512,0.035-0.745,0.089
				c0.241-0.251,0.464-0.519,0.676-0.792c0.61-0.825,1.253-2.098,1.865-3.431c0.273-0.608,0.527-1.204,0.744-1.756
				c-0.637-0.45-1.226-0.866-1.649-1.164c-0.261,0.8-0.661,1.768-1.112,2.771c-0.61,1.333-1.255,2.605-1.864,3.432
				c-0.211,0.273-0.435,0.541-0.676,0.791c0.233-0.054,0.481-0.086,0.745-0.088c0.11,0,0.235,0.006,0.357,0.021
				c0.686,0.082,1.316,0.382,1.773,0.791c0.461,0.408,0.761,0.896,0.965,1.37c0.403,0.952,0.478,1.886,0.482,2.591v24.169
				l-0.007,0.074c-0.005,0.043-0.248,2.387-0.995,5.366c-0.24,0.939-0.525,1.944-0.873,2.963c0.986-1.016,1.875-2.107,2.401-3.125
				c0.342-0.646,0.673-1.295,0.99-1.946c0.358-1.825,0.488-3.077,0.492-3.108l0.007-0.072v-24.17
				c-0.005-0.705-0.079-1.64-0.482-2.592C69.802,119.457,69.502,118.969,69.041,118.561z M54.412,105.25
				c-0.142,0.135-0.272,0.258-0.408,0.372c0.234,0.271,0.379,0.564,0.473,0.835c0.19,0.567,0.205,1.062,0.209,1.498v46.548
				c0.599-1.089,1.283-2.28,2.017-3.459v-42.939c-0.004-0.436-0.018-0.931-0.209-1.497c-0.094-0.271-0.239-0.563-0.473-0.835
				c0.135-0.114,0.265-0.237,0.407-0.372c0.916-0.895,2.112-2.359,3.255-3.85v-2.884c-0.413,0.586-0.899,1.254-1.415,1.943
				C56.957,102.353,55.489,104.196,54.412,105.25z"/>
		</g>
		<g>
			<path d="M136.98,203.878c-0.748,0.91-1.506,1.75-1.506,1.75c0.867,0.2,1.607,0.089,2.186-0.112l-1.049-1.156
				C136.744,204.195,136.863,204.036,136.98,203.878z"/>
			<path d="M150.198,177.036c0.016-0.043,0.44-0.513,1.108-1.136c0.651-0.651,1.145-1.254,1.498-1.852
				c0.528-0.902,0.821-1.842,0.821-2.785c-0.001-0.488-0.116-0.979-0.312-1.488c-0.131-0.323-0.271-0.604-0.492-0.857
				c-0.211-0.249-0.588-0.497-1.031-0.494c-0.307,0.012-0.439,0.08-0.623,0.148c-0.502,0.214-1.18,0.621-2.184,1.272l-0.928,0.644
				l0.907,0.701l0.085,0.082l0.225,0.22l0.315,0.026c0.229,0.027,0.329,0.08,0.476,0.234c0.148,0.177,0.193,0.299,0.201,0.518
				c0.021,0.073-0.16,0.693-0.652,1.517c-0.131,0.228-0.254,0.419-0.363,0.571c-0.029-0.049-0.061-0.1-0.092-0.152
				c-0.291-0.484-0.678-1.165-1.155-2.034c-0.509-0.927-0.896-1.659-1.157-2.188c-0.131-0.263-0.229-0.477-0.291-0.627
				c-0.033-0.076-0.056-0.138-0.068-0.176c-0.006-0.016-0.01-0.027-0.012-0.033c0-0.002,0-0.002,0-0.002l-0.188-1.096l-1.032,0.448
				c-0.438,0.19-0.769,0.332-0.987,0.425c-0.067,0.029-0.125,0.055-0.172,0.073h-0.011l-0.162,0.067
				c-0.509,0.213-0.924,0.39-1.254,0.537l0.36-1.467l-1.567,0.592c-0.276,0.104-0.498,0.178-0.649,0.223
				c-0.076,0.022-0.135,0.037-0.168,0.044c-0.008,0.001-0.015,0.003-0.019,0.004l-13.022,0.011c0.266,0.102,2.879,1.901,2.979,1.975
				c-0.112,0.299-0.323,0.844-0.615,1.576c-0.081,0.202-0.153,0.401-0.224,0.6l-0.098-0.277c-0.619-1.756-1.375-3.013-2.566-3.628
				c-0.469-0.22-0.987-0.313-1.678-0.394c-0.688-0.072-1.53-0.106-2.549-0.106c-2.207-0.002-4.346,0.737-6.348,2.144
				c0.176-0.428,0.299-0.826,0.362-1.205l0.282-1.817l-1.58,0.907c-0.078,0.035-0.565,0.129-1.26,0.169
				c-0.732,0.049-1.733,0.075-2.989,0.075c-0.906,0-2.038-0.014-3.397-0.041c-1.367-0.025-2.119-0.041-2.313-0.041h-0.883v0.197
				l-0.067-0.115h-3.935l-0.438,1.485l0.597,0.351c0.143,0.082,0.261,0.154,0.351,0.211c0.041,0.146,0.071,0.271,0.093,0.369
				c0.018,0.08,0.031,0.143,0.037,0.183c0.003,0.021,0.004,0.034,0.005,0.039v0.815c-0.625-0.639-1.287-1.191-1.987-1.656
				c-0.83-0.543-2.144-1.211-4.011-2.069l-0.225-0.103l-0.244,0.026c-0.407,0.065-0.572,0.22-0.772,0.364
				c-0.547,0.447-1.182,1.227-2.104,2.462l-1.133,1.528l1.9-0.123c0.043-0.004,0.091-0.004,0.145-0.004
				c0.139,0,0.252,0.012,0.339,0.027l-0.081,7.104v2.702c-0.009,0.996-0.076,1.74-0.138,2.082c-0.143,0.136-1.101,1.058-1.578,1.506
				l-0.664-0.752l-0.253-0.07c-2.624-0.73-4.643-2.215-6.186-4.555c-1.455-2.219-2.176-4.664-2.179-7.428
				c-0.001-0.428,0.051-0.729,0.102-0.862c0.004-0.011,0.007-0.021,0.011-0.029c0.092-0.009,0.238-0.021,0.418-0.026
				c0.317-0.014,0.754-0.021,1.302-0.021c0.153,0,0.338-0.011,0.586-0.028c0.22-0.018,0.387-0.025,0.478-0.025
				c0.469-0.002,0.789,0.065,0.915,0.125c0.028,0.013,0.045,0.021,0.055,0.027l0.4,1.619l1.116-1.288
				c0.708-0.817,1.254-1.524,1.646-2.145l0.855-1.354h-6.778c0.055-0.105,0.114-0.221,0.179-0.344
				c0.372-0.707,0.831-1.279,1.39-1.742c0.665-0.559,1.231-0.768,1.789-0.771c0.669,0.005,1.21,0.183,1.731,0.559
				c0.488,0.369,0.701,0.736,0.778,1.303l0.092,0.777h1.444l0.259-0.418c1.089-1.775,1.74-3.145,1.915-4.311l0.271-1.92L91.53,163.7
				c-0.158,0.104-0.29,0.169-0.378,0.202c-0.089,0.035-0.122,0.031-0.122,0.035H77.669v2.203l0.953-0.086l0,0
				c0.003,0,0.011-0.001,0.023-0.001c0.074,0.001,0.161,0.013,0.266,0.044c-0.197,0.385-0.48,0.961-0.862,1.752
				c-0.78,1.635-1.213,2.973-1.221,4.149c0.001,2.294,0.33,4.358,1.008,6.18l0.016,0.043l0.02,0.041
				c0.234,0.47,0.434,0.829,0.645,1.121c0.22,0.479,0.381,0.845,0.478,1.078l0.028,0.067l0.041,0.065
				c1.209,1.929,2.836,3.525,4.845,4.769c2.123,1.32,4.332,2.023,6.578,2.063l0.438,0.008c-0.604,0.313-1.159,0.657-1.663,1.041
				l-2.077,1.584h2.613c0.134,0.01,0.218,0.023,0.321,0.103l0.142,1.517l-0.154,9.484c-0.01,0.554-0.081,0.958-0.152,1.15
				c-0.163,0.061-0.326,0.121-0.489,0.183l-0.573,0.215v1.731h3.843c1.816-0.002,3.744-0.594,5.791-1.707
				c2.045-1.113,3.583-2.401,4.562-3.914l0.026-0.039l0.023-0.047c0.197-0.396,0.339-0.709,0.438-0.977
				c0.735-1.378,1.157-2.809,1.248-4.264h0.285c0.009,0,0.016,0.001,0.023,0.002v8.604c0.002,0.004-0.01,0.133-0.048,0.313
				l-0.003,0.016l-0.004,0.018c-0.02,0.129-0.038,0.232-0.05,0.328c-0.135,0.099-0.241,0.17-0.31,0.215l-2.562,1.66l6.544-0.078
				l0.363-1.683c-0.116-0.055-0.21-0.103-0.278-0.139c-0.04-0.199-0.085-0.649-0.08-1.252c0-0.147,0.001-0.308,0.006-0.478
				l0.073-4.492h0.259c0.072-0.034,0.813,0.225,1.772,0.916c1.563,1.111,2.158,2.158,2.162,3.23
				c0.011,0.643-0.318,1.563-1.061,2.686c-0.81,1.104-1.822,2.312-1.822,2.312c0.896,0.174,1.627,0.051,2.179-0.149
				c0.49-0.18,0.836-0.418,1.026-0.572c0.023-0.021,0.046-0.039,0.07-0.061c0.101-0.085,0.208-0.167,0.304-0.255h7.428l0.019-0.13
				h3.058v-0.881c-0.007-0.311-0.126-0.477-0.195-0.574c-0.223-0.26-0.34-0.295-0.5-0.395c-0.047-0.164-0.105-0.512-0.1-0.989
				c-0.001-3.315,0.032-5.752,0.096-7.269c0.994,0.472,1.828,1.127,2.537,1.991c0.853,1.066,1.232,2.101,1.235,3.198
				c-0.002,1.059-0.226,2.073-0.679,3.068c-0.643,1.215-1.479,2.57-1.479,2.57c0.771,0.034,1.394-0.121,1.88-0.339
				c0.73-0.325,1.154-0.789,1.288-0.955c0.031-0.038,0.048-0.062,0.048-0.062v-0.006c0.403-0.57,0.734-1.229,0.991-1.973
				c0.4-1.15,0.603-2.354,0.601-3.595l0.002-6.272c0.024-0.008,0.061-0.016,0.108-0.022l0.556-0.083
				c0.082,0.059,0.162,0.116,0.244,0.175c0,0.015,0,0.027,0,0.044c0,0.023,0,0.049,0,0.074v9.499c0,0.282-0.011,0.505-0.024,0.649
				c-0.007,0.07-0.015,0.123-0.021,0.148l-0.01,0.025c-0.02,0.023-0.136,0.128-0.382,0.229l-0.537,0.228v1.619h5.521v-0.883
				c0-0.394-0.228-0.664-0.375-0.781c-0.133-0.108-0.248-0.168-0.36-0.217c-0.045-0.186-0.112-0.73-0.104-1.477
				c0-0.084,0.002-0.172,0.002-0.262v-4.385c0.012-0.002,0.027-0.002,0.053-0.004c0.58-0.012,1.416,0.389,2.423,1.493
				c1.016,1.107,1.405,2.013,1.394,2.604c0.014,0.731-0.414,1.83-1.404,3.175c-0.116,0.157-0.236,0.317-0.369,0.481l1.049,1.155
				c0.624-0.218,1.054-0.54,1.238-0.696c0,0,0,0.002-0.002,0.002c0.025-0.022,0.057-0.043,0.08-0.065l-0.002-0.003
				c-0.002,0.003-0.01,0.009-0.014,0.012c0.023-0.021,0.041-0.038,0.041-0.038c0.001,0.001,0.002,0.003,0.003,0.003
				c1.53-1.367,2.376-3.107,2.361-5.076l0,0c-0.017-0.931-0.414-1.914-1.101-3.209l-0.007-0.012l-0.009-0.016
				c-0.402-0.667-1.063-1.18-2.001-1.768c-0.265-0.158-0.515-0.301-0.754-0.425c0.009-0.007,0.019-0.013,0.026-0.019l0.082-0.055
				l0.067-0.068c0.445-0.463,0.882-0.924,1.313-1.385c0.488-0.504,0.92-0.83,1.209-0.974l-0.411-1.671l-4.339,0.078v-0.014h-5.024
				l-0.053,0.103l-0.073-0.125h-3.354l-0.424,1.448l0.596,0.349c0.082,0.048,0.152,0.089,0.211,0.124
				c0.021,0.083,0.039,0.155,0.053,0.215s0.021,0.104,0.025,0.131c0,0.004,0.002,0.008,0.002,0.012v0.191
				c-0.406-0.384-0.834-0.724-1.279-1.021c-0.675-0.438-1.713-0.968-3.191-1.647l-0.226-0.103l-0.243,0.026
				c-0.391,0.064-0.533,0.205-0.704,0.328c-0.463,0.381-0.962,0.995-1.694,1.979l-0.182,0.246c0.026-0.133,0.059-0.244,0.094-0.327
				c0.092-0.199,0.166-0.267,0.277-0.329l-0.408-1.665h-4.639v0.883c0.016,0.315,0.102,0.397,0.135,0.47
				c0.141,0.203,0.153,0.181,0.198,0.229c0.099,0.083,0.203,0.165,0.375,0.293c0.112,0.526,0.173,1.106,0.177,1.74
				c-0.003,0.028,0,0.013-0.002,0.03c-0.007,0.225-0.05,3.054-0.132,8.559c-0.005,0.232-0.043,0.395-0.075,0.473
				c-0.021,0.049-0.031,0.063-0.035,0.067l-1.099,0.626c0.793-1.115,1.217-2.396,1.207-3.794v-0.104l-0.024-0.104l-0.41-1.677
				l-0.017-0.049c-0.424-1.197-1.192-2.155-2.217-2.805c0.064-0.031,0.127-0.063,0.19-0.095c0.551-0.277,0.965-0.372,1.066-0.363
				c0.002,0,0.006,0.001,0.011,0.001l0.039,0.003h1.454l-0.407-1.173c-0.498-1.404-1.104-2.439-2.12-2.968
				c-0.41-0.192-0.832-0.267-1.388-0.328c-0.553-0.06-1.224-0.087-2.033-0.087c-1.869-0.003-3.674,0.661-5.345,1.896
				c-0.071-0.535-0.182-1.108-0.344-1.742l1.354-0.065l-1.128-1.356c-0.67-0.808-1.62-1.427-2.803-1.908
				c-0.058-0.021-0.119-0.04-0.178-0.063c0.698-0.813,1.248-1.814,1.656-2.992c0.499-1.434,0.749-2.931,0.748-4.476v-7.966
				c0.004-0.153,0.024-0.133,0.021-0.139c0,0,0.073-0.066,0.318-0.104l0.33-0.049v0.059h0.839c-0.138,0.277-0.313,0.639-0.528,1.088
				c-0.604,1.271-0.948,2.318-0.955,3.276c0,1.821,0.253,3.44,0.785,4.853l0.023,0.063l0.035,0.061
				c0.193,0.344,0.346,0.606,0.466,0.803c0.175,0.375,0.307,0.658,0.398,0.854l0.023,0.047l0.028,0.047
				c0.946,1.508,2.216,2.768,3.772,3.754c1.667,1.037,3.408,1.596,5.184,1.635l1.979,0.045l-0.478-0.559l4.769-0.06l2.438-0.017
				c-0.209-0.098-2.44-1.846-2.532-1.898c-0.056-0.208-0.145-0.854-0.133-1.739c0-0.188,0.004-0.393,0.01-0.61l0.097-5.92h0.56
				c0.203-0.033,1.145,0.32,2.379,1.203c2.016,1.428,2.838,2.827,2.84,4.285c0.01,0.702-0.261,1.604-0.852,2.67
				c-0.006,0.012-0.012,0.021-0.018,0.032c-0.002,0-0.002,0-0.002,0.001c-0.058,0.104-0.117,0.208-0.182,0.313
				c-0.722,1.139-2.688,3.318-2.688,3.318c0.962,0.17,1.867-0.076,2.521-0.354c0.614-0.262,1.008-0.549,1.008-0.549
				c2.28-1.768,3.53-4.084,3.515-6.756v-0.108l-0.025-0.101l-0.378-1.554c0.48,1.507,1.332,2.949,2.523,4.302
				c2.024,2.327,4.445,3.598,7.101,3.59c0.522,0,1.067,0.049,1.638,0.149l0.161,0.028l1.435-0.279v-1.632l-0.729-0.128
				c-0.038-0.008-0.058-0.016-0.065-0.018c-0.004-0.008-0.012-0.022-0.021-0.06c-0.011-0.004-0.058-0.39-0.051-0.931
				c0-0.442,0.008-1.063,0.026-1.855c0.037-0.877,0.057-1.505,0.057-1.896c0.001-0.873-0.027-1.745-0.083-2.618
				c0.019-0.724,0.062-1.298,0.121-1.696c0.03-0.202,0.065-0.359,0.095-0.459c0.005-0.016,0.01-0.027,0.014-0.039
				c0.219-0.171,0.394-0.289,0.492-0.342l1.037-0.578l-0.854-0.827l-0.166-0.163l-0.258-0.248h-1.432
				c0.539-0.727,0.977-1.396,1.313-2.027l0.367,0.091c0.043,0.021,0.185,0.104,0.364,0.244c0.132,0.1,0.229,0.185,0.288,0.239
				c0.027,0.026,0.048,0.049,0.057,0.058l0.006,0.01l0.021,0.033c0.24,0.334,0.796,1.291,1.582,2.761
				c0.445,0.809,0.775,1.432,0.986,1.861c0.105,0.215,0.182,0.383,0.225,0.488c0.008,0.019,0.014,0.035,0.02,0.05v5.394
				c0.004,1.066-0.092,1.844-0.222,2.244c-0.018,0.057-0.034,0.104-0.053,0.145l-1.069-0.345l0.338,2.302l0.719,0.043
				c1.259,0.072,2.211,0.109,2.877,0.11l1.713-0.03l1.339-0.521l-0.447-0.87c-0.2-0.369-0.468-0.539-0.729-0.688
				c-0.053-0.027-0.074-0.045-0.084-0.056c-0.04-0.103-0.1-0.366-0.096-0.757v-7.122L150.198,177.036z M79.977,166.018
				L79.977,166.018v-0.002h0.003c0,0.002,0,0.002,0,0.002C79.98,166.016,79.977,166.02,79.977,166.018z M92.801,186.627
				c-0.269,0.096-0.524,0.199-0.778,0.305l-0.318-0.361l1.25,0.007C92.904,186.594,92.853,186.607,92.801,186.627z M100.272,193.643
				v0.213c-0.002,1.563-0.441,3.035-1.354,4.487c-0.918,1.448-2.084,2.503-3.543,3.22c-0.375,0.185-0.683,0.319-0.906,0.406
				c0.039-1.973,0.065-3.47,0.079-4.494v-6c-0.006-1.197,0.267-1.867,0.532-2.107c0.239-0.258,0.929-0.53,2.134-0.53h0.054
				c1.097,0.03,1.716,0.406,2.31,1.479c0.455,0.858,0.707,1.942,0.717,3.285L100.272,193.643z M99.588,186.109
				c-0.858-0.143-1.784-0.215-2.778-0.219c-0.013-0.293-0.126-0.457-0.198-0.556c-0.235-0.278-0.373-0.323-0.576-0.449
				c-0.025-0.014-0.047-0.026-0.065-0.038c-0.079-0.207-0.172-0.705-0.165-1.408c-0.001-4.467,0.046-7.672,0.135-9.565
				c1.433,0.619,2.625,1.521,3.615,2.733c1.108,1.382,1.618,2.75,1.62,4.199C101.176,182.652,100.655,184.398,99.588,186.109z
				 M134.584,192.848c-0.003-0.426,0.07-0.695,0.118-0.775c0.007-0.014,0.012-0.023,0.017-0.029l0.727-0.127v-0.148l0.414,0.2
				c0.021,0.011,0.043,0.021,0.063,0.031c-0.14,0.212-0.401,0.544-0.8,0.912c-0.197,0.19-0.378,0.351-0.539,0.479V192.848z
				 M119.82,193.598l1.01-0.063c0.033-0.002,0.07-0.004,0.109-0.004c0.026,0,0.053,0.001,0.076,0.002l-0.063,5.443
				c-0.001,0.709-0.001,1.418-0.001,2.133c-0.004,0.723-0.054,1.279-0.095,1.552c-0.033,0.03-0.063,0.055-0.088,0.073
				c-0.035,0.025-0.226,0.205-0.369,0.342c-0.326-0.152-0.623-0.293-0.629-0.303c-0.014-0.023-0.008,0.002-0.014-0.053
				L119.82,193.598z M108.821,194.283c0.015-0.786,0.207-1.221,0.444-1.461c0.237-0.24,0.626-0.42,1.369-0.424h0.014
				c0.36,0,0.57,0.063,0.67,0.11c0.061,0.108,0.12,0.21,0.179,0.306l-0.031,0.123c-0.216,0.146-0.607,0.404-1.129,0.735
				c-0.506,0.315-0.917,0.58-1.232,0.8c-0.109,0.076-0.204,0.145-0.289,0.207L108.821,194.283z M105.929,171.162l0.767-0.415l0,0
				L105.929,171.162z M106.703,170.749v-0.002h0.002l0,0C106.706,170.746,106.703,170.749,106.703,170.749z M111.884,171.413
				c0.457,0.004,0.819,0.123,1.195,0.396c0.336,0.266,0.454,0.479,0.5,0.866l0.051,0.562h-3.993
				C110.388,171.85,111.082,171.423,111.884,171.413z M116.794,183.988c0.002,0.033-0.017,0.207-0.065,0.447l-0.004,0.017
				l-0.002,0.011c-0.033,0.207-0.062,0.366-0.076,0.512c-0.213,0.154-0.377,0.271-0.484,0.338l-0.807,0.521l-0.178-0.207
				l-0.261-0.07c-1.968-0.551-3.475-1.658-4.645-3.438c-1.101-1.658-1.645-3.496-1.647-5.605c0.002-0.355,0.083-0.455,0.108-0.479
				c0.024-0.025,0.116-0.103,0.464-0.106c0.111,0,0.338,0.004,0.661,0.014c0.332,0.01,0.595,0.015,0.794,0.015
				c0.275-0.003,0.471,0.03,0.566,0.06l0.354,1.568l1.143-1.304c0.559-0.638,0.994-1.188,1.311-1.683l0.718-1.117h0.344l0.261-0.412
				c0.045-0.073,0.086-0.143,0.129-0.213h1.053c0.096,0.006,0.171,0.017,0.266,0.076L116.794,183.988L116.794,183.988z
				 M124.786,172.527c-0.263,0.184-0.781,0.522-1.513,0.988c-0.642,0.397-1.158,0.732-1.553,1.006
				c-0.324,0.229-0.549,0.39-0.744,0.574l0.018-1.012c0.02-1.031,0.271-1.648,0.629-2.011c0.357-0.363,0.926-0.604,1.902-0.606
				h0.023c0.545,0,0.863,0.105,1.016,0.202c0.104,0.188,0.205,0.362,0.306,0.521L124.786,172.527z M129.428,178.372
				c-0.582-1.558-1.629-2.765-3.031-3.532c0.211-0.104,0.422-0.207,0.631-0.313c0.718-0.356,1.261-0.492,1.451-0.482
				c0.008,0,0.021,0,0.037,0.002l0.035,0.003h0.916c-0.197,0.734-0.303,1.427-0.303,2.081
				C129.162,176.891,129.254,177.639,129.428,178.372z M139.043,173.398h-2.77v1.787l0.598,0.203
				c0.188,0.063,0.346,0.122,0.465,0.172c0.082,0.174,0.109,0.321,0.111,0.461v3.67c0.001,1.851-0.045,3.322-0.129,4.389
				c-0.252-0.104-0.506-0.262-0.771-0.482c-0.522-0.438-1.063-1.146-1.575-2.138c-0.902-1.753-1.33-3.362-1.328-4.84
				c0.02-2.209,0.731-3.625,2.215-4.653l0.063-0.043l0.015-0.015c0.063-0.035,0.229-0.117,0.459-0.216
				c0.181-0.076,0.321-0.131,0.408-0.162c0.01-0.004,0.021-0.008,0.027-0.01h0.941c0.48,0.256,0.822,0.457,0.976,0.563
				c0.224,0.221,0.28,0.365,0.293,0.648L139.043,173.398L139.043,173.398z"/>
			<g>
				<path style="fill:#C9CBCC;" d="M92.014,164.439c-0.13,0.926-0.728,2.248-1.791,3.97h-0.168
					c-0.093-0.788-0.472-1.427-1.133-1.909c-0.663-0.484-1.413-0.729-2.252-0.729c-0.803,0-1.586,0.326-2.352,0.975
					c-0.653,0.54-1.189,1.212-1.609,2.013c-0.42,0.804-0.63,1.239-0.63,1.312c0,0.146,0.056,0.253,0.168,0.324h6.241
					c-0.355,0.563-0.877,1.241-1.567,2.039c-0.13-0.525-0.738-0.789-1.82-0.789c-0.13,0-0.313,0.01-0.544,0.027
					c-0.234,0.02-0.406,0.026-0.518,0.026c-1.27,0-1.969,0.036-2.099,0.108c-0.411,0.163-0.616,0.734-0.616,1.713
					c0,2.918,0.774,5.557,2.324,7.912c1.641,2.502,3.87,4.143,6.688,4.922l0.167,0.188c-2.071-0.035-4.114-0.681-6.128-1.931
					c-1.903-1.178-3.424-2.672-4.563-4.485c-0.111-0.272-0.29-0.67-0.531-1.196c-0.168-0.218-0.374-0.57-0.616-1.061
					c-0.634-1.702-0.951-3.661-0.951-5.871c0-0.943,0.378-2.198,1.133-3.768c0.755-1.565,1.134-2.306,1.134-2.215
					c0-0.271-0.164-0.484-0.49-0.639c-0.326-0.154-0.64-0.223-0.938-0.204v-0.354h12.482
					C91.295,164.82,91.622,164.695,92.014,164.439z"/>
				<path style="fill:#C9CBCC;" d="M104.271,170.096c-0.728,0.108-1.091,0.48-1.091,1.114v7.966c0,1.45-0.233,2.846-0.699,4.188
					c-0.542,1.56-1.316,2.728-2.323,3.507c1.268-1.92,1.903-3.94,1.903-6.063c0-1.666-0.607-3.252-1.819-4.758
					c-1.139-1.396-2.547-2.429-4.226-3.099c-0.15-0.091-0.364-0.183-0.645-0.272l-0.251,0.164
					c-0.131,1.707-0.196,5.239-0.196,10.598c0,0.89,0.103,1.525,0.308,1.906c0.037,0.092,0.164,0.195,0.377,0.313
					c0.215,0.118,0.322,0.204,0.322,0.259h-2.938c0.261-0.09,0.55-0.309,0.868-0.652c0.129-0.397,0.205-1.24,0.223-2.527
					c0-0.906,0-1.805,0-2.691l0.084-7.313c0.019-0.289-0.159-0.498-0.532-0.625c-0.243-0.073-0.541-0.101-0.896-0.082
					c1.194-1.612,1.949-2.438,2.267-2.475c1.847,0.848,3.144,1.514,3.89,2.002c1.138,0.756,2.184,1.775,3.135,3.055h0.224v-2.963
					c0-0.162-0.084-0.535-0.253-1.114c-0.074-0.072-0.298-0.218-0.671-0.435l0.056-0.19h2.771L104.271,170.096z"/>
				<path style="fill:#C9CBCC;" d="M115.999,169.552c-0.112,0.72-0.579,1.733-1.399,3.046h-0.141
					c-0.057-0.617-0.34-1.115-0.854-1.496s-1.087-0.57-1.721-0.57c-1.231,0-2.249,0.779-3.051,2.338
					c-0.335,0.615-0.504,0.951-0.504,1.006c0,0.127,0.046,0.209,0.14,0.245h4.813c-0.28,0.435-0.69,0.961-1.231,1.575
					c-0.094-0.416-0.56-0.625-1.399-0.625c-0.188,0-0.444-0.004-0.77-0.014c-0.327-0.009-0.556-0.013-0.686-0.013
					c-0.97,0-1.455,0.489-1.455,1.468c0,2.266,0.597,4.295,1.791,6.09c1.269,1.939,2.985,3.207,5.149,3.807l0.141,0.164
					c-1.605-0.036-3.182-0.535-4.73-1.496c-1.455-0.926-2.622-2.084-3.498-3.48c-0.094-0.197-0.233-0.498-0.42-0.896
					c-0.112-0.181-0.271-0.453-0.476-0.816c-0.485-1.286-0.728-2.8-0.728-4.54c0-0.725,0.29-1.689,0.868-2.895
					c0.578-1.206,0.867-1.771,0.867-1.7c0-0.198-0.121-0.356-0.364-0.476c-0.242-0.117-0.484-0.176-0.727-0.176v-0.272
					c0.168,0,0.933,0.014,2.295,0.041c1.362,0.026,2.5,0.041,3.414,0.041C114.029,169.904,115.588,169.788,115.999,169.552z"/>
				<path style="fill:#C9CBCC;" d="M129.15,180.861c0,2.699-1.344,4.92-4.029,6.66c1.661-2.088,2.49-3.867,2.49-5.336
					c0-1.834-1.072-3.506-3.217-5.013c-1.308-0.907-2.269-1.36-2.885-1.36c0.206-0.235,0.952-0.754,2.239-1.552
					c1.194-0.763,1.801-1.172,1.819-1.227l0.252-1.009c-0.168-0.234-0.354-0.543-0.561-0.926c-0.354-0.345-0.934-0.517-1.734-0.517
					c-2.239,0-3.377,1.162-3.414,3.485l-0.141,8.524c-0.039,1.652,0.064,2.634,0.309,2.94c0.056,0.091,0.316,0.244,0.783,0.463
					l-4.422,0.055c0.166-0.107,0.409-0.279,0.728-0.517l0.14-0.271c0-0.109,0.028-0.328,0.084-0.652
					c0.057-0.272,0.084-0.48,0.084-0.625V172.54c-0.335-0.381-0.719-0.571-1.146-0.571c2.033-1.558,4.143-2.337,6.324-2.337
					c1.996,0,3.274,0.136,3.834,0.407c0.84,0.417,1.549,1.459,2.127,3.127h-0.224c-0.446-0.037-1.101,0.154-1.959,0.57
					c-0.653,0.326-1.307,0.644-1.959,0.951l-0.336,0.299c2.146,0.545,3.582,1.813,4.31,3.807L129.15,180.861z"/>
				<path style="fill:#C9CBCC;" d="M141.913,174.445c-0.195,0.107-0.45,0.289-0.765,0.544c-0.234,0.325-0.371,1.25-0.41,2.772
					c0.056,0.869,0.084,1.739,0.084,2.609c0,0.361-0.021,0.988-0.057,1.875c-0.021,0.799-0.027,1.424-0.027,1.876
					c0,0.581,0.027,0.971,0.084,1.17c0.111,0.397,0.371,0.634,0.783,0.706v0.163l-0.561,0.108c-0.615-0.108-1.213-0.162-1.791-0.162
					c-2.369,0-4.516-1.098-6.438-3.289c-1.848-2.104-2.771-4.332-2.771-6.688c0-0.925,0.247-2.007,0.742-3.249
					c0.493-1.24,0.741-1.89,0.741-1.943c0-0.397-0.393-0.752-1.176-1.062h0.279h10.02c0.168,0,0.541-0.106,1.119-0.325
					c-0.224,0.906-0.84,2.03-1.848,3.371c0-0.035,0-0.1,0-0.189c0-0.525-0.205-0.971-0.615-1.332
					c-0.224-0.164-0.662-0.418-1.313-0.762h-1.261c-0.074,0-0.303,0.082-0.687,0.244c-0.382,0.163-0.61,0.281-0.687,0.354
					c-1.734,1.18-2.603,2.973-2.603,5.384c0,1.649,0.476,3.397,1.429,5.247c1.1,2.121,2.388,3.208,3.86,3.262l0.058-0.081
					c0.147-1.142,0.223-2.927,0.223-5.354v-3.672c0-0.379-0.121-0.761-0.363-1.142c-0.168-0.091-0.438-0.198-0.811-0.325v-0.271
					h4.589L141.913,174.445z"/>
				<path style="fill:#C9CBCC;" d="M149.302,176.783v7.395c0,0.545,0.074,0.951,0.226,1.225c0.093,0.146,0.231,0.268,0.418,0.365
					c0.188,0.102,0.309,0.205,0.363,0.313l-0.279,0.108l-1.538,0.026c-0.636,0-1.577-0.036-2.826-0.108l-0.028-0.189l0.084,0.027
					c0.709,0.018,1.063-1.098,1.063-3.344c0-0.272,0-0.617,0-1.035c0-0.379,0-0.614,0-0.705v-3.752c0-0.199-0.445-1.105-1.335-2.719
					c-0.797-1.486-1.344-2.438-1.641-2.854c-0.074-0.127-0.26-0.304-0.557-0.529c-0.297-0.228-0.52-0.358-0.667-0.396
					c0.336-0.163,0.896-0.407,1.679-0.734c0.02,0,0.467-0.189,1.344-0.57c0.058,0.327,0.598,1.424,1.623,3.291
					c1.026,1.865,1.643,2.881,1.849,3.045c0.354-0.056,0.787-0.526,1.302-1.414c0.514-0.889,0.77-1.541,0.77-1.957
					c0-0.418-0.141-0.785-0.42-1.102s-0.635-0.494-1.063-0.531l-0.084-0.08l-0.113,0.026c1.307-0.853,2.081-1.278,2.324-1.278
					c0.262,0,0.494,0.264,0.699,0.789c0.168,0.436,0.252,0.824,0.252,1.17c0,0.76-0.232,1.539-0.699,2.338
					c-0.3,0.506-0.747,1.061-1.344,1.657c-0.689,0.652-1.102,1.079-1.232,1.277L149.302,176.783z"/>
				<path style="fill:#C9CBCC;" d="M103.961,192.891c0,1.531-0.397,3.034-1.193,4.508c-0.074,0.215-0.214,0.529-0.42,0.943
					c-0.869,1.346-2.283,2.553-4.242,3.617c-1.959,1.066-3.749,1.6-5.369,1.6h-2.961v-0.236c0.191-0.071,0.383-0.143,0.574-0.215
					c0.192-0.07,0.332-0.223,0.42-0.45c0.133-0.345,0.206-0.837,0.221-1.48l0.155-9.53l-0.177-1.889
					c-0.323-0.386-0.714-0.578-1.171-0.578c0.9-0.688,1.999-1.261,3.297-1.719c1.298-0.458,2.508-0.688,3.629-0.688
					c1.888,0,3.482,0.25,4.78,0.752c1.092,0.442,1.911,0.994,2.456,1.652c-0.291,0.014-0.489,0.137-0.596,0.364
					C103.762,190.916,103.961,192.031,103.961,192.891z M101.155,193.855c0.015-0.027,0.022-0.086,0.022-0.172
					c0-1.486-0.273-2.748-0.817-3.777c-0.678-1.301-1.709-1.952-3.094-1.952c-1.34,0-2.276,0.261-2.806,0.782
					c-0.53,0.522-0.795,1.436-0.795,2.738v5.987c-0.015,1.103-0.044,2.755-0.088,4.958c-0.015,0.357,0.183,0.536,0.596,0.536
					c0.236,0,0.766-0.2,1.591-0.601c1.606-0.787,2.906-1.969,3.901-3.543C100.658,197.24,101.155,195.588,101.155,193.855z"/>
				<path style="fill:#C9CBCC;" d="M115.075,199.63c0,2.134-1.062,3.886-3.182,5.259c1.311-1.647,1.967-3.053,1.967-4.214
					c0-1.446-0.848-2.767-2.542-3.954c-1.031-0.717-1.79-1.076-2.276-1.076c0.162-0.187,0.751-0.595,1.768-1.226
					c0.942-0.603,1.42-0.924,1.437-0.967l0.198-0.796c-0.133-0.188-0.28-0.43-0.442-0.731c-0.28-0.272-0.736-0.407-1.37-0.407
					c-1.767,0-2.666,0.918-2.695,2.752l-0.11,6.729c-0.03,1.306,0.051,2.079,0.243,2.321c0.044,0.072,0.25,0.193,0.619,0.365
					l-3.492,0.043c0.133-0.086,0.324-0.222,0.575-0.408l0.11-0.213c0-0.086,0.022-0.258,0.066-0.517
					c0.044-0.214,0.066-0.379,0.066-0.493v-9.037c-0.265-0.3-0.567-0.449-0.906-0.449c1.604-1.23,3.27-1.846,4.993-1.846
					c1.576,0,2.585,0.106,3.027,0.321c0.663,0.328,1.223,1.151,1.68,2.468h-0.177c-0.354-0.027-0.87,0.122-1.547,0.451
					c-0.517,0.258-1.031,0.508-1.547,0.751l-0.265,0.236c1.693,0.429,2.829,1.432,3.402,3.004L115.075,199.63z"/>
				<path style="fill:#C9CBCC;" d="M119.85,190.938c-0.605,0.314-0.906,1.018-0.906,2.104l-0.066,9.682
					c0,0.457,0.271,0.801,0.816,1.029h-3.733l0.376-0.214c0.323-0.216,0.493-0.638,0.508-1.267c0.09-5.924,0.133-8.772,0.133-8.543
					c0-0.758-0.072-1.461-0.221-2.104c-0.029-0.129-0.125-0.257-0.288-0.388c-0.25-0.186-0.375-0.285-0.375-0.301h3.757V190.938z"/>
				<path style="fill:#C9CBCC;" d="M129.879,191.131c-0.574,0.086-0.861,0.379-0.861,0.879v6.289c0,1.146-0.185,2.248-0.552,3.307
					c-0.428,1.23-1.039,2.153-1.835,2.77c1.002-1.518,1.502-3.113,1.502-4.787c0-1.316-0.479-2.566-1.436-3.756
					c-0.898-1.102-2.012-1.917-3.336-2.446c-0.118-0.071-0.287-0.144-0.508-0.215l-0.199,0.129
					c-0.104,1.349-0.155,4.138-0.155,8.366c0,0.703,0.081,1.205,0.244,1.506c0.028,0.071,0.128,0.154,0.297,0.247
					c0.17,0.095,0.255,0.161,0.255,0.205h-2.32c0.207-0.072,0.436-0.244,0.686-0.517c0.104-0.313,0.163-0.979,0.177-1.996
					c0-0.715,0-1.424,0-2.125l0.067-5.772c0.014-0.229-0.127-0.394-0.42-0.494c-0.191-0.058-0.43-0.079-0.709-0.063
					c0.943-1.273,1.541-1.924,1.791-1.953c1.457,0.669,2.48,1.195,3.07,1.58c0.898,0.598,1.725,1.4,2.475,2.412h0.178v-2.34
					c0-0.129-0.066-0.422-0.198-0.879c-0.06-0.06-0.235-0.174-0.53-0.345l0.043-0.151h2.188L129.879,191.131z"/>
				<path style="fill:#C9CBCC;" d="M140.484,199.65c0,2.133-1.062,3.887-3.183,5.26c1.312-1.645,1.968-3.049,1.968-4.207
					c0-0.944-0.543-2.012-1.625-3.198c-1.086-1.187-2.109-1.78-3.074-1.78c-0.252,0-0.471,0.074-0.656,0.226
					c-0.188,0.149-0.279,0.34-0.279,0.567v4.465c-0.014,1.218,0.066,1.969,0.244,2.254c0.073,0.129,0.189,0.226,0.354,0.291
					c0.162,0.063,0.242,0.132,0.242,0.203h-3.756v-0.15c0.471-0.2,0.758-0.443,0.861-0.729c0.074-0.158,0.109-0.537,0.109-1.139
					v-9.466c0.017-0.356-0.041-0.601-0.17-0.729c-0.201-0.144-0.401-0.285-0.603-0.429l0.044-0.086h3.602v0.172
					c-0.574,0.101-0.861,0.658-0.861,1.675c0,0.057,0,0.351,0,0.879c0.029,0.357,0.029,0.645,0,0.858
					c0.074,0.072,0.14,0.106,0.199,0.106c0.427,0,1.037-0.381,1.834-1.146c0.795-0.764,1.192-1.351,1.192-1.76
					c0-0.17-0.077-0.297-0.231-0.382c-0.154-0.086-0.307-0.163-0.452-0.233v-0.17l3.557-0.065c-0.427,0.215-0.913,0.603-1.458,1.16
					c-0.428,0.457-0.861,0.916-1.304,1.373c-0.324,0.215-0.759,0.588-1.304,1.116c0.486,0,1.17,0.272,2.055,0.815
					c0.885,0.545,1.451,1.031,1.701,1.459C140.152,198.092,140.484,199.021,140.484,199.65z"/>
			</g>
		</g>
	</g>
</g>
</svg>
