<?xml version="1.0" encoding="utf-8"?>
<!-- Generator: Adobe Illustrator 25.1.0, SVG Export Plug-In . SVG Version: 6.00 Build 0)  -->
<svg version="1.1" id="Ebene_1" xmlns="http://www.w3.org/2000/svg" xmlns:xlink="http://www.w3.org/1999/xlink" x="0px" y="0px"
	 viewBox="0 0 162 170.1" style="enable-background:new 0 0 162 170.1;" xml:space="preserve">
<style type="text/css">
	.st0{fill:#F088B6;}
</style>
<path class="st0" d="M103.4,97.9c3.1,0,6.1-0.7,8.7-2.3c2.7-1.5,4.8-3.7,6.4-6.5c1.6-2.8,2.4-5.8,2.4-8.9s-0.7-6.1-2.3-9
	s-3.7-5.1-6.3-6.7c-2.7-1.6-5.5-2.4-8.6-2.4c-3.1,0-6,0.7-8.8,2.3c-2.8,1.5-5,3.7-6.4,6.3c-1.5,2.7-2.3,5.6-2.3,9
	c-0.1,5.1,1.7,9.4,5,12.8C94.4,96.2,98.5,97.9,103.4,97.9 M80.3,78.1V41.3H86v24.2c2.4-2.9,5.2-5,8.1-6.4c2.9-1.4,6.2-2.1,9.7-2.1
	c6.2,0.1,11.5,2.3,15.9,6.9c4.4,4.5,6.6,10.1,6.5,16.5c-0.1,6.4-2.3,11.8-6.8,16.3c-4.5,4.5-9.9,6.7-16.1,6.7
	c-3.6,0-6.8-0.8-9.8-2.3c-2.8-1.5-5.4-3.6-7.6-6.6c-0.1-0.1,0.2-0.1,0.1-0.2 M63.3,74.9c-3.2,0-6.2,0.7-9,2.3
	c-2.8,1.5-5,3.7-6.5,6.4c-1.6,2.8-2.4,5.7-2.5,8.9c-0.1,4.8,1.6,8.8,4.8,12c3.2,3.2,7.4,4.8,12.6,4.8c5.2,0,9.4-1.5,12.6-4.6
	c3.2-3.1,4.8-7.2,4.8-12.4c0-3.3-0.7-6.3-2.1-8.9c-1.4-2.6-3.5-4.7-6.2-6.2C69.2,75.7,66.3,75,63.3,74.9 M86.1,94.2L86,105.9
	c-0.1,6.2-0.6,10.7-1.7,13.5c-1.5,4-4.1,7.1-7.8,9.3c-3.7,2.2-8.1,3.3-13.3,3.2c-3.8,0-7.1-0.6-10.2-1.7c-3-1.1-5.4-2.6-7.4-4.4
	c-1.9-1.8-3.6-4.5-5.2-7.9l6.2,0.1c1.7,2.9,3.8,5.1,6.4,6.5c2.7,1.4,5.9,2.1,9.8,2.1c3.8,0.1,7.1-0.7,9.8-2.1
	c2.7-1.4,4.6-3.3,5.7-5.4c1.2-2.2,1.7-5.7,1.8-10.6l-0.1-1.8c-2.1,2.7-4.6,4.3-7.7,5.7c-3.1,1.4-6.3,2.1-9.8,2.1
	c-4-0.1-7.8-1.1-11.4-3.1c-3.6-2-6.3-4.7-8.2-8.2c-2-3.4-2.9-7.1-2.9-11.2c0-4,1.1-7.9,3.1-11.4c2-3.5,4.8-6.3,8.5-8.3
	c3.6-2,7.4-3,11.4-3c3.3,0,6.3,0.7,9.2,2.1c2.8,1.4,5.4,2.9,8,6.1"/>
<path class="st0" d="M81,11c41.5,0,75.3,33.8,75.3,75.3s-33.8,75.3-75.3,75.3S5.7,127.9,5.7,86.3S39.5,11,81,11 M81,5.3
	c-44.7,0-81,36.3-81,81s36.3,81,81,81s81-36.3,81-81S125.7,5.3,81,5.3L81,5.3z"/>
</svg>
