<svg width="500" height="291" viewBox="0 0 500 291" fill="none" xmlns="http://www.w3.org/2000/svg">
<path d="M107.435 42.3203H114.542C121.65 42.8922 128.676 44.853 134.64 48.938C141.748 53.5948 146.814 61.1112 148.938 69.3628C151.552 79.5752 150.49 90.6046 146.732 100.409C145.506 103.922 144.281 107.353 143.055 110.784C148.774 109.314 154.412 106.618 158.497 102.206C162.908 97.7125 165.196 91.585 166.667 85.5393C177.124 85.4576 187.582 85.5393 197.957 85.5393C192.565 99.8366 188.562 115.033 188.889 130.474C188.97 148.284 195.506 165.196 197.222 182.761C198.529 194.69 198.121 206.944 194.771 218.464C191.667 229.248 185.948 239.297 178.104 247.386C170.261 255.556 160.457 261.765 149.918 265.85C136.438 271.078 121.814 273.121 107.353 272.794C90.1143 272.467 72.7123 268.546 57.9247 259.477C45.1796 251.716 34.6404 239.951 29.3299 225.899C24.0195 211.928 24.428 195.752 30.8005 182.19C35.7025 171.569 44.6077 162.99 55.0652 157.925C68.0554 151.716 82.843 150.082 96.977 151.552C98.9378 146.405 100.899 141.258 102.941 136.111C91.013 130.964 80.1469 122.549 73.9378 110.948C64.379 93.5458 66.5031 70.0164 80.2286 55.3922C87.0914 47.6308 97.1404 43.0556 107.435 42.3203ZM99.5914 78.7582C97.2221 83.987 96.977 90.3595 99.5097 95.5883C102.287 101.389 106.699 106.781 112.663 109.395C113.889 106.618 114.869 103.758 116.013 100.98C117.729 96.487 119.771 92.0752 120.261 87.255C120.833 83.2517 120.261 78.8399 117.647 75.6536C114.951 72.3857 110.212 71.1602 106.209 72.4674C103.186 73.4478 100.899 75.9804 99.5914 78.7582ZM132.189 139.788C129.82 146.242 127.287 152.696 125 159.232C132.189 162.582 139.624 166.095 145.261 171.895C141.748 180.964 138.153 189.951 134.477 198.938C128.921 193.382 122.386 188.726 115.033 185.866C111.029 196.405 107.189 207.026 103.268 217.565C93.0554 217.565 82.843 217.565 72.6306 217.565C77.2058 205.31 81.6992 193.137 86.2744 180.882C76.2254 180.556 66.1764 185.703 60.7025 194.199C58.4149 197.794 57.026 202.043 57.5979 206.373C58.2515 215.36 62.9084 223.856 69.8528 229.575C79.3299 237.418 91.8299 240.686 103.921 241.585C113.889 242.239 124.183 241.667 133.66 238.48C142.238 235.703 150.245 230.556 155.801 223.366C163.153 214.134 165.931 201.879 165.114 190.278C164.297 181.373 162.173 172.631 160.539 163.889C158.66 154.003 157.108 143.954 157.108 133.824C149.101 136.846 140.768 138.889 132.189 139.788Z" fill="#19488D"/>
<path d="M182.271 74.1015C198.039 62.0917 206.046 55.3924 211.111 46.5689C218.301 34.0689 213.971 23.5296 204.82 19.363C196.323 15.5231 186.193 19.1179 182.189 27.5329C178.268 19.1996 168.137 15.5231 159.559 19.363C150.49 23.5296 146.078 34.0689 153.268 46.5689C158.497 55.3924 166.503 62.0917 182.271 74.1015Z" fill="#E32227"/>
<path d="M224.183 108.17V108.007C224.183 95.425 233.987 85.1309 247.304 85.1309C255.229 85.1309 260.049 87.255 264.624 91.1766L258.497 98.5296C255.065 95.6701 252.043 94.0361 246.977 94.0361C239.951 94.0361 234.314 100.245 234.314 107.762V107.925C234.314 116.013 239.869 121.896 247.713 121.896C251.226 121.896 254.412 120.997 256.863 119.281V112.99H247.059V104.575H266.258V123.775C261.683 127.615 255.474 130.801 247.386 130.801C233.66 130.883 224.183 121.242 224.183 108.17Z" fill="#19488D"/>
<path d="M272.958 113.399V113.235C272.958 103.595 279.82 95.6699 289.706 95.6699C300.98 95.6699 306.209 104.412 306.209 114.052C306.209 114.788 306.127 115.686 306.046 116.585H282.516C283.497 120.915 286.52 123.203 290.768 123.203C293.954 123.203 296.324 122.222 298.938 119.771L304.412 124.591C301.225 128.513 296.732 130.882 290.605 130.882C280.474 130.882 272.958 123.774 272.958 113.399ZM296.814 110.621C296.242 106.373 293.709 103.431 289.706 103.431C285.703 103.431 283.17 106.291 282.353 110.621H296.814Z" fill="#19488D"/>
<path d="M313.317 96.3239H322.876V101.144C325.082 98.2846 327.941 95.752 332.761 95.752C340.033 95.752 344.281 100.572 344.281 108.334V130.229H334.722V111.357C334.722 106.781 332.598 104.494 328.921 104.494C325.245 104.494 322.957 106.863 322.957 111.357V130.229H313.399V96.3239H313.317Z" fill="#19488D"/>
<path d="M350.98 113.399V113.235C350.98 103.595 357.843 95.6699 367.729 95.6699C379.003 95.6699 384.232 104.412 384.232 114.052C384.232 114.788 384.15 115.686 384.069 116.585H360.539C361.52 120.915 364.543 123.203 368.791 123.203C371.977 123.203 374.346 122.222 376.961 119.771L382.435 124.591C379.248 128.513 374.755 130.882 368.628 130.882C358.497 130.882 350.98 123.774 350.98 113.399ZM374.837 110.621C374.265 106.373 371.732 103.431 367.729 103.431C363.726 103.431 361.193 106.291 360.376 110.621H374.837Z" fill="#19488D"/>
<path d="M391.258 96.3237H400.817V103.105C402.777 98.4479 405.964 95.425 411.601 95.6701V105.719H411.111C404.738 105.719 400.817 109.559 400.817 117.647V130.147H391.258V96.3237Z" fill="#19488D"/>
<path d="M414.052 120.425V120.262C414.052 112.909 419.69 109.477 427.696 109.477C431.127 109.477 433.578 110.049 435.948 110.866V110.294C435.948 106.291 433.497 104.085 428.676 104.085C425 104.085 422.467 104.739 419.363 105.883L416.993 98.5296C420.752 96.8956 424.346 95.8335 430.147 95.8335C435.376 95.8335 439.134 97.2224 441.585 99.5917C444.118 102.124 445.261 105.801 445.261 110.376V129.984H435.948V126.307C433.578 128.922 430.392 130.556 425.735 130.556C419.281 130.801 414.052 127.124 414.052 120.425ZM436.111 118.219V116.503C434.477 115.768 432.353 115.278 429.984 115.278C425.899 115.278 423.366 116.912 423.366 119.935V120.098C423.366 122.713 425.49 124.183 428.595 124.183C433.088 124.183 436.111 121.732 436.111 118.219Z" fill="#19488D"/>
<path d="M463.399 84.0688H453.84V130.147H463.399V84.0688Z" fill="#19488D"/>
<path d="M226.144 146.896H236.683L248.284 165.523L259.885 146.896H270.343V191.013H260.702V162.173L248.284 181.046H248.039L235.702 162.418V191.013H226.144V146.896Z" fill="#19488D"/>
<path d="M280.147 144.935H290.278V153.432H280.147V144.935ZM280.392 157.19H289.951V191.013H280.392V157.19Z" fill="#19488D"/>
<path d="M308.987 144.935H299.428V191.013H308.987V144.935Z" fill="#19488D"/>
<path d="M328.023 144.935H318.464V191.013H328.023V144.935Z" fill="#19488D"/>
<path d="M334.396 186.52L338.48 180.229C342.157 182.843 345.997 184.232 349.183 184.232C351.961 184.232 353.186 183.252 353.186 181.699V181.536C353.186 179.412 349.918 178.758 346.16 177.614C341.422 176.226 336.029 174.02 336.029 167.484V167.32C336.029 160.458 341.585 156.618 348.366 156.618C352.614 156.618 357.353 158.088 360.948 160.539L357.271 167.157C353.922 165.196 350.572 163.971 348.121 163.971C345.752 163.971 344.608 164.951 344.608 166.34V166.503C344.608 168.382 347.794 169.281 351.471 170.507C356.209 172.059 361.683 174.346 361.683 180.556V180.719C361.683 188.235 356.046 191.667 348.775 191.667C344.199 191.667 338.889 190.114 334.396 186.52Z" fill="#19488D"/>
</svg>
