<svg width="500" height="408" viewBox="0 0 500 408" fill="none" xmlns="http://www.w3.org/2000/svg">
<g clip-path="url(#clip0_2_1322)">
<path d="M57.6213 90.9253L45.7271 113.48H68.1059L68.2821 294.89H45.7271L58.7667 317.533H440.793L453.568 294.89H431.013L431.19 113.48H453.568L440.969 90.9253H57.6213Z" fill="white"/>
<path d="M431.013 294.89H453.568L490.308 231.189C500.793 212.775 502.907 197.357 491.454 178.061L453.48 113.568H431.101C431.013 113.48 431.013 294.89 431.013 294.89ZM440.793 317.533L401.586 385.55C393.392 398.414 378.326 406.608 363.084 406.96H136.299C122.026 406.96 106.784 399.559 98.5901 387.224L58.7663 317.445H440.793V317.533ZM440.969 90.9249L399.824 20.2641C391.63 7.40067 377.621 0.0878906 362.819 0.0878906H135.595C119.295 0.0878906 105.462 8.01741 96.2994 23.8764L57.5328 90.8368H440.969V90.9249ZM68.2817 294.89H45.7267L8.98658 231.189C-1.5861 212.775 -3.70064 197.269 7.7531 177.973L45.7267 113.48H68.1055C68.2817 113.48 68.2817 294.89 68.2817 294.89Z" fill="black"/>
<path fill-rule="evenodd" clip-rule="evenodd" d="M297.621 149.339C297.621 122.731 280.088 113.745 245.551 113.745H210.749V296.124H243.965V226.168H257.797C283.524 226.168 297.621 213.833 297.621 188.723V149.339ZM243.965 135.507H249.956C261.233 135.507 264.405 140.353 264.405 152.952V196.212C264.405 204.405 253.744 204.405 244.053 204.405V135.507H243.965ZM397.357 180.353V140.881C397.357 117.093 374.449 110.132 353.744 110.132C333.392 110.132 310.485 117.093 310.485 140.881V268.987C310.485 292.775 333.392 299.736 353.744 299.736C374.449 299.736 397.357 292.775 397.357 268.987V227.225H364.141V266.696C364.141 275.947 360.705 277.974 354.097 277.974C347.225 277.974 343.788 275.947 343.788 266.696V143.172C343.788 133.921 347.225 131.894 354.097 131.894C360.705 131.894 364.141 133.921 364.141 143.172V180.353H397.357ZM194.009 205.198H147.665V226.961H160.793L160.881 266.696C160.881 275.947 157.445 277.974 150.837 277.974C143.965 277.974 140.529 275.947 140.529 266.696V143.172C140.529 133.921 143.965 131.894 150.837 131.894C157.445 131.894 160.881 133.921 160.881 143.172V180.353H194.097V140.881C194.097 117.093 171.189 110.132 150.485 110.132C130.132 110.132 107.225 117.093 107.225 140.881V268.987C107.225 292.775 130.132 299.736 150.485 299.736C171.189 299.736 194.097 292.775 194.097 268.987L194.009 205.198Z" fill="black"/>
<path fill-rule="evenodd" clip-rule="evenodd" d="M466.96 390.925C466.96 381.586 474.538 374.714 483.524 374.714C492.423 374.714 500 381.586 500 390.925C500 400.353 492.423 407.225 483.524 407.225C474.538 407.137 466.96 400.265 466.96 390.925ZM483.524 404.494C490.925 404.494 496.74 398.767 496.74 390.925C496.74 383.26 490.925 377.445 483.524 377.445C476.035 377.445 470.22 383.26 470.22 390.925C470.22 398.679 476.035 404.494 483.524 404.494ZM480.088 400.265H477.269V381.586H484.405C488.811 381.586 491.013 383.26 491.013 386.872C491.013 390.22 488.899 391.718 486.167 391.983L491.542 400.265H488.37L483.436 392.159H480.176V400.265H480.088ZM483.436 389.78C485.815 389.78 488.018 389.604 488.018 386.696C488.018 384.406 485.903 383.965 483.965 383.965H480.088V389.78H483.436Z" fill="#1C3A8E"/>
</g>
<defs>
<clipPath id="clip0_2_1322">
<rect width="500" height="407.137" fill="white"/>
</clipPath>
</defs>
</svg>
