<?xml version="1.0" encoding="UTF-8" standalone="no"?>
<!DOCTYPE svg PUBLIC "-//W3C//DTD SVG 1.1//EN" "http://www.w3.org/Graphics/SVG/1.1/DTD/svg11.dtd">
<svg width="100%" height="100%" viewBox="0 0 169 28" version="1.1" xmlns="http://www.w3.org/2000/svg" xmlns:xlink="http://www.w3.org/1999/xlink" xml:space="preserve" xmlns:serif="http://www.serif.com/" style="fill-rule:evenodd;clip-rule:evenodd;stroke-linecap:square;stroke-miterlimit:3;">
    <g transform="matrix(1,0,0,1,-92,-1014)">
        <path d="M256.485,1042.01C258.876,1042.01 260.579,1040 260.579,1037.78L260.561,1017.96C260.561,1015.96 258.578,1014.05 256.783,1014.05L96.548,1014.05C94.493,1014.05 92.683,1015.88 92.683,1018.2L92.681,1038.04C92.681,1040.05 94.511,1042.01 96.994,1042.01L256.485,1042.01Z" style="fill:rgb(246,44,41);fill-rule:nonzero;"/>
        <path d="M96.683,1015.47C95.252,1015.47 94.091,1016.63 94.091,1018.06L94.091,1037.96C94.091,1039.4 95.252,1040.56 96.683,1040.56L256.574,1040.56C258.006,1040.56 259.167,1039.4 259.167,1037.96L259.167,1018.06C259.167,1016.63 258.006,1015.47 256.574,1015.47L96.683,1015.47Z" style="fill:none;stroke:white;stroke-width:0.89px;"/>
        <path d="M114.544,1028.54C115.192,1028.54 115.673,1028.06 115.673,1027.39C115.673,1025.85 113.961,1027.4 113.961,1025.69C113.961,1024.34 116.62,1024.39 117.564,1024.39C121.045,1024.39 121.154,1025.19 121.154,1025.72C121.154,1026.21 120.747,1026.54 120.302,1026.61C119.951,1026.67 119.691,1026.98 119.621,1027.34C118.998,1030.56 116.321,1031.26 113.692,1031.24C108.98,1031.2 106.159,1028.71 106.159,1024.62C106.159,1020.71 109.656,1017.75 113.618,1017.75C115.248,1017.75 115.721,1018.39 116.203,1018.39C116.536,1018.39 117.017,1018.11 117.351,1018.11C118.498,1018.11 119.184,1020 119.184,1020.94C119.184,1021.85 118.487,1022.55 117.487,1022.55C115.654,1022.55 115.655,1020.02 113.785,1020.06C112.175,1020.09 111.137,1021.39 111.137,1023.36C111.137,1027.78 113.446,1028.54 114.544,1028.54Z" style="fill:white;fill-rule:nonzero;"/>
        <path d="M137.603,1020.5C136.566,1020.5 136.048,1021.58 136.048,1022.49C136.047,1024.06 137.023,1028.76 139.022,1028.76C140.151,1028.76 140.633,1027.78 140.633,1026.78C140.633,1025.1 139.769,1020.5 137.603,1020.5ZM131.289,1024.45C131.289,1020.52 134.418,1017.75 138.454,1017.75C143.565,1017.75 145.527,1022.24 145.527,1024.63C145.527,1028.61 142.009,1031.24 138.232,1031.24C134.326,1031.24 131.289,1028.39 131.289,1024.45Z" style="fill:white;fill-rule:nonzero;"/>
        <path d="M145.759,1021.86C145.759,1018.99 144.352,1020.17 144.352,1019.02C144.352,1018 145.796,1017.87 146.537,1017.87C147.296,1017.87 148.055,1018 148.814,1018C149.999,1018 151.202,1017.87 152.406,1017.87C154.498,1017.87 156.923,1018.8 156.923,1021.26C156.923,1022.37 156.386,1023.45 155.35,1023.95C155.183,1024.04 155.053,1024.1 155.053,1024.32C155.053,1024.6 155.294,1024.67 155.516,1024.76C156.812,1025.24 157.386,1026.1 157.645,1028.1C157.867,1029.82 159.071,1028.78 159.071,1029.91C159.071,1030.61 158.219,1031.35 156.127,1031.35C153.165,1031.35 152.794,1029.65 152.22,1027.21C152.017,1026.35 151.702,1025.52 150.684,1025.52C150.276,1025.52 150.128,1025.58 150.128,1026.74C150.128,1027.28 150.166,1028.02 150.258,1028.54C150.406,1029.39 151.35,1029.13 151.35,1030.02C151.35,1030.69 150.887,1031.19 147.888,1031.19C146.999,1031.19 144.37,1031.19 144.37,1029.84C144.37,1028.87 145.759,1029.54 145.759,1027.13L145.759,1021.86ZM150.054,1022.67C150.017,1023.15 149.925,1023.56 150.536,1023.56C151.739,1023.56 152.128,1022.89 152.128,1021.74C152.128,1020.84 152.004,1019.81 150.93,1019.81C150.244,1019.81 150.166,1020.34 150.128,1020.91L150.054,1022.67Z" style="fill:white;fill-rule:nonzero;"/>
        <path d="M165.485,1028.54C166.133,1028.54 166.614,1028.06 166.614,1027.39C166.614,1025.85 164.67,1027.35 164.67,1025.65C164.67,1024.3 167.466,1024.21 168.41,1024.21C171.891,1024.21 172.095,1025.19 172.095,1025.72C172.095,1026.21 171.687,1026.54 171.243,1026.61C170.761,1026.67 170.724,1026.76 170.595,1027.24C169.873,1029.95 167.261,1031.24 164.633,1031.24C160.708,1031.24 157.283,1028.52 157.283,1024.43C157.283,1020.52 160.597,1017.75 164.56,1017.75C166.189,1017.75 167.077,1018.25 167.559,1018.25C167.892,1018.25 168.373,1017.97 168.707,1017.97C169.855,1017.97 170.54,1019.86 170.54,1020.8C170.54,1021.71 170.077,1022.63 169.077,1022.63C167.243,1022.63 167.243,1020.06 164.726,1020.06C163.115,1020.06 162.078,1021.39 162.078,1023.36C162.078,1027.17 164.3,1028.54 165.485,1028.54Z" style="fill:white;fill-rule:nonzero;"/>
        <path d="M197.645,1026.19C197.552,1025.99 197.403,1025.42 197.108,1025.42C196.755,1025.42 196.627,1025.9 196.146,1027.08L195.016,1029.56C194.627,1030.52 194.442,1031.2 193.237,1031.2C192.201,1031.2 191.924,1030.56 191.591,1029.7L187.544,1020.91C187.026,1019.58 185.822,1020.26 185.822,1019.13C185.822,1017.85 189.388,1017.82 190.239,1017.82C192.942,1017.82 193.404,1018.24 193.404,1019C193.404,1019.56 192.517,1019.63 192.517,1020.21C192.517,1020.74 193.091,1022.09 193.165,1022.32C193.257,1022.61 194.13,1024.19 194.556,1024.19C195.037,1024.19 195.422,1022.58 195.516,1022.3C195.572,1022.19 195.757,1021.71 195.755,1021.58C195.755,1021.41 195.368,1020.26 194.812,1019.95C194.442,1019.76 194.127,1019.5 194.127,1019.04C194.127,1018.93 193.868,1017.82 197.737,1017.82C201.33,1017.82 201.255,1018.65 201.255,1018.97C201.255,1019.58 200.421,1019.74 200.421,1020.21C200.421,1020.71 201.01,1022.32 201.195,1022.72C201.325,1023.02 201.733,1024.17 202.177,1024.17C202.806,1024.17 203.644,1020.56 203.644,1020.3C203.644,1019.5 202.441,1019.91 202.441,1018.89C202.441,1017.76 204.329,1017.82 205.088,1017.82C205.847,1017.82 207.236,1017.91 207.236,1018.95C207.236,1019.85 206.829,1019.66 206.329,1020.95L202.96,1029.33C202.57,1030.33 201.959,1031.2 200.903,1031.2C199.978,1031.2 199.682,1030.7 199.348,1029.93L197.645,1026.19Z" style="fill:white;fill-rule:nonzero;"/>
        <path d="M147.65,1034.61C147.65,1033.46 147.087,1033.93 147.087,1033.47C147.087,1033.07 147.665,1033.01 147.961,1033.01C148.265,1033.01 148.569,1033.06 148.872,1033.06C149.346,1033.06 149.827,1033.01 150.309,1033.01C151.145,1033.01 152.116,1033.38 152.116,1034.37C152.116,1034.81 151.901,1035.24 151.486,1035.44C151.419,1035.48 151.368,1035.5 151.368,1035.59C151.368,1035.7 151.464,1035.73 151.553,1035.77C152.072,1035.96 152.301,1036.3 152.405,1037.1C152.494,1037.79 152.975,1037.37 152.975,1037.83C152.975,1038.11 152.635,1038.4 151.798,1038.4C150.613,1038.4 150.464,1037.72 150.235,1036.75C150.153,1036.4 150.028,1036.07 149.62,1036.07C149.457,1036.07 149.398,1036.09 149.398,1036.56C149.398,1036.78 149.413,1037.07 149.45,1037.28C149.509,1037.62 149.887,1037.52 149.887,1037.87C149.887,1038.14 149.702,1038.34 148.502,1038.34C148.147,1038.34 147.095,1038.34 147.095,1037.8C147.095,1037.41 147.65,1037.68 147.65,1036.72L147.65,1034.61ZM149.368,1034.93C149.353,1035.12 149.317,1035.29 149.561,1035.29C150.043,1035.29 150.198,1035.02 150.198,1034.56C150.198,1034.2 150.109,1033.83 149.679,1033.83C149.405,1033.83 149.413,1034 149.398,1034.23L149.368,1034.93Z" style="fill:white;fill-rule:nonzero;"/>
        <path d="M158.125,1034.69C158.125,1033.92 158.866,1032.96 160.302,1032.96C160.776,1032.96 161.309,1033.18 161.42,1033.18C161.524,1033.18 161.628,1033.09 161.783,1033.09C162.035,1033.09 162.598,1033.63 162.598,1034.26C162.598,1034.51 162.435,1034.76 162.161,1034.76C161.665,1034.76 161.376,1033.92 160.606,1033.92C160.376,1033.92 160.132,1034.02 160.132,1034.29C160.132,1034.87 161.147,1034.72 162.006,1035.29C162.465,1035.59 162.694,1035.96 162.695,1036.52C162.695,1037.38 161.984,1038.36 160.258,1038.36C159.77,1038.36 158.933,1038.23 158.51,1038.01C158.155,1037.81 157.985,1037.02 157.985,1036.64C157.985,1036.44 158.074,1036.24 158.296,1036.24C158.822,1036.24 158.733,1037.42 160.095,1037.42C160.258,1037.42 160.666,1037.34 160.666,1037.06C160.665,1036.52 159.651,1036.66 158.829,1036C158.421,1035.67 158.125,1035.22 158.125,1034.69Z" style="fill:white;fill-rule:nonzero;"/>
        <path d="M166.43,1033.07C166.748,1033.07 166.897,1033.04 167.008,1033.01C167.112,1032.98 167.171,1032.96 167.311,1032.96C167.6,1032.96 168.2,1033.53 168.2,1034.33C168.2,1034.7 168.008,1034.95 167.63,1034.95C166.986,1034.95 166.993,1034.07 166.615,1034.07C166.326,1034.07 166.356,1034.47 166.356,1034.53L166.357,1036.81C166.357,1037.69 167.038,1037.26 167.038,1037.78C167.038,1038.01 166.897,1038.34 165.513,1038.34C165.135,1038.34 163.75,1038.35 163.75,1037.78C163.75,1037.39 164.209,1037.55 164.357,1037.26C164.431,1037.11 164.461,1036.66 164.468,1036.48L164.527,1034.84C164.557,1034.07 164.401,1034.07 164.298,1034.07C163.964,1034.07 163.802,1034.95 163.202,1034.95C162.913,1034.95 162.742,1034.68 162.742,1034.41C162.742,1033.78 163.275,1032.96 163.698,1032.96C163.749,1032.96 163.831,1032.98 163.971,1033.01C164.112,1033.04 164.312,1033.07 164.609,1033.07L166.43,1033.07Z" style="fill:white;fill-rule:nonzero;"/>
        <path d="M168.929,1035.58C169.159,1035.07 169.462,1034.42 169.462,1033.84C169.462,1033.32 169.491,1032.94 170.15,1032.94C170.794,1032.94 171.202,1033.6 171.49,1034.09C171.616,1034.3 172.735,1036.57 173.001,1037.17C173.246,1037.74 173.646,1037.4 173.646,1037.82C173.646,1038.36 172.802,1038.34 172.432,1038.34C171.373,1038.34 170.736,1038.33 170.736,1037.87C170.736,1037.52 171.188,1037.65 171.188,1037.39C171.188,1037.06 171.003,1037.03 169.811,1037.03C169.425,1037.03 169.196,1037.04 169.196,1037.4C169.196,1037.69 169.67,1037.5 169.67,1037.89C169.67,1038.33 168.87,1038.34 168.574,1038.34C167.515,1038.34 167.419,1038.14 167.419,1037.9C167.419,1037.55 167.819,1037.66 168.033,1037.39C168.196,1037.19 168.352,1036.84 168.463,1036.6L168.929,1035.58ZM170.484,1036.12C170.558,1036.12 170.781,1036.13 170.781,1036.02C170.781,1035.91 170.566,1035.52 170.507,1035.42C170.44,1035.3 170.314,1035.03 170.151,1035.03C169.973,1035.03 169.847,1035.47 169.818,1035.55C169.788,1035.63 169.662,1035.92 169.662,1036.01C169.662,1036.14 169.847,1036.12 169.929,1036.12L170.484,1036.12Z" style="fill:white;fill-rule:nonzero;"/>
        <path d="M178.018,1034.35C178.018,1033.55 177.381,1033.86 177.381,1033.43C177.381,1032.97 178.24,1032.98 178.543,1032.98C178.825,1032.98 179.639,1032.98 179.64,1033.41C179.64,1033.83 179.084,1033.58 179.084,1034.25L179.085,1036.25C179.085,1036.58 179.092,1038.36 176.53,1038.36C173.612,1038.36 173.938,1036.11 173.938,1036.02L173.937,1034.31C173.967,1033.84 173.463,1033.84 173.463,1033.5C173.463,1033.4 173.382,1032.98 174.907,1032.98C176.114,1032.98 176.359,1033.2 176.359,1033.49C176.359,1034.03 175.818,1033.53 175.782,1034.43L175.782,1035.8C175.782,1036.68 176.115,1037.24 176.9,1037.24C178.07,1037.24 178.018,1036.27 178.018,1036.19L178.018,1034.35Z" style="fill:white;fill-rule:nonzero;"/>
        <path d="M179.965,1034.61C179.965,1033.46 179.402,1033.93 179.402,1033.47C179.402,1033.07 179.979,1033.01 180.276,1033.01C180.579,1033.01 180.883,1033.06 181.187,1033.06C181.66,1033.06 182.141,1033.01 182.622,1033.01C183.46,1033.01 184.43,1033.38 184.43,1034.37C184.43,1034.81 184.215,1035.24 183.801,1035.44C183.734,1035.48 183.682,1035.5 183.682,1035.59C183.682,1035.7 183.778,1035.73 183.867,1035.77C184.385,1035.96 184.616,1036.3 184.718,1037.1C184.807,1037.79 185.289,1037.37 185.289,1037.83C185.289,1038.11 184.949,1038.4 184.112,1038.4C182.926,1038.4 182.778,1037.72 182.55,1036.75C182.467,1036.4 182.342,1036.07 181.935,1036.07C181.771,1036.07 181.712,1036.09 181.712,1036.56C181.712,1036.78 181.728,1037.07 181.765,1037.28C181.824,1037.62 182.201,1037.52 182.201,1037.87C182.201,1038.14 182.016,1038.34 180.817,1038.34C180.462,1038.34 179.409,1038.34 179.409,1037.8C179.409,1037.41 179.965,1037.68 179.965,1036.72L179.965,1034.61ZM181.682,1034.93C181.668,1035.12 181.63,1035.29 181.874,1035.29C182.356,1035.29 182.511,1035.02 182.511,1034.56C182.511,1034.2 182.422,1033.83 181.993,1033.83C181.719,1033.83 181.727,1034 181.712,1034.23L181.682,1034.93Z" style="fill:white;fill-rule:nonzero;"/>
        <path d="M195.108,1034.85C195.193,1034.92 195.42,1035.14 195.549,1035.14C195.727,1035.14 195.734,1034.83 195.734,1034.71C195.734,1034.52 195.725,1034.2 195.67,1034.03C195.569,1033.72 195.193,1033.83 195.193,1033.43C195.193,1032.96 195.919,1032.98 196.217,1032.98C196.529,1032.98 197.305,1032.95 197.306,1033.46C197.306,1033.88 196.929,1033.72 196.807,1034.06C196.715,1034.33 196.715,1034.79 196.715,1035.07L196.715,1036.99C196.715,1037.32 196.758,1038.34 196.282,1038.34C196.139,1038.34 196.019,1038.25 195.912,1038.15L193.713,1036.1C193.615,1036 193.43,1035.83 193.281,1035.83C193.06,1035.83 193.052,1036.31 193.052,1036.46C193.052,1036.67 193.06,1036.94 193.103,1037.14C193.209,1037.61 193.586,1037.43 193.586,1037.8C193.586,1038.29 192.854,1038.34 192.52,1038.34C192.193,1038.34 191.46,1038.29 191.46,1037.81C191.46,1037.42 191.872,1037.58 191.943,1037.1C191.992,1036.78 192.008,1036.32 192.008,1035.98C192.007,1035.45 192.007,1034.91 191.929,1034.38C191.814,1033.63 191.302,1033.92 191.302,1033.48C191.302,1032.95 192.263,1032.98 192.582,1032.98C193.023,1032.98 193.102,1033.01 193.421,1033.31L195.108,1034.85Z" style="fill:white;fill-rule:nonzero;"/>
        <path d="M200.834,1033.07C201.152,1033.07 201.301,1033.04 201.412,1033.01C201.515,1032.98 201.575,1032.96 201.715,1032.96C202.003,1032.96 202.604,1033.53 202.604,1034.33C202.604,1034.7 202.412,1034.95 202.033,1034.95C201.39,1034.95 201.396,1034.07 201.019,1034.07C200.729,1034.07 200.759,1034.47 200.759,1034.53L200.759,1036.81C200.76,1037.69 201.442,1037.26 201.442,1037.78C201.442,1038.01 201.301,1038.34 199.916,1038.34C199.539,1038.34 198.153,1038.35 198.153,1037.78C198.153,1037.39 198.612,1037.55 198.76,1037.26C198.835,1037.11 198.865,1036.66 198.872,1036.48L198.931,1034.84C198.961,1034.07 198.805,1034.07 198.701,1034.07C198.367,1034.07 198.205,1034.95 197.604,1034.95C197.317,1034.95 197.146,1034.68 197.146,1034.41C197.146,1033.78 197.679,1032.96 198.102,1032.96C198.152,1032.96 198.235,1032.98 198.376,1033.01C198.515,1033.04 198.716,1033.07 199.013,1033.07L200.834,1033.07Z" style="fill:white;fill-rule:nonzero;"/>
        <path d="M202.617,1034.69C202.617,1033.92 203.357,1032.96 204.794,1032.96C205.268,1032.96 205.801,1033.18 205.912,1033.18C206.016,1033.18 206.119,1033.09 206.275,1033.09C206.527,1033.09 207.09,1033.63 207.09,1034.26C207.09,1034.51 206.927,1034.76 206.653,1034.76C206.157,1034.76 205.868,1033.92 205.098,1033.92C204.868,1033.92 204.624,1034.02 204.624,1034.29C204.624,1034.87 205.639,1034.72 206.498,1035.29C206.957,1035.59 207.186,1035.96 207.186,1036.52C207.187,1037.38 206.475,1038.36 204.75,1038.36C204.262,1038.36 203.425,1038.23 203.002,1038.01C202.647,1037.81 202.477,1037.02 202.477,1036.64C202.477,1036.44 202.566,1036.24 202.788,1036.24C203.314,1036.24 203.225,1037.42 204.587,1037.42C204.75,1037.42 205.158,1037.34 205.157,1037.06C205.157,1036.52 204.143,1036.66 203.321,1036C202.913,1035.67 202.617,1035.22 202.617,1034.69Z" style="fill:white;fill-rule:nonzero;"/>
        <path d="M224.897,1026.91C224.897,1029.06 225.388,1029.2 225.962,1029.2C227.017,1029.2 227.48,1028.43 227.48,1027.47C227.48,1026.34 226.915,1025.3 225.619,1025.3C225.045,1025.3 224.915,1025.59 224.897,1025.98L224.897,1026.91ZM224.897,1022.39C224.897,1023.11 224.997,1023.28 225.57,1023.28C226.682,1023.28 226.942,1022.64 226.942,1021.62C226.943,1020.79 226.526,1019.8 225.508,1019.8C224.823,1019.8 224.897,1020.36 224.897,1020.89L224.897,1022.39ZM230.285,1023.21C230.118,1023.35 229.952,1023.47 229.952,1023.71C229.952,1023.95 230.155,1024.02 230.34,1024.11C231.099,1024.41 232.505,1025.53 232.508,1027.08C232.514,1029.44 231.174,1031.08 227.452,1031.08C226.193,1031.08 225.156,1030.98 224.008,1030.98C222.731,1030.98 221.471,1031.08 220.194,1031.08C219.62,1031.08 218.972,1030.74 218.972,1030.09C218.972,1028.95 220.316,1030.25 220.427,1027.18L220.49,1021.71C220.601,1018.91 219.009,1020.19 219.009,1018.91C219.009,1018.21 219.768,1017.87 220.342,1017.87C221.712,1017.87 223.082,1018 224.452,1018C225.323,1018 226.174,1017.87 227.045,1017.87C230.433,1017.87 231.489,1019.48 231.489,1020.91C231.489,1021.76 230.951,1022.67 230.285,1023.21Z" style="fill:white;fill-rule:nonzero;"/>
        <path d="M237.824,1026.91C237.824,1029.06 238.316,1029.2 238.89,1029.2C239.945,1029.2 240.407,1028.43 240.407,1027.47C240.407,1026.34 239.842,1025.3 238.546,1025.3C237.972,1025.3 237.843,1025.59 237.824,1025.98L237.824,1026.91ZM237.824,1022.39C237.824,1023.11 237.924,1023.28 238.498,1023.28C239.609,1023.28 239.87,1022.64 239.87,1021.62C239.87,1020.79 239.454,1019.8 238.435,1019.8C237.749,1019.8 237.824,1020.36 237.824,1020.89L237.824,1022.39ZM243.212,1023.21C243.045,1023.35 242.879,1023.47 242.879,1023.71C242.879,1023.95 243.082,1024.02 243.267,1024.11C244.027,1024.41 245.432,1025.53 245.436,1027.08C245.441,1029.44 244.1,1031.08 240.38,1031.08C239.12,1031.08 238.082,1030.98 236.935,1030.98C235.658,1030.98 234.398,1031.08 233.121,1031.08C232.547,1031.08 231.898,1030.74 231.898,1030.09C231.898,1028.95 233.243,1030.25 233.354,1027.18L233.418,1021.71C233.529,1018.91 231.937,1020.19 231.937,1018.91C231.937,1018.21 232.695,1017.87 233.269,1017.87C234.639,1017.87 236.01,1018 237.38,1018C238.249,1018 239.102,1017.87 239.972,1017.87C243.36,1017.87 244.416,1019.48 244.416,1020.91C244.416,1021.76 243.879,1022.67 243.212,1023.21Z" style="fill:white;fill-rule:nonzero;"/>
        <path d="M214.243,1017.98C216.725,1017.98 216.429,1017.68 216.725,1017.68C217.78,1017.68 218.34,1019.42 218.34,1020.24C218.34,1020.85 217.982,1021.5 217.26,1021.48C215.959,1021.46 217.377,1019.84 214.115,1019.89C212.06,1019.92 212.262,1020.17 212.262,1022.29C212.262,1023.37 212.318,1023.4 213.447,1023.4C214.854,1023.4 213.825,1021.65 215.14,1021.65C216.214,1021.65 216.262,1023.44 216.262,1024.16C216.262,1024.92 216.27,1027.07 215.159,1027.07C214.011,1027.07 215.183,1025.27 213.313,1025.27C212.536,1025.27 212.554,1025.97 212.554,1026.57C212.554,1029.27 212.577,1029.05 214.521,1029.07C217.553,1029.1 216.577,1027.02 218.188,1027.02C218.781,1027.02 219.077,1027.69 219.077,1028.21C219.077,1029.47 218.072,1031.24 217.331,1031.24C217.054,1031.24 216.78,1030.96 215.539,1030.96L207.929,1030.96C206.707,1030.96 206.689,1030.4 206.689,1030.16C206.689,1029.14 207.948,1029.96 208.077,1028C208.3,1024.63 208.318,1024.96 208.133,1021.61C208.003,1018.78 206.596,1020.24 206.596,1018.92C206.596,1017.8 208.152,1017.98 208.911,1017.98L214.243,1017.98Z" style="fill:white;fill-rule:nonzero;"/>
        <path d="M127.383,1018.03C129.864,1018.03 129.568,1017.73 129.864,1017.73C130.92,1017.73 131.479,1019.47 131.479,1020.29C131.479,1020.9 131.122,1021.54 130.4,1021.53C129.099,1021.5 130.517,1019.89 127.254,1019.93C125.199,1019.96 125.402,1020.21 125.402,1022.34C125.402,1023.42 125.457,1023.45 126.587,1023.45C127.994,1023.45 126.965,1021.7 128.279,1021.7C129.353,1021.7 129.401,1023.49 129.401,1024.21C129.401,1024.97 129.409,1027.12 128.299,1027.12C127.15,1027.12 128.323,1025.32 126.453,1025.32C125.676,1025.32 125.694,1026.02 125.694,1026.61C125.694,1029.32 125.716,1029.1 127.66,1029.12C130.693,1029.15 129.717,1027.07 131.328,1027.07C131.92,1027.07 132.217,1027.74 132.217,1028.25C132.217,1029.51 131.212,1031.29 130.471,1031.29C130.193,1031.29 129.919,1031.01 128.679,1031.01L121.069,1031.01C119.847,1031.01 119.828,1030.45 119.828,1030.21C119.828,1029.19 121.087,1030.01 121.217,1028.04C121.439,1024.67 121.458,1025.01 121.273,1021.66C121.143,1018.82 119.736,1020.29 119.736,1018.97C119.736,1017.84 121.291,1018.03 122.05,1018.03L127.383,1018.03Z" style="fill:white;fill-rule:nonzero;"/>
        <path d="M178.483,1018.03C180.964,1018.03 180.668,1017.73 180.965,1017.73C182.02,1017.73 182.579,1019.47 182.579,1020.28C182.579,1020.9 182.222,1021.54 181.5,1021.53C180.199,1021.5 181.617,1019.89 178.354,1019.93C176.3,1019.96 176.502,1020.21 176.502,1022.34C176.502,1023.41 176.557,1023.45 177.687,1023.45C179.094,1023.45 178.065,1021.7 179.379,1021.7C180.454,1021.7 180.501,1023.49 180.501,1024.21C180.501,1024.97 180.51,1027.12 179.399,1027.12C178.25,1027.12 179.423,1025.32 177.553,1025.32C176.776,1025.32 176.794,1026.02 176.794,1026.61C176.794,1029.31 176.816,1029.1 178.76,1029.12C181.793,1029.15 180.817,1027.07 182.428,1027.07C183.021,1027.07 183.317,1027.73 183.317,1028.25C183.317,1029.51 182.312,1031.29 181.571,1031.29C181.293,1031.29 181.02,1031.01 179.779,1031.01L172.169,1031.01C170.947,1031.01 170.928,1030.45 170.928,1030.21C170.928,1029.19 172.187,1030.01 172.317,1028.04C172.539,1024.67 172.558,1025.01 172.373,1021.65C172.243,1018.82 170.836,1020.28 170.836,1018.97C170.836,1017.84 172.391,1018.03 173.151,1018.03L178.483,1018.03Z" style="fill:white;fill-rule:nonzero;"/>
        <path d="M247.324,1019.18C247.492,1019.19 247.61,1019.15 247.61,1018.95C247.61,1018.76 247.396,1018.76 247.249,1018.76L246.882,1018.76L246.882,1019.18L247.324,1019.18ZM247.86,1020.05L247.513,1020.05L247.178,1019.41L246.882,1019.41L246.882,1020.05L246.586,1020.05L246.586,1018.53L247.317,1018.53C247.445,1018.53 247.613,1018.54 247.728,1018.61C247.863,1018.7 247.906,1018.84 247.906,1019C247.906,1019.27 247.76,1019.39 247.492,1019.41L247.86,1020.05ZM248.298,1019.28C248.298,1018.65 247.792,1018.15 247.164,1018.15C246.532,1018.15 246.022,1018.65 246.022,1019.28C246.022,1019.92 246.532,1020.42 247.164,1020.42C247.792,1020.42 248.298,1019.92 248.298,1019.28ZM245.758,1019.28C245.758,1018.51 246.386,1017.88 247.164,1017.88C247.934,1017.88 248.562,1018.51 248.562,1019.28C248.562,1020.06 247.934,1020.69 247.164,1020.69C246.386,1020.69 245.758,1020.06 245.758,1019.28Z" style="fill:white;fill-rule:nonzero;"/>
        <path d="M156.045,1033.08C157.035,1033.08 156.917,1032.96 157.035,1032.96C157.456,1032.96 157.679,1033.66 157.679,1033.98C157.679,1034.22 157.536,1034.48 157.248,1034.48C156.729,1034.47 157.295,1033.82 155.994,1033.84C155.174,1033.85 155.255,1033.95 155.255,1034.8C155.255,1035.23 155.276,1035.24 155.727,1035.24C156.288,1035.24 155.878,1034.54 156.403,1034.54C156.831,1034.54 156.85,1035.26 156.85,1035.55C156.85,1035.85 156.853,1036.71 156.41,1036.71C155.952,1036.71 156.42,1035.99 155.674,1035.99C155.364,1035.99 155.371,1036.27 155.371,1036.51C155.371,1037.58 155.38,1037.5 156.155,1037.51C157.365,1037.52 156.976,1036.69 157.619,1036.69C157.855,1036.69 157.973,1036.95 157.973,1037.16C157.973,1037.66 157.572,1038.37 157.277,1038.37C157.166,1038.37 157.057,1038.26 156.562,1038.26L153.526,1038.26C153.038,1038.26 153.031,1038.04 153.031,1037.94C153.031,1037.53 153.533,1037.86 153.585,1037.08C153.674,1035.73 153.681,1035.87 153.607,1034.53C153.556,1033.4 152.994,1033.98 152.994,1033.46C152.994,1033.01 153.615,1033.08 153.917,1033.08L156.045,1033.08Z" style="fill:white;fill-rule:nonzero;"/>
        <path d="M186.585,1035.58C186.815,1035.07 187.118,1034.42 187.118,1033.83C187.118,1033.32 187.147,1032.94 187.806,1032.94C188.451,1032.94 188.857,1033.6 189.147,1034.09C189.272,1034.3 190.391,1036.57 190.658,1037.17C190.902,1037.74 191.302,1037.4 191.302,1037.82C191.302,1038.36 190.458,1038.34 190.088,1038.34C189.029,1038.34 188.393,1038.33 188.393,1037.87C188.392,1037.52 188.844,1037.65 188.844,1037.39C188.844,1037.06 188.659,1037.03 187.467,1037.03C187.081,1037.03 186.852,1037.04 186.852,1037.4C186.852,1037.69 187.326,1037.5 187.326,1037.89C187.326,1038.33 186.526,1038.34 186.23,1038.34C185.171,1038.34 185.075,1038.14 185.075,1037.9C185.075,1037.55 185.475,1037.66 185.689,1037.39C185.852,1037.19 186.008,1036.83 186.119,1036.6L186.585,1035.58ZM188.141,1036.12C188.215,1036.12 188.436,1036.13 188.436,1036.02C188.436,1035.91 188.222,1035.52 188.163,1035.42C188.096,1035.3 187.97,1035.03 187.807,1035.03C187.629,1035.03 187.504,1035.47 187.474,1035.55C187.444,1035.63 187.318,1035.92 187.318,1036.01C187.318,1036.14 187.504,1036.12 187.585,1036.12L188.141,1036.12Z" style="fill:white;fill-rule:nonzero;"/>
    </g>
</svg>
