<?xml version="1.0" encoding="UTF-8" standalone="no"?>
<svg
   xmlns:svg="http://www.w3.org/2000/svg"
   xmlns="http://www.w3.org/2000/svg"
   version="1.1"
   width="538.21204"
   height="184.99992"
   id="svg32658">
  <defs
     id="defs32660" />
  <g
     transform="translate(-117.17968,-436.71936)"
     id="layer1">
    <path
       d="m 655.39173,436.71936 -538.21205,0 0,184.99993 538.21205,-0.15332 0,-184.84661"
       id="path28062"
       style="fill:#e1262d;fill-opacity:1;fill-rule:nonzero;stroke:none" />
    <path
       d="m 610.59483,462.44314 -25.4115,0 0,15.57076 25.4115,0 0,-15.57076 z m -127.91982,0 -25.48815,0 0,15.57076 25.48815,0 0,-15.57076 z m 62.81968,18.84781 -3.66991,0 c -8.62381,0 -16.32775,3.8903 -21.06126,10.0707 l 0,-7.01404 -24.65453,0 0,78.68749 24.80784,0 0,-53.88924 c 0,-7.39731 5.79711,-13.43397 12.97404,-13.43397 7.17692,0 12.97405,6.03666 12.97405,13.43397 l 0.0766,53.88924 24.80784,0 -0.0766,-56.85966 c 0,-13.89392 -11.75713,-24.88449 -26.17806,-24.88449 m -128.45647,0 -3.58366,0 c -8.62382,0 -16.32775,3.8903 -21.13793,10.0707 l 0,-7.01404 -24.57786,0 0,78.68749 24.80783,0 0,-53.88924 c 0,-7.39731 5.79712,-13.43397 12.97404,-13.43397 7.16736,0 12.97405,6.03666 12.97405,13.43397 l 0.0766,53.88924 24.79825,0 -0.0766,-56.85966 c 0,-13.89392 -11.74755,-24.88449 -26.25472,-24.88449 m -97.45865,0.30662 c -21.98114,0 -33.49871,10.37733 -33.49871,24.27124 l 0,0.75699 21.5212,-0.15331 0.0766,-0.9103 c 0,-6.75532 6.52535,-11.26844 11.55591,-11.26844 l 1.41814,0.1245 c 3.81364,0.61325 6.41036,2.82669 7.7806,6.48702 2.90335,8.39384 -12.66742,11.75713 -12.66742,11.75713 -23.42803,7.93391 -33.12503,11.67089 -37.47525,22.89142 -2.67339,6.94696 -0.98695,15.64744 2.82668,20.4576 5.25095,7.60813 11.91045,9.47661 21.92365,9.47661 l 1.88765,-0.0191 c 9.08375,-0.15331 17.93754,-4.12026 24.04128,-11.22054 l 0,8.6334 24.3479,0 0,-57.62623 c 0,-13.58729 -8.25013,-23.12139 -32.89505,-23.58133 l -0.84323,-0.0766 m -5.49048,67.77357 c -6.11333,0 -11.06723,-4.88683 -11.06723,-10.91391 0,-1.67685 0.38328,-3.20997 1.14025,-4.65685 0,0 2.8267,-6.64033 11.45051,-9.0071 0,0 5.72047,-1.44687 10.14735,-4.27357 l 1.59062,-1.13068 c 0.46952,0 0.94862,0.42162 1.23609,1.74393 0,0 -0.0766,8.62381 0,14.95752 0.0766,9.5341 -9.69701,12.13082 -9.69701,12.13082 -1.44688,0.76656 -3.12373,1.14984 -4.80058,1.14984 M 176.94171,481.59759 c -22.13445,0 -31.52482,19.15445 -31.52482,42.65912 0,23.65799 10.99056,42.74536 31.52482,42.74536 7.39732,0 15.18749,-2.75004 20.83129,-7.4069 0,0 0.15331,2.98001 0.15331,7.25359 0,4.27357 -3.20997,14.26761 -12.82072,14.26761 -9.697,0 -11.52716,-7.62727 -11.52716,-7.62727 l -23.65799,0 c 0,0 -1.37024,23.12138 35.18515,23.12138 36.63203,0 37.24528,-28.77477 37.24528,-32.2818 l -0.15332,-3.96695 -0.15331,-76.01411 -25.0378,0 0,4.72394 c -5.72045,-4.72394 -12.66741,-7.47397 -20.06473,-7.47397 m 7.16734,68.99049 c -6.8703,-1.52355 -12.28414,-8.70047 -12.20747,-26.71464 0.0766,-21.82783 5.33717,-25.10488 12.28413,-26.62843 7.5602,0 13.7406,6.41038 13.7406,14.19096 l 0,24.96115 c 0,10.45398 -6.41036,14.19096 -13.81726,14.19096 m 92.78264,-67.62984 c -1.48521,0 -4.81975,0.0575 -7.68477,0.39286 -4.5802,0.61325 -8.39385,4.42689 -8.39385,4.42689 l 0,-3.58368 -25.18153,0 0,78.98454 25.64146,0 0,-53.34306 c 0,-4.04362 3.96697,-5.42343 7.47398,-5.42343 3.43994,0 8.93044,1.83016 8.93044,1.83016 l 0,-23.2747 -0.78573,-0.01 m 348.89064,0.3162 c -5.8067,0 -10.5306,4.73353 -10.5306,10.53064 0,5.8067 4.7239,10.45398 10.5306,10.45398 l 0.5366,-0.01 c 5.548,-0.27789 9.9941,-4.81977 9.9941,-10.4444 0,-5.79712 -4.7336,-10.53064 -10.5307,-10.53064 m 0,1.14985 0,0 c 5.1072,0 9.3042,4.19692 9.3042,9.38079 0,5.1168 -4.197,9.31371 -9.3042,9.31371 -5.1934,0 -9.3137,-4.19691 -9.3137,-9.31371 0,-5.18387 4.1203,-9.38079 9.3137,-9.38079 m -15.1108,0.0671 -25.4882,0 0,78.53418 25.4882,0 0,-78.53418 z m -128.14985,0 -25.5648,0 0,78.53418 25.5648,0 0,-78.53418 z m 144.55425,3.89987 -5.0401,0 0,10.7606 1.3798,0 0,-4.5802 3.507,0 c 0.939,0 1.3415,0.39287 1.5523,0.97737 l 0.2012,0.92946 c 0.23,1.07317 0,2.2901 0.4599,2.67337 l 1.5332,0 0.077,0 c -0.6133,-0.76656 -0.5366,-1.90682 -0.6899,-2.98 -0.077,-1.06361 -0.3067,-1.90682 -1.6098,-2.21345 1.3031,-0.38327 1.9164,-1.44688 1.9164,-2.75003 0,-1.75352 -1.3032,-2.81712 -3.2867,-2.81712 m -3.6603,1.21692 0,0 3.5837,0 c 1.3031,0 1.9068,0.76656 1.9068,1.83016 0,1.60979 -1.1402,1.90682 -2.5201,1.90682 l -2.9704,0 0,-3.73698"
       id="path28068"
       style="fill:#ffffff;fill-opacity:1;fill-rule:nonzero;stroke:none" />
  </g>
</svg>
