<?xml version="1.0" encoding="utf-8"?>
<!-- Generator: Adobe Illustrator 21.0.2, SVG Export Plug-In . SVG Version: 6.00 Build 0)  -->
<svg version="1.1" id="Layer_1" xmlns="http://www.w3.org/2000/svg" xmlns:xlink="http://www.w3.org/1999/xlink" x="0px" y="0px"
	 viewBox="0 0 165 85" style="enable-background:new 0 0 165 85;" xml:space="preserve">
<style type="text/css">
	.st0{fill:url(#XMLID_7_);}
	.st1{fill:url(#XMLID_8_);}
	.st2{fill:#005130;}
	.st3{fill:#FFFFFF;}
</style>
<g id="XMLID_1_">
	<g id="XMLID_29_">
		
			<linearGradient id="XMLID_7_" gradientUnits="userSpaceOnUse" x1="143.8985" y1="74.679" x2="25.3673" y2="2.3273" gradientTransform="matrix(1 0 0 -1 0 87.2)">
			<stop  offset="0" style="stop-color:#008A30"/>
			<stop  offset="1" style="stop-color:#78C58B"/>
		</linearGradient>
		<path id="XMLID_32_" class="st0" d="M141.2,12.1c10.3,8.1,11.6,17.6,12.1,23.8c1.3,16.4-8.1,37-41.2,44.5
			c-31.6,7-67.9,2.2-83.8-4.2c-15.9-6.5-18.2-14.8-15.8-22.3c4.5-13.8,24.1-32.8,51-43.7C63.5,10.2,111.3-11.6,141.2,12.1z"/>
		
			<linearGradient id="XMLID_8_" gradientUnits="userSpaceOnUse" x1="71.7708" y1="3.5466" x2="98.8163" y2="104.4819" gradientTransform="matrix(1 0 0 -1 0 87.2)">
			<stop  offset="0" style="stop-color:#008A30"/>
			<stop  offset="1" style="stop-color:#92D1A0"/>
		</linearGradient>
		<path id="XMLID_30_" class="st1" d="M137.2,12.7c9.8,7.5,11.1,16.2,11.5,22c1.3,15.1-7.7,34.2-39.3,41.1
			c-30,6.5-64.6,2.1-79.8-3.9c-15.1-5.9-17.3-13.6-15-20.5C18.9,38.6,37.5,21.1,63.2,11C63.2,11,108.7-9.1,137.2,12.7z"/>
	</g>
	<g id="XMLID_2_">
		<g id="XMLID_3_">
			<path id="XMLID_26_" class="st2" d="M73.4,31.8L73.4,31.8L73.4,31.8L73.4,31.8z M161.8,33.1c-1.6-1.3-3.7-1.6-4.9-1.7l0,0
				c-0.4,0-0.9-0.1-1.2-0.1c-2.1,0-4.4,0.6-6.3,1.9c0.2-0.7,0.3-1.1,0.3-1.4l0.1-0.4c0.5-2,0.8-3.2,0.5-4.6c-0.2-0.8-0.6-1.5-1.1-2
				c-0.8-0.9-2-1.4-3.3-1.6c0,0-0.8-0.1-1.3,0c-0.8,0.1-1.4,0.2-2,0.4c-0.1,0-0.1,0-0.2,0.1l-1,0.4l0,0c-0.6,0.2-1.1,0.6-1.4,1.1
				c-0.5,0.8-0.4,1.9,0.2,2.7c0,0.1,0.1,0.2,0,0.5c-0.1,0.4-0.3,1.6-0.6,3.2c-3.1,0.2-5.9,1.2-8.1,2.9c0.3-1.1,0.5-2,0.6-2.3
				l0.1-0.4c0.5-2,0.8-3.2,0.5-4.6c-0.2-0.8-0.6-1.4-1.1-2c-0.8-0.9-2-1.4-3.3-1.6c0,0-0.8-0.1-1.3,0c-0.8,0.1-1.4,0.2-2,0.4
				c-0.1,0-0.1,0-0.2,0.1l-1,0.4l0,0c-0.6,0.2-1,0.6-1.4,1.1c-0.5,0.8-0.4,1.9,0.2,2.7c0,0.1,0.1,0.2,0,0.5
				c-0.1,0.5-0.4,2.2-0.8,4.2c-1.1-0.8-2.5-1.3-4.1-1.4c-0.4,0-0.9-0.1-1.3-0.1c-3.2,0-6,1.5-8.1,3.6c-0.2-0.7-0.5-1.3-1.1-1.8
				c-0.4-0.4-0.8-0.7-1.4-1c0.9-1.1,1.4-2.6,1.2-4.2c-0.3-2.7-2.8-4.6-6.2-4.9c-0.2,0-0.4,0-0.7,0c-5.5-0.2-10,3.2-11.4,8.6
				l-0.2,0.8c-0.6,0.2-1.1,0.6-1.5,1c-0.8-0.8-2.1-1.6-4.1-1.8l0,0c-0.4,0-0.8-0.1-1.3-0.1c-1.6,0-3.3,0.4-4.8,1
				c-0.7-0.5-1.6-0.7-2.5-0.8c-0.2,0-0.5,0-0.7,0c-0.9,0-1.7,0.2-2.4,0.4h-0.1l-1.2,0.2c-0.4,0.1-0.7,0.3-0.9,0.6
				c-1.1-0.8-2.5-1.4-4.2-1.5c-0.5-0.1-0.9-0.1-1.3-0.1c-3.2,0-6,1.5-8.2,3.6c-0.2-0.3-0.4-0.7-0.7-1c-1.2-1.4-3-2.3-5.3-2.5
				c-0.4-0.1-0.9-0.1-1.3-0.1c-2.4,0-4.6,0.9-6.5,2.2c-0.1-0.1-0.2-0.3-0.3-0.4c-0.5-0.6-1.4-1.3-2.9-1.4c-0.2,0-0.5,0-0.7,0
				c-1.4,0-2.7,0.5-3.8,1.1c-0.8-0.6-1.7-0.9-2.7-1c-0.2,0-0.5,0-0.7,0c-0.3,0-0.6,0-0.9,0.1c0-0.1,0-0.2,0.1-0.4c0,0,0,0,0-0.1
				c0.1-1-0.1-3.5-3.4-5c-1.6-0.7-3.4-1-4.6-1.2c-0.6-0.1-1.2-0.1-1.7-0.1c-4.2,0-8.2,1.7-11.6,4.8c-2.9,2.7-5,6.4-5.9,10.1
				c-0.2,0.7-0.3,1.4-0.4,2.1c-0.3,3.2,0.4,6.1,2,8.3c1.8,2.5,4.7,4,8.3,4.4l0,0c0.6,0.1,1.2,0.1,1.8,0.1c0.8,0,2-0.1,3.2-0.2
				c1.2-0.1,2.6-0.2,3.5-0.2c0.1,0,0.2,0,0.3,0c0.1,0,0.1,0,0.1,0s0,0,0.1,0l0.8,0.1c0.1,0,0.1,0,0.2,0h0.1c0.8,0.1,1.6-0.2,2.1-0.8
				c0.7,0.5,1.5,0.8,2.4,0.9l0,0c0.2,0,0.4,0,0.7,0c0.8,0,1.5-0.1,2.1-0.3c0.2,0,0.4-0.1,0.6-0.1l0.7-0.1c0.7-0.1,1.2-0.5,1.6-1
				c0.4-0.5,0.5-1.2,0.4-1.8l-0.1-0.9c0-0.1,0-0.4,0-0.8c0-0.4,0.1-0.9,0.2-1.6c1.4,3.5,4.8,6.2,9.1,6.6c1.4,0.1,2.7,0,3.9-0.3
				c1.3-0.3,2.5-0.8,3.4-1.5c0.8-0.6,1.6-1.2,2.2-2c0.1,0.1,0.2,0.2,0.2,0.3c1.4,1.9,3.6,3.1,6.1,3.4l0,0c0.3,0,0.7,0.1,1.1,0.1
				c2.2-0.1,4.1-0.7,5.5-1.6c0.3,0.4,0.7,0.7,1.2,0.9l1,0.3c0.1,0,0.1,0,0.2,0.1c0.6,0.1,1.3,0.3,2,0.3c0.3,0,0.5,0,0.8,0
				c2.3,0.1,5-1.3,5.7-4.7c0-0.1,0-0.2,0.1-0.3c0,1.3,0.6,2.6,1.5,3.5c0.9,0.8,2,1.3,3.3,1.4c0.2,0,0.4,0,0.6,0c0.4,0,0.8,0,1.2-0.1
				c-0.5,1-0.9,1.5-1.1,1.6c-0.4,0.3-0.8,0.7-1,0.9c-0.5,0.4-0.8,1-0.9,1.7c-0.1,1.3,0.8,2.5,2.2,2.7c0.3,0.1,0.6,0.1,0.9,0.1
				c1.9,0.2,3.4-0.1,3.8-0.2c0.3-0.1,0.5-0.1,0.8-0.2c2.1-0.5,4.6-2.5,5.6-5.3c0-0.1,0-0.1,0.1-0.2c0.3-1,0.9-3.5,1.4-5.1
				c0.2,1.5,1.3,2.7,2.8,3.2c0.8,0.3,1.7,0.5,2.5,0.5l0,0c0.3,0,0.7,0,0.8,0c1.3,0.1,2.3,0,3.6-0.4c0.3-0.1,0.6-0.3,0.9-0.4
				c0.5-0.3,0.9-0.8,1.1-1.4c1.4,1.3,3.2,2.2,5.2,2.4l0,0c0.3,0,0.7,0.1,1.2,0.1c2.6-0.1,4.6-0.9,6.2-2.1c0.1,0.2,0.3,0.5,0.4,0.7
				c0.7,0.9,1.8,1.5,3.1,1.6l0,0c0.3,0,0.8,0,0.8,0c1.5,0.1,2.6-0.1,4.1-0.7c0.6-0.2,1-0.6,1.3-1.2c1.1,0.9,2.5,1.5,4,1.6l0,0
				c0.3,0,0.6,0,1,0c1.7,0,3.1-0.4,4.3-0.9c0.6,0.4,1.4,0.7,2.2,0.8l0,0c0.2,0,0.7,0,0.8,0c1.4,0.1,2.7-0.2,4.1-0.7
				c0.3-0.1,0.7-0.4,0.9-0.6c0.2,0.1,0.4,0.2,0.5,0.2c1.4,0.6,2.8,0.9,3.8,1l0,0c0.4,0,0.8,0.1,1.2,0.1l0,0c4.1,0,9-2.3,10.3-7.4
				c0.1-0.4,0.1-0.8,0.2-1.1c0.2-2.2-0.5-3.9-1.6-5.1c1.7-1,2.9-2.6,3.2-4l0,0c0-0.2,0.1-0.4,0.1-0.6
				C163.3,35.2,162.8,33.9,161.8,33.1z"/>
			<g id="XMLID_4_">
				<path id="G_1_" class="st3" d="M25.1,28.7c-1.1-0.5-2.5-0.8-3.9-0.9c-0.5-0.1-1-0.1-1.5-0.1c-7.8,0.1-13.6,6.6-15,13
					c-0.1,0.6-0.2,1.2-0.3,1.8c-0.2,2.4,0.2,4.8,1.5,6.6s3.5,3.1,6.6,3.4l0,0c0.5,0.1,1,0.1,1.6,0.1c1.6,0,4.9-0.5,6.8-0.5
					c0.2,0,0.4,0,0.5,0c0.2,0,0.4,0.1,0.4,0.1l0.8,0.1h0.1l0.1-0.6v-0.2c0,0,0.3-1.7,0.6-2.6c0.4-1.7,1.1-3.9,1.5-5.6
					c0-0.2,0.1-0.3,0.1-0.5c0.1-0.7-0.2-1.5-0.7-1.9s-1.1-0.6-1.7-0.7c-0.2,0-0.4,0-0.6,0c-0.5,0-1.5,0.1-2.5,0.4l0,0l0,0
					c0.3,0.5,0.4,1.2,0.3,1.5c-0.1,1-0.5,2.6-0.8,4.1c-0.2,0.8-0.5,1.8-0.7,2.6c-1,0.3-2,0.4-3,0.4c-0.2,0-0.5,0-0.7,0
					c-1.8-0.2-3-1.1-3.7-2.4c-0.8-1.4-1-3.3-0.8-5.3c0.1-0.6,0.2-1.2,0.3-1.8c1.4-5.9,5.1-8.5,8.3-8.5l0,0c0.2,0,0.4,0,0.6,0
					c1.9,0.2,3.5,1.3,4.4,3.4l0.2,0.4H24c1.8-0.6,2.9-2.3,3.2-3.3c0-0.1,0-0.2,0-0.3C27.2,30,26.2,29.2,25.1,28.7z"/>
				<path id="r_1_" class="st3" d="M38.1,39.6c0.8-0.9,1.3-1.9,1.6-2.9c0-0.2,0.1-0.4,0.1-0.5c0-0.4,0-0.8-0.3-1.2s-0.8-0.5-1.3-0.6
					c-0.1,0-0.3,0-0.4,0l0,0c-1.4,0-3.1,0.9-4.5,2c-0.1-0.4-0.2-0.8-0.4-1c-0.4-0.5-1.2-0.8-1.8-0.9c-0.2,0-0.3,0-0.5,0
					c-0.6,0-1.2,0.2-1.8,0.3l-1,0.3l0,0l0,0c0.5,0.6,0.6,1.4,0.6,2.3c-0.4,1.1-0.7,3.1-1.4,6.1c-0.4,1.7-1,3.6-1.5,5.6
					c-0.1,0.3-0.1,0.6-0.1,0.8c-0.1,0.7,0,1.3,0.4,1.8s0.9,0.7,1.4,0.7l0,0c0.1,0,0.3,0,0.4,0c0.8,0,1.6-0.2,2.4-0.3l0.7-0.1
					l-0.2-1.1c0-0.2,0-0.6,0-1.3c0.1-1.1,0.4-2.8,1-5.6c0.4-1.7,0.9-3.2,1.6-4.2c0.7-1,1.4-1.4,2.3-1.4h0.2
					C36.4,38.5,37.5,38.8,38.1,39.6L38.1,39.6L38.1,39.6z"/>
				<path id="e_3_" class="st3" d="M51.2,46.5c0,0-0.9,0.8-2,1.3c-1,0.4-2.3,0.7-3.4,0.7c-0.2,0-0.3,0-0.5,0c-2-0.2-2.7-1.5-2.6-4.2
					c0-0.2,0-0.4,0.1-0.6c0.5,0.2,1.3,0.5,2.2,0.6c0.2,0,0.4,0,0.7,0c2.9,0,6.9-1.2,7.8-4.9c0-0.2,0.1-0.4,0.1-0.7
					c0.1-1.1-0.1-2.2-0.9-3.1c-0.8-0.9-2-1.5-3.6-1.7c-0.3,0-0.7-0.1-1,0l0,0c-5.2,0.1-9.2,4.9-10.3,9.6c-0.1,0.5-0.2,1-0.2,1.4
					c-0.2,2,0.2,3.8,1.2,5.1s2.5,2.2,4.4,2.4l0,0c0.3,0,0.5,0,0.8,0C49,52.3,50.9,48.7,51.2,46.5L51.2,46.5z M44.8,38.7
					c0.8-1.1,1.8-1.9,2.5-1.8c0.1,0,0.1,0,0.2,0c0.5,0.1,0.6,0.2,0.8,0.4c0.1,0.2,0.2,0.7,0.2,1.2c0,0.2,0,0.4-0.1,0.6l0,0
					c-0.4,1.6-1.7,2.2-2.9,2.2c-0.2,0-0.4,0-0.5,0c-0.5,0-1-0.2-1.3-0.3l0,0C43.7,40.4,44.2,39.5,44.8,38.7z"/>
				<path id="e_2_" class="st3" d="M66.6,46.5c0,0-0.9,0.8-2,1.3c-1,0.4-2.3,0.7-3.4,0.7c-0.2,0-0.3,0-0.5,0c-2-0.2-2.7-1.5-2.6-4.2
					c0-0.2,0-0.4,0.1-0.6c0.5,0.2,1.3,0.5,2.2,0.6c0.2,0,0.4,0,0.7,0c2.9,0,6.9-1.2,7.8-4.9c0-0.2,0.1-0.4,0.1-0.7
					c0.1-1.1-0.1-2.2-0.9-3.1c-0.8-0.9-2-1.5-3.6-1.7c-0.3,0-0.7-0.1-1,0l0,0c-5.1,0.1-9.1,4.8-10.2,9.5c-0.1,0.5-0.2,1-0.2,1.4
					c-0.2,2,0.2,3.8,1.2,5.1s2.5,2.2,4.4,2.4l0,0c0.3,0,0.6,0,0.8,0C64.4,52.2,66.3,48.7,66.6,46.5L66.6,46.5z M60.3,38.7
					c0.8-1.1,1.8-1.8,2.5-1.8c0.1,0,0.1,0,0.2,0c0.5,0.1,0.6,0.2,0.8,0.4c0.1,0.3,0.1,0.7,0.1,1.2c0,0.2-0.1,0.4-0.1,0.6l0,0
					c-0.4,1.6-1.7,2.2-2.9,2.2c-0.2,0-0.4,0-0.5,0c-0.5,0-1-0.2-1.3-0.3l0,0C59.2,40.4,59.7,39.5,60.3,38.7z"/>
				<path id="n_1_" class="st3" d="M85.1,50.1L85.1,50.1c-0.6,0.3-1.3,0.1-1.5-0.4c-0.1-0.1-0.2-0.4-0.1-0.8c0-0.4,0.3-1.6,0.4-2.1
					c0.6-2.7,1.3-4.9,1.8-7.2c0.1-0.5,0.2-1,0.3-1.4c0.1-0.9,0-1.8-0.5-2.6c-0.6-0.8-1.6-1.3-2.9-1.4c-0.3,0-0.6,0-1,0
					c-1.8,0-3.8,0.6-5.3,1.7c-0.1-0.3-0.3-0.6-0.5-0.8c-0.4-0.4-1-0.6-1.7-0.7c-0.1,0-0.3,0-0.5,0c-0.6,0-1.2,0.2-1.8,0.3l-1,0.3
					l0,0c0.5,0.5,0.6,1.4,0.5,2c0,0.4-0.1,1-0.2,1.6c-0.3,1.5-0.6,3.2-1,4.8c-0.7,2.8-1.2,4.8-1.7,6c-0.2,0.6-0.5,1.2-0.6,1.4
					c-0.3,0.5-0.8,1-0.8,1l1,0.3c0.5,0.1,1.1,0.2,1.7,0.3c0.2,0,0.4,0,0.6,0c1.3,0.1,2.8-0.8,3.2-2.7c0.7-3.1,1.1-5.3,1.8-8.1
					c0.6-2.7,2.9-4.1,4.2-4c0.1,0,0.3,0,0.4,0c0.6,0.1,0.8,0.2,0.9,0.4s0.2,0.6,0.1,1.2c0,0.5-0.2,1.1-0.3,1.8
					c-0.8,3.3-1.3,5.2-1.9,8c0,0.2-0.1,0.4-0.1,0.5c-0.1,0.9,0.2,1.7,0.7,2.1c0.5,0.5,1.2,0.7,1.8,0.8c0.2,0,0.3,0,0.5,0
					C83.2,52.4,84.5,51.4,85.1,50.1z"/>
				<path id="f_1_" class="st3" d="M104.1,30.8L104.1,30.8L104.1,30.8L104.1,30.8z M105.2,28.1c-0.2-1.7-2.1-2.7-4.6-2.8
					c-4.1-0.2-7.8,2.1-8.9,6.8l-0.6,2.3c-1.1,0.1-1.7,0.5-2,0.8c-0.5,0.6-0.8,1.5-1,2.6l0,0c0.7-0.2,2.1-0.1,2.1-0.1L86.9,51l-1,3.4
					c-0.3,0.8-1,2.6-2.1,3.6c-0.5,0.5-1.2,1-1.2,1l0,0c1.7,0.3,3.3,0.2,3.9,0c0.2-0.1,0.5-0.1,0.7-0.2c1.3-0.3,3.2-1.7,3.9-3.7
					c0.6-2.4,1-4.2,1.5-6.2l0.3-1c0-0.2,0.1-0.4,0.1-0.5l0,0l2.4-9.7c0.2,0,0.5,0,0.8,0c1.2-0.1,2.5-0.8,2.9-2.5
					c0.1-0.4,0.2-0.8,0.2-1.3l0,0c-1,0.2-2.1,0.2-3.1,0.3l0,0c0.3-1.8,0.8-3.3,1.3-4c0.8-1,1.7-1.4,3.2-1.4c1.2,0,2.7,0.3,3.2,2
					C104.9,30.2,105.3,29.1,105.2,28.1z"/>
				<path id="i_1_" class="st3" d="M106,35.9c-0.1-0.4-0.2-0.7-0.5-0.9c-0.4-0.5-1.1-0.7-1.8-0.8c-0.2,0-0.6,0-0.8,0
					c-0.6,0.1-1,0.1-1.6,0.3l-1,0.3l0,0l0,0c0.4,0.6,0.6,1.5,0.4,2.4c-0.2,1.2-0.4,2.7-1.2,5.7c-0.4,1.7-1.2,3.8-1.7,5.8
					c-0.1,0.3-0.1,0.7-0.2,0.9c-0.1,0.7,0,1.4,0.4,1.8c0.4,0.5,0.9,0.7,1.4,0.7l0,0c0.1,0,0.5,0,0.6,0c1.1,0.1,2-0.1,3.1-0.5l0,0
					v0.1c-0.4-0.5-0.4-1.4-0.3-2.3c0.1-1.1,0.5-2.8,1.2-5.5c0.4-1.7,0.8-3.1,1.2-4.3C105.9,37.5,106.2,36.6,106,35.9z"/>
				<path id="e_1_" class="st3" d="M119.5,46.4c0,0-0.9,0.8-2,1.3c-1,0.4-2.3,0.7-3.4,0.7c-0.2,0-0.3,0-0.5,0
					c-2-0.2-2.7-1.5-2.6-4.2c0-0.2,0-0.4,0.1-0.6c0.5,0.2,1.3,0.5,2.2,0.6c0.2,0,0.4,0,0.7,0c2.9,0,6.9-1.2,7.8-4.9
					c0.1-0.2,0.1-0.4,0.1-0.7c0.1-1.1-0.1-2.2-0.9-3.1c-0.8-0.9-2-1.5-3.6-1.7c-0.3,0-0.7,0-1,0l0,0c-5.1,0.1-9.1,4.8-10.2,9.5
					c-0.1,0.5-0.2,1-0.2,1.4c-0.2,2,0.2,3.8,1.2,5.1s2.5,2.2,4.4,2.4l0,0c0.3,0,0.6,0,0.8,0C117.2,52.2,119.2,48.7,119.5,46.4
					L119.5,46.4z M113.1,38.6c0.8-1.1,1.8-1.8,2.5-1.8c0.1,0,0.1,0,0.2,0c0.5,0.1,0.6,0.2,0.8,0.4c0.1,0.3,0.2,0.7,0.2,1.2
					c0,0.2,0,0.4-0.1,0.6l0,0c-0.4,1.6-1.7,2.2-2.9,2.2c-0.2,0-0.4,0-0.5,0c-0.5,0-1-0.2-1.3-0.3l0,0
					C112,40.3,112.5,39.4,113.1,38.6z"/>
				<path id="l_1_" class="st3" d="M130.2,27.8c-0.1-0.4-0.2-0.7-0.5-0.9c-0.4-0.5-1.2-0.7-1.8-0.8c-0.2,0-0.6,0-0.8,0
					c-0.6,0.1-1,0.1-1.6,0.3l-1,0.4l0,0l0,0c0.5,0.6,0.6,1.5,0.5,2.4c-0.2,1.2-1.6,8-2.3,11c-0.4,1.7-1.7,7-2.1,8.9
					c-0.1,0.3-0.1,0.7-0.2,0.9c-0.1,0.7,0.1,1.4,0.4,1.8c0.4,0.5,0.9,0.7,1.4,0.7l0,0c0.1,0,0.5,0,0.6,0c1.1,0,2-0.1,3.1-0.6l0,0
					c-0.4-0.5-0.4-1.4-0.3-2.3c0.1-1.1,1-5.9,1.6-8.7c0.4-1.7,2-8.4,2.3-9.5C130.1,29.5,130.4,28.6,130.2,27.8z"/>
				<path id="d_1_" class="st3" d="M147.9,27.5c-0.1-0.4-0.2-0.7-0.5-0.9c-0.4-0.5-1.2-0.7-1.8-0.8c-0.2,0-0.6,0-0.8,0
					c-0.6,0.1-1,0.1-1.6,0.3l-1,0.4l0,0l0,0c0.5,0.6,0.6,1.5,0.5,2.4c-0.1,0.6-0.4,2.3-0.9,4.3c-0.1,0.3-0.2,0.7-0.2,1
					c-0.1,0-0.1,0-0.2,0c-0.3,0-0.6-0.1-1-0.1c-6.6,0-10.9,4.4-12.2,10.1c-0.1,0.5-0.2,1.1-0.3,1.6c-0.2,1.8,0.1,3.3,0.9,4.5
					s2.1,2,3.6,2.1l0,0c0.2,0,0.5,0,0.7,0c2.3,0,3.9-0.9,4.9-1.7c0.1,0.3,0.2,0.6,0.4,0.9c0.4,0.5,0.9,0.7,1.4,0.7l0,0
					c0.1,0,0.5,0,0.6,0c1.1,0.1,2-0.1,3.1-0.6l0,0c-0.4-0.5-0.4-1.4-0.4-2.3c0.1-1.1,1-5.9,1.6-8.7c0.4-1.7,2-8.4,2.3-9.5
					C147.8,29.2,148.1,28.3,147.9,27.5z M135,48.9c-0.1,0-0.2,0-0.2,0c-0.7-0.1-1-0.4-1.2-1.1c-0.2-0.7-0.3-1.6-0.2-2.6
					c0.1-0.6,0.2-1.1,0.3-1.6c0.8-3.4,3.2-6.7,6-6.6c0.2,0,0.5,0,0.7,0l0,0c0.3,0,0.5,0.1,0.5,0.1l0,0c0,0,0,0,0,0.1l-0.7,3
					c-0.3,1.1-0.7,2.8-1,3.9C138.6,46.3,137.1,48.9,135,48.9z"/>
				<path id="XMLID_5_" class="st3" d="M157.6,39.3L157.6,39.3L157.6,39.3L157.6,39.3z M160.7,36.4c0-0.1,0-0.1,0-0.2
					c0.1-0.5-0.2-1-0.5-1.3c-0.9-0.8-2.4-1-3.6-1.2c-0.4,0-0.7-0.1-1-0.1c-3.2,0-6.8,1.8-7.6,5.4c-0.1,0.3-0.1,0.5-0.1,0.7
					c-0.3,2.8,1.8,4.2,3.5,5c0.9,0.5,1.7,0.8,2.2,1.2s0.7,0.7,0.7,1.1c0,0.1,0,0.1,0,0.2c-0.2,0.8-0.8,1.6-2.6,1.7
					c-0.2,0-0.4,0-0.5,0c-1.2-0.1-2-0.6-2.5-1.1c-0.3-0.2-0.5-0.5-0.6-0.6c-0.1-0.2-0.2-0.2-0.2-0.2l-0.2-0.4l0,0
					c-0.7,0.1-1.5,0.9-1.8,1.6c-0.1,0.3-0.3,0.8-0.4,1.2c0,0.4,0.1,0.8,0.4,1.1c0.2,0.2,0.7,0.6,1.1,0.8c0.9,0.4,2,0.7,3,0.8
					c0.3,0,0.6,0,0.9,0c3.2,0,7-1.8,7.9-5.5c0.1-0.3,0.1-0.5,0.1-0.8c0.3-2.9-1.8-4.3-3.6-5.1c-0.9-0.4-1.7-0.8-2.3-1.2
					c-0.5-0.4-0.7-0.6-0.7-1v-0.1c0.2-1.1,1.3-1.9,2.3-1.9c0.1,0,0.2,0,0.2,0c0.8,0.1,1.4,0.6,1.8,1.1c0.2,0.3,0.4,0.5,0.5,0.7
					s0.1,0.3,0.1,0.3l0.2,0.5C159.2,38.8,160.4,37.4,160.7,36.4z"/>
			</g>
		</g>
	</g>
</g>
</svg>
