<?xml version="1.0" encoding="UTF-8" standalone="no"?>
<!DOCTYPE svg PUBLIC "-//W3C//DTD SVG 1.1//EN" "http://www.w3.org/Graphics/SVG/1.1/DTD/svg11.dtd">
<svg xmlns="http://www.w3.org/2000/svg" version="1.1" viewBox="0.00 0.00 1567.00 598.00">
<path fill="#625e5e" d="
  M 64.99 89.96
  C 50.89 99.76 31.81 102.58 19.05 88.84
  C -2.21 65.97 1.94 1.59 44.23 3.26
  C 59.09 3.85 78.73 9.16 79.17 27.27
  Q 79.24 30.11 78.46 32.06
  Q 78.26 32.55 77.75 32.68
  C 70.05 34.51 62.89 33.05 57.24 27.55
  C 54.72 25.09 52.51 21.85 48.84 21.09
  C 19.24 14.97 28.28 71.93 41.93 80.35
  A 2.92 2.89 52.2 0 0 44.30 80.66
  C 48.96 79.25 61.03 77.07 62.57 72.26
  C 64.31 66.79 53.12 63.08 49.42 61.33
  C 41.71 57.70 43.85 46.34 53.25 46.64
  Q 66.89 47.07 80.39 48.00
  A 1.50 1.50 0.0 0 1 81.79 49.44
  Q 82.62 70.48 83.18 91.95
  C 83.22 93.16 82.86 94.44 82.70 95.69
  A 1.06 1.06 0.0 0 1 82.20 96.47
  C 78.25 98.92 69.53 91.97 65.94 89.92
  Q 65.45 89.64 64.99 89.96
  Z"
/>
<path fill="#625e5e" d="
  M 250.96 121.81
  C 247.57 122.23 238.04 123.44 238.04 118.19
  Q 238.07 77.95 236.97 37.74
  C 236.83 32.62 236.22 28.53 242.76 27.80
  A 1.79 1.79 0.0 0 1 243.75 27.97
  Q 252.64 32.29 260.48 30.99
  C 270.98 29.25 282.13 26.68 291.74 32.99
  C 294.33 34.69 295.53 36.26 296.22 39.46
  C 298.97 52.39 304.76 94.58 282.25 96.72
  C 273.88 97.52 265.40 93.26 257.92 89.76
  A 0.87 0.87 0.0 0 0 256.68 90.49
  Q 255.80 104.11 255.96 118.00
  C 256.00 121.45 253.89 121.45 250.96 121.81
  Z
  M 268.06 41.90
  C 264.90 41.89 258.06 43.97 258.03 48.32
  Q 257.95 61.04 258.02 73.77
  C 258.07 82.62 266.33 86.93 273.68 83.05
  C 281.57 78.89 279.25 63.99 278.95 56.80
  C 278.64 49.29 277.72 41.90 268.06 41.90
  Z"
/>
<path fill="#625e5e" d="
  M 457.06 62.92
  A 34.98 34.98 0.0 0 1 422.08 97.90
  A 34.98 34.98 0.0 0 1 387.10 62.92
  A 34.98 34.98 0.0 0 1 422.08 27.94
  A 34.98 34.98 0.0 0 1 457.06 62.92
  Z
  M 423.2648 84.0730
  A 21.05 12.94 87.7 0 0 435.3496 62.5207
  A 21.05 12.94 87.7 0 0 421.5752 42.0070
  A 21.05 12.94 87.7 0 0 409.4904 63.5593
  A 21.05 12.94 87.7 0 0 423.2648 84.0730
  Z"
/>
<path fill="#625e5e" d="
  M 313.87 34.18
  C 313.34 27.71 322.33 28.61 326.10 29.03
  Q 331.58 29.64 335.78 32.80
  A 2.74 2.72 -39.1 0 0 338.58 33.08
  Q 341.76 31.58 345.48 30.12
  C 383.83 15.05 387.38 103.68 348.10 97.11
  Q 342.41 96.16 337.12 93.10
  A 1.85 1.84 -63.9 0 0 334.48 94.01
  C 333.04 97.55 334.43 106.67 334.76 110.67
  Q 335.06 114.34 334.52 117.41
  A 2.10 2.09 -1.5 0 1 332.92 119.09
  C 328.26 120.14 320.30 121.77 315.61 120.40
  Q 315.08 120.25 314.84 119.75
  Q 314.00 117.97 314.00 115.50
  Q 314.00 75.67 314.00 35.84
  Q 314.00 35.73 313.87 34.18
  Z
  M 350.17 44.19
  L 338.96 43.94
  A 5.37 5.37 0.0 0 0 333.47 49.18
  L 333.01 69.48
  A 14.53 10.28 -88.7 0 0 342.95 84.24
  L 344.35 84.27
  A 14.53 10.28 -88.7 0 0 354.96 69.98
  L 355.42 49.68
  A 5.37 5.37 0.0 0 0 350.17 44.19
  Z"
/>
<path fill="#625e5e" d="
  M 124.68 33.62
  C 128.66 31.98 138.52 25.68 141.20 31.16
  C 142.83 34.50 139.50 41.52 137.66 44.34
  C 134.70 48.88 129.34 51.61 124.41 53.76
  A 2.25 2.24 -10.1 0 0 123.08 55.66
  Q 121.94 72.71 121.24 90.25
  C 121.07 94.31 120.83 97.10 116.16 98.13
  C 104.68 100.67 101.02 92.33 101.02 82.89
  Q 101.01 58.82 100.97 34.75
  Q 100.96 30.28 103.98 28.97
  C 107.26 27.55 119.85 32.51 123.73 33.67
  A 1.47 1.43 -47.4 0 0 124.68 33.62
  Z"
/>
<path fill="#625e5e" d="
  M 187.07 90.94
  C 183.83 92.99 180.73 95.72 177.23 96.70
  C 171.58 98.27 155.03 97.78 155.05 88.50
  Q 155.10 72.28 153.80 39.00
  C 153.58 33.21 157.89 29.40 163.39 28.69
  C 167.64 28.14 174.03 28.57 176.16 32.97
  Q 177.04 34.80 176.67 39.21
  Q 175.40 54.48 175.07 69.78
  C 174.92 76.22 174.52 80.62 180.56 83.17
  C 187.53 86.10 193.89 78.92 193.91 72.26
  Q 193.96 51.99 192.93 31.77
  A 1.03 1.02 -17.5 0 1 193.41 30.85
  C 196.67 28.78 209.52 28.13 212.79 29.73
  Q 215.09 30.86 215.10 34.18
  C 215.11 53.74 216.01 73.55 212.81 92.91
  C 212.60 94.18 211.68 95.71 211.19 96.95
  A 1.56 1.50 84.2 0 1 210.65 97.64
  Q 208.94 98.85 207.51 98.33
  Q 197.75 94.73 188.10 90.85
  Q 187.56 90.63 187.07 90.94
  Z"
/>
<path fill="#625e5e" d="
  M 7.02 167.94
  C 30.91 168.40 54.88 169.36 78.69 168.93
  Q 123.00 168.13 167.32 167.27
  C 216.29 166.33 266.70 167.14 320.25 168.35
  Q 333.71 168.65 339.00 169.02
  C 428.40 175.38 487.67 251.55 474.10 340.07
  Q 472.70 349.22 470.67 358.41
  A 1.36 1.35 12.5 0 0 471.71 360.03
  Q 474.26 360.57 475.84 357.72
  Q 527.95 263.47 580.43 169.43
  C 581.31 167.86 584.35 168.22 585.82 168.18
  Q 648.82 166.69 721.25 167.08
  C 724.68 167.09 726.23 168.00 727.94 171.09
  Q 842.08 377.65 956.20 584.23
  Q 956.43 584.64 956.83 584.86
  Q 960.52 586.91 960.08 591.33
  A 0.75 0.73 -87.0 0 1 959.35 592.00
  C 915.79 591.94 872.09 591.52 828.50 592.94
  C 821.98 593.15 816.00 592.47 812.72 586.38
  Q 795.42 554.26 789.37 543.42
  C 786.01 537.39 781.18 535.97 774.11 535.98
  C 693.78 536.15 617.53 534.66 533.00 535.13
  Q 521.85 535.19 516.82 544.55
  Q 504.76 566.98 492.71 589.45
  Q 491.27 592.15 488.50 592.14
  Q 418.91 592.01 349.13 591.97
  Q 348.15 591.97 347.37 590.74
  Q 346.86 589.92 347.67 588.48
  Q 391.88 509.81 436.15 430.83
  A 1.33 1.32 -53.3 0 0 435.92 429.23
  Q 434.96 428.28 433.40 429.44
  Q 428.35 433.21 423.45 437.18
  C 391.49 463.06 356.20 470.95 315.68 470.97
  Q 220.04 471.03 125.09 470.99
  A 2.09 2.09 0.0 0 0 123.00 473.08
  Q 123.00 530.66 122.99 588.74
  Q 122.99 589.18 122.89 589.62
  Q 122.70 590.38 122.69 590.48
  Q 122.46 591.99 121.00 591.99
  L 5.25 592.00
  A 2.13 2.13 0.0 0 1 3.12 589.89
  Q 2.54 522.40 3.77 454.68
  C 4.98 388.24 4.01 321.53 4.02 255.05
  C 4.03 227.64 4.99 200.21 5.01 172.78
  C 5.01 171.72 5.32 170.63 5.30 169.66
  A 1.68 1.68 0.0 0 1 7.02 167.94
  Z
  M 243.44 343.53
  C 270.65 344.16 297.98 344.40 325.20 343.52
  C 334.77 343.21 341.81 341.75 346.89 334.02
  C 354.00 323.19 350.50 307.84 342.44 298.09
  C 340.52 295.76 338.06 293.04 335.44 293.04
  Q 235.95 292.88 136.47 293.12
  C 131.78 293.13 123.52 291.50 123.07 298.56
  Q 121.73 319.78 124.86 340.82
  Q 125.11 342.46 125.61 343.48
  A 0.98 0.97 75.7 0 0 126.51 344.02
  Q 184.98 342.19 243.44 343.53
  Z
  M 652.68 300.82
  L 582.16 429.16
  A 1.25 1.24 -75.7 0 0 583.25 431.00
  Q 651.78 431.01 721.02 430.99
  C 722.12 430.99 723.56 430.65 724.65 430.58
  A 1.69 1.68 -16.6 0 0 726.01 428.07
  Q 693.52 370.49 661.20 312.86
  Q 657.62 306.48 653.79 300.77
  A 0.65 0.65 0.0 0 0 652.68 300.82
  Z"
/>
<path fill="#625e5e" d="
  M 1083.28 353.73
  A 1.30 1.30 0.0 0 0 1081.02 354.59
  Q 1080.81 397.69 1081.75 440.06
  C 1082.86 490.44 1082.01 541.09 1082.00 591.50
  A 0.51 0.50 0.0 0 1 1081.49 592.00
  L 965.00 592.00
  A 1.00 1.00 0.0 0 1 964.00 591.00
  L 964.01 169.58
  A 1.43 1.42 90.0 0 1 965.43 168.15
  C 1012.80 167.99 1059.00 166.56 1107.81 167.10
  Q 1108.36 167.11 1108.68 167.54
  L 1262.25 370.95
  A 0.92 0.92 0.0 0 0 1263.68 371.00
  Q 1266.54 367.68 1269.22 363.96
  Q 1339.83 265.75 1410.33 167.47
  A 1.16 1.13 17.6 0 1 1411.26 167.00
  L 1557.97 167.00
  A 2.03 2.03 0.0 0 1 1560.00 169.03
  L 1560.00 591.50
  A 0.50 0.50 0.0 0 1 1559.50 592.00
  L 1441.27 592.00
  A 2.26 2.26 0.0 0 1 1439.01 589.74
  Q 1438.99 471.50 1439.00 354.50
  Q 1439.00 352.58 1438.43 350.33
  A 0.55 0.54 -22.7 0 0 1437.62 350.00
  Q 1436.40 350.75 1435.29 352.30
  Q 1350.52 471.01 1265.71 589.70
  C 1263.22 593.19 1260.79 590.27 1259.17 588.11
  Q 1173.77 473.56 1087.91 359.37
  Q 1085.55 356.23 1083.28 353.73
  Z"
/>
</svg>
