<?xml version="1.0" encoding="UTF-8" standalone="no"?>
<!-- Created with Inkscape (http://www.inkscape.org/) -->

<svg
   xmlns:dc="http://purl.org/dc/elements/1.1/"
   xmlns:cc="http://creativecommons.org/ns#"
   xmlns:rdf="http://www.w3.org/1999/02/22-rdf-syntax-ns#"
   xmlns:svg="http://www.w3.org/2000/svg"
   xmlns="http://www.w3.org/2000/svg"
   xmlns:sodipodi="http://sodipodi.sourceforge.net/DTD/sodipodi-0.dtd"
   xmlns:inkscape="http://www.inkscape.org/namespaces/inkscape"
   version="1.1"
   id="svg1131"
   width="160"
   height="100.32498"
   viewBox="0 0 160 100.32498"
   sodipodi:docname="Hagoromo Foods company logo.svg"
   inkscape:version="0.92.1 r15371">
  <metadata
     id="metadata1137">
    <rdf:RDF>
      <cc:Work
         rdf:about="">
        <dc:format>image/svg+xml</dc:format>
        <dc:type
           rdf:resource="http://purl.org/dc/dcmitype/StillImage" />
        <dc:title></dc:title>
      </cc:Work>
    </rdf:RDF>
  </metadata>
  <defs
     id="defs1135" />
  <sodipodi:namedview
     pagecolor="#ffffff"
     bordercolor="#666666"
     borderopacity="1"
     objecttolerance="10"
     gridtolerance="10"
     guidetolerance="10"
     inkscape:pageopacity="0"
     inkscape:pageshadow="2"
     inkscape:window-width="1280"
     inkscape:window-height="972"
     id="namedview1133"
     showgrid="false"
     fit-margin-top="5"
     fit-margin-bottom="5"
     fit-margin-right="5"
     fit-margin-left="5"
     inkscape:zoom="1"
     inkscape:cx="30.155674"
     inkscape:cy="8.5170404"
     inkscape:window-x="-8"
     inkscape:window-y="-8"
     inkscape:window-maximized="1"
     inkscape:current-layer="svg1131" />
  <path
     style="fill:#2347a3;fill-opacity:1;fill-rule:nonzero;stroke:none;stroke-width:1.52538347"
     d="m 148.3736,28.955195 c -0.0953,0.721005 -0.3337,2.145102 -0.53627,2.848194 -0.12512,0.446891 -0.36346,0.923569 -0.61968,1.316813 -0.26217,0.399104 -0.61372,0.810392 -0.97123,1.126185 -0.30985,0.274126 -0.71504,0.518376 -1.08446,0.703109 -0.48264,0.238234 -1.01296,0.488606 -1.53732,0.613738 -0.89971,0.202888 -3.27122,0.613739 -4.36759,0.750748 -0.57203,0.07127 -1.18574,0.03465 -1.75775,0 -0.25027,-0.01749 -0.56607,-0.06581 -0.79846,-0.160836 -0.36944,-0.154732 -0.78057,-0.381367 -1.10232,-0.62566 -0.32175,-0.250351 -0.69715,-0.566058 -0.90569,-0.911661 -0.26217,-0.434976 -0.46476,-0.995062 -0.55418,-1.489641 -0.0953,-0.577977 -0.20257,-1.85908 -0.19063,-2.728998 0.0298,-1.733922 0.19665,-4.778759 0.33965,-6.894025 0.0537,-0.846109 0.17875,-1.811373 0.30389,-2.56809 0.0298,-0.208338 0.14909,-0.428941 0.23236,-0.625679 0.19069,-0.452842 0.32776,-0.989089 0.61969,-1.388328 0.32775,-0.446871 0.95935,-1.090407 1.50156,-1.5075 0.39922,-0.297921 0.92359,-0.536284 1.40028,-0.697177 0.72692,-0.244316 1.51939,-0.393477 2.27614,-0.530295 0.76267,-0.137105 1.55517,-0.220508 2.32978,-0.303988 0.36939,-0.04317 0.75076,-0.05364 1.12618,-0.07131 0.2145,-0.01712 0.44091,-0.04754 0.64946,-0.04317 0.33964,0.01712 0.74481,0.01712 1.06658,0.11942 0.42304,0.137104 0.88781,0.381382 1.25723,0.631591 0.24431,0.166961 0.5065,0.434988 0.67928,0.679285 0.2443,0.34548 0.47667,0.774592 0.62565,1.173829 0.13101,0.333785 0.20267,0.73289 0.23835,1.090407 0.0656,0.667342 0.0952,1.370453 0.0774,2.043766 -0.0536,1.91269 -0.24432,7.037024 -0.29791,7.448185 m -17.2738,7.93077 c -0.0171,0.14317 -0.28597,0.363649 -0.40518,0.434997 -0.15498,0.101127 -0.42306,0.154732 -0.59585,0.184587 -0.54819,0.09567 -1.12617,0.178482 -1.67436,0.226575 -0.2741,0.02594 -0.6018,0.03465 -0.87589,0 -0.13102,-0.01749 -0.33964,-0.101126 -0.4469,-0.178482 -0.18463,-0.137086 -0.43495,-0.351535 -0.54818,-0.554116 -0.16088,-0.274127 -0.28005,-0.655448 -0.3277,-0.965315 -0.0656,-0.381367 -0.0598,-0.816299 -0.0415,-1.19762 0.11314,-3.30106 0.40518,-8.890122 0.44689,-10.695563 0.005,-0.25641 -0.0415,-0.434987 -0.16088,-0.661389 -0.0895,-0.173045 -0.17285,-0.232641 -0.33964,-0.339851 -0.15498,-0.101164 -0.24431,-0.160875 -0.43496,-0.154789 -0.50646,0.01331 -1.23344,0.148894 -1.87692,0.256408 -0.22645,0.04317 -0.44693,-0.01331 -0.56012,0.125125 -0.10115,0.119419 -0.11315,0.422894 -0.13102,0.703111 -0.15498,2.711146 -0.41116,9.664736 -0.59585,12.918097 -0.0238,0.405142 -0.14299,1.030822 -0.25623,1.281086 -0.0835,0.178692 -0.39327,0.375308 -0.58394,0.42288 -0.39327,0.101107 -1.75779,0.327757 -2.25233,0.351533 -0.3039,0.01312 -0.69119,-0.09523 -0.97721,-0.208334 -0.16087,-0.06581 -0.39324,-0.250374 -0.4886,-0.399107 -0.17284,-0.274147 -0.38131,-0.655427 -0.41111,-0.977213 -0.0415,-0.434932 -0.0656,-2.425119 -0.0415,-3.485732 0.0238,-1.263173 0.37542,-9.76601 0.36347,-9.819654 -0.0298,-0.08349 -0.1428,0.0039 -0.29195,0.02585 -0.72099,0.0774 -2.7171,0.345462 -2.89585,0.38743 -0.11314,0.02585 -0.12512,0.04317 -0.1371,0.154789 -0.0415,0.5839 -0.64949,13.823745 -0.69713,14.395794 -0.0114,0.124878 -0.14301,0.357592 -0.24432,0.428939 -0.20258,0.148837 -0.5184,0.297925 -0.7627,0.345474 -0.66138,0.137066 -1.53134,0.244316 -2.28211,0.310019 -0.34561,0.03029 -0.82228,0.0475 -1.13807,-0.01749 -0.11923,-0.01749 -0.31582,-0.238257 -0.36347,-0.351532 -0.0952,-0.208336 -0.16088,-0.518397 -0.17875,-0.750814 -0.0299,-0.446875 -0.0171,-0.923539 0,-1.370455 0.0536,-1.44793 0.57202,-14.282572 0.67331,-16.08206 0.0115,-0.184645 0.0894,-0.435007 0.17874,-0.595844 0.0537,-0.113333 0.22048,-0.274131 0.32771,-0.333823 0.1371,-0.0774 0.35749,-0.149084 0.51243,-0.178559 0.85805,-0.149082 16.80306,-2.359562 17.26185,-2.359562 0.44094,0 0.94741,0.01331 1.3645,0.124934 0.30388,0.0774 0.64949,0.285828 0.89376,0.482622 0.2503,0.196796 0.50649,0.488613 0.67929,0.750785 0.26817,0.422874 0.53628,0.929551 0.69717,1.40027 0.11314,0.333784 0.20852,0.744813 0.23237,1.096358 0.0238,0.393038 -0.56607,14.55671 -0.61374,14.872479 M 106.47299,35.27299 c -0.0536,0.679246 -0.20855,1.388327 -0.38133,2.049726 -0.10136,0.387402 -0.29195,0.786507 -0.45881,1.149984 -0.0835,0.184586 -0.19661,0.399104 -0.31582,0.554158 -0.29192,0.369257 -0.60178,0.804386 -0.97717,1.084439 -0.49455,0.393047 -1.10828,0.7329 -1.69222,0.971243 -0.61967,0.250351 -1.32278,0.393048 -1.97822,0.530317 -0.63756,0.137066 -1.310877,0.226576 -1.960363,0.303982 -0.744813,0.08346 -1.513472,0.173025 -2.264236,0.190683 -0.47669,0.0044 -1.006984,-0.01312 -1.4658,-0.119419 -0.37541,-0.08346 -0.804408,-0.262031 -1.114251,-0.482636 -0.36347,-0.250349 -0.732891,-0.625636 -0.98911,-0.98314 -0.262171,-0.357591 -0.500517,-0.82227 -0.62564,-1.251296 -0.166769,-0.566079 -0.256239,-1.215535 -0.274094,-1.805454 -0.02376,-0.744797 0.08348,-2.079493 0.113144,-3.116289 0.0114,-0.297923 -0.01711,-0.601794 0,-0.899717 0.101357,-1.543289 0.232373,-3.771756 0.375392,-5.023056 0.08349,-0.732909 0.244314,-1.501567 0.458813,-2.204679 0.137105,-0.446871 0.375411,-0.911676 0.613737,-1.316809 0.166769,-0.268085 0.399219,-0.55416 0.62564,-0.780561 0.309844,-0.310016 0.673314,-0.643536 1.042734,-0.887813 0.375411,-0.244315 0.816331,-0.470757 1.239377,-0.619708 0.583938,-0.202898 1.221502,-0.357592 1.829268,-0.458832 0.840158,-0.137105 2.109319,-0.244278 3.146119,-0.36925 0.17285,-0.02586 0.35749,-0.07131 0.53626,-0.0774 0.50052,-0.01712 1.04871,-0.0774 1.54325,0 0.44094,0.07131 0.94741,0.250343 1.33471,0.470699 0.38729,0.220507 0.7925,0.566101 1.06658,0.911657 0.26814,0.327759 0.47668,0.780601 0.63161,1.173868 0.12512,0.310016 0.19664,0.685198 0.23832,1.018888 0.0656,0.542218 0.13122,1.120186 0.11315,1.668375 -0.0656,2.091438 -0.25624,6.232632 -0.41113,8.318096 M 91.457536,26.692785 c -0.02377,0.232202 -0.13102,0.572035 -0.262152,0.762725 -0.08938,0.137105 -0.345613,0.297902 -0.500536,0.333786 -0.446872,0.09546 -3.140125,0.494583 -3.587016,0.595842 -0.2145,0.04754 -0.33369,0.107249 -0.470737,0.274132 -0.137104,0.166959 -0.160875,0.297922 -0.184644,0.506526 -0.05363,0.583881 -0.524343,11.255616 -0.667342,13.436443 -0.01141,0.178483 -0.07151,0.482638 -0.196663,0.619689 -0.160873,0.178692 -0.494564,0.351532 -0.726937,0.405165 -0.560093,0.119419 -1.817344,0.285806 -2.663473,0.381366 -0.250269,0.03029 -0.589891,0.0475 -0.834188,-0.01312 -0.137104,-0.03029 -0.411104,-0.220517 -0.452844,-0.357591 -0.05952,-0.214438 -0.148894,-0.989134 -0.137105,-1.436031 0.05361,-2.282118 0.226442,-6.268378 0.339643,-9.051003 0.05364,-1.430043 0.142999,-3.479762 0.22047,-4.641687 0.02376,-0.327757 0.04772,-0.709081 0.160874,-1.012955 0.190691,-0.524381 0.476689,-1.078484 0.768659,-1.549221 0.196605,-0.303988 0.47667,-0.62564 0.750764,-0.863966 0.286037,-0.250363 0.661409,-0.512459 1.018907,-0.667362 0.476689,-0.208337 1.024878,-0.363639 1.537299,-0.464766 0.869956,-0.173043 2.061661,-0.321709 3.086519,-0.446871 0.369441,-0.04754 0.792485,-0.10725 1.161925,-0.0774 0.262153,0.02585 0.601813,0.124935 0.828236,0.250362 0.172854,0.09566 0.351526,0.315644 0.476669,0.464786 0.06561,0.08957 0.148895,0.250344 0.17875,0.357593 0.0656,0.244296 0.142999,0.542218 0.160875,0.798438 0.02985,0.446891 0.04772,0.947369 -0.0058,1.394298 M 78.319278,37.804585 c -0.04772,0.822272 -0.113144,1.662454 -0.226441,2.478774 -0.05953,0.411201 -0.160874,0.85803 -0.309845,1.239354 -0.196623,0.494578 -0.464765,1.030823 -0.77461,1.46582 -0.232374,0.333816 -0.583938,0.637557 -0.893783,0.899719 -0.202575,0.173026 -0.464766,0.345475 -0.703111,0.464788 -0.536266,0.280185 -1.102329,0.601796 -1.680298,0.76866 -0.691187,0.190683 -2.127187,0.440904 -3.16994,0.601797 -0.816314,0.124877 -1.751798,0.232196 -2.496629,0.268089 -0.351528,0.01312 -0.744813,-0.0475 -1.090408,-0.11942 -0.303873,-0.0656 -0.655437,-0.178482 -0.941443,-0.31564 -0.244315,-0.113315 -0.506488,-0.303961 -0.715034,-0.476664 -0.202577,-0.166922 -0.434969,-0.381367 -0.589891,-0.58992 -0.208605,-0.280185 -0.423046,-0.625659 -0.55416,-0.947401 -0.142998,-0.357592 -0.262151,-0.780559 -0.309843,-1.167855 -0.08937,-0.65547 -0.131019,-1.346636 -0.119231,-2.014006 0.04772,-2.002044 0.214499,-5.970456 0.339643,-7.966564 0.04145,-0.679284 0.113144,-1.406241 0.303873,-2.061641 0.166769,-0.55416 0.440939,-1.155955 0.780582,-1.626673 0.405189,-0.55416 0.95336,-1.090444 1.501556,-1.507519 0.399217,-0.297922 0.923561,-0.524381 1.394298,-0.69714 0.554141,-0.2029 1.167858,-0.357593 1.751798,-0.458815 0.852081,-0.148894 3.253365,-0.446872 3.38444,-0.446872 0.720986,-0.02586 1.567096,-0.0658 2.216582,0 0.291951,0.02586 0.631612,0.178559 0.881861,0.321691 0.37541,0.208338 0.804408,0.476708 1.10233,0.780582 0.29792,0.315663 0.560092,0.750765 0.744812,1.13806 0.148894,0.310015 0.256238,0.691188 0.315814,1.018945 0.101357,0.554103 0.202596,1.155955 0.190692,1.716028 -0.02985,1.823316 -0.208546,5.011134 -0.333671,7.233672 m -16.391916,-7.18598 c -0.04145,1.608798 -0.572035,15.283655 -0.715034,17.279749 -0.04145,0.601798 -0.190672,1.251297 -0.381362,1.82927 -0.160874,0.500487 -0.429016,1.006964 -0.691189,1.459851 -0.184644,0.321698 -0.446891,0.637559 -0.691188,0.923543 -0.339661,0.399103 -0.715034,0.822268 -1.102328,1.179771 -0.250269,0.226576 -0.560093,0.458815 -0.852083,0.619705 -0.601795,0.339439 -1.257231,0.679295 -1.906717,0.917639 -0.577988,0.208335 -1.215551,0.351529 -1.823317,0.452825 -1.388328,0.232193 -4.874066,0.720974 -5.577177,0.786526 -0.232373,0.02596 -0.542217,-0.101111 -0.750783,-0.202454 -0.208528,-0.10111 -0.470718,-0.291864 -0.62564,-0.464765 -0.113145,-0.124859 -0.232356,-0.363649 -0.268124,-0.524368 -0.08349,-0.393044 -0.11923,-0.852079 -0.11923,-1.251252 0,-0.405163 0.01712,-0.88187 0.125124,-1.269206 0.04772,-0.190685 0.244297,-0.452848 0.393268,-0.572005 0.148893,-0.124877 0.417074,-0.2322 0.601794,-0.268091 0.947426,-0.178484 3.175913,-0.500487 4.570212,-0.75075 0.452843,-0.07735 0.88184,-0.130962 1.316829,-0.291862 0.393247,-0.143171 0.726937,-0.315663 1.066579,-0.566057 0.327701,-0.238259 0.572016,-0.482636 0.810361,-0.810391 0.178749,-0.244296 0.256219,-0.488609 0.345613,-0.768618 0.131209,-0.393048 0.244296,-0.750815 0.29195,-1.161928 0.07759,-0.715051 0.554141,-13.853583 0.536265,-14.085955 -0.01712,-0.14317 -0.05953,-0.160836 -0.184643,-0.232611 -0.190691,-0.113315 -0.303893,-0.16694 -0.524363,-0.154732 -0.530294,0.03465 -1.108281,0.166921 -1.686268,0.327757 -0.286016,0.08346 -0.518371,0.178483 -0.768639,0.351533 -0.291951,0.190683 -0.51244,0.381367 -0.732909,0.655427 -0.172853,0.220517 -0.303874,0.399106 -0.339623,0.679292 -0.07151,0.595823 -0.309863,7.686494 -0.297921,8.03212 0.0058,0.107212 0.04772,0.137067 0.119229,0.226576 0.09527,0.124877 0.137104,0.196786 0.274094,0.280185 0.13121,0.08346 0.208528,0.107212 0.36944,0.124877 0.357499,0.02594 0.703093,-0.0536 1.066561,-0.04315 0.214517,0.01312 0.51839,0.03029 0.709081,0.130981 0.250269,0.130962 0.524343,0.405142 0.709045,0.619666 0.10725,0.130962 0.208547,0.345474 0.256238,0.506498 0.08938,0.268089 0.202576,0.601797 0.202576,0.881851 0,0.524324 -0.101357,1.120214 -0.196642,1.632639 -0.01712,0.113316 -0.113145,0.291866 -0.184644,0.375309 -0.09527,0.107216 -0.280066,0.291865 -0.417094,0.321698 -0.369421,0.08957 -1.596875,0.291865 -2.371485,0.393484 -0.470718,0.0597 -0.971235,0.113315 -1.447924,0.113315 -0.470718,0 -1.006984,-0.0044 -1.471751,-0.119419 -0.399199,-0.101107 -0.834148,-0.327757 -1.179742,-0.54823 -0.268143,-0.173025 -0.54819,-0.440948 -0.756736,-0.67929 -0.131019,-0.149066 -0.262173,-0.387425 -0.327719,-0.577977 -0.160874,-0.458817 -0.3277,-0.983163 -0.387296,-1.465799 -0.0656,-0.446874 0.256238,-9.301288 0.36944,-9.998426 0.113144,-0.661398 0.280065,-1.370434 0.536266,-1.990123 0.22047,-0.512425 0.572016,-1.030816 0.929532,-1.465823 0.458815,-0.55416 1.012936,-1.090407 1.555173,-1.561106 0.36944,-0.315644 0.792486,-0.661428 1.239377,-0.852081 0.542218,-0.232621 1.787565,-0.661409 2.657502,-0.834206 1.120206,-0.220508 3.128221,-0.428941 4.504646,-0.601795 0.297921,-0.03461 0.62566,-0.07739 0.92358,-0.07739 0.226403,0 0.518392,0.01331 0.726939,0.08347 0.285979,0.09546 0.631611,0.268085 0.863985,0.452844 0.166768,0.137104 0.333671,0.393057 0.423046,0.589871 0.113144,0.23264 0.208546,0.548189 0.244296,0.804427 0.05361,0.369269 0.04772,0.780563 0.04145,1.155955 m -17.3689,17.583642 c -0.01712,0.173025 -0.08938,0.428916 -0.172854,0.589854 -0.05953,0.113316 -0.22047,0.25641 -0.315814,0.327757 -0.08938,0.06581 -0.25624,0.160836 -0.363471,0.178692 -0.852061,0.14317 -8.026132,1.120194 -8.800743,1.167877 -0.369439,0.02594 -0.810359,-0.01749 -1.173828,-0.113314 -0.417075,-0.119421 -0.905687,-0.310016 -1.263204,-0.560129 -0.29195,-0.196785 -0.560093,-0.548188 -0.762687,-0.834171 -0.137105,-0.208332 -0.274095,-0.49455 -0.32772,-0.732895 -0.09527,-0.464788 0.0058,-5.797641 0.07151,-6.506723 0.03593,-0.387423 0.172853,-0.810349 0.309862,-1.167853 0.113145,-0.291865 0.280046,-0.63163 0.47667,-0.869973 0.345614,-0.428939 0.750784,-0.89972 1.203628,-1.203614 0.500516,-0.339416 1.126156,-0.595825 1.698172,-0.780538 0.530315,-0.166921 1.138079,-0.244313 1.686268,-0.303981 0.399219,-0.04315 0.863985,-0.03465 1.263204,0.0044 0.10725,0.0044 0.286037,0.107211 0.375411,0.178483 0.172854,0.14317 0.393267,0.351532 0.530314,0.536245 0.101357,0.130981 0.208547,0.339872 0.256219,0.500548 0.06561,0.220517 0.13102,0.512426 0.11923,0.732899 -0.01141,0.458773 -0.08349,0.983141 -0.196643,1.424088 -0.04146,0.154732 -0.196663,0.405142 -0.321748,0.500483 -0.172854,0.124877 -0.47669,0.220539 -0.685236,0.26809 -0.268123,0.05361 -0.554141,0.0044 -0.816312,0.07127 -0.262153,0.05971 -0.446892,0.137066 -0.679285,0.268089 -0.10725,0.05971 -0.148894,0.08957 -0.202575,0.196785 -0.10725,0.208334 -0.160875,0.369273 -0.196606,0.601818 -0.0656,0.393048 -0.05953,0.762689 -0.07151,1.161881 -0.0114,0.399084 -0.07151,0.744843 -0.0058,1.138085 0.02376,0.184587 0.02376,0.280207 0.17875,0.369273 0.238324,0.137066 0.47667,0.160836 0.780563,0.148837 0.464765,-0.02594 1.972284,-0.256408 2.210611,-0.315663 0.154979,-0.03465 0.22644,-0.07736 0.244296,-0.238233 0.02985,-0.255995 0.137104,-3.277202 0.202595,-4.772791 0.05953,-1.328746 0.196642,-3.718104 0.190672,-4.26032 0,-0.250351 -0.05363,-0.399106 -0.184644,-0.607767 -0.07759,-0.130981 -0.160874,-0.130981 -0.297922,-0.202888 -0.137105,-0.07127 -0.22644,-0.124877 -0.381324,-0.130981 -0.548171,-0.01749 -1.054657,0.01749 -1.596875,0.07736 -0.923581,0.101126 -2.740924,0.422882 -3.664506,0.524368 -0.36944,0.04315 -0.91761,0.02594 -1.209578,-0.01312 -0.08938,-0.01749 -0.250269,-0.196784 -0.291952,-0.274125 -0.0774,-0.16694 -0.160873,-0.422882 -0.178749,-0.60182 -0.03594,-0.446918 -0.03594,-0.953372 0,-1.400247 0.01712,-0.202885 0.08938,-0.452845 0.160875,-0.643528 0.0774,-0.208336 0.190691,-0.476668 0.327719,-0.655436 0.15498,-0.190672 0.405189,-0.411199 0.619688,-0.536285 0.351546,-0.190691 0.780581,-0.393476 1.17383,-0.470738 1.042752,-0.208337 3.485756,-0.524362 5.029007,-0.750764 0.345613,-0.05363 0.703111,-0.10725 1.048704,-0.154789 0.387297,-0.04336 0.798438,-0.10725 1.185733,-0.10725 0.363489,0 0.780563,0.03024 1.13808,0.11942 0.286037,0.07131 0.631612,0.232202 0.881879,0.399104 0.22047,0.148894 0.470718,0.393039 0.613718,0.613699 0.22047,0.345461 0.434969,0.7806 0.55414,1.179762 0.143,0.482693 0.268124,1.030879 0.268124,1.543305 0,1.161881 -0.577968,13.811872 -0.637563,14.383878 m -15.980715,2.162934 c -0.01217,0.184586 -0.0834,0.452847 -0.17873,0.607771 -0.09535,0.143171 -0.327712,0.363649 -0.500521,0.411195 -0.381328,0.101132 -3.730038,0.500508 -4.236512,0.464749 -0.113202,-0.01312 -0.291954,-0.113316 -0.375404,-0.184586 -0.154922,-0.119421 -0.381329,-0.303964 -0.470726,-0.476669 -0.125125,-0.22657 -0.256232,-0.566032 -0.256232,-0.822268 0,-1.197641 0.160892,-4.93961 0.22644,-7.126387 0.0061,-0.226574 0,-0.446874 0,-0.667348 -0.01179,-0.512446 0.04152,-1.334716 0.02376,-1.388326 -0.02984,-0.09502 -0.166827,0.0044 -0.32771,0.02594 -0.715023,0.07125 -2.520458,0.280185 -3.37253,0.411201 -0.303883,0.04315 -0.554139,0.05361 -0.798442,0.178692 -0.119154,0.05971 -0.113201,0.101126 -0.119154,0.226575 -0.0536,0.852061 -0.691175,13.370907 -0.744802,13.966771 -0.01768,0.130962 -0.142999,0.351535 -0.244302,0.428943 -0.172798,0.14317 -0.464761,0.303983 -0.679268,0.345474 -0.560106,0.11942 -2.335745,0.363649 -3.18186,0.464744 -0.202583,0.02594 -0.46476,0.03465 -0.655437,-0.0045 -0.214502,-0.04752 -0.52435,-0.166922 -0.691188,-0.303985 -0.160893,-0.137066 -0.405193,-0.619665 -0.405193,-0.619665 l 1.084453,-25.365394 c 0,0 0.214502,-0.464766 0.357501,-0.583939 0.166827,-0.137104 0.476685,-0.23823 0.685231,-0.268066 0.703109,-0.124934 2.621753,-0.375335 3.187817,-0.417265 0.280059,-0.02586 0.667353,0.01331 0.917611,0.13102 0.238335,0.113334 0.572016,0.411198 0.655437,0.6554 0.09535,0.274151 0.137028,1.007003 0.131095,1.465817 -0.0061,1.275108 -0.202584,4.856184 -0.202584,4.909814 0.0061,0.101126 0.04152,0.01312 0.143,0.0044 0.429022,-0.04315 4.147142,-0.55416 4.355688,-0.631587 0.11322,-0.04315 0.10725,-0.07736 0.11322,-0.190683 0.07148,-0.989113 0.381325,-7.525629 0.51839,-9.533663 0.01179,-0.178559 0.07749,-0.440902 0.172796,-0.595824 0.119153,-0.196795 0.351534,-0.500554 0.572021,-0.566102 0.220477,-0.0658 4.20672,-0.554084 4.510608,-0.452843 0.184719,0.05971 0.3754,0.321691 0.494554,0.476727 0.06554,0.08347 0.166826,0.255972 0.18472,0.36925 0.07148,0.51839 0.119153,1.096378 0.119153,1.620739 0,0.846111 -0.893777,21.015737 -1.012948,23.035698 M 5.0000437,59.293753 c 0,0 0.6375615,1.215531 0.9652844,1.716081 0.1966105,0.291864 0.500516,0.506453 0.7865259,0.709038 0.3217443,0.232199 0.6733113,0.446915 1.0427396,0.595867 0.3813286,0.15473 0.7865279,0.26203 1.1976657,0.303982 0.6196885,0.05364 1.2453347,0.05364 1.8650187,0 C 11.822561,62.529386 154.80342,42.562519 154.80342,42.562519 L 155,9.707202 c 0,0 -0.0595,-0.864023 -0.19068,-1.275127 -0.16678,-0.51841 -0.42306,-1.007003 -0.67331,-1.489644 -0.0715,-0.14319 -0.18483,-0.268066 -0.29792,-0.375316 C 153.54017,6.286936 153.24227,6.007041 152.90261,5.7806 152.58089,5.566158 152.22334,5.393191 151.8599,5.262228 151.59774,5.166768 151.3117,5.154979 151.03759,5.113335 150.76351,5.065785 150.48939,5 150.21533,5 149.88763,5 149.56582,5.06579 149.24408,5.113335 147.79616,5.31013 5,25.461718 5,25.461718 Z m 0,0"
     id="path894"
     inkscape:connector-curvature="0" />
  <path
     style="fill:#eb1923;fill-opacity:1;fill-rule:nonzero;stroke:none;stroke-width:1.52538347"
     d="m 52.220818,17.210951 0.08348,-8.56837 c 0,0 -46.5837852,15.00356 -46.6433713,15.021474 z m 0,0"
     id="path896"
     inkscape:connector-curvature="0" />
  <path
     style="fill:#2347a3;fill-opacity:1;fill-rule:nonzero;stroke:none;stroke-width:1.52538347"
     d="m 143.49359,20.869504 c -0.28604,-0.124934 -0.58991,-0.220527 -0.89381,-0.29792 -0.25623,-0.05971 -0.52434,-0.11942 -0.78652,-0.113336 -0.41708,0.01712 -0.83418,0.07131 -1.23339,0.190692 -0.29201,0.08349 -0.57802,0.220527 -0.82229,0.411217 -0.20263,0.15479 -0.3873,0.351528 -0.48266,0.595862 -0.19068,0.476671 -0.25622,1.817364 -0.26216,1.978256 -0.0537,1.263186 -0.28006,4.492704 -0.33367,6.012146 -0.0114,0.297921 0.005,0.601814 0.0715,0.893764 0.0595,0.262 0.16677,0.51242 0.29793,0.750784 0.0595,0.107249 0.14907,0.214441 0.26214,0.262038 0.32179,0.131019 0.66139,0.25641 1.00699,0.25641 0.5184,0 1.03679,-0.10725 1.53134,-0.25641 0.29794,-0.09546 0.58394,-0.250344 0.82229,-0.452844 0.25625,-0.214441 0.47667,-0.482641 0.63756,-0.786514 0.15499,-0.291855 0.27409,-0.631611 0.29793,-0.965263 0.10726,-1.459847 0.20261,-4.808556 0.29795,-6.947688 0.005,-0.160873 0.0656,-0.321709 0.0359,-0.482641 -0.0476,-0.297922 -0.36347,-1.012917 -0.44688,-1.048666"
     id="path898"
     inkscape:connector-curvature="0" />
  <path
     style="fill:#2347a3;fill-opacity:1;fill-rule:nonzero;stroke:none;stroke-width:1.52538347"
     d="m 101.59914,26.76843 c -0.11314,-0.124935 -0.30387,-0.149275 -0.45284,-0.220546 -0.0477,-0.02586 -0.0894,-0.07131 -0.14889,-0.0774 -0.42305,-0.01711 -0.84611,-0.04317 -1.269159,0 -0.327719,0.03461 -0.655457,0.119419 -0.971254,0.226573 -0.286017,0.09546 -0.577968,0.190672 -0.822283,0.375297 -0.178749,0.137104 -0.309845,0.34548 -0.411161,0.55416 -0.113144,0.25641 -0.184644,0.542217 -0.220469,0.822283 -0.08938,0.70313 -0.470719,6.23263 -0.488593,7.02511 -0.0058,0.297925 0.04772,0.601819 0.113143,0.893772 0.04772,0.208333 0.119231,0.411198 0.226441,0.595867 0.05953,0.107211 0.148894,0.208336 0.262153,0.262033 0.321748,0.149065 0.655439,0.31564 1.007002,0.339851 0.411162,0.02594 0.828236,-0.07736 1.233407,-0.190684 0.363473,-0.101107 0.738863,-0.220517 1.042753,-0.446874 0.29792,-0.220517 0.53627,-0.530316 0.70906,-0.858031 0.143,-0.274148 0.19665,-0.589875 0.22644,-0.893749 0.0656,-0.70313 0.36347,-5.4759 0.3754,-5.755965 0.0114,-0.61967 0.0715,-1.388328 0,-1.864998 -0.0477,-0.291875 -0.22047,-0.560132 -0.41111,-0.786553"
     id="path900"
     inkscape:connector-curvature="0" />
  <path
     style="fill:#2347a3;fill-opacity:1;fill-rule:nonzero;stroke:none;stroke-width:1.52538347"
     d="m 72.920754,30.432935 c -0.02985,-0.02586 -0.04145,-0.07739 -0.07759,-0.07739 -0.268142,-0.01331 -1.048704,-0.05363 -1.567097,0 -0.434968,0.04317 -0.858032,0.160874 -1.269173,0.297921 -0.143,0.04754 -0.262153,0.160874 -0.375392,0.262039 -0.148894,0.137104 -0.315816,0.268085 -0.411124,0.446872 -0.142999,0.280179 -0.250266,0.583939 -0.29792,0.899754 -0.101357,0.661403 -0.11923,1.340651 -0.148894,2.013968 -0.0058,0.113316 0.03593,0.220517 0.03593,0.333795 0,0.238255 -0.02376,0.476708 -0.03593,0.70908 -0.02376,0.548187 -0.04147,1.096374 -0.07151,1.644561 -0.02376,0.375331 -0.0656,0.744797 -0.07759,1.120193 -0.01712,0.601819 -0.06559,1.203614 0,1.793533 0.03594,0.310019 0.154979,0.619667 0.297922,0.899721 0.07151,0.137066 0.190691,0.280184 0.333689,0.333793 0.333671,0.125086 0.69714,0.173025 1.048686,0.184587 0.250268,0.01312 0.506487,-0.04315 0.744832,-0.113316 0.434969,-0.119419 0.88186,-0.220517 1.269156,-0.446874 0.29195,-0.16694 0.542236,-0.423317 0.709081,-0.70908 0.202577,-0.339853 0.333672,-0.726928 0.375393,-1.120193 0.08348,-0.774632 0.160874,-3.205724 0.226441,-4.62979 0.02985,-0.673317 0.04146,-1.340688 0.07151,-2.013978 0.0058,-0.113335 0.07151,-0.232621 0.03594,-0.339851 -0.11923,-0.446911 -0.339643,-1.048724 -0.482643,-1.304925 -0.05952,-0.113334 -0.226402,-0.11942 -0.333669,-0.184644"
     id="path902"
     inkscape:connector-curvature="0" />
  <path
     style="fill:#2347a3;fill-opacity:1;fill-rule:nonzero;stroke:none;stroke-width:0.90249568"
     d="m 137.38145,78.064915 c -0.0213,0 -0.0351,-0.01995 -0.0459,-0.04575 -0.0213,-0.07393 -0.0281,-0.151653 -0.0317,-0.232453 v -2.090523 c 0,-0.0564 -0.0171,-0.130507 0.0317,-0.165742 l 1.11401,-0.01198 c 0.0459,0.02818 0.0776,0.08837 0.0776,0.144425 v 2.090547 c 0,0.08097 -0.008,0.162301 -0.0459,0.23271 -0.0245,0.04575 -0.067,0.07755 -0.11279,0.08097 z m 0,0"
     id="path766"
     inkscape:connector-curvature="0" />
  <path
     style="fill:#2347a3;fill-opacity:1;fill-rule:nonzero;stroke:none;stroke-width:0.90249568"
     d="m 139.20407,78.033192 c -0.0388,-0.0105 -0.0739,-0.03902 -0.0812,-0.08097 l -0.003,-2.390192 c 0.0244,-0.0423 0.0667,-0.07393 0.1162,-0.07754 h 0.96594 c 0.0424,0.0034 0.0776,0.03902 0.081,0.07754 l 0.0171,2.326752 c -0.003,0.03525 -0.0113,0.06688 -0.0317,0.09525 -0.0213,0.02837 -0.0459,0.04229 -0.0809,0.04575 z m 0,0"
     id="path768"
     inkscape:connector-curvature="0" />
  <path
     style="fill:#2347a3;fill-opacity:1;fill-rule:nonzero;stroke:none;stroke-width:0.90249568"
     d="m 58.96302,76.305751 c 0.03176,0.0069 0.04221,0.04575 0.04583,0.08097 l 0.0039,2.39021 c -0.02473,0.0423 -0.06693,0.07393 -0.112759,0.07754 -0.123414,0.0069 -1.047033,-0.0069 -1.085825,-0.01559 l 0.0039,-2.488898 c 0.0039,-0.02818 0.03176,-0.03902 0.05989,-0.04575 z m 0,0"
     id="path770"
     inkscape:connector-curvature="0" />
  <path
     style="fill:#2347a3;fill-opacity:1;fill-rule:nonzero;stroke:none;stroke-width:0.90249568"
     d="m 56.128612,78.889847 c -0.05647,-0.01559 -0.09508,-0.06001 -0.116376,-0.112613 -0.03176,-0.07393 -0.02815,-0.154902 -0.03176,-0.236199 v -2.090566 c 0,-0.03525 0.0076,-0.07049 0.03176,-0.09525 0.02815,-0.03182 0.06693,-0.04575 0.112759,-0.04575 l 1.032942,0.01559 c 0.01331,0 0.02454,0.01559 0.02815,0.02818 l 0.0039,2.376111 c -0.0076,0.06001 -0.02472,0.126894 -0.07759,0.144426 z m 0,0"
     id="path772"
     inkscape:connector-curvature="0" />
  <path
     style="fill:#2347a3;fill-opacity:1;fill-rule:nonzero;stroke:none;stroke-width:0.90249568"
     d="m 85.279953,91.905558 c 0.243251,-0.02574 0.500592,-0.04568 0.726215,-0.137655 0.264396,-0.105728 0.507666,-0.274976 0.726234,-0.451242 0.158593,-0.126874 0.28908,-0.299655 0.401881,-0.468879 0.119799,-0.183522 0.225604,-0.384256 0.306725,-0.585221 0.08462,-0.200704 0.169242,-0.408932 0.193886,-0.62398 0.02815,-0.274977 0.03176,-1.247944 0.05286,-1.663957 0.0039,-0.06005 0.0039,-0.112704 0.02815,-0.16578 0.01711,-0.02554 0.04221,-0.0391 0.07397,-0.0423 l 3.112875,-0.01787 c 0.04583,0.004 0.07054,0.05965 0.07398,0.109113 0.01331,0.126874 0.04925,0.803799 0.04925,1.191587 0,0.278465 -0.01712,0.549951 -0.04925,0.824945 -0.04221,0.366641 -0.08462,0.736792 -0.172854,1.096372 -0.07054,0.29261 -0.1797,0.578177 -0.310224,0.853132 -0.09869,0.229213 -0.236196,0.440712 -0.373682,0.652188 -0.09166,0.141042 -0.193885,0.282078 -0.306726,0.408954 -0.246768,0.271464 -0.497074,0.525293 -0.768525,0.768571 -0.148133,0.130468 -0.310224,0.243177 -0.479446,0.341942 -0.299671,0.179739 -0.602841,0.345514 -0.927174,0.482983 -0.310226,0.126873 -0.631042,0.218441 -0.955377,0.303182 l -4.86855,0.01995 c -0.352516,-0.06681 -0.690941,-0.207969 -1.029386,-0.341966 -0.215049,-0.08837 -0.412472,-0.1939 -0.613412,-0.310244 -0.225605,-0.126874 -0.444211,-0.267893 -0.652206,-0.426546 -0.20096,-0.154808 -0.384253,-0.313796 -0.564067,-0.497086 -0.158592,-0.162185 -0.313743,-0.32431 -0.440654,-0.511171 -0.183314,-0.271483 -0.349016,-0.557011 -0.479466,-0.856663 -0.144521,-0.320819 -0.257342,-0.648679 -0.341942,-0.990621 -0.06693,-0.260914 -0.08462,-0.525296 -0.1023,-0.786168 -0.02815,-0.324349 -0.02815,-0.641635 -0.0388,-0.962434 -0.01712,-0.62398 -0.04945,-1.688671 -0.06694,-2.030615 -0.0039,-0.03532 -0.0076,-0.09515 -0.04221,-0.116302 -0.07759,-0.0391 -0.1797,-0.04927 -0.267933,-0.05286 h -1.78384 c -0.09508,-0.0059 -0.179699,-0.05308 -0.267933,-0.102139 -0.04221,-0.02812 -0.06693,-0.06343 -0.07759,-0.109112 -0.01712,-0.09875 -0.05648,-0.207946 0,-0.296121 l 2.104656,-1.931888 c 0.08823,-0.07422 0.186924,-0.14104 0.264395,-0.225703 0.02473,-0.02834 0.03538,-0.0776 0.03538,-0.112511 0.0076,-0.40544 0.0039,-1.801465 0,-2.40783 0,-0.04569 -0.0076,-0.09875 -0.01712,-0.141042 -0.0039,-0.02554 -0.02129,-0.06005 -0.0388,-0.0776 -0.02815,-0.02793 -0.07398,-0.05287 -0.11276,-0.05645 l -2.157519,-0.004 c -0.0388,-0.02834 -0.06332,-0.06343 -0.07759,-0.109112 -0.01712,-0.06681 -0.01712,-0.130468 0,-0.197495 l 4.371477,-3.775684 c 0.04221,-0.03182 0.09527,-0.03887 0.137484,-0.06688 0.09869,-0.07393 0.172664,-0.172722 0.27497,-0.239708 0.08101,-0.05296 0.16924,-0.08476 0.267933,-0.102107 0.134061,-0.0175 0.267914,-0.01559 0.401881,0 0.05286,0.0069 0.08823,0.03902 0.130447,0.0669 0.0388,0.02562 0.07759,0.04265 0.09869,0.08097 0.04221,0.07393 0.07759,0.14819 0.08101,0.232455 l 0.01141,1.452468 8.397436,0.01995 c 0.02815,0 0.03176,0.01995 0.04221,0.04575 0.02129,0.0423 0.03176,0.08097 0.03176,0.126894 l 0.0039,2.083501 c 0,0.09156 0.0039,0.179947 -0.03176,0.264381 -0.01711,0.04569 -0.05989,0.07043 -0.109339,0.0776 l -8.108337,0.01 c -0.05647,0.004 -0.116377,0.07401 -0.130449,0.126874 v 2.524153 c 0.01712,0.05645 0.05989,0.130467 0.112759,0.148209 l 7.886252,-0.03171 c 0.123413,0 0.236197,0.01 0.352535,0.04908 0.03176,0.0059 0.04221,0.0391 0.04583,0.07401 l 0.01331,2.48543 c -0.0039,0.04928 -0.02815,0.102343 -0.07759,0.109112 l -8.129502,0.0059 c -0.04582,0 -0.1198,0.004 -0.148134,0.0391 -0.04221,0.04928 -0.05647,0.134061 -0.05989,0.200924 -0.0076,0.257341 0,0.853133 0,1.272678 0,0.126873 -0.0039,0.25377 0,0.377194 0.01711,0.380745 0.01711,0.80025 0.07054,1.138723 0.03176,0.215187 0.119798,0.423014 0.207976,0.62047 0.04945,0.123279 0.119799,0.253749 0.207976,0.348984 0.193885,0.218461 0.408954,0.430098 0.638095,0.606387 0.133872,0.102354 0.292597,0.179946 0.451247,0.243176 0.165628,0.06344 0.341962,0.119895 0.51822,0.137846 z m 0,0"
     id="path774"
     inkscape:connector-curvature="0" />
  <path
     style="fill:#2347a3;fill-opacity:1;fill-rule:nonzero;stroke:none;stroke-width:0.90249568"
     d="m 139.71526,94.048966 c -0.0352,0.01198 -0.33846,0.03171 -0.51471,0.01198 -0.22211,-0.02554 -0.43715,-0.0776 -0.65221,-0.137636 -0.29964,-0.08099 -0.60284,-0.148229 -0.88837,-0.271425 -0.41954,-0.186717 -1.21627,-0.599345 -1.61111,-0.824945 -0.29966,-0.17276 -0.57464,-0.384298 -0.8602,-0.585202 -0.17286,-0.119895 -0.35254,-0.232683 -0.51117,-0.373722 l -1.26915,-1.269127 c -0.11637,-0.12328 -0.25383,-0.264405 -0.38426,-0.349027 -0.0528,-0.02834 -0.13044,-0.01 -0.1833,-0.004 -0.0352,0.0059 -0.0811,0.01787 -0.10941,0.0391 l -0.69097,0.514681 c -0.0882,0.06343 -0.15516,0.144425 -0.23971,0.207966 -0.0882,0.06344 -0.18693,0.105729 -0.27499,0.172759 -0.11638,0.08477 -0.21857,0.193903 -0.34197,0.271484 -0.24676,0.16578 -0.50059,0.310227 -0.75444,0.447693 -0.48295,0.260853 -1.17745,0.627513 -1.57935,0.821414 -0.1198,0.06005 -0.25383,0.08477 -0.37723,0.141042 -0.27849,0.116301 -0.53937,0.271405 -0.8214,0.377213 -0.58521,0.207967 -1.73447,0.599303 -2.3338,0.754406 -0.47592,0.119895 -1.54764,0.285568 -1.95306,0.341985 -0.1797,0.02554 -0.41598,0.02554 -0.53937,0 -0.0565,-0.0059 -0.10233,-0.05306 -0.1093,-0.109112 v -2.735689 c 0,-0.02554 0.0114,-0.0423 0.0281,-0.05645 0.0459,-0.0389 0.0917,-0.06681 0.14814,-0.08099 0.28204,-0.06681 1.26209,-0.232464 1.6816,-0.341984 0.39132,-0.102343 1.16338,-0.345455 1.54765,-0.482982 0.36311,-0.130467 0.82847,-0.334881 1.2374,-0.514701 0.33493,-0.151405 0.67335,-0.303163 0.99768,-0.482982 0.45123,-0.246928 1.09286,-0.62043 1.44188,-0.860158 0.32786,-0.218459 0.6663,-0.493594 0.96595,-0.754446 0.34196,-0.303182 0.99769,-0.927183 1.32202,-1.255044 0.23268,-0.236193 0.44418,-0.497065 0.65218,-0.757937 0.1586,-0.197493 0.30674,-0.40895 0.44773,-0.620449 0.14452,-0.211479 0.28554,-0.430098 0.41247,-0.65221 0.12341,-0.215208 0.24679,-0.430078 0.34548,-0.652208 0.14111,-0.32784 0.27146,-0.662781 0.37723,-1.001214 0.067,-0.215189 0.10564,-0.437139 0.14109,-0.655721 0.0281,-0.168975 0.0492,-0.345453 0.0492,-0.518192 0,-0.07043 -0.0247,-0.144425 -0.0528,-0.215228 -0.0459,-0.116302 -0.10232,-0.236195 -0.17628,-0.345474 -0.0388,-0.06344 -0.0987,-0.11651 -0.15518,-0.158802 -0.067,-0.04569 -0.14109,-0.102139 -0.21504,-0.105728 H 123.8508 c -0.1411,-0.03171 -0.25382,-0.116301 -0.37017,-0.204436 -0.067,-0.04948 -0.1094,-0.112703 -0.14813,-0.183521 -0.0633,-0.105921 -0.10941,-0.215217 -0.13748,-0.334934 l -0.003,-1.942478 c 0.007,-0.0669 0.0245,-0.133947 0.081,-0.158688 0.0882,-0.0423 0.28556,-0.05296 0.43362,-0.06688 0.0353,-0.0034 0.067,0.0175 0.10232,0.0175 l 11.00621,-0.02562 c 0.23973,0 0.4724,0.01559 0.70509,0.05296 0.18692,0.02818 0.37015,0.06688 0.54643,0.137713 0.22563,0.08837 0.44066,0.204462 0.64515,0.341974 0.1586,0.09869 0.29965,0.218441 0.42657,0.352546 0.1198,0.137542 0.2221,0.28553 0.3067,0.444173 0.1093,0.211717 0.20446,0.419533 0.27146,0.648666 0.06,0.200956 0.0811,0.405437 0.10232,0.616947 0.0245,0.225722 0.0281,0.454773 0.0351,0.680415 0.003,0.197495 0.0171,0.391319 0,0.585203 -0.0281,0.345493 -0.0706,0.687437 -0.13749,1.02942 -0.081,0.391317 -0.18691,0.810822 -0.31022,1.198609 -0.0882,0.292631 -0.20797,0.574627 -0.34195,0.853154 -0.14453,0.306695 -0.30671,0.599304 -0.47947,0.891915 -0.19741,0.338412 -0.39834,0.669824 -0.61341,0.997683 -0.0847,0.120085 -0.19389,0.21846 -0.27497,0.341943 -0.0812,0.119895 -0.16564,0.246967 -0.21154,0.384296 -0.0245,0.07401 -0.0316,0.179946 0,0.253748 0.0634,0.151615 0.16925,0.289101 0.27851,0.416016 0.21859,0.250178 0.67335,0.715625 0.91306,0.948309 0.067,0.06343 0.15518,0.09155 0.22562,0.151613 0.12342,0.112704 0.22559,0.257361 0.35606,0.36311 0.22916,0.186716 0.48649,0.341964 0.72624,0.514702 0.11637,0.08837 0.21857,0.200944 0.34196,0.278485 0.15517,0.09177 0.32431,0.154999 0.48298,0.239706 0.13749,0.07401 0.27145,0.172759 0.41246,0.239707 0.14451,0.06681 0.30318,0.09536 0.44067,0.169165 0.0317,0.01198 0.0424,0.0423 0.0459,0.0776 z m 0,0"
     id="path776"
     inkscape:connector-curvature="0" />
  <path
     style="fill:#2347a3;fill-opacity:1;fill-rule:nonzero;stroke:none;stroke-width:0.90249568"
     d="m 32.508616,88.196844 c -0.04222,-0.05645 -0.144521,-0.09875 -0.21505,-0.09875 -0.253823,-0.01598 -1.477131,-0.01598 -2.101119,-0.004 -0.141097,0.004 -0.289078,0.004 -0.423046,0.03531 -0.232676,0.05625 -0.475927,0.144425 -0.698014,0.243177 -0.1198,0.05308 -0.253842,0.123279 -0.349017,0.215209 -0.183313,0.154999 -0.366645,0.345514 -0.511184,0.539399 -0.08101,0.112511 -0.126835,0.25736 -0.176276,0.387786 -0.04221,0.112703 -0.09508,0.236233 -0.105729,0.356066 -0.02454,0.260891 -0.03537,0.54291 0,0.803802 0.02454,0.169165 0.112759,0.331349 0.176276,0.490004 0.04945,0.119895 0.09869,0.253749 0.176277,0.356047 0.148134,0.183521 0.324334,0.359599 0.507648,0.504147 0.133872,0.105729 0.299652,0.190513 0.458301,0.2502 0.222104,0.0776 0.465336,0.130467 0.698034,0.172758 0.09166,0.01787 0.190348,0 0.282023,0 0.4019,0 0.817871,0.01787 1.205662,0 0.151557,-0.0059 0.310243,-0.03171 0.454784,-0.07043 0.07759,-0.01995 0.162203,-0.06344 0.225603,-0.109112 0.109338,-0.09875 0.222106,-0.218459 0.299652,-0.341983 0.05647,-0.08099 0.09527,-0.193904 0.109338,-0.289081 z m -5.4044,-8.81343 c 0.08462,-0.07032 0.158593,-0.190213 0.271452,-0.204462 l 4.879125,-0.02562 c 0.04583,-0.0069 0.04221,-0.08819 0.04925,-0.137542 0.03537,-0.179985 0.05648,-0.525288 0.08462,-0.645161 0.0114,-0.02837 0.04221,-0.04572 0.07054,-0.04917 h 3.331482 c 0.04583,0.0175 0.07398,0.07032 0.08462,0.116397 0.04582,0.19396 0.05647,0.465353 0.08462,0.585224 0.01141,0.02837 0.04221,0.04952 0.07054,0.05295 h 2.129337 c 0.07054,0 0.141098,-0.01995 0.204458,0 0.0388,0.0105 0.08462,0.04575 0.08823,0.08476 v 2.541836 l -1.93897,0.01787 c -0.141097,0.0059 -0.278487,0.02834 -0.412473,0.04948 -0.02815,0.0059 -0.06351,0.01 -0.07054,0.03531 l -0.01331,3.127027 c 0,0.06681 -0.01332,0.154998 0.03176,0.204457 0.06352,0.07043 0.165628,0.112703 0.257361,0.119685 h 2.164574 c 0.03537,0.0059 0.06693,0.05286 0.08462,0.08837 0.02129,0.0423 0.03156,0.09155 0.03156,0.137655 l 0.0039,2.259769 c -0.01711,0.105728 -0.02815,0.218441 -0.08462,0.313757 -0.03538,0.04908 -0.112954,0.07401 -0.176277,0.08477 h -2.090564 c -0.03518,0.004 -0.07397,0.01787 -0.105728,0.0391 -0.03176,0.01787 -0.07759,0.04229 -0.08462,0.08479 l -0.172664,4.12114 c -0.04221,0.22197 -0.1198,0.437178 -0.204477,0.648716 -0.08823,0.21519 -0.197423,0.419505 -0.310225,0.62047 -0.04944,0.08796 -0.1023,0.169166 -0.169241,0.239687 -0.215069,0.215208 -0.440691,0.412464 -0.669832,0.602835 -0.141099,0.112702 -0.28908,0.225722 -0.447729,0.306694 -0.207977,0.112703 -0.4301,0.193904 -0.652187,0.274995 -0.15517,0.05965 -0.317279,0.109112 -0.479446,0.137655 -0.264415,0.04229 -0.528812,0.05965 -0.793227,0.07043 -0.683904,0.01995 -1.66748,0.04569 -2.231548,0.03532 -0.285561,-0.0059 -0.578158,-0.0391 -0.856664,-0.105729 -0.338445,-0.0776 -0.782635,-0.215189 -1.099914,-0.341964 -0.299652,-0.119895 -0.578177,-0.28908 -0.856665,-0.447712 -0.109338,-0.05965 -0.218587,-0.123281 -0.310242,-0.204476 -0.26793,-0.232425 -0.542902,-0.475902 -0.772054,-0.740304 -0.186869,-0.207967 -0.338437,-0.447713 -0.482978,-0.683907 -0.126911,-0.211458 -0.246773,-0.426608 -0.341958,-0.65574 -0.102225,-0.243196 -0.158629,-0.504149 -0.239724,-0.754448 -0.01061,-0.02533 -0.03168,-0.04568 -0.03527,-0.07043 -0.02448,-0.21846 -0.08818,-0.740341 -0.08818,-1.114005 0,-0.296142 0.02474,-0.58877 0.08818,-0.877809 0.07048,-0.324351 0.176277,-0.65221 0.310229,-0.958945 0.130448,-0.310203 0.303184,-0.602814 0.479453,-0.895424 0.06697,-0.109113 0.151594,-0.211458 0.2397,-0.306714 0.204481,-0.221951 0.405418,-0.444182 0.634571,-0.638065 0.21505,-0.179948 0.447728,-0.338433 0.687442,-0.479471 0.232677,-0.134062 0.475928,-0.243198 0.722697,-0.341965 0.236215,-0.09515 0.472411,-0.186716 0.71918,-0.239685 0.338444,-0.07401 0.68746,-0.11651 1.029423,-0.14104 0.641613,-0.03531 2.280893,-0.05646 2.545309,-0.06681 0.02129,0 0.04944,-0.01198 0.06693,-0.03531 0.02454,-0.03531 0.05287,-0.07401 0.05287,-0.120086 L 32.389582,82.0108 c -0.0039,-0.06681 -0.0114,-0.141039 -0.03176,-0.204453 -0.0114,-0.01995 -0.02815,-0.04928 -0.05647,-0.05308 h -7.121176 c -0.10575,-0.004 -0.200958,-0.08139 -0.274982,-0.151613 -0.04585,-0.0423 -0.07401,-0.112511 -0.07048,-0.176144 0.0034,-0.09156 0.02816,-0.197494 0.08818,-0.271445 z m 0,0"
     id="path778"
     inkscape:connector-curvature="0" />
  <path
     style="fill:#2347a3;fill-opacity:1;fill-rule:nonzero;stroke:none;stroke-width:0.90249568"
     d="m 104.88455,84.350657 c 0.11276,-0.267933 0.1974,-0.542886 0.27499,-0.824944 0.0565,-0.201184 0.1023,-0.412464 0.13748,-0.620471 0.0213,-0.134061 0.0388,-0.274956 0.0352,-0.412442 -0.0114,-0.253789 -0.0133,-0.514741 -0.0705,-0.757978 -0.0245,-0.116301 -0.10573,-0.218441 -0.17286,-0.317267 -0.0354,-0.04569 -0.074,-0.09156 -0.12341,-0.120086 -0.0987,-0.05645 -0.2045,-0.14104 -0.3173,-0.14104 l -10.815852,0.01787 c -0.14452,-0.0059 -0.285542,-0.05645 -0.408937,-0.134061 -0.130447,-0.08099 -0.253822,-0.183523 -0.320796,-0.3208 -0.08101,-0.169165 -0.09166,-0.359552 -0.09869,-0.542903 v -1.60749 c 0,-0.06001 0,-0.112612 0.02815,-0.165741 0.02815,-0.0423 0.06332,-0.08097 0.112759,-0.08097 l 12.398726,-0.02562 c 0.1023,0 0.20448,-0.0175 0.30671,-0.0175 0.14813,0.0105 0.29613,0.0175 0.44419,0.05296 0.21153,0.05294 0.41601,0.116396 0.61342,0.207952 0.23969,0.105729 0.45829,0.24693 0.68746,0.377219 0.081,0.04263 0.16562,0.07755 0.23969,0.133948 0.074,0.06344 0.13045,0.137541 0.18693,0.218458 0.15517,0.236199 0.32081,0.465353 0.44419,0.719177 0.0953,0.207971 0.15859,0.430109 0.20096,0.652202 0.067,0.313756 0.13045,0.634573 0.1198,0.958882 -0.008,0.384296 -0.12342,1.360794 -0.18692,1.8191 -0.0388,0.274973 -0.095,0.54997 -0.16924,0.821414 -0.10233,0.359599 -0.19741,0.719197 -0.34197,1.064672 -0.18692,0.423015 -0.60284,1.237409 -0.82493,1.642809 -0.19035,0.349008 -0.49707,0.828479 -0.68746,1.099923 -0.0953,0.137446 -0.23266,0.246947 -0.34194,0.377213 -0.22211,0.260892 -0.42305,0.535886 -0.65221,0.789696 l -2.24919,1.970672 c -0.0951,0.07401 -0.17267,0.176144 -0.27145,0.243215 -0.32432,0.215208 -0.89896,0.578177 -1.30791,0.821396 -0.3455,0.207967 -0.70507,0.412482 -1.06115,0.581708 l -1.508844,0.652189 c -0.363126,0.144425 -0.726233,0.267933 -1.099913,0.377213 -0.54644,0.16578 -1.2339,0.338433 -1.787376,0.482964 -0.193866,0.04948 -0.380735,0.112702 -0.581676,0.137655 -0.521756,0.06343 -1.639299,0.162186 -2.072936,0.19012 -0.109339,0.004 -0.215051,-0.02554 -0.320797,-0.05286 -0.02454,-0.0059 -0.0388,-0.01995 -0.04582,-0.04569 -0.02129,-0.0423 -0.03176,-0.08477 -0.03176,-0.130467 v -2.570007 c 0,-0.05625 0.05647,-0.10214 0.112761,-0.116301 0.137483,-0.02554 1.568787,-0.221932 2.090543,-0.341924 0.440675,-0.09515 1.290284,-0.377253 1.716847,-0.511189 0.109338,-0.03531 0.208013,-0.102343 0.310244,-0.141042 0.172664,-0.06343 0.349017,-0.102525 0.51472,-0.169164 0.370144,-0.158802 0.853127,-0.384255 1.272636,-0.585221 0.246769,-0.116509 0.490039,-0.239705 0.722717,-0.377194 0.341964,-0.211457 0.740324,-0.472409 1.099914,-0.722688 0.16925,-0.116492 0.32434,-0.246967 0.48297,-0.380764 0.13045,-0.105728 0.25384,-0.221972 0.37724,-0.341963 0.40188,-0.391318 0.90249,-0.88134 1.29028,-1.290273 0.19388,-0.204457 0.37368,-0.426568 0.54644,-0.65221 0.14813,-0.186717 0.28554,-0.384275 0.41245,-0.58524 z m 0,0"
     id="path780"
     inkscape:connector-curvature="0" />
  <path
     style="fill:#2347a3;fill-opacity:1;fill-rule:nonzero;stroke:none;stroke-width:0.90249568"
     d="m 24.294502,95.222898 -1.142225,0.01598 c -0.303181,-0.03911 -0.602836,-0.102369 -0.888387,-0.204475 -0.289083,-0.102139 -0.56054,-0.246969 -0.821415,-0.412464 -0.208007,-0.130467 -0.387791,-0.289099 -0.56406,-0.461797 -0.141021,-0.133853 -0.274979,-0.275015 -0.377216,-0.44424 -0.172739,-0.28202 -0.320807,-0.578139 -0.444196,-0.888385 -0.05991,-0.151615 -0.08808,-0.317287 -0.102225,-0.479432 L 19.9476,78.468678 c 0,-0.03525 0.04235,-0.03902 0.07751,-0.04573 l 3.236294,-0.01995 c 0.03882,0.0034 0.07048,0.03886 0.07401,0.08097 l 0.02816,13.251894 c 0.0072,0.151405 0.03168,0.317248 0.10575,0.454795 0.04235,0.0776 0.141022,0.126874 0.229151,0.158593 0.162167,0.05645 0.408954,0.05645 0.507658,0.102139 0.05642,0.01995 0.07401,0.08479 0.08102,0.144424 z m 0,0"
     id="path782"
     inkscape:connector-curvature="0" />
  <path
     style="fill:#2347a3;fill-opacity:1;fill-rule:nonzero;stroke:none;stroke-width:0.90249568"
     d="m 62.2381,95.036056 c -0.331389,-0.03171 -1.121079,-0.204454 -1.438358,-0.306693 -0.324334,-0.102354 -0.694497,-0.243197 -1.025886,-0.430099 -0.27497,-0.154808 -0.539385,-0.33492 -0.786154,-0.546439 -0.222104,-0.190513 -0.412472,-0.401869 -0.595785,-0.631043 -0.20096,-0.250199 -0.384272,-0.507658 -0.546439,-0.786146 -0.137485,-0.239725 -0.243251,-0.493554 -0.341963,-0.750895 -0.08462,-0.215208 -0.151556,-0.426608 -0.208013,-0.652229 -0.04583,-0.21144 -0.09166,-0.426546 -0.09869,-0.648657 -0.01712,-0.525294 -0.01141,-1.960118 -0.0039,-2.097585 0.0076,-0.06343 0.04221,-0.133853 0.109339,-0.137655 l 3.07414,-0.01787 c 0.04582,0 0.11276,-0.0059 0.119799,0.04229 0.0039,0.0391 0.09527,1.554697 0.148135,1.960098 0.02454,0.190512 0.09869,0.380764 0.176276,0.557012 0.07397,0.179947 0.15517,0.366661 0.274988,0.518234 0.176277,0.2257 0.37368,0.447731 0.606358,0.609896 0.225605,0.158592 0.504129,0.260871 0.765007,0.345475 l 5.711114,0.01995 c 0.267914,-0.02812 0.539366,-0.06681 0.796726,-0.137655 0.190406,-0.05625 0.384271,-0.144426 0.557012,-0.243216 0.144521,-0.09155 0.278506,-0.215189 0.398363,-0.334883 0.04583,-0.04569 0.06351,-0.120086 0.105728,-0.172759 0.105729,-0.130467 0.257362,-0.232425 0.341963,-0.380704 0.123413,-0.207967 0.222087,-0.454795 0.278506,-0.69097 0.05989,-0.250199 0.07759,-0.5147 0.07055,-0.765019 -0.0076,-0.186717 -0.05286,-0.377214 -0.1023,-0.553481 -0.04583,-0.154998 -0.09869,-0.313758 -0.176276,-0.451265 -0.08462,-0.162187 -0.190388,-0.320797 -0.310225,-0.454754 -0.151556,-0.169566 -0.317298,-0.338412 -0.507665,-0.468879 -0.186927,-0.130468 -0.408937,-0.229213 -0.620469,-0.310226 -0.186926,-0.07401 -0.472392,-0.134062 -0.595786,-0.154998 -0.02815,-0.0059 -0.04583,0.03171 -0.07397,0.03531 -0.04583,0.004 -0.08101,-0.01995 -0.130449,-0.01995 l -5.83097,0.004 c -0.05989,-0.01597 -0.09869,-0.05645 -0.137485,-0.112511 -0.02815,-0.03531 -0.03156,-0.0776 -0.03156,-0.123281 0,-0.09177 -0.01712,-0.179947 0.03156,-0.26087 0.0812,-0.130468 0.204478,-0.215189 0.320817,-0.313776 l 4.255126,-3.472462 c 0.109339,-0.08837 0.204478,-0.186718 0.310244,-0.274975 0.06333,-0.04568 0.148135,-0.08099 0.207996,-0.137656 0.130448,-0.119895 0.310243,-0.310242 0.370162,-0.40189 0.03176,-0.06344 0.02454,-0.186716 -0.02454,-0.236213 -0.04582,-0.04948 -0.197404,-0.08837 -0.289079,-0.09515 -0.289079,-0.01995 -0.578158,0 -0.863719,0 l -7.82634,0.01787 c -0.07398,-0.004 -0.137485,-0.02554 -0.193886,-0.0776 -0.04945,-0.05308 -0.05989,-0.119895 -0.07759,-0.193902 -0.0114,-0.05287 -0.0114,-0.105729 0,-0.158592 0.02454,-0.09875 0.03537,-0.190513 0.1023,-0.264423 l 2.340832,-1.960059 c 0.06694,-0.04575 0.148134,-0.05967 0.232678,-0.06688 l 10.396352,0.0105 c 0.03538,0 0.06351,0.02562 0.1023,0.03525 0.1797,0.04575 0.366624,0.07755 0.54642,0.137733 0.105728,0.03525 0.211512,0.0669 0.299671,0.130506 0.151556,0.112613 0.282023,0.239691 0.391308,0.391338 0.1023,0.144426 0.183313,0.299645 0.236215,0.472367 0.05648,0.200973 0.08462,0.401926 0.08462,0.60992 0,0.183523 -0.03176,0.363131 -0.08462,0.539378 -0.04221,0.137638 -0.109339,0.264403 -0.204459,0.370172 -0.208014,0.246967 -0.447729,0.458287 -0.694497,0.666293 -0.208014,0.169166 -0.44421,0.28908 -0.655724,0.444201 -0.09527,0.07402 -0.176275,0.169165 -0.274987,0.243216 -0.430101,0.331391 -1.064659,0.786167 -1.406622,1.064653 -0.126836,0.102139 -0.306706,0.313795 -0.334907,0.359619 -0.02129,0.02554 0.01332,0.09515 0.04241,0.109113 0.109338,0.06005 0.267914,0.119895 0.405418,0.162187 0.165628,0.05308 0.345479,0.07401 0.511164,0.133852 0.3173,0.12328 0.627524,0.25381 0.927175,0.412482 0.200959,0.105729 0.401899,0.221952 0.574641,0.373682 0.253823,0.218462 0.772042,0.754449 1.047031,1.047059 0.09166,0.09515 0.172664,0.190311 0.239733,0.303162 0.172664,0.310245 0.356053,0.623982 0.475909,0.958923 0.109338,0.306693 0.257361,0.909528 0.306707,1.226796 0.04945,0.296141 0.05648,0.592262 0.03538,0.888403 -0.02473,0.338434 -0.09527,0.666312 -0.172664,0.990643 -0.05989,0.267934 -0.137485,0.532315 -0.239696,0.786146 -0.07397,0.193902 -0.162205,0.373682 -0.271469,0.54997 -0.144522,0.236175 -0.296134,0.468877 -0.479448,0.680356 -0.21505,0.253809 -0.609895,0.662781 -0.870753,0.870787 -0.271471,0.218462 -0.578177,0.384257 -0.888402,0.549952 -0.253824,0.134062 -0.511184,0.25736 -0.786153,0.341983 -0.331389,0.09874 -0.747381,0.16578 -1.128134,0.236196 -0.200961,0.0389 -0.394827,0.07062 -0.592249,0.08477 z m 0,0"
     id="path784"
     inkscape:connector-curvature="0" />
  <path
     style="fill:#2347a3;fill-opacity:1;fill-rule:nonzero;stroke:none;stroke-width:0.90249568"
     d="m 48.943919,84.452878 c -0.137485,0.004 -0.274971,0.01597 -0.408956,0 -0.05989,-0.0059 -0.112759,-0.01995 -0.169241,-0.04908 -0.01331,-0.0059 -0.03537,-0.01787 -0.02815,-0.04229 0.02129,-0.06344 0.05286,-0.116491 0.09869,-0.158782 0.352534,-0.306695 1.604025,-1.321993 2.132836,-1.787341 0.130449,-0.116491 0.285562,-0.278526 0.35959,-0.398359 0.03176,-0.04948 0.02454,-0.130468 0,-0.183523 -0.01712,-0.05308 -0.07759,-0.09874 -0.123412,-0.127082 -0.0388,-0.01995 -0.09527,-0.03531 -0.144521,-0.03531 l -9.994425,0.004 c -0.137485,-0.0059 -0.271451,-0.05308 -0.4019,-0.09875 -0.0388,-0.01787 -0.06332,-0.04567 -0.08462,-0.08099 -0.03176,-0.06682 -0.06351,-0.130468 -0.06351,-0.201205 0,-0.09515 0.01331,-0.186718 0.06693,-0.267894 0.05989,-0.105728 0.158592,-0.176143 0.250305,-0.253771 l 1.92487,-1.544076 c 0.08823,-0.06344 0.176276,-0.123281 0.27145,-0.169015 0.06351,-0.03182 0.13045,-0.06343 0.204478,-0.06688 l 11.947479,-0.0069 c 0.05647,0.0069 0.116378,0.0105 0.165628,0.03526 0.134063,0.0564 0.257362,0.123279 0.377218,0.204447 0.148134,0.09869 0.299652,0.197454 0.426565,0.324314 0.109338,0.109191 0.215069,0.229204 0.27147,0.373696 0.09508,0.253775 0.183312,0.60991 0.190349,0.83549 0.0039,0.229213 -0.08462,0.447734 -0.15517,0.666314 -0.0388,0.112523 -0.09508,0.215209 -0.172664,0.303163 -0.200959,0.236235 -0.475928,0.504149 -0.733271,0.736833 -0.19744,0.176143 -0.41599,0.317265 -0.620468,0.47945 -0.310243,0.250199 -0.613412,0.507639 -0.923637,0.757938 -0.274988,0.218461 -0.571123,0.528825 -0.824945,0.715646 -0.02815,0.01995 -0.06352,0.02813 -0.09869,0.03171 z m 0,0"
     id="path786"
     inkscape:connector-curvature="0" />
  <path
     style="fill:#2347a3;fill-opacity:1;fill-rule:nonzero;stroke:none;stroke-width:0.90249568"
     d="m 124.66543,86.434138 c 0,0.03531 0.003,0.07043 -0.0281,0.09155 -0.0739,0.04948 -0.15518,0.07043 -0.24677,0.08099 -0.13407,0.01787 -0.27147,0.004 -0.40895,-0.004 l -13.31886,0.0059 c -0.10232,-0.0059 -0.18332,-0.0776 -0.26794,-0.134061 -0.0459,-0.02793 -0.0883,-0.06343 -0.11276,-0.116302 -0.0739,-0.137655 -0.15516,-0.278486 -0.16924,-0.437139 l -0.004,-2.055293 c 0.0282,-0.04948 0.0846,-0.07401 0.14109,-0.0776 l 14.29188,-0.02555 c 0.0281,0 0.0459,0.01 0.0599,0.02812 0.0281,0.03531 0.0459,0.06681 0.0459,0.112511 z m 0,0"
     id="path788"
     inkscape:connector-curvature="0" />
  <path
     style="fill:#2347a3;fill-opacity:1;fill-rule:nonzero;stroke:none;stroke-width:0.90249568"
     d="m 42.213981,95.237001 c -0.278506,-0.01995 -0.549957,-0.08099 -0.821408,-0.134061 -0.105729,-0.02574 -0.211513,-0.05965 -0.306707,-0.105729 -0.190348,-0.09155 -0.377217,-0.186716 -0.546439,-0.306713 -0.176277,-0.126874 -0.341962,-0.260912 -0.482984,-0.426568 -0.155169,-0.190512 -0.289079,-0.391336 -0.387791,-0.616938 -0.105728,-0.225701 -0.176276,-0.46886 -0.207975,-0.715647 -0.0388,-0.29616 -0.04221,-0.595813 0,-0.891935 0.0388,-0.246948 0.14452,-0.47945 0.239713,-0.715665 0.04583,-0.109113 0.105729,-0.207948 0.169241,-0.306714 0.09166,-0.127083 0.179701,-0.253771 0.292616,-0.356028 0.21505,-0.204457 0.451247,-0.370171 0.683925,-0.54997 0.204457,-0.154999 0.415991,-0.292611 0.620467,-0.447713 0.141098,-0.109114 0.271451,-0.236195 0.412454,-0.345515 0.419528,-0.320778 1.01885,-0.83901 1.371385,-1.092859 0.09869,-0.07043 0.186926,-0.162186 0.30317,-0.169166 l 3.944894,-0.004 c 0.116378,0 0.285562,-0.004 0.338445,0.01787 0.03537,0.0059 0.04925,0.05625 0.02815,0.08477 -0.03176,0.04569 -0.239714,0.243198 -0.3737,0.356068 -0.197404,0.16578 -0.41599,0.313734 -0.61693,0.479432 -0.07397,0.06343 -0.13045,0.144424 -0.204478,0.207947 -0.08462,0.06344 -0.190407,0.102332 -0.274989,0.169165 -0.303188,0.239687 -0.729752,0.620491 -1.032941,0.856666 -0.08462,0.06681 -0.190387,0.105728 -0.271432,0.176144 -0.225642,0.183521 -0.433637,0.391318 -0.655742,0.58167 -0.144521,0.126874 -0.310225,0.229192 -0.444191,0.363128 -0.09869,0.09156 -0.190387,0.197495 -0.260879,0.310227 -0.03519,0.05625 -0.05989,0.130468 -0.05647,0.193902 0.01141,0.09515 0.0388,0.190121 0.09166,0.267934 0.04583,0.06681 0.123413,0.112512 0.193886,0.158592 0.03176,0.01787 0.07054,0.03171 0.105728,0.03531 l 12.017992,-0.02554 c 0.0388,0.004 0.07054,0.01198 0.1023,0.03532 0.03176,0.01995 0.07397,0.0389 0.07759,0.0776 l 0.01712,2.464245 c -0.0039,0.09515 0.0039,0.183523 -0.03176,0.271466 -0.02129,0.04569 -0.06351,0.0776 -0.11276,0.08099 z m 0,0"
     id="path790"
     inkscape:connector-curvature="0" />
</svg>
