<svg width="500" height="179" viewBox="0 0 500 179" fill="none" xmlns="http://www.w3.org/2000/svg">
<g clip-path="url(#clip0_1_735)">
<mask id="mask0_1_735" style="mask-type:luminance" maskUnits="userSpaceOnUse" x="0" y="0" width="500" height="179">
<path d="M500 0H0V178.4H500V0Z" fill="white"/>
</mask>
<g mask="url(#mask0_1_735)">
<path d="M96.1291 0.0234448C40.1164 0.0048732 0 35.6182 0 86.9997C0 145.84 47.1374 178.37 101.477 178.372H402.109C457.634 178.396 500 138.697 499.901 87.4425C499.817 45.1395 467.346 0.0469035 405.692 0.0674299L96.1291 0.0234448Z" fill="white"/>
<path d="M84.5911 78.6955L79.1731 98.6901C78.8535 99.9217 77.9533 101.679 80.0606 103.009L79.7479 105.778C72.419 105.089 64.3364 104.784 60.5967 105.657L55.7095 105.078L73.2791 42.4966C73.7825 40.5838 74.1676 39.0394 74.0161 37.1549C73.9105 36.6623 73.2185 35.8871 72.808 35.7034L73.1589 33.2656C76.7872 33.5765 84.4533 34.6438 91.488 33.3243L97.2413 33.898C97.2413 33.898 95.9911 38.5781 95.2052 41.3892L86.4414 72.7223C92.2592 68.3814 103.439 62.8794 110.02 62.0388L115.194 42.7371C115.685 41.1008 116.367 37.6133 116.094 36.6808C115.694 36.3294 115.243 36.0401 114.757 35.8226L115.32 33.2656C118.412 33.6918 128.335 34.4063 134.349 33.3243L139.325 33.898C139.325 33.898 138.077 38.5781 137.289 41.3892L128.611 72.2365L121.392 98.6901C121.234 99.9745 119.91 101.646 122.343 103.149L121.856 105.833C114.789 104.927 106.425 104.784 102.685 105.657L97.861 105.135L107.391 70.9482C101.483 70.9482 91.3482 73.8454 84.5911 78.6955ZM378.013 60.9049C371.184 62.1649 368.431 68.1351 367.209 72.2463C372.78 72.2922 379.344 72.259 382.488 72.2805C383.661 69.9708 384.865 66.2594 383.632 63.634C382.51 61.4826 380.85 60.6518 378.013 60.9049ZM401.611 62.115C404.666 66.7354 403.613 72.4056 402.427 76.8168L366.128 76.7601C364.342 82.746 362.774 91.24 368.53 96.7137C374.168 101.099 382.054 99.1124 386.834 96.7137C389.701 95.3473 392.321 93.7931 394.795 91.6721C395.8 92.6505 398.155 95.49 398.155 95.49C388.891 102.781 376.578 109.448 361.875 106.506C354.654 105.562 347.679 99.8533 345.737 94.4021C341.997 80.4881 350.338 67.0443 363.448 59.904C373.372 54.5926 393.763 51.6231 401.611 62.115ZM168.653 60.5179C165.071 61.7289 161.596 64.9359 159.014 70.1897C154.85 78.6622 151.374 90.0241 153.296 98.9501C154.519 102.118 157.478 102.831 159.719 102.351C165.972 100.929 172.073 90.548 174.622 83.4859C175.948 79.2604 179.235 68.7333 175.55 62.3017C173.979 60.4651 172.06 59.6753 168.653 60.5179ZM193.739 63.98C200.591 74.0839 194.992 91.157 182.908 99.9765C175.444 105.444 166.829 107.718 156.38 107.379C150.479 107.324 143.979 105.239 139.827 101.878C134.445 97.8427 132.384 89.4083 133.184 85.781C135.283 71.3949 148.213 58.4027 165.831 55.9717C175.439 54.6463 188.087 56.4194 193.739 63.98ZM259.501 51.9945C260.698 49.7307 256.568 47.1161 253.366 47.1571C241.011 46.7876 233.343 59.6421 226.549 68.2856L226.239 68.4166C226.239 68.4166 227.694 62.8471 228.504 60.1171L224.599 59.515C216.865 61.1346 208.406 59.6127 206.657 59.4681L206.285 61.7084C208.912 63.0152 207.601 64.8773 207.296 66.9768L196.876 105.135L201.758 105.685C203.224 104.978 209.57 105.03 211.414 105.03L220.935 105.81L221.221 103.33C219.375 102.179 220.083 100.396 220.426 98.5504C220.426 98.5504 225.97 76.2284 228.348 72.7125C233.673 60.8971 249.242 54.7187 246.258 65.4804C246.463 65.6485 247.045 66.1714 247.045 66.1714C247.508 65.7677 257.382 56.0001 259.501 51.9945ZM431.8 72.5659L439.471 44.9833C440.259 42.1712 441.552 37.3611 441.552 37.3611L436.46 36.8822C428.326 38.2897 422.363 36.9487 417.456 36.6574L417.065 39.3287C417.332 39.3287 417.786 39.7705 418.335 40.4108C418.941 41.1165 417.866 44.7125 417.373 46.3468L400.991 105.169L406.326 105.628C410.066 104.756 417.897 104.876 424.963 105.783L425.432 103.376C423.73 102.356 423.983 100.692 424.196 99.6617L431.8 72.5659Z" fill="#ED1C24"/>
<path d="M264.559 60.0101C261.146 62.0842 248.276 69.2118 246.799 69.7943C246.68 70.2205 246.546 71.6769 246.546 71.6769C247.43 72.0043 248.007 72.9535 247.536 74.4314C244.879 84.1814 239 105.103 239 105.103L243.913 105.738C245.561 104.968 253.347 104.778 263.019 105.812L263.443 103.283L262.679 102.676C261.65 101.762 262.127 100.417 262.655 98.1638L267.178 81.687C268.599 77.7058 269.229 68.8609 277.471 63.7977C279.034 63.0939 280.372 63.0353 281.192 63.1936C286.486 63.8065 283.865 70.8588 283.264 73.537L275.389 101.968L274.529 105.135L279.347 105.726C283.783 104.614 292.136 105.182 298.51 105.823L298.885 103.337L298.416 102.892C297.355 102.178 297.242 101.168 298.275 98.1257C298.275 98.1257 303.103 79.8474 304.944 73.7716C306.113 69.5177 311.208 61.7108 318.008 63.2865C319.937 63.916 321.298 66.0644 320.087 70.5929L310.596 105.111L315.551 105.639C320.908 104.375 329.106 105.307 334.66 105.772L335.027 103.295C334.667 103.008 334.282 102.711 334.026 102.374C333.251 101.227 334.098 99.0894 334.534 97.072C334.534 97.072 341.31 73.7501 341.085 67.8394C340.985 65.2316 340.143 62.094 337.369 59.1812C334.486 56.0856 330.37 55.551 328.003 55.159C317.162 53.8981 307.86 60.7784 304.149 65.6646C304.149 65.6646 303.345 62.3227 302.261 60.8038C300.768 58.5996 297.761 56.589 294.879 55.7484C283.12 52.5971 277.049 59.0229 270.721 65.6392L272.171 61.0872C273.372 56.9761 271.268 55.9331 264.559 60.0101Z" fill="#ED1C24"/>
<path d="M262.387 57.035C271.475 48.3709 280.766 39.004 284.217 30.0008C285.51 26.6901 286.278 22.4744 285.508 17.8364C284.3 10.53 280.887 9.91619 278.824 10.2328C277.805 10.3883 275.547 11.5895 275.217 14.1915C273.991 12.0128 270.25 10.3883 267.453 12.9208C267.453 12.9208 265.026 14.9793 266.307 19.1814C263.261 18.1551 260.224 20.2732 259.486 23.013C259.121 25.8769 260.391 28.4769 263.996 29.3468C268.312 30.3849 274.005 35.9554 268.602 46.7572C267.237 49.8136 262.205 55.261 261.643 56.0058C261.232 56.4212 261.705 57.6498 262.387 57.035Z" fill="#00A650"/>
<path d="M310.906 124.222L313.195 116.201C313.421 115.432 313.916 113.741 313.633 113.409C313.383 113.106 313.175 112.898 313.05 112.898L313.232 111.642C315.496 111.777 318.132 112.41 321.886 111.746L324.234 111.972C324.234 111.972 323.638 114.235 323.277 115.559L319.331 130.186L315.822 142.938C315.727 143.426 315.606 144.208 316.393 144.687L316.18 145.821C312.916 145.394 309.418 145.338 307.693 145.749L305.812 145.735L307.244 140.113C305.536 143.814 301.673 146.169 298.899 146.169C296.064 146.144 294.059 145.422 292.331 143.633C290.618 141.861 289.699 137.53 290.025 135.283C291.031 128.239 295.581 122.293 304.045 121.098C306.189 120.798 309.952 121.475 310.906 124.222ZM308.597 133.088C310.448 126.359 308.186 123.914 305.672 124.366C304.105 124.8 302.453 125.803 301.212 128.376C299.21 132.526 296.983 137.579 298.578 141.162C299.423 143.065 302.193 142.593 303.426 141.526C304.584 140.526 307.303 138.359 308.23 134.352L308.597 133.088ZM323.973 140.53C326.594 142.197 328.929 142.942 332.627 143.135C336.675 143.348 339.221 142.255 339.82 139.958C340.736 136.438 325.107 135.843 327.183 128.815C328.014 126.004 329.866 124.077 332.971 122.724C336.087 121.316 339.34 121.057 342.397 121.057C345.454 121.057 348.405 121.419 351.216 122.048L349.829 126.314C348.234 125.058 345.658 124.234 343.009 124.234C341.834 124.234 337.311 124.385 336.705 126.887C336.314 128.524 339.561 129.378 340.843 129.802C342.825 130.462 344.926 131.158 346.479 132.252C348.536 133.657 350.041 135.481 349.254 138.135C347.192 145.111 338.716 146.571 332.485 146.571C329.197 146.571 325.802 145.79 322.753 145.166L323.973 140.53ZM270.847 123.328C269.131 123.919 267.462 125.491 266.222 128.063C264.223 132.211 262.55 137.778 263.473 142.148C264.065 143.697 265.483 144.048 266.558 143.814C269.562 143.118 272.489 138.034 273.713 134.574C274.351 132.504 275.932 127.351 274.164 124.202C273.409 123.3 272.485 122.916 270.847 123.328ZM282.893 125.021C286.184 129.97 283.494 138.332 277.693 142.65C274.109 145.328 269.974 146.44 264.955 146.274C262.121 146.248 259.002 145.228 257.006 143.584C254.422 141.605 253.434 137.475 253.821 135.699C254.826 128.655 261.037 122.293 269.495 121.098C274.109 120.453 280.18 121.32 282.893 125.021ZM214.67 124.547C214.67 124.547 208.458 124.593 202.651 124.519L204.968 116.213C204.968 116.213 214.471 116.233 216.127 116.233C217.782 116.233 219.417 117.787 219.526 118.723H220.983L222.666 112.004C222.666 112.004 199.807 112.083 194.969 111.863L194.708 113.065C194.898 113.151 195.133 113.291 195.324 113.47C195.451 113.91 195.137 115.551 194.91 116.319L186.912 145.686L189.137 145.93C190.863 145.519 194.722 145.585 197.984 146.016L198.209 144.75C197.085 144.042 197.696 143.259 197.769 142.65L201.617 128.771L208.131 128.777C209.787 128.777 211.422 130.334 211.533 131.27H212.989L214.67 124.547ZM234.888 123.328C233.167 123.919 231.499 125.491 230.259 128.063C228.261 132.211 226.589 137.778 227.514 142.148C228.1 143.697 229.522 144.048 230.597 143.814C233.599 143.118 236.528 138.034 237.754 134.574C238.389 132.504 239.967 127.351 238.199 124.202C237.445 123.3 236.523 122.916 234.888 123.328ZM246.932 125.021C250.219 129.97 247.532 138.332 241.731 142.65C238.146 145.328 234.012 146.44 228.993 146.274C226.159 146.248 223.04 145.228 221.046 143.584C218.461 141.605 217.473 137.475 217.857 135.699C218.865 128.655 225.072 122.293 233.532 121.098C238.146 120.453 244.216 121.32 246.932 125.021Z" fill="#ED1C24"/>
<path d="M136.338 167.606H401.287C449.736 167.596 489.272 134.769 489.272 87.813C489.262 47.0466 457.713 10.8732 407.397 10.7461H320.506C323.082 11.096 324.633 15.4085 323.124 16.6831H401.81C453.115 16.6831 478.555 47.1648 478.555 87.4523C478.555 124.707 446.463 152.636 400.684 152.636H168.05C157.194 159.228 153.492 162.17 136.337 166.706C135.696 166.747 135.776 167.606 136.338 167.606Z" fill="#00A650"/>
<path d="M128.709 151.877C118.019 153.051 116.237 152.832 96.6333 152.82C58.4034 152.794 21.3053 128.546 21.3053 88.0592V87.6927C21.3053 39.7596 55.8698 16.683 96.1798 16.683H260.607C259.78 13.9696 261.442 11.6511 263.231 10.746H94.4751C43.4777 10.746 10.4087 44.3037 10.4087 87.7826C10.4087 141.218 55.5404 167.679 98.6459 167.679C115.7 167.679 128.153 164.388 137.618 161.257C153.536 155.989 168.938 144.576 183.069 131.972C184.238 130.828 183.385 129.953 182.087 130.946C165.544 142.938 143.892 150.208 128.708 151.877M300.077 2.42985C300.077 2.42985 295.929 2.36534 295.554 7.11183C295.554 7.11183 291.497 3.49136 288.235 6.82055C287.333 7.96807 287.534 9.30131 287.964 10.4977C287.964 10.4977 295.205 22.2075 286.315 35.6123L286.108 35.9231C285.029 37.4596 284.896 38.1321 287.068 36.4988C288.671 35.2917 290.205 34.0347 290.205 34.0347C307.189 20.3778 315.193 18.2977 315.193 18.2977C316.052 18.0055 317.019 17.7514 317.48 16.8052C318.089 15.5609 317.072 14.2599 316.204 13.6646C316.204 13.6646 314.787 12.7087 312.435 12.9159C312.435 12.9159 315.49 9.18988 312.152 6.17739C312.152 6.17739 308.949 3.91166 305.469 6.61529C305.469 6.61529 304.656 2.29496 300.077 2.42985ZM282.138 46.6369C283.793 45.637 285.393 44.7025 286.762 43.991C299.608 37.6512 304.759 42.7574 304.759 42.7574C309.147 45.5607 308.053 50.0521 308.053 50.0521C311.908 51.2182 314.677 49.1304 315.531 47.3807C316.598 45.1952 316.186 43.1816 316.186 43.1816C322.359 43.8639 323.501 38.8848 323.501 38.8848C324.59 33.8871 319.852 32.2606 319.852 32.2606C326.023 29.1377 323.87 24.0012 320.033 23.5584C316.198 23.1146 312.634 24.833 309.401 26.4858C304.56 28.9588 291.028 38.4625 281.724 46.0377C280.65 46.9604 280.822 47.4032 282.138 46.6369Z" fill="#00A650"/>
</g>
</g>
<defs>
<clipPath id="clip0_1_735">
<rect width="500" height="179" fill="white"/>
</clipPath>
</defs>
</svg>
