<?xml version="1.0" encoding="UTF-8" standalone="no"?>
<svg
   xmlns:dc="http://purl.org/dc/elements/1.1/"
   xmlns:cc="http://creativecommons.org/ns#"
   xmlns:rdf="http://www.w3.org/1999/02/22-rdf-syntax-ns#"
   xmlns:svg="http://www.w3.org/2000/svg"
   xmlns="http://www.w3.org/2000/svg"
   xmlns:sodipodi="http://sodipodi.sourceforge.net/DTD/sodipodi-0.dtd"
   xmlns:inkscape="http://www.inkscape.org/namespaces/inkscape"
   width="277.13251"
   height="121.69781"
   viewBox="0 0 155.58719 105.61357"
   id="svg2"
   sodipodi:version="0.32"
   inkscape:version="0.47 r22583"
   sodipodi:docname="IGA.svg"
   inkscape:output_extension="org.inkscape.output.svg.inkscape"
   version="1.0">
  <metadata
     id="metadata27">
    <rdf:RDF>
      <cc:Work
         rdf:about="">
        <dc:format>image/svg+xml</dc:format>
        <dc:type
           rdf:resource="http://purl.org/dc/dcmitype/StillImage" />
      </cc:Work>
    </rdf:RDF>
  </metadata>
  <defs
     id="defs25">
    <inkscape:perspective
       sodipodi:type="inkscape:persp3d"
       inkscape:vp_x="0 : 111.77245 : 1"
       inkscape:vp_y="0 : 1000 : 0"
       inkscape:vp_z="345.55356 : 111.77245 : 1"
       inkscape:persp3d-origin="172.77678 : 74.514969 : 1"
       id="perspective16" />
  </defs>
  <sodipodi:namedview
     inkscape:window-height="838"
     inkscape:window-width="1440"
     inkscape:pageshadow="2"
     inkscape:pageopacity="0.0"
     guidetolerance="10.0"
     gridtolerance="10.0"
     objecttolerance="10.0"
     borderopacity="1.0"
     bordercolor="#666666"
     pagecolor="#ffffff"
     id="base"
     showgrid="false"
     inkscape:zoom="2.3504865"
     inkscape:cx="225.18629"
     inkscape:cy="63.287428"
     inkscape:window-x="-8"
     inkscape:window-y="-8"
     inkscape:current-layer="svg2"
     inkscape:window-maximized="1" />
  <g
     transform="matrix(1.60233,0,0,1.60233,88.514107,0)"
     style="fill:#ffffff;fill-rule:evenodd;stroke:none"
     id="g8">
    <path
       d="m 0,65.9125 c 0,0 23.169,-59.724 23.169,-59.724 C 24.609,2.3028 28.063,0 33.387,0 c 0,0 23.314,0 23.314,0 6.476,0 11.657,2.4473 11.657,9.7862 0,1.4394 -0.287,3.0224 -0.864,4.749 0,0 -18.996,51.3773 -18.996,51.3773 0,0 -19.86,0 -19.86,0 0,0 7.628,-20.868 7.628,-20.868 0,0 -8.779,0 -8.779,0 0,0 -8.347,20.868 -8.347,20.868 0,0 -19.14,0 -19.14,0 z"
       id="path10"
       style="fill:#ff0000" />
  </g>
  <g
     transform="matrix(1.60233,0,0,1.60233,142.92111,22.8411)"
     style="fill:#ffffff;fill-opacity:1;fill-rule:evenodd;stroke:none"
     id="g12">
    <path
       d="M 3.167,5.7569 C 3.167,5.7569 0,13.96 0,13.96 c 0,0 8.923,0 8.923,0 0,0 2.734,-6.7647 2.734,-6.7647 1.44,-3.5976 1.46,-3.5976 1.46,-4.3173 C 13.117,1.1514 11.802,0 9.356,0 5.757,0 4.606,1.8711 3.167,5.7569 z"
       id="path14"
       style="fill:#ffffff;fill-opacity:1" />
  </g>
  <g
     transform="matrix(1.60233,0,0,1.60233,9.4024065,0)"
     style="fill:#ff0000;fill-rule:evenodd;stroke:none"
     id="g16">
    <path
       d="m 2.0147,47.7795 c 0,0 12.9531,-33.5314 12.9531,-33.5314 C 19.2842,3.0225 21.1553,0 31.5166,0 c 0,0 35.4033,0 35.4033,0 0,0 -6.476,16.8379 -6.476,16.8379 0,0 -21.2993,0 -21.2993,0 -3.5977,0 -4.6055,0.4317 -5.6123,2.8789 0,0 -9.9307,25.1847 -9.9307,25.1847 -0.2871,0.72 -0.5752,1.87 -0.5752,2.446 0,1.727 1.8711,2.446 4.749,2.446 0,0 7.9151,0 7.9151,0 0,0 2.5908,-7.339 2.5908,-7.339 0,0 -7.1953,0 -7.1953,0 0,0 5.6123,-14.2474 5.6123,-14.2474 0,0 20.1476,0 20.1476,0 0,0 -14.3908,37.7054 -14.3908,37.7054 0,0 -32.3808,0 -32.3808,0 C 5.1807,65.9125 0,62.7465 0,56.1265 c 0,-2.159 0.5762,-4.749 2.0147,-8.347 z"
       id="path18"
       style="fill:#ff0000" />
  </g>
  <g
     transform="matrix(1.60233,0,0,1.60233,-42.458993,0)"
     style="fill:#ff0000;fill-rule:evenodd;stroke:none"
     id="g20">
    <path
       d="M 0,65.9125 C 0,65.9125 26.0489,0 26.0489,0 c 0,0 20.1474,0 20.1474,0 0,0 -26.0478,65.9125 -26.0478,65.9125 0,0 -20.1485,0 -20.1485,0 z"
       id="path22"
       style="fill:#ff0000" />
  </g>
</svg>
