<?xml version="1.0" encoding="UTF-8" standalone="no"?>
<svg
   xmlns:dc="http://purl.org/dc/elements/1.1/"
   xmlns:cc="http://creativecommons.org/ns#"
   xmlns:rdf="http://www.w3.org/1999/02/22-rdf-syntax-ns#"
   xmlns:svg="http://www.w3.org/2000/svg"
   xmlns="http://www.w3.org/2000/svg"
   version="1.1"
   id="svg2"
   viewBox="0 0 189.47812 85.499997"
   height="24.129999mm"
   width="53.474937mm">
  <defs
     id="defs4" />
  <metadata
     id="metadata7">
    <rdf:RDF>
      <cc:Work
         rdf:about="">
        <dc:format>image/svg+xml</dc:format>
        <dc:type
           rdf:resource="http://purl.org/dc/dcmitype/StillImage" />
        <dc:title></dc:title>
      </cc:Work>
    </rdf:RDF>
  </metadata>
  <g
     transform="translate(-104.52332,-241.11837)"
     id="layer1">
    <g
       id="flowRoot4136"
       style="font-style:normal;font-variant:normal;font-weight:600;font-stretch:normal;font-size:5px;line-height:50%;font-family:'Segoe UI';-inkscape-font-specification:'Segoe UI, Semi-Bold';text-align:start;letter-spacing:0px;word-spacing:0px;writing-mode:lr-tb;text-anchor:start;fill:#000000;fill-opacity:1;stroke:none;stroke-width:1px;stroke-linecap:butt;stroke-linejoin:miter;stroke-opacity:1"
       transform="translate(32.898164,74.588947)">
      <path
         id="path4155"
         d="m 110.95988,219.17101 c -0.46493,3.25454 -1.28962,3.66268 -4.45144,3.73841 -3.00502,0.072 -4.44328,0.0209 -4.44328,-4.41 l 0,-32.81 -0.63,-0.54 -18.270004,2.61 0,7.24 3.15,0.45 c 1.44,0.18 2.16,0.99 2.16,4.59 l 0,18.46 c 0,3.78 -0.72,4.14 -5.85,4.41 l 0,7.42 46.686564,0 0,-7.42 -1.89,-0.18 c -1.89,-0.18 -2.88,-0.63 -2.88,-3.6 l 0,-17.33 c 0,-1.98 0.27,-4.05 0.9,-5.31 1.17,-2.34 3.6,-4.41 7.38,-4.41 4.59,0 6.93,2.79 7.11,8.19 l 0,18.86 c 0,2.97 -2.88,3.6 -2.88,3.6 l -1.89,0.18 0,7.42 24.21,0 0,-7.42 c -5.13,-0.27 -5.85,-0.63 -5.85,-4.41 l 0,-19.49 c -0.09,-8.46 -4.32,-13.86 -13.59,-13.86 -5.22,0 -9.45,0.7 -15.39,4.21 l -0.23933,-4.21 -18.66067,2.61 0,7.24 3.15,0.45 c 1.44,0.18 2.16,0.99 2.16,4.59 l 0,18.46"
         style="font-style:normal;font-variant:normal;font-weight:bold;font-stretch:normal;font-size:90px;font-family:'Linguistics Pro';-inkscape-font-specification:'Linguistics Pro Bold'" />
      <path
         id="path4145"
         d="m 86.585156,175.35942 c 0,4.32 3.15,7.92 8.19,7.92 4.95,0 8.280004,-3.6 8.280004,-7.92 0,-4.23 -3.150004,-7.83 -8.280004,-7.83 -5.04,0 -8.19,3.6 -8.19,7.83 z"
         style="font-style:normal;font-variant:normal;font-weight:bold;font-stretch:normal;font-size:90px;font-family:'Linguistics Pro';-inkscape-font-specification:'Linguistics Pro Bold'" />
      <path
         id="path4149"
         style="font-style:normal;font-variant:normal;font-weight:bold;font-stretch:normal;font-size:90px;font-family:'Linguistics Pro';-inkscape-font-specification:'Linguistics Pro Bold'"
         d="m 175.39219,216.64942 0,-18.22 c 0,0 3.16304,-4.2584 7.83,-4.35 4.23,0 9,0.34 9,14.92 0,11.16 -2.43,16.27 -9.36,16.27 -3.96,0 -6.3,-2.07 -7.11,-6.03 -0.27,-1.35 -0.36,-0.88 -0.36,-2.59 z m -19.44,28.96 0,5.42 26.91,0 0,-5.42 c -6.57,-0.27 -7.47,-0.63 -7.47,-4.41 l 0,-10.87 c 1.53,0.63 4.68,1.08 7.11,1.08 13.32,0 24.03,-4.68 24.03,-24.39 0,-14.94 -7.83,-21.87 -16.29,-21.87 -6.3,0 -10.44,2.88 -14.85,6.21 l -0.15752,-5.94409 -18.74248,2.34409 0,7.24 3.15,0.45 c 1.44,0.18 2.16,0.99 2.16,4.59 l 0,41.16 c 0,3.78 -0.72,4.14 -5.85,4.41 z" />
      <path
         id="path4151"
         style="font-style:normal;font-variant:normal;font-weight:bold;font-stretch:normal;font-size:90px;font-family:'Linguistics Pro';-inkscape-font-specification:'Linguistics Pro Bold'"
         d="m 221.16328,216.82942 c 0,-4.23 1.44,-4.3 4.14,-5.83 2.79,-1.53 5.94,-2.79 8.1,-3.78 l 0,9.05 c -0.18,4.86 -3.15,6.12 -5.58,6.12 -3.51,0 -6.66,-0.79 -6.66,-5.56 z m -13.86,1.53 c 0,6.75 4.5,13.05 13.59,13.05 5.76,0 9.72,-1.15 12.87,-3.22 1.17,2.79 2.7,3.22 7.02,3.22 4.68,0 8.35,-1.53 11.32,-2.7 l -0.27,-6.97 c -1.17,0.09 -2.32,-0.45 -2.32,-0.45 -1.17,-0.36 -2.88,-1.44 -2.88,-6.75 l 0,-16.79 c 0,-5.58 -0.9,-12.6 -16.83,-12.6 -13.23,0 -21.25647,5.22046 -21.33,11.07 -0.093,7.39752 5.38805,6.32091 7.72805,6.32091 1.98,0 5.34195,-2.09091 6.06195,-4.25091 2.33403,-5.97624 5.4245,-7.35059 7.92,-7 3.31975,0.46639 3.54658,3.53169 3.22,7.43 -0.22111,2.63934 -10.71,6.41 -16.56,8.39 -7.11,2.43 -9.54,6.12 -9.54,11.25 z" />
    </g>
  </g>
</svg>
