<svg width="163" height="49" viewBox="0 0 163 49" fill="none" xmlns="http://www.w3.org/2000/svg">
<g clip-path="url(#clip0)">
<path d="M89.1328 23.8847V23.8677H72.4116V48.9996H79.7649V43.5455H89.1328V43.5339C94.892 43.5339 98.0501 39.7875 98.0501 35.1697V32.2543C98.0501 27.6328 94.892 23.8909 89.1328 23.8847ZM90.4678 35.1697C90.4844 35.3479 90.4622 35.5274 90.4028 35.6962C90.3435 35.8649 90.2484 36.0189 90.124 36.1475C89.9997 36.2761 89.849 36.3764 89.6823 36.4414C89.5156 36.5064 89.3368 36.5347 89.1581 36.5242H79.7649V30.9056H89.1581C89.3366 30.8948 89.5153 30.9227 89.6819 30.9873C89.8486 31.052 89.9993 31.152 90.1237 31.2803C90.2481 31.4086 90.3432 31.5623 90.4026 31.7309C90.462 31.8994 90.4843 32.0788 90.4678 32.2568V35.1697Z" fill="#280091"/>
<path d="M25.9311 23.8682H16.0574L7.35159 34.714V23.8682H0V48.9889H7.35159V38.5174L15.968 48.9889H25.9311L15.1367 36.3448L25.9311 23.8682Z" fill="#280091"/>
<path d="M163 23.8682H137.341V30.9231H146.495V48.9889H153.845V30.9231H163V23.8682Z" fill="#280091"/>
<path d="M123.436 23.8682H114.481L101.283 48.9997H110.35L111.994 45.4722H125.924L127.568 48.9997H136.636L123.436 23.8682ZM114.887 38.3952L118.959 30.5658L123.03 38.3952H114.887Z" fill="#280091"/>
<path d="M52.74 23.8682H43.7849L30.5859 48.9997H39.6537L41.2972 45.4722H55.2285L56.8712 48.9997H65.9394L52.74 23.8682ZM44.1918 38.3952L48.2631 30.5658L52.3335 38.3952H44.1918Z" fill="#280091"/>
</g>
<defs>
<clipPath id="clip0">
<rect width="163" height="49" fill="white"/>
</clipPath>
</defs>
</svg>
