<?xml version="1.0" encoding="utf-8"?>
<!-- Generator: Adobe Illustrator 14.0.0, SVG Export Plug-In . SVG Version: 6.00 Build 43363)  -->
<!DOCTYPE svg PUBLIC "-//W3C//DTD SVG 1.0//EN" "http://www.w3.org/TR/2001/REC-SVG-20010904/DTD/svg10.dtd">
<svg version="1.0" id="Layer" xmlns="http://www.w3.org/2000/svg" xmlns:xlink="http://www.w3.org/1999/xlink" x="0px" y="0px"
	 width="558px" height="287px" viewBox="0 0 558 287" enable-background="new 0 0 558 287" xml:space="preserve">
<path id="Shape" fill="#D9153D" d="M456.159,4.48H40.254C20.231,4.48,4,20.712,4,40.734v182.488
	c0,20.022,16.231,36.254,36.254,36.254h104.688c7.236,4.327,14.708,8.071,22.362,11.201c19.181,7.845,39.511,11.822,60.423,11.822
	c39.354,0,74.005-10.93,104.578-20.573c2.641-0.833,5.236-1.65,7.796-2.45h116.058c20.022,0,36.254-16.231,36.254-36.254V40.734
	C492.413,20.712,476.182,4.48,456.159,4.48z"/>
<path id="Wave" fill="#FECC1E" d="M102.211,198.7c0,0,39.636,28.187,99.973,28.187c60.336,0,80.155-21.142,151.501-21.142
	c65.621,0,83.237,30.39,83.237,30.39s-25.103-3.524-43.6-3.524c-44.042,0-98.652,34.352-165.594,34.352
	C144.931,266.962,102.211,198.7,102.211,198.7"/>
<path id="Kathi" fill="#FFFFFF" d="M102.211,105.332l45.036,83.715c0,0-14.209-0.219-23.896-0.037
	c-11.803,0.222-19.202-3.662-25.332-16.523c-5.176-10.858-22.532-46.525-22.532-46.525s0.061,47.265,0.061,52.022
	s7.356,10.886,7.356,10.886H37.102c0,0,5.726-4.854,5.726-10.939S42.554,57.097,42.554,53.277c0-3.818-6.844-10.543-6.844-10.543
	l47.564,0.061c0,0-7.487,5.521-7.487,10.129s-0.679,55.846-0.679,55.846s20.439-32.139,27.033-42.633
	c9.177-14.607-5.391-23.402-5.391-23.402l46.86,0.061L102.211,105.332z M226.97,152.423v-39.214
	c0-18.867-17.31-28.959-38.104-28.486c-16.278,0.37-29.226,4.439-29.226,4.439l-12.578,28.115c0,0,10.726-8.902,30.335-11.098
	c24.786-2.775,24.971,17.387,3.33,20.347c-25.664,3.51-35.885,15.907-36.625,32.925s12.812,27.156,22.937,31.075
	c5.734,2.22,22.566,1.665,28.485-0.37c1.666-5.45,2.286-7.131,4.069-14.058c-37.364,1.85-35.145-38.104-0.37-38.104
	c0,0,0.583,26.962,2.959,38.845c2.959,14.798,21.827,15.907,35.515,13.688l4.439-18.127C233.629,170.92,226.97,165,226.97,152.423z
	 M281.599,56.113h-13.565c0,0,1.356,12.209-5.796,21.827c-9.838,13.23-22.69,15.661-22.69,15.661v14.313l11.345-0.008
	c0,0-0.445,44.269-0.247,55.861c0.247,14.428,8.876,26.743,21.704,26.759c10.38,0.013,21.424,0.013,21.424,0.013l7.802-18.756
	c-13.318,0-20.594-6.413-20.594-16.771s0.494-47.105,0.494-47.105h7.399c5.136-0.018,12.702,7.398,12.702,7.398l0.123-27.869
	l-20.223-0.246L281.599,56.113z M396.404,110.896c0.054-7.309-5.334-16.802-14.705-22.475c-9.372-5.672-25.989-6.658-37.333,4.687
	l-0.088-53.048c0,0-3.29,2.434-11.343,2.434c-8.054,0-26.796-0.068-26.796-0.068s7.769,7.77,7.769,13.441
	c0,3.985-0.123,116.349-0.123,120.355c0,6.782-8.139,14.551-8.139,14.551l45.873-0.123c0,0-8.139-7.399-8.139-14.428
	c0-4.733,0.215-40.17,0.308-56.726c4.717-19.792,21.179-13.133,21.149,0.124c-0.031,13.566-0.124,51.113-0.124,56.848
	s-7.029,14.182-7.029,14.182h46.243c0,0-7.769-6.905-7.769-14.059C396.158,169.439,396.219,136.237,396.404,110.896z
	 M408.488,190.156h49.326c0,0-8.632-6.781-8.632-14.304s0.246-91.746,0.246-91.746s-4.381,2.344-11.04,2.344
	s-27.804-0.001-27.804-0.001s6.659,7.029,6.659,13.195c0,6.165-0.123,69.61-0.123,76.084
	C417.121,182.203,408.488,190.156,408.488,190.156z M430.191,79.79c10.284,0,18.621-8.337,18.621-18.62
	c0-10.284-8.337-18.621-18.621-18.621c-10.283,0-18.619,8.337-18.619,18.621C411.572,71.453,419.908,79.79,430.191,79.79z"/>
<path id="Registred_Mark" fill="#D9153D" d="M525.145,194.226c-15.911,0-28.855,12.944-28.855,28.855s12.944,28.856,28.855,28.856
	S554,238.992,554,223.081S541.056,194.226,525.145,194.226z M534.374,214.844c0,3.271-0.645,4.675-1.185,5.278
	c-0.765,0.854-2.313,1.286-4.603,1.286h-8.813v-12.113h9.952c1.953,0,3.212,0.425,3.745,1.262c0.076,0.12,0.148,0.229,0.217,0.33
	C534.159,211.594,534.374,211.916,534.374,214.844z M538.603,241.645v-9.929c0-3.956-1.054-6.521-3.14-7.657
	c1.094-0.571,1.904-1.384,2.419-2.428c0.759-1.54,1.128-4.116,1.128-7.876c0-4.033-0.596-4.969-1.944-6.701l-0.143-0.184
	c-1.43-1.844-3.865-2.778-7.24-2.778h-14.695v38.362h4.786v-15.842h10.339c0.916,0,3.704,0,3.704,6.106v9.735h3.597
	c-3.55,2.255-7.76,3.563-12.269,3.563c-12.647,0-22.937-10.289-22.937-22.937s10.289-22.936,22.937-22.936
	s22.937,10.288,22.937,22.936C548.081,230.705,544.343,237.472,538.603,241.645z"/>
</svg>
