<svg width="500" height="175" viewBox="0 0 500 175" fill="none" xmlns="http://www.w3.org/2000/svg">
<g clip-path="url(#clip0_2_2149)">
<mask id="mask0_2_2149" style="mask-type:luminance" maskUnits="userSpaceOnUse" x="-2496" y="-187" width="3172" height="4106">
<path d="M-2495.85 3918.37H675.965V-186.327H-2495.85V3918.37Z" fill="white"/>
</mask>
<g mask="url(#mask0_2_2149)">
<path d="M478.814 58.0888C470.055 58.0732 462.11 65.1374 452.227 73.3623C443.157 80.8979 424.603 99.9495 407.676 110.802C412.393 103.391 423.764 87.3765 425.474 79.8616C427.272 71.9838 421.499 68.9258 413.553 73.7976C404.898 79.1357 396.642 104.79 384.416 104.79C382.188 104.79 380.633 103.702 380.654 101.214C380.706 93.6993 392.341 78.7214 413.227 70.4809C416.466 69.1852 417.71 67.0966 417.725 65.2982C417.725 64.7281 417.632 60.9237 411.216 60.9237C390.589 60.9237 362.748 84.9976 358.845 103.453C354.828 107.496 347.599 113.487 338.436 117.395C348.78 102.743 357.684 90.9628 362.354 78.7316C367.744 64.4792 360.073 62.6133 352.196 66.7802C344.525 70.833 339.135 82.0848 336.855 86.3709C334.626 90.6207 332.709 96.0625 325.971 101.478C319.234 106.894 312.237 105.987 317.171 95.4147C321.592 85.9718 331.527 76.0678 340.078 71.507C342.1 70.4187 343.877 69.7758 343.81 67.0497C343.706 62.7221 338.7 59.7213 331.563 62.7998C321.871 66.9978 317.218 69.7967 309.003 69.7967C302.483 69.7967 299.104 68.0346 296.321 66.8789C292.589 65.293 289.843 65.8421 288.391 66.3085C287.085 66.7542 285.023 68.0189 283.297 69.9105C281.928 71.4135 280.773 73.8753 280.498 75.4561C278.581 87.0135 268.464 107.745 261.032 107.745C258.467 107.745 255.642 107.019 256.367 101.11C257.559 91.4396 269.221 78.3687 271.916 75.767C274.611 73.1446 279.69 71.3619 280.052 68.4595C280.363 66.0237 278.881 63.3028 274.092 63.3028C258.373 63.3028 237.368 85.0908 235.274 104.661C232.838 106.941 229.905 109.17 226.551 109.17C219.296 109.17 217.233 102.38 217.751 96.9903C236.844 79.763 273.061 41.354 274.155 14.0153C274.414 7.48505 271.231 4.21988 265.883 4.21988C252.408 4.21988 233.522 23.914 221.778 39.0993C207.329 57.7985 198.435 80.3796 195.295 97.498C184.722 106.671 180.431 107.283 175.828 107.283C169.433 107.283 167.199 102.655 167.401 99.0167C185.23 82.8156 216.222 44.2148 216.844 25.1373C217.031 19.4882 213.838 16.8242 208.122 16.8242C195.968 16.8242 178.757 29.6515 166.38 46.5419C154.02 63.4375 146.002 83.308 143.732 101.323C134.481 109.636 127.562 111.326 121.861 111.326C118.414 111.326 115.885 108.9 115.279 107.884C123.468 103.158 142.125 91.2998 142.125 73.6267C142.125 64.8473 136.201 60.9291 130.309 60.9291C115.32 60.9291 91.7493 79.6075 91.9048 105.386C91.9048 105.842 91.9774 107.428 92.0603 108.004C85.271 110.336 80.5962 112.72 81.6742 117.602C82.6589 122.028 88.1526 121.8 95.3047 119.276C96.9528 122.334 103.96 127.376 113.859 127.376C127.261 127.376 137.492 121.017 145.577 114.109C148.971 122.064 157.342 126.236 166.1 126.236C176.725 126.236 187.246 119.032 195.538 112.502C196.502 118.602 202.706 128.102 213.439 128.102C223.234 128.102 230.718 122.401 236.632 116.234C238.187 122.453 243.888 127.376 251.32 127.376C276.108 127.376 290.008 92.2894 293.211 79.6955C293.626 78.0888 295.16 77.726 296.217 78.1044C300.83 79.711 303.089 80.5091 308.915 79.8457C299.482 87.257 291.169 99.9029 291.169 109.144C291.169 118.369 299.166 122.655 305.007 122.655C310.864 122.655 318.607 118.872 323.701 114.104C322.354 116.819 320.54 120.97 317.637 123.899C312.299 125.365 296.647 131.015 286.697 137.063C277.264 142.816 268.142 151.958 268.142 162.479C268.142 168.107 272.755 174.71 283.603 174.71C301.835 174.71 314.595 162.79 331.802 131.486C346.054 125.511 354.605 119.929 360.203 115.187C362.659 119.468 367.386 121.458 372.123 121.458C379.12 121.458 383.318 119.436 388.967 115.378C388.19 117.296 386.946 120.178 385.028 122.738C374.839 126.977 362.602 132.585 356.337 136.368C339.622 146.443 335.917 155.477 335.917 162.593C335.917 166.946 339.648 174.513 350.91 174.513C375.269 174.513 390.351 144.22 400.177 127.091C407.381 123.272 417.674 116.187 428.252 108.071C427.889 109.367 427.718 110.714 427.718 112.243C427.718 119.846 434.611 126.998 445.909 126.998C468.231 126.998 475.176 110.548 474.901 92.7924C474.798 86.9877 473.942 82.3646 473.865 80.3019C473.657 74.8808 475.461 71.9578 480.395 71.9578C485.37 71.9578 488.739 71.0768 488.739 66.827C488.739 60.9446 484.541 58.2754 478.84 58.2754M253.911 26.7648C254.548 26.7648 254.813 27.3347 254.792 28.2158C254.6 35.2124 236.601 63.484 219.949 79.9391C229.972 50.4754 249.957 26.7648 253.895 26.7648M111.568 97.6847C112.294 85.127 122.244 75.451 126.173 75.451C127.624 75.451 128.298 76.2801 128.298 78.006C128.298 82.4838 122.286 91.8438 111.594 97.6847M196.175 37.1508C196.927 37.1508 197.248 37.7364 197.223 38.69C197.093 43.8624 184.136 67.6095 167.505 84.0646C176.243 57.3737 190.464 37.1612 196.165 37.1612M287.158 158.747C285.883 158.747 285.24 157.918 285.24 156.695C285.24 149.061 302.188 140.038 311.076 136.778C307.241 142.987 293.165 158.753 287.142 158.753M354.984 159.167C353.74 159.167 353.274 158.421 353.274 157.198C353.274 150.46 368.635 140.022 377.513 136.767C372.9 144.749 360.073 159.157 354.968 159.157M447.557 110.647C446.49 110.647 444.862 110.387 444.862 106.796C444.862 104.184 443.618 101.292 439.068 101.292C438.446 101.292 437.772 101.344 437.005 101.473C446.749 93.7511 454.367 85.2515 461.467 79.4987C460.016 97.0681 455.818 110.647 447.526 110.647" fill="#D31245"/>
<path d="M438.996 54.8342C438.669 57.9179 435.233 59.3019 434.932 62.0591C434.761 63.6658 435.897 64.728 437.897 64.702C443.007 64.6502 456.71 56.7416 457.902 44.4378C458.503 38.2341 454.627 32.8492 447.863 32.8492C441.022 32.8492 434.834 39.2655 434.259 44.6555C433.704 49.9263 439.312 51.8334 438.996 54.8342ZM82.8562 141.603C78.4664 141.375 76.409 136.135 76.409 129.787C76.409 122.806 80.9179 107.682 82.7059 100.525C84.5199 93.3056 85.2972 81.6287 78.767 74.9327C103.592 64.9456 140.338 30.9317 145.054 23.5049C149.77 16.0677 150.703 6.60931 144.173 1.88268C137.694 -2.84394 127.07 3.32358 120.799 12.3518C103.54 37.2392 93.1231 49.3874 81.3584 59.618C72.185 67.5994 67.7278 67.7289 63.3225 68.3404C63.3225 68.3404 80.2701 40.5973 86.593 32.2687C94.1856 22.3076 84.8309 18.5866 75.7611 24.8784C73.9213 26.1585 59.5807 36.0731 42.2083 45.0392C11.2676 61.0019 3.82001 68.3611 3.82001 77.9387C3.82001 82.1886 6.77409 87.5371 12.9933 87.5371C25.1209 87.5371 37.1137 65.8632 42.9857 60.468C45.2661 58.3431 50.5679 53.7302 52.6255 53.7302C53.2992 53.7302 53.7657 54.145 53.7657 55.4406C53.7657 59.5868 45.717 71.3514 33.2422 84.8264C15.1442 104.365 0.332031 112.243 0.332031 124.733C0.332031 132.87 6.44758 137.276 13.0607 137.276C27.0022 137.276 36.3311 118.669 41.9077 109.444C44.1362 105.765 56.4348 82.8417 59.0262 77.8818C61.7212 79.3174 63.3796 82.3078 62.4985 88.382C60.84 99.3175 51.0966 112.564 51.0966 131.035C51.0966 146.117 65.0381 150.849 70.6354 150.859C75.8077 150.859 82.6489 148.864 84.3488 143.687C84.5561 142.909 84.2969 141.598 82.9183 141.51M495.036 55.8398C497.939 55.8398 499.804 57.7055 499.804 60.6233C499.804 63.5256 497.939 65.3913 495.036 65.3913C492.108 65.3913 490.253 63.5256 490.253 60.6233C490.253 57.6899 492.098 55.8139 495.031 55.8139M495.031 64.2098C497.234 64.2098 498.628 62.7949 498.628 60.5819C498.628 58.3689 497.229 56.9748 495.031 56.9748C492.813 56.9748 491.419 58.374 491.419 60.5714C491.419 62.7689 492.818 64.1994 495.016 64.1994M495.327 58.1357C496.068 58.1357 496.902 58.4986 496.902 59.5766C496.902 60.2918 496.436 60.7165 495.917 60.9238C496.249 61.3903 496.508 62.0538 496.902 62.0538H497.177C497.229 62.1056 497.281 62.2093 497.281 62.4166C497.281 62.7483 497.037 62.9866 496.555 62.9866C495.622 62.9866 495.518 61.8775 494.896 61.069H494.342V62.8832C494.238 62.9557 493.979 62.9866 493.772 62.9866C493.461 62.9866 493.202 62.9349 493.202 62.4685V58.198C493.305 58.1462 493.513 58.1253 493.761 58.1253H495.316L495.327 58.1357ZM494.357 59.0167V60.2086H495.067C495.565 60.2086 495.845 59.9754 495.845 59.5867C495.845 59.2239 495.586 59.0167 495.171 59.0167H494.363H494.357Z" fill="#D31245"/>
</g>
</g>
<defs>
<clipPath id="clip0_2_2149">
<rect width="500" height="174.826" fill="white"/>
</clipPath>
</defs>
</svg>
