<svg width="500" height="151" viewBox="0 0 500 151" fill="none" xmlns="http://www.w3.org/2000/svg">
<g clip-path="url(#clip0_2_1988)">
<path d="M126.132 4.24072H89.3387L52.0176 68.6724L89.3757 133.101H126.166L87.6811 68.6724L126.132 4.24072Z" fill="#443738"/>
<path d="M24.2691 53.3741C24.5397 58.9811 20.2745 63.7468 14.7416 64.021C9.20879 64.2952 4.50309 59.9741 4.23241 54.3671C3.96174 48.7634 8.22865 43.9961 13.7615 43.7218C19.2944 43.4476 23.9984 47.7704 24.2691 53.3741Z" fill="#915040"/>
<path d="M40.3008 58.1469C40.4504 61.2604 38.0816 63.909 35.0083 64.0605C31.9351 64.2138 29.3208 61.8123 29.1712 58.6988C29.0199 55.5852 31.3904 52.9367 34.4636 52.7851C37.5369 52.6335 40.1511 55.0334 40.3008 58.1469Z" fill="#3CC7F3"/>
<path d="M43.0437 27.6645C37.368 43.3122 40.7758 48.553 40.7758 48.553C28.5517 46.6999 9.19259 32.7845 9.4952 18.9389C9.70367 9.34623 16.326 1.20476 25.7861 0.734669C44.7317 -0.203814 45.6832 20.3849 43.0437 27.6645Z" fill="#7BC142"/>
<path d="M47.849 96.163C40.302 74.1078 43.1567 66.2764 43.1567 66.2764C25.8621 70.6809 -1.47098 93.6406 0.887758 113.478C2.52189 127.225 13.1623 137.971 26.812 137.293C54.1468 135.939 51.4653 106.733 47.849 96.163Z" fill="#CD0954"/>
<path d="M445.23 90.1353C432.42 90.1353 423.605 99.4554 423.605 112.914C423.605 126.242 432.591 135.171 445.832 135.171C451.343 135.171 456.16 133.876 460.062 131.546L453.963 121.333C451.646 122.885 449.005 123.716 446.52 123.716C441.876 123.716 438.61 121.538 437.492 116.878H466.081C466.254 115.963 466.34 114.047 466.34 112.654C466.296 99.2816 457.74 90.1353 445.23 90.1353ZM437.535 108.254C438.566 104.029 441.103 101.721 445.274 101.721C449.186 101.721 451.809 103.986 452.883 108.254H437.535Z" fill="#443738"/>
<path d="M301.627 89.9736C288.816 89.9736 280.002 99.2937 280.002 112.753C280.002 126.081 288.988 135.009 302.229 135.009C307.74 135.009 312.557 133.714 316.459 131.384L310.359 121.172C308.043 122.723 305.401 123.555 302.917 123.555C298.273 123.555 295.006 121.376 293.888 116.716H322.477C322.651 115.801 322.736 113.885 322.736 112.492C322.693 99.12 314.139 89.9736 301.627 89.9736ZM293.932 108.093C294.963 103.867 297.5 101.559 301.671 101.559C305.583 101.559 308.206 103.824 309.28 108.093H293.932Z" fill="#443738"/>
<path d="M208.245 20.6812C195.434 20.6812 186.62 30.0013 186.62 43.4602C186.62 56.7881 195.606 65.7164 208.847 65.7164C214.358 65.7164 219.175 64.422 223.077 62.0919L216.977 51.8793C214.66 53.431 212.019 54.2622 209.535 54.2622C204.891 54.2622 201.624 52.0837 200.506 47.4237H229.095C229.269 46.509 229.354 44.5929 229.354 43.1996C229.31 29.8275 220.755 20.6812 208.245 20.6812ZM200.55 38.8002C201.581 34.5744 204.118 32.2666 208.289 32.2666C212.201 32.2666 214.824 34.5319 215.898 38.8002H200.55Z" fill="#443738"/>
<path d="M149.874 4.19238H135.924V63.8704H149.874V4.19238Z" fill="#443738"/>
<path d="M252.853 64.9642C263.762 64.9642 272.624 59.0779 272.624 46.0788V22.3237H259.583V44.8933C259.583 50.187 256.74 52.5987 252.853 52.5987C248.924 52.5987 246.125 50.187 246.125 44.8933V22.3237H233.042V46.0362C233.042 59.0779 241.903 64.9642 252.853 64.9642Z" fill="#443738"/>
<path d="M311.343 63.8635H324.424V22.3232H311.343V63.8635Z" fill="#443738"/>
<path d="M209.581 96.5378V91.7534H197.042V133.294H210.124V110.852C210.124 105.684 212.967 103.356 217.605 103.356C219.946 103.356 225.214 103.373 225.214 103.373L225.379 91.2457C224.377 90.9476 222.704 90.6104 220.783 90.6104C215.768 90.6104 211.963 92.5164 209.581 96.5378Z" fill="#443738"/>
<path d="M494.982 90.6105C489.966 90.6105 486.162 92.5164 483.78 96.5378V91.7534H471.241V133.294H484.323V110.852C484.323 105.684 487.166 103.356 491.804 103.356C494.144 103.356 499.413 103.373 499.413 103.373L499.578 91.2457C498.576 90.9476 496.903 90.6105 494.982 90.6105Z" fill="#443738"/>
<path d="M291.122 41.459C291.122 36.2914 293.964 33.9631 298.603 33.9631C300.943 33.9631 306.212 33.9801 306.212 33.9801L306.377 21.8531C305.375 21.5567 303.702 21.2178 301.78 21.2178C296.765 21.2178 292.961 23.1237 290.578 27.145V22.3606H278.04V63.9009H291.122V41.459Z" fill="#443738"/>
<path d="M257.976 73.9624H232.897V133.245H246.858V113.215H258.1C272.438 113.215 280.087 105.425 280.087 93.737C280.087 81.8382 272.438 73.9624 257.976 73.9624ZM257.766 100.598H246.858V86.7929H257.766C262.783 86.7929 265.874 89.2047 265.874 93.737C265.874 98.225 262.783 100.598 257.766 100.598Z" fill="#443738"/>
<path d="M350.684 91.5322C346.38 91.5322 342.382 92.8471 339.05 95.0937V91.7043H326.427V150.183H339.468V130.846C342.716 132.928 346.555 134.151 350.684 134.151C362.301 134.151 371.717 124.611 371.717 112.841C371.717 101.072 362.301 91.5322 350.684 91.5322ZM349.994 122.79C344.571 122.79 340.173 118.336 340.173 112.841C340.173 107.347 344.571 102.891 349.994 102.891C355.418 102.891 359.814 107.347 359.814 112.841C359.814 118.336 355.418 122.79 349.994 122.79Z" fill="#443738"/>
<path d="M399.691 91.5322C395.387 91.5322 391.389 92.8471 388.057 95.0937V91.7043H375.435V150.183H388.476V130.846C391.724 132.928 395.562 134.151 399.691 134.151C411.307 134.151 420.725 124.611 420.725 112.841C420.725 101.072 411.307 91.5322 399.691 91.5322ZM399.002 122.79C393.578 122.79 389.18 118.336 389.18 112.841C389.18 107.347 393.578 102.891 399.002 102.891C404.425 102.891 408.822 107.347 408.822 112.841C408.822 118.336 404.425 122.79 399.002 122.79Z" fill="#443738"/>
<path d="M172.768 63.8575H189.804L172.017 34.0798L189.787 4.19141H172.751L155.47 34.0253L172.768 63.8575Z" fill="#443738"/>
<path d="M160.968 73.9624H135.933V113.716H149.892V87.0467H160.676C171.543 87.0467 176.767 93.9073 176.767 103.604C176.767 113.174 171.543 120.159 160.676 120.159L135.933 120.153V133.245H160.968C179.277 133.245 191.354 121.474 191.354 103.604C191.354 85.7335 179.277 73.9624 160.968 73.9624Z" fill="#443738"/>
<path d="M361.213 22.3232V25.0705C358.027 23.1016 354.297 21.9468 350.29 21.9468C338.673 21.9468 329.257 31.4883 329.257 43.256C329.257 55.0253 338.673 64.5651 350.29 64.5651C354.204 64.5651 357.854 63.4632 360.993 61.5777C360.463 67.4113 355.726 70.0445 350.723 70.0445C347.416 70.0445 344.368 69.3989 341.488 68.0857L335.716 78.0377C340.292 80.424 346 81.6486 351.642 81.6486C365.058 81.6486 373.878 73.5191 373.878 59.883V22.3232H361.213ZM351.217 53.1177C345.793 53.1177 341.395 48.6637 341.395 43.1691C341.395 37.6745 345.793 33.2188 351.217 33.2188C356.64 33.2188 361.038 37.6745 361.038 43.1691C361.038 48.6637 356.64 53.1177 351.217 53.1177Z" fill="#443738"/>
<path d="M324.58 10.6283C324.758 14.3175 321.951 17.4549 318.309 17.6354C314.668 17.816 311.571 14.9716 311.393 11.2823C311.215 7.59313 314.022 4.45577 317.664 4.27523C321.305 4.09469 324.402 6.93909 324.58 10.6283Z" fill="#443738"/>
</g>
<defs>
<clipPath id="clip0_2_1988">
<rect width="500" height="150.49" fill="white"/>
</clipPath>
</defs>
</svg>
