<?xml version="1.0" encoding="UTF-8" standalone="no"?>
<!-- Created with Inkscape (http://www.inkscape.org/) -->

<svg
   xmlns:svg="http://www.w3.org/2000/svg"
   xmlns="http://www.w3.org/2000/svg"
   version="1.1"
   width="634.42859"
   height="462.2113"
   id="svg2">
  <defs
     id="defs4" />
  <g
     transform="translate(902.92858,157.13781)"
     id="layer1">
    <g
       transform="matrix(0.35582086,0,0,0.35582086,-732.10915,-153.07308)"
       id="g2830">
      <path
         d="m 89.70033,1257.5298 c -15.38153,-1.7919 -25.5297,-7.678 -30.69548,-17.8038 -2.99675,-5.8741 -4.4331,-21.4835 -3.74049,-40.6495 1.17335,-32.4688 2.84983,-38.8378 15.34221,-58.2848 2.92709,-4.5567 5.32199,-8.4566 5.32199,-8.6666 0,-0.8331 13.58694,-23.3565 16.9199,-28.0486 10.68568,-15.043 23.19269,-28.186 36.0801,-37.9148 13.29685,-10.0378 17.73474,-15.5765 25.13478,-31.3695 2.76155,-5.8936 5.93808,-12.653 7.05895,-15.0207 3.47133,-7.3329 10.73082,-16.042 17.15718,-20.58323 3.382,-2.3899 11.32409,-6.9702 17.64909,-10.1784 6.325,-3.20833 12.09464,-6.41831 12.82143,-7.13334 0.72678,-0.71503 1.70887,-1.30006 2.18242,-1.30006 0.47355,0 4.62715,-3.4875 9.23023,-7.75 4.60307,-4.2625 11.58801,-9.92747 15.52208,-12.58881 3.93407,-2.66135 8.87719,-6.71135 10.9847,-9 4.32394,-4.69556 10.42396,-16.72838 12.17418,-24.0146 1.13834,-4.73895 1.80981,-25.25507 0.85773,-26.20715 -0.26363,-0.26363 -5.60785,4.61991 -11.87604,10.8523 -15.48871,15.40021 -25.34514,23.28789 -36.89673,29.52686 -11.66294,6.29911 -32.90444,7.27592 -43.88883,2.01828 -5.63572,-2.69752 -11.49802,-8.69337 -14.72388,-15.05931 -6.3035,-12.43936 -8.84303,-37.91546 -5.94395,-59.62873 2.03853,-15.26802 3.52053,-19.75918 9.46194,-28.67411 2.57512,-3.8639 6.62662,-11.7389 9.00332,-17.5 5.88362,-14.2618 6.49269,-15.94153 10.14367,-27.97473 3.79117,-12.49528 11.08034,-34.08584 13.16675,-39 1.84994,-4.35718 8.73787,-11.54796 14.00668,-14.62251 3.97694,-2.3207 9.26248,-7.25131 11.43979,-10.67158 2.42276,-3.80586 7.00638,-14.51349 12.38298,-28.92746 8.04353,-21.56363 28.12267,-46.51051 47.39336,-58.88281 15.35037,-9.85534 16.51602,-10.7733 19.83609,-15.62114 5.48595,-8.01036 11.74991,-14.14102 17.14588,-16.78102 3.46132,-1.69347 10.28264,-3.38002 20.61623,-5.09731 14.99157,-2.49139 15.60588,-2.51726 20.99894,-0.88437 7.02215,2.12613 13.90305,7.09013 17.91892,12.92699 4.75647,6.9133 5.96014,11.20333 4.93991,17.60658 -0.47799,3.00005 -2.01913,12.57912 -3.42474,21.28682 -1.40561,8.70771 -2.27933,16.70285 -1.94158,17.76699 0.33774,1.06414 2.2207,2.60609 4.18435,3.42655 l 3.57026,1.49175 -0.65169,7.81435 c -1.08882,13.05589 -7.60642,35.3197 -18.93122,64.66817 -2.60123,6.74113 -14.23475,29.74099 -16.69167,33 -4.18222,5.54753 -13.97191,27.70239 -17.67502,40 -2.23162,7.41094 -4.24964,21.82402 -4.31069,30.7878 l -0.0258,3.7878 16.3416,-16.2878 c 8.98788,-8.95829 18.77538,-19.2128 21.75,-22.7878 2.97462,-3.575 5.94943,-7.07317 6.61068,-7.77371 4.21646,-4.46696 13.26419,-20.08276 18.20333,-31.41775 3.1895,-7.3197 7.8487,-17.80854 10.35378,-23.30854 2.50508,-5.5 5.81772,-13.105 7.36142,-16.90001 1.54371,-3.795 6.00122,-11.97381 9.9056,-18.17512 3.90437,-6.20131 8.37026,-14.5157 9.9242,-18.47643 1.81815,-4.63414 4.34205,-8.78424 7.07993,-11.64165 3.78751,-3.95287 4.67552,-4.40556 8.08903,-4.12356 9.36557,0.77371 8.45685,10.68222 -4.79806,52.31677 -6.83883,21.48121 -25.19621,67.81934 -32.68332,82.5 -9.06014,17.76504 -15.9134,27.86698 -28.16027,41.5092 -18.0633,20.12135 -27.67439,28.95678 -45.37496,41.71302 -32.2543,23.24465 -36.85686,30.89575 -50.09615,83.27778 -2.9192,11.55003 -6.51546,24.37503 -7.9917,28.50003 -1.47623,4.125 -5.30681,15.15 -8.51241,24.5 -11.31601,33.0063 -20.55166,57.4302 -29.30586,77.5 -7.34386,16.8365 -18.89141,38.5326 -25.28146,47.5 -1.17576,1.65 -3.5829,6.1079 -5.34919,9.9064 -4.46786,9.6084 -26.35915,42.4474 -34.71684,52.0786 -11.44814,13.1926 -22.91591,21.3114 -36.5651,25.8871 -4.14324,1.389 -23.70815,3.8505 -27.78425,3.4956 -0.825,-0.072 -4.5277,-0.4833 -8.22823,-0.9144 z m 32.13461,-47.4147 c 8.60262,-4.4812 28.12954,-26.9409 37.85338,-43.5386 1.60811,-2.7449 25.87106,-50.0828 31.77801,-62 2.2056,-4.4498 8.20618,-19.2669 11.54183,-28.5 1.78829,-4.95 5.02049,-13.5 7.18268,-19 9.23804,-23.499 10.7698,-27.7167 12.34849,-34.0015 2.21453,-8.8161 1.26105,-9.8421 -5.86635,-6.3127 -5.7659,2.8552 -19.27296,13.4017 -26.32516,20.5551 -4.87377,4.9437 -9.46253,12.276 -13.61749,21.7591 -18.66256,42.5945 -17.94984,41.487 -40.98646,63.6933 -19.87061,19.1544 -24.88008,25.6188 -30.33344,39.1429 -5.00329,12.4079 -6.72861,20.1179 -6.86185,30.6638 -0.13935,11.0303 1.57749,15.2682 7.414,18.301 3.86939,2.0107 11.22734,1.6572 15.87236,-0.7624 z m 87.37517,-315.61461 c 10.97613,-3.6643 17.74602,-8.15823 25.76989,-17.10638 9.55559,-10.6563 12.20724,-13.63612 15.41044,-17.31764 4.02321,-4.62398 9.34383,-12.88093 11.41745,-17.71848 1.03047,-2.40399 4.48027,-8.85079 7.66623,-14.32621 13.61323,-23.39587 15.35473,-29.81939 13.00131,-47.95531 l -0.77859,-6 11.17138,-16.32309 c 15.19697,-22.2051 18.06584,-27.07405 22.78914,-38.67691 7.09481,-17.42851 13.2712,-40.1965 13.2712,-48.92152 0,-6.86474 -8.41364,-10.93041 -16.8328,-8.13401 -6.46294,2.14664 -16.50249,9.08013 -24.21036,16.7201 -6.72415,6.66492 -13.2457,16.72056 -27.45648,42.33543 -4.27186,7.7 -9.73202,17.01355 -12.13369,20.69678 -2.40167,3.68323 -4.36667,6.9535 -4.36667,7.26727 0,1.51218 -15.25731,30.90227 -18.25739,35.16913 -5.34198,7.59762 -8.63277,17.06658 -11.2486,32.36682 -2.99076,17.49326 -6.63245,31.10214 -10.6601,39.83647 -8.40136,18.21913 -11.65505,32.73518 -8.43794,37.64511 2.06698,3.15461 5.43957,3.26207 13.88558,0.44244 z m -667.36798,303.12031 c -7.38825,-2.239 -12.08784,-8.651 -14.42467,-19.6807 -2.81556,-13.2892 -1.36534,-25.8468 3.95896,-34.281 6.79587,-10.7654 9.26208,-17.8848 12.09809,-34.9248 5.10998,-30.7029 9.6197,-54.345 11.29149,-59.1953 1.04976,-3.0457 5.73889,-13.3957 10.4203,-23 14.72816,-30.21623 15.08922,-31.34963 19.25241,-60.43603 5.0279,-35.12774 7.35294,-41.42857 33.81774,-91.64565 4.23742,-8.04053 9.98661,-20.64053 12.77597,-28 26.23633,-69.22201 32.59455,-86.99353 43.91437,-122.74264 7.29593,-23.04129 21.02067,-52.89849 30.04751,-65.36623 6.14011,-8.48065 8.70742,-13.50121 9.52798,-18.63268 1.09963,-6.87676 -0.18842,-10.24386 -5.44993,-14.2466 -4.702,-3.57709 -7.14379,-8.28965 -7.14379,-13.78724 0,-4.24745 5.77026,-13.5878 12.1444,-19.65819 8.45361,-8.05077 16.21894,-13.43473 35.13281,-24.35873 15.04164,-8.68753 24.66509,-14.89591 27.54422,-17.76961 0.72678,-0.72541 1.62678,-1.32612 2,-1.3349 0.68856,-0.0162 2.54796,-1.58089 14.17857,-11.93118 22.03677,-19.61092 31.69495,-25.60485 52.5,-32.58184 31.13066,-10.43969 39.4054,-14.72848 68.5,-35.50341 12.00621,-8.57301 19.76782,-11.92451 54.51603,-23.54033 15.9398,-5.32845 16.08258,-5.35529 30,-5.6406 22.68587,-0.46506 28.49325,2.50042 28.4742,14.54006 -0.0125,7.88024 -3.09774,14.71424 -9.1518,20.27158 -8.51315,7.81468 -18.16639,11.9217 -45.83843,19.5022 -31.78077,8.70606 -32.59365,9.06015 -63.5,27.66058 -17.46965,10.51379 -31.00377,19.68784 -36,24.40245 -4.46757,4.21576 -23.92389,16.83646 -25.95541,16.83646 -1.95115,0 -23.85739,11.34965 -28.04459,14.52993 -7.56705,5.74737 -15.00263,14.71535 -22.88507,27.60147 -3.91321,6.39728 -8.54397,13.37228 -10.29057,15.5 -11.4249,13.91794 -19.21921,25.20088 -23.83148,34.49814 -2.90026,5.84625 -7.48342,14.39625 -10.18479,19 -13.87363,23.64382 -22.51074,50.26931 -32.83216,101.21119 -2.54529,12.56241 -4.40992,23.05862 -4.14362,23.32491 0.2663,0.2663 2.21478,-0.66108 4.32996,-2.06084 2.11517,-1.39976 6.71683,-3.71163 10.2259,-5.13749 3.50907,-1.42586 15.65726,-7.23358 26.99598,-12.90605 11.33872,-5.67246 24.59749,-11.96039 29.46395,-13.97318 4.86645,-2.01278 14.76645,-6.39029 22,-9.7278 18.60216,-8.58291 19.05155,-8.77413 26.99606,-11.48734 17.8215,-6.08641 33.19026,-7.60426 38.30793,-3.78337 4.85943,3.62809 6.69244,7.02544 7.14172,13.23666 1.04301,14.41944 -10.70353,23.72283 -55.79381,44.18931 -5.775,2.62127 -18.6,8.77119 -28.5,13.66648 -9.9,4.89529 -26.325,12.64904 -36.5,17.23054 -20.32564,9.15204 -45.74767,21.81062 -47.82143,23.81208 -0.72678,0.70145 -1.72525,1.27536 -2.21882,1.27536 -2.58966,0 -22.38223,14.27246 -30.77534,22.19216 -12.04358,11.36427 -13.38885,13.70081 -17.44985,30.30784 -4.34165,17.75474 -10.08755,35.53829 -19.22456,59.5 -21.34672,55.98153 -23.93743,64.77843 -29.00863,98.50003 -3.96044,26.3355 -7.42827,39.4934 -14.41991,54.7132 -7.75076,16.8723 -9.59092,23.1076 -11.59446,39.2868 -1.9512,15.7566 -3.49552,21.5663 -7.3416,27.6189 -5.75077,9.05 -15.55171,13.9432 -27.63128,13.7951 -3.85777,-0.047 -8.17801,-0.4386 -9.60055,-0.8697 z m 267.08643,-97.117 c -16.6893,-1.5434 -30.54634,-10.4911 -38.29478,-24.7276 -4.77446,-8.7722 -6.56646,-18.6885 -6.9032,-38.1997 -0.27116,-15.7118 0.0355,-19.697 3.00077,-39.00003 1.81653,-11.825 3.96665,-24.425 4.77805,-28 1.81695,-8.00546 6.76426,-20.15204 10.38616,-25.5 3.69002,-5.44853 9.54723,-16.5014 13.23764,-24.98012 1.68049,-3.86094 4.52027,-10.39488 6.31062,-14.51988 13.52833,-31.16958 20.93242,-42.36377 33.89243,-51.24176 7.94515,-5.44265 18.95159,-16.62826 31.35026,-31.8606 9.5431,-11.72414 21.37673,-24.19003 27.24205,-28.69758 8.83208,-6.78752 22.00099,-10.90064 38.07015,-11.89065 24.10222,-1.48493 32.87735,9.27906 32.91507,40.37521 0.0356,29.31273 -8.94486,49.54167 -40.59203,91.43604 -5.55875,7.35863 -11.81328,15.83259 -13.89895,18.831 -6.67003,9.58897 -10.74586,14.05661 -36.14108,39.61541 -24.6109,24.76943 -36.3508,34.10516 -48.05212,38.21166 -9.39125,3.2958 -10.62917,5.0097 -9.91079,13.7213 0.87231,10.5782 5.68565,18.0243 14.53736,22.4887 7.95471,4.0121 22.22606,3.6545 31.94428,-0.8005 3.22039,-1.4762 13.81826,-8.5829 15.12811,-10.1445 2.71378,-3.2353 15.46403,-12.7614 28.72892,-21.4642 8.9259,-5.856 16.93256,-11.6446 17.79258,-12.8634 0.86002,-1.2189 3.70878,-5.81613 6.33059,-10.21613 7.54375,-12.66017 27.32761,-42.41694 32.57777,-49 2.63183,-3.3 8.04417,-9.1727 12.02743,-13.05044 3.98326,-3.87774 7.87238,-8.22685 8.6425,-9.66468 0.77011,-1.43784 3.87521,-7.22833 6.90021,-12.86777 10.18147,-18.98106 20.38066,-26.89021 29.38536,-22.78739 3.1065,1.41542 4.93391,5.66814 4.06781,9.46654 -4.69042,20.57045 -13.64957,38.30568 -38.3178,75.85263 -6.12445,9.32189 -11.13537,17.49689 -11.13537,18.16667 0,0.66978 -0.3375,1.36777 -0.75,1.55114 -0.4125,0.1833 -2.28807,3.4833 -4.16794,7.3333 -5.23262,10.71653 -9.82344,17.45513 -16.02732,23.52563 -3.11065,3.0437 -7.17284,7.7707 -9.02708,10.5043 -4.47719,6.6004 -11.01454,14.4701 -12.02029,14.4701 -2.25925,0 -18.43523,12.0721 -37.41481,27.9227 -16.98093,14.1814 -21.27608,16.6424 -36.59256,20.9661 -21.2411,5.9961 -37.1125,8.2304 -50,7.0385 z m 21.29564,-123.906 c 1.75295,-1.63828 4.54104,-3.53567 6.19577,-4.21643 5.67393,-2.33429 12.65172,-9.39021 24.53021,-24.8049 4.87402,-6.325 13.42356,-17.125 18.99898,-24 25.03941,-30.87587 34.95462,-51.94552 34.97239,-74.31574 0.004,-4.84866 -0.45882,-9.68616 -1.02817,-10.75 -1.05445,-1.97025 -5.38598,-2.67986 -6.39476,-1.04762 -0.30138,0.48765 -2.05855,1.17002 -3.90482,1.51638 -2.32734,0.43662 -4.39343,1.92815 -6.73678,4.86337 -1.85896,2.32848 -6.1742,7.15861 -9.58942,10.73361 -3.41523,3.575 -8.52228,9.38421 -11.34901,12.90936 -6.5048,8.11198 -20.99003,29.94998 -20.99003,31.64467 0,0.70361 -0.35561,1.4293 -0.79024,1.61264 -1.87484,0.79083 -13.67773,28.43534 -19.18991,44.94628 -3.32482,9.959 -9.01985,31.03402 -9.01985,33.37882 0,1.0976 1.24231,0.38315 4.29564,-2.47044 z m 206.42213,54.8872 c -4.63016,-1.0903 -7.16749,-3.3472 -9.18114,-8.1666 -1.88363,-4.5081 -2.17292,-41.26289 -0.44527,-56.57149 1.03931,-9.2093 1.48694,-10.45726 9.38693,-26.17044 8.70909,-17.32249 13.59768,-29.40348 19.11068,-47.2275 3.60211,-11.64596 14.29941,-52.25512 19.3774,-73.56066 4.00048,-16.78466 6.25325,-23.69004 10.99794,-33.71184 4.54784,-9.60601 8.33535,-14.9519 17.262,-24.36447 6.56666,-6.92411 7.93158,-9.27146 18.25974,-31.40258 2.39105,-5.12352 9.68206,-11.43296 18.69694,-16.17981 7.32796,-3.85859 7.58066,-3.91449 11.29889,-2.49932 2.09182,0.79615 4.68895,2.63378 5.77141,4.08361 1.78458,2.39026 1.87458,3.32267 0.96517,9.99932 -1.06136,7.79223 0.0162,5.1309 -35.15741,86.82731 -11.25935,26.15163 -16.40252,39.28663 -17.03296,43.5 -3.84213,25.67772 -7.44888,39.30219 -15.49596,58.53594 -9.62059,22.99466 -12.14153,31.74586 -15.98775,55.5 -8.17315,50.47713 -17.81005,66.12193 -37.82661,61.40853 z M 938.14206,929.50628 c -10.9701,-1.42497 -20.7,-7.08619 -25.7143,-14.96143 -7.0631,-11.09319 -10.761,-33.11056 -8.5815,-51.09389 1.5541,-12.82275 5.8549,-26.13647 11.7203,-36.28175 2.5143,-4.34899 7.4174,-13.57399 10.8958,-20.5 6.9103,-13.7595 15.0748,-26.52888 22.4376,-35.09274 7.9008,-9.18953 11.4619,-14.98258 16.5977,-27 6.7151,-15.71315 10.8222,-22.45167 17.98,-29.5 6.2642,-6.16842 8.7879,-8.0504 23.46704,-17.5 9.9086,-6.37855 10.7677,-7.05497 26.6731,-21 6.5868,-5.775 16.8889,-14.54133 22.8934,-19.48074 13.2288,-10.88214 31.6891,-28.99534 37.2615,-36.56106 4.7452,-6.44243 8.4469,-14.38822 10.5418,-22.62755 1.5222,-5.98724 4.211,-33.06706 3.3671,-33.911 -0.259,-0.25898 -3.7897,3.70316 -7.846,8.80474 -14.3311,18.02419 -28.1457,30.37164 -42.2332,37.74808 -10.4841,5.48964 -18.2147,7.32229 -28.7985,6.82709 -7.692,-0.35989 -9.2405,-0.77641 -14.3196,-3.85154 -9.2014,-5.57112 -14.59534,-14.62905 -17.11034,-28.73338 -3.5374,-19.83831 -0.9792,-34.02023 11.17104,-61.9275 5.1874,-11.91467 7.6688,-21.02066 10.4333,-38.28714 4.7437,-29.62711 6.0123,-34.33407 13.072,-48.5 5.5758,-11.18833 6.93,-13.28361 18.3034,-28.31859 5.5412,-7.32522 11.8749,-15.69719 14.0749,-18.60437 2.2,-2.90719 4.9,-6.53511 6,-8.06206 1.1,-1.52694 5.2324,-6.91705 9.183,-11.97801 6.384,-8.17821 7.4082,-10.10672 9.2079,-17.33762 2.2672,-9.10922 3.798,-12.50703 8.8156,-19.56727 6.9872,-9.83153 17.3077,-19.17594 30.2935,-27.42841 3.575,-2.27191 6.95,-4.50716 7.5,-4.96722 0.55,-0.46007 2.575,-1.71398 4.5,-2.78647 1.925,-1.07249 3.725,-2.1898 4,-2.48291 0.9332,-0.99463 19.4809,-12.68921 22.8782,-14.42499 9.2597,-4.73109 25.9477,-7.10517 35.0378,-4.98459 10.8935,2.54127 16.1714,5.73329 19.1572,11.58609 2.4739,4.8491 2.563,6.80295 1.5445,33.85642 -0.7221,19.1783 -0.6256,21.92916 0.8935,25.47424 1.3303,3.1045 1.5561,5.46497 1.0318,10.78599 -1.011,10.2602 -2.9738,16.67603 -10.5173,34.3787 -3.7825,8.87641 -9.4517,23.95141 -12.5983,33.5 -5.1175,15.52977 -18.7761,50.97718 -24.2217,62.86107 -1.1341,2.475 -2.7689,6.975 -3.6329,10 -7.2791,25.48534 -8.6705,31.30227 -7.7158,32.25701 0.7024,0.70238 3.3357,-1.04236 8.3349,-5.52232 7.2352,-6.48374 22.4728,-22.44512 26.9544,-28.23469 1.2773,-1.65 3.1562,-3.9 4.1754,-5 4.0557,-4.37728 16.0488,-23.45377 20.0998,-31.97137 2.3618,-4.96575 6.2023,-14.65363 8.5345,-21.52863 4.9907,-14.71171 6.9017,-18.25828 15.1496,-28.11534 8.7448,-10.4508 15.1623,-20.45451 22.4473,-34.99137 6.6238,-13.2174 10.5864,-17.89329 15.1636,-17.89329 3.3157,0 5.2118,2.57856 5.2517,7.14194 0.051,5.86019 -3.6338,22.51736 -7.8335,35.41012 -3.4621,10.62808 -12.0457,31.28393 -14.1072,33.94794 -0.4257,0.55 -4.0431,7.3 -8.0387,15 -10.7938,20.8006 -19.2975,35.63551 -27.8013,48.5 -4.1811,6.325 -7.8812,11.725 -8.2226,12 -0.3415,0.275 -8.2006,10.625 -17.4649,23 -9.2643,12.375 -17.1494,22.725 -17.5226,23 -1.6043,1.18234 -6.0341,9.36464 -11.369,21 -5.9402,12.95544 -12.7621,24.67229 -16.8847,29 -2.3217,2.43723 -8.7228,8.15256 -21.533,19.22623 -16.7509,14.48013 -18.7635,19.54068 -23.6372,59.43387 -3.9469,32.30747 -6.2559,45.30638 -9.7414,54.8399 -2.1526,5.888 -10.6405,23.10109 -14.3023,29.00438 -7.1448,11.51841 -22.4222,35.06202 -23.6869,36.50315 -4.9438,5.63374 -13.8229,22.92237 -13.8229,26.9149 0,1.59361 -5.5224,17.2533 -7.2894,20.67026 -2.1296,4.11825 -14.0911,20.72694 -20.0986,27.90731 -25.7738,30.80544 -49.16414,47.13004 -72.32844,50.4795 -7.6404,1.10478 -9.2157,1.10045 -18.0701,-0.0497 z m 22.5686,-47.47608 c 6.4898,-2.69912 11.272,-6.66408 18.2507,-15.13192 6.2279,-7.55673 9.2785,-12.30012 24.96744,-38.82181 12.0026,-20.29025 15.2957,-24.73807 27.3937,-36.99947 8.2017,-8.31243 13.9659,-18.22751 16.5691,-28.50053 2.1409,-8.44849 8.3192,-23.48523 15.6635,-38.12185 4.0353,-8.04202 8.0135,-17.49202 8.8404,-21 1.8584,-7.88357 1.9929,-15.55347 0.2831,-16.14105 -2.5417,-0.87347 -16.9464,7.54406 -25.9693,15.17539 -11.8089,9.9877 -28.8448,27.53146 -38.9271,40.08751 -5.9263,7.38046 -17.15254,24.60494 -25.41854,39 -15.3988,26.81668 -19.2082,33.60326 -22.291,39.7123 -11.9816,23.74379 -17.217,48.70719 -12.0145,57.2877 1.1671,1.925 2.628,3.83061 3.2462,4.23469 1.8062,1.18041 5.4097,0.88123 9.4063,-0.78096 z M 1064.9114,562.50806 c 3.5655,-1.68676 6.7155,-3.37792 7,-3.75814 0.2844,-0.38021 2.2142,-1.81228 4.2883,-3.18238 5.2462,-3.46546 23.3528,-22.29437 30.4691,-31.68459 11.7807,-15.54515 18.1505,-28.83905 29.345,-61.24407 2.5434,-7.36253 2.9148,-9.86337 2.9148,-19.62787 0,-13.26283 0.3585,-14.27316 9.9121,-27.93454 19.2515,-27.52925 24.0049,-35.96666 29.213,-51.85402 2.1744,-6.6328 3.1583,-11.93164 3.5809,-19.28357 0.5659,-9.84601 0.5162,-10.17311 -1.7252,-11.37267 -3.2287,-1.72796 -14.9188,-0.7495 -19.3675,1.62107 -4.843,2.58062 -27.2932,23.91752 -34.4252,32.71796 -8.4532,10.43067 -15.4702,21.48111 -28.8303,45.40268 -6.5218,11.6773 -13.3229,23.8273 -15.1135,27 -6.6347,11.7556 -15.4552,31.07877 -18.8379,41.26855 -6.4661,19.47786 -11.4046,41.70818 -11.4096,51.36008 0,3.37696 -0.7088,10.17374 -1.5711,15.10397 -3.1246,17.86371 0.7621,21.99357 14.5571,15.46754 z M 473.10188,848.15479 c -13.11139,-4.28069 -19.03324,-13.60867 -21.29343,-33.54104 -2.09668,-18.49027 1.30459,-42.67137 9.07767,-64.53728 1.56415,-4.4 4.26388,-12.95 5.99941,-19 1.73552,-6.05 4.05921,-13.925 5.16375,-17.5 3.04115,-9.84318 8.875,-38.87929 8.87727,-44.18383 0.004,-9.69118 9.48396,-50.7453 15.91829,-68.93723 4.44834,-12.57688 17.55574,-42.02206 33.60672,-75.49586 4.8093,-10.02968 6.0623,-14.6824 9.9332,-36.88308 1.4384,-8.25 4.1684,-19.5 6.0666,-25 1.8982,-5.5 5.2034,-18.10389 7.3449,-28.00866 3.9613,-18.32222 7.2561,-27.40941 12.7197,-35.08124 12.2021,-17.13421 18.045,-25.64845 20.761,-30.25322 1.7334,-2.93871 4.1635,-6.98871 5.4003,-9 1.2367,-2.01128 5.9791,-11.08188 10.5385,-20.15688 8.0563,-16.03503 9.7193,-20.00237 20.7496,-49.5 8.2435,-22.04491 17.6897,-40.5417 29.8756,-58.5 4.8445,-7.13917 41.6141,-44.3151 49.6276,-50.1759 5.6618,-4.14083 18.0013,-9.81989 28.1629,-12.96151 11.8471,-3.66268 21.2385,-1.62467 28.0389,6.08465 5.8343,6.61411 10.943,33.18903 9.9104,51.55276 -0.3093,5.5 -1.5225,13.375 -2.696,17.5 -1.1735,4.125 -2.9451,11.44137 -3.937,16.25859 -2.0232,9.82636 -7.0791,19.69293 -15.3518,29.95931 -2.6903,3.33861 -6.5738,9.71788 -8.6299,14.17615 -2.0562,4.45827 -5.1415,10.30903 -6.8563,13.00169 -5.4583,8.5711 -8.9072,19.38154 -14.5817,45.70612 -3.4995,16.23493 -12.0166,46.39675 -15.2528,54.01562 -3.8162,8.98426 -5.3785,11.07035 -16.9751,22.66592 -23.1402,23.13821 -28.6118,32.57833 -36.3122,62.64829 -6.4975,25.3724 -10.0251,33.64079 -19.3392,45.32857 -3.3924,4.25686 -6.4212,7.96474 -6.7307,8.23974 -0.3096,0.275 -4.9083,5.94352 -10.2193,12.59672 -11.7144,14.67479 -17.1451,20.27241 -35.2702,36.35479 -24.8243,22.02656 -37.2794,35.93979 -44.0731,49.23274 -6.2275,12.1853 -18.11849,41.6651 -22.71548,56.31575 -4.85447,15.47121 -8.94919,38.85722 -9.10484,52 -0.12209,10.30928 1.52872,16.58346 5.49587,20.88801 3.04464,3.30359 5.59601,3.14981 10.15641,-0.61217 1.51737,-1.25171 4.50004,-3.62584 6.62824,-5.27584 5.5055,-4.26848 7.4871,-7.52303 14.6711,-24.09591 8.7371,-20.1553 15.3788,-30.83936 27.293,-43.90409 12.2983,-13.4859 14.9641,-18.07899 16.0873,-27.71795 0.4668,-4.00513 1.361,-8.58686 1.9872,-10.18163 2.3301,-5.93409 18.3659,-23.08319 22.6133,-24.18324 3.1974,-0.8281 7.3916,1.27958 8.5865,4.31489 1.4405,3.65928 0.4111,24.70467 -1.6273,33.26793 -4.0561,17.04004 -14.0667,40.17029 -27.6987,64 -3.6183,6.325 -9.5633,16.85674 -13.2111,23.40387 -8.4649,15.19277 -12.74,21.1043 -26.8272,37.09613 -18.9339,21.49376 -29.1056,30.17292 -42.32065,36.11075 -4.86509,2.186 -7.75092,2.73358 -15.94055,3.0247 -6.78595,0.24122 -11.39062,-0.0985 -14.32668,-1.05713 z m 87.49698,-280.32832 c 18.3732,-19.86068 32.3927,-41.3467 44.5327,-68.25 7.575,-16.78686 8.349,-18.69538 12.9742,-31.99261 7.1122,-20.4472 12.4044,-30.02983 28.7223,-52.00739 8.1606,-10.99112 16.4621,-22.86708 17.2367,-24.65851 0.2001,-0.46282 2.0524,-3.81164 4.1162,-7.44183 3.5366,-6.22079 6.9676,-14.63618 8.7249,-21.39966 1.5463,-5.95127 10.1779,-35.17699 12.6998,-43 6.1616,-19.11347 13.1519,-34.73749 22.3704,-50 6.3122,-10.45057 9.1456,-19.36411 8.7531,-27.53592 -0.2638,-5.49235 -0.638,-6.51062 -3.0539,-8.30942 l -2.7532,-2.05003 -4.2507,2.06514 c -9.6426,4.68476 -23.4611,19.21079 -31.2311,32.83023 -6.5887,11.54894 -45.5117,87.57454 -45.5117,88.89495 0,0.22077 -2.5183,5.73472 -5.5961,12.25322 -3.0779,6.51851 -7.3529,15.5727 -9.5,20.12044 -2.1472,4.54773 -3.9039,8.44364 -3.9039,8.65757 0,0.21394 -2.0545,4.81806 -4.5656,10.2314 -11.243,24.2375 -14.033,30.68892 -23.2849,53.84242 -11.6852,29.24277 -16.3482,43.3083 -25.0298,75.5 -1.7451,6.47114 -4.4819,20.26074 -6.5991,33.25 -0.3362,2.0625 -0.3037,3.75 0.072,3.75 0.3759,0 2.6608,-2.1375 5.0776,-4.75 z m 78.7739,234.91544 c -2.2307,-1.04157 -5.6995,-3.81405 -7.7084,-6.16105 -4.4068,-5.1483 -5.2371,-9.42428 -4.4484,-22.9098 0.6955,-11.89156 3.5365,-20.84861 12.4,-39.09459 10.1508,-20.89589 13.2436,-30.97384 17.3393,-56.5 4.1371,-25.78454 5.9191,-31.26437 18.6987,-57.5 9.6673,-19.84645 14.4691,-32.98868 18.2687,-50 3.1253,-13.99267 4.8216,-18.7299 9.4892,-26.5 2.3127,-3.85 7.0047,-12.60507 10.4266,-19.45571 6.1469,-12.30589 11.6583,-20.88135 14.9748,-23.30036 2.5783,-1.88054 6.458,-7.45804 10.6037,-15.24393 6.1334,-11.51911 9.6929,-17.13211 11.6322,-18.34324 2.8736,-1.79459 11.6642,0.47423 15.0828,3.8928 2.6165,2.61646 2.7966,3.33552 2.7966,11.16342 0,13.44116 -4.2695,26.50998 -14.4038,44.08988 -16.9231,29.35643 -18.5297,33.89504 -25.6096,72.34761 -3.9843,21.63938 -8.3117,34.47011 -17.0339,50.50581 -16.7694,30.82993 -21.4213,46.8212 -23.9381,82.28786 -1.8859,26.57612 -9.1151,47.41557 -21.1216,60.88656 -9.0783,10.18558 -19.0476,13.75752 -27.4488,9.83474 z m 125.8697,-65.62943 c -7.2501,-3.15327 -10.7989,-13.85614 -10.1498,-30.61074 0.3915,-10.10488 0.5228,-10.60967 4.2718,-16.42527 2.1273,-3.3 4.5341,-7.575 5.3484,-9.5 2.3138,-5.46958 8.2148,-35.4038 9.199,-46.66448 1.3322,-15.24188 4.2173,-23.06086 15.4365,-41.83552 6.4342,-10.76724 9.2988,-18.13108 11.0864,-28.5 2.6641,-15.45187 4.0494,-20.14401 7.9718,-27 2.0453,-3.575 6.4332,-12.125 9.751,-19 3.3178,-6.875 7.4525,-14.75 9.1881,-17.5 3.7126,-5.88239 6.9215,-13.00472 12.5187,-27.7857 7.9751,-21.06078 15.4427,-29.02012 28.0091,-29.85329 5.2346,-0.34707 5.534,-0.22976 7.75,3.03687 4.0383,5.95281 3.1036,13.82475 -4.6338,39.02489 -3.9964,13.01586 -8.0611,31.73712 -8.0611,37.12799 0,4.24957 2.1432,3.72957 6.8996,-1.67406 4.9925,-5.67178 9.6747,-12.66435 14.6484,-21.8767 5.03,-9.31641 14.3697,-24.56054 16.1202,-26.31107 1.1962,-1.1962 4.7016,-6.0154 11.3318,-15.57889 2.753,-3.97096 14.2541,-16.81193 23,-25.67946 3.575,-3.62471 10.9575,-11.19416 16.4055,-16.82098 17.151,-17.71383 22.4782,-21.05026 33.6702,-21.08764 5.6172,-0.0188 6.8961,0.31909 8.7739,2.31791 2.9906,3.18335 4.1504,7.78198 4.1504,16.45612 0,18.23103 -6.8893,33.87318 -27.8193,63.1633 -10.7555,15.05168 -17.9768,30.06675 -18.4443,38.35091 -0.13,2.30439 0.1439,10.74732 0.6087,18.76207 1.1178,19.27632 1.021,19.61581 -14.117,49.47936 -12.1796,24.0274 -13.8977,34.12291 -10.7211,62.99673 1.5385,13.98455 2.1527,16.7532 4.9807,22.45164 1.7742,3.575 3.5271,8.45379 3.8955,10.84177 0.7535,4.88468 3.4318,10.58907 6.491,13.82487 2.1713,2.29666 6.1258,12.85232 6.1258,16.35147 0,5.59922 -6.7131,13.44307 -15.3515,17.93747 -5.2548,2.7339 -6.77,3.04442 -14.8557,3.04442 -20.5402,0 -32.8236,-6.96951 -39.9384,-22.66076 -3.9944,-8.80956 -5.6579,-17.66008 -6.9793,-37.13403 -1.1146,-16.42537 -1.0804,-17.08212 2.0416,-39.20521 3.6474,-25.84695 3.8345,-26.73028 9.6371,-45.5 2.3804,-7.7 5.0205,-16.925 5.8669,-20.5 2.6639,-11.25169 4.7207,-22.19194 4.2589,-22.65371 -0.2445,-0.24448 -2.4144,1.26509 -4.8222,3.3546 -18.9653,16.45876 -32.9629,40.31583 -49.4131,84.21839 -8.5683,22.86717 -16.3387,38.85167 -29.9358,61.58072 -6.0007,10.03097 -12.8643,23.7576 -14.5005,29 -2.1126,6.76877 -5.8942,12.88863 -9.4811,15.34374 -5.935,4.06223 -14.4541,5.19694 -20.213,2.69227 z M 169.25404,605.17183 c -3.55365,-1.60676 -5.91042,-4.70774 -7.38931,-9.72267 -1.61894,-5.48982 -1.33357,-19.72691 0.53865,-26.87269 5.35318,-20.43184 23.65015,-46.41153 37.80112,-53.67346 4.12899,-2.11889 7.0334,-2.77298 13.85558,-3.12035 10.3438,-0.52668 14.31956,0.60028 18.94057,5.36886 3.39369,3.50207 3.42681,3.62417 3.3173,12.23117 -0.0608,4.78158 -0.86411,11.61878 -1.78506,15.19378 -3.71936,14.43799 -15.51268,33.04884 -30.09978,47.5 -4.76177,4.71739 -7.97482,6.82915 -15.0305,9.87874 -10.22597,4.41984 -15.59255,5.27658 -20.14857,3.21662 z M 24.68066,413.86152 c -3.43922,-2.18493 -4.23202,-6.03322 -3.31889,-16.10999 1.68235,-18.56533 13.29169,-58.85461 27.13651,-94.17506 9.12101,-23.26922 15.58203,-38.32863 29.38891,-68.5 16.90473,-36.94092 29.70512,-71.36927 36.03744,-96.92749 3.77364,-15.23096 6.18361,-19.627 12.04566,-21.97253 3.89829,-1.55979 4.36771,-1.56173 6.70896,-0.0277 2.43462,1.59522 2.49926,1.91707 1.96611,9.78858 -0.84444,12.46738 -6.64434,32.63687 -19.13914,66.55744 -2.51589,6.83008 -4.46259,12.52913 -4.326,12.66455 0.34854,0.34558 12.39036,-11.07225 42.38514,-40.18884 35.0115,-33.98642 56.3717,-53.27214 67.70555,-61.13007 7.65709,-5.308772 15.55202,-2.16275 14.27778,5.68949 -0.85833,5.28924 -3.10059,7.68148 -17.18227,18.3315 -7.11582,5.38172 -15.62587,12.13172 -18.91122,15 -19.44257,16.97435 -33.00117,29.77352 -40.54087,38.27013 -2.46717,2.7803 -11.34827,12.57267 -19.73577,21.76082 -8.68051,9.50913 -15.25,17.54109 -15.25,18.64489 0,1.06653 -0.7216,9.94916 -1.60355,19.73918 -1.27929,14.20057 -1.46863,24.2529 -0.93634,49.71072 0.64916,31.0479 1.37888,39.89988 3.79937,46.08931 1.44262,3.68892 4.54549,6.42245 7.34048,6.46673 2.62135,0.0415 9.89005,-5.13311 11.49777,-8.18535 0.66092,-1.25476 1.47602,-2.50638 1.81133,-2.78138 2.09057,-1.71455 8.64506,-13.20751 18.82005,-33 8.29934,-16.14394 11.85713,-21.65854 14.40267,-22.32421 8.25883,-2.15973 7.2646,7.868 -3.01332,30.39193 -15.35611,33.65275 -30.67567,53.52679 -45.03045,58.41796 -11.61714,3.95835 -19.443,-0.28224 -25.68583,-13.91837 -4.59817,-10.04373 -5.8096,-20.4137 -5.7905,-49.56731 0.0161,-24.63083 0.88816,-38.56084 4.91415,-78.5 0.56427,-5.59777 0.0728,-4.65922 -7.33102,14 -4.36471,11 -10.0191,24.85762 -12.56532,30.79471 -2.54622,5.9371 -4.62949,11.02843 -4.62949,11.31408 0,0.28565 -1.14496,3.0225 -2.54435,6.08188 -4.10008,8.96372 -14.45565,35.32051 -14.45565,36.79227 0,0.74273 -0.35844,1.50041 -0.79654,1.68375 -1.22902,0.51431 -12.78746,36.04428 -15.5609,47.83333 -1.35861,5.775 -3.00199,14.325 -3.65195,19 -1.6569,11.91752 -3.99172,18.9856 -6.99061,21.16231 -3.75344,2.72439 -8.0515,3.15342 -11.2479,1.12274 z m 752.2479,-49.93712 c -7.0637,-2.32712 -8.5284,-5.84485 -7.5123,-18.04216 2.2096,-26.52634 14.113,-47.91659 36.2935,-65.21923 8.9046,-6.94631 13.9298,-8.96013 22.5345,-9.03067 7.2428,-0.0594 9.8605,0.83709 13.3704,4.57883 4.2288,4.50805 4.3618,18.59377 0.2868,30.3653 -8.8012,25.42358 -30.0666,50.27294 -48.2578,56.39079 -4.5304,1.52359 -13.4461,2.03412 -16.7151,0.95714 z M 206.70815,326.40493 c -4.64976,-4.38529 -5.42628,-8.53833 -3.98792,-21.32846 4.40216,-39.14472 32.3173,-120.58621 62.04014,-181 17.24715,-35.056082 35.92044,-61.358307 47.4434,-66.826309 5.3111,-2.520283 12.00729,-2.196291 15.41903,0.746043 2.75234,2.373663 2.80379,2.61643 2.70229,12.75 -0.0947,9.453548 -0.48998,11.48776 -4.65762,23.968934 -2.50478,7.501262 -5.94572,16.645162 -7.64653,20.319772 -1.70081,3.6746 -3.09238,6.89913 -3.09238,7.16561 0,2.24377 -24.67798,49.38397 -34.48618,65.87595 -6.45709,10.85725 -20.60342,31.83364 -33.34224,49.44036 -19.78074,27.33957 -18.90853,25.84584 -21.61243,37.01266 -4.98918,20.60472 -5.38995,30.05591 -1.27397,30.04324 2.75931,-0.008 7.96476,-4.32906 12.31545,-10.22192 4.17436,-5.65403 18.39937,-33.09759 18.39937,-35.49692 0,-0.53754 1.34586,-2.83525 2.9908,-5.10602 4.75534,-6.56455 11.0092,-6.62622 11.0092,-0.10855 0,9.10417 -16.96984,43.06317 -28.9203,57.87352 -9.14121,11.32882 -16.7431,16.76269 -24.78278,17.71487 -4.57085,0.54135 -5.1559,0.34745 -8.51733,-2.82278 z m 36.32457,-103.61641 c 1.43229,-2.04163 5.03871,-7.08705 8.01427,-11.21205 5.49741,-7.62104 13.88157,-20.56147 13.88157,-21.42536 0,-0.26091 1.29569,-2.40944 2.87932,-4.77451 1.58362,-2.36507 5.69702,-9.70013 9.14087,-16.30013 3.44386,-6.6 6.59823,-12.45 7.00971,-13 0.41149,-0.55 4.17926,-8.31397 8.37282,-17.25326 C 312.8461,95.092348 317.869,71.601082 304.0317,84.102252 291.90586,95.057218 270.8374,138.63575 248.44631,199.07647 c -7.06058,19.05877 -9.74482,27.51826 -8.71385,27.46205 0.38286,-0.0209 1.86797,-1.70837 3.30026,-3.75 z m 44.39584,73.35184 c -8.33503,-3.08423 -11.8226,-10.20184 -11.7911,-24.06389 0.0322,-14.17395 3.47764,-26.79361 11.94821,-43.76289 9.2585,-18.54774 17.75502,-30.50771 31.78187,-44.73711 10.01001,-10.15455 17.71082,-15.1158 24.47086,-15.76536 14.44167,-1.38766 15.62966,14.80981 2.94094,40.09803 -8.26131,16.46455 -28.39296,40.03589 -43.29725,50.69502 -6.59206,4.71445 -7.54948,5.7884 -7.52173,8.43719 0.11506,10.98063 15.0723,11.23496 30.37345,0.51647 12.1514,-8.51209 19.85896,-17.36198 35.47269,-40.73012 10.94253,-16.37703 13.6423,-19.11354 17.055,-17.28712 4.6179,2.47142 1.1998,12.18627 -10.19941,28.98855 -18.04096,26.59213 -39.73091,47.83653 -56.54269,55.38121 -7.79093,3.49636 -18.62437,4.47481 -24.69084,2.23002 z m 15,-51.41405 c 8.46033,-5.19659 24.30042,-24.81507 31.34663,-38.82384 9.40134,-18.69109 1.06595,-20.82619 -12.98461,-3.326 -1.98713,2.475 -4.3587,5.85 -5.27015,7.5 -0.91145,1.65 -3.00026,5.25 -4.64179,8 -5.83357,9.77279 -13.81807,28.50524 -12.14622,28.49626 0.38288,-0.002 2.04614,-0.83295 3.69614,-1.84642 z m 78.09547,24.95566 c -1.65444,-1.82814 -1.81774,-3.13459 -1.29358,-10.34888 1.53344,-21.1058 19.09776,-72.87457 35.20295,-103.75662 6.32649,-12.13117 10.59718,-17 14.91152,-17 7.21791,0 7.21235,3.31728 -0.0331,19.75632 -18.27695,41.46824 -26.1394,65.13576 -30.97595,93.24368 -1.92311,11.17624 -2.98401,14.25368 -5.83806,16.93492 -3.45752,3.24817 -9.55421,3.84419 -11.9738,1.17058 z m 48.27779,-23.23224 c -3.37811,-3.37811 -2.15614,-11.38082 5.02381,-32.90098 20.39415,-61.12649 31.79833,-84.97228 40.63773,-84.97228 2.90227,0 6.4652,3.22029 6.4652,5.84345 0,2.75735 -3.2535,11.49313 -8.25704,22.17053 -7.18173,15.32555 -6.55572,15.32341 4.09107,-0.014 21.95341,-31.62528 37.63864,-48 45.97887,-48 2.9711,0 5.1895,3.25597 5.1636,7.57874 -0.023,3.83535 -1.8281,7.67407 -15.79485,33.58993 -5.28539,9.80724 -11.55728,25.55015 -14.37786,36.08951 -1.66864,6.23502 -2.20569,11.04195 -2.20566,19.74182 5e-5,12.8647 1.04444,16.36641 6.79191,22.77228 4.36079,4.86032 5.08611,7.40626 3.1672,11.11704 -2.23201,4.31623 -5.35103,6.11578 -10.52975,6.07524 -5.78754,-0.0453 -8.54824,-1.61815 -12.08603,-6.88579 -4.78303,-7.12177 -6.43747,-14.14183 -6.38172,-27.07877 0.0613,-14.23564 3.08234,-27.90618 9.36795,-42.39154 1.16741,-2.69034 1.93429,-5.07982 1.70416,-5.30995 -0.8711,-0.8711 -7.0171,6.5785 -13.6948,16.59953 -8.18307,12.28011 -14.59789,25.06527 -22.88031,45.60196 -4.9126,12.18105 -6.7946,15.70474 -10.01439,18.75 -4.64164,4.39005 -8.842,4.95035 -12.16909,1.62326 z m 109.98024,-43.40016 c -5.634,-1.78638 -10.314,-6.77269 -11.929,-12.70997 -1.8669,-6.86344 -0.5904,-24.64442 2.5255,-35.17851 3.8756,-13.10249 13.1972,-31.66978 21.8813,-43.58462 15.8088,-21.689982 34.4482,-38.000002 43.4273,-38.000002 3.749,0 8.8375,2.818171 10.1028,5.595245 5.7483,12.616155 -11.0764,47.633317 -33.8435,70.438487 -10.8705,10.88861 -15.9332,15.24966 -21.2602,18.31372 -4.1611,2.39347 -4.7469,4.83904 -2.2947,9.58103 1.772,3.42673 3.3025,4.08467 9.3688,4.02763 16.3359,-0.1536 33.3963,-15.23216 56.5221,-49.95611 9.7453,-14.63292 10.9359,-16 13.9339,-16 5.6508,0 5.6916,4.06552 0.1519,15.13397 -10.4299,20.83939 -35.3973,50.17166 -54.0124,63.45514 -11.4486,8.16954 -25.4666,11.77157 -34.5738,8.88399 z m 21.9711,-59.29239 c 8.4358,-8.41775 9.2711,-9.41348 15.277,-18.21219 12.7653,-18.70114 15.852,-32.615732 6.1187,-27.582442 -8.2641,4.273542 -25.1686,29.914932 -31.3286,47.520472 -3.6604,10.46157 -1.9897,10.17129 9.9329,-1.72584 z m 71.1754,36.86497 c -2.172,-0.54402 -2.5405,-1.25739 -2.8089,-5.43754 -0.5029,-7.83103 7.0541,-38.2739 17.6516,-71.10814 4.6042,-14.265432 15.3005,-37.405796 21.4408,-46.385317 3.8425,-5.61922 9.5869,-11.040447 12.4665,-11.765204 1.2375,-0.311463 3.4301,-0.270111 4.8724,0.0919 2.4578,0.616846 2.5929,0.953447 2.1506,5.358408 -0.3332,3.32005 -2.102,7.510303 -6.0234,14.27009 -6.9644,12.005176 -12.5785,23.777416 -13.4033,28.105246 -0.7852,4.12066 -0.8285,4.1639 6.1739,-6.17512 6.4064,-9.459108 27.0988,-37.110333 30.6818,-41 1.2665,-1.375 3.5759,-4.075 5.1319,-6 5.8022,-7.17829 16.1439,-17.08181 18.439,-17.657847 5.38,-1.350307 9.8142,3.996946 7.4478,8.981589 -0.5682,1.196942 -4.72,7.126258 -9.2262,13.176258 -12.6887,17.035789 -15.7152,24.543143 -10.209,25.324206 3.8509,0.546257 10.842,-4.47589 22.9211,-16.465637 9.4055,-9.33604 12.02,-11.410003 14.0718,-11.162523 1.3859,0.167175 3.0037,1.076778 3.5951,2.02134 3.237,5.170558 -16.4392,29.930736 -32.9042,41.405963 -9.3714,6.531381 -20.4295,9.482861 -25.5697,6.824731 -3.4174,-1.7672 -4.3667,-4.856668 -3.567,-11.608891 l 0.5915,-4.993615 -6.2121,8.480083 c -8.8331,12.058213 -14.921,22.0247 -23.4003,38.30881 -7.8731,15.11988 -10.4331,21.02329 -15.9282,36.73068 -1.8982,5.42584 -4.0682,11.05084 -4.8224,12.5 -2.9749,5.71693 -8.9666,9.3313 -13.5611,8.18053 z M 437.15107,98.019768 c -5.20167,-3.6434 -0.75825,-19.981678 8.51059,-31.293067 9.70545,-11.844222 20.257,-10.806238 19.0387,1.872887 -0.93903,9.772678 -11.90532,26.46341 -19.46159,29.62063 -4.15477,1.73597 -5.36593,1.70595 -8.0877,-0.20045 z"
         id="path2834"
         style="fill:#bcadce" />
      <path
         d="m -480.07144,638.07647 0,-649.500002 891.5,0 891.50004,0 0,649.500002 0,649.50003 -891.50004,0 -891.5,0 0,-649.50003 z m 590.28425,619.47573 c 28.94404,-2.7448 44.79532,-14.9907 71.2824,-55.0693 6.75846,-10.2265 13.73325,-21.7015 15.49954,-25.5 1.76629,-3.7985 4.17343,-8.2564 5.34919,-9.9064 15.26139,-21.4169 33.00326,-62.0441 54.58732,-125 3.2056,-9.35 7.03618,-20.375 8.51241,-24.5 1.47624,-4.125 5.0725,-16.95 7.9917,-28.50003 13.23929,-52.38203 17.84185,-60.03313 50.09615,-83.27778 17.70057,-12.75624 27.31166,-21.59167 45.37496,-41.71302 14.38345,-16.02224 23.32175,-30.087 33.05235,-52.0092 18.45897,-41.58645 36.92887,-95.73724 38.50302,-112.8847 0.74906,-8.15958 -0.72191,-11.00317 -5.91372,-11.43207 -3.41351,-0.282 -4.30152,0.17069 -8.08903,4.12356 -2.73788,2.85741 -5.26178,7.00751 -7.07993,11.64165 -1.55394,3.96073 -6.01983,12.27512 -9.9242,18.47643 -3.90438,6.20131 -8.36189,14.38012 -9.9056,18.17512 -1.5437,3.79501 -4.85634,11.40001 -7.36142,16.90001 -2.50508,5.5 -7.16428,15.98884 -10.35378,23.30854 -4.93914,11.33499 -13.98687,26.95079 -18.20333,31.41775 -0.66125,0.70054 -3.63606,4.19871 -6.61068,7.77371 -2.97462,3.575 -12.76212,13.82951 -21.75,22.7878 l -16.3416,16.2878 0.0258,-3.7878 c 0.0611,-8.96378 2.07907,-23.37686 4.31069,-30.7878 3.70311,-12.29761 13.4928,-34.45247 17.67502,-40 2.45692,-3.25901 14.09044,-26.25887 16.69167,-33 11.3248,-29.34847 17.8424,-51.61228 18.93122,-64.66817 l 0.65169,-7.81435 -3.57026,-1.49175 c -1.96365,-0.82046 -3.84661,-2.36241 -4.18435,-3.42655 -0.33775,-1.06414 0.53597,-9.05928 1.94158,-17.76699 1.40561,-8.7077 2.94675,-18.28677 3.42474,-21.28682 1.02023,-6.40325 -0.18344,-10.69328 -4.93991,-17.60658 -4.01587,-5.83686 -10.89677,-10.80086 -17.91892,-12.92699 -5.39306,-1.63289 -6.00737,-1.60702 -20.99894,0.88437 -10.33359,1.71729 -17.15491,3.40384 -20.61623,5.09731 -5.39597,2.64 -11.65993,8.77066 -17.14588,16.78102 -3.32007,4.84784 -4.48572,5.7658 -19.83609,15.62114 -19.27069,12.3723 -39.34983,37.31918 -47.39336,58.88281 -5.3766,14.41397 -9.96022,25.1216 -12.38298,28.92746 -2.17731,3.42027 -7.46285,8.35088 -11.43979,10.67158 -5.26881,3.07455 -12.15674,10.26533 -14.00668,14.62251 -2.08641,4.91416 -9.37558,26.50472 -13.16675,39 -3.65098,12.0332 -4.26005,13.71293 -10.14367,27.97473 -2.3767,5.7611 -6.4282,13.6361 -9.00332,17.5 -5.94141,8.91493 -7.42341,13.40609 -9.46194,28.67411 -2.89908,21.71327 -0.35955,47.18937 5.94395,59.62873 3.22586,6.36594 9.08816,12.36179 14.72388,15.05931 10.98439,5.25764 32.22589,4.28083 43.88883,-2.01828 11.55159,-6.23897 21.40802,-14.12665 36.89673,-29.52686 6.26819,-6.23239 11.61241,-11.11593 11.87604,-10.8523 0.95208,0.95208 0.28061,21.4682 -0.85773,26.20715 -1.75022,7.28622 -7.85024,19.31904 -12.17418,24.0146 -2.10751,2.28865 -7.05063,6.33865 -10.9847,9 -3.93407,2.66134 -10.91901,8.32631 -15.52208,12.58881 -4.60308,4.2625 -8.75668,7.75 -9.23023,7.75 -0.47355,0 -1.45564,0.58503 -2.18242,1.30006 -0.72679,0.71503 -6.49643,3.92501 -12.82143,7.13334 -6.325,3.2082 -14.26709,7.7885 -17.64909,10.1784 -6.42636,4.54123 -13.68585,13.25033 -17.15718,20.58323 -1.12087,2.3677 -4.2974,9.1271 -7.05895,15.0207 -7.40004,15.793 -11.83793,21.3317 -25.13478,31.3695 -12.88741,9.7288 -25.39442,22.8718 -36.0801,37.9148 -3.33296,4.6921 -16.9199,27.2155 -16.9199,28.0486 0,0.21 -2.3949,4.1099 -5.32199,8.6666 -12.49238,19.447 -14.16886,25.816 -15.34221,58.2848 -0.69261,19.166 0.74374,34.7754 3.74049,40.6495 5.96982,11.7019 16.50072,16.7661 38.92371,18.7182 0.825,0.072 6.35291,-0.3296 12.28425,-0.892 z m -4.25023,-46.6747 c -5.83651,-3.0328 -7.55335,-7.2707 -7.414,-18.301 0.13324,-10.5459 1.85856,-18.2559 6.86185,-30.6638 5.45336,-13.5241 10.46283,-19.9885 30.33344,-39.1429 23.03662,-22.2063 22.3239,-21.0988 40.98646,-63.6933 4.15496,-9.4831 8.74372,-16.8154 13.61749,-21.7591 7.0522,-7.1534 20.55926,-17.6999 26.32516,-20.5551 7.1274,-3.5294 8.08088,-2.5034 5.86635,6.3127 -1.57869,6.2848 -3.11045,10.5025 -12.34849,34.0015 -2.16219,5.5 -5.39439,14.05 -7.18268,19 -3.33565,9.2331 -9.33623,24.0502 -11.54183,28.5 -5.90695,11.9172 -30.1699,59.2551 -31.77801,62 -9.72384,16.5977 -29.25076,39.0574 -37.85338,43.5386 -4.64502,2.4196 -12.00297,2.7731 -15.87236,0.7624 z m 89.36195,-316.81945 c -3.21711,-4.90993 0.0366,-19.42598 8.43794,-37.64511 4.02765,-8.73433 7.66934,-22.34321 10.6601,-39.83647 2.61583,-15.30024 5.90662,-24.7692 11.2486,-32.36682 3.00008,-4.26686 18.25739,-33.65695 18.25739,-35.16913 0,-0.31377 1.965,-3.58404 4.36667,-7.26727 2.40167,-3.68323 7.86183,-12.99678 12.13369,-20.69678 14.21078,-25.61487 20.73233,-35.67051 27.45648,-42.33543 7.70787,-7.63997 17.74742,-14.57346 24.21036,-16.7201 8.41916,-2.7964 16.8328,1.26927 16.8328,8.13401 0,8.72502 -6.17639,31.49301 -13.2712,48.92152 -4.7233,11.60286 -7.59217,16.47181 -22.78914,38.67691 l -11.17138,16.32309 0.77859,6 c 2.35342,18.13592 0.61192,24.55944 -13.00131,47.95531 -3.18596,5.47542 -6.63576,11.92222 -7.66623,14.32621 -2.07362,4.83755 -7.39424,13.0945 -11.41745,17.71848 -3.2032,3.68152 -5.85485,6.66134 -15.41044,17.31764 -8.02387,8.94815 -14.79376,13.44208 -25.76989,17.10638 -8.44601,2.81963 -11.8186,2.71217 -13.88558,-0.44244 z m -631.55011,302.57475 c 6.93557,-2.535 11.67431,-6.2324 15.29954,-11.9374 3.84608,-6.0526 5.3904,-11.8623 7.3416,-27.6189 2.00354,-16.1792 3.8437,-22.4145 11.59446,-39.2868 6.99164,-15.2198 10.45947,-28.3777 14.41991,-54.7132 5.0712,-33.7216 7.66191,-42.5185 29.00863,-98.50003 9.13701,-23.96171 14.88291,-41.74526 19.22456,-59.5 4.061,-16.60703 5.40627,-18.94357 17.44985,-30.30784 8.39311,-7.9197 28.18568,-22.19216 30.77534,-22.19216 0.49357,0 1.49204,-0.57391 2.21882,-1.27536 2.07376,-2.00146 27.49579,-14.66004 47.82143,-23.81208 10.175,-4.5815 26.6,-12.33525 36.5,-17.23054 9.9,-4.89529 22.725,-11.04521 28.5,-13.66648 29.14797,-13.23026 42.14068,-20.67767 49.2897,-28.2528 5.7375,-6.07949 6.99435,-9.15905 6.50411,-15.93651 -0.44928,-6.21122 -2.28229,-9.60857 -7.14172,-13.23666 -5.11767,-3.82089 -20.48643,-2.30304 -38.30793,3.78337 -7.94451,2.71321 -8.3939,2.90443 -26.99606,11.48734 -7.23355,3.33751 -17.13355,7.71502 -22,9.7278 -4.86646,2.01279 -18.12523,8.30072 -29.46395,13.97318 -11.33872,5.67247 -23.48691,11.48019 -26.99598,12.90605 -3.50907,1.42586 -8.11073,3.73773 -10.2259,5.13749 -2.11518,1.39976 -4.06366,2.32714 -4.32996,2.06084 -0.2663,-0.26629 1.59833,-10.7625 4.14362,-23.32491 10.32142,-50.94188 18.95853,-77.56737 32.83216,-101.21119 2.70137,-4.60375 7.28453,-13.15375 10.18479,-19 4.61227,-9.29726 12.40658,-20.5802 23.83148,-34.49814 1.7466,-2.12772 6.37736,-9.10272 10.29057,-15.5 7.88244,-12.88612 15.31802,-21.8541 22.88507,-27.60147 4.1872,-3.18028 26.09344,-14.52993 28.04459,-14.52993 2.03152,0 21.48784,-12.6207 25.95541,-16.83646 4.99623,-4.71461 18.53035,-13.88866 36,-24.40245 30.90635,-18.60043 31.71923,-18.95452 63.5,-27.66058 27.67204,-7.5805 37.32528,-11.68752 45.83843,-19.5022 6.05406,-5.55734 9.13933,-12.39134 9.1518,-20.27158 0.019,-12.03964 -5.78833,-15.00512 -28.4742,-14.54006 -13.91742,0.28531 -14.0602,0.31215 -30,5.6406 -34.74821,11.61582 -42.50982,14.96732 -54.51603,23.54033 -29.0946,20.77493 -37.36934,25.06372 -68.5,35.50341 -20.80505,6.97699 -30.46323,12.97092 -52.5,32.58184 -11.63061,10.35029 -13.49001,11.91497 -14.17857,11.93118 -0.37322,0.009 -1.27322,0.60949 -2,1.3349 -2.87913,2.8737 -12.50258,9.08208 -27.54422,17.76961 -18.91387,10.924 -26.6792,16.30796 -35.13281,24.35873 -6.37414,6.07039 -12.1444,15.41074 -12.1444,19.65819 0,5.49759 2.44179,10.21015 7.14379,13.78724 9.07105,6.90089 7.90107,16.33388 -4.07805,32.87928 -9.02684,12.46774 -22.75158,42.32494 -30.04751,65.36623 -11.31982,35.74911 -17.67804,53.52063 -43.91437,122.74264 -2.78936,7.35947 -8.53855,19.95947 -12.77597,28 -15.56963,29.54344 -23.28646,45.74022 -26.23615,55.06675 -3.94514,12.47403 -4.54713,15.37847 -7.58159,36.5789 -4.16319,29.0864 -4.52425,30.2198 -19.25241,60.43603 -4.68141,9.6043 -9.37054,19.9543 -10.4203,23 -1.67179,4.8503 -6.18151,28.4924 -11.29149,59.1953 -2.83601,17.04 -5.30222,24.1594 -12.09809,34.9248 -5.3243,8.4342 -6.77452,20.9918 -3.95896,34.281 2.33683,11.0297 7.03642,17.4417 14.42467,19.6807 5.07803,1.5389 16.41648,1.0281 21.93229,-0.988 z m 274.15414,-98.208 c 13.86666,-2.6353 30.20264,-7.2967 36.8826,-10.5244 2.96043,-1.4304 12.27991,-8.361 20.70996,-15.4012 18.97958,-15.8506 35.15556,-27.9227 37.41481,-27.9227 1.00575,0 7.5431,-7.8697 12.02029,-14.4701 1.85424,-2.7336 5.91643,-7.4606 9.02708,-10.5043 6.20388,-6.0705 10.7947,-12.8091 16.02732,-23.52563 1.87987,-3.85 3.75544,-7.15 4.16794,-7.3333 0.4125,-0.18337 0.75,-0.88136 0.75,-1.55114 0,-0.66978 5.01092,-8.84478 11.13537,-18.16667 24.66823,-37.54695 33.62738,-55.28218 38.3178,-75.85263 0.8661,-3.7984 -0.96131,-8.05112 -4.06781,-9.46654 -9.0047,-4.10282 -19.20389,3.80633 -29.38536,22.78739 -3.025,5.63944 -6.1301,11.42993 -6.90021,12.86777 -0.77012,1.43783 -4.65924,5.78694 -8.6425,9.66468 -3.98326,3.87774 -9.3956,9.75044 -12.02743,13.05044 -5.25016,6.58306 -25.03402,36.33983 -32.57777,49 -2.62181,4.4 -5.47057,8.99723 -6.33059,10.21613 -0.86002,1.2188 -8.86668,7.0074 -17.79258,12.8634 -13.26489,8.7028 -26.01514,18.2289 -28.72892,21.4642 -1.30985,1.5616 -11.90772,8.6683 -15.12811,10.1445 -9.71822,4.455 -23.98957,4.8126 -31.94428,0.8005 -8.85171,-4.4644 -13.66505,-11.9105 -14.53736,-22.4887 -0.71838,-8.7116 0.51954,-10.4255 9.91079,-13.7213 11.70132,-4.1065 23.44122,-13.44223 48.05212,-38.21166 25.39522,-25.5588 29.47105,-30.02644 36.14108,-39.61541 2.08567,-2.99841 8.3402,-11.47237 13.89895,-18.831 31.64717,-41.89437 40.62759,-62.12331 40.59203,-91.43604 -0.0377,-31.09615 -8.81285,-41.86014 -32.91507,-40.37521 -16.06916,0.99001 -29.23807,5.10313 -38.07015,11.89065 -5.86532,4.50755 -17.69895,16.97344 -27.24205,28.69758 -12.39867,15.23234 -23.40511,26.41795 -31.35026,31.8606 -12.96001,8.87799 -20.3641,20.07218 -33.89243,51.24176 -1.79035,4.125 -4.63013,10.65894 -6.31062,14.51988 -3.69041,8.47872 -9.54762,19.53159 -13.23764,24.98012 -3.6219,5.34796 -8.56921,17.49454 -10.38616,25.5 -0.8114,3.575 -2.96152,16.175 -4.77805,28 -2.96529,19.30303 -3.27193,23.28823 -3.00077,39.00003 0.33674,19.5112 2.12874,29.4275 6.9032,38.1997 7.74844,14.2365 21.60548,23.1842 38.29478,24.7276 9.4897,0.8777 15.83664,0.4226 29,-2.079 z m -12,-119.35656 c 0,-2.3448 5.69503,-23.41982 9.01985,-33.37882 5.51218,-16.51094 17.31507,-44.15545 19.18991,-44.94628 0.43463,-0.18334 0.79024,-0.90903 0.79024,-1.61264 0,-1.69469 14.48523,-23.53269 20.99003,-31.64467 2.82673,-3.52515 7.93378,-9.33436 11.34901,-12.90936 3.41522,-3.575 7.73046,-8.40513 9.58942,-10.73361 2.34335,-2.93522 4.40944,-4.42675 6.73678,-4.86337 1.84627,-0.34636 3.60344,-1.02873 3.90482,-1.51638 1.00878,-1.63224 5.34031,-0.92263 6.39476,1.04762 0.56935,1.06384 1.03203,5.90134 1.02817,10.75 -0.0178,22.37022 -9.93298,43.43987 -34.97239,74.31574 -5.57542,6.875 -14.12496,17.675 -18.99898,24 -11.87849,15.41469 -18.85628,22.47061 -24.53021,24.8049 -1.65473,0.68076 -4.44282,2.57815 -6.19577,4.21643 -3.05333,2.85359 -4.29564,3.56804 -4.29564,2.47044 z m 225,51.38956 c 11.25055,-6.7864 17.43414,-22.6446 23.54438,-60.38133 3.84622,-23.75414 6.36716,-32.50534 15.98775,-55.5 8.04708,-19.23375 11.65383,-32.85822 15.49596,-58.53594 0.63044,-4.21337 5.77361,-17.34837 17.03296,-43.5 35.17365,-81.69641 34.09605,-79.03508 35.15741,-86.82731 0.90941,-6.67665 0.81941,-7.60906 -0.96517,-9.99932 -1.08246,-1.44983 -3.67959,-3.28746 -5.77141,-4.08361 -3.71823,-1.41517 -3.97093,-1.35927 -11.29889,2.49932 -9.01488,4.74685 -16.30589,11.05629 -18.69694,16.17981 -10.32816,22.13112 -11.69308,24.47847 -18.25974,31.40258 -15.24435,16.07418 -21.13379,28.17742 -28.25994,58.07631 -5.07799,21.30554 -15.77529,61.9147 -19.3774,73.56066 -5.513,17.82402 -10.40159,29.90501 -19.11068,47.2275 -7.89999,15.71318 -8.34762,16.96114 -9.38693,26.17044 -0.60025,5.31874 -1.09136,19.39569 -1.09136,31.28216 0,22.83213 0.62723,26.68823 5.00441,30.76613 4.15482,3.8708 14.85923,4.7609 19.99559,1.6626 z m 905.2836,-100.90183 c 19.6893,-2.84699 37.2046,-13.41228 58.26244,-35.14399 4.9753,-5.13453 11.305,-12.03551 14.066,-15.33551 6.0075,-7.18037 17.969,-23.78906 20.0986,-27.90731 1.767,-3.41696 7.2894,-19.07665 7.2894,-20.67026 0,-3.99253 8.8791,-21.28116 13.8229,-26.9149 1.2647,-1.44113 16.5421,-24.98474 23.6869,-36.50315 3.6618,-5.90329 12.1497,-23.11638 14.3023,-29.00438 3.4855,-9.53352 5.7945,-22.53243 9.7414,-54.8399 4.8737,-39.89319 6.8863,-44.95374 23.6372,-59.43387 12.8102,-11.07367 19.2113,-16.789 21.533,-19.22623 4.1226,-4.32771 10.9445,-16.04456 16.8847,-29 5.3349,-11.63536 9.7647,-19.81766 11.369,-21 0.3732,-0.275 8.2583,-10.625 17.5226,-23 9.2643,-12.375 17.1234,-22.725 17.4649,-23 0.3414,-0.275 4.0415,-5.675 8.2226,-12 8.5038,-12.86449 17.0075,-27.6994 27.8013,-48.5 3.9956,-7.7 7.613,-14.45 8.0387,-15 2.0615,-2.66401 10.6451,-23.31986 14.1072,-33.94794 4.1997,-12.89276 7.8847,-29.54993 7.8335,-35.41012 -0.04,-4.56338 -1.936,-7.14194 -5.2517,-7.14194 -4.5772,0 -8.5398,4.67589 -15.1636,17.89329 -7.285,14.53686 -13.7025,24.54057 -22.4473,34.99137 -8.2479,9.85706 -10.1589,13.40363 -15.1496,28.11534 -2.3322,6.875 -6.1727,16.56288 -8.5345,21.52863 -4.051,8.5176 -16.0441,27.59409 -20.0998,31.97137 -1.0192,1.1 -2.8981,3.35 -4.1754,5 -4.4816,5.78957 -19.7192,21.75095 -26.9544,28.23469 -4.9992,4.47996 -7.6325,6.2247 -8.3349,5.52232 -0.9547,-0.95474 0.4367,-6.77167 7.7158,-32.25701 0.864,-3.025 2.4988,-7.525 3.6329,-10 5.4456,-11.88389 19.1042,-47.3313 24.2217,-62.86107 3.1466,-9.54859 8.8158,-24.62359 12.5983,-33.5 7.5435,-17.70267 9.5063,-24.1185 10.5173,-34.3787 0.5243,-5.32102 0.2985,-7.68149 -1.0318,-10.78599 -1.5191,-3.54508 -1.6156,-6.29594 -0.8935,-25.47424 1.0185,-27.05347 0.9294,-29.00732 -1.5445,-33.85642 -2.9858,-5.8528 -8.2637,-9.04482 -19.1572,-11.58609 -9.0901,-2.12058 -25.7781,0.2535 -35.0378,4.98459 -3.3973,1.73578 -21.945,13.43036 -22.8782,14.42499 -0.275,0.29311 -2.075,1.41042 -4,2.48291 -1.925,1.07249 -3.95,2.3264 -4.5,2.78647 -0.55,0.46006 -3.925,2.69531 -7.5,4.96722 -12.9858,8.25247 -23.3063,17.59688 -30.2935,27.42841 -5.0176,7.06024 -6.5484,10.45805 -8.8156,19.56727 -1.7997,7.2309 -2.8239,9.15941 -9.2079,17.33762 -3.9506,5.06096 -8.083,10.45107 -9.183,11.97801 -1.1,1.52695 -3.8,5.15487 -6,8.06206 -27.6809,36.5788 -26.0334,34.19123 -32.3783,46.92296 -7.0597,14.16593 -8.3283,18.87289 -13.072,48.5 -2.7645,17.26648 -5.2459,26.37247 -10.4333,38.28714 -12.15024,27.90727 -14.70844,42.08919 -11.17104,61.9275 2.515,14.10433 7.90894,23.16226 17.11034,28.73338 5.0791,3.07513 6.6276,3.49165 14.3196,3.85154 10.5838,0.4952 18.3144,-1.33745 28.7985,-6.82709 14.0875,-7.37644 27.9021,-19.72389 42.2332,-37.74808 4.0563,-5.10158 7.587,-9.06372 7.846,-8.80474 0.8439,0.84394 -1.8449,27.92376 -3.3671,33.911 -2.0949,8.23933 -5.7966,16.18512 -10.5418,22.62755 -5.5724,7.56572 -24.0327,25.67892 -37.2615,36.56106 -6.0045,4.93941 -16.3066,13.70574 -22.8934,19.48074 -15.9054,13.94503 -16.7645,14.62145 -26.6731,21 -14.67914,9.4496 -17.20284,11.33158 -23.46704,17.5 -7.1578,7.04833 -11.2649,13.78685 -17.98,29.5 -5.1358,12.01742 -8.6969,17.81047 -16.5977,27 -7.3628,8.56386 -15.5273,21.33324 -22.4376,35.09274 -3.4784,6.92601 -8.3815,16.15101 -10.8958,20.5 -5.8654,10.14528 -10.1662,23.459 -11.7203,36.28175 -2.1795,17.98333 1.5184,40.0007 8.5815,51.09389 6.1861,9.71575 18.0566,15.18122 34.5008,15.88501 1.375,0.0588 5.5526,-0.3344 9.2836,-0.87389 z m -4.9078,-46.74481 c -3.1846,-2.0813 -5.3684,-7.87719 -5.3721,-14.25762 -0.01,-15.25498 7.8321,-36.91586 22.9773,-63.47707 25.5052,-44.73007 32.78374,-55.96353 46.00254,-71 8.7091,-9.90663 23.2967,-24.39801 31.7972,-31.58751 9.0229,-7.63133 23.4276,-16.04886 25.9693,-15.17539 1.7098,0.58758 1.5753,8.25748 -0.2831,16.14105 -0.8269,3.50798 -4.8051,12.95798 -8.8404,21 -7.3443,14.63662 -13.5226,29.67336 -15.6635,38.12185 -2.6032,10.27302 -8.3674,20.1881 -16.5691,28.50053 -12.098,12.2614 -15.3911,16.70922 -27.3937,36.99947 -15.68894,26.52169 -18.73954,31.26508 -24.96744,38.82181 -10.3942,12.61211 -22.2606,19.43964 -27.657,15.91288 z M 1051.5393,564.04432 c -2.5005,-2.50056 -2.8485,-7.49348 -1.185,-17.0038 0.8623,-4.93023 1.5693,-11.72701 1.5711,-15.10397 0.01,-9.6519 4.9435,-31.88222 11.4096,-51.36008 3.3827,-10.18978 12.2032,-29.51295 18.8379,-41.26855 1.7906,-3.1727 8.5917,-15.3227 15.1135,-27 13.3601,-23.92157 20.3771,-34.97201 28.8303,-45.40268 7.132,-8.80044 29.5822,-30.13734 34.4252,-32.71796 4.4487,-2.37057 16.1388,-3.34903 19.3675,-1.62107 2.2414,1.19956 2.2911,1.52666 1.7252,11.37267 -0.4226,7.35193 -1.4065,12.65077 -3.5809,19.28357 -5.2081,15.88736 -9.9615,24.32477 -29.213,51.85402 -9.5536,13.66138 -9.9121,14.67171 -9.9121,27.93454 0,9.7645 -0.3714,12.26534 -2.9148,19.62787 -11.1945,32.40502 -17.5643,45.69892 -29.345,61.24407 -7.1163,9.39022 -25.2229,28.21913 -30.4691,31.68459 -2.0741,1.3701 -4.0039,2.80217 -4.2883,3.18238 -1.1524,1.54017 -13.6653,6.82503 -16.1614,6.82576 -1.4732,4.3e-4 -3.368,-0.68868 -4.2107,-1.53136 z m -548.17019,282.1429 c 13.21505,-5.93783 23.38675,-14.61699 42.32065,-36.11075 14.0872,-15.99183 18.3623,-21.90336 26.8272,-37.09613 3.6478,-6.54713 9.5928,-17.07887 13.2111,-23.40387 13.632,-23.82971 23.6426,-46.95996 27.6987,-64 2.0384,-8.56326 3.0678,-29.60865 1.6273,-33.26793 -1.1949,-3.03531 -5.3891,-5.14299 -8.5865,-4.31489 -4.2474,1.10005 -20.2832,18.24915 -22.6133,24.18324 -0.6262,1.59477 -1.5204,6.1765 -1.9872,10.18163 -1.1232,9.63896 -3.789,14.23205 -16.0873,27.71795 -11.9142,13.06473 -18.5559,23.74879 -27.293,43.90409 -7.184,16.57288 -9.1656,19.82743 -14.6711,24.09591 -2.1282,1.65 -5.11087,4.02413 -6.62824,5.27584 -4.5604,3.76198 -7.11177,3.91576 -10.15641,0.61217 -7.14749,-7.75538 -7.40834,-23.06403 -0.93525,-54.88801 2.3355,-11.48216 5.43885,-21.76273 10.86715,-36 4.50635,-11.81933 13.01425,-31.70553 16.39255,-38.31575 6.7937,-13.29295 19.2488,-27.20618 44.0731,-49.23274 18.1251,-16.08238 23.5558,-21.68 35.2702,-36.35479 5.311,-6.6532 9.9097,-12.32172 10.2193,-12.59672 0.3095,-0.275 3.3383,-3.98288 6.7307,-8.23974 9.3141,-11.68778 12.8417,-19.95617 19.3392,-45.32857 7.7004,-30.06996 13.172,-39.51008 36.3122,-62.64829 11.5966,-11.59557 13.1589,-13.68166 16.9751,-22.66592 3.2362,-7.61887 11.7533,-37.78069 15.2528,-54.01562 5.6745,-26.32458 9.1234,-37.13502 14.5817,-45.70612 1.7148,-2.69266 4.8001,-8.54342 6.8563,-13.00169 2.0561,-4.45827 5.9396,-10.83754 8.6299,-14.17615 8.2727,-10.26638 13.3286,-20.13295 15.3518,-29.95931 0.9919,-4.81722 2.7635,-12.13359 3.937,-16.25859 3.0039,-10.55898 3.6083,-24.85555 1.6699,-39.5 -3.4458,-26.03302 -9.7357,-35.84073 -23.8269,-37.15243 -4.8362,-0.4502 -7.8778,-0.0983 -13.0963,1.51502 -10.1616,3.14162 -22.5011,8.82068 -28.1629,12.96151 -8.0135,5.8608 -44.7831,43.03673 -49.6276,50.1759 -12.1859,17.9583 -21.6321,36.45509 -29.8756,58.5 -11.0303,29.49763 -12.6933,33.46497 -20.7496,49.5 -4.5594,9.075 -9.3018,18.1456 -10.5385,20.15688 -1.2368,2.01129 -3.6669,6.06129 -5.4003,9 -2.716,4.60477 -8.5589,13.11901 -20.761,30.25322 -5.4636,7.67183 -8.7584,16.75902 -12.7197,35.08124 -2.1415,9.90477 -5.4467,22.50866 -7.3449,28.00866 -1.8982,5.5 -4.6282,16.75 -6.0666,25 -3.8709,22.20068 -5.1239,26.8534 -9.9332,36.88308 -16.05098,33.4738 -29.15838,62.91898 -33.60672,75.49586 -6.43433,18.19193 -15.91413,59.24605 -15.91829,68.93723 -0.002,5.30454 -5.83612,34.34065 -8.87727,44.18383 -1.10454,3.575 -3.42823,11.45 -5.16375,17.5 -1.73553,6.05 -4.43526,14.6 -5.99941,19 -12.06694,33.94465 -12.89555,73.4917 -1.85279,88.42784 5.90914,7.99253 14.42602,11.20418 28.39523,10.70761 8.18963,-0.29112 11.07546,-0.8387 15.94055,-3.0247 z m 52.08005,-277.36075 c 2.1172,-12.98926 4.854,-26.77886 6.5991,-33.25 8.6816,-32.1917 13.3446,-46.25723 25.0298,-75.5 9.2519,-23.1535 12.0419,-29.60492 23.2849,-53.84242 2.5111,-5.41334 4.5656,-10.01746 4.5656,-10.2314 0,-0.21393 1.7567,-4.10984 3.9039,-8.65757 2.1471,-4.54774 6.4221,-13.60193 9.5,-20.12044 3.0778,-6.5185 5.5961,-12.03245 5.5961,-12.25322 0,-1.32041 38.923,-77.34601 45.5117,-88.89495 7.77,-13.61944 21.5885,-28.14547 31.2311,-32.83023 l 4.2507,-2.06514 2.7532,2.05003 c 2.4159,1.7988 2.7901,2.81707 3.0539,8.30942 0.3925,8.17181 -2.4409,17.08535 -8.7531,27.53592 -9.2185,15.26251 -16.2088,30.88653 -22.3704,50 -2.5219,7.82301 -11.1535,37.04873 -12.6998,43 -1.7573,6.76348 -5.1883,15.17887 -8.7249,21.39966 -2.0638,3.63019 -3.9161,6.97901 -4.1162,7.44183 -0.7746,1.79143 -9.0761,13.66739 -17.2367,24.65851 -16.3179,21.97756 -21.6101,31.56019 -28.7223,52.00739 -4.6252,13.29723 -5.3992,15.20575 -12.9742,31.99261 -6.0336,13.37093 -14.952,29.74107 -21.5195,39.5 -7.1419,10.61237 -26.3338,33.5 -28.0908,33.5 -0.3758,0 -0.4083,-1.6875 -0.072,-3.75 z m 102.1406,232.19922 c 9.0861,-5.30478 19.3395,-20.34556 24.166,-35.44922 3.9813,-12.4587 5.1339,-18.70931 6.1874,-33.55586 2.5168,-35.46666 7.1687,-51.45793 23.9381,-82.28786 8.7222,-16.0357 13.0496,-28.86643 17.0339,-50.50581 7.0799,-38.45257 8.6865,-42.99118 25.6096,-72.34761 10.1343,-17.5799 14.4038,-30.64872 14.4038,-44.08988 0,-7.8279 -0.1801,-8.54696 -2.7966,-11.16342 -3.4186,-3.41857 -12.2092,-5.68739 -15.0828,-3.8928 -1.9393,1.21113 -5.4988,6.82413 -11.6322,18.34324 -4.1457,7.78589 -8.0254,13.36339 -10.6037,15.24393 -3.3165,2.41901 -8.8279,10.99447 -14.9748,23.30036 -3.4219,6.85064 -8.1139,15.60571 -10.4266,19.45571 -4.6676,7.7701 -6.3639,12.50733 -9.4892,26.5 -3.7996,17.01132 -8.6014,30.15355 -18.2687,50 -12.7796,26.23563 -14.5616,31.71546 -18.6987,57.5 -4.0957,25.52616 -7.1885,35.60411 -17.3393,56.5 -8.8635,18.24598 -11.7045,27.20303 -12.4,39.09459 -0.7887,13.48552 0.042,17.7615 4.4484,22.9098 7.0837,8.27578 16.5762,9.90323 25.9254,4.44483 z m 120.6401,-63.37934 c 7.9105,-1.83628 13.3822,-7.9182 16.7067,-18.56988 1.6362,-5.2424 8.4998,-18.96903 14.5005,-29 13.5971,-22.72905 21.3675,-38.71355 29.9358,-61.58072 16.4502,-43.90256 30.4478,-67.75963 49.4131,-84.21839 2.4078,-2.08951 4.5777,-3.59908 4.8222,-3.3546 0.4618,0.46177 -1.595,11.40202 -4.2589,22.65371 -0.8464,3.575 -3.4865,12.8 -5.8669,20.5 -5.8026,18.76972 -5.9897,19.65305 -9.6371,45.5 -3.122,22.12309 -3.1562,22.77984 -2.0416,39.20521 1.3214,19.47395 2.9849,28.32447 6.9793,37.13403 7.1148,15.69125 19.3982,22.66076 39.9384,22.66076 8.0857,0 9.6009,-0.31052 14.8557,-3.04442 8.6384,-4.4944 15.3515,-12.33825 15.3515,-17.93747 0,-3.49915 -3.9545,-14.05481 -6.1258,-16.35147 -3.0592,-3.2358 -5.7375,-8.94019 -6.491,-13.82487 -0.3684,-2.38798 -2.1213,-7.26677 -3.8955,-10.84177 -2.828,-5.69844 -3.4422,-8.46709 -4.9807,-22.45164 -3.1766,-28.87382 -1.4585,-38.96933 10.7211,-62.99673 15.138,-29.86355 15.2348,-30.20304 14.117,-49.47936 -0.4648,-8.01475 -0.7387,-16.45768 -0.6087,-18.76207 0.4675,-8.28416 7.6888,-23.29923 18.4443,-38.35091 20.93,-29.29012 27.8193,-44.93227 27.8193,-63.1633 0,-8.67414 -1.1598,-13.27277 -4.1504,-16.45612 -1.8778,-1.99882 -3.1567,-2.33667 -8.7739,-2.31791 -11.192,0.0374 -16.5192,3.37381 -33.6702,21.08764 -5.448,5.62682 -12.8305,13.19627 -16.4055,16.82098 -8.7459,8.86753 -20.247,21.7085 -23,25.67946 -6.6302,9.56349 -10.1356,14.38269 -11.3318,15.57889 -1.7505,1.75053 -11.0902,16.99466 -16.1202,26.31107 -4.9737,9.21235 -9.6559,16.20492 -14.6484,21.8767 -4.7564,5.40363 -6.8996,5.92363 -6.8996,1.67406 0,-5.39087 4.0647,-24.11213 8.0611,-37.12799 7.7374,-25.20014 8.6721,-33.07208 4.6338,-39.02489 -2.216,-3.26663 -2.5154,-3.38394 -7.75,-3.03687 -12.5664,0.83317 -20.034,8.79251 -28.0091,29.85329 -5.5972,14.78098 -8.8061,21.90331 -12.5187,27.7857 -1.7356,2.75 -5.8703,10.625 -9.1881,17.5 -3.3178,6.875 -7.7057,15.425 -9.751,19 -3.9224,6.85599 -5.3077,11.54813 -7.9718,27 -1.7876,10.36892 -4.6522,17.73276 -11.0864,28.5 -11.2192,18.77466 -14.1043,26.59364 -15.4365,41.83552 -0.9842,11.26068 -6.8852,41.1949 -9.199,46.66448 -0.8143,1.925 -3.2211,6.2 -5.3484,9.5 -3.749,5.8156 -3.8803,6.32039 -4.2718,16.42527 -0.9592,24.75831 6.6315,34.9761 23.1372,31.14461 z M 189.40261,601.95521 c 7.05568,-3.04959 10.26873,-5.16135 15.0305,-9.87874 14.5871,-14.45116 26.38042,-33.06201 30.09978,-47.5 0.92095,-3.575 1.72423,-10.4122 1.78506,-15.19378 0.10951,-8.607 0.0764,-8.7291 -3.3173,-12.23117 -4.62101,-4.76858 -8.59677,-5.89554 -18.94057,-5.36886 -6.82218,0.34737 -9.72659,1.00146 -13.85558,3.12035 -14.15097,7.26193 -32.44794,33.24162 -37.80112,53.67346 -1.87222,7.14578 -2.15759,21.38287 -0.53865,26.87269 2.28476,7.74764 7.31978,11.47154 14.56383,10.77139 2.2,-0.21263 8.03832,-2.13203 12.97405,-4.26534 z M 35.92856,412.73878 c 2.99889,-2.17671 5.33371,-9.24479 6.99061,-21.16231 0.64996,-4.675 2.29334,-13.225 3.65195,-19 2.77344,-11.78905 14.33188,-47.31902 15.5609,-47.83333 0.4381,-0.18334 0.79654,-0.94102 0.79654,-1.68375 0,-1.47176 10.35557,-27.82855 14.45565,-36.79225 1.39939,-3.05938 2.54435,-5.79623 2.54435,-6.08188 0,-0.28565 2.08327,-5.37698 4.62949,-11.31408 2.54622,-5.93709 8.20061,-19.79471 12.56532,-30.79471 7.40383,-18.65922 7.89529,-19.59777 7.33102,-14 -4.02599,39.93916 -4.89802,53.86917 -4.91415,78.5 -0.0135,20.59485 0.35411,28.46805 1.64964,35.33184 2.79334,14.79922 8.66035,25.2193 15.81054,28.08024 17.82575,7.13245 38.48272,-13.27886 59.0466,-58.34436 10.27792,-22.52393 11.27215,-32.55166 3.01332,-30.39193 -2.54554,0.66567 -6.10333,6.18027 -14.40267,22.32421 -10.17499,19.79249 -16.72948,31.28545 -18.82005,33 -0.33531,0.275 -1.15041,1.52662 -1.81133,2.78138 -1.60772,3.05224 -8.87642,8.22688 -11.49777,8.18535 -2.79499,-0.0443 -5.89786,-2.77781 -7.34048,-6.46673 -2.42049,-6.18943 -3.15021,-15.04141 -3.79937,-46.08931 -0.53229,-25.45782 -0.34295,-35.51015 0.93634,-49.71072 0.88195,-9.79002 1.60355,-18.67265 1.60355,-19.73918 0,-1.1038 6.56949,-9.13576 15.25,-18.64489 8.3875,-9.18815 17.2686,-18.98052 19.73577,-21.76082 7.5397,-8.49661 21.0983,-21.29578 40.54087,-38.27013 3.28535,-2.86828 11.7954,-9.61828 18.91122,-15 14.08168,-10.65002 16.32394,-13.04226 17.18227,-18.3315 1.27424,-7.85224 -6.62069,-10.998262 -14.27778,-5.68949 -11.33385,7.85793 -32.69405,27.14365 -67.70555,61.13007 -29.99478,29.11659 -42.0366,40.53442 -42.38514,40.18884 -0.13659,-0.13542 1.81011,-5.83447 4.326,-12.66455 12.4948,-33.92057 18.2947,-54.09006 19.13914,-66.55744 0.53315,-7.87151 0.46851,-8.19336 -1.96611,-9.78858 -2.34125,-1.53405 -2.81067,-1.53211 -6.70896,0.0277 -5.86205,2.34553 -8.27202,6.74157 -12.04566,21.97253 -3.75479,15.15493 -8.05147,28.40519 -15.70363,48.42749 -6.68738,17.49787 -12.59573,31.59043 -20.33381,48.5 -26.51919,57.95084 -38.78383,90.11398 -50.33504,132 -4.97283,18.03203 -7.51117,34.95525 -6.25074,41.6739 1.20096,6.40172 8.54384,8.40391 14.62715,3.98841 z m 757.7151,-49.77152 c 18.1912,-6.11785 39.4566,-30.96721 48.2578,-56.39079 4.075,-11.77153 3.942,-25.85725 -0.2868,-30.3653 -3.5099,-3.74174 -6.1276,-4.6382 -13.3704,-4.57883 -8.6047,0.0705 -13.6299,2.08436 -22.5345,9.03067 -22.1805,17.30264 -34.0839,38.69289 -36.2935,65.21923 -1.0161,12.19731 0.4486,15.71504 7.5123,18.04216 3.269,1.07698 12.1847,0.56645 16.7151,-0.95714 z M 224.44125,326.1219 c 10.59541,-6.20932 22.32217,-21.53574 33.70064,-44.04543 6.31186,-12.48656 10.78667,-24.2836 10.78667,-28.43715 0,-6.51767 -6.25386,-6.456 -11.0092,0.10855 -1.64494,2.27077 -2.9908,4.56848 -2.9908,5.10602 0,2.39933 -14.22501,29.84289 -18.39937,35.49692 -4.35069,5.89286 -9.55614,10.21343 -12.31545,10.22192 -4.11598,0.0127 -3.71521,-9.43852 1.27397,-30.04324 2.7039,-11.16682 1.83169,-9.67309 21.61243,-37.01266 12.73882,-17.60672 26.88515,-38.58311 33.34224,-49.44036 9.8082,-16.49198 34.48618,-63.63218 34.48618,-65.87595 0,-0.26648 1.39157,-3.49101 3.09238,-7.16561 1.70081,-3.67461 5.14175,-12.81851 7.64653,-20.319772 4.16764,-12.481174 4.56293,-14.515386 4.65762,-23.968934 0.1015,-10.13357 0.0501,-10.376337 -2.70229,-12.75 -3.41174,-2.942334 -10.10793,-3.266326 -15.41903,-0.746043 -11.52296,5.468002 -30.19625,31.770227 -47.4434,66.826309 -29.72284,60.41379 -57.63798,141.85528 -62.04014,181 -1.43836,12.79013 -0.66184,16.94317 3.98792,21.32846 3.36143,3.17023 3.94648,3.36413 8.51733,2.82278 2.69939,-0.3197 6.84649,-1.71732 9.21577,-3.10581 z m 16.15114,-104.79543 c 0.85582,-2.8875 4.39009,-12.9 7.85392,-22.25 22.39109,-60.44072 43.45955,-104.019252 55.58539,-114.974218 13.8373,-12.50117 8.8144,10.990096 -11.70042,54.720958 -4.19356,8.93929 -7.96133,16.70326 -8.37282,17.25326 -0.41148,0.55 -3.56585,6.4 -7.00971,13 -3.44385,6.6 -7.55725,13.93506 -9.14087,16.30013 -1.58363,2.36507 -2.87932,4.5136 -2.87932,4.77451 0,0.86389 -8.38416,13.80432 -13.88157,21.42536 -2.97556,4.125 -6.58198,9.17042 -8.01427,11.21205 -1.43229,2.04163 -2.9174,3.72913 -3.30026,3.75 -0.38285,0.0209 0.004,-2.32455 0.85993,-5.21205 z m 71.52701,72.58387 c 16.81178,-7.54468 38.50173,-28.78908 56.54269,-55.38121 11.39921,-16.80228 14.81731,-26.51713 10.19941,-28.98855 -3.4127,-1.82642 -6.11247,0.91009 -17.055,17.28712 -15.61373,23.36814 -23.32129,32.21803 -35.47269,40.73012 -15.30115,10.71849 -30.25839,10.46416 -30.37345,-0.51647 -0.0277,-2.64879 0.92967,-3.72274 7.52173,-8.43719 14.90429,-10.65913 35.03594,-34.23047 43.29725,-50.69502 9.69291,-19.31767 11.4292,-34.2983 4.50136,-38.83759 -3.94624,-2.58568 -10.99036,-1.56084 -17.89465,2.60347 -3.10173,1.8708 -9.41006,7.22645 -14.01851,11.90145 -14.02685,14.2294 -22.52337,26.18937 -31.78187,44.73711 -8.47057,16.96928 -11.916,29.58894 -11.94821,43.76289 -0.0315,13.86205 3.45607,20.97966 11.7911,24.06389 6.06647,2.24479 16.89991,1.26634 24.69084,-2.23002 z m -12.23391,-52.58387 c 2.34126,-6.64697 7.13742,-16.79061 10.99315,-23.25 1.64153,-2.75 3.73034,-6.35 4.64179,-8 4.07046,-7.36873 14.25053,-18.17136 18.01437,-19.11602 3.61339,-0.9069 4.68529,0.39141 3.97751,4.81762 -1.40529,8.78823 -13.88101,28.62481 -25.28402,40.20197 -6.17055,6.26478 -11.67214,10.5829 -13.49587,10.59269 -0.38288,0.002 0.13601,-2.35876 1.15307,-5.24626 z m 92.61234,27.18492 c 2.85405,-2.68124 3.91495,-5.75868 5.83806,-16.93492 4.83655,-28.10792 12.699,-51.77544 30.97595,-93.24368 7.24543,-16.43904 7.25099,-19.75632 0.0331,-19.75632 -4.31434,0 -8.58503,4.86883 -14.91152,17 -16.10519,30.88205 -33.66951,82.65082 -35.20295,103.75662 -0.52416,7.21429 -0.36086,8.52074 1.29358,10.34888 2.41959,2.67361 8.51628,2.07759 11.9738,-1.17058 z m 48.47308,-23.68492 c 3.21979,-3.04526 5.10179,-6.56895 10.01439,-18.75 8.28242,-20.53669 14.69724,-33.32185 22.88031,-45.60196 6.6777,-10.02103 12.8237,-17.47063 13.6948,-16.59953 0.23013,0.23013 -0.53675,2.61961 -1.70416,5.30995 -6.28561,14.48536 -9.30661,28.1559 -9.36795,42.39154 -0.0557,12.93694 1.59869,19.957 6.38172,27.07877 3.53779,5.26764 6.29849,6.8405 12.08603,6.88579 5.17872,0.0405 8.29774,-1.75901 10.52975,-6.07524 1.91891,-3.71078 1.19359,-6.25672 -3.1672,-11.11704 -5.74747,-6.40587 -6.79186,-9.90758 -6.79191,-22.77228 -3e-5,-8.69987 0.53702,-13.5068 2.20566,-19.74182 2.82058,-10.53936 9.09247,-26.28227 14.37786,-36.08951 13.96675,-25.91586 15.77185,-29.75458 15.79485,-33.58993 0.026,-4.32277 -2.1925,-7.57874 -5.1636,-7.57874 -8.34023,0 -24.02546,16.37472 -45.97887,48 -10.64679,15.33739 -11.2728,15.33953 -4.09107,0.014 5.00354,-10.67742 8.25704,-19.4132 8.25704,-22.17055 0,-2.62316 -3.56293,-5.84345 -6.4652,-5.84345 -8.8394,0 -20.24358,23.84579 -40.63773,84.97228 -7.17995,21.52016 -8.40192,29.52287 -5.02381,32.90098 3.32709,3.32709 7.52745,2.76679 12.16909,-1.62326 z m 119.83505,-43.8561 c 7.7102,-2.9018 16.0682,-8.73282 26.5913,-18.55164 22.9851,-21.4468 48.3095,-59.58492 43.4519,-65.43791 -1.7591,-2.1196 -5.8616,-1.68616 -8.0039,0.84565 -1.0472,1.2375 -5.3505,7.425 -9.5628,13.75 -23.1258,34.72395 -40.1862,49.80251 -56.5221,49.95611 -6.0663,0.057 -7.5968,-0.6009 -9.3688,-4.02763 -2.4522,-4.74199 -1.8664,-7.18756 2.2947,-9.58103 5.327,-3.06406 10.3897,-7.42511 21.2602,-18.31372 22.7671,-22.80517 39.5918,-57.822332 33.8435,-70.438487 -1.2653,-2.777074 -6.3538,-5.595245 -10.1028,-5.595245 -8.9791,0 -27.6185,16.31002 -43.4273,38.000002 -8.6841,11.91484 -18.0057,30.48213 -21.8813,43.58462 -3.1159,10.53409 -4.3924,28.31507 -2.5255,35.17851 3.524,12.95528 16.7628,17.10039 33.9529,10.63077 z m -11.8774,-48.70217 c 0,-2.28501 3.5772,-11.7804 7.0417,-18.69173 10.889,-21.72218 25.065,-38.707992 30.5486,-36.603742 3.9537,1.51718 -0.7298,14.275522 -10.4887,28.572262 -6.0059,8.79871 -6.8412,9.79444 -15.277,18.21219 -8.3551,8.33724 -11.8246,10.8345 -11.8246,8.51102 z m 92.845,24.99166 c 3.1072,-2.89302 4.432,-5.58011 8.5385,-17.31824 9.3279,-26.66319 22.9993,-52.74829 39.3285,-75.039495 l 6.2121,-8.480083 -0.5915,4.993615 c -0.7997,6.752223 0.1496,9.841691 3.567,11.608891 5.1402,2.65813 16.1983,-0.29335 25.5697,-6.824731 16.465,-11.475227 36.1412,-36.235405 32.9042,-41.405963 -0.5914,-0.944562 -2.2092,-1.854165 -3.5951,-2.02134 -2.0518,-0.24748 -4.6663,1.826483 -14.0718,11.162523 -12.0791,11.989747 -19.0702,17.011894 -22.9211,16.465637 -5.5062,-0.781063 -2.4797,-8.288417 10.209,-25.324206 4.5062,-6.05 8.658,-11.979316 9.2262,-13.176258 2.3664,-4.984643 -2.0678,-10.331896 -7.4478,-8.981589 -2.2951,0.576037 -12.6368,10.479557 -18.439,17.657847 -1.556,1.925 -3.8654,4.625 -5.1319,6 -3.583,3.889667 -24.2754,31.540892 -30.6818,41 -7.0024,10.33902 -6.9591,10.29578 -6.1739,6.17512 0.8248,-4.32783 6.4389,-16.10007 13.4033,-28.105246 3.9214,-6.759787 5.6902,-10.95004 6.0234,-14.27009 0.4423,-4.404961 0.3072,-4.741562 -2.1506,-5.358408 -7.535,-1.891165 -15.1142,5.738485 -24.8929,25.058624 -8.1934,16.187916 -12.1643,26.67791 -19.6838,52.000002 -8.2715,27.85438 -12.2805,45.47609 -11.8546,52.10814 0.2684,4.18015 0.6369,4.89352 2.8089,5.43754 3.0809,0.77166 6.7514,-0.48191 9.845,-3.36229 z M 445.23877,98.220218 c 7.55627,-3.15722 18.52256,-19.847952 19.46159,-29.62063 1.2183,-12.679125 -9.33325,-13.717109 -19.0387,-1.872887 -9.26884,11.311389 -13.71226,27.649667 -8.51059,31.293067 2.72177,1.9064 3.93293,1.93642 8.0877,0.20045 z"
         id="path2832"
         style="fill:#000000" />
    </g>
  </g>
</svg>
