<?xml version="1.0" standalone="no"?>
<!DOCTYPE svg PUBLIC "-//W3C//DTD SVG 20010904//EN"
 "http://www.w3.org/TR/2001/REC-SVG-20010904/DTD/svg10.dtd">
<svg version="1.0" xmlns="http://www.w3.org/2000/svg"
 width="400.000000pt" height="400.000000pt" viewBox="0 0 400.000000 400.000000"
 preserveAspectRatio="xMidYMid meet">

<g transform="translate(0.000000,400.000000) scale(0.100000,-0.100000)"
fill="#000000" stroke="none">
<path d="M1805 3923 c-245 -22 -586 -145 -795 -286 -380 -256 -623 -614 -754
-1112 -73 -280 -33 -752 89 -1040 69 -162 144 -289 263 -447 70 -92 74 -100
58 -117 -9 -9 -16 -22 -16 -27 0 -6 41 -16 91 -23 86 -12 93 -12 117 6 43 32
72 98 72 162 0 67 -23 116 -85 181 -132 140 -266 430 -311 675 -25 135 -25
384 -1 514 54 289 179 543 370 746 191 204 415 343 682 420 224 65 511 72 725
17 130 -34 276 -93 396 -162 358 -205 634 -602 711 -1020 25 -139 22 -390 -7
-530 -55 -268 -146 -466 -306 -666 -190 -239 -465 -415 -766 -493 -90 -23
-242 -47 -322 -50 -25 -1 -27 -3 -15 -18 11 -13 11 -17 1 -20 -6 -3 -10 -9 -7
-14 4 -5 -4 -19 -15 -31 -18 -19 -19 -24 -6 -26 14 -3 14 -7 1 -32 -11 -22
-12 -29 -2 -33 8 -3 6 -7 -6 -12 -17 -7 -17 -8 0 -21 17 -13 17 -13 -2 -14
-33 -1 4 -20 40 -21 26 0 27 -2 10 -9 -11 -5 -34 -9 -52 -9 -17 -1 -35 -6 -39
-12 -12 -20 273 -5 401 21 503 100 902 389 1175 854 66 112 88 163 143 327 48
143 69 246 87 429 9 94 9 141 -4 263 -75 709 -497 1276 -1133 1521 -242 94
-525 133 -788 109z"/>
<path d="M1837 3583 c-30 -5 -61 -42 -55 -69 10 -51 91 -22 122 44 l16 32 -28
-1 c-15 -1 -39 -4 -55 -6z"/>
<path d="M1970 3580 c0 -19 87 -100 108 -100 22 0 42 26 42 54 0 25 -60 56
-107 56 -24 0 -43 -4 -43 -10z"/>
<path d="M1925 3527 c-8 -20 -15 -52 -15 -70 0 -62 53 -77 78 -23 12 24 12 33
-3 67 -28 62 -42 68 -60 26z"/>
<path d="M3040 3005 c-28 -34 15 -80 88 -91 54 -8 55 7 2 64 -41 44 -69 52
-90 27z"/>
<path d="M804 2962 c-12 -10 -29 -32 -38 -49 -15 -31 -15 -32 7 -35 56 -9 127
26 127 62 0 40 -58 54 -96 22z"/>
<path d="M1810 2945 c-215 -43 -410 -190 -532 -401 -74 -128 -115 -323 -97
-464 16 -135 40 -230 66 -268 17 -25 23 -45 19 -63 -4 -21 0 -29 20 -38 30
-13 54 -14 54 -2 0 4 -18 47 -40 94 -78 166 -106 339 -77 479 44 209 142 367
305 490 139 106 265 148 437 148 302 0 566 -162 694 -424 53 -110 71 -175 78
-282 11 -166 -31 -335 -118 -479 -43 -72 -167 -191 -247 -238 -67 -39 -185
-85 -247 -96 -25 -4 -40 -12 -40 -21 0 -20 69 -17 138 6 286 94 487 331 542
638 21 117 17 188 -20 331 -52 204 -171 372 -345 483 -71 46 -199 96 -282 111
-84 14 -225 13 -308 -4z"/>
<path d="M3086 2875 c-51 -18 -65 -40 -50 -79 7 -18 46 -21 74 -6 18 10 64 79
57 87 -11 10 -46 10 -81 -2z"/>
<path d="M3182 2845 c-7 -14 -12 -47 -12 -73 0 -37 4 -50 21 -60 18 -11 24
-11 41 5 17 15 19 26 14 62 -6 44 -29 91 -45 91 -4 0 -13 -11 -19 -25z"/>
<path d="M768 2831 c29 -78 130 -109 140 -43 5 30 -50 62 -105 62 -38 0 -42
-2 -35 -19z"/>
<path d="M700 2798 c-33 -55 -23 -115 22 -131 42 -15 61 52 34 117 -20 48 -33
51 -56 14z"/>
<path d="M1725 1891 l-100 -6 -126 -92 c-141 -103 -196 -158 -233 -231 -14
-28 -30 -53 -35 -56 -18 -12 -134 -190 -136 -210 -2 -12 -15 -43 -29 -70 -14
-27 -26 -64 -26 -81 0 -18 -6 -38 -14 -44 -8 -6 -17 -32 -21 -58 -4 -25 -10
-53 -15 -62 -37 -71 -90 -249 -101 -341 -21 -172 -7 -253 54 -309 27 -24 27
-24 69 -6 24 9 60 24 80 33 68 27 73 39 75 181 1 128 18 216 47 256 13 18 15
18 70 -3 133 -51 189 -37 201 49 6 41 3 49 -27 89 -20 27 -56 56 -93 75 -33
18 -61 40 -63 49 -3 15 16 74 54 164 17 40 50 43 91 8 30 -25 90 -46 135 -46
32 0 88 52 88 82 0 46 -26 100 -71 152 -27 30 -49 59 -49 64 0 15 74 71 111
84 18 6 49 22 68 35 36 25 60 25 51 2 -3 -8 -4 -60 -3 -116 1 -80 -1 -103 -12
-103 -20 0 -27 -27 -30 -109 -2 -44 -8 -76 -15 -81 -15 -9 -52 -216 -45 -250
3 -14 -3 -52 -13 -85 -14 -47 -22 -61 -40 -63 -22 -3 -42 -50 -42 -98 0 -23
-22 -48 -33 -38 -8 8 -47 -57 -47 -79 0 -10 -6 -20 -14 -23 -8 -3 -17 -13 -20
-21 -5 -13 -4 -14 9 -3 24 20 19 -11 -8 -51 -23 -33 -43 -40 -77 -25 -8 3 -21
2 -29 -3 -12 -8 -13 -12 -1 -25 19 -24 6 -30 -23 -12 -13 9 -31 14 -40 11 -8
-4 -29 1 -46 9 -38 20 -41 20 -41 -2 0 -10 11 -29 25 -42 14 -13 25 -29 25
-37 0 -16 -5 -16 -33 -3 -12 6 -6 -2 13 -17 75 -60 133 -119 151 -155 10 -20
29 -42 40 -49 76 -40 267 175 408 459 88 176 117 257 103 286 -8 18 -7 28 2
42 15 21 40 107 51 169 3 22 13 58 20 81 9 27 17 140 25 339 l11 298 -23 25
c-57 61 -124 75 -303 63z"/>
<path d="M3195 1626 c-16 -24 -14 -52 7 -108 21 -57 57 -23 60 58 1 35 -3 50
-17 60 -26 19 -32 18 -50 -10z"/>
<path d="M713 1603 c-18 -7 -16 -78 3 -119 19 -40 27 -42 48 -12 49 70 15 158
-51 131z"/>
<path d="M3071 1554 c-27 -19 -27 -35 2 -62 20 -19 98 -34 111 -21 10 10 -34
68 -62 83 -26 13 -31 13 -51 0z"/>
<path d="M839 1525 c-30 -16 -59 -56 -59 -81 0 -14 7 -15 43 -10 75 12 121 64
81 93 -22 16 -32 16 -65 -2z"/>
<path d="M3108 1420 c-45 -24 -52 -34 -44 -66 7 -26 41 -33 77 -14 16 9 59 77
59 95 0 12 -58 3 -92 -15z"/>
<path d="M770 1404 c0 -15 43 -75 60 -84 29 -16 77 -12 84 6 12 31 5 43 -37
63 -41 20 -107 29 -107 15z"/>
<path d="M2242 928 c-19 -19 -14 -72 11 -108 29 -43 41 -46 55 -15 18 39 14
79 -9 109 -22 28 -39 32 -57 14z"/>
<path d="M2382 883 c-15 -6 -52 -75 -52 -98 0 -39 105 7 116 51 10 40 -22 64
-64 47z"/>
<path d="M2131 813 c-20 -17 -21 -21 -10 -46 13 -28 33 -33 104 -29 57 4 59
11 15 47 -23 19 -46 35 -50 35 -5 0 -15 2 -23 5 -7 3 -24 -2 -36 -12z"/>
</g>
</svg>
