<?xml version="1.0" encoding="UTF-8" standalone="no"?>
<!-- Created with Inkscape (http://www.inkscape.org/) -->

<svg
   xmlns:dc="http://purl.org/dc/elements/1.1/"
   xmlns:cc="http://creativecommons.org/ns#"
   xmlns:rdf="http://www.w3.org/1999/02/22-rdf-syntax-ns#"
   xmlns:svg="http://www.w3.org/2000/svg"
   xmlns="http://www.w3.org/2000/svg"
   xmlns:sodipodi="http://sodipodi.sourceforge.net/DTD/sodipodi-0.dtd"
   xmlns:inkscape="http://www.inkscape.org/namespaces/inkscape"
   width="54.298141mm"
   height="39.268696mm"
   viewBox="0 0 54.298141 39.268696"
   version="1.1"
   id="svg8"
   inkscape:version="0.92.4 (5da689c313, 2019-01-14)"
   sodipodi:docname="Kroger_(1940-50s_logo).svg">
  <defs
     id="defs2" />
  <sodipodi:namedview
     id="base"
     pagecolor="#ffffff"
     bordercolor="#666666"
     borderopacity="1.0"
     inkscape:pageopacity="0.0"
     inkscape:pageshadow="2"
     inkscape:zoom="0.42224253"
     inkscape:cx="571.00749"
     inkscape:cy="207.73769"
     inkscape:document-units="mm"
     inkscape:current-layer="layer1"
     showgrid="false"
     inkscape:snap-global="false"
     fit-margin-top="0"
     fit-margin-left="0"
     fit-margin-right="0"
     fit-margin-bottom="0"
     inkscape:window-width="1920"
     inkscape:window-height="1017"
     inkscape:window-x="-8"
     inkscape:window-y="-8"
     inkscape:window-maximized="1" />
  <metadata
     id="metadata5">
    <rdf:RDF>
      <cc:Work
         rdf:about="">
        <dc:format>image/svg+xml</dc:format>
        <dc:type
           rdf:resource="http://purl.org/dc/dcmitype/StillImage" />
        <dc:title />
      </cc:Work>
    </rdf:RDF>
  </metadata>
  <g
     inkscape:label="Layer 1"
     inkscape:groupmode="layer"
     id="layer1"
     transform="translate(-13.089457,-87.342112)">
    <g
       id="g867"
       transform="matrix(0.26396866,0,0,0.26396866,-103.00241,90.214216)">
      <rect
         y="-2.802629"
         x="449.49008"
         height="127.02052"
         width="183.90176"
         id="rect863"
         style="opacity:1;fill:#ffffff;fill-opacity:1;stroke:none;stroke-width:0.25;stroke-miterlimit:4;stroke-dasharray:none;stroke-opacity:1" />
      <path
         id="path830"
         transform="scale(0.26458333)"
         d="m 2435.5703,-41.123047 -122.4277,0.359375 c -67.3352,0.197892 -137.9528,0.506284 -156.9278,0.685547 -18.975,0.179271 -137.325,0.641111 -263,1.025391 -147.894,0.45222 -228.9409,1.046078 -229.75,1.685546 -1.5608,1.233831 -1.6598,39.7981288 -0.3027,118.378907 1.7384,100.658971 2.1539,160.804631 2.082,300.427731 -0.039,76.20949 0.2679,138.90067 0.6817,139.31446 0.4138,0.41385 57.0095,0.49937 125.7695,0.18945 68.76,-0.31007 230.7696,-0.81413 360.0195,-1.11914 277.0382,-0.65371 285.1698,-0.71661 286.7266,-2.27344 0.7481,-0.74808 1.1809,-5.51834 1.2148,-13.41797 0.093,-20.75418 -1.607,-256.38786 -1.957,-271.25586 -0.1812,-7.69999 -0.4144,-71.30219 -0.5176,-141.337888 -0.1032,-70.035679 -0.5086,-128.535681 -0.9004,-130 z m -494.041,69.515625 c 31.5218,0.04575 57.4997,17.147133 68.5781,45.146484 4.6616,11.781608 5.4976,19.406034 5.5547,50.621098 0.058,32.02518 0.5649,30.17622 -8.2637,30.20117 -9.2825,0.0267 -9.1807,0.21865 -9.2109,-17.26953 -0.015,-8.36815 -0.4387,-24.21485 -0.9414,-35.21485 -0.9903,-21.669677 -3.2152,-32.555085 -8.7227,-42.673825 -6.6449,-12.209 -18.5533,-21.037051 -32.9218,-24.40625 -9.4444,-2.21458 -27.6181,-1.487005 -35.4883,1.421875 -14.681,5.426261 -24.4283,13.954248 -32.2852,28.248047 -5.3255,9.688569 -7.324,19.175566 -9.5781,45.470703 -2.6219,30.58463 -5.4084,41.40135 -13.8203,53.62695 -6.8354,9.9345 -20.7801,22.00321 -32.0313,27.72461 -2.3735,1.2069 -4.1458,2.70122 -3.9394,3.32032 0.2064,0.61919 4.4233,2.09539 9.3711,3.27929 15.934,3.8125 24.7236,10.33938 30.959,22.98828 3.886,7.88301 5.5358,15.5211 7.8808,36.5 1.2422,11.1136 2.2095,15.7177 4.1387,19.71289 2.9091,6.02431 2.3711,8.11684 -2.9082,11.33594 -5.0818,3.0985 -9.0736,2.56317 -13.4356,-1.80273 -4.8103,-4.8146 -6.6524,-11.9432 -8.8457,-34.2461 -2.0475,-20.8201 -4.2853,-29.8389 -9.1796,-37 -6.6405,-9.71579 -16.8471,-14 -33.3516,-14 -8.763,0 -22.8919,1.80011 -24.2969,3.09571 -0.5458,0.5031 -0.824,18.6775 -0.6777,44.3789 l 0.248,43.52539 -2.3222,-0.01 c -1.2782,-0.005 -4.6581,-1.09613 -7.5098,-2.42383 -9.0397,-4.2088 -8.2849,4.44673 -9.3281,-106.85547 -0.5062,-54.01603 -0.9693,-100.910937 -1.0313,-104.210937 -0.1673,-8.925759 -0.2784,-8.611581 2.7949,-7.908203 5.492,1.256969 13.107,5.272329 14.3399,7.5625 0.9585,1.780441 1.3469,15.339315 1.6172,56.3457 0.1956,29.7 0.5868,55.46251 0.8691,57.25 0.2823,1.7875 1.0561,3.29746 1.7188,3.35547 4.8923,0.4303 19.0732,-2.15537 25.2539,-4.60547 23.2664,-9.2232 36.5268,-23.1334 41.9453,-44 0.8569,-3.3 2.23,-15.675 3.0508,-27.5 1.7531,-25.256664 3.392,-35.149235 7.459,-45.011716 3.7925,-9.197351 6.3256,-13.300345 11.9335,-19.328125 16.4117,-17.640299 37.5779,-26.68055 62.377,-26.644531 z M 2124.7148,181.4082 c 15.4758,-0.006 35.2757,9.1773 32.9356,15.27539 -0.7205,1.87761 -6.8011,6.69336 -8.4512,6.69336 -0.6316,0 -3.039,-1.55005 -5.3496,-3.44336 -7.3159,-5.9948 -12.9425,-7.93997 -23.1348,-8.00195 -10.7069,-0.0647 -16.2235,2.12323 -23.207,9.20703 -5.6436,5.7246 -8.7409,11.97748 -10.7969,21.79688 -4.6836,22.3682 4.9111,44.0573 23.3516,52.78711 6.0782,2.87751 7.5139,3.15234 16.6523,3.15234 9.1007,0.002 10.5843,-0.27573 16.5059,-3.08203 6.3008,-2.986 11.5585,-7.29697 14.6465,-12.00977 1.2166,-1.8569 1.6001,-8.29865 2.0566,-34.59375 0.6749,-38.8685 0.3724,-37.84579 13.2637,-44.71679 5.0554,-2.6944 5.9477,-2.8974 7.0313,-1.5918 0.8333,1.0041 0.9169,1.90679 0.2558,2.74609 -1.9868,2.5225 -2.2405,7.38088 -2.8223,53.86328 -0.3262,26.0623 -0.9872,59.76172 -1.4687,74.88672 -0.7869,24.7149 -1.1318,28.42761 -3.4024,36.66211 -5.3997,19.5826 -10.3511,28.2944 -23.4941,41.33789 -12.6867,12.59071 -25.0782,19.63939 -41.5723,23.64649 -7.2062,1.7506 -34.2147,2.63731 -40.4316,1.32812 -18.8904,-3.97821 -34.8582,-13.03047 -46.1719,-26.17578 -15.5218,-18.03439 -20.8528,-32.66926 -22.3652,-61.41406 -0.344,-6.537 -0.171,-12.201 0.418,-13.75 0.9482,-2.49419 1.3663,-2.63477 7.9023,-2.63477 4.9382,0 7.2589,0.43052 8.1563,1.51172 0.8035,0.9683 1.5381,7.19121 2.0429,17.32031 1.1303,22.67421 4.5081,35.71513 13.0254,50.29883 11.4092,19.53528 28.1891,29.57845 51.1797,30.63281 14.3131,0.65651 20.9084,-0.74023 34.4043,-7.28906 9.8042,-4.75748 12.2354,-6.48318 20,-14.19531 7.2112,-7.16239 9.6277,-10.38415 13.1211,-17.49414 5.5531,-11.3022 7.8396,-20.51447 9.1523,-36.88477 1.4899,-18.58 1.4274,-63.90039 -0.088,-63.90039 -0.6343,0 -3.4859,2.2069 -6.3378,4.9043 -10.1573,9.6062 -21.2747,13.516 -36.7969,12.94141 -9.6909,-0.35881 -10.9277,-0.64802 -18.2988,-4.29102 -9.2713,-4.582 -17.1993,-11.69116 -21.5821,-19.35156 -8.9691,-15.6766 -9.1021,-39.38083 -0.3125,-56.10742 3.2996,-6.27911 11.5381,-15.68625 17.1543,-19.58985 8.396,-5.8356 22.9209,-10.47461 32.8281,-10.47461 z m 174.6993,1.25196 c 6.4446,0.0307 16.2957,6.7673 21.2851,15.28125 1.4296,2.4393 3.1441,4.43554 3.8106,4.43554 0.6665,0 4.0694,-2.89454 7.5605,-6.43164 3.6712,-3.7194 8.7291,-7.59902 11.9961,-9.20312 5.08,-2.4944 6.7273,-2.77932 16.3691,-2.82031 9.7149,-0.0412 10.9241,0.15966 12.9004,2.13476 l 2.1817,2.17969 -2.7266,5.57422 c -4.0872,8.354 -4.6673,8.74663 -10.3457,7.02343 -7.4136,-2.2496 -15.0099,-1.86893 -20.8535,1.04297 -5.638,2.8095 -12.7721,8.5783 -14.6387,11.83789 -0.8894,1.553 -1.3792,11.87791 -1.7383,36.66211 l -0.5,34.5 -4.5,2.23438 c -2.475,1.2294 -6.6845,2.5348 -9.3535,2.90039 l -4.8515,0.66601 0.3515,-38.90039 0.3535,-38.90039 -3,-5.42383 c -3.202,-5.78799 -8.7557,-10.53494 -13.5586,-11.58984 -1.8422,-0.4047 -2.9329,-1.27031 -2.914,-2.3164 0.031,-1.9067 5.858,-8.50315 8.9941,-10.18165 0.9073,-0.48551 1.9843,-0.71076 3.1778,-0.70507 z m -287.4883,0.55664 c 4.0857,0.001 8.2319,0.39147 12.3984,1.18164 17.0589,3.2352 31.7556,16.84753 37.0664,34.33203 1.8057,5.945 2.0233,8.52351 1.5293,18.04101 -0.3769,7.2611 -1.2759,13.10587 -2.5976,16.88477 -2.6364,7.5383 -9.904,18.29088 -15.5586,23.01758 -6.1559,5.1457 -17.8298,11.28464 -25.0098,13.15234 -7.2152,1.87712 -20.9612,1.88808 -28.6426,0.0234 -19.0206,-4.6172 -34.4499,-20.29638 -37.9062,-38.52149 -3.4131,-17.99718 0.9598,-35.2021 12.0195,-47.2832 12.4053,-13.55087 28.9966,-20.83364 46.7012,-20.82812 z m -57.7656,0.65625 c 3.9851,-0.0271 7.7317,0.85656 11.3046,2.65625 4.4227,2.2277 4.7064,4.16041 1.293,8.78711 -5.3168,7.20649 -7.7639,8.29254 -12.543,5.56054 -6.4454,-3.6846 -16.6575,-0.65159 -25.3652,7.53321 l -6.1348,5.76562 -0.094,33.94336 c -0.052,18.6688 -0.4399,34.5017 -0.8613,35.18359 -0.4214,0.6819 -2.6466,2.04586 -4.9453,3.03125 -7.3319,3.14281 -10.3146,3.44518 -11.5313,1.17188 -0.6902,-1.2896 -1.0668,-12.572 -1.0781,-31.8125 -0.012,-40.8136 0.2558,-39.24544 -8.0664,-47.58594 -7.2663,-7.2823 -13.8872,-10.93427 -20.1192,-11.09765 -2.0924,-0.0548 -3.8047,-0.38913 -3.8047,-0.74415 0,-0.77978 9.6195,-8.18507 12.6836,-9.76367 7.4072,-3.8163 23.297,3.58211 30.6133,14.25391 2.7298,3.9818 5.296,3.26921 11.5625,-3.21289 7.2782,-7.5285 12.2192,-10.70767 19.6406,-12.63867 2.5775,-0.67065 5.0542,-1.01498 7.4454,-1.03125 z m 290.0546,1.13672 c 8.0749,0.103 12.4753,0.7257 19.0567,2.6914 8.616,2.5734 22.9433,9.98013 22.9433,11.86133 0,0.5569 -0.6441,2.43086 -1.4296,4.16406 -11.1503,24.601 -13.8529,30.21012 -14.8711,30.85742 -0.6598,0.41942 -15.2757,0.76752 -32.4805,0.77735 -35.862,0.0175 -33.2774,-0.79166 -31.457,9.83594 5.6843,33.1852 42.9727,46.82241 70.5254,25.79101 5.5675,-4.2497 6.7128,-4.45355 6.7128,-1.18945 0,5.0754 -15.4159,15.18646 -29.3125,19.22656 -6.1158,1.778 -10.4121,2.33424 -17.6367,2.28125 -10.6596,-0.0777 -16.2598,-1.46488 -24.7832,-6.14258 -17.2271,-9.45439 -26.1323,-26.66621 -24.9844,-48.28711 1.1065,-20.841 10.7527,-35.66411 29.4297,-45.22461 10.949,-5.6046 16.0312,-6.79886 28.2871,-6.64257 z m -237.8593,7.35546 c -5.4287,0.0601 -10.8574,1.27414 -15.0938,3.57032 -14.5077,7.8634 -22.0765,22.82467 -20.7031,40.92187 0.9169,12.0826 3.9307,20.70593 10.1445,29.01953 6.3987,8.56091 12.0583,12.91734 20.2383,15.58203 17.3674,5.6579 37.1728,-5.68781 42.832,-24.5371 1.9945,-6.6435 1.9584,-23.23163 -0.066,-30.95313 -3.8678,-14.7464 -13.9322,-27.35174 -25.2461,-31.61914 -3.6605,-1.38071 -7.8832,-2.03112 -12.1054,-1.98438 z m 235.916,1.06446 c -5.7392,0.0729 -11.5793,1.03625 -15.1426,2.77539 -7.1058,3.468 -13.7965,10.6357 -17.5879,18.8418 -3.6837,7.97279 -4.2264,12.00565 -1.6816,12.50585 2.5313,0.4975 51.1301,-0.60858 51.6601,-1.17578 1.5326,-1.6404 9.7814,-21.3111 9.5157,-22.6914 -0.4006,-2.0799 -7.7222,-6.45137 -14.6719,-8.75977 -3.2251,-1.07117 -7.628,-1.55277 -12.0918,-1.49609 z m 68.8828,212.76367 c 4.4672,0 7.5933,1.27847 10.7383,4.39258 4.7497,4.70309 5.746,11.52924 2.5664,17.58594 -2.4465,4.66023 -7.1338,7.55599 -12.5957,7.78124 -1.6849,0.0695 -3.058,-0.0272 -4.0977,-0.29101 -2.8889,-0.73244 -4.9469,-1.9212 -7.1152,-4.10547 -3.776,-3.80334 -5.1912,-8.429 -4.1231,-13.4707 1.499,-7.07577 7.4229,-11.89258 14.627,-11.89258 z m 0.059,2.40625 v 0.002 c -3.1603,0.0144 -6.222,1.26777 -8.6953,3.62696 -2.7152,2.58992 -3.8531,5.54372 -3.6778,9.55078 0.093,2.12848 0.2285,2.69137 1.0645,4.42968 0.5266,1.09516 1.3921,2.48769 1.9219,3.09571 1.7624,2.02288 4.6737,3.6036 7.5117,4.07812 1.8211,0.30274 1.6511,0.30274 3.6641,0.0117 5.4003,-0.78089 9.7957,-5.12957 10.6347,-10.52148 0.9623,-6.1838 -3.0938,-12.26812 -9.248,-13.8711 -1.0574,-0.27545 -2.1224,-0.40612 -3.1758,-0.40234 z m -6.0176,4.79492 h 4.3457 c 4.1471,0 4.4129,0.0328 5.7383,0.69336 3.3508,1.66976 3.8169,6.46118 0.8379,8.61914 l -0.9883,0.7168 1.3106,1.85351 c 2.1228,2.99607 2.1215,2.78699 0.035,2.78321 l -1.8105,-0.004 -1.3438,-1.92969 -1.3437,-1.92968 -1.6563,-0.0801 -1.6582,-0.0781 v 2.01367 2.01172 h -1.7324 -1.7344 v -7.33593 z m 3.4668,2.61328 v 2.56055 2.56055 h 2.2793 c 2.0643,0 2.3407,-0.0613 2.9336,-0.6543 0.9372,-0.93785 0.9196,-2.73567 -0.035,-3.63281 -0.5934,-0.55786 -0.9968,-0.65936 -2.9336,-0.74024 z"
         style="fill:#363e7f;fill-opacity:1;stroke-width:0.99999994"
         inkscape:connector-curvature="0" />
    </g>
  </g>
</svg>
