<?xml version="1.0" encoding="UTF-8" standalone="no"?>
<!DOCTYPE svg PUBLIC "-//W3C//DTD SVG 1.1//EN" "http://www.w3.org/Graphics/SVG/1.1/DTD/svg11.dtd">
<svg width="100%" height="100%" viewBox="0 0 1521 1148" version="1.1" xmlns="http://www.w3.org/2000/svg" xmlns:xlink="http://www.w3.org/1999/xlink" xml:space="preserve" xmlns:serif="http://www.serif.com/" style="fill-rule:evenodd;clip-rule:evenodd;stroke-linejoin:round;stroke-miterlimit:2;">
    <g id="アートボード1" transform="matrix(0.937881,0,0,0.963349,-2022.97,-576.363)">
        <rect x="2156.96" y="598.291" width="1621.64" height="1191.01" style="fill:none;"/>
        <clipPath id="_clip1">
            <rect x="2156.96" y="598.291" width="1621.64" height="1191.01"/>
        </clipPath>
        <g clip-path="url(#_clip1)">
            <g transform="matrix(1.06577,0,0,1.03759,-873.573,220.343)">
                <g transform="matrix(4.16667,0,0,4.16667,0,325.255)">
                    <path d="M925.406,235.036C925.406,219.296 912.798,206.453 897.15,206.055L897.15,206.033L854.605,206.033L854.605,282.835L879.666,282.835L879.666,262.909L889.066,262.909L899.926,282.835L926.669,282.835L913.409,258.509C920.672,253.233 925.406,244.681 925.406,235.036M892.499,242.885L879.666,242.885L879.666,227.189L892.499,227.189C896.837,227.189 900.355,230.701 900.355,235.036C900.355,239.371 896.837,242.885 892.499,242.885" style="fill:rgb(35,25,22);fill-rule:nonzero;"/>
                </g>
                <g transform="matrix(4.16667,0,0,4.16667,0,325.263)">
                    <path d="M740.422,206.032L716.485,241.782L716.485,206.032L689.976,206.032L689.976,282.834L716.485,282.834L716.485,247.231L740.325,282.834L769.908,282.834L744.243,244.504L770.005,206.032L740.422,206.032Z" style="fill:rgb(35,25,22);fill-rule:nonzero;"/>
                </g>
                <g transform="matrix(4.16667,0,0,4.16667,0,325.265)">
                    <path d="M985.117,206.033L956.555,206.033L927.417,282.833L953.911,282.833L957.813,270.137L983.726,270.137L987.664,282.833L1014.25,282.833L985.117,206.033ZM963.875,250.899L970.68,230.134L977.616,250.899L963.875,250.899Z" style="fill:rgb(35,25,22);fill-rule:nonzero;"/>
                </g>
                <g transform="matrix(4.16667,0,0,4.16667,0,333.942)">
                    <path d="M820.643,247.567C820.643,252.758 816.862,257.996 808.421,257.996C799.977,257.996 796.198,252.758 796.198,247.567L796.198,203.952L771.363,203.952L771.363,247.567C771.363,257.603 775.386,266.754 782.692,273.326C789.506,279.455 798.646,282.831 808.421,282.831C818.196,282.831 827.331,279.455 834.147,273.326C841.453,266.754 845.476,257.603 845.476,247.567L845.476,203.952L820.643,203.952L820.643,247.567Z" style="fill:rgb(35,25,22);fill-rule:nonzero;"/>
                </g>
                <g transform="matrix(4.16667,0,0,4.16667,0,-826.379)">
                    <path d="M837.247,423.38C837.027,422.454 837.086,420.632 837.046,418.568C837.015,417.064 835.122,415.394 834.499,418.142C834.044,420.153 833.4,417.656 834.435,414.02C835.146,411.527 833.847,410.101 832.097,412.717C830.339,415.346 828.83,413.889 829.874,412.527C831.445,410.478 830.718,408.561 827.586,409.824C824.598,411.03 822.397,410.421 820.94,410.321C818.232,410.139 765.25,392.785 754.762,386.896C755.96,386.258 762.49,382.998 771.011,378.765C770.139,378.976 769.36,378.898 768.82,378.111C767.562,376.291 787.022,365.87 788.299,367.372C789.223,368.459 788.545,369.599 787.541,370.577C803.672,362.605 819.881,354.647 820.976,354.256C822.53,353.702 823.511,353.11 824.449,353.022C826.47,352.833 825.852,351.482 824.703,351.359C823.551,351.236 823.466,350.006 825.449,349.828C826.768,349.71 832.329,348.739 835.122,350.551C837.415,352.039 842.284,346.081 843.537,342.501C844.717,339.125 846.2,336.028 844.421,328.047C842.938,321.397 840.912,316.26 832.028,309.227C826.636,304.957 822.807,302.877 817.005,300.347C814.397,299.208 811.398,297.424 810.194,297.511C808.725,297.618 810.549,299.933 810.77,301.449C811.085,303.619 808.974,302.721 808.472,301.2C808.003,299.779 806.674,297.526 806.174,296.554C805.79,295.543 804.15,294.837 804.041,296.921C803.985,297.976 804.487,299.876 803.184,299.89C801.905,299.909 802.892,295.453 802.464,293.74C802.167,292.233 799.592,291.288 799.417,293.825C799.197,296.978 797.946,300.383 796.14,302.261C792.134,306.438 778.82,316.959 760.995,327.194C738.744,339.968 716.486,351.901 710.374,354.259C706.218,354.121 701.554,355.033 696.178,358.322C690.589,361.74 682.56,372.266 682.679,386.277C682.835,404.005 689.623,414.403 700.419,420.402C703.887,422.331 709.72,423.359 712.189,423.058C717.505,424.993 737.349,430.637 754.439,437.931C776.271,447.249 792.819,457.047 798.315,461.099C803.594,464.989 802.544,466.391 805.74,468.246C812.75,472.314 826.633,473.972 834.968,467.711C843.402,461.376 844.416,448.637 842.978,440.817C840.552,427.618 838.372,426.166 837.247,423.38M758.836,429.67C759.047,429.135 759.649,428.876 760.18,429.087C767.304,431.906 775.536,435.742 782.767,439.608C783.271,439.876 783.463,440.506 783.193,441.011C783.006,441.359 782.648,441.558 782.279,441.558L781.791,441.437C774.627,437.604 766.472,433.806 759.419,431.013C758.884,430.802 758.626,430.201 758.836,429.67M735.141,346.502L773.063,324.197C773.556,323.908 774.193,324.071 774.482,324.564C774.771,325.057 774.608,325.694 774.115,325.983L736.19,348.289L735.666,348.433C735.311,348.433 734.965,348.251 734.773,347.921C734.482,347.426 734.648,346.794 735.141,346.502M744.311,420.907C744.145,421.302 743.762,421.542 743.357,421.542L742.954,421.459C741.672,420.916 740.222,420.397 738.981,420.03C738.431,419.871 738.116,419.293 738.277,418.744C738.438,418.196 739.016,417.881 739.564,418.042C740.881,418.431 742.409,418.978 743.762,419.549C744.285,419.772 744.534,420.381 744.311,420.907M732.546,420.397C732.71,419.848 733.285,419.53 733.835,419.696C736.718,420.542 743.084,423.032 745.546,424.072C746.074,424.295 746.32,424.903 746.098,425.432C745.932,425.827 745.546,426.062 745.143,426.062L744.74,425.981C742.219,424.918 735.944,422.475 733.25,421.684C732.703,421.52 732.388,420.947 732.546,420.397M795.148,453.432C794.949,453.724 794.622,453.88 794.295,453.88L793.71,453.7C779.054,443.648 760.265,435.903 742.276,428.829L742.103,428.741C741.317,428.436 740.469,428.106 739.597,427.768C735.681,426.24 730.812,424.344 727.616,423.304C727.074,423.129 726.775,422.544 726.953,421.999C727.128,421.454 727.713,421.155 728.258,421.333C731.509,422.387 736.41,424.299 740.348,425.837C742.099,426.517 743.752,427.161 745.003,427.63L745.264,427.779C762.679,434.662 780.656,442.231 794.88,451.992C795.352,452.314 795.475,452.961 795.148,453.432" style="fill:rgb(35,25,22);fill-rule:nonzero;"/>
                </g>
                <g transform="matrix(4.16667,0,0,4.16667,0,-1295.61)">
                    <path d="M872.972,434.502C874.149,439.314 876.459,444.763 884.095,447.598C889.712,449.686 907.194,447.601 917.274,447.172C919.34,447.084 920.956,447.641 921.044,448.866C921.238,451.562 916.822,457.501 915.784,459.285C914.995,460.645 917.03,462.133 917.03,462.133C917.03,462.133 920.823,456.262 922.354,454.073C923.23,452.818 923.856,451.73 924.552,450.894C926.123,449.02 928.618,449.899 927.905,450.958C925.877,453.971 919.482,462.323 918.717,463.197C917.784,464.265 919.385,466.066 919.385,466.066C919.385,466.066 930.262,453.076 930.98,452.304C932.342,450.846 935.157,451.785 934.199,452.837C932.219,455.007 920.025,468.591 919.231,469.544C918.438,470.496 919.084,472.841 920.295,471.626C920.454,471.467 933.768,457.125 935.42,455.608C936.528,454.59 939.153,455.016 937.822,456.492C936.045,458.466 927.867,466.757 927.083,467.634C926.14,468.686 928.914,469.046 929.809,468.179C931.399,466.637 938.658,459.532 939.395,458.736C940.269,457.79 942.667,458.314 941.717,459.363C940.691,460.489 936.168,464.331 935.569,464.955C934.358,466.213 937.687,466.215 938.767,465.004C939.836,463.81 941.008,463.476 941.66,462.941C942.719,462.069 944.304,462.477 943.178,463.86C942.406,464.812 939.293,467.056 938.774,467.658C938.13,468.411 940.037,468.944 941.418,468.077C942.415,467.449 943.266,466.269 943.74,465.988C944.943,465.265 946.564,466.341 945.555,466.99C944.868,467.428 944.387,468.631 944.808,468.729C946.929,469.219 948.824,466.402 949.596,465.319C950.369,464.237 952.83,460.496 953.119,461.527C953.15,463.254 952.904,463.701 952.757,464.367C952.482,465.592 953.922,465.909 955.242,464.777C956.865,463.386 961.162,460.411 962.596,459.57C963.752,458.89 966.353,458.432 964.728,459.823C963.107,461.211 961.359,462.652 960.354,463.192C959.35,463.734 961.056,464.857 962.6,464.005C964.145,463.156 966.199,462.142 967.746,461.908C969.291,461.678 968.999,463.772 970.468,464.083C971.937,464.391 976.552,464.021 980.129,461.531C981.887,460.311 987.087,446.613 987.087,446.613C987.919,444.618 988.244,440.927 987.907,437.549C987.644,434.924 986.917,432.578 986.135,430.775C984.311,426.582 982.52,422.574 977.559,419.922C972.067,416.987 964.529,416.144 960.276,417.913C958.435,418.676 949.175,418.664 941.558,418.018C926.831,415.795 902.19,412.021 901.285,411.517C901.146,411.439 900.828,411.398 900.378,411.379C891.676,409.498 886.519,409.188 882.574,407.504C876.791,405.035 873.505,407.016 876.08,409.975C877.751,411.896 880.158,415.807 877.073,419.97C874.64,423.306 871.543,428.674 872.972,434.502" style="fill:rgb(35,25,22);fill-rule:nonzero;"/>
                </g>
                <g transform="matrix(4.16667,0,0,4.16667,0,-659.024)">
                    <path d="M1003.85,390.24C1003.45,390.088 1003.21,390.159 1003.07,390.228C1002.85,390.332 1002.66,390.524 1002.51,390.733C1000.3,395.563 997.328,399.764 994.464,402.038C994.272,402.187 994.045,402.261 993.817,402.261C993.514,402.261 993.211,402.128 993.005,401.868C992.652,401.422 992.725,400.768 993.175,400.413C995.57,398.511 998.093,395.026 1000.09,390.96L1000.11,390.868C1000.15,390.773 1000.32,390.292 1000.67,389.754C1001.36,388.226 1001.97,386.634 1002.47,385.026L1002.53,384.841L1002.54,384.789L1002.57,384.708C1003.5,381.654 1004.03,378.556 1003.93,375.746C1003.91,375.175 1004.35,374.696 1004.93,374.675C1005.49,374.649 1005.98,375.099 1006,375.675C1006.11,378.911 1005.49,382.448 1004.39,385.893C1004.16,386.821 1004.11,387.824 1004.84,388.124C1005.23,388.29 1005.47,388.226 1005.62,388.162C1006.17,387.921 1006.57,387.106 1006.65,386.9L1006.78,386.653C1008.54,381.337 1009.36,375.71 1009.15,369.847C1008.58,353.966 1003.06,342.91 996.127,335.601C988.61,327.679 979.37,321.92 967.373,319.541C949.339,315.966 933.661,320.136 922.751,325.914C912.964,331.095 904.298,337.975 898.884,343.17C901.91,336.757 908.114,325.25 909.595,324C911.078,322.746 914.952,320.173 914.634,317.079C913.751,308.51 906.402,305.016 902.819,303.071C899.965,301.517 883.134,294.523 872.772,298.006C870.799,298.671 866.444,297.977 866.709,299.958C866.97,301.936 866.643,303.298 865.286,301.213C864.812,300.481 864.196,300.413 863.788,299.664C863.217,298.61 861.64,298.899 861.959,300.098C862.156,300.839 862.22,301.356 862.509,302.358C862.253,302.732 862.163,303.094 861.727,302.858C860.952,301.306 860.727,300.458 859.841,298.93C858.948,297.39 857.145,298.297 857.996,300.074C859.569,303.355 859.59,310.626 859.59,310.626C859.59,310.626 849.401,346.748 845.354,360.662L845.354,360.659C844.712,362.993 844.035,364.459 843.34,365.388C842.334,367.357 841.009,369.394 839.538,370.311C837.941,371.138 838.313,373.962 838.446,375.092C838.593,376.35 839.465,379.513 839.465,379.513C839.851,380.465 840.896,383.777 842.751,387.056C844.952,390.951 847.823,396.028 850.995,398.622C854.79,401.723 862.921,405.362 864.184,405.663C865.447,405.964 870.834,406.397 874.847,403.223C876.736,401.733 876.373,402.031 876.537,400.671C876.702,399.314 878.373,395.722 880.14,393.073C881.253,391.403 882.511,389.108 884.3,386.452C884.556,386.674 884.862,386.881 885.205,387.056C887.382,387.482 910.969,392.183 913.033,392.51C915.381,392.882 914.101,394.175 911.488,394.585C909.181,394.31 886.553,389.131 884.459,388.875C883.717,389.041 883.736,391.496 885.276,391.794C889.045,392.514 908.143,396.999 909.451,397.312C911.114,398.764 910.465,400.159 909.147,399.937C906.634,399.515 888.944,394.907 887.264,394.504C886.176,394.985 886.752,397.082 888.219,397.793C893.222,399.079 906.819,402.713 908.072,402.974C910.069,404.331 910.261,406.4 908.685,406.006C907.501,405.71 891.732,400.953 890.493,400.685C889.301,401.121 890.353,403.211 891.41,403.789C895.93,405.118 913.395,410.501 914.753,410.896C916.198,412.088 917.226,413.912 915.537,413.467C913.665,412.976 895.76,407.312 893.968,406.961C893.146,407.864 894.338,409.281 895.335,410.069C897.309,410.889 919.121,417.641 920.611,417.982C922.448,419.247 922.751,421.309 921.607,420.979C920.54,420.671 899.841,414.242 898.174,413.803C896.887,414.464 897.683,416.452 899.37,417.02C901.498,417.736 906.605,419.747 912.718,421.448C919.493,423.332 924.357,424.813 925.137,425.035C925.568,425.919 924.329,426.568 922.182,426.184C920.915,425.957 918.271,425.412 914.279,424.234C910.652,423.166 905.994,421.572 904.234,420.941C902.907,421.261 903.218,423.024 905.643,424.227C907.453,425.123 913.127,427.437 919.695,428.935C926.864,430.572 937.356,430.257 942.213,429.726C954.376,428.397 972.879,425.438 990.126,410.629C996.295,405.334 1001.09,399.285 1004.33,392.661C1004.56,391.673 1004.64,390.541 1003.85,390.24M860.611,327.027L851.637,359.733C851.512,360.193 851.092,360.496 850.64,360.496L850.363,360.46C849.811,360.306 849.486,359.735 849.638,359.186L858.612,326.482C858.763,325.93 859.334,325.606 859.886,325.755C860.438,325.907 860.763,326.478 860.611,327.027M949.107,376.127C952.483,375.158 951.152,380.439 946.383,382.991C940.889,385.931 935.876,387.842 937.679,385.244C937.946,384.857 938.197,384.497 938.43,384.161C937.662,384.445 936.861,384.699 936.025,384.917C925.139,387.722 919.055,389.1 914.267,389.138C910.166,389.174 891.969,385.514 885.852,384.258C887.84,381.581 890.405,378.641 893.878,375.665L893.973,375.566C895.179,374.27 896.641,372.706 898.581,371.024L898.354,370.87C897.93,370.486 897.901,369.832 898.285,369.406C900.623,366.836 907.804,362.564 912.007,361.249C912.554,361.076 913.135,361.379 913.308,361.929L913.341,362.377C915.594,361.496 918.093,360.659 920.882,359.889C921.431,359.735 922.005,360.06 922.156,360.61L922.187,360.979C930.481,359.098 938.882,359.624 941.147,359.93C943.909,360.302 951.228,362.68 951.543,367.816C951.69,370.188 950.792,373.268 948.802,376.203L949.107,376.127Z" style="fill:rgb(35,25,22);fill-rule:nonzero;"/>
                </g>
                <g transform="matrix(4.16667,0,0,4.16667,0,-307.882)">
                    <path d="M1044.7,291.34C1044.8,291.094 1044.92,290.843 1045,290.561C1045.12,290.115 1044.95,289.71 1044.82,289.383L1044.71,289.106L1044.76,288.687C1044.81,288.53 1044.87,288.35 1044.81,288.113C1044.68,287.635 1044.21,286.734 1043.79,286.46L1043.57,286.403L1043.52,286.398L1043.25,286.235L1042.86,286.019C1042.71,285.972 1042.47,285.986 1042.23,286L1041.92,286.014C1041.73,286.014 1041.53,286.021 1041.31,286.031C1040.9,286.05 1040.44,286.069 1040.2,286.017C1039.91,285.955 1039.57,286.043 1039.4,286.092L1039.25,286.017C1039.18,286.002 1039.03,286.005 1038.71,286.012L1038.6,286.014L1038.42,285.917L1038.31,285.922L1037.94,285.934L1037.67,285.825C1037.48,285.711 1036.06,285.86 1035.8,285.917L1035.2,285.917L1034.85,285.986L1034.44,286.017L1034.36,285.995L1033.93,285.917L1032.79,285.917L1032.75,285.922L1032.46,286.033C1032.16,286.152 1031.8,286.301 1031.47,286.209C1031.25,286.149 1030.76,286.014 1030.39,286.114L1030.3,286.142L1029.78,286.213L1029.67,286.14C1029.58,286.064 1029.39,286.066 1028.93,286.092L1028.56,286.109C1028.24,286.019 1027.78,285.917 1027.45,286.019L1027.42,286.031L1027.32,286.123L1026.94,286.055L1026.83,286.019C1026.6,285.957 1026.41,286.04 1026.29,286.09L1026.22,286.116C1025.82,286.239 1025.37,286.071 1025.01,285.934L1024.71,285.829L1023.66,285.825L1023.62,285.86C1023.5,285.96 1023.31,285.927 1023.08,285.893L1022.49,285.879C1022.21,285.943 1021.84,286.033 1021.57,286.109L1021.07,286.109L1021.03,286.114L1020.88,286.161L1020.21,286.303C1019.89,286.23 1019.41,286.111 1019.08,286.019L1018.64,286.014L1018.62,286.007C1018.44,285.945 1018.1,285.837 1017.81,285.927L1017.55,286.04L1016.91,286.209L1016.62,286.116C1016.18,285.967 1015.59,285.763 1015.07,285.927C1014.58,286.078 1014.02,286.253 1013.56,286.4C1013.32,286.474 1013.04,286.412 1012.8,286.36L1012.38,286.299L1011.97,286.379L1011.51,286.443C1011.25,286.386 1010.84,286.429 1010.44,286.561C1010.14,286.661 1009.86,286.673 1009.55,286.689C1009.36,286.699 1009.16,286.708 1008.94,286.737L1008.64,286.651L1008.61,286.647C1008.32,286.616 1008.06,286.668 1007.82,286.718C1007.54,286.775 1007.27,286.827 1006.99,286.746L1006.6,286.713L1006.29,286.689L1006.26,286.678L1006.23,286.678L1006.07,286.727L1006.05,286.734L1005.89,286.68L1005.81,286.656L1005.76,286.647L1005.23,286.557L1004.63,286.455L1004.6,286.455L1004.58,286.462L1004.3,286.625L1004.13,286.737L1003.92,286.68L1003.65,286.609L1003.05,286.301L1002.68,286.322L1002.56,286.344L1002.37,286.294C1002.08,286.211 1001.73,286.109 1001.37,286.211L1000.88,286.462L1000.3,286.723L999.8,286.552L999.423,286.398L997.725,286.393L997.682,286.398L997.561,286.476L997.552,286.488L997.282,286.348L997.021,286.211C996.758,286.123 996.471,286.22 996.298,286.277L996.22,286.303L995.794,286.244L995.687,286.209C995.393,286.126 995.062,286.225 994.865,286.284L994.82,286.299L994.323,286.299L994.275,286.306C994.036,286.379 993.479,286.481 993.178,286.41L993.067,286.299L991.84,286.299C990.634,285.969 989.298,286.187 988.144,286.443C987.902,286.498 987.452,286.353 987.182,286.268L986.993,286.209L986.026,286.204C985.547,286.071 984.986,285.96 984.424,286.109L982.629,286.109L982.475,286.026L982.273,285.927C982.034,285.851 981.811,285.941 981.676,285.998L981.631,286.014L981.129,286.012C980.331,286.005 980.323,286.009 980.281,286.021L980.162,286.114C980.025,286.116 979.66,286.114 979.381,286.109C978.684,286.102 978.682,286.104 978.641,286.119L978.549,286.185L978.528,286.204L978.509,286.204C978.177,286.194 978.125,286.199 978.085,286.211L977.957,286.289L977.94,286.301L977.618,286.265L977.308,286.237L977.282,286.232L977.075,286.237L977.03,286.22L976.606,286.19L976.495,286.225C976.239,286.308 975.922,286.412 975.855,286.846C975.815,287.213 975.974,287.514 976.099,287.753L976.237,288.191L976.104,288.433L975.957,288.701L975.948,288.727L975.948,289.061L975.815,289.39L975.673,289.748C975.602,289.975 975.685,290.186 975.737,290.326L975.761,290.383L975.761,291.212L975.768,291.252L975.867,291.485L975.952,291.672L975.848,292.027L975.768,292.205L975.761,292.934L975.813,292.984L975.971,293.181L976.002,293.231L976.054,293.25L976.092,293.261L976.142,293.309L976.426,293.309L976.457,293.292C976.566,293.24 976.744,293.084 976.983,292.868L977.146,292.721L977.192,292.702L977.286,292.66L977.566,292.676L977.587,292.695L977.616,292.702L977.701,292.74L977.708,292.745C977.767,293.069 977.772,293.484 977.682,293.584L977.668,293.607L977.206,293.913L977.101,293.899L977.059,293.858L977,293.858C976.464,293.863 976.277,293.92 976.265,294.297L976.199,294.647L976.095,294.77L975.976,294.906C975.839,295.114 975.744,295.448 975.673,295.704L975.666,297.613L975.659,297.637C975.599,297.817 975.49,298.154 975.578,298.443C975.659,298.703 975.753,299.217 975.673,299.483C975.671,299.492 975.384,300.594 975.486,300.904L975.777,301.387L976.052,301.845C976.137,302.117 975.948,302.499 975.806,302.776L975.673,303.072C975.559,303.415 975.699,303.915 975.758,304.131L975.761,304.659L975.768,304.68L975.931,304.962L976.042,305.135L976.042,306.403L975.993,306.538C975.896,306.768 975.749,307.118 975.86,307.512C975.929,307.748 976.057,307.959 976.178,308.163L976.422,308.627L976.422,309.281L976.512,309.577L976.611,310.092L976.481,310.392L976.327,310.75L976.379,311.236L976.417,311.385L976.291,311.594L976.142,311.828L976.133,311.854L976.133,312.281L976.002,312.622L975.813,312.911L975.576,313.292L975.566,313.321L975.566,313.993C975.502,314.361 975.467,314.804 975.474,315.251L975.517,315.702L975.467,315.908C975.384,316.228 975.27,316.666 975.384,317.076C975.517,317.564 975.666,318.061 975.858,318.687L975.825,319.158L975.711,319.433C975.557,319.784 975.341,320.267 975.481,320.674L975.661,320.918L975.732,320.994C975.796,321.089 975.877,321.305 975.95,321.563L975.806,321.975L975.697,322.188L975.692,322.826L975.63,323.226L975.573,323.607L975.566,324.216L975.472,324.358L975.472,324.877C975.472,325.517 975.604,325.972 975.73,326.408L975.853,326.853L975.782,327.052L975.699,327.194L975.692,327.876L975.545,328.365L975.545,328.917C975.443,329.243 975.408,329.644 975.467,329.845L975.426,330.25C975.533,330.615 975.64,330.62 975.697,330.978C975.746,331.3 975.801,331.632 975.886,331.958C975.926,332.117 975.784,332.48 975.699,332.698L975.604,332.965C975.498,333.347 975.633,333.662 975.756,333.939C975.851,334.159 975.931,334.347 975.886,334.524C975.817,334.78 975.758,335.031 975.701,335.28C975.63,335.571 975.559,335.872 975.479,336.178C975.415,336.398 975.5,336.574 975.547,336.678L975.566,336.72L975.566,337.848L975.481,338.038L975.384,338.251C975.306,338.504 975.398,338.765 975.45,338.924L975.472,338.983L975.424,339.509L975.377,340.096L975.384,340.137L975.474,340.494L975.597,340.968L975.552,341.217L975.502,341.56L975.507,341.598L975.581,341.807L975.694,342.172L975.597,342.316L975.597,343.051L975.557,343.164C975.488,343.361 975.393,343.629 975.457,343.911C975.509,344.138 975.559,344.541 975.509,344.733L975.481,344.813C975.422,344.963 975.339,345.195 975.412,345.436L975.467,345.569L975.552,345.799L975.524,346.074L975.509,346.614L975.557,346.78C975.649,347.078 975.787,347.528 975.697,347.85L975.609,348.097L975.509,348.372L975.502,348.412L975.55,348.864L975.597,349.241L975.59,349.265C975.408,349.845 975.263,350.305 975.472,351.08L975.412,351.366L975.334,351.755C975.239,352.392 975.32,353.809 975.948,354.401L975.969,354.42C976.54,354.792 977.101,354.721 977.511,354.666L977.938,354.65L978.182,354.745L978.454,354.849L978.494,354.856C978.774,354.861 979.044,354.846 979.243,354.835L979.499,354.823L979.577,354.837L979.876,354.87L980.248,354.749L980.807,354.574L981.255,354.61C981.525,354.64 981.78,354.671 982.15,354.574L983.311,354.574L983.354,354.567L983.676,354.475C984.178,354.328 984.292,354.297 985.107,354.294C985.265,354.389 985.547,354.37 985.967,354.33L986.471,354.313C986.765,354.418 987.009,354.33 987.222,354.254L987.755,354.188L988.007,354.354L988.078,354.534L988.255,354.657L988.829,354.768C989.016,354.825 989.298,354.922 989.587,354.88L990.075,354.82C990.271,354.82 990.482,354.828 990.698,354.835C991.302,354.854 991.927,354.875 992.38,354.756L992.764,354.766C992.951,354.792 993.162,354.818 993.375,354.756C993.763,354.64 994.133,354.534 994.555,354.418C994.91,354.318 995.268,354.403 995.614,354.486C995.948,354.562 996.291,354.643 996.632,354.56L997.22,354.399L997.464,354.328L997.827,354.337C998.352,354.354 998.45,354.349 998.521,354.304L998.855,354.458C998.961,354.505 999.84,354.347 1000.25,354.46C1000.46,354.52 1000.72,354.51 1001,354.498C1001.29,354.486 1001.59,354.472 1001.78,354.553L1001.92,354.645L1002.38,354.752C1002.96,354.806 1003.35,354.747 1003.51,354.707L1004.11,354.638L1004.67,354.574C1005.64,354.574 1006.41,354.662 1007.09,354.849L1007.13,354.856L1007.64,354.851C1007.92,354.846 1008.31,354.844 1008.36,354.849L1008.5,354.901L1008.88,355.038L1009.4,355.046L1009.41,355.046C1010.03,355.046 1010.32,354.951 1010.68,354.83L1010.91,354.754L1011.25,354.716L1011.71,354.662C1012.13,354.541 1012.5,354.51 1012.71,354.567L1012.89,354.626C1013.14,354.719 1013.48,354.842 1013.79,354.756L1014.09,354.624L1014.67,354.465L1014.83,354.562C1014.89,354.583 1014.98,354.586 1015.43,354.576L1015.76,354.574C1015.98,354.633 1016.21,354.721 1016.43,354.809C1016.66,354.891 1016.89,354.979 1017.11,355.038L1017.53,355.088C1018.07,355.088 1018.74,354.922 1018.97,354.856L1019.12,354.858L1019.45,354.854L1019.63,354.761L1020.13,354.761L1020.17,354.754L1020.36,354.676L1020.62,354.572L1020.68,354.607L1020.8,354.662C1021.07,354.733 1021.37,354.662 1021.59,354.607L1021.75,354.572L1021.82,354.607L1021.93,354.662L1022.28,354.666L1022.41,354.707C1022.77,354.818 1023.32,354.991 1023.81,354.849L1024.02,354.787C1024.45,354.652 1025.17,354.425 1025.66,354.567L1025.98,354.721C1026.29,354.894 1026.67,355.109 1027.17,354.941L1027.37,354.818L1027.47,354.749L1027.94,354.612L1028.09,354.574L1028.45,354.586L1028.77,354.588L1029.01,354.477L1030.1,354.477L1030.15,354.47C1030.32,354.425 1030.77,354.299 1031.05,354.377L1031.35,354.52L1031.68,354.664L1032.11,354.671L1032.3,354.666L1032.58,354.79L1033.01,354.951L1033.52,354.956L1033.79,354.951L1035.11,354.951L1035.16,354.941L1035.31,354.837L1035.36,354.797L1036.41,354.567L1036.42,354.567L1036.53,354.64L1036.58,354.662L1037.2,354.714L1037.76,354.756L1038,354.844L1038.28,354.944C1038.8,355.09 1040.3,354.854 1040.66,354.761L1041.2,354.771C1041.6,354.78 1041.99,354.79 1042.22,354.761L1042.37,354.742C1042.74,354.704 1043.25,354.65 1043.55,354.453L1043.86,353.878L1043.98,353.558C1044.1,353.385 1044.64,352.082 1044.52,351.634C1044.4,351.165 1044.34,350.653 1044.34,349.973C1044.34,349.452 1044.39,349.054 1044.43,348.668C1044.48,348.282 1044.53,347.884 1044.53,347.372C1044.53,347.133 1044.52,346.877 1044.51,346.607C1044.49,345.879 1044.43,344.489 1044.43,344.489C1044.43,344.176 1044.59,343.861 1044.56,343.553C1044.53,343.262 1044.5,342.961 1044.5,342.669C1044.66,342.084 1044.59,341.897 1044.46,341.594L1044.34,341.298L1044.34,340.21L1044.41,340.132L1044.42,340.099L1044.55,339.521L1044.62,339.144C1044.68,338.926 1044.62,338.758 1044.57,338.625L1044.53,338.478L1044.53,337.779L1044.52,337.739L1044.28,337.545L1044.14,337.486L1044.14,337.244L1044.14,336.754L1044.02,336.334L1043.96,336.194L1043.96,335.417C1043.96,335.228 1044.03,334.453 1043.86,334.195L1043.79,334.091L1043.81,333.515C1043.86,333.295 1043.89,333.084 1044.02,332.856C1044.16,332.636 1043.94,332.409 1044.02,332.153L1043.86,331.755L1044.01,331.492C1044.11,331.347 1044.23,331.186 1044.14,330.885L1044.18,330.371L1044.24,329.935L1044.24,329.153L1044.33,328.867L1044.43,328.559C1044.5,328.317 1044.49,328.076 1044.48,327.846L1044.51,327.277L1044.61,327.18L1044.62,327.144C1044.62,327.125 1044.63,327.088 1044.72,326.071L1044.72,326.045L1044.71,326.017L1044.56,325.68L1044.43,325.42L1044.43,322.75C1044.43,322.617 1044.35,322.397 1044.22,322.101L1044.14,321.902C1044.13,321.83 1044.14,321.435 1044.15,321.172C1044.16,320.7 1044.17,320.516 1044.14,320.437L1044.02,320.205L1043.96,320.108C1043.89,319.857 1044.02,319.689 1044.15,319.509L1044.33,319.21L1044.34,319.184L1044.34,319.158C1044.34,318.791 1044.32,318.421 1044.29,318.064C1044.27,317.706 1044.25,317.343 1044.25,316.986L1044.24,316.941L1044.13,316.701L1044.05,316.559C1043.96,316.268 1044.04,316.026 1044.14,315.749C1044.24,315.467 1044.35,315.147 1044.24,314.768L1044.14,314.503L1044.05,314.297L1044.09,314.166L1044.15,314.053L1044.15,312.989L1044.16,312.968C1044.22,312.754 1044.33,312.356 1044.24,312.027L1044.23,311.994C1044.14,311.669 1043.93,310.904 1044.06,310.454C1044.11,310.241 1044.25,309.746 1044.15,309.381L1044.06,309.165C1043.98,308.98 1043.9,308.791 1043.96,308.568L1044.14,308.232L1044.34,307.867L1044.34,307.841L1044.34,307.817C1044.34,307.419 1044.37,307.014 1044.39,306.621C1044.41,306.23 1044.43,305.829 1044.43,305.429L1044.61,304.934L1044.81,304.363L1044.84,303.92L1044.86,303.69C1044.92,303.415 1044.85,303.105 1044.78,302.806C1044.72,302.52 1044.65,302.252 1044.71,302.046C1044.88,301.456 1044.93,301.12 1044.81,300.428L1044.81,299.31L1044.81,299.267L1044.71,299.037L1044.62,298.848L1044.67,298.469C1044.72,298.187 1044.79,297.836 1044.71,297.566L1044.62,297.419L1044.62,296.758L1044.62,296.711L1044.53,296.479L1044.43,296.194C1044.34,295.874 1044.47,295.607 1044.59,295.375L1044.71,295.105L1044.72,295.083L1044.72,294.301C1044.72,293.996 1044.63,293.65 1044.56,293.318C1044.44,292.859 1044.33,292.382 1044.43,292.027C1044.5,291.793 1044.59,291.572 1044.7,291.34M1010.15,352.167C1009.92,352.158 1009.71,352.15 1009.59,352.184L1009.44,352.231L1008.95,352.366L1008.66,352.357C1008.37,352.347 1008.18,352.34 1008.07,352.375L1007.96,352.421C1007.74,352.52 1007.14,352.781 1006.7,352.655L1006.39,352.513L1006.1,352.375L1005.38,352.366L1005.29,352.304C1005.21,352.25 1005.1,352.252 1004.87,352.264L1004.67,352.271L1004.24,352.307L1003.82,352.319L1003.37,352.311C1003.05,352.226 1002.25,352.091 1001.78,352.226L1001.63,352.233L1001.33,352.288C1001.04,352.473 1000.12,352.83 999.741,352.88L999.674,352.845L999.563,352.79L998.646,352.783L998.419,352.7L998.146,352.601C997.765,352.494 997.452,352.605 997.18,352.705L996.637,352.79L996.438,352.71L996.161,352.601L995.434,352.596L995.142,352.458L994.846,352.321C994.55,352.224 994.209,352.24 994.052,352.276L993.917,352.24L993.797,352.184C993.166,352.008 992.783,352.278 992.477,352.496L992.032,352.745L991.378,352.745L991.162,352.809L990.913,352.845L990.319,352.61L989.734,352.373L988.39,352.366L988.044,352.219L987.755,352.091L987.734,352.082L986.924,352.082C986.348,351.93 985.789,352.037 985.275,352.177L984.794,352.177C984.339,352.174 984.062,352.174 984.01,352.177L983.808,352.274L982.832,352.089C982.449,351.982 982.048,352.12 981.754,352.219L981.567,352.278C981.224,352.373 980.74,352.297 980.354,352.236L979.921,352.177C979.494,352.153 979.336,352.25 979.182,352.342L978.9,352.465L977.985,352.378L977.822,351.98L977.807,351.719L977.701,351.449L977.575,351.276L977.386,350.968C977.289,350.637 977.362,350.326 977.436,349.995C977.516,349.637 977.599,349.267 977.483,348.843L977.393,348.699L977.393,347.893L977.386,347.85L977.336,347.675C977.239,347.346 976.94,346.346 977.009,346.093L977.073,345.903C977.132,345.737 977.199,345.545 977.203,345.297C977.218,344.659 977.184,344.185 977.104,343.882L977.149,343.479L977.199,342.987L977.123,342.769L977.009,342.214L977.097,342.044L977.196,341.845L977.203,341.089L977.298,340.947L977.298,340.236L977.391,340.099L977.443,338.753L977.436,338.729L977.305,338.419L977.203,338.182L977.203,336.81L977.341,336.498L977.481,336.173C977.556,335.939 977.466,335.714 977.412,335.581L977.388,335.522C977.372,335.403 977.516,334.73 977.578,334.512C977.703,334.055 977.556,333.295 977.488,333.032L977.488,331.421C977.566,331.143 977.694,330.729 977.765,330.501L977.772,328.289L977.815,328.08C977.871,327.855 977.938,327.576 977.862,327.291L977.772,327.147L977.772,326.199L977.765,326.154C977.582,325.559 977.582,324.787 977.582,323.97L977.582,323.837C977.582,323.027 977.606,322.266 977.63,321.534C977.653,320.817 977.677,320.075 977.677,319.3L977.68,318.94C977.684,318.365 977.691,317.713 977.578,317.277L977.623,317.05L977.672,316.931C977.746,316.666 977.715,316.28 977.582,315.784L977.67,314.718L977.689,314.683L977.767,314.299L977.658,314.048L977.582,313.887L977.582,313.451L977.481,313.247L977.535,312.754C977.594,312.468 977.665,312.141 977.578,311.838L977.454,311.61L977.383,311.501L977.547,310.561L977.578,310.459L977.582,309.776C977.653,309.528 977.755,309.305 977.864,309.068C977.964,308.85 978.068,308.625 978.144,308.383C978.265,307.995 978.182,307.621 978.104,307.256C978.04,306.948 977.976,306.656 978.049,306.393C978.12,306.137 978.217,305.761 978.293,305.46L978.333,305.304C978.39,305.076 978.341,304.835 978.286,304.576C978.232,304.313 978.175,304.041 978.239,303.79C978.277,303.648 978.303,303.441 978.333,303.223L978.428,302.66L978.433,301.274L978.514,301.12L978.613,300.918L978.622,299.784L978.615,299.736L978.487,299.499L978.421,299.39C978.324,299.158 978.243,298.492 978.333,298.17L978.4,298C978.499,297.779 978.632,297.476 978.521,297.135L978.324,296.775L978.144,296.434L978.177,296.303L978.239,296.19L978.243,295.789L978.3,295.628C978.402,295.349 978.544,294.965 978.428,294.541C978.343,294.235 978.381,293.925 978.423,293.595C978.466,293.247 978.509,292.887 978.431,292.475C978.357,292.091 978.362,289.746 978.518,289.295C978.807,288.471 979.762,288.407 981.186,288.407L982.366,288.407L982.411,288.402C983.102,288.21 984.356,288.293 985.014,288.495L985.889,288.502L985.952,288.526C986.099,288.58 986.322,288.658 986.566,288.592L986.687,288.535L986.822,288.499L986.917,288.523C987.132,288.58 987.49,288.672 987.793,288.592L987.919,288.547L988.161,288.492L988.288,288.578C988.352,288.613 988.435,288.613 988.665,288.601L988.776,288.597L988.852,288.675L988.89,288.684C989.118,288.755 989.314,288.687 989.456,288.639L989.615,288.597C989.93,288.563 990.217,288.559 990.492,288.554C990.935,288.547 991.356,288.54 991.797,288.407C992.032,288.407 992.273,288.416 992.508,288.424C992.998,288.44 993.508,288.457 994.007,288.407L994.036,288.402L994.439,288.267L994.884,288.118L995.209,288.172L995.32,288.213L995.815,288.22C996.114,288.296 996.554,288.312 996.874,288.312L999.312,288.312C999.627,288.39 1000.88,288.521 1001.31,288.402C1001.53,288.343 1001.88,288.312 1002.4,288.312C1002.78,288.312 1003.36,288.312 1003.69,288.402C1004.07,288.509 1004.62,288.433 1004.83,288.379L1005.46,288.379C1005.91,288.376 1006.38,288.374 1006.51,288.379C1006.74,288.383 1007.31,288.274 1007.6,288.184C1007.77,288.13 1008,288.154 1008.21,288.175C1008.5,288.203 1008.8,288.234 1009.02,288.099L1009.15,288.144L1009.26,288.184L1009.29,288.189L1009.31,288.187L1009.85,288.116L1010.33,288.047L1010.88,288.144C1011.14,288.184 1011.38,288.22 1011.58,288.279C1011.9,288.367 1012.42,288.312 1013.13,288.118C1013.41,288.042 1013.9,288.12 1014.22,288.213C1014.5,288.289 1014.93,288.291 1015.28,288.291L1015.68,288.303C1015.82,288.355 1016.3,288.324 1017.32,288.241L1017.46,288.229L1017.5,288.222C1017.82,288.118 1018.1,288.047 1018.25,288.026L1018.26,288.042L1018.38,288.118L1018.86,288.17L1019.22,288.21L1019.44,288.317L1019.75,288.464L1020.74,288.473C1021.59,288.473 1022.38,288.473 1023.09,288.31L1023.23,288.348L1023.35,288.402L1024.03,288.407L1024.11,288.483L1024.14,288.495C1024.39,288.57 1024.58,288.509 1024.74,288.459L1024.95,288.407C1025.66,288.383 1026.13,288.386 1026.56,288.497C1026.91,288.585 1027.23,288.492 1027.47,288.424L1027.52,288.407L1027.65,288.412L1027.95,288.405L1028.13,288.315L1028.29,288.319L1028.72,288.308L1028.9,288.21L1029.41,288.345L1029.58,288.402L1031.38,288.407L1031.52,288.502L1031.57,288.502L1032,288.435L1032.35,288.379L1032.57,288.459L1032.85,288.561C1033.1,288.63 1033.38,288.57 1033.63,288.514L1033.95,288.462L1034.03,288.547L1034.07,288.559C1034.39,288.656 1034.64,288.568 1034.86,288.49L1035.31,288.419C1035.53,288.469 1035.9,288.575 1036.15,288.653C1036.73,288.833 1037.61,288.587 1037.94,288.495C1038.21,288.421 1038.66,288.521 1038.89,288.589C1039.12,288.661 1039.33,288.58 1039.46,288.526L1039.54,288.497L1040.03,288.608L1040.21,288.684L1040.26,288.691L1040.61,288.67L1041.14,288.68L1041.17,288.687L1041.75,288.682L1042.21,289.521C1042.4,289.807 1042.42,290.264 1042.42,290.707L1042.42,291.229L1042.42,291.269C1042.54,291.695 1042.54,292.363 1042.42,292.792C1042.35,293.048 1042.44,293.344 1042.5,293.522L1042.52,293.586C1042.59,293.854 1042.47,294.228 1042.38,294.503L1042.33,294.685C1042.25,294.967 1042.19,295.282 1042.25,295.491L1042.27,295.59L1042.33,296.242C1042.23,296.607 1042.25,296.976 1042.21,297.353C1042.16,297.725 1042.04,298.101 1042.04,298.554L1042.04,299.073L1042.05,299.118L1042.06,299.357L1042.14,299.525L1042.13,299.698L1042.14,300.03L1042.23,300.224L1042.23,300.622C1042.23,300.961 1042.23,301.283 1042.23,301.347L1042.25,301.52C1042.3,301.793 1042.41,302.413 1042.34,302.731L1042.23,302.916C1042.23,302.946 1042.22,302.984 1042.23,305.173L1042.23,305.311L1042.24,305.543C1042.27,305.889 1042.32,306.611 1042.32,307.059L1042.32,307.767L1042.33,307.812L1042.52,308.791L1042.42,308.966C1042.41,309.021 1042.41,309.191 1042.42,309.743L1042.42,310.203L1042.39,310.281C1042.34,310.411 1042.27,310.61 1042.33,310.835L1042.36,310.937L1042.42,311.416L1042.41,311.47C1042.35,311.691 1042.24,312.103 1042.33,312.442L1042.38,312.598L1042.47,313.032L1042.41,313.228C1042.34,313.432 1042.26,313.683 1042.33,313.951L1042.42,314.14L1042.42,315.332L1042.42,315.372L1042.46,315.477L1042.52,315.903L1042.39,316.168L1042.24,316.519C1042.17,316.744 1042.22,316.912 1042.27,317.059L1042.32,317.315L1042.27,317.54L1042.24,317.651L1042.23,317.696L1042.24,318.13L1042.24,318.715L1042.23,318.734L1042.14,318.876C1042.13,318.912 1042.13,318.921 1042.14,319.694C1042.14,319.987 1042.14,320.347 1042.14,320.442L1042.13,320.449L1042.04,320.589L1042.14,321.257L1042.14,321.845C1042.14,322.193 1042.14,322.622 1042.14,322.714L1042.12,322.766L1042.03,323.034L1042.03,323.24C1042.03,323.603 1042.04,324.354 1042.04,324.858C1042.01,324.989 1041.94,325.351 1042.01,325.713L1042.19,326.059L1042.35,326.538L1042.14,326.915L1041.92,327.284L1041.92,327.308L1041.92,328.139C1041.92,328.921 1041.95,329.573 1042.11,330.21L1042.07,330.615L1042.01,330.971C1041.99,331.857 1041.82,333.046 1041.75,333.494L1041.73,333.648C1041.71,333.768 1041.72,334.036 1041.72,334.32L1041.73,334.707C1041.73,335.107 1041.76,335.491 1041.79,335.863C1041.85,336.566 1041.91,337.23 1041.73,337.879C1041.63,338.258 1041.78,338.784 1041.83,338.957C1041.91,339.258 1042.01,340.153 1041.92,340.48L1041.9,340.544C1041.84,340.741 1041.75,341.07 1041.83,341.366L1041.87,341.485L1041.92,341.71L1041.89,341.797C1041.84,341.973 1041.76,342.233 1041.83,342.496L1041.85,342.591L1041.92,343.219L1041.87,343.389C1041.76,343.745 1041.6,344.283 1041.73,344.768L1041.83,345.083C1041.9,345.313 1041.99,345.6 1042.01,345.74L1041.97,345.891L1041.92,346.375C1042.09,346.988 1042.03,348.32 1041.86,348.938C1041.79,349.194 1041.9,349.642 1042.01,350.04L1042.04,350.156C1042.19,350.734 1041.81,351.873 1041.59,352.013L1041.19,352.117L1040.78,352.184C1040.31,352.321 1039.47,352.328 1038.84,352.271L1037.73,352.271L1037.54,352.191L1037.28,352.089C1036.93,351.992 1036.56,352.122 1036.29,352.217L1036.13,352.271L1035.99,352.267L1035.61,352.274C1035.55,352.281 1035.43,352.311 1035.21,352.373C1034.78,352.492 1033.89,352.738 1033.59,352.655C1033.31,352.577 1033,352.501 1032.67,352.421C1032.36,352.345 1032.04,352.262 1031.75,352.184L1031.72,352.177L1030.73,352.224L1030.7,352.219C1030.29,352.12 1029.99,352.049 1029.51,352.179L1028.46,352.226L1028.45,352.222L1027.83,352.186L1027.79,352.195L1027.7,352.288C1027.43,352.352 1026.94,352.262 1026.67,352.212L1026.48,352.179C1026.33,352.158 1026.08,352.165 1025.82,352.172L1025.49,352.177L1025.38,352.143C1025.17,352.07 1024.86,351.963 1024.57,352.044L1024.21,352.158L1023.68,352.323C1023.27,352.418 1022.69,352.141 1022.22,351.918C1021.99,351.805 1021.77,351.698 1021.59,351.648L1021.54,351.643L1021.3,351.627L1021.02,351.61L1021.02,351.61C1020.29,351.61 1019.94,351.724 1019.53,351.852L1019.07,351.989L1017.46,351.989C1017.13,351.904 1016.32,351.771 1015.83,351.899L1015.65,351.989L1014.83,351.989L1014.79,351.994L1014.55,352.101L1014.37,352.184C1014.07,352.271 1013.14,352.371 1012.77,352.283L1012.61,352.177L1011.69,352.177C1011.28,352.067 1010.83,352.067 1010.42,352.177L1010.15,352.167ZM976.644,296.628L976.763,296.379L976.817,296.336L977.092,296.457L977.113,296.476L977.142,296.481L977.272,296.649L977.286,296.685L977.234,296.796L977.22,296.817L976.732,296.718L976.715,296.706L976.666,296.654L976.644,296.628Z" style="fill:rgb(230,0,19);fill-rule:nonzero;"/>
                </g>
                <g transform="matrix(4.16667,0,0,4.16667,0,-315.598)">
                    <path d="M1008.03,325.69C1007.71,325.771 1007.05,325.737 1006.61,325.69L1006.37,325.219L1006.37,323.894L1006.14,323.515C1006.05,323.316 1006.07,322.98 1006,322.705C1005.9,322.295 1004.85,322.11 1004,322.2C1003.44,322.169 1003.01,322.411 1002.9,322.684C1002.76,323.013 1002.71,323.529 1002.59,323.894C1002.52,324.124 1002.66,324.359 1002.69,324.463L1002.59,324.745C1002.51,325.01 1002.71,325.23 1002.59,325.406C1002.58,325.659 1002.48,325.74 1002.26,325.785C1002.13,325.856 1001.96,325.657 1001.7,325.737C1001.18,325.898 1000.29,325.832 999.617,325.832C999.164,325.832 998.652,325.839 998.342,325.927C998.096,325.993 997.856,325.868 997.726,325.832L996.781,325.832L996.639,325.737C996.34,325.678 995.999,325.78 995.836,325.832L994.135,325.832L993.755,325.643C993.213,325.47 992.054,325.858 991.675,325.55L991.438,325.311C991.498,324.657 991.91,324.148 992.102,323.61L992.149,323.233L992.431,322.854C992.576,322.622 992.561,322.371 992.67,322.101L993,321.53L993.047,321.058C993.142,320.788 993.4,320.537 993.519,320.255C993.606,320.056 993.533,319.888 993.613,319.639C993.708,319.353 993.9,319.042 993.992,318.744C994.068,318.497 993.995,318.374 994.135,318.223L994.416,317.986C994.945,317.701 995.163,317.839 995.693,317.986L997.349,317.986C997.712,317.886 998.477,317.986 999.095,317.986L999.806,317.986C1000.07,318.066 1001.11,318.197 1001.51,318.08C1001.87,317.971 1002.5,318.192 1003.07,318.08C1003.19,318.057 1003.36,317.919 1003.59,317.986C1003.83,318.059 1004.56,318.272 1004.91,318.175L1005.05,318.08L1005.95,318.08L1006.04,317.986L1006.56,317.986C1006.95,317.872 1007.4,317.507 1007.75,317.419C1007.82,317.021 1007.78,316.751 1007.7,316.427C1007.65,316.225 1007.79,316.071 1007.79,315.813C1007.42,315.477 1006.82,314.742 1006.33,314.584C1006.02,314.482 1005.52,314.629 1005.34,314.678L1003.87,314.678L1003.33,314.541L1002.83,314.584L1002.65,314.451C1002.55,314.434 1000.87,314.657 1000.65,314.524L1000.47,314.396C1000.27,314.2 999.735,314.6 999.335,314.489L999.003,314.396C998.678,314.389 998.001,314.508 997.726,314.584C997.113,314.584 996.056,314.567 995.881,314.584C995.71,314.6 995.556,314.851 995.269,314.773C995.042,314.712 994.876,314.55 994.701,314.441C994.627,314.048 994.904,313.245 994.748,312.74C994.49,311.902 994.492,310.829 994.748,309.999C994.829,309.736 994.701,309.509 994.843,309.338C995.075,308.985 995.435,309.208 995.93,309.101L996.496,309.196L997.16,309.196C997.264,309.229 997.454,309.353 997.679,309.291C998.065,309.184 998.188,309.173 998.577,309.291L999.048,309.291C999.164,309.324 999.344,309.447 999.569,309.386L1000.37,309.196L1001.46,309.196C1001.61,309.158 1001.87,309.033 1002.12,309.101L1002.26,309.196L1003.02,309.149C1003.61,309.272 1004.4,309.364 1005,309.196C1005.42,309.078 1006.07,309.213 1006.47,309.101L1006.99,309.101C1007.31,308.997 1007.66,308.791 1007.94,308.63C1007.97,308.438 1007.91,308.061 1007.98,307.827C1008.11,307.419 1008.51,306.495 1008.12,306.029L1007.75,305.818C1007.4,305.643 1006.54,305.797 1005.86,305.794L1005.1,305.794L1004.81,305.889L1004.53,305.699C1004.26,305.609 1004.1,305.785 1003.87,305.794L1002.06,305.794L1001.74,305.889C1001.64,305.924 1001.43,305.82 1001.22,305.865L1000.93,305.984C1000.66,305.986 1000.56,305.69 1000.18,305.794C999.614,305.953 998.683,305.889 997.961,305.889C997.567,305.889 997.134,305.903 996.876,305.984C996.624,306.062 996.345,305.924 996.212,305.889C995.897,305.889 995.528,305.939 995.269,305.889C995.009,305.839 994.549,305.725 994.466,305.557L994.277,304.896C994.198,304.622 994.243,302.726 994.277,302.579C994.44,301.845 994.144,300.243 994.701,299.888L995.902,299.743C996.087,299.791 996.428,299.987 996.66,299.933C997.584,299.715 998.877,299.725 999.83,299.99C1000.24,299.99 1000.67,299.838 1001.08,299.838C1001.32,299.772 1001.74,299.554 1002.07,299.601C1002.35,299.642 1002.65,299.777 1002.88,299.838L1003.78,299.838C1003.99,299.909 1004.17,300.151 1004.39,300.217C1004.81,300.345 1005.15,300.092 1005.38,300.028C1005.82,299.909 1006.09,300.348 1006.56,300.217C1007.28,300.018 1007.76,299.457 1007.98,298.751C1008.15,298.215 1007.78,297.445 1007.56,297.287L1007.27,297.145L1006.94,296.72C1006.73,296.638 1006.48,296.704 1006.28,296.626C1006.07,296.543 1005.82,296.223 1005.52,296.294C1005.35,296.339 1005.1,296.531 1004.77,296.436L1004.3,296.339L1003.88,296.522L1003.4,296.619C1003.1,296.713 1002.41,296.607 1002.17,296.548C1001.93,296.495 1001.11,296.642 1000.94,296.692C1000.59,296.789 999.939,296.422 999.707,296.351L999.235,296.446C998.937,296.446 998.821,296.495 998.522,296.495C998.375,296.536 997.984,296.685 997.717,296.59L997.155,296.379C996.939,296.311 996.743,296.443 996.636,296.474L996.025,296.626C995.914,296.659 995.691,296.787 995.459,296.72C995.172,296.635 994.923,296.436 994.701,296.294C994.599,295.761 994.627,293.923 994.371,293.648C994.26,293.307 993.976,293.33 993.613,293.221C992.5,292.887 991.844,293.034 990.967,293.461C990.827,294.06 990.68,294.842 990.872,295.538C990.946,295.789 990.877,296.268 990.777,296.389L990.496,296.626C989.984,296.607 989.74,296.429 989.124,296.436L988.792,296.766L988.463,296.626C988.164,296.529 987.683,296.668 987.518,296.72L986.48,296.72L986.335,296.815C986.108,296.858 985.532,296.6 985.153,296.72L984.777,296.91L984.21,296.801C983.867,296.927 983.298,296.991 983.282,297.249C983.265,297.512 983.225,298.943 983.312,299.225L983.691,299.807C984.13,299.905 984.698,299.618 985.153,299.743L985.298,299.838C985.658,299.824 986.02,299.805 986.385,299.793L986.712,299.838C987.375,299.668 987.816,299.762 988.368,299.933C988.847,300.085 989.671,299.739 989.974,299.838C990.33,299.954 990.543,300.277 990.827,300.454L990.872,300.594L990.872,302.297L991.299,302.39C991.493,302.458 991.661,302.598 991.725,302.816L991.77,302.911L991.583,303.193C991.386,303.337 991.074,303.397 990.967,303.619C990.86,303.84 990.953,304.043 990.872,304.33L990.685,304.802L990.685,305.273L990.448,305.605C989.908,305.718 989.055,305.74 988.368,305.699C988.169,305.688 988.046,305.541 987.802,305.605L987.66,305.699L987.139,305.699L987.046,305.794C986.688,305.903 986.087,305.759 985.864,305.699L985.438,305.794L984.587,305.794C984.333,305.875 983.886,305.842 983.687,305.972L983.421,306.36C983.246,306.5 983.064,307.358 983.218,307.827L983.407,308.156L983.407,308.741L983.597,309.026C984.073,309.13 984.708,309.151 985.153,309.291C985.454,309.274 985.753,309.26 986.053,309.244C986.335,309.305 986.442,309.26 986.667,309.196L987.989,309.196L988.415,309.101C988.908,309.097 990.479,308.99 990.732,309.196C991.026,309.421 990.905,310.419 990.905,310.992C990.905,312.39 991.045,312.563 990.976,314.271L990.491,314.806L989.899,314.88L989.455,314.773L988.652,314.773L988.51,314.678L987.849,314.678C987.072,314.463 985.727,314.567 985.058,314.773L984.682,314.773C984.272,314.776 983.876,314.887 983.658,315.074L983.312,315.671L983.312,316.19C983.274,316.318 983.147,316.56 983.218,316.806C983.322,317.183 983.386,317.472 983.545,317.796L983.926,317.986L984.777,317.986C985.568,318.232 987.319,318.083 988.321,318.08C989.103,318.08 989.875,317.803 990.543,318.175C990.668,318.872 990.28,318.815 990.116,319.263L990.022,319.831C989.887,320.172 989.579,320.523 989.455,320.869C989.375,321.092 989.444,321.246 989.361,321.435C989.202,321.802 988.937,322.278 988.792,322.665C988.704,322.904 988.785,323.172 988.697,323.42C988.624,323.636 988.397,323.871 988.321,324.081L988.321,324.368C988.254,324.584 988.115,324.847 988.036,325.027L987.83,325.311L987.738,325.69C987.506,325.716 987.243,325.818 986.951,325.737L986.575,325.643C986.338,325.709 985.968,325.858 985.722,325.927L984.871,325.927C984.739,325.962 984.627,326.019 984.4,326.022L983.312,326.022C983.004,325.934 982.737,325.688 982.365,325.974L982.13,326.116C982.059,326.467 981.998,328.135 982.13,328.289C982.289,328.782 982.587,328.531 983.028,328.668L983.312,328.905L983.642,329L983.739,329.139L984.445,329.139C984.954,329.139 985.859,328.933 986.129,329.154L986.319,329.343C986.262,330.056 985.949,330.897 985.674,331.423L985.39,331.895L985.39,332.274L985.295,332.371L985.153,332.937L984.824,333.316C984.675,333.544 984.739,333.776 984.634,334.07L984.35,334.638L984.35,335.017L984.066,335.678L983.973,336.15L983.739,336.844L983.218,337.192L983.075,337.569L982.933,337.979L982.933,338.168C982.848,338.391 982.635,338.587 982.554,338.829C982.474,339.076 982.547,339.234 982.459,339.49C982.365,339.779 982.114,340.587 982.27,341.096L982.459,341.475C982.602,341.935 982.208,342.286 982.365,342.797C982.422,342.973 982.618,343.352 982.554,343.603C982.512,343.773 982.358,344.245 982.459,344.546L982.651,344.785L982.459,345.207L982.459,346.249L982.365,346.389C982.258,346.794 982.72,347.239 982.746,347.571L982.651,347.903L982.651,348.14C982.535,348.507 982.365,348.91 982.365,349.414C982.777,349.372 982.95,348.516 983.123,348.185C983.293,347.863 983.571,347.571 983.739,347.242C983.836,347.045 983.912,346.47 983.973,346.249L983.973,345.918C984.082,345.55 984.236,345.041 984.35,344.641L984.35,343.271L984.729,342.845C984.777,342.627 984.824,342.404 984.871,342.184C984.961,341.98 985.163,341.798 985.248,341.568L985.343,341.051C985.466,340.81 985.746,340.592 985.864,340.341L985.864,340.199L986.148,339.677L986.148,339.395L986.43,338.732C986.504,338.509 986.38,338.251 986.48,338.073L986.667,337.929L987.046,337.315C987.146,337.088 987.103,336.912 987.188,336.654L987.378,336.275L987.378,335.806L987.66,335.38C987.764,335.155 987.773,334.965 987.894,334.764L988.134,334.385L988.134,334.103L988.415,333.631L988.415,333.347C988.489,333.127 988.629,332.781 988.7,332.544L988.7,332.072C988.823,331.66 989.23,331.362 989.363,330.985C989.46,330.703 989.349,330.386 989.455,330.132C989.607,329.779 989.891,329.483 990.069,329.156C990.976,328.969 992,329.045 993.047,329.045C993.689,329.045 994.492,329.004 994.985,329.139C995.383,329.248 996.279,329.118 996.544,329.045C997.013,328.914 997.728,329.061 998.01,329.139L998.671,329.139L998.813,329.234C999.164,329.329 999.42,329.128 999.806,329.139C1000.09,329.149 1000.47,329.265 1000.7,329.329C1001.02,329.414 1001.74,329.109 1001.98,329.139L1002.45,329.376C1002.5,329.564 1002.67,329.784 1002.59,330.037L1002.5,330.132L1002.5,330.793L1002.4,331.125L1002.5,331.267L1002.5,332.733C1002.6,333.086 1002.6,333.323 1002.5,333.676C1002.42,333.946 1002.56,334.243 1002.59,334.385L1002.5,334.669L1002.5,335.332L1002.4,335.427C1002.26,335.882 1002.5,336.278 1002.5,336.702C1002.5,337.863 1002.31,338.692 1002.59,339.677C1002.68,339.983 1002.47,341.191 1002.4,341.428C1002.33,341.715 1002.46,342.072 1002.5,342.231C1002.59,342.551 1002.49,343.049 1002.55,343.319L1002.5,343.743C1002.49,344.269 1002.5,344.596 1002.5,345.257L1001.98,345.823L1001.7,346.012C1001.44,346.026 1001.19,346.043 1000.94,346.06L1000.51,345.965L999.475,345.965L999.143,345.87L998.719,345.965L998.01,345.965C997.563,346.091 997.008,346.192 996.572,346.06C996.219,345.951 995.776,346.164 995.535,345.967C995.234,345.96 994.374,345.865 994.26,346.06L994.26,346.249C994.023,346.896 994.464,348.237 994.044,348.668C994.049,349.246 995.198,349.786 995.982,349.566C996.099,349.538 996.279,349.412 996.504,349.474L997.778,349.661C998.233,349.54 998.413,349.284 999.055,349.284C1001.23,349.279 1003.93,349.618 1005.34,348.659L1005.52,348.422C1006.01,347.938 1005.98,347.794 1006.19,347.052L1006.19,346.294C1006.25,346.091 1006.37,345.598 1006.28,345.257L1006.19,345.112L1006.28,344.972L1006.37,343.837C1006.31,343.643 1006.02,343.435 1006.09,343.129C1006.18,342.719 1006.39,342.144 1006.28,341.523C1006.25,341.35 1006.1,341.009 1006.19,340.72C1006.27,340.45 1006.51,339.919 1006.37,339.49C1006.31,339.296 1006.09,338.964 1006.19,338.64C1006.35,338.099 1006.28,337.469 1006.28,336.749L1006.28,335.899L1006.09,335.472C1006.01,335.181 1006.23,335.02 1006.28,334.859L1006.28,332.684L1006.52,332.117C1006.59,331.843 1006.43,331.523 1006.37,331.362L1006.37,329.471L1006.52,329.284L1006.89,329.139L1007.84,329.139L1007.98,329.045L1008.5,329.045C1008.82,328.943 1009.21,328.891 1009.48,328.732C1009.52,328.533 1009.43,328.014 1009.5,327.77C1009.71,327.003 1009.95,326.477 1009.5,325.737C1009.01,325.721 1008.52,325.707 1008.03,325.69M991.488,300.831C991.244,300.81 991.256,300.736 991.111,300.644C991.147,300.405 991.266,300.397 991.393,300.265L991.675,300.454C991.654,300.693 991.581,300.684 991.488,300.831" style="fill:rgb(230,0,19);fill-rule:nonzero;"/>
                </g>
                <g transform="matrix(4.16667,0,0,4.16667,0,-306.38)">
                    <path d="M1013.22,296.614C1013.57,296.713 1014.15,296.498 1014.65,296.493C1015.01,296.491 1015.36,296.266 1015.78,296.398C1016.03,296.479 1016.97,296.808 1017.39,296.683C1018.1,296.462 1018.85,296.493 1019.7,296.493C1020.19,296.493 1020.67,296.422 1020.93,296.493C1021.41,296.621 1022.07,296.299 1022.39,296.398C1022.6,296.46 1022.94,296.614 1023.15,296.683C1023.43,296.768 1023.85,296.588 1023.95,296.588C1024.1,296.588 1024.39,296.758 1024.66,296.683C1025.24,296.522 1026.16,296.379 1026.84,296.588C1027.34,296.74 1027.98,296.493 1028.45,296.493C1028.67,296.493 1028.8,296.55 1028.92,296.588L1030.95,296.588C1031.73,296.37 1032.04,296.327 1032.7,296.683L1032.98,296.822C1033.18,297.102 1033.41,297.512 1033.5,297.862C1033.6,298.225 1033.47,298.765 1033.41,298.997C1033.3,299.436 1033.41,300.407 1033.45,300.793C1033.48,301.049 1033.41,301.627 1033.41,301.975C1033.41,302.582 1033.5,302.949 1033.5,303.581L1033.5,304.053L1033.41,304.198L1033.41,305.662C1033.36,305.837 1033.23,306.254 1033.31,306.56C1033.36,306.737 1033.49,307.152 1033.41,307.457C1033.36,307.635 1033.23,308.047 1033.31,308.355L1033.41,308.497L1033.31,308.829L1033.31,310.338C1033.44,310.817 1033.5,311.753 1033.37,312.229L1033.37,313.458C1033.15,314.28 1033.07,315.524 1033.18,316.578C1033.2,316.825 1033.31,317.289 1033.37,317.524C1033.42,317.756 1033.31,317.957 1033.27,318.09C1033.17,318.486 1033.35,318.884 1033.37,319.177C1033.41,319.881 1033.16,320.433 1033.27,321.068C1033.37,321.615 1033.42,322.553 1033.27,323.098C1033.2,323.368 1033.28,323.781 1033.23,323.999L1033.27,324.565C1033.34,325.254 1033.33,326.249 1033.18,326.787C1033.05,327.266 1033.15,328.05 1033.22,328.393C1033.32,328.981 1033.3,329.94 1033.18,330.376C1033.06,330.803 1033.19,331.836 1033.27,332.127C1033.38,332.516 1033.15,332.864 1033.08,333.12C1032.95,333.62 1033.18,334.162 1033.27,334.489L1033.27,335.576L1033.37,335.716C1033.37,336.616 1033.34,337.514 1033.34,338.412C1033.26,338.723 1033.12,339.476 1033.24,339.926C1033.43,340.653 1033.65,342.561 1033.26,343.139C1033.07,343.425 1032.54,343.648 1032.18,343.752L1031.28,343.752C1030.6,343.928 1030.89,343.615 1030.48,343.468C1030.06,343.319 1029.73,343.636 1029.44,343.657C1029.22,343.643 1029,343.627 1028.78,343.61C1028.4,343.7 1027.77,343.686 1027.31,343.657C1027.11,343.646 1026.99,343.501 1026.74,343.563L1026.6,343.657C1026.04,343.814 1025.35,343.515 1024.95,343.8L1024.76,343.894C1024.69,344.226 1024.82,344.792 1024.71,345.171L1024.52,345.501C1024.45,345.726 1024.6,345.901 1024.62,346.022L1024.52,346.448C1024.42,346.808 1024.61,347.041 1024.71,347.202C1025.33,347.32 1026.18,347.249 1026.89,347.251C1027.4,347.251 1027.62,347.372 1028.07,347.251L1028.82,347.251L1029.44,347.06L1030.9,347.06L1031.28,347.251C1031.63,347.36 1032.25,347.221 1032.46,347.154L1034.26,347.154L1034.4,347.06C1034.84,346.943 1035.26,347.32 1035.77,347.154L1036.34,346.825L1036.62,346.399L1036.62,345.266L1036.81,344.792C1036.92,344.406 1036.72,343.987 1036.72,343.563C1036.72,343.205 1036.75,342.85 1036.81,342.617L1036.81,341.059L1036.9,340.729C1037.03,340.317 1036.88,339.263 1036.81,338.978C1036.75,338.739 1036.95,338.36 1037,338.173C1037.1,337.822 1036.87,337.206 1036.9,337.041L1037,336.569L1036.72,336.05L1036.72,334.963C1036.52,334.262 1036.7,333.548 1036.81,332.93C1036.9,332.411 1036.82,331.601 1036.72,331.229C1036.6,330.81 1036.78,329.834 1036.86,329.481C1036.91,329.234 1036.77,328.389 1036.72,328.204L1036.72,326.645L1036.62,326.221L1036.67,325.887L1036.62,325.273L1036.75,324.47L1036.75,323.338L1036.65,323.053L1036.75,322.959C1036.88,322.546 1036.86,322.053 1036.84,321.539C1036.83,321.288 1036.65,321.051 1036.75,320.736L1036.94,320.405L1036.94,318.469L1037.12,318.043C1037.2,317.754 1036.99,317.604 1036.94,317.429L1036.94,316.815C1036.94,316.522 1037.17,316.363 1037.08,316.06C1037.02,315.88 1036.87,315.671 1036.84,315.446C1036.79,314.946 1036.92,314.382 1037.03,313.98C1037.09,313.755 1036.97,313.574 1036.94,313.458C1036.94,313.221 1037,312.987 1037,312.75L1037,309.443L1036.81,309.111L1036.9,308.64L1036.9,307.694C1036.96,307.481 1037.1,306.953 1037,306.605C1036.96,306.462 1036.83,306.164 1036.9,305.896L1037,305.614L1036.9,305.33C1036.83,305.062 1036.96,304.766 1037,304.622L1037,303.155C1037.02,302.826 1037.03,302.494 1037.05,302.162C1036.99,301.935 1036.8,301.554 1036.9,301.17C1036.94,301.056 1037.06,300.874 1037,300.653C1036.87,300.184 1036.62,299.644 1036.62,299.09C1036.62,298.478 1036.77,297.938 1036.9,297.436L1036.9,296.633L1037,296.209L1036.81,295.782L1036.81,295.169L1036.62,294.934C1036.5,294.603 1036.57,294.306 1036.34,294.081L1036.1,293.989L1035.87,293.705L1035.53,293.61C1035.34,293.525 1035.15,293.345 1034.92,293.278L1034.35,293.278C1034.21,293.243 1033.98,293.117 1033.74,293.183L1032.32,293.373L1031.71,293.089L1031,293.089C1030.79,293.259 1030.46,293.098 1030.15,293.183C1029.53,293.356 1028.81,293.183 1028.02,293.183L1027.41,293.183C1026.22,293.515 1023.85,293.655 1022.49,293.326L1022.11,293.373L1021.55,293.373C1021.21,293.465 1021.08,293.465 1020.74,293.373L1020.03,293.373C1019.32,293.373 1018.13,293.484 1017.72,293.373L1016.92,293.373C1016.47,293.373 1016.24,293.368 1015.83,293.373L1015.4,293.373C1014.99,293.499 1014.44,293.487 1014.03,293.373C1013.59,293.252 1013.08,293.461 1012.8,293.563L1012.19,293.655L1011.52,294.224L1011.48,294.553C1011.24,295.245 1011.25,295.797 1011.57,296.351C1012.08,296.73 1012.76,296.491 1013.22,296.614M1034.16,308.213L1034.31,308.213L1034.4,308.308L1034.4,308.403L1034.31,308.545L1034.02,308.45L1034.16,308.213Z" style="fill:rgb(230,0,19);fill-rule:nonzero;"/>
                </g>
                <g transform="matrix(4.16667,0,0,4.16667,0,-428.604)">
                    <path d="M1014.94,336.533C1015.56,336.493 1016.17,336.779 1016.73,336.618L1016.87,336.524C1017.41,336.521 1017.95,336.519 1018.48,336.514C1018.91,336.396 1019.46,336.294 1019.85,336.415C1020.32,336.412 1020.8,336.41 1021.27,336.405L1021.84,336.687C1022.1,336.753 1022.2,336.545 1022.36,336.495C1022.61,336.419 1022.88,336.557 1023.02,336.585L1023.35,336.49C1023.59,336.426 1023.8,336.55 1023.92,336.583C1024.22,336.675 1024.69,336.535 1024.86,336.483L1025.29,336.481C1025.94,336.479 1026.56,336.689 1027.13,336.474C1027.62,336.287 1027.79,335.848 1028.16,335.569L1028.45,335.379L1028.77,334.714C1028.77,334.079 1028.47,333.257 1027.96,333.112C1027.79,332.994 1026.89,333.069 1026.59,333.072C1026.23,333.074 1025.88,333.046 1025.65,332.982C1025.35,332.901 1024.96,333.034 1024.8,333.081C1024.44,333.084 1024.07,333.084 1023.71,333.086L1023.24,333.088L1023.1,333.183L1022.86,333.091C1022.54,333.008 1022.14,333.167 1021.96,333.19L1021.72,333.098C1021.4,333.02 1021.27,333.287 1020.92,333.195L1020.78,333.103C1020.35,333.103 1019.93,333.107 1019.5,333.107C1018.81,332.92 1017.05,332.937 1016.34,333.077C1016.01,333.138 1015.63,332.939 1015.25,332.939L1014.45,333.133C1014.3,333.107 1013.97,332.958 1013.69,333.043C1013.11,333.226 1012.43,333.306 1012.13,333.759C1011.96,334.027 1012.05,334.342 1011.95,334.706C1011.86,335.022 1011.81,335.51 1012,335.794L1012.34,336.026L1012.48,336.405L1013.14,336.732C1013.71,336.893 1014.47,336.564 1014.94,336.533" style="fill:rgb(230,0,19);fill-rule:nonzero;"/>
                </g>
                <g transform="matrix(4.16667,0,0,4.16667,0,-274.379)">
                    <path d="M1026.27,326.526C1026.48,326.462 1026.68,326.225 1026.74,326.005C1026.93,325.742 1026.67,325.273 1026.69,325.062L1026.79,324.917L1026.79,324.209L1026.98,323.927L1026.88,323.453C1026.82,323.207 1026.94,322.97 1026.98,322.837C1027.14,322.25 1026.7,321.856 1026.79,321.328C1026.88,320.764 1026.95,319.859 1026.79,319.295L1026.79,317.782L1026.88,317.405C1026.75,316.938 1026.76,316.123 1026.88,315.656C1027.05,315.076 1026.62,314.683 1026.79,314.098C1026.86,313.854 1027,313.465 1027.07,313.197L1027.07,312.584C1027.07,312.079 1027.07,311.482 1027.17,311.117C1027.26,310.771 1027.16,309.859 1027.07,309.606L1026.88,309.276L1026.98,308.992L1026.98,308.613L1027.17,308.094C1027.25,307.796 1027.04,306.805 1026.93,306.675C1026.73,306.071 1024.76,306.107 1023.86,306.109C1023.62,306.109 1023.47,306.163 1023.34,306.204C1023.08,306.282 1022.77,306.147 1022.63,306.109C1022.36,306.036 1022.25,306.197 1022.02,306.204C1021.57,306.22 1021.25,306.104 1020.93,306.014C1020.71,305.953 1020.53,306.078 1020.41,306.109C1020.08,306.199 1019.61,306.069 1019.42,306.014C1018.88,305.865 1018.54,306.407 1017.95,306.204L1017.72,306.014L1016.96,306.014C1016.78,306.161 1016.34,306.109 1016.01,306.109C1015.33,306.109 1013.91,306.071 1013.65,306.438L1013.51,306.82C1013.36,307.052 1013.02,307.32 1012.93,307.635C1012.93,307.888 1013.09,308.08 1013.09,308.329C1013.09,308.95 1013.1,309.698 1012.99,310.174C1012.92,310.463 1013.21,310.859 1013.09,311.262L1012.99,311.357L1012.99,311.733L1012.89,311.828C1012.78,312.19 1013.08,312.366 1012.99,312.679C1012.93,312.889 1012.89,313.001 1012.89,313.339C1012.9,313.685 1013.1,313.932 1012.99,314.285L1012.8,314.664L1012.8,315.607C1012.8,316.476 1012.79,317.32 1012.99,317.973C1013.08,318.272 1012.86,318.893 1012.8,319.106C1012.74,319.324 1012.82,319.715 1012.85,319.859C1012.9,320.12 1012.75,320.371 1012.71,320.525C1012.64,320.752 1012.77,320.982 1012.8,321.089L1012.8,322.416L1012.89,322.555L1012.89,323.69C1012.84,323.892 1012.59,324.207 1012.71,324.541L1013.09,325.062L1013.09,325.439C1013.2,325.775 1013.52,326.092 1013.7,326.384C1014.14,326.474 1014.43,326.538 1014.83,326.431C1015.06,326.37 1015.38,326.497 1015.54,326.384L1015.97,325.865C1016.18,325.552 1015.89,324.55 1016.01,324.114C1016.13,323.721 1016.44,323.202 1016.82,323.077L1016.82,323.027L1018.57,323.027L1018.85,322.273C1019.61,321.973 1019.41,322.629 1019.8,322.887C1019.99,323.01 1020.43,323.065 1020.64,323.122C1021.04,323.228 1021.34,323.001 1021.59,322.932L1022.59,322.932L1022.96,322.837L1023.34,323.027C1023.63,323.252 1023.46,323.927 1023.58,324.351L1023.77,324.872L1023.77,325.107L1024.05,325.533L1024.19,326.005C1024.33,326.194 1024.62,326.137 1024.85,326.242C1025.12,326.36 1025.84,326.915 1026.27,326.526M1025.47,312.205L1025.89,312.349C1025.85,312.591 1025.74,312.548 1025.61,312.679L1025.23,312.584C1025.25,312.321 1025.34,312.342 1025.47,312.205M1016.91,322.742L1016.82,322.792L1016.58,322.51L1016.53,322.461L1016.72,322.224L1016.91,322.224L1017.1,322.416L1016.91,322.742ZM1023.2,319.483L1022.73,319.909L1021.54,319.767L1021.36,319.577C1021.03,319.471 1020.87,319.788 1020.6,319.719L1020.5,319.625L1019.84,319.672L1019.23,319.625L1018.9,319.719L1018.43,319.53L1016.87,319.53L1016.72,319.438L1016.35,319.39C1016.15,319.281 1015.81,318.445 1015.92,318.018C1015.97,317.836 1016.16,317.493 1016.11,317.263L1015.92,316.694L1015.92,314.756C1015.8,314.358 1015.95,313.702 1015.83,313.292L1015.54,312.821L1015.64,312.536L1015.64,311.733L1015.83,311.214L1015.83,310.88C1015.95,310.518 1016.25,310.167 1016.44,309.843C1017.3,309.632 1018.04,309.606 1019.09,309.606L1020.32,309.606C1020.55,309.682 1021.38,309.914 1021.73,309.795L1022.21,309.511C1022.44,309.421 1022.65,309.464 1022.82,309.321C1023.22,309.35 1023.41,309.544 1023.67,309.7C1023.8,310.001 1023.65,310.447 1023.77,310.788C1023.83,310.968 1024.07,311.179 1023.95,311.544C1023.91,311.676 1023.77,312.039 1023.86,312.299C1023.93,312.496 1024.08,312.579 1024.1,312.868L1023.67,313.245L1023.67,314.19C1023.72,314.365 1023.87,314.68 1023.81,314.946C1023.77,315.131 1023.69,315.638 1023.77,315.893C1024.21,317.334 1024.09,318.594 1023.2,319.483M1024.14,321.184L1023.91,321.136L1023.95,320.902L1024.14,320.902L1024.19,320.949L1024.14,321.184Z" style="fill:rgb(230,0,19);fill-rule:nonzero;"/>
                </g>
                <g transform="matrix(4.16667,0,0,4.16667,0,-185.533)">
                    <path d="M995.74,308.321L996.261,308.321L996.591,308.134L996.78,308.134C997.06,308.018 997.77,307.129 997.915,306.857L998.057,306.291L998.247,306.054C998.322,305.838 998.398,304.609 998.292,304.4L998.01,304.116C997.789,303.808 997.481,303.353 997.112,303.218C996.865,303.126 996.614,303.199 996.356,303.123C995.982,303.012 995.745,302.924 995.174,302.934L994.558,303.076C994.079,303.251 993.504,303.436 993.234,303.829C993.03,304.13 992.871,304.502 992.762,304.872C992.677,305.163 992.76,305.345 992.67,305.627C992.632,305.734 992.504,305.964 992.575,306.196L992.762,306.715L992.762,307.044C992.85,307.3 993.139,307.414 993.283,307.613C993.563,308.001 993.719,308.25 994.229,308.416C994.582,308.532 995.517,308.387 995.74,308.321" style="fill:rgb(230,0,19);fill-rule:nonzero;"/>
                </g>
            </g>
        </g>
    </g>
</svg>
