<?xml version="1.0" encoding="UTF-8" standalone="no"?>
<svg xmlns:dc="http://purl.org/dc/elements/1.1/" xmlns:cc="http://creativecommons.org/ns#" xmlns:rdf="http://www.w3.org/1999/02/22-rdf-syntax-ns#" xmlns:svg="http://www.w3.org/2000/svg" xmlns="http://www.w3.org/2000/svg" xmlns:sodipodi="http://sodipodi.sourceforge.net/DTD/sodipodi-0.dtd" xmlns:inkscape="http://www.inkscape.org/namespaces/inkscape" width="242" height="49" version="1.1" id="svg12" sodipodi:docname="LambWeston.svg" inkscape:version="0.92.5 (2060ec1f9f, 2020-04-08)">
  <metadata id="metadata18">
    <rdf:RDF>
      <cc:Work rdf:about="">
        <dc:format>image/svg+xml</dc:format>
        <dc:type rdf:resource="http://purl.org/dc/dcmitype/StillImage"/>
        <dc:title/>
      </cc:Work>
    </rdf:RDF>
  </metadata>
  <defs id="defs16"/>
  <sodipodi:namedview pagecolor="#ffffff" bordercolor="#666666" borderopacity="1" objecttolerance="10" gridtolerance="10" guidetolerance="10" inkscape:pageopacity="0" inkscape:pageshadow="2" inkscape:window-width="3840" inkscape:window-height="2066" id="namedview14" showgrid="false" inkscape:zoom="1.6198347" inkscape:cx="121" inkscape:cy="24.5" inkscape:window-x="-11" inkscape:window-y="-11" inkscape:window-maximized="1" inkscape:current-layer="svg12"/>
  <path fill-rule="evenodd" clip-rule="evenodd" d="M38.919 44.068c-.725-.253-1.353-.472-1.353-1.084 0-.52.417-.882 1.013-.882.497 0 .728.148.934.277.147.095.287.183.483.183.289 0 .516-.228.516-.52 0-.574-.984-.96-1.903-.96-1.349 0-2.255 1.014-2.255 1.963 0 1.353 1.065 1.717 2.004 2.036.76.26 1.417.484 1.417 1.171 0 .78-.555 1.325-1.346 1.325-.543 0-.908-.212-1.175-.367-.178-.103-.32-.185-.466-.185-.302 0-.505.234-.505.58 0 .646 1.239.991 2.134.991 1.688 0 2.57-1.198 2.57-2.384 0-1.422-1.145-1.822-2.068-2.144zM45.556 42.222c.349 0 .566-.207.566-.54 0-.333-.218-.54-.566-.54h-2.56c-.375 0-.607.233-.607.61v6.174c0 .377.232.61.606.61h2.56c.35 0 .567-.207.567-.54 0-.333-.218-.54-.566-.54H43.54v-2.078h1.822c.349 0 .566-.206.566-.539 0-.334-.218-.54-.566-.54h-1.822v-2.077h2.015zM50.912 42.222c.349 0 .566-.207.566-.54 0-.333-.217-.54-.566-.54h-2.56c-.375 0-.607.233-.607.61v6.174c0 .377.232.61.606.61h2.56c.35 0 .567-.207.567-.54 0-.333-.217-.54-.566-.54h-2.015v-2.078h1.822c.349 0 .566-.206.566-.539 0-.334-.217-.54-.566-.54h-1.822v-2.077h2.015zM53.677 41.082c-.345 0-.576.242-.576.6v6.314c0 .358.23.6.576.6.345 0 .576-.241.576-.6v-6.314c0-.358-.231-.6-.576-.6zM61.298 41.082c-.344 0-.575.242-.575.6v4.788l-3.425-4.87c-.253-.366-.41-.518-.736-.518-.354 0-.535.219-.535.65v6.264c0 .358.232.6.577.6.344 0 .575-.241.575-.6v-4.789l3.424 4.872c.252.365.41.518.736.518.355 0 .536-.22.536-.651v-6.264c0-.358-.232-.6-.577-.6zM69.095 44.188h-1.498c-.348 0-.566.207-.566.54 0 .334.218.541.566.541h1.125v.29c0 .78-.528 2.018-1.944 2.018-1.614 0-2.188-1.475-2.188-2.738 0-1.363.664-2.737 2.147-2.737.775 0 1.186.294 1.517.53.205.145.382.272.588.272a.541.541 0 0 0 .556-.55c0-.5-1.117-1.272-2.601-1.272-2.362 0-3.42 1.887-3.42 3.757 0 1.81 1.03 3.757 3.289 3.757 2.099 0 3.207-1.23 3.207-3.556 0-.597-.232-.852-.778-.852zM78.341 43.516c0 .773-.566 1.334-1.347 1.334H75.81v-2.688h1.145c1.023 0 1.387.7 1.387 1.354zm-1.316-2.374h-1.761c-.374 0-.607.233-.607.61v6.244c0 .359.232.6.576.6.345 0 .576-.241.576-.6V45.87h1.246c1.367 0 2.438-1.034 2.438-2.354 0-1.398-1.015-2.374-2.468-2.374zM83.838 47.577c-1.53 0-2.074-1.415-2.074-2.738s.544-2.737 2.074-2.737c1.531 0 2.076 1.414 2.076 2.737 0 1.323-.545 2.738-2.076 2.738zm0-6.495c-2.158 0-3.287 1.891-3.287 3.757 0 1.867 1.129 3.758 3.287 3.758 2.159 0 3.288-1.891 3.288-3.758 0-1.866-1.129-3.757-3.288-3.757zM90.892 44.068c-.726-.253-1.354-.472-1.354-1.084 0-.52.417-.882 1.013-.882.496 0 .73.148.934.277.148.095.288.183.484.183a.512.512 0 0 0 .515-.52c0-.574-.983-.96-1.903-.96-1.349 0-2.255 1.014-2.255 1.963 0 1.353 1.065 1.717 2.004 2.036.761.26 1.418.484 1.418 1.171 0 .78-.554 1.325-1.348 1.325-.542 0-.907-.212-1.174-.367-.178-.103-.32-.185-.466-.185-.302 0-.505.234-.505.58 0 .646 1.24.991 2.135.991 1.687 0 2.57-1.198 2.57-2.384 0-1.422-1.147-1.822-2.068-2.144zM96.623 44.068c-.726-.253-1.353-.472-1.353-1.084 0-.52.416-.882 1.012-.882.496 0 .73.148.935.277.146.095.286.183.482.183.29 0 .515-.228.515-.52 0-.574-.982-.96-1.9-.96-1.35 0-2.256 1.014-2.256 1.963 0 1.353 1.063 1.717 2.002 2.036.761.26 1.418.484 1.418 1.171 0 .78-.554 1.325-1.347 1.325-.543 0-.907-.212-1.174-.367-.179-.103-.319-.185-.466-.185-.302 0-.505.234-.505.58 0 .646 1.24.991 2.135.991 1.687 0 2.57-1.198 2.57-2.384 0-1.422-1.147-1.822-2.069-2.144zM100.729 41.082c-.346 0-.578.242-.578.6v6.314c0 .358.232.6.578.6.344 0 .575-.241.575-.6v-6.314c0-.358-.231-.6-.575-.6zM104.23 44.159v-1.997h.912c.667 0 1.033.346 1.033.973 0 .622-.418 1.024-1.063 1.024h-.882zm2.501 2.163c0 .703-.566 1.194-1.376 1.194h-1.125V45.14h1.164c.8 0 1.337.475 1.337 1.183zm-.158-1.818c.468-.295.754-.859.754-1.53 0-.888-.726-1.832-2.074-1.832h-1.57c-.374 0-.606.233-.606.61v6.174c0 .377.232.61.606.61h1.711c1.467 0 2.489-.911 2.489-2.214 0-.85-.542-1.575-1.31-1.818zM109.952 41.082c-.345 0-.577.242-.577.6v6.314c0 .358.232.6.577.6s.576-.241.576-.6v-6.314c0-.358-.231-.6-.576-.6zM115.227 47.456h-1.774v-5.774c0-.358-.23-.6-.575-.6s-.576.242-.576.6v6.244c0 .377.232.61.606.61h2.319c.348 0 .565-.207.565-.54 0-.333-.217-.54-.565-.54zM117.677 41.082c-.344 0-.576.242-.576.6v6.314c0 .358.232.6.576.6.345 0 .576-.241.576-.6v-6.314c0-.358-.231-.6-.576-.6zM123.812 41.142h-3.583c-.35 0-.566.206-.566.54 0 .333.216.54.566.54h1.215v5.774c0 .359.232.6.576.6s.576-.241.576-.6v-5.773h1.216c.349 0 .565-.208.565-.541 0-.334-.216-.54-.565-.54zM126.365 41.082c-.346 0-.576.242-.576.6v6.314c0 .358.23.6.576.6.344 0 .575-.241.575-.6v-6.314c0-.358-.231-.6-.575-.6zM131.831 42.222c.349 0 .565-.207.565-.54 0-.333-.216-.54-.565-.54h-2.56c-.375 0-.607.233-.607.61v6.174c0 .377.232.61.607.61h2.56c.349 0 .565-.207.565-.54 0-.333-.216-.54-.565-.54h-2.016v-2.078h1.823c.35 0 .566-.206.566-.539 0-.334-.216-.54-.566-.54h-1.823v-2.077h2.016zM136.281 44.068c-.724-.253-1.352-.472-1.352-1.084 0-.52.416-.882 1.012-.882.497 0 .73.148.935.277.147.095.286.183.483.183a.512.512 0 0 0 .515-.52c0-.574-.984-.96-1.902-.96-1.349 0-2.255 1.014-2.255 1.963 0 1.353 1.064 1.717 2.003 2.036.761.26 1.418.484 1.418 1.171 0 .78-.555 1.325-1.348 1.325-.543 0-.906-.212-1.174-.367-.178-.103-.319-.185-.466-.185-.301 0-.504.234-.504.58 0 .646 1.238.991 2.133.991 1.688 0 2.571-1.198 2.571-2.384 0-1.422-1.147-1.822-2.069-2.144zM143.719 41.082c-.345 0-.576.242-.576.6v6.314c0 .358.231.6.576.6s.576-.241.576-.6v-6.314c0-.358-.231-.6-.576-.6zM151.341 41.082c-.344 0-.577.242-.577.6v4.787l-3.425-4.869c-.251-.366-.409-.518-.735-.518-.355 0-.536.219-.536.65v6.264c0 .358.233.6.577.6s.576-.241.576-.6v-4.79l3.425 4.873c.252.365.41.518.736.518.355 0 .535-.22.535-.651v-6.264c0-.358-.232-.6-.576-.6zM160.769 43.516c0 .773-.567 1.334-1.347 1.334h-1.185v-2.688h1.144c1.023 0 1.388.7 1.388 1.354zm-1.318-2.374h-1.76c-.374 0-.607.233-.607.61v6.244c0 .359.233.6.576.6.345 0 .577-.241.577-.6V45.87h1.245c1.367 0 2.439-1.034 2.439-2.354 0-1.398-1.015-2.374-2.47-2.374zM166.215 47.577c-1.531 0-2.076-1.415-2.076-2.738s.545-2.737 2.076-2.737c1.53 0 2.074 1.414 2.074 2.737 0 1.323-.544 2.738-2.074 2.738zm0-6.495c-2.16 0-3.289 1.891-3.289 3.757 0 1.867 1.129 3.758 3.289 3.758 2.159 0 3.289-1.891 3.289-3.758 0-1.866-1.13-3.757-3.289-3.757zM174.357 41.142h-3.582c-.35 0-.567.206-.567.54 0 .333.217.54.567.54h1.215v5.774c0 .359.232.6.576.6s.576-.241.576-.6v-5.773h1.215c.35 0 .566-.208.566-.541 0-.334-.216-.54-.566-.54zM179.73 45.962h-2.423l1.212-3.371 1.211 3.37zm-.451-4.254c-.148-.415-.404-.626-.76-.626-.36 0-.609.205-.76.625l-2.238 5.907-.018.056c-.056.154-.11.315-.11.427 0 .289.234.5.555.5.269 0 .456-.14.56-.416l.433-1.197h3.156l.435 1.199c.102.275.291.414.559.414.32 0 .555-.211.555-.5 0-.112-.054-.273-.11-.427l-2.257-5.962zM186.265 41.142h-3.583c-.35 0-.567.206-.567.54 0 .333.217.54.567.54h1.215v5.774c0 .359.231.6.576.6.344 0 .576-.241.576-.6v-5.773h1.216c.349 0 .565-.208.565-.541 0-.334-.216-.54-.565-.54zM190.75 47.577c-1.53 0-2.075-1.415-2.075-2.738s.545-2.737 2.075-2.737c1.529 0 2.075 1.414 2.075 2.737 0 1.323-.546 2.738-2.075 2.738zm0-6.495c-2.159 0-3.289 1.891-3.289 3.757 0 1.867 1.13 3.758 3.289 3.758 2.16 0 3.288-1.891 3.288-3.758 0-1.866-1.128-3.757-3.288-3.757zM198.659 42.222c.348 0 .564-.207.564-.54 0-.333-.216-.54-.564-.54h-2.561c-.375 0-.606.233-.606.61v6.174c0 .377.231.61.606.61h2.561c.348 0 .564-.207.564-.54 0-.333-.216-.54-.564-.54h-2.016v-2.078h1.823c.349 0 .566-.206.566-.539 0-.334-.217-.54-.566-.54h-1.823v-2.077h2.016zM203.267 44.048c-.723-.254-1.351-.474-1.351-1.089 0-.521.415-.886 1.011-.886.496 0 .728.149.932.28.149.095.287.183.484.183a.513.513 0 0 0 .514-.522c0-.577-.982-.965-1.9-.965-1.347 0-2.252 1.019-2.252 1.971 0 1.36 1.063 1.724 2.002 2.045.758.262 1.414.486 1.414 1.176 0 .782-.553 1.33-1.344 1.33-.542 0-.906-.213-1.173-.368-.178-.104-.318-.186-.466-.186-.301 0-.504.235-.504.582 0 .65 1.238.995 2.131.995 1.686 0 2.567-1.203 2.567-2.393 0-1.429-1.144-1.83-2.065-2.153" fill="#F06323" id="path2"/>
  <path fill-rule="evenodd" clip-rule="evenodd" d="M178.522 28.147c-2.147 0 0-10.813-2.744-10.813-.955 0-3.284.485-4.416 1.544-1.167 1.097-2.623 3.328-3.936 4.871 1.432-5.346 2.385-8.79.358-8.79-.955 0-2.745.475-3.819 1.069-1.029.586-3.147 1.939-4.816 2.89-.736-2.127-2.353-2.653-3.772-2.653 0-1.188-.6-1.901-1.672-1.901-2.547 0-5.518 3.131-7.019 6.865-1.807 3.186-3.963 5.967-4.912 5.967-1.274 0 .909-7.951 2.787-14.33 1.308.109 2.528.191 3.417.191 3.579 0 4.532-2.733 4.532-4.396 0-1.425-1.43.594-5.963.594h-.914c.468-1.572.846-2.841 1.033-3.564.24-.713 0-1.07-.597-1.07-1.67 0-4.415 1.425-5.009 3.327-.117.386-.252.83-.395 1.307h-2.113c-2.625 0-3.937 1.426-3.937 2.852 0 .95.715.238 2.984.238.547 0 1.281.04 2.119.104a305.24 305.24 0 0 0-1.405 4.885c-.653 2.101-3.039 5.613-5.856 8.413.004-.11.009-.22.009-.333-.118-2.852-.714-11.169-2.384-11.169-1.193 0-4.176 1.664-4.652 2.852-1.552 3.92-7.398 12-11.096 12-.915 0-1.268-.769-1.383-1.93 3.609-.364 7.944-4.341 7.944-8.645 0-2.138-1.193-4.04-4.056-4.04-5.25 0-9.306 6.891-9.306 12.477 0 3.683 2.028 6.058 5.726 6.058 7.517 0 11.931-8.792 13.72-11.644 2.148 9.15-4.653 7.724-4.653 8.911 0 1.308 1.432 2.733 3.342 2.733.072 0 .155-.006.242-.012l-.004.012c3.101 0 7.516-2.733 10.619-7.365-.717 4.632-.477 7.365 2.506 7.365 2.464 0 5.139-2.296 6.899-4.973.611 2.876 2.471 4.973 5.269 4.973 4.838 0 7.977-5.703 8.32-10.44 1.244-.399 2.795-1 3.85-1.56-1.313 7.13-3.341 12-1.193 12 .835 0 2.745-.712 3.82-1.782 1.311-1.306 5.366-7.96 6.084-7.96 1.193 0-1.194 9.742 3.339 9.742 2.984 0 5.847-3.445 5.847-5.346 0-1.545-1.79.476-2.744.476zm-61.803-9.744c2.113 0-.393 5.632-3.656 5.814.6-3.38 2.738-5.814 3.656-5.814zm35.791 10.22c-3.339 0-1.192-7.843 1.076-9.507-.596 2.14.478 3.922 2.386 3.922 0 1.781-1.669 5.584-3.462 5.584zM76.87 14.957c-3.1 0-5.37 2.733-3.818 2.733 2.864 0 1.431 10.219-1.67 10.219-3.58 0 1.789-18.298 3.817-23.17.597-1.426.358-2.02-.835-2.02-1.431 0-3.938 1.07-4.773 2.852-.985 2.617-2.705 7.937-3.683 13.093-.004-.008-.009-.017-.015-.024-.716 3.207-3.938 8.318-5.25 8.318-1.192 0 1.433-10.337-1.192-10.337-1.074 0-2.624 1.306-3.222 1.78-.836.714-2.387 3.091-4.175 6.06.596-3.92 1.193-9.504-.478-9.504-.954 0-2.386.832-3.341 1.426-1.91 1.187-4.534 6.178-6.086 8.079.599-5.703.956-9.149-.357-9.149-1.192 0-3.459 1.308-4.055 2.495-2.268 4.278-5.728 9.505-6.92 9.505-1.194 0 .714-3.802.714-6.059 0-1.189-2.982-3.208-3.577-2.02-1.433 3.09-3.699 8.436-5.966 8.436-2.387 0 1.432-10.1 5.608-10.1 1.67 0 2.743.95 2.743.238 0-2.375-1.79-3.682-4.057-3.682-6.323 0-10.498 7.721-10.498 13.902 0 3.206 1.67 4.988 4.175 4.988 2.625 0 5.25-3.208 6.204-5.346-.834 3.92.595 5.346 2.626 5.346 3.22 0 5.845-3.563 8.47-7.722-.954 6.178-1.432 7.722.118 7.722.956 0 2.507-.357 3.223-1.07 2.148-2.138 5.01-6.177 6.443-8.791-1.552 7.248-2.148 9.86-.596 9.86.834 0 2.862-.356 3.817-1.306 2.147-2.138 3.937-4.752 5.369-7.01-1.074 6.654-.12 8.317 2.147 8.317 2.193 0 5.636-2.494 7.467-6.013.393 4.669 2.44 6.013 4.584 6.013 4.295 0 10.737-4.989 10.737-14.139 0-1.901-.836-3.92-3.698-3.92zm-64.068 11.88c-1.314 0-3.937.12-5.489.12-1.553 0-1.194-1.902-.717-3.802 1.67-7.484 4.416-16.515 5.25-20.911.24-1.188-.12-1.544-1.313-1.544C9.34.7 6.119 2.126 5.76 3.314 3.137 12.463 1.705 20.066.63 27.196c-.477 3.563-.357 5.82 2.744 5.82 2.267 0 11.453-1.78 11.453-3.801 0-1.186-1.073-2.376-2.026-2.376zM111.35 2.484c-1.433 0-4.176 2.02-4.415 3.802-.834 5.345-5.607 19.01-7.039 19.01-.595 0-.835-.476-.835-3.09 0-7.366 2.745-15.564 2.745-16.99 0-.713-.478-.95-1.194-.95-1.908 0-4.294 1.545-4.653 2.733-.715 2.258-.835 3.326-1.432 6.653-.594 2.02-3.936 11.763-5.25 11.763-1.312 0-1.192-4.634-1.192-9.505 0-4.279.595-9.268 1.552-14.139.119-.832-.12-1.188-1.074-1.188-2.15 0-4.773 1.188-5.132 2.732-.477 1.901-.953 5.823-.953 10.337 0 10.456 1.192 19.366 4.652 19.366 2.626 0 5.728-4.633 6.803-8.198 0 7.129 1.55 8.198 3.338 8.198 5.012 0 14.915-20.436 14.915-29.583 0-.595-.238-.951-.836-.951zM180.907 17.844h-.73v.784h.73c.253 0 .442-.118.442-.391 0-.259-.189-.393-.442-.393m.331 1.19l.568 1.113h-.554l-.54-1.064h-.535v1.064h-.471V17.39h1.216c.491 0 .906.258.906.834 0 .433-.232.706-.59.81m-.57-2.337c-1.209 0-2.13.916-2.13 2.12 0 1.205.921 2.121 2.13 2.121 1.209 0 2.131-.916 2.131-2.12 0-1.205-.922-2.121-2.131-2.121m0 4.648c-1.44 0-2.537-1.092-2.537-2.527s1.097-2.528 2.537-2.528c1.441 0 2.537 1.093 2.537 2.527 0 1.436-1.096 2.528-2.537 2.528" fill="#163B64" id="path4"/>
  <path fill-rule="evenodd" clip-rule="evenodd" d="M241.387 30.78c-.019-.108-.035-.374-.05-.565-.054-.56-.09-1.15-.167-1.712-.038-.118-.038-.278-.055-.42a85.694 85.694 0 0 0-.356-1.747 2.894 2.894 0 0 1-.142-.554c-.177-.702-.43-1.268-.705-1.857-.025-.056-.084-.226-.11-.278a2.298 2.298 0 0 0-.142-.216 13.86 13.86 0 0 0-.712-1.153c-.071-.104-.136-.156-.21-.247-.026-.037-.135-.179-.146-.194l-.042-.055c-.05-.062-.069-.098-.12-.194-.167-.134-.199-.17-.3-.261-.13-.081-.221-.202-.346-.292-.195-.135-.408-.284-.608-.41-.035-.021-.069-.05-.102-.07-.04-.022-.211-.121-.265-.148-.1-.05-.16-.083-.249-.128-.078-.039-.129-.059-.207-.1-.04-.018-.069-.05-.104-.068-.104-.059-.205-.102-.309-.15-.021-.01-.033-.037-.058-.049-.184-.094-.382-.114-.625-.182-.949-.273-2.179-.378-3.291-.266-.503.092-1.016.172-1.5.281-.181.07-.53.23-.53.23s-.184.086-.258.129c-.278.104-.524.232-.786.348-.265.117-.506.244-.778.378-.192.138-.384.275-.571.417-.186.14-.348.275-.559.426-.04.037-.352.355-.526.507-.031.052-.23.24-.273.295-.09.133-.201.246-.303.368-.311.369-.572.767-.843 1.165-.382.615-.654 1.33-.915 2.046a8.566 8.566 0 0 0-.443 1.722c-.091.615-.129 1.242-.225 1.863-.014.09-.053.181-.059.27-.021.247.003.493.01.734.004.144-.003.286.011.38-.025.146.039.81.05 1.238.019.21.047.324.085.452.786 0 1.625-.007 2.394.039.775.047 1.497-.023 2.25.02.283.019.599-.012.91-.018.627-.017 1.214-.036 1.798-.032.318.002.649-.058.923-.02.054.007.06-.005.1-.002.96.054 1.811-.065 2.695-.002a1.57 1.57 0 0 1 .196-.004c.232.02.491-.016.731-.005.369.018 1.048-.016 1.464.028.375.04.778-.063 1.17-.016.293.036.661-.001.979.019.729.049 1.588 0 2.284 0 .131-.605-.064-1.263-.06-1.94" fill="#FCB717" id="path6"/>
  <path fill-rule="evenodd" clip-rule="evenodd" d="M222.189 31.765c-.011-.196-.042-.58-.033-.888-.034-.162-.022-.475-.032-.719-.044-.655-.122-1.216-.202-1.843-.14-.434-.197-.903-.321-1.353-.075-.277-.17-.535-.21-.825a7.34 7.34 0 0 1-.266-.878c-.175-.386-.3-.822-.456-1.227-.224-.336-.373-.62-.608-.947-.011-.037-.069-.105-.079-.154-.152-.163-.256-.372-.399-.539-.091-.222-.266-.361-.391-.55-.187-.13-.305-.33-.487-.466a7.065 7.065 0 0 0-1.078-.835c-.174-.143-.383-.256-.587-.37-.357-.173-.635-.336-1.145-.509-.041-.015-.127-.06-.165-.074-.086-.034-.183-.053-.277-.085-.087-.028-.168-.077-.255-.104-.22-.07-.492-.151-.689-.212a3.07 3.07 0 0 0-.499-.107c-.129-.017-.273.002-.421-.02-.144-.021-.352-.006-.523-.033a2.508 2.508 0 0 0-.533-.02c-.506.047-.992.085-1.464.18-.435.13-.894.24-1.3.401-.312.184-.613.384-.92.572-.311.189-.627.348-.921.582a19.824 19.824 0 0 0-1.287 1.576c-.036.049-.134.165-.146.18-.009.014-.045.082-.055.095-.319.479-.64.967-.944 1.449-.087.14-.133.28-.198.434-.186.435-.415.88-.534 1.364-.039.165-.079.334-.122.508-.055.25-.157.513-.22.73-.03.09-.024.184-.046.276-.011.045-.046.091-.055.138-.014.06-.008.117-.023.178-.011.053-.044.1-.055.148-.016.063-.01.125-.023.19-.02.113-.067.225-.089.34-.042.238-.085.483-.121.73-.047.308-.089.569-.089.91 0 .11-.022.215-.022.317.002.145.026.302.032.455.027.613.068 1.172.079 1.8.526.064.995 0 1.565.04l.111.011c.302.02.612.02.897.02.348 0 .714-.018 1.045.01.48.044.981.026 1.488.054.523.03 1.07.018 1.575.022.18.001.372-.025.534 0 .06.01.101 0 .144 0 .017 0 .049.02.067.02.93.018 1.693.014 2.618.074.301.02.609-.033.898.013.275.04.662.03.969.03.081 0 .168.013.254 0 .194.041.479.017.731.023 1.22.02 2.594.048 3.852.008.21-.005.413-.02.611-.008.232-.048.552-.01.82-.023-.014-.379.019-.763 0-1.088z" fill="#F06323" id="path8"/>
  <path fill-rule="evenodd" clip-rule="evenodd" d="M202.302 30.877a9.938 9.938 0 0 1-.047-.561c-.046-.324-.086-.85-.139-1.243-.09-.437-.174-.875-.287-1.288-.048-.346-.166-.62-.236-.947-.128-.328-.257-.655-.372-.998-.162-.342-.331-.678-.489-1.027a2.374 2.374 0 0 1-.249-.45c-.102-.158-.205-.317-.281-.502-.21-.291-.372-.6-.577-.887-.2-.285-.473-.523-.665-.81-.149-.155-.56-.503-.719-.632a6.66 6.66 0 0 0-1.06-.699c-.195-.104-.386-.177-.599-.293a7.069 7.069 0 0 0-.815-.311c-.274-.084-.575-.142-.844-.205-.363-.086-.737-.184-1.1-.232-.081-.01-.166.002-.248-.005-.602-.052-1.238-.107-1.915-.057-.526.1-.983.233-1.45.359-.6.268-1.013.384-1.7.892-.688.508-.67.525-.929.749-.092.078-.31.368-.361.422-.053.058-.146.112-.198.17a9.892 9.892 0 0 0-.578.712c-.104.147-.228.31-.319.45-.051.076-.149.155-.223.253-.25.338-.481.718-.683 1.09-.231.425-.375.805-.425.917-.216.458-.428.945-.529 1.492-.157.437-.223.931-.313 1.425a18.315 18.315 0 0 0-.194 1.623c-.039.418-.056.833-.101 1.25-.042.391-.128.787-.078 1.188 1.911-.047 3.962-.071 5.975-.114.576-.01 1.16-.058 1.728-.035.739.033 1.469-.02 2.187.02.334.017.682-.053 1.014-.012.213.027.47.007.716.007.805 0 1.555.003 2.289.027.021.002.043-.001.067-.001.282.004.522 0 .775.006.139.002.312.015.352.014.171-.015.399.007.592.018.356.023.689-.011 1.048.01.69.045 1.308-.034 1.982.002.036-.593.028-1.136-.002-1.787z" fill="#163B64" id="path10"/>
</svg>