<svg width="500" height="129" viewBox="0 0 500 129" fill="none" xmlns="http://www.w3.org/2000/svg">
<g clip-path="url(#clip0_2_1399)">
<path fill-rule="evenodd" clip-rule="evenodd" d="M0 118.54V4.53649H55.4241V79.8817H123.077V118.54H0ZM315.45 118.54H246.976L195.135 62.0316V118.54H139.711V4.53649H195.135V55.6213L245.201 4.53649H312.689L251.874 58.7771L315.45 118.54ZM499.868 128.139H437.574L423.997 115.615C415.68 119.987 399.869 123.11 384.385 123.11C332.544 123.11 301.742 99.7699 301.742 60.4865C301.775 22.5838 335.667 0 392.899 0C449.474 0 483.07 22.5838 483.07 60.6509C483.07 64.1354 482.774 67.5871 482.117 71.0059C481.46 74.4247 480.473 77.7778 479.158 80.9993C477.844 84.2209 476.2 87.311 474.293 90.2038C472.387 93.1295 470.184 95.8251 467.751 98.3235L499.868 128.139ZM391.749 87.4425C414.727 87.4425 426.792 78.4024 426.792 61.3412C426.792 44.2801 414.924 35.4372 392.242 35.4372C369.592 35.4372 357.857 44.4773 357.857 61.8343C357.857 78.7311 369.592 87.5082 391.749 87.5082V87.4425Z" fill="#085CF0"/>
</g>
<defs>
<clipPath id="clip0_2_1399">
<rect width="500" height="128.205" fill="white"/>
</clipPath>
</defs>
</svg>
