<svg width="153" height="69" viewBox="0 0 153 69" fill="none" xmlns="http://www.w3.org/2000/svg">
<g clip-path="url(#clip0_1_133)">
<path fill-rule="evenodd" clip-rule="evenodd" d="M2.75701 23.6792C2.82484 23.8427 2.86079 24.02 2.86079 24.1973V64.6697C2.86045 65.0289 2.71762 65.3734 2.46364 65.6274C2.1433 65.951 1.71427 66.0532 1.31384 66.0246C0.870924 66.0246 0.406758 66.2436 0.174675 66.6604C-0.058225 67.0788 -0.058225 67.6819 0.174675 68.0994C0.406758 68.5179 0.870924 68.7352 1.31384 68.7352H5.9555C6.39842 68.7352 6.86177 68.517 7.09467 68.0994C7.32676 67.6819 7.32676 67.0788 7.09467 66.6604C6.82827 66.1774 6.26032 65.9805 5.76265 66.0246C5.4039 66.0242 5.05999 65.8813 4.80653 65.6274C4.553 65.3731 4.41025 65.0288 4.40937 64.6697V31.9435L9.63206 68.5432H14.08L19.6893 31.9435V65.6381C19.6889 65.9973 19.5461 66.3417 19.2921 66.5958C18.9718 66.9194 18.5427 67.0216 18.1423 66.993C17.7501 66.993 17.2761 66.9276 17.0236 67.2561C16.7703 67.5846 16.7662 68.1583 17.0432 68.4868C17.321 68.8153 17.8481 68.736 18.2837 68.736H27.4771C27.9119 68.736 28.4406 68.8161 28.7176 68.4868C28.9947 68.1591 28.9906 67.5846 28.7372 67.2561C28.4398 66.8761 27.8588 67.0175 27.4256 66.993C27.0667 66.9921 26.7228 66.849 26.4691 66.5951C26.2155 66.3411 26.0728 65.997 26.0724 65.6381V24.1982C26.0725 23.839 26.215 23.4946 26.4687 23.2404C26.789 22.9168 27.2181 22.8138 27.6193 22.8424C28.0124 22.8424 28.4847 22.9078 28.7381 22.5793C28.9914 22.2508 28.9955 21.6771 28.7184 21.3486C28.4414 21.0201 27.9127 21.101 27.4779 21.0994L22.6434 21.0838C21.5884 21.0806 20.5342 21.025 19.9638 21.5039C19.3943 21.9827 19.3706 22.9773 19.2243 23.9571L14.371 56.4871L9.47516 23.9571C9.32561 22.9634 9.21039 21.9648 8.60566 21.4867C8.00094 21.0078 6.92388 21.0797 5.846 21.0838L1.61457 21.0994C1.13079 21.101 0.542412 21.0062 0.235147 21.3372C-0.0713002 21.6673 -0.0623111 22.2459 0.192653 22.5777C0.492564 22.9601 1.07359 22.8187 1.5067 22.8432C1.86545 22.8437 2.20935 22.9865 2.46282 23.2404C2.58867 23.3654 2.68918 23.5158 2.75701 23.6792ZM37.4551 46.4781V41.6771C37.4551 40.7937 37.576 39.8981 37.9102 39.1152C38.2428 38.3332 38.7487 37.6647 39.2684 37.3819C39.7873 37.0992 40.3193 37.203 40.6348 37.6688C40.9502 38.1346 40.8734 38.9379 40.8734 39.6333V49.8164C40.3112 49.4797 39.7497 49.1422 39.1728 48.9804C38.5959 48.8186 38.0042 48.8455 37.4126 48.8455H35.8934C35.1988 48.8455 34.5025 48.9861 33.8357 49.2738C33.1689 49.5622 32.5307 49.9937 32.0984 50.6189C31.6652 51.2432 31.4372 52.0596 31.2918 52.9307C31.1455 53.8018 31.1243 54.7269 31.1243 55.6479V61.8169C31.1243 62.7362 31.1324 63.6588 31.2444 64.5291C31.3572 65.3994 31.5329 66.2166 31.9602 66.8892C32.3876 67.5617 33.0667 68.0896 33.7948 68.4459C34.523 68.8039 35.2993 69 36.0773 69H38.0295C38.68 69 39.2946 68.6952 39.7751 68.3994C40.2556 68.1044 40.5849 67.6655 40.9142 67.2259C41.2223 67.7775 41.5312 68.3307 41.9464 68.5832C42.3615 68.8374 42.882 68.7475 43.4059 68.7467L47.8914 68.736C48.327 68.7352 48.8549 68.8161 49.1328 68.4868C49.4098 68.1591 49.4057 67.5846 49.1736 67.3027C48.9415 67.0191 48.4806 67.0281 48.0974 66.9668C47.7125 66.9063 47.4036 66.7756 47.2025 66.631C46.8062 66.3327 46.7596 65.9813 46.74 65.6381L46.7588 40.985C46.7604 38.8594 46.4197 36.4013 45.1171 35.1919C43.8145 33.9824 41.8916 34.0494 40.4444 34.4686C38.9971 34.8879 38.0255 35.6609 37.4551 36.6751V35.7868C37.4551 35.5531 37.3488 35.33 37.2083 35.1902C37.0486 35.0337 36.8345 34.945 36.6109 34.9426H33.0659C32.8314 34.9426 32.6091 35.0489 32.4685 35.1902C32.3128 35.35 32.2244 35.5636 32.2218 35.7868V46.4773C32.2218 46.7118 32.328 46.9349 32.4685 47.0755C32.6091 47.2161 32.8314 47.3223 33.0659 47.3223H36.6109C36.8454 47.3223 37.0677 47.2161 37.2083 47.0755C37.3496 46.9358 37.4551 46.7127 37.4551 46.4781ZM37.1968 52.3897C37.1968 52.0056 37.2973 51.6044 37.549 51.3274C37.8007 51.0503 38.1758 50.9 38.5444 50.8893C38.9129 50.8795 39.2741 51.0111 39.6239 51.4385C39.9737 51.8659 40.3128 52.5891 40.5269 53.3769C40.7426 54.1655 40.7868 55.0154 40.7868 55.8595V60.6017C40.7868 61.4459 40.7426 62.2957 40.5269 63.0835C40.312 63.8713 39.9737 64.5953 39.6239 65.0227C39.2741 65.4493 38.9121 65.5817 38.5305 65.5792C38.1489 65.5776 37.7452 65.4427 37.4796 64.9222C37.2156 64.4016 37.1968 63.5035 37.1968 62.6839V52.3897ZM58.2731 65.6381V40.931C58.2731 40.2846 58.3752 39.63 58.6416 39.0605C58.9072 38.4901 59.3101 38.0055 59.6983 37.7767C60.0864 37.5487 60.4591 37.5764 60.6879 37.8992C60.9159 38.222 60.8799 38.8259 60.8799 39.3375V46.4781C60.8799 46.7127 60.9853 46.9358 61.1267 47.0763C61.2673 47.2169 61.4895 47.3231 61.7241 47.3231H65.3116C65.5453 47.3231 65.7676 47.2169 65.9081 47.0763C66.0487 46.9349 66.1549 46.7127 66.1549 46.4781V39.5066C66.1549 38.1003 66.0585 36.528 65.3214 35.6421C64.5843 34.7563 63.4508 34.5773 62.4955 34.5871C61.5402 34.597 60.7631 34.7939 60.0521 35.0963C59.3521 35.39 58.7065 35.7994 58.1423 36.3073C58.1088 35.9592 58.0753 35.6119 57.8465 35.3398C57.6169 35.0685 57.2344 34.6754 56.767 34.6754H51.7511C51.3163 34.6754 50.7876 34.5953 50.513 34.9157C50.2384 35.2352 50.2491 35.7909 50.4705 36.1153C50.692 36.4389 51.1234 36.5312 51.3825 36.6808C51.6415 36.8303 51.7274 37.0387 51.7878 37.2299C51.8483 37.4212 51.8908 37.5969 51.8908 37.7734V65.6381C51.8908 65.8154 51.8548 65.9919 51.7805 66.2011C51.7061 66.4103 51.5942 66.6538 51.2885 66.7977C50.9829 66.9415 50.4852 66.9872 50.2343 67.2929C49.9835 67.5985 49.9794 68.1648 50.2572 68.4901C50.5351 68.8145 51.0622 68.7352 51.4985 68.7352H58.7928C59.2284 68.7352 59.7563 68.8153 60.0366 68.4868C60.3169 68.1599 60.3193 67.5871 60.0333 67.2782C59.7473 66.9701 59.1736 66.9243 58.8451 66.783C58.5174 66.6408 58.4349 66.4021 58.376 66.1954C58.3172 65.9886 58.2731 65.8154 58.2731 65.6381ZM74.4543 66.1602C74.3884 65.994 74.3541 65.8169 74.353 65.6381V3.10638C74.353 2.23117 74.4429 1.35759 74.192 0.84112C74.0684 0.590011 73.8766 0.378752 73.6386 0.231495C73.4006 0.0842373 73.126 0.006924 72.8461 0.00839855H66.5651C66.1296 0.00839855 65.6017 -0.070869 65.3246 0.257643C65.0468 0.585338 65.0517 1.15983 65.305 1.48834C65.6025 1.86833 66.1835 1.72778 66.6174 1.75148C66.9764 1.75234 67.3203 1.89542 67.574 2.14937C67.8276 2.40332 67.9703 2.74745 67.9707 3.10638V65.6381C67.9495 65.9617 67.9266 66.3082 67.509 66.631C67.3072 66.7756 66.9983 66.9063 66.6142 66.9668C66.2293 67.0281 65.7692 67.0191 65.5371 67.3027C65.305 67.5854 65.3001 68.1591 65.578 68.4868C65.8558 68.8153 66.3837 68.736 66.8193 68.736H75.5061C75.9416 68.736 76.4695 68.8161 76.7474 68.486C77.026 68.1575 77.0228 67.583 76.7833 67.3002C76.5439 67.0175 76.0683 67.0289 75.6826 66.9684C75.2977 66.908 75.0043 66.7756 74.8098 66.6301C74.6153 66.4847 74.5189 66.3278 74.4543 66.1602ZM90.1289 37.7538C90.4035 38.0569 90.5138 38.4974 90.5138 38.9183V63.0394C90.5138 63.9375 90.4934 64.9222 90.2041 65.4926C89.914 66.0622 89.4727 66.2109 89.0551 66.2134C88.6376 66.2158 88.2412 66.0712 87.8579 65.6029C87.4747 65.1347 87.1045 64.3412 86.8683 63.4782C86.6338 62.6144 86.5856 61.6828 86.5856 60.7578V42.7215C86.5856 41.7964 86.6338 40.8648 86.8683 40.0011C87.1045 39.1373 87.4747 38.3454 87.8579 37.8755C88.2412 37.4081 88.6367 37.2635 89.0388 37.2749C89.4425 37.2847 89.8527 37.4506 90.1289 37.7538ZM85.2495 68.6118C85.6646 68.4427 85.9964 68.0872 86.3298 67.7325C86.6763 68.0194 87.0228 68.3046 87.5793 68.5162C88.1382 68.7279 88.8958 69 89.6778 69H91.1651C91.9439 69 92.7194 68.8039 93.4345 68.441C94.1479 68.079 94.8008 67.5405 95.3418 66.8745C95.8994 66.1805 96.3281 65.3923 96.6076 64.5471C96.8994 63.6825 97.0481 62.7485 97.0481 61.816V42.1266C97.0498 41.1981 96.901 40.2756 96.6076 39.3947C96.328 38.5498 95.8993 37.7618 95.3418 37.0681C94.8008 36.4021 94.1479 35.8636 93.4345 35.5016C92.7322 35.1402 91.9549 34.9487 91.1651 34.9426H89.6778C88.9007 34.9426 88.1505 35.2409 87.6267 35.4166C87.1045 35.5923 86.8209 35.7958 86.5382 35.9993L86.5905 3.10638C86.5921 2.23117 86.6812 1.35759 86.4295 0.84112C86.3061 0.590015 86.1145 0.378731 85.8766 0.23146C85.6387 0.08419 85.3642 0.00688537 85.0844 0.00839855H78.8034C78.3679 0.00839855 77.8391 -0.070869 77.5613 0.257643C77.2835 0.585338 77.2884 1.15983 77.5425 1.48834C77.8391 1.86833 78.4202 1.72778 78.8541 1.75148C79.0318 1.75151 79.2077 1.7866 79.3717 1.85475C79.5358 1.92291 79.6848 2.02278 79.8102 2.14863C80.0766 2.41422 80.2074 2.7697 80.2074 3.10638V65.6381C80.187 65.9617 80.1624 66.3082 79.7448 66.631C79.5438 66.7756 79.2357 66.9063 78.8508 66.9668C78.4659 67.0281 78.0067 67.0191 77.7738 67.3027C77.5425 67.5854 77.5376 68.1591 77.8155 68.4868C78.0933 68.8153 78.6212 68.7352 79.0559 68.736L83.8382 68.7467C84.3367 68.7475 84.8343 68.781 85.2495 68.6118ZM105.445 68.4533C106.315 68.813 107.248 68.9988 108.19 69H110.006C110.945 69 111.883 68.8129 112.751 68.4533C113.619 68.0937 114.414 67.5609 115.079 66.8965C116.425 65.5486 117.181 63.7217 117.181 61.8169V42.1266C117.181 41.1868 116.993 40.2462 116.635 39.3775C116.093 38.0652 115.174 36.9432 113.994 36.1538C112.814 35.3645 111.426 34.9432 110.006 34.9434H108.19C107.248 34.9443 106.315 35.13 105.445 35.4901C104.575 35.8517 103.784 36.3806 103.117 37.0469C102.451 37.7146 101.923 38.5064 101.561 39.3775C101.202 40.2496 101.017 41.1834 101.016 42.1266V61.8169C101.016 62.7566 101.204 63.6972 101.561 64.5659C101.92 65.4338 102.454 66.2313 103.117 66.8965C103.781 67.5617 104.579 68.0937 105.445 68.4533ZM110.815 37.775C111.19 38.2849 111.062 38.9926 111.062 39.6407V64.2603C111.062 64.9116 111.112 65.6168 110.748 66.121C110.383 66.6252 109.768 66.9072 109.126 66.9014C108.485 66.8957 107.817 66.6024 107.426 66.0981C107.037 65.5931 107.095 64.9001 107.095 64.2603V39.6407C107.095 39.0033 107.004 38.3111 107.386 37.8044C107.769 37.2978 108.438 37.0044 109.106 36.9962C109.773 36.9881 110.439 37.2659 110.815 37.775ZM128.038 65.6381V40.931C128.038 40.2846 128.14 39.63 128.406 39.0605C128.671 38.4901 129.075 38.0055 129.463 37.7767C129.851 37.5487 130.225 37.5764 130.453 37.8992C130.681 38.222 130.644 38.8259 130.644 39.3375V46.4781C130.644 46.7127 130.751 46.9358 130.891 47.0763C131.032 47.2169 131.253 47.3231 131.488 47.3231H135.076C135.311 47.3231 135.533 47.2169 135.673 47.0763C135.813 46.9349 135.919 46.7127 135.919 46.4781V39.5066C135.919 38.1003 135.823 36.528 135.085 35.6421C134.347 34.7563 133.215 34.5773 132.26 34.5871C131.42 34.5899 130.588 34.7631 129.817 35.0963C129.117 35.3906 128.471 35.7999 127.906 36.3073C127.873 35.9592 127.841 35.6119 127.611 35.3398C127.382 35.0685 127 34.6754 126.531 34.6754H121.516C121.08 34.6754 120.551 34.5953 120.277 34.9157C120.004 35.2352 120.014 35.7909 120.235 36.1153C120.456 36.4389 120.888 36.5312 121.146 36.6808C121.405 36.8303 121.491 37.0387 121.552 37.2299C121.612 37.4212 121.654 37.5969 121.654 37.7734V65.6381C121.654 65.8154 121.619 65.9919 121.544 66.2011C121.47 66.4111 121.356 66.6538 121.052 66.7977C120.745 66.9423 120.249 66.9872 119.997 67.2929C119.746 67.5985 119.742 68.1648 120.02 68.4901C120.298 68.8153 120.826 68.7352 121.261 68.7352H128.557C128.991 68.7352 129.519 68.8153 129.8 68.4868C130.081 68.1599 130.082 67.5871 129.796 67.2782C129.509 66.9701 128.936 66.9243 128.607 66.783C128.279 66.6416 128.197 66.4021 128.138 66.1954C128.082 65.9903 128.038 65.8154 128.038 65.6381ZM141.151 68.4533C142.022 68.813 142.954 68.9988 143.896 69H145.711C146.651 69 147.59 68.8129 148.458 68.4533C149.769 67.9082 150.889 66.987 151.678 65.806C152.466 64.6249 152.887 63.2368 152.887 61.8169V42.1266C152.887 41.1868 152.699 40.2462 152.341 39.3775C151.613 37.6185 150.216 36.2204 148.458 35.4901C147.587 35.1302 146.654 34.9445 145.711 34.9434H143.896C142.958 34.9434 142.019 35.1306 141.151 35.4901C140.283 35.8497 139.488 36.3825 138.824 37.0469C137.478 38.3945 136.722 40.2217 136.722 42.1266V61.8169C136.723 63.2367 137.144 64.6245 137.932 65.8054C138.72 66.9864 139.84 67.9077 141.151 68.4533ZM146.52 37.775C146.895 38.2849 146.766 38.9926 146.766 39.6407V64.2603C146.766 64.9116 146.816 65.6168 146.452 66.121C146.087 66.6252 145.473 66.9072 144.832 66.9014C144.19 66.8957 143.523 66.6024 143.132 66.0981C142.741 65.5931 142.8 64.9001 142.8 64.2603V39.6407C142.8 39.0033 142.71 38.3111 143.092 37.8044C143.475 37.2978 144.144 37.0044 144.811 36.9962C145.479 36.9881 146.145 37.2659 146.52 37.775Z" fill="black"/>
</g>
<defs>
<clipPath id="clip0_1_133">
<rect width="153" height="69" fill="white"/>
</clipPath>
</defs>
</svg>
