<svg width="500" height="159" viewBox="0 0 500 159" fill="none" xmlns="http://www.w3.org/2000/svg">
<g clip-path="url(#clip0_2_1412)">
<path d="M88.9707 158.503V132.65H94.6406V158.503L88.9707 158.503ZM123.628 158.503L111.111 142.073V158.511H105.515V132.65H110.744L122.819 148.571V132.65H128.415V158.503L123.628 158.503ZM148.807 137.894V158.503H143.137V137.894H135.294V132.65H156.65V137.894H148.807ZM163.513 158.503V132.65H182.958V137.705H169.118V142.851H181.266V147.907H169.118V153.439H183.113V158.494L163.513 158.503ZM208.17 158.503L202.614 150.235H198.162V158.511H192.492V132.65H204.248C210.327 132.65 213.971 135.862 213.971 141.18V141.254C214.14 144.868 211.879 148.149 208.448 149.268L214.747 158.503H208.17ZM208.284 141.475C208.284 139.017 206.593 137.779 203.832 137.779H198.195V145.203H203.913C206.675 145.203 208.26 143.728 208.26 141.549L208.284 141.475ZM241.438 158.503L228.954 142.065V158.503H223.358V132.65H228.587L240.662 148.571V132.65H246.258V158.503L241.438 158.503ZM274.526 158.503L272.173 152.701H261.25L258.897 158.503H253.113L264.159 132.461H269.387L280.433 158.503H274.526ZM266.699 139.303L263.276 147.686H270.123L266.699 139.303ZM295.294 137.902V158.511H289.624V137.894H281.781V132.65H303.137V137.894L295.294 137.902ZM310.605 158.511V132.65H316.275V158.503L310.605 158.511ZM338.824 158.953C330.882 158.97 325.163 153.004 325.163 145.654V145.58C325.163 138.205 330.948 132.207 338.897 132.207C346.846 132.207 352.557 138.156 352.557 145.506V145.58C352.565 152.931 346.789 158.97 338.832 158.97L338.824 158.953ZM346.626 145.58C346.775 141.243 343.39 137.605 339.065 137.456C338.985 137.453 338.904 137.452 338.824 137.451C334.257 137.451 331.087 141.073 331.087 145.506V145.58C330.938 149.918 334.323 153.555 338.647 153.704C338.728 153.707 338.808 153.709 338.889 153.709C343.456 153.709 346.626 150.087 346.626 145.654V145.58ZM379.902 158.503L367.418 142.065V158.503H361.846V132.65H367.075L379.15 148.571V132.65H384.747V158.503L379.902 158.503ZM412.99 158.503L410.637 152.701H399.763L397.41 158.503H391.626L402.672 132.461H407.9L418.946 158.503H412.99ZM405.229 139.303L401.806 147.686H408.652L405.229 139.303ZM425.351 158.511V132.65H431.021V153.332H443.873V158.503L425.351 158.511Z" fill="black"/>
<path d="M266.944 50.0837C263.933 48.5018 260.603 47.6276 257.206 47.5271C250.425 47.5271 246.585 52.4437 245.58 54.0826V106.789H225.016V32.9167H243.856L245.032 40.6521C245.849 39.3082 250.751 31.327 260.474 31.327C262.676 31.3557 264.86 31.7346 266.944 32.4496V50.0837H266.944ZM315.743 32.4496C313.659 31.7348 311.475 31.3558 309.273 31.3269C299.542 31.3269 294.673 39.3082 293.832 40.652L292.655 32.9166H273.815V106.797H294.379V54.0825C295.417 52.4027 299.216 47.5271 306.005 47.5271C309.402 47.6276 312.733 48.5018 315.743 50.0837L315.743 32.4496ZM212.418 54.1235V106.797H193.546L192.369 99.094C191.07 100.356 185.016 108.386 172.541 108.386C160.776 108.386 152.655 99.3726 152.655 87.2368C152.655 61.0969 183.391 57.4176 191.871 56.5572V54.4595C191.871 50.1821 188.292 45.7407 178.799 45.7407C168.766 45.7407 161.037 51.3047 159.649 52.2961V37.0629C167.665 33.2088 176.454 31.2466 185.343 31.3269C204.248 31.3106 212.418 39.9719 212.418 54.1235ZM191.855 70.9957C185.319 70.9957 173.382 73.2492 173.382 83.5904C173.382 88.8348 176.961 92.6041 181.446 92.6041C187.279 92.6041 191.854 88.4086 191.854 78.9606L191.855 70.9957ZM79.0032 11.0132L97.4918 50.8048L90.2369 66.3741L59.3954 0L35.8987 10.9886L54.3709 50.7229C52.9248 53.8204 50.6045 58.8598 46.8464 66.8821C38.3987 84.9998 31.8627 90.0721 20.2859 90.0721C17.1022 90.0145 13.9499 89.4303 10.9559 88.3431L0 111.894C5.54988 114.211 11.4888 115.449 17.5 115.54C31.201 115.54 41.2664 106.608 50.0164 87.7777L60.8007 64.5877L80.4085 106.821H109.003L96.6176 80.1897L103.873 64.6205L123.48 106.854H152.075L102.5 0L79.0032 11.0132ZM489.567 32.9248V8.48114L469.003 18.1013V32.9249H462.418V45.7736H469.011V106.805H489.575V45.7653H500V32.9166L489.567 32.9248ZM323.439 106.805H344.003V32.9166H323.439V106.805ZM445.899 8.47293L425.335 18.0931V32.9166H418.742V45.7654H425.335V106.797H445.899V45.7653H456.332V32.9166H445.899V8.47293ZM413.938 63.7765V75.9286C413.938 93.5382 405.359 108.395 384.289 108.395C363.219 108.395 354.64 93.6448 354.64 75.9286V63.7846C354.64 46.1013 363.219 31.3187 384.289 31.3187C405.359 31.3187 413.938 46.175 413.938 63.7846V63.7765ZM393.211 60.8511C393.211 52.0176 391.07 45.7489 384.289 45.7489C377.508 45.7489 375.367 52.0176 375.367 60.8511V78.8786C375.367 87.7121 377.467 93.9808 384.289 93.9808C391.111 93.9808 393.211 87.7121 393.211 78.8786V60.8511Z" fill="black"/>
</g>
<defs>
<clipPath id="clip0_2_1412">
<rect width="500" height="158.97" fill="white"/>
</clipPath>
</defs>
</svg>
