<svg viewBox="0 0 429.3 95.02" xmlns="http://www.w3.org/2000/svg">
  <path d="m133.47 66.09-46.35-66.09-17.93 25.58 24.57 35c2.53 3.6 0 5.28-2.71 3.79a32.91 32.91 0 0 0 -14.42-3.33c-16.4.03-34.52 21.96-51.09 21.96-15.76 0-24.64-8.92-25.47-9.79.87 1.55 12.75 21.79 43.31 21.79 24.72 0 39.35-28.3 67.14-28.3 6.2 0 15.8 1.57 20.07 3.63 2.99 1.67 5.64-.33 2.88-4.24z" fill="#006cb8"/>
  <path d="m91.05 64.4c2.73 1.49 5.24-.19 2.71-3.79l-42.5-60.61-51.26 73.13s9 9.87 25.54 9.87 34.69-21.9 51.09-21.9a32.91 32.91 0 0 1 14.42 3.3z" fill="#8fc31f"/>
  <path d="m185.85 43.16a69.42 69.42 0 0 0 -11.09-6 29.34 29.34 0 0 1 -7.93 3.87 42.33 42.33 0 0 1 -9.53 2l-1.05-3.27c5-.45 10.54-1.38 15.15-4a116.86 116.86 0 0 0 -12.09-3.76 45.5 45.5 0 0 0 5-7h-8.93v-3h10.52a46.22 46.22 0 0 0 2.38-5.62l3.39.63c-.38 1-.9 2.27-2.2 5h20.17v2.99h-6.58a24.19 24.19 0 0 1 -5.7 10 90.56 90.56 0 0 1 10.57 5.33zm-18-18.2a40.18 40.18 0 0 1 -3.61 5.47c2.71.82 6.33 1.9 10.09 3.31a20 20 0 0 0 5.45-8.74zm2.94-13.07v-3.35h3.21v3.35h14.78v8.11h-3.17v-5.21h-26.23v5.21h-3.16v-8.11z"/>
  <path d="m215.8 18.64v2.79h15.07v7.18h-2.94v-5h-12.13v6.32h-2.87v-6.31h-12.06v4.86h-2.87v-7h15v-2.84zm13.25 14.36h-29.26v-2.12h29.26zm-18.24-4.65h-7.81v-2.22h7.85zm17.19-19.12v9.69h-27.17v-9.69zm-2.91 2.08h-21.35v1.9h21.36zm0 3.53h-21.35v1.86h21.36zm2.31 28.77a18.85 18.85 0 0 0 -1.71-1.86c-3.91.32-7.85.48-11.8.69-6.22.24-11.35.32-15.11.4l-.34-2.76h5.81a15.37 15.37 0 0 0 1.41-3h-8.56v-2.31h34.62v2.35h-6.62a44.94 44.94 0 0 1 5.25 4.88zm-4.72-6.49h-13.47c-.45 1-.56 1.14-1.53 2.92h3.65c3.58-.08 8.08-.2 12.14-.32a22.52 22.52 0 0 0 -2.16-1.72zm3.32-8.74h-8v-2.25h8z"/>
  <path d="m258 38.73c-5.06 1-16 2.05-18.58 2.23l-.29-3c2.71-.11 5.47-.37 8.19-.67v-4.7h-7.45v-2.72h7.45v-3.76h-7.11v-16.11h17v16.11h-7.21v3.76h7.67v2.72h-7.67v4.41c1-.11 5.29-.67 6.18-.78a17 17 0 0 0 1.75-.26zm-10.72-26.21h-4.28v4.17h4.28zm0 6.63h-4.28v4.39h4.28zm7.11-6.63h-4.39v4.17h4.4zm0 6.63h-4.39v4.39h4.4zm14 3.09h5.32v2.6a24.55 24.55 0 0 1 -2.54 7.16l-2.64-1.12a19.42 19.42 0 0 0 2.35-5.88h-3.76v15.37c0 2.31-1.46 2.68-2.83 2.68h-5.29l-.48-3.05h4.39c.63 0 1.23 0 1.23-.93v-14.07h-6v-2.76h9a35.35 35.35 0 0 0 -6.51-5.55l1.82-2a26.69 26.69 0 0 1 3.55 2.38 25.09 25.09 0 0 0 3.76-4.4h-10.87v-2.67h14.11v2.53a24.83 24.83 0 0 1 -5 6.17c1 .86 1.45 1.34 1.94 1.86z"/>
  <path d="m293.23 9.92c-.22 1.82-.44 3.46-1 6.81h4.47c5.88 0 8.11 3 8.11 10.09 0 4.09-.89 10.27-2.79 12.58a6.84 6.84 0 0 1 -5.59 2.23 32.21 32.21 0 0 1 -5.84-.63l-.22-3.31a37.78 37.78 0 0 0 6.1.78 3.45 3.45 0 0 0 3.39-1.94c1.08-2.19 1.64-7.37 1.64-10.2 0-6.06-2-6.66-6.07-6.58l-3.76.07c-2.05 10.27-3.95 15.89-6.89 21.59l-3.27-1.34a45.5 45.5 0 0 0 4.54-10.87 84.85 84.85 0 0 0 2.31-9.34l-6.22.15-.07-3.21h6.81c.37-2.65.59-4.47.85-7.15zm18.09 20.08c-1-10-4.28-13.74-5.65-15.26l2.56-1.6c4.32 4.2 6 10.27 6.59 16.3z"/>
  <path d="m344.84 15.24c-3.24-1.19-6.52-2.16-15.52-2.53l.55-3.13c7 .23 11.21.9 15.75 2.35zm-16.86 0c-.93 3.5-1.08 4.76-1.12 10.53a16.25 16.25 0 0 1 6.14-3.2 25 25 0 0 1 7.56-1.26c6.7 0 10.12 4.31 10.12 9s-2.79 7.49-6.06 9.12-7.75 2.09-13.81 2.09a49 49 0 0 1 -6.59-.34l-.15-3.12a71.29 71.29 0 0 0 7.37.41 45 45 0 0 0 7.59-.6c1.79-.33 8.15-1.79 8.15-7.48 0-3.39-2.53-6.07-7.11-6.07s-9.9 1.71-13.06 5.25a4.19 4.19 0 0 0 -.11.78l-3.28-.07v-.67c.15-10.09.19-11.13 1.08-14.89z"/>
  <path d="m371.45 87.1h-8v-35h8.55v27h1.13c1.92 0 3.51-2.56 3.51-10v-3.53h8v4.71c.05 11.35-3.8 16.82-13.19 16.82zm-15.34 0h-9.55c2.2-1.73 4.12-6.79 4.12-14.67v-20.43h8.53v20.24c0 7.85-.98 13.47-3.1 14.86z"/>
  <path d="m419.65 52a19.18 19.18 0 0 1 -4 6.13c-7.77 8.32-23.65 7.53-23.65 7.53v8.39a44.72 44.72 0 0 0 15.88-1.51v14.6h8.88v-18.42a25.11 25.11 0 0 0 10.82-12 24.67 24.67 0 0 0 1.72-4.72z"/>
  <path d="m306.33 52v8h27.44v4c-1.14 6.14-7.17 8.26-14.15 8.74-1.05-2.59-1.71-4.66-1.71-4.66h-8.59a28.81 28.81 0 0 0 3.88 11 28.83 28.83 0 0 0 6.58 8.06h10.93a45.07 45.07 0 0 1 -7.29-7.14c9.17-.94 18.92-6.14 18.76-15.83v-12.17z"/>
  <path d="m178.88 54.42c-3.72 0-6.72 1.25-10 4.17l-.84.74v-7.33h-6.95v3.74h-5.59v7.15h5.59v4l-.13.15-5.79 6.59-.06.07v9.65l.44-.5 4.65-5.3.89-1v10.82h6.91v-18.64l.13-.14c4.2-4.72 6.56-6.94 10.08-6.94a4.35 4.35 0 0 1 3.25 1.2c1.23 1.22 1.85 3.46 1.85 6.65v1.37c0 3.06-.31 5.41-1.81 6.91s-3.65 2-7.58 2h-2.14l1.22 7.2h.92c6.36 0 10.5-1.19 13.05-3.74s3.57-6.25 3.57-12v-1.47c0-5.7-1.3-9.88-3.86-12.44a10.58 10.58 0 0 0 -7.8-2.91z"/>
  <path d="m231.23 56.35v-.25h-9.53l-.08-.41c-.26-1.24-.45-2.37-.58-3.46v-.22h-7.47v.29c.17 1.18.35 2.23.55 3.19l.12.61h-17.38v7.07h19.35l.12.34a62.16 62.16 0 0 0 5.3 11.41l.08.13h8.29l-.26-.4a59.49 59.49 0 0 1 -5.59-10.79l-.27-.69h7.32v-6.82z"/>
  <path d="m227.8 80.68v-.25h-.25-13.88c-3.85 0-6.15-.52-7.26-1.62a3.2 3.2 0 0 1 -.86-2.42 8.33 8.33 0 0 1 3.59-6.24l.61-.46h-8.53l-.08.08a11 11 0 0 0 -3.06 7.69 8.64 8.64 0 0 0 2.32 6.44c2.18 2.18 5.95 3.25 11.5 3.25h15.9z"/>
  <path d="m272.51 51.41-.06-.15h-5.23l3.25 7.17h5.22l-.15-.35s-3.02-6.66-3.03-6.67z"/>
  <path d="m262.36 58.43h5.19l-.16-.35s-3-6.66-3-6.67l-.07-.15h-5.18c.06.19 3.22 7.17 3.22 7.17z"/>
  <path d="m270.3 64.32c-.33-.48-.91-1.62-1.18-2.15h-8.12c0 1.76-.12 7.64-.12 7.63 0 7-2.55 10.18-8.24 10.18h-1.11a7.14 7.14 0 0 1 -5.21-1.83 6.1 6.1 0 0 1 -1.65-4.52c0-5.57 3.53-10.52 9.93-14l-.11-7.15-17.09-.08v6.17h8.19l-.86.86c-4.79 4.78-7 9.41-7 14.57 0 4 1.14 7.23 3.39 9.48s5.84 3.55 10.16 3.55h1.3c4.86 0 8.62-1.29 11.17-3.84s3.71-6 3.71-10.41v-4l.89 1.09a31.07 31.07 0 0 0 2.65 2.83l.07.07c.5.48 1.16 1 1.68 1.43v-7.49a9.33 9.33 0 0 1 -2.45-2.39z"/>
  <path d="m290.2 82.44c2-.13 8.19-.63 8.19-8.11a6.91 6.91 0 0 0 -1.34-4.59 6.1 6.1 0 0 0 -4.53-2.28c-.14 2.45-1.19 17-8.64 17-3.76 0-6.09-3.81-6.09-8.17 0-6.15 4.31-13 13.48-13 6.4 0 11.76 3.51 11.76 11.43a11.5 11.5 0 0 1 -3.78 9c-2.7 2.42-6.95 2.86-7.41 2.91zm-5.27-13a9.22 9.22 0 0 0 -2.75 6.73c0 1.06.31 3.56 1.89 3.56.89 0 1.5-.75 2.14-2.11s1.64-4.42 2.09-10a7.6 7.6 0 0 0 -3.37 1.84z"/>
</svg>
