<svg width="500" height="379" viewBox="0 0 500 379" fill="none" xmlns="http://www.w3.org/2000/svg">
<g clip-path="url(#clip0_1_672)">
<mask id="mask0_1_672" style="mask-type:luminance" maskUnits="userSpaceOnUse" x="0" y="0" width="500" height="379">
<path d="M500 0H0V378.874H500V0Z" fill="white"/>
</mask>
<g mask="url(#mask0_1_672)">
<path fill-rule="evenodd" clip-rule="evenodd" d="M25.2557 -0.000488281C11.3065 -0.000488281 0 11.3083 0 25.2544V353.615C0 367.564 11.3065 378.873 25.2557 378.873H474.742C488.691 378.873 500 367.564 500 353.615V25.2544C500 11.3083 488.691 -0.000488281 474.742 -0.000488281H25.2557Z" fill="#D52B1E"/>
<path fill-rule="evenodd" clip-rule="evenodd" d="M211.425 170.954C218.228 120.646 240.656 29.9109 283.429 29.9109C333.364 29.9109 392.036 197.648 392.022 336.518H345.973C345.973 190.864 310.297 59.6267 284.627 59.6211C257.849 59.6183 234.381 148.891 234.381 318.974H188.395C188.395 148.891 165.069 59.6211 138.149 59.6211C112.525 59.6211 76.8748 190.889 76.8748 336.518H30.8262C30.8694 197.528 89.3927 29.8939 139.418 29.9109C182.131 29.9251 204.567 120.634 211.425 170.954Z" fill="#FDC82F"/>
<path fill-rule="evenodd" clip-rule="evenodd" d="M181.328 280.711H393.44V227.109H181.328V280.711Z" fill="#D52B1E"/>
<path fill-rule="evenodd" clip-rule="evenodd" d="M372.044 275.332H385.391V231.421H372.044V275.332Z" fill="white"/>
<path fill-rule="evenodd" clip-rule="evenodd" d="M434.474 231.42H443.564L440.477 243.387H433.868L434.474 231.42Z" fill="white"/>
<path fill-rule="evenodd" clip-rule="evenodd" d="M459.225 237.925C468.104 237.925 476.446 240.165 476.486 248.881H463.811C463.811 245.878 462.059 244.514 459.1 244.514C457.345 244.514 454.972 245.243 454.972 247.995C454.975 252.561 462.195 251.648 468.326 253.468C473.834 255.101 477.652 258.388 477.652 263.694C477.652 271.823 471.274 276.321 459.225 276.369C446.591 276.419 441.837 271.865 441.797 263.694H454.639C454.639 266.778 456.557 268.614 459.265 268.614C462.508 268.614 463.979 267.383 463.979 265.09C463.979 260.317 455.126 260.44 449.905 258.732C446.355 257.569 443.128 254.937 443.128 249.349C443.128 244.68 446.631 237.925 459.225 237.925Z" fill="white"/>
<path fill-rule="evenodd" clip-rule="evenodd" d="M185.876 262.024C183.661 270.753 176.42 276.412 167.388 276.414C156.484 276.414 148.189 268.162 148.2 256.222C148.209 244.296 155.582 236.043 167.388 236.032C177.178 236.024 183.918 241.711 185.942 250.452L173.452 250.454C172.494 247.827 170.653 245.777 167.388 245.775C161.877 245.774 160.424 251.615 160.426 256.222C160.427 260.831 161.877 266.669 167.388 266.669C170.64 266.669 172.477 264.638 173.438 262.025L185.876 262.024Z" fill="white"/>
<path fill-rule="evenodd" clip-rule="evenodd" d="M93.7963 231.424H109.743L116.684 257.365L123.625 231.424H139.583L146.555 276.414H133.398L129.923 250.121L122.733 276.414H110.635L103.446 250.121L99.9687 276.414H86.8027L93.7963 231.424Z" fill="white"/>
<path fill-rule="evenodd" clip-rule="evenodd" d="M298.334 253.821C298.334 255.356 298.334 275.34 298.334 275.34H285.139V236.977H298.334V239.974C301.674 237.372 304.692 236.034 311.54 236.034C318.977 236.034 324.968 241.003 324.971 246.221V275.34H311.682V254.224C311.688 250.716 308.547 247.857 305.128 247.857C300.729 247.857 298.541 251.749 298.334 253.821Z" fill="white"/>
<path fill-rule="evenodd" clip-rule="evenodd" d="M416.056 240.782V231.421H429.402V275.332H416.056V273.201C414.303 274.784 412.004 276.4 406.252 276.4C399.78 276.4 389.498 272.804 389.489 257.356C389.481 241.929 399.768 237.925 407.085 237.925C412.4 237.925 414.909 239.76 416.056 240.782ZM402.206 257.356C402.206 263.36 405 267.197 409.589 267.197C412.34 267.197 414.642 265.997 416.061 263.496V251.977C415.35 249.434 412.881 247.559 409.589 247.559C404.992 247.556 402.206 251.352 402.206 257.356Z" fill="white"/>
<path fill-rule="evenodd" clip-rule="evenodd" d="M240.838 256.229C240.849 244.303 248.583 236.048 260.968 236.037C273.358 236.026 281.09 244.303 281.099 256.229C281.11 268.168 273.355 276.418 260.968 276.418C248.595 276.419 240.828 268.168 240.838 256.229ZM268.615 256.229C268.618 251.62 267.022 245.781 260.968 245.781C254.915 245.778 253.319 251.62 253.32 256.229C253.323 260.836 254.915 266.675 260.968 266.675C267.022 266.675 268.615 260.836 268.615 256.229Z" fill="white"/>
<path fill-rule="evenodd" clip-rule="evenodd" d="M190.527 231.424H213.457C227.803 231.424 237.581 240.335 237.581 253.919C237.581 267.501 227.806 276.414 213.457 276.414H190.527V231.424ZM205.696 265.779H212.628C217.12 265.779 222.588 263.04 222.588 253.919C222.588 244.809 217.12 242.06 212.628 242.06H205.696V265.779Z" fill="white"/>
<path fill-rule="evenodd" clip-rule="evenodd" d="M348.775 236.037C358.246 236.029 366.052 239.512 366.661 247.159V275.332H353.304V271.534C350.061 274.313 346.829 276.398 340.991 276.398C334.191 276.398 328.712 271.023 328.712 264.722C328.712 258.419 332.592 251.418 348.129 251.421C352.135 251.422 353.301 249.847 353.304 247.97C353.309 245.665 350.652 244.379 348.428 244.379C346.203 244.379 343.679 245.306 343.679 247.715H331.167C331.167 242.062 334.968 236.051 348.775 236.037ZM348.035 257.655C344.954 257.655 342.103 259.3 342.103 262.45C342.103 264.49 343.31 266.252 346.459 266.251C349.472 266.251 352.687 264.464 353.304 260.759V257.249C352.285 257.806 349.981 257.655 348.035 257.655Z" fill="white"/>
<path fill-rule="evenodd" clip-rule="evenodd" d="M412.44 306.578H420.639C424.699 306.578 427.401 308.759 427.401 311.639C427.401 314.3 425.353 316.045 422.821 316.263V316.351C426.704 317.659 427.271 320.364 427.316 324.029H423.652C423.521 319.623 422.559 317.704 418.679 317.704H415.666V324.029H412.44V306.578ZM415.666 314.911H419.507C422.517 314.911 423.737 313.864 423.737 311.9C423.737 310.417 422.821 309.37 420.03 309.37H415.666V314.911ZM419.157 300.514C427.447 300.514 434.164 307.188 434.164 315.522C434.164 323.855 427.447 330.529 419.157 330.529C410.866 330.529 404.149 323.855 404.149 315.522C404.149 307.188 410.866 300.514 419.157 300.514ZM419.157 328.916C426.531 328.916 432.551 322.939 432.551 315.522C432.551 308.105 426.531 302.128 419.157 302.128C411.785 302.128 405.763 308.105 405.763 315.522C405.763 322.939 411.785 328.916 419.157 328.916Z" fill="#FDC82F"/>
</g>
</g>
<defs>
<clipPath id="clip0_1_672">
<rect width="500" height="379" fill="white"/>
</clipPath>
</defs>
</svg>
