<svg xmlns="http://www.w3.org/2000/svg" width="300" height="119.89"><path d="m261.51 87.06c0 4.4 0.04 6.76-0.32 10.31-1.6 16.36-14.58 22.52-26.65 22.52-13.47 0-21-7.18-22.37-11.65-0.29-0.93 0.06-1.64 0.72-1.94 0.54-0.25 1.2-0.16 2.36 0.23 4.79 1.58 11.56 1.49 16.1-1.13 5.42-3.12 6.45-6.87 6.45-20.22l0-47.22c0-3.48 1.49-4.96 4.97-4.96l13.77 0c3.47 0 4.97 1.49 4.97 4.96l0 49.1zm-11.85-63.35c6.55 0 11.85-5.31 11.85-11.85C261.51 5.31 256.21 0 249.66 0c-6.55 0-11.86 5.31-11.86 11.86 0 6.55 5.31 11.85 11.86 11.85m-85.08 29.04-23.29 0c0.63-4.22 4.6-10.77 12.93-10.77 7.73 0 10.68 6.88 10.36 10.77m-10.68-24.77c-22.41 0-38.79 13.24-38.79 33.45 0 20.02 14 32.49 34.03 33.84 8.68 0.59 24.28 0.15 33.07-12.41 1.94-2.93 2.83-5.97 2.72-7.68-0.07-1.13-1.15-1.71-2.29-1.27-0.98 0.38-11.03 7.3-24.98 5.43-8.4-1.12-16.26-6.65-16.67-14.91l41.79 0c3.48 0 4.97-1.5 4.97-4.96 0-15.5-12.14-31.49-33.85-31.49m45.02-16.12C198.93 5.31 204.23 0 210.77 0c6.55 0 11.86 5.31 11.86 11.86 0 6.55-5.31 11.85-11.86 11.85-6.55 0-11.84-5.31-11.84-11.85m23.7 75.14 0-49.03c0-3.48-1.5-4.96-4.96-4.96l-13.77 0c-3.47 0-4.96 1.49-4.96 4.96l0 49.03c0 3.48 1.49 4.97 4.96 4.97l13.77 0c3.48 0 4.96-1.45 4.96-4.97m72.41 4.97-13.78 0c-3.48 0-4.96-1.49-4.96-4.97l0-49.03c0-3.48 1.49-4.96 4.96-4.96l13.78 0c3.46 0 4.96 1.49 4.96 4.96l0 49c0 3.51-1.49 5-4.96 5m-6.89-68.25c6.55 0 11.85-5.31 11.85-11.85C300 5.31 294.69 0 288.15 0c-6.55 0-11.86 5.31-11.86 11.86 0 6.55 5.31 11.85 11.86 11.85m-184.32 35.09 0 28.2c0 3.48-1.49 4.97-4.97 4.97l-13.77 0c-3.47 0-4.97-1.49-4.97-4.97l0-24.25c0-9.04-3.14-12.7-8.6-12.84-2.22-0.06-5.59 0.97-8.3 2.47 0 0 0.9 3.82 0.69 26.59l0 8.03c0 3.48-1.49 4.97-4.96 4.97l-13.77 0c-3.48 0-4.96-1.49-4.96-4.97l0-24.25c0-9.04-3.15-12.7-8.61-12.84-2.21-0.06-5.13 0.76-7.85 2.24l0 34.84c0 3.48-1.49 4.97-4.96 4.97l-13.77 0c-3.48 0-4.97-1.49-4.97-4.97l0-48.72c0-3.14-0.27-6.41 0.74-7.42 1.11-1.1 2.86-0.82 4.43 0.18 2.52 1.58 7.46 3.64 12.24 3.64 3.77 0 5.95-0.41 12.78-2.23 6.97-1.81 10.76-3.24 14.66-3.48 7.63-0.48 15.03 2.29 16.1 7.79 8.5-5.45 15.36-6.83 22.18-6.83 5.44 0 10.59 1.67 13.94 4.74 5.44 4.75 6.72 11.29 6.72 24.12" fill="#ed1c24"/></svg>