<svg width="500" height="188" viewBox="0 0 500 188" fill="none" xmlns="http://www.w3.org/2000/svg">
<path d="M53.3252 79.3783C51.0086 81.478 47.6624 82.1808 45.5714 82.4469C41.3055 82.9791 36.8891 81.5619 34.0751 78.1694C31.7614 75.3958 30.5756 71.8067 28.3168 68.9348C24.7508 64.3912 19.0475 61.4152 13.1764 62.465C1.56733 64.5705 -3.70217 78.1087 2.86301 87.4995C12.2451 100.919 33.3405 98.5967 44.1687 89.2984C47.5409 86.4062 50.6876 83.1902 53.3281 79.3783" fill="#4F2170"/>
<path d="M446.678 79.3754C448.997 81.4809 452.332 82.1808 454.434 82.4468C458.7 82.9819 463.117 81.5676 465.928 78.1722C468.239 75.3958 469.433 71.8095 471.686 68.9376C475.258 64.394 480.958 61.4151 486.829 62.4679C498.433 64.5734 503.702 78.1115 497.134 87.5023C487.758 100.919 466.662 98.5995 455.843 89.3012C452.468 86.4091 449.315 83.1901 446.678 79.3754Z" fill="#4F2170"/>
<path d="M408.021 7.80604C407.729 7.79447 380.022 7.79447 379.765 7.80604C376.728 7.89859 374.218 10.7098 374.073 13.6019C373.92 16.6763 376.592 19.7246 379.765 19.875C380.06 19.8865 407.764 19.8865 408.021 19.875C411.061 19.7853 413.571 16.9713 413.713 14.0791C413.869 11.0019 411.197 7.96222 408.021 7.80604Z" fill="#4F2170"/>
<path d="M231.559 68.018C231.172 66.4157 230.967 64.8366 230.854 63.2459C230.834 60.9467 230.834 57.7248 230.834 54.7546C231.123 44.5048 233.037 26.4694 219.132 26.4694C209.741 26.4694 204.18 34.3707 202.603 36.9534C202.378 29.7519 196.698 24.5229 188.015 24.5229C182.477 24.5229 179.186 28.9306 179.186 28.9306C179.186 28.9306 184.588 30.8047 184.588 38.064C184.646 43.2612 184.577 68.5704 184.588 68.6774C184.799 73.1631 187.934 77.3683 193.539 77.3683C199.144 77.3683 202.624 73.059 202.624 68.6716V46.2256C203.404 42.5555 205.469 38.8102 208.581 38.8102C212.619 38.8102 212.844 43.2988 212.865 43.2988L212.844 65.0275C212.865 65.7332 212.954 66.4128 213.076 67.078C213.275 68.2089 213.619 69.2645 214.111 70.2305C216.266 74.6063 221.029 77.4608 227.432 77.4608C232.968 77.4608 236.256 73.0561 236.256 73.0561C236.256 73.0561 233.008 71.9108 231.554 68.0151" fill="#4F2170"/>
<path d="M365.212 68.0175C364.821 66.4153 364.61 64.8362 364.506 63.2455L364.52 9.46889C364.52 4.23989 360.28 0 355.051 0C349.822 0 345.583 4.23989 345.583 9.46889L345.594 57.0939C345.64 61.383 345.221 65.7675 347.246 69.7095C349.389 74.0882 354.681 77.4633 361.079 77.4633C366.629 77.4633 369.911 73.0586 369.911 73.0586C369.911 73.0586 366.669 71.9133 365.209 68.0175" fill="#4F2170"/>
<path d="M153.593 26.0005C139.381 26.0005 127.862 37.517 127.862 51.7319C127.862 65.9468 139.381 77.4605 153.593 77.4605C167.805 77.4605 179.324 65.9411 179.324 51.7319C179.324 37.5228 167.799 26.0005 153.593 26.0005ZM153.784 66.534V66.5455C153.761 66.5455 153.746 66.5397 153.726 66.5397C153.706 66.5397 153.691 66.5455 153.674 66.5455V66.534C148.815 66.4443 146.38 60.8625 146.38 51.7348C146.38 42.6072 149.466 37.0283 153.674 36.9299C153.691 36.9299 153.709 36.9299 153.726 36.9299C153.746 36.9299 153.761 36.9299 153.784 36.9299C157.986 37.0311 161.075 42.6217 161.075 51.7377C161.075 60.8538 158.646 66.4472 153.784 66.5368" fill="#4F2170"/>
<path d="M289.435 68.0175C289.041 66.4153 288.833 64.8362 288.729 63.2455L288.743 9.47179C288.743 4.24278 284.503 0 279.274 0C274.045 0 269.803 4.23989 269.803 9.47179L269.765 34.94C267.486 31.7703 262.471 26.4111 254.567 26.4111C232.818 26.4111 231.444 65.1399 246.359 74.7187C250.564 77.417 256.904 78.1111 261.702 76.8646C265.016 75.9999 270.236 72.7462 271.078 68.8592C271.2 69.1426 271.327 69.4289 271.471 69.7123C273.617 74.0911 278.91 77.4633 285.305 77.4633C290.852 77.4633 294.137 73.0586 294.137 73.0586C294.137 73.0586 290.895 71.9133 289.435 68.0175ZM261.21 64.8882V64.8969C261.19 64.8969 261.175 64.8969 261.158 64.8969C261.138 64.8969 261.126 64.8969 261.1 64.8969V64.8882C256.241 64.8159 253.809 59.9456 253.809 51.995C253.809 44.0445 256.889 39.1857 261.1 39.0961V39.0903C261.123 39.0903 261.135 39.0961 261.158 39.0961C261.178 39.0961 261.19 39.0903 261.21 39.0903V39.0961C265.421 39.1857 268.504 44.0503 268.504 51.995C268.504 59.9398 266.066 64.8159 261.21 64.8882Z" fill="#4F2170"/>
<path d="M338.705 61.5426C338.705 61.5426 335.929 65.3487 325.152 65.3487C314.376 65.3487 312.065 56.973 312.065 56.973C327.767 56.973 340.938 55.9232 340.938 43.2093C340.938 30.4954 326.57 26.3047 318.049 26.3047C303.982 26.3047 293.706 37.5233 293.706 52.3311C293.706 69.0073 307.091 77.4668 318.2 77.4668C337.765 77.4668 338.705 61.5455 338.705 61.5455M311.047 48.8143C311.6 44.7566 312.572 39.6433 316.221 37.2746C319.252 35.3051 323.498 37.5465 323.562 41.3381C323.631 45.3408 321.043 48.071 317.439 48.8259C317.057 48.9097 310.995 49.2105 311.047 48.8143Z" fill="#4F2170"/>
<path d="M414.468 61.5426C414.468 61.5426 411.691 65.3487 400.915 65.3487C390.139 65.3487 387.828 56.973 387.828 56.973C403.53 56.973 416.7 55.9232 416.7 43.2093C416.7 30.4954 402.332 26.3047 393.812 26.3047C379.745 26.3047 369.469 37.5233 369.469 52.3311C369.469 69.0073 382.854 77.4668 393.962 77.4668C413.528 77.4668 414.468 61.5455 414.468 61.5455M386.81 48.8143C387.362 44.7566 388.334 39.6433 391.984 37.2746C395.015 35.3051 399.261 37.5465 399.324 41.3381C399.394 45.3408 396.805 48.071 393.202 48.8259C392.82 48.9097 386.758 49.2105 386.81 48.8143Z" fill="#4F2170"/>
<path d="M449.998 62.9158H439.207C440.003 62.9158 447.985 56.1857 450.628 53.9414C457.561 48.0588 470.026 39.5703 466.393 28.5773L466.402 28.6525C465.737 26.0351 463.718 24.5254 463.718 24.5254C463.718 24.5254 462.963 26.6627 460.401 27.62C459.354 27.8745 458.307 28.0654 457.263 28.1261C456.401 28.1435 427.104 28.1261 427.104 28.1261C423.141 28.1203 419.821 31.3075 419.766 35.0673C419.72 38.8589 422.855 41.8985 426.869 41.9506L443.962 42.0605C436.037 46.4797 426.577 51.7116 421.773 59.6997C419.032 64.2866 416.093 71.3551 417.21 76.7778C421.007 73.4143 430.973 70.1548 438.559 71.7368C441.399 72.3297 444.419 73.7787 446.874 75.3144C461.101 84.2136 469.653 66.8086 462.851 59.1357C462.851 59.1357 458.972 62.91 449.998 62.91" fill="#4F2170"/>
<path d="M129.256 73.7415C120.527 64.1713 117.8 48.2587 117.262 37.6822C116.799 28.5459 117.294 12.72 124.495 8.11572C122.083 5.08474 117.328 3.86426 113.716 3.86426C105.598 3.86426 101.685 9.27258 98.9082 13.1596C97.9914 14.4437 84.3376 33.2774 84.3376 33.2774C84.3376 33.2774 72.8558 15.5138 71.4444 13.3794C69.4951 10.4352 65.8423 5.02401 59.4246 4.08695C56.6597 3.68205 49.4901 3.31764 45.5886 8.6739C52.3157 14.0562 52.148 27.7621 50.6874 37.1182C46.3058 65.2067 34.3555 67.7952 34.3555 67.7952C40.4781 84.3296 56.2432 77.7963 60.7001 64.6138C63.5864 56.0473 65.449 45.1988 65.8799 36.2043L83.1807 62.7455C83.1807 62.7455 102.772 36.2852 102.772 36.3113C99.5445 83.1033 115.616 96.3667 129.666 96.3667C143.716 96.3667 148.517 83.5054 148.517 83.5054C140.911 83.0455 134.256 79.2221 129.258 73.7415" fill="#4F2170"/>
<path d="M173.144 88.9627C173.312 89.651 173.402 90.3278 173.448 91.0045C173.448 91.2128 173.436 115.484 173.448 115.776C173.509 117.815 175.394 119.495 177.338 119.593C179.4 119.698 181.442 117.904 181.543 115.776C181.552 115.498 181.543 93.6364 181.543 93.6364C181.526 91.7999 181.702 89.9258 180.84 88.2367C179.92 86.3626 177.656 84.9194 174.92 84.9194C172.543 84.9194 171.137 86.8051 171.137 86.8051C171.137 86.8051 172.525 87.2939 173.15 88.9598" fill="#4F2170"/>
<path d="M429.759 115.556C429.591 114.868 429.501 114.194 429.455 113.511C429.455 113.306 429.467 89.032 429.458 88.7428C429.394 86.701 427.509 85.0177 425.568 84.9223C423.506 84.8182 421.464 86.6113 421.363 88.7428C421.354 89.0205 421.363 110.879 421.363 110.879C421.383 112.713 421.204 114.59 422.066 116.279C422.985 118.153 425.25 119.596 427.989 119.596C430.363 119.596 431.769 117.711 431.769 117.711C431.769 117.711 430.383 117.219 429.759 115.553" fill="#4F2170"/>
<path d="M283.291 97.4862C279.083 97.4862 276.59 101.026 275.885 102.183L275.861 102.2C275.861 101.032 275.859 100.104 275.859 100.057C275.795 98.0213 273.909 96.4971 271.971 96.4017C269.912 96.2976 267.868 97.9316 267.766 100.057C267.761 100.335 267.761 115.553 267.766 115.759C267.827 117.795 269.716 119.478 271.653 119.574C273.715 119.678 275.754 117.885 275.859 115.759C275.861 115.6 275.864 110.634 275.864 106.356L275.896 106.336C276.246 104.693 277.169 103.013 278.566 103.013C280.373 103.013 280.474 105.026 280.483 105.026L280.466 115.759C280.526 117.795 282.415 119.478 284.353 119.574C286.415 119.678 288.454 117.885 288.558 115.759L288.546 110.148C288.546 104.381 289.148 97.4573 283.291 97.4833" fill="#4F2170"/>
<path d="M386.752 97.4862C382.544 97.4862 380.051 101.026 379.345 102.183L379.322 102.2C379.322 101.032 379.319 100.104 379.319 100.057C379.256 98.0213 377.37 96.4971 375.432 96.4017C373.373 96.2976 371.328 97.9316 371.227 100.057C371.221 100.335 371.221 115.553 371.227 115.759C371.288 117.795 373.177 119.478 375.114 119.574C377.176 119.678 379.215 117.885 379.319 115.759C379.322 115.6 379.325 110.634 379.325 106.356L379.357 106.336C379.707 104.693 380.63 103.013 382.027 103.013C383.834 103.013 383.935 105.026 383.944 105.026L383.927 115.759C383.987 117.795 385.876 119.478 387.814 119.574C389.876 119.678 391.915 117.885 392.019 115.759L392.007 110.148C392.007 104.381 392.609 97.4573 386.752 97.4833" fill="#4F2170"/>
<path d="M201.117 97.4862C196.909 97.4862 194.416 101.026 193.71 102.183L193.687 102.2C193.687 101.032 193.681 100.104 193.681 100.057C193.621 98.0213 191.732 96.4971 189.794 96.4017C187.735 96.2976 185.69 97.9316 185.589 100.057C185.583 100.335 185.583 115.553 185.589 115.759C185.653 117.795 187.538 119.478 189.479 119.574C191.538 119.678 193.58 117.885 193.684 115.759C193.69 115.6 193.69 110.634 193.69 106.356L193.722 106.336C194.072 104.693 194.994 103.013 196.394 103.013C198.202 103.013 198.303 105.026 198.312 105.026L198.291 115.759C198.352 117.795 200.241 119.478 202.178 119.574C204.241 119.678 206.282 117.885 206.384 115.759L206.372 110.148C206.372 104.381 206.974 97.4573 201.117 97.4833" fill="#4F2170"/>
<path d="M357.411 96.4707C351.043 96.4707 345.883 101.627 345.883 107.999C345.883 114.37 351.046 119.524 357.411 119.524C363.777 119.524 368.94 114.367 368.94 107.999C368.94 101.63 363.777 96.4707 357.411 96.4707ZM357.498 114.628V114.633C357.498 114.633 357.478 114.633 357.469 114.633C357.461 114.633 357.452 114.633 357.449 114.633V114.628C355.268 114.584 354.181 112.088 354.181 107.999C354.181 103.909 355.563 101.411 357.449 101.367C357.449 101.367 357.461 101.367 357.469 101.367C357.478 101.367 357.484 101.367 357.498 101.367C359.381 101.413 360.76 103.915 360.76 108.002C360.76 112.088 359.673 114.59 357.498 114.631" fill="#4F2170"/>
<path d="M314.364 99.7796C314.298 97.6452 312.291 95.881 310.261 95.7798C308.1 95.6727 305.96 97.5497 305.853 99.7796C305.853 99.9329 305.833 100.265 305.833 100.326C304.809 98.9033 302.565 96.5057 299.022 96.5057C289.278 96.5057 288.662 113.859 295.343 118.151C297.229 119.359 300.069 119.669 302.22 119.111C303.435 118.793 305.225 117.757 306.038 116.435C306.538 118.139 308.227 119.438 309.96 119.524C312.12 119.631 314.257 117.757 314.367 115.527C314.376 115.238 314.373 99.9791 314.367 99.7825M301.995 113.743C301.995 113.743 301.98 113.743 301.972 113.743H301.943C299.765 113.708 298.677 111.525 298.677 107.961C298.677 104.398 300.057 102.223 301.943 102.183C301.943 102.183 301.96 102.183 301.972 102.183C301.977 102.183 301.986 102.183 301.995 102.183C303.88 102.226 305.266 104.407 305.266 107.961C305.266 111.516 304.173 113.708 301.995 113.74" fill="#4F2170"/>
<path d="M417.739 99.7796C417.675 97.6452 415.668 95.881 413.635 95.7798C411.477 95.6727 409.34 97.5497 409.23 99.7796C409.227 99.9329 409.207 100.265 409.207 100.326C408.186 98.9033 405.939 96.5057 402.396 96.5057C392.652 96.5057 392.036 113.859 398.717 118.151C400.603 119.359 403.443 119.669 405.592 119.111C406.807 118.793 408.603 117.757 409.413 116.435C409.91 118.139 411.599 119.438 413.331 119.524C415.492 119.631 417.629 117.757 417.736 115.527C417.745 115.238 417.739 99.9791 417.736 99.7825M405.375 113.743C405.375 113.743 405.361 113.743 405.352 113.743H405.326C403.151 113.708 402.058 111.525 402.058 107.961C402.058 104.398 403.44 102.223 405.326 102.183C405.326 102.183 405.343 102.183 405.352 102.183C405.361 102.183 405.366 102.183 405.375 102.183C407.261 102.226 408.643 104.407 408.643 107.961C408.643 111.516 407.553 113.708 405.375 113.74" fill="#4F2170"/>
<path d="M343.344 101.951C343.249 99.9412 341.667 98.3621 339.677 98.1944C339.555 98.1828 339.448 98.1597 339.333 98.1597C337.528 98.1597 335.26 99.7185 335.26 101.688L335.272 109.153H335.26C335.286 111.481 335.258 115.686 335.26 115.732C335.356 117.742 336.938 119.322 338.925 119.489C339.046 119.504 339.153 119.524 339.269 119.524C341.071 119.524 343.341 117.965 343.341 115.996L343.332 109.76H343.341C343.312 107.429 343.344 101.998 343.341 101.948" fill="#4F2170"/>
<path d="M343.315 91.8581C343.315 94.0734 341.519 95.8666 339.304 95.8666C337.089 95.8666 335.292 94.0734 335.292 91.8581C335.292 89.6427 337.086 87.8438 339.304 87.8438C341.522 87.8438 343.315 89.6398 343.315 91.8581Z" fill="#4F2170"/>
<path d="M261.323 97.2083C258.92 97.3067 257.731 99.0969 256.094 101.347C256.082 101.364 256.097 100.309 256.094 100.268C256.03 98.2322 254.147 96.5489 252.21 96.4506C250.145 96.3465 248.106 98.1396 248.002 100.268V115.811H247.996C248.057 117.85 249.942 119.533 251.883 119.628C253.925 119.729 255.946 117.971 256.082 115.871H256.1V106.027C256.221 104.583 256.849 102.782 258.011 102.787C259.654 102.802 257.956 106.773 261.722 106.773C267.125 106.773 267.703 96.9452 261.32 97.2083" fill="#4F2170"/>
<path d="M244.817 112.381C244.817 112.381 243.571 114.087 238.741 114.087C233.911 114.087 232.867 110.33 232.867 110.33C239.912 110.33 245.821 109.859 245.821 104.153C245.821 98.4463 239.374 96.5693 235.554 96.5693C229.243 96.5693 224.63 101.602 224.63 108.245C224.63 115.727 230.634 119.519 235.617 119.519C244.395 119.519 244.814 112.378 244.814 112.378M232.407 106.672C232.656 104.85 233.093 102.556 234.732 101.495C236.092 100.613 237.995 101.619 238.027 103.317C238.058 105.113 236.896 106.336 235.279 106.677C235.108 106.712 232.384 106.848 232.41 106.672" fill="#4F2170"/>
<path d="M224.141 115.264C224.141 115.264 222.035 119.524 218.146 119.524C214.944 119.524 211.005 116.696 210.84 112.603C210.837 112.566 210.817 106.674 210.802 101.752H209.715C209.145 101.752 208.142 101.413 208.142 99.9355C208.142 98.4576 209.272 98.1453 209.831 98.1453H210.791C210.785 96.4244 210.785 95.2416 210.788 95.1664C210.889 93.0435 212.928 91.2562 214.984 91.3603C216.919 91.4557 218.848 93.1332 218.909 95.1664V98.1424H222.336C222.811 98.1424 223.91 98.4518 223.91 99.9586C223.91 101.465 222.811 101.755 222.218 101.755H218.909V110.796C218.909 113.728 221.437 115.252 224.15 115.261" fill="#4F2170"/>
<path d="M332.423 115.264C332.423 115.264 330.318 119.524 326.431 119.524C323.229 119.524 319.287 116.696 319.125 112.603C319.122 112.566 319.102 106.674 319.088 101.752H318C317.431 101.752 316.427 101.413 316.427 99.9355C316.427 98.4576 317.558 98.1453 318.116 98.1453H319.076C319.07 96.4244 319.07 95.2416 319.073 95.1664C319.177 93.0435 321.214 91.2562 323.27 91.3603C325.205 91.4557 327.134 93.1332 327.194 95.1664V98.1424H330.622C331.096 98.1424 332.195 98.4518 332.195 99.9586C332.195 101.465 331.096 101.755 330.503 101.755H327.194V110.796C327.194 113.728 329.722 115.252 332.435 115.261" fill="#4F2170"/>
<path d="M21.8589 177.731C21.8589 178.029 22.0729 178.229 22.0729 178.515C22.0758 178.819 21.9254 179.082 21.7316 179.334C21.4771 179.658 21.1503 179.956 20.9854 180.285C20.407 181.448 19.6608 182.492 18.6833 183.406C18.1685 183.889 17.5929 184.172 16.9798 184.519C16.2134 184.95 15.5106 185.482 14.7442 185.922C13.9951 186.35 13.0928 186.639 12.1788 186.639C11.5194 186.639 10.8513 186.55 10.2295 186.55C9.60772 186.55 9.01194 186.599 8.38434 186.599C7.10601 186.599 7.15229 186.547 5.97518 186.11C4.827 185.685 3.7193 184.676 2.9095 183.707C2.9095 183.903 2.90661 184.112 2.90082 184.6C2.89793 184.904 2.89793 185.462 2.79382 185.977C2.67235 186.596 2.40338 187.154 1.79603 187.154C1.31304 187.154 1.1048 187.044 0.737499 186.741C0.430931 186.489 0.274754 186.084 0.185097 185.717C0.0751957 185.251 0.0404899 184.921 0.0404899 184.626C0.0404899 184.126 0.138822 183.724 0.138822 182.932C0.138822 182.353 0.127255 180.922 0.127255 179.38C0.127255 177.384 0.147499 175.212 0.234263 174.469C0.292106 173.986 0.312353 173.33 0.529264 172.896C0.639165 172.67 0.702793 172.514 0.95441 172.262C1.07877 172.135 1.35063 171.933 1.55019 171.933C1.76421 171.933 1.9869 172.164 2.05921 172.268C2.29926 172.612 2.49014 173.136 2.54798 173.529C2.6145 174.012 2.6521 175.108 2.67235 176.291C2.69259 177.153 2.70994 178.064 2.73308 178.804C2.7996 179.461 2.91818 180.146 3.22764 180.641C3.61519 181.263 4.05768 181.656 4.44234 182.258C4.87616 182.937 5.16249 183.302 6.02146 183.432C6.50444 183.507 7.99101 183.869 8.70537 183.869C9.41684 183.869 9.59904 183.571 10.2237 183.264C10.8687 182.946 11.7421 183.076 12.3495 182.703C12.8296 182.414 13.5237 181.78 13.7984 181.303C14.0703 180.835 14.2178 180.355 14.2178 179.915C14.2178 179.637 14.1571 179.348 14.0327 179.027C13.7811 178.368 13.3675 177.781 13.0581 177.147C12.7023 176.421 12.4854 175.661 12.0545 174.964C11.1926 173.567 9.92875 172.517 8.88468 171.265C7.86086 170.041 6.75895 168.867 5.6715 167.69C4.53489 166.461 3.4272 165.162 2.4323 163.823C1.46054 162.516 1.05274 160.763 0.665195 159.228C0.341274 157.932 0 156.549 0 155.187C0 153.333 0.697007 152.026 1.56754 150.548C2.39759 149.134 3.61808 147.977 5.00342 147.144C6.30489 146.366 7.19567 146.094 8.8037 145.958C9.7263 145.88 10.0213 145.458 11.0972 145.458C11.7826 145.458 12.3292 145.637 12.9944 145.765C13.6105 145.886 14.3132 146.213 14.99 146.482C15.7969 146.806 16.5604 147.109 17.0868 147.668C17.1389 146.791 17.1649 146.158 17.376 145.741C17.4859 145.516 17.5496 145.36 17.8012 145.108C17.9255 144.981 18.3333 144.778 18.53 144.778C18.744 144.778 18.9696 145.007 19.039 145.114C19.2762 145.461 19.4699 145.984 19.5278 146.378C19.6059 146.942 19.6608 148.905 19.6608 150.117C19.6608 151.205 19.6088 152.281 19.6088 152.957C19.6088 154.551 19.7823 155.207 19.7505 156.639C19.7331 157.313 19.7592 159.196 18.6428 159.196C18.1627 159.196 17.9516 159.086 17.5843 158.779C17.2777 158.528 17.1215 158.126 17.0319 157.755C16.922 157.293 16.8873 156.963 16.8873 156.665C16.8873 156.168 16.9856 155.766 16.9856 154.976C16.9856 154.542 16.9798 153.75 16.974 152.833C16.9538 152.278 16.8786 151.743 16.7224 151.265C16.4939 150.577 16.1324 149.921 15.6379 149.397C15.1925 148.929 14.6401 148.564 13.9806 148.379C13.3878 148.211 12.6474 148.081 11.9157 148.081C11.0885 148.081 10.27 148.246 9.69159 148.709C9.21439 149.091 9.06689 149.675 8.77767 150.178C8.3988 150.834 8.13562 151.427 7.93317 152.159C7.75385 152.813 7.52537 153.319 7.52537 154.105C7.52537 154.418 7.77699 154.849 7.84062 155.155C7.93606 155.607 7.79723 156.107 7.90424 156.535C8.05463 157.139 8.77478 157.576 9.2086 157.995C9.73786 158.504 9.89693 159.175 10.3076 159.771C10.8253 160.515 11.4847 161.148 12.1702 161.758C12.7168 162.247 13.275 162.721 13.7811 163.227C14.8309 164.271 15.9647 165.232 16.9422 166.339C17.405 166.863 17.6971 167.589 18.1974 168.066C18.3623 168.225 18.6023 168.28 18.7614 168.433C18.9927 168.659 19.1055 169.012 19.2964 169.263C19.7505 169.853 20.3752 170.345 20.7714 170.973C21.1387 171.563 21.2631 172.317 21.5378 172.954C21.8068 173.584 21.9341 174.246 22.1625 174.88C22.2493 175.111 22.2811 175.34 22.2811 175.562C22.2811 176.005 22.1568 176.447 22.0584 176.939C22.0093 177.182 21.8618 177.483 21.8618 177.729H21.8589V177.731Z" fill="#4F2170"/>
<path d="M52.3939 146.939C52.9926 146.939 54.1523 146.977 54.1523 147.896C54.1523 148.426 54.08 148.556 53.8371 148.932C53.6433 149.227 53.331 149.377 53.0475 149.467C52.605 149.603 52.3245 149.643 52.0526 149.643C51.9225 149.643 51.0982 149.637 50.1641 149.632C50.2306 150.083 50.3029 150.534 50.3029 151.011C50.3029 151.731 50.1814 152.449 50.1814 153.172C50.1814 154.274 50.3781 155.37 50.514 156.466C50.647 157.565 50.6875 158.67 50.7136 159.772C50.7309 160.683 50.7454 161.594 50.7888 162.502C50.835 163.468 50.9623 164.437 50.9623 165.403C50.9623 166.369 50.7136 167.32 50.7136 168.28C50.7136 169.24 50.728 170.163 50.728 171.091C50.728 172.202 50.7049 173.31 50.5979 174.44C50.5111 175.343 50.5661 176.228 50.5285 177.13C50.4938 178.053 50.3867 178.952 50.3867 179.875C50.3867 180.719 50.7136 181.827 50.7136 182.834C50.7136 183.522 50.5603 184.161 50.0397 184.632C49.2386 185.361 48.209 185.656 47.1418 185.656C46.3001 185.656 45.4325 185.408 44.6285 185.11C43.7579 184.791 42.9597 184.401 42.3437 183.898C40.967 182.779 40.1804 181.197 39.4805 179.6C38.6909 177.801 37.8898 176.002 37.1667 174.174C36.7561 173.133 36.3627 172.086 35.981 171.039C35.3736 169.376 34.7981 167.696 34.2399 166.016C33.8755 164.922 33.5197 163.823 33.164 162.73C32.8661 161.81 32.5277 160.923 32.0737 160.067C31.9204 159.772 31.7613 159.477 31.6109 159.477C31.4085 159.477 31.3882 160.023 31.3882 160.301C31.3882 160.604 31.4287 160.928 31.4287 161.18C31.4287 162.218 31.5704 163.202 31.5878 164.237C31.6196 166.244 31.8018 168.237 31.9348 170.241C31.9753 170.843 31.9869 171.444 31.9869 172.049C31.9869 173.388 31.9204 174.721 31.9204 176.066C31.9204 177.642 31.7758 179.178 31.7758 180.737C31.7758 181.217 31.7873 181.703 31.8249 182.191C31.8249 182.781 31.6977 183.345 31.6456 183.915C32.7851 183.88 33.7974 183.849 34.3324 183.849C34.9311 183.849 36.0937 183.883 36.0937 184.803C36.0937 185.335 36.0186 185.462 35.7756 185.841C35.5818 186.139 35.2753 186.293 34.9861 186.379C34.5493 186.515 34.2659 186.553 33.9912 186.556C33.8379 186.556 32.7446 186.544 31.7121 186.535C30.723 186.524 29.7946 186.515 29.5691 186.515C28.8865 186.515 27.5966 186.573 26.9054 186.573C26.5265 186.573 26.1534 186.559 25.7803 186.507C25.4073 186.454 24.904 186.42 24.5628 186.238C24.181 186.032 23.8108 185.491 23.8108 185.263C23.8108 185.118 23.831 184.977 24.0132 184.771C24.2302 184.528 24.7363 184.346 25.04 184.288C25.896 184.126 27.4115 183.999 27.7673 183.999C27.9581 183.999 28.1606 183.996 28.3775 183.993C28.418 181.364 28.5857 178.886 28.5857 176.17C28.5857 175.406 28.5742 174.646 28.5423 173.888C28.4267 171.169 28.3775 168.457 28.3775 165.747C28.3775 164.173 28.3948 162.603 28.4209 161.035C28.4527 159.309 28.4961 157.582 28.5452 155.856C28.6089 153.799 28.6783 151.737 28.7564 149.658H26.9112C26.5352 149.658 26.1592 149.643 25.7861 149.591C25.413 149.539 24.9098 149.504 24.5685 149.322C24.1897 149.12 23.8166 148.576 23.8166 148.35C23.8166 148.206 23.8397 148.061 24.019 147.859C24.2359 147.61 24.7421 147.434 25.0457 147.379C25.9018 147.217 28.0854 147.084 28.4411 147.084C28.7969 147.084 29.5344 147.052 30.3297 147.02C30.6796 146.711 31.0441 146.43 31.3795 146.176C31.8307 145.834 32.3744 145.667 32.9182 145.667C33.728 145.667 34.5262 146.048 34.9456 146.818C35.2984 147.463 35.7554 148.032 36.033 148.718C36.3887 149.6 36.6143 150.502 37.0163 151.364C37.3576 152.099 37.5716 152.862 37.8724 153.608C38.2079 154.444 38.5926 155.242 38.8239 156.116C39.0495 156.975 39.3301 157.811 39.5614 158.664C39.787 159.491 39.7639 160.22 40.2295 160.978C41.1463 162.461 41.9243 164.208 42.335 165.909C42.5432 166.771 42.7717 167.517 43.1737 168.306C43.6075 169.151 43.7579 170.024 43.9546 170.944C44.1397 171.797 44.5359 172.535 44.935 173.301C45.123 173.663 45.3949 173.981 45.5684 174.342C45.7506 174.721 45.7824 175.135 45.9213 175.525C46.1121 176.051 46.2568 176.693 46.4852 177.197C46.598 177.445 46.7195 177.576 46.8294 177.576C46.9509 177.576 47.0637 177.451 47.1389 177.171C47.188 176.983 47.2054 176.789 47.2054 176.586C47.2054 175.566 47.1446 174.542 47.1446 173.521C47.1446 171.43 47.2574 169.353 47.1591 167.265C47.0752 165.339 46.7484 163.473 46.7484 161.542C46.7484 160.185 46.7426 158.826 46.7426 157.472C46.7426 156.688 46.7484 155.91 46.7484 155.127C46.7484 153.918 46.6588 152.706 46.6588 151.494C46.6588 150.861 46.6848 150.236 46.7571 149.609C46.1671 149.626 45.5077 149.661 44.964 149.661C44.5851 149.661 44.2091 149.643 43.836 149.594C43.4658 149.542 42.9626 149.507 42.6184 149.325C42.2367 149.123 41.8665 148.579 41.8665 148.35C41.8665 148.206 41.8925 148.061 42.0718 147.859C42.2916 147.61 42.792 147.434 43.0985 147.376C43.9546 147.214 46.1382 147.081 46.4939 147.081C46.7745 147.081 47.2574 147.072 47.8359 147.055C48.1569 146.742 48.5502 146.54 49.0303 146.54C49.548 146.54 49.8112 146.725 49.9414 146.991C50.9507 146.959 51.9022 146.933 52.3881 146.933H52.391L52.3939 146.939Z" fill="#4F2170"/>
<path d="M70.0188 169.348C70.0131 169.081 69.9089 168.471 69.8685 168.214C69.7238 167.352 69.5734 166.742 69.5619 165.941C69.5301 164.133 69.4954 162.259 69.397 160.457C69.3537 159.604 69.2177 158.751 69.0847 157.889C68.9314 156.929 68.7868 155.963 68.7694 154.974C68.7665 154.664 68.7116 153.481 68.6248 152.605C68.5438 151.772 68.3964 151.228 68.1042 151.228C67.6357 151.228 67.0515 152.295 66.9908 152.567C66.7999 153.235 66.664 154.034 66.4933 154.707C66.4066 155.057 66.3718 155.39 66.3429 155.711C66.3024 156.073 66.2533 156.42 66.1289 156.778C65.8715 157.513 65.8137 158.317 65.698 159.051C65.4579 160.59 64.9489 162.062 64.5035 163.531C64.2982 164.226 64.1767 164.934 64.0494 165.648C63.9077 166.45 63.7573 167.268 63.4479 168.081C63.3206 168.413 63.069 169.481 63.0777 169.885C63.0806 170.085 63.2136 170.085 63.4826 170.085C63.8817 170.085 64.6192 170.019 64.8159 170.019C65.3018 170.019 65.7645 169.958 66.2301 169.9C66.5974 169.857 66.9676 169.816 67.3552 169.816C67.7427 169.816 68.2893 169.883 68.8244 169.883C69.1599 169.883 69.4954 169.883 69.7614 169.75C69.9003 169.654 70.0246 169.509 70.0217 169.345M84.7746 185.561C84.7804 185.922 84.5172 186.064 84.254 186.382C84.0111 186.68 83.6091 186.833 83.2417 186.92C82.617 187.071 82.1688 187.1 81.7147 187.097C81.3011 187.094 80.8904 187.059 80.338 187.059C80.231 187.059 80.0662 187.062 79.8435 187.065C79.5687 187.189 79.265 187.264 78.9672 187.342C78.6346 187.409 78.302 187.476 77.9665 187.476C77.2405 187.476 76.4712 187.354 75.7887 187.114C75.3144 187.117 74.8401 187.117 74.386 187.114C73.0064 187.114 71.8149 187.1 71.3319 187.047C70.8489 186.998 70.1924 186.981 69.7528 186.779C69.4607 186.643 68.7694 186.232 68.7637 185.807C68.7521 185.043 69.7499 184.922 70.3399 184.832C70.6175 184.792 71.2278 184.76 72.0086 184.731C71.9537 184.294 71.9334 183.843 71.9045 183.565C71.8438 183.001 71.8149 182.423 71.7108 181.923C71.6587 181.657 71.569 181.434 71.5661 181.121C71.5604 180.852 71.6876 180.462 71.6847 180.182C71.6789 179.849 71.4707 179.649 71.3984 179.181C71.3203 178.51 71.1121 177.842 71.0282 177.174C70.953 176.572 70.9964 176.043 70.8662 175.438C70.7216 174.767 70.7534 174.105 70.6291 173.431C70.5539 173.029 70.4874 172.896 70.2213 172.896C70.0883 172.896 69.8858 172.963 69.6197 172.963C68.9487 172.963 68.3009 173.012 67.656 173.064C67.0139 173.113 66.3776 173.165 65.7442 173.165C65.2092 173.165 64.677 173.232 64.1391 173.232C63.8991 173.232 63.1934 173.122 62.7248 173.119C62.1667 173.119 62.1377 173.553 62.1435 173.929C62.1522 174.556 61.9208 175.381 61.7762 176.043C61.5275 177.179 61.3308 178.267 61.1023 179.45C60.8681 180.667 60.3677 182.808 60.0265 184.034C60.5875 184.008 61.1457 183.999 61.9469 183.999C62.748 183.999 64.1507 184.037 64.2403 185.04C64.2056 185.503 64.1449 185.639 63.8499 185.995C63.6069 186.29 63.2078 186.446 62.8376 186.533C62.2679 186.669 61.9064 186.706 61.5506 186.709C61.1689 186.709 60.7958 186.671 60.2 186.671C59.3237 186.671 58.4271 186.729 57.5363 186.729C57.0476 186.729 56.5617 186.715 56.0787 186.663C55.5986 186.611 54.9479 186.576 54.4996 186.394C54.0021 186.191 53.5134 185.648 53.5076 185.419C53.5076 185.275 53.5365 185.13 53.765 184.928C54.0426 184.679 54.6905 184.502 55.0838 184.447C55.8849 184.329 56.7034 184.28 57.5132 184.222C57.5074 184.17 57.5016 184.121 57.5016 184.066C57.4901 183.398 57.6809 182.599 57.7417 182.261C57.9817 180.855 58.2333 179.519 58.4705 178.114C58.6498 177.041 58.8147 175.904 59.0807 174.767C59.1444 174.501 59.396 173.631 59.3873 173.162C59.3757 172.627 58.1726 172.627 57.7012 172.361C57.2963 172.162 57.0909 171.959 57.0909 171.69C57.0794 171.155 57.6144 171.022 58.2131 170.889C58.6122 170.823 59.477 170.747 59.8761 170.421C60.2058 170.152 60.1826 169.081 60.3099 168.616C60.6917 167.277 61.0387 165.935 61.38 164.668C61.7589 163.262 62.1348 161.926 62.4443 160.587C62.7596 159.254 63.0546 157.912 63.3148 156.576C63.5607 155.303 63.7602 154.045 64.1854 152.83C64.6308 151.561 65.0733 150.161 65.6546 148.949L66.2359 147.746C66.5078 147.185 66.6784 146.598 67.2135 146.207C68.1389 145.536 69.5416 145.337 70.7419 145.337C71.5459 145.337 72.0173 145.47 72.6218 145.742C73.232 146.008 73.2378 146.41 73.6485 147.009C73.9203 147.413 74.331 147.743 74.5364 148.148C74.7446 148.617 74.7533 149.082 74.895 149.554C75.1813 150.488 75.1437 151.555 75.3491 152.564C75.5718 153.634 76.0085 154.569 76.1386 155.639C76.2977 156.908 76.3642 158.051 76.6708 159.254C76.96 160.388 77.1856 161.527 77.2666 162.727C77.3042 163.297 77.417 163.867 77.5442 164.434C77.7148 165.194 77.9115 165.946 78.0041 166.675C78.0474 166.999 78.1342 167.696 78.2933 168.332C78.4263 168.87 78.6085 169.368 78.8573 169.553C79.0134 169.669 79.294 169.695 79.5947 169.697C79.8261 169.697 80.0633 169.686 80.2657 169.686C80.8673 169.686 81.5903 169.9 81.9519 170.421C82.0878 170.626 82.1572 170.756 82.1572 170.892C82.163 171.091 82.0299 171.291 81.7668 171.494C81.3734 171.826 81.0437 172.228 80.581 172.431C80.4364 172.503 80.1645 172.517 79.9187 172.546C79.7191 172.572 79.5398 172.607 79.4473 172.697C79.3836 172.763 79.3836 172.833 79.3865 172.966C79.3894 173.159 79.4559 173.417 79.5253 173.686C79.6005 173.981 79.6786 174.293 79.6815 174.568L79.6931 175.302C79.6989 175.569 79.7075 175.768 79.7712 176.037C79.9158 176.639 80.1269 177.243 80.205 177.845C80.2773 178.429 80.4335 179.03 80.5752 179.635C80.7256 180.268 80.8557 180.905 80.8702 181.523C80.8875 182.394 80.9598 182.863 81.1739 183.664C81.2346 183.895 81.2982 184.147 81.3387 184.41C81.8217 184.395 82.3249 184.39 82.8947 184.39C83.8549 184.39 84.7659 184.844 84.7775 185.564H84.7804L84.7746 185.561Z" fill="#4F2170"/>
<path d="M107.625 184.346C107.614 185.017 107.637 186.903 106.567 186.903C106.104 186.903 105.902 186.79 105.546 186.486C105.251 186.234 105.103 185.832 105.017 185.462C104.768 184.383 104.918 183.426 104.959 182.535C104.534 183.131 103.787 184.282 103.261 184.765C101.806 186.098 100.242 186.94 98.1072 186.94C97.6705 186.94 97.2193 186.905 96.7566 186.833C95.3047 186.602 93.7661 186.098 92.3721 185.367C91.2759 184.788 90.2695 184.065 89.4683 183.212C88.5689 182.261 87.9413 181.115 87.4872 179.958C86.9724 178.654 86.689 177.321 86.4894 175.895C86.2812 174.4 86.1829 172.884 86.1829 171.383C86.1829 169.882 86.261 168.43 86.3766 166.947C86.4894 165.55 86.4518 164.144 86.6919 162.759C86.9406 161.33 87.4525 159.867 87.9153 158.426C88.3954 156.94 88.8234 155.474 89.4105 154.103C89.9745 152.784 90.7843 151.76 91.7127 150.684C92.6005 149.66 93.3785 148.495 94.4052 147.598C95.4088 146.722 96.5801 146.352 97.8469 146.01C98.7117 145.776 99.6979 145.527 100.649 145.527C101.034 145.527 101.413 145.568 101.772 145.666C102.255 145.799 102.659 146.236 103.05 146.537C103.582 146.942 103.628 147.43 104.088 147.919C104.395 148.243 104.646 148.943 104.86 149.333C104.878 148.801 104.901 148.02 104.93 147.731C104.988 147.251 105.008 146.592 105.216 146.158C105.32 145.935 105.384 145.779 105.621 145.525C105.737 145.4 106.003 145.195 106.194 145.195C106.396 145.195 106.616 145.426 106.685 145.53C106.914 145.88 107.102 146.401 107.154 146.797C107.217 147.274 107.252 148.376 107.278 149.556C107.31 151.103 107.322 152.79 107.374 153.414C107.475 154.696 107.524 155.358 107.495 156.636C107.507 156.775 107.515 156.917 107.515 157.058C107.515 157.336 107.489 157.614 107.423 157.874C107.322 158.554 107.07 159.216 106.437 159.216C105.971 159.216 105.771 159.103 105.416 158.799C105.121 158.548 104.97 158.146 104.886 157.776C104.6 156.532 104.843 156.252 104.837 154.993C104.837 154.843 104.837 154.649 104.834 154.424C104.568 153.229 104.207 152.116 103.796 150.898C103.469 149.923 102.101 148.353 100.889 148.353C100.172 148.353 99.4868 148.804 98.9517 149.247C98.7232 149.438 98.5352 149.655 98.3299 149.866C98.1448 150.051 97.8093 150.256 97.6965 150.461C97.468 150.878 97.6242 151.575 97.4449 152.049C97.1788 152.755 96.9793 153.38 96.8289 154.126C96.5686 155.445 96.2446 156.769 95.9988 158.102C95.7472 159.436 95.5737 160.783 95.6113 162.14C95.6171 162.365 95.6922 162.623 95.6922 162.857C95.6922 163.207 95.5014 163.45 95.4927 163.803C95.484 164.196 95.5968 164.578 95.6228 164.96C95.6344 165.156 95.6257 165.356 95.5621 165.556C95.4551 165.911 95.3944 166.085 95.3944 166.305C95.3944 166.449 95.4175 166.611 95.4782 166.857C95.5245 167.074 95.5419 167.3 95.5448 167.519C95.5476 167.898 95.5072 168.286 95.5072 168.667C95.5072 170.154 96.0422 171.557 96.0971 173.032C96.1492 174.518 96.1984 175.944 96.5425 177.399C96.6843 178.006 96.6843 178.68 96.8578 179.27C97.0313 179.866 97.523 180.36 97.7688 180.945C98.2634 182.102 99.1079 182.987 100.461 183.024C101.728 183.059 103.319 181.65 103.903 180.673C104.366 179.895 104.716 179.316 104.959 178.449C104.964 176.699 104.991 174.724 105.063 174.09C105.118 173.61 105.138 172.951 105.346 172.517C105.45 172.294 105.514 172.135 105.751 171.884C105.873 171.759 106.133 171.554 106.33 171.554C106.526 171.554 106.749 171.785 106.818 171.889C107.047 172.239 107.235 172.757 107.287 173.153C107.353 173.633 107.385 176.069 107.411 177.249C107.443 178.796 107.455 180.482 107.507 181.104C107.608 182.397 107.657 183.056 107.628 184.349" fill="#4F2170"/>
<path d="M129.452 163.375C129.01 164.107 128.223 164.968 128.223 165.807C128.223 166.377 129.336 166.423 130.493 166.926C131.656 167.435 133.111 168.604 133.652 169.755C133.958 170.403 134.288 171.03 134.574 171.672C134.895 172.393 135.164 173.133 135.291 173.946C135.416 174.741 135.511 175.186 135.85 175.918C136.176 176.63 136.228 177.468 136.428 178.226C136.581 178.816 136.549 179.548 136.755 180.1C136.862 180.387 137.142 180.618 137.287 180.884C137.458 181.193 137.729 181.529 137.825 181.867C138.01 182.521 138.369 182.995 138.635 183.594C138.93 184.271 139.271 184.418 139.939 184.759C140.318 184.953 140.61 185.393 140.61 185.841C140.61 185.997 140.575 186.156 140.494 186.301C140.231 186.784 139.329 187.082 138.505 187.082C137.68 187.082 136.523 186.952 135.372 186.625C134.163 186.281 132.874 185.066 132.286 184.531C131.734 184.028 131.341 183.496 131.011 182.926C130.658 182.31 130.383 181.647 130.074 180.93C129.478 179.539 129.354 178.648 128.877 177.185C128.558 176.213 128.362 175.212 128.139 174.218C128.003 173.616 127.859 173.017 127.665 172.433C127.578 172.17 127.352 171.56 127.13 171.036C126.841 170.357 126.514 169.772 126.028 169.772C125.834 169.772 125.632 169.874 125.412 170.111C125.068 170.484 124.657 171.013 124.359 171.432C123.925 172.034 123.656 172.826 123.567 173.561C123.509 174.015 123.416 174.533 123.416 175.013C123.416 175.12 123.422 175.227 123.434 175.328C123.471 175.678 123.494 176.687 123.491 177.301C123.491 179.137 123.607 180.239 123.491 182.073C123.454 182.68 123.416 183.293 123.321 183.889C123.966 183.877 124.489 183.869 124.807 183.869C125.614 183.869 127.176 183.906 127.176 184.826C127.176 185.358 127.078 185.485 126.748 185.864C126.491 186.162 126.071 186.315 125.689 186.402C125.097 186.538 124.712 186.576 124.348 186.579C124.18 186.579 123.194 186.581 122.054 186.587C121.669 186.917 121.227 187.047 120.767 187.047C120.209 187.047 119.628 186.856 119.087 186.602H118.129C117.213 186.602 115.74 186.596 114.815 186.596C114.306 186.596 113.8 186.581 113.294 186.527C112.796 186.477 112.12 186.443 111.66 186.258C111.145 186.055 110.645 185.514 110.645 185.286C110.645 185.144 110.679 184.999 110.925 184.797C111.217 184.548 111.891 184.372 112.305 184.317C113.456 184.152 114.65 184.022 115.119 184.022C115.414 184.022 115.839 184.019 116.345 184.007C116.302 183.874 116.247 183.741 116.177 183.614C115.399 182.261 115.278 180.815 115.278 179.27C115.278 177.465 115.321 175.655 115.367 173.842C115.419 171.889 115.472 169.931 115.472 167.985C115.472 166.342 115.338 164.708 115.338 163.063C115.338 161.509 115.518 159.974 115.518 158.409C115.518 157.443 115.66 156.509 115.66 155.526C115.66 154.768 115.547 154.016 115.526 153.258C115.492 151.925 115.521 150.704 115.532 149.429C115.315 149.443 115.495 149.478 114.815 149.478C114.306 149.478 113.8 149.464 113.3 149.412C112.799 149.36 112.125 149.322 111.66 149.143C111.151 148.94 110.647 148.396 110.647 148.165C110.647 148.023 110.679 147.879 110.925 147.676C111.217 147.428 111.897 147.251 112.305 147.196C113.456 147.031 115.07 146.933 115.538 146.933C115.625 146.933 115.781 146.93 115.998 146.927C116.342 146.491 116.86 146.222 117.496 146.216C117.655 146.213 117.826 146.224 117.999 146.256C118.485 146.343 119.194 146.557 119.732 146.846C121.802 146.803 124.015 146.757 124.813 146.757C125.611 146.757 127.182 146.791 127.182 147.711C127.182 148.24 127.086 148.37 126.757 148.749C126.496 149.047 126.077 149.2 125.692 149.287C125.068 149.429 124.677 149.467 124.29 149.467C123.986 149.467 122.803 149.461 121.421 149.452C121.684 149.944 121.898 150.433 121.895 150.991C121.895 151.28 121.834 151.549 121.834 151.902C121.834 152.13 121.912 152.243 121.962 152.489C122.095 153.105 122.115 153.779 122.225 154.435C122.259 154.641 122.274 154.849 122.274 155.057C122.274 155.491 122.219 155.928 122.219 156.367C122.219 157.267 122.433 158.172 122.549 159.077C122.638 159.774 122.922 160.422 123.055 161.107C123.159 161.651 123.225 162.198 123.225 162.75C123.225 162.944 123.22 163.141 123.199 163.337C123.159 163.754 123.159 164.136 123.168 164.558C123.179 164.919 123.075 165.405 123.075 165.807C123.075 166.067 123.162 166.6 123.428 166.6C123.694 166.6 124.006 166.131 124.171 165.801C124.553 165.029 124.917 164.254 125.299 163.482C125.577 162.918 125.877 162.363 126.187 161.813C126.722 160.862 127.289 159.927 127.804 158.964C128.217 158.198 128.628 157.423 129.033 156.651C129.591 155.592 130.14 154.525 130.681 153.458C131.277 152.289 131.861 151.112 132.434 149.938C132.483 149.84 132.521 149.762 132.553 149.689C132.237 149.686 131.928 149.666 131.616 149.623C131.257 149.571 130.777 149.536 130.447 149.354C130.083 149.151 129.724 148.608 129.724 148.379C129.724 148.234 129.747 148.09 129.921 147.887C130.132 147.639 130.615 147.462 130.907 147.404C131.731 147.242 132.677 147.109 133.198 147.109C133.438 147.109 133.724 147.107 134.048 147.098C134.117 147.049 134.192 146.997 134.276 146.95C134.58 146.78 134.855 146.722 135.132 146.722C135.424 146.722 135.722 146.788 136.061 146.849C136.266 146.887 136.376 146.936 136.454 147.028C137.573 146.994 138.635 146.959 139.173 146.959C139.745 146.959 140.862 146.997 140.862 147.913C140.862 148.446 140.795 148.576 140.558 148.955C140.373 149.25 140.075 149.4 139.8 149.49C139.378 149.626 139.106 149.663 138.843 149.666C138.698 149.666 137.455 149.655 136.205 149.646C135.983 150.175 135.754 150.493 135.471 151.031C134.829 152.24 134.351 153.464 133.727 154.655C133.015 156.023 132.521 157.559 131.902 158.979C131.234 160.517 130.32 161.94 129.455 163.375" fill="#4F2170"/>
<path d="M156.639 183.874C157.469 183.874 159.097 183.915 159.005 184.916C158.961 185.375 158.892 185.511 158.582 185.87C158.322 186.165 157.903 186.315 157.521 186.405C156.928 186.541 156.546 186.581 156.179 186.581C156 186.581 154.805 186.535 153.559 186.555C152.017 186.581 150.363 186.677 150.022 186.677C149.11 186.677 147.569 186.605 146.641 186.602C146.134 186.602 145.628 186.581 145.125 186.532C144.625 186.48 143.948 186.446 143.485 186.263C142.976 186.061 142.473 185.517 142.473 185.289C142.473 185.147 142.505 185.002 142.751 184.797C143.04 184.554 143.722 184.375 144.13 184.317C145.281 184.152 146.62 184.022 147.089 184.022C147.242 184.022 147.468 184.019 147.742 184.016C147.297 183.62 146.976 183.151 146.976 182.579C146.976 182.246 146.927 181.971 146.849 181.65C146.797 181.442 146.779 181.237 146.779 181.031C146.779 180.841 146.794 180.65 146.805 180.45C146.831 179.892 146.846 179.334 146.846 178.778C146.846 178.55 146.846 178.321 146.84 178.093C146.782 174.996 146.941 171.907 146.866 168.812C146.826 167.172 146.869 165.541 146.921 163.907C146.965 162.493 147.017 161.076 147.025 159.661C147.028 158.886 147.028 158.108 147.028 157.333C147.028 156.359 147.028 155.381 147.028 154.409C147.028 153.035 146.988 151.656 147.031 150.282C147.034 150.08 147.051 149.88 147.069 149.678C146.936 149.678 146.791 149.683 146.643 149.683C146.134 149.683 145.628 149.663 145.122 149.614C144.625 149.565 143.948 149.53 143.488 149.345C142.973 149.143 142.473 148.602 142.473 148.373C142.473 148.232 142.401 148.049 142.618 147.815C142.843 147.572 143.653 147.459 144.067 147.399C145.154 147.248 146.6 147.121 147.155 147.109C147.144 146.988 147.135 146.869 147.135 146.757C147.135 146.462 147.184 146.193 147.343 146.013C147.543 145.796 147.977 145.646 148.246 145.522C148.57 145.371 148.905 145.258 149.258 145.198C149.556 145.149 149.865 145.12 150.175 145.12C150.591 145.12 151.005 145.169 151.398 145.27C152.379 145.519 153.186 146.143 153.663 146.997C154.967 146.976 156.101 146.956 156.639 146.956C157.466 146.956 159.1 146.997 159.005 147.994C158.961 148.454 158.892 148.59 158.582 148.949C158.322 149.244 157.903 149.394 157.518 149.484C156.925 149.62 156.543 149.657 156.176 149.66C156.043 149.66 155.285 149.657 154.308 149.649L154.322 149.773C154.429 150.534 154.562 151.289 154.661 152.052C154.762 152.807 154.82 153.559 154.82 154.32C154.82 155.08 154.776 155.769 154.776 156.52C154.776 156.891 154.704 157.244 154.704 157.625C154.704 157.932 154.756 158.233 154.805 158.539C155.034 160.058 155.022 161.634 155.077 163.17C155.141 164.882 155.172 166.591 155.204 168.303C155.23 169.7 155.256 171.094 155.303 172.485C155.349 174.041 155.603 175.583 155.641 177.136C155.661 177.879 155.693 178.622 155.716 179.368C155.739 180.161 155.742 180.953 155.69 181.743C155.641 182.44 155.615 183.227 155.366 183.886C155.91 183.877 156.35 183.874 156.63 183.874H156.639Z" fill="#4F2170"/>
<path d="M189.305 146.962C189.904 146.962 191.064 147 191.064 147.919C191.064 148.449 190.992 148.579 190.749 148.955C190.555 149.25 190.242 149.4 189.959 149.49C189.517 149.626 189.236 149.666 188.964 149.666C188.834 149.666 188.01 149.66 187.076 149.655C187.142 150.106 187.214 150.557 187.214 151.034C187.214 151.754 187.093 152.472 187.093 153.195C187.093 154.296 187.29 155.393 187.426 156.489C187.559 157.588 187.602 158.693 187.625 159.794C187.642 160.705 187.657 161.617 187.7 162.525C187.747 163.491 187.874 164.459 187.874 165.425C187.874 166.391 187.625 167.343 187.625 168.303C187.625 169.252 187.64 170.186 187.64 171.114C187.64 172.225 187.616 173.333 187.509 174.463C187.423 175.366 187.478 176.251 187.44 177.153C187.405 178.076 187.298 178.975 187.295 179.898C187.295 180.742 187.625 181.85 187.625 182.856C187.625 183.545 187.472 184.184 186.951 184.655C186.15 185.384 185.121 185.679 184.053 185.679C183.212 185.679 182.344 185.43 181.54 185.133C180.669 184.814 179.871 184.424 179.255 183.921C177.879 182.802 177.092 181.219 176.392 179.623C175.602 177.824 174.801 176.025 174.078 174.197C173.668 173.156 173.274 172.109 172.89 171.062C172.285 169.399 171.707 167.719 171.149 166.039C170.784 164.945 170.428 163.846 170.073 162.753C169.775 161.833 169.436 160.946 168.982 160.089C168.829 159.794 168.67 159.499 168.52 159.499C168.317 159.499 168.297 160.046 168.297 160.324C168.297 160.627 168.337 160.951 168.337 161.203C168.337 162.241 168.479 163.225 168.496 164.26C168.528 166.267 168.71 168.26 168.843 170.264C168.884 170.866 168.896 171.467 168.896 172.072C168.896 173.411 168.829 174.744 168.829 176.089C168.829 177.665 168.684 179.201 168.684 180.76C168.684 181.24 168.696 181.726 168.734 182.214C168.734 182.804 168.606 183.368 168.554 183.938C169.694 183.903 170.706 183.872 171.241 183.872C171.84 183.872 173.002 183.906 173.002 184.826C173.002 185.358 172.927 185.485 172.684 185.864C172.49 186.162 172.184 186.315 171.895 186.402C171.458 186.538 171.172 186.576 170.9 186.579C170.747 186.579 169.653 186.567 168.618 186.558C167.629 186.547 166.7 186.538 166.475 186.538C165.792 186.538 164.502 186.596 163.811 186.596C163.432 186.596 163.059 186.582 162.686 186.529C162.313 186.477 161.81 186.443 161.469 186.261C161.087 186.055 160.717 185.514 160.717 185.286C160.717 185.141 160.74 185 160.919 184.794C161.136 184.551 161.642 184.369 161.946 184.311C162.802 184.149 164.317 184.022 164.673 184.022C164.864 184.022 165.066 184.019 165.283 184.016C165.324 181.387 165.491 178.909 165.491 176.193C165.491 175.429 165.48 174.669 165.448 173.911C165.332 171.192 165.283 168.48 165.283 165.77C165.283 164.196 165.301 162.626 165.327 161.058C165.358 159.332 165.402 157.605 165.451 155.878C165.515 153.822 165.584 151.76 165.659 149.681H163.814C163.438 149.681 163.062 149.666 162.689 149.614C162.316 149.562 161.813 149.527 161.471 149.345C161.093 149.143 160.719 148.599 160.719 148.373C160.719 148.229 160.743 148.084 160.922 147.882C161.139 147.633 161.645 147.457 161.949 147.402C162.805 147.24 164.988 147.107 165.344 147.107C165.7 147.107 166.437 147.075 167.233 147.043C167.583 146.734 167.947 146.453 168.282 146.198C168.734 145.857 169.277 145.689 169.821 145.689C170.631 145.689 171.429 146.071 171.848 146.841C172.201 147.485 172.658 148.055 172.936 148.741C173.292 149.623 173.517 150.525 173.919 151.387C174.26 152.122 174.475 152.885 174.775 153.631C175.111 154.467 175.495 155.265 175.727 156.139C175.952 156.998 176.233 157.834 176.464 158.687C176.69 159.514 176.667 160.243 177.132 161C178.049 162.484 178.827 164.231 179.238 165.932C179.446 166.793 179.675 167.54 180.077 168.329C180.51 169.174 180.661 170.047 180.857 170.967C181.043 171.82 181.439 172.558 181.838 173.324C182.026 173.685 182.298 174.004 182.471 174.365C182.653 174.744 182.685 175.158 182.824 175.548C183.015 176.074 183.16 176.716 183.388 177.22C183.501 177.468 183.622 177.599 183.732 177.599C183.854 177.599 183.967 177.474 184.042 177.194C184.091 177.006 184.108 176.812 184.108 176.609C184.108 175.588 184.05 174.565 184.05 173.544C184.05 171.453 184.163 169.376 184.065 167.288C183.981 165.362 183.654 163.496 183.654 161.564C183.654 160.208 183.648 158.849 183.648 157.495C183.648 156.711 183.654 155.933 183.654 155.15C183.654 153.941 183.565 152.729 183.565 151.517C183.565 150.884 183.591 150.259 183.663 149.631C183.073 149.646 182.413 149.684 181.87 149.684C181.491 149.684 181.115 149.666 180.742 149.617C180.372 149.565 179.868 149.53 179.524 149.348C179.142 149.146 178.772 148.602 178.772 148.373C178.772 148.229 178.798 148.084 178.978 147.882C179.197 147.633 179.698 147.457 180.004 147.399C180.86 147.237 183.044 147.104 183.4 147.104C183.68 147.104 184.163 147.095 184.742 147.078C185.063 146.765 185.456 146.563 185.936 146.563C186.454 146.563 186.717 146.748 186.847 147.014C187.856 146.982 188.808 146.956 189.294 146.956H189.297L189.305 146.962Z" fill="#4F2170"/>
<path d="M218.753 169.41C218.753 170.018 218.082 170.46 217.587 170.697C216.867 171.042 215.78 171.206 214.999 171.305C214.302 171.389 213.871 171.435 213.871 172.089C213.871 172.577 213.978 173.734 213.978 174.133C213.978 174.359 213.978 175.921 213.987 176.146C214.001 176.568 214.013 177.04 214.024 177.529C214.056 179.076 214.068 180.965 214.12 181.586C214.221 182.876 214.27 183.539 214.241 184.828C214.23 185.505 214.253 187.388 213.183 187.388C212.717 187.388 212.518 187.275 212.162 186.972C211.867 186.72 211.716 186.318 211.633 185.948C211.526 185.485 211.491 185.155 211.491 184.857C211.491 184.36 211.586 183.955 211.583 183.168V183.003C211.205 184.282 210.392 185.343 209.281 186.199C207.708 187.414 206.531 187.966 204.55 187.966C203.355 187.966 202.161 187.767 201.047 187.394C199.734 186.948 198.667 186.228 197.762 185.335C196.455 184.042 195.491 182.387 194.621 180.681C193.95 179.368 193.591 178.023 193.343 176.644C193.169 175.695 193.045 174.729 192.906 173.743C192.767 172.783 192.819 172.117 192.819 171.25C192.819 167.88 193.684 164.485 194.543 160.777C194.927 159.109 195.318 157.391 195.85 155.728C196.42 153.955 197.146 152.243 198.207 150.716C199.124 149.394 200.18 147.968 201.406 146.918C201.976 146.432 202.583 146.117 203.3 145.909C204.2 145.649 204.986 145.171 205.947 145.137C206.111 145.131 206.25 145.128 206.375 145.128C206.803 145.128 207.063 145.166 207.708 145.264C208.492 145.388 209.249 145.608 209.857 145.97C210.4 146.293 210.811 146.768 211.126 147.309C211.164 146.918 211.213 146.49 211.364 146.181C211.471 145.958 211.531 145.802 211.771 145.547C211.89 145.423 212.153 145.218 212.347 145.218C212.541 145.218 212.763 145.449 212.836 145.553C213.064 145.903 213.252 146.424 213.304 146.82C213.371 147.297 213.403 148.399 213.429 149.576C213.46 151.123 213.472 152.809 213.524 153.437C213.625 154.727 213.672 155.386 213.648 156.679C213.631 157.353 213.657 159.236 212.584 159.236C212.121 159.236 211.919 159.123 211.563 158.822C211.271 158.568 211.106 158.169 211.031 157.796C210.962 157.425 210.944 157.101 210.944 156.766C210.944 156.283 210.985 155.774 210.988 155.051C210.947 154.637 210.901 154.218 210.855 153.799C210.756 152.882 210.6 151.965 210.464 151.077C210.334 150.241 209.97 149.426 209.472 148.662C209.131 148.13 208.269 147.913 207.65 147.913C206.765 147.913 206.236 148.344 205.808 149.05C205.394 149.741 204.781 150.308 204.506 151.077C204.229 151.87 204.072 152.766 204 153.599C203.922 154.472 203.775 155.172 203.529 156.008C203.263 156.916 203.199 157.9 203.02 158.828C202.855 159.667 202.774 160.505 202.696 161.356C202.624 162.145 202.389 162.903 202.302 163.696C202.207 164.595 202.088 165.489 201.973 166.382C201.866 167.238 201.756 168.094 201.675 168.956C201.6 169.717 201.496 170.483 201.496 171.25C201.496 172.337 201.637 173.41 201.684 174.495C201.744 175.958 202.21 177.439 202.49 178.879C202.597 179.449 202.719 180.03 202.881 180.594C203.086 181.329 203.361 182.04 203.772 182.685C204.359 183.611 205.383 184.672 206.568 184.666C207.555 184.661 208.307 183.883 208.824 183.122C209.631 181.933 210.077 180.603 210.343 179.229C210.577 178.02 210.675 176.777 210.756 175.559C210.814 174.715 210.837 173.535 210.843 172.69C210.843 172.54 210.849 172.375 210.849 172.219C210.849 171.574 210.823 171.374 209.9 171.374C209.16 171.374 208.359 171.478 207.575 171.478C206.892 171.478 206.224 171.397 205.623 171.097C205.371 170.969 205.226 170.825 205.218 170.651C205.209 170.518 205.281 170.362 205.443 170.183C205.811 169.781 206.195 169.72 206.603 169.515C207.422 169.107 208.362 169.006 209.325 168.852C210.192 168.716 211.077 168.647 211.896 168.577C212.567 168.525 213.241 168.499 213.914 168.499C214.933 168.499 216.517 168.404 217.168 168.404C217.911 168.404 218.762 168.656 218.762 169.416" fill="#4F2170"/>
<path d="M263.116 183.892C263.923 183.892 265.485 183.929 265.485 184.849C265.485 185.378 265.386 185.509 265.057 185.885C264.799 186.18 264.38 186.333 263.998 186.42C263.405 186.556 263.02 186.596 262.653 186.596C262.517 186.596 261.751 186.593 260.773 186.587C259.917 187.059 258.908 187.362 257.919 187.362C257.326 187.362 256.742 187.255 256.204 187.01C255.932 186.885 255.686 186.732 255.475 186.558C254.677 186.567 253.945 186.61 253.121 186.61C252.612 186.61 252.105 186.593 251.599 186.544C251.099 186.492 250.422 186.457 249.96 186.275C249.45 186.073 248.947 185.529 248.947 185.3C248.947 185.156 248.979 185.014 249.225 184.809C249.52 184.566 250.197 184.384 250.604 184.326C251.758 184.164 253.346 184.036 253.818 184.036H254.046C253.98 183.767 253.922 183.499 253.878 183.224C253.607 181.601 253.482 179.938 253.346 177.867C253.21 175.765 253.262 173.648 253.167 171.583C253.077 169.712 253.04 167.84 252.996 165.972C252.953 164.141 252.909 162.311 252.811 160.486C252.724 158.8 252.594 156.506 252.594 155.864C252.594 155.566 252.519 155.401 252.409 155.401C252.346 155.401 252.276 155.494 252.23 155.679C252.042 156.425 251.987 157.206 251.822 157.958C251.461 159.63 251.137 161.31 250.758 162.976C250.388 164.584 249.974 166.201 249.783 167.838C249.688 168.668 249.503 169.46 249.294 170.247C249.086 171.054 248.852 171.861 248.693 172.696C248.519 173.576 248.369 174.478 247.921 175.14C247.516 175.733 246.874 176.126 245.754 176.126C244.485 176.126 243.125 175.643 242.229 174.787C241.052 173.665 240.67 171.849 240.294 170.333C239.875 168.653 239.559 166.944 239.204 165.252C239.134 164.916 238.859 163.47 238.504 161.7C238.177 160.089 237.789 158.215 237.431 156.671C237.168 155.531 236.922 154.568 236.728 154.033C236.624 153.735 236.598 153.634 236.531 153.634C236.395 153.634 236.317 154.028 236.274 154.687C236.236 155.251 236.225 156.075 236.21 156.226C236.161 156.975 236.1 157.735 236.1 158.49C236.1 159.092 236.048 160.124 235.982 161.258C235.921 162.27 235.849 163.36 235.794 164.277C235.745 165.078 235.693 165.894 235.675 166.695C235.664 167.412 235.539 168.054 235.539 168.751C235.539 169.289 235.554 169.83 235.554 170.368C235.554 170.857 235.539 171.34 235.487 171.826C235.389 172.766 235.224 173.706 235.074 174.637C234.77 176.5 234.565 178.385 234.42 180.268C234.356 181.069 234.406 182.105 234.325 183.097C234.301 183.386 234.267 183.675 234.218 183.953C235.565 183.918 236.855 183.886 237.422 183.886C238.07 183.886 239.394 184.051 239.394 184.979C239.394 185.523 239.05 185.506 238.784 185.879C238.576 186.174 238.241 186.324 237.931 186.414C237.451 186.553 237.144 186.59 236.849 186.59C236.525 186.593 233.298 186.553 232.8 186.553C232.063 186.553 229.928 186.613 229.179 186.61C228.772 186.61 228.364 186.596 227.959 186.544C227.557 186.489 227.013 186.454 226.643 186.275C226.229 186.07 225.96 185.529 225.96 185.297C225.96 185.156 225.989 185.011 226.183 184.809C226.42 184.56 226.828 184.384 227.158 184.326C228.083 184.164 229.9 184.031 230.278 184.031C230.487 184.031 230.831 184.025 231.262 184.019C231.317 182.405 231.539 180.789 231.667 179.181C231.829 177.153 231.947 175.123 232.046 173.093C232.132 171.398 232.205 169.7 232.277 168.005C232.381 165.596 232.497 163.184 232.659 160.778C232.74 159.563 232.835 158.351 232.945 157.139C233.121 155.222 233.353 154.045 233.63 152.139C233.761 151.248 233.824 150.224 233.951 149.334C233.96 149.261 233.975 149.189 233.983 149.117C233.584 149.137 233.275 149.16 232.664 149.16C232.158 149.16 231.652 149.143 231.149 149.091C230.649 149.039 229.972 149.004 229.509 148.822C228.997 148.619 228.497 148.078 228.497 147.847C228.497 147.705 228.529 147.561 228.772 147.358C229.064 147.109 229.743 146.933 230.151 146.875C231.302 146.71 232.89 146.58 233.361 146.58C234.692 146.58 235.753 146.427 237.312 146.43C237.486 146.43 237.685 146.427 237.896 146.427C238.483 146.427 239.152 146.459 239.617 146.696C240.479 147.138 241.497 148.047 241.957 149.724C242.394 151.326 243.117 152.989 243.55 154.713C243.747 155.482 243.649 156.252 243.892 157.012C244.178 157.903 244.401 158.797 244.528 159.722C244.635 160.494 244.667 161.226 244.997 161.946C245.338 162.698 245.399 163.291 245.535 164.101C245.584 164.379 245.971 165.556 246.266 166.496C246.544 167.366 246.717 168.014 246.923 168.014C247.336 168.014 247.472 165.981 247.536 165.622C247.707 164.691 247.871 163.754 248.045 162.823C248.401 160.905 248.791 158.988 249.179 157.076C249.575 155.106 249.925 153.119 250.393 151.17C250.781 149.574 251.382 147.989 252.531 146.786C253.288 145.993 254.353 145.426 255.431 145.426C255.859 145.426 256.421 145.481 256.869 145.785L261.184 145.77C262.011 145.77 263.55 145.811 263.547 146.812C263.547 147.274 263.437 147.407 263.125 147.766C262.864 148.061 262.445 148.214 262.06 148.301C261.467 148.44 261.086 148.477 260.721 148.48C260.493 148.48 259.755 148.469 259.044 148.457C259.107 148.59 259.157 148.735 259.18 148.891C259.313 149.715 259.42 150.557 259.515 151.401C259.616 152.286 259.712 153.171 259.822 154.045C259.9 154.661 260.094 155.262 260.094 155.881C260.094 155.983 260.094 156.084 260.085 156.188C260.065 156.39 260.056 156.59 260.056 156.787C260.056 157.394 260.131 157.987 260.201 158.62C260.29 159.421 260.475 160.251 260.487 161.058C260.49 161.304 260.429 161.559 260.429 161.81C260.429 162.209 260.655 162.536 260.736 162.915C260.788 163.149 260.814 163.392 260.822 163.635C260.848 164.127 260.814 164.636 260.814 165.159C260.814 165.683 260.834 166.186 260.874 166.698C260.921 167.262 260.996 167.826 261.097 168.393C261.187 168.853 261.227 169.249 261.227 169.657C261.227 169.905 261.175 170.134 261.175 170.455C261.175 170.759 261.19 170.721 261.279 170.981C261.43 171.412 261.505 171.762 261.566 172.236C261.655 172.971 261.739 173.706 261.814 174.446C261.913 175.392 262 176.338 262.078 177.28C262.089 177.405 262.092 177.529 262.092 177.648C262.092 177.992 262.028 178.319 262.028 178.645C262.028 179.484 262.124 179.797 262.214 180.129C262.283 180.381 262.306 180.618 262.312 180.849C262.318 181.156 262.289 181.451 262.289 181.76C262.289 181.94 262.3 182.125 262.329 182.319C262.399 182.735 262.445 183.157 262.445 183.577C262.445 183.687 262.442 183.799 262.433 183.906C262.711 183.903 262.939 183.903 263.116 183.903V183.892Z" fill="#4F2170"/>
<path d="M283.043 169.379C283.037 169.113 282.93 168.503 282.89 168.246C282.745 167.384 282.595 166.773 282.583 165.972C282.551 164.165 282.517 162.291 282.421 160.489C282.378 159.636 282.242 158.782 282.106 157.921C281.953 156.96 281.808 155.994 281.791 155.005C281.788 154.696 281.733 153.513 281.646 152.637C281.565 151.804 281.418 151.26 281.126 151.26C280.657 151.26 280.073 152.327 280.012 152.599C279.824 153.267 279.685 154.065 279.515 154.739C279.428 155.089 279.393 155.422 279.364 155.743C279.327 156.104 279.275 156.451 279.15 156.81C278.893 157.545 278.835 158.349 278.719 159.083C278.479 160.622 277.97 162.094 277.525 163.563C277.319 164.257 277.198 164.966 277.071 165.68C276.929 166.481 276.779 167.3 276.469 168.113C276.342 168.445 276.09 169.512 276.099 169.917C276.102 170.117 276.235 170.117 276.504 170.117C276.903 170.117 277.64 170.05 277.837 170.05C278.323 170.05 278.786 169.992 279.251 169.935C279.619 169.891 279.989 169.851 280.376 169.851C280.764 169.851 281.313 169.917 281.846 169.917C282.181 169.917 282.517 169.917 282.783 169.784C282.922 169.689 283.046 169.544 283.043 169.379ZM297.799 185.593C297.805 185.954 297.541 186.096 297.278 186.414C297.035 186.712 296.636 186.865 296.266 186.952C295.641 187.102 295.193 187.131 294.739 187.128C294.325 187.125 293.915 187.091 293.362 187.091C293.255 187.091 293.09 187.094 292.871 187.097C292.593 187.221 292.292 187.296 291.991 187.374C291.659 187.441 291.326 187.507 290.991 187.507C290.265 187.507 289.495 187.386 288.813 187.146C288.339 187.149 287.864 187.149 287.41 187.146C286.031 187.146 284.839 187.131 284.356 187.079C283.876 187.03 283.217 187.013 282.777 186.81C282.485 186.674 281.794 186.264 281.788 185.838C281.776 185.075 282.774 184.953 283.364 184.864C283.639 184.823 284.249 184.792 285.033 184.763C284.978 184.326 284.958 183.875 284.929 183.597C284.868 183.033 284.839 182.455 284.735 181.954C284.683 181.688 284.593 181.466 284.59 181.153C284.585 180.884 284.712 180.494 284.709 180.213C284.703 179.881 284.495 179.681 284.423 179.213C284.344 178.542 284.136 177.874 284.052 177.205C283.977 176.604 284.021 176.075 283.89 175.47C283.746 174.799 283.778 174.137 283.653 173.463C283.578 173.061 283.512 172.928 283.245 172.928C283.112 172.928 282.913 172.994 282.644 172.994C281.973 172.994 281.325 173.044 280.68 173.096C280.038 173.145 279.402 173.197 278.768 173.197C278.233 173.197 277.701 173.263 277.163 173.263C276.923 173.263 276.218 173.154 275.749 173.151C275.191 173.151 275.162 173.584 275.168 173.96C275.176 174.588 274.945 175.412 274.8 176.075C274.552 177.211 274.355 178.299 274.127 179.482C273.892 180.699 273.392 182.839 273.051 184.066C273.612 184.04 274.17 184.031 274.971 184.031C275.772 184.031 277.175 184.068 277.264 185.072C277.23 185.535 277.169 185.671 276.874 186.026C276.631 186.321 276.232 186.478 275.862 186.564C275.292 186.7 274.931 186.738 274.575 186.741C274.19 186.741 273.82 186.703 273.224 186.703C272.348 186.703 271.451 186.761 270.561 186.761C270.072 186.761 269.586 186.747 269.103 186.695C268.623 186.645 267.972 186.608 267.524 186.426C267.026 186.223 266.538 185.679 266.532 185.451C266.532 185.306 266.561 185.162 266.789 184.959C267.067 184.711 267.715 184.534 268.108 184.479C268.909 184.361 269.728 184.311 270.537 184.254C270.532 184.202 270.526 184.152 270.526 184.097C270.514 183.429 270.705 182.631 270.766 182.293C271.006 180.887 271.258 179.551 271.495 178.145C271.674 177.072 271.839 175.936 272.105 174.799C272.169 174.533 272.42 173.663 272.411 173.194C272.4 172.659 271.197 172.659 270.725 172.393C270.32 172.193 270.115 171.991 270.115 171.722C270.104 171.187 270.639 171.054 271.237 170.921C271.636 170.854 272.501 170.779 272.9 170.452C273.23 170.186 273.207 169.113 273.334 168.648C273.716 167.308 274.063 165.967 274.404 164.7C274.783 163.294 275.159 161.958 275.468 160.619C275.784 159.283 276.079 157.944 276.339 156.608C276.585 155.335 276.784 154.077 277.21 152.862C277.655 151.593 278.097 150.193 278.682 148.981L279.26 147.778C279.532 147.217 279.703 146.63 280.238 146.239C281.163 145.568 282.566 145.369 283.772 145.369C284.573 145.369 285.041 145.502 285.649 145.774C286.259 146.04 286.265 146.442 286.676 147.04C286.947 147.445 287.358 147.775 287.563 148.18C287.772 148.648 287.78 149.114 287.922 149.585C288.208 150.52 288.168 151.587 288.373 152.596C288.596 153.666 289.033 154.6 289.163 155.67C289.322 156.94 289.388 158.083 289.695 159.286C289.984 160.419 290.21 161.559 290.291 162.759C290.328 163.329 290.441 163.899 290.568 164.466C290.739 165.226 290.936 165.978 291.028 166.707C291.072 167.031 291.158 167.728 291.317 168.364C291.45 168.902 291.633 169.4 291.881 169.585C292.038 169.7 292.318 169.726 292.619 169.729C292.85 169.729 293.087 169.718 293.29 169.718C293.891 169.718 294.614 169.932 294.976 170.452C295.112 170.658 295.181 170.788 295.181 170.924C295.187 171.123 295.057 171.323 294.791 171.525C294.398 171.858 294.068 172.263 293.605 172.462C293.461 172.535 293.189 172.549 292.943 172.578C292.743 172.604 292.558 172.639 292.469 172.728C292.408 172.795 292.408 172.864 292.408 172.997C292.411 173.191 292.477 173.449 292.549 173.72C292.622 174.015 292.7 174.325 292.703 174.602L292.714 175.337C292.72 175.603 292.729 175.803 292.792 176.072C292.937 176.673 293.148 177.278 293.226 177.879C293.299 178.464 293.455 179.065 293.596 179.67C293.747 180.303 293.877 180.939 293.891 181.558C293.909 182.429 293.981 182.897 294.195 183.698C294.256 183.93 294.319 184.181 294.36 184.444C294.843 184.43 295.346 184.424 295.916 184.424C296.876 184.424 297.787 184.878 297.799 185.598H297.802L297.799 185.593Z" fill="#4F2170"/>
<path d="M320.577 167.233C320.577 166.571 320.505 165.26 320.372 163.78C320.219 162.068 320.031 160.795 319.993 160.462C319.715 158.024 319.345 155.954 318.669 153.585C318.492 152.96 318.538 151.815 316.421 149.97C315.985 149.588 314.102 149.131 312.838 149.131C312.103 149.131 311.707 149.287 311.571 149.701C311.464 150.045 311.473 151.364 311.444 153.035C311.383 156.679 311.383 162.015 311.299 162.802C311.253 163.262 311.236 163.728 311.236 164.193C311.236 165.055 311.294 165.92 311.325 166.77C311.366 167.924 311.395 169.078 311.412 170.229C311.427 171.21 311.435 172.19 311.435 173.165C311.435 174.486 311.568 177.321 311.519 178.645C311.499 179.137 311.398 179.649 311.398 180.138C311.398 180.436 311.198 182.304 311.198 183.29C311.198 183.62 311.256 183.811 311.635 183.811C312.098 183.811 312.393 183.814 312.589 183.822C313.176 183.842 312.959 183.88 313.894 183.88C314.217 183.88 315.282 183.163 315.597 183.096C315.791 183.056 316.337 182.793 316.531 182.68C316.977 182.417 317.228 181.841 317.462 181.413C317.815 180.785 318.154 180.146 318.452 179.493C318.984 178.321 319.377 178.333 319.666 175.577C319.828 174.044 320.242 172.612 320.378 171.23C320.522 169.807 320.572 168.465 320.572 167.233M328.198 167.152C328.198 167.38 328.328 168.037 328.328 168.424C328.328 168.962 328.039 169.428 327.955 169.949C327.871 170.501 327.941 171.077 327.874 171.632C327.848 171.883 327.68 172.314 327.556 172.763C327.44 173.156 327.377 173.561 327.244 173.865C327.012 174.408 326.94 175.047 326.821 175.637C326.712 176.216 326.587 176.786 326.35 177.324C326.133 177.827 325.777 178.183 325.451 178.68C325.208 179.042 325.187 179.452 324.939 179.811C324.635 180.248 324.042 181.306 323.721 181.743C322.391 183.559 321.173 184.372 320.271 185.057C319.649 185.537 318.836 185.829 317.96 186.055C317.196 186.26 316.384 186.425 315.606 186.425C314.946 186.425 314.336 186.2 313.758 186.2C312.022 186.2 312.667 186.35 310.906 186.359C310.683 186.879 310.403 187.194 309.914 187.385C309.616 187.501 309.272 187.524 308.939 187.591C308.607 187.657 308.265 187.695 307.918 187.753C307.722 187.784 307.314 187.842 307.111 187.842C306.666 187.842 306.047 187.573 305.92 187.484C305.558 187.241 305.206 186.957 304.754 186.622C304.621 186.521 304.491 186.417 304.373 186.301C303.89 186.315 304.289 186.359 303.485 186.359C302.979 186.359 302.472 186.338 301.969 186.292C301.469 186.24 300.792 186.205 300.329 186.023C299.817 185.824 299.317 185.294 299.317 185.069C299.317 184.661 299.349 184.519 299.592 184.32C299.884 184.08 300.564 183.903 300.971 183.848C301.68 183.75 302.611 183.675 303.334 183.623C303.253 183.096 303.253 182.547 303.253 182.015C303.253 179.296 303.158 176.632 303.158 173.934C303.158 172.858 303.311 170.22 303.378 166.293C303.43 163.49 303.496 160.697 303.496 157.874C303.496 156.324 303.525 154.441 303.612 152.558C303.661 151.476 303.777 150.403 303.829 149.316C303.751 149.319 303.638 149.322 303.488 149.322C302.982 149.322 302.475 149.302 301.969 149.252C301.472 149.203 300.795 149.169 300.335 148.989C299.82 148.79 299.32 148.26 299.32 148.035C299.32 147.896 299.355 147.488 299.598 147.286C299.89 147.046 300.567 146.872 300.977 146.814C302.096 146.658 303.305 146.534 304.104 146.525C304.188 146.331 304.341 146.161 304.456 146.033C304.653 145.817 305.159 145.6 305.428 145.475C305.752 145.325 306.088 145.212 306.441 145.151C306.738 145.099 307.048 145.073 307.357 145.073C307.771 145.073 308.187 145.12 308.581 145.224C309.31 145.409 309.85 145.825 310.244 146.389C310.64 146.369 311.033 146.357 311.447 146.357C312.638 146.357 313.74 146.699 315.675 146.699C316.774 146.699 317.737 147.28 318.825 147.28C319.345 147.28 319.984 147.315 320.447 147.578C320.936 147.855 321.315 148.365 321.74 148.726C322.11 149.044 322.57 149.307 322.825 149.73C323.053 150.106 323.099 150.528 323.377 150.886C323.712 151.32 324.077 151.618 324.944 152.147C325.508 152.494 325.268 153.339 325.595 153.917C326.269 155.129 327.449 156.445 327.773 157.666C328.082 158.825 328.198 159.829 328.198 161.009C328.198 161.799 328.155 162.582 328.155 163.375C328.155 163.945 328.198 164.468 328.32 165.017C328.357 165.194 328.377 165.353 328.377 165.509C328.383 166.053 328.207 166.501 328.207 167.143" fill="#4F2170"/>
<path d="M354.077 183.247C354.274 183.38 354.401 183.579 354.401 183.866C354.401 184.418 353.996 184.919 353.554 185.214C353.091 185.523 352.515 185.584 351.983 185.685C350.774 185.899 349.554 185.928 348.348 186.125C347.752 186.223 347.159 186.333 346.558 186.414C346.112 186.472 344.871 186.486 344.056 186.498C343.764 186.55 343.535 186.61 343.307 186.613H342.604C342.387 186.952 342.104 187.177 341.681 187.325C341.352 187.44 340.973 187.467 340.605 187.533C340.238 187.6 339.862 187.634 339.48 187.692C339.264 187.724 338.809 187.779 338.587 187.779C338.098 187.779 337.413 187.51 337.271 187.42C336.877 187.177 336.496 186.905 336.01 186.573C335.628 186.573 335.365 186.57 335.267 186.57C334.387 186.57 335.032 186.631 334.139 186.631C333.65 186.631 333.164 186.613 332.681 186.561C332.201 186.509 331.55 186.474 331.105 186.292C330.613 186.09 330.13 185.347 330.13 185.118C330.13 184.976 330.162 184.832 330.396 184.626C330.68 184.383 331.327 184.204 331.721 184.143C332.606 184.019 333.595 183.906 334.468 183.869C334.431 182.885 334.457 181.5 334.457 180.071C334.457 177.911 334.376 175.655 334.361 175.024C334.356 174.715 334.341 172.8 334.275 171.519C334.208 170.276 334.185 169.029 334.17 167.783C334.165 167.294 334.136 166.802 334.136 166.316C334.136 165.57 334.286 164.835 334.289 164.092C334.292 163.548 334.237 163.01 334.237 162.47C334.237 161.787 334.312 161.11 334.405 160.436C334.57 159.242 334.749 158.036 334.784 156.83C334.815 155.491 334.778 154.158 334.778 152.819C334.778 151.766 334.804 150.71 334.908 149.652C334.497 149.669 334.815 149.707 334.078 149.707C333.589 149.707 333.1 149.689 332.62 149.64C332.137 149.588 331.489 149.553 331.044 149.371C330.552 149.169 330.072 148.425 330.072 148.194C330.072 148.052 330.104 147.908 330.338 147.705C330.619 147.457 331.273 147.28 331.666 147.222C332.724 147.069 334.477 146.942 335.269 146.927C335.275 146.904 335.284 146.884 335.29 146.861C335.359 146.624 335.611 146.499 335.805 146.372C336.267 146.068 336.817 145.964 337.343 145.822C337.736 145.718 338.191 145.614 338.621 145.611C338.783 145.611 338.937 145.623 339.087 145.655C339.336 145.704 339.556 145.843 339.784 145.941C340.053 146.057 340.337 146.143 340.62 146.222C341.175 146.378 341.693 146.65 342.251 146.783C342.439 146.832 342.633 146.843 342.824 146.843C343.197 146.843 343.579 146.791 343.937 146.783C344.547 146.768 346.494 146.774 347.098 146.788C347.662 146.806 348.229 146.829 348.793 146.878C349.444 146.93 350.089 147.005 350.734 147.109C351.124 147.173 351.518 147.243 351.902 147.335C352.125 147.092 352.374 146.919 352.512 146.919C352.651 146.919 352.799 146.95 353.004 147.185C353.247 147.465 353.551 148.035 353.585 148.434C353.75 150.21 353.681 149.415 353.776 150.511C353.901 151.893 353.927 151.884 353.927 153.377C353.927 154.149 353.889 155.653 352.969 155.653C352.44 155.653 352.313 155.563 351.934 155.245C351.639 154.996 351.489 154.594 351.399 154.224C351.263 153.654 351.225 153.287 351.223 152.937C351.22 152.55 351.26 152.182 351.26 151.586C351.26 150.991 351.301 150.421 351.26 149.843C350.737 149.952 350.196 150.013 349.672 150.013C348.981 150.013 348.319 150.042 347.639 150.135C347.02 150.221 346.401 150.297 344.446 150.372C344.157 150.386 343.868 150.441 343.584 150.485C343.35 150.522 343.09 150.563 342.939 150.774C342.801 150.968 342.818 151.242 342.815 151.474C342.809 151.789 342.87 152.093 342.905 152.405C342.965 153.007 342.971 153.617 342.989 154.221C342.997 154.646 343 155.074 343 155.502C343 156.275 342.989 157.05 342.965 157.819C342.948 158.409 342.841 158.996 342.824 159.589C342.809 160.199 342.815 160.807 342.804 161.414C342.801 161.718 342.789 162.018 342.775 162.322C342.766 162.527 342.697 162.849 342.789 163.045C342.885 163.242 343.133 163.239 343.321 163.253C343.622 163.282 343.92 163.329 344.218 163.332C346.106 163.381 346.665 163.381 347.211 163.473C347.735 163.56 348.261 163.618 348.793 163.638C348.79 163.525 348.79 163.412 348.79 163.297C348.79 162.814 348.805 162.325 348.86 161.839C348.909 161.362 348.946 160.711 349.129 160.269C349.331 159.777 349.872 159.294 350.1 159.294C350.245 159.294 350.387 159.326 350.589 159.56C350.838 159.844 351.014 160.491 351.069 160.885C351.234 161.99 351.269 163.126 351.364 164.225C351.486 165.605 351.515 166.264 351.515 167.759C351.515 168.532 351.477 170.036 350.557 170.036C350.028 170.036 349.898 169.94 349.522 169.628C349.227 169.376 349.071 168.974 348.981 168.607C348.845 168.034 348.805 167.667 348.805 167.314C348.805 166.976 348.837 166.649 348.842 166.174C347.619 166.235 345.855 166.273 343.527 166.247C342.986 166.244 342.72 166.545 342.694 167.074C342.656 167.67 342.662 168.26 342.604 168.861C342.581 169.087 342.572 169.307 342.572 169.529C342.572 169.882 342.598 170.229 342.63 170.585C342.673 171.085 342.769 171.577 342.769 172.077C342.769 172.578 342.711 173.043 342.711 173.523C342.711 174.325 342.882 175.085 342.89 175.881C342.911 177.092 342.867 178.304 342.931 179.513C342.963 180.115 343.035 180.705 343.182 181.289C343.298 181.746 343.151 182.874 343.55 183.149C343.706 183.256 344.148 183.287 345.01 183.287C345.806 183.287 346.792 183.215 347.266 183.215C348.012 183.215 348.773 183.374 349.519 183.374C350.32 183.374 350.806 183.149 351.532 183.039C351.549 182.428 351.575 181.824 351.575 181.225C351.575 180.627 351.535 180.262 351.538 179.875C351.541 179.522 351.578 179.154 351.717 178.585C351.804 178.215 351.957 177.815 352.255 177.564C352.631 177.246 352.761 177.156 353.29 177.156C354.207 177.156 354.245 178.66 354.245 179.432C354.245 180.927 354.216 181.587 354.094 182.966C354.083 183.079 354.074 183.172 354.066 183.247H354.077Z" fill="#4F2170"/>
<path d="M384.358 154.059C384.358 153.842 384.358 153.501 384.335 153.131C384.283 152.393 383.727 151.491 383.065 150.687C382.805 150.372 382.521 150.12 382.226 149.915C381.792 149.611 381.327 149.42 380.852 149.293C379.924 149.05 378.964 149.05 378.281 149.07L376.685 149.122C376.662 149.932 376.644 151.077 376.682 152.521C376.734 154.38 376.931 156.547 376.98 158.455C377.049 160.937 377.104 162.785 377.104 163.161C377.104 163.841 377.281 164.494 377.197 165.171C377.182 165.295 377.174 165.396 377.174 165.486C377.174 165.908 377.344 165.984 377.674 165.981C377.874 165.978 378.134 165.949 378.446 165.949C378.816 165.949 379.062 165.975 379.432 165.975C380.216 165.975 381.494 165.668 382.061 165.009C382.518 164.477 382.793 164.164 383.033 163.45C383.236 162.825 383.398 162.186 383.562 161.608C383.797 160.798 383.956 160.35 384.063 159.554C384.17 158.73 384.216 158.51 384.216 157.68C384.216 156.575 384.265 156.951 384.309 155.957C384.346 155.103 384.361 154.921 384.358 154.065M393.196 185.144C393.558 185.393 394.119 185.702 394.096 186.116C394.09 186.237 394.052 186.367 393.945 186.503C393.627 186.926 392.988 187.05 392.47 187.05C390.903 187.05 388.708 185.948 387.626 184.852C386.547 183.759 385.859 182.504 385.118 181.17C384.722 180.465 384.39 179.742 384.063 179.016C383.765 178.353 383.505 177.674 383.325 176.948C383.137 176.178 382.917 175.424 382.672 174.674C382.417 173.888 382.131 173.113 381.827 172.335C381.602 171.756 381.327 170.981 381.052 170.25C380.763 169.489 380.448 169.156 379.895 168.754C379.51 168.477 379.045 168.456 378.735 168.41C378.472 168.373 378.05 168.399 377.645 168.399C377.495 168.399 377.44 168.549 377.44 168.714C377.44 169.171 377.541 169.972 377.538 170.157C377.532 170.973 377.373 171.774 377.373 172.586C377.373 173.862 377.691 174.492 377.691 175.771C377.691 177.309 377.437 178.868 377.286 180.41C377.237 180.919 377.136 181.459 377.136 181.98C377.136 182.269 377.177 182.599 377.229 182.946C378.166 182.926 378.941 182.911 379.418 182.911C380.228 182.911 381.787 182.952 381.787 184.114C381.787 184.664 381.7 184.788 381.361 185.173C381.101 185.468 380.688 185.618 380.297 185.708C379.678 185.853 379.285 185.884 378.9 185.884C378.62 185.884 377.587 185.879 376.401 185.87C375.748 186.313 374.889 186.622 374.201 186.706C373.775 186.755 373.42 186.827 373.049 186.827C372.815 186.827 372.578 186.798 372.315 186.72C371.725 186.538 371.178 186.258 370.701 185.87C370.099 185.884 369.483 185.905 368.954 185.905C368.425 185.905 367.939 185.89 367.433 185.835C366.933 185.786 366.259 185.482 365.793 185.3C365.284 185.098 364.781 184.554 364.781 184.326C364.781 184.181 364.815 184.039 365.058 183.834C365.353 183.591 366.03 183.409 366.441 183.354C367.291 183.232 368.529 183.131 369.31 183.088C369.249 182.706 369.206 182.327 369.168 181.96C369.116 181.497 368.998 178.362 368.998 177.275C368.998 175.99 369.102 174.605 369.102 173.364C369.102 171.915 368.977 170.478 368.977 169.035C368.977 167.418 369.012 165.804 369.058 164.19C369.113 162.493 369.183 160.786 369.252 159.083C369.319 157.455 369.376 157.093 369.376 155.465C369.376 154.727 369.345 153.987 369.345 153.252C369.345 152.474 369.504 151.731 369.509 150.959C369.512 150.56 369.423 150.03 369.385 149.516C369.301 149.519 369.171 149.521 368.954 149.521C368.445 149.521 367.939 149.504 367.436 149.455C366.935 149.4 366.259 149.365 365.796 149.186C365.287 148.984 364.784 148.373 364.784 148.142C364.784 148 364.818 147.856 365.061 147.653C365.356 147.404 366.033 147.228 366.444 147.173C367.595 147.008 368.708 146.878 369.559 146.878C369.614 146.742 369.695 146.629 369.816 146.56C370.082 146.401 370.446 146.25 370.872 146.065C371.172 145.932 371.554 145.733 371.869 145.649C372.063 145.6 372.506 145.571 372.89 145.571C373.382 145.571 374.151 145.721 374.788 145.941C375.433 146.164 375.947 146.326 376.19 146.615C376.991 146.586 377.477 146.548 378.143 146.548C378.877 146.548 379.571 146.606 380.549 146.606C380.78 146.606 381.292 146.54 381.752 146.54C382.411 146.54 383.345 146.91 384.641 147.242C385.205 147.384 385.682 147.697 386.131 148.009C386.42 148.211 387.117 148.616 387.776 149.056C388.447 149.501 389.083 149.976 389.219 150.302C389.488 150.947 390.278 151.523 390.561 152.162C390.911 152.943 391.021 153.793 391.073 154.652C391.114 155.294 391.316 155.754 391.316 156.003C391.316 156.171 391.313 156.33 391.313 156.494C391.313 156.752 391.51 157.142 391.51 157.489C391.51 157.886 391.409 158.319 391.357 158.698C391.27 159.32 391.27 159.65 391.122 160.416C390.981 161.151 390.761 161.856 390.379 162.357C390.183 162.614 389.902 162.724 389.749 163.019C389.627 163.248 389.636 163.488 389.471 163.719C389.211 164.092 388.696 164.749 388.349 164.994C388.106 165.162 387.851 165.148 387.614 165.394C387.366 165.648 387.175 165.92 386.897 166.157C386.463 166.536 386.061 167.068 385.558 167.334C385.136 167.563 384.737 167.557 384.768 168.187C384.794 168.717 386.099 169.425 386.324 169.908C386.758 170.834 387.36 171.571 387.718 172.511C388.022 173.318 388.3 174.131 388.557 174.955C388.907 176.077 389.214 177.22 389.491 178.382C389.769 179.568 390.475 180.65 390.882 181.809C391.114 182.469 391.389 183.102 391.753 183.669C392.12 184.242 392.58 184.754 393.176 185.153L393.196 185.144Z" fill="#4F2170"/>
<path d="M409.991 183.912C410.821 183.912 412.449 183.953 412.357 184.953C412.313 185.413 412.244 185.549 411.934 185.908C411.674 186.203 411.255 186.356 410.873 186.443C410.28 186.579 409.898 186.619 409.531 186.619C409.352 186.619 408.157 186.573 406.911 186.593C405.369 186.619 403.715 186.715 403.374 186.715C402.463 186.715 400.921 186.642 399.996 186.642C399.487 186.642 398.98 186.622 398.48 186.573C397.98 186.521 397.303 186.486 396.84 186.304C396.331 186.101 395.828 185.558 395.828 185.329C395.828 185.187 395.86 185.043 396.106 184.838C396.398 184.595 397.077 184.415 397.485 184.357C398.636 184.193 399.975 184.062 400.444 184.062C400.597 184.062 400.823 184.06 401.097 184.057C400.652 183.66 400.331 183.192 400.331 182.619C400.334 182.287 400.282 182.012 400.204 181.691C400.152 181.483 400.134 181.277 400.134 181.072C400.134 180.881 400.149 180.69 400.16 180.491C400.186 179.932 400.201 179.374 400.201 178.819C400.201 178.59 400.201 178.362 400.195 178.134C400.137 175.036 400.296 171.947 400.221 168.853C400.181 167.213 400.224 165.582 400.276 163.948C400.319 162.533 400.372 161.116 400.38 159.702C400.383 158.927 400.383 158.149 400.383 157.374C400.383 156.399 400.383 155.421 400.383 154.45C400.383 153.076 400.343 151.696 400.386 150.323C400.389 150.12 400.406 149.921 400.424 149.718C400.291 149.718 400.146 149.724 399.998 149.724C399.489 149.724 398.983 149.704 398.477 149.655C397.98 149.602 397.303 149.568 396.843 149.383C396.328 149.18 395.828 148.639 395.828 148.411C395.828 148.269 395.756 148.087 395.973 147.853C396.198 147.61 397.008 147.497 397.422 147.436C398.509 147.286 399.955 147.159 400.51 147.147C400.502 147.026 400.49 146.907 400.49 146.794C400.49 146.499 400.539 146.23 400.698 146.051C400.898 145.834 401.332 145.684 401.601 145.559C401.925 145.409 402.26 145.296 402.613 145.235C402.911 145.186 403.22 145.157 403.53 145.157C403.943 145.157 404.36 145.206 404.753 145.308C405.734 145.556 406.541 146.181 407.018 147.034C408.322 147.014 409.456 146.994 409.994 146.994C410.821 146.994 412.455 147.034 412.36 148.032C412.316 148.492 412.247 148.628 411.937 148.986C411.677 149.281 411.258 149.432 410.873 149.521C410.28 149.657 409.898 149.695 409.531 149.698C409.398 149.698 408.64 149.695 407.663 149.686L407.677 149.811C407.784 150.571 407.917 151.326 408.015 152.09C408.12 152.845 408.175 153.597 408.175 154.357C408.175 155.118 408.131 155.806 408.131 156.558C408.131 156.928 408.059 157.281 408.059 157.663C408.059 157.969 408.111 158.27 408.16 158.577C408.389 160.095 408.377 161.671 408.432 163.207C408.496 164.919 408.527 166.629 408.559 168.341C408.585 169.738 408.611 171.132 408.658 172.523C408.704 174.079 408.958 175.62 408.996 177.173C409.016 177.917 409.048 178.66 409.071 179.406C409.094 180.198 409.097 180.991 409.045 181.781C408.996 182.478 408.97 183.264 408.721 183.924C409.265 183.915 409.705 183.912 409.985 183.912H409.991Z" fill="#4F2170"/>
<path d="M440.737 169.443C440.737 170.05 440.066 170.492 439.572 170.73C438.852 171.074 437.764 171.239 436.983 171.337C436.286 171.421 435.855 171.467 435.855 172.121C435.855 172.61 435.962 173.766 435.962 174.166C435.962 174.391 435.962 175.953 435.971 176.178C435.986 176.601 435.997 177.072 436.009 177.561C436.041 179.108 436.052 180.997 436.104 181.619C436.205 182.908 436.255 183.571 436.226 184.861C436.214 185.537 436.237 187.42 435.167 187.42C434.701 187.42 434.502 187.307 434.146 187.004C433.851 186.752 433.701 186.35 433.617 185.98C433.51 185.517 433.475 185.187 433.475 184.89C433.475 184.392 433.571 183.987 433.568 183.201V183.036C433.189 184.314 432.376 185.375 431.266 186.232C429.692 187.446 428.515 187.999 426.534 187.999C425.34 187.999 424.145 187.799 423.032 187.426C421.719 186.981 420.651 186.26 419.746 185.367C418.439 184.074 417.476 182.42 416.608 180.713C415.934 179.4 415.579 178.055 415.327 176.676C415.153 175.727 415.029 174.761 414.89 173.775C414.751 172.815 414.804 172.15 414.804 171.282C414.804 167.913 415.668 164.517 416.527 160.81C416.912 159.141 417.302 157.423 417.834 155.76C418.404 153.987 419.133 152.275 420.192 150.748C421.108 149.426 422.164 148 423.39 146.95C423.96 146.465 424.57 146.149 425.285 145.941C426.184 145.681 426.971 145.204 427.931 145.169C428.096 145.163 428.235 145.16 428.359 145.16C428.787 145.16 429.047 145.198 429.692 145.296C430.476 145.42 431.234 145.64 431.841 146.002C432.385 146.326 432.796 146.8 433.111 147.341C433.148 146.95 433.198 146.522 433.348 146.213C433.455 145.99 433.516 145.834 433.756 145.58C433.874 145.455 434.138 145.25 434.331 145.25C434.525 145.25 434.748 145.481 434.82 145.585C435.049 145.935 435.237 146.456 435.289 146.852C435.355 147.329 435.387 148.431 435.413 149.608C435.445 151.156 435.456 152.842 435.508 153.469C435.61 154.759 435.656 155.419 435.633 156.711C435.615 157.385 435.641 159.268 434.568 159.268C434.106 159.268 433.903 159.155 433.548 158.854C433.255 158.6 433.091 158.201 433.015 157.828C432.946 157.458 432.929 157.134 432.929 156.798C432.929 156.315 432.969 155.806 432.972 155.083C432.931 154.67 432.885 154.25 432.839 153.831C432.741 152.914 432.584 151.997 432.449 151.109C432.318 150.273 431.954 149.458 431.456 148.694C431.115 148.162 430.253 147.945 429.634 147.945C428.749 147.945 428.22 148.376 427.792 149.082C427.379 149.773 426.765 150.34 426.491 151.109C426.213 151.902 426.057 152.798 425.985 153.631C425.906 154.505 425.759 155.205 425.513 156.04C425.247 156.949 425.183 157.932 425.004 158.86C424.839 159.699 424.758 160.538 424.68 161.388C424.608 162.178 424.374 162.935 424.287 163.728C424.191 164.63 424.073 165.524 423.957 166.417C423.85 167.274 423.74 168.13 423.659 168.991C423.584 169.752 423.48 170.519 423.48 171.285C423.48 172.372 423.622 173.445 423.668 174.53C423.729 175.993 424.194 177.474 424.469 178.914C424.579 179.484 424.7 180.066 424.862 180.629C425.068 181.364 425.343 182.076 425.753 182.72C426.34 183.646 427.364 184.707 428.55 184.702C429.536 184.696 430.288 183.918 430.806 183.157C431.613 181.969 432.058 180.638 432.324 179.264C432.558 178.055 432.657 176.812 432.738 175.594C432.796 174.75 432.819 173.57 432.824 172.725C432.824 172.575 432.83 172.41 432.83 172.254C432.83 171.609 432.804 171.409 431.882 171.409C431.141 171.409 430.34 171.513 429.556 171.513C428.874 171.513 428.206 171.432 427.604 171.132C427.353 171.004 427.208 170.86 427.199 170.686C427.191 170.553 427.263 170.397 427.425 170.218C427.792 169.816 428.177 169.755 428.585 169.55C429.403 169.142 430.343 169.041 431.306 168.887C432.174 168.751 433.059 168.682 433.877 168.613C434.548 168.561 435.222 168.535 435.896 168.535C436.914 168.535 438.499 168.439 439.15 168.439C439.893 168.439 440.743 168.691 440.743 169.451" fill="#4F2170"/>
<path d="M470.584 183.917C471.394 183.917 472.956 183.955 472.956 184.875C472.956 185.404 472.858 185.534 472.528 185.91C472.268 186.205 471.854 186.361 471.466 186.448C470.845 186.59 470.451 186.624 470.072 186.624C469.344 186.624 463.698 186.587 463.099 186.584C462.188 186.584 462.856 186.642 461.925 186.642C461.419 186.642 460.916 186.624 460.41 186.575C459.909 186.523 459.233 186.488 458.77 186.306C458.261 186.104 457.758 185.56 457.758 185.332C457.758 185.187 457.789 185.042 458.035 184.84C458.33 184.591 459.007 184.415 459.415 184.357C460.453 184.212 461.387 184.091 461.905 184.071C461.434 183.712 461.156 183.359 461.086 182.584C460.951 181.112 460.919 179.628 460.919 178.148C460.919 176.745 460.948 175.336 460.948 173.934C460.948 173.023 460.936 172.117 460.896 171.212C460.855 170.264 460.792 169.324 460.823 168.378C460.832 168.06 460.933 167.551 460.936 167.128C460.936 166.833 460.887 166.579 460.719 166.463C460.615 166.394 460.421 166.365 460.181 166.365C459.493 166.365 458.429 166.588 458.064 166.617C457.494 166.669 456.928 166.721 455.027 166.721C454.102 166.721 453.639 166.55 453.417 166.55C453.257 166.55 453.153 166.57 453.153 166.868C453.153 167.296 453.159 167.687 453.159 168.068C453.159 168.566 453.15 169.046 453.107 169.572C453.069 170.015 453.055 170.457 453.055 170.906C453.055 171.611 453.09 172.317 453.13 173.023C453.133 173.118 453.136 173.214 453.136 173.306C453.136 173.986 453.015 174.619 453.015 175.29C453.015 176.033 452.974 176.771 452.931 177.508C452.893 178.226 452.853 178.94 452.853 179.654C452.853 180.658 452.679 181.459 452.676 182.468C452.676 182.951 452.78 183.431 452.835 183.914C453.662 183.943 454.767 184.094 454.767 184.863C454.767 185.392 454.672 185.522 454.342 185.901C454.082 186.199 453.662 186.353 453.281 186.439C452.693 186.578 452.315 186.616 451.947 186.619C451.927 186.63 451.904 186.645 451.881 186.659C451.577 186.833 451.459 186.783 451.192 187C450.938 187.203 451.039 187.428 450.712 187.59C450.527 187.686 450.273 187.721 450.001 187.721C449.087 187.721 448.509 187.472 448.037 187.104C447.838 186.951 447.655 186.775 447.476 186.587C446.585 186.581 445.856 186.575 445.651 186.575C444.734 186.575 445.402 186.636 444.477 186.636C443.968 186.636 443.462 186.616 442.956 186.567C442.458 186.517 441.781 186.48 441.322 186.298C440.807 186.095 440.306 185.551 440.306 185.323C440.306 185.181 440.341 185.037 440.587 184.831C440.879 184.588 441.553 184.409 441.966 184.354C442.797 184.233 444.049 184.134 444.853 184.088C444.807 183.917 444.786 183.744 444.786 183.565C444.786 183.235 444.847 182.885 444.862 182.506C444.89 181.8 444.899 181.098 444.902 180.392C444.902 179.608 444.89 178.824 444.89 178.046C444.89 177.046 444.888 176.039 444.89 175.038C444.89 173.679 444.893 172.314 444.911 170.949C444.925 170.032 444.934 169.112 444.911 168.199C444.908 167.964 444.917 167.707 444.917 167.452C444.917 167.224 444.867 166.732 444.867 166.524C444.867 166.243 444.827 166.145 444.468 166.087C444.251 166.055 443.456 165.977 442.909 165.876C442.16 165.737 441.388 165.52 441.388 165.13C441.388 164.985 441.495 164.815 441.755 164.615C442.071 164.372 442.421 164.248 442.782 164.17C443.161 164.089 443.554 164.051 443.939 163.982C444.538 163.869 444.549 163.904 444.775 163.557C444.838 163.461 444.856 163.27 444.856 163.05C444.856 161.538 444.836 159.991 444.838 158.435C444.838 155.768 444.899 153.073 445.22 150.467C445.269 150.071 445.292 149.605 445.324 149.128C444.905 149.139 445.102 149.154 444.321 149.154H443.95C443.621 149.154 443.332 149.151 442.959 149.113C442.461 149.061 441.784 149.024 441.322 148.844C440.807 148.642 440.309 148.098 440.309 147.87C440.309 147.725 440.373 147.543 440.587 147.311C440.813 147.063 441.486 146.886 441.9 146.831C443.051 146.666 444.705 146.603 445.177 146.603H445.787C446.154 145.741 446.834 145.122 448.138 145.122C449.119 145.122 450.01 145.64 450.646 146.487C451.337 146.467 451.942 146.455 452.404 146.455C453.214 146.455 455.039 146.493 455.039 147.421C455.039 147.942 454.675 148.075 454.348 148.448C454.087 148.743 453.668 148.896 453.286 148.983C452.693 149.122 452.309 149.16 451.944 149.16H451.485C451.511 149.261 451.539 149.359 451.574 149.457C451.944 150.496 452.066 151.505 452.184 152.616C452.3 153.637 452.346 154.66 452.459 155.684C452.563 156.63 452.731 157.576 452.821 158.521C452.853 158.831 452.855 159.163 452.855 159.479V159.777C452.855 160.303 452.864 160.829 452.98 161.33C453.049 161.625 453.255 161.865 453.309 162.168C453.318 162.209 453.321 162.258 453.321 162.31C453.321 162.455 453.298 162.622 453.295 162.776C453.292 163.137 453.39 163.21 453.83 163.21C454.591 163.212 457.356 162.952 457.645 162.932C458.212 162.883 458.81 162.912 459.403 162.912C459.768 162.912 460.12 162.854 460.47 162.854C460.878 162.854 461.179 162.715 461.179 162.206C461.179 161.697 461.069 160.91 461.066 160.676C461.055 159.56 461.104 158.449 461.193 157.341C461.208 157.127 461.295 156.072 461.373 154.895C461.439 153.853 461.497 152.723 461.5 151.991C461.5 151.52 461.41 150.849 461.41 150.496C461.41 149.978 461.399 149.83 461.396 149.446C461.069 149.434 460.742 149.417 460.418 149.385C459.918 149.333 459.244 149.298 458.779 149.116C458.27 148.914 457.899 148.37 457.899 148.144C457.899 148 457.931 147.855 458.174 147.653C458.469 147.407 459.013 147.228 459.421 147.173C460.173 147.068 460.959 147.002 461.546 146.973C461.662 146.756 461.856 146.632 462.084 146.632C462.535 146.632 463.178 146.447 463.273 146.444C463.371 146.432 463.478 146.429 463.582 146.429C463.996 146.429 464.444 146.49 464.82 146.597C465.043 146.664 465.237 146.753 465.404 146.863C467.102 146.805 468.872 146.727 469.786 146.727C470.593 146.727 472.088 146.768 472.088 147.679C472.088 148.214 472.062 148.341 471.73 148.72C471.469 149.018 471.05 149.171 470.665 149.258C470.072 149.394 469.691 149.431 469.323 149.434C469.147 149.434 468.039 149.428 466.804 149.417C466.975 149.952 467.273 150.406 467.383 150.958C467.588 151.976 467.892 152.997 468.12 154.036C468.308 154.883 468.247 155.71 468.476 156.537C468.713 157.391 468.788 158.154 468.846 159.039C468.892 159.774 468.768 160.242 468.771 160.974C468.774 161.254 468.913 161.897 468.913 162.174C468.913 162.281 468.91 162.359 468.91 162.417C468.91 162.68 469.17 162.677 469.442 162.677C469.613 162.677 469.847 162.666 470.096 162.666C470.622 162.666 471.215 162.732 471.435 163.163C471.492 163.279 471.516 163.398 471.516 163.516C471.516 164.086 470.905 164.644 470.466 164.855C470.223 164.968 469.832 165.063 469.546 165.127C469.268 165.188 469.095 165.214 468.999 165.442C468.985 165.48 468.976 165.544 468.976 165.619C468.976 165.83 469.031 166.142 469.034 166.293C469.034 166.391 469.04 166.492 469.04 166.59C469.04 167.137 468.965 167.663 468.965 168.213C468.965 169.575 468.979 170.949 469.101 172.323C469.231 173.769 469.387 175.215 469.387 176.646C469.387 177.335 469.346 178.023 469.257 178.703C469.095 179.897 469.028 181.086 468.93 182.283C468.916 182.457 468.716 182.599 468.696 182.813C468.675 183.035 468.82 183.284 468.803 183.533C468.794 183.663 468.768 183.799 468.73 183.938C469.52 183.926 470.182 183.917 470.579 183.917V183.912L470.584 183.917Z" fill="#4F2170"/>
<path d="M499.997 154.051C499.997 154.768 499.96 156.156 499.043 156.156C498.514 156.156 498.38 156.069 498.004 155.777C497.709 155.546 497.556 155.176 497.469 154.831C497.334 154.305 497.293 153.967 497.293 153.64C497.29 153.284 497.331 151.072 497.331 150.519C497.331 150.14 497.319 149.759 497.305 149.371C496.775 149.397 496.249 149.406 495.72 149.414C495.202 149.426 494.676 149.438 494.161 149.478C493.617 149.519 493.073 149.573 492.53 149.62C492.327 149.64 492.125 149.66 491.922 149.675C491.899 149.678 491.873 149.678 491.85 149.678C491.338 149.678 491.211 149.825 491.211 150.083C491.211 150.297 491.298 150.542 491.324 150.699C491.419 151.26 491.488 152.35 491.529 152.917C491.567 153.455 491.604 154.001 491.61 154.542C491.616 155.04 491.512 155.543 491.512 156.037C491.512 156.532 491.74 157.301 491.729 157.807C491.711 158.354 491.668 158.898 491.633 159.442C491.561 160.558 491.622 161.697 491.676 162.814C491.703 163.343 491.749 163.869 491.763 164.399C491.769 164.647 491.726 164.893 491.726 165.142C491.726 165.405 491.827 166.108 491.827 166.368C491.827 167.487 491.833 168.141 491.85 169.263C491.862 170.383 491.971 171.505 491.911 172.624C491.885 173.15 491.804 173.671 491.81 174.197C491.812 174.793 491.867 175.389 491.896 175.985C491.954 177.13 491.977 178.269 491.986 179.418C491.992 180.473 492.012 181.798 491.963 182.851C491.948 183.039 491.94 183.224 491.925 183.412C492.593 183.397 493.137 183.389 493.458 183.389C494.265 183.389 495.827 183.617 495.827 184.542C495.827 185.075 495.731 185.205 495.402 185.581C495.141 185.876 494.728 186.029 494.34 186.116C493.747 186.255 493.366 186.292 492.998 186.292C492.859 186.292 492.041 186.292 491.014 186.284C490.832 186.393 490.635 186.492 490.479 186.59C490.008 186.876 489.606 186.957 489.094 186.957C488.709 186.957 488.322 186.998 487.937 186.998C487.254 186.998 486.809 186.769 486.303 186.477C486.173 186.402 486.043 186.327 485.907 186.252C485.068 186.258 484.333 186.312 483.466 186.312C482.957 186.312 482.453 186.292 481.95 186.243C481.45 186.191 480.773 186.156 480.31 185.974C479.801 185.772 479.298 185.028 479.298 184.8C479.298 184.655 479.33 184.511 479.576 184.308C479.868 184.059 480.548 183.883 480.955 183.825C481.994 183.681 483.035 183.614 483.573 183.6V183.527C483.576 182.92 483.405 182.336 483.405 181.717C483.405 180.687 483.492 179.386 483.506 178.356C483.529 177.243 483.584 176.132 483.633 175.022C483.691 173.694 483.758 172.361 483.758 171.036C483.758 170.09 483.717 169.148 483.766 168.205C483.795 167.667 483.908 167.138 483.949 166.6C483.986 166.099 484.122 165.599 484.14 165.101C484.171 163.988 484.105 162.86 484.105 161.744C484.105 160.581 484.177 159.418 484.177 158.256C484.177 157.267 484.137 156.278 484.137 155.288C484.137 154.016 484.148 152.214 484.189 150.95C484.197 150.684 484.287 150.325 484.287 150.028C484.287 149.62 483.943 149.6 483.795 149.6C483.425 149.6 481.383 149.652 481.12 149.652C480.076 149.652 479.029 149.646 478.002 149.519C477.829 149.498 477.658 149.466 477.485 149.426C477.574 150.673 477.592 152.842 477.592 154.042C477.592 154.759 477.551 156.147 476.637 156.147C476.108 156.147 475.978 156.061 475.599 155.766C475.301 155.537 475.148 155.167 475.061 154.826C474.922 154.299 474.885 153.961 474.882 153.634C474.882 153.278 474.922 151.598 474.922 151.048C474.922 150.314 474.873 149.565 474.864 148.819C474.671 148.553 474.52 148.246 474.52 147.971C474.52 147.728 474.639 147.503 474.948 147.347C475.475 147.083 475.692 146.788 476.594 146.791C477.036 146.791 477.543 146.774 477.962 146.765C479.101 146.742 480.229 146.762 481.36 146.635C481.892 146.574 482.422 146.522 482.957 146.496C483 146.496 483.046 146.496 483.095 146.496C483.344 146.496 483.625 146.519 483.891 146.519C484.105 146.519 484.304 146.505 484.475 146.447C484.871 146.32 485.221 145.981 485.626 145.831C485.97 145.701 486.335 145.681 486.699 145.681C487.335 145.681 487.986 145.681 488.605 145.857C488.833 145.924 489.05 146.01 489.259 146.126C489.493 146.253 489.721 146.488 489.973 146.583C490.12 146.641 490.3 146.655 490.488 146.655C490.765 146.655 491.06 146.618 491.298 146.615C491.885 146.606 492.472 146.595 493.059 146.595C494.476 146.583 495.893 146.58 497.325 146.58C498.031 146.58 498.785 146.629 499.338 146.959C499.731 147.196 499.991 147.656 499.991 148.11C499.991 148.339 499.925 148.564 499.774 148.755C499.795 148.85 499.795 148.871 499.853 149.446C499.974 150.725 500 152.671 500 154.051" fill="#4F2170"/>
</svg>
