<?xml version="1.0" encoding="utf-8"?>
<!-- Generator: Adobe Illustrator 19.2.1, SVG Export Plug-In . SVG Version: 6.00 Build 0)  -->
<svg version="1.1" id="logo" xmlns="http://www.w3.org/2000/svg" xmlns:xlink="http://www.w3.org/1999/xlink" x="0px" y="0px"
	 width="148px" height="34.9px" viewBox="0 0 148 34.9" style="enable-background:new 0 0 148 34.9;" xml:space="preserve">
<style type="text/css">
	.st0{fill:#A79E6C;}
</style>
<path class="st0" d="M64.5,22.2c0,2.8,1.9,3.8,4.3,3.8c0.3,0,0.3,0.1,0.3,0.4v1.3c0,0.2-0.1,0.3-0.3,0.3H55.4
	c-0.2,0-0.3-0.2-0.3-0.3v-1.3c0-0.2,0-0.4,0.4-0.4c2.4,0,3.7-1.1,3.7-4v-4c0-3.2-1.8-3.4-3-3.4c-0.2,0-0.4-0.2-0.4-0.4v-1.3
	c0-0.2,0.2-0.4,0.4-0.4c2.2,0.1,4.6,0.1,7.5-1c0.1,0,0.4-0.2,0.6,0c0.1,0.1,0.2,0.3,0.2,0.5v2.1c0.6-1.1,2.4-2.3,4.2-2.3
	c1.8,0,4,1.3,4,4.8c0,1.9-1.2,4.1-3.6,4.1c-2.3,0-3.1-2-3.1-3.2c0-1.6,1.2-2.9,2.9-2.9c1.1,0,1.7,0.6,1.9,1H71
	c-0.1-0.9-0.7-2.1-2.6-2.1c-2.1,0-4,2-4,5.6L64.5,22.2L64.5,22.2z"/>
<path class="st0" d="M147.6,11.8h-5.8V7.7c0-0.3-0.2-0.4-0.4-0.4c-1.2-0.2-3.1-0.6-3.1-3h0.3c0.2,0.6,1,1.6,2.3,1.6
	c1.8,0,2.9-1.5,2.9-2.8c0-1.5-1.3-3.1-3-3.1c-2.9,0-4.2,2-4.2,6.2v5.7h-3.8V7.7c0-0.3-0.2-0.4-0.4-0.4c-1.2-0.2-3.1-0.6-3.1-3h0.3
	c0.2,0.6,1,1.6,2.3,1.6c1.8,0,2.9-1.5,2.9-2.8c0-1.5-1.3-3.1-3-3.1c-2.9,0-4.2,2-4.2,6.2v5.7h-1.3c-0.2,0-0.3-0.1-0.3-0.3
	c-0.7-2.2-2.6-5.7-7.9-5.7H28.3c-0.4,0-0.8,0.4-0.9,0.6l-4.4,13L18.8,6.6c-0.2-0.6-0.5-0.7-1-0.7H8.1C2.4,5.9,0,9.2,0,12.8
	C0,16.1,2.2,19,6.1,19c3,0,4.7-2.3,4.7-4.3c0-2.7-1.9-4.4-4.4-4.4c-2.2,0-3.5,1.3-4.1,2.1C2,10.6,3.5,8,7.5,8c3.4,0,4.4,2.7,4.4,5.3
	c0,2.7,0,8.7,0,8.7c0,2.8-1.6,4-3.9,4c-0.3,0-0.3,0.1-0.3,0.4v1.3C7.7,27.9,7.8,28,8,28h9.6c0.2,0,0.3-0.2,0.3-0.3v-1.3
	c0-0.2-0.1-0.4-0.4-0.4c-2.4,0-3.1-1.1-3.1-4V11.9l5.7,15.4c0.2,0.5,0.9,0.7,1.4,0.7s1.1-0.3,1.3-0.8l5.7-15.3v10.3
	c0,2.2-1.5,3.8-3.3,3.8h-0.3c-0.3,0-0.3,0.1-0.3,0.4v1.3c0,0.2,0.1,0.3,0.3,0.3H39c0.2,0,0.3-0.2,0.3-0.3v-1.3c0-0.2,0-0.4-0.4-0.4
	h-0.5c-2,0-3.4-1.3-3.4-4v-8.6c0-4,1.7-5.3,4.5-5.3H118c3.1,0,5.5,2.4,5.8,5.5c0,0.4,0.3,0.7,0.7,0.7h2.9v12.9
	c0,0.3,0.2,0.4,0.4,0.4c1.2,0.2,3.1,0.6,3.1,3h-0.3c-0.2-0.6-1-1.6-2.3-1.6c-1.8,0-2.9,1.5-2.9,2.8c0,1.5,1.3,3.1,3,3.1
	c2.9,0,4.2-2,4.2-6.2V14.3h3.8v12.9c0,0.3,0.2,0.4,0.4,0.4c1.2,0.2,3.1,0.6,3.1,3h-0.3c-0.2-0.6-1-1.6-2.3-1.6
	c-1.8,0-2.9,1.5-2.9,2.8c0,1.5,1.3,3.1,3,3.1c2.9,0,4.2-2,4.2-6.2V14.3h5.8c0.2,0,0.4-0.1,0.4-0.3v-1.9
	C148,12,147.8,11.8,147.6,11.8z"/>
<path class="st0" d="M38.2,20c0-4.7,4-8.4,8.9-8.4S56,15.4,56,20c0,4.7-4,8.4-8.9,8.4S38.2,24.7,38.2,20z M45,13.8L45,13.8L45,13.8
	c-2.3,0.8-1.7,4-0.7,7.2c1.2,3.1,2.7,6,5.1,5.2l0,0l0,0c2.3-0.8,1.7-4,0.7-7.2C48.8,15.9,47.3,13,45,13.8z"/>
<path class="st0" d="M72.9,20c0-4.7,4-8.4,8.9-8.4s8.9,3.8,8.9,8.4c0,4.7-4,8.4-8.9,8.4S72.9,24.7,72.9,20z M79.7,13.8L79.7,13.8
	L79.7,13.8c-2.3,0.8-1.7,4-0.7,7.2c1.2,3.1,2.7,6,5.1,5.2l0,0l0,0c2.3-0.8,1.7-4,0.7-7.2C83.5,15.9,82,13,79.7,13.8z"/>
<path class="st0" d="M107,20c0-4.7,4-8.4,8.9-8.4s8.9,3.8,8.9,8.4c0,4.7-4,8.4-8.9,8.4S107,24.7,107,20z M113.8,13.8L113.8,13.8
	L113.8,13.8c-2.3,0.8-1.7,4-0.7,7.2c1.2,3.1,2.7,6,5.1,5.2l0,0l0,0c2.3-0.8,1.7-4,0.7-7.2C117.6,15.9,116.1,13,113.8,13.8z"/>
<path class="st0" d="M92.4,12c-0.3,0-0.7,0.1-0.7,0.5v6.2c0,0.4,0.3,0.7,0.5,0.7c0.4,0,0.7-0.2,0.8-0.5c0.6-1.7,1.1-4.9,5.3-4.9h1.6
	l-9.3,13.3c-0.1,0.2-0.4,0.7,0.3,0.7h13.9c0.4,0,0.6-0.3,0.6-0.6l0.1-6.7c0-0.3-0.3-0.6-0.7-0.6c-0.4,0-0.6,0.2-0.7,0.6
	c-0.2,1.6-1.3,5.4-4.9,5.4h-1.8l9-13.1c0.3-0.4,0.3-0.9-0.3-0.9H92.4V12z"/>
</svg>
