<svg id="Layer_1" data-name="Layer 1" xmlns="http://www.w3.org/2000/svg" viewBox="0 0 771.46 582.45"><title>mmt-logo</title><path d="M613.14,105.16c-212.68,0-385.74,130.65-385.74,291.24S400.46,687.62,613.14,687.62,998.86,557,998.86,396.4,825.85,105.16,613.14,105.16Z" transform="translate(-227.4 -105.16)" fill="#d1d3d4"/><path id="Wht_T" data-name="Wht T" d="M440.58,217.12H777.23l.64,112.72h-16q-7.85-60.51-45.35-81.92-21-11.74-62.79-12.84v294.7q0,30.87,10.79,41t44.93,10.1v14.22H510V580.89q32.78,0,43.56-10.27t10.8-40.84V235.08q-41,1-62.84,12.84-40.16,22-45.33,81.92H440.07Z" transform="translate(-227.4 -105.16)"/><path d="M338,396.82h-.17v46.85H327.09V381.86h16.24l19.3,45.83,19.64-45.83h15.9v61.81H387.46V396.82h-.17l-19.81,46.85h-9.61Z" transform="translate(-227.4 -105.16)" fill="#231f20"/><path d="M414.16,381.86h37.16c14.62,0,25.16,3.32,25.16,18.45,0,11.39-8.16,17.68-17.26,18.19l19,25.17H463.31l-17.95-24.32H426.24v24.32H414.16Zm35.37,27.47c9.86,0,14.88-1.46,14.88-8.77s-5-8.67-14.88-8.67H426.24v17.44Z" transform="translate(-227.4 -105.16)" fill="#231f20"/><path d="M710.63,398.3h-.17v46.84H699.75V383.33H716l19.3,45.83,19.63-45.83h15.91v61.81H760.11V398.3h-.17l-19.81,46.84h-9.61Z" transform="translate(-227.4 -105.16)" fill="#231f20"/><path d="M786.39,383.33h37.16c14.62,0,25.15,3.32,25.15,18.46,0,11.39-8.15,17.68-17.25,18.19l19,25.16H835.53l-17.95-24.31H798.46v24.31H786.39Zm35.37,27.47c9.86,0,14.88-1.45,14.88-8.76s-5-8.67-14.88-8.67h-23.3V410.8Z" transform="translate(-227.4 -105.16)" fill="#231f20"/><path d="M909.67,402.13c-1.95-5.53-7-10.3-21.67-10.3-8.16,0-16.41,2.05-16.41,7.75,0,2.63,1.53,5.44,13.85,7l14.63,2.21c13.86,2.12,22,7.48,22,17.86,0,14.62-14,20.05-30.44,20.05-26.53,0-33-13.09-34.44-17.77l11.65-3.65c2.21,4.51,6.8,11.05,23.13,11.05,9.87,0,18-3.23,18-8.58,0-4-4.6-6.64-13.44-7.74l-14.79-2c-14.29-2-22.28-8.16-22.28-17.6,0-18.54,24.07-18.54,28.82-18.54,26.62,0,31.21,12.33,32.74,16.59Z" transform="translate(-227.4 -105.16)" fill="#231f20"/><path d="M614.76,410.68l1.4-1.79c4.07-4.84,6.3-5,12.35-5.34,16.35-1.17,17.61-12.71,17.61-16.21,0-7.88-5.85-15.86-17-15.86-12.86,0-23.58,9.11-31,18l-7.85-10c12.79-8,27.66-20.17,27.66-40,0-17.61-12.53-35.38-40.5-35.38-26.89,0-44.26,15.28-44.26,38.93,0,10.53,3,18.89,12.23,32.49-10.71,6.35-17,10.83-22.91,18-7.26,8.67-11.42,19.68-11.42,30.22,0,20.78,16,42.28,42.88,42.28,21,0,33.59-13.08,41.82-25.17l11.36,14.46C612,461.4,614.21,463,622,463h10a11.92,11.92,0,0,0,8.93-3.18,10.51,10.51,0,0,0,3.07-7.55c0-3.43-1.53-5.72-3.15-8.15ZM576.42,331c5.8,0,10,4.37,10,10.39,0,7.21-6.23,12.89-12.32,17.06-6.14-8.22-8.05-11.9-8.05-17.45C566.05,331.1,576,331,576.42,331Zm-15.16,65.63,17.47,22.3c-5.68,9.06-11,15.1-19.26,15.1-10,0-14.53-9.42-14.53-16.1C544.94,409,551.67,402.86,561.26,396.61Z" transform="translate(-227.4 -105.16)" fill="#d1d3d4"/><path d="M754.34,568.38a17.07,17.07,0,1,1-17.09,17A17.08,17.08,0,0,1,754.34,568.38Zm0,30.42a13.36,13.36,0,1,0-13.11-13.37A13.33,13.33,0,0,0,754.34,598.8ZM753.67,587H751.3v8h-3.45V576.48h7.07c4.52,0,7,1.52,7,5.41,0,3.36-2.11,4.74-4.66,5l5,8.09h-3.9Zm.85-2.65c2.2,0,3.94-.26,3.94-2.76,0-2.16-2.06-2.52-3.9-2.52H751.3v5.28Z" transform="translate(-227.4 -105.16)"/><path d="M595,426.19c-7.89,13.42-18.74,31.37-41,31.37-20.9,0-34.52-16.38-34.52-33.94a39.64,39.64,0,0,1,9.46-24.85c6.32-7.69,13.22-11.84,28.61-20.71-12.62-17.16-16-25.05-16-35.11,0-17.55,12.23-30.58,35.91-30.58,22.09,0,32.15,13,32.15,27,0,19.53-18.94,30.38-31.76,37.68l20.51,26.23c7.1-11.05,18.34-23.48,30.78-23.48,6.71,0,8.67,4.35,8.67,7.51,0,5.52-4.33,7.49-9.85,7.88-6.71.4-11.85.79-18.15,8.29-.8,1-4.74,6.11-5.53,7.29l29.2,37.29c1.58,2.37,2.17,3.15,2.17,4.14,0,2.56-2.77,2.37-3.75,2.37H622c-4.74,0-4.74,0-8.29-4.54Zm-31.76-40.63c-12.43,7.49-26.62,16.36-26.62,32.35,0,11.44,8.28,24.46,22.88,24.46,15,0,22.87-13,29.39-24.07Zm31.57-44.19c0-10.65-7.9-18.74-18.36-18.74-7.49,0-18.73,4.93-18.73,18.35,0,9.85,4.54,15.78,14.4,28.6C580,364.84,594.78,356,594.78,341.37Z" transform="translate(-227.4 -105.16)" fill="#231f20"/><path d="M609.13,656.78c-194.44,0-352.07-116.56-352.07-260.37,0-97.75,72.85-182.75,180.53-227.37C340,215.18,275.3,296.21,275.3,388.28c0,143.84,157.62,260.41,352.05,260.41,62.32,0,120.76-12,171.59-33C744.15,641.69,679.05,656.78,609.13,656.78Z" transform="translate(-227.4 -105.16)"/></svg>