<?xml version="1.0" encoding="UTF-8" standalone="no"?>
<!-- Created with Inkscape (http://www.inkscape.org/) -->

<svg
   xmlns:dc="http://purl.org/dc/elements/1.1/"
   xmlns:cc="http://creativecommons.org/ns#"
   xmlns:rdf="http://www.w3.org/1999/02/22-rdf-syntax-ns#"
   xmlns:svg="http://www.w3.org/2000/svg"
   xmlns="http://www.w3.org/2000/svg"
   xmlns:sodipodi="http://sodipodi.sourceforge.net/DTD/sodipodi-0.dtd"
   xmlns:inkscape="http://www.inkscape.org/namespaces/inkscape"
   width="292.94431"
   height="198.49507"
   id="svg3666"
   version="1.1"
   inkscape:version="0.48.1 "
   sodipodi:docname="mtyfoodgrouplogo.svg">
  <defs
     id="defs3668" />
  <sodipodi:namedview
     id="base"
     pagecolor="#ffffff"
     bordercolor="#666666"
     borderopacity="1.0"
     inkscape:pageopacity="0.0"
     inkscape:pageshadow="2"
     inkscape:zoom="1.979899"
     inkscape:cx="251.94064"
     inkscape:cy="94.59254"
     inkscape:document-units="px"
     inkscape:current-layer="layer1"
     showgrid="false"
     inkscape:window-width="1280"
     inkscape:window-height="750"
     inkscape:window-x="-8"
     inkscape:window-y="-8"
     inkscape:window-maximized="1"
     showborder="false"
     inkscape:showpageshadow="false"
     fit-margin-top="0"
     fit-margin-left="0"
     fit-margin-right="0"
     fit-margin-bottom="0" />
  <metadata
     id="metadata3671">
    <rdf:RDF>
      <cc:Work
         rdf:about="">
        <dc:format>image/svg+xml</dc:format>
        <dc:type
           rdf:resource="http://purl.org/dc/dcmitype/StillImage" />
        <dc:title />
      </cc:Work>
    </rdf:RDF>
  </metadata>
  <g
     inkscape:label="Layer 1"
     inkscape:groupmode="layer"
     id="layer1"
     transform="translate(25.756317,-770.58287)">
    <rect
       style="fill:none;stroke:none"
       id="rect5585"
       width="292.94431"
       height="198.49507"
       x="67.680214"
       y="737.62433"
       transform="translate(-93.436531,32.958538)" />
    <rect
       y="771.61554"
       x="172.16347"
       height="197.14301"
       width="94.400002"
       id="rect4993"
       style="fill:#9c9500;fill-opacity:1" />
    <rect
       y="771.61554"
       x="79.30632"
       height="197.14301"
       width="88.799995"
       id="rect4989"
       style="fill:#797d7b;fill-opacity:1" />
    <rect
       style="fill:#8d002a;fill-opacity:1"
       id="rect4987"
       width="99.816666"
       height="197.14301"
       x="-25.036531"
       y="771.61554" />
    <polygon
       transform="matrix(0.00630265,0,0,0.00630152,-44.947522,780.17351)"
       style="fill:#ffffff;fill-rule:evenodd"
       class="fil0"
       points="14213,17450 14214,24610 15902,24610 15893,13692 14186,13695 11112,20285 7943,13693 6263,13696 6273,24610 7952,24610 7968,17411 10441,22654 11784,22652 "
       id="polygon3797" />
    <g
       transform="matrix(0.00624604,0,0,0.00630152,56.018,777.57088)"
       style="fill:#ffffff;fill-rule:evenodd"
       id="Layer_x0020_1">
      <metadata
         id="CorelCorpID_0Corel-Layer" />
      <sodipodi:namedview
         pagecolor="#ffffff"
         bordercolor="#666666"
         borderopacity="1"
         objecttolerance="10"
         gridtolerance="10"
         guidetolerance="10"
         inkscape:pageopacity="0"
         inkscape:pageshadow="2"
         inkscape:window-width="1280"
         inkscape:window-height="750"
         id="namedview4264"
         showgrid="false"
         inkscape:zoom="0.50457914"
         inkscape:cx="372.04724"
         inkscape:cy="526.18109"
         inkscape:window-x="-8"
         inkscape:window-y="-8"
         inkscape:window-maximized="1"
         inkscape:current-layer="svg4248" />
      <polygon
         class="fil0"
         points="7042,14105 7042,15629 10048,15632 10067,25023 11737,25018 11750,15629 14786,15629 14783,14105 "
         id="polygon4601"
         style="fill:#ffffff" />
    </g>
    <g
       transform="matrix(0.0063076,0,0,0.00632834,162.67179,810.0666)"
       style="fill:#ffffff;fill-rule:evenodd"
       id="Layer_x0020_1-3">
      <metadata
         id="CorelCorpID_0Corel-Layer-1" />
      <sodipodi:namedview
         pagecolor="#ffffff"
         bordercolor="#666666"
         borderopacity="1"
         objecttolerance="10"
         gridtolerance="10"
         guidetolerance="10"
         inkscape:pageopacity="0"
         inkscape:pageshadow="2"
         inkscape:window-width="1280"
         inkscape:window-height="750"
         id="namedview4264-1"
         showgrid="false"
         inkscape:zoom="0.50457914"
         inkscape:cx="372.04724"
         inkscape:cy="526.18109"
         inkscape:window-x="-8"
         inkscape:window-y="-8"
         inkscape:window-maximized="1"
         inkscape:current-layer="svg4248" />
      <path
         inkscape:connector-curvature="0"
         class="fil0"
         d="m 8373,16136 -8,3646 1743,0 -4,-4387 c -1,-90 1440,-2901 1613,-3257 267,-547 523,-1089 805,-1628 263,-501 596,-1078 831,-1605 l -1870,10 c -144,353 -375,769 -553,1132 -187,384 -374,745 -562,1130 l -834,1709 c -89,182 -219,400 -279,570 -76,-80 -2034,-3958 -2293,-4549 l -1829,-2 c 85,234 311,633 432,870 l 2184,4340 c 111,222 602,1143 615,1350 12,196 8,468 8,670 z"
         id="path4646"
         style="fill:#ffffff" />
    </g>
    <g
       style="fill:#ffffff;fill-rule:evenodd"
       id="Layer_x0020_1-4"
       transform="matrix(7.4027332e-4,0,0,7.4346711e-4,-8.9067427,840.36438)">
      <metadata
         id="CorelCorpID_0Corel-Layer-3" />
      <sodipodi:namedview
         pagecolor="#ffffff"
         bordercolor="#666666"
         borderopacity="1"
         objecttolerance="10"
         gridtolerance="10"
         guidetolerance="10"
         inkscape:pageopacity="0"
         inkscape:pageshadow="2"
         inkscape:window-width="1280"
         inkscape:window-height="750"
         id="namedview4264-4"
         showgrid="false"
         inkscape:zoom="0.50457914"
         inkscape:cx="372.04724"
         inkscape:cy="526.18109"
         inkscape:window-x="-8"
         inkscape:window-y="-8"
         inkscape:window-maximized="1"
         inkscape:current-layer="svg4248" />
      <path
         class="fil0"
         d="m 13427,17833 c 0,693 -16,1405 4,2096 15,540 -312,1024 -692,1396 -2125,2077 -5241.8563,892.144 -5795.6187,-25.044 -292.6686,-289.95 -537.6188,-1151.906 -540.6188,-1579.906 -6,-756 -60.7625,-5971.05 0.2375,-6291.05 398,-2094 2908,-3532 5041,-2356 1334,736 1614.087,1578 1798,2333 l 2696,0 C 15381,9488 11634,6850 7807,8277 c -1599,596 -2893,1870 -3539,3447 -485,1185 -431,1808 -436,3052 -5,1164 -1,2328 -1,3492 0,1356.267 75.1777,2350.233 337.39,3190.415 218.4157,699.848 525.6367,1268.413 1408.61,2079.585 1430,1313 3520,1715 5400,1422 1494,-233 3596,-1280 4333,-2653 562,-1048 647,-1702 630,-2876 -17,-1165 1,-2346 1,-3515 l -6370,2 0,1915 3857,0 z"
         id="path3069"
         inkscape:connector-curvature="0"
         style="fill:#ffffff"
         sodipodi:nodetypes="ccccccccccccssccccccccc" />
    </g>
    <path
       class="fil0"
       d="m 6.6011653,848.14942 c 1.1552723,0 2.3099473,0.007 3.4652197,0.007 0.582988,0 0.892925,-0.0412 1.254021,0.50619 0.261753,0.39732 0.350389,0.95455 0.330757,1.42691 -0.01783,0.43299 -0.149316,1.01299 -0.424153,1.35127 -0.347414,0.42746 -0.743609,0.46743 -1.2659204,0.46743 -0.5580047,-6.7e-4 -1.102922,-0.0369 -1.6698477,-0.0289 -0.5681176,0.008 -1.1225533,0.007 -1.6900766,-0.009 l 0,-3.72105 z m 4.4152537,5.47886 c 0.108864,-0.0892 0.279004,-0.10395 0.41404,-0.15438 0.865561,-0.32721 1.584187,-1.27131 1.859622,-2.15636 0.371208,-1.1932 0.0922,-2.69392 -0.577636,-3.72536 -0.250448,-0.38564 -0.782278,-0.96502 -1.232012,-1.07142 -0.952418,-0.22449 -5.499737,-0.12424 -6.5610153,-0.0947 l 0.00416,12.51625 1.6555723,-0.004 0.00951,-5.35154 2.4741373,-0.002 2.7275607,5.35339 c 0.198691,0.0153 1.563363,0.0357 1.654976,-0.0191 0.04224,-0.0996 0.02618,-1.07449 0,-1.2178 -0.151102,-0.0677 -0.272457,-0.0486 -0.431295,-0.072 -0.08328,-0.0449 -0.920883,-1.74551 -1.03332,-1.96877 -0.167755,-0.33213 -0.327188,-0.67164 -0.496729,-1.0056 -0.101133,-0.19928 -0.480668,-0.85 -0.46758,-1.02714 z"
       id="path4745"
       inkscape:connector-curvature="0"
       style="fill:#ffffff;fill-rule:evenodd" />
    <path
       class="fil0"
       d="m 19.364561,847.98445 c 1.049484,-0.0601 1.96486,0.22201 2.55358,1.0964 0.577644,0.85831 0.364184,2.24638 0.369104,3.25588 0.003,0.65355 0.07382,3.02851 -0.114424,3.50231 -0.572113,1.44282 -3.484946,2.13447 -4.881386,0.34344 -0.489677,-0.62855 -0.293437,-2.494 -0.298357,-3.32195 -0.0043,-0.73749 -0.134723,-2.9291 0.06767,-3.50111 0.29651,-0.83749 1.458567,-1.32676 2.303813,-1.37497 z m 4.583644,5.25464 c 0.0277,-1.37794 0.22823,-3.55409 -0.47614,-4.75941 -1.445037,-2.47198 -5.06963,-2.91125 -7.219654,-0.82678 -1.162061,1.12676 -0.911686,2.86065 -0.910454,4.34694 0.0013,0.87259 -0.0049,1.7315 -0.02276,2.6041 -0.01723,0.83451 -0.09228,1.52438 0.369716,2.26721 1.398898,2.24817 5.206808,2.86126 7.337768,0.71725 0.581336,-0.58511 0.845246,-0.9095 0.906763,-1.75115 0.05906,-0.8107 -0.002,-1.76067 0.01477,-2.59816 z"
       id="path4799"
       inkscape:connector-curvature="0"
       style="fill:#ffffff;fill-rule:evenodd" />
    <g
       style="fill:#ffffff;fill-rule:evenodd"
       id="Layer_x0020_1-2"
       transform="matrix(5.0603665e-4,0,0,4.9160029e-4,25.442065,846.77397)">
      <metadata
         id="CorelCorpID_0Corel-Layer-17" />
      <sodipodi:namedview
         pagecolor="#ffffff"
         bordercolor="#666666"
         borderopacity="1"
         objecttolerance="10"
         gridtolerance="10"
         guidetolerance="10"
         inkscape:pageopacity="0"
         inkscape:pageshadow="2"
         inkscape:window-width="1280"
         inkscape:window-height="750"
         id="namedview4264-5"
         showgrid="false"
         inkscape:zoom="0.50457914"
         inkscape:cx="372.04724"
         inkscape:cy="526.18109"
         inkscape:window-x="-8"
         inkscape:window-y="-8"
         inkscape:window-maximized="1"
         inkscape:current-layer="svg4248" />
      <path
         class="fil0"
         d="m 1415,-791 c 0,5668 66,11375 2,17038 -31,2760 -208,4496 2028,6447 1804,1574 4005,2140 6372,2125 2122,-13 4799,-622 6302,-2232 2244,-2404 2117,-3204 2130,-6376 22,-5666 3,-11336 3,-17002 l -3241,7 c 0,4573 0,9146 0,13719 0,4335 697,8464 -5193,8515 -1899,17 -3679,-458 -4720,-2136 -772,-1244 -440,-4832 -440,-6414 0,-4560 0,-9119 0,-13689 l -3241,-1 z"
         id="path4837"
         inkscape:connector-curvature="0"
         style="fill:#ffffff" />
    </g>
    <path
       class="fil0"
       d="m 38.508511,847.93536 c 1.26279,0 2.525573,0 3.787583,0 0.61696,0 0.849397,0.19977 1.136423,0.7552 0.459414,0.88916 0.42509,2.16298 -0.114653,3.02394 -0.185633,0.29691 -0.732403,0.75599 -1.078707,0.79516 -0.497633,0.0556 -3.036463,0.0251 -3.743123,0.0251 l 0.01243,-4.59857 z m -0.0062,6.10194 c 0.96171,0 1.924206,0 2.885916,0 0.470327,0 0.998377,0.0227 1.460903,0.002 0.384534,-0.018 0.6739,-0.25146 0.978877,-0.45907 1.318943,-0.89856 1.812673,-2.56252 1.628593,-4.09955 -0.177053,-1.4822 -1.09665,-3.05293 -2.746306,-3.0498 -1.90939,0.004 -3.843737,-0.0321 -5.74923,0.005 l -0.003,12.53996 1.537337,-0.002 0.0062,-4.93466 z"
       id="path4891"
       inkscape:connector-curvature="0"
       style="fill:#ffffff;fill-rule:evenodd" />
    <g
       style="fill:#ffffff;fill-rule:evenodd"
       id="Layer_x0020_1-8"
       transform="matrix(6.1653665e-4,0,0,6.3193704e-4,44.660727,843.14639)">
      <metadata
         id="CorelCorpID_0Corel-Layer-8" />
      <sodipodi:namedview
         pagecolor="#ffffff"
         bordercolor="#666666"
         borderopacity="1"
         objecttolerance="10"
         gridtolerance="10"
         guidetolerance="10"
         inkscape:pageopacity="0"
         inkscape:pageshadow="2"
         inkscape:window-width="1280"
         inkscape:window-height="750"
         id="namedview4264-52"
         showgrid="false"
         inkscape:zoom="0.50457914"
         inkscape:cx="372.04724"
         inkscape:cy="526.18109"
         inkscape:window-x="-8"
         inkscape:window-y="-8"
         inkscape:window-maximized="1"
         inkscape:current-layer="svg4248" />
      <path
         class="fil0"
         d="m 4589,25006 0,42 11902,0 -25,-2373 -7102,12 c -621,-3 -1772,45 -2321,-50 -32,-626 -56,-6099 13,-6289 268,-98 7025,-32 7946,-32 l 19,-2378 c -814,0 -7326,75 -7962,-33 -47,-196 -87,-6536 31,-6339 5,8 20,-9 27,-10 7,-2 20,-7 29,-8 10,-2 20,-4 31,-6 390,-57 8001,42 9219,-21 l 23,-2354 -11803,-5 -29,19843 z"
         id="path4929"
         inkscape:connector-curvature="0"
         style="fill:#ffffff" />
    </g>
    <g
       transform="matrix(7.4027332e-4,0,0,7.4346711e-4,192.16468,935.12634)"
       id="g4965"
       style="fill:#ffffff;fill-rule:evenodd">
      <metadata
         id="metadata4967" />
      <sodipodi:namedview
         inkscape:current-layer="svg4248"
         inkscape:window-maximized="1"
         inkscape:window-y="-8"
         inkscape:window-x="-8"
         inkscape:cy="526.18109"
         inkscape:cx="372.04724"
         inkscape:zoom="0.50457914"
         showgrid="false"
         id="namedview4969"
         inkscape:window-height="750"
         inkscape:window-width="1280"
         inkscape:pageshadow="2"
         inkscape:pageopacity="0"
         guidetolerance="10"
         gridtolerance="10"
         objecttolerance="10"
         borderopacity="1"
         bordercolor="#666666"
         pagecolor="#ffffff" />
      <path
         sodipodi:nodetypes="ccccccccccccssccccccccc"
         style="fill:#ffffff"
         inkscape:connector-curvature="0"
         id="path4971"
         d="m 13427,17833 c 0,693 -16,1405 4,2096 15,540 -312,1024 -692,1396 -2125,2077 -5241.8563,892.144 -5795.6187,-25.044 -292.6686,-289.95 -537.6188,-1151.906 -540.6188,-1579.906 -6,-756 -60.7625,-5971.05 0.2375,-6291.05 398,-2094 2908,-3532 5041,-2356 1334,736 1614.087,1578 1798,2333 l 2696,0 C 15381,9488 11634,6850 7807,8277 c -1599,596 -2893,1870 -3539,3447 -485,1185 -431,1808 -436,3052 -5,1164 -1,2328 -1,3492 0,1356.267 75.1777,2350.233 337.39,3190.415 218.4157,699.848 525.6367,1268.413 1408.61,2079.585 1430,1313 3520,1715 5400,1422 1494,-233 3596,-1280 4333,-2653 562,-1048 647,-1702 630,-2876 -17,-1165 1,-2346 1,-3515 l -6370,2 0,1915 3857,0 z"
         class="fil0" />
    </g>
    <path
       style="fill:#ffffff;fill-rule:evenodd"
       inkscape:connector-curvature="0"
       id="path4973"
       d="m 207.67259,942.91138 c 1.15527,0 2.30995,0.007 3.46522,0.007 0.58299,0 0.89293,-0.0412 1.25402,0.50618 0.26175,0.39733 0.35039,0.95456 0.33076,1.42692 -0.0178,0.43299 -0.14932,1.01299 -0.42415,1.35127 -0.34742,0.42746 -0.74361,0.46743 -1.26592,0.46743 -0.55801,-6.7e-4 -1.10293,-0.0369 -1.66985,-0.0289 -0.56812,0.008 -1.12256,0.007 -1.69008,-0.009 l 0,-3.72105 z m 4.41525,5.47885 c 0.10887,-0.0892 0.27901,-0.10394 0.41404,-0.15437 0.86557,-0.32721 1.58419,-1.27131 1.85963,-2.15636 0.37121,-1.1932 0.0922,-2.69392 -0.57764,-3.72536 -0.25045,-0.38564 -0.78228,-0.96502 -1.23201,-1.07142 -0.95242,-0.22449 -5.49974,-0.12424 -6.56102,-0.0947 l 0.004,12.51625 1.65557,-0.004 0.01,-5.35155 2.47414,-0.002 2.72756,5.3534 c 0.19869,0.0153 1.56336,0.0357 1.65498,-0.0191 0.0422,-0.0996 0.0262,-1.07449 0,-1.2178 -0.15111,-0.0676 -0.27246,-0.0486 -0.4313,-0.072 -0.0833,-0.0449 -0.92088,-1.74551 -1.03332,-1.96877 -0.16775,-0.33213 -0.32719,-0.67164 -0.49673,-1.0056 -0.10113,-0.19928 -0.48067,-0.85001 -0.46758,-1.02714 z"
       class="fil0" />
    <path
       style="fill:#ffffff;fill-rule:evenodd"
       inkscape:connector-curvature="0"
       id="path4975"
       d="m 220.43599,942.7464 c 1.04948,-0.0601 1.96486,0.22202 2.55358,1.09641 0.57764,0.85831 0.36418,2.24638 0.3691,3.25588 0.003,0.65355 0.0738,3.02851 -0.11442,3.50231 -0.57212,1.44282 -3.48495,2.13447 -4.88139,0.34344 -0.48968,-0.62855 -0.29344,-2.494 -0.29836,-3.32195 -0.004,-0.73749 -0.13472,-2.9291 0.0677,-3.50111 0.29651,-0.83749 1.45857,-1.32676 2.30382,-1.37498 z m 4.58364,5.25465 c 0.0277,-1.37794 0.22823,-3.55409 -0.47614,-4.75942 -1.44504,-2.47197 -5.06963,-2.91124 -7.21965,-0.82677 -1.16206,1.12676 -0.91169,2.86065 -0.91046,4.34694 0.001,0.87259 -0.005,1.7315 -0.0228,2.6041 -0.0172,0.83451 -0.0923,1.52438 0.36971,2.26721 1.3989,2.24817 5.20681,2.86126 7.33777,0.71725 0.58134,-0.58511 0.84525,-0.9095 0.90676,-1.75115 0.0591,-0.8107 -0.002,-1.76068 0.0148,-2.59816 z"
       class="fil0" />
    <g
       transform="matrix(5.0603665e-4,0,0,4.9160029e-4,226.51349,941.53593)"
       id="g4977"
       style="fill:#ffffff;fill-rule:evenodd">
      <metadata
         id="metadata4979" />
      <sodipodi:namedview
         inkscape:current-layer="svg4248"
         inkscape:window-maximized="1"
         inkscape:window-y="-8"
         inkscape:window-x="-8"
         inkscape:cy="526.18109"
         inkscape:cx="372.04724"
         inkscape:zoom="0.50457914"
         showgrid="false"
         id="namedview4981"
         inkscape:window-height="750"
         inkscape:window-width="1280"
         inkscape:pageshadow="2"
         inkscape:pageopacity="0"
         guidetolerance="10"
         gridtolerance="10"
         objecttolerance="10"
         borderopacity="1"
         bordercolor="#666666"
         pagecolor="#ffffff" />
      <path
         style="fill:#ffffff"
         inkscape:connector-curvature="0"
         id="path4983"
         d="m 1415,-791 c 0,5668 66,11375 2,17038 -31,2760 -208,4496 2028,6447 1804,1574 4005,2140 6372,2125 2122,-13 4799,-622 6302,-2232 2244,-2404 2117,-3204 2130,-6376 22,-5666 3,-11336 3,-17002 l -3241,7 c 0,4573 0,9146 0,13719 0,4335 697,8464 -5193,8515 -1899,17 -3679,-458 -4720,-2136 -772,-1244 -440,-4832 -440,-6414 0,-4560 0,-9119 0,-13689 l -3241,-1 z"
         class="fil0" />
    </g>
    <path
       style="fill:#ffffff;fill-rule:evenodd"
       inkscape:connector-curvature="0"
       id="path4985"
       d="m 239.57994,942.69732 c 1.26279,0 2.52557,0 3.78758,0 0.61696,0 0.8494,0.19977 1.13642,0.7552 0.45942,0.88916 0.42509,2.16298 -0.11465,3.02394 -0.18563,0.29691 -0.7324,0.75599 -1.07871,0.79516 -0.49763,0.0556 -3.03646,0.0251 -3.74312,0.0251 l 0.0124,-4.59858 z m -0.006,6.10193 c 0.96171,0 1.92421,0 2.88592,0 0.47033,0 0.99838,0.0227 1.4609,0.002 0.38454,-0.018 0.6739,-0.25146 0.97888,-0.45908 1.31894,-0.89855 1.81267,-2.56251 1.62859,-4.09954 -0.17705,-1.48221 -1.09665,-3.05293 -2.7463,-3.0498 -1.90939,0.004 -3.84374,-0.0321 -5.74923,0.005 l -0.003,12.53996 1.53733,-0.002 0.006,-4.93466 z"
       class="fil0" />
  </g>
</svg>
