<svg xmlns="http://www.w3.org/2000/svg" width="309.559" height="38.2" viewBox="0 0 309.559 38.2"><defs><style>.a{fill:#040000;}</style></defs><g transform="translate(-5740.055 -7529.893)"><path class="a" d="M5756.174,7557.533l2.36-1.56a14.687,14.687,0,0,0,1.441-1.08q1.4-1.119,1.4-1.321c0-.079-.279-.145-.84-.2q-4.761.081-7.04.359a20.527,20.527,0,0,0-4.359,1q-.441.162-1,.361c-.348.08-.681.174-1,.28q-.521.16-1,.319a8.782,8.782,0,0,1-2.04.361,4.558,4.558,0,0,1-1.761-.52,5.928,5.928,0,0,1-1.68-1c-.4-.374-.6-.68-.6-.921,0-.213.092-.319.279-.319l2.36.16,1.96-.36,6.08-1.08a68.055,68.055,0,0,1,11.92-1.12,13.884,13.884,0,0,1,5.04.88q2.28.921,2.281,2c0,.56-.268.839-.8.839l-4.84.04a10.312,10.312,0,0,0-3.359.92,1.442,1.442,0,0,1-.321.12q-.72.282-1,.4a6.984,6.984,0,0,0-1.719.8,5.746,5.746,0,0,1-2.08,1.04h-.041C5755.947,7557.773,5756.067,7557.64,5756.174,7557.533Zm-7.92-10.64q1.321-1.4,3.681-4.241a18.722,18.722,0,0,1-1.96.121,3.939,3.939,0,0,1-1.641-.28l-1.12-.4q-1.119-.4-1.119-.56c0-.16.213-.294.639-.4l.361-.08,5.359-1.72,3.561-1.12a7.788,7.788,0,0,1,1.8-.28,2.938,2.938,0,0,1,1.56.44,1.208,1.208,0,0,1,.681.96,1.22,1.22,0,0,1-.681,1.16h-.04a.036.036,0,0,1-.04.04.509.509,0,0,0-.12.079,3.067,3.067,0,0,0-.52.2l-1.759.76c-.241.108-.681.334-1.321.681l-1.6.92-4.4,3.76c-.106.08-.226.174-.36.28-.587.453-1.119.853-1.6,1.2-.186.159-.559.44-1.12.84q-.48.4-1,.76-.641.48-1.2.92l-.159-.04Q5746.853,7548.373,5748.254,7546.893Z"/><path class="a" d="M5776.215,7555.612h.64a4.993,4.993,0,0,0,1.8-.319l5.8-2.08.12-4.16-.479-.12-.441.56a1.965,1.965,0,0,1,.12.6.99.99,0,0,1-1.12,1.12,2.573,2.573,0,0,1-1.12-.32,9.949,9.949,0,0,1-1.6,1.08l-.2-.04a17.9,17.9,0,0,0,1.441-1.6,8.157,8.157,0,0,1-3.12-7.08q0-2.161.96-2.32a18.216,18.216,0,0,0,2.28,4.4,31.185,31.185,0,0,1,3.479-1.92v-1.12a10.5,10.5,0,0,1-2.439.4,11.565,11.565,0,0,1-2.36-.359v-.2a41.245,41.245,0,0,1,4.88-1.68l-.041-1.721a29.593,29.593,0,0,0-2.759,1.441l-.2-.24a20.275,20.275,0,0,0,2.24-1.8,21.256,21.256,0,0,1-2.321-.16,13.771,13.771,0,0,1-1.759-.52l.04-.2q1.679-.56,2.679-.96.761-.279,2.121-.84.12-1.4.12-2.4a10.049,10.049,0,0,0-.64-3.08,4.163,4.163,0,0,1,3.119,1.48,2.693,2.693,0,0,1,.8,1.68,6.83,6.83,0,0,1-.12,1.16h.2q3,0,3,1.16a.86.86,0,0,1-.4.8,8.6,8.6,0,0,1-1.88.559,7.749,7.749,0,0,0-1.441.561l-.359,2.359a15.4,15.4,0,0,1,3-.439q4.08,0,4.08,2.519a10.324,10.324,0,0,1-2.841,7,2.935,2.935,0,0,1-2.319,1,12.286,12.286,0,0,1-2.721-.4v1.92c.026.347.054.693.08,1.04.373-.106.734-.226,1.08-.36.721-.24,1.2-.4,1.441-.48a7.615,7.615,0,0,1,1.88-.4,3.119,3.119,0,0,1,1.4.36q1.158.64,1.159,1.239t-2.08.721a12.02,12.02,0,0,0-1.92.279l-2.96.681v.319l.6,6.521c.053.533.08.894.08,1.08q0,2.88-1.08,2.88-.36,0-1.6-1.84a4.089,4.089,0,0,1-.84-2.2q0-.24.521-3.481a14.662,14.662,0,0,0,.159-2.559,19.288,19.288,0,0,0-2.96,1.439,8.026,8.026,0,0,1-2.76,1.361,2.881,2.881,0,0,1-1.359-.361q-2.04-1.158-1.841-1.84l.04-.16A6.147,6.147,0,0,0,5776.215,7555.612Zm7.68-8.04.8-1.119v-.761a11.828,11.828,0,0,0-1.32.161q-.56.12-1.359.36l.84,1.16Zm4.719-.96a4.383,4.383,0,0,0,1.04-1.88,8.929,8.929,0,0,0,.6-2.959q0-1-.881-1a7.12,7.12,0,0,0-2.119.44l-.12,1.439a4.971,4.971,0,0,0,.559-.04h.321c.986,0,1.479.348,1.479,1.04q0,.842-2.84,3.16v.641A4.058,4.058,0,0,0,5788.614,7546.612Zm4.6,3.08a3.11,3.11,0,0,0,1.72-.439,18.293,18.293,0,0,0,3.12-2.48,47.066,47.066,0,0,0,3.679-4.4,3.994,3.994,0,0,0-1-1.04v-.16a2.78,2.78,0,0,1,.68-.08,7.678,7.678,0,0,1,1.24.12l1.04-1.641a13.112,13.112,0,0,1-2.92.481,12.849,12.849,0,0,1-3.4-.76v-.2q3.321-1.519,6.24-2.521a14.709,14.709,0,0,1,3.84-1,2.421,2.421,0,0,1,1.4.441c.506.374.76.693.76.96q0,.6-1.719,1.719a40.074,40.074,0,0,0-3.6,3.04,3.74,3.74,0,0,1,1.6,1.4,12.273,12.273,0,0,1,.4,3.16,8.135,8.135,0,0,0,1.68-.28l1.479-.56h.12v-.04h.24a6.38,6.38,0,0,1,3.361,1q1.479.96,1.479,1.48,0,1.078-1.84,1.08a5.592,5.592,0,0,1-.759-.04,19.142,19.142,0,0,0-3.681-.321h-1.319a7.559,7.559,0,0,1-.8-.04l-.521,5.961a64.149,64.149,0,0,1-1.08,6.8,16.857,16.857,0,0,1-1,3.239,13.781,13.781,0,0,1-1.759,2.561,8.1,8.1,0,0,1-.041-.84q0-.842.121-2.561.12-1.56.16-3.439.08-2.24.12-4.76l.04-6.2a17.142,17.142,0,0,0-4.6,1.88,5.141,5.141,0,0,1-1.92.88,2.172,2.172,0,0,1-1.439-.72c-.294-.293-.547-.561-.761-.8-.319-.345-.479-.559-.479-.639v-.121Zm6-1.6q1-.281,1.279-.361l1.8-.479v-1q0-.76-.12-2.12-2.68,2.44-4.561,4.439Z"/><path class="a" d="M5816.454,7554.973a23.566,23.566,0,0,0,2.521-2.08q.839-.84,1.879-2,1-1.08,3.4-3.88.92-1.119,1.721-2.04,1.2-1.4,2.439-2.8-1.839,1-2.68,1.4-1,.482-2.56,1.08a4.533,4.533,0,0,1-2-.719,3.822,3.822,0,0,1-1.44-1.2,26.271,26.271,0,0,0,4.68-2.359,40.607,40.607,0,0,0,4.6-3.8l1.279-1.159a24.706,24.706,0,0,0,3.24-3.88,8.078,8.078,0,0,0-4.559,2.4l-2,2q-1.121,1.121-1.361,1.32a1.13,1.13,0,0,1-.679.2q-.561,0-1.04-.96a4.142,4.142,0,0,1-.521-2,10.4,10.4,0,0,1,.721-2.8l.359-.04q1.56,1.881,2.441,1.881a7.425,7.425,0,0,0,2.559-1.52,8.176,8.176,0,0,1,5.04-1.72,12.237,12.237,0,0,1,2.8.519q1.121.282,1.12.76a1.68,1.68,0,0,1-.68,1.24,28.573,28.573,0,0,1-4.32,3.081l-5.96,3.56-1,.76a42.327,42.327,0,0,0,6.72-2.68,5.46,5.46,0,0,1,2.32-.841c.187,0,.547.028,1.08.081q2.558.72,2.561,1.76,0,.72-1.08,1.119l-1.881.641q-2.96,1.08-6.4,5.24l-1.08,1.279-4.92,5.721a12.24,12.24,0,0,1-7.48,4.44h-.8a8.4,8.4,0,0,1-1.88-.241l-.08-.2A21.026,21.026,0,0,0,5816.454,7554.973Zm7.84,2.2-.12,1.4v.24c0,.455.014.828.04,1.121a6.337,6.337,0,0,0,1.12-.76q1-1.039,1.08-1.12a1.538,1.538,0,0,1,.44-.16,19.688,19.688,0,0,0-2.48,3.8c.134.054.253.108.36.161q1.32.6,1.68.8a5.064,5.064,0,0,0,2.08.561c.481,0,.72-.32.72-.96l-.04-.6.08-2.359v-.481q0-1-.119-3.039l-2.721.4a4.1,4.1,0,0,1-.64.04h-.16l-2.36-.32c-.854-.133-1.279-.321-1.279-.56v-.16l6.8-1.68.361-.08a19.159,19.159,0,0,0-.12-2.6,1.848,1.848,0,0,0-.521-1.12c-.559-.506-.84-.826-.84-.96q0-.358.56-.359a6.671,6.671,0,0,1,3.36,1.279,2.88,2.88,0,0,1,1.4,2.6v.359a7.727,7.727,0,0,1,1.8-.319,7.2,7.2,0,0,1,2.44.519q1.2.521,1.2,1c0,.295-.294.521-.88.681a23.377,23.377,0,0,1-3.4.48,8.562,8.562,0,0,0-1.361.2l-.04,1.36.161,7.56q.078,3.36-1.481,3.36-.84,0-3.279-2.16a20.034,20.034,0,0,0-1.641-1.32q-.719-.519-2.4-1.72a15.7,15.7,0,0,1-1.08,1.64.839.839,0,0,1-.641.32q-1.521,0-1.52-1.76a5.482,5.482,0,0,1,1.121-3.24l1.479-2.04a.6.6,0,0,1,.12-.16c.213-.293.4-.441.561-.441A2.249,2.249,0,0,1,5824.294,7557.173Zm18.6-4.04a12.474,12.474,0,0,0-3.041.519l-.12-.08v-.159a17.813,17.813,0,0,0,1.92-.52,8.214,8.214,0,0,0,1.481-.84,6.227,6.227,0,0,0-.881-.76q-.358-.2-1.48-.721-1.041-.517-2.56-1.119-1.4-.56-2.319-.841-1.761-.478-2.241-.639a6.4,6.4,0,0,1-1.04-.52v-.2q0-.4,1.88-.4,6.04,0,13.28,3.839,3.08,1.56,3.08,3.04,0,.88-1,.88a4.553,4.553,0,0,1-1.52-.319,13.1,13.1,0,0,0-1.56-.481,6.024,6.024,0,0,0-.639-.2A15.55,15.55,0,0,0,5842.9,7553.133Zm-3.4,4.559a6.888,6.888,0,0,1,2,1.641,3.1,3.1,0,0,1,.92,1.76q0,1-.92,1a10.157,10.157,0,0,1-2-.441,3.367,3.367,0,0,0-.96-.119,17.984,17.984,0,0,0-3.519.68v-.16q3.078-1.441,3.08-2.12,0-.2-.641-.8c-.106-.107-.307-.293-.6-.561a1.69,1.69,0,0,0-.24-.2c-.08-.054-.16-.106-.24-.16q-.521-.36-.64-.44c-.614-.266-.893-.494-.839-.68l.08-.24A9.454,9.454,0,0,1,5839.494,7557.692Z"/><path class="a" d="M5860.215,7534.533a1.52,1.52,0,0,1,1-.32h.04a6.3,6.3,0,0,0,1.359-.28l1.76-.4,4.32-1.32a29.174,29.174,0,0,1,8.8-1.36q2.521,0,2.521,1.44,0,.641-1.68,1.6a29.715,29.715,0,0,0-2.841,1.919q1.841.64,1.841,1.321t-1.761,1.08l-2.04.519-2.279.441a12.92,12.92,0,0,0-2.28.639,6.95,6.95,0,0,1-2.481.8,1.978,1.978,0,0,1-1.519-.92l-.561-.719a.959.959,0,0,1-.2-.361,1.166,1.166,0,0,1,.159-.279,7.236,7.236,0,0,0,.841.04,9.044,9.044,0,0,0,4.4-1.84,16.656,16.656,0,0,0,4.24-3.841h-.6a7.622,7.622,0,0,0-3.4.96l-2.879,1.481a6.353,6.353,0,0,1-2.88.679h-.721a4.73,4.73,0,0,0-.039.641v.32l.479,2.68-1.12,3.84-1.84,6.519q-.04.162-.28.8c-.134.454-.279.908-.439,1.361q-.24.72-.481,1.44a.114.114,0,0,1-.04.08.108.108,0,0,1-.04.079v.08a.121.121,0,0,0-.04.08v.08l-.04.041v.04a17.5,17.5,0,0,1-2.76,5.839.887.887,0,0,1-.759.321q-.842,0-.92-1.96l-.04-1.8v-.28a4.672,4.672,0,0,1,.359-1.68l2.2-3.96a30.114,30.114,0,0,0,2-5.681l1.24-4.439.92-3.48a8.418,8.418,0,0,1,.521-1.041c.025-.052.053-.1.08-.16A10.386,10.386,0,0,1,5860.215,7534.533Zm.4,26.92c.987-.106,1.561-.174,1.721-.2l5-1.08a18.215,18.215,0,0,1,2.159-.361l.24-3.039a5.813,5.813,0,0,1-2.32.72,3.808,3.808,0,0,1-2.64-1.56l.121-.121a8.562,8.562,0,0,0,3.879-1.559l.76-.561a3.545,3.545,0,0,0-1-2.359,38.759,38.759,0,0,1-3.16,1.6q-1.521,0-2.2-2.96a10.616,10.616,0,0,0,3.72-1.68,22.111,22.111,0,0,0,3.6-3.8,7.305,7.305,0,0,1-2.559.68,8.618,8.618,0,0,1-1.6-.16q-.88-.2-2.561-.68a4.76,4.76,0,0,1,2.04-.84,30.976,30.976,0,0,0,6.8-2.4,9.321,9.321,0,0,1,3.8-1.12,2.045,2.045,0,0,1,2.2,1.6l-.2.24-5.519,4.161-2.72,2.12q2.32-.559,3.439-.96,2.2-.842,3.04-1.12a4.648,4.648,0,0,1,1.2-.24,3.1,3.1,0,0,1,.56.039q2.561.481,2.561,1.441,0,.68-1.361,1.439l-6.04,3.521-.279.12v.72a9.147,9.147,0,0,1,2.6-.481,2.551,2.551,0,0,1,1.519.521q.76.519.761,1.04,0,.92-2.04,1-.481.04-1.321.16-.639.12-1.8.359l-.561,3.721c.96-.026,1.707-.054,2.24-.08.694-.026,1.241-.054,1.641-.08q2.478-.2,2.76-.2a7.544,7.544,0,0,1,3.759,1.04q1.639.8,1.64,1.519c0,.7-.519,1.04-1.559,1.04a3.887,3.887,0,0,1-.481-.04.167.167,0,0,0-.119-.039,20.536,20.536,0,0,0-2.761-.2,19.491,19.491,0,0,0-2.559.16q-1.241.16-3.241.56v-.28l2.4-1.4-.561-.08q-6.36.24-8.16,1l-2.6,1.04a3.073,3.073,0,0,1-1.32.279,6.1,6.1,0,0,1-2.96-.839c-.8-.454-1.2-.8-1.2-1.041v-.16C5859.8,7561.52,5860.215,7561.48,5860.614,7561.453Zm11.84-10.28a6.154,6.154,0,0,0,1.6-2,7.834,7.834,0,0,0-2.521.72l-1.439.679A7.507,7.507,0,0,1,5872.454,7551.173Z"/><path class="a" d="M5896.174,7530.493a5.858,5.858,0,0,1,2.32.4q.959.4.96,1,0,.4-1.48,1.88a15.042,15.042,0,0,0-1.6,1.76q1.56-.16,2.44-.16,4.28,0,4.28,2.279,0,.761-1.04.761c-.054,0-.293-.014-.72-.04l-.64-.08c-.267,0-.534-.014-.8-.04h-.321a3.448,3.448,0,0,0-.44-.04c-.187,0-.587.014-1.2.04a3.277,3.277,0,0,1-.521.04l-.04-.16,1.04-.561a1.465,1.465,0,0,0-.88-.319h-.28c-.347-.026-.627-.054-.84-.08q-.6-.081-1.12-.16a5.847,5.847,0,0,0-.8,1.04c-.08.106-.146.2-.2.28q4.2.321,4.2,2.4c0,.641-.36.96-1.08.96h-.2l-1.8-.08a12.534,12.534,0,0,0-1.72.241l-.04-.2q1.239-.8,1.241-1.279,0-.8-1.521-1l-4.4,5.239a14.758,14.758,0,0,1-1.44,1.521l-1.04,1.08a2.376,2.376,0,0,1-.72.519c-.213,0-.4-.212-.56-.639a3.432,3.432,0,0,1,.04-2.8l2.08-2.16,5.561-6.6q.439-.521,1.359-1.68c.054-.08.106-.161.16-.241a3.121,3.121,0,0,0,.76-1.4,6.756,6.756,0,0,0-.64-1.2v-.04h-.04v-.08a.035.035,0,0,1-.04-.04.113.113,0,0,1-.04-.08.036.036,0,0,1-.04-.041.114.114,0,0,1-.04-.08A10.888,10.888,0,0,1,5896.174,7530.493Zm-6.84,15.04v-.24a28.549,28.549,0,0,1,4.96-2.16,13.852,13.852,0,0,1,4.16-.6q2.88,0,2.88,2.48a19.8,19.8,0,0,1-.68,3.88q-.921,3.72-2.52,3.719a2.982,2.982,0,0,1-1.4-.6l-.64.24c-.64.24-1.054.4-1.24.479-.4.134-.626.214-.68.241l-.92.44a1.26,1.26,0,0,1-.48.12c-.053,0-.386-.094-1-.28-.027.214-.053.439-.08.68q-.16.88-.2,1.12a6.308,6.308,0,0,0-.16,1.44q0,1.879.96,1.88a1.491,1.491,0,0,0,.52-.24l2.081-1.321a20.911,20.911,0,0,0,1.639-1.4,3.708,3.708,0,0,0-1.24-1.08q-1.08-.521-1.08-.721c0-.265.226-.4.681-.4h.2l.96.08a3.533,3.533,0,0,1,.96.279h.04a5.55,5.55,0,0,0,1.68.4c.293,0,.494-.253.6-.76l.24-.2a5.948,5.948,0,0,0,.321,1.76,12.2,12.2,0,0,1,.719,2.44q.161,1.121-.8,1.12-.48,0-1.44-1.2a6.074,6.074,0,0,0-.56-.64q-.4.52-.8,1.04-1.161,1.48-1.52,1.96a12.236,12.236,0,0,1-1.92,1.96,3.136,3.136,0,0,1-1.56.8,2.45,2.45,0,0,1-2-1.441,5.809,5.809,0,0,1-.92-3.2.555.555,0,0,1,.04-.239l.12-2.8.72-6.719.24-1.88Zm4.6,2.92a1.319,1.319,0,0,1-.321.04,1.955,1.955,0,0,1-.52-.16l-.56,2.4A7.692,7.692,0,0,0,5893.935,7548.453Zm-.841-1.721v.041q1.039-.36,1.56-.6a7.83,7.83,0,0,1,2.2-.64,3.39,3.39,0,0,1,1.081.279,3.086,3.086,0,0,0,.119-.8q0-1.2-.8-1.2a1.067,1.067,0,0,0-.48.2c-.027,0-.28.106-.76.32-.213.08-.427.174-.64.279-.24.108-.494.214-.76.321q-.441.2-.84.4-.561.281-1.16.6A2.928,2.928,0,0,1,5893.094,7546.732Zm2.12,3.721c.293-.08.721-.186,1.28-.32a9.857,9.857,0,0,0,1.04-2.6,47,47,0,0,0-3.88,3.36Q5894.614,7550.613,5895.214,7550.453Zm8.28-1.2,1.16-.8a18.884,18.884,0,0,1,.52-1.881q.159-.6.64-1.84a6.644,6.644,0,0,1,.76,2.041,30.475,30.475,0,0,0,3.24-3.32,20.146,20.146,0,0,0-2.32.68,5.628,5.628,0,0,1-1.6.4q-1.122,0-2.361-2.16a12.934,12.934,0,0,0,5.52-3.561,35.962,35.962,0,0,0,3.36-3.839,6.414,6.414,0,0,0,1.44-2.64c0-.32-.267-.681-.8-1.08l.12-.16c.186,0,.453-.013.8-.04h.4q3.919,0,3.92,1.519,0,.842-4.12,4.321a69.522,69.522,0,0,1-5.6,4.16q1.8-.482,2.321-.64l2.2-.8a3.041,3.041,0,0,1,1.16-.2,3.091,3.091,0,0,1,1.84.6c.453.374.68.639.68.8q0,.481-1.28,1.4a11.287,11.287,0,0,1-1.12.68q-.441.281-1.56,1.04a.65.65,0,0,1-.16.12,7.261,7.261,0,0,1,2.32,1.24,2.549,2.549,0,0,1,.56,1.8v.32a7.212,7.212,0,0,1,1.08-.12q1.2,0,1.2-.44a2.287,2.287,0,0,0-.56-.88h.12a.112.112,0,0,0,.08.04.227.227,0,0,1,.16.04l2.84,1.48,1.84.92q.84.52.84,1,0,.959-1.56.96a8.5,8.5,0,0,1-2.32-.4,15.931,15.931,0,0,0-3.76-.321l-.04,1.721q-.12,3.2-.28,5.319-.16,2.32-.44,4a22.372,22.372,0,0,1-1.88,5.84,2.63,2.63,0,0,1-1.6,1.521q.439-3.6.6-5.84.159-2.2.16-4.8v-.641l-.119-7q-2.2.442-3.041.681a11.269,11.269,0,0,0-2,.72l-.12,1.56a3.064,3.064,0,0,0,.72-1.041l.24.08a23.162,23.162,0,0,0-.64,3.481q-.12,1.841-.24,2.6-.319,2.04-1.32,2.04-.641,0-1.2-1.241a5.652,5.652,0,0,1-.6-2.559q0-1,.28-3.481a3.188,3.188,0,0,1-1.4.481q-.921,0-1.88-1.36a2,2,0,0,1-.12-.2,2.393,2.393,0,0,1-.32-.679v-.2A7.37,7.37,0,0,0,5903.494,7549.253Zm3.16-14a4.839,4.839,0,0,0,1.96-1.16l.72-.56q.56-.48,1.44-1.36h.161a21.758,21.758,0,0,0-2.04,2.96,13.154,13.154,0,0,0-.921,1.92l-.52,1.519a1.271,1.271,0,0,1-1.28,1.04q-1.761,0-1.76-2.92a3.48,3.48,0,0,1,.04-.679l.32-1.76q.2-.842.6-1Q5905.775,7535.254,5906.654,7535.253Zm5.08,12.64v-.48a6.606,6.606,0,0,0-.44-2.36l-2.28,1.519-2.079,1.4-.04.8Z"/><path class="a" d="M5936.535,7532.173a5.964,5.964,0,0,1-1.28,2.92c.373-.107.746-.2,1.12-.281q.96-.278,1.279-.359a18.767,18.767,0,0,1,3.641-.881,2.978,2.978,0,0,1,2,.761c.506.347.76.64.76.88q0,.48-1,1.24l-1.16,1-5.68,4.159a24.618,24.618,0,0,1,5.559-.8q4.6,0,4.6,2.88v.161l-.36,5.36q-.12,1.359-.161,2.08c-.026.613-.04,1.094-.04,1.439a24.044,24.044,0,0,0,.161,2.96l.679,4.561q.12,1.08.16,1.64c.054.614.081,1.093.081,1.44q0,2.6-1.6,2.6a5.287,5.287,0,0,1-3.2-1.6l-2.6-2.28q-1.2-1.08-3.721-3.12v-.16q2.121.84,3.121,1.32a4.5,4.5,0,0,0,2.16.639q1.44,0,1.44-1.239l-.08-10.16q0-2.4-.24-4.92-.162-2.12-1.6-2.12a11.776,11.776,0,0,0-5.479,1.519,5.343,5.343,0,0,1,2.36.8,2.237,2.237,0,0,1,.8,1.521,6.179,6.179,0,0,1,.8-.04q1.719,0,1.719,1.12,0,.8-2.96,3.04l-.2,1.319a14.6,14.6,0,0,1,2.16-.239,2.981,2.981,0,0,1,1.481.359q.639.4.64.88,0,.8-2.44,1.481a7.76,7.76,0,0,0-1.92.8l-1.56.8a11.393,11.393,0,0,0-1.121.641,1.78,1.78,0,0,1-1.04.6v-.081a27.3,27.3,0,0,0,2.641-2.839.719.719,0,0,0-.2-.08,1.007,1.007,0,0,0-.481.16l-.8.24-.76.279a4.8,4.8,0,0,1-1.641.321q-.92,0-1.8-1.84l.08-.08a9.208,9.208,0,0,0,3.72-1.88v-1.4a8.56,8.56,0,0,1-3.4-.679,2.046,2.046,0,0,1,.679-.68q.362-.159,2-.721a3.247,3.247,0,0,0,.641-.239,10.277,10.277,0,0,0-.4-3.04,6.461,6.461,0,0,1-3.08,1.04h-.56a4.708,4.708,0,0,1-.641-.04,4.346,4.346,0,0,0,.161.76v.12a.331.331,0,0,1,.04.12l.44,1.239a4.341,4.341,0,0,1,.08.841v.239l-.32,4.561-.2,4.08q-.12,2.88-.12,3.16v.96q0,2.359-1.241,2.36c-.239,0-.507-.266-.8-.8a8.341,8.341,0,0,1-1.12-3.68,3.192,3.192,0,0,1,.08-.76l.88-5.48a35.228,35.228,0,0,0,.481-3.96c.08-.986.146-1.694.2-2.12a15.221,15.221,0,0,1,.279-1.68.635.635,0,0,0,.04-.2.162.162,0,0,1-.12-.04.158.158,0,0,1-.119-.04.751.751,0,0,1-.24-.04.162.162,0,0,0-.12-.04.11.11,0,0,1-.08-.04h-.04c-.454-.107-.68-.281-.68-.52,0-.106.026-.16.08-.16l4.359-1.28h.04v-.04h.08a.516.516,0,0,1,.2-.12.479.479,0,0,1,.12-.081c.053-.026.106-.052.16-.08l3.08-2.759a15.951,15.951,0,0,0,3.279-3.88,16.156,16.156,0,0,0-8.96,4.48q-1.881,1.879-2.679,1.88-1,0-1-1.84,0-1.2,1.719-2.28a17.353,17.353,0,0,0,3.441-2.88,53.72,53.72,0,0,0,4.2-5.4A4.286,4.286,0,0,1,5936.535,7532.173Z"/><path class="a" d="M5957.814,7534.533a1.524,1.524,0,0,1,1-.32h.04a6.294,6.294,0,0,0,1.36-.28l1.76-.4,4.32-1.32a29.167,29.167,0,0,1,8.8-1.36q2.52,0,2.52,1.44,0,.641-1.679,1.6a29.532,29.532,0,0,0-2.841,1.919q1.838.64,1.841,1.321t-1.761,1.08l-2.04.519-2.28.441a12.943,12.943,0,0,0-2.28.639,6.944,6.944,0,0,1-2.48.8,1.981,1.981,0,0,1-1.52-.92l-.56-.719a.968.968,0,0,1-.2-.361,1.151,1.151,0,0,1,.16-.279,7.224,7.224,0,0,0,.84.04,9.043,9.043,0,0,0,4.4-1.84,16.7,16.7,0,0,0,4.24-3.841h-.6a7.62,7.62,0,0,0-3.4.96l-2.88,1.481a6.348,6.348,0,0,1-2.88.679h-.72a4.5,4.5,0,0,0-.039.641v.32l.479,2.68-1.12,3.84-1.84,6.519c-.027.108-.12.374-.28.8-.134.454-.279.908-.44,1.361l-.48,1.44a.118.118,0,0,1-.04.08.11.11,0,0,1-.04.079v.08a.119.119,0,0,0-.04.08v.08l-.04.041v.04a17.5,17.5,0,0,1-2.76,5.839.888.888,0,0,1-.76.321q-.84,0-.92-1.96l-.04-1.8v-.28a4.641,4.641,0,0,1,.36-1.68l2.2-3.96a30.186,30.186,0,0,0,2-5.681l1.24-4.439.92-3.48a8.108,8.108,0,0,1,.52-1.041l.081-.16A10.421,10.421,0,0,1,5957.814,7534.533Zm.4,26.92c.986-.106,1.56-.174,1.721-.2l5-1.08a18.194,18.194,0,0,1,2.159-.361l.24-3.039a5.817,5.817,0,0,1-2.32.72,3.808,3.808,0,0,1-2.64-1.56l.12-.121a8.561,8.561,0,0,0,3.88-1.559l.76-.561a3.55,3.55,0,0,0-1-2.359,38.537,38.537,0,0,1-3.16,1.6q-1.521,0-2.2-2.96a10.616,10.616,0,0,0,3.72-1.68,22.091,22.091,0,0,0,3.6-3.8,7.309,7.309,0,0,1-2.56.68,8.6,8.6,0,0,1-1.6-.16q-.88-.2-2.561-.68a4.754,4.754,0,0,1,2.04-.84,30.993,30.993,0,0,0,6.8-2.4,9.314,9.314,0,0,1,3.8-1.12,2.045,2.045,0,0,1,2.2,1.6l-.2.24-5.52,4.161-2.72,2.12q2.319-.559,3.44-.96,2.2-.842,3.04-1.12a4.64,4.64,0,0,1,1.2-.24,3.115,3.115,0,0,1,.56.039q2.561.481,2.56,1.441,0,.68-1.36,1.439l-6.04,3.521-.279.12v.72a9.144,9.144,0,0,1,2.6-.481,2.557,2.557,0,0,1,1.52.521q.76.519.76,1.04,0,.92-2.04,1-.48.04-1.32.16c-.427.08-1.026.2-1.8.359l-.56,3.721c.96-.026,1.707-.054,2.24-.08.693-.026,1.24-.054,1.641-.08q2.478-.2,2.759-.2a7.545,7.545,0,0,1,3.76,1.04q1.639.8,1.64,1.519c0,.7-.52,1.04-1.56,1.04a3.881,3.881,0,0,1-.48-.04.172.172,0,0,0-.119-.039,20.571,20.571,0,0,0-2.761-.2,19.528,19.528,0,0,0-2.56.16q-1.24.16-3.24.56v-.28l2.4-1.4-.56-.08q-6.36.24-8.16,1l-2.6,1.04a3.078,3.078,0,0,1-1.32.279,6.1,6.1,0,0,1-2.96-.839c-.8-.454-1.2-.8-1.2-1.041v-.16C5957.4,7561.52,5957.814,7561.48,5958.214,7561.453Zm11.84-10.28a6.143,6.143,0,0,0,1.6-2,7.843,7.843,0,0,0-2.52.72l-1.44.679A7.506,7.506,0,0,1,5970.054,7551.173Z"/><path class="a" d="M5990.334,7550.493a44.47,44.47,0,0,0,4.12-4.24,37.491,37.491,0,0,0,3-4.4,15.314,15.314,0,0,1-3.52.719,3.205,3.205,0,0,1-1.161-.2l-1.679-.681q-.641-.238-.64-.439,0-.439,1.96-.681a6.812,6.812,0,0,0,1.359-.319l5.4-1.681-.04-3.88a10.415,10.415,0,0,0-.28-2.519,7.456,7.456,0,0,0-1.041-1.96.553.553,0,0,1,.441-.32,10.45,10.45,0,0,1,1.96.56q2.6.84,2.6,2.88a3.43,3.43,0,0,1-.04.56,1.358,1.358,0,0,0-.039.32c-.027.24-.054.479-.08.72a8.159,8.159,0,0,0-.12.84q-.12.96-.2,1.879a7.819,7.819,0,0,0,1.24-.239l1.64-.28a4.062,4.062,0,0,1,.559-.04,3.576,3.576,0,0,1,2.2.719c.56.427.839.775.839,1.041,0,.346-.239.586-.719.719a12.668,12.668,0,0,1-2.76.361.344.344,0,0,0-.16.04h-.2q-.441.079-.72.12l-2.28.36q-.12,1.4-.161,2.119c-.026.641-.04,1.16-.04,1.561v.8c.027.426.054.827.081,1.2a56.689,56.689,0,0,1,6.64,1.479,41.234,41.234,0,0,1,5.84,2.361q4.961,2.32,4.96,3.679c0,.7-.374,1.04-1.12,1.04a3.859,3.859,0,0,1-1.48-.359,12.417,12.417,0,0,0-3.52-.721q-.68-.078-1.56-.119-.72-.04-1.32-.04a8.8,8.8,0,0,0-1.96.239l-.2-.2a.308.308,0,0,0,.12-.04q1.28-.4,1.76-.56a13.332,13.332,0,0,0,1.48-.64q-4.042-2.161-5.92-2.96a16.758,16.758,0,0,0-3.8-1.12c.027.639.054,1.294.081,1.96v3.16a13.284,13.284,0,0,1,2.8-.32,6.475,6.475,0,0,1,2.76.759,1.271,1.271,0,0,1,.12.281q0,.48-1.48,1.08a12.139,12.139,0,0,1-1.241.44,11.77,11.77,0,0,0-2.159.92l-.64.32.24,6.08.16,1.28v.12l.04.04v.2q0,1.759-.8,1.76-.959,0-2.24-2.2a4.442,4.442,0,0,1-.641-1.92q0-.281.121-2.24v-1.2a24.864,24.864,0,0,0-2.16,1.441,1.223,1.223,0,0,1-.76.28h-.08a3.378,3.378,0,0,1,1.04-.92q.12-.081,1-.96a.114.114,0,0,1,.08-.04.112.112,0,0,1,.04-.08.605.605,0,0,0,.16-.12q.439-.4.76-.641v-.84c-.161,0-.387.014-.68.041h-.481a11.4,11.4,0,0,1-2.959-.32c-.774-.214-1.16-.493-1.16-.841a.036.036,0,0,1,.04-.04.165.165,0,0,1,.039-.119l.841-.16q1.481-.4,2.56-.681.72-.2,1.92-.559l.16-6.521-1.6-.319q-2.721,2.8-4.28,4.24a22.225,22.225,0,0,1-3.2,2.44,9.948,9.948,0,0,1-2.96,1.12,17.439,17.439,0,0,1-3.48.28A33.191,33.191,0,0,0,5990.334,7550.493Z"/><path class="a" d="M6020.255,7560.013a11.274,11.274,0,0,0,.92-1.24,26.36,26.36,0,0,0,2.12-4.4c.185-.453.373-.96.559-1.52.107-.266.2-.534.281-.8a6.5,6.5,0,0,0,.28-.76l1.12-3.24q.279-.8.96-3.04.159-.56.319-1.12.439-1.4.84-2.76a17.506,17.506,0,0,1-3.319-1.321v-.2l.04-.04h.04v-.039h.04a.035.035,0,0,1,.04-.04h.04v-.04h.039l1.28-.12,1.6-.32,5.52-1.12,3.92-.84,6.16-1.04,1.36-.281a3.7,3.7,0,0,1,.64-.04,4.262,4.262,0,0,1,1.8.321l1.6.639q1.159.522,1.159,1.121,0,.921-1.559.839h-3.76a49.226,49.226,0,0,0-7.12.4,27.7,27.7,0,0,0-5.6,1.639,46.622,46.622,0,0,0-1.96,5l-1.4,4.841q-1.881,6.52-5.08,8.76a6.242,6.242,0,0,1-3.04,1.319h-.08v-.039h-.161Q6020.055,7560.293,6020.255,7560.013Zm11.319-4.64a6.527,6.527,0,0,0,.841,1.72l1,1.68a15.874,15.874,0,0,0,1.04,1.56,5.254,5.254,0,0,1,1.319,2.479q0,1.362-1.12,1.361-1,0-2.519-1.64a6.8,6.8,0,0,1-1.72-4.841,14.08,14.08,0,0,1,.319-3.12v-.039h.04v-.08C6031.175,7554.507,6031.441,7554.812,6031.574,7555.373Zm4.2-24.641a6.307,6.307,0,0,1,3.361.96q1.518,1,1.519,2.12,0,1.082-.92,1.081h-2.08a2.1,2.1,0,0,0-.719.08,1.149,1.149,0,0,0-.281.04,7.416,7.416,0,0,0-1.6.4,4.247,4.247,0,0,1-1.241.44h-.12v-.041h-.04a9.627,9.627,0,0,0,1.96-1.24q.881-.719.881-1.039,0-.48-.681-.921a16.694,16.694,0,0,0-2.479-1.04A3.07,3.07,0,0,1,6035.774,7530.732Zm-.04,17.561a17.8,17.8,0,0,0,.561-4.4,3.29,3.29,0,0,0-1.16-2.241l.08-.2a7.541,7.541,0,0,1,3.479.72q1.4.761,1.4,1.8a6.517,6.517,0,0,1-.241,1.639c.293-.052.6-.119.92-.2l.92-.32a1.828,1.828,0,0,1,.641-.12,3.6,3.6,0,0,1,2.239.8c.587.426.881.747.881.959q0,.482-.8.84a3.706,3.706,0,0,1-1.759.4,8.533,8.533,0,0,1-2.161-.281q-.24-.039-.92-.2c-.186-.026-.359-.054-.519-.08a23.193,23.193,0,0,1-2.641,5,8.446,8.446,0,0,1-3,2.48l-.159-.12A60.412,60.412,0,0,0,6035.734,7548.293Zm-2.16,7.16a47.381,47.381,0,0,1,5.441-1.641,21.307,21.307,0,0,1,4.4-.439,7.14,7.14,0,0,1,3.159.68q1.4.68,1.4,1.559,0,1.043-2.281,2.721c-.667.479-1.253.934-1.759,1.359q2.2.522,2.2,1.561,0,.92-2.64,1.319a12.636,12.636,0,0,0-2.681.8l-1.519.52a20.314,20.314,0,0,0-2.441,1.08v-.281a11.353,11.353,0,0,0,2.96-1.96,1.838,1.838,0,0,0-.359.041c-.294.027-.494.039-.6.039a7.094,7.094,0,0,1-1,.121q-.919,0-1.919-2.281,4.039-.918,5.6-3l1.68-2.119-.641-.24h-.119a.036.036,0,0,1-.04-.04h-.2a8.5,8.5,0,0,0-2.68.6,13,13,0,0,1-3.04.719,7.353,7.353,0,0,1-2.921-.96Z"/></g></svg>