<?xml version="1.0" encoding="utf-8"?>
<!-- Generator: Adobe Illustrator 25.0.1, SVG Export Plug-In . SVG Version: 6.00 Build 0)  -->
<svg version="1.1" id="Layer_1" xmlns="http://www.w3.org/2000/svg" xmlns:xlink="http://www.w3.org/1999/xlink" x="0px" y="0px"
	 viewBox="0 0 240.3 126.2" style="enable-background:new 0 0 240.3 126.2;" xml:space="preserve">
<style type="text/css">
	.st0{fill:#FFFFFF;}
	.st1{fill:#F47836;}
</style>
<g>
	<path d="M77.9,126.2c-2.6,0-4.8-0.7-6.5-2.1c-0.1,0.2-0.2,0.5-0.4,0.7c-0.5,0.7-1.3,1.1-2.2,1.1h-4.7c-1.2,0-2.3-0.8-2.6-2
		c-0.1-0.3-0.1-0.6-0.2-0.9l-0.2,0.8c-0.3,1.2-1.4,2.1-2.6,2.1c0,0-4.5,0-4.5,0c-0.4,0-0.9-0.1-1.2-0.3c-0.4,0.2-0.8,0.3-1.2,0.3
		H37.7c-0.5,0-1.1-0.2-1.5-0.5c-0.4,0.3-0.9,0.5-1.5,0.5h-4.5c-0.9,0-1.8-0.5-2.3-1.3l-1.4-2.4l-0.3,1.5c-0.3,1.2-1.4,2.1-2.6,2.1
		h-4.4c-0.4,0-0.9-0.1-1.2-0.3c-0.4,0.2-0.8,0.3-1.2,0.3H2.7c-0.8,0-1.6-0.4-2.1-1c-0.5-0.6-0.7-1.5-0.5-2.3l3-14.1
		c0.3-1.2,1.4-2.1,2.6-2.1h13.6c0.5,0,1,0.1,1.4,0.4c0.4-0.2,0.9-0.4,1.4-0.4h4.6c0.9,0,1.8,0.5,2.3,1.3l1.4,2.2l0.3-1.4
		c0.3-1.2,1.4-2.1,2.6-2.1h4.4c0.5,0,1.1,0.2,1.5,0.5c0.4-0.3,0.9-0.5,1.5-0.5h13.6c0.5,0,1,0.1,1.4,0.4c0.4-0.2,0.9-0.4,1.4-0.4
		h7.5c3.1,0,5.6,0.2,7.4,2.1c0.2,0.2,0.4,0.5,0.6,0.8c2.3-2.1,5.6-3.3,9.2-3.3c2.2,0,4.2,0.5,5.7,1.3c0.5-0.6,1.3-1,2.1-1h5.1
		c1,0,2,0.6,2.4,1.5l0.5,1.1l1.6-1.8c0.5-0.6,1.2-0.9,2-0.9h5.1c1.1,0,2,0.6,2.5,1.6c0.4,1,0.3,2.1-0.5,2.9l-7.5,8.3l-1,4.6
		c-0.3,1.2-1.4,2.1-2.6,2.1h-4.6c-0.8,0-1.6-0.4-2.1-1c-0.5-0.6-0.7-1.5-0.5-2.3l0.9-4.4l-0.4-0.8l-1.3,6.3
		c-0.3,1.2-1.4,2.1-2.6,2.1c0,0-3.3,0-3.3,0c-0.4,0-0.9-0.1-1.3-0.3C80.7,126,79.4,126.2,77.9,126.2z M111.1,125.9
		c-0.8,0-1.6-0.4-2.1-1c-0.5-0.6-0.7-1.5-0.5-2.3l3-14.1c0.3-1.2,1.4-2.1,2.6-2.1h7.8c2.8,0,5.9,0.3,8,2.6l0.1-0.5
		c0.3-1.2,1.4-2.1,2.6-2.1h7.5c3,0,5.4,0.1,7.2,1.9c0.3-1.1,1.4-1.9,2.6-1.9h4.4c0.6,0,1.1,0.2,1.5,0.5c0.4-0.3,1-0.5,1.5-0.5h4.6
		c0.9,0,1.8,0.5,2.3,1.3l1.4,2.3l0.3-1.4c0.3-1.2,1.4-2.1,2.6-2.1h4.4c0.5,0,1,0.2,1.5,0.4c0.4-0.3,0.9-0.4,1.5-0.4h4.5
		c0.8,0,1.6,0.4,2.1,1c0.2,0.2,0.3,0.5,0.4,0.8l1.7-1.3c0.5-0.3,1-0.5,1.6-0.5h5.9c1.2,0,2.2,0.8,2.6,1.9c0.4,1.1,0,2.3-1,3
		l-6.1,4.4l4.1,6c0.6,0.8,0.6,1.9,0.2,2.8c-0.5,0.9-1.4,1.4-2.4,1.4h-5.5c-0.9,0-1.7-0.4-2.2-1.2l-1.5-2.1l-0.3,1.2
		c-0.3,1.2-1.4,2.1-2.6,2.1h-4.5c-0.5,0-1-0.2-1.5-0.4c-0.4,0.3-0.9,0.4-1.5,0.4c0,0-4.5,0-4.5,0c-0.9,0-1.8-0.5-2.3-1.3l-1.5-2.4
		l-0.3,1.5c-0.3,1.2-1.4,2.1-2.6,2.1c0,0-4.4,0-4.4,0c-0.6,0-1.1-0.2-1.6-0.5c-0.4,0.3-1,0.5-1.5,0.5h-4.5c-0.4,0-0.8-0.1-1.2-0.3
		c-0.4,0.2-0.8,0.3-1.2,0.3h-4.7c-1.2,0-2.3-0.8-2.6-2c-0.1-0.3-0.2-0.7-0.2-1l-0.2,0.8c-0.3,1.2-1.4,2.1-2.6,2.1h-4.5
		c-0.8,0-1.6-0.4-2.1-1c-0.3-0.3-0.5-0.7-0.5-1.2c-0.5,0.4-1.1,0.7-1.7,1c-1.9,0.9-3.9,1.1-6.2,1.1
		C119,125.9,111.1,125.9,111.1,125.9z M119.5,117.1c1.1-0.1,1.3-0.2,1.5-0.4c0.2-0.2,0.4-0.5,0.6-1.2c0-0.2,0.1-0.3,0.1-0.4
		c-0.2,0-0.5-0.1-1.2-0.1H120L119.5,117.1z"/>
	<path class="st0" d="M183.8,115l8.3-5.9h-5.9l-6.9,5l1.1-5h-4.5l-3,14.1h4.5l0.9-4.2l1.9-1.3l3.8,5.6h5.5L183.8,115z M168.5,109.1
		l-1.7,8.1l-0.4-0.8c-0.3-0.5-0.9-1.5-1.3-2.1l-3.2-5.2h-4.6l-3,14.1l4.4,0l1.7-8.1l0.6,0.9l0.7,1.2l0.5,0.9l3.2,5.1l4.5,0l3-14.1
		H168.5z M149.7,109.1l-3,14.1h4.5l3-14.1H149.7z M138.3,115.3h-2.6l0.6-2.9h2.6c2.2,0,2.8,0.3,2.5,1.4
		C141.1,115,140.5,115.3,138.3,115.3 M143.1,116.7c1.7-0.9,2.5-2,2.9-3.6c0.3-1.2,0-2.1-0.6-2.8c-0.9-1-2.1-1.2-5.4-1.2h-7.5
		l-3,14.1h4.5l1-4.6h2.3c1.9,0,2.3,0.3,2.2,1.8l0,0.7c-0.1,0.8,0,1.4,0.2,2.1h4.7c-0.4-1.2-0.4-1.7-0.3-3.6
		C144.1,117.8,144,117.3,143.1,116.7 M123,118.5c-0.9,1-1.9,1.3-4.1,1.3l-2.7,0l1.6-7.4h2.6c1.4,0,1.9,0.1,2.6,0.4
		c1.1,0.5,1.6,1.7,1.2,3.3C124,117.1,123.6,117.9,123,118.5 M121.8,109.1h-7.8l-3,14.1l7.9,0c2.3,0,3.7-0.2,5-0.9
		c2.5-1.2,4.2-3.4,4.8-6.3c0.4-2,0.2-3.6-0.6-4.8C127.1,109.7,125.2,109.1,121.8,109.1 M101.2,109.1l-2.3,2.6
		c-0.1,0.1-0.3,0.3-0.6,0.7c-0.7,0.7-0.8,0.9-1.4,1.6c-0.3-0.7-0.3-0.9-0.7-1.6c-0.2-0.3-0.3-0.5-0.3-0.7l-1.3-2.6h-5.1l4.2,8.8
		l-1.1,5.3h4.6l1.1-5.3l8-8.8H101.2z M80.5,115l-0.7,3.2h3.4c-0.7,1.2-2.2,1.9-3.9,1.9c-2.6,0-3.8-1.5-3.3-4
		c0.5-2.4,2.4-3.9,4.9-3.9c1.4,0,2.4,0.5,2.7,1.5l4.9-0.2c-0.1-3-2.7-4.8-6.8-4.8c-5.2,0-9.3,3-10.3,7.4c-0.9,4.4,1.7,7.4,6.4,7.4
		c1.4,0,2.6-0.3,3.7-0.7c0.7-0.3,1-0.5,1.7-1.2l-0.1,1.5l3.3,0l1.7-8.2H80.5z M62.9,115.4l-2.6,0l0.6-2.9h2.6c2.3,0,2.7,0.3,2.5,1.4
		C65.7,115,65.1,115.3,62.9,115.4 M67.7,116.7c1.7-0.9,2.5-2,2.9-3.6c0.3-1.2,0-2.1-0.6-2.8c-0.9-1-2.1-1.2-5.4-1.2h-7.5l-3,14.1
		l4.5,0l1-4.6h2.3c1.9,0,2.3,0.3,2.2,1.8l0,0.7c-0.1,0.8,0,1.4,0.2,2.1h4.7c-0.4-1.3-0.4-1.7-0.3-3.7
		C68.7,117.8,68.6,117.3,67.7,116.7 M43.4,117.6h8.7l0.7-3.3h-8.7l0.4-1.9h9.2l0.7-3.4H40.7l-3,14.1h13.9l0.7-3.3l-9.5,0L43.4,117.6
		z M31.6,117.2l-0.4-0.8c-0.3-0.5-0.9-1.5-1.3-2.1l-3.2-5.2h-4.6l-3,14.1h4.4l1.7-8.1l0.6,0.9l0.7,1.2l0.5,0.9l3.2,5.1h4.5l3-14.1
		h-4.4L31.6,117.2z M8.3,117.6h8.8l0.7-3.3H9l0.4-1.9h9.2l0.7-3.4H5.7l-3,14.1h13.9l0.7-3.3l-9.5,0L8.3,117.6z"/>
</g>
<g>
	<g>
		<path class="st1" d="M49.1,105.2L49.1,105.2c-2,0-3.8-1.2-4.5-3l-8.9-23.5l-4.5,21.3c-0.6,3-3.3,5.3-6.2,5.3H5.2
			c-1.5,0-2.8-0.6-3.7-1.7c-0.9-1.2-1.3-2.8-0.9-4.4l17.6-82.6c0.6-3,3.3-5.3,6.2-5.3H44c2,0,3.7,1.2,4.5,3l11.9,31.6l6.2-29.4
			c0.3-1.4,1.1-2.7,2.2-3.7c1.2-1,2.6-1.6,4-1.6h139l1.1-5.7c0.6-2.5,1.7-4,3.7-4.9c2-0.9,4.4-0.5,5.9,1l0.1,0.1L239,22.2
			c1.1,1.2,1.5,2.9,1.1,4.6c-0.3,1.6-1.3,3.1-2.6,4l-25,20.4c-0.5,0.4-1.1,0.7-1.7,0.9L210,56c-0.2,1.1-0.7,2-1.3,2.7
			c0.3,0.9,0.3,1.9,0.2,2.6l-8.2,38.6c-0.6,2.9-3.3,5.2-6.1,5.3l-3.4,0h-53.9c-0.6,0-1.1-0.1-1.7-0.3c-0.6,0.2-1.1,0.3-1.7,0.3H77
			c-0.6,0-1.1-0.1-1.6-0.3c-0.6,0.2-1.2,0.3-1.7,0.3L49.1,105.2z M106.1,76.7h9.9l3.4-15.9h-9.9L106.1,76.7z"/>
		<g>
			<path d="M49.1,103.1L49.1,103.1l24.5,0c0.6,0,1.2-0.2,1.8-0.5c0.4,0.3,1,0.5,1.6,0.5h57c0.6,0,1.2-0.2,1.7-0.5
				c0.4,0.3,1,0.5,1.6,0.5h53.8l3.4,0c1.9,0,3.7-1.6,4.1-3.6l8-38c0.2-0.8,0-2.3-1.3-2.3h-37.9l0.6-2h38.2c1.3-0.1,1.8-1.4,2-2.3
				l0.9-4.5c0.7,0,1.5-0.3,2.2-0.8l25-20.3c1-0.7,1.7-1.7,1.9-2.8c0.2-1.1,0-2.2-0.7-2.8L221.1,3c-0.8-0.9-2.3-1.2-3.6-0.6
				c-1.3,0.6-2.1,1.5-2.5,3.4l-1.5,7.4H72.8c-0.9,0-1.9,0.4-2.6,1.1c-0.8,0.7-1.3,1.6-1.5,2.6L61,53.1L46.6,14.9
				c-0.4-1.1-1.3-1.7-2.5-1.7H24.3c-1.9,0-3.8,1.6-4.2,3.6L2.6,99.4c-0.4,2,0.8,3.6,2.6,3.6h19.9c1.9,0,3.8-1.6,4.2-3.6l6-28.2
				l11.4,30.1C47,102.5,48,103.1,49.1,103.1z M103.6,78.8l4.2-20h14.1l-4.2,20H103.6z M143.3,81.2l0.4-2.1l34.6,0l-0.5,2.1H143.3z"
				/>
		</g>
		<path d="M233.2,4.1c0,1.7-1.4,3-3,3c-1.7,0-3.1-1.4-3.1-3c0-1.7,1.4-3,3.1-3C231.8,1.1,233.2,2.5,233.2,4.1 M227.7,4.2
			c0,1.3,1.1,2.4,2.4,2.4c1.3,0,2.4-1.1,2.4-2.4c0-1.3-1.1-2.4-2.4-2.4C228.8,1.8,227.7,2.8,227.7,4.2z M230.3,2.6
			c0.7,0,1.1,0.3,1.1,0.9c0,0.2-0.1,0.4-0.3,0.6c0,0.1-0.1,0.1-0.1,0.1c0,0,0,0.1,0.1,0.1c0.1,0.1,0.2,0.4,0.2,0.8
			c0,0.1,0,0.1,0,0.2c0,0,0,0.1,0,0.1c0,0.1,0,0.1,0,0.1l-0.6,0c-0.1-0.1-0.1-0.2-0.1-0.4c0-0.6-0.1-0.7-0.7-0.7l-0.6,0l0,1.2
			l-0.7,0l0-3L230.3,2.6z M229.6,3.9l0.6,0c0.5,0,0.6-0.1,0.6-0.4c0-0.3-0.2-0.4-0.6-0.4l-0.6,0L229.6,3.9z"/>
		<g>
			<polygon class="st0" points="162.4,62.8 162.8,61.1 164.3,54 164.6,52.8 165.7,52.8 203.6,52.8 206.1,40.8 151.9,40.8 
				144.6,74.9 182.5,74.9 183.7,74.9 183.4,76.1 181.7,84.2 181.4,85.4 180.3,85.4 142.4,85.4 139.7,97.9 192,97.9 193.9,97.9 
				201.4,62.8 163.5,62.8 			"/>
			<path class="st0" d="M79.6,97.9h54l12.2-57.2h-54L79.6,97.9z M98,82.7l5.9-27.9l0.3-1.2h1.1h21.4h1.1l-0.3,1.2l-5.9,27.9
				l-0.3,1.2h-1.1H98.8h-1.1L98,82.7z"/>
			<polygon class="st0" points="212.4,34.5 213.5,34.5 213.3,35.7 211.6,43.6 232.4,26.1 219,8.7 217.2,17.1 217,18.3 215.9,18.3 
				73.3,18.3 63,66.7 62.2,71 60.8,67.4 42.4,18.3 24.9,18.3 8,97.9 25,97.9 33.5,57.6 34.4,53.4 35.8,57 51.2,98 73.4,97.9 
				86.6,35.7 86.9,34.5 88,34.5 			"/>
		</g>
	</g>
</g>
</svg>
