<?xml version="1.0" encoding="utf-8"?>
<!-- Generator: Adobe Illustrator 15.0.1, SVG Export Plug-In . SVG Version: 6.00 Build 0)  -->
<!DOCTYPE svg PUBLIC "-//W3C//DTD SVG 1.1//EN" "http://www.w3.org/Graphics/SVG/1.1/DTD/svg11.dtd">
<svg version="1.1" id="Layer_1" xmlns="http://www.w3.org/2000/svg" xmlns:xlink="http://www.w3.org/1999/xlink" x="0px" y="0px"
	 width="425px" height="190px" viewBox="0 0 425 190" enable-background="new 0 0 425 190" xml:space="preserve">
<path fill="#572F08" d="M319.789,84.977c3.771,0,6.852,1.254,8.061,3.257c0.533,0.91,0.663,1.943,0.378,2.99
	c-0.273,1.04-1.002,2.08-2.028,3.003c-2.314,2.003-6.072,3.251-9.843,3.251c-3.783,0-6.852-1.248-8.061-3.251
	c-0.54-0.923-0.689-1.963-0.384-3.003C308.881,87.707,314.088,84.977,319.789,84.977 M325.101,136.209
	c-6.508,3.92-18.092,6.41-24.392,6.41c-8.503,0-12.689-3.407-11.031-9.843c-1.443,1.431-3.146,2.633-4.876,3.479
	c-7.847,3.828-16.941,6.078-23.182,6.078c-6.163-0.065-9.79-2.373-11.357-6.423c-0.272-0.754-0.436-1.353-0.571-2.003
	c-0.208-0.779-0.371-1.625-0.508-2.521c-1.865,2.938-6.052,5.655-9.289,7.066c-6.774,2.932-14.581,4.167-19.067,4.167
	c-7.943,0-12.423-2.984-12.254-8.627c-7.638,6.065-17.61,8.627-25.223,8.627c-8.185,0-12.703-3.146-12.222-9.153
	c-2.535,2.802-7.385,5.389-10.212,6.553c-5.051,2.112-10.083,2.483-13.723,2.562c-7.912-0.183-12.157-3.472-11.441-9.544
	c-8.464,5.903-18.917,9.569-29.059,9.569c-18.69,0-19.415-16.72-6.069-26.348c13.161-9.497,30.278-13.437,45.177-8.405
	c0.117-0.533,0.241-0.631,0.351-1.189l16.889-0.839c-1.417,7.105-4.557,14.12-7.873,19.99c-4.693,8.314,0.241,12.43,16.519,4.804
	c0.468-1.651,1.274-3.465,2.393-5.441c3.926-6.981,6.039-11.148,7.515-18.469l18.501-0.923c-1.437,7.086-4.59,14.159-7.879,20.029
	c-6.423,11.356,6.143,11.955,16.811,0.436c4.252-4.609,8.236-10.597,10.037-19.555l18.469-0.91
	c-1.41,7.086-4.53,14.159-7.859,20.029c-3.25,5.753-1.963,8.757,1.489,8.795c2.971,0.059,11.61-2.217,17.779-5.506
	c-0.104-1.657-0.091-3.438,0.078-5.33c0.436-4.103,1.541-8.789,3.394-14.049c3.225-9.036,7.82-18.963,13.132-28.98
	c12.052-22.733,22.636-35.351,30.41-41.618c12.937-10.388,22.044-6.942,19.782,7.528c-3.575,22.636-24.118,50.329-49.815,72.672
	c-3.082,11.578-0.481,15.192,3.939,15.128c4.681,0.884,17.708-5.786,23.415-9.089c4.876-7.17,7.528-11.311,9.843-18.689l18.495-0.93
	c-2.243,7.151-6.065,14.198-10.058,20.068c-6.214,9.12,4.356,11.253,20.92-0.202c1.443-3.328,4.076-6.631,7.853-9.354
	c13.171-9.497,30.294-13.437,45.168-8.405c0.137-0.533,0.247-0.611,0.357-1.157l18.313-0.819
	c-2.353,11.649-12.624,30.34-19.294,42.178c8.549-0.442,24.605-6.046,30.125-8.711v1.592c-0.339,1.854-1.548,3.394-3.199,4.213
	c-10.778,4.869-20.568,6.793-30.273,7.717c-3.244,4.304-5.857,7.696-9.407,11.038c-22.883,21.336-52.136,20.412-60.158,13.027
	c-8.633-7.938,3.9-21.388,31.555-26.653c7.781-1.488,16.044-2.041,24.027-2.009l7.918-15.231
	c-8.458,5.903-18.904,9.569-29.046,9.569c-10.596,0-15.413-5.369-15.173-11.767C330.009,132.939,327.922,134.493,325.101,136.209
	 M356.759,163.668c3.621-3.614,6.059-7.021,8.458-11.168c-11.038,0.247-20.868,1.638-27.94,3.68
	c-18.248,5.305-20.049,20.25-5.214,20.25C340.604,176.43,349.927,170.521,356.759,163.668 M378.726,124.521
	c2.041-3.719,4.095-8.002,5.285-11.331c-10.356-4.531-24.417-1.229-30.548,7.015c-4.108,5.506-3.523,12.501,5.24,12.501
	C365.165,132.705,372.361,129.5,378.726,124.521 M144.125,113.294c-10.355-4.558-23.792-1.105-29.917,7.145
	c-4.095,5.513-3.887,12.091,4.863,12.091c6.475,0,13.255-2.574,19.632-7.573C140.738,121.257,142.941,116.609,144.125,113.294
	 M269.733,108.873c15.445-14.782,27.771-30.762,35.708-50.18c9.29-23.845,0.995-23.604-8.269-7.781
	C287.461,67.463,276.136,92.692,269.733,108.873 M65.709,47.805l16.831-4.57l3.075-0.598c-0.195,2.737-3.214,8.36-6.244,13.71
	c-10.278,18.495-26.969,50.96-36.066,73.55c-4.528,11.045-8.071,21.42-13.021,34.032c-7.323-4.869-11.698-8.36-15.283-10.714
	c3.068-7.833,0.559-1.047,5.991-14.627C29.064,118.819,49.867,75.973,65.709,47.805 M109.242,61.404
	c1.625-18.273-14.149-22.785-29.14-22.246c0,0-8.256,0.28-10.875,0.858c-13.522,1.931-27.482,9.459-40.936,21.459
	c-2.334,2.074-3.985,3.706-5.737,5.565V46.94c13.785-12.722,40.519-18.625,64.543-18.625c29.205,0,42.688,11.032,40.945,30.905
	c-0.397,6.442-2.035,12.417-4.642,17.805c-11.247,23.286-40.376,41.072-68.821,39.051l-2.363-0.215l6.345-10.986
	c5.464,3.146,17.971,7.32,32.465-7.801c9.013-9.465,16.239-24.001,18.189-35.176L109.242,61.404z"/>
</svg>
