<?xml version="1.0" encoding="utf-8"?>
<!DOCTYPE svg PUBLIC "-//W3C//DTD SVG 1.1//EN" "http://www.w3.org/Graphics/SVG/1.1/DTD/svg11.dtd">
<svg version="1.1" id="VARG" xmlns="http://www.w3.org/2000/svg" xmlns:xlink="http://www.w3.org/1999/xlink" x="0px" y="0px"
 width="130.903px" height="78px" viewBox="0 0 130.903 78" enable-background="new 0 0 130.903 78" xml:space="preserve">
<g>
<path fill-rule="evenodd" clip-rule="evenodd" fill="#00652E" d="M23.432,49.494c0-8.326,0-24.1,0-24.1
c0-2.098,0.646-2.729,2.586-2.412c0-1.705-0.754-3.979-2.299-5.805c0.002,0.022,0.007,0.046,0.007,0.068
c0,1.312-0.819,2.375-1.83,2.375c-1.011,0-1.83-1.063-1.83-2.375c0-0.963,0.445-1.793,1.082-2.164
c-1.176-0.633-2.568-1.022-4.186-1.022c-2.93,0-5.654,1.128-8.084,2.894c0.731,0.312,1.261,1.196,1.261,2.251
c0,1.312-0.818,2.375-1.829,2.375c-1.009,0-1.828-1.063-1.828-2.375c0-0.082,0.012-0.16,0.019-0.24
c-1.674,1.625-3.162,3.519-4.416,5.488l1.375,2.414c1.939-1.783,2.992-0.422,2.992,1.468c0,0,0,20.983,0,34.018
c0,3.567-1.997,2.935-2.833,0.522c-1.976,2.572-0.61,7.392,2.833,6.039c0,1.21,0,2.169,0,2.778c0,1.889-1.861,2.521-2.992,2.205
c3.07,5.984,8.65,1.679,8.813-2.205c3.478,1.572,5.66-1.366,4.771-5.355c-1.697,2.834-4.771,1.683-4.771-0.839V57.94
c0.323,1.153,2.102,3.675,5.174,3.675c3.015,0,5.867-4.345,5.972-7.183c1.671-0.626,2.251,0.711,2.034,3.088
C28.012,56.11,28.337,48.616,23.432,49.494z M17.397,51.959c0,1.805-1.128,3.195-2.518,3.108c-1.389-0.089-2.515-1.62-2.515-3.427
V26.385c0-1.807,1.125-3.338,2.515-3.425c1.39-0.092,2.518,1.3,2.518,3.104V51.959"/>
<path fill-rule="evenodd" clip-rule="evenodd" fill="#00652E" d="M43.484,31.066v-9.345c0-4.021-5.062-6.642-8.814-5.145
c-6.305,2.52-7.52,6.772-7.52,13.123v8.923c0,7.033,3.881,11.548,9.625,9.239c4.984-2.009,6.708-5.764,6.708-9.657v-3.886
l-5.498,1.47v4.723c0,2.101-1.211,3.15-2.184,3.467c-1.018,0.33-2.668,0.206-2.668-2.733V33.9L43.484,31.066z M33.138,26.13
c0-3.482,0.461-4.775,2.421-5.563c1.399-0.56,2.101,0.756,2.101,2.962v4.911l-4.522,1.283V26.13"/>
<path fill-rule="evenodd" clip-rule="evenodd" fill="#00652E" d="M108.736,35.134v-9.345c0-4.021-3.608-9.334-7.359-9.84
c-6.305-0.857-8.974,2.726-8.974,9.078v12.65c0,4.882,4.365,9.088,8.652,9.659c5.846,0.777,7.68-3.884,7.68-7.033v-1.915
l-5.498-1.477v3.93c0,2.101-1.215,2.499-2.183,2.295c-1.022-0.213-2.668-1.217-2.668-4.156v-6.553L108.736,35.134z M98.392,24.663
c0-3.482,0.463-4.532,2.421-4.271c1.398,0.188,2.1,1.885,2.1,4.091v4.91l-4.521-1.14V24.663"/>
<path fill-rule="evenodd" clip-rule="evenodd" fill="#00652E" d="M76.071,12.799c-2.155,0-3.608,1.82-5.094,3.773v-3.564h-8.088
v2.836c0.325,0,2.022,0,2.022,2.411v17.954c0,2.414-1.697,2.833-2.504,2.833v2.417H73.48v-2.417c-0.807,0-2.504-0.419-2.504-2.833
V19.021c2.362-1.247,5.094,0.313,5.094,3.123v3.778l2.99-1.261V12.799C79.061,12.799,78.492,12.799,76.071,12.799"/>
<path fill-rule="evenodd" clip-rule="evenodd" fill="#00652E" d="M124.019,24.661c-2.192,0-3.608,0.926-5.094,2.306v-3.563
l-8.327-3.205v2.834c0.564,0.231,2.261,0.88,2.261,3.294v19.068c0,2.411-1.697,2.086-2.829,1.518v2.572l11.399,5.41v-2.884
c-0.807-0.357-2.504-1.527-2.504-3.943V29.416c2.361-0.34,5.094,2.265,5.094,5.075v4.462l2.586-0.112V25.138
C126.604,25.138,125.472,24.661,124.019,24.661"/>
<path fill-rule="evenodd" clip-rule="evenodd" fill="#00652E" d="M58.505,13.037c-2.155,0.367-3.608,2.438-5.094,4.641v-3.902
l-8.088,1.38v3.178c0.326-0.055,2.022-0.346,2.022,2.068v17.951c0,2.416-1.697,3.124-2.508,3.265v2.411l11.083-1.889v-2.416
c-0.812,0.137-2.508,0.007-2.508-2.407v-17.19c2.357-1.644,5.094-0.558,5.094,2.251v3.911l2.99-1.77V12.526
C61.495,12.526,60.931,12.622,58.505,13.037"/>
<path fill-rule="evenodd" clip-rule="evenodd" fill="#00652E" d="M88.52,37.678V14.479l-8.084-1.153v2.834
c0.326,0.046,2.022,0.288,2.022,2.702v17.954c0,2.412-1.696,2.591-2.508,2.476v2.417l11.078,1.577v-2.414
C90.216,40.755,88.52,40.095,88.52,37.678"/>
<path fill-rule="evenodd" clip-rule="evenodd" fill="#00652E" d="M85.37,12.634c1.894,0,3.43-1.995,3.43-4.457
c0-2.458-1.536-4.452-3.43-4.452c-1.898,0-3.43,1.994-3.43,4.452C81.94,10.639,83.472,12.634,85.37,12.634"/>
<path fill-rule="evenodd" clip-rule="evenodd" fill="#00652E" d="M127.141,58.133c-1.609,0-2.884-1.27-2.884-2.87
s1.27-2.875,2.879-2.875s2.879,1.274,2.879,2.875S128.75,58.133,127.141,58.133v-0.468c1.316,0,2.407-1.05,2.407-2.402
c0-1.362-1.096-2.407-2.412-2.407s-2.412,1.045-2.412,2.407c0,1.353,1.101,2.402,2.417,2.402V58.133"/>
<path fill-rule="evenodd" clip-rule="evenodd" fill="#00652E" d="M126.522,56.899h-0.495v-3.232h1.266
c0.743,0,1.133,0.192,1.133,0.857c0,0.674-0.459,0.837-0.835,0.837l0.862,1.538h-0.564l-0.798-1.49h-0.569v-0.468l0.771-0.005
c0.362,0,0.637-0.038,0.637-0.412c0-0.323-0.192-0.39-0.633-0.39h-0.775V56.899"/>
</g>
</svg>
