<?xml version="1.0" encoding="utf-8"?>
<!-- Generator: Adobe Illustrator 26.0.3, SVG Export Plug-In . SVG Version: 6.00 Build 0)  -->
<svg version="1.1" xmlns="http://www.w3.org/2000/svg" xmlns:xlink="http://www.w3.org/1999/xlink" x="0px" y="0px" width="1080px"
	 height="708.471px" viewBox="0 0 1080 708.471" style="enable-background:new 0 0 1080 708.471;" xml:space="preserve">
<style type="text/css">
	.st0{fill:#FCFEFF;}
	.st1{fill:#012E58;}
	.st2{fill:#008934;}
	.st3{fill:#FCCB00;}
</style>
<g id="fondo">
	<rect id="lienzo" class="st0" width="1080" height="708.471"/>
	<ellipse id="elipse" class="st1" cx="528.984" cy="356.98" rx="459.179" ry="307.793"/>
</g>
<g id="banana">
	<path id="verde" class="st2" d="M436.929,286.324c-96.595,17.469-166.532,62.512-185.874,80.519
		c-29.003,27.002-54.121,52.855-62.491,72.182c-9.082,20.972-13.75,51.746-10.436,63.604c1.647,5.895,9.996,14.769,16.128,16.574
		c10.633,3.13,27.417,3.565,51.54-10.463c7.516-4.37,70.795-39.073,84.564-47.244c15.048-8.93,96.793-48.812,185.536-46.535
		c86.245,2.213,139.332,27.071,178.172,44.805c42.139,19.239,95.397,63.902,125.729,73.098c14.896,4.516,32.998,8.645,42.861-10.472
		c7.967-15.441,3.782-47.323-4.864-66.079c-7.915-17.171-22.805-41.621-49.341-66.109c-36.002-33.224-87.831-73.081-199.726-100.426
		c-3.339-0.816-5.468-4.195-1.047-7.363c5.502-3.941,30.592-13.919,30.875-15.027c0.65-2.547-12.417-29.65-11.299-30.265
		c0.481-0.265,19.961,16.914,33.065,31.084c17.066-1.524,69.33-6.704,69.33-6.704c-5.333-19.961-42.969-60.492-47.236-61.711
		s-45.936,1.727-118.547,27.275c-2.014,0.709-1.357-1.365-0.913-1.731c12.614-10.383,27.988-19.01,28.744-20.523
		c0.756-1.513,6.434-32.03,5.551-32.859c-1.482-1.39-36.088,8.154-35.997,7.14c0.472-5.278,36.876-21.18,45.008-23.639
		c5.295-8.132,23.071-51.437,23.449-52.761c0.378-1.324-0.189-2.458-2.458-2.458c-43.117,1.513-80.938,16.452-83.586,17.965
		c-10.392,23.113-14.035,63.302-13.916,64.437c0.119,1.135-2.731,5.287-5.391,2.802c-1.274-1.19-46.351-48.978-84.325-62.511
		c-14.561,3.782-47.277,29.69-54.274,40.091c25.3,9.494,47.088,25.749,50.681,25.719c8.094-0.068,15.06-10.033,25.53-12.67
		c3.503-0.883,4.539-0.378,3.215,2.458c-1.324,2.837-15.696,18.722-15.696,18.722c6.43,3.404,29.471,24.456,30.605,25.402
		c1.135,0.946-0.261,3.6-2.05,2.397c-4.118-2.769-81.759-23.604-109.14-24.151c-22.131,17.119-37.237,60.419-37.967,66.808
		c21.722-0.73,60.054-0.548,71.919,2.008c10.222-10.039,31.031-31.579,32.491-32.126c1.46-0.548,4.563-0.365,2.555,2.738
		c-2.008,3.103-15.881,27.38-14.968,33.586c7.119,3.286,12.412,7.849,14.238,8.397S440.115,285.748,436.929,286.324z"/>
	<g id="borde_blanco_00000157986820575718099100000006563359040964134068_">
		<path class="st0" d="M428.843,202.059c6.182,1.314,10.278,0.309,5.255-3.168c-5.023-3.477-15.61-9.428-15.61-9.428l8.423-0.541
			l24.265,15.224l2.705,6.491l-24.806-5.023l-3.864-3.168L428.843,202.059z"/>
		<path class="st0" d="M398.316,285.655c8.931-4.17,16.721-4.987,0.587-7.529l5.603-10.045l13.954-0.809l2.249,20.339l-21.023,2.249
			L398.316,285.655z"/>
		<path class="st0" d="M636.63,108.807c0,0,3.101-6.474,4.895-11.945c1.794-5.471-1.128-6.171-5.343-6.082
			s-13.811,0.717-18.654,0.987L636.63,108.807z"/>
		<path class="st0" d="M612.201,162.384c-0.644,1.373-3.979,8.91-5.126,9.811c-1.147,0.901-2.294,1.065-2.294,1.065l-4.097-8.604
			L612.201,162.384z"/>
		<path class="st0" d="M601.837,200.966c-0.797,3.193-0.168,4.742,2.903,3.666c3.744-1.312,1.99,1.26,1.99,1.26l-6.898,1.459v-6.036
			L601.837,200.966z"/>
		<path class="st0" d="M632.618,287.304c-1.095-2.358-2.527-6.822-2.527-6.822s8.338-3.537,10.443-4.211
			c2.106-0.674,6.064-1.432,7.917-1.432s6.232,2.695,7.832,2.611c1.6-0.084,1.684-3.369,1.684-3.369l-8.506-10.275l-7.075,5.98
			l-22.066,13.475l9.601,4.632L632.618,287.304z"/>
		<g id="borde_blanco">
			<path class="st0" d="M627.25,100.236c2.269,0,2.837,1.135,2.458,2.458c-0.378,1.324-18.154,44.63-23.45,52.761
				c-8.132,2.458-44.536,18.361-45.008,23.639c-0.005,0.051,0.08,0.076,0.244,0.076c2.865,0,30.008-7.355,35.01-7.354
				c0.386,0,0.642,0.044,0.742,0.139c0.883,0.828-4.794,31.346-5.551,32.859c-0.756,1.513-16.13,10.14-28.744,20.523
				c-0.38,0.313-0.916,1.877,0.201,1.877c0.188,0,0.423-0.044,0.713-0.146c64.164-22.576,104.165-27.503,115.548-27.502
				c1.499,0,2.503,0.085,2.999,0.227c4.266,1.219,41.903,41.751,47.236,61.711c0,0-52.264,5.181-69.33,6.704
				c-13.005-14.064-32.289-31.087-33.051-31.087c-0.006,0-0.011,0.001-0.014,0.003c-1.118,0.615,11.95,27.719,11.299,30.265
				c-0.283,1.108-25.373,11.085-30.875,15.027c-4.422,3.168-2.293,6.547,1.047,7.363c111.895,27.345,163.724,67.202,199.726,100.426
				c26.536,24.489,41.426,48.938,49.341,66.109c8.646,18.756,12.831,50.638,4.864,66.079c-5.643,10.938-13.982,14.265-22.876,14.265
				c-6.651,0-13.612-1.862-19.985-3.794c-30.332-9.196-83.59-53.858-125.729-73.098c-38.84-17.733-91.927-42.592-178.172-44.805
				c-2.459-0.063-4.901-0.094-7.348-0.094c-85.862,0-163.556,37.947-178.187,46.629c-13.769,8.171-77.048,42.873-84.564,47.244
				C229.76,518.066,216.968,521,207.069,521c-4.992,0-9.249-0.747-12.814-1.796c-6.132-1.805-14.48-10.68-16.128-16.574
				c-3.314-11.858,1.354-42.633,10.436-63.604c8.37-19.327,33.487-45.18,62.491-72.182c19.342-18.008,89.279-63.05,185.874-80.519
				c3.186-0.576,2.068-3.47,0.243-4.018c-1.825-0.548-7.119-5.111-14.238-8.397c-0.913-6.206,12.96-30.483,14.968-33.586
				c1.471-2.273,0.2-2.979-1.16-2.979c-0.497,0-1.005,0.094-1.396,0.241c-1.46,0.548-22.269,22.087-32.491,32.126
				c-8.084-1.741-28.45-2.381-47.482-2.381c-8.901,0-17.515,0.14-24.437,0.373c0.73-6.389,15.836-49.689,37.967-66.808
				c27.38,0.548,105.022,21.383,109.14,24.151c0.32,0.216,0.628,0.307,0.911,0.307c1.297,0,2.07-1.928,1.139-2.704
				c-1.135-0.946-24.176-21.998-30.605-25.402c0,0,14.372-15.885,15.696-18.722c0.94-2.015,0.691-2.853-0.789-2.853
				c-0.603,0-1.411,0.139-2.425,0.395c-10.47,2.638-17.436,12.603-25.53,12.67c-0.004,0-0.006,0-0.01,0
				c-3.625,0-25.395-16.234-50.671-25.719c6.997-10.401,39.713-36.309,54.274-40.091c37.974,13.533,83.051,61.32,84.325,62.511
				c0.595,0.556,1.198,0.779,1.777,0.779c2.008,0,3.706-2.7,3.614-3.581c-0.119-1.135,3.524-41.324,13.916-64.437
				C546.311,116.688,584.133,101.748,627.25,100.236 M627.25,91.236h-0.158l-0.158,0.006c-23.478,0.824-45.048,5.507-59.008,9.291
				c-15.245,4.132-26.401,8.526-28.728,9.855l-2.542,1.453l-1.201,2.671c-4.666,10.378-8.558,24.731-11.567,42.661
				c-0.677,4.031-1.372,8.784-1.934,13.164c-18.051-17.509-50.045-45.602-78.9-55.885l-2.606-0.929l-2.678,0.695
				c-17.111,4.444-51.451,31.845-59.479,43.779l-6.356,9.449l10.662,4.001c14.79,5.55,28.639,13.714,37.804,19.116
				c8.86,5.223,12.175,7.177,16.029,7.177h0.038l0.048,0c0.134-0.001,0.267-0.004,0.4-0.008l-1.862,2.059l10.224,5.413
				c0.368,0.195,1.03,0.604,2.205,1.462c-4.317-1.107-8.753-2.21-13.178-3.276c-17.226-4.149-48.606-11.159-65.221-11.491
				l-3.175-0.063l-2.512,1.943c-24.186,18.708-40.424,64.342-41.403,72.905l-1.185,10.367l10.429-0.351
				c7.052-0.237,15.623-0.368,24.135-0.368c21.879,0,39.347,0.835,45.587,2.179l4.741,1.021l3.46-3.398
				c1.434-1.408,3.079-3.046,4.844-4.814c-0.194,1.602-0.133,2.832,0.024,3.901l0.709,4.82l2.387,1.102
				c-45.379,10.11-82.169,25.43-106.069,37.161c-32.86,16.129-55.709,32.247-66.135,41.954
				c-37.645,35.047-56.97,57.535-64.617,75.192c-9.809,22.65-14.877,55.175-10.845,69.603c2.541,9.093,13.356,20.166,22.254,22.786
				c4.873,1.435,10.04,2.162,15.355,2.162c13.319,0,27.87-4.535,43.25-13.479c2.789-1.622,14.005-7.833,26.992-15.024
				c21.838-12.092,49.015-27.142,57.64-32.26c7.539-4.474,29.909-15.616,60.613-25.765c38.802-12.825,77.87-19.604,112.981-19.604
				c2.378,0,4.772,0.031,7.118,0.091c83.023,2.13,134.901,25.83,172.781,43.135l1.883,0.86c19.196,8.764,41.012,23.134,62.109,37.03
				c24.395,16.068,47.437,31.246,64.746,36.493c7.162,2.171,14.857,4.181,22.596,4.181c13.738,0,24.414-6.618,30.874-19.139
				c5.717-11.082,5.745-26.102,4.761-36.751c-1.228-13.29-4.672-26.857-9.45-37.222c-7.873-17.079-23.183-42.905-51.411-68.956
				c-16.429-15.161-39.587-34.962-73.123-53.664c-33.381-18.615-71.981-33.588-117.675-45.62c2.533-1.156,5.074-2.289,7.13-3.206
				c3.055-1.362,5.94-2.648,8.086-3.662c3.687-1.743,7.17-3.389,8.302-7.823c0.146-0.573,0.249-1.128,0.296-1.706
				c2.114,2.139,4.188,4.296,6.142,6.408l3.003,3.247l4.405-0.393c16.914-1.51,68.894-6.661,69.418-6.713l10.542-1.045
				l-2.734-10.234c-3.336-12.484-15.865-29.355-25.788-41.309c-5.102-6.146-10.534-12.197-15.295-17.04
				c-7.787-7.919-10.211-9.075-12.375-9.693c-1.407-0.402-3.043-0.573-5.471-0.574c-11.129,0-38.128,3.496-78.646,15.197
				c0.621-2.464,1.584-7.054,3.18-16.064c0.549-3.097,1.31-7.558,1.823-11.225c0.716-5.115,1.288-9.205-1.877-12.591
				c2.171-0.857,3.901-1.488,4.968-1.81l3.145-0.951l1.793-2.753c5.924-9.097,24.028-53.332,24.561-55.2
				c0.969-3.393,0.365-6.877-1.658-9.558C635.472,93.975,632.606,91.236,627.25,91.236L627.25,91.236z"/>
		</g>
	</g>
	<g id="fillings">
	</g>
	<path id="amarillo" class="st3" d="M188.3,500.388c1.096,5.705,8.091,10.788,14.294,10.788c6.203,0,15.912-1.888,19.957-3.506
		c4.045-1.618,16.991-6.742,24.003-11.327c7.012-4.585,64.036-36.513,77.397-44.262c14.602-8.469,106.902-49.597,187.158-47.515
		c97.308,2.524,165.334,36.483,203.024,53.301c40.891,18.247,82.862,57.311,112.296,66.032c14.455,4.283,27.895,0.217,29.191-13.78
		s0.613-35.869-7.776-53.657c-7.681-16.285-21.973-38.197-47.955-61.174c-22.16-19.598-104.113-103.853-280.116-106.285
		c-147.251-2.034-246.735,72.314-270.677,92.258c-29.266,24.379-51.428,55.358-57.909,79.536
		C185.566,481.764,187.53,496.38,188.3,500.388z"/>
</g>
<g id="texto">
	<g id="Plátano_de_Canarias">
		<path class="st2" d="M288.8,402.653c3.274,4.42,4.54,8.908,3.798,13.465c-0.742,4.558-3.51,8.611-8.304,12.163l-2.35,1.74
			l14.574,19.675l-9.897,7.331l-35.923-48.494l11.927-8.835c3.275-2.427,6.54-3.875,9.794-4.346c3.254-0.47,6.299-0.044,9.134,1.277
			C284.389,397.952,286.804,399.959,288.8,402.653z M278.709,409.798c-1.645-2.221-3.47-3.468-5.473-3.741
			c-2.003-0.272-4.121,0.417-6.352,2.069l-0.748,0.554l10.32,13.932l0.819-0.606C281.785,418.665,282.263,414.596,278.709,409.798z"
			/>
		<path class="st2" d="M315.656,436.348l-31.442-51.513l9.303-5.679l31.442,51.513L315.656,436.348z"/>
		<path class="st2" d="M313.422,383.97l-3.584-14.22l10.574-5.403l-0.755,16.438L313.422,383.97z M337.46,389.918l8.471,16.578
			c0.442,0.864,0.838,1.413,1.189,1.646c0.352,0.233,0.79,0.216,1.316-0.054c0.657-0.336,1.292-1.172,1.903-2.508l3.453,6.757
			c-1.26,2.857-3.179,4.943-5.757,6.261c-3.393,1.734-6.115,1.275-8.166-1.375c-0.524,2.415-1.23,4.278-2.119,5.591
			c-0.889,1.312-2.148,2.386-3.779,3.219c-2.473,1.264-4.907,1.385-7.303,0.363c-2.396-1.021-4.237-2.79-5.521-5.304
			c-1.044-2.043-1.445-4.191-1.204-6.445c0.242-2.253,1.374-4.938,3.398-8.053c0.979-1.523,3.012-4.264,6.099-8.22l-1.225-2.396
			c-1.338-2.618-3.31-3.263-5.914-1.932c-1.499,0.766-2.906,2.021-4.22,3.767c-1.315,1.745-2.397,3.991-3.249,6.738l-4.356-8.525
			c1.065-2.459,2.492-4.6,4.281-6.423c1.789-1.822,3.788-3.298,5.998-4.427c3.655-1.868,6.902-2.429,9.738-1.683
			C333.331,384.243,335.653,386.383,337.46,389.918z M334.322,416.689c0.684-0.349,1.21-0.956,1.581-1.823
			c0.37-0.865,0.531-1.832,0.484-2.897l-4.316-8.446c-1.515,2.359-2.451,4.423-2.808,6.19c-0.357,1.769-0.141,3.425,0.649,4.97
			c0.522,1.021,1.17,1.723,1.945,2.103C332.632,417.165,333.454,417.133,334.322,416.689z"/>
		<path class="st2" d="M351.547,373.041l7.617-3.146l2.93,7.095l-7.617,3.146l7.022,17.004c0.741,1.794,1.533,3.034,2.375,3.72
			c0.842,0.687,1.823,0.799,2.943,0.336c0.709-0.293,1.37-0.725,1.981-1.296c0.611-0.569,1.31-1.335,2.095-2.297l3.368,8.155
			c-1.263,1.508-2.453,2.69-3.567,3.55c-1.116,0.858-2.343,1.563-3.68,2.116c-6.498,2.684-11.2,0.505-14.108-6.536l-8.504-20.591
			l-4.709,1.944l-1.011-2.446l4.679-22.878l2.709-1.135L351.547,373.041z"/>
		<path class="st2" d="M392.219,370.157l5.794,17.691c0.302,0.923,0.608,1.526,0.919,1.812c0.311,0.285,0.747,0.336,1.309,0.151
			c0.701-0.229,1.458-0.957,2.269-2.182l2.362,7.211c-1.688,2.627-3.908,4.39-6.659,5.291c-3.621,1.186-6.239,0.311-7.854-2.627
			c-0.893,2.305-1.88,4.036-2.961,5.194s-2.492,2.023-4.232,2.593c-2.639,0.864-5.062,0.606-7.271-0.775
			c-2.208-1.381-3.752-3.413-4.631-6.096c-0.714-2.181-0.777-4.365-0.188-6.554c0.589-2.189,2.124-4.665,4.607-7.428
			c1.204-1.354,3.638-3.745,7.302-7.173l-0.838-2.558c-0.915-2.795-2.763-3.737-5.542-2.827c-1.6,0.524-3.185,1.546-4.754,3.065
			c-1.569,1.521-2.988,3.571-4.256,6.152l-2.979-9.098c1.434-2.264,3.176-4.158,5.226-5.681c2.05-1.522,4.254-2.67,6.612-3.442
			c3.901-1.277,7.195-1.327,9.882-0.149C389.022,363.908,390.983,366.384,392.219,370.157z M384.963,396.116
			c0.729-0.239,1.344-0.758,1.845-1.557c0.5-0.797,0.81-1.728,0.929-2.787l-2.952-9.014c-1.863,2.096-3.107,3.988-3.735,5.68
			c-0.627,1.69-0.67,3.36-0.131,5.01c0.357,1.09,0.889,1.884,1.595,2.379C383.22,396.323,384.037,396.419,384.963,396.116z"/>
		<path class="st2" d="M428.429,362.299l6.557,27.235l-10.683,2.571l-6.237-25.905c-0.806-3.346-2.285-4.759-4.439-4.241
			c-2.01,0.484-3.229,2.427-3.656,5.826l6.319,26.249l-10.597,2.552l-9.448-39.245l10.597-2.551l1.157,4.804l0.172-0.042
			c0.716-2.198,1.657-3.907,2.822-5.126c1.165-1.218,2.637-2.042,4.418-2.47c2.986-0.719,5.66-0.183,8.021,1.608
			C425.792,355.356,427.458,358.267,428.429,362.299z"/>
		<path class="st2" d="M463.346,364.618c0.711,4.414,0.632,8.291-0.236,11.633c-0.868,3.343-2.365,6.027-4.492,8.052
			c-2.127,2.025-4.707,3.283-7.74,3.771c-4.899,0.789-9.078-0.496-12.536-3.856c-3.458-3.36-5.695-8.19-6.71-14.492
			c-0.668-4.151-0.603-7.924,0.197-11.314s2.254-6.157,4.363-8.299c2.108-2.142,4.751-3.469,7.93-3.981
			c3.091-0.498,5.967-0.104,8.627,1.18c2.66,1.285,4.917,3.409,6.771,6.372C461.373,356.647,462.649,360.292,463.346,364.618z
			 M449.454,379.233c3.091-0.497,3.989-4.768,2.694-12.811c-1.3-8.072-3.525-11.854-6.675-11.348
			c-1.487,0.239-2.462,1.432-2.924,3.576c-0.462,2.146-0.368,5.236,0.282,9.271C444.125,375.966,446.333,379.736,449.454,379.233z"
			/>
		<path class="st2" d="M500.911,382.695c-6.579,0.33-11.602-1.045-15.068-4.125c-3.467-3.08-5.371-8.027-5.713-14.842
			c-0.317-6.315,0.725-11.477,3.127-15.485c2.401-4.007,5.992-6.131,10.771-6.371c1.947-0.098,3.923,0.083,5.927,0.542
			l-1.006-20.048l10.974-0.55l3.025,60.274L500.911,382.695z M499.626,373.88l1.903-0.096l-1.154-23
			c-1.29-0.347-2.509-0.492-3.66-0.435c-1.858,0.093-3.25,1.245-4.174,3.456c-0.924,2.21-1.284,5.358-1.079,9.441
			c0.197,3.937,0.929,6.727,2.194,8.37C494.922,373.263,496.912,374.017,499.626,373.88z"/>
		<path class="st2" d="M544.323,363.06l-0.043,1.896l-17.718-0.395c0.137,7.094,2.599,10.692,7.382,10.799
			c1.831,0.041,3.477-0.224,4.937-0.795c1.46-0.57,2.928-1.472,4.402-2.704l-0.178,8.071c-3.749,2.447-7.733,3.623-11.956,3.529
			c-5.493-0.122-9.533-2.146-12.119-6.072c-2.587-3.925-3.811-8.99-3.673-15.194c0.093-4.205,0.796-7.918,2.108-11.14
			c1.312-3.221,3.125-5.711,5.44-7.469c2.314-1.758,4.947-2.604,7.901-2.539c4.784,0.106,8.266,2.251,10.449,6.432
			C543.438,351.663,544.46,356.856,544.323,363.06z M530.371,348.717c-2.363-0.052-3.615,3.112-3.756,9.492l-0.008,0.353
			l7.265,0.162c0.076-3.411-0.157-5.924-0.697-7.54C532.635,349.569,531.7,348.747,530.371,348.717z"/>
		<path class="st2" d="M635.888,366.822l-4.215,18.134c-0.22,0.945-0.271,1.62-0.152,2.025c0.117,0.405,0.464,0.674,1.04,0.808
			c0.719,0.167,1.743-0.062,3.072-0.689l-1.719,7.391c-2.806,1.371-5.618,1.729-8.438,1.073c-3.711-0.863-5.496-2.969-5.354-6.317
			c-1.958,1.508-3.699,2.477-5.225,2.907c-1.525,0.43-3.18,0.438-4.964,0.023c-2.704-0.629-4.643-2.106-5.815-4.432
			c-1.173-2.326-1.439-4.864-0.8-7.614c0.52-2.234,1.598-4.135,3.235-5.702c1.639-1.566,4.234-2.888,7.79-3.964
			c1.731-0.533,5.052-1.316,9.963-2.349l0.609-2.621c0.665-2.864-0.426-4.628-3.274-5.29c-1.64-0.382-3.524-0.329-5.654,0.157
			s-4.406,1.505-6.828,3.055l2.168-9.324c2.399-1.193,4.871-1.909,7.413-2.149c2.542-0.239,5.022-0.078,7.439,0.483
			c3.998,0.93,6.841,2.594,8.527,4.995S636.787,362.954,635.888,366.822z M616.227,385.26c0.748,0.174,1.543,0.049,2.385-0.374
			c0.841-0.424,1.588-1.058,2.239-1.903l2.147-9.238c-2.68,0.826-4.726,1.801-6.138,2.921c-1.414,1.121-2.316,2.527-2.709,4.217
			c-0.26,1.117-0.217,2.071,0.131,2.861C614.629,384.534,615.277,385.039,616.227,385.26z"/>
		<path class="st2" d="M671.08,379.252l-8.495,26.694l-10.471-3.332l8.08-25.391c1.043-3.279,0.51-5.255-1.602-5.927
			c-1.971-0.627-4.019,0.404-6.145,3.091l-8.187,25.729l-10.387-3.306l12.24-38.465l10.387,3.305l-1.499,4.708l0.169,0.054
			c1.751-1.51,3.441-2.484,5.068-2.924c1.628-0.438,3.313-0.381,5.06,0.175c2.927,0.932,4.937,2.774,6.028,5.529
			S672.337,375.301,671.08,379.252z"/>
		<path class="st2" d="M701.095,389.807L694,407.019c-0.37,0.897-0.53,1.556-0.479,1.975c0.051,0.419,0.35,0.74,0.896,0.966
			c0.683,0.281,1.147-0.092,2.56-0.496l-2.892,7.016c-2.991,0.899-5.241,1.108-7.917,0.005c-3.523-1.452-4.943-3.818-4.262-7.101
			c-2.177,1.171-4.052,1.846-5.626,2.023c-1.575,0.178-3.21-0.082-4.902-0.78c-2.567-1.058-4.241-2.83-5.021-5.314
			c-0.781-2.485-0.634-5.033,0.442-7.644c0.874-2.12,2.246-3.821,4.116-5.103s4.646-2.165,8.329-2.65
			c1.794-0.246,5.198-0.482,10.211-0.706l1.025-2.488c1.121-2.719,0.329-4.636-2.374-5.75c-1.557-0.642-3.426-0.895-5.605-0.76
			c-2.181,0.135-4.592,0.771-7.232,1.909l3.647-8.851c2.562-0.789,5.116-1.096,7.664-0.921c2.547,0.176,4.969,0.736,7.263,1.682
			c3.795,1.564,6.331,3.667,7.606,6.309S702.607,386.136,701.095,389.807z M678.708,404.82c0.71,0.293,1.515,0.299,2.413,0.017
			c0.898-0.281,1.738-0.786,2.518-1.515l3.615-8.77c-2.778,0.382-4.954,1.012-6.53,1.89c-1.576,0.877-2.694,2.118-3.355,3.723
			c-0.437,1.061-0.549,2.009-0.333,2.845C677.249,403.845,677.807,404.449,678.708,404.82z"/>
		<path class="st2" d="M723.961,399.828c-2.275-1.13-4.646-0.541-7.108,1.766c-2.465,2.307-5.032,5.752-7.703,10.336l-5.826,11.736
			l-9.763-4.847l17.948-36.156l9.366,4.649l-4.885,9.839l0.159,0.079c2.954-3.229,5.39-5.344,7.306-6.347
			c1.915-1.003,3.732-1.077,5.453-0.224c1.481,0.735,2.722,1.991,3.72,3.768l-5.901,8.398
			C725.915,401.34,724.993,400.34,723.961,399.828z"/>
		<path class="st2" d="M715.546,429.999l19.875-35.135l9.486,5.367l-19.874,35.134L715.546,429.999z M749.631,390.771
			c-1.608,1.159-3.245,1.58-4.909,1.263c-1.664-0.316-2.879-1.242-3.642-2.775c-0.791-1.59-0.916-3.356-0.375-5.299
			c0.54-1.943,1.614-3.493,3.223-4.653c1.581-1.138,3.197-1.526,4.848-1.162c1.65,0.364,2.871,1.341,3.662,2.931
			c0.763,1.534,0.882,3.248,0.355,5.143C752.266,388.114,751.212,389.632,749.631,390.771z"/>
		<path class="st2" d="M765.823,426.205l-10.135,15.616c-0.528,0.814-0.807,1.432-0.833,1.853c-0.027,0.421,0.207,0.792,0.703,1.114
			c0.619,0.401,1.232,0.283,2.695,0.145l-4.131,6.364c-3.104,0.335-5.443-0.035-7.87-1.611c-3.196-2.074-4.158-4.661-2.885-7.763
			c-2.354,0.752-4.321,1.07-5.902,0.955c-1.581-0.114-3.14-0.67-4.676-1.667c-2.329-1.512-3.648-3.561-3.96-6.146
			s0.302-5.063,1.839-7.432c1.249-1.924,2.91-3.344,4.983-4.26s4.965-1.274,8.675-1.076c1.809,0.088,5.198,0.481,10.167,1.182
			l1.465-2.257c1.601-2.467,1.175-4.497-1.277-6.089c-1.413-0.917-3.203-1.509-5.371-1.776s-4.655-0.084-7.46,0.549l5.212-8.03
			c2.662-0.305,5.229-0.138,7.702,0.503c2.472,0.64,4.749,1.635,6.83,2.986c3.443,2.234,5.55,4.768,6.319,7.599
			C768.681,419.794,767.985,422.875,765.823,426.205z M741.061,436.851c0.645,0.418,1.434,0.571,2.369,0.46
			c0.935-0.111,1.854-0.454,2.753-1.027l5.164-7.956c-2.801-0.135-5.056,0.085-6.766,0.658c-1.71,0.572-3.037,1.587-3.982,3.043
			c-0.624,0.962-0.908,1.874-0.851,2.734C739.805,435.624,740.243,436.321,741.061,436.851z"/>
		<path class="st2" d="M792.681,435.626l-5.163,6.715c-0.956-3.555-2.511-6.16-4.665-7.816c-0.772-0.595-1.486-0.854-2.138-0.781
			c-0.653,0.073-1.203,0.401-1.651,0.984c-0.538,0.699-0.78,1.607-0.727,2.725s0.291,2.783,0.712,4.999l0.445,2.401
			c0.462,2.693,0.581,5.131,0.356,7.313c-0.226,2.184-1.091,4.254-2.597,6.212c-2.134,2.775-4.786,4.334-7.957,4.679
			c-3.171,0.344-6.173-0.573-9.006-2.752c-2.975-2.287-4.654-4.844-6.031-8.723l5.674-7.379c0.49,2.27,0.589,3.564,1.286,4.935
			s1.644,2.516,2.837,3.434c0.68,0.522,1.431,0.794,2.253,0.814s1.485-0.296,1.987-0.949c0.592-0.77,0.878-1.735,0.86-2.899
			c-0.019-1.164-0.144-2.42-0.374-3.766c-0.231-1.347-0.404-2.286-0.517-2.818c-0.456-2.799-0.557-5.334-0.301-7.604
			s1.19-4.455,2.804-6.554c1.99-2.588,4.486-4.017,7.488-4.287c3.002-0.27,5.838,0.622,8.508,2.674
			C789.458,429.252,791.429,432.068,792.681,435.626z"/>
		<path class="st2" d="M606.276,348.455l1.026-14.945c-7.473-7.912-25.934-8.498-32.674,0s-10.696,16.557-9.817,31.062
			c0.879,14.506,10.696,22.857,20.073,24.469c9.377,1.612,15.971-3.81,16.996-4.396l1.465-15.238c0,0-7.152,6.779-15.211,6.046
			c-8.059-0.733-13.053-8.876-12.027-18.328s6.95-16.428,13.983-16.721C597.124,340.112,606.276,348.455,606.276,348.455z"/>
	</g>
</g>
</svg>
