<svg width="462" height="144" viewBox="0 0 462 144" fill="none" xmlns="http://www.w3.org/2000/svg">
<g clip-path="url(#clip0_2_770)">
<path d="M17.3088 94.8528H0V0H37.896C59.016 0 72.2448 10.3008 72.2448 30.24C72.2448 49.92 59.0352 60.48 37.896 60.48H17.2896L17.3088 94.8528ZM36.9888 45.576C48.8784 45.576 55.2288 40.0272 55.2288 30.2496C55.2288 20.3424 48.888 14.9232 36.9888 14.9232H17.3088V45.5712L36.9888 45.576Z" fill="black"/>
<path d="M109.253 96.3077C89.304 96.3077 75.1729 81.7733 75.1729 60.2405C75.1729 38.7077 89.3088 24.1733 109.253 24.1733C129.197 24.1733 143.333 38.7029 143.333 60.2405C143.333 81.7781 129.197 96.3077 109.253 96.3077V96.3077ZM109.253 82.4357C120.086 82.4357 126.821 74.1125 126.821 60.2405C126.821 46.3685 120.101 38.0453 109.253 38.0453C98.4048 38.0453 91.6848 46.3685 91.6848 60.2405C91.6848 74.1125 98.4048 82.4357 109.253 82.4357Z" fill="black"/>
<path d="M152.323 0H168.706V94.8528H152.323V0Z" fill="black"/>
<path d="M219.965 89.0454C217.502 91.4212 214.578 93.268 211.375 94.4723C208.171 95.6766 204.755 96.2131 201.336 96.0486C187.728 96.0486 177.557 87.9894 177.557 75.4422C177.557 62.4822 187.464 56.5494 200.808 53.775L219.701 49.8102V48.6198C219.701 42.279 216.399 38.3142 208.21 38.3142C205.2 38.0016 202.182 38.8341 199.759 40.646C197.335 42.458 195.682 45.1163 195.13 48.0918L179.804 44.655C183.106 32.895 192.884 24.1782 209.132 24.1782C224.722 24.1782 235.421 32.1078 235.421 48.0918V78.2118C235.356 83.7792 235.709 89.3436 236.477 94.8582H220.359C220.09 92.9323 219.957 90.9899 219.96 89.0454H219.965ZM219.696 62.2278L205.032 65.4006C198.562 66.8406 193.671 69.1014 193.671 75.0438C193.671 80.199 197.511 82.9686 204.106 82.9686C212.165 82.9686 219.692 78.7398 219.692 70.551L219.696 62.2278Z" fill="black"/>
<path d="M287.458 41.7442C285.619 41.489 283.765 41.356 281.909 41.3458C279.609 41.1752 277.299 41.496 275.132 42.2869C272.966 43.0777 270.992 44.3204 269.343 45.9326C267.694 47.5447 266.406 49.4893 265.566 51.6372C264.726 53.7851 264.352 56.0872 264.47 58.3906V94.8322H248.098V25.4962H264.48V36.5938C266.005 32.9517 268.637 29.8817 272.004 27.8185C275.371 25.7553 279.301 24.8034 283.238 25.0978C284.652 25.1075 286.064 25.1956 287.467 25.3618L287.458 41.7442Z" fill="black"/>
<path d="M324.859 96.3077C304.911 96.3077 290.779 81.7733 290.779 60.2405C290.779 38.7077 304.915 24.1733 324.859 24.1733C344.803 24.1733 358.939 38.7029 358.939 60.2405C358.939 81.7781 344.803 96.3077 324.859 96.3077ZM324.859 82.4357C335.693 82.4357 342.432 74.1125 342.432 60.2405C342.432 46.3685 335.712 38.0453 324.859 38.0453C314.007 38.0453 307.286 46.3685 307.286 60.2405C307.286 74.1125 314.007 82.4357 324.859 82.4357Z" fill="black"/>
<path d="M367.925 0H384.835V16.8H367.925V0ZM384.571 94.8576H368.189V25.4976H384.571V94.8576Z" fill="black"/>
<path d="M445.08 0H461.462V94.8528H445.08V86.4C442.871 89.6433 439.861 92.2602 436.342 93.9962C432.823 95.7322 428.915 96.5283 424.997 96.3072C405.317 96.3072 393.797 79.9248 393.797 60.24C393.797 40.5552 405.288 24.1728 424.997 24.1728C428.915 23.9517 432.823 24.7478 436.342 26.4838C439.861 28.2198 442.871 30.8367 445.08 34.08V0ZM428.17 38.5776C416.942 38.5776 410.333 47.4288 410.333 60.2448C410.333 73.2048 416.938 81.912 428.17 81.912C438.077 81.912 445.474 74.7792 445.474 62.3616V58.2672C445.474 45.5856 438.077 38.5872 428.17 38.5872" fill="black"/>
</g>
<defs>
<clipPath id="clip0_2_770">
<rect width="461.458" height="144" fill="white"/>
</clipPath>
</defs>
</svg>
