<svg width="500" height="151" viewBox="0 0 500 151" fill="none" xmlns="http://www.w3.org/2000/svg">
<g clip-path="url(#clip0_2_1634)">
<path d="M325.361 3.70691C338.747 -0.984692 353.773 -0.853458 367.126 4.03499C379.56 8.52974 390.42 17.1584 397.703 28.2148C405.512 39.993 409.055 54.5271 407.579 68.6019C401.804 66.2725 395.997 64.0416 390.223 61.745C390.223 55.0521 390.223 48.3482 390.223 41.6334C383.104 41.6334 375.951 41.6334 368.832 41.6334C368.832 45.5376 368.832 49.409 368.832 53.3132C354.823 47.7686 340.781 42.2568 326.739 36.7122C312.566 42.4208 298.425 48.1295 284.252 53.871C285.761 42.6177 290.453 31.8237 297.638 23.0639C304.856 14.2384 314.567 7.41426 325.361 3.70691Z" fill="#EAC463"/>
<path d="M284.252 53.8717C298.425 48.1302 312.566 42.4216 326.739 36.7129C340.781 42.2575 354.823 47.7693 368.832 53.3139C368.832 49.4097 368.832 45.5383 368.832 41.6342C375.952 41.6342 383.104 41.6342 390.223 41.6342C390.223 48.3489 390.223 55.0528 390.223 61.7457C395.998 64.0423 401.805 66.2733 407.579 68.6027C415.486 71.7195 423.393 74.8034 431.267 77.953C431.267 83.6945 431.267 89.436 431.267 95.1775C396.424 81.4307 361.614 67.7168 326.772 53.9701C294.128 67.1591 261.483 80.3153 228.839 93.5042C228.839 87.7518 228.839 81.9885 228.839 76.2142C247.31 68.7667 265.781 61.352 284.252 53.8717Z" fill="#223555"/>
<path fill-rule="evenodd" clip-rule="evenodd" d="M145.177 77.9533C175.099 65.8798 205.02 53.8391 234.941 41.7656C245.637 46.0635 256.365 50.2302 267.028 54.5609C259.974 57.3168 252.953 60.2368 245.866 62.8614C242.192 61.5163 238.583 59.9743 234.941 58.5635C205.02 70.6151 175.099 82.6558 145.177 94.6856C145.177 89.1082 145.177 83.5307 145.177 77.9533ZM64.3047 79.4625C91.6341 68.5045 118.963 57.448 146.293 46.4244C156.595 50.5255 166.929 54.5937 177.198 58.7276C170.243 61.5491 163.222 64.2722 156.234 67.0609C152.953 65.7158 149.672 64.4034 146.359 63.0911C118.996 74.0819 91.6341 85.1383 64.2719 96.1291C64.2719 90.5845 64.2063 85.0071 64.3047 79.4625ZM236.975 107.711C241.372 102.396 248.097 99.2788 254.921 98.7538C260.663 98.2289 266.7 99.3772 271.457 102.724C273.983 104.43 276.083 106.661 277.855 109.121C275.427 110.499 272.966 111.877 270.538 113.255C268.307 110.204 265.026 107.875 261.319 106.989C255.545 105.578 249.016 107.448 244.981 111.844C238.517 118.898 238.681 131.07 245.44 137.861C248.786 141.274 253.675 143.012 258.432 142.717C262.435 142.455 266.404 140.88 269.423 138.19C269.39 135.63 269.39 133.039 269.39 130.48C264.403 130.48 259.383 130.48 254.397 130.48C254.397 127.877 254.397 125.274 254.397 122.671C262.358 122.671 270.32 122.671 278.281 122.671C278.248 128.938 278.314 135.204 278.248 141.503C274.836 145.473 270.145 148.327 265.125 149.672C258.924 151.313 252.133 150.919 246.227 148.393C241.667 146.424 237.664 143.078 235.04 138.846C231.923 133.892 230.775 127.888 231.267 122.113C231.66 116.897 233.596 111.746 236.975 107.711ZM356.956 98.8851C363.058 98.0648 369.488 99.0819 374.803 102.297C380.512 105.644 384.515 111.516 385.958 117.947C387.599 125.361 386.549 133.531 382.218 139.863C378.839 145.014 373.327 148.59 367.323 149.902C361.253 151.214 354.692 150.69 349.082 147.966C343.996 145.506 339.83 141.175 337.599 135.959C333.76 127.035 334.646 115.945 340.617 108.137C344.521 102.986 350.591 99.7053 356.956 98.8851ZM357.251 106.923C352.855 107.809 348.918 110.696 346.818 114.666C344.587 118.701 344.029 123.524 344.685 128.052C345.341 132.579 347.605 137.041 351.411 139.732C355.676 142.783 361.385 143.406 366.306 141.864C370.374 140.585 373.786 137.468 375.591 133.662C377.789 129.003 378.117 123.557 376.739 118.603C375.722 114.797 373.36 111.319 370.079 109.154C366.339 106.693 361.582 106.004 357.251 106.923ZM0.262695 99.41C8.24607 99.41 16.2294 99.41 24.2128 99.41C27.3296 99.41 30.512 99.6725 33.3992 100.952C37.3034 102.56 40.4202 105.873 41.8637 109.81C43.3073 113.878 43.3401 118.504 41.8309 122.573C40.5186 126.149 37.7627 129.167 34.3178 130.808C31.6275 132.12 28.6092 132.711 25.6236 132.678C21.5225 132.678 17.4215 132.678 13.3532 132.678C13.3532 138.343 13.3532 144.018 13.3532 149.705C8.97879 149.705 4.61528 149.705 0.262695 149.705C0.262695 132.929 0.262695 116.164 0.262695 99.41ZM13.3532 110.466C13.3532 114.185 13.3532 117.903 13.3532 121.621C16.7434 121.621 20.1336 121.621 23.5238 121.621C25.1643 121.654 26.9031 121.195 28.0842 120.014C29.9215 118.34 30.1511 115.355 28.97 113.222C27.953 111.451 25.8861 110.434 23.8519 110.466C20.3524 110.466 16.8528 110.466 13.3532 110.466ZM50.1315 99.41C54.5278 99.41 58.9569 99.41 63.3861 99.41C63.3861 109.22 63.3861 119.029 63.3861 128.806C63.4189 131.497 64.0422 134.318 65.9451 136.287C68.0777 138.55 71.3913 139.239 74.4097 139.043C77.1 138.911 79.9215 137.861 81.5619 135.598C83.1367 133.596 83.5632 130.939 83.5632 128.445C83.5632 118.778 83.5632 109.099 83.5632 99.41C87.9814 99.41 92.3996 99.41 96.8178 99.41C96.8178 109.548 96.8506 119.718 96.8178 129.856C96.7194 135.434 94.9805 141.274 90.7483 145.079C86.0895 149.344 79.495 150.624 73.3926 150.591C67.1262 150.591 60.4005 149.148 55.8073 144.62C51.7719 140.749 50.1643 134.974 50.1315 129.495C50.0987 119.456 50.1315 109.449 50.1315 99.41ZM107.284 99.41C111.614 99.41 115.945 99.41 120.276 99.41C120.243 112.369 120.276 125.329 120.276 138.288C126.991 138.288 133.716 138.288 140.453 138.288C140.453 142.094 140.453 145.899 140.453 149.705C129.386 149.705 118.329 149.705 107.284 149.705C107.262 132.929 107.262 116.164 107.284 99.41ZM138.156 99.41C151.87 99.41 165.551 99.41 179.265 99.41C179.243 103.216 179.233 107.022 179.233 110.827C174.552 110.827 169.871 110.827 165.191 110.827C165.191 123.776 165.191 136.735 165.191 149.705C160.86 149.683 156.529 149.683 152.198 149.705C152.198 136.746 152.198 123.787 152.198 110.827C147.54 110.827 142.848 110.827 138.156 110.827C138.156 107.022 138.156 103.216 138.156 99.41ZM186.811 99.41C199.082 99.41 211.363 99.41 223.655 99.41C223.655 103.106 223.655 106.792 223.655 110.466C215.694 110.466 207.743 110.466 199.803 110.466C199.782 113.222 199.782 115.967 199.803 118.701C207.579 118.734 215.355 118.701 223.13 118.734C223.13 122.409 223.13 126.083 223.13 129.791C215.344 129.769 207.568 129.769 199.803 129.791C199.782 132.765 199.782 135.74 199.803 138.714C207.743 138.714 215.694 138.714 223.655 138.714C223.655 142.367 223.655 146.031 223.655 149.705C211.363 149.683 199.082 149.683 186.811 149.705C186.811 132.929 186.811 116.164 186.811 99.41ZM288.813 99.41C296.194 99.4428 303.609 99.3772 311.024 99.4428C315.519 99.4428 320.177 100.952 323.294 104.298C326.575 107.678 327.756 112.665 327.231 117.258C326.936 120.637 325.492 123.983 322.966 126.313C320.932 128.281 318.275 129.462 315.519 130.02C319.631 136.56 323.71 143.111 327.756 149.672C324.344 149.694 320.921 149.694 317.487 149.672C313.78 143.439 310.072 137.238 306.398 131.004C303.511 131.004 300.635 131.004 297.769 131.004C297.736 137.238 297.769 143.472 297.769 149.705C294.773 149.705 291.787 149.705 288.813 149.705C288.813 132.929 288.813 116.164 288.813 99.41ZM297.769 107.317C297.769 112.588 297.769 117.848 297.769 123.098C301.87 123.098 305.971 123.098 310.072 123.098C312.402 123.098 314.797 122.179 316.372 120.375C318.668 117.75 318.832 113.616 316.929 110.729C315.42 108.498 312.697 107.317 310.04 107.317C305.949 107.317 301.859 107.317 297.769 107.317ZM396.588 99.41C399.574 99.41 402.559 99.41 405.545 99.41C405.545 109.548 405.545 119.718 405.545 129.856C405.61 133.17 406.496 136.713 408.891 139.141C410.925 141.339 413.911 142.389 416.831 142.619C420.243 142.881 423.95 142.291 426.706 140.125C429.331 138.091 430.676 134.81 431.004 131.562C431.201 129.266 431.037 126.936 431.103 124.607C431.103 116.208 431.103 107.809 431.103 99.41C434.077 99.41 437.063 99.41 440.059 99.41C440.059 109.548 440.026 119.718 440.059 129.856C440.092 134.056 439.239 138.354 437.008 141.93C434.777 145.637 431.004 148.229 426.87 149.443C422.736 150.657 418.34 150.821 414.042 150.329C410.204 149.837 406.398 148.557 403.379 146.096C398.294 142.127 396.391 135.368 396.588 129.167C396.588 119.226 396.588 109.318 396.588 99.41ZM452.166 99.41C458.268 99.41 464.381 99.41 470.505 99.41C472.868 99.41 475.23 99.3772 477.526 99.7053C481.299 100.263 484.908 102.1 487.271 105.086C491.306 110.106 491.732 117.52 488.747 123.13C486.844 126.641 483.432 129.233 479.626 130.25C476.673 131.136 473.557 131.004 470.505 131.004C467.334 131.004 464.173 131.004 461.024 131.004C461.024 137.238 461.024 143.472 461.024 149.705C458.071 149.705 455.118 149.705 452.166 149.705C452.166 132.929 452.166 116.164 452.166 99.41ZM461.024 107.317C461.024 112.566 461.024 117.826 461.024 123.098C465.136 123.098 469.237 123.098 473.327 123.098C475.755 123.098 478.248 122.113 479.823 120.211C482.185 117.389 482.152 112.861 479.757 110.106C478.183 108.235 475.722 107.317 473.327 107.317C469.215 107.317 465.114 107.317 461.024 107.317ZM494.816 100.46C497.343 99.5412 500.295 101.936 499.705 104.594C499.442 107.579 495.309 108.793 493.307 106.726C491.24 104.922 492.126 101.083 494.816 100.46ZM495.21 101.247C492.979 101.772 492.454 105.119 494.357 106.365C495.998 107.711 498.688 106.333 498.688 104.233C498.95 102.396 497.047 100.657 495.21 101.247ZM494.488 102.166C495.473 102.232 496.687 101.805 497.474 102.592C497.835 103.085 497.474 103.708 497.146 104.102C497.441 104.725 497.605 105.414 497.835 106.07C496.293 106.529 496.818 104.364 495.473 104.397C495.451 104.922 495.44 105.458 495.44 106.004C495.177 106.004 494.718 106.004 494.456 106.004C494.456 104.725 494.456 103.445 494.488 102.166ZM495.44 102.756C495.44 103.052 495.473 103.642 495.505 103.938C495.866 103.806 497.113 103.544 496.424 102.953C496.162 102.92 495.669 102.822 495.44 102.756Z" fill="#223555"/>
</g>
<defs>
<clipPath id="clip0_2_1634">
<rect width="500" height="150.919" fill="white"/>
</clipPath>
</defs>
</svg>
