<?xml version="1.0" encoding="UTF-8" standalone="no"?>
<!-- Created with Inkscape (http://www.inkscape.org/) -->

<svg
   xmlns:dc="http://purl.org/dc/elements/1.1/"
   xmlns:cc="http://creativecommons.org/ns#"
   xmlns:rdf="http://www.w3.org/1999/02/22-rdf-syntax-ns#"
   xmlns:svg="http://www.w3.org/2000/svg"
   xmlns="http://www.w3.org/2000/svg"
   xmlns:sodipodi="http://sodipodi.sourceforge.net/DTD/sodipodi-0.dtd"
   xmlns:inkscape="http://www.inkscape.org/namespaces/inkscape"
   id="svg3389"
   version="1.1"
   inkscape:version="0.91 r13725"
   xml:space="preserve"
   width="354.32501"
   height="294.64999"
   viewBox="0 0 354.32501 294.64999"
   sodipodi:docname="Raisio_logo.svg"><metadata
     id="metadata3395"><rdf:RDF><cc:Work
         rdf:about=""><dc:format>image/svg+xml</dc:format><dc:type
           rdf:resource="http://purl.org/dc/dcmitype/StillImage" /><dc:title></dc:title></cc:Work></rdf:RDF></metadata><defs
     id="defs3393" /><sodipodi:namedview
     pagecolor="#ffffff"
     bordercolor="#666666"
     borderopacity="1"
     objecttolerance="10"
     gridtolerance="10"
     guidetolerance="10"
     inkscape:pageopacity="0"
     inkscape:pageshadow="2"
     inkscape:window-width="1600"
     inkscape:window-height="876"
     id="namedview3391"
     showgrid="false"
     inkscape:zoom="2.399457"
     inkscape:cx="177.16251"
     inkscape:cy="147.325"
     inkscape:window-x="0"
     inkscape:window-y="24"
     inkscape:window-maximized="1"
     inkscape:current-layer="g3397" /><g
     id="g3397"
     inkscape:groupmode="layer"
     inkscape:label="ink_ext_XXXXXX"
     transform="matrix(1.25,0,0,-1.25,0,294.65)"><g
       id="g3399"
       transform="scale(0.1,0.1)"><path
         d="m 1923.91,641.109 143.23,-0.007 c 4.1,-0.332 7.32,-3.75 7.32,-7.942 l -0.05,-603.9803 c 0.02,-4.9492 -3.54,-8.5078 -7.94,-8.5078 l -141.95,0.0078 c -4.93,0.2617 -8.48,3.8203 -8.48,8.2187 l -0.08,603.6796 c 0,4.973 3.56,8.531 7.95,8.531"
         style="fill:#2d8f2e;fill-opacity:1;fill-rule:evenodd;stroke:none"
         id="path3401"
         inkscape:connector-curvature="0" /><path
         d="m 1392.19,69.3086 -1.77,1.1328 c -2.91,2.3789 -3.72,6.5586 -1.83,9.9688 l 59.6,112.2108 c 0.95,1.699 5.56,7.117 12.08,2.391 38.73,-32.051 84.09,-57.172 136.03,-57.172 38.41,0 80.48,19.289 80.48,64.742 0,23.789 -16.71,39.598 -37.19,50.566 -10.22,5.481 -21.55,9.84 -32.52,13.461 -10.9,3.59 -21.42,6.45 -30.13,8.95 -101.73,28.929 -167.52,55.05 -167.52,174.511 0,125.559 89.3,207.571 213.35,207.571 59.33,0 131.27,-17.832 185.61,-46.34 4.19,-2.332 5.62,-6.879 3.83,-10.653 l -54.82,-106.679 c -2.37,-4.27 -7.05,-5.668 -10.84,-3.739 -28.71,21.43 -63.92,35.352 -100.58,35.352 -30,0 -71.37,-17.551 -71.37,-53.98 0,-19.09 11.55,-32.223 26.3,-41.602 7.37,-4.68 15.62,-8.488 23.74,-11.691 8.1,-3.168 16.19,-5.789 23.26,-8.071 l 41.4,-12.418 c 86.66,-25.59 152.63,-69.019 152.63,-168.742 0,-61.867 -14.84,-124.949 -63.91,-166.6288 -48.4,-41.0273 -113.34,-58.32029 -175.92,-58.32029 -74.82,0 -148.15,24.14059 -209.91,65.17969"
         style="fill:#2d8f2e;fill-opacity:1;fill-rule:evenodd;stroke:none"
         id="path3403"
         inkscape:connector-curvature="0" /><path
         d="m 1164.79,641.109 143.22,-0.007 c 4.1,-0.332 7.32,-3.75 7.32,-7.942 l -0.04,-603.9803 c 0.01,-4.9492 -3.55,-8.5078 -7.94,-8.5078 l -141.94,0.0078 c -4.95,0.2617 -8.52,3.8203 -8.52,8.2187 l -0.07,603.6796 c 0.01,4.973 3.57,8.531 7.97,8.531"
         style="fill:#2d8f2e;fill-opacity:1;fill-rule:evenodd;stroke:none"
         id="path3405"
         inkscape:connector-curvature="0" /><path
         d="m 2491.34,153.57 c 97.91,0 178.13,79.512 178.13,188.059 0,87.191 -80.37,166.562 -178.13,166.562 -97.8,0 -178.15,-79.371 -178.15,-166.562 0,-108.547 80.21,-188.059 178.15,-188.059 z M 2491.34,0 C 2292.03,0 2148,141.539 2148,342.469 c 0,187.48 164.53,319.32 343.34,319.32 178.81,0 343.31,-131.84 343.31,-319.32 C 2834.65,141.539 2690.65,0 2491.34,0"
         style="fill:#2d8f2e;fill-opacity:1;fill-rule:evenodd;stroke:none"
         id="path3407"
         inkscape:connector-curvature="0" /><path
         d="m 722.266,249.582 68.285,202.34 4.304,0 67.446,-202.34 -140.035,0 z m -546.153,111.746 -17.566,0 0,159.293 17.566,0 c 52.754,0 114.407,-9.859 114.407,-79.641 0,-69.781 -61.653,-79.652 -114.407,-79.652 z M 1110.32,31.7813 882.77,635.941 c 0,0 -1.649,5.161 -8,5.161 l -162.774,0 c -5.926,0 -7.699,-5.032 -7.699,-5.032 L 483.793,61.75 317.645,275.891 l 3,0.539 c 87.492,15.539 135.054,89.082 135.054,174.48 0,131.899 -92.32,190.199 -215.019,190.199 l -232.69172,0 C 4.04688,641.109 0,638.102 0,632.98 L 0.0117188,28.6289 c 0,-4.1797 3.2109412,-7.5898 7.2929712,-7.9297 L 150.215,20.75 l 0.332,0 c 4.394,0 7.965,3.5586 7.945,8.4883 l 0.055,231.4917 4.5,0 150.68,-236.1987 c 0,0 1.863,-3.8321 7.312,-3.8321 l 309.066,-0.0195 c 6.028,0 7.704,4.9414 7.704,4.9414 l 41.078,103.4809 226,0 38.644,-103.2934 c 0,0 1.504,-5.1289 7.989,-5.1289 l 151.26,0 c 6.21,0 9.49,6.2109 7.54,11.1016"
         style="fill:#2d8f2e;fill-opacity:1;fill-rule:evenodd;stroke:none"
         id="path3409"
         inkscape:connector-curvature="0" /><path
         d="m 2050.34,1423.59 c 63.18,49.04 89.24,135.23 89.24,220.03 0,85.04 -27.02,151.31 -89.24,214.85 62.22,63.94 89.24,127.16 89.24,217.96 0,155.07 -126.82,280.78 -281.64,280.78 -87.82,0 -176.76,-34.62 -215.4,-96.12 -51.18,59.63 -133.54,96.12 -218.21,96.12 -84.92,0 -170.99,-41.74 -219.48,-94.71 -50.51,52.97 -123.49,94.71 -214.135,94.71 -154.848,0 -282.922,-125.71 -282.922,-280.78 0,-87.97 36.379,-164.68 97.129,-217.96 -60.75,-49.42 -97.129,-130.05 -97.129,-214.85 0,-85.05 37.281,-168.78 97.129,-220.03 -61.012,-49.11 -97.129,-127.51 -97.129,-218.29 0,-155.08 128.074,-280.8 282.922,-280.8 87.825,0 153.015,16.961 216.045,96.77 64.26,-79.809 141.58,-96.77 217.57,-96.77 75.45,0 164.82,37.34 216,97.28 58.53,-62.651 126.96,-97.28 217.61,-97.28 154.82,0 281.64,125.72 281.64,280.8 4.81,86.75 -26.06,164.63 -89.24,218.29 z m -459.26,382.62 0,-330.83 -329.75,0 0,330.83 329.75,0 z m 0,-441.84 0,-161.53 c 0,-90.17 -76.73,-162.35 -166.75,-162.35 -90.03,0 -163,72.18 -163,162.35 l 0,161.53 329.75,0 z m -441.72,-161.53 c 0,-90.17 -70.17,-162.35 -160.196,-162.35 -90.019,0 -163.91,72.18 -163.91,162.35 0,90.15 73.891,161.53 163.91,161.53 l 160.196,0 0,-161.53 z m 0,272.54 -160.196,0 c -90.019,0 -163.91,74.04 -163.91,164.2 0,90.15 73.891,166.63 163.91,166.63 l 160.196,0 0,-330.83 z m -160.196,442.23 c -90.019,0 -163.91,68.55 -163.91,158.71 0,90.16 73.891,163.25 163.91,163.25 90.026,0 160.196,-73.09 160.196,-163.25 l 0,-158.71 -160.196,0 z m 272.166,0 0,158.71 c 0,90.16 72.97,163.25 163,163.25 90.02,0 166.75,-73.09 166.75,-163.25 l 0,-158.71 -329.75,0 z m 440.6,158.71 c 0,90.16 67.52,163.25 157.56,163.25 90,0 162.99,-73.09 162.99,-163.25 0,-90.16 -72.98,-158.71 -162.99,-158.71 l -157.56,0 0,158.71 z m 0,-270.11 157.56,0 c 90,0 162.99,-76.48 162.99,-166.63 0,-90.16 -72.99,-164.2 -162.99,-164.2 l -157.56,0 0,330.83 z m 157.56,-441.84 c 90,0 162.99,-71.38 162.99,-161.53 0,-90.17 -72.99,-162.35 -162.99,-162.35 -90.04,0 -157.56,72.18 -157.56,162.35 l 0,161.53 157.56,0"
         style="fill:#2d8f2e;fill-opacity:1;fill-rule:evenodd;stroke:none"
         id="path3411"
         inkscape:connector-curvature="0" /></g></g></svg>