<?xml version="1.0" encoding="utf-8"?>
<!-- Generator: Adobe Illustrator 12.0.0, SVG Export Plug-In . SVG Version: 6.00 Build 51448)  -->
<!DOCTYPE svg PUBLIC "-//W3C//DTD SVG 1.1//EN" "http://www.w3.org/Graphics/SVG/1.1/DTD/svg11.dtd" [
	<!ENTITY ns_svg "http://www.w3.org/2000/svg">
	<!ENTITY ns_xlink "http://www.w3.org/1999/xlink">
]>
<svg  version="1.1" id="Layer_1" xmlns="&ns_svg;" xmlns:xlink="&ns_xlink;" width="89" height="104" viewBox="0 0 89 104"
	 overflow="visible" enable-background="new 0 0 89 104" xml:space="preserve">
<path fill="#FFFFFF" d="M5.611,44.75c0-21.477,17.411-38.888,38.89-38.888c21.477,0,38.888,17.411,38.888,38.888
	c0,21.478-17.411,38.888-38.888,38.888C23.022,83.637,5.611,66.227,5.611,44.75"/>
<circle fill="none" stroke="#010101" stroke-width="3.16" cx="44.499" cy="44.75" r="38.888"/>
<path fill="#010101" d="M78.944,48.281c0,0.34-0.121,0.63-0.361,0.87c-0.239,0.238-0.529,0.359-0.869,0.359
	c-0.341,0-0.632-0.121-0.87-0.359c-0.241-0.24-0.36-0.53-0.36-0.87s0.119-0.63,0.36-0.871c0.238-0.241,0.529-0.36,0.87-0.36
	c0.34,0,0.63,0.119,0.869,0.36C78.823,47.651,78.944,47.941,78.944,48.281 M78.779,48.281c0-0.295-0.104-0.547-0.313-0.757
	c-0.209-0.211-0.46-0.316-0.755-0.316c-0.297,0-0.548,0.105-0.756,0.316c-0.209,0.21-0.313,0.462-0.313,0.757
	c0,0.294,0.104,0.546,0.313,0.756c0.208,0.211,0.459,0.313,0.756,0.313c0.295,0,0.546-0.104,0.755-0.313
	S78.779,48.575,78.779,48.281z M78.5,48.909h-0.315l-0.473-0.505h-0.228v0.505h-0.236v-1.308h0.444c0.089,0,0.163,0.007,0.221,0.015
	c0.06,0.007,0.114,0.024,0.172,0.055c0.06,0.032,0.104,0.072,0.132,0.118c0.026,0.047,0.042,0.104,0.042,0.174
	c0,0.092-0.025,0.17-0.08,0.23c-0.056,0.063-0.128,0.109-0.224,0.146L78.5,48.909z M78.001,47.98c0-0.034-0.008-0.065-0.021-0.094
	c-0.014-0.023-0.035-0.049-0.066-0.063c-0.027-0.02-0.062-0.027-0.094-0.032c-0.032-0.004-0.074-0.007-0.124-0.007h-0.211v0.438
	h0.18c0.061,0,0.109-0.004,0.151-0.015c0.043-0.008,0.077-0.024,0.104-0.046c0.027-0.023,0.05-0.049,0.063-0.077
	C77.994,48.057,78.001,48.02,78.001,47.98z"/>
<path fill="#010101" d="M69.017,41.907c-0.244,0.006-0.633,0.014-0.655,0.332c-0.056,0.693-0.025,6.143-0.025,6.143
	c0.027,0.354,0.314,0.573,0.975,0.645c0.066,0.025,0.171,0.033,0.256,0.105c0.209,0.238-0.041,0.461-0.232,0.446
	c0,0-2.147,0.011-3.205,0c-0.609-0.099-0.302-0.554-0.534-0.659c-0.146-0.115-0.581,0.323-1.021,0.426
	c-1.158,0.36-2.623,0.449-3.602-0.402c-1.231-1.106-1.678-2.836-1.224-4.409c0.273-1.052,1.082-2.267,2.222-2.681
	c1.181-0.521,2.551-0.199,3.547,0.513c0.109,0.067,0.203,0.083,0.228-0.131c0,0-0.067-0.772,0.338-0.771
	c0.202,0.004,1.523,0.004,2.945,0.006l0.088,0.002c0.87,0.002,1.778,0.01,2.646,0.002c0.26,0.041,0.149,0.611,0.181,1.027v4.646
	c-0.003,0.392,0.356,0.476,0.522,0.482c0.22,0.069,0.477-0.004,0.679-0.141c0.245-0.191,0.214-0.73,0.223-0.984
	c0.031-1.424,0.066-2.699,0.008-4.121c-0.059-0.275-0.307-0.334-0.563-0.435c-0.286-0.021-0.447-0.524-0.088-0.491
	c0.508,0.012,1.299-0.012,2.4,0c0.538,0.004,0.781-0.029,0.792,0.223l-0.021,9.259c-0.157,2.399-0.206,4.495-2.814,5.528
	c-1.104,0.479-3.007,0.602-4.141-0.233c0,0-0.955-0.646-1.277-1.826c-0.229-0.851-0.091-1.567,0.473-2.245
	c0.563-0.676,2.211-1.357,2.811-0.934c0.238,0.203-0.195,0.479-0.363,1.113c-0.071,0.5-0.048,0.812,0.247,1.25
	c0.375,0.582,1.37,0.823,2.048,0.065c0.823-0.987,0.396-2.989,0.471-4.676c-0.021-0.149,0.066-0.247-0.146-0.338
	c-0.25-0.011-0.396,0.487-1.131,0.755c-0.624,0.242-1.271,0.242-1.805-0.174c-0.7-0.563-0.581-1.752-0.592-2.608
	c-0.015-1.312,0.002-3.043,0.004-4.319C69.603,41.869,69.017,41.907,69.017,41.907 M64.646,42.893
	c-0.809-0.127-1.614,0.127-2.146,0.8c-0.687,0.917-0.944,2.188-0.51,3.28c0.33,0.713,1.071,1.183,1.783,1.33
	c0.723,0.16,1.957-0.168,2.023-0.675c0-1.239-0.021-3.114-0.005-3.587c0.008-0.281-0.164-0.506-0.164-0.506
	C65.407,43.132,65.05,43.02,64.646,42.893 M29.517,42.249l0.006,5.288c-0.034,0.302,0.146,0.647,0.638,0.652
	c0.434-0.011,0.675-0.142,0.725-0.45c0.088-1.518,0.028-3.084,0.039-4.559c-0.011-0.299-0.219-0.498-0.462-0.646
	c-0.104-0.07-0.249-0.096-0.323-0.202c-0.064-0.106-0.021-0.317,0.128-0.327l2.898-0.004c0.256,0.014,0.201,0.245,0.181,0.416v6.215
	c0.075,0.469,0.574,0.447,0.926,0.543c0.437,0.182,0.032,0.491,0.032,0.491c-1.064-0.042-2.195,0.035-3.28-0.005
	c-0.313-0.04-0.142-0.525-0.374-0.466c-0.538,0.104-0.483,0.483-1.227,0.676c-0.878,0.122-1.411-0.047-1.961-0.622
	c-0.287-0.373-0.373-0.83-0.361-1.329c0-1.646,0.015-3.448,0-5.026c-0.046-0.272-0.156-0.354-0.491-0.418
	c-0.128-0.072-0.359-0.034-0.324-0.271c-0.016-0.285,0.434-0.188,0.815-0.203c0,0,2.052-0.009,2.229,0.004
	C29.55,42.018,29.517,42.249,29.517,42.249 M33.262,24.329c-0.071,1.821-1.478,4.071-2.809,3.758
	c0.478-0.082,1.476-0.018,3.216,2.18c0.418,0.528,1.587,2.135,1.986,2.646c1.521,1.938,2.149,3.004,4.901,2.898
	c4.218-0.218,3.379-3.681,3.879-3.568c0,0,2.263,0.038,2.263,1.909c0.012,1.332-0.772,2.587-2.041,3.509
	c-2.532,1.919-6.939,2.21-9.978,0.021c-2.321-1.674-4.741-5.905-4.741-5.905c-1.289-2.328-2.03-2.455-3.465-2.5
	c-0.211,0-0.429,0.008-0.555,0.072c-0.124,0.066-0.126,0.183-0.126,0.183c0.002,0.983-0.014,1.264,0,2.234
	c-0.074,0.816,0.667,0.796,1.424,0.978c0.203,0.146,0.103,0.402,0.061,0.426c-0.104,0.06-0.238,0.053-0.238,0.053
	c-1.794-0.012-4.12,0.024-5.996-0.002c-0.146,0.008-0.261-0.313-0.102-0.45c0.195-0.077,0.393-0.053,0.592-0.113
	c0.519-0.113,0.792-0.22,0.797-0.688c0,0-0.031-9.978-0.021-10.125c0.042-0.728-0.199-1.125-0.444-1.505
	c-0.107-0.084-0.149-0.424,0.212-0.427c0.554,0.032,1.051,0.404,1.624,0.16c1.669-0.531,3.365-1.365,5.33-1.074
	C32.197,19.556,33.356,22.022,33.262,24.329 M27.164,21.235c-0.513,0.016-1.427,0.258-1.348,0.922l-0.002,4.77
	c0.021,0.127,0.159,0.267,0.286,0.276c1.067,0.14,1.97,0.006,2.555-0.961c0.765-1.147,1.037-2.755,0.368-3.936
	C28.599,21.639,27.947,21.177,27.164,21.235 M45.04,24.752c-0.563,0.266-1.018,0.997-0.96,1.402c0,0-0.048,3.014-0.006,3.209
	c0.043,0.214,0.064,0.233,0.064,0.233c0.384,0.561,1.327,0.563,1.975,0.383c0.754-0.244,1.423-0.968,1.68-1.713
	c0.383-0.924,0.341-2.154-0.353-2.932C46.875,24.691,45.882,24.39,45.04,24.752 M38.025,52.738
	c-0.073,0.253-0.459,0.249-1.071,0.464c-2.165,0.768-2.429,3.155-2.327,4.825c0.252,4.08,5.779,6.995,10.564,3.762
	c2.247-1.668,2.917-4.341,2.58-7.624c-0.714-3.9-3.671-5.806-5.597-8.24c-0.679-0.854-0.531-0.979-0.697-1.041l-3.842-0.002
	c-0.965,0.01-1.099-0.109-1.096,0.36c-0.021,1.285-0.027,2.646,1.201,3.421c0.986,0.51,1.806,0.494,3.333-0.732
	c0.072-0.058,0.373-0.336,0.515-0.188l0.025,0.022c0.143,0.166,0.021,0.25-0.014,0.304c-1.153,1.514-2.708,1.932-3.915,1.913
	c-1.326,0.054-2.548-0.605-3.206-1.731c-0.883-1.329-0.827-3.405,0.097-4.769c0.96-1.449,2.196-2.227,4.147-2.037
	c1.224,0.145,1.944,0.837,2.479,1.833c-0.053-0.736,0.558-2.208,1.97-3.16c0.938-0.722,2.158-0.789,3.163-0.565
	c0.21,0.045,1.113,0.346,1.553,0.618c0.419,0.22,0.695-0.906,1.055-0.456c0.005,1.112,0.022,2.159,0.001,3.256
	c-0.043,0.115-0.028,0.213-0.241,0.213c-0.181-0.015-0.199-0.148-0.254-0.256c-0.063-0.816-0.486-1.636-1.253-1.998
	c-0.436-0.097-0.915,0.021-1.223,0.416c-0.311,0.352-0.36,0.881-0.255,1.35c0.5,1.594,2.154,2.344,3.42,3.188
	c0.349,0.231,0.82,0.59,1.078,0.749l0.018-0.274c0.021-1.76,0.626-3.479,2.22-4.354c1.146-0.669,2.762-0.436,3.771,0.385
	c0.13,0.073,0.31-0.013,0.33-0.148c0.183-1.711-0.394-3.953,1.583-4.696c2.953-0.881,5.606,0.514,8.337,1.126
	c1.729,0.389,4.091,0.81,5.354-0.839c0.456-0.499,0.632-1.172,0.456-1.87c0.446-0.393,1.081-0.448,1.729-0.383
	c0.838,0.115,1.562,0.616,1.838,1.403c0.384,1.03-0.601,2.619-1.804,3.165c-2.316,1.169-5.08,0.266-7.319-0.382
	c-1.984-0.571-3.737-1.272-5.811-1.402c-0.658,0.012-1.352,0.287-1.614,0.916c-0.245,0.785-0.135,1.709-0.156,2.581l0.007,6.576
	c0.05,0.573-0.047,0.561,0.945,0.723c0.277,0.264,0.04,0.475-0.202,0.449h-3.111c-0.232,0.018-0.292-0.08-0.286-0.172
	c-0.053-0.172,0.088-0.395-0.198-0.432c-0.387,0.094-0.622,0.327-1.029,0.456c-0.688,0.195-1.135,0.256-1.826,0.109
	c0.19,0.206,0.288,0.319,0.288,0.319c0.771,0.996,1.238,1.868,1.238,1.868c1.638,2.706,2.642,6.58,2.397,10.054l-0.026,0.265
	c-0.203,1.846-0.547,4.07-1.501,5.868c-2.209,4.938-7.288,8.414-12.514,8.871c-4.26,0.298-8.253-0.601-11.498-2.85
	c-0.906-0.628-3.436-2.678-4.599-5.385c-0.519-1.205-1.529-2.71-1.476-5.996c0.032-2.161,0.538-5.096,3.551-7.904
	c2-1.654,5.125-2.729,7.616-2.479c0.133,0.014,1.019,0.07,1.1,0.464L38.025,52.738 M37.943,42.161
	c-0.616,0.063-1.104,0.702-1.273,1.244c-0.032,0.223-0.214,0.736,0.092,0.719c0.742-0.001,2.161,0,2.353,0
	c0.147,0,0.18-0.178,0.18-0.178c0.105-0.355-0.054-0.896-0.246-1.239C38.803,42.27,38.401,42.119,37.943,42.161 M55.352,42.927
	c-0.785-0.127-1.518,0.115-2.037,0.682c-0.744,0.893-1.031,2.178-0.638,3.313c0.414,0.903,1.37,1.467,2.379,1.438
	c0.511-0.064,1.167-0.292,1.464-0.761c0.037-1.027,0.067-1.697,0.063-2.608c-0.002-0.603,0.012-1.027-0.243-1.44
	C56.099,43.12,55.735,43.042,55.352,42.927 M22.183,39.899c0.028,2.88-0.005,4.535-0.015,7.376c-0.055,0.5,0.005,0.887-0.196,1.434
	c-0.134,0.589-0.8,0.451-1.343,0.548c-0.084,0.012-0.263,0.082-0.229,0.199c-0.032,0.085,0.045,0.219,0.168,0.241
	c2.165-0.029,6.436,0.014,6.508,0c0.179,0,0.31-0.418-0.095-0.455c-0.501-0.043-0.938-0.113-0.938-0.113
	c-0.333-0.116-0.554-0.423-0.563-0.804l0.031-8.713c-0.031-0.67-0.01-1.31,0.382-1.786c0.5-0.585,1.146-1.011,1.966-0.819
	c1.299,0.367,1.862,1.715,2.021,2.957l0.039,0.188c0.108,0.223,0.459,0.104,0.403-0.149l0.002-4.271
	c-0.004-0.206-0.03-0.342-0.278-0.264c-0.387,0.258-0.729,0.593-1.199,0.541c-2.917,0.022-8.809-0.003-8.809-0.003
	c-0.547-0.002-0.64,0.008-1.195,0c-0.472,0.054-0.813-0.283-1.2-0.54c-0.248-0.079-0.273,0.059-0.278,0.261l0.002,4.274
	c-0.056,0.252,0.295,0.372,0.403,0.148l0.039-0.188c0.159-1.245,0.725-2.593,2.021-2.958c0.818-0.189,1.466,0.235,1.966,0.819
	c0.395,0.479,0.407,0.835,0.391,1.548L22.183,39.899 M41.057,30.75c0.18-0.015,0.237-0.061,0.338-0.126
	c0.229-0.2,0.18-0.698,0.153-1.048l-0.002-8.881c0.015-0.297-0.196-0.431-0.563-0.566c-0.286-0.126-0.24-0.039-0.436-0.194
	c-0.029-0.084-0.047-0.354,0.187-0.344c0.521-0.015,1.915,0.017,2.499,0.002c0.33-0.006,0.8-0.059,0.82,0.309
	c0.029,1.652,0.045,2.801,0.003,4.544c0.053,0.168,0.17,0.211,0.291,0.128c0.872-0.968,2.063-1.352,3.366-1.097
	c1.301,0.26,2.563,1.489,2.751,2.858c0.309,1.817-0.104,3.635-1.708,4.643c-0.957,0.532-2.38,0.841-3.391,0.329
	c-1.011-0.508-0.76-0.662-1.021-0.669c-0.091-0.003-0.309,0.171-0.329,0.34c0.015,0.165-0.108,0.234-0.202,0.275l-2.82,0.004
	l0.117,0.002c-0.962-0.002-1.969-0.004-2.938,0.004c-0.313-0.039-0.142-0.601-0.374-0.539c-0.542,0.105-0.348,0.538-1.254,0.742
	c-0.843,0.093-1.384-0.113-1.934-0.688c-0.287-0.372-0.372-0.828-0.36-1.328c0-1.648,0.014-3.447,0-5.026
	c-0.047-0.274-0.157-0.354-0.493-0.419c-0.127-0.074-0.358-0.036-0.324-0.271c-0.015-0.285,0.434-0.188,0.817-0.202
	c0,0,2.05-0.009,2.229,0.002c0.222,0.014,0.188,0.245,0.188,0.245l0.006,5.288c-0.032,0.302,0.146,0.648,0.637,0.651
	c0.436-0.009,0.679-0.139,0.727-0.451c0.086-1.515,0.029-3.084,0.038-4.558c-0.009-0.297-0.217-0.497-0.462-0.646
	c-0.103-0.069-0.248-0.099-0.321-0.203c-0.063-0.107-0.022-0.316,0.128-0.327l2.897-0.002c0.255,0.013,0.2,0.244,0.181,0.414v6.261
	C40.518,30.829,41.057,30.75,41.057,30.75 M57.167,32.594c0.05,2.079-0.204,4.5-2.814,5.533c-1.104,0.474-3.006,0.597-4.143-0.238
	c0,0-0.953-0.643-1.274-1.824c-0.229-0.85-0.092-1.566,0.474-2.245c0.563-0.678,2.21-1.355,2.808-0.933
	c0.238,0.203-0.192,0.48-0.359,1.113c-0.076,0.499-0.05,0.809,0.245,1.251c0.375,0.581,1.368,0.823,2.049,0.065
	c0.549-0.658,0.487-1.77,0.485-2.938v0.031c-0.022-0.484-0.041-0.996-0.019-1.549c-0.021-0.149,0.024-0.335-0.146-0.382
	c-0.231-0.025-0.53,0.48-1.23,0.71c-0.689,0.178-1.125,0.173-1.688-0.2c-0.701-0.563-0.613-1.604-0.604-2.437
	c0.014-1.319,0-2.836-0.058-4.096c-0.105-0.435-0.525-0.457-1.008-0.653c-0.166-0.1-0.089-0.32,0.065-0.35
	c1.001,0.013,2.073-0.014,3.087,0.007c0.229,0.085,0.168,0.633,0.175,1.034l0.008,4.645c-0.003,0.231,0.194,0.33,0.358,0.386
	c0.222,0.066,0.608,0.066,0.799-0.083c0.244-0.19,0.258-0.687,0.266-0.94c0.032-1.424,0.055-2.683-0.021-4.122
	c0.012-0.305-0.274-0.333-0.535-0.434c-0.275-0.043-0.443-0.524-0.086-0.491c0.507,0.012,1.298-0.012,2.4-0.001
	c0.539,0.006,0.781-0.029,0.792,0.224L57.167,32.594"/>
<path fill="#010101" d="M23.484,91.033c-0.824-0.781-1.62-1.009-2.272-1.009c-0.896,0-1.534,0.469-1.534,1.148
	c0,1.861,4.189,1.833,4.189,4.916c0,1.521-1.149,2.627-2.713,2.627c-1.052,0-1.903-0.283-2.713-0.895v-1.764
	c0.71,0.91,1.604,1.406,2.557,1.406c1.08,0,1.577-0.682,1.577-1.221c0-2.004-4.19-2.23-4.19-4.887c0-1.578,1.165-2.587,2.94-2.587
	c0.739,0,1.478,0.228,2.159,0.683V91.033z M31.652,95.337c0,2.02-1.407,3.381-3.452,3.381c-1.96,0-3.367-1.42-3.367-3.381
	c0-1.832,1.464-3.253,3.367-3.253C30.203,92.084,31.652,93.448,31.652,95.337z M26.126,95.337c0,1.352,0.838,2.245,2.06,2.245
	c1.336,0,2.174-0.853,2.174-2.23c0-1.233-0.909-2.131-2.174-2.131C26.992,93.22,26.126,94.116,26.126,95.337z M45.674,97.923
	c-1.293,0.568-2.345,0.795-3.692,0.795c-2.971,0-5.157-2.073-5.157-4.914c0-2.854,2.245-5.027,5.199-5.027
	c1.137,0,1.933,0.185,3.451,0.822v1.406c-1.137-0.625-2.314-0.952-3.479-0.952c-2.104,0-3.735,1.605-3.735,3.708
	c0,2.159,1.62,3.682,3.921,3.682c0.753,0,1.436-0.173,2.104-0.387v-1.986h-1.86v-1.25h3.254v4.104H45.674z M53.956,95.337
	c0,2.02-1.405,3.381-3.451,3.381c-1.961,0-3.367-1.42-3.367-3.381c0-1.832,1.463-3.253,3.367-3.253
	C52.507,92.084,53.956,93.448,53.956,95.337z M48.429,95.337c0,1.352,0.838,2.245,2.061,2.245c1.336,0,2.174-0.853,2.174-2.23
	c0-1.233-0.908-2.131-2.174-2.131C49.296,93.22,48.429,94.116,48.429,95.337z M61.798,95.337c0,2.02-1.407,3.381-3.452,3.381
	c-1.961,0-3.366-1.42-3.366-3.381c0-1.832,1.463-3.253,3.366-3.253C60.348,92.084,61.798,93.448,61.798,95.337z M56.271,95.337
	c0,1.352,0.838,2.245,2.06,2.245c1.337,0,2.175-0.853,2.175-2.23c0-1.233-0.909-2.131-2.175-2.131
	C57.137,93.22,56.271,94.116,56.271,95.337z M68.716,98.591h-2.685c-1.903,0-3.099-1.293-3.099-3.339
	c0-1.847,1.321-3.168,3.184-3.168c0.427,0,0.824,0.071,1.335,0.256v-3.438h1.266L68.716,98.591L68.716,98.591z M67.451,93.462
	c-0.426-0.17-0.753-0.241-1.179-0.241c-1.223,0-2.047,0.881-2.047,2.218c0,1.191,0.483,2.089,1.946,2.089h1.277L67.451,93.462
	L67.451,93.462z M71.955,97.866c0,0.469-0.384,0.852-0.854,0.852c-0.469,0-0.854-0.383-0.854-0.852s0.385-0.854,0.854-0.854
	C71.571,97.012,71.955,97.397,71.955,97.866z"/>
<rect fill="none" width="89" height="104"/>
</svg>
