<?xml version="1.0" encoding="UTF-8"?><svg id="_レイヤー_2" xmlns="http://www.w3.org/2000/svg" viewBox="0 0 237.82 59"><defs><style>.cls-1{fill:#060510;}.cls-2{fill:#e50012;}.cls-3{fill:none;stroke:#fff;stroke-linecap:round;stroke-linejoin:round;stroke-width:5.31px;}</style></defs><g id="_レイヤー_1-2"><path class="cls-1" d="m12.4.92v12.02h-1.42v-.87h-6.75v.93h-1.36V.92h9.53Zm-8.17,1.35v3.5h6.75v-3.5h-6.75Zm6.75,8.45v-3.64h-6.75v3.64h6.75Z"/><path class="cls-1" d="m26.29,4.24c1.16,2.31,3.11,4.43,5.26,5.52-.32.27-.79.82-1,1.17-2.05-1.16-3.81-3.18-5.07-5.5v3.83h2.56v1.35h-2.56v2.54h-1.4v-2.54h-2.62v-1.35h2.62v-3.81c-1.26,2.32-3.04,4.33-5.04,5.53-.21-.33-.66-.83-.95-1.1,2.08-1.1,4.01-3.3,5.19-5.63h-4.69v-1.35h5.49V0h1.4v2.89h5.54v1.35h-4.73Z"/><path class="cls-1" d="m42.31,12.57l-.84-1.35c.49-.04.92-.11,1.27-.2,1.83-.42,3.47-1.76,3.47-4.07,0-2.08-1.26-3.73-3.47-4-.2,1.29-.44,2.68-.86,4.03-.86,2.92-2.05,4.54-3.47,4.54s-2.72-1.58-2.72-3.97c0-3.21,2.81-5.96,6.4-5.96s5.62,2.41,5.62,5.4-1.92,5.07-5.4,5.57Zm-3.85-2.75c.65,0,1.32-.93,1.98-3.14.36-1.13.62-2.44.79-3.7-2.58.42-4.08,2.65-4.08,4.43,0,1.65.7,2.41,1.32,2.41Z"/><path class="cls-1" d="m63.62.69c-.04,5.43-.03,11.03.75,11.03.16,0,.24-.9.26-2.12.22.37.54.79.77,1.02-.12,1.78-.37,2.54-1.17,2.54-1.88,0-1.89-5.09-1.92-11.23h-7.39v3.5c0,2.35-.23,5.63-1.82,7.77-.23-.23-.77-.59-1.09-.73,1.5-1.99,1.63-4.87,1.63-7.03V.69h9.99Zm-2.62,8.51c.67.96,1.32,2.28,1.53,3.14l-1.09.39c-.07-.3-.19-.66-.34-1.05-2.25.17-4.56.34-6.19.47l-.1-1.2c.86-.04,1.95-.1,3.14-.19v-1.76h-2.36v-4h2.36v-1.09c-.82.09-1.63.13-2.41.17-.04-.27-.19-.75-.33-.99,2.03-.14,4.41-.4,5.75-.77l.9.96c-.77.21-1.73.37-2.75.5v1.22h2.44v4h-2.44v1.69l1.49-.09c-.2-.37-.42-.75-.63-1.07l1.03-.33Zm-3.05-1.23v-1.92h-1.32v1.92h1.32Zm1.16-1.92v1.92h1.33v-1.92h-1.33Z"/><path class="cls-1" d="m70.96,9.64v1.12h-1.22V1.27h3.97v8.37h-2.75Zm0-7.08v5.79h1.53V2.56h-1.53Zm8.25,4.36c.77,1.72,2.02,3.38,3.31,4.3-.33.24-.76.75-1,1.09-1-.87-1.98-2.24-2.74-3.71v4.54h-1.35v-4.57c-.89,1.56-2.05,2.91-3.35,3.74-.2-.32-.6-.79-.9-1.03,1.56-.86,3-2.56,3.84-4.36h-2.87v-1.28h3.28v-2.12h-2.77v-1.27h2.77V.1h1.35v2.15h3.04v1.27h-3.04v2.12h3.55v1.28h-3.12Z"/><path class="cls-1" d="m91.13,6.58c0,.92-.75,1.66-1.66,1.66s-1.66-.75-1.66-1.66.75-1.66,1.66-1.66,1.66.74,1.66,1.66Z"/><path class="cls-1" d="m106.1,9.28v-.6h-2.35v.66h-1.33v-4.57h-2.35v6.09h9.04v1.3h-9.04v.99h-1.36V4.77h-2.09v-1.28h2.09V.4h1.36v3.09h2.35V.1h1.33v3.4h2.35V.26h1.35v3.24h2.16v1.28h-2.16v4.51h-1.35Zm0-1.85v-2.67h-2.35v2.67h2.35Z"/><path class="cls-1" d="m122.66,6.32c1.05,1,2.62,1.82,4.24,2.24-.3.27-.7.79-.9,1.13-.95-.3-1.86-.76-2.69-1.3v4.74h-1.38v-4.97h1.06c-.72-.53-1.38-1.16-1.88-1.83h-1.53c-.52.66-1.17,1.29-1.91,1.82h1.19v.92c0,1.36-.34,3.11-3.17,4.2-.16-.34-.6-.83-.9-1.09,2.44-.85,2.71-2.15,2.71-3.15v-.75c-.89.62-1.86,1.12-2.85,1.48-.2-.34-.59-.83-.89-1.1,1.53-.44,3.12-1.3,4.18-2.32h-2.59V.47h9.92v5.85h-2.61Zm-5.99-3.45h2.92v-1.3h-2.92v1.3Zm0,2.36h2.92v-1.33h-2.92v1.33Zm7.22-3.67h-2.95v1.3h2.95v-1.3Zm0,2.34h-2.95v1.33h2.95v-1.33Z"/><path class="cls-1" d="m137.81,12.57l-.85-1.35c.49-.04.92-.11,1.28-.2,1.83-.42,3.47-1.76,3.47-4.07,0-2.08-1.26-3.73-3.47-4-.2,1.29-.44,2.68-.86,4.03-.86,2.92-2.05,4.54-3.47,4.54s-2.72-1.58-2.72-3.97c0-3.21,2.81-5.96,6.4-5.96s5.62,2.41,5.62,5.4-1.92,5.07-5.4,5.57Zm-3.85-2.75c.65,0,1.32-.93,1.98-3.14.36-1.13.62-2.44.79-3.7-2.58.42-4.08,2.65-4.08,4.43,0,1.65.7,2.41,1.32,2.41Z"/><path class="cls-1" d="m152.22,3.42h-4.64v-1.06h4.64v1.06Zm8.11,8.14c0,.7-.14,1.12-.57,1.33-.42.21-1.13.24-2.18.24-.04-.34-.21-.96-.37-1.32.7.04,1.4.03,1.61.01.21,0,.29-.06.29-.27V1.7h-5.03v4.04c0,2.22-.16,5.42-1.3,7.48-.21-.21-.76-.59-1.05-.73l.09-.16h-2.61v.63h-1.06v-4.81h3.7v4.13c.95-1.91,1.03-4.53,1.03-6.53V.56h7.46v11Zm-8.48-6.22h-3.68v-1.03h3.68v1.03Zm-3.68.87h3.68v1.05h-3.68v-1.05Zm3.65-4.7h-3.57V.47h3.57v1.05Zm-1.06,7.71h-1.56v2.06h1.56v-2.06Zm5.24-4.01v-1.19h-1.3v-1h1.3v-1.1h1.06v1.1h1.36v1h-1.36v1.19h1.52v1h-4v-1h1.42Zm-.27,5.65v.53h-.97v-4.24h3.6v3.71h-2.62Zm0-2.74v1.75h1.63v-1.75h-1.63Z"/><path class="cls-1" d="m166.46,9.64v1.12h-1.22V1.27h3.97v8.37h-2.75Zm0-7.08v5.79h1.53V2.56h-1.53Zm8.25,4.36c.77,1.72,2.02,3.38,3.31,4.3-.33.24-.76.75-1,1.09-1-.87-1.98-2.24-2.74-3.71v4.54h-1.35v-4.57c-.89,1.56-2.05,2.91-3.35,3.74-.2-.32-.6-.79-.9-1.03,1.56-.86,3-2.56,3.84-4.36h-2.87v-1.28h3.28v-2.12h-2.77v-1.27h2.77V.1h1.35v2.15h3.04v1.27h-3.04v2.12h3.55v1.28h-3.12Z"/><rect class="cls-2" x="2.66" y="46.22" width="40.87" height="10.11"/><rect class="cls-3" x="2.66" y="46.22" width="40.87" height="10.11"/><polygon class="cls-2" points="162.1 29.2 162.21 29.17 162.23 29.12 162.23 28.57 162.22 21.76 162.21 21.56 162.17 21.53 162.04 21.53 158.01 21.51 157.9 21.54 157.87 21.58 157.86 28.91 157.87 29.17 157.91 29.2 162.1 29.2"/><polygon class="cls-3" points="162.1 29.2 162.21 29.17 162.23 29.12 162.23 28.57 162.22 21.76 162.21 21.56 162.17 21.53 162.04 21.53 158.01 21.51 157.9 21.54 157.87 21.58 157.86 28.91 157.87 29.17 157.91 29.2 162.1 29.2"/><polygon class="cls-2" points="151.47 28.97 151.48 29.16 151.51 29.19 155.76 29.2 155.8 29.17 155.82 29.12 155.83 21.75 155.81 21.56 155.77 21.53 155.71 21.52 151.52 21.53 151.48 21.55 151.46 21.6 151.47 28.97"/><polygon class="cls-3" points="151.47 28.97 151.48 29.16 151.51 29.19 155.76 29.2 155.8 29.17 155.82 29.12 155.83 21.75 155.81 21.56 155.77 21.53 155.71 21.52 151.52 21.53 151.48 21.55 151.46 21.6 151.47 28.97"/><polygon class="cls-2" points="202.19 27.92 202.22 28.04 202.26 28.06 204.67 28.05 208.04 28.04 211.49 28.04 212.23 28.05 212.82 28.06 213.27 28.07 213.8 28.09 215.97 28.22 217.73 28.41 218.42 28.51 218.69 28.55 218.87 28.57 218.9 28.53 218.9 21.93 218.88 21.81 218.84 21.78 217.98 21.63 216.62 21.48 214.88 21.34 213.99 21.29 212.86 21.25 212.25 21.23 211.85 21.21 211.31 21.23 209.11 21.24 205.77 21.25 202.33 21.25 202.22 21.27 202.2 21.32 202.19 21.64 202.19 27.92"/><polygon class="cls-3" points="202.19 27.92 202.22 28.04 202.26 28.06 204.67 28.05 208.04 28.04 211.49 28.04 212.23 28.05 212.82 28.06 213.27 28.07 213.8 28.09 215.97 28.22 217.73 28.41 218.42 28.51 218.69 28.55 218.87 28.57 218.9 28.53 218.9 21.93 218.88 21.81 218.84 21.78 217.98 21.63 216.62 21.48 214.88 21.34 213.99 21.29 212.86 21.25 212.25 21.23 211.85 21.21 211.31 21.23 209.11 21.24 205.77 21.25 202.33 21.25 202.22 21.27 202.2 21.32 202.19 21.64 202.19 27.92"/><polygon class="cls-2" points="113.71 22.53 113.69 22.27 113.65 22.24 113.04 22.13 111.39 21.98 109.51 21.85 108.83 21.82 107.82 21.77 106.89 21.74 106.49 21.72 105.8 21.71 105.33 21.69 104.85 21.67 101.6 21.67 101.18 21.65 100.65 21.67 97.97 21.68 94.53 21.69 94.34 21.7 94.31 21.74 94.29 21.87 94.3 30.34 94.33 30.38 94.67 30.4 98.03 30.41 101.39 30.4 104.82 30.41 105.36 30.42 106.35 30.45 106.76 30.46 107.29 30.49 108.23 30.52 109.15 30.56 109.8 30.6 110.67 30.65 112.47 30.79 113.24 30.89 113.58 30.95 113.68 30.94 113.7 30.89 113.71 30.67 113.71 22.53"/><polygon class="cls-3" points="113.71 22.53 113.69 22.27 113.65 22.24 113.04 22.13 111.39 21.98 109.51 21.85 108.83 21.82 107.82 21.77 106.89 21.74 106.49 21.72 105.8 21.71 105.33 21.69 104.85 21.67 101.6 21.67 101.18 21.65 100.65 21.67 97.97 21.68 94.53 21.69 94.34 21.7 94.31 21.74 94.29 21.87 94.3 30.34 94.33 30.38 94.67 30.4 98.03 30.41 101.39 30.4 104.82 30.41 105.36 30.42 106.35 30.45 106.76 30.46 107.29 30.49 108.23 30.52 109.15 30.56 109.8 30.6 110.67 30.65 112.47 30.79 113.24 30.89 113.58 30.95 113.68 30.94 113.7 30.89 113.71 30.67 113.71 22.53"/><polygon class="cls-2" points="137.83 38.02 138.5 38.04 139.25 38.06 140.13 38.1 140.79 38.14 141.39 38.18 142.92 38.3 144.32 38.49 144.57 38.54 144.74 38.55 144.78 38.51 144.79 31.59 144.76 31.55 144.4 31.48 143.07 31.29 141.08 31.12 139.79 31.05 139.12 31.01 138.07 30.99 128.15 31 128.12 31.03 128.1 31.09 128.1 37.98 128.2 38.03 137.83 38.02"/><polygon class="cls-3" points="137.83 38.02 138.5 38.04 139.25 38.06 140.13 38.1 140.79 38.14 141.39 38.18 142.92 38.3 144.32 38.49 144.57 38.54 144.74 38.55 144.78 38.51 144.79 31.59 144.76 31.55 144.4 31.48 143.07 31.29 141.08 31.12 139.79 31.05 139.12 31.01 138.07 30.99 128.15 31 128.12 31.03 128.1 31.09 128.1 37.98 128.2 38.03 137.83 38.02"/><polygon class="cls-2" points="128.15 21.55 128.12 21.58 128.1 22.09 128.1 28.27 128.11 28.53 128.15 28.56 137.88 28.56 138.48 28.57 139.65 28.62 141.06 28.69 142.79 28.83 144.32 29.03 144.63 29.08 144.74 29.08 144.78 29.04 144.79 22.13 144.75 22.09 144.02 21.96 142.4 21.77 140.93 21.66 139.58 21.57 139.18 21.56 138.24 21.54 128.15 21.55"/><polygon class="cls-3" points="128.15 21.55 128.12 21.58 128.1 22.09 128.1 28.27 128.11 28.53 128.15 28.56 137.88 28.56 138.48 28.57 139.65 28.62 141.06 28.69 142.79 28.83 144.32 29.03 144.63 29.08 144.74 29.08 144.78 29.04 144.79 22.13 144.75 22.09 144.02 21.96 142.4 21.77 140.93 21.66 139.58 21.57 139.18 21.56 138.24 21.54 128.15 21.55"/><polygon class="cls-2" points="92.01 36.31 92.05 36.29 92.08 36.18 92.07 28.77 92.04 28.73 91.78 28.72 85.75 28.71 85.7 28.69 85.66 28.65 85.65 22.19 85.63 22.15 85.54 22.12 77.64 22.13 77.59 22.16 77.57 22.27 77.57 28.61 77.55 28.66 77.51 28.69 66.33 28.71 66.12 28.69 66.08 28.66 66.07 28.4 66.08 22.5 66.08 22.23 66.06 22.17 66.03 22.14 58.05 22.13 58 22.15 57.97 22.26 57.97 28.64 57.94 28.69 57.83 28.72 51.6 28.72 51.18 28.72 51.07 28.75 51.04 28.8 51.04 36.25 51.06 36.3 51.17 36.33 57.89 36.33 57.94 36.35 57.96 36.47 57.97 42.74 57.99 42.79 58.02 42.82 61.46 42.82 64.34 42.82 64.85 42.84 65.1 42.82 65.51 42.83 65.92 42.82 66.03 42.79 66.05 42.68 66.06 42.27 66.07 36.92 66.09 36.39 66.11 36.35 66.22 36.32 77.5 36.32 77.54 36.35 77.58 36.46 77.57 37.77 77.55 38.52 77.52 39.19 77.38 40.64 77.14 41.98 76.82 43.1 76.43 44.08 75.95 44.97 75.42 45.73 74.79 46.4 74.02 47.01 73.17 47.53 72.27 47.93 71.29 48.24 70.22 48.48 69.02 48.65 67.68 48.74 66.94 48.76 66.59 48.77 66.35 48.75 66.1 48.75 65.35 48.74 64.22 48.64 63.32 48.54 62 48.28 60.77 47.93 60.73 47.95 60.72 48.56 60.72 54.53 60.75 54.57 61.04 54.63 62.25 54.79 63.43 54.91 64.96 55 65.99 55.01 67.15 55.01 67.66 54.99 68.19 54.98 68.8 54.95 69.62 54.9 71.08 54.76 72.54 54.55 74.04 54.24 75.45 53.85 76.25 53.57 77.64 53 79.13 52.2 79.86 51.7 80.67 51.06 81.24 50.55 81.67 50.11 82.21 49.5 82.77 48.76 83.22 48.05 83.58 47.41 84.02 46.55 84.35 45.73 84.68 44.76 84.96 43.81 85.17 42.87 85.39 41.65 85.56 40.1 85.66 38.45 85.66 36.39 85.69 36.34 85.81 36.32 92.01 36.31"/><polygon class="cls-3" points="92.01 36.31 92.05 36.29 92.08 36.18 92.07 28.77 92.04 28.73 91.78 28.72 85.75 28.71 85.7 28.69 85.66 28.65 85.65 22.19 85.63 22.15 85.54 22.12 77.64 22.13 77.59 22.16 77.57 22.27 77.57 28.61 77.55 28.66 77.51 28.69 66.33 28.71 66.12 28.69 66.08 28.66 66.07 28.4 66.08 22.5 66.08 22.23 66.06 22.17 66.03 22.14 58.05 22.13 58 22.15 57.97 22.26 57.97 28.64 57.94 28.69 57.83 28.72 51.6 28.72 51.18 28.72 51.07 28.75 51.04 28.8 51.04 36.25 51.06 36.3 51.17 36.33 57.89 36.33 57.94 36.35 57.96 36.47 57.97 42.74 57.99 42.79 58.02 42.82 61.46 42.82 64.34 42.82 64.85 42.84 65.1 42.82 65.51 42.83 65.92 42.82 66.03 42.79 66.05 42.68 66.06 42.27 66.07 36.92 66.09 36.39 66.11 36.35 66.22 36.32 77.5 36.32 77.54 36.35 77.58 36.46 77.57 37.77 77.55 38.52 77.52 39.19 77.38 40.64 77.14 41.98 76.82 43.1 76.43 44.08 75.95 44.97 75.42 45.73 74.79 46.4 74.02 47.01 73.17 47.53 72.27 47.93 71.29 48.24 70.22 48.48 69.02 48.65 67.68 48.74 66.94 48.76 66.59 48.77 66.35 48.75 66.1 48.75 65.35 48.74 64.22 48.64 63.32 48.54 62 48.28 60.77 47.93 60.73 47.95 60.72 48.56 60.72 54.53 60.75 54.57 61.04 54.63 62.25 54.79 63.43 54.91 64.96 55 65.99 55.01 67.15 55.01 67.66 54.99 68.19 54.98 68.8 54.95 69.62 54.9 71.08 54.76 72.54 54.55 74.04 54.24 75.45 53.85 76.25 53.57 77.64 53 79.13 52.2 79.86 51.7 80.67 51.06 81.24 50.55 81.67 50.11 82.21 49.5 82.77 48.76 83.22 48.05 83.58 47.41 84.02 46.55 84.35 45.73 84.68 44.76 84.96 43.81 85.17 42.87 85.39 41.65 85.56 40.1 85.66 38.45 85.66 36.39 85.69 36.34 85.81 36.32 92.01 36.31"/><polygon class="cls-2" points="119.13 31.23 119.07 31.24 119.04 31.29 119.03 33.48 119.01 34.29 118.91 35.35 118.76 36.35 118.5 37.46 118.23 38.34 117.83 39.32 117.36 40.21 117.03 40.76 116.49 41.51 116 42.1 115.67 42.42 115.45 42.63 114.69 43.31 113.59 44.09 112.14 44.88 110.76 45.44 109.33 45.89 107.92 46.22 106.62 46.43 105.32 46.58 104.03 46.65 103.55 46.67 101.65 46.67 100.86 46.64 100.66 46.66 99.92 46.61 98.84 46.55 98.11 46.49 96.64 46.31 95.4 46.1 93.98 45.8 93.45 45.67 93.41 45.68 93.39 45.8 93.39 53.48 93.39 53.88 93.48 53.93 95.1 54.33 96.76 54.62 98.23 54.81 99.8 54.95 101.7 55.05 102.1 55.06 102.83 55.05 103.34 55.04 103.88 55.03 104.4 55 105.23 54.95 106.17 54.86 107.77 54.66 108.63 54.51 109.84 54.27 110.77 54.04 111.73 53.78 112.82 53.42 113.61 53.13 114.73 52.66 115.61 52.24 116.46 51.79 117.41 51.22 118.3 50.61 119.09 50.01 119.94 49.28 120.81 48.42 121.59 47.54 122.3 46.6 122.97 45.61 123.6 44.51 124.17 43.35 124.77 41.86 125.12 40.84 125.51 39.36 125.79 37.91 126.04 36.14 126.16 34.68 126.18 34.07 126.21 33.37 126.2 31.43 126.18 31.39 126.08 31.34 119.13 31.23"/><polygon class="cls-3" points="119.13 31.23 119.07 31.24 119.04 31.29 119.03 33.48 119.01 34.29 118.91 35.35 118.76 36.35 118.5 37.46 118.23 38.34 117.83 39.32 117.36 40.21 117.03 40.76 116.49 41.51 116 42.1 115.67 42.42 115.45 42.63 114.69 43.31 113.59 44.09 112.14 44.88 110.76 45.44 109.33 45.89 107.92 46.22 106.62 46.43 105.32 46.58 104.03 46.65 103.55 46.67 101.65 46.67 100.86 46.64 100.66 46.66 99.92 46.61 98.84 46.55 98.11 46.49 96.64 46.31 95.4 46.1 93.98 45.8 93.45 45.67 93.41 45.68 93.39 45.8 93.39 53.48 93.39 53.88 93.48 53.93 95.1 54.33 96.76 54.62 98.23 54.81 99.8 54.95 101.7 55.05 102.1 55.06 102.83 55.05 103.34 55.04 103.88 55.03 104.4 55 105.23 54.95 106.17 54.86 107.77 54.66 108.63 54.51 109.84 54.27 110.77 54.04 111.73 53.78 112.82 53.42 113.61 53.13 114.73 52.66 115.61 52.24 116.46 51.79 117.41 51.22 118.3 50.61 119.09 50.01 119.94 49.28 120.81 48.42 121.59 47.54 122.3 46.6 122.97 45.61 123.6 44.51 124.17 43.35 124.77 41.86 125.12 40.84 125.51 39.36 125.79 37.91 126.04 36.14 126.16 34.68 126.18 34.07 126.21 33.37 126.2 31.43 126.18 31.39 126.08 31.34 119.13 31.23"/><polygon class="cls-2" points="218.91 31.72 218.88 31.54 218.83 31.52 218.41 31.44 217.33 31.29 215.21 31.1 214.4 31.06 213.6 31.01 212.79 30.98 212.25 30.97 208.89 30.97 205.62 30.98 202.34 30.98 202.22 31.01 202.2 31.06 202.19 37.74 202.22 37.78 202.28 37.8 204.28 37.79 207.72 37.8 207.96 37.78 208.16 37.8 209 37.79 212.41 37.8 213.07 37.82 214.74 37.89 216.01 37.98 217.07 38.08 218.41 38.25 218.77 38.31 218.88 38.29 218.9 38.24 218.91 31.72"/><polygon class="cls-3" points="218.91 31.72 218.88 31.54 218.83 31.52 218.41 31.44 217.33 31.29 215.21 31.1 214.4 31.06 213.6 31.01 212.79 30.98 212.25 30.97 208.89 30.97 205.62 30.98 202.34 30.98 202.22 31.01 202.2 31.06 202.19 37.74 202.22 37.78 202.28 37.8 204.28 37.79 207.72 37.8 207.96 37.78 208.16 37.8 209 37.79 212.41 37.8 213.07 37.82 214.74 37.89 216.01 37.98 217.07 38.08 218.41 38.25 218.77 38.31 218.88 38.29 218.9 38.24 218.91 31.72"/><polygon class="cls-2" points="227.75 30.48 227.71 30.51 227.68 30.62 227.68 31.99 227.64 32.92 227.61 33.46 227.48 34.69 227.31 35.68 227.05 36.71 226.73 37.69 226.36 38.55 226.01 39.27 225.48 40.12 225.03 40.76 224.55 41.35 224.02 41.9 223.29 42.54 222.56 43.11 221.9 43.53 220.9 44.11 219.6 44.7 218.15 45.2 216.83 45.54 215.43 45.8 214.47 45.92 213.35 46.02 212.26 46.05 211.86 46.07 211.45 46.06 210.73 46.06 210.42 46.06 209.75 46.03 208.99 46.01 208.45 45.99 207.17 45.9 205.57 45.7 204.28 45.47 203.26 45.27 202.39 45.07 202.36 45.1 202.35 45.36 202.37 53.88 202.39 53.93 202.49 53.97 203.94 54.32 205.74 54.61 207.56 54.81 208.85 54.88 209.18 54.89 210.73 54.92 211.74 54.9 212.18 54.89 213.16 54.83 214.18 54.73 215.5 54.53 216.93 54.23 218.36 53.86 219.56 53.47 220.57 53.1 221.53 52.69 222.47 52.26 223.56 51.69 224.7 51.02 226.12 50.06 227.09 49.3 228.01 48.49 228.79 47.76 229.62 46.86 230.35 45.99 231.2 44.83 231.76 43.95 232.37 42.9 232.98 41.71 233.48 40.54 233.92 39.33 234.32 37.93 234.64 36.53 234.89 35.11 235.04 33.76 235.16 31.97 235.15 30.67 235.12 30.63 235 30.61 227.75 30.48"/><polygon class="cls-3" points="227.75 30.48 227.71 30.51 227.68 30.62 227.68 31.99 227.64 32.92 227.61 33.46 227.48 34.69 227.31 35.68 227.05 36.71 226.73 37.69 226.36 38.55 226.01 39.27 225.48 40.12 225.03 40.76 224.55 41.35 224.02 41.9 223.29 42.54 222.56 43.11 221.9 43.53 220.9 44.11 219.6 44.7 218.15 45.2 216.83 45.54 215.43 45.8 214.47 45.92 213.35 46.02 212.26 46.05 211.86 46.07 211.45 46.06 210.73 46.06 210.42 46.06 209.75 46.03 208.99 46.01 208.45 45.99 207.17 45.9 205.57 45.7 204.28 45.47 203.26 45.27 202.39 45.07 202.36 45.1 202.35 45.36 202.37 53.88 202.39 53.93 202.49 53.97 203.94 54.32 205.74 54.61 207.56 54.81 208.85 54.88 209.18 54.89 210.73 54.92 211.74 54.9 212.18 54.89 213.16 54.83 214.18 54.73 215.5 54.53 216.93 54.23 218.36 53.86 219.56 53.47 220.57 53.1 221.53 52.69 222.47 52.26 223.56 51.69 224.7 51.02 226.12 50.06 227.09 49.3 228.01 48.49 228.79 47.76 229.62 46.86 230.35 45.99 231.2 44.83 231.76 43.95 232.37 42.9 232.98 41.71 233.48 40.54 233.92 39.33 234.32 37.93 234.64 36.53 234.89 35.11 235.04 33.76 235.16 31.97 235.15 30.67 235.12 30.63 235 30.61 227.75 30.48"/><polygon class="cls-2" points="160.8 54.21 160.83 54.32 160.87 54.35 161.15 54.35 161.43 54.35 162.5 54.26 163.32 54.14 164.27 53.94 165.86 53.44 167.2 52.83 168.51 52.04 169.6 51.19 170.64 50.21 171.49 49.26 172.23 48.27 172.91 47.21 173.41 46.28 173.89 45.24 174.19 44.46 174.46 43.58 174.62 42.88 174.68 42.36 174.7 40.27 174.69 21.82 174.66 21.78 174.54 21.76 166.07 21.76 165.96 21.79 165.93 21.84 165.91 22.18 165.82 38.48 165.79 39.64 165.73 41.16 165.59 42.26 165.41 43.23 165.2 44.02 164.95 44.64 164.67 45.15 164.36 45.57 163.96 45.96 163.57 46.21 163.22 46.37 162.72 46.53 161.83 46.64 160.95 46.67 160.83 46.7 160.81 46.75 160.8 54.21"/><polygon class="cls-3" points="160.8 54.21 160.83 54.32 160.87 54.35 161.15 54.35 161.43 54.35 162.5 54.26 163.32 54.14 164.27 53.94 165.86 53.44 167.2 52.83 168.51 52.04 169.6 51.19 170.64 50.21 171.49 49.26 172.23 48.27 172.91 47.21 173.41 46.28 173.89 45.24 174.19 44.46 174.46 43.58 174.62 42.88 174.68 42.36 174.7 40.27 174.69 21.82 174.66 21.78 174.54 21.76 166.07 21.76 165.96 21.79 165.93 21.84 165.91 22.18 165.82 38.48 165.79 39.64 165.73 41.16 165.59 42.26 165.41 43.23 165.2 44.02 164.95 44.64 164.67 45.15 164.36 45.57 163.96 45.96 163.57 46.21 163.22 46.37 162.72 46.53 161.83 46.64 160.95 46.67 160.83 46.7 160.81 46.75 160.8 54.21"/><polygon class="cls-2" points="153.79 31.21 153.68 31.23 153.66 31.28 153.65 33.2 153.64 33.82 153.57 34.96 153.42 36.1 153.2 37.11 152.98 37.9 152.63 38.85 152.23 39.74 151.81 40.48 151.32 41.22 150.78 41.9 150.43 42.27 149.81 42.87 149.09 43.46 148.33 43.99 146.9 44.8 145.64 45.34 144.23 45.81 142.84 46.15 141.43 46.4 139.8 46.58 139.33 46.62 138.15 46.67 137.82 46.67 135.69 46.65 135.15 46.64 134.68 46.61 134.14 46.59 133.14 46.52 132.02 46.4 130.76 46.23 129.67 46.02 128.2 45.7 128.02 45.68 127.99 45.71 127.98 53.61 127.99 53.87 128.03 53.91 129.71 54.32 131.42 54.62 133.35 54.86 135.09 54.98 136.09 55.04 137.6 55.05 138.13 55.03 138.96 55.01 140.17 54.92 141.99 54.71 143.71 54.41 145.06 54.11 146.42 53.73 147.5 53.37 148.55 52.97 149.7 52.47 150.57 52.03 151.54 51.48 152.54 50.82 153.5 50.12 154.32 49.43 155.17 48.62 155.9 47.84 156.7 46.84 157.38 45.86 158.03 44.78 158.59 43.68 159.16 42.37 159.6 41.16 160 39.76 160.33 38.22 160.5 37.23 160.68 35.82 160.78 34.43 160.82 33.69 160.82 31.41 160.8 31.3 160.75 31.27 153.79 31.21"/><polygon class="cls-3" points="153.79 31.21 153.68 31.23 153.66 31.28 153.65 33.2 153.64 33.82 153.57 34.96 153.42 36.1 153.2 37.11 152.98 37.9 152.63 38.85 152.23 39.74 151.81 40.48 151.32 41.22 150.78 41.9 150.43 42.27 149.81 42.87 149.09 43.46 148.33 43.99 146.9 44.8 145.64 45.34 144.23 45.81 142.84 46.15 141.43 46.4 139.8 46.58 139.33 46.62 138.15 46.67 137.82 46.67 135.69 46.65 135.15 46.64 134.68 46.61 134.14 46.59 133.14 46.52 132.02 46.4 130.76 46.23 129.67 46.02 128.2 45.7 128.02 45.68 127.99 45.71 127.98 53.61 127.99 53.87 128.03 53.91 129.71 54.32 131.42 54.62 133.35 54.86 135.09 54.98 136.09 55.04 137.6 55.05 138.13 55.03 138.96 55.01 140.17 54.92 141.99 54.71 143.71 54.41 145.06 54.11 146.42 53.73 147.5 53.37 148.55 52.97 149.7 52.47 150.57 52.03 151.54 51.48 152.54 50.82 153.5 50.12 154.32 49.43 155.17 48.62 155.9 47.84 156.7 46.84 157.38 45.86 158.03 44.78 158.59 43.68 159.16 42.37 159.6 41.16 160 39.76 160.33 38.22 160.5 37.23 160.68 35.82 160.78 34.43 160.82 33.69 160.82 31.41 160.8 31.3 160.75 31.27 153.79 31.21"/><polygon class="cls-2" points="193.15 30.39 193.06 30.43 193.04 30.48 193.04 33.02 193.02 33.35 192.97 34.16 192.72 35.63 192.58 36.14 192.32 36.89 192.02 37.53 191.73 38.04 191.33 38.63 190.74 39.35 189.9 40.17 188.66 41.17 187.94 41.68 187.34 42.07 187.19 42.15 187.15 42.13 187.13 42.09 187.15 41.89 187.13 21.9 187.11 21.79 187.06 21.77 178.29 21.79 178.25 21.82 178.23 21.87 178.2 54.78 178.23 54.89 178.28 54.91 178.81 54.89 179.23 54.89 180.11 54.84 181.34 54.7 182.28 54.55 183.36 54.34 184.51 54.04 185.71 53.66 186.76 53.26 187.67 52.87 188.74 52.35 189.9 51.71 191.01 51.01 192.1 50.22 193.17 49.35 193.93 48.66 194.65 47.95 195.27 47.28 196.17 46.22 197.08 44.97 197.7 44 198.15 43.22 198.79 41.99 199.08 41.34 199.5 40.25 199.8 39.33 199.99 38.59 200.25 37.47 200.44 36.22 200.55 34.82 200.56 33.74 200.55 30.45 200.52 30.41 200.47 30.39 193.15 30.39"/><polygon class="cls-3" points="193.15 30.39 193.06 30.43 193.04 30.48 193.04 33.02 193.02 33.35 192.97 34.16 192.72 35.63 192.58 36.14 192.32 36.89 192.02 37.53 191.73 38.04 191.33 38.63 190.74 39.35 189.9 40.17 188.66 41.17 187.94 41.68 187.34 42.07 187.19 42.15 187.15 42.13 187.13 42.09 187.15 41.89 187.13 21.9 187.11 21.79 187.06 21.77 178.29 21.79 178.25 21.82 178.23 21.87 178.2 54.78 178.23 54.89 178.28 54.91 178.81 54.89 179.23 54.89 180.11 54.84 181.34 54.7 182.28 54.55 183.36 54.34 184.51 54.04 185.71 53.66 186.76 53.26 187.67 52.87 188.74 52.35 189.9 51.71 191.01 51.01 192.1 50.22 193.17 49.35 193.93 48.66 194.65 47.95 195.27 47.28 196.17 46.22 197.08 44.97 197.7 44 198.15 43.22 198.79 41.99 199.08 41.34 199.5 40.25 199.8 39.33 199.99 38.59 200.25 37.47 200.44 36.22 200.55 34.82 200.56 33.74 200.55 30.45 200.52 30.41 200.47 30.39 193.15 30.39"/><rect class="cls-2" x="2.66" y="33.58" width="40.87" height="10.45"/><rect class="cls-3" x="2.66" y="33.58" width="40.87" height="10.45"/><polygon class="cls-2" points="43.52 20.94 2.66 20.95 2.66 31.42 43.52 31.39 43.52 20.94"/><polygon class="cls-3" points="43.52 20.94 2.66 20.95 2.66 31.42 43.52 31.39 43.52 20.94"/><rect class="cls-2" x="2.66" y="46.22" width="40.87" height="10.11"/><polygon class="cls-1" points="162.1 29.2 162.21 29.17 162.23 29.12 162.23 28.57 162.22 21.76 162.21 21.56 162.17 21.53 162.04 21.53 158.01 21.51 157.9 21.54 157.87 21.58 157.86 28.91 157.87 29.17 157.91 29.2 162.1 29.2"/><polygon class="cls-1" points="151.47 28.97 151.48 29.16 151.51 29.19 155.76 29.2 155.8 29.17 155.82 29.12 155.83 21.75 155.81 21.56 155.77 21.53 155.71 21.52 151.52 21.53 151.48 21.55 151.46 21.6 151.47 28.97"/><polygon class="cls-1" points="202.19 27.92 202.22 28.04 202.26 28.06 204.67 28.05 208.04 28.04 211.49 28.04 212.23 28.05 212.82 28.06 213.27 28.07 213.8 28.09 215.97 28.22 217.73 28.41 218.42 28.51 218.69 28.55 218.87 28.57 218.9 28.53 218.9 21.93 218.88 21.81 218.84 21.78 217.98 21.63 216.62 21.48 214.88 21.34 213.99 21.29 212.86 21.25 212.25 21.23 211.85 21.21 211.31 21.23 209.11 21.24 205.77 21.25 202.33 21.25 202.22 21.27 202.2 21.32 202.19 21.64 202.19 27.92"/><polygon class="cls-1" points="113.71 22.53 113.69 22.27 113.65 22.24 113.04 22.13 111.39 21.98 109.51 21.85 108.83 21.82 107.82 21.77 106.89 21.74 106.49 21.72 105.8 21.71 105.33 21.69 104.85 21.67 101.6 21.67 101.18 21.65 100.65 21.67 97.97 21.68 94.53 21.69 94.34 21.7 94.31 21.74 94.29 21.87 94.3 30.34 94.33 30.38 94.67 30.4 98.03 30.41 101.39 30.4 104.82 30.41 105.36 30.42 106.35 30.45 106.76 30.46 107.29 30.49 108.23 30.52 109.15 30.56 109.8 30.6 110.67 30.65 112.47 30.79 113.24 30.89 113.58 30.95 113.68 30.94 113.7 30.89 113.71 30.67 113.71 22.53"/><polygon class="cls-1" points="137.83 38.02 138.5 38.04 139.25 38.06 140.13 38.1 140.79 38.14 141.39 38.18 142.92 38.3 144.32 38.49 144.57 38.54 144.74 38.55 144.78 38.51 144.79 31.59 144.76 31.55 144.4 31.48 143.07 31.29 141.08 31.12 139.79 31.05 139.12 31.01 138.07 30.99 128.15 31 128.12 31.03 128.1 31.09 128.1 37.98 128.2 38.03 137.83 38.02"/><polygon class="cls-1" points="128.15 21.55 128.12 21.58 128.1 22.09 128.1 28.27 128.11 28.53 128.15 28.56 137.88 28.56 138.48 28.57 139.65 28.62 141.06 28.69 142.79 28.83 144.32 29.03 144.63 29.08 144.74 29.08 144.78 29.04 144.79 22.13 144.75 22.09 144.02 21.96 142.4 21.77 140.93 21.66 139.58 21.57 139.18 21.56 138.24 21.54 128.15 21.55"/><polygon class="cls-1" points="92.01 36.31 92.05 36.29 92.08 36.18 92.07 28.77 92.04 28.73 91.78 28.72 85.75 28.71 85.7 28.69 85.66 28.65 85.65 22.19 85.63 22.15 85.54 22.12 77.64 22.13 77.59 22.16 77.57 22.27 77.57 28.61 77.55 28.66 77.51 28.69 66.33 28.71 66.12 28.69 66.08 28.66 66.07 28.4 66.08 22.5 66.08 22.23 66.06 22.17 66.03 22.14 58.05 22.13 58 22.15 57.97 22.26 57.97 28.64 57.94 28.69 57.83 28.72 51.6 28.72 51.18 28.72 51.07 28.75 51.04 28.8 51.04 36.25 51.06 36.3 51.17 36.33 57.89 36.33 57.94 36.35 57.96 36.47 57.97 42.74 57.99 42.79 58.02 42.82 61.46 42.82 64.34 42.82 64.85 42.84 65.1 42.82 65.51 42.83 65.92 42.82 66.03 42.79 66.05 42.68 66.06 42.27 66.07 36.92 66.09 36.39 66.11 36.35 66.22 36.32 77.5 36.32 77.54 36.35 77.58 36.46 77.57 37.77 77.55 38.52 77.52 39.19 77.38 40.64 77.14 41.98 76.82 43.1 76.43 44.08 75.95 44.97 75.42 45.73 74.79 46.4 74.02 47.01 73.17 47.53 72.27 47.93 71.29 48.24 70.22 48.48 69.02 48.65 67.68 48.74 66.94 48.76 66.59 48.77 66.35 48.75 66.1 48.75 65.35 48.74 64.22 48.64 63.32 48.54 62 48.28 60.77 47.93 60.73 47.95 60.72 48.56 60.72 54.53 60.75 54.57 61.04 54.63 62.25 54.79 63.43 54.91 64.96 55 65.99 55.01 67.15 55.01 67.66 54.99 68.19 54.98 68.8 54.95 69.62 54.9 71.08 54.76 72.54 54.55 74.04 54.24 75.45 53.85 76.25 53.57 77.64 53 79.13 52.2 79.86 51.7 80.67 51.06 81.24 50.55 81.67 50.11 82.21 49.5 82.77 48.76 83.22 48.05 83.58 47.41 84.02 46.55 84.35 45.73 84.68 44.76 84.96 43.81 85.17 42.87 85.39 41.65 85.56 40.1 85.66 38.45 85.66 36.39 85.69 36.34 85.81 36.32 92.01 36.31"/><polygon class="cls-1" points="119.13 31.23 119.07 31.24 119.04 31.29 119.03 33.48 119.01 34.29 118.91 35.35 118.76 36.35 118.5 37.46 118.23 38.34 117.83 39.32 117.36 40.21 117.03 40.76 116.49 41.51 116 42.1 115.67 42.42 115.45 42.63 114.69 43.31 113.59 44.09 112.14 44.88 110.76 45.44 109.33 45.89 107.92 46.22 106.62 46.43 105.32 46.58 104.03 46.65 103.55 46.67 101.65 46.67 100.86 46.64 100.66 46.66 99.92 46.61 98.84 46.55 98.11 46.49 96.64 46.31 95.4 46.1 93.98 45.8 93.45 45.67 93.41 45.68 93.39 45.8 93.39 53.48 93.39 53.88 93.48 53.93 95.1 54.33 96.76 54.62 98.23 54.81 99.8 54.95 101.7 55.05 102.1 55.06 102.83 55.05 103.34 55.04 103.88 55.03 104.4 55 105.23 54.95 106.17 54.86 107.77 54.66 108.63 54.51 109.84 54.27 110.77 54.04 111.73 53.78 112.82 53.42 113.61 53.13 114.73 52.66 115.61 52.24 116.46 51.79 117.41 51.22 118.3 50.61 119.09 50.01 119.94 49.28 120.81 48.42 121.59 47.54 122.3 46.6 122.97 45.61 123.6 44.51 124.17 43.35 124.77 41.86 125.12 40.84 125.51 39.36 125.79 37.91 126.04 36.14 126.16 34.68 126.18 34.07 126.21 33.37 126.2 31.43 126.18 31.39 126.08 31.34 119.13 31.23"/><polygon class="cls-1" points="218.91 31.72 218.88 31.54 218.83 31.52 218.41 31.44 217.33 31.29 215.21 31.1 214.4 31.06 213.6 31.01 212.79 30.98 212.25 30.97 208.89 30.97 205.62 30.98 202.34 30.98 202.22 31.01 202.2 31.06 202.19 37.74 202.22 37.78 202.28 37.8 204.28 37.79 207.72 37.8 207.96 37.78 208.16 37.8 209 37.79 212.41 37.8 213.07 37.82 214.74 37.89 216.01 37.98 217.07 38.08 218.41 38.25 218.77 38.31 218.88 38.29 218.9 38.24 218.91 31.72"/><polygon class="cls-1" points="227.75 30.48 227.71 30.51 227.68 30.62 227.68 31.99 227.64 32.92 227.61 33.46 227.48 34.69 227.31 35.68 227.05 36.71 226.73 37.69 226.36 38.55 226.01 39.27 225.48 40.12 225.03 40.76 224.55 41.35 224.02 41.9 223.29 42.54 222.56 43.11 221.9 43.53 220.9 44.11 219.6 44.7 218.15 45.2 216.83 45.54 215.43 45.8 214.47 45.92 213.35 46.02 212.26 46.05 211.86 46.07 211.45 46.06 210.73 46.06 210.42 46.06 209.75 46.03 208.99 46.01 208.45 45.99 207.17 45.9 205.57 45.7 204.28 45.47 203.26 45.27 202.39 45.07 202.36 45.1 202.35 45.36 202.37 53.88 202.39 53.93 202.49 53.97 203.94 54.32 205.74 54.61 207.56 54.81 208.85 54.88 209.18 54.89 210.73 54.92 211.74 54.9 212.18 54.89 213.16 54.83 214.18 54.73 215.5 54.53 216.93 54.23 218.36 53.86 219.56 53.47 220.57 53.1 221.53 52.69 222.47 52.26 223.56 51.69 224.7 51.02 226.12 50.06 227.09 49.3 228.01 48.49 228.79 47.76 229.62 46.86 230.35 45.99 231.2 44.83 231.76 43.95 232.37 42.9 232.98 41.71 233.48 40.54 233.92 39.33 234.32 37.93 234.64 36.53 234.89 35.11 235.04 33.76 235.16 31.97 235.15 30.67 235.12 30.63 235 30.61 227.75 30.48"/><polygon class="cls-1" points="160.8 54.21 160.83 54.32 160.87 54.35 161.15 54.35 161.43 54.35 162.5 54.26 163.32 54.14 164.27 53.94 165.86 53.44 167.2 52.83 168.51 52.04 169.6 51.19 170.64 50.21 171.49 49.26 172.23 48.27 172.91 47.21 173.41 46.28 173.89 45.24 174.19 44.46 174.46 43.58 174.62 42.88 174.68 42.36 174.7 40.27 174.69 21.82 174.66 21.78 174.54 21.76 166.07 21.76 165.96 21.79 165.93 21.84 165.91 22.18 165.82 38.48 165.79 39.64 165.73 41.16 165.59 42.26 165.41 43.23 165.2 44.02 164.95 44.64 164.67 45.15 164.36 45.57 163.96 45.96 163.57 46.21 163.22 46.37 162.72 46.53 161.83 46.64 160.95 46.67 160.83 46.7 160.81 46.75 160.8 54.21"/><polygon class="cls-1" points="153.79 31.21 153.68 31.23 153.66 31.28 153.65 33.2 153.64 33.82 153.57 34.96 153.42 36.1 153.2 37.11 152.98 37.9 152.63 38.85 152.23 39.74 151.81 40.48 151.32 41.22 150.78 41.9 150.43 42.27 149.81 42.87 149.09 43.46 148.33 43.99 146.9 44.8 145.64 45.34 144.23 45.81 142.84 46.15 141.43 46.4 139.8 46.58 139.33 46.62 138.15 46.67 137.82 46.67 135.69 46.65 135.15 46.64 134.68 46.61 134.14 46.59 133.14 46.52 132.02 46.4 130.76 46.23 129.67 46.02 128.2 45.7 128.02 45.68 127.99 45.71 127.98 53.61 127.99 53.87 128.03 53.91 129.71 54.32 131.42 54.62 133.35 54.86 135.09 54.98 136.09 55.04 137.6 55.05 138.13 55.03 138.96 55.01 140.17 54.92 141.99 54.71 143.71 54.41 145.06 54.11 146.42 53.73 147.5 53.37 148.55 52.97 149.7 52.47 150.57 52.03 151.54 51.48 152.54 50.82 153.5 50.12 154.32 49.43 155.17 48.62 155.9 47.84 156.7 46.84 157.38 45.86 158.03 44.78 158.59 43.68 159.16 42.37 159.6 41.16 160 39.76 160.33 38.22 160.5 37.23 160.68 35.82 160.78 34.43 160.82 33.69 160.82 31.41 160.8 31.3 160.75 31.27 153.79 31.21"/><polygon class="cls-1" points="193.15 30.39 193.06 30.43 193.04 30.48 193.04 33.02 193.02 33.35 192.97 34.16 192.72 35.63 192.58 36.14 192.32 36.89 192.02 37.53 191.73 38.04 191.33 38.63 190.74 39.35 189.9 40.17 188.66 41.17 187.94 41.68 187.34 42.07 187.19 42.15 187.15 42.13 187.13 42.09 187.15 41.89 187.13 21.9 187.11 21.79 187.06 21.77 178.29 21.79 178.25 21.82 178.23 21.87 178.2 54.78 178.23 54.89 178.28 54.91 178.81 54.89 179.23 54.89 180.11 54.84 181.34 54.7 182.28 54.55 183.36 54.34 184.51 54.04 185.71 53.66 186.76 53.26 187.67 52.87 188.74 52.35 189.9 51.71 191.01 51.01 192.1 50.22 193.17 49.35 193.93 48.66 194.65 47.95 195.27 47.28 196.17 46.22 197.08 44.97 197.7 44 198.15 43.22 198.79 41.99 199.08 41.34 199.5 40.25 199.8 39.33 199.99 38.59 200.25 37.47 200.44 36.22 200.55 34.82 200.56 33.74 200.55 30.45 200.52 30.41 200.47 30.39 193.15 30.39"/><rect class="cls-2" x="2.66" y="33.58" width="40.87" height="10.45"/><polygon class="cls-2" points="43.52 20.94 2.66 20.95 2.66 31.42 43.52 31.39 43.52 20.94"/></g></svg>