<?xml version="1.0" encoding="UTF-8" ?>
<!DOCTYPE svg PUBLIC "-//W3C//DTD SVG 1.1//EN" "http://www.w3.org/Graphics/SVG/1.1/DTD/svg11.dtd">
<svg width="167pt" height="167pt" viewBox="0 0 167 167" version="1.1" xmlns="http://www.w3.org/2000/svg">
<g id="a_fd002bff">
<path fill="#fd002b" opacity="1.00" d=" M 50.76 6.73 C 68.75 -1.07 89.52 -2.02 108.24 3.73 C 139.64 13.08 164.20 42.82 166.11 75.70 C 166.28 80.79 166.30 85.88 166.08 90.96 C 164.97 108.78 156.90 125.79 145.07 139.01 C 129.65 155.94 107.00 166.24 84.03 166.02 C 68.13 166.31 52.26 161.62 38.86 153.10 C 16.85 139.13 1.80 114.15 0.95 87.98 C 0.97 84.82 1.05 81.66 0.91 78.51 C 1.00 76.08 1.13 73.65 1.21 71.21 C 1.37 70.62 1.69 69.45 1.86 68.86 C 6.15 41.61 25.43 17.47 50.76 6.73 M 32.99 41.05 C 28.78 43.06 26.90 48.34 28.40 52.65 C 30.28 57.08 35.74 57.33 39.22 59.89 C 40.75 60.94 40.37 63.77 38.67 64.46 C 34.48 66.59 29.70 65.11 25.44 63.95 C 24.85 66.11 24.08 68.26 24.09 70.53 C 30.56 72.22 37.90 73.13 44.03 69.81 C 48.32 67.64 50.04 61.91 48.44 57.54 C 46.67 53.42 41.88 52.58 38.36 50.57 C 36.84 50.02 37.11 48.29 36.85 47.02 C 40.92 45.08 45.68 45.62 49.82 47.10 C 50.57 44.87 51.29 42.63 51.93 40.37 C 45.73 39.00 38.91 38.19 32.99 41.05 M 113.64 42.57 C 112.23 43.91 112.33 46.14 111.76 47.89 C 110.25 47.86 108.75 47.83 107.24 47.80 C 107.01 49.84 106.67 51.87 106.20 53.86 C 107.61 53.85 109.03 53.84 110.44 53.83 C 109.76 58.72 107.36 63.83 109.30 68.71 C 111.77 72.94 117.11 72.00 121.20 71.85 C 121.57 69.90 121.87 67.94 122.14 65.97 C 120.44 66.50 117.67 67.31 116.96 64.97 C 116.85 61.18 118.26 57.52 119.04 53.84 C 120.96 53.85 122.89 53.86 124.81 53.89 C 125.12 51.88 125.48 49.88 125.85 47.89 C 123.95 47.85 122.05 47.82 120.16 47.80 C 120.85 45.27 121.46 42.72 122.05 40.17 C 119.27 41.06 116.41 41.68 113.64 42.57 M 57.15 48.38 C 55.92 50.18 56.26 52.57 55.83 54.62 C 59.01 53.32 62.49 52.34 65.93 53.14 C 66.99 53.92 68.58 54.94 67.80 56.48 C 62.90 56.68 57.27 55.80 53.22 59.23 C 49.47 61.91 49.47 68.27 53.34 70.84 C 57.30 72.96 62.88 72.51 65.87 68.90 C 65.97 69.50 66.16 70.70 66.26 71.30 C 68.44 71.24 70.64 71.21 72.83 71.19 C 73.56 66.09 75.09 61.15 75.80 56.05 C 76.28 52.70 74.20 49.22 71.00 48.12 C 66.53 46.50 61.61 47.06 57.15 48.38 M 88.47 50.87 C 88.63 50.10 88.95 48.57 89.11 47.80 C 86.59 48.05 83.77 47.27 81.44 48.22 C 80.34 55.98 77.87 63.52 77.11 71.31 C 79.65 71.20 82.19 71.19 84.72 71.32 C 86.84 66.74 86.40 61.36 88.73 56.86 C 90.05 54.13 95.00 52.84 96.36 56.14 C 96.31 61.20 93.69 66.21 94.03 71.14 C 96.68 71.32 99.34 71.33 101.99 71.19 C 103.27 66.22 104.31 61.16 104.98 56.07 C 105.52 51.86 102.53 47.27 98.06 47.14 C 94.41 46.73 91.31 48.89 88.47 50.87 M 130.13 48.27 C 129.69 50.37 129.27 52.49 128.87 54.60 C 132.20 53.37 136.06 52.02 139.52 53.48 C 141.01 53.88 140.94 55.43 141.04 56.68 C 136.31 56.39 131.10 56.05 126.95 58.78 C 122.49 61.42 122.48 69.59 127.63 71.45 C 131.37 72.67 136.12 72.28 138.78 69.06 C 138.90 69.57 139.15 70.59 139.28 71.10 C 141.50 71.26 143.80 71.48 146.00 70.97 C 146.86 67.34 147.40 63.63 148.31 60.00 C 149.21 56.49 149.72 52.05 146.52 49.52 C 141.77 46.01 135.50 47.17 130.13 48.27 M 82.48 73.15 C 80.15 84.47 77.66 95.78 74.89 107.00 C 77.55 107.00 80.22 106.99 82.88 107.01 C 82.98 106.16 83.19 104.48 83.29 103.64 C 84.67 104.58 85.93 105.69 87.31 106.64 C 91.40 108.48 96.44 107.54 99.87 104.76 C 104.17 100.57 105.05 93.85 103.62 88.25 C 101.42 81.81 92.36 81.45 88.01 85.85 C 89.25 81.62 90.03 77.28 91.07 73.00 C 88.21 72.99 85.34 73.00 82.48 73.15 M 137.25 73.00 C 135.00 84.35 132.76 95.70 130.27 107.00 C 133.11 106.99 135.94 107.00 138.78 106.99 C 141.08 95.64 143.45 84.30 146.02 73.01 C 143.09 73.02 140.17 73.01 137.25 73.00 M 22.88 75.11 C 20.51 85.70 18.75 96.43 16.13 106.96 C 16.47 106.96 17.16 106.97 17.50 106.98 C 18.44 110.17 22.46 108.84 24.91 108.87 C 27.03 108.82 26.94 106.19 27.76 104.79 L 28.49 103.87 C 28.35 104.56 28.08 105.95 27.95 106.65 C 33.10 107.43 38.60 108.41 43.64 106.57 C 47.36 105.22 49.84 100.98 48.75 97.12 C 46.97 93.14 41.89 93.37 38.90 90.81 C 39.01 90.44 39.23 89.70 39.34 89.33 C 42.49 87.77 46.05 88.86 49.15 89.99 C 49.83 88.07 50.50 86.14 51.15 84.20 C 44.51 82.41 35.44 81.68 31.20 88.31 C 30.82 84.31 34.01 79.87 31.39 76.29 C 31.44 76.01 31.54 75.44 31.59 75.15 C 28.68 75.17 25.78 75.17 22.88 75.11 M 56.19 84.24 C 55.97 86.25 55.69 88.25 55.38 90.26 C 59.13 88.79 66.34 86.46 67.48 92.17 C 62.72 91.79 57.63 91.86 53.38 94.33 C 49.29 96.75 48.66 103.50 52.62 106.33 C 56.57 108.54 61.58 107.68 65.18 105.14 C 65.47 108.60 69.94 106.37 72.21 107.00 C 72.73 102.94 73.67 98.96 74.62 94.99 C 75.33 91.52 75.56 86.99 72.20 84.80 C 67.43 81.87 61.32 82.76 56.19 84.24 M 107.64 103.46 C 111.91 108.74 119.56 107.93 125.45 106.52 C 126.38 104.62 126.47 102.44 126.85 100.38 C 123.34 101.51 119.39 102.85 115.78 101.36 C 114.12 100.94 113.43 99.31 113.15 97.78 C 118.70 97.90 124.26 97.81 129.81 97.86 C 130.60 94.13 131.10 89.68 128.39 86.57 C 125.23 82.69 119.59 82.44 115.06 83.42 C 106.82 85.41 102.40 96.64 107.64 103.46 M 37.49 117.29 C 36.31 117.76 35.72 118.62 35.73 119.87 C 47.78 135.71 68.03 144.97 87.91 143.27 C 104.81 142.31 121.02 133.45 131.17 119.95 C 131.84 118.34 128.93 115.94 127.92 117.92 C 117.61 131.29 100.97 139.67 84.04 139.56 C 67.26 139.87 50.61 131.95 40.05 118.97 C 39.26 118.48 38.53 116.44 37.49 117.29 Z" />
<path fill="#fd002b" opacity="1.00" d=" M 30.45 81.59 C 30.47 81.48 30.52 81.27 30.54 81.16 L 30.49 81.43 L 30.45 81.59 Z" />
<path fill="#fd002b" opacity="1.00" d=" M 29.36 86.67 C 29.38 86.58 29.42 86.40 29.44 86.30 C 29.42 86.40 29.38 86.58 29.36 86.67 Z" />
<path fill="#fd002b" opacity="1.00" d=" M 90.43 89.40 C 91.61 88.98 93.09 89.04 94.07 89.90 C 98.47 93.77 93.97 102.89 88.08 100.95 C 84.19 97.79 86.22 91.24 90.43 89.40 Z" />
<path fill="#fd002b" opacity="1.00" d=" M 28.36 91.68 C 28.37 91.59 28.41 91.40 28.43 91.31 C 28.41 91.40 28.37 91.59 28.36 91.68 Z" />
<path fill="#fd002b" opacity="1.00" d=" M 27.34 96.67 C 27.36 96.58 27.40 96.39 27.42 96.30 C 27.40 96.39 27.36 96.58 27.34 96.67 Z" />
<path fill="#fd002b" opacity="1.00" d=" M 26.35 101.67 C 26.37 101.57 26.41 101.38 26.43 101.28 C 26.41 101.38 26.37 101.57 26.35 101.67 Z" />
<path fill="#fd002b" opacity="1.00" d=" M 25.09 107.01 C 25.25 106.50 25.56 105.50 25.72 104.99 C 25.76 105.46 25.82 106.40 25.86 106.86 L 25.09 107.01 Z" />
</g>
<g id="a_ffffffff">
<path fill="#ffffff" opacity="1.00" d=" M 32.99 41.05 C 38.91 38.19 45.73 39.00 51.93 40.37 C 51.29 42.63 50.57 44.87 49.82 47.10 C 45.68 45.62 40.92 45.08 36.85 47.02 C 37.11 48.29 36.84 50.02 38.36 50.57 C 41.88 52.58 46.67 53.42 48.44 57.54 C 50.04 61.91 48.32 67.64 44.03 69.81 C 37.90 73.13 30.56 72.22 24.09 70.53 C 24.08 68.26 24.85 66.11 25.44 63.95 C 29.70 65.11 34.48 66.59 38.67 64.46 C 40.37 63.77 40.75 60.94 39.22 59.89 C 35.74 57.33 30.28 57.08 28.40 52.65 C 26.90 48.34 28.78 43.06 32.99 41.05 Z" />
<path fill="#ffffff" opacity="1.00" d=" M 113.64 42.57 C 116.41 41.68 119.27 41.06 122.05 40.17 C 121.46 42.72 120.85 45.27 120.16 47.80 C 122.05 47.82 123.95 47.85 125.85 47.89 C 125.48 49.88 125.12 51.88 124.81 53.89 C 122.89 53.86 120.96 53.85 119.04 53.84 C 118.26 57.52 116.85 61.18 116.96 64.97 C 117.67 67.31 120.44 66.50 122.14 65.97 C 121.87 67.94 121.57 69.90 121.20 71.85 C 117.11 72.00 111.77 72.94 109.30 68.71 C 107.36 63.83 109.76 58.72 110.44 53.83 C 109.03 53.84 107.61 53.85 106.20 53.86 C 106.67 51.87 107.01 49.84 107.24 47.80 C 108.75 47.83 110.25 47.86 111.76 47.89 C 112.33 46.14 112.23 43.91 113.64 42.57 Z" />
<path fill="#ffffff" opacity="1.00" d=" M 57.15 48.38 C 61.61 47.06 66.53 46.50 71.00 48.12 C 74.20 49.22 76.28 52.70 75.80 56.05 C 75.09 61.15 73.56 66.09 72.83 71.19 C 70.64 71.21 68.44 71.24 66.26 71.30 C 66.16 70.70 65.97 69.50 65.87 68.90 C 62.88 72.51 57.30 72.96 53.34 70.84 C 49.47 68.27 49.47 61.91 53.22 59.23 C 57.27 55.80 62.90 56.68 67.80 56.48 C 68.58 54.94 66.99 53.92 65.93 53.14 C 62.49 52.34 59.01 53.32 55.83 54.62 C 56.26 52.57 55.92 50.18 57.15 48.38 M 58.71 62.94 C 57.27 64.34 59.36 66.21 60.89 66.17 C 64.08 66.62 66.16 63.56 67.24 60.99 C 64.39 60.97 60.70 60.45 58.71 62.94 Z" />
<path fill="#ffffff" opacity="1.00" d=" M 88.47 50.87 C 91.31 48.89 94.41 46.73 98.06 47.14 C 102.53 47.27 105.52 51.86 104.98 56.07 C 104.31 61.16 103.27 66.22 101.99 71.19 C 99.34 71.33 96.68 71.32 94.03 71.14 C 93.69 66.21 96.31 61.20 96.36 56.14 C 95.00 52.84 90.05 54.13 88.73 56.86 C 86.40 61.36 86.84 66.74 84.72 71.32 C 82.19 71.19 79.65 71.20 77.11 71.31 C 77.87 63.52 80.34 55.98 81.44 48.22 C 83.77 47.27 86.59 48.05 89.11 47.80 C 88.95 48.57 88.63 50.10 88.47 50.87 Z" />
<path fill="#ffffff" opacity="1.00" d=" M 130.13 48.27 C 135.50 47.17 141.77 46.01 146.52 49.52 C 149.72 52.05 149.21 56.49 148.31 60.00 C 147.40 63.63 146.86 67.34 146.00 70.97 C 143.80 71.48 141.50 71.26 139.28 71.10 C 139.15 70.59 138.90 69.57 138.78 69.06 C 136.12 72.28 131.37 72.67 127.63 71.45 C 122.48 69.59 122.49 61.42 126.95 58.78 C 131.10 56.05 136.31 56.39 141.04 56.68 C 140.94 55.43 141.01 53.88 139.52 53.48 C 136.06 52.02 132.20 53.37 128.87 54.60 C 129.27 52.49 129.69 50.37 130.13 48.27 M 133.06 61.98 C 131.62 62.61 130.81 64.58 132.42 65.56 C 135.58 68.19 139.40 64.00 140.31 61.00 C 137.88 60.96 135.22 60.59 133.06 61.98 Z" />
<path fill="#ffffff" opacity="1.00" d=" M 82.48 73.15 C 85.34 73.00 88.21 72.99 91.07 73.00 C 90.03 77.28 89.25 81.62 88.01 85.85 C 92.36 81.45 101.42 81.81 103.62 88.25 C 105.05 93.85 104.17 100.57 99.87 104.76 C 96.44 107.54 91.40 108.48 87.31 106.64 C 85.93 105.69 84.67 104.58 83.29 103.64 C 83.19 104.48 82.98 106.16 82.88 107.01 C 80.22 106.99 77.55 107.00 74.89 107.00 C 77.66 95.78 80.15 84.47 82.48 73.15 M 90.43 89.40 C 86.22 91.24 84.19 97.79 88.08 100.95 C 93.97 102.89 98.47 93.77 94.07 89.90 C 93.09 89.04 91.61 88.98 90.43 89.40 Z" />
<path fill="#ffffff" opacity="1.00" d=" M 137.25 73.00 C 140.17 73.01 143.09 73.02 146.02 73.01 C 143.45 84.30 141.08 95.64 138.78 106.99 C 135.94 107.00 133.11 106.99 130.27 107.00 C 132.76 95.70 135.00 84.35 137.25 73.00 Z" />
<path fill="#ffffff" opacity="1.00" d=" M 22.88 75.11 C 25.78 75.17 28.68 75.17 31.59 75.15 C 31.54 75.44 31.44 76.01 31.39 76.29 C 31.10 77.91 30.84 79.54 30.54 81.16 C 30.52 81.27 30.47 81.48 30.45 81.59 C 30.09 83.16 29.76 84.73 29.44 86.30 C 29.42 86.40 29.38 86.58 29.36 86.67 C 29.05 88.21 28.74 89.76 28.43 91.31 C 28.41 91.40 28.37 91.59 28.36 91.68 C 28.03 93.22 27.72 94.75 27.42 96.30 C 27.40 96.39 27.36 96.58 27.34 96.67 C 27.02 98.20 26.72 99.74 26.43 101.28 C 26.41 101.38 26.37 101.57 26.35 101.67 C 26.19 102.50 25.88 104.16 25.72 104.99 C 25.56 105.50 25.25 106.50 25.09 107.01 C 22.56 107.05 20.03 107.00 17.50 106.98 C 17.16 106.97 16.47 106.96 16.13 106.96 C 18.75 96.43 20.51 85.70 22.88 75.11 Z" />
<path fill="#ffffff" opacity="1.00" d=" M 31.20 88.31 C 35.44 81.68 44.51 82.41 51.15 84.20 C 50.50 86.14 49.83 88.07 49.15 89.99 C 46.05 88.86 42.49 87.77 39.34 89.33 C 39.23 89.70 39.01 90.44 38.90 90.81 C 41.89 93.37 46.97 93.14 48.75 97.12 C 49.84 100.98 47.36 105.22 43.64 106.57 C 38.60 108.41 33.10 107.43 27.95 106.65 C 28.08 105.95 28.35 104.56 28.49 103.87 C 28.79 102.81 29.08 101.74 29.37 100.68 C 32.96 101.29 38.36 103.84 40.83 100.01 C 38.78 97.08 34.24 97.58 32.14 94.62 C 30.70 92.83 31.00 90.43 31.20 88.31 Z" />
<path fill="#ffffff" opacity="1.00" d=" M 56.19 84.24 C 61.32 82.76 67.43 81.87 72.20 84.80 C 75.56 86.99 75.33 91.52 74.62 94.99 C 73.67 98.96 72.73 102.94 72.21 107.00 C 69.94 106.37 65.47 108.60 65.18 105.14 C 61.58 107.68 56.57 108.54 52.62 106.33 C 48.66 103.50 49.29 96.75 53.38 94.33 C 57.63 91.86 62.72 91.79 67.48 92.17 C 66.34 86.46 59.13 88.79 55.38 90.26 C 55.69 88.25 55.97 86.25 56.19 84.24 M 57.85 100.77 C 58.42 101.12 59.55 101.81 60.12 102.16 C 63.25 101.93 65.93 99.73 66.37 96.54 C 63.23 96.54 57.72 96.27 57.85 100.77 Z" />
<path fill="#ffffff" opacity="1.00" d=" M 107.64 103.46 C 102.40 96.64 106.82 85.41 115.06 83.42 C 119.59 82.44 125.23 82.69 128.39 86.57 C 131.10 89.68 130.60 94.13 129.81 97.86 C 124.26 97.81 118.70 97.90 113.15 97.78 C 113.43 99.31 114.12 100.94 115.78 101.36 C 119.39 102.85 123.34 101.51 126.85 100.38 C 126.47 102.44 126.38 104.62 125.45 106.52 C 119.56 107.93 111.91 108.74 107.64 103.46 M 116.22 89.17 C 115.29 90.40 114.38 91.65 113.55 92.95 C 117.00 93.04 120.44 93.01 123.88 92.99 C 123.27 91.65 122.87 90.14 121.77 89.09 C 120.01 88.08 118.05 88.90 116.22 89.17 Z" />
<path fill="#ffffff" opacity="1.00" d=" M 37.49 117.29 C 38.53 116.44 39.26 118.48 40.05 118.97 C 50.61 131.95 67.26 139.87 84.04 139.56 C 100.97 139.67 117.61 131.29 127.92 117.92 C 128.93 115.94 131.84 118.34 131.17 119.95 C 121.02 133.45 104.81 142.31 87.91 143.27 C 68.03 144.97 47.78 135.71 35.73 119.87 C 35.72 118.62 36.31 117.76 37.49 117.29 Z" />
</g>
<g id="a_fd0020ff">
<path fill="#fd0020" opacity="1.00" d=" M 58.71 62.94 C 60.70 60.45 64.39 60.97 67.24 60.99 C 66.16 63.56 64.08 66.62 60.89 66.17 C 59.36 66.21 57.27 64.34 58.71 62.94 Z" />
<path fill="#fd0020" opacity="1.00" d=" M 133.06 61.98 C 135.22 60.59 137.88 60.96 140.31 61.00 C 139.40 64.00 135.58 68.19 132.42 65.56 C 130.81 64.58 131.62 62.61 133.06 61.98 Z" />
<path fill="#fd0020" opacity="1.00" d=" M 30.54 81.16 C 30.84 79.54 31.10 77.91 31.39 76.29 C 34.01 79.87 30.82 84.31 31.20 88.31 C 31.00 90.43 30.70 92.83 32.14 94.62 C 34.24 97.58 38.78 97.08 40.83 100.01 C 38.36 103.84 32.96 101.29 29.37 100.68 C 29.08 101.74 28.79 102.81 28.49 103.87 L 27.76 104.79 C 26.94 106.19 27.03 108.82 24.91 108.87 C 22.46 108.84 18.44 110.17 17.50 106.98 C 20.03 107.00 22.56 107.05 25.09 107.01 L 25.86 106.86 C 25.82 106.40 25.76 105.46 25.72 104.99 C 25.88 104.16 26.19 102.50 26.35 101.67 C 26.37 101.57 26.41 101.38 26.43 101.28 C 26.72 99.74 27.02 98.20 27.34 96.67 C 27.36 96.58 27.40 96.39 27.42 96.30 C 27.72 94.75 28.03 93.22 28.36 91.68 C 28.37 91.59 28.41 91.40 28.43 91.31 C 28.74 89.76 29.05 88.21 29.36 86.67 C 29.38 86.58 29.42 86.40 29.44 86.30 C 29.76 84.73 30.09 83.16 30.45 81.59 L 30.49 81.43 L 30.54 81.16 Z" />
<path fill="#fd0020" opacity="1.00" d=" M 116.22 89.17 C 118.05 88.90 120.01 88.08 121.77 89.09 C 122.87 90.14 123.27 91.65 123.88 92.99 C 120.44 93.01 117.00 93.04 113.55 92.95 C 114.38 91.65 115.29 90.40 116.22 89.17 Z" />
<path fill="#fd0020" opacity="1.00" d=" M 57.85 100.77 C 57.72 96.27 63.23 96.54 66.37 96.54 C 65.93 99.73 63.25 101.93 60.12 102.16 C 59.55 101.81 58.42 101.12 57.85 100.77 Z" />
</g>
<g id="a_612e3762">
<path fill="#612e37" opacity="0.38" d=" M 1.21 71.21 C 1.37 70.62 1.69 69.45 1.86 68.86 C 1.69 69.45 1.37 70.62 1.21 71.21 Z" />
<path fill="#612e37" opacity="0.38" d=" M 0.00 77.36 L 0.91 78.51 C 1.05 81.66 0.97 84.82 0.95 87.98 L 0.00 87.99 L 0.00 77.36 Z" />
</g>
<g id="a_8f233590">
<path fill="#8f2335" opacity="0.56" d=" M 166.11 75.70 L 167.00 74.54 L 167.00 92.13 L 166.08 90.96 C 166.30 85.88 166.28 80.79 166.11 75.70 Z" />
</g>
</svg>
