<?xml version="1.0" encoding="UTF-8" standalone="no"?>
<!-- Created with Inkscape (http://www.inkscape.org/) -->

<svg
   xmlns:dc="http://purl.org/dc/elements/1.1/"
   xmlns:cc="http://creativecommons.org/ns#"
   xmlns:rdf="http://www.w3.org/1999/02/22-rdf-syntax-ns#"
   xmlns:svg="http://www.w3.org/2000/svg"
   xmlns="http://www.w3.org/2000/svg"
   xmlns:sodipodi="http://sodipodi.sourceforge.net/DTD/sodipodi-0.dtd"
   xmlns:inkscape="http://www.inkscape.org/namespaces/inkscape"
   version="1.1"
   width="350"
   height="300"
   id="svg2"
   xml:space="preserve"
   inkscape:version="0.48.1 "
   sodipodi:docname="Sapporo Beer logo.svg"><sodipodi:namedview
     pagecolor="#ffffff"
     bordercolor="#666666"
     borderopacity="1"
     objecttolerance="10"
     gridtolerance="10"
     guidetolerance="10"
     inkscape:pageopacity="0"
     inkscape:pageshadow="2"
     inkscape:window-width="1280"
     inkscape:window-height="738"
     id="namedview12"
     showgrid="false"
     inkscape:zoom="1.73"
     inkscape:cx="175"
     inkscape:cy="150"
     inkscape:window-x="-8"
     inkscape:window-y="-8"
     inkscape:window-maximized="1"
     inkscape:current-layer="svg2" /><metadata
     id="metadata8"><rdf:RDF><cc:Work
         rdf:about=""><dc:format>image/svg+xml</dc:format><dc:type
           rdf:resource="http://purl.org/dc/dcmitype/StillImage" /><dc:title /></cc:Work></rdf:RDF></metadata><defs
     id="defs6" /><g
     id="g2999"><path
       inkscape:connector-curvature="0"
       style="fill:#121010;fill-opacity:1;fill-rule:evenodd;stroke:none"
       id="path16"
       d="m 41.524643,186.73174 0,-13.90854 c -5.392133,-2.10637 -8.641029,-3.40591 -16.1798,-3.16044 -10.649628,0.2459 -20.8120446,10.11139 -20.3282342,20.44033 0.483854,10.33116 3.6646247,15.45398 13.8985672,21.28483 5.393834,3.16045 12.009209,7.37497 11.823501,13.90854 -0.15845,5.54684 -5.461959,10.88633 -25.3063393,4.00317 l 0.6218487,13.48585 c 4.9099796,1.89901 6.6204346,3.65403 14.9360576,3.58269 17.440507,-0.28179 24.510951,-10.70954 24.268893,-21.91621 -0.242058,-11.20357 -9.610481,-19.10624 -18.461031,-24.2326 -4.3563,-2.38994 -8.158919,-6.52338 -8.090751,-10.959 0.06982,-4.43428 3.971232,-6.21677 9.126584,-6.53179 5.155308,-0.3168 9.128241,1.96592 13.690704,4.00317 z m 29.870634,5.4795 -6.054935,24.86575 12.111179,0 z m -9.339507,38.35204 -3.438093,14.11944 -14.810015,0 18.863066,-73.12449 17.450407,0 18.863065,73.12449 -14.810014,0 -3.437657,-14.11944 z m 65.34776,-33.8225 c 0,-10.14949 -7.53737,-13.44995 -13.48458,-12.95991 l 0,25.91983 c 5.94721,0.49314 13.48458,-2.80732 13.48458,-12.95992 z m -26.96742,47.94194 13.48284,0 0,-22.54848 5.60135,0 c 14.72846,-0.56093 22.81755,-13.13626 22.40365,-25.0771 -0.14,-16.43672 -11.064,-25.70849 -24.06273,-25.28801 l -17.42511,0 z m 71.56451,-47.94194 c 0,-10.14949 -7.53738,-13.44995 -13.48328,-12.95991 l 0,25.91983 c 5.9459,0.49314 13.48328,-2.80732 13.48328,-12.95992 z m -26.96612,47.94194 13.48284,0 0,-22.54848 5.60004,0 c 14.72846,-0.56093 22.81929,-13.13626 22.40365,-25.0771 -0.13829,-16.43672 -11.064,-25.70849 -24.06098,-25.28801 l -17.42555,0 z M 278.62469,215.2564 c 6.26428,-3.91854 9.60555,-10.9231 9.53882,-18.19926 -0.13775,-16.43672 -12.10115,-25.70849 -26.1357,-25.28801 l -15.35214,0 0,72.91359 13.48458,0 0,-60.4796 c 5.9459,-0.49182 14.52042,2.38817 14.52042,12.53766 0,7.93014 -6.68516,12.31259 -11.8098,13.33875 l 14.50689,35.23457 14.93432,0 z m -35.88955,-6.608 c 0,-26.06693 -12.99916,-38.35382 -26.96567,-38.35382 -13.96827,0 -26.96743,12.28689 -26.96743,38.35382 0,26.06515 12.99916,38.3516 26.96743,38.3516 13.96651,0 26.96567,-12.28645 26.96567,-38.3516 z m -14.10477,0 c 0,-13.70074 -3.38663,-25.28845 -12.8609,-25.28845 -9.47602,0 -12.86091,11.58771 -12.86091,25.28845 0,13.70029 3.38489,25.288 12.86091,25.288 9.47427,0 12.8609,-11.58771 12.8609,-25.288 z m 116.36963,0 c 0,-26.06693 -12.99916,-38.35382 -26.96568,-38.35382 -13.96695,0 -26.96611,12.28689 -26.96611,38.35382 0,26.06515 12.99916,38.3516 26.96611,38.3516 C 332.00084,247 345,234.71355 345,208.6484 z m -14.10478,0 c 0,-13.70074 -3.38706,-25.28845 -12.8609,-25.28845 -9.47602,0 -12.86134,11.58771 -12.86134,25.28845 0,13.70029 3.38532,25.288 12.86134,25.288 9.47384,0 12.8609,-11.58771 12.8609,-25.288" /><path
       inkscape:connector-curvature="0"
       style="fill:#f4c92d;fill-opacity:1;fill-rule:evenodd;stroke:none"
       id="path18"
       d="M 175,110.73072 131.92944,140.53764 148.06531,92.871033 106.67136,60.470416 159.04756,60.038991 175,15.000001 l 15.95245,45.03899 52.37619,0.431425 -41.39396,32.400617 16.13588,47.666607 L 175,110.73072" /><path
       inkscape:connector-curvature="0"
       style="fill:#121010;fill-opacity:1;fill-rule:evenodd;stroke:none"
       id="path20"
       d="m 47.047941,147.91748 2.425812,0 0,0.11427 c 0,0.61632 0.184051,1.08509 0.555643,1.40898 0.368102,0.32344 0.90281,0.48605 1.599762,0.48605 0.623681,0 1.100382,-0.13647 1.430976,-0.41161 0.332339,-0.27338 0.499381,-0.66816 0.499381,-1.17858 0,-0.31325 -0.11078,-0.57999 -0.332339,-0.80152 -0.221559,-0.22331 -0.730971,-0.50865 -1.531725,-0.86178 -1.534777,-0.68898 -2.521326,-1.2827 -2.960956,-1.77939 -0.437885,-0.502 -0.655955,-1.13692 -0.655955,-1.90389 0,-1.1161 0.373336,-2.00756 1.122625,-2.67572 0.747981,-0.66638 1.758518,-1.00046 3.02943,-1.00046 1.37297,0 2.444566,0.32034 3.211301,0.96413 0.766735,0.64201 1.151846,1.53525 1.151846,2.67749 l 0,0.16616 -2.352976,0 c -0.01181,-0.54498 -0.188849,-0.96413 -0.534708,-1.25656 -0.345859,-0.29597 -0.838262,-0.44307 -1.475463,-0.44307 -0.528165,0 -0.940318,0.11612 -1.233404,0.34471 -0.29832,0.22641 -0.444863,0.54498 -0.444863,0.94995 0,0.57644 0.56044,1.10414 1.678267,1.58354 0.194083,0.0816 0.34586,0.1488 0.45315,0.19762 1.260445,0.54498 2.124439,1.08863 2.594598,1.63006 0.47016,0.54543 0.706984,1.22732 0.706984,2.04435 0,1.22333 -0.398632,2.18568 -1.194152,2.88308 -0.793776,0.69784 -1.885871,1.04566 -3.274541,1.04566 -1.37297,0 -2.461576,-0.35313 -3.264074,-1.06471 -0.802498,-0.71114 -1.204619,-1.67172 -1.204619,-2.87998 l 0,-0.23882 z m 10.298579,3.84765 2.189424,-12.13624 2.506062,0 -2.173723,12.13624 -2.521763,0 z m 5.077109,0 2.182446,-12.13624 2.521326,0 3.220024,8.37011 1.453219,-8.37011 2.408803,0 -2.117461,12.13624 -2.506062,0 -3.237033,-8.42195 -1.441443,8.42195 -2.483819,0 z m 20.764201,-4.16932 2.51304,0 c -0.231591,1.39479 -0.834773,2.48697 -1.807802,3.27786 -0.974337,0.78601 -2.202508,1.18035 -3.689746,1.18035 -1.599762,0 -2.853666,-0.48295 -3.758657,-1.45373 -0.906299,-0.97077 -1.361193,-2.31418 -1.361193,-4.03286 0,-2.11479 0.584428,-3.84721 1.753283,-5.19726 1.16842,-1.34827 2.676157,-2.02307 4.5267,-2.02307 1.487238,0 2.638648,0.3806 3.455103,1.14224 0.816018,0.75987 1.235149,1.84142 1.256956,3.2433 l -2.434535,0 0,-0.0655 c 0,-0.68898 -0.209347,-1.22909 -0.633711,-1.62033 -0.420876,-0.39256 -0.996581,-0.59017 -1.727552,-0.59017 -1.058076,0 -1.930357,0.48649 -2.613352,1.46259 -0.682996,0.97609 -1.027111,2.21891 -1.027111,3.72979 0,1.0142 0.243367,1.79135 0.730535,2.33146 0.485861,0.53656 1.185866,0.80639 2.102632,0.80639 0.717015,0 1.314963,-0.19052 1.790356,-0.57289 0.475393,-0.37883 0.783744,-0.92071 0.925054,-1.61811 z m 3.610369,4.16932 2.143193,-12.13624 7.855322,0 -0.364614,2.15157 -5.381534,0 -0.501125,2.57692 5.054865,0 -0.412152,2.15821 -4.995115,0 -0.526421,3.1569 5.730883,0 -0.381623,2.09264 -8.221679,0" /><path
       inkscape:connector-curvature="0"
       style="fill:#121010;fill-opacity:1;fill-rule:evenodd;stroke:none"
       id="path22"
       d="m 269.57498,150.97602 1.44449,-8.58456 c -0.50941,0.13477 -1.00486,0.24236 -1.48898,0.31325 -0.48542,0.0691 -0.9643,0.10542 -1.44144,0.10542 l 0.28654,-1.62165 c 0.96082,-0.10413 1.72755,-0.31503 2.29454,-0.63006 0.56741,-0.31502 1.01053,-0.77715 1.32892,-1.38106 l 1.90811,0 -2.01366,11.79862 -2.31852,0 z m 11.59348,-9.93638 c -0.46013,0 -0.83303,0.15729 -1.11608,0.47232 -0.28437,0.31679 -0.42568,0.72708 -0.42568,1.23086 0,0.45326 0.12775,0.80994 0.38468,1.07312 0.25732,0.26274 0.60841,0.39611 1.05633,0.39611 0.45489,0 0.823,-0.1608 1.10561,-0.47941 0.27957,-0.31679 0.42088,-0.72708 0.42088,-1.22554 0,-0.47054 -0.1243,-0.82899 -0.3729,-1.08509 -0.25034,-0.25609 -0.59795,-0.38237 -1.05284,-0.38237 z m -0.74798,4.86185 c -0.4924,0 -0.89453,0.18351 -1.20113,0.54853 -0.30835,0.36509 -0.46318,0.83253 -0.46318,1.40365 0,0.50024 0.13611,0.89989 0.40517,1.20472 0.27084,0.29908 0.63371,0.4515 1.08686,0.4515 0.52642,0 0.9473,-0.18875 1.26612,-0.56758 0.31838,-0.37927 0.47844,-0.88438 0.47844,-1.50778 0,-0.44972 -0.14301,-0.81836 -0.43439,-1.10592 -0.28786,-0.28356 -0.66773,-0.42712 -1.13789,-0.42712 z m -1.69702,-1.26896 c -0.43789,-0.26984 -0.76499,-0.59505 -0.98306,-0.98141 -0.21807,-0.38415 -0.32885,-0.82899 -0.32885,-1.33587 0,-0.93311 0.3428,-1.69786 1.02929,-2.29512 0.68648,-0.5955 1.57926,-0.89324 2.6779,-0.89324 1.15708,0 2.07341,0.28401 2.75161,0.84849 0.67819,0.5658 1.01882,1.32567 1.01882,2.27562 0,0.72 -0.17228,1.31726 -0.5129,1.78958 -0.34063,0.47276 -0.85004,0.82589 -1.52998,1.06293 0.49415,0.28889 0.86574,0.64025 1.1091,1.05408 0.24381,0.41161 0.36636,0.89634 0.36636,1.45727 0,1.14047 -0.36287,2.04744 -1.0886,2.71383 -0.72225,0.66638 -1.7088,1.00046 -2.95049,1.00046 -1.17409,0 -2.10918,-0.31193 -2.80787,-0.93843 -0.6987,-0.62651 -1.04587,-1.46569 -1.04587,-2.51977 0,-0.8188 0.1906,-1.49714 0.57571,-2.03725 0.38511,-0.53656 0.95732,-0.93799 1.71883,-1.20117 z m 8.55271,6.34349 c 0.095,-1.39524 0.54168,-2.89416 1.33895,-4.50031 0.79552,-1.60259 1.92163,-3.27077 3.38008,-5.00009 l -5.51499,0 0.36636,-1.96104 7.93906,0 -0.3319,1.77229 c -1.42269,1.72932 -2.52177,3.38553 -3.29679,4.97262 -0.77502,1.58355 -1.26219,3.15513 -1.45671,4.71653 l -2.42406,0 z m 12.20843,-5.60267 c -0.53165,0 -0.96081,0.2078 -1.28792,0.6265 -0.3271,0.41738 -0.49066,0.96768 -0.49066,1.65621 0,0.57644 0.13957,1.02661 0.41913,1.35005 0.27564,0.32389 0.66773,0.48827 1.16188,0.48827 0.53122,0 0.96082,-0.21445 1.28792,-0.64556 0.32711,-0.42757 0.49066,-0.98983 0.49066,-1.68767 0,-0.56403 -0.13956,-1.00533 -0.41215,-1.31859 -0.27782,-0.31148 -0.66817,-0.46921 -1.16886,-0.46921 z m 2.10045,-3.00094 c -0.0222,-0.45017 -0.14138,-0.79089 -0.35763,-1.02129 -0.21458,-0.2304 -0.52468,-0.34604 -0.92331,-0.34604 -0.57919,0 -1.05459,0.26806 -1.42618,0.80462 -0.3681,0.53479 -0.60318,1.29289 -0.7,2.27785 0.26561,-0.20781 0.55346,-0.3651 0.86355,-0.46745 0.3101,-0.10006 0.64767,-0.15064 1.01054,-0.15064 0.99309,0 1.79908,0.32388 2.41753,0.97299 0.6167,0.64733 0.92331,1.4936 0.92331,2.53704 0,1.29643 -0.38512,2.34696 -1.15359,3.15513 -0.77328,0.80684 -1.78382,1.21181 -3.03249,1.21181 -1.24867,0 -2.19247,-0.38769 -2.82968,-1.16662 -0.63894,-0.77715 -0.95732,-1.92471 -0.95732,-3.44091 0,-2.31063 0.44268,-4.15382 1.32717,-5.52292 0.88231,-1.3691 2.07472,-2.05586 3.57243,-2.05586 1.09209,0 1.93384,0.27869 2.52307,0.83254 0.58966,0.55384 0.88754,1.34473 0.89975,2.37088 l -2.15715,0.009" /><path
       inkscape:connector-curvature="0"
       style="fill:#ed1c24;fill-opacity:1;fill-rule:evenodd;stroke:none"
       id="path24"
       d="m 111.14635,253.47713 c -0.55041,2.67572 -1.45053,5.94812 -2.68045,9.87686 -1.2334,3.92386 -2.72995,8.15507 -4.45226,12.64607 0.71875,-0.0882 1.32564,-0.15183 1.77181,-0.18462 0.44836,-0.0327 0.84583,-0.0462 1.18122,-0.0462 0.42087,0 0.88369,0.008 1.40837,0.0462 0.52162,0.0381 1.07952,0.10708 1.68095,0.18462 0.72923,-3.43516 1.72,-7.08801 2.90761,-10.89224 1.19415,-3.79714 2.59212,-7.64657 4.17967,-11.63069 -0.56567,0.0762 -1.169,0.0955 -1.72638,0.13846 -0.56219,0.0452 -1.08592,0.0923 -1.5901,0.0923 -0.28611,0 -0.66562,-0.0422 -1.13578,-0.0923 -0.4706,-0.0434 -0.97419,-0.0676 -1.54466,-0.13846 z m 129.20654,0 c -0.39981,2.05893 -1.08239,4.58466 -1.86268,7.38456 -0.15301,0.41906 -0.2281,0.66112 -0.40888,1.15384 -0.36985,-0.93267 -0.92949,-1.67917 -1.68096,-2.16921 -0.75452,-0.49314 -1.65908,-0.73846 -2.72588,-0.73846 -2.1807,0 -4.15721,1.03111 -5.95149,3.09229 -1.79561,2.06118 -2.84785,4.57961 -3.18019,7.47687 -0.23159,2.01643 0.0901,3.56224 0.95405,4.66151 0.86358,1.09882 2.21509,1.66153 4.04339,1.66153 0.9691,0 1.89903,-0.22213 2.77131,-0.64615 0.70476,-0.34167 1.39054,-0.89959 2.08983,-1.56922 -0.26157,0.74339 -0.49738,1.45583 -0.77233,2.21537 0.67851,-0.0881 1.21436,-0.15176 1.63553,-0.18462 0.42324,-0.0334 0.81918,-0.0462 1.13578,-0.0462 0.39729,0 0.82225,0.008 1.31751,0.0462 0.4924,0.038 1.02235,0.10708 1.59009,0.18462 0.68836,-3.43516 1.6048,-7.08801 2.72588,-10.89224 1.12724,-3.79714 2.45391,-7.64657 3.95252,-11.63069 -0.53398,0.0762 -1.06395,0.0954 -1.5901,0.13846 -0.53069,0.0452 -1.02329,0.0923 -1.49923,0.0923 -0.27006,0 -0.64654,-0.0423 -1.09035,-0.0923 -0.44424,-0.0434 -0.91529,-0.0676 -1.4538,-0.13846 z m -33.02854,0.36923 c -0.97259,0.46212 -1.89728,0.84058 -2.7713,1.15383 -0.87926,0.30794 -1.71811,0.56345 -2.54415,0.73846 -0.20979,0.82368 -0.39435,1.58768 -0.59061,2.30768 -0.19059,0.71999 -0.39035,1.35123 -0.54518,1.84614 l -0.5906,0 c -0.28611,0 -0.5736,-0.024 -0.8632,-0.0462 -0.29483,-0.0208 -0.56218,-0.0236 -0.81776,-0.0462 -0.0747,0.45194 -0.17882,0.81216 -0.27259,1.10769 -0.0885,0.29774 -0.17845,0.60664 -0.31802,0.87692 0.0222,0 0.0345,-0.0354 0.0909,-0.0462 0.54343,-0.0775 0.94787,-0.0923 1.18121,-0.0923 0.0751,0 0.23719,-0.0226 0.49974,0 0.177,0.0102 0.34183,0.036 0.45432,0.0462 -0.43963,1.34163 -1.0024,3.0962 -1.72639,5.2615 -1.0511,3.07228 -1.64262,4.95689 -1.72639,5.67689 -0.14138,1.2375 0.0963,2.18177 0.7269,2.81536 0.63022,0.62474 1.65871,0.92307 3.04389,0.92307 0.59446,0 1.20324,-0.0583 1.86269,-0.18461 0.65246,-0.13159 1.29795,-0.28261 1.90811,-0.50769 0.14302,-0.35136 0.23642,-0.64379 0.31802,-0.83076 0.0801,-0.18698 0.15392,-0.38415 0.22716,-0.55384 -0.28088,0.0505 -0.55347,0.11054 -0.81777,0.13846 -0.26212,0.0274 -0.52896,0.0462 -0.77233,0.0462 -0.60493,0 -1.03314,-0.17442 -1.31751,-0.46154 -0.28781,-0.27869 -0.38253,-0.68521 -0.31801,-1.24614 0.0732,-0.64202 0.40982,-1.89444 0.99948,-3.78459 0.58574,-1.89503 1.37726,-4.2925 2.40786,-7.19995 0.20281,-0.0105 0.41143,-0.0408 0.59061,-0.0462 0.17881,-0.005 0.35858,0 0.5906,0 0.16356,0 0.42204,-0.0174 0.7269,0 0.30138,0.0155 0.70277,0.0595 1.18122,0.0923 0.0632,-0.36864 0.12811,-0.72745 0.22715,-1.06153 0.092,-0.3425 0.22044,-0.65597 0.36345,-0.96923 -0.51115,0.0328 -0.93181,0.075 -1.22664,0.0923 -0.28785,0.0155 -0.48339,0 -0.59061,0 l -1.27207,0 c 0.29657,-0.93311 0.61823,-1.86364 0.95405,-2.81537 0.33714,-0.95039 0.69427,-1.88092 1.04492,-2.81536 l -0.31802,-0.41538 z m -32.71051,5.53842 c -2.64563,0 -5.01736,0.99278 -7.08728,2.95383 -2.07516,1.95573 -3.272,4.33134 -3.58907,7.10764 -0.25733,2.2362 0.22156,3.9441 1.36294,5.1692 1.14137,1.23086 2.83047,1.84614 5.13373,1.84614 2.72282,0 5.18476,-0.94663 7.31443,-2.90767 2.12444,-1.96769 3.35763,-4.3518 3.67994,-7.1538 0.25383,-2.22556 -0.22774,-3.95429 -1.40837,-5.1692 -1.18063,-1.22022 -2.9888,-1.84614 -5.40632,-1.84614 z m 42.84169,0.0462 c -2.6513,0 -4.96749,0.93585 -6.99642,2.81537 -2.02761,1.88174 -3.18811,4.17324 -3.49821,6.87688 -0.2643,2.30886 0.21735,4.11416 1.45381,5.39996 1.23689,1.29112 3.09376,1.93845 5.58804,1.93845 0.97783,0 1.91836,-0.11527 2.86217,-0.32307 0.94381,-0.20958 1.91488,-0.54521 2.86217,-0.96923 0.28786,-0.48251 0.53028,-0.88459 0.77233,-1.24614 0.24206,-0.35668 0.47961,-0.70213 0.7269,-1.01538 l -0.31801,-0.41538 c -0.75976,0.55029 -1.56342,0.93503 -2.36243,1.19999 -0.80424,0.26319 -1.62295,0.41538 -2.49872,0.41538 -1.42923,0 -2.5121,-0.39086 -3.22562,-1.15384 -0.70702,-0.76519 -0.97441,-1.81018 -0.81776,-3.18459 0.0292,-0.24768 0.10103,-0.67229 0.22715,-1.19999 0.0516,-0.21445 0.0703,-0.33209 0.0909,-0.41539 0.49764,0 1.22643,-0.0354 2.18071,-0.0462 0.94686,-0.0103 1.68037,0 2.13527,0 0.71875,0 1.46077,-0.007 2.27156,0 0.80424,0.005 2.02951,0.024 3.6345,0.0462 0.15828,-0.5277 0.27622,-1.01382 0.36345,-1.43076 0.0851,-0.41205 0.1412,-0.75455 0.18173,-1.10768 0.22679,-1.97301 -0.16101,-3.49785 -1.13578,-4.5692 -0.97609,-1.06781 -2.47924,-1.61538 -4.4977,-1.61538 z m -87.77322,0.0462 c -0.99528,0 -1.98742,0.23941 -2.95304,0.64615 -0.96125,0.40674 -1.94773,1.0105 -2.95303,1.84614 0.12779,-0.39611 0.26583,-0.75633 0.40888,-1.10769 0.13782,-0.358 0.31082,-0.71275 0.45431,-1.01537 -0.64941,0.0554 -1.22119,0.11099 -1.63552,0.13846 -0.4139,0.0279 -0.76361,0.0462 -1.04492,0.0462 -0.17359,0 -0.38141,-0.0236 -0.68147,-0.0462 -0.30661,-0.0208 -0.88195,-0.0729 -1.68096,-0.13846 -0.77502,2.79136 -1.58798,5.53296 -2.45329,8.21533 -0.86922,2.67749 -1.76157,5.33889 -2.72587,7.93841 0.61844,-0.0554 1.11026,-0.11055 1.54466,-0.13846 0.43091,-0.0274 0.82263,-0.0462 1.13578,-0.0462 0.30835,0 0.67122,0.0187 1.09035,0.0462 0.4187,0.0279 0.9529,0.0831 1.5901,0.13846 1.27091,-5.38069 2.41171,-9.02077 3.45277,-10.93839 1.04761,-1.9194 2.3263,-2.90768 3.7708,-2.90768 0.41084,0 0.72421,0.19717 0.95406,0.55385 0.23035,0.35135 0.29345,0.79088 0.22715,1.3846 -0.0768,0.65442 -0.45722,2.12403 -1.18121,4.38459 -0.72574,2.25835 -1.63458,4.78527 -2.68044,7.52303 0.65072,-0.0554 1.20941,-0.11055 1.63552,-0.13846 0.42437,-0.0274 0.79203,-0.0462 1.09035,-0.0462 0.20106,0 0.44348,0.024 0.77233,0.0462 0.32187,0.0208 0.84561,0.0729 1.5901,0.13846 1.40524,-5.47418 2.6244,-9.16137 3.6345,-11.0307 1.00356,-1.86756 2.18804,-2.81537 3.49821,-2.81537 0.5177,0 0.88544,0.18425 1.13578,0.50769 0.25383,0.33098 0.34237,0.7807 0.27259,1.38461 -0.0802,0.6974 -0.47947,2.09005 -1.18122,4.19997 -0.70175,2.11657 -1.60288,4.72539 -2.7713,7.7538 0.6167,-0.0554 1.10852,-0.11055 1.54466,-0.13846 0.42916,-0.0274 0.8174,-0.0462 1.13578,-0.0462 0.29832,0 0.64803,0.024 1.04492,0.0462 0.39863,0.0208 0.92062,0.0729 1.5901,0.13846 0.48891,-2.13917 1.22642,-4.62378 2.1807,-7.38457 0.95558,-2.75858 1.46136,-4.4492 1.54466,-5.1692 0.14654,-1.28092 -0.11463,-2.2839 -0.77233,-2.95382 -0.65421,-0.6717 -1.69412,-1.01538 -3.08933,-1.01538 -1.07683,0 -2.07435,0.26082 -3.04389,0.73845 -0.96911,0.47941 -1.86538,1.1678 -2.72588,2.12307 -0.0798,-0.95527 -0.42996,-1.64366 -1.04492,-2.12307 -0.6167,-0.47763 -1.52903,-0.73845 -2.68044,-0.73845 z m 27.80394,0 c -0.96911,0 -1.89903,0.22213 -2.77131,0.64615 -0.87097,0.42225 -1.7173,1.11891 -2.58958,2.03075 l 0.63603,-2.21537 c -0.54692,0.0554 -1.00356,0.0662 -1.36294,0.0923 -0.35937,0.0274 -0.65479,0.0462 -0.90862,0.0462 -0.26605,0 -0.59737,-0.0133 -0.99949,-0.0462 -0.40212,-0.0328 -0.86319,-0.0729 -1.40837,-0.13846 -1.08337,4.1228 -2.29337,8.27308 -3.6345,12.46146 -1.3407,4.18838 -2.82234,8.41427 -4.40683,12.64607 0.5962,-0.0554 1.12168,-0.11055 1.59009,-0.13846 0.46842,-0.0275 0.91713,-0.0462 1.31751,-0.0462 0.31882,0 0.68168,0.0187 1.09035,0.0462 0.40735,0.0279 0.84735,0.0831 1.31751,0.13846 0.22984,-1.24814 0.60063,-2.78221 1.13578,-4.52305 0.54168,-1.74305 1.37515,-4.07687 2.45329,-7.01534 0.36984,0.93267 0.92948,1.67918 1.68095,2.16922 0.75453,0.49314 1.65908,0.73845 2.72588,0.73845 2.1807,0 4.15722,-1.0311 5.9515,-3.09228 1.79559,-2.06118 2.84785,-4.57962 3.18019,-7.47688 0.23159,-2.01643 -0.0901,-3.56224 -0.95406,-4.6615 -0.86356,-1.09883 -2.21508,-1.66153 -4.04338,-1.66153 z m 38.2077,0.13846 c -0.96256,0 -1.87235,0.27655 -2.72588,0.87692 -0.85658,0.59903 -1.77858,1.57941 -2.72587,2.95382 l -0.36346,0 c 0.19452,-0.59903 0.4062,-1.16543 0.63604,-1.75383 0.23028,-0.59372 0.50498,-1.20627 0.77233,-1.79999 -0.49065,0.0328 -0.9241,0.0648 -1.3175,0.0923 -0.39166,0.0279 -0.69754,0.0462 -0.90863,0.0462 -0.3886,0 -0.80053,-0.0236 -1.22664,-0.0462 -0.42393,-0.0208 -0.88057,-0.0476 -1.36294,-0.0923 -0.7868,2.84719 -1.60674,5.59108 -2.45329,8.26148 -0.85396,2.66509 -1.76717,5.3002 -2.68044,7.84611 0.80773,-0.0656 1.39928,-0.11764 1.72638,-0.13846 0.33234,-0.0221 0.61845,-0.0462 0.81777,-0.0462 0.32536,0 0.70444,0.024 1.13578,0.0462 0.42916,0.0208 0.98051,0.0729 1.68096,0.13846 1.09514,-5.01206 2.09565,-8.23402 2.99846,-9.64609 0.90979,-1.41784 2.17721,-2.12307 3.81623,-2.12307 0.37988,0 0.76942,0.0263 1.13578,0.0923 0.37115,0.0603 0.7205,0.14887 1.09035,0.27692 l 0.0454,-0.27692 c 0.0956,-0.8188 0.22752,-1.60636 0.45431,-2.35383 0.22156,-0.74614 0.53747,-1.48518 0.90863,-2.21537 -0.35109,-0.0554 -0.64513,-0.11055 -0.8632,-0.13846 -0.21981,-0.0274 -0.42178,0 -0.5906,0 z m -20.94382,1.24614 c 0.73097,0 1.24598,0.28852 1.59009,0.87692 0.34242,0.59372 0.48601,1.43157 0.36346,2.49229 -0.1448,1.2703 -0.47562,2.57751 -0.95406,3.96921 -0.48412,1.38992 -1.06309,2.69477 -1.77182,3.8769 -0.52642,0.89988 -1.09348,1.53488 -1.68096,1.9846 -0.58792,0.45193 -1.17038,0.6923 -1.77182,0.6923 -0.71919,0 -1.26299,-0.30092 -1.59009,-0.87692 -0.32362,-0.58353 -0.39515,-1.41074 -0.27259,-2.49229 0.11601,-1.00223 0.37988,-2.14957 0.81776,-3.46151 0.43789,-1.31372 0.9529,-2.57988 1.5901,-3.78459 0.59489,-1.12674 1.22104,-1.96105 1.81725,-2.4923 0.59315,-0.5401 1.20847,-0.78461 1.86268,-0.78461 z m 42.43281,0.0923 c 0.63371,0 1.12357,0.2013 1.40837,0.64615 0.27928,0.44485 0.36981,1.08686 0.27259,1.93845 -0.0493,0.42934 -0.15483,0.87633 -0.27259,1.33845 -0.1143,0.46036 -0.26023,0.96649 -0.45431,1.47692 l -0.0909,0 c -1.18892,0.0452 -2.0676,0.0462 -2.63502,0.0462 -0.17355,0 -0.47248,0.0155 -0.90862,0 -0.43745,-0.0174 -0.98655,-0.0595 -1.63553,-0.0923 0.6167,-1.80154 1.27498,-3.12389 1.99898,-4.01536 0.72399,-0.88969 1.4892,-1.33845 2.31699,-1.33845 z m -61.55938,0.6 c 0.6987,0 1.23595,0.2973 1.5901,0.83076 0.35632,0.53789 0.46769,1.26712 0.36345,2.16922 -0.11907,1.04521 -0.3934,2.17254 -0.81776,3.41536 -0.41739,1.23573 -0.91692,2.28294 -1.45381,3.18459 -0.49414,0.82412 -1.02093,1.45942 -1.59009,1.8923 -0.56916,0.43421 -1.14371,0.64615 -1.72639,0.64615 -0.70349,0 -1.23726,-0.22804 -1.59009,-0.73846 -0.3524,-0.51219 -0.46377,-1.20272 -0.36345,-2.07691 0.099,-0.85823 0.34353,-1.86401 0.7269,-3.04613 0.37988,-1.18035 0.8243,-2.31336 1.36294,-3.36921 0.49894,-0.96058 1.05458,-1.68627 1.63552,-2.16922 0.5792,-0.48295 1.19844,-0.73845 1.86268,-0.73845 z m 78.95956,0.23077 c 0.14447,-0.0274 0.30864,0 0.45431,0 0.7035,0 1.23726,0.22803 1.5901,0.73845 0.35243,0.5122 0.46376,1.20273 0.36345,2.07691 -0.099,0.85824 -0.34354,1.86401 -0.7269,3.04614 -0.37988,1.18034 -0.82431,2.31336 -1.36294,3.3692 -0.49895,0.96059 -1.05459,1.68627 -1.63553,2.16922 -0.57919,0.48295 -1.19844,0.73846 -1.86268,0.73846 -0.6987,0 -1.23595,-0.29731 -1.59009,-0.83077 -0.35626,-0.53789 -0.46776,-1.26711 -0.36345,-2.16921 0.11903,-1.04521 0.39339,-2.17254 0.81776,-3.41537 0.41738,-1.23573 0.91691,-2.28293 1.4538,-3.18459 0.49415,-0.82412 1.02093,-1.45941 1.59009,-1.8923 0.42688,-0.32565 0.83865,-0.56398 1.27208,-0.64614 z" /></g></svg>