<?xml version="1.0" encoding="UTF-8" standalone="no"?>
<!-- Created with Inkscape (http://www.inkscape.org/) -->

<svg
   xmlns:dc="http://purl.org/dc/elements/1.1/"
   xmlns:cc="http://creativecommons.org/ns#"
   xmlns:rdf="http://www.w3.org/1999/02/22-rdf-syntax-ns#"
   xmlns:svg="http://www.w3.org/2000/svg"
   xmlns="http://www.w3.org/2000/svg"
   version="1.1"
   width="892.91339"
   height="266.10236"
   id="svg5384">
  <defs
     id="defs5386" />
  <metadata
     id="metadata5389">
    <rdf:RDF>
      <cc:Work
         rdf:about="">
        <dc:format>image/svg+xml</dc:format>
        <dc:type
           rdf:resource="http://purl.org/dc/dcmitype/StillImage" />
        <dc:title></dc:title>
      </cc:Work>
    </rdf:RDF>
  </metadata>
  <g
     transform="translate(58.474957,-304.33888)"
     id="layer1">
    <g
       transform="matrix(5.4457385,0,0,5.4457385,-1977.0247,-2663.9854)"
       id="g5417">
      <g
         transform="matrix(1.25,0,0,-1.25,357.7867,569.52391)"
         id="g4060"
         style="fill:#cc0033;fill-opacity:1">
        <path
           d="m 0,0 c -1.023,-3.891 0.532,-7.354 5.484,-7.354 2.78,0 5.207,1.615 5.768,3.972 0.623,2.609 -0.833,4.139 -2.542,5.878 L 7.094,4.191 c -2.115,2.152 -3.725,4.098 -2.956,7.325 1.101,4.637 5.988,7.534 11.495,7.534 2.931,0 5.212,-0.828 7.009,-2.402 3.66,-3.689 -0.867,-6.042 -1.874,-5.825 -0.249,0.051 -0.344,0.113 -0.344,0.113 0.96,2.982 -0.068,6.292 -4.212,6.292 -2.326,0 -5.199,-1.241 -5.7,-3.353 C 9.94,11.473 11.665,9.821 13.214,8.248 L 14.688,6.799 C 17.027,4.523 18.94,2.372 18.103,-1.146 16.901,-6.194 11.84,-9.172 5.878,-9.172 c -3.286,0 -6.535,0.983 -8.353,3.038 C -5.994,-2.076 -1.962,0.049 0,0"
           id="path4062"
           style="fill:#cc0033;fill-opacity:1;fill-rule:nonzero;stroke:none" />
      </g>
      <g
         transform="matrix(1.25,0,0,-1.25,432.13057,563.67366)"
         id="g4064">
        <path
           d="m 0,0 c -0.368,-2.998 -4.007,-11.324 -8.626,-11.324 -1.845,0 -2.389,1.415 -2.232,2.705 0.314,2.54 3.788,11.202 8.354,11.202 C -0.608,2.583 0.167,1.374 0,0 m -18.097,-23.7 5.781,12.792 0.101,0 c 0.715,-1.708 2.336,-2.705 4.694,-2.705 7.44,0 12.633,7.201 13.282,12.49 0.005,0.027 0.1,0.677 0.032,1.541 C 5.572,2.986 3.838,4.873 0.134,4.873 -2.533,4.873 -4.92,3.79 -6.667,2.124 L -6.755,2.206 -6.15,3.644 C -6.902,5.15 -8.261,6.271 -9.886,6.808 L -22.033,-20.31 c 0.787,-1.599 2.237,-2.82 3.936,-3.39"
           id="path4066"
           style="fill:#cc0033;fill-opacity:1;fill-rule:nonzero;stroke:none" />
      </g>
      <g
         transform="matrix(1.25,0,0,-1.25,403.4627,563.40528)"
         id="g4068"
         style="fill:#cc0033;fill-opacity:1">
        <path
           d="m 0,0 c -0.37,-2.998 -4.52,-11.327 -9.192,-11.327 -1.741,0 -2.277,1.501 -2.126,2.709 0.361,2.957 4.375,10.99 8.89,10.99 C -0.632,2.372 0.163,1.333 0,0 m 3.329,-11.312 c -0.32,-0.151 -0.628,-0.238 -0.908,-0.238 -0.72,0 -0.86,0.958 -0.796,1.458 0.08,0.663 0.854,2.371 1.196,3.079 l 5.29,11.22 C 6.428,4.874 4.5,4.859 2.77,4.224 L 1.47,1.956 c -0.706,1.749 -2.334,2.707 -4.746,2.707 -7.388,0 -13.438,-7.078 -14.098,-12.447 -0.397,-3.251 1.311,-6.037 5.619,-6.037 3.49,0 6.407,2.039 8.233,4.37 l 0.093,-0.084 c 0,0 -0.259,-0.891 -0.338,-1.5 -0.199,-1.529 0.991,-2.786 2.942,-2.786 1.168,0 2.32,0.318 3.407,0.828 l 0.751,1.666 -0.004,0.015 z"
           id="path4070"
           style="fill:#cc0033;fill-opacity:1;fill-rule:nonzero;stroke:none" />
      </g>
      <g
         transform="matrix(1.25,0,0,-1.25,464.49431,567.40641)"
         id="g4072"
         style="fill:#cc0033;fill-opacity:1">
        <path
           d="m 0,0 3.108,6.032 c 0,0 -1.742,0.114 -2.778,0.182 -0.752,0.05 -2.584,0.227 -2.584,0.227 L -3.746,3.749 c -1.411,-2.707 -6,-11.659 -10.205,-11.659 -0.872,0 -1.447,0.33 -1.356,1.081 0.112,0.918 3.517,7.214 3.517,7.214 0.732,1.377 1.81,3.458 1.98,4.829 0.197,1.627 -1.214,2.666 -3.161,2.666 -1.69,0 -3.663,-0.753 -5.357,-1.809 0.188,-0.321 0.332,-0.67 0.439,-1.039 0.586,0.219 1.11,0.351 1.327,0.351 0.612,0 0.822,-0.416 0.762,-0.872 -0.08,-0.668 -3.162,-6.844 -3.162,-6.844 -0.738,-1.415 -1.871,-3.537 -2.051,-4.996 -0.248,-2.039 1.445,-3.301 3.802,-3.287 4.11,0.021 7.367,2.682 9.699,5.867 l 0.091,-0.084 c -0.373,-0.958 -0.612,-1.664 -0.743,-2.747 -0.196,-1.582 0.857,-3.036 2.961,-3.036 1.893,0 3.661,0.793 5.159,1.907 l -0.001,0.014 c -0.15,0.382 -0.209,0.803 -0.154,1.256 0.004,0.049 0.01,0.107 0.016,0.163 -0.482,-0.327 -1.035,-0.632 -1.506,-0.634 -0.822,-0.005 -0.828,0.789 -0.767,1.289 C -2.254,-4.996 -0.767,-1.666 0,0"
           id="path4074"
           style="fill:#cc0033;fill-opacity:1;fill-rule:nonzero;stroke:none" />
      </g>
      <g
         transform="matrix(1.25,0,0,-1.25,496.11282,574.73366)"
         id="g4076"
         style="fill:#cc0033;fill-opacity:1">
        <path
           d="M 0,0 C -3.386,-4.715 -8.78,-4.83 -6.864,1.896 -6.563,2.949 -4.109,11.581 3.242,12.237 3.551,11.791 3.774,11.269 3.895,10.662 4.42,8.029 2.373,3.224 0,0 m 5.849,13.521 c -2.751,1.891 -7.59,3.469 -16.045,3.667 l 1.931,4.284 c -1.649,0.668 -3.524,0.656 -5.218,0.021 l -2.074,-4.356 c -5.606,-0.246 -12.231,-1.743 -24.333,0.677 l -0.315,-0.523 c 6.742,-2.79 17.036,-3.384 23.108,-3.386 l -4.41,-9.256 c -0.385,-0.869 -0.911,-1.979 -1.358,-3.094 -0.681,-1.482 -0.908,-2.549 -0.943,-3.132 -0.226,-1.871 1.448,-3.238 3.75,-3.24 2.666,-0.004 4.907,1.555 6.619,3.15 l -0.02,0.062 c -0.216,0.372 -0.393,0.77 -0.519,1.193 -0.34,-0.318 -0.865,-0.78 -1.179,-1.007 -0.622,-0.448 -1.271,-0.761 -1.883,-0.761 -0.971,0 -1.073,0.685 -0.998,1.307 0.144,1.162 1.32,3.654 1.872,4.819 l 4.629,10.27 c 4.619,0.46 10.396,1.105 13.439,-0.744 -4.39,-0.336 -8.804,-1.684 -11.546,-4.873 -1.591,-1.845 -2.584,-4.076 -2.823,-6.29 -0.093,-0.869 -0.007,-1.806 0.057,-2.146 0.576,-2.995 3.295,-4.997 7.56,-4.997 7.167,0 13.439,5.647 14.127,11.252 0.025,0.204 0.603,2.587 -1.253,5.063 2.381,-0.92 4.187,-2.387 4.658,-3.142 1.26,0.525 2.34,1.535 2.922,2.797 -1.01,0.98 -5.047,2.156 -9.755,2.385"
           id="path4078"
           style="fill:#cc0033;fill-opacity:1;fill-rule:nonzero;stroke:none" />
      </g>
    </g>
  </g>
</svg>
