<svg width="500" height="503" viewBox="0 0 500 503" fill="none" xmlns="http://www.w3.org/2000/svg">
<g clip-path="url(#clip0_1_419)">
<mask id="mask0_1_419" style="mask-type:luminance" maskUnits="userSpaceOnUse" x="0" y="0" width="500" height="503">
<path d="M500 0H0V502.565H500V0Z" fill="white"/>
</mask>
<g mask="url(#mask0_1_419)">
<path d="M499.998 251.282C499.998 390.063 388.069 502.565 250 502.565C111.929 502.565 0 390.064 0 251.282C0 112.504 111.929 0 250 0C388.071 0 499.998 112.504 499.998 251.282Z" fill="white"/>
<path d="M247.912 89.3362C256.713 94.4089 266.048 100.937 273.155 107.855L270.363 110.661C256.34 109.17 241.57 111.031 228.277 111.236C226.794 109.74 223.808 107.491 226.589 105.612L247.912 89.3362ZM495.868 263.531C496.055 269.861 496.65 275.297 494.181 281.775C468.562 289.061 451.733 261.936 426.876 266.027L429.686 280.087C452.683 280.844 467.047 302.896 490.806 301.948C487.431 308.69 492.312 326.451 477.357 319.351C461.835 315.622 450.612 301.948 433.602 301.948C431.55 305.716 432.849 310.934 432.49 315.391C450.434 318.207 463.339 333.373 481.279 336.173C479.591 342.338 477.919 349.241 472.866 353.001C458.272 349.45 446.872 336.343 431.335 336.717L428.568 349.628C443.334 350.008 452.875 363.071 466.145 366.992C466.509 372.438 461.642 377.304 458.838 382.165C447.057 378.627 438.073 368.507 424.613 369.253C424.427 364.182 427.437 358.424 426.301 353.001C411.184 357.497 401.047 343.451 389.842 335.025C389.52 307.451 360.492 289.362 358.959 263.531C358.665 258.381 359.45 252.883 361.796 246.975C371.336 224.916 368.34 196.277 357.878 175.71C354.7 170.298 349.067 166.025 343.818 162.843C351.498 179.119 360.857 198.349 356.186 218.354C355.644 233.803 346.529 248.639 346.425 263.531C346.39 268.841 347.523 274.151 350.577 279.513C362.739 301.417 384.62 322.152 376.392 349.623C374.13 358.061 367.393 364.586 365.712 373.173C379.941 384.957 393.394 398.235 412.273 398.983C418.999 394.687 415.263 375.635 429.101 384.423L449.306 394.529C447.834 399.938 443.306 404.786 439.205 408.51C431.538 404.779 424.06 400.306 414.502 400.671C411.683 403.661 409.257 407.018 409.473 411.309C416.199 412.417 422.369 415.255 427.988 419.189C425.38 424.808 420.295 428.329 415.621 432.632L399.947 427.028C397.33 430.773 391.895 434.708 393.802 438.817C397.339 440.332 401.262 442.379 403.865 445.003C396.947 452.481 388.178 457.291 379.741 462.367C372.473 438.612 348.526 421.957 350.582 394.486L349.469 393.375C343.84 399.703 345.721 409.823 346.084 418.036C352.821 435.242 368.889 448.532 371.326 467.401C368.513 472.257 362.169 473.225 357.303 475.281C357.868 441.261 306.265 415.459 339.357 381.047C350.393 364.197 368.884 348.117 362.332 324.918C355.606 302.52 331.814 288.641 332.024 263.531L332.061 261.573C337.48 235.388 353.942 207.525 340.475 179.668C336.722 168.464 328.336 155.732 316.93 151.049C333.935 170.513 340.677 202.27 330.948 228.461C326.045 238.879 319.295 251.29 318.618 263.536H318.577C318.216 269.932 319.522 276.292 323.648 282.323C336.56 303.273 358.986 326.285 346.086 353.586C331.503 375.454 306.074 397.698 320.275 426.5C330.558 443.702 346.465 460.866 342.174 482.013L325.346 487.616C336.565 448.174 281.586 424.999 304.601 385.544C318.811 364.416 344.225 344.592 329.839 316.551C321.238 299.176 303.467 288.893 304.028 267.18L304.64 263.535C310.43 232.74 333.839 203.592 317.471 170.684C313.17 160.968 304.574 151.061 295.034 145.447L294.457 146.024C313.54 164.534 319.345 194.991 309.057 219.474C304.257 233.838 293.721 248.147 291.58 263.54C290.561 270.797 291.42 278.319 295.614 286.242C307.766 305.486 329.077 325.9 315.779 350.779C301.774 371.329 278.394 391.324 287.733 418.047C298.019 441.428 319.498 463.7 307.901 492.691L290.536 496.612C304.368 468.359 283.628 440.325 271.479 415.822C256.7 380.668 303.233 363.834 303.979 331.694C303.803 310.949 281.749 299.17 277.088 280.099C267.543 272.046 257.649 283.301 246.238 281.212C237.814 282.904 224.875 269.616 219.846 284.02C213.857 305.138 186.574 320.664 198.565 345.712C209.974 367.971 237.432 384.248 228.26 413.054C220.048 439.96 192.919 465.579 209.744 496.612C202.833 494.373 189.926 498.659 190.112 487.618C179.459 450.037 224.888 428.142 210.857 390.581C204.327 367.574 174.575 354.864 181.125 327.192C185.967 304.414 211.528 288.49 207.942 263.538C207.652 261.449 207.137 259.311 206.403 257.082C196.862 230.157 177.398 203.225 189 171.801C192.185 162.825 198.547 155.16 204.137 147.138C185.624 157.045 176.286 177.993 176.669 199.304C175.862 222.479 192.981 242.331 195.417 263.538C196.375 272.097 194.973 280.861 189 290.157C176.856 306.636 160.974 324.01 168.255 345.708C175.178 367.594 202.475 380.852 200.792 406.292C200.607 436.383 165.641 455.119 175.551 488.773L158.148 483.127C151.238 453.222 183.019 437.921 183.384 410.252C187.882 378.432 147.298 366.626 149.734 335.608C149.559 312.041 170.304 297.116 179.466 277.292C181.037 272.468 181.56 267.91 181.35 263.54C180.227 241.622 160.478 224.486 163.755 199.843C164.858 181.707 171.028 165.81 182.812 152.17C166.554 158.702 159.837 177.418 155.346 193.127C147.552 218.316 166.157 240.973 168.023 263.541C168.85 273.507 166.414 283.415 157.037 293.546C143.567 309.419 129.907 329.448 139.632 350.783C149.931 374.322 182.285 392.645 168.251 422.006C160.595 440.52 142.263 454.535 143.016 476.404C138.158 474.346 133.119 472.296 128.991 468.566C128.991 440.711 168.615 423.313 149.736 393.958C148.063 399.75 147.703 407.621 146.394 414.165C139.842 431.188 125.824 444.814 120.578 462.413C111.806 459.027 102.634 451.914 95.3375 444.436L105.444 438.251C104.322 434.504 101.335 431.329 98.7227 428.151C92.1591 427.228 87.8495 431.534 82.4389 433.222C77.7646 429.1 73.2533 425.359 69.5269 420.311C72.8818 410.756 99.0958 418.657 85.8157 402.947C76.8502 397.341 67.8511 405.349 60 409.087L49.3571 395.644C58.5192 390.04 67.6578 382.169 79.0538 384.426C81.8624 389.483 82.0574 396.921 87.4679 399.562C106.73 399.187 120.378 384.617 135.144 373.208C124.853 357.894 116.476 336.753 125.617 318.234C132.943 299.676 152.028 284.046 152.894 263.53C153.089 258.86 152.361 253.947 150.319 248.659C140.227 222.666 136.666 187.535 155.928 164.528C145.455 167.341 139.279 180.395 135.721 190.306C124.142 215.688 138.787 239.203 139.293 263.528C139.362 267.903 139.007 272.288 137.946 276.706C128.033 296.711 111.971 314.263 109.362 337.284C97.9529 344.562 88.5857 357.289 72.3288 352.995C71.7573 357.291 73.0667 363.839 74.5576 368.705C61.6657 368.164 52.875 377.666 42.0203 382.153C36.2383 380.298 34.7339 372.823 32.4951 367.592C45.2004 363.301 54.3659 350.564 68.9537 350.766C70.6446 346.068 68.0057 341.763 67.2611 337.281C49.115 329.226 20.3512 377.096 17.9325 335.593C36.0651 334.47 47.6527 317.639 65.6106 315.961L66.1468 302.518C45.7668 300.459 32.6564 321.41 12.2849 319.345L7.79207 301.405C31.3572 302.878 45.397 281.76 67.8393 280.624C70.8211 276.702 71.1808 270.905 71.7556 265.488C47.2594 262.296 30.4495 289.443 4.45061 281.198C4.45061 281.198 3.55473 269.9 3.06897 263.53H3.10427C2.92778 261.039 2.7597 259.302 2.7597 259.302C25.9432 268.298 46.3131 251.646 66.1468 243.051C71.1909 241.541 79.0571 244.158 81.3195 238.554C81.1229 234.253 88.9672 229.224 82.4372 226.222C53.4414 222.287 34.1793 257.26 4.44724 241.358L2.2168 236.862C8.40221 152.359 56.0602 70.6606 135.144 30.4571C167.174 12.153 206.966 2.82278 247.095 2.49166C295.525 2.08994 344.46 14.7936 380.863 40.5622C416.214 62.2465 450.029 97.9823 468.38 134.259C485.931 166.044 494.009 201.709 496.421 239.679C465.75 262.854 445.173 217.845 413.94 227.918C415.623 232.789 416.554 237.828 420.124 241.941C447.805 241.746 466.867 270.73 495.843 259.307L495.868 263.531ZM143.548 159.458C124.1 146.74 99.4421 158.715 81.3161 165.642C79.6336 148.619 72.7204 133.11 58.3057 121.892C56.9073 121.196 54.9743 119.732 53.233 119.625C52.1909 119.559 51.1992 119.979 50.4294 121.312C56.9628 161.506 30.8344 189.552 12.3185 220.042C18.4838 225.081 28.3888 224.328 35.8668 222.847C55.4954 214.998 74.1928 201.336 97.5646 206.019C104.476 194.24 116.089 182.83 125.611 173.481C131.428 168.447 139.42 165.25 143.548 159.458ZM203.019 184.701C202.646 187.121 203.206 191.436 206.937 189.769C212.743 181.729 223.021 188.089 229.374 188.656V186.393C225.888 180.919 218.716 178.169 211.433 178.443C209.753 178.502 208.045 178.747 206.401 179.129C203.964 179.67 202.268 181.901 203.019 184.701ZM294.449 160.613C289.228 149.017 277.261 144.324 266.401 141.521C261.078 140.865 255.553 140.421 250.074 140.369C249.047 140.359 248.021 140.346 247 140.369C231.672 140.679 217.027 144.613 208.08 157.23C206.796 160.791 201.15 165.793 206.393 168.985C218.173 168.232 231.617 166.755 239.469 176.865C239.469 185.849 245.27 197.801 235.551 202.102C227.499 194.646 217.962 205.276 209.2 199.292C205.08 196.858 202.473 199.699 200.785 203.25C198.35 226.431 210.487 252.013 232.173 264.91C240.962 268.08 252.776 271.095 261.949 266.597C284.011 256.324 293.15 232.779 297.258 211.086C296.706 206.958 296.903 198.914 291.111 198.719C284.571 202.855 275.032 200.411 268.101 198.719C264.003 200.042 263.814 206.037 259.15 207.173L256.308 204.906C253.874 194.638 252.373 180.048 261.918 172.944C272.585 168.642 285.112 166.763 296.143 170.138C298.202 166.588 295.024 163.793 294.449 160.613ZM283.193 179.05C282.451 179.068 281.73 179.105 281.001 179.129C277.083 181.743 265.665 179.863 269.786 188.656C276.896 183.032 286.806 186.973 293.911 189.769C296.538 188.464 295.969 185.845 296.142 183.588C293.861 179.344 288.41 178.946 283.193 179.05ZM364.601 99.9943C350.762 99.2598 339.172 107.116 326.455 110.671C325.348 99.8497 333.568 88.4219 335.444 77.5587C314.883 78.8815 298.597 91.2574 281.587 101.144C277.651 91.6322 273.703 82.0717 269.793 72.5247L292.23 51.2035L292.805 48.3948L262.498 46.7073C257.278 37.5603 255.22 26.5425 249.05 18.1283C244.001 27.6636 240.609 37.7552 235.565 47.2821L205.293 48.9747V51.2035L228.268 71.9482C225.46 82.6113 222.85 94.1972 215.938 102.257C202.476 94.1938 189.206 85.4182 174.447 79.8194C170.895 78.6731 165.833 76.8091 162.654 79.2446C167.322 89.5312 173.859 100.596 172.759 111.824C166.586 110.688 161.733 106.729 155.933 105.065C148.996 103.173 140.765 99.4749 134.035 101.724C145.256 117.421 154.415 133.849 157.583 152.74C194.808 134.774 238.221 124.892 283.283 132.57C304.406 135.932 323.83 144.536 342.717 151.624C343.455 131.816 355.982 115.898 364.601 99.9943ZM428.526 207.708C447.583 212.752 466.701 233.515 486.881 220.043C469.306 190.88 443.148 163.948 450.422 125.81C451.184 123.206 449.501 120.571 447.081 120.201C435.68 124.86 426.851 136.093 422.339 147.135C420.484 153.665 419.384 160.606 416.771 166.761C403.112 159.653 388.538 152.767 371.898 154.431C365.897 155.179 357.295 155.572 356.187 161.732C375.071 171.824 390.6 188.666 402.173 206.6C410.231 205.286 420.112 206.409 428.526 207.708ZM228.835 234.065L229.373 237.445C236.679 242.313 238.927 250.562 249.042 249.812C258.012 250.345 264.742 241.941 269.212 235.215C257.073 233.539 242.302 236.132 228.835 234.065ZM238.937 218.929C239.301 220.427 238.011 222.671 240.049 223.427C246.033 222.128 256.873 226.61 260.214 219.506C257.881 216.892 254.072 215.705 250.075 215.705C246.08 215.705 241.934 216.87 238.937 218.929Z" fill="#007042"/>
<path opacity="0.99" d="M228.849 212.441H269.847V229.285H228.849V212.441Z" fill="white"/>
<path d="M236.422 221.447C241.72 222.701 243.031 224.58 247.218 225.105C251.669 225.026 251.027 224.122 258.79 221.442C259.3 221.263 260.001 220.138 259.132 219.276C254.311 214.491 250.98 217.909 247.958 218C243.949 218.044 240.189 214.568 236.272 219.086C235.605 220.004 235.257 220.905 236.422 221.447Z" fill="#007042"/>
<path d="M430.113 497.812V473.822H421.544V468.938H444.491V473.822H435.942V497.812H430.113Z" fill="#007042"/>
<path d="M448.195 497.812V468.936H456.92L462.16 488.633L467.34 468.936H476.085V497.812H470.668V475.082L464.936 497.812H459.322L453.611 475.082V497.812H448.195Z" fill="#007042"/>
</g>
</g>
<defs>
<clipPath id="clip0_1_419">
<rect width="500" height="503" fill="white"/>
</clipPath>
</defs>
</svg>
