<?xml version="1.0" encoding="UTF-8" ?>
<!DOCTYPE svg PUBLIC "-//W3C//DTD SVG 1.1//EN" "http://www.w3.org/Graphics/SVG/1.1/DTD/svg11.dtd">
<svg width="564pt" height="151pt" viewBox="0 0 564 151" version="1.1" xmlns="http://www.w3.org/2000/svg">
<g id="color_ffffffff">
<path fill="#ffffff" opacity="1.00" d=" M 471.54 15.53 C 475.90 9.78 482.68 5.84 489.89 5.16 C 495.73 4.67 501.92 6.61 505.95 10.98 C 510.86 15.92 512.18 23.60 510.36 30.17 C 509.35 33.80 508.37 37.45 507.30 41.07 C 518.21 32.80 532.97 30.73 545.94 34.80 C 551.02 36.39 556.75 38.76 558.86 44.09 C 560.52 47.81 559.52 52.07 557.49 55.43 C 554.63 60.12 552.44 65.81 547.05 68.16 C 553.43 74.11 556.55 83.31 555.14 91.92 C 554.28 98.53 551.00 104.65 546.70 109.66 C 538.57 118.69 525.88 123.21 513.86 121.61 C 504.59 120.37 495.09 117.58 487.93 111.31 C 490.42 116.91 491.45 123.35 489.17 129.21 C 486.23 137.56 478.86 144.24 470.21 146.22 C 462.36 148.33 453.09 145.27 448.70 138.27 C 444.70 132.27 444.99 124.32 447.76 117.89 C 436.62 121.47 424.28 123.71 412.88 120.03 C 404.96 117.53 398.73 110.81 396.69 102.78 C 387.68 115.61 371.58 123.63 355.85 121.55 C 347.54 120.55 339.50 116.24 334.74 109.26 C 332.37 106.08 331.12 102.29 329.80 98.60 C 324.97 107.21 317.74 114.80 308.41 118.44 C 296.91 122.97 282.91 122.69 272.57 115.43 C 267.06 111.68 263.67 105.62 261.58 99.43 C 256.83 107.74 250.09 115.40 240.92 118.83 C 234.67 121.30 227.81 121.65 221.19 121.02 C 220.13 125.67 218.97 130.29 217.75 134.90 C 216.65 139.28 212.81 142.66 208.44 143.60 C 203.37 144.73 198.26 145.69 193.17 146.71 C 188.72 147.58 183.77 145.21 182.01 140.97 C 180.61 138.09 181.03 134.77 181.79 131.78 C 183.25 125.99 184.67 120.19 186.16 114.41 C 181.05 116.62 175.76 118.38 170.56 120.38 C 166.62 121.91 162.02 121.34 158.82 118.50 C 150.05 121.99 139.54 122.73 131.03 118.16 C 124.08 114.51 120.02 106.70 119.97 98.99 C 119.69 86.93 125.79 75.19 135.28 67.88 C 129.30 67.93 123.32 67.82 117.33 67.94 C 114.57 81.80 111.51 95.60 108.59 109.42 C 107.74 114.53 103.29 118.80 98.05 119.01 C 92.37 119.19 86.66 119.33 80.98 118.89 C 75.21 118.00 71.35 111.81 72.56 106.20 C 75.04 93.43 78.00 80.74 80.56 67.98 C 76.12 67.71 72.05 65.40 69.68 61.62 C 67.33 64.93 64.33 68.36 60.07 68.94 C 55.94 69.63 52.76 66.33 48.92 65.60 C 46.54 65.65 45.74 68.22 45.02 70.05 C 42.98 76.00 40.98 82.25 41.69 88.62 C 46.79 87.41 51.39 83.44 56.89 84.55 C 61.34 85.23 64.72 89.12 65.53 93.43 C 66.60 98.85 68.96 104.79 66.07 110.06 C 62.53 116.09 55.33 118.41 48.96 120.12 C 37.13 122.73 23.32 121.45 14.06 112.92 C 6.34 105.95 3.61 95.06 4.17 84.98 C 5.03 72.84 8.38 60.54 15.71 50.65 C 23.42 39.71 36.59 32.82 49.99 32.86 C 58.07 32.56 66.77 34.35 72.78 40.10 C 75.13 36.91 78.95 34.81 82.96 34.99 C 97.67 35.03 112.40 34.95 127.11 35.03 C 131.63 35.14 135.42 38.37 137.22 42.36 C 146.33 34.89 158.57 33.24 169.92 32.23 C 178.35 32.15 187.88 33.60 193.73 40.31 C 197.76 44.65 198.31 50.78 199.92 56.21 C 200.48 51.27 199.33 45.67 202.63 41.47 C 206.30 36.58 212.88 36.16 218.21 34.19 C 222.91 32.34 228.50 32.19 232.69 35.34 C 241.75 31.93 252.65 31.54 261.02 36.98 C 266.38 40.38 269.53 46.23 271.03 52.26 C 274.95 46.97 279.98 42.56 285.83 39.52 C 282.35 37.66 279.99 33.94 279.97 29.97 C 279.82 24.26 278.13 17.80 281.78 12.79 C 286.35 6.53 294.84 5.87 301.94 5.45 C 312.55 5.36 323.71 8.84 330.83 17.05 C 339.02 26.18 341.24 39.02 340.99 50.91 C 349.43 39.90 362.91 32.38 376.98 32.86 C 387.27 32.71 397.87 37.73 403.22 46.73 C 404.94 49.26 405.60 52.40 407.59 54.74 C 407.98 51.98 406.60 49.19 407.60 46.50 C 409.06 41.36 414.16 38.55 418.86 36.87 C 429.92 33.00 442.61 31.41 453.61 36.31 C 457.75 38.02 461.02 41.15 463.92 44.47 C 466.25 34.81 464.96 23.68 471.54 15.53 M 488.38 13.49 C 480.38 15.25 474.40 22.80 474.05 30.91 C 471.12 51.25 467.90 71.55 465.04 91.89 C 464.20 95.89 466.93 100.19 470.97 100.92 C 477.36 102.30 483.65 97.33 485.25 91.28 C 491.02 70.33 496.81 49.39 502.58 28.44 C 503.75 24.48 503.25 19.79 500.36 16.68 C 497.42 13.36 492.54 12.56 488.38 13.49 M 293.44 14.56 C 290.96 15.13 288.09 16.34 287.56 19.15 C 287.34 23.07 287.30 27.09 288.18 30.93 C 288.68 33.21 291.37 32.52 292.97 32.07 C 298.66 30.51 305.33 30.21 310.42 33.64 C 315.01 36.85 316.09 42.91 316.07 48.13 C 309.72 42.98 300.70 42.25 293.19 45.09 C 283.86 48.24 276.87 56.12 272.92 64.93 C 268.52 74.86 266.55 86.26 269.30 96.91 C 270.92 103.22 275.37 108.82 281.44 111.33 C 292.80 115.88 306.77 113.12 315.46 104.47 C 323.28 96.93 327.06 86.29 329.41 75.92 C 331.72 65.12 333.54 54.02 332.72 42.95 C 332.01 33.86 328.67 24.21 320.93 18.78 C 313.02 13.31 302.62 12.31 293.44 14.56 M 147.34 44.51 C 145.43 45.22 143.38 46.75 143.50 49.01 C 143.62 52.55 143.85 56.12 144.50 59.61 C 144.89 61.60 147.28 62.04 148.87 61.20 C 154.49 58.71 160.68 57.19 166.85 57.82 C 171.20 58.76 169.53 63.92 168.82 66.95 C 161.48 67.01 154.04 67.82 147.12 70.38 C 134.92 74.68 126.70 88.02 128.21 100.83 C 128.86 106.18 132.81 110.79 137.96 112.34 C 146.23 114.81 155.44 112.55 162.24 107.40 C 162.97 109.58 163.32 112.46 165.80 113.38 C 170.98 112.17 175.90 110.00 180.87 108.12 C 182.63 107.67 182.97 105.61 182.47 104.13 C 181.63 99.99 181.86 95.71 182.75 91.60 C 185.13 81.20 188.00 70.91 190.30 60.49 C 191.19 55.45 191.10 49.52 187.44 45.52 C 183.60 41.25 177.44 40.46 172.01 40.26 C 163.64 40.27 155.14 41.39 147.34 44.51 M 42.53 41.70 C 36.50 43.07 30.82 46.08 26.42 50.44 C 18.09 58.36 14.05 69.75 12.56 80.93 C 12.01 87.28 11.75 94.00 14.47 99.95 C 16.84 105.72 21.99 110.09 27.94 111.86 C 36.96 114.61 46.97 113.49 55.41 109.40 C 57.50 108.38 59.74 106.56 59.54 103.98 C 59.06 100.54 58.39 97.09 57.25 93.81 C 56.82 91.96 54.35 92.32 53.02 92.76 C 48.57 94.37 44.06 97.47 39.11 96.13 C 35.44 95.38 33.57 91.47 33.56 88.01 C 33.27 79.77 35.67 71.62 38.96 64.14 C 41.29 58.70 48.16 56.10 53.51 58.68 C 55.79 59.29 58.13 61.75 60.52 60.34 C 63.12 57.29 65.68 54.11 67.62 50.60 C 69.14 47.67 66.60 44.77 64.09 43.53 C 57.45 40.27 49.65 40.20 42.53 41.70 M 210.84 44.75 C 206.87 46.18 208.85 50.93 208.41 54.03 C 207.41 62.89 204.74 71.45 202.72 80.11 C 198.30 98.03 193.87 115.96 189.40 133.87 C 188.90 135.46 188.74 137.53 190.29 138.61 C 194.65 138.99 198.85 137.23 203.14 136.66 C 205.78 136.05 209.68 135.88 210.25 132.54 C 212.04 125.43 213.84 118.32 215.53 111.18 C 226.05 115.51 239.18 113.42 247.38 105.36 C 255.15 97.87 259.03 87.37 261.48 77.09 C 263.37 69.12 264.86 60.63 262.69 52.56 C 261.24 46.71 256.11 42.11 250.16 41.24 C 242.73 39.61 235.15 42.22 228.95 46.25 C 228.50 44.02 228.01 40.86 225.14 40.65 C 220.26 41.52 215.54 43.20 210.84 44.75 M 368.51 41.71 C 355.00 44.86 344.73 56.21 340.43 69.08 C 337.01 79.43 334.81 91.25 339.44 101.58 C 342.78 109.11 350.92 113.59 358.97 113.79 C 369.51 114.48 379.99 109.71 387.00 101.93 C 395.45 92.76 399.34 80.22 400.22 67.98 C 400.55 60.64 399.02 52.60 393.57 47.28 C 387.13 40.88 377.04 39.51 368.51 41.71 M 417.48 46.24 C 413.81 48.15 415.68 52.65 416.22 55.77 C 416.83 57.79 416.94 61.74 420.06 60.94 C 425.53 59.33 431.14 56.50 436.98 57.85 C 439.96 58.37 441.21 62.18 439.35 64.47 C 436.66 67.77 432.30 68.90 428.55 70.52 C 421.12 73.38 413.07 76.39 408.06 82.93 C 403.69 88.76 402.91 96.93 405.54 103.64 C 408.04 109.77 414.63 113.04 420.92 113.64 C 430.15 114.42 439.56 112.74 448.08 109.15 C 450.17 108.17 452.99 106.72 452.73 103.99 C 452.32 100.08 451.92 96.09 450.47 92.40 C 449.25 92.39 447.97 92.18 446.82 92.71 C 440.81 95.04 434.64 98.05 428.02 97.45 C 426.18 97.42 424.35 95.91 424.49 93.96 C 424.18 90.32 427.28 87.65 430.22 86.15 C 438.30 81.97 447.87 80.13 454.47 73.48 C 460.10 68.10 461.35 59.25 458.77 52.11 C 456.65 46.35 450.84 42.84 445.00 41.89 C 435.69 40.25 425.90 42.12 417.48 46.24 M 524.52 41.60 C 514.47 43.81 505.58 51.59 502.77 61.59 C 501.09 67.42 502.13 74.19 506.18 78.82 C 510.19 83.15 516.13 84.54 521.44 86.58 C 523.60 87.53 526.31 88.54 526.94 91.11 C 527.34 93.93 524.82 96.53 522.01 96.48 C 515.85 96.77 510.06 94.12 504.64 91.50 C 503.01 90.52 500.64 90.90 499.76 92.68 C 497.79 95.79 496.00 99.04 494.52 102.41 C 493.44 104.87 495.12 107.51 497.43 108.48 C 505.51 112.61 514.84 114.69 523.90 113.47 C 534.89 111.75 544.75 103.11 547.01 92.08 C 548.73 84.81 545.75 76.59 539.57 72.31 C 534.82 68.82 528.67 68.32 523.68 65.35 C 520.82 63.82 522.17 59.73 524.83 58.85 C 530.49 56.58 536.42 59.36 541.94 60.67 C 544.41 61.44 546.17 59.17 547.24 57.30 C 548.77 54.54 550.78 51.95 551.56 48.85 C 552.17 46.19 549.29 44.79 547.33 43.81 C 540.21 40.77 532.10 39.95 524.52 41.60 M 80.29 43.50 C 78.16 46.93 77.98 51.17 77.06 55.03 C 76.44 56.79 77.07 59.10 79.03 59.65 C 82.86 59.89 86.71 59.65 90.55 59.74 C 87.17 75.17 83.90 90.62 80.65 106.08 C 80.37 107.77 79.96 110.21 82.05 110.90 C 86.96 111.59 91.98 111.27 96.93 111.15 C 99.79 111.40 100.80 108.40 101.18 106.15 C 104.44 90.67 107.75 75.21 111.04 59.74 C 115.32 59.67 119.61 59.85 123.90 59.68 C 126.09 59.67 126.75 57.24 127.37 55.57 C 128.29 52.44 129.57 49.34 129.73 46.05 C 129.72 44.10 127.87 42.72 125.99 43.01 C 112.35 42.96 98.70 43.04 85.05 42.98 C 83.46 43.03 81.79 42.87 80.29 43.50 M 465.47 111.63 C 459.43 113.95 454.54 119.56 453.70 126.07 C 452.98 131.09 455.81 136.70 460.89 138.12 C 469.72 140.94 479.48 134.38 481.88 125.80 C 483.28 121.49 482.32 116.20 478.65 113.30 C 475.13 110.05 469.74 110.03 465.47 111.63 Z" />
<path fill="#ffffff" opacity="1.00" d=" M 227.44 61.73 C 230.41 59.27 234.02 57.37 237.96 57.31 C 240.14 57.50 242.39 58.85 242.94 61.09 C 244.39 65.74 242.78 70.57 241.76 75.14 C 240.11 81.02 239.34 87.51 235.39 92.41 C 231.56 97.13 224.38 97.99 219.21 95.02 C 222.04 83.95 224.80 72.85 227.44 61.73 Z" />
<path fill="#ffffff" opacity="1.00" d=" M 370.21 58.23 C 372.56 57.77 375.64 57.61 377.21 59.82 C 379.31 62.80 379.02 66.68 378.57 70.10 C 377.51 76.73 376.33 83.44 373.64 89.63 C 372.21 92.91 369.58 96.05 365.87 96.67 C 363.40 97.15 360.17 96.41 359.15 93.86 C 357.86 91.41 358.04 88.53 358.32 85.88 C 359.24 79.40 360.43 72.90 362.75 66.76 C 364.19 63.24 366.28 59.39 370.21 58.23 Z" />
<path fill="#ffffff" opacity="1.00" d=" M 299.39 60.59 C 302.11 59.75 306.06 59.53 307.64 62.43 C 309.99 67.37 308.37 72.98 307.62 78.10 C 306.41 83.95 305.04 90.34 300.54 94.62 C 297.51 97.13 292.06 98.13 289.40 94.63 C 286.67 89.26 288.87 83.07 289.62 77.47 C 291.02 71.19 292.70 63.26 299.39 60.59 Z" />
<path fill="#ffffff" opacity="1.00" d=" M 148.61 86.71 C 152.69 81.84 159.60 81.34 165.50 81.00 C 164.69 85.13 163.35 89.14 162.55 93.27 C 158.79 95.85 154.04 98.77 149.38 96.73 C 145.86 94.72 146.39 89.50 148.61 86.71 Z" />
</g>
<g id="color_060808ff">
<path fill="#060808" opacity="1.00" d=" M 278.23 10.22 C 282.64 3.88 290.68 2.03 297.92 1.30 C 309.34 0.35 321.59 2.95 330.45 10.57 C 339.25 17.90 343.67 29.25 344.93 40.40 C 355.75 30.99 370.97 26.20 385.13 29.35 C 392.89 30.95 400.00 35.30 404.97 41.47 C 409.55 34.76 417.76 32.34 425.24 30.46 C 437.16 27.76 450.63 28.24 460.97 35.42 C 461.99 28.83 462.26 21.80 465.94 16.00 C 471.28 7.02 481.37 0.48 492.01 0.95 C 499.11 0.54 506.07 4.03 510.52 9.46 C 515.43 15.74 516.78 24.38 514.42 31.95 C 527.14 26.56 542.08 27.42 554.39 33.50 C 559.68 36.10 563.80 41.39 564.00 47.42 L 564.00 48.74 C 563.86 51.55 563.09 54.31 561.72 56.76 C 559.36 61.03 557.02 65.36 553.85 69.10 C 557.73 74.97 560.20 81.93 559.85 89.03 C 559.21 102.67 550.46 115.32 538.38 121.46 C 524.97 128.58 508.46 126.92 494.95 120.94 C 495.16 135.92 482.67 149.73 467.75 151.00 L 462.39 151.00 C 453.74 150.35 445.68 144.41 442.80 136.18 C 441.31 132.40 441.14 128.30 441.34 124.30 C 431.67 126.31 421.29 127.20 411.73 124.24 C 404.89 122.11 399.00 117.38 395.41 111.18 C 386.22 120.54 373.28 126.61 360.02 126.04 C 347.32 126.49 334.74 119.37 328.82 108.09 C 317.01 124.08 293.88 130.46 275.70 122.26 C 269.39 119.51 264.26 114.55 260.73 108.69 C 252.60 120.11 238.56 126.64 224.59 125.70 C 222.64 132.19 222.37 140.00 216.53 144.48 C 210.02 149.26 201.43 148.96 193.91 151.00 L 188.40 151.00 C 182.64 149.89 177.62 145.04 177.03 139.10 C 176.18 133.06 178.67 127.33 179.84 121.52 C 175.90 122.99 172.04 124.79 167.89 125.56 C 164.44 126.25 161.10 124.78 157.96 123.56 C 147.31 127.00 134.63 126.82 125.48 119.70 C 118.44 114.42 115.41 105.40 115.46 96.85 C 114.61 102.35 113.60 107.86 112.01 113.20 C 109.86 119.61 103.26 123.48 96.70 123.61 C 90.54 123.62 84.20 124.30 78.19 122.65 C 73.88 121.39 70.74 117.87 68.88 113.91 C 63.81 120.42 55.57 123.21 47.78 124.82 C 35.73 127.14 22.25 125.27 12.52 117.36 C 4.94 111.33 0.74 101.84 0.00 92.31 L 0.00 82.45 C 0.90 72.65 3.50 62.93 8.21 54.26 C 13.97 43.72 23.38 34.89 34.90 31.09 C 47.05 26.99 61.22 27.18 72.37 34.01 C 75.54 31.96 79.15 30.57 82.97 30.62 C 97.32 30.60 111.68 30.60 126.03 30.62 C 130.72 30.56 135.23 32.56 138.39 36.00 C 148.54 30.26 160.41 28.17 171.95 27.99 C 181.85 27.81 192.62 30.95 198.58 39.37 C 201.11 36.18 204.54 33.75 208.46 32.60 C 213.64 31.09 218.74 29.13 224.11 28.40 C 227.45 27.98 230.53 29.66 233.70 30.36 C 239.39 28.84 245.34 27.55 251.22 28.88 C 260.28 29.85 268.54 35.58 272.62 43.74 C 274.49 42.05 276.41 40.42 278.39 38.86 C 276.71 35.84 275.53 32.52 275.40 29.05 C 275.14 22.73 274.13 15.63 278.23 10.22 M 471.54 15.53 C 464.96 23.68 466.25 34.81 463.92 44.47 C 461.02 41.15 457.75 38.02 453.61 36.31 C 442.61 31.41 429.92 33.00 418.86 36.87 C 414.16 38.55 409.06 41.36 407.60 46.50 C 406.60 49.19 407.98 51.98 407.59 54.74 C 405.60 52.40 404.94 49.26 403.22 46.73 C 397.87 37.73 387.27 32.71 376.98 32.86 C 362.91 32.38 349.43 39.90 340.99 50.91 C 341.24 39.02 339.02 26.18 330.83 17.05 C 323.71 8.84 312.55 5.36 301.94 5.45 C 294.84 5.87 286.35 6.53 281.78 12.79 C 278.13 17.80 279.82 24.26 279.97 29.97 C 279.99 33.94 282.35 37.66 285.83 39.52 C 279.98 42.56 274.95 46.97 271.03 52.26 C 269.53 46.23 266.38 40.38 261.02 36.98 C 252.65 31.54 241.75 31.93 232.69 35.34 C 228.50 32.19 222.91 32.34 218.21 34.19 C 212.88 36.16 206.30 36.58 202.63 41.47 C 199.33 45.67 200.48 51.27 199.92 56.21 C 198.31 50.78 197.76 44.65 193.73 40.31 C 187.88 33.60 178.35 32.15 169.92 32.23 C 158.57 33.24 146.33 34.89 137.22 42.36 C 135.42 38.37 131.63 35.14 127.11 35.03 C 112.40 34.95 97.67 35.03 82.96 34.99 C 78.95 34.81 75.13 36.91 72.78 40.10 C 66.77 34.35 58.07 32.56 49.99 32.86 C 36.59 32.82 23.42 39.71 15.71 50.65 C 8.38 60.54 5.03 72.84 4.17 84.98 C 3.61 95.06 6.34 105.95 14.06 112.92 C 23.32 121.45 37.13 122.73 48.96 120.12 C 55.33 118.41 62.53 116.09 66.07 110.06 C 68.96 104.79 66.60 98.85 65.53 93.43 C 64.72 89.12 61.34 85.23 56.89 84.55 C 51.39 83.44 46.79 87.41 41.69 88.62 C 40.98 82.25 42.98 76.00 45.02 70.05 C 45.74 68.22 46.54 65.65 48.92 65.60 C 52.76 66.33 55.94 69.63 60.07 68.94 C 64.33 68.36 67.33 64.93 69.68 61.62 C 72.05 65.40 76.12 67.71 80.56 67.98 C 78.00 80.74 75.04 93.43 72.56 106.20 C 71.35 111.81 75.21 118.00 80.98 118.89 C 86.66 119.33 92.37 119.19 98.05 119.01 C 103.29 118.80 107.74 114.53 108.59 109.42 C 111.51 95.60 114.57 81.80 117.33 67.94 C 123.32 67.82 129.30 67.93 135.28 67.88 C 125.79 75.19 119.69 86.93 119.97 98.99 C 120.02 106.70 124.08 114.51 131.03 118.16 C 139.54 122.73 150.05 121.99 158.82 118.50 C 162.02 121.34 166.62 121.91 170.56 120.38 C 175.76 118.38 181.05 116.62 186.16 114.41 C 184.67 120.19 183.25 125.99 181.79 131.78 C 181.03 134.77 180.61 138.09 182.01 140.97 C 183.77 145.21 188.72 147.58 193.17 146.71 C 198.26 145.69 203.37 144.73 208.44 143.60 C 212.81 142.66 216.65 139.28 217.75 134.90 C 218.97 130.29 220.13 125.67 221.19 121.02 C 227.81 121.65 234.67 121.30 240.92 118.83 C 250.09 115.40 256.83 107.74 261.58 99.43 C 263.67 105.62 267.06 111.68 272.57 115.43 C 282.91 122.69 296.91 122.97 308.41 118.44 C 317.74 114.80 324.97 107.21 329.80 98.60 C 331.12 102.29 332.37 106.08 334.74 109.26 C 339.50 116.24 347.54 120.55 355.85 121.55 C 371.58 123.63 387.68 115.61 396.69 102.78 C 398.73 110.81 404.96 117.53 412.88 120.03 C 424.28 123.71 436.62 121.47 447.76 117.89 C 444.99 124.32 444.70 132.27 448.70 138.27 C 453.09 145.27 462.36 148.33 470.21 146.22 C 478.86 144.24 486.23 137.56 489.17 129.21 C 491.45 123.35 490.42 116.91 487.93 111.31 C 495.09 117.58 504.59 120.37 513.86 121.61 C 525.88 123.21 538.57 118.69 546.70 109.66 C 551.00 104.65 554.28 98.53 555.14 91.92 C 556.55 83.31 553.43 74.11 547.05 68.16 C 552.44 65.81 554.63 60.12 557.49 55.43 C 559.52 52.07 560.52 47.81 558.86 44.09 C 556.75 38.76 551.02 36.39 545.94 34.80 C 532.97 30.73 518.21 32.80 507.30 41.07 C 508.37 37.45 509.35 33.80 510.36 30.17 C 512.18 23.60 510.86 15.92 505.95 10.98 C 501.92 6.61 495.73 4.67 489.89 5.16 C 482.68 5.84 475.90 9.78 471.54 15.53 M 60.90 73.14 C 56.92 73.90 53.05 72.19 49.64 70.31 C 47.98 74.09 47.02 78.12 46.20 82.15 C 51.38 79.74 57.85 79.00 62.86 82.21 C 67.56 84.90 69.68 90.34 70.46 95.45 C 71.77 87.36 73.88 79.43 75.37 71.38 C 73.44 70.65 71.60 69.69 69.86 68.57 C 67.26 70.71 64.37 72.84 60.90 73.14 M 120.98 72.00 C 120.32 75.39 119.52 78.75 119.07 82.17 C 120.42 78.47 122.51 75.12 124.88 72.00 C 123.58 72.00 122.28 72.00 120.98 72.00 Z" />
</g>
<g id="color_ffcf00ff">
<path fill="#ffcf00" opacity="1.00" d=" M 488.38 13.49 C 492.54 12.56 497.42 13.36 500.36 16.68 C 503.25 19.79 503.75 24.48 502.58 28.44 C 496.81 49.39 491.02 70.33 485.25 91.28 C 483.65 97.33 477.36 102.30 470.97 100.92 C 466.93 100.19 464.20 95.89 465.04 91.89 C 467.90 71.55 471.12 51.25 474.05 30.91 C 474.40 22.80 480.38 15.25 488.38 13.49 Z" />
<path fill="#ffcf00" opacity="1.00" d=" M 465.47 111.63 C 469.74 110.03 475.13 110.05 478.65 113.30 C 482.32 116.20 483.28 121.49 481.88 125.80 C 479.48 134.38 469.72 140.94 460.89 138.12 C 455.81 136.70 452.98 131.09 453.70 126.07 C 454.54 119.56 459.43 113.95 465.47 111.63 Z" />
</g>
<g id="color_ff0300ff">
<path fill="#ff0300" opacity="1.00" d=" M 293.44 14.56 C 302.62 12.31 313.02 13.31 320.93 18.78 C 328.67 24.21 332.01 33.86 332.72 42.95 C 333.54 54.02 331.72 65.12 329.41 75.92 C 327.06 86.29 323.28 96.93 315.46 104.47 C 306.77 113.12 292.80 115.88 281.44 111.33 C 275.37 108.82 270.92 103.22 269.30 96.91 C 266.55 86.26 268.52 74.86 272.92 64.93 C 276.87 56.12 283.86 48.24 293.19 45.09 C 300.70 42.25 309.72 42.98 316.07 48.13 C 316.09 42.91 315.01 36.85 310.42 33.64 C 305.33 30.21 298.66 30.51 292.97 32.07 C 291.37 32.52 288.68 33.21 288.18 30.93 C 287.30 27.09 287.34 23.07 287.56 19.15 C 288.09 16.34 290.96 15.13 293.44 14.56 M 299.39 60.59 C 292.70 63.26 291.02 71.19 289.62 77.47 C 288.87 83.07 286.67 89.26 289.40 94.63 C 292.06 98.13 297.51 97.13 300.54 94.62 C 305.04 90.34 306.41 83.95 307.62 78.10 C 308.37 72.98 309.99 67.37 307.64 62.43 C 306.06 59.53 302.11 59.75 299.39 60.59 Z" />
<path fill="#ff0300" opacity="1.00" d=" M 147.34 44.51 C 155.14 41.39 163.64 40.27 172.01 40.26 C 177.44 40.46 183.60 41.25 187.44 45.52 C 191.10 49.52 191.19 55.45 190.30 60.49 C 188.00 70.91 185.13 81.20 182.75 91.60 C 181.86 95.71 181.63 99.99 182.47 104.13 C 182.97 105.61 182.63 107.67 180.87 108.12 C 175.90 110.00 170.98 112.17 165.80 113.38 C 163.32 112.46 162.97 109.58 162.24 107.40 C 155.44 112.55 146.23 114.81 137.96 112.34 C 132.81 110.79 128.86 106.18 128.21 100.83 C 126.70 88.02 134.92 74.68 147.12 70.38 C 154.04 67.82 161.48 67.01 168.82 66.95 C 169.53 63.92 171.20 58.76 166.85 57.82 C 160.68 57.19 154.49 58.71 148.87 61.20 C 147.28 62.04 144.89 61.60 144.50 59.61 C 143.85 56.12 143.62 52.55 143.50 49.01 C 143.38 46.75 145.43 45.22 147.34 44.51 M 148.61 86.71 C 146.39 89.50 145.86 94.72 149.38 96.73 C 154.04 98.77 158.79 95.85 162.55 93.27 C 163.35 89.14 164.69 85.13 165.50 81.00 C 159.60 81.34 152.69 81.84 148.61 86.71 Z" />
<path fill="#ff0300" opacity="1.00" d=" M 42.53 41.70 C 49.65 40.20 57.45 40.27 64.09 43.53 C 66.60 44.77 69.14 47.67 67.62 50.60 C 65.68 54.11 63.12 57.29 60.52 60.34 C 58.13 61.75 55.79 59.29 53.51 58.68 C 48.16 56.10 41.29 58.70 38.96 64.14 C 35.67 71.62 33.27 79.77 33.56 88.01 C 33.57 91.47 35.44 95.38 39.11 96.13 C 44.06 97.47 48.57 94.37 53.02 92.76 C 54.35 92.32 56.82 91.96 57.25 93.81 C 58.39 97.09 59.06 100.54 59.54 103.98 C 59.74 106.56 57.50 108.38 55.41 109.40 C 46.97 113.49 36.96 114.61 27.94 111.86 C 21.99 110.09 16.84 105.72 14.47 99.95 C 11.75 94.00 12.01 87.28 12.56 80.93 C 14.05 69.75 18.09 58.36 26.42 50.44 C 30.82 46.08 36.50 43.07 42.53 41.70 Z" />
<path fill="#ff0300" opacity="1.00" d=" M 210.84 44.75 C 215.54 43.20 220.26 41.52 225.14 40.65 C 228.01 40.86 228.50 44.02 228.95 46.25 C 235.15 42.22 242.73 39.61 250.16 41.24 C 256.11 42.11 261.24 46.71 262.69 52.56 C 264.86 60.63 263.37 69.12 261.48 77.09 C 259.03 87.37 255.15 97.87 247.38 105.36 C 239.18 113.42 226.05 115.51 215.53 111.18 C 213.84 118.32 212.04 125.43 210.25 132.54 C 209.68 135.88 205.78 136.05 203.14 136.66 C 198.85 137.23 194.65 138.99 190.29 138.61 C 188.74 137.53 188.90 135.46 189.40 133.87 C 193.87 115.96 198.30 98.03 202.72 80.11 C 204.74 71.45 207.41 62.89 208.41 54.03 C 208.85 50.93 206.87 46.18 210.84 44.75 M 227.44 61.73 C 224.80 72.85 222.04 83.95 219.21 95.02 C 224.38 97.99 231.56 97.13 235.39 92.41 C 239.34 87.51 240.11 81.02 241.76 75.14 C 242.78 70.57 244.39 65.74 242.94 61.09 C 242.39 58.85 240.14 57.50 237.96 57.31 C 234.02 57.37 230.41 59.27 227.44 61.73 Z" />
<path fill="#ff0300" opacity="1.00" d=" M 368.51 41.71 C 377.04 39.51 387.13 40.88 393.57 47.28 C 399.02 52.60 400.55 60.64 400.22 67.98 C 399.34 80.22 395.45 92.76 387.00 101.93 C 379.99 109.71 369.51 114.48 358.97 113.79 C 350.92 113.59 342.78 109.11 339.44 101.58 C 334.81 91.25 337.01 79.43 340.43 69.08 C 344.73 56.21 355.00 44.86 368.51 41.71 M 370.21 58.23 C 366.28 59.39 364.19 63.24 362.75 66.76 C 360.43 72.90 359.24 79.40 358.32 85.88 C 358.04 88.53 357.86 91.41 359.15 93.86 C 360.17 96.41 363.40 97.15 365.87 96.67 C 369.58 96.05 372.21 92.91 373.64 89.63 C 376.33 83.44 377.51 76.73 378.57 70.10 C 379.02 66.68 379.31 62.80 377.21 59.82 C 375.64 57.61 372.56 57.77 370.21 58.23 Z" />
<path fill="#ff0300" opacity="1.00" d=" M 417.48 46.24 C 425.90 42.12 435.69 40.25 445.00 41.89 C 450.84 42.84 456.65 46.35 458.77 52.11 C 461.35 59.25 460.10 68.10 454.47 73.48 C 447.87 80.13 438.30 81.97 430.22 86.15 C 427.28 87.65 424.18 90.32 424.49 93.96 C 424.35 95.91 426.18 97.42 428.02 97.45 C 434.64 98.05 440.81 95.04 446.82 92.71 C 447.97 92.18 449.25 92.39 450.47 92.40 C 451.92 96.09 452.32 100.08 452.73 103.99 C 452.99 106.72 450.17 108.17 448.08 109.15 C 439.56 112.74 430.15 114.42 420.92 113.64 C 414.63 113.04 408.04 109.77 405.54 103.64 C 402.91 96.93 403.69 88.76 408.06 82.93 C 413.07 76.39 421.12 73.38 428.55 70.52 C 432.30 68.90 436.66 67.77 439.35 64.47 C 441.21 62.18 439.96 58.37 436.98 57.85 C 431.14 56.50 425.53 59.33 420.06 60.94 C 416.94 61.74 416.83 57.79 416.22 55.77 C 415.68 52.65 413.81 48.15 417.48 46.24 Z" />
<path fill="#ff0300" opacity="1.00" d=" M 524.52 41.60 C 532.10 39.95 540.21 40.77 547.33 43.81 C 549.29 44.79 552.17 46.19 551.56 48.85 C 550.78 51.95 548.77 54.54 547.24 57.30 C 546.17 59.17 544.41 61.44 541.94 60.67 C 536.42 59.36 530.49 56.58 524.83 58.85 C 522.17 59.73 520.82 63.82 523.68 65.35 C 528.67 68.32 534.82 68.82 539.57 72.31 C 545.75 76.59 548.73 84.81 547.01 92.08 C 544.75 103.11 534.89 111.75 523.90 113.47 C 514.84 114.69 505.51 112.61 497.43 108.48 C 495.12 107.51 493.44 104.87 494.52 102.41 C 496.00 99.04 497.79 95.79 499.76 92.68 C 500.64 90.90 503.01 90.52 504.64 91.50 C 510.06 94.12 515.85 96.77 522.01 96.48 C 524.82 96.53 527.34 93.93 526.94 91.11 C 526.31 88.54 523.60 87.53 521.44 86.58 C 516.13 84.54 510.19 83.15 506.18 78.82 C 502.13 74.19 501.09 67.42 502.77 61.59 C 505.58 51.59 514.47 43.81 524.52 41.60 Z" />
<path fill="#ff0300" opacity="1.00" d=" M 80.29 43.50 C 81.79 42.87 83.46 43.03 85.05 42.98 C 98.70 43.04 112.35 42.96 125.99 43.01 C 127.87 42.72 129.72 44.10 129.73 46.05 C 129.57 49.34 128.29 52.44 127.37 55.57 C 126.75 57.24 126.09 59.67 123.90 59.68 C 119.61 59.85 115.32 59.67 111.04 59.74 C 107.75 75.21 104.44 90.67 101.18 106.15 C 100.80 108.40 99.79 111.40 96.93 111.15 C 91.98 111.27 86.96 111.59 82.05 110.90 C 79.96 110.21 80.37 107.77 80.65 106.08 C 83.90 90.62 87.17 75.17 90.55 59.74 C 86.71 59.65 82.86 59.89 79.03 59.65 C 77.07 59.10 76.44 56.79 77.06 55.03 C 77.98 51.17 78.16 46.93 80.29 43.50 Z" />
</g>
</svg>
