<?xml version="1.0" encoding="UTF-8" standalone="no"?>
<!-- Created with Inkscape (http://www.inkscape.org/) -->

<svg
   xmlns:dc="http://purl.org/dc/elements/1.1/"
   xmlns:cc="http://creativecommons.org/ns#"
   xmlns:rdf="http://www.w3.org/1999/02/22-rdf-syntax-ns#"
   xmlns:svg="http://www.w3.org/2000/svg"
   xmlns="http://www.w3.org/2000/svg"
   xmlns:sodipodi="http://sodipodi.sourceforge.net/DTD/sodipodi-0.dtd"
   xmlns:inkscape="http://www.inkscape.org/namespaces/inkscape"
   width="104.8156mm"
   height="25.919107mm"
   viewBox="0 0 371.39385 91.839357"
   id="svg2"
   version="1.1"
   inkscape:version="0.91 r13725"
   sodipodi:docname="Subway_restaurant_2017_logo_araby.svg">
  <defs
     id="defs4" />
  <sodipodi:namedview
     id="base"
     pagecolor="#ffffff"
     bordercolor="#666666"
     borderopacity="1.0"
     inkscape:pageopacity="0.0"
     inkscape:pageshadow="2"
     inkscape:zoom="1.9693333"
     inkscape:cx="185.71429"
     inkscape:cy="51.428571"
     inkscape:document-units="px"
     inkscape:current-layer="layer1"
     showgrid="false"
     fit-margin-top="0"
     fit-margin-left="0"
     fit-margin-right="0"
     fit-margin-bottom="0"
     inkscape:window-width="1280"
     inkscape:window-height="737"
     inkscape:window-x="-4"
     inkscape:window-y="-4"
     inkscape:window-maximized="1" />
  <metadata
     id="metadata7">
    <rdf:RDF>
      <cc:Work
         rdf:about="">
        <dc:format>image/svg+xml</dc:format>
        <dc:type
           rdf:resource="http://purl.org/dc/dcmitype/StillImage" />
        <dc:title></dc:title>
      </cc:Work>
    </rdf:RDF>
  </metadata>
  <g
     inkscape:label="Layer 1"
     inkscape:groupmode="layer"
     id="layer1"
     transform="translate(-168.58879,-496.80413)">
    <g
       id="g4186">
      <path
         d="m 268.26134,506.48566 -21.19538,0 0,72.03129 21.19538,0 0,-72.03129"
         style="fill:#2b9d41;fill-opacity:1;fill-rule:nonzero;stroke:none"
         id="path4152"
         inkscape:connector-curvature="0" />
      <path
         d="m 386.71759,579.95102 c -0.0287,4.81983 -3.945,8.71241 -8.74375,8.69239 -4.835,-0.0215 -8.7625,-4.01855 -8.71,-8.86621 0.0512,-4.85504 3.9775,-8.62992 8.93375,-8.58741 4.76375,0.04 8.5475,3.93112 8.52,8.76123"
         style="fill:#fbc707;fill-opacity:1;fill-rule:nonzero;stroke:none"
         id="path4154"
         inkscape:connector-curvature="0" />
      <path
         d="m 239.98446,547.43979 c -1.95412,-3.2075 -4.83162,-5.42876 -7.97512,-7.34913 -5.11675,-3.1235 -10.63288,-5.456 -16.00888,-8.06738 -1.8125,-0.87987 -3.67187,-1.68499 -5.29587,-2.90862 -1.29338,-0.97612 -1.71925,-2.17875 -1.2715,-3.52888 0.3775,-1.13862 1.43025,-1.80999 2.9375,-1.85837 0.4605,-0.0141 0.92187,0.001 1.38287,0.008 7.8115,0.13388 15.623,0.26663 23.4345,0.41025 l 0,0.0103 0.59188,0 c 0.1025,8.8e-4 0.19625,8.8e-4 0.28662,0 l 0.71725,0 0,-0.5255 c 0.0166,-0.0937 0.0274,-0.19725 0.0264,-0.32613 -0.019,-2.3125 -0.0249,-4.62349 -0.0264,-6.93599 l 0,-1.93513 c 0.002,-2.25725 0.008,-4.51362 0.022,-6.7715 4.9e-4,-0.0874 -0.0151,-0.145 -0.022,-0.21725 l 0,-0.70262 -1.49612,0 c -7.84325,-0.0761 -15.6855,-0.19238 -23.52825,-0.25338 -3.337,-0.0264 -6.65975,0.19725 -9.895,1.11475 -13.90925,3.94138 -17.48925,16.16013 -13.85013,26.561 1.54638,4.42037 4.809,7.44625 8.62988,9.919 4.91937,3.1825 10.32075,5.43887 15.57425,7.9775 2.06838,1 4.21337,1.86525 6.0585,3.2685 1.37013,1.0415 1.84138,2.4575 1.36675,3.82675 -0.42575,1.2285 -1.65825,2.00238 -3.3145,2.017 -1.204,0.0112 -2.40863,-0.0523 -3.61325,-0.0713 -7.56,-0.11325 -15.12012,-0.24613 -22.68062,-0.30963 l -1.80963,0 0.0166,-1.25387 c -0.001,-0.002 -0.002,-0.004 -0.003,-0.006 0.0566,-2.67726 0.02,-5.35588 0.02,-8.21963 -0.34675,0.25238 -0.543,0.38075 -0.72262,0.52825 -6.85701,5.67137 -13.70363,11.354 -20.58213,16.999 -0.67813,0.55625 -0.27775,0.73638 0.11625,1.06113 4.04587,3.34024 8.08638,6.68647 12.13137,10.02777 2.94525,2.43214 5.88275,4.85988 9.04538,7.46729 0,-2.95508 0.0655,-5.64258 0,-8.32764 -0.003,-0.15234 0.004,-0.27831 0.019,-0.39209 l -8.8e-4,-0.67285 0.65326,0 c 0.12887,-0.0176 0.27299,-0.0249 0.44637,-0.021 0.30075,0.007 0.6015,0.0137 0.90175,0.021 l 0.0332,0 0,0 c 4.36575,0.10889 8.73188,0.21143 13.09863,0.22119 6.2315,0.0151 12.47412,0.56006 18.69287,-0.20361 4.44388,-0.54491 8.5405,-2.03856 12.00438,-4.95606 4.28662,-3.60888 6.09187,-8.40376 6.38374,-13.86275 0.22076,-4.13725 -0.28749,-8.13875 -2.495,-11.76225"
         style="fill:#2b9d41;fill-opacity:1;fill-rule:nonzero;stroke:none"
         id="path4156"
         inkscape:connector-curvature="0" />
      <path
         d="m 309.10009,536.57066 -6.78375,0 0,-0.0195 c -0.98625,-0.003 -1.97375,0 -2.96,-0.0215 -2.095,-0.0425 -3.695,-1.32225 -4.38375,-3.42137 -0.6575,-2.00488 -0.67,-4.04101 -0.045,-6.06013 0.6975,-2.25975 2.22875,-3.496 4.58625,-3.5795 2.12375,-0.0752 4.25375,-0.0616 6.37875,-0.008 1.94375,0.0489 2.9575,1.07276 3.15125,3.019 0.015,0.14113 0.0425,0.28125 0.0425,0.42101 0.002,0.96287 10e-4,1.92525 10e-4,2.88762 l 0.0125,0 0,6.78225 z m 21.14625,5.24175 c 0,-6.84675 0.005,-13.69287 -0.002,-20.53913 -0.009,-8.206 -6.36875,-14.57712 -14.5475,-14.5825 -6.45625,-0.002 -12.9125,0.002 -19.36875,-0.002 -1.52625,-8.7e-4 -3.04625,0.0337 -4.56125,0.25488 -6.04875,0.88775 -11.06375,3.56787 -14.41,8.78275 -4.4575,6.94625 -4.99,14.48738 -2.6725,22.251 1.87125,6.26763 5.87125,10.73875 12.0275,13.148 3.0425,1.19087 6.23125,1.581 9.47875,1.5795 4.00875,-0.001 8.0175,0.0151 12.025,-0.0161 0.6825,-0.005 0.91625,0.16112 0.89125,0.87412 -0.0562,1.59463 0.03,3.19475 -0.0362,4.7885 -0.0863,2.06013 -1.27875,3.15475 -3.3375,3.17488 -3.15625,0.0303 -6.31125,0.0712 -9.4675,0.0776 -3.2475,0.006 -6.49625,-0.005 -9.74375,-0.006 l 0,-0.0289 -10.36625,0 0,16.93268 0.74,0 c 0.0925,0.007 0.1925,0.0127 0.3075,0.0127 12.27375,-0.0239 24.5475,-0.0137 36.82125,-0.02 2.67,-10e-4 5.2075,-0.62989 7.54625,-1.90138 5.715,-3.10647 8.5575,-8.0186 8.6525,-14.45359 0.10125,-6.77388 0.0237,-13.55125 0.0237,-20.32613"
         style="fill:#2b9d41;fill-opacity:1;fill-rule:nonzero;stroke:none"
         id="path4158"
         inkscape:connector-curvature="0" />
      <path
         d="m 518.06634,543.54816 0.0163,0 c -0.0337,1.30125 -0.07,2.60263 -0.12375,3.88288 -0.15875,3.85012 -1.375,7.30362 -4.4075,9.896 -2.77875,2.375 -6.10125,3.23537 -9.665,3.24362 -11.06875,0.0254 -22.13625,0.009 -33.205,0.006 -0.38875,0 -0.785,0.0113 -1.1675,-0.0499 -1.685,-0.269 -2.66125,-1.246 -2.74,-2.76125 -0.0337,-0.641 0.14875,-1.25875 0.345,-1.87 1.7175,-5.3575 4.58625,-10.05525 8.3775,-14.16262 10.79375,-11.69638 24.4075,-17.07625 40.10375,-17.66601 2.37875,-0.0889 2.38125,-0.0201 2.38125,2.37013 0,2.145 0,4.291 0,6.72362 7.46625,-6.17137 14.7125,-12.16025 22.00125,-18.18362 -7.3425,-6.06637 -14.5925,-12.05425 -22.00125,-18.17288 0,2.89113 -0.0213,5.51363 0.015,8.13526 0.01,0.70112 -0.12125,0.99612 -0.915,0.98974 -2.48125,-0.021 -4.95625,0.13863 -7.43125,0.33251 -8.1,0.63287 -15.9875,2.25487 -23.57125,5.19237 -14.8025,5.73637 -26.29375,15.2955 -33.75625,29.45413 -1.3175,2.50099 -2.41625,5.10249 -3.61,7.69975 0,-0.34726 0,-0.69488 0,-1.0435 0,-7.83888 -0.002,-15.67876 0.004,-23.519 0,-0.14851 0.004,-0.29013 -0.004,-0.42 l 0,-0.80226 -21.035,0 0,1.751 0,0 c 0,10.71388 0.002,21.42626 -0.002,32.14013 -10e-4,2.67625 -1.135,4.04737 -3.765,4.58887 -1.19375,0.24463 -2.4075,0.24613 -3.59875,0.0561 -2.83625,-0.4535 -4.04,-1.914 -4.04,-4.7875 0,-14.49125 -0.004,-28.9825 0.0175,-43.47275 l 10e-4,0 0,-1.26212 c 0.002,-1.3365 10e-4,-2.67138 0.004,-4.00788 10e-4,-0.0395 -0.002,-0.0722 -0.004,-0.11075 l 0,-1.02887 -0.78125,0 c -0.1125,-0.0113 -0.235,-0.019 -0.38,-0.0176 -1.485,0.01 -2.97,0.0112 -4.45375,0.0176 l -8.74875,0 c -1.77125,-0.006 -3.54375,-0.008 -5.315,-0.0264 -0.1775,-0.002 -0.32375,0.009 -0.4575,0.0264 l -0.83625,0 0,0.92875 c -0.01,0.12249 -0.0163,0.25637 -0.0163,0.40725 0.0263,14.11512 0.0238,28.23137 0.0312,42.34612 l 0.001,0 0,2.13912 c 10e-4,2.34088 10e-4,4.68213 0.004,7.0235 0,0.0728 -10e-4,0.13763 -0.004,0.20413 l 0,0.9785 -0.86375,0 c -0.0625,0.004 -0.11875,0.01 -0.19,0.01 -2.38,-0.008 -4.76125,-0.006 -7.14125,-0.01 l -0.42125,0 0,0 c -7.8375,-0.01 -15.675,-0.006 -23.5125,-0.0176 -3.73375,-0.006 -5.295,-1.48876 -5.58,-5.19963 -0.0213,-0.28275 -0.0138,-0.56787 -0.0138,-0.85163 0,-8.26512 -0.004,-16.52974 10e-4,-24.79637 0.004,-4.457 1.565,-6.00737 6.03125,-6.00825 3.0175,0 6.03625,-0.004 9.0525,8.8e-4 l 0,0.002 0.7925,0 c 1.5075,0.004 3.015,0.004 4.5225,0.0176 0.13,0 0.2425,-0.006 0.345,-0.0176 l 0.75,0 0,-0.72512 c 0.015,-0.11475 0.0238,-0.24125 0.0225,-0.39113 -0.015,-1.87737 -0.0188,-3.75487 -0.0225,-5.63375 l 0,-3.67875 c 0.004,-1.89737 0.007,-3.79487 0.0238,-5.69237 10e-4,-0.1425 -0.009,-0.26125 -0.0238,-0.36862 l 0,-0.66263 -0.7075,0 c -0.10375,-0.0113 -0.215,-0.0175 -0.345,-0.0175 -6.315,0.0326 -12.62875,0.02 -18.94375,0.016 -1.59625,-8.7e-4 -3.18875,0.0153 -4.775,0.23788 -6.63625,0.92862 -12.065,3.75237 -15.41375,9.82762 -1.76625,3.20212 -2.5875,6.69088 -2.62375,10.30225 -0.0925,9.32863 -0.0475,18.65863 -0.06,27.98875 -10e-4,1.59525 0.045,3.185 0.18,4.77875 0.8225,9.734 8.2925,17.37261 18.02,18.43511 3.20125,0.3501 6.4075,0.19728 9.61,0.20996 0.001,0.0234 0.002,0.04 0.002,0.04 0,0 1.09,0.009 2.87875,0.02 0.65625,-5.60639 5.41625,-9.80764 11.32625,-9.75876 5.60625,0.0474 10.14,4.27637 10.7875,9.76608 0.295,-0.002 0.5875,-0.005 0.875,-0.009 0.45,0.0625 0.93375,0.0327 1.42125,-0.0161 0.0913,-0.001 0.1875,-0.001 0.27875,-0.002 0,0 -0.005,-0.0127 -0.007,-0.0215 0.17625,-0.0176 0.35375,-0.0361 0.52625,-0.0474 4.47875,-0.29152 8.7,-1.28858 12.0325,-4.58503 0.38375,-0.37988 0.59125,-0.165 0.86875,0.0889 2.08625,1.90625 4.56375,3.09234 7.24875,3.86627 4.6625,1.34229 9.4225,1.45751 14.22625,1.1123 5.71625,-0.41113 11.14,-1.64747 15.745,-5.32132 0.3375,-0.27 0.54125,-0.29637 0.8725,0.0504 3.3825,3.53705 7.66625,4.82367 12.41375,4.82856 16.6725,0.0176 33.345,-0.002 50.01875,0.0161 3.20125,0.002 6.37375,-0.22853 9.505,-0.89601 7.3275,-1.56392 13.5475,-4.95267 18,-11.14254 3.69875,-5.14263 5.4,-11.01276 5.5175,-17.25251 0.035,-1.88625 0.0525,-3.77387 0.0675,-5.66162 l 0.025,0 0,-6.21475 c 0,-1.2125 0.002,-2.42487 0,-3.63875 l 0,-13.40238 -20.61125,17.13625 0,6.11963"
         style="fill:#fbc707;fill-opacity:1;fill-rule:nonzero;stroke:none"
         id="path4160"
         inkscape:connector-curvature="0" />
    </g>
  </g>
</svg>
