<svg xmlns="http://www.w3.org/2000/svg" viewBox="0 42.69142141317366 321.14856 73.70185628742516" style="max-height: 500px" width="321.14856" height="73.70185628742516"><g fill="#9c0012"><path d="m148.05 57.44h-34.01v7.24h12.7v35.56h8.64v-35.56h12.67z"/><path d="m222.84 81.38h21.49v-7.21h-21.49v-9.49h23.09v-7.24h-31.73v42.8h32.55v-7.22h-23.91z"/><path d="m278.85 57.44-9.87 16.93-10.07-16.93h-10.13l15.67 24.78v18.02h8.62v-17.96l15.73-24.84z"/><path d="m173.12 83.65h-19.02c4.58-8.12 11.24-14.18 18.97-16.56zm37.72-26.21h-11.62l-17.46 19.01v-19.01h-8.69c-17.52 3.88-31.23 21.41-34.28 42.87h9.51c.55-3.29 1.4-6.45 2.5-9.45h22.32v9.38h8.64v-12.93l7.01-7.15 11.76 20.08h11.18l-16.99-26.13 16.11-16.67"/><path d="m312.07 83.65h-19.02c4.58-8.12 11.24-14.18 18.97-16.56zm-.05-26.21c-17.52 3.88-31.23 21.41-34.28 42.87h9.51c.55-3.29 1.4-6.45 2.5-9.45h22.32v9.38h8.64v-42.8z"/><path d="m71.46 106.78.02-.22v-27.63h9.51l-.72-.71-12.8-12.57-.31-.31-.29.33-10.7 12.25-10.7-12.25-.29-.33-.31.31-12.8 12.57-.72.71h9.51v27.63l.16.25c-15.88-4.3-27.16-15.13-27.16-27.83 0-16.46 18.95-29.81 42.33-29.81s42.33 13.35 42.33 29.81c0 12.67-11.23 23.49-27.05 27.8zm40.91-27.8c0-20.01-25.15-36.24-56.18-36.24s-56.19 16.22-56.19 36.24c0 18.27 20.95 33.37 48.2 35.87l.61.18v-36.1h14.72s-.04 35.98 0 35.98v.12l.2-.14c27.46-2.38 48.64-17.55 48.64-35.91"/><path d="m358.25 82.17c.74.93 1.68 2.14 2.81 3.65 1.13 1.5 2.3 3.17 3.51 5 1.2 1.83 2.4 3.74 3.58 5.73s2.19 3.91 3.02 5.76h-7.36c-.93-1.76-1.93-3.54-3.02-5.35-1.09-1.8-2.19-3.53-3.3-5.17s-2.21-3.18-3.3-4.62c-1.09-1.43-2.07-2.68-2.95-3.75-.6.05-1.21.07-1.84.07h-7.95v18.82h-6.73v-47.42c1.9-.46 4.02-.77 6.35-.94 2.34-.16 4.48-.24 6.42-.24 6.76 0 11.91 1.27 15.45 3.82s5.31 6.34 5.31 11.39c0 3.19-.85 5.93-2.54 8.19-1.69 2.27-4.18 3.96-7.46 5.07zm-10.21-22.57c-2.87 0-5.07.07-6.6.21v18.12h4.79c2.31 0 4.4-.12 6.25-.35s3.41-.67 4.69-1.32c1.27-.65 2.26-1.56 2.95-2.74s1.04-2.74 1.04-4.69c0-1.81-.35-3.31-1.04-4.51s-1.63-2.15-2.81-2.85c-1.18-.69-2.57-1.18-4.17-1.46s-3.3-.42-5.1-.42z"/><path d="m375.96 84.32c0-3.19.46-5.98 1.39-8.37.93-2.38 2.15-4.36 3.68-5.94 1.53-1.57 3.29-2.75 5.28-3.54s4.03-1.18 6.11-1.18c4.86 0 8.59 1.52 11.18 4.55s3.89 7.65 3.89 13.85v1.08c0 .44-.02.85-.07 1.22h-24.72c.28 3.75 1.36 6.6 3.26 8.54s4.86 2.92 8.89 2.92c2.27 0 4.18-.2 5.73-.59s2.72-.78 3.51-1.15l.9 5.42c-.79.42-2.17.86-4.13 1.32-1.97.46-4.2.69-6.7.69-3.15 0-5.87-.47-8.16-1.42s-4.18-2.26-5.66-3.92c-1.48-1.67-2.58-3.65-3.3-5.94s-1.08-4.8-1.08-7.53zm24.79-3.54c.04-2.92-.68-5.31-2.19-7.19-1.5-1.87-3.58-2.81-6.21-2.81-1.48 0-2.79.29-3.92.87s-2.09 1.33-2.88 2.26-1.4 1.99-1.84 3.19-.73 2.43-.87 3.68z"/><path d="m432.48 103.14c-2.92 0-5.47-.46-7.67-1.39-2.2-.92-4.05-2.22-5.55-3.89s-2.63-3.65-3.37-5.94-1.11-4.83-1.11-7.6.4-5.32 1.21-7.64c.81-2.31 1.96-4.32 3.44-6.01s3.3-3.01 5.45-3.96 4.55-1.42 7.19-1.42c1.62 0 3.24.14 4.86.42s3.17.72 4.65 1.32l-1.46 5.49c-.97-.46-2.09-.83-3.37-1.11-1.27-.28-2.63-.42-4.06-.42-3.61 0-6.38 1.13-8.3 3.4s-2.88 5.58-2.88 9.93c0 1.94.22 3.73.66 5.35s1.13 3.01 2.08 4.17 2.16 2.05 3.65 2.67c1.48.62 3.29.94 5.42.94 1.71 0 3.26-.16 4.65-.49 1.39-.32 2.48-.67 3.26-1.04l.9 5.42c-.37.23-.9.45-1.6.66s-1.48.39-2.36.56c-.88.16-1.82.3-2.81.42-1 .12-1.96.17-2.88.17z"/><path d="m462.4 65.44c.56 0 1.19.04 1.91.1s1.42.16 2.12.28c.69.12 1.33.23 1.91.35s1.01.22 1.28.31l-1.11 5.62c-.51-.18-1.35-.41-2.53-.66s-2.7-.38-4.55-.38c-1.2 0-2.4.13-3.58.38s-1.96.43-2.33.52v30.34h-6.46v-34.58c1.53-.55 3.42-1.08 5.69-1.56 2.27-.49 4.81-.73 7.64-.73z"/><path d="m504.62 101.26c-1.48.37-3.44.76-5.87 1.18s-5.24.62-8.44.62c-2.78 0-5.12-.41-7.01-1.21-1.9-.81-3.43-1.96-4.58-3.44-1.16-1.48-1.99-3.23-2.5-5.24s-.76-4.25-.76-6.7v-20.27h6.46v18.89c0 4.4.69 7.55 2.08 9.44 1.39 1.9 3.73 2.85 7.01 2.85.69 0 1.41-.02 2.15-.07s1.43-.1 2.08-.17 1.24-.14 1.77-.21.91-.15 1.15-.24v-30.48h6.46v35.06z"/><path d="m518.92 59.67c-1.16 0-2.14-.38-2.95-1.15-.81-.76-1.21-1.79-1.21-3.09s.4-2.33 1.21-3.09 1.79-1.15 2.95-1.15 2.14.38 2.95 1.15c.81.76 1.21 1.79 1.21 3.09s-.41 2.33-1.21 3.09c-.81.76-1.79 1.15-2.95 1.15zm3.26 42.63h-6.46v-36.11h6.46z"/><path d="m539.33 66.2h13.68v5.42h-13.68v16.66c0 1.81.14 3.3.42 4.48s.69 2.11 1.25 2.78 1.25 1.15 2.08 1.42c.83.28 1.81.42 2.92.42 1.94 0 3.51-.22 4.69-.66s2-.75 2.46-.94l1.25 5.35c-.65.32-1.78.73-3.4 1.22s-3.47.73-5.55.73c-2.45 0-4.48-.31-6.08-.94s-2.88-1.56-3.85-2.81-1.66-2.79-2.05-4.62-.59-3.95-.59-6.35v-32.22l6.46-1.11v11.18z"/><path d="m588.83 97.51c7.04 0 10.55-2.41 10.55-7.22 0-1.48-.31-2.74-.94-3.78-.62-1.04-1.47-1.94-2.53-2.71-1.07-.76-2.28-1.42-3.65-1.98s-2.81-1.11-4.34-1.67c-1.76-.6-3.43-1.28-5-2.05-1.57-.76-2.94-1.67-4.1-2.71s-2.07-2.28-2.74-3.71-1.01-3.17-1.01-5.21c0-4.21 1.43-7.5 4.3-9.86s6.83-3.54 11.87-3.54c2.92 0 5.57.31 7.95.94 2.38.62 4.13 1.31 5.24 2.05l-2.15 5.49c-.97-.6-2.42-1.19-4.34-1.77s-4.16-.87-6.7-.87c-1.3 0-2.5.14-3.61.42s-2.08.69-2.92 1.25c-.83.56-1.49 1.26-1.98 2.12s-.73 1.86-.73 3.02c0 1.3.25 2.38.76 3.26s1.23 1.66 2.15 2.33c.93.67 2 1.28 3.23 1.84s2.58 1.11 4.06 1.67c2.08.83 3.99 1.67 5.73 2.5s3.24 1.83 4.51 2.99 2.26 2.54 2.95 4.13 1.04 3.53 1.04 5.8c0 4.21-1.54 7.45-4.62 9.72s-7.42 3.4-13.02 3.4c-1.9 0-3.65-.13-5.24-.38-1.6-.25-3.02-.55-4.27-.9s-2.33-.72-3.23-1.11-1.61-.73-2.12-1.01l2.01-5.55c1.06.6 2.68 1.27 4.86 2.01s4.84 1.11 7.99 1.11z"/><path d="m617.37 59.67c-1.16 0-2.14-.38-2.95-1.15-.81-.76-1.21-1.79-1.21-3.09s.4-2.33 1.21-3.09 1.79-1.15 2.95-1.15 2.14.38 2.95 1.15c.81.76 1.21 1.79 1.21 3.09s-.41 2.33-1.21 3.09c-.81.76-1.79 1.15-2.95 1.15zm3.26 42.63h-6.46v-36.11h6.46z"/><path d="m637.78 66.2h13.68v5.42h-13.68v16.66c0 1.81.14 3.3.42 4.48s.69 2.11 1.25 2.78 1.25 1.15 2.08 1.42c.83.28 1.81.42 2.92.42 1.94 0 3.51-.22 4.69-.66s2-.75 2.46-.94l1.25 5.35c-.65.32-1.78.73-3.4 1.22s-3.47.73-5.55.73c-2.45 0-4.48-.31-6.08-.94s-2.88-1.56-3.85-2.81-1.66-2.79-2.05-4.62-.59-3.95-.59-6.35v-32.22l6.46-1.11v11.18z"/><path d="m657.64 84.32c0-3.19.46-5.98 1.39-8.37.93-2.38 2.15-4.36 3.68-5.94 1.53-1.57 3.29-2.75 5.28-3.54s4.03-1.18 6.11-1.18c4.86 0 8.59 1.52 11.18 4.55s3.89 7.65 3.89 13.85v1.08c0 .44-.02.85-.07 1.22h-24.72c.28 3.75 1.36 6.6 3.26 8.54s4.86 2.92 8.89 2.92c2.27 0 4.18-.2 5.73-.59s2.72-.78 3.51-1.15l.9 5.42c-.79.42-2.17.86-4.13 1.32-1.97.46-4.2.69-6.7.69-3.15 0-5.87-.47-8.16-1.42s-4.18-2.26-5.66-3.92c-1.48-1.67-2.58-3.65-3.3-5.94s-1.08-4.8-1.08-7.53zm24.79-3.54c.04-2.92-.68-5.31-2.19-7.19-1.5-1.87-3.58-2.81-6.21-2.81-1.48 0-2.79.29-3.92.87s-2.09 1.33-2.88 2.26-1.4 1.99-1.84 3.19-.73 2.43-.87 3.68z"/></g><path d="m132.34 1.98c0 2.92-5.25 6.54-10.09 6.54-.23 0-1.49-.03-1.49-.23 0-.14.57-.2.69-.26 2.9-.97 5.42-3.41 6.77-6.39.23-.54.72-1.63 2.06-1.63 1.12 0 2.06.86 2.06 1.98zm.26 8.89c.46 0 .8-.26.95-.4.29-.26.52-.49.98-.49.09 0 1.09 0 1.09 1.32v4.67c0 .75-.34 1.32-1.12 1.32-.43 0-.66-.2-.95-.49-.26-.26-.57-.4-.95-.4h-3.56v3.93h3.01c.06 0 .11.03.11.11 0 .11-.09.11-.11.11-1.29.12-1.58.29-2.27 1.95-.43 1.06-.97 2.38-2.49 2.38-1.2 0-2.18-.95-2.18-2.15 0-.86.43-1.32.98-1.86.43-.46.75-1.09.75-1.78v-7.68c0-.69-.03-1.26-.37-1.38-.11-.03-.17-.06-.17-.14 0-.12.37-.12.54-.12.11 0 1.81 0 2.15 1.09h3.61zm.97.89h-4.53v1.46h4.53zm-4.53 2.35v1.4h4.53v-1.4zm2.21-4.13c-.72 0-1.32-.57-1.32-1.29 0-.89 0-1.26-.46-1.35-.11-.03-.29-.09-.29-.14 0-.11.06-.11.49-.11.95 0 2.87.17 2.87 1.61 0 .69-.54 1.29-1.29 1.29zm6.57 14.48c-2.47 0-4.9-2.78-4.9-5.48 0-.14.03-.86.2-.86.09 0 .2.46.23.52.69 1.49 3.27 2.09 4.67 2.41 1.63.37 1.72 1.26 1.72 1.66 0 .92-.69 1.75-1.92 1.75zm1.98-14.36c-3.35 0-6.08-4.39-6.08-6.74 0-.09.06-.12.09-.12.06 0 .17.29.2.32.2.26 1.63 2.32 5.62 2.64 1.43.12 2.38.83 2.38 2.06 0 1.09-1 1.83-2.21 1.83zm-.75 7.34c0 1.46-1.98 1.61-2.87 1.61-.17 0-.49 0-.49-.11 0-.09.09-.11.14-.11.57 0 .6-.49.6-.98s0-1.69 1.32-1.69c.75 0 1.29.6 1.29 1.29z"/><path d="m152.81 6.74c-.11 0-.63.06-.72.06-.14 0-.49-.57-.6-.66-.06-.03-.34-.12-.34-.17 0-.09.09-.12.14-.12h14.39c.83 0 1.12-.32 1.66-.89.37-.37.72-.66 1.26-.66.66 0 1.4.43 1.4 1.2 0 .6-.46 1.23-1.55 1.23h-15.65zm3.87 4.7c0-.14.03-.89.17-.89.06 0 .09.06.11.23.17.95 1.23 3.33 3.35 5.22.92-1.49 1.52-3.24 1.92-4.33.23-.69.69-2.01 2.09-2.01 1.29 0 1.58 1.03 1.58 1.61 0 1.49-1.58 4.36-3.35 6.45 1.89 1.18 3.5 1.46 5.56 1.83.66.11 2.12.4 2.12 1.92 0 .97-.72 1.95-2.21 1.95-2.18 0-5.33-1.46-7.66-3.64-.97.75-3.18 2.44-6.85 2.44-1.26 0-2.15-.29-2.15-.43 0-.06.06-.09.11-.09.8 0 3.81-.37 7.31-4.1-1.61-2.15-2.12-4.73-2.12-6.16zm3.84-7.02c-.2 0-1.69-.11-1.69-1.89 0-1.03 0-1.35-.77-1.35-.34 0-.4 0-.4-.12 0-.2 1.38-.26 1.61-.26.75 0 2.98 0 2.98 1.89 0 .97-.8 1.72-1.72 1.72z"/><path d="m178.95 11.24c-.09 0-.17-.03-.17-.09 0-.09.54-.4.63-.46 1.66-1.41 1.78-3.67 1.89-5.19.09-1.43.83-2.32 2.12-2.32.89 0 2.04.57 2.04 2.21 0 3.47-3.99 5.85-6.51 5.85zm5.45 9.4c0 .6-.49 1.06-1.06 1.06-.69 0-1.09-.54-1.09-1.06v-6.97c0-.97-.09-1.35-.43-1.4-.06-.03-.14-.03-.14-.12 0-.11.29-.11.46-.11.52 0 2.27.06 2.27 1.52v7.08zm13.1-3.56c0-.09.03-.2.14-.2s.17.09.17.2c.03.77.23 1 1.03 1.35.63.29 1.75.8 1.75 1.98 0 .6-.34 1.69-1.83 1.69h-5.76c-1.15 0-2.15-.92-2.15-2.15v-14.7c0-.54 0-1.18-.23-1.38-.03 0-.2-.09-.2-.14 0-.12.06-.12.4-.12.11 0 2.01 0 2.01 1.52v13.19c0 .34.26.66.69.66h3.99v-1.89zm-1.46-6.54c-.2 0-.6 0-.6-.11 0-.09.09-.12.11-.12.4-.03.92-.06.92-.69 0-.2-.09-1.03-.09-1.21 0-.8.66-1.66 1.69-1.66.97 0 1.72.8 1.72 1.66 0 1.92-2.58 2.12-3.76 2.12z"/><path d="m208.21 11.87c0-1 .69-1.52 1.35-1.52.4 0 1 .2 1.26.97h4.04c.54 0 .83-.29 1.12-.57.29-.29.66-.34.89-.34 1.23 0 1.23.95 1.23 1.32v4.42c0 .4 0 1.35-1.2 1.35-.17 0-.6-.03-.92-.34-.34-.32-.57-.54-1.12-.54h-4.1c-.2.95-.43 1.43-.66 1.86 2.18.09 2.52.52 2.72 1.18h.8c.69 0 1.06-.37 1.46-.75.09-.12.43-.43 1-.43.14 0 1.46 0 1.46 1.72v3.41c0 1.72-1.29 1.72-1.46 1.72-.57 0-.86-.29-1.23-.66-.34-.32-.77-.52-1.23-.52h-.75c-.14.83-.8 1.18-1.38 1.18-.72 0-1.38-.54-1.38-1.38v-3.47c0-.37 0-1.23-.26-1.66-1.26 1.78-3.27 2.21-4.33 2.21-.06 0-.17 0-.17-.09 0-.11.46-.26.52-.32 2.04-1.15 2.32-4.59 2.32-6.82v-1.92zm-1.12-3.76c-.54 0-1.55-.12-1.55-.29 0-.06.26-.11.34-.14 2.15-.49 3.84-2.7 4.7-5.22.23-.63.66-1.92 1.95-1.92.37 0 1.75.23 1.75 1.75 0 2.84-3.3 5.82-7.2 5.82zm4.44 1.32c-.11 0-.63.09-.72.09-.14 0-.52-.57-.6-.63-.06-.03-.34-.14-.34-.2 0-.09.06-.12.11-.12h2.64c.43 0 .83-.06 1.2-.49.4-.46.6-.72 1.09-.72.54 0 1.06.49 1.06 1.09 0 .75-.72.97-1.18.97h-3.27zm-.63 5.59c0 .26 0 .52-.03.69h4.79v-1.29h-4.76zm4.76-1.49v-1.35h-4.76v1.35zm-2.78 9.75h1.98v-2.78h-1.98zm5.39-14.71c-1.63 0-2.98-2.01-2.98-3.96 0-.17 0-.6.14-.6.09 0 .23.43.26.52.54.92 1.69 1 2.67 1.09.89.09 1.49.72 1.49 1.52 0 .92-.86 1.43-1.58 1.43zm5.39 6.94c0 .63-.54 1.18-1.2 1.18s-1.2-.49-1.2-1.18v-3.38c0-.86-.06-1.26-.31-1.38-.03 0-.26-.12-.26-.14 0-.12.11-.12.34-.12.57 0 2.64.09 2.64 1.52v3.5zm2.38-6.77c0-.86-.06-1.32-.43-1.4-.03 0-.11 0-.11-.09 0-.12.03-.12.4-.12.69 0 2.32.09 2.32 1.49v9.03c0 .92.52 1.58.75 1.81.54.57.97.97.97 1.86 0 1.18-.97 2.15-2.15 2.15-1.46 0-1.86-.92-2.69-2.78-.6-1.38-.89-1.4-2.09-1.58-.06 0-.11 0-.11-.09 0-.11.06-.11.11-.11h3.04v-10.18z"/><path d="m236.13 16.08c-.11 0-.6.06-.69.06-.14 0-.52-.57-.63-.63-.03-.06-.32-.14-.32-.2 0-.09.06-.12.11-.12h2.44c.75 0 1.15-.23 1.55-.63.49-.49.77-.77 1.46-.77.98 0 2.01.72 2.01 2.24 0 1.81-1.32 3.93-3.61 4.82 2.7.63 5.45.86 8.2.86.49 0 2.69-.09 3.15-.09 1.4 0 1.66.89 1.66 1.29 0 1.46-1.78 1.46-2.61 1.46-4.27 0-13.96-1.92-13.96-5.05 0-.03 0-.17.11-.17s.32.43.37.49c.6.54 1.55.83 1.98.83 1.06 0 1.2-1.52 1.32-4.39h-2.55zm3.3-3.5c-1.29 0-2.15-1.12-2.15-2.09 0-.26.14-1.35.14-1.55 0-.92-.86-.92-1.03-.92-.14 0-.23 0-.23-.11 0-.14.57-.14.77-.14.95 0 4.64.14 4.64 2.67 0 1.15-.95 2.15-2.15 2.15zm7.94-9.55c0 2.49-2.41 4.42-4.65 4.42-.06 0-.17 0-.17-.09 0-.11.49-.34.54-.4.77-.83.83-1.86.92-4.19.09-1.86 1.23-1.92 1.55-1.92 1.09 0 1.81.86 1.81 2.18zm-2.21 7.68c-.11 0-.6.09-.69.09-.14 0-.52-.57-.63-.66-.06-.03-.32-.11-.32-.17 0-.09.03-.12.11-.12h9.98c.72 0 1.09-.29 1.49-.72.46-.49.77-.83 1.43-.83.6 0 1.4.4 1.4 1.2s-.69 1.2-1.55 1.2h-11.24zm5.45 2.81c.63 0 1.09-.34 1.32-.57.43-.4.75-.69 1.38-.69.14 0 1.61 0 1.61 1.89v3.7c0 1.89-1.43 1.89-1.61 1.89-.63 0-.95-.32-1.38-.72-.4-.4-.83-.57-1.32-.57h-1.46c-.14.8-.8 1.29-1.49 1.29-.92 0-1.52-.75-1.52-1.52v-3.78c0-.54 0-1.78-.43-1.95-.06-.03-.26-.12-.26-.14 0-.12.52-.12.72-.12 1.32 0 2.61.23 2.92 1.29zm1.2-5.68c0 .77-.63 1.35-1.32 1.35-.83 0-1.38-.66-1.38-1.35v-3.33c-.09 0-.54.09-.63.09-.14 0-.54-.66-.69-.72-.06 0-.23-.09-.23-.14s.06-.09.11-.09h1.43v-1.78c0-.75-.03-1.26-.34-1.38-.09-.03-.17-.06-.17-.11 0-.12.03-.12.34-.12.69 0 2.87.2 2.87 1.52v1.86h.69c.63 0 .95-.2 1.23-.52.37-.46.6-.69 1.06-.69.52 0 1.09.46 1.09 1.06s-.52 1-1.2 1h-2.87v3.33zm-2.64 9.75h2.98v-3.18h-2.98z"/><path d="m268.73 8.83c-.14 0-.69.09-.8.09-.14 0-.49-.54-.57-.63-.06-.06-.46-.23-.46-.32s.06-.12.14-.12h4.53v-.54c0-1.72 0-1.92-.4-2.12-.06-.03-.4-.12-.4-.17 0-.17.77-.17.92-.17 3.01 0 3.01 1.23 3.01 2.46v.54h3.18c.69 0 1.03-.34 1.43-.72.26-.26.6-.43 1.03-.43.11 0 1.43 0 1.43 1.69v8.83c0 1.89-.49 3.07-2.26 3.07-1.89 0-2.09-1.38-2.27-2.47-.17-1.03-.57-1.12-1.06-1.2-.03 0-.11-.03-.11-.11 0-.06.09-.12.17-.12h3.21v-7.57h-4.85c-.06 1.55-.26 2.98-.8 4.07-1.18 2.38-3.58 3.47-5.36 3.47-.77 0-1.26-.2-1.26-.43 0-.09.06-.09.09-.09.57 0 .69 0 1.18-.37.95-.69 2.98-2.92 3.12-6.65h-2.84z"/><path d="m298.65 9.55c-.8 0-1.89-.6-1.89-2.04 0-1.23 0-1.58-.86-1.58-.23 0-.4 0-.4-.11 0-.23 1.66-.26 1.89-.26.72 0 3.18 0 3.18 2.09 0 1.09-.89 1.89-1.92 1.89zm2.58 6.77c7.11-1.58 9.23-8.17 9.23-9.81 0-.14-.03-.37-.09-.52-.03-.03-.09-.14-.09-.17 0-.06.06-.09.11-.09.29 0 .77.77.77 2.72 0 8.6-7.31 11.64-10.81 11.64-1.29 0-1.89-.97-1.89-1.83 0-1.35 1.23-1.61 2.75-1.95z"/><path d="m331.56 9.49c0 4.04-2.64 8.34-7.97 8.34-1.32 0-1.83-.34-1.83-.52 0-.06.06-.06.37-.12 1.78-.26 5.1-2.15 5.53-7.57.11-1.43.26-3.01 1.95-3.01 1.95 0 1.95 2.12 1.95 2.87zm8.69 9.17c-1.29 0-1.63-.92-2.24-2.64-.46-1.26-1.09-2.64-2.18-2.92-.2-.06-.23-.06-.23-.14 0-.17.75-.17 1-.17 4.16 0 5.45 2.75 5.45 4.04s-.92 1.83-1.81 1.83zm-.49-13.91c1.15 0 2.15.95 2.15 2.15s-1 2.18-2.15 2.18c-1.2 0-2.18-.97-2.18-2.18s1-2.15 2.18-2.15zm0 3.5c.72 0 1.32-.6 1.32-1.35s-.6-1.32-1.32-1.32-1.35.6-1.35 1.32c0 .77.63 1.35 1.35 1.35z"/><path d="m354.66 18.58c-.11 0-.69.09-.8.09-.14 0-.54-.63-.66-.72-.06-.03-.37-.14-.37-.2 0-.09.06-.14.14-.14h11.61c.86 0 1.26-.34 1.66-.75.54-.6.89-.97 1.61-.97s1.55.49 1.55 1.35c0 .69-.52 1.35-1.72 1.35h-13.02zm1.46-10.15c-.14 0-.69.09-.8.09-.14 0-.54-.63-.66-.72-.06-.03-.37-.14-.37-.2 0-.09.06-.11.14-.11h8c.66 0 1.12-.23 1.58-.69.66-.69.97-1.03 1.69-1.03s1.55.46 1.55 1.35c0 .69-.54 1.32-1.72 1.32h-9.4z"/><path d="m384.73 13.39c-.23 0-1.26.17-1.49.17-.29 0-.37-.17-.52-.66-.26-.98-.46-1-.92-1.15-.06 0-.09-.06-.09-.11 0-.09.06-.12.14-.12h10.72c.8 0 1.2-.09 1.58-.46.52-.49.86-.83 1.55-.83 1.03 0 1.81.97 1.81 1.81 0 .75-.69 1.35-1.98 1.35h-10.81z"/></svg>