<svg width="500" height="665" viewBox="0 0 500 665" fill="none" xmlns="http://www.w3.org/2000/svg">
<path d="M251.243 417.743C168.791 417.743 101.878 350.936 101.878 268.47C101.878 185.854 168.791 119.096 251.243 119.096C333.768 119.096 400.597 185.854 400.597 268.47C400.597 350.936 333.768 417.743 251.243 417.743ZM251.243 44.5127C127.637 44.5127 27.4019 144.773 27.4019 268.47C27.4019 392.072 127.637 492.301 251.243 492.301C374.903 492.301 475.295 392.072 475.295 268.47C475.295 144.773 374.903 44.5127 251.243 44.5127Z" fill="#CC0000"/>
<path d="M251.243 191.726C208.874 191.726 174.544 225.972 174.544 268.47C174.544 310.827 208.873 345.176 251.243 345.176C293.653 345.176 328.057 310.826 328.057 268.47C328.057 225.973 293.653 191.726 251.243 191.726Z" fill="#CC0000"/>
<path d="M48.7883 550.713H24.0996V535.477H91.5927V550.713H66.904V617.861H48.7883V550.713Z" fill="#CC0000"/>
<path d="M83.7476 617.861H102.084L108.551 599.51H139.358L145.59 617.861H164.393L133.587 535.477H115.015L83.7476 617.861ZM124.013 555.776H124.239L134.619 586.011H113.289L124.013 555.776Z" fill="#CC0000"/>
<path d="M171.538 617.861H189.662V585.671H207.765C216.889 585.671 220.228 589.476 221.494 598.125C222.428 604.704 222.193 612.667 224.388 617.862H242.492C239.265 613.249 239.384 603.544 239.033 598.354C238.454 590.035 235.926 581.391 227.035 579.086V578.858C236.161 575.168 240.08 567.907 240.08 558.202C240.08 545.751 230.727 535.481 215.963 535.481H171.539L171.538 617.861ZM189.662 549.553H209.51C217.574 549.553 221.962 553.016 221.962 560.969C221.962 569.272 217.574 572.74 209.51 572.74H189.662V549.553Z" fill="#CC0000"/>
<path d="M312.065 608.509C305.713 616.713 297.42 619.839 289.455 619.839C263.962 619.839 248.958 600.771 248.958 577.001C248.958 552.553 263.961 533.524 289.455 533.524C306.295 533.524 322.224 543.908 324.19 562.583H306.874C304.793 553.46 297.987 548.747 289.455 548.747C273.185 548.747 267.061 562.583 267.061 577.001C267.061 590.739 273.185 604.578 289.455 604.578C301.227 604.578 308.02 598.236 309.064 586.807H290.843V573.323H325.448V617.86H313.902L312.065 608.509Z" fill="#CC0000"/>
<path d="M337.797 535.477H399.388V550.713H355.91V568.357H395.822V582.446H355.91V602.625H400.322V617.861H337.797V535.477Z" fill="#CC0000"/>
<path d="M433.088 550.713H408.398V535.477H475.901V550.713H451.198V617.861H433.088V550.713Z" fill="#CC0000"/>
</svg>
