<?xml version="1.0" encoding="UTF-8" standalone="no"?>
<!-- Created with Inkscape (http://www.inkscape.org/) by Marsupilami -->
<svg xmlns:rdf="http://www.w3.org/1999/02/22-rdf-syntax-ns#" xmlns="http://www.w3.org/2000/svg" height="109.89" width="1018.2" version="1.0" xmlns:cc="http://creativecommons.org/ns#" xmlns:dc="http://purl.org/dc/elements/1.1/" viewBox="0 0 1018.1177 109.86523">
 <metadata>
  <rdf:RDF>
   <cc:Work rdf:about="">
    <dc:format>image/svg+xml</dc:format>
    <dc:type rdf:resource="http://purl.org/dc/dcmitype/StillImage"/>
    <dc:title/>
   </cc:Work>
  </rdf:RDF>
 </metadata>
 <defs>
  <clipPath id="clipPath2661">
   <path d="m0.029999 1191h841.98v-1191h-841.98z"/>
  </clipPath>
  <clipPath id="clipPath2655">
   <path d="m13 1178h816v-1165h-816z"/>
  </clipPath>
  <clipPath id="clipPath2649">
   <path d="m435.63 979.13h217.75v-60.45h-217.75z"/>
  </clipPath>
  <clipPath id="clipPath2643">
   <path d="m425.96 987.89v-81.929h241.4v81.929"/>
  </clipPath>
 </defs>
 <g transform="translate(134.63 -446.4)">
  <g transform="matrix(4.0341 0 0 4.0341 -1137.8 -1592.4)">
   <g transform="matrix(1.25 0 0 -1.25 -308.78 1716.7)">
    <g clip-path="url(#clipPath2643)">
     <g clip-path="url(#clipPath2649)">
      <g clip-path="url(#clipPath2655)">
       <g clip-path="url(#clipPath2661)">
        <g>
         <path d="m112.72 1.4688v25h24.969v-25z" transform="matrix(.8 0 0 -.8 445.49 969.03)" fill="#9e6f53"/>
         <path d="m217.94 1.375-15.19 0.0312v1.375c3.32 0 4.1875 1.2175 4.1875 3.6875v14.438c0 3.2088-0.72375 3.9975-4.1875 4.2188v1.4062l24.25-0.032-0.81-6.125h-1.5312c-1.8788 3.3188-2.3212 4.5312-5.5625 4.5312h-0.48c-3.61 0-4.8438-1.4525-4.8438-4.8438v-13.75c0-2.1012 0.76626-3.5625 4.1562-3.5625zm-217.35 0.0312 0.87505 5.9688h1.25c2.0287-3.6862 1.8124-4.375 5.0937-4.375h2.4375v18.344c0 2.615-0.94625 3.8125-3.9688 3.8125v1.4062h14.812v-1.4062c-3.095 0-3.9688-1.2725-3.9688-3.5938v-18.562h2.5c3.245 0 2.9238 0.6525 5.0625 4.375h1.25l0.875-5.9688zm48.812 0 0.90625 5.9688h1.25c2.029-3.6862 1.814-4.375 5.094-4.375h2.4375v18.344c0 2.615-0.97875 3.8125-4 3.8125v1.406h14.844v-1.4062c-3.095 0-3.9688-1.2725-3.9688-3.5938v-18.562h2.5c3.243 0 2.892 0.6525 5.031 4.375h1.25l0.90625-5.9688zm29.438 0v1.4063c2.985 0 3.9375 1.3175 3.9375 3.75v14.844c0 2.6912-1.1363 3.75-3.9375 3.75v1.4062h22.938l-1.0625-6.1562h-1.6875c-1.7187 3.4324-1.1184 4.5433-5.0938 4.5625-3.3162 0-4.3125-1.1175-4.3125-4.6562v-6.062h3.0938c3.1675 0 4.4325 0.94875 4.875 3.75h1.5v-8.875h-1.5c-0.18625 2.6175-1.4737 3.5312-4.9375 3.5312h-3.033v-9.656h3.9688c3.06 0 3.7362 0.685 5.0625 4h1.3125l1.2188-5.5938zm84.406 0-15.156 0.03125v1.4062c3.3188 0 4.1563 1.22 4.1562 3.6875v14.407c0 3.2062-0.69125 4.0275-4.1562 4.25l-0.0312 1.375 24.25-0.03125-0.78125-6.0938h-1.5625c-1.88 3.3188-2.2888 4.5313-5.5312 4.5312h-0.46875c-3.6088 0-4.875-1.4838-4.875-4.875v-13.75c0-2.1012 0.76499-3.5312 4.1562-3.5312zm9.0938 0v1.4063c1.55 0.14625 2.525 0.65375 3.375 1.9062l7.625 10.688v6.25c0 2.4688-1.3475 3.5-3.7812 3.5v1.4062l13.844 0.03125v-1.406c-2.39 0-3.65-1.08-3.65-3.438v-6.969l5.69-8.406c1.805-2.5812 2.7388-3.3788 4.25-3.5625v-1.4063h-9.0938v1.4063c2.9488 0.14625 3.5525 2.3888 1.7812 4.9688l-4 5.8125-5.3438-7.5312c-1.3275-1.9175-0.72501-3.25 2.1875-3.25v-1.4064zm57.656 0v1.4063c2.9825 0 3.9688 1.3175 3.9688 3.75v14.844c0 2.6912-1.1687 3.75-3.9688 3.75v1.4062h22.969l-1.09-6.156h-1.6875c-1.7222 3.4419-1.0839 4.5494-5.0938 4.5625-3.315 0-4.3125-1.1175-4.3125-4.6562v-6.062h3.0938c3.1688 0 4.4338 0.94875 4.875 3.75h1.5v-8.875h-1.5c-0.185 2.6175-1.475 3.5312-4.9375 3.5312h-3.0312v-9.656h4c3.06 0 3.7038 0.685 5.0312 4h1.3438l1.24-5.5938z" transform="matrix(.8 0 0 -.8 445.49 969.03)" fill="#004685"/>
         <path d="m473.82 962.44-1.959-5.216 4.04 0.018zm2.759-6.791-5.336-0.016-1.063-2.771c-0.796-2.065-0.059-3.834 2.182-3.953v-1.121h-6.781v1.121c1.532 0.383 2.005 1.179 2.86 3.303l6.305 15.688h2.363l7.314-17.015c0.59-1.358 1.151-1.976 2.24-1.976v-1.121l-10.762 0.016v1.121c2.36 0.235 2.92 1.356 2.182 3.126l-1.504 3.598" fill="#004685"/>
        </g>
        <path d="m535.66 947.86h19.989v19.989h-19.989z" stroke="#9e6f53" stroke-miterlimit="2" stroke-width="0.418" fill="none"/>
        <path d="m544.34 961.88c1.8 1.052 2.47 1.801 2.47 2.793 0 1.05-1.293 2.731-2.432 2.731-1.351 0-2.59-1.017-2.59-2.189 0-0.9 0.931-1.923 2.552-3.335zm0.296-12.117c0.256 0.023 1.077-0.227 2.517 1.035-1.651 2.913-4.144 6.247-5.707 7.629-2.432-1.681-2.165-2.934-2.18-3.741-0.042-2.436 2.682-5.194 5.37-4.923zm12.057 11.334v-1.142c-2.853-0.602-2.439-2.484-5.565-6.659 0.572-0.692 1.263-1.563 1.655-1.953 2.07-2.073 1.472-2.509 3.951-2.634v-1.108s-1.233-0.022-1.392-0.022h-1.052c-2.341 0-5.123 0.317-6.446 2.301-2.375-2.163-3.846-2.633-6.189-2.633-4.175 0-6.248 2.885-6.248 5.557 0 2.464 1.418 3.814 5.472 6.669-1.56 1.712-2.192 2.913-2.192 4.084 0 2.464 4.933 5.482 6.794 5.482 2.346 0 3.845-2.704 3.845-3.875 0-1.292-1.019-2.21-4.082-4.132 1.591-1.382 3.394-4.055 5.166-6.729 1.264 1.683 1.749 3.2 1.868 3.969 0.183 1.171-0.75 1.473-1.891 1.683v1.142h6.306" fill="#fff"/>
       </g>
      </g>
     </g>
    </g>
   </g>
  </g>
 </g>
</svg>
