<svg xmlns="http://www.w3.org/2000/svg" viewBox="0 0 962.46 253.41">
  <defs>
    <style>
      .cls-1 {
        fill: #e4b731;
      }

      .cls-2 {
        fill: #6e3f21;
      }
    </style>
  </defs>
  <g id="Layer_2" data-name="Layer 2">
    <g id="Layer_1-2" data-name="Layer 1">
      <g>
        <g>
          <rect class="cls-1" x="9.5" y="9.5" width="943.46" height="234.41"/>
          <path class="cls-2" d="M943.46,19V234.41H19V19H943.46m19-19H0V253.41H962.46V0Z"/>
        </g>
        <g>
          <polygon class="cls-2" points="222.37 56.73 54 56.73 54 81.86 102.35 81.86 102.35 196.68 174.02 196.68 174.02 81.86 222.37 81.86 222.37 56.73"/>
          <polygon class="cls-2" points="378.68 81.86 378.68 56.73 317.95 56.73 246.39 56.73 244.22 56.73 244.22 196.68 246.39 196.68 317.95 196.68 378.68 196.68 378.68 169.29 317.95 169.29 317.95 136.97 378.68 136.97 378.68 111.84 317.95 111.84 317.95 81.86 378.68 81.86"/>
          <polygon class="cls-2" points="750.08 81.86 750.08 56.73 689.35 56.73 617.79 56.73 615.62 56.73 615.62 196.68 617.79 196.68 689.35 196.68 750.08 196.68 750.08 169.29 689.35 169.29 689.35 136.97 750.08 136.97 750.08 111.84 689.35 111.84 689.35 81.86 750.08 81.86"/>
          <polygon class="cls-2" points="591.75 196.68 539.2 108.75 576.45 56.73 534.61 56.73 475.08 126.48 475.08 56.73 401.35 56.73 401.35 196.68 475.08 196.68 475.08 141.39 514.21 196.68 591.75 196.68"/>
          <polygon class="cls-2" points="844.44 169.29 844.44 56.73 770.71 56.73 770.71 196.68 775.77 196.68 844.44 196.68 908.05 196.68 908.05 169.29 844.44 169.29"/>
        </g>
      </g>
    </g>
  </g>
</svg>
