<svg width="500" height="59" viewBox="0 0 500 59" fill="none" xmlns="http://www.w3.org/2000/svg">
<g clip-path="url(#clip0_2_2490)">
<mask id="mask0_2_2490" style="mask-type:luminance" maskUnits="userSpaceOnUse" x="0" y="0" width="500" height="59">
<path d="M500 0H0V58.2058H500V0Z" fill="white"/>
</mask>
<g mask="url(#mask0_2_2490)">
<path d="M42.1179 3.07198C38.2012 1.11157 33.7833 0 29.1024 0C25.117 0 21.3174 0.804373 17.8574 2.25548L30.4929 12.4051L43.3427 22.7246H57.4899C55.5658 14.1028 49.8181 6.93215 42.1179 3.07198Z" fill="#A7E0FF"/>
<path d="M17.8579 2.25586C9.49077 5.76438 3.1124 13.0724 0.873087 22.0216C0.303156 24.2893 0 26.662 0 29.1032C0 31.5447 0.303156 33.9134 0.869046 36.1809L9.68883 29.1032L30.4975 12.4055L17.8579 2.25586Z" fill="#5DB8FD"/>
<path d="M57.4938 35.4854H43.3467L30.4888 45.8047L42.1098 55.1337C49.814 51.2776 55.5659 44.107 57.4938 35.4854Z" fill="#1E3896"/>
<path d="M30.4934 45.8052L9.68894 29.0991L0.869141 36.181C3.1044 45.13 9.48279 52.4422 17.8499 55.9506C21.3139 57.4018 25.1134 58.2062 29.103 58.2062C33.7797 58.2062 38.1976 57.0945 42.1103 55.1341L30.4934 45.8052Z" fill="#196EEF"/>
<path d="M84.3217 17.6277H75.4775V14.6001H96.5086V17.6277H87.6282V43.6748H84.3217V17.6277ZM100.692 12.2881H103.918V25.631C104.686 24.4346 105.708 23.4887 106.986 22.7812C108.259 22.0779 109.722 21.7262 111.367 21.7262C112.774 21.7262 114.043 21.9446 115.171 22.3852C116.299 22.8216 117.26 23.4604 118.057 24.2971C118.853 25.1337 119.463 26.1483 119.888 27.3448C120.312 28.5412 120.526 29.8954 120.526 31.4071V43.6748H117.18V31.5648C117.18 29.4669 116.63 27.7935 115.527 26.5446C114.423 25.2954 112.81 24.6731 110.688 24.6731C109.734 24.6731 108.849 24.8469 108.04 25.1904C107.232 25.5339 106.521 26.0189 105.91 26.6456C105.3 27.2681 104.823 28.0119 104.475 28.8769C104.132 29.7419 103.958 30.6877 103.958 31.7225V43.6708H100.692V12.2881ZM136.578 44.1112C134.852 44.1112 133.291 43.8244 131.897 43.2544C130.502 42.6846 129.31 41.9004 128.311 40.906C127.313 39.9116 126.553 38.7354 126.02 37.3812C125.49 36.0273 125.223 34.5679 125.223 32.9998C125.223 31.4071 125.506 29.9277 126.08 28.5575C126.65 27.1912 127.434 26.0029 128.429 24.9923C129.423 23.9819 130.607 23.1856 131.974 22.6035C133.34 22.0214 134.835 21.7262 136.456 21.7262C138.025 21.7262 139.476 21.9971 140.818 22.5429C142.16 23.0885 143.312 23.8444 144.282 24.8146C145.252 25.7846 146.016 26.9406 146.574 28.2785C147.131 29.6204 147.41 31.0877 147.41 32.6804V34.1556H128.413C128.518 35.1904 128.796 36.1323 129.249 36.9852C129.702 37.8339 130.276 38.5737 130.983 39.1962C131.687 39.8187 132.511 40.3037 133.453 40.6512C134.395 40.995 135.438 41.1687 136.582 41.1687C138.308 41.1687 139.755 40.8089 140.923 40.0935C142.091 39.3781 143.045 38.3554 143.789 37.0256L146.578 38.6585C145.462 40.3846 144.108 41.7264 142.515 42.6804C140.919 43.6344 138.942 44.1112 136.578 44.1112ZM136.46 24.6366C135.426 24.6366 134.464 24.8023 133.574 25.1337C132.685 25.4652 131.893 25.9302 131.206 26.5283C130.514 27.1264 129.936 27.8298 129.472 28.6383C129.007 29.4466 128.679 30.3319 128.498 31.2858H144.071C143.805 29.2406 142.996 27.6198 141.642 26.4273C140.284 25.2348 138.558 24.6366 136.46 24.6366ZM177.083 44.0708C174.957 44.0708 172.989 43.6787 171.17 42.8946C169.351 42.1106 167.778 41.0433 166.448 39.6894C165.119 38.3352 164.072 36.7548 163.304 34.9479C162.532 33.1412 162.148 31.205 162.148 29.1314C162.148 27.0335 162.54 25.0773 163.324 23.2583C164.108 21.4394 165.171 19.8589 166.509 18.5169C167.851 17.175 169.432 16.12 171.25 15.352C173.069 14.584 175.014 14.196 177.087 14.196C178.441 14.196 179.755 14.3738 181.032 14.7335C182.305 15.0933 183.49 15.5905 184.577 16.2291C185.664 16.8678 186.667 17.6358 187.584 18.5371C188.502 19.4385 189.278 20.4369 189.913 21.5241L187.047 23.2785C186.036 21.5 184.678 20.065 182.964 18.9777C181.25 17.8904 179.294 17.3447 177.091 17.3447C175.446 17.3447 173.918 17.656 172.511 18.2825C171.105 18.905 169.884 19.7498 168.845 20.8128C167.811 21.8758 166.994 23.1208 166.396 24.5558C165.798 25.9908 165.499 27.5185 165.499 29.1354C165.499 30.7562 165.79 32.2762 166.376 33.695C166.958 35.1177 167.77 36.3587 168.805 37.4177C169.84 38.4808 171.06 39.3175 172.471 39.9277C173.878 40.5381 175.406 40.8454 177.051 40.8454C179.468 40.8454 181.558 40.2633 183.324 39.091C185.09 37.9229 186.436 36.395 187.366 34.5114L190.313 36.0635C189.674 37.26 188.906 38.3473 188.005 39.3296C187.103 40.3119 186.085 41.1566 184.957 41.86C183.829 42.5633 182.601 43.1089 181.275 43.4929C179.937 43.881 178.546 44.0708 177.083 44.0708ZM195.046 12.2881H198.312V43.6748H195.046V12.2881ZM214.804 44.1112C213.21 44.1112 211.735 43.8244 210.381 43.2544C209.027 42.6846 207.851 41.8923 206.857 40.8858C205.863 39.8752 205.079 38.695 204.509 37.3408C203.939 35.9869 203.652 34.5114 203.652 32.9187C203.652 31.3506 203.935 29.8873 204.509 28.5171C205.079 27.1508 205.871 25.9625 206.877 24.9519C207.888 23.9414 209.069 23.1531 210.423 22.5833C211.777 22.0133 213.235 21.7262 214.804 21.7262C216.373 21.7262 217.835 22.0133 219.206 22.5833C220.571 23.1531 221.76 23.9454 222.771 24.9519C223.781 25.9625 224.569 27.1508 225.14 28.5171C225.708 29.8833 225.996 31.3506 225.996 32.9187C225.996 34.4871 225.708 35.9464 225.14 37.3004C224.569 38.6546 223.777 39.8348 222.771 40.8454C221.76 41.8558 220.579 42.6521 219.225 43.2341C217.867 43.8204 216.396 44.1112 214.804 44.1112ZM214.804 41.0071C215.919 41.0071 216.963 40.8008 217.931 40.3885C218.902 39.9762 219.74 39.4064 220.442 38.6748C221.146 37.9431 221.696 37.0902 222.096 36.1039C222.496 35.1219 222.694 34.0587 222.694 32.9187C222.694 31.7789 222.496 30.7079 222.096 29.7135C221.696 28.7191 221.142 27.8541 220.423 27.1264C219.706 26.395 218.871 25.825 217.913 25.4127C216.958 25.0004 215.919 24.7944 214.804 24.7944C213.688 24.7944 212.654 25.0004 211.696 25.4127C210.742 25.825 209.908 26.395 209.206 27.1264C208.502 27.8581 207.952 28.7191 207.552 29.7135C207.152 30.7079 206.954 31.7789 206.954 32.9187C206.954 34.0871 207.152 35.1623 207.552 36.1444C207.952 37.1266 208.502 37.9754 209.206 38.695C209.908 39.4104 210.738 39.9762 211.696 40.3885C212.654 40.8008 213.688 41.0071 214.804 41.0071ZM231.292 22.1669H234.435V26.2291C234.89 24.7944 235.638 23.7069 236.688 22.9631C237.733 22.2196 239.031 21.8477 240.573 21.8477C242.113 21.8477 243.308 22.1144 244.156 22.6439L242.802 25.7523C242.513 25.5421 242.144 25.3723 241.708 25.255C241.271 25.1379 240.758 25.0773 240.175 25.0773C238.369 25.0773 236.975 25.6148 235.992 26.69C235.01 27.7652 234.517 29.4991 234.517 31.8881V43.6787H231.292V22.1669ZM256.465 44.1112C254.873 44.1112 253.398 43.8244 252.044 43.2544C250.69 42.6846 249.513 41.8923 248.519 40.8858C247.525 39.8752 246.74 38.695 246.171 37.3408C245.6 35.9869 245.313 34.5114 245.313 32.9187C245.313 31.3506 245.596 29.8873 246.171 28.5171C246.74 27.1508 247.533 25.9625 248.54 24.9519C249.55 23.9414 250.729 23.1531 252.083 22.5833C253.438 22.0133 254.898 21.7262 256.465 21.7262C258.033 21.7262 259.496 22.0133 260.867 22.5833C262.233 23.1531 263.421 23.9454 264.431 24.9519C265.444 25.9625 266.231 27.1508 266.8 28.5171C267.371 29.8833 267.658 31.3506 267.658 32.9187C267.658 34.4871 267.371 35.9464 266.8 37.3004C266.231 38.6546 265.44 39.8348 264.431 40.8454C263.421 41.8558 262.242 42.6521 260.888 43.2341C259.529 43.8204 258.058 44.1112 256.465 44.1112ZM256.465 41.0071C257.581 41.0071 258.623 40.8008 259.59 40.3885C260.56 39.9762 261.396 39.4064 262.1 38.6748C262.804 37.9431 263.352 37.0902 263.754 36.1039C264.154 35.1219 264.352 34.0587 264.352 32.9187C264.352 31.7789 264.154 30.7079 263.754 29.7135C263.352 28.7191 262.796 27.8541 262.079 27.1264C261.365 26.395 260.527 25.825 259.569 25.4127C258.613 25.0004 257.577 24.7944 256.46 24.7944C255.346 24.7944 254.31 25.0004 253.352 25.4127C252.4 25.825 251.567 26.395 250.863 27.1264C250.16 27.8581 249.61 28.7191 249.21 29.7135C248.81 30.7079 248.613 31.7789 248.613 32.9187C248.613 34.0871 248.81 35.1623 249.21 36.1444C249.61 37.1266 250.16 37.9754 250.863 38.695C251.567 39.4104 252.396 39.9762 253.352 40.3885C254.31 40.8008 255.35 41.0071 256.465 41.0071ZM277.608 32.6804L269.525 22.1669H273.506L279.679 30.2914L285.852 22.1669H289.796L281.671 32.6804L290.273 43.6748H286.21L279.638 35.1904L273.188 43.6748H269.125L277.608 32.6804ZM318.11 44.0708C315.985 44.0708 314.017 43.6787 312.198 42.8946C310.379 42.1106 308.806 41.0433 307.477 39.6894C306.146 38.3352 305.1 36.7548 304.331 34.9479C303.56 33.1412 303.175 31.205 303.175 29.1314C303.175 27.0335 303.567 25.0773 304.352 23.2583C305.135 21.4394 306.198 19.8589 307.538 18.5169C308.879 17.175 310.458 16.12 312.279 15.352C314.098 14.584 316.042 14.196 318.115 14.196C319.469 14.196 320.783 14.3738 322.06 14.7335C323.333 15.0933 324.517 15.5905 325.604 16.2291C326.692 16.8678 327.694 17.6358 328.613 18.5371C329.529 19.4385 330.306 20.4369 330.94 21.5241L328.071 23.2785C327.06 21.5 325.702 20.065 323.988 18.9777C322.275 17.8904 320.319 17.3447 318.115 17.3447C316.471 17.3447 314.942 17.656 313.535 18.2825C312.129 18.905 310.908 19.7498 309.873 20.8128C308.838 21.8758 308.023 23.1208 307.423 24.5558C306.825 25.9908 306.527 27.5185 306.527 29.1354C306.527 30.7562 306.817 32.2762 307.404 33.695C307.985 35.1177 308.798 36.3587 309.833 37.4177C310.867 38.4808 312.088 39.3175 313.498 39.9277C314.906 40.5381 316.433 40.8454 318.079 40.8454C320.496 40.8454 322.585 40.2633 324.352 39.091C326.119 37.9229 327.465 36.395 328.394 34.5114L331.34 36.0635C330.702 37.26 329.933 38.3473 329.029 39.3296C328.127 40.3119 327.108 41.1566 325.981 41.86C324.852 42.5633 323.625 43.1089 322.298 43.4929C320.969 43.881 319.575 44.0708 318.11 44.0708ZM346.038 44.1112C344.446 44.1112 342.969 43.8244 341.615 43.2544C340.263 42.6846 339.085 41.8923 338.092 40.8858C337.096 39.8752 336.313 38.695 335.742 37.3408C335.173 35.9869 334.885 34.5114 334.885 32.9187C334.885 31.3506 335.173 29.8873 335.742 28.5171C336.313 27.1508 337.104 25.9625 338.11 24.9519C339.121 23.9414 340.302 23.1531 341.656 22.5833C343.01 22.0133 344.469 21.7262 346.038 21.7262C347.606 21.7262 349.069 22.0133 350.44 22.5833C351.806 23.1531 352.994 23.9454 354.004 24.9519C355.015 25.9625 355.804 27.1508 356.373 28.5171C356.944 29.8833 357.229 31.3506 357.229 32.9187C357.229 34.4871 356.944 35.9464 356.373 37.3004C355.804 38.6546 355.01 39.8348 354.004 40.8454C352.994 41.8558 351.815 42.6521 350.46 43.2341C349.106 43.8204 347.629 44.1112 346.038 44.1112ZM346.038 41.0071C347.154 41.0071 348.196 40.8008 349.167 40.3885C350.135 39.9762 350.973 39.4064 351.677 38.6748C352.379 37.9431 352.929 37.0902 353.329 36.1039C353.729 35.1219 353.927 34.0587 353.927 32.9187C353.927 31.7789 353.729 30.7079 353.329 29.7135C352.929 28.7191 352.371 27.8541 351.656 27.1264C350.94 26.395 350.104 25.825 349.146 25.4127C348.188 25.0004 347.154 24.7944 346.038 24.7944C344.923 24.7944 343.888 25.0004 342.929 25.4127C341.975 25.825 341.142 26.395 340.44 27.1264C339.735 27.8581 339.185 28.7191 338.785 29.7135C338.385 30.7079 338.188 31.7789 338.188 32.9187C338.188 34.0871 338.385 35.1623 338.785 36.1444C339.185 37.1266 339.735 37.9754 340.44 38.695C341.142 39.4104 341.971 39.9762 342.929 40.3885C343.888 40.8008 344.923 41.0071 346.038 41.0071ZM361.94 22.1669H365.165V25.3116C365.856 24.196 366.777 23.3189 367.933 22.6844C369.09 22.0456 370.465 21.7304 372.056 21.7304C373.969 21.7304 375.548 22.1346 376.798 22.9471C378.046 23.7554 378.96 24.8387 379.546 26.1929C380.238 24.8387 381.244 23.7554 382.573 22.9471C383.9 22.1385 385.469 21.7304 387.275 21.7304C390.275 21.7304 392.546 22.5752 394.085 24.2608C395.625 25.9462 396.394 28.1977 396.394 31.011V43.6748H393.088V31.0473C393.088 29.1354 392.563 27.5873 391.515 26.4071C390.465 25.2269 388.944 24.6325 386.956 24.6325C386.054 24.6325 385.221 24.7781 384.465 25.0691C383.71 25.3602 383.05 25.7927 382.494 26.3627C381.935 26.9325 381.498 27.6319 381.179 28.4523C380.86 29.2769 380.702 30.2187 380.702 31.2819V43.6666H377.435V30.7281C377.435 28.8687 376.923 27.3894 375.904 26.2858C374.881 25.1823 373.415 24.6325 371.502 24.6325C369.644 24.6325 368.131 25.2429 366.963 26.4637C365.796 27.6844 365.208 29.386 365.208 31.5606V43.6666H361.944V22.1669H361.94ZM413.719 44.1112C412.125 44.1112 410.598 43.7596 409.138 43.0564C407.679 42.3531 406.523 41.3223 405.675 39.9681V52.8098H402.448V22.1669H405.633V26.1121C406.058 25.4208 406.571 24.8023 407.167 24.2608C407.765 23.715 408.419 23.2583 409.138 22.8864C409.854 22.5146 410.606 22.2275 411.39 22.0296C412.173 21.8314 412.963 21.7304 413.758 21.7304C415.246 21.7304 416.652 22.0012 417.983 22.5469C419.308 23.0925 420.473 23.8606 421.467 24.855C422.46 25.8491 423.246 27.0335 423.815 28.3998C424.385 29.766 424.673 31.2737 424.673 32.9187C424.673 34.5639 424.385 36.0716 423.815 37.4379C423.246 38.8041 422.469 39.9883 421.488 40.9827C420.504 41.9771 419.34 42.7491 418.002 43.2908C416.656 43.8406 415.229 44.1112 413.719 44.1112ZM413.44 41.0433C414.554 41.0433 415.598 40.8373 416.567 40.425C417.538 40.0127 418.379 39.4427 419.098 38.711C419.813 37.9796 420.371 37.1185 420.771 36.1241C421.171 35.1298 421.369 34.0466 421.369 32.8783C421.369 31.7385 421.171 30.6675 420.771 29.6731C420.371 28.6787 419.813 27.8137 419.098 27.086C418.383 26.3546 417.538 25.7764 416.567 25.3521C415.598 24.9277 414.554 24.7135 413.44 24.7135C412.296 24.7135 411.235 24.9316 410.254 25.3723C409.271 25.8087 408.423 26.395 407.704 27.1264C406.988 27.8581 406.423 28.7191 406.01 29.7135C405.598 30.7079 405.392 31.7669 405.392 32.8783C405.392 34.0223 405.598 35.0894 406.01 36.0837C406.423 37.0781 406.983 37.9431 407.704 38.6706C408.419 39.4023 409.271 39.9804 410.254 40.4048C411.235 40.8331 412.296 41.0433 413.44 41.0433ZM439.381 44.1112C437.869 44.1112 436.438 43.8406 435.1 43.2948C433.758 42.7491 432.598 41.9812 431.617 40.9869C430.633 39.9925 429.858 38.8081 429.288 37.4419C428.719 36.0756 428.431 34.5679 428.431 32.9229C428.431 31.2777 428.719 29.77 429.288 28.4037C429.858 27.0377 430.642 25.8533 431.638 24.8589C432.631 23.8646 433.796 23.0925 435.121 22.5508C436.446 22.0052 437.869 21.7344 439.381 21.7344C440.95 21.7344 442.473 22.1062 443.96 22.85C445.448 23.5937 446.617 24.6406 447.465 25.9948V22.171H450.65V43.6787H447.425V39.855C447 40.5179 446.488 41.1162 445.894 41.6456C445.294 42.1752 444.644 42.6198 443.94 42.9796C443.238 43.3394 442.494 43.6181 441.708 43.8162C440.929 44.0144 440.152 44.1112 439.381 44.1112ZM439.66 41.0433C440.8 41.0433 441.863 40.8291 442.846 40.4048C443.827 39.9804 444.677 39.4023 445.396 38.6706C446.11 37.9391 446.669 37.0781 447.069 36.0837C447.469 35.0894 447.667 34.0183 447.667 32.8783C447.667 31.7629 447.469 30.7079 447.069 29.7135C446.669 28.7191 446.11 27.8541 445.396 27.1264C444.681 26.395 443.827 25.8129 442.846 25.3723C441.863 24.9358 440.8 24.7135 439.66 24.7135C438.544 24.7135 437.502 24.9277 436.535 25.3521C435.565 25.7764 434.725 26.3546 434.004 27.086C433.29 27.8177 432.731 28.6787 432.331 29.6731C431.931 30.6675 431.733 31.7385 431.733 32.8783C431.733 34.0466 431.931 35.1298 432.331 36.1241C432.731 37.1185 433.285 37.9835 434.004 38.711C434.721 39.4427 435.565 40.0127 436.535 40.425C437.506 40.8412 438.544 41.0433 439.66 41.0433ZM456.669 22.1669H459.854V25.7523C460.598 24.5558 461.613 23.5898 462.902 22.846C464.192 22.1023 465.671 21.7304 467.344 21.7304C468.75 21.7304 470.021 21.9487 471.148 22.3891C472.275 22.8258 473.238 23.4644 474.033 24.3012C474.829 25.1379 475.44 26.1525 475.865 27.3489C476.29 28.5454 476.504 29.8994 476.504 31.4112V43.6787H473.198V31.5648C473.198 29.4669 472.64 27.7935 471.523 26.5446C470.408 25.2954 468.804 24.6731 466.706 24.6731C465.748 24.6731 464.858 24.8469 464.038 25.1904C463.213 25.5339 462.498 26.0189 461.888 26.6456C461.277 27.2681 460.8 28.0119 460.452 28.8769C460.108 29.7419 459.935 30.6877 459.935 31.7225V43.6708H456.669V22.1669ZM483.479 52.8098L487.854 42.64L478.852 22.1669H482.396L489.604 38.8162L496.454 22.1669H500L486.719 52.8098H483.479Z" fill="black"/>
</g>
</g>
<defs>
<clipPath id="clip0_2_2490">
<rect width="500" height="58.3333" fill="white"/>
</clipPath>
</defs>
</svg>
