<svg width="500" height="300" viewBox="0 0 500 300" fill="none" xmlns="http://www.w3.org/2000/svg">
<g clip-path="url(#clip0_2_1930)">
<path d="M162.213 140.032C164.351 140.032 166.756 140.032 168.894 139.498C168.359 146.178 168.359 153.127 167.825 169.161V189.471C167.825 202.031 168.894 209.781 169.963 212.988C174.239 222.875 183.057 232.229 198.557 231.694C212.186 231.16 221.54 226.884 227.151 215.66C230.893 207.91 231.427 202.565 231.962 182.79V170.23C231.427 159.273 230.893 152.058 230.358 139.498C231.962 139.765 233.565 140.032 235.169 140.032C236.772 140.032 238.375 140.032 239.979 139.498C239.444 143.773 238.91 167.557 238.91 167.557V182.523C238.91 202.298 237.841 206.574 235.703 213.255C234.367 218.332 231.427 222.875 227.419 226.35C220.738 234.099 209.781 237.841 196.686 237.841C184.661 237.841 173.17 234.634 166.489 228.487C159.273 221.272 156.601 214.858 156.601 199.893V166.488C156.601 156.601 155.532 145.11 154.998 139.498C157.403 140.032 159.808 140.299 162.213 140.032Z" fill="#003471"/>
<path d="M106.093 136.291C106.093 136.291 109.834 146.178 113.308 153.928C118.92 164.885 127.472 185.195 130.946 193.479C134.153 201.229 142.972 219.936 142.972 219.936L150.722 236.504C148.049 236.504 145.911 235.97 142.972 235.97C140.299 235.97 137.894 235.97 135.222 236.504L129.61 222.341C128.541 218.599 126.937 214.858 125.067 211.384C123.463 206.574 121.326 202.031 118.92 197.755H82.3089C81.7745 199.358 79.1021 206.039 77.2314 210.85C73.4901 219.401 70.2833 228.22 67.8781 237.306C66.2747 236.772 64.6713 236.237 62.8006 236.237C61.1972 236.237 59.5938 236.237 57.7231 236.772C57.7231 236.772 60.3955 229.556 63.8696 223.142C68.1454 213.255 74.2918 200.16 79.3693 189.203C83.1106 180.385 102.352 137.894 102.352 136.825H106.093V136.291ZM97.8087 162.48C95.6708 167.023 84.7141 191.609 84.7141 191.609H117.05C117.05 191.609 111.438 178.781 108.231 170.764C103.421 159.807 101.016 155.264 101.016 156.066C100.214 158.204 99.1448 160.609 97.8087 162.48Z" fill="#003471"/>
<path d="M267.504 140.566H274.72L285.676 140.032L295.03 139.498H297.702C316.409 139.498 324.693 141.635 334.046 150.454C343.399 159.273 348.477 171.566 348.21 184.661C348.21 200.428 341.262 215.393 328.969 225.281C319.081 233.565 308.124 236.237 283.271 235.703H264.03C261.358 235.703 258.953 235.97 256.28 236.237C256.815 234.099 257.349 213.255 257.349 208.177V184.126C257.349 178.514 257.349 163.816 256.815 155.532C256.815 150.722 256.28 140.032 256.28 140.032C260.289 140.567 263.763 140.834 267.504 140.566ZM286.211 230.893C291.288 231.16 296.366 230.893 301.711 230.358C309.46 229.556 316.676 225.815 322.021 219.936C330.305 212.186 334.046 200.16 334.046 186.264C333.512 172.1 330.305 158.739 320.417 151.523C312.667 146.178 308.391 144.842 292.892 144.308C285.409 144.308 277.926 144.842 270.444 145.911L269.375 146.446C269.375 149.118 268.84 163.014 268.84 173.437V215.126C269.375 221.806 269.375 225.548 269.909 230.091C275.254 230.893 280.866 231.16 286.211 230.893Z" fill="#003471"/>
<path d="M363.175 139.497C376.27 140.032 381.882 140.032 388.028 140.032H412.079C412.079 141.101 411.545 142.704 411.545 143.773C411.545 144.842 411.545 147.514 412.079 147.514C408.872 146.98 405.398 146.98 400.588 146.446C387.494 145.911 384.019 145.911 379.744 145.911H374.399V163.014C373.864 165.954 373.597 168.893 373.864 171.833C373.864 176.643 374.399 181.721 374.399 181.721H397.916C401.657 181.454 405.131 181.186 408.872 181.186C408.338 181.186 408.338 182.79 408.338 184.928C408.338 186.531 408.872 188.669 408.338 188.669C403.261 188.134 392.304 187.6 383.752 187.6H374.132V207.91C374.132 213.255 374.666 217.263 374.666 217.798C374.666 221.539 374.666 225.548 375.201 229.289C376.537 229.823 378.14 229.823 379.476 229.823C390.7 229.556 401.924 228.487 412.881 227.151C412.614 228.487 412.347 229.823 412.347 230.892V235.168H374.132C369.856 234.901 365.313 235.168 361.037 235.703C361.572 235.703 362.641 224.211 362.641 216.462V204.436L363.175 186.798C363.175 186.798 362.106 144.575 361.572 138.963H363.175V139.497Z" fill="#003471"/>
<path d="M19.7755 230.091H26.9909C30.7322 230.358 34.7408 230.091 38.4821 229.556C46.232 229.556 51.5767 228.487 53.1801 228.487V236.237H49.9733C46.232 236.237 42.2234 235.97 38.4821 235.703H12.0257C4.27579 235.703 0.534474 236.237 0 236.237C0.534474 231.427 1.60342 206.574 1.60342 188.402C1.60342 170.23 0 139.498 0 139.498C2.13789 139.498 5.0775 140.032 7.21539 140.032C9.35329 140.032 14.4308 139.498 14.4308 139.498C13.0946 153.661 12.5601 167.557 12.8274 181.721C12.8274 181.721 12.8274 216.996 13.3618 227.418L13.8963 229.556C13.6291 230.091 16.3014 230.091 19.7755 230.091Z" fill="#003471"/>
<path d="M441.742 189.471V206.574L442.277 220.203L442.811 235.168V236.237C440.406 235.97 438.001 235.703 435.596 235.703C433.458 235.703 431.053 235.703 428.915 236.237L429.45 221.272C429.984 210.315 429.984 200.428 429.984 183.324C429.984 172.368 429.984 166.756 429.45 154.196C429.45 149.385 428.915 140.032 428.915 140.032C432.389 140.567 435.863 140.566 439.337 140.566C442.01 140.566 446.553 140.032 450.294 140.032C456.975 139.498 461.251 139.498 462.32 139.498C485.302 139.498 491.983 150.454 491.983 161.411C491.983 174.506 480.492 184.393 461.251 188.402V188.936L471.673 201.496L481.026 212.988L491.448 226.082C495.724 231.694 497.06 233.832 499.733 236.505H484.233L467.664 213.789C463.389 207.643 448.423 189.738 447.889 189.738L441.742 189.471ZM449.492 184.661C460.449 184.661 464.458 183.057 469.268 180.118C475.681 176.643 479.423 169.695 479.156 162.48C478.621 152.058 472.475 144.308 456.173 144.308C451.363 144.308 446.553 144.842 441.742 145.911V183.859C444.148 184.661 446.82 184.661 449.492 184.661Z" fill="#003471"/>
<path d="M94.0671 19.2411C81.7743 19.7755 74.8261 26.4565 74.8261 36.8787C74.8261 44.0941 79.1019 50.5078 85.7828 53.4474C88.9896 54.5163 94.0671 57.1887 98.8774 59.0594C114.912 64.1369 121.325 71.6195 121.325 83.1107C121.325 101.283 105.826 114.377 86.5845 114.377C77.7657 114.645 69.2141 111.705 62.5332 106.093C62.5332 106.093 64.1366 98.3432 64.6711 95.1363C64.6711 95.1363 74.5589 110.636 88.7224 109.834C100.481 110.369 110.369 101.016 110.636 89.2571C110.636 88.9899 110.636 88.7226 110.636 88.4554C110.636 78.5676 104.489 72.4212 90.3258 67.6109C76.1623 62.8007 70.0158 57.1887 67.3435 52.6457C65.2056 48.9044 64.1366 44.8958 64.1366 40.62C64.1366 25.1203 76.6968 14.1636 94.8689 14.1636C109.567 14.1636 116.782 21.379 116.782 21.379C115.179 24.853 113.843 28.5944 113.041 32.3357C113.308 32.3357 107.696 19.2411 94.0671 19.2411Z" fill="#003471"/>
<path d="M169.161 23.5169L168.626 39.5511L168.092 58.7921C167.825 65.2058 167.825 71.6195 168.092 78.0332C167.825 89.7916 168.359 101.55 169.161 113.308C169.161 113.308 164.885 112.774 161.946 112.774C159.808 112.774 157.403 113.041 155.265 113.308C155.799 105.559 156.334 97.2742 156.334 78.5676V39.5511C156.334 39.5511 155.799 27.5254 155.799 23.5169L140.567 24.0513C135.489 24.0513 130.144 24.3186 125.067 25.1203C125.067 23.5169 125.334 22.1807 125.601 20.5773C125.601 19.2411 125.334 17.9049 125.067 16.8359C126.403 17.3704 160.342 17.3704 160.342 17.3704H164.885C176.911 17.3704 198.824 16.8359 198.824 16.8359V20.8445C198.824 22.4479 199.091 23.7841 199.359 25.3875C192.678 24.3186 188.936 24.3186 182.256 23.7841H169.161V23.5169Z" fill="#003471"/>
<path d="M2.13789 17.1032C15.2325 17.6376 20.31 17.6376 26.7237 17.6376C30.465 17.6376 46.4992 17.6376 49.1716 17.1032H50.775C50.775 18.1721 50.2405 19.7755 50.2405 20.8445V24.5858C46.4992 24.5858 43.0251 24.5858 39.2838 24.0513C26.4564 23.5169 22.4479 23.5169 18.7066 23.5169H13.0946V25.1203L12.5601 40.62V58.7921C12.5601 59.0594 12.8274 59.3266 13.0946 59.3266H26.1892C27.7926 59.3266 30.465 59.3266 36.6114 58.7921H47.0337V66.0075C41.4217 66.0075 30.9995 65.473 21.6462 64.9386C18.7066 64.9386 15.767 64.9386 12.8274 65.473H12.5601V74.8263L13.0946 85.783V95.6708C13.0946 97.8087 13.6291 102.886 13.6291 106.628L14.1636 107.162H18.7066C30.1978 107.162 46.7664 105.559 52.1112 105.024C51.8439 106.36 51.5767 107.696 51.5767 108.765V113.041H39.551L30.1978 112.507L12.5601 113.041H0C0 113.041 1.06895 102.084 1.06895 94.3346L1.60342 82.309V64.6713C1.60342 64.6713 1.06895 22.4479 0.534474 16.8359H2.13789V17.1032Z" fill="#003471"/>
<path d="M211.651 6.14645H262.694V0H211.651V6.14645Z" fill="#003471"/>
<path d="M213.789 17.1032C226.884 17.6376 232.496 17.6376 238.642 17.6376C242.384 17.6376 258.952 17.6376 261.09 17.1032H263.228C262.694 18.4394 262.694 19.7755 262.694 20.8445V24.5858C258.952 24.5858 254.944 24.5858 251.202 24.0513C238.642 23.5169 234.634 23.5169 230.358 23.5169H225.013V59.3266H238.642C240.246 59.3266 242.384 59.3266 249.065 58.7921H259.22C259.22 59.8611 258.952 60.93 258.685 61.999C258.685 63.3351 258.952 64.6713 259.22 65.7403C253.608 65.7403 243.185 65.2058 233.832 64.6713C230.625 64.6713 227.686 64.6713 224.479 65.2058V74.8263L225.013 85.783V95.6708C225.013 97.8087 225.548 102.886 225.548 106.628V107.162H230.358C241.315 107.162 258.418 105.559 263.228 105.024C262.961 106.36 262.694 107.696 262.694 108.765C262.694 110.369 262.694 111.705 263.228 113.041H251.202L241.849 112.507L224.212 113.041H211.651C211.651 113.041 212.72 102.084 212.72 94.3346V82.309L213.255 64.6713C213.255 64.6713 212.72 22.4479 211.651 16.8359L213.789 17.1032Z" fill="#003471"/>
<path d="M280.866 17.1032C293.961 17.6376 299.572 17.6376 305.452 17.6376C309.193 17.6376 325.762 17.6376 327.9 17.1032H330.037C329.503 18.4394 329.503 19.7755 329.503 20.8445V24.5858C325.762 24.5858 321.753 24.5858 318.012 24.0513C305.452 23.5169 301.443 23.5169 297.167 23.5169H291.823V59.3266H305.452C307.055 59.3266 309.193 59.3266 315.874 58.7921H326.296C326.296 59.8611 326.029 60.93 325.762 61.999C325.762 63.3351 326.029 64.6713 326.296 65.7403C320.684 65.7403 310.262 65.2058 300.909 64.6713C297.702 64.6713 294.762 64.6713 291.555 65.2058V74.8263L292.09 85.783V95.6708C292.09 97.8087 292.624 102.886 292.624 106.628V107.162H297.435C308.391 107.162 325.494 105.559 330.305 105.024C330.037 106.36 329.77 107.696 329.77 108.765C329.77 110.369 329.77 111.705 330.305 113.041H318.279L308.926 112.507L291.288 113.041H278.728C278.728 113.041 279.797 102.084 279.797 94.3346V82.309L280.331 64.6713C280.331 64.6713 279.797 22.4479 278.728 16.8359L280.866 17.1032Z" fill="#003471"/>
<path d="M34.2062 292.357L33.1372 296.099C29.3959 298.504 24.8529 299.573 20.5771 299.305C8.01696 299.305 0.26709 291.556 0.26709 278.995C0.26709 273.383 2.40498 267.771 6.41354 263.496C10.9566 260.022 16.5685 258.151 22.4477 258.685C26.7235 258.418 30.7321 259.22 34.4734 260.823C33.9389 262.159 33.4044 263.763 33.4044 265.099H32.87C29.9304 262.159 25.9218 260.556 21.646 260.823C17.103 260.556 12.56 262.694 9.62038 266.168C6.94801 269.909 5.61183 274.185 5.87906 278.728C5.61183 283.538 7.21525 288.081 10.1549 291.823C12.8272 295.03 16.8358 296.9 21.1116 296.633C25.9218 296.633 30.1976 295.03 33.6717 291.823L34.2062 292.357Z" fill="#003471"/>
<path d="M103.955 278.995C103.955 291.555 95.6706 299.305 82.576 299.305C68.9469 299.305 60.6626 291.555 60.6626 278.995C60.6626 266.435 68.9469 258.685 82.576 258.685C95.6706 258.685 103.955 266.435 103.955 278.995ZM69.7486 266.435C67.3435 270.176 66.2746 274.719 66.5418 278.995C66.2746 283.271 67.3435 287.547 69.7486 291.288C72.421 295.564 77.2313 297.969 82.3088 297.969C87.119 297.969 91.6621 295.564 94.3344 291.288C96.7396 287.814 97.8085 283.538 97.5413 279.262C97.8085 274.719 96.4723 270.443 94.3344 266.702C91.6621 262.694 87.119 260.556 82.3088 260.556C77.4985 260.288 72.6883 262.694 69.7486 266.435Z" fill="#003471"/>
<path d="M139.497 258.685C140.032 259.754 140.032 259.754 141.101 261.892C142.17 263.495 142.704 265.099 143.773 266.702L144.842 269.375C148.583 276.056 147.514 274.987 150.187 279.262C151.79 282.737 153.661 285.943 155.799 289.15C157.135 286.745 158.738 284.34 160.342 281.935C161.411 279.262 162.747 276.59 164.083 274.185L165.152 271.513L166.756 269.375L168.359 266.702C169.428 264.297 170.764 261.892 172.1 259.487L172.635 258.418H173.704C174.238 259.487 174.238 258.952 174.238 261.625C174.505 264.297 174.773 267.237 175.307 269.909V272.047L175.842 274.185V278.461C176.376 280.331 176.643 282.469 176.911 284.607V286.745L177.445 291.288C177.979 294.495 177.979 296.098 178.514 298.503C177.712 298.236 176.643 297.969 175.842 297.969C175.04 297.969 173.971 298.236 173.169 298.503C173.169 295.831 173.169 292.892 172.635 290.219C172.1 281.4 172.1 281.4 170.497 268.84C169.161 270.444 168.092 272.314 167.29 274.452C166.756 275.521 167.29 274.452 165.152 278.728C164.083 281.133 162.747 283.271 161.411 285.409C157.669 293.159 156.601 294.762 155.264 297.435H154.73C154.195 296.366 154.195 296.366 152.592 292.624C152.057 291.555 153.661 294.228 148.049 283.805C146.98 281.4 145.911 279.262 144.308 277.125L143.239 274.987L142.17 272.849L141.101 270.711L140.566 270.176V269.909C139.497 274.987 138.696 280.064 138.428 285.409C137.894 293.159 137.894 295.297 137.359 299.038C136.291 298.236 134.687 298.236 133.618 299.038C134.153 296.9 134.153 295.297 134.687 292.357C136.291 282.469 135.756 285.142 135.756 283.538C136.291 282.202 136.291 281.133 136.291 279.797L136.825 277.659C137.894 270.978 137.359 274.452 138.428 267.771C138.963 262.159 138.963 262.159 139.497 258.952V258.685Z" fill="#003471"/>
<path d="M215.927 281.935V295.564C216.462 296.633 216.462 297.702 216.462 298.771C215.66 298.504 214.591 298.236 213.789 298.236C212.72 298.236 211.651 298.504 210.583 298.771C211.117 296.366 211.117 293.961 211.117 291.555C211.117 287.814 211.651 281.133 211.651 278.461C211.651 273.116 211.117 269.107 211.117 265.366C211.117 263.228 210.85 261.358 210.583 259.22C212.186 259.754 213.789 259.754 215.393 259.754C216.996 259.754 218.332 259.487 219.936 259.22H223.143C231.961 259.22 236.237 262.427 236.237 269.107C235.97 272.849 234.367 276.323 231.427 278.461C227.953 280.064 223.944 280.866 219.936 280.599H216.194V281.935H215.927ZM215.927 278.461H218.6C226.884 278.461 230.625 275.254 230.625 269.107C230.625 264.297 227.418 261.358 220.738 261.358C219.134 261.358 217.798 261.358 216.194 261.892C215.927 263.228 215.66 264.564 215.66 265.633L215.927 278.461Z" fill="#003471"/>
<path d="M275.788 258.685C276.323 260.288 275.788 258.685 277.392 263.228C278.193 265.366 278.995 267.237 280.064 269.375C285.676 281.935 283.805 278.193 285.676 282.469L286.745 285.676C289.952 291.822 288.883 289.952 289.417 291.822C291.021 295.564 291.555 295.564 292.624 299.038C291.822 298.503 290.754 298.503 289.952 298.503C288.883 298.503 287.814 298.503 286.745 299.038C286.211 296.365 285.409 293.693 284.073 291.288C283.271 288.616 282.202 285.943 280.866 283.538H266.702C264.03 290.219 264.03 289.685 260.556 299.038C260.021 298.503 259.487 298.503 258.952 298.503C258.151 298.503 257.349 298.771 256.814 299.038C257.883 296.365 258.952 294.228 261.09 289.15C262.694 285.943 263.763 282.469 265.633 279.262C267.771 274.452 269.375 270.978 269.909 269.375C271.245 267.504 272.047 265.366 272.581 263.228C273.383 262.159 273.918 261.09 274.185 260.021L274.719 259.487V258.952L275.788 258.685ZM267.504 280.866H280.064C279.53 280.064 278.995 278.995 278.461 278.193C275.788 270.978 276.857 273.383 275.788 271.512C275.254 269.909 274.452 268.038 273.65 266.702L267.504 280.866Z" fill="#003471"/>
<path d="M320.952 258.685L321.486 259.22C323.357 260.823 324.96 262.426 326.296 264.03C327.9 266.168 329.77 268.306 331.908 270.176L333.512 272.314L335.65 273.918L337.253 276.055C339.391 277.926 341.529 280.331 343.399 282.736L349.546 288.883V288.348C350.08 287.279 349.546 288.883 350.08 283.538V276.323C350.08 271.78 350.08 267.237 349.546 262.694V259.22C350.08 259.487 350.882 259.754 351.684 259.754C352.218 259.754 352.753 259.754 353.287 259.22V264.03C352.753 267.504 352.753 270.978 352.753 274.452C352.218 278.728 352.218 283.271 352.218 287.547V295.831C352.218 296.9 352.486 297.969 352.753 299.038H351.684C349.279 295.831 346.874 292.891 343.934 290.219C341.262 287.547 338.322 283.538 335.65 281.4C334.581 279.797 336.184 281.935 330.038 275.254L326.296 271.512C322.555 266.969 323.624 268.306 323.089 268.306L322.555 267.771V282.736C322.555 286.745 322.555 290.753 323.089 294.762V298.503C322.555 297.969 322.021 297.969 320.952 297.969C320.417 297.969 319.883 297.969 319.348 298.503C319.348 296.098 319.348 293.693 319.883 291.288V278.193L320.417 276.055V258.685H320.952Z" fill="#003471"/>
<path d="M389.631 259.754C390.433 259.754 391.502 259.754 392.304 259.22C392.304 261.358 392.304 263.763 391.769 265.901V291.823C391.769 294.495 392.304 296.098 392.304 299.038C391.502 298.771 390.433 298.504 389.631 298.504C388.83 298.504 387.761 298.504 386.959 299.038V291.823C386.959 289.685 387.226 287.28 387.493 285.142V276.323C387.493 272.849 387.493 269.375 386.959 265.901V259.22C387.761 259.754 388.562 259.754 389.631 259.754Z" fill="#003471"/>
<path d="M434.527 298.236H428.38C427.044 297.969 425.708 298.236 424.639 298.771C424.639 296.098 425.174 293.159 425.174 287.814V265.901C425.441 263.763 425.174 261.358 424.639 259.22C426.243 259.22 426.777 259.754 428.915 259.754H441.475C443.613 259.754 443.613 259.22 444.682 259.22V262.427H440.406C439.337 262.427 437.734 261.892 435.329 261.892H429.984V271.245C429.449 274.452 429.449 273.383 429.984 273.383C429.449 274.452 429.449 274.452 429.449 274.987C429.449 275.521 429.449 276.056 429.984 276.056C430.518 276.59 431.32 276.59 432.122 276.59C433.458 276.59 434.794 276.323 435.863 276.056H443.613V279.262C440.406 278.728 436.932 278.461 433.725 278.728H429.449C429.717 278.995 429.984 279.53 429.984 279.797L429.449 284.34C429.449 286.211 429.717 287.814 429.984 289.685V295.297C430.518 295.564 431.32 295.831 432.122 295.831C433.725 295.831 435.329 295.564 437.199 295.297C439.872 295.564 442.811 295.297 445.484 294.762V298.504H444.949V297.969L434.527 298.236Z" fill="#003471"/>
<path d="M489.578 265.901C488.509 262.961 485.569 261.09 482.363 261.09C478.888 260.823 475.682 263.228 475.147 266.97C475.147 267.237 475.147 267.504 475.147 267.771C474.88 269.909 475.682 272.047 477.285 273.383C479.423 274.72 481.561 275.789 483.966 276.59C486.371 277.392 488.776 278.728 490.647 280.332C492.25 281.935 493.319 284.073 493.319 286.478C493.319 294.228 487.173 299.573 478.888 299.573C475.414 299.573 472.208 298.504 469.535 296.366C470.07 294.762 470.337 293.159 470.604 291.555H471.139C472.742 294.762 476.216 296.9 479.957 297.167C484.233 297.435 487.974 294.228 488.242 289.952C488.242 289.685 488.242 289.418 488.242 289.418C488.242 287.547 487.707 285.409 486.638 283.806C484.5 282.469 482.363 281.4 479.957 280.599C472.742 277.926 470.604 275.254 470.604 269.642C470.604 266.702 471.673 264.03 473.811 261.892C476.483 260.022 479.423 259.22 482.63 259.22C485.837 258.953 489.043 260.022 491.449 261.892C490.38 263.228 489.845 264.565 489.845 266.435L489.578 265.901Z" fill="#003471"/>
</g>
<defs>
<clipPath id="clip0_2_1930">
<rect width="500" height="299.572" fill="white"/>
</clipPath>
</defs>
</svg>
