<svg xmlns="http://www.w3.org/2000/svg" viewBox="0 0 180.33 18.32"><defs><style>.cls-1{fill:#db002d;}</style></defs><g id="Слой_2" data-name="Слой 2"><g id="Layer_1" data-name="Layer 1"><polygon class="cls-1" points="0.49 0 0 1.79 2.22 1.79 2.22 7.93 4.29 7.93 4.29 1.79 6.51 1.79 6.03 0 0.49 0"/><path class="cls-1" d="M8.65,2.07h1c1.59,0,2.1.7,2.1,2.25V7.93H9.91V4.59c0-.76,0-.92-.81-.94H8.65V7.93H6.78V0H8.65Z"/><path class="cls-1" d="M17,7.93H15.9a3.54,3.54,0,0,1-3.41-3.61c0-1.65.77-2.42,2.69-2.39h.39c2.29,0,2.2,1.33,2.2,1.62,0,1.3-1.1,2.12-2.12,2.69a4.35,4.35,0,0,0,1.1.11h.74ZM15.3,3.51a.8.8,0,0,0-.91.88,2.16,2.16,0,0,0,.13.7c.4-.21,1.35-.77,1.35-1.28,0-.3-.35-.3-.57-.3"/><path class="cls-1" d="M27.23,15.92H23.07V4.12h4.16V8.31c1.16-.6,3.44-2,3.44-3.48,0-1.18-1.19-1.18-2-1.2H22.29l1-3.57h6.46c3.92,0,5.21,2.19,5.21,4.37,0,2.44-1.75,5.45-7.7,8Z"/><rect class="cls-1" x="36.68" y="0.06" width="4.16" height="15.86"/><path class="cls-1" d="M52.57,15.92h-.71c-5.37,0-9.1-4.55-9.1-9.65,0-3.2,1.61-6.21,6.36-6.21h3.24l1,3.57H50.09c-.82,0-3.07,0-3.07,3,0,3.18,2.38,5.94,6.53,5.7Z"/><path class="cls-1" d="M62.84.06,59.08,7.2l4.24,8.72h5L63.73,7.05l3.79-7Zm-8,15.86h4.16V.06H54.89Z"/><polygon class="cls-1" points="68.88 0.06 68.88 15.92 77.53 15.92 78.5 12.35 73.04 12.35 73.04 0.06 68.88 0.06"/><polygon class="cls-1" points="79.38 0.06 79.38 15.92 89.39 15.92 90.36 12.35 83.53 12.35 83.53 9.55 88.37 9.55 89.35 5.98 83.53 5.98 83.53 3.63 89.93 3.63 88.96 0.06 79.38 0.06"/><path class="cls-1" d="M98.85,15.92V4.12H103v8.22h2.39c.74,0,1.81,0,1.81-.95,0-1.55-2.8-3.26-4-3.82l1.3-1c.6-.42,2-1.38,2-2.21s-.56-.74-1.94-.74h-6.5l1-3.57h7.5c3.71,0,4.64,1.92,4.64,3.67,0,1.55-1,2.6-2.09,3.57A5.91,5.91,0,0,1,111.89,12c0,1.81-1,3.89-5.38,3.89Z"/><path class="cls-1" d="M126,15.92h-4.16v-5h-4.54a10.18,10.18,0,0,0,1.59,5l-3.38,2.23a14.39,14.39,0,0,1-2.47-7.88,10.71,10.71,0,0,1,2.86-7.61c2.21-2.23,4.8-2.6,7.79-2.6h2l1,3.57h-3.26c-4.45,0-5.21,2.33-5.74,3.69h4.14V4.12H126Z"/><path class="cls-1" d="M136.64.06c3.77,0,4.82,2.29,4.82,4.09,0,2.31-1.58,3.85-3.41,5a33.94,33.94,0,0,0,4.61,6.76l-3.48,2.4a38.18,38.18,0,0,1-6.1-9.88c1.09-.83,3.67-2.32,3.67-3.82,0-1.07-1.26-1-2-1H128l1-3.57Zm-3.7,15.86h-4.16V4.12h4.16Z"/><path class="cls-1" d="M151.41.06c3.77,0,4.82,2.29,4.82,4.09,0,2.31-1.58,3.85-3.41,5a33.94,33.94,0,0,0,4.61,6.76L154,18.32a38.18,38.18,0,0,1-6.1-9.88c1.09-.83,3.67-2.32,3.67-3.82,0-1.07-1.26-1-2-1h-6.74l1-3.57Zm-3.7,15.86h-4.16V4.12h4.16Z"/><polygon class="cls-1" points="158.27 0.06 158.27 15.92 168.28 15.92 169.25 12.35 162.43 12.35 162.43 9.55 167.26 9.55 168.24 5.98 162.43 5.98 162.43 3.63 168.82 3.63 167.85 0.06 158.27 0.06"/><polygon class="cls-1" points="170.71 0.06 170.71 15.92 179.35 15.92 180.32 12.35 174.87 12.35 174.87 0.06 170.71 0.06"/></g></g></svg>