<svg xmlns="http://www.w3.org/2000/svg" width="223.092" height="58" viewBox="0 0 223.092 58"><g transform="translate(-202.554 -201.222)"><g transform="translate(202.554 201.222)"><path d="M220.928 257.689a18.418 18.418.0 0 1-7.114-3.207 14.46 14.46.0 0 1-3.118-3.042L203.84 222.7a17.457 17.457.0 0 0 13.337 7.576z" transform="translate(-202.508 -201.022)" fill="#ce9785"/><path d="M245.341 218.471a44.619 44.619.0 0 0-19.22 3.68 24.015 24.015.0 0 0-5.9 3.818 15.251 15.251.0 0 0-3.5 4.456l3.751 27.417c2.8-3.206 10.589-4.607 20.992-2.56z" transform="translate(-202.045 -201.174)" fill="#1c1876"/><path d="M203.84 223.422A17.457 17.457.0 0 0 217.177 231a15.251 15.251.0 0 1 3.5-4.456 24.015 24.015.0 0 1 5.9-3.818 44.619 44.619.0 0 1 19.22-3.68 19.125 19.125.0 0 1-10.745-16.536C218.214 206.406 207.6 214.64 203.84 223.422z" transform="translate(-202.508 -201.175)" fill="#fff"/><path d="M246.437 217.9a17.642 17.642.0 0 1-10-15.327 1.337 1.337.0 0 0-1.632-1.314 60.294 60.294.0 0 0-20.975 8.833c-5.278 3.676-9.14 8.122-11.167 12.855a1.329 1.329.0 0 0 .107 1.249 18.776 18.776.0 0 0 14.412 8.185 1.328 1.328.0 0 0 1.231-.732 13.954 13.954.0 0 1 3.205-4.066 22.741 22.741.0 0 1 5.58-3.6 43.26 43.26.0 0 1 18.638-3.551 1.333 1.333.0 0 0 .6-2.53zm-20.375 3.67a25.442 25.442.0 0 0-6.229 4.033 17.14 17.14.0 0 0-3.371 4.061 15.294 15.294.0 0 1-7.636-2.991 15.782 15.782.0 0 1-3.416-3.339 29.105 29.105.0 0 1 9.94-11.058 56.451 56.451.0 0 1 18.534-8.053 21.585 21.585.0 0 0 1.26 5.069 19.984 19.984.0 0 0 6.29 8.591A43.169 43.169.0 0 0 226.062 221.566z" transform="translate(-202.554 -201.222)"/><path d="M222.3 257.555l-3.752-27.416a1.332 1.332.0 0 0-1.278-1.15A16.139 16.139.0 0 1 205 222.017a1.331 1.331.0 0 0-2.412 1.034l6.857 28.742a1.28 1.28.0 0 0 .228.488 15.763 15.763.0 0 0 3.407 3.328 19.659 19.659.0 0 0 7.639 3.435 1.334 1.334.0 0 0 1.574-1.489zM211.97 250.9l-5.6-23.493c.278.227.561.455.869.68a18.024 18.024.0 0 0 8.812 3.489l3.335 24.363a17.887 17.887.0 0 1-4.737-2.483A13.112 13.112.0 0 1 211.97 250.9z" transform="translate(-202.554 -201.068)"/><path d="M246.383 217.633a1.336 1.336.0 0 0-.982-.447 45.952 45.952.0 0 0-19.8 3.806 25.443 25.443.0 0 0-6.229 4.033 16.516 16.516.0 0 0-3.8 4.849 1.315 1.315.0 0 0-.126.779l3.748 27.415a1.333 1.333.0 0 0 2.326.7c2.228-2.556 9.194-4.2 19.731-2.128a1.33 1.33.0 0 0 1.582-1.169l3.881-36.808A1.334 1.334.0 0 0 246.383 217.633zm-6.051 36.126c-8.069-1.384-14.9-.774-18.821 1.607l-3.371-24.647a14.1 14.1.0 0 1 3.015-3.714 22.741 22.741.0 0 1 5.58-3.6 42.351 42.351.0 0 1 17.174-3.549z" transform="translate(-202.091 -201.22)"/></g><path d="M255.17 239.122a16.1 16.1.0 0 1-.221 2.343c0 .217.14.3.438.3.681-.055 1.525-.084 2.533-.11q0-1.924-.083-4.248c0-.71.274-1.062.848-1.062.543.0.839.352.839 1.062-.055 1.577-.109 3-.109 4.274.574.029 1.279.056 2.13.084.213.0.321.162.321.433a.735.735.0 0 1-.321.681 1.633 1.633.0 0 1-.739.167c-.547-.03-1.006-.056-1.391-.083l.027 3.728c.817-.217 1.475-.352 1.992-.458a.4.4.0 0 1 .432.432.672.672.0 0 1-.518.734c-.654.218-1.279.462-1.879.685l.055 5.826c0 1.145-.327 1.688-.95 1.688-.489.0-.738-.543-.738-1.688.0-1.907.028-3.624.054-5.2-1.441.6-2.8 1.223-4.114 1.9-.57.0-.841-.218-.841-.65a1.633 1.633.0 0 1 .215-.957c.056-.243.3-.435.714-.6 1.522-.494 2.884-.924 4.055-1.279v-4.168a21.123 21.123.0 0 0-2.616.192 4.427 4.427.0 0 0-1.36.326 1.193 1.193.0 0 1-.38.107c-.436.0-.628-.164-.628-.542a1.858 1.858.0 0 1 .409-.766 4.113 4.113.0 0 0 .219-1.306c0-.247-.027-.6-.058-1.063a4.047 4.047.0 0 1-.133-.9c0-.437.243-.655.733-.655C254.814 238.36 255.17 238.634 255.17 239.122zm12.666-1.715a1.249 1.249.0 0 1-.221.655 20.953 20.953.0 0 1-1.062 2.07c.628-.031 1.582-.057 2.835-.057h5.251a3.447 3.447.0 0 0 .956-.219.852.852.0 0 1 .952.959 60.43 60.43.0 0 0-.817 6.995c-.216 3.211-.734 5.338-1.55 6.318a3.237 3.237.0 0 1-2.617 1.361 1.358 1.358.0 0 1-1.171-.6 1.752 1.752.0 0 1-.328-.979.492.492.0 0 1 .438-.546c1.413-.136 2.342-.543 2.755-1.227.485-.705.923-2.827 1.247-6.373.16-2.178.246-3.51.246-4 0-.272-.111-.41-.325-.41H272.6c0 .057.024.083.024.11l-.056.191c-.164.6-.408 1.551-.68 2.832a21.238 21.238.0 0 1-2.4 5.77 15.282 15.282.0 0 1-2.015 2.862 4.384 4.384.0 0 1-2.1 1.306 2.138 2.138.0 0 1-1.6-1.58c0-.193.218-.328.655-.432a5.7 5.7.0 0 0 2.507-1.72 12.274 12.274.0 0 0 2.8-4.275 19.414 19.414.0 0 0 1.281-4.955.157.157.0 0 1 .023-.11h-.6c-.467.0-.927.029-1.363.029l-.025.109c-.143.434-.327 1.063-.548 1.931a14.607 14.607.0 0 1-1.96 3.92 10.728 10.728.0 0 1-1.688 1.938 3.86 3.86.0 0 1-1.718.9 1.376 1.376.0 0 1-1-.571 1.4 1.4.0 0 1-.494-.928c0-.162.217-.3.655-.409a4.719 4.719.0 0 0 2.067-1.087 7.831 7.831.0 0 0 2.289-2.7 10.964 10.964.0 0 0 1.033-2.995c-.242.026-.459.052-.678.08a7.644 7.644.0 0 1-1.2.193.721.721.0 0 1-.271-.028c-.167.247-.33.461-.491.655-.383.519-.71.762-.953.762a1.668 1.668.0 0 1-1.117-.463 1.212 1.212.0 0 1-.57-.926c0-.168.16-.272.514-.3A5.5 5.5.0 0 0 265 239.941a10.4 10.4.0 0 0 1.876-2.858.518.518.0 0 1 .3-.19C267.615 236.893 267.835 237.083 267.835 237.408z" transform="translate(1.768 0.691)"/><path d="M258.686 236.254c.6.0.931.41.931 1.154l-.014.4c-.048 1.359-.093 2.644-.095 3.792.52.026 1.173.051 2.041.08.256.0.41.2.41.525a.821.821.0 0 1-.364.758h-.008a1.716 1.716.0 0 1-.779.176H260.8c-.465-.026-.915-.051-1.294-.076l.025 3.511c.788-.205 1.417-.334 1.883-.429h.018a.486.486.0 0 1 .524.524.765.765.0 0 1-.584.823c-.492.164-.969.343-1.431.517l-.382.143.054 5.762c0 1.182-.35 1.78-1.042 1.78-.558.0-.829-.582-.829-1.779.0-1.858.027-3.556.052-5.062-1.467.615-2.769 1.22-3.977 1.847l-.02.01h-.022c-.619.0-.933-.249-.933-.741a1.726 1.726.0 0 1 .222-1c.069-.259.319-.469.765-.644h.005c1.5-.486 2.84-.91 3.991-1.26v-4.008a21.705 21.705.0 0 0-2.513.191 4.357 4.357.0 0 0-1.335.319 1.256 1.256.0 0 1-.417.114c-.484.0-.72-.207-.72-.634a1.811 1.811.0 0 1 .418-.808 3.988 3.988.0 0 0 .21-1.264c0-.208-.02-.5-.045-.867l-.012-.182a4.03 4.03.0 0 1-.133-.911c0-.341.143-.747.825-.747 1 0 1.155.535 1.155.854a15.917 15.917.0 0 1-.221 2.35c0 .107.033.2.343.2.657-.053 1.455-.082 2.445-.107.0-1.229-.028-2.59-.083-4.156C257.745 236.642 258.062 236.254 258.686 236.254zM261.5 242.8a.645.645.0 0 0 .274-.6c0-.226-.077-.341-.229-.341-.922-.03-1.6-.057-2.135-.084h-.087v-.087c0-1.173.046-2.491.1-3.885l.014-.392c0-.641-.251-.967-.747-.967-.516.0-.757.308-.757.97.056 1.6.083 2.994.083 4.248v.089h-.089c-1.03.026-1.855.055-2.528.11h-.007c-.131.0-.53.0-.53-.392v-.014a15.783 15.783.0 0 0 .22-2.33c0-.445-.327-.671-.971-.671-.438.0-.642.179-.642.563a3.9 3.9.0 0 0 .13.876v.015l.013.19c.025.371.045.664.045.879a4.173 4.173.0 0 1-.223 1.335v.013l-.008.011c-.324.452-.392.637-.392.712.0.27.091.45.536.45a1.133 1.133.0 0 0 .345-.1 4.527 4.527.0 0 1 1.387-.333 21.46 21.46.0 0 1 2.625-.192h.092V247.2l-.065.02c-1.164.353-2.527.783-4.05 1.278-.394.155-.609.329-.655.532v.018l-.011.015a1.533 1.533.0 0 0-.2.9c0 .237.076.551.727.558 1.242-.644 2.584-1.264 4.1-1.9l.129-.054v.14c-.025 1.54-.054 3.285-.054 5.2.0 1.059.217 1.6.646 1.6.577.0.858-.522.858-1.6l-.056-5.89.06-.022.442-.165c.464-.175.944-.355 1.441-.52h.007a.583.583.0 0 0 .448-.645.306.306.0 0 0-.331-.34c-.485.1-1.147.235-1.978.455l-.114.03-.029-3.946.1.007c.4.028.882.055 1.387.083A1.536 1.536.0 0 0 261.5 242.8zm5.68-6c.474.0.746.221.746.607a1.32 1.32.0 0 1-.231.7 21 21 0 0 1-.979 1.927c.724-.032 1.664-.049 2.672-.049h5.251a3.255 3.255.0 0 0 .927-.214h.014.015a.945.945.0 0 1 1.044 1.051v.016a60.487 60.487.0 0 0-.816 6.984c-.218 3.238-.747 5.381-1.571 6.372a3.31 3.31.0 0 1-2.687 1.394 1.448 1.448.0 0 1-1.245-.638 1.853 1.853.0 0 1-.346-1.033.583.583.0 0 1 .514-.636h.008c1.389-.133 2.292-.531 2.685-1.183v0c.343-.5.836-2 1.232-6.33.172-2.345.245-3.539.245-3.991.0-.282-.125-.318-.234-.318h-1.708a.142.142.0 0 1 0 .018v.013l-.06.2c-.235.862-.464 1.813-.678 2.826a21.245 21.245.0 0 1-2.408 5.8 15.382 15.382.0 0 1-2.025 2.876l-.007.007a4.413 4.413.0 0 1-2.161 1.329 1.572 1.572.0 0 1-1.155-.653 1.547 1.547.0 0 1-.541-1.019c0-.313.414-.448.725-.521a5.618 5.618.0 0 0 2.462-1.693l.007-.007a12.181 12.181.0 0 0 2.78-4.243 19.407 19.407.0 0 0 1.273-4.923s0-.008.0-.012h-.481c-.236.0-.473.008-.7.015-.2.006-.4.013-.588.014l-.011.046c-.163.5-.352 1.161-.546 1.925v.006a14.767 14.767.0 0 1-1.972 3.945 10.805 10.805.0 0 1-1.7 1.953l-.008.006a3.857 3.857.0 0 1-1.772.914 1.455 1.455.0 0 1-1.07-.6 1.5 1.5.0 0 1-.519-.991c0-.279.413-.418.724-.5a4.677 4.677.0 0 0 2.03-1.068l.01-.007a7.782 7.782.0 0 0 2.258-2.662 10.955 10.955.0 0 0 1-2.847c-.179.02-.357.041-.55.066a7.806 7.806.0 0 1-1.214.194 1.357 1.357.0 0 1-.234-.012c-.144.209-.294.407-.456.6-.391.529-.736.8-1.025.8a1.761 1.761.0 0 1-1.176-.485 1.292 1.292.0 0 1-.6-1c0-.226.2-.357.585-.391a5.4 5.4.0 0 0 2.026-1.5v0a10.339 10.339.0 0 0 1.858-2.833l.006-.013.01-.011A.6.6.0 0 1 267.18 236.8zm-.793 3.431.085-.146a20.855 20.855.0 0 0 1.057-2.061l.006-.011a1.15 1.15.0 0 0 .207-.606c0-.281-.189-.423-.563-.423-.029.0-.109.032-.225.151A10.5 10.5.0 0 1 265.07 240a5.561 5.561.0 0 1-2.106 1.547h-.013-.014c-.285.023-.429.093-.429.209a1.129 1.129.0 0 0 .535.854 1.593 1.593.0 0 0 1.06.444c.128.0.413-.094.879-.725v0c.174-.21.333-.422.486-.648l.047-.069.073.04a.838.838.0 0 0 .228.017 7.077 7.077.0 0 0 1.18-.191h.007c.239-.031.455-.056.679-.08l.122-.013-.022.12a11.038 11.038.0 0 1-1.041 3.02v.005a7.971 7.971.0 0 1-2.314 2.723 4.783 4.783.0 0 1-2.1 1.1c-.524.135-.581.268-.581.319a1.325 1.325.0 0 0 .467.863l.006.006a1.3 1.3.0 0 0 .933.538c.212.0.673-.152 1.659-.875a10.628 10.628.0 0 0 1.67-1.919 14.587 14.587.0 0 0 1.948-3.895c.2-.775.381-1.425.548-1.93l.04-.176h.073c.213.0.428-.007.655-.014s.469-.015.708-.015h.784l-.116.148a.232.232.0 0 0 0 .053v.012a19.6 19.6.0 0 1-1.287 4.978A12.369 12.369.0 0 1 267 250.763a5.783 5.783.0 0 1-2.546 1.742c-.391.093-.587.208-.587.343a1.4 1.4.0 0 0 .491.892v0a1.407 1.407.0 0 0 1.019.592c.269.0.841-.222 2.035-1.28a15.219 15.219.0 0 0 2-2.841 21.067 21.067.0 0 0 2.388-5.749c.214-1.011.443-1.966.68-2.833l.05-.169h0a.293.293.0 0 1-.021-.107v-.092h1.914c.156.0.417.065.417.5.0.457-.074 1.655-.246 4.007-.316 3.454-.752 5.672-1.262 6.416-.425.7-1.373 1.128-2.819 1.268a.4.4.0 0 0-.359.455 1.67 1.67.0 0 0 .313.928 1.258 1.258.0 0 0 1.094.559 3.138 3.138.0 0 0 2.545-1.327c.8-.962 1.314-3.07 1.53-6.267a60.655 60.655.0 0 1 .817-7 .755.755.0 0 0-.846-.86 3.568 3.568.0 0 1-.971.219h-5.251c-1.085.0-2.091.02-2.831.057z" transform="translate(1.768 0.691)"/><path d="M286.062 237.057c.491.0.734.214.734.653.0.356-.243.516-.734.516a36.241 36.241.0 0 0-4.464.22c-.572.0-.844-.193-.844-.628.0-.492.353-.76 1.064-.76zm2.015 3.1a.307.307.0 0 1 .327.3 1.1 1.1.0 0 1-.3.758 1.283 1.283.0 0 1-.87.327c-.22.0-.683-.028-1.42-.08-.762.0-1.6-.028-2.5-.028a18.078 18.078.0 0 0-3.3.217 3.231 3.231.0 0 1-.76.191c-.549.0-.823-.243-.848-.732a1.068 1.068.0 0 1 .436-.737 1.727 1.727.0 0 1 .926-.22zm-2.015 3.079c.491.0.734.219.734.626.0.381-.243.545-.734.545a38.908 38.908.0 0 0-4.577.215c-.571.0-.842-.215-.842-.652.0-.489.352-.735 1.062-.735zm0 2.887c.491.0.734.219.734.624.0.382-.243.546-.734.546-1.961.0-3.485.081-4.577.192-.571.0-.842-.192-.842-.627.0-.49.352-.734 1.062-.734zm-4.657 3.185a3.96 3.96.0 0 0 1.143.109h1.827c.405.0.9.052 1.469.112a2.517 2.517.0 0 0 .952-.221c.491.0.762.3.762.844a.22.22.0 0 1-.081.135 2.613 2.613.0 0 0-.166.875c-.052.543-.077 1.142-.077 1.769a10.026 10.026.0 0 0 .1 1.36c0 .6-.243.871-.733.871a24.242 24.242.0 0 0-2.889-.216c-1.141.0-1.849.025-2.152.057a7.046 7.046.0 0 0-.923.16.668.668.0 0 1-.764-.762 15.362 15.362.0 0 0 .22-2.316 13.734 13.734.0 0 0-.22-2.146c0-.493.247-.738.764-.738A4.146 4.146.0 0 1 281.405 249.309zm4.031 4.469c.271.0.408-.111.408-.326V251c0-.192-.082-.3-.22-.3-.788-.055-1.931-.107-3.4-.107a.462.462.0 0 0-.52.515 10.956 10.956.0 0 1-.22 2.236c0 .3.194.438.628.438a13.242 13.242.0 0 1 1.6-.111C284.21 253.668 284.78 253.723 285.436 253.779zm14.784-16.286c.251.029.383.135.411.325a1.424 1.424.0 0 1-.3.9 1.3 1.3.0 0 1-.979.381 10.863 10.863.0 0 1-1.553-.246c-.733-.053-1.523-.079-2.339-.079l-.816 2.477a29.544 29.544.0 0 1 4.082.491 1.019 1.019.0 0 1 .519-.193c.654.0.977.244.977.736a1.264 1.264.0 0 1-.4.738 8.822 8.822.0 0 0-1.173 3.076c1.086.08 2.043.112 2.859.112.487.0 1.09-.032 1.8-.084.138.0.218.19.218.516a2.945 2.945.0 0 1-.574 1.633c-.271.412-.519.6-.707.6a2.543 2.543.0 0 1-1.308-.436 8.879 8.879.0 0 0-2.721-.978 22.7 22.7.0 0 0-3.541-.274c-1.225.0-2.4.078-3.542.188a14.5 14.5.0 0 0-3.158 1.064c-.573.0-.843-.194-.843-.626a.983.983.0 0 1 .381-.818 1.468 1.468.0 0 1 1.224-.574c1.062-.135 2.041-.244 2.915-.324.325-.954.625-1.934.924-2.943a4.5 4.5.0 0 1 .137-.517 10.889 10.889.0 0 0-1.877.25 3.048 3.048.0 0 1-.629.135.648.648.0 0 1-.731-.738.85.85.0 0 1 .678-.843 12.385 12.385.0 0 1 2.941-.22q.244-.9.489-1.958c.054-.192.086-.356.111-.464a13.992 13.992.0 0 0-2.318.191 3.106 3.106.0 0 1-.841.217.781.781.0 0 1-.845-.76 1.065 1.065.0 0 1 .437-.736 1.818 1.818.0 0 1 .956-.218zm-5.444 8.414c.762.0 1.632.029 2.616.083a22.9 22.9.0 0 1 .682-2.968c0-.111-.084-.167-.219-.191a22.779 22.779.0 0 0-3.649-.22l-1.118 3.349C293.741 245.935 294.283 245.906 294.776 245.906zm-2.72 3.185a3.948 3.948.0 0 0 1.142.112h2.695c.6.0 1.334.055 2.182.107a2.6 2.6.0 0 0 .978-.219c.493.0.739.3.739.849a1.131 1.131.0 0 1-.061.158 2.275 2.275.0 0 0-.184.929c-.055.595-.083 1.252-.083 1.933a12.907 12.907.0 0 0 .109 1.551c0 .571-.246.846-.734.846-1.471-.113-2.78-.194-3.95-.194-1.308.0-2.151.028-2.507.054-.323.027-.68.086-1.116.14a.653.653.0 0 1-.734-.743 18.283 18.283.0 0 0 .217-2.5 17.316 17.316.0 0 0-.217-2.4.648.648.0 0 1 .734-.735A3.978 3.978.0 0 1 292.056 249.091zm5.61 4.9c.271.0.408-.106.408-.324v-2.884c0-.194-.084-.3-.193-.3-1.17-.055-2.831-.109-5.01-.109a.463.463.0 0 0-.52.516 16.278 16.278.0 0 1-.217 2.671c0 .3.194.433.627.433.6-.052 1.308-.106 2.125-.106S296.628 253.94 297.666 253.992z" transform="translate(2.661 0.716)"/><path d="M281.817 236.965h4.244c.683.0.826.4.826.744.0.4-.278.608-.826.608a36.507 36.507.0 0 0-4.452.219H281.6c-.63.0-.936-.235-.936-.72C280.662 237.429 280.862 236.965 281.817 236.965zm-.226 1.388a36.739 36.739.0 0 1 4.47-.22c.566.0.643-.214.643-.424.0-.388-.2-.561-.643-.561h-4.244c-.645.0-.972.225-.972.669C280.845 238.082 280.934 238.352 281.592 238.353zm9.485-.953h9.154c.292.034.457.169.491.4v.013a1.519 1.519.0 0 1-.321.954l-.007.008a1.386 1.386.0 0 1-1.044.409 10.9 10.9.0 0 1-1.565-.246c-.7-.05-1.462-.077-2.26-.078l-.758 2.3a29.653 29.653.0 0 1 3.939.479 1.078 1.078.0 0 1 .538-.187c.883.0 1.069.45 1.069.827a1.32 1.32.0 0 1-.424.8 8.565 8.565.0 0 0-1.131 2.934c.969.069 1.892.1 2.746.1.441.0 1.011-.027 1.793-.084h.007c.116.0.309.079.309.608a3.042 3.042.0 0 1-.59 1.684c-.276.42-.547.642-.783.642a2.641 2.641.0 0 1-1.356-.45 8.747 8.747.0 0 0-2.69-.966 22.5 22.5.0 0 0-3.524-.272c-1.079.0-2.2.059-3.53.187a14.577 14.577.0 0 0-3.133 1.057l-.017.008h-.019c-.629.0-.935-.235-.935-.717a1.07 1.07.0 0 1 .407-.883 1.556 1.556.0 0 1 1.284-.6c1.061-.134 2.02-.242 2.853-.318.336-.99.644-2.008.9-2.878a3.294 3.294.0 0 1 .1-.4 10.312 10.312.0 0 0-1.728.238 3.08 3.08.0 0 1-.652.138.739.739.0 0 1-.823-.829.942.942.0 0 1 .739-.93 12.254 12.254.0 0 1 2.9-.225c.16-.593.318-1.227.47-1.887.038-.134.064-.252.085-.349a13.256 13.256.0 0 0-2.178.184 3.165 3.165.0 0 1-.867.22.876.876.0 0 1-.937-.842v-.01a1.143 1.143.0 0 1 .468-.8l.012-.009A1.915 1.915.0 0 1 291.077 237.4zm9.138.184h-9.138a1.75 1.75.0 0 0-.9.2.979.979.0 0 0-.4.657.688.688.0 0 0 .758.674 3.12 3.12.0 0 0 .8-.211h.013a13.917 13.917.0 0 1 2.335-.193h.118l-.027.115-.02.089c-.023.1-.051.233-.092.38-.157.683-.322 1.343-.489 1.957l-.018.068h-.07a11.549 11.549.0 0 0-2.914.215.758.758.0 0 0-.613.756c0 .441.2.646.64.646a3.1 3.1.0 0 0 .6-.131 10.967 10.967.0 0 1 1.9-.253l.131-.009-.037.126-.03.1a3.331 3.331.0 0 0-.1.4v.011c-.264.889-.58 1.934-.925 2.947l-.019.056-.059.005c-.846.077-1.826.186-2.912.324h-.012a1.382 1.382.0 0 0-1.152.538l-.007.009-.009.007a.887.887.0 0 0-.347.747c0 .262.088.529.733.534a14.664 14.664.0 0 1 3.162-1.063h.005c1.337-.128 2.465-.188 3.551-.188a22.689 22.689.0 0 1 3.555.275 8.936 8.936.0 0 1 2.752.989 2.47 2.47.0 0 0 1.263.424c.078.0.3-.055.63-.561a2.866 2.866.0 0 0 .559-1.582c0-.275-.062-.421-.124-.424-.785.057-1.357.084-1.8.084-.889.0-1.853-.038-2.866-.112l-.107-.008.024-.1a8.911 8.911.0 0 1 1.188-3.109l.006-.008c.315-.349.381-.561.381-.676.0-.276-.092-.644-.885-.644a.924.924.0 0 0-.469.178l-.031.021-.037-.007a29.574 29.574.0 0 0-4.069-.489l-.12-.007.875-2.654h.066c.829.0 1.618.027 2.346.079h.012a10.137 10.137.0 0 0 1.535.244 1.213 1.213.0 0 0 .91-.35 1.339 1.339.0 0 0 .279-.831C300.524 237.727 300.471 237.615 300.215 237.584zm-20.445 2.483h8.306a.4.4.0 0 1 .418.383v.013a1.189 1.189.0 0 1-.322.819l-.008.008a1.378 1.378.0 0 1-.931.351c-.2.0-.617-.023-1.423-.08-.366.0-.746-.006-1.148-.013-.435-.007-.885-.015-1.351-.015a18.136 18.136.0 0 0-3.273.214 3.559 3.559.0 0 1-.784.194c-.595.0-.911-.276-.94-.819a1.145 1.145.0 0 1 .467-.81l.013-.01A1.832 1.832.0 0 1 279.77 240.067zm8.542.4c-.023-.151-.1-.218-.236-.218H279.77a1.664 1.664.0 0 0-.871.2.975.975.0 0 0-.4.663c.023.436.264.641.757.641a2.942 2.942.0 0 0 .732-.186h.01a18.241 18.241.0 0 1 3.315-.218c.468.0.918.008 1.354.015.4.007.783.013 1.148.013h.006c.8.056 1.214.08 1.414.08a1.2 1.2.0 0 0 .805-.3A1.012 1.012.0 0 0 288.312 240.469zm5.828 2.05h.066a23.093 23.093.0 0 1 3.665.221c.243.043.294.177.294.281v.013.013a22.728 22.728.0 0 0-.679 2.956l-.013.082h-.083c-1.017-.056-1.871-.083-2.611-.083-.371.0-.766.016-1.224.035l-.46.019-.133.005zm3.841.49c0-.026-.02-.067-.142-.088a22.646 22.646.0 0 0-3.567-.218l-1.055 3.161.327-.013c.46-.019.857-.035 1.232-.035.723.0 1.554.026 2.538.079A22.981 22.981.0 0 1 297.982 243.009zm-16.277.137h4.357c.533.0.826.255.826.717.0.428-.27.637-.826.637a38.824 38.824.0 0 0-4.566.215h-.011c-.62.0-.934-.25-.934-.743C280.551 243.6 280.751 243.146 281.7 243.146zm-.225 1.386a39.051 39.051.0 0 1 4.582-.215c.566.0.643-.229.643-.453.0-.359-.21-.534-.643-.534H281.7c-.97.0-.97.484-.97.643C280.734 244.232 280.819 244.53 281.479 244.532zm.225 1.5h4.357c.533.0.826.254.826.715.0.429-.27.638-.826.638-2.218.0-3.708.1-4.568.191h-.009c-.628.0-.934-.235-.934-.719C280.551 246.311 280.939 246.033 281.7 246.033zm-.224 1.361c1.238-.125 2.822-.192 4.581-.192.566.0.643-.23.643-.454.0-.358-.21-.532-.643-.532H281.7c-.97.0-.97.484-.97.643C280.734 247.123 280.823 247.393 281.48 247.394zm9.783 1.5a3.8 3.8.0 0 1 .761.1l.061.013a3.852 3.852.0 0 0 1.112.107h2.695c.494.0 1.071.037 1.739.079l.446.028a2.536 2.536.0 0 0 .94-.212l.017-.007h.018c.536.0.83.334.83.941a.276.276.0 0 1-.033.108c-.01.023-.022.05-.034.082l-.006.013a2.194 2.194.0 0 0-.173.889c-.055.6-.083 1.243-.083 1.928a13.005 13.005.0 0 0 .108 1.54v.011c0 .775-.449.938-.826.938h-.007c-1.309-.1-2.693-.193-3.943-.193-1.3.0-2.144.028-2.5.054-.2.017-.413.046-.658.079-.142.019-.292.04-.453.06h-.011a.742.742.0 0 1-.826-.835V254.6a18.058 18.058.0 0 0 .217-2.489 17.009 17.009.0 0 0-.217-2.383v-.013A.739.739.0 0 1 291.263 248.891zm.769.288-.044-.009a3.612 3.612.0 0 0-.725-.1.559.559.0 0 0-.643.636 17.152 17.152.0 0 1 .217 2.4 18.21 18.21.0 0 1-.217 2.508.562.562.0 0 0 .637.645c.158-.02.306-.04.445-.059.248-.034.462-.063.669-.081.361-.026 1.21-.054 2.515-.054 1.255.0 2.642.093 3.954.194.435.0.638-.239.639-.749a13.165 13.165.0 0 1-.109-1.556c0-.69.028-1.343.083-1.942a2.323 2.323.0 0 1 .192-.96c.013-.033.025-.061.035-.085s.014-.033.017-.042c0-.5-.208-.744-.629-.75a2.7 2.7.0 0 1-1 .218h-.006l-.449-.028c-.665-.042-1.239-.078-1.727-.078H293.2A3.976 3.976.0 0 1 292.032 249.18zm-11.39-.069a3.556 3.556.0 0 1 .676.088l.116.023a3.833 3.833.0 0 0 1.113.1h1.827c.411.0.9.052 1.474.112a2.4 2.4.0 0 0 .912-.213l.017-.007h.018c.543.0.854.341.854.936a.285.285.0 0 1-.1.189 2.521 2.521.0 0 0-.15.828c-.051.533-.076 1.125-.076 1.763a9.861 9.861.0 0 0 .1 1.348v.013c0 .639-.278.963-.825.963H286.6a23.71 23.71.0 0 0-2.878-.216c-1.023.0-1.8.021-2.142.056a6.99 6.99.0 0 0-.912.158h-.021a.758.758.0 0 1-.855-.854v-.014a15.224 15.224.0 0 0 .219-2.3 13.426 13.426.0 0 0-.218-2.131v-.015A.747.747.0 0 1 280.643 249.111zm.739.287-.1-.019a3.424 3.424.0 0 0-.641-.085c-.462.0-.669.2-.672.638a13.562 13.562.0 0 1 .22 2.153 15.379 15.379.0 0 1-.22 2.323c0 .455.206.661.661.664a7.134 7.134.0 0 1 .925-.159c.343-.036 1.131-.057 2.16-.057a23.85 23.85.0 0 1 2.895.216c.438.0.635-.241.636-.773a10.034 10.034.0 0 1-.1-1.367c0-.644.026-1.242.077-1.778a2.659 2.659.0 0 1 .175-.907l.007-.014.012-.011a.175.175.0 0 0 .053-.072c0-.336-.114-.74-.653-.749a2.562 2.562.0 0 1-.97.221h-.01c-.567-.06-1.056-.111-1.459-.111h-1.827A3.955 3.955.0 0 1 281.382 249.4zm11.49.882c1.787.0 3.474.037 5.014.109h0c.137.0.28.122.28.394v2.884c0 .155-.065.416-.5.416h0l-.428-.022c-.847-.043-1.647-.084-2.347-.084-.787.0-1.482.051-2.117.105h-.008c-.178.0-.719.0-.719-.525v-.015a16.164 16.164.0 0 0 .215-2.656A.555.555.0 0 1 292.871 250.281zm4.8 3.62c.277.0.314-.118.314-.232v-2.884c0-.124-.042-.211-.1-.211-1.541-.072-3.225-.109-5.01-.109a.375.375.0 0 0-.428.424 16.353 16.353.0 0 1-.216 2.678c0 .174.071.333.531.334.638-.055 1.337-.106 2.129-.106.7.0 1.507.041 2.357.084zm-15.443-3.4c1.544.0 2.7.058 3.4.107.15.0.308.105.308.392v2.455c0 .156-.065.418-.5.418h-.008l-.226-.019c-.565-.049-1.053-.091-1.485-.091a13.141 13.141.0 0 0-1.594.11h-.011c-.178.0-.72.0-.72-.53v-.019a10.819 10.819.0 0 0 .218-2.217A.555.555.0 0 1 282.225 250.5zm3.215 3.189c.277.0.313-.126.313-.235V251c0-.1-.022-.209-.128-.209h-.006c-.7-.049-1.853-.106-3.394-.106a.374.374.0 0 0-.428.423 11 11 0 0 1-.22 2.245c0 .176.072.336.531.337a13.291 13.291.0 0 1 1.61-.111c.44.0.932.043 1.5.092z" transform="translate(2.661 0.716)"/><path d="M316.082 247.84l-.409 5.051c.315.333.48.57.48.764.0.45-.384.664-1.137.664-.228.0-.9-.046-2.042-.166-1.181-.076-2.311-.119-3.451-.119a13.557 13.557.0 0 0-2.993.285 7.626 7.626.0 0 1-1.77.26c-.407.0-.586-.26-.586-.807.0-.379.244-.668.791-.834a19.991 19.991.0 0 1 4.156-.264h3.493c.541.0 1.133.028 1.746.071l.09-6.981a20.914 20.914.0 0 0-3.995-.212q-1.77.0-3.2.142c-1.387.167-2.065.237-2.018.237-.387.0-.571-.237-.571-.738.0-.618.589-.93 1.774-.93q1.324.0 4.012.074c1.8.024 3.133.024 4.017.024a.574.574.0 0 0 .453-.192 1.442 1.442.0 0 1 .363-.049c.639.0.975.26.975.787C316.263 245.266 316.2 246.24 316.082 247.84z" transform="translate(3.571 0.97)"/><path d="M315.288 244.028c.882.0 1.067.478 1.067.879.0.375-.075 1.455-.18 2.939l-.406 5.012c.338.361.477.594.477.8.0.5-.414.756-1.229.756-.22.0-.889-.044-2.052-.166-1.246-.08-2.373-.119-3.441-.119a13.517 13.517.0 0 0-2.972.283 7.84 7.84.0 0 1-1.791.262c-.456.0-.678-.294-.678-.9.0-.439.288-.75.857-.922a20.208 20.208.0 0 1 4.183-.268h3.493c.476.0 1.018.021 1.655.065l.088-6.812a23.214 23.214.0 0 0-3.9-.191c-1.18.0-2.252.048-3.188.142-.777.093-1.33.156-1.661.194-.192.022-.331.038-.349.041l-.016-.09h0v.092h-.087v0c-.382-.035-.576-.313-.576-.825.0-.678.628-1.022 1.865-1.022.9.0 2.252.025 4.015.074 1.794.024 3.131.024 4.015.024a.481.481.0 0 0 .387-.164l.018-.019.026-.006A1.539 1.539.0 0 1 315.288 244.028zm-.272 10.2c1.046.0 1.046-.431 1.046-.572s-.14-.368-.454-.7l-.028-.03v-.041l.409-5.051c.105-1.48.18-2.556.18-2.925.0-.468-.289-.7-.883-.7a1.307 1.307.0 0 0-.316.04.662.662.0 0 1-.5.2c-.885.0-2.222.0-4.019-.024-1.762-.049-3.111-.074-4.011-.074-1.116.0-1.682.282-1.682.839s.24.645.476.646c.023.0.05-.008.08-.011l.269-.031c.331-.038.884-.1 1.662-.194.943-.095 2.022-.143 3.208-.143a20.794 20.794.0 0 1 4.02.216l.068.019-.092 7.149-.1-.007c-.674-.048-1.243-.071-1.739-.071h-3.493a18.585 18.585.0 0 0-4.131.261c-.487.148-.725.392-.725.746.0.63.25.715.495.715a7.454 7.454.0 0 0 1.748-.257 13.7 13.7.0 0 1 3.015-.288c1.072.0 2.2.039 3.457.119C314.139 254.184 314.8 254.227 315.015 254.227z" transform="translate(3.571 0.97)"/><path d="M330.191 250.019c-.491.5-.837.751-1.053.751a1.8 1.8.0 0 1-.943-.364 9.216 9.216.0 0 0-5.013-1.158 12.158 12.158.0 0 0-4.735.862 3.441 3.441.0 0 1-.908.319.517.517.0 0 1-.417-.253.68.68.0 0 1-.2-.5 1.279 1.279.0 0 1 .327-.859 6.37 6.37.0 0 1 2.849-.657c1.166-.094 2.218-.161 3.124-.161a21.526 21.526.0 0 1 4.249.478 11.626 11.626.0 0 0 2.306.316 1.5 1.5.0 0 0 .452-.091 1.6 1.6.0 0 1 .453-.113c.147.0.238.113.238.339S330.661 249.522 330.191 250.019z" transform="translate(4.018 1.11)"/><path d="M329.138 250.862a1.876 1.876.0 0 1-.993-.379 9.173 9.173.0 0 0-4.962-1.143 12.109 12.109.0 0 0-4.7.855 3.427 3.427.0 0 1-.943.326.6.6.0 0 1-.487-.285.776.776.0 0 1-.225-.56 1.378 1.378.0 0 1 .35-.919l.007-.007a6.377 6.377.0 0 1 2.9-.681c1.377-.111 2.343-.161 3.132-.161a21.723 21.723.0 0 1 4.267.479 11.249 11.249.0 0 0 2.288.314 1.394 1.394.0 0 0 .423-.086 1.666 1.666.0 0 1 .482-.118c.077.0.33.031.33.431.0.249-.231.605-.75 1.154C329.735 250.615 329.38 250.862 329.138 250.862zm-5.956-1.705a9.347 9.347.0 0 1 5.063 1.173 1.735 1.735.0 0 0 .893.349c.126.0.4-.126.987-.724.47-.5.7-.833.7-1.027.0-.164-.049-.247-.147-.247a1.6 1.6.0 0 0-.423.108 1.573 1.573.0 0 1-.481.1 11.856 11.856.0 0 1-2.325-.318 21.538 21.538.0 0 0-4.229-.475c-.785.0-1.746.049-3.116.16-1.938.19-2.588.447-2.791.63a1.181 1.181.0 0 0-.3.795.588.588.0 0 0 .178.437l.006.007c.147.191.257.217.345.217a3.1 3.1.0 0 0 .87-.311A12.292 12.292.0 0 1 323.182 249.157z" transform="translate(4.018 1.11)"/><path d="M348.05 243.658a2.155 2.155.0 0 1-1.474.684 2.138 2.138.0 0 1-2.134-2.132 2.164 2.164.0 0 1 .592-1.59 2.019 2.019.0 0 1 1.543-.613 2.116 2.116.0 0 1 1.52.7 1.9 1.9.0 0 1-.046 2.947zm-.523-2.4a1.34 1.34.0 0 0-.951-.432 1.236 1.236.0 0 0-.951.387 1.378 1.378.0 0 0-.368 1 1.359 1.359.0 0 0 1.319 1.337 1.352 1.352.0 0 0 .887-.432 1.247 1.247.0 0 0 .47-.905A1.3 1.3.0 0 0 347.527 241.253zm.093 12.186a2.042 2.042.0 0 1-1.158.7q-.611.0-1.633-1.837a6.3 6.3.0 0 1-1-2.382c0-.227.1-.363.3-.363.067.0.275.181.611.5a5.814 5.814.0 0 0 2.9 1.948c.455.138.7.251.7.341C348.345 252.621 348.1 252.986 347.62 253.439zm.313-6.354c-.428.545-.791.795-1.063.795a4.048 4.048.0 0 1-1.52-.43 14.706 14.706.0 0 0-4.81-.91v2.449c0 .727.018 1.861.067 3.36.066 1.5.114 2.61.114 3.337a1.077 1.077.0 0 1-.181.593.594.594.0 0 1-.5.357c-.5.0-.751-.293-.751-.885.0-1.017-.021-2.561-.021-4.608-.026-2.039-.026-3.558-.026-4.6a16.841 16.841.0 0 0-4.722.68c-1.492.569-2.288.842-2.355.842-.433.0-.635-.273-.635-.817a1.174 1.174.0 0 1 .54-1 11.742 11.742.0 0 1 3.43-.612c1.5-.111 2.723-.179 3.7-.2-.046-.614-.046-1.382-.046-2.313.0-.633.228-.976.684-.976s.7.343.743.976c0 .3.0.681-.024 1.156-.018.57-.018.954-.018 1.157.766.024 1.884.073 3.382.137q2.718.272 3.06.272a3.2 3.2.0 0 0 .73-.091 4.931 4.931.0 0 1 .7-.069.163.163.0 0 1 .18.161A2.414 2.414.0 0 1 347.933 247.086zM335.185 252.6c-.685 1.157-1.316 1.726-1.907 1.726a1.748 1.748.0 0 1-.977-.5c-.407-.342-.587-.636-.587-.863.0-.181.136-.319.456-.386a3.717 3.717.0 0 0 1.357-.593 6.713 6.713.0 0 0 1.638-1.563c.275-.411.541-.612.793-.612.09.0.159.088.159.227A5.691 5.691.0 0 1 335.185 252.6z" transform="translate(4.53 0.822)"/><path d="M346.576 239.914a2.19 2.19.0 0 1 1.585.731 2.1 2.1.0 0 1 .706 1.564 2.071 2.071.0 0 1-.754 1.515 2.232 2.232.0 0 1-1.537.709 2.23 2.23.0 0 1-2.226-2.224 2.246 2.246.0 0 1 .618-1.655A2.1 2.1.0 0 1 346.576 239.914zm0 4.336a2.057 2.057.0 0 0 1.411-.658 1.9 1.9.0 0 0 .7-1.382 1.922 1.922.0 0 0-.651-1.432 2.019 2.019.0 0 0-1.457-.679 1.927 1.927.0 0 0-1.475.584 2.071 2.071.0 0 0-.567 1.528 2.046 2.046.0 0 0 2.042 2.04zm0-3.52a1.427 1.427.0 0 1 1.016.458 1.382 1.382.0 0 1 .433 1.021 1.337 1.337.0 0 1-.5.972 1.448 1.448.0 0 1-.95.457 1.451 1.451.0 0 1-1.411-1.429 1.471 1.471.0 0 1 .392-1.063A1.334 1.334.0 0 1 346.576 240.73zm0 2.726a1.276 1.276.0 0 0 .825-.408 1.166 1.166.0 0 0 .441-.838 1.206 1.206.0 0 0-.379-.891 1.25 1.25.0 0 0-.886-.405 1.141 1.141.0 0 0-.883.358 1.282 1.282.0 0 0-.344.939 1.151 1.151.0 0 0 .36.864A1.137 1.137.0 0 0 346.576 243.455zm-6.737-1.408c.349.0.777.184.834 1.062v.006c0 .3.0.683-.024 1.161-.015.493-.017.846-.017 1.064.708.023 1.717.066 2.98.12l.32.014c1.8.18 2.83.272 3.051.272a3.1 3.1.0 0 0 .709-.089h.008a4.917 4.917.0 0 1 .715-.07.254.254.0 0 1 .272.252 2.457 2.457.0 0 1-.682 1.306c-.426.542-.818.829-1.135.829a4.16 4.16.0 0 1-1.557-.438 14.544 14.544.0 0 0-4.681-.9v2.353c0 .5.009 1.591.067 3.357.069 1.556.114 2.63.114 3.34a1.16 1.16.0 0 1-.2.641.684.684.0 0 1-.575.4c-.384.0-.843-.169-.843-.976.0-.42.0-.934-.008-1.53-.006-.836-.013-1.877-.013-3.078-.025-1.976-.026-3.487-.026-4.508a16.657 16.657.0 0 0-4.6.671c-1.024.39-2.265.847-2.385.847-.482.0-.727-.306-.727-.909a1.271 1.271.0 0 1 .579-1.077v0a11.577 11.577.0 0 1 3.469-.625c1.481-.11 2.663-.176 3.608-.2-.039-.6-.039-1.322-.039-2.224C339.064 242.186 339.55 242.047 339.839 242.047zm.651 1.071c-.039-.589-.258-.887-.651-.887s-.592.3-.592.884c0 .947.0 1.7.045 2.307l.007.1h-.1c-.958.023-2.166.09-3.693.2a11.888 11.888.0 0 0-3.387.6 1.081 1.081.0 0 0-.5.925c0 .64.287.725.54.726.095-.015.873-.282 2.326-.836a17.031 17.031.0 0 1 4.752-.686h.095v.095c0 1.021.0 2.563.026 4.6.0 1.2.007 2.242.013 3.078.0.6.008 1.11.008 1.531.0.541.21.793.659.793a.513.513.0 0 0 .417-.31.993.993.0 0 0 .17-.548c0-.706-.045-1.778-.114-3.333-.059-1.77-.067-2.867-.067-3.364v-2.545h.1a14.849 14.849.0 0 1 4.84.916 4 4 0 0 0 1.485.423c.254.0.606-.27.991-.759a2.368 2.368.0 0 0 .642-1.192c0-.064-.068-.069-.088-.069a4.742 4.742.0 0 0-.684.068 3.283 3.283.0 0 1-.748.093c-.23.0-1.233-.089-3.067-.273l-.312-.013c-1.316-.056-2.356-.1-3.066-.123h-.089v-.089c0-.206.0-.589.018-1.16C340.49 243.795 340.49 243.42 340.49 243.118zm3.635 6.35c.085.0.2.073.674.527v0a5.739 5.739.0 0 0 2.855 1.92h.009c.643.195.769.3.769.429.0.295-.246.673-.753 1.156a2.11 2.11.0 0 1-1.222.727c-.45.0-1.01-.616-1.713-1.884a6.327 6.327.0 0 1-1.013-2.426C343.736 249.634 343.878 249.468 344.125 249.468zm.546.658a4.315 4.315.0 0 0-.552-.474c-.06.0-.2.01-.2.271a5.859 5.859.0 0 0 .99 2.336c.821 1.48 1.3 1.791 1.553 1.791.177.0.511-.117 1.095-.676.455-.434.689-.775.7-1.013-.019-.023-.119-.106-.634-.262A5.912 5.912.0 0 1 344.671 250.126zm-8.714-.408c.146.0.251.134.251.319a5.716 5.716.0 0 1-.943 2.609c-.706 1.193-1.355 1.772-1.987 1.772a1.821 1.821.0 0 1-1.035-.519c-.412-.346-.621-.66-.621-.934.0-.167.092-.384.529-.476a3.61 3.61.0 0 0 1.321-.576 6.662 6.662.0 0 0 1.619-1.544C335.377 249.937 335.669 249.718 335.957 249.718zm-2.679 4.516c.553.0 1.168-.566 1.828-1.681a5.637 5.637.0 0 0 .919-2.516c0-.077-.029-.135-.068-.135-.222.0-.463.192-.716.571a6.838 6.838.0 0 1-1.662 1.588 3.79 3.79.0 0 1-1.388.606c-.386.081-.386.244-.386.3.0.211.2.492.555.793A1.7 1.7.0 0 0 333.278 254.233z" transform="translate(4.53 0.822)"/><path d="M361.092 250.538a24.6 24.6.0 0 1-4.354 3.243q-3.339 2.115-4.835 2.11a1.22 1.22.0 0 1-.93-.406 1.773 1.773.0 0 1-.293-1.294 2.063 2.063.0 0 0 .041-.314v-10.1c0-.456.252-.7.777-.7s.814.519.814 1.54c0 1-.065 2.542-.207 4.586s-.177 3.56-.177 4.56c0 .184.064.27.2.27a11.686 11.686.0 0 0 4.061-1.654 18.8 18.8.0 0 0 4.425-3.085c.905-.886 1.429-1.338 1.612-1.338.227.0.34.136.34.405C362.569 248.811 362.068 249.54 361.092 250.538z" transform="translate(5.205 0.933)"/><path d="M351.9 255.983a1.32 1.32.0 0 1-1-.436 1.6 1.6.0 0 1-.34-1.082 1.617 1.617.0 0 1 .024-.289l.011-.066a1.457 1.457.0 0 0 .029-.232v-10.1c0-.363.151-.8.869-.8.6.0.906.549.906 1.632.0 1.05-.072 2.638-.207 4.593-.146 2.217-.177 3.7-.177 4.554.0.179.062.179.111.179.456.0 1.522-.285 4.017-1.643a18.569 18.569.0 0 0 4.4-3.069c1.167-1.142 1.5-1.365 1.677-1.365.161.0.432.065.432.5.0.476-.491 1.21-1.5 2.245a24.627 24.627.0 0 1-4.371 3.256C354.561 255.268 352.918 255.983 351.9 255.983zm-.405-12.818c-.461.0-.685.2-.685.612v10.1a1.594 1.594.0 0 1-.032.263l-.011.066a1.448 1.448.0 0 0-.022.258 1.427 1.427.0 0 0 .295.962 1.124 1.124.0 0 0 .86.373c.979.0 2.59-.705 4.786-2.1a24.459 24.459.0 0 0 4.338-3.23c.962-.984 1.449-1.7 1.449-2.116.0-.276-.125-.313-.248-.313a8.171 8.171.0 0 0-1.548 1.312 18.741 18.741.0 0 1-4.446 3.1 11.67 11.67.0 0 1-4.1 1.665c-.11.0-.295-.047-.295-.362.0-.857.031-2.344.177-4.566.135-1.951.207-3.534.207-4.58C352.221 243.652 351.978 243.165 351.5 243.165z" transform="translate(5.205 0.933)"/><path d="M376.631 250.019c-.491.5-.833.751-1.046.751a1.822 1.822.0 0 1-.952-.364 9.2 9.2.0 0 0-5.006-1.158 12.187 12.187.0 0 0-4.74.862 3.285 3.285.0 0 1-.909.319.523.523.0 0 1-.418-.253.692.692.0 0 1-.2-.5 1.287 1.287.0 0 1 .325-.859 6.375 6.375.0 0 1 2.852-.657c1.162-.094 2.214-.161 3.119-.161a21.565 21.565.0 0 1 4.253.478 11.535 11.535.0 0 0 2.3.316 1.517 1.517.0 0 0 .453-.091 1.591 1.591.0 0 1 .454-.113c.147.0.235.113.235.339S377.106 249.522 376.631 250.019z" transform="translate(5.65 1.11)"/><path d="M375.584 250.862a1.907 1.907.0 0 1-1-.379 9.143 9.143.0 0 0-4.956-1.143 12.144 12.144.0 0 0-4.7.855 3.3 3.3.0 0 1-.944.326.612.612.0 0 1-.487-.285.787.787.0 0 1-.221-.56 1.386 1.386.0 0 1 .348-.919l.007-.007a6.373 6.373.0 0 1 2.905-.681c1.373-.111 2.338-.161 3.128-.161a21.5 21.5.0 0 1 4.271.479 11.156 11.156.0 0 0 2.287.314 1.424 1.424.0 0 0 .424-.087 1.625 1.625.0 0 1 .482-.117c.077.0.327.031.327.431.0.254-.232.61-.753 1.154S375.825 250.862 375.584 250.862zm-5.958-1.705a9.317 9.317.0 0 1 5.056 1.173 1.74 1.74.0 0 0 .9.349c.18.0.51-.243.981-.724s.7-.832.7-1.027c0-.247-.108-.247-.143-.247a1.547 1.547.0 0 0-.424.108 1.633 1.633.0 0 1-.483.1 11.747 11.747.0 0 1-2.325-.318 21.32 21.32.0 0 0-4.233-.475c-.785.0-1.745.049-3.112.16-1.943.19-2.592.447-2.793.629a1.188 1.188.0 0 0-.3.795.6.6.0 0 0 .175.438v.005c.152.192.256.218.346.218a2.977 2.977.0 0 0 .871-.311A12.326 12.326.0 0 1 369.626 249.157z" transform="translate(5.65 1.11)"/><path d="M383.463 246.321a6.222 6.222.0 0 1-2.107-.615c-1.043-.455-1.566-.842-1.566-1.18.0-.544.294-.842.909-.842a1.845 1.845.0 0 1 1.045.48c1.4 1.111 2.108 1.748 2.108 1.907C383.852 246.25 383.716 246.321 383.463 246.321zm8.716 2.7a21.93 21.93.0 0 1-8.827 5.851 14.66 14.66.0 0 1-3.017 1 1.024 1.024.0 0 1-.816-.315 1.2 1.2.0 0 1-.343-.865c0-.476.343-.767 1.048-.857a19.626 19.626.0 0 0 8.194-3.271 21.091 21.091.0 0 0 4.012-3.449c.408-.455.655-.7.794-.7a.341.341.0 0 1 .363.384C393.587 247.183 393.11 247.93 392.179 249.019zm-10.031.658a13.59 13.59.0 0 1-2.629-.339c-.638-.14-.956-.39-.956-.8a.751.751.0 0 1 .841-.858 5.883 5.883.0 0 1 1.817.724c.927.5 1.4.838 1.4 1.021S382.469 249.677 382.147 249.677z" transform="translate(6.162 0.954)"/><path d="M380.7 243.591a1.921 1.921.0 0 1 1.1.5c2.144 1.7 2.144 1.881 2.144 1.98.0.227-.162.342-.48.342a6.244 6.244.0 0 1-2.143-.623c-1.107-.483-1.622-.884-1.622-1.264C379.7 243.914 380.044 243.591 380.7 243.591zm2.765 2.638c.3.0.3-.1.3-.159s-.247-.389-2.073-1.835a1.76 1.76.0 0 0-.988-.46c-.55.0-.817.245-.817.75.0.2.262.551 1.511 1.1A6.192 6.192.0 0 0 383.463 246.229zm9.761.088a.432.432.0 0 1 .454.476c0 .413-.468 1.161-1.43 2.286a22.158 22.158.0 0 1-8.864 5.877 14.76 14.76.0 0 1-3.05 1.005 1.113 1.113.0 0 1-.885-.346 1.29 1.29.0 0 1-.366-.926c0-.533.38-.852 1.129-.948a19.643 19.643.0 0 0 8.154-3.255 21.023 21.023.0 0 0 3.995-3.433C392.827 246.534 393.05 246.317 393.224 246.317zm-12.889 9.46a15.523 15.523.0 0 0 2.983-.992 21.98 21.98.0 0 0 8.792-5.826c1.145-1.339 1.386-1.917 1.386-2.166.0-.194-.091-.293-.271-.293-.12.0-.514.438-.725.674a21.2 21.2.0 0 1-4.029 3.463 19.828 19.828.0 0 1-8.232 3.286c-.654.084-.971.334-.971.766a1.1 1.1.0 0 0 .316.8A.931.931.0 0 0 380.335 255.777zm-.931-8.187a5.823 5.823.0 0 1 1.859.734c1.28.687 1.453.943 1.453 1.1.0.341-.412.341-.567.341a13.68 13.68.0 0 1-2.648-.341c-.693-.152-1.029-.442-1.029-.889A.842.842.0 0 1 379.4 247.59zm2.744 2c.384.0.384-.1.384-.158s-.1-.267-1.354-.941a5.9 5.9.0 0 0-1.774-.713c-.511.0-.749.243-.749.766.0.221.092.535.884.709A13.505 13.505.0 0 0 382.147 249.585z" transform="translate(6.162 0.954)"/><path d="M403 250l-.545 4.106c.545.088.839.293.839.634.0.36-.179.524-.544.524a2.137 2.137.0 0 1-.7-.118 8.266 8.266.0 0 0-1.517-.087 30.941 30.941.0 0 0-4.064.179c-1.313.2-1.973.294-1.929.294a.555.555.0 0 1-.636-.634c0-.592 1.637-.906 4.926-.906.475.0 1.019.021 1.637.021.609.023.923.023.974.023.155-.975.291-2.062.43-3.264-.911-.024-1.592-.046-2.044-.046-1.177.0-2.245.046-3.2.113-1.314.136-1.951.18-1.858.18-.3.0-.43-.137-.43-.453q0-.645 1.225-.749 1.632-.109 6.376-.114c.092-1.088.158-1.658.158-1.7a.871.871.0 0 0-.158-.592c-.068-.113-.249-.18-.525-.18h-2.085c-1.182.0-2.223.067-3.132.155s-1.45.117-1.634.117c-.27.0-.386-.187-.386-.572.0-.406.341-.632 1.066-.7q1.195-.071 3.537-.07h2.975a1.811 1.811.0 0 0 .434-.073 3.873 3.873.0 0 1 .408-.04.937.937.0 0 1 .521.183.611.611.0 0 1 .249.472C403.361 247 403.224 248.095 403 250z" transform="translate(6.714 1.04)"/><path d="M402.591 245.96a1.017 1.017.0 0 1 .571.2l.009.007a.7.7.0 0 1 .282.543c0 .256-.1 1.053-.268 2.5l-.1.806-.534 4.02c.55.107.828.345.828.709a.555.555.0 0 1-.636.616 2.227 2.227.0 0 1-.729-.122 8.324 8.324.0 0 0-1.491-.083 31.436 31.436.0 0 0-4.05.178c-.685.106-1.185.18-1.515.23-.223.033-.385.057-.406.062l-.02-.089h0v.092h-.085v0a.632.632.0 0 1-.642-.723c0-.352.427-.6 1.3-.765a22.024 22.024.0 0 1 3.713-.233c.223.0.461.0.714.009.293.006.6.011.923.011.453.017.745.021.9.022.159-1.009.294-2.116.406-3.083l-.447-.012c-.637-.017-1.139-.031-1.494-.031-1.073.0-2.118.037-3.195.113-.783.081-1.326.129-1.617.155-.124.011-.222.02-.237.022l-.01-.06v.063c-.351.0-.522-.178-.522-.544.0-.485.44-.768 1.309-.84 1.111-.074 3.288-.114 6.3-.114.058-.676.1-1.141.13-1.4.011-.111.02-.2.02-.214.0-.367-.1-.5-.131-.526l-.008-.008-.006-.01c-.052-.085-.218-.136-.447-.136h-2.085c-1.025.0-2.047.051-3.123.155-1.113.114-1.592.117-1.643.117-.478.0-.478-.5-.478-.664.0-.461.376-.719 1.149-.79.8-.048 1.956-.071 3.545-.071h2.975a1.711 1.711.0 0 0 .41-.069h.014l.106-.013A2.564 2.564.0 0 1 402.591 245.96zm.467.349a.834.834.0 0 0-.467-.166 2.444 2.444.0 0 0-.29.026l-.1.013a1.892 1.892.0 0 1-.452.074h-2.975c-1.586.0-2.741.023-3.531.07-.878.08-.98.385-.98.607.0.422.142.48.295.48.181.0.728-.025 1.624-.117 1.082-.1 2.11-.156 3.141-.156h2.085a.684.684.0 0 1 .6.215.969.969.0 0 1 .177.649c0 .018.0.066-.021.231-.026.264-.076.756-.137 1.476l-.007.084h-.084c-3.051.0-5.254.039-6.37.114-.755.063-1.139.285-1.139.657.0.258.088.357.325.361.019.0.038-.006.058-.007l.186-.017c.291-.026.833-.074 1.618-.155 1.084-.076 2.134-.113 3.211-.113.357.0.861.014 1.5.031l.547.015h.1l-.012.1c-.117 1.017-.26 2.2-.43 3.268l-.012.077h-.078c-.11.0-.426.0-.977-.023-.327.0-.63-.006-.923-.011-.251.0-.489-.009-.71-.009-4.206.0-4.834.51-4.834.815.0.378.161.54.537.542.026-.006.058-.011.1-.017l.312-.047c.33-.049.829-.123 1.514-.229a31.1 31.1.0 0 1 4.078-.18 8.6 8.6.0 0 1 1.539.09h.007a2.051 2.051.0 0 0 .674.113c.317.0.452-.129.452-.432.0-.1.0-.42-.762-.543l-.088-.014.557-4.194.1-.805c.166-1.392.267-2.232.267-2.477A.518.518.0 0 0 403.057 246.309z" transform="translate(6.714 1.04)"/><path d="M409.227 247.22a6.344 6.344.0 0 1-2.4-.82c-1.229-.545-1.842-1.066-1.842-1.522a.84.84.0 0 1 .3-.657 1.116 1.116.0 0 1 .7-.3 5.263 5.263.0 0 1 2.043 1.273c1.04.863 1.587 1.406 1.587 1.612C409.611 247.08 409.476 247.22 409.227 247.22zm7.558 1.265a19.824 19.824.0 0 1-8.671 6.693 6.985 6.985.0 0 1-2.179.682.849.849.0 0 1-.954-.975c0-.545.411-.93 1.273-1.156a17.445 17.445.0 0 0 3.584-1.271 16.95 16.95.0 0 0 4.764-3.2 13.768 13.768.0 0 0 2.881-3.608c.161-.318.344-.5.57-.5.251.0.386.158.386.477C418.441 246.08 417.872 247.037 416.786 248.485z" transform="translate(7.112 0.963)"/><path d="M405.981 243.833c.341.0 1.008.411 2.1 1.294 1.429 1.185 1.621 1.516 1.621 1.683a.445.445.0 0 1-.475.5 6.389 6.389.0 0 1-2.445-.83c-1.255-.556-1.893-1.1-1.893-1.6a.931.931.0 0 1 .329-.726A1.2 1.2.0 0 1 405.981 243.833zm3.247 3.3c.2.0.292-.1.292-.318.0-.094-.2-.42-1.554-1.541a5.344 5.344.0 0 0-1.984-1.252 1.026 1.026.0 0 0-.643.276.743.743.0 0 0-.264.585c0 .416.635.927 1.787 1.438A6.357 6.357.0 0 0 409.227 247.129zm8.827-2.068c.179.0.478.074.478.568.0.464-.532 1.389-1.674 2.911a20 20 0 0 1-8.71 6.724 7.022 7.022.0 0 1-2.213.688.936.936.0 0 1-1.046-1.067c0-.593.451-1.012 1.342-1.245h.006a17.2 17.2.0 0 0 3.564-1.265 16.935 16.935.0 0 0 4.739-3.181 13.749 13.749.0 0 0 2.862-3.583C417.59 245.241 417.8 245.061 418.055 245.061zm-12.119 10.708a6.531 6.531.0 0 0 2.142-.674 19.817 19.817.0 0 0 8.634-6.664 7.617 7.617.0 0 0 1.637-2.8c0-.345-.168-.385-.295-.385-.176.0-.335.147-.488.449a13.923 13.923.0 0 1-2.9 3.633 17.118 17.118.0 0 1-4.79 3.215 17.381 17.381.0 0 1-3.6 1.277c-.809.212-1.2.561-1.2 1.067C405.074 255.488 405.348 255.769 405.936 255.769z" transform="translate(7.112 0.963)"/><g transform="translate(254.691 220.861)"><path d="M262.722 224.456h1.348v.481h-1.362l-.015 3.85a2.606 2.606.0 0 0 .087.772.613.613.0 0 0 .627.458.746.746.0 0 0 .419-.112 2.176 2.176.0 0 0 .408-.361l.172.149-.148.2a2.168 2.168.0 0 1-.733.661 1.691 1.691.0 0 1-.748.194 1.057 1.057.0 0 1-1.071-.7 2.913 2.913.0 0 1-.154-1.056v-4.053h-.726a.133.133.0 0 1-.051-.041.063.063.0 0 1-.018-.048.139.139.0 0 1 .032-.107 1.435 1.435.0 0 1 .186-.17 5.717 5.717.0 0 0 .665-.616c.139-.161.456-.576.96-1.256a.238.238.0 0 1 .1.013.168.168.0 0 1 .018.1z" transform="translate(-252.766 -220.34)"/><path d="M268.926 225.715a4.815 4.815.0 0 1 .512 2.179 3.547 3.547.0 0 1-.4 1.807 1.275 1.275.0 0 1-1.154.687 1.645 1.645.0 0 1-1.495-1.03 4.726 4.726.0 0 1-.538-2.217 2.736 2.736.0 0 1 .671-2.1 1.327 1.327.0 0 1 .917-.347A1.622 1.622.0 0 1 268.926 225.715zm-3.434 4.11a2.863 2.863.0 0 0 2.171.943 2.732 2.732.0 0 0 2.178-.981 3.441 3.441.0 0 0 .841-2.313 3.131 3.131.0 0 0-.866-2.312 2.978 2.978.0 0 0-2.194-.867 2.819 2.819.0 0 0-2.176.918 3.2 3.2.0 0 0-.845 2.249A3.306 3.306.0 0 0 265.492 229.825z" transform="translate(-252.627 -220.283)"/><path d="M270.928 230.561v-.22a1.609 1.609.0 0 0 .818-.213.918.918.0 0 0 .2-.7v-3.015a2.747 2.747.0 0 0-.123-.948.458.458.0 0 0-.454-.282 1.065 1.065.0 0 0-.176.018c-.075.011-.149.025-.231.042v-.218c.255-.091.516-.186.783-.278s.452-.165.551-.2c.225-.084.456-.182.69-.289a.053.053.0 0 1 .057.036.648.648.0 0 1 .009.14v1.1a5.2 5.2.0 0 1 .827-.933 1.27 1.27.0 0 1 .826-.335.768.768.0 0 1 .554.206.678.678.0 0 1 .214.51.67.67.0 0 1-.164.46.512.512.0 0 1-.413.189.77.77.0 0 1-.51-.232.72.72.0 0 0-.407-.235c-.149.0-.343.126-.573.382a1.14 1.14.0 0 0-.339.774v3.013a1 1 0 0 0 .266.8 1.332 1.332.0 0 0 .891.208v.22z" transform="translate(-252.4 -220.284)"/><path d="M275.448 224.6v-.189h2.821v.208a1.711 1.711.0 0 0-.492.059c-.206.056-.312.173-.312.341a.587.587.0 0 0 .036.191c.025.064.062.163.121.289l1.562 3.469 1.257-3.5c.013-.034.032-.113.062-.238a1.266 1.266.0 0 0 .046-.256.278.278.0 0 0-.122-.253.632.632.0 0 0-.3-.091l-.209-.015v-.208h1.841v.208a.643.643.0 0 0-.413.184 1.39 1.39.0 0 0-.239.43l-2.1 5.571a8.628 8.628.0 0 1-1.049 2.094 1.537 1.537.0 0 1-1.271.646 1.4 1.4.0 0 1-.7-.183.641.641.0 0 1-.327-.6.551.551.0 0 1 .2-.438.753.753.0 0 1 .5-.17 1.681 1.681.0 0 1 .514.127 1.753 1.753.0 0 0 .493.124c.25.0.514-.287.789-.868a3.6 3.6.0 0 0 .414-1.162.6.6.0 0 0-.021-.149.831.831.0 0 0-.048-.148l-2.136-4.627a2.221 2.221.0 0 0-.4-.655A.926.926.0 0 0 275.448 224.6z" transform="translate(-252.237 -220.278)"/><path d="M284 224.456h1.351v.481h-1.362l-.017 3.85a2.515 2.515.0 0 0 .091.772.613.613.0 0 0 .627.458.754.754.0 0 0 .42-.112 2.136 2.136.0 0 0 .4-.361l.172.149-.149.2a2.073 2.073.0 0 1-.731.661 1.679 1.679.0 0 1-.75.194 1.05 1.05.0 0 1-1.066-.7 2.912 2.912.0 0 1-.154-1.056v-4.053H282.1a.146.146.0 0 1-.052-.041.066.066.0 0 1-.016-.048.164.164.0 0 1 .029-.107 2.186 2.186.0 0 1 .192-.17 6.259 6.259.0 0 0 .664-.616c.136-.161.457-.576.958-1.256a.261.261.0 0 1 .106.013.189.189.0 0 1 .014.1z" transform="translate(-252 -220.34)"/><path d="M289.382 225.37a2.8 2.8.0 0 1 .25.992h-2.817a2.528 2.528.0 0 1 .309-.908 1.264 1.264.0 0 1 1.159-.671A1.159 1.159.0 0 1 289.382 225.37zm-2.782-.1a3.538 3.538.0 0 0-.8 2.316 3.6 3.6.0 0 0 .688 2.184 2.241 2.241.0 0 0 1.936.953A2.567 2.567.0 0 0 290.27 230a3.748 3.748.0 0 0 1.026-1.572l-.233-.08a3.686 3.686.0 0 1-.887 1.044 1.9 1.9.0 0 1-1.185.367 1.947 1.947.0 0 1-1.5-.709 3.566 3.566.0 0 1-.7-2.255h4.246a2.4 2.4.0 0 0-.71-1.851 2.373 2.373.0 0 0-1.655-.651A2.53 2.53.0 0 0 286.6 225.271z" transform="translate(-251.865 -220.283)"/><path d="M291.682 230.668v-.183a1.617 1.617.0 0 0 .842-.25.978.978.0 0 0 .224-.748v-6.529a1.644 1.644.0 0 0-.078-.608.535.535.0 0 0-.539-.281 1.137 1.137.0 0 0-.206.019c-.074.017-.165.034-.277.061v-.221q.9-.241 2.17-.641a.056.056.0 0 1 .06.036 1.185 1.185.0 0 1 .009.175v8.016a1 1 0 0 0 .2.751 1.562 1.562.0 0 0 .825.219v.183z" transform="translate(-251.655 -220.391)"/><path d="M295.355 230.668v-.183a1.63 1.63.0 0 0 .841-.25.963.963.0 0 0 .219-.748v-6.529a1.855 1.855.0 0 0-.068-.608.548.548.0 0 0-.547-.281 1.107 1.107.0 0 0-.2.019c-.072.017-.166.034-.279.061v-.221q.9-.241 2.172-.641a.057.057.0 0 1 .06.036 1.283 1.283.0 0 1 .007.175v8.016a1 1 0 0 0 .2.751 1.578 1.578.0 0 0 .832.219v.183z" transform="translate(-251.523 -220.391)"/><path d="M302.588 225.37a2.788 2.788.0 0 1 .253.992h-2.822a2.569 2.569.0 0 1 .311-.908 1.264 1.264.0 0 1 1.162-.671A1.147 1.147.0 0 1 302.588 225.37zm-2.783-.1a3.537 3.537.0 0 0-.795 2.316 3.615 3.615.0 0 0 .687 2.184 2.247 2.247.0 0 0 1.941.953 2.575 2.575.0 0 0 1.84-.724 3.8 3.8.0 0 0 1.026-1.572l-.236-.08a3.673 3.673.0 0 1-.888 1.044 1.891 1.891.0 0 1-1.182.367 1.958 1.958.0 0 1-1.506-.709 3.579 3.579.0 0 1-.7-2.255h4.242a2.385 2.385.0 0 0-.71-1.851 2.36 2.36.0 0 0-1.649-.651A2.538 2.538.0 0 0 299.806 225.271z" transform="translate(-251.39 -220.283)"/><path d="M304.673 230.561v-.22a1.618 1.618.0 0 0 .819-.213.919.919.0 0 0 .2-.7v-3.015a2.676 2.676.0 0 0-.122-.948.452.452.0 0 0-.454-.282 1.044 1.044.0 0 0-.173.018c-.075.011-.153.025-.233.042v-.218c.253-.091.514-.186.784-.278s.45-.165.551-.2c.224-.084.455-.182.691-.289a.052.052.0 0 1 .056.036.722.722.0 0 1 .009.14v1.1a5.129 5.129.0 0 1 .829-.933 1.271 1.271.0 0 1 .823-.335.762.762.0 0 1 .553.206.671.671.0 0 1 .214.51.663.663.0 0 1-.161.46.518.518.0 0 1-.414.189.777.777.0 0 1-.513-.232.725.725.0 0 0-.4-.235c-.154.0-.347.126-.57.382a1.128 1.128.0 0 0-.347.774v3.013a.988.988.0 0 0 .269.8 1.335 1.335.0 0 0 .89.208v.22z" transform="translate(-251.186 -220.284)"/><path d="M314.441 224.456h1.351v.481h-1.361l-.012 3.85a2.668 2.668.0 0 0 .083.772.62.62.0 0 0 .631.458.743.743.0 0 0 .415-.112 2.048 2.048.0 0 0 .4-.361l.175.149-.146.2a2.082 2.082.0 0 1-.736.661 1.672 1.672.0 0 1-.749.194 1.049 1.049.0 0 1-1.066-.7 2.88 2.88.0 0 1-.159-1.056v-4.053h-.725a.185.185.0 0 1-.055-.041.1.1.0 0 1-.012-.048.17.17.0 0 1 .03-.107 2.036 2.036.0 0 1 .19-.17 6.36 6.36.0 0 0 .667-.616c.135-.161.454-.576.959-1.256a.216.216.0 0 1 .1.013.222.222.0 0 1 .013.1z" transform="translate(-250.905 -220.34)"/><path d="M319.822 225.37a2.825 2.825.0 0 1 .256.992h-2.825a2.589 2.589.0 0 1 .311-.908 1.271 1.271.0 0 1 1.162-.671A1.143 1.143.0 0 1 319.822 225.37zm-2.784-.1a3.551 3.551.0 0 0-.791 2.316 3.607 3.607.0 0 0 .686 2.184 2.239 2.239.0 0 0 1.939.953 2.563 2.563.0 0 0 1.84-.724 3.785 3.785.0 0 0 1.028-1.572l-.233-.08a3.712 3.712.0 0 1-.891 1.044 1.883 1.883.0 0 1-1.182.367 1.95 1.95.0 0 1-1.5-.709 3.592 3.592.0 0 1-.7-2.255h4.244a2.392 2.392.0 0 0-.709-1.851 2.358 2.358.0 0 0-1.651-.651A2.542 2.542.0 0 0 317.038 225.271z" transform="translate(-250.77 -220.283)"/><path d="M322.126 230.668v-.183a1.63 1.63.0 0 0 .841-.25.987.987.0 0 0 .22-.748v-6.529a1.724 1.724.0 0 0-.076-.608.534.534.0 0 0-.538-.281 1.125 1.125.0 0 0-.205.019c-.075.017-.166.034-.279.061v-.221c.6-.161 1.323-.375 2.177-.641a.057.057.0 0 1 .057.036 1.571 1.571.0 0 1 .006.175v8.016a1.016 1.016.0 0 0 .2.751 1.585 1.585.0 0 0 .827.219v.183z" transform="translate(-250.56 -220.391)"/><path d="M325.793 230.668v-.183a1.594 1.594.0 0 0 .842-.25.97.97.0 0 0 .225-.748v-6.529a1.649 1.649.0 0 0-.077-.608.538.538.0 0 0-.538-.281 1.076 1.076.0 0 0-.2.019c-.077.017-.166.034-.278.061v-.221c.6-.161 1.324-.375 2.169-.641.03.0.054.013.058.036a1.69 1.69.0 0 1 .008.175v8.016a1.011 1.011.0 0 0 .2.751 1.575 1.575.0 0 0 .83.219v.183z" transform="translate(-250.428 -220.391)"/><path d="M329.879 230.617v-2.16h.219a3.458 3.458.0 0 0 .413 1.171 1.518 1.518.0 0 0 1.374.75 1.087 1.087.0 0 0 .789-.279.947.947.0 0 0 .291-.719 1.019 1.019.0 0 0-.166-.54 1.685 1.685.0 0 0-.588-.508l-.751-.432a4.164 4.164.0 0 1-1.207-.887 1.558 1.558.0 0 1-.387-1.058 1.574 1.574.0 0 1 .534-1.228 1.95 1.95.0 0 1 1.344-.482 2.6 2.6.0 0 1 .779.135 3.383 3.383.0 0 0 .48.134.344.344.0 0 0 .171-.034.3.3.0 0 0 .1-.106h.16l.048 1.863h-.207a3.1 3.1.0 0 0-.366-1.008 1.324 1.324.0 0 0-1.2-.67.958.958.0 0 0-.731.29.947.947.0 0 0-.268.674c0 .41.31.776.923 1.1l.886.473c.944.519 1.421 1.12 1.421 1.808a1.609 1.609.0 0 1-.595 1.288 2.316 2.316.0 0 1-1.546.5 3.687 3.687.0 0 1-.909-.131 3.949 3.949.0 0 0-.6-.137.22.22.0 0 0-.141.056.389.389.0 0 0-.094.138z" transform="translate(-250.28 -220.284)"/><path d="M339.763 224.456h1.347v.481h-1.361l-.014 3.85a2.529 2.529.0 0 0 .089.772.614.614.0 0 0 .626.458.76.76.0 0 0 .421-.112 2.047 2.047.0 0 0 .4-.361l.171.149-.143.2a2.114 2.114.0 0 1-.738.661 1.671 1.671.0 0 1-.748.194 1.048 1.048.0 0 1-1.067-.7 2.819 2.819.0 0 1-.156-1.056v-4.053h-.728a.2.2.0 0 1-.049-.041.068.068.0 0 1-.018-.048.153.153.0 0 1 .034-.107 1.232 1.232.0 0 1 .186-.17 6.4 6.4.0 0 0 .665-.616c.134-.161.452-.576.961-1.256a.253.253.0 0 1 .1.013c.01.01.016.042.016.1z" transform="translate(-249.995 -220.34)"/><path d="M341.421 230.666v-.183a1.158 1.158.0 0 0 .721-.272 1.61 1.61.0 0 0 .167-.93v-6.42a1.192 1.192.0 0 0-.093-.547c-.064-.119-.225-.179-.474-.179a1.06 1.06.0 0 0-.141.011l-.159.024v-.242c.2-.06.44-.126.727-.209s.487-.141.6-.179l.643-.2.012.047v4.106a4.185 4.185.0 0 1 .748-.708 2.2 2.2.0 0 1 1.268-.4 1.465 1.465.0 0 1 1.476.909 3.085 3.085.0 0 1 .214 1.265v2.727a1.715 1.715.0 0 0 .165.923 1.015 1.015.0 0 0 .669.28v.183h-2.891v-.183a1.269 1.269.0 0 0 .748-.275 1.649 1.649.0 0 0 .167-.928v-2.709a2.18 2.18.0 0 0-.218-1.047.847.847.0 0 0-.818-.4 1.656 1.656.0 0 0-1.01.373c-.322.251-.489.413-.489.489v3.3a1.6 1.6.0 0 0 .174.935 1.358 1.358.0 0 0 .743.267v.183z" transform="translate(-249.864 -220.389)"/><path d="M351.75 225.37a2.924 2.924.0 0 1 .254.992h-2.823a2.631 2.631.0 0 1 .311-.908 1.261 1.261.0 0 1 1.159-.671A1.156 1.156.0 0 1 351.75 225.37zm-2.783-.1a3.544 3.544.0 0 0-.8 2.316 3.6 3.6.0 0 0 .689 2.184 2.243 2.243.0 0 0 1.937.953 2.573 2.573.0 0 0 1.842-.724 3.743 3.743.0 0 0 1.023-1.572l-.232-.08a3.658 3.658.0 0 1-.889 1.044 1.894 1.894.0 0 1-1.18.367 1.963 1.963.0 0 1-1.508-.709 3.6 3.6.0 0 1-.7-2.255H353.4a2.387 2.387.0 0 0-.713-1.851 2.352 2.352.0 0 0-1.648-.651A2.537 2.537.0 0 0 348.968 225.271z" transform="translate(-249.622 -220.283)"/><path d="M367.373 224.456h1.345v.481h-1.361l-.012 3.85a2.782 2.782.0 0 0 .083.772.62.62.0 0 0 .631.458.744.744.0 0 0 .417-.112 2.28 2.28.0 0 0 .408-.361l.169.149-.146.2a2.116 2.116.0 0 1-.734.661 1.681 1.681.0 0 1-.748.194 1.06 1.06.0 0 1-1.071-.7 2.965 2.965.0 0 1-.152-1.056v-4.053h-.731a.226.226.0 0 1-.05-.041.1.1.0 0 1-.013-.048.186.186.0 0 1 .027-.107c.022-.024.089-.083.194-.17a6.023 6.023.0 0 0 .663-.616c.139-.161.456-.576.961-1.256a.236.236.0 0 1 .1.013.153.153.0 0 1 .021.1z" transform="translate(-249.002 -220.34)"/><path d="M373.576 225.715a4.844 4.844.0 0 1 .513 2.179 3.547 3.547.0 0 1-.405 1.807 1.271 1.271.0 0 1-1.154.687 1.638 1.638.0 0 1-1.491-1.03 4.691 4.691.0 0 1-.54-2.217 2.752 2.752.0 0 1 .669-2.1 1.327 1.327.0 0 1 .917-.347A1.622 1.622.0 0 1 373.576 225.715zm-3.44 4.11a2.879 2.879.0 0 0 2.171.943 2.728 2.728.0 0 0 2.181-.981 3.448 3.448.0 0 0 .843-2.313 3.127 3.127.0 0 0-.867-2.312 2.978 2.978.0 0 0-2.2-.867 2.816 2.816.0 0 0-2.172.918 3.179 3.179.0 0 0-.846 2.249A3.3 3.3.0 0 0 370.136 229.825z" transform="translate(-248.864 -220.283)"/><path d="M375.578 230.561v-.22a1.612 1.612.0 0 0 .815-.213.905.905.0 0 0 .2-.7v-3.015a2.678 2.678.0 0 0-.122-.948.456.456.0 0 0-.456-.282 1.012 1.012.0 0 0-.17.018c-.076.011-.155.025-.233.042v-.218c.254-.091.516-.186.78-.278s.45-.165.555-.2c.221-.084.452-.182.69-.289a.058.058.0 0 1 .058.036.791.791.0 0 1 .007.14v1.1a5.24 5.24.0 0 1 .823-.933 1.294 1.294.0 0 1 .829-.335.772.772.0 0 1 .553.206.677.677.0 0 1 .213.51.649.649.0 0 1-.162.46.518.518.0 0 1-.414.189.758.758.0 0 1-.51-.232.719.719.0 0 0-.4-.235c-.158.0-.346.126-.578.382a1.144 1.144.0 0 0-.339.774v3.013a1 1 0 0 0 .266.8 1.342 1.342.0 0 0 .894.208v.22z" transform="translate(-248.636 -220.284)"/><path d="M380.6 224.8a2.222 2.222.0 0 1 .4.655l2.138 4.627a.916.916.0 0 1 .051.148.69.69.0 0 1 .018.149 3.645 3.645.0 0 1-.413 1.162c-.279.581-.545.868-.788.868a1.69 1.69.0 0 1-.493-.124 1.675 1.675.0 0 0-.517-.127.756.756.0 0 0-.5.17.554.554.0 0 0-.2.438.643.643.0 0 0 .324.6 1.429 1.429.0 0 0 .7.183 1.524 1.524.0 0 0 1.269-.646 8.435 8.435.0 0 0 1.052-2.094l2.107-5.571a1.345 1.345.0 0 1 .235-.43.648.648.0 0 1 .413-.184v-.208h-1.839v.208l.208.015a.644.644.0 0 1 .3.091.291.291.0 0 1 .121.253 1.347 1.347.0 0 1-.042.256 1.6 1.6.0 0 1-.067.238l-1.253 3.5-1.563-3.469c-.06-.126-.1-.225-.123-.289a.64.64.0 0 1-.032-.191c0-.168.1-.285.306-.341a1.778 1.778.0 0 1 .5-.059v-.208H380.1v.189A.922.922.0 0 1 380.6 224.8z" transform="translate(-248.474 -220.278)"/><path d="M253.043 227.644h.352a5.366 5.366.0 0 0 .9 1.631 2.837 2.837.0 0 0 2.253 1.064 1.872 1.872.0 0 0 1.256-.46 1.609 1.609.0 0 0 .531-1.284 1.79 1.79.0 0 0-.534-1.291 9.285 9.285.0 0 0-1.471-1.05l-1.3-.81a4.592 4.592.0 0 1-.94-.752 2.331 2.331.0 0 1-.643-1.586 2.6 2.6.0 0 1 .764-1.914 2.745 2.745.0 0 1 2.029-.766 3.881 3.881.0 0 1 1.249.257 5.144 5.144.0 0 0 .838.254.471.471.0 0 0 .388-.134.924.924.0 0 0 .166-.377h.313l.334 3.234h-.364a3.414 3.414.0 0 0-1.194-2.039 2.791 2.791.0 0 0-1.62-.579 1.73 1.73.0 0 0-1.089.365 1.237 1.237.0 0 0-.464 1.025 1.481 1.481.0 0 0 .359 1 4.528 4.528.0 0 0 1.107.884l1.334.824a6.929 6.929.0 0 1 1.769 1.42 2.458 2.458.0 0 1 .506 1.544 2.568 2.568.0 0 1-.905 2 3.346 3.346.0 0 1-2.3.8 4.453 4.453.0 0 1-1.473-.267 6.089 6.089.0 0 0-.882-.269.394.394.0 0 0-.363.165.951.951.0 0 0-.116.35h-.34z" transform="translate(-253.043 -220.422)"/><path d="M357.69 227.642h.348a5.527 5.527.0 0 0 .911 1.633 2.834 2.834.0 0 0 2.248 1.062 1.852 1.852.0 0 0 1.256-.459 1.6 1.6.0 0 0 .532-1.286 1.783 1.783.0 0 0-.533-1.292 9.778 9.778.0 0 0-1.472-1.048l-1.3-.808a4.542 4.542.0 0 1-.935-.752 2.324 2.324.0 0 1-.646-1.586 2.6 2.6.0 0 1 .766-1.917 2.739 2.739.0 0 1 2.026-.767 3.857 3.857.0 0 1 1.252.258 5.193 5.193.0 0 0 .833.256.482.482.0 0 0 .395-.136.872.872.0 0 0 .162-.378h.317l.334 3.236h-.363a3.416 3.416.0 0 0-1.194-2.038 2.81 2.81.0 0 0-1.622-.582 1.707 1.707.0 0 0-1.087.367 1.23 1.23.0 0 0-.464 1.022 1.5 1.5.0 0 0 .356 1 4.649 4.649.0 0 0 1.1.883l1.337.824a7.031 7.031.0 0 1 1.77 1.42 2.457 2.457.0 0 1 .5 1.545 2.555 2.555.0 0 1-.9 2 3.328 3.328.0 0 1-2.3.8 4.481 4.481.0 0 1-1.478-.267 5.462 5.462.0 0 0-.881-.269.381.381.0 0 0-.36.168 1.122 1.122.0 0 0-.121.347h-.334z" transform="translate(-249.279 -220.422)"/></g></g></svg>