<?xml version="1.0" encoding="UTF-8" standalone="no"?>
<svg
   id="svg"
   version="1.1"
   width="400"
   height="121.73913043478261"
   viewBox="0, 0, 400,121.73913043478261"
   sodipodi:docname="ThermoPro-svg-logo.svg"
   inkscape:version="1.1 (c68e22c387, 2021-05-23)"
   xmlns:inkscape="http://www.inkscape.org/namespaces/inkscape"
   xmlns:sodipodi="http://sodipodi.sourceforge.net/DTD/sodipodi-0.dtd"
   xmlns="http://www.w3.org/2000/svg"
   xmlns:svg="http://www.w3.org/2000/svg"
   xmlns:rdf="http://www.w3.org/1999/02/22-rdf-syntax-ns#"
   xmlns:cc="http://creativecommons.org/ns#"
   xmlns:dc="http://purl.org/dc/elements/1.1/">
  <title
     id="title5705">ThermoPro</title>
  <defs
     id="defs11" />
  <sodipodi:namedview
     id="namedview9"
     pagecolor="#ffffff"
     bordercolor="#666666"
     borderopacity="1.0"
     inkscape:pageshadow="2"
     inkscape:pageopacity="0.0"
     inkscape:pagecheckerboard="0"
     showgrid="false"
     inkscape:zoom="4.5025"
     inkscape:cx="81.510272"
     inkscape:cy="-1.9988895"
     inkscape:window-width="3840"
     inkscape:window-height="2120"
     inkscape:window-x="-12"
     inkscape:window-y="-12"
     inkscape:window-maximized="1"
     inkscape:current-layer="svg" />
  <g
     id="g_thermopro_logo_txt"
     inkscape:label="ThermOPro"
     transform="translate(35.481845,145.34408)">
    <desc
       id="desc5499">Therm🔥Pro</desc>
    <title
       id="title5497">ThermOPro</title>
    <g
       id="g_thermopro_txt_front_part_black"
       inkscape:label="Therm">
      <desc
         id="desc5254">Therm</desc>
      <title
         id="title5252">Therm</title>
      <path
         d="m -20.966351,-74.463739 c 1.0375,-1.26448 1.596672,-3.14459 1.675687,-5.63731 v -26.165101 h -7.087801 c -1.372638,0 -2.430326,0.0718 -3.174893,0.2206 -0.6471,0.10919 -1.372637,0.41937 -2.175987,0.91985 l 1.205648,-7.42 H 7.2048062 l 1.20449,7.42 c -0.80339,-0.50035 -1.52773,-0.81053 -2.17425,-0.91985 -0.7463,-0.1484 -1.80404,-0.2206 -3.17725,-0.2206 h -7.08602 v 26.165101 c 0.078,2.49272 0.63698,4.37283 1.67626,5.63731 z"
         style="fill:#000000;fill-opacity:1;fill-rule:nonzero;stroke:none;stroke-width:5.94214"
         id="path_thermopro_txt_01_T"
         inkscape:label="T">
        <desc
           id="desc5201">T</desc>
        <title
           id="title5199">T</title>
      </path>
      <path
         d="m 25.906546,-112.54584 v 11.60566 c 0.70593,-1.154 1.91042,-1.72146 3.6182,-1.70484 h 11.46776 c 1.99892,0 3.57719,0.19921 4.73292,0.58948 3.33355,1.28172 4.98905,3.923021 4.9706,7.923281 v 12.58072 c 0.0178,2.28771 0.0976,3.81365 0.23397,4.57663 0.0994,0.77964 0.42249,1.61686 0.97212,2.51117 h -16.9387 c 0.54785,-0.89431 0.87292,-1.73153 0.97034,-2.51117 0.13682,-0.78316 0.2157,-2.30733 0.23575,-4.57663 v -12.41377 c 0.15688,-2.17777 -0.95193,-3.29313 -3.32347,-3.34661 h -3.96996 c -1.13848,0 -1.94067,0.28567 -2.41192,0.864 -0.37257,0.48132 -0.55796,1.22762 -0.55796,2.23009 v 12.66629 c 0.0178,2.32457 0.098,3.84873 0.23397,4.57663 0.0998,0.76297 0.42115,1.60023 0.97212,2.51117 h -16.93813 c 0.54728,-0.89431 0.87234,-1.73153 0.97039,-2.51117 0.13593,-0.76298 0.21525,-2.28892 0.23397,-4.57663 v -23.908281 c -0.0178,-2.28713 -0.098,-3.81308 -0.23397,-4.57485 -0.0981,-0.78138 -0.42293,-1.61864 -0.97039,-2.51117 z"
         style="fill:#000000;fill-opacity:1;fill-rule:nonzero;stroke:none;stroke-width:5.94214"
         id="path_thermopro_txt_02_h"
         inkscape:label="h">
        <desc
           id="desc5205">h</desc>
        <title
           id="title5203">h</title>
      </path>
      <path
         d="m 95.187318,-85.819779 h -24.49414 v 2.31624 c 0,1.11473 0.10741,1.86821 0.32311,2.26039 0.35251,0.74457 1.0375,1.19914 2.05837,1.36787 0.27453,0.0535 0.97034,0.0824 2.08868,0.0824 h 13.17376 c 2.94074,-0.0535 5.05616,-0.48372 6.34979,-1.28529 l -1.05774,6.6142 h -26.43486 c -2.27524,0 -4.00026,-0.14127 -5.176182,-0.41892 -1.17717,-0.27988 -2.20456,-0.80041 -3.08875,-1.56338 -1.76362,-1.52416 -2.68524,-4.03591 -2.7643,-7.5311 v -9.12416 c -0.0771,-6.58274 3.31336,-9.762351 10.175342,-9.543711 h 18.26206 c 2.60623,0 4.55644,0.20723 5.8518,0.618 0.99891,0.35073 1.89674,0.9567 2.69001,1.81116 0.79328,0.856881 1.31738,1.796911 1.57292,2.816011 0.31375,1.15573 0.47,2.55867 0.47,4.21417 z m -14.3491,-5.32775 v 0 -3.03999 c 0,-1.21104 -0.1484,-2.03641 -0.44165,-2.48443 -0.25447,-0.3543 -0.59955,-0.55797 -1.02917,-0.61501 -0.17648,-0.0178 -0.57936,-0.0223 -1.20564,-0.0223 h -4.70441 c -0.88303,0 -1.43209,0.0357 -1.64779,0.11097 -0.49022,0.16623 -0.81346,0.56746 -0.97034,1.19914 -0.0994,0.40956 -0.14617,1.03393 -0.14617,1.86937 v 2.98477 h 10.14504 z"
         style="fill:#000000;fill-opacity:1;fill-rule:nonzero;stroke:none;stroke-width:5.94214"
         id="path_thermopro_txt_03_e"
         inkscape:label="e">
        <desc
           id="desc5209">e</desc>
        <title
           id="title5207">e</title>
      </path>
      <path
         d="m 113.80171,-102.64502 0.38193,4.633721 c 0.39085,-1.22766 0.78374,-2.073211 1.17593,-2.536701 1.2146,-1.47011 3.36207,-2.1677 6.44132,-2.09702 h 7.32191 v 9.319681 c -0.62807,-0.55913 -1.28529,-0.94659 -1.97103,-1.17236 -0.95964,-0.29458 -2.33286,-0.44433 -4.11671,-0.44433 h -2.97109 c -1.56632,0 -2.79278,0.39219 -3.67519,1.17241 -0.8218,0.72433 -1.2348,1.73986 -1.2348,3.03999 v 9.20679 c 0.0178,2.27109 0.0994,3.78513 0.23576,4.54811 0.0976,0.77964 0.42115,1.61686 0.97038,2.51116 H 99.421998 c 0.54905,-0.8943 0.870512,-1.73152 0.969762,-2.51116 0.13681,-0.76298 0.2157,-2.27702 0.23575,-4.54811 v -14.0342 c -0.0178,-2.28535 -0.0994,-3.81009 -0.23575,-4.573071 -0.0994,-0.78316 -0.420712,-1.62042 -0.969762,-2.51473 z"
         style="fill:#000000;fill-opacity:1;fill-rule:nonzero;stroke:none;stroke-width:5.94214"
         id="path_thermopro_txt_04_r"
         inkscape:label="r">
        <desc
           id="desc5213">r</desc>
        <title
           id="title5211">r</title>
      </path>
      <path
         d="m 146.82586,-102.64502 0.38104,2.794611 c 0.29458,-1.118301 0.69523,-1.834341 1.20569,-2.149291 0.64888,-0.42962 1.57822,-0.64532 2.79457,-0.64532 h 15.1442 c 1.88185,0.0223 3.19566,0.18718 3.93965,0.50511 0.72433,0.33381 1.2835,1.09869 1.67626,2.289501 0.31509,-1.081491 0.71605,-1.795701 1.20628,-2.149291 0.56924,-0.40956 1.52772,-0.62152 2.88191,-0.64532 h 11.61336 c 1.90209,0 3.41141,0.18718 4.52971,0.55917 1.09632,0.39263 2.05302,1.03273 2.86649,1.92704 0.81525,0.892531 1.33756,1.888411 1.5735,2.986521 0.27453,1.17061 0.42115,2.74055 0.43987,4.71273 v 10.90802 c 0,2.54682 0.0223,4.07276 0.0606,4.57663 0.0976,0.72438 0.42248,1.55981 0.97154,2.51117 h -16.76102 c 0.54727,-0.91094 0.87051,-1.7482 0.96856,-2.51117 0.13592,-0.74452 0.21703,-2.27047 0.23575,-4.57663 v -12.163 c 0,-1.11473 -0.0695,-1.83434 -0.20545,-2.14751 -0.27631,-0.65361 -0.70593,-1.07788 -1.29358,-1.28172 -0.33513,-0.11454 -0.88303,-0.16802 -1.64716,-0.16802 h -3.61641 c -1.21456,0 -2.03993,0.14796 -2.47133,0.44433 -0.51046,0.39084 -0.77487,1.33877 -0.79506,2.8451 v 12.47082 c 0.0178,2.28771 0.0909,3.81365 0.20723,4.57663 0.11766,0.76297 0.44165,1.60023 0.97155,2.51117 h -16.93835 c 0.54611,-0.89431 0.88125,-1.73153 0.99712,-2.51117 0.1386,-0.78316 0.21748,-2.30733 0.23576,-4.57663 v -12.21826 c 0,-1.1724 -0.15643,-2.01974 -0.47004,-2.54027 -0.35163,-0.64831 -1.12664,-0.98344 -2.32279,-1.00185 h -4.43995 c -1.09811,0 -1.85279,0.23041 -2.26396,0.69701 -0.37391,0.42784 -0.55917,1.2532 -0.55917,2.48265 v 12.58072 c 0.0178,2.23365 0.098,3.75661 0.23575,4.57663 0.11632,0.77964 0.44985,1.61686 0.99891,2.51117 h -16.96665 c 0.54906,-0.89431 0.87051,-1.73153 0.96856,-2.51117 0.13771,-0.76298 0.21704,-2.28892 0.23575,-4.57663 v -14.03063 c -0.0178,-2.25207 -0.098,-3.76674 -0.23575,-4.548111 -0.0981,-0.78316 -0.41937,-1.62043 -0.96856,-2.51474 z"
         style="fill:#000000;fill-opacity:1;fill-rule:nonzero;stroke:none;stroke-width:5.94214"
         id="path_thermopro_txt_05_m"
         inkscape:label="m">
        <desc
           id="desc5217">m</desc>
        <title
           id="title5215">m</title>
      </path>
    </g>
    <g
       id="g_thermopro_txt_center_part_flame_red"
       inkscape:label="O">
      <desc
         id="desc5343">O	🔥</desc>
      <title
         id="title5341">O</title>
      <path
         d="m 219.58991,-72.987709 c -4.49583,0.27453 -8.62743,-1.59012 -10.63883,-3.00496 -3.04833,-2.15103 -5.3967,-5.4525 -6.06341,-9.26798 -0.50208,-3.17668 -0.66907,-6.30758 1.68046,-9.71186 -1.29184,4.85593 3.55281,9.76418 7.57504,9.40408 -3.09761,-0.54905 -5.52678,-4.40313 -5.52678,-7.49424 0.004,-5.13224 4.23793,-9.439111 7.92685,-13.341951 3.35374,-3.53735 6.41752,-9.47949 2.98294,-12.71027 h 0.16713 c 2.34654,0.59425 4.7733,3.8654 5.27364,5.86491 0.84556,3.36563 -0.0891,6.30642 -1.34411,8.66607 -1.25975,2.26752 -3.35494,4.17433 -3.94321,6.808501 -0.20501,0.92462 -0.0771,1.96212 0.31508,2.8029 0.57102,1.21933 1.6846,2.02629 3.11664,1.46534 3.14103,-1.22112 1.84562,-5.17262 -0.16534,-7.083041 3.93609,2.001341 7.07773,6.183421 4.7282,11.173051 -0.50747,1.08443 -1.32392,2.06787 -2.47315,2.72326 3.30859,-1.18069 5.44897,-5.17262 5.61953,-8.62382 0.16623,-3.26643 -2.42561,-6.719421 -1.5854,-9.896091 0.50213,-1.81589 1.59547,-3.54034 3.60451,-4.26467 -4.27657,3.49162 1.03456,8.98454 3.63366,12.577151 4.14523,5.7235 2.96097,13.33063 -1.39644,18.22876 -2.52004,2.81301 -7.10144,5.70803 -12.52665,5.68486 z"
         style="fill:#e71420;fill-opacity:1;fill-rule:nonzero;stroke:none;stroke-width:5.94214"
         id="path_thermopro_txt_06_O_Flame"
         inkscape:label="O">
        <desc
           id="desc5221">O	🔥</desc>
        <title
           id="title5219">O</title>
      </path>
    </g>
    <g
       id="g_thermopro_txt_back_part_red"
       inkscape:label="Pro">
      <desc
         id="desc5358">Pro</desc>
      <title
         id="title5356">Pro</title>
      <path
         d="m 256.86682,-88.193109 v 8.00587 c 0.0798,2.49334 0.64532,4.37938 1.70123,5.66289 h -18.42842 c 1.0375,-1.32036 1.59489,-3.20698 1.67212,-5.66289 v -26.778291 c -0.0771,-2.43572 -0.63462,-4.31343 -1.67212,-5.63615 h 32.7781 c 2.58189,0 4.55764,0.2157 5.9273,0.64175 3.05189,1.07971 4.61705,3.49698 4.69611,7.25301 v 8.647621 c -0.0593,2.65971 -0.89966,4.65921 -2.52485,5.99861 -1.05649,0.87407 -2.4933,1.43975 -4.31401,1.70122 -0.72076,0.11097 -1.98408,0.16623 -3.78455,0.16623 z m 0,-6.27607 v 0 h 7.68793 c 1.78029,0.0178 2.93424,-0.31686 3.46489,-1.00363 0.32979,-0.50213 0.49678,-1.64538 0.49678,-3.43101 v -2.984731 c 0,-1.65608 -0.16713,-2.81837 -0.49678,-3.48686 -0.31508,-0.52053 -0.80518,-0.81886 -1.47068,-0.89252 -0.11632,-0.0357 -0.51697,-0.0535 -1.20271,-0.0535 h -8.47943 v 11.854591 z"
         style="fill:#e71420;fill-opacity:1;fill-rule:nonzero;stroke:none;stroke-width:5.94214"
         id="path_thermopro_txt_07_P"
         inkscape:label="P">
        <desc
           id="desc5225">P</desc>
        <title
           id="title5223">P</title>
      </path>
      <path
         d="m 301.35334,-102.69729 0.38282,4.630731 c 0.3904,-1.22824 0.78143,-2.073841 1.17062,-2.540271 1.21456,-1.46712 3.35673,-2.16591 6.42943,-2.09046 h 7.30466 v 9.316681 c -0.62629,-0.55796 -1.27994,-0.94836 -1.96385,-1.17235 -0.95969,-0.29637 -2.33113,-0.44687 -4.11141,-0.44687 h -2.96276 c -1.56516,0 -2.78806,0.39085 -3.66868,1.1724 -0.8206,0.72612 -1.23119,1.73866 -1.23119,3.04057 v 9.20501 c 0.0178,2.26931 0.0976,3.78514 0.23576,4.54811 0.0958,0.77964 0.41892,1.61686 0.96855,2.50939 h -16.90483 c 0.54905,-0.89253 0.87234,-1.72975 0.9686,-2.50939 0.13771,-0.76297 0.2157,-2.2788 0.23397,-4.54811 v -14.03063 c -0.0178,-2.28771 -0.0963,-3.81188 -0.23397,-4.574851 -0.0963,-0.78138 -0.41937,-1.61864 -0.9686,-2.50996 z"
         style="fill:#e71420;fill-opacity:1;fill-rule:nonzero;stroke:none;stroke-width:5.94214"
         id="path_thermopro_txt_08_r"
         inkscape:label="r">
        <desc
           id="desc5229">r</desc>
        <title
           id="title5227">r</title>
      </path>
      <path
         d="m 329.81623,-102.69729 h 19.13492 c 2.72032,0 4.75494,0.19564 6.10084,0.5847 3.38525,1.28351 5.01931,4.054321 4.90286,8.312481 v 11.24315 c 0.0593,5.65277 -3.26937,8.32911 -9.97627,8.03261 h -18.84021 c -2.97465,0 -5.02764,-0.14796 -6.16318,-0.44624 -0.85866,-0.22239 -1.68282,-0.65009 -2.46425,-1.28351 -0.78494,-0.63168 -1.38926,-1.35601 -1.82066,-2.17425 -0.60489,-1.1724 -0.90794,-2.65971 -0.90794,-4.46374 v -11.99485 c -0.0178,-2.84626 1.16407,-5.03121 3.54925,-6.555371 1.15515,-0.70771 2.4945,-1.11652 4.02222,-1.22767 0.42784,-0.0178 1.25142,-0.0312 2.46242,-0.0312 z m 4.46018,8.479461 v 0 11.04586 c 0,1.28351 0.28299,2.17661 0.85273,2.67811 0.52882,0.40957 1.40945,0.62335 2.64068,0.64176 h 4.314 c 1.34888,-0.0178 2.26873,-0.32489 2.75896,-0.92101 0.41134,-0.55739 0.61501,-1.41306 0.61501,-2.56523 v -10.48909 c -0.0178,-1.24607 -0.24422,-2.10174 -0.67384,-2.56701 -0.62513,-0.63168 -1.73157,-0.9567 -3.31871,-0.97689 h -3.69542 c -2.36615,0 -3.532,1.05114 -3.49341,3.1535"
         style="fill:#e71420;fill-opacity:1;fill-rule:nonzero;stroke:none;stroke-width:5.94214"
         id="path_thermopro_txt_09_o"
         inkscape:label="o">
        <desc
           id="desc5233">o</desc>
        <title
           id="title5231">o</title>
      </path>
    </g>
  </g>
  <metadata
     id="metadata5703">
    <rdf:RDF>
      <cc:Work
         rdf:about="">
        <dc:title>ThermoPro</dc:title>
        <!-- below: file created date / this .svg version -->
        <dc:date>2022-10-02</dc:date>
        <!-- below: file created date / Aaronliut's original .svg version -->
        <dc:date>2022-09-11</dc:date>
        <dc:creator>
          <cc:Agent>
            <dc:title>gesamtszenario</dc:title>
          </cc:Agent>
        </dc:creator>
        <dc:rights>
          <cc:Agent>
            <dc:title>PD</dc:title>
          </cc:Agent>
        </dc:rights>
        <dc:publisher>
          <cc:Agent>
            <dc:title>gesamtszenario</dc:title>
          </cc:Agent>
        </dc:publisher>
        <dc:identifier>ThermoPro-svg-logo.svg</dc:identifier>
        <!-- below: source of .pdf the vector outline was extracted from -->
        <dc:source>https://buythermopro.com/wp-content/uploads/2020/03/Thermopro-EN-TP-90%E8%AF%B4%E6%98%8E%E4%B9%A620191127.pdf</dc:source>
        <!-- below: source of .png the color information was extracted from -->
        <dc:source>https://buythermopro.com/wp-content/uploads/2018/03/thermopro-logo_large.png</dc:source>
        <!-- below: source of original logo -->
        <dc:source>https://buythermopro.com/</dc:source>
        <!-- below: source of original Wiki project .svg -->
        <dc:source>https://commons.wikimedia.org/wiki/File:ThermoPro-svg-logo.svg</dc:source>
        <!-- below: source of this .svg file -->
        <dc:source>own work, based on File:ThermoPro-svg-logo.svg by User:Aaronliut</dc:source>
        <dc:relation>https://commons.wikimedia.org/wiki/File:ThermoPro-svg-logo.svg</dc:relation>
        <dc:language>en</dc:language>
        <dc:subject>
          <rdf:Bag>
            <rdf:li>ThermoPro</rdf:li>
            <rdf:li>ThermoPro</rdf:li>
            <rdf:li>Thermopro</rdf:li>
            <rdf:li>Logo</rdf:li>
            <rdf:li>Tex Logo</rdf:li>
            <rdf:li>Flame</rdf:li>
            <rdf:li>🔥</rdf:li>
            <rdf:li>thermometer</rdf:li>
            <rdf:li>meath thermometer</rdf:li>
          </rdf:Bag>
        </dc:subject>
        <dc:description>text logo of ThermoPro, a manufacturer and seller of meat thermometers</dc:description>
        <dc:contributor>
          <cc:Agent>
            <!-- below: original .svg creator -->
            <dc:title>Aaronliut</dc:title>
            <!-- below: original logo creator -->
            <dc:title>ThermoPro</dc:title>
            <!-- below: creator of this file -->
            <dc:title>gesamtszenario</dc:title>
          </cc:Agent>
        </dc:contributor>
      </cc:Work>
    </rdf:RDF>
  </metadata>
</svg>
