<svg width="500" height="294" viewBox="0 0 500 294" fill="none" xmlns="http://www.w3.org/2000/svg">
<g clip-path="url(#clip0_2_1735)">
<path d="M197.993 61.062H128.977L128.488 293.563H68.649V61.5515L0 61.062V0.856445H197.993V61.062Z" fill="#9C1C26"/>
<path d="M370.044 51.3951L405.042 1.34619H469.408L405.042 106.216L471.733 210.475H406.265L369.799 157.734L279.002 293.074H214.146L335.781 106.461L268.723 1.34619H335.169L370.044 51.3951Z" fill="#9C1C26"/>
<path d="M262.849 180.739C258.199 222.589 230.543 261.013 192.854 279.491C175.6 287.69 156.632 293.074 135.585 292.829V234.581C167.156 233.603 192.731 213.289 202.276 185.879C203.867 183.309 204.112 179.148 204.846 176.089L205.335 0H263.094L262.849 180.739Z" fill="#9C1C26"/>
<path d="M500 19.2121C500 10.2792 492.658 2.93701 483.725 2.93701C474.67 2.93701 467.327 10.2792 467.45 19.2121C467.45 28.2674 474.792 35.4872 483.725 35.4872C492.658 35.4872 500 28.2674 500 19.2121ZM498.164 19.2121C498.164 27.1661 491.679 33.6516 483.725 33.6516C475.771 33.6516 469.285 27.1661 469.285 19.2121C469.285 11.2581 475.771 4.77255 483.602 4.77255C491.679 4.77255 498.164 11.2581 498.164 19.2121ZM477.606 27.7779H479.931V20.0687H485.805C489.599 20.0687 488.497 23.3726 488.864 25.4529L489.231 27.7779H491.924C490.945 26.1871 491.312 25.82 491.067 23.495C490.822 20.4358 490.7 20.0687 488.864 18.9674C490.578 17.6213 491.312 16.7647 491.189 14.4397C490.945 10.4015 488.253 9.78968 485.438 9.78968H477.606V27.7779ZM485.683 11.87C487.151 11.87 489.354 12.2371 488.987 15.2963C488.742 17.6213 487.274 17.9884 485.683 17.9884H479.931V11.7476L485.683 11.87Z" fill="#9C1C26"/>
</g>
<defs>
<clipPath id="clip0_2_1735">
<rect width="500" height="293.563" fill="white"/>
</clipPath>
</defs>
</svg>
