<svg enable-background="new 0 0 441.9 148.1" viewBox="0 0 441.9 148.1" xmlns="http://www.w3.org/2000/svg"><path d="m184.1 97.3c-.8 5.5-3 9.5-5 12.8l50.1-4.4 1.9-12.5s-4.2 3.4-9.9 3.9c-4 .4-11.6 1-15.6 1.4l.5-3.1 2.8-18.7 6.2-.5c4.6-.4 7.9.9 8.9 2.3l1.9-12.5-15.6 1.4 2.8-18.8 9.4-.8c4.6-.4 7.9.9 8.9 2.3l1.9-12.5-43.8 3.8c1.2 3 2.1 6.3 1.2 12.2zm82.4-75.1-9.5 62.5c-1.5 9.9-4.5 16.2-9.1 19.3l37.5-3.3c-3.5-3.5-4.9-8.5-3.4-18.2l9.5-62.5s3.1-.3 9.4-.9c6.3-.5 11.4.1 14.7 4.9l3.4-21.8s-73.9 6.5-75.1 6.6l-3.3 21.9c6.5-5.8 12.5-7.3 16.6-7.6 4.1-.4 9.3-.9 9.3-.9zm130.5 64.5h1l1.1 1.8h1l-1.2-2c.3-.1.5-.3.7-.5s.3-.5.3-.9c0-.5-.2-.9-.5-1.2s-.8-.4-1.4-.4h-1.8v5h.9v-1.8zm0-2.5h.8c.4 0 .7.1.9.2s.3.4.3.7-.1.5-.3.6c-.2.2-.5.2-.9.2h-.8zm-106-18.9c-3.1 22.2 10.3 35.5 30.3 33.7 21.4-2 38-15 41.7-40.2 3-20.2-11.4-33.3-31.1-31.5-19.7 1.9-37.6 13.9-40.9 38zm39.3-27c19.5-1.9 12.4 47.9-7.5 49.8-17.9 1.7-14-47.8 7.5-49.8zm-264 1.5s3.1-.3 9.4-.9c6.3-.5 11.4.1 14.7 4.9l3.3-21.8s-73.9 6.5-75.1 6.6l-3.3 21.9c6.5-5.8 12.5-7.3 16.6-7.6 4.1-.4 9.4-.8 9.4-.8l-9.5 62.5c-1.5 9.9-4.5 16.2-9.1 19.3l37.5-3.3c-3.5-3.5-4.9-8.5-3.4-18.2zm73.8 87.2c7.4-1 13.3-3.7 15.7-5.6 0 0-12.5 1-22.3-7.3l42.4-3.7 1.9-12.5s-4.2 3.4-9.9 3.9c-4.7.4-12.9 1.1-15.6 1.4l.5-3.1 2.8-18.7 6.2-.5c4.6-.4 7.9.9 8.9 2.3l1.9-12.5-15.6 1.4 2.8-18.8 9.4-.8c4.6-.4 7.9.9 8.9 2.3l1.9-12.5-43.6 3.7c1.2 3 2.1 6.3 1.2 12.2l-6.6 43.7c-.4 2.7-1.1 5-2 7.1-.5-.7-.9-1.4-1.4-2.2-7.4-12.6-7.7-13.1-13.1-24 20.8-9.1 20.7-36.8-3.1-34.7-23.1 2-32.5 2.8-32.5 2.8l-1.9.2c1.2 3 2.1 6.3 1.2 12.2l-6.6 43.7c-.8 5.5-3 9.5-5 12.8l28.1-2.5c-1.3-3-2-6.7-1.2-12.2.8-5.2 2.4-15.6 2.4-15.6 4.1 8.9 7.1 14.9 10.7 22.4 4.2 8.8 10.5 13.1 17 14.7 3.7 1.1 10.5 1.2 16.5.4zm-42.9-46.8 3.3-21.9 3.1-.3c13.9-1.1 6.1 21.1-6.4 22.2zm308.2-57.9c-23.1 2-32.5 2.8-32.5 2.8l-1.9.2c1.2 3 2.1 6.3 1.2 12.2l-6.6 43.7c-.8 5.5-3 9.5-5 12.8l28.1-2.5c-1.3-3-2-6.7-1.2-12.2.5-3.3 1.9-12.5 2.8-18.8.9 0 10.5-.1 18.2-3.6 20.8-9 20.7-36.6-3.1-34.6zm-14.1 32.1 3.3-21.9 3.1-.3c13.9-1.1 6 21.1-6.4 22.2zm4.8 35.9c.6.3 1.2.4 1.9.4s1.3-.1 1.9-.4c.6-.2 1.1-.6 1.5-1s.8-.9 1-1.5c.3-.6.4-1.2.4-1.8 0-.7-.1-1.3-.4-1.9-.2-.6-.6-1.1-1-1.5s-.9-.8-1.5-1c-.6-.3-1.2-.4-1.9-.4s-1.3.1-1.9.4c-.6.2-1.1.6-1.5 1s-.8.9-1 1.5-.4 1.2-.4 1.8.1 1.3.4 1.8c.3.6.6 1.1 1 1.5.4.5.9.9 1.5 1.1zm-2.3-4.3c0-.6.1-1.1.3-1.6s.5-.9.9-1.3.8-.7 1.3-.9 1-.3 1.6-.3 1.1.1 1.6.3.9.5 1.3.9.7.8.9 1.3.3 1 .3 1.6-.1 1.1-.3 1.6-.5.9-.9 1.3-.8.7-1.3.9-1 .3-1.6.3-1.1-.1-1.6-.3-.9-.5-1.3-.9-.7-.8-.9-1.3c-.1-.6-.3-1.1-.3-1.6z" fill="#4d9d45"/><g fill="#fff"><path d="m182.2 132.7 2-.2z"/><path d="m180.7 128.2c.9-.8 2-1.2 3.3-1.4.9-.1 1.7 0 2.3.1-.6-.1-1.4-.2-2.3-.1-1.3.1-2.4.6-3.3 1.4-1.1 1-1.9 2.7-1.9 4.5 0 1.7.8 2.7 2 3-1.3-.3-2-1.3-2-3 0-1.9.8-3.5 1.9-4.5zm6.2-1.1.8-2.5c-.1-.1-.3-.1-.5-.2.2 0 .4.1.5.2zm-5 11c-.9.1-1.7 0-2.5-.1.8.2 1.6.2 2.5.1 1.7-.1 3.3-.7 4.3-1.1l1.2-7.1-1.2 7.1c-1 .4-2.6 1-4.3 1.1zm13.8-8.4c-.1 0-.3 0-.5 0-1.8.2-2.6 1.9-2.9 3.8l-.6 3.7-2.8.2 2.8-.2.6-3.7c.3-1.9 1.1-3.6 2.9-3.8h.5l.5-2.8zm-3.1-.3c.1-.7.1-1.3.1-2 0 .6 0 1.3-.1 2zm11.1-3c1.8.4 2.8 1.8 2.8 3.6.1 3.5-2.3 6.3-5.6 6.6-.6.1-1.2 0-1.7-.1.5.1 1.1.2 1.7.1 3.3-.3 5.7-3.1 5.6-6.6 0-1.9-1-3.3-2.8-3.6z"/><path d="m217.8 134.8-2.6.3 2.6-.3 4.6-10z"/><path d="m216.9 132.4c0-1.1 0-2-.1-3.1l-.3-4 .3 4c.1 1.2.1 2.1.1 3.1zm-2.2-3.7c-.5 1.4-.7 2.1-1.1 3.1l-1.6 3.6-2.7.2 2.7-.2 1.6-3.6c.4-1 .6-1.7 1.1-3.1zm-3.5 4.2c0-1.1.1-2 .1-3.1l-.1-4.1.1 4.1c0 1.1-.1 2.1-.1 3.1zm18.2-8.8c1.2.3 2 1.2 2 2.5 0 2.5-2.3 3.5-6.2 3.8 0 .3.1.7.3 1 .2.2.5.4.8.5-.3-.1-.6-.3-.8-.5-.2-.3-.3-.7-.3-1 3.9-.2 6.2-1.3 6.2-3.8 0-1.3-.8-2.2-2-2.5zm-2.7 10.2c-.7.1-1.3 0-1.8-.1.5.1 1.1.1 1.8.1 1.1-.1 2.5-.4 3.6-1.1l-.2-2 .2 2c-1.1.7-2.5 1-3.6 1.1zm12.7-8.5c-.1 0-.3 0-.5 0-1.8.2-2.6 1.9-2.9 3.8l-.6 3.7-2.8.2 2.8-.2.6-3.7c.3-1.9 1.1-3.6 2.9-3.8.2.1.4 0 .5 0l.5-2.8zm-3.1-.3c.1-.7.1-1.3.1-2 0 .7 0 1.3-.1 2zm18.6-7.2c2.3.5 3.6 2.4 3.6 5 0 2.4-.8 4.9-2.3 6.5-1.2 1.3-2.9 2.2-4.9 2.3-.6.1-1.2 0-1.8-.1.5.1 1.1.1 1.8.1 2-.2 3.6-1 4.9-2.3 1.5-1.6 2.3-4.1 2.3-6.5 0-2.6-1.3-4.5-3.6-5z"/><path d="m269.9 130.3-2.7.2 2.7-.2 4.5-10.1z"/><path d="m263.2 128.4c0-1.1.1-2 .1-3.1l-.1-4.1.1 4.1c0 1.1 0 2-.1 3.1zm3.5-4.3c-.5 1.4-.7 2.1-1.1 3.1l-1.6 3.6-2.7.2 2.7-.2 1.6-3.6c.4-1 .6-1.7 1.1-3.1zm2.2 3.8c0-1.1 0-2-.1-3.1l-.3-4 .3 4c.1 1.1.1 2 .1 3.1z"/><path d="m278.4 121.5.2-1.7z"/><path d="m280.4 121.8c-.9.1-2 1.3-2.3 3.5l-.7 4.4-2.8.2 2.8-.2.7-4.4c.3-2.2 1.4-3.5 2.3-3.5h.5c-.2 0-.3-.1-.5 0zm2.4-2.4c.9.3 1.4 1.1 1.5 2.3 0 .4-.1 1.2-.1 1.6l-1 5.7-2.8.2 2.8-.2 1-5.7c.1-.5.1-1.2.1-1.6 0-1.2-.5-2-1.5-2.3zm10.2-.8c1.2.3 2 1.2 2 2.5 0 2.5-2.3 3.5-6.2 3.8 0 .3.1.7.3 1 .2.2.5.4.8.5-.3-.1-.6-.3-.8-.5-.2-.3-.3-.7-.3-1 3.9-.2 6.2-1.3 6.2-3.8 0-1.4-.8-2.2-2-2.5zm-2.6 10.1c-.7.1-1.3 0-1.8-.1.5.1 1.1.2 1.8.1 1.1-.1 2.5-.4 3.6-1.1l-.2-2 .2 2c-1.2.7-2.6 1-3.6 1.1zm15-5.3c-.2 1.2-.4 2.6-.4 3.8l-2.6.2 2.6-.2c.1-1.1.2-2.5.4-3.8l1.8-10.4zm-2.9 2.5c-.8 1.4-2 2-3.1 2.1-.2 0-.4 0-.6 0h.6c1.1-.2 2.3-.8 3.1-2.1zm10.8-2.5c.4.2.9.4 1.4.5-.6-.1-1-.3-1.4-.5zm8-8.1.9-2.4c-.2-.1-.5-.2-.8-.3.3.1.6.2.8.3zm-2.5-.4c.7-.1 1.3 0 1.8.1-.5-.1-1.1-.2-1.8-.1-1.3.1-2 .8-2 1.6s.8 1.2 2 1.7c1.6.7 2.7 1.7 2.7 3.3 0 3-2.4 4.7-5.3 5-1.2.1-2.1 0-2.8-.2.7.2 1.7.3 2.8.2 2.9-.3 5.4-2 5.3-5 0-1.6-1.1-2.6-2.7-3.3-1.1-.5-1.9-1-2-1.7 0-.8.7-1.5 2-1.6zm8.4-3.4c.5.2.9.6.9 1.2 0 1-.7 1.7-1.6 1.7-.2 0-.4 0-.5-.1.2.1.3.1.5.1.9-.1 1.7-.7 1.6-1.7 0-.6-.4-1.1-.9-1.2z"/><path d="m325.8 125.4-2.8.2 2.8-.2 1.7-9.8z"/><path d="m334.6 117c-.9.1-2 1.3-2.3 3.5l-.7 4.4-2.8.2 2.8-.2.7-4.4c.3-2.1 1.4-3.4 2.3-3.5h.5c-.2 0-.3 0-.5 0zm2.4-2.3c.9.3 1.4 1.1 1.5 2.3 0 .4-.1 1.2-.1 1.6l-1 5.7-2.8.2 2.8-.2 1-5.7c.1-.5.1-1.2.1-1.6 0-1.2-.6-2.1-1.5-2.3z"/><path d="m332.6 116.7.2-1.6z"/><path d="m344.4 123.9c-.6.1-1.1 0-1.6-.1.5.2 1 .2 1.6.1 1.1-.1 2.1-.4 2.7-.8l-.1-2.2.1 2.1c-.6.5-1.6.8-2.7.9zm2.1-8c-2 .2-3.2 2-3.2 3.8 0 1 .5 1.6 1.2 1.8-.7-.2-1.2-.8-1.2-1.8-.1-1.7 1.2-3.6 3.2-3.8.4 0 .8 0 1 .1-.3-.1-.6-.1-1-.1z"/><path d="m347.8 116.1.6-2.3z"/><path d="m356.1 113c1.2.3 2 1.2 2 2.5 0 2.5-2.3 3.5-6.2 3.8 0 .3.1.7.3 1 .2.2.5.4.8.5-.3-.1-.6-.3-.8-.5-.2-.3-.3-.7-.3-1 3.9-.2 6.2-1.3 6.2-3.8 0-1.3-.8-2.2-2-2.5zm-2.7 10.2c-.7.1-1.3 0-1.8-.1.5.1 1.1.1 1.8.1 1.1-.1 2.5-.4 3.6-1.1l-.2-2 .2 2c-1.1.7-2.5 1-3.6 1.1z"/><path d="m367.7 111.5-2.5 1.3z"/><path d="m368.7 121.6-2.7.3 2.7-.3 2.2-13z"/><path d="m376.1 116.5c-.5 0-1 0-1.4-.1.4.1.9.2 1.4.1.9-.1 1.8-.5 2.4-1.1-.6.7-1.5 1-2.4 1.1zm3.1-8.7c1.8.4 2.7 2 2.8 4.1 0 3-1.5 5.8-3.1 7.3-1.3 1.2-3.1 1.9-4.8 2.1-.7.1-1.1.1-1.5.1.4 0 .7 0 1.5-.1 1.7-.2 3.5-1 4.8-2.1 1.7-1.5 3.2-4.3 3.1-7.3-.1-2.1-1-3.7-2.8-4.1zm11 3.4h.2c-.1 0-.2 0-.2 0zm1.1-2.3c-2.3.4-3.8 1.8-4.5 3.4.7-1.5 2.2-2.9 4.5-3.4.4-.1.8-.1 1.1-.1l.4-2.3-.4 2.3c-.3 0-.7.1-1.1.1zm-.5 2.4c1.2.4 2 1.6 2 3.2 0 2.7-2 5.4-5 5.7-.5 0-1 0-1.5-.1.4.1.9.1 1.5.1 3-.3 5.1-2.9 5-5.7 0-1.6-.8-2.8-2-3.2zm11.1-5.5c1.7.4 2.4 2.1 2.4 4 .1 4-1.8 9-5.8 9.4-.5 0-.9 0-1.3-.1.4.1.8.1 1.3.1 4-.4 5.9-5.4 5.8-9.4-.1-1.8-.7-3.5-2.4-4zm-156 21.2c0-2.4.8-4.9 2.3-6.5 1.2-1.3 2.9-2.2 4.8-2.3.7-.1 1.3 0 1.8.1-.5-.1-1.1-.1-1.8-.1-1.9.2-3.6 1-4.8 2.3-1.5 1.7-2.3 4.1-2.3 6.5 0 2.5 1.3 4.5 3.7 5-2.3-.5-3.6-2.4-3.7-5zm5.5 5.1c2-.2 3.6-1 4.9-2.3 1.5-1.6 2.3-4.1 2.3-6.5 0-2.6-1.3-4.5-3.6-5-.5-.1-1.1-.1-1.8-.1-1.9.2-3.6 1-4.8 2.3-1.5 1.6-2.4 4.1-2.3 6.5 0 2.5 1.3 4.5 3.7 5 .4.1.9.2 1.6.1zm-2.5-5.4c0-1.6.5-3.7 1.6-4.9.6-.7 1.4-1.1 2.3-1.2 2.1-.2 2.7 1.4 2.7 3 0 1.5-.5 3.8-1.5 4.9-.6.7-1.4 1.1-2.2 1.2-2 .2-2.8-1.1-2.9-3zm29.5-5.2c.9-1.3 2.1-2 3.3-2.1.4 0 .7 0 1 .1-.3-.1-.7-.1-1.1-.1-1.1.1-2.3.7-3.2 2.1zm3 1.3c0-.5-.1-.9-.5-1 .3.1.4.5.5 1 0 .4 0 .7-.1 1.1l-.9 5.4.9-5.4c0-.3.1-.7.1-1.1zm-5.3-2.7 2.5-.2-2.5.2c-.1.9-.3 1.9-.5 3.2l-1.1 6.6 1.1-6.6c.2-1.3.3-2.4.5-3.2zm8.1 3.3c.1-.5.1-1.2.1-1.6 0-1.3-.5-2.1-1.5-2.3-.3-.1-.7-.1-1-.1-1.3.1-2.4.8-3.3 2.1l.2-1.6-2.5.2c-.1.9-.2 1.9-.5 3.2l-1.1 6.6 2.8-.2.7-4.4c.4-2.2 1.4-3.4 2.3-3.5h.5c.4.1.5.5.5 1 0 .4 0 .7-.1 1.1l-.9 5.4 2.8-.2zm-17.4.7c0 1.1 0 2.1.1 3.1l.3 3.3-.3-3.3c-.1-1-.1-2-.1-3.1z"/><path d="m263.2 121.2-2.9.2 1.1 9.6-1.1-9.6z"/><path d="m263.3 128.4c.3-1.1.7-2.1 1.1-3.1l1.8-4.4 2.3-.2-2.3.2-1.8 4.4c-.4 1-.8 2-1.1 3.1zm5.7-.5c.3-1.1.6-2.1 1-3.3l1.6-4.2 2.8-.2-2.8.2-1.6 4.2c-.4 1.2-.8 2.2-1 3.3zm5.4-7.7-2.8.2-1.6 4.2c-.4 1.2-.7 2.2-1 3.3h-.1c0-1.1 0-2-.1-3.1l-.3-4-2.3.2-1.8 4.4c-.4 1-.8 2-1.1 3.1 0-1.1.1-2 0-3.1l-.1-4.1-2.9.3 1.1 9.6 2.7-.2 1.6-3.6c.4-.9.6-1.7 1.1-3.1 0 1.1 0 2.1.1 3.1l.3 3.3 2.6-.2zm22 4.3c-.1-3.4 2.3-6.7 5.9-7 .4 0 .9 0 1.3.1l.8-4.4 2.8-.2-2.8.2-.8 4.4c-.4-.1-.9-.2-1.3-.1-3.6.3-6 3.7-5.9 7 0 2.1 1.1 3.2 2.4 3.4-1.4-.2-2.4-1.3-2.4-3.4z"/><path d="m302.5 125.9-.1 1.5.2-1.5z"/><path d="m305.4 123.4 1.8-10.4-2.8.2-.8 4.4c-.4-.1-.9-.2-1.3-.1-3.6.3-6 3.6-5.9 7 0 2.1 1.1 3.2 2.4 3.4h.6c1.1-.1 2.3-.7 3.1-2.1l-.1 1.6 2.6-.2c0-1.2.2-2.5.4-3.8zm-2.6-.8c-.3 1.9-1.3 2.8-2.2 2.9-.8.1-1.3-.5-1.3-1.7 0-1.9 1.1-3.9 2.8-4.1.5 0 .9.1 1.1.2zm-16.7 2.4c0-2.9 2-6.2 5.5-6.5.5 0 .9 0 1.3.1-.4-.1-.9-.1-1.3-.1-3.4.3-5.5 3.5-5.5 6.5 0 1.9.8 3.2 2.4 3.6-1.5-.4-2.3-1.7-2.4-3.6zm4.9 1.4c1-.1 1.9-.4 2.7-.8-.8.4-1.6.7-2.7.8-.4 0-.8 0-1.1-.1.3.1.7.2 1.1.1zm-2.2-1.5c3.9-.2 6.2-1.3 6.2-3.8 0-1.3-.8-2.2-2-2.5-.4-.1-.9-.1-1.3-.1-3.5.3-5.5 3.6-5.5 6.5 0 1.9.8 3.2 2.4 3.6.5.1 1.1.2 1.8.1 1.1-.1 2.5-.4 3.6-1.1l-.2-2c-.8.4-1.6.8-2.7.8-.4 0-.8 0-1.1-.1s-.6-.3-.8-.5-.3-.6-.4-.9zm2.5-4.3c.6-.1 1 .2 1.1.7 0 .9-1.1 1.3-3.3 1.5.2-.9.9-2.1 2.2-2.2zm-109 15.1c.7-.1 1.1-.2 1.4-.4l.5-2.9-.5 2.9c-.3.2-.7.3-1.4.4-.5 0-1 0-1.4-.1.4.1.9.1 1.4.1zm-6.6-2.6c0-2.5.9-4.7 2.6-6.3 1.5-1.4 3.5-2.2 5.8-2.4 1.3-.1 2.3 0 3 .1-.7-.1-1.7-.2-3-.1-2.3.2-4.3 1.1-5.8 2.4-1.6 1.6-2.6 3.8-2.6 6.3 0 1.7.7 3.1 1.7 4 .5.4 1.2.8 1.9.9-.7-.2-1.4-.5-1.9-.9-1-.9-1.6-2.3-1.7-4z"/><path d="m187.4 129.9-4.8.4-.4 2.4.4-2.4z"/><path d="m186.9 127.1c-.1-.1-.3-.1-.5-.2.1.1.3.1.5.2zm-8.1 5.5c0-1.8.7-3.5 1.9-4.5.9-.8 2-1.2 3.3-1.4.9-.1 1.7 0 2.3.1.2 0 .4.1.5.2l.8-2.5c-.1-.1-.3-.1-.5-.2-.7-.1-1.7-.2-3-.1-2.3.2-4.3 1.1-5.8 2.4-1.7 1.6-2.6 3.8-2.6 6.3 0 1.7.7 3.1 1.7 4 .5.4 1.2.8 1.9.9.7.2 1.6.2 2.5.1 1.7-.1 3.3-.7 4.3-1.1l1.2-7.1-4.8.4-.4 2.3 2.1-.2-.5 2.9c-.3.2-.8.3-1.4.4-.5 0-1 0-1.4-.1-1.3-.1-2-1.1-2.1-2.8zm11.5-5 2.4-.2-2.4.2c-.1.8-.2 2.5-.4 4l-1 5.8 1-5.8c.2-1.5.3-3.2.4-4zm2.4 1.8c.7-1.3 1.7-2.3 3-2.5h.5c-.2 0-.4 0-.5 0-1.3.1-2.4 1.1-3 2.5zm-.4 4.1c.3-1.9 1.1-3.6 2.9-3.8h.5l.5-2.8c-.2 0-.3 0-.5 0-1.3.1-2.4 1.1-3 2.5h-.1c.1-.7.1-1.3.1-2l-2.4.2c-.1.8-.2 2.5-.4 4l-1 5.8 2.8-.2zm4.4-.6c-.1-3.3 2.2-6.3 5.6-6.6.5 0 .9 0 1.3.1-.4-.1-.9-.1-1.3-.1-3.4.3-5.6 3.3-5.6 6.6 0 1.8 1 3.1 2.5 3.5-1.5-.4-2.4-1.7-2.5-3.5zm4.1 3.7c3.3-.3 5.7-3.1 5.6-6.6 0-1.8-1-3.2-2.8-3.6-.4-.1-.8-.1-1.3-.1-3.4.3-5.7 3.3-5.6 6.6 0 1.8 1 3.1 2.5 3.5.5.2 1 .2 1.6.2zm1.2-8.1c1.1-.1 1.5.8 1.5 1.7 0 1.6-.8 4-2.3 4.1-1 .1-1.6-.6-1.6-1.7 0-1.5.8-4 2.4-4.1zm20.5 2.1c0-2.9 2-6.2 5.5-6.5.5 0 .9 0 1.3.1-.4-.1-.9-.1-1.3-.1-3.5.3-5.5 3.5-5.5 6.5 0 1.9.8 3.2 2.4 3.6-1.5-.5-2.4-1.7-2.4-3.6zm4.9 1.4c1-.1 1.9-.4 2.7-.8-.8.4-1.7.7-2.7.8-.4 0-.8 0-1.1-.1.3.1.7.1 1.1.1zm-2.2-1.5c3.9-.2 6.2-1.3 6.2-3.8 0-1.3-.8-2.2-2-2.5-.4-.1-.9-.1-1.3-.1-3.5.3-5.5 3.6-5.5 6.5 0 1.9.8 3.2 2.4 3.6.5.1 1.1.2 1.8.1 1.1-.1 2.5-.4 3.6-1.1l-.2-2c-.8.4-1.6.8-2.7.8-.4 0-.8 0-1.1-.1s-.6-.3-.8-.5c-.3-.2-.4-.7-.4-.9zm2.5-4.3c.6-.1 1 .2 1.1.7 0 .9-1.1 1.3-3.3 1.5.1-.9.9-2.1 2.2-2.2zm-10.8 6.2c.3-1.1.6-2.1 1-3.3l1.6-4.2 2.8-.2-2.8.2-1.6 4.2c-.3 1.2-.7 2.2-1 3.3zm-2.2-3.8c0 1.1 0 2.1.1 3.1l.3 3.3-.3-3.3c0-1 0-1.9-.1-3.1z"/><path d="m211.2 125.8-2.9.2 1.1 9.6-1.1-9.6z"/><path d="m211.2 132.9c.3-1.1.7-2.1 1.1-3.1l1.8-4.4 2.3-.2-2.3.2-1.8 4.4c-.3 1.1-.7 2.1-1.1 3.1zm11.2-8.1-2.8.2-1.6 4.2c-.4 1.2-.7 2.2-1 3.3h-.1c0-1.1 0-2-.1-3.1l-.3-4-2.3.2-1.8 4.4c-.4 1-.8 2-1.1 3.1 0-1.1.1-2 0-3.1l-.1-4.1-2.9.3 1.1 9.6 2.7-.2 1.6-3.6c.4-.9.6-1.7 1.1-3.1 0 1.1 0 2.1.1 3.1l.3 3.3 2.6-.2zm11.6-1 2.4-.2-2.4.2c-.1.8-.2 2.5-.4 4l-1 5.8 1-5.8c.2-1.6.3-3.2.4-4zm2.4 1.7c.7-1.3 1.7-2.3 3-2.5h.5c-.2 0-.4 0-.5 0-1.3.2-2.3 1.2-3 2.5zm-.4 4.1c.3-1.9 1.1-3.6 2.9-3.8h.5l.5-2.8c-.2 0-.3 0-.5 0-1.3.1-2.4 1.1-3 2.5h-.1c.1-.7.1-1.3.1-2l-2.4.2c-.1.8-.2 2.5-.4 4l-1 5.8 2.8-.2zm85.3-14.3c-.2-.1-.4-.2-.7-.2.3 0 .5.1.7.2zm-4.9 8.7c1.1-.1 2.1-.7 2.1-1.7 0-.8-.6-1.2-1.8-1.7-1.4-.6-2.8-1.6-2.8-3.3 0-2.7 2.2-4.5 5.1-4.8 1-.1 1.8 0 2.3.1-.6-.1-1.3-.2-2.3-.1-2.9.3-5.2 2.1-5.1 4.8 0 1.7 1.4 2.6 2.8 3.3 1.2.5 1.8 1 1.8 1.7 0 1-1 1.6-2.1 1.7-.6.1-1.2 0-1.7-.1.5.1 1.1.1 1.7.1zm-3.1-.6-.9 2.4c.2.2.6.3 1 .4-.4-.1-.8-.3-1-.4zm2.9 3c2.9-.3 5.4-2 5.3-5 0-1.6-1.1-2.6-2.7-3.3-1.1-.5-1.9-1-2-1.7 0-.7.7-1.4 2-1.6.7-.1 1.3 0 1.8.1.3.1.5.2.7.2l.8-2.4c-.2-.1-.5-.2-.8-.3-.6-.1-1.3-.2-2.3-.1-2.9.3-5.2 2.1-5.1 4.8 0 1.7 1.4 2.6 2.8 3.3 1.2.5 1.8 1 1.8 1.7 0 1-1 1.6-2.1 1.7-.6.1-1.2 0-1.7-.1s-1-.3-1.4-.5l-.9 2.4c.2.1.6.3 1 .4.7.4 1.6.5 2.8.4zm67.3-10.4c0-2.9 1.3-5.6 3.1-7.1 1.4-1.3 3.3-2.1 5.2-2.3.5-.1.8-.1 1.1-.1-.3 0-.6 0-1.1.1-1.9.3-3.8 1.1-5.2 2.3-1.8 1.6-3.2 4.2-3.1 7.1 0 2.1 1 3.7 2.9 4.1-2-.4-2.9-2-2.9-4.1zm6-4.8h.7c-.2-.1-.5-.1-.7 0-1 .1-1.9.5-2.6 1.2.7-.7 1.6-1.1 2.6-1.2zm.9 0c.2 0 .3.1.5.1-.2 0-.4-.1-.5-.1zm-2.6 9c3-.3 5.1-2.9 5-5.7 0-1.6-.8-2.8-2-3.2-.1 0-.3-.1-.5-.1-.1 0-.1 0-.2 0-.2 0-.4 0-.7 0-1 .1-1.9.5-2.6 1.2.6-1.6 2.1-3 4.5-3.4.4-.1.7-.1 1.1-.1l.4-2.3c-.3 0-.6 0-1.1.1-1.9.3-3.8 1.1-5.2 2.3-1.7 1.6-3.1 4.2-3.1 7.1 0 2.1 1 3.7 2.9 4.1zm-1.6-4.1c0-.2 0-.4 0-.7 0-.2.1-.5.2-.7.4-.7 1-1.3 1.8-1.3.9-.1 1.6.5 1.6 1.6 0 1.2-.7 2.8-2 2.9-1 .1-1.5-.7-1.6-1.8zm-13.5-2.8c0-2.8 2.2-5.4 5.1-5.6.5 0 1 0 1.4.1-.4-.1-.9-.1-1.4-.1-2.9.3-5.2 2.9-5.1 5.6 0 1.6.8 2.7 2.1 3-1.3-.3-2.1-1.4-2.1-3zm1.3 5.7c.9-.2 1.8-.5 2.5-1 .9-.7 1.6-1.5 2-2.5-.4 1-1.1 1.9-2 2.5-.7.5-1.6.8-2.5 1-.5.1-.9.1-1.2.1l-.3 2.4.3-2.4c.4 0 .7-.1 1.2-.1zm4.8.2c1.7-1.5 3.2-4.3 3.1-7.3 0-2.1-.9-3.7-2.8-4.1-.4-.1-.9-.1-1.4-.1-2.9.3-5.1 2.8-5.1 5.6 0 1.6.8 2.7 2.1 3 .4.1.9.2 1.4.1.9-.1 1.8-.5 2.4-1.1-.4 1-1.1 1.9-2 2.5-.7.5-1.6.9-2.5 1-.5.1-.9.1-1.2.1l-.3 2.4c.4 0 .7 0 1.5-.1 1.7-.1 3.5-.9 4.8-2zm-1.7-4.9c-.9.1-1.5-.5-1.5-1.6 0-1.3.9-2.7 2-2.8s1.6.7 1.6 1.7c0 .3 0 .8-.1 1-.1.3-.1.5-.3.6-.4.6-1 1.1-1.7 1.1z"/><path d="m368.6 108.8 2.3-.2-2.3.2-3.5 1.8.1 2.2-.1-2.2z"/><path d="m367.7 111.5-1.7 10.4z"/><path d="m370.9 108.6-2.3.2-3.5 1.8.1 2.2 2.5-1.3-1.7 10.4 2.7-.3z"/><path d="m327.5 115.6-2.9.2-1.6 9.8 1.7-9.8z"/><path d="m327.5 115.6-2.8.2-1.7 9.8 2.8-.2z"/><path d="m394.7 114.9c-.1-4.1 1.9-8.8 5.9-9.2.5 0 1 0 1.4.1-.4-.1-.8-.1-1.4-.1-4 .4-6 5.2-5.9 9.2 0 2.1.7 3.8 2.4 4.2-1.7-.4-2.4-2.1-2.4-4.2zm3.8 4.3c4-.4 5.9-5.4 5.8-9.4 0-1.9-.7-3.6-2.4-4-.4-.1-.8-.1-1.4-.1-3.9.3-5.9 5.1-5.9 9.2 0 2.1.7 3.8 2.4 4.2.5.1 1 .2 1.5.1zm1.7-11.2c1.1-.1 1.2 1.2 1.3 2.1 0 1.7-.8 6.7-2.7 6.8-1.1.1-1.3-1.2-1.3-2.2-.1-1.8.9-6.5 2.7-6.7zm-75.2 5.2c0-1 .7-1.7 1.6-1.8h.6c-.2-.1-.4-.1-.6 0-.9.1-1.6.8-1.6 1.8 0 .6.3 1.1.8 1.2-.5-.2-.8-.6-.8-1.2zm1.4 1.2c.9-.1 1.7-.7 1.6-1.7 0-.6-.3-1.1-.9-1.2-.2 0-.4-.1-.6 0-.9.1-1.6.8-1.6 1.8 0 .6.3 1.1.8 1.2.3-.1.5 0 .7-.1zm3.9.9 2.5-.2-2.5.2c-.1.9-.3 1.9-.5 3.2l-1.1 6.6 1.1-6.6c.2-1.2.3-2.3.5-3.2zm5.3 2.8c0-.5-.1-.9-.5-1 .3.1.4.5.5 1 0 .4 0 .7-.1 1.1l-.9 5.4.9-5.4c0-.4.1-.8.1-1.1zm-3-1.4c.9-1.3 2.1-2 3.3-2.1.4 0 .7 0 1 .1-.3-.1-.7-.1-1.1-.1-1.1.1-2.3.8-3.2 2.1zm5.8 2c.1-.5.1-1.2.1-1.6 0-1.3-.5-2.1-1.5-2.3-.3-.1-.7-.1-1-.1-1.3.1-2.4.8-3.3 2.1l.2-1.6-2.5.2c-.1.9-.2 1.9-.5 3.2l-1.1 6.6 2.8-.2.7-4.4c.4-2.2 1.4-3.4 2.3-3.5h.5c.4.1.5.5.5 1 0 .4 0 .7-.1 1.1l-.9 5.4 2.8-.2zm15.7 2.2c1-.1 1.9-.4 2.7-.8-.8.4-1.7.7-2.7.8-.4 0-.8 0-1.1-.1.3.1.7.1 1.1.1zm-4.9-1.5c0-2.9 2-6.2 5.5-6.5.5 0 .9 0 1.3.1-.4-.1-.9-.1-1.3-.1-3.5.4-5.5 3.6-5.5 6.5 0 1.9.8 3.2 2.4 3.6-1.5-.4-2.4-1.7-2.4-3.6zm2.7-.1c3.9-.2 6.2-1.3 6.2-3.8 0-1.3-.8-2.2-2-2.5-.4-.1-.9-.1-1.3-.1-3.5.3-5.5 3.6-5.5 6.5 0 1.9.8 3.2 2.4 3.6.5.1 1.1.2 1.8.1 1.1-.1 2.5-.4 3.6-1.1l-.2-2c-.8.4-1.6.8-2.7.8-.4 0-.8 0-1.1-.1s-.6-.3-.8-.5c-.3-.2-.4-.6-.4-.9zm2.5-4.2c.6-.1 1 .2 1.1.7 0 .9-1.1 1.3-3.3 1.5.1-1 .9-2.1 2.2-2.2zm-6.6 1c-.1 0-.2-.1-.3-.1.1 0 .2 0 .3.1zm-7.5 4.2c-.1-3.4 2.5-6.4 6.2-6.7.8-.1 1.5 0 2 .1-.4-.1-1.1-.2-2-.1-3.7.4-6.3 3.3-6.2 6.7 0 1.9 1 3.1 2.5 3.5-1.5-.4-2.5-1.6-2.5-3.5zm4.9 1.3c.8-.1 1.4-.3 1.9-.6-.5.3-1.1.5-1.9.6-.3 0-.5 0-.7-.1.2.1.4.1.7.1zm1.3-7.9c-3.7.3-6.2 3.2-6.2 6.7 0 1.9 1 3.1 2.5 3.5.5.1 1 .2 1.6.1 1.1-.1 2.1-.4 2.7-.8l-.1-2.1c-.5.2-1.1.5-1.9.6-.3 0-.5 0-.7-.1-.7-.2-1.2-.8-1.2-1.8 0-1.8 1.2-3.6 3.2-3.8.4 0 .8 0 1 .1.1 0 .2 0 .3.1l.7-2.3c-.4-.2-1.1-.3-1.9-.2z"/></g><path d="m300.6 125.5c.8-.1 1.8-1 2.2-2.9l.5-2.6c-.2-.2-.7-.3-1.1-.2-1.7.1-2.9 2.2-2.8 4.1-.1 1.1.4 1.7 1.2 1.6zm-8.2-4.2c0-.5-.4-.8-1.1-.7-1.3.1-2.1 1.3-2.2 2.2 2.2-.2 3.3-.6 3.3-1.5zm86.6-8.6c.1-.3.1-.7.1-1 0-1-.5-1.8-1.6-1.7s-2 1.5-2 2.8c0 1 .6 1.7 1.5 1.6.8-.1 1.4-.5 1.7-1 .2-.2.3-.4.3-.7zm8.9 5.3c1.4-.1 2.1-1.7 2-2.9 0-1.1-.7-1.7-1.6-1.6-.8.1-1.4.6-1.8 1.3-.1.2-.2.5-.2.7v.7c0 1 .5 1.8 1.6 1.8zm-32.5-2.2c0-.5-.4-.8-1.1-.7-1.3.1-2.1 1.3-2.2 2.2 2.3-.2 3.4-.6 3.3-1.5zm43.4 1.1c1.9-.2 2.8-5.1 2.7-6.8 0-.9-.2-2.2-1.3-2.1-1.9.2-2.8 4.9-2.8 6.8.1.9.2 2.2 1.4 2.1zm-147 12.8c.8-.1 1.6-.5 2.2-1.2 1-1.1 1.6-3.4 1.5-4.9 0-1.7-.6-3.2-2.7-3-.9.1-1.7.5-2.3 1.2-1 1.1-1.6 3.3-1.6 4.9.1 1.9.9 3.2 2.9 3zm-50.6 4.6c1.5-.1 2.4-2.5 2.3-4.1 0-.9-.4-1.8-1.5-1.7-1.6.1-2.4 2.6-2.4 4.1.1 1.1.6 1.8 1.6 1.7zm27.5-7.4c0-.5-.4-.8-1.1-.7-1.3.1-2.1 1.3-2.2 2.2 2.3-.2 3.4-.6 3.3-1.5zm195-29.1-253 22.2c-9.9 9.4-23.4 15.1-38.3 14.9-4.6 0-9-.7-13.3-1.7 9.6 9.2 26.7 13.6 50.4 11.6l241.4-21.2c1.7-11.1 6.3-19.6 12.8-25.8zm-241.4 37.9c.7-.1 1.1-.2 1.4-.4l.5-2.9-2.1.2.4-2.3 4.8-.4-1.2 7.1c-1 .4-2.6 1-4.3 1.1-1.8.2-3.3-.2-4.4-1.1-1.1-.8-1.7-2.3-1.7-4 0-2.5.9-4.7 2.6-6.3 1.5-1.4 3.5-2.2 5.8-2.4 1.7-.2 3 .1 3.5.3l-.8 2.5c-.6-.2-1.6-.4-2.8-.3-1.3.1-2.5.6-3.3 1.4-1.1 1-1.9 2.7-1.9 4.5.1 2.2 1.4 3.2 3.5 3zm13.4-6c-.1 0-.3 0-.5 0-1.8.2-2.6 1.9-2.9 3.8l-.6 3.7-2.8.2 1-5.8c.3-1.5.3-3.1.4-4l2.5-.2c0 .7-.1 1.3-.1 2h.1c.7-1.3 1.7-2.3 3-2.5h.5zm5.1 6.9c-2.4.2-4.1-1.2-4.1-3.7-.1-3.3 2.2-6.3 5.6-6.6 2.6-.2 4.1 1.4 4.1 3.6.1 3.6-2.2 6.4-5.6 6.7zm17-1.8-2.7.2-.3-3.3c-.1-1-.1-1.9-.1-3.1-.5 1.4-.7 2.1-1.1 3.1l-1.6 3.6-2.7.2-1.1-9.6 2.9-.3.1 4.1v3.1c.3-1.1.7-2.1 1.1-3.1l1.8-4.4 2.3-.2.3 4c.1 1.1.1 2.1.1 3.1h.1c.3-1.1.6-2.1 1-3.3l1.6-4.2 2.8-.2zm7.4-4.3c0 .3.1.7.3 1 .4.5 1 .7 1.9.6 1-.1 1.9-.4 2.7-.8l.2 2c-1.1.7-2.5 1-3.6 1.1-2.7.2-4.2-1.2-4.2-3.7 0-2.9 2-6.2 5.5-6.5 1.9-.2 3.4.8 3.4 2.6 0 2.3-2.3 3.4-6.2 3.7zm14.2-4.7c-.1 0-.3 0-.5 0-1.8.2-2.6 1.9-2.9 3.8l-.6 3.7-2.8.2 1-5.8c.3-1.5.3-3.1.4-4l2.5-.2c0 .7-.1 1.3-.1 2h.1c.7-1.3 1.7-2.3 3-2.5h.5zm16.8 4c-1.2 1.3-2.9 2.2-4.9 2.3-3.4.3-5.4-2-5.4-5.1 0-2.4.8-4.9 2.3-6.5 1.2-1.3 2.9-2.2 4.8-2.3 3.5-.3 5.4 1.9 5.4 5.1.1 2.4-.7 4.9-2.2 6.5zm13.7.5-2.7.2-.3-3.3c-.1-1-.1-1.9-.1-3.1-.5 1.4-.7 2.1-1.1 3.1l-1.6 3.6-2.7.2-1.1-9.6 2.9-.3.1 4.1v3.1c.3-1.1.7-2.1 1.1-3.1l1.8-4.4 2.3-.2.3 4c.1 1.1.1 2.1.1 3.1h.1c.3-1.1.6-2.1 1-3.3l1.6-4.2 2.8-.2zm14.3-6.9-1 5.7-2.8.2.9-5.4c.1-.3.1-.7.1-1.1 0-.7-.3-1.1-1-1.1-.9.1-2 1.3-2.3 3.5l-.7 4.4-2.8.2 1.1-6.6c.2-1.2.4-2.3.5-3.2l2.5-.2-.2 1.6c.9-1.3 2.1-2 3.3-2.1 1.6-.1 2.5.8 2.5 2.4 0 .5-.1 1.2-.1 1.7zm4.6 1.5c0 .3.1.7.3 1 .4.5 1 .7 1.9.6 1-.1 1.9-.4 2.7-.8l.2 2c-1.1.7-2.5 1-3.6 1.1-2.7.2-4.2-1.2-4.2-3.7 0-2.9 2-6.2 5.5-6.5 1.9-.2 3.4.8 3.4 2.6.1 2.3-2.3 3.4-6.2 3.7zm16.6-1.5c-.2 1.2-.4 2.6-.4 3.8l-2.6.2.1-1.6c-.8 1.4-2 2-3.1 2.1-1.6.1-3-1-3-3.4-.1-3.4 2.3-6.7 5.9-7 .4 0 .9 0 1.3.1l.8-4.4 2.8-.2zm13.4-5.2c1.6.7 2.7 1.7 2.7 3.3 0 3-2.4 4.7-5.3 5-1.8.1-3.2-.2-3.8-.6l.9-2.4c.8.4 1.9.7 3.1.6 1.1-.1 2.1-.7 2.1-1.7 0-.8-.6-1.2-1.8-1.7-1.4-.6-2.8-1.6-2.8-3.3 0-2.7 2.2-4.5 5.1-4.8 1.6-.1 2.6.1 3.1.4l-.8 2.4c-.4-.2-1.4-.5-2.5-.4-1.3.1-2 .8-2 1.6 0 .6.9 1.1 2 1.6zm7 7.2-2.8.2 1.7-9.8 2.8-.2zm.6-11c-.8.1-1.4-.4-1.4-1.3 0-1 .7-1.7 1.6-1.8.8-.1 1.4.4 1.5 1.3 0 1.1-.8 1.8-1.7 1.8zm12 4.3-1 5.7-2.8.2.9-5.4c.1-.3.1-.7.1-1.1 0-.7-.3-1.1-1-1.1-.9.1-2 1.3-2.3 3.5l-.7 4.4-2.8.2 1.1-6.6c.2-1.2.4-2.3.5-3.2l2.5-.2-.2 1.6c.9-1.3 2.1-2 3.3-2.1 1.6-.1 2.5.8 2.5 2.4 0 .5-.1 1.2-.1 1.7zm9.4-2.6c-.3-.1-.7-.2-1.3-.1-2 .2-3.2 2-3.2 3.8 0 1.3.9 1.9 1.9 1.8.8-.1 1.4-.3 1.9-.6l.1 2.2c-.6.3-1.6.7-2.7.8-2.4.2-4.1-1.1-4.1-3.6-.1-3.4 2.5-6.4 6.2-6.7.8-.1 1.5 0 2 .1zm4.1 3.2c0 .3.1.7.3 1 .4.5 1 .7 1.9.6 1-.1 1.9-.4 2.7-.8l.2 2c-1.1.7-2.5 1-3.6 1.1-2.7.2-4.2-1.2-4.2-3.7 0-2.9 2-6.2 5.5-6.5 1.9-.2 3.4.8 3.4 2.6 0 2.4-2.3 3.5-6.2 3.7zm16.8 2.3-2.7.2 1.7-10.3-2.5 1.3-.1-2.2 3.5-1.9 2.3-.2zm10.1-2.4c-1.3 1.2-3.1 1.9-4.8 2.1-.7.1-1.1.1-1.5.1l.3-2.4c.3 0 .7 0 1.2-.1.9-.2 1.8-.5 2.5-1 .9-.7 1.6-1.5 2-2.5-.6.7-1.6 1.1-2.4 1.1-2 .2-3.4-1.1-3.5-3.2 0-2.8 2.2-5.4 5.1-5.6 2.8-.2 4.2 1.6 4.2 4.1.1 3.1-1.4 5.8-3.1 7.4zm9 1c-2.9.3-4.3-1.6-4.3-4.1 0-2.9 1.3-5.6 3.1-7.1 1.4-1.3 3.3-2.1 5.2-2.3.5-.1.8-.1 1.1-.1l-.4 2.3c-.3 0-.6.1-1.1.1-2.3.4-3.8 1.8-4.5 3.4.7-.7 1.6-1.1 2.6-1.2 1.9-.2 3.3 1.2 3.3 3.3.1 2.7-2 5.4-5 5.7zm10.7-1c-2.7.2-3.7-1.7-3.8-4.3-.1-4.1 1.9-8.8 5.9-9.2 2.7-.2 3.7 1.8 3.7 4.1 0 4-1.8 9.1-5.8 9.4z" fill="#d0202f"/></svg>