<svg xmlns="http://www.w3.org/2000/svg" xml:space="preserve" width="510" height="300.683" viewBox="0 0 510 300.683">
  <g transform="translate(-245,-349.65799)">
    <path d="m 250,500.984 c 0,-90.552 95.145,-146.326 249.344,-146.326 99.737,0 177.165,22.966 217.848,64.961 C 739.501,441.928 750,469.488 750,500.984 750.001,590.222 654.199,645.341 499.344,645.341 400.262,645.34 322.835,622.375 282.152,580.38 260.498,558.07 250,531.168 250,500.984 Z" style="clip-rule:evenodd;fill:#ed171f;fill-rule:evenodd"/>
    <path d="m 499.344,638.122 c 137.796,0 243.438,-45.274 243.438,-137.138 10e-4,-94.489 -105.642,-138.452 -243.438,-138.452 -138.452,0 -242.126,45.932 -242.126,138.452 0,89.894 103.674,137.139 242.126,137.138 z" style="clip-rule:evenodd;fill:#fe9e32;fill-rule:evenodd"/>
    <path d="m 716.536,499.671 c 0,5.907 -1.314,10.5 -7.219,13.124 -1.312,0.655 -2.624,0.656 -3.937,1.313 1.313,1.312 1.969,2.624 3.281,4.593 3.281,7.218 0,16.404 -7.874,19.685 -2.623,1.311 -5.249,1.968 -7.873,1.312 0,-10e-4 0,0.656 0,0.656 3.937,7.874 0.656,17.061 -7.218,20.342 -4.592,1.968 -9.186,1.968 -13.123,0 1.969,6.561 -1.312,14.436 -7.874,17.06 -5.249,2.624 -11.155,1.969 -15.748,-1.312 0.656,6.561 -3.937,12.467 -10.498,15.092 -5.905,1.968 -11.811,0 -15.749,-4.593 -0.655,5.906 -5.249,10.499 -11.155,12.467 -5.905,1.311 -12.467,-1.312 -15.748,-5.905 -1.313,5.905 -5.906,10.499 -11.811,11.811 -6.561,1.313 -12.467,-1.312 -15.748,-6.561 -1.312,5.905 -6.562,10.499 -12.467,11.155 -6.561,0.656 -11.811,-2.624 -15.092,-7.217 -1.968,5.248 -7.218,9.842 -13.124,9.842 -6.561,0.655 -11.811,-3.281 -14.436,-8.53 -2.625,5.905 -7.874,9.842 -13.78,9.842 -6.562,0 -11.811,-3.937 -14.436,-9.842 -2.625,5.248 -7.874,9.186 -14.436,8.53 -5.906,-10e-4 -11.155,-4.593 -13.124,-9.842 -2.625,4.593 -8.53,7.873 -15.092,7.217 -5.906,-0.657 -11.155,-5.249 -12.467,-11.155 -3.281,5.249 -9.186,7.874 -15.092,6.561 -6.562,-1.312 -11.155,-5.905 -12.467,-11.811 -3.281,4.592 -9.186,7.217 -15.749,5.905 -5.905,-1.969 -9.842,-6.561 -11.155,-12.467 -3.281,4.593 -9.842,6.562 -15.748,4.593 -6.562,-2.624 -10.499,-8.53 -10.499,-15.092 -3.936,3.28 -9.842,3.937 -15.092,1.312 -7.217,-2.625 -10.498,-10.498 -8.53,-17.06 -3.937,1.968 -8.53,1.968 -13.124,0 -7.217,-3.282 -10.498,-12.467 -7.217,-20.342 0,-0.001 0,-0.656 0.656,-0.656 -3.281,0.655 -5.905,0 -8.53,-1.312 -7.874,-3.282 -11.155,-12.467 -7.217,-19.685 0.656,-1.969 1.968,-3.281 3.28,-4.593 -1.968,-0.658 -3.28,-0.657 -4.593,-1.313 -5.249,-2.625 -7.217,-7.217 -7.217,-13.123 0,-5.905 1.968,-9.842 7.217,-12.467 1.313,-0.656 2.625,-1.313 4.593,-1.313 -1.312,-1.313 -2.624,-2.624 -3.28,-4.593 -3.937,-7.218 -0.656,-16.404 7.217,-19.685 2.098,-1.049 4.197,-1.677 6.629,-1.552 v -6.155 c -0.036,-0.599 -0.036,-1.198 0,-1.795 v -5.011 c 0,-7.552 -0.656,-15.108 -0.656,-22.685 v -0.147 -0.057 -5.839 c 5.696,0 10.695,0.249 16.425,0.657 9.958,0.019 19.935,0.439 29.911,0.599 1.224,-5.09 4.789,-9.593 10.028,-11.164 5.905,-1.969 12.467,0 15.748,4.593 1.312,-5.907 5.249,-11.155 11.155,-12.467 6.562,-1.312 12.467,0.656 15.749,5.249 1.312,-5.25 5.905,-10.499 12.467,-11.155 5.905,-1.314 11.811,1.312 15.092,5.905 1.312,-5.249 6.561,-9.842 12.467,-10.498 6.561,-0.657 12.467,1.968 15.092,7.217 1.968,-5.249 7.217,-9.842 13.124,-9.842 6.561,-0.657 11.811,2.625 14.436,7.874 2.624,-5.25 7.873,-9.186 14.436,-9.186 5.906,-10e-4 11.155,3.937 13.78,9.186 2.625,-5.25 7.874,-8.53 14.436,-7.874 5.905,0 11.155,4.593 13.124,9.842 3.28,-5.249 8.53,-7.873 15.092,-7.217 5.905,0.655 11.155,5.249 12.467,10.498 3.281,-4.593 9.186,-7.218 15.748,-5.905 5.906,0.656 10.498,5.905 11.811,11.155 3.28,-4.594 9.842,-6.561 15.748,-5.249 5.906,1.312 10.498,6.561 11.155,12.467 3.937,-4.594 9.843,-6.562 15.749,-4.593 6.561,1.968 11.155,8.53 10.498,15.092 4.593,-3.281 10.498,-3.937 15.748,-1.968 6.561,3.28 9.842,11.155 7.874,17.716 3.938,-1.969 8.53,-1.968 13.123,0 7.874,3.281 11.155,12.467 7.218,19.686 0,0.655 0,0.656 0,1.312 2.625,-0.657 5.249,0 7.873,1.312 7.875,3.281 11.155,12.467 7.874,19.685 -1.312,1.969 -1.968,3.281 -3.281,4.593 1.313,0 2.625,0.657 3.937,1.313 5.905,2.623 7.218,6.56 7.218,12.465 z" style="clip-rule:evenodd;fill:#ed171f;fill-rule:evenodd"/>
    <path d="m 457.349,461.614 h -30.84 v 8.53 h 1.312 c 1.97,0 6.562,10e-4 7.874,1.969 0.656,0.657 0.656,1.969 0,3.281 0,-0.657 -3.937,9.842 -3.937,9.842 l -3.28,9.186 c -2.625,5.905 -5.25,11.811 -7.874,17.717 l -11.811,-31.497 c -1.312,-3.28 -2.624,-7.217 -2.624,-7.873 v -0.657 c 0.656,-0.656 3.937,-1.968 7.873,-1.968 l 1.313,-0.001 v -8.53 h -44.62 v 8.53 h 1.312 c 5.249,0 9.186,2.626 11.155,7.875 0,-10e-4 22.966,57.742 24.934,63.648 -0.656,1.311 -1.312,2.624 -1.968,3.936 -2.625,6.562 -4.593,13.123 -12.467,13.123 -4.593,0 -7.874,-1.968 -10.499,-5.249 l -0.656,-0.656 h -0.657 l -1.968,0.655 -0.656,0.656 v 0.656 l -1.969,9.187 -1.312,5.906 v 0.656 l 0.656,0.656 c 4.593,1.967 8.53,2.624 12.467,2.624 17.717,0 22.966,-13.123 28.871,-25.59 l 30.184,-71.523 c 1.312,-1.969 4.593,-6.561 9.186,-6.561 l 1.312,-10e-4 v -8.53 h -1.311 z" style="clip-rule:evenodd;fill:#fff;fill-rule:evenodd"/>
    <path d="m 511.155,483.924 0.658,-5.906 0.655,-8.53 c 0.001,-10e-4 0,-3.281 0,-3.281 l 0.001,-10e-4 v -0.655 -1.312 -0.657 h -0.656 c -7.218,-3.28 -13.78,-4.592 -20.342,-4.592 -8.53,-0.001 -15.748,0.656 -22.966,5.249 -6.561,4.593 -11.155,12.467 -11.155,20.997 0,9.842 7.217,17.717 17.717,20.342 l 13.779,3.28 c 5.906,1.968 9.186,3.281 9.186,9.186 0.001,7.218 -6.562,11.155 -12.467,11.155 -7.874,-10e-4 -13.78,-2.625 -17.717,-7.874 v 0.655 c -0.656,-3.937 -0.656,-7.217 -0.656,-11.154 v -1.313 h -8.53 v 1.312 1.313 c -0.656,7.874 -0.656,15.749 -1.312,20.998 v 1.312 h 0.656 c 8.53,3.281 17.061,4.593 25.59,4.593 10.5,-0.001 20.998,-3.281 26.903,-9.842 5.25,-5.249 7.874,-11.155 7.874,-18.373 0,-3.938 -1.312,-9.186 -3.937,-11.811 -3.281,-4.593 -11.811,-8.53 -19.685,-10.498 0.001,-10e-4 -7.874,-1.312 -7.874,-1.312 -5.905,-1.313 -10.498,-3.281 -10.498,-8.53 0,-2.625 0.656,-4.593 1.968,-5.905 1.969,-1.97 5.906,-3.281 11.155,-3.281 3.937,-10e-4 11.811,2.624 12.467,5.905 l 0.001,0.656 c 0,0.655 0.656,1.969 0.656,3.937 0,1.311 0,2.625 0,3.937 l 0.656,1.311 h 7.874 v -1.311 z" style="clip-rule:evenodd;fill:#fff;fill-rule:evenodd"/>
    <path d="m 688.977,528.543 h -1.311 c -8.531,-0.656 -8.531,-0.655 -8.531,-9.186 v -29.528 -2.624 c 0,-6.563 0,-12.467 -3.937,-18.373 -4.593,-8.53 -13.78,-9.842 -20.998,-9.842 -1.968,-0.001 -5.249,0.656 -8.53,1.312 v 0 h -0.656 l -13.78,10.498 v -11.811 h -1.311 -1.312 l -11.812,2.625 c -5.249,1.968 -10.498,2.625 -15.748,3.281 h -1.969 l -1.312,0.656 v 0.656 7.217 h 1.312 1.314 c 8.53,0.656 8.53,0.657 9.186,9.187 v 36.745 c -0.656,8.53 -0.656,8.53 -9.186,9.186 l -1.313,-10e-4 h -1.312 v 8.531 h 1.312 c 7.218,-0.658 14.436,-0.657 21.654,-0.657 7.218,-10e-4 13.78,0 21.654,0.657 h 1.313 v -8.531 l -1.313,10e-4 -1.313,-10e-4 c -9.186,-0.656 -9.186,-0.655 -9.842,-9.186 0,0 0,-31.496 0,-34.777 2.625,-6.562 6.562,-9.186 13.123,-9.186 4.593,0 9.186,2.625 11.155,6.562 1.312,3.28 1.312,7.217 1.312,10.499 0,1.312 0,2.624 0.656,3.937 0,-10e-4 0,39.37 0,39.37 v 1.313 h 1.313 c 5.249,-0.658 9.842,-0.657 14.435,-0.657 5.25,-0.001 9.843,0 15.748,0.657 h 1.312 v -8.531 c -10e-4,10e-4 -1.313,0.002 -1.313,10e-4 z" style="clip-rule:evenodd;fill:#fff;fill-rule:evenodd"/>
    <path d="m 589.895,468.832 c -6.562,-6.563 -16.404,-9.842 -28.216,-9.842 -25.59,-0.001 -40.026,14.436 -40.026,40.026 0,13.123 3.28,23.622 10.498,30.184 5.906,6.561 15.092,9.842 26.247,9.842 13.124,-10e-4 23.622,-3.281 30.839,-10.498 6.563,-7.219 10.499,-17.717 10.499,-30.84 0.003,-12.469 -3.279,-22.31 -9.841,-28.872 z m -28.215,61.68 c -16.403,0 -17.717,-23.622 -17.717,-34.776 0,-11.156 1.313,-27.559 16.405,-27.559 8.53,0 12.467,6.561 14.436,13.78 1.312,5.905 1.969,15.748 1.969,21.653 -10e-4,10.497 -1.314,26.902 -15.093,26.902 z" style="clip-rule:evenodd;fill:#fff;fill-rule:evenodd"/>
    <path d="m 435.695,564.632 c 0,-7.874 5.905,-13.779 13.78,-13.779 7.874,-10e-4 13.78,5.905 13.78,13.779 0,8.529 -5.905,13.779 -13.78,13.779 -7.874,0.001 -13.78,-5.249 -13.78,-13.779 z m 13.78,11.811 c 6.561,0 11.155,-4.592 11.155,-11.81 0,-6.563 -4.593,-11.155 -11.155,-11.155 -6.561,-10e-4 -11.155,4.593 -11.155,11.155 0,7.217 4.594,11.811 11.155,11.81 z m -2.624,-3.281 h -2.625 v -16.403 h 5.905 c 3.937,0 5.905,1.312 5.905,4.593 0,2.624 -1.968,3.937 -4.592,4.593 l 4.592,7.217 h -2.624 l -3.937,-7.217 h -2.624 z m 2.624,-9.186 c 1.969,0 3.937,0 3.937,-2.624 0,-1.969 -1.968,-2.625 -3.281,-2.625 h -3.28 v 5.249 z" style="clip-rule:evenodd;fill:#fff;fill-rule:evenodd"/>
    <path d="m 391.076,424.869 c -15.748,0 -24.934,0.656 -35.433,0.656 -10.499,0 -20.998,-0.656 -36.089,-0.656 l -9.186,-0.656 h -1.312 v 1.312 c 0,3.936 0,8.53 0.656,13.124 0,4.593 0,9.186 0,13.124 v 1.312 h 8.53 c 0,0.656 0.656,-0.656 0.656,-0.656 v -4.594 c 0,-2.624 0.656,-4.593 0.656,-5.905 1.312,-3.281 2.625,-3.937 5.905,-4.593 l 19.686,-10e-4 v 78.741 c -0.657,5.248 -0.657,8.53 -1.969,9.842 -1.312,1.312 -6.561,1.312 -12.467,1.312 h -1.312 v 9.186 h 1.312 c 11.155,-0.656 19.03,-0.655 24.935,-0.655 5.905,-10e-4 13.78,0 24.278,0.656 l 1.312,-10e-4 v -9.186 h -1.312 c -5.249,0 -10.499,0 -12.467,-1.312 -1.312,-1.313 -1.312,-4.593 -1.312,-9.842 v -78.741 h 18.373 c 6.561,0.656 6.561,0.657 7.218,4.594 0,1.312 0,2.624 0,3.937 0.656,1.967 0.656,3.937 0.656,6.561 v 0.656 h 8.53 c 0,0.656 0,-0.656 0,-0.656 l 1.968,-26.903 v -1.312 h -1.312 z" style="clip-rule:evenodd;fill:#fff;fill-rule:evenodd"/>
  </g>
</svg>
