<svg width="500" height="500" viewBox="0 0 500 500" fill="none" xmlns="http://www.w3.org/2000/svg">
<g clip-path="url(#clip0_2_1751)">
<mask id="mask0_2_1751" style="mask-type:luminance" maskUnits="userSpaceOnUse" x="0" y="0" width="500" height="500">
<path fill-rule="evenodd" clip-rule="evenodd" d="M0 0H500V500H0V0Z" fill="white"/>
</mask>
<g mask="url(#mask0_2_1751)">
<path fill-rule="evenodd" clip-rule="evenodd" d="M471.311 133.733L452.056 180.806L351.739 180.867L371.217 132.55H470.706C428.65 53.7 345.611 0 250 0C154.395 0 71.3613 53.6833 29.3057 132.533H104.85C119.389 132.533 128.261 139.439 131.284 149.078L190.972 317.922L197 336.844L203.961 317.117L256.684 182.056C267.5 156.056 268.739 132.533 323.922 132.533H343.756L294.695 252.422H417.934L398.145 300.7L274.922 300.744L214.656 448.006H177.872L64.828 168.317C57.5002 151.167 47.0002 144.822 25.3891 140.167C8.63853 174.355 -0.0471288 211.929 0.000192326 250C0.000192326 388.072 111.928 500 250 500C388.072 500 500 388.072 500 250C500.045 209.487 490.197 169.575 471.311 133.733Z" fill="#004C97"/>
</g>
</g>
<defs>
<clipPath id="clip0_2_1751">
<rect width="500" height="500" fill="white"/>
</clipPath>
</defs>
</svg>
