<?xml version="1.0" encoding="UTF-8" standalone="no"?>
<svg
   width="38.919998"
   height="43.688"
   version="1.1"
   id="svg502"
   xmlns="http://www.w3.org/2000/svg"
   xmlns:svg="http://www.w3.org/2000/svg">
  <defs
     id="defs506" />
  <g
     id="g500"
     transform="translate(-4.0937425,-3.156188)">
    <title
       id="title491">Layer 1</title>
    <g
       id="layer1">
      <path
         d="m 23.548721,17.863708 c 1.023743,0 1.866257,-0.532471 1.979996,-1.219971 L 26.539978,5.213683 c 0,-1.130005 -1.32251,-2.057495 -2.987503,-2.057495 -1.662506,0 -2.983749,0.92749 -2.983749,2.057495 l 1.008743,11.430054 c 0.112503,0.6875 0.955002,1.219971 1.975006,1.219971 h -0.004"
         id="path2974"
         fill-rule="nonzero"
         fill="#fdbb30" />
      <path
         d="m 17.371231,21.433716 c 0.513748,-0.88501 0.473755,-1.881226 -0.06619,-2.32251 L 7.910034,12.52124 C 6.933731,11.956238 5.468735,12.637451 4.637482,14.078735 3.803727,15.517456 3.951233,17.12622 4.926224,17.691223 l 10.40126,4.84375 c 0.651245,0.241272 1.537491,-0.222534 2.047501,-1.107483 l -0.004,0.006"
         id="path2976"
         fill-rule="nonzero"
         fill="#fdbb30" />
      <path
         d="m 29.731232,21.42749 c 0.512497,0.88501 1.395004,1.348755 2.046249,1.107483 l 10.402496,-4.84375 c 0.980011,-0.565002 1.12001,-2.173706 0.292511,-3.612488 -0.835007,-1.441223 -2.302505,-2.122499 -3.27626,-1.557495 l -9.395004,6.590027 c -0.537491,0.441223 -0.577499,1.4375 -0.06619,2.322449 l -0.004,-0.006"
         id="path2978"
         fill-rule="nonzero"
         fill="#fdbb30" />
      <path
         d="m 23.548721,32.140015 c 1.023743,0 1.866257,0.528748 1.979996,1.216248 l 1.011261,11.428772 c 0,1.132507 -1.32251,2.058716 -2.987503,2.058716 -1.662506,0 -2.983749,-0.926208 -2.983749,-2.058716 l 1.008743,-11.428772 c 0.112503,-0.6875 0.955002,-1.216248 1.975006,-1.216248 h -0.004"
         id="path2980"
         fill-rule="nonzero"
         fill="#fdbb30" />
      <path
         d="m 29.731232,28.570007 c 0.512497,-0.88623 1.395004,-1.347473 2.046249,-1.102478 l 10.402496,4.838745 c 0.980011,0.566223 1.12001,2.176208 0.292511,3.617493 -0.835007,1.436218 -2.302505,2.118713 -3.27626,1.554993 l -9.395004,-6.58374 c -0.537491,-0.446289 -0.577499,-1.442505 -0.06619,-2.326233 l -0.004,9.77e-4"
         id="path2982"
         fill-rule="nonzero"
         fill="#fdbb30" />
      <path
         d="m 17.371231,28.568726 c 0.513748,0.883728 0.473755,1.880005 -0.06619,2.326233 l -9.395004,6.58374 C 6.933777,38.042481 5.46878,37.359986 4.637527,35.923706 3.803726,34.482483 3.951232,32.872498 4.926223,32.306213 l 10.40126,-4.838745 c 0.651245,-0.244995 1.53749,0.216248 2.047502,1.102478 l -0.004,-9.77e-4"
         id="path2984"
         fill-rule="nonzero"
         fill="#fdbb30" />
    </g>
  </g>
</svg>
