<?xml version="1.0" encoding="UTF-8" standalone="no"?>
<svg xmlns="http://www.w3.org/2000/svg" version="1.0" width="256" height="54">
<path style="fill:#0197d9" d="m 25,11.168285 -3.5,0 -9,23.170704 -9,-23.170704 -3.5,0 10.8,27.515211 -1.2,3.088462 C 8.9,43.80036 7.8,45.151019 6.5,45.826831 5.2,46.599188 3.4,46.792277 1.2,46.502643 l -0.6,-0.09654 0,2.896338 0.4,0.194055 c 2.7,0.482723 5.1,0.09751 7.1,-0.965446 1.9,-1.15757 3.4,-3.088462 4.5,-5.695166 L 25,11.168285 z m 29.4,14.192056 c 0,-4.151418 -1.4,-7.627023 -4.3,-10.523361 -2.9,-2.896338 -6.2,-4.344507 -10.3,-4.344507 -4.1,0 -7.4,1.448169 -10.3,4.344507 -2.8,2.896338 -4.3,6.371943 -4.3,10.523361 0,3.958329 1.5,7.433934 4.3,10.233728 2.9,2.896338 6.2,4.344507 10.3,4.344507 4.1,0 7.4,-1.448169 10.3,-4.344507 2.9,-2.799794 4.3,-6.275399 4.3,-10.233728 z m -3.2,0 c 0,3.185972 -1.2,5.889221 -3.4,8.206291 -2.2,2.221491 -4.8,3.379061 -8,3.379061 -3.1,0 -5.8,-1.15757 -8.1,-3.379061 -2.2,-2.316105 -3.3,-5.019354 -3.3,-8.206291 0,-3.282516 1.1,-6.08231 3.3,-8.39938 2.3,-2.413615 5,-3.57215 8.1,-3.57215 3.2,0 5.8,1.158535 8,3.57215 2.2,2.31707 3.4,5.116864 3.4,8.39938 z m 32.3,-14.192056 0,4.923774 c -1.3,-1.834347 -2.9,-3.185971 -4.8,-4.151417 -2,-0.965446 -4.2,-1.448169 -6.5,-1.448169 -4,0 -7.4,1.448169 -10.2,4.344507 -2.9,2.896338 -4.3,6.371943 -4.3,10.523361 0,3.958329 1.4,7.530479 4.3,10.330272 2.8,2.799794 6.2,4.247963 10.2,4.247963 2.3,0 4.5,-0.482723 6.5,-1.448169 1.9,-0.965446 3.5,-2.220526 4.8,-4.054874 l 0,3.572151 c 0,3.475605 -1,6.275399 -3,8.302835 -2,2.123981 -4.8,3.185972 -8.1,3.185972 -2.6,0 -4.7,-0.579268 -6.6,-1.737803 C 64,46.696698 62.7,44.95986 62,42.931458 l -0.2,-0.385213 -3.3,0 0.2,0.674847 c 0.9,2.993848 2.5,5.213408 5,6.855632 2.3,1.641258 5.3,2.413615 8.7,2.413615 4.3,0 7.7,-1.351624 10.3,-3.959294 2.7,-2.703249 4,-6.177889 4,-10.522396 l 0,-26.839399 -3.2,0 0,-9.65e-4 z M 72.2,13.5819 c 3.3,0 6,1.158535 8.2,3.379061 2.1,2.123981 3.1,5.020319 3.1,8.39938 0,3.282516 -1,6.08231 -3.1,8.206291 -2.2,2.221491 -4.9,3.379061 -8.2,3.379061 -3.2,0 -5.8,-1.15757 -8,-3.379061 -2.2,-2.316105 -3.3,-5.019354 -3.3,-8.206291 0,-3.282516 1.1,-5.985765 3.3,-8.302836 2.2,-2.31707 4.8,-3.475605 8,-3.475605 z m 46.3,5.88922 c -0.8,-1.834347 -1.8,-3.475605 -3.3,-4.82723 -2.7,-2.799793 -6.1,-4.151417 -10,-4.151417 -4,0 -7.4,1.448169 -10.2,4.344507 -2.9,2.896338 -4.3,6.371943 -4.3,10.523361 0,4.054873 1.4,7.530479 4.3,10.330272 2.9,2.799794 6.4,4.247963 10.5,4.247963 3.4,0 6.2,-0.772357 8.6,-2.413615 2.4,-1.641259 4,-3.959294 5.1,-7.047756 l 0.2,-0.675812 -3.4,0 -0.1,0.385213 c -1.7,4.442017 -5.2,6.758122 -10.4,6.758122 -3.1,0 -5.8,-1.15757 -8.1,-3.185972 -2.2,-2.123981 -3.4,-4.72972 -3.5,-7.916657 l 25.8,0 0,-0.868902 c 0,-1.833382 -0.3,-3.667729 -1.2,-5.502077 z M 105.2,13.5819 c 2.7,0 5,0.965446 7.1,2.606704 2.1,1.737803 3.4,3.861784 3.9,6.565033 l -22,0 c 0.5,-2.703249 1.9,-4.82723 4,-6.565033 2,-1.641258 4.3,-2.606704 7,-2.606704 z m 38,2.220526 c 1.5,1.544713 2.3,3.765239 2.3,6.661577 l 0,16.895305 3.101,0 0,-16.895305 c 0,-3.765239 -1,-6.661577 -3.101,-8.689014 -2.2,-2.220526 -5.101,-3.282516 -8.8,-3.282516 -4,0 -7.2,1.351624 -9.5,4.054873 l 0,-3.379061 -3.2,0 0,28.191023 3.2,0 0,-16.895305 c 0,-2.606704 0.8,-4.730685 2.699,-6.371944 1.801,-1.737802 4,-2.510159 6.701,-2.510159 2.9,0 5.1,0.675812 6.6,2.220526 z m 34,-15.73677019 -0.6,0 c -2.9,-0.2896338 -5.301,0.3861784 -7.101,1.93089199 -2,1.8343474 -3,4.4410516 -3,7.9166572 l 0,1.25508 -3.899,0 0,3.089427 3.899,0 0,25.101596 3.2,0 0,-25.101596 7.5,0 0,-3.089427 -7.5,0 0,-1.158535 c 0,-2.6067046 0.699,-4.5375966 1.9,-5.7926764 1.299,-0.965446 2.899,-1.448169 5,-1.2550798 l 0.6,0 0,-2.89633799 10e-4,0 z M 194,10.685562 l -0.5,-0.09654 -4.3,0.09654 c -2.1,0.386178 -4,1.25508 -5.7,2.703249 l -0.899,0.965446 0,-3.185972 -3.201,0 0,28.191023 3.201,0 0,-16.895305 c 0,-2.896338 1,-5.116864 2.899,-6.758122 1.101,-0.965446 2.3,-1.641258 3.7,-1.930892 l 4.199,-0.289634 0.601,0.09654 0,-2.896338 z m 56.2,3.185972 0,-2.703249 -22.801,0 0,3.089427 18.301,0 -19,22.301803 0,2.798828 24.1,0 0,-3.088462 -19.6,0 19,-22.398347 z" />
<path style="fill:#f28cb4" d="m 208.5,5.3756088 c 0,-0.7723568 -0.3,-1.3516244 -0.899,-1.930892 -0.5,-0.482723 -1.101,-0.7723568 -1.9,-0.7723568 -0.7,0 -1.4,0.2896338 -2,0.7723568 -0.5,0.5792676 -0.7,1.1585352 -0.7,1.930892 0,0.6758122 0.2,1.3516244 0.7,1.930892 0.6,0.482723 1.3,0.6758122 2,0.6758122 0.8,0 1.4,-0.1930892 1.9,-0.6758122 C 208.2,6.7272332 208.5,6.051421 208.5,5.3756088 z m 9,1.930892 c 0.5,-0.5792676 0.7,-1.2550798 0.7,-1.930892 0,-0.7723568 -0.2,-1.3516244 -0.7,-1.930892 -0.601,-0.482723 -1.3,-0.7723568 -2,-0.7723568 -0.8,0 -1.399,0.2896338 -1.899,0.7723568 -0.601,0.5792676 -0.9,1.1585352 -0.9,1.930892 0,0.6758122 0.3,1.3516244 0.9,1.930892 0.5,0.482723 1.1,0.6758122 1.899,0.6758122 0.7,0 1.399,-0.1930892 2,-0.6758122 z m 2.899,3.8617842 0,14.674779 c 0,3.282516 -0.899,5.889221 -2.799,7.723568 -1.801,1.834347 -4.101,2.704214 -7.101,2.704214 -2.899,0 -5.3,-0.868901 -7.101,-2.704214 -1.899,-1.833382 -2.799,-4.344507 -2.799,-7.723568 l 0,-14.674779 -3.599,0 0,14.48169 c 0,4.344507 1.3,7.723568 3.899,10.426817 2.4,2.606704 5.601,3.861784 9.5,3.861784 l 0.201,0 c 3.899,0 7,-1.25508 9.5,-3.861784 2.6,-2.703249 3.899,-6.08231 3.899,-10.426817 l 0,-14.48169 -3.6,0 0,0 z" />
<path style="fill:#0197d9" d="m 253.72735,36.238442 c -0.90031,0 -1.65625,0.724688 -1.65625,1.625 0,0.900312 0.75594,1.65625 1.65625,1.65625 0.90031,0 1.625,-0.755938 1.625,-1.65625 0,-0.900312 -0.72469,-1.625 -1.625,-1.625 z m 0,0.25 c 0.77115,0 1.375,0.603853 1.375,1.375 0,0.771147 -0.60385,1.40625 -1.375,1.40625 -0.77115,0 -1.40625,-0.635103 -1.40625,-1.40625 0,-0.771147 0.6351,-1.375 1.40625,-1.375 z m 0.1826,1.034959 c 0,-0.08788 -0.0222,-0.149396 -0.0667,-0.184551 -0.0445,-0.03599 -0.11362,-0.05398 -0.20743,-0.05398 l -0.19651,0 0,0.480834 0.19651,0 c 0.10109,10e-7 0.17185,-0.01966 0.21229,-0.059 0.0413,-0.03934 0.0618,-0.10043 0.0618,-0.183294 m 0.46702,-0.07156 c 0,0.245231 -0.11605,0.405509 -0.34815,0.480835 0.0704,0.01675 0.1302,0.05398 0.17954,0.111734 0.0501,0.05775 0.0986,0.13517 0.14555,0.232257 l 0.25353,0.532307 -0.49734,0 -0.22078,-0.465769 c -0.0413,-0.08788 -0.0849,-0.150234 -0.13101,-0.187061 -0.0453,-0.03766 -0.10755,-0.05649 -0.18681,-0.05649 l -0.13222,0 0,0.709325 -0.46702,0 0,-1.874375 0.71326,0 c 0.13021,2e-6 0.241,0.01214 0.33239,0.03641 0.0914,0.02427 0.16294,0.05984 0.21471,0.106712 0.0517,0.04687 0.0886,0.100858 0.11038,0.161952 0.0226,0.06027 0.0339,0.130987 0.0339,0.21217" />
</svg>