<?xml version="1.0" encoding="utf-8"?>
<!-- Generator: Adobe Illustrator 24.2.1, SVG Export Plug-In . SVG Version: 6.00 Build 0)  -->
<svg version="1.1" xmlns="http://www.w3.org/2000/svg" xmlns:xlink="http://www.w3.org/1999/xlink" x="0px" y="0px"
	 viewBox="0 0 220 132" style="enable-background:new 0 0 220 132;" xml:space="preserve">
<style type="text/css">
	.st0{display:none;}
	.st1{display:inline;}
	.st2{fill-rule:evenodd;clip-rule:evenodd;fill:#AC9751;}
	.st3{fill-rule:evenodd;clip-rule:evenodd;fill:#FFFFFF;}
	.st4{fill-rule:evenodd;clip-rule:evenodd;fill:#C31924;}
	.st5{fill:#E10514;}
	.st6{fill-rule:evenodd;clip-rule:evenodd;fill:#E10514;}
</style>
<g id="Ebene_1" class="st0">
	<g class="st1">
		<path class="st2" d="M219.6,66.2c0,35.7-49.2,64.7-109.8,64.7C49.2,130.9,0,101.9,0,66.2C0,30.5,49.2,1.6,109.8,1.6
			C170.4,1.6,219.6,30.5,219.6,66.2"/>
		<path class="st3" d="M215.9,59.3c1.8,32.8-44.2,62.6-102.8,66.4C54.5,129.5,5.5,106,3.7,73.2C1.8,40.3,47.8,10.6,106.4,6.7
			C165.1,2.9,214.1,26.4,215.9,59.3"/>
		<path class="st4" d="M110.5,23.8l12.2,8.7c-3.9,0.8-8.4,1.9-8.4,5.9c0,4,4.7,5.2,8.7,5.2c4.1,0,9.1-1.5,9.1-5.6
			c0-2.2-1.5-3.2-3.2-4.5l16.2-4.2l-11.9,17.9c-1.8-0.4-15.4-1.7-22.8-1.6c-7.4-0.1-21,1.2-22.8,1.6L75.7,29.3l16.2,4.2
			c-1.7,1.3-3.2,2.4-3.2,4.5c0,4.1,5,5.6,9.1,5.6c4,0,8.7-1.2,8.7-5.2c0-4-4.5-5.1-8.4-5.9C98.2,32.5,110.5,23.8,110.5,23.8z
			 M91.1,55l7.5,0.3c0,0,10.6,14.6,12.9,16.4c0-5.1-0.1-5.4,0-8.5c0.1-4.8-0.4-5.7-0.9-7.4h7.3c-1.4,3.6-1.1,16.1-1,25.5
			c-1.2-0.1-8.3,0-8.3,0L96.9,67.3c-0.2,2.1-0.1,10.9-0.1,10.9c-0.1,1.5,0.4,2.9,0.7,3.8c-2.5,0.1-3.7,0.1-7,0.1
			C92.2,73.3,91.8,58.5,91.1,55L91.1,55z M146.5,53.4v6c-3.2-1.1-7.8-0.4-9.4-0.3c0,8.3-0.3,16.8,0.6,24c-3.2-0.4-5.3-0.7-9.3-1.1
			c0.7-6.8,1-14.1,0.7-22.1c-0.4-0.1-2,0-2.5,0c-1.1,0-4.9,0.5-6.3,1.7l0-5.7C123.6,55.8,145.7,53.4,146.5,53.4L146.5,53.4z
			 M159.6,51.6c-1.4,4.1-1.3,4.8-1.3,6.8l-0.1,21.9c-0.1,3.4,0.1,3.8,0.5,6c-4.2-0.8-4.6-0.9-11-1.7c0.7-1.7,1.2-3.3,1.2-5.1
			c0.2-9.1,0.2-11.4,0.2-20.7c0-2.2-0.4-4.3-0.9-5.5L159.6,51.6L159.6,51.6z M64.3,50.8c9.9,1.9,17.4,3,21.5,3.7v5.4
			c-3.9-1.7-8.3-2.4-12-2.2c-0.1,0.8-0.1,7.3-0.1,7.3c4.4,0.2,5.1,0.2,10.7-0.2c0,2.2,0,4.1,0,6.1c-3.2-0.8-6.7-0.5-10.9-0.5l0,8.4
			c0,0,9.3-0.5,13.2-2.2c-0.2,2.6-0.5,3.9-0.7,6c-10,0.6-15.8,1.4-22.2,2.2C66.8,68.4,65.3,53.5,64.3,50.8z M188.2,45.9v9.9
			c-3.4-2.4-6.8-3.7-10.6-3.6c-4.9,0.2-5.8,4.8-4.6,6.8c1.1,1.9,9.6,9,12.8,12.8c2.2,2.7,3.8,6,3.8,8.7c0,5.7-4.7,10.8-11.4,10.7
			c-5.5,0-12.9-2.7-16-4.8v-8.6c5.5,6.5,12.5,8.3,14.9,6.1c2.8-2.6,0.3-6-3.4-9.8c-3.7-3.8-6-5.4-9-9.6c-1.5-2-2.1-3.8-2-6.2
			c0.1-4.8,3.2-10.1,15.9-12C182,45.8,188.2,45.9,188.2,45.9L188.2,45.9z M33.3,42.7c4.3,1.4,15.5,5,28.6,7.9c0,0-16.9,31-16.8,31.5
			c1.6,0.1,15.7-3.5,15.7-3.5l-0.2,6.9C48.9,86.9,46,87.7,28.5,91c0.2-1,19.7-37.1,19.7-37.1c-3.7-2.6-11.6-3.2-14.9-2.6
			C33.3,51.2,33.3,42.7,33.3,42.7z"/>
		<path class="st2" d="M76.3,102.5c0.5,0.3,1.4,0.6,2.2,0.6c1,0,1.4-0.4,1.4-1c0-0.6-0.3-0.9-1.4-1.3c-1.7-0.6-2.4-1.5-2.4-2.5
			c0-1.5,1.3-2.7,3.3-2.7c0.9,0,1.8,0.2,2.3,0.5l-0.4,1.5c-0.6-0.3-1.2-0.5-1.8-0.5c-0.8,0-1.2,0.4-1.2,0.9c0,0.5,0.4,0.8,1.5,1.2
			c1.6,0.6,2.3,1.3,2.3,2.6c0,1.6-1.2,2.7-3.5,2.7c-1,0-2-0.2-2.6-0.6C75.9,104,76.3,102.5,76.3,102.5z M89,99.3
			c0-0.8-0.3-2.1-1.8-2.1c-1.3,0-1.9,1.2-2,2.1H89z M85.2,100.8c0.1,1.6,1.3,2.2,2.7,2.2c1,0,1.7-0.2,2.4-0.4l0.3,1.5
			c-0.8,0.3-1.8,0.5-3,0.5c-2.8,0-4.4-1.7-4.4-4.3c0-2.4,1.4-4.6,4.2-4.6c2.8,0,3.7,2.3,3.7,4.2c0,0.4,0,0.7-0.1,0.9H85.2z
			 M92.7,104.5h2.2v-8.6h-2.2V104.5z M95.1,93.5c0,0.6-0.5,1.2-1.2,1.2c-0.7,0-1.2-0.5-1.2-1.2c0-0.7,0.5-1.2,1.2-1.2
			C94.6,92.3,95,92.8,95.1,93.5L95.1,93.5z M99.6,93.6v2.2h2.1v1.6h-2.1v3.8c0,1.1,0.3,1.6,1.1,1.6c0.4,0,0.6,0,0.9-0.1l0,1.6
			c-0.3,0.1-0.9,0.2-1.6,0.2c-0.8,0-1.5-0.3-1.9-0.7c-0.5-0.5-0.7-1.3-0.7-2.4v-4.1h-1.2v-1.6h1.2v-1.6L99.6,93.6z M110,94.9
			L110,94.9l-2.1,1.1l-0.4-1.6l2.8-1.4h1.8v11.5H110V94.9z M117.3,95.8c0,0.9,0.8,1.5,1.9,1.8c0.8-0.2,1.4-0.9,1.4-1.7
			c0-0.8-0.5-1.6-1.7-1.6C117.9,94.3,117.3,95,117.3,95.8L117.3,95.8z M120.9,101.4c0-1.2-0.8-1.8-2.1-2.2c-1.1,0.3-1.7,1.1-1.7,2
			c0,1,0.7,1.9,1.9,1.9C120.1,103.1,120.9,102.4,120.9,101.4L120.9,101.4z M117,98.5c-1.2-0.6-1.8-1.5-1.8-2.5
			c0-1.9,1.7-3.2,3.8-3.2c2.5,0,3.6,1.5,3.6,2.9c0,1-0.5,2-1.8,2.6v0.1c1.3,0.5,2.2,1.5,2.2,2.9c0,2.1-1.7,3.4-4.2,3.4
			c-2.7,0-4.1-1.6-4.1-3.2C114.8,100.1,115.7,99.1,117,98.5L117,98.5z M126.2,96.8c0,1.2,0.7,2.1,1.9,2.1c0.9,0,1.5-0.4,1.9-1
			c0.1-0.2,0.1-0.3,0.1-0.6c0-1.6-0.6-2.9-2-2.9C127,94.4,126.2,95.4,126.2,96.8L126.2,96.8z M125.1,102.9c0.3,0,0.7,0,1.2,0
			c0.9-0.1,1.7-0.4,2.3-0.9c0.8-0.6,1.3-1.5,1.5-2.6h0c-0.6,0.6-1.4,1-2.5,1c-2,0-3.5-1.4-3.5-3.6c0-2.2,1.7-4.1,4.1-4.1
			c2.7,0,4.1,2.1,4.1,4.9c0,2.5-0.8,4.2-2,5.4c-1,0.9-2.4,1.5-3.9,1.6c-0.4,0-0.9,0.1-1.3,0V102.9z M133.6,102.2
			c0.4,0.3,1.5,0.7,2.6,0.7c1.7,0,2.3-0.9,2.3-1.8c0-1.4-1.3-1.9-2.6-1.9h-1v-1.6h1c1,0,2.3-0.5,2.3-1.6c0-0.8-0.6-1.5-1.8-1.5
			c-0.9,0-1.9,0.4-2.4,0.7l-0.5-1.6c0.6-0.4,1.9-0.9,3.3-0.9c2.4,0,3.6,1.3,3.6,2.8c0,1.2-0.7,2.2-2.1,2.7v0
			c1.4,0.3,2.5,1.3,2.5,2.9c0,1.9-1.6,3.5-4.5,3.5c-1.4,0-2.6-0.4-3.2-0.8L133.6,102.2z"/>
	</g>
</g>
<g id="Ebene_4">
</g>
<g id="Ebene_3">
	<ellipse class="st3" cx="110.1" cy="66.1" rx="108.6" ry="62.4"/>
</g>
<g id="Ebene_2">
	<g>
		<path class="st5" d="M109.8,129.4C49.5,129.4,0.4,101,0.4,66.1c0-34.9,49.1-63.3,109.4-63.3s109.4,28.4,109.4,63.3
			C219.3,101,170.2,129.4,109.8,129.4z M109.8,4.7C50.6,4.7,2.4,32.3,2.4,66.1c0,33.8,48.2,61.3,107.4,61.3
			c59.2,0,107.4-27.5,107.4-61.3C217.2,32.3,169.1,4.7,109.8,4.7z"/>
		<path class="st6" d="M32.8,42.6c4.4,1.4,16,5.2,29.6,8.1c0,0-17.5,32-17.3,32.5c1.6,0.1,16.3-3.6,16.3-3.6l-0.2,7.1
			c-12.2,1.6-15.2,2.4-33.3,5.8c0.2-1,20.4-38.3,20.4-38.3c-3.8-2.7-11.9-3.3-15.4-2.7V42.6 M192.9,45.9v10.2
			c-3.5-2.5-7-3.9-10.9-3.7c-5.1,0.2-5.9,5-4.8,7c1.2,2,9.9,9.3,13.2,13.2c2.3,2.8,4,6.2,4,9c0,5.8-4.9,11.1-11.8,11.1
			c-5.6,0-13.4-2.8-16.5-5v-8.9c5.7,6.7,12.9,8.6,15.4,6.3c2.8-2.6,0.4-6.2-3.5-10.1c-3.8-3.9-6.2-5.6-9.4-9.9
			c-1.5-2.1-2.2-3.9-2.1-6.4c0.1-4.9,3.3-10.5,16.4-12.3C186.4,45.8,192.9,45.9,192.9,45.9z M64.8,51c10.2,2,18,3.1,22.2,3.8v5.5
			c-4-1.8-8.6-2.5-12.4-2.3c-0.1,0.8-0.1,7.5-0.1,7.5c4.5,0.2,5.3,0.3,11-0.2c0,2.3,0,4.3,0,6.2c-3.3-0.8-6.9-0.6-11.3-0.6l0,8.7
			c0,0,9.6-0.5,13.7-2.2c-0.2,2.7-0.5,4.1-0.8,6.2c-10.4,0.6-16.3,1.4-22.9,2.3C67.4,69.2,65.8,53.8,64.8,51z M163.3,51.7
			c-1.5,4.2-1.3,5-1.3,7l-0.1,22.6c-0.1,3.5,0.1,3.9,0.5,6.2c-4.4-0.8-4.7-0.9-11.4-1.8c0.7-1.8,1.2-3.4,1.3-5.3
			c0.2-9.4,0.2-11.8,0.2-21.4c0-2.3-0.4-4.4-0.9-5.7L163.3,51.7z M149.8,53.7l0,6.2c-3.3-1.1-8.1-0.4-9.7-0.3
			c0,8.5-0.3,17.3,0.6,24.8c-3.3-0.4-5.5-0.7-9.6-1.1c0.7-7,1.1-14.6,0.7-22.8c-0.4-0.1-2.1,0-2.5,0c-1.1,0-5.1,0.6-6.5,1.7l0-5.9
			C126.1,56.1,148.9,53.7,149.8,53.7z M92.5,55.3l7.8,0.3c0,0,11,15.1,13.3,17c0-5.3-0.1-5.5,0-8.8c0.1-5-0.4-5.9-1-7.6h7.5
			c-1.4,3.8-1.1,16.6-1,26.3c-1.2-0.1-8.5,0-8.5,0L98.5,68c-0.2,2.2-0.1,11.3-0.1,11.3c-0.1,1.6,0.4,3,0.7,4
			c-2.6,0.1-3.8,0.1-7.3,0.1C93.6,74.2,93.3,58.9,92.5,55.3z M112.5,23.1l12.6,9c-4,0.8-8.7,2-8.7,6.1c0,4.1,4.8,5.4,9,5.4
			c4.3,0,9.4-1.5,9.4-5.8c0-2.2-1.5-3.3-3.3-4.7l16.7-4.3L136,47.3c-1.8-0.4-15.9-1.8-23.6-1.6c-7.7-0.1-21.7,1.3-23.6,1.6
			L76.6,28.7l16.7,4.3c-1.8,1.4-3.3,2.5-3.3,4.7c0,4.2,5.2,5.8,9.4,5.8c4.1,0,9-1.3,9-5.4c0-4.1-4.7-5.3-8.7-6.1L112.5,23.1z"/>
		<g>
			<path class="st5" d="M89.7,108.7V108c2.8-0.2,2.9-0.3,2.9-2.2v-9.6c0-1.3-0.2-1.3-1.3-1.4l-1.2-0.1v-0.6c1.6-0.3,3.3-0.7,4.6-1.2
				v13c0,1.9,0.1,2,2.9,2.2v0.7H89.7z"/>
			<path class="st5" d="M104.3,92.9c2.4,0,4.1,1.7,4.1,3.7c0,0.7-0.2,1.5-0.7,2c-0.2,0.2-1,0.8-2.1,1.6c1.7,0.9,3.4,2.1,3.4,4.3
				c0,2.9-2.6,4.5-5,4.5c-2.8,0-4.8-1.6-4.8-4.1c0-1.3,0.5-2,1.1-2.5c0.4-0.3,1.4-1,2.2-1.5c-1.6-0.9-2.8-2.1-2.8-3.9
				C99.8,94.8,101.6,92.9,104.3,92.9z M104.3,108.2c1.7,0,2.7-1.1,2.7-2.9c0-2-1.7-3-3.7-3.9c-1.3,0.8-2.1,1.9-2.1,3.4
				C101.2,107,102.7,108.2,104.3,108.2z M104,93.7c-1.5,0-2.3,1.2-2.3,2.6c0,1.8,1.2,2.5,3.2,3.5c1-0.7,1.6-1.6,1.6-3.1
				C106.5,94.6,105.3,93.7,104,93.7z"/>
			<path class="st5" d="M118.3,101.5l-1.7,0.8c-0.5,0.3-1,0.4-1.5,0.4c-2.7,0-4.5-2-4.5-4.7c0-2.4,1.9-5.2,5.1-5.2s5,2.8,5,6.2
				c0,4.6-2.9,8-6.3,9.3c-1,0.4-2.3,0.6-3,0.6l-0.2-0.7C114.8,107.7,117.5,105.3,118.3,101.5z M115.5,93.7c-1.9,0-2.6,1.8-2.6,3.6
				c0,2.2,1.2,4,3.3,4c0.9,0,1.7-0.3,2.2-0.7c0.1-0.5,0.1-1.1,0.1-1.6C118.5,96.8,117.9,93.7,115.5,93.7z"/>
			<path class="st5" d="M122.6,95.9l1.2-1.6c0.7-0.8,1.9-1.4,3.2-1.4c2.3,0,3.8,1.4,3.8,3.3c0,0.7-0.3,1.3-0.8,1.8
				c-0.4,0.4-1,0.9-1.8,1.3c2.3,0.5,3.7,2,3.7,3.8c0,4.1-4.8,5.8-6.6,5.8c-1.2,0-2.2-0.5-2.6-0.9c-0.3-0.3-0.4-0.5-0.4-0.8
				c0-0.4,0.3-0.8,0.6-0.9c0.2-0.1,0.4-0.2,0.6,0c0.7,0.6,1.7,1.3,3.1,1.3c1.8,0,3.1-1.3,3.1-3.8c0-2.3-1.7-3.2-3.3-3.2
				c-0.6,0-1.3,0.1-1.7,0.3l-0.2-0.7c2.2-0.7,4-1.7,4-3.6c0-1.5-0.9-2.3-2.4-2.3c-1.4,0-2.5,1-3.1,2L122.6,95.9z"/>
		</g>
	</g>
</g>
</svg>
