<?xml version="1.0" encoding="UTF-8" standalone="no"?>
<svg
   width="1203.3113"
   height="711.04425"
   viewBox="0 0 1203.3113 711.04425"
   version="1.1"
   id="svg1"
   xmlns="http://www.w3.org/2000/svg"
   xmlns:svg="http://www.w3.org/2000/svg">
  <defs
     id="defs1" />
  <g
     id="g1"
     transform="scale(15)">
    <ellipse
       style="fill:#ffffff;stroke-width:0.6384"
       id="path1"
       cx="40.110374"
       cy="23.701475"
       rx="40.110374"
       ry="23.701475" />
    <g
       id="Gruppe_1520"
       data-name="Gruppe 1520"
       transform="translate(19274.829,765.42428)">
      <path
         id="Pfad_186"
         data-name="Pfad 186"
         d="M 4.91,26.767 C 4.91,14.477 22.189,4.518 43.51,4.525 64.831,4.532 82.117,14.5 82.12,26.791 82.12,39.278 63.993,49.039 43.52,49.033 22.2,49.026 4.913,39.058 4.91,26.767"
         transform="translate(-19278.256,-768.525)"
         fill="#d9000d" />
      <path
         id="Pfad_187"
         data-name="Pfad 187"
         d="m 86.458,40.583 a 2.774,2.774 0 0 0 -0.272,-0.894 3.765,3.765 0 0 0 -3.2,-1.969 4.554,4.554 0 0 0 -0.6,-0.024 c -0.746,0.019 -1.358,0.2 -1.458,0.423 v 0.007 0.006 l -0.005,0.017 c -0.167,0.522 2.218,0.8 2.169,3.112 0,0.166 -0.044,0.484 -0.044,0.484 -0.508,3.086 -5.321,4.31 -9.886,4.051 l -39.568,-2.115 3.554,-3.432 c 0.455,-0.058 1.967,-0.342 3.044,-0.582 0.995,-0.221 1.486,-0.416 1.959,-0.556 a 4.321,4.321 0 0 0 2.541,3.307 c 1.213,0.528 3.889,0.414 6.07,-0.282 a 15.2,15.2 0 0 0 3.893,-2.061 2.985,2.985 0 0 0 1.393,2.54 c 1.507,0.657 2.874,-0.069 4.126,-0.869 v 0 a 15.587,15.587 0 0 0 2.031,-1.554 4.321,4.321 0 0 0 0.7,1.58 2.193,2.193 0 0 0 1,0.642 6,6 0 0 0 3.891,-0.579 24.97,24.97 0 0 0 2.58,-1.611 3.225,3.225 0 0 0 0.847,1.693 3.7,3.7 0 0 0 3.4,0.5 5.2,5.2 0 0 0 1.3,-0.672 v 0 c 0.936,-0.635 1.712,-1.447 1.061,-1.378 a 4.024,4.024 0 0 1 -2.658,0.28 c -1.348,-0.626 -0.163,-2.055 0.377,-3.2 l 2.022,-3.842 -3.515,0.053 -2.459,4.642 c -0.8,1.453 -3.148,1.927 -4.017,1.925 -1.487,0 -1.285,-0.84 -1.066,-1.344 0.149,-0.343 1.551,-2.969 1.551,-2.969 0,0 1.349,-0.294 2.41,-0.531 1.317,-0.295 2.068,-0.663 1.9,-1.2 -0.105,-0.31 -0.927,-0.025 -1.773,0.061 -0.917,0.093 -1.821,0.091 -1.821,0.091 l 1.636,-3.161 -3.494,0.053 -1.721,3.123 c 0,0 -1.121,-0.008 -1.535,-0.027 A 12.415,12.415 0 0 1 60.8,34.1 l 1.646,-3.1 -3.689,0.083 -1.173,2.238 c 0,0 -0.745,-0.236 -1.454,-0.531 a 7.953,7.953 0 0 1 -0.981,-0.536 2.33,2.33 0 0 0 0.106,2.76 4.548,4.548 0 0 0 1.141,0.63 c 0,0 -1.369,3.456 -4.186,4.589 -2.222,0.875 -4.85,1.281 -5.9,-0.963 a 3.5,3.5 0 0 1 0.254,-3.048 c 0.743,-1.466 2.128,-2.952 3.182,-2.879 0.4,0.029 1.265,0.476 0.291,2.148 a 6.042,6.042 0 0 1 -1.447,1.6 23.548,23.548 0 0 1 -2.048,1.3 c -0.5,0.381 1.234,0.5 3.6,-0.239 2.3,-0.714 3.831,-2.754 3.176,-4.075 -1.588,-3.2 -7.147,-0.873 -8.656,0.529 a 9.384,9.384 0 0 0 -2.483,3.472 10.921,10.921 0 0 1 -1.792,0.219 c -1.034,0.051 -1.707,0.04 -1.707,0.04 a 35.691,35.691 0 0 0 2.568,-4.021 8.146,8.146 0 0 0 1.086,-3.44 2.052,2.052 0 0 0 -2.126,-1.941 c -2.442,-0.242 -10.085,0.158 -10.085,0.158 v 0 a 19.516,19.516 0 0 1 -4.8,-0.094 c -1.035,-0.376 -0.376,-1.241 -0.857,-1.086 -1.062,0.342 -1.559,1.6 -1.615,2.858 -0.07,1.564 0.6,3.117 2.329,3.016 1.827,-0.105 4.523,-1.216 7.28,-1.931 1.82,-0.472 3.1,-0.794 3.759,-0.45 0.683,0.354 0.54,1.5 0,2.752 a 16.525,16.525 0 0 1 -2.594,3.784 c -1.006,-0.238 -2.811,-1.012 -3.23,-2.487 -0.556,0 -1.695,2.275 -1.695,2.751 -0.047,0.23 0.631,1.009 1.588,1.429 a 7.849,7.849 0 0 0 1.853,0.529 l -2.859,3.26 c 0,0 -6.837,-0.609 -8.64,-0.264 -3.706,0.709 -4.786,7.98 0.8,7.822 C 24.33,50.9 29.4,47 29.4,47 h 0.03 l 5.9,0.038 37.441,0.235 A 29.409,29.409 0 0 0 81.7,45.99 c 2.729,-1.038 4.3,-2.679 4.674,-4.3 v -0.015 a 2.79,2.79 0 0 0 0.079,-1.1 M 58.436,38.656 c 0.23,-0.46 1.133,-2.217 1.133,-2.217 0,0 1.409,0.044 2.091,0.027 0.682,-0.017 1.668,-0.08 1.668,-0.08 l -0.343,0.707 v 0 l -0.571,1.055 a 4.047,4.047 0 0 1 -3.206,2.043 c -0.7,0 -1.466,-0.148 -0.773,-1.535 m -34.791,9.886 c -0.139,0.072 -0.271,0.135 -0.388,0.185 -1.393,0.59 -3.581,0.949 -3.857,-0.311 a 1.171,1.171 0 0 1 0.691,-1.335 3.975,3.975 0 0 1 1.513,-0.244 h 0.059 L 25.9,46.9 a 7.515,7.515 0 0 1 -2.256,1.643"
         transform="translate(-19284.971,-781.44)"
         fill="#ffffff" />
      <path
         id="Pfad_188"
         data-name="Pfad 188"
         d="m 144.847,29.8 c -0.469,-0.556 -1.23,-0.263 -1.8,-0.062 a 1.479,1.479 0 0 0 -1.544,-1.192 c -0.971,0.041 -1.413,1.147 -1.3,2.11 l 0.183,1.618 c 0.106,0.939 2.43,-0.052 2.43,-0.052 1.168,-0.546 2.816,-1.5 2.035,-2.422"
         transform="translate(-19351.27,-781.688)"
         fill="#ffffff" />
    </g>
  </g>
</svg>
