<?xml version="1.0" encoding="UTF-8" standalone="no"?>
<!DOCTYPE svg PUBLIC "-//W3C//DTD SVG 1.1//EN" "http://www.w3.org/Graphics/SVG/1.1/DTD/svg11.dtd">
<svg width="100%" height="100%" viewBox="0 0 153 75" version="1.1" xmlns="http://www.w3.org/2000/svg" xmlns:xlink="http://www.w3.org/1999/xlink" xml:space="preserve" xmlns:serif="http://www.serif.com/" style="fill-rule:evenodd;clip-rule:evenodd;stroke-linecap:square;stroke-miterlimit:3;">
    <g transform="matrix(1,0,0,1,-84,-28)">
        <clipPath id="_clip1">
            <rect x="84.687" y="29.221" width="151.948" height="73.483"/>
        </clipPath>
        <g clip-path="url(#_clip1)">
            <path d="M149.682,102.639C149.198,102.639 148.767,102.332 148.609,101.874C148.451,101.416 148.6,100.908 148.982,100.61C152.703,97.693 156.077,92.289 158.788,87.946C159.409,86.951 159.996,86.011 160.541,85.174C160.628,85.042 160.718,84.889 160.813,84.727C161.381,83.761 162.239,82.299 164.282,82.299C165.156,82.3 165.866,82.535 166.394,82.997C166.936,83.47 167.233,84.158 167.232,84.935C167.233,85.931 166.623,88.091 165.607,91.472C167.923,89.022 170.626,86.375 173.622,83.948C174.529,83.214 175.659,82.301 177.529,82.301C179.121,82.301 180.232,83.268 180.235,84.652C180.233,85.405 179.785,86.368 178.69,87.982C178.484,88.287 178.258,88.615 178.02,88.962C175.814,92.178 172.12,97.56 172.121,100.968C172.111,102.197 170.784,102.285 170.284,102.319C170.211,102.323 170.14,102.328 170.078,102.334C169.923,102.349 169.807,102.363 169.707,102.375C169.382,102.413 169.173,102.435 168.636,102.435C167.651,102.435 166.966,101.78 166.966,100.843C166.967,99.136 167.57,97.226 168.501,95.251C166.87,96.95 165.291,98.663 163.626,100.531C163.619,100.539 163.612,100.547 163.605,100.555C163.035,101.159 161.975,102.283 160.616,102.283C159.034,102.28 158.164,101.436 158.162,99.904C158.163,99.237 158.414,98.084 158.838,96.569C157.452,98.62 155.877,100.676 154.204,102.315C153.992,102.523 153.707,102.639 153.41,102.639L149.682,102.639Z" style="fill:rgb(254,254,254);fill-rule:nonzero;"/>
            <path d="M179.099,84.654C179.098,83.892 178.473,83.436 177.532,83.436C176.121,83.436 175.277,84.07 174.336,84.831C170.169,88.205 166.505,92.063 163.184,95.818L163.122,95.818C164.436,91.302 166.098,86.275 166.096,84.933C166.098,84.045 165.501,83.436 164.282,83.435C162.621,83.435 162.12,84.832 161.493,85.795C158.579,90.26 154.443,97.773 149.682,101.503L153.41,101.504C157.608,97.392 161.179,90.542 162.683,87.953L162.745,88.002C161.616,91.506 159.299,98.202 159.298,99.903C159.299,100.715 159.55,101.146 160.615,101.147C161.462,101.148 162.275,100.309 162.778,99.776C166.033,96.123 169.324,92.647 174.149,88.027L174.21,88.029C171.641,91.759 168.103,97.062 168.102,100.843C168.102,101.149 168.29,101.301 168.636,101.299C169.323,101.299 169.374,101.262 169.967,101.204C170.342,101.167 170.984,101.174 170.986,100.969C170.985,96.835 175.463,90.718 177.751,87.344C178.439,86.329 179.098,85.237 179.099,84.654Z" style="fill:rgb(0,111,76);fill-rule:nonzero;"/>
            <path d="M177.11,98.056C177.14,98.072 177.222,98.097 177.339,98.097C177.898,98.025 179.402,96.689 180.83,95.081C178.974,95.4 178.055,96.025 177.601,96.555C177.051,97.197 177.078,97.832 177.087,97.932C177.09,97.949 177.088,97.941 177.091,97.97C177.097,98.017 177.105,98.044 177.11,98.056ZM208.175,98.79C208.273,98.798 208.37,98.801 208.465,98.801C209.212,98.801 209.822,98.573 210.472,98.276C210.468,98.167 210.467,98.048 210.47,97.92C210.467,97.791 210.468,97.664 210.473,97.537C210.011,97.888 209.563,98.132 209.282,98.285L209.127,98.369C208.838,98.531 208.592,98.659 208.175,98.79ZM208.352,102.673C207.749,102.673 207.117,102.611 206.42,102.483C204.841,102.193 203.9,101.54 202.894,100.58C202.818,100.508 202.732,100.423 202.643,100.326C202.529,100.504 202.412,100.688 202.292,100.879C201.624,101.939 200.633,102.5 199.425,102.5C198.239,102.5 197.381,101.842 197.24,100.867C195.413,101.951 193.947,102.5 192.871,102.5C191.782,102.5 191,102.246 190.479,101.723C190.044,101.287 189.824,100.705 189.826,99.991C189.826,99.481 190.087,98.823 190.749,97.648C189.529,98.621 188.235,99.541 187.654,99.91C187.316,100.197 186.878,100.475 186.285,100.778C186.278,100.782 186.27,100.786 186.263,100.789C186.094,100.871 185.916,100.96 185.73,101.053C184.435,101.697 182.823,102.5 181.476,102.501C180.644,102.5 180.033,102.288 179.61,101.852C178.92,102.233 178.092,102.5 176.995,102.501L176.401,102.502C176.334,102.502 176.267,102.496 176.201,102.484C174.755,102.226 173.685,101.591 173.02,100.598C172.108,99.234 172.342,97.73 172.401,97.431C173.179,92.712 178.315,90.936 182.868,90.848C182.955,90.847 183.047,90.846 183.143,90.846C184.545,90.846 185.566,91.011 186.176,91.338C186.215,91.358 186.252,91.381 186.288,91.406C186.867,91.807 187.196,92.411 187.214,93.106C187.232,93.801 186.93,94.492 186.445,94.867C186.326,94.959 186.182,95.034 186.034,95.096C185.74,95.59 185.391,96.195 185.053,96.788C185.328,96.617 185.58,96.456 185.776,96.323C185.811,96.298 185.846,96.271 185.881,96.245C185.916,96.218 185.951,96.192 185.986,96.166C186.01,96.146 186.034,96.126 186.06,96.108C187.356,95.16 188.415,94.173 189.277,93.109C189.164,92.828 189.104,92.521 189.104,92.203C189.103,91.486 189.394,90.78 189.903,90.27C190.435,89.738 191.166,89.445 191.963,89.445C192.653,89.445 193.315,89.661 193.828,90.053C194.249,90.375 194.533,90.779 194.644,91.201C194.88,91.171 195.14,91.145 195.406,91.145C197.137,91.145 198.391,92.209 198.391,93.676C198.392,94.261 198.116,94.906 197.625,95.758L197.742,95.673C198.579,95.07 200.312,93.822 200.634,93.434C201.917,91.333 202.905,89.324 203.777,87.55C205.492,84.062 206.625,81.758 208.661,81.756C210.333,81.758 211.082,82.811 211.084,83.854C211.083,85.482 209.612,87.765 208.054,90.184C207.877,90.458 207.699,90.735 207.523,91.01C207.726,90.99 207.937,90.979 208.155,90.979C208.559,90.979 208.973,91.017 209.384,91.091C210.99,91.384 211.957,92.317 212.172,93.752C212.176,93.748 212.18,93.743 212.184,93.739C213.758,92.116 216.316,91.067 218.702,91.066C220.402,91.066 221.64,91.464 222.383,92.248C222.91,92.804 223.166,93.537 223.122,94.365C223.1,94.787 222.984,95.2 222.774,95.602C224.036,94.588 225.736,92.972 225.982,92.525L226.298,91.841C225.592,91.807 224.903,91.32 224.899,90.279C224.9,88.839 225.773,87.797 226.975,87.795L228.153,87.795C228.96,85.401 230.377,82.619 232.614,82.619C233.527,82.619 234.593,83.195 234.595,84.819C234.595,85.412 234.235,86.278 233.478,87.835C234.085,87.969 234.662,88.451 234.66,89.491C234.661,91.223 233.56,91.841 232.617,91.843L231.615,91.844L231.236,92.577C230.468,94.062 229.593,95.753 228.955,97.039C229.275,96.832 229.571,96.636 229.777,96.499C230.82,95.807 231.037,95.662 231.456,95.662C231.706,95.663 232.933,95.767 232.937,97.761C232.933,99.241 232.306,99.828 230.902,100.589C230.564,100.778 227.423,102.5 225.379,102.501C222.755,102.497 222.55,100.912 222.55,100.427C222.55,100.422 222.55,100.418 222.55,100.413C220.96,101.411 218.569,102.5 215.707,102.5C214.262,102.5 213.128,102.211 212.266,101.622C212.254,101.628 212.242,101.634 212.229,101.64C211.242,102.124 210.124,102.673 208.352,102.673Z" style="fill:rgb(254,254,254);fill-rule:nonzero;"/>
            <path d="M218.068,93.888C218.178,93.888 218.731,93.795 218.988,94.151C219.448,94.786 218.506,95.375 218.418,95.443C217.258,96.341 215.68,97.152 214.301,97.677C214.388,95.618 217.071,93.888 218.068,93.888ZM233.525,89.488C233.526,89.058 233.399,88.932 233.116,88.931L231.676,88.93C232.301,87.638 233.46,85.429 233.46,84.82C233.459,84.212 233.243,83.754 232.615,83.754C230.796,83.754 229.545,87.205 229.2,88.247L228.982,88.931L226.977,88.93C226.444,88.931 226.036,89.465 226.035,90.275C226.037,90.581 226.131,90.708 226.382,90.708L228.073,90.709L227.006,93.016C226.665,93.752 224.153,96.007 222.996,96.867C221.157,98.234 218.307,99.438 216.331,99.437C215.549,99.436 214.897,99.184 215.067,99.123C215.615,98.926 216.023,98.756 217.148,98.269C217.805,97.984 221.879,96.363 221.989,94.304C222.08,92.583 220.268,92.202 218.703,92.201C215.541,92.203 211.498,94.392 211.606,97.918C211.584,98.707 211.736,98.939 211.716,98.948C210.621,99.452 209.58,100.049 208.043,99.919C205.968,99.744 204.907,98.298 205.677,98.166C207.897,97.787 208.141,97.619 208.627,97.349C209.195,97.033 211.026,96.136 211.08,94.516C211.124,93.202 210.509,92.45 209.182,92.209C206.497,91.721 204.895,93.285 204.895,93.285C206.212,90.466 209.948,85.935 209.949,83.856C209.948,83.297 209.57,82.893 208.662,82.892C206.562,82.894 205.185,88.17 201.585,94.056C201.273,94.558 199.2,96.019 198.001,96.887C197.866,96.97 197.687,97.133 197.392,97.354C196.732,97.838 195.212,98.854 194.908,98.929C194.565,99.014 194.39,98.853 194.5,98.651C194.512,98.628 194.594,98.497 194.72,98.295C196.128,95.986 197.257,94.437 197.256,93.675C197.256,92.815 196.443,92.28 195.409,92.28C194.846,92.281 194.251,92.433 193.906,92.433C193.625,92.432 193.561,91.797 193.561,91.596C193.561,91.241 192.967,90.581 191.963,90.58C190.899,90.58 190.239,91.367 190.24,92.204C190.24,92.534 190.366,92.915 190.679,93.144C189.677,94.539 188.394,95.808 186.731,97.024C186.728,97.028 186.725,97.032 186.723,97.035C186.626,97.103 186.525,97.184 186.425,97.255C185.641,97.786 183.556,99.038 183.219,99.115C182.625,99.251 182.631,98.869 182.685,98.718C182.737,98.575 184.424,95.556 185.272,94.16L184.287,92.928C184.035,92.929 183.871,93.337 183.684,93.284C182.649,94.884 178.939,99.234 177.341,99.233C176.837,99.233 176.074,99.033 175.964,98.102C175.964,98.102 175.307,94.051 182.727,93.753C184.012,93.701 185.109,94.185 185.109,94.185C185.202,94.185 185.631,94.061 185.751,93.968C186.053,93.736 186.354,92.832 185.642,92.339C185.053,92.025 183.713,91.968 182.89,91.984C179.291,92.053 174.212,93.339 173.519,97.635C173.519,97.635 172.843,100.73 176.401,101.366L176.994,101.365C178.438,101.364 179.255,100.831 180.191,100.046C180.128,100.883 180.348,101.364 181.476,101.365C182.728,101.364 184.513,100.376 185.768,99.768C186.341,99.474 186.722,99.223 186.977,98.995C187.861,98.45 191.164,96.05 192.212,94.793C192.652,94.285 192.808,94.107 193.436,94.107C193.749,94.107 194.03,94.158 194.031,94.311C194.031,94.616 190.962,99.056 190.962,99.994C190.96,100.907 191.493,101.364 192.87,101.364C194.149,101.365 196.199,100.246 197.961,99.067C198.283,98.905 198.782,98.455 199.264,98.168L199.327,98.218C199.108,98.651 198.355,99.97 198.355,100.579C198.356,101.112 198.825,101.364 199.421,101.364C200.142,101.365 200.826,101.077 201.331,100.274C204.129,95.83 206.301,93.208 208.13,94.078C208.357,94.186 208.545,94.441 208.597,94.691C208.89,96.093 205.648,96.94 202.924,97.5C202.265,98.185 203.194,99.297 203.678,99.758C204.62,100.656 205.386,101.138 206.626,101.366C209.723,101.935 210.905,100.963 212.439,100.284C212.811,100.678 213.596,101.365 215.705,101.364C218.367,101.365 220.685,100.295 222.252,99.254C222.335,99.193 222.799,98.876 222.865,98.816C223.229,98.621 223.643,98.246 224.69,97.584L224.751,97.583C224.218,98.8 223.689,99.969 223.686,100.426C223.686,101.214 224.628,101.364 225.379,101.365C226.914,101.365 229.544,100.047 230.362,99.59C231.675,98.879 231.8,98.574 231.802,97.763C231.801,97.103 231.643,96.798 231.457,96.798C231.238,96.797 228.135,99.132 227.352,99.132C227.101,99.133 226.946,99.031 226.946,98.802C226.947,98.344 229.013,94.412 230.924,90.708L232.615,90.708C233.276,90.706 233.525,90.201 233.525,89.488Z" style="fill:rgb(0,111,76);fill-rule:nonzero;"/>
            <path d="M160.427,81.404C201.665,81.404 235.097,72.768 235.097,62.115C235.097,51.463 201.665,42.825 160.427,42.825C119.188,42.825 85.757,51.463 85.757,62.115C85.757,72.768 119.188,81.404 160.427,81.404Z" style="fill:rgb(236,52,56);fill-rule:nonzero;"/>
            <path d="M95.304,71.649L226.133,71.649" style="fill-rule:nonzero;stroke:rgb(254,254,254);stroke-width:0.65px;"/>
            <path d="M108.217,48.183L213.227,48.183" style="fill-rule:nonzero;stroke:rgb(254,254,254);stroke-width:0.65px;"/>
            <path d="M88.089,57.569L169.227,57.569" style="fill-rule:nonzero;stroke:rgb(254,254,254);stroke-width:0.65px;"/>
            <path d="M175.973,57.569L233.172,57.569" style="fill-rule:nonzero;stroke:rgb(254,254,254);stroke-width:0.65px;"/>
            <path d="M86.036,62.263L163.947,62.263" style="fill-rule:nonzero;stroke:rgb(254,254,254);stroke-width:0.65px;"/>
            <path d="M180.141,62.263L235.287,62.263" style="fill-rule:nonzero;stroke:rgb(254,254,254);stroke-width:0.65px;"/>
            <path d="M87.974,66.956L162.774,66.956" style="fill-rule:nonzero;stroke:rgb(254,254,254);stroke-width:0.65px;"/>
            <path d="M179.786,66.956L233.172,66.956" style="fill-rule:nonzero;stroke:rgb(254,254,254);stroke-width:0.65px;"/>
            <path d="M109.266,76.342L211.76,76.342" style="fill-rule:nonzero;stroke:rgb(254,254,254);stroke-width:0.65px;"/>
            <path d="M206.04,52.582L188.587,52.582C188.587,52.582 185.641,64.939 185.213,66.222C184.627,67.982 184.627,71.502 188.294,71.649L201.787,71.649L202.96,66.662L191.374,66.662L191.96,64.462L203.107,64.462L204.427,59.915L193.134,59.915L193.866,57.715L204.867,57.715L206.04,52.582Z" style="fill:rgb(254,254,254);fill-rule:nonzero;"/>
            <path d="M125.96,52.582C124.786,52.582 124.2,52.729 123.466,53.462L105.171,74.642L111.44,76.635L119.36,67.688L129.48,67.688L129.92,71.649L136.226,71.649C136.226,71.649 135.053,56.689 135.053,55.662C135.053,54.635 134.026,52.435 131.827,52.435L125.96,52.582Z" style="fill:rgb(254,254,254);fill-rule:nonzero;"/>
            <path d="M128.6,56.982L123.907,62.262L129.04,62.262L128.6,56.982Z" style="fill:rgb(236,52,56);fill-rule:nonzero;"/>
            <path d="M160.777,81.404C202.015,81.404 235.447,72.768 235.447,62.115C235.447,51.463 202.015,42.825 160.777,42.825C119.538,42.825 86.107,51.463 86.107,62.115C86.107,72.768 119.538,81.404 160.777,81.404Z" style="fill:none;stroke:rgb(254,254,254);stroke-width:1.23px;"/>
            <path d="M95.015,52.701L226.133,52.701" style="fill-rule:nonzero;stroke:rgb(254,254,254);stroke-width:0.65px;"/>
            <path d="M144.147,52.582C142.827,52.582 141.8,52.435 141.214,54.195C140.627,55.956 138.134,65.782 137.84,66.955C137.547,68.128 137.401,71.502 141.067,71.649L154.12,71.649L155.734,66.662L144.294,66.662L146.494,57.715L156.76,57.715C158.227,57.715 159.694,52.875 155.587,52.582L144.147,52.582Z" style="fill:rgb(254,254,254);fill-rule:nonzero;"/>
            <path d="M161.82,52.509L156.98,71.576L163.14,71.576L165.78,61.162L166.806,71.576L170.914,71.576L177.806,61.602L175.313,71.576L181.473,71.576L186.753,52.509L179.86,52.509C178.687,52.509 176.78,53.096 175.9,54.709L171.792,61.016C171.792,61.016 171.206,56.616 171.059,55.296C170.914,53.976 170.18,52.363 167.393,52.509L161.82,52.509Z" style="fill:rgb(254,254,254);fill-rule:nonzero;"/>
            <path d="M142.729,40.77C142.729,47.344 150.472,52.494 160.133,52.494C169.794,52.494 177.537,47.344 177.537,40.77C177.537,34.196 169.794,29.221 160.133,29.221C150.472,29.221 142.729,34.196 142.729,40.77Z" style="fill:rgb(254,254,254);fill-rule:nonzero;"/>
            <path d="M160.134,51.218C169.069,51.218 176.312,46.541 176.312,40.77C176.312,35.001 169.069,30.323 160.134,30.323C151.199,30.323 143.955,35.001 143.955,40.77C143.955,46.541 151.199,51.218 160.134,51.218Z" style="fill:rgb(236,52,56);fill-rule:nonzero;"/>
            <path d="M161.16,51.467L161.16,47.506C161.16,47.506 162.204,48.253 163.287,48.093C168.265,47.36 166.733,44.647 169.52,43.253C169.993,43.016 176.266,39.513 176.266,39.513C176.266,39.513 176.193,38.853 176.046,38.413L169.3,42.007C168.493,42.593 167.54,43.18 164.753,43.18C160.646,43.18 161.38,46.15 160.207,46.113C159.033,46.113 159.73,43.18 155.66,43.18C152.873,43.18 151.92,42.593 151.113,42.007L144.293,38.34C144.147,38.78 144.073,39.44 144.073,39.44C144.073,39.44 150.42,43.016 150.893,43.253C153.68,44.647 152.222,47.182 157.126,48.093C158.145,48.282 159.252,47.506 159.252,47.506L159.252,51.467C159.986,51.54 161.16,51.467 161.16,51.467Z" style="fill:rgb(254,254,254);fill-rule:nonzero;"/>
            <path d="M160.28,42.447C159.475,42.501 158.814,37.89 154.854,37.607C153.827,37.534 153.24,37.167 152.873,36.874L148.327,33.427L147.3,34.307C147.3,34.307 151.726,37.639 152.214,37.973C153.387,38.78 153.754,42.08 156.32,42.447C158.887,42.814 159.4,44.867 160.28,44.867C161.454,44.867 160.791,43.023 164.68,42.3C167.169,41.837 166.689,39.102 168.64,37.827L172.967,34.344L172.087,33.61C172.087,33.61 168.028,36.619 167.541,37.02C166.294,38.047 164.591,37.647 163.067,38.634C160.573,40.247 161.38,42.374 160.28,42.447Z" style="fill:rgb(254,254,254);fill-rule:nonzero;"/>
            <path d="M159.767,30.237L160.866,30.237C160.866,33.17 162.407,33.94 162.407,36.214C162.407,38.635 160.573,41.201 160.207,41.201C159.767,41.201 157.896,38.485 158.006,36.434C158.154,33.72 159.767,32.95 159.767,30.237Z" style="fill:rgb(254,254,254);fill-rule:nonzero;"/>
            <path d="M111.786,95.982C111.507,96.534 111.111,97.203 110.589,98.062C110.777,98.022 110.965,97.979 111.152,97.934C111.21,97.92 111.271,97.906 111.334,97.891C111.365,97.249 111.522,96.601 111.786,95.982ZM125.743,98.538C125.789,98.54 125.835,98.542 125.882,98.543C125.937,98.489 126.01,98.392 126.089,98.255C125.969,98.353 125.853,98.448 125.743,98.538ZM89.078,102.705C88,102.705 86.794,102.7 86.794,102.7C86.306,102.699 85.873,102.385 85.72,101.921C85.567,101.457 85.728,100.947 86.12,100.655C86.123,100.652 86.47,100.393 86.876,100.073C87.804,99.34 89.023,98.242 90.499,96.81C91.061,96.263 91.628,95.643 92.12,95.076L91.789,95.076C91.341,95.076 90.936,94.813 90.753,94.405C90.57,93.997 90.643,93.519 90.941,93.185L92.896,90.988C93.109,90.701 93.597,90.156 94.282,90.058C94.495,90.027 94.76,90.012 95.071,90.012C95.291,90.012 95.476,90.02 95.541,90.023L95.725,90.026L98.023,86.749C98.023,86.749 97.57,86.753 97.562,86.753C97.532,86.752 97.503,86.751 97.473,86.749C97.046,86.721 96.666,86.455 96.498,86.061C96.33,85.667 96.394,85.212 96.669,84.884C98.227,83.033 98.53,82.673 98.609,82.583L98.608,82.582C99.245,81.892 100.259,81.838 100.554,81.838L100.565,81.838C103.202,81.646 105.366,81.501 107.791,81.356C110.004,81.222 114.467,80.909 114.512,80.906C114.539,80.904 114.565,80.903 114.592,80.903C114.994,80.903 115.368,81.117 115.573,81.467C115.79,81.841 115.777,82.306 115.538,82.667C115.219,83.147 114.142,84.753 113.656,85.251C113.429,85.483 113.229,85.611 113.053,85.723L112.984,85.767C112.96,85.783 112.934,85.798 112.909,85.812L112.89,85.823C112.609,85.986 112.23,86.165 111.544,86.267C111.115,86.331 110.222,86.371 108.68,86.436L107.959,86.467C106.842,86.516 105.241,86.567 103.905,86.584C103.857,86.664 103.808,86.739 103.753,86.81L101.571,90.032C101.571,90.032 103.356,90.022 103.358,90.022C103.789,90.022 104.182,90.266 104.374,90.652C104.385,90.673 104.395,90.695 104.404,90.717C104.876,90.378 105.456,90.194 106.077,90.193C107.429,90.193 108.428,91.008 108.687,91.867C108.906,91.839 109.146,91.816 109.392,91.815C111.083,91.815 112.307,92.853 112.312,94.283C112.313,94.65 112.213,95.043 112,95.531C112.564,94.451 113.456,93.491 114.565,92.846C116.17,91.913 118.163,91.353 119.894,91.347C119.895,91.347 119.911,91.347 119.912,91.347C121.396,91.347 122.468,91.78 123.098,92.636C123.705,93.46 123.844,94.417 123.51,95.379C123.872,95.086 124.227,94.785 124.581,94.48C124.922,94.187 125.25,93.924 125.567,93.669C126.13,93.217 126.629,92.816 127.019,92.391C127.085,91.584 127.384,90.611 128.071,89.899C128.621,89.329 129.328,89.026 130.116,89.023C131.497,89.023 132.46,89.979 132.464,91.347C132.467,92.316 132.031,92.878 131.779,93.171C131.78,93.194 131.78,93.219 131.781,93.244C131.79,93.727 131.805,94.534 131.784,95.476C131.78,95.595 131.759,96.056 131.669,96.653C131.679,96.646 131.689,96.64 131.698,96.634C131.857,96.528 132.004,96.43 132.132,96.347C132.177,96.303 132.223,96.263 132.272,96.226C132.282,96.218 132.293,96.21 132.303,96.202L132.625,95.973C133.297,95.494 135.328,94.048 135.681,93.566C135.902,93.118 136.198,92.471 136.54,91.725C139.518,85.219 141.15,82.316 142.945,82.311C142.946,82.311 142.962,82.311 142.963,82.311C145.145,82.311 145.319,83.845 145.321,84.316C145.328,86.65 142.459,91.11 140.708,93.613L140.503,94.033C142.568,92.623 144.353,91.423 145.804,91.419C147.498,91.419 148.267,92.434 148.269,93.376C148.272,94.158 147.798,95.145 147.054,96.379C147.184,96.298 147.299,96.226 147.396,96.168L147.745,95.959C147.924,95.852 148.126,95.797 148.329,95.797C148.447,95.797 148.565,95.815 148.679,95.852C148.991,95.953 149.244,96.185 149.373,96.486L149.468,96.707C149.627,97.081 149.727,97.604 149.729,98.075C149.733,99.582 148.368,100.323 147.785,100.639C146.347,101.442 144.211,102.518 142.404,102.523C140.453,102.523 139.76,101.364 139.757,100.371C139.756,100.047 139.878,99.639 140.229,98.929C140.064,99.045 139.893,99.168 139.714,99.297C139.198,99.669 138.709,100.037 138.236,100.392C136.301,101.844 135.331,102.543 134.427,102.546C133.027,102.546 132.409,101.768 132.265,100.981C130.681,101.875 129.286,102.269 127.779,102.273C127.193,102.274 126.937,102.319 126.797,102.354C126.764,102.365 126.733,102.376 126.701,102.387C126.493,102.461 126.179,102.571 125.73,102.571C123.915,102.571 122.871,101.815 122.48,100.888C121.065,101.685 118.907,102.591 116.406,102.599L116.382,102.599C114.959,102.599 113.849,102.311 113.014,101.722C112.217,101.941 111.302,102.138 110.356,102.292C109.76,102.389 109.15,102.464 108.544,102.515C108.316,102.534 108.089,102.55 107.863,102.562C107.67,102.573 107.439,102.584 107.18,102.584C105.843,102.584 104.953,102.273 104.46,101.634C104.161,101.247 104.009,100.758 104.007,100.183C104.006,99.753 104.188,99.234 104.637,98.41C104.243,98.733 103.828,99.057 103.411,99.359C102.113,100.302 101.822,100.462 101.337,100.709C101.239,100.758 101.13,100.814 100.991,100.889C100.757,101.015 100.133,101.309 99.397,101.309C99.314,101.309 99.231,101.305 99.148,101.298C97.804,101.172 96.904,100.178 96.806,100.066C96.578,99.804 96.483,99.452 96.547,99.111C96.61,98.77 96.827,98.477 97.134,98.315C99.125,97.268 100.557,96.379 101.391,95.674C101.418,95.652 101.441,95.632 101.461,95.616C101.849,95.285 102.779,94.452 103.442,93.722C103.369,93.526 103.322,93.318 103.302,93.103C103.302,93.103 102.507,94.146 102.503,94.151C102.432,94.241 102.226,94.473 101.843,94.702C101.46,94.933 101.075,95.015 100.966,95.035C100.902,95.046 100.837,95.053 100.771,95.053L97.917,95.072C96.456,97.063 93.731,100.43 91.279,102.441C91.081,102.604 90.834,102.694 90.577,102.699C90.327,102.703 89.822,102.705 89.078,102.705Z" style="fill:rgb(254,254,254);fill-rule:nonzero;"/>
            <path d="M115.317,97.757C115.231,97.786 115.151,97.812 115.109,97.83C115.111,97.481 115.207,97.105 115.352,96.804C115.894,95.677 117.484,94.244 118.97,94.241C119.461,94.239 119.702,94.507 119.722,94.894C119.772,95.846 115.934,97.554 115.317,97.757ZM108.763,98.874C108.764,98.872 108.765,98.87 108.767,98.867C110.115,96.646 111.179,95.017 111.177,94.286C111.174,93.458 110.389,92.948 109.397,92.949C108.854,92.952 108.283,93.101 107.952,93.101C107.68,93.102 107.618,92.492 107.618,92.297C107.617,91.955 107.042,91.325 106.079,91.327C105.055,91.329 104.426,92.087 104.429,92.892C104.429,93.208 104.551,93.575 104.852,93.792C104.069,94.888 102.189,96.486 102.189,96.486C101.95,96.682 101.021,97.553 97.663,99.319C97.663,99.319 98.324,100.079 99.254,100.166C99.722,100.21 100.2,100.025 100.452,99.889C101.182,99.495 101.131,99.61 102.744,98.44C104.065,97.481 105.475,96.205 106.332,95.372C106.794,94.923 106.903,94.713 107.504,94.711C107.805,94.71 108.076,94.758 108.077,94.905C108.078,95.197 105.14,99.278 105.143,100.179C105.144,100.496 105.211,100.748 105.359,100.94C105.807,101.52 107.186,101.462 107.8,101.428C108.016,101.416 108.233,101.4 108.449,101.382C109.026,101.334 109.602,101.263 110.174,101.17C111.049,101.028 111.983,100.834 112.835,100.592C112.984,100.549 113.133,100.506 113.282,100.46C113.965,101.172 115.032,101.466 116.402,101.463C118.962,101.455 121.276,100.376 122.779,99.373C122.834,99.332 122.879,99.294 122.926,99.255C123.557,98.98 127.411,95.58 127.729,95.58C127.79,95.58 127.82,95.701 127.821,95.897C127.822,96.287 127.703,97.017 127.614,97.41C127.346,98.529 126.748,99.676 125.995,99.679C125.272,99.681 124.701,99.537 124.188,99.539C123.826,99.539 123.436,99.64 123.437,100.004C123.44,100.929 124.404,101.439 125.729,101.435C126.06,101.435 126.241,101.337 126.481,101.263C126.752,101.189 127.114,101.138 127.776,101.136C129.432,101.132 130.905,100.591 132.829,99.294C132.856,99.275 132.879,99.259 132.906,99.238C133.111,99.151 133.447,98.878 133.893,98.573L134.309,98.29L134.036,98.841C133.753,99.411 133.365,100.206 133.366,100.608C133.368,101.17 133.73,101.412 134.423,101.41C135.175,101.407 136.918,99.915 139.05,98.374C141.634,96.514 143.016,95.753 143.197,95.754C143.227,95.753 143.258,95.802 143.258,95.874C143.259,95.973 140.89,99.709 140.892,100.367C140.895,101.122 141.618,101.389 142.401,101.387C143.966,101.383 146.012,100.328 147.243,99.641C148.144,99.152 148.595,98.713 148.594,98.078C148.592,97.725 148.512,97.36 148.424,97.153L148.329,96.932L147.981,97.141C147.175,97.625 145.07,99.039 144.472,99.041C144.321,99.041 144.261,98.993 144.26,98.871C144.258,98.334 147.138,94.694 147.134,93.378C147.133,92.963 146.74,92.551 145.807,92.554C144,92.559 140.457,95.713 137.812,97.085L137.752,97.087L139.727,93.034C141.286,90.812 144.191,86.317 144.186,84.319C144.184,83.88 144.003,83.441 142.948,83.445C141.262,83.45 137.916,91.602 136.688,94.09C136.389,94.725 133.956,96.414 132.965,97.124C132.929,97.152 132.899,97.186 132.871,97.222C132.132,97.682 130.467,98.921 129.636,98.962C130.386,98.131 130.621,96.254 130.649,95.45C130.676,94.231 130.641,93.228 130.64,92.913C130.638,92.497 131.331,92.35 131.328,91.35C131.327,90.739 130.994,90.157 130.12,90.158C128.676,90.163 128.108,91.773 128.142,92.821C127.435,93.725 126.406,94.407 125.322,95.341C123.595,96.826 122.025,98.056 119.886,98.913C118.938,99.292 117.881,99.606 116.999,99.609C116.675,99.61 116.345,99.525 116.074,99.397C116.119,99.377 116.164,99.357 116.209,99.337C116.291,99.301 116.373,99.27 116.455,99.242C117.166,98.998 121.31,97.191 122.272,95.382C122.625,94.718 122.688,93.994 122.184,93.308C121.728,92.689 120.891,92.479 119.898,92.481C118.372,92.487 116.575,92.991 115.135,93.827C113.396,94.838 112.314,96.755 112.481,98.467C112.49,98.566 112.502,98.663 112.517,98.76C112.445,98.782 112.372,98.803 112.299,98.824C112.031,98.9 111.691,98.971 111.419,99.037C110.702,99.211 109.979,99.346 109.248,99.443C108.84,99.496 108.347,99.55 108.763,98.874ZM101.328,91.168L99.316,91.168L99.43,91.168L102.842,86.129C102.941,86.021 103.144,85.583 103.285,85.453C104.645,85.447 106.551,85.391 107.91,85.332C109.537,85.261 110.917,85.211 111.377,85.144C112.014,85.049 112.244,84.88 112.367,84.813C112.556,84.691 112.686,84.618 112.844,84.457C113.292,83.997 114.592,82.038 114.592,82.038C114.592,82.038 110.104,82.353 107.859,82.488C105.323,82.641 103.133,82.788 100.599,82.973C100.297,82.965 99.726,83.044 99.443,83.351C99.44,83.354 97.538,85.614 97.538,85.614C97.554,85.616 97.57,85.617 97.586,85.617L99.995,85.596C100.058,85.599 100.119,85.601 100.179,85.603L99.789,86.209L96.31,91.168L96.208,91.168L95.504,91.157C95.504,91.157 94.857,91.122 94.443,91.181C94.113,91.228 93.783,91.7 93.783,91.7L91.789,93.939L94.521,93.939C94.521,93.939 92.909,96.051 91.29,97.624C90.396,98.491 88.857,99.955 87.58,100.963C87.155,101.298 86.799,101.564 86.799,101.564C86.799,101.564 89.795,101.575 90.559,101.563C93,99.56 95.86,96.013 97.334,93.939L100.764,93.917C100.764,93.917 101.023,93.87 101.259,93.728C101.506,93.58 101.613,93.445 101.613,93.445L103.358,91.157L101.328,91.168Z" style="fill:rgb(0,111,76);fill-rule:nonzero;"/>
        </g>
    </g>
</svg>
