<?xml version="1.0" encoding="UTF-8" standalone="no"?>
<svg
   xmlns:dc="http://purl.org/dc/elements/1.1/"
   xmlns:cc="http://creativecommons.org/ns#"
   xmlns:rdf="http://www.w3.org/1999/02/22-rdf-syntax-ns#"
   xmlns:svg="http://www.w3.org/2000/svg"
   xmlns="http://www.w3.org/2000/svg"
   xml:space="preserve"
   enable-background="new 0 0 262.442 83.794"
   viewBox="0 0 300.00002 100"
   height="100"
   width="300"
   y="0px"
   x="0px"
   id="レイヤー_1"
   version="1.1"><metadata
     id="metadata9"><rdf:RDF><cc:Work
         rdf:about=""><dc:format>image/svg+xml</dc:format><dc:type
           rdf:resource="http://purl.org/dc/dcmitype/StillImage" /><dc:title></dc:title></cc:Work></rdf:RDF></metadata><defs
     id="defs7" /><path
     style="clip-rule:evenodd;fill:#ffffff;fill-opacity:1;fill-rule:evenodd;stroke-width:1.14310968"
     id="path2"
     d="m 125.97526,58.931116 c 0,-2.8452 -0.63214,-5.532651 -0.63214,-9.009991 0,-26.713331 21.81282,-48.52615 47.89173,-48.52615 26.71333,0 47.89401,21.812819 47.89401,48.52615 0,26.711045 -21.18182,48.6839 -47.89401,48.6839 -19.9164,0 -36.98532,-12.329581 -44.57328,-30.190671 -3.31959,0 -7.43021,0 -11.53969,0 -12.32844,0 -24.024739,-0.632139 -34.297866,-2.055311 v 0 21.339572 H 128.02943 V 97.18071 H 73.181884 V 64.304875 C 60.222449,61.617424 52.00349,56.875805 52.00349,51.975293 c 0,-4.741619 6.164791,-10.273127 21.178394,-12.961721 V 10.247216 L 12.328438,97.18071 H 0 L 64.964068,3.450286 H 128.03057 V 13.725699 H 82.825158 v 23.865845 c 6.795787,-0.63214 15.015889,-1.265423 24.655732,-1.265423 -9.639843,0 -17.859945,1.265423 -24.655732,2.687451 v 17.862233 c 9.640987,1.263136 21.970572,2.687451 35.563282,2.687451 2.84406,0 5.53151,0 7.58797,0 v -0.63214 z M 300,3.450286 V 97.18071 H 289.72459 L 236.3025,21.153626 V 97.18071 h -9.63985 V 3.450286 h 9.63985 l 53.42209,76.660367 V 3.450286 Z M 139.72573,67.782215 c 24.65802,-2.687451 42.36136,-8.217816 42.36136,-15.806922 0,-6.163647 -8.21667,-11.537406 -34.93115,-14.383749 15.80464,2.054168 26.71448,6.954679 26.71448,11.064159 0,4.741619 -15.64917,8.851098 -37.61974,10.27427 -0.63214,-2.8452 -0.63214,-5.532651 -0.63214,-9.009991 0,-21.181823 17.07005,-38.250737 37.61745,-38.250737 21.18068,0 38.40849,17.068914 38.40849,38.250737 0,21.338429 -17.22781,39.040626 -38.40849,39.040626 -14.38489,0.0011 -27.34433,-8.851098 -33.51026,-21.178393 z M 73.181884,54.820494 C 66.386097,53.398465 62.27776,50.711014 62.27776,48.655703 c 0,-2.054168 4.108337,-4.900511 10.904124,-6.95468 z" /></svg>