<?xml version="1.0" encoding="UTF-8" standalone="no"?>
<!-- Created with Inkscape (http://www.inkscape.org/) -->

<svg
   version="1.1"
   id="svg2"
   width="187.81598"
   height="60.468281"
   viewBox="0 0 187.81598 60.46828"
   sodipodi:docname="Ahold Delhaize.svg"
   inkscape:version="1.2 (dc2aedaf03, 2022-05-15)"
   xmlns:inkscape="http://www.inkscape.org/namespaces/inkscape"
   xmlns:sodipodi="http://sodipodi.sourceforge.net/DTD/sodipodi-0.dtd"
   xmlns="http://www.w3.org/2000/svg"
   xmlns:svg="http://www.w3.org/2000/svg">
  <defs
     id="defs6">
    <clipPath
       clipPathUnits="userSpaceOnUse"
       id="clipPath18">
      <path
         d="m 354.676,507.402 h 141.043 v 45.354 H 354.676 Z"
         id="path16" />
    </clipPath>
    <clipPath
       clipPathUnits="userSpaceOnUse"
       id="clipPath158">
      <path
         d="M 643.938,141.732 H 748.346 V 246.614 H 643.938 Z"
         id="path156" />
    </clipPath>
    <clipPath
       clipPathUnits="userSpaceOnUse"
       id="clipPath172">
      <path
         d="M 93.543,252.284 H 197.951 V 357.166 H 93.543 Z"
         id="path170" />
    </clipPath>
    <clipPath
       clipPathUnits="userSpaceOnUse"
       id="clipPath186">
      <path
         d="M 93.543,141.732 H 197.951 V 246.614 H 93.543 Z"
         id="path184" />
    </clipPath>
    <clipPath
       clipPathUnits="userSpaceOnUse"
       id="clipPath200">
      <path
         d="M 313.701,362.835 H 418.109 V 467.717 H 313.701 Z"
         id="path198" />
    </clipPath>
    <clipPath
       clipPathUnits="userSpaceOnUse"
       id="clipPath214">
      <path
         d="M 313.701,252.284 H 418.109 V 357.166 H 313.701 Z"
         id="path212" />
    </clipPath>
    <clipPath
       clipPathUnits="userSpaceOnUse"
       id="clipPath230">
      <path
         d="M 203.598,362.835 H 308.007 V 467.717 H 203.598 Z"
         id="path228" />
    </clipPath>
    <clipPath
       clipPathUnits="userSpaceOnUse"
       id="clipPath246">
      <path
         d="M 533.859,252.284 H 638.267 V 357.166 H 533.859 Z"
         id="path244" />
    </clipPath>
    <clipPath
       clipPathUnits="userSpaceOnUse"
       id="clipPath260">
      <path
         d="M 533.858,141.732 H 638.267 V 246.614 H 533.858 Z"
         id="path258" />
    </clipPath>
    <clipPath
       clipPathUnits="userSpaceOnUse"
       id="clipPath274">
      <path
         d="M 203.598,246.614 H 308.007 V 141.732 H 203.598 Z"
         id="path272" />
    </clipPath>
    <clipPath
       clipPathUnits="userSpaceOnUse"
       id="clipPath288">
      <path
         d="M 423.78,362.835 H 528.189 V 467.717 H 423.78 Z"
         id="path286" />
    </clipPath>
    <clipPath
       clipPathUnits="userSpaceOnUse"
       id="clipPath302">
      <path
         d="M 423.78,252.284 H 528.189 V 357.166 H 423.78 Z"
         id="path300" />
    </clipPath>
    <clipPath
       clipPathUnits="userSpaceOnUse"
       id="clipPath316">
      <path
         d="M 313.701,246.614 H 418.109 V 141.732 H 313.701 Z"
         id="path314" />
    </clipPath>
    <clipPath
       clipPathUnits="userSpaceOnUse"
       id="clipPath330">
      <path
         d="M 643.939,362.835 H 748.346 V 467.717 H 643.939 Z"
         id="path328" />
    </clipPath>
    <clipPath
       clipPathUnits="userSpaceOnUse"
       id="clipPath346">
      <path
         d="M 643.939,252.284 H 748.346 V 357.166 H 643.939 Z"
         id="path344" />
    </clipPath>
    <clipPath
       clipPathUnits="userSpaceOnUse"
       id="clipPath360">
      <path
         d="M 93.543,362.835 H 197.951 V 467.717 H 93.543 Z"
         id="path358" />
    </clipPath>
    <clipPath
       clipPathUnits="userSpaceOnUse"
       id="clipPath372">
      <path
         d="M 0,0 H 841.89 V 595.276 H 0 Z"
         id="path370" />
    </clipPath>
    <clipPath
       clipPathUnits="userSpaceOnUse"
       id="clipPath398">
      <path
         d="M 0,0 H 841.89 V 595.276 H 0 Z"
         id="path396" />
    </clipPath>
    <clipPath
       clipPathUnits="userSpaceOnUse"
       id="clipPath418">
      <path
         d="M 0,0 H 841.89 V 595.276 H 0 Z"
         id="path416" />
    </clipPath>
    <clipPath
       clipPathUnits="userSpaceOnUse"
       id="clipPath450">
      <path
         d="M 0,0 H 841.89 V 595.276 H 0 Z"
         id="path448" />
    </clipPath>
  </defs>
  <sodipodi:namedview
     id="namedview4"
     pagecolor="#505050"
     bordercolor="#eeeeee"
     borderopacity="1"
     inkscape:showpageshadow="0"
     inkscape:pageopacity="0"
     inkscape:pagecheckerboard="0"
     inkscape:deskcolor="#505050"
     showgrid="false"
     inkscape:zoom="7.6543686"
     inkscape:cx="84.918826"
     inkscape:cy="35.861873"
     inkscape:window-width="1920"
     inkscape:window-height="1001"
     inkscape:window-x="-9"
     inkscape:window-y="-9"
     inkscape:window-maximized="1"
     inkscape:current-layer="g8" />
  <g
     id="g8"
     inkscape:groupmode="layer"
     inkscape:label="ahold-delhaize-annual-report-2019"
     transform="matrix(1.3333333,0,0,-1.3333333,-473.14133,737.00426)">
    <g
       id="g12"
       style="fill:#00cc00;fill-opacity:1">
      <g
         id="g14"
         clip-path="url(#clipPath18)"
         style="fill:#00cc00;fill-opacity:1">
        <g
           id="g20"
           transform="translate(489.529,520.8572)"
           style="fill:#00cc00;fill-opacity:1">
          <path
             d="m 0,0 c -3.789,0 -6.647,-2.88 -6.647,-6.7 0,-3.82 2.881,-6.701 6.701,-6.701 2.028,0 3.941,0.782 5.165,2.101 l -1.673,1.788 c -0.602,-0.602 -1.744,-1.425 -3.492,-1.425 -2.138,0 -3.786,1.364 -4.1,3.395 l -0.042,0.269 H 6.189 V -6.7 C 6.009,-2.571 3.637,0 0,0 m -4.044,-5.455 0.085,0.297 c 0.497,1.74 2.001,2.91 3.744,2.91 1.942,0 3.259,-1.068 3.614,-2.931 l 0.053,-0.276 z"
             style="fill:#00cc00;fill-opacity:1;fill-rule:nonzero;stroke:none"
             id="path22" />
        </g>
        <g
           id="g24"
           transform="translate(422.9852,520.8572)"
           style="fill:#00cc00;fill-opacity:1">
          <path
             d="m 0,0 c -3.789,0 -6.646,-2.88 -6.646,-6.7 0,-3.82 2.88,-6.701 6.7,-6.701 2.028,0 3.942,0.782 5.166,2.101 l -1.674,1.788 c -0.601,-0.602 -1.743,-1.425 -3.492,-1.425 -2.138,0 -3.786,1.364 -4.1,3.395 l -0.042,0.269 H 6.19 V -6.7 C 6.008,-2.571 3.637,0 0,0 m -4.044,-5.455 0.084,0.297 c 0.498,1.74 2.003,2.91 3.745,2.91 1.941,0 3.258,-1.068 3.615,-2.931 l 0.053,-0.276 z"
             style="fill:#00cc00;fill-opacity:1;fill-rule:nonzero;stroke:none"
             id="path26" />
        </g>
        <g
           id="g28"
           transform="translate(467.3433,526.5544)"
           style="fill:#00cc00;fill-opacity:1">
          <path
             d="m 0,0 c -1,0 -1.814,-0.814 -1.814,-1.814 0,-1 0.814,-1.814 1.814,-1.814 1,0 1.814,0.814 1.814,1.814 C 1.814,-0.814 1,0 0,0"
             style="fill:#00cc00;fill-opacity:1;fill-rule:nonzero;stroke:none"
             id="path30" />
        </g>
        <path
           d="m 431.452,507.672 h 2.49 v 18.613 h -2.49 z"
           style="fill:#00cc00;fill-opacity:1;fill-rule:nonzero;stroke:none"
           id="path32" />
        <path
           d="m 466.102,507.672 h 2.49 v 12.97 h -2.49 z"
           style="fill:#00cc00;fill-opacity:1;fill-rule:nonzero;stroke:none"
           id="path34" />
        <g
           id="g36"
           transform="translate(471.1592,520.6425)"
           style="fill:#00cc00;fill-opacity:1">
          <path
             d="m 0,0 v -2.168 h 7.128 l -7.132,-9.92 v -0.882 h 10.712 v 2.167 h -7.15 l 7.15,9.946 V 0 Z"
             style="fill:#00cc00;fill-opacity:1;fill-rule:nonzero;stroke:none"
             id="path38" />
        </g>
        <g
           id="g40"
           transform="translate(450.4824,514.1573)"
           style="fill:#00cc00;fill-opacity:1">
          <path
             d="m 0,0 c 0,-3.82 2.869,-6.7 6.674,-6.7 1.335,0 2.53,0.391 3.455,1.131 l 0.378,0.303 v -1.219 h 2.491 V 6.485 H 10.507 V 5.239 L 10.129,5.542 C 9.182,6.299 7.987,6.7 6.674,6.7 2.869,6.7 0,3.819 0,0 M 10.469,2.413 10.507,2.354 V -2.355 L 10.469,-2.413 C 9.684,-3.605 8.24,-4.345 6.7,-4.345 4.308,-4.345 2.571,-2.518 2.571,0 c 0,2.518 1.737,4.345 4.129,4.345 1.54,0 2.984,-0.741 3.769,-1.932"
             style="fill:#00cc00;fill-opacity:1;fill-rule:nonzero;stroke:none"
             id="path42" />
        </g>
        <g
           id="g44"
           transform="translate(443.1373,520.8572)"
           style="fill:#00cc00;fill-opacity:1">
          <path
             d="m 0,0 c -1.462,0 -2.77,-0.511 -3.591,-1.403 l -0.404,-0.44 v 7.271 h -2.491 v -18.613 h 2.491 v 8.27 l 0.012,0.037 c 0.552,1.626 1.766,2.523 3.418,2.523 2.141,0 3.297,-1.671 3.297,-3.243 v -7.587 h 2.49 v 7.64 C 5.222,-2.176 3.172,0 0,0"
             style="fill:#00cc00;fill-opacity:1;fill-rule:nonzero;stroke:none"
             id="path46" />
        </g>
        <g
           id="g48"
           transform="translate(405.0779,526.2855)"
           style="fill:#00cc00;fill-opacity:1">
          <path
             d="M 0,0 H -5.814 V -18.614 H 0 c 5.565,0 9.763,4.001 9.763,9.307 C 9.763,-4.002 5.565,0 0,0 M 0,-16.178 H -3.162 V -2.436 H 0 c 4.09,0 7.058,-2.89 7.058,-6.871 0,-3.981 -2.968,-6.871 -7.058,-6.871"
             style="fill:#00cc00;fill-opacity:1;fill-rule:nonzero;stroke:none"
             id="path50" />
        </g>
        <path
           d="m 447.657,530.593 h 2.49 v 18.614 h -2.49 z"
           style="fill:#00cc00;fill-opacity:1;fill-rule:nonzero;stroke:none"
           id="path52" />
        <g
           id="g54"
           transform="translate(406.2447,549.2065)"
           style="fill:#00cc00;fill-opacity:1">
          <path
             d="m 0,0 -7.656,-18.614 h 2.826 l 1.709,4.247 h 8.296 l 1.709,-4.247 H 9.737 L 2.081,0 Z m -2.245,-11.986 3.286,8.186 3.257,-8.186 z"
             style="fill:#00cc00;fill-opacity:1;fill-rule:nonzero;stroke:none"
             id="path56" />
        </g>
        <g
           id="g58"
           transform="translate(424.7385,543.7783)"
           style="fill:#00cc00;fill-opacity:1">
          <path
             d="m 0,0 c -1.461,0 -2.77,-0.512 -3.591,-1.403 l -0.404,-0.439 v 7.27 h -2.491 v -18.613 h 2.491 v 8.27 l 0.012,0.036 c 0.552,1.627 1.766,2.523 3.419,2.523 2.141,0 3.296,-1.67 3.296,-3.243 v -7.586 h 2.49 v 7.641 C 5.222,-2.176 3.172,0 0,0"
             style="fill:#00cc00;fill-opacity:1;fill-rule:nonzero;stroke:none"
             id="path60" />
        </g>
        <g
           id="g62"
           transform="translate(438.8123,543.7783)"
           style="fill:#00cc00;fill-opacity:1">
          <path
             d="m 0,0 c -3.835,0 -6.727,-2.88 -6.727,-6.7 0,-3.82 2.892,-6.701 6.727,-6.701 3.835,0 6.727,2.881 6.727,6.701 C 6.727,-2.88 3.835,0 0,0 m 0,-11.045 c -2.409,0 -4.157,1.827 -4.157,4.345 0,2.517 1.748,4.344 4.157,4.344 2.369,0 4.156,-1.867 4.156,-4.344 0,-2.477 -1.787,-4.345 -4.156,-4.345"
             style="fill:#00cc00;fill-opacity:1;fill-rule:nonzero;stroke:none"
             id="path64" />
        </g>
        <g
           id="g66"
           transform="translate(458.9101,543.7783)"
           style="fill:#00cc00;fill-opacity:1">
          <path
             d="m 0,0 c -3.805,0 -6.674,-2.88 -6.674,-6.7 0,-3.82 2.869,-6.701 6.674,-6.701 1.336,0 2.531,0.392 3.455,1.132 l 0.379,0.303 v -1.219 h 2.49 V 5.428 h -2.49 v -6.89 L 3.455,-1.159 C 2.509,-0.401 1.314,0 0,0 M 3.834,-4.346 V -9.054 L 3.796,-9.112 c -0.786,-1.192 -2.229,-1.933 -3.769,-1.933 -2.393,0 -4.13,1.827 -4.13,4.345 0,2.517 1.737,4.344 4.13,4.344 1.539,0 2.983,-0.74 3.769,-1.932 z"
             style="fill:#00cc00;fill-opacity:1;fill-rule:nonzero;stroke:none"
             id="path68" />
        </g>
        <g
           id="g70"
           transform="translate(372.2601,550.3212)"
           style="fill:#00cc00;fill-opacity:1">
          <path
             d="M 0,0 C 0.674,0.003 1.216,0.55 1.214,1.221 1.211,1.893 0.663,2.435 -0.01,2.432 -0.683,2.429 -1.225,1.883 -1.223,1.211 -1.22,0.54 -0.672,-0.003 0,0"
             style="fill:#00cc00;fill-opacity:1;fill-rule:nonzero;stroke:none"
             id="path72" />
        </g>
        <g
           id="g74"
           transform="translate(372.2601,550.3212)"
           style="fill:#00cc00;fill-opacity:1">
          <path
             d="M 0,0 C 0.674,0.003 1.216,0.55 1.214,1.221 1.211,1.893 0.663,2.435 -0.01,2.432 -0.683,2.429 -1.225,1.883 -1.223,1.211 -1.22,0.54 -0.672,-0.003 0,0"
             style="fill:#00cc00;fill-opacity:1;fill-rule:nonzero;stroke:none"
             id="path76" />
        </g>
        <g
           id="g78"
           transform="translate(363.5104,544.003)"
           style="fill:#00cc00;fill-opacity:1">
          <path
             d="m 0,0 2.448,0.011 c 0,0 -0.385,0.392 -1.903,1.986 -0.866,0.911 -0.947,1.623 0.142,1.628 L 0.924,3.627 2.15,5.481 c 0,0 -1.054,0.031 -1.514,0.029 C -2.251,5.497 -2.784,2.641 -1.31,1.26 -0.21,0.231 0,0 0,0"
             style="fill:#00cc00;fill-opacity:1;fill-rule:nonzero;stroke:none"
             id="path80" />
        </g>
        <g
           id="g82"
           transform="translate(363.5104,544.003)"
           style="fill:#00cc00;fill-opacity:1">
          <path
             d="m 0,0 2.448,0.011 c 0,0 -0.385,0.392 -1.903,1.986 -0.866,0.911 -0.947,1.623 0.142,1.628 L 0.924,3.627 2.15,5.481 c 0,0 -1.054,0.031 -1.514,0.029 C -2.251,5.497 -2.784,2.641 -1.31,1.26 -0.21,0.231 0,0 0,0"
             style="fill:#00cc00;fill-opacity:1;fill-rule:nonzero;stroke:none"
             id="path84" />
        </g>
        <g
           id="g86"
           transform="translate(380.3482,547.699)"
           style="fill:#00cc00;fill-opacity:1">
          <path
             d="M 0,0 C 1.088,0.004 1.014,-0.709 0.157,-1.627 -1.349,-3.234 -1.73,-3.63 -1.73,-3.63 l 2.447,0.011 c 0,0 0.21,0.233 1.299,1.271 C 3.478,-0.954 2.92,1.898 0.034,1.885 -0.425,1.883 -1.479,1.843 -1.479,1.843 l 1.241,-1.844 z"
             style="fill:#00cc00;fill-opacity:1;fill-rule:nonzero;stroke:none"
             id="path88" />
        </g>
        <g
           id="g90"
           transform="translate(380.3482,547.699)"
           style="fill:#00cc00;fill-opacity:1">
          <path
             d="M 0,0 C 1.088,0.004 1.014,-0.709 0.157,-1.627 -1.349,-3.234 -1.73,-3.63 -1.73,-3.63 l 2.447,0.011 c 0,0 0.21,0.233 1.299,1.271 C 3.478,-0.954 2.92,1.898 0.034,1.885 -0.425,1.883 -1.479,1.843 -1.479,1.843 l 1.241,-1.844 z"
             style="fill:#00cc00;fill-opacity:1;fill-rule:nonzero;stroke:none"
             id="path92" />
        </g>
        <g
           id="g94"
           transform="translate(371.3396,544.9187)"
           style="fill:#00cc00;fill-opacity:1">
          <path
             d="M 0,0 0.948,-0.807 1.89,0.008 1.87,4.634 -0.02,4.626 Z"
             style="fill:#00cc00;fill-opacity:1;fill-rule:nonzero;stroke:none"
             id="path96" />
        </g>
        <g
           id="g98"
           transform="translate(371.3396,544.9187)"
           style="fill:#00cc00;fill-opacity:1">
          <path
             d="M 0,0 0.948,-0.807 1.89,0.008 1.87,4.634 -0.02,4.626 Z"
             style="fill:#00cc00;fill-opacity:1;fill-rule:nonzero;stroke:none"
             id="path100" />
        </g>
        <g
           id="g102"
           transform="translate(387.0071,524.9378)"
           style="fill:#00cc00;fill-opacity:1">
          <path
             d="m 0,0 c 0.476,-2.222 0.33,-4.439 -0.445,-6.616 -0.952,-2.669 -2.438,-4.456 -4.299,-5.167 -0.414,-0.158 -1.188,-0.403 -2.151,-0.414 -0.618,-0.008 -1.43,0.214 -1.95,0.46 -0.308,0.113 -0.902,0.423 -0.902,0.423 -1.659,0.913 -3.99,2.754 -3.982,3.99 0.003,0.431 0.971,1.119 1.771,1.123 1.133,0.005 2.051,0.931 2.046,2.064 v 0.107 l -0.423,1.804 -0.014,0.054 c -0.295,0.993 -1.051,4.344 1.556,5.855 L -6.525,4.76 -7.335,6.468 -9.638,5.375 -9.7,5.342 c -2.591,-1.475 -3.513,-4.473 -2.47,-8.024 l 0.357,-1.523 c -0.023,-0.061 -0.083,-0.105 -0.153,-0.106 -0.755,-0.003 -1.62,-0.294 -2.314,-0.778 -0.144,-0.1 -0.277,-0.207 -0.399,-0.317 -0.772,0.685 -1.867,1.075 -2.73,1.072 -0.07,0 -0.13,0.043 -0.154,0.104 l 0.343,1.525 c 1.013,3.56 0.065,6.551 -2.539,8.004 l -2.374,1.104 -0.796,-1.715 2.278,-1.057 c 2.619,-1.488 1.892,-4.846 1.606,-5.841 l -0.42,-1.862 v -0.107 c 0.006,-1.133 0.931,-2.051 2.064,-2.046 0.801,0.004 1.775,-0.677 1.781,-1.108 0.019,-1.235 -2.297,-3.096 -3.946,-4.023 -0.154,-0.085 -0.31,-0.164 -0.467,-0.236 -0.544,-0.316 -1.364,-0.669 -2.316,-0.673 -0.254,-10e-4 -1.127,-0.036 -2.256,0.395 -1.861,0.712 -3.37,2.469 -4.344,5.13 -0.927,2.534 -1,5.128 -0.224,7.73 0.23,0.797 0.756,1.952 0.744,1.965 1.2,2.592 3.184,5.029 5.758,7.063 0.04,0.029 3.858,2.978 7.016,5.093 l -4.299,2.917 -2.614,-0.012 c 0,0 -0.232,0.01 -0.347,-10e-4 h -0.008 v -0.001 c -2.546,-0.238 -4.751,-1.217 -6.549,-2.911 -1.793,-1.646 -2.859,-4.732 -2.654,-7.681 0.088,-1.248 0.391,-2.429 0.89,-3.512 0.287,0.589 0.69,1.358 1.214,2.237 -0.12,0.499 -0.187,0.974 -0.218,1.407 -0.164,2.367 0.676,4.899 2.055,6.164 1.481,1.395 3.296,2.205 5.396,2.411 l 5.302,0.023 c -3.026,-2.081 -6.304,-4.611 -6.347,-4.645 -2.112,-1.668 -3.859,-3.589 -5.161,-5.653 -0.822,-1.353 -1.601,-3.117 -1.587,-3.14 -1.287,-3.355 -1.339,-6.835 -0.142,-10.104 1.478,-4.038 3.785,-5.629 5.46,-6.252 0.824,-0.306 1.698,-0.455 2.585,-0.451 1.365,0.006 2.533,0.444 2.527,0.453 0.394,0.15 1.128,0.422 1.508,0.633 l 0.002,10e-4 c 0.355,0.201 2.654,1.53 3.978,3.289 1.31,-1.709 3.546,-2.998 3.978,-3.237 0,0 1.022,-0.584 1.824,-0.828 0.917,-0.247 1.893,-0.242 2.211,-0.241 0.887,0.004 1.76,0.16 2.581,0.474 1.67,0.638 3.963,2.248 5.405,6.299 1.03,2.889 1.087,5.934 0.186,8.904 C 1.141,1.15 0.641,0.575 0,0"
             style="fill:#00cc00;fill-opacity:1;fill-rule:nonzero;stroke:none"
             id="path104" />
        </g>
        <g
           id="g106"
           transform="translate(387.0071,524.9378)"
           style="fill:#00cc00;fill-opacity:1">
          <path
             d="m 0,0 c 0.476,-2.222 0.33,-4.439 -0.445,-6.616 -0.952,-2.669 -2.438,-4.456 -4.299,-5.167 -0.414,-0.158 -1.188,-0.403 -2.151,-0.414 -0.618,-0.008 -1.43,0.214 -1.95,0.46 -0.308,0.113 -0.902,0.423 -0.902,0.423 -1.659,0.913 -3.99,2.754 -3.982,3.99 0.003,0.431 0.971,1.119 1.771,1.123 1.133,0.005 2.051,0.931 2.046,2.064 v 0.107 l -0.423,1.804 -0.014,0.054 c -0.295,0.993 -1.051,4.344 1.556,5.855 L -6.525,4.76 -7.335,6.468 -9.638,5.375 -9.7,5.342 c -2.591,-1.475 -3.513,-4.473 -2.47,-8.024 l 0.357,-1.523 c -0.023,-0.061 -0.083,-0.105 -0.153,-0.106 -0.755,-0.003 -1.62,-0.294 -2.314,-0.778 -0.144,-0.1 -0.277,-0.207 -0.399,-0.317 -0.772,0.685 -1.867,1.075 -2.73,1.072 -0.07,0 -0.13,0.043 -0.154,0.104 l 0.343,1.525 c 1.013,3.56 0.065,6.551 -2.539,8.004 l -2.374,1.104 -0.796,-1.715 2.278,-1.057 c 2.619,-1.488 1.892,-4.846 1.606,-5.841 l -0.42,-1.862 v -0.107 c 0.006,-1.133 0.931,-2.051 2.064,-2.046 0.801,0.004 1.775,-0.677 1.781,-1.108 0.019,-1.235 -2.297,-3.096 -3.946,-4.023 -0.154,-0.085 -0.31,-0.164 -0.467,-0.236 -0.544,-0.316 -1.364,-0.669 -2.316,-0.673 -0.254,-10e-4 -1.127,-0.036 -2.256,0.395 -1.861,0.712 -3.37,2.469 -4.344,5.13 -0.927,2.534 -1,5.128 -0.224,7.73 0.23,0.797 0.756,1.952 0.744,1.965 1.2,2.592 3.184,5.029 5.758,7.063 0.04,0.029 3.858,2.978 7.016,5.093 l -4.299,2.917 -2.614,-0.012 c 0,0 -0.232,0.01 -0.347,-10e-4 h -0.008 v -0.001 c -2.546,-0.238 -4.751,-1.217 -6.549,-2.911 -1.793,-1.646 -2.859,-4.732 -2.654,-7.681 0.088,-1.248 0.391,-2.429 0.89,-3.512 0.287,0.589 0.69,1.358 1.214,2.237 -0.12,0.499 -0.187,0.974 -0.218,1.407 -0.164,2.367 0.676,4.899 2.055,6.164 1.481,1.395 3.296,2.205 5.396,2.411 l 5.302,0.023 c -3.026,-2.081 -6.304,-4.611 -6.347,-4.645 -2.112,-1.668 -3.859,-3.589 -5.161,-5.653 -0.822,-1.353 -1.601,-3.117 -1.587,-3.14 -1.287,-3.355 -1.339,-6.835 -0.142,-10.104 1.478,-4.038 3.785,-5.629 5.46,-6.252 0.824,-0.306 1.698,-0.455 2.585,-0.451 1.365,0.006 2.533,0.444 2.527,0.453 0.394,0.15 1.128,0.422 1.508,0.633 l 0.002,10e-4 c 0.355,0.201 2.654,1.53 3.978,3.289 1.31,-1.709 3.546,-2.998 3.978,-3.237 0,0 1.022,-0.584 1.824,-0.828 0.917,-0.247 1.893,-0.242 2.211,-0.241 0.887,0.004 1.76,0.16 2.581,0.474 1.67,0.638 3.963,2.248 5.405,6.299 1.03,2.889 1.087,5.934 0.186,8.904 C 1.141,1.15 0.641,0.575 0,0"
             style="fill:#00cc00;fill-opacity:1;fill-rule:nonzero;stroke:none"
             id="path108" />
        </g>
        <g
           id="g110"
           transform="translate(368.2314,543.5322)"
           style="fill:#00cc00;fill-opacity:1">
          <path
             d="m 0,0 6.006,-4.282 c 0.067,-0.046 0.464,-0.29 0.464,-0.29 2.727,-1.883 5.4,-3.91 5.428,-3.931 2.268,-1.758 4.083,-3.824 5.321,-6.037 0.519,0.75 0.81,1.553 0.956,2.061 -1.309,2.001 -3.042,3.861 -5.126,5.477 -0.032,0.024 -2.402,1.82 -4.975,3.618 -1.098,0.669 -4.295,2.84 -4.295,2.84 C 2.247,0.439 0.05,2.455 0.05,2.455 -0.758,3.242 -0.865,4.11 0.127,4.114 L 2.055,4.122 2.046,6.007 0.147,6 C -2.945,5.986 -3.418,3.435 -1.74,1.626 -1.074,0.907 0,0 0,0"
             style="fill:#00cc00;fill-opacity:1;fill-rule:nonzero;stroke:none"
             id="path112" />
        </g>
        <g
           id="g114"
           transform="translate(368.2314,543.5322)"
           style="fill:#00cc00;fill-opacity:1">
          <path
             d="m 0,0 6.006,-4.282 c 0.067,-0.046 0.464,-0.29 0.464,-0.29 2.727,-1.883 5.4,-3.91 5.428,-3.931 2.268,-1.758 4.083,-3.824 5.321,-6.037 0.519,0.75 0.81,1.553 0.956,2.061 -1.309,2.001 -3.042,3.861 -5.126,5.477 -0.032,0.024 -2.402,1.82 -4.975,3.618 -1.098,0.669 -4.295,2.84 -4.295,2.84 C 2.247,0.439 0.05,2.455 0.05,2.455 -0.758,3.242 -0.865,4.11 0.127,4.114 L 2.055,4.122 2.046,6.007 0.147,6 C -2.945,5.986 -3.418,3.435 -1.74,1.626 -1.074,0.907 0,0 0,0"
             style="fill:#00cc00;fill-opacity:1;fill-rule:nonzero;stroke:none"
             id="path116" />
        </g>
        <g
           id="g118"
           transform="translate(376.7776,510.6599)"
           style="fill:#00cc00;fill-opacity:1">
          <path
             d="m 0,0 c -1.135,-0.937 -2.892,-1.326 -4.429,-1.365 -1.499,0.025 -3.211,0.383 -4.354,1.262 -0.52,-0.199 -1.275,-0.46 -2.057,-0.637 0.683,-0.834 1.647,-1.476 2.879,-1.912 1.262,-0.448 2.513,-0.572 3.331,-0.598 v -0.008 c 0.065,0 0.135,10e-4 0.209,0.003 0.075,-10e-4 0.147,-0.002 0.21,-0.002 v 0.009 c 0.817,0.034 2.068,0.168 3.326,0.626 1.241,0.453 2.206,1.111 2.883,1.964 C 1.206,-0.465 0.465,-0.19 0,0"
             style="fill:#00cc00;fill-opacity:1;fill-rule:nonzero;stroke:none"
             id="path120" />
        </g>
        <g
           id="g122"
           transform="translate(376.7776,510.6599)"
           style="fill:#00cc00;fill-opacity:1">
          <path
             d="m 0,0 c -1.135,-0.937 -2.892,-1.326 -4.429,-1.365 -1.499,0.025 -3.211,0.383 -4.354,1.262 -0.52,-0.199 -1.275,-0.46 -2.057,-0.637 0.683,-0.834 1.647,-1.476 2.879,-1.912 1.262,-0.448 2.513,-0.572 3.331,-0.598 v -0.008 c 0.065,0 0.135,10e-4 0.209,0.003 0.075,-10e-4 0.147,-0.002 0.21,-0.002 v 0.009 c 0.817,0.034 2.068,0.168 3.326,0.626 1.241,0.453 2.206,1.111 2.883,1.964 C 1.206,-0.465 0.465,-0.19 0,0"
             style="fill:#00cc00;fill-opacity:1;fill-rule:nonzero;stroke:none"
             id="path124" />
        </g>
        <g
           id="g126"
           transform="translate(386.9035,540.1609)"
           style="fill:#00cc00;fill-opacity:1">
          <path
             d="M 0,0 C -1.774,1.64 -3.917,2.595 -6.381,2.844 L -6.593,2.863 C -6.708,2.872 -6.938,2.862 -6.938,2.862 l -4.331,-0.019 c 0.456,0.343 0.9,0.696 1.333,1.058 0,0 0.069,0.023 0.266,0.224 0.201,0.173 0.55,0.582 0.55,0.582 0.093,0.1 0.196,0.213 0.313,0.34 1.661,1.824 1.167,4.371 -1.924,4.358 l -1.901,-0.009 0.009,-1.885 1.927,0.009 c 1.043,0.005 0.718,-0.884 -0.012,-1.79 -0.959,-0.839 -1.994,-1.617 -3.101,-2.391 1.305,-0.935 2.633,-1.784 3.6,-2.379 l 3.506,0.016 c 2.103,-0.189 3.925,-0.982 5.428,-2.372 1.38,-1.246 2.243,-3.77 2.098,-6.138 -0.044,-0.726 -0.187,-1.576 -0.52,-2.453 -0.334,-0.91 -0.954,-2.136 -2.058,-3.019 -0.011,-0.009 -0.023,-0.015 -0.034,-0.023 -0.265,-0.24 -0.555,-0.473 -0.874,-0.697 -4.956,-3.479 -5.335,-7.915 -5.538,-10.297 -0.018,-0.206 -0.034,-0.399 -0.052,-0.579 -0.011,-0.101 -0.021,-0.211 -0.03,-0.329 -0.028,-0.304 -0.061,-0.661 -0.121,-1.049 0.471,-0.237 1.126,-0.461 1.852,-0.394 0.08,0.487 0.12,0.923 0.151,1.277 0.01,0.109 0.018,0.211 0.029,0.304 0.019,0.189 0.036,0.393 0.054,0.609 0.202,2.357 0.506,5.912 4.697,8.878 0.029,0.036 0.062,0.071 0.102,0.1 2.296,1.643 3.175,3.645 3.184,3.665 0.016,0.038 0.039,0.073 0.062,0.106 0.565,1.159 0.9,2.433 0.983,3.786 C 2.891,-4.7 1.798,-1.622 0,0"
             style="fill:#00cc00;fill-opacity:1;fill-rule:nonzero;stroke:none"
             id="path128" />
        </g>
        <g
           id="g130"
           transform="translate(386.9035,540.1609)"
           style="fill:#00cc00;fill-opacity:1">
          <path
             d="M 0,0 C -1.774,1.64 -3.917,2.595 -6.381,2.844 L -6.593,2.863 C -6.708,2.872 -6.938,2.862 -6.938,2.862 l -4.331,-0.019 c 0.456,0.343 0.9,0.696 1.333,1.058 0,0 0.069,0.023 0.266,0.224 0.201,0.173 0.55,0.582 0.55,0.582 0.093,0.1 0.196,0.213 0.313,0.34 1.661,1.824 1.167,4.371 -1.924,4.358 l -1.901,-0.009 0.009,-1.885 1.927,0.009 c 1.043,0.005 0.718,-0.884 -0.012,-1.79 -0.959,-0.839 -1.994,-1.617 -3.101,-2.391 1.305,-0.935 2.633,-1.784 3.6,-2.379 l 3.506,0.016 c 2.103,-0.189 3.925,-0.982 5.428,-2.372 1.38,-1.246 2.243,-3.77 2.098,-6.138 -0.044,-0.726 -0.187,-1.576 -0.52,-2.453 -0.334,-0.91 -0.954,-2.136 -2.058,-3.019 -0.011,-0.009 -0.023,-0.015 -0.034,-0.023 -0.265,-0.24 -0.555,-0.473 -0.874,-0.697 -4.956,-3.479 -5.335,-7.915 -5.538,-10.297 -0.018,-0.206 -0.034,-0.399 -0.052,-0.579 -0.011,-0.101 -0.021,-0.211 -0.03,-0.329 -0.028,-0.304 -0.061,-0.661 -0.121,-1.049 0.471,-0.237 1.126,-0.461 1.852,-0.394 0.08,0.487 0.12,0.923 0.151,1.277 0.01,0.109 0.018,0.211 0.029,0.304 0.019,0.189 0.036,0.393 0.054,0.609 0.202,2.357 0.506,5.912 4.697,8.878 0.029,0.036 0.062,0.071 0.102,0.1 2.296,1.643 3.175,3.645 3.184,3.665 0.016,0.038 0.039,0.073 0.062,0.106 0.565,1.159 0.9,2.433 0.983,3.786 C 2.891,-4.7 1.798,-1.622 0,0"
             style="fill:#00cc00;fill-opacity:1;fill-rule:nonzero;stroke:none"
             id="path132" />
        </g>
        <g
           id="g134"
           transform="translate(366.1638,514.08)"
           style="fill:#00cc00;fill-opacity:1">
          <path
             d="m 0,0 c -0.068,0.406 -0.107,0.779 -0.137,1.094 -0.011,0.12 -0.022,0.229 -0.033,0.329 -0.02,0.18 -0.039,0.374 -0.058,0.58 -0.224,2.38 -0.642,6.812 -5.628,10.247 -0.334,0.231 -0.637,0.472 -0.913,0.72 -0.303,-0.751 -0.484,-1.443 -0.59,-1.962 0.14,-0.107 0.283,-0.213 0.43,-0.314 4.26,-2.936 4.596,-6.507 4.82,-8.869 0.02,-0.216 0.038,-0.42 0.059,-0.609 0.011,-0.093 0.02,-0.195 0.031,-0.304 0.035,-0.35 0.077,-0.782 0.16,-1.264 C -1.137,-0.438 -0.483,-0.234 0,0"
             style="fill:#00cc00;fill-opacity:1;fill-rule:nonzero;stroke:none"
             id="path136" />
        </g>
        <g
           id="g138"
           transform="translate(366.1638,514.08)"
           style="fill:#00cc00;fill-opacity:1">
          <path
             d="m 0,0 c -0.068,0.406 -0.107,0.779 -0.137,1.094 -0.011,0.12 -0.022,0.229 -0.033,0.329 -0.02,0.18 -0.039,0.374 -0.058,0.58 -0.224,2.38 -0.642,6.812 -5.628,10.247 -0.334,0.231 -0.637,0.472 -0.913,0.72 -0.303,-0.751 -0.484,-1.443 -0.59,-1.962 0.14,-0.107 0.283,-0.213 0.43,-0.314 4.26,-2.936 4.596,-6.507 4.82,-8.869 0.02,-0.216 0.038,-0.42 0.059,-0.609 0.011,-0.093 0.02,-0.195 0.031,-0.304 0.035,-0.35 0.077,-0.782 0.16,-1.264 C -1.137,-0.438 -0.483,-0.234 0,0"
             style="fill:#00cc00;fill-opacity:1;fill-rule:nonzero;stroke:none"
             id="path140" />
        </g>
      </g>
    </g>
  </g>
</svg>
