<?xml version="1.0" encoding="UTF-8"?> <svg xmlns="http://www.w3.org/2000/svg" id="Ebene_1" data-name="Ebene 1" viewBox="0 0 340 156"><defs><style> .cls-1 { fill: #fff; } .cls-2 { fill: #cd1719; } .cls-3 { fill: #cc1719; } </style></defs><g><path class="cls-2" d="m278.32,54.43l-12.46-.02v-17.36h-10.6l-.03,17.34h-5.4v10.12h5.53l-.02,26.64c.02.36.05.72.13,1.05.07.33.17.63.28.9.12.27.25.52.41.76.16.23.33.45.52.65.65.66,1.39,1.05,2.14,1.25.48.12.93.18,1.36.13h18.09v-10.17h-10.3c-.22.02-.44.02-.63-.01-.44-.08-.76-.19-1.12-.69-.21-.29-.33-.73-.36-1.18v-19.4l12.45.08.02-10.09"></path><path class="cls-2" d="m53.31,57.3c-.25-.61-.61-1.07-1.07-1.49-.47-.42-1.03-.8-1.66-1.04-.62-.24-1.3-.32-1.96-.32l-35.72-.03v10.11h28.05c.19,0,.38.02.55.04.44.08.82.2,1.21.63.34.43.39.82.39,1.3l.03,19.27-17.51.03c-.2,0-.41-.02-.58-.05-.39-.08-.69-.2-1.02-.55-.07-.09-.15-.19-.21-.31-.15-.27-.25-.66-.28-1.06v-1.51c.02-.28.09-.55.21-.8.11-.25.27-.46.46-.65.42-.41,1-.62,1.58-.67h15.22v-10.02h-22.89c-.42,0-.84.03-1.2.09-.37.06-.69.15-.97.24-.28.1-.53.21-.76.34-.41.24-.79.52-1.15.95-.16.19-.31.4-.45.63-.41.69-.66,1.59-.66,2.38l.03,16.62c0,.64.23,1.26.47,1.8.24.53.56.98,1.01,1.38.91.82,2.23,1.37,3.36,1.24l35.95-.06v-36.37c0-.76-.15-1.53-.41-2.14"></path><path class="cls-2" d="m156.83,93.25c.29.55.68,1.01,1.14,1.4.46.39.99.71,1.52.92.53.2,1.05.25,1.57.25h35.96v-10.05h-28.06c-.18,0-.36-.01-.52-.03-.4-.07-.73-.16-1.05-.48-.43-.49-.43-.86-.43-1.4l.02-17.43c.02-.2.05-.4.09-.57.1-.36.2-.6.49-.9.47-.41.87-.45,1.42-.48h15.44c.2,0,.4.02.57.05.39.09.69.2,1.01.55.08.09.15.19.21.31.16.27.25.66.29,1.06v1.69c-.02.23-.07.45-.15.65-.08.21-.18.4-.32.57-.13.17-.29.32-.46.44-.37.27-.84.41-1.3.43h-15.41v10.06h23.11c.76,0,1.53-.12,2.2-.43.67-.31,1.25-.78,1.67-1.22.43-.44.69-.85.88-1.33.18-.47.29-1.02.29-1.57v-16.45c0-.64-.09-1.29-.33-1.87-.24-.58-.6-1.11-1.02-1.54-.41-.43-.88-.78-1.43-1.02-.55-.24-1.18-.39-1.83-.39l-31.09-.03c-.6,0-1.21.09-1.75.27-.53.18-1,.45-1.48.86-.47.41-.95.98-1.27,1.61-.32.64-.5,1.35-.51,2.07v32.17c.05.64.22,1.28.51,1.83"></path><path class="cls-2" d="m60.91,95.84h10.71v-15.53h17.51c.22,0,.44.03.63.09.19.05.36.12.5.21.79.52.88,1.08.89,1.7v13.48h10.53v-20.73c-.02-.75-.22-1.55-.66-2.31-.2-.36-.45-.69-.73-.98-.28-.29-.6-.55-.95-.77-.74-.47-1.61-.72-2.49-.79h-11.01l18.49-15.76h-15.1l-17.61,15.96v-33.41h-10.72v58.84"></path><path class="cls-2" d="m108.01,54.47v9.98h23.64l-20.85,20.61c-.55.66-1.02,1.38-1.35,2.06-.33.68-.53,1.33-.64,1.93-.11.6-.13,1.17-.08,1.71.05.54.16,1.05.34,1.52.18.47.41.92.7,1.32.29.4.62.75.98,1.06,1.15.94,2.42,1.29,3.67,1.19h34.51v-10.15h-22.64l19.73-19.46c1.18-.97,2.06-2.16,2.47-3.24.43-1.09.52-2.07.4-3.09-.07-.53-.2-1.07-.39-1.58-.19-.51-.46-.96-.77-1.38-.32-.42-.69-.81-1.09-1.13-1.28-1.03-2.69-1.42-4.08-1.34h-34.54"></path><path class="cls-2" d="m204.25,54.34l.07,41.5,10.62.04v-31.37h17.31c.21,0,.43.03.61.07.42.11.73.22,1.1.63.34.42.43.79.47,1.28v29.36h10.74v-36.43c0-.53-.1-1.11-.31-1.69-.1-.29-.24-.57-.38-.83-.15-.26-.31-.5-.49-.71-.65-.77-1.28-1.13-1.95-1.39-.56-.21-1.21-.33-1.87-.34l-35.9-.11"></path><path class="cls-2" d="m324.33,57.14c-.25-.62-.6-1.07-1.07-1.5-.46-.42-1.03-.8-1.65-1.04-.62-.24-1.3-.33-1.96-.32l-35.73.13v10.11h28.17c.19,0,.38.02.55.04.43.08.82.2,1.2.63.34.43.39.82.4,1.3l.03,19.16-17.62.03c-.2,0-.41-.02-.58-.05-.4-.09-.69-.2-1.01-.55-.08-.09-.15-.19-.22-.32-.36-.61-.26-1.53-.28-2.33.02-.28.09-.55.21-.8.11-.24.26-.46.46-.65.42-.41,1-.62,1.57-.66h15.33v-10.14h-23.01c-.42,0-.84.03-1.2.09-.37.06-.69.15-.97.24-.28.1-.53.21-.76.34-.42.24-.79.52-1.16.95-.16.19-.31.4-.45.63-.41.69-.66,1.59-.66,2.38l.03,16.62c0,.64.23,1.26.47,1.8.24.53.56.98,1.01,1.38.92.82,2.23,1.37,3.36,1.24l35.96-.06v-36.53c0-.76-.16-1.53-.41-2.14"></path></g><g><rect class="cls-3" x="255.23" y="103.24" width="69.54" height="23.85"></rect><path class="cls-1" d="m301.97,116.32h0l-1.93-8.22c-.22-.93-.61-1.27-1.64-1.27h-1.69c-1.03,0-1.42.34-1.64,1.27l-1.91,8.22h-.05l-1.49-8.22c-.17-.93-.56-1.27-1.64-1.27h-1.81c-.81,0-1.25.32-1.25,1.03,0,.17.02.34.07.56l3.3,13.74c.22.9.51,1.3,1.66,1.3h1.81c1.03,0,1.32-.34,1.54-1.27l2.08-8.97h.05l2.08,8.95c.22.93.51,1.3,1.54,1.3h1.81c1.15,0,1.44-.42,1.66-1.32l3.3-13.72c.05-.22.07-.39.07-.56,0-.71-.44-1.03-1.25-1.03h-1.52c-1.08,0-1.47.34-1.64,1.27l-1.49,8.22h-.05Zm-41.82,7.14h2.13c.93,0,1.32-.39,1.32-1.3v-4.99h.05l3.13,5.01c.59.93.9,1.27,1.74,1.27h2.81c.71,0,1.32-.27,1.32-.81,0-.22-.1-.46-.32-.78l-3.81-5.26c2.42-.83,3.5-2.52,3.5-4.52,0-3.3-1.96-5.26-7.09-5.26h-4.77c-.9,0-1.3.39-1.3,1.32v14.01c0,.9.39,1.3,1.3,1.3h0Zm50.57,0h9.17c.93,0,1.27-.34,1.27-1.25v-1.2c0-.93-.34-1.27-1.27-1.27h-5.58v-2.84h4.11c.93,0,1.27-.34,1.27-1.25v-1.1c0-.93-.34-1.27-1.27-1.27h-4.11v-2.74h4.84c.93,0,1.27-.34,1.27-1.25v-1.2c0-.93-.34-1.27-1.27-1.27h-8.44c-.9,0-1.25.34-1.25,1.27v14.11c0,.9.34,1.25,1.25,1.25h0Zm-34.82,0h9.07c.93,0,1.32-.39,1.32-1.3v-1.1c0-.93-.39-1.32-1.32-1.32h-5.53v-2.84h4.06c.93,0,1.32-.39,1.32-1.3v-1c0-.93-.39-1.32-1.32-1.32h-4.06v-2.74h4.79c.93,0,1.32-.39,1.32-1.3v-1.1c0-.93-.39-1.32-1.32-1.32h-8.34c-.9,0-1.3.39-1.3,1.32v14.01c0,.9.39,1.3,1.3,1.3h0Zm-10.93-9.15h-1.37v-3.86h1.37c1.44,0,2.05.61,2.05,1.93s-.61,1.93-2.05,1.93h0Z"></path></g></svg> 