<?xml version="1.0" encoding="UTF-8" standalone="no"?>
<!-- Created with Inkscape (http://www.inkscape.org/) -->

<svg
   xmlns:dc="http://purl.org/dc/elements/1.1/"
   xmlns:cc="http://creativecommons.org/ns#"
   xmlns:rdf="http://www.w3.org/1999/02/22-rdf-syntax-ns#"
   xmlns:svg="http://www.w3.org/2000/svg"
   xmlns="http://www.w3.org/2000/svg"
   version="1.1"
   width="1000"
   height="873.03003"
   id="svg3890">
  <defs
     id="defs3892" />
  <metadata
     id="metadata3895">
    <rdf:RDF>
      <cc:Work
         rdf:about="">
        <dc:format>image/svg+xml</dc:format>
        <dc:type
           rdf:resource="http://purl.org/dc/dcmitype/StillImage" />
        <dc:title></dc:title>
      </cc:Work>
    </rdf:RDF>
  </metadata>
  <g
     transform="translate(-499.59098,371.30639)"
     id="layer1">
    <path
       d="m 921.33355,140.88092 c 0,0 -114.60878,-223.489973 -188.68805,-223.489973 -57.4295,0.05128 -62.40589,60.715822 -62.24924,206.902773 0.23074,146.24976 8.10605,203.20957 62.06131,203.20957 73.32858,-0.0513 188.87598,-186.62237 188.87598,-186.62237 z M 1068.6786,-45.585059 c 58.7124,-84.532511 111.7919,-168.219721 211.0651,-168.219721 109.9145,-0.0513 169.4722,91.94966 169.8473,169.377546 0,0.781968 -0.4692,495.677824 -0.4692,495.677824 0,0 -123.4345,0 -123.4345,0 0,0 -0.5333,-469.200652 -0.5333,-469.200652 0,-64.44004 -51.796,-64.314669 -52.5159,-64.314669 -41.7497,0 -118.4897,104.687535 -203.8985,220.923581 0,0 0,312.77966 0,312.77966 0,0 -124.81128,0.1282 -124.81128,0.1282 0,0 -0.15383,-144.77839 -0.15383,-144.77839 0,0 -82.52939,144.77839 -206.08876,144.93504 -140.17836,0.0256 -187.74917,-96.36279 -188.09349,-327.27017 -0.23075,-219.984709 30.98361,-337.69188 181.23935,-337.81674 114.29574,-0.10255 212.47346,166.43607 212.47346,166.43607 0,0 0.0256,-105.47027 0.0256,-105.47027 0,0 125.40585,-168.90837 125.40585,-168.90837 0,0 -0.5332,276.381503 -0.051,275.724394 z"
       id="path3309"
       style="fill:#00a0e2;fill-opacity:1;fill-rule:nonzero;stroke:none" />
  </g>
</svg>
