<?xml version="1.0" encoding="utf-8"?>
<!-- Generator: Adobe Illustrator 12.0.1, SVG Export Plug-In . SVG Version: 6.00 Build 51448)  -->
<!DOCTYPE svg PUBLIC "-//W3C//DTD SVG 1.1//EN" "http://www.w3.org/Graphics/SVG/1.1/DTD/svg11.dtd" [
	<!ENTITY ns_svg "http://www.w3.org/2000/svg">
	<!ENTITY ns_xlink "http://www.w3.org/1999/xlink">
]>
<svg  version="1.1" id="Layer_1" xmlns="&ns_svg;" xmlns:xlink="&ns_xlink;" width="227.017" height="283.583"
	 viewBox="0 0 227.017 283.583" overflow="visible" enable-background="new 0 0 227.017 283.583" xml:space="preserve">
<rect id="bg_gelb" fill="#FCCC04" width="227.017" height="283.583"/>
<rect id="bg_orange" x="15.321" y="16.527" fill="#FC6604" width="196.375" height="250.527"/>
<rect id="bg_blau" x="29.944" y="31.63" fill="#060299" width="167.128" height="220.322"/>
<path fill="#349AFD" d="M47.186,46.109v135.055h129.858V46.109H47.186z M55.893,55.165h112.445v116.943H55.893"/>
<g id="SÜD">
	<path fill="#FFFFFF" d="M133.442,236.61l3.948-0.248c0.087,0.646,0.261,1.137,0.521,1.476c0.425,0.546,1.032,0.818,1.823,0.818
		c0.589,0,1.044-0.14,1.364-0.417c0.317-0.28,0.478-0.602,0.478-0.97c0-0.35-0.151-0.661-0.457-0.937
		c-0.307-0.275-1.015-0.537-2.125-0.78c-1.817-0.41-3.112-0.956-3.887-1.637c-0.779-0.68-1.173-1.546-1.173-2.603
		c0-0.691,0.201-1.346,0.599-1.96c0.402-0.618,1.001-1.101,1.806-1.455c0.8-0.351,1.9-0.527,3.295-0.527
		c1.714,0,3.021,0.319,3.921,0.959s1.435,1.656,1.604,3.051l-3.911,0.229c-0.101-0.602-0.32-1.041-0.649-1.313
		c-0.333-0.274-0.79-0.411-1.373-0.411c-0.482,0-0.843,0.103-1.085,0.307c-0.242,0.207-0.366,0.455-0.366,0.748
		c0,0.216,0.101,0.409,0.302,0.58c0.192,0.177,0.653,0.343,1.385,0.495c1.812,0.394,3.107,0.789,3.894,1.191
		c0.781,0.398,1.353,0.896,1.709,1.491c0.356,0.594,0.535,1.257,0.535,1.991c0,0.864-0.238,1.66-0.713,2.387
		c-0.476,0.729-1.139,1.282-1.993,1.658c-0.852,0.377-1.928,0.565-3.226,0.565c-2.278,0-3.857-0.441-4.735-1.324
		C134.055,239.092,133.559,237.973,133.442,236.61z"/>
	<path fill="#FFFFFF" d="M156.393,227.61h4.131v8.019c0,0.796-0.123,1.546-0.37,2.252c-0.246,0.707-0.631,1.323-1.158,1.854
		c-0.528,0.53-1.081,0.901-1.656,1.115c-0.805,0.301-1.769,0.45-2.897,0.45c-0.649,0-1.362-0.047-2.132-0.139
		c-0.771-0.091-1.415-0.272-1.931-0.546c-0.52-0.272-0.992-0.658-1.422-1.161c-0.43-0.502-0.722-1.018-0.882-1.55
		c-0.256-0.855-0.384-1.615-0.384-2.275v-8.019h4.131v8.211c0,0.734,0.204,1.308,0.608,1.721c0.404,0.412,0.964,0.619,1.682,0.619
		c0.713,0,1.271-0.204,1.675-0.61s0.605-0.983,0.605-1.729V227.61z M150.964,224.454h2.376v2.294h-2.376V224.454z M154.839,224.454
		h2.413v2.294h-2.413V224.454z"/>
	<path fill="#FFFFFF" d="M163.32,227.61h6.156c1.215,0,2.193,0.165,2.942,0.495c0.745,0.33,1.362,0.805,1.852,1.423
		c0.488,0.616,0.841,1.337,1.06,2.155c0.22,0.818,0.329,1.688,0.329,2.605c0,1.438-0.162,2.553-0.489,3.345
		c-0.324,0.791-0.776,1.456-1.356,1.991c-0.581,0.534-1.202,0.893-1.865,1.068c-0.909,0.245-1.731,0.367-2.472,0.367h-6.156V227.61z
		 M167.763,230.656v7.34h0.722c0.864,0,1.477-0.097,1.842-0.289s0.649-0.528,0.854-1.007c0.21-0.479,0.311-1.257,0.311-2.333
		c0-1.422-0.229-2.396-0.692-2.922c-0.461-0.525-1.227-0.789-2.296-0.789H167.763z"/>
</g>
<g id="ALDI">
	<path fill="#FFFFFF" d="M73.445,218.92H59.166l-1.999,6.02H44.299l12.971-36.553h18.412l12.975,36.553H75.483L73.445,218.92z
		 M70.818,211.031l-4.479-13.157l-4.458,13.157H70.818z"/>
	<path fill="#FFFFFF" d="M91.023,188.387h12.918v27.561h16.624v8.992H91.023V188.387z"/>
	<path fill="#FFFFFF" d="M124.798,188.387h17.145c3.382,0,6.11,0.449,8.189,1.346c2.084,0.899,3.802,2.186,5.159,3.865
		c1.357,1.679,2.345,3.631,2.957,5.86c0.61,2.226,0.916,4.588,0.916,7.081c0,3.906-0.455,6.934-1.364,9.087
		c-0.909,2.155-2.171,3.958-3.783,5.411c-1.613,1.455-3.346,2.423-5.196,2.904c-2.529,0.665-4.821,0.998-6.878,0.998h-17.145
		V188.387z M136.351,196.644v20.001h2.827c2.408,0,4.122-0.261,5.141-0.786c1.015-0.523,1.814-1.441,2.391-2.746
		c0.575-1.308,0.866-3.424,0.866-6.356c0-3.878-0.647-6.531-1.936-7.966c-1.289-1.431-3.428-2.146-6.412-2.146H136.351z"/>
	<path fill="#FFFFFF" d="M163.334,188.387h12.526v36.553h-12.526V188.387z"/>
</g>
<path id="A_diagonal" fill="#349AFD" d="M134.146,57.916l-76.67,111.442h8.993l76.666-111.442H134.146z M146.361,57.916
	L69.69,169.358h8.994l76.667-111.442H146.361z M158.381,57.916L81.71,169.358h8.993l76.666-111.442H158.381z"/>
<path id="A_waagrecht" fill="#349AFD" d="M114.037,138.87l55.695-0.01v-6.545l-51.19,0.007L114.037,138.87z M125.006,122.925
	l-4.506,6.548l49.232-0.009v-6.545L125.006,122.925z M107.573,148.265l62.16-0.009v-6.547l-57.655,0.008L107.573,148.265z"/>
</svg>
