<svg xmlns="http://www.w3.org/2000/svg" xmlns:xlink="http://www.w3.org/1999/xlink" width="1920" zoomAndPan="magnify" viewBox="0 0 1440 1439.999935" height="1920" preserveAspectRatio="xMidYMid meet" version="1.0"><defs><clipPath id="8988677b73"><path d="M 33 0 L 1407.476562 0 L 1407.476562 1440 L 33 1440 Z M 33 0 " clip-rule="nonzero"/></clipPath></defs><rect x="-144" width="1728" fill="#ffffff" y="-143.999994" height="1727.999922" fill-opacity="1"/><rect x="-144" width="1728" fill="#ffffff" y="-143.999994" height="1727.999922" fill-opacity="1"/><g clip-path="url(#8988677b73)"><path fill="#ffffff" d="M 33.03125 1439.996094 L 1407.175781 1439.996094 L 1407.175781 0 L 33.03125 0 Z M 33.03125 1439.996094 " fill-opacity="1" fill-rule="nonzero"/></g><path fill="#c82128" d="M 1380.757812 26.425781 L 59.460938 26.425781 L 59.460938 1413.574219 L 1380.757812 1413.574219 Z M 1327.898438 1360.734375 L 112.308594 1360.734375 L 112.308594 79.277344 L 1327.898438 79.277344 Z M 1327.898438 1360.734375 " fill-opacity="1" fill-rule="nonzero"/><path fill="#233485" d="M 178.367188 1017.242188 L 1261.828125 1017.242188 L 1261.828125 1294.671875 L 178.367188 1294.671875 Z M 178.367188 1017.242188 " fill-opacity="1" fill-rule="nonzero"/><path fill="#ffffff" d="M 1162.742188 1050.273438 L 1067.710938 1050.273438 L 1067.710938 1261.652344 L 1162.742188 1261.652344 Z M 1046.347656 1155.972656 C 1046.347656 1097.601562 999.375 1050.273438 941.414062 1050.273438 L 800.96875 1050.273438 L 800.96875 1261.652344 L 941.414062 1261.652344 C 999.375 1261.652344 1046.347656 1214.335938 1046.347656 1155.972656 M 959.078125 1155.964844 C 959.078125 1181.339844 939.863281 1201.894531 916.125 1201.894531 L 895.78125 1201.894531 L 895.78125 1110.035156 L 916.148438 1110.035156 C 939.886719 1110.035156 959.078125 1130.597656 959.078125 1155.964844 M 603.183594 1261.652344 L 782.675781 1261.652344 L 782.675781 1200.589844 L 699.691406 1200.589844 L 699.691406 1050.273438 L 603.183594 1050.273438 Z M 494.878906 1261.652344 L 590.703125 1261.652344 L 482.410156 1050.273438 L 385.757812 1050.273438 L 277.464844 1261.652344 L 373.289062 1261.652344 L 383.472656 1239.433594 L 484.691406 1239.433594 Z M 456.257812 1183.800781 L 411.917969 1183.800781 L 433.535156 1136.878906 Z M 456.257812 1183.800781 " fill-opacity="1" fill-rule="nonzero"/><path fill="#2490d7" d="M 482.089844 779.1875 L 931.085938 779.1875 C 931.085938 779.1875 964.214844 828.808594 966.570312 832.445312 L 447.050781 832.445312 C 452.144531 824.078125 482.089844 779.1875 482.089844 779.1875 M 715.359375 145.324219 L 285.863281 791.597656 C 258.96875 831.773438 243.585938 861.777344 242.511719 906.574219 C 241.882812 932.742188 249.925781 965.167969 262.019531 990.824219 L 353.101562 990.824219 C 338.453125 963.875 330.75 935.667969 331.367188 904.292969 C 332.042969 868.777344 346.738281 845.953125 366.828125 815.800781 L 810.707031 145.324219 Z M 1087.125 990.824219 C 1101.785156 963.875 1109.476562 935.667969 1108.859375 904.289062 C 1108.183594 868.777344 1093.488281 845.953125 1073.398438 815.796875 L 779.832031 375.085938 L 827.609375 303.011719 L 1154.363281 791.597656 C 1181.257812 831.773438 1196.640625 861.773438 1197.722656 906.574219 C 1198.339844 932.742188 1190.289062 965.167969 1178.195312 990.824219 Z M 1087.125 990.824219 " fill-opacity="1" fill-rule="nonzero"/><path fill="#233485" d="M 824.882812 145.324219 L 378.21875 820.003906 C 358.082031 850.207031 344.644531 871.375 344.003906 904.441406 C 343.398438 935.726562 351.425781 963.769531 366.84375 990.824219 L 451.292969 990.824219 C 431.765625 970.503906 417.792969 937.265625 419.714844 902.320312 C 420.097656 895.121094 421.449219 886.136719 423.582031 878.949219 L 992 878.949219 C 988.117188 867.765625 984.527344 858.546875 974.785156 845.265625 L 439.429688 845.265625 C 445.609375 834.511719 453.730469 821.730469 461.339844 810.324219 L 490.648438 766.375 L 922.523438 766.375 L 898.878906 730.894531 L 514.300781 730.894531 L 901.746094 145.324219 Z M 622.421875 145.324219 L 205.160156 775.671875 C 173.449219 823.234375 158.570312 850.996094 158.558594 895.179688 C 158.558594 945.546875 171.980469 967.734375 182.203125 990.824219 L 248.847656 990.824219 C 247.074219 986.886719 245.1875 982.402344 243.324219 977.449219 C 236.226562 958.691406 229.222656 933.152344 229.863281 906.386719 C 230.980469 859.445312 247.308594 827.976562 274.472656 787.382812 L 701.160156 145.324219 Z M 988.9375 990.824219 C 1008.46875 970.503906 1022.441406 937.261719 1020.503906 902.320312 C 1018.886719 872.433594 1000.695312 843.015625 978.890625 810.320312 L 734.140625 443.328125 L 771.605469 387.054688 L 1060.253906 820.003906 C 1080.378906 850.203125 1093.816406 871.375 1094.457031 904.441406 C 1095.050781 935.726562 1087.03125 963.769531 1071.605469 990.824219 Z M 1191.675781 990.824219 C 1194.089844 985.617188 1195.277344 982.515625 1197.140625 977.554688 C 1204.25 958.804688 1212.769531 933.148438 1212.128906 906.386719 C 1211.007812 859.445312 1194.683594 827.972656 1167.496094 787.390625 L 835.382812 291.5 L 873.804688 233.941406 L 1235.074219 775.671875 C 1266.78125 823.253906 1281.660156 850.996094 1281.660156 895.191406 C 1281.660156 945.535156 1268.238281 967.742188 1258.019531 990.824219 Z M 1191.675781 990.824219 " fill-opacity="1" fill-rule="nonzero"/></svg>