<?xml version="1.0" encoding="UTF-8"?>
<!-- Generator: Adobe Illustrator 16.0.0, SVG Export Plug-In . SVG Version: 6.00 Build 0)  -->
<!DOCTYPE svg PUBLIC "-//W3C//DTD SVG 1.1//EN" "http://www.w3.org/Graphics/SVG/1.1/DTD/svg11.dtd">
<svg version="1.1" id="Layer_1" xmlns="http://www.w3.org/2000/svg" xmlns:xlink="http://www.w3.org/1999/xlink" x="0px" y="0px" width="355.931px" height="112.834px" viewBox="0 0 355.931 112.834" enable-background="new 0 0 355.931 112.834" xml:space="preserve">
<g>
	<path fill="#040406" d="M355.931,112.834H0V0h355.931V112.834z M8.504,104.331h338.923V8.504H8.504V104.331z"/>
	<path d="M75.658,83.286h-9.613l-3.847-12.13H44.615l-3.631,12.13h-9.427l17.104-53.564h9.391L75.658,83.286z M59.343,62.094   l-6.064-19.876l-5.951,19.876H59.343z"/>
	<polygon points="84.107,82.847 84.107,29.721 92.949,29.721 92.949,73.786 115.019,73.786 115.019,82.847  "/>
	<polygon points="124.602,83.287 124.602,29.721 157.193,29.721 157.193,38.782 133.443,38.782 133.443,50.657 155.514,50.657    155.514,59.682 133.443,59.682 133.443,74.224 157.998,74.224 157.998,83.287  "/>
	<rect x="167.517" y="50.341" width="16.551" height="10.267"/>
	<polygon points="193.232,83.287 193.232,29.721 202.074,29.721 202.074,50.804 219.502,50.804 219.502,29.721 228.345,29.721    228.345,83.287 219.502,83.287 219.502,59.866 202.074,59.866 202.074,83.287  "/>
	<g>
		<path d="M238.923,57.748c0-6.383,0.944-11.638,2.832-15.768c1.888-4.129,4.354-7.203,7.399-9.225    c3.045-2.023,6.734-3.034,11.07-3.034c6.285,0,11.406,2.4,15.365,7.199c3.957,4.798,5.937,11.631,5.937,20.497    c0,8.965-2.095,15.967-6.284,21.01c-3.679,4.457-8.672,6.686-14.98,6.686c-6.357,0-11.376-2.204-15.054-6.612    C241.018,73.458,238.923,66.541,238.923,57.748 M248.058,57.381c0,6.162,1.172,10.785,3.514,13.866s5.244,4.622,8.708,4.622    c3.488,0,6.38-1.528,8.673-4.586c2.292-3.057,3.44-7.753,3.44-14.086c0-6.211-1.116-10.802-3.349-13.774    c-2.232-2.971-5.153-4.457-8.765-4.457c-3.61,0-6.549,1.498-8.817,4.494C249.193,46.456,248.058,51.096,248.058,57.381"/>
		<path d="M290.723,83.287V29.721h14.25c5.311,0,8.78,0.257,10.414,0.768c2.605,0.828,4.755,2.594,6.45,5.298    c1.691,2.704,2.538,6.188,2.538,10.45c0,3.873-0.731,7.12-2.192,9.737c-1.462,2.62-3.288,4.457-5.48,5.517    s-5.969,1.59-11.327,1.59h-5.81v20.206H290.723z M299.566,38.783V54.02h4.907c3.296,0,5.536-0.232,6.721-0.696    c1.185-0.463,2.154-1.3,2.912-2.509c0.756-1.208,1.135-2.692,1.135-4.45c0-1.783-0.392-3.284-1.172-4.505    c-0.782-1.221-1.746-2.038-2.894-2.454c-1.147-0.415-3.577-0.623-7.287-0.623H299.566z"/>
	</g>
</g>
</svg>