<?xml version="1.0" encoding="utf-8"?>
<!-- Generator: Adobe Illustrator 23.0.5, SVG Export Plug-In . SVG Version: 6.00 Build 0)  -->
<svg version="1.1" id="Layer_1" xmlns="http://www.w3.org/2000/svg" xmlns:xlink="http://www.w3.org/1999/xlink" x="0px" y="0px"
	 viewBox="0 0 345.9 198.5" style="enable-background:new 0 0 345.9 198.5;" xml:space="preserve">
<style type="text/css">
	.st0{fill:url(#SVGID_1_);}
	.st1{opacity:0.4;clip-path:url(#SVGID_3_);}
	.st2{opacity:0.5;}
	.st3{fill:#FFFFFF;}
	.st4{fill:none;stroke:#FFFFFF;stroke-width:2.1221;stroke-miterlimit:10;}
	.st5{opacity:0.8;}
	.st6{fill:none;stroke:#FFFFFF;stroke-width:0.5;stroke-miterlimit:10;}
	.st7{fill:none;stroke:#FFFFFF;stroke-width:0.5625;stroke-miterlimit:10;}
	.st8{fill:none;stroke:#FFFFFF;stroke-width:0.625;stroke-miterlimit:10;}
	.st9{fill:none;stroke:#FFFFFF;stroke-width:0.6875;stroke-miterlimit:10;}
	.st10{fill:none;stroke:#FFFFFF;stroke-width:0.75;stroke-miterlimit:10;}
	.st11{fill:none;stroke:#FFFFFF;stroke-width:0.8125;stroke-miterlimit:10;}
	.st12{fill:none;stroke:#FFFFFF;stroke-width:0.875;stroke-miterlimit:10;}
	.st13{fill:none;stroke:#FFFFFF;stroke-width:0.9375;stroke-miterlimit:10;}
	.st14{fill:none;stroke:#FFFFFF;stroke-miterlimit:10;}
	.st15{fill:none;stroke:#FFFFFF;stroke-width:1.0625;stroke-miterlimit:10;}
	.st16{fill:none;stroke:#FFFFFF;stroke-width:1.125;stroke-miterlimit:10;}
	.st17{fill:none;stroke:#FFFFFF;stroke-width:1.1875;stroke-miterlimit:10;}
	.st18{fill:none;stroke:#FFFFFF;stroke-width:1.25;stroke-miterlimit:10;}
	.st19{fill:none;stroke:#FFFFFF;stroke-width:1.3125;stroke-miterlimit:10;}
	.st20{fill:none;stroke:#FFFFFF;stroke-width:1.375;stroke-miterlimit:10;}
	.st21{fill:none;stroke:#FFFFFF;stroke-width:1.4375;stroke-miterlimit:10;}
	.st22{fill:none;stroke:#FFFFFF;stroke-width:1.5;stroke-miterlimit:10;}
	.st23{fill:none;stroke:#FFFFFF;stroke-width:1.5625;stroke-miterlimit:10;}
	.st24{fill:none;stroke:#FFFFFF;stroke-width:1.625;stroke-miterlimit:10;}
	.st25{fill:none;stroke:#FFFFFF;stroke-width:1.6875;stroke-miterlimit:10;}
	.st26{fill:none;stroke:#FFFFFF;stroke-width:1.75;stroke-miterlimit:10;}
	.st27{fill:none;stroke:#FFFFFF;stroke-width:1.8125;stroke-miterlimit:10;}
	.st28{fill:none;stroke:#FFFFFF;stroke-width:1.875;stroke-miterlimit:10;}
	.st29{fill:none;stroke:#FFFFFF;stroke-width:1.9375;stroke-miterlimit:10;}
	.st30{fill:none;stroke:#FFFFFF;stroke-width:2;stroke-miterlimit:10;}
	.st31{fill:none;stroke:#FFFFFF;stroke-width:2.0625;stroke-miterlimit:10;}
	.st32{fill:none;stroke:#FFFFFF;stroke-width:2.125;stroke-miterlimit:10;}
	.st33{fill:none;stroke:#FFFFFF;stroke-width:2.1875;stroke-miterlimit:10;}
	.st34{fill:none;stroke:#FFFFFF;stroke-width:2.25;stroke-miterlimit:10;}
	.st35{fill:none;stroke:#FFFFFF;stroke-width:2.3125;stroke-miterlimit:10;}
	.st36{fill:none;stroke:#FFFFFF;stroke-width:2.375;stroke-miterlimit:10;}
	.st37{fill:none;stroke:#FFFFFF;stroke-width:2.4375;stroke-miterlimit:10;}
	.st38{fill:none;stroke:#FFFFFF;stroke-width:2.5;stroke-miterlimit:10;}
	.st39{fill:none;stroke:#FFFFFF;stroke-width:2.5625;stroke-miterlimit:10;}
	.st40{fill:none;stroke:#FFFFFF;stroke-width:2.625;stroke-miterlimit:10;}
	.st41{fill:none;stroke:#FFFFFF;stroke-width:2.6875;stroke-miterlimit:10;}
	.st42{fill:none;stroke:#FFFFFF;stroke-width:2.75;stroke-miterlimit:10;}
	.st43{fill:none;stroke:#FFFFFF;stroke-width:2.8125;stroke-miterlimit:10;}
	.st44{fill:none;stroke:#FFFFFF;stroke-width:2.875;stroke-miterlimit:10;}
	.st45{fill:none;stroke:#FFFFFF;stroke-width:2.9375;stroke-miterlimit:10;}
	.st46{fill:none;stroke:#FFFFFF;stroke-width:3;stroke-miterlimit:10;}
	.st47{opacity:0.79;}
	.st48{fill:none;stroke:#FFFFFF;stroke-width:0.5893;stroke-miterlimit:10;}
	.st49{fill:none;stroke:#FFFFFF;stroke-width:0.6786;stroke-miterlimit:10;}
	.st50{fill:none;stroke:#FFFFFF;stroke-width:0.7679;stroke-miterlimit:10;}
	.st51{fill:none;stroke:#FFFFFF;stroke-width:0.8571;stroke-miterlimit:10;}
	.st52{fill:none;stroke:#FFFFFF;stroke-width:0.9464;stroke-miterlimit:10;}
	.st53{fill:none;stroke:#FFFFFF;stroke-width:1.0357;stroke-miterlimit:10;}
	.st54{fill:none;stroke:#FFFFFF;stroke-width:1.2143;stroke-miterlimit:10;}
	.st55{fill:none;stroke:#FFFFFF;stroke-width:1.3036;stroke-miterlimit:10;}
	.st56{fill:none;stroke:#FFFFFF;stroke-width:1.3929;stroke-miterlimit:10;}
	.st57{fill:none;stroke:#FFFFFF;stroke-width:1.4821;stroke-miterlimit:10;}
	.st58{fill:none;stroke:#FFFFFF;stroke-width:1.5714;stroke-miterlimit:10;}
	.st59{fill:none;stroke:#FFFFFF;stroke-width:1.6607;stroke-miterlimit:10;}
	.st60{fill:none;stroke:#FFFFFF;stroke-width:1.8393;stroke-miterlimit:10;}
	.st61{fill:none;stroke:#FFFFFF;stroke-width:1.9286;stroke-miterlimit:10;}
	.st62{fill:none;stroke:#FFFFFF;stroke-width:2.0179;stroke-miterlimit:10;}
	.st63{fill:none;stroke:#FFFFFF;stroke-width:2.1071;stroke-miterlimit:10;}
	.st64{fill:none;stroke:#FFFFFF;stroke-width:2.1964;stroke-miterlimit:10;}
	.st65{fill:none;stroke:#FFFFFF;stroke-width:2.2857;stroke-miterlimit:10;}
	.st66{fill:none;stroke:#FFFFFF;stroke-width:2.4643;stroke-miterlimit:10;}
	.st67{fill:none;stroke:#FFFFFF;stroke-width:2.5536;stroke-miterlimit:10;}
	.st68{fill:none;stroke:#FFFFFF;stroke-width:2.6429;stroke-miterlimit:10;}
	.st69{fill:none;stroke:#FFFFFF;stroke-width:2.7321;stroke-miterlimit:10;}
	.st70{fill:none;stroke:#FFFFFF;stroke-width:2.8214;stroke-miterlimit:10;}
	.st71{fill:none;stroke:#FFFFFF;stroke-width:2.9107;stroke-miterlimit:10;}
	.st72{opacity:0.89;}
	.st73{fill:none;stroke:#FFFFFF;stroke-width:0.8127;stroke-linecap:round;stroke-linejoin:round;stroke-dasharray:0,4.3368;}
	.st74{fill:none;stroke:#FFFFFF;stroke-width:0.8645;stroke-linecap:round;stroke-linejoin:round;stroke-dasharray:0,4.2901;}
	.st75{fill:none;stroke:#FFFFFF;stroke-width:0.9163;stroke-linecap:round;stroke-linejoin:round;stroke-dasharray:0,4.2417;}
	.st76{fill:none;stroke:#FFFFFF;stroke-width:0.9681;stroke-linecap:round;stroke-linejoin:round;stroke-dasharray:0,4.2067;}
	.st77{fill:none;stroke:#FFFFFF;stroke-width:1.0199;stroke-linecap:round;stroke-linejoin:round;stroke-dasharray:0,4.1548;}
	.st78{fill:none;stroke:#FFFFFF;stroke-width:1.0717;stroke-linecap:round;stroke-linejoin:round;stroke-dasharray:0,4.1164;}
	.st79{fill:none;stroke:#FFFFFF;stroke-width:1.1235;stroke-linecap:round;stroke-linejoin:round;stroke-dasharray:0,4.0762;}
	.st80{fill:none;stroke:#FFFFFF;stroke-width:1.1754;stroke-linecap:round;stroke-linejoin:round;stroke-dasharray:0,4.0341;}
	.st81{fill:none;stroke:#FFFFFF;stroke-width:1.2272;stroke-linecap:round;stroke-linejoin:round;stroke-dasharray:0,3.99;}
	.st82{fill:none;stroke:#FFFFFF;stroke-width:1.279;stroke-linecap:round;stroke-linejoin:round;stroke-dasharray:0,3.9437;}
	.st83{fill:none;stroke:#FFFFFF;stroke-width:1.3308;stroke-linecap:round;stroke-linejoin:round;stroke-dasharray:0,3.9116;}
	.st84{fill:none;stroke:#FFFFFF;stroke-width:1.3826;stroke-linecap:round;stroke-linejoin:round;stroke-dasharray:0,3.8606;}
	.st85{fill:none;stroke:#FFFFFF;stroke-width:1.4344;stroke-linecap:round;stroke-linejoin:round;stroke-dasharray:0,3.824;}
	.st86{fill:none;stroke:#FFFFFF;stroke-width:1.4862;stroke-linecap:round;stroke-linejoin:round;stroke-dasharray:0,3.7675;}
	.st87{fill:none;stroke:#FFFFFF;stroke-width:1.538;stroke-linecap:round;stroke-linejoin:round;stroke-dasharray:0,3.7256;}
	.st88{fill:none;stroke:#FFFFFF;stroke-width:1.5898;stroke-linecap:round;stroke-linejoin:round;stroke-dasharray:0,3.6807;}
	.st89{fill:none;stroke:#FFFFFF;stroke-width:1.6416;stroke-linecap:round;stroke-linejoin:round;stroke-dasharray:0,3.6513;}
	.st90{fill:none;stroke:#FFFFFF;stroke-width:1.6935;stroke-linecap:round;stroke-linejoin:round;stroke-dasharray:0,3.6;}
	.st91{fill:none;stroke:#FFFFFF;stroke-width:1.7453;stroke-linecap:round;stroke-linejoin:round;stroke-dasharray:0,3.5646;}
	.st92{fill:none;stroke:#FFFFFF;stroke-width:1.7971;stroke-linecap:round;stroke-linejoin:round;stroke-dasharray:0,3.5258;}
	.st93{fill:none;stroke:#FFFFFF;stroke-width:1.8489;stroke-linecap:round;stroke-linejoin:round;stroke-dasharray:0,3.4832;}
	.st94{fill:none;stroke:#FFFFFF;stroke-width:1.9007;stroke-linecap:round;stroke-linejoin:round;stroke-dasharray:0,3.4363;}
	.st95{fill:none;stroke:#FFFFFF;stroke-width:1.9525;stroke-linecap:round;stroke-linejoin:round;stroke-dasharray:0,3.3842;}
	.st96{fill:none;stroke:#FFFFFF;stroke-width:2.0043;stroke-linecap:round;stroke-linejoin:round;stroke-dasharray:0,3.3502;}
	.st97{fill:none;stroke:#FFFFFF;stroke-width:2.0561;stroke-linecap:round;stroke-linejoin:round;stroke-dasharray:0,3.3114;}
	.st98{fill:none;stroke:#FFFFFF;stroke-width:2.1079;stroke-linecap:round;stroke-linejoin:round;stroke-dasharray:0,3.2664;}
	.st99{fill:none;stroke:#FFFFFF;stroke-width:2.1597;stroke-linecap:round;stroke-linejoin:round;stroke-dasharray:0,3.2142;}
	.st100{fill:none;stroke:#FFFFFF;stroke-width:2.2116;stroke-linecap:round;stroke-linejoin:round;stroke-dasharray:0,3.1846;}
	.st101{fill:none;stroke:#FFFFFF;stroke-width:2.2634;stroke-linecap:round;stroke-linejoin:round;stroke-dasharray:0,3.1142;}
	.st102{fill:none;stroke:#FFFFFF;stroke-width:2.3152;stroke-linecap:round;stroke-linejoin:round;stroke-dasharray:0,3.1034;}
	.st103{opacity:0.81;}
	.st104{fill:none;stroke:#FFFFFF;stroke-width:1.0531;stroke-linecap:round;stroke-linejoin:round;stroke-dasharray:0,5.6198;}
	.st105{fill:none;stroke:#FFFFFF;stroke-width:1.0898;stroke-linecap:round;stroke-linejoin:round;stroke-dasharray:0,5.5881;}
	.st106{fill:none;stroke:#FFFFFF;stroke-width:1.1265;stroke-linecap:round;stroke-linejoin:round;stroke-dasharray:0,5.5558;}
	.st107{fill:none;stroke:#FFFFFF;stroke-width:1.1633;stroke-linecap:round;stroke-linejoin:round;stroke-dasharray:0,5.5228;}
	.st108{fill:none;stroke:#FFFFFF;stroke-width:1.2;stroke-linecap:round;stroke-linejoin:round;stroke-dasharray:0,5.4892;}
	.st109{fill:none;stroke:#FFFFFF;stroke-width:1.2367;stroke-linecap:round;stroke-linejoin:round;stroke-dasharray:0,5.4686;}
	.st110{fill:none;stroke:#FFFFFF;stroke-width:1.2735;stroke-linecap:round;stroke-linejoin:round;stroke-dasharray:0,5.4337;}
	.st111{fill:none;stroke:#FFFFFF;stroke-width:1.3102;stroke-linecap:round;stroke-linejoin:round;stroke-dasharray:0,5.398;}
	.st112{fill:none;stroke:#FFFFFF;stroke-width:1.3469;stroke-linecap:round;stroke-linejoin:round;stroke-dasharray:0,5.3756;}
	.st113{fill:none;stroke:#FFFFFF;stroke-width:1.3837;stroke-linecap:round;stroke-linejoin:round;stroke-dasharray:0,5.3385;}
	.st114{fill:none;stroke:#FFFFFF;stroke-width:1.4204;stroke-linecap:round;stroke-linejoin:round;stroke-dasharray:0,5.3147;}
	.st115{fill:none;stroke:#FFFFFF;stroke-width:1.4571;stroke-linecap:round;stroke-linejoin:round;stroke-dasharray:0,5.276;}
	.st116{fill:none;stroke:#FFFFFF;stroke-width:1.4939;stroke-linecap:round;stroke-linejoin:round;stroke-dasharray:0,5.2508;}
	.st117{fill:none;stroke:#FFFFFF;stroke-width:1.5306;stroke-linecap:round;stroke-linejoin:round;stroke-dasharray:0,5.2249;}
	.st118{fill:none;stroke:#FFFFFF;stroke-width:1.5674;stroke-linecap:round;stroke-linejoin:round;stroke-dasharray:0,5.1837;}
	.st119{fill:none;stroke:#FFFFFF;stroke-width:1.6041;stroke-linecap:round;stroke-linejoin:round;stroke-dasharray:0,5.1562;}
	.st120{fill:none;stroke:#FFFFFF;stroke-width:1.6408;stroke-linecap:round;stroke-linejoin:round;stroke-dasharray:0,5.1279;}
	.st121{fill:none;stroke:#FFFFFF;stroke-width:1.6776;stroke-linecap:round;stroke-linejoin:round;stroke-dasharray:0,5.0987;}
	.st122{fill:none;stroke:#FFFFFF;stroke-width:1.7143;stroke-linecap:round;stroke-linejoin:round;stroke-dasharray:0,5.0687;}
	.st123{fill:none;stroke:#FFFFFF;stroke-width:1.751;stroke-linecap:round;stroke-linejoin:round;stroke-dasharray:0,5.0378;}
	.st124{fill:none;stroke:#FFFFFF;stroke-width:1.7878;stroke-linecap:round;stroke-linejoin:round;stroke-dasharray:0,5.006;}
	.st125{fill:none;stroke:#FFFFFF;stroke-width:1.8245;stroke-linecap:round;stroke-linejoin:round;stroke-dasharray:0,4.9731;}
	.st126{fill:none;stroke:#FFFFFF;stroke-width:1.8612;stroke-linecap:round;stroke-linejoin:round;stroke-dasharray:0,4.9393;}
	.st127{fill:none;stroke:#FFFFFF;stroke-width:1.898;stroke-linecap:round;stroke-linejoin:round;stroke-dasharray:0,4.92;}
	.st128{fill:none;stroke:#FFFFFF;stroke-width:1.9347;stroke-linecap:round;stroke-linejoin:round;stroke-dasharray:0,4.8841;}
	.st129{fill:none;stroke:#FFFFFF;stroke-width:1.9714;stroke-linecap:round;stroke-linejoin:round;stroke-dasharray:0,4.8469;}
	.st130{fill:none;stroke:#FFFFFF;stroke-width:2.0082;stroke-linecap:round;stroke-linejoin:round;stroke-dasharray:0,4.8248;}
	.st131{fill:none;stroke:#FFFFFF;stroke-width:2.0449;stroke-linecap:round;stroke-linejoin:round;stroke-dasharray:0,4.7852;}
	.st132{fill:none;stroke:#FFFFFF;stroke-width:2.0816;stroke-linecap:round;stroke-linejoin:round;stroke-dasharray:0,4.7609;}
	.st133{fill:none;stroke:#FFFFFF;stroke-width:2.1184;stroke-linecap:round;stroke-linejoin:round;stroke-dasharray:0,4.7356;}
	.st134{fill:none;stroke:#FFFFFF;stroke-width:2.1551;stroke-linecap:round;stroke-linejoin:round;stroke-dasharray:0,4.7091;}
	.st135{fill:none;stroke:#FFFFFF;stroke-width:2.1918;stroke-linecap:round;stroke-linejoin:round;stroke-dasharray:0,4.664;}
	.st136{fill:none;stroke:#FFFFFF;stroke-width:2.2286;stroke-linecap:round;stroke-linejoin:round;stroke-dasharray:0,4.6348;}
	.st137{fill:none;stroke:#FFFFFF;stroke-width:2.2653;stroke-linecap:round;stroke-linejoin:round;stroke-dasharray:0,4.6042;}
	.st138{fill:none;stroke:#FFFFFF;stroke-width:2.302;stroke-linecap:round;stroke-linejoin:round;stroke-dasharray:0,4.5722;}
	.st139{fill:none;stroke:#FFFFFF;stroke-width:2.3388;stroke-linecap:round;stroke-linejoin:round;stroke-dasharray:0,4.5573;}
	.st140{fill:none;stroke:#FFFFFF;stroke-width:2.3755;stroke-linecap:round;stroke-linejoin:round;stroke-dasharray:0,4.5223;}
	.st141{fill:none;stroke:#FFFFFF;stroke-width:2.4122;stroke-linecap:round;stroke-linejoin:round;stroke-dasharray:0,4.4855;}
	.st142{fill:none;stroke:#FFFFFF;stroke-width:2.449;stroke-linecap:round;stroke-linejoin:round;stroke-dasharray:0,4.4665;}
	.st143{fill:none;stroke:#FFFFFF;stroke-width:2.4857;stroke-linecap:round;stroke-linejoin:round;stroke-dasharray:0,4.426;}
	.st144{fill:none;stroke:#FFFFFF;stroke-width:2.5225;stroke-linecap:round;stroke-linejoin:round;stroke-dasharray:0,4.4039;}
	.st145{fill:none;stroke:#FFFFFF;stroke-width:2.5592;stroke-linecap:round;stroke-linejoin:round;stroke-dasharray:0,4.359;}
	.st146{fill:none;stroke:#FFFFFF;stroke-width:2.5959;stroke-linecap:round;stroke-linejoin:round;stroke-dasharray:0,4.3331;}
	.st147{fill:none;stroke:#FFFFFF;stroke-width:2.6327;stroke-linecap:round;stroke-linejoin:round;stroke-dasharray:0,4.3053;}
	.st148{fill:none;stroke:#FFFFFF;stroke-width:2.6694;stroke-linecap:round;stroke-linejoin:round;stroke-dasharray:0,4.2755;}
	.st149{fill:none;stroke:#FFFFFF;stroke-width:2.7061;stroke-linecap:round;stroke-linejoin:round;stroke-dasharray:0,4.2432;}
	.st150{fill:none;stroke:#FFFFFF;stroke-width:2.7429;stroke-linecap:round;stroke-linejoin:round;stroke-dasharray:0,4.2083;}
	.st151{fill:none;stroke:#FFFFFF;stroke-width:2.7796;stroke-linecap:round;stroke-linejoin:round;stroke-dasharray:0,4.1704;}
	.st152{fill:none;stroke:#FFFFFF;stroke-width:2.8163;stroke-linecap:round;stroke-linejoin:round;stroke-dasharray:0,4.1557;}
	.st153{fill:none;stroke:#FFFFFF;stroke-width:2.8531;stroke-linecap:round;stroke-linejoin:round;stroke-dasharray:0,4.1115;}
	.st154{fill:none;stroke:#FFFFFF;stroke-width:2.8898;stroke-linecap:round;stroke-linejoin:round;stroke-dasharray:0,4.0919;}
	.st155{fill:none;stroke:#FFFFFF;stroke-width:2.9265;stroke-linecap:round;stroke-linejoin:round;stroke-dasharray:0,4.0699;}
	.st156{fill:none;stroke:#FFFFFF;stroke-width:2.9633;stroke-linecap:round;stroke-linejoin:round;stroke-dasharray:0,4.0451;}
	.st157{fill:none;stroke:#FFFFFF;stroke-width:3;stroke-linecap:round;stroke-linejoin:round;stroke-dasharray:0,4.0169;}
	.st158{opacity:0.77;}
	.st159{clip-path:url(#SVGID_5_);}
	.st160{clip-path:url(#SVGID_7_);}
	.st161{opacity:0.72;}
	.st162{opacity:0.5;fill:none;stroke:#FFFFFF;stroke-width:50;stroke-miterlimit:10;}
	.st163{opacity:0.5;fill:none;stroke:#FFFFFF;stroke-width:30;stroke-miterlimit:10;}
	.st164{opacity:0.5;fill:url(#SVGID_8_);}
	.st165{opacity:0.5;fill:url(#SVGID_9_);}
	.st166{opacity:0.5;fill:url(#SVGID_10_);}
	.st167{opacity:0.5;fill:url(#SVGID_11_);}
	.st168{opacity:0.5;fill:url(#SVGID_12_);}
	.st169{opacity:0.5;fill:url(#SVGID_13_);}
	.st170{opacity:0.5;fill:url(#SVGID_14_);}
	.st171{opacity:0.49;}
	.st172{fill:none;stroke:#FFFFFF;stroke-width:2;stroke-linecap:round;stroke-linejoin:round;stroke-miterlimit:10;}
	.st173{fill:#F05A2B;}
	.st174{fill:#A3E2F9;}
	.st175{fill:#808285;}
	.st176{fill:#BCBEC0;}
	.st177{fill:#939598;}
	.st178{fill:#CFABC0;}
	.st179{fill:#D4B5C7;}
	.st180{fill:#CBA5BB;}
	.st181{fill:#D1B0C3;}
	.st182{fill:#E2CDD9;}
	.st183{fill:#D0AEC2;}
	.st184{fill:#D7BBCB;}
	.st185{fill:#D8BCCD;}
	.st186{fill:#D2B2C5;}
	.st187{fill:#A5BAD7;}
	.st188{fill:#BBCBE1;}
	.st189{fill:#C4D2E5;}
	.st190{fill:#AFC2DC;}
	.st191{fill:#96AFD1;}
	.st192{fill:#A3B9D7;}
	.st193{fill:#A1B7D6;}
	.st194{fill:#B1C4DD;}
	.st195{fill:#85A8AB;}
	.st196{fill:#94B2B5;}
	.st197{fill:#7CA1A5;}
	.st198{fill:#8CACB0;}
	.st199{fill:#B6CACD;}
	.st200{fill:#89ABAE;}
	.st201{fill:#9BB7BB;}
	.st202{fill:#9EB9BC;}
	.st203{fill:#8EAEB2;}
	.st204{fill:#B4B2B1;}
	.st205{fill:#B9B7B5;}
	.st206{fill:#A9A7A5;}
	.st207{fill:#B3B2B0;}
	.st208{fill:#CFCECD;}
	.st209{fill:#B2B0AE;}
	.st210{fill:#BEBCBB;}
	.st211{fill:#BFBEBC;}
	.st212{fill:#B5B3B2;}
	.st213{fill:#C0BFBD;}
	.st214{fill:#85B592;}
	.st215{fill:#177230;}
	.st216{fill:#478F5B;}
	.st217{fill:#4D9361;}
	.st218{fill:#5C9C6E;}
	.st219{fill:#66A277;}
	.st220{fill:#6D6E71;}
	.st221{fill:#BF8F4C;}
	.st222{fill:#C5A06A;}
	.st223{fill:#CEB38A;}
	.st224{fill:#FFEED1;}
	.st225{fill:#414042;}
	.st226{fill:#1F458A;}
	.st227{fill:#0A54B3;}
	.st228{fill:#E6E7E8;}
	.st229{fill:#D1D3D4;}
	.st230{fill:#DB0000;}
	.st231{fill:#58595B;}
	.st232{fill:#231F20;}
	.st233{fill:#1F2951;}
	.st234{enable-background:new    ;}
	.st235{clip-path:url(#SVGID_16_);}
	.st236{fill:#EF0000;}
	.st237{fill:#001997;}
	.st238{clip-path:url(#SVGID_18_);}
	.st239{clip-path:url(#SVGID_20_);}
	.st240{fill:#B8CCEB;}
	.st241{fill:#292728;}
	.st242{clip-path:url(#SVGID_22_);}
	.st243{clip-path:url(#SVGID_24_);}
	.st244{fill:#CDD2D3;}
	.st245{fill:#9EB6BA;}
	.st246{fill:url(#SVGID_27_);}
	.st247{fill:url(#SVGID_28_);}
	.st248{fill:#C1D9DF;}
	.st249{fill:url(#SVGID_29_);}
	.st250{fill:#99BBC6;}
	.st251{fill-rule:evenodd;clip-rule:evenodd;fill:#FFFFFF;}
	.st252{fill:none;stroke:#231F20;stroke-miterlimit:10;}
	.st253{fill:#DBE6F1;}
	.st254{fill:#4598D3;}
	.st255{fill:#84B0DE;}
	.st256{fill-rule:evenodd;clip-rule:evenodd;fill:#F8DC3D;}
	.st257{fill:#2E2E2C;}
	.st258{opacity:0.8;fill:#231F20;}
	.st259{fill:#4D555E;}
	.st260{fill:url(#SVGID_30_);}
	.st261{fill:#7D878C;}
	.st262{clip-path:url(#SVGID_33_);fill:url(#SVGID_34_);}
	.st263{clip-path:url(#SVGID_33_);fill:url(#SVGID_35_);}
	.st264{opacity:0.5;fill:url(#SVGID_36_);}
	.st265{opacity:0.5;fill:url(#SVGID_37_);}
	.st266{opacity:0.5;fill:url(#SVGID_38_);}
	.st267{fill:url(#SVGID_39_);}
	.st268{fill:url(#SVGID_40_);}
	.st269{fill:url(#SVGID_41_);}
	.st270{fill:url(#SVGID_42_);}
	.st271{fill:url(#SVGID_43_);}
	.st272{fill:url(#SVGID_44_);}
	.st273{opacity:0.5;fill:url(#SVGID_45_);}
	.st274{fill:url(#SVGID_46_);}
	.st275{fill:url(#SVGID_47_);}
	.st276{clip-path:url(#SVGID_50_);fill:url(#SVGID_51_);}
	.st277{clip-path:url(#SVGID_50_);fill:url(#SVGID_52_);}
	.st278{opacity:0.5;fill:url(#SVGID_53_);}
	.st279{fill:url(#SVGID_54_);}
	.st280{fill:url(#SVGID_55_);}
	.st281{fill:url(#SVGID_59_);}
	.st282{clip-path:url(#SVGID_62_);fill:url(#SVGID_63_);}
	.st283{clip-path:url(#SVGID_65_);}
	.st284{fill:#0F120C;}
	.st285{fill:#252822;}
	.st286{fill:#3B3D38;}
	.st287{fill:#50534E;}
	.st288{fill:#666864;}
	.st289{fill:#7C7E7A;}
	.st290{fill:#929391;}
	.st291{fill:#A8A9A7;}
	.st292{fill:#BEBEBD;}
	.st293{fill:#D3D4D3;}
	.st294{fill:#E9E9E9;}
	.st295{fill:url(#SVGID_66_);}
	.st296{fill:url(#SVGID_67_);}
	.st297{fill:url(#SVGID_68_);}
	.st298{fill:url(#SVGID_69_);}
	.st299{fill:url(#SVGID_70_);}
	.st300{fill:url(#SVGID_71_);}
	.st301{fill:url(#SVGID_72_);}
	.st302{fill:url(#SVGID_73_);}
	.st303{fill:url(#SVGID_74_);}
	.st304{fill:#F6934B;}
	.st305{fill:#D2E49F;}
	.st306{fill:#F49239;}
	.st307{fill:#B6CF79;}
	.st308{fill:#DBEAEC;}
	.st309{fill:#B6CDCD;}
	.st310{fill:#7797A5;}
	.st311{fill:#EEF3F4;}
	.st312{fill:#E18A3F;}
	.st313{fill:#85C9E3;}
	.st314{fill:#DF6A26;}
	.st315{fill:#886126;}
	.st316{fill:#396A80;}
	.st317{fill:#82A2A6;}
	.st318{fill:#434A56;}
	.st319{fill:#23273F;}
	.st320{fill:url(#SVGID_75_);}
	.st321{fill:url(#SVGID_76_);}
</style>
<g>
	<path d="M327,141.4c-0.3,0.2-0.4,0.3-0.5,0.4c-3.3,2.9-7,5.1-10.9,7c-3.9,1.9-8,3.3-12.3,4.2c-3.1,0.7-6.3,1.1-9.5,1.3
		c-1.3,0.1-2.6,0.1-3.9,0.1c-2.6,0-5.3-0.2-7.9-0.5c-3.1-0.4-6.2-1-9.2-2c-6.5-2.1-12.3-5.4-17.4-10c-4.2-3.9-7.5-8.4-10.2-13.4
		c-2.8-5.2-4.7-10.8-5.9-16.6c-0.3-1.7-0.5-3.4-0.8-5.1c0-0.3,0-0.6,0-0.9c0-15.4,0-30.8,0-46.2c0-0.2,0-0.3,0-0.5
		c0-0.3,0.1-0.6,0.3-0.9c0.9-1.2,2-2.1,3.2-2.9c3.2-2.2,6.7-2.2,10.2-0.8c1.1,0.4,2.1,1,3.1,1.8c0.3,0.2,0.5,0.5,0.5,1
		c0,0.2,0,0.3,0,0.5c0,14.7,0,29.4,0,44.1c0,1.7,0.2,3.5,0.6,5.1c1,4.5,2.7,8.6,5.2,12.5c3.8,5.8,8.8,10.2,15.2,13.1
		c3.9,1.8,8,2.9,12.3,3.5c1.3,0.2,2.6,0.3,3.9,0.5c0.8,0.1,1.6,0.1,2.4,0c3.9-0.5,7.7-1.6,11.3-3.3c2.8-1.4,5.4-3.2,7.8-5.3
		c3.8-3.4,6.7-7.4,9-11.9c1.4-2.7,2.5-5.4,3.3-8.3c0.2-0.8,0.3-1.5,0.3-2.3c0-15.5,0-31,0-46.5c0-1.3,0.5-2.2,1.3-3
		c0.9-0.9,2-1.5,3.2-1.9c1.5-0.5,3.1-0.7,4.6-0.8c1.8-0.1,3.4,0.2,5,1c1.7,0.8,3,2,4.1,3.6c0.2,0.3,0.4,0.6,0.7,1
		c0,44.7,0,89.5,0,134.3c-0.2,0.2-0.4,0.4-0.5,0.6c-1.2,1.9-3,3.1-5.1,3.9c-1.5,0.5-3,0.8-4.5,1c-1.5,0.2-3-0.1-4.4-0.6
		c-1.7-0.6-3.1-1.7-4-3.3c-0.3-0.5-0.5-1-0.4-1.5c0-0.2,0-0.3,0-0.5c0-16.6,0-33.3,0-49.9C327,142.3,327,142,327,141.4z"/>
	<path d="M90.5,139.4c-0.2,0.2-0.3,0.2-0.4,0.3c-3.5,3.3-7.6,5.8-12,7.8c-4.6,2.1-9.4,3.5-14.3,4.3c-3.6,0.6-7.3,1-11,1
		c-0.3,0-0.6,0-0.9,0c-2.2,0.1-4.5-0.2-6.7-0.6c-3.2-0.6-6.3-1.3-9.4-2.4c-6.9-2.3-13.2-5.6-18.7-10.4c-3.6-3.1-6.7-6.7-9.2-10.7
		c-3.2-5-5.5-10.3-6.9-16.1c-0.4-1.7-0.7-3.4-1-5.2c-0.1-0.7-0.1-1.3-0.1-2c0-1.9,0-3.8,0.1-5.7c0.1-2.3,0.4-4.5,0.7-6.8
		c0.5-3.2,1.3-6.4,2.3-9.5c1.8-5.3,4.2-10.3,7.6-14.8c3.1-4.1,6.7-7.6,10.9-10.5c4.2-2.9,8.8-5.2,13.6-6.9c4.1-1.4,8.3-2.4,12.6-3.1
		c1.9-0.3,3.8-0.4,5.6-0.2c1.4,0.1,2.9,0.1,4.3,0.3c6.5,0.6,12.7,2,18.7,4.6c5.2,2.2,9.8,5.2,13.9,9.1c4,3.7,7.3,8,9.9,12.8
		c2.9,5.2,4.9,10.7,6.2,16.5c0.6,2.7,1.1,5.4,1.3,8.1c0,0.4,0,0.8,0,1.1c0,16.5,0,33.1,0,49.6c0,1.7-0.7,2.8-2.1,3.6
		c-1.3,0.8-2.8,1.1-4.3,1.1c-1.9,0.1-3.7,0-5.6-0.2c-0.9-0.1-1.7-0.3-2.4-0.7c-1.9-0.9-2.8-2.5-2.9-4.5c0-2.8,0-5.7,0-8.5
		c0-0.3,0-0.7,0-1C90.6,139.8,90.6,139.7,90.5,139.4z M89.7,100.2c0.1-19.2-15.3-35.4-35-35.9C34.5,63.8,18.1,80,17.9,99.9
		c-0.1,20.2,16.2,35.8,35.1,36.2C73.3,136.5,89.8,120,89.7,100.2z"/>
	<path d="M200,58c0,15.8,0,31.6,0,47.4c0,1.2-0.1,2.4,0,3.6c0.2,3.4,1,6.7,2.5,9.8c1.8,3.8,4.3,7.1,7.5,9.8c4,3.5,8.6,5.8,13.6,7.6
		c2.6,0.9,5.3,1.7,8.1,2.2c0.5,0.1,0.8,0.3,1,0.8c1,2.6,1.4,5.3,1.1,8.1c-0.3,2.5-1.3,4.7-3,6.5c-0.3,0.4-0.7,0.5-1.1,0.5
		c-1.4-0.1-2.7-0.1-4.1-0.2c-2.5-0.2-5.1-0.7-7.5-1.3c-6.4-1.7-12.3-4.5-17.5-8.7c-3.9-3.1-7.1-6.9-9.7-11.2c-3-5-5-10.3-6.4-16
		c-0.5-2.3-1-4.6-1.3-7c-0.1-0.5-0.1-1-0.1-1.5c0-22.3,0-44.7,0-67c0-11.1,0-22.1,0-33.2c0-0.8,0.1-1.6,0.5-2.3
		c1.2-2.8,3.2-4.6,6.1-5.5c0.6-0.2,1.1-0.4,1.7-0.5C192,0,192.5,0,193,0.1c0.3,0.1,0.7,0.2,1,0.3c1.4,0.4,2.6,1.1,3.7,2.1
		c0.8,0.7,1.5,1.5,2.1,2.4c0.2,0.4,0.4,0.7,0.3,1.1c0,0.2,0,0.4,0,0.6C200,23.8,200,40.9,200,58z"/>
	<path d="M144.3,57.7c0,15.9,0,31.8,0,47.7c0,0.7,0,1.4,0,2.2c0,3.9,0.9,7.7,2.5,11.2c2,4.3,5,7.9,8.7,10.9c3.1,2.4,6.4,4.2,10,5.7
		c3.4,1.4,6.9,2.4,10.5,3.1c0.5,0.1,0.8,0.3,1,0.8c0.7,1.8,1.1,3.6,1.2,5.5c0.1,2-0.2,3.9-0.9,5.7c-0.5,1.3-1.3,2.4-2.2,3.5
		c-0.3,0.3-0.5,0.4-0.9,0.4c-1.4-0.1-2.7-0.1-4.1-0.2c-3.7-0.4-7.4-1.1-11-2.3c-6.1-2-11.5-5.1-16.2-9.5c-3.5-3.3-6.4-7-8.7-11.3
		c-2.4-4.5-4.1-9.2-5.3-14.2c-0.5-2.3-1-4.6-1.3-6.9c-0.1-0.4-0.1-0.9-0.1-1.3c0-33.4,0-66.9,0-100.3c0-1,0.3-1.9,0.7-2.7
		c1.2-2.5,3.1-4.1,5.8-5c0.6-0.2,1.2-0.4,1.8-0.5c0.5-0.1,0.9-0.1,1.4,0c0.3,0.1,0.5,0.2,0.8,0.3c1.7,0.4,3.2,1.4,4.4,2.6
		c0.6,0.6,1.1,1.3,1.6,2c0.2,0.3,0.3,0.6,0.3,1c0,0.3,0,0.5,0,0.8C144.3,23.7,144.3,40.7,144.3,57.7z"/>
	<path d="M234,180.2c0.3-0.2,0.4-0.2,0.4-0.3c1.7-1.6,3.8-2.4,6.1-2.7c2.8-0.4,5.4,0.1,7.9,1.4c0.6,0.3,1.2,0.8,1.8,1.2
		c1.9,1.6,2.8,3.7,2.8,6.1c0,2.4,0,4.8,0,7.2c0,0.1,0,0.2,0,0.3c0,0.4-0.2,0.6-0.5,0.6c-0.4,0-0.8,0-1.2,0c-0.3,0-0.4-0.2-0.4-0.5
		c0-0.3,0-0.5,0-0.8c0-2.3,0-4.5,0-6.8c0-2.3-1-4.1-2.8-5.4c-1.8-1.4-4-1.9-6.2-1.8c-1.7,0.1-3.3,0.6-4.8,1.6
		c-0.5,0.4-1,0.8-1.4,1.2c-1.1,1.2-1.6,2.6-1.6,4.2c0,2.4,0,4.7,0,7.1c0,1.1,0,1.2-1.3,1.2c-0.2,0-0.3,0-0.5-0.1
		c-0.2-0.1-0.3-0.2-0.4-0.4c0-0.2,0-0.4,0-0.7c0-7.5,0-15,0-22.5c0-0.1,0-0.2,0-0.3c0-0.7,0.2-0.9,0.9-0.9c0,0,0.1,0,0.1,0
		c1,0.1,1.2-0.1,1.2,1.2c0,2.8,0,5.7,0,8.5C234,179.4,234,179.7,234,180.2z"/>
	<path d="M206,194.1c0-0.4,0-0.7,0-1.1c0-0.3,0-0.7,0-1c0-0.4,0-0.7-0.1-1.2c-0.2,0.1-0.3,0.2-0.4,0.3c-1.9,1.9-4.3,2.7-6.9,2.9
		c-2.3,0.2-4.5-0.2-6.6-1.1c-1.4-0.7-2.6-1.5-3.5-2.7c-2.1-2.6-2.1-6.3,0-8.9c1.2-1.5,2.7-2.6,4.5-3.2c3.7-1.4,7.3-1.1,10.7,0.8
		c1.7,1,3.1,2.3,3.8,4.2c0.1,0.3,0.2,0.6,0.3,0.9c0.2,0.9,0.4,1.9,0.4,2.9c0,2.3,0,4.5,0,6.8c0,0.9-0.1,1-1,1
		C206.8,194.5,206.5,194.5,206,194.1z M197.3,178.9c-1.2,0-2.5,0.3-3.7,0.8c-1.8,0.8-3.2,1.9-4,3.7c-0.7,1.5-0.7,3,0,4.6
		c0.7,1.5,1.7,2.5,3.1,3.3c1.9,1,3.8,1.4,5.9,1.1c2.2-0.3,4.1-1.1,5.7-2.7c1.9-2.1,2.1-4.9,0.6-7.1c-0.6-0.8-1.3-1.5-2.1-2.1
		C201.2,179.4,199.4,178.9,197.3,178.9z"/>
	<path d="M307.1,191.3c0-0.5,0-0.9,0-1.2c0-3.5,0-6.9,0-10.4c0-1.2,0-1.2,1.2-1.2c0.1,0,0.1,0,0.2,0c0.6,0,0.7,0.2,0.7,0.7
		c0,0.2,0,0.4,0,0.6c0,4.3,0,8.6,0,12.8c0,0.1,0,0.3,0,0.4c0,0.7-0.1,0.8-0.8,1.1c-0.1,0-0.1,0-0.2,0.1c-0.5,0.2-0.9,0.1-1.3-0.2
		c-1.2-1-2.4-2-3.7-3c-3.8-3.1-7.6-6.2-11.4-9.2c-0.2-0.2-0.4-0.3-0.7-0.4c-0.1,1.1,0,2.2,0,3.2c0,1.1,0,2.1,0,3.2c0,1,0,2.1,0,3.1
		c0,1.1,0,2.1,0,3.2c-0.6,0.4-1.2,0.3-1.8,0.2c-0.1,0-0.2-0.2-0.3-0.3c-0.1-0.2,0-0.4,0-0.7c0-4.5,0-9,0-13.5c0-1,0-1,0.9-1.3
		c0.5-0.2,0.9-0.1,1.3,0.2c2,1.7,4.1,3.3,6.1,4.9c3,2.5,6.1,4.9,9.1,7.4C306.7,191,306.8,191.1,307.1,191.3z"/>
	<path d="M284.8,185.9c0,2-0.7,3.7-2,5c-2,2.1-4.4,3.2-7.2,3.5c-2.5,0.3-4.9-0.2-7.1-1.4c-1.8-0.9-3.2-2.2-4.1-4.1
		c-1.1-2.3-0.9-4.6,0.4-6.7c0.9-1.5,2.2-2.6,3.8-3.3c4.3-2.1,8.5-1.9,12.6,0.7c1.1,0.7,1.9,1.6,2.6,2.6
		C284.3,183.3,284.9,184.6,284.8,185.9z M274.2,192.7c0.1,0,0.3,0,0.4,0c2.2,0,4.1-0.7,5.8-2.1c1.6-1.3,2.3-3.1,2.2-5.2
		c0-0.2,0-0.4-0.1-0.6c-0.5-2-1.7-3.4-3.4-4.3c-3.2-1.7-6.5-1.7-9.7,0c-1.5,0.8-2.5,1.9-3.2,3.5c-0.4,1-0.5,2-0.3,3.1
		c0.3,1.5,1.1,2.7,2.3,3.7C270,192.1,272,192.7,274.2,192.7z"/>
	<path d="M178.7,178.1c0.3,0.2,0.7,0.1,1,0.1c1.7,0,3.4,0,5.1,0c0.2,0,0.4,0,0.6,0c0.3,0,0.7,0,0.8,0.3c0.2,0.4,0.2,0.9-0.1,1.3
		c-0.1,0.1-0.2,0.2-0.3,0.2c-0.2,0-0.5,0-0.8,0c-1.8,0-3.5,0-5.3,0c-0.3,0-0.6-0.1-1,0.1c-0.1,0.3-0.1,0.6-0.1,1c0,3.9,0,7.9,0,11.8
		c0,0.4,0.1,0.8-0.1,1.1c-0.3,0.2-0.6,0.3-1,0.3c-0.8,0-1.1-0.2-1.1-1c0-5.4-0.1-10.8,0-16.2c0-3.3,1.7-5.6,4.6-7
		c1.3-0.6,2.6-1,4.1-1.1c0.4,0,0.6,0.1,0.6,0.5c0,0,0,0.1,0,0.1c0.1,1,0.1,1-0.9,1.2c-1.2,0.2-2.3,0.5-3.3,1.1
		c-1.6,0.9-2.5,2.2-2.8,4c-0.1,0.6-0.2,1.1-0.2,1.7C178.7,177.8,178.7,178,178.7,178.1z"/>
	<path d="M211.6,194.7c-0.1-0.3-0.2-0.6-0.2-0.9c0-0.4,0.2-0.6,0.6-0.7c0.4-0.1,0.7-0.1,1.1-0.2c1.2-0.1,2.3-0.6,3.2-1.3
		c1.7-1.2,2.6-3,2.6-5.1c0-0.8,0-1.5,0-2.3c0-3.1,1.4-5.3,4.1-6.9c1.4-0.9,3-1.2,4.7-1.3c0.5,0,0.6,0.1,0.7,0.6
		c0.2,1,0.1,1.2-0.9,1.3c-1.4,0.1-2.6,0.6-3.8,1.3c-1.5,1-2.4,2.4-2.5,4.2c-0.1,1-0.1,2-0.1,3c0,2.6-1.1,4.6-3,6.2
		c-1.7,1.4-3.7,2.1-5.9,2.1C212,194.8,211.8,194.8,211.6,194.7z"/>
	<path d="M259.1,193.9c-1.2,0.3-1.3,0.3-2.1,0c0-0.1-0.1-0.2-0.1-0.3c0-4.9,0-9.7,0-14.6c0-0.1,0.1-0.2,0.1-0.4c0.7-0.2,1.3-0.2,2,0
		c0,0.2,0.1,0.4,0.1,0.6c0,0.8,0,1.6,0,2.5c0,3.7,0,7.4,0,11.1C259.1,193.2,259.1,193.5,259.1,193.9z"/>
</g>
</svg>
