<!DOCTYPE svg PUBLIC "-//W3C//DTD SVG 20010904//EN" "http://www.w3.org/TR/2001/REC-SVG-20010904/DTD/svg10.dtd">
<svg version="1.0" xmlns="http://www.w3.org/2000/svg" width="482px" height="312px" viewBox="0 0 4820 3120" preserveAspectRatio="xMidYMid meet">
<g id="layer101" fill="#c10e1a" stroke="none">
 <path d="M0 1560 l0 -1560 2410 0 2410 0 0 1560 0 1560 -2410 0 -2410 0 0 -1560z"/>
 </g>
<g id="layer102" fill="#2c438f" stroke="none">
 <path d="M0 1558 l0 -1561 388 6 c213 4 461 11 552 17 91 5 244 15 340 20 1329 79 2408 297 2980 602 235 126 424 289 514 443 l46 80 0 977 0 978 -2410 0 -2410 0 0 -1562z"/>
 </g>
<g id="layer103" fill="#ffffff" stroke="none">
 <path d="M1677 2110 c-80 -21 -139 -70 -152 -128 -6 -31 189 -1181 203 -1193 9 -8 374 -150 377 -147 2 2 -42 257 -96 568 -54 311 -98 577 -99 591 0 42 31 62 89 58 46 -4 50 -2 46 16 -6 25 -35 186 -35 191 0 2 -30 12 -66 24 -77 23 -212 34 -267 20z"/>
 <path d="M510 2099 c-137 -20 -237 -85 -287 -186 -22 -46 -28 -74 -31 -147 -12 -284 148 -503 418 -572 137 -35 323 -17 411 41 l37 24 146 -41 c81 -23 148 -39 151 -37 2 3 -21 143 -51 313 -51 290 -53 311 -38 334 14 22 21 24 73 20 l57 -4 -19 105 c-10 58 -24 109 -30 113 -30 18 -161 42 -237 42 -77 1 -92 -2 -151 -31 l-65 -32 -61 24 c-97 40 -208 51 -323 34z m340 -285 c28 -11 40 -23 44 -42 25 -128 46 -267 42 -278 -19 -49 -176 -65 -253 -26 -74 38 -107 86 -124 177 -18 96 14 161 91 184 44 13 149 5 200 -15z"/>
 <path d="M2391 2063 c-6 -21 -58 -217 -116 -436 -58 -219 -105 -403 -105 -408 0 -5 75 -9 175 -9 156 0 175 2 183 18 5 9 35 121 67 247 32 127 61 233 64 237 3 4 73 -102 154 -236 82 -134 153 -248 160 -255 7 -7 70 -11 190 -11 146 0 178 2 175 14 -2 7 -122 207 -268 445 l-265 431 -202 0 -202 0 -10 -37z"/>
 <path d="M3613 2086 c-221 -42 -336 -168 -337 -366 0 -189 102 -368 264 -463 95 -55 194 -80 341 -85 159 -5 255 11 346 59 l57 30 45 -25 c85 -45 271 -89 271 -64 0 7 -10 75 -22 151 l-22 137 -51 1 c-27 1 -61 4 -75 8 -22 6 -24 11 -22 52 5 68 -24 186 -64 268 -67 137 -200 237 -371 282 -101 26 -265 33 -360 15z m273 -271 c88 -26 144 -105 152 -216 5 -79 -12 -119 -62 -143 -48 -22 -159 -21 -212 3 -75 34 -124 125 -124 231 0 48 5 64 26 89 42 50 127 64 220 36z"/>
 </g>

</svg>