<?xml version="1.0" encoding="UTF-8" standalone="no"?>
<svg
   xmlns:dc="http://purl.org/dc/elements/1.1/"
   xmlns:cc="http://creativecommons.org/ns#"
   xmlns:rdf="http://www.w3.org/1999/02/22-rdf-syntax-ns#"
   xmlns:svg="http://www.w3.org/2000/svg"
   xmlns="http://www.w3.org/2000/svg"
   xmlns:sodipodi="http://sodipodi.sourceforge.net/DTD/sodipodi-0.dtd"
   xmlns:inkscape="http://www.inkscape.org/namespaces/inkscape"
   class="icon icon--logo-berry"
   id="Layer_1"
   viewBox="0 0 999.99999 238.83161"
   version="1.1"
   sodipodi:docname="A.svg"
   width="1000"
   height="238.83162"
   inkscape:version="0.92.4 (5da689c313, 2019-01-14)">
  <metadata
     id="metadata82">
    <rdf:RDF>
      <cc:Work
         rdf:about="">
        <dc:format>image/svg+xml</dc:format>
        <dc:type
           rdf:resource="http://purl.org/dc/dcmitype/StillImage" />
        <dc:title></dc:title>
      </cc:Work>
    </rdf:RDF>
  </metadata>
  <defs
     id="defs80" />
  <sodipodi:namedview
     pagecolor="#ffffff"
     bordercolor="#111111"
     borderopacity="1"
     objecttolerance="10"
     gridtolerance="10"
     guidetolerance="10"
     inkscape:pageopacity="0"
     inkscape:pageshadow="2"
     inkscape:window-width="1920"
     inkscape:window-height="1017"
     id="namedview78"
     showgrid="false"
     fit-margin-top="0"
     fit-margin-left="0"
     fit-margin-right="0"
     fit-margin-bottom="0"
     inkscape:zoom="1.0560235"
     inkscape:cx="502.12302"
     inkscape:cy="-24.423808"
     inkscape:window-x="-8"
     inkscape:window-y="-8"
     inkscape:window-maximized="1"
     inkscape:current-layer="Layer_1" />
  <path
     d="m 65.820777,118.02803 41.237113,108.3135 10.97013,10.63971 H 72.627544 L 82.936823,226.01111 71.504097,195.87629 H 32.183452 l -9.516257,25.50886 11.432726,15.53 H 0 l 13.481364,-16.78562 33.637325,-88.48797 -5.220724,-13.61353 z m 2.70949,70.1163 -16.983875,-44.54137 -16.52128,44.54137 h 33.43907 z m 52.339413,48.83691 7.93021,-8.72324 v -64.3669 l -11.23447,-7.00503 31.72086,-10.30927 v 16.65344 c 5.41898,-7.93021 12.82051,-16.32302 25.04626,-16.32302 12.22575,0 19.36294,6.80677 21.742,17.7769 5.22073,-8.39281 13.01877,-17.7769 26.03754,-17.7769 14.73698,0 22.53503,10.30928 22.53503,26.16971 V 228.258 l 8.39281,8.72324 h -38.06503 l 9.38408,-8.72324 v -53.13243 c 0,-10.17711 -3.9651,-15.39784 -11.23447,-15.39784 -7.26936,0 -12.35791,6.34417 -15.99259,11.89532 V 228.258 l 9.38408,8.72324 h -39.18847 l 9.38408,-8.72324 v -53.13243 c 0,-10.17711 -3.83293,-15.39784 -11.1023,-15.39784 -7.26936,0 -12.55617,6.34417 -16.19085,11.89532 V 228.258 l 9.64843,8.72324 h -38.06503 z m 137.85356,-40.90669 c 0,-31.85303 22.99762,-48.50648 40.77451,-48.50648 19.49511,0 30.59741,12.02749 33.17473,32.05128 l -53.2646,16.78562 c 2.70949,17.7769 12.35791,27.0949 27.0949,27.0949 10.6397,0 19.49511,-4.75813 24.71583,-14.93523 h 1.45387 c -1.25562,15.19957 -14.27438,29.47396 -34.76077,29.47396 -25.57494,0 -39.18847,-19.03252 -39.18847,-42.03014 z m 19.82553,-7.13719 32.97647,-10.63971 c -2.37906,-18.10732 -5.41898,-24.25324 -14.93523,-24.25324 -9.51626,0 -18.10732,10.63971 -18.10732,31.39043 v 3.50252 z m 61.19482,48.04388 7.93021,-8.72324 v -64.3669 l -11.23447,-7.00503 31.72086,-10.30927 v 20.28813 c 5.41898,-9.97886 13.61353,-19.82554 22.2046,-19.82554 2.84166,0 5.22072,0.66085 7.00502,1.91647 v 18.37166 c -3.17208,-0.79302 -5.41898,-1.12344 -8.8554,-1.12344 -8.06239,0 -16.32303,2.04863 -20.28813,7.59978 v 54.38806 l 9.64842,8.72323 h -38.06503 z m 67.07639,0 7.93022,-8.72324 v -64.89558 l -11.43273,-7.00503 31.85303,-9.84668 v 81.68121 l 8.26064,8.72323 h -36.61116 z m 6.01375,-110.89083 c 0,-6.47634 4.8903,-11.76315 11.89532,-11.76315 7.00502,0 12.02749,5.22072 12.02749,11.76315 0,6.54243 -4.75813,11.89532 -12.02749,11.89532 -7.26936,0 -11.89532,-5.08855 -11.89532,-11.89532 z m 108.97436,81.81337 h 1.45387 c -1.25562,15.19958 -13.48136,30.13482 -33.96775,30.13482 -25.04626,0 -38.99022,-18.37166 -38.99022,-42.69099 0,-31.25826 22.33677,-47.91171 42.16231,-47.91171 27.09489,0 31.85302,16.65345 30.13481,29.80439 l -20.48639,6.6746 c 2.70949,-13.81179 2.2469,-29.80439 -11.56489,-29.80439 -11.23447,0 -20.28813,10.6397 -20.28813,30.92783 0,24.58367 9.51625,38.39546 27.62358,38.39546 10.6397,0 18.90034,-5.08856 23.92281,-15.53001 z m 9.18583,7.79805 c 0,-15.06741 10.17711,-21.41158 22.2046,-25.37669 6.34417,-2.24689 13.01877,-3.63468 18.10732,-6.212 4.75813,-2.24689 8.72324,-6.67459 8.72324,-15.9926 0,-9.318 -4.8903,-15.0674 -14.14222,-15.0674 -8.72323,0 -12.35791,4.8903 -11.56489,14.93523 l -19.95771,6.47634 c -2.04864,-15.53 10.44145,-27.62357 34.43035,-27.62357 18.90034,0 30.79566,7.59978 30.79566,25.70711 v 49.29949 c 0,3.83294 1.71822,6.34418 5.55115,6.34418 2.04864,0 3.96511,-0.79303 5.68332,-3.03992 -1.12344,8.59107 -7.26936,13.34919 -17.44647,13.34919 -9.51626,0 -14.07613,-5.88157 -14.07613,-13.61353 -5.7494,7.26936 -13.94396,13.94396 -24.58366,13.94396 -13.61354,0 -23.65847,-9.18583 -23.65847,-23.12979 z m 32.05128,11.56489 c 6.212,0 11.30056,-3.9651 16.19086,-10.6397 v -32.64605 c -0.79303,1.71821 -3.03992,3.96511 -5.88158,5.88158 -3.83294,2.37906 -8.26064,3.63468 -12.68834,6.212 -5.68332,3.30425 -8.85541,8.8554 -8.85541,16.52128 0,8.8554 3.03992,14.73698 11.23447,14.73698 z m 50.6212,9.64843 7.93022,-8.72323 v -64.89559 l -11.43273,-7.00502 31.85303,-9.84668 v 16.98387 c 5.55115,-8.06238 13.81179,-16.65345 26.83056,-16.65345 15.72825,0 23.92281,10.63971 23.92281,26.16971 v 55.18107 l 8.39281,8.72324 h -38.1972 l 9.38409,-8.72324 V 174.9934 c 0,-9.84669 -4.29554,-15.39784 -12.55618,-15.39784 -8.8554,0 -13.94396,6.6746 -17.77689,12.02749 v 56.4367 l 9.64842,8.72323 h -38.06502 z m 113.73249,-172.87867 59.60878,19.16469 -59.60878,19.36294 v 63.30954 L 690.45731,114.65768 630.05551,134.35105 666.86492,83.46551 630.05551,32.51388 689.66429,51.67857 727.39889,0 v 64.10257 z m -31.58869,5.22073 -27.29315,-9.64843 16.65345,23.79064 -16.98388,23.1298 28.21835,-9.18584 16.32302,23.65848 V 91.99049 l 26.83056,-8.59107 -27.16098,-8.8554 v -28.8792 l -16.65345,23.65847 z m 123.51309,150.21147 v -35.68596 l -12.35792,-11.43273 h 35.02511 v 55.37933 c -6.01374,5.55115 -20.94898,10.97013 -38.99022,10.97013 -35.81813,0.13217 -57.56013,-25.83928 -57.56013,-60.60005 0,-38.52763 27.62358,-61.85567 58.08882,-61.85567 15.39783,0 26.03753,1.25561 33.63732,3.03991 v 32.97648 l -7.59979,-10.44145 c -8.06238,-11.1023 -15.19958,-18.90035 -30.13481,-18.90035 -17.11605,0 -29.47396,14.40656 -29.47396,43.28576 0,36.80941 10.30927,66.28337 35.68596,66.1512 9.64843,-0.13217 13.81179,-3.96511 13.81179,-12.82051 z m 37.272,17.44647 7.93022,-8.72323 v -51.5464 l -11.23447,-7.00502 31.72086,-10.30928 v 68.8607 l 8.26064,8.72323 h -36.61116 z m 6.01375,-97.87206 c 0,-6.47634 4.8903,-11.76315 11.89532,-11.76315 7.00502,0 12.02749,5.22073 12.02749,11.76315 0,6.54243 -4.75813,11.89532 -12.02749,11.89532 -7.26936,0 -11.89532,-5.08855 -11.89532,-11.89532 z m 36.61116,97.87206 7.93021,-8.72323 v -64.36691 l -11.23447,-7.00502 31.72086,-10.30928 v 20.28813 c 5.41898,-9.97885 13.61353,-19.82553 22.2046,-19.82553 2.84166,0 5.22072,0.66085 7.00502,1.91646 v 18.37167 c -3.17209,-0.79302 -5.41898,-1.12345 -8.85541,-1.12345 -8.06238,0 -16.32302,2.04864 -20.28813,7.59979 v 54.38805 l 9.64843,8.72324 h -38.06503 z m 63.77213,0 8.26064,-8.72323 V 127.34603 l -10.77187,-7.1372 31.25826,-10.1771 V 228.19192 L 1000,236.91515 h -36.94158 z"
     id="path75"
     style="fill:#bc0a4d;fill-opacity:1;stroke-width:6.60851192"
     inkscape:connector-curvature="0"
     sodipodi:nodetypes="cccccccccccccccccccccccccscssccccsscccccssccccccsccsccsccccssccccccccsccsccccccccccccccsssssccsssccsssccccssccsssscscscccccccsccccccccssccccsscccccccccccccccccccccccccccccccccccsscccssccccccccccccsssssccccccsccscccccccccccccc" />
</svg>
