<?xml version="1.0"?>
<svg xmlns="http://www.w3.org/2000/svg" width="384.71538" height="92.976327" viewBox="0 0 128.23846 30.992109">
<g transform="translate(-45.237908,-116.20633)">
 <g transform="translate(0.49999618,-0.50000175)" style="fill-rule:nonzero;stroke:none;stroke-width:0.35277778">
  <g style="fill:#ED1C24">
   <path d="m 45.246018,145.15374 c 0,0 60.363812,-9.29958 127.125232,-2.23979 l -8.43421,4.28449 c 0,0 -31.65721,-6.45301 -118.691022,-2.0447" />
   <path d="m 87.280549,135.60439 6.808258,-10.18857 -0.0614,11.49279 h 6.835073 v -19.43135 h -8.539701 l -5.042252,8.17562 -5.044369,-8.17562 h -8.62012 v 19.43135 h 6.835418 l 0.01971,-11.49279 6.809319,10.18857" />
   <path d="m 103.69883,136.90861 h 7.12047 v -19.43135 h -7.12047 z" />
   <path d="m 157.32669,117.20633 c -8.36718,0 -15.15215,4.46581 -15.15215,9.9769 0,5.51004 6.78497,9.97621 15.15215,9.97621 8.36648,0 15.14969,-4.46617 15.14969,-9.97621 0,-5.51109 -6.78321,-9.9769 -15.14969,-9.9769 z m 0,16.27011 c -4.38114,0 -7.9322,-2.81729 -7.9322,-6.29321 0,-3.47521 3.55106,-6.2932 7.9322,-6.2932 4.38045,0 7.93115,2.81799 7.93115,6.2932 0,3.47592 -3.5507,6.29321 -7.93115,6.29321" />
   <path d="m 63.692418,117.46491 h -10.2101 l -8.24441,19.42571 h 7.59319 l 1.72261,-4.8581 h 8.0705 l 1.88348,4.8581 h 7.403742 z m -7.87788,11.60498 2.77354,-6.51686 2.77354,6.51686 h -5.54708" />
   <path d="m 140.07586,135.53278 c -0.5722,0.1591 -1.06221,0.28998 -1.46826,0.39299 -0.40675,0.10301 -0.8001,0.19615 -1.18145,0.28011 -0.36901,0.0843 -0.90911,0.19226 -1.62031,0.32279 -1.20791,0.20567 -2.41512,0.36019 -3.62197,0.46284 -1.19521,0.11219 -2.45886,0.16793 -3.79307,0.16793 -2.68146,0 -5.16008,-0.35948 -7.43408,-1.07986 -2.27507,-0.71896 -4.09858,-1.8362 -5.47088,-3.35103 -1.35996,-1.51412 -2.03976,-3.37467 -2.03976,-5.58059 0,-1.42064 0.34925,-2.81341 1.04845,-4.17866 0.7112,-1.37371 1.79141,-2.47226 3.24062,-3.29529 1.19451,-0.68192 2.40136,-1.20051 3.62197,-1.55646 1.2319,-0.36442 2.43311,-0.60713 3.60221,-0.72884 1.16876,-0.12171 2.45851,-0.18203 3.86998,-0.18238 2.32551,0 4.24356,0.13123 5.75662,0.39228 1.51166,0.25259 3.16971,0.58914 4.97488,1.00965 v 4.59952 c -1.19486,-0.514 -2.45887,-0.94403 -3.79342,-1.28975 -1.33421,-0.34608 -2.99932,-0.51859 -4.99428,-0.51929 -2.30046,0 -4.14232,0.32244 -5.52767,0.96802 -1.37231,0.63535 -2.33222,1.397 -2.87796,2.28494 -0.53411,0.8883 -0.80116,1.74837 -0.80116,2.58022 0,0.98178 0.3115,1.88877 0.93451,2.72027 0.62194,0.82303 1.56245,1.4866 2.82116,1.99107 1.25836,0.49601 2.77636,0.74331 4.55577,0.74331 1.016,0 2.09621,-0.0981 3.23991,-0.29457 v -2.28565 h -3.58316 v -3.9123 h 10.54135 v 9.33873" />
  </g>
  <g style="fill:#FFF">
   <path d="m 145.55415,143.94477 c 0.0381,0.008 0.0804,0.0286 0.0804,0.0741 0,0.0536 -0.10689,0.1898 -0.21484,0.33444 -0.0547,0.073 -0.14252,0.19402 -0.24765,0.19402 -0.1009,2.6e-4 -0.14323,-0.0561 -0.14358,-0.14711 -0.001,-0.18132 0.41134,-0.75847 0.39899,-0.80645 -0.009,-0.0346 -0.19121,-0.13546 -0.19156,-0.26317 -8e-4,-0.23953 0.50306,-0.35172 0.68263,-0.40428 0.2734,-0.34572 0.41063,-0.51788 0.68897,-0.86148 -0.75494,0.004 -1.35361,0.27022 -1.48237,0.27058 -0.0261,3.4e-4 -0.0688,-0.003 -0.0688,-0.0402 -8e-4,-0.0991 0.24906,-0.41839 0.31785,-0.50906 0.078,-0.10301 0.20814,-0.13617 0.32914,-0.16898 0.37677,-0.10195 0.77717,-0.1404 1.1677,-0.13476 1.07597,0.0152 1.3656,0.35983 1.35043,0.87101 -0.0261,0.87877 -1.137,1.46261 -2.49273,1.31057 -0.0698,0.11218 -0.10513,0.16863 -0.17462,0.28081 z m 0.74894,-1.06998 c 0.1584,0.001 0.33408,-0.054 0.33303,0.0243 -7.9e-4,0.0825 -0.36372,0.0991 -0.43251,0.14428 -0.0378,0.0543 -0.0568,0.0815 -0.0945,0.13581 0.15734,0.042 0.30233,0.0511 0.43815,0.0448 0.8322,-0.0381 1.40088,-0.61064 1.35995,-0.87099 -0.0399,-0.25225 -1.01176,-0.35526 -1.0481,-0.32175 -0.0254,0.0233 -0.0328,0.16404 -0.0988,0.25013 -0.18379,0.23672 -0.27552,0.3556 -0.4572,0.59336" />
   <path d="m 149.19129,143.32459 c 0.0924,-0.0748 0.52775,-0.44874 0.63429,-0.44415 0.0342,0.002 0.0801,0.0169 0.0875,0.23142 0.004,0.0991 -0.11677,0.18874 -0.18662,0.24377 -0.14111,0.11112 -0.45614,0.42651 -0.4639,0.61207 -0.003,0.066 0.0346,0.0924 0.10195,0.0949 0.16016,0.007 0.53587,-0.26494 0.66781,-0.35772 0.006,0.0713 0.0102,0.10724 0.0166,0.17851 -0.22543,0.19155 -0.6925,0.64558 -1.00295,0.63358 -0.15522,-0.006 -0.24236,-0.13758 -0.23671,-0.28187 0.005,-0.12347 0.055,-0.23741 0.1016,-0.34325 l -0.009,-0.008 c -0.17004,0.1344 -0.46496,0.496 -0.69603,0.4893 -0.20602,-0.006 -0.31327,-0.23989 -0.30868,-0.41734 0.0109,-0.40005 0.34149,-0.80645 0.61983,-0.96873 0.0607,-0.0356 0.11677,-0.042 0.18944,-0.0395 0.0596,0.002 0.27799,-0.0268 0.25682,0.0956 -0.0109,0.0656 -0.13652,0.17674 -0.1778,0.21272 -0.13617,0.11783 -0.16475,0.17674 -0.33373,0.28646 -0.1337,0.0868 -0.23812,0.17427 -0.24341,0.34784 l 0.0321,0.0624 c 0.0762,0.002 0.3115,-0.11042 0.51647,-0.27658 0.17321,-0.14076 0.26035,-0.21096 0.43427,-0.35101" />
   <path d="m 151.55807,143.93313 c -0.27728,0.27515 -0.7627,0.63428 -1.17792,0.61206 -0.30586,-0.0162 -0.43498,-0.29068 -0.42969,-0.56338 0.0102,-0.54081 0.65829,-1.06116 1.21074,-1.02552 0.13617,0.009 0.30444,0.0519 0.29351,0.2166 -0.0131,0.20214 -0.24165,0.49001 -1.0668,0.70697 -0.005,0.036 -0.009,0.054 -0.0141,0.0903 -0.0212,0.15593 0.11465,0.21696 0.24941,0.22437 0.2988,0.0166 0.67134,-0.26247 0.90699,-0.42087 0.0109,0.0635 0.0166,0.096 0.0279,0.15946 z m -0.4826,-0.69709 -0.048,-0.048 c -0.21343,0.0427 -0.6043,0.49107 -0.6043,0.49107 0.0226,0.0268 0.65017,-0.37465 0.65228,-0.44309" />
   <path d="m 151.81313,143.66819 c -0.16404,0.2166 -0.34854,0.31221 -0.54081,0.47766 -0.002,-0.0727 -0.003,-0.10902 -0.005,-0.18203 0.11501,-0.0797 0.29845,-0.28328 0.29845,-0.28328 -0.005,-0.0109 -0.11183,-0.048 -0.10618,-0.13476 0.0194,-0.29634 0.47448,-0.56445 0.57679,-0.55739 0.0427,0.003 0.0744,0.0384 0.0716,0.0755 -0.003,0.0413 -0.0381,0.11324 -0.0381,0.11324 0.0272,0.042 0.64312,-0.0561 0.68051,-0.004 0.0579,0.0815 0.0864,0.15557 0.0847,0.22613 -0.002,0.12065 -0.0981,0.18274 -0.19967,0.25364 -0.13053,0.091 -0.35349,0.27976 -0.36584,0.4445 -0.005,0.066 0.0589,0.11995 0.12207,0.12453 0.18062,0.0138 0.46778,-0.23248 0.61559,-0.32421 0.007,0.0617 0.01,0.0924 0.0166,0.15453 -0.17533,0.16404 -0.69356,0.58349 -0.93239,0.56655 -0.17568,-0.0127 -0.27375,-0.18097 -0.26246,-0.3376 0.0197,-0.27975 0.25576,-0.4826 0.43991,-0.66781 l -0.008,-0.009 c -0.17886,0.0251 -0.26881,0.0378 -0.44732,0.0635" />
   <path d="m 154.53622,143.06424 c -0.23918,0.37076 -0.51964,0.37006 -0.75071,0.44838 -0.11853,0.0402 -0.43039,0.4847 -0.45191,0.7313 -0.008,0.0907 0.0169,0.14676 0.11324,0.15486 0.13441,0.0117 0.29457,-0.0991 0.76236,-0.36229 0.002,0.0734 0.002,0.10971 0.004,0.18274 -0.26987,0.1986 -0.76129,0.59796 -1.11654,0.56868 -0.16263,-0.0138 -0.25435,-0.13229 -0.24094,-0.29704 0.0113,-0.13582 0.079,-0.28787 0.14358,-0.40288 l -0.007,-0.009 c -0.0914,0.0607 -0.13759,0.0907 -0.2286,0.15134 -0.0138,-0.0639 -0.0205,-0.0956 -0.0342,-0.15946 0.26777,-0.17003 0.69816,-0.60607 0.69816,-0.60607 -0.0141,-0.0303 -0.17746,-0.0317 -0.40464,-0.0173 l 0.0533,-0.0706 c 0.25964,-0.34325 0.5214,-0.28646 0.75742,-0.38276 0.11287,-0.0459 0.25576,-0.34114 0.50375,-0.31786 0.0554,0.005 0.13512,0.0251 0.12877,0.0907 -0.007,0.0741 -0.14323,0.1979 -0.19155,0.25117 0.10513,0.0183 0.15734,0.0275 0.26211,0.0459" />
   <path d="m 155.911,144.31695 c -0.21626,0.21236 -0.53905,0.20496 -0.71755,0.25753 -0.14817,0.0437 -0.41311,0.2688 -0.67628,0.24306 -0.21696,-0.0215 -0.40005,-0.25753 -0.37782,-0.62972 0.0187,-0.30621 0.2032,-0.49882 0.45226,-0.65368 0.24553,-0.15276 0.56444,-0.23813 0.82479,-0.22261 0.0938,0.006 0.22896,0.0621 0.21661,0.17251 -0.007,0.0617 -0.10866,0.10019 -0.10866,0.10019 0,0.009 0.13829,0.13582 0.12453,0.25859 -0.0205,0.18097 -0.22507,0.44873 -0.21837,0.46672 0.0134,0.0353 0.31645,-0.09 0.45791,-0.16969 0.009,0.0709 0.0138,0.10619 0.0226,0.1771 z m -1.26295,-0.3295 c -0.1016,0.0797 -0.19826,0.23389 -0.21096,0.3616 -0.0116,0.11889 0.0646,0.16369 0.16933,0.17391 0.13829,0.0138 0.32456,-0.0847 0.34008,-0.13194 0.01,-0.0282 -0.0385,-0.12381 -0.031,-0.19402 0.0226,-0.21343 0.24165,-0.46072 0.23213,-0.46144 -0.0879,-0.006 -0.36301,0.145 -0.49954,0.25189" />
   <path d="m 158.24991,144.61575 c -0.17321,0.1845 -0.25964,0.27658 -0.43144,0.46179 0.03,0.14993 -0.23601,0.26811 -0.3482,0.25328 -0.0501,-0.006 -0.0921,-0.0451 -0.085,-0.0981 0.0106,-0.078 0.048,-0.13159 0.0988,-0.19155 0.18874,-0.23001 0.28328,-0.34502 0.47449,-0.57398 -0.0649,-0.0254 -0.20743,-0.0995 -0.18098,-0.1785 0.0688,-0.20391 0.31362,-0.37501 0.70768,-0.33196 0.30056,-0.31468 0.4519,-0.47167 0.7567,-0.78388 -0.3182,0.003 -0.64099,0.0109 -0.94579,0.0819 l -7.9e-4,0.008 c 0.26423,0.0614 0.35137,0.0571 0.34255,0.11854 -0.005,0.0328 -0.066,0.0367 -0.0871,0.0339 -0.13441,-0.006 -0.20108,-0.008 -0.33549,-0.0131 -0.12065,-0.004 -0.27728,0.004 -0.40075,-0.0127 -0.0635,-0.008 -0.15029,-0.0402 -0.1397,-0.11818 0.0176,-0.13053 0.18485,-0.37783 0.28433,-0.46637 0.22719,-0.20285 1.18992,-0.29246 2.05494,-0.15911 0.3937,0.061 1.22025,0.2339 1.13065,0.75495 -0.036,0.20743 -0.22543,0.49848 -0.41593,0.60113 -0.39123,0.21096 -0.60325,0.16123 -2.15759,0.22049 l -0.001,0.008 c 0.43391,0.20497 0.64946,0.30868 1.07879,0.51858 0.68404,0.3355 0.64911,0.44204 0.66287,0.47696 0.0586,0.14887 0.0212,0.4639 -0.11959,0.44097 -0.10795,-0.0176 -0.37889,-0.20673 -0.48472,-0.26529 -0.57891,-0.31926 -0.86995,-0.47625 -1.45768,-0.78634 z m 0.65476,-0.69568 c 0.43639,-0.0452 0.6544,-0.0663 1.09255,-0.10654 0.18027,-0.0176 0.78634,-0.15839 0.81986,-0.35736 0.0215,-0.12629 -0.43674,-0.20496 -0.53164,-0.21167 -0.3182,-0.0286 -0.47837,-0.0423 -0.79657,-0.0684 -0.0176,0.14322 -0.10795,0.22542 -0.20144,0.32843 -0.15381,0.16581 -0.23036,0.24906 -0.38276,0.41557" />
   <path d="m 161.81367,145.26063 c -0.22824,0.18979 -0.65793,0.49177 -0.9726,0.43849 -0.24448,-0.0413 -0.30939,-0.33583 -0.27411,-0.54362 0.0843,-0.49671 0.69215,-0.89323 0.94438,-0.84949 0.0716,0.0127 0.18027,0.0568 0.16405,0.14605 -0.0367,0.2032 -0.61983,0.48647 -0.71015,0.58138 -0.0741,0.0783 -0.0162,0.26105 0.17498,0.29386 0.22049,0.0378 0.47555,-0.1397 0.66393,-0.22754 0.004,0.0642 0.006,0.0963 0.01,0.16087 z m -0.19755,-1.19981 c 0.0296,-0.16685 0.25929,-0.27763 0.42404,-0.24834 0.0762,0.0134 0.12947,0.0776 0.11606,0.15063 -0.03,0.16262 -0.22225,0.33338 -0.40322,0.30127 -0.10125,-0.0176 -0.15417,-0.10618 -0.13688,-0.20356" />
   <path d="m 162.29839,145.10576 c -0.10407,0.048 -0.18979,0.0953 -0.21096,0.20884 -0.0173,0.0935 0.0582,0.23706 0.27376,0.27729 0.31503,0.0586 0.7313,-0.15628 1.00929,-0.29141 0.007,0.067 0.0116,0.10091 0.0187,0.16794 -0.30656,0.21342 -0.84808,0.52563 -1.24072,0.45331 -0.31785,-0.0586 -0.41698,-0.37711 -0.3623,-0.67804 0.0624,-0.34113 0.21061,-0.4452 0.51999,-0.59407 0.21449,-0.10301 0.6604,-0.24765 0.89535,-0.20214 0.13053,0.025 0.17639,0.1016 0.1517,0.22294 -0.0444,0.22297 -0.43463,0.47167 -0.54751,0.45016 -0.096,-0.018 -0.11818,-0.12772 -0.10795,-0.20532 -0.15981,0.0759 -0.23989,0.11395 -0.39935,0.1905" />
   <path d="m 164.99608,145.80355 c -0.23706,0.1898 -0.55774,0.15064 -0.74083,0.18557 -0.15205,0.0286 -0.43921,0.22576 -0.6985,0.17391 -0.21449,-0.043 -0.37253,-0.29562 -0.31291,-0.66392 0.0497,-0.30305 0.25223,-0.47555 0.51646,-0.60503 0.26035,-0.12734 0.58702,-0.18062 0.8449,-0.13934 0.0931,0.0152 0.22261,0.0847 0.19897,0.19333 -0.0134,0.0607 -0.11959,0.0889 -0.11959,0.0889 -7.9e-4,0.009 0.12488,0.14852 0.0988,0.26952 -0.0388,0.1778 -0.27023,0.42369 -0.26529,0.44238 0.01,0.0363 0.32491,-0.0582 0.47378,-0.12347 0.001,0.0716 0.003,0.10688 0.004,0.17815 z m -1.22519,-0.45296 c -0.10937,0.0691 -0.22084,0.21308 -0.2466,0.33866 -0.0236,0.11677 0.0476,0.16898 0.15099,0.18944 0.13653,0.0275 0.33161,-0.0515 0.35207,-0.097 0.012,-0.0272 -0.0258,-0.1277 -0.0109,-0.19649 0.0437,-0.20991 0.28751,-0.43427 0.27799,-0.43603 -0.0871,-0.0148 -0.37677,0.10866 -0.52352,0.20143" />
  </g>
 </g>
</g>
</svg>