<?xml version="1.0" encoding="UTF-8" standalone="no"?>
<svg
   viewBox="0 0 400 92.809998"
   version="1.1"
   id="svg11"
   sodipodi:docname="Anson’s Herrenhaus Logo 03.2022.svg"
   width="400"
   height="92.809998"
   inkscape:version="1.1.1 (3bf5ae0d25, 2021-09-20)"
   xmlns:inkscape="http://www.inkscape.org/namespaces/inkscape"
   xmlns:sodipodi="http://sodipodi.sourceforge.net/DTD/sodipodi-0.dtd"
   xmlns="http://www.w3.org/2000/svg"
   xmlns:svg="http://www.w3.org/2000/svg">
  <defs
     id="defs15" />
  <sodipodi:namedview
     id="namedview13"
     pagecolor="#ffffff"
     bordercolor="#111111"
     borderopacity="1"
     inkscape:pageshadow="0"
     inkscape:pageopacity="0"
     inkscape:pagecheckerboard="1"
     showgrid="false"
     inkscape:zoom="3.4675"
     inkscape:cx="200"
     inkscape:cy="46.575342"
     inkscape:window-width="1600"
     inkscape:window-height="837"
     inkscape:window-x="-8"
     inkscape:window-y="-8"
     inkscape:window-maximized="1"
     inkscape:current-layer="svg11" />
  <style
     id="style2">.st0{fill:#092d66}</style>
  <path
     id="s_1_"
     class="st0"
     d="m 363.726,61.766 h 2.08 c 1.314,7.526 5.228,11.9 7.764,14.502 2.616,2.574 5.94,3.95 9.366,3.95 2.68,0 5.6,-1.5 6.96,-3.054 1.408,-1.6 2.12,-2.908 2.494,-4.89 0.386,-2.232 -0.096,-5.408 -1.606,-7.244 -1.636,-1.992 -4.89,-3.196 -7.476,-3.986 l -6.226,-1.504 c -4.494,-1.01 -6.266,-1.424 -8.708,-3.092 -4.54,-2.93 -5.954,-9.73 -5.954,-13.23 0,-3.726 1.128,-7.244 3.668,-10.344 2.546,-3.208 6.672,-5.326 11.908,-5.358 2.644,0 5.126,0.286 7.52,1.41 2.31,1.08 5.31,2.148 5.7,2.208 0.332,0.046 1.306,0.046 1.886,-0.568 0.46,-0.472 0.674,-1.128 0.674,-1.736 h 1.794 v 16.688 h -2.108 c -0.36,-4.558 -2.26,-8.404 -4.726,-11.052 -2.4,-2.76 -5.522,-5.132 -10.272,-4.886 -4.232,0.218 -6.462,2.462 -7.354,3.958 -0.932,1.654 -1.694,3.764 -1.694,5.814 0,2.38 0.954,5.112 4.73,6.476 1.664,0.572 4.08,1.15 8.98,2.02 0,0 4.736,0.948 7.618,1.998 2.7,1.036 5.076,3.2 6.212,5.026 1.878,3.012 2.724,6.172 2.724,10.302 0,3.84 -1.01,7.818 -3.91,11.286 -2.648,3.39 -5.876,5.262 -11.62,5.92 -1.436,0.166 -4.68,-0.194 -6.196,-0.5 -1.476,-0.258 -2.93,-0.526 -4.408,-1.152 0,0 -1.586,-0.778 -2.55,-1.046 -0.972,-0.282 -1.976,-0.336 -2.748,-0.336 -0.656,0 -2.156,-0.04 -2.44,0.994 -0.138,0.51 0.03,0.082 -0.188,0.932 h -1.894 z"
     style="stroke-width:2" />
  <path
     id="l"
     class="st0"
     d="m 350.92,34.846 c -0.046,-3.322 -2.66,-6.004 -5.8,-6.004 a 6.094,6.094 0 0 0 -6.09,6.096 c 0,3.216 2.726,5.948 6.09,5.948 0.978,0 1.904,-0.24 2.614,-0.65 -0.846,4.818 -4.546,8.5 -9.26,9.468 v 1.694 c 7.04,-0.096 12.608,-6.472 12.608,-14.44 0,-0.766 -0.054,-1.376 -0.162,-2.112"
     style="stroke-width:2" />
  <path
     id="n_1_"
     class="st0"
     d="m 277.026,79.264 c 2.716,-0.078 3.854,-0.15 5.034,-1.668 0.832,-1.068 1.282,-2.594 1.282,-4.65 v -39.53 c 0.136,0.136 -1.336,-2.226 -1.88,-2.78 -0.856,0 -2.914,0.026 -4.55,0.026 v -2.086 h 16.538 l 28.628,35.75 h 0.386 V 37.91 c 0,-2.53 -0.208,-4.558 -1.214,-5.716 -0.968,-1.16 -2.572,-1.506 -5.834,-1.506 v -2.112 h 15.698 v 2.06 c -1.992,0 -4.196,0.126 -5.31,1.252 -0.636,0.764 -1.004,2.246 -1.036,4.546 l -0.026,45.634 h -3.75 L 286.156,36.61 h -0.536 v 34.864 c 0,2.4 0.44,4.036 0.994,5.154 1.196,2.35 3.12,2.48 6.418,2.636 v 2.014 h -16.006 z"
     style="stroke-width:2" />
  <path
     id="o"
     class="st0"
     d="m 240.164,27.188 c -13.736,0 -25.102,12.39 -25.102,27.71 0,15.176 11.366,27.566 25.1,27.566 14.012,0 25.102,-12.39 25.102,-27.566 0,-15.32 -11.09,-27.71 -25.1,-27.71 m 12.44,37.896 c 0,8.508 -4.37,15.324 -12.186,15.324 -6.632,0 -12.312,-6.916 -12.312,-15.42 V 42.82 c 0,-2.904 1.496,-13.492 12.184,-13.492 10.848,0 12.366,10.588 12.366,13.492 l -0.054,22.266 z"
     style="stroke-width:2" />
  <path
     id="s"
     class="st0"
     d="m 164.436,61.766 h 2.346 c 1.32,7.526 5.262,11.9 7.908,14.502 2.612,2.574 5.944,3.95 9.226,3.95 2.68,0 5.6,-1.5 6.962,-3.054 1.408,-1.6 2.118,-2.908 2.496,-4.89 0.418,-2.232 -0.092,-5.408 -1.606,-7.244 -1.64,-1.992 -4.884,-3.196 -7.484,-3.986 l -6.08,-1.504 c -4.5,-1.01 -6.406,-1.424 -8.854,-3.092 -4.54,-2.93 -5.954,-9.73 -5.954,-13.23 0,-3.726 1.132,-7.244 3.672,-10.344 2.54,-3.208 6.82,-5.326 12.04,-5.358 2.654,0 4.994,0.286 7.388,1.41 2.31,1.08 5.314,2.148 5.7,2.208 0.332,0.046 1.318,0.046 1.828,-0.568 0.518,-0.472 0.754,-1.128 0.754,-1.736 h 1.926 v 16.688 h -2.284 c -0.394,-4.558 -2.236,-8.404 -4.704,-11.052 -2.394,-2.76 -5.526,-5.132 -10.13,-4.886 -4.232,0.218 -6.462,2.462 -7.44,3.958 -1.046,1.654 -1.75,3.764 -1.75,5.814 0,2.38 0.904,5.112 4.88,6.476 1.67,0.572 4.07,1.15 8.836,2.02 0,0 4.732,0.948 7.614,1.998 2.686,1.036 5.226,3.2 6.358,5.026 1.872,3.012 2.708,6.172 2.708,10.302 0,3.84 -1,7.818 -3.894,11.286 -2.86,3.39 -6.018,5.262 -11.758,5.92 -1.446,0.166 -4.544,-0.194 -6.06,-0.5 -1.484,-0.258 -2.93,-0.526 -4.412,-1.152 0,0 -1.576,-0.778 -2.658,-1.046 -1.028,-0.282 -2,-0.336 -2.776,-0.336 -0.66,0 -2.164,-0.04 -2.45,0.994 -0.132,0.51 0.032,0.082 -0.182,0.932 h -2.164 V 61.766 Z"
     style="stroke-width:2" />
  <path
     id="n"
     class="st0"
     d="m 96.424,79.264 c 2.944,-0.078 4.144,-0.15 5.33,-1.668 0.76,-1.068 1.16,-2.594 1.16,-4.65 v -39.53 c 0.122,0.136 -1.214,-2.226 -1.768,-2.78 -0.846,0 -3.2,0.026 -4.832,0.026 V 28.576 H 113 l 28.48,35.75 h 0.39 V 37.91 c 0,-2.53 -0.214,-4.558 -1.22,-5.716 -0.966,-1.16 -2.56,-1.506 -5.684,-1.506 v -2.112 h 15.694 v 2.06 c -1.986,0 -4.046,0.126 -5.18,1.252 -0.756,0.764 -1.2,2.246 -1.242,4.546 l -0.024,45.634 H 140.4 L 105.704,36.61 h -0.54 v 34.864 c 0,2.4 0.44,4.036 1.008,5.154 1.186,2.35 3.114,2.48 6.408,2.636 v 2.014 H 96.424 Z"
     style="stroke-width:2" />
  <path
     id="a"
     class="st0"
     d="m 11.116,90.656 8.772,-19.988 h 35.336 l 4.94,10.534 H 90.18 L 51.27,0 H 42.754 L 0,92.81 h 400 v -2.154 z m 26.556,-57.6 13.408,28.54 H 24.26 Z"
     style="stroke-width:2" />
</svg>
