<?xml version="1.0" encoding="utf-8"?>
<!-- Generator: Adobe Illustrator 25.0.0, SVG Export Plug-In . SVG Version: 6.00 Build 0)  -->
<svg version="1.1" xmlns="http://www.w3.org/2000/svg" xmlns:xlink="http://www.w3.org/1999/xlink" x="0px" y="0px"
	 viewBox="0 0 200 30" enable-background="new 0 0 200 30" xml:space="preserve">
<g id="フッター">
</g>
<g id="コンテンツ">
</g>
<g id="スライダー1_1_">
</g>
<g id="スライダー0_1_">
</g>
<g id="ヘッダー">
	<g>
		<g>
			<path fill="#E60E64" d="M57.352,5.062H35.717v5.057H51.74c0,1.828-3.59,4.003-8.846,3.587c-0.408,4.005-2.025,7.593-7.81,8.064
				v4.882c7.635,0,10.759-5.353,11.798-8.061C56.141,17.947,58.05,9.532,57.352,5.062z"/>
			<polygon fill="#E60E64" points="105.306,13.474 105.306,8.413 95.876,8.413 95.644,5.062 90.668,5.062 90.902,8.413 
				82.487,8.413 82.487,13.474 91.251,13.474 91.455,16.416 82.487,16.416 82.487,21.474 91.802,21.474 92.115,26.002 
				97.089,26.002 96.778,21.474 105.306,21.474 105.306,16.416 96.425,16.416 96.223,13.474 			"/>
			<rect x="129.773" y="12.797" fill="#E60E64" width="20.207" height="5.061"/>
			<rect x="179.793" y="12.797" fill="#E60E64" width="20.207" height="5.061"/>
			<path fill="#E60E64" d="M80.114,8.708h-2.746V5.062h-4.974v3.646H59.373v5.061h6.895c-0.248,3.086-3.057,6.652-6.895,7.322v5.236
				c8.63-1.746,11.56-9.592,12.145-12.558h0.876v12.233h4.974V13.768h2.746V8.708z"/>
			<path fill="#E60E64" d="M127.65,20.755c-1.707-0.108-5.657-0.549-7.33-2.118c2.441-3.332,3.817-7.831,3.685-13.527h-16.905v5.061
				h11.531c-0.465,3.137-3.202,9.371-11.531,10.552v5.057c3.609-0.414,6.871-1.574,9.549-3.502c1.466,1.397,4.888,3.242,11,3.461
				V20.755z"/>
			<path fill="#E60E64" d="M157.864,5.424h4.861c1.214,16.904-6.73,19.924-10.414,20.475v-5.354
				C158.963,20.016,157.864,7.661,157.864,5.424z"/>
			<path fill="#E60E64" d="M164.555,5.466l4.898-0.003c0,9.533,0.387,13.495,5.627,15.102v5.334
				c-7.983-1.371-10.564-10.549-10.564-14.24C164.516,7.976,164.555,5.466,164.555,5.466z"/>
			<g>
				<g>
					<path fill="#E60E64" d="M15.222,15.544c2.226,0,3.115,1.602,3.293,3.293c0.177,1.693,0.624,6.054,5.831,6.054
						c4.274,0,6.1-3.827,6.1-7.523c0-4.627-4.497-14.02-15.224-14.02C4.495,3.349,0,12.741,0,17.368
						c0,3.696,1.824,7.523,6.097,7.523c5.208,0,5.653-4.361,5.831-6.054C12.106,17.146,12.998,15.544,15.222,15.544"/>
				</g>
			</g>
		</g>
		<path fill="#E60E64" d="M171.086,8.931c0-2.154,1.712-3.896,3.83-3.896c2.116,0,3.83,1.743,3.83,3.896
			c0,2.155-1.714,3.898-3.83,3.898C172.798,12.829,171.086,11.086,171.086,8.931z M174.915,10.543c0.872,0,1.577-0.722,1.577-1.613
			c0-0.887-0.705-1.608-1.577-1.608c-0.877,0-1.584,0.721-1.584,1.608C173.331,9.822,174.038,10.543,174.915,10.543z"/>
	</g>
</g>
<g id="メニュー_x5F_IR">
</g>
<g id="メニュー_x5F_会社情報">
</g>
<g id="メニューSP">
</g>
<g id="メニューSP2">
</g>
</svg>
