<?xml version="1.0" encoding="UTF-8" ?>
<!DOCTYPE svg PUBLIC "-//W3C//DTD SVG 1.1//EN" "http://www.w3.org/Graphics/SVG/1.1/DTD/svg11.dtd">
<svg width="400pt" height="73pt" viewBox="0 0 400 73" version="1.1" xmlns="http://www.w3.org/2000/svg">
<g id="a_ffffffff">
</g>
<g id="a_ee3040ff">
<path fill="#ee3040" opacity="1.00" d=" M 2.52 70.75 C 12.95 47.83 23.09 24.76 33.72 1.92 C 50.92 2.10 68.12 1.95 85.32 2.00 C 83.68 6.66 80.75 10.97 80.24 15.96 C 89.03 12.72 97.57 8.83 106.25 5.30 C 109.77 4.01 113.12 1.68 117.03 1.97 C 146.10 2.10 175.18 1.85 204.25 2.10 C 178.97 11.76 153.86 21.86 128.65 31.69 C 124.89 33.27 120.96 34.47 117.32 36.32 C 117.32 36.62 117.32 37.22 117.32 37.51 C 124.02 40.21 130.91 42.41 137.67 44.93 C 136.78 47.04 135.88 49.15 135.00 51.26 C 142.51 51.48 150.09 50.79 157.56 51.59 C 176.38 57.89 195.09 64.56 213.92 70.85 C 180.29 71.23 146.65 70.85 113.02 71.03 C 111.20 71.05 109.34 70.98 107.65 70.23 C 95.50 65.39 83.31 60.64 71.16 55.79 C 67.83 53.95 64.45 56.63 61.23 57.50 C 59.20 61.89 57.25 66.31 55.27 70.73 C 37.69 70.78 20.10 70.73 2.52 70.75 Z" />
</g>
<g id="a_0081c7ff">
<path fill="#0081c7" opacity="1.00" d=" M 356.48 25.99 C 365.70 23.39 374.93 20.84 384.15 18.25 C 382.92 21.43 381.65 24.59 380.35 27.75 C 386.43 27.76 392.50 27.73 398.58 27.76 C 397.46 30.35 396.32 32.93 395.16 35.50 C 389.14 35.49 383.12 35.52 377.10 35.48 C 376.14 37.63 375.24 39.81 374.35 41.99 C 380.42 42.01 386.49 41.99 392.56 42.01 C 391.54 44.77 390.49 47.53 389.39 50.26 C 377.24 50.21 365.08 50.30 352.93 50.23 C 350.24 50.55 347.36 48.02 348.37 45.22 C 350.75 38.69 353.83 32.42 356.48 25.99 Z" />
<path fill="#0081c7" opacity="1.00" d=" M 332.05 30.22 C 338.97 27.50 346.43 26.40 353.84 26.75 C 352.36 29.81 350.90 32.88 349.52 35.98 C 342.39 36.12 334.53 35.20 328.22 39.21 C 325.12 41.93 324.47 46.36 322.66 49.92 C 314.45 50.49 306.22 50.17 298.00 50.25 C 301.07 43.00 304.21 35.78 307.28 28.53 C 315.49 28.45 323.70 28.54 331.91 28.48 L 332.05 30.22 Z" />
<path fill="#0081c7" opacity="1.00" d=" M 168.90 31.08 C 178.21 28.57 189.77 25.15 198.06 31.94 C 206.40 29.60 215.13 27.60 223.83 28.63 C 227.12 29.02 231.34 31.05 230.80 35.01 C 230.22 40.73 226.25 45.36 224.34 50.67 C 216.56 50.84 208.78 50.72 201.00 50.74 C 202.79 46.47 204.57 42.21 206.30 37.92 C 203.54 35.83 200.18 37.01 197.40 38.32 C 195.65 42.38 193.88 46.44 192.12 50.49 C 184.48 50.51 176.84 50.48 169.19 50.51 C 170.99 46.28 172.89 42.10 174.46 37.78 C 171.52 35.88 168.27 37.28 165.36 38.44 C 163.64 42.46 161.96 46.50 160.22 50.50 C 152.25 50.47 144.28 50.55 136.31 50.46 C 139.39 43.21 142.41 35.94 145.60 28.74 C 153.63 28.76 161.66 28.76 169.69 28.74 C 169.49 29.32 169.10 30.49 168.90 31.08 Z" />
<path fill="#0081c7" opacity="1.00" d=" M 242.84 30.79 C 253.56 26.52 265.65 27.12 276.56 30.31 C 276.92 29.92 277.63 29.14 277.98 28.75 C 285.96 28.76 293.94 28.72 301.92 28.78 C 298.77 35.94 295.70 43.13 292.53 50.28 C 284.44 50.21 276.34 50.26 268.25 50.26 C 268.40 49.75 268.70 48.73 268.85 48.22 C 261.57 51.12 253.59 51.32 245.87 50.86 C 241.50 50.42 236.79 49.55 233.40 46.55 C 231.11 44.54 230.40 40.83 232.17 38.27 C 234.71 34.60 238.87 32.54 242.84 30.79 M 255.93 40.06 C 261.07 43.24 268.66 42.62 273.22 38.62 C 271.96 37.73 270.64 36.82 269.03 36.84 C 264.51 36.46 259.32 36.59 255.93 40.06 Z" />
</g>
</svg>
