<?xml version="1.0" encoding="utf-8"?>
<!-- Generator: Adobe Illustrator 23.0.2, SVG Export Plug-In . SVG Version: 6.00 Build 0)  -->
<svg version="1.1" xmlns="http://www.w3.org/2000/svg" xmlns:xlink="http://www.w3.org/1999/xlink" x="0px"
	 y="0px" viewBox="0 0 476.3 113.4" style="enable-background:new 0 0 476.3 113.4;" xml:space="preserve">
<style type="text/css">
	.st0{fill:#E60012;}
</style>
<g>
	<polygon class="st0" points="283.1,0 238.2,77.6 193.2,0 159,0 224.6,113.4 251.7,113.4 317.3,0 	"/>
	<path class="st0" d="M114.4,0L114.4,0H0.3v27.2h109.9c4.5,0,8.1,3.9,8.1,8.7v7.7H34.9C15.6,43.6,0,59.2,0,78.5
		c0,19.2,15.6,34.9,34.9,34.9H114c18.9,0,34.2-15.3,34.3-34.1l0,0c0-0.1,0-0.1,0-0.2V34.3c0,0,0-0.1,0-0.1v-0.2
		C148.2,15.3,133.1,0.2,114.4,0z M118.3,79.4c0,3.2-4.5,8.3-10,8.3H34.8c-5.1,0-9.2-4.1-9.2-9.2c0-5.1,4.1-9.2,9.2-9.2h83.6V79.4z"
		/>
	<path class="st0" d="M361.9,113.4L361.9,113.4H476V86.2H366c-4.5,0-8-3.9-8-8.7v-7.7h83.4c19.3,0,34.9-15.6,34.9-34.9
		c0-19.3-15.7-34.9-34.9-34.9h-79.1C343.4,0,328,15.3,328,34.1v0c0,0.1,0,0.1,0,0.1v44.8c0,0,0,0.1,0,0.2v0.2
		C328.2,98.1,343.2,113.2,361.9,113.4z M358,34c0-3.2,4.5-8.3,10-8.3h73.6c5.1,0,9.2,4.1,9.2,9.2c0,5.1-4.1,9.2-9.2,9.2H358V34z"/>
</g>
</svg>
