<?xml version="1.0" encoding="utf-8"?>
<!-- Generator: Adobe Illustrator 15.0.0, SVG Export Plug-In . SVG Version: 6.00 Build 0)  -->
<!DOCTYPE svg PUBLIC "-//W3C//DTD SVG 1.1//EN" "http://www.w3.org/Graphics/SVG/1.1/DTD/svg11.dtd">
<svg version="1.1" id="Calque_1" xmlns="http://www.w3.org/2000/svg" xmlns:xlink="http://www.w3.org/1999/xlink" x="0px" y="0px"
	 width="103.5px" height="36.625px" viewBox="4.813 3.938 103.5 36.625" enable-background="new 4.813 3.938 103.5 36.625"
	 xml:space="preserve">
<g>
	<g id="Calque_1_1_">
		<g>
			<path id="SVGID_1_" fill="#FF9D3D" d="M102.9,37.7c-0.2,0-0.4-0.2-0.4-0.4s0.2-0.399,0.4-0.399c0.199,0,0.398,0.199,0.398,0.399
				S103.2,37.7,102.9,37.7z M103.8,36.5c-0.6-0.4-0.899-0.3-0.899-0.3v-0.4c0.699,0,1.101,0.4,1.101,0.4l1.899,1.3V38
				C106,38,104.5,36.9,103.8,36.5z M102,36.5c-0.7,0.4-2.2,1.5-2.2,1.5v-0.5l1.9-1.3c0,0,0.399-0.4,1.1-0.4v0.4
				C102.9,36.2,102.6,36.1,102,36.5z M96.8,37.7c-0.2,0-0.399-0.2-0.399-0.4S96.6,36.9,96.8,36.9s0.4,0.199,0.4,0.398
				C97.2,37.499,97,37.7,96.8,37.7z M97.6,36.5C97,36.1,96.7,36.2,96.7,36.2v-0.4c0.7,0,1.1,0.4,1.1,0.4l1.9,1.3V38
				C99.8,38,98.3,36.9,97.6,36.5z M95.8,36.5c-0.7,0.4-2.2,1.5-2.2,1.5v-0.5l1.9-1.3c0,0,0.4-0.4,1.1-0.4v0.4
				C96.7,36.2,96.4,36.1,95.8,36.5z M90.6,37.7c-0.199,0-0.398-0.2-0.398-0.4S90.4,36.9,90.6,36.9c0.2,0,0.4,0.199,0.4,0.398
				C91,37.499,90.8,37.7,90.6,37.7z M91.4,36.5c-0.602-0.4-0.9-0.3-0.9-0.3v-0.4c0.7,0,1.1,0.4,1.1,0.4l1.9,1.3V38
				C93.6,38,92.2,36.9,91.4,36.5z M89.6,36.5C88.9,36.9,87.4,38,87.4,38v-0.5l1.898-1.3c0,0,0.4-0.4,1.102-0.4v0.4
				C90.5,36.2,90.2,36.1,89.6,36.5z M84.4,37.7c-0.2,0-0.4-0.2-0.4-0.4s0.2-0.399,0.4-0.399C84.6,36.9,84.8,37.1,84.8,37.3
				S84.6,37.7,84.4,37.7z M85.3,36.5c-0.6-0.4-0.899-0.3-0.899-0.3v-0.4c0.699,0,1.101,0.4,1.101,0.4l1.899,1.3V38
				C87.5,38,86,36.9,85.3,36.5z M83.5,36.5c-0.7,0.4-2.2,1.5-2.2,1.5v-0.5l1.9-1.3c0,0,0.399-0.4,1.1-0.4v0.4
				C84.4,36.2,84,36.1,83.5,36.5z M78.3,37.7c-0.2,0-0.399-0.2-0.399-0.4S78.1,36.9,78.3,36.9s0.4,0.199,0.4,0.398
				C78.7,37.499,78.5,37.7,78.3,37.7z M79.1,36.5c-0.6-0.4-0.898-0.3-0.898-0.3v-0.4c0.699,0,1.1,0.4,1.1,0.4l1.9,1.3V38
				C81.3,38,79.8,36.9,79.1,36.5z M77.3,36.5c-0.7,0.4-2.2,1.5-2.2,1.5v-0.5l1.9-1.3c0,0,0.4-0.4,1.1-0.4v0.4
				C78.2,36.2,77.9,36.1,77.3,36.5z M72.1,37.7c-0.199,0-0.398-0.2-0.398-0.4S71.9,36.9,72.1,36.9c0.2,0,0.4,0.199,0.4,0.398
				C72.5,37.499,72.3,37.7,72.1,37.7z M72.9,36.5C72.3,36.1,72,36.2,72,36.2v-0.4c0.7,0,1.1,0.4,1.1,0.4l1.9,1.3V38
				C75.1,38,73.7,36.9,72.9,36.5z M71.1,36.5C70.4,36.9,68.9,38,68.9,38v-0.5l1.898-1.3c0,0,0.4-0.4,1.102-0.4v0.4
				C72,36.2,71.7,36.1,71.1,36.5z M65.9,37.7c-0.2,0-0.4-0.2-0.4-0.4s0.2-0.399,0.4-0.399C66.1,36.9,66.3,37.1,66.3,37.3
				S66.1,37.7,65.9,37.7z M66.8,36.5c-0.6-0.4-0.899-0.3-0.899-0.3v-0.4c0.699,0,1.101,0.4,1.101,0.4l1.899,1.3V38
				C68.9,38,67.5,36.9,66.8,36.5z M64.9,36.5c-0.7,0.4-2.2,1.5-2.2,1.5v-0.5l1.899-1.3c0,0,0.399-0.4,1.101-0.4v0.4
				C65.9,36.2,65.5,36.1,64.9,36.5z M59.7,37.7c-0.2,0-0.4-0.2-0.4-0.4s0.2-0.399,0.4-0.399S60.1,37.1,60.1,37.3S60,37.7,59.7,37.7z
				 M60.6,36.5C60,36.1,59.7,36.2,59.7,36.2v-0.4c0.7,0,1.1,0.4,1.1,0.4l1.9,1.3V38C62.8,38,61.3,36.9,60.6,36.5z M58.8,36.5
				C58,36.9,56.6,38,56.6,38v-0.5l1.9-1.3c0,0,0.4-0.4,1.1-0.4v0.4C59.7,36.2,59.4,36.1,58.8,36.5z M53.6,37.7
				c-0.199,0-0.399-0.2-0.399-0.4S53.4,36.9,53.6,36.9c0.2,0,0.4,0.199,0.4,0.399S53.8,37.7,53.6,37.7z M54.4,36.5
				c-0.601-0.4-0.9-0.3-0.9-0.3v-0.4c0.7,0,1.1,0.4,1.1,0.4l1.9,1.3V38C56.6,38,55.2,36.9,54.4,36.5z M52.6,36.5
				c-0.7,0.4-2.2,1.5-2.2,1.5v-0.5l1.9-1.3c0,0,0.4-0.4,1.101-0.4v0.4C53.5,36.2,53.2,36.1,52.6,36.5z M47.4,37.7
				c-0.2,0-0.4-0.2-0.4-0.4s0.2-0.399,0.4-0.399c0.2,0,0.4,0.199,0.4,0.399S47.6,37.7,47.4,37.7z M48.3,36.5
				c-0.6-0.4-0.9-0.3-0.9-0.3v-0.4c0.7,0,1.1,0.4,1.1,0.4l1.9,1.3V38C50.4,38,49,36.9,48.3,36.5z M46.4,36.5
				c-0.7,0.4-2.2,1.5-2.2,1.5v-0.5l1.9-1.3c0,0,0.4-0.4,1.1-0.4v0.4C47.3,36.2,47,36.1,46.4,36.5z M41.2,37.7
				c-0.2,0-0.4-0.2-0.4-0.4S41,36.9,41.2,36.9c0.2,0,0.4,0.199,0.4,0.398C41.6,37.499,41.5,37.7,41.2,37.7z M42.1,36.5
				c-0.6-0.4-0.9-0.3-0.9-0.3v-0.4c0.7,0,1.1,0.4,1.1,0.4l1.9,1.3V38C44.3,38,42.8,36.9,42.1,36.5z M40.3,36.5
				c-0.7,0.4-2.2,1.5-2.2,1.5v-0.5l1.9-1.3c0,0,0.4-0.4,1.1-0.4v0.4C41.2,36.2,40.9,36.1,40.3,36.5z M35.1,37.7
				c-0.2,0-0.4-0.2-0.4-0.4s0.2-0.399,0.4-0.399c0.2,0,0.4,0.199,0.4,0.399S35.3,37.7,35.1,37.7z M35.9,36.5
				c-0.6-0.4-0.9-0.3-0.9-0.3v-0.4c0.7,0,1.1,0.4,1.1,0.4l1.9,1.3V38C38.1,38,36.6,36.9,35.9,36.5z M34.1,36.5
				c-0.7,0.4-2.2,1.5-2.2,1.5v-0.5l1.9-1.3c0,0,0.4-0.4,1.1-0.4v0.4C35,36.2,34.7,36.1,34.1,36.5z M28.9,37.7
				c-0.2,0-0.4-0.2-0.4-0.4s0.2-0.399,0.4-0.399c0.2,0,0.4,0.199,0.4,0.399S29.1,37.7,28.9,37.7z M29.8,36.5
				c-0.6-0.4-0.9-0.3-0.9-0.3v-0.4c0.7,0,1.1,0.4,1.1,0.4l1.9,1.3V38C31.9,38,30.5,36.9,29.8,36.5z M27.9,36.5
				c-0.7,0.4-2.2,1.5-2.2,1.5v-0.5l1.9-1.3c0,0,0.4-0.4,1.1-0.4v0.4C28.8,36.2,28.5,36.1,27.9,36.5z M22.7,37.7
				c-0.2,0-0.4-0.2-0.4-0.4s0.2-0.399,0.4-0.399c0.2,0,0.4,0.199,0.4,0.399S22.9,37.7,22.7,37.7z M23.6,36.5
				c-0.6-0.4-0.9-0.3-0.9-0.3v-0.4c0.7,0,1.1,0.4,1.1,0.4l1.9,1.3V38C25.8,38,24.3,36.9,23.6,36.5z M21.8,36.5
				C21,36.9,19.6,38,19.6,38v-0.5l1.9-1.3c0,0,0.4-0.4,1.1-0.4v0.4C22.7,36.2,22.3,36.1,21.8,36.5z M16.6,37.7
				c-0.2,0-0.4-0.2-0.4-0.4s0.2-0.399,0.4-0.399c0.2,0,0.4,0.199,0.4,0.399S16.8,37.7,16.6,37.7z M17.4,36.5
				c-0.6-0.4-0.9-0.3-0.9-0.3v-0.4c0.7,0,1.1,0.4,1.1,0.4l1.9,1.3V38C19.6,38,18.1,36.9,17.4,36.5z M15.6,36.5
				c-0.7,0.4-2.2,1.5-2.2,1.5v-0.5l1.9-1.3c0,0,0.4-0.4,1.1-0.4v0.4C16.5,36.2,16.2,36.1,15.6,36.5z M10.4,37.7
				c-0.2,0-0.4-0.2-0.4-0.4s0.2-0.399,0.4-0.399c0.2,0,0.4,0.199,0.4,0.399S10.6,37.7,10.4,37.7z M11.2,36.5
				c-0.6-0.4-0.9-0.3-0.9-0.3v-0.4c0.7,0,1.1,0.4,1.1,0.4l1.9,1.3V38C13.4,38,12,36.9,11.2,36.5z M9.4,36.5C8.7,36.9,7.2,38,7.2,38
				v-0.5l1.9-1.3c0,0,0.4-0.4,1.1-0.4v0.4C10.3,36.2,10,36.1,9.4,36.5z"/>
		</g>
	</g>
</g>
<g>
	<g>
		<path fill="#FFFFFF" d="M22.2,26.2h3.1l-1.4-3.5L22.2,26.2 M21.9,26.8l-1.3,2.7c-0.1,0.3-0.1,0.7-0.1,0.8c0,0.3,0.3,0.5,0.8,0.601
			v0.301c-0.5,0-0.9-0.102-1.4-0.102S19,31.2,18.4,31.2v-0.3c0.9-0.2,1-0.602,1.4-1.301l4.4-9.201h0.3l3.9,9.201
			c0.3,0.699,0.6,1,1.4,1.301v0.3c-0.5,0-1.1-0.101-1.6-0.101S27.1,31.2,26.6,31.2v-0.3c0.2-0.102,0.6-0.301,0.6-0.5
			c0-0.2-0.1-0.4-0.2-0.602l-1.4-3L21.9,26.8"/>
		<path fill="#FFFFFF" d="M39.6,26.2h3.1l-1.4-3.5L39.6,26.2 M39.3,26.8L38,29.5c-0.1,0.3-0.1,0.7-0.1,0.8c0,0.3,0.3,0.5,0.8,0.601
			v0.301c-0.5,0-0.9-0.102-1.4-0.102S36.4,31.2,35.8,31.2v-0.3c0.9-0.2,1-0.602,1.4-1.301l4.4-9.201h0.3l3.9,9.201
			c0.3,0.699,0.6,1,1.4,1.301v0.3c-0.5,0-1.1-0.101-1.6-0.101S44.5,31.2,44,31.2v-0.3c0.2-0.102,0.6-0.301,0.6-0.5
			c0-0.2-0.1-0.4-0.2-0.602l-1.4-3L39.3,26.8"/>
		<path fill="#FFFFFF" d="M89.6,26.2H92.7l-1.4-3.5L89.6,26.2 M89.3,26.8L88,29.5c-0.1,0.3-0.1,0.7-0.1,0.8c0,0.3,0.3,0.5,0.8,0.601
			v0.301c-0.5,0-0.9-0.102-1.4-0.102S86.4,31.2,85.8,31.2v-0.3c0.9-0.2,1-0.602,1.4-1.301l4.399-9.201H91.9l3.898,9.201
			c0.301,0.699,0.602,1,1.4,1.301v0.3c-0.499,0-1.1-0.101-1.6-0.101S94.5,31.2,94,31.2v-0.3c0.2-0.102,0.6-0.301,0.6-0.5
			c0-0.2-0.1-0.4-0.199-0.602l-1.399-3L89.3,26.8"/>
		<path fill="#FFFFFF" d="M31.1,26.6V30c0,0.5,0.1,0.9,0.4,0.9v0.3c-0.2,0-0.9-0.101-1.3-0.101c-0.3,0-0.7,0.101-0.8,0.101v-0.3
			c0.3,0,0.4-0.4,0.4-0.9v-5.5c0-3.4-0.1-3.6-0.6-3.6V20.6c0.3,0,0.6,0.101,1,0.101c0.4,0,1.1-0.101,1.4-0.101V20.9
			c-0.4,0-0.5,0.399-0.5,0.899v3.8h4.8v-3.8c0-0.5-0.1-0.899-0.5-0.899V20.6c0.3,0,0.6,0.101,1,0.101c0.3,0,0.7-0.101,1-0.101V20.9
			c-0.5-0.101-0.5,0.1-0.6,3.6V30c0,0.5,0.2,0.9,0.4,0.9v0.3c-0.2,0-0.5-0.101-0.8-0.101c-0.4,0-0.7,0.101-0.9,0.101v-0.3
			c0.3,0,0.4-0.4,0.4-0.9v-3.5h-4.8"/>
		<path fill="#FFFFFF" d="M48.2,29.9c0,0.6,0.3,0.898,1.5,0.898c3.1,0,5.2-1.3,5.2-4.6c0-3.102-2.101-5.2-5-5.2
			c-1.4,0-1.5,0.101-1.6,1.3c0,1.102-0.1,2.2-0.1,3.2V29.9 M47,21.8c0-0.5-0.2-0.899-0.7-0.899V20.6c0.7,0,1.5,0.101,2.2,0.101
			s1.4-0.101,2.1-0.101c3.2,0,5.8,2.2,5.8,5.601c0,3.2-2.601,4.899-5.8,4.899c-0.7,0-1.4-0.101-2.1-0.101S47.1,31.1,46.4,31.1
			v-0.301c0.5,0,0.7-0.398,0.7-0.898V21.8"/>
		<path fill="#FFFFFF" d="M61.3,30.5c2.601,0,3.8-2,3.8-4.6c0-2.5-1.1-4.602-3.699-4.602c-1.699,0-3.699,1.2-3.801,4.602
			C57.6,28.4,58.7,30.5,61.3,30.5 M61.4,20.5c3,0,5.199,2.4,5.199,5.5S64.4,31.5,61.4,31.5s-5.2-2.4-5.2-5.5
			C56.2,22.8,58.4,20.5,61.4,20.5"/>
		<path fill="#FFFFFF" d="M73.8,21.8c0-0.5-0.2-0.899-0.8-0.899V20.6c0.5,0,0.9,0.101,1.4,0.101s1-0.101,1.5-0.101V20.9
			C75.2,20.9,75.1,21.3,75.1,21.8V30c0,0.6,0.399,0.9,1,0.9v0.3c-0.5,0-0.899-0.101-1.301-0.101C74.4,31.1,74,31.2,73.7,31.2V31.1
			c0.1-0.1,0.2-0.199,0.2-0.398V30c-1,0.7-2.2,1.4-3.602,1.4c-2.199,0-3.8-1.4-3.8-3.9v-5.7c0-0.5-0.2-0.899-0.8-0.899V20.6
			c0.5,0,0.898,0.101,1.398,0.101s1-0.101,1.4-0.101V20.9c-0.6,0-0.7,0.399-0.7,0.899V27.4c0,2.398,1.7,3.1,2.9,3.1s2.7-0.5,3.3-1.4
			L73.8,21.8"/>
		<path fill="#FFFFFF" d="M78.4,25.6C78.6,25.6,78.8,25.7,79,25.7c1.2,0,2.1-0.7,2.1-2c0-1-0.699-2.101-2.1-2.101
			c-0.5,0-0.6,0-0.6,0.4c0,0.6-0.102,1.1-0.102,1.7V25.6 M87.5,32.5c2,1.3,4.6,2.4,6.6,0.3l0.102,0.3
			c-4.5,4.102-9.7-0.699-11.801-2.6l-2.899-2.9c-0.399-0.398-0.3-0.5-1-0.6v3c0,0.5,0.5,0.9,1,0.9v0.3c-0.399,0-1.2-0.101-1.8-0.101
			c-0.5,0-0.9,0.101-1.4,0.101v-0.3c0.7,0,0.801-0.4,0.801-0.9v-4.1c0-1.4-0.101-2.7-0.101-3.801c0-0.8-0.2-1.199-1-1.199V20.6
			c0.899,0,2.2-0.1,3-0.1c2.101,0,3.7,0.8,3.7,2.8c0,1.4-1.2,2.101-2.4,2.8l4,3.9C84.2,30,85.7,31.4,87.5,32.5"/>
		<path fill="#FFFFFF" d="M87,20.9c-0.6,0-0.8,0.399-0.8,0.899V30c0,0.5,0.2,0.9,0.7,0.9v0.3C86.6,31.2,86.1,31.1,85.6,31.1
			S84.7,31.2,84.4,31.2v-0.3c0.398,0,0.699-0.4,0.699-0.9L85,21.8c0-0.5-0.2-0.899-0.8-0.899V20.6c0.5,0,0.899,0.101,1.399,0.101
			s1-0.101,1.399-0.101L87,20.9"/>
		<path fill="#FFFFFF" d="M96.8,20.7h0.3c0.5,0.5,0.9,1.1,1.4,1.6L105,29v-5c0-2.6-0.2-2.9-1.2-3.1V20.6c0.601,0,1,0.101,1.5,0.101
			c0.4,0,0.9-0.101,1.3-0.101V20.9c-0.8,0.199-1,0.399-1,1.199V31.2h-0.3l-7.8-8V29c0,1.6,0.2,1.8,1.1,2v0.3
			c-0.5,0-0.898-0.1-1.398-0.1c-0.602,0-1,0.1-1.4,0.1V31c0.801-0.2,1-0.4,1-1.2L96.8,20.7"/>
		<path fill="#FFFFFF" d="M19.2,26.201c-0.67-1.817-2.264-3.439-4.676-4.016c1.568-0.78,2.576-1.741,2.576-2.886
			c0-2.4-1.5-3.8-4.9-3.8c-0.7,0-1.5,0-2.2,0s-1.4-0.1-2.2-0.1v0.4c0.8,0,1.1,0.2,1.1,2.2v6.7c-0.993,0.435-1.745,1.271-2.4,2.3
			c-0.6,1.2-0.7,2.4-0.3,3.5c1.3,3.4,5.2,4.2,8.2,3.6C17.7,33.4,20.7,30.3,19.2,26.201z M11.3,17.2c0-0.7,0.1-1,0.9-1c2,0,3,0.9,3,3
			c0,1.8-1,2.8-3.3,2.8h-0.7L11.3,17.2z M13.8,33c-1.9,0.8-5.8,0.3-7-2.7C6.4,29.4,6.6,28.2,7,27.2
			c0.463-0.927,1.026-1.587,1.9-2.078V29.4C8.9,30.1,8.6,30.8,7.8,30.8v0.4c0.5,0,1.3-0.101,2.3,0c0.9,0,1.8,0.1,2.3,0.1V30.9
			c-0.9,0-1.2-0.7-1.2-1.4v-5.019c1.538-0.068,2.907,0.548,3.6,1.519l0.3-0.2c-0.852-1.135-2.262-1.703-3.9-1.624V23.2
			c1.2-0.601,2.762-0.098,2.787-0.155c1.763,0.657,2.84,1.397,3.213,3.355C17.8,29.4,16.2,32,13.8,33z"/>
	</g>
	<g>
		<path fill="#FFFFFF" stroke="#FFFFFF" stroke-width="0.1" stroke-miterlimit="10" d="M36,16.4h-2h-0.6c-0.1,0-0.1,0-0.1-0.1
			c0,0,0-0.1,0.1-0.1h0.2c0.1,0,0.1,0,0.2-0.1c0,0,0.1-0.1,0.1-0.2V13c0-0.1-0.1-0.2-0.2-0.2h-0.2c0,0-0.1,0-0.1-0.1
			c0,0,0-0.1,0.1-0.1h0.6H36c0.1,0,0.1,0,0.2,0.1c0,0,0.1,0.1,0.1,0.2l0.1,0.5c0,0.1,0,0.1-0.1,0.1c-0.1,0-0.1,0-0.1-0.1
			c-0.1-0.2-0.1-0.3-0.2-0.4s-0.3-0.1-0.4-0.1h-0.8c-0.1,0-0.1,0-0.2,0.1c0,0-0.1,0.1-0.1,0.2v1.1c0,0,0,0.1,0.1,0.1h1
			c0.1,0,0.1,0,0.1,0s0,0,0.1-0.1c0.1-0.1,0-0.1,0-0.1v-0.1c0,0,0-0.1,0.1-0.1c0,0,0.1,0,0.1,0.1v0.5V15c0,0,0,0.1-0.1,0.1
			c0,0-0.1,0-0.1-0.1v-0.1c0-0.2-0.1-0.3-0.2-0.3h-1c0,0-0.1,0-0.1,0.1V16c0,0.1,0,0.1,0.1,0.2c0,0,0.1,0.1,0.2,0.1h0.9
			c0.2,0,0.3,0,0.5-0.1c0.1-0.1,0.2-0.2,0.3-0.4c0-0.1,0-0.1,0.1-0.1h0.1c0,0,0,0,0,0.1l-0.1,0.6c0,0.1,0,0.1-0.1,0.2
			S36,16.4,36,16.4z"/>
		<path fill="#FFFFFF" stroke="#FFFFFF" stroke-width="0.1" stroke-miterlimit="10" d="M37.3,13.7c0.1,0,0.1,0,0.1,0.1v0.1
			c0,0,0,0.1,0,0l0.1-0.1c0.1,0,0.1-0.1,0.2-0.1c0.1,0,0.2-0.1,0.3-0.1c0.4,0,0.8,0.1,1,0.4c0.3,0.3,0.4,0.6,0.4,1s-0.1,0.8-0.4,1
			c-0.3,0.3-0.6,0.4-1,0.4c-0.3,0-0.5-0.1-0.7-0.2l0,0c0,0,0,0,0,0.1v1.4c0,0.1,0.1,0.2,0.2,0.2h0.1c0,0,0.1,0,0.1,0.1
			s0,0.1-0.1,0.1h-0.5h-0.6c-0.1,0-0.1,0-0.1-0.1s0-0.1,0.1-0.1h0.2c0.1,0,0.1,0,0.2-0.1c0.1-0.1,0.1-0.1,0.1-0.2V14
			c0-0.1,0-0.1,0-0.1h-0.1h-0.2c0,0-0.1,0-0.1-0.1c0,0,0-0.1,0.1-0.1H37.3L37.3,13.7z M39.1,15.2c0-0.4-0.1-0.8-0.3-1
			c-0.2-0.2-0.4-0.4-0.6-0.4c-0.2,0-0.4,0.1-0.6,0.2c-0.2,0.1-0.2,0.3-0.2,0.4v1.1c0,0.2,0.1,0.3,0.2,0.5c0.2,0.1,0.3,0.2,0.5,0.2
			c0.3,0,0.5-0.1,0.7-0.3C39,15.8,39.1,15.6,39.1,15.2z"/>
		<path fill="#FFFFFF" stroke="#FFFFFF" stroke-width="0.1" stroke-miterlimit="10" d="M41.1,16.3L41.1,16.3c0.1,0.1,0,0.1,0,0.1
			h-0.5H40c-0.1,0-0.1,0-0.1-0.1c0,0,0-0.1,0.1-0.1h0.2c0.1,0,0.1,0,0.2-0.1c0,0,0.1-0.1,0.1-0.2v-2c0-0.1,0-0.1,0-0.1h-0.1h-0.2
			c0,0-0.1,0-0.1-0.1c0,0,0-0.1,0.1-0.1l0.7-0.1c0.1,0,0.1,0,0.1,0.1v2.3C40.7,16.2,40.8,16.3,41.1,16.3L41.1,16.3z M40.3,12.8
			c0,0-0.1-0.1-0.1-0.2s0-0.1,0.1-0.2c0,0,0.1-0.1,0.2-0.1s0.1,0,0.2,0.1c0.1,0.1,0.1,0.1,0.1,0.2s0,0.1-0.1,0.2
			c-0.1,0.1-0.1,0.1-0.2,0.1S40.4,12.9,40.3,12.8z"/>
		<path fill="#FFFFFF" stroke="#FFFFFF" stroke-width="0.1" stroke-miterlimit="10" d="M43.8,14.5C43.8,14.6,43.8,14.6,43.8,14.5
			c-0.1,0.1-0.1,0.1-0.2,0c-0.1-0.2-0.1-0.4-0.3-0.5c-0.1-0.1-0.3-0.2-0.5-0.2c-0.3,0-0.5,0.1-0.7,0.3c0,0.3-0.1,0.5-0.1,0.9
			s0.1,0.7,0.3,0.9c0.2,0.2,0.4,0.3,0.7,0.3s0.5-0.1,0.7-0.2c0,0,0,0,0.1,0c0.1,0,0,0,0.1,0c0,0,0,0,0,0.1s0,0.1,0,0.1
			c-0.2,0.2-0.5,0.3-0.9,0.3s-0.7-0.1-1-0.4c-0.3-0.2-0.4-0.6-0.4-1.1c0-0.4,0.1-0.7,0.4-1s0.6-0.4,1-0.4c0.3,0,0.5,0,0.7,0.1
			c0.2,0.1,0.3,0.2,0.3,0.3v0.5H43.8z"/>
		<path fill="#FFFFFF" stroke="#FFFFFF" stroke-width="0.1" stroke-miterlimit="10" d="M46.7,14.7c0,0.2-0.1,0.3-0.3,0.3h-1.6
			c0,0-0.1,0-0.1,0.1c0,0.3,0.1,0.6,0.3,0.8c0.2,0.2,0.4,0.3,0.7,0.3c0.3,0,0.5-0.1,0.6-0.2h0.1v0.1c-0.2,0.2-0.5,0.3-0.8,0.3
			c-0.4,0-0.8-0.1-1-0.4c-0.3-0.3-0.4-0.6-0.4-1.1c0-0.4,0.1-0.7,0.4-1c0.3-0.3,0.5-0.4,0.9-0.4s0.6,0.1,0.8,0.3
			C46.6,14.2,46.7,14.4,46.7,14.7z M46.2,14.6c0-0.2-0.1-0.4-0.2-0.5s-0.3-0.2-0.5-0.2S45.1,14,45,14.2c-0.1,0.2-0.2,0.4-0.2,0.6
			c0,0.1,0,0.1,0.1,0.1h1.2C46.2,14.8,46.2,14.7,46.2,14.6z"/>
		<path fill="#FFFFFF" stroke="#FFFFFF" stroke-width="0.1" stroke-miterlimit="10" d="M49.1,15.7c0,0.2-0.1,0.4-0.3,0.5
			c-0.2,0.1-0.4,0.2-0.7,0.2c-0.3,0-0.5,0-0.7-0.1c-0.2-0.1-0.3-0.1-0.3-0.2v-0.5c0-0.1,0-0.1,0.1-0.1c0,0,0.1,0,0.1,0.1
			c0.1,0.4,0.3,0.6,0.7,0.6c0.2,0,0.3,0,0.4-0.1s0.2-0.2,0.2-0.3c0-0.1,0-0.2-0.1-0.3s-0.2-0.2-0.4-0.2c-0.1-0.1-0.3-0.1-0.4-0.2
			c-0.1-0.1-0.3-0.2-0.4-0.3c-0.1-0.1-0.1-0.2-0.1-0.4c0-0.2,0.1-0.4,0.3-0.5s0.4-0.2,0.7-0.2c0.2,0,0.4,0,0.5,0.1
			c0.1,0.1,0.2,0.1,0.2,0.2v0.4c0,0.1,0,0.1-0.1,0.1c-0.1,0-0.1,0-0.1-0.1c-0.1-0.3-0.3-0.5-0.6-0.5c-0.1,0-0.3,0-0.4,0.1
			c-0.1,0.1-0.1,0.2-0.1,0.3c0,0.1,0,0.2,0.1,0.3c0.1,0.1,0.2,0.2,0.4,0.2c0.1,0.1,0.3,0.1,0.4,0.2s0.3,0.2,0.4,0.3
			C49,15.4,49.1,15.6,49.1,15.7z"/>
		<path fill="#FFFFFF" stroke="#FFFFFF" stroke-width="0.1" stroke-miterlimit="10" d="M53.2,13.3c0,0.1,0,0.2-0.101,0.3
			c0,0.1-0.1,0.1-0.1,0.2l-0.1,0.1C52.8,13.9,52.8,14,52.8,14s-0.1,0.1-0.2,0.1c-0.1,0-0.1,0.1-0.199,0.1c0,0-0.2,0.1-0.301,0.2
			c0.2,0.3,0.601,0.7,1,1.1c0.101-0.2,0.2-0.4,0.2-0.7v-0.1c0-0.1,0-0.1-0.1-0.1H53c0,0-0.1,0-0.1-0.1c0,0,0-0.1,0.1-0.1h0.5H54
			c0.1,0,0.1,0,0.1,0.1c0,0,0,0.1-0.1,0.1h-0.1c-0.101,0-0.2,0-0.2,0.1c0,0-0.101,0.1-0.101,0.2c-0.1,0.4-0.199,0.7-0.3,0.9
			c0.2,0.2,0.3,0.3,0.5,0.4c0.2,0.1,0.3,0.2,0.4,0.2h0.1c0,0,0.101,0,0.101,0.1c0,0,0,0.1-0.101,0.1c-0.3,0-0.6,0-0.6,0
			c-0.101,0-0.2,0-0.2-0.1c-0.1-0.1-0.3-0.2-0.3-0.3c-0.3,0.3-0.601,0.5-1.101,0.5c-0.3,0-0.6-0.1-0.899-0.3
			c-0.3-0.2-0.4-0.4-0.4-0.7c0-0.3,0.1-0.5,0.2-0.7s0.4-0.3,0.7-0.5c-0.2-0.4-0.3-0.7-0.3-0.9c0-0.2,0.1-0.5,0.3-0.6
			c0.2-0.2,0.399-0.2,0.7-0.2c0.3,0,0.5,0.1,0.699,0.2C53.3,13.1,53.2,13.1,53.2,13.3z M51.2,15.4c0,0.2,0.1,0.4,0.2,0.6
			s0.3,0.2,0.5,0.2c0.3,0,0.6-0.1,0.8-0.4c-0.5-0.5-0.8-0.9-1.1-1.2C51.4,14.8,51.2,15.1,51.2,15.4z M51.7,13.3
			c0,0.2,0.1,0.5,0.3,0.9c0.2-0.1,0.4-0.3,0.5-0.3c0.1-0.1,0.2-0.2,0.2-0.3s0.1-0.2,0.1-0.3c0-0.1-0.1-0.2-0.2-0.3
			c-0.1-0.1-0.199-0.1-0.399-0.1s-0.3,0-0.4,0.1C51.7,13.1,51.7,13.2,51.7,13.3z"/>
		<path fill="#FFFFFF" stroke="#FFFFFF" stroke-width="0.1" stroke-miterlimit="10" d="M58.2,15.4c0,0.3-0.101,0.6-0.4,0.8
			c-0.3,0.2-0.6,0.3-0.899,0.3c-0.4,0-0.7,0-0.9-0.1s-0.3-0.2-0.3-0.3v-0.6c0-0.1,0-0.1,0.1-0.1c0,0,0.101,0,0.101,0.1
			C56,15.8,56.1,16,56.3,16.1c0.101,0.1,0.4,0.2,0.601,0.2c0.199,0,0.5-0.1,0.699-0.2c0.2-0.1,0.301-0.3,0.301-0.5
			c0-0.2-0.101-0.4-0.399-0.6c-0.101-0.1-0.2-0.1-0.399-0.2c-0.201-0.1-0.301-0.1-0.4-0.2s-0.301-0.2-0.4-0.2
			c-0.3-0.2-0.4-0.4-0.4-0.7c0-0.3,0.101-0.5,0.301-0.7c0.199-0.2,0.5-0.3,0.8-0.3s0.601,0,0.8,0.1c0.2,0.1,0.301,0.2,0.301,0.3v0.5
			c0,0.1,0,0.1-0.101,0.1s-0.101,0-0.101-0.1c-0.101-0.2-0.199-0.4-0.301-0.5c-0.1-0.1-0.3-0.2-0.5-0.2c-0.199,0-0.399,0.1-0.6,0.2
			c-0.1,0.1-0.2,0.3-0.2,0.4s0.101,0.3,0.2,0.4s0.3,0.2,0.5,0.3c0.2,0.1,0.4,0.2,0.6,0.3c0.2,0.1,0.4,0.2,0.5,0.4
			C58.2,15,58.2,15.2,58.2,15.4z"/>
		<path fill="#FFFFFF" stroke="#FFFFFF" stroke-width="0.1" stroke-miterlimit="10" d="M61.2,16.4c0,0.1-0.101,0.1-0.2,0.1
			c-0.2,0-0.4-0.1-0.6-0.3c0,0,0,0-0.102,0c0,0,0,0-0.1,0c-0.2,0.2-0.5,0.3-0.801,0.3c-0.199,0-0.399-0.1-0.5-0.2
			c-0.199-0.1-0.199-0.3-0.199-0.5c0-0.3,0.1-0.4,0.3-0.6c0.2-0.1,0.5-0.2,0.899-0.3c0.101,0,0.199,0,0.199,0s0.102,0,0.102-0.1
			v-0.5c0-0.1,0-0.3-0.102-0.4C60,13.8,59.9,13.8,59.7,13.8s-0.3,0.1-0.4,0.2c-0.1,0.1-0.2,0.2-0.3,0.4c0,0.1,0,0.1-0.1,0.1
			c-0.102,0-0.102,0-0.102-0.1V14c0-0.1,0-0.1,0.102-0.1c0.199-0.1,0.5-0.2,0.8-0.2s0.6,0.1,0.8,0.2c0.1,0.2,0.2,0.4,0.2,0.6v1.4
			c0,0.1,0,0.2,0.1,0.3C60.9,16.3,61,16.3,61.2,16.4C61.1,16.3,61.2,16.3,61.2,16.4z M60.2,15.9v-0.7c0-0.1,0-0.1-0.101-0.1l0,0
			c-0.601,0.1-1,0.3-1,0.6c0,0.1,0,0.3,0.101,0.3c0.1,0.1,0.2,0.1,0.3,0.1s0.2,0,0.3-0.1c0.101-0.1,0.2-0.1,0.2-0.1
			C60.2,15.9,60.2,15.9,60.2,15.9z"/>
		<path fill="#FFFFFF" stroke="#FFFFFF" stroke-width="0.1" stroke-miterlimit="10" d="M64,13.7L64,13.7c0.1,0.1,0.1,0.1,0,0.1h-0.1
			c-0.102,0-0.2,0.1-0.2,0.2l-1,2.4c0,0,0,0-0.101,0s-0.101,0-0.101,0l-1-2.4c0-0.1-0.101-0.2-0.2-0.2h-0.1c0,0-0.102,0-0.102-0.1
			c0,0,0-0.1,0.102-0.1h0.5h0.5c0.1,0,0.1,0,0.1,0.1c0,0,0,0.1-0.1,0.1h-0.1c-0.1,0-0.199,0.1-0.199,0.1V14l0.699,1.7l0,0l0,0
			l0.7-1.7v-0.1c0-0.1-0.1-0.1-0.2-0.1H63c0,0-0.1,0-0.1-0.1c0,0,0-0.1,0.1-0.1h0.4L64,13.7z"/>
		<path fill="#FFFFFF" stroke="#FFFFFF" stroke-width="0.1" stroke-miterlimit="10" d="M66.7,14.7c0,0.2-0.101,0.3-0.3,0.3H64.8
			c0,0-0.1,0-0.1,0.1c0,0.3,0.1,0.6,0.3,0.8c0.2,0.2,0.4,0.3,0.7,0.3s0.5-0.1,0.6-0.2H66.4v0.1c-0.2,0.2-0.5,0.3-0.801,0.3
			c-0.399,0-0.801-0.1-1-0.4S64.2,15.4,64.2,14.9c0-0.4,0.1-0.7,0.399-1c0.301-0.3,0.5-0.4,0.899-0.4s0.601,0.1,0.8,0.3
			C66.6,14.2,66.7,14.4,66.7,14.7z M66.2,14.6c0-0.2-0.101-0.4-0.2-0.5s-0.3-0.2-0.5-0.2S65.1,14,65,14.2c-0.1,0.2-0.2,0.4-0.2,0.6
			c0,0.1,0,0.1,0.101,0.1H66C66.1,14.8,66.2,14.7,66.2,14.6z"/>
		<path fill="#FFFFFF" stroke="#FFFFFF" stroke-width="0.1" stroke-miterlimit="10" d="M69.8,13.9v2c0,0.1,0,0.2,0.101,0.3
			c0.101,0.1,0.199,0.1,0.301,0.1c0.1,0,0.1,0,0.1,0.1s-0.1,0.1-0.199,0.1c-0.199,0-0.399-0.1-0.601-0.3l0,0l0,0l0,0
			c0,0,0,0-0.101,0c-0.199,0.2-0.5,0.3-0.801,0.3c-0.3,0-0.6-0.1-0.699-0.3C67.7,16,67.6,15.8,67.6,15.4V14c0-0.1,0-0.1,0-0.2
			c0-0.1-0.1,0-0.1,0H67c0,0,0,0-0.1,0c0,0,0,0,0-0.1c0,0,0-0.1,0.1-0.1l0.7-0.1l0,0c0.1,0,0.1,0,0.1,0.1c0,0,0,0,0,0.1v0.1v1.6
			c0,0.2,0.101,0.4,0.2,0.5s0.3,0.2,0.5,0.2s0.4-0.1,0.6-0.2c0.102-0.2,0.2-0.3,0.2-0.6v-1.4c0-0.1,0-0.1,0-0.2c0-0.1-0.1,0-0.1,0
			H69c0,0,0,0-0.1,0c0,0,0,0,0-0.1c0,0,0-0.1,0.1-0.1l0.8-0.1l0,0c0.101,0,0.101,0,0.101,0.1c0,0,0,0,0,0.1
			C69.8,13.8,69.8,13.9,69.8,13.9z"/>
		<path fill="#FFFFFF" stroke="#FFFFFF" stroke-width="0.1" stroke-miterlimit="10" d="M71.1,13.7c0.102,0,0.102,0,0.102,0.1v0.3
			l0,0l0,0c0.1-0.1,0.199-0.2,0.3-0.3c0.101-0.1,0.3-0.1,0.399-0.1c0.101,0,0.199,0,0.301,0c0.1,0,0.1,0.1,0.1,0.1v0.4
			c0,0.1,0,0.1-0.1,0.1c0,0-0.102,0-0.102-0.1C72,14.1,71.9,14,71.7,14s-0.3,0.1-0.4,0.2c-0.1,0.1-0.2,0.4-0.2,0.7v1.2
			c0,0.1,0.102,0.2,0.301,0.2H71.6c0,0,0.102,0,0.102,0.1c0,0,0,0.1-0.102,0.1H70.9H70.3c-0.1,0-0.1,0-0.1-0.1c0,0,0-0.1,0.1-0.1
			h0.2c0.1,0,0.1,0,0.2-0.1c0,0,0.1-0.1,0.1-0.2v-2c0-0.1,0-0.1,0-0.1h-0.1h-0.2c0,0-0.1,0-0.1-0.1c0,0,0-0.1,0.1-0.1H71.1
			L71.1,13.7z"/>
		<path fill="#FFFFFF" stroke="#FFFFFF" stroke-width="0.1" stroke-miterlimit="10" d="M74.5,15.7c0,0.2-0.1,0.4-0.3,0.5
			c-0.2,0.1-0.4,0.2-0.7,0.2s-0.5,0-0.7-0.1c-0.2-0.1-0.3-0.1-0.3-0.2v-0.5c0-0.1,0-0.1,0.1-0.1c0.102,0,0.102,0,0.102,0.1
			c0.1,0.4,0.3,0.6,0.699,0.6c0.199,0,0.301,0,0.399-0.1C73.9,16,74,15.9,74,15.8c0-0.1,0-0.2-0.1-0.3c-0.102-0.1-0.2-0.2-0.4-0.2
			c-0.1-0.1-0.3-0.1-0.4-0.2C73,15,72.8,14.9,72.7,14.8C72.6,14.7,72.6,14.6,72.6,14.4c0-0.2,0.102-0.4,0.301-0.5
			s0.399-0.2,0.699-0.2c0.2,0,0.4,0,0.5,0.1c0.2,0.1,0.2,0.1,0.2,0.2v0.4c0,0.1,0,0.1-0.1,0.1c0,0-0.101,0-0.101-0.1
			c-0.101-0.3-0.301-0.5-0.601-0.5c-0.101,0-0.3,0-0.399,0.1S73,14.2,73,14.3c0,0.1,0,0.2,0.1,0.3c0.102,0.1,0.2,0.2,0.4,0.2
			c0.1,0.1,0.3,0.1,0.4,0.2c0.1,0.1,0.3,0.2,0.398,0.3C74.5,15.4,74.5,15.6,74.5,15.7z"/>
		<path fill="#FFFFFF" stroke="#FFFFFF" stroke-width="0.1" stroke-miterlimit="10" d="M78.7,12.1c0,0,0.1,0,0.1,0.1v3.7
			c0,0.1,0,0.2,0.101,0.3c0.101,0.1,0.101,0.1,0.199,0.1c0.102,0,0.102,0,0.102,0.1S79.1,16.5,79,16.5c-0.2,0-0.4-0.1-0.6-0.3
			c0,0,0,0-0.102,0c-0.1,0-0.1,0-0.1,0.1c-0.102,0.1-0.2,0.1-0.301,0.1s-0.301,0.1-0.399,0.1c-0.399,0-0.8-0.1-1-0.4
			c-0.2-0.3-0.399-0.6-0.399-1s0.101-0.7,0.399-1c0.3-0.3,0.601-0.4,1-0.4c0.3,0,0.5,0.1,0.7,0.2l0,0c0,0,0,0,0-0.1v-1.3
			c0-0.1,0-0.1,0-0.1h-0.1H77.9l0,0c0,0,0,0,0-0.1c0-0.1,0-0.1,0.1-0.1L78.7,12.1L78.7,12.1z M78.3,15.7v-1.2c0-0.2-0.1-0.3-0.2-0.4
			c-0.1-0.1-0.3-0.2-0.6-0.2S77,14,76.8,14.2c-0.2,0.2-0.2,0.4-0.2,0.7c0,0.4,0.102,0.7,0.301,1c0.199,0.3,0.399,0.4,0.699,0.4
			c0.2,0,0.4-0.1,0.5-0.2C78.2,16,78.3,15.8,78.3,15.7z"/>
		<path fill="#FFFFFF" stroke="#FFFFFF" stroke-width="0.1" stroke-miterlimit="10" d="M81.9,14.7c0,0.2-0.102,0.3-0.301,0.3H80
			c0,0-0.1,0-0.1,0.1c0,0.3,0.1,0.6,0.3,0.8c0.2,0.2,0.399,0.3,0.7,0.3c0.3,0,0.5-0.1,0.6-0.2h0.1v0.1c-0.199,0.2-0.5,0.3-0.8,0.3
			c-0.399,0-0.8-0.1-1-0.4S79.4,15.4,79.4,14.9c0-0.4,0.1-0.7,0.398-1c0.301-0.3,0.5-0.4,0.9-0.4c0.398,0,0.6,0.1,0.8,0.3
			C81.8,14.2,81.9,14.4,81.9,14.7z M81.4,14.6c0-0.2-0.102-0.4-0.2-0.5c-0.101-0.1-0.3-0.2-0.5-0.2s-0.4,0.1-0.5,0.3
			C80,14.3,80,14.5,80,14.7c0,0.1,0,0.1,0.1,0.1h1.2C81.3,14.8,81.4,14.7,81.4,14.6z"/>
		<path fill="#FFFFFF" stroke="#FFFFFF" stroke-width="0.1" stroke-miterlimit="10" d="M82.9,13.7c0.1,0,0.1,0,0.1,0.1v0.1
			c0,0,0,0.1,0,0l0.1-0.1c0,0,0.102-0.1,0.2-0.1c0.101,0,0.2-0.1,0.3-0.1c0.4,0,0.801,0.1,1,0.4c0.2,0.3,0.4,0.6,0.4,1
			s-0.1,0.8-0.4,1c-0.3,0.2-0.6,0.4-1,0.4c-0.3,0-0.5-0.1-0.699-0.2l0,0c0,0,0,0,0,0.1v1.4c0,0.1,0.101,0.2,0.199,0.2H83.2
			c0,0,0.1,0,0.1,0.1s0,0.1-0.1,0.1h-0.5H82.1c-0.1,0-0.1,0-0.1-0.1s0-0.1,0.1-0.1h0.2c0.101,0,0.101,0,0.2-0.1
			c0.1-0.1,0.1-0.1,0.1-0.2V14c0-0.1,0-0.1,0-0.1h-0.1h-0.2c0,0-0.1,0-0.1-0.1c0,0,0-0.1,0.1-0.1H82.9L82.9,13.7z M84.7,15.2
			c0-0.4-0.101-0.8-0.3-1C84.2,14,84,13.8,83.8,13.8c-0.3,0-0.5,0.1-0.6,0.2C83.1,14.1,83,14.3,83,14.4v1.1c0,0.2,0.1,0.3,0.2,0.5
			c0.1,0.2,0.3,0.2,0.5,0.2c0.3,0,0.5-0.1,0.7-0.3C84.6,15.8,84.7,15.6,84.7,15.2z"/>
		<path fill="#FFFFFF" stroke="#FFFFFF" stroke-width="0.1" stroke-miterlimit="10" d="M88.3,13.9v2c0,0.1,0,0.2,0.101,0.3
			c0.101,0.1,0.199,0.1,0.301,0.1c0.1,0,0.1,0,0.1,0.1s-0.1,0.1-0.199,0.1c-0.199,0-0.399-0.1-0.601-0.3l0,0l0,0l0,0
			c0,0,0,0-0.101,0c-0.199,0.2-0.5,0.3-0.801,0.3c-0.3,0-0.6-0.1-0.699-0.3C86.2,16,86.1,15.8,86.1,15.4V14c0-0.1,0-0.1,0-0.2
			c0-0.1-0.1,0-0.1,0h-0.2c0,0,0,0-0.1,0c0,0,0,0,0-0.1c0,0,0-0.1,0.1-0.1l0.7-0.1l0,0c0.1,0,0.1,0,0.1,0.1c0,0,0,0,0,0.1v0.1v1.6
			c0,0.2,0.102,0.4,0.2,0.5c0.101,0.1,0.3,0.2,0.5,0.2s0.4-0.1,0.601-0.2c0.101-0.2,0.199-0.3,0.199-0.6v-1.4c0-0.1,0-0.1,0-0.2
			c0-0.1-0.1,0-0.1,0h-0.2c0,0,0,0-0.1,0c0,0,0,0,0-0.1c0,0,0-0.1,0.1-0.1l0.8-0.1l0,0c0.102,0,0.102,0,0.102,0.1c0,0,0,0,0,0.1
			C88.3,13.8,88.3,13.9,88.3,13.9z"/>
		<path fill="#FFFFFF" stroke="#FFFFFF" stroke-width="0.1" stroke-miterlimit="10" d="M90,16.3C90,16.3,90.1,16.3,90,16.3
			c0.1,0.1,0,0.1,0,0.1h-0.5h-0.6c-0.102,0-0.102,0-0.102-0.1c0,0,0-0.1,0.102-0.1H89.1c0.102,0,0.102,0,0.2-0.1
			c0,0,0.101-0.1,0.101-0.2v-2c0-0.1,0-0.1,0-0.1H89.3h-0.2c0,0-0.1,0-0.1-0.1c0,0,0-0.1,0.1-0.1l0.7-0.1c0.101,0,0.101,0,0.101,0.1
			v2.3C89.7,16.2,89.8,16.3,90,16.3L90,16.3z M89.3,12.8c0,0-0.1-0.1-0.1-0.2s0-0.1,0.1-0.2c0.101-0.1,0.101-0.1,0.2-0.1
			s0.1,0,0.2,0.1c0.1,0.1,0.1,0.1,0.1,0.2s0,0.1-0.1,0.2c-0.101,0.1-0.101,0.1-0.2,0.1S89.3,12.9,89.3,12.8z"/>
		<path fill="#FFFFFF" stroke="#FFFFFF" stroke-width="0.1" stroke-miterlimit="10" d="M92.3,15.7c0,0.2-0.1,0.4-0.3,0.5
			c-0.2,0.1-0.4,0.2-0.7,0.2s-0.5,0-0.7-0.1c-0.199-0.1-0.3-0.1-0.3-0.2v-0.5c0-0.1,0-0.1,0.101-0.1s0.101,0,0.101,0.1
			c0.101,0.4,0.3,0.6,0.7,0.6c0.199,0,0.3,0,0.398-0.1c0.102-0.1,0.2-0.2,0.2-0.3c0-0.1,0-0.2-0.1-0.3c-0.101-0.1-0.2-0.2-0.4-0.2
			c-0.1-0.1-0.3-0.1-0.399-0.2C90.8,15,90.6,14.9,90.5,14.8c-0.1-0.1-0.1-0.2-0.1-0.4c0-0.2,0.1-0.4,0.3-0.5s0.399-0.2,0.7-0.2
			c0.199,0,0.398,0,0.5,0.1C92.1,13.9,92.1,13.9,92.1,14v0.4c0,0.1,0,0.1-0.1,0.1c0,0-0.1,0-0.1-0.1C91.8,14.1,91.6,13.9,91.3,13.9
			c-0.1,0-0.3,0-0.399,0.1C90.8,14.1,90.8,14.2,90.8,14.3c0,0.1,0,0.2,0.101,0.3s0.199,0.2,0.399,0.2c0.101,0.1,0.3,0.1,0.4,0.2
			c0.1,0.1,0.3,0.2,0.399,0.3C92.3,15.4,92.3,15.6,92.3,15.7z"/>
		<path fill="#FFFFFF" stroke="#FFFFFF" stroke-width="0.1" stroke-miterlimit="10" d="M96.1,16.3C96.1,16.4,96.1,16.4,96.1,16.3
			C96.1,16.4,96,16.4,96.1,16.3l-1,0.1H94.2c-0.101,0-0.101,0-0.101-0.1c0-0.1,0-0.1,0.101-0.1h0.3c0.1,0,0.2,0,0.2-0.1
			s0.1-0.1,0.1-0.2v-3.6c0-0.2-0.1-0.3-0.3-0.3l0,0h-0.4c0,0-0.1,0-0.1-0.1s0-0.1,0.1-0.1l1.2-0.2c0.101,0,0.101,0,0.101,0.1V16
			c0,0.2,0.101,0.2,0.301,0.3H96.1C96.1,16.2,96.1,16.3,96.1,16.3z"/>
		<path fill="#FFFFFF" stroke="#FFFFFF" stroke-width="0.1" stroke-miterlimit="10" d="M96.6,13.2c0-0.4,0.102-0.7,0.4-1
			c0.3-0.3,0.6-0.4,1.1-0.4c0.4,0,0.801,0.1,1,0.4c0.301,0.3,0.4,0.7,0.4,1.2s-0.2,1.1-0.6,1.7c-0.4,0.6-0.9,1-1.5,1.3
			c0,0,0,0-0.102,0h-0.1l-0.1-0.1c0,0,0-0.1,0.102-0.1c0.8-0.5,1.3-1.1,1.6-2c-0.199,0.2-0.5,0.3-0.898,0.3c-0.4,0-0.801-0.1-1-0.4
			C96.7,13.9,96.6,13.6,96.6,13.2z M98.7,12.4c-0.2-0.2-0.4-0.3-0.601-0.3c-0.301,0-0.5,0.1-0.601,0.3c-0.2,0.2-0.2,0.5-0.2,0.8
			c0,0.3,0.102,0.6,0.2,0.8c0.2,0.2,0.399,0.3,0.601,0.3c0.199,0,0.5-0.1,0.601-0.3c0.2-0.2,0.2-0.4,0.2-0.8
			C98.9,12.8,98.9,12.6,98.7,12.4z"/>
		<path fill="#FFFFFF" stroke="#FFFFFF" stroke-width="0.1" stroke-miterlimit="10" d="M102.6,16.4H100.2
			c-0.101,0-0.101,0-0.101-0.1v-0.1v-0.1c0.199-0.3,0.399-0.7,0.699-1c0.301-0.4,0.5-0.7,0.602-0.9c0.1-0.2,0.3-0.4,0.398-0.7
			c0.102-0.2,0.2-0.5,0.2-0.7c0-0.2-0.101-0.4-0.2-0.6c-0.1-0.1-0.3-0.2-0.5-0.2c-0.199,0-0.398,0.1-0.5,0.2
			c-0.1,0.1-0.199,0.3-0.3,0.5c0,0.1-0.101,0.1-0.101,0.1H100.3v-0.1v-0.5c0-0.1,0.101-0.2,0.3-0.3c0.2-0.1,0.5-0.2,0.801-0.2
			c0.399,0,0.699,0.1,0.899,0.3s0.3,0.5,0.3,0.8c0,0.2-0.1,0.4-0.199,0.6c-0.101,0.2-0.199,0.4-0.399,0.6
			c-0.101,0.2-0.399,0.4-0.601,0.8c-0.301,0.3-0.5,0.7-0.801,1h1.602c0.1,0,0.199,0,0.3-0.1c0-0.1,0.101-0.1,0.101-0.1
			c0.101,0,0.101,0,0.101,0.1v0.4c0,0.1,0,0.1-0.101,0.2C102.7,16.4,102.6,16.4,102.6,16.4z"/>
		<path fill="#FFFFFF" stroke="#FFFFFF" stroke-width="0.1" stroke-miterlimit="10" d="M103.4,13.2c0-0.4,0.1-0.7,0.398-1
			c0.301-0.3,0.602-0.4,1.102-0.4c0.398,0,0.8,0.1,1,0.4c0.3,0.3,0.398,0.7,0.398,1.2s-0.199,1.1-0.6,1.7s-0.9,1-1.5,1.3
			c0,0,0,0-0.102,0H104l-0.1-0.1c0,0,0-0.1,0.1-0.1c0.8-0.5,1.3-1.1,1.6-2c-0.199,0.2-0.5,0.3-0.898,0.3c-0.4,0-0.801-0.1-1-0.4
			C103.5,13.9,103.4,13.6,103.4,13.2z M105.5,12.4c-0.2-0.2-0.4-0.3-0.6-0.3c-0.301,0-0.5,0.1-0.602,0.3
			c-0.199,0.2-0.199,0.5-0.199,0.8c0,0.3,0.101,0.6,0.199,0.8c0.2,0.2,0.4,0.3,0.602,0.3c0.199,0,0.5-0.1,0.6-0.3
			c0.2-0.2,0.2-0.4,0.2-0.8C105.7,12.8,105.6,12.6,105.5,12.4z"/>
	</g>
</g>
<g>
	<g>
		<path id="SVGID_3_" fill="#FFFFFF" d="M29.3,15.7c-0.1,0.1-0.1,0.1-0.2,0.1s-0.1,0-0.2-0.1c-0.1-0.1-0.1-0.1-0.1-0.2
			s0-0.1,0.1-0.2c0.1-0.1,0.1-0.1,0.2-0.1s0.1,0,0.2,0.1c0.1,0.1,0.1,0.1,0.1,0.2S29.4,15.6,29.3,15.7z M28.2,15.3
			c-0.1,0.1-0.1,0.1-0.2,0.1s-0.1,0-0.2-0.1c-0.1-0.1-0.1-0.1-0.1-0.2s0-0.1,0.1-0.2c0.1-0.1,0.1-0.1,0.2-0.1s0.1,0,0.2,0.1
			c0.1,0.1,0.1,0.1,0.1,0.2S28.3,15.3,28.2,15.3z M30,14.8c-0.1,0.1-0.1,0.1-0.2,0.1c-0.1,0-0.1,0-0.2-0.1c-0.1-0.1-0.1-0.1-0.1-0.2
			s0-0.1,0.1-0.2s0.1-0.1,0.2-0.1c0.1,0,0.1,0,0.2,0.1s0.1,0.1,0.1,0.2C30,14.7,30,14.7,30,14.8z M30.1,18.7c0-0.2-0.1-0.3-0.3-0.5
			c-0.2-0.2-0.4-0.3-0.6-0.3c-0.1,0-0.1,0-0.1,0c-0.1,0.1,0,0.4,0.3,0.7C29.6,19,29.9,19,30,19C30.1,18.9,30.1,18.8,30.1,18.7z
			 M29.7,17.4c-0.3-0.3-0.6-0.4-0.9-0.5c-0.1,0-0.1,0-0.2,0c-0.2,0-0.4,0.1-0.5,0.2s-0.2,0.4-0.2,0.6c0.1,0.3,0.2,0.6,0.5,0.899
			l0.1,0.101c-0.2-0.4-0.2-0.9,0-1.2C28.9,17.3,29.4,17.3,29.7,17.4C29.8,17.5,29.7,17.5,29.7,17.4z M30.4,19.4
			c-0.2,0.199-0.5,0.3-0.9,0.3c-0.1,0-0.2,0-0.3,0C28.8,19.6,28.4,19.4,28,19.1c-0.3-0.3-0.6-0.8-0.6-1.2c-0.1-0.5,0-0.9,0.3-1.1
			c0.3-0.3,0.7-0.4,1.1-0.3c0.4,0.1,0.8,0.3,1.2,0.6c0.3,0.3,0.6,0.8,0.6,1.2C30.8,18.7,30.7,19.1,30.4,19.4z M25.5,15.4
			c-0.5,0-0.8,0.6-0.8,1.3v0.1c0.1-0.5,0.4-0.8,0.8-0.8s0.7,0.3,0.8,0.8v-0.1C26.4,16,26,15.4,25.5,15.4z M25.5,18
			c0.1,0,0.3-0.3,0.3-0.7c0-0.4-0.2-0.7-0.3-0.7s-0.3,0.3-0.3,0.7C25.2,17.7,25.4,18,25.5,18z M26.6,18c-0.3,0.4-0.6,0.6-1,0.6
			s-0.8-0.199-1-0.6c-0.2-0.3-0.4-0.8-0.4-1.3s0.1-0.9,0.4-1.3c0.3-0.4,0.6-0.6,1-0.6s0.8,0.2,1,0.6c0.2,0.3,0.4,0.8,0.4,1.3
			C26.9,17.2,26.8,17.6,26.6,18z M27.4,10.7l1.6,0.9c0.1-0.3,0.2-0.6,0.2-0.9c0-0.3-0.1-0.6-0.2-0.9L27.4,10.7z M27.2,8.4v1.8
			l1.6-0.9C28.4,8.8,27.8,8.4,27.2,8.4z M27.2,13c0.6-0.1,1.2-0.4,1.6-0.9l-1.6-0.9V13z M26.6,11.1l-1.6,1c0.4,0.5,0.9,0.8,1.6,0.9
			V11.1z M26.6,8.4c-0.6,0-1.2,0.4-1.6,0.9l1.6,0.9V8.4z M24.8,9.8c-0.1,0.3-0.2,0.6-0.2,0.9c0,0.3,0.1,0.6,0.2,0.9l1.6-0.9
			L24.8,9.8z M26.9,13.5c-1.6,0-2.9-1.3-2.9-2.9s1.3-2.9,2.9-2.9s2.9,1.3,2.9,2.9S28.5,13.5,26.9,13.5z M29.7,8.4
			c-0.1,0.1-0.1,0.1-0.2,0.1s-0.1,0-0.2-0.1l0,0c-0.1-0.1-0.1-0.3,0-0.4c0.1-0.1,0.3-0.1,0.4,0l0,0C29.8,8.1,29.8,8.2,29.7,8.4z
			 M21.7,15.5h-0.1c-0.1,0-0.2,0-0.2-0.1l0,0c-0.1-0.1,0-0.3,0.1-0.4s0.3,0,0.4,0.1l0,0C21.8,15.3,21.8,15.4,21.7,15.5z M17.6,11.2
			h0.2c0.2-0.3,0.6-0.5,0.9-0.5c-0.3-0.2-0.6-0.4-1-0.4c-0.5,0-0.9,0.4-0.9,0.9l0,0C17.1,11.3,17.4,11.2,17.6,11.2z M24.8,19.5
			c-0.1,0.1-0.1,0.1-0.2,0.1l0,0l-1-0.1c-1.9-0.2-3.7-1.2-5-2.6v-0.1c-1.2-1.4-1.9-3.1-2-4.9l0,0c0-0.2,0-0.3,0-0.5v-0.1
			c0-0.5,0.3-1,0.7-1.3l0,0c0-0.8,0.3-1.5,0.9-2.1c0.1-0.1,0.3-0.1,0.4,0s0.1,0.3,0,0.4c-0.4,0.4-0.6,0.9-0.7,1.5c0.1,0,0.1,0,0.2,0
			c0.8,0,1.5,0.5,1.9,1.2c0.4,1,0.9,2,1.5,3c0.1,0.1,0,0.3-0.1,0.4s-0.3,0-0.4-0.1c-0.5-0.9-1-1.9-1.4-2.9l-0.3-0.1
			c-0.3-0.1-0.6,0.1-0.7,0.3c-0.1,0.1-0.2,0.2-0.3,0.1l-0.4-0.1c-0.2,0-0.4,0-0.5,0.1l-0.1,0.1c0.1,1.6,0.8,3.2,1.9,4.4v0.1
			c1.2,1.4,2.9,2.2,4.7,2.4h0.4L23.7,18c-0.5-0.7-1-1.4-1.5-2.1c-0.1-0.1-0.1-0.3,0.1-0.4c0.1-0.1,0.3-0.1,0.4,0.1
			c0.5,0.7,1,1.4,1.5,2l1,1.2C24.8,19.3,24.8,19.4,24.8,19.5z M23.4,12.5L23.4,12.5l-1.8-1.8c-0.1-0.1-0.1-0.3,0-0.4
			c0.1-0.1,0.3-0.1,0.4,0l1,1c-0.1-0.5-0.1-1,0-1.5c-0.7-0.4-1.5-0.6-2.3-0.4c-0.2,1.1,0.1,2.2,0.9,3c0.6,0.6,1.5,1,2.4,1
			C23.8,13.1,23.6,12.8,23.4,12.5z M23.6,8.5c0.1-0.2,0.3-0.4,0.5-0.6l0.1-0.1c-0.2-0.4-0.4-0.7-0.7-1c-0.8-0.8-1.9-1.1-3-0.9
			C20.3,7,20.6,8,21.4,8.8c0.6,0,1.2,0.2,1.8,0.5c0-0.1,0.1-0.2,0.1-0.2l-1.9-1.9c-0.1-0.1-0.1-0.3,0-0.4c0.1-0.1,0.3-0.1,0.4,0
			L23.6,8.5z M29.6,13.4c-0.7,0.7-1.7,1.1-2.8,1.1c-0.8,0-1.6-0.2-2.2-0.7c-0.2,0-0.4,0.1-0.6,0.1c-1,0-2-0.4-2.8-1.1
			c-0.5-0.5-0.8-1.1-1-1.7c-0.2-0.6-0.2-1.3,0-1.9c0-0.1,0.1-0.2,0.2-0.2s0.2,0,0.3-0.1C20.4,8.5,20.2,8,20,7.6
			c-0.2-0.6-0.2-1.3,0-1.9c0-0.1,0.1-0.2,0.2-0.2c0.6-0.2,1.3-0.1,1.9,0c0.7,0.2,1.2,0.5,1.7,1c0.3,0.3,0.6,0.7,0.7,1
			C24.9,7.2,25.4,7,26,6.9c0.8-0.1,1.5-0.1,2.2,0.2c0.1,0.1,0.2,0.2,0.1,0.4c-0.1,0.1-0.2,0.2-0.4,0.1c-1.3-0.5-2.7-0.3-3.7,0.7
			c-1.3,1.3-1.3,3.4,0,4.7c1.3,1.3,3.4,1.3,4.7,0c1-1,1.3-2.6,0.6-3.8c-0.1-0.1,0-0.3,0.1-0.4c0.1-0.1,0.3,0,0.4,0.1
			C31.1,10.4,30.8,12.2,29.6,13.4z"/>
	</g>
</g>
</svg>
