<?xml version="1.0" encoding="UTF-8" standalone="no"?>
<!-- Created with Inkscape (http://www.inkscape.org/) by Marsupilami -->
<svg xmlns:svg="http://www.w3.org/2000/svg" xmlns="http://www.w3.org/2000/svg" version="1.0" width="1024" height="202" viewBox="0 0 57.88876 11.41999" id="svg49871">
  <defs id="defs49873"/>
  <g transform="translate(-346.05562,-526.65219)" id="layer1">
    <path d="M 5.90625,0.46875 L 4.03125,2.5 L 4.03125,3.46875 L 2.78125,2.125 L 0.4375,4.65625 L 0.4375,7.375 L 3.8125,7.375 L 3.09375,8.15625 L 3.09375,11.40625 L 8.71875,11.40625 L 8.71875,8.15625 L 5.90625,5.09375 L 5.125,5.96875 L 5.125,4.71875 L 7.8125,4.71875 L 7.8125,2.5 L 5.90625,0.46875 z M 9.46875,3.125 L 9.46875,11.40625 L 15.84375,11.40625 L 15.84375,3.125 L 9.46875,3.125 z M 16.59375,3.125 L 16.59375,11.40625 L 22.84375,11.40625 L 22.84375,3.125 L 16.59375,3.125 z M 23.59375,3.125 L 23.59375,11.40625 L 29.8125,11.40625 L 29.8125,3.125 L 23.59375,3.125 z M 30.5625,3.125 L 30.5625,11.40625 L 36.8125,11.40625 L 36.8125,3.125 L 30.5625,3.125 z M 37.5625,3.125 L 37.5625,11.40625 L 43.78125,11.40625 L 43.78125,3.125 L 37.5625,3.125 z M 44.53125,3.125 L 44.53125,11.40625 L 50.78125,11.40625 L 50.78125,3.125 L 44.53125,3.125 z M 51.53125,3.125 L 51.53125,11.40625 L 57.875,11.40625 L 57.875,3.125 L 51.53125,3.125 z" transform="translate(346.05562,526.65219)" id="path30170" style="fill:#000000;fill-opacity:1;fill-rule:nonzero;stroke:none"/>
    <path d="M 5.5,0 L 3.59375,2.0625 L 3.59375,3 L 2.34375,1.65625 L 0,4.1875 L 0,6.90625 L 3.375,6.90625 L 2.65625,7.6875 L 2.65625,10.96875 L 8.28125,10.96875 L 8.28125,7.6875 L 5.46875,4.625 L 4.6875,5.5 L 4.6875,4.25 L 7.375,4.25 L 7.375,2.0625 L 5.5,0 z M 9.03125,2.65625 L 9.03125,10.96875 L 15.40625,10.96875 L 15.40625,2.65625 L 9.03125,2.65625 z M 16.15625,2.65625 L 16.15625,10.96875 L 22.40625,10.96875 L 22.40625,2.65625 L 16.15625,2.65625 z M 23.15625,2.65625 L 23.15625,10.96875 L 29.375,10.96875 L 29.375,2.65625 L 23.15625,2.65625 z M 30.125,2.65625 L 30.125,10.96875 L 36.375,10.96875 L 36.375,2.65625 L 30.125,2.65625 z M 37.125,2.65625 L 37.125,10.96875 L 43.34375,10.96875 L 43.34375,2.65625 L 37.125,2.65625 z M 44.09375,2.65625 L 44.09375,10.96875 L 50.34375,10.96875 L 50.34375,2.65625 L 44.09375,2.65625 z M 51.09375,2.65625 L 51.09375,10.96875 L 57.4375,10.96875 L 57.4375,2.65625 L 51.09375,2.65625 z" transform="translate(346.05562,526.65219)" id="path30184" style="fill:#df0023;fill-opacity:1;fill-rule:nonzero;stroke:none"/>
    <path d="M 5.5,0.90625 L 4.1875,2.3125 L 4.1875,3.59375 L 6.78125,3.59375 L 6.78125,2.3125 L 5.5,0.90625 z M 2.375,2.75 L 0.75,4.53125 L 0.75,6.09375 L 3.96875,6.09375 L 3.96875,4.53125 L 2.375,2.75 z M 56.6875,2.78125 C 56.330001,2.7812501 56.03125,3.085 56.03125,3.46875 C 56.031248,3.8612501 56.33,4.15625 56.6875,4.15625 C 57.043751,4.1562499 57.3125,3.86125 57.3125,3.46875 C 57.3125,3.0850001 57.04375,2.78125 56.6875,2.78125 z M 56.6875,2.90625 C 56.988751,2.9062501 57.21875,3.14375 57.21875,3.46875 C 57.218749,3.8025001 56.98875,4.0625 56.6875,4.0625 C 56.383751,4.0624998 56.125,3.8025 56.125,3.46875 C 56.125,3.1437501 56.38375,2.90625 56.6875,2.90625 z M 56.40625,3.0625 L 56.40625,3.875 L 56.53125,3.875 L 56.53125,3.53125 L 56.65625,3.53125 L 56.875,3.875 L 57,3.875 L 56.78125,3.53125 C 56.895011,3.5175001 56.96875,3.45625 56.96875,3.3125 C 56.968752,3.1600001 56.89999,3.0625 56.71875,3.0625 L 56.40625,3.0625 z M 56.53125,3.1875 L 56.6875,3.1875 C 56.767489,3.1875001 56.875,3.17625 56.875,3.28125 C 56.875,3.40625 56.76001,3.4375 56.65625,3.4375 L 56.53125,3.4375 L 56.53125,3.1875 z M 12.75,4 L 10.28125,4.03125 L 10.28125,9.53125 L 12.75,9.53125 C 13.6075,9.53125 14.46875,8.9637499 14.46875,8.03125 C 14.46875,7.415 14.07125,6.8624998 13.53125,6.625 C 14.0025,6.39125 14.34375,5.9387498 14.34375,5.40625 C 14.34375,4.42875 13.47,4.0000001 12.75,4 z M 18.78125,4.03125 L 16.96875,9.53125 L 18.03125,9.53125 L 18.40625,8.375 L 20.3125,8.375 L 20.625,9.53125 L 21.71875,9.53125 L 19.9375,4.03125 L 18.78125,4.03125 z M 24.15625,4.03125 L 24.15625,7.8125 C 24.15625,9.19375 25.131249,9.7812498 26.28125,9.78125 C 27.42749,9.78125 28.40625,9.1925 28.40625,7.71875 L 28.40625,4.03125 L 27.375,4.03125 L 27.375,7.40625 C 27.375,7.69625 27.361249,8.7812504 26.28125,8.78125 C 25.2025,8.78125 25.21875,7.6962499 25.21875,7.40625 L 25.21875,4.03125 L 24.15625,4.03125 z M 31.15625,4.03125 L 31.15625,9.53125 L 32.21875,9.53125 L 32.21875,7.40625 L 34.28125,7.40625 L 34.28125,9.53125 L 35.34375,9.53125 L 35.34375,4.03125 L 34.28125,4.03125 L 34.28125,6.46875 L 32.21875,6.46875 L 32.21875,4.03125 L 31.15625,4.03125 z M 39.75,4.03125 L 37.9375,9.53125 L 39,9.53125 L 39.34375,8.375 L 41.28125,8.375 L 41.59375,9.53125 L 42.65625,9.53125 L 40.90625,4.03125 L 39.75,4.03125 z M 45.125,4.03125 L 45.125,7.8125 C 45.125,9.19375 46.100001,9.7812498 47.25,9.78125 C 48.39624,9.78125 49.375,9.1925 49.375,7.71875 L 49.375,4.03125 L 48.3125,4.03125 L 48.3125,7.40625 C 48.3125,7.69625 48.330001,8.7812504 47.25,8.78125 C 46.17,8.78125 46.156249,7.6962499 46.15625,7.40625 L 46.15625,4.03125 L 45.125,4.03125 z M 53.625,4.03125 C 52.76124,4.03125 52.218751,4.7287498 52.21875,5.65625 C 52.21875,6.625 52.968751,7.2524999 53.8125,7.28125 L 54.9375,7.28125 C 55.2475,7.28125 55.500002,7.41125 55.5,7.84375 C 55.5,8.3025 55.211259,8.4375003 54.9375,8.4375 L 52.46875,8.4375 L 52.46875,9.53125 L 55.09375,9.53125 C 55.99001,9.52875 56.5625,8.8087499 56.5625,7.84375 C 56.5625,6.8425 55.805001,6.1999998 54.9375,6.15625 L 53.78125,6.15625 C 53.50875,6.15625 53.249999,5.9100002 53.25,5.625 C 53.25,5.2575 53.507502,5.1249998 53.78125,5.125 L 56.21875,5.125 L 56.21875,4.03125 L 53.625,4.03125 z M 11.34375,4.90625 L 12.65625,4.90625 C 12.7125,4.90625 13.28125,4.96125 13.28125,5.53125 C 13.28125,6.04251 12.85499,6.2812498 12.65625,6.28125 L 11.34375,6.28125 L 11.34375,4.90625 z M 19.34375,5.3125 L 20,7.46875 L 18.65625,7.46875 L 19.34375,5.3125 z M 40.3125,5.3125 L 40.96875,7.46875 L 39.625,7.46875 L 40.3125,5.3125 z M 5.46875,5.96875 L 3.5625,8.09375 L 3.5625,10 L 7.40625,10 L 7.40625,8.0625 L 5.46875,5.96875 z M 11.34375,7.09375 L 12.65625,7.09375 C 12.775,7.09375 13.375,7.19125 13.375,7.90625 C 13.375,8.6225 12.67374,8.6249998 12.65625,8.625 L 11.34375,8.625 L 11.34375,7.09375 z" transform="translate(346.05562,526.65219)" id="path30190" style="fill:#ffffff;fill-opacity:1;fill-rule:nonzero;stroke:none"/>
  </g>
</svg>