<svg xmlns="http://www.w3.org/2000/svg" viewBox="0 0 204 72"><style>.st2{fill:#000}</style><g id="Layer_2_1_"><path d="M153.6 14.6c0-5.6 0-7.8-.2-9.3-.1-1.2-.5-2.4-2.2-2.8-.4-.1-1.3-.2-2-.2-.6 0-.9-.2-.9-.7 0-.4.4-.7 1.1-.7 2.7 0 6 .1 7.4.1h12.6c1-.1 1.8-.2 2.2-.3.3 0 .8-.2 1.1-.2s.4.2.4.5-.3 1.1-.4 3.3c-.1.5-.2 2.5-.3 3.1-.1.2-.2.6-.7.6s-.7-.3-.7-.7c0-.3-.1-1.1-.3-1.7-.4-.8-.9-1.4-3.5-1.7-.9-.1-5.8-.2-6.9-.2-.3 0-.4.1-.4.5v11.4c0 .3.1.5.4.5 1.1 0 6.6 0 7.8-.1s2-.3 2.5-.7c.4-.4.7-.6 1.1-.6.4 0 .6.2.6.5s-.2 1.1-.4 3.5c-.1.9-.2 2.8-.2 3.1 0 .4-.1.9-.7 1-.5 0-.7-.3-.7-.5-.1-.5-.1-1.1-.3-1.7-.2-.8-.9-1.6-2.8-1.8-1-.1-5.6-.1-6.9-.1-.3 0-.3.2-.3.5v3.7c0 1.6-.1 5.7 0 7 .1 3.2.9 3.9 6.2 3.9 1.3 0 3 0 4.4-.6 1.3-.6 2-1.5 2.3-3.5.1-.5.4-.8.8-.7.5 0 .6.4.6.9 0 1.1-.4 4.5-.7 5.4-.4 1.2-.8 1.2-2.8 1.2-7.8 0-11.3-.3-14.3-.3-1.2 0-4.4.1-6.5.1-.7 0-1-.3-1-.7 0-.3.2-.6.8-.6.7 0 1.4-.2 1.8-.4.9-.4 1.3-1 1.5-2.4.3-2 .3-5.2.3-9.5v-8.1h.2zM83.5 21.6c-.2 0-.3-.1-.2-.3L87.9 10c.1-.2.2-.4.3-.4.1 0 .2.2.3.4L93 21.2c.1.2 0 .4-.2.4h-9.3zm10.4 2.6c.3 0 .4.1.5.3l3.8 9c.3.6.2 1.3-.3 1.4-.5.2-.7.4-.7.7 0 .5.5.6 1.4.6 4.1.1 8.7.1 10.6.1 1.7 0 1.8-.3 1.8-.7s-.3-.6-.7-.6c-.6 0-1.6-.1-2.4-.4-1.2-.4-2.6-.9-4.4-4.9C100.2 22.6 92.1 4 90.9 1.4 90.4.4 90 0 89.4 0s-1 .5-1.6 1.9l-12.3 28c-1 2.3-1.9 4.4-4.4 5-.4.1-1.3.3-2 .3-.4 0-.8.3-.8.6 0 .5.3.7 1 .7 2.7 0 5.8-.1 6.3-.1 1.6 0 4 .1 5.6.1.6 0 1-.2 1-.7 0-.3-.2-.7-.8-.7h-.6c-1.4 0-1.9-.6-2.1-1.5-.1-.6.1-1.6.6-2.8l2.6-6.2c.1-.3.2-.4.5-.4h11.5zM126.9 22.9c0 6 0 9 1.1 9.8.9.7 2.2 1 6.2 1 2.7 0 4.3 0 5.6-1.3.6-.6 1.2-1.8 1.4-2.7.1-.5.3-.9.8-.9.4 0 .6.3.6.9 0 .5-.4 4.3-.8 5.6-.3 1-.6 1.3-3.3 1.3-7.4 0-10.8-.3-15-.3-1.2 0-4.4.1-6.5.1-.7 0-1-.2-1-.7 0-.2.2-.6.8-.6.8 0 1.6-.2 2.2-.5.9-.6 1.1-1.6 1.2-2.9.2-2 .2-4.5.2-8.8v-8.2c0-5.5 0-7.8-.1-9.3-.1-1.6-.8-2.2-1.8-2.6-.5-.2-1.5-.3-2.1-.3s-.9-.2-.9-.7c0-.4.4-.7 1.1-.7 2.4 0 5.7.1 7.1.1 1.2 0 5-.1 7-.1.7 0 1.1.2 1.1.7 0 .4-.4.7-1 .7-.9 0-1.9.1-2.6.6-1.1.8-1.2 2.6-1.3 4.4-.1 1.5-.1 4.3-.1 7.3v8.1h.1zM183.4 35.8c-.8-.3-1-.6-1-1.6 0-2.6.2-5.4.3-6.1s.3-1.2.9-1.2c.5 0 .8.4.8.8 0 .6.2 1.6.5 2.4 1.4 3.5 3.6 4.5 6.8 4.5 4.6 0 6.9-2.6 6.9-5.1 0-2.3-.8-4.5-5.1-7.5l-2.4-1.7c-5.7-4-7.6-7.3-7.6-11.1 0-5.2 4.7-8.9 11.9-8.9 3.4 0 5.5.5 6.9.8.5.1.7.4.7.7 0 .6-.2 1.9-.2 5.5 0 1-.3 1.4-.8 1.4-.4 0-.7-.3-.7-.8 0-.4-.3-1.9-1.3-3.1-.8-.9-2.2-2.1-5.2-2.1-3.8 0-6.1 1.9-6.1 4.7 0 2 1.2 3.7 5.5 6.6l1.4 1c6.2 4.4 8.5 7.5 8.5 11.9 0 2.7-1.1 5.9-4.9 8.2-2.6 1.5-5.5 1.9-8.2 1.9-3.1 0-5.4-.3-7.6-1.2zM11.6 4.1c0-.5.1-.7.5-.8.5-.1 1-.1 1.7-.1 4.4 0 6.5 3.9 6.5 7 0 2.1-.8 3.9-2.1 4.8-.9.7-2 .9-3.7.9-1.2 0-2 0-2.4-.1-.2 0-.4-.1-.4-.5l-.1-11.2zM5.2 22.9c0 4.3 0 7.2-.3 9.3-.2 1.4-.6 2.1-1.4 2.5-.5.3-1.2.4-2 .4-.6 0-.8.3-.8.7 0 .5.4.7 1.1.7 2.1 0 5.6-.1 6.7-.1 1.5 0 6.2.3 7.5.3 9.5 0 13.9-5.2 13.9-10.2 0-5.5-4.9-9-9.5-10.1 2.9-1.7 5.4-4.4 5.4-8.2 0-2.5-1.8-7-11.1-7-1.8 0-3.8.1-6.3.1-1-.1-4.5-.3-7.3-.3-.7 0-1.1.2-1.1.7 0 .4.3.7.9.7.7 0 1.7.1 2.2.3 1.5.4 1.9 1.4 2 3 .1 1.5.2 3.2.2 8.9l-.1 8.3zM23.4 28c0 4.9-3.9 6.3-6.2 6.3-1.2 0-2.4 0-3.8-.6-1.7-.6-1.8-1.4-1.8-4.4V18.4c0-.2.2-.3.4-.3h2.1c2 .1 3.2.5 4.3 1.1 4.1 2.5 5.1 5.8 5 8.8zM42 14.6c0-5.6 0-7.8-.2-9.3-.1-1.2-.5-2.4-2.2-2.8-.4-.1-1.3-.2-2-.2-.6 0-.9-.2-.9-.7 0-.4.4-.7 1.1-.7 2.7 0 6 .1 7.4.1h12.6c1-.1 1.8-.2 2.2-.3.3 0 .8-.2 1.1-.2s.4.2.4.5-.3 1.1-.4 3.3c-.1.5-.2 2.5-.3 3.1-.1.2-.2.6-.8.6-.5 0-.7-.3-.7-.7 0-.3-.1-1.1-.3-1.7-.4-.8-.9-1.4-3.5-1.7-.9-.1-5.8-.2-6.9-.2-.3 0-.4.1-.4.5v11.4c0 .3.1.5.4.5 1.1 0 6.6 0 7.8-.1s2.1-.3 2.5-.7.7-.6 1.1-.6c.4 0 .6.2.6.5s-.2 1.1-.4 3.5c-.1.9-.2 2.8-.2 3.1 0 .4-.1.9-.7 1-.4 0-.7-.3-.7-.5-.1-.5-.1-1.1-.3-1.7-.2-.8-.9-1.6-2.8-1.8-1-.1-5.6-.1-6.9-.1-.3 0-.3.2-.3.5v3.7c0 1.6-.1 5.7 0 7 .1 3.2.9 3.9 6.2 3.9 1.3 0 3 0 4.4-.6 1.3-.6 2-1.5 2.3-3.5.1-.5.4-.8.8-.7.5 0 .6.4.6.9 0 1.1-.4 4.5-.7 5.4-.4 1.2-.8 1.2-2.8 1.2-7.8 0-11.3-.3-14.3-.3-1.2 0-4.4.1-6.5.1-.7 0-1-.3-1-.7 0-.3.2-.6.8-.6.7 0 1.4-.2 1.8-.4.9-.4 1.3-1 1.5-2.4.3-2 .3-5.2.3-9.5v-8.1h.3z" class="st2"/><g><path d="M22.7 71.3c-.4-.2-.5-.3-.5-.8 0-1.3.1-2.8.1-3.2 0-.4.1-.6.3-.6.2 0 .3.2.3.4 0 .3.1.8.2 1.3.5 1.8 2.4 2.4 4 2.4 2.2 0 3.5-1.4 3.5-3.1 0-1.1-.3-2.1-2.5-3.4l-1.5-.9c-3-1.7-3.9-3.4-3.9-5.5 0-3 2.9-4.9 6.3-4.9 1.6 0 2.9.2 3.6.4.2.1.3.1.3.3 0 .3-.1 1-.1 2.9 0 .5-.1.8-.3.8s-.3-.1-.3-.4c0-.2-.1-1-.7-1.6-.4-.5-1.2-1.1-2.8-1.1-1.8 0-3.4.9-3.4 2.6 0 1.1.4 1.9 2.7 3.2l1 .6c3.3 1.8 4.3 3.7 4.3 5.9 0 1.8-.7 3.3-2.5 4.5-1.2.9-2.9 1-4.2 1-1.3-.2-2.8-.3-3.9-.8zM38.9 60.3v-5.1c-.1-.8-.3-1.1-.9-1.3-.3-.1-.6-.1-.9-.1-.3 0-.4-.1-.4-.3 0-.1.2-.2.6-.2.9 0 2.7.1 3.4.1.6 0 2.3-.1 3.2-.1.3 0 .5.1.5.2 0 .2-.1.3-.4.3-.3 0-.5 0-.7.1-.7.1-.9.5-.9 1.3-.1.8-.1 1.5-.1 5.1v4.3c0 2.3 0 4.3.1 5.3.1.7.3 1 1 1.1.3.1.9.1 1.3.1.3 0 .4.1.4.3 0 .2-.2.3-.5.3-1.7 0-3.4-.1-4.1-.1-.6 0-2.3.1-3.3.1-.3 0-.5-.1-.5-.3 0-.1.1-.3.4-.3.4 0 .7 0 .9-.1.5-.1.7-.5.7-1.2.1-1 .1-2.9.1-5.3v-4.2h.1zM52.1 68.3c.1 1.9.4 2.5.9 2.6.4.1.9.2 1.3.2.3 0 .4.1.4.3 0 .2-.2.3-.6.3-1.6 0-2.8-.1-3.3-.1-.2 0-1.4.1-2.7.1-.3 0-.6 0-.6-.3 0-.1.2-.3.4-.3.3 0 .8 0 1.1-.1.7-.2.7-.8.8-2.9l.2-14.4c0-.5.2-.8.4-.8.3 0 .7.4 1.1.8.3.3 4.1 4.2 7.7 7.7l5.4 5.4h.1V56c0-1.5-.3-1.9-.9-2.1-.4-.1-1-.1-1.3-.1s-.4-.1-.4-.3.3-.2.6-.2c1.3 0 2.7.1 3.2.1.3 0 1.2-.1 2.5-.1.3 0 .6 0 .6.2 0 .1-.1.3-.4.3s-.5 0-.8.1c-.7.2-.9.6-.9 2l-.3 15.3c0 .5-.2.8-.4.8-.4 0-.8-.3-1-.5-1.6-1.5-4.7-4.4-7.3-7-2.7-2.6-5.4-5.6-5.9-6h-.1l.2 9.8zM74.7 69.3c-2.5-2.1-3.1-4.8-3.1-7.2 0-1.7.5-4.5 2.9-6.6 1.8-1.6 4.2-2.6 8-2.6 1.6 0 2.5.1 3.7.3.9.1 1.8.3 2.5.4.3 0 .4.1.4.3s-.1.5-.1 1.3c-.1.8-.1 2.1-.1 2.6 0 .3-.1.6-.3.6-.2 0-.3-.2-.3-.5 0-.8-.3-1.6-1-2.3-.9-.8-2.5-1.4-4.9-1.4-2.2 0-3.6.4-4.7 1.4-1.9 1.6-2.3 3.9-2.3 6.3 0 5.8 4.5 8.5 7.8 8.5 2.2 0 3.5-.2 4.5-1.3.4-.5.8-1.2.9-1.6s.1-.5.3-.5c.2 0 .3.2.3.4 0 .3-.3 2.4-.5 3.2-.1.4-.2.5-.7.7-1 .4-2.9.5-4.5.5-3.6.1-6.5-.6-8.8-2.5zM94.4 60.3v-5.1c-.1-.8-.3-1.1-1.1-1.3-.2-.1-.6-.1-1-.1-.3 0-.4-.1-.4-.3s.2-.2.6-.2c1.3 0 2.9.1 3.6.1h6.9c.5 0 .9-.1 1.1-.1.1 0 .3-.1.4-.1s.2.1.2.2c0 .2-.1.5-.2 1.6 0 .3-.1 1.3-.1 1.6 0 .1-.1.4-.3.4-.2 0-.2-.1-.2-.3s0-.6-.2-.9c-.2-.4-.4-.8-1.7-.9-.4-.1-3.4-.1-3.9-.1-.1 0-.2.1-.2.2v6c0 .1 0 .3.2.3.6 0 3.8 0 4.4-.1s.9-.1 1.2-.4c.2-.2.3-.3.4-.3s.2.1.2.3c0 .1-.1.5-.2 1.8-.1.5-.1 1.5-.1 1.6 0 .2 0 .5-.3.5-.2 0-.2-.1-.2-.2 0-.3 0-.6-.1-.9-.1-.5-.5-.9-1.4-.9-.5-.1-3.3-.1-3.9-.1-.1 0-.1.1-.1.3v5.5c.1 1.7.8 2 3.4 2 .7 0 1.7 0 2.4-.3.6-.3.9-.8 1.1-1.8.1-.3.1-.4.3-.4.2 0 .2.3.2.6 0 .5-.2 2.2-.3 2.7-.2.6-.4.6-1.3.6-1.9 0-3.4 0-4.6-.1-1.2 0-2.2-.1-2.9-.1h-1.4c-.6 0-1.2.1-1.7.1-.3 0-.5-.1-.5-.3 0-.1.1-.3.4-.3.4 0 .7 0 .9-.1.5-.1.7-.6.7-1.3.1-1 .1-2.9.1-5.2v-4.2h-.4zM122.7 58.4v-3.7c0-.7 0-1-.4-1-.5 0-2.7 1.1-3.3 1.4-.1.1-.3.1-.4.1s-.2-.1-.2-.3.1-.3.3-.4c.1-.1 5.6-3.6 6.6-4.4.3-.2.5-.4.7-.4.3 0 .3.3.3.6 0 .2-.2 3-.2 7.4V63c0 2.7 0 5.2.1 6.4.1.9.2 1.3 1.1 1.5.4.1 1.7.2 1.9.2.1 0 .3.1.3.3s-.1.3-.5.3c-2.2 0-4-.1-4.8-.1-.7 0-3.1.1-4.9.1-.3 0-.5-.1-.5-.3s.1-.3.2-.3c.3 0 1.8-.1 2.3-.2.9-.2 1.1-.6 1.1-1.5.1-1.3.2-3.7.1-6.4l.2-4.6zM133.7 66.4c0-3.2 2.5-5.3 5.3-6.4-2.4-1.2-4.1-2.8-4.1-5.2 0-2.2 1.9-5.2 6.8-5.2 3.5 0 5.9 1.6 5.9 4.4 0 3-2.6 4.7-4.2 5.3 2 1.1 5.2 2.9 5.2 6.4 0 3.4-2.8 6.3-7.6 6.3-4.4 0-7.3-2.1-7.3-5.6zm7.4 4.3c2.2 0 4-1.7 4-4.3 0-2.9-2.3-4.2-4.8-5.7-1.5.9-3.4 2.6-3.4 5.5 0 2.6 1.8 4.5 4.2 4.5zm.1-19.8c-2.5 0-3.5 1.8-3.5 3.4 0 1.8 1.2 2.9 3.8 4.4.8-.4 2.8-1.5 2.8-4.4.1-2.2-1.4-3.4-3.1-3.4zM150.8 66.4c0-3.2 2.5-5.3 5.3-6.4-2.4-1.2-4.1-2.8-4.1-5.2 0-2.2 1.9-5.2 6.8-5.2 3.5 0 5.9 1.6 5.9 4.4 0 3-2.6 4.7-4.2 5.3 2 1.1 5.2 2.9 5.2 6.4 0 3.4-2.8 6.3-7.6 6.3-4.4 0-7.3-2.1-7.3-5.6zm7.4 4.3c2.2 0 4-1.7 4-4.3 0-2.9-2.3-4.2-4.8-5.7-1.5.9-3.4 2.6-3.4 5.5 0 2.6 1.9 4.5 4.2 4.5zm.2-19.8c-2.5 0-3.5 1.8-3.5 3.4 0 1.8 1.2 2.9 3.8 4.4.8-.4 2.8-1.5 2.8-4.4 0-2.2-1.4-3.4-3.1-3.4zM174.1 58.4v-3.7c0-.7 0-1-.4-1-.5 0-2.7 1.1-3.3 1.4-.1.1-.3.1-.4.1-.1 0-.2-.1-.2-.3s.1-.3.3-.4c.1-.1 5.6-3.6 6.6-4.4.3-.2.5-.4.7-.4.3 0 .3.3.3.6 0 .2-.2 3-.2 7.4V63c0 2.7 0 5.2.1 6.4.1.9.2 1.3 1.1 1.5.4.1 1.7.2 1.9.2.1 0 .3.1.3.3s-.1.3-.5.3c-2.2 0-4-.1-4.8-.1-.7 0-3.1.1-4.9.1-.3 0-.5-.1-.5-.3s.1-.3.2-.3c.3 0 1.8-.1 2.3-.2.9-.2 1.1-.6 1.1-1.5.1-1.3.2-3.7.1-6.4l.2-4.6z" class="st2"/></g></g></svg>