<?xml version="1.0" encoding="UTF-8" standalone="no"?>
<svg
   xmlns:dc="http://purl.org/dc/elements/1.1/"
   xmlns:cc="http://creativecommons.org/ns#"
   xmlns:rdf="http://www.w3.org/1999/02/22-rdf-syntax-ns#"
   xmlns:svg="http://www.w3.org/2000/svg"
   xmlns="http://www.w3.org/2000/svg"
   id="svg99"
   version="1.1"
   viewBox="0 0 300.00009 300.00009"
   height="300.00009mm"
   width="300.00009mm">
  <defs
     id="defs94">
    <clipPath
       clipPathUnits="userSpaceOnUse"
       id="clipPath28">
      <path
         d="M 0,850.394 H 850.394 V 0 H 0 Z"
         id="path26" />
    </clipPath>
  </defs>
  <g
     id="g18"
     transform="matrix(0.35277777,0,0,-0.35277777,0,300.0001)">
    <path
       d="M 0,0 H 850.394 V 850.394 H 0 Z"
       style="fill:#ec008c;fill-opacity:1;fill-rule:nonzero;stroke:none"
       id="path20" />
    <g
       id="g22">
      <g
         id="g24"
         clip-path="url(#clipPath28)">
        <g
           id="g30"
           transform="translate(221.687,107.1592)">
          <path
             d="M 0,0 H -108.301 V 232.998 H -6.059 c 46.686,0 70.18,-24.19 70.18,-63.111 0,-19.485 -8.391,-35.255 -22.838,-45.663 C 61.102,113.813 73.187,95.015 73.187,68.503 73.187,26.865 44.988,0 0,0 m -63.979,192.715 v -51.37 h 57.92 c 15.125,0 27.2,10.387 27.2,25.847 0,15.435 -10.398,25.523 -27.2,25.523 z M -7.058,100.729 H -63.979 V 40.615 h 57.92 c 17.145,0 33.935,6.726 33.935,29.565 0,19.453 -12.44,30.549 -34.934,30.549"
             style="fill:#ffffff;fill-opacity:1;fill-rule:nonzero;stroke:none"
             id="path32" />
        </g>
        <path
           d="m 310.504,107.159 h 44.322 v 232.998 h -44.322 z"
           style="fill:#ffffff;fill-opacity:1;fill-rule:nonzero;stroke:none"
           id="path34" />
        <g
           id="g36"
           transform="translate(473.75,190.4219)">
          <path
             d="m 0,0 h -49.542 v -83.263 h -44.321 v 232.998 h 92.854 c 48.693,0 76.893,-29.552 76.893,-75.216 C 75.884,31.216 45.999,0 0,0 M -49.542,108.441 V 40.626 H -1.33 c 20.486,0 32.883,10.399 32.883,33.893 0,23.514 -12.397,33.922 -32.883,33.922 z"
             style="fill:#ffffff;fill-opacity:1;fill-rule:nonzero;stroke:none"
             id="path38" />
        </g>
        <g
           id="g40"
           transform="translate(599.6699,340.1572)">
          <path
             d="m 0,0 -81.242,-232.998 h 47.018 l 15.781,46.664 h 93.006 l 15.766,-46.664 h 47.009 L 56.085,0 Z M 27.877,-49.371 60.445,-145.03 H -4.694 Z"
             style="fill:#ffffff;fill-opacity:1;fill-rule:nonzero;stroke:none"
             id="path42" />
        </g>
      </g>
    </g>
  </g>
</svg>
