<?xml version="1.0" encoding="UTF-8"?>
<svg width="600" height="245" version="1.1" xmlns="http://www.w3.org/2000/svg">
 <path d="m385.93 100.84c25.861 0 41.369-21.299 76.828-16.738 31.652 4.0854 47.041 15.588 47.041 54.934v91.662h-56.996v-81.866c0-13.882-5.4736-19.951-16.5-19.951-8.964 0-14.755 4.6406-17.611 8.0914v93.725h-56.996v-129.78zm-117.64 133.31c-39.346 0-76.074-22.251-76.074-75.757 0-53.229 36.728-75.48 76.074-75.48s76.075 22.251 76.075 75.48c0 53.506-36.728 75.757-76.075 75.757m0-105.82c-10.431 0-17.928 7.7739-17.928 29.787 0 21.696 7.4964 29.51 17.928 29.51 10.392 0 17.928-7.8136 17.928-29.51 0-22.013-7.5362-29.787-17.928-29.787m-173.25 102.37h-85.039v-199.59h84.444c54.101 0 78.693 19.713 78.693 50.928 0 26.614-15.35 39.346-32.127 45.097v0.59583c19.99 4.3234 39.069 19.078 39.069 45.692 0 34.706-25.742 57.274-85.039 57.274m-4.6406-152.43h-21.656v31.255h21.656c17.373 0 24.592-6.0685 24.592-16.222 0-9.2418-6.0686-15.033-24.592-15.033m2.6192 70.006h-24.274v33.555h24.552c20.823 0 27.765-6.386 27.765-16.778 0-10.432-7.8139-16.778-28.042-16.778m496.98-105.7c0 17.491-14.16 31.691-31.691 31.691s-31.731-14.2-31.731-31.691c0-17.531 14.2-31.731 31.731-31.731s31.691 14.199 31.691 31.731m-3.2128 188.12h-56.996v-144.34h56.996z" fill="#e30613"/>
</svg>
