<?xml version="1.0" encoding="UTF-8" standalone="no"?>
<svg
   xmlns:dc="http://purl.org/dc/elements/1.1/"
   xmlns:cc="http://creativecommons.org/ns#"
   xmlns:rdf="http://www.w3.org/1999/02/22-rdf-syntax-ns#"
   xmlns:svg="http://www.w3.org/2000/svg"
   xmlns="http://www.w3.org/2000/svg"
   xmlns:sodipodi="http://sodipodi.sourceforge.net/DTD/sodipodi-0.dtd"
   xmlns:inkscape="http://www.inkscape.org/namespaces/inkscape"
   width="132.15819"
   height="26.163782"
   viewBox="0 0 132.15819 26.163782"
   version="1.1"
   id="svg861"
   sodipodi:docname="Logo Bricoman.svg"
   inkscape:version="1.0.1 (c497b03c, 2020-09-10)">
  <metadata
     id="metadata865">
    <rdf:RDF>
      <cc:Work
         rdf:about="">
        <dc:format>image/svg+xml</dc:format>
        <dc:type
           rdf:resource="http://purl.org/dc/dcmitype/StillImage" />
      </cc:Work>
    </rdf:RDF>
  </metadata>
  <sodipodi:namedview
     pagecolor="#ffffff"
     bordercolor="#666666"
     borderopacity="1"
     objecttolerance="10"
     gridtolerance="10"
     guidetolerance="10"
     inkscape:pageopacity="0"
     inkscape:pageshadow="2"
     inkscape:window-width="1920"
     inkscape:window-height="1080"
     id="namedview863"
     showgrid="false"
     inkscape:zoom="6.8705545"
     inkscape:cx="65.933543"
     inkscape:cy="12.630433"
     inkscape:window-x="0"
     inkscape:window-y="0"
     inkscape:window-maximized="0"
     inkscape:current-layer="svg861" />
  <defs
     id="defs835">
    <style
       id="style833">.a{fill:#fff;}.b{fill:#ff5800;}</style>
  </defs>
  <rect
     style="fill:#120949;stroke:none;stroke-width:1.00157;fill-opacity:1"
     id="rect888"
     width="132.15819"
     height="26.163782"
     x="0"
     y="0" />
  <g
     id="g899"
     transform="translate(6.2570939,4.6365385)">
    <path
       class="a"
       d="M 10.151,9.023 V 8.905 a 3,3 0 0 0 1.951,-3 c 0,-3.43 -2.936,-4.12 -5.815,-4.12 h -6.288 v 14.862 h 7.353 c 2.6,0 5.44,-1.044 5.44,-4.1 A 3.592,3.592 0 0 0 10.151,9.018 M 4.808,5.118 H 5.29 c 0.866,0 1.994,0.066 1.991,1.279 C 7.281,7.59 6.306,7.61 5.44,7.61 H 4.808 Z m 0.759,8.143 H 4.825 v -2.788 h 0.658 c 0.923,0 2.4,0 2.392,1.384 -0.009,1.466 -1.364,1.4 -2.308,1.4"
       id="path839" />
    <path
       class="a"
       d="m 24.381,10.936 v -0.119 c 2.011,-0.67 2.878,-1.616 2.878,-3.863 0,-3.746 -2.838,-5.165 -6.189,-5.165 h -6.525 v 14.862 h 5.071 v -4.77 h 0.31 l 2.434,4.77 h 6.161 L 25.288,11.822 A 3.781,3.781 0 0 0 24.381,10.935 M 20.109,8.354 h -0.5 v -2.91 h 0.542 c 0.965,0 2.059,0.25 2.052,1.525 -0.007,1.207 -1.169,1.386 -2.093,1.386"
       id="path841" />
    <rect
       class="a"
       width="5.401"
       height="14.862"
       id="rect843"
       x="29.504999"
       y="1.79" />
    <path
       class="a"
       d="m 45.123,6.323 a 4.819,4.819 0 0 1 3.174,1.5 L 48.139,2.165 a 11.315,11.315 0 0 0 -3.627,-0.611 7.728,7.728 0 0 0 -7.766,7.806 7.447,7.447 0 0 0 7.549,7.53 11.968,11.968 0 0 0 3.844,-0.591 l 0.158,-5.559 a 4.3,4.3 0 0 1 -3.1,1.38 2.967,2.967 0 0 1 -3.016,-2.9 2.911,2.911 0 0 1 2.937,-2.9"
       id="path845" />
    <path
       class="a"
       d="m 57.892,1.553 c -4.514,0 -8.22,3.035 -8.22,7.707 0,4.77 3.687,7.628 8.22,7.628 4.533,0 8.22,-2.858 8.22,-7.628 0,-4.672 -3.706,-7.707 -8.22,-7.707 m 0,10.644 a 2.691,2.691 0 0 1 -2.779,-2.858 2.743,2.743 0 0 1 2.779,-2.9 2.744,2.744 0 0 1 2.779,2.9 2.692,2.692 0 0 1 -2.779,2.858"
       id="path847" />
    <path
       class="a"
       d="m 92.418,1.789 -5.165,14.862 h 5.659 l 0.434,-1.853 h 4.2 l 0.493,1.853 h 5.658 l -5.3,-14.862 z m 1.859,9.623 1.037,-5.009 h 0.258 c 0.1,0.67 1.058,5.009 1.058,5.009 z"
       id="path849" />
    <path
       class="a"
       d="m 114.479,1.789 v 4.455 c 0,1.262 0.015,3.308 0.015,3.308 l -4.568,-7.763 h -5.185 v 14.862 h 5.165 v -4.829 c 0,-0.986 0,-2.689 0,-2.689 l 4.575,7.517 h 5.164 V 1.789 Z"
       id="path851" />
    <path
       class="a"
       d="m 84.295,1.789 -6.493,6.518 -1.1,1.1 -1.1,-1.1 -6.494,-6.518 H 69.04 l -2.4,14.862 h 5.223 l 0.812,-5.5 4.028,3.883 3.95,-3.883 0.908,5.5 h 5.223 L 84.34,1.789 Z"
       id="path853" />
    <path
       class="b"
       d="M 83.887,0 H 69.513 L 76.7,7.214 Z"
       id="path855" />
  </g>
</svg>
