<?xml version="1.0" encoding="UTF-8" standalone="no"?>
<svg
   xmlns:dc="http://purl.org/dc/elements/1.1/"
   xmlns:cc="http://creativecommons.org/ns#"
   xmlns:rdf="http://www.w3.org/1999/02/22-rdf-syntax-ns#"
   xmlns:svg="http://www.w3.org/2000/svg"
   xmlns="http://www.w3.org/2000/svg"
   viewBox="0 0 283.89334 172.50667"
   height="172.50667"
   width="283.89334"
   xml:space="preserve"
   id="svg2"
   version="1.1"><metadata
     id="metadata8"><rdf:RDF><cc:Work
         rdf:about=""><dc:format>image/svg+xml</dc:format><dc:type
           rdf:resource="http://purl.org/dc/dcmitype/StillImage" /></cc:Work></rdf:RDF></metadata><defs
     id="defs6" /><g
     transform="matrix(1.3333333,0,0,-1.3333333,0,172.50667)"
     id="g10"><g
       transform="scale(0.1)"
       id="g12"><path
         id="path14"
         style="fill:#231f20;fill-opacity:1;fill-rule:nonzero;stroke:none"
         d="m 1472.19,625.609 -4.56,-2.089 h 8.67 z" /><path
         id="path16"
         style="fill:#231f20;fill-opacity:1;fill-rule:nonzero;stroke:none"
         d="m 1774.17,472.719 c -15.94,-7.981 -38.99,-41.203 -42.54,-84.18 -3.54,-17.719 -14.18,-23.918 -23.03,-25.695 -10.63,1.777 -17.74,6.648 -19.49,14.621 v 125.816 h 85.06 z m 26.58,-316.75 v 347.312 h 146.19 V 155.969 c 1.78,-25.699 30.12,-11.52 31.89,-31.91 3.56,-12.84 -10.62,-15.938 -17.71,-17.707 h -172.78 c -14.17,1.769 -21.26,9.75 -21.26,17.707 3.53,20.39 33.67,6.211 33.67,31.91 z m 172.77,347.312 h 85.49 V 377.465 c 0,-7.973 -9.3,-12.844 -18.17,-14.621 -10.62,1.777 -23.02,9.746 -23.02,27.019 -3.54,23.93 -12.4,60.696 -44.3,82.856 z M 1486.2,96.5898 v 31.8982 c 15.95,3.551 30.13,15.961 30.13,33.672 v 285.305 c 0,15.945 -10.64,27.019 -30.13,33.223 v 30.566 c 124.49,-4.875 182.97,-103.664 182.97,-204.231 0,-100.113 -62.02,-203.785 -182.97,-210.4332 z m -26.59,384.0982 c -23.02,-7.969 -30.11,-20.383 -30.11,-35 V 173.23 c 0,-20.808 3.53,-35 30.11,-44.742 V 96.5898 C 1336.9,101.48 1274.44,203.371 1274.44,303.93 c 0,100.554 62.46,200.679 185.17,207.324 z M 1063.13,259.18 v 30.57 c 30.12,3.102 35.43,22.148 35.43,42.969 v 98.797 c 0,23.918 -12.4,39.863 -35.43,41.203 v 30.562 c 1.77,0 3.54,0 3.54,0 129.8,0 175.87,-49.617 174.1,-129.363 C 1239.01,289.75 1169.89,256.09 1063.13,259.18 Z M 1048.95,106.352 H 879.719 c -15.949,0 -23.039,7.968 -23.039,15.949 0,22.148 35.449,7.969 33.672,36.758 v 294.605 c 0,23.926 -30.125,12.852 -31.895,33.672 -1.777,12.844 8.856,15.945 23.035,15.945 h 155.048 v -345.98 c 1.78,-28.813 35.44,-11.09 33.67,-38.11 0,-4.871 -8.85,-11.07 -21.26,-12.839 z m -218.845,0 H 694.98 v 31.878 c 58.477,4.891 92.586,49.18 99.676,74.891 3.547,11.059 12.414,17.711 21.274,17.711 8.855,0 14.175,-6.652 14.175,-15.953 z m -161.699,0 H 509.805 c -12.403,1.769 -19.492,7.968 -21.27,14.168 0,23.929 34.121,11.519 34.121,35.449 v 292.824 c 1.77,35.437 -32.343,11.512 -34.121,39.871 0,7.969 10.637,14.617 21.27,14.617 h 158.601 z m -377.011,0 v 31.878 c 26.585,1.782 37.218,19.071 37.218,46.079 v 240.554 c 0,28.801 -12.402,44.746 -37.218,46.516 v 31.902 c 126.261,0 191.828,-98.797 191.828,-201.129 0,-97.011 -62.024,-194.031 -191.828,-195.8 z m -26.582,0 H 116.855 c -19.4917,0 -30.1284,1.769 -31.9019,15.949 0,20.82 33.6679,9.738 33.6679,31.879 0,1.789 0,3.121 0,3.121 v 293.258 c 0,30.129 -23.0351,12.851 -31.8944,33.671 0,0 -1.7735,1.329 -1.7735,3.106 0,7.969 7.086,17.273 30.1249,15.945 H 264.813 Z M 694.98,326.074 c 42.532,11.516 37.215,55.824 49.622,62.465 3.543,0 7.086,1.324 10.632,1.324 8.86,0 15.95,-4.422 14.18,-22.144 V 243.23 c 0,-7.96 -7.09,-14.179 -15.957,-14.179 -5.312,0 -12.402,4.879 -15.945,15.961 -8.86,23.918 -15.949,41.187 -42.532,47.84 z m 0,177.207 h 131.575 l -1.77,-108.543 c 0,-7.968 -5.312,-12.84 -15.945,-14.168 -7.094,1.328 -15.949,4.871 -15.949,14.168 -5.325,25.703 -35.887,68.672 -97.911,76.641 z m 991.41,13.567 -210.09,106.672 h -8.67 l -232.9,-106.672 -26.58,82.199 50.48,24.473 L 0,623.52 V 0 h 2129.18 v 623.52 h -456.26 l 60.39,-30.286 -46.92,-76.386" /><path
         id="path18"
         style="fill:#ed1c24;fill-opacity:1;fill-rule:nonzero;stroke:none"
         d="m 1461.65,1150.95 c -28.34,-6.2 -38.97,-27.02 -37.21,-55.82 V 846.605 c 0,-25.253 19.49,-44.296 37.21,-47.843 v -31.903 c -129.81,0 -190.49,95.692 -192.25,202.461 0,105.44 62.44,207.33 192.25,212.21 z M 1230.4,792.563 c 1.77,-7.981 -7.09,-15.95 -21.25,-15.95 h -170.58 c -9.29,1.77 -19.93,6.203 -19.93,15.95 0,22.148 32.35,9.746 34.11,33.66 v 292.827 c 1.77,31.9 -30.56,14.63 -34.11,36.77 -1.77,11.09 10.64,17.73 21.71,17.73 h 168.8 c 14.16,0 23.02,-4.87 21.25,-15.95 -1.76,-22.6 -33.68,-9.74 -33.68,-33.67 V 826.223 c 1.78,-23.914 31.92,-9.746 33.68,-33.66 z M 879.98,766.859 c -76.203,0 -88.601,49.618 -92.148,70.45 v 68.211 c 0,17.722 -5.312,44.746 -35.891,46.523 v 31.895 c 24.817,1.328 35.891,7.98 35.891,41.202 v 73.54 c 0,30.12 -16.394,38.1 -35.891,42.97 v 31.9 c 120.95,12.4 179.868,-42.97 179.868,-102.34 0,-44.29 -37.661,-89.038 -106.77,-98.784 0,0 0,0 0,-1.328 76.199,-7.981 105,-36.778 105,-73.547 v -60.242 c 0,-3.11 1.77,-4.883 5.313,-4.883 10.632,1.773 14.179,14.179 24.816,14.179 8.855,0 17.715,-7.98 17.715,-15.949 0,-22.148 -42.531,-63.797 -97.903,-63.797 z m -142.207,9.754 H 568.984 c -10.632,0 -23.039,4.871 -21.269,15.95 1.777,23.914 31.902,7.964 31.902,33.66 v 297.707 c 0,25.69 -30.125,11.07 -31.902,33.67 -1.77,6.2 5.32,15.95 21.269,15.95 H 725.359 V 826.223 c 0,-23.914 33.672,-12.84 31.907,-33.66 0,-9.747 -5.325,-14.18 -19.493,-15.95 z M 488.801,870.527 C 485.254,821.352 439.18,773.508 350.137,776.613 h -53.164 v 31.895 c 30.129,0 46.074,7.969 46.074,38.097 v 73.543 c 0,44.297 -26.582,44.297 -46.074,46.075 v 31.894 c 21.257,1.77 47.851,6.203 46.074,44.743 v 57.15 c -1.777,31.9 -26.582,41.64 -46.074,42.97 v 30.57 h 46.074 c 94.363,0 140.437,-47.84 140.437,-97.46 0,-42.97 -40.757,-87.719 -112.089,-92.152 0,0 0,0 0,-1.766 85.507,-9.746 122.714,-52.727 117.406,-111.645 z M 270.391,776.613 H 108.254 c -8.8595,0 -15.9493,7.969 -15.9493,15.95 1.7695,25.691 33.6723,6.199 33.6723,36.765 v 291.502 c 0,28.79 -33.6723,12.85 -35.4497,36.77 5.3204,7.98 3.5469,15.95 19.4927,15.95 h 160.371 z m 1217.839,22.149 c 46.07,9.746 87.28,38.547 99.69,79.738 3.53,9.742 10.62,12.852 17.71,12.852 8.87,0 15.96,-6.204 15.96,-19.055 0,-3.098 0,-6.641 0,-7.969 -17.74,-54.051 -78.42,-95.691 -133.36,-97.469 z m 0,382.768 c 35.45,-3.11 64.24,-20.82 83.75,-20.82 14.16,1.76 15.94,20.82 30.11,20.82 10.63,0 19.5,-6.65 19.5,-19.06 v -121.38 c 1.75,-12.86 -7.09,-20.82 -15.96,-22.15 -12.4,1.33 -24.8,11.07 -26.58,28.79 -7.07,38.1 -44.75,97.02 -90.82,103.22 z m 359.29,0 v -30.58 c -23.04,-7.97 -30.13,-20.37 -30.13,-34.99 V 843.508 c 0,-20.828 3.55,-35 30.13,-44.746 v -31.903 c -122.71,4.871 -185.17,106.766 -185.17,207.332 0,100.569 62.46,200.689 185.17,207.339 z m 26.59,-382.768 c 15.93,3.547 30.11,15.949 30.11,33.664 v 285.304 c 0,15.95 -10.62,27.02 -30.11,33.22 v 30.58 c 124.47,-4.88 182.95,-103.67 182.95,-204.233 0,-100.125 -62.02,-203.789 -182.95,-210.438 z M 1579.62,670.316 h 549.56 V 1293.84 H 0 V 670.316 h 1355.14 l 114.14,55.34 110.34,-55.34" /></g></g></svg>