<?xml version="1.0" encoding="UTF-8" standalone="no"?>
<!-- Created with Inkscape (http://www.inkscape.org/) -->

<svg
   xmlns:dc="http://purl.org/dc/elements/1.1/"
   xmlns:cc="http://creativecommons.org/ns#"
   xmlns:rdf="http://www.w3.org/1999/02/22-rdf-syntax-ns#"
   xmlns:svg="http://www.w3.org/2000/svg"
   xmlns="http://www.w3.org/2000/svg"
   version="1.1"
   width="340.60999"
   height="51.439999"
   id="svg2"
   xml:space="preserve"><metadata
     id="metadata8"><rdf:RDF><cc:Work
         rdf:about=""><dc:format>image/svg+xml</dc:format><dc:type
           rdf:resource="http://purl.org/dc/dcmitype/StillImage" /><dc:title></dc:title></cc:Work></rdf:RDF></metadata><defs
     id="defs6"><clipPath
       id="clipPath18"><path
         d="m 34.016,208.913 50.182,0 0,53.848 -50.182,0 0,-53.848 z"
         id="path20" /></clipPath><clipPath
       id="clipPath66"><path
         d="m 37.136,210.887 43.943,0 0,49.9 -43.943,0 0,-49.9 z"
         id="path68" /></clipPath><clipPath
       id="clipPath86"><path
         d="m 34.016,208.913 50.182,0 0,53.848 -50.182,0 0,-53.848 z"
         id="path88" /></clipPath><clipPath
       id="clipPath102"><path
         d="m 106.828,224.515 70.751,0 0,23.476 -70.751,0 0,-23.476 z"
         id="path104" /></clipPath><clipPath
       id="clipPath150"><path
         d="m 164.253,247.99 0,-13.034 c 1.357,-0.338 2.011,-1.462 2.011,-2.761 l 0,0 c 0,-0.182 -0.013,-0.366 -0.028,-0.548 l 0,0 c -0.666,0.009 -1.325,0.025 -1.983,0.035 l 0,0 0,-2.979 c 0.623,0.128 1.264,0.498 1.66,0.951 l 0,0 0.07,-0.042 -0.084,-0.689 c -0.411,-0.328 -1.012,-0.635 -1.646,-0.776 l 0,0 0,-0.675 9.513,0 0,0.606 c -1.333,0.114 -2.604,1.168 -2.604,3.443 l 0,0 c 0,2.161 1.278,3.31 2.604,3.508 l 0,0 0,12.961 -9.513,0 z m 0,-15.834 c 0.294,0.008 0.585,0.018 0.859,0.024 l 0,0 c 0,0.755 -0.152,1.759 -0.859,2.202 l 0,0 0,-2.226 z m 8.145,-0.72 c 0,-1.782 0.646,-2.531 1.368,-2.763 l 0,0 0,5.691 c -0.928,-0.346 -1.368,-1.51 -1.368,-2.928"
         id="path152" /></clipPath><clipPath
       id="clipPath162"><path
         d="m 164.253,234.382 c 0.707,-0.443 0.859,-1.447 0.859,-2.202 l 0,0 c -0.274,-0.006 -0.565,-0.016 -0.859,-0.024 l 0,0 0,-0.474 c 0.658,-0.01 1.317,-0.026 1.983,-0.035 l 0,0 c 0.015,0.182 0.028,0.366 0.028,0.548 l 0,0 c 0,1.299 -0.654,2.423 -2.011,2.761 l 0,0 0,-0.574 z m 0,-5.679 0,-0.556 c 0.634,0.141 1.235,0.448 1.646,0.776 l 0,0 0.084,0.689 -0.07,0.042 c -0.396,-0.453 -1.037,-0.823 -1.66,-0.951"
         id="path164" /></clipPath><clipPath
       id="clipPath174"><path
         d="m 171.162,231.521 c 0,-2.275 1.271,-3.329 2.604,-3.443 l 0,0 0,0.595 c -0.722,0.232 -1.368,0.981 -1.368,2.763 l 0,0 c 0,1.418 0.44,2.582 1.368,2.928 l 0,0 0,0.665 c -1.326,-0.198 -2.604,-1.347 -2.604,-3.508"
         id="path176" /></clipPath><clipPath
       id="clipPath186"><path
         d="m 106.828,224.515 70.751,0 0,23.476 -70.751,0 0,-23.476 z"
         id="path188" /></clipPath><clipPath
       id="clipPath222"><path
         d="m 201.585,211.18 54.393,0 0,46.933 -54.393,0 0,-46.933 z"
         id="path224" /></clipPath><clipPath
       id="clipPath326"><path
         d="m 287.15,208.428 28.706,0 0,47.961 -28.706,0 0,-47.961 z"
         id="path328" /></clipPath><clipPath
       id="clipPath382"><path
         d="m 343.183,221.669 61.331,0 0,16.725 -61.331,0 0,-16.725 z"
         id="path384" /></clipPath><clipPath
       id="clipPath442"><path
         d="m 53.991,168.662 75.279,0 0,25.488 -75.279,0 0,-25.488 z"
         id="path444" /></clipPath><clipPath
       id="clipPath490"><path
         d="m 56.358,169.934 70.548,0 0,22.942 -70.548,0 0,-22.942 z"
         id="path492" /></clipPath><clipPath
       id="clipPath506"><path
         d="m 53.991,168.662 75.279,0 0,25.488 -75.279,0 0,-25.488 z"
         id="path508" /></clipPath><clipPath
       id="clipPath566"><path
         d="m 151.096,177.317 55.595,0 0,26.95 -55.595,0 0,-26.95 z"
         id="path568" /></clipPath><clipPath
       id="clipPath614"><path
         d="m 239.177,169.795 74.911,0 0,30.254 -74.911,0 0,-30.254 z"
         id="path616" /></clipPath><clipPath
       id="clipPath626"><path
         d="m 242.862,172.885 67.54,0 0,24.071 -67.54,0 0,-24.071 z"
         id="path628" /></clipPath><clipPath
       id="clipPath642"><path
         d="m 239.177,169.795 74.911,0 0,30.254 -74.911,0 0,-30.254 z"
         id="path644" /></clipPath><clipPath
       id="clipPath738"><path
         d="m 329.984,175.748 60.638,0 0,16.996 -60.638,0 0,-16.996 z"
         id="path740" /></clipPath><clipPath
       id="clipPath810"><path
         d="m 35.9,126.142 80.614,0 0,14.337 -80.614,0 0,-14.337 z"
         id="path812" /></clipPath><clipPath
       id="clipPath862"><path
         d="m 128.129,121.89 68.321,0 0,18.872 -68.321,0 0,-18.872 z"
         id="path864" /></clipPath><clipPath
       id="clipPath1026"><path
         d="m 208.461,114.638 40.642,0 0,54.589 -40.642,0 0,-54.589 z"
         id="path1028" /></clipPath><clipPath
       id="clipPath1038"><path
         d="m 263.689,118.445 60.557,0 0,37.96 -60.557,0 0,-37.96 z"
         id="path1040" /></clipPath><clipPath
       id="clipPath1454"><path
         d="m 339.38,123.415 63.561,0 0,14.573 -63.561,0 0,-14.573 z"
         id="path1456" /></clipPath><clipPath
       id="clipPath1566"><path
         d="m 405.355,92.391 189.921,0 0,311.546 -189.921,0 0,-311.546 z"
         id="path1568" /></clipPath><clipPath
       id="clipPath1668"><path
         d="m 564.234,145.273 c 0.581,0 0.113,-0.192 1.171,-0.456 l 0,0 c -1.057,0.264 -0.589,0.456 -1.171,0.456 l 0,0 c 0,0 0,0 0,0 m -0.475,-0.022 c 0.21,0.015 0.362,0.022 0.475,0.022 l 0,0 c 0,0 0,0 -0.001,0 l 0,0 c -0.112,0 -0.264,-0.007 -0.474,-0.022 m 1.646,-0.434 c 1.284,-0.32 1.498,-0.32 1.498,-0.32 l 0,0 c 0,0 0,0 0,0 l 0,0 c 0,0 0,0 0,0 l 0,0 c 0,0 -0.214,0 -1.498,0.32 l 0,0 c 0,0 0,0 0,0 m 1.508,-0.309 c 10e-4,10e-4 0.002,0.002 0.003,0.003 l 0,0 c -0.001,-0.001 -0.002,-0.002 -0.003,-0.003 m 3.435,-0.471 c -0.004,-0.001 -0.008,-0.002 -0.012,-0.003 l 0,0 c -0.015,-0.003 -0.029,-0.006 -0.043,-0.01 l 0,0 c -0.003,0 -0.006,-0.001 -0.009,-0.002 l 0,0 c -0.017,-0.004 -0.034,-0.008 -0.051,-0.012 l 0,0 c -0.003,-0.001 -0.006,-0.002 -0.008,-0.002 l 0,0 c -0.016,-0.004 -0.031,-0.008 -0.046,-0.012 l 0,0 c -0.003,-0.001 -0.005,-0.001 -0.007,-0.002 l 0,0 c -0.091,-0.024 -0.181,-0.052 -0.269,-0.082 l 0,0 c 0.283,0.097 0.591,0.165 0.891,0.199 l 0,0 c -0.148,-0.017 -0.298,-0.042 -0.446,-0.074 m -0.448,-0.126 c 10e-4,0 0.002,0 0.002,0.001 l 0,0 c 0,-0.001 -0.001,-0.001 -0.002,-0.001 m -4.708,-0.698 c 0.178,-0.118 1.156,-0.271 2.079,-0.271 l 0,0 c 0.334,0 0.66,0.019 0.938,0.068 l 0,0 c -0.011,-0.002 -0.022,-0.004 -0.033,-0.005 l 0,0 c -0.001,-0.001 -0.001,-0.001 -0.001,-0.001 l 0,0 c -0.007,-0.001 -0.014,-0.002 -0.021,-0.003 l 0,0 c -0.597,-0.094 -1.394,-0.064 -2.014,0.009 l 0,0 c -0.474,0.055 -0.845,0.135 -0.948,0.204 l 0,0 c -0.002,0.001 -0.003,0.003 -0.005,0.004 l 0,0 c 0,0 -10e-4,0 -10e-4,0.001 l 0,0 c -0.002,0.001 -0.003,0.002 -0.004,0.003 l 0,0 c -10e-4,0 -10e-4,0 -10e-4,0.001 l 0,0 c -0.02,0.017 -0.024,0.037 -0.017,0.059 l 0,0 c 10e-4,0.002 0.002,0.005 0.003,0.007 l 0,0 c -0.013,-0.029 -0.008,-0.055 0.025,-0.076"
         id="path1670" /></clipPath><clipPath
       id="clipPath1678"><path
         d="m 527.335,171.123 0,-44.278 44.281,0 0,17.264 c -0.872,0.124 -2.19,-0.196 -2.684,-0.789 l 0,0 c -0.533,-0.64 -3.421,-0.319 -3.74,-0.106 l 0,0 c -0.321,0.213 2.028,0.855 -1.284,0.747 l 0,0 c -3.313,-0.107 -4.063,0.644 -4.704,1.285 l 0,0 c -0.641,0.64 -1.71,0.533 -2.031,0.533 l 0,0 c -0.321,0 -1.389,0.642 -0.961,0.855 l 0,0 c 0.428,0.214 0.428,0.214 1.068,0.214 l 0,0 c 0.642,0 1.283,-0.855 1.818,-0.746 l 0,0 c 0.534,0.106 1.174,-0.537 2.353,-1.178 l 0,0 c 1.174,-0.641 0.855,0.213 2.243,0.322 l 0,0 c 1.39,0.106 0.428,-0.109 1.711,-0.429 l 0,0 c 1.284,-0.32 1.498,-0.32 1.498,-0.32 l 0,0 c 0,0 1.282,1.389 1.602,1.711 l 0,0 c 0.32,0.32 0.749,0 1.603,0 l 0,0 c 0.695,0 1.18,0.211 1.508,0.52 l 0,0 0,24.395 -44.281,0 z"
         id="path1680" /></clipPath><clipPath
       id="clipPath1690"><path
         d="m 534.715,163.743 0,-29.519 29.52,0 0,9.746 c -0.102,-0.002 -0.211,-0.005 -0.327,-0.009 l 0,0 c -3.313,-0.107 -4.063,0.644 -4.704,1.285 l 0,0 c -0.641,0.64 -1.71,0.533 -2.031,0.533 l 0,0 c -0.321,0 -1.389,0.642 -0.961,0.855 l 0,0 c 0.428,0.214 0.428,0.214 1.068,0.214 l 0,0 c 0.642,0 1.283,-0.855 1.818,-0.746 l 0,0 c 0.534,0.106 1.174,-0.537 2.353,-1.178 l 0,0 c 1.174,-0.641 0.855,0.213 2.243,0.322 l 0,0 c 0.245,0.018 0.417,0.027 0.541,0.027 l 0,0 0,18.47 -29.52,0 z"
         id="path1692" /></clipPath><clipPath
       id="clipPath1718"><path
         d="m 542.094,156.363 0,-14.759 14.761,0 0,4.266 c -0.419,0.185 -0.971,0.6 -0.643,0.764 l 0,0 c 0.302,0.151 0.391,0.196 0.643,0.208 l 0,0 0,9.521 -14.761,0 z"
         id="path1720" /></clipPath><clipPath
       id="clipPath1746"><path
         d="m 0,0 629.291,0 0,841.89 L 0,841.89 0,0 z"
         id="path1748" /></clipPath><clipPath
       id="clipPath1850"><path
         d="m 35.433,420.943 269.291,0 0,38.756 -269.291,0 0,-38.756 z"
         id="path1852" /></clipPath><clipPath
       id="clipPath2012"><path
         d="m 34.016,69.236 29.551,0 0,29.623 -29.551,0 0,-29.623 z"
         id="path2014" /></clipPath><clipPath
       id="clipPath2024"><path
         d="m 34.562,69.803 28.346,0 0,28.346 -28.346,0 0,-28.346 z"
         id="path2026" /></clipPath><clipPath
       id="clipPath2036"><path
         d="m 34.016,69.236 29.551,0 0,29.623 -29.551,0 0,-29.623 z"
         id="path2038" /></clipPath></defs><g
     transform="matrix(1.25,0,0,-1.25,-44.291496,577.62151)"
     id="g10"><path
       d="m 222.18128,441.94645 -1.362,-1.777 c -1.358,1.325 -2.746,2.105 -4.802,2.105 -3.668,0 -5.973,-2.619 -5.973,-6.497 0,-3.711 2.519,-6.246 6.14,-6.246 1.879,0 3.462,0.818 4.851,2.022 l 1.106,-1.852 c -1.363,-1.309 -3.522,-2.363 -6.093,-2.363 -5.049,0 -8.534,3.582 -8.534,8.439 0,5.057 3.666,8.657 8.618,8.657 2.457,0 4.649,-1.008 6.049,-2.488"
       id="path1856"
       style="fill:#1f3a88;fill-opacity:1;fill-rule:nonzero;stroke:none" /><path
       d="m 235.64878,438.77136 2.117,0 0,-1.718 0.048,0 c 0.659,1.118 1.952,2 3.669,2 1.187,0 2.31,-0.416 3.063,-1.277 0.609,-0.694 0.984,-1.633 0.984,-3.071 l 0,-7.086 -2.118,0 0,6.531 c 0,1.104 -0.273,1.766 -0.708,2.224 -0.47,0.494 -1.128,0.703 -1.832,0.703 -0.976,0 -1.722,-0.321 -2.239,-0.895 -0.577,-0.642 -0.867,-1.493 -0.867,-2.912 l 0,-5.651 -2.117,0 0,11.152 z"
       id="path1860"
       style="fill:#1f3a88;fill-opacity:1;fill-rule:nonzero;stroke:none" /><path
       d="m 234.00108,432.56475 -8.888,0 c 0.222,-2.366 1.87,-3.386 3.686,-3.386 1.604,0 2.851,0.741 4.021,1.727 l 0.951,-1.567 c -1.138,-1.078 -3.094,-2.002 -5.131,-2.002 -3.529,0 -5.749,2.541 -5.749,5.858 0,3.186 2.244,5.858 5.707,5.858 3.13,0 5.46,-2.163 5.46,-5.833 0,-0.237 -0.021,-0.414 -0.057,-0.655 m -5.417,4.73 c -1.993,0 -3.128,-1.302 -3.42,-3.166 l 6.635,0 c -0.046,1.858 -1.296,3.166 -3.215,3.166"
       id="path1864"
       style="fill:#1f3a88;fill-opacity:1;fill-rule:nonzero;stroke:none" /><path
       d="m 272.82899,432.56475 -8.888,0 c 0.223,-2.366 1.871,-3.386 3.686,-3.386 1.604,0 2.851,0.741 4.021,1.727 l 0.951,-1.567 c -1.138,-1.078 -3.094,-2.002 -5.131,-2.002 -3.529,0 -5.748,2.541 -5.748,5.858 0,3.186 2.243,5.858 5.706,5.858 3.13,0 5.46,-2.163 5.46,-5.833 0,-0.237 -0.02,-0.414 -0.057,-0.655 m -5.417,4.73 c -1.993,0 -3.128,-1.302 -3.42,-3.166 l 6.635,0 c -0.046,1.858 -1.296,3.166 -3.215,3.166"
       id="path1868"
       style="fill:#1f3a88;fill-opacity:1;fill-rule:nonzero;stroke:none" /><path
       d="m 255.10278,438.77136 2.117,0 0,-1.718 0.047,0 c 0.57,1.114 1.937,1.991 3.325,1.991 0.299,0 0.667,-0.041 0.926,-0.117 l 0,-1.911 -0.994,0 c -1.086,0 -1.891,-0.357 -2.431,-0.91 -0.573,-0.587 -0.873,-1.469 -0.873,-2.888 l 0,-5.599 -2.117,0 0,11.152 z"
       id="path1872"
       style="fill:#1f3a88;fill-opacity:1;fill-rule:nonzero;stroke:none" /><path
       d="m 281.32899,435.80397 c -0.804,0.949 -1.833,1.493 -2.965,1.493 -1.174,0 -1.945,-0.562 -1.945,-1.483 0,-1.003 1.247,-1.292 2.631,-1.662 2.326,-0.62 3.794,-1.243 3.794,-3.269 0,-2.418 -2.033,-3.554 -4.243,-3.554 -1.982,0 -3.561,0.723 -4.641,2.002 l 1.352,1.361 c 0.727,-0.924 2.003,-1.614 3.224,-1.614 1.537,0 2.231,0.762 2.231,1.615 0,0.861 -0.76,1.229 -2.387,1.64 -2.195,0.555 -4.029,1.121 -4.029,3.423 0,1.707 1.44,3.289 4.154,3.289 1.531,0 3.2,-0.636 4.138,-1.94 l -1.314,-1.301 z"
       id="path1876"
       style="fill:#1f3a88;fill-opacity:1;fill-rule:nonzero;stroke:none" /><path
       d="m 250.63857,437.01745 0,-9.398 -2.118,0 0,9.398 -2.056,0 0,1.754 2.056,0 0,3.543 2.118,0 0,-3.543 3.197,0 0,-1.754 -3.197,0 z"
       id="path1880"
       style="fill:#1f3a88;fill-opacity:1;fill-rule:nonzero;stroke:none" /><path
       d="m 51.70518,441.94645 -1.362,-1.777 c -1.357,1.325 -2.746,2.105 -4.802,2.105 -3.668,0 -5.973,-2.619 -5.973,-6.497 0,-3.711 2.519,-6.246 6.14,-6.246 1.88,0 3.462,0.818 4.851,2.022 l 1.106,-1.852 c -1.363,-1.309 -3.523,-2.363 -6.093,-2.363 -5.049,0 -8.533,3.582 -8.533,8.439 0,5.057 3.665,8.657 8.617,8.657 2.457,0 4.649,-1.008 6.049,-2.488"
       id="path1884"
       style="fill:#1f3a88;fill-opacity:1;fill-rule:nonzero;stroke:none" /><path
       d="m 68.377376,433.19476 c 0,-2.258 1.412,-3.881 3.67,-3.881 2.258,0 3.67,1.623 3.67,3.881 0,2.259 -1.412,3.883 -3.67,3.883 -2.258,0 -3.67,-1.624 -3.67,-3.883 m -2.118,5.576 2.118,0 0,-1.641 0.047,0 c 0.824,1.201 2.376,1.923 3.882,1.923 3.458,0 5.67,-2.564 5.67,-5.858 0,-3.34 -2.236,-5.858 -5.67,-5.858 -1.6,0 -3.129,0.762 -3.882,1.915 l -0.047,0 0,-7.149 -2.118,0 0,16.668 z"
       id="path1888"
       style="fill:#1f3a88;fill-opacity:1;fill-rule:nonzero;stroke:none" /><path
       d="m 104.07698,444.14866 2.117,0 0,-16.53 -2.117,0 0,16.53 z"
       id="path1890"
       style="fill:#1f3a88;fill-opacity:1;fill-rule:nonzero;stroke:none" /><path
       d="m 81.755983,443.39166 -2.398,0 0,-2.39 2.398,0 0,2.39 z m -2.255,-4.62 2.118,0 0,-11.152 -2.118,0 0,11.152 z"
       id="path1892"
       style="fill:#1f3a88;fill-opacity:1;fill-rule:nonzero;stroke:none" /><path
       d="m 87.087489,437.01745 0,-9.398 -2.118,0 0,9.398 -2.056,0 0,1.754 2.056,0 0,3.543 2.118,0 0,-3.543 3.197,0 0,-1.754 -3.197,0 z"
       id="path1896"
       style="fill:#1f3a88;fill-opacity:1;fill-rule:nonzero;stroke:none" /><path
       d="m 96.251582,429.30845 c -2.188,0 -3.646,1.555 -3.646,3.813 0,2.258 1.419,3.955 3.678,3.955 2.259,0 3.662,-1.697 3.662,-3.955 0,-2.258 -1.436,-3.813 -3.694,-3.813 m 5.810998,-1.689 0,11.151 -2.116998,0 0,-1.64 -0.047,0 c -0.823,1.199 -2.368,1.922 -3.874,1.922 -3.458,0 -5.678,-2.637 -5.678,-5.931 -0.023,-3.246 2.377,-5.782 5.646,-5.782 1.529,0 3.083,0.692 3.883,2.034 l 0.07,0 0,-1.754 2.116998,0 z"
       id="path1900"
       style="fill:#1f3a88;fill-opacity:1;fill-rule:nonzero;stroke:none" /><path
       d="m 58.424678,429.30845 c -2.188,0 -3.646,1.555 -3.646,3.813 0,2.258 1.419,3.955 3.678,3.955 2.259,0 3.663,-1.697 3.663,-3.955 0,-2.258 -1.436,-3.813 -3.695,-3.813 m 5.811,-1.689 0,11.151 -2.116,0 0,-1.64 -0.047,0 c -0.824,1.199 -2.368,1.922 -3.875,1.922 -3.458,0 -5.678,-2.637 -5.678,-5.931 0,-3.334 2.361,-5.782 5.63,-5.782 1.529,0 3.099,0.692 3.899,2.034 l 0.071,0 0,-1.754 2.116,0 z"
       id="path1904"
       style="fill:#1f3a88;fill-opacity:1;fill-rule:nonzero;stroke:none" /><path
       d="m 150.94718,433.19476 c 0,-2.258 1.412,-3.881 3.67,-3.881 2.258,0 3.67,1.623 3.67,3.881 0,2.259 -1.412,3.883 -3.67,3.883 -2.258,0 -3.67,-1.624 -3.67,-3.883 m -2.118,5.576 2.118,0 0,-1.641 0.047,0 c 0.824,1.201 2.376,1.923 3.882,1.923 3.459,0 5.67,-2.564 5.67,-5.858 0,-3.34 -2.236,-5.858 -5.67,-5.858 -1.6,0 -3.129,0.762 -3.882,1.915 l -0.047,0 0,-7.149 -2.118,0 0,16.668 z"
       id="path1908"
       style="fill:#1f3a88;fill-opacity:1;fill-rule:nonzero;stroke:none" /><path
       d="m 164.15348,433.19476 c 0,-2.258 1.412,-3.881 3.67,-3.881 2.259,0 3.67,1.623 3.67,3.881 0,2.259 -1.411,3.883 -3.67,3.883 -2.258,0 -3.67,-1.624 -3.67,-3.883 m -2.117,5.576 2.117,0 0,-1.641 0.047,0 c 0.824,1.201 2.376,1.923 3.882,1.923 3.459,0 5.672,-2.564 5.672,-5.858 0,-3.34 -2.238,-5.858 -5.672,-5.858 -1.6,0 -3.129,0.762 -3.882,1.915 l -0.047,0 0,-7.149 -2.117,0 0,16.668 z"
       id="path1912"
       style="fill:#1f3a88;fill-opacity:1;fill-rule:nonzero;stroke:none" /><path
       d="m 124.21648,444.15075 2.117,0 0,-7.097 0.047,0 c 0.66,1.118 1.953,1.999 3.67,1.999 1.187,0 2.31,-0.416 3.063,-1.276 0.609,-0.694 0.984,-1.633 0.984,-3.071 l 0,-7.086 -2.118,0 0,6.53 c 0,1.104 -0.273,1.766 -0.708,2.224 -0.47,0.494 -1.128,0.703 -1.832,0.703 -0.975,0 -1.722,-0.321 -2.239,-0.895 -0.577,-0.641 -0.867,-1.493 -0.867,-2.912 l 0,-5.65 -2.117,0 0,16.531 z"
       id="path1916"
       style="fill:#1f3a88;fill-opacity:1;fill-rule:nonzero;stroke:none" /><path
       d="m 179.37438,438.77136 2.117,0 0,-1.718 0.048,0 c 0.659,1.118 1.952,2 3.67,2 1.187,0 2.309,-0.416 3.063,-1.277 0.608,-0.694 0.983,-1.633 0.983,-3.071 l 0,-7.086 -2.117,0 0,6.531 c 0,1.104 -0.274,1.766 -0.708,2.224 -0.471,0.494 -1.128,0.703 -1.833,0.703 -0.975,0 -1.722,-0.321 -2.239,-0.895 -0.577,-0.642 -0.867,-1.493 -0.867,-2.912 l 0,-5.651 -2.117,0 0,11.152 z"
       id="path1920"
       style="fill:#1f3a88;fill-opacity:1;fill-rule:nonzero;stroke:none" /><path
       d="m 141.41938,429.31356 c 2.259,0 3.67,1.623 3.67,3.881 0,2.259 -1.411,3.883 -3.67,3.883 -2.259,0 -3.67,-1.624 -3.67,-3.883 0,-2.258 1.411,-3.881 3.67,-3.881 m 0,9.739 c 3.317,0 5.928,-2.611 5.928,-5.858 0,-3.246 -2.611,-5.857 -5.928,-5.857 -3.317,0 -5.928,2.611 -5.928,5.857 0,3.247 2.611,5.858 5.928,5.858"
       id="path1924"
       style="fill:#1f3a88;fill-opacity:1;fill-rule:nonzero;stroke:none" /><path
       d="m 196.61678,429.43786 c -2.259,0 -3.67,1.49 -3.67,3.748 0,2.259 1.411,3.891 3.67,3.891 2.259,0 3.67,-1.632 3.67,-3.891 0,-2.258 -1.411,-3.748 -3.67,-3.748 m 3.67,9.332 0,-1.632 -0.047,0 c -0.823,1.2 -2.376,1.914 -3.882,1.914 -3.458,0 -5.67,-2.572 -5.67,-5.866 -0.023,-3.246 2.401,-5.724 5.67,-5.724 1.53,0 3.059,0.659 3.859,2 l 0.07,0 0,-1.213 c 0,-1.584 -0.311,-2.633 -0.958,-3.341 -0.61,-0.666 -1.574,-1.022 -2.661,-1.022 -1.468,0 -2.794,0.586 -3.948,1.482 l -1.073,-1.636 c 1.361,-1.057 3.26,-1.716 5.106,-1.716 1.91,0 3.23,0.562 4.177,1.528 0.997,1.016 1.474,2.341 1.474,4.245 l 0,10.981 -2.117,0 z"
       id="path1928"
       style="fill:#1f3a88;fill-opacity:1;fill-rule:nonzero;stroke:none" /><path
       d="m 177.50298,443.39166 -2.399,0 0,-2.39 2.399,0 0,2.39 z m -2.256,-4.62 2.118,0 0,-11.152 -2.118,0 0,11.152 z"
       id="path1930"
       style="fill:#1f3a88;fill-opacity:1;fill-rule:nonzero;stroke:none" /><path
       d="m 117.74908,437.21136 c 2.17,-0.925 4.558,-2.013 4.558,-4.895 0,-3.108 -2.256,-4.978 -5.383,-4.978 -2.027,0 -4.301,1.002 -5.399,2.536 l 1.509,1.429 c 0.869,-1.064 2.228,-1.958 4.02,-1.958 1.692,0 3.025,1.081 3.025,2.735 0,1.818 -1.591,2.569 -3.355,3.309 -2.765,1.161 -4.643,2.155 -4.643,4.735 0,2.393 2.06,4.309 5.203,4.309 1.914,0 3.629,-0.83 4.808,-2.294 l -1.474,-1.437 c -0.87,1.076 -2.067,1.747 -3.529,1.747 -1.675,0 -2.805,-0.966 -2.805,-2.317 0,-1.315 1.109,-1.916 3.465,-2.921"
       id="path1934"
       style="fill:#1f3a88;fill-opacity:1;fill-rule:nonzero;stroke:none" /><path
       d="m 306.32898,447.26066 -13.512,0 0,13.509 13.512,0 0,-13.509 z"
       id="path1936"
       style="fill:#eb2f2c;fill-opacity:1;fill-rule:nonzero;stroke:none" /><path
       d="m 291.35078,445.90976 0,8.07 -5.321,0 0,-13.508 13.508,0 0,5.438 -8.187,0 z"
       id="path1940"
       style="fill:#1f3a88;fill-opacity:1;fill-rule:nonzero;stroke:none" /></g></svg>