<?xml version="1.0" encoding="UTF-8" standalone="no"?>
<!-- Created with Inkscape (http://www.inkscape.org/) -->
<svg
   xmlns:svg="http://www.w3.org/2000/svg"
   xmlns="http://www.w3.org/2000/svg"
   version="1.0"
   width="250"
   height="41.135338"
   id="svg2"
   xml:space="preserve"><defs
     id="defs5"><clipPath
       id="clipPath17"><path
         d="M 0.014999,583.909 L 436.5,583.909 L 436.5,79.318 L 0.014999,79.318 L 0.014999,583.909 z"
         id="path19" /></clipPath><clipPath
       id="clipPath113"><path
         d="M 341.574,532.268 L 407.953,532.268 C 407.953,532.268 409.659,532.418 410.606,531.284 C 411.375,530.362 411.251,529.923 411.251,529.923 L 411.305,489.059 C 411.305,489.059 411.154,488.017 410.462,487.465 C 409.746,486.892 408.85,486.641 408.85,486.641 L 341.484,486.659 C 341.484,486.659 340.803,486.766 340.015,487.357 C 339.038,488.089 338.957,489.22 338.957,489.22 L 338.957,529.761 C 338.957,529.761 339.082,530.856 339.764,531.427 C 340.75,532.253 341.574,532.268 341.574,532.268"
         id="path115" /></clipPath><clipPath
       id="clipPath125"><path
         d="M 0.014999,583.92 L 436.53,583.92 L 436.53,0 L 0.014999,0 L 0.014999,583.92 z"
         id="path127" /></clipPath><clipPath
       id="clipPath139"><path
         d="M 77.727,186.078 L 77.759,204.36 L 77.792,218.552 L 77.922,234.496 L 77.954,236.185 C 77.954,236.185 77.889,236.899 78.539,236.899 C 78.539,236.899 77.825,236.477 77.954,237.354 C 77.954,237.354 77.954,242.42 81.886,246.219 C 81.886,246.219 85.102,249.791 90.301,250.019 C 115.957,250.21 141.616,250.155 167.271,250.116 L 167.336,251.253 C 167.336,251.253 167.303,252.065 168.408,252.13 L 168.44,252.649 L 169.513,253.558 C 169.513,253.558 172.274,253.948 180.982,254.143 C 180.982,254.143 191.801,254.046 193.198,253.656 L 194.368,252.649 L 194.368,252.194 C 194.368,252.194 195.407,252.227 195.407,251.22 L 195.44,250.181 L 197.844,250.084 L 205.252,250.149 C 205.252,250.149 205.805,250.506 206.519,250.571 L 206.519,251.35 C 206.519,251.35 206.617,251.707 207.332,251.935 L 208.566,252.487 C 208.566,252.487 209.508,252.714 215.552,252.519 C 215.552,252.519 220.88,252.357 221.562,252.032 L 223.252,251.253 C 223.252,251.253 223.707,251.155 223.674,250.603 C 223.674,250.603 224.584,250.376 224.941,250.149 L 236.41,250.084 L 247.392,250.246 L 248.887,250.181 C 248.887,250.181 255.19,250.019 258.991,244.401 C 258.991,244.401 261.201,241.186 261.233,237.711 L 261.233,231.703 C 261.233,231.703 261.916,229.365 261.233,227.417 C 261.289,198.841 261.077,170.03 261.688,141.491 C 261.688,141.491 261.98,139.867 261.201,139.867 C 261.201,139.867 261.623,139.445 261.493,138.926 C 261.493,138.926 260.973,132.333 254.248,129.638 C 254.248,129.638 252.721,128.794 250.056,128.794 L 246.807,128.794 C 246.807,128.794 246.742,127.852 245.768,127.949 L 244.956,127.917 C 244.956,127.917 244.371,127.885 243.883,128.761 L 240.537,128.794 C 240.537,128.794 239.659,128.437 237.905,128.502 L 225.364,128.469 L 216.136,128.404 C 216.136,128.404 214.317,128.242 213.732,128.696 L 189.202,128.372 L 178.187,128.177 C 178.187,128.177 177.05,127.657 177.31,129.573 C 177.31,129.573 177.505,128.079 176.531,128.144 L 165.289,128.177 C 165.289,128.177 164.931,127.755 164.054,127.787 L 159.83,127.82 C 159.83,127.82 159.343,127.657 158.791,128.177 L 154.989,128.242 C 154.989,128.242 154.957,127.82 154.015,127.82 L 149.368,127.755 C 149.368,127.755 148.784,127.69 148.524,128.372 L 133.708,128.339 L 112.979,128.404 L 95.369,128.372 C 95.369,128.372 95.109,127.527 94.817,127.527 C 94.817,127.527 92.997,127.397 92.835,127.722 L 92.445,128.307 L 89.326,128.307 C 89.326,128.307 81.951,128.307 78.864,135.386 C 78.864,135.386 78.052,137.075 77.954,139.802 L 77.889,150.844 L 77.759,165.165 L 77.694,185.331 L 77.727,186.078"
         id="path141" /></clipPath><clipPath
       id="clipPath151"><path
         d="M 24.905,127.002 C 24.905,127.002 23.813,127.065 23.782,127.752 L 23.813,129.25 C 23.813,129.25 24.062,130 23.469,130.375 C 23.469,130.375 23.251,130.312 23.251,131.436 L 23.563,142.582 L 23.625,147.64 C 23.625,147.64 23.563,148.077 24.218,148.702 L 24.343,148.983 L 24.281,149.295 L 24.312,150.7 C 24.312,150.7 24.218,151.262 25.155,151.262 L 25.873,151.293 L 25.842,151.699 L 25.061,151.731 C 25.061,151.731 24.468,151.574 24.468,152.542 L 24.624,157.444 L 24.624,158.568 C 24.624,158.568 25.186,165.656 31.742,169.121 C 31.742,169.121 34.239,170.682 38.484,170.589 C 38.703,170.557 54.779,170.464 54.779,170.464 L 62.083,170.526 L 62.926,170.776 C 62.926,170.776 62.77,171.463 63.582,171.681 L 64.612,172.181 C 64.612,172.181 66.173,172.962 71.698,172.899 C 71.698,172.899 77.129,172.805 78.066,172.243 L 79.221,171.681 C 79.221,171.681 79.939,171.432 79.939,171.088 L 79.97,170.651 L 80.345,170.495 L 91.613,170.464 C 91.613,170.464 91.707,170.901 92.456,171.151 L 92.425,171.463 L 93.736,172.681 C 93.736,172.681 96.608,173.524 105.005,173.586 C 105.005,173.586 113.121,173.43 116.805,172.462 L 118.115,171.307 L 118.147,170.995 C 118.147,170.995 119.021,170.682 119.021,170.308 C 144.785,170.369 170.581,170.439 196.342,170.308 C 196.342,170.308 200.993,170.526 205.364,165.999 C 205.364,165.999 208.735,162.752 208.829,157.257 C 208.829,157.257 208.922,156.913 208.922,156.788 C 208.922,156.664 209.047,143.207 209.047,143.207 C 209.702,114.886 209.121,86.707 209.203,58.439 C 209.203,58.439 209.016,50.664 201.43,48.01 C 201.431,48.01 199.838,47.074 194.75,47.323 L 194.376,46.605 C 194.376,46.605 193.876,46.199 193.096,46.387 C 193.096,46.387 192.066,46.106 191.691,46.918 L 191.129,47.23 L 174.023,47.167 L 157.229,47.074 L 137.75,47.011 C 137.75,47.011 137.625,46.605 137.064,46.605 L 132.1,46.512 C 132.1,46.512 131.819,46.356 131.32,46.949 L 127.262,46.949 C 127.262,46.949 127.355,46.543 126.45,46.574 L 121.705,46.543 C 121.705,46.543 121.081,46.387 120.925,47.042 L 109.438,46.918 C 109.438,46.918 108.844,46.793 108.813,47.729 L 108.657,48.323 C 108.657,48.323 108.501,48.291 108.501,48.135 C 108.501,47.979 108.47,47.573 108.47,47.573 C 108.47,47.573 108.626,47.136 107.814,47.167 L 91.208,47.386 L 72.665,47.386 C 72.666,47.386 72.541,46.855 70.949,46.98 L 50.752,46.949 L 46.194,47.011 C 46.194,47.011 45.258,46.949 45.04,47.448 L 43.291,47.448 C 43.291,47.448 43.479,46.73 41.543,46.855 C 41.543,46.855 41.637,46.48 40.919,46.48 C 40.919,46.48 39.983,46.418 39.639,46.512 C 39.639,46.512 39.233,46.387 39.077,47.042 L 38.796,47.417 L 35.363,47.417 C 35.363,47.417 31.429,47.199 27.715,50.664 C 27.715,50.664 24.5,53.412 24.281,58.126 L 24.468,58.376 L 25.186,58.501 L 24.468,58.563 C 24.468,58.563 24.094,58.532 24.094,59.25 C 24.398,81.555 24.233,104.003 24.375,126.316 C 24.375,126.316 24.406,126.815 24.905,127.002"
         id="path153" /></clipPath><clipPath
       id="clipPath163"><path
         d="M 225.962,365.033 C 225.962,365.033 224.845,365.097 224.813,365.798 L 224.845,367.329 C 224.845,367.329 225.101,368.095 224.494,368.478 C 224.494,368.478 224.271,368.414 224.271,369.562 L 224.59,380.95 L 224.654,386.117 C 224.654,386.117 224.59,386.564 225.26,387.202 L 225.388,387.489 L 225.324,387.808 L 225.356,389.243 C 225.356,389.243 225.26,389.818 226.218,389.818 L 226.952,389.849 L 226.92,390.264 L 226.122,390.296 C 226.122,390.296 225.516,390.136 225.516,391.125 L 225.675,396.133 L 225.675,397.282 C 225.675,397.282 226.25,404.522 232.952,408.063 C 232.952,408.063 235.505,409.658 239.846,409.562 C 240.069,409.53 256.505,409.435 256.505,409.435 L 263.974,409.499 L 264.835,409.754 C 264.835,409.754 264.676,410.455 265.506,410.679 L 266.559,411.189 C 266.559,411.189 268.155,411.986 273.804,411.923 C 273.804,411.923 279.357,411.827 280.314,411.253 L 281.495,410.679 C 281.495,410.679 282.229,410.424 282.229,410.073 L 282.261,409.626 L 282.644,409.467 L 294.166,409.435 C 294.166,409.435 294.261,409.881 295.027,410.136 L 294.996,410.455 L 296.336,411.699 C 296.336,411.699 299.272,412.561 307.857,412.625 C 307.857,412.625 316.155,412.465 319.921,411.476 L 321.262,410.296 L 321.294,409.977 C 321.294,409.977 322.187,409.658 322.187,409.275 C 348.529,409.338 374.903,409.41 401.242,409.275 C 401.242,409.275 405.997,409.499 410.465,404.873 C 410.465,404.873 413.912,401.556 414.008,395.942 C 414.008,395.942 414.104,395.591 414.104,395.463 C 414.104,395.336 414.231,381.588 414.231,381.588 C 414.901,352.654 414.306,323.865 414.391,294.985 C 414.391,294.985 414.199,287.042 406.444,284.331 C 406.444,284.331 404.816,283.374 399.614,283.629 L 399.231,282.896 C 399.231,282.896 398.72,282.481 397.922,282.672 C 397.922,282.672 396.869,282.385 396.486,283.215 L 395.912,283.534 L 378.422,283.47 L 361.252,283.374 L 341.337,283.31 C 341.337,283.31 341.209,282.896 340.634,282.896 L 335.56,282.8 C 335.56,282.8 335.273,282.64 334.762,283.247 L 330.613,283.247 C 330.613,283.247 330.709,282.832 329.783,282.864 L 324.932,282.832 C 324.932,282.832 324.294,282.672 324.134,283.342 L 312.389,283.215 C 312.389,283.215 311.783,283.087 311.751,284.044 L 311.591,284.65 C 311.591,284.65 311.432,284.618 311.432,284.459 C 311.432,284.299 311.4,283.884 311.4,283.884 C 311.4,283.884 311.56,283.438 310.73,283.47 L 293.751,283.693 L 274.793,283.693 C 274.793,283.693 274.665,283.151 273.038,283.278 L 252.388,283.247 L 247.729,283.31 C 247.729,283.31 246.771,283.247 246.548,283.757 L 244.761,283.757 C 244.761,283.757 244.952,283.023 242.973,283.151 C 242.973,283.151 243.069,282.768 242.335,282.768 C 242.335,282.768 241.378,282.704 241.027,282.8 C 241.027,282.8 240.612,282.672 240.452,283.342 L 240.165,283.725 L 236.654,283.725 C 236.654,283.725 232.633,283.502 228.835,287.042 C 228.835,287.042 225.548,289.849 225.324,294.666 L 225.516,294.921 L 226.25,295.049 L 225.516,295.113 C 225.516,295.113 225.133,295.081 225.133,295.814 C 225.444,318.601 225.275,341.536 225.42,364.331 C 225.42,364.331 225.452,364.841 225.962,365.033"
         id="path165" /></clipPath></defs><g
     transform="matrix(1.25,0,0,-1.25,-39.303378,639.61488)"
     id="g11"><path
       d="M 206.20695,479.55508 L 210.99163,479.53406 L 210.99163,502.96476 L 226.26571,479.53406 L 231.4427,479.55508 L 231.40301,510.94624 L 226.61832,510.96492 L 226.63701,487.23999 L 211.22747,510.96492 L 206.18826,510.96492 L 206.20695,479.55508 z M 177.30503,495.0837 C 177.32604,500.9659 180.14921,507.36882 187.40914,507.32446 C 194.7578,507.28009 197.66737,500.72771 197.4432,494.78947 C 197.20735,488.55468 194.18802,483.22124 187.38345,483.20021 C 180.67696,483.18153 177.28635,488.99835 177.30503,495.0837 z M 172.3452,494.73109 C 172.52035,486.45773 177.62026,478.81017 187.40914,478.82418 C 197.09526,478.83819 202.36565,486.47407 202.4614,494.74977 C 202.55947,503.14224 198.10871,511.59308 187.38345,511.69115 C 177.65763,511.77988 172.14905,504.02491 172.3452,494.73109 z M 169.02231,501.10834 C 169.05034,507.63269 164.63927,511.74953 157.26259,511.68648 C 151.71666,511.63745 145.43749,508.97073 145.81579,501.61273 C 146.07031,496.66225 150.56544,494.88754 155.89421,493.79003 C 161.60127,492.61313 165.63637,491.63938 165.26742,487.74906 C 164.93351,484.24169 161.61994,483.18387 157.91409,483.20021 C 153.42364,483.22124 149.36518,485.45596 149.63138,490.52085 L 144.85137,490.53019 C 144.69959,482.90832 149.96764,478.88023 157.83704,478.78915 C 163.38064,478.7261 170.26695,481.37881 170.28562,488.26045 C 170.30664,495.33823 164.05782,496.63656 160.35664,497.59163 C 155.50191,498.84793 150.09841,499.06509 150.85499,503.41778 C 151.38507,506.45579 154.26663,507.37115 157.20888,507.31745 C 160.46405,507.25907 163.63984,506.3764 164.26799,501.10367 L 169.02231,501.10834 z M 123.0973,479.55508 L 144.22323,479.55508 L 144.21388,483.9171 L 128.08747,483.90776 L 128.09214,510.96025 L 123.0973,510.96492 L 123.0973,479.55508 z M 74.435496,505.55442 L 78.897932,493.08249 L 69.907677,493.08249 L 74.435496,505.55442 z M 59.682138,479.55508 L 64.868465,479.55508 L 68.289432,488.72981 L 80.504503,488.74148 L 83.836734,479.55508 L 89.338303,479.55508 L 77.111556,510.96492 L 71.936906,510.96492 L 59.682138,479.55508 z M 58.99561,503.51586 C 57.0341,509.27896 52.802843,511.67013 46.446616,511.67013 C 35.859131,511.67013 31.307961,503.78907 31.445734,494.61201 C 31.583506,485.63342 36.625055,478.87088 45.967913,478.78448 C 53.818624,478.70976 59.014291,483.59485 59.682138,491.98498 L 54.682623,491.98498 C 54.297325,486.95043 51.623601,483.20021 46.290162,483.20021 C 38.995212,483.20021 36.564341,489.71057 36.487281,494.80815 C 36.393876,500.8468 39.037245,507.28009 46.290162,507.28009 C 50.514413,507.28009 53.937716,505.23918 54.446774,500.65298 L 58.99561,503.51586 z M 97.84285,496.73931 L 97.852191,506.85743 L 107.0923,506.85042 C 110.99898,506.85042 112.71063,504.69042 112.60088,501.61273 C 112.46544,497.74108 109.20093,496.70895 105.49507,496.74864 L 97.84285,496.73931 z M 92.798967,479.56208 L 97.84285,479.56208 L 97.852191,492.60146 L 107.1717,492.60146 C 108.36028,490.3177 112.29031,482.41327 113.70072,479.57376 L 119.28869,479.53406 C 117.4416,483.02975 113.03521,491.51562 111.90501,493.57287 C 115.59919,495.43397 117.9063,498.09135 118.01371,502.24788 C 118.14448,507.28943 114.77722,510.94391 108.22951,510.94391 L 92.798967,510.95558 L 92.798967,479.56208"
       id="path93"
       style="fill:#1b62b7;fill-opacity:1;fill-rule:evenodd;stroke:none" /></g></svg>