<?xml version="1.0" encoding="utf-8"?>
<!-- Generator: Adobe Illustrator 22.0.1, SVG Export Plug-In . SVG Version: 6.00 Build 0)  -->
<svg version="1.1" id="Layer_1" xmlns="http://www.w3.org/2000/svg" xmlns:xlink="http://www.w3.org/1999/xlink" x="0px" y="0px"
	 viewBox="0 0 313.3 37.5" style="enable-background:new 0 0 313.3 37.5;" xml:space="preserve">
<style type="text/css">
	.st0{fill:#006A3C;}
</style>
<g>
	<g>
		<g>
			<g>
				<g>
					<g>
						<g>
							<path class="st0" d="M264,36.5h1.9V35H264V36.5z M272.5,33.6h-4l0.2,3.9h3.4c0,0,1.1,0.1,1-1c0,0,0.1-0.7-0.5-0.8
								c0,0,0.8-0.1,0.8-1.1C273.4,34.7,273.5,33.8,272.5,33.6 M271,36.8h-0.6v-0.8h0.7c0,0,0.3,0,0.4,0.3
								C271.5,36.6,271.2,36.7,271,36.8 M271.6,35.1L271.6,35.1c0,0.2-0.4,0.3-0.4,0.3h-0.8v-0.8h0.8
								C271.7,34.6,271.6,35.1,271.6,35.1 M252.4,36.5h1.9V35h-1.9V36.5z M256.9,37.5l4.4,0l0-0.7h-2.8v-0.7h2v-0.7h-2v-0.7h2.9
								l0.1-1h-4.8L256.9,37.5z M248.1,35.4h-1.2l0.1-1.7h-1.9l0.2,3.9h1.6l0-1.3h1.3l0,1.3h1.6l0.2-3.9H248L248.1,35.4z
								 M313.2,11.3l-0.1-0.5l-0.1,0l-1.1-0.1c-0.8-0.1-1.5-0.1-2.3,0c-0.6-0.1-1.2,0.1-1.8,0.2c-0.9,0.2-1.7,0.4-2.3-0.1l-0.1,0
								l-0.7,0.2c-2.9,0.6-2.9,0.6-5.7,0.7l-2,0.1c-1.2,0.1-2.1,0.2-2.9,0.3c-1.3,0.2-2.4,0.4-4.1,0.1c-0.2,0-0.4,0.1-0.6,0.2
								c-0.1,0.1-0.2,0.2-0.3,0.2c0,0-0.1,0-0.2-0.3l-0.1-0.2l-0.2,0.1c-1.6,0.6-2,0.6-3.4,0.5c0,0-0.6,0-0.9-0.1
								c0.1-1.4,0.7-2.1,1.4-2.8c0.4-0.5,0.9-1,1.2-1.7l0-0.1l-0.4-1.3c0,0-0.6,0.6-0.7,0.7c-0.5,0.2-1,0.7-1.6,1.3
								c-0.7,0.7-1.3,1.4-2.1,1.5l-0.1,0l-0.1,0.1c-0.6,1.2-1.4,1.6-2.4,2c-0.4,0.2-0.9,0.4-1.4,0.7c-0.9,0.4-2,0.4-3,0.4
								c-1.1,0-2.1,0.1-3,0.5l0,0l0,0c-0.4,0.3-1,0.3-1.5,0.3c-0.7,0-1.5-0.1-1.8,0.6l-0.1,0.2L269,15c0.9,0.5,2.5,0.4,4.1,0.2
								c1-0.1,2-0.2,2.5-0.1c-0.4,0.2-0.9,0.5-0.9,0.5c-1.4,0.8-3.4,1.9-4.3,1.9h0l0,0c-0.4,0.1-1.5,0.7-2.5,1.3
								c-0.9,0.5-1.7,0.9-2,1l-0.2,0.1c0,0-0.9,0.2-0.9,0.2c-0.6,0.1-1.2,0.3-1.7,0.6c0,0-2.6,1-2.6,1c-1.9,0.8-3.3,1.3-5.5,1.5
								c-1.2,0.3-2.6,0.5-3.6-0.1c0.5-0.5,1.2-0.7,1.9-0.9c1.1-0.3,2.3-0.7,3.1-2.3l0,0l0,0c0.1-1,0.5-0.9,1.1-0.8
								c0.6,0.1,1.4,0.2,1.6-1.3c0,0,0-0.1,0-0.1c0-1.7-0.7-2.2-1.3-2.6c0,0-0.4-0.4-0.5-0.5c0.1-0.3,0.2-0.4,0.3-0.5
								c0.1-0.1,0.3,0,0.4,0.1c0.2,0.1,0.5,0.2,0.8,0.1l0,0l0,0c0.5-0.5,1.2-0.6,2-0.7c0.4-0.1,0.8-0.1,1.1-0.2l0.1,0l0-0.1
								c0.1-0.4,0.4-0.4,0.8-0.3c0.4,0,0.9,0,1.3-0.5l0,0l0,0c0.1-0.6,0.1-1.5-0.1-2.3l0-0.1h-0.1c-2.7-0.1-5.5,1.2-7.4,2.2
								c-1.1,0.2-1.9,0.7-2.8,1.2l-1.2,0.7l0.1,0.2l1.1,1.8l0.1,0c0.5,0.1,0.8,0.4,1.1,0.6c0.3,0.2,0.6,0.4,1,0.5
								c-0.6,1-1.6,1.4-2.6,1.7c-0.5,0.2-1,0.4-1.5,0.6c0,0-1.2,0.7-1.2,0.7c-0.5,0.3-0.5,0.5-0.6,0.8c0,0.2,0,0.3-0.3,0.5
								c-1.1-0.1-2.7,0.3-4.4,0.7c-3.3,0.8-6.9,1.7-8.8-0.1c0-0.1-0.2-0.2-0.2-0.2c-0.2-0.3-0.3-0.5-0.3-0.8c0-0.1,0-0.3,0.1-0.4
								c2.3-0.3,5.1-0.9,8.2-2.8l0,0l0,0c0.5-0.6,0.8-1.3,0.9-2.5c0-0.1,0-0.2,0-0.3c0-0.9-0.2-1.4-0.5-1.8
								c-0.4-0.4-0.9-0.3-1.4-0.3c-0.4,0-0.7,0.1-0.9-0.1l-0.1-0.1l-0.1,0.1c-0.9,0.7-1.7,0.9-2.6,1.1c-1,0.2-2.1,0.5-3.1,1.6
								c-0.5-0.1-1.1,0.3-1.6,0.8c-0.4,0.3-0.8,0.7-1.1,0.7c0,0-0.1,0-0.1-0.1c1-0.9,1.8-2,2.7-3.2c1-1.3,2-2.7,3.2-3.6l0.1-0.1
								c0,0-0.1-0.2-0.1-0.3c0.1-0.1,0.4-0.5,0.4-0.5c0.5-0.6,2.1-2.6,2.4-2.5l0.2,0l0-0.2c0-0.9,0.6-1.4,1.2-1.9
								c0.5-0.4,0.9-0.8,1.1-1.5l0-0.1l0-0.1c-0.1-0.2-0.1-0.5-0.1-0.8c0-0.5,0-1-0.3-1.2c-0.1-0.1-0.2-0.1-0.4,0l0,0l0,0l-0.4,0.3
								c-1.1,0.8-2.3,1.6-2.4,2.4c-0.6,0.6-1.3,1.5-2,2.5c-1.3,1.7-2.8,3.6-3.9,4l0,0l-2.1,2.1c-1.2,0.9-2.4,1.8-3.5,2.7
								c-1.8,1.4-3.4,2.7-4.3,3.1l0,0l0,0c-0.8,1.1-1.6,1.6-2.7,2.2c0,0-1,0.6-1.1,0.7c-0.3,0-0.4,0-0.6,0.1
								c-0.2,0.1-0.2,0.4-0.3,0.6c-0.1,0.4-0.1,0.6-0.5,0.7l0,0l0,0c-0.2,0.1-0.5,0.2-0.8,0.3c-0.4,0.1-0.7,0.2-1,0.4l0,0l0,0
								c-0.7,0.8-1.5,0.8-2.3,0.8c0,0-0.3,0-0.6,0c0-0.2,0-0.6,0-0.6c0-0.3,0.6-1.5,1.7-2.3c0.8-0.7,1-1.3,1-2.1
								c0-0.5-0.1-1.1-0.4-1.7v0l0,0c-0.2-0.2-0.3-0.5-0.4-0.8c-0.2-0.5-0.4-1.1-1-1.1c-0.4-0.3-0.9-0.6-1.3-0.9
								c-0.6-0.3-1.3-0.7-1.6-1.2c0-0.2-0.1-0.4-0.2-0.4c-0.1-0.1-0.3-0.1-0.7,0.1c-0.5,0.3-1.3,1.2-1.3,2.1c0,0,0,0,0,0
								c-1.5,1.1-2.7,2.5-3.8,3.7c-1.4,1.6-2.8,3.1-4.5,4c0,0-1.1,0.5-1.1,0.5c-0.7,0.4-1.3,0.6-2.1,0.7c-0.3-0.1-0.8-1-0.8-1.8
								c0-0.1,0-0.2,0-0.3c0.7-1.9,1.5-2.8,2-3.5l0.5-0.7l0-0.1c-0.1-0.9-0.2-1.1-0.5-1.2c-0.1,0-0.2-0.1-0.3-0.4
								c0.5-0.2,0.7-0.7,1-1.5l0.1-0.1l-0.1-0.1l-0.6-0.5c-0.4-0.4-0.8-0.8-1.3-0.7c-0.2,0-0.4,0.2-0.6,0.5c-0.1,0-1.2,0.1-1.2,0.1
								c-1.6,0.1-3.4,0.2-4.9,1.7c-2.7,1-6.7,5.8-7.4,7.8l0,0l0.3,1.3l0.4,0.4c0.5,0.5,1.2,1.2,2,1.2c0.3,0,0.5-0.2,0.8-0.5
								c0.9,0.3,1.6-0.1,2.2-0.6c0.3-0.2,0.6-0.4,1-0.6l0.1,0l0-0.1c0.2-0.4,0.4-0.4,0.6-0.3c0.2,0,0.4,0.1,0.6-0.1
								c0.2-0.1,0.3-0.4,0.4-0.9c0.6,0.2,1-0.4,1.5-0.9c0.3-0.4,0.6-0.7,0.9-0.8c0.4-0.2,0.5-0.1,0.5-0.1c0,0,0.1,0.1,0.1,0.2
								c0,0.2-0.1,0.6-0.1,0.9c-0.1,0.4-0.1,0.9-0.1,1.3c0,0.4,0.1,0.7,0.2,1c0.6,0.9,1.2,1,1.9,1.1c0.7,0.6,1.7,0.7,2.9,0.4
								c0.7-0.2,1.4-0.6,1.7-1c1.6-0.2,4.1-1.5,5.1-3.3c1.2,0.3,1.8-1.2,2.3-2.5c0.4-1.1,0.9-2.2,1.5-2.1l0.2,0l0-0.2
								c0.2-0.6,0.3-0.7,0.4-0.7c0.1,0,0.3,0.2,0.5,0.4c0.2,0.2,0.4,0.4,0.7,0.4c0,0,0.3,0.2,0.3,0.2c0.3,0.2,0.3,0.2,0.5,0.8
								c0,0,0.1,0.2,0.1,0.3c-1.4,1.9-1.9,3.1-2.3,4.9l0,0v0c0,0.4,0.3,0.8,0.5,1.2c0.2,0.3,0.3,0.6,0.4,0.7l0,0.1l0.1,0
								c0.8,0.8,1.8,1.2,2.7,1.1c0.9-0.1,1.6-0.6,2.3-1.5c0.6,0.1,0.8-0.3,1-0.5c0.1-0.2,0.2-0.3,0.6,0l0.2,0.1l0.1-0.2
								c0.7-1.2,1.2-1.4,1.8-1.6c0.5-0.1,1-0.3,1.6-0.9l0,0l0,0c0.4-1.2,0.7-1.2,1.2-1.2c0.4,0,0.9,0,1.6-0.9
								c0.3-0.4,0.5-0.5,0.8-0.5c0.6-0.1,1.1-0.3,1.2-1.8c0.8-0.4,0.8-0.5,1.5-1.1l0.4-0.3c0,0,0.6-0.6,0.6-0.6
								c0.1-0.1,0.2-0.2,0.3-0.3c0,0,0,0.2,0.1,0.3c0,0.1-0.4,0.8-0.4,0.8c-0.2,0.5-0.2,0.5-0.7,0.8l-0.1,0.1c0,0,0.1,0.3,0.1,0.4
								c-0.1,0.2-2,2.9-2,2.9c-0.2,0.3-0.5,0.7-0.9,1.3c-0.9,1.2-2,2.8-2.2,4l0,0.1l0,0.1l0.3,0.6c0.2,0.5,0.4,1,0.9,1
								c0.1,0,0.3,0,0.4-0.1c0.4-0.3,0.5-1,0.6-1.7c0.7-0.5,1.4-1.6,2.2-2.8c1.2-1.7,2.6-3.7,3.5-3.7c0,0,0,0.1,0,0.1
								c-0.1,0.2-0.2,0.4-0.2,0.9v0v0c0.8,3.4,2.3,5.3,5,6.1l0,0h0c2.5-0.2,5.1-1,7.6-2c0.4,0,1.6,0.2,2.2,0.1c0,0,0.1,0,0.1,0.1
								c0,0,0,0,0,0c0,0.4,0.5,1,0.7,1.2c0.5,0.6,1.3,1.1,1.8,0.8l0,0l0,0c0.5-0.6,1.1-0.4,1.8-0.2c0.4,0.1,0.8,0.2,1.2,0.2h0.1
								l0.1-0.1c1-1,2.1-1.3,3.3-1.6c0.6-0.1,1.2-0.3,1.8-0.5c0.7,0.6,1.4,0.1,2-0.3c0.5-0.3,0.9-0.7,1.4-0.6c0.4,0.1,0.7-0.3,1-0.6
								c0.1-0.2,0.4-0.5,0.5-0.4c0,0,0.1,0,0.2,0.3l0,0.1l0.1,0c0.7,0.1,1.6-0.6,2-1.1c0.2-0.1,0.5-0.1,0.8-0.1c0.4,0,0.8-0.1,1-0.2
								l0,0l0,0c0.7-0.7,2.5-1.6,4.2-2.4c1.4-0.7,2.7-1.4,3.4-1.9c0.3,0.2,0.5,0.2,0.7,0.2c0.1,0,0.1-0.1,0.1-0.1
								c-0.6,0.9-1.1,1.9-1.6,2.8c-0.6,1-1.1,2-1.6,2.7c-0.4,0.6-0.7,1.2-1,1.8c-0.5,1-1,1.9-1.7,2.3l0,0l0,0
								c-0.2,0.2-0.2,0.5-0.2,0.7c0,0.4,0.2,0.8,0.4,1.1c0.2,0.3,0.4,0.6,0.5,0.9l0.1,0.2l0.2-0.1c1.3-0.5,2.4-2,3-4.2
								c0.2-0.3,0.4-0.6,0.7-0.9c0.5-0.6,1.1-1.3,1.3-2.4c0-0.1,0.3-0.5,0.3-0.5c0.4-0.7,0.9-1.4,1.6-1.9l0,0l0,0
								c1.6-2.9,4.2-6,6.4-5.3h0h0c1.3,0,1.8-0.1,2.2-0.2c0.4-0.1,0.6-0.1,1.3,0c0.4,0.1,0.8,0,1.1-0.1c0.6-0.1,1.1-0.3,1.8,0.4
								l0.2,0.2l0.1-0.2c0.4-0.8,0.8-0.6,1.5-0.3c0.4,0.2,0.8,0.3,1.2,0.2l0,0l0,0c1.5-1.2,1.9-1.3,3.8-1l0.1,0l0.1,0
								c0.2-0.1,0.2-0.1,0.3-0.1c0.2,0.1,0.5,0.2,1,0.2l0.1,0l0.1-0.1c0.4-0.5,0.7-0.4,1.1-0.3c0.4,0.1,0.9,0.3,1.4-0.3
								c0,0,0,0,0,0.1v0.2l2.7-0.1l0.5,0.1c0.5,0.1,1.1,0.2,1.7-0.4c0.2,0,0.4,0,0.6,0c0.4-0.1,0.7-0.1,1.1,0.3l0.1,0.2l0.1-0.2
								c0.3-0.4,0.6-0.2,1.1,0.1c0.3,0.2,0.6,0.4,0.9,0.2c0,0,0.9-0.7,0.9-0.7l0.8-0.6c0,0,0,0,0,0l0.1,0l0,0
								C313.5,12.4,313.4,11.8,313.2,11.3 M198.3,17.8c-1.9,1-3.7,2.1-5.4,3.2c-1.2,0.8-2.4,1.6-3.7,2.4c-0.1-0.1-0.1-0.2-0.1-0.3
								c2.1-2.7,4.3-4.7,7.5-6.7c0.1,0.2,0.2,0.3,0.4,0.4c0.3,0.1,0.5-0.1,0.6-0.3c0.3-0.2,0.3-0.2,0.3-0.2l0.1,0.1l0.1,0l0.8-0.1
								c0.4-0.1,0.7-0.1,1,0C199.3,16.6,198.7,17.2,198.3,17.8 M235.2,18c0.6-0.4,1.2-0.6,1.9-0.9c0.8-0.3,1.7-0.6,2.4-1.4
								c0.9,0,1.8,0,2.6-0.4c-0.2,0.5-0.6,0.7-0.9,0.8c-0.3,0.1-0.6,0.3-0.9,0.7c-0.2,0.1-0.4,0.1-0.6,0.1c-0.4,0-0.9,0.1-1.3,0.6
								c-0.9-0.1-1.7,0.1-2.5,0.6C235.9,18.1,235.6,18,235.2,18 M277.1,17c0.1-0.2,0.2-0.4,0.4-0.6c0,0,0,0,0,0
								C277.4,16.6,277.3,16.8,277.1,17 M227,27.8L227,27.8C226.9,27.8,226.9,27.8,227,27.8L227,27.8z M141.5,18.1L141.5,18.1
								L141.5,18.1c0.1-1.8,0.6-2.1,1.1-2.5c0.4-0.2,0.8-0.5,1.1-1.2c0.9-0.1,1.6-1.1,2.2-2.1l0.7-0.9l0-0.1c0-0.1,0-0.2,0-0.2h0.1
								c0.1,0,0.3,0,0.5-0.2l0.1-0.1c0,0-0.1-0.3-0.2-0.4c0.2-0.1,0.4-0.4,0.6-0.6c0.4-0.5,0.8-0.9,1.4-0.8l0.2,0.1l0.1-0.2
								c0.3-0.7,0.8-1.1,1.4-1.5c0.9-0.6,1.8-1.2,2-3.2V4.2l0-0.1c-0.2-0.4-0.2-0.8-0.3-1.3c0-0.5-0.1-1-0.3-1.6l0-0.1l-0.1,0
								c-1-0.2-1.6,0.8-2,1.7c-0.4,0.6-0.7,1.3-1.2,1.5l-0.1,0l0,0.1c-0.3,0.6-0.8,1-1.2,1.4c-0.5,0.4-1,0.8-1.5,1.6
								c-1.4,1-2.6,2.4-3.8,3.7c-1.6,1.8-3.3,3.6-5.4,4.6c-1.4,0.7-2.8,1.7-4.1,2.6c-2,1.4-4,2.7-6,3.3l0,0l0,0
								c-1.9,1.6-2.6,1.9-4.5,2c-0.3-0.1-0.5-0.6-0.5-1.2c0-0.1,0-0.2,0-0.4c0.3-0.5,0.7-0.9,1.2-1.2c0.3-0.3,0.7-0.6,0.9-0.9
								c0.6-0.5,0.8-0.9,0.8-1.3c0-0.3-0.2-0.7-0.4-1c0,0-0.1-0.2-0.2-0.3c0.5-0.2,0.7-0.7,0.9-1.4l0.1-0.1l-0.1-0.1l-0.5-0.3
								c-0.7-0.4-1.5-1-2.2-0.8c-0.2,0.1-0.4,0.2-0.5,0.4c0,0-0.1,0-0.1,0c-1.8,0.3-3.6,0.5-5.3,2.2c-1.3,0.5-2,1.5-2.7,2.5
								c-0.7,1-1.4,1.9-2.5,2.2c-1,0.2-1.9,0.7-2.9,1.2c-0.9,0.5-1.7,0.9-2.5,1.1l-0.1,0l0,0.1c-0.5,0.6-1.6,0.3-2.5,0
								c-0.4-0.1-0.8-0.2-1.2-0.3c0-0.3,0.2-1,0.2-1.1c0.6-0.7,1.1-1,1.7-1.4l0.6-0.4l0-0.1c0.2-0.4,0.2-0.8,0.2-1.2
								c0-0.6-0.2-1.2-0.4-1.9c0,0,0,0,0,0l0,0l0,0c-0.1-1-1.7-1.9-2.7-2.2c0,0-0.6-0.4-0.6-0.4c-1.2-0.8-1.2-0.8-1.3-0.9
								c0-0.1-0.1-0.3-0.3-0.6l-0.1-0.1l-0.2,0.1c-1,0.5-1.2,0.9-1.5,1.5c-0.1,0.3-0.3,0.7-0.6,1.2l-1.4,1.5c-2.8,3-3.9,4.2-6.5,5.8
								c-1.4,0.8-3.5,1.7-4.8-0.2c-0.2-0.5-0.2-1-0.2-1.5c0-0.5,0.1-0.9,0.1-1.4c0,0,0.1-1,0.1-1.2c0.2-0.2,0.4-0.7,0.5-1.2
								c0.1-0.4,0.2-0.8,0.4-1l0,0l0,0c0.4-1.5,1.6-2.7,2.7-3.3c0.7-0.4,1.3-0.5,1.7-0.4l0,0l0,0c0.9-0.2,1.7-0.2,2.5-0.2
								c1.6-0.1,3-0.1,4.6-1c0.1,0,1.8-0.1,2-0.1c0.1,0.1,0.1,0.1,0.2,0.1c0.2,0,0.3-0.2,0.4-0.3c0,0,0.1-0.1,0.1-0.2
								c0,0,0.1,0.1,0.1,0.2l0.1,0.1l0.1,0c2.5-0.5,5-0.7,7.7-0.9l3.1-0.3l0,0c0.4-0.1,0.8-0.1,1.2,0c0.7,0.1,1.4,0.3,1.9-0.5
								l0.1-0.1l-0.5-0.7l-0.1,0c-0.4,0.1-1.2,0.3-1.5,0.1L111,9.4l0,0.3c0,0.3-0.1,0.3-0.3,0.3c-0.1,0-0.3,0-0.4,0.1
								c-0.2,0-1.7-0.2-1.7-0.2h0c-1,0.1-1.8,0.1-2.8,0c-0.9-0.1-1.9-0.1-3.2,0h0l0,0c-0.5,0.3-1.1,0.3-1.8,0.2
								c-0.7-0.1-1.5-0.2-2.2,0.3c-1.4-0.5-2.8-0.3-4.2,0c-1,0.2-2.1,0.3-3.2,0.2c0.4-0.5,1-1.2,1-1.5c0,0,0,0,0-0.1
								c0-0.4-0.7-1.4-1.1-2c-0.1-0.1-0.7-0.2-1-0.2c-0.2,0.1-0.3,0.2-0.4,0.4c-0.3,1-1.3,2-2.1,2.8c0,0-0.7,0.7-0.8,0.8
								c0,0-0.1,0.1-0.1,0.1c-1.2,0.4-2.7,0.9-3.8,0.4l-0.1-0.1l-0.1,0.1c-0.5,0.4-1.2,0.4-1.9,0.4c-0.9,0-1.8,0-2.4,1l-0.1,0.1
								l0.1,0.1c1.1,1.2,2.3,1.1,3.4,1.1c0,0,0.3,0,0.6,0c-1.2,1.2-3.9,3.6-5.2,4.3l0,0l0,0.1c-0.3,0.7-0.8,0.9-1.3,1.2
								c-0.5,0.2-1,0.5-1.4,1.1c-0.6,0.4-1.2,1-1.9,1.7c-1.4,1.5-2.9,3-4.9,2.5h0c0-0.1,0-0.3,0.1-0.5c0-0.2,0.1-0.5,0.1-0.7
								c0-0.2-0.1-0.4-0.2-0.6c0.1-0.4,0.5-1.4,0.6-1.5l0-0.1l0-0.1c0-0.1,0-0.1,0-0.2c0-0.7,0.3-1.2,0.6-1.6c0.3-0.5,0.7-1,0.7-1.8
								c0-0.1,0-0.2,0-0.2c0.1,0,0.2-0.2,0.3-0.3c0.1-0.1,0.1-0.2,0.2-0.2l0.1,0l0-0.1c0-0.1,0-0.1,0-0.2c0-0.7-0.7-1.6-0.9-2
								l-0.2-0.2l-0.1,0.1l-0.3,0.2c-0.3,0.2-0.4,0.3-0.8-0.2l-0.1-0.1l-5.6,4.5c0,0-2.6,2-2.7,2.1c-0.4,0-0.6,0.2-0.9,0.4
								c-0.2,0.1-0.3,0.3-0.5,0.2c-0.1,0-0.2-0.1-0.3-0.3c0.5-1.4,2.1-4.8,2.6-5.3l0.2-0.2L60,15.5c-0.2-0.1-0.3-0.4-0.5-0.8
								c-0.1-0.3-0.3-0.7-0.5-0.9L59,13.6l-0.1,0.1c-3,1.3-7,4.1-9.3,6.2c-1.4,0.4-2.6,1.1-3.8,1.7c-1.2,0.7-2.4,1.3-3.8,1.7
								c0,0-0.5,0.2-0.5,0.2c-0.9,0.4-1.7,0.8-2.6,0.3c0.4-0.6,1-0.9,1.6-1.2c1-0.5,2.1-1,2.6-2.8l0,0l0,0c0-0.1,0-0.1,0-0.2
								c0-0.3,0.1-0.5,0.2-0.7c0.2-0.2,0.5-0.2,0.8-0.2c0.4,0,0.8,0,1.1-0.3c0.2-0.2,0.3-0.5,0.3-1c0-0.1,0-0.1,0-0.2
								c-0.3-1.8-1-2.2-1.7-2.6c0,0-0.5-0.3-0.6-0.4c0-0.4,0.1-0.5,0.2-0.5c0.1-0.1,0.2,0,0.4,0c0.2,0.1,0.5,0.1,0.8,0l0,0l0,0
								c0.4-0.5,1.1-0.7,1.8-0.9c0.3-0.1,0.7-0.2,1-0.4l0.1,0l0-0.1c0.1-0.4,0.3-0.4,0.7-0.4c0.4,0,0.9-0.1,1.1-0.7l0,0v0
								c0-0.6-0.2-1.6-0.6-2.4l-0.1-0.1l-0.1,0c-2.6,0.3-4.6,2-6.2,3.4c-1.4,0.5-2.6,1.4-3.7,2.3l-0.2,0.1l1.5,1.9l0.1,0
								c0.5,0.1,0.8,0.2,1.2,0.4c0.3,0.2,0.6,0.3,1,0.3c-0.4,1.1-1.2,1.6-2.1,2.1c-0.4,0.3-0.9,0.5-1.3,0.8l-0.1,0.1
								c0,0,0,0.5,0,0.6c-0.1,0.1-0.7,0.5-0.7,0.5c-0.6,0.4-1.2,0.9-1.7,1.8l0,0l0,0c0,0.2-0.1,0.5-0.2,0.7
								c-0.2,0.3-0.3,0.7-0.3,1.1c0,0.4,0.2,0.9,0.6,1.5l0,0l0,0c0.2,0.1,0.4,0.3,0.6,0.5c0.4,0.4,0.9,0.9,1.5,0.5l0,0l0,0
								c0.4-0.7,0.9-0.6,1.5-0.5c0.3,0,0.7,0.1,1,0l0.1,0l0-0.1c0.7-1.1,1.9-1.5,3.2-1.9c0.7-0.2,1.4-0.5,2-0.8c0.8,0.6,1.4,0,2-0.5
								c0.4-0.4,0.8-0.8,1.2-0.7c0.4,0.1,0.6-0.3,0.8-0.7c0.1-0.1,0.2-0.4,0.3-0.4c0,0,0.1,0,0.3,0.4l0.1,0.1H51
								c0.6,0,1.3,0,1.7-0.7l0,0v-0.1c0-0.8,1-1.1,1.9-1.3c0,0,0,0,0,0c0,0.4-0.2,1.1-0.4,1.8c-0.3,1.1-0.6,2.3-0.6,3.2
								c0,0.3,0,0.6,0.2,0.9c0.7,1,1.5,2,2.3,1.6l0.1,0l0-0.1c0.1-1.1,0.8-1.7,1.6-2.3c0.6-0.5,1.3-1,1.5-1.8
								c0.1-0.1,0.3-0.1,0.5-0.1c0.3,0,0.5,0,0.7-0.3c0.1-0.1,0.2-0.3,0.2-0.5c0,0,0,0,0,0c0.4-0.1,0.7-0.3,1-0.5
								c0.4-0.3,0.8-0.5,1.2-0.4l0.2,0.1l0-0.2c0-0.2,0.1-0.2,0.4-0.3c0.2,0,0.4-0.1,0.5-0.3c0.1-0.1,0.1-0.2,0.1-0.4
								c0-0.1,0-0.1,0-0.2c0.2-0.1,0.5-0.3,0.9-0.7c0.4-0.4,1.2-1.2,1.5-1.1c-0.1,0.3-0.4,1.1-0.8,1.9c-0.9,1.9-1.6,3.5-1.6,4.4
								c0,0.2,0,0.4,0.1,0.6c0.7,0.9,2.7,2.3,3.6,2.3h0.1l0,0c0.7-0.5,1.1-0.4,1.8-0.3l1.2,0.1l0-0.2c0,0,0.2-0.5,0.3-0.9
								c0,0.1,0.1,0.1,0.1,0.2c0.1,0.2,0.1,0.3,0.3,0.3c0.2,0,0.3-0.1,0.4-0.2l0,0l0,0c0.2-0.8,0.9-1.2,1.7-1.8
								c0.9-0.6,1.9-1.3,2.1-2.5c1.5-0.3,2.7-0.9,3.8-2.4c0.3,0.1,0.5,0.2,0.7,0.1c0.4-0.1,0.7-0.6,0.9-1c0.2-0.5,0.5-0.9,0.9-1
								c-0.1,0.5-0.7,2.3-0.7,2.3l0,1.1c0,1,0,2.2,0.1,3.1l0,0l0,0c0.7,1.4,1.8,2.5,2.7,2.7c0.8,0.7,1.4,0.4,1.9,0.1
								c0.5-0.3,0.8-0.5,1.4,0l0.1,0.1l0.1,0c0.6-0.2,1.9-0.9,2.2-1.7c1.6-0.1,3.9-1.9,4.6-3.6c0.3,0.1,0.6,0.1,0.8,0
								c0.7-0.3,1-1.3,1.4-2.2c0.4-1,0.7-2,1.4-1.9l0.2,0l0-0.2c0.1-0.7,0.3-0.8,0.3-0.9c0.1,0,0.2,0,0.3,0.1
								c0.2,0.1,0.3,0.2,0.5,0.2c0.1,0,0.7,0.4,0.7,0.4c0.5,0.3,1,0.5,1.4,1.3c0,0.7-0.5,1.1-1.1,1.6c-0.7,0.6-1.6,1.3-1.7,2.8l0,0
								l0,0c0,0.1,0,0.1,0,0.2c0,0.2-0.1,0.5-0.1,0.7c-0.1,0.2-0.1,0.4-0.1,0.7c0,0.1,0,0.1,0,0.2l0,0.1l0.1,0
								c1.3,1.1,3.4,2.1,4.9,1.9c0.6-0.1,1-0.4,1.4-0.8c0.4,0.1,0.8-0.2,1-0.4c0.3-0.3,0.5-0.4,0.7-0.2l0,0l0,0
								c1.1,0.2,1.7-0.3,2.3-0.8c0.2-0.2,0.5-0.4,0.8-0.6c0.2,1,1,2.9,1.8,3.1c0.2,0,0.4,0,0.7-0.3c0.9,0.2,1.3-0.1,1.7-0.5
								c0.2-0.2,0.5-0.4,0.9-0.6l0.1,0l0-0.1c0.2-0.4,0.5-0.4,0.9-0.5c0.5-0.1,1.1-0.2,1.3-1.2c0.5,0.1,0.8-0.3,1.1-0.7
								c0.2-0.3,0.4-0.7,0.7-0.8c0.4-0.2,0.5-0.2,0.5-0.2c0.1,0.1,0,0.5,0,0.8c-0.1,0.6-0.1,1.3,0.2,1.9c0,0,0.2,0.3,0.2,0.3
								c0.5,0.6,1.1,1.3,1.8,1.3h0.1l0.1,0c1.5-1.2,4.1-2.5,5.6-2.9c0.6-0.3,1.2-0.7,1.7-1.1c0.9-0.7,1.7-1.3,2.9-1.3h0.2l0-0.2
								c0-0.4,0.2-0.4,0.4-0.4l0.4-0.1c0.2-0.1,0.5-0.4,0.9-0.7l1-0.8c0.8-0.8,1.8-1.4,2.4-1.8c0,0,0.1,0,0.1-0.1
								c-0.9,1.2-2.4,2.9-3.2,3.7l-0.2,0.2c-0.3,0.3-0.8,1.2-1.4,2l-0.8,1.3c-0.2,0.2-0.5,0.4-0.7,0.6c-0.3,0.2-0.6,0.4-0.7,0.7
								c0,0,0,0,0,0.1c0,0.1,0,0.2,0.1,0.3c0.2,0.3,0.3,0.6,0.4,1c0.1,0.3,0.1,0.7,0.4,0.9c0.2,0.2,0.6,0.2,1,0.1l0,0l0.5-0.3
								c0.5-0.4,1.3-1,1.9-1.3l0.1-0.1l0-0.2c0-0.1,0-0.2,0-0.2c0-0.5,0.3-0.6,0.8-0.7c0.4-0.1,0.8-0.2,0.9-0.7l0-0.1l0-0.1
								c-0.1-0.1-0.1-0.2-0.1-0.3c0-0.6,0.7-1.3,1.3-2c0.7-0.8,1.5-1.6,1.5-2.3c0,0,0-0.1,0-0.1c0.1-0.7,0.6-0.9,1.1-1.2
								C141,18.5,141.3,18.4,141.5,18.1 M116.6,21.8c-1.2,1-2.5,2-3.9,2.8c-0.1-0.2-0.5-0.7-0.7-0.9c1.8-2.3,4.3-4.3,7.6-6.4
								c0.1,0.1,0.2,0.3,0.3,0.3c0.2,0,0.4-0.1,0.6-0.3c0.2-0.2,0.3-0.2,0.3-0.2l0.1,0.1l0.1,0l0.8-0.1c0.3-0.1,0.6-0.1,1,0
								c-0.4,0.4-1,0.9-1.4,1.4C119.6,19.3,118.1,20.5,116.6,21.8 M38.4,18.2c0,0,0.1,0,0.1,0c0.1,0,0.3-0.1,0.4-0.3
								c0.1-0.2-0.1-0.4-0.2-0.6l-0.1-0.1l-0.1,0.1c-3.1,1.6-6.3,3.2-9.5,4.5c-0.8,0.2-1.6,0.5-2.5,0.9c-1.5,0.6-3.1,1.2-4.6,1.3h0
								l0,0c-2.9,1.2-6.4,2.3-10,3.2c-0.7,0-1.4,0.1-2,0.2c-1.7,0.3-3.1,0.4-4.8-1.3c0,0,0,0,0,0l0,0c0,0,0,0,0,0
								c-0.2-0.4-0.5-0.6-0.8-0.8C4,25.1,3.9,25,3.9,24.8l0-1c0,0,0-0.1,0-0.1c0-0.1,0-0.3,0-0.5c0-0.2,0-0.4,0-0.5
								c0-0.1,0-0.1,0-0.1h0.3L4,22.3c-0.3-0.5-0.3-0.7-0.3-0.8c0,0,0,0,0,0l0.1-0.1c0.1-0.1,0.4-0.2,0.5-0.6
								c0.3-1.3,1.2-2.7,2.2-3.5l0,0l0,0c0.2-0.3,0.4-0.6,0.7-0.8c0.4-0.4,0.8-0.8,1-1.4c0.1-0.1,0.8-0.4,0.8-0.4
								c2-1.2,4.1-2.4,4.4-3.4c0.7-1,1.3-1.5,2.5-1.2l0.2,0l0.1-0.1c0.1-0.3,0.4-0.4,0.8-0.5l0.4-0.1l0-0.1c0-0.6,0.5-0.7,1.3-0.9
								C19,8,19.4,8,19.7,7.8l0.1,0l0.1-0.3c0.2-0.5,0.3-1.1,0.6-1.1c0.4,0.3,0.9,0.4,1.3,0.3c0.8-0.2,1.4-1,1.9-1.7
								c0.9,0.5,1.5,0.2,2-0.2c0.6-0.4,1-0.7,1.8-0.2l0.1,0.1l0.1-0.1c1.4-0.8,3.2-0.7,4.8-0.7c0,0,0.2,0,0.3,0
								c-0.4,0.9-0.7,1.1-1.1,1.5l-0.7,0.6c0,0,0,0,0.1,0l-0.1,0.1l0,0c-0.3,0.1-0.5,0.3-0.7,0.6C30.2,6.8,30,7,29.7,6.9l-0.1,0
								L29.5,7c-0.4,0.7-1.2,1-1.7,1.2c-0.2,0.1-0.4,0.2-0.5,0.3c-0.6,0.5-1.3,0.8-2,1.1c-0.5,0.2-1.1,0.5-1.5,0.8
								c-0.1,0.1-0.2,0.3-0.2,0.4c0,0.2,0.2,0.4,0.4,0.5c0.1,0.1,0.3,0.2,0.3,0.3l0.1,0.1l0.1,0c1.2-0.2,2.5-0.7,3.7-1.2
								c3.6-1.5,6.3-3.3,8-5.3l0,0l0-0.1c0.1-0.4,0.3-0.7,0.5-0.9c0.2-0.2,0.5-0.5,0.6-0.9l0-0.1l0-0.1c-0.3-0.7-0.7-1-1.1-1.2
								c-0.4-0.2-0.7-0.5-1.1-1.2l0-0.1l0,0C34.1-0.3,33,0,32.1,0.2c-0.4,0.1-0.8,0.2-1.2,0.2l-0.1,0l0,0C29.9,0.7,29,0.9,28,1.1
								c-1.4,0.3-2.8,0.5-4,1.3c-2.1,0.6-4.8,1.5-6.7,2.9c0,0-0.2,0.1-0.2,0.1c-1.1,0.4-2.3,0.8-3,1.9c-3.3,1.4-8.3,5.2-10.9,8.3
								c0,0-0.5,0.5-0.5,0.5c-0.4,0.4-0.9,0.8-0.9,1.6c0,0,0,0.1,0,0.1C1,18,0.8,19,0.6,20l-0.2,1C0.1,21.4,0,21.8,0,22.2
								c0,0.5,0.1,1.1,0.3,1.7c0.1,0.6,0.3,1.3,0.3,2c0,0,0,0.1,0,0.1v0.1l0,0.1c2.6,3.3,4.7,4.7,6.2,4.1c1.2,0.6,2.7,0.4,3.5-0.1
								c1.5,0.1,2.6-0.4,3.6-0.9c1.1-0.5,2.1-1,3.6-0.7l0.1,0l0.1,0c0.9-0.5,2-0.8,3-1.1c1.3-0.3,2.5-0.7,3.5-1.5
								c1-0.2,1.5-0.4,2.1-0.8c0.4-0.2,0.8-0.4,1.4-0.7l0.3-0.1c0.6-0.2,0.9-0.4,1-0.9c0.1,0,0.3-0.1,0.5-0.1
								c0.4-0.1,0.8-0.1,0.9-0.6c0.7,0.1,1.2-0.3,1.6-0.6c0.2-0.2,0.5-0.4,0.7-0.5c0.6-0.3,1.3-0.6,2-0.8
								C36.2,20.4,37.7,19.9,38.4,18.2 M186.2,28c-0.4,0.1-1,0.3-1.3,0.3c0-0.1-0.1-0.2-0.1-0.2c-0.2-0.1-0.4,0-0.6,0.1c0,0,0,0,0,0
								c-0.2-0.1-0.4-0.1-1.3,0.1l-0.3,0.1c-0.8,0.2-2.2,0.5-2.6,0.3c0,0,0,0,0-0.1c0-0.3,0-0.6-0.1-0.9c0-0.3-0.1-0.6-0.1-0.9
								c0-0.2,0-0.4,0.1-0.5l0,0l0-0.1c0-0.3,0.1-0.7,0.3-1.1c0.2-0.5,0.3-0.9,0.3-1.2c0-0.1,0-0.2-0.1-0.3c0-0.1-0.1-0.1-0.2-0.1
								c0.1,0,0.2-0.1,0.2-0.1c0.4,0,0.6-0.7,0.7-1.6l0.2-0.7l0.3-0.7c0.1-0.2,0.2-0.3,0.2-0.4c0,0,0.1-0.1,0.1-0.1
								c0.4-0.5,1.3-1.9,1.4-2.9c0-0.1,0.2-0.6,0.2-0.6c0.1-0.2,0.2-0.6,0.3-0.7c0,0,0,0,0.1,0l0.1,0.1l0.1-0.2l0.4-0.5
								c0.3-0.3,0.6-0.6,0.6-1.4c0-0.1,0.5-0.7,0.5-0.7c0.5-0.7,1.1-1.6,1.4-2.6l0,0l0,0c0-0.1,0-0.2,0-0.3c0-0.5,0.2-0.7,0.4-0.9
								c0.2-0.2,0.4-0.5,0.5-1c0.1,0,0.1,0,0.2-0.1c0.3-0.2,0.4-0.7,0.4-1.3c0.1-0.5,0.1-1.1,0.4-1.2l-0.1-0.4h0.1
								c-0.1,0-0.2-0.3-0.4-0.4c-0.3-0.4-0.6-0.7-0.9-0.7l-0.4,0.1l0,0.1c0,0.1,0,0.1,0,0.1c-0.1,0-0.3,0-0.4-0.1
								c-0.3-0.1-0.5-0.2-0.8,0c-0.1,0.1-0.2,0.2-0.2,0.4c-0.8,0-1.3,0.5-1.8,1c-0.3,0.3-0.6,0.5-1,0.8c-0.2,0.1-0.4,0.3-0.7,0.6
								c-0.4,0.4-0.7,0.7-0.9,0.6l-0.1-0.1l-0.1,0.1c-0.7,0.6-1.4,1-2.1,1.4c-1,0.6-2,1.2-2.8,2.2c-0.9,0.4-1.7,1.1-2.4,1.8
								c0,0-0.9,0.8-1,0.9c-0.7,0-1.2,0.5-1.7,1c-0.7,0.7-1.4,1.3-2.4,0.7c-0.6-0.4-0.7-1-0.7-1.8c0-0.2,0-0.3,0-0.5
								c0-0.2,0-0.4,0-0.6c0-0.2,0-0.4,0-0.6c0.3-0.2,0.4-0.7,0.4-1.1c0-0.4,0-0.8,0.2-0.8l0.1,0l0.1-0.3c0.1-0.6,0.3-1.4,0.3-2.2
								c0-0.3-0.1-0.7-0.1-0.9c0-0.1,0.4-1.1,0.4-1.1l-0.1-0.1c-0.2-0.3-0.5-2.8-0.5-3.9c0-0.3,0-0.5,0.1-0.5l0.1-0.1l0-0.1
								c-0.5-0.8-1-0.9-1.4-0.8c-1.2,0.2-2.4,2.3-2.6,3.5c-0.3,0.8-1,1.2-1.6,1.8c-0.6,0.4-1.2,0.9-1.6,1.5c-1.5,1-2.5,2.5-3.6,4
								c-0.9,1.4-1.9,2.8-3.3,3.8c-1.2,0.4-1.8,1.5-2.4,2.6c-0.5,1.1-1.1,2.2-2.3,2.6c-0.7,0.2-1,0.9-1.3,1.5
								c-0.4,0.8-0.6,1.2-1.2,1l-0.1,0l-0.1,0.1c-0.8,0.9-1.2,1.5-1.6,2.2c-0.4,0.6-0.8,1.3-1.6,2.2c-0.4,0.1-0.6,0.2-0.7,0.4
								c0,0.1-0.1,0.1-0.1,0.2c0,0.1,0,0.2,0,0.2c0,0.1,0,0.1,0,0.2c0,0.1-0.1,0.2-0.2,0.4c-0.5-0.1-0.9,0.4-1.3,0.9
								c-0.3,0.4-0.6,0.9-1.1,1.3l-0.1,0.1l0.1,0.1c0,0.1,0.5,1.2,1.1,1.6c1,0.6,1.8-0.1,2.5-0.7l0.2-0.2c0.9-0.7,1-1.1,1.1-1.5
								c0.1-0.4,0.2-0.6,0.9-1.2l0,0l0,0c0.9-1.3,1.5-1.9,1.8-2l0.1,0l0-0.1c0.2-0.7,0.5-0.8,0.8-1c0.2-0.1,0.5-0.3,0.7-0.6l0,0l0,0
								c0.4-1.2,1.3-1.6,1.4-1.6l0.1,0l0-0.1c0.1-0.4,0.3-0.6,0.6-0.8c0.3-0.2,0.8-0.5,1-1.3c0.6-0.1,0.9-0.6,1.2-1
								c0.2-0.3,0.4-0.6,0.6-0.6c0.6-0.3,0.7-0.7,0.7-1c0.1-0.4,0.1-0.7,0.7-0.8c0.5-0.1,0.7-0.5,1-0.9c0.2-0.3,0.4-0.6,0.7-0.7
								l0.1,0l0.4-0.6c0.1-0.1,0.2-0.1,0.5-0.6c0.6-0.2,0.8-0.7,1.1-1.1c0.3-0.5,0.4-0.6,0.6-0.5l0.1,0l0.1,0
								c0.8-0.5,1.2-1.2,1.5-1.8c0.4-0.7,0.6-1.1,1.3-1.1h0.1l0.5-0.9c0.3-0.7,1-1.9,1.3-2.1c-0.1,0.6-0.1,1.7-0.1,2.7
								c0,0.7,0,1.4,0.1,1.9l0,0.1l0,0c0.1,0.1,0.1,0.2,0.1,0.3c0,0.2-0.1,0.5-0.2,0.8c-0.1,0.3-0.3,0.6-0.3,1c0,0.1,0,0.3,0.1,0.4
								l0,0l0,0c0,0,0,0,0,0c0.4,2.3,1,3.9,2,5l0.1,0.1l0.1,0c0.7,0,2.7-0.3,3.2-1.5c0.2,0.1,0.6,0.3,0.6,0.3l0.1-0.2
								c0.3-0.7,0.8-0.7,1.3-0.7c0.4,0,0.8,0,1.2-0.3l0,0l0,0c0.3-0.6,0.6-0.7,1-0.7c0.3-0.1,0.7-0.1,1-0.6c0,0,0.6-1,0.6-1
								c0.5-0.9,0.9-1.4,1.6-1.3l0.1,0l0.1-0.1c1.6-2.1,3.4-3.1,5.3-4c0,0,0.3-0.2,0.6-0.3c-0.7,1.3-1.5,2.7-2.4,4.1
								c-0.8,1.2-1.6,2.5-2.3,3.8c-0.1,0.4-0.4,0.8-0.5,1.1c-0.2,0.4-0.4,0.7-0.4,0.9c0,0,0,0.1,0,0.1l0.2,0.2c0,0,0,0.1,0,0.3
								c0,0.1,0,0.1,0,0.2c0,0,0,0-0.1,0c-0.2,0-0.3,0-0.4,0.1c-0.2,0.2-0.3,0.5-0.3,0.9c0,0,0,0.3,0,0.3c0,0-0.3,0.4-0.3,0.4
								c-0.3,0.4-0.5,0.8-0.5,1.1c0,0.1,0,0.2,0.1,0.3c0,0.1,0.1,0.3,0.1,0.5c0,0,0,0.1,0,0.1c-0.1,0-0.2,0-0.3,0.1
								c-0.3,0.3-0.4,1.5-0.4,2.3c0,0.3,0,0.5,0.1,0.7c0,0-0.1,2.2-0.1,2.2c0,0,0,0,0,0.1c0,1.4,1.7,2.2,2.5,2.3c0,0,0,0,0,0l0.1,0
								c0,0,0,0,0,0c0.6,0.3,2.4,0.1,3.5-0.5l0,0l0,0c0.2-0.2,2-1.3,4.1-2.5c0.2-0.1,0.1-0.3,0.1-0.3C187.1,27.7,187,27.7,186.2,28
								 M279.6,24.5c-1,0-1.9,0.8-1.9,1.9c0,1.1,0.9,1.9,1.9,1.9c1,0,1.9-0.8,1.9-1.9C281.5,25.3,280.7,24.5,279.6,24.5 M279.6,27.9
								c-0.9,0-1.5-0.7-1.5-1.6c0-0.9,0.7-1.5,1.5-1.5c0.8,0,1.5,0.7,1.5,1.5C281.2,27.2,280.5,27.9,279.6,27.9 M280.5,25.9
								c0-0.4-0.3-0.6-0.8-0.6h-0.8v2.2h0.3v-0.9h0.4l0.6,0.9h0.4l-0.6-0.9C280.3,26.4,280.5,26.3,280.5,25.9 M279.3,26.2v-0.7h0.4
								c0.2,0,0.5,0.1,0.5,0.3c0,0.3-0.2,0.4-0.5,0.4L279.3,26.2L279.3,26.2z"/>
						</g>
					</g>
				</g>
			</g>
		</g>
	</g>
</g>
</svg>
