<?xml version="1.0" encoding="UTF-8"?>
<!-- Generator: Adobe Illustrator 19.2.1, SVG Export Plug-In . SVG Version: 6.00 Build 0)  -->
<svg version="1.1" id="Layer_1" xmlns="http://www.w3.org/2000/svg" xmlns:xlink="http://www.w3.org/1999/xlink" x="0px" y="0px" viewBox="0 0 175 36" style="enable-background:new 0 0 175 36;" xml:space="preserve">
<style type="text/css">
	.st0{fill:#AE132A;}
</style>
<g>
	<path class="st0" d="M28.9,29.8c-0.2,0-0.3-0.1-0.4-0.3c-0.1-0.2,0-0.4,0.2-0.5l1.5-1.1V9.5l-1.6-1.1c-0.1-0.1-0.2-0.3-0.2-0.5   c0.1-0.2,0.2-0.3,0.4-0.3h17.3c0.2,0,0.4,0.2,0.4,0.4v3c0,0.2-0.1,0.3-0.3,0.4c-0.1,0-0.1,0-0.2,0c-0.1,0-0.2,0-0.3-0.1L44,9.4   h-9.3v7.8h5.9l1.9-1.9c0.1-0.1,0.2-0.1,0.3-0.1c0.1,0,0.1,0,0.2,0c0.2,0.1,0.3,0.2,0.3,0.4v5c0,0.2-0.1,0.3-0.3,0.4   c-0.1,0-0.1,0-0.2,0c-0.1,0-0.2,0-0.3-0.1l-1.9-1.9h-5.9v8.7H44l1.9-1.9c0.1-0.1,0.2-0.1,0.3-0.1c0.1,0,0.1,0,0.2,0   c0.2,0.1,0.3,0.2,0.3,0.4v3c0,0.2-0.2,0.4-0.4,0.4H28.9z"/>
	<path class="st0" d="M86.1,29.8c-0.2,0-0.3-0.1-0.4-0.3c-0.1-0.2,0-0.4,0.2-0.5l1.5-1.1V9.4h-5.2l-1.9,1.9   c-0.1,0.1-0.2,0.1-0.3,0.1c-0.1,0-0.1,0-0.2,0c-0.2-0.1-0.3-0.2-0.3-0.4V8c0-0.2,0.2-0.4,0.4-0.4h19.1c0.2,0,0.4,0.2,0.4,0.4v3   c0,0.2-0.1,0.3-0.3,0.4c-0.1,0-0.1,0-0.2,0c-0.1,0-0.2,0-0.3-0.1L97,9.4h-5.2v18.4l1.5,1.1c0.1,0.1,0.2,0.3,0.2,0.5   c-0.1,0.2-0.2,0.3-0.4,0.3H86.1z"/>
	<path class="st0" d="M155,29.8c-0.2,0-0.3-0.1-0.4-0.3c-0.1-0.2,0-0.4,0.2-0.5l1.5-1.1V9.4l-1.5-1.1c-0.1-0.1-0.2-0.3-0.2-0.5   c0.1-0.2,0.2-0.3,0.4-0.3h7.2c0.2,0,0.3,0.1,0.4,0.3c0.1,0.2,0,0.4-0.2,0.5l-1.5,1.1v18.4h9.3L172,26c0.1-0.1,0.2-0.1,0.3-0.1   c0.1,0,0.1,0,0.2,0c0.2,0.1,0.3,0.2,0.3,0.4v3c0,0.2-0.2,0.4-0.4,0.4H155z"/>
	<path class="st0" d="M15,30c-6,0-13-3-13-11.4C2,12.2,7.6,7.3,15.1,7.3c3.3,0,6.5,1.1,7.4,1.4c0.2,0.1,0.3,0.2,0.3,0.4v3.2   c0,0.2-0.1,0.3-0.3,0.4c0,0-0.1,0-0.2,0c-0.1,0-0.2,0-0.3-0.1c-1.5-1.6-4.4-3.4-7-3.4c-4.8,0-7.6,3.4-7.6,9.5c0,6,2.7,9.3,7.6,9.3   c3.5,0,5-1.6,6.9-4.2c0.1-0.1,0.2-0.2,0.3-0.2c0,0,0.1,0,0.1,0c0.2,0.1,0.3,0.2,0.3,0.4v3.3c0,0.1-0.1,0.2-0.1,0.3   C20.6,29.3,18.3,30,15,30"/>
	<path class="st0" d="M143.8,29.8c-0.1,0-0.3-0.1-0.4-0.2c-0.1-0.1-0.1-0.3,0-0.4l0.7-1.3l-2-4.8h-7.7l-2,4.8l0.1,0.2   c0,0,0.6,1.1,0.6,1.1c0.1,0.1,0.1,0.3,0,0.4c-0.1,0.1-0.2,0.2-0.4,0.2h-4.3c-0.2,0-0.3-0.1-0.4-0.3c-0.1-0.2,0-0.3,0.1-0.5l1.3-1.2   l7.3-17.4l-1-2.4c-0.1-0.1,0-0.3,0-0.4c0.1-0.1,0.2-0.2,0.4-0.2h4.3c0.2,0,0.4,0.1,0.4,0.3c0,0.2,0,0.4-0.2,0.5l-0.3,0.2l8.1,19.4   l1.5,1.1c0.1,0.1,0.2,0.3,0.2,0.5c-0.1,0.2-0.2,0.3-0.4,0.3H143.8z M135.2,21.3h6.2l-3.1-7.4L135.2,21.3z"/>
	<path class="st0" d="M105,29.8c-0.2,0-0.3-0.1-0.4-0.3c-0.1-0.2,0-0.4,0.2-0.5l1.5-1.1V9.5l-1.6-1.1c-0.1-0.1-0.2-0.3-0.2-0.5   c0.1-0.2,0.2-0.3,0.4-0.3h8.3c7.8,0,8.9,3.9,8.9,6.2c0,1.9-0.7,4.3-4.2,5.7l-0.5,0.2l4.6,8.3l1.5,1.1c0.1,0.1,0.2,0.3,0.2,0.5   c-0.1,0.2-0.2,0.3-0.4,0.3h-4.9c-0.2,0-0.3-0.1-0.4-0.2l-5.2-9.3l-0.3,0c-0.3,0-0.5,0-0.8,0h-1.3v7.6l1.5,1.1   c0.1,0.1,0.2,0.3,0.2,0.5c-0.1,0.2-0.2,0.3-0.4,0.3H105z M110.7,18.2h1.8l0.1,0c0,0,0,0,0.1,0c0.5,0,1.1-0.1,1.7-0.2   c0,0,0.2,0,0.2,0c0.8-0.2,1.3-0.6,1.5-0.8c0.9-0.7,1.3-1.9,1.3-3.6c0-2.7-1.4-4.1-4-4.1h-2.6V18.2z"/>
	<path class="st0" d="M75.3,7.9c-0.1-0.2-0.2-0.3-0.4-0.3h-5.3c-0.2,0-0.3,0.1-0.4,0.3c-0.1,0.2,0,0.4,0.2,0.5l1.5,1.1l0,2.4v11.7   L57.5,7.7c-0.1-0.1-0.2-0.1-0.3-0.1h-4.8c-0.2,0-0.3,0.1-0.4,0.2c-0.1,0.1,0,0.3,0.1,0.4l2.3,2.8v1.8h0l0,15L52.8,29   c-0.1,0.1-0.2,0.3-0.2,0.5c0.1,0.2,0.2,0.3,0.4,0.3h5.3c0.2,0,0.3-0.1,0.4-0.3c0.1-0.2,0-0.4-0.2-0.5L57,27.9l0-13.6l12.8,15.4   c0.1,0.1,0.2,0.2,0.3,0.2h3c0.2,0,0.4-0.2,0.4-0.4V9.4l1.5-1.1C75.3,8.2,75.3,8,75.3,7.9"/>
</g>
</svg>