<?xml version="1.0" encoding="UTF-8"?><svg id="_レイヤー_2" xmlns="http://www.w3.org/2000/svg" viewBox="0 0 376.35 195.12"><defs><style>.cls-1{fill:#e60039;}.cls-2{fill:#231815;}</style></defs><g id="LOGO"><g><g><path class="cls-2" d="m198.09,69.45h25.56c-4.63,17.94-21.64,31-41.29,29.67-19.61-1.33-35.48-17.17-36.84-36.78-1.6-23.15,16.77-42.5,39.59-42.5,12.63,0,24.18,5.91,31.56,15.62,1.14,1.51,3.55.68,3.55-1.21V14.54c0-2.01-1-3.89-2.68-4.98C206.97,2.7,194.2-.79,180.82.15c-31.28,2.2-55.16,27.89-55.23,59.24-.07,32.91,26.7,59.7,59.59,59.66,33.01-.04,59.57-26.75,59.57-59.53l-.11-5.95c0-2.19-1.78-3.97-3.97-3.97h-42.58c-5.48,0-9.92,4.44-9.92,9.92h0c0,5.48,4.44,9.92,9.92,9.92Z"/><path class="cls-2" d="m345.39,95.61c-3.18-3.53-8.37-4.2-12.47-1.81-6.03,3.52-12.92,5.41-20.02,5.41-22.83,0-41.22-19.38-39.58-42.56,1.41-19.92,17.81-35.87,37.76-36.77,13.58-.61,25.76,5.65,33.36,15.59,1.16,1.52,3.58.74,3.58-1.18V14.63c0-2-.99-3.88-2.66-4.97-10.68-6.98-23.72-10.63-37.65-9.44-29.87,2.55-52.88,26.55-54.27,56.5-1.58,34.1,25.71,62.34,59.46,62.34,10.74,0,21.17-2.88,30.27-8.27,5.36-3.17,6.47-10.46,2.3-15.09l-.09-.1Z"/><path class="cls-2" d="m114.68,95.61c-3.18-3.53-8.37-4.2-12.47-1.81-6.03,3.52-12.92,5.41-20.02,5.41-22.83,0-41.22-19.38-39.58-42.56,1.41-19.92,17.81-35.87,37.76-36.77,13.58-.61,25.76,5.65,33.36,15.59,1.16,1.52,3.58.74,3.58-1.18V14.63c0-2-.99-3.88-2.66-4.97C103.96,2.68,90.92-.97,77,.22,47.12,2.77,24.12,26.77,22.73,56.72c-1.58,34.1,25.71,62.34,59.46,62.34,10.74,0,21.17-2.88,30.27-8.27,5.36-3.17,6.47-10.46,2.3-15.09l-.09-.1Z"/></g><path class="cls-1" d="m188.17,195.12c-37.5,0-74.22-4.54-106.19-13.12-31.89-8.56-58.46-20.96-76.84-35.88-5.96-4.83-6.87-13.58-2.03-19.54,4.83-5.96,13.58-6.87,19.54-2.03,32.52,26.39,95.95,42.79,165.53,42.79s133.01-16.39,165.53-42.79c5.96-4.83,14.7-3.92,19.54,2.03,4.83,5.96,3.92,14.7-2.03,19.54-18.38,14.92-44.95,27.32-76.84,35.88-31.98,8.58-68.7,13.12-106.19,13.12Z"/></g></g></svg>