<?xml version="1.0" encoding="UTF-8" standalone="no"?>
<svg
   xmlns="http://www.w3.org/2000/svg"
   xmlns:dc="http://purl.org/dc/elements/1.1/"
   xmlns:cc="http://creativecommons.org/ns#"
   xmlns:rdf="http://www.w3.org/1999/02/22-rdf-syntax-ns#"
   width="200"
   height="53.847603">
  <title>Cnova</title>
  <metadata>
    <rdf:RDF>
      <cc:Work
         rdf:about="">
        <dc:format>image/svg+xml</dc:format>
        <dc:type
           rdf:resource="http://purl.org/dc/dcmitype/StillImage" />
        <dc:title>Cnova</dc:title>
      </cc:Work>
    </rdf:RDF>
  </metadata>
  <g transform="translate(-164.2673,-478.00604)">
    <g transform="matrix(0.56831245,0,0,0.56831245,70.912148,229.5946)">
      <g
         style="fill:#e7571a;fill-opacity:1;stroke:none">
        <path
           style="fill:#e7571a"
           d="m 245.9548,501.35364 c -8e-5,2.91669 -0.72925,6.08335 -2.1875,9.5 -1.41675,3.37501 -3.66675,6.70834 -6.75,10 -3.08341,3.25 -7.0209,5.89583 -11.8125,7.9375 -4.79173,2.04166 -10.37505,3.0625 -16.75,3.0625 -4.83338,0 -9.2292,-0.45834 -13.1875,-1.375 -3.95836,-0.91667 -7.56253,-2.33333 -10.8125,-4.25 -3.20835,-1.95833 -6.16668,-4.52083 -8.875,-7.6875 -2.41668,-2.87499 -4.47918,-6.08332 -6.1875,-9.625 -1.70834,-3.58331 -3.00001,-7.39581 -3.875,-11.4375 -0.83334,-4.04163 -1.25,-8.33329 -1.25,-12.875 0,-7.37495 1.0625,-13.97911 3.1875,-19.8125 2.16666,-5.83326 5.24999,-10.81243 9.25,-14.9375 3.99998,-4.16658 8.68748,-7.33325 14.0625,-9.5 5.37497,-2.16658 11.10413,-3.24991 17.1875,-3.25 7.41661,9e-5 14.02077,1.47926 19.8125,4.4375 5.79159,2.95842 10.22909,6.62508 13.3125,11 3.08325,4.3334 4.62492,8.43757 4.625,12.3125 -8e-5,2.12506 -0.75008,4.00006 -2.25,5.625 -1.50008,1.62506 -3.31258,2.43756 -5.4375,2.4375 -2.37507,6e-5 -4.16674,-0.56244 -5.375,-1.6875 -1.16674,-1.12494 -2.47924,-3.06244 -3.9375,-5.8125 -2.41673,-4.5416 -5.2709,-7.93743 -8.5625,-10.1875 -3.25006,-2.24992 -7.27088,-3.37492 -12.0625,-3.375 -7.62504,8e-5 -13.70837,2.89591 -18.25,8.6875 -4.50002,5.79173 -6.75002,14.02089 -6.75,24.6875 -2e-5,7.12504 0.99998,13.06253 3,17.8125 1.99997,4.70835 4.8333,8.22918 8.5,10.5625 3.66663,2.33335 7.95829,3.50001 12.875,3.5 5.33328,10e-6 9.83328,-1.31249 13.5,-3.9375 3.70827,-2.66665 6.49993,-6.56248 8.375,-11.6875 0.7916,-2.41664 1.77076,-4.37497 2.9375,-5.875 1.16659,-1.54163 3.04159,-2.31247 5.625,-2.3125 2.20825,3e-5 4.10409,0.77087 5.6875,2.3125 1.58325,1.5417 2.37492,3.45836 2.375,5.75" />
      </g>
      <g
         style="fill:#294997;fill-opacity:1;stroke:none">
        <path
           style="fill:#294997"
           d="m 253.15361,464.58847 17.01,0 0,9.072 0.378,0 c 2.268,-3.78 5.166,-6.426 8.82,-8.19 3.528,-1.764 7.308,-2.646 11.088,-2.646 4.78799,0 8.694,0.756 11.718,2.016 3.024,1.26 5.544,3.15 7.308,5.418 1.764,2.268 2.898,5.166 3.654,8.442 0.756,3.276 1.134,6.93 1.134,10.962 l 0,40.068 -17.892,0 0,-36.792 c 0,-5.292 -0.882,-9.324 -2.52,-11.97 -1.764,-2.646 -4.662,-4.032 -8.946,-4.032 -4.914,0 -8.442,1.512 -10.584,4.41 -2.268,2.898 -3.276,7.68601 -3.276,14.238 l 0,34.146 -17.892,0 0,-65.142" />
        <path
           style="fill:#294997"
           d="m 338.84211,497.22247 c 0,2.646 0.252,5.166 0.756,7.686 0.504,2.52 1.26,4.662 2.52,6.678 1.26,2.016 2.898,3.528 4.914,4.662 2.016,1.26 4.536,1.764 7.56,1.764 3.024,0 5.544,-0.504 7.56,-1.764 2.016,-1.134 3.654,-2.646 4.914,-4.662 1.26,-2.016 2.016,-4.158 2.646,-6.678 0.504,-2.52 0.756,-5.04 0.756,-7.686 0,-2.52 -0.252,-5.166 -0.756,-7.686 -0.504,-2.52 -1.386,-4.662 -2.646,-6.678 -1.26,-1.89 -2.898,-3.402 -4.914,-4.662 -2.016,-1.26 -4.536,-1.764 -7.56,-1.89 -3.024,0 -5.544,0.63 -7.56,1.89 -2.016,1.26 -3.654,2.772 -4.914,4.662 -1.26,2.016 -2.016,4.158 -2.52,6.678 -0.504,2.52 -0.756,5.166 -0.756,7.686 m -17.892,0 c 0,-5.166 0.756,-9.82801 2.394,-14.112 1.512,-4.284 3.78,-7.812 6.804,-10.836 2.898,-3.024 6.426,-5.292 10.584,-6.93 4.032,-1.638 8.694,-2.52 13.86,-2.52 5.03999,0 9.702,0.882 13.86,2.52 4.158,1.638 7.686,3.906 10.71,6.93 2.898,3.024 5.166,6.552 6.804,10.836 1.512,4.28399 2.394,8.946 2.394,14.112 0,5.29199 -0.882,9.954 -2.394,14.112 -1.638,4.28399 -3.906,7.812 -6.804,10.836 -3.024,3.024 -6.552,5.292 -10.71,6.804 -4.158,1.638 -8.82001,2.394 -13.86,2.394 -5.166,0 -9.828,-0.756 -13.86,-2.394 -4.158,-1.512 -7.686,-3.78 -10.584,-6.804 -3.024,-3.024 -5.292,-6.55201 -6.804,-10.836 -1.638,-4.158 -2.394,-8.82001 -2.394,-14.112" />
        <path
           style="fill:#294997"
           d="m 431.02945,529.73047 -19.908,0 -22.302,-65.142 18.774,0 13.734,44.478 0.252,0 13.734,-44.478 17.766,0 -22.05,65.142" />
        <path
           style="fill:#294997"
           d="m 454.69839,484.62247 c 0.252,-4.158 1.26,-7.686 3.15,-10.458 1.764,-2.772 4.158,-4.914 7.056,-6.678 2.772,-1.638 6.048,-2.772 9.576,-3.528 3.528,-0.756 7.182,-1.134 10.836,-1.134 3.276,0 6.552,0.252 9.954,0.756 3.276,0.504 6.426,1.386 9.198,2.646 2.772,1.386 5.04,3.276 6.804,5.67 1.764,2.394 2.646,5.544 2.646,9.45 l 0,33.894 c 0,3.024 0.126,5.796 0.504,8.442 0.252,2.772 0.882,4.788 1.764,6.048 l -18.144,0 c -0.378,-1.008 -0.63,-2.016 -0.882,-3.024 -0.252,-1.008 -0.378,-2.142 -0.378,-3.276 -2.898,3.024 -6.3,5.04 -10.08,6.174 -3.906,1.26 -7.812,1.764 -11.844,1.764 -3.15,0 -6.048,-0.378 -8.694,-1.134 -2.772,-0.756 -5.04,-1.89 -7.056,-3.528 -2.016,-1.512 -3.654,-3.528 -4.788,-6.048 -1.134,-2.394 -1.638,-5.292 -1.638,-8.694 0,-3.654 0.63,-6.678 1.89,-9.072 1.26,-2.394 3.024,-4.284 5.04,-5.796 2.016,-1.386 4.41,-2.394 7.056,-3.15 2.646,-0.756 5.292,-1.26 8.064,-1.764 2.646,-0.378 5.292,-0.756 7.938,-1.008 2.52,-0.252 4.914,-0.63 6.93,-1.134 2.016,-0.378 3.528,-1.134 4.788,-2.142 1.134,-1.008 1.638,-2.394 1.638,-4.284 0,-1.89 -0.378,-3.402 -1.008,-4.536 -0.63,-1.134 -1.512,-2.016 -2.52,-2.646 -1.008,-0.63 -2.268,-1.008 -3.654,-1.26 -1.386,-0.252 -2.898,-0.252 -4.41,-0.378 -3.528,0 -6.3,0.756 -8.316,2.268 -2.016,1.512 -3.276,4.032 -3.528,7.56 l -17.892,0 m 41.328,13.23 c -0.756,0.756 -1.764,1.26 -2.898,1.638 -1.134,0.378 -2.394,0.63 -3.654,0.882 -1.26,0.252 -2.646,0.504 -4.032,0.63 -1.512,0.252 -2.898,0.378 -4.284,0.63 -1.386,0.252 -2.772,0.63 -4.032,1.008 -1.26,0.504 -2.394,1.008 -3.402,1.764 -1.008,0.756 -1.764,1.638 -2.268,2.646 -0.63,1.134 -0.882,2.52 -0.882,4.158 0,1.638 0.252,3.024 0.882,4.032 0.504,1.134 1.386,2.016 2.394,2.646 1.008,0.63 2.142,1.008 3.528,1.26 1.26,0.252 2.646,0.378 4.158,0.378 3.528,0 6.174,-0.504 8.19,-1.764 1.89,-1.134 3.276,-2.52 4.284,-4.158 0.882,-1.638 1.386,-3.276 1.638,-5.04 0.252,-1.638 0.252,-3.024 0.378,-4.032 l 0,-6.678" />
      </g>
    </g>
  </g>
</svg>
