<?xml version="1.0" encoding="utf-8"?>
<!-- Generator: Adobe Illustrator 16.0.0, SVG Export Plug-In . SVG Version: 6.00 Build 0)  -->
<!DOCTYPE svg PUBLIC "-//W3C//DTD SVG 1.1//EN" "http://www.w3.org/Graphics/SVG/1.1/DTD/svg11.dtd">
<svg version="1.1" id="Ebene_1" xmlns="http://www.w3.org/2000/svg" xmlns:xlink="http://www.w3.org/1999/xlink" x="0px" y="0px"
	 width="1200px" height="598.564px" viewBox="0 0 1200 598.564" enable-background="new 0 0 1200 598.564" xml:space="preserve">
<rect fill="#FFDC0A" width="1200.129" height="600.064"/>
<g>
	<path fill="#050606" d="M954.681,146.188c1.617,5.669,2.695,18.639,2.695,31.598v159.907h36.734v-99.132
		c8.099-7.294,19.726-12.692,28.632-12.692c10.26,0,14.049,5.133,14.049,18.908v92.92h35.387v-96.698
		c0-13.239-0.813-17.825-3.516-25.658c-4.313-12.158-18.365-19.717-35.922-19.717c-14.045,0-29.711,5.938-39.161,14.853
		c0-1.621,0.535-7.294,0.535-11.614v-27.554c0-13.229-0.805-26.198-2.422-33.758L954.681,146.188L954.681,146.188L954.681,146.188z
		 M932.53,211.28c-5.946-5.133-8.376-7.017-13.51-9.724c-7.567-4.051-17.561-6.212-26.745-6.212c-11.61,0-25.12,4.052-34.301,10.264
		c-16.208,11.075-28.358,32.144-28.358,64.015c0,44.833,22.144,71.305,60.229,71.305c13.239,0,24.041-2.97,33.766-8.642
		c4.859-2.97,7.293-4.86,12.692-10.26l-16.479-21.885l-2.156,1.895c-8.911,7.833-16.479,11.345-24.854,11.345
		c-6.207,0-12.415-2.973-16.205-7.832c-4.586-5.938-7.02-16.752-7.02-34.844c0-32.414,7.293-46.462,23.498-46.462
		c6.751,0,14.588,4.055,21.878,10.806L932.53,211.28L932.53,211.28L932.53,211.28z M731.305,253.426v-0.543
		c0-19.178,7.829-29.983,21.604-29.983c7.29,0,12.423,2.703,15.939,8.102c3.238,5.134,4.32,10.537,4.32,20.8v1.617h-41.864V253.426
		L731.305,253.426z M795.038,300.692c-11.063,9.181-22.682,13.771-35.104,13.771c-18.635,0-29.176-12.158-29.176-33.496v-1.078
		h79.954c0-2.431,0-5.399,0-8.372c0-28.905-5.68-47.54-18.369-60.507c-8.915-9.181-24.042-14.583-39.98-14.583
		c-18.361,0-32.137,5.938-43.485,18.635c-12.153,13.509-17.283,29.983-17.283,54.834c0,43.488,25.659,71.578,65.37,71.578
		c19.443,0,36.191-6.212,52.127-19.175L795.038,300.692L795.038,300.692L795.038,300.692z"/>
	<path fill="#E3101B" d="M677.01,199.404h-32.421c0-14.049,0.816-29.175,2.164-41.872l-36.734,9.185
		c-1.352,10.263-1.352,19.178-1.352,32.688h-13.775v24.847h13.775v75.09c0,12.692,0.266,15.396,2.426,21.338
		c4.321,12.154,18.912,20.257,37.277,20.257c9.45,0,18.904-1.896,29.438-6.216l-4.591-21.608c-6.481,1.896-9.724,2.704-12.962,2.704
		c-12.428,0-15.67-4.591-15.67-22.151v-69.413h23.229L677.01,199.404L677.01,199.404L677.01,199.404z"/>
	<path fill="#050606" d="M392.046,205.882c3.78,6.75,5.129,15.399,5.129,35.387v96.428h35.387V236.947
		c7.833-7.024,17.018-10.532,23.77-10.532c9.994,0,12.421,4.047,12.421,21.338v89.943h34.305v-99.405
		c7.833-7.017,17.291-11.61,24.043-11.61c9.444,0,11.341,3.242,11.341,19.721v91.295h35.111v-98.323
		c0-18.904-2.428-27.011-10.261-33.765c-6.214-5.399-16.479-8.642-27.284-8.642c-15.128,0-26.474,5.133-39.163,18.096
		c-1.621-2.431-3.514-4.86-5.405-6.751c-7.294-7.563-16.746-11.345-28.087-11.345c-12.695,0-24.311,4.863-33.764,14.044
		c-1.354-7.024-2.43-10.263-4.866-14.044L392.046,205.882L392.046,205.882L392.046,205.882z M306.965,223.438
		c6.481,0,12.153,2.703,15.666,7.297c4.866,6.212,7.294,18.369,7.294,37.004c0,32.676-6.753,46.725-22.418,46.725
		c-7.022,0-15.127-3.778-18.367-11.346c-2.971-7.023-4.592-18.908-4.592-34.839c0-13.775,1.352-23.503,3.785-30.793
		C291.295,228.845,298.319,223.438,306.965,223.438L306.965,223.438L306.965,223.438z M306.421,196.697
		c-37.273,0-62.124,28.905-62.124,72.387c0,43.484,24.583,71.577,62.124,71.577c21.338,0,35.119-7.285,45.651-19.174
		c11.886-13.501,17.291-29.714,17.291-53.482c0-22.416-4.864-37.543-15.937-50.509C341.537,203.451,326.143,196.697,306.421,196.697
		L306.421,196.697L306.421,196.697z M229.444,211.28c-5.944-5.133-8.375-7.017-13.505-9.724c-7.565-4.051-17.559-6.212-26.743-6.212
		c-11.613,0-25.118,4.052-34.305,10.264c-16.205,11.075-28.362,32.144-28.362,64.015c0,44.833,22.151,71.305,60.235,71.305
		c13.238,0,24.042-2.97,33.763-8.642c4.864-2.97,7.294-4.86,12.697-10.26l-16.476-21.885l-2.161,1.895
		c-8.917,7.833-16.478,11.345-24.85,11.345c-6.214,0-12.425-2.973-16.207-7.832c-4.592-5.938-7.024-16.752-7.024-34.844
		c0-32.414,7.292-46.462,23.502-46.462c6.752,0,14.585,4.055,21.877,10.806L229.444,211.28L229.444,211.28L229.444,211.28z"/>
	<path fill="#060707" d="M1061.044,426.894c-2.579,0-4.462,2.145-4.462,4.73c0,2.579,1.887,4.72,4.462,4.72
		c2.586,0,4.477-2.141,4.477-4.72C1065.521,429.038,1063.63,426.894,1061.044,426.894L1061.044,426.894L1061.044,426.894z
		 M1040.947,413.466c0,3.915-1.953,5.993-5.734,5.993c-3.731,0-5.806-1.953-5.806-5.868c0-4.039,2.02-6.055,5.739-6.055
		C1039.115,407.54,1040.947,409.435,1040.947,413.466L1040.947,413.466L1040.947,413.466z M1053.043,406.474l-2.961-3.587
		c-1.704,1.195-3.274,1.824-5.165,1.824c-1.383,0-3.086-0.504-4.728-1.008c-1.895-0.566-3.219-0.695-4.914-0.695
		c-7.251,0-12.096,4.22-12.096,10.583c0,4.353,2.575,7.626,7.427,9.071c-3.59,1.329-6.172,2.587-6.172,5.556
		c0,2.332,1.637,3.907,4.402,4.22c1.203,0.125,3.731,0.313,5.927,0.313c6.246,0,8.704,1.766,8.704,4.793
		c0,3.344-2.583,5.419-7.755,5.419c-4.915,0-7.626-1.758-7.626-5.044c0-0.883,0.316-1.895,0.57-2.398l-5.665,0.316
		c-0.313,0.945-0.57,1.895-0.57,3.215c0,5.239,5.04,8.313,13.865,8.313c7.688,0,13.294-3.395,13.294-10.2
		c0-4.922-3.34-8.696-11.407-8.696h-4.855c-1.516,0-2.271-0.633-2.271-1.582c0-1.387,3.032-2.84,4.985-3.473
		c8.255,0,11.337-5.224,11.337-9.759c0-2.024-0.625-3.728-2.262-5.802c1.512,0.434,1.762,0.504,2.707,0.504
		C1049.766,408.36,1051.277,407.856,1053.043,406.474L1053.043,406.474L1053.043,406.474z M1014.41,435.461v-32.324l-5.981,0.938
		v31.387H1014.41L1014.41,435.461L1014.41,435.461z M1015.605,394.183c0-2.398-1.895-4.219-4.153-4.219
		c-2.266,0-4.094,1.891-4.094,4.219c0,2.267,1.762,4.149,4.031,4.149C1013.711,398.332,1015.605,396.449,1015.605,394.183
		L1015.605,394.183L1015.605,394.183z M1001.686,403.895h-7.696c0-3.219,0.316-7.188,0.57-9.454l-5.98,1.384
		c-0.316,2.398-0.379,5.609-0.379,8.074h-3.778v4.091h3.778v20.361c0,4.595,1.008,5.228,2.328,6.415
		c1.008,0.945,3.273,1.578,5.353,1.578c2.082,0,3.969-0.434,5.734-1.32l-0.688-3.524c-1.012,0.438-1.898,0.634-2.965,0.634
		c-3.149,0-4.099-1.204-4.099-5.11v-19.033h6.243L1001.686,403.895L1001.686,403.895L1001.686,403.895z M980.25,425.757
		c0-4.157-2.395-7.501-8.185-8.821l-4.106-0.945c-3.344-0.754-4.473-2.016-4.473-4.286c0-2.836,2.141-4.73,5.481-4.73
		c2.527,0,4.863,0.82,7.754,2.273l1.954-4.094c-2.587-1.517-6.11-2.587-9.962-2.587c-6.798,0-11.404,4.032-11.404,9.825
		c0,4.665,2.708,7.821,7.685,8.771l3.845,0.75c3.664,0.703,5.301,2.271,5.301,4.981c0,3.09-2.395,5.106-5.864,5.106
		c-3.535,0-7.117-1.45-10.146-3.153l-2.082,4.161c3.649,2.148,7.938,3.328,11.782,3.328
		C975.206,436.336,980.25,432.063,980.25,425.757L980.25,425.757L980.25,425.757z M949.113,435.461v-23.886
		c0-1.445-0.254-2.84-0.754-3.969c-1.129-2.707-4.086-4.47-7.43-4.47c-1.954,0-4.036,0.508-5.864,1.574
		c-1.32,0.755-2.27,1.575-4.099,3.083c0-1.945-0.313-3.337-1.066-4.845l-5.477,1.508c0.879,2.267,1.195,3.716,1.195,7.493v23.511
		h5.723v-23.382c2.149-2.27,5.556-4.035,7.829-4.035c1.445,0,2.583,0.438,3.212,1.258c0.758,1.008,1.016,2.016,1.016,4.86v21.291
		h5.715V435.461L949.113,435.461z M916.716,433.383c-1.258-1.07-1.945-3.337-1.945-6.556V403.07l-5.735,1.137v22.687
		c-1.328,2.77-4.352,4.985-7.188,4.985c-1.391,0-2.836-0.634-3.656-1.396c-1.137-1.07-1.449-2.328-1.449-5.547v-21.995l-5.724,1.137
		v22.437c0,2.266,0.18,4.031,0.75,5.29c1.32,2.895,4.466,4.723,8.505,4.723c3.91,0,6.997-1.449,9.517-4.535
		c0.566,2.141,1.387,3.336,2.957,4.535L916.716,433.383L916.716,433.383L916.716,433.383z M900.081,395.949
		c0-2.142-1.695-3.907-3.719-3.907c-2.009,0-3.649,1.758-3.649,3.907c0,2.141,1.641,3.961,3.649,3.961
		C898.444,399.91,900.081,398.09,900.081,395.949L900.081,395.949L900.081,395.949z M913.184,395.949
		c0-2.142-1.695-3.907-3.648-3.907c-2.078,0-3.711,1.758-3.711,3.907c0,2.141,1.633,3.961,3.711,3.961
		C911.551,399.91,913.184,398.09,913.184,395.949L913.184,395.949L913.184,395.949z M874.5,413.466c0,3.915-1.953,5.993-5.738,5.993
		c-3.724,0-5.802-1.953-5.802-5.868c0-4.039,2.023-6.055,5.735-6.055C872.672,407.54,874.5,409.435,874.5,413.466L874.5,413.466
		L874.5,413.466z M886.596,406.474l-2.962-3.587c-1.703,1.195-3.273,1.824-5.164,1.824c-1.384,0-3.083-0.504-4.728-1.008
		c-1.891-0.566-3.219-0.695-4.914-0.695c-7.255,0-12.1,4.22-12.1,10.583c0,4.353,2.582,7.626,7.435,9.071
		c-3.594,1.329-6.173,2.587-6.173,5.556c0,2.332,1.634,3.907,4.407,4.22c1.195,0.125,3.719,0.313,5.923,0.313
		c6.242,0,8.703,1.766,8.703,4.793c0,3.344-2.586,5.419-7.754,5.419c-4.919,0-7.622-1.758-7.622-5.044
		c0-0.883,0.309-1.895,0.563-2.398l-5.665,0.316c-0.313,0.945-0.57,1.895-0.57,3.215c0,5.239,5.04,8.313,13.869,8.313
		c7.688,0,13.29-3.395,13.29-10.2c0-4.922-3.336-8.696-11.403-8.696h-4.856c-1.516,0-2.27-0.633-2.27-1.582
		c0-1.387,3.027-2.84,4.981-3.473c8.259,0,11.341-5.224,11.341-9.759c0-2.024-0.629-3.728-2.262-5.802
		c1.508,0.434,1.758,0.504,2.703,0.504C883.313,408.36,884.829,407.856,886.596,406.474L886.596,406.474L886.596,406.474z"/>
	<path fill="#E3101B" d="M830.503,426.894c-2.582,0-4.469,2.145-4.469,4.73c0,2.579,1.887,4.72,4.469,4.72
		c2.587,0,4.47-2.141,4.47-4.72C834.98,429.038,833.09,426.894,830.503,426.894L830.503,426.894L830.503,426.894z M822.436,435.461
		l-14.056-18.205l11.278-13.424h-7.06l-10.403,13.678l12.986,17.951H822.436L822.436,435.461L822.436,435.461z M801.574,435.461
		v-39.316c0-2.587-0.379-5.235-0.754-6.935l-5.853,1.387c0.509,1.828,0.813,3.969,0.813,7.188v37.676H801.574L801.574,435.461
		L801.574,435.461z M785.568,435.461v-32.324l-5.98,0.938v31.387H785.568L785.568,435.461L785.568,435.461z M786.764,394.183
		c0-2.398-1.891-4.219-4.152-4.219s-4.098,1.891-4.098,4.219c0,2.267,1.766,4.149,4.035,4.149
		C784.873,398.332,786.764,396.449,786.764,394.183L786.764,394.183L786.764,394.183z M769.622,435.461v-23.886
		c0-1.445-0.25-2.84-0.758-3.969c-1.126-2.707-4.087-4.47-7.427-4.47c-1.957,0-4.036,0.508-5.864,1.574
		c-1.328,0.755-2.266,1.575-4.094,3.083c0-1.945-0.32-3.337-1.075-4.845l-5.477,1.508c0.879,2.267,1.195,3.716,1.195,7.493v23.511
		h5.731v-23.382c2.141-2.27,5.551-4.035,7.821-4.035c1.445,0,2.586,0.438,3.215,1.258c0.754,1.008,1.008,2.016,1.008,4.86v21.291
		h5.724V435.461L769.622,435.461z M736.157,435.461v-22.495c0-2.836-0.125-3.664-0.633-5.105c-0.934-2.828-4.212-4.724-7.931-4.724
		c-2.332,0-4.539,0.633-6.872,2.142c-1.262,0.813-1.961,1.32-3.344,2.582c0.121-1.637,0.191-3.083,0.191-4.216v-7.063
		c0-3.087-0.25-5.423-0.695-7.313l-5.853,1.203c0.438,1.828,0.691,3.906,0.691,6.618v38.371h5.856v-22.683
		c2.461-2.844,5.673-4.609,8.392-4.609c1.508,0,2.891,0.57,3.461,1.203c0.633,0.695,1.078,2.207,1.078,4.415v21.674H736.157
		L736.157,435.461L736.157,435.461z M704.826,432l-2.837-3.591c-1.891,2.141-4.219,3.277-6.552,3.277
		c-1.828,0-3.402-0.695-4.539-1.891c-1.637-1.762-2.52-4.664-2.52-9.083c0-4.348,0.438-7.505,1.512-9.646
		c1.074-2.148,3.156-3.406,5.547-3.406c2.021,0,3.466,0.625,5.544,2.461l3.031-3.969c-2.402-2.212-5.172-3.337-8.575-3.337
		c-3.09,0-5.863,1.125-8.188,3.208c-3.028,2.707-5.294,6.801-5.294,13.927c0,4.79,0.949,8.45,3.023,11.419
		c2.212,3.142,5.603,4.712,10.142,4.712C699.161,436.086,701.81,434.961,704.826,432L704.826,432L704.826,432z M669.486,416.631
		h-13.115c0-5.751,2.207-9.345,6.622-9.345c2.016,0,3.531,0.953,4.539,2.211C668.799,411.071,669.486,413.6,669.486,416.631
		L669.486,416.631L669.486,416.631z M675.525,420.896c0-0.375,0-0.813,0-1c-0.07-7.243-1.07-10.774-3.836-13.61
		c-2.211-2.267-5.048-3.399-8.579-3.399c-3.911,0-7.001,1.383-9.521,4.337c-2.703,3.219-3.771,6.751-3.771,12.228
		c0,10.345,5.353,16.705,14.115,16.705c4.094,0,7.813-1.32,10.896-4.023l-2.195-3.47c-2.27,2.02-4.79,3.027-7.755,3.027
		c-3.035,0-5.61-1.199-7.255-3.723c-0.945-1.516-1.32-3.594-1.32-6.306V420.9h19.221V420.896L675.525,420.896z M645.21,403.895
		h-7.688c0-3.219,0.313-7.188,0.566-9.454l-5.973,1.384c-0.313,2.398-0.387,5.609-0.387,8.074h-3.778v4.091h3.778v20.361
		c0,4.595,1.012,5.228,2.332,6.415c1.008,0.945,3.273,1.578,5.355,1.578c2.075,0,3.966-0.434,5.731-1.32l-0.695-3.524
		c-1.008,0.438-1.891,0.634-2.961,0.634c-3.149,0-4.091-1.204-4.091-5.11v-19.033h6.239L645.21,403.895L645.21,403.895
		L645.21,403.895z"/>
	<path fill="#020304" d="M603.932,426.894c-2.58,0-4.471,2.145-4.471,4.73c0,2.579,1.896,4.72,4.471,4.72
		c2.587,0,4.478-2.141,4.478-4.72C608.409,429.038,606.519,426.894,603.932,426.894L603.932,426.894L603.932,426.894z
		 M590.636,435.461v-23.886c0-1.445-0.252-2.84-0.756-3.969c-1.133-2.707-4.092-4.47-7.433-4.47c-1.953,0-4.038,0.508-5.862,1.574
		c-1.329,0.755-2.276,1.575-4.1,3.083c0-1.945-0.32-3.337-1.072-4.845l-5.481,1.508c0.885,2.267,1.202,3.716,1.202,7.493v23.511
		h5.733v-23.382c2.143-2.27,5.543-4.035,7.815-4.035c1.453,0,2.584,0.438,3.217,1.258c0.756,1.008,1.008,2.016,1.008,4.86v21.291
		h5.729V435.461L590.636,435.461z M552.511,416.631h-13.117c0-5.751,2.209-9.345,6.62-9.345c2.018,0,3.53,0.953,4.538,2.211
		C551.811,411.071,552.511,413.6,552.511,416.631L552.511,416.631L552.511,416.631z M558.552,420.896c0-0.375,0-0.813,0-1
		c-0.061-7.243-1.068-10.774-3.833-13.61c-2.203-2.267-5.045-3.399-8.577-3.399c-3.909,0-7,1.383-9.517,4.337
		c-2.709,3.219-3.772,6.751-3.772,12.228c0,10.345,5.344,16.705,14.109,16.705c4.096,0,7.817-1.32,10.902-4.023l-2.206-3.47
		c-2.264,2.02-4.784,3.027-7.753,3.027c-3.023,0-5.612-1.199-7.252-3.723c-0.943-1.516-1.32-3.594-1.32-6.306V420.9h19.219V420.896
		L558.552,420.896z M530.256,435.461l-14.052-18.205l11.28-13.424h-7.065l-10.396,13.678l12.984,17.951H530.256L530.256,435.461
		L530.256,435.461z M509.391,435.461v-39.316c0-2.587-0.375-5.235-0.756-6.935l-5.852,1.387c0.504,1.828,0.82,3.969,0.82,7.188
		v37.676H509.391L509.391,435.461L509.391,435.461z M498.237,403.199c-0.504-0.191-1.2-0.313-1.956-0.313
		c-3.336,0-6.049,1.82-8.569,5.474v-0.566c0-1.578-0.5-3.657-1.072-4.853l-5.6,1.449c0.756,1.95,1.195,4.028,1.195,7.88v23.183h5.79
		v-20.346c0-3.47,3.028-6.438,6.556-6.438c0.633,0,1.068,0.125,1.641,0.32L498.237,403.199L498.237,403.199L498.237,403.199z
		 M466.294,419.959l-0.188,8.071c-1.453,2.523-3.977,4.165-6.625,4.165c-3.215,0-4.985-2.017-4.985-5.489
		c0-2.082,0.449-3.215,1.641-4.599c1.26-1.445,3.917-2.273,8.261-2.273C464.905,419.826,465.409,419.896,466.294,419.959
		L466.294,419.959L466.294,419.959z M474.479,432.879c-2.459-1.505-2.584-3.271-2.584-7.622c0-4.603,0.252-9.454,0.252-11.721
		c0-3.094-0.123-4.168-0.627-5.555c-1.198-3.337-4.534-5.04-9.138-5.04c-6.116,0-10.154,2.399-13.234,4.157l2.645,4.164
		c2.581-1.961,6.36-3.594,9.705-3.594c4.416,0,4.92,2.52,4.92,6.243v2.086c-0.819-0.07-1.448-0.07-2.204-0.07
		c-10.222,0-16.078,3.898-16.078,11.22c0,6.052,3.904,9.255,10.21,9.255c5.487,0,8.136-3.137,8.956-4.145
		c0.752,2.203,2.264,3.77,4.213,4.531L474.479,432.879L474.479,432.879L474.479,432.879z M440.131,435.461v-23.573
		c0-5.797-3.149-8.88-8.062-8.88c-3.219,0-6.497,1.637-9.649,4.966c-1.574-3.396-4.536-4.966-7.495-4.966
		c-2.965,0-6.186,1.637-8.897,4.474c0-1.766-0.439-3.345-1.072-4.415l-5.413,1.324c0.885,2.2,1.137,3.403,1.137,7.88v23.183h5.727
		v-23.69c2.709-2.586,5.11-3.656,7.253-3.656c2.905,0,3.913,1.32,3.913,4.852v22.495h5.665v-23.183
		c2.397-2.402,4.481-4.297,7.378-4.297c2.652,0,3.788,1.262,3.788,4.859v22.62h5.729V435.461L440.131,435.461z"/>
</g>
</svg>
