<?xml version="1.0" encoding="UTF-8" standalone="no"?>
<svg
   xmlns:dc="http://purl.org/dc/elements/1.1/"
   xmlns:cc="http://creativecommons.org/ns#"
   xmlns:rdf="http://www.w3.org/1999/02/22-rdf-syntax-ns#"
   xmlns:svg="http://www.w3.org/2000/svg"
   xmlns="http://www.w3.org/2000/svg"
   xmlns:sodipodi="http://sodipodi.sourceforge.net/DTD/sodipodi-0.dtd"
   xmlns:inkscape="http://www.inkscape.org/namespaces/inkscape"
   width="1010.4141pt"
   height="287.45703pt"
   viewBox="0 0 1010.4141 287.45703"
   version="1.2"
   id="svg2582"
   sodipodi:docname="Coop Norge logo.svg"
   inkscape:version="0.92.4 (5da689c313, 2019-01-14)">
  <metadata
     id="metadata2588">
    <rdf:RDF>
      <cc:Work
         rdf:about="">
        <dc:format>image/svg+xml</dc:format>
        <dc:type
           rdf:resource="http://purl.org/dc/dcmitype/StillImage" />
        <dc:title></dc:title>
      </cc:Work>
    </rdf:RDF>
  </metadata>
  <defs
     id="defs2586" />
  <sodipodi:namedview
     pagecolor="#ffffff"
     bordercolor="#666666"
     borderopacity="1"
     objecttolerance="10"
     gridtolerance="10"
     guidetolerance="10"
     inkscape:pageopacity="0"
     inkscape:pageshadow="2"
     inkscape:window-width="640"
     inkscape:window-height="480"
     id="namedview2584"
     showgrid="false"
     inkscape:pagecheckerboard="true"
     inkscape:zoom="0.18321283"
     inkscape:cx="579.89535"
     inkscape:cy="210.78571"
     inkscape:window-x="0"
     inkscape:window-y="0"
     inkscape:window-maximized="0"
     inkscape:current-layer="svg2582" />
  <g
     id="surface203718"
     transform="translate(-107.48047,-97.71875)">
    <path
       style="fill:#00234f;fill-opacity:1;fill-rule:evenodd;stroke:none"
       d="m 977.78516,273.81641 c -38.42969,0 -54.14844,-28.98047 -54.14844,-61.30079 0,-32.875 15.71875,-61.87109 54.14844,-61.87109 38.30464,0 54.06644,28.99609 54.06644,61.87109 0,32.32032 -15.7618,61.30079 -54.06644,61.30079 m -272.92969,0 c -38.41406,0 -54.10156,-28.98047 -54.10156,-61.30079 0,-32.875 15.6875,-61.87109 54.10156,-61.87109 38.29687,0 54.05859,28.99609 54.05859,61.87109 0,32.32032 -15.76172,61.30079 -54.05859,61.30079 m -263.39844,0 c -38.36328,0 -54.05859,-28.98047 -54.05859,-61.30079 0,-32.875 15.69531,-61.87109 54.05859,-61.87109 38.39453,0 54.08984,28.99609 54.08984,61.87109 0,32.32032 -15.69531,61.30079 -54.08984,61.30079 M 977.78516,97.71875 c -68.23438,0 -122.35938,30.90234 -136.52344,85.44531 -14.10156,-54.54297 -68.28125,-85.44531 -136.40625,-85.44531 -62.01172,0 -112.44922,25.48828 -131.69922,71.13672 -19.29688,-45.64844 -69.75391,-71.13672 -131.69922,-71.13672 -79.52344,0 -140.08984,42.02734 -140.08984,114.79687 0,18.25391 3.89453,34.55469 10.99218,48.79688 -0.91796,0.46094 -1.80468,0.83203 -2.75781,1.25781 -3.60937,1.4336 -7.57812,2.77735 -11.92187,4.00391 -10.94922,3.03125 -23.35157,4.75781 -35.7461,4.75781 -36.0664,0 -68.44531,-22.66406 -68.44531,-57.625 0,-37.82812 27.73047,-60.52734 63.79297,-60.52734 11.08203,0 20.73047,1.18359 29.69922,3.67578 0,0 9.46094,-25.25781 33.0039,-44.30078 -2.24218,-1.03906 -4.54296,-1.96875 -6.92578,-2.97656 l -0.0117,0.0859 c -18.79296,-8.23437 -40.78906,-11.94531 -65.45312,-11.94531 -79.52734,0 -140.11328,42.02734 -140.11328,114.79687 0,72.20704 60.58594,114.3125 140.11328,114.3125 21,0 44.41797,-3.04296 64.48047,-8.6875 7.51562,-1.84765 25.1914,-7.875 38.08984,-15.3789 24.21875,15.68359 55.85938,24.0664 91.29297,24.0664 61.94531,0 112.40234,-25.57812 131.69922,-71.03906 19.25,45.46094 69.6875,71.03906 131.69922,71.03906 63.29297,0 114.55078,-26.71484 132.85937,-74.03515 v 132.38281 h 85.4961 v -65.80859 c 16.6914,4.8789 35.05859,7.46093 54.57422,7.46093 79.52342,0 140.10932,-42.10546 140.10932,-114.3125 0,-72.76953 -60.5859,-114.79687 -140.10932,-114.79687"
       id="path2579"
       inkscape:connector-curvature="0" />
  </g>
</svg>
