<svg xmlns="http://www.w3.org/2000/svg" width="600" height="299.64" viewBox="0 0 450 224.73">
  <g data-name="Layer 1" transform="matrix(6.68706 0 0 6.68706 -1769.18 -2709.17)">
    <clipPath id="a">
      <path transform="matrix(1 0 0 -1 0 841.89)" d="M 0,841.89 H 595.276 V 0 H 0 Z"/>
    </clipPath>
    <g clip-path="url(#a)">
      <path transform="matrix(1 0 0 -1 322.52 417.05)" d="M 0,0 C -2.557,0.009 -3.602,1.945 -3.594,4.099 -3.586,6.288 -2.527,8.221 0.029,8.211 2.576,8.201 3.625,6.262 3.619,4.072 3.609,1.92 2.549,-0.01 0,0 m -18.176,0.064 c -2.56,0.01 -3.599,1.947 -3.594,4.1 0.01,2.19 1.063,4.121 3.624,4.111 2.548,-0.007 3.591,-1.949 3.585,-4.136 -0.007,-2.154 -1.066,-4.083 -3.615,-4.075 m -17.539,0.064 c -2.562,0.009 -3.601,1.946 -3.594,4.099 0.008,2.189 1.06,4.121 3.623,4.112 2.554,-0.009 3.584,-1.948 3.576,-4.138 -0.008,-2.153 -1.053,-4.082 -3.605,-4.073 M 0.041,11.735 c -4.543,0.016 -8.15,-2.035 -9.109,-5.661 -0.94,3.633 -4.532,5.71 -9.065,5.727 -4.127,0.013 -7.502,-1.668 -8.785,-4.709 -1.274,3.051 -4.636,4.756 -8.755,4.771 -5.306,0.019 -9.343,-2.765 -9.361,-7.616 -0.004,-1.224 0.242,-2.301 0.717,-3.254 -0.06,-0.03 -0.11,-0.056 -0.183,-0.077 -0.24,-0.092 -0.5,-0.187 -0.797,-0.265 -0.723,-0.197 -1.553,-0.308 -2.375,-0.305 -2.406,0.008 -4.551,1.518 -4.544,3.849 0.009,2.529 1.848,4.027 4.255,4.018 0.739,-0.002 1.383,-0.091 1.984,-0.254 0,0 0.636,1.684 2.214,2.953 -0.155,0.063 -0.311,0.127 -0.466,0.186 v -0.002 c -1.256,0.552 -2.719,0.808 -4.361,0.814 -5.303,0.018 -9.346,-2.765 -9.364,-7.617 -0.017,-4.803 4.006,-7.627 9.309,-7.647 1.404,-0.003 2.963,0.191 4.293,0.573 0.506,0.109 1.683,0.517 2.547,1.006 1.609,-1.043 3.709,-1.616 6.076,-1.623 4.121,-0.016 7.494,1.683 8.79,4.702 1.261,-3.029 4.627,-4.751 8.752,-4.766 4.205,-0.015 7.634,1.753 8.853,4.895 l -0.031,-8.805 5.703,-0.021 0.016,4.385 c 1.113,-0.341 2.337,-0.514 3.632,-0.519 5.309,-0.019 9.338,2.776 9.354,7.58 0.017,4.85 -3.992,7.663 -9.299,7.682" fill="#004b85"/>
      <path transform="matrix(1 0 0 -1 273.63 436.41)" d="M 0,0 H -1.121 L -5.783,7.262 V 0 h -0.961 v 8.33 h 1.442 L -0.961,1.543 V 8.33 H 0 Z" fill="#7e8083"/>
      <path transform="matrix(1 0 0 -1 276.77 434.97)" d="m 0,0 c 0.294,-0.473 0.868,-0.777 1.482,-0.777 0.696,0 1.243,0.328 1.564,0.886 0.28,0.487 0.333,1.045 0.333,1.578 0,0.584 -0.08,1.192 -0.427,1.688 C 2.632,3.824 2.07,4.104 1.482,4.104 0.828,4.104 0.24,3.764 -0.053,3.23 -0.307,2.781 -0.387,2.186 -0.387,1.687 -0.387,1.129 -0.294,0.486 0,0 m 1.562,4.881 c 1.991,0 2.979,-1.578 2.979,-3.205 0,-1.725 -1.095,-3.242 -3.151,-3.242 -2.031,0 -2.939,1.627 -2.939,3.253 0,1.713 1.069,3.194 3.111,3.194" fill="#7e8083"/>
      <path transform="matrix(1 0 0 -1 283.77 430.24)" d="M 0,0 V -1.443 H 0.026 C 0.347,-0.605 0.921,0.17 2.017,0.17 L 2.404,0.146 v -0.91 H 2.19 C 1.389,-0.764 0.828,-1.115 0.44,-1.736 0.16,-2.186 0.106,-2.572 0.106,-3.059 V -6.168 H -0.936 V 0 Z" fill="#7e8083"/>
      <path transform="matrix(1 0 0 -1 289.34 433.56)" d="M 0,0 C 0.908,0 1.509,0.547 1.509,1.373 1.509,2.15 0.828,2.721 0,2.721 -0.882,2.721 -1.522,2.15 -1.522,1.361 -1.522,0.523 -0.922,0 0,0 m 0.134,-4.443 c 0.507,0 1.295,0.072 1.749,0.267 0.374,0.158 0.588,0.352 0.588,0.729 0,0.593 -0.735,0.703 -1.443,0.74 -0.4,0.023 -1.562,0.012 -2.298,0.098 -0.4,-0.17 -0.734,-0.401 -0.734,-0.838 0,-0.85 1.442,-0.996 2.138,-0.996 M 0,3.473 c 0.467,0 0.948,-0.084 1.375,-0.266 0.174,0.873 0.642,1.068 1.563,1.068 L 3.205,4.262 3.219,3.498 H 3.111 C 2.497,3.498 2.017,3.438 1.909,2.793 2.323,2.381 2.564,1.834 2.564,1.275 2.564,0.668 2.203,0.098 1.696,-0.266 1.202,-0.607 0.588,-0.74 -0.027,-0.74 c -0.307,0 -0.667,0.097 -0.921,0.097 -0.322,0 -0.722,-0.255 -0.722,-0.57 0,-0.293 0.214,-0.463 0.508,-0.523 0.468,-0.096 1.122,-0.073 1.602,-0.096 0.588,-0.025 1.456,-0.037 1.991,-0.219 0.628,-0.219 1.042,-0.754 1.042,-1.361 0,-1.567 -2.044,-1.772 -3.353,-1.772 -0.628,0 -1.402,0.024 -1.99,0.243 -0.654,0.242 -1.162,0.679 -1.162,1.359 0,0.644 0.387,1.045 1.028,1.252 -0.387,0.23 -0.654,0.51 -0.654,0.971 0,0.607 0.387,0.875 0.934,1.105 -0.574,0.412 -0.88,0.959 -0.88,1.627 0,1.336 1.242,2.1 2.604,2.1" fill="#7e8083"/>
      <path transform="matrix(1 0 0 -1 298.27 432.7)" d="M 0,0 C 0.014,1.02 -0.614,1.881 -1.816,1.881 -2.951,1.881 -3.685,0.971 -3.725,0 Z m 1.043,-2.027 c -0.4,-1.131 -1.589,-1.811 -2.885,-1.811 -2.057,0 -3.113,1.483 -3.113,3.205 0,1.701 1.11,3.242 3.139,3.242 2.111,0 3.019,-1.601 2.966,-3.314 h -4.929 c 0,-0.486 0.027,-0.936 0.28,-1.397 0.321,-0.582 1.029,-0.933 1.737,-0.933 0.882,0 1.522,0.461 1.817,1.189 z" fill="#7e8083"/>
      <path transform="matrix(1 0 0 -1 304.99 434.03)" d="m 0,0 c 0.37,-1.14 1.413,-1.668 2.68,-1.668 0.541,0 1.201,0.108 1.624,0.408 0.342,0.24 0.553,0.66 0.553,1.056 0,0.828 -0.752,1.164 -1.544,1.345 L 1.809,1.477 C 1.201,1.608 0.647,1.74 0.172,2.136 -0.304,2.521 -0.567,3.084 -0.567,3.66 c 0,1.584 1.504,2.269 3.075,2.269 1.518,0 2.732,-0.685 3.221,-2.017 L 4.699,3.66 C 4.502,4.561 3.445,5.112 2.481,5.112 1.624,5.112 0.541,4.704 0.541,3.805 0.541,2.88 1.333,2.676 2.179,2.496 l 1.359,-0.3 C 4.132,2.076 4.726,1.92 5.187,1.561 5.756,1.141 6.032,0.576 6.032,-0.072 6.032,-0.815 5.676,-1.488 5.017,-1.943 4.356,-2.399 3.472,-2.544 2.653,-2.544 c -1.847,0 -3.062,0.744 -3.67,2.34 z" fill="#7e8083"/>
      <path transform="matrix(1 0 0 -1 315.04 429.38)" d="M 0,0 -1.398,-3.948 H 1.387 Z M 3.71,-7.128 H 2.548 l -0.911,2.4 h -3.353 l -0.805,-2.4 h -0.951 l 2.931,8.232 h 1.307 z" fill="#7e8083"/>
    </g>
  </g>
</svg>
