<svg xmlns="http://www.w3.org/2000/svg" xmlns:xlink="http://www.w3.org/1999/xlink" width="1920" zoomAndPan="magnify" viewBox="0 0 1440 1439.999935" height="1920" preserveAspectRatio="xMidYMid meet" version="1.0"><defs><clipPath id="64d0b601de"><path d="M 1093 588 L 1355.53125 588 L 1355.53125 786 L 1093 786 Z M 1093 588 " clip-rule="nonzero"/></clipPath><clipPath id="eecefb764f"><path d="M 84.28125 544 L 333 544 L 333 783 L 84.28125 783 Z M 84.28125 544 " clip-rule="nonzero"/></clipPath></defs><rect x="-144" width="1728" fill="#ffffff" y="-143.999994" height="1727.999922" fill-opacity="1"/><rect x="-144" width="1728" fill="#ffffff" y="-143.999994" height="1727.999922" fill-opacity="1"/><path fill="#005daa" d="M 517.015625 808.277344 L 520.261719 859.566406 L 521.082031 859.566406 C 522.761719 854.328125 524.628906 848.855469 527.246094 843.726562 L 544.941406 808.277344 L 573.6875 808.277344 L 578.035156 859.566406 L 578.855469 859.566406 C 580.355469 854.550781 582.039062 849.300781 584.339844 844.40625 L 601.613281 808.277344 L 640.628906 808.277344 L 587.871094 894.21875 L 555.152344 894.21875 L 552.269531 847.484375 L 551.035156 847.484375 C 549.78125 851.9375 548.679688 856.261719 546.648438 860.480469 L 529.824219 894.21875 L 497.921875 894.21875 L 478.128906 808.277344 Z M 517.015625 808.277344 " fill-opacity="1" fill-rule="nonzero"/><path fill="#005daa" d="M 637.894531 808.277344 L 674.03125 808.277344 L 668.527344 837.226562 L 691.523438 837.226562 L 697.03125 808.277344 L 733.171875 808.277344 L 716.828125 894.21875 L 680.691406 894.21875 L 686.367188 864.355469 L 663.367188 864.355469 L 657.691406 894.21875 L 621.550781 894.21875 Z M 637.894531 808.277344 " fill-opacity="1" fill-rule="nonzero"/><path fill="#005daa" d="M 839.019531 851.472656 C 833.773438 879.058594 805.023438 895.582031 773.554688 895.582031 C 742.058594 895.582031 719.59375 879.050781 724.847656 851.472656 C 729.980469 824.460938 759.0625 806.90625 790.410156 806.90625 C 821.757812 806.90625 844.144531 824.460938 839.019531 851.472656 Z M 762.546875 851.925781 C 760.671875 861.726562 767.339844 868.457031 778.699219 868.457031 C 790.070312 868.457031 799.285156 861.726562 801.160156 851.925781 C 802.886719 842.800781 796.953125 835.171875 785.039062 835.171875 C 773.113281 835.179688 764.273438 842.808594 762.546875 851.925781 Z M 762.546875 851.925781 " fill-opacity="1" fill-rule="nonzero"/><path fill="#005daa" d="M 847.238281 808.277344 L 884.75 808.277344 L 873.644531 866.632812 L 905.136719 866.632812 L 899.886719 894.210938 L 830.890625 894.210938 Z M 847.238281 808.277344 " fill-opacity="1" fill-rule="nonzero"/><path fill="#005daa" d="M 993.875 863.4375 L 995.546875 864.699219 C 1001.425781 869.027344 1008.832031 872.5625 1017.460938 872.5625 C 1021.160156 872.5625 1027.285156 871.304688 1028.023438 867.433594 C 1028.761719 863.5625 1023.898438 863.222656 1020.597656 862.644531 L 1013.277344 861.511719 C 999.03125 859.339844 988.09375 852.15625 990.636719 838.714844 C 994.53125 818.3125 1019.003906 806.910156 1041.453125 806.910156 C 1053.226562 806.910156 1063.597656 809.3125 1072.742188 814.4375 L 1058.429688 836.4375 C 1052.6875 832.789062 1045.972656 829.9375 1037.894531 829.9375 C 1034.613281 829.9375 1029.617188 830.953125 1028.964844 834.488281 C 1028.351562 837.675781 1032.914062 838.136719 1035.683594 838.707031 L 1043.878906 840.300781 C 1059.179688 843.273438 1069.34375 850.332031 1066.578125 864.921875 C 1062.664062 885.441406 1038.285156 895.582031 1015.972656 895.582031 C 1002.972656 895.582031 988.472656 892.617188 977.769531 887.714844 Z M 993.875 863.4375 " fill-opacity="1" fill-rule="nonzero"/><path fill="#005daa" d="M 1122.746094 863.097656 L 1121.246094 847.9375 C 1120.84375 844.289062 1120.871094 840.53125 1120.890625 836.875 L 1119.519531 836.875 L 1107.699219 863.097656 Z M 1090.089844 894.21875 L 1050.390625 894.21875 L 1102.605469 808.277344 L 1144.082031 808.277344 L 1164.5625 894.21875 L 1124.863281 894.21875 L 1123.484375 883.503906 L 1095.152344 883.503906 Z M 1090.089844 894.21875 " fill-opacity="1" fill-rule="nonzero"/><path fill="#005daa" d="M 1177.773438 808.277344 L 1215.285156 808.277344 L 1204.183594 866.632812 L 1235.675781 866.632812 L 1230.421875 894.210938 L 1161.433594 894.210938 Z M 1177.773438 808.277344 " fill-opacity="1" fill-rule="nonzero"/><path fill="#005daa" d="M 1253.738281 808.277344 L 1323.152344 808.277344 L 1318.679688 831.761719 L 1287.046875 831.761719 L 1285.488281 839.96875 L 1314.367188 839.96875 L 1310.125 862.3125 L 1281.238281 862.3125 L 1279.644531 870.738281 L 1312.371094 870.738281 L 1307.890625 894.21875 L 1237.390625 894.21875 Z M 1253.738281 808.277344 " fill-opacity="1" fill-rule="nonzero"/><path fill="#e31837" d="M 744.804688 653.820312 L 792.164062 652.046875 L 752.425781 782.898438 L 837.402344 782.898438 L 877.128906 652.046875 L 923.421875 653.820312 L 942.289062 591.691406 L 763.65625 591.691406 Z M 744.804688 653.820312 " fill-opacity="1" fill-rule="nonzero"/><path fill="#e31837" d="M 568.855469 687.796875 C 556.96875 749.152344 491.867188 785.933594 420.535156 785.933594 C 349.214844 785.933594 298.34375 749.160156 310.226562 687.796875 C 321.859375 627.691406 387.722656 588.648438 458.738281 588.648438 C 529.746094 588.648438 580.488281 627.699219 568.855469 687.796875 Z M 395.613281 688.8125 C 391.398438 710.617188 406.492188 725.585938 432.21875 725.585938 C 457.957031 725.585938 478.839844 710.625 483.0625 688.8125 C 486.992188 668.527344 473.535156 651.542969 446.554688 651.542969 C 419.574219 651.53125 399.542969 668.527344 395.613281 688.8125 Z M 395.613281 688.8125 " fill-opacity="1" fill-rule="nonzero"/><path fill="#e31837" d="M 542.445312 768.433594 C 566.695312 779.328125 599.53125 785.933594 628.992188 785.933594 C 679.542969 785.933594 734.765625 763.367188 743.601562 717.71875 C 749.882812 685.261719 726.890625 669.539062 692.183594 662.945312 L 673.640625 659.394531 C 667.371094 658.121094 657.027344 657.113281 658.398438 650.007812 C 659.917969 642.148438 671.21875 639.859375 678.664062 639.859375 C 696.949219 639.859375 712.167969 646.199219 725.167969 654.316406 L 757.585938 605.375 C 736.84375 593.964844 713.382812 588.648438 686.710938 588.648438 C 635.851562 588.648438 580.390625 614.007812 571.605469 659.394531 C 565.808594 689.320312 590.628906 705.292969 622.875 710.117188 L 639.4375 712.644531 C 646.949219 713.925781 657.96875 714.675781 656.296875 723.292969 C 654.625 731.910156 640.757812 734.703125 632.375 734.703125 C 612.835938 734.703125 596.0625 726.84375 582.738281 717.210938 L 578.941406 714.417969 Z M 542.445312 768.433594 " fill-opacity="1" fill-rule="nonzero"/><path fill="#e31837" d="M 1107.691406 596.507812 C 1090.695312 591.433594 1071.378906 588.648438 1052.144531 588.648438 C 983.617188 588.648438 921.328125 633.28125 910.523438 689.070312 C 899.960938 743.589844 943.867188 785.9375 1010.546875 785.9375 C 1025.730469 785.9375 1057.800781 783.65625 1072.492188 778.332031 L 1088.820312 706.824219 C 1073.050781 717.726562 1056.234375 724.574219 1036.695312 724.574219 C 1011.277344 724.574219 992.394531 708.34375 996.472656 687.308594 C 1000.5 666.507812 1024.476562 650.035156 1049.902344 650.035156 C 1069.128906 650.035156 1084.460938 658.910156 1096.105469 669.316406 Z M 1107.691406 596.507812 " fill-opacity="1" fill-rule="nonzero"/><g clip-path="url(#64d0b601de)"><path fill="#e31837" d="M 1243.75 588.648438 C 1172.738281 588.648438 1106.875 627.691406 1095.238281 687.796875 C 1083.359375 749.152344 1134.230469 785.933594 1205.5625 785.933594 C 1276.878906 785.933594 1341.996094 749.160156 1353.871094 687.796875 C 1365.492188 627.699219 1314.75 588.648438 1243.75 588.648438 Z M 1231.574219 651.53125 C 1258.550781 651.53125 1272.015625 668.515625 1268.074219 688.796875 C 1263.859375 710.605469 1242.96875 725.570312 1217.230469 725.570312 C 1191.492188 725.570312 1176.402344 710.613281 1180.625 688.796875 C 1184.550781 668.527344 1204.59375 651.53125 1231.574219 651.53125 Z M 1231.574219 651.53125 " fill-opacity="1" fill-rule="nonzero"/></g><g clip-path="url(#eecefb764f)"><path fill="#e31837" d="M 332.132812 553.59375 C 310.921875 547.460938 286.847656 544.09375 262.863281 544.09375 C 177.386719 544.09375 99.695312 598.039062 86.230469 665.472656 C 73.074219 731.375 127.824219 782.554688 210.976562 782.554688 C 229.929688 782.554688 269.933594 779.800781 288.234375 773.367188 L 308.59375 686.925781 C 288.945312 700.109375 267.957031 708.382812 243.582031 708.382812 C 211.867188 708.382812 188.328125 688.761719 193.40625 663.316406 C 198.429688 638.1875 228.328125 618.253906 260.035156 618.253906 C 284.011719 618.253906 303.140625 628.984375 317.652344 641.550781 Z M 332.132812 553.59375 " fill-opacity="1" fill-rule="nonzero"/></g><path fill="#005daa" d="M 489.519531 894.21875 L 484.492188 872.363281 L 92.171875 872.363281 L 92.171875 894.359375 L 489.875 894.359375 L 489.847656 894.21875 Z M 489.519531 894.21875 " fill-opacity="1" fill-rule="nonzero"/><path fill="#005daa" d="M 92.171875 841.128906 L 92.171875 863.117188 L 482.359375 863.117188 L 477.289062 841.128906 Z M 92.171875 841.128906 " fill-opacity="1" fill-rule="nonzero"/><path fill="#005daa" d="M 92.171875 831.746094 L 475.003906 831.746094 L 473.28125 823.734375 L 469.765625 808.441406 L 92.171875 808.441406 Z M 92.171875 831.746094 " fill-opacity="1" fill-rule="nonzero"/><path fill="#005daa" d="M 923.207031 808.277344 L 992.617188 808.277344 L 988.148438 831.761719 L 956.523438 831.761719 L 954.957031 839.96875 L 983.839844 839.96875 L 979.597656 862.3125 L 950.714844 862.3125 L 949.113281 870.738281 L 981.832031 870.738281 L 977.367188 894.21875 L 906.851562 894.21875 Z M 923.207031 808.277344 " fill-opacity="1" fill-rule="nonzero"/></svg>