<svg xmlns="http://www.w3.org/2000/svg" xmlns:xlink="http://www.w3.org/1999/xlink" width="1920" zoomAndPan="magnify" viewBox="0 0 1440 1439.999935" height="1920" preserveAspectRatio="xMidYMid meet" version="1.0"><defs><clipPath id="5af6206ec4"><path d="M 2.648438 1.042969 L 1437.398438 1.042969 L 1437.398438 1438.957031 L 2.648438 1438.957031 Z M 2.648438 1.042969 " clip-rule="nonzero"/></clipPath></defs><rect x="-144" width="1728" fill="#ffffff" y="-143.999994" height="1727.999922" fill-opacity="1"/><rect x="-144" width="1728" fill="#ffffff" y="-143.999994" height="1727.999922" fill-opacity="1"/><g clip-path="url(#5af6206ec4)"><path fill="#e30613" d="M 720.648438 1403.164062 C 343.28125 1403.164062 37.367188 1097.25 37.367188 719.890625 C 37.367188 342.542969 343.28125 36.625 720.648438 36.625 C 1098 36.625 1403.929688 342.542969 1403.929688 719.890625 C 1403.929688 1097.25 1098 1403.164062 720.648438 1403.164062 M -300.199219 1737.898438 L 1730.21875 1737.898438 L 1730.21875 -302.90625 L -300.199219 -302.90625 Z M -300.199219 1737.898438 " fill-opacity="1" fill-rule="nonzero"/></g><path fill="#1d1d1b" d="M 199.082031 828.285156 L 199.082031 611.511719 C 199.082031 611.511719 250.183594 599.660156 250.183594 720.25 C 250.183594 840.824219 199.082031 828.285156 199.082031 828.285156 M 224.980469 539.019531 L 93.371094 539.019531 C 93.371094 539.019531 104.566406 617.082031 104.566406 720.25 C 104.566406 823.402344 93.371094 900.769531 93.371094 900.769531 L 224.980469 900.769531 C 269.089844 900.769531 344.699219 871.496094 344.699219 720.25 C 344.699219 568.992188 269.789062 539.019531 224.980469 539.019531 " fill-opacity="1" fill-rule="nonzero"/><path fill="#1d1d1b" d="M 457.414062 733.488281 L 479.816406 611.511719 L 502.214844 733.488281 Z M 636.636719 900.769531 C 636.636719 900.769531 607.230469 806.675781 589.730469 720.246094 C 572.25 633.902344 563.128906 539.019531 563.128906 539.019531 L 396.503906 539.019531 C 396.503906 539.019531 387.40625 633.816406 369.90625 720.246094 C 352.402344 806.675781 323.695312 900.769531 323.695312 900.769531 L 439.910156 900.769531 C 439.910156 900.769531 435.714844 884.738281 439.910156 853.375 C 444.105469 822.011719 451.816406 805.980469 451.816406 805.980469 L 507.820312 805.980469 C 507.820312 805.980469 516.925781 824.101562 519.722656 854.074219 C 522.609375 884.980469 519.722656 900.769531 519.722656 900.769531 Z M 636.636719 900.769531 " fill-opacity="1" fill-rule="nonzero"/><path fill="#1d1d1b" d="M 731.847656 694.453125 L 731.847656 600.351562 C 731.847656 600.351562 771.746094 599.664062 771.746094 647.054688 C 771.746094 694.453125 731.847656 694.453125 731.847656 694.453125 M 899.167969 900.769531 C 899.167969 900.769531 878.839844 856.609375 851.566406 810.160156 C 824.960938 764.847656 809.5625 741.851562 809.5625 741.851562 C 809.5625 741.851562 872.570312 723.03125 872.570312 640.78125 C 872.570312 556.675781 810.957031 539.015625 787.859375 539.015625 L 626.136719 539.015625 C 626.136719 539.015625 636.636719 605.234375 636.636719 720.246094 C 636.636719 835.257812 624.734375 900.769531 624.734375 900.769531 L 743.050781 900.769531 C 743.050781 900.769531 736.050781 879.15625 731.847656 840.132812 C 727.644531 801.101562 731.847656 778.09375 731.847656 778.09375 C 731.847656 778.09375 748.65625 800.398438 761.246094 839.4375 C 773.851562 878.464844 771.746094 900.769531 771.746094 900.769531 Z M 899.167969 900.769531 " fill-opacity="1" fill-rule="nonzero"/><path fill="#1d1d1b" d="M 866.96875 539.019531 L 866.96875 621.972656 C 866.96875 621.972656 888.667969 611.511719 929.265625 611.511719 C 929.265625 611.511719 932.746094 676.929688 929.265625 739.066406 C 925.773438 801.796875 918.070312 900.769531 918.070312 900.769531 L 1034.277344 900.769531 C 1034.277344 900.769531 1026.582031 801.105469 1023.78125 739.066406 C 1020.984375 677.027344 1023.78125 611.511719 1023.78125 611.511719 C 1023.78125 611.511719 1054.589844 610.113281 1084.691406 621.972656 L 1084.691406 539.019531 Z M 866.96875 539.019531 " fill-opacity="1" fill-rule="nonzero"/><path fill="#1d1d1b" d="M 1185.503906 539.019531 L 1079.792969 539.019531 C 1079.792969 539.019531 1126.699219 628.238281 1146.996094 720.242188 C 1167.308594 812.253906 1155.40625 900.769531 1155.40625 900.769531 L 1272.316406 900.769531 C 1272.316406 900.769531 1259.714844 811.558594 1280.019531 720.242188 C 1300.328125 628.933594 1347.929688 539.019531 1347.929688 539.019531 L 1242.21875 539.019531 L 1213.515625 644.269531 Z M 1185.503906 539.019531 " fill-opacity="1" fill-rule="nonzero"/><path fill="#1d1d1b" d="M 866.96875 539.019531 L 866.96875 621.972656 C 866.96875 621.972656 888.667969 611.511719 929.265625 611.511719 C 929.265625 611.511719 932.746094 676.929688 929.265625 739.066406 C 925.773438 801.796875 918.070312 900.769531 918.070312 900.769531 L 1034.277344 900.769531 C 1034.277344 900.769531 1026.582031 801.105469 1023.78125 739.066406 C 1020.984375 677.027344 1023.78125 611.511719 1023.78125 611.511719 C 1023.78125 611.511719 1054.589844 610.113281 1084.691406 621.972656 L 1084.691406 539.019531 Z M 866.96875 539.019531 " fill-opacity="1" fill-rule="nonzero"/><path fill="#1d1d1b" d="M 1185.503906 539.019531 L 1079.792969 539.019531 C 1079.792969 539.019531 1126.699219 628.238281 1146.996094 720.242188 C 1167.308594 812.253906 1155.40625 900.769531 1155.40625 900.769531 L 1272.316406 900.769531 C 1272.316406 900.769531 1259.714844 811.558594 1280.019531 720.242188 C 1300.328125 628.933594 1347.929688 539.019531 1347.929688 539.019531 L 1242.21875 539.019531 L 1213.515625 644.269531 Z M 1185.503906 539.019531 " fill-opacity="1" fill-rule="nonzero"/></svg>