<?xml version="1.0" encoding="UTF-8" standalone="no"?>
<svg xmlns:rdf="http://www.w3.org/1999/02/22-rdf-syntax-ns#" xmlns="http://www.w3.org/2000/svg" height="4.6209mm" width="42.333mm" version="1.1" xmlns:cc="http://creativecommons.org/ns#" xmlns:dc="http://purl.org/dc/elements/1.1/" viewBox="0 0 150 16.37317">
 <g transform="translate(-144.94 -586.73)">
  <g transform="matrix(1.2983 0 0 -1.2983 167.34 591.84)">
   <path d="m0 0-1.836-4.272h3.637l-1.801 4.272zm0.853 3.605c0.007-0.018 0.022-0.05 0.033-0.075 0.448-0.996 0.863-2 1.294-3.005l3.026-7.045c0.164-0.392 0.368-0.928 0.75-1.189 0.155-0.107 0.404-0.13 0.536-0.133 0.131-0.002 0.383 0.008 0.487-0.088 0.056-0.051 0.077-0.115 0.077-0.175 0-0.041-0.009-0.093-0.034-0.123-0.043-0.055-0.112-0.087-0.217-0.081-1.49 0.072-3.512 0.058-4.543 0-0.103-0.006-0.183 0.051-0.213 0.118-0.026 0.059-0.019 0.155 0.037 0.21 0.201 0.202 0.573 0.076 0.816 0.196 0.16 0.08 0.233 0.168 0.252 0.273 0.013 0.07 0.003 0.124-0.026 0.188-0.027 0.063-1.051 2.395-1.051 2.395h-4.21l-1.016-2.368c-0.057-0.114-0.063-0.262 0.027-0.352 0.29-0.254 0.75-0.101 1.084-0.254 0.045-0.027 0.098-0.058 0.118-0.108 0.027-0.072 0.018-0.162-0.027-0.216-0.065-0.067-0.144-0.093-0.253-0.082-0.885 0.099-1.824 0.065-2.718 0.001-0.086-0.005-0.146 0.053-0.173 0.117-0.027 0.08-0.028 0.185 0.049 0.245 0.109 0.075 0.29 0.064 0.466 0.102 0.226 0.045 0.491 0.106 0.605 0.33 1.615 3.669 3.15 7.374 4.763 11.044 0.011 0.025 0.028 0.06 0.034 0.075 0.005 0.014 0.019 0.017 0.027 0m27.954-0.633c-0.362-0.009-0.734 0.031-1.003-0.162-0.181-0.136-0.234-0.367-0.235-0.56l0.001-8.834c0-0.271-0.017-0.537 0.08-0.75 0.2-0.325 0.587-0.297 0.958-0.315 0.898-0.007 1.87-0.064 2.674 0.226 1.824 0.604 2.439 2.574 2.484 4.335 0.018 1.49-0.028 3.016-0.642 4.29-0.839 1.599-2.613 1.84-4.317 1.77m0.912 0.651c2.439 0.027 4.905-1.039 5.889-3.352 0.651-1.444 0.659-3.323 0.199-4.858-0.334-1.22-1.373-2.43-2.565-2.946-1.328-0.623-2.746-0.825-4.426-0.776-1.543 0.043-3.017 0.072-4.508 0-0.088-0.004-0.145 0.073-0.157 0.136-0.018 0.087 0.01 0.211 0.111 0.261 0.164 0.082 0.462 0.091 0.715 0.154 0.135 0.036 0.274 0.102 0.334 0.258 0.094 0.287 0.074 0.842 0.074 1.349v8.467c0 0.216-0.047 0.548-0.29 0.693-0.244 0.135-0.534 0.144-0.814 0.198-0.063 0.018-0.1 0.071-0.126 0.145-0.018 0.063-0.017 0.133 0.018 0.181 0.037 0.05 0.107 0.092 0.18 0.09 1.771-0.09 3.587-0.054 5.366 0m-42.31-0.651c-0.361-0.009-0.732 0.031-1.001-0.162-0.181-0.136-0.234-0.367-0.236-0.56l0.002-8.834c0-0.271-0.018-0.537 0.08-0.75 0.198-0.325 0.586-0.297 0.957-0.315 0.897-0.007 1.87-0.064 2.674 0.226 1.824 0.604 2.439 2.574 2.484 4.335 0.018 1.49-0.027 3.016-0.641 4.29-0.841 1.599-2.614 1.84-4.319 1.77m0.913 0.651c2.439 0.027 4.905-1.039 5.89-3.352 0.65-1.444 0.659-3.323 0.198-4.858-0.334-1.22-1.373-2.43-2.565-2.946-1.328-0.623-2.746-0.825-4.426-0.776-1.542 0.043-3.017 0.072-4.507 0-0.089-0.004-0.146 0.073-0.158 0.136-0.018 0.087 0.01 0.211 0.11 0.261 0.164 0.082 0.463 0.091 0.716 0.154 0.136 0.036 0.274 0.102 0.334 0.258 0.095 0.287 0.075 0.842 0.075 1.349v8.467c-0.001 0.216-0.048 0.548-0.292 0.693-0.243 0.135-0.533 0.144-0.812 0.198-0.064 0.018-0.101 0.071-0.127 0.145-0.018 0.063-0.017 0.133 0.018 0.181 0.037 0.05 0.107 0.092 0.181 0.09 1.77-0.09 3.586-0.054 5.365 0m71.079-1.31c-0.921 0.949-2.456 1.093-3.668 0.669-1.579-0.642-1.977-2.349-2.14-3.857-0.135-1.825-0.108-3.739 0.615-5.293 0.417-0.896 1.266-1.49 2.224-1.629 0.426-0.062 0.793-0.061 1.185-0.009 1.035 0.136 1.945 0.771 2.389 1.728 0.021 0.043 0.037 0.078 0.054 0.117 0.344 0.732 0.488 1.554 0.579 2.394 0.09 1.807 0.09 3.74-0.768 5.257-0.126 0.226-0.289 0.424-0.47 0.623m3.297-2.195c0.949-2.095 0.524-4.832-1.047-6.494-1.591-1.762-3.938-2.412-6.26-1.825-1.996 0.506-3.866 2.367-4.309 4.39-0.207 0.831-0.244 1.861-0.062 2.728 0.007 0.036 0.011 0.056 0.02 0.1 0.37 1.995 2.165 3.911 4.116 4.471 2.502 0.795 5.176-0.009 6.775-2.069 0.307-0.415 0.577-0.849 0.767-1.301m-44.894 3.514c-0.126 0.002-0.227-0.031-0.262-0.144-0.045-0.148 0.063-0.257 0.187-0.284 0.159-0.034 0.359-0.036 0.499-0.078 0.326-0.108 0.412-0.435 0.412-0.746v-9.226c-0.002-0.401-0.023-0.777-0.402-0.939-0.245-0.098-0.509-0.003-0.655-0.189-0.039-0.072-0.051-0.14-0.005-0.227s0.145-0.11 0.257-0.106c1.273 0.082 2.549 0.082 3.831 0 0.113-0.01 0.228 0.035 0.259 0.103 0.031 0.069 0.033 0.137-0.003 0.211-0.087 0.123-0.215 0.138-0.356 0.146-0.139 0.008-0.268 0.015-0.412 0.102-0.181 0.107-0.287 0.363-0.287 0.619l-0.004 9.629c0 0.301 0.117 0.507 0.283 0.587 0.167 0.079 0.288 0.08 0.431 0.092 0.123 0.01 0.276 0.041 0.328 0.115 0.052 0.076 0.051 0.16 0.009 0.224-0.041 0.064-0.108 0.119-0.226 0.111-1.264-0.09-2.619-0.09-3.884 0m-3.498-0.063c-0.265 0.008-0.534 0.044-0.798 0.058-0.167 0.008-0.389 0.013-0.494-0.031-0.067-0.028-0.116-0.082-0.116-0.154s0.027-0.143 0.089-0.18c0.104-0.062 0.471-0.054 0.701-0.087 0.177-0.025 0.377-0.099 0.455-0.23 0.041-0.067 0.035-0.184-0.002-0.28-0.985-2.429-1.921-4.805-2.933-7.225 0 0-0.003-0.01-0.009-0.01-0.005 0-0.009 0.01-0.009 0.01-1.039 2.375-2.041 4.76-3.063 7.144-0.062 0.143-0.07 0.243-0.035 0.334 0.037 0.097 0.104 0.155 0.225 0.212s0.342 0.051 0.511 0.066c0.105 0.009 0.205 0.033 0.288 0.109 0.042 0.046 0.065 0.125 0.033 0.201-0.033 0.075-0.126 0.129-0.229 0.126-1.463-0.09-2.987-0.09-4.459 0-0.135 0.005-0.248-0.029-0.299-0.136-0.034-0.079-0.029-0.178 0.055-0.226 0.26-0.137 0.605-0.035 0.885-0.144 0.496-0.225 0.684-0.717 0.885-1.21l4.305-10.033s0.058-0.136 0.068-0.147c0.012-0.014 0.036-0.016 0.047 0 0.009 0.013 0.047 0.108 0.064 0.148 1.484 3.561 2.918 7.131 4.377 10.709l0.136 0.28c0.115 0.221 0.394 0.268 0.605 0.307 0.176 0.033 0.266 0.027 0.389 0.066 0.067 0.021 0.122 0.08 0.131 0.145 0.008 0.064-0.015 0.135-0.05 0.178-0.046 0.045-0.098 0.068-0.169 0.067s-0.127-0.006-0.195-0.012c-0.452-0.039-0.916-0.071-1.389-0.055m34.639 0.09c-1.219-0.109-2.529-0.099-3.749-0.009-0.162 0.017-0.262-0.033-0.307-0.136-0.022-0.051-0.026-0.142 0.016-0.205 0.043-0.063 0.13-0.097 0.211-0.108 0.175-0.023 0.415-0.008 0.55-0.084 0.317-0.181 0.298-0.535 0.298-0.876l-0.001-8.319c0-0.668-0.053-1.328-0.585-1.761-0.497-0.371-1.269-0.302-1.835-0.064-0.069 0.031-0.142 0.086-0.081 0.118 0.38 0.234 0.626 0.568 0.705 1.02 0.063 0.515-0.136 0.977-0.533 1.318-0.398 0.335-1.075 0.399-1.535 0.146-0.515-0.272-0.814-0.814-0.75-1.401 0.054-1.002 1.084-1.553 1.906-1.796 1.092-0.281 2.411-0.254 3.405 0.243 0.976 0.478 1.525 1.417 1.526 2.539l-0.001 8.148c0 0.251 0.064 0.459 0.164 0.577 0.105 0.131 0.25 0.165 0.403 0.181 0.162 0.017 0.356 0.021 0.443 0.075 0.087 0.056 0.091 0.137 0.067 0.231-0.025 0.096-0.152 0.177-0.317 0.163m24.477 0.027c-0.082 0.005-0.137-0.027-0.184-0.072s-0.062-0.164-0.023-0.244c0.04-0.081 0.134-0.104 0.228-0.115 0.135-0.017 0.29-0.004 0.422-0.048 0.225-0.072 0.389-0.263 0.389-0.515 0.054-2.122 0.027-4.447 0.027-6.669 0 0-4.11 5.107-6.197 7.636-1.138-0.072-2.093-0.075-3.396 0.009-0.109 0.007-0.195-0.017-0.241-0.042-0.048-0.025-0.098-0.098-0.102-0.166-0.004-0.101 0.03-0.153 0.109-0.199 0.079-0.047 0.323-0.066 0.504-0.086 0.205-0.024 0.407-0.045 0.579-0.139 0.217-0.126 0.399-0.339 0.399-0.654-0.009-3.198 0.008-6.247-0.001-9.399 0-0.216-0.063-0.398-0.181-0.56-0.133-0.18-0.282-0.22-0.469-0.238-0.138-0.013-0.328-0.04-0.389-0.106s-0.068-0.159-0.028-0.241c0.04-0.081 0.111-0.107 0.2-0.102 0.713 0.045 1.481 0.045 2.185 0 0.152-0.006 0.28-0.019 0.38 0.073 0.047 0.048 0.06 0.12 0.041 0.191-0.011 0.04-0.038 0.074-0.075 0.102-0.07 0.054-0.147 0.069-0.261 0.083-0.114 0.013-0.263 0.027-0.375 0.081-0.245 0.13-0.378 0.371-0.378 0.653-0.009 3.026 0 8.947 0 8.947l8.287-10.22c0.011-0.013 0.02-0.021 0.031-0.021s0.019 0.008 0.019 0.02v10.759c0 0.265 0.037 0.397 0.118 0.578 0.107 0.214 0.298 0.238 0.504 0.255 0.14 0.012 0.308 0.011 0.397 0.073 0.101 0.07 0.099 0.178 0.072 0.25-0.027 0.091-0.135 0.132-0.224 0.126-0.758-0.054-1.598-0.054-2.367 0m13.831 0.019c-0.037 0.011-0.214 0.003-0.355-0.001-1.055-0.028-3.313-0.049-4.966-0.076-0.044 0-0.092 0-0.157-0.001-1.07 0-2.157 0.026-3.226 0.046-0.274 0.005-0.679 0.013-0.774 0.014-0.096 0.002-0.171-0.038-0.201-0.072s-0.053-0.101-0.049-0.157c0.003-0.056 0.028-0.145 0.129-0.187 0.089-0.036 0.206-0.034 0.317-0.044 0.151-0.012 0.283-0.009 0.418-0.056 0.388-0.138 0.434-0.544 0.434-0.912s-0.003-8.821-0.003-9.04c0-0.217-0.015-0.516-0.114-0.697-0.235-0.353-0.651-0.316-1.013-0.353-0.073-0.009-0.128-0.069-0.147-0.143-0.02-0.072-0.004-0.166 0.06-0.22 0.055-0.042 0.106-0.065 0.188-0.061 3.157 0.144 6.475 0.028 9.615 0.018h0.04c0.012 0 0.04 0.007 0.046 0.027 0.005 0.02 0.541 1.915 0.821 2.863 0.036 0.109 0.067 0.244 0.027 0.335-0.025 0.056-0.058 0.084-0.127 0.099-0.067 0.016-0.167-0.001-0.216-0.102-0.226-0.442-0.316-0.865-0.569-1.298-0.289-0.515-0.759-1.11-1.4-1.138-1.318-0.126-2.656-0.073-4.029-0.082-0.219 0.001-0.46 0-0.668 0.091-0.235 0.126-0.352 0.4-0.352 0.699l0.001 4.392h2.967c0.108 0 0.175-0.003 0.284-0.015 0.374-0.039 0.678-0.232 0.813-0.587 0.069-0.184 0.072-0.393 0.091-0.594 0.016-0.188 0.055-0.446 0.162-0.517 0.047-0.031 0.088-0.06 0.189-0.036s0.132 0.133 0.127 0.208c-0.005 0.074-0.01 0.123-0.015 0.185-0.084 1.155-0.079 2.288 0.015 3.446 0.009 0.132-0.01 0.217-0.081 0.289-0.046 0.036-0.106 0.046-0.166 0.033-0.054-0.019-0.104-0.049-0.131-0.123-0.145-0.379-0.056-0.84-0.272-1.192-0.199-0.335-0.543-0.434-0.904-0.443h-3.08v3.802c0 0.215 0.036 0.429 0.099 0.56 0.064 0.131 0.255 0.288 0.488 0.299 0.232 0.01 2.187 0.013 2.601 0.018 0.415 0.005 1.193-0.01 1.725-0.181 1.012-0.28 1.22-1.382 1.654-2.141 0.045-0.081 0.117-0.145 0.216-0.117 0.1 0.054 0.118 0.162 0.1 0.262-0.19 0.921-0.548 2.731-0.56 2.791-0.013 0.06-0.022 0.1-0.052 0.109m9.632-0.723c0.082-0.057 0.157-0.093 0.231-0.012 0.178 0.208 0.284 0.463 0.402 0.707 0.046 0.09 0.159 0.116 0.215 0.103 0.068-0.015 0.119-0.055 0.105-0.163-0.126-0.993-0.175-2.035-0.112-3.083 0.001-0.073-0.047-0.127-0.117-0.141-0.064-0.009-0.15 0.004-0.18 0.068-0.101 0.244-0.155 0.524-0.263 0.777-0.372 0.994-1.145 1.714-2.195 1.96-0.994 0.244-2.042 0.046-2.809-0.533-0.551-0.451-0.796-1.137-0.56-1.815 0.307-0.922 1.291-1.193 2.068-1.454 1.237-0.371 2.493-0.687 3.568-1.437 1.129-0.867 1.211-2.447 0.849-3.721-0.325-1.147-1.406-2.113-2.602-2.465-1.503-0.449-3.332-0.182-4.579 0.73-0.054 0.042-0.121 0.042-0.163-0.008-0.18-0.217-0.297-0.47-0.406-0.714-0.054-0.109-0.187-0.114-0.242-0.084-0.055 0.029-0.1 0.091-0.098 0.181 0.036 1.103-0.011 1.977-0.093 3.062-0.011 0.104 0.043 0.154 0.088 0.172 0.063 0.019 0.167 0.007 0.214-0.086 0.091-0.182 0.113-0.336 0.176-0.517 0.352-1.192 1.591-2.132 2.791-2.267 1.337-0.199 2.728 0.063 3.469 1.228 0.279 0.46 0.386 1.124 0.099 1.59-0.406 0.66-1.072 1.006-1.743 1.256-1.654 0.64-3.802 0.93-4.552 2.89-0.335 0.958-0.244 2.204 0.315 3.044 0.895 1.4 2.521 1.888 4.146 1.608 0.723-0.126 1.373-0.461 1.978-0.876"/>
  </g>
 </g>
</svg>
