<svg xmlns="http://www.w3.org/2000/svg" version="1.1" viewBox="0 0 654.7 116.6" width="365" height="65">
 <g fill="#00B1B0">
  <path d="M0,0h40.7c32,0,38,21.3,38,57.6c0,17.9,2.7,58.9-38.9,58.9H0V0z M24.4,98.7h11.8   c14.9,0,17.8-11.1,17.8-40.4c0-21.5,0-40.4-17-40.4H24.4V98.7z"></path>
  <path d="M74.4,116.6L106.7,0h32.1l31.6,116.6h-25.7l-6.5-25.8h-33.3l-6.6,25.8H74.4z M121.4,22.4h-0.3l-11.1,50.4   h23.3L121.4,22.4z"></path>
  <path d="M151.1,0h25.4l18.1,84.8h0.3L215.3,0h24.1l-30.8,116.6h-28.6L151.1,0z"></path>
  <path d="M246.2,116.6V0h24.4v116.6H246.2z"></path>
  <path d="M279.4,0h40.7c32,0,38,21.3,38,57.6c0,17.9,2.7,58.9-38.9,58.9h-39.7V0z M303.8,98.7h11.8   c14.9,0,17.8-11.1,17.8-40.4c0-21.5,0-40.4-17-40.4h-12.6V98.7z"></path>
  <path d="M384.4,89c-0.1,3.7,0,7.2,0.9,9.8c1.1,2.6,3.1,3.8,6.8,3.8c3.7,0,7-2.9,7-8.3c0-17.1-33.2-13.3-33.2-39.1     c0-17.4,14.4-22.7,26.6-22.7c12.8,0,24.5,7.4,23.4,24.8h-18.5c0-5.6-0.5-9-1.9-10.4c-1.2-1.4-2.8-1.8-4.8-1.8     c-4.1,0-6.4,3.2-6.4,8.6c0,12.8,33.2,12.2,33.2,38.1c0,14.1-9.6,24.7-25.3,24.7c-16.4,0-27.4-5-26.3-27.5H384.4z"></path>
  <path d="M481.3,0v19.4h-29.4v97.2h-24.4V19.4h-33.9V0H481.3z"></path>
  <path d="M488.1,116.6V0h63.6v17.9h-39.2v28.7h36.2v17.9h-36.2v34.1H553v17.9H488.1z"></path>
  <path d="M558.7,116.6L591,0h32.1l31.6,116.6h-25.7l-6.5-25.8h-33.3l-6.6,25.8H558.7z M605.6,22.4h-0.3l-11.1,50.4   h23.3L605.6,22.4z"></path>
 </g>
</svg>