<svg xmlns="http://www.w3.org/2000/svg" xmlns:xlink="http://www.w3.org/1999/xlink" width="1920" zoomAndPan="magnify" viewBox="0 0 1440 1439.999935" height="1920" preserveAspectRatio="xMidYMid meet" version="1.0"><defs><clipPath id="dd867a87f8"><path d="M 35 976 L 1405.980469 976 L 1405.980469 1167.390625 L 35 1167.390625 Z M 35 976 " clip-rule="nonzero"/></clipPath><clipPath id="f86c6f1f97"><path d="M 345 272.640625 L 1102 272.640625 L 1102 910 L 345 910 Z M 345 272.640625 " clip-rule="nonzero"/></clipPath></defs><rect x="-144" width="1728" fill="#ffffff" y="-143.999994" height="1727.999922" fill-opacity="1"/><rect x="-144" width="1728" fill="#ffffff" y="-143.999994" height="1727.999922" fill-opacity="1"/><g clip-path="url(#dd867a87f8)"><path fill="#3643ba" d="M 203.953125 1164.527344 L 327.085938 1164.527344 L 327.085938 1124.445312 L 251.199219 1124.445312 L 251.199219 1091.515625 L 318.492188 1091.515625 L 318.492188 1054.296875 L 251.199219 1054.296875 L 251.199219 1021.367188 L 327.085938 1021.367188 L 327.085938 982.714844 L 203.953125 982.714844 Z M 1147.484375 978.421875 C 1093.078125 978.421875 1055.851562 1015.640625 1055.851562 1072.90625 C 1055.851562 1130.171875 1093.078125 1167.390625 1147.484375 1167.390625 C 1201.894531 1167.390625 1239.117188 1130.171875 1239.117188 1072.90625 C 1239.117188 1015.640625 1203.324219 978.421875 1147.484375 978.421875 Z M 1147.484375 1125.875 C 1120.28125 1125.875 1103.101562 1107.265625 1103.101562 1072.90625 C 1103.101562 1038.546875 1120.28125 1019.9375 1147.484375 1019.9375 C 1174.6875 1019.9375 1191.871094 1038.546875 1191.871094 1072.90625 C 1191.871094 1107.265625 1174.6875 1125.875 1147.484375 1125.875 Z M 1359.386719 982.714844 L 1359.386719 1082.925781 L 1299.253906 982.714844 L 1250.574219 982.714844 L 1250.574219 1164.527344 L 1296.390625 1164.527344 L 1296.390625 1060.023438 L 1359.386719 1164.527344 L 1405.203125 1164.527344 L 1405.203125 982.714844 Z M 103.730469 982.714844 L 35.003906 982.714844 L 35.003906 1164.527344 L 103.730469 1164.527344 C 158.136719 1164.527344 192.5 1128.738281 192.5 1072.90625 C 192.5 1017.074219 158.136719 982.714844 103.730469 982.714844 Z M 102.296875 1124.445312 L 80.820312 1124.445312 L 80.820312 1021.367188 L 102.296875 1021.367188 C 129.5 1021.367188 145.25 1039.980469 145.25 1072.90625 C 145.25 1105.832031 129.5 1124.445312 102.296875 1124.445312 Z M 989.992188 982.714844 L 942.742188 982.714844 L 942.742188 1164.527344 L 1060.148438 1164.527344 L 1060.148438 1124.445312 L 989.992188 1124.445312 Z M 478.851562 1085.789062 C 461.671875 1114.421875 443.058594 1125.875 421.582031 1125.875 C 392.945312 1125.875 375.765625 1105.832031 375.765625 1070.042969 C 375.765625 1037.117188 391.515625 1019.9375 414.421875 1019.9375 C 430.171875 1019.9375 443.058594 1027.09375 447.351562 1050 L 494.601562 1050 C 488.875 1005.621094 461.671875 976.988281 415.855469 976.988281 C 362.878906 976.988281 328.515625 1014.210938 328.515625 1071.476562 C 328.515625 1128.738281 362.878906 1165.960938 420.148438 1165.960938 C 457.375 1165.960938 483.148438 1150.210938 500.328125 1128.738281 L 564.757812 1128.738281 L 564.757812 1161.664062 L 612.003906 1161.664062 L 612.003906 982.714844 L 546.144531 982.714844 Z M 563.324219 1094.378906 L 521.804688 1094.378906 L 563.324219 1027.09375 Z M 882.609375 1051.433594 L 819.613281 1051.433594 L 819.613281 982.714844 L 772.363281 982.714844 L 772.363281 1164.527344 L 819.613281 1164.527344 L 819.613281 1091.515625 L 882.609375 1091.515625 L 882.609375 1164.527344 L 929.859375 1164.527344 L 929.859375 982.714844 L 882.609375 982.714844 Z M 622.027344 1021.367188 L 667.84375 1021.367188 L 667.84375 1164.527344 L 715.09375 1164.527344 L 715.09375 1021.367188 L 760.910156 1021.367188 L 760.910156 982.714844 L 622.027344 982.714844 Z M 622.027344 1021.367188 " fill-opacity="1" fill-rule="nonzero"/></g><g clip-path="url(#f86c6f1f97)"><path fill="#3643ba" d="M 904.085938 272.640625 C 654.957031 272.640625 345.699219 530.328125 345.699219 743.636719 C 345.699219 853.871094 430.171875 909.703125 541.847656 909.703125 C 623.460938 909.703125 723.683594 879.640625 819.613281 822.375 L 819.613281 395.757812 C 793.839844 440.140625 673.570312 616.226562 577.644531 710.710938 C 528.964844 759.386719 488.875 779.429688 455.941406 779.429688 C 418.71875 779.429688 400.105469 753.660156 400.105469 716.4375 C 400.105469 543.214844 690.753906 319.882812 884.039062 319.882812 C 962.789062 319.882812 1014.332031 355.675781 1014.332031 422.960938 C 1014.332031 485.949219 971.378906 564.6875 899.789062 636.269531 L 899.789062 767.976562 C 1025.785156 667.761719 1101.667969 540.351562 1101.667969 437.277344 C 1100.238281 328.472656 1015.761719 272.640625 904.085938 272.640625 Z M 904.085938 272.640625 " fill-opacity="1" fill-rule="nonzero"/></g></svg>