<?xml version="1.0" encoding="UTF-8" standalone="no"?>
<!-- Created with Inkscape (http://www.inkscape.org/) -->

<svg
   width="168.44743mm"
   height="73.264748mm"
   viewBox="0 0 168.44743 73.264748"
   version="1.1"
   id="svg20449"
   inkscape:version="1.2.2 (b0a8486541, 2022-12-01)"
   sodipodi:docname="Logo of Dekamarkt.svg"
   xmlns:inkscape="http://www.inkscape.org/namespaces/inkscape"
   xmlns:sodipodi="http://sodipodi.sourceforge.net/DTD/sodipodi-0.dtd"
   xmlns="http://www.w3.org/2000/svg"
   xmlns:svg="http://www.w3.org/2000/svg">
  <sodipodi:namedview
     id="namedview20451"
     pagecolor="#ffffff"
     bordercolor="#000000"
     borderopacity="0.25"
     inkscape:showpageshadow="2"
     inkscape:pageopacity="0.0"
     inkscape:pagecheckerboard="0"
     inkscape:deskcolor="#d1d1d1"
     inkscape:document-units="mm"
     showgrid="false"
     inkscape:zoom="0.7198092"
     inkscape:cx="293.13323"
     inkscape:cy="330.64317"
     inkscape:window-width="1866"
     inkscape:window-height="1011"
     inkscape:window-x="0"
     inkscape:window-y="0"
     inkscape:window-maximized="1"
     inkscape:current-layer="layer1" />
  <defs
     id="defs20446">
    <clipPath
       id="clip-15">
      <path
         clip-rule="nonzero"
         d="m 300,65 h 29.32422 v 38 H 300 Z m 0,0"
         id="path19213" />
    </clipPath>
    <clipPath
       id="clip-16">
      <path
         clip-rule="nonzero"
         d="M 16.839844,16.839844 H 153 V 152.75391 H 16.839844 Z m 0,0"
         id="path19216" />
    </clipPath>
  </defs>
  <g
     inkscape:label="Layer 1"
     inkscape:groupmode="layer"
     id="layer1"
     transform="translate(-27.422499,-61.023509)">
    <path
       fill-rule="nonzero"
       fill="#ffffff"
       fill-opacity="1"
       d="m 37.321262,61.023509 -9.898763,63.365981 63.36598,9.89877 9.898761,-63.365988 z m 0,0"
       id="path20261"
       style="stroke-width:0.539052" />
    <path
       fill-rule="nonzero"
       fill="#e41f13"
       fill-opacity="1"
       d="m 150.77275,99.620473 -2.92057,0.0084 v -9.161779 h 2.95217 c 2.51416,0.01684 4.54614,2.057241 4.54614,4.575623 0,2.528912 -2.05093,4.577731 -4.57774,4.577731 m 8.13422,-4.575625 c 0,-0.0021 0,-0.0021 0,-0.0021 0,-3.958663 -2.8574,-7.241406 -6.62023,-7.917326 -0.04,-0.0084 -0.0822,-0.01268 -0.12209,-0.01895 -0.16846,-0.02737 -0.3348,-0.05895 -0.50536,-0.07581 -0.34533,-0.04211 -0.69487,-0.07159 -1.05073,-0.07159 h -8.23318 v 20.309203 h 5.47685 v -4.14185 h 2.75633 c 0.35586,0 0.7054,-0.0295 1.05073,-0.0716 0.15792,-0.0168 0.31164,-0.0442 0.46956,-0.0695 l 3.40698,4.28293 h 4.52509 l -4.47455,-5.72111 c 2.00881,-1.46344 3.32065,-3.828111 3.32065,-6.502315"
       id="path20263"
       style="stroke-width:0.539052" />
    <path
       fill-rule="nonzero"
       fill="#e41f13"
       fill-opacity="1"
       d="m 115.3343,86.959069 h -0.19372 l -4.47877,7.763613 -4.50614,-7.763613 h -6.180141 v 20.309211 h 5.476851 V 93.012876 l 3.85127,6.6455 1.32447,2.274124 1.39817,-2.274124 3.30801,-5.731639 v 13.341543 h 3.87234 V 86.959069 Z m 0,0"
       id="path20265"
       style="stroke-width:0.539052" />
    <g
       clip-path="url(#clip-15)"
       id="g20269"
       transform="matrix(0.53905199,0,0,0.53905199,18.347053,51.945958)">
      <path
         fill-rule="nonzero"
         fill="#e41f13"
         fill-opacity="1"
         d="m 300.48047,65.027344 v 7.113281 h 9.33984 v 30.488285 h 10.16016 V 72.140625 h 9.34375 v -7.113281 z m 0,0"
         id="path20267" />
    </g>
    <path
       fill-rule="nonzero"
       fill="#e41f13"
       fill-opacity="1"
       d="m 133.27252,100.21848 c -0.86332,0.46536 -1.84668,0.73067 -2.88899,0.73067 -1.10758,0 -2.14568,-0.2969 -3.0469,-0.817 -0.0821,-0.0484 -0.11797,-0.149499 -0.0863,-0.240045 l 2.9311,-8.500597 c 0.0611,-0.181088 0.31795,-0.178982 0.37692,0.0021 l 2.80896,8.584823 c 0.0295,0.09055 -0.0107,0.193719 -0.0947,0.240049 m -6.01169,-13.198349 -7.14665,20.248139 h 4.6051 l 1.38343,-4.05342 c 1.24445,0.79174 2.70999,1.25077 4.28083,1.25077 1.4887,0 2.88056,-0.41271 4.0829,-1.13074 l 1.29077,3.93339 h 5.47896 l -6.61602,-20.248139 z m 0,0"
       id="path20271"
       style="stroke-width:0.539052" />
    <path
       fill-rule="nonzero"
       fill="#e41f13"
       fill-opacity="1"
       d="m 178.99087,86.999077 h -5.0136 l -7.02875,8.553238 v -8.553238 h -5.47684 v 20.269203 h 5.47684 v -5.59267 0.002 l 1.46134,-1.783506 5.79481,7.374066 h 4.86199 l -8.13421,-10.448343 z m 0,0"
       id="path20273"
       style="stroke-width:0.539052" />
    <g
       clip-path="url(#clip-16)"
       id="g20277"
       transform="matrix(0.53905199,0,0,0.53905199,18.347053,51.945958)">
      <path
         fill-rule="nonzero"
         fill="#e41f13"
         fill-opacity="1"
         d="M 80.394531,72.140625 H 69.246094 v 9.179687 h 11.148437 v 7.183594 H 69.246094 v 7.109375 h 11.148437 v 7.015629 H 59.089844 V 65.066406 H 80.394531 Z M 140.26953,102.62891 137.875,95.332031 c -2.23047,1.328125 -4.8125,2.097657 -7.57422,2.097657 -2.91406,0 -5.63281,-0.851563 -7.9414,-2.320313 l -2.59375,7.519535 h -12.71875 l -9.847661,-13.750004 -2.539063,3.28125 v 10.468754 h -10.125 V 65.027344 h 10.125 V 81.429688 L 107.55469,65.066406 h 8.08594 l -13.76954,17.78125 10.94532,15.253906 11.6914,-33.035156 h 13.65235 L 144.875,85.621094 152.75391,35.203125 35.199219,16.835938 27.664062,65.082031 h 10.277344 c 10.210938,0.152344 18.449219,8.503907 18.449219,18.796875 0,9.9375 -7.660156,18.750004 -17.394531,18.750004 H 24.457031 V 85.609375 L 16.839844,134.39062 134.38672,152.75 l 7.83203,-50.12109 z m 0,0"
         id="path20275" />
    </g>
    <path
       fill-rule="nonzero"
       fill="#e41f13"
       fill-opacity="1"
       d="m 36.990671,91.081973 v 12.158147 h 1.655058 c 3.341702,0 6.0517,-2.72263 6.0517,-6.079071 0,-3.356441 -2.709998,-6.079076 -6.0517,-6.079076 z m 0,0"
       id="path20279"
       style="stroke-width:0.539052" />
    <path
       fill-rule="nonzero"
       fill="#e41f13"
       fill-opacity="1"
       d="m 88.381699,91.391508 -2.931094,8.500597 c -0.03158,0.09055 0.0063,0.191615 0.08844,0.240045 0.901224,0.5201 1.939324,0.817 3.044794,0.817 1.04442,0 2.02777,-0.26531 2.8911,-0.73067 0.0863,-0.0463 0.12423,-0.1495 0.0948,-0.240042 l -2.80897,-8.584825 c -0.0611,-0.181087 -0.31585,-0.183193 -0.37902,-0.0021"
       id="path20281"
       style="stroke-width:0.539052" />
  </g>
</svg>
