<?xml version="1.0" encoding="UTF-8"?>
<svg id="Ebene_2" data-name="Ebene 2" xmlns="http://www.w3.org/2000/svg" viewBox="0 0 396.96 84.96">
  <defs>
    <style>
      .cls-1 {
        fill: #fff;
      }

      .cls-2 {
        fill: #e4332b;
      }
    </style>
  </defs>
  <g id="Hintergrund">
    <rect class="cls-2" width="396.96" height="84.96"/>
  </g>
  <g id="Schriftzug">
    <path class="cls-1" d="M55.26,14.11c4.34,.01,7.86,.71,10.3,1.37,2.99,.81,5.75,1.55,8.8,3.72,4.1,2.9,6.06,6.48,6.65,7.63,1.93,3.78,2.15,7.09,2.35,10.04,.32,4.79-.5,8.41-.72,9.33-1.35,5.65-4.03,9.55-5.41,11.35-3.65,4.72-7.72,7.06-9.78,8.22-5.05,2.83-9.62,3.69-12.52,4.24-3.03,.57-5.8,.75-6.39,.78-1.83,.11-3.42,.11-4.7,.07l-25.89-.2L33.35,14.11h21.91"/>
    <path class="cls-2" d="M55.08,30.73c.75,.02,4.54,.19,6.8,3.11,1.27,1.64,1.48,3.4,1.66,4.99,.15,1.3,.48,4.49-1.27,7.83-2.01,3.83-5.44,5.37-6.99,6.07-3.26,1.46-6.25,1.52-7.92,1.42,0,0-5.62-.15-5.77,0-.15,.15,6.36-23.48,6.36-23.48h6.07"/>
    <polygon class="cls-1" points="80.63 70.87 96.02 14.11 144.28 14.11 140.11 29.7 110.57 29.5 109 35.63 136.39 35.83 132.93 49.13 105.41 49.2 103.78 55.13 133.65 55.33 129.61 70.87 80.63 70.87"/>
    <polygon class="cls-1" points="135.05 70.87 150.61 14.11 168.41 14.11 180.93 42 188.37 14.11 207.35 14.11 191.89 70.87 175.07 70.87 161.89 42 154 70.87 135.05 70.87"/>
    <polyline class="cls-1" points="198 70.87 213.55 14.11 231.36 14.11 243.88 42 251.32 14.11 270.29 14.11 254.84 70.87 238.01 70.87 224.84 42 216.95 70.87 198 70.87"/>
    <polygon class="cls-1" points="261.48 70.87 276.87 14.11 325.26 14.11 321.02 29.73 291.58 29.63 289.72 35.7 317.21 35.79 313.59 49.1 286.1 49.29 284.53 55.16 314.27 55.46 310.26 70.87 261.48 70.87"/>
    <path class="cls-1" d="M356.24,14.11c-2.23-.12-4.12-.08-5.51,0h-19.53c-2.57,9.38-5.12,18.78-7.68,28.21-3.84,14.14-7.68,28.33-7.68,28.55h18.88l4.4-16.4,5.09-.1,5.97,16.49h20.74l-7.92-18.74c2.02-.51,4.83-1.51,7.66-3.59,2.7-1.98,4.21-4.07,4.57-4.57,.63-.89,2.23-3.31,3.07-6.85,.1-.44,.55-2.42,.52-5.09-.02-1.48-.04-3.61-.91-6.07-.24-.67-1.34-3.61-4.17-6.26-3.1-2.89-6.49-3.76-9.65-4.57-3.09-.79-5.75-.93-7.83-1.04Z"/>
    <path class="cls-2" d="M342.74,40.91c5.16-.03,7.59-.02,8.77,0,.06,0,.22,0,.42,0,.71-.01,2.28-.06,3.86-.78,.8-.37,1.95-.89,2.77-2.15,.16-.24,.91-1.43,.85-3.13-.01-.4-.08-1.87-1.14-3.18-1.55-1.92-4.01-2.01-4.65-2.04-.23,0-.39,0-.51,0-1.35,.04-3.54,.07-7.26,0"/>
  </g>
</svg>