<?xml version="1.0" encoding="UTF-8" standalone="no"?>
<!-- Created with Inkscape (http://www.inkscape.org/) -->

<svg
   width="264.58334mm"
   height="212.10062mm"
   viewBox="0 0 264.58334 212.10062"
   version="1.1"
   id="svg1"
   inkscape:version="1.3.2 (091e20e, 2023-11-25, custom)"
   sodipodi:docname="DFI Nusantara.svg"
   xmlns:inkscape="http://www.inkscape.org/namespaces/inkscape"
   xmlns:sodipodi="http://sodipodi.sourceforge.net/DTD/sodipodi-0.dtd"
   xmlns="http://www.w3.org/2000/svg"
   xmlns:svg="http://www.w3.org/2000/svg">
  <sodipodi:namedview
     id="namedview1"
     pagecolor="#ffffff"
     bordercolor="#000000"
     borderopacity="0.25"
     inkscape:showpageshadow="2"
     inkscape:pageopacity="0.0"
     inkscape:pagecheckerboard="0"
     inkscape:deskcolor="#d1d1d1"
     inkscape:document-units="mm"
     inkscape:zoom="0.72782688"
     inkscape:cx="351.73199"
     inkscape:cy="345.54921"
     inkscape:window-width="1920"
     inkscape:window-height="1094"
     inkscape:window-x="-11"
     inkscape:window-y="-11"
     inkscape:window-maximized="1"
     inkscape:current-layer="layer1" />
  <defs
     id="defs1">
    <clipPath
       id="clipPath35331"
       clipPathUnits="userSpaceOnUse">
      <path
         inkscape:connector-curvature="0"
         id="path35329"
         d="m 463.53,739.052 h 80.722 v 64.71 H 463.53 Z" />
    </clipPath>
  </defs>
  <g
     inkscape:label="Layer 1"
     inkscape:groupmode="layer"
     id="layer1"
     transform="translate(-124.88333,-144.19792)">
    <path
       inkscape:connector-curvature="0"
       id="path35323"
       style="fill:#273473;fill-opacity:1;fill-rule:nonzero;stroke:none;stroke-width:3.27771"
       d="M 124.88333,356.29854 H 389.46666 V 144.19792 H 124.88333 Z" />
    <g
       clip-path="url(#clipPath35331)"
       id="g35327"
       transform="matrix(3.27771,0,0,-3.27771,-1394.4336,2778.6965)">
      <g
         transform="translate(495.846,776.664)"
         id="g35333">
        <path
           inkscape:connector-curvature="0"
           id="path35335"
           style="fill:#ffffff;fill-opacity:1;fill-rule:nonzero;stroke:none"
           d="m 0,0 c 0,1.077 -0.164,2.094 -0.493,3.048 -0.329,0.955 -0.785,1.8 -1.369,2.535 -0.707,0.905 -1.589,1.609 -2.648,2.112 -1.059,0.501 -2.355,0.752 -3.888,0.752 H -12.05 V -8.448 h 3.652 c 1.533,0 2.829,0.251 3.888,0.753 1.059,0.502 1.941,1.206 2.648,2.112 0.584,0.735 1.04,1.58 1.369,2.534 C -0.164,-2.094 0,-1.078 0,0 m -8.946,12.855 c 2.045,0 3.761,-0.209 5.148,-0.625 1.388,-0.416 2.605,-1.016 3.652,-1.8 C 1.436,9.255 2.678,7.761 3.578,5.95 4.479,4.137 4.93,2.154 4.93,0 c 0,-2.155 -0.451,-4.138 -1.352,-5.95 -0.9,-1.812 -2.142,-3.306 -3.724,-4.481 -1.047,-0.784 -2.264,-1.383 -3.652,-1.799 -1.387,-0.417 -3.103,-0.625 -5.148,-0.625 h -8.033 v 25.71 z" />
      </g>
      <path
         inkscape:connector-curvature="0"
         id="path35337"
         style="fill:#ffffff;fill-opacity:1;fill-rule:nonzero;stroke:none"
         d="m 508.184,763.809 h -4.93 v 25.71 h 4.93 z" />
      <path
         inkscape:connector-curvature="0"
         id="path35339"
         style="fill:#ffffff;fill-opacity:1;fill-rule:nonzero;stroke:none"
         d="m 528.916,763.809 h -4.93 v 25.71 h 4.93 z" />
      <path
         inkscape:connector-curvature="0"
         id="path35341"
         style="fill:#ffffff;fill-opacity:1;fill-rule:nonzero;stroke:none"
         d="m 509.515,789.519 h 10.734 v -4.958 h -10.734 z" />
      <path
         inkscape:connector-curvature="0"
         id="path35343"
         style="fill:#ffffff;fill-opacity:1;fill-rule:nonzero;stroke:none"
         d="m 509.515,780.481 h 8.16 v -4.958 h -8.16 z" />
      <g
         transform="translate(478.893,758.494)"
         id="g35345">
        <path
           inkscape:connector-curvature="0"
           id="path35347"
           style="fill:#ffffff;fill-opacity:1;fill-rule:nonzero;stroke:none"
           d="M 0,0 H 0.336 L 4.282,-4.268 V 0 H 4.786 V -5.125 H 4.45 L 0.504,-0.857 V -5.125 H 0 Z" />
      </g>
      <g
         transform="translate(487.75,753.296)"
         id="g35349">
        <path
           inkscape:connector-curvature="0"
           id="path35351"
           style="fill:#ffffff;fill-opacity:1;fill-rule:nonzero;stroke:none"
           d="M 0,0 C -0.425,0 -0.814,0.084 -1.167,0.253 -1.52,0.421 -1.8,0.647 -2.007,0.93 -2.119,1.081 -2.204,1.249 -2.263,1.435 -2.321,1.62 -2.351,1.85 -2.351,2.123 v 3.075 h 0.504 V 2.101 c 0,-0.224 0.022,-0.41 0.067,-0.556 0.045,-0.147 0.109,-0.278 0.193,-0.396 0.162,-0.224 0.384,-0.402 0.663,-0.534 0.28,-0.132 0.588,-0.198 0.924,-0.198 0.336,0 0.644,0.066 0.924,0.198 0.279,0.132 0.501,0.31 0.663,0.534 0.084,0.118 0.148,0.249 0.193,0.396 0.045,0.146 0.067,0.332 0.067,0.556 V 5.198 H 2.351 V 2.123 C 2.351,1.85 2.322,1.62 2.263,1.435 2.204,1.249 2.119,1.081 2.007,0.93 1.799,0.647 1.52,0.421 1.167,0.253 0.814,0.084 0.425,0 0,0" />
      </g>
      <g
         transform="translate(491.604,754.445)"
         id="g35353">
        <path
           inkscape:connector-curvature="0"
           id="path35355"
           style="fill:#ffffff;fill-opacity:1;fill-rule:nonzero;stroke:none"
           d="m 0,0 c 0.084,-0.098 0.178,-0.19 0.281,-0.278 0.104,-0.088 0.22,-0.166 0.349,-0.234 0.128,-0.069 0.27,-0.123 0.424,-0.161 0.153,-0.04 0.328,-0.059 0.524,-0.059 0.146,0 0.291,0.022 0.437,0.066 0.145,0.044 0.276,0.107 0.39,0.19 0.115,0.083 0.207,0.184 0.277,0.304 0.07,0.12 0.106,0.253 0.106,0.399 0,0.234 -0.071,0.422 -0.211,0.564 C 2.438,0.932 2.263,1.052 2.053,1.149 1.843,1.247 1.613,1.337 1.364,1.421 1.115,1.503 0.884,1.603 0.672,1.72 0.453,1.838 0.266,1.978 0.109,2.142 c -0.157,0.163 -0.235,0.374 -0.235,0.633 0,0.2 0.043,0.383 0.13,0.549 C 0.091,3.49 0.208,3.631 0.357,3.749 0.505,3.866 0.681,3.957 0.886,4.023 1.09,4.089 1.31,4.122 1.545,4.122 1.735,4.122 1.907,4.105 2.061,4.071 2.215,4.036 2.354,3.994 2.477,3.943 2.6,3.891 2.709,3.835 2.804,3.774 2.899,3.713 2.98,3.658 3.048,3.609 L 2.729,3.287 C 2.555,3.419 2.379,3.522 2.2,3.595 2.021,3.668 1.808,3.705 1.562,3.705 1.399,3.705 1.245,3.684 1.1,3.642 0.954,3.601 0.828,3.54 0.722,3.459 0.616,3.379 0.532,3.283 0.47,3.17 0.408,3.058 0.378,2.933 0.378,2.797 0.378,2.602 0.444,2.444 0.575,2.325 0.707,2.205 0.873,2.1 1.075,2.01 1.276,1.919 1.494,1.834 1.73,1.754 1.965,1.673 2.188,1.577 2.401,1.464 2.524,1.396 2.639,1.321 2.745,1.241 2.852,1.16 2.945,1.07 3.027,0.97 3.108,0.87 3.172,0.758 3.22,0.633 3.267,0.509 3.291,0.374 3.291,0.227 3.291,0.022 3.246,-0.165 3.157,-0.333 3.067,-0.501 2.945,-0.646 2.792,-0.765 2.638,-0.885 2.457,-0.979 2.25,-1.047 2.043,-1.115 1.819,-1.149 1.578,-1.149 c -0.794,0 -1.444,0.287 -1.947,0.863 z" />
      </g>
      <g
         transform="translate(497.212,755.331)"
         id="g35357">
        <path
           inkscape:connector-curvature="0"
           id="path35359"
           style="fill:#ffffff;fill-opacity:1;fill-rule:nonzero;stroke:none"
           d="M 0,0 H 2.443 L 1.226,2.475 Z M 1.394,3.163 3.929,-1.962 H 3.426 l -0.773,1.545 h -2.855 l -0.772,-1.545 h -0.503 l 2.535,5.125 z" />
      </g>
      <g
         transform="translate(502.233,758.494)"
         id="g35361">
        <path
           inkscape:connector-curvature="0"
           id="path35363"
           style="fill:#ffffff;fill-opacity:1;fill-rule:nonzero;stroke:none"
           d="M 0,0 H 0.336 L 4.282,-4.268 V 0 H 4.786 V -5.125 H 4.45 L 0.504,-0.857 V -5.125 H 0 Z" />
      </g>
      <g
         transform="translate(512.098,758.494)"
         id="g35365">
        <path
           inkscape:connector-curvature="0"
           id="path35367"
           style="fill:#ffffff;fill-opacity:1;fill-rule:nonzero;stroke:none"
           d="m 0,0 v -0.417 h -1.679 v -4.708 h -0.504 v 4.708 H -3.862 V 0 Z" />
      </g>
      <g
         transform="translate(513.492,755.331)"
         id="g35369">
        <path
           inkscape:connector-curvature="0"
           id="path35371"
           style="fill:#ffffff;fill-opacity:1;fill-rule:nonzero;stroke:none"
           d="M 0,0 H 2.443 L 1.226,2.475 Z M 1.394,3.163 3.929,-1.962 H 3.426 l -0.773,1.545 h -2.855 l -0.772,-1.545 h -0.503 l 2.535,5.125 z" />
      </g>
      <g
         transform="translate(520.495,756.408)"
         id="g35373">
        <path
           inkscape:connector-curvature="0"
           id="path35375"
           style="fill:#ffffff;fill-opacity:1;fill-rule:nonzero;stroke:none"
           d="M 0,0 C 0.213,0 0.381,0.019 0.504,0.059 0.627,0.097 0.73,0.151 0.814,0.22 0.909,0.298 0.985,0.389 1.041,0.494 1.097,0.599 1.125,0.713 1.125,0.834 1.125,0.957 1.097,1.07 1.041,1.175 0.985,1.28 0.909,1.371 0.814,1.45 0.73,1.518 0.627,1.572 0.504,1.611 0.381,1.65 0.213,1.669 0,1.669 H -1.478 V 0 Z m 1.78,-3.038 -2.267,2.621 h -0.991 v -2.621 h -0.504 v 5.125 h 2.007 c 0.269,0 0.494,-0.03 0.676,-0.088 C 0.883,1.94 1.038,1.86 1.167,1.757 1.312,1.645 1.426,1.509 1.507,1.351 1.588,1.192 1.629,1.02 1.629,0.834 1.629,0.649 1.588,0.477 1.507,0.318 1.426,0.16 1.312,0.024 1.167,-0.088 1.044,-0.185 0.9,-0.262 0.735,-0.318 0.57,-0.375 0.364,-0.408 0.117,-0.417 l 2.267,-2.621 z" />
      </g>
      <g
         transform="translate(524.986,755.331)"
         id="g35377">
        <path
           inkscape:connector-curvature="0"
           id="path35379"
           style="fill:#ffffff;fill-opacity:1;fill-rule:nonzero;stroke:none"
           d="M 0,0 H 2.443 L 1.226,2.475 Z M 1.394,3.163 3.929,-1.962 H 3.426 l -0.773,1.545 h -2.855 l -0.772,-1.545 h -0.503 l 2.535,5.125 z" />
      </g>
    </g>
  </g>
</svg>
