<?xml version="1.0" encoding="UTF-8" standalone="no"?>
<svg
   xmlns:dc="http://purl.org/dc/elements/1.1/"
   xmlns:cc="http://creativecommons.org/ns#"
   xmlns:rdf="http://www.w3.org/1999/02/22-rdf-syntax-ns#"
   xmlns:svg="http://www.w3.org/2000/svg"
   xmlns="http://www.w3.org/2000/svg"
   xmlns:sodipodi="http://sodipodi.sourceforge.net/DTD/sodipodi-0.dtd"
   xmlns:inkscape="http://www.inkscape.org/namespaces/inkscape"
   width="460.19934"
   height="135.61584"
   viewBox="0 0 35.482474 10.456307"
   version="1.1"
   id="svg10"
   sodipodi:docname="dia-1.svg"
   inkscape:version="0.92.2 (5c3e80d, 2017-08-06)">
  <metadata
     id="metadata16">
    <rdf:RDF>
      <cc:Work
         rdf:about="">
        <dc:format>image/svg+xml</dc:format>
        <dc:type
           rdf:resource="http://purl.org/dc/dcmitype/StillImage" />
        <dc:title></dc:title>
      </cc:Work>
    </rdf:RDF>
  </metadata>
  <defs
     id="defs14" />
  <sodipodi:namedview
     pagecolor="#ffffff"
     bordercolor="#666666"
     borderopacity="1"
     objecttolerance="10"
     gridtolerance="10"
     guidetolerance="10"
     inkscape:pageopacity="0"
     inkscape:pageshadow="2"
     inkscape:window-width="1366"
     inkscape:window-height="705"
     id="namedview12"
     showgrid="false"
     fit-margin-top="0"
     fit-margin-left="0"
     fit-margin-right="0"
     fit-margin-bottom="0"
     inkscape:zoom="1"
     inkscape:cx="42.59967"
     inkscape:cy="12.553661"
     inkscape:window-x="-8"
     inkscape:window-y="-8"
     inkscape:window-maximized="1"
     inkscape:current-layer="svg10" />
  <g
     id="g21"
     transform="matrix(0.1989139,0,0,0.1989139,-1.453265,-13.94287)">
    <path
       id="path4"
       d="m 153.559,118.553 h -14.231 l 30.861,-45.548 h 13.889 z M 7.306,70.095 h 17.146 c 7.887,0 11.831,1.027 16.289,3.767 7.029,4.281 10.801,12.157 10.801,21.746 0,15.41 -9.43,25.855 -24.175,25.855 H 7.306 Z m 18.689,39.725 c 8.23,0 12.517,-4.967 12.517,-13.87 0,-9.075 -4.458,-14.383 -12.517,-14.383 H 20.337 V 109.82 Z M 54.457,82.937 h 11.487 v 38.526 H 54.457 Z m 0,-12.842 h 11.487 v 8.732 H 54.457 Z m 56.41,51.368 H 99.379 v -4.281 c -1.887,3.768 -5.487,5.48 -11.488,5.48 -11.488,0 -19.375,-8.391 -19.375,-20.547 0,-11.987 8.23,-20.548 19.546,-20.548 5.829,0 9.258,1.712 11.316,5.479 v -4.109 h 11.488 v 38.526 z m -21.262,-9.588 c 5.658,0 9.773,-4.109 9.773,-9.76 0,-5.652 -4.116,-9.761 -9.773,-9.761 -5.315,0 -9.602,4.28 -9.602,9.761 0.001,5.651 4.288,9.76 9.602,9.76 z"
       inkscape:connector-curvature="0"
       style="clip-rule:evenodd;fill:#cc2132;fill-rule:evenodd" />
    <path
       id="path6"
       stroke-miterlimit="2.613"
       d="M 137.785,120.094 V 82.252 c 0,-5.822 4.973,-10.788 10.801,-10.788 h 36.863 v 37.842 a 10.75,10.75 0 0 1 -10.801,10.787 h -36.863 z"
       inkscape:connector-curvature="0"
       style="fill:none;stroke:#cc2132;stroke-width:0.47600001;stroke-miterlimit:2.61299992" />
    <path
       id="path8"
       d="m 149.102,92.525 a 9.58,9.58 0 0 0 9.602,-9.588 c 0,-5.479 -4.287,-9.76 -9.602,-9.76 -5.486,0 -9.773,4.281 -9.773,9.76 -0.001,5.308 4.286,9.588 9.773,9.588 z m 25.031,26.198 c 5.486,0 9.773,-4.279 9.773,-9.76 0,-5.309 -4.287,-9.588 -9.773,-9.588 a 9.58,9.58 0 0 0 -9.602,9.588 c 0,5.48 4.287,9.76 9.602,9.76 z"
       inkscape:connector-curvature="0"
       style="clip-rule:evenodd;fill:#cc2132;fill-rule:evenodd" />
  </g>
</svg>
