<?xml version="1.0" encoding="UTF-8" standalone="no"?>
<!-- Created with Inkscape (http://www.inkscape.org/) -->

<svg
   xmlns:dc="http://purl.org/dc/elements/1.1/"
   xmlns:cc="http://creativecommons.org/ns#"
   xmlns:rdf="http://www.w3.org/1999/02/22-rdf-syntax-ns#"
   xmlns:svg="http://www.w3.org/2000/svg"
   xmlns="http://www.w3.org/2000/svg"
   xmlns:sodipodi="http://sodipodi.sourceforge.net/DTD/sodipodi-0.dtd"
   xmlns:inkscape="http://www.inkscape.org/namespaces/inkscape"
   width="300"
   height="80.799202"
   id="svg2"
   version="1.1"
   inkscape:version="0.47 r22583"
   sodipodi:docname="Diona old Logo_mini.svg">
  <defs
     id="defs4" />
  <sodipodi:namedview
     id="base"
     pagecolor="#ffffff"
     bordercolor="#666666"
     borderopacity="1.0"
     inkscape:pageopacity="0.0"
     inkscape:pageshadow="2"
     inkscape:zoom="3.08"
     inkscape:cx="150"
     inkscape:cy="40.399601"
     inkscape:document-units="px"
     inkscape:current-layer="layer1"
     showgrid="false"
     inkscape:window-width="1024"
     inkscape:window-height="749"
     inkscape:window-x="-4"
     inkscape:window-y="-4"
     inkscape:window-maximized="1" />
  <metadata
     id="metadata7">
    <rdf:RDF>
      <cc:Work
         rdf:about="">
        <dc:format>image/svg+xml</dc:format>
        <dc:type
           rdf:resource="http://purl.org/dc/dcmitype/StillImage" />
        <dc:title></dc:title>
        <cc:license
           rdf:resource="http://creativecommons.org/licenses/by-sa/3.0/" />
      </cc:Work>
      <cc:License
         rdf:about="http://creativecommons.org/licenses/by-sa/3.0/">
        <cc:permits
           rdf:resource="http://creativecommons.org/ns#Reproduction" />
        <cc:permits
           rdf:resource="http://creativecommons.org/ns#Distribution" />
        <cc:requires
           rdf:resource="http://creativecommons.org/ns#Notice" />
        <cc:requires
           rdf:resource="http://creativecommons.org/ns#Attribution" />
        <cc:permits
           rdf:resource="http://creativecommons.org/ns#DerivativeWorks" />
        <cc:requires
           rdf:resource="http://creativecommons.org/ns#ShareAlike" />
      </cc:License>
    </rdf:RDF>
  </metadata>
  <g
     inkscape:label="Layer 1"
     inkscape:groupmode="layer"
     id="layer1"
     transform="translate(-130,-409.1054)">
    <g
       transform="matrix(1.6035406,0,0,-1.6035406,-197.27462,1124.5074)"
       inkscape:label="ink_ext_XXXXXX"
       id="g2826">
      <g
         transform="scale(0.1,0.1)"
         id="g2828">
        <path
           id="path2832"
           style="fill:#ed1c24;fill-opacity:1;fill-rule:evenodd;stroke:none"
           d="m 2268.58,4056.51 c 85.96,1.78 155.9,71.73 155.9,157.68 0,86.55 -69.94,156.5 -155.9,158.27 l -52.76,0 0,-60.46 49.8,0 0.59,0 c 53.94,0 98.4,-43.87 98.4,-97.81 0,-53.35 -44.46,-97.22 -98.4,-97.22 0,0 0,0 -0.59,0 l 0,0 -77.66,0 0,283.95 77.66,0 0,0 1.77,0 c 102.56,-0.59 186.15,-84.18 186.15,-186.73 0,-99.59 -79.44,-181.39 -177.85,-186.14 l 0,0.6 -177.84,0 0,392.42 -56.9,-54.53 0,-398.95 224.67,0 c 0.59,0 0.59,0 0.59,0 l 9.48,0 c 131.6,5.33 237.71,114.41 237.71,246.6 0,135.16 -109.66,245.42 -244.82,247.2 l -1.19,0 c -0.59,0 -0.59,0 -1.18,0 l -0.59,0 0,0 -133.39,0 0,-404.88 133.39,0 c 0.59,0 0.59,0 0.59,0 l 2.37,0" />
        <path
           id="path2834"
           style="fill:#ed1c24;fill-opacity:1;fill-rule:evenodd;stroke:none"
           d="m 2546.01,4349.35 114.41,0 0,104.926 -114.41,0 0,-104.926 z" />
        <path
           id="path2836"
           style="fill:#ed1c24;fill-opacity:1;fill-rule:evenodd;stroke:none"
           d="m 2546.01,3967.59 114.41,0 0,351.527 -114.41,0 0,-351.527 z" />
        <path
           id="path2838"
           style="fill:#ed1c24;fill-opacity:1;fill-rule:evenodd;stroke:none"
           d="m 3769.54,3968.18 -38.53,0 c -4.74,-0.59 -10.08,-0.59 -15.42,-0.59 -104.33,0 -189.1,85.36 -189.1,189.69 0,103.74 84.77,189.11 189.1,189.11 5.34,0 10.68,-0.6 15.42,-0.6 l 180.8,0 0,-282.17 -111.45,-96.03 0,278.02 -69.35,0 c -48.02,0 -86.55,-38.53 -86.55,-86.55 0,-48.01 38.53,-87.14 86.55,-87.14 l 38.53,0 0,-103.74" />
        <path
           id="path2840"
           style="fill:#ed1c24;fill-opacity:1;fill-rule:evenodd;stroke:none"
           d="m 3336.21,4246.8 c 34.38,-4.16 48.01,-27.87 48.01,-69.96 l 0,-209.25 114.41,0 0,209.25 c 0,113.82 -57.5,171.91 -161.83,170.73 -66.39,-0.59 -132.79,-0.59 -199.18,-0.59 l 0,-379.39 115,0 0,279.21 83.59,0" />
        <path
           id="path2842"
           style="fill:#ed1c24;fill-opacity:1;fill-rule:evenodd;stroke:none"
           d="m 2896.35,4066.59 c 48.02,0 86.55,40.9 86.55,91.88 0,50.39 -38.53,91.88 -86.55,91.88 -48.01,0 -87.14,-41.49 -87.14,-91.88 0,-50.98 39.13,-91.88 87.14,-91.88 z m 0,291.65 c 111.44,0 202.74,-90.11 202.74,-199.77 0,-110.26 -91.3,-200.96 -202.74,-200.96 -112.04,0 -203.33,90.7 -203.33,200.96 0,109.66 91.29,199.77 203.33,199.77" />
      </g>
    </g>
  </g>
</svg>
