<?xml version="1.0" encoding="UTF-8" standalone="no"?>
<!-- Created with Inkscape (http://www.inkscape.org/) -->
<svg
   xmlns:svg="http://www.w3.org/2000/svg"
   xmlns="http://www.w3.org/2000/svg"
   version="1.0"
   width="744.09448"
   height="292.32281"
   id="svg2231">
  <defs
     id="defs2233">
    <clipPath
       id="clp16">
      <path
         d="M 0.06,737.1 L 581.22,737.1 L 581.22,0.06 L 0.06,0.06 L 0.06,737.1 z "
         id="path10105" />
    </clipPath>
    <clipPath
       id="clp63">
      <path
         d="M 0.06,737.1 L 581.22,737.1 L 581.22,0.06 L 0.06,0.06 L 0.06,737.1 z "
         id="path11432" />
    </clipPath>
  </defs>
  <g
     transform="translate(-1047.6074,-285.16877)"
     id="layer1">
    <path
       d="M 1626.9663,302.92558 C 1607.3749,303.21625 1581.8318,325.74502 1568.4316,339.55204 C 1555.0314,353.3591 1540.9111,373.86997 1532.4818,387.38636 C 1524.0377,400.75742 1512.3466,424.98942 1510.5736,428.62285 C 1508.8003,432.25629 1507.0081,434.60777 1504.145,435.7705 C 1504.145,435.7705 1506.8573,424.44807 1507.6131,421.68666 C 1508.3542,418.7799 1507.5183,415.12267 1504.1027,413.52395 C 1500.6872,412.07058 1491.3102,413.25247 1483.5056,415.72323 C 1475.7009,418.19397 1470.3278,428.36677 1465.4884,437.37767 C 1460.634,446.24328 1452.3901,453.93915 1447.725,456.40989 C 1443.0594,458.73535 1439.6059,455.69244 1439.5623,452.34969 C 1439.5187,448.86163 1442.7908,438.39424 1453.6038,427.05797 C 1464.4315,415.72166 1476.3823,410.75563 1482.6174,408.57557 C 1488.8666,406.39554 1494.581,403.48266 1494.7557,397.95982 C 1494.9445,392.58234 1488.5631,384.47885 1470.8174,385.0602 C 1453.0571,385.49624 1428.9815,403.35417 1423.5752,409.16768 C 1418.1685,414.98112 1410.2449,427.62314 1407.2075,434.16334 C 1404.1552,440.70353 1401.6682,451.4646 1401.1595,452.77262 C 1400.6656,454.08063 1399.6749,454.96112 1398.8756,454.37979 C 1398.0908,453.94374 1395.7164,453.62927 1393.8849,454.21061 C 1392.0684,454.79195 1384.5589,460.04025 1379.6319,463.09232 C 1374.7049,465.99912 1373.1222,463.09388 1374.895,459.75111 C 1376.6829,456.26305 1401.4909,417.59259 1404.543,411.19779 C 1407.5949,404.94826 1408.8009,397.54227 1394.6885,397.83294 C 1380.5907,397.97828 1369.7245,405.67803 1365.3789,412.5089 C 1361.8036,418.17707 1338.3953,450.44644 1329.9367,458.44 C 1323.7455,464.25351 1320.2889,458.30387 1322.3238,454.37979 C 1323.719,451.7637 1331.2272,437.19928 1333.7854,433.27517 C 1336.3431,429.35106 1344.0312,418.05094 1348.842,406.71464 C 1353.6528,395.52361 1344.1862,389.82093 1338.184,389.96628 C 1332.1667,389.96628 1290.4812,398.68421 1288.9117,398.97487 C 1287.8796,399.12025 1286.5654,397.41235 1286.2894,396.39495 C 1286.42,396.831 1281.8138,386.77579 1268.3992,386.92113 C 1251.685,387.21184 1236.1811,400.13758 1229.7426,406.9684 C 1223.3042,413.94464 1202.496,438.53638 1202.3362,465.71454 C 1202.1765,492.89262 1223.6506,498.55296 1231.2229,498.40767 C 1245.3638,498.40767 1253.3482,493.16559 1262.5626,484.15465 C 1266.4576,480.23054 1271.0662,474.27482 1273.8128,469.47869 C 1288.0562,445.20732 1291.7723,430.66374 1288.9962,423.25153 C 1288.5311,421.94351 1289.9643,419.7781 1291.5339,419.48738 C 1293.0893,419.19671 1298.3158,417.90635 1302.9955,417.03434 C 1307.6901,416.16228 1306.6854,418.34079 1305.4063,420.37555 C 1295.2327,437.23465 1281.1799,462.49479 1281.3834,478.19122 C 1281.514,488.07417 1288.1522,497.11506 1301.7267,496.96968 C 1315.3157,496.82439 1326.3857,486.50157 1328.2026,485.33887 C 1330.0192,484.32148 1332.0924,482.69127 1332.136,485.88869 C 1332.1795,488.94075 1337.5544,498.38383 1347.7424,498.23849 C 1357.9308,498.09311 1366.18,493.03168 1374.7258,487.07292 C 1383.2716,481.25941 1396.4059,467.01717 1397.4376,465.41848 C 1398.4548,463.81975 1399.2268,464.3988 1399.2563,466.43353 C 1399.4015,476.89784 1409.8028,491.15158 1421.0376,491.00625 C 1432.2577,490.86087 1438.9673,485.46582 1450.3472,477.47222 C 1448.7922,478.48961 1436.1715,490.69632 1430.7652,496.8005 C 1428.0617,499.85259 1423.5106,505.21388 1419.5573,511.8994 C 1415.5894,518.58493 1412.2354,526.7315 1411.9444,535.16101 C 1411.3925,552.16551 1424.8454,559.87901 1433.7257,559.73372 C 1442.6055,559.5884 1454.014,554.22632 1464.3042,542.30867 C 1486.6859,516.4386 1495.7923,471.24351 1496.4898,468.33675 C 1496.7368,467.17402 1498.7989,465.40237 1499.831,464.53031 C 1500.8627,463.80363 1502.1704,464.235 1502.1995,466.56041 C 1502.4027,481.53013 1508.6202,497.68325 1525.3342,497.39262 C 1542.0478,497.10195 1547.1664,488.96767 1549.2302,487.36898 C 1551.3086,485.77028 1558.7437,476.32182 1559.7614,474.72312 C 1560.7931,473.12443 1561.5125,472.54299 1561.876,474.72312 C 1562.3123,477.33917 1566.7215,486.33166 1570.1656,490.83707 C 1573.6248,495.19723 1582.3104,499.26665 1589.6208,498.83061 C 1596.9311,498.53994 1604.1716,493.74693 1605.9885,492.14818 C 1607.7906,490.54949 1609.0299,491.29458 1609.6258,492.0213 C 1610.2508,493.03861 1616.0059,498.55296 1625.1476,498.40767 C 1640.2917,498.26233 1655.2074,480.22677 1662.1547,472.52384 C 1671.0638,462.78627 1709.7844,421.5128 1707.1977,423.54759 C 1708.9124,422.23948 1712.8869,418.59921 1714.9797,418.59921 C 1717.0581,418.59921 1718.6794,421.65284 1718.9553,423.25153 C 1719.2463,424.70488 1718.7234,426.59583 1716.1217,427.90385 C 1714.5666,428.77586 1707.4859,432.84836 1700.6844,437.20849 L 1698.6543,438.5196 C 1694.0904,441.42641 1691.7079,443.17267 1689.2228,445.49808 C 1683.0312,451.3116 1682.0953,459.18204 1681.9059,464.99554 C 1681.7171,470.80906 1684.2523,483.30102 1692.9869,492.0213 C 1701.7217,500.74153 1720.9074,498.70068 1728.2177,489.39908 C 1737.9845,477.04539 1748.1116,454.37286 1748.0535,449.43141 C 1748.0535,449.43141 1748.6568,447.24522 1750.6334,446.80919 C 1762.6675,444.48378 1764.619,438.07134 1767.4241,433.27517 C 1770.2286,428.47903 1773.8194,419.9011 1773.9796,415.97699 C 1774.1829,411.18087 1768.9249,410.49187 1766.832,410.05585 C 1764.7391,409.61981 1759.8051,410.61643 1757.189,411.19779 C 1754.5872,411.77913 1752.9729,411.2155 1753.0019,408.74474 C 1753.0746,401.91389 1745.1086,385.19248 1732.8277,385.48314 C 1720.5613,385.62848 1696.8109,408.89231 1690.1109,415.72323 C 1683.4105,422.69938 1655.8859,453.34473 1651.4967,456.83283 C 1647.0931,460.1756 1647.2885,455.80395 1647.5211,453.91456 C 1647.7679,452.02523 1660.7847,428.48749 1661.8164,426.8888 C 1662.834,425.29006 1665.0884,419.05827 1662.7045,416.44222 C 1660.3212,413.82614 1654.5747,413.66164 1645.9562,414.24294 C 1637.3377,414.82434 1629.591,422.09038 1625.7397,427.90385 C 1621.9026,433.57204 1613.7624,448.11803 1608.3993,457.12889 C 1603.0365,465.99454 1596.7009,461.50131 1596.5993,454.37979 C 1596.4976,447.40362 1603.4288,436.49417 1612.1634,426.46586 C 1620.913,416.43761 1638.0728,409.76443 1643.7992,407.72969 C 1649.5254,405.84033 1651.2921,404.21238 1652.0042,399.27093 C 1652.7308,394.32942 1645.3469,388.65753 1641.6845,387.64012 C 1638.0074,386.62278 1625.4542,385.02862 1609.1183,393.60355 C 1592.7678,402.17846 1579.3976,417.46951 1571.4767,430.69524 C 1563.556,443.92096 1561.1925,463.51301 1560.9456,464.53031 C 1560.6982,465.5477 1561.1805,466.13747 1559.9305,466.13747 C 1558.6805,465.99219 1558.1272,464.53874 1555.7434,466.13747 C 1553.7526,467.44554 1551.6028,470.04693 1545.3392,469.90163 C 1540.0923,469.75624 1538.4901,465.42697 1538.403,459.03211 C 1538.3448,454.96267 1540.8194,444.17546 1541.575,441.2687 C 1542.3163,438.36194 1544.3592,436.05266 1546.9463,434.16334 C 1549.9111,431.98322 1589.943,404.8161 1609.2874,386.79425 C 1613.6914,382.72481 1618.127,377.90023 1622.3562,372.66811 C 1636.7736,355.22756 1648.7792,334.03771 1648.663,325.17213 C 1648.5904,319.21329 1646.558,302.78025 1626.9663,302.92558 z M 1149.765,321.23881 C 1135.9145,321.38414 1111.1399,328.64791 1102.565,335.91477 C 1093.9901,343.32697 1087.6062,361.65245 1087.6353,367.46597 C 1087.6644,373.1341 1089.7966,380.25715 1095.2905,380.11182 C 1103.1241,379.82115 1114.8076,371.39776 1122.6123,366.74697 C 1130.417,361.95081 1147.8619,349.9986 1159.6194,349.99861 C 1177.9031,349.85331 1186.0638,362.64214 1186.1799,379.64659 C 1186.2821,396.50575 1177.522,417.73096 1158.3083,438.22355 C 1139.1092,458.71615 1109.388,465.72298 1102.3536,467.3217 C 1095.3046,468.9204 1073.6309,473.54967 1070.5063,474.13101 C 1067.3672,474.56706 1065.0701,479.81294 1065.3465,484.02777 C 1066.7853,504.66569 1090.0426,508.99955 1100.4926,508.85424 C 1110.9425,508.85424 1146.4377,504.66496 1176.5369,473.70807 C 1219.513,429.38016 1216.7874,390.11855 1216.7584,386.92113 C 1216.7438,383.86907 1216.0751,357.00101 1200.3061,341.1592 C 1184.537,325.31743 1163.6013,321.23881 1149.765,321.23881 z M 1604.7197,342.93554 C 1607.4592,342.79928 1608.4047,345.27437 1607.1727,347.67245 C 1604.2514,353.48597 1599.2881,360.19374 1593.3004,367.16991 C 1581.1212,381.26768 1564.6793,395.64133 1552.5291,402.9082 C 1549.4187,404.79761 1550.4477,402.77284 1551.218,401.17415 C 1557.8452,387.36707 1588.5308,351.30206 1601.3785,344.03518 C 1602.6721,343.3085 1603.8065,342.98096 1604.7197,342.93554 z M 1157.8008,353.63588 C 1155.7079,353.63588 1153.3737,355.25457 1151.0338,358.16132 C 1148.7085,361.06808 1104.1888,428.92503 1103.1571,431.54112 C 1102.1395,434.15721 1096.9387,440.98798 1096.9823,447.52819 C 1097.0258,454.06837 1102.0153,457.99313 1106.7098,457.84788 C 1111.4185,457.84788 1114.8119,457.84336 1128.5757,443.89092 C 1158.5588,413.51537 1164.9725,373.71166 1164.6524,363.8287 C 1164.3328,353.80044 1160.6639,353.63588 1157.8008,353.63588 z M 1255.2881,422.15189 C 1255.5533,422.11527 1255.8041,422.26568 1256.0494,422.70171 C 1256.8923,424.15507 1260.4382,426.17524 1262.6472,426.46586 C 1263.432,426.61119 1264.4944,426.47433 1264.0006,428.07303 C 1263.5209,429.52638 1255.0267,447.25591 1248.225,455.39484 C 1247.8615,455.8308 1247.4885,456.26995 1247.1254,456.70595 C 1235.4403,469.205 1234.3574,456.52985 1236.0867,451.5884 C 1239.11,443.01351 1249.5956,427.19947 1253.7232,423.4207 C 1254.3683,422.78486 1254.8461,422.21293 1255.2881,422.15189 z M 1714.9797,458.48229 C 1715.6392,458.57312 1715.7855,459.14899 1714.7683,460.89304 C 1712.7191,464.23581 1710.9754,470.04467 1708.6356,470.91668 C 1706.2959,471.64336 1701.5914,471.5073 1702.8414,466.85647 C 1703.4519,464.38573 1705.4866,462.66634 1707.536,461.35827 C 1709.5707,460.05025 1711.6228,459.17745 1712.146,459.03211 C 1713.1562,458.81413 1714.3203,458.39146 1714.9797,458.48229 z M 1460.54,490.28725 C 1460.9978,490.35993 1461.1366,490.93126 1460.7515,492.0213 C 1460.0102,494.05601 1458.0161,503.21226 1455.211,508.00837 C 1452.4059,512.80449 1442.6557,527.77112 1437.7437,530.67786 C 1432.8167,533.58462 1429.6873,531.83055 1432.7107,524.41837 C 1433.5536,522.52897 1434.8095,520.18829 1436.2634,517.86283 C 1440.1001,511.75869 1445.2527,505.36156 1447.3021,502.89081 C 1450.1216,499.4027 1458.3831,491.42919 1458.383,491.42919 C 1459.2913,490.62984 1460.0822,490.21457 1460.54,490.28725 z "
       style="fill:#7cd3d8;fill-rule:nonzero;stroke:none"
       id="path11358" />
  </g>
</svg>
