<?xml version="1.0" encoding="UTF-8" standalone="no"?>
<!-- Generator: Adobe Illustrator 18.1.0, SVG Export Plug-In . SVG Version: 6.00 Build 0)  -->

<svg
   xmlns:dc="http://purl.org/dc/elements/1.1/"
   xmlns:cc="http://creativecommons.org/ns#"
   xmlns:rdf="http://www.w3.org/1999/02/22-rdf-syntax-ns#"
   xmlns:svg="http://www.w3.org/2000/svg"
   xmlns="http://www.w3.org/2000/svg"
   xmlns:sodipodi="http://sodipodi.sourceforge.net/DTD/sodipodi-0.dtd"
   xmlns:inkscape="http://www.inkscape.org/namespaces/inkscape"
   version="1.1"
   id="Layer_1"
   x="0px"
   y="0px"
   viewBox="0 0 164.5 199.10001"
   enable-background="new 0 0 216 288"
   xml:space="preserve"
   inkscape:version="0.91 r13725"
   sodipodi:docname="Duane Reade Logo.svg"
   width="164.5"
   height="199.10001"><metadata
   id="metadata3373"><rdf:RDF><cc:Work
       rdf:about=""><dc:format>image/svg+xml</dc:format><dc:type
         rdf:resource="http://purl.org/dc/dcmitype/StillImage" /><dc:title></dc:title></cc:Work></rdf:RDF></metadata><defs
   id="defs3371" /><sodipodi:namedview
   pagecolor="#ffffff"
   bordercolor="#666666"
   borderopacity="1"
   objecttolerance="10"
   gridtolerance="10"
   guidetolerance="10"
   inkscape:pageopacity="0"
   inkscape:pageshadow="2"
   inkscape:window-width="1920"
   inkscape:window-height="1018"
   id="namedview3369"
   showgrid="false"
   fit-margin-top="0"
   fit-margin-left="0"
   fit-margin-right="0"
   fit-margin-bottom="0"
   inkscape:zoom="2.0697605"
   inkscape:cx="71.613584"
   inkscape:cy="98.01475"
   inkscape:window-x="-8"
   inkscape:window-y="-8"
   inkscape:window-maximized="1"
   inkscape:current-layer="Layer_1" />
<g
   id="g3337"
   transform="translate(-25.9,-44.7)">
	<path
   d="m 30.5,239.7 2,0 c 3.5,0 4.5,-2.2 4.5,-4.5 0,-0.9 -0.2,-2.1 -0.9,-3 -0.5,-0.7 -1.5,-1.5 -3.5,-1.5 l -2,0 0,9 z m -4.6,-12.6 6,0 c 2,0 5.7,0 8.1,3 1.3,1.5 1.7,3.3 1.7,5.1 0,4.4 -2.5,8.2 -9.4,8.2 l -6.4,0 0,-16.3 z"
   id="path3339"
   inkscape:connector-curvature="0" />
	<path
   d="m 47.6,227.2 0,9.7 c 0,1.1 0.1,3.1 2.3,3.1 2.3,0 2.3,-1.8 2.3,-3.1 l 0,-9.7 4.6,0 0,9.7 c 0,2.7 -0.7,3.9 -1.8,5 -1.2,1.1 -2.8,1.7 -5.1,1.7 -1.3,0 -3.7,-0.3 -5.2,-1.7 -1.5,-1.5 -1.8,-2.6 -1.8,-5 l 0,-9.7 4.7,0 z"
   id="path3341"
   inkscape:connector-curvature="0" />
	<path
   d="m 63.4,237.7 3.8,0 -1.9,-5.6 -0.1,0 -1.8,5.6 z m -1.3,3.3 -1,2.4 -5,0 7.3,-16.3 3.7,0 7.2,16.3 -5.1,0 -0.9,-2.4 -6.2,0 z"
   id="path3343"
   inkscape:connector-curvature="0" />
	<polygon
   points="85.8,227.1 90.1,227.1 90.1,243.4 86.1,243.4 79.1,233.4 79.1,243.4 74.7,243.4 74.7,227.1 78.8,227.1 85.8,237.3 "
   id="polygon3345" />
	<polygon
   points="96.9,230.7 96.9,233.2 104.3,233.2 104.3,236.9 96.9,236.9 96.9,239.7 104.5,239.7 104.5,243.4 92.5,243.4 92.5,227.1 104.5,227.1 104.5,230.7 "
   id="polygon3347" />
	<path
   d="m 116.4,227.2 0,0 c -0.6,0.3 -1.1,0.7 -1.6,1.1 -0.4,0.4 -0.8,0.9 -1,1.3 l 0,-2.5 -6.1,0 0,1.1 2.4,0 0,13.8 -2.4,0 0,1.3 9.5,0 0,-1.3 -3.4,0 0,-8 c 0,-0.9 0.1,-1.8 0.4,-2.5 0.3,-0.7 0.6,-1.3 1,-1.8 0.4,-0.5 0.8,-0.9 1.2,-1.1 0.4,-0.2 0.8,-0.4 1.2,-0.4 0.9,0 1,0.4 1,0.8 l -0.1,0.6 -0.2,0.4 -0.2,0.4 -0.1,0.6 c 0,0.6 0.4,1.3 2,1.3 0.6,0 1.1,-0.1 1.6,-0.4 0.5,-0.3 0.7,-0.9 0.7,-1.8 0,-0.4 -0.1,-0.8 -0.2,-1.2 -0.1,-0.4 -0.4,-0.7 -0.7,-1 -0.3,-0.3 -0.7,-0.5 -1.2,-0.7 -0.5,-0.2 -1,-0.3 -1.7,-0.3 -0.7,-0.1 -1.4,0 -2.1,0.3"
   id="path3349"
   inkscape:connector-curvature="0" />
	<path
   d="m 127.4,231.4 m 0.7,-1.7 c 0.3,-0.5 0.7,-0.9 1.2,-1.2 0.5,-0.3 1.1,-0.4 1.8,-0.4 0.4,0 0.8,0.1 1.2,0.2 0.3,0.1 0.6,0.3 0.9,0.6 0.2,0.3 0.4,0.6 0.6,1.1 0.1,0.5 0.2,1.1 0.2,1.9 l 0,0.9 -0.1,0.6 -6.7,0 0.3,-1.8 c 0.1,-0.8 0.3,-1.4 0.6,-1.9 m -0.1,-2 c -1,0.5 -1.9,1.1 -2.7,1.9 -0.8,0.8 -1.4,1.7 -1.8,2.6 -0.4,1 -0.7,2 -0.7,3.1 0,1.2 0.2,2.3 0.6,3.3 0.4,1 1,1.9 1.8,2.6 0.8,0.7 1.7,1.3 2.8,1.7 1.1,0.4 2.2,0.6 3.5,0.6 1.2,0 2.3,-0.2 3.1,-0.6 0.8,-0.4 1.4,-0.8 1.9,-1.3 0.5,-0.5 0.8,-1 1,-1.5 l 0.6,-1.5 -0.4,-0.1 -0.8,-0.2 -0.5,1.3 c -0.2,0.4 -0.5,0.8 -0.8,1.2 -0.4,0.4 -0.9,0.7 -1.5,1 -0.6,0.3 -1.5,0.4 -2.5,0.4 -1,0 -1.8,-0.2 -2.3,-0.6 -0.6,-0.4 -1,-0.9 -1.3,-1.5 -0.3,-0.6 -0.5,-1.4 -0.6,-2.2 l -0.1,-2.4 0,-1.3 11.2,0 0,-0.3 c 0,-1.3 -0.2,-2.4 -0.7,-3.3 -0.5,-0.9 -1.1,-1.6 -1.8,-2.2 -0.7,-0.5 -1.5,-0.9 -2.3,-1.2 -0.8,-0.2 -1.6,-0.4 -2.3,-0.4 -1.3,0.2 -2.4,0.4 -3.4,0.9"
   id="path3351"
   inkscape:connector-curvature="0" />
	<path
   d="m 179.4,231.4 m 0.8,-1.7 c 0.3,-0.5 0.7,-0.9 1.1,-1.2 0.5,-0.3 1.1,-0.4 1.9,-0.4 0.4,0 0.8,0.1 1.2,0.2 0.4,0.1 0.6,0.3 0.9,0.6 0.2,0.3 0.4,0.6 0.6,1.1 0.1,0.5 0.2,1.1 0.2,1.9 l 0,0.9 -0.1,0.6 -6.7,0 0.3,-1.8 c 0.1,-0.8 0.3,-1.4 0.6,-1.9 m -0.2,-2 c -1,0.5 -1.9,1.1 -2.7,1.9 -0.8,0.8 -1.4,1.7 -1.8,2.6 -0.4,1 -0.7,2 -0.7,3.1 0,1.2 0.2,2.3 0.6,3.3 0.4,1 1,1.9 1.8,2.6 0.8,0.7 1.7,1.3 2.8,1.7 1.1,0.4 2.2,0.6 3.5,0.6 1.2,0 2.3,-0.2 3.1,-0.6 0.8,-0.4 1.4,-0.8 1.9,-1.3 0.5,-0.5 0.8,-1 1,-1.5 l 0.6,-1.5 -0.4,-0.1 -0.8,-0.2 -0.5,1.3 c -0.2,0.4 -0.5,0.8 -0.8,1.2 -0.4,0.4 -0.9,0.7 -1.5,1 -0.6,0.3 -1.5,0.4 -2.5,0.4 -1,0 -1.8,-0.2 -2.4,-0.6 -0.6,-0.4 -1,-0.9 -1.3,-1.5 -0.3,-0.6 -0.5,-1.4 -0.6,-2.2 l -0.1,-2.4 0,-1.3 11.2,0 0,-0.3 c 0,-1.3 -0.2,-2.4 -0.7,-3.3 -0.5,-0.9 -1.1,-1.6 -1.8,-2.2 -0.7,-0.5 -1.4,-0.9 -2.3,-1.2 -0.8,-0.2 -1.6,-0.4 -2.3,-0.4 -1.1,0.2 -2.2,0.4 -3.3,0.9"
   id="path3353"
   inkscape:connector-curvature="0" />
	<path
   d="m 144.9,242 0,0 c -0.3,-0.2 -0.6,-0.4 -0.8,-0.6 -0.2,-0.3 -0.3,-0.5 -0.4,-0.9 l -0.1,-1 c 0,-0.7 0.2,-1.3 0.6,-1.8 0.4,-0.5 1,-0.9 1.8,-1.2 l 2.9,-1 c 0.4,-0.1 0.7,-0.3 0.9,-0.5 l 0,2.7 -0.1,1.5 c -0.1,0.5 -0.2,1 -0.5,1.5 -0.2,0.4 -0.6,0.8 -1.1,1.1 -0.5,0.3 -1.1,0.4 -1.9,0.4 -0.5,0 -1,-0.1 -1.3,-0.2 m -0.4,-14.6 c -0.8,0.2 -1.5,0.5 -2,0.9 -0.5,0.4 -1,0.8 -1.2,1.3 -0.3,0.5 -0.4,1.1 -0.4,1.6 0,0.5 0.1,0.9 0.4,1.3 0.3,0.4 0.9,0.6 1.9,0.6 0.6,0 1,-0.1 1.3,-0.4 0.3,-0.3 0.5,-0.6 0.5,-1.1 l -0.1,-0.9 -0.1,-1.1 c 0,-0.5 0.2,-0.8 0.7,-1 0.5,-0.2 1.2,-0.4 2,-0.4 0.6,0 1.1,0.1 1.4,0.2 0.3,0.1 0.6,0.3 0.8,0.6 0.2,0.3 0.3,0.6 0.4,1 l 0.1,1.4 c 0,0.7 -0.1,1.2 -0.2,1.6 -0.1,0.3 -0.3,0.6 -0.5,0.8 -0.3,0.2 -0.7,0.4 -1.2,0.6 l -2.1,0.7 -2.2,0.6 c -0.7,0.2 -1.4,0.4 -2,0.7 -0.6,0.3 -1.2,0.7 -1.5,1.3 -0.4,0.5 -0.6,1.3 -0.6,2.2 0,0.4 0.1,0.8 0.2,1.2 0.1,0.5 0.4,0.9 0.8,1.2 0.4,0.4 0.9,0.6 1.6,0.9 0.7,0.2 1.6,0.3 2.7,0.3 1,0 1.8,-0.1 2.5,-0.3 0.6,-0.2 1.2,-0.5 1.6,-0.8 0.4,-0.3 0.7,-0.7 0.9,-1 l 0.1,-0.3 c 0.3,0.7 0.6,1.2 1,1.6 0.6,0.5 1.6,0.8 2.9,0.8 0.7,0 1.3,-0.1 1.8,-0.3 0.5,-0.2 0.9,-0.4 1.3,-0.7 l 0.3,-0.2 -0.7,-0.9 -0.2,0.2 -0.8,0.4 -0.8,0.1 c -0.4,0 -0.6,-0.1 -0.8,-0.3 -0.1,-0.1 -0.3,-0.4 -0.3,-1.1 l 0,-8.7 c 0,-0.7 -0.1,-1.3 -0.3,-1.9 -0.2,-0.6 -0.6,-1.2 -1.1,-1.7 -0.5,-0.5 -1.2,-0.9 -2.1,-1.1 -0.8,-0.3 -1.9,-0.4 -3.1,-0.4 -1.2,0.1 -2.1,0.3 -2.9,0.5"
   id="path3355"
   inkscape:connector-curvature="0" />
	<path
   d="m 162.5,242.1 0,0 c -0.5,-0.3 -0.9,-0.8 -1.1,-1.5 -0.3,-0.7 -0.4,-1.5 -0.5,-2.4 l -0.1,-3.3 c 0,-0.8 0.1,-1.9 0.3,-3.2 0.1,-0.8 0.3,-1.5 0.6,-2.1 0.3,-0.5 0.6,-1 1.1,-1.3 0.5,-0.3 1.1,-0.4 1.8,-0.4 0.8,0 1.5,0.1 2,0.4 0.5,0.3 0.9,0.6 1.3,1.1 l 0.6,1 c 0.1,0.4 0.3,0.8 0.3,1.3 l 0.2,1.7 0,2.7 c 0,0.7 -0.1,1.5 -0.2,2.3 -0.1,0.8 -0.3,1.5 -0.6,2.1 -0.3,0.6 -0.7,1.1 -1.3,1.5 -0.5,0.4 -1.2,0.6 -2.2,0.6 -1,0 -1.7,-0.2 -2.2,-0.5 m 3.6,-23.4 0,1.1 2.7,0 0,2.6 c 0,0 0.1,6.5 0.1,6.9 -0.4,-0.6 -0.7,-1.1 -1.2,-1.4 -0.8,-0.7 -1.9,-1 -3.3,-1 -1,0 -2,0.2 -3,0.7 -0.9,0.4 -1.7,1 -2.4,1.8 -0.7,0.7 -1.3,1.6 -1.6,2.6 -0.4,1 -0.7,2.4 -0.7,3.5 0,1.1 0.2,2.2 0.6,3.2 0.4,1 1,1.9 1.7,2.6 0.7,0.8 1.6,1.4 2.5,1.8 1,0.5 2,0.7 3,0.7 0.8,0 1.5,-0.1 2.1,-0.4 0.6,-0.3 1.1,-0.6 1.4,-1 0.3,-0.3 0.6,-0.7 0.8,-1.1 l 0,2.2 6.2,0 0,-1.3 -2.7,0 0,-23.4 -6.2,0 z"
   id="path3357"
   inkscape:connector-curvature="0" />
	<path
   d="m 102.2,44.7 c -33.2,0 -62,18.5 -76.3,45.5 l 0,7.7 C 38.4,68.6 67.9,48 102.2,48 c 45.6,0 82.7,36.4 82.7,81.2 0,44.7 -37.1,81.2 -82.7,81.2 -34.3,0 -63.8,-20.6 -76.3,-49.9 l 0,7.7 c 14.4,27 43.2,45.5 76.3,45.5 47.4,0 86,-37.9 86,-84.4 0,-46.7 -38.6,-84.6 -86,-84.6"
   id="path3359"
   inkscape:connector-curvature="0" />
	<path
   d="m 61.6,154.3 -13.9,0 0,-50.3 14,0 c 11.4,0 16.5,4.3 19.5,8.4 3.7,5.2 4.9,11.7 4.9,16.9 0,12.9 -5.4,25 -24.5,25 m 46.8,-25.5 C 108.4,119 106.2,109.4 99.6,101 87.3,84.3 68.2,84.3 57.5,84.3 l -26.7,0 c -1.8,2.9 -3.4,5.9 -4.9,9 l 0,71.7 c 1.4,3 3,6 4.8,8.8 l 28.6,0 c 36.2,0 49.1,-20.5 49.1,-45"
   id="path3361"
   inkscape:connector-curvature="0" />
	<path
   d="m 133,171.3 0,0 0,0 z m -37.1,-87 c -0.4,0.4 -0.5,0.9 -0.5,1.5 0.1,1.8 2.2,2 3.9,2 4.1,0.1 6.6,0.5 7.4,1.1 0.8,0.7 1.2,2.3 1.2,5.5 l 0,71.2 c 0,1.8 0,3.7 -0.3,4.3 -0.2,0.5 -2.8,1 -8.3,1.1 -1.6,0 -3.8,0.2 -3.9,2 0,0.6 0.1,1.1 0.5,1.5 0.4,0.5 1.1,0.7 2,0.6 l 0.4,0 3.3,-0.2 28.2,0 0.6,0 1.4,0.1 c 0.9,0 1.6,-0.2 2,-0.6 0.3,-0.4 0.5,-0.8 0.5,-1.4 l 0,-0.1 c 0,-0.8 -0.5,-1.3 -1.4,-1.6 l -0.1,0 -0.1,0 -0.4,-0.1 c -0.5,-0.1 -1.2,-0.1 -1.9,-0.1 l -0.7,0 c -3.5,-0.1 -7.5,-0.2 -8.6,-0.9 -0.2,-0.3 -0.3,-0.6 -0.3,-1.1 l 0,-39.6 c 2,-0.1 22.1,-0.9 25.8,2.1 3.5,2.8 4.2,6.6 5.2,11.9 l 0.5,3.2 c 1.8,11.1 4.7,29.7 24.1,29.7 7.2,0 11.5,-2 11.7,-5.4 l 0.1,-0.8 c 0,-2 -1.6,-3.6 -3.6,-3.6 -2,0 -3.6,1.6 -3.6,3.6 0,0.9 0.3,1.7 0.8,2.3 l 0.1,0.1 0.1,0.2 c -0.1,0.3 -2.3,0.7 -3.9,0.6 -3.9,-0.2 -7.6,-6.4 -8.9,-14.7 -2,-13.3 -3.7,-18.9 -7.3,-23.6 -5.1,-6.9 -15.1,-8.1 -19.2,-8.5 6.4,-0.5 12.3,-2.4 17.4,-5.7 5,-3.3 7.8,-9 7.8,-16.2 0,-6.4 -2.9,-11.9 -8.1,-15.5 C 154,85.3 148.5,83.8 140,83.8 l -39.7,0.1 -1.8,-0.1 -0.7,0 c -0.7,-0.2 -1.4,0 -1.9,0.5 m 25,7.6 c 0,-2.1 0.7,-3 1.7,-3.6 1.1,-0.7 8.5,-0.9 12.3,-0.9 12.6,0 19,6 19,17.8 0,7.5 -2.2,13.1 -6.1,15.7 -6.3,4.2 -16,4.1 -24.5,3.9 0,0 -2,0 -2.4,0 l 0,-32.9"
   id="path3363"
   inkscape:connector-curvature="0" />
	<polygon
   points="178,183.2 178,184.3 176.1,184.3 176.1,189.4 175,189.4 175,184.3 173.1,184.3 173.1,183.2 "
   id="polygon3365" />
	<polygon
   points="183.5,183.2 185,183.2 185,189.4 183.9,189.4 183.9,184.7 182.3,189.4 181.3,189.4 179.7,184.7 179.7,189.4 178.6,189.4 178.6,183.2 180.1,183.2 181.8,187.9 "
   id="polygon3367" />
</g>
</svg>