<?xml version="1.0" encoding="utf-8"?>
<!-- Generator: Adobe Illustrator 24.2.1, SVG Export Plug-In . SVG Version: 6.00 Build 0)  -->
<svg version="1.1" id="Layer_1" xmlns="http://www.w3.org/2000/svg" xmlns:xlink="http://www.w3.org/1999/xlink" x="0px" y="0px"
	 viewBox="0 0 581.51 171.74" style="enable-background:new 0 0 581.51 171.74;" xml:space="preserve">
<style type="text/css">
	.st0{fill-rule:evenodd;clip-rule:evenodd;fill:#030304;}
	.st1{fill-rule:evenodd;clip-rule:evenodd;fill:#020203;}
</style>
<path class="st0" d="M487.37,2.33v18.16H436.3v21.03h46.87V58.3H436.3v24.06h52.15v18.14h-73.42V2.33H487.37z M332.41,2.33
	l40.36,65.85h0.27V2.33h19.91v98.16h-21.26l-40.23-65.71h-0.27v65.71h-19.91V2.33H332.41z M228.64,2.33l40.37,65.85h0.27V2.33h19.91
	v98.16h-21.26L227.7,34.78h-0.27v65.71h-19.91V2.33H228.64z M174.87,93c-7.32,6.46-17.43,9.69-30.34,9.69
	c-13.1,0-23.23-3.2-30.41-9.62c-7.18-6.41-10.77-16.32-10.77-29.7V2.34h21.27v61.03c0,2.66,0.22,5.27,0.68,7.84
	c0.45,2.56,1.4,4.83,2.85,6.8c1.44,1.97,3.45,3.57,6.02,4.81c2.57,1.24,6.03,1.86,10.36,1.86c7.58,0,12.82-1.72,15.72-5.16
	c2.89-3.43,4.33-8.82,4.33-16.15V2.34h21.27v61.03C185.84,76.67,182.18,86.54,174.87,93 M41.72,2.34c5.99-0.05,11.79,0.96,17.4,3.03
	c5.34,1.97,9.99,5,13.96,9.07c3.92,4.03,6.99,9.07,9.2,15.12c2.21,6.05,3.32,13.16,3.32,21.3c0,7.15-0.9,13.75-2.71,19.8
	c-1.8,6.05-4.53,11.28-8.19,15.68c-3.77,4.5-8.33,7.96-13.68,10.37c-5.47,2.53-11.9,3.78-19.31,3.78H0V2.34H41.72z M40.23,82.35
	c3.07,0,6.05-0.51,8.94-1.51c2.89-1.01,5.46-2.68,7.72-5.02c2.26-2.34,4.07-5.38,5.42-9.14c1.36-3.76,2.04-8.34,2.04-13.75
	c0-4.95-0.48-9.42-1.43-13.4c-0.95-3.99-2.5-7.4-4.67-10.24c-2.28-2.95-5.15-5.13-8.6-6.53c-3.56-1.51-7.96-2.26-13.2-2.26H21.26
	v61.86H40.23z"/>
<path class="st0" d="M522.45,76.29c1.17,2.29,2.73,4.15,4.67,5.57c1.94,1.42,4.22,2.47,6.85,3.16c2.62,0.69,5.33,1.03,8.13,1.03
	c1.9,0,3.92-0.16,6.09-0.48c2.13-0.31,4.16-0.93,6.09-1.86c1.9-0.91,3.48-2.17,4.74-3.78c1.26-1.59,1.9-3.64,1.9-6.11
	c0-2.65-0.84-4.81-2.51-6.46c-1.68-1.65-3.86-3.03-6.57-4.12c-3-1.19-6.07-2.15-9.21-2.89c-3.5-0.84-6.97-1.76-10.43-2.75
	c-3.61-0.91-7.14-2.04-10.56-3.36c-3.32-1.26-6.39-2.98-9.21-5.16c-2.77-2.16-4.96-4.79-6.57-7.9c-1.67-3.16-2.5-6.98-2.5-11.48
	c0-5.03,1.05-9.41,3.18-13.13c2.1-3.7,4.88-6.8,8.34-9.28c3.55-2.54,7.43-4.37,11.64-5.5c4.26-1.18,8.59-1.78,13.01-1.79
	c5.05,0,9.91,0.58,14.56,1.72c4.48,1.07,8.61,2.92,12.39,5.57c3.65,2.59,6.52,5.86,8.6,9.83c2.12,3.99,3.18,8.82,3.18,14.51h-20.59
	c-0.18-2.93-0.79-5.36-1.83-7.29c-0.98-1.88-2.36-3.39-4.13-4.54c-1.82-1.14-3.78-1.92-5.89-2.33c-2.39-0.48-4.81-0.71-7.25-0.69
	c-1.72,0-3.43,0.19-5.15,0.55c-1.68,0.35-3.24,0.99-4.67,1.92c-1.4,0.92-2.56,2.06-3.46,3.43c-0.9,1.38-1.35,3.12-1.35,5.23
	c0,1.92,0.35,3.49,1.08,4.67c0.72,1.19,2.14,2.29,4.27,3.3c2.12,1.01,5.05,2.01,8.8,3.03c3.75,1.01,8.65,2.29,14.7,3.84
	c1.8,0.37,4.31,1.04,7.52,2c3.2,0.97,6.39,2.5,9.55,4.6c3.31,2.25,6.05,5.07,8.2,8.46c2.31,3.53,3.46,8.04,3.46,13.54
	c0,4.49-0.86,8.66-2.57,12.51c-1.76,3.93-4.32,7.25-7.66,9.97c-3.38,2.79-7.58,4.97-12.6,6.53c-5.01,1.56-10.82,2.34-17.4,2.34
	c-5.33,0-10.5-0.67-15.51-1.99c-4.83-1.23-9.25-3.32-13.27-6.26c-3.91-2.9-6.96-6.52-9.14-10.86c-2.26-4.4-3.35-9.62-3.25-15.67
	h20.59C520.68,71.21,521.27,74.01,522.45,76.29"/>
<path class="st1" d="M368.01,125.57h35.97v6.82h-14.13v38.27h-7.78v-38.27h-14.06V125.57z M335.46,155.63c0,1.73,0.29,3.2,0.87,4.42
	c0.58,1.22,1.4,2.22,2.43,3c1.04,0.78,2.24,1.34,3.58,1.71c1.35,0.36,2.81,0.54,4.39,0.54c1.7,0,3.15-0.2,4.36-0.6
	c1.07-0.33,2.05-0.84,2.92-1.55c0.72-0.59,1.26-1.32,1.62-2.18c0.33-0.83,0.5-1.65,0.5-2.5c0-1.73-0.39-3-1.15-3.82
	c-0.7-0.78-1.54-1.36-2.52-1.73c-1.81-0.66-3.64-1.22-5.51-1.68c-2.59-0.65-5.17-1.34-7.74-2.05c-1.69-0.41-3.28-1.07-4.77-1.99
	c-1.17-0.73-2.18-1.65-3.02-2.75c-0.73-0.97-1.26-2.05-1.59-3.22c-0.31-1.14-0.47-2.3-0.47-3.47c0-2.27,0.47-4.24,1.4-5.9
	c0.94-1.67,2.17-3.04,3.71-4.14c1.53-1.1,3.27-1.91,5.22-2.43c1.96-0.52,3.93-0.79,5.91-0.79c2.33,0,4.52,0.31,6.57,0.91
	c2.06,0.62,3.86,1.53,5.41,2.75c1.56,1.22,2.79,2.72,3.71,4.51c0.91,1.79,1.37,3.86,1.37,6.23h-7.78c-0.21-2.91-1.19-4.97-2.93-6.16
	c-1.75-1.2-3.96-1.8-6.66-1.8c-0.91,0-1.85,0.09-2.79,0.29c-0.92,0.18-1.8,0.49-2.62,0.95c-0.8,0.44-1.45,1.04-1.96,1.8
	c-0.56,0.86-0.82,1.81-0.78,2.84c0,1.6,0.49,2.85,1.47,3.76c0.97,0.9,2.25,1.59,3.82,2.06l1.96,0.54c2.65,0.73,5.31,1.45,7.97,2.14
	c1.35,0.36,2.32,0.63,2.89,0.79c1.46,0.47,2.72,1.1,3.8,1.9c2.13,1.53,3.57,3.55,4.33,6.07c0.35,1.18,0.53,2.36,0.53,3.53
	c0,2.53-0.51,4.69-1.53,6.48c-1,1.77-2.34,3.24-4.02,4.39c-1.66,1.13-3.55,1.97-5.66,2.5c-2.12,0.52-4.27,0.79-6.47,0.79
	c-2.53,0-4.91-0.31-7.16-0.95c-2.14-0.58-4.09-1.55-5.84-2.91c-1.72-1.36-3.04-3.04-3.98-5.02c-1-2.04-1.51-4.45-1.56-7.23H335.46z"
	/>
<path class="st1" d="M550.8,155.63c0,1.73,0.29,3.2,0.87,4.42c0.58,1.22,1.39,2.22,2.42,3c1.04,0.78,2.24,1.34,3.58,1.71
	c1.35,0.36,2.81,0.54,4.39,0.54c1.7,0,3.15-0.2,4.36-0.6c1.07-0.33,2.05-0.84,2.92-1.55c0.72-0.59,1.26-1.32,1.62-2.18
	c0.33-0.83,0.5-1.65,0.5-2.5c0-1.73-0.39-3-1.15-3.82c-0.7-0.78-1.54-1.36-2.52-1.73c-1.8-0.66-3.64-1.22-5.51-1.68
	c-2.59-0.65-5.17-1.34-7.75-2.05c-1.69-0.41-3.28-1.07-4.76-1.99c-1.17-0.73-2.18-1.65-3.02-2.75c-0.73-0.97-1.26-2.05-1.59-3.22
	c-0.31-1.14-0.47-2.3-0.47-3.47c0-2.27,0.47-4.24,1.4-5.9c0.94-1.67,2.17-3.04,3.71-4.14c1.53-1.1,3.28-1.91,5.23-2.43
	c1.95-0.52,3.92-0.79,5.91-0.79c2.33,0,4.52,0.31,6.57,0.91c2.06,0.62,3.86,1.53,5.41,2.75c1.55,1.22,2.79,2.72,3.7,4.51
	c0.91,1.79,1.37,3.86,1.37,6.23h-7.78c-0.21-2.91-1.19-4.97-2.92-6.16c-1.75-1.2-3.96-1.8-6.66-1.8c-0.91,0-1.85,0.09-2.8,0.29
	c-0.92,0.18-1.8,0.49-2.62,0.95c-0.8,0.44-1.45,1.04-1.96,1.8c-0.56,0.86-0.82,1.81-0.78,2.84c0,1.6,0.49,2.85,1.47,3.76
	c0.97,0.9,2.25,1.59,3.82,2.06l1.96,0.54c2.65,0.73,5.31,1.45,7.97,2.14c1.35,0.36,2.31,0.63,2.89,0.79c1.46,0.47,2.71,1.1,3.8,1.9
	c1.08,0.8,1.98,1.72,2.71,2.75c0.73,1.03,1.26,2.14,1.62,3.32c0.35,1.18,0.54,2.36,0.54,3.53c0,2.53-0.51,4.69-1.53,6.48
	c-1,1.77-2.34,3.24-4.02,4.39c-1.66,1.13-3.55,1.97-5.66,2.5c-2.11,0.52-4.27,0.79-6.47,0.79c-2.53,0-4.91-0.31-7.16-0.95
	c-2.14-0.58-4.09-1.55-5.84-2.91c-1.72-1.36-3.04-3.04-3.98-5.02c-1-2.04-1.51-4.45-1.56-7.23H550.8z M504.93,125.57h31.99v6.82
	H512.7v11.81h22.41v6.44H512.7v13.2h24.65v6.82h-32.42L504.93,125.57z M459.56,125.57h21.22c4.9,0,8.57,1.07,11.02,3.22
	c2.44,2.15,3.67,5.14,3.67,8.97c0,2.15-0.31,3.93-0.93,5.34c-0.52,1.27-1.25,2.4-2.18,3.41c-0.71,0.77-1.53,1.39-2.46,1.86
	c-0.58,0.28-1.17,0.53-1.77,0.76v0.13c0.66,0.09,1.38,0.29,2.15,0.63c0.76,0.34,1.48,0.87,2.14,1.61c0.66,0.74,1.22,1.7,1.65,2.88
	c0.44,1.18,0.65,2.65,0.65,4.42c0,2.65,0.19,5.06,0.59,7.23c0.39,2.17,1,3.72,1.83,4.64h-8.34c-0.58-0.97-0.93-2.04-1.02-3.22
	c-0.1-1.13-0.16-2.27-0.16-3.41c0-2.07-0.12-3.84-0.37-5.34c-0.19-1.34-0.64-2.58-1.37-3.73c-0.68-1.01-1.58-1.73-2.71-2.18
	c-1.13-0.47-2.6-0.7-4.38-0.7h-11.45v18.57h-7.78V125.57z M467.34,146.09h12.75c2.49,0,4.38-0.6,5.66-1.8
	c1.29-1.19,1.93-2.99,1.93-5.4c0.04-1.21-0.16-2.38-0.62-3.5c-0.38-0.86-0.95-1.57-1.71-2.11c-0.76-0.52-1.59-0.86-2.49-1.01
	c-0.96-0.17-1.92-0.25-2.89-0.25h-12.63V146.09L467.34,146.09z M429.62,124.49c3.32,0,6.3,0.63,8.93,1.9
	c2.64,1.26,4.87,2.97,6.69,5.12c1.82,2.15,3.22,4.65,4.19,7.51c0.98,2.86,1.47,5.9,1.47,9.1c0,3.24-0.49,6.29-1.47,9.16
	c-0.92,2.77-2.32,5.28-4.2,7.51c-1.83,2.15-4.06,3.84-6.69,5.08c-2.63,1.25-5.61,1.86-8.93,1.86c-3.32,0-6.3-0.62-8.93-1.86
	c-2.6-1.2-4.83-2.9-6.69-5.08c-1.88-2.24-3.28-4.74-4.2-7.51c-1-2.97-1.48-6.02-1.46-9.16c0-3.2,0.48-6.23,1.46-9.1
	c0.98-2.86,2.37-5.37,4.2-7.51c1.86-2.19,4.09-3.9,6.69-5.12C423.53,125.07,426.5,124.44,429.62,124.49 M429.62,130.94
	c-2.36,0-4.41,0.48-6.14,1.46c-1.71,0.95-3.11,2.25-4.19,3.88c-1.12,1.7-1.92,3.55-2.4,5.53c-0.52,2.07-0.78,4.18-0.77,6.32
	c0,2.15,0.26,4.25,0.77,6.32c0.52,2.06,1.32,3.9,2.4,5.53c1.08,1.62,2.48,2.91,4.2,3.88c1.73,0.97,3.77,1.46,6.14,1.46
	s4.41-0.49,6.13-1.46c1.72-0.97,3.12-2.27,4.2-3.88c1.08-1.63,1.87-3.47,2.4-5.53c1.06-4.21,1.06-8.42,0-12.63
	c-0.48-1.98-1.28-3.82-2.4-5.53c-1.09-1.63-2.49-2.93-4.2-3.88C434.03,131.42,431.99,130.94,429.62,130.94"/>
</svg>
