<?xml version="1.0" encoding="UTF-8" standalone="no"?>
<!-- Generator: Adobe Illustrator 16.0.1, SVG Export Plug-In . SVG Version: 6.00 Build 0)  -->

<svg
   xmlns:dc="http://purl.org/dc/elements/1.1/"
   xmlns:cc="http://creativecommons.org/ns#"
   xmlns:rdf="http://www.w3.org/1999/02/22-rdf-syntax-ns#"
   xmlns:svg="http://www.w3.org/2000/svg"
   xmlns="http://www.w3.org/2000/svg"
   xmlns:sodipodi="http://sodipodi.sourceforge.net/DTD/sodipodi-0.dtd"
   xmlns:inkscape="http://www.inkscape.org/namespaces/inkscape"
   version="1.2"
   id="Calque_1"
   x="0px"
   y="0px"
   width="745.30994"
   height="745.30994"
   viewBox="0 0 745.30992 745.30992"
   xml:space="preserve"
   sodipodi:docname="E.Leclerc_logo.svg"
   inkscape:version="0.92.2 (5c3e80d, 2017-08-06)"><metadata
     id="metadata35"><rdf:RDF><cc:Work
         rdf:about=""><dc:format>image/svg+xml</dc:format><dc:type
           rdf:resource="http://purl.org/dc/dcmitype/StillImage" /><dc:title></dc:title></cc:Work></rdf:RDF></metadata><defs
     id="defs33" /><sodipodi:namedview
     pagecolor="#ffffff"
     bordercolor="#666666"
     borderopacity="1"
     objecttolerance="10"
     gridtolerance="10"
     guidetolerance="10"
     inkscape:pageopacity="0"
     inkscape:pageshadow="2"
     inkscape:window-width="1366"
     inkscape:window-height="705"
     id="namedview31"
     showgrid="false"
     fit-margin-top="0"
     fit-margin-left="0"
     fit-margin-right="0"
     fit-margin-bottom="0"
     inkscape:zoom="0.72214765"
     inkscape:cx="371.69319"
     inkscape:cy="372.68679"
     inkscape:window-x="-8"
     inkscape:window-y="-8"
     inkscape:window-maximized="1"
     inkscape:current-layer="Calque_1" /><g
     id="g3743"
     transform="matrix(8.1273439,0,0,8.1273439,-2606.3254,-5254.8073)"><path
       d="m 366.538,738.263 c -25.283,0 -45.852,-20.568 -45.852,-45.852 0,-25.283 20.568,-45.852 45.852,-45.852 25.284,0 45.852,20.569 45.852,45.852 0,25.284 -20.569,45.852 -45.852,45.852 z m 0,-82.009 c -19.938,0 -36.156,16.22 -36.156,36.158 0,19.938 16.219,36.158 36.156,36.158 19.937,0 36.158,-16.221 36.158,-36.158 0,-19.937 -16.22,-36.158 -36.158,-36.158 z"
       id="path10"
       inkscape:connector-curvature="0"
       style="fill:#0b70b5" /><path
       d="m 376.245,704.412 c 0,0 -1.84,5 -9.205,5 h -6.33 v -26.917 c 0,-2.103 1.842,-4.083 3.945,-4.083 h 0.055 v -6 h -19 v 6 h -0.051 c 2.104,0 4.051,1.98 4.051,4.083 v 22.845 c 0,2.104 -1.947,4.071 -4.051,4.071 h 0.051 v 9 h 21.498 13.502 v -14 h -4.465 z"
       id="path14"
       inkscape:connector-curvature="0"
       style="fill:#0b70b5" /><path
       style="fill:#ed8b18"
       inkscape:connector-curvature="0"
       id="path16"
       d="m 371.224,663.619 c -5.572,0 -10.719,1.793 -14.875,4.793 h 12.361 v 12.72 c -3,0.465 -4,2.491 -4,4.92 v 19.36 h 3.502 c 3.234,0 5.836,-2 6.008,-5 h 10.49 v 9.204 c 7,-4.469 11.39,-12.211 11.39,-20.945 0,-13.804 -11.072,-25.052 -24.876,-25.052 z" /></g></svg>