<?xml version="1.0" encoding="UTF-8" standalone="no"?>
<!DOCTYPE svg PUBLIC "-//W3C//DTD SVG 1.1//EN" "http://www.w3.org/Graphics/SVG/1.1/DTD/svg11.dtd">
<svg xmlns="http://www.w3.org/2000/svg" version="1.1" viewBox="0.00 0.00 600.00 268.00">
<path fill="#e55204" d="
  M 173.13 193.07
  Q 165.08 203.30 152.24 205.92
  C 131.34 210.18 110.81 200.35 100.11 182.66
  C 91.27 168.03 90.43 152.56 94.49 135.85
  Q 94.64 135.25 94.02 135.25
  L 72.00 135.25
  A 0.50 0.50 0.0 0 0 71.50 135.75
  L 71.50 238.75
  Q 71.50 239.25 71.00 239.25
  L 36.00 239.25
  A 0.50 0.50 0.0 0 1 35.50 238.75
  L 35.50 135.75
  Q 35.50 135.25 35.00 135.25
  L 6.00 135.25
  A 0.50 0.50 0.0 0 1 5.50 134.75
  L 5.50 102.50
  Q 5.50 102.00 6.00 102.00
  L 34.99 102.00
  A 0.50 0.50 0.0 0 0 35.49 101.51
  C 35.56 92.17 35.14 83.25 37.19 73.53
  C 43.85 41.92 66.43 16.27 97.41 6.85
  C 153.58 -10.22 209.36 32.28 209.73 90.75
  A 0.49 0.49 0.0 0 1 209.24 91.25
  L 174.28 91.25
  Q 173.84 91.25 173.82 90.81
  Q 172.35 63.80 152.23 49.20
  C 120.74 26.34 78.39 45.80 72.15 83.13
  C 71.21 88.76 71.45 95.41 71.52 101.51
  Q 71.52 102.00 72.01 102.00
  L 99.75 102.00
  Q 100.25 102.00 100.25 102.50
  L 100.25 122.25
  Q 100.25 123.25 100.79 122.41
  C 116.11 98.43 151.42 90.45 172.90 111.49
  Q 173.50 112.08 173.50 111.24
  L 173.50 103.50
  Q 173.50 102.75 174.25 102.75
  L 209.00 102.75
  Q 209.50 102.75 209.50 103.25
  L 209.50 203.00
  Q 209.50 203.50 209.00 203.50
  L 174.11 203.50
  Q 173.47 203.50 173.47 202.86
  L 173.56 193.22
  Q 173.57 192.51 173.13 193.07
  Z
  M 166.31 135.44
  C 156.71 128.50 143.26 129.07 135.11 137.58
  C 124.77 148.39 128.14 168.28 142.27 173.98
  C 152.73 178.19 165.97 175.06 171.71 164.92
  C 176.85 155.85 175.33 141.95 166.31 135.44
  Z"
/>
<rect fill="#e55204" x="437.25" y="43.26" width="36.00" height="160.24" rx="0.43"/>
<circle fill="#e55204" cx="411.03" cy="64.34" r="20.11"/>
<path fill="#e55204" d="
  M 253.22 114.89
  Q 269.07 95.02 294.81 100.77
  Q 310.26 104.22 317.95 117.82
  A 0.45 0.44 45.6 0 0 318.72 117.83
  C 332.32 95.15 371.38 90.85 382.72 118.52
  Q 385.91 126.28 385.94 133.82
  Q 386.06 168.42 385.98 203.02
  Q 385.98 203.50 385.49 203.50
  L 351.02 203.50
  A 0.49 0.49 0.0 0 1 350.53 203.02
  Q 350.45 175.56 350.44 148.27
  C 350.43 138.20 347.34 128.11 335.26 128.26
  C 321.35 128.44 319.55 142.10 319.53 152.84
  Q 319.49 177.91 319.50 202.99
  Q 319.50 203.50 318.99 203.50
  L 284.52 203.50
  A 0.51 0.50 0.0 0 1 284.01 203.00
  Q 283.99 180.51 283.96 158.16
  C 283.95 147.91 284.75 131.19 272.76 128.04
  C 256.98 123.88 252.92 138.56 252.84 150.43
  Q 252.66 176.73 252.78 202.96
  A 0.54 0.54 0.0 0 1 252.24 203.50
  L 218.00 203.50
  Q 217.25 203.50 217.25 202.75
  L 217.25 103.25
  A 0.50 0.50 0.0 0 1 217.75 102.75
  L 252.25 102.75
  A 0.50 0.50 0.0 0 1 252.75 103.25
  L 252.75 114.73
  Q 252.75 115.48 253.22 114.89
  Z"
/>
<path fill="#e55204" d="
  M 560.49 111.70
  A 0.30 0.29 23.4 0 0 561.00 111.50
  L 561.00 103.37
  Q 561.00 102.75 561.63 102.75
  L 596.50 102.75
  A 0.50 0.50 0.0 0 1 597.00 103.25
  L 597.00 203.00
  Q 597.00 203.50 596.50 203.50
  L 561.62 203.50
  A 0.63 0.62 -90.0 0 1 561.00 202.87
  L 561.00 193.28
  Q 561.00 192.36 560.46 193.10
  Q 553.74 202.22 543.68 204.95
  C 513.57 213.12 486.48 193.85 480.74 164.05
  C 476.67 142.93 484.37 119.82 502.67 107.66
  C 519.90 96.21 545.71 96.12 560.49 111.70
  Z
  M 552.77 134.47
  C 536.50 124.31 514.47 135.22 517.00 156.06
  Q 518.82 171.05 533.25 175.01
  C 539.83 176.82 548.25 175.38 553.78 171.16
  C 565.01 162.58 565.47 142.41 552.77 134.47
  Z"
/>
<rect fill="#e55204" x="393.00" y="102.75" width="36.00" height="100.76" rx="0.54"/>
<path fill="#e55204" d="
  M 419.05 233.50
  L 423.00 233.50
  Q 423.75 233.50 423.75 234.25
  L 423.75 239.37
  Q 423.75 240.00 423.13 240.00
  L 419.13 240.00
  Q 418.50 240.00 418.50 240.62
  L 418.50 254.37
  Q 418.50 255.00 417.88 255.00
  L 411.50 255.00
  Q 410.75 255.00 410.75 254.25
  L 410.75 240.50
  Q 410.75 240.00 410.25 240.00
  L 409.00 240.00
  Q 408.25 240.00 408.25 239.25
  L 408.25 234.00
  Q 408.25 233.50 408.75 233.50
  L 410.25 233.50
  A 0.64 0.64 0.0 0 0 410.89 232.78
  C 409.89 224.68 414.81 218.47 423.30 220.45
  A 0.59 0.59 0.0 0 1 423.75 221.02
  L 423.75 226.87
  A 0.40 0.39 3.8 0 1 423.30 227.26
  L 420.51 226.82
  Q 419.69 226.69 419.33 227.45
  Q 418.03 230.13 418.61 233.14
  Q 418.68 233.50 419.05 233.50
  Z"
/>
<rect fill="#e55204" x="535.25" y="220.50" width="7.76" height="34.50" rx="0.60"/>
<circle fill="#e55204" cx="260.76" cy="225.52" r="4.31"/>
<circle fill="#e55204" cx="333.56" cy="225.53" r="4.32"/>
<circle fill="#e55204" cx="360.15" cy="225.53" r="4.33"/>
<circle fill="#e55204" cx="498.77" cy="225.52" r="4.31"/>
<circle fill="#e55204" cx="551.51" cy="225.52" r="4.31"/>
<path fill="#e55204" d="
  M 116.26 233.17
  C 109.76 239.98 117.14 251.42 126.36 246.49
  C 127.03 246.13 127.75 245.16 128.65 244.80
  Q 129.25 244.56 129.25 245.21
  L 129.25 253.56
  Q 129.25 254.08 128.77 254.29
  C 119.18 258.33 107.37 253.15 105.50 242.80
  C 103.02 229.05 116.02 218.85 128.77 224.25
  Q 129.25 224.46 129.25 224.98
  L 129.25 233.51
  A 0.43 0.43 0.0 0 1 128.52 233.81
  C 125.11 230.44 119.53 229.75 116.26 233.17
  Z"
/>
<path fill="#e55204" d="
  M 158.00 244.21
  A 12.98 11.50 0.0 0 1 145.02 255.71
  A 12.98 11.50 0.0 0 1 132.04 244.21
  A 12.98 11.50 0.0 0 1 145.02 232.71
  A 12.98 11.50 0.0 0 1 158.00 244.21
  Z
  M 149.69 244.22
  A 4.66 4.66 0.0 0 0 145.03 239.56
  A 4.66 4.66 0.0 0 0 140.37 244.22
  A 4.66 4.66 0.0 0 0 145.03 248.88
  A 4.66 4.66 0.0 0 0 149.69 244.22
  Z"
/>
<path fill="#e55204" d="
  M 169.25 235.23
  Q 174.00 231.19 179.43 233.56
  C 185.29 236.13 183.55 248.77 183.48 254.34
  Q 183.47 255.00 182.80 255.00
  L 176.44 255.00
  Q 175.76 255.00 175.76 254.32
  Q 175.74 248.59 175.74 243.02
  C 175.74 237.03 168.86 237.95 168.79 243.98
  Q 168.72 249.19 168.76 254.43
  Q 168.76 255.00 168.19 255.00
  L 161.63 255.00
  Q 161.00 255.00 161.00 254.38
  L 161.00 234.13
  Q 161.00 233.50 161.62 233.50
  L 168.00 233.50
  Q 168.75 233.50 168.75 234.25
  L 168.75 235.00
  Q 168.75 235.66 169.25 235.23
  Z"
/>
<path fill="#e55204" d="
  M 210.54 235.44
  C 215.24 230.31 224.08 232.42 224.73 240.16
  Q 225.32 247.25 224.89 254.39
  Q 224.85 255.00 224.24 255.00
  L 217.77 255.00
  A 0.49 0.49 0.0 0 1 217.28 254.51
  Q 217.23 248.63 217.13 242.84
  C 217.02 237.05 210.03 238.22 210.02 243.56
  Q 210.00 249.02 209.99 254.47
  Q 209.99 255.00 209.46 255.00
  L 203.00 255.00
  Q 202.25 255.00 202.25 254.25
  L 202.25 234.25
  Q 202.25 233.50 203.00 233.50
  L 209.37 233.50
  Q 210.00 233.50 210.00 234.13
  L 210.00 235.23
  Q 210.00 236.03 210.54 235.44
  Z"
/>
<path fill="#e55204" d="
  M 253.8599 244.2653
  A 12.98 11.50 0.2 0 1 240.8399 255.7199
  A 12.98 11.50 0.2 0 1 227.9001 244.1747
  A 12.98 11.50 0.2 0 1 240.9201 232.7201
  A 12.98 11.50 0.2 0 1 253.8599 244.2653
  Z
  M 245.53 244.23
  A 4.65 4.65 0.0 0 0 240.88 239.58
  A 4.65 4.65 0.0 0 0 236.23 244.23
  A 4.65 4.65 0.0 0 0 240.88 248.88
  A 4.65 4.65 0.0 0 0 245.53 244.23
  Z"
/>
<path fill="#e55204" d="
  M 291.73 240.29
  C 294.18 241.39 298.07 241.43 299.70 243.93
  C 302.49 248.21 299.89 253.32 295.32 254.83
  Q 288.65 257.01 282.37 253.34
  Q 281.92 253.07 282.17 252.60
  L 284.39 248.44
  A 0.97 0.97 0.0 0 1 285.82 248.12
  Q 288.66 250.23 292.15 249.53
  A 1.22 1.22 0.0 0 0 292.26 247.17
  C 290.18 246.56 286.50 246.02 284.93 244.39
  C 282.96 242.34 283.53 238.36 284.93 236.40
  C 288.09 231.99 295.13 232.21 299.75 234.05
  A 0.49 0.49 0.0 0 1 300.01 234.74
  L 297.99 238.56
  A 0.89 0.89 0.0 0 1 296.82 238.95
  Q 294.40 237.78 291.84 238.55
  A 0.93 0.93 0.0 0 0 291.73 240.29
  Z"
/>
<path fill="#e55204" d="
  M 303.99 239.23
  C 308.94 228.35 327.31 231.46 326.36 245.14
  Q 326.33 245.50 325.97 245.50
  L 311.26 245.50
  A 0.61 0.61 0.0 0 0 310.68 246.29
  C 311.67 249.58 316.18 252.08 318.32 248.52
  A 1.07 1.06 -74.4 0 1 319.23 248.00
  L 325.72 248.00
  Q 326.28 248.00 326.13 248.54
  C 323.91 256.62 312.51 257.31 306.94 252.98
  C 303.05 249.95 301.89 243.86 303.99 239.23
  Z
  M 311.22 241.00
  L 319.08 241.06
  A 0.14 0.14 0.0 0 0 319.22 240.93
  L 319.22 240.88
  A 3.97 2.81 0.5 0 0 315.27 238.03
  L 315.07 238.03
  A 3.97 2.81 0.5 0 0 311.08 240.80
  L 311.08 240.85
  A 0.14 0.14 0.0 0 0 311.22 241.00
  Z"
/>
<path fill="#e55204" d="
  M 376.90 235.40
  C 382.40 229.98 390.76 232.76 391.14 240.98
  Q 391.45 247.75 391.17 254.54
  Q 391.15 255.00 390.69 255.00
  L 384.05 255.00
  Q 383.56 255.00 383.55 254.51
  C 383.48 251.07 385.35 238.52 379.77 239.02
  C 374.90 239.45 376.52 250.89 376.48 254.48
  Q 376.47 255.00 375.95 255.00
  L 369.50 255.00
  Q 368.75 255.00 368.75 254.25
  L 368.75 234.00
  Q 368.75 233.50 369.25 233.50
  L 376.00 233.50
  Q 376.50 233.50 376.50 234.00
  L 376.50 235.24
  Q 376.50 235.79 376.90 235.40
  Z"
/>
<path fill="#e55204" d="
  M 441.40 253.59
  Q 434.08 257.79 428.80 253.33
  C 418.40 244.54 428.47 226.98 441.14 234.70
  Q 441.71 235.04 441.91 234.41
  L 442.07 233.90
  Q 442.20 233.50 442.62 233.50
  L 449.00 233.50
  Q 449.50 233.50 449.50 234.00
  L 449.50 254.37
  Q 449.50 255.00 448.87 255.00
  L 442.38 255.00
  Q 441.75 255.00 441.75 254.38
  L 441.75 253.79
  Q 441.75 253.38 441.40 253.59
  Z
  M 441.86 244.21
  A 4.65 4.65 0.0 0 0 437.21 239.56
  A 4.65 4.65 0.0 0 0 432.56 244.21
  A 4.65 4.65 0.0 0 0 437.21 248.86
  A 4.65 4.65 0.0 0 0 441.86 244.21
  Z"
/>
<path fill="#e55204" d="
  M 462.76 234.95
  Q 469.67 229.92 475.42 236.11
  Q 475.80 236.51 476.15 236.09
  C 479.70 231.91 486.63 231.39 489.14 236.23
  C 491.17 240.15 490.24 249.17 490.25 254.31
  Q 490.26 255.00 489.56 255.00
  L 483.19 255.00
  Q 482.52 255.00 482.51 254.32
  Q 482.47 248.47 482.51 242.77
  C 482.54 237.84 476.53 237.71 476.26 243.08
  Q 475.98 248.70 475.97 254.34
  Q 475.96 255.00 475.30 255.00
  L 468.81 255.00
  Q 468.24 255.00 468.24 254.43
  Q 468.28 248.18 468.19 242.09
  C 468.12 238.01 462.02 237.55 462.01 242.84
  Q 462.00 248.57 462.00 254.31
  Q 462.00 255.00 461.31 255.00
  L 455.00 255.00
  Q 454.25 255.00 454.25 254.25
  L 454.25 234.12
  Q 454.25 233.50 454.87 233.50
  L 461.19 233.50
  Q 461.89 233.50 461.98 234.19
  L 462.04 234.64
  Q 462.15 235.40 462.76 234.95
  Z"
/>
<path fill="#e55204" d="
  M 522.47 253.27
  C 514.02 259.04 504.78 252.10 506.03 242.47
  C 507.05 234.57 515.40 230.18 522.28 234.65
  Q 522.88 235.04 522.98 234.33
  L 523.04 233.86
  A 0.42 0.41 -86.0 0 1 523.45 233.50
  L 530.22 233.50
  Q 530.69 233.50 530.70 233.97
  Q 530.86 244.14 530.70 254.23
  C 530.49 268.25 510.54 269.16 506.22 258.03
  A 0.57 0.57 0.0 0 1 506.75 257.25
  L 514.06 257.25
  A 1.23 1.22 -21.9 0 1 514.94 257.62
  C 518.78 261.52 523.14 258.36 523.00 253.53
  Q 522.98 252.92 522.47 253.27
  Z
  M 523.21 244.07
  A 4.64 4.64 0.0 0 0 518.57 239.43
  A 4.64 4.64 0.0 0 0 513.93 244.07
  A 4.64 4.64 0.0 0 0 518.57 248.71
  A 4.64 4.64 0.0 0 0 523.21 244.07
  Z"
/>
<path fill="#e55204" d="
  M 575.92 234.37
  L 576.07 233.90
  Q 576.20 233.50 576.62 233.50
  L 583.00 233.50
  Q 583.50 233.50 583.50 234.00
  L 583.50 254.37
  Q 583.50 255.00 582.87 255.00
  L 576.23 255.00
  Q 575.70 255.00 575.74 254.48
  L 575.79 253.77
  A 0.35 0.35 0.0 0 0 575.23 253.47
  C 568.57 258.76 560.02 253.81 558.73 246.23
  C 557.08 236.56 566.36 229.43 575.21 234.64
  Q 575.73 234.95 575.92 234.37
  Z
  M 575.90 244.24
  A 4.66 4.66 0.0 0 0 571.24 239.58
  A 4.66 4.66 0.0 0 0 566.58 244.24
  A 4.66 4.66 0.0 0 0 571.24 248.90
  A 4.66 4.66 0.0 0 0 575.90 244.24
  Z"
/>
<rect fill="#e55204" x="256.75" y="233.50" width="7.76" height="21.50" rx="0.52"/>
<rect fill="#e55204" x="329.76" y="233.49" width="7.74" height="21.50" rx="0.43"/>
<rect fill="#e55204" x="-3.88" y="-10.75" transform="translate(360.13,244.25) rotate(-0.1)" width="7.76" height="21.50" rx="0.60"/>
<rect fill="#e55204" x="495.00" y="233.50" width="7.50" height="21.50" rx="0.43"/>
<rect fill="#e55204" x="547.76" y="233.49" width="7.74" height="21.50" rx="0.43"/>
<circle fill="#e55204" cx="592.92" cy="250.78" r="4.93"/>
</svg>
