<svg xmlns="http://www.w3.org/2000/svg" height="322.387" width="642.693"><path d="M173.627 98.413v10.843c-9.482-10.11-19.703-14.553-33.48-14.553-30.631 0-54.144 25.656-54.144 59.47 0 33.547 23.755 59.702 54.385 59.702 14.484 0 24.93-4.926 33.239-16.028v12.328h38.005V98.413zM150.36 128.76c13.543 0 24.464 11.352 24.464 25.645 0 14.07-10.921 25.423-24.464 25.423-13.544 0-24.68-11.585-24.68-25.655 0-14.061 10.904-25.413 24.68-25.413M262.468 98.413v13.811c11.152-11.344 20.648-15.536 34.659-15.536 16.872 0 28.025 6.15 36.584 20.72 8.556-13.81 20.648-20.97 36.556-20.97 12.612 0 24.473 5.658 30.417 15.035 4.036 6.186 5.933 14.32 5.933 26.155v72.547h-37.989v-55.26c0-11.352-.241-13.328-2.14-17.779-2.38-6.168-7.599-9.85-13.784-9.85-6.417 0-12.819 4.191-15.673 10.342-1.907 4.21-2.615 8.903-2.615 17.287v55.26h-37.997v-55.26c0-11.862-.224-13.819-1.664-17.779-2.123-6.168-8.54-10.61-14.958-10.61-5.702 0-12.362 4.21-14.725 9.377-1.908 3.95-2.604 9.134-2.604 19.012v55.26H224.46V98.413h38.008M460.057 67.213c0 12.316-9.489 22.195-21.368 22.195-11.886 0-21.376-9.879-21.376-22.195 0-12.345 9.49-22.221 21.376-22.221 11.879 0 21.368 9.876 21.368 22.221zm-2.372 142.962h-38V98.367h38v111.808M508.5 210.175h-37.979V44.992H508.5v165.183M604.69 98.413v10.843c-9.498-10.11-19.711-14.553-33.497-14.553-30.629 0-54.136 25.656-54.136 59.47 0 33.547 23.747 59.702 54.379 59.702 14.492 0 24.956-4.926 33.255-16.028v12.328h37.998V98.413zm-23.274 30.347c13.544 0 24.464 11.352 24.464 25.645 0 14.07-10.92 25.423-24.464 25.423-13.541 0-24.704-11.585-24.704-25.655 0-14.061 10.93-25.413 24.704-25.413" fill="#ed1c24"/><path d="M117.979.007c-51.51 0-93.654 42.518-93.654 94.488v3.873H.001L0 136.371h24.325v111.482h38V136.37h26.039l.001-38.002h-26.04v-3.872c0-15.048 5.86-29.248 16.5-39.982 10.55-10.645 24.456-16.506 39.154-16.506 14.698 0 28.602 5.861 39.153 16.506 7.75 7.819 12.95 17.48 15.21 27.966h38.5C204.943 36.132 165.453.007 117.98.007" fill="#ed1c24"/><path d="M52.21 313.923v-24.687l-6.727 24.687h-7.487l-6.674-24.578v24.578h-6.999v-36.027h11.069l6.51 26.422 6.51-26.422h10.852v36.027H52.21M82.875 300.575c0-5.424-2.17-8.084-6.456-8.084-4.287 0-6.457 2.66-6.457 8.084 0 5.426 2.17 8.138 6.457 8.138 4.285 0 6.456-2.712 6.456-8.138zm-20.183 0c0-8.463 5.263-14.052 13.727-14.052 8.355 0 13.563 5.534 13.563 14.052 0 8.465-5.263 14.053-13.563 14.053-8.627 0-13.727-5.75-13.727-14.053M93.4 313.923v-26.695h7.053v26.695zm0-29.895v-6.565h7.053v6.565H93.4M121.943 313.923v-16.168c0-4.125-1.195-5.264-4.557-5.264-3.69 0-5.48 2.062-5.48 6.132v15.3h-7.053v-26.695h6.728v3.907c1.627-2.984 4.34-4.612 8.625-4.612 5.1 0 8.844 3.093 8.844 8.899v18.5h-7.107M133.325 319.673c2.767-.705 4.123-2.333 4.178-5.75h-4.178v-7.324h7.487v5.533c0 6.13-1.844 9.061-7.487 10.255v-2.714M174.35 295.313c-.325-2.44-1.735-3.526-4.774-3.526-2.875 0-4.393.596-4.393 2.278 0 1.464 1.518 2.224 4.34 2.984 9.332 2.55 12.369 3.04 12.369 9.278 0 4.774-4.07 8.3-11.827 8.3-7.65 0-12.588-3.635-12.696-9.276h7.27c0 2.496 2.225 3.96 5.372 3.96 2.658 0 4.882-.814 4.882-2.55 0-1.953-1.41-2.604-4.286-3.256-10.362-2.278-12.26-4.937-12.26-9.44 0-4.016 3.092-7.542 11.446-7.542 7.65 0 11.014 3.309 11.34 8.79h-6.782M208.677 304.265c-.76 6.186-5.805 10.363-12.261 10.363-7.27 0-12.261-4.83-12.261-14.379s4.99-13.726 12.478-13.726c6.944 0 11.664 3.961 12.099 10.254h-7.108c-.379-2.766-2.387-4.394-5.045-4.394-2.984 0-5.426 1.898-5.426 7.705 0 5.805 2.442 8.625 5.208 8.625 2.767 0 4.938-1.573 5.208-4.448h7.108M228.964 313.923v-16.548c0-4.016-1.357-5.263-4.557-5.263-3.527 0-5.48 2.93-5.48 6.51v15.3h-7.054v-36.46h7.054V290.7c1.03-2.387 4.286-4.177 7.866-4.177 5.48 0 9.278 3.201 9.278 8.518v18.882h-7.107M254.923 282.508v-6.728h7.053v6.728zm4.612 18.067c0-5.424-2.171-8.084-6.456-8.084-4.287 0-6.456 2.66-6.456 8.084 0 5.426 2.169 8.138 6.456 8.138 4.285 0 6.456-2.712 6.456-8.138zm-15.463-18.067v-6.728h7.053v6.728zm-4.72 18.067c0-8.463 5.263-14.052 13.727-14.052 8.354 0 13.562 5.534 13.562 14.052 0 8.465-5.261 14.053-13.562 14.053-8.627 0-13.727-5.75-13.727-14.053M287.135 313.923v-16.168c0-4.125-1.194-5.264-4.559-5.264-3.69 0-5.479 2.062-5.479 6.132v15.3h-7.053v-26.695h6.727v3.907c1.629-2.984 4.34-4.612 8.628-4.612 5.098 0 8.842 3.093 8.842 8.899v18.5h-7.106M315.78 297.97c-.108-3.96-2.712-5.858-5.48-5.858-2.821 0-5.155 2.17-5.425 5.859zm-11.121 4.45c.216 4.015 2.494 6.62 5.966 6.62 2.279 0 4.287-1.14 4.776-2.986h7.27c-1.628 5.48-6.023 8.574-11.72 8.574-8.898 0-13.346-4.882-13.346-14.54 0-8.248 4.72-13.565 12.914-13.565 8.19 0 12.532 5.317 12.532 15.897h-18.392M341.053 313.916V277.89h26.476v6.293h-19.152v7.704h17.634v6.348h-17.634v9.279H368.4v6.4h-27.346M371.877 313.916v-26.693h7.054v26.693zm0-29.895v-6.564h7.054v6.564h-7.054M399.856 313.916v-16.168c0-4.123-1.195-5.261-4.557-5.261-3.691 0-5.482 2.06-5.482 6.129v15.3h-7.052v-26.693h6.727v3.906c1.628-2.984 4.341-4.612 8.627-4.612 5.1 0 8.844 3.092 8.844 8.899v18.5h-7.107M427.05 313.916l-5.86-11.99-3.418 3.527v8.463h-7.107v-36.459h7.107v19.912l8.79-10.146h8.626l-8.952 9.821 8.735 16.872h-7.922M452.813 300.841c-.705.704-1.953 1.086-4.558 1.574-4.014.758-5.316 1.898-5.316 4.177 0 2.008 1.193 2.984 3.418 2.984 3.635 0 6.347-2.659 6.4-5.805zm.49 13.075c-.219-.65-.382-1.572-.436-2.387-1.682 1.846-4.503 3.092-8.084 3.092-6.076 0-8.898-2.984-8.898-7.324 0-7.704 5.154-8.572 12.262-9.549 3.526-.488 4.502-1.194 4.502-3.037 0-1.736-1.736-2.769-4.502-2.769-3.2 0-4.504 1.575-4.83 3.962h-6.565c.11-5.535 3.15-9.387 11.72-9.387 8.464 0 11.393 3.799 11.393 10.527v16.872h-6.562M480.539 313.916v-3.743c-1.846 3.04-4.611 4.448-8.3 4.448-5.319 0-9.062-3.96-9.062-9.82v-17.578h7.054v16.493c0 3.364 1.518 4.992 4.504 4.992 3.58 0 5.478-2.55 5.478-6.078v-15.407h6.999v26.693h-6.673M493.99 313.916v-21.703h-3.96v-4.99h3.96c0-6.51 3.745-9.766 11.34-9.766v5.696c-3.58 0-4.395.976-4.395 4.07h4.558v4.99h-4.558v21.703h-6.944M523.341 295.306c-.325-2.44-1.736-3.526-4.773-3.526-2.877 0-4.396.597-4.396 2.279 0 1.465 1.519 2.224 4.34 2.985 9.332 2.55 12.37 3.037 12.37 9.278 0 4.772-4.069 8.299-11.826 8.299-7.65 0-12.588-3.634-12.697-9.276h7.272c0 2.495 2.224 3.96 5.369 3.96 2.66 0 4.884-.814 4.884-2.55 0-1.954-1.412-2.604-4.287-3.255-10.361-2.28-12.261-4.937-12.261-9.441 0-4.015 3.092-7.542 11.448-7.542 7.65 0 11.015 3.31 11.34 8.79h-6.783M554.588 313.916l-4.23-15.516-4.233 15.516h-7.214l-7.598-26.693h7.434l4.34 17.145 3.689-17.145h7.163l4.177 17.145 4.07-17.145h7.27l-7.65 26.693h-7.218M588.387 297.965c-.11-3.96-2.714-5.86-5.48-5.86-2.822 0-5.155 2.17-5.427 5.86zm-11.123 4.45c.216 4.014 2.496 6.619 5.968 6.619 2.279 0 4.287-1.14 4.775-2.985h7.27c-1.628 5.48-6.024 8.572-11.718 8.572-8.899 0-13.348-4.881-13.348-14.54 0-8.246 4.72-13.564 12.913-13.564 8.192 0 12.532 5.318 12.532 15.898h-18.392M599.017 313.916v-36.459h7.052v36.459h-7.052M625.167 296.339h6.565v7.596c0 5.64-3.256 10.686-10.797 10.686-7.812 0-10.906-4.992-10.906-10.742v-23.873h6.944v7.217h14.759v4.99h-14.759v10.96c0 3.364 1.195 5.318 4.07 5.318 2.821 0 4.124-1.9 4.124-5.208v-6.944M635.147 313.916v-7.324h7.542v7.324h-7.542" fill="#f36827"/></svg>