<svg xmlns="http://www.w3.org/2000/svg" viewBox="0 0 1746.43 996.84"><title>FB-Logo</title><g id="Layer_1" data-name="Layer 1"><path d="M314.56,947.29c15.84-72.21,31-141.48,46.24-210.75l-4.19-2.6c-5.95,7.39-13.21,14.09-17.54,22.33-5.52,10.5-13.14,13-23.72,11.41s-9.85-10.45-10.82-17.26c-4.25-29.76,6.89-49.8,33.49-64.5,17.52-9.68,34.48-20.43,51.45-31.08,15.42-9.68,22.31-25.21,28.22-41.66A257.94,257.94,0,0,1,433.39,579c1.49-2.79,6.51-3.69,9.91-5.47.88,3.38,2.6,6.8,2.44,10.13-.21,4.51-2.48,8.93-2.74,13.45-.35,6.25.35,12.56.6,18.84,5.55-2,11.14-3.8,16.63-5.93,10.37-4,20.38-9.52,31.1-12,13.84-3.19,20.76,5,14.9,17.91-3.27,7.19-10.23,13.55-17,18.17-17.9,12.29-36.95,22.91-54.73,35.35-5.37,3.76-10,10.83-11.66,17.23-8.54,33.64-17.63,67.28-23.42,101.45-8.1,47.79-13.76,96-19.84,144.13-2.57,20.28-3.46,40.77-5.32,61.15-.68,7.45-1.06,15.14-3.34,22.15-1.39,4.28-6.4,10.82-9.33,10.58-15.64-1.25-21.26,9.44-28.61,19.81-6.78,9.59-18.78,8.21-27.12-3.89-14.7-21.31-28.84-43.11-41.57-65.63-8.53-15.07-16.12-31.23-20.67-47.85-4.65-17-.22-19.3,17.14-22,19-3,31.4,4,40.16,20.26C304.44,933.34,309.09,939.18,314.56,947.29Z" transform="translate(-94.93 -55.46)"/><path d="M94.93,731.59c8.42-22.34,9.56-45.42,32.73-59.25,41.86-25,82.22-52.48,123.56-78.37,9.47-5.94,20.59-9.17,30.5-14.49,22.07-11.82,43.44-25,65.86-36.08,23.12-11.43,46.92-21.57,70.81-31.32,43.63-17.81,87-36.55,131.53-51.8C583,449,617.7,442.46,651.73,434c8.11-2,13.43,1.54,17,9.11,4.29,9.11,2.19,17-5.26,22.28-8.65,6.08-17.4,10.54-29.9,9.34-12.68-1.23-26.32,3.09-39,6.85a797.25,797.25,0,0,0-138.18,55.28c-38.25,19.64-77.95,36.81-114.77,58.81-54.38,32.51-107.14,67.79-159.85,103-20,13.4-37.72,30.31-57.12,44.76-5.93,4.42-15.29,9.64-20.7,7.74C99.19,749.49,97.75,738.36,94.93,731.59Z" transform="translate(-94.93 -55.46)"/></g><g id="Layer_2" data-name="Layer 2"><path d="M1836.27,232.82c-8.06-5.79-14.32-2.93-20,2.77-10.92,10.95-21.37,22.36-32.1,33.51-7.28,7.55-14.68,15-22,22.45l-4.11-1.74c0-9.29-1.9-19.06.32-27.78,10-39.24,20.86-78.28,32.09-117.19,5.84-20.2-1.5-31.46-22.88-33.61a215.4,215.4,0,0,1-30.86-5.08c-20.6-5.19-26.17-3.4-29.27,17.85-5.35,36.58-16,71.66-26.81,106.72-4.78,15.43-11.33,30.3-17.08,45.43,1.45-18.3,5.68-35.67,9.83-53.06,2.27-9.5.05-17.28-8.65-22.75-8-5-15.37-5.27-23,.94a34.21,34.21,0,0,1-12.1,6.45c-37.2,10-28,9.41-37.63,43.17-.91,3.2-1.25,6.57-2,9.83-1.6,7.33-3.26,14.65-4.9,22l-3.35-.56c1-15.95,1.33-32,3.31-47.83,1.86-14.89,5.83-29.5,8.26-44.33,1.84-11.21-5-20.94-15.81-23.63-12.29-3.06-11.61,7.87-15,14.22-5.64,10.69-9.55,22.63-16.71,32.14-27.86,37-42.38,79.42-53,123.63-1.58,6.56-3.08,13.13-5.27,22.54-2.39-4.77-3.36-6.55-4.2-8.4a73.47,73.47,0,0,0-38.69-37.74c-8.75-3.68-21.36,1.82-32.22,3.19-.4.05-.82.45-1.18.39-4.25-.81-8.49-1.66-12.74-2.51,1.62-3.87,2.32-8.62,5-11.46,8.91-9.37,18.71-17.9,27.88-27,54.86-54.62,109.83-109.14,164.24-164.19,8.68-8.78,16.61-19.35,21.32-30.59,2.48-5.91-.8-16.6-5.21-22.18-2.87-3.62-12.62-3.13-19-2.28s-12.3,5.18-18.72,6.67c-20.74,4.83-41.93,8-62.37,13.74-47.06,13.3-94.08,26.91-140.58,42-53.13,17.26-106.25,34.84-158.33,55-43.9,17-86.46,37.55-129.3,57.19-19.73,9.05-38.92,19.35-58,29.74-11.24,6.13-13.3,20.12-3.85,25.76,21,12.55,44.31,15.1,68.82,14.31,0-6.46.71-11.58-.14-16.43-1.94-11.13,3.71-17.84,12.65-22,41.94-19.68,83.74-39.7,126.16-58.29,32.51-14.26,65.81-26.75,98.89-39.7,19.82-7.77,39.71-15.45,59.89-22.23,34.08-11.43,68.24-22.65,102.69-32.88,15.62-4.63,32-6.66,48-9.88q1.67,1.77,3.34,3.52c-4.19,7.6-7.18,16.27-12.8,22.6-15.27,17.19-31.84,33.22-47.56,50q-76.72,82-153.28,164.2c-2.6,2.78-6.44,4.41-10.69,7.22-1.47-4.53-3-7.21-3.1-9.93q-1.08-28.2-1.61-56.42c-.29-14.63.46-29.33-.78-43.86-.42-4.88-5.57-9.35-8.56-14-4.13,2.94-9.53,5.07-12.1,9-3.49,5.38-6.44,12.06-6.82,18.35-2.32,38-3.58,76-5.73,114-1,17.55-2,35.71-14.85,49.48-25.92,27.78-52.4,55.05-78.81,82.38-3.86,4-8.66,7.08-14.76,12-1.89-6.75-3.63-11-4.19-15.3-3.46-26.53-6.27-53.15-10.1-79.63-1.72-11.9-3.86-24.12-8.4-35.13-5.18-12.58-16.89-12.36-23.52-.52-2.21,3.95-3.28,8.56-4.61,12.95-9.62,31.59-18.72,63.35-29,94.74-4.76,14.6-11.71,28.49-17.66,42.7l-3.57-1c0-14.8.45-29.63-.17-44.41-.35-8.14-.87-17-4.39-24-2.43-4.83-10.27-9.75-15.45-9.51-4.18.18-9.92,7.42-11.6,12.61-3.69,11.47-5.25,23.62-7.67,35.49q-4.76,23.3-9.5,46.59l-5.38-.85c2-19.77,3.91-39.56,6-59.32,1.07-9.93,3.44-19.83,3.42-29.74,0-4-4.37-8.57-7.86-11.58-.85-.72-7.11,3-9.22,5.87-12.57,17.17-24.33,34.92-37,52-14.47,19.57-41.33,28.46-64.94,22.31-12.86-3.35-22.17,3-21.09,16.21,2.43,29.85-11.18,55.31-20.73,81.9-1.52,4.22-5.25,7.66-9.34,13.41-1.49-4.69-2.67-6.57-2.59-8.4.83-18.79,2.39-37.57,2.7-56.37.27-17.39,1.36-35.18-1.81-52.07-2.79-14.86-15.88-18.16-24.54-6.17-11.74,16.28-20.48,34.93-28.88,53.32-6,13.12-9.29,27.48-13.8,41.29-3.86-6.28-4.63-12-6.11-17.52-5.24-19.48-21.73-26-37-13.35-7,5.75-12.33,14.71-15.62,23.29-5.05,13.2-7.45,27.4-11.41,41.06-3.9,13.4-8.34,26.64-12.55,40l-3.26-.53c0-8.84,0-17.69,0-26.53-.09-10.79,1.7-22.12-1.09-32.17-1.9-6.85-9.44-14.88-16-16.68-4.09-1.12-13.81,7.28-16.34,13.35-15.9,38.19-30.51,76.92-45.52,115.48-2.23,5.72-4.34,11.47-6.51,17.21-2.8-17.53-4.29-34.25-2.47-50.6,3.19-28.66,8.34-57.11,12.81-85.62,1.78-11.35-1.78-20.75-10.25-28.07-8-6.88-14.78-1.17-21.63,2.84-7.64,4.47-14.68,4.23-22-1.43-9.67-7.44-20.31-9.94-31.29-2.24-19.67,13.8-33,33.13-38.53,55.63C482,715.5,465.46,792.54,467.65,871.89c.73,26.17,5.44,52.27,8.9,78.32,1.09,8.26,6.77,15.47,15.38,12.12,13.5-5.25,27.11-11.81,32.57-27.34,4.43-12.62,10.39-24.88,13.26-37.83,7.34-33,13.17-66.44,20-99.62,1.66-8.11,4.67-15.95,7.06-23.92l3.18.64c.68,5.31,1.42,10.62,2,15.94,2.74,24.12,5.2,48.28,8.26,72.35,1.51,12,8.67,20.08,20.48,22.61,9.12,2,19.13-6.86,23.29-19.32a103.2,103.2,0,0,0,3.27-13.38c4.29-22.57,8.06-45.26,12.86-67.73,3.11-14.55,7.67-28.8,11.58-43.18l4,.82c.62,5.32,1.49,10.62,1.79,16,1.62,28.83,2.59,57.71,5,86.47.51,6.06,4.94,15,9.78,16.9,17.59,6.76,41.14.94,43.29-23,2.4-26.65,4.6-53.34,7.82-79.89,2.42-20,6.33-39.84,9.57-59.75l6,.31c0,10.56-1,21.23.22,31.65,2,17.36,4.32,34.81,8.47,51.74,3.31,13.45,16.49,17.15,27.73,9.25,7.72-5.42,12.63-12.06,14-22.45,5.68-44.72,12.22-89.33,19-133.91,1-6.74,4.87-13.06,7.41-19.57l5.64,1c0,9.72.08,19.45,0,29.17-.25,23.37-1.05,46.74-.65,70.09.15,8.53,1.37,18.21,12.84,20.28,13.87,2.5,26-3,31.92-14.33,2.08-3.95,3.84-8,6.82-14.35,4.33,6.13,7.41,10.35,10.34,14.67,8.37,12.32,17.66,15.44,29.58,6.85,29.59-21.32,49.81-48.86,47-87.31-1.46-19.9-5.6-39.75-10.17-59.24-5.87-25.09,4.62-41.94,32.29-46.81,0,4.27.49,8.37-.08,12.31-3.21,22.34-6,44.76-10.22,66.92-4.46,23.63.48,42.75,21.07,57.11,10.56,7.37,18.83,7.63,25.08-3.58,4.78-8.57,7.38-18.52,9.9-28.13,5.3-20.18,9.91-40.53,14.8-60.81l4,.36c1.94,5.82,3.08,12.08,6,17.32,2.82,5,7.79,12.8,11.36,12.56,6.57-.44,13.25-5.27,19-9.49,2.57-1.89,3.13-6.65,4.37-10.2,9.61-27.62,19-55.33,28.94-82.83,1.82-5,6.05-9.16,9.67-14.42,14.73,22,16,56.7-.58,71.7-9.88,8.93-18.22,19.61-26.91,29.79-6.71,7.86-7,16.92,1.12,23.19,21.2,16.3,43,31.88,64.93,47.13,5.92,4.11,14.57,9.43,20.25,1.58,4.64-6.4,8.11-15.88,7.34-23.51-1.88-18.62-6.73-36.93-10-55.43-3.41-19.47-.72-36.48,15-51.35,19.7-18.61,37.25-39.49,56-59.15,4.21-4.42,9.41-7.89,15.52-12.91,8.12,18.44,7.61,35.4,2.83,52.51-.51,1.84-3.34,3.55-5.47,4.35-11.39,4.29-13.71,10.12-7.6,19.79,11.79,18.66,23.82,37.18,35.18,56.1,4.1,6.82,9.38,12.65,16.64,9,4.62-2.32,8.5-9.83,9.22-15.45,2-15.69,1.53-31.69,3.47-47.39.68-5.5,4.46-11.73,8.71-15.49,17.66-15.66,39.22-25.54,57.32-41.5,32.46-28.61,65.45-55.95,87.24-94.19,2.13-3.73,5.37-6.83,10.57-13.29.52,9.19.9,14.42,1.09,19.65.64,17.13.5,34.33,2.21,51.35.57,5.63,5.87,10.79,9,16.17,5.73-3.58,12.23-6.38,17-11,3.68-3.58,5.63-9.23,7.53-14.27,4.27-11.33,7.8-22.94,12.06-34.28,5.18-13.77,10.8-27.38,16.23-41.06l3.91.85c3.12,11.6,5.91,23.29,9.47,34.75,2.38,7.65,5.33,15.28,16,14.47,10.37-.79,15.59-6.82,17.92-16.24.6-2.43,1.26-4.87,1.63-7.35,4.31-28.93,8.52-57.88,12.89-86.8,3.3-21.88,6.48-43.79,10.48-65.55.85-4.64,5-8.67,7.6-13l4.73,2c-.74,7.67-.91,15.45-2.3,23-4.26,23-10.64,45.74-13,68.9-2.13,20.59-1.2,41.72.65,62.4,1.14,12.82,7.7,15.47,19.55,10.22,5.45-2.41,11.18-6.4,14.37-11.26a138.08,138.08,0,0,0,14-27.86c16.31-44.31,32.57-88.65,47.88-133.3,8.78-25.63,15.54-51.93,23.64-77.8,1.22-3.86,4.83-7,7.33-10.43l4.25,1.79c-.58,7.74-.13,15.72-1.92,23.17-7.09,29.59-16.79,58.69-21.94,88.6-6.65,38.61-10.3,77.76-14.1,116.79-.55,5.73,3.78,14.73,8.51,17.26,3.73,2,11.69-3.29,17.45-6,2.47-1.17,4.18-4,6.1-6.22,15.39-17.58,31.42-34.66,45.93-53,16.31-20.57,31.47-42.07,46.59-63.56C1840.52,245.77,1845.13,239.2,1836.27,232.82ZM572.67,629.76c-2.23,16.9-5.37,33.91-10.46,50.14C549.59,720.15,535.71,760,522.15,800c-2.07,6.11-5.14,11.88-7.74,17.81l-5.83-1.43c2.24-25.16,2.73-50.63,7.12-75.41,6.85-38.66,16.34-76.86,24.69-115.26,2-9.19,7.78-16.5,16.77-15.61A17.13,17.13,0,0,1,572.67,629.76Zm347.57-20c-2.6,17.48-8.19,34.55-13.09,51.63-.69,2.4-4.62,3.87-7,5.77-1.68-2.15-4-4.07-4.94-6.51-7.56-18.94,2.53-67.62,13.46-80.72C919.38,587.17,921.83,599,920.24,609.71Zm222.39,20.61c-8.72-4.6-18.93-8.62-17-21.24.93-5.86,5.08-11.22,7.78-16.81l6.16.94q3.92,17.76,7.84,35.51Zm313.53-259.54c-14,18.05-29.44,35.49-46.83,50.2-24.46,20.7-50.65,39.49-77.14,57.58-13.21,9-17.09,5.78-17.36-10.44-.09-5,0-10,0-15.07-4.45-25.81,6.34-42.74,28.89-55.34,30.88-17.24,60.5-36.73,91-54.71,7.61-4.49,18.91-8.19,23.38,1.38C1461.43,351.57,1460.82,364.76,1456.16,370.78Zm71.57-35.21c-2.75-30.49,5.15-55.57,18.49-81.44C1550.75,273.28,1539.8,321.76,1527.73,335.57Z" transform="translate(-94.93 -55.46)"/></g></svg>