<?xml version="1.0" encoding="UTF-8"?>
<!-- Generator: Adobe Illustrator 24.2.1, SVG Export Plug-In . SVG Version: 6.00 Build 0)  -->
<svg version="1.1" id="Layer_1" xmlns="http://www.w3.org/2000/svg" xmlns:xlink="http://www.w3.org/1999/xlink" x="0px" y="0px" viewBox="0 0 270.41 257.7" style="enable-background:new 0 0 270.41 257.7;" xml:space="preserve">
<style type="text/css">
	.st0{fill:none;stroke:#7B868C;stroke-width:1.9062;stroke-linecap:round;stroke-linejoin:round;stroke-miterlimit:10;}
	.st1{fill:#B5CB34;}
	.st2{fill:#7AAE42;}
	.st3{fill:#CE202F;}
</style>
<g>
	<g>
		<line class="st0" x1="13.32" y1="54.28" x2="98.45" y2="54.28"/>
		<line class="st0" x1="169.95" y1="54.28" x2="255.07" y2="54.28"/>
	</g>
	<path class="st1" d="M135.23,41.05c3.31,6.81,4.15,14.64,2.49,23.38c0,0,0,0,0,0l33.36-57.08   C171.07,7.34,140.69,17.21,135.23,41.05z"/>
	<g>
		<path class="st1" d="M96.25,19.75c0,0-0.7,46.67,38.55,44.6L96.25,19.75"/>
		<path class="st2" d="M96.25,19.75c0,0,46.28,6.06,38.55,44.6L96.25,19.75"/>
	</g>
	<path class="st2" d="M171.07,7.34c0,0,10.35,51.3-33.36,57.08L171.07,7.34"/>
</g>
<g>
	<g>
		<path class="st3" d="M37.75,175.39c-14.57,0-26.42,12.13-26.42,27.04c0,14.72,11.97,26.69,26.69,26.69    c5.25,0,10.22-1.57,14.35-4.54c4.32-2.94,7.86-7.39,10.24-12.87c0.06-0.13,0.05-0.29-0.04-0.41c-0.08-0.12-0.22-0.2-0.36-0.2    H47.04c-0.13,0-0.26,0.06-0.34,0.16c-2.13,2.69-4.42,4.48-8.68,4.48c-5.69,0-10.08-3.4-11.09-8.51h36.63    c0.21,0,0.4-0.16,0.43-0.37l0.07-0.46c0.16-0.97,0.29-1.81,0.29-3.54c0-7.47-2.68-14.39-7.54-19.49    C51.88,178.23,45.11,175.39,37.75,175.39z M27.14,196.37c1.57-5.99,7.42-7.62,10.7-7.62s9.13,1.62,10.7,7.62H27.14z"/>
		<path class="st3" d="M121.95,177.08h-14.82c-0.24,0-0.43,0.19-0.43,0.43v4.1c-1.64-2.22-5.79-6.24-14.21-6.24    c-6.75,0-13.05,2.57-17.72,7.25c-4.99,4.99-7.63,11.77-7.63,19.62c0,7.27,2.37,13.97,6.67,18.87c4.64,5.29,11.1,8.08,18.68,8.08    c7.35,0,12.02-3.05,14.21-6.23v4.1c0,0.24,0.19,0.43,0.43,0.43h14.82c0.24,0,0.43-0.19,0.43-0.43v-49.56    C122.39,177.28,122.19,177.08,121.95,177.08z M106.69,202.25c0,4.92-3.19,12.25-11.98,12.25c-8.98,0-11.89-8.13-11.89-12.07    c0-4.77,3.2-12.33,11.8-12.33C102.55,190.09,106.69,196.21,106.69,202.25z"/>
		<path class="st3" d="M179.64,177.08h-14.82c-0.24,0-0.43,0.19-0.43,0.43v3.52c-2.71-3.5-7.62-5.56-13.41-5.56    c-6.69,0-12.95,2.53-17.63,7.11c-5.11,5.01-7.81,11.93-7.81,20.02c0,7.6,2.69,14.46,7.57,19.31c4.68,4.64,11.02,7.2,17.86,7.2    c7.92,0,11.83-4.13,13.32-6.26v0.29c0,11.78-8.13,13.05-11.62,13.05c-2.33,0-6.5-0.6-8.26-4.65c-0.07-0.16-0.23-0.26-0.4-0.26    h-17.15c-0.13,0-0.24,0.05-0.33,0.15c-0.08,0.09-0.12,0.22-0.1,0.34c0.6,4.29,2.94,8.52,6.42,11.62    c4.61,4.09,10.92,6.17,18.75,6.17c5.77,0,11.27-1.23,15.89-3.55c4.14-2.08,7.54-5.05,9.58-8.36c2.51-4.37,3-9.38,3-16.56v-43.58    C180.07,177.28,179.88,177.08,179.64,177.08z M164.38,202.52c0,7-4.82,11.89-11.71,11.89c-7.43,0-11.44-6.36-11.44-12.34    c0-6.67,5.07-11.89,11.53-11.89C159.6,190.18,164.38,195.26,164.38,202.52z"/>
		<path class="st3" d="M200.1,154.39h-14.82c-0.24,0-0.43,0.19-0.43,0.43v72.25c0,0.24,0.19,0.43,0.43,0.43h14.82    c0.24,0,0.43-0.19,0.43-0.43v-72.25C200.53,154.58,200.34,154.39,200.1,154.39z"/>
		<path class="st3" d="M249.38,183.39c-4.93-5.16-11.69-8-19.06-8c-14.57,0-26.42,12.13-26.42,27.04    c0,14.72,11.97,26.69,26.69,26.69c5.25,0,10.22-1.57,14.35-4.54c4.32-2.94,7.86-7.39,10.24-12.87c0.06-0.13,0.05-0.29-0.04-0.41    c-0.08-0.12-0.22-0.2-0.36-0.2h-15.18c-0.13,0-0.26,0.06-0.34,0.16c-2.13,2.69-4.42,4.48-8.68,4.48c-5.69,0-10.08-3.4-11.09-8.51    h36.63c0.21,0,0.4-0.16,0.43-0.37l0.07-0.45c0.16-0.97,0.29-1.81,0.29-3.55C256.93,195.41,254.25,188.49,249.38,183.39z     M241.12,196.37h-21.4c1.57-5.99,7.42-7.62,10.7-7.62C233.7,188.76,239.55,190.38,241.12,196.37z"/>
	</g>
	<g>
		<path class="st3" d="M71.92,139.1V91.89c0-0.24-0.19-0.43-0.43-0.43H55.42c-0.24,0-0.43,0.19-0.43,0.43v3.92    c-2.91-3.84-8.26-6.1-14.56-6.1c-7.24,0-14.01,2.73-19.07,7.7c-5.53,5.42-8.45,12.92-8.45,21.67c0,8.23,2.91,15.65,8.2,20.89    c5.06,5.03,11.93,7.79,19.33,7.79c8.68,0,12.91-4.59,14.47-6.86v0.43c0,12.79-8.83,14.18-12.63,14.18c-2.53,0-7.07-0.66-8.99-5.06    c-0.07-0.16-0.23-0.26-0.4-0.26H14.3c-0.13,0-0.24,0.05-0.33,0.15c-0.08,0.09-0.12,0.22-0.1,0.34c0.65,4.64,3.18,9.22,6.94,12.56    c4.99,4.43,11.81,6.68,20.29,6.68c6.25,0,12.2-1.33,17.2-3.84c4.48-2.25,8.16-5.46,10.36-9.05    C71.39,152.29,71.92,146.87,71.92,139.1z M54.99,118.98c0,7.61-5.23,12.92-12.73,12.92c-8.08,0-12.43-6.91-12.43-13.4    c0-7.24,5.5-12.92,12.53-12.92C49.8,105.57,54.99,111.09,54.99,118.98z"/>
		<path class="st3" d="M79.4,86.61h16.06c0.24,0,0.43-0.19,0.43-0.43V73.98c0-0.24-0.19-0.43-0.43-0.43H79.4    c-0.24,0-0.43,0.19-0.43,0.43v12.19C78.96,86.42,79.16,86.61,79.4,86.61z"/>
		<path class="st3" d="M79.4,146.02h16.06c0.24,0,0.43-0.19,0.43-0.43v-53.7c0-0.24-0.19-0.43-0.43-0.43H79.4    c-0.24,0-0.43,0.19-0.43,0.43v53.7C78.96,145.82,79.16,146.02,79.4,146.02z"/>
		<path class="st3" d="M128.05,147.86c8.02,0,13.09-3.36,15.43-6.83v4.56c0,0.24,0.19,0.43,0.43,0.43h16.06    c0.24,0,0.43-0.19,0.43-0.43v-53.7c0-0.24-0.19-0.43-0.43-0.43h-16.06c-0.24,0-0.43,0.19-0.43,0.43v4.56    c-1.73-2.38-6.21-6.83-15.43-6.83c-7.31,0-14.12,2.79-19.17,7.84c-5.4,5.4-8.25,12.74-8.25,21.23c0,7.87,2.56,15.12,7.22,20.42    C112.86,144.83,119.85,147.86,128.05,147.86z M117.55,118.88c0-5.18,3.48-13.4,12.82-13.4c8.61,0,13.11,6.64,13.11,13.21    c0,5.35-3.47,13.31-13.02,13.31C120.7,131.99,117.55,123.16,117.55,118.88z"/>
		<path class="st3" d="M217.74,145.59v-33.57c0-10.77-3.39-15.09-6.34-17.65c-3.18-2.75-9.07-4.75-14.02-4.75    c-8.9,0-12.62,4.22-14.37,6.81v-4.54c0-0.24-0.19-0.43-0.43-0.43h-15c-0.24,0-0.43,0.19-0.43,0.43v53.7    c0,0.24,0.19,0.43,0.43,0.43h16.06c0.24,0,0.43-0.19,0.43-0.43v-29.22c0-3.23,0-10.79,8.76-10.79c7.98,0,7.98,6.96,7.98,10.69    v29.32c0,0.24,0.19,0.43,0.43,0.43h16.06C217.55,146.02,217.74,145.82,217.74,145.59z"/>
		<path class="st3" d="M219.88,104.51h8.71v41.07c0,0.24,0.19,0.43,0.43,0.43h16.06c0.24,0,0.43-0.19,0.43-0.43v-41.07h9.72    c0.24,0,0.43-0.19,0.43-0.43V91.89c0-0.24-0.19-0.43-0.43-0.43h-9.72V73.98c0-0.24-0.19-0.43-0.43-0.43h-16.06    c-0.24,0-0.43,0.19-0.43,0.43v17.47h-8.71c-0.24,0-0.43,0.19-0.43,0.43v12.19C219.44,104.32,219.64,104.51,219.88,104.51z"/>
	</g>
</g>
<g>
	<path class="st3" d="M263.61,204.49c0,1.52-1.24,2.73-2.73,2.73c-1.53,0-2.74-1.24-2.74-2.73c0-1.49,1.2-2.73,2.74-2.73   C262.4,201.76,263.61,202.99,263.61,204.49z M258.71,204.49c0,1.2,0.95,2.19,2.16,2.19c1.19,0,2.16-0.97,2.16-2.19   c0-1.19-0.94-2.19-2.16-2.19C259.64,202.3,258.71,203.3,258.71,204.49z M261.03,202.95c0.19,0,1.1,0,1.1,0.85   c0,0.34-0.16,0.66-0.58,0.76v0.01c0.43,0.12,0.51,0.38,0.52,0.78c0.03,0.53,0.03,0.59,0.1,0.72h-0.54   c-0.06-0.09-0.08-0.19-0.09-0.58c-0.02-0.49-0.12-0.63-0.66-0.67h-0.64v1.25h-0.54v-3.13H261.03z M260.25,204.32h0.64   c0.22,0,0.7,0,0.7-0.5c-0.04-0.33-0.36-0.36-0.63-0.36h-0.72V204.32z"/>
</g>
</svg>