<svg xmlns="http://www.w3.org/2000/svg" viewBox="0 0 1611.04 378.39"><defs><style>.cls-1{fill:#fff;}</style></defs><g id="Layer_2" data-name="Layer 2"><g id="Layer_2-2" data-name="Layer 2"><path d="M107.77,366.88a93,93,0,0,1-14.66-1.21l-.17,0-.17-.05A98,98,0,0,1,68.34,354.3C7.16,314.88,11.08,218.4,13.73,189.77l.07-.73c2.82-39.82,14.1-75.39,32.62-102.8,17-25.18,38.86-41.47,61.53-45.88a86.79,86.79,0,0,1,18.39-2,82.79,82.79,0,0,1,9.55.56l.14,0c16.45,2.9,30.77,9.48,42.55,19.56,23.11,20.38,31.25,75.8,29.14,99.8l-.2,2.3L143.9,160l-.12-2.35c-1.37-26.39-9.51-39.43-24.88-39.87C97.29,119,84.08,169.1,82,202.64c-1.66,24.54.6,72.83,21,80a17.25,17.25,0,0,0,5.75.95l.66,0a26.94,26.94,0,0,0,12.39-6.25c7.83-7.1,8.86-17.06,8.87-21.71L109,254.33l2.78-59.26,93.6,1.93.1,2.34c3.39,81.41-25.91,147.1-72.91,163.47A75.28,75.28,0,0,1,107.77,366.88Z"/><path d="M126.34,40.83a76.7,76.7,0,0,1,9.25.55c10.53,1.86,26.71,6.47,41.36,19,22.71,20,30.25,75.29,28.28,97.68l-58.95-.55c-1.36-26.28-9.59-41.79-27.42-42.24C95,116.46,81.64,168.08,79.45,202.49c-.26,3.89-4.36,73,22.7,82.54a19.47,19.47,0,0,0,6.58,1.09c.32,0,.64,0,1,0a29.47,29.47,0,0,0,13.77-6.89c10.66-9.66,9.76-23.92,9.6-25.92L111.63,252q1.26-27.18,2.54-54.37L203,199.45c3.35,80.45-25.37,145-71.23,161a72.45,72.45,0,0,1-24,3.92A90.46,90.46,0,0,1,93.5,363.2a95.51,95.51,0,0,1-23.8-11c-66.32-42.74-54-155.57-53.41-162.95,6-84.08,49.2-138.09,92.14-146.44a84.94,84.94,0,0,1,17.91-2m0-5h0a90,90,0,0,0-18.91,2.08C84.11,42.47,61.71,59.13,44.35,84.84c-18.76,27.77-30.18,63.73-33,104l-.07.69a292.83,292.83,0,0,0,2.11,71.31c3.19,19.85,8.6,37.47,16.09,52.39,9.33,18.6,22,33.12,37.55,43.17A100.68,100.68,0,0,0,92,368l.33.1.34.06a95.72,95.72,0,0,0,15.06,1.23,77.79,77.79,0,0,0,25.63-4.2c23.87-8.31,43.58-28.72,57-59,13.18-29.74,19.26-66.71,17.59-106.91l-.2-4.69-4.69-.1-44.42-.92-44.41-.91-4.87-.1-.23,4.86-2.54,54.38-.23,4.92,4.92.3,16.74,1c-.36,4.72-2,12.06-8,17.5a24.37,24.37,0,0,1-11,5.62h-.35a14.63,14.63,0,0,1-4.92-.8c-19.71-6.95-20.67-58.3-19.37-77.5,2.48-39,16.92-81.4,34.5-82.55,5.3.14,20.45,1,22.34,37.5l.25,4.7,4.7,0h.53l58.43.54,4.62,0,.4-4.6c1.17-13.23-.79-33.37-5-51.31-3.84-16.42-11.29-38.52-25-50.56l0,0,0,0c-12.12-10.37-26.84-17.14-43.74-20.13l-.14,0-.14,0a83.39,83.39,0,0,0-9.84-.58Z"/><path class="cls-1" d="M97.77,356.88a93,93,0,0,1-14.66-1.21l-.17,0-.17-.05A98,98,0,0,1,58.34,344.3C-2.84,304.88,1.08,208.4,3.73,179.77L3.8,179c2.82-39.82,14.1-75.39,32.62-102.8C53.42,51.06,75.28,34.77,98,30.36a86.79,86.79,0,0,1,18.39-2,82.79,82.79,0,0,1,9.55.56l.14,0c16.45,2.9,30.77,9.48,42.55,19.56,23.11,20.38,31.25,75.8,29.14,99.8l-.2,2.3L133.9,150l-.12-2.35c-1.37-26.39-9.51-39.43-24.88-39.87C87.29,109,74.08,159.1,72,192.64c-1.66,24.54.6,72.83,21,80a17.25,17.25,0,0,0,5.75.95l.66,0a26.94,26.94,0,0,0,12.39-6.25c7.83-7.1,8.86-17.06,8.87-21.71L99,244.33l2.78-59.26,93.6,1.93.1,2.34c3.39,81.41-25.91,147.1-72.91,163.47A75.28,75.28,0,0,1,97.77,356.88Z"/><path d="M116.34,30.83a76.7,76.7,0,0,1,9.25.55c10.53,1.86,26.71,6.47,41.36,19,22.71,20,30.25,75.29,28.28,97.68l-58.95-.55c-1.36-26.28-9.59-41.79-27.42-42.24C85,106.46,71.64,158.08,69.45,192.49c-.26,3.89-4.36,73,22.7,82.54a19.47,19.47,0,0,0,6.58,1.09c.32,0,.64,0,1,0a29.47,29.47,0,0,0,13.77-6.89c10.66-9.66,9.76-23.92,9.6-25.92L101.63,242q1.26-27.18,2.54-54.37L193,189.45c3.35,80.45-25.37,145-71.23,161a72.45,72.45,0,0,1-24,3.92A90.46,90.46,0,0,1,83.5,353.2a95.51,95.51,0,0,1-23.8-11c-66.32-42.74-54-155.57-53.41-162.95,6-84.08,49.2-138.09,92.14-146.44a84.94,84.94,0,0,1,17.91-2m0-5h0a90,90,0,0,0-18.91,2.08C74.11,32.47,51.71,49.13,34.35,74.84c-18.76,27.77-30.18,63.73-33,104l-.07.69a292.83,292.83,0,0,0,2.11,71.31c3.19,19.85,8.6,37.47,16.09,52.39,9.33,18.6,22,33.12,37.55,43.17A100.68,100.68,0,0,0,82,358l.33.1.34.06a95.72,95.72,0,0,0,15.06,1.23,77.79,77.79,0,0,0,25.63-4.2c23.87-8.31,43.58-28.72,57-59,13.18-29.74,19.26-66.71,17.59-106.91l-.2-4.69-4.69-.1-44.42-.92-44.41-.91-4.87-.1-.23,4.86-2.54,54.38-.23,4.92,4.92.3,16.74,1c-.36,4.72-2,12.06-8,17.5a24.37,24.37,0,0,1-11,5.62h-.35a14.63,14.63,0,0,1-4.92-.8c-19.71-6.95-20.67-58.3-19.37-77.5,2.48-39,16.92-81.4,34.5-82.55,5.3.14,20.45,1,22.34,37.5l.25,4.7,4.7,0h.53l58.43.54,4.62,0,.4-4.6c1.17-13.23-.79-33.37-5-51.31-3.84-16.42-11.29-38.52-25-50.56l0,0,0,0c-12.12-10.37-26.84-17.14-43.74-20.13l-.14,0-.14,0a83.39,83.39,0,0,0-9.84-.58Z"/><path d="M286.42,243.4a1,1,0,0,0-1-.58,1,1,0,0,0-1,.75l-26,111.54-64.6-16.4L265.9,39.05l1.94,0L271,39c67.92,0,124.61,29.81,144.4,76,5.2,12.13,10.67,32.27,7.15,59.4l-.12.92c-3.22,28-21.47,53.78-57.4,81L398.37,369l-65.08,2.1Zm9.39-59.94a50,50,0,0,0,13.07,1.66c7.31,0,17.87-1.54,26.63-8.92,4.55-3.82,12.18-11.74,12.24-21.82.07-13.42-14.3-29.42-38.6-33.85C304.8,141,297.62,174.88,295.81,183.46Z"/><path d="M271,41.5c66.21,0,122.52,28.8,142.1,74.44,11.83,27.57,7.32,54.93,6.85,59.05-3.56,30.94-26.38,56.79-57.81,80.36l32.95,111.22L335,368.5l-46.25-126a3.6,3.6,0,0,0-6.79.4L256.51,352.06l-59.73-15.17Q232.33,189.2,267.87,41.52l3.1,0m37.91,146.12c8.64,0,19.33-2,28.24-9.51,2.09-1.75,13.06-11,13.13-23.72.08-16-17.12-32.88-43.05-36.71,0,0-14.1,66.46-14.27,67.32.42.51,7.11,2.62,15.95,2.62M271,36.5l-3.16,0-3.89,0L263,40.35,211.48,254.44l-19.56,81.28-1.16,4.8,4.79,1.22,59.73,15.17,5,1.25,1.15-5,24.36-104.39,44.58,121.41,1.24,3.39,3.61-.11,60.05-1.93,6.47-.21-1.84-6.21-32-107.91c35.61-27.3,53.74-53.32,57-81.68,0-.23.06-.52.11-.89,3.59-27.69-2-48.29-7.33-60.7C397.48,66.91,339.9,36.5,271,36.5Zm27.79,145.11c2.27-10.76,8.29-39.14,12.32-58.14,21.56,4.74,34.23,18.95,34.17,30.89-.05,9.08-7.13,16.38-11.35,19.93-8.19,6.89-18.13,8.33-25,8.33a51.12,51.12,0,0,1-10.12-1Z"/><path class="cls-1" d="M276.42,233.4a1,1,0,0,0-1-.58,1,1,0,0,0-1,.75l-26,111.54-64.6-16.4L255.9,29.05l1.94,0L261,29c67.92,0,124.61,29.81,144.4,76,5.2,12.13,10.67,32.27,7.15,59.4l-.12.92c-3.22,28-21.47,53.78-57.4,81L388.37,359l-65.08,2.1Zm9.39-59.94a50,50,0,0,0,13.07,1.66c7.31,0,17.87-1.54,26.63-8.92,4.55-3.82,12.18-11.74,12.24-21.82.07-13.42-14.3-29.42-38.6-33.85C294.8,131,287.62,164.88,285.81,173.46Z"/><path d="M261,31.5c66.21,0,122.52,28.8,142.1,74.44,11.83,27.57,7.32,54.93,6.85,59.05-3.56,30.94-26.38,56.79-57.81,80.36l32.95,111.22L325,358.5l-46.25-126a3.6,3.6,0,0,0-6.79.4L246.51,342.06l-59.73-15.17Q222.33,179.2,257.87,31.52l3.1,0m37.91,146.12c8.64,0,19.33-2,28.24-9.51,2.09-1.75,13.06-11,13.13-23.72.08-16-17.12-32.88-43.05-36.71,0,0-14.1,66.46-14.27,67.32.42.51,7.11,2.62,15.95,2.62M261,26.5l-3.16,0-3.89.05L253,30.35,201.48,244.44l-19.56,81.28-1.16,4.8,4.79,1.22,59.73,15.17,4.95,1.25,1.15-5,24.36-104.39,44.58,121.41,1.24,3.39,3.61-.11,60.05-1.93,6.47-.21-1.84-6.21-32-107.91c35.61-27.3,53.74-53.32,57-81.68,0-.23.06-.52.11-.89,3.59-27.69-2-48.29-7.33-60.7C387.48,56.91,329.9,26.5,261,26.5Zm27.79,145.11c2.27-10.76,8.29-39.14,12.32-58.14,21.56,4.74,34.23,18.95,34.17,30.89-.05,9.08-7.13,16.38-11.35,19.93-8.19,6.89-18.13,8.33-25,8.33a51.12,51.12,0,0,1-10.12-1Z"/><path d="M446.69,71.7l85.13-19.35,106.5,273.78-66.55,18.62-18.29-43.92c-13.09,2-26.14,4.14-38.81,6.42,0,0-5.78,1.05-34.78,6.52L472.17,362l-68,13.31ZM489,242.56l42-6.94-29.16-77.74Z"/><path d="M530.28,55.27,635,324.47l-61.76,17.27q-9.09-21.83-18.19-43.67c-17.18,2.57-31.12,5-40.81,6.72,0,0-5.64,1-36.53,6.85q-3.87,24.11-7.73,48.2l-62.84,12.3Q428,223,448.93,73.76l81.35-18.49M486,245.59l48.41-8L500.81,148,486,245.59M533.37,49.44l-4.2,1L447.82,68.88l-3.36.77L444,73.06l-18,128.3L402.18,371.44l-1,6.95,6.88-1.35,30-5.86,32.88-6.44,3.43-.67.55-3.44,2.72-17,4.45-27.76c27.57-5.2,33-6.18,33-6.19h0c12-2.16,24.36-4.22,36.81-6.11l7.59,18.23,9.1,21.84,1.7,4.08,4.26-1.19,61.76-17.28,5.31-1.48-2-5.15L534.94,53.46l-1.57-4ZM492,239.53l10.89-71.79,24.72,65.91L492,239.53Z"/><path class="cls-1" d="M436.69,61.7l85.13-19.35,106.5,273.78-66.55,18.62-18.29-43.92c-13.09,2-26.14,4.14-38.81,6.42-.05,0-5.78,1.05-34.78,6.52L462.17,352l-68,13.31ZM479,232.56l42-6.94-29.16-77.74Z"/><path d="M520.28,45.27,625,314.47l-61.76,17.27q-9.09-21.83-18.19-43.67c-17.18,2.57-31.12,5-40.81,6.72,0,0-5.64,1-36.53,6.85q-3.87,24.11-7.73,48.2l-62.84,12.3Q418,213,438.93,63.76l81.35-18.49M476,235.59l48.41-8L490.81,138,476,235.59M523.37,39.44l-4.2,1L437.82,58.88l-3.36.77L434,63.06l-18,128.3L392.18,361.44l-1,6.95,6.88-1.35,30-5.86,32.88-6.44,3.43-.67.55-3.44,2.72-17,4.45-27.76c27.57-5.2,33-6.18,33-6.19h0c12-2.16,24.36-4.22,36.81-6.11l7.59,18.23,9.1,21.84,1.7,4.08,4.26-1.19,61.76-17.28,5.31-1.48-2-5.15L524.94,43.46l-1.57-4ZM482,229.53l10.89-71.79,24.72,65.91L482,229.53Z"/><path d="M701,353.33l-.43-1.5c-6.72-23.42-12.64-59.51-17.41-88.5-2.78-17-5.64-34.39-7.59-41.81-3.93,10.65-11.54,43.19-17.82,70-4.33,18.49-8.8,37.6-12.47,51.68l-.62,2.37-59.32-14.27L647,49l70.36,15.81,24.76,145.46,34.12-142.4,63.41,11.75-66.1,286.64Z"/><path d="M648.92,51.94l66.26,14.89,26.54,155.86,36.4-152,58.51,10.84q-32.49,140.89-65,281.79L703,351.14c-12.71-44.26-22.62-134.46-27.11-134.93h0c-4.55,0-22,84.38-33,126.4l-54.55-13.12L648.92,51.94m-3.81-6L644,50.87l-60.6,277.56-1,4.78,4.76,1.15,54.55,13.11,4.77,1.15,1.24-4.74c3.68-14.11,8.15-33.24,12.48-51.73,4.75-20.34,10.76-46,14.95-60.84,1.69,8.81,3.7,21.07,5.57,32.42,4.77,29.06,10.71,65.23,17.47,88.79l.86,3,3.07.55,68.66,12.2,4.68.83,1.07-4.63,65-281.78,1.17-5.09-5.14-1-26.26-4.87-32.24-6-4.67-.86-1.11,4.62L742.55,197.76,720.11,66l-.56-3.3L716.28,62,650,47.06,645.11,46Z"/><path class="cls-1" d="M691,343.33l-.43-1.5c-6.72-23.42-12.64-59.51-17.41-88.5-2.78-17-5.64-34.39-7.59-41.81-3.93,10.65-11.54,43.19-17.82,70-4.33,18.49-8.8,37.6-12.47,51.68l-.62,2.37-59.32-14.27L637,39l70.36,15.81,24.76,145.46,34.12-142.4,63.41,11.75-66.1,286.64Z"/><path d="M638.92,41.94l66.26,14.89,26.54,155.86,36.4-152,58.51,10.84q-32.49,140.89-65,281.79L693,341.14c-12.71-44.26-22.62-134.46-27.11-134.93h0c-4.55,0-22,84.38-33,126.4l-54.55-13.12L638.92,41.94m-3.81-6L634,40.87l-60.6,277.56-1,4.78,4.76,1.15,54.55,13.11,4.77,1.15,1.24-4.74c3.68-14.11,8.15-33.24,12.48-51.73,4.75-20.34,10.76-46,14.95-60.84,1.69,8.81,3.7,21.07,5.57,32.42,4.77,29.06,10.71,65.23,17.47,88.79l.86,3,3.07.55,68.66,12.2,4.68.83,1.07-4.63,65-281.78,1.17-5.09-5.14-1-26.26-4.87-32.24-6-4.67-.86-1.11,4.62L732.55,187.76,710.11,56l-.56-3.3L706.28,52,640,37.06,635.11,36Z"/><path d="M816,58.86l1.71-.69a175.64,175.64,0,0,1,66.07-13.23c36.25,0,69.8,12.37,94.49,34.82,26.88,24.45,42.43,59.6,45,101.64,3,50.69-10.94,94.15-40.43,125.67-16.48,17.61-37.33,31.28-62,40.61-23.36,8.85-49,13.43-76.25,13.61h-2.31ZM898.58,282c35.57-11.92,52.78-42.41,52.59-93.07-1.69-45.83-25.9-72.92-66.57-74.66Z"/><path d="M883.75,47.44c70.16,0,131.66,46.41,137,134.11,7.22,120.28-81.07,176.61-176.19,177.24L818.62,60.49a174,174,0,0,1,65.13-13.05m12.6,237.92c40.48-12.08,57.51-46.17,57.32-96.41-1.84-50-30.13-76.62-71.79-77.23l14.47,173.64M883.75,42.44a178.12,178.12,0,0,0-67,13.41l-3.43,1.39.32,3.68,25.91,298.3.4,4.6,4.62,0C872.1,363.6,898,359,921.68,350c25-9.47,46.19-23.35,62.93-41.24A148.38,148.38,0,0,0,1017,254.39c7.41-21.95,10.36-46.55,8.76-73.14-2.58-42.71-18.42-78.44-45.79-103.34C954.77,55,920.62,42.44,883.75,42.44Zm17,236.15L887.33,117c37.47,2.81,59.72,28.79,61.34,72.08.16,47.91-15.52,77.28-47.87,89.54Z"/><path class="cls-1" d="M806,48.86l1.71-.69a175.64,175.64,0,0,1,66.07-13.23c36.25,0,69.8,12.37,94.49,34.82,26.88,24.45,42.43,59.6,45,101.64,3,50.69-10.94,94.15-40.43,125.67-16.48,17.61-37.33,31.28-62,40.61-23.36,8.85-49,13.43-76.25,13.61h-2.31ZM888.58,272c35.57-11.92,52.78-42.41,52.59-93.07-1.69-45.83-25.9-72.92-66.57-74.66Z"/><path d="M873.75,37.44c70.16,0,131.66,46.41,137,134.11,7.22,120.28-81.07,176.61-176.19,177.24L808.62,50.49a174,174,0,0,1,65.13-13.05m12.6,237.92c40.48-12.08,57.51-46.17,57.32-96.41-1.84-50-30.13-76.62-71.79-77.23l14.47,173.64M873.75,32.44a178.12,178.12,0,0,0-67,13.41l-3.43,1.39.32,3.68,25.91,298.3.4,4.6,4.62,0C862.1,353.6,888,349,911.68,340c25-9.47,46.19-23.35,62.93-41.24A148.38,148.38,0,0,0,1007,244.39c7.41-21.95,10.36-46.55,8.76-73.14-2.58-42.71-18.42-78.44-45.79-103.34C944.77,45,910.62,32.44,873.75,32.44Zm17,236.15L877.33,107c37.47,2.81,59.72,28.79,61.34,72.08.16,47.91-15.52,77.28-47.87,89.54Z"/><polygon points="1380.43 65.02 1398.95 13.18 1433.72 25.26 1401.97 70.47 1380.43 65.02"/><path d="M1400.47,16.35l29.3,10.18-28.86,41.1-17.2-4.36,16.76-46.92m-3-6.35-1.67,4.67L1379,61.59l-1.85,5.18,5.33,1.35,17.21,4.35,3.33.85,2-2.82,28.86-41.09,3.81-5.42-6.26-2.18-29.3-10.18L1397.43,10Z"/><polygon class="cls-1" points="1370.43 55.02 1388.95 3.17 1423.72 15.26 1391.97 60.47 1370.43 55.02"/><path d="M1390.47,6.35l29.3,10.18-28.86,41.1-17.2-4.36,16.76-46.92m-3-6.35-1.67,4.67L1369,51.59l-1.85,5.18,5.33,1.35,17.21,4.35,3.33.85,2-2.82,28.86-41.09,3.81-5.42-6.26-2.18-29.3-10.18L1387.43,0Z"/><path d="M1518.51,365.77c-19.67,0-38.55-7.62-54.59-22-22.44-18.41-30.47-49.89-35.79-81.17l-.44-2.59L1489,252.6l.52,2.15c5.72,23.4,16,37.93,26.85,37.93,3.76,0,7.4-1.77,10.82-5.27,4-6.16,5.37-11.89,4.12-17.51-3.23-14.55-23.51-27-45-40.11-16.6-10.17-33.76-20.68-45.39-33.44l-.11-.14c-23.62-30.12-27.66-68.78-10.8-103.43,16.25-33.39,47.47-55,79.54-55,.61,0,1.22,0,1.83,0,45.85.32,83.56,49.86,87.66,115.23l.17,2.6L1533,157l0-2.51c-.3-19.89-7.4-35-18.52-39.58a21.27,21.27,0,0,0-7.94-1.7,12.41,12.41,0,0,0-6,1.39c-6.64,3.52-8.11,12.9-8,17.37.55,16.4,20.69,28.21,23,29.51,94.05,53,112.77,94.22,74.19,163.42l0,.08,0,.08C1572.74,350.56,1546.14,365.77,1518.51,365.77Z"/><path d="M1509.55,40.31c.59,0,1.17,0,1.77,0,44.21.31,81.18,48.37,85.23,112.88l-61.08,1.25c-.31-20.17-7.67-36.8-20.08-41.85a24,24,0,0,0-8.88-1.89,15,15,0,0,0-7.12,1.68c-7.32,3.88-9.49,13.57-9.28,19.67.52,15.46,16.48,27.21,24.26,31.59,92.21,52,111.25,91.84,73.22,160-16.56,24.92-42.35,39.57-69.08,39.57-18.07,0-36.57-6.69-53-21.43-21.31-17.45-29.45-47.33-35-79.69l56.48-6.8c6.53,26.66,18.11,39.83,29.28,39.83,4.44,0,8.81-2.07,12.77-6.2,26-39.25-53.73-58.5-86.35-94.31-51.92-66.22,3.24-154.36,66.78-154.36m0-5c-16.54,0-33.13,5.57-48,16.11a106.48,106.48,0,0,0-33.82,40.27,102.24,102.24,0,0,0-10.33,52c1.42,19.57,8.62,37.76,21.41,54.07l.11.15.13.13c11.86,13,29.18,23.63,45.93,33.89,21,12.86,40.84,25,43.84,38.53,1.08,4.86-.11,9.9-3.64,15.39-2.88,2.88-5.86,4.34-8.86,4.34-7.2,0-17.92-9.43-24.42-36l-1-4.31-4.4.53L1430,257.19l-5.22.63.88,5.17c5.41,31.74,13.58,63.71,36.63,82.65,16.5,14.81,35.94,22.63,56.22,22.63,28.46,0,55.85-15.63,73.25-41.8l.11-.17.09-.17c10-18,16-33.78,18.14-48.16,2.29-15.24.41-29.13-5.74-42.47-11.59-25.1-38.59-48.6-87.54-76.18-2.17-1.22-21.2-12.38-21.71-27.41-.16-4.57,1.48-12.36,6.62-15.09a10.18,10.18,0,0,1,4.78-1.09,18.68,18.68,0,0,1,7,1.52c10,4.08,16.69,18.72,17,37.29l.08,5,5-.1,61.08-1.25,5.21-.1-.32-5.21c-4.19-66.68-42.94-117.21-90.14-117.57-.62,0-1.23,0-1.85,0Z"/><path class="cls-1" d="M1508.51,355.77c-19.67,0-38.55-7.62-54.59-22-22.44-18.41-30.47-49.89-35.79-81.17l-.44-2.59L1479,242.6l.52,2.15c5.72,23.4,16,37.93,26.85,37.93,3.76,0,7.4-1.77,10.82-5.27,4-6.16,5.37-11.89,4.12-17.51-3.23-14.55-23.51-27-45-40.11-16.6-10.17-33.76-20.68-45.39-33.44l-.11-.14c-23.62-30.12-27.66-68.78-10.8-103.43,16.25-33.39,47.47-55,79.54-55,.61,0,1.22,0,1.83,0,45.85.32,83.56,49.86,87.66,115.23l.17,2.6L1523,147l0-2.51c-.3-19.89-7.4-35-18.52-39.58a21.27,21.27,0,0,0-7.94-1.7,12.41,12.41,0,0,0-6,1.39c-6.64,3.52-8.11,12.9-8,17.37.55,16.4,20.69,28.21,23,29.51,94.05,53,112.77,94.22,74.19,163.42l0,.08,0,.08C1562.74,340.56,1536.14,355.77,1508.51,355.77Z"/><path d="M1499.55,30.31c.59,0,1.17,0,1.77,0,44.21.31,81.18,48.37,85.23,112.88l-61.08,1.25c-.31-20.17-7.67-36.8-20.08-41.85a24,24,0,0,0-8.88-1.89,15,15,0,0,0-7.12,1.68c-7.32,3.88-9.49,13.57-9.28,19.67.52,15.46,16.48,27.21,24.26,31.59,92.21,52,111.25,91.84,73.22,160-16.56,24.92-42.35,39.57-69.08,39.57-18.07,0-36.57-6.69-53-21.43-21.31-17.45-29.45-47.33-35-79.69l56.48-6.8c6.53,26.66,18.11,39.83,29.28,39.83,4.44,0,8.81-2.07,12.77-6.2,26-39.25-53.73-58.5-86.35-94.31-51.92-66.22,3.24-154.36,66.78-154.36m0-5c-16.54,0-33.13,5.57-48,16.11a106.48,106.48,0,0,0-33.82,40.27,102.24,102.24,0,0,0-10.33,52c1.42,19.57,8.62,37.76,21.41,54.07l.11.15.13.13c11.86,13,29.18,23.63,45.93,33.89,21,12.86,40.84,25,43.84,38.53,1.08,4.86-.11,9.9-3.64,15.39-2.88,2.88-5.86,4.34-8.86,4.34-7.2,0-17.92-9.43-24.42-36l-1-4.31-4.4.53L1420,247.19l-5.22.63.88,5.17c5.41,31.74,13.58,63.71,36.63,82.65,16.5,14.81,35.94,22.63,56.22,22.63,28.46,0,55.85-15.63,73.25-41.8l.11-.17.09-.17c10-18,16-33.78,18.14-48.16,2.29-15.24.41-29.13-5.74-42.47-11.59-25.1-38.59-48.6-87.54-76.18-2.17-1.22-21.2-12.38-21.71-27.41-.16-4.57,1.48-12.36,6.62-15.09a10.18,10.18,0,0,1,4.78-1.09,18.68,18.68,0,0,1,7,1.52c10,4.08,16.69,18.72,17,37.29l.08,5,5-.1,61.08-1.25,5.21-.1-.32-5.21c-4.19-66.68-42.94-117.21-90.14-117.57-.62,0-1.23,0-1.85,0Z"/><path d="M1024.15,348.88,1035.65,43l2.23-.17c8.7-.63,17.28-1,25.47-1,53.57,0,95.22,13.57,120.43,39.24,19.23,19.58,28.69,45.6,28.11,77.33v.1c-3.8,63.28-42.9,97.93-116.21,103l-4.35,88.56Zm73.33-164.83c25.52-2.62,37.82-12.21,38.65-30,.32-11.41-2.27-20.06-7.72-25.66s-14.18-8.51-25.82-8.51h-.87Z"/><path d="M1063.35,44.33c90.14,0,147.41,38.33,146,114-3.72,61.92-41.48,96.3-116.1,100.83L1089,347.55l-62.21-1.12,11.32-301.15q13-.95,25.29-1m31.44,142.48c25.24-2,42.8-10.45,43.84-32.67q1-36.79-36-36.79c-1,0-2.12,0-3.21.07l-4.59,69.39M1063.35,39.33c-8.25,0-16.89.33-25.65,1l-4.47.32-.17,4.48-11.31,301.15-.2,5.09,5.1.1,62.21,1.12,4.85.09.23-4.84,4.12-83.94c73.35-5.73,112.47-41.11,116.32-105.21v-.21c.59-32.42-9.11-59-28.83-79.12-25.69-26.16-68-40-122.21-40Zm36.82,141.9,3.89-58.86c10.2.23,17.79,2.83,22.56,7.74,5,5.08,7.31,13.11,7,23.84-.76,15.87-11.14,24.41-33.46,27.28Z"/><path class="cls-1" d="M1014.15,338.88,1025.65,33l2.23-.17c8.7-.63,17.28-1,25.47-1,53.57,0,95.22,13.57,120.43,39.24,19.23,19.58,28.69,45.6,28.11,77.33v.1c-3.8,63.28-42.9,97.93-116.21,103l-4.35,88.56Zm73.33-164.83c25.52-2.62,37.82-12.21,38.65-30,.32-11.41-2.27-20.06-7.72-25.66s-14.18-8.51-25.82-8.51h-.87Z"/><path d="M1053.35,34.33c90.14,0,147.41,38.33,146,114-3.72,61.92-41.48,96.3-116.1,100.83L1079,337.55l-62.21-1.12,11.32-301.15q13-.95,25.29-1m31.44,142.48c25.24-2,42.8-10.45,43.84-32.67q1-36.79-36-36.79c-1,0-2.12,0-3.21.07l-4.59,69.39M1053.35,29.33c-8.25,0-16.89.33-25.65,1l-4.47.32-.17,4.48-11.31,301.15-.2,5.09,5.1.1,62.21,1.12,4.85.09.23-4.84,4.12-83.94c73.35-5.73,112.47-41.11,116.32-105.21v-.21c.59-32.42-9.11-59-28.83-79.12-25.69-26.16-68-40-122.21-40Zm36.82,141.9,3.89-58.86c10.2.23,17.79,2.83,22.56,7.74,5,5.08,7.31,13.11,7,23.84-.76,15.87-11.14,24.41-33.46,27.28Z"/><path d="M1307.06,359l-.81-42.31-80.74-19.77-22.64,45.54-63-7.11L1271.59,56.11,1355.38,72l15.44,289.91Zm-6.43-117.79-4.92-87.38-39.36,74.94Z"/><path d="M1273,58.92l80,15.15,15.2,285.19-58.66-2.63-.81-41.89L1224.16,294l-22.75,45.77-57.8-6.52L1273,58.92m30.3,185.67-5.63-99.9-45,85.67,50.62,14.23m-33.17-191.3-1.66,3.5L1139.09,331.14l-3,6.32,6.94.79,57.8,6.52,3.48.39,1.56-3.13,21-42.19,76.93,18.84.74,38.05.09,4.69,4.68.21,58.66,2.62,5.51.25-.29-5.51L1358,73.8l-.21-3.92-3.86-.73L1274,54l-3.8-.72ZM1260,227.22,1293.72,163l4.22,74.87L1260,227.22Z"/><path class="cls-1" d="M1297.06,349l-.81-42.31-80.74-19.77-22.64,45.54-63-7.11L1261.59,46.11,1345.38,62l15.44,289.91Zm-6.43-117.79-4.92-87.38-39.36,74.94Z"/><path d="M1263,48.92l80,15.15,15.2,285.19-58.66-2.63-.81-41.89L1214.16,284l-22.75,45.77-57.8-6.52L1263,48.92m30.3,185.67-5.63-99.9-45,85.67,50.62,14.23m-33.17-191.3-1.66,3.5L1129.09,321.14l-3,6.32,6.94.79,57.8,6.52,3.48.39,1.56-3.13,21-42.19,76.93,18.84.74,38.05.09,4.69,4.68.21,58.66,2.62,5.51.25-.29-5.51L1348,63.8l-.21-3.92-3.86-.73L1264,44l-3.8-.72ZM1250,217.22,1283.72,153l4.22,74.87L1250,217.22Z"/></g></g></svg>