<?xml version="1.0" standalone="no"?><!-- Generator: Gravit.io --><svg xmlns="http://www.w3.org/2000/svg" xmlns:xlink="http://www.w3.org/1999/xlink" style="isolation:isolate" viewBox="0 0 456.92 124.12" width="456.92" height="124.12"><defs><clipPath id="_clipPath_mZxASa48Iy03K5c0EQYMwGn5hMMmgHrs"><rect width="456.92" height="124.12"/></clipPath></defs><g clip-path="url(#_clipPath_mZxASa48Iy03K5c0EQYMwGn5hMMmgHrs)"><clipPath id="_clipPath_c4K2xwrW7wBLi5acgRHGBbF0poukLmYg"><path d=" M 0 0 L 0 124.12 L 456.92 124.12 L 456.92 0 L 0 0 Z " fill="rgb(255,255,255)"/></clipPath><g clip-path="url(#_clipPath_c4K2xwrW7wBLi5acgRHGBbF0poukLmYg)"><path d=" M 411.565 65.875 L 411.565 1.673 L 420.698 1.673 L 420.698 58.174 L 453.347 58.174 L 453.347 65.875 L 411.565 65.875 Z  M 353.039 65.875 L 353.039 1.673 L 393.05 1.673 L 393.05 9.401 L 362.147 9.401 L 362.147 28.573 L 383.22 28.573 L 387.022 36.293 L 362.147 36.293 L 362.147 58.109 L 393.845 58.109 L 393.845 65.875 L 353.039 65.875 Z  M 329.662 59.306 C 325.216 64.345 318.426 67.49 309.539 67.49 C 300.634 67.49 293.798 64.345 289.352 59.306 C 284.267 53.571 282.073 45.388 282.073 36.222 L 282.073 1.673 L 291.175 1.673 L 291.175 36.222 C 291.175 42.908 292.275 48.89 295.562 53.207 C 298.401 56.93 302.821 59.378 309.468 59.378 C 316.082 59.378 320.613 56.93 323.451 53.207 C 326.745 48.89 327.853 42.908 327.853 36.222 L 327.853 1.673 L 336.947 1.673 L 336.947 36.222 C 336.947 45.388 334.746 53.571 329.662 59.306 Z  M 256.841 65.875 L 256.841 17.636 L 236.315 45.902 L 215.677 17.636 L 215.677 65.875 L 206.563 65.875 L 206.563 1.673 L 214.727 1.673 L 236.315 31.118 L 257.876 1.673 L 265.981 1.673 L 265.981 65.875 L 256.841 65.875 Z  M 163.493 16.177 L 153.8 37.609 L 173.186 37.609 L 163.493 16.177 Z  M 185.94 65.875 L 176.682 45.316 L 150.304 45.316 L 141.046 65.875 L 131.282 65.875 L 160.726 1.673 L 166.26 1.673 L 195.705 65.875 L 185.94 65.875 Z  M 103.223 67.49 C 95.496 67.49 88.797 64.866 83.179 61.572 L 83.179 52.406 C 92.143 58.031 97.748 59.6 103.223 59.6 C 110.944 59.6 115.983 54.958 115.983 48.89 C 115.983 40.317 107.962 38.852 101.329 36.808 C 90.906 33.592 82.521 29.08 82.521 17.922 C 82.521 7.142 92.221 0 103.731 0 C 110.944 0 116.849 1.901 122.168 4.297 L 122.168 12.903 C 116.126 9.915 110.658 7.871 103.731 7.871 C 95.717 7.871 91.271 11.952 91.271 17.922 C 91.271 24.491 96.375 26.672 104.538 29.009 C 115.104 32.062 124.791 35.857 124.791 48.89 C 124.791 59.814 115.69 67.49 103.223 67.49 Z  M 68.316 67.34 C 65.471 67.34 63.206 65.074 63.206 62.223 C 63.206 59.378 65.471 57.152 68.316 57.152 C 71.155 57.152 73.42 59.378 73.42 62.223 C 73.42 65.074 71.155 67.34 68.316 67.34 Z  M 45.355 65.875 L 45.355 37.244 L 13.944 37.244 L 13.944 65.875 L 4.83 65.875 L 4.83 1.673 L 13.944 1.673 L 13.944 29.51 L 45.355 29.51 L 45.355 1.673 L 54.469 1.673 L 54.469 65.875" fill="rgb(55,53,53)"/></g><clipPath id="_clipPath_9GnEvRgPLwLULmK26vy7BdZtkfe6iSUQ"><path d=" M 0 0 L 0 124.12 L 456.92 124.12 L 456.92 0 L 0 0 Z " fill="rgb(255,255,255)"/></clipPath><g clip-path="url(#_clipPath_9GnEvRgPLwLULmK26vy7BdZtkfe6iSUQ)"><path d=" M 0 89.936 L 21.275 89.936 L 21.275 93.211 L 12.402 93.211 L 12.402 115.495 L 8.749 115.495 L 8.749 93.211 L 0 93.211" fill="rgb(55,53,53)"/></g><clipPath id="_clipPath_KpK6cP2V8qc4vdEjCvJ70ZlsidlckIRn"><path d=" M 0 0 L 0 124.12 L 456.92 124.12 L 456.92 0 L 0 0 Z " fill="rgb(255,255,255)"/></clipPath><g clip-path="url(#_clipPath_KpK6cP2V8qc4vdEjCvJ70ZlsidlckIRn)"><path d=" M 62.321 89.936 L 65.973 89.936 L 65.973 115.495 L 62.321 115.495 L 62.321 104.414 L 47.966 104.414 L 47.966 115.495 L 44.314 115.495 L 44.314 89.936 L 47.966 89.936 L 47.966 101.016 L 62.321 101.016" fill="rgb(55,53,53)"/></g><clipPath id="_clipPath_LNuI5uK0JPP9Pr7LfpuAkqxyKPyfFMpv"><path d=" M 0 0 L 0 124.12 L 456.92 124.12 L 456.92 0 L 0 0 Z " fill="rgb(255,255,255)"/></clipPath><g clip-path="url(#_clipPath_LNuI5uK0JPP9Pr7LfpuAkqxyKPyfFMpv)"><path d=" M 91.121 89.936 L 105.6 89.936 L 105.6 93.211 L 94.773 93.211 L 94.773 101.016 L 105.287 101.016 L 105.287 104.291 L 94.773 104.291 L 94.773 112.22 L 105.976 112.22 L 105.976 115.495 L 91.121 115.495" fill="rgb(55,53,53)"/></g><clipPath id="_clipPath_GFLlBte5sMvxdBqp368mI6KQdvyPV0bE"><path d=" M 0 0 L 0 124.12 L 456.92 124.12 L 456.92 0 L 0 0 Z " fill="rgb(255,255,255)"/></clipPath><g clip-path="url(#_clipPath_GFLlBte5sMvxdBqp368mI6KQdvyPV0bE)"><path d=" M 159.229 89.936 L 162.881 89.936 L 162.881 115.169 C 162.881 117.525 162.641 119.264 162.158 120.397 C 161.677 121.523 160.895 122.428 159.821 123.105 C 158.748 123.782 157.452 124.12 155.935 124.12 C 155.701 124.12 155.309 124.081 154.744 124.009 L 154.066 120.592 L 155.003 120.592 C 156.059 120.592 156.866 120.461 157.419 120.208 C 157.973 119.954 158.422 119.499 158.741 118.854 C 159.066 118.209 159.229 116.836 159.229 114.739" fill="rgb(55,53,53)"/></g><clipPath id="_clipPath_PtyvEubMEnHX0q6RTahk1uydVHnLCGsL"><path d=" M 0 0 L 0 124.12 L 456.92 124.12 L 456.92 0 L 0 0 Z " fill="rgb(255,255,255)"/></clipPath><g clip-path="url(#_clipPath_PtyvEubMEnHX0q6RTahk1uydVHnLCGsL)"><path d=" M 188.081 89.936 L 202.559 89.936 L 202.559 93.211 L 191.733 93.211 L 191.733 101.016 L 202.248 101.016 L 202.248 104.291 L 191.733 104.291 L 191.733 112.22 L 202.937 112.22 L 202.937 115.495 L 188.081 115.495" fill="rgb(55,53,53)"/></g><clipPath id="_clipPath_PNxi89Q11TEm6NdObJxs206fpz1k2zxz"><path d=" M 0 0 L 0 124.12 L 456.92 124.12 L 456.92 0 L 0 0 Z " fill="rgb(255,255,255)"/></clipPath><g clip-path="url(#_clipPath_PNxi89Q11TEm6NdObJxs206fpz1k2zxz)"><path d=" M 258.859 89.936 L 262.505 89.936 L 252.232 115.618 L 251.385 115.618 L 243.02 94.825 L 234.569 115.618 L 233.743 115.618 L 223.471 89.936 L 227.162 89.936 L 234.206 107.565 L 241.307 89.936 L 244.803 89.936 L 251.893 107.565" fill="rgb(55,53,53)"/></g><clipPath id="_clipPath_EL6B0O2VEOJW71Z94iverhAlvjqCiOOP"><path d=" M 0 0 L 0 124.12 L 456.92 124.12 L 456.92 0 L 0 0 Z " fill="rgb(255,255,255)"/></clipPath><g clip-path="url(#_clipPath_EL6B0O2VEOJW71Z94iverhAlvjqCiOOP)"><path d=" M 284.834 89.559 L 299.501 89.559 L 299.501 92.833 L 288.551 92.833 L 288.551 100.762 L 299.189 100.762 L 299.189 104.102 L 288.551 104.102 L 288.551 112.161 L 299.879 112.161 L 299.879 115.495 L 284.834 115.495" fill="rgb(55,53,53)"/></g><clipPath id="_clipPath_Fu9DwUFVSfd0PuyWFvY3OJKjCL4lE6lo"><path d=" M 0 0 L 0 124.12 L 456.92 124.12 L 456.92 0 L 0 0 Z " fill="rgb(255,255,255)"/></clipPath><g clip-path="url(#_clipPath_Fu9DwUFVSfd0PuyWFvY3OJKjCL4lE6lo)"><path d=" M 323.588 89.559 L 327.305 89.559 L 327.305 112.097 L 338.951 112.097 L 338.951 115.495 L 323.588 115.495" fill="rgb(55,53,53)"/></g><clipPath id="_clipPath_ayHq4mppIhac9X9x6PsPH8pH0XGFXtLk"><path d=" M 0 0 L 0 124.12 L 456.92 124.12 L 456.92 0 L 0 0 Z " fill="rgb(255,255,255)"/></clipPath><g clip-path="url(#_clipPath_ayHq4mppIhac9X9x6PsPH8pH0XGFXtLk)"><path d=" M 361.216 89.559 L 364.933 89.559 L 364.933 112.097 L 376.579 112.097 L 376.579 115.495 L 361.216 115.495" fill="rgb(55,53,53)"/></g><clipPath id="_clipPath_OaXVrYi4riUkHY4tnUIqYRWxlOJsjasw"><path d=" M 0 0 L 0 124.12 L 456.92 124.12 L 456.92 0 L 0 0 Z " fill="rgb(255,255,255)"/></clipPath><g clip-path="url(#_clipPath_OaXVrYi4riUkHY4tnUIqYRWxlOJsjasw)"><path d=" M 398.838 89.559 L 413.504 89.559 L 413.504 92.833 L 402.555 92.833 L 402.555 100.762 L 413.193 100.762 L 413.193 104.102 L 402.555 104.102 L 402.555 112.161 L 413.882 112.161 L 413.882 115.495 L 398.838 115.495" fill="rgb(55,53,53)"/></g><clipPath id="_clipPath_RQlC4rns6VLEiH4251nLWKjTMpaemZiT"><path d=" M 0 0 L 0 124.12 L 456.92 124.12 L 456.92 0 L 0 0 Z " fill="rgb(255,255,255)"/></clipPath><g clip-path="url(#_clipPath_RQlC4rns6VLEiH4251nLWKjTMpaemZiT)"><path d=" M 441.798 92.71 L 440.684 92.71 L 440.684 100.893 L 442.09 100.893 C 443.972 100.893 445.26 100.73 445.958 100.411 C 446.654 100.092 447.194 99.603 447.591 98.953 C 447.976 98.308 448.171 97.566 448.171 96.739 C 448.171 95.919 447.962 95.183 447.527 94.519 C 447.09 93.855 446.478 93.393 445.704 93.12 C 444.916 92.846 443.607 92.71 441.798 92.71 Z  M 436.967 115.501 L 436.967 89.559 L 443.457 89.559 C 446.088 89.559 448.164 90.216 449.708 91.512 C 451.237 92.814 452.012 94.571 452.012 96.791 C 452.012 98.302 451.634 99.61 450.879 100.71 C 450.123 101.811 449.043 102.637 447.636 103.178 C 448.457 103.725 449.258 104.466 450.046 105.411 C 450.833 106.355 451.94 107.995 453.379 110.326 C 454.277 111.797 455 112.904 455.553 113.646 L 456.92 115.501 L 452.5 115.501 L 451.374 113.789 C 451.334 113.73 451.263 113.626 451.146 113.476 L 450.429 112.455 L 449.284 110.567 L 448.04 108.549 C 447.266 107.481 446.569 106.635 445.938 106.01 C 445.3 105.378 444.727 104.922 444.219 104.649 C 443.711 104.369 442.845 104.226 441.641 104.226 L 440.684 104.226 L 440.684 115.501" fill="rgb(55,53,53)"/></g></g></svg>