<?xml version="1.0" encoding="UTF-8" standalone="no"?>
<svg
   xmlns:dc="http://purl.org/dc/elements/1.1/"
   xmlns:cc="http://creativecommons.org/ns#"
   xmlns:rdf="http://www.w3.org/1999/02/22-rdf-syntax-ns#"
   xmlns:svg="http://www.w3.org/2000/svg"
   xmlns="http://www.w3.org/2000/svg"
   version="1.1"
   id="svg8458"
   viewBox="0 0 160 30"
   height="30"
   width="160">
  <defs
     id="defs8460" />
  <metadata
     id="metadata8463">
    <rdf:RDF>
      <cc:Work
         rdf:about="">
        <dc:format>image/svg+xml</dc:format>
        <dc:type
           rdf:resource="http://purl.org/dc/dcmitype/StillImage" />
        <dc:title></dc:title>
      </cc:Work>
    </rdf:RDF>
  </metadata>
  <g
     transform="translate(-171.37259,-621.61567)"
     id="layer1">
    <path
       id="path8142"
       style="fill:#211d1d;fill-opacity:1;fill-rule:nonzero;stroke:none"
       d="m 216.60697,644.02377 -3.00375,0 0,-7.1787 -6.2425,0 0,7.1787 -3.00375,0 0,-14.9137 3.00375,0 0,5.7325 6.2425,0 0,-5.7325 3.00375,0 0,14.9137 z" />
    <path
       id="path8144"
       style="fill:#211d1d;fill-opacity:1;fill-rule:nonzero;stroke:none"
       d="m 230.03322,631.11377 -5.00625,0 0,4.09 4.9,0 0,2.0025 -4.9,0 0,4.8163 5.9225,0 0,2.0012 -8.92625,0 0,-14.9137 8.01,0 0,2.0037 z" />
    <path
       id="path8146"
       style="fill:#211d1d;fill-opacity:1;fill-rule:nonzero;stroke:none"
       d="m 238.45322,636.05627 1.215,0 c 2.06625,0 2.7275,-1.5975 2.7275,-2.685 0,-1.6837 -1.19375,-2.2575 -2.38625,-2.2575 l -1.55625,0 0,4.9425 z m -3.005,-6.9462 5.1775,0 c 2.85625,0 4.77375,1.365 4.77375,3.9 0,2.2162 -1.1075,3.4937 -2.515,4.325 l 3.70875,6.6887 -3.455,0 -2.895,-5.9638 -1.79,0 0,5.965 -3.005,0 0,-14.9137 z" />
    <path
       id="path8148"
       style="fill:#211d1d;fill-opacity:1;fill-rule:nonzero;stroke:none"
       d="m 253.35071,642.19377 1.5325,0 c 1.66375,0 2.91875,-0.875 2.91875,-2.5375 0,-1.7462 -1.29875,-2.4912 -2.94,-2.4912 l -1.51125,0 0,5.0287 z m 0,-6.8625 0.93625,0 c 1.72625,0 2.89876,-1.1075 2.89876,-2.4925 0,-1.32 -0.98,-1.8962 -2.28125,-1.8962 l -1.55376,0 0,4.3887 z m -3.00499,8.6925 0,-14.9137 5.38999,0 c 2.51375,0 4.28376,1.1512 4.28376,3.175 0,2.3862 -1.93875,3.3662 -2.98375,3.6437 l 0,0.043 c 1.855,0.085 3.92,1.3638 3.92,3.6425 0,2.58 -2.1525,4.41 -5.6675,4.41 l -4.9425,0 z" />
    <path
       id="path8150"
       style="fill:#211d1d;fill-opacity:1;fill-rule:nonzero;stroke:none"
       d="m 272.34696,638.12377 c -0.63999,-1.9612 -1.27999,-3.7725 -1.9825,-6.0725 l -0.0425,0 c -0.61875,2.3 -1.32125,4.1113 -2.02375,6.0725 l 4.04875,0 z m -0.40625,-9.0137 5.60375,14.9137 -3.36624,0 -1.38376,-4.0687 -5.285,0 -1.53375,4.0687 -2.59875,0 6.0725,-14.9137 2.49125,0 z" />
    <path
       id="path8152"
       style="fill:#211d1d;fill-opacity:1;fill-rule:nonzero;stroke:none"
       d="m 281.21322,629.11007 3.00375,0 0,12.9125 5.92375,0 0,2.0012 -8.9275,0 0,-14.9137 z" />
    <path
       id="path8154"
       style="fill:#211d1d;fill-opacity:1;fill-rule:nonzero;stroke:none"
       d="m 294.14821,629.11007 3.00376,0 0,14.9137 -3.00376,0 0,-14.9137 z" />
    <path
       id="path8156"
       style="fill:#211d1d;fill-opacity:1;fill-rule:nonzero;stroke:none"
       d="m 310.55822,631.11377 -4.98501,0 0,4.9 4.90125,0 0,2.0013 -4.90125,0 0,6.0087 -3.00375,0 0,-14.9137 7.98875,0 0,2.0037 z" />
    <path
       id="path8158"
       style="fill:#211d1d;fill-opacity:1;fill-rule:nonzero;stroke:none"
       d="m 322.84322,631.11377 -5.0075,0 0,4.09 4.9,0 0,2.0025 -4.9,0 0,4.8163 5.9225,0 0,2.0012 -8.9275,0 0,-14.9137 8.0125,0 0,2.0037 z" />
    <path
       id="path8160"
       style="fill:#38791e;fill-opacity:1;fill-rule:nonzero;stroke:none"
       d="m 175.13447,636.54127 c 4.1325,1.2988 8.03,5.3313 9.21,10.485 -5.81,-0.755 -9.1975,-5.5287 -9.21,-10.485" />
    <path
       id="path8162"
       style="fill:#38791e;fill-opacity:1;fill-rule:nonzero;stroke:none"
       d="m 195.94822,636.54127 c -4.1325,1.2988 -8.07875,5.3313 -9.21,10.485 5.80875,-0.755 9.19625,-5.5287 9.21,-10.485" />
    <path
       id="path8164"
       style="fill:#38791e;fill-opacity:1;fill-rule:nonzero;stroke:none"
       d="m 185.55447,647.02627 c -4.405,-6.8 -3.45376,-16.1262 0.004,-21.15 3.29876,5.0238 4.33001,14.35 -0.004,21.15" />
    <path
       id="path8166"
       style="fill:#211d1d;fill-opacity:1;fill-rule:nonzero;stroke:none"
       d="m 185.57071,624.50507 c -6.68875,0 -12.11125,5.4275 -12.11125,12.115 0,6.685 5.4225,12.1062 12.11125,12.1062 6.68001,0 12.1025,-5.4212 12.1025,-12.1062 0,-6.6875 -5.4225,-12.115 -12.1025,-12.115 m 0,23.4787 c -6.28625,0 -11.3675,-5.0912 -11.3675,-11.3637 0,-6.285 5.08125,-11.3725 11.3675,-11.3725 6.27501,0 11.35875,5.0875 11.35875,11.3725 0,6.2725 -5.08375,11.3637 -11.35875,11.3637" />
    <path
       id="path8168"
       style="fill:#211d1d;fill-opacity:1;fill-rule:nonzero;stroke:none"
       d="m 326.37447,642.42627 c 0,-0.7437 0.58375,-1.3162 1.31125,-1.3162 0.71625,0 1.28874,0.5725 1.28874,1.3162 0,0.7763 -0.57249,1.335 -1.28874,1.335 -0.72751,0 -1.31125,-0.5587 -1.31125,-1.335 m 1.31125,1.5888 c 0.85874,0 1.6,-0.6575 1.6,-1.5888 0,-0.9137 -0.74125,-1.5762 -1.6,-1.5762 -0.88376,0 -1.61751,0.6625 -1.61751,1.5762 0,0.9313 0.73375,1.5888 1.61751,1.5888 m -0.34125,-1.4488 0.32375,0 0.48875,0.7913 0.31625,0 -0.53251,-0.8188 c 0.26626,-0.029 0.47001,-0.1712 0.47001,-0.4925 0,-0.3637 -0.20375,-0.5337 -0.63625,-0.5337 l -0.70126,0 0,1.845 0.27126,0 0,-0.7913 z m 0,-0.2437 0,-0.5688 0.37999,0 c 0.205,0 0.3975,0.045 0.3975,0.2688 0,0.2875 -0.2,0.3 -0.45125,0.3 l -0.32625,0 z" />
  </g>
</svg>
