<?xml version="1.0" encoding="iso-8859-1"?>
<!-- Generator: Adobe Illustrator 00.0.0, SVG Export Plug-In . SVG Version: 0.00 Build 0)  -->
<svg version="1.1" id="Artwork" xmlns="http://www.w3.org/2000/svg" xmlns:xlink="http://www.w3.org/1999/xlink" x="0px" y="0px"
	 viewBox="0 0 144.567 101.313" style="enable-background:new 0 0 144.567 101.313;" xml:space="preserve">
<g>
	<g>
		<g>
			<g>
				<path style="fill:#004F91;" d="M6.245,42.353c0-19.889,29.544-36.109,65.846-36.109s65.846,16.22,65.846,36.109
					S108.392,78.462,72.09,78.462S6.245,62.435,6.245,42.353"/>
			</g>
		</g>
	</g>
	<g>
		<g>
			<g>
				<path style="fill:#004F91;" d="M72.283,83.483c-39.778,0-70.866-17.958-70.866-41.129S32.506,1.417,72.283,1.417
					s70.866,17.958,70.866,40.936S111.868,83.483,72.283,83.483"/>
			</g>
		</g>
	</g>
	<g>
		<g>
			<g>
				<path style="fill:#D51317;" d="M6.245,42.353c0-19.889,29.544-36.109,65.846-36.109s65.846,16.22,65.846,36.109
					S108.392,78.462,72.09,78.462S6.245,62.435,6.245,42.353"/>
			</g>
		</g>
	</g>
	<g>
		<g>
			<g>
				<path style="fill:#FFFFFF;" d="M34.63,37.14h-7.531c0,0,0-11.393,0-12.358c0-1.738,0.965-2.317,0.965-2.317h-9.269
					c0,0,0.965,0.772,0.965,2.317v28.385c0.193,1.738-0.965,2.317-0.965,2.317h9.269c0,0-0.965-0.772-0.965-2.317
					c0-1.159,0-8.689,0-13.131h7.531v13.131c0,1.738-0.965,2.317-0.965,2.317h9.269c0,0-0.965-0.772-0.965-2.317V24.782
					c0-1.738,0.965-2.317,0.965-2.317h-9.269c0,0,0.965,0.772,0.965,2.317C34.63,25.747,34.63,37.14,34.63,37.14"/>
			</g>
		</g>
	</g>
	<g>
		<g>
			<g>
				<path style="fill:#FFFFFF;" d="M51.622,44.091c0,4.827,0.386,8.303,3.283,8.689c1.352,0.193,3.283,0.193,4.827-1.738
					c1.738-2.124,2.124-4.055,2.124-4.055h2.51c-1.159,5.214-4.827,8.882-9.655,8.882c-5.6,0-10.234-5.407-10.234-11.972
					s4.634-11.972,10.234-11.972s9.655,5.214,9.655,11.779l0,0L51.622,44.091z"/>
			</g>
		</g>
	</g>
	<g>
		<g>
			<g>
				<path style="fill:#D51317;" d="M51.815,41.581c0.193-3.862,0.965-6.565,3.283-6.565s3.283,2.51,3.283,6.565H51.815z"/>
			</g>
		</g>
	</g>
	<g>
		<g>
			<g>
				<path style="fill:#FFFFFF;" d="M77.497,32.699c2.317,0,3.669,0.193,4.055,0.193c1.931,0.386,3.09,2.124,3.09,3.476
					c0,1.738-1.545,3.09-3.476,3.09c-1.931,0-3.476-1.352-3.476-3.09c0-0.965,0.386-1.738,1.159-2.317c0,0-2.124-0.579-3.669,0.965
					c-0.772,0.772-0.772,1.738-0.772,1.738v16.413c0,1.738,0.965,2.317,0.965,2.317h-9.269c0,0,0.965-0.772,0.965-2.317V35.209
					c0-1.738-0.965-2.317-0.965-2.317L77.497,32.699z"/>
			</g>
		</g>
	</g>
	<g>
		<g>
			<g>
				<path style="fill:#FFFFFF;" d="M89.276,55.484l4.441-11.393c0.386-1.159-0.772-1.545-0.772-1.545h5.6
					c0,0-1.352,0.193-1.931,1.545L88.89,63.787h-4.441l-6.565-19.696c-0.386-1.159-1.545-1.545-1.545-1.545h9.848
					c-1.159,0.579-0.772,1.545-0.772,1.545L89.276,55.484z"/>
			</g>
		</g>
	</g>
	<g>
		<g>
			<g>
				<path style="fill:#FFFFFF;" d="M107.62,32.699h-8.882c0,0,0.965,0.772,0.965,2.317v17.958c0,1.738-0.965,2.317-0.965,2.317
					h8.882c0,0-0.965-0.772-0.965-2.317V35.016C106.461,33.471,107.62,32.699,107.62,32.699"/>
			</g>
		</g>
	</g>
	<g>
		<g>
			<g>
				<path style="fill:#FFFFFF;" d="M99.703,27.871c0-1.738,1.545-3.09,3.476-3.09c1.931,0,3.476,1.352,3.476,3.09
					c0,1.738-1.545,3.09-3.476,3.09C101.248,30.961,99.703,29.609,99.703,27.871"/>
			</g>
		</g>
	</g>
	<g>
		<g>
			<g>
				<path style="fill:#FFFFFF;" d="M114.571,45.25c1.738,0.965,3.669,1.545,4.827,2.124c1.159,0.579,1.931,1.738,1.931,2.896
					c0,1.931-2.124,3.476-4.634,3.476c-0.965,0-1.931-0.193-2.703-0.579c0.965-0.386,1.931-1.159,1.931-2.703
					c0-1.738-1.545-3.09-3.476-3.09c-1.352,0-2.703,0.772-3.283,1.931c0,0-0.386,0.965-0.193,1.738c0,0.193,0.193,0.579,0.386,0.772
					c1.159,2.317,3.862,3.862,9.462,3.862c6.179-0.193,10.427-3.283,10.427-6.951c0-1.738-0.579-3.283-1.931-4.441
					c-0.965-0.772-1.931-1.545-4.441-2.703c-1.545-0.772-3.09-1.159-4.055-1.545c-1.159-0.579-2.124-1.545-2.124-2.896
					c0-1.738,1.738-3.09,3.862-3.09c0.386,0,0.965,0,1.352,0.193l-0.193,0.193c-0.772,0.579-1.159,1.352-1.159,2.317
					c0,1.738,1.545,3.09,3.476,3.09c1.931,0,3.476-1.352,3.476-3.09c0-1.159-0.772-2.124-1.931-2.896
					c-1.545-0.965-3.669-1.545-5.793-1.545c-5.214,0-9.269,3.09-9.269,7.145C110.323,41.774,112.061,43.898,114.571,45.25
					L114.571,45.25z"/>
			</g>
		</g>
	</g>
	<g>
		<g>
			<g>
				<path style="fill:#004F91;" d="M34.051,66.104c0.579,0.193,1.352,0.579,2.124,0.579c0.772,0,1.352-0.386,1.352-0.965
					s-0.386-0.772-1.352-1.159c-1.352-0.579-2.317-1.159-2.317-2.51c0-1.352,1.159-2.51,3.09-2.51c0.965,0,1.545,0.193,2.124,0.386
					l-0.386,1.545c-0.386-0.193-0.965-0.386-1.738-0.386c-0.772,0-1.159,0.386-1.159,0.772c0,0.579,0.386,0.772,1.545,1.159
					c1.352,0.579,2.124,1.352,2.124,2.51c0,1.352-0.965,2.51-3.283,2.51c-0.965,0-1.931-0.193-2.317-0.579L34.051,66.104z"/>
			</g>
		</g>
	</g>
	<g>
		<g>
			<g>
				<path style="fill:#004F91;" d="M42.547,63.594c0.193,0,0.386,0,0.579,0c0.965,0,1.545-0.579,1.545-1.352
					c0-0.772-0.579-1.159-1.352-1.159c-0.386,0-0.579,0-0.772,0C42.547,61.084,42.547,63.594,42.547,63.594z M40.616,59.925
					c0.579,0,1.352-0.193,2.51-0.193s1.931,0.193,2.51,0.579c0.579,0.386,0.772,1.159,0.772,1.931c0,0.772-0.193,1.545-0.772,1.931
					c-0.579,0.579-1.545,0.772-2.703,0.772c-0.193,0-0.386,0-0.579,0v2.896h-1.931v-7.917
					C40.423,59.925,40.616,59.925,40.616,59.925z"/>
			</g>
		</g>
	</g>
	<g>
		<g>
			<g>
				<path style="fill:#004F91;" d="M51.236,66.683c1.159,0,1.931-1.159,1.931-2.703c0-1.545-0.772-2.703-1.931-2.703
					c-1.352,0-1.931,1.159-1.931,2.703C49.305,65.332,50.077,66.683,51.236,66.683L51.236,66.683z M51.236,68.035
					c-2.51,0-3.862-1.931-3.862-4.248c0-2.51,1.545-4.248,4.055-4.248c2.51,0,3.862,1.931,3.862,4.055
					C55.291,66.49,53.553,68.035,51.236,68.035L51.236,68.035z"/>
			</g>
		</g>
	</g>
	<g>
		<g>
			<g>
				<path style="fill:#004F91;" d="M58.381,63.401h0.772c0.965,0,1.545-0.386,1.545-1.159c0-0.772-0.579-1.159-1.352-1.159
					c-0.386,0-0.772,0-0.772,0L58.381,63.401L58.381,63.401z M56.643,59.925c0.579-0.193,1.545-0.193,2.51-0.193
					c1.159,0,2.124,0.193,2.703,0.579c0.579,0.386,0.772,0.965,0.772,1.738c0,0.965-0.772,1.738-1.545,1.931l0,0
					c0.579,0.193,0.965,0.772,1.159,1.545c0.193,0.965,0.579,1.931,0.579,2.317h-1.931c-0.193-0.193-0.386-0.965-0.579-1.931
					c-0.193-0.965-0.579-1.352-1.352-1.352h-0.579v3.283H56.45v-7.917C56.45,59.925,56.643,59.925,56.643,59.925z"/>
			</g>
		</g>
	</g>
</g>
<polygon style="fill:#004F91;" points="65.332,61.277 63.208,61.277 63.208,59.732 69.387,59.732 69.387,61.277 67.263,61.277 
	67.263,67.842 65.332,67.842 "/>
<g>
	<g>
		<g>
			<g>
				<path style="fill:#004F91;" d="M70.546,66.104c0.579,0.193,1.352,0.579,2.124,0.579c0.772,0,1.352-0.386,1.352-0.965
					s-0.386-0.772-1.352-1.159c-1.352-0.579-2.317-1.159-2.317-2.51c0-1.352,1.159-2.51,3.09-2.51c0.965,0,1.545,0.193,2.124,0.386
					L75.18,61.47c-0.386-0.193-0.965-0.386-1.738-0.386c-0.772,0-1.159,0.386-1.159,0.772c0,0.579,0.386,0.772,1.545,1.159
					c1.352,0.579,2.124,1.352,2.124,2.51c0,1.352-0.965,2.51-3.283,2.51c-0.965,0-1.931-0.193-2.317-0.579L70.546,66.104z"/>
			</g>
		</g>
	</g>
	<g>
		<g>
			<g>
				<path style="fill:#004F91;" d="M117.275,91.979c0-0.772-0.579-1.159-1.159-1.159c-0.772,0-1.352,0.579-1.352,1.352
					c0,0.579,0.386,0.965,0.965,0.965h0.193c-0.193,0.386-0.965,0.965-1.352,1.159l0.772,0.772
					C116.502,94.296,117.275,93.138,117.275,91.979 M112.64,99.703l1.931-8.689h-2.317l-0.965,5.02l-2.51-5.02h-2.317l-1.931,8.689
					h2.317l1.159-5.214l2.51,5.214H112.64z M101.055,99.703l1.931-8.689h-2.317l-1.931,8.689H101.055z M92.752,99.703l5.214-8.689
					h-2.703l-3.476,6.372l-0.772-6.372h-2.51l1.352,8.689H92.752z M80.973,97.965c-1.352,0-2.317-0.772-2.317-2.124
					c0-1.545,1.159-2.896,2.703-2.896c1.352,0,2.317,0.772,2.317,2.124C83.676,96.613,82.518,97.965,80.973,97.965 M80.973,99.896
					c2.896,0,5.214-2.317,5.214-5.02c0-2.317-1.931-3.862-4.441-3.862c-2.896,0-5.214,2.317-5.214,5.02
					C76.532,98.351,78.463,99.896,80.973,99.896 M72.477,99.703l1.931-8.689h-3.283l-2.896,4.827l-0.772-4.827h-3.09l-1.931,8.689
					h2.317l1.352-5.793l0.965,5.793h0.965l3.476-5.793l-1.352,5.793H72.477z M51.815,99.703l1.545-6.758h2.51l0.386-1.931h-7.145
					l-0.386,1.931h2.51l-1.545,6.758H51.815z M44.285,99.703l0.386-1.931h-4.248l0.386-1.545h4.055l0.386-1.931h-4.055l0.386-1.352
					h4.248l0.386-1.931h-6.372l-1.931,8.689H44.285z M31.154,99.896c1.545,0,2.896-0.579,3.669-1.738l0.772-3.476h-4.248
					l-0.386,1.931h1.931l-0.193,0.772c-0.386,0.386-0.772,0.579-1.352,0.579c-1.352,0-2.317-0.965-2.317-2.124
					c0-1.738,1.159-2.896,2.703-2.896c0.965,0,1.738,0.579,1.931,1.159l2.124-0.772c-0.579-1.159-1.738-2.317-3.669-2.317
					c-3.09,0-5.407,2.124-5.407,5.02C26.713,98.351,28.837,99.896,31.154,99.896"/>
			</g>
		</g>
	</g>
</g>
</svg>
