<?xml version="1.0" encoding="UTF-8" standalone="no"?>
<!-- Created with Inkscape (http://www.inkscape.org/) -->

<svg
   xmlns:dc="http://purl.org/dc/elements/1.1/"
   xmlns:cc="http://creativecommons.org/ns#"
   xmlns:rdf="http://www.w3.org/1999/02/22-rdf-syntax-ns#"
   xmlns:svg="http://www.w3.org/2000/svg"
   xmlns="http://www.w3.org/2000/svg"
   xmlns:sodipodi="http://sodipodi.sourceforge.net/DTD/sodipodi-0.dtd"
   xmlns:inkscape="http://www.inkscape.org/namespaces/inkscape"
   width="296.50992"
   height="102"
   viewBox="0 0 78.451583 26.9875"
   version="1.1"
   id="svg1704"
   inkscape:version="0.92.0 r15299"
   sodipodi:docname="hy vee.svg">
  <defs
     id="defs1698">
    <clipPath
       id="clipPath17">
      <path
         id="path19"
         d="M 0,0 H 1316.25 V 774 H 0 Z"
         inkscape:connector-curvature="0" />
    </clipPath>
    <clipPath
       id="clipPath25">
      <path
         id="path27"
         d="M -9,158.245 H 652.5 V 901.881 H -9 Z"
         inkscape:connector-curvature="0" />
    </clipPath>
    <clipPath
       id="clipPath33">
      <path
         id="path35"
         d="M -1.706,157.885 H 652.5 V 775.017 H -1.706 Z"
         inkscape:connector-curvature="0" />
    </clipPath>
    <clipPath
       id="clipPath47">
      <path
         id="path49"
         d="m 663.75,-9 h 661.5 v 797.61 h -661.5 z"
         inkscape:connector-curvature="0" />
    </clipPath>
    <clipPath
       id="clipPath55">
      <path
         id="path57"
         d="m 662.58,-0.458 h 654.48 v 776.16 H 662.58 Z"
         inkscape:connector-curvature="0" />
    </clipPath>
    <clipPath
       id="clipPath205">
      <path
         id="path207"
         d="m -122.705,10.182 h 648 v 13 h -648 z"
         inkscape:connector-curvature="0" />
    </clipPath>
  </defs>
  <sodipodi:namedview
     id="base"
     pagecolor="#ffffff"
     bordercolor="#666666"
     borderopacity="1.0"
     inkscape:pageopacity="0.0"
     inkscape:pageshadow="2"
     inkscape:zoom="2.7231682"
     inkscape:cx="147.25495"
     inkscape:cy="50.000001"
     inkscape:document-units="mm"
     inkscape:current-layer="layer1"
     showgrid="false"
     fit-margin-top="0"
     fit-margin-left="0"
     fit-margin-right="0"
     fit-margin-bottom="0"
     units="px"
     inkscape:window-width="1280"
     inkscape:window-height="744"
     inkscape:window-x="-4"
     inkscape:window-y="-4"
     inkscape:window-maximized="1" />
  <metadata
     id="metadata1701">
    <rdf:RDF>
      <cc:Work
         rdf:about="">
        <dc:format>image/svg+xml</dc:format>
        <dc:type
           rdf:resource="http://purl.org/dc/dcmitype/StillImage" />
        <dc:title></dc:title>
      </cc:Work>
    </rdf:RDF>
  </metadata>
  <g
     inkscape:label="Layer 1"
     inkscape:groupmode="layer"
     id="layer1"
     transform="translate(266.50287,-202.35477)">
    <g
       id="g11"
       transform="matrix(0.33072917,0,0,-0.33072917,-603.77452,454.4081)"
       style="fill:#e2231a;fill-opacity:1">
      <path
         style="fill:#e2231a;fill-opacity:1;fill-rule:nonzero;stroke:none"
         id="path353"
         d="m 1249.4031,705.76314 c -0.7007,-0.70875 -1.0524,-1.56515 -1.0551,-2.56921 0,-1.01212 0.349,-1.87389 1.0497,-2.58801 0.7007,-0.71143 1.5571,-1.06849 2.5665,-1.06849 1.0068,0 1.8632,0.35706 2.5693,1.06849 0.7033,0.71412 1.0523,1.57589 1.0577,2.58801 0,0.99869 -0.349,1.85509 -1.0577,2.56921 -0.7061,0.71144 -1.5625,1.06849 -2.5693,1.06849 -0.996,0 -1.8497,-0.35705 -2.5611,-1.06849 m 5.5518,-5.56528 c -0.8241,-0.82688 -1.8175,-1.24031 -2.9907,-1.24031 -1.1651,0 -2.1584,0.41343 -2.9799,1.24031 -0.8162,0.82418 -1.2242,1.81751 -1.2242,2.99607 0,1.15977 0.408,2.14772 1.2349,2.97728 0.8162,0.81613 1.8041,1.22152 2.9692,1.22957 1.1679,0 2.1612,-0.41075 2.9907,-1.22957 0.8189,-0.81882 1.2269,-1.80677 1.235,-2.97728 0,-1.16783 -0.4081,-2.16115 -1.235,-2.99607 m -2.196,4.59344 c -0.2013,0.11275 -0.5289,0.17182 -0.9826,0.17182 h -0.6953 v -1.67791 h 0.7356 c 0.3463,0 0.604,0.0349 0.7759,0.1047 0.3141,0.12618 0.4698,0.36511 0.4751,0.72217 0,0.3329 -0.102,0.55841 -0.3087,0.67922 m -0.8752,0.73022 c 0.5772,0 0.996,-0.051 1.2672,-0.16913 0.4778,-0.19329 0.7114,-0.58525 0.7168,-1.17051 0,-0.41612 -0.1477,-0.71949 -0.4537,-0.91547 -0.1611,-0.10201 -0.3839,-0.1745 -0.6739,-0.22282 0.3624,-0.0564 0.6282,-0.20672 0.8,-0.45371 0.1665,-0.24162 0.247,-0.47787 0.2524,-0.71949 v -0.33826 c 0,-0.10202 0,-0.21746 0.011,-0.34632 0.01,-0.11813 0.019,-0.19867 0.04,-0.23894 l 0.03,-0.0591 h -0.7624 c 0,0.0107 0,0.0242 -0.013,0.0456 0,0.0134 0,0.0295 -0.011,0.0537 l -0.019,0.14766 v 0.3678 c 0,0.53424 -0.1422,0.88593 -0.4349,1.06312 -0.1718,0.0993 -0.4698,0.14497 -0.9074,0.15034 h -0.6443 v -1.82825 h -0.8161 v 4.63371 z"
         inkscape:connector-curvature="0" />
      <path
         style="fill:#e2231a;fill-opacity:1;fill-rule:nonzero;stroke:none"
         id="path355"
         d="m 1131.1978,681.4885 h 4.6229 v 1.4873 h -3.0309 v 2.03228 h 2.9021 v 1.4873 h -2.9021 v 2.10209 h 3.0309 v 1.48461 h -4.6229 z m 6.3814,0 h 1.592 v 6.44586 h 0.024 l 2.2041,-6.44586 h 1.3477 l 2.196,6.44586 h 0.022 0.013 v -6.44586 h 1.5893 v 8.59358 h -2.2068 l -2.2631,-6.50223 h -0.024 l -2.2873,6.50223 h -2.2068 z m 10.8782,0 h 1.592 v 3.27528 h 0.5665 c 0.9181,0 1.7074,0 2.5209,0.68459 0.5584,0.51008 0.8134,1.17588 0.8134,1.97322 0,0.80271 -0.255,1.46582 -0.8134,1.9759 -0.8135,0.68459 -1.6028,0.68459 -2.5209,0.68459 h -2.1585 z m 1.592,7.10897 h 0.5665 c 0.6497,0 1.7423,-0.0483 1.7423,-1.17588 0,-1.12487 -1.1141,-1.1732 -1.7987,-1.1732 h -0.5101 z m 5.2297,-7.10897 h 4.2176 v 1.4873 h -2.6256 v 7.10628 h -1.592 z m 4.9801,4.27397 c 0,-2.46183 2.0215,-4.44847 4.4941,-4.44847 2.4725,0 4.4941,1.98664 4.4941,4.44847 0,2.54505 -2.0565,4.49411 -4.4941,4.49411 -2.4404,0 -4.4941,-1.94906 -4.4941,-4.49411 m 1.5893,0.0107 c 0,1.64838 1.2886,2.99607 2.9048,2.99607 1.6134,0 2.9021,-1.34769 2.9021,-2.99607 0,-1.58932 -1.2645,-2.97191 -2.9021,-2.97191 -1.6404,0 -2.9048,1.38259 -2.9048,2.97191 m 10.556,-4.28471 h 1.592 v 3.17058 l 2.8297,5.423 h -1.7504 l -1.882,-3.94913 -1.8685,3.94913 h -1.745 l 2.8242,-5.423 z m 5.4284,0 h 4.6257 v 1.4873 h -3.0337 v 2.03228 h 2.9048 v 1.4873 h -2.9048 v 2.10209 h 3.0337 v 1.48461 h -4.6257 z m 6.3599,0 h 4.623 v 1.4873 h -3.0336 v 2.03228 h 2.9048 v 1.4873 h -2.9048 v 2.10209 h 3.0336 v 1.48461 h -4.623 z"
         inkscape:connector-curvature="0" />
      <path
         style="fill:#e2231a;fill-opacity:1;fill-rule:nonzero;stroke:none"
         id="path357"
         d="m 1194.9798,685.97187 c 0,-2.46182 2.0242,-4.44847 4.4941,-4.44847 2.4752,0 4.4968,1.98665 4.4968,4.44847 0,2.54237 -2.0565,4.49411 -4.4968,4.49411 -2.4377,0 -4.4941,-1.95174 -4.4941,-4.49411 m 1.592,0.0107 c 0,1.65107 1.2886,2.99608 2.9021,2.99608 1.6135,0 2.9048,-1.34501 2.9048,-2.99608 0,-1.592 -1.2672,-2.97191 -2.9048,-2.97191 -1.635,0 -2.9021,1.37991 -2.9021,2.97191 m 10.4621,-4.2847 h 1.2537 l 1.4175,5.67804 h 0.022 l 1.396,-5.67804 h 1.2618 l 2.4994,8.59357 h -1.6269 l -1.4953,-6.00288 h -0.024 l -1.4417,6.00288 h -1.1624 l -1.4739,-6.00288 h -0.022 l -1.4873,6.00288 h -1.6269 z m 8.9963,0 h 1.5893 v 6.24719 h 0.024 l 3.5894,-6.24719 h 1.7773 v 8.59357 h -1.592 v -6.24719 h -0.024 l -3.5545,6.24719 h -1.8094 z m 8.811,0 h 4.6203 v 1.48729 h -3.031 v 2.03229 h 2.9048 v 1.48461 h -2.9048 v 2.10477 h 3.031 v 1.48461 h -4.6203 z m 6.3814,0 h 1.984 c 0.9638,0 2.0672,0.11544 2.8591,0.5584 1.2511,0.68459 2.0565,2.1692 2.0565,3.71556 0,1.3477 -0.6068,2.62291 -1.4202,3.32092 -0.4994,0.42955 -1.4148,0.99869 -3.5276,0.99869 h -1.9518 z m 1.5893,7.10896 h 0.3034 c 0.9987,0 1.8336,-0.11813 2.4967,-0.72217 0.5584,-0.48861 0.9182,-1.2779 0.9182,-2.11283 0,-0.91815 -0.4403,-1.9061 -1.2887,-2.37054 -0.6738,-0.35975 -1.2322,-0.41613 -2.0913,-0.41613 h -0.3383 z"
         inkscape:connector-curvature="0" />
      <path
         style="fill:#e2231a;fill-opacity:1;fill-rule:nonzero;stroke:none"
         id="path343"
         d="m 1020.6598,761.314 h 16.5563 v -13.10111 h 7.5036 V 761.314 h 17.0368 v -42.61083 c 0,0 1.1437,-9.49562 -3.0927,-14.96694 -4.8861,-6.31431 -13.9441,-5.37468 -13.9441,-5.37468 v 44.03906 h -7.5036 v -44.03906 c 0,0 -6.0888,-1.02554 -12.583,4.34109 -4.9478,4.09141 -3.9733,16.00053 -3.9733,16.00053 z"
         inkscape:connector-curvature="0" />
      <path
         style="fill:#e2231a;fill-opacity:1;fill-rule:nonzero;stroke:none"
         id="path345"
         d="m 1193.6562,699.08372 v 7.1734 h -8.9989 c 0,0 -1.6967,-0.53693 -3.3961,1.07118 -1.6967,1.60273 -1.4685,5.3532 -1.4685,5.3532 v 27.57139 c 0,0 0,2.9048 2.8484,2.99876 3.2914,0.10739 3.8203,-2.99876 3.8203,-2.99876 l -0.021,-21.53629 c -0.6121,-4.41894 -4.3089,-6.09954 -4.3089,-6.09954 0,0 11.7964,-0.87519 15.214,1.48193 4.4189,3.04708 4.529,8.09423 4.529,8.09423 l -0.019,11.31582 c -0.01,4.62297 -1.7585,7.9251 -5.0257,10.71982 -4.282,3.66724 -8.3788,3.83369 -12.7011,3.95718 -2.596,0.0752 -11.7024,0.15034 -16.3012,-5.46058 -3.5948,-4.38673 -3.8766,-9.21642 -3.8766,-9.21642 v -18.457 c 0,0 0,-5.47669 4.0001,-10.08087 5.67,-6.52639 11.842,-5.88745 11.842,-5.88745 z"
         inkscape:connector-curvature="0" />
      <path
         style="fill:#e2231a;fill-opacity:1;fill-rule:nonzero;stroke:none"
         id="path347"
         d="m 1150.0414,761.314 -15.8288,-49.12648 V 761.314 h -15.6757 v -29.09359 c 2.3599,-1.19736 3.9975,-3.64576 3.9975,-6.50224 0,-2.85647 -1.6376,-5.30219 -3.9975,-6.50223 v -20.15101 h 3.9465 c 11.7292,0 16.7281,-0.68459 23.1686,6.14517 2.2524,2.38666 4.4108,7.5412 4.4108,7.5412 l 18.5698,48.5627 z"
         inkscape:connector-curvature="0" />
      <path
         style="fill:#e2231a;fill-opacity:1;fill-rule:nonzero;stroke:none"
         id="path349"
         d="m 1106.3191,725.36112 c 0,2.72492 1.49,5.07399 3.6699,6.33041 v 16.07839 h -15.7696 v -43.49408 c 0,0 -5.1975,-0.43222 -6.2982,1.40139 -1.1008,1.83631 -0.8511,6.58277 -0.8511,6.58277 v 35.50992 h -16.7468 V 712.26 c 0,0 0.553,-6.58277 3.8497,-9.82046 4.4834,-4.40283 10.6957,-3.88469 10.6957,-3.88469 h 9.3507 v -16.51331 h 15.7723 v 36.98648 c -2.1799,1.25642 -3.6699,3.60549 -3.6699,6.3331"
         inkscape:connector-curvature="0" />
      <path
         style="fill:#e2231a;fill-opacity:1;fill-rule:nonzero;stroke:none"
         id="path351"
         d="m 1237.6819,699.18574 v 7.1734 h -8.999 c 0,0 -1.6967,-0.53425 -3.3934,1.07386 -1.6967,1.60274 -1.4685,5.3532 -1.4685,5.3532 v 27.57139 c 0,0 0,2.9048 2.8458,2.99876 3.2913,0.10739 3.8202,-2.99876 3.8202,-2.99876 l -0.022,-21.53629 c -0.6094,-4.41894 -4.3061,-6.09953 -4.3061,-6.09953 0,0 11.7963,-0.8752 15.2112,1.47924 4.4189,3.04977 4.5317,8.09423 4.5317,8.09423 l -0.022,11.3185 c -0.01,4.62298 -1.7584,7.9251 -5.0257,10.71982 -4.282,3.66456 -8.3788,3.83369 -12.7011,3.95718 -2.596,0.0752 -11.7024,0.15034 -16.2985,-5.46058 -3.5947,-4.38673 -3.8793,-9.21642 -3.8793,-9.21642 v -18.45699 c 0,0 0,-5.4767 4.0028,-10.08088 5.6673,-6.52639 11.842,-5.89013 11.842,-5.89013 z"
         inkscape:connector-curvature="0" />
    </g>
  </g>
</svg>
