<?xml version="1.0" encoding="UTF-8" standalone="no"?>
<svg
   xmlns:dc="http://purl.org/dc/elements/1.1/"
   xmlns:cc="http://creativecommons.org/ns#"
   xmlns:rdf="http://www.w3.org/1999/02/22-rdf-syntax-ns#"
   xmlns:svg="http://www.w3.org/2000/svg"
   xmlns="http://www.w3.org/2000/svg"
   xmlns:sodipodi="http://sodipodi.sourceforge.net/DTD/sodipodi-0.dtd"
   xmlns:inkscape="http://www.inkscape.org/namespaces/inkscape"
   width="2804.4929"
   height="668.36621"
   viewBox="0 0 2804.4929 668.36621"
   version="1.1"
   id="svg6076"
   sodipodi:docname="HYPERU.svg"
   inkscape:version="0.92.2 (5c3e80d, 2017-08-06)">
  <title
     id="title4511">U rond</title>
  <metadata
     id="metadata6080">
    <rdf:RDF>
      <cc:Work
         rdf:about="">
        <dc:format>image/svg+xml</dc:format>
        <dc:type
           rdf:resource="http://purl.org/dc/dcmitype/StillImage" />
        <dc:title>U rond</dc:title>
      </cc:Work>
    </rdf:RDF>
  </metadata>
  <sodipodi:namedview
     pagecolor="#ffffff"
     bordercolor="#666666"
     borderopacity="1"
     objecttolerance="10"
     gridtolerance="10"
     guidetolerance="10"
     inkscape:pageopacity="0"
     inkscape:pageshadow="2"
     inkscape:window-width="1366"
     inkscape:window-height="705"
     id="namedview6078"
     showgrid="true"
     fit-margin-top="0"
     fit-margin-left="0"
     fit-margin-right="0"
     fit-margin-bottom="0"
     inkscape:zoom="0.42882436"
     inkscape:cx="1199.4152"
     inkscape:cy="-13.488329"
     inkscape:window-x="-8"
     inkscape:window-y="-8"
     inkscape:window-maximized="1"
     inkscape:current-layer="svg6076"
     showguides="false" />
  <!-- Generator: Sketch 43.2 (39069) - http://www.bohemiancoding.com/sketch -->
  <desc
     id="desc6043">Created with Sketch.</desc>
  <defs
     id="defs6045" />
  <g
     id="g6699"
     transform="matrix(20.607095,0,0,20.607095,1332.7084,838.69275)">
    <path
       d="m 53.97488,-9.775359 c -8.098054,0 -14.659135,-6.550029 -14.659135,-14.630048 0,-8.076459 6.561081,-14.622928 14.659135,-14.622928 8.094486,0 14.659135,6.546469 14.659135,14.622928 0,8.080343 -6.564649,14.630048 -14.659135,14.630048"
       id="Shape"
       inkscape:connector-curvature="0"
       style="fill:#ffffff;fill-rule:nonzero;stroke:none;stroke-width:1" />
    <path
       d="m 56.249366,-40.557031 c -0.441729,-0.03689 -0.669081,-0.05113 -1.105621,-0.05113 0.781621,0.02298 1.568756,0.109054 2.355567,0.265354 8.344541,1.621246 13.685514,10.022602 11.932216,18.766652 -1.754918,8.74049 -9.940864,14.513874 -18.285405,12.894569 -0.371351,-0.07378 -0.737513,-0.159859 -1.096865,-0.259852 1.418919,0.437186 2.943568,0.676005 4.550919,0.676005 1.608973,0 2.85373,-0.217785 4.04173,-0.484756 5.153189,-1.16788 9.325297,-4.779278 11.407784,-9.302587 0.883783,-1.977532 1.371567,-4.162817 1.371567,-6.45489 -3.24e-4,-8.951155 -7.026162,-15.359122 -15.171892,-16.049366"
       id="path6063"
       inkscape:connector-curvature="0"
       style="fill:#54bbab;fill-rule:nonzero;stroke:none;stroke-width:1" />
    <path
       d="m 37.151204,-25.718584 c -0.614594,8.794856 6.202054,16.451603 15.497189,17.247017 -0.49654,-0.043686 -0.99827,-0.113908 -1.503567,-0.210665 -8.344541,-1.619304 -13.685514,-10.024543 -11.932216,-18.76827 1.742918,-8.682565 9.83027,-14.434915 18.11481,-12.925959 -0.695675,-0.133647 -1.401405,-0.228463 -2.123351,-0.279592 -9.456649,-0.646233 -17.436973,6.039061 -18.052865,14.937469"
       id="path6065"
       inkscape:connector-curvature="0"
       style="fill:#5bc5f2;fill-rule:nonzero;stroke:none;stroke-width:1" />
    <path
       d="m 57.499312,-40.343453 c -8.34454,-1.623188 -16.532108,4.150519 -18.287351,12.892628 -1.753297,8.745668 3.587676,17.148965 11.932216,18.76827 8.346162,1.619628 16.53373,-4.152461 18.287351,-12.89457 1.753298,-8.742108 -3.586054,-17.145729 -11.932216,-18.766328 M 53.97488,-9.775359 c -8.098054,0 -14.659135,-6.550029 -14.659135,-14.630048 0,-8.076459 6.561081,-14.622928 14.659135,-14.622928 8.094486,0 14.659135,6.546469 14.659135,14.622928 0,8.080343 -6.564649,14.630048 -14.659135,14.630048"
       id="path6067"
       inkscape:connector-curvature="0"
       style="fill:#007e92;fill-rule:nonzero;stroke:none;stroke-width:1" />
    <path
       d="m 62.115096,-31.375147 h -5.017297 c -0.918811,0 -1.045946,0.372466 -1.045946,0.934563 0,0 0.0019,8.137943 0.0019,8.148299 -0.06324,1.865565 -0.756973,2.462934 -2.089622,2.462934 -1.364108,0 -2.061405,-0.629082 -2.089621,-2.613733 v -7.997177 c 0,-0.562096 -0.132,-0.934562 -1.04919,-0.934562 h -5.018873 v 9.690909 c 0,2.144511 0.41546,3.05092 1.304433,3.971244 1.375135,1.431616 3.781297,2.034163 6.853297,2.034163 3.072,0 5.480108,-0.602547 6.858487,-2.034163 0.885405,-0.920324 1.304432,-1.826733 1.304432,-3.971244 z"
       id="path6069"
       inkscape:connector-curvature="0"
       style="fill:#e42313;fill-rule:nonzero;stroke:none;stroke-width:1" />
  </g>
  <path
     inkscape:connector-curvature="0"
     id="path34"
     style="fill:#007ab0;fill-opacity:1"
     d="m 1416.5522,110.8091 c -3.9132,-0.0147 -7.7623,-0.014 -11.5254,0.002 -20.0701,0.0841 -37.6766,0.61201 -49.2774,1.69727 -38.7059,3.62097 -60.0534,11.00015 -75.0937,25.95508 -8.5894,8.54057 -12.5968,15.78281 -16.2012,29.28906 l -2.2051,8.26367 v 132 132 l 2.25,12.37109 c 6.0998,33.54888 19.0822,57.10733 40.4551,73.41211 21.2048,16.17659 48.1334,24.63587 89.2949,28.04883 18.1268,1.503 79.4344,0.0643 123,-2.88672 28.6157,-1.93833 37.1829,-3.00599 40.2559,-5.01953 5.2185,-3.41928 5.3449,-4.78301 5.0332,-54.23437 -0.2661,-42.21969 -0.4255,-45.89526 -2.1035,-48.36719 -0.9988,-1.47134 -3.2046,-3.15884 -4.9004,-3.75 -2.0844,-0.72661 -26.1175,-1.0809 -74.1836,-1.0957 -67.6851,-0.0209 -71.3025,-0.11368 -75.2852,-1.92188 -7.3611,-3.34205 -7.8164,-5.1508 -7.8164,-31.05664 v -22.5 l 78.5,-0.5 c 62.7776,-0.39986 78.9689,-0.76607 80.836,-1.83008 4.9423,-2.81659 5.164,-4.96114 5.164,-49.66992 0,-45.29327 -0.1437,-46.58213 -5.6211,-50.17187 -2.6239,-1.71968 -7.4063,-1.85771 -80.834,-2.32813 l -78.0449,-0.5 v -20.5 c 0,-22.9037 0.5767,-25.34901 6.7676,-28.73242 2.9831,-1.63032 8.915,-1.80624 76.7324,-2.26758 58.6143,-0.39874 73.9741,-0.76905 75.836,-1.83008 4.9798,-2.83797 5.164,-4.72947 5.164,-52.66992 0,-49.2752 -0.075,-49.93751 -6.0996,-53.05273 -8.4551,-4.37229 -81.4009,-7.93419 -140.0976,-8.1543 z" />
  <path
     inkscape:connector-curvature="0"
     id="path81"
     style="font-style:normal;font-variant:normal;font-weight:normal;font-stretch:normal;font-size:medium;line-height:1.25;font-family:'Neo Sans Std';-inkscape-font-specification:'Neo Sans Std';letter-spacing:0.5px;word-spacing:0px;fill:#007ab0;fill-opacity:1;stroke:none;stroke-width:3.04096913"
     d="m 1218.8267,266.25936 v -4.06105 c 0,-121.83153 -104.5938,-151.41919 -190.3843,-151.41919 -40.54479,0 -99.30536,2.3206 -128.68566,6.9618 -31.73071,5.22135 -41.1324,13.34345 -41.1324,49.31276 v 371.2961 c 0,6.38166 5.87606,9.28241 12.33973,9.28241 h 112.8203 c 6.46367,0 11.75212,-5.22135 11.75212,-11.60301 V 416.51825 c 16.45301,0.58016 24.09181,1.1603 35.84391,1.1603 82.2649,0 187.4463,-30.74796 187.4463,-151.41919 z m -137.4998,0 c 0,24.94645 -19.9786,37.12961 -49.9465,37.12961 H 995.53649 V 225.0687 h 35.84391 c 29.9679,0 49.9465,11.02286 49.9465,37.12961 z" />
  <path
     inkscape:connector-curvature="0"
     id="path85"
     style="font-style:normal;font-variant:normal;font-weight:normal;font-stretch:normal;font-size:medium;line-height:1.25;font-family:'Neo Sans Std';-inkscape-font-specification:'Neo Sans Std';letter-spacing:0.5px;word-spacing:0px;fill:#007ab0;fill-opacity:1;stroke:none;stroke-width:3.04096913"
     d="m 2003.2305,537.51171 c 0,-1.74045 -0.5876,-4.06105 -1.7628,-6.38165 l -81.0896,-151.41919 c 31.7307,-13.92361 67.5747,-50.47306 67.5747,-112.54913 v -11.603 c 0,-109.64838 -73.4507,-144.45739 -191.5595,-144.45739 -40.5448,0 -108.7071,4.06105 -128.6857,6.9618 -31.7307,5.22135 -41.1324,13.34345 -41.1324,49.31276 v 368.9755 c 0,6.38166 5.8761,11.60301 12.3397,11.60301 h 114.5832 c 6.4636,0 11.7521,-5.22135 11.7521,-11.60301 V 400.01612 h 18.8034 l 69.9251,136.33529 c 2.938,5.8015 5.2884,11.60301 15.8653,11.60301 h 122.8096 c 5.2885,0 10.5769,-4.06105 10.5769,-10.44271 z M 1849.8654,267.74189 c 0,15.66406 -11.1645,30.74796 -40.5448,30.74796 h -44.0704 v -73.09892 h 44.0704 c 29.9679,0 40.5448,11.02286 40.5448,30.74796 z" />
  <path
     id="path928"
     style="font-style:normal;font-variant:normal;font-weight:normal;font-stretch:normal;font-size:medium;line-height:1.25;font-family:'Neo Sans Std';-inkscape-font-specification:'Neo Sans Std';letter-spacing:0px;word-spacing:0px;fill:#007ab0;fill-opacity:1;stroke:none;stroke-width:14.6490345"
     d="M 376.77316,538.147 V 126.21616 c 0,-6.44558 -5.27365,-11.71923 -11.71922,-11.71923 H 250.79147 c -6.44558,0 -12.30519,5.27365 -12.30519,11.71923 V 270.36265 H 138.28689 V 126.21616 c 0,-6.44558 -5.27366,-11.71923 -11.71923,-11.71923 H 12.3052 C 5.8596,114.49693 0,119.77058 0,126.21616 V 538.147 c 0,6.44557 5.8596,11.71922 12.3052,11.71922 h 114.26246 c 6.44557,0 11.71923,-5.27365 11.71923,-11.71922 V 388.72685 H 238.48628 V 538.147 c 0,6.44557 5.85961,11.71922 12.30519,11.71922 h 114.26247 c 6.44557,0 11.71922,-5.27365 11.71922,-11.71922 z"
     inkscape:connector-curvature="0" />
  <path
     id="path930"
     style="font-style:normal;font-variant:normal;font-weight:normal;font-stretch:normal;font-size:medium;line-height:1.25;font-family:'Neo Sans Std';-inkscape-font-specification:'Neo Sans Std';letter-spacing:0px;word-spacing:0px;fill:#007ab0;fill-opacity:1;stroke:none;stroke-width:14.6490345"
     d="M 808.57177,114.49693 H 685.51988 c -10.5473,0 -12.89115,5.85961 -15.23499,11.71923 l -49.80672,145.31842 c -0.58596,2.34384 -1.75788,3.51576 -3.51577,3.51576 -1.75788,0 -2.9298,-1.17192 -3.51577,-3.51576 L 564.22588,126.21616 c -2.34385,-5.85962 -4.68769,-11.71923 -14.06307,-11.71923 H 425.35304 c -7.03154,0 -9.37539,6.44557 -7.03154,11.71923 L 547.81896,381.69531 V 538.147 c 0,6.44557 5.27365,11.71922 11.71923,11.71922 h 114.26246 c 6.44558,0 12.30519,-5.27365 12.30519,-11.71922 V 381.69531 L 816.18927,126.21616 c 2.34384,-5.27366 -1.17193,-11.71923 -7.6175,-11.71923 z"
     inkscape:connector-curvature="0"
     sodipodi:nodetypes="ssccsccssccssssccs" />
</svg>
