<svg xmlns="http://www.w3.org/2000/svg" xmlns:xlink="http://www.w3.org/1999/xlink" width="1920" zoomAndPan="magnify" viewBox="0 0 1440 1439.999935" height="1920" preserveAspectRatio="xMidYMid meet" version="1.0"><defs><clipPath id="2dfa6a5c7e"><path d="M 618 778 L 1363 778 L 1363 845.402344 L 618 845.402344 Z M 618 778 " clip-rule="nonzero"/></clipPath><clipPath id="f036733967"><path d="M 1269 611 L 1387.777344 611 L 1387.777344 762 L 1269 762 Z M 1269 611 " clip-rule="nonzero"/></clipPath><clipPath id="277f253a30"><path d="M 78.347656 599.402344 L 139 599.402344 L 139 763 L 78.347656 763 Z M 78.347656 599.402344 " clip-rule="nonzero"/></clipPath><clipPath id="74a9a47940"><path d="M 1137 599.402344 L 1260 599.402344 L 1260 763 L 1137 763 Z M 1137 599.402344 " clip-rule="nonzero"/></clipPath><clipPath id="6cb4106a90"><path d="M 268 599.402344 L 346 599.402344 L 346 763 L 268 763 Z M 268 599.402344 " clip-rule="nonzero"/></clipPath></defs><rect x="-144" width="1728" fill="#ffffff" y="-143.999994" height="1727.999922" fill-opacity="1"/><rect x="-144" width="1728" fill="#ffffff" y="-143.999994" height="1727.999922" fill-opacity="1"/><g clip-path="url(#2dfa6a5c7e)"><path fill="#000000" d="M 618.695312 778.855469 L 655.433594 845.359375 L 1354.167969 845.359375 L 1362.382812 778.855469 Z M 618.695312 778.855469 " fill-opacity="1" fill-rule="evenodd"/></g><path fill="#bd0013" d="M 1028.429688 678.105469 L 1027.886719 678.644531 L 1028.429688 678.105469 " fill-opacity="1" fill-rule="evenodd"/><path fill="#000000" d="M 202.144531 762.09375 L 214.535156 674.007812 C 215.582031 666.640625 212.882812 660.382812 202.144531 660.382812 C 197.457031 660.382812 194.015625 661.054688 191.191406 661.945312 L 177.109375 762.09375 L 134.625 762.09375 L 150.617188 648.53125 C 163.921875 642.941406 183.199219 639.367188 205.558594 639.367188 C 246.246094 639.367188 259.753906 654.574219 256.355469 678.707031 L 244.625 762.09375 L 202.144531 762.09375 " fill-opacity="1" fill-rule="evenodd"/><g clip-path="url(#f036733967)"><path fill="#ee1d23" d="M 1308.261719 611.792969 L 1305.929688 627.519531 L 1353.96875 627.519531 C 1360.296875 627.519531 1365.382812 621.269531 1366.722656 611.792969 Z M 1335.855469 639.375 C 1313.449219 639.375 1294.15625 642.914062 1280.816406 648.515625 L 1274.285156 694.613281 L 1274.132812 694.691406 L 1270.398438 722.273438 C 1267.070312 745.765625 1279.972656 760.742188 1318.363281 761.476562 L 1318.363281 761.554688 L 1365.007812 761.554688 L 1365.863281 755.898438 C 1366.699219 750.300781 1364.660156 745.828125 1358.015625 745.828125 L 1323.960938 745.828125 C 1313.214844 745.828125 1310.488281 739.542969 1311.523438 732.191406 L 1313 722.039062 L 1326.292969 722.039062 L 1326.292969 721.808594 C 1365.335938 721.316406 1382.644531 706.46875 1386.074219 682.992188 L 1386.777344 678.65625 L 1386.546875 678.65625 L 1386.777344 678.578125 C 1390.125 654.53125 1376.550781 639.375 1335.855469 639.375 Z M 1332.4375 660.371094 C 1343.195312 660.371094 1345.914062 666.640625 1344.875 674.003906 L 1344.253906 678.5 L 1344.015625 678.5 L 1342.695312 687.484375 C 1341.625 694.816406 1337.09375 701.003906 1326.292969 700.96875 L 1315.875 700.96875 L 1316.421875 696.707031 L 1316.496094 696.707031 L 1321.472656 661.917969 C 1324.28125 661.019531 1327.730469 660.371094 1332.4375 660.371094 Z M 1332.4375 660.371094 " fill-opacity="1" fill-rule="evenodd"/></g><path fill="#000000" d="M 1025.976562 722.96875 L 1026.519531 722.96875 L 1026.519531 722.429688 L 1025.976562 722.96875 " fill-opacity="1" fill-rule="evenodd"/><g clip-path="url(#277f253a30)"><path fill="#000000" d="M 125.277344 694.914062 L 125.671875 691.984375 L 138.949219 599.898438 L 96.492188 599.898438 L 81.742188 700.6875 L 81.949219 701.070312 L 78.871094 724.035156 C 75.914062 745.101562 85.863281 759.335938 115.40625 762.636719 L 125.277344 694.914062 " fill-opacity="1" fill-rule="evenodd"/></g><g clip-path="url(#74a9a47940)"><path fill="#ee1d23" d="M 1208.542969 639.410156 C 1204.605469 639.410156 1200.757812 639.527344 1197.019531 639.738281 L 1202.558594 599.898438 C 1172.226562 603.203125 1158.242188 617.375 1155.210938 638.414062 L 1151.398438 666.035156 L 1137.925781 762.09375 L 1180.214844 762.09375 L 1194.257812 661.980469 C 1197.054688 661.09375 1200.472656 660.421875 1205.15625 660.421875 C 1215.847656 660.421875 1218.519531 666.675781 1217.488281 674.039062 L 1205.144531 762.09375 L 1247.441406 762.09375 L 1259.117188 678.734375 C 1262.503906 654.613281 1249.046875 639.410156 1208.542969 639.410156 " fill-opacity="1" fill-rule="evenodd"/></g><path fill="#ee1d23" d="M 985.164062 673.949219 L 984.570312 678.46875 L 984.34375 678.46875 L 982.996094 687.4375 C 981.945312 694.769531 977.441406 700.957031 966.714844 700.925781 L 956.28125 700.925781 L 956.894531 696.695312 L 956.96875 696.695312 L 961.902344 661.90625 C 964.703125 661.007812 968.136719 660.335938 972.816406 660.335938 C 983.527344 660.335938 986.207031 666.585938 985.164062 673.949219 Z M 1026.1875 682.921875 L 1026.847656 678.628906 L 1026.609375 678.628906 L 1026.867188 678.523438 C 1030.195312 654.480469 1016.707031 639.367188 976.214844 639.367188 C 953.929688 639.367188 934.722656 642.929688 921.441406 648.511719 L 921.40625 648.765625 L 921.289062 648.765625 L 905.355469 762.09375 L 947.699219 762.09375 L 953.371094 721.804688 L 964.226562 721.804688 L 964.164062 721.828125 L 987.957031 762.09375 L 1030.292969 762.09375 L 1002.371094 715.132812 C 1016.742188 708.542969 1024.097656 697.355469 1026.1875 682.921875 " fill-opacity="1" fill-rule="evenodd"/><path fill="#000000" d="M 421.617188 673.964844 L 421.007812 678.480469 L 420.785156 678.480469 L 419.449219 687.457031 C 418.355469 694.789062 413.855469 701 403.070312 700.964844 L 392.605469 700.964844 L 393.195312 696.726562 L 393.269531 696.726562 L 398.230469 661.914062 C 401.03125 661.015625 404.492188 660.351562 409.1875 660.351562 C 419.941406 660.351562 422.644531 666.597656 421.617188 673.964844 Z M 412.601562 639.367188 C 390.210938 639.367188 370.890625 642.917969 357.550781 648.523438 L 350.996094 694.617188 L 350.878906 694.65625 L 347.140625 722.277344 C 343.824219 745.773438 356.679688 760.738281 395.082031 761.476562 L 395.082031 761.554688 L 441.753906 761.554688 L 442.597656 755.964844 L 442.597656 755.929688 C 443.445312 750.332031 441.414062 745.820312 434.75 745.820312 L 400.722656 745.820312 C 389.972656 745.820312 387.265625 739.5625 388.3125 732.207031 L 389.71875 721.992188 L 403.070312 721.992188 L 403.070312 721.796875 C 442.105469 721.304688 459.417969 706.429688 462.839844 682.945312 L 463.511719 678.65625 L 463.28125 678.65625 L 463.523438 678.539062 C 466.867188 654.488281 453.3125 639.367188 412.601562 639.367188 " fill-opacity="1" fill-rule="evenodd"/><g clip-path="url(#6cb4106a90)"><path fill="#000000" d="M 335.394531 755.84375 C 336.21875 750.238281 334.207031 746.332031 327.566406 746.332031 L 322.617188 746.332031 C 311.902344 746.332031 309.214844 740.09375 310.242188 732.710938 L 319.210938 668.453125 L 319.328125 667.617188 L 319.929688 663.375 L 331.28125 663.375 C 331.550781 663.261719 331.886719 663.203125 332.332031 663.203125 C 338.636719 663.203125 343.683594 656.929688 345.019531 647.453125 L 322.140625 647.453125 L 328.773438 599.898438 C 298.371094 603.203125 284.351562 617.375 281.3125 638.410156 L 277.726562 662.132812 L 277.691406 662.179688 L 277.386719 664.449219 L 277.148438 666.03125 L 277.15625 666.046875 L 269.253906 722.773438 C 265.957031 746.300781 278.710938 761.335938 316.996094 762.058594 L 316.996094 762.09375 L 334.5 762.09375 L 335.386719 755.867188 L 335.386719 755.84375 " fill-opacity="1" fill-rule="evenodd"/></g><path fill="#ee1d23" d="M 727.550781 639.367188 C 713.476562 639.367188 700.609375 640.792969 689.707031 643.238281 C 682.15625 640.71875 672.484375 639.367188 660.402344 639.367188 C 638.085938 639.367188 618.832031 642.941406 605.546875 648.53125 L 593.816406 731.988281 L 611.03125 762.09375 L 631.996094 762.09375 L 646.070312 661.945312 C 648.871094 661.054688 652.316406 660.382812 657.015625 660.382812 C 666.128906 660.382812 669.417969 664.9375 669.566406 670.832031 L 656.734375 762.09375 L 699.414062 762.09375 L 711.136719 678.707031 C 711.367188 676.957031 711.519531 675.28125 711.574219 673.628906 L 713.21875 661.945312 C 716.027344 661.054688 719.464844 660.382812 724.144531 660.382812 C 734.863281 660.382812 737.550781 666.640625 736.523438 674.007812 L 724.144531 762.09375 L 766.570312 762.09375 L 778.296875 678.707031 C 781.675781 654.574219 768.1875 639.367188 727.550781 639.367188 " fill-opacity="1" fill-rule="evenodd"/><path fill="#000000" d="M 545.070312 673.945312 L 544.464844 678.464844 L 544.253906 678.464844 L 542.90625 687.433594 C 541.835938 694.769531 537.339844 700.953125 526.582031 700.925781 L 516.132812 700.925781 L 516.726562 696.695312 L 516.816406 696.695312 L 521.757812 661.910156 C 524.570312 661.007812 528 660.335938 532.695312 660.335938 C 543.417969 660.335938 546.117188 666.585938 545.070312 673.945312 Z M 562.304688 715.128906 C 576.695312 708.539062 584.078125 697.355469 586.175781 682.917969 L 586.839844 678.628906 L 586.601562 678.628906 L 586.855469 678.523438 L 586.839844 678.628906 C 590.226562 654.539062 576.746094 639.367188 536.089844 639.367188 C 513.753906 639.367188 494.5 642.929688 481.191406 648.511719 L 481.175781 648.765625 L 481.042969 648.765625 L 465.089844 762.089844 L 507.523438 762.089844 L 513.191406 721.804688 L 524.089844 721.804688 L 524.035156 721.828125 L 604.234375 830.730469 C 609.503906 837.875 616.140625 843.195312 624.664062 843.195312 L 636.003906 843.195312 L 562.304688 715.128906 " fill-opacity="1" fill-rule="evenodd"/><path fill="#ee1d23" d="M 1127.335938 746.585938 L 1128.332031 739.300781 C 1118.128906 741.648438 1106.214844 743.09375 1093.144531 743.304688 C 1092.121094 743.378906 1091.015625 743.421875 1089.855469 743.421875 C 1079.171875 743.421875 1076.484375 737.144531 1077.507812 729.753906 L 1080.988281 703.640625 L 1082.023438 696.199219 L 1085.785156 670.082031 C 1086.804688 662.691406 1091.226562 656.40625 1101.933594 656.40625 C 1103.101562 656.40625 1104.15625 656.457031 1105.1875 656.535156 C 1119.125 656.753906 1130.046875 657.878906 1139.144531 660.230469 L 1140.160156 652.722656 L 1140.160156 652.699219 C 1141.007812 646.464844 1141.660156 641.371094 1133.199219 639.789062 C 1124.984375 638.40625 1115.40625 637.742188 1104.015625 637.742188 C 1063.535156 637.742188 1045.867188 652.921875 1042.519531 677.039062 L 1042.660156 677.117188 L 1042.496094 677.15625 L 1036.171875 722.792969 L 1036.191406 722.792969 C 1032.859375 746.90625 1046.335938 762.09375 1086.792969 762.09375 C 1098.28125 762.09375 1108.914062 761.125 1118.363281 759.441406 C 1122.9375 758.332031 1126.054688 756.265625 1127.339844 746.585938 " fill-opacity="1" fill-rule="evenodd"/><path fill="#ee1d23" d="M 853.617188 708.136719 L 848.683594 742.851562 C 845.859375 743.753906 842.425781 744.417969 837.746094 744.417969 C 827.023438 744.417969 824.324219 738.1875 825.359375 730.839844 L 825.972656 726.320312 L 826.195312 726.320312 L 827.546875 717.375 C 828.613281 710.074219 833.105469 703.867188 843.851562 703.917969 L 854.269531 703.917969 L 853.679688 708.136719 Z M 852.226562 639.976562 L 852.242188 639.90625 L 816.046875 639.90625 C 809.75 639.90625 804.695312 646.144531 803.363281 655.601562 L 846.59375 655.601562 C 857.324219 655.601562 860.03125 662.242188 858.992188 669.609375 L 857.136719 683.074219 L 843.035156 683.074219 L 843.035156 683.152344 C 804.707031 683.847656 787.671875 698.625 784.277344 721.871094 L 783.621094 726.164062 C 783.617188 726.203125 783.613281 726.242188 783.605469 726.277344 C 780.265625 750.253906 793.765625 765.339844 834.339844 765.339844 C 856.667969 765.339844 875.914062 761.78125 889.210938 756.21875 L 895.722656 710.238281 L 895.863281 710.199219 L 899.984375 679.511719 C 903.304688 656.078125 890.492188 640.726562 852.226562 639.976562 " fill-opacity="1" fill-rule="evenodd"/></svg>