<?xml version="1.0" encoding="UTF-8" standalone="no"?>
<!-- Created with Inkscape (http://www.inkscape.org/) -->

<svg
   xmlns:dc="http://purl.org/dc/elements/1.1/"
   xmlns:cc="http://creativecommons.org/ns#"
   xmlns:rdf="http://www.w3.org/1999/02/22-rdf-syntax-ns#"
   xmlns:svg="http://www.w3.org/2000/svg"
   xmlns="http://www.w3.org/2000/svg"
   xmlns:sodipodi="http://sodipodi.sourceforge.net/DTD/sodipodi-0.dtd"
   xmlns:inkscape="http://www.inkscape.org/namespaces/inkscape"
   width="171.77267"
   height="29.31732"
   viewBox="0 0 45.448188 7.7568743"
   version="1.1"
   id="svg13801"
   inkscape:version="0.92.0 r15299"
   sodipodi:docname="j front retail.svg">
  <defs
     id="defs13795" />
  <sodipodi:namedview
     id="base"
     pagecolor="#ffffff"
     bordercolor="#666666"
     borderopacity="1.0"
     inkscape:pageopacity="0.0"
     inkscape:pageshadow="2"
     inkscape:zoom="5.2525972"
     inkscape:cx="85.386331"
     inkscape:cy="14.159053"
     inkscape:document-units="mm"
     inkscape:current-layer="layer1"
     showgrid="false"
     fit-margin-top="0"
     fit-margin-left="0"
     fit-margin-right="0"
     fit-margin-bottom="0"
     units="px"
     inkscape:window-width="1280"
     inkscape:window-height="744"
     inkscape:window-x="-4"
     inkscape:window-y="-4"
     inkscape:window-maximized="1" />
  <metadata
     id="metadata13798">
    <rdf:RDF>
      <cc:Work
         rdf:about="">
        <dc:format>image/svg+xml</dc:format>
        <dc:type
           rdf:resource="http://purl.org/dc/dcmitype/StillImage" />
        <dc:title></dc:title>
      </cc:Work>
    </rdf:RDF>
  </metadata>
  <g
     inkscape:label="Layer 1"
     inkscape:groupmode="layer"
     id="layer1"
     transform="translate(9.7217378,-151.45617)">
    <g
       id="g14096"
       transform="translate(0.13229354,-0.13228796)">
      <path
         d="m -2.2290907,155.46619 c 0,2.06904 -1.6785166,3.74685 -3.7461471,3.74685 -2.0690417,0 -3.7465,-1.67781 -3.7465,-3.74685 0,-2.06834 1.6774583,-3.74544 3.7465,-3.74544 2.0676305,0 3.7461471,1.6771 3.7461471,3.74544"
         style="fill:#ffffff;fill-opacity:1;fill-rule:nonzero;stroke:none;stroke-width:0.35277778"
         id="path10343"
         inkscape:connector-curvature="0" />
      <path
         d="m 1.1299273,156.03381 c 0.00811,0.26352 -0.025047,0.65722 0.3693583,0.65722 0.4123972,0 0.4377972,-0.34113 0.4377972,-0.6992 v -1.98014 h 0.3855861 v 2.20486 c 0,0.15875 -0.00423,0.7874 -0.8364361,0.7874 -0.1668638,0 -0.49071383,-0.0572 -0.6371166,-0.28893 -0.12241389,-0.19332 -0.12241389,-0.4452 -0.12241389,-0.68121 z"
         style="fill:#231f20;fill-opacity:1;fill-rule:nonzero;stroke:none;stroke-width:0.35277778"
         id="path10347"
         inkscape:connector-curvature="0" />
      <path
         inkscape:connector-curvature="0"
         id="path10349"
         style="fill:#231f20;fill-opacity:1;fill-rule:nonzero;stroke:none;stroke-width:0.35277778"
         d="m 3.2792253,156.94296 h -0.3937 v -0.42228 h 0.3937 z" />
      <path
         d="m 4.6149393,156.94296 v -2.93123 h 1.5035389 v 0.3242 H 5.0015837 v 0.94227 h 1.0576278 v 0.32456 H 5.0015837 v 1.3402 z"
         style="fill:#231f20;fill-opacity:1;fill-rule:nonzero;stroke:none;stroke-width:0.35277778"
         id="path10353"
         inkscape:connector-curvature="0" />
      <path
         d="m 7.0547683,154.33607 h 0.5827889 c 0.2991555,0 0.4078111,0.23601 0.4078111,0.44697 0,0.25612 -0.1347611,0.48719 -0.4116917,0.48719 H 7.0547683 Z m 0.4529667,1.25942 c 0.1298222,0 0.4289777,0.0155 0.4579055,0.37359 0.033867,0.38982 0.00882,0.77046 0.1178278,0.97402 h 0.403225 c -0.05962,-0.1838 -0.1008945,-0.64206 -0.104775,-0.76624 -0.02152,-0.58984 -0.1474611,-0.70343 -0.4963584,-0.75635 v -0.008 c 0.3573639,-0.0603 0.5545667,-0.32491 0.5545667,-0.66886 0,-0.36619 -0.1897944,-0.73096 -0.7260166,-0.73096 H 6.6674183 v 2.93088 h 0.38735 v -1.34761 z"
         style="fill:#231f20;fill-opacity:1;fill-rule:nonzero;stroke:none;stroke-width:0.35277778"
         id="path10357"
         inkscape:connector-curvature="0" />
      <path
         d="m 9.9514273,156.69065 c -0.3644194,0 -0.5580944,-0.16157 -0.5580944,-0.80257 v -0.9906 c 0,-0.61348 0.4370916,-0.63359 0.5580944,-0.63359 0.1220607,0 0.5580947,0.0201 0.5580947,0.63359 v 0.9906 c 0,0.641 -0.192264,0.80257 -0.5580947,0.80257 m 0,0.31362 c 0.6434667,0 0.9521477,-0.32103 0.9521477,-1.13277 v -0.96238 c 0,-0.5849 -0.308681,-0.95779 -0.9521477,-0.95779 -0.64135,0 -0.9521472,0.37289 -0.9521472,0.95779 v 0.96238 c 0,0.81174 0.3107972,1.13277 0.9521472,1.13277"
         style="fill:#231f20;fill-opacity:1;fill-rule:nonzero;stroke:none;stroke-width:0.35277778"
         id="path10361"
         inkscape:connector-curvature="0" />
      <path
         d="m 13.592543,154.01169 v 2.93052 h -0.528814 l -1.198386,-2.54035 h -0.0067 v 2.54035 h -0.345722 v -2.93052 h 0.546806 l 1.179688,2.51001 h 0.0085 v -2.51001 z"
         style="fill:#231f20;fill-opacity:1;fill-rule:nonzero;stroke:none;stroke-width:0.35277778"
         id="path10365"
         inkscape:connector-curvature="0" />
      <path
         d="m 16.078568,154.01169 v 0.3242 h -0.797983 v 2.60632 H 14.89394 v -2.60632 h -0.79763 v -0.3242 z"
         style="fill:#231f20;fill-opacity:1;fill-rule:nonzero;stroke:none;stroke-width:0.35277778"
         id="path10369"
         inkscape:connector-curvature="0" />
      <path
         d="m 17.702872,154.33607 h 0.583494 c 0.299509,0 0.407459,0.23601 0.407459,0.44697 0,0.25612 -0.133703,0.48719 -0.411339,0.48719 h -0.579614 z m 0.453672,1.25942 c 0.129822,0 0.429331,0.0155 0.457553,0.37359 0.03422,0.38982 0.0088,0.77046 0.117122,0.97402 h 0.403578 c -0.05821,-0.1838 -0.100189,-0.64206 -0.104069,-0.76624 -0.02222,-0.58984 -0.147462,-0.70343 -0.4953,-0.75635 v -0.008 c 0.356658,-0.0603 0.553155,-0.32491 0.553155,-0.66886 0,-0.36619 -0.188736,-0.73096 -0.726369,-0.73096 h -1.045281 v 2.93088 h 0.385939 v -1.34761 z"
         style="fill:#231f20;fill-opacity:1;fill-rule:nonzero;stroke:none;stroke-width:0.35277778"
         id="path10373"
         inkscape:connector-curvature="0" />
      <path
         d="m 19.659333,156.94296 v -2.93123 h 1.563158 v 0.3242 H 20.04633 v 0.94227 h 1.091495 v 0.32456 H 20.04633 v 1.01529 h 1.200503 v 0.32491 z"
         style="fill:#231f20;fill-opacity:1;fill-rule:nonzero;stroke:none;stroke-width:0.35277778"
         id="path10377"
         inkscape:connector-curvature="0" />
      <path
         d="m 23.62848,154.01169 v 0.3242 h -0.799042 v 2.60632 h -0.385586 v -2.60632 h -0.798336 v -0.3242 z"
         style="fill:#231f20;fill-opacity:1;fill-rule:nonzero;stroke:none;stroke-width:0.35277778"
         id="path10381"
         inkscape:connector-curvature="0" />
      <path
         d="m 25.277998,155.91944 h -0.969081 l 0.474487,-1.56281 h 0.0074 z m -1.684161,1.0227 h 0.390172 l 0.228247,-0.69709 h 1.170517 l 0.218017,0.69709 h 0.433211 l -0.986367,-2.93052 h -0.491772 z"
         style="fill:#231f20;fill-opacity:1;fill-rule:nonzero;stroke:none;stroke-width:0.35277778"
         id="path10385"
         inkscape:connector-curvature="0" />
      <path
         inkscape:connector-curvature="0"
         id="path10387"
         style="fill:#231f20;fill-opacity:1;fill-rule:nonzero;stroke:none;stroke-width:0.35277778"
         d="m 26.957314,156.94296 h -0.386289 v -2.93124 h 0.386289 z" />
      <path
         d="m 27.772226,156.94296 v -2.93123 h 0.385586 v 2.60632 h 1.114072 v 0.32491 z"
         style="fill:#231f20;fill-opacity:1;fill-rule:nonzero;stroke:none;stroke-width:0.35277778"
         id="path10391"
         inkscape:connector-curvature="0" />
      <path
         inkscape:connector-curvature="0"
         id="path10393"
         style="fill:#231f20;fill-opacity:1;fill-rule:nonzero;stroke:none;stroke-width:0.35277778"
         d="m 30.156666,156.94296 h -0.385942 v -2.93124 h 0.385942 z" />
      <path
         d="m 32.987428,154.01169 v 2.93052 h -0.529167 l -1.196269,-2.54035 h -0.0088 v 2.54035 h -0.345016 v -2.93052 h 0.546805 l 1.178984,2.51001 h 0.0078 v -2.51001 z"
         style="fill:#231f20;fill-opacity:1;fill-rule:nonzero;stroke:none;stroke-width:0.35277778"
         id="path10397"
         inkscape:connector-curvature="0" />
      <path
         d="m 35.057554,154.79584 c 0,-0.34607 -0.147108,-0.5334 -0.537281,-0.5334 -0.121708,0 -0.558447,0.0215 -0.558447,0.63465 v 0.99095 c 0,0.641 0.19297,0.80257 0.558447,0.80257 0.276225,0 0.460728,-0.0723 0.540809,-0.12841 v -0.87842 H 34.50334 v -0.32491 h 0.944386 v 1.42593 c -0.248003,0.13053 -0.53728,0.21943 -0.927453,0.21943 -0.642408,0 -0.953558,-0.32103 -0.953558,-1.13312 v -0.96273 c 0,-0.5835 0.31115,-0.9578 0.953558,-0.9578 0.65405,0 0.965553,0.23178 0.940153,0.84526 z"
         style="fill:#231f20;fill-opacity:1;fill-rule:nonzero;stroke:none;stroke-width:0.35277778"
         id="path10401"
         inkscape:connector-curvature="0" />
      <path
         d="m -4.5703357,155.67553 c -0.035983,-0.11783 -0.062794,-0.23707 -0.080081,-0.35701 l -7.055e-4,-0.002 c 0,0 0.020814,-0.007 0.039511,-0.0134 0.1763889,-0.0688 0.2554111,-0.3122 0.2554111,-0.5154 0,-0.25224 -0.1481667,-0.43427 -0.3538361,-0.43427 h -0.098778 v 2.64407 h -0.4900083 l -0.00106,-3.12315 h 0.5849055 c 0.4554361,0 0.8128,0.40147 0.8128,0.91335 0,0.24412 -0.078669,0.48154 -0.2077861,0.66428 0.2342444,0.72319 0.7009694,1.34408 1.5151805,1.63053 0.2338917,-0.48859 0.3658306,-1.03681 0.3658306,-1.61607 0,-2.06834 -1.6785167,-3.74544 -3.7468527,-3.74544 -2.0686889,0 -3.7457944,1.6771 -3.7457944,3.74544 0,0.58949 0.1358194,1.14547 0.3781778,1.64077 1.1715749,-0.30868 1.7307277,-1.3148 1.7868194,-2.97568 v -0.25718 h 0.5369277 v 0.25894 c -0.028928,1.88701 -0.7119055,3.07975 -2.0443471,3.45334 0.6738055,0.98143 1.8062221,1.62631 3.0882166,1.62631 1.299986,0 2.4443971,-0.66252 3.116086,-1.66688 -0.9200444,-0.32631 -1.4495639,-1.03505 -1.7106194,-1.87007 m -1.0706805,-0.50624 v 0.48613 H -6.327877 v 1.35361 h -0.4762499 v -3.13514 h 1.3112749 v 0.47625 c 0,0.003 -0.8346722,0.003 -0.835025,0.002 V 155.17 Z"
         style="fill:#a71b5f;fill-opacity:1;fill-rule:nonzero;stroke:none;stroke-width:0.35277778"
         id="path10405"
         inkscape:connector-curvature="0" />
    </g>
  </g>
</svg>
