<?xml version="1.0" encoding="UTF-8" standalone="no"?>
<!-- Created with Inkscape (http://www.inkscape.org/) -->

<svg
   xmlns:dc="http://purl.org/dc/elements/1.1/"
   xmlns:cc="http://creativecommons.org/ns#"
   xmlns:rdf="http://www.w3.org/1999/02/22-rdf-syntax-ns#"
   xmlns:svg="http://www.w3.org/2000/svg"
   xmlns="http://www.w3.org/2000/svg"
   xmlns:sodipodi="http://sodipodi.sourceforge.net/DTD/sodipodi-0.dtd"
   xmlns:inkscape="http://www.inkscape.org/namespaces/inkscape"
   width="41.4076"
   height="27.675711"
   viewBox="0 0 10.95576 7.3225319"
   version="1.1"
   id="svg16555"
   inkscape:version="0.92.0 r15299"
   sodipodi:docname="jewel osco.svg">
  <defs
     id="defs16549" />
  <sodipodi:namedview
     id="base"
     pagecolor="#ffffff"
     bordercolor="#666666"
     borderopacity="1.0"
     inkscape:pageopacity="0.0"
     inkscape:pageshadow="2"
     inkscape:zoom="19.980714"
     inkscape:cx="20.203783"
     inkscape:cy="13.337869"
     inkscape:document-units="mm"
     inkscape:current-layer="layer1"
     showgrid="false"
     fit-margin-top="0"
     fit-margin-left="0"
     fit-margin-right="0"
     fit-margin-bottom="0"
     units="px"
     inkscape:window-width="1280"
     inkscape:window-height="744"
     inkscape:window-x="-4"
     inkscape:window-y="-4"
     inkscape:window-maximized="1" />
  <metadata
     id="metadata16552">
    <rdf:RDF>
      <cc:Work
         rdf:about="">
        <dc:format>image/svg+xml</dc:format>
        <dc:type
           rdf:resource="http://purl.org/dc/dcmitype/StillImage" />
        <dc:title></dc:title>
      </cc:Work>
    </rdf:RDF>
  </metadata>
  <g
     inkscape:label="Layer 1"
     inkscape:groupmode="layer"
     id="layer1"
     transform="translate(-141.30917,-197.2005)">
    <g
       id="g16633"
       transform="translate(0.13228798,-0.13228933)">
      <path
         d="m 145.43519,197.57507 c 1.78364,-0.29316 3.29706,0.0205 4.66231,0.69391 1.03329,0.50977 1.82986,1.7018 1.89442,2.57528 0.0914,1.2312 -0.56304,2.17982 -1.83092,2.87302 -0.91052,0.49813 -1.77341,0.74436 -3.23709,0.80575 -0.8008,-0.0109 -1.32997,-0.0205 -1.7914,-0.0945 -0.83609,-0.13405 -1.25095,-0.36159 -1.25095,-0.36159 0,0 1.18851,0.31432 2.97956,0.20355 2.44369,-0.15099 4.52684,-1.3716 4.52331,-3.10056 -0.002,-1.03012 -0.67627,-2.13678 -1.54128,-2.66383 -0.83185,-0.50694 -1.48484,-0.68545 -2.08809,-0.81915 -0.75036,-0.16616 -1.99708,-0.16475 -2.31987,-0.11183"
         style="fill:#e31837;fill-opacity:1;fill-rule:nonzero;stroke:none;stroke-width:0.35277778"
         id="path5236"
         inkscape:connector-curvature="0" />
      <path
         d="m 149.90019,203.35216 c -0.96485,0.40711 -2.17664,0.87418 -3.6389,0.87524 -1.54235,0.001 -2.59433,-0.29492 -3.30976,-0.71508 -0.91335,-0.53552 -1.54693,-1.5494 -1.62807,-2.34738 -0.11466,-1.12536 0.46425,-2.00978 1.61466,-2.67653 0.82585,-0.47907 1.70004,-0.76729 3.04624,-0.86113 1.96321,-0.14358 3.68617,0.83044 3.68617,0.83044 0,0 -1.15958,-0.43956 -1.79775,-0.5214 -0.43568,-0.0557 -1.08903,-0.17498 -2.01825,-0.0945 -2.24684,0.19368 -4.03295,1.49578 -3.98709,3.07834 0.0279,0.94333 0.62442,1.87678 1.43404,2.33715 0.77894,0.44309 2.05917,0.72355 2.97215,0.7359 1.75049,0.024 3.34963,-0.52423 3.62656,-0.641"
         style="fill:#e31837;fill-opacity:1;fill-rule:nonzero;stroke:none;stroke-width:0.35277778"
         id="path5240"
         inkscape:connector-curvature="0" />
      <path
         d="m 144.70346,198.8794 c 0,0 -0.23424,1.03329 -0.35736,1.53176 -0.0956,0.22225 -0.28364,0.36901 -0.50941,0.42968 -0.13159,0.0438 -1.07845,0.0385 -1.07845,0.0385 l 0.10619,-0.48013 c 0,0 0.4512,0 0.67698,-0.007 0.0818,-0.0134 0.11606,-0.10089 0.13653,-0.17533 0.12311,-0.43815 0.32808,-1.33773 0.32808,-1.33773 z"
         style="fill:#e31837;fill-opacity:1;fill-rule:nonzero;stroke:none;stroke-width:0.35277778"
         id="path5244"
         inkscape:connector-curvature="0" />
      <path
         d="m 144.9267,200.30323 c -0.0236,0.0741 -0.0402,0.15099 -0.004,0.2226 0.0589,0.11254 0.17215,0.14111 0.2801,0.12277 0.10831,-0.0198 0.21026,-0.0843 0.24377,-0.15593 h 0.35878 c -0.12065,0.26882 -0.49213,0.4505 -0.73907,0.4505 -0.13758,0 -0.25788,-0.043 -0.34325,-0.10478 -0.11183,-0.0847 -0.17075,-0.20955 -0.18098,-0.33055 -3.5e-4,-0.0226 0,-0.0843 0.0102,-0.16863 0.0127,-0.0818 0.036,-0.18979 0.0773,-0.29739 0.20814,-0.54257 0.59514,-0.56832 0.75636,-0.56832 0.27552,0 0.41769,0.13582 0.47589,0.27411 0.084,0.20214 0.0434,0.38911 0,0.55562 z m 0.61031,-0.24095 c 0.0222,-0.10512 0.0236,-0.27904 -0.19227,-0.28927 -0.22119,-0.0102 -0.34078,0.15875 -0.36618,0.28927 z"
         style="fill:#e31837;fill-opacity:1;fill-rule:nonzero;stroke:none;stroke-width:0.35277778"
         id="path5248"
         inkscape:connector-curvature="0" />
      <path
         d="m 146.48234,199.49676 0.008,0.97296 0.41522,-0.97296 h 0.37676 l -0.005,0.97296 0.42828,-0.97296 h 0.37676 l -0.69179,1.38783 h -0.37395 l -0.0106,-0.97614 -0.43357,0.97614 h -0.37429 l -0.0928,-1.38783 z"
         style="fill:#e31837;fill-opacity:1;fill-rule:nonzero;stroke:none;stroke-width:0.35277778"
         id="path5252"
         inkscape:connector-curvature="0" />
      <path
         d="m 148.33993,200.30323 c -0.024,0.0741 -0.0402,0.15099 -0.004,0.2226 0.0589,0.11254 0.17251,0.14111 0.2801,0.12277 0.10795,-0.0198 0.21026,-0.0843 0.24413,-0.15593 h 0.35807 c -0.1203,0.26882 -0.49178,0.4505 -0.73837,0.4505 -0.13793,0 -0.25823,-0.043 -0.34396,-0.10478 -0.11147,-0.0847 -0.17039,-0.20955 -0.18062,-0.33055 -3.5e-4,-0.0226 0,-0.0843 0.0102,-0.16863 0.0127,-0.0818 0.036,-0.18979 0.0773,-0.29739 0.20814,-0.54257 0.59514,-0.56832 0.75636,-0.56832 0.27552,0 0.41733,0.13582 0.47625,0.27411 0.0836,0.20214 0.043,0.38911 -3.6e-4,0.55562 z m 0.61031,-0.24095 c 0.0226,-0.10512 0.0236,-0.27904 -0.19227,-0.28927 -0.22119,-0.0102 -0.34078,0.15875 -0.36653,0.28927 z"
         style="fill:#e31837;fill-opacity:1;fill-rule:nonzero;stroke:none;stroke-width:0.35277778"
         id="path5256"
         inkscape:connector-curvature="0" />
      <path
         d="m 150.14672,199.01754 -0.40217,1.8669 h -0.36371 l 0.40252,-1.8669 z"
         style="fill:#e31837;fill-opacity:1;fill-rule:nonzero;stroke:none;stroke-width:0.35277778"
         id="path5260"
         inkscape:connector-curvature="0" />
      <path
         d="m 144.45729,201.07428 c 0.25929,0 0.91793,0.10477 0.72249,0.96732 -0.19579,0.86324 -0.90135,0.96837 -1.16099,0.96837 -0.25894,0 -0.91793,-0.10513 -0.72214,-0.96837 0.19544,-0.86255 0.90135,-0.96732 1.16064,-0.96732 m -0.36477,1.61043 c 0.22084,0 0.56127,-0.12771 0.67768,-0.64311 0.11642,-0.51435 -0.1658,-0.64206 -0.38629,-0.64206 -0.22119,0 -0.56162,0.12771 -0.67804,0.64206 -0.11641,0.5154 0.16546,0.64311 0.38665,0.64311"
         style="fill:#e31837;fill-opacity:1;fill-rule:nonzero;stroke:none;stroke-width:0.35277778"
         id="path5264"
         inkscape:connector-curvature="0" />
      <path
         d="m 146.2777,202.01408 c 0.004,-0.0871 -0.009,-0.17956 -0.2159,-0.17956 -0.20743,0 -0.25153,0.0744 -0.26494,0.13299 -0.0487,0.21555 0.89571,0.0593 0.78211,0.56127 -0.09,0.39652 -0.51611,0.46849 -0.74224,0.46849 -0.3302,0 -0.66322,-0.1076 -0.59196,-0.47096 h 0.39299 c -0.0261,0.11501 0.0307,0.19968 0.27129,0.19968 0.19685,0 0.26317,-0.0896 0.27446,-0.14112 0.0519,-0.22754 -0.88759,-0.0561 -0.77223,-0.5655 0.0455,-0.20002 0.23671,-0.45579 0.69003,-0.45579 0.28399,0 0.60748,0.0663 0.55033,0.4505 z"
         style="fill:#e31837;fill-opacity:1;fill-rule:nonzero;stroke:none;stroke-width:0.35277778"
         id="path5268"
         inkscape:connector-curvature="0" />
      <path
         d="m 148.09429,202.4647 c -0.0455,0.14041 -0.25153,0.53269 -0.78387,0.53269 -0.54575,0 -0.58279,-0.39228 -0.51753,-0.67839 0.0998,-0.44062 0.37536,-0.75565 0.86713,-0.75565 0.22895,0 0.58314,0.0977 0.52282,0.52282 h -0.38735 c 0.004,-0.0903 -0.0243,-0.23142 -0.20426,-0.22049 -0.23954,0 -0.35384,0.22472 -0.39229,0.39406 -0.0335,0.14887 -0.0942,0.44308 0.19473,0.44308 0.19368,0 0.29881,-0.17391 0.31327,-0.23812 z"
         style="fill:#e31837;fill-opacity:1;fill-rule:nonzero;stroke:none;stroke-width:0.35277778"
         id="path5272"
         inkscape:connector-curvature="0" />
      <path
         d="m 148.87132,202.99729 c -0.38982,0 -0.69074,-0.22578 -0.57997,-0.71649 0.11148,-0.49248 0.51471,-0.7172 0.90523,-0.7172 0.39017,0 0.69109,0.22472 0.57997,0.7172 -0.11183,0.49071 -0.51471,0.71649 -0.90523,0.71649 m 0.25682,-1.13171 c -0.29457,0 -0.40393,0.24059 -0.44344,0.41522 -0.0399,0.17357 -0.0395,0.41416 0.25541,0.41416 0.29457,0 0.40358,-0.24059 0.44344,-0.41416 0.0392,-0.17463 0.0392,-0.41522 -0.25541,-0.41522"
         style="fill:#e31837;fill-opacity:1;fill-rule:nonzero;stroke:none;stroke-width:0.35277778"
         id="path5276"
         inkscape:connector-curvature="0" />
      <path
         d="m 150.08537,202.91739 c -0.13794,0 -0.26458,-0.0953 -0.26458,-0.24306 0,-0.14888 0.12664,-0.24413 0.26458,-0.24413 0.14005,0 0.26564,0.0952 0.26564,0.24413 0,0.14781 -0.12559,0.24306 -0.26564,0.24306 m 0,-0.4385 c -0.11254,0 -0.20002,0.0871 -0.20002,0.19544 0,0.10759 0.0875,0.19508 0.20002,0.19508 0.11395,0 0.20249,-0.0875 0.20249,-0.19508 0,-0.10831 -0.0885,-0.19544 -0.20249,-0.19544 m 0.061,0.3309 -0.0709,-0.11641 h -0.0374 v 0.11641 h -0.0554 v -0.27199 h 0.11042 c 0.0723,0 0.11254,0.0212 0.11254,0.0811 0,0.0487 -0.0321,0.0681 -0.0759,0.0723 l 0.0776,0.11853 z m -0.0557,-0.23177 h -0.0526 v 0.0748 h 0.0568 c 0.0303,0 0.0557,-0.004 0.0557,-0.0395 0,-0.0314 -0.0328,-0.0353 -0.06,-0.0353"
         style="fill:#e31837;fill-opacity:1;fill-rule:nonzero;stroke:none;stroke-width:0.35277778"
         id="path5280"
         inkscape:connector-curvature="0" />
    </g>
  </g>
</svg>
