<?xml version="1.0" encoding="UTF-8" standalone="no"?>
<svg
   xmlns:svg="http://www.w3.org/2000/svg"
   xmlns="http://www.w3.org/2000/svg"
   version="1.1"
   width="556.5"
   height="458.28125"
   id="svg14109">
  <defs
     id="defs14111" />
  <g
     transform="translate(-71.75,-303.21875)"
     id="layer1">
    <path
       d="m 121.54493,309.4345 456.90641,0 c 24.07439,0 43.59267,19.47725 43.59267,43.49945 l 0,358.85647 c 0,24.0222 -19.51828,43.49945 -43.59267,43.49945 l -456.90641,0 c -24.074398,0 -43.588937,-19.47725 -43.588937,-43.49945 l 0,-358.85647 c 0,-24.0222 19.514539,-43.49945 43.588937,-43.49945"
       id="path478"
       style="fill:#e20916;fill-opacity:1;fill-rule:nonzero;stroke:none" />
    <path
       d="m 121.54493,309.4345 456.90641,0 c 24.07439,0 43.59267,19.47725 43.59267,43.49945 l 0,358.85647 c 0,24.0222 -19.51828,43.49945 -43.59267,43.49945 l -456.90641,0 c -24.074398,0 -43.588937,-19.47725 -43.588937,-43.49945 l 0,-358.85647 c 0,-24.0222 19.514539,-43.49945 43.588937,-43.49945 z"
       id="path482"
       style="fill:none;stroke:#e20916;stroke-width:2.4421134;stroke-linecap:butt;stroke-linejoin:miter;stroke-miterlimit:3.86400008;stroke-opacity:1;stroke-dasharray:none" />
    <path
       d="m 468.22478,319.02137 c 59.23338,38.74945 97.00598,103.17278 97.00598,179.1281 0,119.79779 -97.31544,216.90816 -217.36677,216.90816 -120.04759,0 -217.36302,-97.11037 -217.36302,-216.90816 0,-74.68394 34.66683,-140.60609 92.23733,-179.62397 l 245.48648,0.49587 z"
       id="path486"
       style="fill:#ffffff;fill-opacity:1;fill-rule:evenodd;stroke:none" />
    <path
       d="m 468.22478,319.02137 c 59.23338,38.74945 97.00598,103.17278 97.00598,179.1281 0,119.79779 -97.31544,216.90816 -217.36677,216.90816 -120.04759,0 -217.36302,-97.11037 -217.36302,-216.90816 0,-74.68394 34.66683,-140.60609 92.23733,-179.62397 l 245.48648,0.49587 z"
       id="path490"
       style="fill:none;stroke:#e20916;stroke-width:2.4421134;stroke-linecap:butt;stroke-linejoin:miter;stroke-miterlimit:3.86400008;stroke-opacity:1;stroke-dasharray:none" />
    <path
       d="m 210.70032,599.29287 11.24864,0 16.65111,48.90565 16.53553,-48.90565 11.12933,0 0,57.8464 -7.46056,0 0,-34.14112 c 0,-1.1819 0.0261,-3.1356 0.082,-5.86853 0.0485,-2.7292 0.0746,-5.65601 0.0783,-8.78042 l -16.53553,48.79007 -7.77375,0 -16.65484,-48.79007 0,1.771 c 0,1.42052 0.0261,3.58301 0.082,6.49863 0.0783,2.88579 0.11558,5.01472 0.11558,6.37932 l 0,34.14112 -7.49785,0 0,-57.8464"
       id="path494"
       style="fill:#00377c;fill-opacity:1;fill-rule:evenodd;stroke:none" />
    <path
       d="m 309.15036,633.43437 -8.79907,-25.5583 -9.3546,25.5583 18.15367,0 z m -12.90405,-34.14112 8.88108,0 21.032,57.8464 -8.60145,0 -5.88345,-17.32595 -22.92603,0 -6.27493,17.32595 -8.04966,0 21.82244,-57.8464 z"
       id="path498"
       style="fill:#00377c;fill-opacity:1;fill-rule:evenodd;stroke:none" />
    <path
       d="m 361.42982,625.79372 c 3.68367,0 6.59184,-0.7345 8.72077,-2.2035 2.15875,-1.47272 3.23627,-4.12362 3.23627,-7.95644 0,-4.12362 -1.49883,-6.93112 -4.5002,-8.42622 -1.60323,-0.7867 -3.74707,-1.18191 -6.43153,-1.18191 l -19.17897,0 0,19.76807 18.15366,0 z m -26.00571,-26.50159 26.83342,0 c 4.4219,0 8.06456,0.64502 10.93171,1.92759 5.44723,2.47194 8.16897,7.02434 8.16897,13.66838 0,3.4637 -0.72332,6.2973 -2.16994,8.50452 -1.42053,2.2035 -3.41895,3.97449 -5.99903,5.31673 2.26315,0.91718 3.95959,2.1252 5.09303,3.62028 1.15581,1.4951 1.80082,3.92975 1.93131,7.28534 l 0.27591,7.75884 c 0.082,2.20349 0.26472,3.84399 0.5518,4.9215 0.47352,1.83811 1.31614,3.02002 2.52788,3.54572 l 0,1.2975 -9.63051,0 c -0.26099,-0.49588 -0.4735,-1.1409 -0.6301,-1.9276 -0.15659,-0.78668 -0.29082,-2.31161 -0.39522,-4.57103 l -0.47351,-9.64542 c -0.18641,-3.78062 -1.59202,-6.31221 -4.22056,-7.60225 -1.50255,-0.7084 -3.85519,-1.0626 -7.06535,-1.0626 l -17.87776,0 0,24.8089 -7.85205,0 0,-57.8464"
       id="path502"
       style="fill:#00377c;fill-opacity:1;fill-rule:evenodd;stroke:none" />
    <path
       d="m 394.01734,599.29287 7.65444,0 0,28.1943 28.25769,-28.1943 10.84969,0 -24.10795,23.31006 24.77906,34.53634 -10.21959,0 -20.28259,-29.022 -9.27631,8.85871 0,20.16329 -7.65444,0 0,-57.8464 z"
       id="path506"
       style="fill:#00377c;fill-opacity:1;fill-rule:nonzero;stroke:none" />
    <path
       d="m 491.28468,599.29287 0,6.89011 -19.53317,0 0,50.95629 -7.97137,0 0,-50.95629 -19.53691,0 0,-6.89011 47.04145,0 z"
       id="path510"
       style="fill:#00377c;fill-opacity:1;fill-rule:nonzero;stroke:none" />
    <path
       d="m 436.72599,383.80785 36.42664,0 -0.0858,196.59946 -36.25886,0.16405 -0.082,-196.76351 z"
       id="path514"
       style="fill:#00377c;fill-opacity:1;fill-rule:nonzero;stroke:none" />
    <path
       d="m 423.79208,558.15612 c -0.65247,8.78415 -1.72252,16.18879 -12.47529,22.04614 -6.65895,3.61656 -24.50316,3.90737 -29.66328,-6.18173 -2.32282,-4.54121 -0.97313,0.64129 -2.18113,-3.52707 l -4.22057,9.32477 -36.55714,0.11188 0.15287,-245.67664 36.93743,-0.0634 0.0709,59.0805 c 5.42484,-10.22705 9.85794,-12.79592 16.55418,-14.41406 10.75275,-2.60244 18.10146,-0.77551 22.48609,3.60165 9.12716,9.10852 8.594,21.04692 8.594,21.04692 l 0,9.92877 0.302,144.72227"
       id="path518"
       style="fill:#00377c;fill-opacity:1;fill-rule:nonzero;stroke:none" />
    <path
       d="m 436.23496,369.53732 36.71746,0 0,-35.04712 -36.71746,0 0,35.04712 z"
       id="path520"
       style="fill:#00377c;fill-opacity:1;fill-rule:nonzero;stroke:none" />
    <path
       d="m 289.20107,369.40311 37.34011,0 0,-34.98375 -37.34011,0 0,34.98375 z"
       id="path522"
       style="fill:#00377c;fill-opacity:1;fill-rule:nonzero;stroke:none" />
    <path
       d="m 289.20107,579.6896 37.24691,0 0,-196.48015 -37.24691,0 0,196.48015 z"
       id="path524"
       style="fill:#00377c;fill-opacity:1;fill-rule:nonzero;stroke:none" />
    <path
       d="m 276.52446,553.74056 c 0,17.40799 -20.52122,31.52004 -45.83344,31.52004 -25.31596,0 -45.83717,-14.11205 -45.83717,-31.52004 -0.33929,-6.62168 0.29081,-22.79181 0.29081,-35.05085 l -0.0559,-33.51848 39.64799,0.11188 -0.10812,61.586 c 0,6.7559 1.51746,9.64915 6.77453,9.58949 6.3234,-0.0709 5.42858,-9.32478 5.42858,-9.32478 l 0.1044,-212.74724 39.31989,0.22744 0.26845,219.12656"
       id="path528"
       style="fill:#00377c;fill-opacity:1;fill-rule:evenodd;stroke:none" />
    <path
       d="m 388.01982,419.25653 0,134.24914 c 0,10.05928 -9.761,10.42093 -9.761,0.35793 l 0,-134.60707 c 0,-10.05927 9.761,-10.05927 9.761,0"
       id="path532"
       style="fill:#ffffff;fill-opacity:1;fill-rule:nonzero;stroke:none" />
    <path
       d="m 388.01982,419.25653 0,134.24914 c 0,10.05928 -9.761,10.42093 -9.761,0.35793 l 0,-134.60707 c 0,-10.05927 9.761,-10.05927 9.761,0 z"
       id="path536"
       style="fill:none;stroke:#ffffff;stroke-width:1.48018193;stroke-linecap:butt;stroke-linejoin:miter;stroke-miterlimit:3.86400008;stroke-opacity:1;stroke-dasharray:none" />
  </g>
</svg>
