<svg xmlns="http://www.w3.org/2000/svg" width="320" height="72.768"><g data-name="グループ 666"><g data-name="グループ 659" fill="#fff"><path data-name="パス 1293" d="M95.157 9.08v14.079a11.328 11.328 0 01-.453 3.323 6.9 6.9 0 01-1.352 2.523 5.891 5.891 0 01-2.243 1.6 8.1 8.1 0 01-3.127.559 12.985 12.985 0 01-1.6-.1 14.26 14.26 0 01-1.647-.309l.2-2.285a.941.941 0 011.021-.857 4.283 4.283 0 01.554.1 4.841 4.841 0 001.05.1 4.314 4.314 0 001.526-.25 2.584 2.584 0 001.11-.792 3.674 3.674 0 00.673-1.413 8.51 8.51 0 00.226-2.107V9.081z"/><path data-name="パス 1294" d="M106.1 22.389a2 2 0 01.915.165 1.617 1.617 0 01.566.56l4.592 6.993a1.833 1.833 0 00.627.6 1.784 1.784 0 00.9.211h3.655l-5.468-8.066a4.033 4.033 0 00-1.329-1.254 7.921 7.921 0 002.047-.967 6.281 6.281 0 001.51-1.405 6.013 6.013 0 00.937-1.782 6.957 6.957 0 00-.151-4.63 4.973 4.973 0 00-1.5-1.986 7.279 7.279 0 00-2.613-1.292 13.917 13.917 0 00-3.829-.461H100.3v21.843h4.063v-8.534zm-1.737-10.167h2.6a5.239 5.239 0 013.345.891 3.1 3.1 0 011.1 2.554 4.134 4.134 0 01-.272 1.525 3.171 3.171 0 01-.824 1.2 3.847 3.847 0 01-1.4.793 6.306 6.306 0 01-2 .287h-2.538z"/></g><g data-name="グループ 663"><path data-name="パス 1295" d="M257.924 56a11.752 11.752 0 003.716-.529 7.387 7.387 0 002.644-1.481 6.037 6.037 0 001.586-2.273A8.223 8.223 0 00265.9 46a5.626 5.626 0 00-1.541-2.206 7.322 7.322 0 00-2.643-1.435 12.49 12.49 0 00-3.792-.514h-7.115v21.844h4.064V56zm-3.051-11.013h3.051a6.464 6.464 0 011.949.265 3.652 3.652 0 011.375.763 3.135 3.135 0 01.815 1.208 4.391 4.391 0 01.272 1.587 4.842 4.842 0 01-.272 1.669 3.283 3.283 0 01-.815 1.268 3.612 3.612 0 01-1.375.8 6.105 6.105 0 01-1.949.28h-3.051z" fill="#fff"/><g data-name="グループ 660"><path data-name="パス 1296" d="M273.513 41.845h-4.063v21.844h12.809v-3.354h-8.746z" fill="#fff"/></g><g data-name="グループ 661"><path data-name="パス 1297" d="M291.334 60.018a4.277 4.277 0 01-1.563-1.11 4.947 4.947 0 01-.975-1.73 7.073 7.073 0 01-.34-2.266V41.845h-4.063v13.083a10.105 10.105 0 00.626 3.6 8.007 8.007 0 004.646 4.729 10.942 10.942 0 007.553 0 8.235 8.235 0 002.854-1.874 8.129 8.129 0 001.806-2.855 10.084 10.084 0 00.627-3.6V41.845h-4.064v13.083a7.075 7.075 0 01-.34 2.265 4.813 4.813 0 01-.982 1.723 4.391 4.391 0 01-1.571 1.1 5.844 5.844 0 01-4.214 0z" fill="#fff"/></g><g data-name="グループ 662"><path data-name="パス 1298" d="M319.608 43.9a8.062 8.062 0 00-2.78-1.692 10.213 10.213 0 00-3.565-.6 8.182 8.182 0 00-3.037.528 6.866 6.866 0 00-2.243 1.406 6.01 6.01 0 00-1.865 4.335 6.5 6.5 0 00.43 2.515 5.034 5.034 0 001.141 1.7 5.962 5.962 0 001.616 1.1 15.821 15.821 0 001.843.725q.938.3 1.843.559a8.6 8.6 0 011.616.627 3.466 3.466 0 011.141.914 2.194 2.194 0 01.431 1.4 2.956 2.956 0 01-.952 2.364 3.986 3.986 0 01-2.689.823 5.441 5.441 0 01-1.941-.309 7.9 7.9 0 01-1.405-.688c-.4-.252-.743-.48-1.035-.687a1.445 1.445 0 00-.816-.31.979.979 0 00-.52.143 1.58 1.58 0 00-.451.44l-1.128 1.864a8.548 8.548 0 001.443 1.179 10.121 10.121 0 001.737.906 10.806 10.806 0 001.941.582 10.38 10.38 0 002.054.2 8.76 8.76 0 003.217-.552 6.965 6.965 0 002.38-1.51 6.431 6.431 0 001.481-2.252 7.553 7.553 0 00.505-2.771 5.58 5.58 0 00-.43-2.311 4.941 4.941 0 00-1.14-1.609 6.439 6.439 0 00-1.617-1.088 17.879 17.879 0 00-1.851-.755q-.944-.325-1.85-.612a10.489 10.489 0 01-1.616-.65 3.575 3.575 0 01-1.141-.875 1.933 1.933 0 01-.43-1.285 2.857 2.857 0 01.211-1.11 2.257 2.257 0 01.642-.868 3.108 3.108 0 011.058-.567 4.755 4.755 0 011.472-.2 5.054 5.054 0 011.624.234 7.281 7.281 0 011.2.521c.343.192.639.366.891.521a1.318 1.318 0 00.68.235.976.976 0 00.521-.136 1.13 1.13 0 00.386-.468z" fill="#fff"/></g></g><g data-name="グループ 664" fill="#fff"><path data-name="パス 1299" d="M142.788 25.773a.761.761 0 01.574.256l1.6 1.738a8.8 8.8 0 01-3.27 2.522 11.27 11.27 0 01-4.66.876 11 11 0 01-4.373-.831 9.633 9.633 0 01-3.316-2.311 10.13 10.13 0 01-2.108-3.535A13.271 13.271 0 01126.5 20a12.065 12.065 0 01.816-4.509 10.184 10.184 0 015.838-5.831 12.172 12.172 0 014.555-.823 10.748 10.748 0 014.252.778 9.94 9.94 0 013.12 2.062l-1.36 1.888a1.253 1.253 0 01-.31.317.881.881 0 01-.521.136 1.189 1.189 0 01-.71-.272 8.88 8.88 0 00-.922-.59 7.487 7.487 0 00-1.412-.588 8.159 8.159 0 00-5 .264 6.291 6.291 0 00-2.22 1.533 7.059 7.059 0 00-1.451 2.424 9.326 9.326 0 00-.521 3.211 9.575 9.575 0 00.521 3.278 7.212 7.212 0 001.413 2.417 6.02 6.02 0 002.1 1.5 6.5 6.5 0 002.6.521 11.227 11.227 0 001.5-.091 6.334 6.334 0 001.239-.287 5.549 5.549 0 001.072-.506 6.631 6.631 0 001-.763 1.476 1.476 0 01.318-.219.8.8 0 01.371-.077z"/><path data-name="パス 1300" d="M161.8 9.08v3.233h-9.68v6.058h7.628v3.126h-7.628v6.178h9.68v3.248h-13.773V9.08z"/><path data-name="パス 1301" d="M168.092 9.1a1.061 1.061 0 01.325.092 1.074 1.074 0 01.28.2 3.272 3.272 0 01.3.34l11.465 14.607c-.04-.353-.068-.7-.082-1.035s-.024-.651-.024-.943V9.08h3.581v21.843h-2.1a1.86 1.86 0 01-.8-.151 1.779 1.779 0 01-.619-.543L169 15.681c.03.323.052.642.068.96s.022.606.022.868v13.414h-3.58V9.08h2.13a3.954 3.954 0 01.452.02z"/><path data-name="パス 1302" d="M203.982 9.08v3.338h-6.57v18.5h-4.064v-18.5h-6.6V9.08z"/><path data-name="パス 1303" d="M210.853 22.389v8.534h-4.063V9.08h6.661a13.919 13.919 0 013.83.461 7.279 7.279 0 012.613 1.292 4.973 4.973 0 011.5 1.986 6.956 6.956 0 01.151 4.63 6.011 6.011 0 01-.937 1.782 6.28 6.28 0 01-1.51 1.405 7.921 7.921 0 01-2.047.967 4.033 4.033 0 011.329 1.254l5.468 8.066h-3.655a1.781 1.781 0 01-.9-.211 1.834 1.834 0 01-.627-.6l-4.592-6.993a1.616 1.616 0 00-.566-.56 2 2 0 00-.915-.165zm0-2.916h2.538a6.306 6.306 0 002-.287 3.847 3.847 0 001.4-.793 3.182 3.182 0 00.824-1.2 4.154 4.154 0 00.272-1.525 3.1 3.1 0 00-1.1-2.554 5.24 5.24 0 00-3.346-.891h-2.6z"/><path data-name="パス 1304" d="M246.93 30.923h-3.143a1.374 1.374 0 01-.868-.264 1.5 1.5 0 01-.491-.657l-1.632-4.457h-9.048l-1.632 4.457a1.418 1.418 0 01-.475.634 1.336 1.336 0 01-.869.287h-3.157l8.58-21.843h4.155zm-14.14-8.247h6.964l-2.659-7.266q-.18-.485-.4-1.141t-.43-1.428q-.213.771-.416 1.436t-.4 1.162z"/><path data-name="パス 1305" d="M253.612 27.57h8.746v3.353h-12.809V9.08h4.063z"/></g><g data-name="グループ 665" fill="#fff"><path data-name="パス 1306" d="M89.328 55.154v8.535h-4.064V41.845h6.662a13.917 13.917 0 013.829.461 7.308 7.308 0 012.614 1.292 4.981 4.981 0 011.495 1.986 6.954 6.954 0 01.151 4.63 6.022 6.022 0 01-.936 1.782 6.324 6.324 0 01-1.511 1.406 7.936 7.936 0 01-2.047.966 4.034 4.034 0 011.329 1.254l5.469 8.067h-3.656a1.767 1.767 0 01-.9-.212 1.837 1.837 0 01-.628-.6l-4.592-6.994a1.619 1.619 0 00-.566-.559 1.987 1.987 0 00-.915-.166zm0-2.916h2.537a6.279 6.279 0 002-.287 3.858 3.858 0 001.4-.792 3.2 3.2 0 00.823-1.2 4.132 4.132 0 00.272-1.525 3.1 3.1 0 00-1.1-2.553 5.243 5.243 0 00-3.346-.892h-2.6z"/><path data-name="パス 1307" d="M118.872 41.845v3.233h-9.683v6.058h7.628v3.127h-7.628v6.178h9.683v3.248H105.1V41.845z"/><path data-name="パス 1308" d="M138.461 41.845v3.339h-6.571v18.5h-4.064v-18.5h-6.6v-3.339z"/><path data-name="パス 1309" d="M158.095 63.689h-3.143a1.371 1.371 0 01-.868-.265 1.5 1.5 0 01-.491-.657l-1.632-4.456h-9.048l-1.632 4.456a1.423 1.423 0 01-.475.635 1.342 1.342 0 01-.869.287h-3.157l8.58-21.844h4.155zm-14.14-8.248h6.964l-2.659-7.266c-.12-.322-.254-.7-.4-1.14s-.289-.915-.43-1.428q-.213.77-.416 1.435t-.4 1.163z"/><path data-name="パス 1310" d="M165.037 63.689h-4.078V41.845h4.078z"/><path data-name="パス 1311" d="M174.324 60.335h8.746v3.354h-12.809V41.845h4.063z"/><path data-name="パス 1312" d="M190.274 63.689H186.2V41.845h4.079z"/><path data-name="パス 1313" d="M198.08 41.868a1 1 0 01.6.287 3.211 3.211 0 01.3.34l11.465 14.608q-.06-.53-.083-1.035a21.395 21.395 0 01-.023-.944V41.845h3.58v21.844h-2.1a1.87 1.87 0 01-.8-.151 1.778 1.778 0 01-.619-.544l-11.42-14.547c.03.322.052.642.068.959s.022.607.022.869v13.414h-3.57V41.845h2.129a3.722 3.722 0 01.451.023z"/><path data-name="パス 1314" d="M228.869 60.7a10.248 10.248 0 002.394-.249 10.075 10.075 0 001.942-.688v-3.972h-2.735a.854.854 0 01-.619-.219.719.719 0 01-.227-.537v-2.3h7.266v8.837a11.937 11.937 0 01-1.729 1.05 11.048 11.048 0 01-1.919.732 14.67 14.67 0 01-2.182.431 20.731 20.731 0 01-2.508.144 11.378 11.378 0 01-4.4-.832 10.319 10.319 0 01-5.763-5.845 11.95 11.95 0 01-.823-4.487 12.338 12.338 0 01.8-4.517 9.956 9.956 0 015.846-5.831 12.948 12.948 0 014.714-.815 12.292 12.292 0 014.63.793 10.669 10.669 0 013.315 2.062l-1.178 1.843a1.048 1.048 0 01-.921.559 1.369 1.369 0 01-.741-.242 57.885 57.885 0 00-.989-.574 6.84 6.84 0 00-1.118-.5 9.236 9.236 0 00-1.375-.347 10.131 10.131 0 00-1.759-.136 7.548 7.548 0 00-2.923.544 6.188 6.188 0 00-2.229 1.556 7.015 7.015 0 00-1.42 2.432 9.535 9.535 0 00-.5 3.172 9.9 9.9 0 00.529 3.361 7.049 7.049 0 001.48 2.485 6.386 6.386 0 002.266 1.549 7.536 7.536 0 002.876.541z"/></g></g><g data-name="グループ 669" fill="#fff"><g data-name="グループ 667"><path data-name="パス 1315" d="M22.534 25.117A23.861 23.861 0 000 47.651a23.862 23.862 0 0022.534-22.534z"/><path data-name="パス 1316" d="M0 50.234a23.861 23.861 0 0022.534 22.534A23.863 23.863 0 000 50.234z"/><path data-name="パス 1317" d="M47.651 47.651a23.862 23.862 0 00-22.534-22.534 23.862 23.862 0 0022.534 22.534z"/><path data-name="パス 1318" d="M47.651 50.234a23.863 23.863 0 00-22.534 22.534 23.862 23.862 0 0022.534-22.534z"/></g><g data-name="グループ 668"><path data-name="パス 1319" d="M47.651 0a23.862 23.862 0 00-22.534 22.534A23.863 23.863 0 0047.651 0z"/><path data-name="パス 1320" d="M72.768 22.534A23.862 23.862 0 0050.234 0a23.863 23.863 0 0022.534 22.534z"/><path data-name="パス 1321" d="M72.768 25.117a23.862 23.862 0 00-22.534 22.534 23.862 23.862 0 0022.534-22.534z"/></g></g></svg>