<?xml version="1.0" encoding="utf-8"?>
<!-- Generator: Adobe Illustrator 21.0.0, SVG Export Plug-In . SVG Version: 6.00 Build 0)  -->
<svg version="1.1" id="Layer_1" xmlns="http://www.w3.org/2000/svg" xmlns:xlink="http://www.w3.org/1999/xlink" x="0px" y="0px"
	 viewBox="0 0 3401.6 350.9" style="enable-background:new 0 0 3401.6 350.9;" xml:space="preserve">
<style type="text/css">
	.st0{clip-path:url(#SVGID_2_);fill:#C00D1E;}
	.st1{clip-path:url(#SVGID_2_);fill:#FF6900;}
</style>
<g>
	<defs>
		<rect id="SVGID_1_" x="12" width="3377.6" height="350.9"/>
	</defs>
	<clipPath id="SVGID_2_">
		<use xlink:href="#SVGID_1_"  style="overflow:visible;"/>
	</clipPath>
	<path class="st0" d="M3132.4,5.7c-4.7,0-8.5,3.3-8.5,8.1v57.9c0,4.7,3.8,8.1,8.5,8.1h80.2v257.3c0,4.7,3.3,8.1,8.6,8.1h66.9
		c4.7,0,8.1-3.3,8.1-8.1V79.8h70.3c6.6,0,9.5-2.8,10.9-8.5l11.9-56c1.4-7.1-2.4-9.5-7.6-9.5H3132.4z M3074,345.2
		c4.8,0,8.1-3.3,8.1-8.1v-57.4c0-4.8-3.3-8.1-8.1-8.1h-116.3v-62.7h84c4.7,0,8.1-3.3,8.1-8.1v-52.7c0-4.7-3.3-8.1-8.1-8.1h-84V79.8
		h102.6c7.1,0,10-2.8,11.4-8.5l11.4-56c1.4-7.1-1.9-9.5-7.1-9.5h-193.2c-4.7,0-8.1,3.3-8.1,8.1v323.3c0,4.7,3.3,8.1,8.1,8.1H3074z
		 M2823.4,17.6c3.8-4.8,2.4-11.9-4.8-11.9h-79.3c-7.1,0-10.9,2.8-14.7,7.6l-114.4,142.4v-142c0-4.7-3.3-8.1-8.1-8.1h-66.9
		c-4.7,0-8.1,3.3-8.1,8.1v323.3c0,4.7,3.3,8.1,8.1,8.1h66.9c4.7,0,8.1-3.3,8.1-8.1V255l43.2-52.2l79.3,134.8
		c2.9,5.2,6.6,7.6,12.3,7.6h76.9c6.2,0,8.1-5.7,5.2-10.5l-111.6-186.1L2823.4,17.6z M2293.5,159.5V76.4h27.1
		c26.1,0,46.1,10.4,46.1,41.8s-19.9,41.3-46.1,41.3H2293.5z M2384.6,337.6c2.9,5.2,6.2,7.6,11.9,7.6h74.5c6.2,0,8.5-5.2,5.7-10.5
		l-73.6-132.5c28.5-18.5,49.4-48.9,49.4-85.5c0-74.1-53.2-111.1-127.7-111.1h-106.4c-4.8,0-8.1,3.3-8.1,8.1v323.3
		c0,4.7,3.3,8.1,8.1,8.1h66.5c5.2,0,8.5-3.3,8.5-8.1V221.7h30.4L2384.6,337.6z M1999.1,118.2l40.4,106.4h-80.7L1999.1,118.2z
		 M2081.7,337.6c2.4,5.7,6.6,7.6,11.4,7.6h65c5.7,0,10-3.8,7.1-10.9l-125.8-321c-2.4-5.2-5.7-7.6-11.4-7.6h-56.5
		c-5.2,0-9,2.4-10.9,7.6l-126.3,321c-2.8,7.1,1.4,10.9,7.1,10.9h64.1c4.8,0,9-1.9,10.9-7.6l17.6-46.5h130.1L2081.7,337.6z
		 M1525.7,345.2c4.8,0,8.1-3.3,8.1-8.1V128.7l79.8,90.7c3.8,4.3,9.5,4.3,13.3,0l79.8-90.7v208.4c0,4.7,3.3,8.1,8.1,8.1h66.5
		c4.7,0,8.1-3.3,8.1-8.1V13.8c0-4.7-3.3-8.1-8.1-8.1h-51.3c-5.7,0-10,1.4-13.3,4.8l-96.4,107.3l-95.9-107.3
		c-3.3-3.3-7.1-4.8-12.8-4.8h-51.7c-4.7,0-8.1,3.3-8.1,8.1v323.3c0,4.7,3.3,8.1,8.1,8.1H1525.7z M1214.7,337.1
		c0,4.7,3.3,8.1,8.1,8.1h68.4c4.7,0,8.1-3.3,8.1-8.1V199.9L1408,16.6c3.3-5.7,0.5-10.9-5.2-10.9h-71.2c-5.7,0-10,2.4-12.8,7.6
		l-59.8,103l-58.9-103c-2.8-5.2-7.1-7.6-12.8-7.6h-76c-5.7,0-8.5,5.2-5.2,10.9l108.7,183.3V337.1z M821.1,5.7
		c-4.8,0-8.1,3.3-8.1,8.1v57.9c0,4.7,3.3,8.1,8.1,8.1h80.7v257.3c0,4.7,3.3,8.1,8.1,8.1h66.9c5.2,0,8.5-3.3,8.5-8.1V79.8h67.9
		c6.6,0,10-2.8,11.4-8.5l11.9-56c1.4-7.1-2.4-9.5-7.6-9.5H821.1z M683.9,337.1c0,4.7,3.3,8.1,8.1,8.1h67.4c4.8,0,8.1-3.3,8.1-8.1
		V13.8c0-4.7-3.3-8.1-8.1-8.1H692c-4.7,0-8.1,3.3-8.1,8.1V337.1z M345.9,175.2c0,106.8,80.7,175.7,183.7,175.7
		c34.7,0,73.6-10,93.5-21.8c6.2-3.8,5.7-8.1,3.3-14.2l-23.3-52.2c-2.4-5.2-5.7-7.1-11.9-4.3c-19.5,9.5-36.6,16.6-63.6,16.6
		c-51.3,0-94.5-37.5-94.5-99.7c0-61.7,43.2-99.2,94.5-99.2c27.1,0,44.2,6.6,63.6,16.6c6.2,2.8,9.5,0.9,11.9-4.7l23.3-52.2
		c2.4-5.7,2.8-10-3.3-13.8C603.2,10,564.3,0,529.6,0C426.6,0,345.9,68.9,345.9,175.2"/>
	<path class="st1" d="M12,35.1c0,5,3.2,8.2,8.2,8.2h287.6c5,0,8.2-3.2,8.2-8.2V12.7c0-4.6-3.2-8.2-8.2-8.2H20.2
		c-5,0-8.2,3.7-8.2,8.2V35.1z"/>
	<path class="st1" d="M12,336c0,5,3.2,8.2,8.2,8.2h287.6c5,0,8.2-3.2,8.2-8.2v-22.4c0-4.6-3.2-8.2-8.2-8.2H20.2
		c-5,0-8.2,3.7-8.2,8.2V336z"/>
	<path class="st1" d="M260.7,273.3c5.5,0,9.2-6,4.6-11.9l-69.6-91.6l68.2-82c4.6-6.4,0.9-12.4-5-12.4h-53.6
		c-6.9,0-10.5,3.2-13.7,7.8l-63.7,81.5V83.7c0-4.6-3.2-8.2-7.8-8.2h-49c-5,0-8.2,3.7-8.2,8.2V265c0,5,3.2,8.2,8.2,8.2h49
		c4.6,0,7.8-3.2,7.8-8.2v-89.3l63.7,89.8c3.2,5,6.9,7.8,13.7,7.8H260.7z"/>
</g>
</svg>
