<?xml version="1.0" encoding="UTF-8" standalone="no"?>
<!-- Created with Inkscape (http://www.inkscape.org/) -->

<svg
   xmlns:dc="http://purl.org/dc/elements/1.1/"
   xmlns:cc="http://creativecommons.org/ns#"
   xmlns:rdf="http://www.w3.org/1999/02/22-rdf-syntax-ns#"
   xmlns:svg="http://www.w3.org/2000/svg"
   xmlns="http://www.w3.org/2000/svg"
   xmlns:sodipodi="http://sodipodi.sourceforge.net/DTD/sodipodi-0.dtd"
   xmlns:inkscape="http://www.inkscape.org/namespaces/inkscape"
   width="141.11111mm"
   height="41.37841mm"
   viewBox="0 0 500.00001 146.61641"
   id="svg5720"
   version="1.1"
   inkscape:version="0.91 r13725"
   sodipodi:docname="Albrecht Lebensmittel.svg">
  <defs
     id="defs5722" />
  <sodipodi:namedview
     id="base"
     pagecolor="#ffffff"
     bordercolor="#666666"
     borderopacity="1.0"
     inkscape:pageopacity="0.0"
     inkscape:pageshadow="2"
     inkscape:zoom="2.422"
     inkscape:cx="250"
     inkscape:cy="73.30821"
     inkscape:document-units="px"
     inkscape:current-layer="layer1"
     showgrid="false"
     inkscape:window-width="1366"
     inkscape:window-height="705"
     inkscape:window-x="-8"
     inkscape:window-y="-8"
     inkscape:window-maximized="1"
     fit-margin-top="0"
     fit-margin-left="0"
     fit-margin-right="0"
     fit-margin-bottom="0" />
  <metadata
     id="metadata5725">
    <rdf:RDF>
      <cc:Work
         rdf:about="">
        <dc:format>image/svg+xml</dc:format>
        <dc:type
           rdf:resource="http://purl.org/dc/dcmitype/StillImage" />
        <dc:title></dc:title>
      </cc:Work>
    </rdf:RDF>
  </metadata>
  <g
     inkscape:label="Layer 1"
     inkscape:groupmode="layer"
     id="layer1"
     transform="translate(-274.81937,-415.12203)">
    <path
       d="m 774.81937,415.12203 -500,0 0,146.61642 500,0 0,-146.61642 z m -1.87783,144.73856 -496.24119,0 0,-142.85759 496.24119,0 0,142.85759 z m -7.52082,-135.33992 -481.2027,0 0,127.81913 481.2027,0 0,-127.81913 z"
       style="fill:#c50e1f;fill-opacity:1;fill-rule:nonzero;stroke:none"
       id="path4416"
       inkscape:connector-curvature="0" />
    <g
       id="g4426"
       transform="matrix(3.1193656,0,0,-3.1193656,750.00981,469.07021)">
      <path
         d="m 0,0 0,5.423 -2.988,0 0,3.616 -6.317,0 0,-3.616 -2.988,0 0,-5.423 2.988,0 0,-13.498 6.317,0 L -2.988,0 0,0 Z m -12.209,-18.684 -0.951,0 0,1.835 -1.547,0 0,-1.835 -0.531,0 0,-1.305 0.531,0 0,-4.112 1.547,0 0,4.112 0.951,0 0,1.305 z m -8.279,5.186 6.36,0 0,10.847 c 0,2.53 -2.383,5.543 -5.878,5.543 -1.808,0 -3.013,-0.602 -3.736,-1.808 -0.241,0.242 -0.413,1.326 -0.413,0.724 l -0.027,8.315 -6.309,0 0,-23.621 6.309,0 0,8.557 c -0.045,1.018 0.712,2.005 1.765,2.048 1.03,0.043 1.905,-0.777 1.929,-1.807 l 0,-8.798 z m -9.53,-5.186 -1.547,0 0,-5.417 1.547,0 0,2.657 c 0,0.574 -0.044,1.698 0.818,1.698 0.807,0 0.741,-1.08 0.741,-1.609 l 0,-2.746 1.547,0 0,2.657 c 0,0.563 -0.011,1.698 0.83,1.698 0.762,0 0.729,-0.981 0.729,-1.51 l 0,-2.845 1.548,0 0,3.374 c 0,1.191 -0.343,2.231 -1.725,2.231 -0.63,0 -1.249,-0.321 -1.58,-0.852 -0.354,0.575 -0.885,0.852 -1.559,0.852 -0.498,0 -1.028,-0.233 -1.326,-0.664 l -0.023,0.476 z m -5.28,-1.36 c 0,0.265 0.254,0.464 0.508,0.464 0.31,0 0.597,-0.166 0.818,-0.376 l 0.664,0.896 c -0.443,0.387 -1.172,0.564 -1.747,0.564 -1.017,0 -1.724,-0.741 -1.724,-1.758 0,-0.874 0.541,-1.194 1.083,-1.426 0.542,-0.232 1.083,-0.343 1.083,-0.818 0,-0.354 -0.276,-0.586 -0.619,-0.586 -0.453,0 -0.851,0.299 -1.149,0.63 l -0.708,-0.917 c 0.476,-0.575 1.183,-0.907 1.912,-0.907 1.139,0 2.112,0.719 2.112,1.924 0,0.939 -0.553,1.315 -1.117,1.558 -0.552,0.243 -1.116,0.354 -1.116,0.752 m -7.366,14.259 c 0,1.597 1.268,2.892 2.832,2.892 1.005,0 1.886,-0.533 2.389,-1.338 l 3.384,3.75 c -1.429,1.557 -3.459,2.53 -5.712,2.53 -4.327,0 -7.834,-3.588 -7.834,-8.015 0,-4.426 3.507,-8.014 7.834,-8.014 2.6,0 4.905,1.296 6.33,3.292 l -3.938,3.455 c -0.49,-0.863 -1.405,-1.444 -2.453,-1.444 -1.564,0 -2.832,1.295 -2.832,2.892 m -6.725,-2.531 c 0.194,0.745 0.338,1.53 0.338,2.35 0,4.427 -3.453,8.015 -7.713,8.015 -4.26,0 -7.713,-3.588 -7.713,-8.015 0,-4.426 3.453,-8.014 7.713,-8.014 2.095,0 3.995,0.868 5.39,2.277 l -3.356,3.089 c -0.552,-0.491 -1.261,-0.787 -2.034,-0.787 -0.941,0 -1.732,0.389 -2.29,1.085 l 9.665,0 z m -4.771,4.339 -5.209,0 c 0.579,0.875 1.53,1.446 2.605,1.446 1.074,0 2.025,-0.571 2.604,-1.446 M -65.924,-4.7 -63.152,0 c -0.602,0.964 -1.566,1.928 -2.772,1.928 -1.46,0 -2.588,-0.517 -3.254,-1.808 0,0 -0.249,0.362 -0.249,0.841 l 0,0.545 c 0,0.167 -0.135,0.302 -0.301,0.302 l -4.867,0 c -0.166,0 -0.301,-0.135 -0.301,-0.302 l 0,-14.703 c 0,-0.166 0.135,-0.301 0.301,-0.301 l 4.867,0 c 0.166,0 0.301,0.135 0.301,0.301 l 0,8.569 c 0.394,0.463 0.93,0.771 1.455,0.771 0.722,0 1.505,-0.172 2.048,-0.843 m -10.967,-1.507 c 0,4.227 -3.366,7.533 -7.593,7.533 -1.385,0 -2.41,-0.483 -3.133,-1.206 0,0 -0.219,0.362 -0.219,0.885 l 0,8.034 -6.155,0 0,-22.537 6.155,0 0.219,1.085 c 0.482,-0.724 1.687,-1.447 3.073,-1.447 4.227,0 7.653,3.427 7.653,7.653 m -6.026,-0.06 c 0,-1.231 -0.998,-2.23 -2.229,-2.23 -1.232,0 -2.23,0.999 -2.23,2.23 0,1.231 0.998,2.23 2.23,2.23 1.231,0 2.229,-0.999 2.229,-2.23 m -21.682,-7.231 6.964,0 0,22.537 -6.964,0 0,-22.537 z m -5.374,-9.28 0.026,26.996 c 0,4.909 -4.006,8.979 -8.914,8.979 -4.909,0 -8.889,-3.98 -8.889,-8.889 l 0,-11.66 -16.452,0 0,-6.146 16.452,0 0,-9.28 7.459,0 0,9.28 2.881,0 -0.001,-9.28 7.438,0 z m -7.434,26.996 -0.002,-11.57 -2.882,0 0,11.585 c 0,0.795 0.645,1.44 1.44,1.44 0.795,0 1.444,-0.66 1.444,-1.455 m -12.861,-10.087 1.071,0 0,6.49 -1.071,0 0,-6.49 z m -1.016,2.787 0.13,1.002 c -0.138,0.053 -0.291,0.091 -0.444,0.091 -0.398,0 -0.719,-0.183 -0.933,-0.512 l -0.016,0.382 -1.071,0 0,-3.75 1.071,0 0,1.687 c 0,0.58 0.077,1.237 0.819,1.237 0.161,0 0.314,-0.046 0.444,-0.137 m -4.704,-2.787 1.056,0 0,3.75 -1.056,0 0,-0.344 c -0.261,0.306 -0.659,0.474 -1.049,0.474 -1.079,0 -1.714,-0.987 -1.714,-1.982 0,-1.017 0.627,-2.02 1.729,-2.02 0.391,0 0.789,0.168 1.018,0.467 l 0.016,-0.345 z m 0.107,1.883 c 0,-0.505 -0.345,-1.056 -0.896,-1.056 -0.551,0 -0.888,0.551 -0.888,1.056 0,0.505 0.337,1.048 0.888,1.048 0.551,0 0.896,-0.543 0.896,-1.048 m -3.427,-1.883 -2.311,3.108 2.189,2.663 -1.386,0 -1.783,-2.434 -0.015,2.434 -1.125,0 0,-5.771 1.125,0 0,2.595 1.86,-2.595 1.446,0 z m 73.186,-9.897 -1.625,0 0,-8.335 3.924,0 0,1.415 -2.299,0 0,6.92 z m 3.048,-5.671 c 0,-1.647 1.028,-2.841 2.708,-2.841 1.139,0 2.089,0.608 2.465,1.691 l -1.426,0.233 c -0.21,-0.431 -0.531,-0.741 -1.039,-0.741 -0.807,0 -1.072,0.774 -1.072,1.459 l 3.57,0 0,0.188 c 0,1.636 -0.796,2.952 -2.576,2.952 -1.757,0 -2.63,-1.294 -2.63,-2.941 m 1.68,0.763 c 0.077,0.563 0.42,1.094 1.039,1.094 0.597,0 0.951,-0.541 1.028,-1.094 l -2.067,0 z m 6.452,5.947 -1.547,0 0,-9.374 1.547,0 0,0.508 c 0.332,-0.442 0.917,-0.685 1.47,-0.685 1.603,0 2.51,1.437 2.51,2.918 0,1.426 -0.94,2.864 -2.476,2.864 -0.575,0 -1.151,-0.255 -1.504,-0.675 l 0,4.444 z m -0.155,-6.655 c 0,0.73 0.487,1.515 1.283,1.515 0.795,0 1.282,-0.785 1.282,-1.515 0,-0.729 -0.487,-1.525 -1.282,-1.525 -0.796,0 -1.283,0.796 -1.283,1.525 m 5.126,-0.055 c 0,-1.647 1.028,-2.841 2.708,-2.841 1.139,0 2.09,0.608 2.465,1.691 l -1.426,0.233 c -0.21,-0.431 -0.531,-0.741 -1.039,-0.741 -0.807,0 -1.072,0.774 -1.072,1.459 l 3.57,0 0,0.188 c 0,1.636 -0.795,2.952 -2.575,2.952 -1.758,0 -2.631,-1.294 -2.631,-2.941 m 1.68,0.763 c 0.077,0.563 0.42,1.094 1.039,1.094 0.597,0 0.951,-0.541 1.028,-1.094 l -2.067,0 z m 6.452,1.99 -1.547,0 0,-5.417 1.547,0 0,2.679 c 0,0.659 0.011,1.687 0.929,1.687 0.873,0 0.84,-0.84 0.84,-1.492 l 0,-2.874 1.548,0 0,3.316 c 0,1.261 -0.421,2.289 -1.88,2.289 -0.552,0 -1.094,-0.188 -1.415,-0.675 l -0.022,0.487 z m 19.733,2.288 c 0,-0.509 0.408,-0.918 0.917,-0.918 0.508,0 0.917,0.409 0.917,0.918 0,0.497 -0.409,0.917 -0.917,0.917 -0.509,0 -0.917,-0.42 -0.917,-0.917 m 1.691,-2.288 -1.547,0 0,-5.417 1.547,0 0,5.417 z m 2.019,0 -0.53,0 0,-1.305 0.53,0 0,-4.112 1.548,0 0,4.112 0.951,0 0,1.305 -0.951,0 0,1.835 -1.548,0 0,-1.835 z m 6.802,-2.753 c 0,-1.647 1.028,-2.841 2.709,-2.841 1.138,0 2.089,0.608 2.465,1.691 l -1.426,0.233 c -0.21,-0.431 -0.531,-0.741 -1.039,-0.741 -0.807,0 -1.073,0.774 -1.073,1.459 l 3.571,0 0,0.188 c 0,1.636 -0.796,2.952 -2.576,2.952 -1.757,0 -2.631,-1.294 -2.631,-2.941 m 1.681,0.763 c 0.077,0.563 0.42,1.094 1.039,1.094 0.597,0 0.95,-0.541 1.028,-1.094 l -2.067,0 z m 6.452,5.947 -1.547,0 0,-9.374 1.547,0 0,9.374 z"
         style="fill:#ffffff;fill-opacity:1;fill-rule:nonzero;stroke:none"
         id="path4428"
         inkscape:connector-curvature="0" />
    </g>
  </g>
</svg>
