<?xml version="1.0" encoding="UTF-8" standalone="no"?>
<!-- Created with Inkscape (http://www.inkscape.org/) -->

<svg
   xmlns:dc="http://purl.org/dc/elements/1.1/"
   xmlns:cc="http://creativecommons.org/ns#"
   xmlns:rdf="http://www.w3.org/1999/02/22-rdf-syntax-ns#"
   xmlns:svg="http://www.w3.org/2000/svg"
   xmlns="http://www.w3.org/2000/svg"
   xmlns:sodipodi="http://sodipodi.sourceforge.net/DTD/sodipodi-0.dtd"
   xmlns:inkscape="http://www.inkscape.org/namespaces/inkscape"
   width="84.666656mm"
   height="71.226143mm"
   viewBox="0 0 299.99996 252.3761"
   id="svg2"
   version="1.1"
   inkscape:version="0.91 r13725"
   sodipodi:docname="Kaufland 2016.svg">
  <defs
     id="defs4">
    <style
       id="style3339">.cls-1{fill:#e10915;}</style>
    <style
       id="style3361">.cls-1{fill:#e10915;}</style>
    <style
       id="style3381">.cls-1{fill:#e10915;}</style>
    <clipPath
       id="clipPath4216"
       clipPathUnits="userSpaceOnUse">
      <path
         inkscape:connector-curvature="0"
         id="path4218"
         d="m 21.26,658.744 807.874,0 0,588.473 -807.874,0 0,-588.473 z" />
    </clipPath>
    <clipPath
       id="clipPath4230"
       clipPathUnits="userSpaceOnUse">
      <path
         inkscape:connector-curvature="0"
         id="path4232"
         d="m 718.358,971.041 110.776,0 0,110.774 -110.776,0 0,-110.774 z" />
    </clipPath>
    <clipPath
       id="clipPath4268"
       clipPathUnits="userSpaceOnUse">
      <path
         inkscape:connector-curvature="0"
         id="path4270"
         d="m 718.358,492.41 110.776,0 0,110.775 -110.776,0 0,-110.775 z" />
    </clipPath>
    <clipPath
       id="clipPath4282"
       clipPathUnits="userSpaceOnUse">
      <path
         inkscape:connector-curvature="0"
         id="path4284"
         d="m 718.358,228.34 110.776,0 0,110.775 -110.776,0 0,-110.775 z" />
    </clipPath>
    <clipPath
       id="clipPath4308"
       clipPathUnits="userSpaceOnUse">
      <path
         inkscape:connector-curvature="0"
         id="path4310"
         d="m 718.358,360.374 110.776,0 0,110.777 -110.776,0 0,-110.777 z" />
    </clipPath>
    <clipPath
       id="clipPath4400"
       clipPathUnits="userSpaceOnUse">
      <path
         inkscape:connector-curvature="0"
         id="path4402"
         d="m 21.26,1044.964 201.968,0 0,201.969 -201.968,0 0,-201.969 z" />
    </clipPath>
    <clipPath
       id="clipPath4412"
       clipPathUnits="userSpaceOnUse">
      <path
         inkscape:connector-curvature="0"
         id="path4414"
         d="m 12.827,575.912 7.418,0 0,56.627 -7.418,0 0,-56.627 z" />
    </clipPath>
    <clipPath
       id="clipPath4400-4"
       clipPathUnits="userSpaceOnUse">
      <path
         inkscape:connector-curvature="0"
         id="path4402-0"
         d="m 21.26,1044.964 201.968,0 0,201.969 -201.968,0 0,-201.969 z" />
    </clipPath>
  </defs>
  <sodipodi:namedview
     id="base"
     pagecolor="#ffffff"
     bordercolor="#666666"
     borderopacity="1.0"
     inkscape:pageopacity="0.0"
     inkscape:pageshadow="2"
     inkscape:zoom="2.1317391"
     inkscape:cx="149.99998"
     inkscape:cy="126.18805"
     inkscape:document-units="px"
     inkscape:current-layer="layer1"
     showgrid="false"
     fit-margin-top="0"
     fit-margin-left="0"
     fit-margin-right="0"
     fit-margin-bottom="0"
     inkscape:window-width="1366"
     inkscape:window-height="705"
     inkscape:window-x="-8"
     inkscape:window-y="-8"
     inkscape:window-maximized="1" />
  <metadata
     id="metadata7">
    <rdf:RDF>
      <cc:Work
         rdf:about="">
        <dc:format>image/svg+xml</dc:format>
        <dc:type
           rdf:resource="http://purl.org/dc/dcmitype/StillImage" />
        <dc:title></dc:title>
      </cc:Work>
    </rdf:RDF>
  </metadata>
  <g
     inkscape:label="Layer 1"
     inkscape:groupmode="layer"
     id="layer1"
     transform="translate(-713.23654,339.99443)">
    <path
       d="m 789.72814,-183.90603 72.55983,0 0,-72.55983 -72.55983,0 0,72.55983 z m 83.47357,-72.61287 0,72.61287 72.61286,0 -72.61286,-72.61287 z m 0,-83.47356 0,72.59715 72.59911,-72.59715 -72.59911,0 z m -83.47357,72.55786 72.55983,0 0,-72.55983 -72.55983,0 0,72.55983 z"
       style="fill:#ed1d24;fill-opacity:1;fill-rule:nonzero;stroke:none"
       id="path4394"
       inkscape:connector-curvature="0" />
    <path
       inkscape:connector-curvature="0"
       id="path4406"
       style="fill:#ed1d24;fill-opacity:1;fill-rule:nonzero;stroke:none"
       d="m 1003.085,-100.0269 c -1.3535,1.730559 -3.91099,3.759696 -7.81998,3.759696 -5.41561,0 -9.24996,-3.908986 -9.24996,-9.625146 0,-5.7142 3.83435,-9.62513 9.24996,-9.62513 3.90899,0 6.46648,2.0311 7.81998,3.7597 l 0,11.73088 z m 0,-40.9815 0,21.58193 c -1.8052,-1.87986 -5.4903,-4.73793 -11.12985,-4.73793 -9.85104,0 -16.54346,8.12048 -16.54346,18.42331 0,10.300863 6.84367,18.122765 16.54346,18.122765 5.63955,0 9.32465,-2.783434 11.12985,-4.737928 l 0,3.985595 10.1515,0 0,-52.637742 -10.1515,0 z m -46.80181,16.844 c -5.71419,0 -9.39924,3.00735 -11.12784,4.96186 l 0,-4.2115 -10.22819,0 0,35.043382 10.22819,0 0,-23.009992 c 1.2768,-1.80519 3.68505,-3.98558 7.5194,-3.98558 4.28613,0 6.76706,2.78147 6.76706,7.36813 l 0,19.627442 10.30283,0 0,-21.656562 c 0,-8.27173 -4.73792,-14.13718 -13.46145,-14.13718 m -83.16124,35.793742 10.45212,0 0,-52.637742 -10.45212,0 0,52.637742 z M 861.0532,-133.2631 c 3.45916,0 5.49026,1.5027 5.49026,1.5027 l 1.65396,-7.81994 c 0,0 -2.78147,-2.18039 -9.39925,-2.18039 -8.57227,0 -13.91128,4.96186 -13.91128,14.21182 l 0,4.13488 -5.18775,0 0,8.42298 5.18775,0 0,26.620392 10.45212,0 0,-26.620392 11.88214,0 0,-8.42298 -11.88214,0 0,-3.23326 c 0,-4.43542 2.02914,-6.61581 5.71419,-6.61581 m -37.14126,32.86101 c -1.35342,1.7286 -3.7597,3.985598 -7.5194,3.985598 -4.2881,0 -6.84367,-2.783434 -6.84367,-7.370108 l 0,-19.62744 -10.30284,0 0,21.65854 c 0,8.271731 4.73793,14.137175 13.45949,14.137175 5.7908,0 9.40121,-3.00933 11.20642,-4.963824 l 0,4.211491 10.15158,0 0,-35.043382 -10.15158,0 0,23.01195 z m 93.42478,0.82698 c -1.43002,1.579309 -3.83631,3.307906 -7.44475,3.307906 -5.41366,0 -9.24996,-3.908986 -9.24996,-9.625146 0,-5.7142 3.8363,-9.62513 9.24996,-9.62513 3.60844,0 6.01473,1.73054 7.44475,3.30987 l 0,12.6325 z m 0,-20.15386 c -2.10575,-2.02914 -5.71616,-4.43543 -10.75462,-4.43543 -9.77444,0 -16.5415,8.12048 -16.5415,18.42331 0,10.151575 6.69242,18.122765 16.5415,18.122765 5.339,0 8.87477,-2.482894 10.75462,-4.362743 l 0,3.608446 10.15158,0 0,-35.041408 -10.15158,0 0,3.68506 z m -135.49844,20.15386 c -1.43003,1.579309 -3.83631,3.307906 -7.44476,3.307906 -5.41561,0 -9.24996,-3.908986 -9.24996,-9.625146 0,-5.7142 3.83435,-9.62513 9.24996,-9.62513 3.60845,0 6.01473,1.73056 7.44476,3.30987 l 0,12.6325 z m 0,-20.15386 c -2.10575,-2.02914 -5.71616,-4.43543 -10.75463,-4.43543 -9.77443,0 -16.5415,8.12048 -16.5415,18.42331 0,10.151575 6.69243,18.122765 16.5415,18.122765 5.33901,0 8.87478,-2.482894 10.75463,-4.362743 l 0,3.608446 10.15157,0 0,-35.041408 -10.15157,0 0,3.68506 z m -26.11361,-21.27943 -13.38484,0 -17.29579,24.1375 0,-24.1375 -11.8075,0 0,52.637742 11.8075,0 0,-23.687662 17.29579,23.687662 13.68538,0 -20.30316,-26.920932 20.00262,-25.71681 z" />
  </g>
</svg>
