<?xml version="1.0" encoding="utf-8"?>
<!-- Generator: Adobe Illustrator 25.2.0, SVG Export Plug-In . SVG Version: 6.00 Build 0)  -->
<svg version="1.1" id="レイヤー_1" xmlns="http://www.w3.org/2000/svg" xmlns:xlink="http://www.w3.org/1999/xlink" x="0px"
	 y="0px" width="566px" height="210px" viewBox="0 0 566 210" style="enable-background:new 0 0 566 210;" xml:space="preserve">
<style type="text/css">
	.st0{fill:#DE0028;}
	.st1{fill:#FF7B08;}
</style>
<path d="M308.2,68.5c-2.3,2.9-4.7,5.7-7.2,8.8c-0.5-0.9-1.1-1.6-1.4-2.4c-0.1-0.4,0.1-1.1,0.5-1.5c2.1-2.4,4-4.9,6.3-7
	s2.4-4.5,2.1-7.2c0,0-0.1-0.1-0.2-0.2c-2.5,0-5.2,0-8,0c0-1.1,0-2,0-3.1c2.7,0,5.4,0,8.3,0c0-2.9,0-5.7,0-8.6c1.1,0,2.1,0,3.2,0
	c0,4.3,0,8.6,0,13.2c1.1-1,1.9-1.8,2.7-2.5c2.6-2.2,5.6-3.7,9-4c6.8-0.6,12,3.7,12.8,10.5c1.1,9-4.3,16.3-13.1,18
	c-0.5,0.1-1.1,0.1-1.7,0.2c-2,0.2-2.2,0-2.8-1.9c-0.4-1.1,0.1-1.3,1-1.4c1.9-0.3,3.8-0.4,5.6-1.1c7.7-2.8,9.7-10.7,6.5-17
	c-1.9-3.8-5.6-5.3-10.1-4c-4.1,1.2-7.2,3.8-9.9,7.1c-0.3,0.4-0.4,1.1-0.4,1.7c-0.1,5.8-0.2,11.7-0.3,17.5c0,0.2,0,0.5-0.1,0.8
	c-0.8,0-1.6,0-2.5,0c0-5.2,0-10.5,0-15.7C308.5,68.6,308.3,68.6,308.2,68.5z"/>
<path d="M297.1,81c-4.1-3.2-7.1-7.3-9.9-11.7c0,5.2,0,10.4,0,15.8c-1,0-1.7,0-2.7,0c0-5.3,0-10.5,0-15.8c-0.1,0-0.2-0.1-0.3-0.1
	c-2.7,4.4-5.4,8.8-9.8,11.9c-0.3-0.4-0.5-0.7-0.7-1c-0.6-0.8-0.5-1.4,0.3-2.1c3.7-3.2,6.8-7,9-11.4c0.2-0.4,0.4-0.8,0.5-1.2
	c0-0.1,0-0.2,0.1-0.5c-3.1,0-6.2,0-9.4,0c0-0.9,0-1.6,0-2.4c3.4,0,6.7,0,10.1,0c0-2.3,0-4.4,0-6.7c-2.9,0-5.9,0-8.9,0
	c0-0.9,0-1.7,0-2.7c2.9,0,5.9,0,9,0c0-2.1,0-4.1,0-6.2c1.2,0,2.2,0,3.4,0c0,2,0,4,0,6.1c3.1,0,6.1,0,9.1,0c0,0.8,0,1.5,0,2.4
	c-3,0-6.1,0-9.2,0c0,2.3,0,4.6,0,6.9c3.3,0,6.6,0,10.1,0c0,0.9,0,1.6,0,2.5c-3.2,0-6.4,0-9.9,0c0.5,1,0.8,1.9,1.3,2.5
	c2.7,3.3,5.4,6.6,8.1,9.9C298.9,79,298.9,79.1,297.1,81z"/>
<path d="M507.3,47.1c1.1,0,2.1,0,3.3,0c0,0.5,0,1,0,1.4c0,7.6,0,15.2,0,22.8c0,6.4,3.6,9.2,9.8,7.8c3.7-0.9,6.6-3.1,8.6-6.2
	c1.7-2.7,3.1-5.6,4.7-8.6c1.7,0.2,2.7,1.7,1.7,3.5c-1.5,2.9-2.7,6-5,8.5c-3.2,3.6-7.1,5.9-12,6.4c-6.4,0.6-11.1-3.3-11.2-9.7
	c-0.2-8.4,0-16.9,0-25.3C507.2,47.5,507.2,47.4,507.3,47.1z"/>
<path d="M262.1,50c0,10.6,0,21.2,0,31.8c0.9,0,1.7,0,2.6,0c0-1.1,0-2.1,0-3.3c2.7,0,5.2,0,7.8,0c0-9.6,0-19,0-28.5
	C269,50,265.6,50,262.1,50z M269.5,75.5c-1.5,0-3,0-4.6,0c0-7.5,0-15,0-22.6c1.5,0,3,0,4.6,0C269.5,60.4,269.5,67.9,269.5,75.5z"/>
<path d="M398.7,49.7c-0.1,2.5-0.3,4.8-0.4,7.1c-0.2,4.4-0.4,8.8-0.3,13.1c0,1.8,0.4,3.7,1,5.4c0.8,2.6,2.3,3.1,4.3,1.3
	c1.9-1.6,3.6-3.4,5.4-5.3c0.4,0.8,0.9,1.5,1.1,2.4c0.1,0.5,0,1.3-0.4,1.6c-2.1,1.9-4.1,3.8-6.4,5.3c-1.9,1.3-4.2,0.7-5.6-1.2
	c-2-2.7-2.7-5.9-2.7-9.2c-0.1-6.5-0.2-13.1,0.6-19.6c0.1-0.7,0.3-1.1,1.1-1C397.1,49.7,397.8,49.7,398.7,49.7z"/>
<path d="M343.5,49.9c-0.3,3.9-0.6,7.7-0.9,11.4c-0.4,4.3-0.3,8.5,0.6,12.7c0.2,0.9,0.5,1.8,1,2.6c0.8,1.4,1.9,1.8,3.1,0.7
	c1.7-1.4,3.2-3,4.7-4.5c0.4-0.4,0.7-0.8,1.1-1.3c0.2,0.2,0.4,0.4,0.5,0.5c1.6,2,1.6,2.9-0.4,4.5c-1.7,1.4-3.5,2.8-5.3,4.1
	c-2.4,1.6-4.7,1-6.3-1.5c-1.5-2.4-2.1-5.1-2.2-7.8c-0.3-6.9-0.2-13.8,0.7-20.7c0-0.3,0.5-0.7,0.8-0.8
	C341.7,49.9,342.5,49.9,343.5,49.9z"/>
<path d="M432,49.5c1.3,0.1,2.3,0.2,3.4,0.3c-0.2,2.1-0.3,4.1-0.5,6.2c-0.4,4.9-1.1,9.8-0.3,14.8c0.3,1.8,0.7,3.6,1.4,5.3
	c0.6,1.6,1.9,2,3.2,0.8c1.7-1.4,3.1-3,4.6-4.5c0.4-0.4,0.7-0.8,1.1-1.3c1.9,2,1.9,3.3,0,5c-1.7,1.5-3.4,2.9-5.3,4.1
	c-2.1,1.4-4.4,1-5.9-1.1c-1.9-2.7-2.6-5.8-2.6-9c0-5.4,0.2-10.8,0.4-16.1C431.8,52.6,431.9,51.1,432,49.5z"/>
<path d="M544.6,69.6c-4.6,0.1-7.9,3.3-7.7,7.6c0.2,3.9,3.4,6.9,7.4,6.8c4.1-0.1,7.1-3.3,7-7.4C551.2,72.9,547.9,69.5,544.6,69.6z
	 M543.9,81.1c-2.4-0.1-4-2.1-3.9-4.5c0.2-2.4,2-3.9,4.5-3.8c2.3,0.1,4,1.9,3.9,4C548.3,79.2,546.2,81.2,543.9,81.1z"/>
<path d="M417,52.9c2.4-2,3.1-2,4.5,0.6c2.7,4.8,4.1,10.1,5.1,15.5c0.4,2.3,0.7,4.7,1,7.1c0,0.5-0.3,1.3-0.7,1.4
	c-0.8,0.3-1.8,0.3-2.7,0.3c-0.1,0-0.2-0.7-0.3-1.1c-0.4-3.6-0.7-7.2-1.3-10.8C421.9,61.2,419.9,56.8,417,52.9z"/>
<path d="M362,52.8c0.1-0.1,0.4-0.4,0.6-0.6c1.7-1.3,2.1-1.1,3.2,0.7c3.9,6.4,5.4,13.6,6.4,20.9c0.1,0.9,0.2,1.7,0.3,2.6
	c0.1,0.8-0.2,1.4-1.1,1.4c-0.7,0-1.3,0.2-2.2,0.3c-0.2-1.7-0.4-3.3-0.6-4.9c-0.5-4.6-1-9.1-2.9-13.4C364.6,57.5,363.3,55.3,362,52.8
	z"/>
<path d="M464.2,77.3c-1.2,0.2-2.3,0.3-3.6,0.4c0.2-9.1-2.2-17.4-6.9-25.3c0.4-0.3,1-0.7,1.5-1c0.7-0.4,1.2-0.3,1.7,0.5
	c4.9,7.3,6.3,15.6,7.2,24.1C464.2,76.4,464.2,76.8,464.2,77.3z"/>
<path d="M385.1,80.6c-0.9,0.8-1.8,1.4-2.7,2.2c-2.1-2.4-4.2-4.8-6.2-7.1c1.6-2.7,2-2.7,4-0.6C381.9,76.8,383.4,78.7,385.1,80.6z"/>
<path d="M494,68.8c3.1-0.3,6.2-0.2,9.2-0.3c0.4-2.3,0.3-2.4-1.7-2.4c-5.7,0-11.4,0-17.1,0c-0.5,0-1-0.1-1.6-0.2
	c0.9-1.4,1.7-2.4,3.4-2.3c3.8,0.1,7.7,0,11.6,0c0.4,0,0.8,0,1.3,0c0-3.5,0-6.9,0-10.4c-2,0-3.8,0-5.6,0c0-0.9,0-1.7,0-2.6
	c3.3,0,6.5,0,9.7,0c0-0.9,0-1.6,0-2.4c-3.3,0-6.5,0-9.6,0c-0.2-0.9-0.1-2-0.6-2.4c-0.5-0.4-1.6-0.1-2.4-0.1c0,0.8-0.1,1.6-0.1,2.4
	c-3.7,0-7.1,0-10.7,0c0-0.8-0.1-1.6-0.1-2.4c-0.9,0-1.7,0-2.5,0c0,0.9-0.1,1.7-0.1,2.6c-3.4,0-6.6,0-9.9,0c0,0.9,0,1.6,0,2.4
	c3.2,0,6.3,0,9.5,0c0,0.9,0,1.7,0,2.6c-2,0-3.9,0-5.9,0c0,3.5,0,6.9,0.2,10.6c0.5,0,1,0,1.4,0c2.4,0,4.9,0,7.3,0
	c0.3,0,0.6,0.2,0.9,0.3c-0.1,0.3-0.2,0.6-0.4,0.9c-0.6,0.7-1.4,1.1-2.4,1.1c-3.2,0-6.5,0-9.7,0c-0.4,0-0.8,0-1.3,0
	c0,0.8,0,1.5,0,2.4c2.9,0,5.8,0,8.7,0c0,0.1,0.1,0.2,0.1,0.3c-0.5,0.5-0.9,1-1.5,1.4c-2.1,1.3-4.2,2.6-6.4,3.7
	c-1.5,0.8-1.4,0.8-0.6,2.2c0.5,0.8,1,0.9,1.8,0.4s1.7-1,2.5-1.4c0.4-0.2,0.8-0.3,1.4-0.5c0,3.3,0,6.3,0,9.4c1.2,0.1,2.4,0.4,3-1
	c0.1-0.3,0.6-0.4,1-0.4c5.4,0,10.9,0,16.4,0c0.3,0,0.8,0.1,0.9,0.3c0.5,1.6,1.7,1,2.9,1c0.1-0.4,0.1-0.8,0.1-1.2c0-2.2,0-4.5,0-6.8
	c0-1.6,0.3-1.7,1.7-1.1c0.9,0.4,1.8,0.8,2.7,1.3c0.8,0.4,1.3,0.1,1.6-0.6c0.2-0.5,0.4-1,0.6-1.5C500.2,72.5,496.8,71.5,494,68.8z
	 M480.1,50.8c3.3,0,6.5,0,9.9,0c0,0.7,0,1.4,0,2.2c-3.3,0-6.6,0-9.9,0C480.1,52.3,480.1,51.6,480.1,50.8z M474.1,55.5
	c7.4,0,14.7,0,22.1,0c0,0.5,0,0.9,0,1.5c-7.3,0-14.6,0-22.1,0C474.1,56.5,474.1,56.1,474.1,55.5z M474.2,61.1c0-0.5,0-0.9,0-1.5
	c7.3,0,14.7,0,22.1,0c0,0.6,0,1,0,1.5C488.9,61.1,481.6,61.1,474.2,61.1z M481.8,68.7c2,0.1,4.1,0,6.2,0c1.4-0.1,2.4,0.6,3.4,1.8
	c-4.4,0-8.5,0-12.9,0C479.5,69.4,480.4,68.7,481.8,68.7z M475.8,73.3c5.9,0,11.8,0,17.8,0c0,0.6,0,1.1,0,1.7c-5.9,0-11.8,0-17.8,0
	C475.8,74.5,475.8,73.9,475.8,73.3z M493.7,79.9c-5.9,0-11.8,0-17.8,0c0-0.7,0-1.3,0-2c5.9,0,11.8,0,17.8,0
	C493.7,78.5,493.7,79.1,493.7,79.9z"/>
<path class="st0" d="M236.9,46.9c-0.6,0.2-0.8,0.3-1,0.3c-15.9,6.2-31,13.9-45.2,23.5c-20.9,14-39,31-54.4,50.8
	c-9.8,12.5-18.5,25.7-25.3,40.1c-1.1,2.5-1.6,5-1.4,7.7c0.1,2.9,1.2,5.6,2.5,8c2.9,5.3,6,10.6,9,15.8c0.2,0.3,0.5,0.6,0.8,0.9
	c0.2-0.4,0.3-0.6,0.4-0.8c3.2-8.6,6.9-16.9,11.2-25c11-21.1,25.1-39.9,42.6-56.2c14.7-13.7,31.1-25,48.7-34.7c1-0.6,2.2-1,3.3-1.5
	c3-1.3,5.7-3,7.7-5.6c0.8-1,1.5-2.4,1.5-3.7c0.1-4-0.1-8.1-0.1-12.1C236.8,52.2,236.9,49.6,236.9,46.9z"/>
<path class="st1" d="M198.9,30c-0.7,0.3-1.1,0.4-1.4,0.6c-3.2,1.7-6.5,3.3-9.7,5c-12.4,7-23.8,15.2-34.7,24.2
	c-15.2,12.5-29.1,26.3-41.1,42c-6.6,8.6-12.7,17.5-18.2,26.9c-0.6,1.1-1.2,2.2-1.4,3.4c-1.1,5.1-0.9,10.1,2.1,14.7
	c0.9,1.3,1.5,2.8,2.3,4.2c1.8,3.1,3.7,6.2,5.5,9.3c0.2-0.2,0.3-0.3,0.3-0.4c8.7-18,19.6-34.7,32.5-50c14.2-16.9,30.3-31.8,48.6-44.3
	c3.6-2.4,7.3-4.7,10.8-7.1c2.1-1.4,3.5-3.4,3.8-5.8c0.3-1.9,0.5-3.9,0.5-5.8C199,41.4,198.9,35.9,198.9,30z"/>
<path class="st1" d="M160.6,15.8c-0.5,0.3-0.8,0.4-1.1,0.6c-7.7,4.7-14.9,10-22,15.6c-10.8,8.6-20.9,17.9-30.5,27.8
	C96,71.3,85.7,83.4,77,96.7c-3.7,5.7-4.4,11.7-1.1,17.7c2.4,4.5,5,8.8,7.5,13.2c0.1,0.2,0.4,0.4,0.7,0.8c0.9-1.5,1.7-3,2.6-4.4
	c13-21.7,28.8-41.1,47.1-58.5c7.1-6.7,14.3-13.2,22.3-18.9c3.4-2.4,4.7-5.7,4.8-9.5c0.1-6.3-0.1-12.7-0.2-19
	C160.6,17.4,160.6,16.7,160.6,15.8z"/>
<path class="st0" d="M181.9,159.3c1.1,2.1,2.1,3.9,3.1,5.8c4.5,8.3,9,16.6,13.5,25c0.7,1.3,1.5,1.8,3,1.8c3.1-0.1,6.2-0.1,9.2-0.1
	c2.5,0,4.9,0,7.7,0c-0.4-0.8-0.6-1.2-0.9-1.6c-4.3-7.3-8.6-14.5-12.8-21.8c-0.9-1.5-0.9-1.6,0.8-2.3c5.2-2,8.6-5.7,9.9-11.2
	c0.8-3.3,0.8-6.6,0.3-9.9c-1.5-9.3-8.4-15.2-17.8-15.2c-11.6,0-23.2,0-34.8,0c-0.5,0-1,0-1.5,0c0,20.8,0,41.4,0,62
	c0.1,0.1,0.2,0.1,0.2,0.1c4.8,0,9.7,0.1,14.5,0c0.3,0,0.7-0.4,0.9-0.7c0.2-0.4,0.2-0.9,0.2-1.4c0.1-9.5,0.3-19,0.4-28.5
	c0.1-6,0.3-12.1,0.4-18.1c0-0.8,0.2-1.1,1.1-1.1c3.8,0,7.5-0.1,11.3,0c6.2,0.1,10.2,6.1,7.7,11.6c-1.7,3.7-4.9,5.4-8.8,5.5
	C187,159.4,184.6,159.3,181.9,159.3z"/>
<path class="st0" d="M352.5,191.2c-0.3-0.6-0.5-0.9-0.7-1.3c-6.5-9.9-13-19.8-19.6-29.7c-0.5-0.7-0.5-1.2,0-2
	c5.9-8.9,11.7-17.7,17.5-26.6c0.4-0.5,0.7-1.1,1.2-1.8c-0.7,0-1.1,0-1.6,0c-5,0.1-10,0.2-15,0.2c-2.4,0-4.1,1-5.3,2.9
	c-0.4,0.6-0.6,1.2-1,1.8c-4.8,7.4-9.6,14.8-14.4,22.2c-0.4,0.6-0.8,1.2-1.2,1.7c-0.1,0-0.3,0-0.4,0c-0.2-0.6-0.4-1.3-0.4-1.9
	c0-8.4,0-16.9,0-25.3c0-0.5,0-1,0-1.6c-5.4,0-10.6,0-15.8,0c0,20.5,0,40.9,0,61.3c5.4,0,10.7,0,16.1,0c0-0.6,0-1.1,0-1.6
	c0-9.3,0-18.5,0-27.8c0-0.6,0.2-1.2,0.2-1.7c0.6,0.4,0.8,0.7,1.1,1.1c6.2,9.7,12.5,19.4,18.7,29.1c0.5,0.8,1,1.1,1.9,1.1
	c5.8,0,11.5,0,17.3,0C351.4,191.3,351.8,191.3,352.5,191.2z"/>
<path class="st0" d="M270.2,129.6c-0.8,0-1.5,0-2.2,0c-7.6,0.1-15.2,0.1-22.8,0.3c-2.4,0.1-4.8,0.3-7.1,0.8c-8.6,2-14.6,7-16.7,15.9
	c-0.8,3.5-1.2,7.2-1.5,10.8c-0.7,7.4,0.8,14.6,3.1,21.7c1.5,4.7,4.8,7.9,9,10.1c3.6,1.9,7.6,2.6,11.6,2.6c7.7,0.1,15.3-0.1,23-0.1
	c1.3,0,2.7,0,4.1,0c0-4.6,0-8.9,0-13.4c-0.6,0-1,0-1.5,0c-6.8,0-13.7,0-20.5,0c-1.3,0-2.6-0.4-3.8-0.9c-3.9-1.6-6.3-4.6-7.2-8.7
	c-0.4-1.7-0.2-2,1.5-2c9,0,17.9,0,26.9,0c0.5,0,1,0,1.5,0c0-4.3,0-8.4,0-12.5c-1.3,0-2.5,0-3.7,0c-6.2,0.1-12.3,0.1-18.5,0.2
	c-1.5,0-2.8,0.6-3.9,1.6c-1,1-1.9,2.1-2.9,3.2c-0.3,0.3-0.6,0.7-1.1,1.3c-0.2-0.7-0.3-1.1-0.4-1.4c0-0.7,0-1.4,0-2.2
	c0.1-7.8,4.8-13.1,12.6-13.7c4-0.3,8-0.2,12-0.2c2.8,0,5.6,0,8.4,0C270.2,138.2,270.2,134,270.2,129.6z"/>
<path class="st0" d="M426.7,191.1c0.5,0,1,0,1.4,0c3.5,0,7,0,10.4,0c7,0,14,0.2,21-0.1c6.2-0.2,11.3-2.8,14.4-8.4
	c1.7-2.9,2.3-6.2,2.4-9.5c0.5-10.9-6.4-18.6-17.3-19.1c-4.3-0.2-8.6-0.2-12.9-0.3c-2.9,0-4.9-2-5.2-5.3c-0.3-2.9,1.3-5.1,4.1-5.7
	c0.7-0.1,1.5-0.2,2.3-0.2c7.2-0.1,14.3-0.1,21.5-0.1c1.4,0,2.8,0,4.1,0c0-4.5,0-8.6,0-12.9c-2,0-3.9,0-5.7,0c-9,0.1-18,0.1-27,0.2
	c-7.8,0.1-14.5,5-15.9,12.2c-0.7,3.3-0.5,6.8-0.4,10.1c0.1,2,0.7,4.1,1.9,5.9c2.7,3.9,6.2,6.6,10.9,7.5c2.9,0.6,5.9,0.7,8.9,0.8
	c2.6,0.1,5.3,0,7.9,0c3.3,0.1,5.5,2.4,5.5,5.8c0,3.3-1.8,5.2-5.2,5.4c-4,0.2-8,0.3-12,0.4c-4.6,0.1-9.1,0-13.7,0c-0.5,0-0.9,0-1.5,0
	C426.7,182.2,426.7,186.5,426.7,191.1z"/>
<path class="st0" d="M397.1,129.6c-0.6,0-1.1,0-1.6,0c-5.1,0-10.2,0-15.2,0c-5.2,0-10.4-0.1-15.5,0.9c-2.4,0.5-4.6,1.3-6.6,2.7
	c-5.9,4.2-9.9,9.5-10.5,17c-0.7,8.1-1,16.2,1,24.3c1.6,6.4,4.8,11.3,10.8,14.3c4,2,8.4,2.4,12.7,2.5c7.1,0.2,14.1,0,21.2-0.1
	c1.3,0,2.7-0.1,4-0.2c0-4.5,0-8.8,0-13.1c-0.3,0-0.4-0.1-0.6-0.1c-4.9,0-9.8,0.1-14.6,0c-2.7,0-5.4-0.1-8-0.5
	c-5.1-0.8-8.4-4.1-9.2-9c-0.3-2-0.2-2.1,1.8-2.1c8.7,0,17.3,0,26,0c0.5,0,1,0,1.6,0c0-0.6,0.1-1,0.1-1.4c0-2.8,0-5.7,0-8.5
	c0-2.3,0-2.4-2.4-2.4c-6.5,0.1-12.9,0.2-19.4,0.2c-1.6,0-2.8,0.5-3.9,1.6c-0.9,0.9-1.8,2-2.6,2.9c-0.3,0.4-0.7,0.7-1,1.1
	c-0.2,0-0.3-0.1-0.5-0.1c0-1.4-0.1-2.9,0-4.3c0.4-4,1.8-7.4,5.1-9.9c2.6-2,5.7-2.6,8.9-2.6c5.7,0,11.4,0,17.1,0c0.5,0,0.9,0,1.4-0.1
	C397.1,138.2,397.1,134,397.1,129.6z"/>
<path class="st0" d="M529.6,128.9c-0.4,0-0.6-0.1-0.8-0.1c-8.3,0.1-16.6,0.1-24.9,0.3c-2,0-4,0.3-5.9,0.8
	c-7.8,1.9-13.6,6.2-16.2,14.1c-0.8,2.5-1,5.2-1.4,7.7c-1.3,7.6-0.9,15.2,1.3,22.6c1.2,4.1,2.7,8.1,6,11c4,3.5,8.9,5,14,5.1
	c8.9,0.2,17.7,0.1,26.6,0.1c0.4,0,0.8-0.1,1.2-0.1c0-4.5,0-8.8,0-13.2c-0.5,0-1,0-1.5,0c-6.1,0-12.2,0-18.4,0
	c-6.6,0-10.6-3.2-12.2-9.5c-0.4-1.8-0.1-2.2,1.7-2.2c8.7,0,17.4,0,26,0c0.5,0,1,0,1.5-0.1c0-4.2,0-8.2,0-12.2
	c-0.2,0-0.4-0.1-0.5-0.1c-6.2,0-12.3,0.3-18.5,0.1c-4-0.1-6.7,1.4-8.9,4.5c-0.3,0.5-0.8,0.9-1.3,1.5c-0.2-0.5-0.4-0.8-0.4-1.1
	c-0.2-3.1,0.1-6.2,1.6-9.1c1.7-3.2,4.1-5.7,7.7-6.5c1.7-0.4,3.6-0.5,5.3-0.5c4.9-0.1,9.8-0.1,14.7-0.2c1,0,2-0.1,3.1-0.2
	C529.6,137.5,529.6,133.3,529.6,128.9z"/>
<path class="st0" d="M61.8,178.7c-0.6,0-1,0-1.5,0c-6.4,0-12.7,0-19.1,0c-1.3,0-2.6-0.3-3.8-0.9c-4.5-2-6.3-5.7-6.3-10.6
	c0-10.2-0.1-20.4-0.1-30.7c0-1.9,0-3.8,0-5.7c-5.6,0-10.9,0-16.3,0c0,0.5,0,1,0,1.4c0.1,12.6,0.1,25.2,0.3,37.8
	c0,2.2,0.2,4.4,0.6,6.5c1,6.2,4,11,9.9,13.6c3.4,1.6,7,2.4,10.8,2.4c7.2,0,14.4-0.1,21.6-0.1c1.3,0,2.6,0,4,0
	C61.8,187.9,61.8,183.4,61.8,178.7z"/>
<path class="st0" d="M66.8,192.4c5.4,0,10.7,0,16,0c0-20.7,0-41.3,0-62c-5.4,0-10.7,0-16,0C66.8,151.1,66.8,171.7,66.8,192.4z"/>
<path class="st0" d="M418.9,191c0-20.6,0-41.1,0-61.5c-5.4,0-10.7,0-16,0c0,20.6,0,41,0,61.5C408.3,191,413.6,191,418.9,191z"/>
<path class="st0" d="M534.9,128.7c0,20.6,0,41.1,0,61.5c5.4,0,10.7,0,16,0c0-20.6,0-41,0-61.5C545.5,128.7,540.3,128.7,534.9,128.7z
	"/>
<path class="st0" d="M236.9,46.9c0,2.7,0,5.3,0,7.8c0,4,0.2,8.1,0.1,12.1c0,1.2-0.7,2.6-1.5,3.7c-1.9,2.6-4.7,4.3-7.7,5.6
	c-1.1,0.5-2.2,0.9-3.3,1.5c-17.6,9.6-34,21-48.7,34.7c-17.4,16.3-31.5,35.1-42.6,56.2c-4.2,8.1-8,16.4-11.2,25
	c-0.1,0.2-0.2,0.4-0.4,0.8c-0.3-0.4-0.6-0.6-0.8-0.9c-3-5.3-6.1-10.5-9-15.8c-1.4-2.5-2.4-5.2-2.5-8c-0.1-2.7,0.3-5.2,1.4-7.7
	c6.8-14.4,15.5-27.6,25.3-40.1C151.5,102,169.6,85,190.4,71c14.2-9.5,29.3-17.2,45.2-23.5C236,47.2,236.3,47.1,236.9,46.9z"/>
<path class="st1" d="M198.9,30c0,5.9,0,11.4,0,16.9c0,1.9-0.2,3.9-0.5,5.8c-0.4,2.5-1.8,4.5-3.8,5.8c-3.6,2.4-7.3,4.6-10.8,7.1
	c-18.3,12.5-34.4,27.4-48.6,44.3c-12.9,15.3-23.8,31.9-32.5,50c0,0.1-0.1,0.2-0.3,0.4c-1.9-3.1-3.7-6.2-5.5-9.3
	c-0.8-1.4-1.5-2.8-2.3-4.2c-3-4.6-3.2-9.6-2.1-14.7c0.3-1.2,0.8-2.3,1.4-3.4c5.5-9.3,11.6-18.3,18.2-26.9c12-15.6,25.9-29.4,41.1-42
	c10.9-9,22.4-17.3,34.7-24.2c3.2-1.8,6.4-3.4,9.7-5C197.8,30.4,198.2,30.3,198.9,30z"/>
<path class="st1" d="M160.6,15.8c0,0.9,0,1.6,0,2.3c0.1,6.3,0.3,12.7,0.2,19c-0.1,3.8-1.4,7.1-4.8,9.5c-7.9,5.7-15.2,12.2-22.3,18.9
	c-18.3,17.4-34.1,36.8-47.1,58.5c-0.8,1.4-1.7,2.8-2.6,4.4c-0.3-0.3-0.6-0.5-0.7-0.8c-2.5-4.4-5.2-8.7-7.5-13.2
	c-3.3-6.1-2.6-12.1,1.1-17.7c8.8-13.3,19-25.5,30-36.9c9.6-9.9,19.7-19.3,30.5-27.8c7-5.6,14.3-10.9,22-15.6
	C159.7,16.2,160,16.1,160.6,15.8z"/>
<path class="st0" d="M181.9,159.3c2.7,0,5.1,0.1,7.5,0c4-0.2,7.1-1.8,8.8-5.5c2.5-5.5-1.5-11.4-7.7-11.6c-3.8-0.1-7.5,0-11.3,0
	c-0.9,0-1.1,0.3-1.1,1.1c-0.1,6-0.3,12.1-0.4,18.1c-0.2,9.5-0.3,19-0.4,28.5c0,0.5,0,1-0.2,1.4c-0.1,0.3-0.6,0.7-0.9,0.7
	c-4.8,0-9.7,0-14.5,0c0,0-0.1,0-0.2-0.1c0-20.6,0-41.2,0-62c0.5,0,1,0,1.5,0c11.6,0,23.2,0,34.8,0c9.4,0,16.3,5.9,17.8,15.2
	c0.5,3.3,0.5,6.6-0.3,9.9c-1.3,5.4-4.7,9.2-9.9,11.2c-1.7,0.6-1.7,0.7-0.8,2.3c4.3,7.3,8.6,14.5,12.8,21.8c0.2,0.4,0.5,0.8,0.9,1.6
	c-2.7,0-5.2,0-7.7,0c-3.1,0-6.2,0-9.2,0.1c-1.5,0.1-2.3-0.5-3-1.8c-4.5-8.3-9-16.6-13.5-25C184.1,163.2,183.1,161.4,181.9,159.3z"/>
<path class="st0" d="M352.5,191.2c-0.6,0-1.1,0.1-1.5,0.1c-5.8,0-11.5,0-17.3,0c-0.9,0-1.4-0.3-1.9-1.1
	c-6.2-9.7-12.4-19.4-18.7-29.1c-0.2-0.4-0.5-0.7-1.1-1.1c-0.1,0.6-0.2,1.2-0.2,1.7c0,9.3,0,18.5,0,27.8c0,0.5,0,1,0,1.6
	c-5.4,0-10.7,0-16.1,0c0-20.4,0-40.8,0-61.3c5.3,0,10.5,0,15.8,0c0,0.6,0,1.1,0,1.6c0,8.4,0,16.9,0,25.3c0,0.6,0.3,1.3,0.4,1.9
	c0.1,0,0.3,0,0.4,0c0.4-0.6,0.8-1.1,1.2-1.7c4.8-7.4,9.6-14.8,14.4-22.2c0.4-0.6,0.7-1.2,1-1.8c1.2-1.9,2.9-2.9,5.3-2.9
	c5,0,10-0.1,15-0.2c0.4,0,0.9,0,1.6,0c-0.5,0.7-0.8,1.3-1.2,1.8c-5.8,8.9-11.7,17.7-17.5,26.6c-0.5,0.8-0.5,1.3,0,2
	c6.6,9.9,13.1,19.8,19.6,29.7C352,190.3,352.2,190.7,352.5,191.2z"/>
<path class="st0" d="M270.2,129.6c0,4.4,0,8.7,0,13.2c-2.9,0-5.6,0-8.4,0c-4,0-8-0.1-12,0.2c-7.8,0.6-12.5,5.9-12.6,13.7
	c0,0.7,0,1.4,0,2.2c0,0.4,0.2,0.8,0.4,1.4c0.5-0.6,0.8-1,1.1-1.3c1-1.1,1.9-2.2,2.9-3.2c1.1-1,2.3-1.6,3.9-1.6
	c6.2,0,12.3-0.1,18.5-0.2c1.2,0,2.4,0,3.7,0c0,4.1,0,8.2,0,12.5c-0.5,0-1,0-1.5,0c-9,0-17.9,0-26.9,0c-1.7,0-1.9,0.3-1.5,2
	c0.9,4.2,3.3,7.1,7.2,8.7c1.2,0.5,2.5,0.8,3.8,0.9c6.8,0.1,13.7,0,20.5,0c0.5,0,0.9,0,1.5,0c0,4.5,0,8.8,0,13.4c-1.4,0-2.7,0-4.1,0
	c-7.7,0-15.3,0.2-23,0.1c-4,0-8-0.8-11.6-2.6c-4.2-2.2-7.5-5.5-9-10.1c-2.2-7-3.7-14.2-3.1-21.7c0.3-3.6,0.7-7.2,1.5-10.8
	c2-8.9,8-13.9,16.7-15.9c2.3-0.5,4.7-0.8,7.1-0.8c7.6-0.2,15.2-0.2,22.8-0.3C268.7,129.6,269.4,129.6,270.2,129.6z"/>
<path class="st0" d="M426.7,191.1c0-4.5,0-8.8,0-13.3c0.5,0,1,0,1.5,0c4.6,0,9.1,0,13.7,0c4-0.1,8-0.2,12-0.4
	c3.5-0.2,5.3-2.1,5.2-5.4c0-3.4-2.2-5.8-5.5-5.8c-2.6,0-5.3,0.1-7.9,0c-3-0.1-6-0.3-8.9-0.8c-4.6-0.9-8.2-3.6-10.9-7.5
	c-1.2-1.8-1.8-3.8-1.9-5.9c-0.1-3.4-0.3-6.9,0.4-10.1c1.5-7.2,8.2-12.1,15.9-12.2c9-0.1,18-0.1,27-0.2c1.9,0,3.7,0,5.7,0
	c0,4.2,0,8.4,0,12.9c-1.4,0-2.8,0-4.1,0c-7.2,0-14.3,0.1-21.5,0.1c-0.8,0-1.5,0.1-2.3,0.2c-2.8,0.5-4.5,2.8-4.1,5.7
	c0.4,3.3,2.3,5.2,5.2,5.3c4.3,0.1,8.6,0.1,12.9,0.3c10.9,0.6,17.8,8.2,17.3,19.1c-0.1,3.4-0.8,6.6-2.4,9.5
	c-3.2,5.6-8.2,8.2-14.4,8.4c-7,0.3-14,0.1-21,0.1c-3.5,0-7,0-10.4,0C427.7,191.1,427.2,191.1,426.7,191.1z"/>
<path class="st0" d="M397.1,129.6c0,4.4,0,8.6,0,13c-0.5,0-1,0.1-1.4,0.1c-5.7,0-11.4,0-17.1,0c-3.2,0-6.3,0.6-8.9,2.6
	c-3.3,2.5-4.7,6-5.1,9.9c-0.1,1.4,0,2.9,0,4.3c0.2,0,0.3,0.1,0.5,0.1c0.3-0.4,0.7-0.7,1-1.1c0.9-1,1.7-2,2.6-2.9
	c1-1.1,2.3-1.6,3.9-1.6c6.5,0,12.9-0.1,19.4-0.2c2.4,0,2.4,0,2.4,2.4c0,2.8,0,5.7,0,8.5c0,0.4,0,0.9-0.1,1.4c-0.6,0-1.1,0-1.6,0
	c-8.7,0-17.3,0-26,0c-2,0-2.1,0.2-1.8,2.1c0.8,4.9,4.1,8.3,9.2,9c2.6,0.4,5.3,0.4,8,0.5c4.9,0.1,9.8,0,14.6,0c0.2,0,0.3,0,0.6,0.1
	c0,4.3,0,8.7,0,13.1c-1.3,0.1-2.6,0.2-4,0.2c-7.1,0.1-14.2,0.3-21.2,0.1c-4.3-0.1-8.7-0.5-12.7-2.5c-6-3-9.2-7.9-10.8-14.3
	c-2-8.1-1.7-16.1-1-24.3c0.7-7.5,4.7-12.8,10.5-17c2-1.4,4.2-2.2,6.6-2.7c5.1-1,10.3-0.9,15.5-0.9c5.1,0,10.2,0,15.2,0
	C396.1,129.6,396.5,129.6,397.1,129.6z"/>
<path class="st0" d="M529.6,128.9c0,4.3,0,8.5,0,12.9c-1,0.1-2,0.2-3.1,0.2c-4.9,0.1-9.8,0.1-14.7,0.2c-1.8,0-3.6,0.1-5.3,0.5
	c-3.6,0.8-6,3.3-7.7,6.5c-1.6,2.8-1.8,5.9-1.6,9.1c0,0.3,0.2,0.6,0.4,1.1c0.5-0.6,1-1,1.3-1.5c2.2-3,4.9-4.6,8.9-4.5
	c6.1,0.2,12.3,0,18.5-0.1c0.1,0,0.2,0,0.5,0.1c0,4,0,8,0,12.2c-0.5,0-1,0.1-1.5,0.1c-8.7,0-17.4,0-26,0c-1.8,0-2.1,0.4-1.7,2.2
	c1.6,6.3,5.7,9.5,12.2,9.5c6.1,0,12.2,0,18.4,0c0.5,0,0.9,0,1.5,0c0,4.4,0,8.7,0,13.2c-0.4,0-0.8,0.1-1.2,0.1
	c-8.9,0-17.8,0.2-26.6-0.1c-5.1-0.1-10.1-1.6-14-5.1c-3.3-2.9-4.8-6.9-6-11c-2.2-7.4-2.6-15-1.3-22.6c0.4-2.6,0.6-5.3,1.4-7.7
	c2.6-7.9,8.4-12.2,16.2-14.1c1.9-0.5,3.9-0.7,5.9-0.8c8.3-0.2,16.6-0.2,24.9-0.3C529,128.9,529.2,128.9,529.6,128.9z"/>
<path class="st0" d="M61.8,178.7c0,4.7,0,9.2,0,13.9c-1.4,0-2.7,0-4,0c-7.2,0-14.4,0.1-21.6,0.1c-3.8,0-7.4-0.9-10.8-2.4
	c-5.9-2.7-8.8-7.5-9.9-13.6c-0.4-2.2-0.5-4.4-0.6-6.5c-0.1-12.6-0.2-25.2-0.3-37.8c0-0.4,0-0.9,0-1.4c5.4,0,10.7,0,16.3,0
	c0,1.9,0,3.8,0,5.7c0,10.2,0.1,20.4,0.1,30.7c0,4.9,1.8,8.5,6.3,10.6c1.2,0.5,2.5,0.8,3.8,0.9c6.4,0.1,12.7,0,19.1,0
	C60.7,178.7,61.2,178.7,61.8,178.7z"/>
<path class="st0" d="M66.8,192.4c0-20.7,0-41.3,0-62c5.3,0,10.6,0,16,0c0,20.6,0,41.3,0,62C77.5,192.4,72.3,192.4,66.8,192.4z"/>
<path class="st0" d="M418.9,191c-5.4,0-10.6,0-16,0c0-20.5,0-41,0-61.5c5.3,0,10.6,0,16,0C418.9,149.9,418.9,170.4,418.9,191z"/>
<path class="st0" d="M534.9,128.7c5.4,0,10.6,0,16,0c0,20.5,0,41,0,61.5c-5.3,0-10.6,0-16,0C534.9,169.8,534.9,149.3,534.9,128.7z"
	/>
</svg>
