<?xml version="1.0" encoding="UTF-8" standalone="no"?>
<svg
   xmlns:dc="http://purl.org/dc/elements/1.1/"
   xmlns:cc="http://creativecommons.org/ns#"
   xmlns:rdf="http://www.w3.org/1999/02/22-rdf-syntax-ns#"
   xmlns:svg="http://www.w3.org/2000/svg"
   xmlns="http://www.w3.org/2000/svg"
   xmlns:sodipodi="http://sodipodi.sourceforge.net/DTD/sodipodi-0.dtd"
   xmlns:inkscape="http://www.inkscape.org/namespaces/inkscape"
   inkscape:version="1.0 (4035a4fb49, 2020-05-01)"
   sodipodi:docname="Kesko logo.svg"
   viewBox="0 0 414.75867 463.17065"
   height="463.17065"
   width="414.75867"
   xml:space="preserve"
   id="svg10"
   version="1.1"><metadata
     id="metadata16"><rdf:RDF><cc:Work
         rdf:about=""><dc:format>image/svg+xml</dc:format><dc:type
           rdf:resource="http://purl.org/dc/dcmitype/StillImage" /><dc:title></dc:title></cc:Work></rdf:RDF></metadata><defs
     id="defs14"><clipPath
       id="clipPath26"
       clipPathUnits="userSpaceOnUse"><path
         id="path24"
         d="M 0,600 H 600 V 0 H 0 Z" /></clipPath></defs><sodipodi:namedview
     inkscape:current-layer="g18"
     inkscape:window-maximized="0"
     inkscape:window-y="314"
     inkscape:window-x="575"
     inkscape:cy="231.58505"
     inkscape:cx="207.3796"
     inkscape:zoom="1.26"
     fit-margin-bottom="0"
     fit-margin-right="0"
     fit-margin-left="0"
     fit-margin-top="0"
     showgrid="false"
     id="namedview12"
     inkscape:window-height="1025"
     inkscape:window-width="1241"
     inkscape:pageshadow="2"
     inkscape:pageopacity="0"
     guidetolerance="10"
     gridtolerance="10"
     objecttolerance="10"
     borderopacity="1"
     bordercolor="#666666"
     pagecolor="#ffffff" /><g
     transform="matrix(1.3333333,0,0,-1.3333333,-192.6204,631.58505)"
     inkscape:label="K-logo vektori (AI)"
     inkscape:groupmode="layer"
     id="g18"><g
       id="g20"><g
         clip-path="url(#clipPath26)"
         id="g22"><g
           transform="translate(144.4653,442.2878)"
           id="g28"><path
             id="path30"
             style="fill:#ed6b00;fill-opacity:1;fill-rule:nonzero;stroke:none"
             d="m 0,0 c 0,-4.907 3.437,-8.342 8.34,-8.342 h 294.388 c 4.907,0 8.341,3.435 8.341,8.342 v 23.06 c 0,4.905 -3.434,8.341 -8.341,8.341 H 8.34 C 3.437,31.401 0,27.965 0,23.06 Z m 0,-307.637 c 0,-4.904 3.437,-8.34 8.34,-8.34 h 294.388 c 4.907,0 8.341,3.436 8.341,8.34 v 23.062 c 0,4.907 -3.434,8.341 -8.341,8.341 H 8.34 c -4.903,0 -8.34,-3.434 -8.34,-8.341 z m 254.152,64.279 c 5.89,0 9.326,5.885 4.911,12.266 l -71.145,93.711 69.671,83.9 c 4.905,6.379 0.982,12.266 -4.907,12.266 h -54.95 c -6.873,0 -10.796,-2.944 -14.229,-7.85 l -64.767,-83.409 v 82.919 c 0,4.905 -3.437,8.34 -8.341,8.34 H 60.349 c -4.907,0 -8.34,-3.435 -8.34,-8.34 v -185.463 c 0,-4.911 3.433,-8.34 8.34,-8.34 h 50.046 c 4.904,0 8.341,3.429 8.341,8.34 v 91.256 l 64.767,-91.749 c 3.433,-4.907 7.356,-7.847 14.229,-7.847 z" /></g></g></g></g></svg>
