<?xml version="1.0" encoding="UTF-8" standalone="no"?>
<!-- Created with Inkscape (http://www.inkscape.org/) -->

<svg
   xmlns:dc="http://purl.org/dc/elements/1.1/"
   xmlns:cc="http://creativecommons.org/ns#"
   xmlns:rdf="http://www.w3.org/1999/02/22-rdf-syntax-ns#"
   xmlns:svg="http://www.w3.org/2000/svg"
   xmlns="http://www.w3.org/2000/svg"
   xmlns:sodipodi="http://sodipodi.sourceforge.net/DTD/sodipodi-0.dtd"
   xmlns:inkscape="http://www.inkscape.org/namespaces/inkscape"
   width="550"
   height="115.81821"
   id="svg2"
   version="1.1"
   inkscape:version="0.47 r22583"
   sodipodi:docname="Novi dokument 1">
  <defs
     id="defs4">
    <clipPath
       id="clipPath2866"
       clipPathUnits="userSpaceOnUse">
      <path
         id="path2868"
         d="M 0,254.082 0,0 l 1206.59,0 0,254.082 -1206.59,0 z" />
    </clipPath>
  </defs>
  <sodipodi:namedview
     id="base"
     pagecolor="#ffffff"
     bordercolor="#666666"
     borderopacity="1.0"
     inkscape:pageopacity="0.0"
     inkscape:pageshadow="2"
     inkscape:zoom="1.68"
     inkscape:cx="275"
     inkscape:cy="57.909104"
     inkscape:document-units="px"
     inkscape:current-layer="layer1"
     showgrid="false"
     inkscape:window-width="1024"
     inkscape:window-height="749"
     inkscape:window-x="-4"
     inkscape:window-y="-4"
     inkscape:window-maximized="1" />
  <metadata
     id="metadata7">
    <rdf:RDF>
      <cc:Work
         rdf:about="">
        <dc:format>image/svg+xml</dc:format>
        <dc:type
           rdf:resource="http://purl.org/dc/dcmitype/StillImage" />
        <dc:title></dc:title>
        <cc:license
           rdf:resource="http://creativecommons.org/licenses/by-sa/3.0/" />
      </cc:Work>
      <cc:License
         rdf:about="http://creativecommons.org/licenses/by-sa/3.0/">
        <cc:permits
           rdf:resource="http://creativecommons.org/ns#Reproduction" />
        <cc:permits
           rdf:resource="http://creativecommons.org/ns#Distribution" />
        <cc:requires
           rdf:resource="http://creativecommons.org/ns#Notice" />
        <cc:requires
           rdf:resource="http://creativecommons.org/ns#Attribution" />
        <cc:permits
           rdf:resource="http://creativecommons.org/ns#DerivativeWorks" />
        <cc:requires
           rdf:resource="http://creativecommons.org/ns#ShareAlike" />
      </cc:License>
    </rdf:RDF>
  </metadata>
  <g
     inkscape:label="Layer 1"
     inkscape:groupmode="layer"
     id="layer1"
     transform="translate(-69.409445,-405.55544)">
    <g
       transform="matrix(4.5583007,0,0,-4.5583007,69.409445,521.37366)"
       inkscape:label="ink_ext_XXXXXX"
       id="g2858">
      <g
         transform="scale(0.1,0.1)"
         id="g2860">
        <g
           id="g2862">
          <g
             clip-path="url(#clipPath2866)"
             id="g2864">
            <path
               id="path2870"
               style="fill:#da1e25;fill-opacity:1;fill-rule:nonzero;stroke:none"
               d="m 290.574,219.297 c -60.347,0 -109.297,-48.945 -109.297,-109.297 0,-60.3516 48.95,-109.277344 109.297,-109.277344 60.356,0 109.297,48.925744 109.297,109.277344 0,60.352 -48.941,109.297 -109.297,109.297 z m 0,-161.9532 c -29.097,0 -52.676,23.5546 -52.676,52.6562 0,29.082 23.579,52.695 52.676,52.695 29.082,0 52.696,-23.613 52.696,-52.695 0,-29.1016 -23.614,-52.6562 -52.696,-52.6562" />
            <path
               id="path2872"
               style="fill:#da1e25;fill-opacity:1;fill-rule:nonzero;stroke:none"
               d="m 974.734,212.422 -57.168,0 0,-125.3907 c 0,-18.5547 -9.468,-34.5704 -31.265,-34.5704 -20.024,0 -31.914,16.1329 -31.914,32.1289 l 0,127.8322 -56.543,0 c -2.309,0 -4.321,-2.012 -4.321,-4.336 l 0,-117.6954 C 793.523,37.5977 831.262,0 886.301,0 c 62.832,0 92.754,44.4531 92.754,90.9961 l 0,117.0899 c 0,2.324 -2.012,4.336 -4.321,4.336" />
            <path
               id="path2874"
               style="fill:#da1e25;fill-opacity:1;fill-rule:nonzero;stroke:none"
               d="m 774.949,194.57 c 0.586,1.368 1.328,3.496 1.328,5.957 0,1.856 -0.039,11.895 -0.039,11.895 l -155.508,0 c -2.3,0 -4.335,-2.012 -4.335,-4.336 l 0,-46.309 72.699,0 -70.41,-139.7457 c -0.215,-0.3711 -0.571,-1.0157 -0.942,-1.8555 -0.586,-1.3672 -1.148,-3.2617 -1.148,-5.332 0,-1.9922 -0.117,-12.12896 -0.117,-12.12896 l 159.722,0 0,46.81646 c 0,2.2851 -2.027,4.3164 -4.336,4.3164 l -70.015,0 c 0,0 72.715,139.8633 73.101,140.7223" />
            <path
               id="path2876"
               style="fill:#da1e25;fill-opacity:1;fill-rule:nonzero;stroke:none"
               d="m 1198.84,212.422 c -7.81,0 -10.84,-1.602 -13.36,-3.594 -0.06,-0.058 -0.12,-0.098 -0.18,-0.156 l -80.31,-79.531 c 0,0 -80.29,79.531 -80.31,79.531 -0.06,0.058 -0.12,0.098 -0.18,0.156 -2.52,1.992 -5.53,3.594 -13.36,3.594 -5.02,0 -7.75,0 -7.75,0 l 0,-209.68762 55.55,0 0,100.97662 46.91,-48.9258 45.66,46.9918 0.16,-99.04262 54.92,0 0,209.68762 c 0,0 -2.71,0 -7.75,0" />
            <path
               id="path2878"
               style="fill:#da1e25;fill-opacity:1;fill-rule:nonzero;stroke:none"
               d="m 587.41,212.422 -55.074,0.039 0,-90.664 c 0,0 -94.531,87.012 -94.594,87.031 -2.5,1.953 -5.547,3.516 -13.222,3.516 -3.082,0 -7.735,0 -7.735,0 l 0,-209.59009 57.817,-0.01953 -0.082,92.96872 100,-93.18357 17.226,0.03906 0,205.52741 c 0,2.324 -2.027,4.336 -4.336,4.336" />
            <path
               id="path2880"
               style="fill:#da1e25;fill-opacity:1;fill-rule:nonzero;stroke:none"
               d="m 160.605,160.84 -41.726,41.699 -60.6563,-56.23 0,66.132 -53.87895,0 C 2.04297,212.441 0,210.43 0,208.125 L 0,2.12891 l 58.2227,0 0,66.54299 66.3943,-65.8594 77.727,0.01953 -99.461,99.78497 57.722,58.223" />
            <path
               id="path2882"
               style="fill:#68c030;fill-opacity:1;fill-rule:nonzero;stroke:none"
               d="m 170.438,254.082 -41.7,-41.719 41.723,-41.718 41.695,41.718 -41.718,41.719" />
          </g>
        </g>
      </g>
    </g>
  </g>
</svg>
