<?xml version="1.0" encoding="UTF-8" standalone="no"?>
<svg
   xmlns:dc="http://purl.org/dc/elements/1.1/"
   xmlns:cc="http://creativecommons.org/ns#"
   xmlns:rdf="http://www.w3.org/1999/02/22-rdf-syntax-ns#"
   xmlns:svg="http://www.w3.org/2000/svg"
   xmlns="http://www.w3.org/2000/svg"
   xmlns:sodipodi="http://sodipodi.sourceforge.net/DTD/sodipodi-0.dtd"
   xmlns:inkscape="http://www.inkscape.org/namespaces/inkscape"
   id="svgRoot"
   viewBox="0 0 200 100"
   xml:space="preserve"
   sodipodi:version="0.32"
   inkscape:version="0.46"
   width="255.99997"
   height="38.906124"
   sodipodi:docname="Lawson.svg"
   inkscape:output_extension="org.inkscape.output.svg.inkscape"
   version="1.0"><metadata
   id="metadata72"><rdf:RDF><cc:Work
       rdf:about=""><dc:format>image/svg+xml</dc:format><dc:type
         rdf:resource="http://purl.org/dc/dcmitype/StillImage" /></cc:Work></rdf:RDF></metadata><sodipodi:namedview
   inkscape:window-height="712"
   inkscape:window-width="1024"
   inkscape:pageshadow="2"
   inkscape:pageopacity="0.0"
   guidetolerance="10.0"
   gridtolerance="10.0"
   objecttolerance="10.0"
   borderopacity="1.0"
   bordercolor="#666666"
   pagecolor="#ffffff"
   id="base"
   showgrid="false"
   inkscape:zoom="3.6250004"
   inkscape:cx="127.99998"
   inkscape:cy="19.453062"
   inkscape:window-x="-4"
   inkscape:window-y="-4"
   inkscape:current-layer="svgRoot" />
<defs
   id="defs3"><inkscape:perspective
   sodipodi:type="inkscape:persp3d"
   inkscape:vp_x="0 : 526.18109 : 1"
   inkscape:vp_y="0 : 1000 : 0"
   inkscape:vp_z="744.09448 : 526.18109 : 1"
   inkscape:persp3d-origin="372.04724 : 350.78739 : 1"
   id="perspective74" />
</defs>
<g
   transform="matrix(3.8687716,0,0,-3.8687716,-243.54243,282.15724)"
   id="g7">
<g
   id="q1"
   class="">
<clipPath
   id="clp1"
   clip-rule="nonzero">
<path
   d="M 3.7587,47.088 L 173.84,47.088 L 173.84,72.932 L 3.7587,72.932 L 3.7587,47.088 z"
   id="path11" />
</clipPath>
<g
   clip-path="url(#clp1)"
   id="g13">
<g
   id="q2"
   class="ps00"
   style="fill:none;stroke:none">
<g
   id="xfrm3"
   transform="translate(157.36,800.223)">
<path
   d="M -60.02,-734.94 L -60.02,-731.92 C -59.995,-727.34 -58.307,-727.29 -55.163,-727.29 L -43.169,-727.29 C -40.335,-727.29 -39.143,-728.52 -39.143,-731.92 C -39.143,-731.92 -39.143,-734.89 -39.143,-735.34 C -39.143,-735.8 -39.217,-736.11 -39.827,-736.11 L -41.956,-736.11 C -42.51,-736.11 -42.991,-736.11 -42.991,-735.5 L -42.991,-733.27 C -42.991,-732.51 -42.766,-732.26 -43.831,-732.26 L -55.163,-732.26 C -55.926,-732.26 -56.171,-732.61 -56.171,-733.06 L -56.171,-736.92 C -56.171,-737.78 -55.639,-737.88 -55.03,-737.88 L -42.991,-737.88 C -40.51,-737.88 -39.143,-739.3 -39.143,-741.12 L -39.143,-749.49 C -39.143,-752.07 -40.941,-753.13 -42.967,-753.13 L -56.7,-753.13 C -59.183,-753.13 -59.995,-751.92 -59.995,-749.99 L -59.995,-744.27 C -59.995,-743.51 -59.64,-743.51 -59.288,-743.51 L -56.905,-743.51 C -56.297,-743.51 -56.171,-743.71 -56.171,-744.27 L -56.171,-747.51 C -56.171,-748.33 -55.619,-748.17 -55.215,-748.17 L -44.707,-748.17 C -43.163,-748.17 -42.991,-747.82 -42.991,-746.75 L -42.991,-742.54 C -42.991,-742.04 -42.991,-741.72 -43.971,-741.72 L -55.368,-741.72 C -58.711,-741.72 -60.02,-740.72 -60.02,-738.59 L -60.02,-734.94"
   class="ps01"
   id="path17"
   style="fill:#1475c5;fill-rule:nonzero;stroke:none" />
</g>
</g>
</g>
</g>
<g
   id="q4"
   class="">
<clipPath
   id="clp2"
   clip-rule="nonzero">
<path
   d="M 3.7587,47.088 L 173.84,47.088 L 173.84,72.932 L 3.7587,72.932 L 3.7587,47.088 z"
   id="path21" />
</clipPath>
<g
   clip-path="url(#clp2)"
   id="g23">
<g
   id="q5"
   class="ps00 ps10"
   style="fill:none;stroke:none;stroke-width:1;stroke-linecap:butt;stroke-linejoin:miter;stroke-miterlimit:10;stroke-dasharray:none">
<g
   id="xfrm6"
   transform="translate(182.29,793.534)">
<path
   d="M -60.02,-734.94 L -60.02,-725.23 C -60.02,-721.68 -58.468,-720.6 -55.836,-720.6 L -43.237,-720.6 C -40.429,-720.6 -39.141,-722.12 -39.141,-725.23 L -39.141,-742.14 C -39.141,-745.49 -40.548,-746.45 -43.387,-746.45 L -56.122,-746.45 C -59.011,-746.45 -60.02,-744.88 -60.02,-742.7 L -60.02,-734.94 z M -56.167,-740.57 C -56.167,-741.33 -55.836,-741.48 -55.077,-741.48 L -43.979,-741.48 C -43.472,-741.48 -42.989,-741.48 -42.989,-740.62 L -42.989,-726.38 C -42.989,-725.77 -43.218,-725.57 -43.979,-725.57 L -55.026,-725.57 C -55.634,-725.57 -56.167,-725.82 -56.167,-726.78 L -56.167,-733.98 L -56.167,-740.57"
   class="ps01"
   id="path27"
   style="fill:#1475c5;fill-rule:nonzero;stroke:none" />
</g>
</g>
</g>
</g>
<g
   id="q7"
   class="">
<clipPath
   id="clp3"
   clip-rule="nonzero">
<path
   d="M 3.7587,47.088 L 173.84,47.088 L 173.84,72.932 L 3.7587,72.932 L 3.7587,47.088 z"
   id="path31" />
</clipPath>
<g
   clip-path="url(#clp3)"
   id="g33">
<g
   id="q8"
   class="ps00 ps10"
   style="fill:none;stroke:none;stroke-width:1;stroke-linecap:butt;stroke-linejoin:miter;stroke-miterlimit:10;stroke-dasharray:none">
<g
   id="xfrm9"
   transform="translate(85.1677,782.606)">
<path
   d="M -60.02,-734.94 C -60.02,-735.26 -60.278,-735.52 -60.596,-735.52 L -80.731,-735.52 C -81.048,-735.52 -81.307,-735.26 -81.307,-734.94 L -81.307,-731.13 C -81.307,-730.81 -81.048,-730.55 -80.731,-730.55 L -77.402,-730.55 L -77.402,-714.64 L -80.831,-714.64 C -81.151,-714.64 -81.408,-714.38 -81.408,-714.06 L -81.408,-710.25 C -81.408,-709.93 -81.151,-709.67 -80.831,-709.67 L -70.328,-709.67 C -70.008,-709.67 -69.749,-709.93 -69.749,-710.25 L -69.749,-714.06 C -69.749,-714.38 -70.008,-714.64 -70.328,-714.64 L -73.555,-714.64 L -73.555,-730.55 L -63.899,-730.55 L -63.899,-726.21 C -63.899,-725.89 -63.642,-725.63 -63.323,-725.63 L -60.594,-725.63 C -60.278,-725.63 -60.02,-725.89 -60.02,-726.21 L -60.02,-734.94"
   class="ps01"
   id="path37"
   style="fill:#1475c5;fill-rule:nonzero;stroke:none" />
</g>
</g>
</g>
</g>
<g
   id="q10"
   class="">
<clipPath
   id="clp4"
   clip-rule="nonzero">
<path
   d="M 3.7587,47.088 L 173.84,47.088 L 173.84,72.932 L 3.7587,72.932 L 3.7587,47.088 z"
   id="path41" />
</clipPath>
<g
   clip-path="url(#clp4)"
   id="g43">
<g
   id="q11"
   class="ps00 ps10"
   style="fill:none;stroke:none;stroke-width:1;stroke-linecap:butt;stroke-linejoin:miter;stroke-miterlimit:10;stroke-dasharray:none">
<g
   id="xfrm12"
   transform="translate(112.988,786.981)">
<path
   d="M -60.02,-734.94 L -60.02,-734.92 L -57.097,-734.92 C -56.778,-734.92 -56.523,-735.18 -56.523,-735.5 L -56.523,-739.32 C -56.523,-739.64 -56.778,-739.89 -57.097,-739.89 L -67.604,-739.89 C -67.919,-739.89 -68.177,-739.64 -68.177,-739.32 L -68.177,-735.5 C -68.177,-735.18 -67.919,-734.92 -67.604,-734.92 L -64.425,-734.92 L -64.42,-734.94 L -65.907,-732.24 L -65.897,-732.24 L -76.183,-732.24 L -76.175,-732.23 L -77.7,-734.91 L -77.679,-734.92 L -74.427,-734.92 C -74.113,-734.92 -73.852,-735.18 -73.852,-735.5 L -73.852,-739.32 C -73.852,-739.64 -74.113,-739.89 -74.427,-739.89 L -84.935,-739.89 C -85.251,-739.89 -85.509,-739.64 -85.509,-739.32 L -85.509,-735.5 C -85.509,-735.18 -85.251,-734.92 -84.935,-734.92 L -82.113,-734.92 L -82.132,-734.92 L -73.096,-719.01 L -76.015,-719.01 C -76.333,-719.01 -76.591,-718.76 -76.591,-718.44 L -76.591,-714.62 C -76.591,-714.3 -76.333,-714.05 -76.015,-714.05 L -65.511,-714.05 C -65.193,-714.05 -64.932,-714.3 -64.932,-714.62 L -64.932,-718.44 C -64.932,-718.76 -65.193,-719.01 -65.511,-719.01 L -68.811,-719.01 L -60.02,-734.94 z M -70.971,-723.09 L -73.983,-728.39 L -73.956,-728.39 L -67.999,-728.39 L -68.024,-728.4 L -70.971,-723.09"
   class="ps01"
   id="path47"
   style="fill:#1475c5;fill-rule:nonzero;stroke:none" />
</g>
</g>
</g>
</g>
<g
   id="q13"
   class="">
<clipPath
   id="clp5"
   clip-rule="nonzero">
<path
   d="M 3.7587,47.088 L 173.84,47.088 L 173.84,72.932 L 3.7587,72.932 L 3.7587,47.088 z"
   id="path51" />
</clipPath>
<g
   clip-path="url(#clp5)"
   id="g53">
<g
   id="q14"
   class="ps00 ps10"
   style="fill:none;stroke:none;stroke-width:1;stroke-linecap:butt;stroke-linejoin:miter;stroke-miterlimit:10;stroke-dasharray:none">
<g
   id="xfrm15"
   transform="translate(147.071,802.909)">
<path
   d="M -60.02,-734.94 L -63.17,-734.94 C -63.485,-734.94 -63.742,-734.69 -63.742,-734.36 L -63.742,-730.55 C -63.742,-730.23 -63.485,-729.98 -63.17,-729.98 L -52.664,-729.98 C -52.348,-729.98 -52.09,-730.23 -52.09,-730.55 L -52.09,-734.36 C -52.09,-734.69 -52.348,-734.94 -52.664,-734.94 L -55.739,-734.94 L -63.516,-750.85 L -60.568,-750.85 C -60.252,-750.85 -59.991,-751.11 -59.991,-751.43 L -59.991,-755.25 C -59.991,-755.56 -60.252,-755.82 -60.568,-755.82 L -71.075,-755.82 C -71.393,-755.82 -71.648,-755.56 -71.648,-755.25 L -71.648,-751.43 C -71.648,-751.11 -71.393,-750.85 -71.075,-750.85 L -67.949,-750.85 L -73.701,-739.22 L -79.404,-750.85 L -76.483,-750.85 C -76.166,-750.85 -75.907,-751.11 -75.907,-751.43 L -75.907,-755.25 C -75.907,-755.56 -76.166,-755.82 -76.483,-755.82 L -86.987,-755.82 C -87.307,-755.82 -87.564,-755.56 -87.564,-755.25 L -87.564,-751.43 C -87.564,-751.11 -87.307,-750.85 -86.987,-750.85 L -83.761,-750.85 L -91.642,-734.94 L -94.792,-734.94 C -95.112,-734.94 -95.369,-734.69 -95.369,-734.36 L -95.369,-730.55 C -95.369,-730.23 -95.112,-729.98 -94.792,-729.98 L -84.289,-729.98 C -83.97,-729.98 -83.712,-730.23 -83.712,-730.55 L -83.712,-734.36 C -83.712,-734.69 -83.97,-734.94 -84.289,-734.94 L -87.334,-734.94 L -81.601,-746.51 L -75.933,-734.94 L -78.98,-734.94 C -79.301,-734.94 -79.557,-734.69 -79.557,-734.36 L -79.557,-730.55 C -79.557,-730.23 -79.301,-729.98 -78.98,-729.98 L -68.475,-729.98 C -68.159,-729.98 -67.901,-730.23 -67.901,-730.55 L -67.901,-734.36 C -67.901,-734.69 -68.159,-734.94 -68.475,-734.94 L -71.522,-734.94 L -65.741,-746.61 L -60.02,-734.94"
   class="ps01"
   id="path57"
   style="fill:#1475c5;fill-rule:nonzero;stroke:none" />
</g>
</g>
</g>
</g>
<g
   id="q16"
   class="">
<clipPath
   id="clp6"
   clip-rule="nonzero">
<path
   d="M 3.7587,47.088 L 173.84,47.088 L 173.84,72.932 L 3.7587,72.932 L 3.7587,47.088 z"
   id="path61" />
</clipPath>
<g
   clip-path="url(#clp6)"
   id="g63">
<g
   id="q17"
   class="ps00 ps10"
   style="fill:none;stroke:none;stroke-width:1;stroke-linecap:butt;stroke-linejoin:miter;stroke-miterlimit:10;stroke-dasharray:none">
<g
   id="xfrm18"
   transform="translate(209.454,802.909)">
<path
   d="M -60.02,-734.94 L -63.22,-734.94 C -63.537,-734.94 -63.797,-734.69 -63.797,-734.36 L -63.797,-730.55 C -63.797,-730.23 -63.537,-729.98 -63.22,-729.98 L -52.714,-729.98 C -52.395,-729.98 -52.138,-730.23 -52.138,-730.55 L -52.138,-734.36 C -52.138,-734.69 -52.395,-734.94 -52.714,-734.94 L -55.362,-734.94 L -55.362,-734.94 L -43.405,-746.13 L -43.397,-746.13 L -43.397,-734.94 L -46.696,-734.94 C -47.018,-734.94 -47.272,-734.69 -47.272,-734.36 L -47.272,-730.55 C -47.272,-730.23 -47.018,-729.98 -46.696,-729.98 L -36.192,-729.98 C -35.873,-729.98 -35.616,-730.23 -35.616,-730.55 L -35.616,-734.36 C -35.616,-734.69 -35.873,-734.94 -36.192,-734.94 L -39.544,-734.94 L -39.544,-750.85 L -36.192,-750.85 C -35.873,-750.85 -35.616,-751.11 -35.616,-751.43 L -35.616,-755.25 C -35.616,-755.56 -35.873,-755.82 -36.192,-755.82 L -46.696,-755.82 C -47.018,-755.82 -47.272,-755.56 -47.272,-755.25 L -47.272,-751.43 C -47.272,-751.11 -47.018,-750.85 -46.696,-750.85 L -43.981,-750.85 L -56.162,-739.47 L -56.166,-739.47 L -56.166,-750.85 L -52.714,-750.85 C -52.395,-750.85 -52.138,-751.11 -52.138,-751.43 L -52.138,-755.25 C -52.138,-755.56 -52.395,-755.82 -52.714,-755.82 L -63.22,-755.82 C -63.537,-755.82 -63.797,-755.56 -63.797,-755.25 L -63.797,-751.43 C -63.797,-751.11 -63.537,-750.85 -63.22,-750.85 L -60.02,-750.85 L -60.02,-734.94"
   class="ps01"
   id="path67"
   style="fill:#1475c5;fill-rule:nonzero;stroke:none" />
</g>
</g>
<g
   id="xfrm19"
   transform="scale(200,100)">
<g
   id="frm20"
   transform="scale(1e-2,1e-2)">
</g>
</g>
</g>
</g>
</g>
</svg>