<svg width="139" height="30" viewBox="0 0 139 30" fill="none" xmlns="http://www.w3.org/2000/svg">
<g clip-path="url(#clip0)">
<path d="M31.7294 5.29421C24.3589 5.29421 20.4936 9.42803 20.4936 17.2766C20.4936 24.8948 23.9686 29.1177 31.4888 29.1177C38.8576 29.1177 42.7692 24.9919 42.7692 17.1354C42.7692 9.47303 39.2942 5.29421 31.7294 5.29421ZM31.7294 23.6233C29.3682 23.6233 27.7884 22.4904 27.7884 17.0921C27.7884 12.0539 29.2925 10.7886 31.504 10.7886C34.3312 10.7886 35.4896 12.4651 35.4896 17.3198C35.4896 22.1745 34.4212 23.6233 31.7294 23.6233ZM17.3982 22.6589H8.62156C7.89805 22.6386 7.31621 22.0677 7.30017 21.3592V0.36803C7.30017 0.269206 7.25919 0.173912 7.18701 0.105089C7.11573 0.0362652 7.01772 -0.00167596 6.91614 8.87451e-05H0.422346C0.204936 -0.00432302 0.0204936 0.156265 0 0.36803V23.6498C0.00445513 26.6674 2.50646 29.1133 5.59475 29.1177H17.3982C17.6156 29.1221 17.8 28.9616 17.8205 28.7498V23.0719C17.8223 22.9616 17.7786 22.8557 17.6993 22.7771C17.6191 22.6995 17.5104 22.6571 17.3982 22.6589ZM84.2242 6.17832H77.9345C77.7055 6.17832 77.5192 6.36274 77.5192 6.5895V21.2736C77.5192 22.8901 75.7978 24.4616 73.5096 24.4616C71.3729 24.4616 70.4356 23.2571 70.4356 20.9524V6.5895C70.4356 6.36274 70.2503 6.17832 70.0213 6.17832H63.6861C63.4544 6.17832 63.2673 6.36097 63.2628 6.5895V21.5048C63.2628 26.9533 66.4794 30.0001 71.569 30.0001C73.7359 30.031 75.8548 29.3666 77.6101 28.1066C77.7108 28.0086 77.8569 27.9716 77.9933 28.0095C78.1296 28.0492 78.2338 28.1569 78.2668 28.2936L78.5911 29.2139C78.682 29.446 78.78 29.536 79.0064 29.536H84.1797C84.2973 29.5466 84.414 29.5077 84.5031 29.4301C84.5922 29.3524 84.6439 29.2413 84.6474 29.1239V6.5895C84.6439 6.47215 84.5913 6.36185 84.5031 6.28421C84.414 6.20656 84.2973 6.16774 84.1797 6.17832H84.2242ZM59.0233 23.4177C58.9636 23.2766 58.8433 23.1742 58.6981 23.1398C58.5538 23.1045 58.4014 23.1433 58.2882 23.243C57.4551 23.8413 56.467 24.1677 55.453 24.1801C54.1236 24.1801 53.4544 23.5624 53.4544 22.0007V11.7636C53.4509 11.6374 53.4972 11.5148 53.5836 11.4248C53.67 11.3357 53.7886 11.2871 53.9106 11.2916H58.7444C58.862 11.3048 58.9797 11.2651 59.067 11.1813C59.1543 11.0983 59.2024 10.9801 59.1998 10.8574V6.20921C59.2024 6.08568 59.1543 5.96832 59.0661 5.88538C58.9797 5.80156 58.8612 5.76185 58.7444 5.77509H53.9472C53.8313 5.78127 53.7173 5.73891 53.6317 5.65685C53.5453 5.57568 53.4954 5.46185 53.4918 5.34097V0.435089C53.4954 0.318618 53.4526 0.205677 53.3733 0.122736C53.2931 0.040677 53.1853 -0.00344067 53.0731 0.000971098H49.3985C49.2826 -0.00520537 49.1686 0.0362652 49.083 0.118324C48.9975 0.200383 48.9467 0.314206 48.9432 0.435089C48.7008 3.81715 46.2834 5.70626 44.0799 5.76715C43.965 5.75832 43.8518 5.80244 43.7707 5.88715C43.6906 5.97185 43.6496 6.09009 43.6612 6.20921V10.8486C43.6549 10.966 43.6968 11.0798 43.777 11.1627C43.8572 11.2457 43.9668 11.2898 44.0799 11.2827H46.1079C46.3574 11.2871 46.5588 11.4963 46.5623 11.7548V22.0086C46.5623 27.2348 48.8407 30.0001 54.0559 30.0001C57.4578 30.0001 59.6248 29.0171 60.4329 28.4763C60.5648 28.3616 60.6192 28.1763 60.5728 28.0042L59.0224 23.4186L59.0233 23.4177ZM86.5551 25.5795C86.3876 25.4119 86.3876 25.1507 86.5551 24.983L89.3503 20.8783C89.4982 20.6277 89.7958 20.7019 89.9829 20.8042C92.2541 22.3863 94.5574 23.5413 97.2038 23.5413C98.0547 23.5413 99.5454 23.2986 99.5454 22.0695C99.5454 21.121 97.758 20.4221 95.8218 19.8636C92.5116 18.8771 88.0146 17.3692 88.0146 12.6019C88.0146 9.02656 91.2544 5.30391 97.5397 5.30391C100.872 5.18038 104.128 6.2745 106.626 8.35685C106.79 8.5245 106.79 8.78391 106.626 8.95244L103.308 12.8083C103.16 12.9848 102.864 12.8816 102.676 12.8083C101.896 12.3142 99.8109 10.9466 97.3918 10.9466C96.204 10.9466 95.4235 11.4389 95.4235 12.278C95.4235 13.2636 97.1726 13.8592 99.1792 14.5219C102.488 15.6477 106.923 16.9792 106.923 21.7166C106.923 25.2919 103.8 29.1177 96.8367 29.1177C92.8868 29.1177 88.7961 27.646 86.5239 25.6457" fill="#00bcb4"/>
<path d="M118.631 25.5644C118.465 25.3968 118.465 25.1356 118.631 24.9679L121.421 20.8632C121.57 20.6135 121.866 20.6868 122.053 20.79C124.289 22.3712 126.626 23.5412 129.26 23.5412C130.109 23.5412 131.637 23.2985 131.637 22.0694C131.637 21.1209 129.852 20.4221 127.92 19.8635C124.616 18.8771 120.128 17.3691 120.128 12.6018C120.128 9.02647 123.362 5.30382 129.634 5.30382C132.961 5.18029 136.21 6.27441 138.704 8.35676C138.867 8.52441 138.867 8.78382 138.704 8.95235L135.392 12.8082C135.244 12.9847 134.948 12.8815 134.761 12.8082C133.943 12.3141 131.901 10.9465 129.487 10.9465C128.301 10.9465 127.523 11.4388 127.523 12.2779C127.523 13.2635 129.268 13.8591 131.27 14.5218C134.574 15.6476 139 16.9791 139 21.7165C139 25.2918 135.883 29.1176 128.933 29.1176C124.99 29.1176 120.907 27.6459 118.64 25.6456L118.631 25.5644ZM114.055 0.0229412C112.14 0.0238235 110.371 1.06588 109.417 2.75647C108.464 4.44706 108.468 6.52765 109.431 8.21294L113.35 14.6047C113.503 14.8509 113.769 15 114.055 15C114.341 15 114.607 14.85 114.76 14.6047L118.671 8.19C119.634 6.50559 119.64 4.42676 118.687 2.73706C117.734 1.04647 115.969 0.00352941 114.055 0" fill="#F9BE00"/>
</g>
<defs>
<clipPath id="clip0">
<rect width="139" height="30" fill="white"/>
</clipPath>
</defs>
</svg>
