<?xml version="1.0" encoding="utf-8"?>
<!-- Generator: Adobe Illustrator 17.0.0, SVG Export Plug-In . SVG Version: 6.00 Build 0)  -->
<!DOCTYPE svg PUBLIC "-//W3C//DTD SVG 1.1//EN" "http://www.w3.org/Graphics/SVG/1.1/DTD/svg11.dtd">
<svg version="1.1" id="Layer_1" xmlns="http://www.w3.org/2000/svg" xmlns:xlink="http://www.w3.org/1999/xlink" x="0px" y="0px"
	 width="864.076px" height="571.695px" viewBox="0 0 864.076 571.695" enable-background="new 0 0 864.076 571.695"
	 xml:space="preserve">
<g id="MB_2_">
	<path id="B_1_" fill="#EE3A43" d="M811.751,227.844c-70.327-34.594-148.691-23.473-203.299,0.237
		c-46.36,20.129-58.289,50.943-44.783,72.268s61.843,14.928,61.843,14.928c-17.06-15.165-13.083-36.128-8.056-46.915
		c3.925-8.422,21.607-38.246,89.565-39.333c0,0,53.233-1.858,70.61,35.068c11.373,24.168-3.791,54.024-3.791,54.024
		c-22.524,40.953-81.016,36.863-105.063,33.227l43.788-73.601h-47.626l-107.993,181.52c0,0-45.669,76.763-107.071,51.682
		c-48.756-19.915,12.794-82.097,30.92-88.495c0,0-132.209-28.592-114.084,91.791c6.797,45.144,67.496,57.266,102.355,57.386
		c60.673,0.208,105.87-61.346,166.188-163.937l0,0l5.688-9.561c34.415-10.912,60.985,4.221,60.985,4.221s27.811,13.95,31.632,51.891
		c5.152,51.163-29.144,64.331-29.144,64.331c-65.411,22.087-63.975-30.211-63.975-30.211s-0.251-14.572-2.206-18.837
		c-2.945-6.427-15.698-9.507-25.162,11.729c-26.678,59.862,47.983,81.393,47.983,81.393
		c39.112,11.819,101.679,17.228,141.455-17.062c112.494-96.977-28.433-171.312-28.433-171.312
		c32.281-3.754,77.659-18.081,87.907-50.943C871.141,293.963,849.49,246.408,811.751,227.844z"/>
	<path id="M_1_" fill="#EE3A43" d="M622.231,3.436c0,0-39.333,5.687-75.349,25.59c-36.016,19.903-64.41,37.484-117.999,92.409
		c-17.32,17.752-68.714,71.558-68.714,71.558l18.482-76.77c0,0,12.321-50.233,6.161-75.349
		c-6.161-25.116-16.586-35.102-16.586-35.102H249.673l-8.827,14.927c0,0,67.754,9.9,54.376,77.833
		c-1.899,9.645-17.059,73.568-71.436,149.268c-54.376,75.7-107.785,68.472-116.232,67.901c-7.758-0.524-24.613-2.577-34.564-25.324
		c-9.952-22.747-4.976-45.494,61.843-84.59c0,0-34.831-5.687-88.144,17.771S0.056,306.936,0.486,309.569
		c0.806,4.938,19.144,91.556,114.682,59.71c62.554-20.851,138.376-120.368,138.376-120.368l-40.518,102.36h97.492l65.155-109.516
		c-3.491,16.066-7.341,41.127-4.448,65.01c4.483,37.009,25.034,69.811,88.462,64.646c0,0,47.626-2.843,56.156-94.541
		c0,0-22.51,30.803-40.044,31.751c-17.534,0.948-32.125-5.482-24.406-37.674c0,0,60.895-249.129,248.023-264.234L703.41,0
		C703.41,0,645.57,0,622.231,3.436z"/>
</g>
</svg>
