<svg xmlns="http://www.w3.org/2000/svg" width="194" height="194" viewBox="0 0 194 194">
  <g id="main-logo" transform="translate(-586 -553)">
    <circle id="楕円形_1" data-name="楕円形 1" cx="97" cy="97" r="97" transform="translate(586 553)" fill="none"/>
    <g id="mainlogo" transform="translate(452.55 395.197)">
      <g id="グループ_1" data-name="グループ 1" transform="translate(178.415 194.406)">
        <path id="パス_1" data-name="パス 1" d="M257.127,253.793a76.855,76.855,0,0,1,7.613-18.475,86.032,86.032,0,0,1,5.329-8.439c-2.9-7.96-7.689-12.658-12.948-12.658s-10.077,4.669-13,12.587a85.1,85.1,0,0,1,5.38,8.511A77.314,77.314,0,0,1,257.127,253.793Z" transform="translate(-204.43 -201.804)" fill="none"/>
        <path id="パス_2" data-name="パス 2" d="M196.412,248.966c-10.195-16.557-10.035-31.554-2.459-35.924,5.224-3.018,12.989-.4,20.388,7.1a77.649,77.649,0,0,0-1.06,15.517c.356,12.477,2.6,21.742,6.1,27.981h4.679c-3.686-4.741-6.086-12.851-6.419-24.475a59.675,59.675,0,0,1,1.144-13.826,65.7,65.7,0,0,1,5.047,7.8c7.862,14.223,7.184,30.5,7.184,30.5h4.932s-.7-16.279,7.165-30.5a65.195,65.195,0,0,1,4.987-7.716,61.451,61.451,0,0,1,1.2,13.744c-.217,11.578-2.647,19.717-6.392,24.475h4.717c3.546-6.264,5.8-15.547,6.035-27.981a80.362,80.362,0,0,0-1.139-15.429c7.426-7.569,15.233-10.217,20.474-7.189,7.572,4.37,7.733,19.366-2.465,35.924-4.131,6.712-8.281,11.539-12.254,14.675h5.771a80.92,80.92,0,0,0,12.014-15.533c13-21.118,12.8-40.245,3.139-45.821-7.177-4.146-18.116.057-28.189,11.4-3.525-12.051-10.166-19.282-17.539-19.282s-14.08,7.2-17.614,19.2c-10.049-11.276-20.951-15.447-28.112-11.316-9.66,5.576-9.867,24.7,3.142,45.821A81.1,81.1,0,0,0,202.9,263.642h5.774C204.692,260.505,200.544,255.678,196.412,248.966Zm37.057-42.144c5.259,0,10.044,4.7,12.948,12.658a86.019,86.019,0,0,0-5.329,8.439,76.856,76.856,0,0,0-7.613,18.475,77.312,77.312,0,0,0-7.622-18.475,85.1,85.1,0,0,0-5.38-8.511C223.392,211.491,228.224,206.823,233.469,206.823Z" transform="translate(-180.778 -194.406)" fill="#c52341"/>
      </g>
      <g id="グループ_2" data-name="グループ 2" transform="translate(174.45 278.908)">
        <path id="パス_3" data-name="パス 3" d="M213.9,329.433H174.45s.568,5.97,3.656,5.97c2.75.009,26.02.026,26.02.026,0,9.516-5.527,13.492-10.77,16.333l-2.27-2.9s-1.6-1.966-3.357-1.966h-7.434l12.976,16.626s1.5,2.044,3.479,2.117,7.433,0,7.433,0l-10.653-13.651C209.954,350.006,213.981,339.4,213.9,329.433Z" transform="translate(-174.45 -329.324)" fill="#006a39"/>
        <path id="パス_4" data-name="パス 4" d="M270.835,354.433c.006-9.253.011-21.118-.015-22.488-.056-2.911-6.515-2.682-6.515-2.682V365.6c13.03-3.921,20.341-10.012,21.941-23.882C281.754,348.421,276.647,354.058,270.835,354.433Z" transform="translate(-208 -329.258)" fill="#006a39"/>
        <path id="パス_5" data-name="パス 5" d="M243.19,329.263v17.4c0,9.906-2.439,13.712-7.694,18.9,11.123-4.043,14.207-11.071,14.227-18.819.016-7.618,0-13.791-.019-14.8C249.648,329.034,243.19,329.263,243.19,329.263Z" transform="translate(-197.243 -329.258)" fill="#006a39"/>
        <path id="パス_6" data-name="パス 6" d="M322.756,354.343s-1.6-1.965-3.356-1.965h-6.746c7.13-7.226,11.757-15.961,12.026-22.945H293.818s.565,5.97,3.657,5.97c2.75.009,16.172.02,16.172.02-1.564,10.969-12.773,23.268-23.015,29.99,8.208-1.973,15.73-6.769,21.621-12.605l7.2,10.711s1.5,2.044,3.478,2.117,7.435,0,7.435,0Z" transform="translate(-217.83 -329.324)" fill="#006a39"/>
      </g>
      <g id="グループ_3" data-name="グループ 3" transform="translate(193.445 266.08)">
        <path id="パス_7" data-name="パス 7" d="M209.228,319.242a4.578,4.578,0,0,1-1.137-.17c-.23-.082-.6-.193-1.093-.348a1.448,1.448,0,0,0-.444-.073,1.893,1.893,0,0,0-1.164.6l-.627-3.352.378-.132a4.718,4.718,0,0,0,1.647,2.038,3.947,3.947,0,0,0,2.363.966,1.643,1.643,0,0,0,1.137-.392,1.3,1.3,0,0,0,.429-1.036,2.015,2.015,0,0,0-1.448-1.874q-.9-.352-2.715-1.107a2.752,2.752,0,0,1-1.449-2.532,2.274,2.274,0,0,1,.914-1.892,3.222,3.222,0,0,1,2.05-.656,5.339,5.339,0,0,1,1.383.261,6.038,6.038,0,0,0,1.161.234,1.718,1.718,0,0,0,1.018-.511l.549,2.942-.391.106a4.038,4.038,0,0,0-1.461-1.787,3.716,3.716,0,0,0-2.116-.749,1.906,1.906,0,0,0-1.043.264,1,1,0,0,0-.5.9c0,.592.5,1.1,1.514,1.552L211,313.731a2.883,2.883,0,0,1,1.5,2.554,2.726,2.726,0,0,1-1.006,2.147A3.41,3.41,0,0,1,209.228,319.242Z" transform="translate(-204.763 -308.965)"/>
        <path id="パス_8" data-name="パス 8" d="M224.066,319.127v-.475h.221c.706,0,1.06-.389,1.06-1.177v-3.027H221.6V317.5c0,.776.35,1.157,1.055,1.157h.249v.475h-4.792v-.475h.236a.938.938,0,0,0,.783-.357,1.255,1.255,0,0,0,.261-.82v-6.424c0-.749-.35-1.124-1.057-1.124h-.222v-.474H222.9v.474h-.262a.946.946,0,0,0-.757.322,1.123,1.123,0,0,0-.285.8v2.923h3.748v-2.923a1.152,1.152,0,0,0-.3-.814.948.948,0,0,0-.759-.31h-.221v-.474h4.75v.474h-.234a.974.974,0,0,0-.768.322,1.2,1.2,0,0,0-.262.8V317.5a1.257,1.257,0,0,0,.273.828.936.936,0,0,0,.757.328h.234v.475Z" transform="translate(-209.747 -309.036)"/>
        <path id="パス_9" data-name="パス 9" d="M241.28,319.253a5.045,5.045,0,0,1-3.684-1.339,5.578,5.578,0,0,1,.014-7.276,5.657,5.657,0,0,1,7.337,0,5.534,5.534,0,0,1-.013,7.276A4.942,4.942,0,0,1,241.28,319.253Zm0-9.493a2.336,2.336,0,0,0-2.2,1.619,7.905,7.905,0,0,0,0,5.782,2.294,2.294,0,0,0,4.388,0,7.923,7.923,0,0,0,0-5.782A2.344,2.344,0,0,0,241.28,309.76Z" transform="translate(-216.521 -308.975)"/>
        <path id="パス_10" data-name="パス 10" d="M258.29,314.652h-1.464v2.822a1.154,1.154,0,0,0,.316.856,1.029,1.029,0,0,0,.823.322h.145v.475h-4.727v-.475h.154a1.062,1.062,0,0,0,.825-.328,1.281,1.281,0,0,0,.271-.849v-6.424c0-.749-.326-1.124-.993-1.124h-.258v-.474h4.66c2.634,0,3.958.916,3.958,2.747a2.049,2.049,0,0,1-1.218,2.032A5.775,5.775,0,0,1,258.29,314.652Zm-.387-4.726h-.277a.692.692,0,0,0-.612.393,1.386,1.386,0,0,0-.189.731v3.128h1.035a1.612,1.612,0,0,0,1.353-.574,2.221,2.221,0,0,0,.432-1.458,2.742,2.742,0,0,0-.381-1.541A1.524,1.524,0,0,0,257.9,309.926Z" transform="translate(-222.917 -309.036)"/>
        <path id="パス_11" data-name="パス 11" d="M272.98,314.652h-1.461v2.822a1.161,1.161,0,0,0,.307.856,1.043,1.043,0,0,0,.826.322h.137v.475h-4.722v-.475h.155a1.067,1.067,0,0,0,.826-.328,1.3,1.3,0,0,0,.275-.849v-6.424c0-.749-.328-1.124-.989-1.124h-.266v-.474h4.665q3.952,0,3.953,2.747a2.045,2.045,0,0,1-1.218,2.032A5.757,5.757,0,0,1,272.98,314.652Zm-.4-4.726h-.266a.7.7,0,0,0-.618.393,1.5,1.5,0,0,0-.175.731v3.128h1.025a1.639,1.639,0,0,0,1.359-.574,2.232,2.232,0,0,0,.433-1.458,2.768,2.768,0,0,0-.38-1.541A1.553,1.553,0,0,0,272.579,309.926Z" transform="translate(-228.399 -309.036)"/>
        <path id="パス_12" data-name="パス 12" d="M282.763,319.106v-.474h.161a.945.945,0,0,0,.776-.345,1.351,1.351,0,0,0,.264-.838v-6.407a1.18,1.18,0,0,0-.293-.814.988.988,0,0,0-.767-.328h-.14v-.471h4.474v.471h-.155c-.688,0-1.028.375-1.028,1.142v6.43c0,.776.348,1.159,1.063,1.159h.144v.474Z" transform="translate(-233.886 -309.027)"/>
        <path id="パス_13" data-name="パス 13" d="M301.5,309.9a.932.932,0,0,0-.747.369,1.121,1.121,0,0,0-.313.791v8.19h-.656l-6.564-8.07v6.345a1.019,1.019,0,0,0,.34.81,1.179,1.179,0,0,0,.837.3h.117v.487h-3.057v-.487h.134a1.159,1.159,0,0,0,.832-.325,1.042,1.042,0,0,0,.328-.791v-6.322a1.4,1.4,0,0,0-.3-.884.944.944,0,0,0-.8-.41h-.2v-.471h3.174l5.347,6.579v-4.955a1.178,1.178,0,0,0-.287-.8.918.918,0,0,0-.738-.357H298.7v-.471h3.039v.471Z" transform="translate(-237.128 -309.027)"/>
        <path id="パス_14" data-name="パス 14" d="M318.366,315.207c-.333,0-.494.258-.494.749v2.852a2.324,2.324,0,0,0-1.1-.372,7.921,7.921,0,0,0-1.04.3,6.214,6.214,0,0,1-1.95.328,4.593,4.593,0,0,1-3.5-1.412,5.436,5.436,0,0,1,.021-7.168,4.791,4.791,0,0,1,3.581-1.394,5.56,5.56,0,0,1,1.1.158,5.03,5.03,0,0,0,.978.167,2.942,2.942,0,0,0,.884-.63l1.256,3.15-.38.194a6.942,6.942,0,0,0-1.59-1.754,3.817,3.817,0,0,0-2.179-.805c-.925,0-1.634.583-2.117,1.765a7.582,7.582,0,0,0-.562,2.931A6.16,6.16,0,0,0,311.9,317a2.357,2.357,0,0,0,2.09,1.6,1.706,1.706,0,0,0,1.736-1.728v-.9a1.508,1.508,0,0,0-.067-.541.5.5,0,0,0-.469-.223h-.539v-.462h4.336v.462Z" transform="translate(-243.664 -308.788)"/>
      </g>
    </g>
  </g>
</svg>
