<?xml version="1.0" encoding="utf-8"?>
<!-- Generator: Adobe Illustrator 21.0.0, SVG Export Plug-In . SVG Version: 6.00 Build 0)  -->
<svg version="1.1" id="Layer_1" xmlns="http://www.w3.org/2000/svg" xmlns:xlink="http://www.w3.org/1999/xlink" x="0px" y="0px"
	 viewBox="0 0 126.2 19" style="enable-background:new 0 0 126.2 19;" xml:space="preserve">
<path d="M0,14.2v0.4c0,0,0.1,0,0.2,0c0.1,0,0.6-0.1,1.2-0.1c0.6,0,1.2,0.1,1.3,0.1c0.1,0,0.3,0,0.3-0.1c0-0.1-0.1-0.2-0.2-0.2
	S2.2,14,2.1,13.6c0-0.4,0-0.9,0.1-1.2l1.6-9l5.5,11.1c0,0,0,0.1,0.1,0.1c0.1,0,0.1-0.1,0.1-0.1l5-11c0,0,0-0.1,0.1-0.1
	c0.1,0,0.1,0.2,0.1,0.2l1.7,9.9c0,0.1,0,0.5-0.1,0.7c-0.2,0.3-0.4,0.4-0.4,0.5c0,0.1,0.1,0.1,0.4,0.1c0.1,0,0.8-0.1,1.3-0.1
	c0.4,0,1.3,0.1,1.6,0.1c0.2,0,0.3,0,0.3-0.1c0-0.1-0.1-0.2-0.2-0.2c-0.1,0-0.8-0.2-1-0.8c-0.2-0.6-0.2-0.9-0.2-0.9L16.2,1.8
	c0-0.2,0-0.7,0.3-0.9c0.3-0.2,0.7-0.3,0.9-0.3c0.2,0,0.2-0.1,0.2-0.2c0-0.1,0-0.2-0.2-0.2c-0.2,0-1.2,0-1.5,0c-0.3,0-1.2,0-1.3,0
	c-0.1,0-0.2,0.1-0.2,0.2c0,0.1,0.1,0.5,0.1,0.8c-0.1,0.3-4.5,10.1-4.5,10.1s0,0.1-0.1,0.1c-0.1,0-0.1-0.1-0.1-0.1S4.8,1.4,4.8,1.1
	c0-0.2,0-0.5,0-0.6c0-0.1,0-0.2,0-0.3c0-0.1-0.1-0.2-0.2-0.2c-0.1,0-0.7,0.1-0.9,0.1s-1.4,0-1.6,0s-0.6,0-0.7,0
	c-0.1,0-0.1,0.1-0.1,0.2c0,0.1,0.1,0.1,0.3,0.2c0.3,0,1,0.4,1.1,0.7c0.1,0.3,0.1,0.7,0,1.1C2.8,2.7,0.9,12.9,0.9,12.9
	s-0.2,0.7-0.3,0.9C0.3,14.2,0,14.2,0,14.2"/>
<path d="M25.3,10.9c0,0-0.9,2-0.9,2.2c-0.1,0.1-0.2,0.4-0.2,0.6c0,0.3,0.1,0.5,0.1,0.7c0,0.1,0.1,0.2,0,0.3c0,0.1-0.2,0-0.3,0
	c-0.1,0-0.6-0.1-0.9-0.1c-0.3,0-1.1,0.1-1.2,0.2c-0.2,0.1-0.2,0-0.3-0.1c0-0.1,0-0.1,0.2-0.2c0.2-0.1,0.4-0.2,0.7-0.5
	c0.4-0.3,0.6-0.9,0.6-0.9l5.6-12.7c0,0,0.1-0.3,0.2-0.3c0.1,0,0.2,0.1,0.2,0.1s5.1,12,5.2,12.3c0.1,0.3,0.4,0.8,0.7,1.2
	c0.3,0.4,0.8,0.7,0.9,0.7c0.1,0,0.3,0.1,0.2,0.3c0,0.2-0.5,0-0.8,0c-0.3,0-0.8-0.1-1.1-0.1c-0.3,0-1.1,0.1-1.2,0.1
	c-0.1,0-0.2,0.1-0.3,0c-0.1-0.1,0-0.2,0.1-0.3c0.1-0.1,0.2-0.5,0.2-0.6s-0.1-0.5-0.1-0.5l-1-2.4H25.3z M25.7,10h5.8c0,0,0.1,0,0.1,0
	l-2.8-6.9c0,0,0-0.1-0.1-0.1c0,0-0.1,0.1-0.1,0.1L25.7,10C25.7,9.9,25.7,10,25.7,10"/>
<path d="M40.2,0.2c-0.1,0-0.3-0.1-0.4,0c-0.1,0-0.1,0.1-0.1,0.2c0,0.1,0.2,0.2,0.3,0.2c0.1,0,0.7,0.4,0.7,0.9c0,0.4,0,11.9,0,11.9
	c0,0.2-0.2,0.7-0.5,0.8c-0.2,0.1-0.5,0.2-0.5,0.3c0,0.1,0,0.2,0.3,0.2c0.3,0,0.9-0.1,1.4-0.1c0.5,0,1,0,1.3,0.1c0.2,0,0.6,0.1,0.7,0
	c0.1-0.1,0.1-0.2,0-0.2c-0.1-0.1-0.5-0.2-0.6-0.3c-0.1-0.1-0.3-0.4-0.3-0.7V1.6c0-0.2,0-0.9,1.5-0.9c0.7,0,3,0.4,3,3.3
	c0,2.3-1.7,3.4-2.9,3.4c-0.4,0-0.8,0-0.8,0c0,0.1,0.1,0.2,0.1,0.2c0.1,0.2,2.5,3.2,2.8,3.5c0.3,0.4,1.9,2.5,3.2,3
	c0.4,0.2,0.9,0.4,2.4,0.3c0.2,0,0.2-0.1,0.2-0.2c0,0,0-0.1-0.1-0.1c-0.1,0-0.8,0-1.5-0.4c-0.7-0.4-0.9-0.7-1.5-1.5
	C48.5,11.9,45.5,8,45.5,8s-0.2-0.2,0-0.2c0.1,0,3.1-0.8,3.1-4c0-0.4-0.1-3.7-4.4-3.7c-0.7,0-2.3,0.2-2.6,0.2
	C41.2,0.3,40.3,0.2,40.2,0.2"/>
<path d="M52.6,0.3c0-0.1,0.2-0.1,0.4-0.1c0.1,0,0.9,0.1,1.4,0.1s1.4,0,1.6-0.1c0.2-0.1,0.4,0,0.4,0.1c0,0.1-0.2,0.3-0.2,0.3
	c-0.1,0.1-0.3,0.4-0.3,0.6c0,0.2,0.1,0.4,0.2,0.6c0.1,0.2,4.4,9.9,4.4,9.9s0,0.1,0.1,0.1c0.1,0,0.1-0.2,0.1-0.2L66,1.8
	c0,0,0.1-0.1,0.1-0.6c0-0.3-0.1-0.4-0.1-0.5c-0.1-0.2-0.3-0.3-0.3-0.4c0.1-0.2,0.3-0.1,0.5-0.1c0.2,0,0.3,0,0.4,0
	c0.1,0,1.8,0.1,1.9,0c0.1,0,0.5-0.1,0.5,0.1c0,0.2-0.1,0.2-0.3,0.3c-0.2,0.1-0.9,0.6-1.6,1.8c-0.2,0.4-8.2,15.3-8.2,15.3
	c-0.2,0.3-1,1.4-1.5,1.4h-1.6c0,0,0.8-0.2,1.2-0.6c0.2-0.2,0.5-0.6,0.7-1c0.2-0.3,1.8-3.4,1.8-3.4s0-0.1-0.1-0.3
	c-0.1-0.2-4.9-11-4.9-11c0-0.1-0.2-0.5-0.5-1c-0.3-0.4-0.8-0.9-1-1.1C52.8,0.5,52.6,0.4,52.6,0.3"/>
<path d="M106.2,0.3c0-0.1,0.2-0.1,0.4-0.1c0.1,0,0.9,0.1,1.4,0.1s1.4,0,1.6-0.1c0.2-0.1,0.4,0,0.4,0.1c0,0.1-0.2,0.3-0.2,0.3
	c-0.1,0.1-0.3,0.4-0.3,0.6c0,0.2,0.1,0.4,0.2,0.6c0.1,0.2,4.4,9.9,4.4,9.9s0,0.1,0.1,0.1c0.1,0,0.1-0.2,0.1-0.2l5.3-9.9
	c0,0,0.1-0.1,0.1-0.6c0-0.3-0.1-0.4-0.2-0.5c-0.1-0.2-0.3-0.3-0.3-0.4c0.1-0.2,0.3-0.1,0.5-0.1c0.2,0,0.3,0,0.4,0
	c0.1,0,1.8,0.1,1.9,0c0.1,0,0.5-0.1,0.5,0.1c0,0.2-0.1,0.2-0.3,0.3c-0.2,0.1-0.9,0.6-1.6,1.8c-0.2,0.4-8.2,15.3-8.2,15.3
	c-0.2,0.3-1,1.4-1.5,1.4h-1.6c0,0,0.8-0.2,1.2-0.6c0.2-0.2,0.5-0.6,0.7-1c0.2-0.3,1.8-3.4,1.8-3.4s0-0.1-0.1-0.3
	c-0.1-0.2-4.9-11-4.9-11c0-0.1-0.2-0.5-0.5-1c-0.3-0.4-0.8-0.9-1-1.1C106.3,0.5,106.2,0.4,106.2,0.3"/>
<path d="M125.2,2.7v0.1h-0.3c0,0-0.3-0.4-0.4-0.7C124.4,2,124.3,2,124.3,2h-0.4v0.9h-0.3v-2c0,0,0.9,0,1,0c0.1,0,0.5,0.1,0.5,0.5
	c0,0.4-0.4,0.5-0.4,0.5c-0.1,0,0,0.1,0,0.1C124.8,2.1,125.2,2.7,125.2,2.7 M123.8,1.1v0.7h0.7c0,0,0.3,0,0.3-0.4
	c0-0.2-0.2-0.3-0.3-0.3S123.8,1.1,123.8,1.1"/>
<path d="M78.7,0.3c0-0.1,0.1-0.1,0.2-0.1c0.1,0,0.7,0,0.8,0.1c0.1,0,1.1,0,1.4,0c0.3,0,0.7-0.1,0.9-0.1c0.1,0,0.2,0,0.2,0.1
	c0,0.1,0,0.1-0.1,0.2c-0.1,0-0.2,0-0.4,0.2c-0.2,0.2-0.3,0.4-0.3,0.6v12c0,0.3,0.2,0.6,0.3,0.7c0.1,0.2,0.5,0.3,0.5,0.3
	c0.1,0,0.2,0.1,0.2,0.2c0,0.1-0.2,0.2-0.3,0.1c-0.2,0-1-0.1-1.5-0.1c-0.5,0-1.2,0-1.5,0.1c-0.2,0-0.3,0-0.3-0.1c0-0.1,0-0.2,0.1-0.2
	c0.1,0,0.4-0.2,0.6-0.3c0.2-0.2,0.3-0.6,0.3-0.7v-12c0-0.3-0.5-0.6-0.6-0.6S78.6,0.5,78.7,0.3 M95.3,10.1h5.8c0,0,0.1,0,0-0.1
	c-0.1-0.1-2.8-6.6-2.8-6.6s0-0.2-0.1-0.2c-0.1,0-0.1,0.2-0.1,0.2l-2.8,6.6C95.4,9.9,95.3,10.1,95.3,10.1 M87.1,0.2
	c0.1-0.1,0.4,0,0.6,0s1.2,0,1.4,0s0.4-0.1,0.6-0.1c0.1,0,0.2,0,0.3,0.2c0,0.1-0.1,0.2-0.3,0.2c-0.2,0-0.7,0.2-1.1,0.4
	c-0.4,0.2-1,0.7-1.2,0.9c-0.2,0.2-3.8,4-3.8,4S83.4,6,83.4,6.1c0,0.1,0.1,0.2,0.1,0.2s5.6,6.6,5.9,6.9c0.3,0.3,1.2,1.1,1.9,1.1
	c1.2,0,1.5-1.1,1.7-1.5l5.5-12.4c0,0,0.1-0.2,0.2-0.2c0.2,0,0.2,0.2,0.2,0.2s5.3,12.4,5.3,12.5c0.1,0.1,0.2,0.5,0.5,0.9
	c0.3,0.4,0.8,0.7,0.9,0.7c0.1,0.1,0.2,0,0.2,0.2c0,0.2-0.3,0.2-0.5,0.1s-0.9-0.1-1.3-0.1c-0.4,0-1,0-1.1,0.1c-0.2,0.1-0.3,0.1-0.4,0
	c-0.1-0.1,0-0.3,0.1-0.5c0.1-0.2,0.1-0.6,0.1-0.7c0-0.1-1-2.5-1-2.5h-6.7c0,0-1,2.4-1.1,2.5c-0.1,0.2-0.1,0.4,0,0.6s0.2,0.4,0.2,0.5
	c0,0.1-0.2,0.1-0.4,0.1c-0.2,0-0.5-0.1-0.8-0.1s-0.6,0-1.5,0c-2.6,0-3.6-1.5-4.9-2.7c-0.5-0.5-4.7-5.2-4.7-5.2s-0.1-0.1-0.1-0.1
	c0-0.1,0.1-0.1,0.1-0.1s4.6-4.8,4.7-4.9c0.2-0.2,0.4-0.4,0.5-0.6C87,0.8,87,0.5,87,0.4C87,0.4,87,0.3,87.1,0.2"/>
<path d="M122.5,1.9c0-1,0.8-1.9,1.9-1.9s1.9,0.8,1.9,1.9c0,1-0.8,1.9-1.9,1.9S122.5,2.9,122.5,1.9 M122.7,1.9c0,0.9,0.7,1.6,1.6,1.6
	c0.9,0,1.6-0.7,1.6-1.6c0-0.9-0.7-1.6-1.6-1.6C123.4,0.3,122.7,1,122.7,1.9"/>
</svg>
