<?xml version="1.0" encoding="UTF-8" standalone="no"?>
<!-- Created with Inkscape (http://www.inkscape.org/) -->

<svg
   xmlns:dc="http://purl.org/dc/elements/1.1/"
   xmlns:cc="http://creativecommons.org/ns#"
   xmlns:rdf="http://www.w3.org/1999/02/22-rdf-syntax-ns#"
   xmlns:svg="http://www.w3.org/2000/svg"
   xmlns="http://www.w3.org/2000/svg"
   xmlns:sodipodi="http://sodipodi.sourceforge.net/DTD/sodipodi-0.dtd"
   xmlns:inkscape="http://www.inkscape.org/namespaces/inkscape"
   width="130.65672mm"
   height="24.096659mm"
   viewBox="0 0 462.95689 85.381861"
   id="svg2"
   version="1.1"
   inkscape:version="0.91 r13725"
   sodipodi:docname="Masymas logo.svg">
  <title
     id="title4251">Masymas Supermercados</title>
  <defs
     id="defs4" />
  <sodipodi:namedview
     id="base"
     pagecolor="#ffffff"
     bordercolor="#666666"
     borderopacity="1.0"
     inkscape:pageopacity="0.0"
     inkscape:pageshadow="2"
     inkscape:zoom="1.4"
     inkscape:cx="252.50018"
     inkscape:cy="29.833694"
     inkscape:document-units="px"
     inkscape:current-layer="layer1"
     showgrid="false"
     fit-margin-top="0"
     fit-margin-left="0"
     fit-margin-right="0"
     fit-margin-bottom="0"
     inkscape:window-width="1366"
     inkscape:window-height="705"
     inkscape:window-x="-8"
     inkscape:window-y="-8"
     inkscape:window-maximized="1" />
  <metadata
     id="metadata7">
    <rdf:RDF>
      <cc:Work
         rdf:about="">
        <dc:format>image/svg+xml</dc:format>
        <dc:type
           rdf:resource="http://purl.org/dc/dcmitype/StillImage" />
        <dc:title>Masymas Supermercados</dc:title>
        <dc:date>23/11/2016</dc:date>
        <dc:creator>
          <cc:Agent>
            <dc:title>Supermercados Masymas S.A.</dc:title>
          </cc:Agent>
        </dc:creator>
        <dc:publisher>
          <cc:Agent>
            <dc:title>CMetalCore</dc:title>
          </cc:Agent>
        </dc:publisher>
        <dc:source>http://www.granconsumo.tv/archivos/masymas_0.jpg</dc:source>
        <cc:license
           rdf:resource="http://creativecommons.org/licenses/by-sa/3.0/" />
      </cc:Work>
      <cc:License
         rdf:about="http://creativecommons.org/licenses/by-sa/3.0/">
        <cc:permits
           rdf:resource="http://creativecommons.org/ns#Reproduction" />
        <cc:permits
           rdf:resource="http://creativecommons.org/ns#Distribution" />
        <cc:requires
           rdf:resource="http://creativecommons.org/ns#Notice" />
        <cc:requires
           rdf:resource="http://creativecommons.org/ns#Attribution" />
        <cc:permits
           rdf:resource="http://creativecommons.org/ns#DerivativeWorks" />
        <cc:requires
           rdf:resource="http://creativecommons.org/ns#ShareAlike" />
      </cc:License>
    </rdf:RDF>
  </metadata>
  <g
     inkscape:label="Capa 1"
     inkscape:groupmode="layer"
     id="layer1"
     transform="translate(-86.863097,-121.97962)">
    <g
       id="g4238"
       transform="matrix(0.18021062,0,0,0.18021062,257.88368,103.07215)">
      <path
         d="m 1349.2052,558.21018 c 8.3389,-4.9259 12.7602,-17.1949 10.325,-28.6514 -1.7401,-8.1866 -6.0361,-10.8329 -17.5971,-10.8393 -4.6407,0 -8.4375,0.2162 -8.4375,0.486 0,0.2698 -1.9688,9.6913 -4.375,20.9367 -2.4063,11.2453 -4.375,20.6575 -4.375,20.9161 0,0.2585 4.653,0.2259 10.34,-0.073 6.8657,-0.3604 11.6098,-1.2929 14.1196,-2.7755 z m -46.3205,16.4422 c 0.3777,-1.5469 3.9567,-18.2813 7.9534,-37.1875 l 7.2666,-34.375 19.8829,0 c 18.4215,0 20.3277,0.2189 25.9328,2.9784 11.9455,5.8809 17.4013,19.0712 14.6868,35.5082 -2.2859,13.8414 -8.2096,23.2032 -18.4965,29.2318 -8.6723,5.0822 -17.641,6.6154 -38.8265,6.637 l -19.0863,0.02 0.6868,-2.8125 z m -39.7823,-27.5 c -0.3653,-1.5469 -1.0572,-7.3125 -1.5377,-12.8125 -0.4804,-5.5 -1.1641,-10.4942 -1.5194,-11.0981 -0.5907,-1.0046 -13.9975,23.6286 -14.034,25.7856 -0.013,0.5156 3.9828,0.9375 8.8698,0.9375 8.5781,0 8.8625,-0.097 8.2213,-2.8125 z m -51.8985,29.2744 c 0.2292,-0.5709 9.9792,-17.4392 21.6667,-37.4851 l 21.25,-36.4471 9.5881,-0.015 c 9.4622,-0.015 9.5974,0.03 10.2852,3.4227 0.3834,1.8906 2.9545,17.5 5.7135,34.6875 2.7592,17.1875 5.3194,32.5395 5.6895,34.1157 0.6628,2.8221 0.5249,2.8602 -9.0381,2.5 -7.5017,-0.2825 -9.7664,-0.7923 -9.954,-2.2407 -0.1335,-1.0313 -0.587,-3.9844 -1.0076,-6.5625 l -0.7649,-4.6875 -13.5401,0 -13.5401,0 -3.5908,6.872 -3.5907,6.872 -9.7917,0 c -5.3855,0 -9.6042,-0.4641 -9.375,-1.0351 z m -119.9106,-41.5236 c 5.1056,-1.4179 7.2023,-4.1675 7.2023,-9.4452 0,-6.4369 -2.9162,-7.9931 -14.9777,-7.9931 l -10.8402,0 -1.466,7.9566 c -0.8064,4.3761 -1.4661,8.5949 -1.4661,9.375 0,1.8189 15.1131,1.8937 21.5477,0.1067 z m -49.0477,40.8531 c 0,-1.4629 12.4021,-62.2543 14.3978,-70.5739 l 0.6974,-2.9075 24.0149,0.4075 c 21.1811,0.3594 24.4919,0.696 28.0571,2.8525 5.7906,3.5026 8.2255,9.4038 7.5774,18.3643 -0.632,8.7377 -3.4121,13.1404 -10.5394,16.6907 l -5.0189,2.5 3.2194,2.6902 c 3.118,2.6057 3.2196,3.1459 3.2294,17.1875 l 0.013,14.4973 -9.0726,0 -9.0727,0 0,-11.25 c 0,-14.8667 -1.2148,-16.25 -14.2713,-16.25 l -9.2715,0 -1.2512,5.9375 c -0.6882,3.2656 -1.933,9.4531 -2.7662,13.75 l -1.515,7.8125 -9.2124,0 c -6.9567,0 -9.2124,-0.4184 -9.2124,-1.7086 z m -82.11487,-1.1039 c 0.3609,-1.5469 3.8922,-18.4219 7.8475,-37.5 l 7.1914,-34.6875 29.65507,0 29.6551,0 -1.1272,5.3125 c -2.6077,12.2894 0.1495,10.9375 -22.307,10.9375 -10.9464,0 -20.15197,0.4218 -20.45697,0.9375 -0.305,0.5156 -0.9503,3.3281 -1.4337,6.25 l -0.8791,5.3125 18.23487,0 c 20.3817,0 19.3595,-0.5736 16.8365,9.4464 l -1.3984,5.5536 -18.4981,0 -18.49797,0 -1.3535,6.3115 c -0.7445,3.4713 -1.3536,6.8463 -1.3536,7.5 0,0.7022 8.2477,1.1885 20.15617,1.1885 l 20.1563,0 -0.8619,4.0625 c -0.474,2.2343 -1.1804,5.8906 -1.5698,8.125 l -0.708,4.0625 -29.97197,0 -29.9718,0 0.6561,-2.8125 z m -108.524,1.25 c 0.293,-0.8594 3.68799,-16.75 7.54449,-35.3125 3.85638,-18.5625 7.29325,-34.7344 7.63725,-35.9375 0.54438,-1.9036 2.31825,-2.1875 13.66638,-2.1875 7.17237,0 13.04487,0.4218 13.04975,0.9375 0.05,5.1528 3.92325,50.9114 4.34538,51.3335 0.30762,0.3076 6.29312,-11.3275 13.30125,-25.8559 l 12.74199,-26.4151 12.92611,0 c 7.1095,0 12.9263,0.4564 12.9263,1.0142 0,0.5578 -2.7579,14.1984 -6.1287,30.3125 -3.3707,16.114 -6.7856,32.5326 -7.5886,36.4858 l -1.46,7.1875 -8.66136,0 c -4.827,0 -8.66137,-0.5427 -8.66137,-1.2259 0,-0.6742 2.8125,-13.2862 6.25,-28.0267 3.4375,-14.7405 6.21975,-27.5483 6.18287,-28.4617 -0.0375,-0.9134 -6.78925,11.6986 -15.00512,28.0268 l -14.938,29.6875 -6.73075,0 c -8.08613,0 -7.40538,2.1667 -9.62225,-30.625 -0.8365,-12.375 -1.90975,-23.5949 -2.38488,-24.9331 -0.77387,-2.1798 -3.78887,11.8011 -10.16162,47.1206 l -1.52238,8.4375 -9.11975,0 c -6.7465,0 -8.981,-0.4066 -8.587,-1.5625 z m -33.76101,-43.4142 c 3.68925,-3.4659 4.18513,-9.3076 1.08113,-12.7374 -1.70238,-1.8811 -3.996,-2.2859 -12.95238,-2.2859 l -10.88375,0 -1.4225,7.0834 c -2.53725,12.6333 -3.03762,12.0496 9.8025,11.4357 9.66438,-0.4621 11.66325,-0.9482 14.375,-3.4958 z m -53.10012,43.2289 c 0,-1.879 13.36662,-67.4249 14.49212,-71.0647 0.60988,-1.9726 2.7865,-2.1868 22.15463,-2.1806 24.22862,0.01 28.82087,0.8599 34.04925,6.3172 3.391,3.5394 3.679,4.5603 3.679,13.0413 0,10.7825 -2.162,14.7707 -10.16975,18.7596 l -5.01888,2.5 3.20775,2.6804 c 3.104,2.5938 3.20825,3.1498 3.21938,17.1869 l 0.0125,14.5064 -9.0625,6e-4 c -6.3955,5e-4 -9.07438,-0.4592 -9.10288,-1.5618 -0.57862,-22.4114 -0.57537,-22.3858 -3.011,-24.165 -1.56225,-1.1413 -5.63187,-1.7725 -11.42687,-1.7725 l -9.0005,0 -2.044,9.0512 c -1.12425,4.9781 -2.38213,11.1656 -2.79538,13.75 l -0.75137,4.6988 -9.21525,0 c -7.05988,0 -9.21525,-0.4088 -9.21525,-1.7478 z m -82.5,1.2012 c 0,-1.2273 15.20225,-73.8223 15.52725,-74.1474 0.19375,-0.1937 13.55288,-0.2012 29.687,-0.017 l 29.33488,0.3356 -1.736,7.8125 -1.73588,7.8125 -20.37512,0 -20.375,0 -0.77488,4.6875 c -0.42612,2.5781 -0.78087,5.3906 -0.7885,6.25 -0.0125,1.1787 4.43725,1.5625 18.11125,1.5625 10.6245,0 18.125,0.4918 18.125,1.1884 0,0.6537 -0.60912,4.0287 -1.35362,7.5 l -1.35351,6.3116 -18.54287,0 -18.54287,0 -1.3535,6.3115 c -0.74451,3.4713 -1.35363,6.8463 -1.35363,7.5 0,0.7021 8.24013,1.1885 20.1355,1.1885 l 20.1355,0 -0.70075,2.8125 c -0.38537,1.5468 -1.08075,5.2031 -1.54525,8.125 l -0.8445,5.3125 -29.84025,0 c -16.41212,0 -29.84025,-0.246 -29.84025,-0.5466 z m -31.76675,-43.5857 c 1.65925,-1.9289 3.01675,-5.0761 3.01675,-6.9937 0,-5.6559 -3.753,-7.9195 -14.24675,-8.5929 l -9.261,-0.5944 -1.47562,7.3442 c -0.81163,4.0392 -1.78613,8.6705 -2.16563,10.2918 l -0.68987,2.9477 10.90262,-0.4477 c 10.13438,-0.4162 11.11537,-0.6949 13.9195,-3.955 z m -51.23287,40.6948 c 0.37837,-1.8907 3.88462,-18.625 7.79175,-37.1875 l 7.10387,-33.75 20.6145,-0.339 c 19.316,-0.3175 20.96875,-0.1601 26.2395,2.5 8.05475,4.0653 11.63663,11.3032 10.85713,21.9396 -0.71863,9.8058 -4.68213,16.2436 -13.01663,21.1428 -5.48675,3.2251 -7.1795,3.5416 -21.09162,3.9425 l -15.12613,0.4359 -2.13437,10.1891 c -3.336,15.9253 -2.15213,14.5641 -12.66638,14.5641 l -9.2595,0 0.68788,-3.4375 z m 904.08822,2.8128 c -6.9414,-2.2347 -14.0879,-9.5937 -15.9985,-16.4744 -2.2011,-7.9269 -2.2275,-7.9009 8.011,-7.9009 8.8565,0 9.3915,0.1604 10.1125,3.033 1.3592,5.4158 5.0447,7.5503 13.0364,7.5503 7.9843,0 12.5,-2.6159 12.5,-7.2411 0,-4.3465 -3.8338,-7.0374 -14.7848,-10.3777 -14.6349,-4.4639 -20.3996,-9.7476 -21.0855,-19.3258 -0.7931,-11.0748 6.3381,-20.3173 18.2233,-23.6187 5.8568,-1.6269 18.2515,-1.6089 24.1706,0.035 8.8226,2.4503 15.9764,11.0832 15.9764,19.2798 0,3.1014 -0.1862,3.1652 -9.2395,3.1652 -8.8474,0 -9.2733,-0.1345 -10.0349,-3.1692 -1.8924,-7.5399 -18.3831,-7.2439 -20.2926,0.3643 -1.0528,4.1944 1.3758,6.1762 10.9102,8.9028 17.0011,4.8619 23.5833,10.5678 24.6185,21.3414 0.9536,9.9257 -5.05,18.7329 -15.9617,23.4151 -6.3708,2.7337 -23.0843,3.2994 -30.1614,1.021 z m -65.7165,-14.8141 c 15.2817,-6.3851 21.5214,-35.7278 9.2386,-43.4458 -5.1384,-3.2289 -13.9549,-2.6427 -19.4856,1.2954 -8.898,6.336 -14.0558,25.8609 -9.2694,35.0892 2.2501,4.338 8.9223,8.7443 13.2469,8.748 1.2252,0 4.0465,-0.758 6.2695,-1.6868 z m -20.5304,14.8077 c -13.439,-4.3098 -20.8062,-17.6374 -19.4756,-35.2319 1.2279,-16.2346 9.4007,-29.3175 22.7589,-36.4316 5.569,-2.9658 7.612,-3.3286 18.75,-3.3295 9.8088,-7e-4 13.4418,0.5015 16.875,2.3328 6.1465,3.2786 9.8158,6.872 12.9341,12.6663 3.8431,7.1409 3.7132,25.6963 -0.2506,35.8088 -3.6643,9.3482 -11.1568,17.6354 -19.7422,21.8358 -8.5763,4.196 -22.8161,5.2464 -31.8496,2.3493 z m -263.7354,0.2316 c -7.668,-2.8676 -12.0575,-6.8665 -15.7167,-14.3182 -3.03,-6.1705 -3.5096,-8.6222 -3.4788,-17.7823 0.061,-18.0625 7.2267,-31.7229 20.5892,-39.2516 6.4157,-3.6147 7.71,-3.8734 19.375,-3.8734 11.3693,0 13.0261,0.3092 18.3166,3.4193 6.3557,3.7363 12.3084,13.3851 12.3084,19.9511 l 0,3.5046 -9.375,0 c -8.452,0 -9.375,-0.2393 -9.375,-2.4303 0,-1.3367 -1.3575,-4.0086 -3.0168,-5.9375 -2.5594,-2.9754 -3.967,-3.5072 -9.2834,-3.5072 -10.235,0 -16.2951,5.9147 -19.6486,19.1768 -2.5247,9.9848 -1.492,19.371 2.5791,23.4422 6.7313,6.7313 20.5995,3.9665 24.8308,-4.9503 l 2.1561,-4.5437 9.3113,0 9.3112,0 -2.4029,6.3238 c -3.5095,9.2363 -7.9178,14.2927 -15.8406,18.1689 -8.4046,4.112 -23.2409,5.3747 -30.6399,2.6078 z m -621.65905,-0.2157 c -6.39087,-2.2766 -10.6225,-5.4699 -14.24538,-10.7498 -3.82775,-5.5784 -3.42487,-11.0966 2.97988,-40.8225 l 4.91525,-22.8125 9.46738,0 9.46724,0 -5.52775,25.619 c -3.348,15.516 -5.20987,26.8862 -4.72137,28.8323 1.05575,4.2065 8.20475,7.3138 14.22737,6.1839 10.33413,-1.9387 12.69463,-6.5477 18.88975,-36.8852 2.17613,-10.6563 4.25188,-20.3594 4.61275,-21.5625 0.5485,-1.829 2.18288,-2.1875 9.97063,-2.1875 9.01537,0 9.29413,0.09 8.6765,2.8125 -0.35088,1.5468 -2.87363,13.4549 -5.606,26.4624 -7.00675,33.3555 -11.27488,40.8278 -25.82075,45.2054 -7.4335,2.2372 -20.86938,2.1902 -27.2855,-0.095 z m -83.75,0 c -2.71025,-0.9655 -6.3665,-2.8218 -8.125,-4.1251 -4.40437,-3.2645 -8.777,-11.311 -8.80163,-16.1972 l -0.0206,-4.0625 9.375,0 c 8.54163,0 9.375,0.2222 9.375,2.5 0,6.579 11.7845,10.6493 20.40462,7.0476 4.06363,-1.6979 4.59538,-2.4308 4.59538,-6.3334 0,-3.8831 -0.59475,-4.7169 -4.95025,-6.9388 -2.72263,-1.389 -5.514,-2.5254 -6.203,-2.5254 -3.0555,0 -15.47462,-5.4794 -18.84262,-8.3134 -7.8455,-6.6015 -7.42413,-20.1 0.88687,-28.411 5.54725,-5.5472 13.50763,-8.2756 24.14513,-8.2756 16.89525,0 25.601,5.9315 27.9785,19.0625 l 0.84862,4.6875 -10.05662,0 c -9.1255,0 -10.05663,-0.2249 -10.05663,-2.4292 0,-5.5847 -11.417,-8.4408 -17.29212,-4.3258 -2.11163,1.4791 -2.74938,2.9854 -2.46563,5.8237 0.36675,3.6679 0.89113,3.9919 12.50088,7.7219 16.71025,5.3687 22.25687,10.9969 22.25687,22.5844 0,6.969 -2.18825,11.4947 -8.0435,16.6358 -8.07412,7.0891 -26.15137,9.9201 -37.50925,5.874 z"
         style="fill:#00614d;fill-opacity:1"
         id="path4195"
         inkscape:connector-curvature="0" />
      <path
         id="path4193"
         d="m 1465.6797,104.92188 c -9.7378,-0.0451 -19.2579,0.39782 -28.1699,1.37695 -32.6974,3.59231 -64.9558,14.00826 -86.461,27.91992 -8.8131,5.70119 -20.3036,16.11981 -24.2597,21.99609 l -2.1036,3.125 -3.291,-4.375 c -5.921,-7.87059 -19.4468,-20.00684 -28.7773,-25.82226 -17.9151,-11.166 -50.6503,-20.15165 -83.252,-22.85156 -84.7057,-7.014949 -148.2578,13.08399 -180.6191,57.12304 l -5.75,7.82422 -5.3594,-10.32422 c -18.29515,-35.24366 -49.95858,-53.68911 -95.39061,-55.56836 -34.35425,-1.42104 -65.18777,6.59499 -87.76953,22.81836 l -6.10742,4.38672 -5.25,-4.50781 c -6.99013,-6.00332 -25.10917,-14.76599 -38.99805,-18.85938 -10.29188,-3.03325 -13.113,-3.3145 -33.125,-3.3125 -16.978,0.002 -23.69387,0.49545 -30,2.20508 -7.28287,1.97444 -18.29512,2.29807 -106.25,3.13086 -53.96875,0.51101 -128.79027,1.00355 -166.26953,1.09375 l -68.14453,0.16406 -16.66992,39.0625 c -9.16913,21.48437 -17.06778,39.48693 -17.55078,40.00586 -0.483,0.51892 -2.71589,-14.94983 -4.96289,-34.375 -2.24701,-19.42518 -4.39792,-37.42774 -4.7793,-40.00586 l -0.69336,-4.6875 -83.58984,0 c -69.66753,0 -83.58985,0.28354 -83.58985,1.70118 0,0.93552 1.17227,7.44944 2.60547,14.47656 1.43319,7.02712 2.30177,13.08104 1.92969,13.45312 -0.37209,0.37208 -3.37248,-1.69783 -6.66797,-4.59961 -16.70906,-14.71285 -41.22198,-24.0493 -77.867186,-29.6582 -20.53059,-3.14237 -64.24805,-3.10885 -83.1250002,0.0625 -40.6485368,6.829 -73.5861598,21.91403 -92.5371098,42.38281 -7.6416,8.25364 -8.417912,8.77736 -9.664062,6.51563 -2.842387,-5.15891 -18.170482,-19.81298 -26.677732,-25.50586 -11.14949,-7.461 -24.15753,-12.90632 -42.10938,-17.62695 -24.60742,-6.47079 -39.01832,-7.96727 -76.51172,-7.94727 -36.54858,0.0195 -49.13249,1.48078 -73.33789,8.52344 -32.72295,9.52088 -61.0588,28.32004 -76.03711,50.44531 -2.40625,3.5544 -4.68498,6.47839 -5.0625,6.49609 -0.37751,0.0177 -1.42917,-2.07813 -2.33789,-4.65625 -6.34,-17.98695 -25.46213,-38.55628 -44.95703,-48.35937 -41.55621,-20.896746 -103.75168,-16.56781 -140.69726,9.79297 -3.64865,2.60333 -6.72008,3.98644 -7.5,3.37695 -14.89369,-11.63896 -24.64423,-16.69208 -42.69532,-22.12305 -10.17943,-3.06265 -12.98516,-3.35285 -33,-3.41015 -18.22589,-0.0522 -23.84612,0.39427 -33.6914,2.67383 -11.5271,2.66896 -13.85627,2.73632 -95.07617,2.73632 l -83.25782,0 -34.61328,167.81836 c -19.0367,92.30018 -34.61133,168.2377 -34.61133,168.75 0,0.5123 37.40625,0.93164 83.125,0.93164 45.71875,0 83.125,-0.45055 83.125,-1.00195 0,-0.5514 9.26321,-44.25363 20.58594,-97.11523 21.3005,-99.444 22.07544,-102.27683 27.43359,-100.22071 1.08852,0.4177 1.98047,1.65475 1.98047,2.75 0,1.09525 -9.28125,44.91193 -20.625,97.36914 -11.34375,52.45721 -20.625,96.01528 -20.625,96.79688 0,1.0472 21.67512,1.42187 82.36329,1.42187 l 82.36523,0 0.68164,-2.8125 c 0.37452,-1.5469 9.77065,-45 20.88086,-96.5625 11.11021,-51.5625 20.85223,-95.14904 21.65039,-96.85937 1.68741,-3.61593 5.48734,-4.80682 6.54492,-2.05078 0.40104,1.04509 -8.60079,45.42167 -20.0039,98.61328 -11.40311,53.19161 -20.73243,97.37731 -20.73243,98.19141 0,1.1253 19.75515,1.48046 82.39649,1.48046 l 82.39844,0 2.69726,-12.1875 c 4.3062,-19.44644 3.75793,-18.71068 9.46094,-12.68164 8.98233,9.49585 33.18143,22.54837 50.54687,27.26368 25.86814,7.02409 56.61029,5.55159 90.76368,-4.34571 12.71489,-3.6846 12.98632,-3.69543 12.98632,-0.54883 0,2.476 0.83334,2.5 85,2.5 46.75,0 85.000004,-0.1703 85.000004,-0.3789 0,-0.2087 -1.968754,-6.226 -4.375004,-13.3711 -2.40625,-7.14519 -4.375,-13.46046 -4.375,-14.03515 0,-0.57469 2.95312,1.17683 6.5625,3.89258 14.661651,11.03161 35.892791,20.07924 58.507816,24.93554 20.345075,4.3688 36.118306,5.57644 63.621094,4.86914 42.128485,-1.0833 62.830301,-5.86128 93.80859,-21.65234 21.49227,-10.9556 33.39798,-19.67396 41.17383,-30.15234 5.70195,-7.68371 8.32543,-9.78406 7.08399,-5.66993 -1.52284,5.04671 -25.67577,134.56059 -25.18555,135.05078 0.82266,0.8227 19.29922,2.64964 39.42773,3.89844 29.48024,1.8291 84.69376,0.8666 98.75,-1.7207 30.4745,-5.6096 55.05045,-17.08552 71.22657,-33.26172 13.13738,-13.1374 23.026,-29.14037 49.375,-79.9043 10.17012,-19.59375 21.69984,-41.53125 25.62109,-48.75 3.92138,-7.21875 28.38682,-53.90625 54.36719,-103.75 25.98025,-49.84375 47.79787,-91.1875 48.48437,-91.875 0.83112,-0.83239 1.01221,-0.20597 0.54297,1.875 -0.3875,1.71875 -12.86017,62.1875 -27.7168,134.375 -14.85662,72.1875 -27.30638,132.2343 -27.66601,133.4375 -0.61825,2.068 3.88832,2.1875 82.4707,2.1875 78.07762,0 83.16626,-0.1329 83.79688,-2.1875 0.36938,-1.2032 9.71889,-44.57962 20.77539,-96.39257 11.05638,-51.81294 20.98006,-95.54731 22.05468,-97.1875 2.89701,-4.42133 6.66797,-3.95174 6.66797,0.83007 0,2.88942 -36.77362,176.01836 -40.76562,191.92383 l -0.75977,3.03125 82.89063,-0.32031 82.89062,-0.32227 20.94141,-96.875 c 11.51788,-53.28125 21.5177,-98.14063 22.2207,-99.6875 0.71237,-1.56756 2.39631,-2.8125 3.80469,-2.8125 1.94425,0 2.52734,0.82121 2.52734,3.56055 0,2.56942 -34.05407,164.75264 -40.6582,193.63672 l -0.64453,2.82031 82.81836,-0.32031 82.81836,-0.32227 2.99219,-13.75 c 1.6453,-7.56253 3.18572,-13.96999 3.42382,-14.23828 0.2383,-0.26829 2.61144,1.47984 5.27344,3.88477 14.95277,13.50894 37.01937,24.36419 59.58207,29.30859 19.2855,4.2262 52.9534,1.72674 79.6855,-5.91406 15.2184,-4.3498 15.959,-4.40352 15.959,-1.16602 0,2.475 0.8327,2.5 84.7891,2.5 l 84.789,0 -4.8066,-13.93945 c -2.6443,-7.66722 -4.5642,-14.18577 -4.2656,-14.48437 0.2987,-0.29858 3.5405,1.84452 7.205,4.76171 8.7004,6.92616 31.2262,17.67814 45.4141,21.67774 19.8713,5.6019 32.3532,7.2436 60.0859,7.9043 53.0299,1.2633 84.8937,-6.19519 123.4864,-28.90821 20.5608,-12.10065 32.8391,-26.07523 46.5937,-53.03125 7.4817,-14.66274 9.6121,-25.39538 9.7246,-48.98047 0.1279,-26.92254 -3.9056,-42.51715 -16.1211,-62.33007 -3.1048,-5.03575 -5.6445,-9.38547 -5.6445,-9.66407 0,-0.2786 8.4884,-0.50586 18.8633,-0.50586 l 18.8633,0 -0.4766,-30.3125 c -0.4605,-29.24599 -0.5989,-30.66434 -3.9356,-40.3125 -8.9389,-25.84687 -28.2401,-46.45896 -55.0371,-58.77734 -22.5157,-10.35034 -60.0661,-16.72963 -94.8437,-16.89062 z M 184.25195,251.39844 c 5.7323,-0.0384 9.9213,0.0775 10.15821,0.31445 1.08742,1.08741 25.33298,128.88254 25.33398,133.53516 0.001,3.59103 -0.71398,5.12854 -3.12305,6.70703 -1.83837,1.20455 -6.34223,2.19008 -10.9375,2.39453 -7.56263,0.33646 -36.09869,-1.55245 -39.47851,-2.61328 -1.22055,-0.3831 -0.61239,-2.27493 2.27539,-7.08399 7.20385,-11.99667 12.27088,-23.95441 14.2793,-33.69726 2.96981,-14.40653 2.69003,-43.60486 -0.54688,-57.10742 -2.69521,-11.24291 -9.73214,-27.24268 -16.00195,-36.38282 l -3.85938,-5.625 15.74219,-0.35156 c 2.16446,-0.0483 4.24744,-0.077 6.1582,-0.0898 z"
         style="fill:#00614d;fill-opacity:1"
         inkscape:connector-curvature="0" />
      <path
         id="path4191"
         d="m 270.3706,505.77378 c 35.991,-6.4507 55.0525,-17.6884 71.188,-41.9687 3.00262,-4.5184 41.85188,-77.96523 86.33162,-163.21523 44.47963,-85.25 81.3975,-155.99018 82.03963,-157.20041 1.1075,-2.08739 -1.70688,-2.18369 -54.799,-1.875 l -55.9665,0.32541 -35.28562,82.5 c -19.40713,45.375 -35.30763,81.72519 -35.33438,80.7782 -0.0275,-0.94699 -3.98625,-37.61823 -8.79875,-81.49163 -4.8125,-43.87341 -8.75,-80.36423 -8.75,-81.09071 0,-0.90734 -16.82754,-1.32086 -53.75,-1.32086 -49.05236,0 -53.75,0.17973 -53.75,2.05646 0,1.13105 10.97205,59.0255 24.38232,128.65433 22.87258,118.75898 24.29757,126.99306 23.01359,132.98003 -1.64806,7.68464 -5.72886,12.8707 -12.14905,15.43955 -6.83429,2.73455 -22.56369,3.70804 -37.74686,2.33615 -7.21875,-0.65225 -13.22534,-1.10183 -13.34796,-0.99908 -0.43514,0.3646 -16.35395,83.91339 -16.05346,84.25549 2.6111,2.9728 82.01032,2.841 98.77642,-0.164 z"
         style="fill:#ffffff"
         inkscape:connector-curvature="0" />
      <path
         id="path4189"
         d="m -304.60994,423.27936 c 20.29927,-4.41391 38.2559,-12.81635 49.65625,-23.23562 l 6.72489,-6.14617 1.52093,10.5193 c 0.83651,5.78563 1.84718,11.36952 2.24593,12.40864 0.63096,1.64425 7.5291,1.88934 53.17551,1.88934 l 52.4505,0 -0.90222,-2.8125 c -5.42438,-16.90948 -4.71672,-22.90676 11.30516,-95.80799 14.54884,-66.19875 18.79425,-93.51392 17.95242,-115.50663 -0.48042,-12.5514 -0.96738,-15.0058 -4.45648,-22.46184 -5.13614,-10.97566 -10.48289,-17.485 -19.88444,-24.20803 -19.6277,-14.03575 -43.66652,-20.48334 -86.45356,-23.18823 -49.43234,-3.12498 -90.98249,3.63528 -117.32446,19.08883 -4.00394,2.34892 -12.36314,9.3334 -18.57602,15.52107 -9.08043,9.04362 -12.42626,13.45696 -17.05788,22.50032 -4.94499,9.65522 -12.27099,29.46996 -12.27099,33.18953 0,0.7275 19.28053,1.18547 49.90836,1.18547 l 49.90838,0 3.00788,-6.57011 c 7.21684,-15.76365 23.6238,-23.73366 44.52645,-21.62962 17.55102,1.76668 26.39893,9.49426 26.39893,23.05628 0,11.03406 -4.40501,17.85581 -15,23.22954 -8.62311,4.37358 -16.90574,5.67245 -48.45922,7.59921 -32.20893,1.9668 -49.56119,4.16714 -68.66909,8.70752 -53.16859,12.63384 -77.87169,41.14249 -77.87169,89.86795 0,16.13888 1.5105,23.76792 6.99405,35.32457 9.65315,20.34413 30.62946,33.90663 59.83901,38.68966 12.46169,2.04059 39.26824,1.4082 51.3114,-1.21049 z"
         style="fill:#ffffff"
         inkscape:connector-curvature="0" />
      <path
         id="path4187"
         d="m -298.17006,360.67252 c -10.58453,-2.84487 -16.58289,-8.97431 -17.831,-18.22061 -1.09225,-8.09169 1.34679,-15.58789 7.10404,-21.83376 7.01552,-7.61095 14.17048,-10.25904 33.806,-12.51179 23.0616,-2.64581 31.64806,-4.55372 45.21262,-10.04625 2.52963,-1.02429 2.5735,-1.42813 -1.73034,15.92803 -6.52611,26.31796 -18.99291,41.59309 -37.98315,46.53942 -8.88858,2.31519 -20.2886,2.37302 -28.57817,0.14496 z"
         style="fill:#00614d;fill-opacity:1"
         inkscape:connector-curvature="0" />
      <path
         id="path4185"
         d="m 41.175657,424.89403 c 50.74257,-5.17749 88.293103,-25.83459 104.879493,-57.69578 7.40299,-14.22059 10.14245,-26.0559 10.20955,-44.1084 0.0962,-25.88389 -5.37252,-40.83855 -19.90572,-54.43364 -16.47067,-15.4075 -43.512783,-24.8656 -90.951773,-31.81079 -22.60856,-3.30994 -28.279372,-7.07341 -29.16791,-19.35747 -0.727813,-10.06181 2.524413,-15.37355 12.145587,-19.83692 5.648883,-2.62059 8.899363,-3.24709 16.985713,-3.27384 8.65938,-0.0286 10.99797,0.46938 17.44415,3.71479 9.33484,4.69977 12.17738,8.53927 12.916,17.44603 l 0.57442,6.92684 48.159043,0 48.15904,0 -0.76451,-12.1875 c -1.33688,-21.31147 -7.41491,-35.6309 -20.20068,-47.59136 -20.64382,-19.31128 -53.007753,-28.15831 -103.162463,-28.20058 -38.465537,-0.0324 -62.987763,4.47369 -86.875,15.9638 -26.778888,12.88104 -42.33365,31.03332 -49.561788,57.8382 -3.928212,14.56743 -3.907025,40.37371 0.0425,51.67744 3.733063,10.68436 8.914163,18.62702 16.909338,25.92218 13.322512,12.15603 27.048725,17.32702 62.412387,23.51218 42.083623,7.36052 50.037433,9.94393 55.510123,18.02987 6.90991,10.20942 -0.19471,25.25254 -14.26779,30.21021 -5.980845,2.10692 -24.14002,2.06566 -31.66970801,-0.072 C -9.275053,354.6515 -17.754341,342.80989 -17.754341,331.38229 l -6.2e-5,-3.91744 -49.5595,0 -49.559497,0 0.81623,11.61194 c 3.67838,52.32916 38.975017,80.61954 107.677767,86.3041 11.894162,0.98413 37.614913,0.73143 49.55506,-0.48687 z"
         style="fill:#ffffff"
         inkscape:connector-curvature="0" />
      <path
         id="path4183"
         d="m 1115.9956,423.0465 c 18.9017,-4.14057 36.9823,-12.84935 50.0111,-24.0885 l 6.2389,-5.38185 0,5.48587 c 0,3.01723 0.6401,8.67344 1.4226,12.56935 l 1.4225,7.08348 52.4732,0 52.4733,0 -0.855,-2.8125 c -0.4701,-1.54688 -1.4366,-7.59375 -2.1478,-13.4375 -1.431,-11.76073 -0.9876,-14.33853 15.6967,-91.25 11.3577,-52.35699 17.0145,-86.39959 17.0145,-102.39341 0,-31.95945 -19.2718,-54.42498 -56.25,-65.57194 -37.9338,-11.43499 -104.4272,-12.37103 -142.2697,-2.00275 -17.866,4.89504 -34.4838,13.65364 -46.4968,24.50674 -11.8615,10.71609 -23.1995,29.39819 -28.6185,47.15553 -4.5273,14.83558 -9.9487,13.30583 47.155,13.30583 l 49.77,0 2.8488,-6.87337 c 3.5102,-8.46895 11.5513,-15.88918 20.523,-18.93823 4.3232,-1.46925 10.401,-2.21137 18.3563,-2.24137 10.7516,-0.0406 12.6114,0.31379 19.375,3.69156 6.0356,3.01413 8.0427,4.82377 10.3836,9.36141 5.7044,11.05823 1.2323,25.15471 -10.0612,31.71321 -8.9159,5.17775 -19.3992,7.02869 -50.7029,8.95215 -52.8216,3.24563 -79.1004,8.55128 -102.8561,20.76658 -25.1219,12.91781 -39.6555,33.47019 -43.62597,61.69306 -4.117,29.26403 2.013,51.88751 18.42647,68.00536 12.3622,12.13959 27.7007,19.06556 50.0605,22.60443 10.1706,1.60971 39.2206,0.50911 50.2325,-1.90314 z"
         style="fill:#ffffff"
         inkscape:connector-curvature="0" />
      <path
         id="path4181"
         d="m 1120.3907,360.4596 c -12.2133,-3.90306 -16.9166,-10.01893 -16.8676,-21.93366 0.075,-18.20058 13.5446,-28.3024 40.5975,-30.44614 12.8367,-1.01721 32.6817,-4.98404 40.6535,-8.12619 7.433,-2.92982 7.32,-3.38995 3.1777,12.93951 -5.9489,23.45092 -15.3802,37.42772 -30.1686,44.70801 -6.9181,3.40579 -9.6735,4.02501 -19.606,4.40604 -8.1835,0.31394 -13.375,-0.13775 -17.7865,-1.54757 z"
         style="fill:#00614d;fill-opacity:1"
         inkscape:connector-curvature="0" />
      <path
         id="path4179"
         d="m 1474.1578,423.2223 c 53.3221,-9.1127 88.2816,-35.86191 99.0099,-75.75745 3.3896,-12.60494 3.0652,-40.28499 -0.6095,-52.02505 -10.356,-33.08468 -41.5626,-49.60833 -111.8711,-59.23501 -19.1049,-2.61587 -26.6719,-9.02197 -25.568,-21.64556 0.8872,-10.14589 8.1165,-17.07515 20.4952,-19.64498 19.2226,-3.99059 37.5124,4.8984 39.669,19.27944 0.4754,3.1701 0.5156,6.32797 0.09,7.01749 -0.5134,0.82995 15.5151,1.25367 47.4235,1.25367 l 48.1988,0 0,-9.93847 c 0,-41.99297 -27.8475,-67.76609 -81.6708,-75.58715 -47.3771,-6.88436 -99.8476,-1.24847 -130.2042,13.98529 -23.9803,12.03397 -41.0783,32.27436 -47.762,56.54033 -1.7132,6.21931 -2.2313,12.66934 -2.209,27.5 0.025,16.94369 0.3798,20.31615 2.8243,26.875 7.6859,20.6216 24.7763,34.78861 50.471,41.83788 5.2475,1.43963 20.7088,4.5362 34.3583,6.88122 37.6535,6.46897 47.0359,10.18922 51.2732,20.33074 3.5547,8.50752 -2.4621,20.32836 -12.9843,25.5097 -5.0887,2.50574 -7.8195,2.93419 -18.4715,2.898 -10.8072,-0.0367 -13.461,-0.48723 -19.5964,-3.32664 -8.7131,-4.03235 -13.0296,-10.00677 -15.0399,-20.81623 l -1.43,-7.68967 -48.5294,0 -48.5293,0 0.013,9.6875 c 0.013,11.84586 3.6847,27.79561 8.684,37.69905 14.041,27.81501 45.6096,44.97699 91.9322,49.97799 15.5523,1.67902 56.2769,0.74455 70.0373,-1.60709 z"
         style="fill:#ffffff"
         inkscape:connector-curvature="0" />
      <path
         id="path4177"
         d="m -788.00453,335.26764 c 19.21136,-89.66558 20.5684,-94.37107 29.91056,-103.71322 8.35321,-8.35321 15.28128,-10.96457 29.08957,-10.96457 10.19933,0 12.52394,0.40352 16.47381,2.85964 9.26791,5.76298 11.86393,17.89737 7.89015,36.88056 -1.03731,4.95539 -9.10669,42.47855 -17.93194,83.3848 l -16.04589,74.375 53.1267,0.32608 c 29.21968,0.17933 53.30341,0.14936 53.51938,-0.0666 0.21598,-0.21597 8.79409,-39.23438 19.06248,-86.70754 11.36662,-52.55062 19.68968,-88.31402 21.27706,-91.42552 6.03977,-11.83895 17.60124,-19.05426 32.01369,-19.97919 14.23625,-0.91363 22.57606,3.02688 26.99415,12.75454 4.89434,10.77629 3.53108,19.99331 -17.54174,118.60043 -7.61081,35.61372 -13.83785,65.29164 -13.83785,65.95094 0,0.75134 19.90236,1.07709 53.32548,0.87281 l 53.32547,-0.32592 17.23898,-81.23041 c 22.04032,-103.85445 22.8449,-108.50978 21.93126,-126.89459 -0.3929,-7.90625 -1.5673,-17.46875 -2.60979,-21.25 -5.84047,-21.18434 -20.24801,-38.27289 -39.08864,-46.36242 -13.06608,-5.61013 -26.10195,-7.81024 -45.99776,-7.76321 -22.1738,0.0524 -32.28026,2.2641 -50,10.94195 -12.1243,5.9376 -29.25533,18.8913 -35.63356,26.9445 -3.99831,5.04828 -6.24063,6.27916 -6.24243,3.42668 -5.4e-4,-0.85938 -1.59921,-4.9375 -3.55261,-9.0625 -6.91545,-14.60342 -22.81187,-25.85361 -42.6964,-30.21702 -14.27111,-3.13161 -41.48193,-2.78794 -54.375,0.68676 -19.49876,5.25493 -37.50897,15.70302 -51.93381,30.12786 l -8.2499,8.2499 2.88928,-14.42375 c 1.58912,-7.93306 3.18804,-15.68938 3.55318,-17.23625 l 0.66387,-2.8125 -51.81457,0 c -48.2708,0 -51.85822,0.14961 -52.45267,2.1875 -0.68346,2.34303 -57.03038,273.79697 -57.03038,274.74654 0,0.31127 24.04688,0.56158 53.4375,0.55625 l 53.4375,-0.01 17.87487,-83.42779 z"
         style="fill:#ffffff"
         inkscape:connector-curvature="0" />
      <path
         id="path4175"
         d="m 613.4956,418.26017 c 0,-1.74558 34.20737,-159.09266 35.764,-164.50769 6.06988,-21.11375 18.8675,-32.36228 38.13437,-33.51839 10.73576,-0.6442 16.78188,0.86096 22.37988,5.57138 4.994,4.20217 7.99987,14.4756 6.81387,23.28867 -0.48087,3.57263 -8.68574,42.66806 -18.23312,86.87871 -9.5475,44.21065 -17.359,80.91981 -17.359,81.57591 0,0.74369 20.08988,1.07019 53.34763,0.86701 l 53.34762,-0.32592 18.47575,-85.625 c 10.16162,-47.09375 19.58625,-87.95316 20.94362,-90.7987 6.09875,-12.78506 17.35063,-20.39516 31.68225,-21.42802 4.92075,-0.35464 10.76738,0.0498 14.06426,0.97283 9.44362,2.64404 16.859,13.1465 16.88187,23.90973 0.015,6.7737 -5.65513,36.21551 -19.46738,101.09416 -7.8305,36.78125 -14.53787,68.14062 -14.90525,69.6875 l -0.66799,2.8125 53.77375,0 c 29.5756,0 53.7739,-0.48053 53.7739,-1.06784 0,-0.5873 7.3532,-35.60292 16.3405,-77.8125 8.9873,-42.20956 17.749,-84.33841 19.4705,-93.61966 7.51677,-40.527 1.6182,-70.48933 -17.5949,-89.375 -13.0344,-12.81211 -28.8241,-19.37377 -52.84376,-21.95991 -37.507,-4.03831 -70.69537,7.75159 -96.3175,34.21594 -8.8725,9.16413 -9.08712,9.29611 -9.84675,6.05613 -1.56,-6.6528 -8.53462,-17.97379 -14.2255,-23.09036 -7.24612,-6.51487 -17.18637,-11.45726 -29.724,-14.77897 -11.895,-3.15143 -40.48162,-3.825 -52.13362,-1.22838 -20.11388,4.48229 -39.42363,15.14686 -55.3125,30.54847 -4.98438,4.83152 -9.0625,8.48562 -9.0625,8.12023 0,-0.3654 1.40625,-7.56906 3.125,-16.00815 1.71875,-8.43909 3.125,-15.82894 3.125,-16.4219 0,-0.59295 -23.34375,-1.0781 -51.875,-1.0781 -28.80487,0 -51.875,0.48636 -51.875,1.09362 0,0.9576 -55.36575,268.54927 -56.73688,274.21888 -0.49762,2.05756 2.65663,2.1875 53.10388,2.1875 29.49813,0 53.633,-0.2046 53.633,-0.45468 z"
         style="fill:#ffffff"
         inkscape:connector-curvature="0" />
    </g>
  </g>
</svg>
