<?xml version="1.0" encoding="UTF-8" standalone="no"?>
<!-- Created with Inkscape (http://www.inkscape.org/) -->

<svg
   xmlns:dc="http://purl.org/dc/elements/1.1/"
   xmlns:cc="http://creativecommons.org/ns#"
   xmlns:rdf="http://www.w3.org/1999/02/22-rdf-syntax-ns#"
   xmlns:svg="http://www.w3.org/2000/svg"
   xmlns="http://www.w3.org/2000/svg"
   xmlns:sodipodi="http://sodipodi.sourceforge.net/DTD/sodipodi-0.dtd"
   xmlns:inkscape="http://www.inkscape.org/namespaces/inkscape"
   width="122.83157"
   height="24.913031"
   id="svg119788"
   version="1.1"
   inkscape:version="0.47 r22583"
   sodipodi:docname="New document 3">
  <defs
     id="defs119790">
    <inkscape:perspective
       sodipodi:type="inkscape:persp3d"
       inkscape:vp_x="0 : 526.18109 : 1"
       inkscape:vp_y="0 : 1000 : 0"
       inkscape:vp_z="744.09448 : 526.18109 : 1"
       inkscape:persp3d-origin="372.04724 : 350.78739 : 1"
       id="perspective119796" />
    <inkscape:perspective
       id="perspective119774"
       inkscape:persp3d-origin="0.5 : 0.33333333 : 1"
       inkscape:vp_z="1 : 0.5 : 1"
       inkscape:vp_y="0 : 1000 : 0"
       inkscape:vp_x="0 : 0.5 : 1"
       sodipodi:type="inkscape:persp3d" />
    <clipPath
       clipPathUnits="userSpaceOnUse"
       id="clipPath178">
      <path
         d="m 1268.504,564.009 102.283,0 0,23.945 -102.283,0 0,-23.945 z"
         id="path180" />
    </clipPath>
  </defs>
  <sodipodi:namedview
     id="base"
     pagecolor="#ffffff"
     bordercolor="#666666"
     borderopacity="1.0"
     inkscape:pageopacity="0.0"
     inkscape:pageshadow="2"
     inkscape:zoom="7.522496"
     inkscape:cx="61.415785"
     inkscape:cy="12.456516"
     inkscape:document-units="px"
     inkscape:current-layer="layer1"
     showgrid="false"
     inkscape:window-width="1024"
     inkscape:window-height="678"
     inkscape:window-x="-4"
     inkscape:window-y="-4"
     inkscape:window-maximized="1" />
  <metadata
     id="metadata119793">
    <rdf:RDF>
      <cc:Work
         rdf:about="">
        <dc:format>image/svg+xml</dc:format>
        <dc:type
           rdf:resource="http://purl.org/dc/dcmitype/StillImage" />
        <dc:title></dc:title>
      </cc:Work>
    </rdf:RDF>
  </metadata>
  <g
     inkscape:label="Layer 1"
     inkscape:groupmode="layer"
     id="layer1"
     transform="translate(-127.15563,-445.61997)">
    <g
       id="g170"
       transform="matrix(1.25,0,0,-1.25,249.49813,470.03747)">
      <path
         d="M 0,0 -97.874,0.005 -97.873,19.534 0.001,19.528 0,0 z"
         style="fill:#fdd804;fill-opacity:1;fill-rule:nonzero;stroke:none"
         id="path172" />
    </g>
    <g
       transform="matrix(1.25,0,0,-1.25,-1460.9853,1178.0555)"
       id="g174">
      <g
         id="g176"
         clip-path="url(#clipPath178)">
        <g
           id="g182"
           transform="translate(1339.0649,572.9343)">
          <path
             d="m 0,0 4.537,0 0.004,2.401 2.354,0 L 6.891,0 l 4.372,0 0.011,7.027 -4.372,0 L 6.898,4.451 4.544,4.45 4.548,7.027 0,7.027 0,0 z m -13.3,0 4.39,0 0.602,1.528 3.284,10e-4 L -4.452,0 0,0 -3.778,7.027 -9.494,7.027 -13.3,0 z m 26.33,0 0.012,7.027 8.459,0 c 3.89,10e-4 3.711,-4.306 0.275,-4.307 L 24.768,0 19.841,0 17.756,2.37 17.406,2.36 17.402,0 13.03,0 z m 4.381,5.102 -0.003,-1.403 1.465,0 c 1.436,0.001 1.438,1.404 0.002,1.404 L 17.411,5.102 z m -37.336,0.352 -0.002,-1.011 1.868,0 c 0.63,0.001 0.838,0.113 0.839,0.505 10e-4,0.361 -0.208,0.506 -0.837,0.506 l -1.868,0 z m -0.004,-2.523 -0.002,-1.189 1.868,0.001 c 0.708,0 0.838,0.299 0.839,0.593 0,0.295 -0.141,0.596 -0.837,0.596 L -19.929,2.931 z M -24.301,0 l 0,7.027 8.162,0 c 2.193,0 3.248,-0.428 3.246,-1.739 -0.002,-1.381 -1.496,-1.729 -1.903,-1.729 0.519,0 1.899,-0.521 1.897,-1.725 C -12.901,0.19 -13.833,0 -16.151,0 l -8.15,0 z m 17.633,5.717 0.028,0 0.944,-2.502 -1.968,0 0.996,2.502 z m -37.636,-0.033 0.027,0 1.008,-2.477 -1.999,0 0.964,2.477 z M -34.774,0 -33.221,2.078 -31.675,0 l 4.693,0 -3.696,3.601 3.429,3.426 -4.44,0 -1.269,-2.004 -1.32,2.004 -4.599,0 3.133,-3.427 -2.52,-2.408 -3.12,5.835 -5.716,0 -3.805,-7.027 4.39,0 0.602,1.52 3.221,0 0.585,-1.52 7.333,0 z m -29.224,0 4.209,0 0.007,4.042 0.034,0 1.302,-4.042 1.95,0 1.31,4.043 0.031,0 -0.016,-4.043 4.22,0 0.011,7.027 -5.448,0 -1.064,-3.392 -0.031,0 -1.002,3.392 -5.513,0 0,-7.027 z"
             style="fill:#2350a9;fill-opacity:1;fill-rule:nonzero;stroke:none"
             id="path184" />
        </g>
        <path
           d="m 1368.388,585.751 0.39,0 0,-19.733 -0.39,0 0,19.733 z"
           style="fill:#908876;fill-opacity:1;fill-rule:nonzero;stroke:none"
           id="path186" />
        <path
           d="m 1270.681,566.422 98.097,0 0,-0.403 -98.097,0 0,0.403 z"
           style="fill:#908876;fill-opacity:1;fill-rule:nonzero;stroke:none"
           id="path188" />
      </g>
    </g>
  </g>
</svg>
