<?xml version="1.0" encoding="UTF-8" standalone="no"?>
<svg
   id="Layer_1"
   data-name="Layer 1"
   viewBox="0 0 585.34 559"
   version="1.1"
   sodipodi:docname="Meijer 1966 logo.svg"
   xml:space="preserve"
   inkscape:version="1.3.2 (091e20e, 2023-11-25)"
   xmlns:inkscape="http://www.inkscape.org/namespaces/inkscape"
   xmlns:sodipodi="http://sodipodi.sourceforge.net/DTD/sodipodi-0.dtd"
   xmlns="http://www.w3.org/2000/svg"
   xmlns:svg="http://www.w3.org/2000/svg"><sodipodi:namedview
     id="namedview10"
     pagecolor="#ffffff"
     bordercolor="#666666"
     borderopacity="1.0"
     inkscape:showpageshadow="2"
     inkscape:pageopacity="0.0"
     inkscape:pagecheckerboard="0"
     inkscape:deskcolor="#d1d1d1"
     inkscape:zoom="0.76875549"
     inkscape:cx="239.34788"
     inkscape:cy="223.73824"
     inkscape:window-width="1728"
     inkscape:window-height="1051"
     inkscape:window-x="0"
     inkscape:window-y="38"
     inkscape:window-maximized="0"
     inkscape:current-layer="Layer_1" /><defs
     id="defs1"><style
       id="style1">
      .cls-1 {
        fill: #fff;
      }
    </style></defs><path
     d="m 331.12,0 c 0.76,1.21 2.77,0.73 4.01,0.74 63.41,0.68 152.6,9.12 212.79,28.29 2.63,0.84 8.33,2.08 9.52,4.37 12.4,55.57 20.23,112.48 24.25,169.38 6.61,93.64 0.03,190.82 -16.29,283.28 -0.96,5.42 -6.66,39.07 -8.85,40.84 -79.08,17.69 -160,27.96 -241.16,30.61 -75.18,2.45 -152.37,-5.27 -226.23,-18.44 -20.87,-3.72 -41.56,-8.05 -62.18,-12.89 -0.926985,-4.4001 -1.313177,-6.32617 -1.512027,-7.36042 C 25.269123,517.78532 25.257615,517.64287 25.08,516.81 21.88,505.37 20.4,490.84 18.58,478.86 8.68,413.46 1.75,344.88 0.93,278.76 0.91,277.52 1.4,275.51 0.19,274.75 0.63,263.66 -0.4,252.18 0.19,241.14 2.13,204.87 5.45,167.44 9.78,131.26 13.75,98.07 19.1,64.97 25.89,32.29 65.32,22.34 105.64,15.43 146.04,10.34 188.88,4.93 234.14,1.56 277.06,0 Z m -86.21,417.97 h 103 l 0.7,-249.57 c 3.99,-32.96 50.78,-41.62 65.18,-11.07 0.7,1.49 3.52,8.58 3.52,9.64 V 418.7 l 103.74,-0.73 0.72,-256.11 C 516.78,107.87 480.7,59.68 428.83,42.92 383.95,28.41 336.14,36.69 299.21,65.66 254.48,27.77 190.51,27.42 140.43,55.15 103.72,75.48 79.44,112.08 73.94,153.78 l -0.38,261.31 100.5,-0.04 c -0.51,-83.22 0.76,-166.29 0.79,-249.48 8.15,-37.11 62.68,-35.63 68.53,2.21 l 0.77,246.21 0.77,3.98 z M 140.45,518.81 h 17.17 c 0.52,-0.32 0.7725,-0.685 0.91,-1.1025 0.1375,-0.4175 0.16,-0.8875 0.22,-1.4175 1.12,-9.53 0.54,-33.38 -0.94,-42.97 -2.85,-18.42 -29.29,-25.66 -42.56,-13.71 -5.83,-7.72 -22.74,-7.63 -30.55,-3.5 -2.26,1.195 -5.4875,4.42 -8.15,7.955 -2.6625,3.535 2.729521,8.05877 2.010326,10.38513 L 71.79,496.35 v 22.47 h 17.53 v -39.09 c 0,-8.64 11.4,-10.42 15.52,-3.1 1.19,13.43 1.45,26.88 1.28,40.37 l 1.1,1.83 h 16.44 c 0.17,-6.44 -0.22,-12.94 -0.03,-19.39 0.18,-6.16 0.07,-15.46 0.74,-21.18 0.92,-7.77 12.56,-8.05 14.81,-2.36 0.25,0.65 1.28,5.57 1.28,6.03 v 36.9 z m 103,-62.84 h -46.39 c -4.93,0 -17.72,12.25 -19.52,17.01 -2.21,5.85 -1.86,26.33 0,32.48 1.44,4.79 7.16,9.09 11.59,11.06 0.86,0.38 5.43,2.3 5.74,2.3 h 48.21 c 1.66,-1.02 0.37,-1.57 0.37,-1.83 v -13.52 h -44.57 v -8.35 l 44.57,-1.15 v -12.79 l -1.1,-1.1 h -43.47 l -0.55,-7.7 0.92,-1.06 h 44.2 z m 113.24,0 h -18.63 c -1.04,0.64 9.82011,7.75443 9.70011,8.81443 -1.47,12.54 -8.89011,20.62557 -10.03011,33.23557 -0.18,2.04 -0.54,4.5 -2.76,5.28 -3.69,1.31 -18,1.43 -21.56,-0.02 -3.32,-1.36 -1.67,-5.76 -2.01,-8.58 l -17.47679,-0.0981 c -0.0858,2.38761 -0.19321,6.59565 0.0543,11.0219 0.2475,4.42625 1.2425,8.77625 2.7725,10.46625 1.53,1.69 6.11,2.56 8.41,2.75 7.8,0.67 37.29,1 43.65,-0.97 3.96,-1.22 6.59,-3.98 7.17,-8.18 z m 82.54,0 h -44.2 c -6.52,0 -19.26,11.06 -21.7,17.02 -2.37,5.77 -1.87,28.16 0.52,34.13 1.61,4.02 11.42,11.7 15.34,11.7 h 50.04 v -15.35 h -44.56 v -8.77 h 43.47 c 1.55,-1.81 1.51,-13.73 0.26,-14.51 l -43.73,0.63 -0.72,-8.77 45.29,-0.74 v -15.35 z m 78.9,62.84 v -18.63 c 0,-1.6 -4.5,-6.01 -5.81,-7.31 12.37,-13 6.26,-33.61 -11.75,-36.57 -11.6,-1.91 -26.24,0.89 -37.94,-0.33 l -0.74,62.84 h 18.26 v -17.54 h 19.36 c 0.73,0 3.29,2.55 3.29,3.29 v 14.25 h 15.34 z M 282.9,456.7 h -16.44 l -1.1,1.1 v 59.92 l 1.1,1.1 h 16.44 v -62.11 z"
     id="path1"
     style="fill:#ef0d1c;fill-opacity:1"
     sodipodi:nodetypes="ccccccccccscccccccccccccccscccccccccccccccscccccsscccscccccccscccscccscscccccccccccccccccccsscccccsccsccccccccccccsccccccsscccccccccc" /><path
     class="cls-1"
     d="M244.91,417.97l-.77-3.98-.77-246.21c-5.85-37.84-60.38-39.32-68.53-2.21-.03,83.19-1.29,166.26-.79,249.48l-100.5.04.38-261.31c5.5-41.7,29.78-78.3,66.49-98.63,50.08-27.74,114.05-27.39,158.78,10.51,36.94-28.97,84.74-37.25,129.62-22.74,51.87,16.77,87.95,64.95,92.94,118.94l-.72,256.11-103.74.73v-251.73c0-1.06-2.81-8.15-3.52-9.64-14.39-30.54-61.19-21.89-65.18,11.07l-.7,249.57h-103Z"
     id="path4" /><path
     class="cls-1"
     d="m 140.45,518.81 v -36.9 c 0,-0.46 -1.03,-5.38 -1.28,-6.03 -2.25,-5.69 -13.89,-5.41 -14.81,2.36 -0.68,5.72 -0.56,15.02 -0.74,21.18 -0.19,6.45 0.2,12.95 0.03,19.39 h -16.44 l -1.1,-1.83 c 0.17,-13.49 -0.09,-26.94 -1.28,-40.37 -4.12,-7.32 -15.52,-5.54 -15.52,3.1 V 518.8 H 71.78 v -22.47 -22.47 c 0,9.85742 -1.029364,-5.64332 5.103249,-11.07733 0.82718,-0.73295 4.441915,-4.89503 7.806751,-6.69267 7.81,-4.13 24.72,-4.21 30.55,3.5 13.27,-11.95 39.71,-4.7 42.56,13.71 0.74,4.8 1.32195,17.97357 1.16724,21.04906 -0.49126,9.76598 0.33472,15.30463 -0.18943,24.44391 -0.009,0.1632 -0.51501,0.0169 -1.16782,0.005 l -17.17,-0.008 z"
     id="path5"
     sodipodi:nodetypes="cscccccccscccsscccssccc" /><path
     class="cls-1"
     d="M439.23,455.97v15.35l-45.29.74.72,8.77,43.73-.63c1.25.78,1.29,12.7-.26,14.51h-43.47v8.77h44.56v15.35h-50.04c-3.92,0-13.73-7.67-15.34-11.7-2.39-5.97-2.89-28.36-.52-34.13,2.44-5.96,15.19-17.02,21.7-17.02h44.2Z"
     id="path6" /><path
     class="cls-1"
     d="M243.45,455.97v15.35h-44.2l-.92,1.06.55,7.7h43.47l1.1,1.1v12.79l-44.57,1.15v8.35s44.57,0,44.57,0v13.52c0,.26,1.3.81-.37,1.83h-48.21c-.31,0-4.88-1.91-5.74-2.3-4.43-1.97-10.15-6.27-11.59-11.06-1.85-6.15-2.21-26.62,0-32.48,1.8-4.76,14.59-17.01,19.52-17.01h46.39Z"
     id="path7" /><path
     class="cls-1"
     d="m 518.13,518.81 h -15.34 v -14.25 c 0,-0.73 -2.55,-3.29 -3.29,-3.29 h -19.36 v 17.54 h -18.26 l 0.74,-62.84 c 6.28986,0.007 12.44058,-0.18658 19.01125,-0.0975 5.38254,0.073 10.79136,0.66834 18.92875,0.4275 18.02,2.97 24.13,23.57 11.75,36.57 1.31,1.3 5.81,5.71 5.81,7.31 v 18.63 z M 480.14,485.2 h 18.63 c 4.74,0 5.39,-13.88 0,-13.88 h -18.63 z"
     id="path8"
     sodipodi:nodetypes="ccssccccsccscccsscc" /><path
     class="cls-1"
     d="m 356.69,455.97 -0.71,53.72 c -0.58,4.2 -3.21,6.96 -7.17,8.18 -6.35,1.96 -35.85,1.64 -43.65,0.97 -2.29,-0.2 -6.88,-1.06 -8.41,-2.75 -1.53,-1.69 -2.58635,-6.0375 -2.89519,-10.4625 -0.30885,-4.425 0.1298,-8.9275 1.5898,-10.9275 H 311.4 c 0.34,2.82 -1.31,7.23 2.01,8.58 3.56,1.45 17.87,1.33 21.56,0.02 2.22,-0.79 2.57,-3.24 2.76,-5.28 0.565,-6.305 0.77434,-16.82162 0.6482,-23.57961 -0.1331,-7.13065 -0.16224,-7.50275 -0.29892,-13.8753 0.0683,-0.60317 -0.15278,-4.51294 -0.0193,-4.59509 z"
     id="path9"
     sodipodi:nodetypes="ccccsscccccsccc" /><polygon
     class="cls-1"
     points="282.9 456.7 282.9 518.81 266.47 518.81 265.37 517.71 265.37 457.8 266.47 456.7 282.9 456.7"
     id="polygon9" /><path
     d="M480.14,485.2v-13.88h18.63c5.39,0,4.74,13.88,0,13.88h-18.63Z"
     id="path10"
     style="fill:#ef0d1c;fill-opacity:1" /></svg>
