<?xml version="1.0" encoding="UTF-8" standalone="no"?>
<!-- Generator: Adobe Illustrator 26.0.2, SVG Export Plug-In . SVG Version: 6.00 Build 0)  -->

<svg
   version="1.1"
   id="Ebene_1"
   x="0px"
   y="0px"
   viewBox="0 0 1813.4186 492.22416"
   xml:space="preserve"
   width="1813.4186"
   height="492.22415"
   xmlns="http://www.w3.org/2000/svg"
   xmlns:svg="http://www.w3.org/2000/svg"><defs
   id="defs9" />
<style
   type="text/css"
   id="style2">
	.st0{fill-rule:evenodd;clip-rule:evenodd;fill:#FFE500;}
</style>
<g
   id="g3366"
   transform="matrix(0.9,0,0,0.9,91.740602,94.216707)"><rect
     style="fill:#002d72;fill-opacity:1;stroke:#000000;stroke-width:0.637886"
     id="rect1880"
     width="2014.2716"
     height="546.27783"
     x="-101.61506"
     y="-104.36629" /><path
     class="st0"
     d="m 242.29751,336.607 68.6,-211.4 v 211.4 h 103.6 v -336 h -140 l -67.2,168 -65.8,-168 H 1.4975124 v 336 H 105.09751 v -211.4 l 70,211.4 z m 1110.19999,-130.2 c 32.2,-2.8 64.4,-25.2 64.4,-61.6 v -75.6 -7 c -4.2,-37.8 -32.2,-58.8 -64.4,-61.6 h -266 v 336 h 103.6 v -130.2 h 40.6 l 67.2,130.2 h 119 l -79.8,-130.2 z m -28,-88.2 c 0,7 -1.4,14 -14,14 h -120.4 v -65.8 h 120.4 c 14,0 14,9.8 14,15.4 z m -599.19999,-51.8 v -65.8 h -268.8 v 336 h 271.6 v -65.8 h -168 v -71.4 h 165.2 v -65.8 h -165.2 v -67.2 z m 128.8,0 h -98 v -65.8 h 299.59999 v 65.8 h -97.99999 v 270.2 h -103.6 z m 888.99999,-65.8 h -219.8 c -33.6,2.8 -60.2,19.6 -64.4,57.4 v 217 c 4.2,37.8 32.2,58.8 64.4,60.2 h 219.8 c 33.6,-2.8 60.2,-22.4 64.4,-60.2 v -217 c -4.2,-37.8 -32.2,-54.6 -64.4,-57.4 z m -39.2,254.8 c 0,4.2 -1.4,14 -14,15.4 h -112 c -12.6,-1.4 -15.4,-11.2 -15.4,-15.4 v -175 c 0,-4.2 2.8,-11.2 15.4,-12.6 h 112 c 12.6,1.4 14,9.8 14,12.6 z"
     id="path4"
     style="stroke-width:14" /></g>
</svg>
