<?xml version="1.0" encoding="UTF-8" standalone="no"?>
<!-- Created with Inkscape (http://www.inkscape.org/) -->
<svg
   xmlns:svg="http://www.w3.org/2000/svg"
   xmlns="http://www.w3.org/2000/svg"
   version="1.0"
   width="1098.4252"
   height="234.92125"
   id="svg2">
  <defs
     id="defs4" />
  <g
     transform="translate(-829.77515,801.94112)"
     id="layer1">
    <path
       d="M 1904.2409,-720.48799 C 1907.4294,-766.63372 1860.7678,-784.18601 1821.2571,-784.18601 C 1781.2098,-784.18601 1738.366,-770.24528 1736.2404,-724.89412 C 1736.2404,-704.20492 1746.9616,-684.59917 1766.3197,-676.10684 C 1807.9561,-657.81159 1851.4293,-661.79459 1851.4293,-638.3296 C 1851.4293,-618.88897 1833.5467,-615.94814 1821.3396,-615.94814 C 1802.2498,-615.94814 1788.9076,-631.71528 1789.1656,-649.74221 L 1734.414,-649.69061 C 1734.414,-598.34426 1776.1639,-584.77498 1820.7205,-584.77498 C 1865.0089,-584.77498 1910.4838,-603.15279 1910.4838,-643.45806 C 1910.4838,-695.17594 1858.5699,-700.52112 1826.4784,-708.74521 C 1812.4242,-712.4703 1794.8409,-715.62785 1794.2012,-729.66146 C 1793.8399,-737.73075 1798.2358,-749.09176 1817.6765,-749.09176 C 1826.695,-749.09176 1837.0139,-745.73812 1841.5232,-741.76535 C 1846.2905,-737.77203 1851.4705,-727.91751 1851.2022,-720.48799 L 1904.2409,-720.48799 z M 1082.9669,-781.00781 L 1137.6153,-781.00781 L 1137.6153,-748.35911 L 1082.9669,-748.35911 L 1082.9669,-781.00781 z M 1283.6058,-659.96817 C 1283.6058,-618.15633 1248.7592,-619.25018 1246.9327,-619.25018 C 1222.7145,-619.25018 1208.4126,-645.5012 1208.4126,-683.07196 C 1208.4126,-714.03871 1215.7493,-753.12637 1248.398,-753.12637 C 1265.1042,-753.12637 1279.9426,-740.28982 1279.21,-722.6653 L 1332.9607,-722.6653 C 1326.8829,-766.34476 1294.6159,-783.64944 1241.3503,-783.80424 C 1190.4476,-783.93832 1149.7295,-744.09746 1149.7295,-684.28965 C 1149.7295,-624.47144 1190.0761,-585.87915 1240.6899,-585.87915 C 1270.7692,-585.87915 1288.3731,-603.85448 1288.3731,-603.85448 L 1288.3731,-588.07702 C 1288.3731,-588.07702 1323.6118,-587.68494 1334.2299,-588.07702 L 1334.2299,-704.72085 L 1243.2593,-704.72085 L 1243.2593,-669.50276 L 1283.6058,-669.50276 L 1283.6058,-659.96817 z M 1669.1165,-683.44348 C 1669.1165,-655.35564 1663.3277,-615.22581 1629.5026,-615.22581 C 1595.6776,-615.22581 1590.9928,-654.97387 1590.9928,-683.07196 C 1590.9928,-712.74886 1596.049,-752.02227 1629.8741,-752.02227 C 1663.6992,-752.02227 1669.1165,-713.11007 1669.1165,-683.44348 z M 1630.0185,-585.39411 C 1689.4652,-585.39411 1725.2405,-621.67509 1725.2405,-684.17613 C 1725.2405,-746.66685 1689.4652,-782.84455 1630.0185,-782.84455 C 1570.5719,-782.84455 1535.23,-746.29533 1535.23,-683.8046 C 1535.23,-621.3242 1570.5719,-585.39411 1630.0185,-585.39411 z M 1082.9669,-736.95682 L 1137.5018,-736.95682 L 1137.5018,-588.44854 L 1082.9669,-588.44854 L 1082.9669,-736.95682 z M 892.35786,-587.93254 L 892.35786,-708.32209 L 920.96155,-587.93254 L 971.9571,-588.00478 L 999.82822,-718.95053 L 999.82822,-587.93254 L 1055.9419,-587.93254 L 1055.8181,-781.37933 L 967.78833,-781.37933 L 952.50615,-689.97532 L 933.30289,-781.37933 L 847.49166,-781.37933 L 847.49166,-587.93254 L 892.35786,-587.93254 z M 1409.0929,-706.46471 L 1409.0619,-744.69595 L 1431.753,-744.77851 C 1449.3981,-744.77851 1469.2102,-746.27469 1469.2102,-726.3491 C 1469.2102,-706.43375 1449.4394,-706.54727 1431.8046,-706.54727 L 1409.0929,-706.46471 z M 1409.0619,-671.3395 L 1430.9274,-671.42206 C 1456.2395,-671.42206 1467.0123,-672.07215 1467.3735,-651.53767 C 1467.0123,-589.17079 1468.1164,-644.20103 1467.3735,-588.07702 L 1521.671,-588.07702 L 1521.671,-658.86408 C 1519.5454,-670.8855 1524.4468,-690.04748 1488.6509,-690.04748 C 1508.463,-690.04748 1524.3746,-703.32779 1524.3746,-732.39589 C 1524.3746,-773.59892 1480.8189,-782.47311 1447.2002,-782.47311 L 1355.1358,-782.47311 L 1355.1358,-588.1183 L 1409.0619,-588.0151 L 1409.0619,-671.3395"
       style="fill:#f5821f;fill-rule:evenodd;stroke:none"
       id="path6837" />
  </g>
</svg>
