<?xml version="1.0" encoding="UTF-8" standalone="no"?>
<!-- Created with Inkscape (http://www.inkscape.org/) -->

<svg
   xmlns:dc="http://purl.org/dc/elements/1.1/"
   xmlns:cc="http://creativecommons.org/ns#"
   xmlns:rdf="http://www.w3.org/1999/02/22-rdf-syntax-ns#"
   xmlns:svg="http://www.w3.org/2000/svg"
   xmlns="http://www.w3.org/2000/svg"
   xmlns:sodipodi="http://sodipodi.sourceforge.net/DTD/sodipodi-0.dtd"
   xmlns:inkscape="http://www.inkscape.org/namespaces/inkscape"
   width="20.01"
   height="9.6000004"
   id="svg61716"
   version="1.1"
   inkscape:version="0.48.1 "
   sodipodi:docname="Neues Dokument 3">
  <defs
     id="defs61718">
    <clipPath
       clipPathUnits="userSpaceOnUse"
       id="clipPath15372">
      <path
         inkscape:connector-curvature="0"
         d="m 483.126,550.635 14.481,0 0,5.517 -14.481,0 0,-5.517 z"
         id="path15374" />
    </clipPath>
    <clipPath
       clipPathUnits="userSpaceOnUse"
       id="clipPath15208">
      <path
         inkscape:connector-curvature="0"
         d="m 483.126,550.635 14.481,0 0,5.517 -14.481,0 0,-5.517 z"
         id="path15210" />
    </clipPath>
  </defs>
  <sodipodi:namedview
     id="base"
     pagecolor="#ffffff"
     bordercolor="#666666"
     borderopacity="1.0"
     inkscape:pageopacity="0.0"
     inkscape:pageshadow="2"
     inkscape:zoom="49.576183"
     inkscape:cx="10.004996"
     inkscape:cy="4.8000154"
     inkscape:document-units="px"
     inkscape:current-layer="layer1"
     showgrid="false"
     fit-margin-top="0"
     fit-margin-left="0"
     fit-margin-right="0"
     fit-margin-bottom="0"
     inkscape:window-width="1024"
     inkscape:window-height="678"
     inkscape:window-x="-4"
     inkscape:window-y="-4"
     inkscape:window-maximized="1" />
  <metadata
     id="metadata61721">
    <rdf:RDF>
      <cc:Work
         rdf:about="">
        <dc:format>image/svg+xml</dc:format>
        <dc:type
           rdf:resource="http://purl.org/dc/dcmitype/StillImage" />
        <dc:title></dc:title>
      </cc:Work>
    </rdf:RDF>
  </metadata>
  <g
     inkscape:label="Ebene 1"
     inkscape:groupmode="layer"
     id="layer1"
     transform="translate(-182.41215,-329.42055)">
    <g
       id="g15178"
       transform="matrix(1.25,0,0,-1.25,191.50322,333.61682)">
      <path
         inkscape:connector-curvature="0"
         d="M 0,0 0.79,1.347 1.386,0.368 1.134,-0.002"
         style="fill:#e54137;fill-opacity:1;fill-rule:nonzero;stroke:none"
         id="path15180" />
    </g>
    <g
       id="g15182"
       transform="matrix(1.25,0,0,-1.25,193.78447,333.62807)">
      <path
         inkscape:connector-curvature="0"
         d="m 0,0 -0.928,1.529 0.592,1.035 1.56,-2.56"
         style="fill:#e54137;fill-opacity:1;fill-rule:nonzero;stroke:none"
         id="path15184" />
    </g>
    <g
       id="g15186"
       transform="matrix(1.25,0,0,-1.25,194.40697,331.70307)">
      <path
         inkscape:connector-curvature="0"
         d="m 0,0 0.598,1.027 1.556,-2.56 -1.219,0"
         style="fill:#005698;fill-opacity:1;fill-rule:nonzero;stroke:none"
         id="path15188" />
    </g>
    <g
       id="g15190"
       transform="matrix(1.25,0,0,-1.25,191.06072,336.60182)">
      <path
         inkscape:connector-curvature="0"
         d="M 0,0 0.093,0.095 0.1,0.132 0.08,0.192 -0.001,0.22 -0.078,0.181 -0.093,0.104 -0.079,0.042"
         style="fill:#005698;fill-opacity:1;fill-rule:nonzero;stroke:none"
         id="path15192" />
    </g>
    <g
       id="g15194"
       transform="matrix(1.246875,0,0,-1.253125,-420.50678,1026.3155)">
      <g
         id="g15196"
         transform="translate(490.479,550.39)">
        <path
           inkscape:connector-curvature="0"
           d="M 0,0 0.093,0.095 0.1,0.132 0.08,0.192 -0.001,0.219 -0.078,0.181 -0.093,0.104 -0.079,0.042 0,0 z"
           style="fill:none;stroke:#005698;stroke-width:0.22400001;stroke-linecap:round;stroke-linejoin:round;stroke-miterlimit:4;stroke-opacity:1;stroke-dasharray:none"
           id="path15198" />
      </g>
    </g>
    <g
       id="g15200"
       transform="matrix(1.25,0,0,-1.25,190.21947,337.37807)">
      <path
         inkscape:connector-curvature="0"
         d="M 0,0 C 0.039,0.117 0.088,0.196 0.142,0.274 L 0.198,0.333 0.206,0.323 0.187,0.262 0.159,0.191 0.014,-0.032 -0.009,-0.055 -0.013,-0.05 0,0 M 1.139,0.349 1.087,0.361 1.033,0.276 C 1.023,0.244 1.009,0.222 0.929,0.105 0.869,0.016 0.814,-0.081 0.761,-0.188 l -0.015,-0.021 -0.001,0.004 0.014,0.06 C 0.797,0.001 0.825,0.09 0.84,0.13 0.874,0.222 0.898,0.266 0.926,0.311 L 0.959,0.397 0.951,0.437 0.88,0.472 0.818,0.449 0.798,0.407 C 0.741,0.286 0.713,0.202 0.678,0.078 L 0.619,-0.16 0.618,-0.171 0.559,-0.214 0.484,-0.276 0.471,-0.241 0.496,-0.069 0.566,0.18 0.647,0.399 0.63,0.442 0.566,0.458 0.49,0.4 C 0.445,0.265 0.411,0.139 0.373,0.01 L 0.364,-0.027 0.348,-0.038 0.142,-0.262 0.036,-0.328 l -0.027,0.007 -0.026,0.049 0.014,0.022 c 0.117,0.102 0.212,0.242 0.292,0.382 L 0.353,0.353 0.294,0.466 0.201,0.481 0.048,0.387 C -0.049,0.241 -0.134,0.083 -0.167,-0.097 l -0.006,-0.072 0.023,-0.121 0.078,-0.123 0.154,-0.054 0.059,0.024 c 0.102,0.083 0.157,0.142 0.196,0.194 l 0.001,0.001 0.056,-0.138 0.094,-0.049 0.136,0.094 0.008,0.011 0.077,-0.063 0.045,-0.01 0.05,0.028 0.053,0.072 0.066,0.132 0.018,0.029 0.003,-0.007 0,-0.045 0.028,-0.118 0.06,-0.059 0.091,-0.025 0.044,0.047 -0.027,0.053 -0.045,0.051 -0.011,0.07 0.01,0.155 C 1.111,0.067 1.133,0.136 1.178,0.241 L 1.19,0.288 1.139,0.349"
         style="fill:#005698;fill-opacity:1;fill-rule:nonzero;stroke:none"
         id="path15202" />
    </g>
    <g
       transform="matrix(1.25,0,0,-1.25,-420.50678,1026.3155)"
       id="g15204">
      <g
         id="g15206"
         clip-path="url(#clipPath15208)">
        <g
           id="g15212"
           transform="scale(0.9975,1.0025)">
          <g
             id="g15214"
             transform="translate(489.804,549.77)">
            <path
               inkscape:connector-curvature="0"
               d="M 0,0 C 0.039,0.117 0.088,0.195 0.143,0.273 L 0.199,0.332 0.207,0.322 0.188,0.261 0.16,0.191 0.014,-0.032 -0.009,-0.055 -0.012,-0.05 0,0 z"
               style="fill:none;stroke:#005698;stroke-width:0.22400001;stroke-linecap:round;stroke-linejoin:round;stroke-miterlimit:4;stroke-opacity:1;stroke-dasharray:none"
               id="path15216" />
            <g
               id="g15218"
               transform="translate(1.143,0.348)">
              <path
                 inkscape:connector-curvature="0"
                 d="m 0,0 -0.053,0.012 -0.054,-0.085 c -0.01,-0.032 -0.024,-0.054 -0.103,-0.17 -0.062,-0.089 -0.117,-0.186 -0.169,-0.293 l -0.015,-0.021 -0.001,0.004 0.014,0.06 c 0.037,0.146 0.065,0.235 0.08,0.275 0.034,0.091 0.059,0.135 0.087,0.18 L -0.18,0.048 -0.188,0.088 -0.261,0.123 -0.323,0.1 -0.343,0.058 c -0.056,-0.121 -0.084,-0.205 -0.12,-0.328 l -0.059,-0.238 -0.001,-0.011 -0.058,-0.043 -0.077,-0.061 -0.013,0.034 0.026,0.172 0.071,0.248 0.08,0.219 -0.017,0.043 -0.063,0.016 -0.078,-0.058 c -0.045,-0.135 -0.079,-0.26 -0.116,-0.389 l -0.009,-0.037 -0.016,-0.011 -0.206,-0.223 -0.108,-0.066 -0.027,0.007 -0.026,0.049 0.014,0.021 c 0.118,0.102 0.213,0.242 0.293,0.382 l 0.065,0.22 -0.06,0.113 -0.093,0.015 -0.154,-0.094 C -1.191,-0.108 -1.277,-0.265 -1.31,-0.445 l -0.006,-0.072 0.023,-0.12 0.079,-0.123 0.153,-0.054 L -1,-0.79 c 0.101,0.083 0.157,0.142 0.196,0.194 l 0.001,0 0.055,-0.137 0.094,-0.049 0.137,0.094 0.008,0.011 0.078,-0.063 0.045,-0.01 0.049,0.028 0.053,0.072 0.067,0.131 0.019,0.029 0.003,-0.007 0,-0.045 0.028,-0.117 0.059,-0.059 0.092,-0.025 0.044,0.047 -0.027,0.053 -0.045,0.05 -0.012,0.07 0.01,0.155 c 0.018,0.087 0.04,0.156 0.084,0.26 L 0.05,-0.061 0,0 z"
                 style="fill:none;stroke:#005698;stroke-width:0.22400001;stroke-linecap:round;stroke-linejoin:round;stroke-miterlimit:4;stroke-opacity:1;stroke-dasharray:none"
                 id="path15220" />
            </g>
          </g>
        </g>
      </g>
    </g>
    <g
       id="g15222"
       transform="matrix(1.25,0,0,-1.25,192.98572,337.00557)">
      <path
         inkscape:connector-curvature="0"
         d="m 0,0 -0.061,0.069 -0.042,0.015 -0.033,-0.01 -0.165,-0.052 -0.03,-0.009 -0.004,0.005 0.007,0.035 c 0.031,0.124 0.049,0.166 0.079,0.245 l 0.011,0.05 0.153,0.057 0.084,0.027 0.032,-0.013 0.043,-0.02 0.056,0.027 0.011,0.02 C 0.139,0.509 0.11,0.574 -0.016,0.565 l -0.162,-0.04 -0.2,-0.087 -0.204,-0.106 -0.014,-0.017 -0.017,-0.061 0.078,-0.07 0.073,0.037 0.02,0.012 0.003,-0.005 -0.007,-0.03 -0.065,-0.241 -0.013,-0.022 -0.088,-0.036 -0.012,-0.017 0.011,-0.029 0.057,-0.064 0.008,-0.007 -0.005,-0.034 C -0.57,-0.351 -0.596,-0.467 -0.592,-0.569 l 0.018,-0.03 0.107,-0.029 0.027,0.051 c -0.004,0.114 0.008,0.127 0.007,0.148 l 0.005,0.034 0.05,0.225 0.019,0.021 c 0.075,0.033 0.223,0.078 0.337,0.116 L 0,0"
         style="fill:#005698;fill-opacity:1;fill-rule:nonzero;stroke:none"
         id="path15224" />
    </g>
    <g
       id="g15226"
       transform="matrix(1.246875,0,0,-1.253125,-420.50678,1026.3155)">
      <g
         id="g15228"
         transform="translate(492.024,550.068)">
        <path
           inkscape:connector-curvature="0"
           d="M 0,0 -0.061,0.069 -0.104,0.084 -0.137,0.074 -0.303,0.022 -0.333,0.013 -0.336,0.018 -0.33,0.053 c 0.032,0.124 0.05,0.165 0.08,0.244 l 0.011,0.05 0.154,0.057 0.084,0.027 0.032,-0.013 0.042,-0.02 0.057,0.027 0.011,0.02 C 0.139,0.508 0.11,0.573 -0.016,0.564 L -0.178,0.524 -0.379,0.437 -0.583,0.331 -0.597,0.314 -0.615,0.253 l 0.078,-0.069 0.074,0.036 0.02,0.012 0.003,-0.005 -0.007,-0.029 -0.066,-0.241 -0.013,-0.022 -0.087,-0.036 -0.013,-0.017 0.011,-0.029 0.058,-0.063 0.008,-0.007 -0.005,-0.034 c -0.017,-0.099 -0.043,-0.215 -0.04,-0.317 l 0.019,-0.029 0.107,-0.029 0.027,0.05 c -0.004,0.114 0.008,0.127 0.007,0.148 l 0.005,0.034 0.05,0.224 0.019,0.021 c 0.075,0.033 0.223,0.078 0.338,0.116 L 0,0 z"
           style="fill:none;stroke:#005698;stroke-width:0.22400001;stroke-linecap:round;stroke-linejoin:round;stroke-miterlimit:4;stroke-opacity:1;stroke-dasharray:none"
           id="path15230" />
      </g>
    </g>
    <g
       id="g15232"
       transform="matrix(1.25,0,0,-1.25,193.56072,336.84182)">
      <path
         inkscape:connector-curvature="0"
         d="m 0,0 -0.036,-0.067 c -0.061,-0.169 -0.207,-0.302 -0.316,-0.451 l -0.053,-0.046 -0.009,0.023 0.092,0.247 c 0.07,0.123 0.168,0.224 0.289,0.316 L -0.006,0.037 0.007,0.022 0,0 m 0.012,-0.525 0.012,0.148 c 0.021,0.133 0.086,0.266 0.143,0.372 L 0.171,0.019 0.12,0.063 0.096,0.081 0.072,0.12 -0.033,0.172 -0.07,0.162 -0.283,0.009 c -0.183,-0.19 -0.263,-0.443 -0.259,-0.547 l 0.04,-0.099 0.069,-0.06 0.047,-0.018 c 0.033,0.003 0.105,0.041 0.188,0.153 l 0.055,0.074 0.015,0.017 0.003,-0.005 0,-0.073 0.024,-0.12 0.082,-0.043 0.03,0.01 0.037,0.036 -0.005,0.016 -0.031,0.125"
         style="fill:#005698;fill-opacity:1;fill-rule:nonzero;stroke:none"
         id="path15234" />
    </g>
    <g
       id="g15236"
       transform="matrix(1.246875,0,0,-1.253125,-420.50678,1026.3155)">
      <g
         id="g15238"
         transform="translate(492.485,550.198)">
        <path
           inkscape:connector-curvature="0"
           d="m 0,0 -0.036,-0.066 c -0.062,-0.169 -0.208,-0.302 -0.318,-0.451 l -0.052,-0.046 -0.009,0.024 0.091,0.246 c 0.071,0.122 0.169,0.224 0.291,0.315 L -0.006,0.037 0.007,0.022 0,0 z"
           style="fill:none;stroke:#005698;stroke-width:0.22400001;stroke-linecap:round;stroke-linejoin:round;stroke-miterlimit:4;stroke-opacity:1;stroke-dasharray:none"
           id="path15240" />
        <g
           id="g15242"
           transform="translate(0.011,-0.524)">
          <path
             inkscape:connector-curvature="0"
             d="M 0,0 0.012,0.149 C 0.033,0.28 0.099,0.413 0.156,0.519 L 0.16,0.544 0.109,0.587 0.085,0.604 0.06,0.643 -0.044,0.695 -0.081,0.685 -0.295,0.533 C -0.478,0.344 -0.559,0.091 -0.555,-0.012 l 0.04,-0.099 0.07,-0.06 0.046,-0.018 c 0.033,0.003 0.106,0.041 0.188,0.153 l 0.056,0.074 0.015,0.017 0.003,-0.005 0,-0.074 0.025,-0.119 0.082,-0.043 0.029,0.009 0.037,0.036 L 0.031,-0.124 0,0 z"
             style="fill:none;stroke:#005698;stroke-width:0.22400001;stroke-linecap:round;stroke-linejoin:round;stroke-miterlimit:4;stroke-opacity:1;stroke-dasharray:none"
             id="path15244" />
        </g>
      </g>
    </g>
    <g
       id="g15246"
       transform="matrix(1.25,0,0,-1.25,194.90572,336.86682)">
      <path
         inkscape:connector-curvature="0"
         d="m 0,0 -0.008,0.028 -0.058,0.039 -0.03,0.012 -0.022,0.002 -0.075,-0.078 c -0.04,-0.164 -0.169,-0.279 -0.256,-0.424 L -0.486,-0.465 -0.5,-0.474 -0.505,-0.461 c -0.001,0.027 0.01,0.094 0.051,0.21 l 0.107,0.243 0.005,0.025 -0.009,0.022 -0.085,0.04 L -0.5,0.046 -0.526,-0.003 C -0.575,-0.179 -0.675,-0.362 -0.798,-0.47 l -0.022,-0.015 -0.004,0.004 0.013,0.063 c 0.055,0.218 0.11,0.342 0.189,0.499 L -0.61,0.17 -0.679,0.203 -0.774,0.136 C -0.792,0.058 -0.81,0.044 -0.838,-0.049 -0.883,-0.202 -0.964,-0.326 -0.957,-0.483 l 0.011,-0.086 0.149,-0.077 0.089,0.061 0.046,0.049 0.014,0.014 0.008,-0.012 0.067,-0.062 0.08,-0.018 c 0.093,0.006 0.16,0.106 0.199,0.167 l 0.025,0.032 0.011,-0.036 0.026,-0.09 0.083,-0.105 0.059,-0.009 0.044,0.042 -0.022,0.035 -0.015,0.018 -0.045,0.16 c -0.004,0.114 0.042,0.227 0.081,0.319 L 0,0"
         style="fill:#005698;fill-opacity:1;fill-rule:nonzero;stroke:none"
         id="path15248" />
    </g>
    <g
       id="g15250"
       transform="matrix(1.246875,0,0,-1.253125,-420.50678,1026.3155)">
      <g
         id="g15252"
         transform="translate(493.562,550.178)">
        <path
           inkscape:connector-curvature="0"
           d="m 0,0 -0.008,0.028 -0.057,0.039 -0.03,0.012 -0.023,0.002 -0.075,-0.078 c -0.041,-0.164 -0.17,-0.278 -0.256,-0.423 l -0.037,-0.044 -0.015,-0.009 -0.005,0.013 c -0.001,0.027 0.011,0.094 0.052,0.21 l 0.106,0.242 0.005,0.025 -0.009,0.022 -0.085,0.04 L -0.5,0.046 -0.527,-0.003 C -0.576,-0.179 -0.676,-0.361 -0.8,-0.469 l -0.022,-0.015 -0.004,0.004 0.013,0.063 c 0.055,0.217 0.111,0.341 0.189,0.498 L -0.611,0.17 -0.68,0.202 -0.776,0.136 C -0.794,0.058 -0.812,0.044 -0.84,-0.049 -0.884,-0.202 -0.966,-0.325 -0.959,-0.482 l 0.011,-0.086 0.149,-0.076 0.089,0.06 0.047,0.049 0.014,0.014 0.007,-0.012 0.068,-0.062 0.081,-0.017 c 0.092,0.005 0.159,0.105 0.199,0.166 l 0.025,0.032 0.011,-0.036 0.025,-0.09 0.084,-0.104 0.06,-0.009 0.044,0.041 -0.022,0.035 -0.015,0.018 -0.046,0.16 c -0.004,0.114 0.043,0.226 0.081,0.318 L 0,0 z"
           style="fill:none;stroke:#005698;stroke-width:0.22400001;stroke-linecap:round;stroke-linejoin:round;stroke-miterlimit:4;stroke-opacity:1;stroke-dasharray:none"
           id="path15254" />
      </g>
    </g>
    <g
       id="g15256"
       transform="matrix(1.25,0,0,-1.25,195.33697,336.28807)">
      <path
         inkscape:connector-curvature="0"
         d="M 0,0 0.093,0.095 0.099,0.132 0.08,0.192 -0.001,0.22 -0.078,0.181 -0.093,0.104 -0.079,0.042"
         style="fill:#005698;fill-opacity:1;fill-rule:nonzero;stroke:none"
         id="path15258" />
    </g>
    <g
       id="g15260"
       transform="matrix(1.246875,0,0,-1.253125,-420.50678,1026.3155)">
      <g
         id="g15262"
         transform="translate(493.908,550.64)">
        <path
           inkscape:connector-curvature="0"
           d="M 0,0 0.093,0.095 0.1,0.132 0.08,0.192 -0.001,0.219 -0.077,0.181 -0.092,0.104 -0.078,0.042 0,0 z"
           style="fill:none;stroke:#005698;stroke-width:0.22400001;stroke-linecap:round;stroke-linejoin:round;stroke-miterlimit:4;stroke-opacity:1;stroke-dasharray:none"
           id="path15264" />
      </g>
    </g>
    <g
       id="g15266"
       transform="matrix(1.25,0,0,-1.25,196.11322,336.23057)">
      <path
         inkscape:connector-curvature="0"
         d="M 0,0 0.093,0.095 0.099,0.132 0.08,0.192 -0.002,0.22 -0.078,0.181 -0.093,0.104 -0.079,0.042"
         style="fill:#005698;fill-opacity:1;fill-rule:nonzero;stroke:none"
         id="path15268" />
    </g>
    <g
       id="g15270"
       transform="matrix(1.246875,0,0,-1.253125,-420.50678,1026.3155)">
      <g
         id="g15272"
         transform="translate(494.532,550.686)">
        <path
           inkscape:connector-curvature="0"
           d="M 0,0 0.092,0.095 0.099,0.132 0.079,0.192 -0.002,0.219 -0.078,0.181 -0.093,0.104 -0.079,0.042 0,0 z"
           style="fill:none;stroke:#005698;stroke-width:0.22400001;stroke-linecap:round;stroke-linejoin:round;stroke-miterlimit:4;stroke-opacity:1;stroke-dasharray:none"
           id="path15274" />
      </g>
    </g>
    <g
       id="g15276"
       transform="matrix(1.25,0,0,-1.25,196.27947,336.93307)">
      <path
         inkscape:connector-curvature="0"
         d="M 0,0 C 0.038,0.117 0.088,0.196 0.142,0.274 L 0.198,0.333 0.206,0.323 0.187,0.262 0.159,0.191 0.014,-0.032 -0.009,-0.055 -0.013,-0.05 0,0 M 0.837,0.327 0.784,0.339 0.73,0.254 C 0.72,0.222 0.706,0.2 0.627,0.083 0.567,-0.006 0.511,-0.103 0.459,-0.211 l -0.015,-0.02 -0.001,0.003 0.014,0.061 c 0.038,0.145 0.065,0.235 0.08,0.275 0.034,0.092 0.059,0.136 0.088,0.18 L 0.657,0.375 0.649,0.415 0.577,0.45 0.515,0.426 0.495,0.384 C 0.44,0.264 0.411,0.18 0.375,0.056 L 0.349,-0.038 0.142,-0.262 0.036,-0.328 l -0.027,0.007 -0.026,0.049 0.014,0.022 c 0.117,0.102 0.211,0.242 0.292,0.382 L 0.353,0.353 0.294,0.466 0.201,0.481 0.048,0.387 C -0.049,0.241 -0.134,0.083 -0.167,-0.097 l -0.006,-0.072 0.007,-0.058 -0.009,0 -0.071,-0.046 -0.076,-0.062 -0.012,0.035 0.025,0.172 0.07,0.249 0.08,0.219 L -0.176,0.383 -0.24,0.399 -0.316,0.341 C -0.361,0.206 -0.395,0.08 -0.432,-0.049 l -0.021,-0.088 -0.008,-0.039 -0.18,-0.205 -0.01,-0.006 -0.014,0.038 c -0.004,0.108 0.021,0.163 0.042,0.242 0.071,0.274 0.201,0.514 0.316,0.773 L -0.296,0.731 -0.309,0.784 -0.368,0.81 -0.415,0.805 -0.503,0.645 C -0.597,0.415 -0.705,0.131 -0.758,-0.068 l -0.044,-0.207 -0.066,-0.043 -0.075,-0.062 -0.013,0.034 0.026,0.172 0.07,0.25 0.08,0.218 -0.017,0.043 -0.064,0.017 -0.076,-0.059 C -0.982,0.16 -1.016,0.035 -1.054,-0.095 l -0.02,-0.087 -0.017,-0.144 0.058,-0.165 0.094,-0.049 0.136,0.094 0.016,0.022 0.02,-0.03 0.117,-0.068 0.025,-0.002 0.17,0.16 0.043,-0.081 0.095,-0.049 0.135,0.094 0.05,0.065 0.06,-0.078 0.154,-0.054 0.059,0.024 0.165,0.155 0,-0.004 0.014,-0.05 0.087,-0.073 0.045,-0.01 0.049,0.028 0.053,0.072 0.067,0.132 0.018,0.029 0.003,-0.007 0,-0.045 0.028,-0.118 0.059,-0.059 0.092,-0.025 0.044,0.047 -0.027,0.053 -0.045,0.051 -0.012,0.069 0.01,0.156 c 0.018,0.087 0.04,0.156 0.085,0.261 L 0.888,0.266 0.837,0.327"
         style="fill:#005698;fill-opacity:1;fill-rule:nonzero;stroke:none"
         id="path15278" />
    </g>
    <g
       id="g15280"
       transform="matrix(1.246875,0,0,-1.253125,-420.50678,1026.3155)">
      <g
         id="g15282"
         transform="translate(494.664,550.125)">
        <path
           inkscape:connector-curvature="0"
           d="M 0,0 C 0.038,0.117 0.088,0.195 0.143,0.273 L 0.198,0.332 0.206,0.322 0.187,0.261 0.16,0.19 0.014,-0.032 -0.009,-0.055 -0.013,-0.05 0,0 z"
           style="fill:none;stroke:#005698;stroke-width:0.22400001;stroke-linecap:round;stroke-linejoin:round;stroke-miterlimit:4;stroke-opacity:1;stroke-dasharray:none"
           id="path15284" />
        <g
           id="g15286"
           transform="translate(0.839,0.326)">
          <path
             inkscape:connector-curvature="0"
             d="m 0,0 -0.053,0.012 -0.053,-0.085 c -0.01,-0.032 -0.024,-0.054 -0.105,-0.17 -0.06,-0.089 -0.115,-0.186 -0.168,-0.294 l -0.015,-0.02 -0.001,0.003 0.014,0.061 c 0.038,0.145 0.066,0.235 0.081,0.274 0.033,0.092 0.058,0.136 0.087,0.18 l 0.032,0.087 -0.007,0.04 -0.073,0.035 -0.061,-0.024 -0.02,-0.042 c -0.056,-0.12 -0.085,-0.204 -0.121,-0.327 l -0.025,-0.094 -0.208,-0.224 -0.107,-0.065 -0.027,0.007 -0.026,0.048 0.014,0.022 c 0.118,0.102 0.211,0.242 0.293,0.381 l 0.065,0.221 -0.06,0.113 -0.094,0.015 -0.153,-0.094 c -0.096,-0.146 -0.182,-0.303 -0.216,-0.483 l -0.006,-0.072 0.007,-0.058 -0.009,0 -0.07,-0.046 -0.077,-0.061 -0.012,0.035 0.025,0.171 0.071,0.248 0.079,0.219 -0.017,0.043 -0.063,0.016 -0.077,-0.058 c -0.045,-0.135 -0.079,-0.26 -0.116,-0.389 l -0.02,-0.088 -0.008,-0.039 -0.181,-0.204 -0.01,-0.006 -0.014,0.038 c -0.004,0.107 0.021,0.162 0.041,0.241 0.071,0.273 0.202,0.513 0.317,0.771 L -1.135,0.403 -1.149,0.456 -1.208,0.482 -1.255,0.477 -1.342,0.317 C -1.438,0.088 -1.546,-0.196 -1.599,-0.394 l -0.044,-0.207 -0.065,-0.042 -0.076,-0.062 -0.014,0.034 0.027,0.171 0.071,0.25 0.079,0.217 -0.017,0.043 -0.063,0.017 -0.078,-0.059 c -0.045,-0.135 -0.079,-0.259 -0.116,-0.389 l -0.02,-0.087 -0.017,-0.143 0.058,-0.165 0.094,-0.049 0.136,0.094 0.016,0.022 0.02,-0.03 0.118,-0.068 0.024,-0.002 0.172,0.16 0.042,-0.081 0.095,-0.049 0.135,0.094 0.051,0.065 0.061,-0.078 0.153,-0.054 0.06,0.024 0.166,0.154 0,-0.003 0.014,-0.05 0.086,-0.073 0.045,-0.01 0.05,0.028 0.053,0.072 0.066,0.131 0.018,0.029 0.004,-0.007 0,-0.045 0.028,-0.117 0.06,-0.059 0.091,-0.025 0.044,0.047 -0.027,0.053 -0.045,0.05 -0.012,0.069 0.01,0.156 c 0.018,0.087 0.04,0.155 0.085,0.26 L 0.051,-0.061 0,0 z"
             style="fill:none;stroke:#005698;stroke-width:0.22400001;stroke-linecap:round;stroke-linejoin:round;stroke-miterlimit:4;stroke-opacity:1;stroke-dasharray:none"
             id="path15288" />
        </g>
      </g>
    </g>
    <g
       id="g15290"
       transform="matrix(1.25,0,0,-1.25,198.50072,337.31932)">
      <path
         inkscape:connector-curvature="0"
         d="m 0,0 -0.015,0.018 -0.046,0.16 c -0.004,0.114 0.043,0.227 0.082,0.319 L 0.068,0.578 0.06,0.606 0.002,0.645 -0.028,0.657 -0.051,0.659 -0.125,0.581 C -0.164,0.417 -0.294,0.302 -0.381,0.157 L -0.418,0.113 -0.433,0.104 -0.437,0.117 c -0.001,0.026 0.01,0.094 0.051,0.21 L -0.28,0.57 -0.275,0.595 -0.284,0.617 -0.368,0.657 -0.432,0.624 -0.459,0.574 C -0.508,0.399 -0.606,0.216 -0.73,0.108 L -0.752,0.092 -0.756,0.097 -0.743,0.16 c 0.054,0.218 0.11,0.342 0.189,0.499 L -0.542,0.748 -0.611,0.781 -0.706,0.714 C -0.724,0.636 -0.741,0.622 -0.77,0.529 -0.815,0.376 -0.896,0.252 -0.89,0.095 l 0.011,-0.086 0.15,-0.077 0.088,0.061 0.047,0.05 0.014,0.013 0.008,-0.012 0.067,-0.062 0.08,-0.018 c 0.093,0.006 0.159,0.106 0.199,0.167 l 0.026,0.032 0.011,-0.036 0.025,-0.09 0.082,-0.104 0.06,-0.01 0.044,0.042 L 0,0"
         style="fill:#005698;fill-opacity:1;fill-rule:nonzero;stroke:none"
         id="path15292" />
    </g>
    <g
       id="g15294"
       transform="matrix(1.246875,0,0,-1.253125,-420.50678,1026.3155)">
      <g
         id="g15296"
         transform="translate(496.447,549.817)">
        <path
           inkscape:connector-curvature="0"
           d="m 0,0 -0.015,0.018 -0.046,0.16 c -0.004,0.113 0.043,0.226 0.082,0.318 L 0.067,0.577 0.059,0.604 0.002,0.643 -0.028,0.655 -0.051,0.657 -0.126,0.58 C -0.165,0.416 -0.295,0.301 -0.382,0.157 L -0.419,0.113 -0.434,0.104 -0.438,0.117 c -0.001,0.026 0.01,0.094 0.051,0.209 L -0.281,0.569 -0.276,0.594 -0.285,0.615 -0.37,0.655 -0.433,0.622 -0.46,0.573 C -0.509,0.398 -0.607,0.216 -0.733,0.108 L -0.755,0.092 -0.759,0.097 -0.746,0.16 c 0.055,0.217 0.111,0.341 0.19,0.497 L -0.544,0.746 -0.613,0.779 -0.709,0.712 C -0.727,0.634 -0.744,0.62 -0.772,0.528 -0.817,0.375 -0.898,0.251 -0.892,0.095 l 0.011,-0.086 0.149,-0.077 0.089,0.061 0.048,0.05 0.014,0.013 0.007,-0.012 0.067,-0.062 0.081,-0.018 c 0.092,0.006 0.159,0.106 0.199,0.167 l 0.027,0.032 0.011,-0.036 0.024,-0.09 0.083,-0.104 0.06,-0.01 0.043,0.042 L 0,0 z"
           style="fill:none;stroke:#005698;stroke-width:0.22400001;stroke-linecap:round;stroke-linejoin:round;stroke-miterlimit:4;stroke-opacity:1;stroke-dasharray:none"
           id="path15298" />
      </g>
    </g>
    <g
       id="g15300"
       transform="matrix(1.25,0,0,-1.25,199.22947,336.42682)">
      <path
         inkscape:connector-curvature="0"
         d="m 0,0 -0.036,-0.066 c -0.062,-0.17 -0.208,-0.303 -0.317,-0.452 l -0.052,-0.046 -0.009,0.024 0.092,0.246 c 0.07,0.123 0.167,0.225 0.289,0.316 L -0.007,0.037 0.006,0.022 0,0 m 0.012,-0.525 0.012,0.149 c 0.021,0.131 0.086,0.264 0.143,0.371 L 0.171,0.02 0.12,0.063 0.095,0.081 0.072,0.119 -0.033,0.172 -0.07,0.162 -0.283,0.009 c -0.183,-0.189 -0.263,-0.443 -0.26,-0.546 l 0.039,-0.099 0.07,-0.06 0.047,-0.018 c 0.034,0.003 0.106,0.041 0.188,0.153 l 0.056,0.074 0.014,0.017 0.004,-0.005 0,-0.074 0.024,-0.119 0.081,-0.043 0.032,0.009 0.035,0.036 -0.004,0.017 -0.031,0.124"
         style="fill:#005698;fill-opacity:1;fill-rule:nonzero;stroke:none"
         id="path15302" />
    </g>
    <g
       id="g15304"
       transform="matrix(1.246875,0,0,-1.253125,-420.50678,1026.3155)">
      <g
         id="g15306"
         transform="translate(497.03,550.529)">
        <path
           inkscape:connector-curvature="0"
           d="m 0,0 -0.036,-0.066 c -0.062,-0.169 -0.208,-0.302 -0.317,-0.451 l -0.053,-0.046 -0.009,0.024 0.091,0.246 c 0.071,0.122 0.17,0.224 0.291,0.315 L -0.006,0.037 0.007,0.022 0,0 z"
           style="fill:none;stroke:#005698;stroke-width:0.22400001;stroke-linecap:round;stroke-linejoin:round;stroke-miterlimit:4;stroke-opacity:1;stroke-dasharray:none"
           id="path15308" />
        <g
           id="g15310"
           transform="translate(0.012,-0.524)">
          <path
             inkscape:connector-curvature="0"
             d="m 0,0 0.012,0.149 c 0.021,0.13 0.086,0.263 0.143,0.37 L 0.159,0.544 0.108,0.587 0.084,0.604 0.059,0.642 -0.045,0.695 -0.082,0.685 -0.296,0.533 C -0.479,0.344 -0.559,0.091 -0.556,-0.012 l 0.04,-0.099 0.07,-0.06 0.047,-0.018 c 0.033,0.003 0.105,0.041 0.188,0.153 l 0.055,0.074 0.015,0.017 0.003,-0.005 0,-0.074 0.025,-0.119 0.082,-0.043 L 0,-0.177 0.035,-0.141 0.031,-0.124 0,0 z"
             style="fill:none;stroke:#005698;stroke-width:0.22400001;stroke-linecap:round;stroke-linejoin:round;stroke-miterlimit:4;stroke-opacity:1;stroke-dasharray:none"
             id="path15312" />
        </g>
      </g>
    </g>
    <g
       id="g15314"
       transform="matrix(1.25,0,0,-1.25,201.18072,336.20557)">
      <path
         inkscape:connector-curvature="0"
         d="m 0,0 -0.025,-0.012 -0.16,-0.092 -0.014,-0.005 -0.003,0.004 0.004,0.019 0.018,0.063 c 0.029,0.09 0.092,0.228 0.109,0.356 L -0.067,0.376 -0.093,0.402 -0.16,0.413 -0.194,0.401 -0.221,0.37 c -0.04,-0.128 -0.07,-0.264 -0.098,-0.372 l -0.02,-0.082 -0.013,-0.018 -0.054,0.018 -0.027,0.002 -0.062,-0.047 0.014,-0.025 0.082,-0.096 0.012,-0.013 -0.007,-0.032 c -0.032,-0.12 -0.051,-0.262 -0.08,-0.389 l -0.003,-0.037 -0.009,0.004 -0.084,0.085 -0.085,0.198 -0.026,0.086 -0.008,0.028 0.008,0.02 0.208,0.212 0.037,0.053 0.058,0.126 -0.034,0.038 -0.057,0.02 -0.073,-0.067 -0.16,-0.219 -0.032,-0.027 -0.003,0.003 0.01,0.038 c 0.037,0.121 0.067,0.249 0.113,0.358 l 0.042,0.089 0.027,0.101 -0.073,0.067 -0.048,0.001 -0.029,-0.027 -0.016,-0.06 C -0.761,0.233 -0.814,0.062 -0.864,-0.11 l -0.113,0.043 -0.171,-0.127 -0.013,-0.012 -0.003,0.005 10e-4,0.046 -0.026,0.093 -0.06,0.024 -0.069,-0.053 0.014,-0.039 -0.011,-0.089 c -0.019,-0.114 -0.044,-0.226 -0.07,-0.339 l -0.065,-0.187 0.029,-0.069 0.064,-0.042 0.03,0.016 0.034,0.08 c 0.027,0.209 0.126,0.357 0.236,0.458 l 0.095,0.072 0.059,-0.011 0.002,0 c -0.04,-0.142 -0.077,-0.284 -0.108,-0.428 L -1.02,-0.747 c 0.149,-0.263 0.193,0.249 0.202,0.294 l 0.014,0.036 0.013,-0.029 c 0.021,-0.065 0.055,-0.161 0.111,-0.276 l 0.035,-0.041 0.141,-0.075 0.043,0.021 0.018,0.023 0.057,-0.014 0.062,0.091 0.05,0.29 0.014,0.063 0.041,0.099 0.205,0.094 0.06,0.042 0.046,0.073 L 0,0"
         style="fill:#005698;fill-opacity:1;fill-rule:nonzero;stroke:none"
         id="path15316" />
    </g>
    <g
       id="g15318"
       transform="matrix(1.246875,0,0,-1.253125,-420.50678,1026.3155)">
      <g
         id="g15320"
         transform="translate(498.596,550.706)">
        <path
           inkscape:connector-curvature="0"
           d="m 0,0 -0.025,-0.011 -0.16,-0.092 -0.014,-0.005 -0.003,0.004 0.004,0.019 0.018,0.063 c 0.029,0.09 0.092,0.228 0.109,0.355 L -0.067,0.376 -0.093,0.402 -0.16,0.413 -0.194,0.401 -0.222,0.37 c -0.04,-0.128 -0.07,-0.263 -0.099,-0.371 l -0.019,-0.082 -0.013,-0.018 -0.054,0.018 -0.027,0.002 -0.062,-0.047 0.014,-0.025 0.082,-0.095 0.012,-0.013 -0.007,-0.032 c -0.032,-0.12 -0.051,-0.262 -0.08,-0.388 l -0.003,-0.037 -0.009,0.004 -0.084,0.085 -0.086,0.197 -0.026,0.086 -0.008,0.028 0.008,0.02 0.209,0.211 0.037,0.053 0.058,0.126 -0.034,0.038 -0.057,0.02 -0.073,-0.067 -0.162,-0.219 -0.031,-0.027 -0.003,0.003 0.01,0.038 c 0.037,0.121 0.067,0.249 0.113,0.357 l 0.043,0.089 0.027,0.101 -0.074,0.067 -0.048,0.001 -0.03,-0.027 -0.016,-0.06 C -0.763,0.233 -0.816,0.063 -0.866,-0.109 l -0.113,0.043 -0.172,-0.127 -0.013,-0.012 -0.003,0.005 0.001,0.046 -0.026,0.093 -0.06,0.024 -0.07,-0.053 0.014,-0.039 -0.011,-0.088 c -0.018,-0.114 -0.043,-0.226 -0.07,-0.339 l -0.065,-0.186 0.029,-0.069 0.065,-0.042 0.03,0.016 0.033,0.08 c 0.028,0.208 0.127,0.356 0.237,0.457 l 0.096,0.072 0.058,-0.011 0.002,0 C -0.943,-0.381 -0.98,-0.523 -1.012,-0.666 l -0.011,-0.078 c 0.149,-0.262 0.195,0.247 0.203,0.293 l 0.014,0.036 0.013,-0.029 c 0.021,-0.065 0.055,-0.16 0.111,-0.275 l 0.035,-0.042 0.141,-0.074 0.044,0.021 0.018,0.023 0.057,-0.014 0.061,0.091 0.051,0.289 0.014,0.063 0.041,0.099 0.206,0.093 0.06,0.042 0.045,0.073 L 0,0 z"
           style="fill:none;stroke:#005698;stroke-width:0.22400001;stroke-linecap:round;stroke-linejoin:round;stroke-miterlimit:4;stroke-opacity:1;stroke-dasharray:none"
           id="path15322" />
      </g>
    </g>
    <g
       id="g15324"
       transform="matrix(1.25,0,0,-1.25,191.06072,336.60182)">
      <path
         inkscape:connector-curvature="0"
         d="M 0,0 0.093,0.095 0.1,0.132 0.08,0.192 -0.001,0.22 -0.078,0.181 -0.093,0.104 -0.079,0.042"
         style="fill:#ffffff;fill-opacity:1;fill-rule:nonzero;stroke:none"
         id="path15326" />
    </g>
    <g
       id="g15328"
       transform="matrix(1.25,0,0,-1.25,190.21947,337.37807)">
      <path
         inkscape:connector-curvature="0"
         d="M 0,0 C 0.039,0.117 0.088,0.196 0.142,0.274 L 0.198,0.333 0.206,0.323 0.187,0.262 0.159,0.191 0.014,-0.032 -0.009,-0.055 -0.013,-0.05 0,0 M 1.139,0.349 1.087,0.361 1.033,0.276 C 1.023,0.244 1.009,0.222 0.929,0.105 0.869,0.016 0.814,-0.081 0.761,-0.188 l -0.015,-0.021 -0.001,0.004 0.014,0.06 C 0.797,0.001 0.825,0.09 0.84,0.13 0.874,0.222 0.898,0.266 0.926,0.311 L 0.959,0.397 0.951,0.437 0.88,0.472 0.818,0.449 0.798,0.407 C 0.741,0.286 0.713,0.202 0.678,0.078 L 0.619,-0.16 0.618,-0.171 0.559,-0.214 0.484,-0.276 0.471,-0.241 0.496,-0.069 0.566,0.18 0.647,0.399 0.63,0.442 0.566,0.458 0.49,0.4 C 0.445,0.265 0.411,0.139 0.373,0.01 L 0.364,-0.027 0.348,-0.038 0.142,-0.262 0.036,-0.328 l -0.027,0.007 -0.026,0.049 0.014,0.022 c 0.117,0.102 0.212,0.242 0.292,0.382 L 0.353,0.353 0.294,0.466 0.201,0.481 0.048,0.387 C -0.049,0.241 -0.134,0.083 -0.167,-0.097 l -0.006,-0.072 0.023,-0.121 0.078,-0.123 0.154,-0.054 0.059,0.024 c 0.102,0.083 0.157,0.142 0.196,0.194 l 0.001,0.001 0.056,-0.138 0.094,-0.049 0.136,0.094 0.008,0.011 0.077,-0.063 0.045,-0.01 0.05,0.028 0.053,0.072 0.066,0.132 0.018,0.029 0.003,-0.007 0,-0.045 0.028,-0.118 0.06,-0.059 0.091,-0.025 0.044,0.047 -0.027,0.053 -0.045,0.051 -0.011,0.07 0.01,0.155 C 1.111,0.067 1.133,0.136 1.178,0.241 L 1.19,0.288 1.139,0.349"
         style="fill:#ffffff;fill-opacity:1;fill-rule:nonzero;stroke:none"
         id="path15330" />
    </g>
    <g
       id="g15332"
       transform="matrix(1.25,0,0,-1.25,192.98572,337.00557)">
      <path
         inkscape:connector-curvature="0"
         d="m 0,0 -0.061,0.069 -0.042,0.015 -0.033,-0.01 -0.165,-0.052 -0.03,-0.009 -0.004,0.005 0.007,0.035 c 0.031,0.124 0.049,0.166 0.079,0.245 l 0.011,0.05 0.153,0.057 0.084,0.027 0.032,-0.013 0.043,-0.02 0.056,0.027 0.011,0.02 C 0.139,0.509 0.11,0.574 -0.016,0.565 l -0.162,-0.04 -0.2,-0.087 -0.204,-0.106 -0.014,-0.017 -0.017,-0.061 0.078,-0.07 0.073,0.037 0.02,0.012 0.003,-0.005 -0.007,-0.03 -0.065,-0.241 -0.013,-0.022 -0.088,-0.036 -0.012,-0.017 0.011,-0.029 0.057,-0.064 0.008,-0.007 -0.005,-0.034 C -0.57,-0.351 -0.596,-0.467 -0.592,-0.569 l 0.018,-0.03 0.107,-0.029 0.027,0.051 c -0.004,0.114 0.008,0.127 0.007,0.148 l 0.005,0.034 0.05,0.225 0.019,0.021 c 0.075,0.033 0.223,0.078 0.337,0.116 L 0,0"
         style="fill:#ffffff;fill-opacity:1;fill-rule:nonzero;stroke:none"
         id="path15334" />
    </g>
    <g
       id="g15336"
       transform="matrix(1.25,0,0,-1.25,193.56072,336.84307)">
      <path
         inkscape:connector-curvature="0"
         d="m 0,0 -0.036,-0.066 c -0.061,-0.17 -0.207,-0.303 -0.316,-0.452 l -0.053,-0.046 -0.009,0.024 0.092,0.246 c 0.07,0.123 0.168,0.225 0.289,0.316 L -0.006,0.037 0.007,0.022 0,0 m 0.012,-0.525 0.012,0.149 c 0.021,0.132 0.086,0.265 0.143,0.371 L 0.171,0.02 0.12,0.063 0.096,0.081 0.072,0.12 -0.033,0.172 -0.07,0.162 -0.283,0.009 C -0.466,-0.18 -0.546,-0.434 -0.542,-0.537 l 0.04,-0.099 0.069,-0.06 0.047,-0.018 c 0.033,0.003 0.105,0.041 0.188,0.153 l 0.055,0.074 0.015,0.017 0.003,-0.005 0,-0.074 0.024,-0.119 0.082,-0.043 0.03,0.009 0.037,0.036 -0.005,0.017 -0.031,0.124"
         style="fill:#ffffff;fill-opacity:1;fill-rule:nonzero;stroke:none"
         id="path15338" />
    </g>
    <g
       id="g15340"
       transform="matrix(1.25,0,0,-1.25,194.90572,336.86682)">
      <path
         inkscape:connector-curvature="0"
         d="m 0,0 -0.008,0.028 -0.058,0.039 -0.03,0.012 -0.022,0.002 -0.075,-0.078 c -0.04,-0.164 -0.169,-0.279 -0.256,-0.424 L -0.486,-0.465 -0.5,-0.474 -0.505,-0.461 c -0.001,0.027 0.01,0.094 0.051,0.21 l 0.107,0.243 0.005,0.025 -0.009,0.022 -0.085,0.04 L -0.5,0.046 -0.526,-0.003 C -0.575,-0.179 -0.675,-0.362 -0.798,-0.47 l -0.022,-0.015 -0.004,0.004 0.013,0.063 c 0.055,0.218 0.11,0.342 0.189,0.499 L -0.61,0.17 -0.679,0.203 -0.774,0.136 C -0.792,0.058 -0.81,0.044 -0.838,-0.049 -0.883,-0.202 -0.964,-0.326 -0.957,-0.483 l 0.011,-0.086 0.149,-0.077 0.089,0.061 0.046,0.049 0.014,0.014 0.008,-0.012 0.067,-0.062 0.08,-0.018 c 0.093,0.006 0.16,0.106 0.199,0.167 l 0.025,0.032 0.011,-0.036 0.026,-0.09 0.083,-0.105 0.059,-0.009 0.044,0.042 -0.022,0.035 -0.015,0.018 -0.045,0.16 c -0.004,0.114 0.042,0.227 0.081,0.319 L 0,0"
         style="fill:#ffffff;fill-opacity:1;fill-rule:nonzero;stroke:none"
         id="path15342" />
    </g>
    <g
       id="g15344"
       transform="matrix(1.25,0,0,-1.25,195.33697,336.28807)">
      <path
         inkscape:connector-curvature="0"
         d="M 0,0 0.093,0.095 0.099,0.132 0.08,0.192 -0.001,0.22 -0.078,0.181 -0.093,0.104 -0.079,0.042"
         style="fill:#ffffff;fill-opacity:1;fill-rule:nonzero;stroke:none"
         id="path15346" />
    </g>
    <g
       id="g15348"
       transform="matrix(1.25,0,0,-1.25,196.11322,336.23182)">
      <path
         inkscape:connector-curvature="0"
         d="M 0,0 0.093,0.095 0.099,0.132 0.08,0.192 -0.002,0.22 -0.078,0.181 -0.093,0.104 -0.079,0.042"
         style="fill:#ffffff;fill-opacity:1;fill-rule:nonzero;stroke:none"
         id="path15350" />
    </g>
    <g
       id="g15352"
       transform="matrix(1.25,0,0,-1.25,196.27947,336.93307)">
      <path
         inkscape:connector-curvature="0"
         d="M 0,0 C 0.038,0.117 0.088,0.196 0.142,0.274 L 0.198,0.333 0.206,0.323 0.187,0.262 0.159,0.191 0.014,-0.032 -0.009,-0.055 -0.013,-0.05 0,0 M 0.837,0.327 0.784,0.339 0.73,0.254 C 0.72,0.222 0.706,0.2 0.627,0.083 0.567,-0.006 0.511,-0.103 0.459,-0.211 l -0.015,-0.02 -0.001,0.003 0.014,0.061 c 0.038,0.145 0.065,0.235 0.08,0.275 0.034,0.092 0.059,0.136 0.088,0.18 L 0.657,0.375 0.649,0.415 0.577,0.45 0.515,0.426 0.495,0.384 C 0.44,0.264 0.411,0.18 0.375,0.056 L 0.349,-0.038 0.142,-0.262 0.036,-0.328 l -0.027,0.007 -0.026,0.049 0.014,0.022 c 0.117,0.102 0.211,0.242 0.292,0.382 L 0.353,0.353 0.294,0.466 0.201,0.481 0.048,0.387 C -0.049,0.241 -0.134,0.083 -0.167,-0.097 l -0.006,-0.072 0.007,-0.058 -0.009,0 -0.071,-0.046 -0.076,-0.062 -0.012,0.035 0.025,0.172 0.07,0.249 0.08,0.219 L -0.176,0.383 -0.24,0.399 -0.316,0.341 C -0.361,0.206 -0.395,0.08 -0.432,-0.049 l -0.021,-0.088 -0.008,-0.039 -0.18,-0.205 -0.01,-0.006 -0.014,0.038 c -0.004,0.108 0.021,0.163 0.042,0.242 0.071,0.274 0.201,0.514 0.316,0.773 L -0.296,0.731 -0.309,0.784 -0.368,0.81 -0.415,0.805 -0.503,0.645 C -0.597,0.415 -0.705,0.131 -0.758,-0.068 l -0.044,-0.207 -0.066,-0.043 -0.075,-0.062 -0.013,0.034 0.026,0.172 0.07,0.25 0.08,0.218 -0.017,0.043 -0.064,0.017 -0.076,-0.059 C -0.982,0.16 -1.016,0.035 -1.054,-0.095 l -0.02,-0.087 -0.017,-0.144 0.058,-0.165 0.094,-0.049 0.136,0.094 0.016,0.022 0.02,-0.03 0.117,-0.068 0.025,-0.002 0.17,0.16 0.043,-0.081 0.095,-0.049 0.135,0.094 0.05,0.065 0.06,-0.078 0.154,-0.054 0.059,0.024 0.165,0.155 0,-0.004 0.014,-0.05 0.087,-0.073 0.045,-0.01 0.049,0.028 0.053,0.072 0.067,0.132 0.018,0.029 0.003,-0.007 0,-0.045 0.028,-0.118 0.059,-0.059 0.092,-0.025 0.044,0.047 -0.027,0.053 -0.045,0.051 -0.012,0.069 0.01,0.156 c 0.018,0.087 0.04,0.156 0.085,0.261 L 0.888,0.266 0.837,0.327"
         style="fill:#ffffff;fill-opacity:1;fill-rule:nonzero;stroke:none"
         id="path15354" />
    </g>
    <g
       id="g15356"
       transform="matrix(1.25,0,0,-1.25,198.50072,337.31932)">
      <path
         inkscape:connector-curvature="0"
         d="m 0,0 -0.015,0.018 -0.046,0.16 c -0.004,0.114 0.043,0.227 0.082,0.319 L 0.068,0.578 0.06,0.606 0.002,0.645 -0.028,0.657 -0.051,0.659 -0.125,0.581 C -0.164,0.417 -0.294,0.302 -0.381,0.157 L -0.418,0.113 -0.433,0.104 -0.437,0.117 c -0.001,0.026 0.01,0.094 0.051,0.21 L -0.28,0.57 -0.275,0.595 -0.284,0.617 -0.368,0.657 -0.432,0.624 -0.459,0.574 C -0.508,0.399 -0.606,0.216 -0.73,0.108 L -0.752,0.092 -0.756,0.097 -0.743,0.16 c 0.054,0.218 0.11,0.342 0.189,0.499 L -0.542,0.748 -0.611,0.781 -0.706,0.714 C -0.724,0.636 -0.741,0.622 -0.77,0.529 -0.815,0.376 -0.896,0.252 -0.89,0.095 l 0.011,-0.086 0.15,-0.077 0.088,0.061 0.047,0.05 0.014,0.013 0.008,-0.012 0.067,-0.062 0.08,-0.018 c 0.093,0.006 0.159,0.106 0.199,0.167 l 0.026,0.032 0.011,-0.036 0.025,-0.09 0.082,-0.104 0.06,-0.01 0.044,0.042 L 0,0"
         style="fill:#ffffff;fill-opacity:1;fill-rule:nonzero;stroke:none"
         id="path15358" />
    </g>
    <g
       id="g15360"
       transform="matrix(1.25,0,0,-1.25,199.22947,336.42682)">
      <path
         inkscape:connector-curvature="0"
         d="m 0,0 -0.036,-0.066 c -0.062,-0.17 -0.208,-0.303 -0.317,-0.452 l -0.052,-0.046 -0.009,0.024 0.092,0.246 c 0.07,0.123 0.167,0.225 0.289,0.316 L -0.007,0.037 0.006,0.022 0,0 m 0.012,-0.525 0.012,0.149 c 0.021,0.131 0.086,0.264 0.143,0.371 L 0.171,0.02 0.12,0.063 0.095,0.081 0.072,0.119 -0.033,0.172 -0.07,0.162 -0.283,0.009 c -0.183,-0.189 -0.263,-0.443 -0.26,-0.546 l 0.039,-0.099 0.07,-0.06 0.047,-0.018 c 0.034,0.003 0.106,0.041 0.188,0.153 l 0.056,0.074 0.014,0.017 0.004,-0.005 0,-0.074 0.024,-0.119 0.081,-0.043 0.032,0.009 0.035,0.036 -0.004,0.017 -0.031,0.124"
         style="fill:#ffffff;fill-opacity:1;fill-rule:nonzero;stroke:none"
         id="path15362" />
    </g>
    <g
       id="g15364"
       transform="matrix(1.25,0,0,-1.25,201.18072,336.20682)">
      <path
         inkscape:connector-curvature="0"
         d="m 0,0 -0.025,-0.011 -0.16,-0.092 -0.014,-0.005 -0.003,0.004 0.004,0.019 0.018,0.063 c 0.029,0.09 0.092,0.228 0.109,0.356 L -0.067,0.377 -0.093,0.403 -0.16,0.414 -0.194,0.402 -0.221,0.371 c -0.04,-0.128 -0.07,-0.264 -0.098,-0.372 l -0.02,-0.082 -0.013,-0.018 -0.054,0.018 -0.027,0.002 -0.062,-0.047 0.014,-0.025 0.082,-0.096 0.012,-0.013 -0.007,-0.032 c -0.032,-0.12 -0.051,-0.262 -0.08,-0.389 l -0.003,-0.037 -0.009,0.004 -0.084,0.085 -0.085,0.198 -0.026,0.086 -0.008,0.028 0.008,0.02 0.208,0.212 0.037,0.053 0.058,0.126 -0.034,0.038 -0.057,0.02 -0.073,-0.067 -0.16,-0.219 -0.032,-0.027 -0.003,0.003 0.01,0.038 c 0.037,0.121 0.067,0.249 0.113,0.358 l 0.042,0.089 0.027,0.101 -0.073,0.067 -0.048,0.001 -0.029,-0.027 -0.016,-0.06 C -0.761,0.234 -0.814,0.063 -0.864,-0.109 l -0.113,0.043 -0.171,-0.127 -0.013,-0.012 -0.003,0.005 10e-4,0.046 -0.026,0.093 -0.06,0.024 -0.069,-0.053 0.014,-0.039 -0.011,-0.089 c -0.019,-0.114 -0.044,-0.226 -0.07,-0.339 l -0.065,-0.187 0.029,-0.069 0.064,-0.042 0.03,0.016 0.034,0.08 c 0.027,0.209 0.126,0.357 0.236,0.458 l 0.095,0.072 0.059,-0.011 0.002,0 c -0.04,-0.142 -0.077,-0.284 -0.108,-0.428 L -1.02,-0.746 c 0.149,-0.264 0.193,0.249 0.202,0.294 l 0.014,0.036 0.013,-0.029 c 0.021,-0.065 0.055,-0.161 0.111,-0.276 l 0.035,-0.042 0.141,-0.074 0.043,0.021 0.018,0.023 0.057,-0.014 0.062,0.091 0.05,0.29 0.014,0.063 0.041,0.099 0.205,0.094 0.06,0.042 0.046,0.073 L 0,0"
         style="fill:#ffffff;fill-opacity:1;fill-rule:nonzero;stroke:none"
         id="path15366" />
    </g>
    <g
       transform="matrix(1.25,0,0,-1.25,-420.50678,1026.3155)"
       id="g15368">
      <g
         id="g15370"
         clip-path="url(#clipPath15372)">
        <g
           id="g15376"
           transform="translate(483.123,552.456)">
          <path
             inkscape:connector-curvature="0"
             d="m 0,0 0,2.203 1.066,0 0.27,-1.014 0.296,1.011 1.071,0 0,-2.207 -0.766,0 -0.003,1.299 -0.355,-1.299 -0.477,0 -0.358,1.312 0,-1.308"
             style="fill:#005698;fill-opacity:1;fill-rule:nonzero;stroke:none"
             id="path15378" />
        </g>
      </g>
    </g>
    <g
       id="g15380"
       transform="matrix(1.25,0,0,-1.25,186.98197,333.85182)">
      <path
         inkscape:connector-curvature="0"
         d="m 0,0 0.676,0 0,-1.518 -0.679,0"
         style="fill:#005698;fill-opacity:1;fill-rule:nonzero;stroke:none"
         id="path15382" />
    </g>
    <g
       id="g15384"
       transform="matrix(1.25,0,0,-1.25,190.32697,333.85182)">
      <path
         inkscape:connector-curvature="0"
         d="m 0,0 0.676,0 0,-1.518 -0.679,0"
         style="fill:#005698;fill-opacity:1;fill-rule:nonzero;stroke:none"
         id="path15386" />
    </g>
    <g
       id="g15388"
       transform="matrix(1.25,0,0,-1.25,188.01072,335.76182)">
      <path
         inkscape:connector-curvature="0"
         d="m 0,0 0.003,1.524 0.673,0 0,-0.137 c 0,0 0.224,0.2 0.501,0.2 0.278,0 0.502,-0.272 0.502,-0.476 l 0,-1.102 -0.714,0 0,0.852 c 0,0 0.007,0.141 -0.121,0.144 C 0.716,1.008 0.697,0.88 0.697,0.88 L 0.694,0.003 0,0"
         style="fill:#005698;fill-opacity:1;fill-rule:nonzero;stroke:none"
         id="path15390" />
    </g>
    <g
       id="g15392"
       transform="matrix(1.25,0,0,-1.25,187.86947,333.31807)">
      <path
         inkscape:connector-curvature="0"
         d="m 0,0 c 0,-0.172 -0.167,-0.311 -0.374,-0.311 -0.206,0 -0.373,0.139 -0.373,0.311 0,0.172 0.167,0.311 0.373,0.311 C -0.167,0.311 0,0.172 0,0"
         style="fill:#005698;fill-opacity:1;fill-rule:nonzero;stroke:none"
         id="path15394" />
    </g>
    <g
       id="g15396"
       transform="matrix(1.25,0,0,-1.25,191.20572,333.31807)">
      <path
         inkscape:connector-curvature="0"
         d="m 0,0 c 0,-0.172 -0.167,-0.311 -0.374,-0.311 -0.206,0 -0.373,0.139 -0.373,0.311 0,0.172 0.167,0.311 0.373,0.311 C -0.167,0.311 0,0.172 0,0"
         style="fill:#005698;fill-opacity:1;fill-rule:nonzero;stroke:none"
         id="path15398" />
    </g>
    <g
       id="g15400"
       transform="matrix(1.25,0,0,-1.25,197.66197,333.85182)">
      <path
         inkscape:connector-curvature="0"
         d="m 0,0 0.676,0 0,-1.518 -0.679,0"
         style="fill:#005698;fill-opacity:1;fill-rule:nonzero;stroke:none"
         id="path15402" />
    </g>
    <g
       id="g15404"
       transform="matrix(1.25,0,0,-1.25,198.54072,333.31807)">
      <path
         inkscape:connector-curvature="0"
         d="m 0,0 c 0,-0.172 -0.167,-0.311 -0.374,-0.311 -0.206,0 -0.373,0.139 -0.373,0.311 0,0.172 0.167,0.311 0.373,0.311 C -0.167,0.311 0,0.172 0,0"
         style="fill:#005698;fill-opacity:1;fill-rule:nonzero;stroke:none"
         id="path15406" />
    </g>
    <g
       id="g15408"
       transform="matrix(1.25,0,0,-1.25,193.76447,335.74932)">
      <path
         inkscape:connector-curvature="0"
         d="m 0,0 0,1.518 0.698,0 0,-0.172 c 0,0 0.198,0.291 0.495,0.191 l 0,-0.589 c 0,0 -0.39,0.176 -0.486,-0.156 l 0,-0.795 L 0,0"
         style="fill:#005698;fill-opacity:1;fill-rule:nonzero;stroke:none"
         id="path15410" />
    </g>
    <g
       id="g15412"
       transform="matrix(1.25,0,0,-1.25,192.56697,334.59182)">
      <path
         inkscape:connector-curvature="0"
         d="m 0,0 c -0.1,0 -0.181,-0.092 -0.181,-0.205 0,-0.113 0.081,-0.205 0.181,-0.205 0.101,0 0.181,0.092 0.181,0.205 C 0.181,-0.092 0.101,0 0,0 m -0.97,-1.374 0,1.966 0.706,0 0,-0.107 c 0,0 0.172,0.144 0.39,0.144 0.218,0 0.716,-0.128 0.716,-0.864 0,-0.247 -0.205,-0.676 -0.692,-0.691 -0.236,0 -0.404,0.144 -0.404,0.144 l 0,-0.589 -0.716,-0.003"
         style="fill:#005698;fill-opacity:1;fill-rule:nonzero;stroke:none"
         id="path15414" />
    </g>
    <g
       id="g15416"
       transform="matrix(1.25,0,0,-1.25,196.47572,334.31807)">
      <path
         inkscape:connector-curvature="0"
         d="m 0,0 c -0.199,0 -0.184,-0.216 -0.184,-0.216 l 0.38,0 c 0,0 0.029,0.213 -0.196,0.216 m 0.777,-0.501 -0.935,0 c 0,0 0.016,-0.197 0.305,-0.194 0.291,0.003 0.478,0.119 0.478,0.119 l 0.03,-0.516 c 0,0 -0.457,-0.245 -0.98,-0.091 -0.525,0.153 -0.714,0.723 -0.512,1.124 0.161,0.328 0.52,0.469 0.814,0.472 0.292,0.003 0.719,-0.15 0.816,-0.544 0.025,-0.107 0.049,-0.37 -0.016,-0.37"
         style="fill:#005698;fill-opacity:1;fill-rule:nonzero;stroke:none"
         id="path15418" />
    </g>
    <g
       id="g15420"
       transform="matrix(1.25,0,0,-1.25,198.74572,335.71807)">
      <path
         inkscape:connector-curvature="0"
         d="m 0,0 0,0.553 c 0,0 0.248,-0.193 0.38,-0.193 0.132,0 0.236,0.01 0.236,0.114 C 0.612,0.555 0.477,0.571 0.383,0.589 0.29,0.607 -0.036,0.62 -0.036,1.006 c 0,0.315 0.38,0.511 0.721,0.514 0.25,0 0.568,-0.105 0.568,-0.105 l 0,-0.508 c 0,0 -0.318,0.198 -0.489,0.18 C 0.65,1.079 0.625,1.053 0.628,1.019 0.63,0.977 0.65,0.938 0.748,0.915 0.847,0.891 1.353,0.881 1.34,0.42 1.332,0.211 1.128,-0.104 0.525,-0.094 0.118,-0.091 0,0 0,0"
         style="fill:#005698;fill-opacity:1;fill-rule:nonzero;stroke:none"
         id="path15422" />
    </g>
  </g>
</svg>
