<?xml version="1.0" encoding="UTF-8" standalone="no"?>
<!-- Created with Inkscape (http://www.inkscape.org/) -->
<svg
   xmlns:dc="http://purl.org/dc/elements/1.1/"
   xmlns:cc="http://creativecommons.org/ns#"
   xmlns:rdf="http://www.w3.org/1999/02/22-rdf-syntax-ns#"
   xmlns:svg="http://www.w3.org/2000/svg"
   xmlns="http://www.w3.org/2000/svg"
   xmlns:sodipodi="http://sodipodi.sourceforge.net/DTD/sodipodi-0.dtd"
   xmlns:inkscape="http://www.inkscape.org/namespaces/inkscape"
   version="1.0"
   width="130.60001"
   height="21.299999"
   id="svg2"
   xml:space="preserve"
   sodipodi:version="0.32"
   inkscape:version="0.46"
   sodipodi:docname="Mothercare.svg"
   inkscape:output_extension="org.inkscape.output.svg.inkscape"><metadata
     id="metadata52"><rdf:RDF><cc:Work
         rdf:about=""><dc:format>image/svg+xml</dc:format><dc:type
           rdf:resource="http://purl.org/dc/dcmitype/StillImage" /></cc:Work></rdf:RDF></metadata><sodipodi:namedview
     inkscape:window-height="480"
     inkscape:window-width="640"
     inkscape:pageshadow="2"
     inkscape:pageopacity="0.0"
     guidetolerance="10.0"
     gridtolerance="10.0"
     objecttolerance="10.0"
     borderopacity="1.0"
     bordercolor="#666666"
     pagecolor="#ffffff"
     id="base"
     showgrid="false" /><defs
     id="defs5"><inkscape:perspective
       sodipodi:type="inkscape:persp3d"
       inkscape:vp_x="0 : 10.4 : 1"
       inkscape:vp_y="0 : 1000 : 0"
       inkscape:vp_z="130.60001 : 10.4 : 1"
       inkscape:persp3d-origin="65.300003 : 6.9333331 : 1"
       id="perspective54" /><clipPath
       id="clipPath17"><path
         d="M 0,0 L 1150.866,0 L 1150.866,708.661 L 0,708.661 L 0,0 z"
         id="path19" /></clipPath><clipPath
       id="clipPath35"><path
         d="M 0,0 L 1150.866,0 L 1150.866,708.661 L 0,708.661 L 0,0 z"
         id="path37" /></clipPath><clipPath
       id="clipPath87"><path
         d="M 48.189,96.378 L 105.084,96.378 L 105.084,170.444 L 48.189,170.444 L 48.189,96.378 z"
         id="path89" /></clipPath><clipPath
       id="clipPath667"><path
         d="M 0,0 L 1150.866,0 L 1150.866,708.661 L 0,708.661 L 0,0 z"
         id="path669" /></clipPath><clipPath
       id="clipPath679"><path
         d="M 689.242,423.62 L 1056.901,423.62 L 1056.901,512.091 L 689.242,512.091 L 689.242,423.62 z"
         id="path681" /></clipPath><clipPath
       id="clipPath727"><path
         d="M 0,0 L 1150.866,0 L 1150.866,708.661 L 0,708.661 L 0,0 z"
         id="path729" /></clipPath><clipPath
       id="clipPath743"><path
         d="M 982.68402,125.496 L 1104.4399,125.496 L 1104.4399,22.6826 L 982.68402,22.6826 L 982.68402,125.496 z"
         id="path745" /></clipPath><clipPath
       id="clipPath747"><path
         d="M 983.684,23.683 L 1103.442,23.683 L 1103.442,124.496 L 983.684,124.496 L 983.684,23.683 z"
         id="path749" /></clipPath><clipPath
       id="clipPath751"><path
         d="M 983.685,31.934 L 1092.165,31.934 L 1092.165,124.496 L 983.685,124.496 L 983.685,31.934 z"
         id="path753" /></clipPath><clipPath
       id="clipPath755"><path
         d="M 983.684,23.683 L 1103.442,23.683 L 1103.442,124.496 L 983.684,124.496 L 983.684,23.683 z"
         id="path757" /></clipPath><clipPath
       id="clipPath759"><path
         d="M 983.685,31.934 L 1092.165,31.934 L 1092.165,124.496 L 983.685,124.496 L 983.685,31.934 z"
         id="path761" /></clipPath><clipPath
       id="clipPath763"><path
         d="M 983.684,23.683 L 1103.442,23.683 L 1103.442,124.496 L 983.684,124.496 L 983.684,23.683 z"
         id="path765" /></clipPath></defs><g
     transform="matrix(1.25,0,0,-1.25,-866.27885,637.9936)"
     id="g11"><g
       transform="matrix(0.3004789,0,0,0.3004789,485.74944,356.48045)"
       id="g675"
       style="fill:#003971;fill-opacity:1"><g
         clip-path="url(#clipPath679)"
         id="g677"
         style="fill:#003971;fill-opacity:1"><g
           transform="translate(767.8715,458.6827)"
           id="g683"
           style="fill:#003971;fill-opacity:1"><path
             d="M 0,0 C -10.461,0 -18.093,8.027 -18.093,18.422 C -18.093,28.817 -10.527,36.91 0,36.91 C 10.593,36.91 18.093,28.883 18.093,18.422 C 18.093,13.159 16.251,8.684 12.895,5.263 C 9.474,1.842 5,0 0,0 M -10.001,18.422 C -10.001,11.645 -5.658,7.105 0,7.105 C 5.658,7.105 9.935,11.513 9.935,18.422 C 9.935,25.264 5.658,29.804 0,29.804 C -5.658,29.804 -10.001,25.198 -10.001,18.422"
             id="path685"
             style="fill:#003971;fill-opacity:1;fill-rule:nonzero;stroke:none" /></g><g
           transform="translate(791.2383,468.2881)"
           id="g687"
           style="fill:#003971;fill-opacity:1"><path
             d="M 0,0 L 0,20.133 L -4.145,20.133 L -4.145,27.041 L 0,27.041 L 0,35.002 L 7.369,35.002 L 7.369,27.041 L 12.698,27.041 L 12.698,20.133 L 7.369,20.133 L 7.369,0.725 C 7.369,-0.855 7.763,-1.183 8.882,-1.183 L 15.132,-1.183 L 15.132,-8.75 L 8.685,-8.75 C 2.632,-8.75 0,-6.184 0,0"
             id="path689"
             style="fill:#003971;fill-opacity:1;fill-rule:nonzero;stroke:none" /></g><g
           transform="translate(832.432,479.5389)"
           id="g691"
           style="fill:#003971;fill-opacity:1"><path
             d="M 0,0 C 0,6.71 -1.908,9.277 -6.316,9.277 C -11.383,9.277 -13.882,6.382 -13.882,-0.263 L -13.882,-20.001 L -21.778,-20.001 L -21.778,30.856 L -13.882,30.856 L -13.882,13.225 C -11.448,15.329 -8.62,16.382 -5.329,16.382 C 2.762,16.382 7.895,10.461 7.895,0.526 L 7.895,-20.001 L 0,-20.001 L 0,0"
             id="path693"
             style="fill:#003971;fill-opacity:1;fill-rule:nonzero;stroke:none" /></g><g
           transform="translate(863.3614,465.8537)"
           id="g695"
           style="fill:#003971;fill-opacity:1"><path
             d="M 0,0 C 3.948,0 7.501,1.646 11.053,5.79 L 16.778,1.119 C 11.712,-4.803 6.448,-7.171 -0.132,-7.171 C -10.719,-7.171 -18.746,0.395 -18.746,11.054 C -18.746,22.237 -11.312,29.739 -0.659,29.739 C 10.198,29.739 17.764,21.777 17.764,9.803 L 17.764,8.356 L -10.851,8.356 C -10.061,3.355 -5.85,0 0,0 M -10.785,15.001 L 9.079,15.001 C 8.028,19.607 4.211,22.633 -0.723,22.633 C -5.719,22.633 -9.798,19.475 -10.785,15.001"
             id="path697"
             style="fill:#003971;fill-opacity:1;fill-rule:nonzero;stroke:none" /></g><g
           transform="translate(893.7068,479.1444)"
           id="g699"
           style="fill:#003971;fill-opacity:1"><path
             d="M 0,0 L 0,-19.607 L -7.369,-19.607 L -7.369,15.593 L -0.262,15.593 L -0.262,13.027 C 1.646,15.132 4.08,16.185 7.041,16.185 C 7.698,16.185 8.422,16.185 9.87,15.855 L 9.87,7.961 C 7.763,8.421 6.909,8.552 6.25,8.552 C 2.172,8.552 0,5.987 0,0"
             id="path701"
             style="fill:#003971;fill-opacity:1;fill-rule:nonzero;stroke:none" /></g><g
           transform="translate(905.1217,477.1045)"
           id="g703"
           style="fill:#003971;fill-opacity:1"><path
             d="M 0,0 C 0,10.592 7.37,18.488 17.962,18.488 C 22.831,18.488 26.844,17.04 30.792,13.356 L 25.791,7.5 C 23.224,10.395 20.988,11.382 17.962,11.382 C 12.238,11.382 8.027,6.777 8.027,0 C 8.027,-6.843 12.238,-11.251 17.962,-11.251 C 21.187,-11.251 23.621,-10.132 25.99,-7.04 L 31.12,-12.961 C 26.778,-16.974 22.896,-18.422 17.962,-18.422 C 7.435,-18.422 0,-10.592 0,0"
             id="path705"
             style="fill:#003971;fill-opacity:1;fill-rule:nonzero;stroke:none" /></g><g
           transform="translate(966.1041,463.3542)"
           id="g707"
           style="fill:#003971;fill-opacity:1"><path
             d="M 0,0 C -2.829,-2.896 -6.579,-4.277 -11.119,-4.277 C -21.316,-4.277 -28.948,3.751 -28.948,13.882 C -28.948,24.672 -21.844,32.04 -11.119,32.04 C -6.512,32.04 -2.567,30.461 0.461,27.501 L 0.461,31.383 L 7.829,31.383 L 7.829,-3.817 L 0,-3.817 L 0,0 z M -20.923,13.816 C -20.923,7.171 -16.448,2.698 -10.264,2.698 C -4.145,2.698 0.328,7.237 0.328,13.816 C 0.328,20.395 -4.145,24.935 -10.264,24.935 C -16.448,24.935 -20.923,20.395 -20.923,13.816"
             id="path709"
             style="fill:#003971;fill-opacity:1;fill-rule:nonzero;stroke:none" /></g><g
           transform="translate(987.7916,479.1444)"
           id="g711"
           style="fill:#003971;fill-opacity:1"><path
             d="M 0,0 L 0,-19.607 L -7.369,-19.607 L -7.369,15.593 L -0.264,15.593 L -0.264,13.027 C 1.644,15.132 4.078,16.185 7.039,16.185 C 7.698,16.185 8.42,16.185 9.868,15.855 L 9.868,7.961 C 7.763,8.421 6.907,8.552 6.25,8.552 C 2.17,8.552 0,5.987 0,0"
             id="path713"
             style="fill:#003971;fill-opacity:1;fill-rule:nonzero;stroke:none" /></g><g
           transform="translate(1016.8824,465.8537)"
           id="g715"
           style="fill:#003971;fill-opacity:1"><path
             d="M 0,0 C 3.947,0 7.499,1.646 11.053,5.79 L 16.776,1.119 C 11.711,-4.803 6.448,-7.171 -0.133,-7.171 C -10.724,-7.171 -18.751,0.395 -18.751,11.054 C -18.751,22.237 -11.317,29.739 -0.659,29.739 C 10.198,29.739 17.763,21.777 17.763,9.803 L 17.763,8.356 L -10.857,8.356 C -10.066,3.355 -5.855,0 0,0 M -10.791,15.001 L 9.078,15.001 C 8.026,19.607 4.21,22.633 -0.725,22.633 C -5.724,22.633 -9.804,19.475 -10.791,15.001"
             id="path717"
             style="fill:#003971;fill-opacity:1;fill-rule:nonzero;stroke:none" /></g><g
           transform="translate(737.3761,479.2275)"
           id="g719"
           style="fill:#003971;fill-opacity:1"><path
             d="M 0,0 C 0,6.578 -2.172,9.145 -6.184,9.145 C -11.185,9.145 -13.619,6.381 -13.619,-0.264 L -13.619,-19.673 L -21.251,-19.673 L -21.251,0 C -21.251,6.512 -23.488,9.145 -27.501,9.145 C -32.501,9.145 -34.936,6.381 -34.936,-0.264 L -34.936,-19.673 L -44.353,-19.673 L -44.353,15.527 L -35.002,15.527 L -35.002,13.027 C -32.501,15.132 -29.738,16.184 -26.448,16.184 C -22.435,16.184 -19.277,14.605 -16.712,11.315 C -13.619,14.54 -9.935,16.184 -5.461,16.184 C 2.566,16.184 7.829,10.328 7.829,0.592 L 7.829,-19.673 L 0,-19.673 L 0,0"
             id="path721"
             style="fill:#003971;fill-opacity:1;fill-rule:nonzero;stroke:none" /></g></g></g></g></svg>