<?xml version="1.0" encoding="utf-8"?>
<!-- Generator: Adobe Illustrator 13.0.0, SVG Export Plug-In . SVG Version: 6.00 Build 14948)  -->
<!DOCTYPE svg PUBLIC "-//W3C//DTD SVG 1.1//EN" "http://www.w3.org/Graphics/SVG/1.1/DTD/svg11.dtd">
<svg version="1.1" id="Foreground" xmlns="http://www.w3.org/2000/svg" xmlns:xlink="http://www.w3.org/1999/xlink" x="0px" y="0px"
	 width="644.922px" height="265.352px" viewBox="0 0 644.922 265.352" enable-background="new 0 0 644.922 265.352"
	 xml:space="preserve">
<path fill-rule="evenodd" clip-rule="evenodd" fill="#FFFFFF" stroke="#FFFFFF" stroke-width="9.5" d="M133.376,260.598
	l-1.052,0.004c-70.458,0-127.574-57.273-127.574-127.926C4.75,62.023,61.866,4.75,132.324,4.75l1.147,0.004h380.273
	c69.975,0.566,126.427,57.621,126.427,127.921c0,70.301-56.548,127.356-126.522,127.922H133.376z"/>
<path fill-rule="evenodd" clip-rule="evenodd" fill="#ED1C24" d="M133.376,260.598l-1.052,0.004
	c-70.458,0-127.574-57.273-127.574-127.926C4.75,62.023,61.866,4.75,132.324,4.75l1.147,0.004h380.273
	c69.975,0.566,126.427,57.621,126.427,127.921c0,70.301-56.548,127.356-126.522,127.922H133.376z"/>
<g>
	<path fill-rule="evenodd" clip-rule="evenodd" fill="#FFFFFF" d="M440.511,85.612h2.834V74.88c0-1.299,1.232-4.399,4.6-4.399
		c2.533,0,3.232,1.6,3.232,3.833v11.299h2.833V74.88c0-2.666,1.767-4.399,4.499-4.399c2.767,0,3.333,1.7,3.333,3.833v11.299h2.833
		V72.98c0-3.566-2.3-5-5.732-5c-2.199,0-4.232,1.1-5.398,2.934c-0.701-2.1-2.634-2.934-4.733-2.934c-2.366,0-4.3,1-5.566,2.934
		h-0.067v-2.533h-2.666V85.612z"/>
	<polygon fill-rule="evenodd" clip-rule="evenodd" fill="#FFFFFF" points="483.966,68.381 481,68.381 476.3,82.746 476.233,82.746 
		471.4,68.381 468.234,68.381 474.633,85.612 477.666,85.612 	"/>
	<path fill-rule="evenodd" clip-rule="evenodd" fill="#FFFFFF" d="M487.7,85.612h2.833V68.381H487.7V85.612z M490.533,61.814H487.7
		v3.466h2.833V61.814z"/>
	<path fill-rule="evenodd" clip-rule="evenodd" fill="#FFFFFF" d="M511.293,61.814h-2.833v8.866h-0.066
		c-1.268-2.033-3.801-2.7-5.566-2.7c-5.266,0-7.866,4.1-7.866,8.966c0,4.866,2.634,9.065,7.933,9.065c2.367,0,4.566-0.833,5.5-2.733
		h0.066v2.333h2.833V61.814z M497.961,77.146c0-3.366,1.3-6.666,5.167-6.666c3.898,0,5.432,3.133,5.432,6.533
		c0,3.233-1.467,6.5-5.266,6.5C499.627,83.513,497.961,80.38,497.961,77.146z"/>
	<path fill-rule="evenodd" clip-rule="evenodd" fill="#FFFFFF" d="M528.519,80.146c-0.5,2.233-2.133,3.367-4.467,3.367
		c-3.766,0-5.466-2.667-5.365-5.667h12.898c0.166-4.166-1.699-9.866-7.799-9.866c-4.7,0-8.1,3.8-8.1,8.966
		c0.166,5.266,2.766,9.065,8.266,9.065c3.866,0,6.6-2.066,7.366-5.866H528.519z M518.687,75.347
		c0.199-2.633,1.966-4.866,4.932-4.866c2.801,0,4.834,2.166,4.967,4.866H518.687z"/>
	<path fill-rule="evenodd" clip-rule="evenodd" fill="#FFFFFF" d="M535.878,77.013c0,5.033,2.9,8.999,8.365,8.999
		c5.467,0,8.366-3.966,8.366-8.999c0-5.066-2.899-9.033-8.366-9.033C538.778,67.98,535.878,71.947,535.878,77.013z M538.878,77.013
		c0-4.2,2.399-6.533,5.365-6.533c2.967,0,5.367,2.333,5.367,6.533c0,4.167-2.4,6.5-5.367,6.5
		C541.277,83.513,538.878,81.18,538.878,77.013z"/>
	<rect x="557.54" y="81.913" fill-rule="evenodd" clip-rule="evenodd" fill="#FFFFFF" width="3.7" height="3.699"/>
	<path fill-rule="evenodd" clip-rule="evenodd" fill="#FFFFFF" d="M567.034,85.612h2.833v-7.666c0-4.366,1.666-6.966,6.232-6.966v-3
		c-3.066-0.1-4.966,1.267-6.332,4.033H569.7v-3.633h-2.666V85.612z"/>
	<path fill-rule="evenodd" clip-rule="evenodd" fill="#FFFFFF" d="M594.455,68.381h-2.834v9.732c0,3.1-1.666,5.4-5.099,5.4
		c-2.167,0-3.5-1.367-3.5-3.467V68.381h-2.833v11.332c0,3.7,1.4,6.299,5.933,6.299c2.467,0,4.399-1,5.6-3.133h0.066v2.733h2.667
		V68.381z"/>
</g>
<g>
	<g>
		<path fill="#FFFFFF" d="M239.286,61.409h1.65l2.53,3.998h1.534l-2.637-4.101c1.428-0.108,2.417-0.864,2.417-2.485
			c0-1.835-1.096-2.697-3.294-2.697h-3.624v9.283h1.425V61.409L239.286,61.409z M239.286,57.31h1.979
			c0.99,0,2.088,0.216,2.088,1.405c0,1.402-1.099,1.51-2.308,1.51h-1.76V57.31z"/>
		<path fill="#FFFFFF" d="M241.045,68.97c4.392,0,8.24-3.563,8.24-8.206c0-4.641-3.848-7.99-8.24-7.99
			c-4.502,0-8.458,3.349-8.458,7.99C232.587,65.406,236.543,68.97,241.045,68.97L241.045,68.97z M241.045,54.071
			c3.733,0,6.593,2.914,6.593,6.693c0,3.888-2.86,6.694-6.593,6.694c-3.738,0-6.7-2.807-6.7-6.694
			C234.346,56.985,237.308,54.071,241.045,54.071z"/>
	</g>
	<path fill="#FFFFFF" d="M230.869,178.932c0,4.912-3.986,8.896-8.896,8.896c-4.911,0-8.889-3.984-8.889-8.896
		c0-4.91,3.978-8.887,8.889-8.887C226.883,170.045,230.869,174.022,230.869,178.932z"/>
	<path fill="#FFFFFF" d="M341.119,71.027c-13.111-7.304-71.438,9.211-90.154,72.272c-2.203,0.605-12.788,3.357-12.788,3.357
		l-4.627,12.463l16.412-5.006c0,0-1.801,30.232,25.72,31.135c21.611-0.807,32.915-31.537,25.993-53.156
		c-1.318,0.697-18.588,9.006-18.588,9.006s4.001,23.727-5.604,26.631c-3.11,0.398-6.76-9.1-3.414-23.328
		C319.98,120.53,349.087,75.5,341.119,71.027L341.119,71.027z M322.809,85.441c8.802-0.794-33.519,44.247-44.331,46.447
		C274.979,129.889,305.296,89.747,322.809,85.441z"/>
	<path fill="#FFFFFF" d="M315.902,128.589v8.906c0,0,11.709-7.606,12.609-6.203c0.297,4.002-14.504,37.84-14.807,42.941
		c-0.302,3.105,2.6,14.818,16.303,8.711c6.711-2.9,24.697-17.645,24.697-17.645s-2.898,7.523-1.668,13.537
		c1.218,6.016,8.683,7.6,15.411,5.109c6.729-2.496,14.412-7.611,17.721-11.613c-0.502-1.305-2.405-7.309-2.405-7.309
		s-6.03,5.691-7.515,4.949c-1.49-0.746,17.123-55.296,17.123-55.296s-19.085-0.739-20.988-0.739
		c-3.144,14.33-20.964,50.684-33.26,52.288c-4.213-0.301,14.907-42.943,15.614-47.75c1.399-6.308-3.318-9.208-8.913-7.907
		C339.922,112.573,315.902,128.589,315.902,128.589z"/>
	<path fill="#FFFFFF" d="M447.027,113.33c0,0-2.313,5.708-2.745,6.692c-2.414-4.168-10.763-12.29-28-1.533
		c-17.992,11.635-25.679,31.505-23.258,52.576c2.633,17.453,21.508,19.533,34.236,4.715c-1.313,3.848-14.816,45.338-14.816,45.338
		l20.963,0.109l34.254-107.46L447.027,113.33L447.027,113.33z M424.044,165.245c-2.962,1.643-7.568,4.383-8.221-6.043
		c-0.333-12.291,9.56-26.032,11.449-28.186c4.938-5.596,11.098-5.699,10.941,3.163C437.561,144.383,430.963,160.518,424.044,165.245
		z"/>
	<path fill="#FFFFFF" d="M110.386,183.836c-10.483-11.078-2.33-31.473-0.572-49.539c-2.336,2.334-25.649,56.529-46.629,54.188
		c-18.647-5.813-16.317-26.801-10.49-42.533h30.3c-9.323,25.637,3.497,15.15,12.241-1.164c17.483-35.548,18.65-38.46,37.882-92.08
		c11.071,0,22.14,0,33.219,0c-9.906,30.307-19.235,60.028-23.308,91.496c0,1.164,0.579,2.33,1.746,1.748
		c6.988-1.164,45.454-87.409,48.948-93.244c9.911,0,21.567,0,32.049,0c0,2.914-35.543,100.236-29.715,109.558
		c2.917,5.244,6.999-4.658,10.49-8.742l5.25,5.248c-10.49,11.66-22.725,32.631-40.211,29.139c-2.333-0.584-4.664-1.742-6.408-3.496
		c-18.075-15.732,14.563-72.609,11.071-76.342c-1.086,0.121-2.173,3.012-4.085,6.991c-9.911,20.4-32.627,74.011-51.288,74.011
		C117.968,189.075,112.132,186.168,110.386,183.836z"/>
	<path fill="#FFFFFF" d="M487.981,167.85c38.852-20.418,48.179-46.32,36.219-53.566c-17.678-9.879-66.075,7.793-60.586,56.203
		c-2.424,1.424-7.478,4.17-7.478,4.17l3.521,9.658c0,0,7.133-4.277,8.974-5.555c24.727,20.047,51.859-12.824,51.859-12.824
		l-4.745-7.307C515.746,158.629,495.212,178.381,487.981,167.85L487.981,167.85z M493.133,138.211
		c5.597-9.879,14.604-17.561,18.992-14.487c4.39,3.075-4.503,18.659-25.431,35.219C485.857,157.5,487.534,148.092,493.133,138.211z"
		/>
	<path fill="#FFFFFF" d="M551.646,115.051l22.502-0.656c0,0-31.609,24.941-27.003,48.515c3.633,14.33,17.005,7.35,24.367-8.891
		c1.417-3.184,10.315-24.808,4.715-24.808c-5.598,0-11.443,11.087-11.443,11.087l-6.123-6.146c0,0,12.404-17.676,26.527-22.408
		c1.688-0.532,11.888-2.616,12.003,11.979c0.447,6.805-6.903,44.129-32.479,57.297c-23.461,12.064-33.755-2.383-35.611-6.695
		C516.248,142.418,551.646,115.051,551.646,115.051z"/>
</g>
</svg>
