<?xml version="1.0" encoding="UTF-8" standalone="no"?>
<svg xmlns:rdf="http://www.w3.org/1999/02/22-rdf-syntax-ns#" xmlns="http://www.w3.org/2000/svg" height="6.7697mm" width="42.333mm" version="1.1" xmlns:cc="http://creativecommons.org/ns#" xmlns:dc="http://purl.org/dc/elements/1.1/" viewBox="0 0 150.00001 23.987238">
 <g transform="translate(-22.223 -379.47)">
  <path d="m164.71 379.47c3.6967-0.01 7.5187 2.7732 7.2761 6.7164v1.1994l-0.23987 0.95949-0.47974 0.71962-0.47975 0.95948-1.1994 1.1994-1.6791 0.71962-2.7186 1.4392-0.95949 0.23988 7.9957 9.8348h-15.272l-6.7164-8.6354v8.6354h-12.633v-23.987h27.106zm-14.952 5.0373v4.0778h7.1962l0.71962-0.23987 0.79957-0.47974 0.23987-0.47975v-1.4392l-0.23987-0.47974-0.79957-0.71962-0.71962-0.23987h-7.1962m-17.191-5.0373v5.2772h-18.87v4.3177h16.951v4.7974h-16.711v4.3177h18.63v5.2772h-31.503v-23.987h31.503m-56.13 0 7.2761 9.5949 7.1962-9.5949h8.7154l-12.313 17.031v6.9563h-14.072v-8.3955l-12.793-15.592h15.991m-54.211 23.987h3.3582v-15.832l7.7559 15.832h7.2761l6.5565-15.592v15.592h11.834v-23.987h-13.273l-4.8774 11.274-5.3571-11.274h-13.273v23.987"/>
 </g>
</svg>
