<?xml version="1.0" encoding="UTF-8" standalone="no"?>
<!-- Created with Inkscape (http://www.inkscape.org/) -->

<svg
   xmlns:dc="http://purl.org/dc/elements/1.1/"
   xmlns:cc="http://creativecommons.org/ns#"
   xmlns:rdf="http://www.w3.org/1999/02/22-rdf-syntax-ns#"
   xmlns:svg="http://www.w3.org/2000/svg"
   xmlns="http://www.w3.org/2000/svg"
   xmlns:xlink="http://www.w3.org/1999/xlink"
   version="1.1"
   width="534.60474"
   height="234.08093"
   id="svg2">
  <defs
     id="defs4">
    <linearGradient
       x1="38.292301"
       y1="25.5923"
       x2="38.292301"
       y2="36.853699"
       id="linearGradient3063"
       xlink:href="#id0"
       gradientUnits="userSpaceOnUse" />
    <linearGradient
       x1="38.340801"
       y1="14.1463"
       x2="38.340801"
       y2="25.4077"
       id="linearGradient3061"
       xlink:href="#id1"
       gradientUnits="userSpaceOnUse" />
    <style
       type="text/css"
       id="style2989" />
    <linearGradient
       x1="38.292301"
       y1="25.5923"
       x2="38.292301"
       y2="36.853699"
       id="id0"
       gradientUnits="userSpaceOnUse">
      <stop
         id="stop2992"
         style="stop-color:#dedb02;stop-opacity:1"
         offset="0" />
      <stop
         id="stop2994"
         style="stop-color:#737e08;stop-opacity:1"
         offset="1" />
    </linearGradient>
    <linearGradient
       x1="38.340801"
       y1="14.1463"
       x2="38.340801"
       y2="25.4077"
       id="id1"
       gradientUnits="userSpaceOnUse">
      <stop
         id="stop2997"
         style="stop-color:#848688;stop-opacity:1"
         offset="0" />
      <stop
         id="stop2999"
         style="stop-color:#fefefe;stop-opacity:1"
         offset="1" />
    </linearGradient>
    <linearGradient
       x1="27.7138"
       y1="14.1463"
       x2="27.7138"
       y2="25.4077"
       id="id2"
       xlink:href="#id1"
       gradientUnits="userSpaceOnUse" />
    <radialGradient
       cx="45.499901"
       cy="25.5"
       r="36.870399"
       fx="45.499901"
       fy="25.5"
       id="id3"
       gradientUnits="userSpaceOnUse">
      <stop
         id="stop3003"
         style="stop-color:#04471c;stop-opacity:1"
         offset="0" />
      <stop
         id="stop3005"
         style="stop-color:#063116;stop-opacity:1"
         offset="1" />
    </radialGradient>
    <linearGradient
       x1="71.308899"
       y1="25.261299"
       x2="71.308899"
       y2="22.852501"
       id="id4"
       xlink:href="#id1"
       gradientUnits="userSpaceOnUse" />
    <linearGradient
       x1="55.7225"
       y1="26.493401"
       x2="55.7225"
       y2="20.8794"
       id="id5"
       xlink:href="#id1"
       gradientUnits="userSpaceOnUse" />
    <linearGradient
       x1="53.606701"
       y1="25.394199"
       x2="53.606701"
       y2="29.811001"
       id="id6"
       xlink:href="#id0"
       gradientUnits="userSpaceOnUse" />
    <linearGradient
       x1="67.483597"
       y1="25.7729"
       x2="67.483597"
       y2="28.2237"
       id="id7"
       xlink:href="#id0"
       gradientUnits="userSpaceOnUse" />
    <radialGradient
       cx="45.499901"
       cy="25.5"
       r="36.870399"
       fx="45.499901"
       fy="25.5"
       id="radialGradient3071"
       xlink:href="#id3"
       gradientUnits="userSpaceOnUse" />
    <linearGradient
       x1="27.7138"
       y1="14.1463"
       x2="27.7138"
       y2="25.4077"
       id="linearGradient3073"
       xlink:href="#id1"
       gradientUnits="userSpaceOnUse" />
    <linearGradient
       x1="38.340801"
       y1="14.1463"
       x2="38.340801"
       y2="25.4077"
       id="linearGradient3075"
       xlink:href="#id1"
       gradientUnits="userSpaceOnUse" />
    <linearGradient
       x1="38.292301"
       y1="25.5923"
       x2="38.292301"
       y2="36.853699"
       id="linearGradient3077"
       xlink:href="#id0"
       gradientUnits="userSpaceOnUse" />
    <linearGradient
       x1="55.7225"
       y1="26.493401"
       x2="55.7225"
       y2="20.8794"
       id="linearGradient3079"
       xlink:href="#id1"
       gradientUnits="userSpaceOnUse" />
    <linearGradient
       x1="53.606701"
       y1="25.394199"
       x2="53.606701"
       y2="29.811001"
       id="linearGradient3081"
       xlink:href="#id0"
       gradientUnits="userSpaceOnUse" />
    <linearGradient
       x1="71.308899"
       y1="25.261299"
       x2="71.308899"
       y2="22.852501"
       id="linearGradient3083"
       xlink:href="#id1"
       gradientUnits="userSpaceOnUse" />
    <linearGradient
       x1="67.483597"
       y1="25.7729"
       x2="67.483597"
       y2="28.2237"
       id="linearGradient3085"
       xlink:href="#id0"
       gradientUnits="userSpaceOnUse" />
    <radialGradient
       cx="45.499901"
       cy="25.5"
       r="36.870399"
       fx="45.499901"
       fy="25.5"
       id="radialGradient3101"
       xlink:href="#id3"
       gradientUnits="userSpaceOnUse" />
    <linearGradient
       x1="27.7138"
       y1="14.1463"
       x2="27.7138"
       y2="25.4077"
       id="linearGradient3103"
       xlink:href="#id1"
       gradientUnits="userSpaceOnUse" />
    <linearGradient
       x1="38.340801"
       y1="14.1463"
       x2="38.340801"
       y2="25.4077"
       id="linearGradient3105"
       xlink:href="#id1"
       gradientUnits="userSpaceOnUse" />
    <linearGradient
       x1="38.292301"
       y1="25.5923"
       x2="38.292301"
       y2="36.853699"
       id="linearGradient3107"
       xlink:href="#id0"
       gradientUnits="userSpaceOnUse" />
    <linearGradient
       x1="55.7225"
       y1="26.493401"
       x2="55.7225"
       y2="20.8794"
       id="linearGradient3109"
       xlink:href="#id1"
       gradientUnits="userSpaceOnUse" />
    <linearGradient
       x1="53.606701"
       y1="25.394199"
       x2="53.606701"
       y2="29.811001"
       id="linearGradient3111"
       xlink:href="#id0"
       gradientUnits="userSpaceOnUse" />
    <linearGradient
       x1="71.308899"
       y1="25.261299"
       x2="71.308899"
       y2="22.852501"
       id="linearGradient3113"
       xlink:href="#id1"
       gradientUnits="userSpaceOnUse" />
    <linearGradient
       x1="67.483597"
       y1="25.7729"
       x2="67.483597"
       y2="28.2237"
       id="linearGradient3115"
       xlink:href="#id0"
       gradientUnits="userSpaceOnUse" />
    <radialGradient
       cx="45.499901"
       cy="25.5"
       r="36.870399"
       fx="45.499901"
       fy="25.5"
       id="radialGradient3129"
       xlink:href="#id3"
       gradientUnits="userSpaceOnUse" />
  </defs>
  <metadata
     id="metadata7">
    <rdf:RDF>
      <cc:Work
         rdf:about="">
        <dc:format>image/svg+xml</dc:format>
        <dc:type
           rdf:resource="http://purl.org/dc/dcmitype/StillImage" />
        <dc:title></dc:title>
      </cc:Work>
    </rdf:RDF>
  </metadata>
  <g
     transform="translate(-100.3427,-428.48342)"
     id="layer1">
    <g
       transform="matrix(9.4790499,0,0,10.308575,-63.586097,282.65523)"
       id="_222485336"
       style="fill-rule:evenodd">
      <polygon
         points="32.6882,25.4077 28.0884,25.4077 22.7394,14.1463 27.3392,14.1463 "
         id="_222486584"
         style="fill:#000000" />
      <polygon
         points="43.3152,25.4077 38.7154,25.4077 33.3663,14.1463 37.9661,14.1463 "
         id="_222486416"
         style="fill:#000000" />
      <polygon
         points="17.2938,25.4077 21.8936,25.4077 27.2426,14.1463 22.6428,14.1463 "
         id="_222486248"
         style="fill:#000000" />
      <polygon
         points="27.9736,25.4077 32.5734,25.4077 37.9225,14.1463 33.3226,14.1463 "
         id="_222486080"
         style="fill:#000000" />
      <polygon
         points="33.3179,36.8537 37.9177,36.8537 43.2668,25.5923 38.6669,25.5923 "
         id="_222485912"
         style="fill:#000000" />
      <polygon
         points="37.9177,36.8009 33.3179,36.8009 27.9689,25.5396 32.5687,25.5396 "
         id="_222485744"
         style="fill:#000000" />
      <path
         d="m 45.1045,23.1687 -1.2679,-0.1213 c 0.0919,-0.2013 0.1962,-0.36 0.3129,-0.4753 0.1166,-0.1153 0.2698,-0.2154 0.4617,-0.3003 0.137,-0.0617 0.3187,-0.1092 0.5429,-0.1426 0.224,-0.0333 0.4628,-0.0505 0.7161,-0.0505 0.4055,0 0.7283,0.0202 0.965,0.0606 0.2378,0.0405 0.4253,0.1254 0.5614,0.2538 0.0968,0.089 0.1608,0.2144 0.1931,0.3772 0.0308,0.1638 0.0306,0.3185 -0.0012,0.4672 l -0.297,1.3893 c -0.0316,0.1476 -0.0451,0.2639 -0.0426,0.3478 0.0036,0.084 0.0262,0.1912 0.0699,0.3216 l -1.2711,0 c -0.0338,-0.0809 -0.0535,-0.1426 -0.0604,-0.185 -0.0067,-0.0425 -0.0073,-0.1092 -0.0037,-0.2003 -0.2099,0.1527 -0.4101,0.2609 -0.5989,0.3256 -0.2583,0.087 -0.5458,0.1305 -0.8627,0.1305 -0.4215,0 -0.7231,-0.087 -0.9052,-0.2609 -0.1811,-0.1729 -0.2443,-0.3873 -0.1898,-0.6421 0.0512,-0.2396 0.1715,-0.4358 0.3622,-0.5895 0.1911,-0.1547 0.5051,-0.269 0.9448,-0.3438 0.5283,-0.091 0.8713,-0.1547 1.0301,-0.1911 0.1578,-0.0364 0.3283,-0.0849 0.5089,-0.1436 0.0318,-0.1486 0.0198,-0.2518 -0.0356,-0.3114 -0.0568,-0.0587 -0.1707,-0.089 -0.3445,-0.089 -0.2215,0 -0.3942,0.0323 -0.5189,0.095 -0.0969,0.0496 -0.1872,0.1426 -0.2695,0.2781 z m 1.0388,0.634 c -0.199,0.0597 -0.4044,0.1122 -0.6152,0.1577 -0.2888,0.0648 -0.4775,0.1295 -0.5636,0.1922 -0.0902,0.0657 -0.1435,0.1395 -0.1612,0.2224 -0.0204,0.0951 7e-4,0.1719 0.0616,0.2326 0.0622,0.0597 0.1647,0.09 0.3091,0.09 0.1509,0 0.2976,-0.0324 0.4421,-0.0971 0.1435,-0.0657 0.2526,-0.1456 0.327,-0.2386 0.0746,-0.0941 0.1269,-0.2164 0.1589,-0.3661 l 0.0413,-0.1931 z m 0.0469,-2.9233 1.1643,0 -1.264,0.8858 -0.6485,0 0.7482,-0.8858 z m 5.2354,5.614 -1.3675,0 0.3212,-1.5026 c -0.1607,0.1244 -0.333,0.2184 -0.518,0.2821 -0.1861,0.0627 -0.3836,0.0941 -0.5949,0.0941 -0.4294,0 -0.7566,-0.1375 -0.9795,-0.4126 -0.2227,-0.276 -0.2791,-0.6704 -0.1693,-1.1841 0.0735,-0.3437 0.2028,-0.6461 0.3874,-0.909 0.1845,-0.2629 0.4049,-0.4591 0.6619,-0.5885 0.2561,-0.1294 0.5208,-0.1941 0.7969,-0.1941 0.2374,0 0.4455,0.0465 0.6255,0.1395 0.1318,0.0688 0.2637,0.2012 0.3978,0.3974 l 0.0994,-0.4651 1.2677,0 -0.9286,4.3429 z m -0.7681,-2.7615 c 0.0577,-0.27 0.0429,-0.4661 -0.0449,-0.5865 -0.0891,-0.1203 -0.2203,-0.181 -0.3963,-0.181 -0.1613,0 -0.3104,0.0597 -0.4463,0.18 -0.1346,0.1194 -0.2328,0.3186 -0.2929,0.5997 -0.0536,0.2507 -0.0382,0.4337 0.0439,0.549 0.083,0.1163 0.2024,0.1739 0.358,0.1739 0.1818,0 0.3436,-0.0606 0.4863,-0.181 0.1416,-0.1203 0.239,-0.3053 0.2922,-0.5541 z m 5.5731,1.5643 -1.2653,0 0.109,-0.5096 c -0.2334,0.2093 -0.455,0.3589 -0.6658,0.4469 -0.211,0.089 -0.4567,0.1335 -0.7362,0.1335 -0.3725,0 -0.6432,-0.0991 -0.8133,-0.2973 -0.1689,-0.1982 -0.209,-0.5046 -0.1208,-0.9171 l 0.4281,-2.0021 1.3608,0 -0.37,1.7301 c -0.0421,0.1971 -0.0313,0.3377 0.0328,0.4206 0.0652,0.0829 0.171,0.1244 0.3198,0.1244 0.1624,0 0.3061,-0.0556 0.433,-0.1658 0.1271,-0.1113 0.2206,-0.3095 0.2818,-0.5956 l 0.3237,-1.5137 1.355,0 -0.6726,3.1457 z m 1.7998,-4.343 1.3551,0 -0.1756,0.8211 -1.355,0 0.1755,-0.8211 z m -0.256,1.1973 1.3551,0 -0.6726,3.1457 -1.3551,0 0.6726,-3.1457 z m 2.2195,0 1.2619,0 -0.1094,0.5116 c 0.2333,-0.2093 0.456,-0.3579 0.6683,-0.4479 0.2123,-0.09 0.4572,-0.1355 0.7343,-0.1355 0.3748,0 0.6465,0.1001 0.8164,0.2983 0.169,0.1982 0.2092,0.5045 0.1205,0.9191 l -0.4276,2.0001 -1.3608,0 0.3699,-1.7301 c 0.0422,-0.1972 0.0311,-0.3367 -0.0331,-0.4186 -0.0652,-0.0829 -0.1714,-0.1234 -0.3201,-0.1234 -0.1635,0 -0.3096,0.0556 -0.4342,0.1658 -0.1258,0.1103 -0.2195,0.3095 -0.2807,0.5956 l -0.323,1.5107 -1.355,0 0.6726,-3.1457 z m 5.5627,1.0182 -1.2679,-0.1213 c 0.0919,-0.2013 0.1962,-0.36 0.3129,-0.4753 0.1166,-0.1153 0.2698,-0.2154 0.4617,-0.3003 0.137,-0.0617 0.3187,-0.1092 0.5429,-0.1426 0.224,-0.0333 0.4628,-0.0505 0.7161,-0.0505 0.4055,0 0.7283,0.0202 0.965,0.0606 0.2378,0.0405 0.4253,0.1254 0.5614,0.2538 0.0968,0.089 0.1608,0.2144 0.1931,0.3772 0.0308,0.1638 0.0306,0.3185 -0.0012,0.4672 l -0.297,1.3893 c -0.0316,0.1476 -0.0451,0.2639 -0.0426,0.3478 0.0036,0.084 0.0262,0.1912 0.0699,0.3216 l -1.2711,0 c -0.0338,-0.0809 -0.0535,-0.1426 -0.0604,-0.185 -0.0067,-0.0425 -0.0073,-0.1092 -0.0037,-0.2003 -0.2099,0.1527 -0.4101,0.2609 -0.5989,0.3256 -0.2583,0.087 -0.5458,0.1305 -0.8627,0.1305 -0.4215,0 -0.7231,-0.087 -0.9052,-0.2609 -0.1811,-0.1729 -0.2443,-0.3873 -0.1898,-0.6421 0.0512,-0.2396 0.1716,-0.4358 0.3622,-0.5895 0.1911,-0.1547 0.5051,-0.269 0.9448,-0.3438 0.5283,-0.091 0.8713,-0.1547 1.0301,-0.1911 0.1578,-0.0364 0.3283,-0.0849 0.5089,-0.1436 0.0318,-0.1486 0.0198,-0.2518 -0.0356,-0.3114 -0.0568,-0.0587 -0.1707,-0.089 -0.3445,-0.089 -0.2215,0 -0.3942,0.0323 -0.5189,0.095 -0.0969,0.0496 -0.1872,0.1426 -0.2695,0.2781 z m 1.0388,0.634 c -0.199,0.0597 -0.4044,0.1122 -0.6152,0.1577 -0.2888,0.0648 -0.4775,0.1295 -0.5636,0.1922 -0.0902,0.0657 -0.1435,0.1395 -0.1612,0.2224 -0.0204,0.0951 7e-4,0.1719 0.0616,0.2326 0.0622,0.0597 0.1647,0.09 0.3091,0.09 0.1509,0 0.2976,-0.0324 0.4421,-0.0971 0.1435,-0.0657 0.2526,-0.1456 0.327,-0.2386 0.0746,-0.0941 0.1269,-0.2164 0.1589,-0.3661 l 0.0413,-0.1931 z"
         id="_222485648"
         style="fill:#000000;fill-rule:nonzero" />
      <path
         d="m 46.7118,28.4631 -2.7147,0 c -0.0177,0.1942 0.0107,0.3378 0.0835,0.4328 0.1015,0.1365 0.2585,0.2043 0.4687,0.2043 0.1328,0 0.2663,-0.0294 0.3983,-0.089 0.0818,-0.0374 0.1743,-0.1032 0.2786,-0.1982 l 1.3113,0.1092 c -0.2721,0.3165 -0.5659,0.543 -0.8838,0.6805 -0.3177,0.1365 -0.7458,0.2053 -1.2853,0.2053 -0.468,0 -0.8234,-0.0587 -1.0676,-0.176 -0.243,-0.1173 -0.4256,-0.3043 -0.5469,-0.5601 -0.1215,-0.2559 -0.1458,-0.5562 -0.0718,-0.902 0.105,-0.4914 0.3674,-0.8898 0.7855,-1.1932 0.4195,-0.3043 0.9406,-0.457 1.5641,-0.457 0.5055,0 0.8906,0.0687 1.1533,0.2052 0.264,0.1355 0.4454,0.3337 0.5425,0.5916 0.098,0.2588 0.1021,0.5955 0.0135,1.0101 l -0.0292,0.1365 z m -1.2532,-0.5773 c 0.0227,-0.2336 -0.0121,-0.4005 -0.1042,-0.5006 -0.0931,-0.1011 -0.2323,-0.1516 -0.4186,-0.1516 -0.2158,0 -0.4038,0.0768 -0.5656,0.2285 -0.1021,0.095 -0.1845,0.2356 -0.2463,0.4237 l 1.3347,0 z m 2.2758,-1.2943 1.2619,0 -0.1094,0.5116 c 0.2334,-0.2093 0.456,-0.3579 0.6684,-0.4479 0.2123,-0.09 0.4571,-0.1355 0.7342,-0.1355 0.3749,0 0.6466,0.1001 0.8165,0.2983 0.1689,0.1982 0.2091,0.5045 0.1205,0.9191 l -0.4277,2.0001 -1.3608,0 0.37,-1.7301 c 0.0421,-0.1972 0.0311,-0.3367 -0.0332,-0.4186 -0.0652,-0.0829 -0.1713,-0.1234 -0.32,-0.1234 -0.1636,0 -0.3096,0.0556 -0.4343,0.1658 -0.1258,0.1103 -0.2195,0.3095 -0.2806,0.5956 l -0.3231,1.5107 -1.355,0 0.6726,-3.1457 z m 8.5227,-1.1973 -0.9286,4.343 -1.2676,0 0.0994,-0.4651 c -0.2204,0.1971 -0.4102,0.3306 -0.5716,0.4004 -0.2147,0.09 -0.4414,0.1355 -0.681,0.1355 -0.4816,0 -0.8148,-0.1628 -0.9996,-0.4884 -0.1837,-0.3256 -0.2261,-0.722 -0.1265,-1.1881 0.1116,-0.5218 0.3364,-0.9202 0.6771,-1.1962 0.3399,-0.2771 0.7262,-0.4156 1.1577,-0.4156 0.2113,0 0.3953,0.0323 0.5545,0.095 0.1578,0.0637 0.2899,0.1578 0.397,0.2842 l 0.3217,-1.5047 1.3675,0 z m -1.9489,2.7615 c 0.0529,-0.2477 0.0344,-0.4317 -0.0578,-0.5531 -0.091,-0.1213 -0.2269,-0.182 -0.4064,-0.182 -0.1578,0 -0.3021,0.0587 -0.4338,0.1749 -0.1316,0.1163 -0.2267,0.3115 -0.2855,0.5865 -0.0549,0.2569 -0.0395,0.4449 0.0441,0.5643 0.0847,0.1193 0.2082,0.1789 0.3695,0.1789 0.1738,0 0.3307,-0.0596 0.4712,-0.18 0.1418,-0.1213 0.2405,-0.3175 0.2987,-0.5895 z m 3.5346,-0.546 -1.2679,-0.1213 c 0.0919,-0.2013 0.1963,-0.36 0.3129,-0.4753 0.1167,-0.1153 0.2698,-0.2154 0.4618,-0.3003 0.1369,-0.0617 0.3186,-0.1092 0.5428,-0.1426 0.224,-0.0333 0.4628,-0.0505 0.7161,-0.0505 0.4055,0 0.7283,0.0202 0.965,0.0606 0.2378,0.0405 0.4253,0.1254 0.5614,0.2538 0.0968,0.089 0.1609,0.2144 0.1931,0.3772 0.0308,0.1638 0.0306,0.3185 -0.0011,0.4672 l -0.2971,1.3893 c -0.0316,0.1476 -0.0451,0.2639 -0.0426,0.3478 0.0036,0.084 0.0262,0.1912 0.0699,0.3216 l -1.271,0 c -0.0339,-0.0809 -0.0536,-0.1426 -0.0605,-0.185 -0.0067,-0.0425 -0.0073,-0.1092 -0.0036,-0.2003 -0.2099,0.1527 -0.4102,0.2609 -0.599,0.3256 -0.2583,0.087 -0.5458,0.1305 -0.8627,0.1305 -0.4215,0 -0.7231,-0.087 -0.9052,-0.2609 -0.1811,-0.1729 -0.2443,-0.3873 -0.1898,-0.6421 0.0512,-0.2396 0.1716,-0.4358 0.3623,-0.5895 0.191,-0.1547 0.505,-0.269 0.9447,-0.3438 0.5283,-0.091 0.8713,-0.1547 1.0302,-0.1911 0.1577,-0.0364 0.3283,-0.0849 0.5089,-0.1436 0.0317,-0.1486 0.0198,-0.2518 -0.0357,-0.3114 -0.0567,-0.0587 -0.1707,-0.089 -0.3445,-0.089 -0.2215,0 -0.3942,0.0323 -0.5189,0.095 -0.0969,0.0496 -0.1872,0.1426 -0.2695,0.2781 z m 1.0388,0.634 c -0.199,0.0597 -0.4044,0.1122 -0.6152,0.1577 -0.2887,0.0648 -0.4775,0.1295 -0.5636,0.1922 -0.0902,0.0657 -0.1435,0.1395 -0.1612,0.2224 -0.0203,0.0951 8e-4,0.1719 0.0616,0.2326 0.0623,0.0597 0.1647,0.09 0.3091,0.09 0.151,0 0.2976,-0.0324 0.4421,-0.0971 0.1436,-0.0657 0.2526,-0.1456 0.327,-0.2386 0.0746,-0.0941 0.1269,-0.2164 0.1589,-0.3661 l 0.0413,-0.1931 z m 1.7638,0.6229 1.369,-0.1133 c 0.0251,0.1426 0.0806,0.2447 0.1676,0.3054 0.0868,0.0617 0.2132,0.092 0.3801,0.092 0.1817,0 0.33,-0.0344 0.4448,-0.1041 0.088,-0.0506 0.1405,-0.1153 0.1569,-0.1921 0.0186,-0.087 -0.0182,-0.1537 -0.1091,-0.2013 -0.0667,-0.0333 -0.2521,-0.0748 -0.5561,-0.1243 -0.4544,-0.0739 -0.7674,-0.1406 -0.9369,-0.2033 -0.1694,-0.0627 -0.3014,-0.1678 -0.3947,-0.3155 -0.0945,-0.1476 -0.121,-0.3165 -0.0803,-0.5066 0.0443,-0.2073 0.1507,-0.3862 0.3179,-0.5359 0.1674,-0.1506 0.3777,-0.2629 0.6308,-0.3367 0.2533,-0.0738 0.5793,-0.1112 0.979,-0.1112 0.4215,0 0.7264,0.0293 0.9154,0.0859 0.1887,0.0577 0.3366,0.1466 0.4449,0.267 0.1084,0.1203 0.1848,0.2831 0.2306,0.4884 l -1.3088,0.1132 c -0.0124,-0.1011 -0.0512,-0.1749 -0.1194,-0.2224 -0.0931,-0.0638 -0.2148,-0.0951 -0.3658,-0.0951 -0.1522,0 -0.2699,0.0243 -0.3495,0.0728 -0.0808,0.0485 -0.1274,0.1072 -0.1421,0.1759 -0.0167,0.0779 0.0153,0.1355 0.0955,0.175 0.0801,0.0394 0.2656,0.0748 0.5563,0.1072 0.4401,0.0455 0.7617,0.1082 0.9636,0.1891 0.2031,0.0808 0.3465,0.1961 0.4302,0.3468 0.085,0.1496 0.1077,0.3145 0.0692,0.4944 -0.0389,0.1821 -0.1381,0.359 -0.2986,0.5309 -0.1595,0.1719 -0.3829,0.3084 -0.6691,0.4095 -0.2877,0.1022 -0.6597,0.1527 -1.1163,0.1527 -0.6451,0 -1.0877,-0.0819 -1.3263,-0.2457 -0.2388,-0.1638 -0.365,-0.3974 -0.3788,-0.6987 z"
         id="_222485552"
         style="fill:#000000;fill-rule:nonzero" />
      <path
         d="m 71.4087,22.8525 -0.5068,2.3702 -0.6917,0 0.0543,-0.2539 c -0.1204,0.1077 -0.224,0.1805 -0.3121,0.2186 -0.1171,0.0491 -0.2409,0.0739 -0.3716,0.0739 -0.2629,0 -0.4448,-0.0888 -0.5456,-0.2665 -0.1003,-0.1777 -0.1235,-0.394 -0.0691,-0.6484 0.0609,-0.2848 0.1837,-0.5022 0.3697,-0.6529 0.1854,-0.1512 0.3963,-0.2268 0.6318,-0.2268 0.1153,0 0.2156,0.0177 0.3025,0.0519 0.0862,0.0348 0.1583,0.0861 0.2167,0.1551 l 0.1756,-0.8212 0.7463,0 z m -1.0636,1.5071 c 0.0289,-0.1352 0.0188,-0.2356 -0.0315,-0.3019 -0.0498,-0.0662 -0.1239,-0.0993 -0.2217,-0.0993 -0.0863,0 -0.165,0.032 -0.2368,0.0955 -0.0719,0.0634 -0.1239,0.17 -0.156,0.3201 -0.0299,0.1401 -0.0214,0.2428 0.0242,0.3079 0.0462,0.0651 0.1136,0.0977 0.2016,0.0977 0.0948,0 0.1805,-0.0326 0.2572,-0.0983 0.0774,-0.0662 0.1312,-0.1732 0.163,-0.3217 z m 3.2967,0.1678 -1.4816,0 c -0.0096,0.1059 0.0059,0.1843 0.0456,0.2362 0.0553,0.0745 0.1411,0.1114 0.2558,0.1114 0.0725,0 0.1453,-0.016 0.2174,-0.0485 0.0446,-0.0204 0.0951,-0.0563 0.1521,-0.1082 l 0.7156,0.0596 c -0.1486,0.1727 -0.3089,0.2964 -0.4823,0.3714 -0.1734,0.0745 -0.4071,0.112 -0.7016,0.112 -0.2554,0 -0.4494,-0.032 -0.5825,-0.096 -0.1327,-0.064 -0.2323,-0.1661 -0.2986,-0.3057 -0.0662,-0.1396 -0.0796,-0.3035 -0.0392,-0.4923 0.0573,-0.2682 0.2005,-0.4856 0.4288,-0.6512 0.2288,-0.1661 0.5132,-0.2494 0.8536,-0.2494 0.2759,0 0.486,0.0375 0.6293,0.112 0.1442,0.074 0.2432,0.1821 0.2962,0.3229 0.0535,0.1412 0.0557,0.325 0.0074,0.5513 l -0.016,0.0745 z m -0.684,-0.3151 c 0.0125,-0.1275 -0.0065,-0.2186 -0.0568,-0.2732 -0.0509,-0.0552 -0.1268,-0.0828 -0.2284,-0.0828 -0.1179,0 -0.2204,0.042 -0.3087,0.1247 -0.0557,0.0519 -0.1007,0.1286 -0.1344,0.2313 l 0.7283,0 z"
         id="_222485432"
         style="fill:#000000;fill-rule:nonzero" />
      <path
         d="m 64.9621,27.7083 0.6693,-0.0619 c 0.0124,0.0779 0.0394,0.1336 0.0819,0.1667 0.0424,0.0337 0.1043,0.0502 0.1859,0.0502 0.0888,0 0.1612,-0.0187 0.2174,-0.0568 0.0431,-0.0276 0.0687,-0.0629 0.0768,-0.1049 0.0091,-0.0474 -0.009,-0.0838 -0.0535,-0.1098 C 66.1074,27.5736 66.0168,27.551 65.8681,27.5239 65.646,27.4837 65.493,27.4472 65.4102,27.413 65.3273,27.3788 65.2628,27.3214 65.2171,27.2408 65.1709,27.1603 65.158,27.0681 65.1779,26.9644 c 0.0217,-0.1132 0.0737,-0.2108 0.1554,-0.2925 0.0818,-0.0822 0.1846,-0.1435 0.3084,-0.1838 0.1238,-0.0403 0.2832,-0.0607 0.4787,-0.0607 0.2059,0 0.355,0.016 0.4474,0.0469 0.0923,0.0315 0.1646,0.08 0.2175,0.1457 0.0529,0.0657 0.0904,0.1545 0.1128,0.2666 l -0.6398,0.0618 c -0.0062,-0.0552 -0.0251,-0.0955 -0.0585,-0.1214 -0.0455,-0.0348 -0.105,-0.0519 -0.1788,-0.0519 -0.0744,0 -0.132,0.0132 -0.1708,0.0397 -0.0396,0.0265 -0.0624,0.0585 -0.0696,0.096 -0.0081,0.0425 0.0075,0.074 0.0468,0.0955 0.0391,0.0215 0.1298,0.0408 0.2719,0.0585 0.2151,0.0248 0.3724,0.059 0.4711,0.1032 0.0993,0.0441 0.1694,0.1071 0.2104,0.1893 0.0415,0.0817 0.0525,0.1716 0.0337,0.2698 -0.019,0.0994 -0.0675,0.1959 -0.146,0.2898 -0.0779,0.0938 -0.1872,0.1683 -0.3271,0.2235 -0.1406,0.0557 -0.3225,0.0833 -0.5457,0.0833 -0.3154,0 -0.5318,-0.0447 -0.6485,-0.1341 -0.1167,-0.0894 -0.1783,-0.2169 -0.1851,-0.3813 z m 2.92,-1.9354 0.3388,0 -1.0683,2.4491 -0.3348,0 1.0643,-2.4491 z m 0.8929,1.2494 -0.6198,-0.0662 c 0.0449,-0.1098 0.0959,-0.1965 0.153,-0.2594 0.057,-0.0629 0.1318,-0.1175 0.2258,-0.1639 0.0669,-0.0336 0.1557,-0.0596 0.2652,-0.0778 0.1096,-0.0182 0.2264,-0.0276 0.3501,-0.0276 0.1984,0 0.3561,0.0111 0.4719,0.0331 0.1162,0.0221 0.2078,0.0685 0.2744,0.1385 0.0473,0.0486 0.0786,0.117 0.0944,0.2059 0.0151,0.0894 0.015,0.1738 -5e-4,0.2549 l -0.1453,0.7583 c -0.0154,0.0805 -0.022,0.144 -0.0208,0.1898 0.0018,0.0458 0.0128,0.1043 0.0342,0.1755 l -0.6214,0 c -0.0166,-0.0441 -0.0262,-0.0778 -0.0295,-0.101 -0.0033,-0.0232 -0.0036,-0.0596 -0.0018,-0.1093 -0.1026,0.0834 -0.2006,0.1424 -0.2929,0.1777 -0.1262,0.0475 -0.2668,0.0712 -0.4217,0.0712 -0.206,0 -0.3536,-0.0474 -0.4426,-0.1423 -0.0885,-0.0944 -0.1194,-0.2114 -0.0928,-0.3505 0.0251,-0.1308 0.0839,-0.2378 0.1772,-0.3217 0.0933,-0.0844 0.2468,-0.1468 0.4617,-0.1876 0.2584,-0.0497 0.4261,-0.0845 0.5037,-0.1043 0.0772,-0.0199 0.1605,-0.0464 0.2488,-0.0784 0.0155,-0.0811 0.0097,-0.1374 -0.0174,-0.17 -0.0277,-0.032 -0.0834,-0.0485 -0.1684,-0.0485 -0.1082,0 -0.1927,0.0176 -0.2537,0.0518 -0.0474,0.0271 -0.0915,0.0779 -0.1318,0.1518 z m 0.5079,0.346 c -0.0973,0.0326 -0.1977,0.0613 -0.3008,0.0861 -0.1412,0.0353 -0.2334,0.0706 -0.2756,0.1049 -0.0439,0.0358 -0.07,0.0761 -0.0787,0.1214 -0.0099,0.0518 4e-4,0.0938 0.0301,0.1269 0.0305,0.0325 0.0805,0.0491 0.1511,0.0491 0.0738,0 0.1455,-0.0177 0.2162,-0.053 0.0701,-0.0358 0.1235,-0.0794 0.1599,-0.1302 0.0364,-0.0513 0.0619,-0.1181 0.0776,-0.1998 l 0.0202,-0.1054 z"
         id="_222485384"
         style="fill:#000000;fill-rule:nonzero" />
    </g>
  </g>
</svg>
