<?xml version="1.0" encoding="UTF-8"?>
<svg id="netto_logo_v4_svg" xmlns="http://www.w3.org/2000/svg" version="1.1" viewBox="0 0 648.2 212.6">
  <!-- Generator: Adobe Illustrator 29.4.0, SVG Export Plug-In . SVG Version: 2.1.0 Build 152)  -->
  <path d="M307.4,118.2c0-42.1-24.6-65.4-63.7-65.4s-69.2,25.3-69.2,71.8,26.5,69.8,69.2,69.8,42-6.6,63.7-22l-14.2-28.7c-17.3,8.1-29.1,11.7-47.4,11.7s-20.5-5.3-23-18.2h83.4c.7-6.2,1.1-12.6,1.2-19ZM222.7,110c2.1-15.2,9.6-22.4,21-22.4s19.7,7.9,20.2,22.4h-41.2Z" fill="#242424"/>
  <path d="M483.5,153.9c-12.4,0-15.5-5.9-15.5-16v-40.5h31.6v-41.7h-31.6V21.3h-50.1v34.4h-40.9V21.3h-50.2v34.4h-18.2v41.8h18.2v42.5c0,39,13.8,54.1,46.2,54.1s32.1-4.1,41.5-10.1l-5-30.5c-6.4.3-11.2.3-17.1.3-12.4,0-15.5-5.9-15.5-16v-40.4h41v42.6c0,39,13.8,54.1,46.2,54.1s32.1-4.1,41.5-10.1l-5-30.5c-6.3.4-11.2.4-17.1.4Z" fill="#242424"/>
  <path d="M574.4,52.8c-44.6,0-70.8,25.7-70.8,71.5s26.4,70.1,71,70.1,70.8-25.6,70.8-70.2c-.1-45.8-26.4-71.4-71-71.4ZM574.5,154.7c-13.8,0-21.8-7.6-21.8-30.4s8.3-31.7,21.8-31.7,21.8,7.9,21.8,31.7-8.3,30.2-21.8,30.4h0Z" fill="#242424"/>
  <polygon points="114 93.5 114.3 107.4 50.1 21.3 3 21.3 3 191.3 55.1 191.3 55.1 120 54.9 105.2 119 191.3 166.1 191.3 166.1 21.3 114 21.3 114 93.5" fill="#242424"/>
</svg>