<?xml version="1.0" encoding="UTF-8" standalone="no"?>
<!DOCTYPE svg PUBLIC "-//W3C//DTD SVG 1.1//EN" "http://www.w3.org/Graphics/SVG/1.1/DTD/svg11.dtd">
<svg width="100%" height="100%" viewBox="0 0 117 46" version="1.1" xmlns="http://www.w3.org/2000/svg" xmlns:xlink="http://www.w3.org/1999/xlink" xml:space="preserve" xmlns:serif="http://www.serif.com/" style="fill-rule:evenodd;clip-rule:evenodd;stroke-linejoin:round;stroke-miterlimit:2;">
    <g id="アートボード1" transform="matrix(0.943894,0,0,0.813334,-774.708,-1038.97)">
        <rect x="820.758" y="1277.42" width="123.316" height="56.259" style="fill:none;"/>
        <g transform="matrix(1.05944,0,0,1.22951,-55.3143,-303.601)">
            <path d="M883.708,1303.04L877.502,1303.04L877.502,1323.93C877.502,1326.05 877.07,1326.45 875.54,1326.45L874.714,1326.45L874.714,1330.53L879.034,1330.53C882.334,1330.53 883.708,1329.39 883.708,1326.02L883.708,1303.04ZM934.895,1325.5L941.103,1325.5L941.103,1308.89C941.103,1304.37 937.333,1302.76 933.601,1302.76C929.869,1302.76 926.099,1304.37 926.099,1308.89L926.099,1310.97L932.305,1310.97L932.305,1308.5C932.305,1307.59 932.579,1306.85 933.601,1306.85C934.621,1306.85 934.895,1307.59 934.895,1308.5C934.895,1312.66 926.099,1311.95 926.099,1317.85L926.099,1321.18C926.099,1324.13 927.749,1325.78 930.459,1325.78C932.933,1325.78 934.073,1324.48 934.817,1322.87L934.895,1322.87L934.895,1325.5ZM873.076,1309.09C873.076,1305.04 870.404,1302.76 865.574,1302.76C860.742,1302.76 858.072,1305.04 858.072,1309.09L858.072,1319.81C858.072,1323.97 861.606,1325.78 865.574,1325.78C869.54,1325.78 873.076,1323.97 873.076,1319.81L873.076,1309.09ZM894.354,1303.04L888.15,1303.04L888.15,1325.5L894.354,1325.5L894.354,1303.04ZM853.646,1303.04L845.072,1303.04L845.072,1325.5L853.646,1325.5L853.646,1303.04ZM836.286,1287.31L827.712,1287.31L827.712,1325.5L836.286,1325.5L836.286,1287.31ZM904.778,1303.04L898.808,1303.04L898.808,1325.5L904.778,1325.5L904.778,1309.91C904.778,1308.93 904.816,1307.87 905.994,1307.87C907.174,1307.87 907.252,1308.93 907.252,1309.91L907.252,1325.5L913.222,1325.5L913.222,1309.91C913.222,1308.93 913.262,1307.87 914.438,1307.87C915.618,1307.87 915.696,1308.93 915.696,1309.91L915.696,1325.5L921.666,1325.5L921.666,1307.52C921.666,1304.77 920.684,1302.76 917.582,1302.76C915.382,1302.76 913.654,1304.02 913.3,1306.02L913.222,1306.02C912.79,1303.86 911.414,1302.76 909.176,1302.76C906.898,1302.76 905.484,1303.94 904.854,1306.02L904.778,1306.02L904.778,1303.04ZM864.278,1308.42C864.278,1307.59 864.592,1306.85 865.574,1306.85C866.556,1306.85 866.87,1307.59 866.87,1308.42L866.87,1320.12C866.87,1320.95 866.556,1321.69 865.574,1321.69C864.592,1321.69 864.278,1320.95 864.278,1320.12L864.278,1308.42ZM932.305,1317.29C932.305,1315.53 933.679,1315.02 934.895,1314.15L934.895,1318.04C934.895,1320.04 934.739,1320.91 933.445,1320.91C932.855,1320.91 932.305,1320.52 932.305,1319.73L932.305,1317.29Z" style="fill:rgb(24,45,123);fill-rule:nonzero;"/>
        </g>
        <g transform="matrix(1.05944,0,0,1.22951,-55.3143,-303.601)">
            <path d="M883.708,1295.3L877.502,1295.3L877.502,1301.51L883.708,1301.51L883.708,1295.3ZM894.354,1295.3L888.15,1295.3L888.15,1301.51L894.354,1301.51L894.354,1295.3ZM827.862,1293.39C830.348,1289.5 834.7,1286.93 839.656,1286.93C847.382,1286.93 853.646,1293.19 853.646,1300.92L853.646,1301.5L845.072,1301.5L845.072,1300.92C845.072,1297.93 842.648,1295.5 839.656,1295.5C837.576,1295.5 835.77,1296.67 834.862,1298.39L827.862,1293.39Z" style="fill:rgb(230,0,25);"/>
        </g>
    </g>
</svg>
