<svg height="115.05781" viewBox="0 0 400 115.0578" width="400" xmlns="http://www.w3.org/2000/svg">
  <path d="m191.69015 52.72573h-12.60429v-20.37255h-21.68549v20.37255h-12.68087v-51.50032h12.68087v20.05527h21.68549v-20.05527h12.60429zm49.7169-37.74719c-1.91474-9.37664-10.06592-14.91289-21.28068-14.91289-12.07911 0-20.37256 6.22553-20.37256 16.22584 0 9.3766 6.45533 13.21699 13.8297 14.90192l10.76616 2.30861c3.6872.77682 4.75943 2.23199 4.75943 4.54059 0 3.15107-2.84471 5.30649-7.60413 5.30649-5.15331 0-8.84051-2.3086-10.15346-7.61509l-13.0638 2.53836c1.38952 10.06592 10.91931 15.60217 22.52796 15.60217 11.45546 0 21.215-5.68942 21.215-16.68534 0-8.14027-5.22988-12.98724-14.14698-14.98947l-10.67863-2.37425c-3.2386-.6893-4.15765-2.232-4.15765-4.31084 0-2.92131 2.69154-5.21896 6.91485-5.21896 4.08107 0 8.07461 2.37426 8.99368 7.22122zm56.57704-13.75313h-12.60428v30.74483l-26.06201-30.74483h-10.53638v51.50032h12.69179v-29.82576l26.05107 29.82576h10.45981zm47.84595 40.58099h-27.44059v-9.68299h24.9788v-10.30663h-24.9788v-9.68297h27.21083v-10.9084h-39.8917v51.50032h40.12146zm54.16996 10.91933-16.14923-18.29371c8.30438-1.84908 13.52334-7.92146 13.52334-16.37902 0-10.06592-7.37438-16.82759-18.51252-16.82759h-26.06198v51.50032h12.68084v-17.681h3.6872l15.52559 17.681zm-34.51955-28.29397v-12.37454h11.99158c4.54062 0 7.46196 2.46176 7.46196 6.14896 0 3.76379-2.92134 6.22558-7.46196 6.22558zm-239.95187 8.17305c-1.40047 3.88415-4.23423 6.89299-7.92143 8.43569-1.78341.74402-3.75283 1.15979-5.85353 1.15979-2.11167 0-4.08111-.41577-5.8645-1.15979-3.6872-1.5427-6.520983-4.55154-7.92145-8.43569-.623667-1.71776-.973787-3.61059-.973787-5.63469 0-2.06792.361067-4.0045 1.006614-5.76604 1.411426-3.87319 4.234253-6.88203 7.899543-8.43568 1.77247-.75495 3.75286-1.15978 5.85358-1.15978 2.08976 0 4.07012.40483 5.84258 1.15978 3.66532 1.55365 6.48815 4.56249 7.91051 8.43568l11.56488-4.79227c-2.80096-6.60848-8.19497-11.81651-14.97855-14.4752-3.18389-1.24732-6.66318-1.93661-10.33942-1.93661-3.6872 0-7.16652.68929-10.35042 1.93661-6.783544 2.65869-12.166637 7.85577-14.978517 14.4752-1.36764 3.22768-2.122614 6.80545-2.122614 10.55831 0 3.72.744014 7.23213 2.100721 10.42696 2.790026 6.61944 8.18404 11.82746 15.00041 14.47524 3.1839 1.23636 6.66322 1.92565 10.35042 1.92565 3.67624 0 7.15553-.68929 10.33942-1.92565 6.8164-2.64778 12.21042-7.8558 15.00042-14.47524zm-49.673111 29.80389c11.608627 0 18.917374 7.14462 18.917374 17.75761 0 10.8318-7.538507 17.9874-19.453507 17.9874h-12.144734v15.7553h-12.680894v-51.50031zm-1.455187 25.13201c4.923547 0 7.921427-2.8447 7.921427-7.2212 0-4.1468-2.99788-7.06806-7.921427-7.06806h-11.22568v14.28926zm81.008778.6893c0 15.0004-12.06816 26.8278-27.44056 26.8278-15.37242 0-27.4406-11.8274-27.4406-26.8278 0-15.05514 12.06818-26.97013 27.4406-26.97013 15.3724 0 27.44056 11.91499 27.44056 26.97013m-12.68087 0c0-8.8296-6.37872-15.37244-14.75969-15.37244-8.38099 0-14.75971 6.54284-14.75971 15.37244 0 8.7639 6.37872 15.2301 14.75971 15.2301 8.38097 0 14.75969-6.4662 14.75969-15.2301m69.08284-25.82131v11.07251h16.67444v40.4278h12.6152v-40.4278h16.67445v-11.07251zm-168.691695 13.76401c-1.914694-9.38751-10.065921-14.91283-21.291601-14.91283-12.068187 0-20.3725606 6.22556-20.3725606 16.21493 0 9.3766 6.4662535 13.217 13.8406536 14.9128l10.766161 2.3086c3.687173.7659 4.759413 2.2211 4.759413 4.5297 0 3.1511-2.844707 5.3065-7.604147 5.3065-5.153293 0-8.840494-2.3086-10.15344-7.6151l-13.063814 2.5384c1.3786 10.0768 10.919347 15.6021 22.517027 15.6021 11.455441 0 21.215014-5.6894 21.215014-16.6744 0-8.1512-5.229906-12.9872-14.136067-14.9894l-10.689547-2.3852c-3.22768-.6893-4.146733-2.232-4.146733-4.2999 0-2.92134 2.691547-5.22994 6.914853-5.22994 4.070121 0 8.074614 2.38519 8.993694 7.22124zm150.562125 37.7363-15.5256-17.681h-3.69815v17.681h-12.68086v-51.50031h26.062c11.13814 0 18.52348 6.76167 18.52348 16.83851 0 8.4576-5.22992 14.53-13.52336 16.3681l16.13829 18.2937zm-7.23217-28.283c4.54062 0 7.46193-2.4618 7.46193-6.2256 0-3.6981-2.92131-6.14896-7.46193-6.14896h-11.99158v12.37456zm-116.688074-77.98905-8.556041 8.54509c2.5274 2.72437 4.048241 6.48816 4.048241 10.78807 0 8.76389-6.378721 15.23017-14.759708 15.23017-8.380973 0-14.759693-6.46628-14.759693-15.23017 0-8.82959 6.37872-15.3615 14.759693-15.3615 0-1.45517 0-9.48604 0-11.60862-15.3724 0-27.440561 11.915-27.440561 26.97012 0 15.00038 12.068161 26.82785 27.440561 26.82785 15.372414 0 27.440601-11.82747 27.440601-26.82785 0-7.637-3.10732-14.46432-8.173093-19.33316" fill="#e90523"/>
  <path d="m50.493708 11.60862c4.28896 0 8.063694 1.71778 10.711467 4.57343l8.556041-8.54509c-4.923547-4.74848-11.696161-7.63696-19.267508-7.63696z"/>
</svg>
