<?xml version="1.0" encoding="UTF-8" standalone="no"?>
<svg
   width="608.70105"
   height="89.990501"
   viewBox="0 0 608.70105 89.990501"
   version="1.1"
   id="svg6"
   sodipodi:docname="Office Holdings logo.svg"
   inkscape:version="1.4 (86a8ad7, 2024-10-11)"
   xmlns:inkscape="http://www.inkscape.org/namespaces/inkscape"
   xmlns:sodipodi="http://sodipodi.sourceforge.net/DTD/sodipodi-0.dtd"
   xmlns="http://www.w3.org/2000/svg"
   xmlns:svg="http://www.w3.org/2000/svg"
   xmlns:rdf="http://www.w3.org/1999/02/22-rdf-syntax-ns#"
   xmlns:cc="http://creativecommons.org/ns#"
   xmlns:dc="http://purl.org/dc/elements/1.1/">
  <sodipodi:namedview
     id="namedview6"
     pagecolor="#ffffff"
     bordercolor="#000000"
     borderopacity="0.25"
     inkscape:showpageshadow="2"
     inkscape:pageopacity="0.0"
     inkscape:pagecheckerboard="0"
     inkscape:deskcolor="#d1d1d1"
     inkscape:zoom="0.98098617"
     inkscape:cx="786.96318"
     inkscape:cy="63.711398"
     inkscape:window-width="1920"
     inkscape:window-height="1001"
     inkscape:window-x="-9"
     inkscape:window-y="-9"
     inkscape:window-maximized="1"
     inkscape:current-layer="Logo" />
  <!-- Generator: Sketch 51.2 (57519) - http://www.bohemiancoding.com/sketch -->
  <title
     id="title1">Logo</title>
  <desc
     id="desc1">Created with Sketch.</desc>
  <defs
     id="defs1" />
  <g
     id="Page-1"
     stroke="none"
     stroke-width="1"
     fill="none"
     fill-rule="evenodd"
     transform="translate(-0.90894504,5.0371641e-4)">
    <g
       id="Logo"
       transform="translate(0,-1)"
       fill="#004273"
       fill-rule="nonzero">
      <polyline
         id="Shape"
         points="355.27 2.14 371.59 2.18 371.25 90.13 354.95 90.05 355.27 2.14" />
      <polyline
         id="polyline1"
         points="609.56 19.41 609.61 3.06 568.78 2.94 568.51 74.52 568.45 90.85 609.27 90.99 609.33 74.66 584.84 74.57 584.92 55.07 609.42 55.18 609.47 38.84 584.98 38.77 585.04 19.32 609.56 19.41" />
      <polyline
         id="polyline2"
         points="143.59 1.38 184.45 1.53 184.39 17.34 159.89 17.24 159.82 37.5 184.31 37.63 184.25 53.41 159.76 53.3 159.62 89.37 143.27 89.3 143.59 1.38" />
      <polyline
         id="polyline3"
         points="250.68 1.75 291.48 1.93 291.46 17.73 266.96 17.61 266.86 37.89 291.36 38.02 291.32 53.77 266.81 53.71 266.7 89.77 250.36 89.74 250.68 1.75" />
      <path
         d="M 45.12,1 C 27.316646,0.91510679 11.216657,11.567297 4.3325752,27.986067 -2.5515067,44.404838 1.1371733,63.354044 13.677411,75.991649 26.217649,88.629253 45.13776,92.46438 61.609282,85.70749 78.080805,78.950599 88.857196,62.933478 88.91,45.13 88.981981,20.860543 69.389288,1.1157253 45.12,1 Z M 44.86,72.61 C 33.675819,72.569462 23.617505,65.795216 19.375855,55.446499 15.134204,45.097781 17.544673,33.212929 25.483116,25.334561 33.421558,17.456193 45.324378,15.136073 55.640577,19.456212 65.956775,23.776352 72.654421,33.885833 72.61,45.07 72.58353,52.402338 69.644673,59.423693 64.440238,64.588742 59.235804,69.753792 52.192327,72.639229 44.86,72.61 Z"
         id="path3" />
      <path
         d="M 494.55,58.86 C 488.81391,70.354756 475.91644,76.384683 463.41788,73.415128 450.91933,70.445573 442.11239,59.258855 442.15956,46.412459 442.20673,33.566063 451.09559,22.444322 463.61561,19.566635 476.13564,16.688948 488.98848,22.813429 494.64,34.35 l 17.46,0.07 C 506.09034,13.34779 485.49128,-0.09089469 463.78378,2.898829 442.07628,5.8885526 425.87701,24.395386 425.7875,46.30762 425.69799,68.219855 441.74552,86.858416 463.42787,90.025385 485.11023,93.192355 505.81839,79.922409 512,58.9 h -17.47"
         id="path4" />
    </g>
  </g>
  <metadata
     id="metadata6">
    <rdf:RDF>
      <cc:Work
         rdf:about="">
        <dc:title>Logo</dc:title>
      </cc:Work>
    </rdf:RDF>
  </metadata>
</svg>
