<svg id="Layer_1" data-name="Layer 1" xmlns="http://www.w3.org/2000/svg" viewBox="0 0 1080 428"><defs><style>.cls-1{fill:#3462ad;}.cls-2{fill:#231f20;}</style></defs><path class="cls-1" d="M180.13,88.57h44.46c15.55,0,27.86,3.39,36.84,10.12s13.47,17,13.47,30.64-4.49,23.95-13.47,30.78-21.29,10.23-36.84,10.23H195.68v71H180.13Zm15.55,67.53h25A64.58,64.58,0,0,0,238.37,154a32.1,32.1,0,0,0,11.48-5.74,19.93,19.93,0,0,0,6.26-8.41,26.73,26.73,0,0,0,2-10.48,26.19,26.19,0,0,0-2-10.23,20.84,20.84,0,0,0-6.26-8.51,29.7,29.7,0,0,0-11.48-5.74,66.92,66.92,0,0,0-17.64-2h-25Z"/><path class="cls-1" d="M276.88,241.36H258.72L325.2,88.57h15l66.49,152.79H388.65l-16.9-40.18H293.69Zm22.64-54.42H365.8l-33.08-80.26Z"/><path class="cls-1" d="M544.68,217.15a60.31,60.31,0,0,1-9.6,11,61.75,61.75,0,0,1-13.15,9,75.39,75.39,0,0,1-15.75,6,76.21,76.21,0,0,1-18.06,2.14,81.83,81.83,0,0,1-31.62-6.06,75.51,75.51,0,0,1-42-42.06A83,83,0,0,1,408.49,165a82.64,82.64,0,0,1,6.05-32.15,75.8,75.8,0,0,1,42-42.11,81.82,81.82,0,0,1,31.62-6,76.84,76.84,0,0,1,28.49,5.63,58.06,58.06,0,0,1,24.32,18.58L527.36,119a37.38,37.38,0,0,0-6.47-7.36,45.82,45.82,0,0,0-9.39-6.46,62.18,62.18,0,0,0-11.27-4.54,46.66,46.66,0,0,0-12.11-1.73,62.41,62.41,0,0,0-26.41,5.43A60.45,60.45,0,0,0,442,118.78a65.72,65.72,0,0,0-12.42,21,75.92,75.92,0,0,0,0,50.26A66,66,0,0,0,442,211.15a61.17,61.17,0,0,0,19.72,14.45A62.24,62.24,0,0,0,488.12,231a66.72,66.72,0,0,0,12-1.1,47.9,47.9,0,0,0,11.59-3.65,45.13,45.13,0,0,0,10.85-7A56,56,0,0,0,532,208.12Z"/><path class="cls-1" d="M577.66,241.36H562.11V88.57h15.55Z"/><path class="cls-1" d="M626,241.36H610.44V88.57H702.6v14.24H626v52h71.18V169H626Z"/><path class="cls-1" d="M737.35,241.36H721.8V88.57h15.55Z"/><path class="cls-1" d="M895.88,217.15a53.83,53.83,0,0,1-9.6,11,58.89,58.89,0,0,1-13,9,76.15,76.15,0,0,1-15.86,6,74.68,74.68,0,0,1-18,2.14,81.83,81.83,0,0,1-31.62-6.06,75.51,75.51,0,0,1-42-42.06A83,83,0,0,1,759.79,165a82.64,82.64,0,0,1,6.05-32.15,75.8,75.8,0,0,1,42-42.11,81.82,81.82,0,0,1,31.62-6,76.88,76.88,0,0,1,28.49,5.63,57.33,57.33,0,0,1,24.32,18.58L878.66,119a37.38,37.38,0,0,0-6.47-7.36,45.82,45.82,0,0,0-9.39-6.46,60.17,60.17,0,0,0-11.38-4.54,45.2,45.2,0,0,0-12-1.73A62.41,62.41,0,0,0,813,104.33a60.45,60.45,0,0,0-19.72,14.45,65.72,65.72,0,0,0-12.42,21,75.92,75.92,0,0,0,0,50.26,66,66,0,0,0,12.42,21.08A61.17,61.17,0,0,0,813,225.6,62.24,62.24,0,0,0,839.42,231a65.44,65.44,0,0,0,11.89-1.1,48.7,48.7,0,0,0,11.7-3.65,42.92,42.92,0,0,0,10.75-7,50.08,50.08,0,0,0,9.39-11.12Z"/><path class="cls-2" d="M193.08,317.55h22.75v6.37h-30.9V260.2h8.15Z"/><path class="cls-2" d="M252.66,303.88H229.08a37.4,37.4,0,0,0,.62,7.46,11.72,11.72,0,0,0,2.3,4.75,8.25,8.25,0,0,0,3.86,2.5,19.81,19.81,0,0,0,5.95.79h9.08V323a39.26,39.26,0,0,1-5.12,1.25,33,33,0,0,1-5.83.58,31.29,31.29,0,0,1-8.77-1.15,12.78,12.78,0,0,1-5.95-3.86,18.64,18.64,0,0,1-3.35-7.31,63.33,63.33,0,0,1,0-22.75,17.83,17.83,0,0,1,2.94-7.25,10.91,10.91,0,0,1,5-3.87,19.75,19.75,0,0,1,7-1.14,18.75,18.75,0,0,1,6.89,1.14,10.94,10.94,0,0,1,5,3.87,19.5,19.5,0,0,1,3,7.25,57.49,57.49,0,0,1,.93,11.38Zm-8.13-5.43a39.39,39.39,0,0,0-.63-7.72,18.46,18.46,0,0,0-1.67-4.85,7.16,7.16,0,0,0-2.5-2.61,6,6,0,0,0-2.93-.73,5.72,5.72,0,0,0-5.42,3.34,15.17,15.17,0,0,0-1.68,4.85,33,33,0,0,0-.62,7.72Z"/><path class="cls-2" d="M272.29,285.25v24.11a22,22,0,0,0,.52,5.06,8.24,8.24,0,0,0,1.57,3,5.77,5.77,0,0,0,2.09,1.51,7.61,7.61,0,0,0,2.18.42h8.15V323a11.4,11.4,0,0,1-2.09.68c-.84.21-1.78.42-2.71.57a24.92,24.92,0,0,1-2.82.42,22.61,22.61,0,0,1-2.3.16,19.57,19.57,0,0,1-5.12-.63,9.33,9.33,0,0,1-4.06-2.35,11.69,11.69,0,0,1-2.71-4.69,30.51,30.51,0,0,1-.94-7.83V285.25h-5.43V279.3h5.43V268.39h8.24V279.3H285v4.12a37.4,37.4,0,0,1-5.11,1.26,34.11,34.11,0,0,1-5.85.57Z"/><path class="cls-2" d="M291.8,260.2H301l-2.3,21.4H294.1Z"/><path class="cls-2" d="M315.91,289.32a5.54,5.54,0,0,0,1.68,4.33,15.2,15.2,0,0,0,4,2.77,48.93,48.93,0,0,0,5.11,2.24,24.23,24.23,0,0,1,5.12,2.71,14.49,14.49,0,0,1,4,4.13c1.15,1.67,1.56,3.86,1.56,6.62a15.36,15.36,0,0,1-1,6.16,7.94,7.94,0,0,1-3.24,3.91,13.7,13.7,0,0,1-5.74,2,45,45,0,0,1-8.14.63,32,32,0,0,1-5.74-.58A37.13,37.13,0,0,1,308.2,323v-3.65h9.18c4.07,0,7.09-.52,9-1.57s2.81-3,2.81-5.69a5.91,5.91,0,0,0-1.56-4.33,14.16,14.16,0,0,0-4-2.76,45.8,45.8,0,0,0-5.11-2.25,22.26,22.26,0,0,1-5.22-2.71,14.19,14.19,0,0,1-4-4.12,12.28,12.28,0,0,1-1.57-6.63c0-4.54,1.36-7.67,4.08-9.34s6.88-2.45,12.31-2.45a32.89,32.89,0,0,1,5.85.52,40.32,40.32,0,0,1,5.11,1.25V283H326a16.33,16.33,0,0,0-7.51,1.46A5.31,5.31,0,0,0,315.91,289.32Z"/><path class="cls-2" d="M386.05,283a12.29,12.29,0,0,0-4.49.84,7.09,7.09,0,0,0-3.24,2.87,16.28,16.28,0,0,0-2.08,5.53,52.4,52.4,0,0,0-.63,9,53,53,0,0,0,.63,9,18.57,18.57,0,0,0,2.08,5.59,8.23,8.23,0,0,0,3.55,2.81,14.85,14.85,0,0,0,5.12.79h9.08V323a35.93,35.93,0,0,1-5.12,1.25,32.83,32.83,0,0,1-5.74.58,25.75,25.75,0,0,1-8-1.15,12.12,12.12,0,0,1-5.52-3.86,18.59,18.59,0,0,1-3.24-7.31,62.73,62.73,0,0,1,0-22.75,19.51,19.51,0,0,1,3.13-7.25,11.78,11.78,0,0,1,5.33-3.87,20.86,20.86,0,0,1,7.4-1.14,31.63,31.63,0,0,1,5.74.52,32.81,32.81,0,0,1,5.12,1.25V283Z"/><path class="cls-2" d="M411.52,323.92h-8.15V278.41h6.89l.52,3.66h.42a15.73,15.73,0,0,1,4.38-2.51,18,18,0,0,1,6.89-1.15h4.59v6.84h-9.18a15.5,15.5,0,0,0-3.34.42,8.75,8.75,0,0,0-3,1.41Z"/><path class="cls-2" d="M463,303.88H439.38a36.58,36.58,0,0,0,.63,7.46,11.58,11.58,0,0,0,2.29,4.75,8.84,8.84,0,0,0,3.86,2.5,19.81,19.81,0,0,0,5.95.79h9.08V323a35.76,35.76,0,0,1-5.11,1.25,33.19,33.19,0,0,1-5.85.58,31.32,31.32,0,0,1-8.76-1.15,12.86,12.86,0,0,1-6-3.86,18.78,18.78,0,0,1-3.33-7.31,62.73,62.73,0,0,1,0-22.75,19.35,19.35,0,0,1,2.92-7.25,10.94,10.94,0,0,1,5-3.87,19.68,19.68,0,0,1,7-1.14,18.75,18.75,0,0,1,6.89,1.14,11,11,0,0,1,5,3.87,19.67,19.67,0,0,1,3,7.25,58.17,58.17,0,0,1,.94,11.38Zm-8.15-5.43a40.28,40.28,0,0,0-.62-7.72,18.83,18.83,0,0,0-1.67-4.85,7.1,7.1,0,0,0-2.51-2.61,5.68,5.68,0,0,0-2.92-.73,5.72,5.72,0,0,0-5.43,3.34,15.44,15.44,0,0,0-1.66,4.85,39.39,39.39,0,0,0-.63,7.72Z"/><path class="cls-2" d="M483.94,324.86a23.14,23.14,0,0,1-5.63-.63A9.36,9.36,0,0,1,474,322a10.93,10.93,0,0,1-2.71-4.49,20.32,20.32,0,0,1-1.05-7.25,19.33,19.33,0,0,1,1.05-7.05,10.7,10.7,0,0,1,2.71-4.33,9.79,9.79,0,0,1,4.28-2.14,23.16,23.16,0,0,1,5.63-.62c1.37,0,2.93.1,4.6.26s3.13.41,4.48.68V293a17.11,17.11,0,0,0-.62-5.06,7.72,7.72,0,0,0-2-3,6.79,6.79,0,0,0-3.14-1.51A21.23,21.23,0,0,0,483,283h-9.09V279.3a36.27,36.27,0,0,1,5.12-1.25,32.86,32.86,0,0,1,5.84-.52,35.77,35.77,0,0,1,7.1.62,11.47,11.47,0,0,1,5.11,2.3,10.8,10.8,0,0,1,3.14,4.75,26.83,26.83,0,0,1,1,7.77v30.95h-6.89L494,321.2h-.41a12.82,12.82,0,0,1-4.28,2.66A14.58,14.58,0,0,1,483.94,324.86ZM493,301.63h-6.36a9.42,9.42,0,0,0-5.85,1.78c-1.56,1.2-2.39,3.5-2.39,6.89a13.47,13.47,0,0,0,.72,4.49,6.67,6.67,0,0,0,1.67,2.76,6.34,6.34,0,0,0,2.61,1.41,13.13,13.13,0,0,0,3.24.42,12,12,0,0,0,3.54-.52,8.86,8.86,0,0,0,2.82-1.31Z"/><path class="cls-2" d="M522.66,285.25v24.11a21.35,21.35,0,0,0,.53,5.06,8.24,8.24,0,0,0,1.56,3,5.11,5.11,0,0,0,2.09,1.51,7,7,0,0,0,2.19.42h8.14V323a10.91,10.91,0,0,1-2.09.68c-.94.21-1.77.42-2.71.57s-1.88.32-2.82.42a22.39,22.39,0,0,1-2.4.16,19.32,19.32,0,0,1-5-.63,9.42,9.42,0,0,1-4.07-2.35,11.8,11.8,0,0,1-2.71-4.69,26.63,26.63,0,0,1-.94-7.83V285.25H509V279.3h5.43V268.39h8.24V279.3H535.4v4.12a39.39,39.39,0,0,1-5.22,1.26,31.91,31.91,0,0,1-5.75.57Z"/><path class="cls-2" d="M573.59,303.88H549.91a36.51,36.51,0,0,0,.72,7.46,11.72,11.72,0,0,0,2.3,4.75,8.25,8.25,0,0,0,3.86,2.5,19.08,19.08,0,0,0,5.85.79h9.18V323a39.26,39.26,0,0,1-5.12,1.25,33.9,33.9,0,0,1-5.83.58,30.78,30.78,0,0,1-8.77-1.15,12.73,12.73,0,0,1-6-3.86,17.34,17.34,0,0,1-3.35-7.31,50.62,50.62,0,0,1-1-11.37,57.4,57.4,0,0,1,.94-11.38,19.18,19.18,0,0,1,3-7.25,11,11,0,0,1,5-3.87,18.75,18.75,0,0,1,6.89-1.14,19.3,19.3,0,0,1,7,1.14,10.94,10.94,0,0,1,5,3.87,21.32,21.32,0,0,1,3,7.25,57.49,57.49,0,0,1,.93,11.38Zm-8.13-5.43a39.39,39.39,0,0,0-.63-7.72,23,23,0,0,0-1.67-4.85,7.16,7.16,0,0,0-2.5-2.61,6.11,6.11,0,0,0-3-.73,6,6,0,0,0-2.93.73,6.18,6.18,0,0,0-2.39,2.61,17.84,17.84,0,0,0-1.78,4.85,39.49,39.49,0,0,0-.62,7.72Z"/><path class="cls-2" d="M616,285.25v24.11a22,22,0,0,0,.52,5.06,8.24,8.24,0,0,0,1.57,3,5,5,0,0,0,2.09,1.51,7,7,0,0,0,2.18.42h8.15V323a11.4,11.4,0,0,1-2.09.68c-.94.21-1.78.42-2.72.57a24.42,24.42,0,0,1-2.81.42,22.4,22.4,0,0,1-2.41.16,19.18,19.18,0,0,1-5-.63,9.37,9.37,0,0,1-4.07-2.35,10.64,10.64,0,0,1-2.71-4.69,26.63,26.63,0,0,1-.94-7.83V285.25h-5.44V279.3h5.44V268.39H616V279.3H628.7v4.12a35.52,35.52,0,0,1-5.22,1.26,31.89,31.89,0,0,1-5.74.57Z"/><path class="cls-2" d="M668.78,301.17a48.43,48.43,0,0,1-1.15,11.21,18.45,18.45,0,0,1-3.24,7.31,11.12,11.12,0,0,1-5.21,4,21.09,21.09,0,0,1-7.31,1.2,20.5,20.5,0,0,1-7.2-1.2,12,12,0,0,1-5.32-4,20.14,20.14,0,0,1-3.24-7.31,60.72,60.72,0,0,1,0-22.38,20,20,0,0,1,3.24-7.36,12.36,12.36,0,0,1,5.32-4,20.53,20.53,0,0,1,7.2-1.14,21.13,21.13,0,0,1,7.31,1.14,11.45,11.45,0,0,1,5.21,4,18.36,18.36,0,0,1,3.24,7.36A48,48,0,0,1,668.78,301.17Zm-8.24,0a42.73,42.73,0,0,0-.74-9,19.25,19.25,0,0,0-1.88-5.74,7.42,7.42,0,0,0-2.71-3,6.92,6.92,0,0,0-3.34-.83,6.4,6.4,0,0,0-6,3.86,19.33,19.33,0,0,0-2,5.74,53.17,53.17,0,0,0-.62,9,54.39,54.39,0,0,0,.62,9.08,20.53,20.53,0,0,0,2,5.74,6.9,6.9,0,0,0,2.72,3,6.79,6.79,0,0,0,3.23.89,6.87,6.87,0,0,0,3.34-.89,7.54,7.54,0,0,0,2.71-3,20.41,20.41,0,0,0,1.88-5.74A43.68,43.68,0,0,0,660.54,301.17Z"/><path class="cls-2" d="M701,322.56a35.2,35.2,0,0,1-4.17,1.67,17.46,17.46,0,0,1-4.91.63,17.78,17.78,0,0,1-6.37-1.15,10.45,10.45,0,0,1-4.7-3.86,18.64,18.64,0,0,1-2.92-7.31,62.73,62.73,0,0,1,0-22.75,17.91,17.91,0,0,1,3.24-7.25,11.77,11.77,0,0,1,5.53-3.87,24.1,24.1,0,0,1,7.93-1.14,39.44,39.44,0,0,1,7.62.67,36.85,36.85,0,0,1,7,2v40a45.74,45.74,0,0,1-1,10.86,16.33,16.33,0,0,1-3.34,7,12.5,12.5,0,0,1-5.64,3.76A25.73,25.73,0,0,1,691,343a33.49,33.49,0,0,1-5.74-.52,37,37,0,0,1-5.11-1.26v-3.65h9.08a16.09,16.09,0,0,0,5.32-.73,7.4,7.4,0,0,0,3.65-2.51,11.26,11.26,0,0,0,2.19-4.64A33.75,33.75,0,0,0,701,322.56ZM701,283h-6.37a10,10,0,0,0-4,.84,6.42,6.42,0,0,0-2.93,2.87,19.11,19.11,0,0,0-2,5.53,53.58,53.58,0,0,0-.62,9,54.19,54.19,0,0,0,.62,9,19,19,0,0,0,2,5.59,6.28,6.28,0,0,0,2.93,2.81,9.83,9.83,0,0,0,4,.79,12.11,12.11,0,0,0,3.55-.52,9.08,9.08,0,0,0,2.82-1.31Z"/><path class="cls-2" d="M751.12,303.88H727.44a35.82,35.82,0,0,0,.72,7.46,11.59,11.59,0,0,0,2.3,4.75,8.23,8.23,0,0,0,3.87,2.5,18.94,18.94,0,0,0,5.83.79h9.19V323a37.65,37.65,0,0,1-5.22,1.25,32,32,0,0,1-5.74.58,30.88,30.88,0,0,1-8.77-1.15,12.75,12.75,0,0,1-5.94-3.86,17.09,17.09,0,0,1-3.34-7.31,49.92,49.92,0,0,1-1.05-11.37,58.17,58.17,0,0,1,.94-11.38,19.67,19.67,0,0,1,3-7.25,11,11,0,0,1,5-3.87,18.71,18.71,0,0,1,6.89-1.14,19.34,19.34,0,0,1,7,1.14,10.94,10.94,0,0,1,5,3.87,17.69,17.69,0,0,1,2.92,7.25,50.07,50.07,0,0,1,1,11.38ZM743,298.45a39.39,39.39,0,0,0-.63-7.72,18.56,18.56,0,0,0-1.77-4.85,5.72,5.72,0,0,0-5.43-3.34,5.68,5.68,0,0,0-2.92.73,7.1,7.1,0,0,0-2.51,2.61,18.46,18.46,0,0,0-1.67,4.85,40.28,40.28,0,0,0-.62,7.72Z"/><path class="cls-2" d="M770.74,285.25v24.11a21.35,21.35,0,0,0,.53,5.06,8.39,8.39,0,0,0,1.56,3,5.11,5.11,0,0,0,2.09,1.51,6.54,6.54,0,0,0,2.19.42h8.14V323a11,11,0,0,1-2.08.68c-.95.21-1.78.42-2.72.57a24.92,24.92,0,0,1-2.82.42,22.23,22.23,0,0,1-2.4.16,19.32,19.32,0,0,1-5-.63,9.42,9.42,0,0,1-4.07-2.35,10.64,10.64,0,0,1-2.71-4.69,26.63,26.63,0,0,1-.94-7.83V285.25h-5.43V279.3h5.43V268.39h8.24V279.3h12.74v4.12a39.39,39.39,0,0,1-5.22,1.26,31.89,31.89,0,0,1-5.74.57Z"/><path class="cls-2" d="M801.22,323.92H793V260.2h8.25v19.57a24.36,24.36,0,0,1,4.49-1.62,22.12,22.12,0,0,1,5.53-.62,21.9,21.9,0,0,1,5.33.57,9.49,9.49,0,0,1,4.17,2.14,10,10,0,0,1,2.72,4.17,20.74,20.74,0,0,1,.93,6.74v32.77h-8.14V291.15a11.06,11.06,0,0,0-.62-4,5.73,5.73,0,0,0-1.88-2.5,6.16,6.16,0,0,0-2.71-1.36,17.54,17.54,0,0,0-3.45-.37,12.46,12.46,0,0,0-3.55.58,8.94,8.94,0,0,0-2.82,1.25Z"/><path class="cls-2" d="M866.35,303.88h-23.7a29.51,29.51,0,0,0,.74,7.46,11.5,11.5,0,0,0,2.18,4.75,8.65,8.65,0,0,0,4,2.5,18.64,18.64,0,0,0,5.85.79h9.08V323a35.93,35.93,0,0,1-5.12,1.25,33,33,0,0,1-5.84.58,30,30,0,0,1-8.66-1.15,11.81,11.81,0,0,1-6-3.86,17.29,17.29,0,0,1-3.45-7.31,62.73,62.73,0,0,1,0-22.75,17.85,17.85,0,0,1,3-7.25,10,10,0,0,1,5-3.87,21.39,21.39,0,0,1,13.78,0,11,11,0,0,1,5,3.87,17.84,17.84,0,0,1,3,7.25,56.46,56.46,0,0,1,1.05,11.38Zm-8.25-5.43a38.63,38.63,0,0,0-.63-7.72,18.86,18.86,0,0,0-1.66-4.85,7.18,7.18,0,0,0-2.51-2.61,5.71,5.71,0,0,0-2.92-.73,5.48,5.48,0,0,0-2.93.73,6.45,6.45,0,0,0-2.5,2.61,15.43,15.43,0,0,0-1.67,4.85,39.39,39.39,0,0,0-.63,7.72Z"/><path class="cls-2" d="M884.51,323.92h-8.15V278.41h6.89l.42,3.66h.52a14.27,14.27,0,0,1,4.38-2.51,17.68,17.68,0,0,1,6.89-1.15H900v6.84h-9.09a13.8,13.8,0,0,0-3.33.42,8,8,0,0,0-3,1.41Z"/></svg>