<?xml version="1.0" encoding="UTF-8" ?>
<!DOCTYPE svg PUBLIC "-//W3C//DTD SVG 1.1//EN" "http://www.w3.org/Graphics/SVG/1.1/DTD/svg11.dtd">
<svg width="556pt" height="465pt" viewBox="0 0 556 465" version="1.1" xmlns="http://www.w3.org/2000/svg">
<g id="a_ffffffff">
<path fill="#ffffff" opacity="1.00" d=" M 150.45 50.93 C 151.50 45.88 152.68 40.86 153.83 35.84 C 156.56 36.25 159.83 35.87 162.01 37.88 C 164.45 40.99 163.09 45.82 160.06 48.04 C 157.44 50.41 153.74 50.46 150.45 50.93 Z" />
<path fill="#ffffff" opacity="1.00" d=" M 90.78 41.28 C 90.32 48.76 90.72 56.27 90.22 63.75 C 87.15 63.75 84.09 63.75 81.02 63.75 C 84.24 56.25 87.39 48.71 90.78 41.28 Z" />
<path fill="#ffffff" opacity="1.00" d=" M 311.81 41.58 C 311.84 48.97 311.50 56.36 311.49 63.75 C 308.38 63.75 305.27 63.75 302.17 63.74 C 305.30 56.32 308.44 48.90 311.81 41.58 Z" />
<path fill="#ffffff" opacity="1.00" d=" M 455.78 63.76 C 458.97 56.30 462.08 48.81 465.52 41.46 C 465.41 48.89 465.12 56.31 465.26 63.74 C 462.09 63.75 458.93 63.75 455.78 63.76 Z" />
<path fill="#ffffff" opacity="1.00" d=" M 96.03 424.11 C 98.77 424.40 101.92 424.16 104.10 426.16 C 105.48 428.04 104.34 430.59 102.54 431.73 C 100.18 433.18 97.30 433.08 94.64 433.40 C 95.04 430.29 95.51 427.20 96.03 424.11 Z" />
<path fill="#ffffff" opacity="1.00" d=" M 469.98 424.12 C 472.95 424.51 477.82 423.92 478.58 427.82 C 478.50 432.89 472.29 433.17 468.55 433.41 C 468.98 430.31 469.46 427.21 469.98 424.12 Z" />
<path fill="#ffffff" opacity="1.00" d=" M 29.15 425.35 C 33.38 425.58 38.38 426.09 40.85 430.05 C 44.08 435.00 40.97 441.66 36.09 444.17 C 33.03 446.02 29.36 446.03 25.90 446.08 C 26.95 439.16 27.98 432.24 29.15 425.35 Z" />
<path fill="#ffffff" opacity="1.00" d=" M 401.43 426.58 C 407.62 424.77 415.90 428.90 415.53 436.02 C 415.44 446.69 398.70 450.31 393.62 441.25 C 390.04 435.22 395.10 427.76 401.43 426.58 Z" />
</g>
<g id="a_1951aaff">
<path fill="#1951aa" opacity="1.00" d=" M 310.63 16.74 C 312.95 12.05 315.46 7.45 317.77 2.75 C 323.28 2.75 328.80 2.73 334.31 2.78 C 329.66 7.34 325.25 12.15 320.63 16.76 C 317.29 16.75 313.96 16.75 310.63 16.74 Z" />
<path fill="#1951aa" opacity="1.00" d=" M 356.42 30.49 C 368.52 20.90 385.34 19.39 399.93 23.18 C 398.65 28.49 397.34 33.79 396.11 39.11 C 390.89 37.59 385.12 36.51 380.01 39.01 C 372.47 41.93 368.87 50.37 368.72 58.00 C 368.62 61.98 369.14 66.94 372.92 69.20 C 377.69 71.94 383.56 71.54 388.77 70.54 C 387.48 75.75 386.20 80.96 384.91 86.17 C 374.98 87.90 364.33 87.88 354.86 84.06 C 348.56 81.61 343.80 75.88 342.57 69.23 C 340.05 55.13 344.95 39.45 356.42 30.49 Z" />
<path fill="#1951aa" opacity="1.00" d=" M 510.18 26.26 C 518.21 21.45 527.99 20.80 537.12 21.46 C 542.42 21.74 547.50 23.38 552.49 25.07 C 551.19 30.22 549.89 35.37 548.63 40.52 C 543.22 37.93 537.16 35.75 531.10 36.76 C 528.15 37.16 526.32 41.08 528.64 43.28 C 533.53 49.09 541.45 51.91 545.35 58.66 C 548.53 65.68 546.53 74.69 540.69 79.75 C 535.00 84.78 527.17 86.49 519.82 87.31 C 510.52 87.98 500.92 87.22 492.22 83.67 C 493.38 77.89 494.72 72.16 496.00 66.42 C 502.69 69.67 510.33 72.82 517.85 70.85 C 520.89 70.34 522.66 66.73 521.05 64.05 C 518.49 59.60 513.56 57.43 509.71 54.28 C 506.17 51.43 502.41 47.93 502.08 43.09 C 501.09 36.47 504.49 29.69 510.18 26.26 Z" />
<path fill="#1951aa" opacity="1.00" d=" M 20.36 22.74 C 34.95 22.76 49.54 22.74 64.14 22.75 C 63.04 27.93 61.87 33.09 60.71 38.25 C 54.28 38.25 47.85 38.26 41.43 38.25 C 40.84 41.16 40.26 44.08 39.67 47.00 C 45.23 47.00 50.79 47.00 56.35 47.00 C 55.07 52.05 54.06 57.16 52.98 62.25 C 47.41 62.26 41.84 62.23 36.27 62.27 C 34.54 70.27 32.76 78.25 31.07 86.25 C 22.67 86.25 14.26 86.26 5.86 86.25 C 10.66 65.07 15.48 43.90 20.36 22.74 Z" />
<path fill="#1951aa" opacity="1.00" d=" M 79.41 22.74 C 89.17 22.75 98.94 22.76 108.70 22.74 C 110.89 43.90 113.03 65.07 115.10 86.25 C 106.73 86.26 98.37 86.25 90.00 86.25 C 90.00 83.08 90.00 79.92 90.00 76.75 C 85.20 76.75 80.39 76.75 75.59 76.74 C 74.37 79.90 73.19 83.07 72.03 86.25 C 63.30 86.25 54.58 86.26 45.86 86.24 C 56.89 64.99 68.21 43.90 79.41 22.74 M 90.78 41.28 C 87.39 48.71 84.24 56.25 81.02 63.75 C 84.09 63.75 87.15 63.75 90.22 63.75 C 90.72 56.27 90.32 48.76 90.78 41.28 Z" />
<path fill="#1951aa" opacity="1.00" d=" M 117.39 86.24 C 122.11 65.07 126.87 43.91 131.60 22.74 C 145.91 23.20 160.45 21.49 174.56 24.55 C 178.92 25.37 183.22 27.63 185.45 31.61 C 189.09 38.39 187.08 47.33 181.59 52.52 C 178.01 55.81 173.28 57.35 168.66 58.52 C 172.51 67.71 176.15 76.99 179.90 86.23 C 171.12 86.27 162.33 86.24 153.55 86.25 C 151.72 77.88 149.90 69.50 148.05 61.12 C 146.20 69.49 144.35 77.85 142.58 86.23 C 134.18 86.27 125.79 86.26 117.39 86.24 M 150.45 50.93 C 153.74 50.46 157.44 50.41 160.06 48.04 C 163.09 45.82 164.45 40.99 162.01 37.88 C 159.83 35.87 156.56 36.25 153.83 35.84 C 152.68 40.86 151.50 45.88 150.45 50.93 Z" />
<path fill="#1951aa" opacity="1.00" d=" M 202.18 22.76 C 211.96 22.73 221.73 22.76 231.50 22.75 C 231.52 33.60 231.47 44.45 231.52 55.30 C 236.44 44.47 241.19 33.57 246.10 22.74 C 255.84 22.76 265.59 22.74 275.34 22.76 C 272.72 43.60 270.20 64.46 267.67 85.32 C 278.61 64.43 289.64 43.59 300.66 22.74 C 310.43 22.75 320.20 22.75 329.97 22.74 C 332.15 43.90 334.12 65.08 336.23 86.25 C 327.91 86.25 319.58 86.25 311.25 86.25 C 311.25 83.08 311.25 79.92 311.25 76.75 C 306.48 76.75 301.70 76.75 296.93 76.75 C 295.70 79.92 294.46 83.09 293.20 86.25 C 277.51 86.24 261.81 86.27 246.12 86.24 C 248.66 70.97 251.58 55.78 254.02 40.50 C 247.40 55.80 240.57 71.01 233.80 86.24 C 228.13 86.26 222.45 86.25 216.77 86.25 C 216.48 70.86 216.28 55.48 215.95 40.09 C 211.85 55.48 207.67 70.86 203.54 86.24 C 196.35 86.26 189.16 86.25 181.97 86.25 C 188.74 65.10 195.41 43.92 202.18 22.76 M 311.81 41.58 C 308.44 48.90 305.30 56.32 302.17 63.74 C 305.27 63.75 308.38 63.75 311.49 63.75 C 311.50 56.36 311.84 48.97 311.81 41.58 Z" />
<path fill="#1951aa" opacity="1.00" d=" M 407.11 22.74 C 415.52 22.77 423.94 22.73 432.36 22.76 C 427.41 43.88 422.83 65.09 418.08 86.25 C 409.66 86.25 401.24 86.25 392.82 86.25 C 397.49 65.06 402.30 43.90 407.11 22.74 Z" />
<path fill="#1951aa" opacity="1.00" d=" M 454.20 22.76 C 464.02 22.73 473.83 22.77 483.65 22.74 C 485.68 43.92 487.90 65.08 489.90 86.27 C 481.52 86.23 473.13 86.26 464.75 86.25 C 464.75 83.08 464.74 79.92 464.75 76.75 C 460.02 76.75 455.29 76.75 450.57 76.75 C 449.28 79.92 447.98 83.09 446.68 86.25 C 438.02 86.25 429.37 86.26 420.72 86.25 C 431.65 64.97 443.07 43.94 454.20 22.76 M 455.78 63.76 C 458.93 63.75 462.09 63.75 465.26 63.74 C 465.12 56.31 465.41 48.89 465.52 41.46 C 462.08 48.81 458.97 56.30 455.78 63.76 Z" />
<path fill="#1951aa" opacity="1.00" d=" M 5.00 105.25 C 187.50 105.25 370.00 105.25 552.50 105.25 C 552.50 157.67 552.50 210.08 552.50 262.50 C 429.09 262.48 305.67 262.55 182.26 262.46 C 185.78 255.61 189.41 248.81 193.02 242.01 C 181.33 241.98 169.64 242.01 157.94 242.00 C 149.98 248.82 142.07 255.70 134.10 262.51 C 119.31 262.49 104.52 262.51 89.73 262.50 C 88.24 255.50 86.83 248.49 85.37 241.49 C 73.97 241.50 62.57 241.51 51.17 241.48 C 47.92 248.49 44.59 255.45 41.40 262.49 C 29.27 262.52 17.14 262.49 5.00 262.50 C 5.00 210.08 5.00 157.67 5.00 105.25 M 63.43 119.49 C 46.98 155.25 30.49 191.01 14.03 226.77 C 23.86 226.72 33.70 226.77 43.53 226.73 C 50.01 212.65 56.46 198.57 62.97 184.50 C 79.45 184.49 96.50 185.21 112.21 179.35 C 120.35 176.14 128.90 172.67 134.72 165.83 C 139.66 160.50 141.88 153.46 145.09 147.09 C 146.46 143.89 148.81 140.58 147.73 136.94 C 146.50 132.30 143.06 128.46 139.03 125.98 C 130.28 120.88 119.95 119.65 109.99 119.50 C 94.47 119.49 78.95 119.52 63.43 119.49 M 153.99 160.01 C 148.57 162.96 143.71 167.07 140.59 172.46 C 150.40 172.52 160.22 172.53 170.03 172.46 C 175.75 166.36 184.74 164.19 192.81 165.62 C 195.56 166.02 197.53 168.08 199.23 170.10 C 198.03 173.84 196.49 177.45 194.80 180.99 C 180.37 181.21 165.53 179.89 151.56 184.35 C 144.88 186.56 137.92 188.92 132.65 193.78 C 128.11 198.07 126.34 204.26 123.75 209.76 C 122.81 212.31 120.82 215.40 123.08 217.86 C 126.10 223.73 133.09 225.42 139.10 226.26 C 152.09 227.61 165.70 225.56 177.19 219.15 C 176.07 221.69 174.94 224.23 173.80 226.76 C 183.62 226.72 193.44 226.77 203.26 226.73 C 211.54 208.58 219.94 190.47 228.23 172.32 C 230.09 168.69 229.79 164.07 227.03 160.97 C 221.54 154.57 213.05 151.80 204.95 150.58 C 187.55 148.21 169.41 151.60 153.99 160.01 M 250.39 160.47 C 247.79 162.32 246.37 165.26 245.07 168.08 C 240.57 177.92 236.05 187.75 231.51 197.57 C 228.89 203.36 226.01 209.04 223.99 215.08 C 225.10 219.79 229.01 223.00 233.50 224.34 C 248.99 229.30 266.22 225.84 280.04 217.79 C 277.63 222.83 275.38 227.95 273.01 233.02 C 271.72 236.17 269.32 238.80 266.13 240.08 C 259.98 242.71 252.38 243.87 246.22 240.75 C 243.58 239.63 243.44 236.62 243.75 234.18 C 233.98 234.34 224.20 234.20 214.42 234.26 C 213.32 237.70 212.29 241.55 214.10 244.96 C 217.40 251.27 224.51 254.21 231.04 255.95 C 249.18 260.30 268.64 257.46 285.42 249.57 C 292.25 246.50 298.45 241.52 301.68 234.62 C 314.78 206.37 327.48 177.93 340.72 149.74 C 330.89 149.77 321.06 149.73 311.23 149.76 C 309.88 152.70 308.53 155.64 307.20 158.58 C 298.63 149.18 284.69 149.04 272.99 150.51 C 264.60 151.38 257.12 155.64 250.39 160.47 M 333.12 203.14 C 331.48 206.99 329.41 210.78 328.76 214.95 C 329.33 218.78 332.20 221.88 335.78 223.15 C 351.24 229.49 369.21 226.90 383.70 219.21 C 382.58 221.72 381.46 224.24 380.33 226.75 C 390.14 226.75 399.94 226.74 409.74 226.75 C 421.54 201.10 433.20 175.37 445.08 149.75 C 435.30 149.75 425.52 149.75 415.73 149.75 C 407.88 166.32 400.29 183.01 392.72 199.72 C 390.96 203.33 388.83 207.20 384.97 208.91 C 379.38 211.43 372.94 211.83 366.97 210.73 C 364.40 210.35 361.81 208.62 361.73 205.78 C 362.31 203.51 363.42 201.44 364.38 199.32 C 372.01 182.81 379.56 166.27 387.19 149.76 C 377.39 149.74 367.59 149.75 357.79 149.75 C 349.57 167.55 341.37 185.36 333.12 203.14 M 470.84 156.66 C 462.57 160.36 453.85 165.35 450.08 174.03 C 446.27 182.25 442.38 190.42 438.70 198.70 C 437.12 202.26 435.48 205.92 435.07 209.84 C 435.51 213.81 437.51 217.83 441.04 219.92 C 450.56 225.63 461.95 227.04 472.86 226.61 C 483.25 226.35 493.84 224.90 503.27 220.31 C 511.08 216.90 519.50 212.79 523.48 204.79 C 513.71 204.72 503.93 204.72 494.15 204.79 C 488.66 210.81 479.85 211.89 472.17 211.02 C 469.38 210.46 465.59 209.34 465.21 206.01 C 466.31 201.61 468.83 197.70 470.50 193.50 C 489.80 193.50 509.11 193.50 528.41 193.50 C 531.59 186.63 534.81 179.77 537.97 172.89 C 539.66 169.32 539.95 164.84 537.63 161.48 C 533.48 155.34 526.13 152.40 519.10 151.09 C 502.93 148.15 486.00 150.46 470.84 156.66 Z" />
<path fill="#1951aa" opacity="1.00" d=" M 86.52 133.05 C 93.96 133.16 101.45 132.54 108.84 133.43 C 112.77 134.03 118.10 136.02 117.96 140.81 C 117.05 145.10 114.61 148.85 112.95 152.87 C 110.57 157.79 108.89 163.87 103.55 166.45 C 93.13 171.96 80.95 169.40 69.68 170.00 C 75.34 157.70 80.92 145.37 86.52 133.05 Z" />
<path fill="#1951aa" opacity="1.00" d=" M 270.18 177.27 C 272.28 171.62 276.91 166.56 283.12 165.70 C 288.34 165.00 294.56 164.38 298.83 168.14 C 301.37 170.47 299.91 174.11 298.81 176.77 C 295.28 184.62 291.69 192.44 288.14 200.29 C 285.58 205.84 280.67 211.05 274.14 211.12 C 268.48 211.12 260.86 212.75 257.34 207.02 C 260.57 196.69 266.04 187.24 270.18 177.27 Z" />
<path fill="#1951aa" opacity="1.00" d=" M 483.79 168.87 C 489.28 165.32 496.20 164.71 502.55 165.52 C 504.75 165.99 507.77 166.49 508.36 169.10 C 509.24 173.43 506.28 177.19 504.75 181.00 C 495.30 180.99 485.84 181.01 476.39 180.99 C 478.48 176.78 479.64 171.62 483.79 168.87 Z" />
<path fill="#1951aa" opacity="1.00" d=" M 164.19 195.21 C 172.25 193.03 180.74 193.55 189.02 193.56 C 186.89 198.06 185.12 202.88 181.84 206.71 C 177.63 210.67 171.49 211.42 165.96 211.28 C 162.15 211.21 157.73 210.36 155.51 206.92 C 155.45 201.72 159.03 196.53 164.19 195.21 Z" />
<path fill="#1951aa" opacity="1.00" d=" M 53.31 247.23 C 62.76 247.27 72.21 247.25 81.66 247.24 C 85.18 266.43 88.78 285.59 92.31 304.77 C 113.79 286.10 135.34 267.49 156.79 248.77 C 157.69 248.00 158.67 247.15 159.95 247.29 C 168.34 247.17 176.73 247.29 185.11 247.26 C 168.72 283.02 152.35 318.78 135.91 354.51 C 125.85 354.48 115.79 354.52 105.74 354.49 C 115.58 333.05 125.41 311.61 135.28 290.18 C 118.54 305.20 101.78 320.20 85.06 335.25 C 80.32 335.25 75.58 335.25 70.84 335.25 C 68.45 320.15 66.18 305.02 63.83 289.90 C 53.93 311.44 43.98 332.96 34.07 354.50 C 24.02 354.51 13.96 354.49 3.91 354.51 C 20.31 318.72 36.84 282.99 53.31 247.23 Z" />
<path fill="#1951aa" opacity="1.00" d=" M 186.76 287.81 C 199.86 280.36 215.10 277.24 230.07 277.27 C 239.49 277.62 249.51 278.98 257.28 284.75 C 261.68 287.97 264.42 293.91 262.13 299.21 C 258.96 306.85 255.10 314.20 251.73 321.75 C 232.52 321.73 213.31 321.76 194.10 321.74 C 192.31 325.84 189.90 329.71 188.67 334.03 C 190.07 337.61 194.42 338.50 197.84 338.74 C 204.64 338.83 212.30 337.64 217.08 332.31 C 227.10 332.21 237.12 332.23 247.15 332.30 C 243.13 341.30 233.47 345.28 225.02 348.96 C 215.31 353.32 204.54 354.44 194.00 354.52 C 183.70 354.73 172.97 353.25 164.01 347.85 C 160.21 345.70 158.23 341.28 157.99 337.07 C 158.36 333.61 159.85 330.40 161.23 327.25 C 165.41 318.38 169.38 309.42 173.58 300.56 C 176.28 294.88 181.44 290.89 186.76 287.81 M 207.12 297.05 C 203.16 299.74 202.02 304.69 200.01 308.75 C 209.26 308.74 218.52 308.75 227.77 308.74 C 229.14 305.29 231.68 302.03 231.60 298.19 C 231.31 294.89 227.63 294.01 224.93 293.66 C 218.88 293.10 212.23 293.38 207.12 297.05 Z" />
<path fill="#1951aa" opacity="1.00" d=" M 281.14 277.24 C 291.15 277.26 301.17 277.25 311.19 277.24 C 309.93 280.12 308.60 282.97 307.24 285.80 C 319.05 278.65 333.42 275.80 347.05 278.03 C 352.81 279.00 359.16 281.52 361.78 287.14 C 362.31 290.24 361.71 293.52 360.42 296.38 C 351.41 315.72 342.53 335.12 333.56 354.49 C 323.51 354.52 313.47 354.48 303.42 354.51 C 311.50 336.83 319.76 319.24 327.80 301.55 C 329.29 298.95 328.53 295.34 325.41 294.46 C 316.06 291.49 302.94 294.02 298.99 304.05 C 291.32 320.90 283.36 337.62 275.81 354.52 C 265.76 354.47 255.71 354.51 245.66 354.50 C 257.37 328.70 269.29 302.99 281.14 277.24 Z" />
<path fill="#1951aa" opacity="1.00" d=" M 414.58 277.77 C 423.66 276.74 432.93 277.24 441.83 279.36 C 447.53 280.66 452.68 284.03 456.54 288.37 C 459.48 291.91 458.78 297.01 456.92 300.88 C 452.15 311.13 447.53 321.46 442.76 331.71 C 437.92 341.20 427.56 345.61 418.22 349.40 C 402.28 355.01 384.56 356.33 368.16 351.96 C 362.54 350.05 355.71 347.42 354.07 341.03 C 352.36 337.22 354.10 333.17 355.65 329.65 C 359.64 320.98 363.64 312.33 367.60 303.65 C 370.61 295.30 377.76 289.21 385.79 285.85 C 394.78 281.39 404.63 278.89 414.58 277.77 M 411.52 293.76 C 406.30 294.66 400.60 297.18 398.47 302.39 C 394.27 311.55 390.01 320.69 385.79 329.85 C 384.75 331.95 384.41 334.93 386.48 336.55 C 390.70 339.45 396.17 338.89 401.01 338.47 C 406.67 338.02 411.65 334.07 413.91 328.93 C 417.91 320.20 421.85 311.45 425.90 302.74 C 426.71 300.82 428.12 298.45 426.44 296.56 C 422.61 292.65 416.50 293.09 411.52 293.76 Z" />
<path fill="#1951aa" opacity="1.00" d=" M 493.39 280.54 C 505.52 277.28 518.46 276.06 530.84 278.60 C 537.62 280.19 544.94 283.23 548.36 289.72 C 550.11 292.81 549.49 296.42 548.64 299.67 C 539.86 299.86 531.09 299.65 522.32 299.80 C 522.11 297.45 521.49 294.74 518.96 293.89 C 512.38 291.55 504.87 292.11 498.43 294.70 C 495.08 296.22 491.52 298.94 491.22 302.90 C 491.21 305.11 493.58 305.98 495.25 306.76 C 504.55 310.46 514.95 310.03 524.25 313.77 C 528.58 315.73 532.55 318.83 535.07 322.91 C 537.06 327.17 535.74 332.37 532.92 335.95 C 527.81 342.55 520.15 346.43 512.61 349.55 C 496.18 356.00 477.61 357.43 460.55 352.64 C 455.01 350.94 448.91 348.19 446.43 342.57 C 444.88 339.24 445.85 335.58 446.81 332.25 C 456.16 332.24 465.51 332.28 474.86 332.23 C 473.78 336.73 478.13 339.66 482.07 340.18 C 489.02 341.10 496.57 340.40 502.67 336.71 C 505.28 334.97 508.06 331.63 506.66 328.34 C 504.20 325.20 499.91 324.65 496.29 323.75 C 488.82 322.53 481.40 320.91 474.16 318.70 C 469.59 316.86 465.09 313.87 462.67 309.46 C 461.07 304.08 463.75 298.41 467.37 294.48 C 474.24 287.13 483.93 283.31 493.39 280.54 Z" />
<path fill="#1951aa" opacity="1.00" d=" M 4.50 362.75 C 187.17 362.75 369.83 362.75 552.50 362.75 C 552.50 371.67 552.50 380.58 552.50 389.50 C 369.83 389.50 187.17 389.50 4.50 389.50 C 4.50 380.58 4.50 371.67 4.50 362.75 Z" />
</g>
<g id="a_ff0303ff">
<path fill="#ff0303" opacity="1.00" d=" M 210.72 415.76 C 220.58 409.24 233.05 408.25 244.48 409.83 C 252.94 411.03 260.64 415.69 266.11 422.18 C 258.94 424.50 251.74 426.69 244.57 429.00 C 240.05 423.91 231.93 423.38 226.69 427.66 C 222.14 431.11 220.16 438.02 223.01 443.12 C 227.43 449.86 238.46 449.90 243.33 443.60 C 239.45 443.46 235.57 443.50 231.69 443.51 C 232.26 439.49 232.80 435.48 233.36 431.47 C 244.93 431.52 256.50 431.48 268.07 431.49 C 268.17 438.42 266.88 445.74 262.19 451.12 C 255.63 459.03 245.02 462.38 235.02 462.53 C 225.12 462.84 214.56 460.74 206.86 454.15 C 201.31 449.57 198.14 442.22 198.90 435.04 C 199.45 427.20 204.14 419.96 210.72 415.76 Z" />
<path fill="#ff0303" opacity="1.00" d=" M 288.14 411.06 C 299.69 407.12 312.39 409.70 323.33 414.39 C 320.51 419.01 317.67 423.61 314.84 428.22 C 310.50 425.36 305.40 423.20 300.11 423.67 C 298.16 423.72 297.31 425.57 296.51 427.02 C 302.61 429.81 309.87 429.50 315.44 433.59 C 321.48 437.45 322.23 446.45 318.10 451.98 C 313.22 458.57 304.93 461.75 296.98 462.44 C 287.12 463.37 277.46 460.48 268.53 456.58 C 271.31 451.88 274.26 447.29 277.09 442.62 C 281.98 446.74 288.47 449.23 294.91 448.35 C 296.96 448.33 299.00 445.58 296.94 444.12 C 292.69 441.74 287.54 442.05 283.10 440.11 C 278.08 438.32 274.00 433.50 274.20 428.00 C 273.74 419.76 280.98 413.55 288.14 411.06 Z" />
<path fill="#ff0303" opacity="1.00" d=" M 397.45 409.59 C 406.53 408.53 416.13 409.41 424.30 413.75 C 429.63 416.46 434.32 420.76 436.75 426.30 C 440.17 434.14 438.62 443.71 433.31 450.34 C 427.71 457.47 418.81 461.32 409.95 462.30 C 401.13 463.14 391.92 462.07 383.96 457.99 C 378.47 455.13 373.55 450.72 371.13 444.92 C 368.08 437.76 369.33 429.13 373.89 422.89 C 379.30 415.25 388.35 410.89 397.45 409.59 M 401.43 426.58 C 395.10 427.76 390.04 435.22 393.62 441.25 C 398.70 450.31 415.44 446.69 415.53 436.02 C 415.90 428.90 407.62 424.77 401.43 426.58 Z" />
<path fill="#ff0303" opacity="1.00" d=" M 8.40 410.50 C 19.79 410.90 31.34 409.45 42.59 411.68 C 49.76 413.16 57.07 416.49 61.28 422.73 C 66.77 430.97 65.68 442.78 59.15 450.15 C 52.65 457.72 42.43 460.74 32.76 461.09 C 22.10 461.46 11.43 461.15 0.77 461.25 C 3.22 444.32 5.90 427.42 8.40 410.50 M 29.15 425.35 C 27.98 432.24 26.95 439.16 25.90 446.08 C 29.36 446.03 33.03 446.02 36.09 444.17 C 40.97 441.66 44.08 435.00 40.85 430.05 C 38.38 426.09 33.38 425.58 29.15 425.35 Z" />
<path fill="#ff0303" opacity="1.00" d=" M 75.18 410.52 C 84.78 410.47 94.38 410.49 103.99 410.50 C 110.70 410.63 118.07 411.96 122.82 417.14 C 127.66 421.76 128.81 430.07 124.45 435.38 C 121.43 439.27 116.48 440.68 111.86 441.60 C 116.32 448.16 120.84 454.68 125.28 461.25 C 117.00 461.25 108.73 461.26 100.45 461.25 C 97.53 454.91 94.27 448.68 92.33 441.94 C 92.39 448.43 91.44 454.86 90.37 461.24 C 82.73 461.26 75.09 461.25 67.46 461.25 C 70.08 444.35 72.63 427.44 75.18 410.52 M 96.03 424.11 C 95.51 427.20 95.04 430.29 94.64 433.40 C 97.30 433.08 100.18 433.18 102.54 431.73 C 104.34 430.59 105.48 428.04 104.10 426.16 C 101.92 424.16 98.77 424.40 96.03 424.11 Z" />
<path fill="#ff0303" opacity="1.00" d=" M 137.47 410.51 C 145.20 410.47 152.94 410.50 160.67 410.49 C 159.23 420.25 157.71 430.00 156.25 439.75 C 155.99 441.73 155.60 444.18 157.38 445.61 C 160.91 448.62 167.21 446.60 167.90 441.84 C 169.99 431.48 171.11 420.92 172.85 410.49 C 180.61 410.50 188.36 410.48 196.12 410.50 C 194.68 420.40 193.12 430.30 191.57 440.19 C 190.79 444.89 189.80 449.88 186.55 453.56 C 181.73 458.79 174.76 461.62 167.77 462.28 C 159.69 462.96 151.24 462.58 143.73 459.23 C 139.83 457.51 135.97 454.93 134.17 450.91 C 132.35 447.04 132.52 442.62 133.19 438.50 C 134.66 429.17 136.04 419.84 137.47 410.51 Z" />
<path fill="#ff0303" opacity="1.00" d=" M 327.43 410.52 C 342.03 410.45 356.63 410.52 371.24 410.49 C 370.48 415.85 369.69 421.22 368.88 426.58 C 365.52 426.47 362.18 426.26 358.83 426.20 C 357.07 437.89 355.30 449.57 353.51 461.25 C 345.80 461.25 338.10 461.27 330.39 461.24 C 332.16 449.56 333.94 437.88 335.70 426.20 C 332.11 426.26 328.53 426.48 324.96 426.56 C 325.78 421.22 326.65 415.88 327.43 410.52 Z" />
<path fill="#ff0303" opacity="1.00" d=" M 449.08 410.48 C 458.97 410.55 468.87 410.41 478.76 410.53 C 485.68 410.75 493.33 412.51 497.74 418.32 C 501.71 423.01 502.27 430.44 498.39 435.35 C 495.36 439.26 490.37 440.72 485.72 441.59 C 490.25 448.11 494.66 454.72 499.19 461.24 C 490.87 461.26 482.56 461.26 474.24 461.24 C 471.39 454.84 468.23 448.56 466.05 441.89 C 466.30 448.39 465.42 454.84 464.36 461.24 C 456.71 461.26 449.06 461.26 441.41 461.25 C 444.00 444.33 446.49 427.39 449.08 410.48 M 469.98 424.12 C 469.46 427.21 468.98 430.31 468.55 433.41 C 472.29 433.17 478.50 432.89 478.58 427.82 C 477.82 423.92 472.95 424.51 469.98 424.12 Z" />
<path fill="#ff0303" opacity="1.00" d=" M 511.87 410.49 C 525.62 410.50 539.37 410.48 553.13 410.50 C 552.53 415.00 551.79 419.49 551.17 424.00 C 545.04 424.00 538.90 424.00 532.77 424.00 C 532.49 425.75 532.20 427.49 531.92 429.24 C 537.53 429.23 543.13 429.27 548.74 429.21 C 548.08 433.47 547.47 437.74 546.81 442.00 C 541.21 442.00 535.61 442.00 530.02 442.00 C 529.71 443.82 529.42 445.64 529.13 447.47 C 535.51 447.51 541.90 447.48 548.29 447.49 C 547.54 452.07 546.84 456.66 546.13 461.26 C 532.14 461.24 518.15 461.27 504.16 461.24 C 506.79 444.33 509.32 427.41 511.87 410.49 Z" />
</g>
</svg>
