<?xml version="1.0"?>
<svg xmlns="http://www.w3.org/2000/svg" width="383.327" height="85.19">
<path fill="#231F20" d="M249.973,69.014c-16.087,0-26.111-17.768-26.111-34.374c0-16.617,10.024-34.379,26.111-34.379
	c16.076,0,26.12,17.762,26.12,34.379C276.093,51.246,266.049,69.014,249.973,69.014 M249.973,3.191
	c-10.345,0-14.836,18.593-14.836,31.448c0,12.845,4.491,31.433,14.836,31.433c10.344,0,14.826-18.588,14.826-31.433
	C264.799,21.784,260.316,3.191,249.973,3.191"/>
<path fill="#231F20" d="M318.911,49.266V7.729c0-1.626-0.211-3.227-3.902-3.227c-0.37,0-1.04-0.215-1.04-1.271
	c0-1.021,0.67-1.266,1.04-1.266h11.896c0.36,0,1.03,0.245,1.03,1.266c0,1.056-0.67,1.271-1.03,1.271
	c-3.712,0-3.912,1.876-3.912,3.227v57.834c0,2.631-2.641,6.412-5.922,0.92c-3.252-5.492-30.633-50.996-30.633-50.996V61.13
	c0,2.621,2.161,3.352,5.862,3.352c0.37,0,1.03,0.21,1.03,1.271c0,1.021-0.66,1.271-1.03,1.271h-15.326
	c-0.36,0-1.011-0.25-1.011-1.271c0-1.061,0.65-1.271,1.011-1.271c3.731,0,5.872-0.96,5.872-3.352V7.863
	c0-2.386-2.141-3.361-5.872-3.361c-0.36,0-1.011-0.215-1.011-1.271c0-1.021,0.65-1.266,1.011-1.266h12.225
	c1.061,0,1.791-0.145,2.752,1.266C292.91,4.637,318.911,49.266,318.911,49.266"/>
<path fill="#231F20" d="M222.231,67.032c0.359,0,1.03-0.25,1.03-1.28c0-1.061-0.671-1.261-1.03-1.261
	c-3.712,0-5.873-0.98-5.873-3.361V7.868c0-2.396,2.161-3.361,5.873-3.361c0.359,0,1.03-0.215,1.03-1.28
	c0-1.016-0.671-1.271-1.03-1.271h-21.789c-0.36,0-1.011,0.255-1.011,1.271c0,1.065,0.65,1.28,1.011,1.28
	c3.731,0,5.872,0.966,5.872,3.361V61.13c0,2.381-2.141,3.361-5.872,3.361c-0.36,0-1.011,0.2-1.011,1.261
	c0,1.03,0.65,1.28,1.011,1.28H222.231z"/>
<path fill="#231F20" d="M174.481,55.868v-48c0-2.396,2.151-3.361,5.862-3.361c0.36,0,1.021-0.215,1.021-1.28
	c0-1.011-0.66-1.261-1.021-1.261h-21.799c-0.36,0-1.011,0.25-1.011,1.261c0,1.065,0.65,1.28,1.011,1.28
	c3.731,0,5.872,0.966,5.872,3.361V61.13c0,2.381-2.141,3.361-5.872,3.361c-0.36,0-1.011,0.2-1.011,1.261
	c0,1.03,0.65,1.28,1.011,1.28h37.295c0.351,0,1.021-0.25,1.021-1.28V51.387c0-1.541-1.87-1.541-1.87,0
	c0,1.521-1.861,13.325-13.646,13.325C175.872,64.712,174.481,62.411,174.481,55.868"/>
<path fill="#231F20" d="M152.232,67.032c0.37,0,1.011-0.25,1.011-1.28c0-1.061-0.641-1.261-1.011-1.261
	c-3.712,0-5.862-0.98-5.862-3.361V7.868c0-2.396,2.15-3.361,5.862-3.361c0.37,0,1.011-0.215,1.011-1.28
	c0-1.016-0.641-1.271-1.011-1.271h-21.789c-0.36,0-1.021,0.255-1.021,1.271c0,1.065,0.66,1.28,1.021,1.28
	c3.722,0,5.862,0.966,5.862,3.361V61.13c0,2.381-2.141,3.361-5.862,3.361c-0.36,0-1.021,0.2-1.021,1.261
	c0,1.03,0.66,1.28,1.021,1.28H152.232z"/>
<path fill="#231F20" d="M111.966,63.401l17.237-55.533c0.74-2.571,1.46-3.361,5.182-3.361c0.37,0,1.021-0.215,1.021-1.28
	c0-1.016-0.65-1.261-1.021-1.261h-15.756c-0.381,0-1.021,0.245-1.021,1.261c0,1.065,0.64,1.28,1.021,1.28
	c3.711,0,5.862,0.976,5.862,3.361l-12.075,40.877L100.051,7.868c0-2.386,1.07-3.361,4.792-3.361c0.37,0,1.021-0.215,1.021-1.28
	c0-1.016-0.65-1.261-1.021-1.261H83.054c-0.359,0-1.021,0.245-1.021,1.261c0,1.065,0.661,1.28,1.021,1.28
	c3.712,0,5.452,0.91,6.272,3.361l16.537,55.533C107.204,67.072,109.045,72.325,111.966,63.401"/>
<path fill="#231F20" d="M370.432,21.319c0,1.79-0.64,2.551-2.051,2.551c-2.421,0-2.161-3.321-5.763-12.14
	c-2.29-5.628-4.722-8.299-10.594-8.299c-6.643,0-11.114,5.232-11.114,13.15c0,7.543,2.801,9.214,15.596,18.532
	c9.834,7.163,18.138,13.551,18.138,25.315c0,12.266-9.204,24.53-27.341,24.53c-6.393,0-17.388-2.561-17.388-7.283
	c0-19.168,0.771-20.068,2.941-20.068c2.812,0,1.4,2.821,4.972,12.025c3.082,7.793,7.434,11.755,14.066,11.755
	c7.673,0,13.285-5.753,13.285-14.186c0-22.62-34.244-19.818-34.244-45.884c0-10.095,8.554-20.449,22.239-20.449
	c9.193,0,15.727,1.791,16.617,3.062c0.64,0.9,0.64,2.051,0.64,3.707V21.319z"/>
<path fill="#231F20" d="M98.13,64.531c-3.701,0-5.441-0.92-6.263-3.371L75.331,5.633c-1.341-3.667-3.172-8.919-6.103,0L51.981,61.16
	c-0.721,2.581-1.451,3.371-5.172,3.371c-0.37,0-1.021,0.2-1.021,1.261c0,1.03,0.65,1.28,1.021,1.28h15.756
	c0.381,0,1.021-0.25,1.021-1.28c0-1.061-0.64-1.261-1.021-1.261c-3.711,0-5.853-0.98-5.853-3.371l4.872-16.507h14.576l4.992,16.507
	c0,2.391-1.08,3.371-4.802,3.371c-0.37,0-1.021,0.2-1.021,1.261c0,1.03,0.65,1.28,1.021,1.28H98.13c0.37,0,1.031-0.25,1.031-1.28
	C99.161,64.731,98.5,64.531,98.13,64.531 M62.556,41.357l6.232-21.074l6.373,21.074H62.556z"/>
<path fill="#231F20" d="M54.832,23.37c0,12.649-7.803,23.004-20.578,23.004c-5.192,0-9.454-0.61-11.895-1.615v32.498
	c0,2.381,4.821,3.361,8.543,3.361c0.351,0,1.011,0.21,1.011,1.28c0,1.011-0.66,1.261-1.011,1.261H3.111
	c-0.36,0-1.021-0.25-1.021-1.261c0-1.07,0.66-1.28,1.021-1.28c3.711,0,6.963-0.98,6.963-3.361V6.607
	c0-2.386-3.251-3.361-6.963-3.361c-0.36,0-1.021-0.215-1.021-1.271c0-1.021,0.66-1.271,1.021-1.271h27.791
	C42.468,0.705,54.832,10.34,54.832,23.37 M22.619,39.031c0,3.102,1.591,3.791,5.412,3.791c7.903,0,14.096-8.338,14.096-20.388
	c0-12.445-6.052-19.073-11.994-19.073c-5.803,0-7.514,1.856-7.514,5.298V39.031z"/>
<path fill="#231F20" d="M249.332,69.134c-16.187,0-26.271-17.857-26.271-34.569C223.062,17.857,233.146,0,249.332,0
	c16.177,0,26.261,17.857,26.261,34.564C275.593,51.276,265.509,69.134,249.332,69.134 M249.332,2.941
	c-10.414,0-14.926,18.708-14.926,31.623c0,12.931,4.512,31.638,14.926,31.638c10.404,0,14.927-18.707,14.927-31.638
	C264.259,21.649,259.736,2.941,249.332,2.941"/>
<path fill="#231F20" d="M318.661,49.285V7.514c0-1.651-0.181-3.247-3.922-3.247c-0.37,0-1.041-0.22-1.041-1.29
	c0-1.025,0.671-1.271,1.041-1.271h11.975c0.37,0,1.021,0.245,1.021,1.271c0,1.07-0.65,1.29-1.021,1.29
	c-3.741,0-3.932,1.871-3.932,3.247v58.158c0,2.651-2.671,6.453-5.942,0.931c-3.291-5.522-30.833-51.306-30.833-51.306V61.21
	c0,2.661,2.161,3.382,5.893,3.382c0.37,0,1.041,0.22,1.041,1.28c0,1.021-0.671,1.28-1.041,1.28h-15.406
	c-0.36,0-1.021-0.26-1.021-1.28c0-1.061,0.66-1.28,1.021-1.28c3.742,0,5.902-0.98,5.902-3.382V7.644c0-2.406-2.16-3.377-5.902-3.377
	c-0.36,0-1.021-0.22-1.021-1.29c0-1.025,0.66-1.271,1.021-1.271h12.295c1.061,0,1.791-0.136,2.751,1.271
	C292.52,4.396,318.661,49.285,318.661,49.285"/>
<path fill="#231F20" d="M221.431,67.152c0.37,0,1.021-0.25,1.021-1.28c0-1.07-0.65-1.28-1.021-1.28c-3.741,0-5.902-0.98-5.902-3.382
	V7.639c0-2.406,2.161-3.377,5.902-3.377c0.37,0,1.021-0.205,1.021-1.28c0-1.025-0.65-1.28-1.021-1.28h-21.909
	c-0.37,0-1.03,0.255-1.03,1.28c0,1.075,0.66,1.28,1.03,1.28c3.731,0,5.883,0.971,5.883,3.377V61.21c0,2.401-2.151,3.382-5.883,3.382
	c-0.37,0-1.03,0.21-1.03,1.28c0,1.03,0.66,1.28,1.03,1.28H221.431z"/>
<path fill="#231F20" d="M173.391,55.918V7.648c0-2.411,2.171-3.392,5.903-3.392c0.359,0,1.03-0.205,1.03-1.28
	c0-1.025-0.671-1.271-1.03-1.271h-21.92c-0.37,0-1.02,0.245-1.02,1.271c0,1.075,0.649,1.28,1.02,1.28
	c3.742,0,5.903,0.98,5.903,3.392V61.21c0,2.401-2.161,3.382-5.903,3.382c-0.37,0-1.02,0.22-1.02,1.28
	c0,1.021,0.649,1.271,1.02,1.271h37.506c0.36,0,1.011-0.25,1.011-1.271V51.406c0-1.541-1.861-1.541-1.861,0
	s-1.86,13.405-13.735,13.405C174.802,64.812,173.391,62.511,173.391,55.918"/>
<path fill="#231F20" d="M151.012,67.152c0.37,0,1.03-0.25,1.03-1.28c0-1.07-0.66-1.28-1.03-1.28c-3.731,0-5.893-0.98-5.893-3.382
	V7.639c0-2.406,2.161-3.377,5.893-3.377c0.37,0,1.03-0.205,1.03-1.28c0-1.025-0.66-1.28-1.03-1.28h-21.909
	c-0.37,0-1.021,0.255-1.021,1.28c0,1.075,0.65,1.28,1.021,1.28c3.742,0,5.902,0.971,5.902,3.377V61.21
	c0,2.401-2.16,3.382-5.902,3.382c-0.37,0-1.021,0.21-1.021,1.28c0,1.03,0.65,1.28,1.021,1.28H151.012z"/>
<path fill="#231F20" d="M110.525,63.501l17.337-55.862c0.721-2.581,1.471-3.382,5.202-3.382c0.38,0,1.03-0.2,1.03-1.28
	c0-1.021-0.65-1.28-1.03-1.28h-15.847c-0.38,0-1.04,0.26-1.04,1.28c0,1.08,0.66,1.28,1.04,1.28c3.722,0,5.893,0.985,5.893,3.382
	l-12.145,41.127L98.521,7.639c0-2.396,1.09-3.382,4.832-3.382c0.36,0,1.03-0.2,1.03-1.28c0-1.021-0.67-1.28-1.03-1.28H81.443
	c-0.37,0-1.03,0.26-1.03,1.28c0,1.08,0.66,1.28,1.03,1.28c3.731,0,5.482,0.926,6.303,3.382l16.637,55.862
	C105.733,67.192,107.564,72.475,110.525,63.501"/>
<path fill="#231F20" d="M370.481,21.169c0,1.806-0.64,2.571-2.051,2.571c-2.44,0-2.19-3.347-5.782-12.21
	c-2.32-5.652-4.762-8.358-10.664-8.358c-6.703,0-11.185,5.276-11.185,13.245c0,7.578,2.821,9.249,15.666,18.633
	c9.914,7.203,18.258,13.625,18.258,25.46c0,12.325-9.244,24.67-27.501,24.67c-6.423,0-17.478-2.561-17.478-7.322
	c0-19.288,0.771-20.179,2.941-20.179c2.831,0,1.431,2.831,5.021,12.075c3.092,7.854,7.464,11.824,14.146,11.824
	c7.713,0,13.365-5.782,13.365-14.266c0-22.744-34.454-19.918-34.454-46.144c0-10.149,8.613-20.568,22.379-20.568
	c9.234,0,15.807,1.801,16.697,3.091c0.64,0.891,0.64,2.051,0.64,3.731V21.169z"/>
<path fill="#231F20" d="M96.609,64.632c-3.741,0-5.472-0.921-6.303-3.382L73.67,5.388c-1.351-3.687-3.191-8.974-6.143,0L50.19,61.25
	c-0.73,2.592-1.471,3.382-5.202,3.382c-0.38,0-1.03,0.22-1.03,1.29c0,1.021,0.65,1.271,1.03,1.271h15.847
	c0.37,0,1.03-0.25,1.03-1.271c0-1.07-0.66-1.29-1.03-1.29c-3.741,0-5.902-0.98-5.902-3.382l4.912-16.606h14.656l5.021,16.606
	c0,2.401-1.09,3.382-4.822,3.382c-0.37,0-1.03,0.22-1.03,1.29c0,1.021,0.66,1.271,1.03,1.271h21.909c0.37,0,1.021-0.25,1.021-1.271
	C97.63,64.852,96.979,64.632,96.609,64.632 M60.825,41.322l6.263-21.193L73.5,41.322H60.825z"/>
<path fill="#231F20" d="M53.042,23.234c0,12.721-7.844,23.14-20.688,23.14c-5.223,0-9.504-0.625-11.965-1.626v32.688
	c0,2.401,4.852,3.382,8.583,3.382c0.37,0,1.03,0.2,1.03,1.28c0,1.021-0.66,1.28-1.03,1.28H1.021c-0.36,0-1.021-0.26-1.021-1.28
	c0-1.08,0.66-1.28,1.021-1.28c3.741,0,7.003-0.98,7.003-3.382V6.383c0-2.406-3.262-3.392-7.003-3.392C0.66,2.991,0,2.786,0,1.721
	c0-1.035,0.66-1.29,1.021-1.29h27.951C40.616,0.431,53.042,10.119,53.042,23.234 M20.648,38.991c0,3.111,1.591,3.812,5.442,3.812
	c7.953,0,14.186-8.394,14.186-20.514c0-12.515-6.103-19.183-12.064-19.183c-5.833,0-7.563,1.871-7.563,5.332V38.991z"/>
<path fill="#231F20" d="M374.794,80.908c0-2.351,1.9-4.252,4.281-4.252c2.352,0,4.252,1.901,4.252,4.252
	c0,2.371-1.9,4.282-4.252,4.282C376.694,85.19,374.794,83.279,374.794,80.908 M382.827,80.908c0-2.07-1.691-3.731-3.752-3.731
	c-2.081,0-3.762,1.661-3.762,3.731c0,2.091,1.681,3.771,3.762,3.771C381.136,84.68,382.827,82.999,382.827,80.908 M381.196,83.31
	h-0.69l-1.37-2.211h-1.07v2.211h-0.581v-4.772h2.081c0.4,0,0.801,0.021,1.171,0.23c0.34,0.19,0.53,0.63,0.53,1.03
	c0,0.94-0.671,1.28-1.521,1.301L381.196,83.31z M378.955,80.639c0.681,0,1.711,0.119,1.711-0.86c0-0.73-0.65-0.82-1.24-0.82h-1.36
	v1.681H378.955z"/>
</svg>
