<?xml version="1.0" encoding="UTF-8" ?>
<!DOCTYPE svg PUBLIC "-//W3C//DTD SVG 1.1//EN" "http://www.w3.org/Graphics/SVG/1.1/DTD/svg11.dtd">
<svg width="624pt" height="90pt" viewBox="0 0 5768 833" version="1.1" xmlns="http://www.w3.org/2000/svg">
<g id="#ffffffff">
<path fill="#ffffff" opacity="1.00" d=" M 0.00 0.00 L 2.93 0.00 C 2.93 98.66 2.93 197.33 2.93 295.99 C 3.02 328.65 2.72 361.31 3.15 393.97 C 3.20 540.31 3.01 686.66 3.32 833.00 L 0.00 833.00 L 0.00 0.00 Z" />
</g>
<g id="#de2d39ff">
<path fill="#de2d39" opacity="1.00" d=" M 2.93 0.00 L 5768.00 0.00 L 5768.00 833.00 L 3.32 833.00 C 3.01 686.66 3.20 540.31 3.15 393.97 C 2.72 361.31 3.02 328.65 2.93 295.99 C 2.93 197.33 2.93 98.66 2.93 0.00 M 54.70 51.41 C 55.06 72.60 54.65 93.80 54.94 114.99 C 54.80 231.00 55.20 346.98 55.14 462.99 C 55.03 513.31 55.41 563.63 55.30 613.95 C 55.37 669.71 55.12 725.48 55.50 781.24 C 82.34 781.11 109.18 781.14 136.02 781.27 C 395.67 781.26 655.32 781.27 914.98 781.27 C 1588.97 781.31 2262.96 781.16 2936.94 781.36 C 3386.32 781.36 3835.69 781.36 4285.07 781.36 C 4690.72 781.42 5096.38 781.22 5502.03 781.49 C 5574.54 781.52 5647.06 781.43 5719.57 781.53 C 5719.80 729.37 5719.46 677.20 5719.52 625.03 C 5719.50 563.69 5719.61 502.34 5719.38 441.00 C 5719.46 311.19 5719.15 181.38 5719.34 51.57 C 5670.54 51.44 5621.74 51.55 5572.94 51.51 C 5481.59 51.60 5390.25 51.37 5298.90 51.40 C 4859.95 51.40 4420.99 51.40 3982.04 51.40 C 3531.36 51.36 3080.68 51.50 2630.00 51.30 C 1953.99 51.30 1277.99 51.30 601.98 51.30 C 421.67 51.26 241.35 51.43 61.04 51.13 C 58.92 51.10 56.81 51.20 54.70 51.41 Z" />
<path fill="#de2d39" opacity="1.00" d=" M 3496.52 195.70 C 3544.46 192.56 3593.66 196.21 3639.00 213.03 C 3676.98 227.20 3711.81 251.28 3736.11 283.97 C 3761.00 317.27 3773.09 358.79 3774.92 399.99 C 3777.34 442.93 3771.16 487.44 3750.63 525.71 C 3732.57 559.84 3703.15 587.14 3669.43 605.50 C 3627.52 628.33 3579.24 636.78 3531.93 637.19 C 3485.33 637.57 3437.76 630.83 3395.36 610.67 C 3361.26 594.44 3330.94 569.41 3310.64 537.38 C 3287.63 501.52 3278.91 458.17 3279.46 416.01 C 3279.60 387.71 3283.08 359.16 3292.53 332.38 C 3303.52 300.50 3324.39 272.69 3349.72 250.72 C 3365.42 237.04 3383.13 225.63 3402.20 217.21 C 3432.02 204.41 3464.26 198.11 3496.52 195.70 M 3516.09 269.22 C 3500.05 270.05 3484.05 272.98 3468.97 278.53 C 3451.69 284.79 3435.79 294.84 3422.76 307.80 C 3409.80 320.57 3400.61 336.82 3394.93 354.02 C 3387.85 375.56 3385.75 398.43 3386.22 421.00 C 3386.65 444.62 3390.56 468.55 3400.58 490.10 C 3407.23 504.28 3416.61 517.20 3428.41 527.54 C 3445.86 543.61 3467.90 554.13 3490.94 559.29 C 3514.62 564.13 3539.30 564.27 3563.04 559.68 C 3597.23 552.89 3629.53 532.88 3647.81 502.79 C 3661.86 479.79 3667.15 452.62 3668.49 426.01 C 3669.31 403.37 3667.89 380.42 3661.66 358.55 C 3656.44 340.19 3647.45 322.64 3634.10 308.85 C 3620.34 294.60 3603.03 283.96 3584.33 277.51 C 3562.45 270.11 3539.06 267.91 3516.09 269.22 Z" />
<path fill="#de2d39" opacity="1.00" d=" M 2111.07 212.31 C 2153.46 196.92 2199.38 195.02 2244.00 197.48 C 2277.08 199.74 2310.61 205.49 2340.49 220.47 C 2366.04 233.62 2388.47 254.38 2400.03 281.03 C 2406.09 295.06 2409.51 310.30 2409.74 325.60 C 2377.21 325.63 2344.68 325.67 2312.16 325.74 C 2309.51 312.35 2301.58 300.41 2291.17 291.74 C 2282.74 284.69 2273.51 278.22 2263.01 274.69 C 2248.89 269.81 2233.86 268.25 2219.01 267.76 C 2194.76 267.43 2169.51 269.37 2147.53 280.48 C 2139.30 284.48 2131.89 290.61 2127.57 298.78 C 2120.53 311.52 2125.47 328.60 2136.72 337.24 C 2154.80 350.08 2176.56 356.10 2198.09 360.09 C 2231.40 366.17 2265.10 370.20 2298.03 378.23 C 2326.37 384.74 2354.94 393.75 2378.50 411.39 C 2391.17 421.00 2402.53 432.69 2410.41 446.59 C 2416.45 457.25 2420.54 468.99 2422.48 481.09 C 2425.19 497.61 2425.22 514.76 2420.94 531.03 C 2414.94 553.57 2401.56 573.77 2384.43 589.42 C 2362.22 609.27 2333.84 620.82 2305.02 627.11 C 2272.89 634.17 2239.85 635.84 2207.05 635.20 C 2169.25 634.01 2130.75 628.89 2096.13 612.87 C 2077.61 604.30 2060.45 592.29 2047.30 576.58 C 2025.45 551.06 2013.59 518.29 2009.06 485.32 C 2042.04 485.24 2075.04 485.20 2108.03 485.34 C 2110.38 493.28 2112.19 501.51 2116.11 508.91 C 2123.67 525.30 2137.00 538.54 2152.42 547.67 C 2168.12 556.71 2186.16 560.89 2204.08 562.40 C 2223.41 563.51 2242.94 563.14 2262.05 559.74 C 2276.85 557.04 2291.85 552.43 2303.61 542.67 C 2314.86 533.88 2323.82 520.73 2323.81 506.02 C 2324.07 494.34 2316.20 484.49 2307.97 477.06 C 2296.72 468.00 2282.67 463.43 2268.96 459.59 C 2238.25 451.80 2207.11 445.81 2176.15 439.12 C 2154.66 434.09 2133.27 428.37 2112.69 420.33 C 2098.69 414.79 2084.96 408.16 2072.98 398.95 C 2059.21 388.41 2047.00 375.47 2038.90 360.03 C 2027.93 339.58 2025.23 315.00 2030.71 292.51 C 2034.88 275.93 2043.88 260.87 2055.18 248.16 C 2070.29 231.59 2090.18 220.04 2111.07 212.31 Z" />
<path fill="#de2d39" opacity="1.00" d=" M 2634.36 206.20 C 2658.89 205.60 2683.44 206.09 2707.98 205.93 C 2713.87 205.92 2719.76 205.89 2725.67 206.14 C 2725.63 234.41 2725.88 262.68 2726.16 290.94 C 2726.48 317.53 2726.29 344.14 2726.73 370.72 C 2730.08 371.50 2733.56 371.05 2736.99 371.15 C 2818.14 371.22 2899.29 371.01 2980.44 371.25 C 2980.82 316.18 2980.34 261.08 2980.34 206.00 C 3010.96 205.89 3041.59 205.85 3072.22 206.02 C 3072.26 345.97 3072.30 485.91 3072.20 625.86 C 3045.82 625.86 3019.43 625.86 2993.05 625.86 C 2988.88 625.80 2984.72 626.04 2980.59 625.62 C 2980.85 564.50 2980.62 503.37 2980.71 442.25 C 2896.39 442.05 2812.08 442.21 2727.77 442.17 C 2727.83 503.40 2728.41 564.62 2728.31 625.84 C 2697.00 625.77 2665.68 626.06 2634.37 625.70 C 2634.62 510.78 2634.41 395.86 2634.48 280.93 C 2634.40 256.02 2634.64 231.10 2634.36 206.20 Z" />
<path fill="#de2d39" opacity="1.00" d=" M 3984.65 207.50 C 4043.42 207.22 4102.20 207.46 4160.97 207.38 C 4187.35 207.57 4213.76 207.76 4240.10 209.48 C 4259.44 210.60 4278.98 212.71 4297.23 219.64 C 4316.69 226.70 4334.60 238.14 4349.00 253.03 C 4362.43 266.45 4371.91 283.68 4376.39 302.11 C 4381.52 323.63 4381.64 346.37 4376.81 367.96 C 4373.20 384.34 4365.12 399.50 4354.33 412.26 C 4341.32 428.19 4324.15 440.30 4305.42 448.57 C 4288.35 456.68 4269.82 461.41 4251.06 463.28 C 4225.14 466.21 4199.04 466.75 4172.98 467.29 C 4141.16 467.36 4109.34 467.20 4077.53 467.37 C 4077.75 519.74 4077.60 572.11 4077.60 624.47 C 4046.63 624.44 4015.66 624.57 3984.69 624.41 C 3984.68 485.44 3984.76 346.47 3984.65 207.50 M 4077.60 272.61 C 4077.64 313.81 4077.71 355.01 4077.72 396.22 C 4098.80 396.36 4119.89 396.50 4140.99 396.60 C 4165.67 396.81 4190.40 396.75 4215.02 394.66 C 4230.17 393.55 4245.59 391.40 4259.45 384.79 C 4273.51 378.20 4286.42 367.26 4291.92 352.38 C 4292.35 352.22 4293.20 351.92 4293.63 351.77 C 4292.99 350.99 4292.78 350.13 4293.00 349.20 C 4296.61 335.47 4295.15 319.98 4287.08 308.04 C 4280.29 297.88 4269.99 290.48 4259.01 285.41 C 4238.40 275.70 4215.15 275.73 4192.88 274.61 C 4154.47 272.86 4116.03 273.02 4077.60 272.61 Z" />
<path fill="#de2d39" opacity="1.00" d=" M 4590.20 207.41 C 4648.16 207.35 4706.13 207.40 4764.09 207.38 C 4788.40 207.52 4812.73 207.69 4837.03 208.99 C 4857.13 210.09 4877.53 211.32 4896.82 217.63 C 4915.94 223.73 4933.77 233.88 4948.59 247.45 C 4961.54 259.09 4972.07 273.63 4978.02 290.07 C 4985.13 309.09 4986.71 329.78 4985.09 349.91 C 4983.73 364.10 4980.39 378.22 4973.91 390.98 C 4966.01 406.18 4954.69 419.56 4941.40 430.33 C 4926.13 442.22 4908.42 450.76 4890.03 456.61 C 4871.65 462.55 4852.26 463.78 4833.15 465.34 C 4783.23 468.45 4733.18 466.94 4683.19 467.30 C 4682.60 493.49 4683.13 519.72 4682.94 545.92 C 4683.00 572.09 4682.93 598.25 4682.92 624.42 C 4651.99 624.48 4621.06 624.58 4590.15 624.37 C 4590.17 485.38 4590.06 346.39 4590.20 207.41 M 4683.09 272.54 C 4682.62 313.77 4683.30 354.99 4683.19 396.22 C 4699.44 396.32 4715.71 396.50 4731.97 396.49 C 4759.98 396.79 4788.03 397.00 4815.99 395.11 C 4829.52 393.90 4843.29 392.91 4856.20 388.30 C 4870.04 383.33 4883.40 375.26 4891.80 362.89 C 4904.28 345.12 4902.96 318.89 4888.38 302.70 C 4877.66 290.64 4862.56 283.12 4847.02 279.42 C 4833.97 276.16 4820.46 275.76 4807.10 275.02 C 4765.80 272.80 4724.43 273.15 4683.09 272.54 Z" />
<path fill="#de2d39" opacity="1.00" d=" M 5195.31 207.44 C 5317.80 207.28 5440.29 207.46 5562.77 207.35 C 5563.20 228.22 5562.75 249.11 5562.99 269.99 C 5563.07 272.64 5563.02 275.30 5562.84 277.95 C 5478.23 277.90 5393.63 277.95 5309.03 277.93 C 5303.77 277.99 5298.52 277.75 5293.32 278.16 C 5293.38 308.92 5293.12 339.67 5293.45 370.42 C 5374.16 370.12 5454.89 370.40 5535.61 370.28 C 5535.68 393.76 5535.64 417.24 5535.62 440.73 C 5454.91 440.63 5374.19 440.85 5293.47 440.62 C 5293.11 478.33 5293.35 516.06 5293.36 553.78 C 5380.55 553.92 5467.75 553.79 5554.95 553.85 C 5557.43 553.87 5559.95 553.83 5562.53 553.66 C 5563.61 556.65 5562.83 559.89 5562.96 563.01 C 5562.90 583.48 5562.97 603.95 5562.92 624.42 C 5440.41 624.59 5317.90 624.38 5195.39 624.52 C 5195.18 485.50 5195.33 346.47 5195.31 207.44 Z" />
<path fill="#de2d39" opacity="1.00" d=" M 816.08 208.70 C 938.65 208.58 1061.23 208.16 1183.80 208.08 C 1183.71 231.73 1183.80 255.37 1183.76 279.02 C 1127.17 279.22 1070.57 279.05 1013.98 279.30 C 980.71 279.34 947.44 279.19 914.18 279.41 C 913.95 310.14 914.09 340.88 914.12 371.61 C 994.87 371.59 1075.62 371.56 1156.38 371.63 C 1156.49 394.98 1156.29 418.34 1156.48 441.70 C 1150.75 442.77 1144.83 441.87 1139.03 442.16 C 1064.03 442.21 989.03 442.07 914.03 442.23 C 914.18 479.91 913.93 517.59 914.17 555.27 C 1004.04 555.33 1093.91 555.27 1183.79 555.30 C 1183.70 578.77 1183.86 602.25 1183.70 625.73 C 1061.16 625.70 938.62 625.67 816.07 625.74 C 815.84 532.52 816.04 439.29 815.97 346.06 C 816.04 300.27 815.83 254.48 816.08 208.70 Z" />
<path fill="#de2d39" opacity="1.00" d=" M 210.78 208.66 C 265.55 208.76 320.32 208.68 375.08 208.70 C 397.74 208.54 420.40 209.07 443.05 209.66 C 459.40 210.39 475.80 210.98 492.03 213.28 C 527.54 217.86 561.57 235.93 583.76 264.27 C 597.42 281.83 604.67 303.82 606.00 325.91 C 607.69 349.30 604.62 373.63 593.56 394.57 C 587.26 405.78 579.24 416.02 569.92 424.88 C 553.89 440.03 533.82 450.28 513.04 457.22 C 495.38 463.35 476.61 464.82 458.12 466.39 C 433.77 468.06 409.36 468.67 384.95 468.62 C 357.91 468.63 330.86 468.59 303.81 468.64 C 303.69 521.04 303.83 573.44 303.74 625.84 C 275.48 625.89 247.22 625.84 218.95 625.86 C 216.19 625.90 213.41 625.93 210.66 625.58 C 211.02 576.38 210.71 527.17 210.82 477.97 C 210.79 388.20 210.87 298.43 210.78 208.66 M 303.78 274.08 C 303.73 299.72 303.78 325.35 303.86 350.99 C 304.04 366.52 303.51 382.07 304.13 397.58 C 349.40 397.29 394.73 399.46 439.93 396.18 C 451.37 394.92 463.00 394.14 474.02 390.58 C 490.60 385.45 506.60 375.49 515.20 359.99 C 521.05 349.74 522.06 337.39 520.03 325.94 C 517.75 313.74 510.08 303.08 500.23 295.76 C 485.08 283.99 465.83 279.02 447.00 277.54 C 399.34 274.12 351.53 274.39 303.78 274.08 Z" />
<path fill="#de2d39" opacity="1.00" d=" M 1393.39 209.39 C 1429.73 209.42 1466.06 209.26 1502.39 209.47 C 1551.11 271.43 1600.32 333.02 1649.19 394.87 C 1682.98 437.33 1716.57 479.95 1750.35 522.42 C 1750.55 493.28 1749.65 464.14 1749.60 434.99 C 1748.94 359.78 1747.94 284.58 1747.35 209.36 C 1776.49 209.39 1805.63 209.37 1834.77 209.38 C 1834.91 339.92 1834.79 470.46 1834.83 600.99 C 1834.65 609.14 1835.20 617.31 1834.53 625.44 C 1797.30 625.17 1760.06 625.41 1722.82 625.32 C 1643.85 523.91 1565.01 422.40 1486.12 320.93 C 1485.36 319.56 1482.44 316.30 1482.83 319.96 C 1482.79 421.72 1482.91 523.49 1482.77 625.26 C 1453.01 625.46 1423.25 625.20 1393.49 625.39 C 1393.25 486.72 1393.43 348.05 1393.39 209.39 Z" />
</g>
</svg>
