<?xml version="1.0" encoding="utf-8"?>
<!-- Generator: Adobe Illustrator 24.2.1, SVG Export Plug-In . SVG Version: 6.00 Build 0)  -->
<svg version="1.1" id="Ebene_1" xmlns="http://www.w3.org/2000/svg" xmlns:xlink="http://www.w3.org/1999/xlink" x="0px" y="0px"
	 viewBox="0 0 283.5 31.2" style="enable-background:new 0 0 283.5 31.2;" xml:space="preserve">
<polygon points="95,17.7 112.4,17.7 112.4,12.5 95,12.5 95,6.1 113.7,6.1 113.7,0.8 88.9,0.8 88.9,30 114.1,30 114.1,24.8 95,24.8 
	"/>
<polygon points="36.1,17.7 53.5,17.7 53.5,12.5 36.1,12.5 36.1,6.1 54.8,6.1 54.8,0.8 30.1,0.8 30.1,30 55.2,30 55.2,24.8 
	36.1,24.8 "/>
<g>
	<defs>
		<rect id="SVGID_1_" y="0" width="283.5" height="31.2"/>
	</defs>
	<clipPath id="SVGID_2_">
		<use xlink:href="#SVGID_1_"  style="overflow:visible;"/>
	</clipPath>
	<path style="clip-path:url(#SVGID_2_);" d="M277.5,0.8v18L255.9,0.7c-0.2-0.2-0.6,0-0.6,0.3V30h5.9V12.6l21.6,18.1
		c0.2,0.2,0.6,0,0.6-0.3V0.8H277.5z"/>
	<path style="clip-path:url(#SVGID_2_);" d="M15.8,0.8H0V30h6.1v-9.6h9.7c6.8,0,11.3-3.9,11.3-9.8C27,4.7,22.5,0.8,15.8,0.8
		 M15.5,15.2H6.1V6.1h9.4c3.1,0,5.2,1.8,5.2,4.6C20.7,13.3,18.6,15.2,15.5,15.2"/>
	<polygon style="clip-path:url(#SVGID_2_);" points="58,6.1 68.8,6.1 68.8,30 74.9,30 74.9,6.1 85.7,6.1 85.7,0.8 58,0.8 	"/>
	<polygon style="clip-path:url(#SVGID_2_);" points="244.6,12.5 228.9,12.5 228.9,0.8 222.8,0.8 222.8,30 228.9,30 228.9,17.7 
		244.6,17.7 244.6,30 250.7,30 250.7,0.8 244.6,0.8 	"/>
	<polygon style="clip-path:url(#SVGID_2_);" points="180.5,12.5 164.8,12.5 164.8,0.8 158.7,0.8 158.7,30 164.8,30 164.8,17.7 
		180.5,17.7 180.5,30 186.6,30 186.6,0.8 180.5,0.8 	"/>
	<path style="clip-path:url(#SVGID_2_);" d="M138.3,18.4c3.4-1.5,5.4-4.5,5.4-8.3c0-5.6-4.2-9.3-10.6-9.3h-15.9V30h6.1V19.5h9.1
		L138,30h6.1c0.4,0,0.6-0.4,0.4-0.7L138.3,18.4z M132.7,14.3h-9.5V6.1h9.5c2.7,0,4.6,1.7,4.6,4.1S135.5,14.3,132.7,14.3"/>
	<path style="clip-path:url(#SVGID_2_);" d="M221.1,29.5L205.1,0.2c-0.2-0.3-0.6-0.3-0.8,0l-15.9,29.3c-0.1,0.2,0,0.5,0.3,0.5h6.2
		l2.7-5.1h14.4l2.7,5.1h6.2C221,30,221.2,29.7,221.1,29.5 M200.1,19.7l4.6-9.1l4.6,9.1H200.1z"/>
</g>
</svg>
