<svg version="1.1" id="Ebene_1" xmlns="http://www.w3.org/2000/svg" xmlns:xlink="http://www.w3.org/1999/xlink" x="0px" y="0px" style="enable-background:new 0 0 42.5 14.2;" xml:space="preserve" viewBox="3.08 3.77 36.12 5.52">
<style type="text/css">
	.st0{clip-path:url(#SVGID_2_);}
	.st1{clip-path:url(#SVGID_4_);}
</style><style class="darkreader darkreader--sync" media="screen"/>
<g>
	<g>
		<defs>
			<rect id="SVGID_1_" x="3.1" y="3.9" width="36.3" height="5.4"/>
		</defs>
		<clipPath id="SVGID_2_">
			<use xlink:href="#SVGID_1_" style="overflow:visible;"/>
		</clipPath>
		<g class="st0">
			<defs>
				<rect id="SVGID_3_" x="3.1" y="3.9" width="36.3" height="5.4"/>
			</defs>
			<clipPath id="SVGID_4_">
				<use xlink:href="#SVGID_3_" style="overflow:visible;"/>
			</clipPath>
			<path class="st1" d="M8.3,5.6c0,0.3,0.2,0.3,0.5,0.3c0.9,0,2.5-0.9,2.5-1.4c0-0.4-0.8-0.7-2.4-0.7c-3.2,0-5.8,1.2-5.8,1.8     C3.1,6,4.2,6.3,6,6.4C5.4,7.3,4.5,8.3,3.8,8.7C3.9,8.9,4,8.9,4.2,8.9c0.7,0,1.8-1.3,2.7-2.4c1.4,0.1,3.1,0.2,4.9,0.2     c-0.3,0.3-0.6,0.7-0.8,0.9c-0.2,0.2-1.6,1.1-2.8,1.1c-0.4,0-0.5-0.1-0.5-0.3c0-0.4,0.9-1,1.3-1c0.1,0,0.2,0.1,0.2,0.1     c0,0.3-0.8,0.6-1.2,0.6c0,0.1,0.1,0.2,0.3,0.2c0.6,0,1.4-0.4,1.4-0.9c0-0.2-0.2-0.4-0.6-0.4c-1.1,0-2.3,0.7-2.3,1.4     c0,0.3,0.2,0.6,1.1,0.6c1.2,0,2.3-0.5,2.8-0.8C10.4,8.8,10.7,9,11.2,9c0.5,0,1.1-0.2,1.5-0.4C12.8,8.9,13.1,9,13.7,9     c1.4,0,2.8-0.9,3.4-1.1c-0.1,0.3-0.5,0.9-0.6,1C16.6,9,16.7,9,16.8,9c0.6,0,0.6-0.6,1.4-1.1c0.3-0.2,0.7-0.4,1.2-0.4     c0.3,0,0.6,0.1,0.7,0.3c0.2-0.3,0-0.8-0.6-0.8c-0.7,0-1.4,0.5-1.7,0.8C17.9,7.7,18,7.5,18,7.4c0-0.1-0.1-0.2-0.3-0.2     c-0.3,0-0.7,0.3-1.3,0.6c-0.7,0.3-1.7,0.8-2.4,0.8c-0.3,0-0.4-0.1-0.4-0.3c0-0.5,0.8-1,1.2-1c0.1,0,0.2,0,0.2,0.1     c0,0.2-0.7,0.6-1.1,0.7c0,0.1,0.1,0.2,0.3,0.2c0.5,0,1.5-0.4,1.5-0.9c0-0.3-0.4-0.3-0.6-0.3c-1.1,0-2.1,0.7-2.3,1.3     c-0.3,0.1-0.7,0.2-1,0.2c-0.2,0-0.3,0-0.3-0.2c0-0.4,0.7-1,1.2-1.7c1,0,2.1,0,3.1,0c2.4,0,4.8,0,6.7-0.1c-0.5,0.8-1,1.5-1.5,2.1     c0.7,0.6,1.7-1,2.4-2.1c0.6,0,1.1-0.1,1.6-0.1c-0.5,0.9-1.2,2-1.8,2.7c0.9,0.5,2-1.5,2.6-2.7l0.1-0.1c1.1-0.1,1.8-0.3,1.8-0.6     c-0.3,0-0.9,0.1-1.6,0.2c0.1-0.3,0.3-0.7,0.3-0.8c0-0.3-0.5-0.4-0.8-0.3c0,0.3-0.2,0.7-0.4,1.2c-0.5,0-1,0.1-1.6,0.1     c0.2-0.4,0.5-1.1,0.5-1.4c0-0.4-0.5-0.4-0.8-0.3c0,0.3-0.3,1-0.7,1.7c-2.7,0.1-6,0.2-9,0.2c-0.3,0-0.6,0-0.8,0     c0.3-0.6,0.2-0.8-0.6-0.6c0,0.2-0.1,0.4-0.3,0.6c-1.9,0-3.6-0.1-4.9-0.2c0.3-0.4,0.4-0.7,0.4-0.9C7.6,4.9,7,4.9,6.8,5     c0,0.2-0.2,0.6-0.5,1.1C4.8,5.9,4.1,5.7,4.1,5.5c0-0.4,2.1-1.2,4.3-1.2c0.9,0,1.6,0.1,1.6,0.5C10.1,5.2,8.9,5.7,8.3,5.6      M26.8,8.4c-0.2,0-0.2,0-0.2-0.2c0-0.6,1.5-1.1,1.9-1.1c0-0.1,0-0.3-0.4-0.3c-0.9,0-2.5,0.9-2.5,1.6c0,0.3,0.3,0.4,0.6,0.4     c0.7,0,1.4-0.4,1.7-0.6c-0.1,0.3-0.1,0.5,0.4,0.5c0.6,0,1.7-0.5,2.2-0.8c-0.1,0.2-0.3,0.5-0.3,0.6c0,0.1,0.1,0.2,0.2,0.2     c0.5,0,1.5-1.1,2.1-1.1c0.1,0,0.1,0,0.1,0.2c0,0.4-0.2,0.8,0.3,0.8c0.8,0,1.9-0.9,2.3-0.9c0,0,0.1,0,0.1,0.1     c0,0.1-0.2,0.4-0.2,0.6c0,0.1,0,0.2,0.2,0.2c0.2,0,0.5-0.1,1-0.4c0.3-0.2,0.7-0.5,1-0.5c0.2,0,0.2,0.1,0.2,0.6     c0,0.3,0.3,0.5,0.7,0.5c0.5,0,0.9-0.2,1-0.4c-0.7,0.1-1,0-1-0.6c0-0.1,0-0.4,0-0.5c0-0.2-0.1-0.3-0.3-0.3c-0.6,0-1.5,0.7-1.7,0.7     c0,0-0.1,0-0.1-0.1c0-0.1,0.1-0.4,0.1-0.6c0-0.2-0.1-0.2-0.2-0.2c-0.4,0-0.8,0.3-1.2,0.5c-0.5,0.3-1,0.5-1.2,0.5     c-0.3,0-0.2-0.3-0.2-0.7c0-0.3-0.1-0.4-0.3-0.4c-0.5,0-1.4,0.5-1.8,0.8c0.6-1,1.5-2.1,1.5-2.6c0-0.2-0.2-0.4-0.7-0.3     c-0.1,0.6-0.9,2-1.1,2.2c-0.1,0.2-0.4,0.4-0.8,0.6c-0.5,0.2-1.1,0.5-1.3,0.5c-0.1,0-0.2,0-0.2-0.1c0-0.2,0.3-0.7,0.6-1.1     c-0.6-0.4-0.8,0.2-1.2,0.6C28,8.1,27.3,8.4,26.8,8.4"/>
		</g>
	</g>
</g>
</svg>