<?xml version="1.0" encoding="UTF-8"?>
<!DOCTYPE svg PUBLIC "-//W3C//DTD SVG 1.1//EN" "http://www.w3.org/Graphics/SVG/1.1/DTD/svg11.dtd">
<!-- Creator: CorelDRAW -->
<svg xmlns="http://www.w3.org/2000/svg" xml:space="preserve" width="280.4mm" height="120.9mm" style="shape-rendering:geometricPrecision; text-rendering:geometricPrecision; image-rendering:optimizeQuality; fill-rule:evenodd; clip-rule:evenodd"
viewBox="0 0 280.4 120.9"
 xmlns:xlink="http://www.w3.org/1999/xlink">
 <defs>
  <style type="text/css">
   <![CDATA[
    .fil0 {fill:#DA251D}
    .fil2 {fill:#F8C300}
    .fil1 {fill:white}
   ]]>
  </style>
 </defs>
 <g id="Capa_x0020_1">
  <metadata id="CorelCorpID_0Corel-Layer"/>
  <g id="_108075544">
   <rect id="_107700584" class="fil0" x="-0.00111315" y="-0.0414964" width="280.38" height="120.934"/>
   <g>
    <path id="_108274320" class="fil1" d="M29.5821 49.4469l0 0c2.0828,0 3.8068,1.6729 3.9861,3.7877 2.4041,-2.3552 5.5769,-3.7877 9.0545,-3.7877 7.5058,0 13.5926,6.6707 13.5926,14.8962 0,8.2255 -6.0868,14.8962 -13.5926,14.8962 -3.47,0 -6.6364,-1.4268 -9.0387,-3.7729l0 14.7854c0,2.2837 -1.8008,4.1521 -4.0019,4.1521l0 0c-2.201,0 -4.0019,-1.8684 -4.0019,-4.1521l0 -36.6528c0,-2.2837 1.8009,-4.1521 4.0019,-4.1521zm11.4881 6.8442c-4.0196,0 -7.2792,3.5912 -7.2792,8.0195 0,4.4284 3.2596,8.0196 7.2792,8.0196 4.0197,0 7.2793,-3.5912 7.2793,-8.0196 0,-4.4283 -3.2596,-8.0195 -7.2793,-8.0195z"/>
    <rect id="_108075568" class="fil1" x="59.8032" y="34.1406" width="8.14174" height="45.1845" rx="4.2944" ry="4.2944"/>
    <path id="_108274368" class="fil1" d="M86.4338 49.3157c-6.67,-0.1342 -14.97,4.559 -15.453,15.1253 -0.483,10.5663 9.221,15.358 14.9363,14.8572 5.7153,-0.5008 8.3607,-3.925 8.3616,-4.2238 -0.0824,3.6256 2.4201,4.232 3.7123,4.232l0 0c3.2107,-0.2345 3.896,-2.025 3.896,-5.2446l0 -9.6208 0 -0.4672c0,-0.3468 -0.0257,-0.6861 -0.074,-1.0145 -0.0711,-9.0661 -8.7091,-13.5094 -15.3792,-13.6436zm0.0715 6.9754c-4.0766,0 -7.3828,3.5624 -7.3828,7.9551 0,4.3927 3.3062,7.9551 7.3828,7.9551 4.0766,0 7.3828,-3.5624 7.3828,-7.9551 0,-4.3927 -3.3062,-7.9551 -7.3828,-7.9551z"/>
    <path id="_107700536" class="fil1" d="M147.849 49.3335c-6.6701,-0.1342 -14.9701,4.559 -15.4531,15.1253 -0.483,10.5663 9.2211,15.358 14.9364,14.8572 5.7153,-0.5008 8.3606,-3.925 8.3615,-4.2238 -0.0824,3.6256 2.4201,4.232 3.7124,4.232l0 0c3.2107,-0.2345 3.8959,-2.025 3.8959,-5.2446l0 -9.6208 0 -0.4672c0,-0.3468 -0.0257,-0.6861 -0.074,-1.0145 -0.0711,-9.0661 -8.7091,-13.5094 -15.3791,-13.6436zm0.0714 6.9754c-4.0766,0 -7.3827,3.5624 -7.3827,7.9551 0,4.3927 3.3061,7.9551 7.3827,7.9551 4.0767,0 7.3828,-3.5624 7.3828,-7.9551 0,-4.3927 -3.3061,-7.9551 -7.3828,-7.9551z"/>
    <path id="_108273768" class="fil1" d="M238.587 49.159c-6.6701,-0.1342 -14.9701,4.559 -15.4531,15.1253 -0.483,10.5663 9.221,15.358 14.9363,14.8572 5.7153,-0.5008 8.3607,-3.925 8.3616,-4.2238 -0.0824,3.6256 2.4201,4.232 3.7123,4.232l0 0c3.2108,-0.2345 3.896,-2.025 3.896,-5.2446l0 -9.6208 0 -0.4672c0,-0.3468 -0.0257,-0.6861 -0.074,-1.0145 -0.0711,-9.0661 -8.7091,-13.5094 -15.3791,-13.6436zm0.0714 6.9754c-4.0766,0 -7.3827,3.5624 -7.3827,7.9551 0,4.3927 3.3061,7.9551 7.3827,7.9551 4.0767,0 7.3828,-3.5624 7.3828,-7.9551 0,-4.3927 -3.3061,-7.9551 -7.3828,-7.9551z"/>
    <path id="_108517968" class="fil1" d="M108.24 49.7153l19.5954 0c1.8216,0 3.3119,1.4493 3.3119,3.2208l0 0c0,0.8943 -0.574,1.8965 -1.4583,3.0316 -3.9155,5.0261 -10.9534,13.5963 -13.3516,16.597l11.6619 0c1.8126,0 3.2954,1.4019 3.2954,3.1155l0 0c0,1.7136 -1.4828,3.1155 -3.2954,3.1155l-19.3825 0c-1.8126,0 -3.2955,-1.4019 -3.2955,-3.1155l0 0c0,-0.6796 0.0714,-1.7016 0.8239,-2.5483 3.6972,-4.1604 11.4504,-13.9662 13.8244,-16.975l-11.7296 0c-1.8216,0 -3.3119,-1.4493 -3.3119,-3.2208l0 0c0,-1.7715 1.4903,-3.2208 3.3119,-3.2208z"/>
    <path id="_108640648" class="fil1" d="M199.041 66.8929l19.6328 -0.0715c1.4878,-0.0768 1.8894,-1.313 1.9524,-1.851 1.0127,-8.6404 -7.0371,-16.5412 -15.4211,-15.8573 -8.4659,0.6906 -14.4863,7.411 -14.4193,15.4137 0.1205,14.3925 17.9346,19.63 27.4271,10.0668 2.6564,-3.0333 -1.5921,-6.9818 -5.0901,-4.113 -4.9852,4.3617 -13.4301,2.6595 -14.0818,-3.5877zm0.0463 -5.4536l13.7433 0c-1.5774,-7.2756 -12.5511,-7.499 -13.7433,0z"/>
    <path id="_108074896" class="fil2" d="M163.302 49.9998c1.6495,-2.6034 6.1812,-3.8492 8.7948,-2.131 3.5184,2.0507 3.7484,8.9574 3.5864,19.2413 11.4181,-23.7214 38.1507,-51.5572 67.8844,-48.195 11.4691,1.5589 14.2445,5.69 7.9125,11.3864 -33.178,-12.3366 -60.8193,18.9442 -73.5783,47.181 -0.5843,0.7671 -0.8498,1.2257 -2.0043,1.2356l-8.1464 0.1186c0.047,-14.4523 0.0531,-26.5505 -4.4491,-28.8369z"/>
   </g>
  </g>
 </g>
</svg>
