<?xml version="1.0" encoding="utf-8"?>
<!-- Generator: Adobe Illustrator 24.0.3, SVG Export Plug-In . SVG Version: 6.00 Build 0)  -->
<svg version="1.1" id="RZ" xmlns="http://www.w3.org/2000/svg" xmlns:xlink="http://www.w3.org/1999/xlink" x="0px" y="0px"
	 viewBox="0 0 283.46457 121.88976" style="enable-background:new 0 0 283.46457 121.88976;" xml:space="preserve">
<style type="text/css">
	.st0{fill:#E2001A;}
</style>
<path class="st0" d="M269.57483,31.46454v5.00385c-5.33423-3.771-11.83527-5.99597-18.85004-5.99597
	c-18.05389,0-32.74054,14.68665-32.74054,32.74054c0,18.05316,14.68665,32.73981,32.74054,32.73981
	c7.01477,0,13.51581-2.22498,18.85004-5.99591v4.15338h13.88971V31.46454H269.57483z M250.72418,82.06287
	c-10.41077,0-18.8504-8.43958-18.8504-18.8504c0-10.41077,8.43964-18.85034,18.8504-18.85034s18.8504,8.43958,18.8504,18.85034
	C269.57458,73.62329,261.13495,82.06287,250.72418,82.06287z M216.56693,45.92126h-18.56696v48.18896h-13.88971V0h13.88971v31.46454
	h18.56696V45.92126z M176.59842,45.92126h-19.27557v48.18896h-13.88977V31.46454h33.16534V45.92126z M104.03197,44.36212
	c-10.39453,0-18.85107,8.45654-18.85107,18.85059c0,10.39453,8.45654,18.85058,18.85107,18.85058
	c10.39404,0,18.8501-8.45605,18.8501-18.85058C122.88206,52.81866,114.42601,44.36212,104.03197,44.36212z M104.03185,95.95276
	c-18.05389,0-32.74052-14.68662-32.74052-32.7398c0-18.05389,14.68662-32.74052,32.74052-32.74052
	c18.05247,0,32.7398,14.68663,32.7398,32.74052C136.77165,81.26614,122.08432,95.95276,104.03185,95.95276z M32.74054,30.47241
	c-7.01526,0-13.51648,2.22491-18.85077,5.99585v-5.00372H0v90.42523h13.88977v-31.9328
	c5.33429,3.77087,11.83551,5.99579,18.85077,5.99579c18.05243,0,32.73975-14.68665,32.73975-32.73981
	C65.48029,45.15906,50.79297,30.47241,32.74054,30.47241z M32.74017,82.06287c-10.41077,0-18.8504-8.43958-18.8504-18.8504
	c0-10.41077,8.43964-18.85034,18.8504-18.85034s18.8504,8.43958,18.8504,18.85034
	C51.59058,73.62329,43.15094,82.06287,32.74017,82.06287z"/>
</svg>
