<svg xmlns="http://www.w3.org/2000/svg" viewBox="0 0 533.95 171.62"><defs><style>.cls-1{fill:#fff;}.cls-2{fill:#00a442;}.cls-3{fill:#f10d1c;}</style></defs><title>PrycaRecurso 2</title><g id="Capa_2" data-name="Capa 2"><g id="Capa_1-2" data-name="Capa 1"><rect class="cls-1" x="181.16" y="-181.16" width="171.62" height="533.95" rx="32.81" ry="32.81" transform="translate(352.78 -181.16) rotate(90)"/><rect class="cls-2" x="192.5" y="-169.82" width="148.94" height="511.27" rx="21.47" ry="21.47" transform="translate(352.78 -181.16) rotate(90)"/><rect class="cls-1" x="209.51" y="-152.82" width="114.93" height="477.25" rx="16.46" ry="16.46" transform="translate(352.78 -181.16) rotate(90)"/><path class="cls-2" d="M57.85,37.76h46c24,0,36.53,12.22,36.53,35.24,0,21.43-10.21,32.08-30.49,32.08H92.37V133.7H57.85Zm40.7,42.29c5.61,0,8.49-2.73,8.49-8.06s-3-7.91-8.92-7.91h-5v16Z"/><path class="cls-2" d="M144.71,37.76h48c20.71,0,34.66,12.94,34.66,32.07,0,13.24-4.88,20.86-17.4,25.61l25.32,38.26H195.06l-15.82-30.92V133.7H144.71ZM183,80.19c6.9,0,10.36-2.59,10.36-7.91,0-5.47-3.6-8.2-10.65-8.2h-3V80.19Z"/><path class="cls-2" d="M371.53,131.12c-12.66,4.17-16.11,4.89-24.17,4.89-14.09,0-25.75-4.46-34.81-13.52-9.78-9.78-14.38-21.15-14.38-36.25,0-28.91,21.14-50.63,49.34-50.63a54.54,54.54,0,0,1,16.83,2.59l7.19,2.3v36c-7.92-7-12.66-9.35-19.13-9.35-10.79,0-18.85,8-18.85,18.56,0,10.78,7.77,18.41,18.7,18.41,6.91,0,10.79-1.73,19.28-8.2Z"/><path class="cls-2" d="M404.18,37.76h38.69L476.1,133.7H439.85l-3.31-12.37H410.79l-3.3,12.37h-36Zm26.61,60.7-6.9-26.9-7.63,26.9Z"/><polygon class="cls-3" points="283.83 37.76 280.69 37.76 270.72 55.03 283.83 77.74 287.77 84.56 314.79 37.76 283.83 37.76"/><polygon class="cls-2" points="249.65 37.76 247.26 37.76 216.8 37.76 247.26 90.52 247.26 133.86 272.29 133.86 280.38 133.86 280.38 90.98 263.45 61.65 249.65 37.76"/></g></g></svg>