<svg xmlns="http://www.w3.org/2000/svg" xmlns:xlink="http://www.w3.org/1999/xlink" width="1110.064" height="481.325" viewBox="0 0 832.548 360.994"><use xlink:href="#a" x="388.167" y="304.356" fill="#2a393f" transform="translate(-46.405 -113.48)"/><use xlink:href="#a" x="391.814" y="308.003" fill="#2a393f" transform="translate(-46.405 -113.48)"/><use xlink:href="#b" x="139.619" y="141.716" fill="#fff" transform="translate(-46.405 -113.48)"/><use xlink:href="#b" x="593.565" y="141.716" fill="#fff" transform="translate(-46.405 -113.48)"/><use xlink:href="#c" x="140.407" y="178.981" fill="#2a393f" transform="translate(-46.405 -113.48)"/><use xlink:href="#d" x="570.712" y="161.865" fill="#2a393f" transform="translate(-46.405 -113.48)"/><use xlink:href="#c" x="612.86" y="246.644" fill="#2e3e45" transform="translate(-46.405 -113.48)"/><use xlink:href="#c" x="618.663" y="246.644" fill="#2e3e45" transform="translate(-46.405 -113.48)"/><use xlink:href="#c" x="640.484" y="246.644" fill="#2e3e45" transform="translate(-46.405 -113.48)"/><path fill="#1a1918" fill-rule="evenodd" d="m115.184 101.973 9.661-48.633-66.303.169-39.303 216.414H87.77l24.523-115.432s17.67-54.165 61.267-42.358l12.633-64.239s-53.257-3.798-71.01 54.083c-17.752 57.964 0 0 0 0" style="fill:#ee142b;fill-opacity:1;stroke-width:21.1378"/><path fill="#1a1918" fill-rule="evenodd" d="M226.406 143.093c6.688-20.56 24.027-42.358 52.348-42.358 23.946 0 30.056 19.32 27.909 42.358zm99.578 68.285c-19.156 9.825-43.266 14.78-60.688 14.78-39.964 0-48.386-18.166-46.982-41.12h134.093c3.715-12.716 7.76-31.707 8.587-40.294 6.192-64.982-28.487-93.303-78.276-93.303-84.304 0-120.634 76.46-125.423 126.166-5.12 53.835 24.77 97.845 88.019 97.845 18.908 0 43.597-4.129 67.294-11.89zm0 0" style="fill:#ee142b;fill-opacity:1;stroke-width:21.1378"/><path fill="#1a1918" fill-rule="evenodd" d="M413.92 204.442c0-18.909 23.285-31.707 55.157-30.468 4.046 0 12.138 0 17.753 1.239-4.79 28.816-21.799 50.615-50.285 50.615-14.12 0-22.624-11.478-22.624-21.386m64.074 65.808h54.33c7.432-64.57 24.358-112.625 24.358-146.396 0-52.596-37.734-72.743-83.56-72.743-30.055 0-51.11 4.871-70.68 12.303l-6.605 53.835c22.129-12.716 38.395-16.844 62.505-16.844 21.798 0 35.505 12.385 35.505 27.578 0 2.89 0 5.78-.744 8.67-9.248-.827-22.624-2.066-35.918-2.066-58.79 0-106.184 25.845-106.102 78.524 0 41.45 22.955 62.01 64.404 62.01 25.845 0 50.698-10.239 64.652-34.927v-.827l.744.827zM542.316 270.085h67.294L659.812 0h-67.294zm0 0" style="fill:#ee142b;fill-opacity:1;stroke-width:21.1378"/><path fill="#1a1918" fill-rule="evenodd" d="M614.317 270.663h55.074l50.615-95.368h-65.89Zm0 0" style="fill:#0055a4;fill-opacity:1;stroke-width:21.1378"/><path fill="#1a1918" d="m679.382 169.102 11.477-54.33h141.689l-11.807 54.33zm0 0" style="fill:#0055a4;fill-opacity:1;stroke-width:21.1378"/><path fill="#1a1918" fill-rule="evenodd" d="M13.789 286.516h784.575l-13.789 74.478H0Zm0 0" style="fill:#0055a4;fill-opacity:1;stroke-width:21.1378"/><path d="M320.947 312.608c-4.128 0-6.936.659-9.66 1.733l-1.156 7.596c3.055-1.815 5.285-2.395 8.505-2.395 2.972 0 4.788 1.735 4.623 3.882l-.085 1.238-4.87-.247c-7.927 0-14.451 3.634-14.699 11.065-.17 5.945 2.808 8.834 8.423 8.834 3.468 0 6.854-1.485 8.918-4.954l-.494 4.212h7.35c1.32-9.165 3.88-15.937 4.045-20.726.247-7.431-4.707-10.238-10.9-10.238zm85.956.001c-11.56 0-15.936 10.816-16.184 17.835-.33 7.596 4.21 13.872 12.88 13.872 2.56 0 5.946-.578 9.166-1.734l1.403-7.35c-2.56 1.404-5.779 2.064-8.173 2.064-5.533 0-6.854-2.558-6.854-5.778h18.495l.827-5.699c.33-9.247-4.707-13.21-11.56-13.21zm-.166 6.935c3.303 0 4.377 2.725 4.212 6.028h-10.982c.66-2.89 2.89-6.028 6.77-6.028zm-87.427 10.393c.132.001.265.005.4.01l2.477.248c-.827 4.046-3.221 7.101-7.102 7.101 0 0-1.869-.026-2.454-.635-.57-.596-.518-2.42-.518-2.42.082-2.56 3.104-4.345 7.197-4.304zM212.123 312.61c-11.56 0-15.937 10.815-16.268 17.834-.247 7.596 4.294 13.872 12.964 13.872 2.56 0 5.946-.578 9.166-1.734l1.402-7.35c-2.56 1.404-5.78 2.064-8.174 2.064-5.532 0-6.854-2.558-6.854-5.778h18.496l.827-5.699c.33-9.247-4.706-13.21-11.56-13.21zm-.167 6.934c3.385 0 4.376 2.725 4.211 6.028h-11.064c.744-2.89 2.972-6.028 6.853-6.028zM162.495 312.524c-8.174 0-13.871 7.844-14.202 17.174-.33 8.01 2.973 13.79 9.909 13.79 3.468 0 6.44-1.9 8.505-5.285-1.569 7.844-3.798 10.652-9.99 10.487-2.725 0-5.038-.744-7.35-2.312l-1.98 8.092c2.724.992 5.532 1.899 9.908 1.899 10.569 0 14.284-3.468 16.926-15.276l4.541-20.642c.827-3.22 1.486-5.614 1.899-7.266h-8.174l-1.24 5.533c-1.485-4.376-4.871-6.194-8.752-6.194zm1.57 8.01c3.055 0 4.625 2.23 4.46 5.45-.085 3.963-2.312 9.496-6.771 9.496-2.725 0-4.46-2.477-4.377-5.615.169-4.21 2.312-9.33 6.688-9.33zM93.057 312.526c-11.394 0-15.688 10.734-15.936 17.834-.247 7.597 4.128 13.872 12.633 13.872 2.56 0 5.863-.66 8.918-1.734l1.402-7.431c-2.477 1.486-5.697 2.146-8.009 2.146-5.367 0-6.606-2.56-6.606-5.862h18l.828-5.615c.33-9.248-4.624-13.21-11.23-13.21zm-.167 6.936c3.22 0 4.211 2.724 4.046 6.026H86.203c.66-2.972 2.889-6.026 6.687-6.026z" style="stroke-width:21.1378;fill:#fff"/><path fill="#fff" fill-rule="evenodd" d="M420.196 343.571h9l3.055-13.954c.827-4.459 3.138-8.34 6.936-8.34 2.56-.084 3.468 1.734 3.385 3.469l-.744 4.624-2.972 14.201h9.33l2.89-14.119c.66-3.22.827-4.376.909-6.358.247-5.945-2.477-10.486-7.761-10.486-4.79 0-7.514 2.23-10.24 5.615l.745-4.955h-8.34c-.33 2.725-.826 5.285-1.32 7.927zM370.159 343.571h9l4.872-22.954h6.605l1.651-7.349h-6.688l.412-1.815c.827-3.385 2.147-4.872 4.294-4.872l2.89.744 1.898-7.183c-1.816-.577-4.376-.91-6.606-.91-5.862 0-9.66 3.964-11.064 10.24l-.827 3.798h-5.45l-1.65 7.348h5.614zM367.186 313.268h-9.082l-2.973 13.955c-.826 4.541-3.22 8.34-7.018 8.34-2.477.084-3.468-1.734-3.386-3.469l.744-4.624 3.056-14.202h-9.33l-2.89 14.12c-.66 3.22-.91 4.376-.91 6.44-.247 5.945 2.478 10.487 7.762 10.487 4.706 0 7.431-2.312 10.239-5.698l-.745 4.954h8.258c.33-2.724.908-5.284 1.403-7.926zM272.314 343.571h9.165l3.22-14.945 4.955 14.945h9.99l-6.192-15.688 11.23-14.615h-10.24l-9.082 12.716 5.615-26.01h-9.083zM238.873 343.571h9l3.056-13.954c.826-4.459 3.137-8.34 7.018-8.34 2.477-.084 3.468 1.734 3.385 3.469l-.744 4.624-3.055 14.201h9.33l2.89-14.119c.66-3.22.827-4.376.91-6.358.247-5.945-2.478-10.486-7.762-10.486-4.707 0-7.514 2.23-10.239 5.615l.744-4.955h-8.34c-.329 2.725-.826 5.285-1.32 7.927zM223.928 343.571h9.083l6.523-30.303h-9.165zM231.442 308.314h9.165l1.651-7.679h-9.165zM131.12 343.489h8.918l6.275-30.303h-8.835zM138.552 308.232h8.835l1.65-7.68h-8.917zM105.028 342.663c2.725.909 6.854 1.569 10.652 1.569 6.605-.17 12.055-3.881 12.385-11.395.17-7.596-10.734-7.349-10.651-10.734.084-2.147 2.23-2.642 4.21-2.642 2.56 0 4.707.577 6.937 1.733l2.146-6.936c-3.137-1.239-6.192-1.733-8.422-1.733-5.945 0-12.963 2.807-13.21 9.908-.33 9.991 10.238 7.762 10.073 12.138-.085 2.477-3.633 2.642-5.037 2.642-2.394 0-4.872-.577-7.018-1.733zM60.028 343.489h8.835l6.358-30.303h-8.918zM67.377 308.232h8.917l1.651-7.68h-8.917zM43.267 313.186a83.632 83.632 0 0 1-1.322 7.927l-4.706 22.376h8.752l2.973-13.954c.826-4.542 3.137-8.34 6.853-8.34l3.963 1.321 2.395-9.248-3.716-.744c-3.633 0-6.605 3.303-8.092 6.854l1.074-6.193zm0 0" style="stroke-width:21.1378"/><use xlink:href="#e" x="754.993" y="83.083" fill="#5f341d" transform="translate(-46.405 -113.48)"/><use xlink:href="#e" x="754.993" y="91.084" fill="#5f341d" transform="translate(-46.405 -113.48)"/><use xlink:href="#e" x="754.993" y="99.085" fill="#5f341d" transform="translate(-46.405 -113.48)"/><use xlink:href="#e" x="754.993" y="107.086" fill="#5f341d" transform="translate(-46.405 -113.48)"/><use xlink:href="#e" x="754.993" y="115.087" fill="#5f341d" transform="translate(-46.405 -113.48)"/><use xlink:href="#e" x="754.993" y="123.088" fill="#5f341d" transform="translate(-46.405 -113.48)"/><use xlink:href="#e" x="754.993" y="131.089" fill="#5f341d" transform="translate(-46.405 -113.48)"/><use xlink:href="#e" x="754.993" y="139.09" fill="#5f341d" transform="translate(-46.405 -113.48)"/><use xlink:href="#e" x="754.993" y="147.091" fill="#5f341d" transform="translate(-46.405 -113.48)"/><use xlink:href="#e" x="754.993" y="155.092" fill="#5f341d" transform="translate(-46.405 -113.48)"/><use xlink:href="#e" x="754.993" y="163.093" fill="#5f341d" transform="translate(-46.405 -113.48)"/><use xlink:href="#e" x="754.993" y="171.094" fill="#5f341d" transform="translate(-46.405 -113.48)"/><use xlink:href="#e" x="754.993" y="179.095" fill="#5f341d" transform="translate(-46.405 -113.48)"/><use xlink:href="#e" x="754.993" y="187.096" fill="#5f341d" transform="translate(-46.405 -113.48)"/><use xlink:href="#e" x="754.993" y="195.097" fill="#5f341d" transform="translate(-46.405 -113.48)"/><use xlink:href="#e" x="754.993" y="203.098" fill="#5f341d" transform="translate(-46.405 -113.48)"/><use xlink:href="#e" x="754.993" y="211.099" fill="#5f341d" transform="translate(-46.405 -113.48)"/><use xlink:href="#e" x="754.993" y="219.1" fill="#5f341d" transform="translate(-46.405 -113.48)"/><use xlink:href="#e" x="754.993" y="227.101" fill="#5f341d" transform="translate(-46.405 -113.48)"/><use xlink:href="#e" x="754.993" y="235.102" fill="#5f341d" transform="translate(-46.405 -113.48)"/><use xlink:href="#e" x="754.993" y="243.103" fill="#5f341d" transform="translate(-46.405 -113.48)"/><use xlink:href="#e" x="754.993" y="251.104" fill="#5f341d" transform="translate(-46.405 -113.48)"/><use xlink:href="#e" x="754.993" y="259.105" fill="#5f341d" transform="translate(-46.405 -113.48)"/><use xlink:href="#e" x="754.993" y="267.106" fill="#5f341d" transform="translate(-46.405 -113.48)"/><use xlink:href="#e" x="754.993" y="275.107" fill="#5f341d" transform="translate(-46.405 -113.48)"/><use xlink:href="#e" x="754.993" y="283.108" fill="#5f341d" transform="translate(-46.405 -113.48)"/><use xlink:href="#e" x="754.993" y="291.109" fill="#5f341d" transform="translate(-46.405 -113.48)"/><use xlink:href="#e" x="754.993" y="311.108" fill="#5f341d" transform="translate(-46.405 -113.48)"/><use xlink:href="#e" x="754.993" y="319.109" fill="#5f341d" transform="translate(-46.405 -113.48)"/><use xlink:href="#e" x="754.993" y="327.11" fill="#5f341d" transform="translate(-46.405 -113.48)"/><use xlink:href="#e" x="754.993" y="335.111" fill="#5f341d" transform="translate(-46.405 -113.48)"/><use xlink:href="#e" x="754.993" y="355.11" fill="#5f341d" transform="translate(-46.405 -113.48)"/><use xlink:href="#e" x="754.993" y="363.111" fill="#5f341d" transform="translate(-46.405 -113.48)"/><use xlink:href="#e" x="754.993" y="371.112" fill="#5f341d" transform="translate(-46.405 -113.48)"/><use xlink:href="#e" x="754.993" y="379.113" fill="#5f341d" transform="translate(-46.405 -113.48)"/><use xlink:href="#e" x="754.993" y="387.114" fill="#5f341d" transform="translate(-46.405 -113.48)"/><use xlink:href="#e" x="754.993" y="395.115" fill="#5f341d" transform="translate(-46.405 -113.48)"/><use xlink:href="#e" x="754.993" y="415.114" fill="#5f341d" transform="translate(-46.405 -113.48)"/><use xlink:href="#e" x="754.993" y="423.115" fill="#5f341d" transform="translate(-46.405 -113.48)"/><use xlink:href="#e" x="754.993" y="431.116" fill="#5f341d" transform="translate(-46.405 -113.48)"/><use xlink:href="#e" x="754.993" y="439.117" fill="#5f341d" transform="translate(-46.405 -113.48)"/><use xlink:href="#e" x="754.993" y="447.118" fill="#5f341d" transform="translate(-46.405 -113.48)"/><use xlink:href="#e" x="747.993" y="455.119" fill="#5f341d" transform="translate(-46.405 -113.48)"/><use xlink:href="#e" x="747.993" y="463.12" fill="#5f341d" transform="translate(-46.405 -113.48)"/><use xlink:href="#e" x="754.993" y="471.121" fill="#5f341d" transform="translate(-46.405 -113.48)"/><use xlink:href="#e" x="754.993" y="479.122" fill="#5f341d" transform="translate(-46.405 -113.48)"/><use xlink:href="#e" x="754.993" y="499.121" fill="#5f341d" transform="translate(-46.405 -113.48)"/><use xlink:href="#e" x="841.996" y="499.121" fill="#5f341d" transform="translate(-46.405 -113.48)"/><use xlink:href="#e" x="754.993" y="507.122" fill="#5f341d" transform="translate(-46.405 -113.48)"/><use xlink:href="#e" x="841.996" y="507.122" fill="#5f341d" transform="translate(-46.405 -113.48)"/><use xlink:href="#e" x="754.993" y="527.121" fill="#5f341d" transform="translate(-46.405 -113.48)"/><use xlink:href="#e" x="754.993" y="535.122" fill="#5f341d" transform="translate(-46.405 -113.48)"/><use xlink:href="#e" x="754.993" y="543.123" fill="#5f341d" transform="translate(-46.405 -113.48)"/><use xlink:href="#f" x="701.673" y="365.035" fill="#4b7f9f" transform="translate(-46.405 -113.48)"/><g fill="#4b7f9f" transform="translate(-46.405 -113.48)"><use xlink:href="#f" x="731.465" y="456.635"/><use xlink:href="#f" x="733.465" y="456.635"/></g><use xlink:href="#e" x="965.067" y="83.083" fill="#5f341d" transform="translate(-46.405 -113.48)"/><use xlink:href="#e" x="965.067" y="91.084" fill="#5f341d" transform="translate(-46.405 -113.48)"/><use xlink:href="#e" x="965.067" y="99.085" fill="#5f341d" transform="translate(-46.405 -113.48)"/><use xlink:href="#e" x="965.067" y="107.086" fill="#5f341d" transform="translate(-46.405 -113.48)"/><use xlink:href="#e" x="965.067" y="115.087" fill="#5f341d" transform="translate(-46.405 -113.48)"/><use xlink:href="#e" x="965.067" y="123.088" fill="#5f341d" transform="translate(-46.405 -113.48)"/><use xlink:href="#e" x="965.067" y="131.089" fill="#5f341d" transform="translate(-46.405 -113.48)"/><use xlink:href="#e" x="965.067" y="151.088" fill="#5f341d" transform="translate(-46.405 -113.48)"/><use xlink:href="#e" x="965.067" y="159.089" fill="#5f341d" transform="translate(-46.405 -113.48)"/><use xlink:href="#e" x="965.067" y="167.09" fill="#5f341d" transform="translate(-46.405 -113.48)"/><use xlink:href="#e" x="965.067" y="175.091" fill="#5f341d" transform="translate(-46.405 -113.48)"/><use xlink:href="#e" x="965.067" y="183.092" fill="#5f341d" transform="translate(-46.405 -113.48)"/><use xlink:href="#e" x="965.067" y="203.091" fill="#5f341d" transform="translate(-46.405 -113.48)"/><use xlink:href="#e" x="965.067" y="211.092" fill="#5f341d" transform="translate(-46.405 -113.48)"/><use xlink:href="#e" x="965.067" y="219.093" fill="#5f341d" transform="translate(-46.405 -113.48)"/><use xlink:href="#e" x="965.067" y="227.094" fill="#5f341d" transform="translate(-46.405 -113.48)"/><use xlink:href="#e" x="965.067" y="247.093" fill="#5f341d" transform="translate(-46.405 -113.48)"/><use xlink:href="#e" x="965.067" y="267.092" fill="#5f341d" transform="translate(-46.405 -113.48)"/><use xlink:href="#e" x="965.067" y="275.093" fill="#5f341d" transform="translate(-46.405 -113.48)"/><use xlink:href="#e" x="965.067" y="283.094" fill="#5f341d" transform="translate(-46.405 -113.48)"/><use xlink:href="#e" x="965.067" y="303.093" fill="#5f341d" transform="translate(-46.405 -113.48)"/><use xlink:href="#e" x="965.067" y="311.094" fill="#5f341d" transform="translate(-46.405 -113.48)"/><use xlink:href="#e" x="965.067" y="319.095" fill="#5f341d" transform="translate(-46.405 -113.48)"/><use xlink:href="#e" x="965.067" y="327.096" fill="#5f341d" transform="translate(-46.405 -113.48)"/><use xlink:href="#e" x="965.067" y="335.097" fill="#5f341d" transform="translate(-46.405 -113.48)"/><use xlink:href="#e" x="965.067" y="343.098" fill="#5f341d" transform="translate(-46.405 -113.48)"/><use xlink:href="#e" x="965.067" y="351.099" fill="#5f341d" transform="translate(-46.405 -113.48)"/><use xlink:href="#e" x="965.067" y="359.1" fill="#5f341d" transform="translate(-46.405 -113.48)"/><use xlink:href="#e" x="965.067" y="367.101" fill="#5f341d" transform="translate(-46.405 -113.48)"/><use xlink:href="#e" x="965.067" y="375.102" fill="#5f341d" transform="translate(-46.405 -113.48)"/><use xlink:href="#e" x="965.067" y="383.103" fill="#5f341d" transform="translate(-46.405 -113.48)"/><use xlink:href="#e" x="965.067" y="403.102" fill="#5f341d" transform="translate(-46.405 -113.48)"/><use xlink:href="#e" x="965.067" y="411.103" fill="#5f341d" transform="translate(-46.405 -113.48)"/><use xlink:href="#e" x="965.067" y="419.104" fill="#5f341d" transform="translate(-46.405 -113.48)"/><use xlink:href="#e" x="965.067" y="427.105" fill="#5f341d" transform="translate(-46.405 -113.48)"/><use xlink:href="#e" x="965.067" y="435.106" fill="#5f341d" transform="translate(-46.405 -113.48)"/><use xlink:href="#e" x="965.067" y="443.107" fill="#5f341d" transform="translate(-46.405 -113.48)"/><use xlink:href="#e" x="965.067" y="451.108" fill="#5f341d" transform="translate(-46.405 -113.48)"/><use xlink:href="#e" x="965.067" y="459.109" fill="#5f341d" transform="translate(-46.405 -113.48)"/><use xlink:href="#g" x="43.37" y="58.257" fill="#1a1918" transform="translate(-46.405 -113.48)"/><use xlink:href="#g" x="79.37" y="58.257" fill="#1a1918" transform="translate(-46.405 -113.48)"/><use xlink:href="#g" x="115.37" y="58.257" fill="#1a1918" transform="translate(-46.405 -113.48)"/><use xlink:href="#g" x="151.37" y="58.257" fill="#1a1918" transform="translate(-46.405 -113.48)"/><use xlink:href="#g" x="187.37" y="58.257" fill="#1a1918" transform="translate(-46.405 -113.48)"/><use xlink:href="#g" x="223.37" y="58.257" fill="#1a1918" transform="translate(-46.405 -113.48)"/><use xlink:href="#g" x="259.37" y="58.257" fill="#1a1918" transform="translate(-46.405 -113.48)"/><use xlink:href="#g" x="295.37" y="58.257" fill="#1a1918" transform="translate(-46.405 -113.48)"/><g fill="#1a1918" transform="translate(-46.405 -113.48)"><use xlink:href="#g" x="331.37" y="58.257"/><use xlink:href="#g" x="337.37" y="58.257"/><use xlink:href="#g" x="343.37" y="58.257"/><use xlink:href="#g" x="349.37" y="58.257"/></g><use xlink:href="#g" x="999.226" y="42.249" fill="#1a1918" transform="translate(-46.405 -113.48)"/><g fill="#1a1918" transform="translate(-46.405 -113.48)"><use xlink:href="#g" x="1019.89" y="42.249"/><use xlink:href="#g" x="1055.89" y="42.249"/><use xlink:href="#g" x="1091.89" y="42.249"/></g><use xlink:href="#g" x="623.89" y="58.257" fill="#1a1918" transform="translate(-46.405 -113.48)"/><use xlink:href="#g" x="659.89" y="58.257" fill="#1a1918" transform="translate(-46.405 -113.48)"/><use xlink:href="#g" x="695.89" y="58.257" fill="#1a1918" transform="translate(-46.405 -113.48)"/><use xlink:href="#g" x="731.89" y="58.257" fill="#1a1918" transform="translate(-46.405 -113.48)"/><g fill="#1a1918" transform="translate(-46.405 -113.48)"><use xlink:href="#g" x="767.89" y="58.257"/><use xlink:href="#g" x="773.89" y="58.257"/><use xlink:href="#g" x="779.89" y="58.257"/><use xlink:href="#g" x="785.89" y="58.257"/><use xlink:href="#g" x="791.89" y="58.257"/><use xlink:href="#g" x="797.89" y="58.257"/><use xlink:href="#g" x="803.89" y="58.257"/><use xlink:href="#g" x="809.89" y="58.257"/><use xlink:href="#g" x="815.89" y="58.257"/></g><use xlink:href="#h" x="617.76" y="565.971" fill="#3ea534" transform="translate(-46.405 -113.48)"/></svg>