<?xml version="1.0" encoding="utf-8"?>
<!-- Generator: Adobe Illustrator 15.0.2, SVG Export Plug-In  -->
<!DOCTYPE svg PUBLIC "-//W3C//DTD SVG 1.1//EN" "http://www.w3.org/Graphics/SVG/1.1/DTD/svg11.dtd" [
	<!ENTITY ns_flows "http://ns.adobe.com/Flows/1.0/">
]>
<svg version="1.1"
	 xmlns="http://www.w3.org/2000/svg" xmlns:xlink="http://www.w3.org/1999/xlink" xmlns:a="http://ns.adobe.com/AdobeSVGViewerExtensions/3.0/"
	 x="0px" y="0px" width="262px" height="72px" viewBox="-1.6567383 -0.5483398 262 72"
	 enable-background="new -1.6567383 -0.5483398 262 72" xml:space="preserve">
<defs>
</defs>
<g>
	<g>
		<path fill="#F2342B" d="M0.3168945,0.8432617l4.6821289,0.3505859l8.2583008-0.3505859
			c3.2973633,0,5.9892578,0.9282227,8.0756836,2.7832031c2.0888672,1.8554688,3.1308594,4.9204102,3.1308594,9.1938477
			c0,3.3354492-0.7573242,5.9897461-2.2705078,7.9624023c-1.5161133,1.9726563-3.5581055,3.4287109-6.1289063,4.3681641
			l4.1728516,8.8945313l4.6513672,9.5957031l2.3232422,4.9023438l-5.2299805-0.2109375h-4.175293l-8.875-20.6660156
			C8.7539063,27.25,8.6137695,26.9848633,8.5053711,26.8686523c-0.1020508-0.1147461-0.1567383-0.1972656-0.1567383-0.2431641
			c-0.2470703,0-0.3696289,0.3037109-0.3696289,0.9106445l0.1591797,6.4423828v7.0727539l0.2651367,7.4921875
			c-1.4125977-0.1386719-2.8554688-0.2109375-4.3354492-0.2109375c-0.6669922,0-1.2504883,0-1.7416992,0
			c-0.496582,0-1.2685547,0-2.3261719,0l0.581543-9.2719727V19.1088867L0.3168945,0.8432617z M9.7978516,4.847168h-1.659668
			v18.8979492c2.7109375,0,4.7558594-0.7871094,6.1293945-2.3618164c1.3710938-1.5742188,2.0620117-4.171875,2.0620117-7.7919922
			C16.3295898,7.7631836,14.1499023,4.847168,9.7978516,4.847168z"/>
		<path fill="#F2342B" d="M51.2006836,0c6.2011719,0,11.0512695,2.1313477,14.5566406,6.3925781
			c3.5053711,4.2636719,5.2587891,10.4453125,5.2587891,18.546875c0,7.3540039-1.9023438,13.277832-5.7070313,17.7739258
			c-3.8037109,4.4960938-8.6831055,6.7441406-14.6352539,6.7441406c-4.828125,0-9.3007813-1.7792969-13.4228516-5.3398438
			c-4.121582-3.5585938-6.1816406-9.7871094-6.1816406-18.6860352c0-7.4477539,1.7885742-13.546875,5.3637695-18.3012695
			C40.0097656,2.3774414,44.9316406,0,51.2006836,0z M50.6738281,45.4536133c3.4501953,0,6.2602539-1.9082031,8.4267578-5.7260742
			c2.1674805-3.815918,3.2490234-8.7460938,3.2490234-14.7880859c0-6.7436523-0.9501953-11.918457-2.8500977-15.5253906
			c-1.9042969-3.605957-4.6699219-5.4086914-8.2988281-5.4086914c-4.0146484,0-6.9384766,2.0478516-8.7719727,6.1464844
			c-1.831543,4.0986328-2.7470703,9.0976563-2.7470703,14.9990234c0,6.4628906,0.9682617,11.4628906,2.9067383,14.9985352
			C44.5268555,43.6860352,47.2226563,45.4536133,50.6738281,45.4536133z"/>
		<path fill="#F2342B" d="M88.2958984,4.2851563c-1.5864258,0-2.9072266,0.5844727-3.9633789,1.7539063
			c-1.0600586,1.1689453-1.5874023,2.6650391-1.5874023,4.4887695c0,2.6196289,1.2866211,4.9116211,3.8603516,6.875
			c2.5683594,1.9638672,5.1069336,3.8803711,7.6079102,5.7504883c2.7114258,2.7597656,4.0673828,6.2900391,4.0673828,10.5917969
			c0,4.7705078-1.234375,8.534668-3.6977539,11.2924805c-2.4663086,2.7597656-5.8125,4.1386719-10.0400391,4.1386719
			c-1.6904297,0-3.1704102-0.2109375-4.4379883-0.6328125c-1.2695313-0.4199219-2.659668-1.1933594-4.175293-2.3183594
			c0.7412109-3.0175781,1.2529297-5.8745117,1.5327148-8.5698242l1.1108398,0.0703125
			c0.3515625,2.2983398,1.1787109,4.1147461,2.4824219,5.4467773c1.3037109,1.3339844,2.9233398,2,4.862793,2
			c1.7583008,0,3.2197266-0.6777344,4.3862305-2.0351563c1.1616211-1.3554688,1.7421875-3.0380859,1.7421875-5.0498047
			c0-2.6650391-1.2949219-4.9907227-3.8833008-6.9785156c-2.590332-1.9868164-5.1186523-3.9399414-7.5825195-5.8569336
			c-2.6782227-2.7583008-4.0146484-6.3115234-4.0146484-10.6616211c0-4.3012695,1.0830078-7.7612305,3.2490234-10.3803711
			C81.9804688,1.590332,84.8427734,0.28125,88.3994141,0.28125c3.2431641,0,6.1113281,1.1000977,8.6123047,3.3012695
			c-0.4541016,1.2817383-0.8012695,2.4853516-1.0283203,3.6118164c-0.2294922,1.1269531-0.4697266,2.3818359-0.7143555,3.765625
			h-0.8984375c-0.4921875-2.1728516-1.2602539-3.8276367-2.296875-4.9667969
			C91.0332031,4.8549805,89.7744141,4.2851563,88.2958984,4.2851563z"/>
		<path fill="#F2342B" d="M130.2495117,33.6547852c1.1621094,3.9765625,2.0332031,6.8867188,2.6142578,8.734375
			c0.5820313,1.8457031,1.2246094,3.6347656,1.9291992,5.3652344v0.5605469
			c-0.6015625,0.0058594-1.1728516,0.0097656-1.7182617,0.0136719c-0.5473633,0.0039063-1.3867188,0.0039063-2.5131836,0.0039063
			h-0.6376953c-0.6689453,0-1.2602539,0-1.7724609-0.0019531c-0.5112305-0.0039063-1.2617188-0.0078125-2.2485352-0.015625
			c-0.6142578-2.8496094-1.2001953-5.2910156-1.7568359-7.3242188c-0.5561523-2.0332031-1.2392578-4.2426758-2.0463867-6.6279297
			l-5.7939453-0.2099609l-6.050293,0.2099609c-1.3603516,4.2553711-2.5966797,8.9072266-3.7060547,13.9521484
			c-0.4570313,0.0078125-0.8417969,0.0117188-1.1582031,0.015625c-0.3149414,0.0019531-0.7514648,0.0019531-1.3100586,0.0019531
			c-0.7358398,0-1.5424805-0.0058594-2.4165039-0.0175781V47.824707c2.4995117-6.9199219,5.0708008-14.5898438,7.7143555-23.0087891
			c2.6401367-8.4160156,5.019043-16.4604492,7.1328125-24.1303711c0.2797852,0.034668,0.7138672,0.0703125,1.2929688,0.1044922
			c0.581543,0.0351563,0.890625,0.0532227,0.9282227,0.0532227c0.6313477,0,1.2104492-0.0532227,1.7402344-0.1577148
			l3.1171875,10.8032227L130.2495117,33.6547852z M112.6542969,30.0776367h4.0766602l4.1835938-0.0703125l-4.3920898-16.0830078
			l-5.003418,16.0830078L112.6542969,30.0776367z"/>
		<path fill="#F2342B" d="M139.2324219,0.8432617c0.9155273,0,1.6455078,0,2.1928711,0c0.5449219,0,1.2753906,0,2.1923828,0
			c0.6337891,0,1.2246094,0,1.7695313,0c0.5463867,0,1.347168,0,2.4052734,0l-0.5288086,11.1704102l-0.1577148,11.3100586
			c0,6.6035156,0.5449219,11.7924805,1.6376953,15.5605469c1.0898438,3.7705078,3.6992188,5.6552734,7.8203125,5.6552734
			c2.2197266,0,4.1118164-0.7597656,5.6801758-2.2832031c1.5668945-1.5214844,2.6132813-3.4301758,3.1430664-5.7246094
			c0.5292969-2.2944336,0.8466797-4.4838867,0.9501953-6.5688477c0.1069336-2.0834961,0.1616211-6.1938477,0.1616211-12.3291016
			l-0.3193359-16.7905273c0.4926758,0,0.8896484,0,1.190918,0c0.296875,0,0.6777344,0,1.1357422,0
			c0.9140625,0,1.8642578,0,2.8530273,0l-0.6337891,22.3769531c0,4.4438477-0.105957,7.6713867-0.3164063,9.6821289
			c-0.2128906,2.0117188-0.7553711,4.3496094-1.6333008,7.015625c-0.8789063,2.6645508-2.5908203,4.8754883-5.1328125,6.6274414
			c-2.5478516,1.7539063-5.347168,2.6308594-8.3999023,2.6308594c-3.3701172,0-6.3212891-0.7714844-8.8476563-2.3144531
			c-2.5292969-1.5449219-4.1958008-3.3789063-5.0043945-5.5058594c-0.8061523-2.1274414-1.3349609-4.0805664-1.5795898-5.8574219
			c-0.2446289-1.777832-0.3666992-4.0693359-0.3666992-6.8764648l0.0537109-1.5429688V17.46875L139.2324219,0.8432617z"/>
		<path fill="#F2342B" d="M187.2099609,35.0556641v8.3608398c3.2910156,0,5.5566406-0.046875,6.7954102-0.1425781
			c1.2368164-0.0917969,3.0039063-0.3261719,5.3046875-0.7011719c-0.0341797,0.5097656-0.0698242,1.0644531-0.1020508,1.6660156
			c-0.0395508,0.6015625-0.0551758,1.0859375-0.0551758,1.4570313c0,0.4628906,0,0.8457031,0,1.1445313
			c0,0.3027344,0.0551758,0.7988281,0.1572266,1.4921875l-9.4555664-0.2792969l-10.7783203,0.2792969l0.4726563-22.9008789
			l-0.3164063-24.5883789c1.0205078,0.2104492,2.1220703,0.3686523,3.3012695,0.4731445
			c1.1816406,0.105957,2.3862305,0.1582031,3.6206055,0.1582031l13.4731445-0.6313477
			c-0.2099609,1.0917969-0.3173828,2.0888672-0.3173828,2.9902344c0,1.0454102,0.1074219,2.0859375,0.3173828,3.121582
			l-12.1523438-0.8432617l-0.2651367,15.0341797l12.1000977-0.5625c-0.2109375,1.043457-0.3164063,1.9916992-0.3164063,2.8442383
			c0,0.9492188,0.1054688,1.9438477,0.3164063,2.9873047l-12.1000977-0.6323242v1.3344727V35.0556641z"/>
		<path fill="#F2342B" d="M206.2836914,0.8432617l4.6845703,0.3505859l8.2597656-0.3505859
			c3.2949219,0,5.9873047,0.9282227,8.0761719,2.7832031c2.0869141,1.8554688,3.1289063,4.9204102,3.1289063,9.1938477
			c0,3.3354492-0.7578125,5.9897461-2.2705078,7.9624023c-1.5175781,1.9726563-3.5615234,3.4287109-6.1328125,4.3681641
			l4.1757813,8.8945313l4.6494141,9.5957031l2.3271484,4.9023438l-5.2333984-0.2109375h-4.1728516l-8.8779297-20.6660156
			c-0.1787109-0.4165039-0.3173828-0.6816406-0.421875-0.7978516c-0.1064453-0.1147461-0.1611328-0.1972656-0.1611328-0.2431641
			c-0.2451172,0-0.3681641,0.3037109-0.3681641,0.9106445l0.1572266,6.4423828v7.0727539l0.265625,7.4921875
			c-1.4101563-0.1386719-2.8515625-0.2109375-4.3339844-0.2109375c-0.6679688,0-1.25,0-1.7441406,0
			c-0.4912109,0-1.2675781,0-2.3237305,0l0.5820313-9.2719727V19.1088867L206.2836914,0.8432617z M215.7641602,4.847168h-1.6601563
			v18.8979492c2.7158203,0,4.7578125-0.7871094,6.1289063-2.3618164c1.3769531-1.5742188,2.0644531-4.171875,2.0644531-7.7919922
			C222.2973633,7.7631836,220.1186523,4.847168,215.7641602,4.847168z"/>
		<path fill="#F2342B" d="M249.4018555,4.2851563c-1.5849609,0-2.9072266,0.5844727-3.9638672,1.7539063
			c-1.0566406,1.1689453-1.5849609,2.6650391-1.5849609,4.4887695c0,2.6196289,1.2841797,4.9116211,3.8554688,6.875
			c2.5732422,1.9638672,5.1083984,3.8803711,7.6113281,5.7504883c2.7138672,2.7597656,4.0683594,6.2900391,4.0683594,10.5917969
			c0,4.7705078-1.2333984,8.534668-3.6982422,11.2924805c-2.46875,2.7597656-5.8125,4.1386719-10.0390625,4.1386719
			c-1.6904297,0-3.1699219-0.2109375-4.4414063-0.6328125c-1.265625-0.4199219-2.6601563-1.1933594-4.1738281-2.3183594
			c0.7421875-3.0175781,1.2519531-5.8745117,1.5351563-8.5698242l1.1074219,0.0703125
			c0.3515625,2.2983398,1.1826172,4.1147461,2.484375,5.4467773c1.3007813,1.3339844,2.9228516,2,4.8603516,2
			c1.7617188,0,3.2236328-0.6777344,4.3847656-2.0351563c1.1650391-1.3554688,1.7460938-3.0380859,1.7460938-5.0498047
			c0-2.6650391-1.2949219-4.9907227-3.8837891-6.9785156c-2.5908203-1.9868164-5.1171875-3.9399414-7.5830078-5.8569336
			c-2.6757813-2.7583008-4.015625-6.3115234-4.015625-10.6616211c0-4.3012695,1.0830078-7.7612305,3.25-10.3803711
			c2.1669922-2.6196289,5.0273438-3.9287109,8.5869141-3.9287109c3.2392578,0,6.1083984,1.1000977,8.6123047,3.3012695
			c-0.4580078,1.2817383-0.8037109,2.4853516-1.0302734,3.6118164c-0.2304688,1.1269531-0.4677734,2.3818359-0.7148438,3.765625
			h-0.8955078c-0.4941406-2.1728516-1.2607422-3.8276367-2.3007813-4.9667969
			C252.1401367,4.8549805,250.8833008,4.2851563,249.4018555,4.2851563z"/>
	</g>
</g>
<g>
	<path d="M113.7211914,57.6030273l0.0991211,4.0878906h-0.3706055c-0.1748047-1.0244141-0.6044922-1.8496094-1.2885742-2.4736328
		c-0.6845703-0.6240234-1.4243164-0.9355469-2.2202148-0.9355469c-0.6152344,0-1.1020508,0.1640625-1.4609375,0.4931641
		c-0.3583984,0.328125-0.5380859,0.7070313-0.5380859,1.1347656c0,0.2714844,0.0634766,0.5126953,0.1899414,0.7236328
		c0.1748047,0.2832031,0.4555664,0.5634766,0.8413086,0.8408203c0.2832031,0.1992188,0.9375,0.5517578,1.9624023,1.0576172
		c1.4350586,0.7060547,2.4023438,1.3720703,2.9033203,1.9990234c0.4941406,0.6269531,0.7412109,1.3447266,0.7412109,2.1523438
		c0,1.0253906-0.3994141,1.9072266-1.1982422,2.6455078s-1.8129883,1.1074219-3.0429688,1.1074219
		c-0.3862305,0-0.7509766-0.0390625-1.0942383-0.1171875c-0.34375-0.078125-0.7749023-0.2265625-1.293457-0.4433594
		c-0.2895508-0.1201172-0.527832-0.1806641-0.7143555-0.1806641c-0.1567383,0-0.3227539,0.0605469-0.4975586,0.1806641
		c-0.1748047,0.1210938-0.3164063,0.3046875-0.4248047,0.5517578h-0.3349609v-4.6298828h0.3349609
		c0.2651367,1.3017578,0.7758789,2.2949219,1.5327148,2.9794922c0.7563477,0.6845703,1.5722656,1.0263672,2.4462891,1.0263672
		c0.675293,0,1.2133789-0.1835938,1.6142578-0.5517578c0.4008789-0.3671875,0.6015625-0.7958984,0.6015625-1.2841797
		c0-0.2890625-0.0771484-0.5693359-0.2304688-0.8408203c-0.1538086-0.2714844-0.3876953-0.5292969-0.7011719-0.7734375
		s-0.8681641-0.5625-1.6640625-0.9541016c-1.1152344-0.5488281-1.9169922-1.015625-2.4057617-1.4013672
		c-0.4882813-0.3857422-0.8632813-0.8173828-1.1259766-1.2939453c-0.262207-0.4755859-0.3930664-1-0.3930664-1.5732422
		c0-0.9765625,0.3583984-1.8085938,1.0761719-2.4960938c0.7172852-0.6875,1.621582-1.03125,2.7128906-1.03125
		c0.3979492,0,0.7836914,0.0488281,1.1577148,0.1445313c0.2832031,0.0732422,0.628418,0.2070313,1.0356445,0.4033203
		c0.4067383,0.1953125,0.6918945,0.2939453,0.8544922,0.2939453c0.1567383,0,0.2802734-0.0488281,0.3706055-0.1455078
		c0.0908203-0.0957031,0.1748047-0.328125,0.253418-0.6962891H113.7211914z"/>
	<path d="M115.7558594,57.8833008h6.3305664v0.3349609h-0.3164063c-0.4765625,0-0.8037109,0.0498047-0.9814453,0.1494141
		s-0.3041992,0.2363281-0.3798828,0.4111328c-0.0751953,0.1748047-0.112793,0.6123047-0.112793,1.3115234v6.0048828
		c0,1.0976563,0.0825195,1.8242188,0.2485352,2.1796875s0.4384766,0.6513672,0.8183594,0.8867188
		c0.3798828,0.234375,0.859375,0.3525391,1.4379883,0.3525391c0.6630859,0,1.2285156-0.1494141,1.6958008-0.4482422
		c0.4672852-0.2978516,0.8168945-0.7099609,1.0493164-1.234375c0.2319336-0.5244141,0.3481445-1.4375,0.3481445-2.7402344V60.090332
		c0-0.5488281-0.0576172-0.9404297-0.171875-1.1757813c-0.1147461-0.2353516-0.2592773-0.3974609-0.434082-0.4882813
		c-0.2714844-0.1386719-0.6542969-0.2080078-1.1484375-0.2080078v-0.3349609h4.2412109v0.3349609h-0.2529297
		c-0.34375,0-0.6303711,0.0693359-0.859375,0.2080078s-0.3950195,0.3466797-0.4975586,0.6240234
		c-0.078125,0.1933594-0.1171875,0.5400391-0.1171875,1.0400391v4.6572266c0,1.4414063-0.0952148,2.4814453-0.2851563,3.1201172
		c-0.1899414,0.6396484-0.652832,1.2275391-1.3881836,1.7636719c-0.7358398,0.5371094-1.7392578,0.8046875-3.0117188,0.8046875
		c-1.0610352,0-1.8808594-0.1416016-2.4599609-0.4248047c-0.7895508-0.3857422-1.347168-0.8798828-1.6728516-1.4833984
		c-0.3256836-0.6025391-0.4882813-1.4130859-0.4882813-2.4326172V60.090332c0-0.7050781-0.0395508-1.1435547-0.1176758-1.3154297
		c-0.0786133-0.171875-0.2138672-0.3095703-0.4067383-0.4121094c-0.1933594-0.1025391-0.5488281-0.1503906-1.0673828-0.1445313
		V57.8833008z"/>
	<path d="M133.6982422,64.5942383v3.4003906c0,0.6630859,0.0410156,1.0810547,0.1220703,1.2529297
		c0.081543,0.171875,0.2265625,0.3085938,0.434082,0.4111328c0.2080078,0.1025391,0.5893555,0.1533203,1.144043,0.1533203v0.3349609
		h-6.230957v-0.3349609c0.5668945,0,0.9511719-0.0527344,1.1533203-0.1582031
		c0.2016602-0.1054688,0.3432617-0.2421875,0.4248047-0.4111328s0.1220703-0.5849609,0.1220703-1.2480469v-7.9589844
		c0-0.6630859-0.0405273-1.0800781-0.1220703-1.2519531s-0.2246094-0.3085938-0.4296875-0.4121094
		c-0.2050781-0.1015625-0.5878906-0.1533203-1.1484375-0.1533203v-0.3349609h5.3447266
		c1.7607422,0,3.0239258,0.3134766,3.7895508,0.9414063c0.765625,0.6269531,1.1484375,1.4101563,1.1484375,2.3505859
		c0,0.7958984-0.2470703,1.4775391-0.7416992,2.0439453c-0.4941406,0.5673828-1.175293,0.953125-2.0439453,1.1582031
		C136.0800781,64.5219727,135.0913086,64.5942383,133.6982422,64.5942383z M133.6982422,58.5893555v5.2998047
		c0.1992188,0.0117188,0.3496094,0.0175781,0.4526367,0.0175781c0.7353516,0,1.3022461-0.21875,1.7001953-0.6552734
		c0.3979492-0.4375,0.5966797-1.1142578,0.5966797-2.0302734c0-0.9111328-0.1987305-1.5771484-0.5966797-1.9990234
		s-0.9921875-0.6328125-1.7817383-0.6328125H133.6982422z"/>
	<path d="M145.0576172,58.5893555v4.9921875h0.2441406c0.777832,0,1.3413086-0.2441406,1.6914063-0.7324219
		c0.3496094-0.4892578,0.5727539-1.2089844,0.6689453-2.1621094h0.34375v6.4208984h-0.34375
		c-0.0722656-0.6992188-0.2246094-1.2714844-0.456543-1.7177734c-0.2324219-0.4462891-0.5019531-0.7460938-0.8095703-0.9003906
		c-0.3076172-0.1533203-0.753418-0.2304688-1.3383789-0.2304688v3.4550781c0,0.6748047,0.0283203,1.0878906,0.0859375,1.2392578
		c0.0571289,0.1503906,0.1640625,0.2744141,0.3208008,0.3701172c0.1567383,0.0966797,0.4101563,0.1445313,0.7597656,0.1445313
		h0.7329102c1.1450195,0,2.0629883-0.2646484,2.753418-0.7958984c0.6904297-0.5302734,1.1865234-1.3378906,1.487793-2.4228516
		h0.3344727l-0.5512695,3.8974609h-10.5996094v-0.3349609h0.4072266c0.3554688,0,0.6420898-0.0625,0.8588867-0.1894531
		c0.1567383-0.0849609,0.2773438-0.2294922,0.3618164-0.4345703c0.0664063-0.1445313,0.0996094-0.5244141,0.0996094-1.1396484
		v-8.0664063c0-0.5546875-0.0151367-0.8955078-0.0454102-1.0224609c-0.0600586-0.2109375-0.171875-0.3730469-0.3344727-0.4882813
		c-0.2290039-0.1679688-0.5424805-0.2529297-0.9404297-0.2529297h-0.4072266v-0.3349609h10.2646484v3.6269531h-0.3432617
		c-0.175293-0.8867188-0.4208984-1.5224609-0.7373047-1.9082031s-0.7641602-0.6689453-1.3427734-0.8505859
		c-0.3378906-0.1083984-0.9711914-0.1621094-1.8994141-0.1621094H145.0576172z"/>
	<path d="M157.284668,64.5581055v3.4365234c0,0.6630859,0.0405273,1.0810547,0.1220703,1.2529297
		c0.0810547,0.171875,0.2246094,0.3085938,0.4296875,0.4111328c0.2045898,0.1025391,0.5874023,0.1533203,1.1484375,0.1533203
		v0.3349609h-6.2763672v-0.3349609c0.5664063,0,0.9506836-0.0527344,1.152832-0.1582031s0.34375-0.2421875,0.425293-0.4111328
		s0.1220703-0.5849609,0.1220703-1.2480469v-7.9589844c0-0.6630859-0.0405273-1.0800781-0.1220703-1.2519531
		s-0.2246094-0.3085938-0.4296875-0.4121094c-0.2050781-0.1015625-0.5878906-0.1533203-1.1484375-0.1533203v-0.3349609h5.6972656
		c1.4833984,0,2.5688477,0.1025391,3.2558594,0.3076172c0.6875,0.2050781,1.2480469,0.5839844,1.6821289,1.1347656
		c0.434082,0.5517578,0.6513672,1.1992188,0.6513672,1.9404297c0,0.9042969-0.3256836,1.6523438-0.9770508,2.2431641
		c-0.4160156,0.3730469-0.9975586,0.6542969-1.7451172,0.8408203l2.9482422,4.1513672
		c0.3857422,0.5361328,0.6601563,0.8710938,0.8227539,1.0029297c0.2470703,0.1875,0.5336914,0.2900391,0.859375,0.3076172v0.3349609
		h-3.8618164l-3.9521484-5.5888672H157.284668z M157.284668,58.543457v5.3720703h0.5151367
		c0.8383789,0,1.465332-0.0761719,1.8813477-0.2304688c0.4160156-0.1533203,0.7431641-0.4306641,0.9814453-0.8320313
		c0.237793-0.4003906,0.3569336-0.9238281,0.3569336-1.5693359c0-0.9335938-0.21875-1.6240234-0.6557617-2.0703125
		s-1.1411133-0.6699219-2.1113281-0.6699219H157.284668z"/>
	<path d="M174.5673828,65.9692383l3.328125-8.0859375h4.9921875v0.3349609h-0.3979492
		c-0.3618164,0-0.6513672,0.0634766-0.8681641,0.1904297c-0.1508789,0.0839844-0.2714844,0.2255859-0.3618164,0.4248047
		c-0.0664063,0.1445313-0.0996094,0.5214844-0.0996094,1.1298828v8.0849609c0,0.6279297,0.0332031,1.0195313,0.0996094,1.1757813
		c0.0664063,0.1572266,0.2021484,0.2939453,0.4067383,0.4121094c0.2050781,0.1171875,0.4794922,0.1757813,0.8232422,0.1757813
		h0.3979492v0.3349609h-6.402832v-0.3349609h0.3979492c0.3613281,0,0.6508789-0.0625,0.8681641-0.1894531
		c0.1503906-0.0849609,0.2709961-0.2294922,0.3613281-0.4345703c0.0664063-0.1445313,0.0996094-0.5244141,0.0996094-1.1396484
		v-9.0888672l-4.7026367,11.1875h-0.2167969l-4.7753906-11.1054688v8.6367188c0,0.6025391,0.0151367,0.9736328,0.0454102,1.1123047
		c0.078125,0.3017578,0.2485352,0.546875,0.5107422,0.7373047c0.262207,0.1894531,0.6738281,0.2841797,1.234375,0.2841797v0.3349609
		h-4.1962891v-0.3349609h0.1269531c0.2709961,0.0068359,0.5244141-0.0371094,0.7592773-0.1308594
		c0.2353516-0.09375,0.4130859-0.21875,0.5336914-0.375c0.1206055-0.1572266,0.2138672-0.3769531,0.2802734-0.6601563
		c0.012207-0.0664063,0.0180664-0.3740234,0.0180664-0.9228516v-7.7597656c0-0.6201172-0.0332031-1.0078125-0.0991211-1.1621094
		c-0.0664063-0.1533203-0.2021484-0.2890625-0.4072266-0.40625c-0.2050781-0.1181641-0.4790039-0.1767578-0.8227539-0.1767578
		h-0.3891602v-0.3349609h5.0102539L174.5673828,65.9692383z"/>
	<path d="M190.9272461,66.6557617h-4.331543l-0.515625,1.1943359c-0.1689453,0.3974609-0.253418,0.7265625-0.253418,0.9853516
		c0,0.34375,0.1386719,0.5966797,0.4160156,0.7597656c0.1630859,0.0966797,0.5639648,0.1689453,1.203125,0.2167969v0.3349609
		h-4.0791016v-0.3349609c0.4404297-0.0664063,0.8017578-0.2480469,1.0854492-0.546875
		c0.2832031-0.2988281,0.6328125-0.9150391,1.0488281-1.8496094l4.3862305-9.7851563h0.171875l4.4223633,10.0566406
		c0.421875,0.953125,0.769043,1.5527344,1.0400391,1.7998047c0.2050781,0.1865234,0.4946289,0.2958984,0.8681641,0.3251953
		v0.3349609h-5.9326172v-0.3349609h0.2441406c0.4765625,0,0.8110352-0.0664063,1.0039063-0.1982422
		c0.1328125-0.0966797,0.1992188-0.2353516,0.1992188-0.4160156c0-0.109375-0.0180664-0.2207031-0.0541992-0.3349609
		c-0.012207-0.0546875-0.1030273-0.2802734-0.2714844-0.6787109L190.9272461,66.6557617z M190.6201172,65.9868164
		l-1.8271484-4.2236328l-1.8808594,4.2236328H190.6201172z"/>
	<path d="M201.5175781,64.5581055v3.4365234c0,0.6630859,0.0405273,1.0810547,0.1220703,1.2529297
		c0.0810547,0.171875,0.2246094,0.3085938,0.4296875,0.4111328c0.2045898,0.1025391,0.5874023,0.1533203,1.1484375,0.1533203
		v0.3349609h-6.2763672v-0.3349609c0.5664063,0,0.9506836-0.0527344,1.152832-0.1582031s0.34375-0.2421875,0.425293-0.4111328
		s0.1220703-0.5849609,0.1220703-1.2480469v-7.9589844c0-0.6630859-0.0405273-1.0800781-0.1220703-1.2519531
		s-0.2246094-0.3085938-0.4296875-0.4121094c-0.2050781-0.1015625-0.5878906-0.1533203-1.1484375-0.1533203v-0.3349609h5.6972656
		c1.4833984,0,2.5688477,0.1025391,3.2558594,0.3076172c0.6875,0.2050781,1.2480469,0.5839844,1.6821289,1.1347656
		c0.4345703,0.5517578,0.6513672,1.1992188,0.6513672,1.9404297c0,0.9042969-0.3251953,1.6523438-0.9770508,2.2431641
		c-0.4160156,0.3730469-0.9975586,0.6542969-1.7451172,0.8408203l2.9487305,4.1513672
		c0.3857422,0.5361328,0.6601563,0.8710938,0.8222656,1.0029297c0.2470703,0.1875,0.5341797,0.2900391,0.859375,0.3076172v0.3349609
		h-3.8618164l-3.9521484-5.5888672H201.5175781z M201.5175781,58.543457v5.3720703h0.5151367
		c0.8383789,0,1.465332-0.0761719,1.8813477-0.2304688c0.4160156-0.1533203,0.7431641-0.4306641,0.9814453-0.8320313
		c0.237793-0.4003906,0.3569336-0.9238281,0.3569336-1.5693359c0-0.9335938-0.21875-1.6240234-0.6557617-2.0703125
		s-1.1411133-0.6699219-2.1113281-0.6699219H201.5175781z"/>
	<path d="M217.6879883,62.5776367l4.3134766,5.3984375c0.609375,0.7597656,1.1337891,1.2753906,1.5742188,1.546875
		c0.3193359,0.1933594,0.6572266,0.2890625,1.0126953,0.2890625v0.3349609h-6.3847656v-0.3349609
		c0.4033203-0.0361328,0.6640625-0.0996094,0.7822266-0.1894531c0.1171875-0.0908203,0.1757813-0.2021484,0.1757813-0.3349609
		c0-0.2529297-0.2773438-0.7294922-0.8320313-1.4287109l-2.8125-3.5361328l-0.4521484,0.3798828v3.3457031
		c0,0.6396484,0.0361328,1.0371094,0.1083984,1.1943359c0.0732422,0.1572266,0.2109375,0.2910156,0.4160156,0.4023438
		s0.5341797,0.1669922,0.9863281,0.1669922v0.3349609h-6.1865234v-0.3349609h0.4072266
		c0.3554688,0,0.6425781-0.0625,0.859375-0.1894531c0.15625-0.0849609,0.2773438-0.2294922,0.3613281-0.4345703
		c0.0664063-0.1445313,0.0996094-0.5244141,0.0996094-1.1396484v-8.0664063c0-0.6269531-0.0332031-1.0185547-0.0996094-1.1757813
		c-0.0664063-0.15625-0.2001953-0.2939453-0.4023438-0.4111328c-0.2021484-0.1181641-0.4746094-0.1767578-0.8183594-0.1767578
		h-0.4072266v-0.3349609h6.1054688v0.3349609c-0.4160156,0-0.7333984,0.0605469-0.9501953,0.1806641
		c-0.15625,0.0849609-0.2802734,0.2265625-0.3710938,0.4257813c-0.0722656,0.1503906-0.1083984,0.5361328-0.1083984,1.1572266
		v3.8164063l4.5488281-3.6806641c0.6337891-0.5126953,0.9501953-0.9228516,0.9501953-1.2304688
		c0-0.2285156-0.1298828-0.4091797-0.3886719-0.5419922c-0.1328125-0.0664063-0.4619141-0.1083984-0.9863281-0.1269531v-0.3349609
		h4.7841797v0.3349609c-0.4277344,0.0302734-0.7636719,0.1074219-1.0078125,0.2304688
		c-0.2441406,0.1240234-0.8066406,0.5410156-1.6875,1.2529297L217.6879883,62.5776367z"/>
	<path d="M229.4272461,58.5893555v4.9921875h0.2441406c0.7773438,0,1.3408203-0.2441406,1.6904297-0.7324219
		c0.3496094-0.4892578,0.5732422-1.2089844,0.6699219-2.1621094h0.34375v6.4208984h-0.34375
		c-0.0722656-0.6992188-0.2246094-1.2714844-0.4570313-1.7177734s-0.5019531-0.7460938-0.8095703-0.9003906
		c-0.3076172-0.1533203-0.7539063-0.2304688-1.3378906-0.2304688v3.4550781c0,0.6748047,0.0283203,1.0878906,0.0849609,1.2392578
		c0.0576172,0.1503906,0.1650391,0.2744141,0.3212891,0.3701172c0.1572266,0.0966797,0.4101563,0.1445313,0.7597656,0.1445313
		h0.7324219c1.1455078,0,2.0634766-0.2646484,2.7539063-0.7958984c0.6904297-0.5302734,1.1865234-1.3378906,1.4882813-2.4228516
		h0.3339844l-0.5517578,3.8974609h-10.5986328v-0.3349609h0.40625c0.3564453,0,0.6425781-0.0625,0.859375-0.1894531
		c0.1572266-0.0849609,0.2773438-0.2294922,0.3623047-0.4345703c0.0654297-0.1445313,0.0996094-0.5244141,0.0996094-1.1396484
		v-8.0664063c0-0.5546875-0.015625-0.8955078-0.0458984-1.0224609c-0.0605469-0.2109375-0.171875-0.3730469-0.3339844-0.4882813
		c-0.2294922-0.1679688-0.5429688-0.2529297-0.9414063-0.2529297h-0.40625v-0.3349609h10.2646484v3.6269531h-0.34375
		c-0.1748047-0.8867188-0.4208984-1.5224609-0.7373047-1.9082031s-0.7646484-0.6689453-1.3427734-0.8505859
		c-0.3378906-0.1083984-0.9707031-0.1621094-1.8994141-0.1621094H229.4272461z"/>
	<path d="M248.418457,57.8833008v3.3193359h-0.3251953c-0.1933594-0.765625-0.4072266-1.3154297-0.6425781-1.6503906
		s-0.5576172-0.6015625-0.9677734-0.8007813c-0.2294922-0.1083984-0.6298828-0.1621094-1.203125-0.1621094h-0.9130859v9.4589844
		c0,0.6279297,0.0351563,1.0195313,0.1044922,1.1757813c0.0683594,0.1572266,0.2041016,0.2939453,0.40625,0.4121094
		c0.2021484,0.1171875,0.4785156,0.1757813,0.828125,0.1757813h0.40625v0.3349609h-6.4208984v-0.3349609h0.4072266
		c0.3554688,0,0.6425781-0.0625,0.859375-0.1894531c0.15625-0.0849609,0.2802734-0.2294922,0.3701172-0.4345703
		c0.0664063-0.1445313,0.0996094-0.5244141,0.0996094-1.1396484v-9.4589844h-0.8857422
		c-0.8261719,0-1.4257813,0.1748047-1.7998047,0.5244141c-0.5244141,0.4882813-0.8564453,1.1845703-0.9951172,2.0888672h-0.34375
		v-3.3193359H248.418457z"/>
	<path d="M257.7875977,57.6030273l0.0996094,4.0878906h-0.3710938c-0.1748047-1.0244141-0.6044922-1.8496094-1.2890625-2.4736328
		c-0.6835938-0.6240234-1.4238281-0.9355469-2.2197266-0.9355469c-0.6152344,0-1.1025391,0.1640625-1.4609375,0.4931641
		c-0.3583984,0.328125-0.5380859,0.7070313-0.5380859,1.1347656c0,0.2714844,0.0634766,0.5126953,0.1904297,0.7236328
		c0.1748047,0.2832031,0.4550781,0.5634766,0.8408203,0.8408203c0.2832031,0.1992188,0.9375,0.5517578,1.9628906,1.0576172
		c1.4345703,0.7060547,2.4023438,1.3720703,2.9023438,1.9990234c0.4941406,0.6269531,0.7421875,1.3447266,0.7421875,2.1523438
		c0,1.0253906-0.3994141,1.9072266-1.1982422,2.6455078c-0.7998047,0.7382813-1.8134766,1.1074219-3.0439453,1.1074219
		c-0.3857422,0-0.75-0.0390625-1.09375-0.1171875s-0.7753906-0.2265625-1.2939453-0.4433594
		c-0.2890625-0.1201172-0.5273438-0.1806641-0.7138672-0.1806641c-0.1572266,0-0.3222656,0.0605469-0.4970703,0.1806641
		c-0.1757813,0.1210938-0.3173828,0.3046875-0.4257813,0.5517578h-0.3339844v-4.6298828h0.3339844
		c0.265625,1.3017578,0.7763672,2.2949219,1.5332031,2.9794922s1.5722656,1.0263672,2.4462891,1.0263672
		c0.6748047,0,1.2128906-0.1835938,1.6142578-0.5517578c0.4013672-0.3671875,0.6015625-0.7958984,0.6015625-1.2841797
		c0-0.2890625-0.0771484-0.5693359-0.2304688-0.8408203c-0.1542969-0.2714844-0.3876953-0.5292969-0.7011719-0.7734375
		s-0.8681641-0.5625-1.6640625-0.9541016c-1.1152344-0.5488281-1.9169922-1.015625-2.4052734-1.4013672
		s-0.8642578-0.8173828-1.1259766-1.2939453c-0.2626953-0.4755859-0.3935547-1-0.3935547-1.5732422
		c0-0.9765625,0.3583984-1.8085938,1.0761719-2.4960938s1.6220703-1.03125,2.7128906-1.03125
		c0.3984375,0,0.7841797,0.0488281,1.1582031,0.1445313c0.2832031,0.0732422,0.6279297,0.2070313,1.0351563,0.4033203
		c0.4072266,0.1953125,0.6914063,0.2939453,0.8544922,0.2939453c0.1572266,0,0.2802734-0.0488281,0.3710938-0.1455078
		c0.0898438-0.0957031,0.1748047-0.328125,0.2529297-0.6962891H257.7875977z"/>
</g>
</svg>
