<?xml version="1.0" encoding="UTF-8" standalone="no"?>
<svg
   xmlns:dc="http://purl.org/dc/elements/1.1/"
   xmlns:cc="http://creativecommons.org/ns#"
   xmlns:rdf="http://www.w3.org/1999/02/22-rdf-syntax-ns#"
   xmlns:svg="http://www.w3.org/2000/svg"
   xmlns="http://www.w3.org/2000/svg"
   xmlns:sodipodi="http://sodipodi.sourceforge.net/DTD/sodipodi-0.dtd"
   xmlns:inkscape="http://www.inkscape.org/namespaces/inkscape"
   preserveAspectRatio="xMinYMin meet"
   viewBox="0 0 300 47.390217"
   width="300"
   height="47.390217"
   version="1.1"
   id="svg1132"
   sodipodi:docname="Rossfrau2.svg"
   inkscape:version="0.92.1 r15371">
  <metadata
     id="metadata1138">
    <rdf:RDF>
      <cc:Work
         rdf:about="">
        <dc:format>image/svg+xml</dc:format>
        <dc:type
           rdf:resource="http://purl.org/dc/dcmitype/StillImage" />
        <dc:title></dc:title>
      </cc:Work>
    </rdf:RDF>
  </metadata>
  <defs
     id="defs1136" />
  <sodipodi:namedview
     pagecolor="#ffffff"
     bordercolor="#666666"
     borderopacity="1"
     objecttolerance="10"
     gridtolerance="10"
     guidetolerance="10"
     inkscape:pageopacity="0"
     inkscape:pageshadow="2"
     inkscape:window-width="958"
     inkscape:window-height="991"
     id="namedview1134"
     showgrid="false"
     inkscape:zoom="2.49375"
     inkscape:cx="79.763291"
     inkscape:cy="12.599999"
     inkscape:window-x="-8"
     inkscape:window-y="0"
     inkscape:window-maximized="0"
     inkscape:current-layer="svg1132"
     fit-margin-top="0"
     fit-margin-left="0"
     fit-margin-right="0"
     fit-margin-bottom="0" />
  <g
     id="g960"
     transform="scale(1.8805641)">
    <style
       id="style954">.st0{fill:#c3002d}</style>
    <g
       id="g958">
      <path
         style="fill:#c3002d"
         inkscape:connector-curvature="0"
         class="st0"
         d="m 68.3,5.7 c 0,-1.7 1.2,-3 2.8,-3.3 1.6,-0.3 3.6,0 4.6,1.3 0.1,0.2 0.3,0.4 0.4,0.6 0.1,0.1 0.2,0.3 0.5,0.3 h 0.5 c 0.1,0 0.4,-0.1 0.4,-0.3 C 77.5,3.8 77.4,2.2 77.4,2 77.4,1.7 77.3,1.6 77.1,1.5 76.3,1.1 75.4,0.9 74.5,0.7 72.4,0.3 70.3,0.4 68.3,1.3 66.5,2 65.2,3.5 64.6,5.4 c -0.4,1.5 -0.3,3.1 0.5,4.4 0.7,1.2 1.9,2 3.1,2.5 1.3,0.6 2.6,1 3.9,1.6 1.6,0.7 2.9,1.5 3.3,2.8 0.5,1.7 0.2,3.4 -1.2,4.6 -1.8,1.6 -6.7,1.4 -8.4,-1 -0.3,-0.4 -0.3,-0.7 -0.8,-0.7 -0.3,0 -0.7,0 -0.7,0.4 v 2.5 c 0,0.3 0,0.5 0.3,0.6 0.5,0.2 1.1,0.4 1.6,0.6 0.9,0.3 1.8,0.4 2.7,0.5 5.9,0.6 10.2,-2.4 10.2,-7.6 0,-1.8 -0.7,-3.7 -2.2,-4.8 -1.3,-0.9 -3,-1.5 -4.5,-2 C 71.5,9.5 70.5,9.2 69.7,8.7 68.8,8.1 68.3,7 68.3,5.7 M 18,23.4 c -0.4,-0.5 -7.1,-9 -7.4,-9.5 -0.2,-0.2 -0.1,-0.4 0.3,-0.5 1,-0.4 4.4,-1.9 4.5,-5.9 C 15.6,4.1 13.2,1 9.5,1 H 0.4 C 0.1,0.9 0,1.1 0,1.3 V 23.6 C 0,23.8 0.2,24 0.4,24 h 2.8 c 0.2,0 0.4,-0.1 0.4,-0.4 V 14.2 C 3.6,14 3.8,13.8 4,13.8 h 1.7 c 0.1,0 0.4,0 0.6,0.3 0.2,0.3 7.5,9.6 7.5,9.6 0.2,0.2 0.3,0.2 0.5,0.2 h 3.5 C 18,24 18.2,23.7 18,23.4 Z M 5.5,11.7 H 4 c -0.2,0 -0.4,-0.2 -0.4,-0.4 v -8 C 3.6,3.1 3.8,3 4,3 h 2.5 c 2.6,0 5,0.7 5,4 -0.1,1.7 -1,4.7 -6,4.7 z m 45.1,-6 C 50.6,4 51.8,2.7 53.4,2.4 55,2 56.9,2.3 58,3.7 c 0.1,0.2 0.3,0.4 0.4,0.6 0.1,0.1 0.2,0.3 0.5,0.3 h 0.5 c 0.1,0 0.4,-0.1 0.4,-0.3 C 59.8,3.8 59.7,2.2 59.7,2 59.7,1.7 59.6,1.6 59.4,1.5 58.6,1.1 57.7,0.9 56.8,0.7 54.7,0.3 52.6,0.4 50.6,1.3 48.8,2 47.5,3.5 47,5.4 c -0.4,1.5 -0.3,3.1 0.5,4.4 0.7,1.2 1.9,2 3.1,2.5 1.3,0.6 2.6,1 3.9,1.6 1.6,0.7 2.9,1.5 3.3,2.8 0.5,1.7 0.2,3.4 -1.2,4.6 -1.8,1.6 -6.7,1.4 -8.4,-1 -0.3,-0.4 -0.3,-0.7 -0.8,-0.7 -0.3,0 -0.7,0 -0.7,0.4 v 2.5 c 0,0.3 0,0.5 0.3,0.6 0.5,0.2 1.1,0.4 1.6,0.6 0.9,0.3 1.8,0.4 2.7,0.5 5.9,0.6 10.2,-2.4 10.2,-7.6 0,-1.8 -0.7,-3.7 -2.2,-4.8 -1.3,-0.9 -3,-1.5 -4.5,-2 C 53.9,9.5 52.9,9.2 52.1,8.7 51.1,8.1 50.6,7 50.6,5.7 m 81.8,8.6 c 0.1,0.2 0.1,0.3 -0.3,0.3 h -6.5 c -0.3,0 -0.3,-0.1 -0.2,-0.4 0.1,-0.2 3.2,-7.3 3.3,-7.6 0.1,-0.2 0.3,-0.2 0.4,0 0,0.4 3.2,7.6 3.3,7.7 z M 130.7,1.6 C 130.4,1 130.1,0.9 129.9,0.9 H 129 c -0.1,0 -0.2,0.1 -0.3,0.2 -0.1,0.1 -9.5,22 -9.6,22.4 -0.1,0.3 -0.1,0.4 0.2,0.4 h 1.7 c 0.2,0 0.3,-0.1 0.4,-0.3 0.1,-0.3 2.7,-6.2 2.8,-6.5 0.1,-0.3 0.4,-0.3 0.6,-0.3 h 8.4 c 0.1,0 0.3,0 0.5,0.3 0,0 2.8,6.3 2.9,6.5 0.1,0.2 0.3,0.3 0.4,0.3 h 3.2 c 0.3,0 0.4,-0.2 0.3,-0.4 C 140.3,23.4 131,2.1 130.7,1.6 Z m -13.4,21.7 c -0.4,-0.5 -7,-9 -7.4,-9.5 -0.2,-0.2 -0.1,-0.4 0.3,-0.5 1,-0.4 4.3,-1.9 4.5,-5.9 0.2,-3.4 -2.2,-6.5 -5.9,-6.5 h -9.1 c -0.2,0 -0.4,0.2 -0.4,0.4 v 22.3 c 0,0.2 0.2,0.4 0.4,0.4 h 2.8 c 0.2,0 0.4,-0.1 0.4,-0.4 v -9.3 c 0,-0.2 0.2,-0.4 0.4,-0.4 h 1.7 c 0.1,0 0.4,0 0.6,0.3 0.2,0.3 7.5,9.6 7.5,9.6 0.2,0.2 0.3,0.2 0.5,0.2 h 3.5 c 0.2,0 0.4,-0.4 0.2,-0.7 z M 104.8,11.7 h -1.5 c -0.2,0 -0.4,-0.2 -0.4,-0.4 v -8 c 0,-0.2 0.2,-0.4 0.4,-0.4 h 2.4 c 2.6,0 5,0.7 5,4 0,1.7 -0.8,4.8 -5.9,4.8 z M 159.2,0.9 h -1.6 c -0.2,0 -0.4,0.2 -0.4,0.4 v 12.4 c 0.1,5.5 -1.7,8.3 -5.4,8.4 -1.1,0 -2,-0.1 -2.8,-0.3 -0.8,-0.2 -1.5,-0.7 -2,-1.4 -0.5,-0.7 -1,-1.7 -1.3,-2.9 -0.2,-1 -0.3,-2.3 -0.4,-3.8 V 1.3 c 0,-0.3 -0.2,-0.4 -0.4,-0.4 h -2.8 c -0.2,0 -0.4,0.2 -0.4,0.4 v 14.2 c 0,1.6 0.3,8.8 8.6,8.8 3.1,0 5.5,-0.9 7.1,-2.6 1.6,-1.6 2.1,-4.2 2.1,-7.9 V 1.3 c 0.1,-0.2 -0.1,-0.4 -0.3,-0.4 z m -64.3,0 H 83.5 c -0.2,0 -0.4,0.2 -0.4,0.4 v 22.3 c 0,0.2 0.2,0.4 0.4,0.4 h 2.8 c 0.2,0 0.4,-0.1 0.4,-0.4 v -9.3 c 0,-0.2 0.2,-0.4 0.4,-0.4 H 94 c 0.2,0 0.4,-0.2 0.4,-0.4 V 12 c 0,-0.2 -0.2,-0.4 -0.4,-0.4 h -6.9 c -0.2,0 -0.4,-0.2 -0.4,-0.4 V 3.7 c 0,-0.2 0.2,-0.4 0.4,-0.4 h 7.8 c 0.2,0 0.4,-0.2 0.4,-0.4 V 1.3 C 95.2,1.1 95.1,0.9 94.9,0.9 Z M 31.2,0 c -7,0 -12.6,5.6 -12.6,12.6 0,7 5.6,12.6 12.6,12.6 7,0 12.6,-5.6 12.6,-12.6 C 43.8,5.6 38.2,0 31.2,0 Z m 0,2.2 c 3.4,0 6.4,1.6 8.3,4.2 -1,0.1 -3.6,0.2 -3.7,0.2 -0.2,0 -0.8,0 -1,-0.1 H 34.7 L 34.4,6.2 C 34.3,6 34.5,6 34.7,6.1 c 0.1,0 0.4,0.1 0.5,0 0.1,-0.1 0,-0.2 0.1,-0.3 0,-0.1 0.1,-0.1 0,-0.3 0.1,0 0.1,-0.1 0.1,-0.1 0,-0.2 0,-0.1 0.1,-0.2 C 35.7,5 35.4,4.9 35.3,4.7 35.2,4.6 35.3,4.5 35.3,4.4 35.3,4.3 35.2,4.2 35.2,4 35.2,3.9 35.3,3.8 35.3,3.7 35.3,3.6 35.2,3.5 35,3.4 34.5,3.1 33.7,3 33.2,3.3 32.9,3.5 32.7,3.7 32.6,4 c -0.1,0.1 -0.1,0.3 -0.2,0.3 -0.2,0.1 -0.3,0.1 -0.5,0.2 -0.2,0.3 -0.2,0.6 -0.1,0.9 0,0.2 0.1,0.6 -0.2,0.6 0.3,0.2 0.7,0.2 0.9,-0.1 0.2,-0.3 -0.1,-0.8 0,-1.1 0.1,0.3 0.5,0.5 0.6,0.8 0.1,0.3 0,0.5 -0.3,0.7 C 32.5,6.4 32.1,6.4 31.7,6.4 31.3,6.4 24,6.5 22.5,6.5 24.6,4 27.7,2.2 31.2,2.2 Z M 20.8,12.6 c 0,-1.8 0.5,-3.5 1.2,-4.9 0.9,0 2.9,0 4.9,0.1 1.3,0.1 4.3,0.2 4.8,0.3 0.5,0.1 0.9,1.4 1.1,2.4 0,0.1 0,0.4 -0.1,0.6 h -8.8 c -1,0 -1.5,0.4 -1.5,1.4 v 3.1 c 0,0.7 0.4,1.2 1.2,1.3 v -4.3 c 0,-0.3 0.1,-0.4 0.4,-0.4 h 0.8 c -0.1,0.6 -0.3,1.1 -0.4,1.7 -0.1,1 0.3,1.8 1,2.4 0.2,0.2 0.3,0.4 0.1,0.6 -0.3,0.5 -0.5,1 -0.8,1.5 -0.1,0.3 -0.1,0.4 0.1,0.7 1.2,1.2 2.5,2.4 3.7,3.7 -4.4,-1.4 -7.7,-5.4 -7.7,-10.2 z m 7.9,6.1 4.2,4.2 C 32.4,23 31.8,23 31.3,23 h -0.1 l -4.1,-4.1 c -0.2,-0.2 -0.2,-0.3 -0.1,-0.5 0.5,-1 1,-1.9 1.5,-2.9 0.1,-0.2 0.3,-0.4 0.6,-0.3 h 1 c -0.3,0.6 -0.6,1.2 -0.9,1.7 l -0.6,1.2 c -0.2,0.2 -0.2,0.4 0.1,0.6 z m 5.9,3.7 c -1.2,-1.2 -2.4,-2.5 -3.7,-3.7 -0.2,-0.2 -0.2,-0.3 -0.1,-0.6 0.5,-0.9 0.9,-1.7 1.3,-2.6 0.1,-0.2 0.3,-0.3 0.6,-0.3 h 2.6 c -0.2,0.5 -0.4,1 -0.7,1.5 -0.1,0.3 -0.1,0.5 0.2,0.7 0.9,0.5 0.9,0.6 1.3,-0.4 0.2,-0.5 0.4,-0.9 0.6,-1.3 0.1,-0.3 0.3,-0.5 0.7,-0.4 h 0.8 c -0.2,0.4 -0.3,0.8 -0.5,1.2 -0.1,0.2 -0.1,0.3 -0.2,0.5 -0.1,0.2 -0.1,0.3 0.1,0.5 0.3,0.1 0.5,0.3 0.7,0.5 0.2,0.1 0.3,0.1 0.4,-0.1 0.4,-0.9 0.8,-1.7 1.1,-2.7 0.3,-0.9 -0.2,-1.6 -1.1,-1.6 h -1.2 c 0,0 -0.5,0.1 -0.7,-0.3 C 36.4,12.5 36.2,11.4 36.1,11 36,10.7 35.9,9.7 36.2,9.6 36.7,9.4 36.8,8.9 36.5,8.5 36.2,8.1 35.9,7.9 36.2,7.8 c 0.1,0 1.3,-0.1 2,-0.2 0.6,-0.1 1.4,-0.2 1.9,-0.2 1,1.6 1.5,3.4 1.5,5.4 0,4.3 -2.9,8.2 -7,9.6 z"
         id="path956" />
    </g>
  </g>
</svg>
