<?xml version="1.0" encoding="UTF-8" standalone="no"?>
<svg
   xmlns:svg="http://www.w3.org/2000/svg"
   xmlns="http://www.w3.org/2000/svg"
   version="1.0"
   width="748"
   height="100"
   viewBox="-0.797 -0.917 748 100"
   id="svg2920"
   xml:space="preserve">
	<defs
   id="defs2922">
	</defs>
	<g
   id="g2924">
		<path
   d="M 223.424,28.933 C 223.424,9.95 209.153,0 190.825,0 C 171.448,0 151.549,9.557 151.549,31.159 C 151.549,47.917 169.616,53.939 182.839,57.213 C 190.956,59.307 204.441,60.094 204.441,71.221 C 204.441,81.303 193.706,83.789 185.588,83.789 C 174.984,83.789 168.961,76.719 169.746,66.246 L 149.061,66.246 C 148.406,90.074 163.724,98.453 185.326,98.453 C 205.619,98.453 226.043,90.336 226.043,66.9 C 226.043,47.917 204.833,43.858 190.432,40.192 C 182.315,38.229 173.151,37.05 173.151,26.838 C 173.151,18.59 180.745,14.663 188.207,14.663 C 198.026,14.663 203.133,19.376 203.918,28.933 L 223.424,28.933 L 223.424,28.933 L 223.424,28.933 z"
   id="path2926"
   style="fill:#2098bf" />
		<path
   d="M 252.276,96.488 L 259.345,76.457 L 296.788,76.457 L 303.596,96.488 L 324.02,96.488 L 291.159,1.963 L 267.07,1.963 L 232.899,96.487 L 252.276,96.487 L 252.276,96.488 L 252.276,96.488 z M 264.583,60.748 L 278.46,20.424 L 278.722,20.424 L 291.683,60.748 L 264.583,60.748 L 264.583,60.748 L 264.583,60.748 z"
   id="path2928"
   style="fill:#2098bf;fill-rule:evenodd" />
		<path
   d="M 354.243,80.777 L 354.243,55.64 L 370.085,55.64 C 379.642,55.64 386.187,57.343 386.187,68.208 C 386.187,79.075 379.642,80.776 370.085,80.776 L 354.243,80.776 L 354.243,80.777 L 354.243,80.777 z M 354.243,39.93 L 354.243,17.674 L 370.085,17.674 C 378.595,17.674 383.308,21.209 383.308,28.802 C 383.308,36.395 378.595,39.93 370.085,39.93 L 354.243,39.93 L 354.243,39.93 L 354.243,39.93 z M 369.691,96.488 C 384.224,97.535 407.789,90.728 407.789,72.006 C 407.789,58.129 398.887,49.881 386.973,47.394 L 386.973,47.132 C 396.401,43.989 403.6,36.789 403.6,26.446 C 403.6,7.987 386.319,0.916 369.43,1.964 L 333.95,1.964 L 333.95,96.488 L 369.691,96.488 L 369.691,96.488 L 369.691,96.488 z"
   id="path2930"
   style="fill:#2098bf;fill-rule:evenodd" />
		<path
   d="M 432.845,96.488 L 439.913,76.457 L 477.356,76.457 L 484.165,96.488 L 504.589,96.488 L 471.728,1.963 L 447.638,1.963 L 413.468,96.487 L 432.845,96.487 L 432.845,96.488 L 432.845,96.488 z M 445.152,60.748 L 459.029,20.424 L 459.291,20.424 L 472.252,60.748 L 445.152,60.748 L 445.152,60.748 L 445.152,60.748 z"
   id="path2932"
   style="fill:#2098bf;fill-rule:evenodd" />
		<path
   d="M 577.623,61.794 L 577.623,81.694 C 572.256,82.741 566.889,83.788 558.771,83.788 C 540.833,83.788 532.193,70.565 532.193,49.225 C 532.193,27.885 540.834,14.662 558.771,14.662 C 569.898,14.662 577.753,18.72 577.753,30.765 L 599.355,30.765 C 599.224,8.248 582.335,0 554.974,0 C 536.251,0 510.591,11.652 510.591,49.226 C 510.591,86.8 536.251,98.453 554.974,98.453 C 567.412,98.453 572.124,97.93 576.706,97.535 C 584.038,96.881 590.976,95.572 597.915,93.346 L 597.915,46.084 L 559.163,46.084 L 559.163,61.794 L 577.623,61.794 L 577.623,61.794 L 577.623,61.794 z"
   id="path2934"
   style="fill:#2098bf" />
		<polygon
   points="0,3.542 120.472,3.542 120.472,9.211 0,9.211 0,3.542 0,3.542 "
   id="polygon2936"
   style="fill:#2098bf" />
		<polygon
   points="0,24.093 120.472,24.093 120.472,29.763 0,29.763 0,24.093 0,24.093 "
   id="polygon2938"
   style="fill:#2098bf" />
		<polygon
   points="0,46.062 120.472,46.062 120.472,51.732 0,51.732 0,46.062 0,46.062 "
   id="polygon2940"
   style="fill:#2098bf" />
		<polygon
   points="0,68.455 120.472,68.455 120.472,74.125 0,74.125 0,68.455 0,68.455 "
   id="polygon2942"
   style="fill:#2098bf" />
		<polygon
   points="0,90 120.472,90 120.472,95.667 0,95.667 0,90 0,90 "
   id="polygon2944"
   style="fill:#2098bf" />
		<polygon
   points="626.425,3.408 746.896,3.408 746.896,9.078 626.425,9.078 626.425,3.408 626.425,3.408 "
   id="polygon2946"
   style="fill:#2098bf" />
		<polygon
   points="626.425,23.959 746.896,23.959 746.896,29.629 626.425,29.629 626.425,23.959 626.425,23.959 "
   id="polygon2948"
   style="fill:#2098bf" />
		<polygon
   points="626.425,45.928 746.896,45.928 746.896,51.597 626.425,51.597 626.425,45.928 626.425,45.928 "
   id="polygon2950"
   style="fill:#2098bf" />
		<polygon
   points="626.425,68.322 746.896,68.322 746.896,73.992 626.425,73.992 626.425,68.322 626.425,68.322 "
   id="polygon2952"
   style="fill:#2098bf" />
		<polygon
   points="626.425,89.865 746.896,89.865 746.896,95.535 626.425,95.535 626.425,89.865 626.425,89.865 "
   id="polygon2954"
   style="fill:#2098bf" />
	</g>
</svg>