<?xml version="1.0" encoding="UTF-8"?>
<svg width="600" height="200" version="1.1" xmlns="http://www.w3.org/2000/svg">
 <path d="m10 190.29v-180.58h580v180.58z" fill="#fff"/>
 <path d="m13.58 13.29h572.84v173.41h-572.84z" fill="#007e55"/>
 <path d="m549.69 76.81 13.02 0.82201 4.6578-20.417c-6.9866-1.5069-14.247-2.0549-21.376-2.0549-7.9456 0-16.17 0.95898-23.157 4.7948-6.718 3.8358-11.376 10.691-11.376 18.499 0 9.7265 8.4989 16.17 15.212 22.061 3.2879 2.8769 8.0826 6.17 8.0826 11.102 0 5.4798-4.1098 7.9456-9.1786 7.9456-3.5618 0-8.3619-0.95893-11.376-2.8768l0.54792-7.5347-13.014-0.82196-4.8 19.869c9.0468 2.8768 18.91 4.5208 28.505 4.5208 7.8086 0 16.855-1.37 23.431-5.622 6.1647-3.9728 10.828-11.37 10.828-18.768 0-10.143-8.7729-16.308-15.76-22.066-3.4248-2.7398-8.9098-6.5757-8.9098-11.644 0-4.389 4.6578-6.3017 8.4989-6.3017 2.4659 0 4.3838 0.6797 6.7127 1.644l-0.548 6.8496m-69.966-20.83-33.985 0.82196-1.7809 13.157 5.6168 0.82196-0.26872 3.2878-6.718 35.492-5.0688 21.513h27.267l5.485-26.445c5.0688-9.0468 16.308-25.765 27.815-25.765 2.6029 0 4.9318 0.96423 6.8549 2.603l9.0416-24.253c-1.9179-1.3699-3.6988-1.6439-6.0277-1.6439-15.349 0-29.875 19.869-34.67 33.026h-1.6439l8.0826-32.615m-41.111 51.525c-9.7266 4.9318-22.335 9.5896-33.3 9.5896-7.5346 0-13.842-3.5619-13.842-11.918 18.91 0.54799 46.731-11.513 46.731-33.437 0-5.2058-2.6029-9.4578-6.7127-12.472-4.3891-3.2879-9.3208-4.1098-14.801-4.1098-13.842 0-26.998 6.4387-36.314 16.718-8.4989 9.3209-15.349 23.294-15.349 36.177 0 17.403 16.17 24.664 31.245 24.664 13.425 0 26.582-3.4248 39.054-8.2196zm-45.772-15.212c0.95898-6.8497 6.444-22.335 14.938-22.335 4.2521 0 6.4387 3.5618 6.4387 7.5346 0 4.9371-2.8769 9.1839-6.9867 11.787-4.2468 2.7398-9.4525 2.8768-14.39 3.0138m-65.935 39.602 34.122-0.82196 1.7809-13.157-5.622-0.82193 0.54795-5.7537 12.883-66.184 4.9318-20.554-34.802 0.81671-1.7809 13.157 5.6167 0.822-0.41099 5.759-2.1919 10.959-7.266-0.95898c-12.329-1.6438-28.089 8.088-37.541 20.006-8.3619 10.554-15.349 25.212-15.349 38.917 0 8.9099 5.4798 18.636 15.349 18.636 16.165 0 30.966-19.047 36.172-33.026h1.6439zm9.7265-49.465c-3.6988 6.3017-17.814 28.911-25.075 28.911-2.4659 0-3.2878-2.466-3.2878-4.5208 0-7.403 3.5618-17.951 6.7127-24.806 3.0138-6.4387 7.5399-14.521 15.623-14.521 3.1509 0 5.6167 1.3699 8.3619 2.8769l-2.3342 12.061m-98.092-26.451-33.985 0.82196-1.9179 13.157 5.7537 0.82196-0.6797 5.7538-6.718 34.807-4.6578 19.732h27.267l5.0741-25.623c3.2878-5.3428 16.987-27.683 22.746-27.683 1.6439 0 2.3288 1.5069 1.0959 7.6769l-5.0687 25.897-4.8 19.732h34.67l1.918-13.151-5.7537-0.82722 0.41099-5.7537 6.17-31.93c3.4248-17.54-2.3342-24.253-12.061-24.253-16.308 0-30.56 19.595-35.903 33.437h-1.6492l8.0879-32.615m-81.421 75.916 34.122-0.82197 1.9179-13.157-5.759-0.82193 0.41624-5.7537 6.4386-33.163 5.2058-22.198-19.047 0.82197h-3.5619l-12.746-1.6439c-15.623 0-27.267 8.088-36.72 20.006-8.2249 10.554-15.217 25.212-15.217 38.917 0 8.9099 5.485 18.636 15.349 18.636 16.17 0 30.971-19.047 36.04-33.026h1.6439zm9.7265-48.643c-3.6988 6.3017-17.672 28.911-24.938 28.911-2.4659 0-3.2878-2.466-3.2878-4.5208 0-7.5399 3.5618-17.951 6.5757-24.806 3.0138-6.4387 7.5399-14.521 15.623-14.521 3.1509 0 5.7537 1.3699 8.3619 2.8769l-2.3342 12.061m-135.57 46.97c9.5159 2.2709 19.311 3.409 28.974 3.409 11.075 0 22.862-1.4226 32.52-7.2449 9.089-5.5377 17.182-16.049 17.182-27.125 0-15.338-14.627-24.569-25.418-32.525-4.9686-3.6936-13.067-8.3777-13.067-15.338 0-7.8086 7.3871-11.929 14.342-11.929 4.6894 0 9.658 1.4226 13.778 3.5513l-0.42679 6.8127 13.494 0.85358 4.8264-20.022c-9.9426-2.8453-20.164-4.8317-30.392-4.8317-10.369 0-19.885 1.8494-28.263 8.0932-7.6664 5.8275-13.352 15.059-13.352 25.001 0 13.631 9.9426 21.018 20.312 27.978 6.9604 4.6841 15.196 9.9426 15.196 19.316 0 9.089-8.2354 13.773-16.476 13.773-5.1109 0-10.227-1.2803-15.053-2.5554l0.85358-9.5158-13.494-0.85359-5.5377 23.152m521.42 14.866h-3.0297v21.134h-0.0739c-1.7809-2.6556-11.55-14.242-17.382-21.134h-2.7293v26.508h3.0297v-21.092h0.079c1.586 2.3078 11.471 14.2 17.23 21.092h2.8769v-26.508m-50.646 0h-13.062v26.508h14.69v-2.6503h-11.017v-10.001h9.1996v-2.6503h-9.1996v-8.5568h9.3894zm-46.629 26.508v-23.858h8.5199v-2.6503h-20.676v2.6503h8.4831v23.858zm-49.624-26.508h-3.6725v26.508h3.6725v-13.747h0.0739l11.666 14.126 3.5987-1.4016-11.629-13.441 10.264-10.796-2.4975-1.6281-11.476 12.235zm-42.728 2.6508h3.1404c2.4659 0 4.5103 1.2487 4.5103 4.505 0 2.234-0.86942 5.7169-5.5693 5.7169h-2.0813zm-3.6725 23.858h3.6725v-10.981h3.8991l6.1331 11.434 3.7147-1.138-6.5915-11.281c2.5396-1.6282 4.4312-3.8253 4.4312-7.7244 0-4.584-3.3668-6.8181-7.6874-6.8181h-7.5714v26.508m-37.389-26.509-10.791 26.508h3.5566l2.84-7.8034h10.111l2.7293 7.8034h4.2416l-9.8846-26.508zm-3.3722 16.055c1.4384-3.6725 2.84-7.345 4.2046-12.119h0.0739c1.3278 4.7737 2.6135 8.4462 3.9412 12.119h-8.2196m-32.127-16.055h-3.4459c-3.7094 7.0446-7.4609 14.126-11.207 21.587-3.3721-7.4608-6.7812-14.542-10.19-21.587h-3.9359v26.508h3.0297v-21.587h0.0739c1.0222 3.4882 6.5125 14.811 9.8108 21.587h1.4754c3.5566-6.7759 9.579-18.478 10.638-21.587h0.079v21.587h3.6725v-26.508m-67.836 2.6508h3.1456c2.4606 0 4.505 1.2487 4.505 4.505 0 2.234-0.86939 5.7169-5.5693 5.7169h-2.0813zm-3.6724 23.858h3.6724v-10.981h3.8991l6.1384 11.434 3.7094-1.138-6.5915-11.281c2.5396-1.6282 4.4312-3.8253 4.4312-7.7244 0-4.584-3.3669-6.8181-7.6874-6.8181h-7.5715v26.508m-27.432-26.509h-13.062v26.508h14.69v-2.6503h-11.017v-10.001h9.1997v-2.6503h-9.1997v-8.5568h9.3894zm-51.405 2.6508h2.5344c3.9412 0 5.5693 2.1181 5.5693 5.0372 0 3.936-2.2341 5.8328-5.7959 6.0225l-1.2119 0.0356v2.4237h1.175c5.9487 0 9.7687-4.0518 9.7687-8.5199 0-5.1531-3.4459-7.6505-9.0469-7.6505h-6.6652v26.508h3.6724v-23.858m-51.859-2.6509v16.207c0 6.818 2.9928 10.754 10.454 10.754 6.3965 0 10.069-4.2415 10.069-10.185v-16.776h-3.4459v16.703c0 3.7831-1.665 7.7243-6.6231 7.7243-4.7368 0-6.7812-2.8768-6.7812-8.3724v-16.055h-3.6725m-26.819 2.1967c-1.4753-1.665-3.7884-2.6503-6.5493-2.6503-4.1309 0-7.5768 2.6872-7.5768 6.249 0 3.7462 2.4606 5.3744 4.6578 7.0815 2.1603 1.5913 6.1383 3.7463 6.1383 7.0816 0 2.9506-2.0075 4.3522-4.6209 4.3522-2.5027 0-4.2046-1.2119-5.759-2.3079l-1.6281 2.1972c1.8968 1.8547 4.9265 2.7609 7.4609 2.7609 4.2416 0 8.2196-2.7241 8.2196-6.9287 0-3.409-2.1234-5.8328-5.759-8.483-3.409-2.4606-5.0371-3.8622-5.0371-5.7538 0-2.0444 1.4805-3.5987 4.1309-3.5987 1.5912 0 3.2931 0.94839 4.5788 1.8916l1.744-1.8916" fill="#fff"/>
</svg>
