<?xml version="1.0" encoding="UTF-8"?>
<svg width="1924px" height="183px" viewBox="0 0 1924 183" version="1.1" xmlns="http://www.w3.org/2000/svg" xmlns:xlink="http://www.w3.org/1999/xlink">
    <title>Untitled</title>
    <g id="Page-1" stroke="none" stroke-width="1" fill="none" fill-rule="evenodd">
        <g id="logo-schaapcitroen" fill="#000000" fill-rule="nonzero">
            <g id="Group">
                <path d="M955.781738,0.7926483 C950.265015,24.1172638 943.340088,46.0657043 936.967041,68.9743347 L926.790039,85.5175171 C926.369018,76.1789856 923.831787,66.858551 928.063721,57.9341736 L943.340088,0.6919556 C947.0625,0.3821411 951.517578,0.6318054 955.781738,0.7926483 L955.781738,0.7926483 Z" id="Path"></path>
                <path d="M229.11673,35.0516357 L225.29538,51.1647338 C221.485962,50.3084716 218.090729,46.0657043 214.691864,42.6668395 C200.703613,32.498474 177.80368,29.1050719 162.102966,37.5783385 C140.471619,49.8765563 135.384918,76.6141661 138.780167,101.18634 C141.320618,118.578522 154.048965,135.549652 171.020081,140.63092 C191.374115,147.018097 212.154663,140.63092 226.569031,126.228882 C227.841248,125.790069 229.11673,126.649933 229.11673,127.920288 L227.841248,138.946686 C207.487213,154.626068 172.708282,154.626068 149.383316,144.905609 C131.565002,135.549652 119.692902,117.73642 117.576767,98.2349852 C114.611633,72.7855528 123.084518,48.6134032 143.444,35.4621886 C167.621216,21.047821 204.514832,21.8953552 229.11673,35.0516357 L229.11673,35.0516357 Z" id="Path"></path>
                <path d="M76.4316711,35.0516357 L70.4959869,49.0289917 C66.6742553,47.7658691 65.8267059,42.2562866 62.0173034,39.7031555 C53.9582214,32.4984741 40.3859557,30.3682556 30.6318054,35.4621887 C25.113182,38.4258728 21.7302513,42.6668396 20.8794517,48.1763916 C19.6036109,53.2703552 20.8794517,58.3693542 22.9883422,62.6157837 C39.5384215,82.1204529 81.5219878,77.4635315 78.9761047,113.075867 C78.9761047,125.79007 73.0473022,135.992096 63.291336,143.200012 C47.5906066,154.226379 22.5759887,152.941834 6.0295371,144.024719 C-6.7002603,141.091125 5.1787299,131.313751 4.3311881,124.526916 C8.1529197,127.499268 11.1252936,132.998352 15.3575629,135.992096 C23.8431319,143.624634 36.9852904,144.905609 48.0185546,141.919098 C53.5371703,139.80658 58.622055,134.70755 61.1628722,130.046967 C63.2913359,123.677551 63.7142028,116.048218 61.1628722,110.107056 C47.1695555,89.7461548 13.6588553,94.8379517 5.6048545,68.5355225 C2.6342963,57.5131226 5.6048545,46.0657044 12.3884544,38.0080872 C23.4166488,24.4466858 42.082489,24.4466858 59.043106,26.9730072 C64.9878693,28.6680908 71.7714539,30.3682556 76.4316711,35.0516357 L76.4316711,35.0516357 Z" id="Path"></path>
                <path d="M1170.2312,35.4621887 C1169.3783,40.5612182 1168.53625,46.4813232 1167.69409,51.5752563 C1166.41309,53.7055358 1164.297,52.0140686 1163.4408,50.7295227 C1151.57227,35.0516357 1129.09155,31.6509705 1110.43225,36.7253418 C1093.47559,41.8193054 1083.7124,59.6289063 1081.17163,76.6141663 C1078.62756,100.786316 1083.7124,124.098602 1103.65271,137.6763 C1120.1814,147.018097 1145.21704,146.133606 1160.48218,134.70755 C1164.297,132.598267 1166.84473,126.649933 1171.08752,127.920288 C1171.92957,131.734802 1170.65601,136.391754 1170.2312,140.63092 C1148.17847,155.510925 1113.40503,157.619812 1089.65393,144.905609 C1066.33069,131.734802 1057.84192,105.022217 1060.39319,78.7266845 C1062.08472,57.9341735 1076.0835,40.1242065 1095.15991,31.6509704 C1118.06885,23.5991058 1149.021,24.4466858 1170.2312,35.4621887 L1170.2312,35.4621887 Z" id="Path"></path>
                <path d="M378.406555,27.4049225 C377.131073,67.6864929 375.434204,110.223785 378.406555,149.671967 L358.901856,149.527039 C359.322906,130.889435 359.322906,110.107056 358.901856,90.5918885 C336.844025,88.4757691 313.517609,89.3283692 291.038757,89.7461549 C290.186127,108.41565 290.186127,130.588349 291.038757,149.671967 L271.526794,149.527039 C271.948212,109.678803 273.650177,67.2687379 271.526794,27.4049225 L291.038757,27.4049225 C291.038757,43.9549867 288.91571,60.9134523 290.607178,77.4635316 C314.366974,79.1408387 334.721008,79.990204 358.475372,78.2878724 C359.322907,61.762787 359.322907,44.3706056 357.19989,28.6680909 L356.456726,27.4049225 L378.406555,27.4049225 L378.406555,27.4049225 Z" id="Path"></path>
                <path d="M1360.66431,28.2575378 L1360.22559,40.1242065 C1348.79224,39.7031555 1336.49548,38.4258728 1324.19177,38.8556213 C1322.94641,74.5194091 1323.73889,112.131195 1324.77588,149.827789 L1304.99146,149.990478 L1304.68347,147.839203 C1306.38586,112.230133 1305.5365,75.7684326 1304.26965,39.273407 C1291.53772,38.0080872 1278.38147,39.7031555 1265.67041,40.1242066 C1265.23889,35.8778077 1265.23889,31.6509705 1265.23889,27.4049225 C1297.89294,29.5210571 1328.85242,29.105072 1360.66431,28.2575378 L1360.66431,28.2575378 Z" id="Path"></path>
                <path d="M1227.9137,28.2575378 C1227.9137,68.5355224 1226.66113,111.069519 1230.04761,150.493072 L1210.10779,150.411499 C1210.10779,110.107056 1210.51794,67.6864929 1208.40906,28.2575378 L1208.84058,27.8205108 C1215.17847,28.6680908 1221.55481,28.6680908 1227.9137,28.2575378 L1227.9137,28.2575378 Z" id="Path"></path>
                <path d="M1771.21191,28.6680908 C1770.30969,31.9060669 1770.17883,35.6089477 1770.36987,39.273407 C1755.92542,38.4258728 1740.66345,38.0080872 1725.41211,38.4258728 C1724.55908,52.4246216 1723.29224,66.4266357 1725.41211,80.8359375 C1738.98975,82.1204529 1752.53516,80.4181519 1766.53394,79.9902039 C1766.12024,83.8188172 1766.97644,88.061554 1765.70959,91.0234681 C1752.97766,89.7461549 1738.98975,89.7461549 1725.41211,89.7461549 L1724.1134,91.0234681 L1724.55908,139.80658 C1740.25293,141.490784 1756.37109,139.80658 1772.06494,139.385529 C1772.47546,142.740173 1772.06494,145.889343 1772.47546,149.707489 C1750.85828,149.286438 1727.51733,149.527039 1705.48962,149.527039 C1707.59888,110.107056 1706.74255,67.2687379 1705.90015,28.257538 C1727.10718,29.9580688 1750.01575,29.105072 1771.21191,28.6680908 L1771.21191,28.6680908 Z" id="Path"></path>
                <path d="M1824.2345,30.3682556 C1852.64221,61.3312378 1883.6012,91.023468 1912.85864,119.442017 C1913.71851,90.1777039 1912.01624,60.0644531 1910.75671,31.2212219 L1923.87415,31.2212219 C1921.76855,69.8200683 1922.62146,110.949219 1922.62146,150.811584 C1918.37512,153.805328 1914.56067,149.12735 1911.58826,145.73352 C1885.74243,118.178497 1855.1936,87.6300353 1828.44873,62.6157836 L1827.62793,66.4266357 C1828.44873,94.4169006 1827.62793,123.2565 1830.58984,150.411499 L1816.59106,150.411499 C1819.13513,110.949219 1817.85425,70.2305908 1817.44373,30.8038025 C1818.71777,29.5210571 1822.11121,29.9580688 1824.2345,30.3682556 L1824.2345,30.3682556 Z" id="Path"></path>
                <path d="M796.592529,44.8021851 C800.8302,54.126587 799.135132,67.2687378 794.894165,75.7684327 C783.020264,94.4169007 760.113037,96.1224671 738.483521,94.8379517 C737.211304,112.654785 737.637817,131.313751 738.904602,148.705933 C732.973999,149.12735 725.328735,148.302612 718.97522,149.527039 C720.670288,109.257752 720.670288,67.686493 718.97522,27.4049226 L719.828247,26.5624543 C746.109253,30.3682556 782.595581,17.2224731 796.592529,44.8021851 L796.592529,44.8021851 Z M738.483521,35.8778076 C737.637817,52.4246216 737.637817,69.8200683 738.483521,86.3701477 C751.629334,87.2122498 766.896668,87.2122498 774.111816,75.7684326 C778.773865,68.5355224 781.321899,57.5131225 777.075501,49.0289917 C770.716553,34.614624 752.90332,34.614624 738.483521,35.8778076 L738.483521,35.8778076 Z" id="Shape"></path>
                <path d="M1651.1864,60.4746399 C1660.08972,78.2878723 1659.24731,105.864319 1649.07385,122.835449 C1634.22253,147.018097 1606.66748,157.619812 1577.38904,153.805328 C1553.2168,151.232636 1530.30786,134.282868 1523.95251,110.528168 C1518.86401,86.7806702 1522.31799,60.3191834 1541.34473,43.5194398 C1561.68103,25.5489503 1596.05518,23.5991059 1621.48694,32.9144898 C1633.37683,38.0080872 1644.82751,49.0289917 1651.1864,60.4746399 L1651.1864,60.4746399 Z M1599.86975,37.1659546 C1585.01831,33.7670899 1569.34229,37.1659546 1558.30542,46.9183045 C1542.1731,62.1802369 1540.48157,85.9313355 1544.30664,107.573547 C1548.14246,124.098602 1560.85669,142.340149 1579.07361,145.312531 C1595.62329,147.839203 1610.88525,144.44577 1621.48694,132.998352 C1639.29333,114.342651 1639.29333,80.4181519 1628.69885,58.3693543 C1623.18921,46.9183044 1611.75598,40.1242065 1599.86975,37.1659546 L1599.86975,37.1659546 Z" id="Shape"></path>
                <path d="M1475.18042,46.4813232 C1478.99475,54.1265869 1477.28931,63.8753051 1474.32739,71.079956 C1467.12634,82.1204528 1456.52136,88.0615539 1443.36829,89.7461547 L1445.04565,93.574768 C1459.91846,112.654785 1474.32739,130.889435 1490.03528,149.527039 C1483.23401,151.232635 1474.32739,149.12735 1466.69482,150.811584 C1451.422,130.889435 1437.01306,109.678802 1419.62085,91.4408874 C1418.77515,91.8728027 1417.92212,91.4408874 1417.06958,91.8728027 C1416.63757,111.388031 1416.63757,131.734802 1417.92212,150.411499 L1397.99646,150.811584 L1397.56812,147.418152 C1400.96191,108.415649 1399.26685,66.858551 1397.56812,28.2575378 C1424.27747,32.4984741 1461.60986,18.0645752 1475.18042,46.4813232 L1475.18042,46.4813232 Z M1417.5116,38.0080872 C1416.63757,52.8598023 1416.63757,68.9743348 1417.5116,84.2366028 C1431.51038,84.6681519 1447.61804,84.6681519 1454.82996,71.5151367 C1459.05493,63.8753052 1458.22339,53.2703552 1453.53809,46.0657043 C1445.04565,35.8778076 1430.22583,36.315155 1417.5116,38.0080872 L1417.5116,38.0080872 Z" id="Shape"></path>
                <path d="M535.323914,148.302612 C528.545715,149.12735 520.914612,147.018097 513.699463,149.527039 C507.763733,133.840454 501.126953,117.778809 494.354187,102.930725 C479.706116,102.870575 464.484741,102.973114 448.922119,103.054626 C442.127991,117.895508 436.508667,133.440765 431.421936,148.705933 L416.572388,149.12735 C419.121887,141.091125 424.211853,132.998352 427.596619,125.38678 C442.871216,91.8728027 456.453979,58.7798767 471.284302,25.2746582 L478.9151,25.7098389 L535.323914,148.302612 L535.323914,148.302612 Z M470.012085,52.4246216 C464.079651,65.5809021 458.139954,79.1408386 452.625366,92.729065 L489.108032,93.5747681 C481.618591,75.9101257 475.912659,62.5697632 470.012085,52.4246216 L470.012085,52.4246216 Z" id="Shape"></path>
                <path d="M626.943543,38.8556213 L674.86499,144.024719 C675.61145,145.31253 676.462586,147.018097 677.418152,148.705933 C670.197571,148.705933 662.465698,147.255402 656.20929,149.527039 L654.503723,147.018097 C649.836609,131.734802 642.631958,117.336395 635.848389,102.891937 L591.311646,102.891937 C584.528076,117.73642 578.592041,132.998352 574.340515,148.705933 L559.505127,149.12735 C562.903625,138.104614 570.108276,127.920288 574.340515,116.890686 C587.070679,86.3701477 601.069458,56.2532348 613.797791,25.2746582 L621.423157,25.7098389 L626.943543,38.8556213 L626.943543,38.8556213 Z M612.520142,52.4246216 C605.736511,65.5809021 601.069458,79.1408386 595.552612,92.729065 L631.60199,93.1359864 C626.092407,79.1408386 619.303711,65.5809021 612.520142,52.4246216 L612.520142,52.4246216 Z" id="Shape"></path>
                <path d="M918.31134,91.4408875 L899.650574,97.3928833 L833.484314,97.3928833 C834.296326,93.0334167 835.872925,88.9533386 836.725525,85.1424866 L900.928223,85.329834 C906.428711,85.7686157 913.222839,88.475769 918.31134,91.4408875 L918.31134,91.4408875 Z" id="Path"></path>
                <path d="M1011.87537,85.1424866 C1011.12891,89.2221985 1009.44434,94.1940308 1008.43958,97.3928833 L946.723022,97.3928833 L932.310059,91.4408875 C942.487061,85.0819703 956.475342,85.7686158 969.621094,85.329834 L1011.87537,85.1424866 L1011.87537,85.1424866 Z" id="Path"></path>
                <path d="M924.66333,115.18512 C919.158875,138.104614 911.954224,159.73233 906.428711,182.223511 C902.622925,182.623566 898.376892,182.623566 894.556946,182.223511 C900.071594,159.311279 906.855225,135.992096 913.22284,112.654785 L923.831787,96.5293884 L924.66333,115.18512 L924.66333,115.18512 Z" id="Path"></path>
            </g>
        </g>
    </g>
</svg>