<svg width="2070" height="389" xmlns="http://www.w3.org/2000/svg" xmlns:xlink="http://www.w3.org/1999/xlink" xml:space="preserve" overflow="hidden"><defs><clipPath id="clip0"><rect x="1165" y="1043" width="2070" height="389"/></clipPath></defs><g clip-path="url(#clip0)" transform="translate(-1165 -1043)"><path d="M1757.17 1174.15 1864.66 1204.86C1892.54 1213.43 1966 1219.31 1966 1321.89 1966 1367.01 1928.61 1420.48 1860.13 1428.41 1846.85 1429.94 1766.59 1430.69 1757.5 1429.16 1721.7 1423.06 1641 1424.22 1641 1293.01L1728.44 1293.01 1730.42 1315.83C1733.72 1332.56 1754.96 1350.8 1794.04 1351.78 1812.49 1352.24 1835.53 1352.55 1849.18 1346.91 1864.85 1340.43 1876.55 1333.38 1875.6 1317.07 1875 1306.97 1872.37 1295.52 1843.43 1286.5 1810.43 1276.22 1776.85 1268.04 1743.56 1258.81 1721.48 1252.19 1648.78 1238.33 1646.7 1152.6 1646.7 1046.38 1746.24 1046.04 1754.19 1044.88 1758.15 1044.27 1783.67 1043.99 1809.06 1044 1834.45 1044.01 1859.71 1044.32 1863.15 1044.88 1958.09 1060.67 1960 1126.74 1960 1164.91L1869.6 1164.91C1868.68 1153.77 1870.88 1139.62 1862.22 1132.91 1851.91 1124.92 1843.91 1120.82 1805.17 1120.5 1787.89 1120.36 1770.43 1121.61 1758.75 1126.85 1747.08 1132.08 1735.39 1138.25 1735.11 1151.9 1734.84 1165.56 1748.43 1171.59 1757.17 1174.15Z" fill="#231815" fill-rule="evenodd"/><path d="M2385 1054 2473 1054 2473 1426 2385 1426 2385 1054Z" fill="#231815" fill-rule="evenodd"/><path d="M2508 1054 2607.13 1054 2694.56 1208.3 2779.07 1054 2881 1054 2736.6 1303.56 2736.6 1426 2650.68 1426 2650.68 1303.6 2508 1054Z" fill="#231815" fill-rule="evenodd"/><path d="M2912 1054 2997.51 1054 2997.51 1295.62C2997.51 1317.92 3015.37 1354.06 3075.1 1354.06 3134.83 1354.06 3149.44 1317.92 3149.44 1295.62L3149.44 1054 3235 1054 3235 1307.19C3235 1378.2 3163.99 1425.7 3120.84 1428.74 3109.55 1429.61 3048.39 1431.07 3027.91 1428.74 2970.32 1422.62 2912 1371.07 2912 1296.14L2912 1054Z" fill="#231815" fill-rule="evenodd"/><path d="M2027 1054 2314 1054 2314 1142.36 2113.21 1142.36 2113.21 1196.98 2314 1196.98 2314 1278.43 2113.21 1278.43 2113.21 1337.6 2314 1337.6 2314 1426 2027 1426 2027 1054Z" fill="#231815" fill-rule="evenodd"/><rect x="1165" y="1043" width="390" height="389" fill="#E60012"/></g></svg>