<?xml version="1.0" encoding="UTF-8" standalone="no"?>
<svg
   viewBox="0 0 1171.0345 183.15091"
   width="400"
   height="62.722916"
   version="1.1"
   id="svg4"
   sodipodi:docname="Selfridges &amp; Co. Logo 10.12.2022.svg"
   inkscape:version="1.1.1 (3bf5ae0d25, 2021-09-20)"
   xmlns:inkscape="http://www.inkscape.org/namespaces/inkscape"
   xmlns:sodipodi="http://sodipodi.sourceforge.net/DTD/sodipodi-0.dtd"
   xmlns="http://www.w3.org/2000/svg"
   xmlns:svg="http://www.w3.org/2000/svg">
  <defs
     id="defs8" />
  <sodipodi:namedview
     id="namedview6"
     pagecolor="#ffffff"
     bordercolor="#111111"
     borderopacity="1"
     inkscape:pageshadow="0"
     inkscape:pageopacity="0"
     inkscape:pagecheckerboard="1"
     showgrid="false"
     inkscape:zoom="3.4675"
     inkscape:cx="200"
     inkscape:cy="31.290555"
     inkscape:window-width="1600"
     inkscape:window-height="829"
     inkscape:window-x="-8"
     inkscape:window-y="-8"
     inkscape:window-maximized="1"
     inkscape:current-layer="svg4" />
  <path
     d="m 42.777003,183.53191 c -32.166959,0 -41.3174202,-26.97421 -41.3174202,-54.67822 H 30.174067 c 0,7.66281 0.982411,27.45139 13.866036,27.45139 9.655702,0 14.595828,-8.67329 14.595828,-17.06589 C 58.635931,108.05464 0,99.886592 0,48.183679 0,22.444498 13.866036,-0.06675869 41.57004,-0.06675869 c 31.914339,0 40.587629,26.97421169 41.0648,53.94842469 H 53.920356 c 0,-7.66281 -0.729792,-26.721593 -13.108176,-26.721593 -8.897841,0 -12.125765,8.645221 -12.125765,16.08348 0,29.696895 58.635931,40.840248 58.635931,91.560747 0,27.19876 -15.858928,48.72761 -44.545343,48.72761 z M 99.44811,180.05137 V 3.3857159 h 72.97914 V 30.612548 h -40.81218 v 45.275135 h 30.17407 v 28.714477 h -30.17407 v 48.25044 h 42.55245 v 27.22684 H 99.44811 Z m 87.57497,0 V 3.3857159 h 32.16696 V 152.82453 h 41.31742 v 27.22684 z M 303.05991,30.612548 v 47.268027 h 29.44427 v 28.714485 h -29.44427 v 73.48438 H 270.89295 V 3.3857159 h 71.99673 V 30.612548 Z M 410.95676,180.05137 395.85569,104.09692 h -7.66281 v 75.95445 H 355.7733 V 3.3857159 h 36.37729 c 33.65461,0 50.97312,15.8308591 50.97312,50.2152611 0,15.578239 -4.21033,34.384401 -18.80616,43.057695 l 19.05878,83.392698 z M 393.133,29.124896 h -4.94012 v 49.23285 h 6.42778 c 12.85555,0 16.3361,-14.090588 16.3361,-24.504149 0,-12.602936 -2.72269,-24.728701 -17.82376,-24.728701 z M 458.19671,180.05137 V 3.3857159 h 32.41958 V 180.05137 Z m 84.1225,0 H 509.16984 V 3.3857159 h 27.95662 c 57.90614,0 59.39379,42.8050711 59.39379,88.3328261 0,41.092868 0,88.332828 -54.20104,88.332828 z m -0.98242,-27.19877 c 24.98132,0 21.52885,-26.97421 21.52885,-57.906135 0,-27.226832 6.6804,-64.333917 -21.52885,-64.333917 z m 156.62446,27.19877 h -13.61341 l -4.46296,-11.62053 c -5.69799,8.42067 -15.10107,15.10107 -25.73918,15.10107 -44.54534,0 -45.78037,-58.63593 -45.78037,-90.550268 0,-30.174066 4.46295,-93.02033179 45.78037,-93.02033179 40.33501,0 42.55245,35.14226179 42.55245,66.55135979 h -28.93903 l 0.25262,-11.143353 c 0,-7.662809 -0.98241,-28.209244 -12.12577,-28.209244 -15.57824,0 -13.86603,53.948425 -13.86603,66.074189 0,26.216348 -1.74028,63.098888 15.32561,63.098888 13.86604,0 13.3608,-23.74629 13.10818,-32.89675 H 658.58059 V 97.697222 h 39.35259 v 82.354148 z m 17.06589,0 V 3.3857159 h 72.97914 V 30.612548 h -40.84025 v 45.275135 h 29.97759 V 104.60216 H 747.1941 v 48.25044 h 42.55245 v 27.22684 h -74.71941 z m 122.24006,3.48054 c -32.16696,0 -41.57004,-26.97421 -41.31742,-54.67822 h 28.71448 c 0,9.65571 0.98242,27.45139 13.86604,27.45139 9.6557,0 14.34321,-8.67329 14.34321,-17.06589 0,-31.18455 -58.38331,-39.352598 -58.38331,-91.055511 0,-25.739181 13.86603,-48.25043769 41.57004,-48.25043769 31.91434,0 40.33501,26.97421169 41.0648,53.94842469 h -28.96711 c 0,-6.427778 1.23503,-26.721593 -12.85555,-26.721593 -8.89784,0 -12.12577,8.645221 -12.12577,16.08348 0,29.696895 58.63593,40.840248 58.63593,91.560747 0,27.19876 -15.85892,48.72761 -44.54534,48.72761 z m 159.34714,-3.48054 c -13.61341,0 -24.25153,-3.7051 -32.89675,-12.85556 -8.16805,9.6557 -20.04119,16.3361 -33.40199,16.3361 -27.45138,0 -39.82977,-24.7287 -39.82977,-44.54534 0,-20.54644 10.3855,-38.34212 25.73918,-55.436078 -7.41019,-15.353688 -13.36079,-28.461864 -13.36079,-46.032995 0,-22.763877 15.57824,-37.61232459 37.61232,-37.61232459 22.76388,0 35.14227,18.55354259 35.14227,36.85446459 0,22.763877 -10.89074,31.914339 -23.99891,47.268026 3.22792,8.897842 8.16805,17.065887 12.631,25.486557 2.47006,-8.42067 3.95772,-16.588715 4.94013,-25.233936 l 24.7287,5.445366 c -2.21745,17.06589 -5.95061,34.13178 -13.3608,49.99071 4.46296,6.93302 9.90832,9.90832 18.04827,11.62052 v 28.71449 z m -1.99289,-25.48656 c -8.64522,-2.21745 -14.09059,-7.18564 -18.30092,-14.59583 6.93302,-15.10107 10.89073,-30.93193 13.36079,-47.268027 l -17.06589,-3.705094 c -1.48765,10.638113 -4.21033,20.546431 -7.41019,30.426681 -6.17515,-11.87314 -13.61341,-23.269108 -18.07637,-36.124668 12.85556,-15.101068 24.50415,-24.251529 24.50415,-46.510166 0,-16.58872 -11.14335,-32.8967499 -31.18455,-32.8967499 -20.04119,0 -33.65461,13.1081759 -33.65461,33.6546099 0,17.823751 6.42778,30.931927 13.86604,46.762786 -13.86604,15.35369 -26.21635,32.896748 -26.21635,54.678218 0,18.80616 11.3679,40.58763 35.87205,40.58763 14.34321,0 24.98132,-7.66281 33.14937,-18.55355 8.89784,10.3855 17.31851,14.84845 31.18455,15.10107 v -21.55691 z m -42.29983,-8.16805 c -3.22792,4.94012 -8.42067,10.38549 -15.10107,10.38549 -12.37838,0 -18.55354,-17.06589 -18.55354,-27.22683 0,-10.89074 3.95771,-17.06589 11.14335,-24.50415 z m -29.6969,-16.81327 c 0,10.38549 4.68751,23.26911 15.10107,23.26911 5.44537,0 7.66281,-3.95771 9.90832,-6.93302 l -18.55354,-34.3844 c -4.2384,4.94013 -6.45585,10.61005 -6.45585,18.04831 z m 17.57113,-106.4092 c 8.89785,0 11.36791,8.168049 11.36791,15.830859 0,11.620524 -6.93302,19.788574 -13.3608,28.461864 -3.95771,-9.150461 -8.67329,-20.041194 -8.67329,-29.949516 0.0281,-6.399709 2.24551,-14.343207 10.66618,-14.343207 z m 7.66281,15.858928 c 0,-7.41019 -2.47006,-11.873145 -7.66281,-11.873145 -4.6875,0 -6.68039,4.210335 -6.68039,10.385493 0,6.680398 2.72268,15.578239 5.44536,22.511257 4.68751,-6.175157 8.89784,-12.855556 8.89784,-21.023605 z m 110.84404,28.209244 c 0,-5.697987 0.9825,-36.854465 -9.6557,-36.854465 -12.8555,0 -11.3959,53.948424 -11.3959,59.618342 0,53.948421 4.6875,63.098881 10.8907,63.098881 12.8556,0 12.1258,-32.41958 12.1258,-40.58763 h 30.4267 v 1.96483 c 0.2526,28.46186 -3.228,69.02142 -43.0577,69.02142 -46.2576,0 -46.7628,-63.57606 -46.7628,-93.52557 0,-27.704004 3.9577,-90.07309759 46.7628,-90.07309759 39.8297,0 42.805,38.84735659 42.5524,67.30922059 v 1.992892 h -31.9143 v -1.964823 z m 28.2093,-1.992892 c -0.2526,-28.939035 -4.2103,-61.3586139 -38.8474,-61.3586139 -38.1175,0 -42.805,56.4184869 -42.805,86.1153829 0,32.166961 1.235,89.567861 42.805,89.567861 34.6371,0 39.1,-34.13179 39.3526,-63.09889 h -22.7638 c -0.2527,10.38549 -0.2527,40.33501 -16.0835,40.33501 -10.8908,0 -14.8485,-16.58872 -14.8485,-66.803981 0,-12.378385 -1.4876,-63.351506 15.3537,-63.351506 14.3432,0 13.6134,30.174067 13.6134,38.594737 z m 48.2504,-64.83915739 c 30.4267,0 35.8721,30.42668639 35.8721,54.67821539 0,23.998909 -5.4454,54.425592 -35.8721,54.425592 -30.4267,0 -35.872,-30.426683 -35.872,-54.425592 0,-24.22346 5.4453,-54.67821539 35.872,-54.67821539 z m 6.4278,144.27413739 c -11.3679,0 -16.3361,-9.90832 -24.7568,-9.90832 -4.4629,0 -8.4206,2.72268 -11.3679,6.42778 l -4.9401,-7.18564 c 6.4278,-10.13287 15.3256,-18.80616 26.7216,-18.80616 11.3679,0 16.0835,9.90832 24.7287,9.90832 4.463,0 8.168,-2.72268 11.1434,-6.42778 l 4.9401,7.18564 c -6.1752,9.88025 -15.3256,18.80616 -26.469,18.80616 z m -6.4278,-39.09997 c 27.704,0 31.9144,-28.939037 31.9144,-50.467883 0,-21.781466 -4.2104,-50.7205007 -31.9144,-50.7205007 -27.9566,0 -31.9143,28.9390347 -31.9143,50.7205007 0,21.500777 3.9577,50.467883 31.9143,50.467883 z m 27.704,18.55354 c -2.9753,2.9753 -6.933,4.94013 -10.8907,4.94013 -9.9083,0 -14.3432,-9.90833 -24.7287,-9.90833 -9.1505,0 -17.0659,6.6804 -22.5113,14.84845 l 0.9825,1.74027 c 2.9753,-2.9753 6.933,-4.94012 11.1433,-4.94012 9.6557,0 14.3432,9.90832 24.7568,9.90832 9.1504,0 17.0659,-6.93302 22.2586,-14.84845 z m -18.0483,-69.021423 c 0,31.661719 -3.4524,36.629914 -9.6557,36.629914 -5.4453,0 -9.6557,-4.940126 -9.6557,-36.629914 0,-14.848448 0.5053,-23.998909 1.7403,-29.444275 1.7403,-6.427778 4.9401,-7.41019 7.9154,-7.41019 6.6804,-0.02807 9.6557,8.139981 9.6557,36.854465 z m -9.6557,32.64413 c 2.9753,0 5.698,-3.227923 5.698,-32.672199 0,-10.132872 -0.2526,-32.89675 -5.698,-32.89675 -5.1927,0 -5.698,11.395973 -5.698,32.89675 0,27.479453 2.7227,32.672199 5.698,32.672199 z"
     fill="#202020"
     id="path2"
     style="stroke-width:2.80689" />
</svg>
