<?xml version="1.0" encoding="UTF-8" standalone="no"?>
<!-- Created with Inkscape (http://www.inkscape.org/) -->

<svg
   xmlns:dc="http://purl.org/dc/elements/1.1/"
   xmlns:cc="http://creativecommons.org/ns#"
   xmlns:rdf="http://www.w3.org/1999/02/22-rdf-syntax-ns#"
   xmlns:svg="http://www.w3.org/2000/svg"
   xmlns="http://www.w3.org/2000/svg"
   xmlns:sodipodi="http://sodipodi.sourceforge.net/DTD/sodipodi-0.dtd"
   xmlns:inkscape="http://www.inkscape.org/namespaces/inkscape"
   width="196.504"
   height="71.875961"
   viewBox="0 0 51.991683 19.01718"
   version="1.1"
   id="svg18998"
   inkscape:version="0.92.0 r15299"
   sodipodi:docname="sentry.svg">
  <defs
     id="defs18992" />
  <sodipodi:namedview
     id="base"
     pagecolor="#ffffff"
     bordercolor="#666666"
     borderopacity="1.0"
     inkscape:pageopacity="0.0"
     inkscape:pageshadow="2"
     inkscape:zoom="4.5881415"
     inkscape:cx="97.751999"
     inkscape:cy="35.437981"
     inkscape:document-units="mm"
     inkscape:current-layer="layer1"
     showgrid="false"
     fit-margin-top="0"
     fit-margin-left="0"
     fit-margin-right="0"
     fit-margin-bottom="0"
     units="px"
     inkscape:window-width="1280"
     inkscape:window-height="744"
     inkscape:window-x="-4"
     inkscape:window-y="-4"
     inkscape:window-maximized="1" />
  <metadata
     id="metadata18995">
    <rdf:RDF>
      <cc:Work
         rdf:about="">
        <dc:format>image/svg+xml</dc:format>
        <dc:type
           rdf:resource="http://purl.org/dc/dcmitype/StillImage" />
        <dc:title></dc:title>
      </cc:Work>
    </rdf:RDF>
  </metadata>
  <g
     inkscape:label="Layer 1"
     inkscape:groupmode="layer"
     id="layer1"
     transform="translate(24.143041,-4.4417589)">
    <g
       id="g19295"
       transform="translate(0.19843688,-0.19843569)">
      <g
         id="g19154">
        <path
           inkscape:connector-curvature="0"
           id="path2307"
           style="fill:#e8272b;fill-opacity:1;fill-rule:nonzero;stroke:none;stroke-width:0.35277778"
           d="m -23.7698,14.974272 h 2.935464 c 0,0 -0.103011,2.111375 2.16288,2.111375 0.824089,0 1.750836,-0.540456 1.750836,-1.467556 0,-0.437797 -0.180269,-1.081616 -1.287286,-1.441802 -1.107369,-0.360539 -3.424766,-0.849842 -4.19735,-1.648178 -0.77223,-0.798336 -1.41605,-1.467556 -1.41605,-3.0642278 0,-1.5963194 1.338792,-4.1712443 5.098345,-4.1712443 3.7592,0 4.918075,2.7294416 4.918075,4.7893111 h -3.141486 c 0,0 0.180269,-2.2143862 -2.008364,-2.2143862 -1.622072,0 -1.750836,0.9528528 -1.750836,1.3387917 0,0.3862916 0.206022,1.1846275 1.673577,1.5709195 1.467556,0.386292 3.27025,0.849842 4.196998,1.647825 0.9271,0.798336 1.313391,1.802694 1.313391,3.012722 0,1.210381 -0.978605,4.22275 -5.14985,4.22275 -4.171244,0 -5.124097,-2.755194 -5.124097,-3.887964 0,-0.386292 0.02575,-0.798336 0.02575,-0.798336" />
        <path
           inkscape:connector-curvature="0"
           id="path2311"
           style="fill:#ffffff;fill-opacity:1;fill-rule:nonzero;stroke:none;stroke-width:0.35277778"
           d="m -16.598533,15.618109 c 0,-0.573264 -0.261761,-1.341614 -1.509536,-1.748014 l -0.900995,-0.265289 c -1.107369,-0.313266 -2.624313,-0.741891 -3.164769,-1.300339 -0.74048,-0.765527 -1.325386,-1.369836 -1.325386,-2.8402134 0,-1.4883694 1.296811,-3.849511 4.776258,-3.849511 3.921478,0 4.505325,2.9883804 4.584347,4.1454915 h -2.490258 c -0.0261,-0.3944055 -0.142875,-1.0456333 -0.604661,-1.5465777 -0.408517,-0.4430889 -0.987778,-0.6678083 -1.72085,-0.6678083 -1.871133,0 -2.072922,1.1613444 -2.072922,1.6608777 0,0.4145139 0.186267,1.4273392 1.913466,1.8820692 l 0.08255,0.02152 c 1.395942,0.367241 3.13302,0.824089 3.986389,1.558925 0.819856,0.705555 1.201561,1.585383 1.201561,2.7686 0,1.085144 -0.86748,3.901016 -4.828116,3.901016 -3.93947,0 -4.802011,-2.574219 -4.802011,-3.56623 0,-0.165806 0.0049,-0.336198 0.01058,-0.47625 h 2.323042 c 0.04092,0.363361 0.178153,0.951441 0.623711,1.419577 0.437092,0.458964 1.05798,0.691798 1.844675,0.691798 0.99695,0 2.072922,-0.684389 2.072922,-1.789642 m -7.544505,-6.1538554 c 0,1.7307274 0.732013,2.4870834 1.506713,3.2878884 0.661106,0.682978 2.208742,1.120423 3.452284,1.472142 l 0.876652,0.257881 c 0.716845,0.233538 1.065037,0.605013 1.065037,1.135944 0,0.708025 -0.741539,1.145822 -1.429103,1.145822 -0.601486,0 -1.063978,-0.164041 -1.374775,-0.487891 -0.492478,-0.512939 -0.466725,-1.279525 -0.466372,-1.287287 l 0.01376,-0.335138 -0.335492,-0.0011 h -3.237794 l -0.0187,0.301625 c -0.0011,0.01729 -0.02646,0.426861 -0.02646,0.818445 0,1.170869 0.978253,4.21005 5.445831,4.21005 4.488744,0 5.471936,-3.280481 5.471936,-4.544836 0,-1.365603 -0.466372,-2.430639 -1.425222,-3.256492 -0.965906,-0.83185 -2.783064,-1.309511 -4.242859,-1.693686 l -0.0822,-0.02152 c -1.293989,-0.340783 -1.433689,-0.9941273 -1.433689,-1.2594162 0,-0.6752166 0.480836,-1.0170583 1.429103,-1.0170583 0.544336,0 0.963083,0.1538111 1.244953,0.4575528 0.50165,0.5408083 0.443089,1.4012337 0.442383,1.4096997 l -0.0261,0.346075 0.347133,0.0011 h 3.463219 v -0.322087 c 0,-2.3576134 -1.372305,-5.1110439 -5.240161,-5.1110439 -3.948641,0 -5.420077,2.7559 -5.420077,4.4933305" />
        <path
           inkscape:connector-curvature="0"
           id="path2315"
           style="fill:#e8272b;fill-opacity:1;fill-rule:nonzero;stroke:none;stroke-width:0.35277778"
           d="m -8.5520243,12.296688 c 1.2103805,0 1.6735777,1.004006 1.6735777,1.004006 h -3.3729084 c 0,0 0.4889502,-1.004006 1.6993307,-1.004006 m 0.051506,4.892322 c -1.5963197,0 -2.0341167,-1.802342 -2.0341167,-1.802342 h 6.7204166 c 0,0 0.077258,-0.07726 0.077258,-0.540808 0,-2.188633 -1.7765889,-4.9953331 -4.6090416,-4.9953331 -3.913717,0 -5.021086,3.2960031 -5.021086,4.9438281 0,1.647825 1.287286,4.789311 5.021086,4.789311 3.7334472,0 4.6090416,-3.630789 4.6090416,-3.630789 h -2.9097111 c 0,0 -0.5665611,1.236133 -1.8538471,1.236133" />
        <path
           inkscape:connector-curvature="0"
           id="path2319"
           style="fill:#ffffff;fill-opacity:1;fill-rule:nonzero;stroke:none;stroke-width:0.35277778"
           d="m -6.8876363,15.708411 c -0.024694,0.05292 -0.051153,0.109361 -0.051153,0.109361 -0.020108,0.04269 -0.5030611,1.049514 -1.5617472,1.049514 -0.9013472,0 -1.366661,-0.696736 -1.5769165,-1.158875 z m -6.1577357,-0.914047 c 0,-1.285522 0.844197,-4.622095 4.6993524,-4.622095 2.760486,0 4.2869555,2.763309 4.2869555,4.6736 0,0.09525 -0.00388,0.162631 -0.00847,0.218723 h -6.8766969 l 0.09666,0.397933 c 0.172156,0.708378 0.884061,2.048228 2.3470304,2.048228 1.1659306,0 1.8101028,-0.848784 2.0436417,-1.236134 h 2.2782388 c -0.3361972,0.896761 -1.4146389,2.98697 -4.1673638,2.98697 -3.5507081,0 -4.6993521,-3.0099 -4.6993521,-4.467225 m 0.462844,-3.281892 c -0.815975,1.096786 -1.106664,2.414411 -1.106664,3.281892 0,1.66758 1.306336,5.111044 5.3431721,5.111044 3.941586,0 4.9124304,-3.838222 4.9219554,-3.877028 l 0.095603,-0.397227 H -3.603628 l 0.017286,-0.01729 c 0.079728,-0.07973 0.1710972,-0.239184 0.1710972,-0.767998 0,-2.514952 -2.0249444,-5.317419 -4.9307749,-5.317419 -2.2821193,0 -3.5634083,1.078794 -4.2365083,1.984022" />
        <path
           inkscape:connector-curvature="0"
           id="path2323"
           style="fill:#ffffff;fill-opacity:1;fill-rule:nonzero;stroke:none;stroke-width:0.35277778"
           d="m -8.5520243,12.618448 c 0.4596694,0 0.784225,0.173567 1.0057694,0.360539 h -2.0224749 c 0.2275416,-0.187325 0.5570361,-0.360539 1.0167055,-0.360539 m -1.9889607,0.541161 -0.225425,0.462845 h 4.3910245 l -0.2106083,-0.456495 c -0.022578,-0.04868 -0.5658555,-1.19133 -1.9660305,-1.19133 -1.3952361,0 -1.9653247,1.13665 -1.9889607,1.18498" />
        <path
           inkscape:connector-curvature="0"
           id="path2327"
           style="fill:#e8272b;fill-opacity:1;fill-rule:nonzero;stroke:none;stroke-width:0.35277778"
           d="M -0.33795524,10.957552 V 10.210721 H -3.3506774 v 9.218436 h 2.96121661 v -5.072591 c 0,-1.081617 0.54080832,-1.622425 1.31303886,-1.622425 0.77258333,0 1.10736943,0.849841 1.10736943,1.802341 v 4.866923 h 2.909711 v -6.669264 c 0,-1.673578 -1.2872861,-2.626431 -2.8324527,-2.626431 -1.6993305,0 -2.44616104,0.849842 -2.44616104,0.849842" />
        <path
           inkscape:connector-curvature="0"
           id="path2331"
           style="fill:#ffffff;fill-opacity:1;fill-rule:nonzero;stroke:none;stroke-width:0.35277778"
           d="m -0.09805828,11.17205 c 0.02751667,-0.03034 0.69109165,-0.742244 2.20591938,-0.742244 1.2498917,0 2.5107194,0.712611 2.5107194,2.304697 V 19.08168 H 2.3523361 v -4.544836 c 0,-1.310569 -0.5471583,-2.124427 -1.42874996,-2.124427 -0.79057498,0 -1.63512496,0.510822 -1.63512496,1.944158 v 4.750858 H -3.028936 v -8.574616 h 2.36890273 v 1.258358 z m 0.08184444,-0.859014 V 9.8889973 H -3.6727554 V 19.7509 h 3.60503601 v -5.394325 c 0,-0.485775 0.12876388,-1.300339 0.99130553,-1.300339 0.74753606,0 0.78528336,1.233311 0.78528336,1.480608 v 5.188303 h 3.5535304 v -6.990644 c 0,-1.73602 -1.2971638,-2.9485169 -3.1545388,-2.9485169 -0.9927166,0 -1.68839439,0.2723449 -2.12407494,0.5270499" />
        <path
           inkscape:connector-curvature="0"
           id="path2335"
           style="fill:#e8272b;fill-opacity:1;fill-rule:nonzero;stroke:none;stroke-width:0.35277778"
           d="m 6.7944977,6.812061 h 2.935111 v 3.450519 h 1.7254363 v 2.420409 H 9.7553615 v 3.553177 c 0,0.489303 0.2060222,0.952853 0.7729365,0.952853 h 0.566208 v 2.317397 H 8.8028615 c -1.1070166,0 -2.0598694,-1.184627 -2.0598694,-2.446161 V 12.708741 H 5.1466727 v -2.420408 h 1.6220722 l 0.025753,-3.476272" />
        <path
           inkscape:connector-curvature="0"
           id="path2339"
           style="fill:#ffffff;fill-opacity:1;fill-rule:nonzero;stroke:none;stroke-width:0.35277778"
           d="m 9.4078927,7.1337944 v 3.4505196 h 1.7250833 v 1.776589 H 9.4336455 v 3.875263 c 0,0.774348 0.4296833,1.274587 1.0946695,1.274587 H 10.77279 V 19.18433 H 8.8028788 c -0.9098138,0 -1.738136,-1.012472 -1.738136,-2.124075 v -4.6736 H 5.4684233 v -1.776588 h 1.6196028 c 0,0 0.021872,-2.9492226 0.025753,-3.4762726 z M 9.729626,6.489975 H 6.4748983 c 0,0 -0.021872,2.9492221 -0.025753,3.4762721 H 4.8246039 v 3.0642279 h 1.5963194 v 4.02978 c 0,1.474611 1.1130139,2.767895 2.3819555,2.767895 h 2.6137302 v -2.961217 h -0.888294 c -0.299156,0 -0.45085,-0.212372 -0.45085,-0.630767 v -3.231444 h 1.69933 V 9.9404943 H 10.051712 V 6.489975 H 9.729626" />
        <path
           inkscape:connector-curvature="0"
           id="path2343"
           style="fill:#e8272b;fill-opacity:1;fill-rule:nonzero;stroke:none;stroke-width:0.35277778"
           d="m 11.892516,10.210739 h 2.935464 v 0.824089 c 0,0 1.132769,-1.004358 2.935464,-0.798336 0.02575,0.9271 0,2.317397 0,2.317397 h -0.489303 c -0.386292,0 -2.420408,0.28328 -2.420408,2.085622 v 4.815064 h -2.961217 v -9.243836" />
        <path
           inkscape:connector-curvature="0"
           id="path2347"
           style="fill:#ffffff;fill-opacity:1;fill-rule:nonzero;stroke:none;stroke-width:0.35277778"
           d="m 15.041031,11.276481 c 0.0099,-0.0085 0.941564,-0.796572 2.406297,-0.736247 0.0035,0.230011 0.006,0.468841 0.006,0.706614 0,0.382411 -0.0035,0.74048 -0.0067,0.985308 h -0.172156 c -0.579261,0 -2.742494,0.408517 -2.742494,2.407708 v 4.493331 h -2.317397 v -8.60037 h 2.291997 v 1.210381 z m 0.109361,-0.843844 V 9.889006 h -3.579636 v 9.887655 h 3.605036 v -5.136797 c 0,-1.660172 2.077508,-1.763889 2.098675,-1.763889 h 0.805039 l 0.006,-0.316088 c 3.53e-4,-0.01376 0.0254,-1.408289 0,-2.332214 l -0.0078,-0.2790475 -0.277636,-0.03175 c -1.194153,-0.136525 -2.112081,0.2173115 -2.649714,0.5157615" />
        <path
           inkscape:connector-curvature="0"
           id="path2351"
           style="fill:#e8272b;fill-opacity:1;fill-rule:nonzero;stroke:none;stroke-width:0.35277778"
           d="m 17.917952,10.159225 h 2.858205 l 1.802342,4.480278 1.725083,-4.480278 h 2.549525 c 0,0 -3.811058,10.042172 -4.042833,10.711744 -0.231775,0.66922 -0.721078,2.265892 -3.373261,2.265892 h -43.20681 v -2.368903 h 43.026541 c 1.030111,0 1.184627,-0.103011 1.416402,-0.824089 0.231423,-0.720725 0.489303,-1.364544 0.489303,-1.364544 l -3.244497,-8.4201" />
        <path
           inkscape:connector-curvature="0"
           id="path2355"
           style="fill:#ffffff;fill-opacity:1;fill-rule:nonzero;stroke:none;stroke-width:0.35277778"
           d="m 26.386735,10.481302 c -0.740481,1.951919 -3.674886,9.6901 -3.880555,10.28453 l -0.01588,0.04621 c -0.240948,0.700264 -0.689328,2.003072 -3.052939,2.003072 h -42.885077 v -1.725083 h 42.704807 c 1.090436,0 1.427692,-0.130528 1.722614,-1.047397 0.225072,-0.701322 0.479072,-1.337381 0.481542,-1.343731 l 0.04692,-0.117475 c 0,0 -2.817989,-7.313788 -3.121025,-8.10013 h 2.1717 c 0.147814,0.367947 2.026356,5.037314 2.026356,5.037314 0,0 1.794933,-4.661958 1.939572,-5.037314 z M 24.303582,9.8374826 h -0.220839 c 0,0 -1.106311,2.8730224 -1.510594,3.9235944 C 22.150932,12.714033 20.993821,9.8374826 20.993821,9.8374826 H 17.44911 c 0,0 3.280481,8.5139384 3.36797,8.7407744 -0.08502,0.219428 -0.273403,0.717198 -0.450498,1.267531 -0.178152,0.554919 -0.192969,0.600428 -1.109486,0.600428 h -43.348627 v 3.012722 h 43.528897 c 2.822927,0 3.410655,-1.707797 3.66148,-2.437342 l 0.01552,-0.04515 c 0.227542,-0.657578 4.001559,-10.602383 4.039659,-10.702925 L 27.319477,9.8374876 H 24.30358" />
        <path
           inkscape:connector-curvature="0"
           id="path2359"
           style="fill:#e8272b;fill-opacity:1;fill-rule:nonzero;stroke:none;stroke-width:0.35277778"
           d="m 23.345429,22.322306 v -0.271639 h 0.180975 c 0.09243,0 0.191206,0.02046 0.191206,0.128764 0,0.134761 -0.100895,0.142875 -0.213431,0.142875 z m 0,0.112536 h 0.152753 l 0.231422,0.379942 h 0.148872 L 23.62871,22.428845 c 0.129116,-0.01623 0.227541,-0.08431 0.227541,-0.241653 0,-0.172861 -0.102658,-0.249061 -0.309739,-0.249061 h -0.333727 v 0.876653 h 0.132644 z m 0.160867,0.701675 c 0.414161,0 0.76835,-0.321733 0.76835,-0.762 0,-0.436386 -0.354189,-0.758119 -0.76835,-0.758119 -0.418395,0 -0.772231,0.321733 -0.772231,0.758119 0,0.440267 0.353836,0.762 0.772231,0.762 m -0.619478,-0.762 c 0,-0.360186 0.271639,-0.631472 0.619478,-0.631472 0.343958,0 0.615597,0.271286 0.615597,0.631472 0,0.365831 -0.271639,0.635353 -0.615597,0.635353 -0.347839,0 -0.619478,-0.269522 -0.619478,-0.635353" />
        <path
           inkscape:connector-curvature="0"
           id="path2363"
           style="fill:#ffffff;fill-opacity:1;fill-rule:nonzero;stroke:none;stroke-width:0.35277778"
           d="m 23.20856,22.374165 c 0,-0.179211 0.125236,-0.309386 0.297744,-0.309386 0.169687,0 0.293159,0.130175 0.293159,0.309386 0,0.181681 -0.123472,0.313619 -0.293159,0.313619 -0.17533,0 -0.297744,-0.128763 -0.297744,-0.313619 m -0.643819,0 c 0,0.536928 0.413808,0.957439 0.941563,0.957439 0.525287,0 0.936978,-0.420511 0.936978,-0.957439 0,-0.534458 -0.411691,-0.953206 -0.936978,-0.953206 -0.527755,0 -0.941563,0.418748 -0.941563,0.953206" />
        <path
           inkscape:connector-curvature="0"
           id="path2367"
           style="fill:#ffffff;fill-opacity:1;fill-rule:nonzero;stroke:none;stroke-width:0.35277778"
           d="m 23.055816,22.374165 c 0,-0.244475 0.197908,-0.436386 0.450497,-0.436386 0.25012,0 0.446264,0.191911 0.446264,0.436386 0,0.275519 -0.226836,0.440267 -0.446264,0.440267 -0.252589,0 -0.450497,-0.193323 -0.450497,-0.440267 m -0.643819,0 c 0,0.607836 0.480836,1.084086 1.094316,1.084086 0.611364,0 1.090084,-0.47625 1.090084,-1.084086 0,-0.595489 -0.48895,-1.079853 -1.090084,-1.079853 -0.61348,0 -1.094316,0.474134 -1.094316,1.079853" />
        <path
           inkscape:connector-curvature="0"
           id="path2371"
           style="fill:#ffffff;fill-opacity:1;fill-rule:nonzero;stroke:none;stroke-width:0.35277778"
           d="M 23.212793,21.616028 H 22.89106 V 23.1365 h 1.57868 c 0,0 -0.366183,-0.566208 -0.400403,-0.619478 0.06597,-0.09137 0.109009,-0.20073 0.109009,-0.329847 0,-0.276225 -0.166159,-0.571147 -0.631825,-0.571147 h -0.333728" />
        <path
           inkscape:connector-curvature="0"
           id="path2375"
           style="fill:#ffffff;fill-opacity:1;fill-rule:nonzero;stroke:none;stroke-width:0.35277778"
           d="m 23.395515,22.179431 c 0,-0.0321 0.01552,-0.06421 0.03563,-0.09313 0.03916,0.03916 0.05151,0.05151 0.100541,0.100189 -0.04868,0.04868 -0.06033,0.06032 -0.09948,0.09948 -0.02081,-0.03104 -0.03669,-0.06703 -0.03669,-0.106539 m -0.05009,-0.450497 h -0.322087 v 0.915105 h 0.480837 c 0.496711,0 0.535163,-0.3556 0.535163,-0.464608 0,-0.224367 -0.15875,-0.450497 -0.513291,-0.450497 h -0.180622" />
        <path
           inkscape:connector-curvature="0"
           id="path2379"
           style="fill:#e8272b;fill-opacity:1;fill-rule:nonzero;stroke:none;stroke-width:0.35277778"
           d="m -23.7698,14.974272 h 2.935464 c 0,0 -0.103011,2.111375 2.16288,2.111375 0.824089,0 1.750836,-0.540456 1.750836,-1.467556 0,-0.437797 -0.180269,-1.081616 -1.287286,-1.441802 -1.107369,-0.360539 -3.424766,-0.849842 -4.19735,-1.648178 -0.77223,-0.798336 -1.41605,-1.467556 -1.41605,-3.0642278 0,-1.5963194 1.338792,-4.1712443 5.098345,-4.1712443 3.7592,0 4.918075,2.7294416 4.918075,4.7893111 h -3.141486 c 0,0 0.180269,-2.2143862 -2.008364,-2.2143862 -1.622072,0 -1.750836,0.9528528 -1.750836,1.3387917 0,0.3862916 0.206022,1.1846275 1.673577,1.5709195 1.467556,0.386292 3.27025,0.849842 4.196998,1.647825 0.9271,0.798336 1.313391,1.802694 1.313391,3.012722 0,1.210381 -0.978605,4.22275 -5.14985,4.22275 -4.171244,0 -5.124097,-2.755194 -5.124097,-3.887964 0,-0.386292 0.02575,-0.798336 0.02575,-0.798336" />
        <path
           inkscape:connector-curvature="0"
           id="path2383"
           style="fill:#e8272b;fill-opacity:1;fill-rule:nonzero;stroke:none;stroke-width:0.35277778"
           d="m -8.5520243,12.296688 c 1.2103805,0 1.6735777,1.004006 1.6735777,1.004006 h -3.3729084 c 0,0 0.4889502,-1.004006 1.6993307,-1.004006 m 0.051506,4.892322 c -1.5963197,0 -2.0341167,-1.802342 -2.0341167,-1.802342 h 6.7204166 c 0,0 0.077258,-0.07726 0.077258,-0.540808 0,-2.188633 -1.7765889,-4.9953331 -4.6090416,-4.9953331 -3.913717,0 -5.021086,3.2960031 -5.021086,4.9438281 0,1.647825 1.287286,4.789311 5.021086,4.789311 3.7334472,0 4.6090416,-3.630789 4.6090416,-3.630789 h -2.9097111 c 0,0 -0.5665611,1.236133 -1.8538471,1.236133" />
        <path
           inkscape:connector-curvature="0"
           id="path2387"
           style="fill:#e8272b;fill-opacity:1;fill-rule:nonzero;stroke:none;stroke-width:0.35277778"
           d="M -0.33795524,10.957552 V 10.210721 H -3.3506774 v 9.218436 h 2.96121661 v -5.072591 c 0,-1.081617 0.54080832,-1.622425 1.31303886,-1.622425 0.77258333,0 1.10736943,0.849841 1.10736943,1.802341 v 4.866923 h 2.909711 v -6.669264 c 0,-1.673578 -1.2872861,-2.626431 -2.8324527,-2.626431 -1.6993305,0 -2.44616104,0.849842 -2.44616104,0.849842" />
        <path
           inkscape:connector-curvature="0"
           id="path2391"
           style="fill:#e8272b;fill-opacity:1;fill-rule:nonzero;stroke:none;stroke-width:0.35277778"
           d="m 6.7944977,6.812061 h 2.935111 v 3.450519 h 1.7254363 v 2.420409 H 9.7553615 v 3.553177 c 0,0.489303 0.2060222,0.952853 0.7729365,0.952853 h 0.566208 v 2.317397 H 8.8028615 c -1.1070166,0 -2.0598694,-1.184627 -2.0598694,-2.446161 V 12.708741 H 5.1466727 v -2.420408 h 1.6220722 l 0.025753,-3.476272" />
        <path
           inkscape:connector-curvature="0"
           id="path2395"
           style="fill:#e8272b;fill-opacity:1;fill-rule:nonzero;stroke:none;stroke-width:0.35277778"
           d="m 11.892516,10.210739 h 2.935464 v 0.824089 c 0,0 1.132769,-1.004358 2.935464,-0.798336 0.02575,0.9271 0,2.317397 0,2.317397 h -0.489303 c -0.386292,0 -2.420408,0.28328 -2.420408,2.085622 v 4.815064 h -2.961217 v -9.243836" />
        <path
           inkscape:connector-curvature="0"
           id="path2399"
           style="fill:#e8272b;fill-opacity:1;fill-rule:nonzero;stroke:none;stroke-width:0.35277778"
           d="m 17.917952,10.159225 h 2.858205 l 1.802342,4.480278 1.725083,-4.480278 h 2.549525 c 0,0 -3.811058,10.042172 -4.042833,10.711744 -0.231775,0.66922 -0.721078,2.265892 -3.373261,2.265892 h -43.20681 v -2.368903 h 43.026541 c 1.030111,0 1.184627,-0.103011 1.416402,-0.824089 0.231423,-0.720725 0.489303,-1.364544 0.489303,-1.364544 l -3.244497,-8.4201" />
        <path
           inkscape:connector-curvature="0"
           id="path2403"
           style="fill:#e8272b;fill-opacity:1;fill-rule:nonzero;stroke:none;stroke-width:0.35277778"
           d="m 23.345429,22.322306 v -0.271639 h 0.180975 c 0.09243,0 0.191206,0.02046 0.191206,0.128764 0,0.134761 -0.100895,0.142875 -0.213431,0.142875 z m 0,0.112536 h 0.152753 l 0.231422,0.379942 h 0.148872 L 23.62871,22.428845 c 0.129116,-0.01623 0.227541,-0.08431 0.227541,-0.241653 0,-0.172861 -0.102658,-0.249061 -0.309739,-0.249061 h -0.333727 v 0.876653 h 0.132644 z m 0.160867,0.701675 c 0.414161,0 0.76835,-0.321733 0.76835,-0.762 0,-0.436386 -0.354189,-0.758119 -0.76835,-0.758119 -0.418395,0 -0.772231,0.321733 -0.772231,0.758119 0,0.440267 0.353836,0.762 0.772231,0.762 m -0.619478,-0.762 c 0,-0.360186 0.271639,-0.631472 0.619478,-0.631472 0.343958,0 0.615597,0.271286 0.615597,0.631472 0,0.365831 -0.271639,0.635353 -0.615597,0.635353 -0.347839,0 -0.619478,-0.269522 -0.619478,-0.635353" />
      </g>
      <path
         inkscape:connector-curvature="0"
         id="path19156"
         style="fill:#e8272b;fill-opacity:1;fill-rule:nonzero;stroke:none;stroke-width:0.35277778"
         d="m -23.637509,14.841981 h 2.935464 c 0,0 -0.103011,2.111375 2.16288,2.111375 0.824089,0 1.750836,-0.540456 1.750836,-1.467556 0,-0.437797 -0.180269,-1.081616 -1.287286,-1.441802 -1.107369,-0.360539 -3.424766,-0.849842 -4.19735,-1.648178 -0.77223,-0.798336 -1.41605,-1.467556 -1.41605,-3.0642273 0,-1.5963194 1.338792,-4.1712443 5.098345,-4.1712443 3.7592,0 4.918075,2.7294416 4.918075,4.7893111 h -3.141486 c 0,0 0.180269,-2.2143862 -2.008364,-2.2143862 -1.622072,0 -1.750836,0.9528528 -1.750836,1.3387917 0,0.3862916 0.206022,1.184627 1.673577,1.57092 1.467556,0.386291 3.27025,0.849842 4.196998,1.647825 0.9271,0.798336 1.313391,1.802694 1.313391,3.012722 0,1.210381 -0.978605,4.22275 -5.14985,4.22275 -4.171244,0 -5.124097,-2.755194 -5.124097,-3.887964 0,-0.386292 0.02575,-0.798336 0.02575,-0.798336" />
      <path
         inkscape:connector-curvature="0"
         id="path19158"
         style="fill:#ffffff;fill-opacity:1;fill-rule:nonzero;stroke:none;stroke-width:0.35277778"
         d="m -16.466242,15.485819 c 0,-0.573264 -0.261761,-1.341614 -1.509536,-1.748014 l -0.900995,-0.265289 c -1.107369,-0.313266 -2.624313,-0.741891 -3.164769,-1.300339 -0.74048,-0.765527 -1.325386,-1.369836 -1.325386,-2.8402139 0,-1.4883694 1.296811,-3.849511 4.776258,-3.849511 3.921478,0 4.505325,2.9883804 4.584347,4.1454915 h -2.490258 c -0.0261,-0.3944055 -0.142875,-1.0456333 -0.604661,-1.5465777 -0.408517,-0.4430889 -0.987778,-0.6678083 -1.72085,-0.6678083 -1.871133,0 -2.072922,1.1613444 -2.072922,1.6608777 0,0.4145139 0.186267,1.4273397 1.913466,1.8820697 l 0.08255,0.02152 c 1.395942,0.367241 3.13302,0.824089 3.986389,1.558925 0.819856,0.705555 1.201561,1.585383 1.201561,2.7686 0,1.085144 -0.86748,3.901016 -4.828116,3.901016 -3.93947,0 -4.802011,-2.574219 -4.802011,-3.56623 0,-0.165806 0.0049,-0.336198 0.01058,-0.47625 h 2.323042 c 0.04092,0.363361 0.178153,0.951441 0.623711,1.419577 0.437092,0.458964 1.05798,0.691797 1.844675,0.691797 0.99695,0 2.072922,-0.684388 2.072922,-1.789641 M -24.01075,9.3319631 c 0,1.7307269 0.732013,2.4870829 1.506713,3.2878879 0.661106,0.682979 2.208742,1.120424 3.452284,1.472142 l 0.876652,0.257881 c 0.716845,0.233538 1.065037,0.605013 1.065037,1.135944 0,0.708025 -0.741539,1.145822 -1.429103,1.145822 -0.601486,0 -1.063978,-0.164041 -1.374775,-0.487891 -0.492478,-0.512939 -0.466725,-1.279525 -0.466372,-1.287287 l 0.01376,-0.335138 -0.335492,-0.0011 h -3.237794 l -0.0187,0.301625 c -0.0011,0.01729 -0.02646,0.426862 -0.02646,0.818446 0,1.170868 0.978253,4.210049 5.445831,4.210049 4.488744,0 5.471936,-3.280481 5.471936,-4.544836 0,-1.365603 -0.466372,-2.430639 -1.425222,-3.256492 -0.965906,-0.83185 -2.783064,-1.309511 -4.242859,-1.693686 l -0.0822,-0.02152 c -1.293989,-0.3407825 -1.433689,-0.9941268 -1.433689,-1.2594157 0,-0.6752166 0.480836,-1.0170583 1.429103,-1.0170583 0.544336,0 0.963083,0.1538111 1.244953,0.4575528 0.50165,0.5408083 0.443089,1.4012337 0.442383,1.4096997 l -0.0261,0.3460755 0.347133,0.0011 h 3.463219 V 9.9496765 c 0,-2.3576134 -1.372305,-5.1110439 -5.240161,-5.1110439 -3.948641,0 -5.420077,2.7559 -5.420077,4.4933305" />
      <path
         inkscape:connector-curvature="0"
         id="path19160"
         style="fill:#e8272b;fill-opacity:1;fill-rule:nonzero;stroke:none;stroke-width:0.35277778"
         d="m -8.4197336,12.164398 c 1.2103805,0 1.6735777,1.004006 1.6735777,1.004006 h -3.3729081 c 0,0 0.4889499,-1.004006 1.6993304,-1.004006 m 0.051506,4.892321 c -1.5963197,0 -2.0341164,-1.802341 -2.0341164,-1.802341 h 6.7204163 c 0,0 0.077258,-0.07726 0.077258,-0.540808 0,-2.188633 -1.7765889,-4.9953336 -4.6090416,-4.9953336 -3.9137167,0 -5.0210857,3.2960036 -5.0210857,4.9438286 0,1.647824 1.287286,4.78931 5.0210857,4.78931 3.7334472,0 4.6090416,-3.630788 4.6090416,-3.630788 h -2.9097111 c 0,0 -0.5665611,1.236132 -1.8538471,1.236132" />
      <path
         inkscape:connector-curvature="0"
         id="path19162"
         style="fill:#ffffff;fill-opacity:1;fill-rule:nonzero;stroke:none;stroke-width:0.35277778"
         d="m -6.7553456,15.576121 c -0.024694,0.05292 -0.051153,0.109361 -0.051153,0.109361 -0.020108,0.04269 -0.5030611,1.049513 -1.5617472,1.049513 -0.9013472,0 -1.366661,-0.696736 -1.5769165,-1.158874 z m -6.1577354,-0.914047 c 0,-1.285522 0.844197,-4.622095 4.6993521,-4.622095 2.760486,0 4.2869555,2.763309 4.2869555,4.6736 0,0.09525 -0.00388,0.162631 -0.00847,0.218723 H -10.81194 l 0.09666,0.397933 c 0.172156,0.708378 0.8840607,2.048227 2.3470301,2.048227 1.1659306,0 1.8101028,-0.848783 2.0436417,-1.236133 h 2.2782388 c -0.3361972,0.896761 -1.4146389,2.986969 -4.1673638,2.986969 -3.5507078,0 -4.6993518,-3.0099 -4.6993518,-4.467224 m 0.462844,-3.281892 c -0.815975,1.096786 -1.106664,2.414411 -1.106664,3.281892 0,1.66758 1.306336,5.111044 5.3431718,5.111044 3.941586,0 4.9124304,-3.838222 4.9219554,-3.877028 l 0.095603,-0.397227 h -0.2751625 l 0.017286,-0.01729 c 0.079728,-0.07973 0.1710972,-0.239184 0.1710972,-0.767998 0,-2.514952 -2.0249444,-5.3174195 -4.9307749,-5.3174195 -2.282119,0 -3.563408,1.0787945 -4.236508,1.9840225" />
      <path
         inkscape:connector-curvature="0"
         id="path19164"
         style="fill:#ffffff;fill-opacity:1;fill-rule:nonzero;stroke:none;stroke-width:0.35277778"
         d="m -8.4197336,12.486158 c 0.4596694,0 0.784225,0.173567 1.0057694,0.360539 h -2.0224749 c 0.2275416,-0.187325 0.5570361,-0.360539 1.0167055,-0.360539 m -1.9889604,0.541161 -0.225425,0.462845 h 4.3910242 l -0.2106083,-0.456495 c -0.022578,-0.04868 -0.5658555,-1.19133 -1.9660305,-1.19133 -1.3952361,0 -1.9653244,1.13665 -1.9889604,1.18498" />
      <path
         inkscape:connector-curvature="0"
         id="path19166"
         style="fill:#e8272b;fill-opacity:1;fill-rule:nonzero;stroke:none;stroke-width:0.35277778"
         d="M -0.20566453,10.825262 V 10.078431 H -3.2183867 v 9.218435 h 2.96121662 v -5.07259 c 0,-1.081617 0.54080832,-1.622425 1.31303888,-1.622425 0.7725833,0 1.1073694,0.849841 1.1073694,1.802341 v 4.866922 h 2.909711 V 12.60185 c 0,-1.673578 -1.2872861,-2.6264305 -2.8324527,-2.6264305 -1.69933049,0 -2.44616103,0.8498425 -2.44616103,0.8498425" />
      <path
         inkscape:connector-curvature="0"
         id="path19168"
         style="fill:#ffffff;fill-opacity:1;fill-rule:nonzero;stroke:none;stroke-width:0.35277778"
         d="m 0.03423243,11.03976 c 0.02751667,-0.03034 0.69109165,-0.742244 2.20591937,-0.742244 1.2498917,0 2.5107194,0.712611 2.5107194,2.304697 v 6.347176 H 2.4846268 v -4.544836 c 0,-1.310569 -0.5471583,-2.124427 -1.42875,-2.124427 -0.79057493,0 -1.63512491,0.510822 -1.63512491,1.944158 v 4.750858 H -2.8966453 v -8.574616 h 2.36890274 v 1.258358 z M 0.11607687,10.180746 V 9.7567068 H -3.5404647 V 19.61861 h 3.60503602 v -5.394325 c 0,-0.485775 0.12876388,-1.300339 0.99130558,-1.300339 0.747536,0 0.7852833,1.233311 0.7852833,1.480608 v 5.188303 h 3.5535304 v -6.990644 c 0,-1.73602 -1.2971638,-2.9485174 -3.1545388,-2.9485174 -0.9927166,0 -1.68839438,0.2723449 -2.12407493,0.5270504" />
      <path
         inkscape:connector-curvature="0"
         id="path19170"
         style="fill:#e8272b;fill-opacity:1;fill-rule:nonzero;stroke:none;stroke-width:0.35277778"
         d="m 6.9267884,6.6797705 h 2.935111 V 10.13029 h 1.7254366 v 2.420408 H 9.8876522 v 3.553177 c 0,0.489303 0.2060218,0.952853 0.7729368,0.952853 h 0.566208 v 2.317397 H 8.9351522 c -1.1070166,0 -2.0598694,-1.184627 -2.0598694,-2.446161 V 12.576451 H 5.2789634 v -2.420408 h 1.6220722 l 0.025753,-3.4762725" />
      <path
         inkscape:connector-curvature="0"
         id="path19172"
         style="fill:#ffffff;fill-opacity:1;fill-rule:nonzero;stroke:none;stroke-width:0.35277778"
         d="m 9.5401834,7.0015039 v 3.4505191 h 1.7250836 v 1.776589 H 9.5659362 v 3.875263 c 0,0.774348 0.4296833,1.274587 1.0946698,1.274587 h 0.244475 v 1.673577 H 8.9351695 c -0.9098138,0 -1.738136,-1.012472 -1.738136,-2.124075 v -4.6736 H 5.600714 v -1.776588 h 1.6196028 c 0,0 0.021872,-2.9492221 0.025753,-3.4762721 z M 9.8619167,6.3576845 H 6.607189 c 0,0 -0.021872,2.9492221 -0.025753,3.4762721 H 4.9568946 V 12.898185 H 6.553214 v 4.02978 c 0,1.47461 1.1130139,2.767894 2.3819555,2.767894 H 11.5489 v -2.961217 h -0.888294 c -0.299156,0 -0.45085,-0.212372 -0.45085,-0.630767 v -3.231443 h 1.69933 V 9.8082038 H 10.184003 V 6.3576845 H 9.8619167" />
      <path
         inkscape:connector-curvature="0"
         id="path19174"
         style="fill:#e8272b;fill-opacity:1;fill-rule:nonzero;stroke:none;stroke-width:0.35277778"
         d="m 12.024807,10.078449 h 2.935464 v 0.824089 c 0,0 1.132769,-1.0043585 2.935464,-0.798336 0.02575,0.9271 0,2.317397 0,2.317397 h -0.489303 c -0.386292,0 -2.420408,0.28328 -2.420408,2.085621 v 4.815064 h -2.961217 v -9.243836" />
      <path
         inkscape:connector-curvature="0"
         id="path19176"
         style="fill:#ffffff;fill-opacity:1;fill-rule:nonzero;stroke:none;stroke-width:0.35277778"
         d="m 15.173322,11.144191 c 0.0099,-0.0085 0.941564,-0.796572 2.406297,-0.736247 0.0035,0.23001 0.006,0.46884 0.006,0.706614 0,0.38241 -0.0035,0.74048 -0.0067,0.985308 h -0.172156 c -0.579261,0 -2.742494,0.408517 -2.742494,2.407707 v 4.493331 h -2.317397 v -8.600369 h 2.291997 v 1.210381 z m 0.109361,-0.843844 V 9.7567155 H 11.703047 V 19.64437 h 3.605036 v -5.136796 c 0,-1.660172 2.077508,-1.763889 2.098675,-1.763889 h 0.805039 l 0.006,-0.316088 c 3.53e-4,-0.01376 0.0254,-1.408289 0,-2.332215 l -0.0078,-0.279047 -0.277636,-0.03175 C 16.738208,9.64806 15.82028,10.001896 15.282647,10.300346" />
      <path
         inkscape:connector-curvature="0"
         id="path19178"
         style="fill:#e8272b;fill-opacity:1;fill-rule:nonzero;stroke:none;stroke-width:0.35277778"
         d="m 18.050243,10.026934 h 2.858205 l 1.802342,4.480279 1.725083,-4.480279 h 2.549525 c 0,0 -3.811058,10.042172 -4.042833,10.711744 -0.231775,0.66922 -0.721078,2.265892 -3.373261,2.265892 h -43.20681 v -2.368903 h 43.026541 c 1.030111,0 1.184627,-0.10301 1.416402,-0.824089 0.231423,-0.720725 0.489303,-1.364544 0.489303,-1.364544 l -3.244497,-8.420099" />
      <path
         inkscape:connector-curvature="0"
         id="path19180"
         style="fill:#ffffff;fill-opacity:1;fill-rule:nonzero;stroke:none;stroke-width:0.35277778"
         d="m 26.519026,10.349012 c -0.740481,1.951919 -3.674886,9.690099 -3.880555,10.284529 l -0.01588,0.04621 c -0.240948,0.700264 -0.689328,2.003072 -3.052939,2.003072 H -23.315425 V 20.95774 h 42.704807 c 1.090436,0 1.427692,-0.130528 1.722614,-1.047397 0.225072,-0.701322 0.479072,-1.337381 0.481542,-1.343731 l 0.04692,-0.117475 c 0,0 -2.817989,-7.313788 -3.121025,-8.10013 h 2.1717 c 0.147814,0.367947 2.026356,5.037314 2.026356,5.037314 0,0 1.794933,-4.661958 1.939572,-5.037314 z M 24.435873,9.7051921 h -0.220839 c 0,0 -1.106311,2.8730229 -1.510594,3.9235949 -0.421217,-1.047044 -1.578328,-3.9235949 -1.578328,-3.9235949 h -3.544711 c 0,0 3.280481,8.5139389 3.36797,8.7407739 -0.08502,0.219429 -0.273403,0.717198 -0.450498,1.267531 -0.178152,0.554919 -0.192969,0.600428 -1.109486,0.600428 H -23.95924 v 3.012722 h 43.528897 c 2.822927,0 3.410655,-1.707797 3.66148,-2.437342 l 0.01552,-0.04515 c 0.227542,-0.657578 4.001559,-10.602382 4.039659,-10.702925 l 0.165452,-0.4360329 h -3.015897" />
      <path
         inkscape:connector-curvature="0"
         id="path19182"
         style="fill:#e8272b;fill-opacity:1;fill-rule:nonzero;stroke:none;stroke-width:0.35277778"
         d="m 23.47772,22.190015 v -0.271639 h 0.180975 c 0.09243,0 0.191206,0.02046 0.191206,0.128764 0,0.134762 -0.100895,0.142875 -0.213431,0.142875 z m 0,0.112536 h 0.152753 l 0.231422,0.379942 h 0.148872 l -0.249766,-0.385939 c 0.129116,-0.01623 0.227541,-0.08431 0.227541,-0.241653 0,-0.172861 -0.102658,-0.249061 -0.309739,-0.249061 h -0.333727 v 0.876653 h 0.132644 z m 0.160867,0.701676 c 0.414161,0 0.76835,-0.321733 0.76835,-0.762001 0,-0.436385 -0.354189,-0.758119 -0.76835,-0.758119 -0.418395,0 -0.772231,0.321733 -0.772231,0.758119 0,0.440267 0.353836,0.762001 0.772231,0.762001 m -0.619478,-0.762001 c 0,-0.360185 0.271639,-0.631471 0.619478,-0.631471 0.343958,0 0.615597,0.271286 0.615597,0.631471 0,0.365831 -0.271639,0.635353 -0.615597,0.635353 -0.347839,0 -0.619478,-0.269522 -0.619478,-0.635353" />
      <path
         inkscape:connector-curvature="0"
         id="path19184"
         style="fill:#ffffff;fill-opacity:1;fill-rule:nonzero;stroke:none;stroke-width:0.35277778"
         d="m 23.340851,22.241875 c 0,-0.179211 0.125236,-0.309386 0.297744,-0.309386 0.169687,0 0.293159,0.130175 0.293159,0.309386 0,0.181681 -0.123472,0.313618 -0.293159,0.313618 -0.17533,0 -0.297744,-0.128762 -0.297744,-0.313618 m -0.643819,0 c 0,0.536927 0.413808,0.957439 0.941563,0.957439 0.525287,0 0.936978,-0.420512 0.936978,-0.957439 0,-0.534459 -0.411691,-0.953207 -0.936978,-0.953207 -0.527755,0 -0.941563,0.418748 -0.941563,0.953207" />
      <path
         inkscape:connector-curvature="0"
         id="path19186"
         style="fill:#ffffff;fill-opacity:1;fill-rule:nonzero;stroke:none;stroke-width:0.35277778"
         d="m 23.188107,22.241875 c 0,-0.244476 0.197908,-0.436386 0.450497,-0.436386 0.25012,0 0.446264,0.191911 0.446264,0.436386 0,0.275518 -0.226836,0.440266 -0.446264,0.440266 -0.252589,0 -0.450497,-0.193323 -0.450497,-0.440266 m -0.643819,0 c 0,0.607835 0.480836,1.084085 1.094316,1.084085 0.611364,0 1.090084,-0.47625 1.090084,-1.084085 0,-0.59549 -0.48895,-1.079853 -1.090084,-1.079853 -0.61348,0 -1.094316,0.474133 -1.094316,1.079853" />
      <path
         inkscape:connector-curvature="0"
         id="path19188"
         style="fill:#ffffff;fill-opacity:1;fill-rule:nonzero;stroke:none;stroke-width:0.35277778"
         d="m 23.345084,21.483737 h -0.321733 v 1.520473 h 1.57868 c 0,0 -0.366183,-0.566208 -0.400403,-0.619479 0.06597,-0.09137 0.109009,-0.20073 0.109009,-0.329847 0,-0.276225 -0.166159,-0.571147 -0.631825,-0.571147 h -0.333728" />
      <path
         inkscape:connector-curvature="0"
         id="path19190"
         style="fill:#ffffff;fill-opacity:1;fill-rule:nonzero;stroke:none;stroke-width:0.35277778"
         d="m 23.527806,22.04714 c 0,-0.0321 0.01552,-0.06421 0.03563,-0.09313 0.03916,0.03916 0.05151,0.05151 0.100541,0.100189 -0.04868,0.04868 -0.06033,0.06032 -0.09948,0.09948 -0.02081,-0.03104 -0.03669,-0.06703 -0.03669,-0.10654 m -0.05009,-0.450496 H 23.15563 v 0.915105 h 0.480837 c 0.496711,0 0.535163,-0.3556 0.535163,-0.464608 0,-0.224367 -0.15875,-0.450497 -0.513291,-0.450497 h -0.180622" />
      <path
         inkscape:connector-curvature="0"
         id="path19192"
         style="fill:#e8272b;fill-opacity:1;fill-rule:nonzero;stroke:none;stroke-width:0.35277778"
         d="m -23.637509,14.841981 h 2.935464 c 0,0 -0.103011,2.111375 2.16288,2.111375 0.824089,0 1.750836,-0.540456 1.750836,-1.467556 0,-0.437797 -0.180269,-1.081616 -1.287286,-1.441802 -1.107369,-0.360539 -3.424766,-0.849842 -4.19735,-1.648178 -0.77223,-0.798336 -1.41605,-1.467556 -1.41605,-3.0642273 0,-1.5963194 1.338792,-4.1712443 5.098345,-4.1712443 3.7592,0 4.918075,2.7294416 4.918075,4.7893111 h -3.141486 c 0,0 0.180269,-2.2143862 -2.008364,-2.2143862 -1.622072,0 -1.750836,0.9528528 -1.750836,1.3387917 0,0.3862916 0.206022,1.184627 1.673577,1.57092 1.467556,0.386291 3.27025,0.849842 4.196998,1.647825 0.9271,0.798336 1.313391,1.802694 1.313391,3.012722 0,1.210381 -0.978605,4.22275 -5.14985,4.22275 -4.171244,0 -5.124097,-2.755194 -5.124097,-3.887964 0,-0.386292 0.02575,-0.798336 0.02575,-0.798336" />
      <path
         inkscape:connector-curvature="0"
         id="path19194"
         style="fill:#e8272b;fill-opacity:1;fill-rule:nonzero;stroke:none;stroke-width:0.35277778"
         d="m -8.4197336,12.164398 c 1.2103805,0 1.6735777,1.004006 1.6735777,1.004006 h -3.3729081 c 0,0 0.4889499,-1.004006 1.6993304,-1.004006 m 0.051506,4.892321 c -1.5963197,0 -2.0341164,-1.802341 -2.0341164,-1.802341 h 6.7204163 c 0,0 0.077258,-0.07726 0.077258,-0.540808 0,-2.188633 -1.7765889,-4.9953336 -4.6090416,-4.9953336 -3.9137167,0 -5.0210857,3.2960036 -5.0210857,4.9438286 0,1.647824 1.287286,4.78931 5.0210857,4.78931 3.7334472,0 4.6090416,-3.630788 4.6090416,-3.630788 h -2.9097111 c 0,0 -0.5665611,1.236132 -1.8538471,1.236132" />
      <path
         inkscape:connector-curvature="0"
         id="path19196"
         style="fill:#e8272b;fill-opacity:1;fill-rule:nonzero;stroke:none;stroke-width:0.35277778"
         d="M -0.20566453,10.825262 V 10.078431 H -3.2183867 v 9.218435 h 2.96121662 v -5.07259 c 0,-1.081617 0.54080832,-1.622425 1.31303888,-1.622425 0.7725833,0 1.1073694,0.849841 1.1073694,1.802341 v 4.866922 h 2.909711 V 12.60185 c 0,-1.673578 -1.2872861,-2.6264305 -2.8324527,-2.6264305 -1.69933049,0 -2.44616103,0.8498425 -2.44616103,0.8498425" />
      <path
         inkscape:connector-curvature="0"
         id="path19198"
         style="fill:#e8272b;fill-opacity:1;fill-rule:nonzero;stroke:none;stroke-width:0.35277778"
         d="m 6.9267884,6.6797705 h 2.935111 V 10.13029 h 1.7254366 v 2.420408 H 9.8876522 v 3.553177 c 0,0.489303 0.2060218,0.952853 0.7729368,0.952853 h 0.566208 v 2.317397 H 8.9351522 c -1.1070166,0 -2.0598694,-1.184627 -2.0598694,-2.446161 V 12.576451 H 5.2789634 v -2.420408 h 1.6220722 l 0.025753,-3.4762725" />
      <path
         inkscape:connector-curvature="0"
         id="path19200"
         style="fill:#e8272b;fill-opacity:1;fill-rule:nonzero;stroke:none;stroke-width:0.35277778"
         d="m 12.024807,10.078449 h 2.935464 v 0.824089 c 0,0 1.132769,-1.0043585 2.935464,-0.798336 0.02575,0.9271 0,2.317397 0,2.317397 h -0.489303 c -0.386292,0 -2.420408,0.28328 -2.420408,2.085621 v 4.815064 h -2.961217 v -9.243836" />
      <path
         inkscape:connector-curvature="0"
         id="path19202"
         style="fill:#e8272b;fill-opacity:1;fill-rule:nonzero;stroke:none;stroke-width:0.35277778"
         d="m 18.050243,10.026934 h 2.858205 l 1.802342,4.480279 1.725083,-4.480279 h 2.549525 c 0,0 -3.811058,10.042172 -4.042833,10.711744 -0.231775,0.66922 -0.721078,2.265892 -3.373261,2.265892 h -43.20681 v -2.368903 h 43.026541 c 1.030111,0 1.184627,-0.10301 1.416402,-0.824089 0.231423,-0.720725 0.489303,-1.364544 0.489303,-1.364544 l -3.244497,-8.420099" />
      <path
         inkscape:connector-curvature="0"
         id="path19204"
         style="fill:#e8272b;fill-opacity:1;fill-rule:nonzero;stroke:none;stroke-width:0.35277778"
         d="m 23.47772,22.190015 v -0.271639 h 0.180975 c 0.09243,0 0.191206,0.02046 0.191206,0.128764 0,0.134762 -0.100895,0.142875 -0.213431,0.142875 z m 0,0.112536 h 0.152753 l 0.231422,0.379942 h 0.148872 l -0.249766,-0.385939 c 0.129116,-0.01623 0.227541,-0.08431 0.227541,-0.241653 0,-0.172861 -0.102658,-0.249061 -0.309739,-0.249061 h -0.333727 v 0.876653 h 0.132644 z m 0.160867,0.701676 c 0.414161,0 0.76835,-0.321733 0.76835,-0.762001 0,-0.436385 -0.354189,-0.758119 -0.76835,-0.758119 -0.418395,0 -0.772231,0.321733 -0.772231,0.758119 0,0.440267 0.353836,0.762001 0.772231,0.762001 m -0.619478,-0.762001 c 0,-0.360185 0.271639,-0.631471 0.619478,-0.631471 0.343958,0 0.615597,0.271286 0.615597,0.631471 0,0.365831 -0.271639,0.635353 -0.615597,0.635353 -0.347839,0 -0.619478,-0.269522 -0.619478,-0.635353" />
    </g>
  </g>
</svg>
