<svg xmlns="http://www.w3.org/2000/svg" width="950" height="852.72" version="1.0">
  <path fill="#f08200" d="M403.01 166.72H157V2.32h445.36c-102.67 46.64-189.64 147.1-199.34 164.4"/>
  <path fill="#094" d="M810.8 0c-15.69.13-32.45 5.22-47.52 15.48-34.42 23.56-46.94 65.19-27.92 93.17 19.05 27.84 62.4 31.43 96.8 7.95 34.44-23.5 46.91-65.14 28-92.98C849.38 7.86 830.97-.17 810.8 0zm-38.93 162.13c-2.07-.05-4.1.06-6.08.33h-.53c-5.57.12-11.25 2.18-16.82 5.34a56.28 56.28 0 0 0-7.47 4.32c-5.46 3.73-9.92 7.43-13.6 12.24-15.7 16.22-34.47 51.06-34.47 51.06-5.56 8.43-13.59 27.05-25.42 49.19a203.17 203.17 0 0 0-9.24 20.07h125.71c2.76-6.84 5.6-13.96 8.5-21.46 13.13-33.86 26.77-75.62 20.27-96.27 0 0-1.8-4.13-2.94-5.84-7.25-10.58-23.4-18.63-37.9-18.98zM339.83 316.19c-10.02 0-16.75 8.03-16.75 20.06 0 6.2 2.49 12.52 7.51 19.37-.7.59-3.98 3.59-3.98 3.59-6.54 6.01-12.4 12.42-12.4 24.04 0 15.28 9.48 26.82 22 26.82 7.49 0 14.82-4.82 20.81-13.43.9 1.4 7.27 11.51 7.27 11.51h12.3l-12.88-20.27c.43-.7 8.51-12.78 8.51-12.78l-6.36-8.43s-7.12 10.5-8.07 11.95c-1.04-1.55-13.13-20.2-13.67-21.06 5.1-4.77 12.46-11.85 12.46-22.23 0-12.6-8.43-19.14-16.75-19.14zm217.74.08c-20.47 0-37.15 20.27-37.15 45.22 0 28.15 15.65 48.58 37.15 48.58 21.57 0 37.19-20.43 37.19-48.58 0-24.95-16.69-45.22-37.19-45.22zm302.04 0c-21.82 0-36.44 19.02-36.44 47.35 0 27.36 14.7 46.45 35.74 46.45 11.85 0 21.42-5.9 27.56-17.09 5.9-10.73 6.68-21.7 6.9-33.77H860.2V375h14.83l-.1 1.44c-.71 10.5-6.81 16.97-15.9 16.97-12.95 0-19.71-14.88-19.71-29.64 0-14.89 6.68-29.93 19.42-29.93 7.14 0 12.74 5.13 15.7 13.84l14.83-8.06c-5.78-15.24-15.99-23.36-29.67-23.36zm-456.48.04a10.43 10.43 0 0 0-10.45 10.45 10.45 10.45 0 1 0 10.45-10.45zm-377.94.56c-13.6 0-22.7 11.66-22.7 29 0 16.82 6.8 20.2 17.97 24.33l.53.2c3.96 1.44 11.32 4.15 11.32 11.36 0 7.2-5.24 10.45-10.1 10.45-5.22 0-10.34-2.81-15.6-8.32C5.44 386.79.6 398.53 0 400.08c6.92 6.02 14.94 9.4 22.82 9.4 7.4 0 14.08-2.88 18.78-8.1 4.56-5.02 6.86-12.9 6.86-23.43 0-15.25-8.71-20.57-16.31-23.5l-4.62-1.8c-3.34-1.43-8.9-3.71-8.9-9.9 0-5.5 4.74-8.9 9.08-8.9 3.99 0 8.01 1.85 11.49 5.07 1.08-2.8 5.44-13.77 6.1-15.41-5.84-4.05-13.6-6.64-20.11-6.64zm901.5 0c-13.52 0-22.64 11.66-22.64 29 0 16.82 6.85 20.2 17.95 24.33l.58.2c3.94 1.44 11.28 4.17 11.28 11.36 0 7.2-5.22 10.45-10.1 10.45-5.2 0-10.32-2.81-15.55-8.32-1.2 2.9-6.03 14.64-6.65 16.19 6.87 6.02 14.97 9.4 22.85 9.4 7.37 0 14-2.88 18.75-8.1 4.55-5.02 6.84-12.9 6.84-23.43 0-15.25-8.7-20.57-16.29-23.5l-4.61-1.8c-3.4-1.43-8.88-3.71-8.88-9.9 0-5.5 4.7-8.9 9.1-8.9 3.93 0 7.92 1.85 11.43 5.07 1.09-2.8 5.44-13.77 6.1-15.41-5.86-4.05-13.6-6.64-20.16-6.64zm-868.8 2.36v87.83h36.9v-17.23H73.33v-18.28H93.7v-17.23H73.33V336.5h21.46v-17.27h-36.9zm44 0c1.06 3.37 27.82 86.04 28.39 87.83h12.1c.54-1.77 27.73-84.46 28.85-87.83H154.4c-.56 1.87-17.9 58.22-17.9 58.22l-17.8-58.22h-16.8zm77.02 0v87.83h36.99v-17.23h-21.58v-18.28h20.45v-17.23h-20.45V336.5h21.58v-17.27h-37zm48.97 0v87.83h15.4v-58.99l2.68 4.2 32.77 54.8h15.96v-87.84H279.3v58.87l-2.72-4.16s-31.97-53.42-32.72-54.71h-15.98zm223.78 0v87.83h15.42v-37.05h28.81v37.05h15.38v-87.83H495.9v34.95h-28.8v-34.95h-15.43zm152.31 0v87.83h37.14v-17.23h-21.73v-70.6h-15.4zm45.7 0v87.83h24.37c18.72 0 34.01-19.7 34.01-43.9 0-24.18-15.3-43.93-34.01-43.93h-24.37zm67.59 0v87.83h15.42v-87.83h-15.42zm29.92 0v87.83h15.37v-58.99l2.73 4.2s31.96 53.5 32.76 54.8h16v-87.84h-15.43v58.87l-2.7-4.16-32.75-54.71h-15.98zm-407.54 6.96c4.55 0 7.48 3.54 7.48 9.02 0 5.36-3.4 8.62-6.67 11.78l-1.46 1.43-.48.4-1.85-3.1-.23-.33c-1.98-3.22-3.85-6.23-3.85-10.4 0-5 3.03-8.8 7.06-8.8zm217.93 10.2c11.42 0 21.02 11.54 21.02 25.21 0 15.9-9.22 28.35-21.02 28.35-11.74 0-21-12.44-21-28.35 0-13.67 9.6-25.22 21-25.22zm107.5.1h5.6c12.87 0 21.2 10.46 21.2 26.68 0 19.63-11.06 26.66-21.36 26.66h-5.44V336.5zm-270.76 10.54v61.56h18.11v-61.56h-18.1zm-57.93 17.68c.73 1.2 14.23 22.24 14.73 22.98-4.66 5.94-9.36 11.16-15.15 11.16-6.3 0-12.27-7.63-12.27-15.72 0-7.44 6.42-13.02 11.14-17.08l1.28-1.14.27-.2zm294.58 58.45c-.83 26.5 2.9 52.9 11.23 79.15 0 0 28.15 79.76 84.08 84.32 116.87 9.54 140.82-131.4 140.82-131.4-74.7 61.85-115.18 42.19-115.18 42.19-12.23-5.12-20.56-14.83-25.06-29.07-9.41-27.1-8.83-44.78-8.83-44.78.08-.13.19-.26.28-.41h-87.34zm-18.7 42.76c-34.19 45.88-133.3 155.63-287.51 212.16-233.46 85.53-150.58-69.22-150.58-69.22-80.63 50.05-170.9 215.61-20.36 240.98 211.54 35.63 452.94-269.72 484.03-308.14-21.65-37.52-25.59-75.78-25.59-75.78z"/>
  <path fill="#e60012" d="M665.46 2.32C638.86 6 552.11 52.94 490.68 109.72c-61.08 56.31-103.5 108.05-135.58 194.96h183.89c6.86-13.76 15.3-25.92 26.14-40.46 24.85-33.36 58.5-60.58 100.33-79.67V2.32zm-342.3 420.84c-16.87 91.43-19.44 183.64-19.82 241.1a583.4 583.4 0 0 0 14.5-5.11c80.45-29.49 142.22-70.74 186.95-108.96 1.14-39.44 2.96-76.86 5.74-105.93.7-7.43 1.38-14.41 2.11-21.1H323.17z"/>
</svg>