<?xml version="1.0" encoding="UTF-8" standalone="no"?>
<!-- Created with Inkscape (http://www.inkscape.org/) -->

<svg
   xmlns:dc="http://purl.org/dc/elements/1.1/"
   xmlns:cc="http://creativecommons.org/ns#"
   xmlns:rdf="http://www.w3.org/1999/02/22-rdf-syntax-ns#"
   xmlns:svg="http://www.w3.org/2000/svg"
   xmlns="http://www.w3.org/2000/svg"
   xmlns:sodipodi="http://sodipodi.sourceforge.net/DTD/sodipodi-0.dtd"
   xmlns:inkscape="http://www.inkscape.org/namespaces/inkscape"
   width="60.27916"
   height="37.590961"
   viewBox="0 0 15.94886 9.9459414"
   version="1.1"
   id="svg16224"
   inkscape:version="0.92.0 r15299"
   sodipodi:docname="shaws and star.svg">
  <defs
     id="defs16218" />
  <sodipodi:namedview
     id="base"
     pagecolor="#ffffff"
     bordercolor="#666666"
     borderopacity="1.0"
     inkscape:pageopacity="0.0"
     inkscape:pageshadow="2"
     inkscape:zoom="13.811632"
     inkscape:cx="29.63958"
     inkscape:cy="18.79533"
     inkscape:document-units="mm"
     inkscape:current-layer="layer1"
     showgrid="false"
     fit-margin-top="0"
     fit-margin-left="0"
     fit-margin-right="0"
     fit-margin-bottom="0"
     units="px"
     inkscape:window-width="1280"
     inkscape:window-height="744"
     inkscape:window-x="-4"
     inkscape:window-y="-4"
     inkscape:window-maximized="1" />
  <metadata
     id="metadata16221">
    <rdf:RDF>
      <cc:Work
         rdf:about="">
        <dc:format>image/svg+xml</dc:format>
        <dc:type
           rdf:resource="http://purl.org/dc/dcmitype/StillImage" />
        <dc:title></dc:title>
      </cc:Work>
    </rdf:RDF>
  </metadata>
  <g
     inkscape:label="Layer 1"
     inkscape:groupmode="layer"
     id="layer1"
     transform="translate(-69.665889,-185.47121)">
    <g
       id="g16408"
       transform="translate(1.3426132,-0.79527885)">
      <path
         d="m 81.115528,196.00062 c -0.117828,0 -0.225425,-0.085 -0.225425,-0.21766 0,-0.133 0.107597,-0.21802 0.225425,-0.21802 0.118886,0 0.226131,0.085 0.226131,0.21802 0,0.13264 -0.107245,0.21766 -0.226131,0.21766 m 0,-0.39264 c -0.0956,0 -0.171097,0.078 -0.171097,0.17498 0,0.0963 0.07549,0.17427 0.171097,0.17427 0.09666,0 0.171803,-0.078 0.171803,-0.17427 0,-0.097 -0.07514,-0.17498 -0.171803,-0.17498 m 0.05221,0.29668 -0.06032,-0.10406 h -0.0321 v 0.10406 h -0.04727 v -0.24412 h 0.09349 c 0.06138,0 0.09631,0.0194 0.09631,0.072 0,0.0448 -0.02822,0.0624 -0.06491,0.0656 l 0.06632,0.10653 z m -0.04798,-0.20778 h -0.04445 v 0.0674 h 0.04727 c 0.02716,0 0.04833,-0.004 0.04833,-0.0356 0,-0.0286 -0.02822,-0.0318 -0.05115,-0.0318"
         style="fill:#7ac143;fill-opacity:1;fill-rule:nonzero;stroke:none;stroke-width:0.35277778"
         id="path5304"
         inkscape:connector-curvature="0" />
      <path
         d="m 82.191428,191.07034 -1.651706,1.18251 -1.650647,-1.18286 0.630414,1.91382 v 3.5e-4 l -1.651353,1.18251 h 2.04082 l 0.630766,1.91347 0.630767,-1.91347 h 2.041525 l -1.651353,-1.18286 z"
         style="fill:#7ac143;fill-opacity:1;fill-rule:nonzero;stroke:none;stroke-width:0.35277778"
         id="path5308"
         inkscape:connector-curvature="0" />
      <path
         d="m 75.319138,194.72251 h 0.213078 c -0.01023,0.0282 -0.01799,0.0533 -0.02787,0.0808 h 0.0035 c 0.0822,-0.073 0.156281,-0.10055 0.253647,-0.10125 0.106186,0.002 0.157692,0.0434 0.156634,0.12665 h 0.0032 c 0.06738,-0.085 0.1524,-0.12524 0.262819,-0.12665 0.148872,0.003 0.185914,0.078 0.135467,0.23636 -0.06773,0.19756 -0.131939,0.37747 -0.196497,0.57609 H 75.89981 c 0.0635,-0.19086 0.127,-0.36407 0.189795,-0.55387 0.02364,-0.0688 0.0081,-0.10124 -0.05256,-0.10301 -0.07479,0.002 -0.127353,0.0416 -0.161925,0.13512 -0.05821,0.17921 -0.115359,0.34219 -0.1778,0.52176 h -0.222603 c 0.06526,-0.19121 0.123825,-0.36407 0.189442,-0.55387 0.02046,-0.0688 0.01376,-0.10124 -0.05292,-0.10301 -0.07232,0.002 -0.129822,0.042 -0.161925,0.13512 -0.06068,0.17921 -0.119944,0.34219 -0.1778,0.52176 h -0.22225 c 0.09208,-0.272 0.175331,-0.52035 0.269875,-0.79199"
         style="fill:#7ac143;fill-opacity:1;fill-rule:nonzero;stroke:none;stroke-width:0.35277778"
         id="path5312"
         inkscape:connector-curvature="0" />
      <path
         d="m 76.751948,195.27408 c -0.02963,0.0885 -0.116417,0.12136 -0.178858,0.12277 -0.06032,-0.002 -0.06456,-0.0483 -0.04586,-0.11078 0.02469,-0.0723 0.07161,-0.10795 0.170038,-0.1277 0.02928,-0.006 0.06809,-0.0194 0.108303,-0.0395 -0.01976,0.0526 -0.03422,0.10125 -0.05362,0.15522 m -0.100894,-0.30903 c 0.0053,-0.007 0.0078,-0.0145 0.0078,-0.0219 0.02222,-0.0628 0.06809,-0.1016 0.138641,-0.10301 0.0755,0.001 0.09137,0.0346 0.0695,0.097 -0.01658,0.054 -0.0448,0.0762 -0.119945,0.0935 -0.04516,0.01 -0.08855,0.0198 -0.136172,0.0303 -0.17145,0.0416 -0.24765,0.0952 -0.303742,0.24695 -0.03634,0.11042 -0.02469,0.2226 0.131939,0.22683 0.110772,-7e-4 0.173214,-0.0183 0.256117,-0.10301 h 0.0035 c 3.52e-4,0.0275 -0.0063,0.0561 -0.0011,0.0829 h 0.212725 c -0.0035,-0.048 -0.0021,-0.0769 0.02505,-0.1531 0.0508,-0.14288 0.09137,-0.2734 0.142523,-0.41734 0.04833,-0.14711 0.04127,-0.23777 -0.231775,-0.242 -0.173214,0.002 -0.318911,0.0579 -0.388409,0.24341 -0.0046,0.007 -0.0039,0.0123 -0.0067,0.0194 z"
         style="fill:#7ac143;fill-opacity:1;fill-rule:nonzero;stroke:none;stroke-width:0.35277778"
         id="path5316"
         inkscape:connector-curvature="0" />
      <path
         d="m 77.296278,194.72251 h 0.212725 c -0.01199,0.0367 -0.02434,0.0695 -0.03634,0.10619 h 0.0035 c 0.07408,-0.0783 0.147108,-0.12489 0.242711,-0.12665 0.01235,0 0.02646,0.002 0.03951,0.003 -0.02434,0.0674 -0.03986,0.12735 -0.06632,0.19403 -0.02258,-0.001 -0.04551,-0.003 -0.06879,-0.003 -0.07973,10e-4 -0.173214,0.0342 -0.212725,0.14323 -0.05786,0.16263 -0.104069,0.31186 -0.162631,0.47555 h -0.222602 c 0.09243,-0.272 0.178858,-0.52035 0.270933,-0.79199"
         style="fill:#7ac143;fill-opacity:1;fill-rule:nonzero;stroke:none;stroke-width:0.35277778"
         id="path5320"
         inkscape:connector-curvature="0" />
      <path
         d="m 78.157198,194.46343 c -0.06597,0.19015 -0.124178,0.36442 -0.189442,0.55492 h 0.0032 c 0.111125,-0.1016 0.2159,-0.19438 0.325261,-0.29598 h 0.244828 c -0.121708,0.1076 -0.232833,0.20426 -0.356305,0.31221 0.0441,0.16439 0.07867,0.31467 0.123119,0.47977 h -0.245533 c -0.02364,-0.11183 -0.04763,-0.21378 -0.07408,-0.32526 -0.03739,0.0325 -0.07197,0.0621 -0.111125,0.0935 -0.02681,0.0801 -0.05009,0.1524 -0.07937,0.23177 h -0.22225 c 0.123825,-0.36195 0.236009,-0.69038 0.358775,-1.05092 z"
         style="fill:#7ac143;fill-opacity:1;fill-rule:nonzero;stroke:none;stroke-width:0.35277778"
         id="path5324"
         inkscape:connector-curvature="0" />
      <path
         d="m 78.698078,195.02911 c 0.0028,-0.0106 0.0056,-0.0219 0.01023,-0.0318 0.02716,-0.0758 0.08008,-0.15416 0.168275,-0.15734 0.09666,0.002 0.08714,0.0642 0.04868,0.18909 z m 0.399344,0.1203 c 0.0046,-0.0159 0.01058,-0.0303 0.01482,-0.0455 0.08255,-0.25118 0.08537,-0.39511 -0.179564,-0.40181 -0.310797,0.008 -0.407105,0.19085 -0.485422,0.40886 -0.06985,0.20285 -0.140758,0.41487 0.190853,0.42404 0.2159,-0.004 0.338666,-0.0991 0.412397,-0.28716 h -0.199672 c -0.04974,0.0995 -0.09349,0.14676 -0.168628,0.14887 -0.08643,-0.004 -0.08079,-0.0885 -0.04692,-0.18415 0.0074,-0.0215 0.01446,-0.0423 0.02223,-0.0631 z"
         style="fill:#7ac143;fill-opacity:1;fill-rule:nonzero;stroke:none;stroke-width:0.35277778"
         id="path5328"
         inkscape:connector-curvature="0" />
      <path
         d="m 79.496658,194.49582 h 0.221897 c -0.02646,0.078 -0.05045,0.14817 -0.07726,0.22684 h 0.128764 c -0.01411,0.0473 -0.02752,0.0903 -0.04657,0.13793 H 79.59402 c -0.0508,0.14676 -0.09737,0.28152 -0.146403,0.42827 -0.02117,0.0646 -0.01623,0.0864 0.04974,0.0875 0.01764,-3.5e-4 0.03598,-0.001 0.0508,-0.003 -0.01623,0.0483 -0.0314,0.0914 -0.04798,0.14111 -0.05045,0.004 -0.09596,0.008 -0.148167,0.008 -0.179564,-0.002 -0.190853,-0.043 -0.135114,-0.20955 0.05292,-0.15487 0.1016,-0.29633 0.15487,-0.45297 h -0.113242 c 0.0194,-0.0473 0.03316,-0.0907 0.04727,-0.13793 h 0.112889 c 0.02646,-0.078 0.05045,-0.14923 0.07796,-0.22684"
         style="fill:#7ac143;fill-opacity:1;fill-rule:nonzero;stroke:none;stroke-width:0.35277778"
         id="path5332"
         inkscape:connector-curvature="0" />
      <path
         d="m 78.082088,192.55762 c -0.493889,0.0219 -0.562681,0.49142 -0.623006,0.69074 -0.105833,0.34219 -0.204611,0.64135 -0.305505,0.98319 h -0.952853 c 0.148167,-0.43886 0.56127,-1.64924 0.712964,-2.09162 l 0.855486,-0.006 -0.0829,0.25718 c 0,0 0.305506,-0.34502 0.725664,-0.35666 0.196497,0.0134 0.356306,0.0392 0.522817,0.26952 0.06174,0.0914 0.08184,0.1905 0.04727,0.30516 -0.06562,0.18309 -0.405342,0.29915 -0.487892,0.24694 -0.0829,-0.0533 -0.08043,-0.23036 -0.287866,-0.28646 -0.04445,-0.0113 -0.08608,-0.0152 -0.124178,-0.012"
         style="fill:#0079c1;fill-opacity:1;fill-rule:nonzero;stroke:none;stroke-width:0.35277778"
         id="path5336"
         inkscape:connector-curvature="0" />
      <path
         d="m 72.059048,192.23892 c 0.06209,0.0917 0.0829,0.19085 0.04798,0.30551 -0.06632,0.18273 -0.405342,0.29915 -0.488245,0.24623 -0.08255,-0.0529 -0.02399,-0.40781 -0.288219,-0.50835 -0.135114,-0.0487 -0.538339,0.0243 -0.290689,0.28998 0.306211,0.33091 0.779286,0.54893 0.779286,1.02906 -0.05292,0.34466 -0.258586,0.46637 -0.558094,0.57573 -0.403578,0.12982 -1.167342,0.19932 -1.688395,-0.21837 -0.494241,-0.45402 0.121003,-0.79269 0.248709,-0.80927 0.128411,-0.0166 0.246591,0.5782 0.631119,0.70203 0.09066,0.0226 0.178858,-0.005 0.231069,-0.0526 0.0575,-0.0695 0.04657,-0.13899 0.0042,-0.22577 -0.267053,-0.3616 -0.814564,-0.65511 -0.626181,-1.1423 0.128411,-0.26423 0.44062,-0.4071 0.749653,-0.46425 0.291394,-0.0699 0.593725,-0.0342 0.593725,-0.0342 0.19685,0.0131 0.488244,0.0762 0.65405,0.30656"
         style="fill:#0079c1;fill-opacity:1;fill-rule:nonzero;stroke:none;stroke-width:0.35277778"
         id="path5340"
         inkscape:connector-curvature="0" />
      <path
         d="m 74.532968,193.48744 c 0.05503,-0.14711 0.198261,-0.22296 0.367594,-0.28257 0.155575,-0.054 0.327378,-0.0459 0.536575,-0.0459 -0.104422,0.28293 -0.237772,0.60713 -0.667455,0.60713 -0.188383,0 -0.293158,-0.12664 -0.236714,-0.27869 m 0.03669,-1.23014 c -0.07338,0.042 -0.112536,0.0783 -0.112536,0.0783 -0.05856,0.0568 -0.08996,0.11042 -0.09596,0.19297 -0.0028,0.13335 0.141464,0.25859 0.208139,0.24518 0.05362,-0.0116 0.166158,-0.16722 0.314678,-0.26564 0.09772,-0.0614 0.201436,-0.12912 0.419453,-0.14146 0.0254,-0.001 0.06668,-0.001 0.118886,0.004 0.329494,0.0406 0.12065,0.42122 0.08255,0.49424 h -0.314325 c -0.858309,0 -1.447095,0.25294 -1.578328,0.72566 -0.118886,0.42863 0.122414,0.69991 0.674864,0.70415 0.492125,0.004 0.642055,-0.15628 0.81915,-0.30833 -0.05645,0.15205 -0.0695,0.1778 -0.07373,0.24483 h 0.953206 c 0.0575,-0.25224 0.509411,-1.52188 0.509411,-1.52188 0.186972,-0.47661 -0.402167,-0.66887 -0.936272,-0.66746 -0.223661,7.1e-4 -0.437092,0.0236 -0.555625,0.0515 -0.123472,0.0289 -0.26035,0.0649 -0.433564,0.16368"
         style="fill:#0079c1;fill-opacity:1;fill-rule:nonzero;stroke:none;stroke-width:0.35277778"
         id="path5344"
         inkscape:connector-curvature="0" />
      <path
         d="m 73.551118,192.09425 c 0.136172,0 0.452261,7.1e-4 0.59055,7.1e-4 -0.03422,0.14216 -0.06809,0.25541 -0.112536,0.40216 h -0.567267 c -0.102305,0.30727 -0.178153,0.54892 -0.2794,0.8569 -0.01552,0.0557 -0.06103,0.18485 -0.07126,0.24518 -0.04163,0.11007 -0.05115,0.31221 0.139347,0.31221 0.06879,0 0.112536,-0.0109 0.178506,-0.0423 l 0.06668,0.23072 c -0.242006,0.12735 -0.481542,0.18415 -0.855839,0.19403 -0.314678,-0.008 -0.559858,-0.0748 -0.544689,-0.43215 0.01235,-0.084 0.0441,-0.18909 0.07373,-0.27129 0.127352,-0.39088 0.239536,-0.70273 0.366536,-1.09326 h -0.29457 c 0.04092,-0.13652 0.07973,-0.26881 0.12065,-0.40216 h 0.309739 c 0.07303,-0.21696 0.136172,-0.43639 0.136172,-0.43639 0.256117,-0.0564 0.740128,-0.1397 0.934156,-0.16616 l -0.1905,0.60184"
         style="fill:#0079c1;fill-opacity:1;fill-rule:nonzero;stroke:none;stroke-width:0.35277778"
         id="path5348"
         inkscape:connector-curvature="0" />
    </g>
    <g
       id="g16394"
       transform="translate(6.7016174,-21.928868)">
      <path
         d="m 76.634047,208.51309 c 0.03351,-0.0328 0.07091,-0.0621 0.110067,-0.0889 -0.04621,-0.47837 -0.509764,-0.89182 -0.509764,-0.89182 0,0 -0.436386,0.42157 -0.487186,0.99307 -0.05221,0.58243 0.470958,1.0989 0.470958,1.0989 0,0 0.01729,-0.72425 0.415925,-1.11125"
         style="fill:#7ac143;fill-opacity:1;fill-rule:nonzero;stroke:none;stroke-width:0.35277778"
         id="path6982"
         inkscape:connector-curvature="0" />
      <path
         d="m 76.743973,208.42419 c 0.0046,0.0501 0.0056,0.0991 0.0028,0.14781 -0.03598,0.57715 -0.528461,1.05234 -0.528461,1.05234 0,0 0.680156,-0.0194 1.032933,-0.38523 0.383823,-0.39794 0.465667,-1.06292 0.465667,-1.06292 0,0 -0.595842,-0.008 -0.972961,0.248"
         style="fill:#c2cd23;fill-opacity:1;fill-rule:nonzero;stroke:none;stroke-width:0.35277778"
         id="path6986"
         inkscape:connector-curvature="0" />
      <path
         d="m 76.746724,208.57201 c 0.0028,-0.0487 0.0018,-0.0977 -0.0028,-0.14781 -0.03916,0.0268 -0.07655,0.0561 -0.109714,0.0889 -0.398639,0.38699 -0.415925,1.11125 -0.415925,1.11125 0,0 0.492478,-0.4752 0.528461,-1.05234"
         style="fill:#78a22f;fill-opacity:1;fill-rule:nonzero;stroke:none;stroke-width:0.35277778"
         id="path6990"
         inkscape:connector-curvature="0" />
      <path
         d="m 65.757027,209.90974 c 0.06138,0.0914 0.0822,0.18979 0.04727,0.30374 -0.06597,0.18203 -0.403225,0.29704 -0.485069,0.24553 -0.0829,-0.0529 -0.0247,-0.40604 -0.287161,-0.50588 -0.13335,-0.0483 -0.534811,0.0236 -0.288925,0.28787 0.304094,0.32949 0.775405,0.5461 0.775405,1.02341 -0.05256,0.34254 -0.257175,0.46319 -0.555272,0.57291 -0.401108,0.12876 -1.160992,0.19791 -1.678517,-0.21696 -0.491419,-0.45226 0.120298,-0.78916 0.247298,-0.80539 0.127,-0.0159 0.24518,0.57467 0.627591,0.69814 0.08996,0.0222 0.177095,-0.005 0.230011,-0.0526 0.05644,-0.0688 0.04551,-0.13829 0.0042,-0.22401 -0.265995,-0.35948 -0.810331,-0.65194 -0.623359,-1.13595 0.127706,-0.26246 0.438503,-0.40463 0.746125,-0.46178 0.289278,-0.0692 0.589845,-0.0339 0.589845,-0.0339 0.195439,0.0134 0.485775,0.0762 0.650522,0.3048"
         style="fill:#f58427;fill-opacity:1;fill-rule:nonzero;stroke:none;stroke-width:0.35277778"
         id="path6994"
         inkscape:connector-curvature="0" />
      <path
         d="m 78.279967,209.90974 c 0.06138,0.0914 0.08149,0.18979 0.04692,0.30374 -0.06562,0.18203 -0.402872,0.29704 -0.484716,0.24553 -0.0829,-0.0529 -0.02434,-0.40604 -0.287161,-0.50588 -0.13335,-0.0483 -0.534811,0.0236 -0.289278,0.28787 0.3048,0.32949 0.775758,0.5461 0.775758,1.02341 -0.05292,0.34254 -0.257175,0.46319 -0.555272,0.57291 -0.401108,0.12876 -1.161344,0.19791 -1.678164,-0.21696 -0.492125,-0.45226 0.119945,-0.78916 0.246592,-0.80539 0.127705,-0.0159 0.245533,0.57467 0.628297,0.69814 0.08961,0.0222 0.177094,-0.005 0.229658,-0.0526 0.05609,-0.0688 0.04551,-0.13829 0.0042,-0.22401 -0.265995,-0.35948 -0.810331,-0.65194 -0.623359,-1.13595 0.128059,-0.26246 0.438503,-0.40463 0.746125,-0.46178 0.288925,-0.0692 0.589845,-0.0339 0.589845,-0.0339 0.195439,0.0134 0.485775,0.0762 0.650522,0.3048"
         style="fill:#f58427;fill-opacity:1;fill-rule:nonzero;stroke:none;stroke-width:0.35277778"
         id="path6998"
         inkscape:connector-curvature="0" />
      <path
         d="m 75.436719,211.3236 c 0.277636,-0.75353 0.5334,-1.55822 0.5334,-1.55822 h -0.974372 l -0.443795,1.28658 c 0,0 -0.07055,0.3048 -0.41663,0.27728 -0.3175,-0.0254 -0.198967,-0.30585 -0.198967,-0.30585 0.08678,-0.21096 0.417336,-1.25342 0.417336,-1.25342 h -0.981075 l -0.4572,1.34302 c 0,0 -0.103364,0.30939 -0.47625,0.22472 -0.22225,-0.0508 -0.117122,-0.31432 -0.117122,-0.31432 l 0.424392,-1.25342 h -0.993422 c 0,0 -0.452262,1.30175 -0.522112,1.57938 -0.04127,0.2914 0.231423,0.45967 0.413809,0.50941 0.5969,0.13759 1.1303,0.0155 1.604433,-0.29845 0.250119,0.34043 0.733425,0.38982 1.188156,0.31503 0,0 0.7493,-0.0956 0.999419,-0.55174"
         style="fill:#f58427;fill-opacity:1;fill-rule:nonzero;stroke:none;stroke-width:0.35277778"
         id="path7002"
         inkscape:connector-curvature="0" />
      <path
         d="m 69.317014,211.15169 c 0.05397,-0.14676 0.197203,-0.22225 0.364419,-0.28116 0.155575,-0.0543 0.325967,-0.0462 0.534106,-0.0462 -0.104775,0.28117 -0.236714,0.60431 -0.663575,0.60431 -0.187678,0 -0.291747,-0.12559 -0.23495,-0.27693 m 0.101953,-1.28834 c -0.07373,0.042 -0.112184,0.0783 -0.112184,0.0783 -0.05856,0.0557 -0.08925,0.10972 -0.0956,0.19156 -0.0032,0.13229 0.140758,0.25718 0.206727,0.24412 0.05327,-0.012 0.1651,-0.16651 0.313267,-0.26493 0.09737,-0.0607 0.199672,-0.12771 0.416631,-0.14006 0.02611,-0.001 0.06668,-0.001 0.11818,0.004 0.328084,0.0402 0.121003,0.41874 0.0822,0.49177 H 70.03598 c -0.853722,0 -1.439333,0.25047 -1.569155,0.72108 -0.118887,0.42615 0.121002,0.69567 0.670983,0.70026 0.48895,0.004 0.638175,-0.15557 0.814211,-0.30692 -0.05609,0.15135 -0.06914,0.17675 -0.07303,0.24377 h 0.947561 c 0.0568,-0.25153 0.506236,-1.51341 0.506236,-1.51341 0.18662,-0.47378 -0.399697,-0.66499 -0.93098,-0.66358 -0.221545,7.1e-4 -0.434975,0.0236 -0.552098,0.0515 -0.123119,0.0286 -0.258586,0.0642 -0.430741,0.16228"
         style="fill:#f58427;fill-opacity:1;fill-rule:nonzero;stroke:none;stroke-width:0.35277778"
         id="path7006"
         inkscape:connector-curvature="0" />
      <path
         d="m 67.051369,211.84656 h 1.002242 c 0,0 0.329141,-0.86501 0.469194,-1.24672 0.07902,-0.22013 0.09384,-0.34007 0.03351,-0.50905 -0.256469,-0.61278 -1.275997,-0.26494 -1.275997,-0.26494 l 0.278694,-0.774 h -0.994833 l -1.071033,2.79577 h 1.011061 l 0.51435,-1.32327 c 0,0 0.08008,-0.28011 0.377825,-0.26917 0.245533,0.009 0.160514,0.26247 0.160514,0.26247 -0.08114,0.18203 -0.505531,1.32891 -0.505531,1.32891"
         style="fill:#f58427;fill-opacity:1;fill-rule:nonzero;stroke:none;stroke-width:0.35277778"
         id="path7010"
         inkscape:connector-curvature="0" />
      <path
         d="m 78.619622,209.92487 c -0.08431,0 -0.161219,-0.0607 -0.161219,-0.15522 0,-0.0953 0.0769,-0.15593 0.161219,-0.15593 0.08467,0 0.161219,0.0607 0.161219,0.15593 0,0.0945 -0.07655,0.15522 -0.161219,0.15522 m 0,-0.28011 c -0.06844,0 -0.122061,0.0554 -0.122061,0.12489 0,0.0688 0.05362,0.12418 0.122061,0.12418 0.06914,0 0.122767,-0.0554 0.122767,-0.12418 0,-0.0695 -0.05362,-0.12489 -0.122767,-0.12489 m 0.03739,0.21167 -0.04339,-0.0741 h -0.02293 v 0.0741 h -0.03351 v -0.17392 h 0.06668 c 0.0441,0 0.06914,0.0134 0.06914,0.0511 0,0.0318 -0.02046,0.0445 -0.04692,0.0466 l 0.04762,0.0762 z m -0.03422,-0.14852 h -0.0321 v 0.048 h 0.03387 c 0.0194,0 0.03493,-0.002 0.03493,-0.0254 0,-0.0201 -0.02046,-0.0226 -0.03669,-0.0226"
         style="fill:#f58427;fill-opacity:1;fill-rule:nonzero;stroke:none;stroke-width:0.35277778"
         id="path7014"
         inkscape:connector-curvature="0" />
    </g>
  </g>
</svg>
