<?xml version="1.0" encoding="utf-8"?>
<!-- Generator: Adobe Illustrator 15.0.0, SVG Export Plug-In . SVG Version: 6.00 Build 0)  -->
<!DOCTYPE svg PUBLIC "-//W3C//DTD SVG 1.1//EN" "http://www.w3.org/Graphics/SVG/1.1/DTD/svg11.dtd">
<svg version="1.1" id="Layer_1" xmlns="http://www.w3.org/2000/svg" xmlns:xlink="http://www.w3.org/1999/xlink" x="0px" y="0px"
	 width="187.75px" height="68.25px" viewBox="0 0 187.75 68.25" enable-background="new 0 0 187.75 68.25" xml:space="preserve">
<g>
	<path fill="#EDBD57" d="M16.3,25.569c-0.296-2.293-0.813-4.734-3.772-4.734c-1.627,0-2.589,1.553-2.589,3.181
		c0,6.066,13.906,6.657,13.906,17.975c0,6.436-4.29,10.948-10.947,10.948c-7.027,0-9.912-4.217-10.652-10.801l6.731-1.035
		c0.592,3.994,1.479,5.622,4.291,5.622c1.775,0,2.885-1.331,2.885-3.033c0-5.844-13.314-6.213-13.314-18.788
		c0-5.918,4.216-10.282,10.208-10.282c5.991,0,8.95,4.364,9.468,9.912L16.3,25.569z"/>
	<path fill="#EDBD57" d="M27.174,2.044h8.58v16.72h0.148c1.997-2.071,4.586-4.142,7.767-4.142c4.068,0,5.992,2.811,5.992,7.693
		v30.031H41.08V25.421c0-2.811-0.961-3.698-2.441-3.698c-1.184,0-2.293,0.666-2.885,1.405v29.218h-8.58V2.044z"/>
	<path fill="#EDBD57" d="M65.786,52.938c-6.657,0-11.835-5.104-11.835-19.159c0-14.054,5.178-19.158,11.835-19.158
		s11.835,5.104,11.835,19.158C77.621,47.834,72.443,52.938,65.786,52.938z M65.786,20.835c-1.998,0-2.663,1.627-2.663,12.944
		s0.666,12.945,2.663,12.945c1.997,0,2.663-1.628,2.663-12.945S67.783,20.835,65.786,20.835z"/>
	<path fill="#EDBD57" d="M90.492,18.172h0.148c1.701-1.923,3.107-3.55,6.509-3.55c6.214,0,8.433,7.101,8.433,19.232
		c0,12.279-2.884,19.085-9.172,19.085c-2.515,0-4.364-1.259-5.4-2.663h-0.147v15.065h-8.581V15.213h8.211V18.172z M93.451,20.835
		c-1.11,0-1.997,0.666-2.589,1.184v23.966c0.37,0.666,1.257,1.185,2.367,1.185c2.515,0,3.181-1.554,3.181-13.241
		C96.41,22.536,95.966,20.835,93.451,20.835z"/>
	<path fill="#B9D05B" d="M109.873,15.213h8.581v6.51h0.148c1.997-3.181,4.512-6.435,8.581-6.731v9.838
		c-1.184-0.37-2.219-0.444-3.329-0.444c-2.145,0-4.66,1.849-5.4,3.402v24.558h-8.581V15.213z"/>
	<path fill="#B9D05B" d="M129.697,2.044h8.581v8.581h-8.581V2.044z M129.697,15.213h8.581v37.133h-8.581V15.213z"/>
	<path fill="#B9D05B" d="M141.383,15.213h3.995V1.677h8.581v13.536h5.4v6.658h-5.326v20.342c0,1.257,0.296,3.181,3.403,3.181
		c1.036,0,1.923-0.148,2.441-0.148v6.953c-2.589,0.666-5.548,0.74-7.323,0.74c-3.846,0-7.175-1.85-7.175-6.954V21.871h-3.995V15.213
		z"/>
	<path fill="#B9D05B" d="M171.489,36.442v1.628c0,6.436,1.554,7.767,3.329,7.767c3.106,0,3.698-2.59,4.512-5.104l5.991,1.774
		c-1.257,6.954-5.252,10.431-11.095,10.431c-6.731,0-11.91-5.104-11.91-19.159c0-14.054,5.178-19.158,11.91-19.158
		c8.654,0.074,10.947,10.651,10.947,18.048v3.772H171.489z M177.037,29.785V28.75c0-5.399-0.814-7.471-2.885-7.471
		c-1.923,0-2.663,1.775-2.663,7.471v1.036H177.037z"/>
</g>
</svg>
