<?xml version="1.0" encoding="UTF-8" standalone="no"?>
<!DOCTYPE svg PUBLIC "-//W3C//DTD SVG 1.1//EN" "http://www.w3.org/Graphics/SVG/1.1/DTD/svg11.dtd">
<svg xmlns="http://www.w3.org/2000/svg" version="1.1" viewBox="0.00 0.00 1527.00 1373.00">
<path fill="#ff8800" d="
  M 749.39 1373.00
  L 626.19 1373.00
  Q 619.49 1372.17 612.75 1371.42
  C 365.90 1343.65 160.24 1186.33 63.19 959.02
  C -23.07 756.98 -6.12 524.04 106.27 336.54
  C 225.93 136.91 437.98 12.65 671.07 6.32
  C 812.01 2.49 956.88 39.09 1076.43 114.82
  C 1205.30 196.46 1299.97 317.16 1350.54 460.95
  C 1352.02 465.16 1351.29 467.75 1346.46 467.75
  Q 1202.85 467.75 1059.25 467.75
  C 1054.08 467.75 1052.84 464.78 1050.55 460.94
  C 986.25 352.82 874.80 286.49 750.74 271.54
  C 666.66 261.41 579.83 274.28 504.03 311.87
  C 301.44 412.34 216.48 652.73 304.74 859.75
  C 356.99 982.30 461.01 1070.49 590.81 1101.20
  C 721.71 1132.18 864.29 1096.08 958.60 998.45
  C 1003.39 952.07 1035.11 895.84 1054.61 834.48
  A 1.79 1.71 -14.8 0 1 1055.07 833.73
  Q 1057.13 831.76 1058.81 831.76
  Q 1202.13 831.74 1345.44 831.76
  C 1348.17 831.76 1350.93 832.82 1350.23 836.00
  C 1306.96 1032.98 1179.41 1201.51 1001.18 1295.69
  Q 884.24 1357.48 749.39 1373.00
  Z"
/>
<path fill="#0e457a" d="
  M 778.73 556.30
  Q 768.54 556.21 759.26 556.26
  A 2.74 2.74 0.0 0 1 756.50 553.52
  L 756.50 542.89
  A 4.36 4.36 0.0 0 1 760.79 538.53
  Q 766.11 538.43 771.89 538.53
  Q 772.21 538.54 772.45 538.70
  Q 772.59 538.79 772.72 538.89
  Q 772.96 539.08 773.26 539.10
  C 795.30 540.29 829.45 543.86 843.31 524.00
  C 844.62 522.13 845.10 518.02 849.00 519.54
  A 2.32 2.31 -79.9 0 1 850.48 521.67
  Q 850.69 544.13 850.08 566.74
  C 848.81 613.60 849.74 660.83 849.76 707.75
  C 849.76 717.15 849.05 730.03 849.03 740.83
  Q 848.96 778.01 849.01 815.19
  C 849.02 820.37 852.82 818.29 855.74 819.54
  Q 856.22 819.75 856.74 819.75
  L 873.00 819.75
  A 5.25 5.25 0.0 0 1 878.25 825.00
  L 878.25 832.42
  A 3.59 3.58 -0.1 0 1 874.67 836.00
  Q 818.80 836.01 762.33 835.99
  C 757.40 835.99 756.66 833.10 755.91 829.00
  Q 754.44 820.96 762.16 819.72
  C 766.38 819.05 770.14 821.32 774.70 819.92
  C 778.34 818.81 781.61 821.30 784.29 816.82
  Q 785.00 815.64 785.00 813.54
  Q 785.00 686.89 785.00 560.25
  Q 785.00 558.82 783.32 557.31
  Q 782.98 557.00 782.51 557.02
  C 781.00 557.06 780.13 556.32 778.73 556.30
  Z"
/>
<path fill="#0e457a" d="
  M 496.27 788.44
  C 507.33 751.77 479.23 731.30 448.87 722.10
  Q 430.71 716.59 416.25 713.50
  C 399.28 709.87 380.37 704.46 366.78 694.40
  Q 346.01 679.02 340.52 651.74
  Q 337.19 635.21 337.48 620.47
  Q 337.50 619.40 338.09 616.07
  C 338.44 614.07 338.16 611.95 338.47 610.06
  Q 347.77 554.10 400.72 536.51
  C 406.02 534.75 412.79 533.51 418.43 533.25
  C 420.48 533.16 422.24 532.53 424.20 532.48
  Q 449.72 531.93 473.24 541.77
  Q 478.39 543.92 494.98 553.05
  C 496.65 553.97 498.27 553.90 500.05 554.73
  A 1.33 1.31 -41.1 0 0 501.04 554.79
  C 504.18 553.75 507.66 553.50 509.34 550.08
  Q 510.90 546.92 510.73 541.92
  A 1.15 1.12 67.2 0 1 511.07 541.06
  L 513.04 539.08
  Q 513.41 538.71 513.93 538.63
  Q 516.78 538.18 519.53 538.64
  C 523.71 539.35 527.76 539.68 527.76 544.25
  Q 527.74 589.25 527.75 634.24
  C 527.76 639.98 522.86 643.23 517.49 642.60
  C 508.91 641.60 509.55 631.62 507.80 625.21
  C 498.89 592.64 478.63 557.07 441.27 550.73
  C 418.98 546.94 397.83 558.28 387.88 577.91
  C 381.82 589.88 381.64 606.19 390.00 617.30
  C 397.94 627.87 408.69 633.18 421.69 636.06
  Q 447.39 641.74 467.82 646.94
  C 506.15 656.69 541.84 676.73 546.26 720.50
  C 546.46 722.42 547.00 724.45 547.00 725.84
  C 547.00 735.66 547.61 745.92 546.10 755.60
  Q 540.54 791.40 516.67 817.44
  C 499.45 836.23 474.32 843.80 449.27 842.00
  C 447.22 841.85 444.17 841.03 441.37 841.30
  Q 440.87 841.35 440.41 841.14
  C 438.44 840.21 436.23 840.53 434.51 840.23
  C 410.91 836.09 388.84 828.87 366.73 820.71
  C 364.03 819.71 359.85 822.92 358.11 825.26
  C 355.45 828.85 355.96 835.58 351.65 837.79
  Q 344.90 841.24 339.48 835.31
  Q 339.18 834.97 339.08 834.52
  C 338.80 833.21 338.25 832.49 338.25 831.16
  Q 338.25 777.95 338.25 724.75
  C 338.25 715.64 352.73 713.16 354.98 722.11
  C 363.06 754.25 379.23 787.45 404.76 810.22
  C 413.44 817.96 425.87 825.12 437.68 825.98
  C 439.38 826.10 440.79 826.82 442.97 826.72
  C 467.20 825.58 489.07 812.35 496.27 788.44
  Z"
/>
<path fill="#0e457a" d="
  M 1488.13 588.35
  Q 1475.55 599.41 1458.92 602.99
  C 1454.65 603.91 1450.45 604.71 1445.96 604.74
  Q 1438.13 604.78 1430.29 604.74
  A 2.08 2.07 -31.8 0 1 1429.38 604.53
  C 1427.80 603.75 1425.95 604.03 1424.57 603.81
  Q 1419.15 602.94 1415.29 602.09
  A 4.00 4.00 0.0 0 0 1410.73 604.44
  C 1409.63 607.03 1404.30 615.68 1408.72 617.15
  A 2.64 2.62 40.5 0 0 1410.75 617.00
  Q 1412.01 616.35 1413.50 616.50
  Q 1414.07 616.56 1414.57 616.28
  Q 1416.82 615.05 1419.47 615.57
  A 1.26 1.25 36.1 0 0 1420.32 615.44
  Q 1422.37 614.35 1424.73 614.81
  A 1.23 1.18 -52.4 0 0 1425.52 614.69
  C 1428.03 613.38 1430.11 614.56 1432.51 613.81
  Q 1434.27 613.26 1435.10 613.26
  Q 1447.98 613.22 1460.86 613.29
  Q 1461.35 613.29 1461.81 613.48
  Q 1462.70 613.86 1464.50 614.03
  Q 1483.68 615.85 1497.27 626.48
  Q 1508.72 635.43 1512.93 651.14
  C 1523.98 692.42 1487.44 712.87 1453.39 716.90
  C 1427.17 720.00 1383.91 715.19 1377.64 682.24
  Q 1373.02 657.95 1395.52 651.38
  C 1397.03 650.94 1399.01 651.25 1400.75 650.66
  C 1402.64 650.03 1404.41 650.24 1406.32 650.25
  C 1408.24 650.26 1410.14 651.28 1412.39 650.97
  Q 1412.90 650.90 1413.38 651.08
  C 1420.25 653.77 1424.65 654.21 1430.48 660.51
  C 1439.23 669.99 1436.45 681.35 1430.08 691.19
  C 1428.66 693.39 1426.26 695.95 1424.75 698.61
  A 1.74 1.74 0.0 0 0 1425.92 701.17
  C 1450.83 706.12 1447.69 660.52 1445.37 648.03
  C 1443.74 639.28 1440.19 633.73 1431.75 631.25
  C 1430.77 630.96 1429.38 631.20 1428.17 630.47
  Q 1427.77 630.22 1427.35 630.42
  C 1425.48 631.32 1423.80 630.80 1421.98 631.46
  Q 1407.25 636.86 1397.25 639.98
  C 1391.16 641.89 1387.53 636.24 1389.77 630.92
  Q 1389.96 630.46 1389.86 629.97
  Q 1389.36 627.50 1390.12 625.23
  C 1390.93 622.81 1390.82 621.52 1390.70 619.26
  Q 1390.67 618.74 1390.87 618.27
  Q 1392.01 615.66 1391.40 612.69
  Q 1391.28 612.10 1391.54 611.56
  Q 1392.73 609.07 1392.16 606.26
  A 2.03 2.02 -41.0 0 1 1392.24 605.18
  C 1393.16 602.69 1392.42 598.22 1393.63 596.72
  A 1.15 1.13 59.6 0 0 1393.86 595.81
  Q 1393.24 592.34 1394.47 589.13
  A 1.80 1.72 52.4 0 0 1394.57 588.19
  Q 1394.23 585.87 1394.77 583.69
  C 1395.36 581.26 1395.19 579.31 1395.56 576.76
  Q 1396.60 569.60 1397.70 556.19
  Q 1397.94 553.23 1400.78 551.26
  A 1.42 1.40 -60.8 0 1 1401.64 551.01
  Q 1402.56 551.05 1403.19 550.46
  Q 1403.56 550.11 1404.05 550.22
  Q 1415.75 552.84 1427.68 554.04
  C 1428.64 554.13 1429.87 553.62 1430.98 554.57
  Q 1431.34 554.88 1431.81 554.84
  C 1436.66 554.38 1441.97 555.44 1445.85 555.50
  Q 1470.87 555.89 1492.51 551.68
  C 1497.16 550.78 1500.94 550.78 1504.49 554.25
  C 1513.80 563.37 1501.46 574.57 1495.00 582.36
  C 1492.98 584.79 1490.03 586.67 1488.13 588.35
  Z"
/>
<path fill="#0e457a" d="
  M 1330.29 610.92
  C 1321.89 609.54 1312.34 603.19 1309.97 594.45
  C 1307.27 584.52 1310.64 576.02 1315.88 568.15
  A 1.42 1.42 0.0 0 0 1314.50 565.95
  C 1301.78 567.73 1297.86 583.03 1298.27 593.76
  Q 1298.28 594.27 1297.86 594.70
  Q 1297.51 595.06 1297.51 595.55
  Q 1297.48 600.53 1297.50 605.50
  Q 1297.50 606.01 1297.96 606.59
  A 1.34 1.30 -65.0 0 1 1298.25 607.42
  L 1298.25 616.43
  A 2.58 2.58 0.0 0 0 1301.56 618.90
  C 1305.97 617.60 1309.85 616.44 1314.19 615.83
  C 1316.10 615.56 1317.45 614.75 1319.31 614.76
  Q 1327.22 614.78 1332.17 615.31
  C 1369.25 619.30 1386.86 665.46 1365.09 693.97
  C 1355.36 706.71 1339.06 713.95 1323.22 715.83
  Q 1322.79 715.88 1322.39 716.07
  L 1321.64 716.43
  Q 1321.26 716.61 1320.85 716.54
  C 1318.06 716.05 1315.66 717.22 1313.42 717.26
  Q 1269.77 718.20 1244.59 685.25
  C 1237.94 676.56 1233.53 666.28 1231.23 655.76
  Q 1230.95 654.49 1230.53 653.69
  Q 1230.29 653.23 1230.39 652.71
  Q 1230.80 650.61 1229.69 648.80
  A 1.17 1.17 0.0 0 1 1229.55 647.90
  C 1230.39 644.40 1228.89 641.96 1228.79 639.43
  C 1228.65 635.64 1229.84 632.73 1229.80 628.31
  Q 1229.77 625.43 1230.22 623.12
  C 1237.35 585.94 1258.58 559.75 1296.32 552.02
  Q 1296.97 551.89 1299.65 551.82
  C 1301.41 551.77 1302.49 550.99 1304.13 550.99
  C 1309.65 551.00 1315.99 550.39 1321.35 551.57
  C 1323.07 551.95 1324.89 551.69 1326.53 552.00
  C 1339.40 554.43 1351.10 559.07 1359.74 569.00
  C 1371.20 582.17 1365.58 601.93 1350.46 608.85
  Q 1341.81 612.81 1330.29 610.92
  Z
  M 1297.54 695.05
  C 1297.60 700.41 1305.17 701.10 1307.60 697.54
  Q 1308.93 695.59 1308.95 691.00
  Q 1309.05 667.63 1308.99 644.28
  C 1308.97 634.71 1298.26 637.86 1298.26 642.50
  Q 1298.26 657.15 1298.23 671.79
  C 1298.23 673.27 1297.59 674.94 1297.56 676.31
  Q 1297.38 682.47 1297.54 695.05
  Z"
/>
<path fill="#0e457a" d="
  M 1116.99 711.65
  C 1104.55 707.22 1092.28 697.05 1089.61 683.47
  Q 1089.11 680.89 1088.61 675.39
  Q 1088.56 674.89 1088.83 674.46
  C 1089.93 672.69 1089.31 670.91 1089.77 669.20
  C 1092.73 658.25 1102.48 647.86 1114.67 647.24
  Q 1115.83 647.18 1117.24 646.76
  C 1119.87 645.98 1121.62 646.99 1124.26 647.22
  C 1135.97 648.26 1144.02 659.06 1144.92 670.23
  C 1145.05 671.76 1146.17 673.51 1145.00 675.50
  A 1.86 1.82 61.3 0 0 1144.75 676.39
  C 1144.71 684.07 1140.90 691.16 1135.95 696.82
  Q 1135.64 697.17 1135.55 697.62
  Q 1135.00 700.34 1137.68 700.96
  Q 1138.15 701.07 1138.62 700.95
  C 1157.23 695.99 1162.47 673.47 1159.43 657.01
  C 1158.59 652.47 1154.42 639.41 1148.46 639.49
  C 1140.28 639.61 1133.03 640.73 1128.28 634.88
  Q 1127.96 634.49 1128.01 633.99
  Q 1128.15 632.62 1127.36 631.51
  Q 1126.99 630.99 1127.40 630.50
  Q 1128.16 629.60 1128.03 628.42
  Q 1127.97 627.87 1128.28 627.42
  C 1130.87 623.66 1133.62 623.02 1138.23 623.81
  Q 1146.05 625.17 1151.82 620.50
  C 1162.61 611.75 1159.46 585.91 1154.41 574.61
  C 1151.10 567.19 1145.73 563.97 1137.84 567.51
  Q 1136.47 568.12 1137.43 569.27
  C 1144.00 577.14 1147.24 585.79 1146.00 596.95
  Q 1144.40 611.40 1130.81 616.07
  Q 1127.71 617.14 1120.44 617.04
  Q 1119.51 617.03 1117.18 616.43
  C 1115.62 616.02 1114.26 616.46 1112.71 615.84
  C 1104.36 612.52 1098.84 608.63 1095.48 600.00
  C 1092.62 592.65 1092.93 587.29 1094.85 579.99
  C 1103.00 549.18 1149.98 549.09 1173.92 553.26
  C 1192.08 556.42 1218.51 565.27 1222.20 586.63
  C 1224.52 600.12 1216.49 611.19 1209.20 621.63
  C 1206.15 626.00 1201.02 624.91 1197.18 627.41
  A 1.33 1.31 -9.2 0 0 1196.61 628.19
  C 1195.42 632.62 1204.22 635.28 1207.78 636.76
  C 1215.83 640.10 1222.29 653.18 1225.04 660.86
  C 1225.75 662.83 1226.08 665.76 1226.81 668.10
  Q 1227.32 669.73 1227.30 671.00
  Q 1227.10 685.73 1217.14 696.18
  C 1214.79 698.64 1210.56 702.02 1207.39 703.84
  C 1188.16 714.84 1166.28 718.39 1144.33 717.24
  Q 1143.71 717.21 1140.34 716.64
  C 1138.48 716.33 1136.78 716.66 1134.93 716.21
  C 1128.93 714.77 1123.50 713.97 1116.99 711.65
  Z"
/>
<path fill="#0e457a" d="
  M 756.26 760.91
  C 747.24 805.26 711.68 837.08 666.48 841.54
  Q 659.61 842.21 654.90 842.26
  C 651.57 842.29 648.62 840.68 644.68 841.39
  A 1.38 1.36 55.0 0 1 643.74 841.22
  C 642.04 840.22 640.18 840.52 638.72 840.23
  C 595.93 831.72 561.64 796.33 557.80 752.19
  C 557.52 749.00 557.03 746.01 557.05 742.91
  C 557.40 682.77 604.70 638.45 664.71 641.10
  C 665.89 641.15 667.02 641.93 668.01 641.81
  Q 669.72 641.59 674.26 642.49
  C 688.28 645.27 699.87 649.13 711.80 656.87
  Q 748.66 680.81 756.96 725.55
  C 757.28 727.28 756.95 730.02 757.51 732.08
  C 758.69 736.45 758.03 742.95 758.00 747.58
  C 757.98 750.00 756.94 752.45 757.31 755.27
  A 1.46 1.42 -35.1 0 1 757.14 756.18
  C 756.26 757.80 756.55 759.49 756.26 760.91
  Z
  M 630.30 797.63
  C 630.33 813.58 644.39 824.28 659.53 823.69
  C 660.44 823.65 662.18 823.05 663.48 822.80
  C 673.09 820.96 680.04 814.33 683.28 805.24
  Q 685.01 800.38 685.01 797.25
  Q 684.99 741.11 685.00 684.97
  C 685.00 683.61 684.35 682.55 684.13 681.21
  C 682.50 671.13 675.20 663.58 665.91 660.46
  C 661.50 658.99 656.49 659.49 651.70 659.51
  A 0.83 0.83 0.0 0 0 651.03 659.85
  Q 650.68 660.35 650.05 660.26
  Q 649.49 660.19 648.96 660.38
  Q 635.93 665.06 631.52 677.39
  Q 630.28 680.84 630.27 686.29
  Q 630.19 741.98 630.30 797.63
  Z"
/>
<path fill="#0e457a" d="
  M 1040.60 682.95
  Q 1040.72 682.99 1040.84 683.03
  Q 1040.93 683.05 1040.98 683.13
  Q 1052.41 701.07 1056.39 721.98
  Q 1057.64 728.54 1057.81 734.36
  A 2.80 2.80 0.0 0 1 1055.01 737.25
  L 951.24 737.25
  A 2.08 2.08 0.0 0 0 950.07 737.61
  Q 949.28 738.15 948.25 738.22
  A 1.79 1.78 -6.0 0 0 946.61 740.24
  C 947.05 743.41 946.01 745.86 946.00 748.23
  Q 945.99 751.37 946.00 754.50
  Q 946.00 754.83 945.62 755.18
  Q 945.26 755.52 945.26 756.01
  Q 945.24 763.51 945.25 771.00
  Q 945.25 771.38 945.58 771.93
  Q 945.84 772.36 945.86 772.86
  Q 946.19 786.80 951.09 799.68
  C 955.09 810.18 962.24 817.59 973.22 820.75
  C 975.85 821.51 978.64 820.93 981.53 821.91
  Q 982.02 822.07 982.50 821.89
  C 985.13 820.90 987.76 821.41 990.14 820.92
  C 1005.53 817.76 1018.26 811.24 1026.90 798.41
  Q 1036.69 783.89 1039.44 764.50
  C 1039.76 762.24 1041.99 760.49 1044.50 760.49
  Q 1051.12 760.49 1057.67 760.51
  Q 1058.17 760.51 1058.42 760.95
  C 1060.57 764.82 1057.59 771.76 1056.33 775.78
  Q 1050.57 794.19 1039.20 809.72
  C 1037.95 811.43 1035.57 813.32 1034.84 814.30
  Q 1033.20 816.49 1031.25 818.40
  C 1014.94 834.31 994.85 839.64 972.59 840.43
  C 968.84 840.56 964.00 839.93 959.25 839.78
  Q 954.58 839.63 945.14 837.90
  Q 936.73 836.36 931.35 834.49
  C 900.35 823.71 882.02 794.15 878.10 762.40
  Q 878.07 762.17 877.90 762.01
  Q 877.79 761.92 877.67 761.83
  Q 877.64 761.80 877.64 761.77
  Q 877.32 755.90 877.05 750.01
  C 874.67 697.66 905.12 646.68 961.41 642.87
  C 993.18 640.72 1023.47 655.40 1040.55 682.91
  Q 1040.56 682.94 1040.60 682.95
  Z
  M 945.30 715.13
  C 945.31 717.24 946.14 720.47 948.82 720.48
  Q 966.28 720.52 983.85 720.49
  A 3.88 3.88 0.0 0 0 987.72 716.64
  Q 987.83 701.87 987.68 686.53
  Q 987.67 685.65 987.27 684.44
  C 986.75 682.87 986.85 680.47 986.50 679.12
  C 985.02 673.38 982.17 666.99 977.59 663.07
  Q 974.50 660.41 971.94 659.77
  C 954.69 655.41 945.68 673.13 945.94 687.49
  Q 945.94 687.72 945.85 687.88
  Q 945.74 688.08 945.59 688.26
  Q 945.28 688.62 945.27 689.10
  Q 945.20 702.14 945.30 715.13
  Z"
/>
</svg>
