<svg xmlns="http://www.w3.org/2000/svg" xmlns:xlink="http://www.w3.org/1999/xlink" width="1920" zoomAndPan="magnify" viewBox="0 0 1440 1439.999935" height="1920" preserveAspectRatio="xMidYMid meet" version="1.0"><defs><clipPath id="97d36650eb"><path d="M 188.871094 1090 L 1250.871094 1090 L 1250.871094 1355.308594 L 188.871094 1355.308594 Z M 188.871094 1090 " clip-rule="nonzero"/></clipPath><clipPath id="ab5f8159c2"><path d="M 224 84.808594 L 1221 84.808594 L 1221 1021 L 224 1021 Z M 224 84.808594 " clip-rule="nonzero"/></clipPath></defs><rect x="-144" width="1728" fill="#ffffff" y="-143.999994" height="1727.999922" fill-opacity="1"/><rect x="-144" width="1728" fill="#ffffff" y="-143.999994" height="1727.999922" fill-opacity="1"/><g clip-path="url(#97d36650eb)"><path fill="#ef3e42" d="M 188.871094 1090.761719 L 1250.855469 1090.761719 L 1250.855469 1355.308594 L 188.871094 1355.308594 Z M 188.871094 1090.761719 " fill-opacity="1" fill-rule="evenodd"/></g><path fill="#ffffff" d="M 419.539062 1162.023438 C 421.792969 1166.613281 422.964844 1171.59375 422.8125 1177.722656 L 278.378906 1177.78125 C 273.96875 1177.78125 267.0625 1180.296875 264.523438 1186.058594 C 261.375 1193.214844 265 1201.449219 272.171875 1204.621094 C 275.015625 1205.878906 280.074219 1205.707031 280.074219 1205.707031 L 385.15625 1205.707031 C 403.957031 1207.035156 420.714844 1219.117188 427.183594 1239.007812 C 432.8125 1256.324219 429.90625 1270.738281 418.453125 1284.867188 C 405.214844 1301.207031 387.105469 1301.402344 367.148438 1301.386719 L 250.886719 1301.242188 C 238.269531 1301.230469 227.648438 1288.816406 225.855469 1276.042969 L 225.777344 1269.585938 L 379.265625 1269.730469 C 384.394531 1269.746094 390.988281 1262.65625 391.160156 1255.390625 C 391.355469 1247.554688 385.941406 1240.101562 378.101562 1240.101562 L 267.539062 1240.101562 C 248.410156 1240.101562 228.921875 1222.144531 225.777344 1199.691406 C 223.234375 1181.546875 229.203125 1167.796875 243.292969 1156.078125 C 253.929688 1147.226562 262.007812 1144.703125 276.882812 1144.6875 L 379.140625 1144.558594 C 394.953125 1144.261719 412.136719 1146.984375 419.539062 1162.023438 Z M 419.539062 1162.023438 " fill-opacity="1" fill-rule="evenodd"/><path fill="#ffffff" d="M 658.601562 1145.230469 C 683.316406 1145.242188 703.363281 1170.675781 702.691406 1197.269531 C 702.046875 1222.941406 679.667969 1246.644531 659.152344 1246.644531 L 572.910156 1246.644531 C 560.285156 1245.101562 550.605469 1235.953125 545.617188 1225.355469 C 543.917969 1221.21875 543.824219 1215.398438 543.339844 1211.0625 L 547.800781 1211.164062 L 652.046875 1211.164062 C 656.542969 1211.164062 660.835938 1207.042969 662.96875 1201.875 C 664.917969 1197.148438 664.789062 1193.300781 662.417969 1188.769531 C 659.792969 1183.746094 655.0625 1180.578125 650.40625 1180.578125 L 534.164062 1180.578125 L 533.074219 1181.664062 L 533.074219 1284.644531 C 533.074219 1294.214844 524.710938 1301.277344 514.847656 1301.089844 C 506.210938 1300.925781 498.140625 1293.917969 498.140625 1284.8125 L 498.140625 1174.570312 C 498.140625 1165.449219 501.601562 1160.085938 508.082031 1153.933594 C 514.863281 1147.507812 523.792969 1145.078125 530.347656 1145.078125 Z M 658.601562 1145.230469 " fill-opacity="1" fill-rule="evenodd"/><path fill="#ffffff" d="M 845.773438 1186.796875 C 857.226562 1202.71875 869.832031 1218.082031 880.757812 1234.628906 L 803.644531 1234.628906 L 842.007812 1186.585938 C 842.007812 1186.585938 843.054688 1184.972656 844.039062 1185.058594 C 844.984375 1185.148438 845.773438 1186.796875 845.773438 1186.796875 Z M 877.289062 1168.941406 C 897.191406 1196.613281 937.359375 1248.515625 957.71875 1277.785156 C 960.277344 1284.40625 957.269531 1291.503906 953.894531 1296.890625 C 948.410156 1302.015625 939.40625 1303.101562 933.15625 1300.164062 C 923.3125 1291.367188 916.484375 1280.453125 908.601562 1270.6875 L 775.964844 1270.402344 L 760.292969 1291.664062 C 755.335938 1298.371094 749.054688 1302.96875 739.394531 1301.25 C 734.371094 1300.230469 729.601562 1296.007812 727.933594 1291.425781 C 725.367188 1285.511719 725.640625 1279.902344 729.015625 1274.496094 L 813.082031 1163.128906 C 820.132812 1152.566406 827.742188 1145.027344 840.917969 1145.097656 C 861.613281 1145.359375 863.023438 1150.570312 877.289062 1168.941406 Z M 877.289062 1168.941406 " fill-opacity="1" fill-rule="evenodd"/><path fill="#ffffff" d="M 1175.5 1145.230469 C 1193.738281 1145.242188 1210.800781 1159.066406 1217.644531 1178.988281 C 1224.988281 1200.335938 1218.207031 1219.238281 1201.695312 1234.628906 C 1198.023438 1238.0625 1191.324219 1242.285156 1191.324219 1242.285156 L 1214.109375 1274.929688 C 1216.191406 1277.90625 1216.863281 1283.835938 1214.925781 1288.960938 C 1213.128906 1293.71875 1210.730469 1296.515625 1206.054688 1298.515625 C 1199.703125 1301.257812 1191.304688 1298.710938 1188.601562 1295.394531 C 1188.601562 1295.394531 1166.808594 1268.835938 1154.746094 1253.742188 C 1152.613281 1251.507812 1151.523438 1249.460938 1149.28125 1247.191406 L 1091.191406 1247.472656 C 1076.78125 1247.546875 1059.769531 1230.320312 1059.769531 1216.601562 L 1059.769531 1211.292969 L 1167.964844 1211.164062 C 1172.003906 1211.148438 1176.546875 1207.367188 1178.757812 1202.425781 C 1180.753906 1197.949219 1180.726562 1194.347656 1178.757812 1189.859375 C 1176.410156 1184.511719 1171.0625 1180.695312 1166.863281 1180.707031 L 1049.195312 1181.046875 L 1048.851562 1182.21875 L 1048.851562 1287.109375 C 1048.851562 1294.101562 1039.21875 1303.09375 1029.773438 1302.203125 C 1021.058594 1301.371094 1013.910156 1292.488281 1013.917969 1286.308594 L 1014.054688 1175.121094 C 1014.070312 1163.539062 1017.4375 1159.035156 1024.742188 1152.675781 C 1031.867188 1146.464844 1038.3125 1145.09375 1047.757812 1145.09375 Z M 1175.5 1145.230469 " fill-opacity="1" fill-rule="evenodd"/><g clip-path="url(#ab5f8159c2)"><path fill="#008348" d="M 449.894531 665.308594 C 435.777344 683.894531 421.367188 702.109375 406.695312 719.914062 L 670.734375 719.378906 C 669.183594 754.453125 677.433594 797.25 661.101562 827.347656 C 644.683594 860.371094 606.144531 876.75 570.519531 877.472656 C 464.046875 867.605469 393.234375 774.609375 352.738281 686.609375 C 349.710938 679.664062 346.949219 672.558594 344.449219 665.308594 C 308.027344 559.65625 327.675781 424.144531 397.0625 337.652344 C 500.175781 201.671875 682.253906 146.746094 851.902344 198.84375 C 955.375 231.070312 1047.382812 311.058594 1092.816406 412.847656 C 1125.59375 489.710938 1126.597656 582.363281 1099.949219 665.320312 C 1082.871094 718.484375 1054.429688 767.667969 1015.722656 806.152344 C 967.898438 846.402344 916.359375 888.824219 849.972656 875.550781 C 813.753906 867.136719 787.746094 842.074219 778.660156 808.078125 C 770.886719 778.46875 772.808594 750.035156 776.738281 719.394531 L 1046.160156 718.929688 L 1038.839844 709.757812 C 1026.339844 695.121094 1014.0625 680.300781 1002.042969 665.320312 L 1002.035156 665.320312 C 883.316406 517.414062 788.324219 353.414062 722.765625 181.503906 C 653.941406 351.511719 560.546875 519.726562 449.894531 665.308594 Z M 239.714844 665.308594 C 281.660156 822.671875 409.089844 951.691406 566.660156 996.996094 C 765.097656 1059.371094 989.570312 992.875 1117.863281 840.824219 C 1159.160156 790.742188 1188.933594 729.949219 1205.425781 665.308594 C 1233.132812 556.757812 1223.410156 437.351562 1167.96875 339.570312 C 1128.296875 270.570312 1070.007812 205.519531 1004.148438 164.125 C 856.144531 66.738281 636.488281 59.03125 481.859375 140.992188 C 323.382812 221.898438 214.035156 391.03125 225.53125 574.773438 C 227.054688 605.707031 231.90625 636 239.714844 665.308594 Z M 239.714844 665.308594 " fill-opacity="1" fill-rule="evenodd"/></g></svg>