<svg xmlns="http://www.w3.org/2000/svg" width="200.598" height="54.236"><g><path d="M56.48 18.173v-.131c0-6.716-4.558-11.13-9.977-11.13s-10.176 4.478-10.176 11.13v.131c0 6.652 4.758 11.13 10.176 11.13 5.485 0 9.977-4.279 9.977-11.13M28.532.719h8.008l-.015 5.8C39.101 2.897 42.735.001 48.417.001c8.193 0 16.19 6.453 16.19 18.042v.131c0 11.523-7.931 18.045-16.19 18.045a14.264 14.264 0 0 1-11.892-6.125v15.937h-7.992Z" fill="#383838"/><path d="M91.292 15.67c-.529-5.135-3.569-9.151-8.855-9.151-4.887 0-8.322 3.752-9.051 9.151Zm-25.834 2.571v-.134c0-9.942 7.069-18.106 17.048-18.106 11.1 0 16.715 8.692 16.715 18.7 0 .726-.066 1.448-.131 2.24H73.454c.859 5.662 4.888 8.825 10.041 8.825 3.9 0 6.673-1.452 9.449-4.15l4.689 4.15a17.656 17.656 0 0 1-14.268 6.519c-10.109 0-17.907-7.31-17.907-18.043" fill="#383838"/><path d="M100.072.719h7.987l.006 5.334c2.247-3.225 5.486-6.056 10.9-6.056 7.862 0 12.421 5.265 12.421 13.3v22.191h-7.993v-19.75c0-5.4-2.71-8.5-7.467-8.5-4.623 0-7.862 3.229-7.862 8.628V35.49h-7.993Z" fill="#383838"/><path d="M132.241 18.306v-.134A17.971 17.971 0 0 1 150.408.001a17.649 17.649 0 0 1 13.943 5.99l-5.022 5.334c-2.446-2.568-5.022-4.344-8.986-4.344-5.815 0-10.109 5-10.109 11.062v.13c0 6.19 4.294 11.13 10.438 11.13 3.769 0 6.541-1.712 9.052-4.279l4.823 4.742c-3.435 3.817-7.464 6.518-14.269 6.518a17.78 17.78 0 0 1-18.036-17.977" fill="#383838"/><path d="M179.7 6.519c5.286 0 8.326 4.015 8.855 9.15h-17.907c.728-5.4 4.163-9.15 9.052-9.15m7.608 21.354a11.82 11.82 0 0 1-6.551 1.892c-5.152 0-9.181-3.163-10.04-8.826h25.636c.065-.791.13-1.513.13-2.238 0-10.007-5.616-18.7-16.714-18.7-9.979 0-17.047 8.166-17.047 18.107v.134c0 10.733 7.8 18.042 17.906 18.042a17.835 17.835 0 0 0 11.461-3.77Z" fill="#383838"/><path d="M16.846 14.948c-4.1-1.318-7.862-2.372-7.862-4.94v-.131c0-1.975 1.783-3.424 4.887-3.424a18.714 18.714 0 0 1 8.173 2.39l4.8-4.787A24.271 24.271 0 0 0 14.068.13C7.132.13 1.647 4.145 1.647 10.73v.131c0 6.652 5.746 8.761 10.9 10.209 4.094 1.249 7.794 2.171 7.794 4.871v.131c0 2.307-1.981 3.755-5.416 3.755a19.129 19.129 0 0 1-10.237-3.513l-4.693 4.678a24.557 24.557 0 0 0 14.73 5.156c7.268 0 12.949-3.622 12.949-10.931v-.131c0-6.255-5.746-8.562-10.833-10.14" fill="#383838"/><path d="m200.598 25.876-2.005-2.336h-6.791l-2 2.336 5.4 5.238Z" fill="#c2e76b"/><path d="M101.532 47.48v5.36h1.559a2.573 2.573 0 0 0 2.746-2.658v-.022a2.591 2.591 0 0 0-2.746-2.68Zm-1.391-1.261h2.949a3.936 3.936 0 0 1 4.2 3.919v.022a3.953 3.953 0 0 1-4.2 3.941h-2.949Z" fill="#383838"/><path fill="#383838" d="M113.117 46.219h1.39v7.882h-1.39z"/><path d="m125.471 50.97-1.365-3.152-1.357 3.152Zm-1.987-4.807h1.289l3.479 7.939h-1.469l-.8-1.9h-3.739l-.814 1.9h-1.427Z" fill="#383838"/><path d="M133.668 46.219h1.48l2.407 3.727 2.406-3.727h1.48v7.882h-1.389v-5.653l-2.5 3.715h-.045l-2.475-3.692v5.63h-1.367Z" fill="#383838"/><path d="M153.997 50.181v-.022a2.7 2.7 0 0 0-2.689-2.8 2.667 2.667 0 0 0-2.666 2.782v.023a2.694 2.694 0 0 0 2.689 2.791 2.657 2.657 0 0 0 2.666-2.769m-6.813 0v-.022a4.136 4.136 0 0 1 8.271-.023v.023a4.136 4.136 0 0 1-8.271.022" fill="#383838"/><path d="M161.196 46.219h1.287l4.237 5.45v-5.45h1.366v7.882h-1.162l-4.363-5.609v5.609h-1.367Z" fill="#383838"/><path d="M175.573 47.48v5.36h1.559a2.573 2.573 0 0 0 2.746-2.658v-.022a2.591 2.591 0 0 0-2.746-2.68Zm-1.391-1.261h2.949a3.936 3.936 0 0 1 4.2 3.919v.022a3.953 3.953 0 0 1-4.2 3.941h-2.949Z" fill="#383838"/><path d="m186.434 52.952.836-.991a3.671 3.671 0 0 0 2.5 1.025c.859 0 1.4-.4 1.4-.991v-.022c0-.564-.315-.868-1.785-1.206-1.683-.405-2.632-.9-2.632-2.354v-.022a2.415 2.415 0 0 1 2.7-2.287 4.388 4.388 0 0 1 2.871.992l-.746 1.047a3.6 3.6 0 0 0-2.147-.811c-.813 0-1.288.416-1.288.934v.022c0 .61.362.88 1.887 1.24 1.672.4 2.532 1 2.532 2.307v.024c0 1.474-1.164 2.354-2.825 2.354a4.884 4.884 0 0 1-3.3-1.262" fill="#383838"/></g></svg>