<?xml version="1.0" encoding="UTF-8" standalone="no"?>
<!-- Created with Inkscape (http://www.inkscape.org/) -->

<svg
   xmlns:dc="http://purl.org/dc/elements/1.1/"
   xmlns:cc="http://creativecommons.org/ns#"
   xmlns:rdf="http://www.w3.org/1999/02/22-rdf-syntax-ns#"
   xmlns:svg="http://www.w3.org/2000/svg"
   xmlns="http://www.w3.org/2000/svg"
   xmlns:sodipodi="http://sodipodi.sourceforge.net/DTD/sodipodi-0.dtd"
   xmlns:inkscape="http://www.inkscape.org/namespaces/inkscape"
   width="645.00122mm"
   height="347.75748mm"
   viewBox="0 0 645.00122 347.75748"
   version="1.1"
   id="svg8075"
   inkscape:version="0.92.0 r15299"
   sodipodi:docname="stop n shop.svg">
  <defs
     id="defs8069" />
  <sodipodi:namedview
     id="base"
     pagecolor="#ffffff"
     bordercolor="#666666"
     borderopacity="1.0"
     inkscape:pageopacity="0.0"
     inkscape:pageshadow="2"
     inkscape:zoom="0.33052246"
     inkscape:cx="1218.9"
     inkscape:cy="657.17948"
     inkscape:document-units="mm"
     inkscape:current-layer="layer1"
     showgrid="false"
     fit-margin-top="0"
     fit-margin-left="0"
     fit-margin-right="0"
     fit-margin-bottom="0"
     units="mm"
     inkscape:window-width="1280"
     inkscape:window-height="744"
     inkscape:window-x="-4"
     inkscape:window-y="-4"
     inkscape:window-maximized="1" />
  <metadata
     id="metadata8072">
    <rdf:RDF>
      <cc:Work
         rdf:about="">
        <dc:format>image/svg+xml</dc:format>
        <dc:type
           rdf:resource="http://purl.org/dc/dcmitype/StillImage" />
        <dc:title></dc:title>
      </cc:Work>
    </rdf:RDF>
  </metadata>
  <g
     inkscape:label="Layer 1"
     inkscape:groupmode="layer"
     id="layer1"
     transform="translate(547.78634,-7.4724424)">
    <g
       id="g12643"
       transform="translate(-2.1484374e-6)">
      <path
         inkscape:connector-curvature="0"
         id="path12634"
         d="m -513.14471,334.69258 c -7.44074,-3.23967 -13.55435,-10.9666 -16.07067,-20.31161 -1.28117,-4.7579 -1.77899,-52.4127 -1.43479,-137.34692 0.51118,-126.135016 0.64207,-130.256316 4.33596,-136.527589 2.09487,-3.556549 6.22833,-8.270016 9.18547,-10.474397 l 5.3766,-4.007934 285.04928,-0.493362 c 274.934488,-0.475861 285.285809,-0.367456 291.714786,3.054914 3.666032,1.95153 8.579668,6.88704 10.919149,10.96776 l 4.253668,7.419484 V 181.23576 315.49853 l -4.282341,7.61774 c -8.728261,15.52643 17.494615,14.28628 -300.364142,14.20576 -232.39947,-0.0584 -283.8553,-0.52748 -288.68297,-2.62945 z"
         style="opacity:1;fill:#ffffff;fill-opacity:1;stroke:#00cdbe;stroke-width:0.26458332;stroke-opacity:0" />
      <path
         id="path8079"
         d="m 51.749446,337.03527 c 7.511736,0 14.261661,-3.25657 19.127647,-8.59955 5.047859,-5.52828 8.143148,-13.29739 8.143148,-22.09253 V 56.359181 c 0,-8.791717 -3.095289,-16.564254 -8.143148,-22.092535 C 66.011107,28.930533 59.261182,25.670529 51.749446,25.670529 H -501.64145 c -7.60439,0 -14.5705,3.325205 -19.62522,8.760833 -5.13022,5.511123 -8.32503,13.221892 -8.32503,21.927819 V 306.34662 c 0,8.70592 3.19481,16.41326 8.32503,21.93125 5.05472,5.43563 12.02083,8.76083 19.62522,8.76083 H 51.749446 Z m 0,16.69465 H -501.64145 c -12.38458,0 -23.67792,-5.34984 -31.81764,-14.10724 -7.90637,-8.50689 -12.82726,-20.21546 -12.82726,-33.27606 V 56.359181 c 0,-13.070902 4.92432,-24.776033 12.82726,-33.276066 8.13972,-8.757401 19.43306,-14.1106717 31.81764,-14.1106717 H 51.749446 c 12.384585,0 23.478895,5.3361127 31.453895,14.0763557 7.755379,8.503464 12.511554,20.229185 12.511554,33.310382 V 306.34662 c 0,13.08119 -4.759607,24.81035 -12.511554,33.31038 -7.975,8.74024 -19.065878,14.07292 -31.453895,14.07292 z"
         inkscape:connector-curvature="0"
         style="fill:#c23c40;stroke-width:3.43158364" />
      <path
         id="path8081"
         d="m -20.159389,177.58331 c 36.982177,0 67.118344,-30.13617 67.118344,-67.11835 0,-36.982177 -30.132735,-66.435459 -67.118344,-66.435459 -36.299291,0 -66.432026,29.453282 -66.432026,66.435459 0,36.98218 30.132735,67.11835 66.432026,67.11835 z"
         inkscape:connector-curvature="0"
         style="clip-rule:evenodd;fill:#c23c40;fill-rule:evenodd;stroke-width:3.43158364" />
      <path
         id="path8083"
         d="m -20.159389,320.0455 c 36.299292,0 66.432027,-30.1396 66.432027,-67.12521 0,-36.98561 -30.132735,-66.43203 -66.432027,-66.43203 -36.982176,0 -67.125206,29.44986 -67.125206,66.43203 0,36.98218 30.14303,67.12521 67.125206,67.12521 z"
         inkscape:connector-curvature="0"
         style="clip-rule:evenodd;fill:#6fb46c;fill-rule:evenodd;stroke-width:3.43158364" />
      <path
         id="path8085"
         d="m -467.7374,214.57235 c -9.24812,2.05208 -9.93444,9.58441 0.34316,13.69201 16.43728,7.53233 27.39433,15.75784 36.9856,23.29016 15.06809,11.64336 15.75097,36.29929 -1.3692,43.83162 -19.862,8.90153 -47.25634,7.53232 -68.48754,4.79049 v -23.96618 c 13.69888,1.36577 31.50537,6.84944 45.20082,0.68288 3.42815,-2.05895 6.16312,-7.53232 -2.73841,-13.01599 -13.01256,-8.21864 -22.60041,-9.58441 -34.93009,-18.49281 -13.69888,-9.59127 -15.06808,-30.13273 -4.79392,-42.45898 10.95705,-14.38177 30.12244,-14.38177 46.57345,-14.38177 h 68.48755 v 111.63285 h -31.50537 v -85.60772 c -17.1236,0.003 -34.93352,-0.68974 -53.76605,0.003 z M -213.98209,90.602954 h 18.4928 c 5.47681,0 16.43386,1.369202 19.17569,10.274166 0.68289,4.79392 1.36577,10.27416 -1.36577,15.06808 -6.16655,10.95705 -19.86543,11.64336 -29.45671,8.90153 v 22.60041 c 22.60727,6.16312 50.68449,0 59.58945,-23.28673 7.53233,-18.4928 0,-41.093214 -17.80649,-52.05026 -17.80649,-10.957047 -40.4069,-6.849441 -58.90313,-6.849441 h -20.54489 V 174.8449 h 31.50537 z m -143.97552,-2.920278 -2.77272,2.257982 -18.31436,0.662296 V 174.8449 h -30.81905 V 90.602954 c -19.86201,-0.682885 -52.73658,-1.369202 -58.90314,0 -8.21864,2.055518 -8.90496,9.587846 0.68632,13.698886 17.12017,7.53576 28.08065,15.75097 37.66849,23.28672 15.06809,11.64337 15.75097,36.98561 -2.05552,44.52137 -19.17568,8.21521 -46.57345,7.53233 -68.48754,4.10761 v -23.96962 c 13.69888,1.36921 32.18825,6.84944 45.20425,0.68289 4.11104,-2.05552 6.84944,-7.53233 -2.05552,-13.01257 -13.69545,-7.53232 -22.60041,-9.58784 -34.93009,-18.4928 -13.69888,-9.58784 -15.06808,-29.449853 -5.48024,-42.465849 11.64337,-14.381767 30.81905,-14.381767 46.57346,-13.698882 h 93.82979 z m 196.02578,126.889674 h 17.80649 c 5.47681,0 16.43385,1.36577 19.17569,10.27416 0.68288,4.79049 1.36577,10.26729 -1.36577,15.06808 -6.16656,10.95705 -19.86544,11.64336 -29.44985,8.90153 v 22.60041 c 22.60041,6.16655 50.67762,0 59.582578,-23.2833 7.532326,-19.17569 0,-41.09321 -17.806478,-52.05026 -17.80649,-10.95704 -39.72402,-6.84944 -58.89971,-6.84944 h -20.54832 v 109.58419 h 31.5088 v -84.24537 z m 50.68106,-78.08226 v 23.96961 c -0.68289,2.05552 -3.42472,1.36921 -6.16656,1.36921 -6.84944,0.68288 -15.06808,1.3692 -15.75097,-6.16313 -1.37263,-8.22207 8.90153,-10.27416 15.75097,-8.90496 0,-3.42472 0.68289,-10.27416 0.68289,-10.27416 -4.10761,-1.3692 -11.64336,0.68632 -11.64336,-4.79392 -0.68289,-1.3692 -0.68289,-4.79392 1.36577,-5.48024 4.11446,-2.05552 8.90839,-0.68632 12.33311,0 v -11.64336 c -9.59128,-0.68289 -22.60041,-1.36921 -27.39777,8.90496 -2.73497,5.48023 0,14.38176 4.79736,16.43728 -6.16656,0.68632 -10.27416,5.48024 -10.95705,9.58785 -2.05895,10.27416 1.36577,20.54832 11.64336,23.97304 13.00914,3.42472 26.02513,0.68631 38.351378,1.3692 v -38.35138 z m -265.05209,81.50698 v 24.65249 h 22.60041 v 57.53393 h 32.87457 V 189.2301 h -33.55745 v 28.76697 z m 119.16861,86.2906 c 32.19168,0 58.90313,-26.02513 58.90313,-58.8997 0,-32.19169 -26.71145,-58.21682 -58.90313,-58.21682 -32.18826,0 -58.8997,26.02513 -58.8997,58.21682 0,32.87457 26.71144,58.8997 58.8997,58.8997 z m 0,-28.76697 c 13.69888,0 24.65592,-13.00913 24.65592,-30.13273 0,-16.43386 -10.95704,-29.44985 -24.65592,-29.44985 -13.69888,0 -24.65593,13.01599 -24.65593,29.44985 0,17.1236 10.95705,30.13273 24.65593,30.13273 z"
         inkscape:connector-curvature="0"
         style="clip-rule:evenodd;fill-rule:evenodd;stroke-width:3.43158364" />
      <path
         id="path8087"
         d="m -309.87083,183.06354 c 32.18825,0 58.8997,-26.02513 58.8997,-58.90313 0,-32.188254 -26.71145,-58.899701 -58.8997,-58.899701 -32.878,0 -58.90313,26.711447 -58.90313,58.899701 0.003,32.878 26.02856,58.90313 58.90313,58.90313 z m 0,-28.76353 c 13.69888,0 24.65593,-13.01256 24.65593,-30.13617 0,-16.43728 -10.95705,-30.132734 -24.65593,-30.132734 -13.69888,0 -24.65936,13.698884 -24.65936,30.132734 0.003,17.12361 10.96391,30.13617 24.65936,30.13617 z m 190.40485,141.77245 h 10.2673 c 4.79735,0 6.84944,2.05895 6.84944,5.48367 0,4.1076 -2.74184,4.79049 -3.42472,5.4768 1.37263,0 3.42472,0.68289 3.42472,4.10761 0,2.74183 0,4.79049 0.68974,5.48367 h -4.11446 v -2.74184 c 0,-4.1076 -1.36577,-5.48367 -4.10761,-5.48367 h -5.47681 v 8.22208 h -4.1076 z m 4.1076,9.59127 h 5.47681 c 2.74184,0 4.10761,-1.37263 4.10761,-3.42472 0,-2.74183 -2.05209,-3.42472 -4.10761,-3.42472 h -5.47681 z"
         inkscape:connector-curvature="0"
         style="clip-rule:evenodd;fill-rule:evenodd;stroke-width:3.43158364" />
      <path
         id="path8089"
         stroke-miterlimit="2.613"
         d="m -111.25077,326.88808 c 11.643356,0 20.541454,-8.90153 20.541454,-20.54146 0,-11.63993 -8.901528,-20.54833 -20.541454,-20.54833 -11.63993,0 -20.54832,8.9084 -20.54832,20.54833 0,11.63993 8.90839,20.54146 20.54832,20.54146 z"
         inkscape:connector-curvature="0"
         style="fill:none;stroke:#000000;stroke-width:2.69722486;stroke-miterlimit:2.61299992" />
    </g>
  </g>
</svg>
