<!-- Created with Inkscape (http://www.inkscape.org/) -->
<svg width="637.57" height="200" version="1.1" viewBox="0 0 637.57 200" xml:space="preserve" xmlns="http://www.w3.org/2000/svg" xmlns:xlink="http://www.w3.org/1999/xlink"><g transform="matrix(1.3333 0 0 -1.3333 -234.14 906.09)"><g transform="matrix(2.7243 0 0 2.7243 -302.79 -1171.8)"><g fill="#c83417"><path d="m217.72 678.73v-24.397c-0.244-0.534-0.496-0.938-1.36-0.938-0.736 0-1.227 0.482-1.35 0.959v24.376h-11.094v-24.672c0-2.158 1.172-5.393 3.696-7.786 2.28-2.154 5.302-3.295 8.568-3.295 4.621 0 7.519 1.86 9.182 3.352 2.157 2.096 3.451 4.849 3.451 7.488v24.913z"/><path d="m351.13 654.51c-3.206 0-11.574-0.021-13.36-0.021h-0.308v0.348c0 0.176 0 0.293 0.185 0.465 0.245 0.233 0.618 0.295 0.984 0.295h7.641v10.791h-7.641c-0.366 0-0.662-0.019-1.044-0.023v0.721c0 0.118 0.123 0.292 0.244 0.41 0.187 0.234 0.557 0.29 0.987 0.29h11.46v10.846h-11.46c-7.271 0-13.001-5.129-13.001-11.604 0-0.057-0.084-11.607 0.039-12.308-0.123-3.091 1.069-5.89 3.225-7.872 2.218-2.041 5.24-3.091 8.689-3.091 1.848 0 10.338 2e-3 13.36 2e-3z"/><path d="m310.51 667.79h13.434v10.878h-13.678c-4.994 0-11.894-3.94-11.894-11.407 0-2.886 1.295-5.768 3.636-7.883 2.529-2.352 6.1-3.644 9.984-3.644 0.06 0 0.06 0 0.06-0.06 0 0 0.064-1.004-0.8-1.004h-13.498v-10.875h13.928c2.896 0 5.916 1.292 8.382 3.584 2.527 2.235 3.819 5.116 3.819 7.941 0 3.115-1.23 5.998-3.449 8.057-2.28 2.058-5.298 3.233-8.442 3.233-1.543 0-1.85 0.472-1.851 0.709-1e-3 0.263 0.064 0.352 0.369 0.471"/><path d="m268.61 666.03h-1.727v2.157h1.847c1.051 0 1.235-0.537 1.235-1.019 0-0.956-0.554-1.198-1.355-1.138m14.572-12.4c-0.432 0-0.638-0.028-0.742 0.061 0.039-0.033 0 0 0 0s-2.956 2.278-5.855 4.553c0.864 0.539 1.727 1.14 2.468 1.859 1.476 1.317 3.575 3.89 3.575 7.305 0 2.816-1.294 5.629-3.575 7.727-2.345 2.216-5.424 3.473-8.752 3.473-3.451 0-12.13-2e-3 -12.13-2e-3v-34.849h9.788v8.499c3.883-3.052 7.582-5.931 8.073-6.227 2.157-1.499 4.192-2.252 7.15-2.252z"/><path d="m285.23 643.82h10.415v34.823h-10.415z"/><path d="m188.36 667.81h13.434v10.878h-13.679c-4.993 0-11.893-3.94-11.893-11.407 0-2.885 1.294-5.769 3.636-7.883 2.529-2.352 6.1-3.645 9.983-3.645 0.059 0 0.059 0 0.059-0.059 0 0 0.066-1.004-0.799-1.004h-13.498v-10.875h13.928c2.896 0 5.917 1.292 8.382 3.583 2.529 2.235 3.82 5.117 3.82 7.941 0 3.116-1.231 5.999-3.45 8.059-2.28 2.058-5.299 3.234-8.442 3.234-1.543 0-1.85 0.47-1.851 0.708 0 0.263 0.064 0.351 0.37 0.47"/><path d="m242.13 643.81v24.401c0.244 0.536 0.496 0.939 1.36 0.939 0.736 0 1.227-0.483 1.35-0.961v-24.379h11.094v24.677c0 2.156-1.172 5.393-3.696 7.787-2.28 2.152-5.302 3.293-8.568 3.293-4.621 0-7.52-1.859-9.182-3.352-2.157-2.095-3.453-4.848-3.453-7.486v-24.919z"/></g><g fill="#231f20"><path d="m223.06 631.57c1.215 0 1.945 0.598 1.945 1.552v0.038c0 1.046-0.767 1.57-1.964 1.57h-2.393v-3.16zm-6.04 6.283h6.189c2.001 0 3.386-0.524 4.264-1.402 0.768-0.767 1.16-1.758 1.16-3.049v-0.037c0-2.019-1.066-3.347-2.692-4.04l3.122-4.562h-4.17l-2.637 3.965h-1.608v-3.965h-3.628z"/><path d="m230.46 637.86h10.528v-3.067h-6.937v-2.001h6.283v-2.86h-6.283v-2.077h7.031v-3.085h-10.622z"/><path d="m242.43 631.27v0.037c0 3.815 2.918 6.807 6.882 6.807 2.674 0 4.395-1.122 5.553-2.711l-2.73-2.114c-0.747 0.917-1.609 1.534-2.86 1.534-1.833 0-3.124-1.571-3.124-3.479v-0.037c0-1.964 1.291-3.497 3.124-3.497 1.365 0 2.168 0.636 2.955 1.59l2.729-1.945c-1.234-1.702-2.898-2.954-5.779-2.954-3.74 0-6.75 2.86-6.75 6.769"/><path d="m266.11 631.27v0.037c0 1.908-1.346 3.535-3.347 3.535-2.002 0-3.329-1.608-3.329-3.498v-0.037c0-1.888 1.366-3.534 3.366-3.534 1.982 0 3.31 1.608 3.31 3.497m-10.378 0v0.037c0 3.759 3.029 6.807 7.068 6.807s7.031-3.011 7.031-6.77v-0.037c0-3.759-3.029-6.806-7.068-6.806s-7.031 3.01-7.031 6.769"/><path d="m277.74 631.57c1.215 0 1.945 0.598 1.945 1.552v0.038c0 1.046-0.768 1.57-1.964 1.57h-2.393v-3.16zm-6.04 6.283h6.189c2.001 0 3.385-0.524 4.264-1.402 0.767-0.767 1.16-1.758 1.16-3.049v-0.037c0-2.019-1.066-3.347-2.693-4.04l3.123-4.562h-4.171l-2.637 3.965h-1.607v-3.965h-3.628z"/><path d="m288.77 634.66v-6.676h1.477c2.188 0 3.628 1.197 3.628 3.31v0.038c0 2.094-1.44 3.328-3.628 3.328zm-3.628 3.198h5.068c4.656 0 7.368-2.693 7.368-6.471v-0.037c0-3.777-2.749-6.582-7.443-6.582h-4.993z"/><path d="m298.29 626.71 2.019 2.413c1.309-1.029 2.732-1.572 4.246-1.572 0.991 0 1.514 0.337 1.514 0.899v0.037c0 0.56-0.43 0.841-2.225 1.272-2.786 0.635-4.937 1.42-4.937 4.095v0.037c0 2.431 1.926 4.189 5.068 4.189 2.225 0 3.964-0.598 5.387-1.739l-1.816-2.562c-1.197 0.86-2.505 1.29-3.665 1.29-0.878 0-1.309-0.355-1.309-0.841v-0.038c0-0.598 0.45-0.86 2.282-1.271 2.992-0.655 4.863-1.627 4.863-4.077v-0.037c0-2.675-2.114-4.264-5.293-4.264-2.319 0-4.507 0.729-6.134 2.169"/></g></g></g></svg>
