<?xml version="1.0" encoding="UTF-8" standalone="no"?>
<svg
   width="2108.5466"
   height="634.19574"
   viewBox="0 0 162.57401 48.898014"
   version="1.1"
   id="svg5874"
   sodipodi:docname="coto.svg"
   inkscape:version="1.1 (c68e22c387, 2021-05-23)"
   xmlns:inkscape="http://www.inkscape.org/namespaces/inkscape"
   xmlns:sodipodi="http://sodipodi.sourceforge.net/DTD/sodipodi-0.dtd"
   xmlns="http://www.w3.org/2000/svg"
   xmlns:svg="http://www.w3.org/2000/svg">
  <defs
     id="defs5878" />
  <sodipodi:namedview
     id="namedview5876"
     pagecolor="#ffffff"
     bordercolor="#666666"
     borderopacity="1.0"
     inkscape:pageshadow="2"
     inkscape:pageopacity="0.0"
     inkscape:pagecheckerboard="0"
     showgrid="false"
     inkscape:zoom="0.208"
     inkscape:cx="819.71154"
     inkscape:cy="387.01923"
     inkscape:window-width="1366"
     inkscape:window-height="705"
     inkscape:window-x="-8"
     inkscape:window-y="-8"
     inkscape:window-maximized="1"
     inkscape:current-layer="g5872" />
  <g
     fill-rule="evenodd"
     clip-rule="evenodd"
     id="g5872"
     transform="translate(-17.385,-70.493986)">
    <g
       id="g6060">
      <path
         d="m 179.959,77.295 a 6.745,6.745 0 0 0 -1.996,-4.8 6.78,6.78 0 0 0 -4.812,-2 l -24.201,0.009 h -0.027 a 10.203,10.203 0 0 0 -7.092,2.876 6.772,6.772 0 0 0 -5.56,-2.886 l -24.201,0.009 h -0.025 a 10.185,10.185 0 0 0 -7.125,2.919 7.102,7.102 0 0 0 -0.74,-0.884 6.78,6.78 0 0 0 -4.816,-1.992 l -24.199,0.01 h -0.03 a 10.17,10.17 0 0 0 -7.103,2.89 6.777,6.777 0 0 0 -5.556,-2.871 L 38.282,70.58 H 38.25 a 10.202,10.202 0 0 0 -9.59,6.745 l -0.018,0.048 -0.012,0.046 -10.919,33.086 -0.009,0.039 -0.016,0.041 a 6.975,6.975 0 0 0 -0.301,2.004 c 0,3.709 3.056,6.756 6.8,6.803 H 48.44 c 2.694,0 5.23,-1.104 7.095,-2.922 a 6.931,6.931 0 0 0 5.541,2.895 h 0.046 l 24.202,0.002 c 2.702,0 5.252,-1.115 7.123,-2.949 a 6.893,6.893 0 0 0 5.534,2.9 h 24.257 c 2.68,0 5.213,-1.098 7.07,-2.908 a 6.948,6.948 0 0 0 5.553,2.908 h 24.249 c 4.387,0 8.367,-2.922 9.674,-7.105 l -0.016,0.057 10.816,-32.749 -0.035,0.108 c 0.267,-0.734 0.41,-1.543 0.41,-2.334 z"
         fill="#ffffff"
         id="path5862" />
      <path
         d="m 112.043,74.421 c -2.682,0 -5.049,1.755 -5.904,4.152 l -10.911,33.085 a 2.882,2.882 0 0 0 -0.131,0.857 c 0,1.578 1.365,2.867 2.932,2.885 l 24.209,0.004 c 2.764,0 5.148,-1.852 5.934,-4.363 l 10.816,-32.744 c 0.109,-0.307 0.176,-0.659 0.176,-1.002 0,-1.592 -1.307,-2.878 -2.895,-2.878 l -24.201,0.004 z"
         fill="#cc2131"
         id="path5864" />
      <path
         d="m 113.465,111.52 h -3.863 a 1.573,1.573 0 0 1 -1.48,-2.074 l 0.023,-0.025 7.055,-21.377 c 0.232,-0.688 -0.18,-1.258 -0.916,-1.258 l -4.76,0.003 a 1.573,1.573 0 0 1 -1.572,-1.562 c 0,-0.161 0.035,-0.32 0.08,-0.468 l 1.357,-4.123 c 0.35,-1.202 1.082,-2.19 2.393,-2.19 l 20.553,-0.003 a 1.565,1.565 0 0 1 1.496,2.031 l -1.221,4.267 a 2.797,2.797 0 0 1 -2.725,2.044 h -4.854 c -0.732,0 -1.518,0.57 -1.746,1.258 l -7.045,21.377 a 2.87,2.87 0 0 1 -2.775,2.1 z"
         fill="#ffffff"
         id="path5866" />
      <path
         d="m 75.132,74.465 c -2.682,0 -5.043,1.758 -5.897,4.152 l -10.92,33.09 a 3.186,3.186 0 0 0 -0.129,0.855 c 0,1.58 1.365,2.865 2.938,2.881 l 24.202,0.006 a 6.254,6.254 0 0 0 5.94,-4.357 l 10.816,-32.75 c 0.113,-0.307 0.176,-0.658 0.176,-1.004 0,-1.586 -1.301,-2.875 -2.895,-2.875 l -24.199,0.002 z m 73.79,-0.044 c -2.688,0 -5.051,1.755 -5.902,4.152 l -10.916,33.085 c -0.08,0.262 -0.131,0.566 -0.131,0.857 0,1.578 1.357,2.867 2.934,2.885 l 24.205,0.004 c 2.771,0 5.15,-1.852 5.941,-4.363 l 10.811,-32.744 a 2.887,2.887 0 0 0 -2.713,-3.88 L 148.95,74.421 Z M 38.25,74.499 c -2.686,0 -5.049,1.754 -5.901,4.147 L 21.433,111.729 A 3.06,3.06 0 0 0 21.3,112.59 c 0,1.58 1.363,2.869 2.936,2.889 H 48.44 c 2.774,0 5.157,-1.855 5.944,-4.363 L 65.199,78.37 a 3.05,3.05 0 0 0 0.169,-1.002 c 0,-1.589 -1.302,-2.877 -2.895,-2.877 l -24.194,0.008 z"
         fill="#cc2131"
         id="path5868" />
      <path
         d="m 56.266,86.721 c 1.316,0 2.345,-0.846 2.695,-2.042 l 1.36,-4.12 A 1.566,1.566 0 0 0 58.83,78.525 L 40.547,78.516 c -2.307,0 -4.8,1.873 -5.559,4.187 l -8.104,24.54 c -0.758,2.309 0.497,4.18 2.805,4.18 l 18.287,0.049 c 1.283,0 2.523,-0.896 2.896,-2.057 l 1.389,-4.244 a 1.38,1.38 0 0 0 0.063,-0.428 c 0,-0.861 -0.701,-1.562 -1.564,-1.562 H 38.57 a 1.548,1.548 0 0 1 -1.544,-1.551 c 0,-0.143 0.091,-0.514 0.091,-0.514 l 4.062,-12.364 c 0.372,-1.116 1.574,-2.023 2.686,-2.023 z m 111.365,-8.252 h -16.309 c -2.311,0 -4.805,1.873 -5.57,4.186 l -8.092,24.541 c -0.766,2.303 0.486,4.18 2.805,4.18 h 16.305 c 2.314,0 4.807,-1.877 5.562,-4.18 l 8.104,-24.541 c 0.759,-2.314 -0.491,-4.186 -2.805,-4.186 z m -7.451,10.227 -4.047,12.265 c -0.369,1.125 -1.621,2.172 -2.734,2.172 h -4.184 l 0.127,-0.008 a 1.548,1.548 0 0 1 -1.547,-1.545 c 0,-0.145 0.096,-0.516 0.096,-0.516 l 4.066,-12.369 c 0.359,-1.111 1.57,-2.017 2.688,-2.017 h 4.023 l 0.01,0.005 a 1.57,1.57 0 0 1 1.578,1.565 c 0,0.164 -0.076,0.448 -0.076,0.448 z M 93.894,78.469 H 77.582 c -2.31,0 -4.806,1.873 -5.564,4.186 l -8.099,24.541 c -0.764,2.303 0.495,4.18 2.804,4.18 h 16.309 c 2.313,0 4.804,-1.877 5.568,-4.18 l 8.098,-24.541 c 0.759,-2.314 -0.496,-4.186 -2.804,-4.186 z m -7.449,10.227 -4.055,12.265 c -0.36,1.125 -1.615,2.172 -2.735,2.172 h -4.177 l 0.128,-0.008 a 1.543,1.543 0 0 1 -1.548,-1.545 c 0,-0.145 0.093,-0.516 0.093,-0.516 l 4.062,-12.369 c 0.371,-1.111 1.575,-2.017 2.688,-2.017 h 4.028 l 0.014,0.005 a 1.57,1.57 0 0 1 1.575,1.565 c -0.001,0.164 -0.073,0.448 -0.073,0.448 z"
         fill="#ffffff"
         id="path5870" />
    </g>
  </g>
</svg>
