<svg id="レイヤー_1" data-name="レイヤー 1" xmlns="http://www.w3.org/2000/svg" viewBox="0 0 900 412.38"><defs><style>.cls-1{fill:none;}.cls-2{fill:#39b54a;}</style></defs><rect class="cls-1" width="900" height="412.38"/><path class="cls-2" d="M139.38,75.77q1.41,7.2,5.54,10.77Q152.46,93,170.79,93a75.73,75.73,0,0,0,17.82-1.71q13-3.28,13-12.2,0-5.2-6.36-8.06t-20.18-4.92l-15.74-2.5q-23.19-3.7-31.87-8.06-14.7-7.28-14.7-22.76,0-14.13,14.38-23.47T169.35,0Q192.62,0,209,8.81t17.22,25.58H197.07q-.81-9.5-11.73-13.49-7.28-2.64-18.1-2.64-12,0-19.2,3.43t-7.18,9.56q0,5.64,7.07,8.42,4.56,1.84,19.32,4.35l25.5,4.35q16.77,2.85,25.14,7.64,13,7.41,13,21.47,0,14.42-15.4,23.94T172,110.94q-28.69,0-45.15-9.38T110.39,75.77Z"/><path class="cls-2" d="M252.19,3.07h30.86V67.65q0,10.84,3.54,15.83,5.51,8.83,24,8.84t23.87-8.84q3.54-5,3.54-15.83V3.07h30.86V67.71q0,16.76-7.18,26.11-13.4,17.12-51.09,17.12t-51.2-17.12q-7.19-9.34-7.18-26.11Z"/><path class="cls-2" d="M495.61,62.71q-12.75,7.71-36.45,7.71H428.9v37.81H398.72V3.07h62.41q21.58,0,34.42,8.13t12.83,25.19Q508.38,55,495.61,62.71ZM472.43,24.83q-5.76-3.49-16.16-3.5H428.9v31h27.37q10.39,0,16.16-3.79t5.77-12Q478.2,28.32,472.43,24.83Z"/><path class="cls-2" d="M640.22,21.69H563.3V44h70.61V62.28H563.3v27h80.47v18.91H533.62V3.07h106.6Z"/><path class="cls-2" d="M760.58,5.78a37.21,37.21,0,0,1,13.61,7.35,32.69,32.69,0,0,1,7.3,8.84A22.37,22.37,0,0,1,784.19,33q0,7.5-5.23,14.73T761.7,58q10.06,2.93,14.25,8.31t4.19,16.45v7.06c0,4.81.27,8.06.81,9.78a9.34,9.34,0,0,0,5.6,6v2.64H753a57.51,57.51,0,0,1-2-5.64,38.25,38.25,0,0,1-1.29-9.06l-.19-9.77q-.2-10.07-4.81-13.41T727.47,67H697.81v41.24H668.12V3.07h69.53Q752.55,3.28,760.58,5.78ZM697.81,21.33V49.58h32.68q9.74,0,14.61-1.71,8.63-3,8.62-11.84,0-9.55-8.34-12.84-4.68-1.86-14-1.86Z"/><path class="cls-2" d="M0,166.23l194.48-2.72.3-39.26,33.21.31.31,39.26,15.1-.31,24.45.31v43.79H228l.31,72.46V407.81l-32.92-.29,1.21-26.59s.15-3.43,0-5.13a2,2,0,0,0-.61-1.51c-.32-.22-.88.06-1.2.31a8.88,8.88,0,0,0-1.5,1.82c-1.47,2-2.55,4.24-4.24,6a110.18,110.18,0,0,1-12.38,11.78A59.48,59.48,0,0,1,164,402.08a108.58,108.58,0,0,1-19.94,6.34,97.3,97.3,0,0,1-17.22,1.8c-8.51.37-17.11,0-25.67,0-32.09.25-96.32.92-96.32.92l-.61-58.89s4.63-.64,6.94-.91c4.63-.51,9.26-1.26,13.9-1.5,9.13-.48,18.31-.53,27.48-.61,32.78-.23,65.7,1.09,98.46-.31,3.58-.13,6.94-2.25,10-4.21,6.6-4.32,13.4-8.69,18.72-14.5,4.8-5.23,8.25-11.67,11.17-18.12a60.26,60.26,0,0,0,4.53-16.61c.83-5.88.28-11.89.31-17.82.06-23,0-69.15,0-69.15l-1.52-.9-36.53.29H71.58c-5.63,0-11.3,0-16.93,0C36.48,207.83,0,207.61,0,207.61Z"/><path class="cls-2" d="M349.4,202.17l-.31-34.42,27.17-.31.31,35H511.86l66.43.61s1.4.57,1.51,1.22c.33,1.88-.29,3.81-.29,5.73-.11,21.11.4,42.29,0,63.42-.11,5.24-.22,10.6-1.52,15.7a71.74,71.74,0,0,1-7.24,18.72,67.65,67.65,0,0,1-13.28,16A62.71,62.71,0,0,1,539.94,335a67.57,67.57,0,0,1-21.44,4.84c-18.48,1.1-37.08-.22-55.56-.3-6,0-12.07.17-18.13,0a7.29,7.29,0,0,1-3.31-.61,5.13,5.13,0,0,1-2.13-2.42c-1.39-3.29-2.2-6.84-3.31-10.26-2.3-7-4.39-14.19-6.94-21.13-.46-1.23-1.56-2.13-2.12-3.34a4.19,4.19,0,0,1-.6-2.41,1.39,1.39,0,0,1,1.19-.91c1.92-.15,3.85.3,5.75.31,12.06.17,24.19.14,36.23.31,9.46.12,18.95.6,28.39.6,5,0,10.17.4,15.1-.6A40.66,40.66,0,0,0,525.75,294,42,42,0,0,0,536,285.22a44.52,44.52,0,0,0,7.86-12.69c2-5.48,2.52-11.44,3.31-17.22a41.24,41.24,0,0,0,0-6.94c0-1-.29-3-.29-3h-3.64s-38.05.41-57.06.31c-26.57-.12-53.18-.69-79.74-.92-9.15-.07-27.46,0-27.46,0l-.93,1.53.93,77.6s-.42,11.28,0,16.91a8.77,8.77,0,0,0,1.5,4.82,5.88,5.88,0,0,0,3.92,2.43c6.6.57,13.3-.36,19.94-.31,35.49.34,71.1,1.16,106.6,1.51,22.72.25,68.24.3,68.24.3l.31,60.69-35-.6s-53-.62-79.41-.9c-21.32-.21-42.71.19-64-.6-5.56-.21-11.27-.68-16.6-2.42a47.41,47.41,0,0,1-15.7-8.15,74.24,74.24,0,0,1-15.41-17.82,27,27,0,0,1-3.62-13c-.94-26.54.3-53.17.3-79.73,0-7.55-.34-15.1-.3-22.64.06-6.85.61-20.54.61-20.54H309.23V203.07Z"/><path class="cls-2" d="M631.75,410.84l.29-60.11,91.2,1.22s47.34.78,71,.9c11.87.08,23.8.57,35.63-.29A64.69,64.69,0,0,0,848,348.92a29.63,29.63,0,0,0,10.86-7.23,39.86,39.86,0,0,0,7.56-12.09,37.07,37.07,0,0,0,2.72-12.38c.59-11.94-.23-24-.33-35.93-.12-22.83-.26-45.72-.27-68.55-.07-27.36,0-82.15,0-82.15l30.78.31s.55,100.31.61,150.39c0,21.42.32,42.92-.3,64.31a28.87,28.87,0,0,1-1.82,8.16,60.26,60.26,0,0,1-4.22,10.87,89.2,89.2,0,0,1-24.45,29.6,75.75,75.75,0,0,1-16.93,10.57,88.62,88.62,0,0,1-22,6c-10.18,1.44-20.52,1.38-30.8,1.52-13.86.15-27.79-.48-41.67-.62C715.72,411.37,631.75,410.84,631.75,410.84Z"/><path class="cls-2" d="M679.23,205.32A31.39,31.39,0,1,1,647.84,174,31.39,31.39,0,0,1,679.23,205.32Z"/></svg>