<?xml version="1.0" encoding="UTF-8"?><svg id="_-3" xmlns="http://www.w3.org/2000/svg" viewBox="0 0 430.78 137.7"><defs><style>.cls-1{fill:#233436;}.cls-2{fill:#296e64;}</style></defs><path class="cls-1" d="m171.41,39.24h-10.49v-4.81h26.8v4.81h-10.54v27.21h-5.77v-27.21Z"/><path class="cls-1" d="m185.86,55.18c0-7.18,4.41-12.04,11.54-12.04,7.63,0,11.9,5.5,11.36,13.22h-17.49c.14,4.22,2.32,6.72,6.09,6.72,3.27,0,4.81-1.68,5.63-3.72h5.41c-.77,3.32-3.86,7.77-10.95,7.77s-11.58-4.81-11.58-11.95Zm17.35-2.36c-.18-3.91-2.77-5.72-5.81-5.72-3.41,0-5.59,1.95-6,5.72h11.81Z"/><path class="cls-1" d="m214.61,43.83h5.31v3c.82-1.36,3.18-3.68,7.18-3.68,4.86,0,8.49,2.95,8.49,8.77v14.54h-5.45v-13.81c0-3.72-1.82-5.09-4.68-5.09-3.86,0-5.36,3-5.36,7.04v11.86h-5.5v-22.62Z"/><path class="cls-1" d="m241.63,66.81h5.5c.14,2.04,1.54,4.09,5.77,4.09,3.95,0,6.31-2.18,6.31-6.31v-2.63c-1.64,2.09-4.27,3.27-7.86,3.27-5.5,0-10.17-4-10.17-10.81s4.32-11.22,10.22-11.22c4.18,0,6.54,1.86,7.86,3.41v-2.77h5.31v20.3c0,7.04-4.77,10.72-11.67,10.72-7.27,0-10.86-3.13-11.27-8.04Zm11.45-5.54c4,0,6.36-2.86,6.36-6.81.05-4.41-2.36-7-6.31-7s-6.36,2.59-6.36,7c-.05,3.95,2.32,6.81,6.31,6.81Z"/><path class="cls-1" d="m270.39,55.18c0-7.18,4.41-12.04,11.54-12.04,7.63,0,11.9,5.5,11.36,13.22h-17.49c.14,4.22,2.32,6.72,6.09,6.72,3.27,0,4.81-1.68,5.63-3.72h5.41c-.77,3.32-3.86,7.77-10.95,7.77s-11.58-4.81-11.58-11.95Zm17.35-2.36c-.18-3.91-2.77-5.72-5.81-5.72-3.41,0-5.59,1.95-6,5.72h11.81Z"/><path class="cls-1" d="m299.14,34.43h5.5v32.02h-5.5v-32.02Z"/><path class="cls-1" d="m311.9,43.83h5.27v2.45c1.18-1.73,2.91-3.13,6.04-3.13,3.45,0,5.5,2,6.45,3.82,1.09-1.77,3.54-3.82,7.04-3.82,5.09,0,8.13,3.04,8.13,8.09v15.22h-5.41v-14.4c0-2.95-1.18-4.59-4.04-4.59-3.04,0-4.41,2.09-4.41,5.36v13.63h-5.22v-14.4c0-2.95-1.23-4.59-4.18-4.59s-4.22,2.27-4.22,5.36v13.63h-5.45v-22.62Z"/><path class="cls-1" d="m350.38,55.14c0-6.95,4.32-11.9,10.95-11.9,4.18,0,6.81,1.91,7.99,3.5v-2.91h5.31v22.62h-5.31v-3.13c-.68,1-3.27,3.82-7.99,3.82-6.59,0-10.95-4.86-10.95-11.99Zm12.31,7.68c4,0,6.81-2.95,6.81-7.68s-2.82-7.63-6.81-7.63-6.77,2.95-6.77,7.63,2.68,7.68,6.77,7.68Z"/><path class="cls-1" d="m381.9,43.83h5.31v3c.82-1.36,3.18-3.68,7.18-3.68,4.86,0,8.49,2.95,8.49,8.77v14.54h-5.45v-13.81c0-3.72-1.82-5.09-4.68-5.09-3.86,0-5.36,3-5.36,7.04v11.86h-5.5v-22.62Z"/><path class="cls-1" d="m409.88,43.83h5.31v3c.82-1.36,3.18-3.68,7.18-3.68,4.86,0,8.49,2.95,8.49,8.77v14.54h-5.45v-13.81c0-3.72-1.82-5.09-4.68-5.09-3.86,0-5.36,3-5.36,7.04v11.86h-5.5v-22.62Z"/><path class="cls-1" d="m172.13,87.03h-10.49v-3.76h25.37v3.76h-10.49v27.45h-4.38v-27.45Z"/><path class="cls-1" d="m185.28,92.57h4.12l5.27,18.64,4.29-18.64h4.6l4.52,18.64,5.22-18.64h3.98l-6.6,21.92h-5.31l-4.07-17.4-4.07,17.4h-5.4l-6.55-21.92Z"/><path class="cls-1" d="m220.34,103.59c0-7,4.07-11.69,10.76-11.69s11.02,5.18,10.58,12.62h-17.18c.13,4.52,2.48,7.22,6.51,7.22,3.54,0,5.18-1.86,6.02-4.03h4.25c-.66,2.88-3.36,7.44-10.18,7.44s-10.76-4.65-10.76-11.56Zm16.96-2.26c-.18-4.25-3.05-6.15-6.2-6.15-3.67,0-5.98,2.04-6.46,6.15h12.66Z"/><path class="cls-1" d="m247.44,92.57h4.03v2.97c.71-1.24,2.92-3.63,7-3.63,4.69,0,8.1,2.88,8.1,8.28v14.3h-4.12v-13.77c0-3.98-1.99-5.4-5-5.4-4.21,0-5.84,3.32-5.84,7.7v11.47h-4.16v-21.92Z"/><path class="cls-1" d="m274.71,107.71v-11.95h-3.98v-3.19h3.98v-5.53h4.12v5.53h5.22v3.19h-5.22v12.09c0,2.35,1.15,3.1,3.19,3.1h2.04v3.54h-3.32c-3.85,0-6.02-2.39-6.02-6.77Z"/><path class="cls-1" d="m295.69,112.09l-9.08-19.52h4.52l6.69,14.92,6.15-14.92h4.34l-12.8,29.44h-4.34l4.52-9.92Z"/><path class="cls-1" d="m310.17,99.43h12.35v3.85h-12.35v-3.85Z"/><path class="cls-1" d="m325.8,98.9c0-9.52,7.35-16.29,16.43-16.29s16.38,6.77,16.38,16.29-7.31,16.25-16.38,16.25-16.43-6.73-16.43-16.25Zm16.43,12.4c6.77,0,11.78-4.74,11.78-12.4s-5-12.44-11.78-12.44-11.82,4.78-11.82,12.44,5.05,12.4,11.82,12.4Z"/><path class="cls-1" d="m364.36,92.57h4.03v2.97c.71-1.24,2.92-3.63,7-3.63,4.69,0,8.1,2.88,8.1,8.28v14.3h-4.12v-13.77c0-3.98-1.99-5.4-5-5.4-4.21,0-5.84,3.32-5.84,7.7v11.47h-4.16v-21.92Z"/><path class="cls-1" d="m388.98,103.59c0-7,4.07-11.69,10.76-11.69s11.02,5.18,10.58,12.62h-17.18c.13,4.52,2.48,7.22,6.51,7.22,3.54,0,5.18-1.86,6.02-4.03h4.25c-.66,2.88-3.36,7.44-10.18,7.44s-10.76-4.65-10.76-11.56Zm16.96-2.26c-.18-4.25-3.05-6.15-6.2-6.15-3.67,0-5.98,2.04-6.46,6.15h12.66Z"/><path class="cls-1" d="m28.8,34.43v32.02h6.4v-7.35c0-9.02,4.59-15.87,13.61-15.87s13.61,6.85,13.61,15.87v48.98h-16.81v6.4h23.22V34.43H28.8Z"/><path class="cls-2" d="m92.05,108.08h-16.81v-48.98c0-9.02,4.59-15.87,13.61-15.87s13.61,6.85,13.61,15.87v7.35h6.4v-32.02h-40.03v80.06h23.22v-6.4Z"/><path class="cls-1" d="m68.83,0C30.81,0-.02,30.83-.02,68.85s30.83,68.85,68.85,68.85,68.85-30.83,68.85-68.85S106.86,0,68.83,0Zm0,135.3c-36.7,0-66.45-29.75-66.45-66.45S32.13,2.4,68.83,2.4s66.45,29.75,66.45,66.45-29.75,66.45-66.45,66.45Z"/></svg>