<?xml version="1.0" encoding="utf-8"?>
<!-- Generator: Adobe Illustrator 15.0.2, SVG Export Plug-In  -->
<!DOCTYPE svg PUBLIC "-//W3C//DTD SVG 1.1//EN" "http://www.w3.org/Graphics/SVG/1.1/DTD/svg11.dtd" [
	<!ENTITY ns_flows "http://ns.adobe.com/Flows/1.0/">
]>
<svg version="1.1"
	 xmlns="http://www.w3.org/2000/svg" xmlns:xlink="http://www.w3.org/1999/xlink" xmlns:a="http://ns.adobe.com/AdobeSVGViewerExtensions/3.0/"
	 x="0px" y="0px" width="250px" height="100px" viewBox="0 0 250 100" overflow="visible" enable-background="new 0 0 250 100"
	 xml:space="preserve">
<defs>
</defs>
<path fill="#0A50A1" d="M50.98,22.127h9.534l3.74,13.091c0.438,1.46,1.284,1.455,2.873-0.136l-3.74,13.548h-2.326l-5.655-18.2
	l-0.345,16.722c-0.004,0.641,0.174,1.332,0.555,1.479h-5.204c0.714-0.416,0.857-0.876,0.91-1.732l0.297-23.219
	C51.66,22.768,51.45,22.255,50.98,22.127z"/>
<path fill="#0A50A1" d="M69.546,22.082h8.714c-0.361,0.455-0.541,1.071-0.549,1.87l0.364,23.356
	c-0.004,0.636,0.147,1.088,0.457,1.367h-9.363c0.682-0.449,0.935-0.846,0.968-1.94l0.047-22.508
	C70.227,23.022,70.016,22.313,69.546,22.082z"/>
<path fill="#0A50A1" d="M105.272,22.082h7.137c-0.399,0.466-0.603,0.943-0.603,1.87l0.283,23.356
	c-0.003,0.636,0.243,1.186,0.664,1.367h-7.813c0.71-0.407,0.947-0.846,0.974-1.94l0.037-22.508
	C105.984,23.022,105.898,22.475,105.272,22.082z"/>
<path fill="#0A50A1" d="M100.047,48.963h-6.699V38.14c-1.871,0-2.955,1.692-3.576,2.791c-0.842,1.496-0.778,5.371,2.348,6.143
	l-0.043,0.128c-1.477,1.799-4.26,2.527-6.86,1.278c-1.245-0.598-2.455-1.749-2.561-3.654c-0.126-2.26,1.006-4.091,2.762-5.354
	c2.153-1.548,3.961-1.69,7.342-3.982c0.732-0.496,0.81-1.017,0.81-1.546c0-0.53,0-3.166,0-3.166c0-1.111-1.222-1.84-2.319-1.658
	c-0.867,0.146-1.677,0.778-1.656,1.658c0.043,1.93,0.193,3.343-3.315,3.608c-1.839,0.021-2.915-1.208-2.577-3.094
	c0.435-2.414,3.49-4.046,8.44-4.023c4.989,0.021,7.471,1.553,7.466,4.838v15.312C99.611,48.277,99.758,48.787,100.047,48.963z"/>
<path fill="#0A50A1" d="M175.901,48.963h-6.702V38.14c-1.868,0-2.953,1.692-3.574,2.791c-0.841,1.496-0.777,5.371,2.349,6.143
	l-0.044,0.128c-1.477,1.799-4.261,2.527-6.859,1.278c-1.247-0.598-2.453-1.749-2.562-3.654c-0.125-2.26,1.007-4.091,2.763-5.354
	c2.153-1.548,3.962-1.69,7.34-3.982c0.736-0.496,0.81-1.017,0.81-1.546c0-0.53,0-3.166,0-3.166c0-1.111-1.22-1.84-2.319-1.658
	c-0.865,0.146-1.676,0.778-1.657,1.658c0.045,1.93,0.195,3.343-3.312,3.608c-1.84,0.021-2.916-1.208-2.578-3.094
	c0.435-2.414,3.49-4.046,8.439-4.023c4.989,0.021,7.471,1.553,7.467,4.838v15.312C175.465,48.277,175.61,48.787,175.901,48.963z"/>
<path fill="#0A50A1" d="M143.318,29.837c0.882-5.491,3.729-10.217,3.729-10.217c-1.438,0.387-6.27,2.016-7.731,3.12
	c-0.726,0.547-5.9,7.955-10.274,15.767c-1.589,2.843-3.076,5.733-4.333,8.28l-0.065-0.068l-6.995-11.507
	c1.072-1.29,2.171-2.496,3.36-3.653c1.219-1.184,3.23-3.212,4.004-3.434h-7.513c0.626,0.736-0.789,4.124-1.803,5.541
	c-1.013,1.418-2.909,3.553-2.909,3.553l4.934,10.53c0.33,0.653,0.019,0.942-0.276,1.178h6.222c-1.68,3.494-2.742,5.928-2.742,5.928
	c0.468-0.331,5.646-3.344,5.646-3.344c1.501-4.782,4.648-11.192,7.249-15.516c1.87-3.113,3.589-5.025,3.589-5.025
	c-0.522,0.994-1.6,4.169-2.851,8.005c-1.561,4.801-2.881,9.942-2.881,9.942c1.511-0.726,4.53-1.962,4.53-1.962
	c0.088-0.52,1.378-3.88,3.41-7.37c2.627-4.507,6.132-9.306,6.132-9.306C144.644,30.887,143.068,31.384,143.318,29.837z"/>
<path fill="#0A50A1" d="M162.676,15.423c0,0-2.724,5.114-5.082,10.88c-2.766,6.764-5.188,14.425-4.473,15.816
	c0,0-8.89,1.884-10.713,2.644c0,0,1.38-5.702,6.019-15.534c2.806-5.946,5.855-11.651,6.407-12.203
	C155.084,16.773,158.893,15.975,162.676,15.423z"/>
<path fill="#0A50A1" d="M186.916,48.907h-8.114l7.286-7.621c0,0,0.196,5.548,0.196,6.16
	C186.284,48.314,186.797,48.828,186.916,48.907z"/>
<path fill="#0A50A1" d="M192.056,28.215h6.505l-6.136,6.906c0,0,0.258-5.087,0.269-5.615
	C192.71,28.689,192.149,28.283,192.056,28.215z"/>
<path fill="#0A50A1" d="M199.59,48.638h-8.33c0,0,0.354-0.315-0.197-1.382l-10.346-17.135c0,0-0.826-1.461-1.618-1.856h8.214
	c0,0-0.554,0.316,0.157,1.383l11.134,17.925C198.604,47.572,199.116,48.322,199.59,48.638z"/>
<polygon points="227.171,83.021 227.171,68.722 232.663,68.722 232.663,67.235 227.171,67.235 227.171,60.829 224.654,60.829 
	224.654,67.235 219.507,67.235 219.507,68.722 224.654,68.722 224.654,83.021 218.067,83.021 218.067,84.509 233.055,84.509 
	233.055,83.021 "/>
<path d="M216.395,72.126c0.004-0.008,0.01-0.014,0.014-0.021c1.139-1.794,2.002-3.798,2.595-6.014v-1.486h-3.041v-3.775h-2.517
	v3.775h-3.891v1.486h6.329c-1.26,4.677-3.628,8.312-7.397,11.353l1.036,1.282c1.462-0.885,2.769-1.883,3.923-2.994v9.808h2.517
	V74.494c1.285,0.94,2.588,3.245,2.588,3.245l1.823-1.678C219.573,74.82,217.241,72.829,216.395,72.126z"/>
<path d="M205.869,69.479c-1.32-0.606-4.27-1.86-6.361-3.601c-2.668-2.218-4.391-4.934-4.391-4.934h-2.961
	c-0.503,0.695-2.032,3.349-4.094,5.131c-2.769,2.396-6.361,3.848-6.361,3.848l1.577,1.825c0.837-0.297,1.989-0.863,3.255-1.604
	v0.815h14.604v-0.883c1.661,0.934,3.008,1.474,3.008,1.474L205.869,69.479z M188.309,69.036c0.494-0.329,0.99-0.675,1.48-1.036
	c2.363-1.74,3.995-4.242,3.995-4.242c0.568,0.875,2.781,3.23,5.082,4.884c0.188,0.135,0.379,0.267,0.57,0.395H188.309z"/>
<path d="M191.996,75.942h12.592v-1.578h-21.9v1.578h5.914c-0.604,2.469-1.466,4.537-2.754,6.637
	c-0.861,0.041-1.734,0.075-2.629,0.105l0.621,2.617c5.919-0.437,11.115-1.024,16.859-2.252c0.527,0.815,1.038,1.659,1.551,2.566
	l2.289-1.189c-1.471-2.718-3.355-5.031-5.357-7.021l-2.189,0.706c0.929,1.082,1.751,2.126,2.52,3.196
	c-3.74,0.516-7.184,0.872-10.778,1.108C190.072,80.305,190.985,78.301,191.996,75.942z"/>
<path d="M163.826,81.239v-8.194h4.188v-1.427h-11.663v1.427h4.713v8.713c-1.887,0.326-3.807,0.596-5.865,0.822l0.39,2.416
	c4.821-0.84,8.839-1.862,13.474-3.429l0.041-1.579C167.273,80.473,165.543,80.885,163.826,81.239z"/>
<rect x="173.777" y="62.144" width="3.237" height="1.523"/>
<path d="M176.681,78.806c-0.047,0.524-0.507,2.4-0.714,3.001c-0.429,1.237-0.856,1.951-1.62,0.38
	c-1.941-4.009-2.374-12.824-2.456-15.139h5.886v-1.523h-5.904v-4.666h-3.143v4.666h-13.379v1.523h13.453
	c0.069,2.855,0.457,6.259,1.355,10.14c0.72,3.116,1.571,4.952,2.094,5.999c0.486,0.972,1.713,2.81,2.81,2.761
	c1.096-0.047,1.903-1.429,2.285-2.666c0.338-1.099,0.951-4.142,0.951-4.142L176.681,78.806z"/>
<path d="M136.069,68.291v-1.333h-2.951v-6.142h-2.569v6.142h-3.097v1.333h3.097v0.824c-1.444,5.576-4.096,8.745-4.096,8.745
	l1.046,0.856c0.857-0.798,2.174-2.678,3.05-3.989v10.654h2.569V72.45l1.715,2.506l1.189-1.714c-0.788-1.18-2.071-2.665-2.904-3.592
	v-1.359H136.069z"/>
<path d="M152.353,82.526c-1.355-1.491-4.122-5.339-5.906-9.713h4.954V71.48h-6.047v-4.714h5.381v-1.332h-5.381v-4.618h-2.57v4.618
	h-2.931c0.656-2.075,0.932-3.619,0.932-3.619l-2.19-0.334c-0.19,3.001-2.381,8.856-2.381,8.856l1.427,0.334
	c0.727-1.284,1.307-2.645,1.762-3.905h3.382v4.714h-6.474v1.333h5.021c-1.022,3.219-4.475,8.223-6.261,10.283l1.523,0.953
	c1.76-1.761,4.606-5.733,6.189-8.357v9.689h2.57v-9.911c1.21,2.719,3.761,6.389,5.428,8.293L152.353,82.526z"/>
<path d="M122.007,66.975v-1.477h-4.417c0.736-0.995,1.316-1.981,1.816-3.189l-1.759-0.81c-0.727,1.48-1.459,2.702-2.399,3.999
	h-0.911v-4.522h-2.428v4.522h-2.168v-4.522h-2.426v4.522h-1.221c-0.943-1.297-1.675-2.519-2.399-3.999l-1.762,0.81
	c0.499,1.208,1.081,2.194,1.817,3.189h-4.456v1.477h5.1l1.35,2.928h-5.377v1.476h8.855v1.857h-8.07v1.476h8.07v1.617h-9.928v1.477
	h8.242c-2.382,2.146-5.898,4.296-8.507,5.785l0.951,1.143c3.144-1.446,7.061-3.794,9.241-5.341v5.96h2.856v-6.278
	c1.553,1.388,4.812,3.771,8.035,5.35l1.529-1.87c-2.128-0.792-6.242-2.966-8.19-4.748h8.554v-1.477h-9.928v-1.617h8.07v-1.476h-8.07
	v-1.857h8.855v-1.476h-5.408l1.348-2.928H122.007z M112.479,69.902h-3.689l-1.348-2.928h6.384L112.479,69.902z"/>
<polygon points="86.094,83.118 86.094,65.057 94.387,65.057 94.387,63.358 74.117,63.358 74.117,65.057 82.412,65.057 
	82.412,83.118 73.127,83.118 73.127,84.817 95.38,84.817 95.38,83.118 "/>
<path d="M56.768,61.489v8.606h12.399v-8.606H56.768z M65.968,68.68h-6.002v-1.697h6.002V68.68z M65.968,65.227h-6.002v-1.699h6.002
	V65.227z"/>
<path d="M70.059,73.324v-1.586H54.94v1.586h2.632c-0.795,1.473-2.408,3.896-4.783,5.605l1.189,1.075
	c1.255-0.664,2.822-2.152,4.189-3.623h1.155c-1.151,2.399-3.001,3.987-6.307,6.228l1.074,1.075c4.485-2.12,7.449-5.883,8.37-7.303
	h0.996c-1.339,2.889-3.646,5.604-7.092,8.132c0,0,0.207,0.237,0.445,0.475c0.293,0.293,0.632,0.597,0.632,0.597
	c5.373-2.815,8.342-7.59,9.195-9.203h0.136c-0.031,1.519-0.421,6.193-1.072,6.736c-0.682,0.566-1.418,0.454-3.003,0.511l0.397,1.925
	c0.565,0,3.113,0.113,4.416-0.68c1.302-0.793,1.63-6.342,1.812-8.492c0.086-1.058,0.086-1.304,0.086-1.304H59.339
	c0.6-0.686,1.109-1.306,1.474-1.754H70.059z"/>
<path d="M52.959,69.529c1.925-3.906,1.981-7.87,1.981-7.87h-7.474v23.668h2.83v-8.645l0.566,1.229
	c0.737-0.058,3.794-0.114,3.794-3.455C54.657,71.114,52.959,69.529,52.959,69.529z M52.053,75.135
	c-0.476,0.404-1.26,0.522-1.756,0.555V63.506h1.812c0.113,1.642-1.472,6.42-1.472,6.42C51.827,71.172,52.789,74.513,52.053,75.135z"
	/>
<path d="M29.786,84.851l2.12-1.58c-1.157-2.036-2.35-3.636-3.973-5.325l-1.475,1.211C27.932,80.911,28.77,82.732,29.786,84.851z"/>
<path d="M41.577,83.289c-5.279-4.138-9.568-9.908-10.594-14.722h10.481v-1.925H30.876c0.171-2.889,0.057-5.775,0.057-5.775h-2.661
	c-0.057,1.698-0.021,2.968-0.453,5.775H17.4v1.925h9.965c-0.401,1.861-1.174,3.873-2.151,5.719
	c-3.058,5.775-8.267,9.909-8.267,9.909l1.357,1.358c1.983-1.358,4.362-3.341,6.695-6.221c1.804-2.225,3.329-4.654,4.687-7.822
	c0.009-0.018,0.017-0.038,0.023-0.058c1.216,3.637,4.79,9.429,9.376,14.214L41.577,83.289z"/>
<rect fill="none" width="250" height="100"/>
<rect x="16.947" y="15.423" fill="none" width="216.107" height="69.086"/>
</svg>
