<svg xmlns="http://www.w3.org/2000/svg" width="250.795" height="35.486" viewBox="0 0 250.795 35.486"><defs><style>.cls-1{fill:#df2e20;}.cls-2{fill:#231815;}.cls-3{fill:#040000;}</style></defs><g id="head_logo"><polygon class="cls-1" points="115.673 35.486 115.673 19.107 101.167 0 110.839 0 123.011 16.031 123.011 35.486 115.673 35.486"/><polygon class="cls-1" points="11.093 6.824 0 6.824 0 0 29.858 0 29.858 6.824 18.766 6.824 18.766 35.486 11.093 35.486 11.093 6.824"/><path class="cls-1" d="M98.272,0h-7.85L79.272,27.288l-6.383-9.225L87.35,0H76.96L63.793,16.446V0H55.276V28.806L43.507,0h-7.85l-14.5,35.486h7.885l3.485-8.53H46.637l3.487,8.53H63.793V19.169l11.29,16.317h8.722l3.488-8.53H101.4l3.486,8.53h7.886ZM35.013,20.874,39.58,9.693l4.571,11.181Zm54.765,0L94.347,9.693l4.57,11.181Z"/><polygon class="cls-2" points="138.388 0 148.06 0 133.037 19.788 133.037 35.486 125.74 35.486 125.74 16.659 138.388 0"/><polygon class="cls-2" points="123.011 14.045 123.011 3.987 126.037 0.001 133.675 0.001 123.011 14.045"/><path class="cls-3" d="M173.68,7.166A13.133,13.133,0,0,0,164.639.511a27.632,27.632,0,0,0-10.579,0,13.151,13.151,0,0,0-9.043,6.655,22.767,22.767,0,0,0-2.728,10.577,22.781,22.781,0,0,0,2.728,10.578,13.143,13.143,0,0,0,9.043,6.653,27.579,27.579,0,0,0,10.579,0,13.125,13.125,0,0,0,9.041-6.653,22.749,22.749,0,0,0,2.732-10.578A22.735,22.735,0,0,0,173.68,7.166m-5.514,14.1a8.682,8.682,0,0,1-2.617,5.459,8.93,8.93,0,0,1-12.4,0,8.66,8.66,0,0,1-2.616-5.459c-.107-1.173-.18-2.348-.227-3.526.047-1.177.12-2.353.227-3.526a8.658,8.658,0,0,1,2.616-5.459,8.928,8.928,0,0,1,12.4,0,8.679,8.679,0,0,1,2.617,5.459q.159,1.76.224,3.526-.066,1.767-.224,3.526"/><path class="cls-2" d="M208.144,0H186.652A8.2,8.2,0,0,0,180,3.412a12.187,12.187,0,0,0,0,14.267,8.2,8.2,0,0,0,6.657,3.413h10.063a3.853,3.853,0,0,1,0,7.705H179.482v6.689h21.49a8.207,8.207,0,0,0,6.662-3.412,12.205,12.205,0,0,0,0-14.268,8.21,8.21,0,0,0-6.662-3.412h-10.06a3.853,3.853,0,0,1,0-7.7h17.232Z"/><rect class="cls-2" x="243.294" y="0.001" width="7.501" height="35.486"/><polygon class="cls-2" points="211.898 0 219.805 0 219.805 13.174 232.375 13.174 232.375 0 240.282 0 240.282 35.486 232.375 35.486 232.375 20.474 219.805 20.474 219.805 35.486 211.898 35.486 211.898 0"/></g></svg>