<?xml version="1.0" encoding="UTF-8" standalone="no"?>
<svg
   xmlns:dc="http://purl.org/dc/elements/1.1/"
   xmlns:cc="http://creativecommons.org/ns#"
   xmlns:rdf="http://www.w3.org/1999/02/22-rdf-syntax-ns#"
   xmlns:svg="http://www.w3.org/2000/svg"
   xmlns="http://www.w3.org/2000/svg"
   id="svg8"
   version="1.1"
   viewBox="0 0 44.979165 27.249478"
   height="102.99015"
   width="170">
  <g
     transform="translate(-13.94127,-217.1015)"
     id="layer1">
    <path
       id="path835"
       d="m 26.748223,219.74733 c -2.31407,0 -2.88827,1.09611 -3.32326,2.40108 -0.23503,0.70509 -6.83786,19.55673 -6.83786,19.55673 h 29.71785 c 1.80952,0 2.52281,-0.85263 2.85338,-1.79217 0.33057,-0.93959 7.11627,-20.16564 7.11627,-20.16564 z m -0.43502,0.82642 h 28.7783 c 0,0 -6.46177,18.16744 -6.65808,18.79409 -0.30158,0.96276 -0.84687,1.55435 -2.06477,1.55435 h -28.63905 c 0,0 6.36815,-18.17644 6.60012,-18.7796 0.23196,-0.60315 0.63799,-1.56884 1.98348,-1.56884 z m 0.37125,0.91344 c -0.77719,0 -1.29696,0.82259 -1.47322,1.31662 -0.21112,0.59194 -1.00906,2.70266 -1.00906,2.70266 h 4.23376 l -3.49142,9.60444 h 1.80953 c 1.68192,0 2.52862,-0.33646 2.8302,-1.17164 0.35855,-0.99275 3.14931,-8.4328 3.14931,-8.4328 h 2.36627 l 1.52537,-4.01928 z m 15.42719,0 -6.48985,4.01928 h 16.52924 l 1.57465,-4.01928 z m -7.2728,4.78479 -3.30583,8.83893 h 2.0299 c 1.70515,0 2.43589,-0.76567 2.67949,-1.40364 0.2436,-0.63791 2.76349,-7.43529 2.76349,-7.43529 z m 12.93337,0.0232 -0.30151,0.96273 c 0,0 -0.93962,-0.91631 -2.79696,-0.91631 -3.00282,0 -5.5083,2.76068 -5.5083,5.18494 0,2.07629 1.4964,3.58433 3.12024,3.58433 1.57756,0 2.19227,-0.52205 2.2967,-0.52205 0.10442,0 -0.116,0.47555 -0.0348,0.47555 h 2.36628 c 1.46155,0 2.14594,-0.88166 2.35474,-1.46159 0.20874,-0.57999 2.60982,-7.3076 2.60982,-7.3076 z m -2.11103,1.39194 c 0.44075,0 1.34879,0.72715 0.9511,2.00673 -0.26672,0.85834 -0.84254,2.31023 -0.96273,2.56341 -0.17377,0.36606 -0.42923,1.05563 -1.03238,1.05563 -0.406,0 -1.25276,-0.39445 -1.25276,-1.16001 0,-0.41758 0.97643,-2.85268 1.21797,-3.51466 0.14949,-0.40981 0.41761,-0.9511 1.0788,-0.9511 z m -25.29843,8.16315 -1.62401,4.24833 h 26.23798 c 1.28756,0 2.08526,-0.83622 2.40107,-1.53111 0.406,-0.8932 1.04114,-2.71722 1.04114,-2.71722 z"
       style="fill:#e91c2b;fill-opacity:1;fill-rule:nonzero;stroke:none;stroke-width:0.0528991" />
  </g>
</svg>
