<?xml version="1.0" encoding="UTF-8" standalone="no"?>
<!-- Created with Inkscape (http://www.inkscape.org/) -->

<svg
   width="105.83333mm"
   height="39.17857mm"
   viewBox="0 0 105.83332 39.178571"
   version="1.1"
   id="svg4973"
   inkscape:version="1.2.2 (732a01da63, 2022-12-09)"
   sodipodi:docname="18 - toom - BauMarkt - GartenCenter.svg"
   xmlns:inkscape="http://www.inkscape.org/namespaces/inkscape"
   xmlns:sodipodi="http://sodipodi.sourceforge.net/DTD/sodipodi-0.dtd"
   xmlns="http://www.w3.org/2000/svg"
   xmlns:svg="http://www.w3.org/2000/svg">
  <sodipodi:namedview
     id="namedview4975"
     pagecolor="#ffffff"
     bordercolor="#111111"
     borderopacity="1"
     inkscape:showpageshadow="0"
     inkscape:pageopacity="0"
     inkscape:pagecheckerboard="1"
     inkscape:deskcolor="#d1d1d1"
     inkscape:document-units="mm"
     showgrid="false"
     inkscape:zoom="1.5937709"
     inkscape:cx="200.15424"
     inkscape:cy="74.351966"
     inkscape:window-width="798"
     inkscape:window-height="820"
     inkscape:window-x="793"
     inkscape:window-y="0"
     inkscape:window-maximized="0"
     inkscape:current-layer="layer1">
    <inkscape:grid
       type="xygrid"
       id="grid7076"
       originx="-288.11718"
       originy="-159.52743" />
  </sodipodi:namedview>
  <defs
     id="defs4970">
    <clipPath
       clipPathUnits="userSpaceOnUse"
       id="clipPath7325">
      <g
         id="g7329">
        <path
           clip-rule="nonzero"
           d="m 601.04241,317.36942 h 61.48833 v 21.81916 h -61.48833 z m -33.88271,50.43937 h 27.00359 v 13.68018 H 567.1597 Z m 0,13.68018 h 44.06199 v 10.41344 H 567.1597 Z m 0,0"
           id="path7327"
           style="stroke-width:2.85422" />
      </g>
    </clipPath>
  </defs>
  <g
     inkscape:label="Layer 1"
     inkscape:groupmode="layer"
     id="layer1"
     transform="translate(-722.29038,-419.51653)">
    <path
       fill-rule="nonzero"
       fill="#ee1b29"
       fill-opacity="1"
       d="m 789.10827,458.6951 12.89643,-39.17857 h 12.41879 l -12.93723,39.17857 h -12.37799"
       id="path1563"
       style="stroke-width:1.49119"
       clip-path="none" />
    <path
       fill-rule="nonzero"
       fill="#00a245"
       fill-opacity="1"
       d="m 802.80853,458.69508 12.89642,-39.17274 h 12.41876 l -12.93719,39.17274 h -12.37799"
       id="path1565"
       style="stroke-width:1.49118"
       clip-path="none" />
    <path
       fill-rule="nonzero"
       fill="#ee1b29"
       fill-opacity="1"
       d="m 741.21561,433.543 c -1.38049,0.88539 -3.57649,1.25816 -5.0444,1.25816 -1.32807,0 -2.53965,-0.39606 -3.1105,-1.2407 -0.44853,-0.66406 -0.44853,-1.50282 -0.0169,-3.09888 l 1.07762,-3.34934 h -2.05621 l 0.51261,-1.56106 7.8287,-6.02882 h 1.56694 l -1.57273,4.67162 h 3.41925 l -0.83301,2.91826 h -3.64641 l -0.76889,2.58628 c -0.18049,0.79218 0.36099,1.1475 0.69319,1.18246 0.73393,0.0642 1.96301,-0.21558 3.0348,-0.83293 l -1.08346,3.49495"
       id="path1569"
       style="stroke-width:1.49119"
       clip-path="none" />
    <path
       fill-rule="nonzero"
       fill="#ee1b29"
       fill-opacity="1"
       d="m 751.89275,422.86586 c -4.67162,0 -7.99766,3.15713 -8.85975,6.71617 -0.63489,2.62123 0.81551,5.27738 5.24247,5.27738 4.32209,0 7.33939,-2.14937 8.62088,-4.7939 2.01543,-4.15901 0.29716,-7.19965 -5.0036,-7.19965 z m 0.47765,6.4191 c -0.47182,0.9145 -1.26404,1.67177 -2.77852,1.67177 -1.5494,0 -1.85814,-0.9378 -1.59019,-1.84069 0.3669,-1.25236 1.29895,-2.42315 2.97655,-2.42315 1.78827,0 2.09113,1.23487 1.39216,2.59207"
       id="path1571"
       style="stroke-width:1.49119"
       clip-path="none" />
    <path
       fill-rule="nonzero"
       fill="#ee1b29"
       fill-opacity="1"
       d="m 775.03521,423.04644 4.99198,0.004 -0.48344,1.50865 c 1.46203,-1.15917 2.79011,-1.69506 4.21143,-1.69506 1.62515,0.004 2.72023,0.6116 3.1338,2.03871 1.59602,-1.31641 3.41341,-2.02126 4.97452,-2.02126 2.64448,0.004 3.30271,2.03876 2.58624,4.2988 l -2.31833,7.40935 -4.86378,-0.0127 2.07367,-6.65209 c 0.25616,-0.82134 -0.2794,-1.11841 -1.03683,-1.11841 -0.66406,-0.004 -1.20579,0.16316 -1.9106,0.92034 l -2.13192,6.84432 -4.99198,-0.0127 2.18434,-6.69866 c 0,-0.65823 -0.27391,-0.99026 -0.9378,-1.0543 -0.57085,-0.0524 -1.36303,0.15133 -1.96884,0.90284 l -2.25425,6.84433 -4.99198,0.0296 3.73377,-11.53919"
       id="path1573"
       style="stroke-width:1.49119"
       clip-path="none" />
    <path
       fill-rule="nonzero"
       fill="#ee1b29"
       fill-opacity="1"
       d="m 766.85702,422.95907 c -4.67162,0 -7.99766,3.16296 -8.85975,6.722 -0.6291,2.62123 0.81551,5.27738 5.24243,5.27738 4.32796,0 7.33943,-2.14942 8.62092,-4.79394 2.02126,-4.15897 0.30308,-7.20544 -5.0036,-7.20544 z m 0.47765,6.41909 c -0.47182,0.91451 -1.26404,1.6776 -2.77269,1.6776 -1.54944,0 -1.86397,-0.93784 -1.59602,-1.84651 0.3669,-1.24654 1.30478,-2.4232 2.98235,-2.4232 1.78826,0 2.08533,1.24074 1.38636,2.59211"
       id="path1575"
       style="stroke-width:1.49119"
       clip-path="none" />
    <path
       fill-rule="nonzero"
       fill="#00a245"
       fill-opacity="1"
       d="m 728.95994,437.5389 0.43107,-1.14167 h 62.00647 l -0.41932,1.14167 h -62.01817"
       id="path1577"
       style="stroke-width:1.49119"
       clip-path="none" />
    <path
       fill-rule="nonzero"
       fill="#00a245"
       fill-opacity="1"
       d="m 725.58732,448.10533 0.43103,-1.14166 h 62.01234 l -0.42524,1.14166 h -62.01813"
       id="path1579"
       style="stroke-width:1.49119"
       clip-path="none" />
    <path
       fill-rule="nonzero"
       fill="#00a245"
       fill-opacity="1"
       d="m 722.29038,458.69508 0.42522,-1.1417 h 62.01231 l -0.41939,1.1417 h -62.01814"
       id="path1581"
       style="stroke-width:1.49118"
       clip-path="none" />
    <path
       fill-rule="nonzero"
       fill="#00a245"
       fill-opacity="1"
       d="m 744.62323,439.14659 h 2.72023 c 1.24654,0.004 2.41737,0.29715 1.92805,1.74747 -0.18641,0.5534 -0.65239,1.09508 -1.27566,1.26983 l -0.0169,0.0465 c 0.61743,0.24474 0.89121,0.74559 0.63493,1.49702 -0.43686,1.29312 -1.81739,1.72998 -2.9416,1.72998 h -3.18042 z m 1.56107,2.42315 c 0.33773,0 0.73393,-0.0338 0.87959,-0.47181 0.16316,-0.46598 -0.28532,-0.43103 -0.6291,-0.43103 h -0.15725 l -0.30857,0.90284 z m -1.01938,2.36496 h 0.26799 c 0.38423,0 0.93784,-0.004 1.11258,-0.52423 0.18049,-0.52428 -0.41931,-0.51844 -0.79218,-0.51844 h -0.2329 l -0.35549,1.04267"
       id="path1585"
       style="stroke-width:1.49119"
       clip-path="none" />
    <path
       fill-rule="nonzero"
       fill="#00a245"
       fill-opacity="1"
       d="m 751.86363,444.86087 h -0.0465 c -0.54173,0.41932 -0.99021,0.68152 -1.61348,0.68152 -1.22908,0 -1.50286,-1.21742 -1.13588,-2.29504 0.37874,-1.11838 1.48536,-2.33583 2.76103,-2.33583 0.54752,0 0.93779,0.19824 1.11254,0.6291 h 0.0524 l 0.11075,-0.52423 h 2.15521 l -1.50282,4.43279 -2.15525,-0.004 z m -0.24475,-1.00192 c 0.4134,0 0.69902,-0.32632 0.81551,-0.66402 0.11075,-0.34365 -0.0423,-0.59414 -0.39015,-0.59414 -0.34957,0 -0.66989,0.2794 -0.77472,0.60577 -0.12216,0.34957 -0.0524,0.65239 0.34957,0.65239"
       id="path1587"
       style="stroke-width:1.49119"
       clip-path="none" />
    <path
       fill-rule="nonzero"
       fill="#00a245"
       fill-opacity="1"
       d="m 758.09631,441.02222 -0.78056,2.28338 c -0.0875,0.26207 -0.16316,0.53589 0.19783,0.53589 0.35549,0 0.46602,-0.27391 0.55339,-0.53589 l 0.77472,-2.28338 h 2.18434 l -0.84459,2.5047 c -0.47765,1.39799 -1.93389,2.02709 -3.25034,2.02126 -1.31062,0 -2.34745,-0.62327 -1.86981,-2.02705 l 0.84464,-2.50474 2.19017,0.004"
       id="path1589"
       style="stroke-width:1.49119"
       clip-path="none" />
    <path
       fill-rule="nonzero"
       fill="#00a245"
       fill-opacity="1"
       d="m 763.16983,439.16404 2.4057,0.004 -0.23883,3.30271 h 0.0643 c 0.134,-0.27391 0.27941,-0.56502 0.4427,-0.83297 l 1.56106,-2.46974 h 2.38241 l -1.07762,6.29093 h -2.26004 l 0.85626,-3.44837 h -0.0465 c -0.11075,0.20966 -0.22699,0.43102 -0.36099,0.62906 l -1.88726,2.81931 h -1.36303 l 0.0643,-2.66203 c 0.0254,-0.26799 0.0465,-0.51839 0.12216,-0.78634 h -0.0757 c -0.10483,0.25066 -0.20966,0.50677 -0.32041,0.75722 l -1.18245,2.68532 h -2.26009 l 3.17459,-6.29093"
       id="path1591"
       style="stroke-width:1.49119"
       clip-path="none" />
    <path
       fill-rule="nonzero"
       fill="#00a245"
       fill-opacity="1"
       d="m 772.5771,444.88416 h -0.0524 c -0.54173,0.4134 -0.99025,0.68152 -1.61352,0.68152 -1.22904,0 -1.49703,-1.21741 -1.13004,-2.29504 0.37874,-1.11838 1.47953,-2.33579 2.76102,-2.33579 0.54756,0 0.93201,0.19233 1.10675,0.62906 h 0.0524 l 0.11074,-0.52423 h 2.16105 l -1.50282,4.43279 -2.16105,-0.004 z m -0.25066,-1.00192 c 0.41931,0 0.69901,-0.32632 0.81551,-0.66985 0.11666,-0.33773 -0.0338,-0.58831 -0.38423,-0.58831 -0.34957,0 -0.66985,0.2794 -0.78056,0.60577 -0.11666,0.34957 -0.0524,0.65239 0.34957,0.65239"
       id="path1593"
       style="stroke-width:1.49119"
       clip-path="none" />
    <path
       fill-rule="nonzero"
       fill="#00a245"
       fill-opacity="1"
       d="m 779.64858,443.13085 c -0.18641,-0.13399 -0.30857,-0.24474 -0.59414,-0.24474 -0.57086,0 -0.97276,0.33224 -1.15917,0.88538 l -0.57668,1.7009 h -2.2018 l 1.50282,-4.43279 h 2.20184 l -0.25066,0.59414 h 0.0465 c 0.59415,-0.58248 1.03684,-0.70481 1.77077,-0.68735 l -0.73976,2.18438"
       id="path1595"
       style="stroke-width:1.49119"
       clip-path="none" />
    <path
       fill-rule="nonzero"
       fill="#00a245"
       fill-opacity="1"
       d="m 781.45431,438.70973 h 2.20183 l -1.35136,3.97843 h 0.0524 l 0.30857,-0.37282 1.11254,-1.26399 h 2.56299 l -2.39404,2.16687 0.97859,2.26009 h -2.59211 l -0.3669,-1.62519 h -0.0524 l -0.55339,1.62519 -2.20179,-0.004 2.29499,-6.76279"
       id="path1597"
       style="stroke-width:1.49119"
       clip-path="none" />
    <path
       fill-rule="nonzero"
       fill="#00a245"
       fill-opacity="1"
       d="m 789.25972,441.11543 0.7456,-0.0338 -0.57669,1.69506 -0.71643,-0.0465 -0.93784,2.75519 -2.21346,-0.004 0.93197,-2.74936 -0.55336,0.0423 0.57669,-1.69502 0.52423,0.0338 0.50677,-1.48536 2.21346,0.004 -0.50094,1.48536"
       id="path1599"
       style="stroke-width:1.49119"
       clip-path="none" />
    <path
       fill-rule="nonzero"
       fill="#00a245"
       fill-opacity="1"
       d="m 731.14432,452.24689 c -0.3669,1.02516 -0.65823,1.88726 -1.68927,2.68527 -0.93197,0.72814 -2.10863,1.11842 -3.11051,1.11842 -1.96301,-0.004 -3.14546,-1.18829 -2.46395,-3.20955 0.69902,-2.05038 2.66203,-3.28529 4.68329,-3.27946 1.11837,0 2.46974,0.54173 2.60373,1.61936 l -2.44649,0.78051 c -0.0697,-0.31449 -0.34957,-0.48344 -0.72231,-0.48344 -0.83876,0 -1.53777,0.69897 -1.79405,1.45623 -0.23291,0.69314 -0.0127,1.34554 0.74559,1.34554 0.3669,0 0.89705,-0.16316 1.13588,-0.54752 h -1.05434 l 0.50094,-1.48536 h 3.61149"
       id="path1601"
       style="stroke-width:1.49119"
       clip-path="none" />
    <path
       fill-rule="nonzero"
       fill="#00a245"
       fill-opacity="1"
       d="m 733.68981,455.36906 h -0.0524 c -0.54173,0.41932 -0.99021,0.68731 -1.61348,0.68731 -1.22908,-0.004 -1.49703,-1.22321 -1.13004,-2.30083 0.37874,-1.11259 1.48536,-2.32996 2.76102,-2.32996 0.54752,0 0.93197,0.19233 1.11254,0.62906 h 0.0524 l 0.11075,-0.53006 2.15525,0.004 -1.50286,4.42695 h -2.15521 z m -0.24474,-0.99609 c 0.41339,0 0.69318,-0.32632 0.80967,-0.66985 0.11667,-0.34365 -0.0338,-0.59414 -0.38465,-0.59414 -0.34957,0 -0.66989,0.28532 -0.78056,0.6116 -0.11666,0.34957 -0.0465,0.64656 0.35549,0.65239"
       id="path1603"
       style="stroke-width:1.49119"
       clip-path="none" />
    <path
       fill-rule="nonzero"
       fill="#00a245"
       fill-opacity="1"
       d="m 740.68554,453.62154 c -0.1864,-0.13399 -0.30856,-0.24474 -0.58831,-0.24474 -0.57085,0 -0.97858,0.33224 -1.16499,0.87955 l -0.57665,1.70669 -2.20183,-0.004 1.50282,-4.42696 h 2.20183 l -0.25066,0.59419 h 0.0524 c 0.58832,-0.58252 1.03101,-0.71069 1.76498,-0.69319 l -0.73981,2.19017"
       id="path1605"
       style="stroke-width:1.49119"
       clip-path="none" />
    <path
       fill-rule="nonzero"
       fill="#00a245"
       fill-opacity="1"
       d="m 744.43682,451.59449 0.73976,-0.0296 -0.57085,1.68923 -0.72226,-0.0423 -0.93201,2.75523 -2.21929,-0.004 0.9378,-2.75519 -0.55336,0.0465 0.57665,-1.69506 0.52427,0.0338 0.50094,-1.48536 h 2.21929 l -0.50094,1.48536"
       id="path1607"
       style="stroke-width:1.49119"
       clip-path="none" />
    <path
       fill-rule="nonzero"
       fill="#00a245"
       fill-opacity="1"
       d="m 746.52216,454.11669 c -0.12216,0.36098 -0.19825,0.75722 0.26207,0.75722 0.23291,0.004 0.45436,-0.15724 0.57086,-0.36098 h 2.13771 c -0.6524,1.06596 -2.03872,1.55523 -3.07555,1.55523 -1.42712,0 -2.48724,-0.71647 -1.96885,-2.24258 0.49515,-1.46791 1.96885,-2.38825 3.40763,-2.38241 1.61348,0 2.53965,1.01938 1.86397,2.67948 z m 1.34553,-0.91451 c 0.0989,-0.30307 -0.0296,-0.57668 -0.34365,-0.57668 -0.33182,0 -0.58831,0.26799 -0.69318,0.57668 h 1.03683"
       id="path1609"
       style="stroke-width:1.49119"
       clip-path="none" />
    <path
       fill-rule="nonzero"
       fill="#00a245"
       fill-opacity="1"
       d="m 752.85384,452.25272 h 0.0524 c 0.58831,-0.48348 1.02521,-0.80385 1.73002,-0.80385 1.13004,0 1.29312,0.82714 0.96109,1.79989 l -0.92613,2.7319 -2.20184,-0.004 0.73393,-2.16104 c 0.0875,-0.25615 0.21558,-0.62327 -0.16316,-0.62327 -0.3669,0 -0.48931,0.3669 -0.57668,0.62327 l -0.73393,2.16104 h -2.20184 l 1.50282,-4.43279 2.14942,0.004 -0.32632,0.70481"
       id="path1611"
       style="stroke-width:1.49119"
       clip-path="none" />
    <path
       fill-rule="nonzero"
       fill="#00a245"
       fill-opacity="1"
       d="m 761.72526,452.24689 c -0.26208,-0.34366 -0.62911,-0.63494 -1.15917,-0.63494 -0.69901,0 -1.45624,0.54173 -1.68927,1.22325 -0.23291,0.69318 0.19233,1.22908 0.89126,1.22908 0.53585,0 1.03684,-0.22742 1.53777,-0.58252 l -0.86792,2.35328 c -0.43686,0.17458 -1.32808,0.25066 -1.74748,0.25066 -1.83484,-0.004 -2.79598,-1.39799 -2.18437,-3.19209 0.61747,-1.83484 2.59211,-3.30275 4.47941,-3.30275 0.53007,0.004 1.04263,0.0989 1.47953,0.26207 l -0.73976,2.39404"
       id="path1613"
       style="stroke-width:1.49119"
       clip-path="none" />
    <path
       fill-rule="nonzero"
       fill="#00a245"
       fill-opacity="1"
       d="m 763.56594,454.13415 c -0.12216,0.36098 -0.19825,0.75726 0.26207,0.76309 0.23291,0 0.45432,-0.15724 0.56502,-0.3669 h 2.14359 c -0.6524,1.06596 -2.03876,1.56107 -3.08139,1.55528 -1.42132,0 -2.48145,-0.71648 -1.96884,-2.24263 0.50094,-1.4679 1.96884,-2.3882 3.41341,-2.38241 1.61353,0 2.53966,1.01938 1.86397,2.67949 z m 1.3397,-0.91451 c 0.10482,-0.30307 -0.0211,-0.57669 -0.33774,-0.57669 -0.33774,0 -0.58831,0.26799 -0.69318,0.57669 h 1.031"
       id="path1615"
       style="stroke-width:1.49119"
       clip-path="none" />
    <path
       fill-rule="nonzero"
       fill="#00a245"
       fill-opacity="1"
       d="m 769.89762,452.27018 h 0.0524 c 0.58831,-0.48349 1.02517,-0.80385 1.73002,-0.80385 1.13,0 1.29312,0.82714 0.96109,1.79989 l -0.92613,2.7319 -2.20184,-0.004 0.73393,-2.16104 c 0.0875,-0.25616 0.21558,-0.62327 -0.16316,-0.62327 -0.3669,0 -0.48927,0.3669 -0.57664,0.62327 l -0.73398,2.16104 h -2.20179 l 1.50282,-4.43279 2.14942,0.004 -0.32632,0.7048"
       id="path1617"
       style="stroke-width:1.49119"
       clip-path="none" />
    <path
       fill-rule="nonzero"
       fill="#00a245"
       fill-opacity="1"
       d="m 776.27596,451.62941 0.74555,-0.0338 -0.57664,1.69506 -0.71647,-0.0423 -0.93201,2.7494 h -2.21929 l 0.93201,-2.75519 -0.54757,0.0465 0.57086,-1.69506 0.53006,0.0338 0.50094,-1.48536 h 2.21933 l -0.50677,1.48536"
       id="path1619"
       style="stroke-width:1.49119"
       clip-path="none" />
    <path
       fill-rule="nonzero"
       fill="#00a245"
       fill-opacity="1"
       d="m 778.36709,454.15165 c -0.12216,0.35549 -0.19825,0.75722 0.26207,0.75722 0.22741,0 0.45436,-0.15725 0.56502,-0.3669 l 2.14359,0.004 c -0.65239,1.06596 -2.03872,1.55524 -3.08139,1.55524 -1.42128,0 -2.48724,-0.72231 -1.96884,-2.24842 0.50094,-1.4679 1.96884,-2.38241 3.41342,-2.38241 1.60768,0.004 2.53386,1.02521 1.86401,2.68532 z m 1.33974,-0.91455 c 0.10483,-0.30265 -0.0254,-0.57665 -0.34365,-0.57665 -0.33182,0 -0.58248,0.26799 -0.68731,0.57086 l 1.031,0.004"
       id="path1621"
       style="stroke-width:1.49119"
       clip-path="none" />
    <path
       fill-rule="nonzero"
       fill="#00a245"
       fill-opacity="1"
       d="m 785.89293,453.66817 c -0.18641,-0.134 -0.30857,-0.24475 -0.59414,-0.24475 -0.57086,0 -0.9728,0.33224 -1.15917,0.88539 l -0.57668,1.70089 -2.20184,-0.004 1.50286,-4.42695 2.20179,0.004 -0.25066,0.58836 h 0.0465 c 0.59415,-0.58252 1.03684,-0.70485 1.77077,-0.68735 l -0.73977,2.18433"
       id="path1623"
       style="stroke-width:1.49119"
       clip-path="none" />
  </g>
</svg>
