<?xml version="1.0" encoding="utf-8"?>
<!-- Generator: Adobe Illustrator 24.1.0, SVG Export Plug-In . SVG Version: 6.00 Build 0)  -->
<svg version="1.1" id="Layer_1" xmlns="http://www.w3.org/2000/svg" xmlns:xlink="http://www.w3.org/1999/xlink" x="0px" y="0px"
	 viewBox="0 0 202.4543762 65.9072876" enable-background="new 0 0 202.4543762 65.9072876" xml:space="preserve">
<rect display="none" fill="#C32033" width="202.4543762" height="65.9072876"/>
<g id="normal">
	<g>
		<polygon fill="#C32033" points="64.3105469,51.5610962 64.3105469,52.8171082 58.4525146,52.8171082 58.4525146,56.3571167 
			63.5905151,56.3571167 63.5905151,57.6121216 58.4525146,57.6121216 58.4525146,62.696106 56.97052,62.696106 
			56.97052,51.5610962 		"/>
		<path fill="#C32033" d="M66.2254028,54.6497803v1.6970215h0.032959c0.3250122-0.6539917,0.7219849-1.1360168,1.1929932-1.4470215
			c0.4689941-0.3119812,1.0650024-0.4569702,1.7850342-0.4369812v1.3999939c-0.53302,0-0.9860229,0.072998-1.3630371,0.2180176
			c-0.3759766,0.144989-0.6789551,0.3579712-0.907959,0.63797c-0.2300415,0.2810059-0.3970337,0.6210022-0.5010376,1.0200195
			c-0.1049805,0.3999939-0.1569824,0.8590088-0.1569824,1.3769836v3.5800171h-1.3369751v-8.0460205H66.2254028z"/>
		<path fill="#C32033" d="M69.9181519,51.5612793h1.3380127v1.6260071h-1.3380127V51.5612793z M71.2561035,62.6962891h-1.3380127
			v-8.0549927h1.3380127V62.6962891z"/>
		<path fill="#C32033" d="M78.3484497,62.1779785c-0.605957,0.4550171-1.367981,0.6830139-2.2869873,0.6830139
			c-0.6480103,0-1.2089844-0.1040039-1.684021-0.3120117c-0.4749756-0.2080078-0.875-0.4989929-1.197998-0.8729858
			c-0.3239746-0.3739929-0.5669556-0.8210144-0.7290039-1.3399963c-0.1619873-0.5200195-0.2529907-1.0870056-0.2739868-1.7000122
			c0-0.6130066,0.0939941-1.1740112,0.2820435-1.6839905c0.1879883-0.5090027,0.4509888-0.9500122,0.7909546-1.3250122
			c0.3389893-0.3739929,0.7410278-0.6650085,1.2059937-0.8720093c0.4640503-0.2079773,0.973999-0.3119812,1.5270386-0.3119812
			c0.7199707,0,1.3179932,0.1489868,1.7940063,0.4459839c0.4749756,0.2969971,0.855957,0.6750183,1.1430054,1.1340027
			c0.2869873,0.4590149,0.4859619,0.960022,0.5959473,1.5020142c0.1090088,0.5429993,0.1530151,1.0589905,0.1330566,1.5489807
			h-6.052002c-0.0100098,0.3510132,0.0309448,0.684021,0.125,0.9990234
			c0.0939941,0.3150024,0.2449951,0.5939941,0.4529419,0.8379822c0.2090454,0.2420044,0.4750366,0.4360046,0.7970581,0.5800171
			c0.322998,0.144989,0.7039795,0.21698,1.1409912,0.21698c0.5629883,0,1.0239868-0.1289978,1.3829956-0.3869934
			c0.3599854-0.2579956,0.5969849-0.6499939,0.7119751-1.177002h1.31604
			C79.345459,61.0439758,78.9534912,61.7219849,78.3484497,62.1779785 M78.036499,57.0089722
			c-0.1200562-0.2819824-0.2820435-0.5249939-0.4850464-0.7279968c-0.2039795-0.2030029-0.4439697-0.3649902-0.7210083-0.4849854
			c-0.2769775-0.1199951-0.5819702-0.1799927-0.914978-0.1799927c-0.3460083,0-0.6560059,0.0599976-0.9320068,0.1799927
			c-0.2780151,0.1199951-0.5150146,0.2839966-0.7130127,0.4930115c-0.1989746,0.2079773-0.3549805,0.4509888-0.4699707,0.7279968
			c-0.1160278,0.276001-0.1829834,0.5709839-0.2039795,0.8829956h4.6519775
			C78.227478,57.5879822,78.1574707,57.2909851,78.036499,57.0089722"/>
		<path fill="#C32033" d="M81.5964355,54.6297913v1.2790222h0.0379639c0.552002-0.9770203,1.4279785-1.4660034,2.6279907-1.4660034
			c0.5320435,0,0.9750366,0.072998,1.3300171,0.2189941c0.3540039,0.144989,0.6409912,0.3479919,0.8599854,0.6080017
			s0.3729858,0.5690002,0.4609985,0.928009c0.0889893,0.3589783,0.1340332,0.7569885,0.1340332,1.1929932v5.3049927h-1.3389893
			V57.237793c0-0.4989929-0.1450195-0.8939819-0.4380493-1.1849976c-0.2909546-0.2919922-0.6919556-0.4369812-1.2030029-0.4369812
			c-0.4069824,0-0.7589722,0.0619812-1.0559692,0.1869812s-0.5440063,0.302002-0.742981,0.5310059
			c-0.197998,0.2290039-0.3460083,0.4960022-0.4450073,0.803009s-0.1490479,0.6409912-0.1490479,1.0050049v4.5539856h-1.3369751
			v-8.0660095H81.5964355z"/>
		<path fill="#C32033" d="M94.2300415,62.6896973l0.0050049-1.09198h-0.0469971
			c-0.2190552,0.446991-0.5630493,0.7689819-1.0310059,0.96698c-0.4689941,0.1970215-0.9850464,0.2960205-1.5469971,0.2960205
			c-0.6260376,0-1.1700439-0.1140137-1.6340332-0.3430176c-0.4639893-0.2279968-0.848999-0.5350037-1.1560059-0.9199829
			c-0.3070068-0.3840027-0.5390015-0.8310242-0.6950073-1.3410034c-0.1569824-0.5079956-0.2349854-1.0490112-0.2349854-1.6199951
			c0-0.5720215,0.0750122-1.11203,0.2269897-1.6220093c0.151001-0.5090027,0.3800049-0.9530029,0.6870117-1.3330078
			c0.3070068-0.3789978,0.6929932-0.6809998,1.1560059-0.9039917c0.4639893-0.2229919,1.0029907-0.3349915,1.6190186-0.3349915
			c0.2080078,0,0.4320068,0.0209961,0.6709595,0.0619812c0.2399902,0.0419922,0.4790039,0.1119995,0.7189941,0.2109985
			c0.2400513,0.098999,0.4660034,0.2290039,0.6800537,0.3890076c0.2139893,0.1610107,0.3929443,0.3609924,0.5390015,0.6000061
			h0.0419922v-4.1440125h1.3369751v11.1289978H94.2300415z M89.4380493,59.8306885
			c0.098999,0.3580017,0.2509766,0.678009,0.4539795,0.9580078c0.2039795,0.2810059,0.4649658,0.5039978,0.7839966,0.6700134
			c0.3179932,0.1659851,0.6920166,0.2489929,1.1199951,0.2489929c0.4489746,0,0.8300171-0.0880127,1.1430054-0.2649841
			c0.3129883-0.1760254,0.5689697-0.4070129,0.7680054-0.6930237c0.197998-0.2850037,0.3410034-0.6099854,0.4299927-0.973999
			c0.0889893-0.3630066,0.1329956-0.7319946,0.1329956-1.1059875c0-0.3950195-0.0460205-0.776001-0.1409912-1.1450195
			c-0.0939941-0.368988-0.242981-0.6929932-0.4459839-0.973999c-0.2040405-0.2799988-0.467041-0.5059814-0.7910156-0.6779785
			c-0.3240356-0.1710205-0.7150269-0.257019-1.1749878-0.257019c-0.4490356,0-0.8290405,0.0890198-1.1430054,0.2650146
			c-0.3129883,0.1759949-0.5640259,0.4110107-0.7520142,0.7009888c-0.1879883,0.2910156-0.322998,0.6239929-0.4069824,0.9970093
			c-0.0840454,0.375-0.125,0.7590027-0.125,1.1529846C89.2900391,59.1057129,89.3389893,59.4727173,89.4380493,59.8306885"/>
		<rect x="96.9891357" y="51.5612793" fill="#C32033" width="1.3380127" height="11.1350098"/>
		<path fill="#C32033" d="M102.7244263,64.7542725c-0.151001,0.2700195-0.3180542,0.4910278-0.5010376,0.6630249
			c-0.1820068,0.17099-0.3839722,0.2949829-0.6029663,0.3729858c-0.2200317,0.0780029-0.4790039,0.1170044-0.7820435,0.1170044
			c-0.157959,0-0.3139648-0.0109863-0.4699707-0.0310059c-0.1569824-0.0220032-0.309021-0.0579834-0.4540405-0.1099854v-1.2140198
			c0.125,0.0410156,0.2530518,0.0820007,0.3830566,0.125c0.1299438,0.0410156,0.2639771,0.0620117,0.3999634,0.0620117
			c0.2709961,0,0.4899902-0.0620117,0.6569824-0.1870117c0.1670532-0.125,0.3130493-0.3069763,0.4390259-0.5449829
			l0.5479736-1.355011l-3.2099609-8.0039978h1.5029907l2.3649902,6.5870056h0.0310059l2.2709961-6.5870056h1.4100342
			l-3.5240479,9.1100159C103.0303955,64.1522827,102.8753662,64.4842834,102.7244263,64.7542725"/>
		<polygon fill="#C32033" points="113.074707,51.5610962 116.5986938,60.9181213 120.1376953,51.5610962 122.1746826,51.5610962 
			122.1746826,62.696106 120.7746582,62.696106 120.7746582,53.4331055 120.7426758,53.4331055 117.2506714,62.696106 
			115.982666,62.696106 112.4906616,53.4331055 112.4596558,53.4331055 112.4596558,62.696106 111.0396729,62.696106 
			111.0396729,51.5610962 		"/>
		<path fill="#C32033" d="M129.9464722,62.8612061c-0.3460083,0-0.6220093-0.0970154-0.8239746-0.2890015
			c-0.2050171-0.1920166-0.3070068-0.506012-0.3070068-0.9429932c-0.3649902,0.4369812-0.7919922,0.7509766-1.2780151,0.9429932
			c-0.4869995,0.1919861-1.0119629,0.2890015-1.5759888,0.2890015c-0.3660278,0-0.7109985-0.0400085-1.0360107-0.1180115
			c-0.3239746-0.0769958-0.6079712-0.2070007-0.8540039-0.3890076c-0.2449951-0.1819763-0.4400024-0.414978-0.5800171-0.7009888
			c-0.1419678-0.2850037-0.2119751-0.631012-0.2119751-1.0360107c0-0.4570007,0.0780029-0.8309937,0.2349854-1.1219788
			c0.1570435-0.2900085,0.3630371-0.5270081,0.6199951-0.7080078c0.2560425-0.1820068,0.5500488-0.3200073,0.8790283-0.4129944
			c0.3289795-0.0939941,0.6660156-0.1719971,1.0109863-0.2350159c0.3660278-0.071991,0.7139893-0.1269836,1.0430298-0.1629944
			c0.3299561-0.0360107,0.6199951-0.0889893,0.8709717-0.1549988c0.2510376-0.0690002,0.4490356-0.1659851,0.5950317-0.29599
			c0.1469727-0.1300049,0.2199707-0.3200073,0.2199707-0.5700073c0-0.2900085-0.0549927-0.5239868-0.1640015-0.7000122
			c-0.1110229-0.177002-0.2509766-0.3119812-0.4229736-0.4049988c-0.1730347-0.0939941-0.3670044-0.1559753-0.5820313-0.1869812
			c-0.2130127-0.0320129-0.4259644-0.0469971-0.6339722-0.0469971c-0.56604,0-1.0369873,0.1059875-1.4130249,0.3190002
			c-0.3759766,0.2119751-0.5809937,0.6129761-0.6119995,1.2039795h-1.3369751
			c0.0199585-0.4989929,0.1259766-0.9199829,0.3129883-1.2619934c0.1889648-0.3439941,0.4400024-0.6220093,0.7539673-0.8339844
			c0.3140259-0.2130127,0.6760254-0.3660278,1.0830078-0.460022c0.40802-0.0939941,0.8380127-0.1409912,1.2880249-0.1409912
			c0.3649902,0,0.7299805,0.026001,1.0899658,0.07901c0.3610229,0.0509949,0.6890259,0.1579895,0.9810181,0.3190002
			c0.2930298,0.1609802,0.5280151,0.3869934,0.7080078,0.6779785c0.177002,0.2920227,0.2659912,0.6710205,0.2659912,1.1380005
			v4.1480103c0,0.3120117,0.0180054,0.5400085,0.0549927,0.6860046c0.0360107,0.144989,0.15802,0.2179871,0.368042,0.2179871
			c0.1149902,0,0.2509766-0.026001,0.4060059-0.0780029v1.0280151
			C130.6715088,62.7932129,130.3534546,62.8612061,129.9464722,62.8612061 M128.0775146,58.8021851
			c-0.2710571,0.0580139-0.5560303,0.1040039-0.8530273,0.1400146c-0.2969971,0.0369873-0.5969849,0.07901-0.8989868,0.125
			c-0.302002,0.0469971-0.5720215,0.1220093-0.8129883,0.2260132c-0.2390137,0.1039734-0.4349976,0.2519836-0.5870361,0.4440002
			c-0.1499634,0.1919861-0.2260132,0.4539795-0.2260132,0.7869873c0,0.2179871,0.0430298,0.4020081,0.132019,0.553009
			c0.0889893,0.1499939,0.2039795,0.2729797,0.3450317,0.3659973c0.1409912,0.0939941,0.3069458,0.1609802,0.5,0.2030029
			c0.1929932,0.0409851,0.3889771,0.0619812,0.5869751,0.0619812c0.4370117,0,0.8129883-0.0589905,1.1259766-0.1789856
			c0.3130493-0.1199951,0.5670166-0.2700195,0.7650146-0.4519958c0.197998-0.1820068,0.3450317-0.3789978,0.4390259-0.5920105
			s0.1399536-0.4129944,0.1399536-0.6000061v-1.3559875C128.5664673,58.6542053,128.3474731,58.7452087,128.0775146,58.8021851"/>
		<path fill="#C32033" d="M132.9460449,54.6497803v1.6970215h0.0339966
			c0.3239746-0.6539917,0.7209473-1.1360168,1.1919556-1.4470215c0.4700317-0.3119812,1.0650024-0.4569702,1.7860107-0.4369812
			v1.3999939c-0.53302,0-0.9869995,0.072998-1.3629761,0.2180176c-0.3770142,0.144989-0.6790161,0.3579712-0.9089966,0.63797
			c-0.2290039,0.2810059-0.3959961,0.6210022-0.5,1.0200195c-0.1040039,0.3999939-0.15802,0.8590088-0.15802,1.3769836v3.5800171
			H131.69104v-8.0460205H132.9460449z"/>
		<polygon fill="#C32033" points="138.055603,51.5610962 138.055603,58.1581116 141.7536011,54.6331177 143.5385742,54.6331177 
			140.3275757,57.5651245 143.772583,62.696106 142.081543,62.696106 139.3085938,58.4891052 138.055603,59.6421204 
			138.055603,62.696106 136.7175903,62.696106 136.7175903,51.5610962 		"/>
		<path fill="#C32033" d="M149.5668945,62.1779785c-0.605957,0.4550171-1.3689575,0.6830139-2.2879639,0.6830139
			c-0.6480103,0-1.2090454-0.1040039-1.6830444-0.3120117c-0.4759521-0.2080078-0.8759766-0.4989929-1.1999512-0.8729858
			c-0.3220215-0.3739929-0.5650024-0.8210144-0.7270508-1.3399963c-0.1619873-0.5200195-0.2539673-1.0870056-0.2739868-1.7000122
			c0-0.6130066,0.0930176-1.1740112,0.2810059-1.6839905c0.1879883-0.5090027,0.4520264-0.9500122,0.7910156-1.3250122
			c0.3399658-0.3739929,0.7409668-0.6650085,1.2069702-0.8720093c0.4640503-0.2079773,0.973999-0.3119812,1.5270386-0.3119812
			c0.7199707,0,1.3179932,0.1489868,1.7929688,0.4459839c0.473999,0.2969971,0.8569946,0.6750183,1.144043,1.1340027
			c0.2869873,0.4590149,0.4839478,0.960022,0.5949707,1.5020142c0.1090088,0.5429993,0.1530151,1.0589905,0.1329956,1.5489807
			h-6.0509644c-0.0110474,0.3510132,0.0309448,0.684021,0.1239624,0.9990234
			c0.0939941,0.3150024,0.2460327,0.5939941,0.4539795,0.8379822c0.2090454,0.2420044,0.4740601,0.4360046,0.7970581,0.5800171
			c0.322998,0.144989,0.7029419,0.21698,1.1409912,0.21698c0.5619507,0,1.0239868-0.1289978,1.3829956-0.3869934
			c0.3599854-0.2579956,0.5960083-0.6499939,0.7109985-1.177002h1.315979
			C150.5639038,61.0439758,150.171936,61.7219849,149.5668945,62.1779785 M149.2549438,57.0089722
			c-0.1200562-0.2819824-0.28302-0.5249939-0.4860229-0.7279968c-0.2039795-0.2030029-0.4440308-0.3649902-0.7210083-0.4849854
			c-0.276001-0.1199951-0.5809937-0.1799927-0.914978-0.1799927c-0.3450317,0-0.6550293,0.0599976-0.9320068,0.1799927
			c-0.2770386,0.1199951-0.5140381,0.2839966-0.7130127,0.4930115c-0.1989746,0.2079773-0.3549805,0.4509888-0.4700317,0.7279968
			c-0.1149902,0.276001-0.1829834,0.5709839-0.2029419,0.8829956h4.651001
			C149.4448853,57.5879822,149.374939,57.2909851,149.2549438,57.0089722"/>
		<path fill="#C32033" d="M155.0126343,54.6484985v1.1730042h-1.6050415v4.9869995
			c0,0.1549988,0.0120239,0.2799988,0.0380249,0.3730164c0.026001,0.0929871,0.0769653,0.1650085,0.1480103,0.21698
			c0.072998,0.052002,0.1759644,0.0860291,0.3049927,0.1010132c0.1300049,0.0159912,0.2990112,0.0230103,0.506958,0.0230103
			h0.6070557v1.1739807h-1.0180054c-0.3450317,0-0.6410522-0.0239868-0.8870239-0.0699768
			c-0.2449951-0.0469971-0.4440308-0.132019-0.5949707-0.257019c-0.1520386-0.1239929-0.2640381-0.3009949-0.3370361-0.5289917
			c-0.0739746-0.2269897-0.1099854-0.5289917-0.1099854-0.9020081l0.0039673-5.1170044h-1.3779907v-1.1730042h1.3779907v-2.4289856
			h1.3380127v2.4289856H155.0126343z"/>
		<path fill="#C32033" d="M156.7908936,60.8873901c0.1259766,0.2030029,0.289978,0.3650208,0.4939575,0.4850159
			c0.2040405,0.1199951,0.4329834,0.2059937,0.6890259,0.2569885c0.2559814,0.053009,0.5199585,0.07901,0.7919922,0.07901
			c0.2089844,0,0.4279785-0.0159912,0.65802-0.0469971c0.2299805-0.0310059,0.440979-0.0880127,0.6339722-0.1719971
			c0.1940308-0.0820007,0.3530273-0.2050171,0.4790039-0.3659973c0.125-0.1610107,0.1870117-0.3659973,0.1870117-0.6150208
			c0-0.3439941-0.1290283-0.6039734-0.3900146-0.7799988c-0.2620239-0.177002-0.5869751-0.3199768-0.9780273-0.4289856
			c-0.3929443-0.1090088-0.8169556-0.2080078-1.276001-0.29599c-0.4599609-0.0880127-0.8839722-0.2130127-1.2749634-0.3740234
			c-0.3930054-0.1619873-0.7180176-0.3869934-0.9790039-0.6789856c-0.2609863-0.2910156-0.3909912-0.6960144-0.3909912-1.2149963
			c0-0.4060059,0.0910034-0.7539978,0.2739868-1.0450134c0.1820068-0.2909851,0.4180298-0.5270081,0.7050171-0.7099915
			c0.2869873-0.1809998,0.6090088-0.3160095,0.9699707-0.4049988c0.3599854-0.0880127,0.7180176-0.1329956,1.072998-0.1329956
			c0.4570313,0,0.8810425,0.039978,1.2670288,0.1170044c0.3859863,0.0789795,0.7279663,0.2139893,1.0249634,0.4069824
			s0.5350342,0.4530029,0.7120361,0.7810059c0.1779785,0.3280029,0.2819824,0.7369995,0.3129883,1.2269897h-1.3369751
			c-0.0209961-0.2599792-0.0890503-0.4759827-0.2040405-0.6479797c-0.1159668-0.1719971-0.2609863-0.309021-0.4389648-0.4130249
			c-0.177002-0.1049805-0.3720093-0.1809998-0.5870361-0.2269897c-0.2139893-0.0469971-0.4299927-0.0709839-0.6499634-0.0709839
			c-0.197998,0-0.3990479,0.0159912-0.6040039,0.0469971c-0.2020264,0.0319824-0.3880005,0.0859985-0.5549927,0.1640015
			c-0.1670532,0.0780029-0.302002,0.1819763-0.4070435,0.3119812c-0.1040039,0.1300049-0.1569824,0.2980042-0.1569824,0.506012
			c0,0.2279968,0.0809937,0.4179993,0.242981,0.5679932c0.1610107,0.151001,0.3690186,0.276001,0.618042,0.3739929
			c0.2509766,0.098999,0.5319824,0.1820068,0.8449707,0.25c0.3120117,0.0670166,0.6270142,0.1370239,0.9390259,0.210022
			c0.3339844,0.072998,0.6599731,0.1609802,0.9779663,0.2649841c0.3190308,0.1040039,0.6010132,0.2409973,0.8450317,0.4129944
			c0.2459717,0.1719971,0.4439697,0.3870239,0.5960083,0.6459961c0.1499634,0.2600098,0.2259521,0.5820007,0.2259521,0.9660034
			c0,0.4890137-0.1019897,0.8940125-0.3049927,1.2160034c-0.2039795,0.3220215-0.4699707,0.5820007-0.7990112,0.7780151
			c-0.3289795,0.197998-0.6989746,0.3359985-1.1109619,0.4129944c-0.4130249,0.0780029-0.8220215,0.1170044-1.2300415,0.1170044
			c-0.4489746,0-0.8769531-0.0469971-1.282959-0.1400146c-0.4089966-0.0939941-0.7680054-0.2469788-1.0809937-0.4599915
			c-0.3140259-0.2139893-0.5650024-0.4960022-0.7529907-0.8439941c-0.1880493-0.348999-0.2920532-0.7730103-0.3120117-1.2720032
			h1.3380127C156.5978394,60.4364014,156.6658936,60.6844177,156.7908936,60.8873901"/>
	</g>
	<path fill="#C32033" d="M83.565979,45.0780029c-2.8450317-0.7960205-3.9180298-1.1400146-4.1090088-1.6880188
		c-0.15802-0.3450012-0.2160034-0.6219788-0.2160034-0.8760071c-0.0299683-0.8209839,0.7520142-1.6749878,1.6710205-3.3589783
		c5.4939575-9.7480164,12.3900146-21.9869995,15.6939697-27.5750122l0.0220337-0.0360107l0.0109863-0.0359802
		c0.0579834-0.1820068,0.2369995-0.447998,0.4130249-0.6419983c0.0889893-0.0970154,0.1769409-0.1799927,0.2379761-0.2290039
		c0.0100098-0.0069885,0.0189819-0.0140076,0.0280151-0.019989c3.2879639,0.2139893,5.4660034,0.4859924,8.4049683,0.4859924
		c0.684021,0,1.4060059-0.0140076,2.1950073-0.0469971c3.3070068-0.1440125,6.6140137-1.7230225,9.117981-3.4690247
		c1.2520142-0.875,2.3010254-1.7939758,3.0480347-2.6129761c0.7409668-0.8359985,1.2130127-1.5050049,1.2390137-2.151001
		c0.0199585-0.3009949-0.1990356-0.6450195-0.5060425-0.7470093c-0.0809937-0.0409851-0.177002-0.0629883-0.256958-0.0620117
		c-0.3990479,0.0370178-0.5450439,0.2369995-0.8640137,0.4500122c-0.8989868,0.6560059-2.7449951,1.9930115-7.5549927,2.25
		c-0.1600342,0.0069885-0.3300171,0.0109863-0.5130005,0.0109863c-4.4400024,0.0050049-15.5870361-2.3409729-19.8170166-3.0929871
		C84.1729736,0.2799988,80.4389648,0,77.7349854,0c-1.2609863,0-2.2919922,0.0619812-3.3800049,0.1009827
		c-6.2900391,0.1880188-11.59198,2.5160217-15.098999,4.8510132c-3.7680054,2.5239868-6.44104,5.4869995-7.0780029,8.3079834
		c-0.0770264,0.3480225-0.4140015,1.4500122-0.4130249,2.8789978c-0.0009766,1.6150208,0.4280396,3.6920166,2.0889893,5.6940002
		c2.394043,2.8840027,6.098999,4.1540222,9.6160278,4.1549988c4.973999-0.0079956,9.7670288-2.5689697,9.7990112-7.0899963
		c0-0.2070007-0.0109863-0.414978-0.0319824-0.6279907c-0.375-3.6679993-3.9210205-5.3580017-7.0040283-5.3500061
		c-1.4370117,0.0020142-2.809021,0.355011-3.7999878,1.0939941c-1.3099976,0.980011-2.0540161,2.2550049-2.0560303,3.5559998
		c-0.0019531,1.4810181,0.9840088,2.8860168,2.894043,3.7790222c0.0229492,0.0589905,0.0309448,0.1130066,0.0319824,0.1690063
		c0.0009766,0.2209778-0.1589966,0.4489746-0.25,0.5769958v-0.0010071
		c-0.0549927,0.0700073-0.5570068,0.2229919-1.2030029,0.2109985c-1.5230103,0.0050049-3.9240112-0.6000061-5.2910156-2.2019958
		c-1.0189819-1.1849976-1.4110107-2.4250183-1.4129639-3.6620178c-0.0100098-2.5059814,1.6889648-5.0239868,3.3249512-6.4539795
		c2.4720459-2.2360229,5.8320313-3.0190125,9.5400391-3.0190125c1.5130005-0.0010071,3.0780029,0.131012,4.6560059,0.3430176
		c3.9400024,0.473999,9.1749878,1.2949829,12.5549927,1.9579773c-0.3079834,0.7680054-1.4030151,2.8690186-2.8710327,5.5100098
		c-2.5219727,4.5539856-6.1959839,10.9119873-9.2389526,16.1289978c-3.0420532,5.2189941-5.4490356,9.2869873-5.4540405,9.29599
		c-1.2550049,1.9460144-3.8179932,3.9570007-5.6149902,4.3500061c0.0159912-0.0039978-0.7650146,0.1340027-1.5819702,0.3049927
		c-0.40802,0.085022-0.8270264,0.178009-1.1650391,0.2670288c-0.3590088,0.1099854-0.5559692,0.1259766-0.8009644,0.321991
		c-0.1600342,0.1999817-0.6890259,0.4239807-0.8240356,1.0229797c-0.0130005,0.0890198-0.0169678,0.177002-0.0169678,0.257019
		c-0.0110474,0.3450012,0.131958,0.6849976,0.3979492,0.848999c0.257019,0.1619873,0.5130005,0.178009,0.7610474,0.2030029
		c0.0419922,0.0010071,7.2179565-0.0010071,10.6499634-0.0010071c0.0060425,0,0.007019,0,0.0090332,0h0.0059814
		c0.0020142,0,0.0029907,0,0.0050049,0.0010071c0.0050049,0,0.0159912,0.0010071,0.0300293,0.0010071h0.0429688
		c0.125,0.0009766,0.3969727,0.0009766,0.7940063,0.0009766h1.3070068h12.2929688h0.0460205l0.0469971-0.0119934
		c0.7340088-0.1730042,1.2130127-0.6940002,1.2109985-1.2890015C85.2469482,45.7359924,84.5579834,45.1389771,83.565979,45.0780029
		 M194.9749756,49.2850037c-0.9320068,0-1.6849976,0.7549744-1.6849976,1.6849976
		c0,0.9299927,0.7529907,1.6839905,1.6849976,1.6839905c0.9299927,0,1.6829834-0.7539978,1.6829834-1.6839905
		C196.657959,50.039978,195.9049683,49.2850037,194.9749756,49.2850037 M194.9749756,52.2669983
		c-0.71698-0.0010071-1.2969971-0.5800171-1.2979736-1.2969971c0.0009766-0.7160034,0.5809937-1.2960205,1.2979736-1.2960205
		c0.7150269,0,1.2930298,0.5800171,1.2940063,1.2960205C196.2680054,51.6869812,195.6900024,52.2659912,194.9749756,52.2669983
		 M195.6219482,51.6849976c-0.0009766-0.0859985-0.0079956-0.3089905-0.0169678-0.3779907
		c-0.0180054-0.1540222-0.1300049-0.1950073-0.1879883-0.2360229c0.1140137-0.065979,0.1879883-0.1199951,0.230957-0.2659912
		c0.0410156-0.1470032,0.0060425-0.2680054-0.0159912-0.3420105c-0.0499878-0.1829834-0.2210083-0.2619934-0.3909912-0.2689819
		h-0.9400024v1.6929932h0.3480225v-0.6690063h0.40802c0.1209717,0,0.2049561,0.0559998,0.2099609,0.1700134
		c-0.0050049,0.1229858-0.0050049,0.2579956,0,0.3410034c0.0029907,0.0559998,0.0180054,0.1069946,0.0460205,0.1579895h0.3739624
		v-0.0629883C195.6499634,51.8009949,195.6219482,51.7810059,195.6219482,51.6849976 M195.1239624,50.9279785h-0.4749756v-0.4429932
		h0.4710083c0.1560059,0,0.2119751,0.0700073,0.2119751,0.1900024
		C195.3529663,50.84198,195.2059937,50.9279785,195.1239624,50.9279785 M128.9369507,26.3859863
		c0.0030518-2.7949829-1.1239624-4.6959839-2.3469849-6.3309937c-2.065979-2.7529907-6.1849976-4.1130066-11.0419922-4.1170044
		c-0.1820068,0-0.367981,0.0010071-0.5510254,0.0050049c-6.0699463,0.1080017-12.7069702,2.9110107-17.9259644,9.3059998
		c-3.3859863,4.1489868-5.4320068,8.9129944-5.4360352,13.1399841c-0.006958,3.4950256,1.434021,6.6400146,4.6740112,8.6200256
		c2.3170166,1.42099,4.5350342,1.8859863,8.4540405,1.8859863h0.0529785c0.177002,0,0.3579712-0.0019836,0.5419922-0.0019836
		c8.0839844-0.0810242,15.8179932-4.6419983,19.7609863-11.4900208
		C127.9249878,32.5239868,128.9369507,29.0610046,128.9369507,26.3859863 M112.5059814,37.7599792
		c-2.0759888,3.2810059-5.1110229,8.3640137-8.8939819,8.3140259c-0.5550537,0-1.132019-0.1020203-1.7360229-0.3320007
		c-1.2479858-0.4900208-1.6660156-1.309021-1.6829834-2.5020142c-0.0130005-2.1260071,1.6199951-5.2449951,3.1820068-7.9169922
		c1.6669922-2.8520203,3.7259521-6.6170044,5.7729492-9.7929993c2.0290527-3.178009,4.1220093-5.7590027,5.5720215-6.2000122
		c0.6879883-0.2219849,1.4609985-0.3580017,2.2000122-0.3580017c1.7199707,0.0289917,3.1140137,0.6490173,3.2700195,2.5240173
		c0.0019531,0.039978,0.0039673,0.0829773,0.0039673,0.1279907
		C120.2329712,24.2179871,114.9949951,33.7940063,112.5059814,37.7599792 M202.177002,17.6170044
		c-0.1670532-0.1090088-0.3340454-0.125-0.4750366-0.1270142c-0.2199707,0.0020142-0.3900146,0.0499878-0.4810181,0.0799866
		c-1.5829468,0.4760132-2.7439575,0.651001-3.6899414,0.651001c-1.4240112,0-2.3870239-0.3929749-3.6850586-0.8059998
		c-3.3799438-1.0789795-5.492981-1.4419861-8.0419922-1.5479736c-0.1609497-0.007019-0.3249512-0.0090027-0.492981-0.0090027
		c-1.8599854,0.0019836-4.3449707,0.3849792-6.1660156,1.2389832c-3.8460083,1.8179932-6.6239624,5.5240173-6.6329956,9.1530151
		c0,0.6690063,0.0960083,1.3339844,0.3010254,1.9799805c1.1079712,3.5090027,3.7680054,5.2730103,6.302002,6.7630005
		c2.5490112,1.4970093,4.9550171,2.7520142,5.8349609,5.1180115c0.2850342,0.7590027,0.4070435,1.4670105,0.4089966,2.1229858
		c0.0270386,3.6800232-3.9699707,6.007019-4.9639893,6.5090027c-1.230957,0.7340088-3.9519653,1.5230103-6.8639526,1.5180054
		c-3.0430298-0.0010071-6.2800293-0.8399963-8.3910522-3.3529968c-0.59198-0.70401-0.8789673-1.5579834-0.8800049-2.4530029
		c0.0040283-2.5059814,2.2790527-5.3089905,6.6660156-5.3169861c0.934021,0,1.9620361,0.1289978,3.0859985,0.4190063
		c0.0430298,0.0529785,0.0790405,0.0969849,0.1010132,0.1319885c0.0339966,0.052002,0.026001,0.0579834,0.0310059,0.0589905
		c-0.0009766,0,0.0050049,0.0020142-0.0090332,0.0119934c-0.006958,0.0110168-0.0219727,0.0280151-0.0429688,0.0490112
		c-0.2819824-0.0369873-0.552002-0.0539856-0.8079834-0.0539856c-1.2220459-0.0010071-2.2000122,0.3919983-2.8649902,1.0299988
		c-0.6660156,0.6369934-1.0100098,1.5090027-1.0090332,2.4169922c0,0.5010071,0.1030273,1.0159912,0.3120117,1.5140076
		c0.7080078,1.6340027,2.789978,2.3849792,4.8209839,2.3919983c1.3220215-0.0010071,2.6480103-0.3220215,3.6290283-1.0299988
		c1.1789551-0.8590088,2.1499634-2.151001,2.1499634-3.7990112c0-0.803009-0.2319946-1.6759949-0.7589722-2.5969849
		c-1.4559937-2.5240173-4.5950317-3.4700012-7.7420044-3.4720154c-0.7990112,0-1.6019897,0.0610046-2.3829956,0.1759949
		c-4.7420044,0.6920166-8.1500244,4.1190186-8.1560059,8.0849915c0,0.9620056,0.2050171,1.9510193,0.6329956,2.927002
		c2.7030029,6.0039978,11.9959717,5.9100037,12.6970215,5.9349976c4.2329712,0,8.6739502-0.3199768,13.0039673-2.4829712
		c3.4810181-1.7340088,8.4949951-5.4790039,8.5209961-10.6360168c0.0020142-1.7640076-0.6049805-3.6690063-2.0499878-5.651001
		c-2.1279907-2.9240112-4.7539673-4.8389893-6.815979-6.4559937c-2.0820313-1.6170044-3.5130005-2.927002-3.493042-4.4850159
		c0-0.3969727,0.0859985-0.822998,0.2820435-1.2989807c0.526001-1.2440186,0.9559937-1.5450134,2.0489502-2.2200012
		c0.8130493-0.4940186,2.007019-0.7780151,3.2880249-0.7770081c1.375,0,2.8469849,0.3240051,4.0690308,1.0069885
		c2.197998,1.1980286,2.3439941,4.2530212,2.3349609,6.6300049v0.6849976l0.0460205,0.0770264
		c0.1719971,0.2709961,0.4429932,0.6279907,0.9320068,0.6459961c0.3930054-0.0030212,0.7290039-0.2799988,1.0039673-0.7680054
		l4.4850464-8.7380066c0.1229858-0.2709961,0.1849976-0.4840088,0.1859741-0.6879883
		C202.4619751,17.9539795,202.3469849,17.7250061,202.177002,17.6170044 M168.2189941,23.3089905
		c-0.0010376-0.8349915-0.1040039-1.5360107-0.2869873-2.0580139c-0.6210327-1.7289734-2.6080322-3.8190002-5.5710449-4.3069763
		c-1.1419678-0.1830139-3.5639648-0.2350159-4.7650146-0.2369995c-0.1139526,0-0.2179565,0-0.30896,0.0029907h-18.9360352
		c-0.0310059-0.0029907-0.0789795-0.006012-0.1309814-0.006012c-0.9940186-0.0339966-1.3569946,0.7440186-1.4119873,1.2640076
		l-0.0050049,0.026001v0.0339966c-0.0059814,0.4510193,0.3170166,0.7720032,0.6619873,0.928009
		c1.0140381,0.4670105,2.8890381,0.4179993,3.3959961,0.7879944c0.1630249,0.1080017,0.2739868,0.3059998,0.3040161,0.644989
		c0.0020142,0.0150146,0.0020142,0.0390015,0.0020142,0.0670166c0.0490112,1.2619934-2.6019897,5.2120056-5.4590454,10.5079956
		c-3.1619873,5.7330017-6.2599487,11.4389954-7.5549927,12.9570007c-1,1.1740112-2.1480103,1.42099-3.572998,1.730011
		c-0.756958,0.0699768-1.3299561,0.1900024-1.75,0.4309998c-0.4279785,0.2299805-0.6690063,0.6629944-0.6560059,1.1219788
		c0,0.0510254,0.0020142,0.1110229,0.0100098,0.178009l0.0050049,0.0469971l0.0209961,0.0469971
		c0.3380127,0.6119995,0.9940186,0.553009,1.7949829,0.5780029c0.1800537,0,0.3660278-0.0039978,0.5650024-0.0029907
		c0.6500244,0.0180054,1.2210083,0.0249939,1.7870483,0.0249939c1.34198,0,2.6389771-0.0400085,4.9840088-0.0400085
		c0.6999512,0,1.4939575,0.0039978,2.4119873,0.0150146c1.3299561,0.0130005,2.4699707,0.0159912,3.4649658,0.0159912
		c1.9920044,0,3.4050293-0.0159912,4.5780029-0.0159912c0.8670044-0.0780029,1.3900146-0.4989929,1.3859863-1.0610046
		c-0.0039673-0.3850098-0.2139893-0.7070007-0.4789429-0.9549866l-0.0530396-0.0480042l-0.0700073-0.0220032
		c-2.1239624-0.6610107-2.4289551-0.4680176-3.157959-1.0220032c-0.1380005-0.1069946-0.2050171-0.25-0.210022-0.5270081
		c-0.0239868-1.117981,1.4829712-3.4169922,2.0310059-4.5069885c0.3259888-0.6719971,0.815979-1.5849915,1.0540161-1.9580078
		c0.0789795-0.1579895,0.4060059-0.243988,0.9140015-0.2369995c0.1989746,0,0.4159546,0.0069885,0.6339722,0.0069885
		c0.0999756,0,0.1970215-0.0029907,0.2919922-0.0039978c0.2160034-0.0109863,0.447998-0.0159912,0.6990356-0.0159912
		c1.2749634,0,3.032959,0.1090088,5.006958,0.1090088c4.2139893-0.0029907,9.44104-0.4930115,13.2120361-3.7310181
		C166.973999,30.7039795,168.2179565,26.196991,168.2189941,23.3089905 M158.2909546,24.42099l-0.3039551-0.1130066
		c-0.6960449,1.9160156-3.368042,6.3269958-3.822998,6.9219971c-1.9820557,2.585022-3.06604,3.3340149-7.368042,3.3659973
		c-0.7539673,0-1.6029663-0.0279846-2.565979-0.0759888c-0.1199951-0.0650024-0.0750122-0.0509949-0.0870361-0.0759888
		c-0.0019531-0.0350037,0.0200195-0.1280212,0.085022-0.2510071c0.5709839-1.1140137,2.3460083-4.4559937,4.0529785-7.571991
		c0.8550415-1.559021,1.6920166-3.0620117,2.3540039-4.2030029c0.3320313-0.5690002,0.6190186-1.0480042,0.8400269-1.3959961
		c0.1090088-0.1730042,0.2039795-0.3140259,0.2769775-0.4130249c0.0350342-0.0489807,0.06604-0.0889893,0.0870361-0.1139832
		c0.0219727-0.026001,0.0249634-0.0230103,0.0219727-0.026001c0.5010376-0.3990173,0.8619995-0.8099976,1.0570068-0.7950134
		c0.059021-0.0069885,0.177002-0.0090027,0.3220215-0.0090027c0.4799805,0,1.2689819,0.0310059,1.8809814,0.0310059
		c0.1229858,0,0.2390137-0.0010071,0.3439941-0.0039978c0.1309814-0.0039978,0.2579956-0.0069885,0.3809814-0.0069885
		c0.8070068-0.0020142,1.5440063,0.1000061,2.0300293,0.3840027c0.4810181,0.2879944,0.7700195,0.6959839,0.78302,1.5499878
		c0,0.6419983-0.1940308,1.519989-0.6680298,2.678009L158.2909546,24.42099z"/>
	<g>
		<polygon fill="#C32033" points="12.6459961,5.1809998 12.3619995,5.6779785 11.9869995,6.3329773 0,27.1229858 
			12.6389771,49.3429871 37.9599609,49.3429871 50.7009888,27.21698 37.9579468,5.1809998 		"/>
		<polygon fill="#FFFFFF" points="14.5429688,8.4539795 3.7729492,27.1369934 14.4819946,45.9579773 25.3099976,27.3059998 
			14.5819702,8.4539795 		"/>
	</g>
</g>
<g id="reverse" display="none">
	<g display="inline">
		<polygon fill="#FFFFFF" points="64.3105469,51.5610962 64.3105469,52.8171082 58.4525146,52.8171082 58.4525146,56.3571167 
			63.5905151,56.3571167 63.5905151,57.6121216 58.4525146,57.6121216 58.4525146,62.696106 56.97052,62.696106 
			56.97052,51.5610962 		"/>
		<path fill="#FFFFFF" d="M66.2254028,54.6497803v1.6970215h0.032959c0.3250122-0.6539917,0.7219849-1.1360168,1.1929932-1.4470215
			c0.4689941-0.3119812,1.0650024-0.4569702,1.7850342-0.4369812v1.3999939c-0.53302,0-0.9860229,0.072998-1.3630371,0.2180176
			c-0.3759766,0.144989-0.6789551,0.3579712-0.907959,0.63797c-0.2300415,0.2810059-0.3970337,0.6210022-0.5010376,1.0200195
			c-0.1049805,0.3999939-0.1569824,0.8590088-0.1569824,1.3769836v3.5800171h-1.3369751v-8.0460205H66.2254028z"/>
		<path fill="#FFFFFF" d="M69.9181519,51.5612793h1.3380127v1.6260071h-1.3380127V51.5612793z M71.2561035,62.6962891h-1.3380127
			v-8.0549927h1.3380127V62.6962891z"/>
		<path fill="#FFFFFF" d="M78.3484497,62.1779785c-0.605957,0.4550171-1.367981,0.6830139-2.2869873,0.6830139
			c-0.6480103,0-1.2089844-0.1040039-1.684021-0.3120117c-0.4749756-0.2080078-0.875-0.4989929-1.197998-0.8729858
			c-0.3239746-0.3739929-0.5669556-0.8210144-0.7290039-1.3399963c-0.1619873-0.5200195-0.2529907-1.0870056-0.2739868-1.7000122
			c0-0.6130066,0.0939941-1.1740112,0.2820435-1.6839905c0.1879883-0.5090027,0.4509888-0.9500122,0.7909546-1.3250122
			c0.3389893-0.3739929,0.7410278-0.6650085,1.2059937-0.8720093c0.4640503-0.2079773,0.973999-0.3119812,1.5270386-0.3119812
			c0.7199707,0,1.3179932,0.1489868,1.7940063,0.4459839c0.4749756,0.2969971,0.855957,0.6750183,1.1430054,1.1340027
			c0.2869873,0.4590149,0.4859619,0.960022,0.5959473,1.5020142c0.1090088,0.5429993,0.1530151,1.0589905,0.1330566,1.5489807
			h-6.052002c-0.0100098,0.3510132,0.0309448,0.684021,0.125,0.9990234
			c0.0939941,0.3150024,0.2449951,0.5939941,0.4529419,0.8379822c0.2090454,0.2420044,0.4750366,0.4360046,0.7970581,0.5800171
			c0.322998,0.144989,0.7039795,0.21698,1.1409912,0.21698c0.5629883,0,1.0239868-0.1289978,1.3829956-0.3869934
			c0.3599854-0.2579956,0.5969849-0.6499939,0.7119751-1.177002h1.31604
			C79.345459,61.0439758,78.9534912,61.7219849,78.3484497,62.1779785 M78.036499,57.0089722
			c-0.1200562-0.2819824-0.2820435-0.5249939-0.4850464-0.7279968c-0.2039795-0.2030029-0.4439697-0.3649902-0.7210083-0.4849854
			c-0.2769775-0.1199951-0.5819702-0.1799927-0.914978-0.1799927c-0.3460083,0-0.6560059,0.0599976-0.9320068,0.1799927
			c-0.2780151,0.1199951-0.5150146,0.2839966-0.7130127,0.4930115c-0.1989746,0.2079773-0.3549805,0.4509888-0.4699707,0.7279968
			c-0.1160278,0.276001-0.1829834,0.5709839-0.2039795,0.8829956h4.6519775
			C78.227478,57.5879822,78.1574707,57.2909851,78.036499,57.0089722"/>
		<path fill="#FFFFFF" d="M81.5964355,54.6297913v1.2790222h0.0379639c0.552002-0.9770203,1.4279785-1.4660034,2.6279907-1.4660034
			c0.5320435,0,0.9750366,0.072998,1.3300171,0.2189941c0.3540039,0.144989,0.6409912,0.3479919,0.8599854,0.6080017
			s0.3729858,0.5690002,0.4609985,0.928009c0.0889893,0.3589783,0.1340332,0.7569885,0.1340332,1.1929932v5.3049927h-1.3389893
			V57.237793c0-0.4989929-0.1450195-0.8939819-0.4380493-1.1849976c-0.2909546-0.2919922-0.6919556-0.4369812-1.2030029-0.4369812
			c-0.4069824,0-0.7589722,0.0619812-1.0559692,0.1869812s-0.5440063,0.302002-0.742981,0.5310059
			c-0.197998,0.2290039-0.3460083,0.4960022-0.4450073,0.803009s-0.1490479,0.6409912-0.1490479,1.0050049v4.5539856h-1.3369751
			v-8.0660095H81.5964355z"/>
		<path fill="#FFFFFF" d="M94.2300415,62.6896973l0.0050049-1.09198h-0.0469971
			c-0.2190552,0.446991-0.5630493,0.7689819-1.0310059,0.96698c-0.4689941,0.1970215-0.9850464,0.2960205-1.5469971,0.2960205
			c-0.6260376,0-1.1700439-0.1140137-1.6340332-0.3430176c-0.4639893-0.2279968-0.848999-0.5350037-1.1560059-0.9199829
			c-0.3070068-0.3840027-0.5390015-0.8310242-0.6950073-1.3410034c-0.1569824-0.5079956-0.2349854-1.0490112-0.2349854-1.6199951
			c0-0.5720215,0.0750122-1.11203,0.2269897-1.6220093c0.151001-0.5090027,0.3800049-0.9530029,0.6870117-1.3330078
			c0.3070068-0.3789978,0.6929932-0.6809998,1.1560059-0.9039917c0.4639893-0.2229919,1.0029907-0.3349915,1.6190186-0.3349915
			c0.2080078,0,0.4320068,0.0209961,0.6709595,0.0619812c0.2399902,0.0419922,0.4790039,0.1119995,0.7189941,0.2109985
			c0.2400513,0.098999,0.4660034,0.2290039,0.6800537,0.3890076c0.2139893,0.1610107,0.3929443,0.3609924,0.5390015,0.6000061
			h0.0419922v-4.1440125h1.3369751v11.1289978H94.2300415z M89.4380493,59.8306885
			c0.098999,0.3580017,0.2509766,0.678009,0.4539795,0.9580078c0.2039795,0.2810059,0.4649658,0.5039978,0.7839966,0.6700134
			c0.3179932,0.1659851,0.6920166,0.2489929,1.1199951,0.2489929c0.4489746,0,0.8300171-0.0880127,1.1430054-0.2649841
			c0.3129883-0.1760254,0.5689697-0.4070129,0.7680054-0.6930237c0.197998-0.2850037,0.3410034-0.6099854,0.4299927-0.973999
			c0.0889893-0.3630066,0.1329956-0.7319946,0.1329956-1.1059875c0-0.3950195-0.0460205-0.776001-0.1409912-1.1450195
			c-0.0939941-0.368988-0.242981-0.6929932-0.4459839-0.973999c-0.2040405-0.2799988-0.467041-0.5059814-0.7910156-0.6779785
			c-0.3240356-0.1710205-0.7150269-0.257019-1.1749878-0.257019c-0.4490356,0-0.8290405,0.0890198-1.1430054,0.2650146
			c-0.3129883,0.1759949-0.5640259,0.4110107-0.7520142,0.7009888c-0.1879883,0.2910156-0.322998,0.6239929-0.4069824,0.9970093
			c-0.0840454,0.375-0.125,0.7590027-0.125,1.1529846C89.2900391,59.1057129,89.3389893,59.4727173,89.4380493,59.8306885"/>
		<rect x="96.9891357" y="51.5612793" fill="#FFFFFF" width="1.3380127" height="11.1350098"/>
		<path fill="#FFFFFF" d="M102.7244263,64.7542725c-0.151001,0.2700195-0.3180542,0.4910278-0.5010376,0.6630249
			c-0.1820068,0.17099-0.3839722,0.2949829-0.6029663,0.3729858c-0.2200317,0.0780029-0.4790039,0.1170044-0.7820435,0.1170044
			c-0.157959,0-0.3139648-0.0109863-0.4699707-0.0310059c-0.1569824-0.0220032-0.309021-0.0579834-0.4540405-0.1099854v-1.2140198
			c0.125,0.0410156,0.2530518,0.0820007,0.3830566,0.125c0.1299438,0.0410156,0.2639771,0.0620117,0.3999634,0.0620117
			c0.2709961,0,0.4899902-0.0620117,0.6569824-0.1870117c0.1670532-0.125,0.3130493-0.3069763,0.4390259-0.5449829
			l0.5479736-1.355011l-3.2099609-8.0039978h1.5029907l2.3649902,6.5870056h0.0310059l2.2709961-6.5870056h1.4100342
			l-3.5240479,9.1100159C103.0303955,64.1522827,102.8753662,64.4842834,102.7244263,64.7542725"/>
		<polygon fill="#FFFFFF" points="113.074707,51.5610962 116.5986938,60.9181213 120.1376953,51.5610962 122.1746826,51.5610962 
			122.1746826,62.696106 120.7746582,62.696106 120.7746582,53.4331055 120.7426758,53.4331055 117.2506714,62.696106 
			115.982666,62.696106 112.4906616,53.4331055 112.4596558,53.4331055 112.4596558,62.696106 111.0396729,62.696106 
			111.0396729,51.5610962 		"/>
		<path fill="#FFFFFF" d="M129.9464722,62.8612061c-0.3460083,0-0.6220093-0.0970154-0.8239746-0.2890015
			c-0.2050171-0.1920166-0.3070068-0.506012-0.3070068-0.9429932c-0.3649902,0.4369812-0.7919922,0.7509766-1.2780151,0.9429932
			c-0.4869995,0.1919861-1.0119629,0.2890015-1.5759888,0.2890015c-0.3660278,0-0.7109985-0.0400085-1.0360107-0.1180115
			c-0.3239746-0.0769958-0.6079712-0.2070007-0.8540039-0.3890076c-0.2449951-0.1819763-0.4400024-0.414978-0.5800171-0.7009888
			c-0.1419678-0.2850037-0.2119751-0.631012-0.2119751-1.0360107c0-0.4570007,0.0780029-0.8309937,0.2349854-1.1219788
			c0.1570435-0.2900085,0.3630371-0.5270081,0.6199951-0.7080078c0.2560425-0.1820068,0.5500488-0.3200073,0.8790283-0.4129944
			c0.3289795-0.0939941,0.6660156-0.1719971,1.0109863-0.2350159c0.3660278-0.071991,0.7139893-0.1269836,1.0430298-0.1629944
			c0.3299561-0.0360107,0.6199951-0.0889893,0.8709717-0.1549988c0.2510376-0.0690002,0.4490356-0.1659851,0.5950317-0.29599
			c0.1469727-0.1300049,0.2199707-0.3200073,0.2199707-0.5700073c0-0.2900085-0.0549927-0.5239868-0.1640015-0.7000122
			c-0.1110229-0.177002-0.2509766-0.3119812-0.4229736-0.4049988c-0.1730347-0.0939941-0.3670044-0.1559753-0.5820313-0.1869812
			c-0.2130127-0.0320129-0.4259644-0.0469971-0.6339722-0.0469971c-0.56604,0-1.0369873,0.1059875-1.4130249,0.3190002
			c-0.3759766,0.2119751-0.5809937,0.6129761-0.6119995,1.2039795h-1.3369751
			c0.0199585-0.4989929,0.1259766-0.9199829,0.3129883-1.2619934c0.1889648-0.3439941,0.4400024-0.6220093,0.7539673-0.8339844
			c0.3140259-0.2130127,0.6760254-0.3660278,1.0830078-0.460022c0.40802-0.0939941,0.8380127-0.1409912,1.2880249-0.1409912
			c0.3649902,0,0.7299805,0.026001,1.0899658,0.07901c0.3610229,0.0509949,0.6890259,0.1579895,0.9810181,0.3190002
			c0.2930298,0.1609802,0.5280151,0.3869934,0.7080078,0.6779785c0.177002,0.2920227,0.2659912,0.6710205,0.2659912,1.1380005
			v4.1480103c0,0.3120117,0.0180054,0.5400085,0.0549927,0.6860046c0.0360107,0.144989,0.15802,0.2179871,0.368042,0.2179871
			c0.1149902,0,0.2509766-0.026001,0.4060059-0.0780029v1.0280151
			C130.6715088,62.7932129,130.3534546,62.8612061,129.9464722,62.8612061 M128.0775146,58.8021851
			c-0.2710571,0.0580139-0.5560303,0.1040039-0.8530273,0.1400146c-0.2969971,0.0369873-0.5969849,0.07901-0.8989868,0.125
			c-0.302002,0.0469971-0.5720215,0.1220093-0.8129883,0.2260132c-0.2390137,0.1039734-0.4349976,0.2519836-0.5870361,0.4440002
			c-0.1499634,0.1919861-0.2260132,0.4539795-0.2260132,0.7869873c0,0.2179871,0.0430298,0.4020081,0.132019,0.553009
			c0.0889893,0.1499939,0.2039795,0.2729797,0.3450317,0.3659973c0.1409912,0.0939941,0.3069458,0.1609802,0.5,0.2030029
			c0.1929932,0.0409851,0.3889771,0.0619812,0.5869751,0.0619812c0.4370117,0,0.8129883-0.0589905,1.1259766-0.1789856
			c0.3130493-0.1199951,0.5670166-0.2700195,0.7650146-0.4519958c0.197998-0.1820068,0.3450317-0.3789978,0.4390259-0.5920105
			s0.1399536-0.4129944,0.1399536-0.6000061v-1.3559875C128.5664673,58.6542053,128.3474731,58.7452087,128.0775146,58.8021851"/>
		<path fill="#FFFFFF" d="M132.9460449,54.6497803v1.6970215h0.0339966
			c0.3239746-0.6539917,0.7209473-1.1360168,1.1919556-1.4470215c0.4700317-0.3119812,1.0650024-0.4569702,1.7860107-0.4369812
			v1.3999939c-0.53302,0-0.9869995,0.072998-1.3629761,0.2180176c-0.3770142,0.144989-0.6790161,0.3579712-0.9089966,0.63797
			c-0.2290039,0.2810059-0.3959961,0.6210022-0.5,1.0200195c-0.1040039,0.3999939-0.15802,0.8590088-0.15802,1.3769836v3.5800171
			H131.69104v-8.0460205H132.9460449z"/>
		<polygon fill="#FFFFFF" points="138.055603,51.5610962 138.055603,58.1581116 141.7536011,54.6331177 143.5385742,54.6331177 
			140.3275757,57.5651245 143.772583,62.696106 142.081543,62.696106 139.3085938,58.4891052 138.055603,59.6421204 
			138.055603,62.696106 136.7175903,62.696106 136.7175903,51.5610962 		"/>
		<path fill="#FFFFFF" d="M149.5668945,62.1779785c-0.605957,0.4550171-1.3689575,0.6830139-2.2879639,0.6830139
			c-0.6480103,0-1.2090454-0.1040039-1.6830444-0.3120117c-0.4759521-0.2080078-0.8759766-0.4989929-1.1999512-0.8729858
			c-0.3220215-0.3739929-0.5650024-0.8210144-0.7270508-1.3399963c-0.1619873-0.5200195-0.2539673-1.0870056-0.2739868-1.7000122
			c0-0.6130066,0.0930176-1.1740112,0.2810059-1.6839905c0.1879883-0.5090027,0.4520264-0.9500122,0.7910156-1.3250122
			c0.3399658-0.3739929,0.7409668-0.6650085,1.2069702-0.8720093c0.4640503-0.2079773,0.973999-0.3119812,1.5270386-0.3119812
			c0.7199707,0,1.3179932,0.1489868,1.7929688,0.4459839c0.473999,0.2969971,0.8569946,0.6750183,1.144043,1.1340027
			c0.2869873,0.4590149,0.4839478,0.960022,0.5949707,1.5020142c0.1090088,0.5429993,0.1530151,1.0589905,0.1329956,1.5489807
			h-6.0509644c-0.0110474,0.3510132,0.0309448,0.684021,0.1239624,0.9990234
			c0.0939941,0.3150024,0.2460327,0.5939941,0.4539795,0.8379822c0.2090454,0.2420044,0.4740601,0.4360046,0.7970581,0.5800171
			c0.322998,0.144989,0.7029419,0.21698,1.1409912,0.21698c0.5619507,0,1.0239868-0.1289978,1.3829956-0.3869934
			c0.3599854-0.2579956,0.5960083-0.6499939,0.7109985-1.177002h1.315979
			C150.5639038,61.0439758,150.171936,61.7219849,149.5668945,62.1779785 M149.2549438,57.0089722
			c-0.1200562-0.2819824-0.28302-0.5249939-0.4860229-0.7279968c-0.2039795-0.2030029-0.4440308-0.3649902-0.7210083-0.4849854
			c-0.276001-0.1199951-0.5809937-0.1799927-0.914978-0.1799927c-0.3450317,0-0.6550293,0.0599976-0.9320068,0.1799927
			c-0.2770386,0.1199951-0.5140381,0.2839966-0.7130127,0.4930115c-0.1989746,0.2079773-0.3549805,0.4509888-0.4700317,0.7279968
			c-0.1149902,0.276001-0.1829834,0.5709839-0.2029419,0.8829956h4.651001
			C149.4448853,57.5879822,149.374939,57.2909851,149.2549438,57.0089722"/>
		<path fill="#FFFFFF" d="M155.0126343,54.6484985v1.1730042h-1.6050415v4.9869995
			c0,0.1549988,0.0120239,0.2799988,0.0380249,0.3730164c0.026001,0.0929871,0.0769653,0.1650085,0.1480103,0.21698
			c0.072998,0.052002,0.1759644,0.0860291,0.3049927,0.1010132c0.1300049,0.0159912,0.2990112,0.0230103,0.506958,0.0230103
			h0.6070557v1.1739807h-1.0180054c-0.3450317,0-0.6410522-0.0239868-0.8870239-0.0699768
			c-0.2449951-0.0469971-0.4440308-0.132019-0.5949707-0.257019c-0.1520386-0.1239929-0.2640381-0.3009949-0.3370361-0.5289917
			c-0.0739746-0.2269897-0.1099854-0.5289917-0.1099854-0.9020081l0.0039673-5.1170044h-1.3779907v-1.1730042h1.3779907v-2.4289856
			h1.3380127v2.4289856H155.0126343z"/>
		<path fill="#FFFFFF" d="M156.7908936,60.8873901c0.1259766,0.2030029,0.289978,0.3650208,0.4939575,0.4850159
			c0.2040405,0.1199951,0.4329834,0.2059937,0.6890259,0.2569885c0.2559814,0.053009,0.5199585,0.07901,0.7919922,0.07901
			c0.2089844,0,0.4279785-0.0159912,0.65802-0.0469971c0.2299805-0.0310059,0.440979-0.0880127,0.6339722-0.1719971
			c0.1940308-0.0820007,0.3530273-0.2050171,0.4790039-0.3659973c0.125-0.1610107,0.1870117-0.3659973,0.1870117-0.6150208
			c0-0.3439941-0.1290283-0.6039734-0.3900146-0.7799988c-0.2620239-0.177002-0.5869751-0.3199768-0.9780273-0.4289856
			c-0.3929443-0.1090088-0.8169556-0.2080078-1.276001-0.29599c-0.4599609-0.0880127-0.8839722-0.2130127-1.2749634-0.3740234
			c-0.3930054-0.1619873-0.7180176-0.3869934-0.9790039-0.6789856c-0.2609863-0.2910156-0.3909912-0.6960144-0.3909912-1.2149963
			c0-0.4060059,0.0910034-0.7539978,0.2739868-1.0450134c0.1820068-0.2909851,0.4180298-0.5270081,0.7050171-0.7099915
			c0.2869873-0.1809998,0.6090088-0.3160095,0.9699707-0.4049988c0.3599854-0.0880127,0.7180176-0.1329956,1.072998-0.1329956
			c0.4570313,0,0.8810425,0.039978,1.2670288,0.1170044c0.3859863,0.0789795,0.7279663,0.2139893,1.0249634,0.4069824
			s0.5350342,0.4530029,0.7120361,0.7810059c0.1779785,0.3280029,0.2819824,0.7369995,0.3129883,1.2269897h-1.3369751
			c-0.0209961-0.2599792-0.0890503-0.4759827-0.2040405-0.6479797c-0.1159668-0.1719971-0.2609863-0.309021-0.4389648-0.4130249
			c-0.177002-0.1049805-0.3720093-0.1809998-0.5870361-0.2269897c-0.2139893-0.0469971-0.4299927-0.0709839-0.6499634-0.0709839
			c-0.197998,0-0.3990479,0.0159912-0.6040039,0.0469971c-0.2020264,0.0319824-0.3880005,0.0859985-0.5549927,0.1640015
			c-0.1670532,0.0780029-0.302002,0.1819763-0.4070435,0.3119812c-0.1040039,0.1300049-0.1569824,0.2980042-0.1569824,0.506012
			c0,0.2279968,0.0809937,0.4179993,0.242981,0.5679932c0.1610107,0.151001,0.3690186,0.276001,0.618042,0.3739929
			c0.2509766,0.098999,0.5319824,0.1820068,0.8449707,0.25c0.3120117,0.0670166,0.6270142,0.1370239,0.9390259,0.210022
			c0.3339844,0.072998,0.6599731,0.1609802,0.9779663,0.2649841c0.3190308,0.1040039,0.6010132,0.2409973,0.8450317,0.4129944
			c0.2459717,0.1719971,0.4439697,0.3870239,0.5960083,0.6459961c0.1499634,0.2600098,0.2259521,0.5820007,0.2259521,0.9660034
			c0,0.4890137-0.1019897,0.8940125-0.3049927,1.2160034c-0.2039795,0.3220215-0.4699707,0.5820007-0.7990112,0.7780151
			c-0.3289795,0.197998-0.6989746,0.3359985-1.1109619,0.4129944c-0.4130249,0.0780029-0.8220215,0.1170044-1.2300415,0.1170044
			c-0.4489746,0-0.8769531-0.0469971-1.282959-0.1400146c-0.4089966-0.0939941-0.7680054-0.2469788-1.0809937-0.4599915
			c-0.3140259-0.2139893-0.5650024-0.4960022-0.7529907-0.8439941c-0.1880493-0.348999-0.2920532-0.7730103-0.3120117-1.2720032
			h1.3380127C156.5978394,60.4364014,156.6658936,60.6844177,156.7908936,60.8873901"/>
	</g>
	<path display="inline" fill="#FFFFFF" d="M83.565979,45.0780029c-2.8450317-0.7960205-3.9180298-1.1400146-4.1090088-1.6880188
		c-0.15802-0.3450012-0.2160034-0.6219788-0.2160034-0.8760071c-0.0299683-0.8209839,0.7520142-1.6749878,1.6710205-3.3589783
		c5.4939575-9.7480164,12.3900146-21.9869995,15.6939697-27.5750122l0.0220337-0.0360107l0.0109863-0.0359802
		c0.0579834-0.1820068,0.2369995-0.447998,0.4130249-0.6419983c0.0889893-0.0970154,0.1769409-0.1799927,0.2379761-0.2290039
		c0.0100098-0.0069885,0.0189819-0.0140076,0.0280151-0.019989c3.2879639,0.2139893,5.4660034,0.4859924,8.4049683,0.4859924
		c0.684021,0,1.4060059-0.0140076,2.1950073-0.0469971c3.3070068-0.1440125,6.6140137-1.7230225,9.117981-3.4690247
		c1.2520142-0.875,2.3010254-1.7939758,3.0480347-2.6129761c0.7409668-0.8359985,1.2130127-1.5050049,1.2390137-2.151001
		c0.0199585-0.3009949-0.1990356-0.6450195-0.5060425-0.7470093c-0.0809937-0.0409851-0.177002-0.0629883-0.256958-0.0620117
		c-0.3990479,0.0370178-0.5450439,0.2369995-0.8640137,0.4500122c-0.8989868,0.6560059-2.7449951,1.9930115-7.5549927,2.25
		c-0.1600342,0.0069885-0.3300171,0.0109863-0.5130005,0.0109863c-4.4400024,0.0050049-15.5870361-2.3409729-19.8170166-3.0929871
		C84.1729736,0.2799988,80.4389648,0,77.7349854,0c-1.2609863,0-2.2919922,0.0619812-3.3800049,0.1009827
		c-6.2900391,0.1880188-11.59198,2.5160217-15.098999,4.8510132c-3.7680054,2.5239868-6.44104,5.4869995-7.0780029,8.3079834
		c-0.0770264,0.3480225-0.4140015,1.4500122-0.4130249,2.8789978c-0.0009766,1.6150208,0.4280396,3.6920166,2.0889893,5.6940002
		c2.394043,2.8840027,6.098999,4.1540222,9.6160278,4.1549988c4.973999-0.0079956,9.7670288-2.5689697,9.7990112-7.0899963
		c0-0.2070007-0.0109863-0.414978-0.0319824-0.6279907c-0.375-3.6679993-3.9210205-5.3580017-7.0040283-5.3500061
		c-1.4370117,0.0020142-2.809021,0.355011-3.7999878,1.0939941c-1.3099976,0.980011-2.0540161,2.2550049-2.0560303,3.5559998
		c-0.0019531,1.4810181,0.9840088,2.8860168,2.894043,3.7790222c0.0229492,0.0589905,0.0309448,0.1130066,0.0319824,0.1690063
		c0.0009766,0.2209778-0.1589966,0.4489746-0.25,0.5769958v-0.0010071
		c-0.0549927,0.0700073-0.5570068,0.2229919-1.2030029,0.2109985c-1.5230103,0.0050049-3.9240112-0.6000061-5.2910156-2.2019958
		c-1.0189819-1.1849976-1.4110107-2.4250183-1.4129639-3.6620178c-0.0100098-2.5059814,1.6889648-5.0239868,3.3249512-6.4539795
		c2.4720459-2.2360229,5.8320313-3.0190125,9.5400391-3.0190125c1.5130005-0.0010071,3.0780029,0.131012,4.6560059,0.3430176
		c3.9400024,0.473999,9.1749878,1.2949829,12.5549927,1.9579773c-0.3079834,0.7680054-1.4030151,2.8690186-2.8710327,5.5100098
		c-2.5219727,4.5539856-6.1959839,10.9119873-9.2389526,16.1289978c-3.0420532,5.2189941-5.4490356,9.2869873-5.4540405,9.29599
		c-1.2550049,1.9460144-3.8179932,3.9570007-5.6149902,4.3500061c0.0159912-0.0039978-0.7650146,0.1340027-1.5819702,0.3049927
		c-0.40802,0.085022-0.8270264,0.178009-1.1650391,0.2670288c-0.3590088,0.1099854-0.5559692,0.1259766-0.8009644,0.321991
		c-0.1600342,0.1999817-0.6890259,0.4239807-0.8240356,1.0229797c-0.0130005,0.0890198-0.0169678,0.177002-0.0169678,0.257019
		c-0.0110474,0.3450012,0.131958,0.6849976,0.3979492,0.848999c0.257019,0.1619873,0.5130005,0.178009,0.7610474,0.2030029
		c0.0419922,0.0010071,7.2179565-0.0010071,10.6499634-0.0010071c0.0060425,0,0.007019,0,0.0090332,0h0.0059814
		c0.0020142,0,0.0029907,0,0.0050049,0.0010071c0.0050049,0,0.0159912,0.0010071,0.0300293,0.0010071h0.0429688
		c0.125,0.0009766,0.3969727,0.0009766,0.7940063,0.0009766h1.3070068h12.2929688h0.0460205l0.0469971-0.0119934
		c0.7340088-0.1730042,1.2130127-0.6940002,1.2109985-1.2890015C85.2469482,45.7359924,84.5579834,45.1389771,83.565979,45.0780029
		 M194.9749756,49.2850037c-0.9320068,0-1.6849976,0.7549744-1.6849976,1.6849976
		c0,0.9299927,0.7529907,1.6839905,1.6849976,1.6839905c0.9299927,0,1.6829834-0.7539978,1.6829834-1.6839905
		C196.657959,50.039978,195.9049683,49.2850037,194.9749756,49.2850037 M194.9749756,52.2669983
		c-0.71698-0.0010071-1.2969971-0.5800171-1.2979736-1.2969971c0.0009766-0.7160034,0.5809937-1.2960205,1.2979736-1.2960205
		c0.7150269,0,1.2930298,0.5800171,1.2940063,1.2960205C196.2680054,51.6869812,195.6900024,52.2659912,194.9749756,52.2669983
		 M195.6219482,51.6849976c-0.0009766-0.0859985-0.0079956-0.3089905-0.0169678-0.3779907
		c-0.0180054-0.1540222-0.1300049-0.1950073-0.1879883-0.2360229c0.1140137-0.065979,0.1879883-0.1199951,0.230957-0.2659912
		c0.0410156-0.1470032,0.0060425-0.2680054-0.0159912-0.3420105c-0.0499878-0.1829834-0.2210083-0.2619934-0.3909912-0.2689819
		h-0.9400024v1.6929932h0.3480225v-0.6690063h0.40802c0.1209717,0,0.2049561,0.0559998,0.2099609,0.1700134
		c-0.0050049,0.1229858-0.0050049,0.2579956,0,0.3410034c0.0029907,0.0559998,0.0180054,0.1069946,0.0460205,0.1579895h0.3739624
		v-0.0629883C195.6499634,51.8009949,195.6219482,51.7810059,195.6219482,51.6849976 M195.1239624,50.9279785h-0.4749756v-0.4429932
		h0.4710083c0.1560059,0,0.2119751,0.0700073,0.2119751,0.1900024
		C195.3529663,50.84198,195.2059937,50.9279785,195.1239624,50.9279785 M128.9369507,26.3859863
		c0.0030518-2.7949829-1.1239624-4.6959839-2.3469849-6.3309937c-2.065979-2.7529907-6.1849976-4.1130066-11.0419922-4.1170044
		c-0.1820068,0-0.367981,0.0010071-0.5510254,0.0050049c-6.0699463,0.1080017-12.7069702,2.9110107-17.9259644,9.3059998
		c-3.3859863,4.1489868-5.4320068,8.9129944-5.4360352,13.1399841c-0.006958,3.4950256,1.434021,6.6400146,4.6740112,8.6200256
		c2.3170166,1.42099,4.5350342,1.8859863,8.4540405,1.8859863h0.0529785c0.177002,0,0.3579712-0.0019836,0.5419922-0.0019836
		c8.0839844-0.0810242,15.8179932-4.6419983,19.7609863-11.4900208
		C127.9249878,32.5239868,128.9369507,29.0610046,128.9369507,26.3859863 M112.5059814,37.7599792
		c-2.0759888,3.2810059-5.1110229,8.3640137-8.8939819,8.3140259c-0.5550537,0-1.132019-0.1020203-1.7360229-0.3320007
		c-1.2479858-0.4900208-1.6660156-1.309021-1.6829834-2.5020142c-0.0130005-2.1260071,1.6199951-5.2449951,3.1820068-7.9169922
		c1.6669922-2.8520203,3.7259521-6.6170044,5.7729492-9.7929993c2.0290527-3.178009,4.1220093-5.7590027,5.5720215-6.2000122
		c0.6879883-0.2219849,1.4609985-0.3580017,2.2000122-0.3580017c1.7199707,0.0289917,3.1140137,0.6490173,3.2700195,2.5240173
		c0.0019531,0.039978,0.0039673,0.0829773,0.0039673,0.1279907
		C120.2329712,24.2179871,114.9949951,33.7940063,112.5059814,37.7599792 M202.177002,17.6170044
		c-0.1670532-0.1090088-0.3340454-0.125-0.4750366-0.1270142c-0.2199707,0.0020142-0.3900146,0.0499878-0.4810181,0.0799866
		c-1.5829468,0.4760132-2.7439575,0.651001-3.6899414,0.651001c-1.4240112,0-2.3870239-0.3929749-3.6850586-0.8059998
		c-3.3799438-1.0789795-5.492981-1.4419861-8.0419922-1.5479736c-0.1609497-0.007019-0.3249512-0.0090027-0.492981-0.0090027
		c-1.8599854,0.0019836-4.3449707,0.3849792-6.1660156,1.2389832c-3.8460083,1.8179932-6.6239624,5.5240173-6.6329956,9.1530151
		c0,0.6690063,0.0960083,1.3339844,0.3010254,1.9799805c1.1079712,3.5090027,3.7680054,5.2730103,6.302002,6.7630005
		c2.5490112,1.4970093,4.9550171,2.7520142,5.8349609,5.1180115c0.2850342,0.7590027,0.4070435,1.4670105,0.4089966,2.1229858
		c0.0270386,3.6800232-3.9699707,6.007019-4.9639893,6.5090027c-1.230957,0.7340088-3.9519653,1.5230103-6.8639526,1.5180054
		c-3.0430298-0.0010071-6.2800293-0.8399963-8.3910522-3.3529968c-0.59198-0.70401-0.8789673-1.5579834-0.8800049-2.4530029
		c0.0040283-2.5059814,2.2790527-5.3089905,6.6660156-5.3169861c0.934021,0,1.9620361,0.1289978,3.0859985,0.4190063
		c0.0430298,0.0529785,0.0790405,0.0969849,0.1010132,0.1319885c0.0339966,0.052002,0.026001,0.0579834,0.0310059,0.0589905
		c-0.0009766,0,0.0050049,0.0020142-0.0090332,0.0119934c-0.006958,0.0110168-0.0219727,0.0280151-0.0429688,0.0490112
		c-0.2819824-0.0369873-0.552002-0.0539856-0.8079834-0.0539856c-1.2220459-0.0010071-2.2000122,0.3919983-2.8649902,1.0299988
		c-0.6660156,0.6369934-1.0100098,1.5090027-1.0090332,2.4169922c0,0.5010071,0.1030273,1.0159912,0.3120117,1.5140076
		c0.7080078,1.6340027,2.789978,2.3849792,4.8209839,2.3919983c1.3220215-0.0010071,2.6480103-0.3220215,3.6290283-1.0299988
		c1.1789551-0.8590088,2.1499634-2.151001,2.1499634-3.7990112c0-0.803009-0.2319946-1.6759949-0.7589722-2.5969849
		c-1.4559937-2.5240173-4.5950317-3.4700012-7.7420044-3.4720154c-0.7990112,0-1.6019897,0.0610046-2.3829956,0.1759949
		c-4.7420044,0.6920166-8.1500244,4.1190186-8.1560059,8.0849915c0,0.9620056,0.2050171,1.9510193,0.6329956,2.927002
		c2.7030029,6.0039978,11.9959717,5.9100037,12.6970215,5.9349976c4.2329712,0,8.6739502-0.3199768,13.0039673-2.4829712
		c3.4810181-1.7340088,8.4949951-5.4790039,8.5209961-10.6360168c0.0020142-1.7640076-0.6049805-3.6690063-2.0499878-5.651001
		c-2.1279907-2.9240112-4.7539673-4.8389893-6.815979-6.4559937c-2.0820313-1.6170044-3.5130005-2.927002-3.493042-4.4850159
		c0-0.3969727,0.0859985-0.822998,0.2820435-1.2989807c0.526001-1.2440186,0.9559937-1.5450134,2.0489502-2.2200012
		c0.8130493-0.4940186,2.007019-0.7780151,3.2880249-0.7770081c1.375,0,2.8469849,0.3240051,4.0690308,1.0069885
		c2.197998,1.1980286,2.3439941,4.2530212,2.3349609,6.6300049v0.6849976l0.0460205,0.0770264
		c0.1719971,0.2709961,0.4429932,0.6279907,0.9320068,0.6459961c0.3930054-0.0030212,0.7290039-0.2799988,1.0039673-0.7680054
		l4.4850464-8.7380066c0.1229858-0.2709961,0.1849976-0.4840088,0.1859741-0.6879883
		C202.4619751,17.9539795,202.3469849,17.7250061,202.177002,17.6170044 M168.2189941,23.3089905
		c-0.0010376-0.8349915-0.1040039-1.5360107-0.2869873-2.0580139c-0.6210327-1.7289734-2.6080322-3.8190002-5.5710449-4.3069763
		c-1.1419678-0.1830139-3.5639648-0.2350159-4.7650146-0.2369995c-0.1139526,0-0.2179565,0-0.30896,0.0029907h-18.9360352
		c-0.0310059-0.0029907-0.0789795-0.006012-0.1309814-0.006012c-0.9940186-0.0339966-1.3569946,0.7440186-1.4119873,1.2640076
		l-0.0050049,0.026001v0.0339966c-0.0059814,0.4510193,0.3170166,0.7720032,0.6619873,0.928009
		c1.0140381,0.4670105,2.8890381,0.4179993,3.3959961,0.7879944c0.1630249,0.1080017,0.2739868,0.3059998,0.3040161,0.644989
		c0.0020142,0.0150146,0.0020142,0.0390015,0.0020142,0.0670166c0.0490112,1.2619934-2.6019897,5.2120056-5.4590454,10.5079956
		c-3.1619873,5.7330017-6.2599487,11.4389954-7.5549927,12.9570007c-1,1.1740112-2.1480103,1.42099-3.572998,1.730011
		c-0.756958,0.0699768-1.3299561,0.1900024-1.75,0.4309998c-0.4279785,0.2299805-0.6690063,0.6629944-0.6560059,1.1219788
		c0,0.0510254,0.0020142,0.1110229,0.0100098,0.178009l0.0050049,0.0469971l0.0209961,0.0469971
		c0.3380127,0.6119995,0.9940186,0.553009,1.7949829,0.5780029c0.1800537,0,0.3660278-0.0039978,0.5650024-0.0029907
		c0.6500244,0.0180054,1.2210083,0.0249939,1.7870483,0.0249939c1.34198,0,2.6389771-0.0400085,4.9840088-0.0400085
		c0.6999512,0,1.4939575,0.0039978,2.4119873,0.0150146c1.3299561,0.0130005,2.4699707,0.0159912,3.4649658,0.0159912
		c1.9920044,0,3.4050293-0.0159912,4.5780029-0.0159912c0.8670044-0.0780029,1.3900146-0.4989929,1.3859863-1.0610046
		c-0.0039673-0.3850098-0.2139893-0.7070007-0.4789429-0.9549866l-0.0530396-0.0480042l-0.0700073-0.0220032
		c-2.1239624-0.6610107-2.4289551-0.4680176-3.157959-1.0220032c-0.1380005-0.1069946-0.2050171-0.25-0.210022-0.5270081
		c-0.0239868-1.117981,1.4829712-3.4169922,2.0310059-4.5069885c0.3259888-0.6719971,0.815979-1.5849915,1.0540161-1.9580078
		c0.0789795-0.1579895,0.4060059-0.243988,0.9140015-0.2369995c0.1989746,0,0.4159546,0.0069885,0.6339722,0.0069885
		c0.0999756,0,0.1970215-0.0029907,0.2919922-0.0039978c0.2160034-0.0109863,0.447998-0.0159912,0.6990356-0.0159912
		c1.2749634,0,3.032959,0.1090088,5.006958,0.1090088c4.2139893-0.0029907,9.44104-0.4930115,13.2120361-3.7310181
		C166.973999,30.7039795,168.2179565,26.196991,168.2189941,23.3089905 M158.2909546,24.42099l-0.3039551-0.1130066
		c-0.6960449,1.9160156-3.368042,6.3269958-3.822998,6.9219971c-1.9820557,2.585022-3.06604,3.3340149-7.368042,3.3659973
		c-0.7539673,0-1.6029663-0.0279846-2.565979-0.0759888c-0.1199951-0.0650024-0.0750122-0.0509949-0.0870361-0.0759888
		c-0.0019531-0.0350037,0.0200195-0.1280212,0.085022-0.2510071c0.5709839-1.1140137,2.3460083-4.4559937,4.0529785-7.571991
		c0.8550415-1.559021,1.6920166-3.0620117,2.3540039-4.2030029c0.3320313-0.5690002,0.6190186-1.0480042,0.8400269-1.3959961
		c0.1090088-0.1730042,0.2039795-0.3140259,0.2769775-0.4130249c0.0350342-0.0489807,0.06604-0.0889893,0.0870361-0.1139832
		c0.0219727-0.026001,0.0249634-0.0230103,0.0219727-0.026001c0.5010376-0.3990173,0.8619995-0.8099976,1.0570068-0.7950134
		c0.059021-0.0069885,0.177002-0.0090027,0.3220215-0.0090027c0.4799805,0,1.2689819,0.0310059,1.8809814,0.0310059
		c0.1229858,0,0.2390137-0.0010071,0.3439941-0.0039978c0.1309814-0.0039978,0.2579956-0.0069885,0.3809814-0.0069885
		c0.8070068-0.0020142,1.5440063,0.1000061,2.0300293,0.3840027c0.4810181,0.2879944,0.7700195,0.6959839,0.78302,1.5499878
		c0,0.6419983-0.1940308,1.519989-0.6680298,2.678009L158.2909546,24.42099z"/>
	<g display="inline">
		<polygon fill="#FFFFFF" points="12.6459961,5.1809998 12.3619995,5.6779785 11.9869995,6.3329773 0,27.1229858 
			12.6389771,49.3429871 37.9599609,49.3429871 50.7009888,27.21698 37.9579468,5.1809998 		"/>
		<polygon fill="#C32033" points="37.0130005,47.6949768 13.6019897,47.6949768 1.9019775,27.1309814 13.4179688,7.1529846 
			13.6039429,6.8299866 37.0130005,6.8299866 48.8029785,27.2189941 		"/>
		<polygon fill="#FFFFFF" points="14.5429688,8.4539795 3.7729492,27.1369934 14.4819946,45.9579773 25.3099976,27.3059998 
			14.5819702,8.4539795 		"/>
	</g>
</g>
<g>
</g>
<g>
</g>
<g>
</g>
<g>
</g>
<g>
</g>
<g>
</g>
</svg>
