<svg xmlns="http://www.w3.org/2000/svg" viewBox="0 0 286.08 17.52"><g id="レイヤー_2" data-name="レイヤー 2"><g id="レイヤー_2-2" data-name="レイヤー 2"><polygon points="163.65 7.25 163.38 10.27 176.07 10.27 176.34 7.25 163.65 7.25"/><path d="M140.35,14.5a3.52,3.52,0,0,1-3.27-4.05L138,0h-3.63l-.91,10.45a6.46,6.46,0,0,0,6.63,7.07h.3l.27-3Z"/><path d="M127.41,10.45a4.34,4.34,0,0,1-4,4.05h-.3l-.26,3h.3A8,8,0,0,0,131,10.45L132,0h-3.62Z"/><path d="M118.07,10.15l0,.3a4.72,4.72,0,0,1-2.12,3.49L117.15,0h-3.63L112,17.52h1.81a8,8,0,0,0,7.87-7.07l0-.3Z"/><path d="M106.57,10.45a4.36,4.36,0,0,1-4,4.05h-.31l-.26,3h.3a8,8,0,0,0,7.87-7.07L111.11,0h-3.63Z"/><path d="M191.8,10.15l0,.3a4.66,4.66,0,0,1-2.12,3.49L190.87,0h-3.62l-1.54,17.52h1.82a8,8,0,0,0,7.87-7.07l0-.3Z"/><path d="M180.29,10.45a4.35,4.35,0,0,1-4,4.05H176l-.27,3h.3a8,8,0,0,0,7.87-7.07L184.83,0H181.2Z"/><path d="M227.37,4.11l0,.3a4.35,4.35,0,0,1-4,4.05h-6.65l-.26,3h5.13l-.53,6h3.63l.56-6.35A7.94,7.94,0,0,0,231,4.41l0-.3Z"/><polygon points="155.31 2.42 155.52 0 151.9 0 151.69 2.42 144.74 2.42 144.47 5.44 151.42 5.44 150.36 17.52 153.99 17.52 155.05 5.44 162 5.44 162.26 2.42 155.31 2.42"/><path d="M159.27,12.39l.45-5.14H156.1l-.45,5.14a4.77,4.77,0,0,0,5,5.13h.3l.26-3h-.3A1.81,1.81,0,0,1,159.27,12.39Z"/><path d="M146,12.39a2.24,2.24,0,0,1-2,2.11h-.3l-.27,3h.31a5.89,5.89,0,0,0,5.88-5.13l.45-5.14h-3.62Z"/><polygon points="212.32 0 199.63 0 199.37 3.02 212.06 3.02 212.32 0"/><path d="M197.33,9.06h8.46l-.12,1.39a4.35,4.35,0,0,1-4,4.05h-3.32l-.27,3h3.32a8,8,0,0,0,7.87-7.07l.13-1.39h5.43l.27-3H197.59Z"/><polygon points="215.35 0 213.23 0 212.97 3.02 215.08 3.02 215.35 0"/><polygon points="215.95 0 215.69 3.02 217.8 3.02 218.06 0 215.95 0"/><polygon points="80.88 7.07 81.06 5.04 77.21 5.04 77.65 0 75.19 0 74.75 5.04 70.91 5.04 70.73 7.07 74.58 7.07 73.84 15.49 70 15.49 69.82 17.52 79.96 17.52 80.14 15.49 76.3 15.49 77.03 7.07 80.88 7.07"/><path d="M71,9.77l-2.1-1a8.29,8.29,0,0,0,1.77-4.07l.17-1.88h-2L69.05,0H66.59l-.25,2.81H63.73l-.18,2h4.61a7.24,7.24,0,0,1-1.67,3.32,4.64,4.64,0,0,1-3.25,1.94h-.15l-.18,2h.16a5.81,5.81,0,0,0,2.51-.6l-.53,6h2.46l.59-6.7,2.65,1.28Z"/><path d="M18.36,4.84l.18-2H14.69L14.94,0H12.48l-.25,2.81h-.71a3.56,3.56,0,0,0,.06-.44L11.79,0H9.33L9.12,2.37A3.47,3.47,0,0,1,7.9,4.86L8,3.32H6L6.33,0H3.87L3.58,3.32H1l-.18,2H3.32a21.78,21.78,0,0,1-2.94,5l0,0-.35,4L.31,14C1,13.21,2,12,2.94,10.63l-.6,6.89H4.8l.6-6.89c.72,1.34,1.48,2.54,2,3.34l-.24,2.79.28-.24C9.09,15.11,10.34,14,11.34,13L11,17.52h2.46L13.8,13c.84,1,1.89,2.12,3.28,3.53l.24.24.27-3.09-.05-.05a20,20,0,0,1-3.42-4.31l0-.15H18l.18-2H14.31l.2-2.29ZM7.25,5.35,7.1,7.07h.15a4.18,4.18,0,0,0,3.54-2.23h1.27l-.2,2.29H8l-.18,2h3.85l0,.15a23.68,23.68,0,0,1-3.89,4.06l.27-3,0,0A17.27,17.27,0,0,1,6,5.35Z"/><polygon points="27.37 9.04 30.59 9.04 30.77 7.01 21.55 7.01 21.37 9.04 24.91 9.04 24.46 14.19 20.88 14.69 20.7 16.74 30.52 15.38 30.66 15.36 30.84 13.3 26.95 13.84 27.37 9.04"/><path d="M35.94,14.77a4.32,4.32,0,0,1-1.66-3.92l.52-6h4.46l.18-2H35L35.23,0H32.77l-.25,2.83H21.92l-.18,2h10.6l-.52,6A6.06,6.06,0,0,0,38,17.52h.15l.4-4.48H36.09Z"/><polygon points="36.3 0 36.13 2.03 39.51 2.03 39.69 0 36.3 0"/><path d="M59.66,10.64l.18-2H42.32l-.18,2H48a7.1,7.1,0,0,1-1.8,2.68A5.21,5.21,0,0,1,43.36,15h-.15l-.18,2,12.25-.51.36,1h2.62l-2.19-6H53.44l1.1,3-6.78.28a8.87,8.87,0,0,0,2.73-4.19Z"/><path d="M46.87,5.78l-.15,1.66h8.92l.14-1.66a8.61,8.61,0,0,0,4,1.17H60l.18-2H60c-3,0-6.87-4-7-4.83h0l-.15,0V0H50.75V.12l-.14,0h0c-.24.79-4.79,4.83-7.81,4.83h-.15l-.18,2h.15A9.87,9.87,0,0,0,46.87,5.78ZM49.45,4.2a21.43,21.43,0,0,0,2.18-1.86A15.44,15.44,0,0,0,53.48,4.2a15.65,15.65,0,0,0,1.67,1.21H47.56A20.53,20.53,0,0,0,49.45,4.2Z"/><polygon points="241.63 0 233.78 0 233.51 3.02 241.37 3.02 241.63 0"/><path d="M245.86,0l-.68,7.8a7.28,7.28,0,0,1-6.93,6.7h-5.74l-.27,3H238A11,11,0,0,0,248.81,7.8l.68-7.8Z"/><polygon points="95.7 0 92.07 0 91.28 9.06 94.91 9.06 95.7 0"/><polygon points="89.66 0 86.03 0 85.24 9.06 88.86 9.06 89.66 0"/><path d="M98.11,0l-.68,7.8a7.28,7.28,0,0,1-6.93,6.7H84.76l-.26,3h5.74A11,11,0,0,0,101.06,7.8l.68-7.8Z"/><path d="M283.08,11.18a13.57,13.57,0,0,0,2.24-6.28l.43-4.9h-13.6l-.27,3h10l-.17,1.88c-.46,5.29-4.91,9.6-9.9,9.6h-2.42l-.26,3h2.41a13.75,13.75,0,0,0,9.39-3.79,3.85,3.85,0,0,1,1.52,3.49l0,.3H286l0-.3A6.36,6.36,0,0,0,283.08,11.18Z"/><polygon points="268.83 0 268.56 3.02 270.68 3.02 270.94 0 268.83 0"/><path d="M266.11,0l-.22,2.42h-6.78A7.4,7.4,0,0,0,259.37,1l.09-1h-3.63l-.09,1a4.35,4.35,0,0,1-4,4.05h-.3l-.26,3h.3a8,8,0,0,0,5.89-2.66h6.73l-.21,2.36A7.28,7.28,0,0,1,257,14.5h-3.93l-.26,3h3.93A11,11,0,0,0,267.54,7.8l.68-7.8Z"/></g></g></svg>