<?xml version="1.0" encoding="utf-8"?>
<!-- Generator: Adobe Illustrator 23.1.1, SVG Export Plug-In . SVG Version: 6.00 Build 0)  -->
<svg version="1.1" id="logo_tp_1_" xmlns="http://www.w3.org/2000/svg" xmlns:xlink="http://www.w3.org/1999/xlink" x="0px" y="0px"
	 viewBox="0 0 3885.63 939.4" style="enable-background:new 0 0 3885.63 939.4;" xml:space="preserve">
<style type="text/css">
	.st0{fill-rule:evenodd;clip-rule:evenodd;fill:#050505;}
	.st1{fill:#FFFFFF;}
</style>
<g id="Shape_1">
	<g>
		<rect class="st0" width="3885.63" height="939.4"/>
	</g>
</g>
<g id="TUDUNG">
</g>
<g id="PEOPLE">
	<g>
		<path class="st1" d="M892.98,364.84c-2,0-10.37-0.06-25.1-0.19c-14.71-0.12-36.99-0.19-66.83-0.19
			c-0.25,25.62-0.45,45.06-0.55,58.3c-0.14,13.24-0.19,31.3-0.19,54.16c0,21.99,0.1,44.32,0.29,67.01
			c0.19,22.68,0.35,37.77,0.46,45.26h-30.88c0.24-7.49,0.48-22.8,0.66-45.93c0.16-23.11,0.27-45.7,0.27-67.83
			c0-21.74,0-39.02,0-51.83c0-12.79-0.18-32.51-0.56-59.12c-26.57-0.12-48.14-0.09-64.67,0.09c-16.54,0.18-25.63,0.29-27.24,0.29
			V339c12.85,0,28.49,0.05,46.9,0.17c18.41,0.14,38.02,0.19,58.86,0.19c30.21,0,55.44-0.06,75.73-0.19
			c20.27-0.12,31.24-0.17,32.86-0.17V364.84z"/>
		<path class="st1" d="M1078.89,339c0,23.38-0.12,42.71-0.37,57.98c-0.23,15.28-0.35,28.58-0.35,39.91
			c0,13.88,0.01,25.72,0.09,35.51c0.05,9.81,0.09,18.3,0.09,25.48c0,14.12-2.09,26.58-6.29,37.35
			c-4.2,10.77-10.56,20.17-19.08,28.21c-8.51,8.04-18.98,14.34-31.41,18.9c-12.41,4.57-26.77,6.85-43.08,6.85
			c-16.31,0-30.66-2.26-43.09-6.77c-12.41-4.49-22.93-10.84-31.57-18.98c-8.53-8.04-14.89-17.44-19.09-28.21
			c-4.2-10.76-6.29-23.23-6.29-37.35c0-7.18,0.04-15.67,0.09-25.48c0.07-9.79,0.1-21.63,0.1-35.51c0-11.32-0.13-24.63-0.38-39.91
			c-0.24-15.27-0.36-34.6-0.36-57.98h30.11c-0.12,3.04-0.27,13.42-0.45,31.13c-0.19,17.72-0.28,40.99-0.28,69.84
			c0,8.77,0.04,17.84,0.09,27.22c0.06,9.37,0.09,18.99,0.09,28.85c0,22.27,6.41,39.17,19.17,50.68
			c12.79,11.51,30.06,17.25,51.85,17.25c23.61,0,41.31-5.49,53.12-16.42c11.8-10.97,17.71-28.13,17.71-51.51
			c0-9.86,0.02-19.48,0.09-28.85c0.06-9.37,0.09-18.45,0.09-27.22c0-28.85-0.11-52.47-0.36-70.86c-0.24-18.37-0.36-28.43-0.36-30.12
			H1078.89z"/>
		<path class="st1" d="M1303.12,465.1c0,21.8-5.35,40.94-16.05,57.4c-10.69,16.46-24.57,29.7-41.64,39.76
			c-14.83,8.79-31.39,15.47-49.62,20.05c-18.24,4.57-38.74,6.87-61.49,6.87c-8.66,0-17.13-0.14-25.4-0.38
			c-8.29-0.27-12.88-0.37-13.74-0.37c0-0.62,0.16-14.9,0.47-42.81c0.31-27.92,0.46-54.38,0.46-79.39c0-13.26-0.03-30.28-0.1-51.09
			c-0.06-20.79-0.34-46.05-0.84-75.77c1.24,0,6.9-0.07,16.98-0.19c10.07-0.12,15.49-0.18,16.22-0.18c25.61,0,48.33,2.29,68.18,6.87
			c19.84,4.58,37.55,11.82,53.13,21.73c18.07,11.51,31.47,25.35,40.25,41.5C1298.72,425.27,1303.12,443.94,1303.12,465.1z
			 M1271.55,464.92c0-16.09-3.45-30.71-10.38-43.82c-6.92-13.13-17.86-24.4-32.82-33.81c-13.98-8.79-29.45-14.92-46.44-18.38
			c-17-3.46-32.43-5.2-46.27-5.2c-1.73,0-3.64,0-5.75,0c-2.09,0-3.39,0-3.88,0c-0.26,19.57-0.41,35.79-0.47,48.66
			c-0.07,12.88-0.08,23.16-0.08,30.83c0,5.45,0.02,18.18,0.08,38.17c0.07,20.01,0.17,47.72,0.28,83.12c1.73,0,3.31,0,4.74,0
			c1.41,0,2.99,0,4.72,0c16.08,0,32.21-1.89,48.39-5.66c16.2-3.8,29.86-9.01,41-15.71c14.08-8.42,25.43-19.08,34.01-32.02
			C1267.26,498.14,1271.55,482.75,1271.55,464.92z"/>
		<path class="st1" d="M1520.39,339c0,23.38-0.11,42.71-0.37,57.98c-0.25,15.28-0.36,28.58-0.36,39.91
			c0,13.88,0.03,25.72,0.09,35.51c0.05,9.81,0.09,18.3,0.09,25.48c0,14.12-2.1,26.58-6.3,37.35c-4.19,10.77-10.56,20.17-19.08,28.21
			c-8.51,8.04-18.98,14.34-31.4,18.9c-12.42,4.57-26.78,6.85-43.07,6.85c-16.32,0-30.67-2.26-43.09-6.77
			c-12.42-4.49-22.93-10.84-31.58-18.98c-8.51-8.04-14.87-17.44-19.08-28.21c-4.2-10.76-6.3-23.23-6.3-37.35
			c0-7.18,0.04-15.67,0.09-25.48c0.07-9.79,0.1-21.63,0.1-35.51c0-11.32-0.12-24.63-0.38-39.91c-0.24-15.27-0.36-34.6-0.36-57.98
			h30.13c-0.13,3.04-0.28,13.42-0.46,31.13c-0.18,17.72-0.28,40.99-0.28,69.84c0,8.77,0.04,17.84,0.11,27.22
			c0.06,9.37,0.09,18.99,0.09,28.85c0,22.27,6.39,39.17,19.16,50.68c12.78,11.51,30.07,17.25,51.85,17.25
			c23.61,0,41.32-5.49,53.12-16.42c11.79-10.97,17.7-28.13,17.7-51.51c0-9.86,0.03-19.48,0.11-28.85
			c0.05-9.37,0.08-18.45,0.08-27.22c0-28.85-0.12-52.47-0.38-70.86c-0.23-18.37-0.36-28.43-0.36-30.12H1520.39z"/>
		<path class="st1" d="M1747.75,339c-0.27,19.46-0.5,41.73-0.68,66.77c-0.17,25.05-0.27,43.1-0.27,54.13
			c0,35.22,0.15,63.21,0.36,83.97c0.27,20.79,0.41,31.85,0.41,33.21l-24.76,12.1c-37.43-50.58-72.39-96.25-104.92-136.97
			c-32.58-40.73-51.37-64.25-56.46-70.58l-0.35,0.19c0,33.23,0.22,74.06,0.62,122.47c0.44,48.43,0.75,76.34,0.84,83.78h-28.99
			c0.13-3.09,0.32-14.15,0.57-33.11c0.24-18.98,0.37-45.4,0.37-79.24c0-13.52-0.08-31.46-0.19-53.85
			c-0.13-22.38-0.37-46.09-0.75-71.14l28.3-13.4c2.2,2.86,21.18,26.96,56.98,72.31c35.74,45.35,69.43,87.5,101.03,126.39l0.36-0.18
			c0-19.08-0.23-51.2-0.71-96.37c-0.54-45.17-0.75-78.66-0.75-100.46H1747.75z"/>
		<path class="st1" d="M1960.59,460.79c-0.27,8.8-0.5,19.11-0.75,30.9c-0.24,11.81-0.37,21.56-0.37,29.25
			c0,12.37,0.13,26.14,0.37,41.36c0.25,15.23,0.37,23.7,0.37,25.41c-1.11,0.11-4.76,0.4-11.01,0.83
			c-6.23,0.42-12.28,0.63-18.16,0.63c-29.1,0-54.81-3.1-77.08-9.35c-22.34-6.23-41.66-17.11-58.05-32.65
			c-10.13-9.54-18.3-21.37-24.47-35.49c-6.16-14.11-9.25-30.23-9.25-48.33c0-22.25,5.9-42.15,17.69-59.69
			c11.81-17.55,28.02-31.71,48.7-42.47c14.03-7.33,30.03-12.86,47.94-16.59c17.92-3.73,36.59-5.59,56.03-5.59
			c3.04,0,5.87,0.04,8.5,0.09c2.63,0.07,4.98,0.1,7.07,0.1l2.2,26.41c-0.5,0-2.47-0.03-5.88-0.08c-3.43-0.07-6.19-0.1-8.28-0.1
			c-18.72,0-35.84,1.6-51.38,4.77c-15.57,3.17-29.14,7.84-40.76,13.95c-15.78,8.33-28.2,19.65-37.18,33.97
			c-8.99,14.32-13.49,29.56-13.49,45.71c0,20.44,4.68,37.35,14.03,50.75c9.38,13.41,21.47,23.9,36.28,31.5
			c13.21,6.73,27.2,11.47,41.94,14.24c14.75,2.74,29.96,4.11,45.64,4.11c0-1.95-0.06-11.46-0.2-28.55
			c-0.12-17.11-0.36-42.12-0.74-75.08H1960.59z"/>
	</g>
	<g>
		<path class="st1" d="M2153.73,469.53c11.53-14.41,17.12-30.06,17.12-47.84c0-14.88-2.91-28.02-8.67-39.02
			c-5.7-10.88-14.09-19.84-24.95-26.65c-10.17-6.51-22.94-11.18-38-13.91c-15.69-2.84-35.01-4.28-57.41-4.28h-13.5
			c-2.89,0-5.82,0.02-8.77,0.06c0.34,22.51,0.56,43.16,0.68,61.93c0.13,20.96,0.19,38.65,0.19,53.07c0,45.39-0.12,78.95-0.39,100.65
			l-0.51,36.43h16.87l-0.39-84.64h8.03c12.8,0,24.59-0.52,35.05-1.55c10.19-1,19.73-2.69,28.43-4.98
			C2127.03,493.59,2142.14,484,2153.73,469.53z M2051.84,495.89h-15.97l-0.11-30.95c-0.08-13.48-0.11-25.17-0.11-35.05
			c0-10.84,0.14-25.54,0.4-44.13c0.27-18.47,0.39-28.44,0.39-29.9v-7.99h15.4c10.02,0,19.97,0.44,29.54,1.33
			c10.16,0.96,19.72,3.35,28.44,7.13c14.35,6.22,25.24,14.94,32.32,25.9c7.1,10.96,10.7,24.23,10.7,39.46
			c0,15.86-3.8,29.37-11.34,40.17c-7.42,10.68-18.24,19.09-32.13,25c-7.8,3.46-17.29,5.89-28.09,7.18
			C2070.91,495.27,2061.02,495.89,2051.84,495.89z"/>
		<path class="st1" d="M2332.45,589.37c7.97,0.06,14.17,0.12,18.56,0.14V577.8c-3.67,0.02-8.54,0.08-14.62,0.15
			c-13.56,0.13-30.32,0.18-50.2,0.18c-12.96,0-25.04-0.02-36.27-0.1c-11.21-0.06-20.78-0.16-28.67-0.29l-7.76-0.13l-0.5-45.02
			c-0.12-14.82-0.2-34.84-0.2-60.08v-8l53.19-0.19c17.34,0,36.51,0.1,57.49,0.3l3.43,0.03c9.43,0.1,16.59,0.15,21.51,0.21v-11.51
			c-4.92,0.05-12.05,0.12-21.43,0.23c-18.5,0.2-39.48,0.3-63,0.3l-51.19-0.2v-7.99c0-13.38,0.15-27.61,0.42-42.67
			c0.24-14.95,0.39-29.94,0.39-44.97v-7.99l60.18-0.21c22.96,0,42.2,0.11,57.61,0.31c7.22,0.1,12.89,0.17,17.02,0.21V338.7
			c-4.28,0.03-10.28,0.08-17.96,0.14c-16.02,0.14-36.77,0.2-62.27,0.2c-15.08,0-29.75-0.06-43.97-0.2
			c-10.39-0.1-19.48-0.17-27.32-0.19c0.32,23.69,0.56,46.69,0.68,68.98c0.13,24.84,0.19,44.79,0.19,59.87
			c0,27.5-0.11,54.13-0.3,79.9c-0.14,18.88-0.31,32.91-0.49,42.15c7.96-0.02,17.11-0.08,27.42-0.18c14.1-0.13,29.62-0.19,46.6-0.19
			C2295.41,589.18,2315.9,589.24,2332.45,589.37z"/>
		<path class="st1" d="M2600.67,520.59c6.96-17.04,10.5-36.04,10.5-56.49c0-19.34-3.23-37.82-9.6-54.93
			c-6.33-16.95-15.71-31.86-27.89-44.32c-10.41-10.66-22.91-19.12-37.18-25.13c-14.26-6.02-30.03-9.08-46.85-9.08
			c-16.57,0-32.52,3.25-47.42,9.67c-14.88,6.39-27.88,15.53-38.65,27.18c-11.77,12.68-20.69,27.09-26.56,42.87
			c-5.89,15.89-8.88,33.85-8.88,53.35c0,21.89,3.79,41.81,11.24,59.17c7.44,17.38,17.32,31.92,29.42,43.25
			c10.95,10.49,23.37,18.43,36.96,23.68c27.59,10.67,61.16,10.57,88.48-0.35c13.69-5.5,26.93-14.5,39.34-26.78
			C2584.59,551.75,2593.7,537.59,2600.67,520.59z M2556.44,559.31c-9.11,8.8-19.4,15.62-30.58,20.31
			c-11.28,4.74-23.52,7.13-36.43,7.13c-12.86,0-25.18-2.48-36.56-7.35c-11.28-4.84-21.19-11.34-29.45-19.32
			c-11.82-11.21-21.11-25.16-27.61-41.4c-6.4-16.08-9.68-34.44-9.68-54.58c0-17.93,3.17-35.44,9.43-52.03
			c6.31-16.76,15.33-31.04,26.72-42.45c9.16-9.11,19.48-16.12,30.74-20.82c22.74-9.57,51.53-9.34,73.08-0.09
			c10.81,4.65,20.67,11.24,29.35,19.6c12.72,12.16,22.32,27.4,28.52,45.25c6.06,17.49,9.13,35.57,9.13,53.74
			c0,19.18-3.46,36.92-10.23,52.69C2576.09,535.75,2567.21,548.99,2556.44,559.31z"/>
		<path class="st1" d="M2779.98,469.53c11.52-14.41,17.13-30.06,17.13-47.84c0-14.88-2.92-28.02-8.68-39.02
			c-5.7-10.88-14.09-19.84-24.95-26.65c-10.2-6.51-22.94-11.18-38-13.91c-15.68-2.84-35.02-4.28-57.42-4.28h-13.49
			c-2.89,0-5.81,0.02-8.76,0.06c0.33,22.51,0.56,43.16,0.68,61.93c0.12,20.96,0.19,38.65,0.19,53.07c0,45.39-0.13,78.95-0.39,100.65
			l-0.5,36.43h16.87l-0.39-84.64h8.03c12.79,0,24.59-0.52,35.04-1.55c10.19-1,19.73-2.69,28.43-4.98
			C2753.27,493.59,2768.39,484,2779.98,469.53z M2678.09,495.89h-15.97l-0.11-30.95c-0.08-13.48-0.11-25.17-0.11-35.05
			c0-10.84,0.14-25.54,0.4-44.13c0.27-18.47,0.39-28.44,0.39-29.9v-7.99h15.4c10.03,0,19.97,0.44,29.54,1.33
			c10.15,0.96,19.72,3.35,28.44,7.13c14.35,6.22,25.24,14.94,32.32,25.9c7.1,10.96,10.7,24.23,10.7,39.46
			c0,15.86-3.81,29.37-11.34,40.17c-7.42,10.68-18.24,19.09-32.14,25c-7.79,3.46-17.28,5.89-28.08,7.18
			C2697.16,495.27,2687.26,495.89,2678.09,495.89z"/>
		<path class="st1" d="M2953.82,589.37c7.31,0.06,13.06,0.12,17.24,0.14v-11.9c-4.69,0.05-11.45,0.13-20.21,0.24
			c-17.71,0.18-38.49,0.28-62.39,0.28c-6.31,0-13.33-0.02-21.11-0.1l-27.71-0.08l-0.19-45.15c-0.14-23.44-0.21-52.72-0.21-87.8
			c0-14.41,0.06-32.88,0.21-55.42c0.11-19.09,0.27-36.26,0.49-51.53h-16.79l0.48,33.72c0.26,19.9,0.39,48.81,0.39,86.74
			c0,22.7-0.11,45.82-0.3,69.39c-0.17,20.8-0.37,41.36-0.62,61.66c8-0.02,17.18-0.08,27.54-0.18c14.1-0.13,28.96-0.19,44.58-0.19
			C2918.99,589.18,2938.53,589.24,2953.82,589.37z"/>
		<path class="st1" d="M3125.45,589.37c7.96,0.06,14.16,0.12,18.55,0.14V577.8c-3.67,0.02-8.53,0.08-14.62,0.15
			c-13.56,0.13-30.32,0.18-50.21,0.18c-12.96,0-25.04-0.02-36.26-0.1c-11.21-0.06-20.78-0.16-28.67-0.29l-7.75-0.13l-0.5-45.02
			c-0.13-14.82-0.21-34.84-0.21-60.08v-8l53.19-0.19c17.35,0,36.51,0.1,57.49,0.3l3.43,0.03c9.43,0.1,16.6,0.15,21.51,0.21v-11.51
			c-4.91,0.05-12.04,0.12-21.43,0.23c-18.5,0.2-39.48,0.3-62.99,0.3l-51.19-0.2v-7.99c0-13.38,0.14-27.61,0.41-42.67
			c0.25-14.95,0.41-29.94,0.41-44.97v-7.99l60.17-0.21c22.97,0,42.19,0.11,57.61,0.31c7.22,0.1,12.9,0.17,17.02,0.21V338.7
			c-4.27,0.03-10.28,0.08-17.94,0.14c-16.03,0.14-36.79,0.2-62.27,0.2c-15.09,0-29.75-0.06-43.99-0.2
			c-10.37-0.1-19.47-0.17-27.31-0.19c0.33,23.69,0.57,46.69,0.68,68.98c0.13,24.84,0.19,44.79,0.19,59.87
			c0,27.5-0.1,54.13-0.29,79.9c-0.14,18.88-0.32,32.91-0.49,42.15c7.96-0.02,17.11-0.08,27.4-0.18c14.1-0.13,29.62-0.19,46.6-0.19
			C3088.39,589.18,3108.88,589.24,3125.45,589.37z"/>
	</g>
</g>
</svg>
