<?xml version="1.0" encoding="UTF-8" standalone="no"?>
<!-- Created with Inkscape (http://www.inkscape.org/) -->

<svg
   xmlns:dc="http://purl.org/dc/elements/1.1/"
   xmlns:cc="http://creativecommons.org/ns#"
   xmlns:rdf="http://www.w3.org/1999/02/22-rdf-syntax-ns#"
   xmlns:svg="http://www.w3.org/2000/svg"
   xmlns="http://www.w3.org/2000/svg"
   xmlns:sodipodi="http://sodipodi.sourceforge.net/DTD/sodipodi-0.dtd"
   xmlns:inkscape="http://www.inkscape.org/namespaces/inkscape"
   width="224.07825mm"
   height="218.71107mm"
   viewBox="0 0 224.07825 218.71107"
   version="1.1"
   id="svg8"
   inkscape:version="0.92.2 (5c3e80d, 2017-08-06)"
   sodipodi:docname="u comm.svg">
  <defs
     id="defs2" />
  <sodipodi:namedview
     id="base"
     pagecolor="#ffffff"
     bordercolor="#666666"
     borderopacity="1.0"
     inkscape:pageopacity="0.0"
     inkscape:pageshadow="2"
     inkscape:zoom="0.65049565"
     inkscape:cx="423.45496"
     inkscape:cy="413.53082"
     inkscape:document-units="mm"
     inkscape:current-layer="layer1"
     showgrid="false"
     fit-margin-top="0"
     fit-margin-left="0"
     fit-margin-right="0"
     fit-margin-bottom="0"
     inkscape:window-width="1366"
     inkscape:window-height="705"
     inkscape:window-x="-8"
     inkscape:window-y="-8"
     inkscape:window-maximized="1" />
  <metadata
     id="metadata5">
    <rdf:RDF>
      <cc:Work
         rdf:about="">
        <dc:format>image/svg+xml</dc:format>
        <dc:type
           rdf:resource="http://purl.org/dc/dcmitype/StillImage" />
        <dc:title></dc:title>
      </cc:Work>
    </rdf:RDF>
  </metadata>
  <g
     inkscape:label="Calque 1"
     inkscape:groupmode="layer"
     id="layer1"
     transform="translate(-111.22588,-158.34169)">
    <path
       style="fill:#007a91;fill-opacity:1;stroke-width:0.26458335"
       d="m 140.60072,376.6912 c -1.29605,-0.41317 -2.83468,-2.04872 -3.19854,-3.39997 -1.05121,-3.90393 1.75214,-6.57828 7.53253,-7.18595 2.67734,-0.28147 2.79728,-0.32076 2.79728,-0.91654 0,-2.39089 -2.86245,-3.08386 -6.27842,-1.51998 -0.81129,0.37142 -1.49831,0.64383 -1.5267,0.60536 -0.0284,-0.0385 -0.39721,-0.70239 -0.8196,-1.47534 l -0.76799,-1.40541 0.59985,-0.49276 c 1.13199,-0.92993 3.99599,-1.7044 6.27932,-1.69805 3.3701,0.01 5.44457,1.18745 6.53349,3.71028 0.20031,0.46408 0.38399,2.62477 0.46961,5.52466 l 0.14065,4.7625 1.1367,0.082 1.13668,0.0819 -0.0784,1.63785 -0.0784,1.63782 -1.98438,0.0834 c -2.63065,0.11063 -3.80817,-0.24765 -4.23995,-1.29005 l -0.33446,-0.80743 -0.82163,0.79518 c -1.5629,1.51252 -4.15107,2.01858 -6.49773,1.27047 z m 5.16303,-3.63347 c 0.95663,-0.59123 1.96824,-2.39686 1.96824,-3.51313 0,-0.67252 -0.0667,-0.70962 -1.25677,-0.69864 -2.80141,0.0259 -5.10527,1.49609 -4.72409,3.01483 0.42673,1.70024 2.29606,2.25784 4.01262,1.19694 z m 15.18947,3.38342 c -2.35373,-1.18907 -2.90248,-2.92709 -2.90248,-9.19279 v -4.20582 l -1.25677,-0.0806 -1.25677,-0.0806 -0.0788,-1.65364 -0.0788,-1.65365 h 3.57065 3.57069 l 0.0799,6.10878 0.08,6.10878 0.74237,0.63809 c 2.00123,1.72017 5.26311,-0.25352 5.98545,-3.62167 0.156,-0.72739 0.28364,-2.3287 0.28364,-3.55846 v -2.23594 h -1.32292 -1.32292 v -1.71979 -1.71979 h 3.56741 3.5674 l 0.0706,6.81302 0.0706,6.81302 0.99218,0.0821 0.99219,0.0821 v 1.70384 1.70381 h -2.20948 c -1.21521,0 -2.56802,-0.12499 -3.00622,-0.27776 -0.7628,-0.26591 -1.39888,-1.16777 -1.39888,-1.98335 0,-0.22807 -0.43397,0.037 -1.06802,0.65233 -1.94326,1.88587 -5.34585,2.45277 -7.67117,1.27805 z m 51.20481,0.35991 c -5.35,-1.44706 -7.96549,-6.73185 -6.06991,-12.26463 0.51051,-1.49005 2.43991,-3.72874 3.82066,-4.43315 1.62304,-0.82801 4.12007,-1.17564 5.85423,-0.81502 3.78769,0.78767 6.03938,3.82397 6.04917,8.15705 l 0.003,1.38907 h -5.82083 c -5.69145,0 -5.82084,0.0122 -5.82084,0.54231 0,1.43084 1.67974,3.21715 3.48142,3.70229 1.39195,0.37481 2.89454,0.12213 4.77642,-0.80319 l 1.51095,-0.74295 0.80415,1.42488 c 0.44228,0.7837 0.80415,1.53924 0.80415,1.67902 0,0.13978 -0.88575,0.69191 -1.96832,1.22695 -1.73426,0.85712 -2.24552,0.98346 -4.29948,1.06244 -1.28214,0.0493 -2.68835,-0.007 -3.12491,-0.12507 z m 4.89479,-11.43273 c 0,-0.58002 -0.26344,-1.08365 -0.89958,-1.71979 -0.78428,-0.78428 -1.06995,-0.89958 -2.22866,-0.89958 -1.04778,0 -1.50337,0.14666 -2.15263,0.69297 -0.80036,0.67347 -1.59829,1.90603 -1.59829,2.46888 0,0.17968 1.21444,0.27773 3.43958,0.27773 h 3.43958 z M 263.166,376.6526 c -4.00042,-1.25021 -6.16109,-4.26791 -6.16109,-8.60488 0,-4.75113 2.54778,-7.93557 7.00884,-8.76025 1.73953,-0.32158 3.20125,-0.14499 4.89741,0.59158 2.61419,1.13522 3.99172,3.36743 4.17938,6.77251 l 0.12031,2.18282 h -5.85401 c -4.50993,0 -5.85269,0.0759 -5.84819,0.33073 0.0124,0.71326 1.02362,2.51856 1.71526,3.0626 1.69143,1.33046 4.06033,1.3561 6.60707,0.0715 1.02301,-0.51602 1.53332,-0.65085 1.69511,-0.44789 0.35589,0.44649 1.35382,2.48696 1.35382,2.76821 0,0.42256 -2.24933,1.59554 -3.86813,2.01721 -1.85346,0.48276 -4.33036,0.48948 -5.84578,0.0159 z m 5.33461,-11.32006 c -0.38429,-1.74969 -1.41293,-2.58358 -3.18691,-2.58358 -0.97367,0 -2.18371,0.50522 -2.69999,1.12734 -0.1682,0.20264 -0.48856,0.80581 -0.71189,1.34035 l -0.40608,0.97189 h 3.59642 3.59646 z m -84.14494,11.06596 c -1.59816,-0.50036 -2.67997,-1.41907 -3.42027,-2.90465 -0.62651,-1.25725 -0.65966,-1.55319 -0.65966,-5.88756 v -4.56375 l -1.25677,-0.0806 -1.25677,-0.0806 -0.0788,-1.65364 -0.0788,-1.65365 h 1.32521 1.32525 l 0.0765,-2.3151 0.0764,-2.31511 h 2.11667 2.11667 l 0.0764,2.31511 0.0765,2.3151 h 1.84176 1.84179 v 1.71979 1.71979 h -1.85208 -1.85208 v 3.95629 c 0,2.39501 0.11887,4.21722 0.30125,4.61748 0.35658,0.78261 1.69879,1.4804 2.84758,1.4804 h 0.81992 v 1.85208 1.85209 l -1.65365,-0.0177 c -0.9095,-0.01 -2.13939,-0.16978 -2.73309,-0.35568 z m 6.76799,-1.34642 v -1.71979 h 1.19062 1.19063 v -5.14487 -5.14488 l -1.25677,-0.0806 -1.25677,-0.0806 -0.0788,-1.65364 -0.0788,-1.65365 h 2.92304 c 3.52639,0 3.97978,0.26347 3.98388,2.3151 l 0.003,1.25677 0.64794,-1.08087 c 0.96769,-1.61422 2.46023,-2.54085 4.1656,-2.58614 l 1.39917,-0.0371 0.0763,2.15027 0.0763,2.15029 -1.60124,0.11581 c -1.94844,0.14094 -2.79521,0.70713 -3.70681,2.47854 -0.55692,1.0822 -0.67611,1.73278 -0.75851,4.13985 l -0.0977,2.85586 h 1.21989 1.21988 v 1.71979 1.7198 h -4.63021 -4.6302 v -1.7198 z m 33.25535,1.54943 c -0.10033,-0.10033 -0.18243,-0.87693 -0.18243,-1.72582 v -1.5434 h 1.32291 1.32292 v -4.74085 c 0,-2.60747 -0.0723,-4.92919 -0.1606,-5.15938 -0.11272,-0.29374 -0.5071,-0.41852 -1.32292,-0.41852 h -1.16231 v -1.71979 -1.71979 h 2.79016 c 2.60958,0 2.83215,0.042 3.43958,0.64942 0.35719,0.35719 0.64942,0.9321 0.64942,1.27757 0,0.58552 0.0805,0.55102 1.18623,-0.50845 2.91955,-2.79744 7.17222,-2.35995 8.8531,0.91075 l 0.31324,0.60952 0.57218,-0.74182 c 1.34946,-1.74942 2.989,-2.55495 5.21817,-2.56373 2.35442,-0.009 3.81143,0.79134 4.7449,2.60731 0.64432,1.25344 0.67975,1.5516 0.76211,6.41615 l 0.0864,5.10161 h 1.17041 1.17039 v 1.71979 1.7198 h -3.42599 -3.42601 l -0.0797,-6.2415 -0.0797,-6.24152 -0.65834,-0.53266 c -0.51565,-0.41722 -0.91514,-0.50374 -1.84301,-0.39915 -2.44051,0.27509 -3.71636,2.80779 -3.71636,7.37743 v 2.59781 h 1.19062 1.19063 v 1.72771 1.7277 l -3.37344,-0.0741 -3.37344,-0.0741 -0.13229,-6.12444 c -0.11972,-5.54273 -0.18015,-6.17728 -0.63632,-6.68073 -0.65381,-0.7216 -2.11796,-0.73014 -3.28409,-0.019 -1.47698,0.90049 -2.21229,2.92016 -2.37077,6.5119 l -0.13264,3.00517 h 1.37245 1.37245 l -0.0788,1.65364 -0.0788,1.65365 -4.51392,0.0722 c -2.48267,0.0397 -4.59602,-0.01 -4.69635,-0.11026 z m 51.41132,-1.54943 v -1.71979 h 1.19634 1.19634 l -0.0719,-5.09323 -0.0719,-5.09323 -1.25677,-0.0806 -1.25677,-0.0806 v -1.70529 -1.70529 h 2.9001 c 2.64269,0 2.94801,0.0514 3.43958,0.57907 0.29673,0.31848 0.53949,0.93204 0.53949,1.3635 v 0.78444 l 0.97369,-1.00259 c 1.4137,-1.45563 3.00715,-2.09097 5.24402,-2.09092 2.12119,2e-5 3.08097,0.39896 4.29995,1.78734 1.11361,1.26831 1.38859,2.84959 1.38859,7.98489 v 4.3526 h 1.19063 1.19062 v 1.72771 1.7277 l -3.37344,-0.0741 -3.37344,-0.0741 -0.13229,-5.95312 c -0.15954,-7.17902 -0.24228,-7.41455 -2.60133,-7.40397 -1.53799,0.007 -2.94873,0.97414 -3.80145,2.60647 -0.68514,1.31146 -0.74097,1.64536 -0.74097,4.43084 v 3.01249 h 1.19063 1.19062 v 1.71979 1.7198 h -4.63021 -4.6302 z m 28.20757,1.18989 c -1.63515,-0.6386 -2.46914,-1.40481 -3.16704,-2.90968 -0.47638,-1.02727 -0.56581,-1.81684 -0.65169,-5.75468 l -0.0995,-4.56407 h -1.16446 -1.16443 v -1.71979 -1.71979 h 1.32292 1.32292 v -2.38125 -2.38125 h 2.11666 2.11667 v 2.38125 2.38125 h 1.98438 1.98437 v 1.71979 1.71979 h -1.98437 -1.98438 v 3.71266 c 0,4.38714 0.27781,5.35919 1.70177,5.95416 0.50988,0.21304 1.28807,0.38735 1.72932,0.38735 h 0.80224 v 1.85208 1.85209 l -1.78593,-0.0124 c -1.1026,-0.008 -2.28087,-0.20566 -3.07941,-0.51752 z m -44.54559,-25.82484 c -0.18191,-0.0812 -0.33073,-0.49496 -0.33073,-0.91938 0,-0.74707 0.0412,-0.77171 1.29053,-0.77171 2.2384,0 2.56566,-1.4334 0.44971,-1.96971 -0.9589,-0.24305 -0.98097,-0.27586 -0.80156,-1.19063 0.31481,-1.60486 0.28806,-1.69241 -0.57284,-1.8751 -2.60343,-0.55248 -4.9551,-2.63022 -5.9358,-5.24439 -0.78669,-2.09695 -0.65868,-5.43779 0.27906,-7.28265 0.90188,-1.77438 2.28528,-3.12465 4.12186,-4.02321 2.74598,-1.34347 6.97262,-0.96371 9.0256,0.81095 0.93215,0.80579 0.99063,0.94721 0.99856,2.4148 l 0.008,1.5589 -1.12448,0.0814 -1.12448,0.0814 v -0.93094 c 0,-2.30899 -3.83109,-3.34698 -6.83265,-1.85123 -4.4944,2.23964 -4.53419,9.28555 -0.0652,11.54914 2.43827,1.23499 5.38395,0.94959 7.59359,-0.73578 0.47107,-0.35931 0.89686,-0.65328 0.94626,-0.65328 0.0494,0 0.31999,0.42746 0.60135,0.94993 l 0.51157,0.94991 -0.64985,0.51429 c -1.11201,0.88006 -2.57849,1.55427 -4.15824,1.91178 -1.88368,0.42627 -2.19004,1.13985 -0.77843,1.813 1.72162,0.82098 1.93294,3.11282 0.39301,4.26252 -0.70326,0.52506 -3.12531,0.87156 -3.84524,0.55007 z M 120.01706,343.5713 c -3.24297,-0.91194 -6.01658,-3.18035 -7.42792,-6.07492 -1.04345,-2.14008 -1.355,-3.48257 -1.36318,-5.87425 -0.0255,-7.45762 6.35742,-12.88891 13.83948,-11.77607 2.87844,0.42809 4.72919,1.19872 5.84494,2.43371 0.89574,0.99148 0.94661,1.14729 0.94661,2.89912 v 1.85132 h -1.19063 -1.19062 v -1.17033 c 0,-2.41231 -2.24921,-3.72854 -6.35,-3.71602 -1.85732,0.006 -2.5079,0.12694 -3.73592,0.69643 -2.08549,0.96713 -3.52373,2.36776 -4.52975,4.41127 -0.79963,1.62428 -0.86246,1.94503 -0.86246,4.4033 0,2.4256 0.071,2.80128 0.83377,4.41121 1.5886,3.35299 4.22225,5.20431 7.74597,5.44494 2.40634,0.16434 4.9864,-0.41216 6.28812,-1.40504 0.80141,-0.61127 0.87485,-0.7883 0.87485,-2.10902 v -1.44174 h 1.19063 1.19062 v 2.02533 c 0,2.00451 -0.0104,2.03528 -1.01559,2.99146 -2.0301,1.93119 -7.69743,2.95299 -11.08892,1.9993 z m 21.44426,-0.087 c -3.71472,-1.31987 -5.93617,-4.40214 -5.96181,-8.27201 -0.0162,-2.45076 0.63667,-4.19595 2.21644,-5.92447 1.93801,-2.12048 3.68491,-2.8937 6.55807,-2.90274 1.89256,-0.006 2.50989,0.10588 3.73462,0.67648 2.09042,0.97393 3.28946,2.13683 4.28199,4.1529 0.75946,1.54271 0.86529,2.01737 0.86511,3.87998 0,3.60993 -1.65598,6.30127 -4.84079,7.86916 -2.20546,1.08575 -4.72469,1.27715 -6.85363,0.5207 z m 5.73388,-2.5596 c 4.59931,-2.33066 4.57711,-9.31892 -0.0369,-11.61818 -3.90909,-1.94799 -8.42158,0.493 -9.08458,4.91422 -0.3834,2.55667 1.19312,5.59054 3.55348,6.83834 1.43238,0.75724 3.92733,0.69702 5.56803,-0.13438 z m 80.70554,2.68248 c -0.50932,-0.20045 -1.24724,-0.49462 -1.63981,-0.65371 -1.20623,-0.48879 -2.71769,-2.05854 -3.5347,-3.67099 -0.69929,-1.38009 -0.77861,-1.79274 -0.77861,-4.05019 0,-3.07922 0.52424,-4.62018 2.17056,-6.38024 2.03763,-2.17842 5.25894,-3.07001 8.10376,-2.24301 2.89433,0.84141 4.65731,3.26216 4.88305,6.70502 l 0.12575,1.91823 h -6.38479 -6.38479 v 0.59706 c 0,3.17902 2.79953,5.75294 6.25721,5.75294 1.71267,0 2.44853,-0.22198 4.1107,-1.23999 l 0.97517,-0.59727 0.57677,0.93323 c 0.56054,0.907 0.5629,0.94443 0.0832,1.33123 -0.27152,0.21889 -1.14848,0.71123 -1.94884,1.09408 -1.7606,0.84217 -5.10694,1.09693 -6.61459,0.50361 z m 6.61459,-10.83236 c 0,-0.9792 -1.12245,-2.91693 -2.0442,-3.52904 -2.89214,-1.92053 -6.74804,-0.18585 -7.86683,3.53912 l -0.17881,0.59531 h 5.04492 5.04492 z m 39.81979,10.86948 c -3.42863,-1.19849 -4.60013,-5.19758 -2.31733,-7.91057 1.27736,-1.51805 4.85704,-2.6181 8.51958,-2.6181 h 1.33837 v -1.07149 c 0,-1.39713 -0.5997,-2.51875 -1.63219,-3.05265 -1.2501,-0.64646 -4.0002,-0.41937 -5.71873,0.47225 l -1.35175,0.7013 -0.55878,-0.94702 c -0.44534,-0.7548 -0.48852,-0.99449 -0.21272,-1.18078 3.35904,-2.26901 8.59422,-2.29031 10.56674,-0.043 1.28016,1.45849 1.40529,2.09691 1.54848,7.89951 l 0.13708,5.55625 1.12448,0.0814 c 1.119,0.081 1.12448,0.0864 1.12448,1.12448 v 1.04312 h -1.43799 c -1.5218,0 -2.78527,-0.35531 -3.11663,-0.87646 -0.10988,-0.1728 -0.20161,-0.70146 -0.20384,-1.17483 l -0.004,-0.86066 -0.94287,1.04365 c -1.29199,1.43007 -2.84409,2.13796 -4.63077,2.11201 -0.79081,-0.0114 -1.79501,-0.14576 -2.23157,-0.29837 z m 4.79838,-2.46592 c 1.52278,-0.89241 2.48483,-2.56148 2.67308,-4.63754 l 0.14528,-1.6021 -2.08856,0.17237 c -4.855,0.40066 -6.81475,1.68828 -6.34892,4.17148 0.1605,0.85547 1.19798,2.08214 2.01136,2.3781 0.99156,0.36081 2.51709,0.15684 3.60776,-0.48231 z m 47.29755,2.55175 c -2.53852,-0.65852 -4.07406,-2.33908 -4.07406,-4.45881 v -1.12861 h 1.19063 c 1.18724,0 1.19062,0.003 1.19062,0.93808 0,1.31217 0.87726,2.10688 2.75633,2.49698 2.8118,0.58372 5.18117,-0.50297 5.18117,-2.37633 0,-1.07902 -1.10683,-1.99581 -3.53314,-2.92658 -4.70826,-1.80613 -5.99186,-2.96948 -5.99186,-5.4305 0,-1.74066 0.75557,-2.89745 2.46817,-3.77875 2.31042,-1.18896 6.45052,-0.79666 8.12779,0.77012 0.69998,0.65389 0.78113,0.89736 0.78113,2.34334 v 1.61364 h -1.05834 c -0.99507,0 -1.05833,-0.0466 -1.05833,-0.77899 0,-0.43764 -0.27424,-1.09781 -0.62582,-1.50656 -0.53694,-0.62423 -0.86921,-0.74303 -2.33987,-0.83669 -2.04679,-0.13034 -3.19513,0.34679 -3.59492,1.49368 -0.53803,1.54334 0.5996,2.61347 4.25649,4.00391 2.82932,1.07579 4.02449,1.8855 4.68013,3.17066 1.17541,2.30396 0.31083,4.58634 -2.23094,5.88944 -1.1516,0.59036 -4.67222,0.87889 -6.12518,0.50197 z m -170.49698,-1.0895 v -1.05834 h 1.32292 1.32292 v -6.35 -6.35 h -1.45521 -1.45521 v -1.05833 -1.05833 h 2.1984 c 2.61011,0 3.07131,0.2546 3.28004,1.81072 l 0.15166,1.1307 0.7289,-0.88429 c 0.92408,-1.12109 3.03413,-2.27751 4.52969,-2.48248 2.271,-0.31128 4.55083,0.81635 5.26224,2.60281 0.1895,0.47588 0.37275,0.90406 0.4072,0.9515 0.0344,0.0474 0.57412,-0.46861 1.19922,-1.14679 0.62511,-0.67815 1.59655,-1.46769 2.15874,-1.7545 2.12878,-1.08604 4.92805,-0.88387 6.5397,0.47225 1.62415,1.36663 1.71154,1.76403 1.80946,8.22976 l 0.0892,5.88698 h 1.43322 1.43319 v 1.05834 1.05833 h -2.62485 -2.62485 l -0.0871,-6.28386 c -0.0749,-5.39996 -0.15287,-6.40418 -0.55462,-7.13927 -1.28966,-2.35974 -4.92313,-2.10222 -6.79484,0.48159 -1.25899,1.73802 -1.60121,3.29838 -1.60121,7.30102 v 3.52385 h 1.47119 1.47117 l -0.0821,0.99219 -0.0821,0.99219 -2.55519,0.0754 -2.55516,0.0754 -0.0907,-6.29314 c -0.0832,-5.77892 -0.13507,-6.36876 -0.63429,-7.2186 -0.98666,-1.67955 -2.79892,-2.04745 -4.8904,-0.99277 -1.29907,0.65508 -2.70285,2.48759 -3.15632,4.12028 -0.14861,0.53512 -0.2709,2.61006 -0.2717,4.61097 l -0.003,3.63802 h 1.32291 1.32292 v 1.05834 1.05833 h -3.96875 -3.96875 v -1.05833 z m 32.80834,0 v -1.05834 h 1.45999 1.46 l -0.0709,-6.28385 -0.0709,-6.28386 -1.38906,-0.08 -1.38906,-0.08 v -1.04452 -1.04449 h 2.20795 c 2.58939,0 3.08371,0.32382 3.08371,2.02017 v 1.05248 l 1.42619,-1.38136 c 1.87992,-1.82083 3.74258,-2.46647 5.84419,-2.02565 1.9009,0.3987 2.63594,0.92636 3.38535,2.43023 l 0.6268,1.25782 0.57901,-0.88328 c 1.41097,-2.15252 4.43558,-3.35947 6.95899,-2.77699 1.79848,0.41513 2.82845,1.19968 3.49663,2.66346 0.49496,1.08426 0.56536,1.81991 0.65442,6.83739 l 0.0998,5.62239 h 1.29662 1.29659 v 1.05834 1.05833 h -2.64584 -2.64583 v -6.08007 c 0,-6.73767 -0.18259,-7.73232 -1.5699,-8.55184 -2.07272,-1.22439 -4.94194,0.0462 -6.45388,2.85795 -0.50165,0.93287 -0.57999,1.568 -0.66103,5.35781 l -0.092,4.29948 h 1.34569 1.34567 v 1.06791 1.06791 l -2.57968,-0.0757 -2.57969,-0.0757 -0.13229,-6.48229 c -0.11462,-5.61639 -0.19463,-6.57405 -0.59902,-7.16913 -1.27254,-1.87261 -4.26307,-1.71609 -6.20046,0.32457 -1.63644,1.72365 -2.02917,3.08409 -2.14778,7.43987 l -0.10625,3.9026 h 1.48404 1.48405 v 1.05834 1.05833 h -4.10104 -4.10104 z m 51.50556,0.88193 c -0.097,-0.097 -0.17639,-0.57324 -0.17639,-1.05833 v -0.88194 h 1.32291 1.32292 v -6.35 -6.35 h -1.45521 -1.45521 v -1.05833 -1.05833 h 2.20795 c 2.67512,0 3.08372,0.298 3.08372,2.24901 v 1.28129 l 0.78317,-1.16985 c 1.11934,-1.67198 2.33412,-2.41073 4.03833,-2.45581 l 1.39621,-0.0369 v 1.19063 1.19062 l -1.3629,0.16635 c -1.50175,0.1833 -2.3854,0.72427 -3.259,1.99509 -1.01632,1.47849 -1.33123,3.10512 -1.33123,6.87644 v 3.52983 h 1.19063 1.19062 v 1.05834 1.05833 h -3.66006 c -2.01305,0 -3.73946,-0.0794 -3.83646,-0.1764 z m 49.03611,-0.88193 v -1.05834 h 1.32291 1.32292 v -6.35 -6.35 h -1.45521 -1.45521 v -1.05833 -1.05833 l 2.18282,0.004 c 1.20054,0.003 2.3138,0.0915 2.47393,0.19844 0.47704,0.31853 0.8995,1.29985 0.8995,2.08936 v 0.73914 l 0.79915,-0.96951 c 0.43953,-0.53321 1.48132,-1.3045 2.31511,-1.71392 1.95704,-0.96102 4.94792,-1.05161 6.4158,-0.19431 2.16775,1.26601 2.64078,3.01818 2.64078,9.78165 v 4.88177 h 1.32291 1.32292 v 1.06791 1.06792 l -2.57969,-0.0757 -2.57968,-0.0757 -0.1323,-6.35 c -0.13586,-6.52103 -0.24587,-7.19707 -1.29997,-7.98785 -0.68829,-0.51636 -2.23084,-0.66239 -3.53312,-0.33446 -1.60107,0.40314 -3.28472,1.87187 -4.06387,3.5451 -0.56499,1.21335 -0.62312,1.70021 -0.62544,5.24023 l -0.003,3.9026 h 1.32292 1.32291 v 1.05834 1.05833 h -3.96875 -3.96875 v -1.05833 z m 27.64896,0.73514 c -1.40748,-0.49903 -2.29595,-1.31334 -2.93847,-2.69319 -0.59417,-1.27609 -0.62838,-1.63261 -0.63082,-6.57477 l -0.003,-5.22552 h -1.45521 -1.45521 v -1.05833 -1.05833 h 1.45521 1.45521 v -2.38125 -2.38125 h 1.19063 1.19062 v 2.38125 2.38125 h 2.11667 2.11666 v 1.05833 1.05833 h -2.11666 -2.11667 l 0.003,4.43177 c 0,2.43748 0.1311,4.89863 0.28953,5.46926 0.41365,1.48992 1.48156,2.45036 2.97326,2.67406 1.22512,0.18373 1.23364,0.19209 1.23364,1.21328 v 1.0283 l -1.25677,-0.0209 c -0.69122,-0.0114 -1.61396,-0.14753 -2.05052,-0.30232 z"
       id="path49"
       inkscape:connector-curvature="0"
       sodipodi:nodetypes="cccsscccccccccccccccccccsccccscccccccccccscccccccccccccscscccccccccssccccsccccssscsscscsccccsccccsccccsccccccccscccccccccccccccccccscsccccccccccccccccsccccccccscccccccccccscccscscccscsccccccccccccccccccscccccccscccccccccccccccccccccscsccccsccccccccccsccccccccccccccccccccccccccccccscscccccccsscccccccccccscccsccccccccccsccscccscccsccsscccsccccccccccccccccccccsccccccsscccccccscccccsccscscccccccccscscccccccccccccccscsscscsccscsscccccccccccccccccsccccccccccccccccccccscccccccccccccccccccccccccccccccsscsccccccscccccccsccccccccccsccccccccccccscccccccccssccccccccscccccsccccccccccccccsccccscccccccsccccccccccccccccccccccccccccccccccccccscccc" />
    <g
       transform="matrix(4.4619827,0,0,4.4619827,-18.038137,339.94092)"
       id="g6699">
      <path
         style="fill:#ffffff;fill-rule:nonzero;stroke:none;stroke-width:1"
         inkscape:connector-curvature="0"
         id="Shape"
         d="m 53.97488,-9.775359 c -8.098054,0 -14.659135,-6.550029 -14.659135,-14.630048 0,-8.076459 6.561081,-14.622928 14.659135,-14.622928 8.094486,0 14.659135,6.546469 14.659135,14.622928 0,8.080343 -6.564649,14.630048 -14.659135,14.630048" />
      <path
         style="fill:#54bbab;fill-rule:nonzero;stroke:none;stroke-width:1"
         inkscape:connector-curvature="0"
         id="path6063"
         d="m 56.249366,-40.557031 c -0.441729,-0.03689 -0.669081,-0.05113 -1.105621,-0.05113 0.781621,0.02298 1.568756,0.109054 2.355567,0.265354 8.344541,1.621246 13.685514,10.022602 11.932216,18.766652 -1.754918,8.74049 -9.940864,14.513874 -18.285405,12.894569 -0.371351,-0.07378 -0.737513,-0.159859 -1.096865,-0.259852 1.418919,0.437186 2.943568,0.676005 4.550919,0.676005 1.608973,0 2.85373,-0.217785 4.04173,-0.484756 5.153189,-1.16788 9.325297,-4.779278 11.407784,-9.302587 0.883783,-1.977532 1.371567,-4.162817 1.371567,-6.45489 -3.24e-4,-8.951155 -7.026162,-15.359122 -15.171892,-16.049366" />
      <path
         style="fill:#5bc5f2;fill-rule:nonzero;stroke:none;stroke-width:1"
         inkscape:connector-curvature="0"
         id="path6065"
         d="m 37.151204,-25.718584 c -0.614594,8.794856 6.202054,16.451603 15.497189,17.247017 -0.49654,-0.043686 -0.99827,-0.113908 -1.503567,-0.210665 -8.344541,-1.619304 -13.685514,-10.024543 -11.932216,-18.76827 1.742918,-8.682565 9.83027,-14.434915 18.11481,-12.925959 -0.695675,-0.133647 -1.401405,-0.228463 -2.123351,-0.279592 -9.456649,-0.646233 -17.436973,6.039061 -18.052865,14.937469" />
      <path
         style="fill:#007e92;fill-rule:nonzero;stroke:none;stroke-width:1"
         inkscape:connector-curvature="0"
         id="path6067"
         d="m 57.499312,-40.343453 c -8.34454,-1.623188 -16.532108,4.150519 -18.287351,12.892628 -1.753297,8.745668 3.587676,17.148965 11.932216,18.76827 8.346162,1.619628 16.53373,-4.152461 18.287351,-12.89457 1.753298,-8.742108 -3.586054,-17.145729 -11.932216,-18.766328 M 53.97488,-9.775359 c -8.098054,0 -14.659135,-6.550029 -14.659135,-14.630048 0,-8.076459 6.561081,-14.622928 14.659135,-14.622928 8.094486,0 14.659135,6.546469 14.659135,14.622928 0,8.080343 -6.564649,14.630048 -14.659135,14.630048" />
      <path
         style="fill:#e42313;fill-rule:nonzero;stroke:none;stroke-width:1"
         inkscape:connector-curvature="0"
         id="path6069"
         d="m 62.115096,-31.375147 h -5.017297 c -0.918811,0 -1.045946,0.372466 -1.045946,0.934563 0,0 0.0019,8.137943 0.0019,8.148299 -0.06324,1.865565 -0.756973,2.462934 -2.089622,2.462934 -1.364108,0 -2.061405,-0.629082 -2.089621,-2.613733 v -7.997177 c 0,-0.562096 -0.132,-0.934562 -1.04919,-0.934562 h -5.018873 v 9.690909 c 0,2.144511 0.41546,3.05092 1.304433,3.971244 1.375135,1.431616 3.781297,2.034163 6.853297,2.034163 3.072,0 5.480108,-0.602547 6.858487,-2.034163 0.885405,-0.920324 1.304432,-1.826733 1.304432,-3.971244 z" />
    </g>
  </g>
</svg>
