<?xml version="1.0" encoding="utf-8"?>
<!-- Generator: Adobe Illustrator 26.3.1, SVG Export Plug-In . SVG Version: 6.00 Build 0)  -->
<svg version="1.1" id="レイヤー_1" xmlns="http://www.w3.org/2000/svg" xmlns:xlink="http://www.w3.org/1999/xlink" x="0px"
	 y="0px" viewBox="0 0 373.9 92.4" style="enable-background:new 0 0 373.9 92.4;" xml:space="preserve">
<style type="text/css">
	.st0{fill:#E50012;}
</style>
<g>
	<path class="st0" d="M0,44.7v8.2c0,4.1,2.5,8.4,8,8.4c5.9,0,8.5-4.9,8.5-8.3v-8.1h-5.6V53c0,0-0.1,2.8-3,2.8c-1.6,0-2.4-1-2.4-2.9
		v-8.2H0z"/>
	<path class="st0" d="M28.7,45.1v7.4c0,0.5-0.2,2.3-2.6,2.3c-2.5,0-2.5-3.6-2.5-4.1H18c0,4.6,2.5,9.6,8.1,9.6c6,0,8.2-4.8,8.2-7.9
		v-7.4H28.7z"/>
	<rect x="37.3" y="45.1" class="st0" width="5.6" height="15.6"/>
	<polygon class="st0" points="59.4,48.8 59.4,44.9 50.6,44.9 45.5,44.9 45.5,60.8 59.4,60.8 59.4,56.9 50.6,56.9 50.6,55 58.9,55 
		58.9,51.1 50.6,51.1 50.6,48.8 	"/>
	<path class="st0" d="M61.4,17.7c2.9-5,9.4-12.1,16.5-17.1c-2.1,0-20.7,0-20.7,0c-2.6,2.1-5.7,10.8-5.6,16.8
		C29.4,4.5,8.5,16.9,9.6,42h26.6c3.5-6.9,10.4-11.5,18.4-11.5c11.5,0,20.8,9.7,20.8,21.7c0,12-9.3,21.8-20.8,21.8
		c-7.7,0-14.3-4.3-18-10.7H14.6C24,85.4,43.5,92.4,55.3,92.4c25.3-0.1,42.6-19.7,44.7-46.5C101.8,22.2,83.4,7.1,61.4,17.7z"/>
</g>
<g>
	<path class="st0" d="M352.9,37.2c0,0-1.6,10.9-3.7,13.4c-1.8,2.1-3.4,1.8-3.4,1.8h-26.4l8.3-24.9l2.4-0.3h17.3l5.2-15.2H289
		l-5.2,15.2h21.8l-8.4,25.1h-19.5l-5.8,14.7h89.2c5.1-1.6,6.2-8,7.9-13.8c2.4-8.3,4.9-16.2,4.9-16.2H352.9z"/>
	<polygon class="st0" points="242.3,29.5 206.1,29.5 202,44.7 238.2,44.7 	"/>
	<polygon class="st0" points="248.7,12.1 212.5,12.1 208.3,25.9 244.5,25.9 	"/>
	<polygon class="st0" points="282.9,12.1 273.1,12.1 267.6,26.3 277.4,26.3 	"/>
	<polygon class="st0" points="271.2,12.1 261.4,12.1 255.9,26.3 265.7,26.3 	"/>
	<path class="st0" d="M254.5,33.2c-2.3,6.5-4.1,11.8-4.1,11.8c-1.1,3.2-1,6.4-9,6.4h-51.5l6.3-24.4l4.4-14.9h-29.3L175.7,0h-23.3
		L148,12.1h-28.8L113.8,27l-8.6,23.8H130l8.6-23.8h34.6l-10.6,36.1c-0.9,3.1-4.9,7.7-8.1,7.7h-30.3l-6.4,17.7h47.4
		c7.4,0,15.2-5.8,17.2-12.9l2.6-9.1h72c9.7,0,11.1-10.9,13.6-17.9l5.1-15.3H254.5z"/>
</g>
<polygon class="st0" points="198.4,75.3 200.8,70.1 232.2,70.1 218.4,78.5 228,88.7 217.6,88.7 211.8,83.1 204.2,88.5 190.2,88.5 
	210.2,75.3 "/>
<polygon class="st0" points="236.3,77.3 261.7,77.3 259.1,82.9 233.8,82.9 "/>
<polygon class="st0" points="318.4,77.3 343.8,77.3 341.2,82.9 316,82.9 "/>
<polygon class="st0" points="275.5,76.1 287.7,76.1 278.9,88.9 266.7,88.9 "/>
<polygon class="st0" points="292.5,70.7 301.8,70.7 306.4,88.7 295.5,88.7 "/>
<path class="st0" d="M307.4,70.7c-2.2,0-4,1.7-4,3.8s1.8,3.8,4,3.8c2.2,0,4-1.7,4-3.8S309.6,70.7,307.4,70.7z M307.5,76.5
	c-1.1,0-1.9-0.9-1.9-2c0-1.1,0.9-2,1.9-2s1.9,0.9,1.9,2C309.4,75.6,308.5,76.5,307.5,76.5z"/>
</svg>
