<svg id="Layer_1" data-name="Layer 1" xmlns="http://www.w3.org/2000/svg" viewBox="0 0 842.26 797.73"><path d="M909.14,153.35c-.53,3.33-2.62,3.45-5,3.23a30.59,30.59,0,0,0-6.24-.37c-1.89.2-3.65,1.43-5.54,1.67-13.86,1.72-27.74,3.19-41.59,5-5.4.71-10.72,2.09-16.08,3.15-6.47,1.29-13,2.42-19.4,3.88-9.83,2.24-19.6,4.69-29.4,7.07-3.58.86-7.13,1.86-10.74,2.6-2.6.54-3.85-.88-3.29-3.44.23-1,.66-2,.8-3,1.52-11.47,11.29-10.58,19-12.59,4.95-1.29,10-2.18,15-3.15s10.12-1.78,15.17-2.75c6.5-1.26,13-2.76,19.47-3.87,10.15-1.74,20.32-3.45,30.53-4.77,7.8-1,15.68-1.41,23.53-2.05,10.53-.85,21-1.82,31.59-2.47,5.79-.35,11.61-.12,17.41-.21,8.7-.13,17.41-.54,26.1-.4,8.49.14,17,.83,25.47,1.24,8.92.42,17.87.55,26.77,1.28,6.68.54,13.29,1.89,19.94,2.78,4.59.61,9.24.83,13.8,1.62,7,1.21,13.89,2.83,20.86,4.1,2.35.42,4.86.05,7.21.49,7.74,1.48,15.46,3,23.14,4.8q14.1,3.23,28.1,6.84c8.43,2.17,16.9,4.29,25.18,7,12.19,4,24.24,8.37,36.31,12.69,6.32,2.26,12.61,4.6,18.82,7.12,7.89,3.19,15.84,6.26,23.49,10,19.26,9.34,38.37,19,57.54,28.57,3.09,1.54,6.12,3.2,9.21,4.74,2.2,1.09,2.81,3.93.91,5.47a9.83,9.83,0,0,1-4.14,2.16c-7.86,1.47-14.06,6.27-20.24,10.65-5.53,3.92-10.16,9.17-15,14-7.57,7.61-11.55,17.12-13,27.56a43.65,43.65,0,0,0,2.7,22.27c3.54,8.95,8.19,16.93,16.36,22.22a56.35,56.35,0,0,0,20.91,8.46c9,1.58,17.62,0,25.76-3.5,5.42-2.35,10.38-5.81,15.43-8.95a31.67,31.67,0,0,0,12.51-15c.39-.91,2.14-1.23,3.26-1.83a10.36,10.36,0,0,1,1,3c.08,7.89-.21,15.78.1,23.65.43,11,1.35,21.93,2.83,32.85,1,7,.8,14.06,1.19,21.1.3,5.46.65,10.91,1,16.37.39,6,.78,11.95,1.25,17.92,1,12.39,2.09,24.78,3,37.18.7,10.1,1,20.22,1.66,30.32.61,8.91,1.62,17.79,2.3,26.7.38,5,.44,10.12.69,15.17.43,8.83.78,17.67,1.39,26.48,1,13.95,2.15,27.89,3.21,41.84.74,9.64,1.52,19.28,2.14,28.92.41,6.49.4,13,.88,19.48.9,12,2.07,24,3,36,.13,1.64-.57,3.34-.45,5,.47,6.5,1.08,13,1.69,19.47.21,2.29.72,4.57.77,6.86,0,1.11-.69,2.23-1.08,3.35-1.16-.53-2.59-.8-3.42-1.65a23.25,23.25,0,0,1-3.18-4.62c-2.54-4.4-6.37-7.32-10.66-9.85-3.15-1.86-5.92-4.55-9.25-5.93a131.08,131.08,0,0,0-17.49-5.76,48.67,48.67,0,0,0-11.26-1.18c-4.48-.08-9.16-.42-13.39.69-7.1,1.88-14.31,3.36-20.52,8.21a53.42,53.42,0,0,0-18.53,26.17,44.39,44.39,0,0,0,.33,28.74,90.34,90.34,0,0,0,14.23,26.39c5,6.32,10.71,12.22,18.19,15.72,8.54,4,17.25,7.66,26,11.29,2.4,1,5.11,1.25,7.58,2.13,1,.37,2.6,1.63,2.49,2.22a7,7,0,0,1-2.23,3.51c-.8.73-2.11.89-3.15,1.37-1.84.86-4,1.41-5.41,2.73-5.62,5.23-12.46,8.31-19.12,11.84-8.12,4.31-15.7,9.61-23.75,14.06-7,3.88-14.33,7.22-21.57,10.69q-11.34,5.41-22.79,10.63c-2.66,1.21-5.44,2.17-8.13,3.32-4,1.73-8,3.65-12.06,5.25-2.81,1.11-5.84,1.64-8.67,2.71-6,2.26-11.88,4.85-17.9,7-11.93,4.35-23.86,8.69-35.9,12.72-7.55,2.53-15.24,4.7-23,6.63-10.39,2.59-20.88,4.79-31.32,7.17-7.34,1.68-14.63,3.66-22,5-8.13,1.45-16.39,2.22-24.57,3.42-4.45.66-8.83,1.77-13.28,2.36q-13.1,1.74-26.24,3.12c-6.77.71-13.57,1.27-20.36,1.69-1.76.11-3.57-.84-5.34-.79s-3.81,1-5.74,1.06c-11.8.47-23.6,1-35.41,1.14-8.48.11-17-.2-25.45-.53-7.53-.29-15.08-.67-22.59-1.35-9.26-.83-18.49-2-27.74-3-7.71-.86-15.46-1.52-23.14-2.63-8.11-1.17-16.18-2.64-24.23-4.19-10.71-2.07-21.4-4.23-32.06-6.58-7.88-1.74-15.69-3.82-23.51-5.81-7.31-1.85-14.66-3.57-21.89-5.7-8.45-2.5-16.8-5.32-25.15-8.12-7.18-2.41-14.4-4.74-21.43-7.53-11.46-4.56-22.76-9.51-34.17-14.2-3.86-1.59-7.86-2.8-11.74-4.33-1.23-.49-2.19-1.61-3.4-2.21-11-5.5-22-10.92-33-16.43-6.88-3.44-13.76-6.87-20.51-10.54-4.76-2.59-9.24-5.69-13.95-8.37-5.33-3-10.77-5.84-16.17-8.74a9.25,9.25,0,0,1-2.71-1.58,5.86,5.86,0,0,1-1.58-3.36c0-.77,1.22-2,2.1-2.24,2.81-.71,5.85-.64,8.55-1.58a88.62,88.62,0,0,0,14.43-6.08c6.82-3.86,13.7-7.86,19.71-12.82,6.17-5.09,12.62-10.3,16-18,2.82-6.41,6.61-12.68,7.91-19.42,1.53-7.92,1.19-16.28.92-24.42-.12-3.63-1.91-7.25-3.23-10.76-.41-1.08-1.9-1.7-2.66-2.71-1.38-1.83-2.46-3.91-3.88-5.71-10.4-13.07-24-18.94-40.61-17.6-6.78.55-13.71,1-20.21,2.8a51.67,51.67,0,0,0-22,12.46c-1.84,1.76-4,2.61-5.86,1.12-1-.82-1-3.24-1-4.94.08-5.22.36-10.44.63-15.66.41-7.89,1-15.77,1.31-23.67.31-7,.32-13.95.62-20.93.36-8.41.89-16.82,1.36-25.23.37-6.72.84-13.44,1.11-20.16.51-12.3.87-24.6,1.34-36.89.37-9.59.58-19.18,1.27-28.75,1-13.84,2.38-27.65,3.52-41.48.24-2.83,0-5.71.17-8.54.78-11.75,1.7-23.49,2.45-35.24.33-5.09.39-10.19.54-15.29.13-4.09.21-8.18.32-12.28.19-7.24.23-14.49.62-21.73.38-7,1.14-14,1.67-21,.28-3.67.33-7.37.62-11.05.81-10.46,1.8-20.91,2.49-31.38.22-3.35-.47-6.75-.33-10.1,0-1.31,1.23-2.58,1.89-3.86,1.21.83,2.79,1.41,3.55,2.55,3.55,5.27,8.08,9.17,14.34,10.57s12.53,3.4,18.81,3.41a49.34,49.34,0,0,0,35.22-13.9c5.4-5.19,9.62-11.44,10.61-19.27.57-4.56,1.78-9.14,1.65-13.67-.18-6.12-.57-12.33-4-17.9-2.28-3.67-3.66-7.89-5.79-11.67-1.26-2.25-3.23-4.1-4.81-6.19s-2.86-4-4.17-5.81c-1-.27-2.56-.2-3.24-.94-5.41-5.82-12.51-7.76-19.92-9.12-.72-.13-1.65,0-2.14-.44-1-.84-2.48-2-2.42-3,.06-1.1,1.38-2.47,2.49-3.12,11-6.4,21.94-12.91,33.15-18.92,9.81-5.26,19.9-10,29.94-14.79,6.33-3,12.82-5.72,19.23-8.57,4.95-2.2,9.84-4.51,14.84-6.58,8.58-3.56,17.18-7.06,25.84-10.43q10.28-4,20.72-7.62a44.28,44.28,0,0,1,7.38-1.5c2.07-.34,2.78.73,2.13,2.62-1.28,3.66-2.55,7.33-4,10.9a4.58,4.58,0,0,1-2.46,2.19c-3.89,1.49-7.88,2.75-11.82,4.13-5.9,2.07-11.89,4-17.68,6.31C705,204,693.83,208.74,682.7,213.6q-15,6.56-29.79,13.5c-5.81,2.72-11.55,5.63-17.15,8.75-3.62,2-7,4.55-10.75,7.09,3.07,2.71,5.73,5,8.37,7.38,13.57,12,20.24,27.43,21.91,45.12a56.75,56.75,0,0,1-2.17,22.26c-1.39,4.49-3.15,8.87-4.75,13.3-.11.29-.22.71-.45.82-3.29,1.61-3.45,5.5-5.73,7.8-2.43,2.46-5,4.8-7.57,7.12-7.71,6.92-16.92,10.47-27,12.31-5.94,1.08-11.8,2.55-17.82,1.16-5.41-1.24-10.79-2.66-16.1-4.28-3.94-1.2-4.48-1-4.92,3.06-.73,6.68-1.61,13.34-2.18,20-.81,9.61-1.43,19.25-2.07,28.88-.69,10.28-1.29,20.57-2,30.86-.58,8.79-1.26,17.58-1.83,26.38-.64,9.66-1.35,19.32-1.76,29-.42,9.94-.36,19.9-.81,29.84-.29,6.39-1.21,12.74-1.69,19.13-.37,4.88-.48,9.79-.74,14.69-.43,8.19-1,16.38-1.3,24.57s-.38,16.36-.68,24.53c-.34,9.46-.85,18.92-1.24,28.37-.26,6.23-.52,12.45-.63,18.68-.12,6.68,0,13.37-.13,20.06-.1,3.77-.64,7.53-.92,11.3a46.34,46.34,0,0,0-.24,6.55c.22,3.26,1.36,3.88,4.63,2.81,3.66-1.21,7.3-2.5,11-3.71,10.3-3.43,20.87-3.25,31.52-2.6a44.33,44.33,0,0,1,21.85,7.06A96.17,96.17,0,0,1,633.86,707c8.71,8.53,12.92,19.58,15.14,31.23,1.1,5.79.86,11.93.55,17.87A46.89,46.89,0,0,1,647,769.32a118,118,0,0,1-8.14,18.09,91.7,91.7,0,0,1-11.49,16.75,77.76,77.76,0,0,1-25,18.68,43.5,43.5,0,0,0-4.55,3c3.88,2.54,7.11,4.94,10.6,6.87q10.74,5.94,21.72,11.43c7.68,3.86,15.49,7.47,23.23,11.21,3.83,1.84,7.6,3.81,11.47,5.57,5.6,2.54,11.22,5.05,16.9,7.4,6.78,2.8,13.56,5.62,20.47,8.09,16.77,6,33.49,12.19,50.46,17.57a544.64,544.64,0,0,0,61.58,15.71c7.33,1.41,14.59,3.31,22,4.52,11.16,1.82,22.38,3.32,33.6,4.8,10.23,1.34,20.47,2.59,30.73,3.64,6.69.69,13.42,1.09,20.15,1.37,8.53.36,17.07.46,25.6.68,7.36.2,14.73.8,22.06.51,9.34-.37,18.65-1.49,28-2.24,6.41-.52,12.83-.82,19.22-1.48,12.22-1.26,24.45-2.57,36.64-4.13,9.18-1.18,18.31-2.69,27.44-4.2a387.74,387.74,0,0,0,40.53-9c11.11-3.09,22.36-5.7,33.5-8.69,8-2.15,16-4.42,23.85-6.94,3.65-1.17,7-3.23,10.61-4.62,4.64-1.79,9.41-3.22,14.08-4.95,4.52-1.68,9-3.45,13.45-5.36,12.92-5.58,26-10.89,38.64-17,13.53-6.49,26.73-13.65,40-20.7,5.59-3,10.93-6.45,17.19-10.17-2-1.23-3-2-4.16-2.56a93,93,0,0,1-21.89-14.63c-4.36-3.92-7.85-8.83-11.75-13.27-8.1-9.25-11.31-20.91-14.74-32.18-1.9-6.23-1.17-13.39-1-20.12.3-9.83,3.71-18.8,8.81-27.17a67.77,67.77,0,0,1,16-17.56c12-9.6,26-12.34,40.56-12.33,12.57,0,24.88,2.7,35.76,9.77a5.57,5.57,0,0,0,2,.91c1.22.23,2.74.71,3.64.2.61-.35.56-2.2.49-3.36-.21-3.89-.57-7.77-.88-11.65-.38-4.91-.85-9.81-1.12-14.73-.22-3.86-.08-7.75-.31-11.61-.32-5.25-.85-10.48-1.26-15.72s-.68-10.3-1.12-15.44c-.76-8.94-1.63-17.86-2.4-26.79-.12-1.34.12-2.72.06-4.07-.44-9.55-.82-19.1-1.42-28.64-.45-7-1.21-14-1.81-21-.15-1.78-.19-3.57-.3-5.35-.6-9.75-1.18-19.5-1.81-29.24-.56-8.73-1.09-17.45-1.8-26.17-.92-11.29-2.08-22.56-3-33.85-.46-5.67-.46-11.38-.89-17.06-.72-9.75-1.68-19.48-2.41-29.23-.56-7.51-.88-15-1.37-22.56q-.9-13.54-1.92-27.08c-.26-3.38-2.32-4.58-5.53-3.17s-6,3-9,4.42a61.46,61.46,0,0,1-42.17,3.75c-7.22-1.88-13.3-5.86-19.33-10.2a43.49,43.49,0,0,1-13.68-16.54c-2.64-5.36-4.17-11.32-5.65-17.15-2.54-10-1.72-19.9.5-29.92,3.48-15.71,12.73-27.36,24.72-37.28,3.07-2.53,6.31-4.86,9.47-7.29,2.8-2.16,2.76-2.86,0-4.85-7-5-14.73-8.41-22.7-11.51-5.08-2-9.79-4.87-14.76-7.13-5.91-2.7-11.91-5.2-17.9-7.71-8.87-3.7-17.71-7.51-26.69-10.93-6.33-2.41-12.9-4.19-19.33-6.35-6.17-2.07-12.27-4.37-18.45-6.38-4.25-1.39-8.59-2.52-12.91-3.67-5.59-1.48-11.2-2.87-16.8-4.28-6.11-1.54-12.2-3.15-18.33-4.56-7.16-1.65-14.32-3.28-21.54-4.6-9.9-1.81-19.84-3.35-29.76-5-7.78-1.26-15.55-2.5-23.34-3.65-2.81-.41-5.67-.59-8.5-.82-9.43-.75-18.84-1.56-28.28-2.18-4.28-.29-8.6-.06-12.9-.29-6.71-.37-13.41-1-20.12-1.36-3.36-.18-6.75,0-10.12.05-6.19,0-12.39-.18-18.57,0-8.57.29-17.14.84-25.7,1.37C911.9,156.23,910,156.19,909.14,153.35Z" transform="translate(-537.27 -140.8)"/><path d="M1063.06,868.62c-5.4.8-10.81,1.56-16.21,2.41-3,.47-5.94,1.31-8.95,1.59-6.11.57-12.25.85-18.37,1.32-2.73.2-5.44.59-8.16.84-.8.08-1.62-.09-2.41,0-1.54.17-3.07.47-4.62.65-3.22.38-6.45.82-9.68,1.05-7.11.5-14.23,1.17-21.35,1.26-14.48.18-29,.42-43.45-.13-13.92-.53-27.81-1.9-41.7-3.14-8.66-.78-17.31-1.8-25.91-3.11-11.78-1.79-23.56-3.61-35.22-6.05-11.49-2.41-22.84-5.53-34.22-8.47-9.18-2.38-18.32-4.91-27.45-7.48-8.24-2.32-16.57-4.45-24.64-7.27q-18.71-6.55-37.09-14c-8.94-3.59-17.72-7.62-26.43-11.76-6.71-3.18-13.19-6.85-19.79-10.26-3.07-1.58-6.31-2.88-9.24-4.69-1.43-.88-2.33-2.63-3.47-4,1.53-1.11,2.92-2.57,4.61-3.27,5.22-2.15,11-3.22,15.74-6.13a49.84,49.84,0,0,0,21.27-26.4,79.88,79.88,0,0,0,4.27-34.74c-.62-6.26-2.91-12.38-4.63-18.51a96.21,96.21,0,0,0-3.66-10.69,40.18,40.18,0,0,0-3.71-6.53c-6.77-10.3-15-19.31-25.79-25.32a56.81,56.81,0,0,0-27-7.68c-6.62-.12-13,.06-19.07,2.63-2.78,1.17-5.42,2.63-8.19,3.82a4,4,0,0,1-2.84.29c-.53-.24-.8-1.61-.76-2.46q.57-13.24,1.29-26.46c.59-11,1.16-22.06,1.9-33.07.65-9.65,1.64-19.28,2.27-28.94.33-5,.06-10,.32-15.06.31-5.87.89-11.73,1.36-17.6.34-4.18.83-8.36,1-12.56.32-6.09.34-12.21.72-18.3.77-12.19,1.78-24.36,2.54-36.55.36-5.77.26-11.57.6-17.35.57-9.77,1.41-19.52,2-29.29.62-10.89,1.08-21.78,1.52-32.67.09-2.2-.4-4.43-.33-6.63.13-3.91,2.11-4.89,5.56-3.18,9.64,4.79,19.55,8.74,30.63,6.86A55,55,0,0,0,659.05,388c7.62-3.34,14.16-8.38,20.52-13.8,8.34-7.1,12.87-16.5,17.44-26a63.7,63.7,0,0,0,6.3-28.7,60.9,60.9,0,0,0-8.54-31.19c-2.34-3.84-6.09-6.89-9.46-10-2.24-2.09-5-3.65-7.44-5.49-1.51-1.12-1.61-4.23.13-5.63a34.42,34.42,0,0,1,7.08-4.61c5.91-2.67,12-4.95,17.95-7.5,5.1-2.17,10.06-4.71,15.23-6.7q16-6.17,32.23-11.87c8.5-3,17-5.93,25.71-8.46s17.61-4.58,26.43-6.81c4.57-1.16,9.12-2.4,13.74-3.36q15.39-3.19,30.85-6.12c6.38-1.19,12.8-2.2,19.23-3.08,8.13-1.12,16.27-2.19,24.44-3,9.53-.93,19.09-1.63,28.65-2.27,8-.53,16-1,24-1.15,8.37-.1,16.75.32,25.12.47,4.2.08,8.4-.07,12.59.11,12.82.57,25.68.81,38.44,2,12,1.14,23.87,3.21,35.76,5.16,10.48,1.72,20.92,3.71,31.33,5.81s20.76,4.23,31,6.76c8.27,2,16.41,4.6,24.57,7.05,7.22,2.16,14.47,4.27,21.58,6.77,8.81,3.09,17.5,6.53,26.22,9.88,6.09,2.34,12.18,4.67,18.17,7.23q12,5.13,23.75,10.64c2.84,1.32,3,2.86.72,5.07a47.2,47.2,0,0,1-5.46,4.74c-7.22,5.15-11,12.5-14.35,20.47a58.67,58.67,0,0,0-4.09,19.3c-.62,9.87.22,19.71,5.19,28.68a2.54,2.54,0,0,1,.43.83c.82,6,5.29,10.29,7.51,15.53s6.17,8.37,9.81,12,7.54,7.92,12.18,9.89c7.64,3.26,15.85,6,24,6.89,7.57.83,15.44-1,23.17-1.73,3.5-.35,4.87.76,5,4.16.22,4.57.64,9.14,1,13.7l.45,6.3c.64,8.69,1.29,17.39,1.89,26.08.34,4.91.58,9.83.88,14.74.58,9.23,1.15,18.47,1.78,27.71q.88,13.17,1.88,26.35c1,12.79,2,25.58,3,38.37.3,3.84.45,7.69.71,11.54.58,8.72,1.14,17.45,1.79,26.17.6,8,1.32,16,2,23.93.1,1.15,0,2.32.12,3.47.77,9.52,1.58,19,2.33,28.55.18,2.32,0,4.65.23,7,.48,5.51,1.12,11,1.63,16.52.29,3.25-.73,3.88-3.81,3-5.79-1.76-11.58-4.36-17.48-4.71-7.91-.48-16-.6-23.76,2.77s-15.19,6.76-21.48,12.14c-5,4.32-9.12,9.73-13.79,14.5-5.57,5.69-7.66,13.06-10.17,20.24a115.73,115.73,0,0,0-4,12.23c-.75,3.34-.42,6.9-.82,10.32-1.09,9.23.41,18.28,3.25,26.85,2.54,7.7,5.59,15.52,12.2,21.11,3.43,2.9,6.55,6.17,10.09,8.92,2.54,2,5.56,3.33,8.3,5a33.29,33.29,0,0,1,5.28,3.78c2.26,2.17,1.73,4.35-1.06,5.79-6.93,3.55-13.8,7.24-20.8,10.65-5,2.43-10.09,4.51-15.16,6.71l-23,10a4.7,4.7,0,0,1-.84.42c-6.47.9-11.67,5-17.76,7-8.86,2.8-17.57,6-26.38,9-6.15,2.07-12.32,4.12-18.56,5.9-5.71,1.63-11.54,2.82-17.29,4.32-4.47,1.17-8.84,2.75-13.34,3.74-9.3,2-18.67,3.78-28,5.73-2.25.47-4.42,1.33-6.66,1.87-2.54.62-5.11,1.08-7.66,1.61Zm-374-598.55a22.19,22.19,0,0,0,1.39,2.26c1.08,1.29,2.24,2.53,3.34,3.8,9.31,10.73,15.64,22.77,16.06,37.3.14,4.91.43,9.9-.2,14.74-.93,7-1.62,14.38-4.23,20.86-4.12,10.24-8.91,20.44-17,28.41-4.28,4.24-8.78,8.48-13.84,11.68s-11.07,5.44-16.76,7.83a41,41,0,0,1-20.48,2.54c-6.11-.66-12.09-2.61-18.09-4.12-1.61-.4-2.66-.51-2.9,1.51-.31,2.5-.89,5-1,7.49-.56,9.21-1,18.44-1.5,27.65-.3,5.16-.77,10.3-1.12,15.46-.63,9.55-1.32,19.1-1.83,28.66-.56,10.35-1,20.71-1.38,31.07-.15,4.08.22,8.19-.07,12.26-.67,9.21-1.94,18.4-2.35,27.63-.51,11.44.28,22.93-1.92,34.29-.37,1.91.2,4,.12,6-.21,4.76-.53,9.52-.83,14.28-.11,1.75-.35,3.51-.39,5.27-.05,2.29.08,4.6,0,6.89,0,2.06-.24,4.11-.2,6.16s.56,4.4.37,6.56c-.43,4.89-1.24,9.74-1.74,14.62a81.39,81.39,0,0,0-.41,9.1c0,2.13,1.33,2.78,3.42,2.33,4-.85,8-1.75,12-2.25,6.41-.8,12.86-.77,19.05,1.3,5.34,1.79,10.54,4,15.79,6.06,11.32,4.43,19.52,12.84,26.27,22.37,5.22,7.36,10,15.22,12.57,24.12,1.46,5.13,3.23,10.19,4.46,15.38,1.78,7.54.57,15.24.7,22.87a39,39,0,0,1-.33,6.31A63.1,63.1,0,0,1,689.57,770c-2.39,4.41-4.52,9.25-8,12.75-5.08,5.19-11.16,9.42-16.92,13.93-2.37,1.86-2.52,2.47.18,3.87,4.57,2.36,9.13,4.78,13.84,6.83,13.28,5.76,26.58,11.49,40,17q15.16,6.17,30.63,11.59c7.06,2.5,14.31,4.5,21.49,6.64,8.15,2.43,16.27,5,24.49,7.11,6.68,1.73,13.51,2.87,20.25,4.38,8.83,2,17.59,4.34,26.48,6,7.71,1.43,15.58,2,23.36,3.11,3.53.5,7,1.3,10.51,2,1,.2,2.05.43,3.09.53q9.57.93,19.14,1.78c7.65.69,15.29,1.51,23,2,9.81.6,19.65.91,29.47,1.31,2.17.09,4.34.12,6.5,0s4.36-.52,6.54-.59c8.69-.29,17.41-.12,26.06-.84,13.61-1.13,27.18-2.76,40.75-4.32,10-1.16,20.06-2.27,30-3.91,11.59-1.9,23.12-4.16,34.61-6.62,9.62-2.06,19.15-4.58,28.7-7,6.3-1.57,12.66-3,18.84-5,7-2.24,13.76-5.09,20.68-7.52,7.61-2.69,15.33-5.06,22.9-7.84,6.8-2.5,13.54-5.18,20.17-8.1,7.77-3.41,15.41-7.13,23.08-10.79,5.41-2.58,10.81-5.19,16.11-8,2.23-1.17,2.09-2.48,0-3.9-6.35-4.35-12.36-8.76-16.67-15.62-5.58-8.86-10.56-17.78-12.58-28.11a90.49,90.49,0,0,1,.56-36.9c2.59-11.9,7.92-22.53,14.94-32.33a102.49,102.49,0,0,1,9.56-11.26c6.13-6.36,13.64-10.77,21.48-14.72a58.77,58.77,0,0,1,32.35-6.28c3.54.33,7.06.93,10.6,1.38,1.74.22,2.89-.33,2.85-2.36-.09-4.4-.12-8.81-.26-13.21a41.19,41.19,0,0,0-.53-4.94c-.58-3.89-1.53-7.75-1.78-11.66-.61-9.44-.86-18.92-1.34-28.37-.39-7.85-.89-15.68-1.38-23.52-.33-5.31-2-10.59-.31-16a2.72,2.72,0,0,0-.22-1.51,38.25,38.25,0,0,1-1-21.64,3.34,3.34,0,0,0,0-1.54,62.32,62.32,0,0,1-1.85-7.48c-1.09-9.41-2.12-18.82-2.88-28.26-.65-8.07-.89-16.18-1.35-24.26-.38-6.61-.74-13.22-1.26-19.82-.48-6-1.15-11.89-1.76-17.83-.43-4.18-1-8.35-1.34-12.54-.52-6.08-.78-12.18-1.42-18.24-.44-4.17-1.75-5.14-6.08-4.5a63.94,63.94,0,0,1-25.63-1.48c-10.35-2.72-20.33-7.17-28.13-15-8.91-9-16.21-19.16-20.83-31-1.63-4.18-2.18-8.78-3.14-13.21a94.14,94.14,0,0,1-2.21-11.58c-1-11.83.53-23.39,5.8-34.11,2.62-5.33,6.19-10.19,9.29-15.28,1.24-2,3.83-5,3.23-6-1.16-2-4-3.25-6.39-4.26-7.41-3.13-14.85-6.24-22.45-8.85-2.64-.91-3.48-1.78-2.74-4.42l-1,1.38-1.58-2.38-1.14,2.7c-1-.34-2-.65-3-1-5.38-2.09-10.68-4.48-16.17-6.24-8.77-2.81-17.68-5.2-26.53-7.77-6.58-1.91-13.12-4-19.76-5.67-7.51-1.88-15.13-3.33-22.68-5.07-5.93-1.36-11.75-3.34-17.74-4.24-17.36-2.6-34.78-4.85-52.19-7.1-7.7-1-15.43-1.89-23.18-2.44-9.95-.71-19.94-1.05-29.91-1.51-3.65-.16-7.31-.22-11-.34-7-.23-14-.82-21-.63-7.72.22-15.42,1.21-23.13,1.74-10.07.7-20.14,1.27-30.21,1.93-1.57.1-3.12.43-4.68.62-7.81.92-15.66,1.54-23.4,2.82-9,1.49-17.86,3.54-26.78,5.38-9.53,2-19.06,3.91-28.56,6-4.59,1-9.11,2.35-13.66,3.54-7.29,1.91-14.7,3.46-21.84,5.82-12.63,4.19-25.08,8.87-37.61,13.33-1.39.49-2.86.75-4.21,1.32-9.06,3.83-18.13,7.66-27.13,11.63C698.17,265.51,693.77,267.8,689.09,270.07Z" transform="translate(-537.27 -140.8)"/><path d="M1001.69,485.61c-.69.33-1.68.49-2.12,1.06-5.39,6.93-10.31,14.26-16.17,20.76a28.24,28.24,0,0,1-15.27,8.85c-5.38,1.08-12-5.06-12.22-11.14-.18-5.29,0-10.59,0-16.32a8.53,8.53,0,0,0-2.3,1.44c-3.59,4.35-7.23,8.68-10.58,13.23-4.5,6.1-15.92,11.43-22.18,9.45a12.31,12.31,0,0,1-6-4.94c-2.4-3.74-2.42-8.2-2-12.56,0-.42.29-.87.19-1.23-.38-1.32-.86-2.61-1.31-3.91a16,16,0,0,0-3.06,2.43c-4.47,5.79-8.51,12-14.8,16.07-7.59,4.88-18.34,4.89-20.75-6.62a50.52,50.52,0,0,1-.1-18.39,65.33,65.33,0,0,1,15.58-32.94c9.8-11,20.2-21.42,33.93-27.66,4.16-1.9,8.27-4.12,12.65-5.25,4.92-1.28,9.54-.17,12.51,4.75.46.75,2.72,1.43,2.94,1.16,3.37-4.15,8.28-2.43,12.43-3.35,2.5-.55,6.05-1.09,7,1.8.58,1.79-1,4.77-2.41,6.61-4.31,5.66-9.11,10.95-13.51,16.54-1.86,2.36-3.1,5.19-4.77,7.71-4,6-8.06,11.94-12,17.94-4.45,6.69-9.05,13.31-13.16,20.21-1.83,3.07-2.74,6.72-3.82,10.18-.65,2.09-.62,4.76,1.7,5.48a10,10,0,0,0,6.84-.32,28.78,28.78,0,0,0,8.26-6.23c6.61-7.2,13.1-14.53,19.23-22.13,6.45-8,12.52-16.3,18.61-24.57,5.42-7.35,10.5-14.94,16-22.24,8.06-10.74,16.4-21.28,24.51-32,4.74-6.26,9-12.9,14-19,6.57-8,13.45-15.8,20.53-23.38,5.62-6,11.69-11.62,17.67-17.3,4.32-4.11,10.24-5.1,14.1-2.9,3,1.7,4.36,4.51,3.7,7.38a36,36,0,0,1-4.52,10.89,105.45,105.45,0,0,1-10.49,14.1c-5,5.61-8.53,12.41-14.72,17.13-3.14,2.39-5,6.4-7.83,9.26-4.36,4.37-9.14,8.31-13.62,12.57-4.08,3.88-8,8-12,11.92-3.31,3.23-6.83,6.25-10,9.6a135.47,135.47,0,0,0-9.21,10.67c-3.26,4.24-6,8.92-9.32,13.06-6.37,7.86-11.79,16.38-17.53,24.65-4.65,6.69-8.39,14-12.49,21.1a4.41,4.41,0,0,0-.81,2.66c.47,2.46.5,5.95,2.09,7.06,3.18,2.21,7.22.85,9.93-1.53a142.06,142.06,0,0,0,13.78-13.87c5.68-6.59,11-13.47,16.26-20.45,2.82-3.77,4.95-8.05,7.54-12a80.71,80.71,0,0,1,7.1-10c10.88-12.07,23.31-22.22,38.26-28.88a41.71,41.71,0,0,1,12-3.46c4-.47,8.21.39,10.6,4.59a21.47,21.47,0,0,0,2.12,2.58c2-2.3,4-4.27,5.64-6.51q13.27-18.44,26.38-37c5.46-7.72,10.83-15.51,16.2-23.3q4.17-6,8.18-12.21a6.36,6.36,0,0,1,5.83-3.13c3,.08,6.08.11,9.1.41,1.1.11,2.94.8,3,1.43a6.53,6.53,0,0,1-.84,4.42c-6.6,9.06-13.37,18-20.09,27-4.52,6-9.16,11.94-13.53,18.05-4.28,6-8.21,12.16-12.43,18.17-7,10-14.14,19.82-21.16,29.77-4.23,6-8.3,12.11-12.54,18.1-3.62,5.12-7.58,10-11,15.24-4.6,7-8.93,14.2-13.15,21.45a13.73,13.73,0,0,0-1.52,6c-.15,3.28,2.37,5.29,5.57,4.31a19.38,19.38,0,0,0,6.55-3.5A122.33,122.33,0,0,0,1084.73,480c5-7.25,9.68-14.75,15-21.76,10.66-14.11,24.29-24.64,40.29-32.15,5-2.34,10-4.4,15.6-4.48,4.24-.06,8.45,4.33,7.6,8.45A24.69,24.69,0,0,1,1157,441.9c-4,4.48-8.2,8.73-13.41,11.74-6.78,3.92-13.71,7.62-20.67,11.23-3,1.55-6.19,2.6-9.27,4a4,4,0,0,0-1.69,1.39c-5.11,7.78-11.5,14.85-14.24,24-1,3.4-1.72,7.36-1,10.73,1,4.59,6.21,5.9,11.19,4,6-2.31,10.42-6.55,14.62-11.15,5.16-5.65,10.49-11.17,15.44-17s9.25-11.69,13.86-17.55c6.36-8.08,12.56-16.31,19.18-24.18a102,102,0,0,1,12-11.86c3.25-2.76,7.4-2.25,11.16-.91,4.09,1.44,5,5.1,5.21,8.94.2,3.1.28,6.2.42,9.3l1.1.51c3-2.89,6.11-5.62,8.88-8.68a47.25,47.25,0,0,1,20.79-13.59c6.44-2.09,15.9,4.21,16.47,12,.38,5.09-1.91,9.25-3.83,13.48-4.66,10.27-12.67,18.21-19.68,26.8-4.95,6.08-10.79,11.45-16.17,17.18-3.44,3.66-5,8.27-5.94,13-.8,4.08,3.6,7.38,7.58,6.06,5.55-1.85,9.69-5.71,13.71-9.66,3.42-3.37,6.69-6.91,9.8-10.58,4.27-5,8.34-10.25,12.46-15.42,2.15-2.71,4.16-5.53,6.33-8.22a6.6,6.6,0,0,1,2.48-1.87,2.6,2.6,0,0,1,2.24.19,2.35,2.35,0,0,1,.63,2.16c-1.42,2.41-3,4.72-4.66,7-2,2.71-4,5.37-6.12,8-1.71,2.11-3.7,4-5.37,6.13-7.29,9.28-15.31,17.89-25.09,24.51-4.89,3.3-11.6,5-16.36.73a9.19,9.19,0,0,1-2.78-4.28c-3.7-14.87,2.06-27.15,10.31-39.05,6.11-8.81,14.28-15.63,21.09-23.73,2.56-3.05,5.55-5.73,8.27-8.65a13,13,0,0,0,2.16-3.09c2.44-5,1.31-6.42-4.12-6.83-6.07-.47-10.13,2.91-14.22,6.37a152.71,152.71,0,0,0-13.27,12c-5.59,6-10.85,12.32-15.88,18.78-3.28,4.22-5.88,9-8.85,13.43-6.84,10.28-13.64,20.59-20.64,30.76-1.86,2.71-4.37,4.83-8.21,4.33-1.65-.21-3.39.26-5,0s-3.82-.47-4.37-1.47.27-3.18,1.07-4.49q6.18-10.08,12.69-20c6.1-9.2,12.45-18.23,18.49-27.47,5.1-7.81,10-15.77,14.79-23.77,1-1.59,1.1-3.67,1.6-5.45-8-1.49-11.64,3.93-15.54,8.59-4.51,5.38-8.68,11-13.06,16.52-7.19,9-14.16,18.23-21.71,26.95a336.91,336.91,0,0,1-23.53,25c-4.8,4.51-11,7.3-18.21,6.31-4.35-.61-9.19-4.88-10.59-9.13a36.58,36.58,0,0,1-1.84-16.75c.09-.7-.66-1.52-1-2.28a7.4,7.4,0,0,0-2.24,1.29c-3.61,4.59-6.81,9.54-10.77,13.79a76.9,76.9,0,0,1-12.5,10.85c-6.33,4.36-18.2.22-17.77-9.93.13-3,.42-6,.56-9a24,24,0,0,0-.43-3.31c-2.32,2.67-4.21,4.55-5.74,6.68a52.81,52.81,0,0,1-16.36,14.5c-8.09,4.79-17.27.42-18.54-8.9C1002.14,497.39,1002.1,491.81,1001.69,485.61Zm7.35,15.92c.61,4.56,3.42,6.87,7.65,5.89,1.22-.29,2.66-.51,3.51-1.29,6.06-5.59,12.76-10.7,17.8-17.11,10.29-13.08,19.84-26.76,29.34-40.44,4-5.8,8.83-11.35,9.48-19,.25-3-1.78-5.69-4.66-5.26a16.8,16.8,0,0,0-6.25,1.9,55.7,55.7,0,0,0-7.82,6.07c-4.15,3.7-8.55,7.23-12.1,11.46-5.79,6.89-10.94,14.3-16.42,21.45-2.29,3-4.89,5.75-7,8.84a84.85,84.85,0,0,0-7.09,11.52C1013,490.75,1011.15,496.21,1009,501.53Zm-124.27,5.11a8.31,8.31,0,0,0,2.73-1c4-3,8.14-5.89,11.69-9.37,8.5-8.34,15.16-18.18,21.76-28,4.95-7.4,9.46-15.11,14.64-22.35a61.42,61.42,0,0,0,8.31-16.41c.58-1.71.94-3.77-1.2-4.23-2.41-.53-5.58-1.12-7.43,0a62.75,62.75,0,0,0-12.14,9.45c-4.77,4.74-9,10-13.35,15.16-2.86,3.46-5.49,7.13-8,10.85-5.42,7.95-11,15.82-16,24a67.37,67.37,0,0,0-6.36,14.52A5.69,5.69,0,0,0,884.77,506.64Zm143.11-101.9,1.08.83c3.12-2.6,6.52-4.92,9.29-7.85,6.82-7.2,13.26-14.75,20-22a160.65,160.65,0,0,0,18.36-23.87c1.66-2.63,2.46-5.8,4-9.54-4.67.29-8,1.07-10.5,3.58-2.32,2.31-3.95,5.4-6.48,7.39-6.88,5.41-10.64,13.14-15.52,20-4.11,5.81-7.61,12.06-11.45,18.07C1033.77,395.85,1030.8,400.28,1027.88,404.74Zm96,52.17a8.31,8.31,0,0,0,1.66.1c11.25-4.85,20.67-12.28,29.06-21.05a10.56,10.56,0,0,0,2.25-4.8c.58-2.48-.66-3.54-3.15-3-4.48,1-8.28,2.56-11.33,6.7-4.08,5.52-9.47,10.07-14.09,15.22C1126.62,452,1125.51,454.37,1123.9,456.91Z" transform="translate(-537.27 -140.8)"/><path d="M771.33,492.52,794.89,471c1.67,2.84,1.8,5.39-.33,7.45-5.84,5.68-11.82,11.22-17.82,16.75A110,110,0,0,1,766.58,504c-5.21,3.72-10.73,7-16.19,10.36a12.17,12.17,0,0,1-4.84,1.85c-1.06.11-3.12-.9-3.18-1.55a5.59,5.59,0,0,1,1.38-4c3.09-3.07,7.09-5.39,9.63-8.82,7.94-10.71,15.7-21.57,22.89-32.79,6-9.39,11.37-19.24,16.6-29.1,6.23-11.77,12.41-23.59,17.87-35.73,3.6-8,5.87-16.58,8.78-24.89.49-1.37,1.46-2.58,1.81-4,1.58-6.09,3.14-12.19,4.43-18.34.58-2.75.4-5.65.74-8.46.94-7.62-3.73-12.34-8.75-16.75-5.22-4.6-12-4.29-18.24-4.38a70.6,70.6,0,0,0-38.11,10.18c-5.48,3.31-11.2,6.22-16.64,9.59a48.88,48.88,0,0,0-7.1,5.78c-7,6.35-14.26,12.35-20,20-2.3,3.06-5.41,5.56-7.47,8.75-3.87,6-7.08,12.44-10.87,18.51-4.11,6.59-6.67,13.77-8.93,21.12a62.43,62.43,0,0,0-2.11,29c.87,5.11,4.1,9.17,7.91,12.57,2,1.73,2.89,0,3.21-1.67,1-5.15,1.37-10.47,2.83-15.49,2.27-7.83,5.13-15.51,7.94-23.18a107.53,107.53,0,0,1,4.81-11,128.06,128.06,0,0,1,21.75-31.88c5.39-5.68,10.73-11.15,17.48-15.24,5.52-3.34,11.24-5.24,17.67-4.3,5.62.82,8.78,4.83,10.86,9.56,3.53,8,2.38,16.47.16,24.47-3.62,13.07-8.1,26-16.31,37a221.54,221.54,0,0,1-18,21.36c-8,8.27-17.23,15-28.56,18.17-3.72,1-7.57,1.63-11.37,2.33-2.55.47-3.54,1.49-2.91,4.34,1.67,7.67,5,14,13.5,15a25.36,25.36,0,0,0,16.36-3.5,67.37,67.37,0,0,0,8.81-6.94c1.78-1.57,3.58-3.42,5.82-1.85.52.36-.37,4-1.56,5.31-7,7.46-15.1,13.3-25.78,13.48-6.52.1-12.14-2.79-16.75-7.5a18.88,18.88,0,0,1-5.38-13.06,8.54,8.54,0,0,0-4.94-8,22.06,22.06,0,0,1-12-17.51,142,142,0,0,1-1.28-18.52c.17-10.65,3.74-20.59,8-30.17a131.34,131.34,0,0,1,10.56-20c5.19-7.69,10-15.74,17.14-22,4.9-4.37,9.42-9.18,14.39-13.47,9.43-8.12,19.63-15.25,31-20.24,11.1-4.85,22.74-8.43,35.06-8.16,4.2.09,8.41,1.31,12.57,2.22a43.11,43.11,0,0,1,7.18,2.28,20.94,20.94,0,0,1,6,3.18c4.53,3.94,9.83,7,13.11,12.41,3.6,6,5.17,12.46,5.82,19.13,1.33,13.67-2.32,26.44-8.3,38.6-3.94,8-7.52,16.26-12.29,23.75-7,11-14.95,21.55-22.6,32.2q-6.11,8.52-12.6,16.76c-5.23,6.63-10.64,13.12-16,19.68-.37.45-.68.95-1,1.43Zm-66.66-32.2c.33,4.87,1.7,7.23,4.83,6.9a35,35,0,0,0,8.26-1.92c13.92-5.05,22.93-16.08,31.7-27.08,5-6.27,8.84-13.47,13.15-20.29a109,109,0,0,0,15.26-38.62c.78-4.23,0-7.3-3.4-9.89a11.3,11.3,0,0,0-11.62-1.63,57,57,0,0,0-12,7.48c-5.38,4.16-9.43,9.68-14,14.64-6.15,6.65-10.35,14.42-15.06,21.85a102.26,102.26,0,0,0-12.26,28.12C707.7,446.64,706.27,453.51,704.67,460.32Z" transform="translate(-537.27 -140.8)"/><path d="M842,483c1.78-1.93,3.67-3.76,5.32-5.79q6.16-7.55,12.13-15.24c3-3.89,6.08-7.78,8.88-11.83,5.26-7.63,10.48-15.29,15.47-23.1,6-9.44,11.65-19.13,17.7-28.56,6.67-10.42,13.94-20.47,20.36-31,5.95-9.78,14.46-17.12,22.29-25.12,2.6-2.66,6.51-4,9.19-6.61,4.95-4.82,11.21-7.32,17.14-10.28a35.94,35.94,0,0,1,20.71-4c2.61.32,5.29,0,7.92.13,1.55.09,3.43.13,4.53,1,1.48,1.18,2.36,3.13,3.5,4.74-2.06.63-4.53,2.31-6.1,1.69-6.47-2.56-12.87-2-19.26-.5-8.8,2.06-16,7.08-22.56,13.1-3.54,3.26-7.15,6.47-10.42,10-3.81,4.12-7.28,8.55-10.89,12.86-2.16,2.58-4.39,5.1-6.45,7.76-3.07,4-6,8.08-9,12.08-3.28,4.3-6.63,8.55-9.92,12.84-1.14,1.5-2.16,3.09-3.29,4.58-2.65,3.49-5.39,6.92-8,10.44-1.94,2.6-3.76,5.29-5.61,7.95-5.29,7.67-10.51,15.38-15.88,23-6.2,8.79-12.36,17.62-18.88,26.19A207,207,0,0,1,844.37,489c-7.7,7.86-16.13,15-24.29,22.42a3.8,3.8,0,0,1-2.18,1c-1.08,0-2.84,0-3.12-.61a4.35,4.35,0,0,1,.28-3.5c1.74-3,4-5.69,5.66-8.7,3.53-6.21,7.12-12.41,10.17-18.86,3.67-7.77,7-15.73,10.12-23.72,3.4-8.6,6.21-17.43,9.77-26,5.38-12.9,11.07-25.68,16.84-38.41,3-6.63,6.44-13,9.68-19.57l-.69-.65a17.52,17.52,0,0,0-3,2.65c-7.49,10.39-14.88,20.85-22.33,31.27Q837.43,425.73,823.54,445c-3.49,4.86-6.78,9.89-10.58,14.49-3.33,4-7.27,7.57-10.92,11.35-1.28,1.33-2.49,2.74-3.73,4.11-2.58-2.46-2.67-5-.4-7.69,8.21-9.78,16.75-19.32,24.49-29.45s14.86-21.07,22.24-31.64c3.72-5.33,7.36-10.72,11.21-16,6.28-8.53,12.36-17.24,19.17-25.35,5.6-6.66,12.13-12.54,18.24-18.78.74-.75,1.43-1.55,2.13-2.34,1.63-1.8,3.54-2.86,5.8-1.28,1.52,1.08,1,4-.82,5.91a26.91,26.91,0,0,0-3.34,3.76c-2.69,4.18-5.74,8.24-7.67,12.76-2.65,6.21-4.45,12.79-6.53,19.24-2.53,7.87-4.64,15.9-7.54,23.64-4.78,12.76-10,25.36-15.13,38-2.4,5.92-4.81,11.84-7.57,17.58-1.27,2.66-3.51,4.82-5.07,7.36-2.28,3.71-4.35,7.55-6.52,11.34Z" transform="translate(-537.27 -140.8)"/><path d="M1201.35,579.41c2.15-.78,3.55-1.76,4.88-1.69,6.18.33,12.34,1.19,18.51,1.38,3.74.12,7.51-.64,11.27-1,.94-.1,1.88-.3,2.82-.34,5.52-.21,6.2.4,6.21,6a35,35,0,0,1-.48,6,2.51,2.51,0,0,1-1.6,1.59c-.38.1-1.12-.83-1.57-1.4-3-3.7-5.41-7.45-11.16-7.94-3.58-.31-7-.85-10.36.38-1.09.4-2.51,1.73-2.6,2.74-.44,4.89-.55,9.82-.6,14.73,0,2.52,1.48,3.72,4,3.86,5.31.3,9.07-1.88,11.58-6.69.42-.79,1.45-1.27,2.19-1.89.38.78,1.11,1.58,1.09,2.35q-.19,7.89-.71,15.77c-.07,1.1-.77,2.15-1.47,4-1-1.39-2.15-2.24-2.31-3.24-.67-4.09-3.59-4.74-6.91-5-1.55-.14-3.07-.51-4.61-.65-3-.25-3.27,2.23-3.34,4a118.39,118.39,0,0,0,.33,12.49c.23,3.61,1.86,5.78,5.23,6.07,6.39.55,12.76.23,17.45-5.09,1.36-1.54,2-3.66,3.35-5.27.81-1,2.19-1.57,3.31-2.33.51,1.35,1.71,2.89,1.4,4a66.16,66.16,0,0,1-4.12,10.85,4.93,4.93,0,0,1-3.63,2.26c-7.22.06-14.44-.2-21.66-.38-7.61-.18-15.22-.4-22.82-.6a11.86,11.86,0,0,0-1.58.07c-4.94.6-7.14-1.67-8.75-6.46a67.13,67.13,0,0,0-7.45-15.76c-2-3-6.19-3.91-10-2.93a3.5,3.5,0,0,0-2.08,2.51c-.19,4.11,0,8.23,0,12.35a5.68,5.68,0,0,0,3.85,5.56,6.36,6.36,0,0,1,2.72,2.25c.24.38-.58,2.09-1.12,2.2a29.84,29.84,0,0,1-5.91.46c-3.54,0-7.1,0-10.63-.31-1.18-.09-2.3-1-3.45-1.59.7-1.05,1.18-2.72,2.13-3.05,4.27-1.49,3.83-5.14,4.1-8.37s0-6.33.1-9.5c.19-7.68.35-15.37.69-23a6.14,6.14,0,0,0-3.59-6.38c-1.1-.58-1.73-2-2.58-3.09,1.32-.71,2.61-2,4-2,8.33-.37,16.67-.79,25-.57,11.68.3,17.9,11.37,13.92,20.8-1.39,3.29-3.11,6.14-6.21,8.1-1.76,1.11-2.63,2.73-1.57,4.87,3,6,4.83,12.74,10.26,17.33,2.13,1.8,4.34,3.71,7.31,2s4.06-4.77,4.1-8c.11-7.68,0-15.37.09-23.06,0-3,0-6.09.32-9.1.34-3.19-.35-5.54-3.55-6.9C1204,582.07,1203.19,581,1201.35,579.41Zm-28.66,1.69-.11.45c-1,0-2.11,0-3.16,0a3.15,3.15,0,0,0-3.53,3.23c-.29,5-.45,9.9-.56,14.85-.06,2.86,1.58,4.87,4.29,4.84,4.13-.05,8.28-.16,12.13-2.43,5.63-3.33,7.47-15.22-.92-19C1178.33,581.92,1175.41,581.72,1172.69,581.1Z" transform="translate(-537.27 -140.8)"/><path d="M1052.33,580.62c2.88-6.52,2.87-6.29,9.34-6.16,10.41.21,20.82.12,31.24.11,4.72,0,6.83,1.94,6.91,6.58,0,1.37.07,2.74.07,4.12,0,2.11.31,4.8-2.38,5.07-1.07.11-2.8-2.08-3.5-3.57-1.44-3.06-3.42-5.29-6.69-6.23-.91-.26-1.86-.36-2.79-.54-2.09-.4-3.1.22-3.13,2.59-.13,10.2-.38,20.4-.65,30.6-.07,2.51-.35,5-.57,7.52-.27,3,1.14,4.86,3.74,6.31,1.29.73,3,2.36,2.94,3.45-.16,2.15-2.21,2.59-4.36,2.49-5-.23-10.07-.15-15.1-.42-1-.06-2.86-1.13-2.84-1.66.07-1.23.88-3.32,1.67-3.46,5.45-.95,5.17-4.7,5.17-8.85,0-5.34.85-10.68.92-16,.08-6.54-.12-13.08-.48-19.6-.13-2.45-3.91-3.9-6.73-2.18a25.74,25.74,0,0,0-7,6.48c-1.67,2.22-2.73,4.31-5.84,2.19-.5-.35-1.49.1-2.12-.16a6.31,6.31,0,0,1-2.76-1.7c-1.08-1.51-1.6-3.41-2.68-4.91-4-5.57-6.74-6.5-13.28-4.84-3.24.82-6.57,5-6.34,8.07.48,6.48,3.26,8.63,8.17,10.18,4.39,1.38,9,2.41,13.11,4.31,7.4,3.37,10.22,13.61,6.47,20.84-3.28,6.34-8,10.72-15.2,11.16a39.19,39.19,0,0,1-20.35-4.15,4.24,4.24,0,0,1-1.75-3.08,72.52,72.52,0,0,1,0-11c.11-1.2,1.66-2.28,2.56-3.41.88,1,2.07,1.87,2.58,3,1.08,2.49,1.57,5.23,2.71,7.68,2.82,6.1,13.2,8.06,19,3.51a9.18,9.18,0,0,0,3.47-8.65c-.36-3.88-2.89-6.13-6.36-7.48-4.6-1.79-9.15-3.73-13.81-5.35-12.68-4.39-11.92-16.9-5.66-24.82,4.78-6,11.55-6.76,18.57-6.54a33.84,33.84,0,0,1,4.69.62C1047.55,573.44,1051.24,575,1052.33,580.62Z" transform="translate(-537.27 -140.8)"/><path d="M919.52,744.64c.64-1.73,1-3,1.59-4.19,1.6-3.37,1.33-4-2.23-4.64-4.9-.93-8.68.7-11.46,4.83-2,2.91-1,8.07,2,10,5.43,3.49,11.15,3.49,17.15,1.68,3.13-.95,4.63-2.74,5.77-5.88,2.93-8.12,7.89-14.58,16.88-16.79,4.77-1.18,9.11.44,13.61,1.79,5.55,1.67,11.22,3.72,17.15,1.34a2.16,2.16,0,0,1,.94-.15c10.31.37,19.94,2.64,26.28,11.64,4.32,6.15,4.87,13,1.68,20-5.74,12.56-19.52,18.91-32.53,16.92-4.24-.65-8.53-2.52-10.52-7.12-.86-2-2.41-2.5-4.4-2.08-2.46.53-4.94,1-7.37,1.59-5.41,1.4-14-3.24-13.43-9.77a3.18,3.18,0,0,0-1-2.11,64.17,64.17,0,0,0-5.39-5,4.15,4.15,0,0,0-2.63-.62c-3.14.16-6.28.66-9.42.67a42.53,42.53,0,0,1-10.11-.7c-5.9-1.41-10-8-8.91-14.09.68-3.88,2.13-7.33,5.74-9.74s7.32-2.18,10.88-.81c3.26,1.26,3.69,4.68,3.74,7.74C923.54,741.3,923.26,743.76,919.52,744.64Zm54.87-.84c1.14,3.86,3.73,4.83,7.3,4.55,3.17-.25,6.35,0,8.79,2.45s4,5.32,3.22,8.49c-.71,2.73-3.05,4.8-6.77,5.62.5-1.42.87-2.34,1.15-3.3a18.26,18.26,0,0,0,.69-3.08c.34-3.33-.36-4.18-3.72-4.39a26.25,26.25,0,0,0-6,0c-1.32.22-3.37,1.05-3.61,2-1.24,4.69-4.77,7.58-7.73,11-1.89,2.16-1.49,4.49,1,6.15,4.37,2.91,9.08,4.35,14.35,2.86,1.42-.39,2.85-.74,4.28-1.06a25.26,25.26,0,0,0,18.49-19c1.13-5.72-.75-10.5-4.69-14.34-3.28-3.21-8-3.76-12.27-4-5.87-.33-11.69-.66-17.49,2.38-4.78,2.51-10.59,3-15.91,4.53-.69.19-1.22,1-1.82,1.47a7.19,7.19,0,0,0,1.53,1.7,22.85,22.85,0,0,0,2.69.87c2.85,1.2,4.76,4.21,4.34,6.7-.69,4-2.13,5.71-4.84,5.92a55.36,55.36,0,0,0,.36-6.44c0-.84-1-2.34-1.51-2.32a37.71,37.71,0,0,0-8.28,1.05c-.78.2-1.22,2-1.64,3.17s-.18,2.74-.9,3.35c-1.26,1-3,1.93-2,3.64s2.74,3.74,4.42,4a31.49,31.49,0,0,0,10.06-.22c3.52-.55,5.78-2.79,7.15-6.33a27.17,27.17,0,0,1,4.91-7.83C972.36,750.62,974.31,747.83,974.39,743.8Zm-11.18-10.39c-5,1.28-10.1-.29-15.15,2.06-4.22,2-8.39,3.64-11,7.63-.65,1-.62,2.41-.9,3.64,1.25,0,2.65.43,3.73,0,6.56-2.57,13.11-5.18,19.52-8.09C961.14,737.86,964,737.26,963.21,733.41Zm-19.88,19.47c-.1-.28-.19-.57-.28-.85a40,40,0,0,0-4.62,1.45,2.56,2.56,0,0,0-1.26,1.85,2,2,0,0,0,1.27,1.48,2.76,2.76,0,0,0,2.16-.59A33.94,33.94,0,0,0,943.33,752.88Z" transform="translate(-537.27 -140.8)"/><path d="M869,602.49a37.38,37.38,0,0,0,5-4.06c4.08-4.64,8-9.43,11.88-14.25a13.48,13.48,0,0,0,2-3.94c.58-1.62.25-2.72-1.82-3.19-1.13-.26-2-1.56-3-2.39,1.1-1.07,2.14-3,3.3-3.06a152.45,152.45,0,0,1,16.14-.09,4.15,4.15,0,0,1,2.88,2.38c.27.72-.71,2.31-1.56,3-1.65,1.25-3.81,1.86-5.38,3.18a142.17,142.17,0,0,0-13.2,11.91c-1.1,1.18-1,4.65-.07,6.34C888.77,605,892.86,611.52,897,618c1.86,2.88,4,5.61,8,6,1,.09,1.78,2.13,2.66,3.28-.94.71-1.86,2-2.83,2-6.31.33-12.64.44-19,.46-.78,0-2.26-1.07-2.2-1.5.17-1.43.51-3.54,1.48-4,3.1-1.59,2.78-3.45,1.37-5.89-2.3-4-4.39-8.09-6.81-12-2.1-3.4-5-3.28-7.25,0-.45.68-.74,1.6-1.37,2-4.55,3.13-3.72,7.82-3.15,12.09.19,1.47,2.72,2.56,4,4,.82.86,1.89,2,1.86,3,0,.75-1.51,1.95-2.48,2.09a44.92,44.92,0,0,1-7.25.25,84.74,84.74,0,0,1-9-.47c-.92-.11-2.41-1.2-2.44-1.9-.05-1.14.59-3,1.44-3.38,4.49-1.82,4.83-5.22,4.81-9.44-.05-10.55.35-21.1.63-31.65.07-2.5-.28-4.52-3-5.52a5.09,5.09,0,0,1-2.51-2.25c-1.18-2.23.86-4.29,3.76-4.19,4.47.15,8.94,0,13.41.23a16.33,16.33,0,0,1,4,1.22c-.76,1.36-1.19,3.44-2.33,3.95-4.1,1.85-4.78,4.92-4.59,8.94.26,5.45.06,10.92.06,16.38Z" transform="translate(-537.27 -140.8)"/><path d="M737,595.88a87.24,87.24,0,0,1,5.38,6.9c3.61,5.57,1.95,11.16-.8,16.39-4.28,8.16-12,8.32-19.87,7.94-5.12-.25-10.25-.44-15.36-.87a44.58,44.58,0,0,1-7.57-1.46c-.58-.15-1.41-1.38-1.26-1.83a3.77,3.77,0,0,1,1.85-2.11c4.85-2.05,5.38-2.79,5.37-7.93,0-11-.15-22.11.11-33.15.08-3.45-1.14-5.4-4.16-6.44-1.58-.55-3-1.44-2.14-3.1a4.45,4.45,0,0,1,3.33-2c6.51,0,13,.34,19.53.51,3.07.08,6.29-.51,9.19.22,7.84,2,12.85,7,11.76,15C741.77,588,738.93,591.66,737,595.88Zm-16.54,2.76c-5.27-.22-7.09.6-7.2,3.65a149.56,149.56,0,0,0,.45,15.41,3.72,3.72,0,0,0,3.73,3.64c3.28,0,6.71.23,9.82-.61,7.46-2,10.63-12.63,5-18C728.6,599.24,723.87,599.11,720.41,598.64Zm-6.77-14.86h-.06a41.85,41.85,0,0,0,.11,6.63c.16,1,1.51,2.61,2.24,2.57,4.24-.25,8.71-.19,12.61-1.6,5.43-2,6.39-11.59,1.61-14.73a20.35,20.35,0,0,0-8.65-2.95c-5.5-.63-8.56.37-7.89,6A33.27,33.27,0,0,1,713.64,583.78Z" transform="translate(-537.27 -140.8)"/><path d="M770.45,628.58c-8.89.11-18.84-7-21.26-17.46-2.05-8.81-2.31-17.52,1.33-26.16,3.33-7.91,9.18-13.44,17-15.67,14.32-4.09,26.6,3.62,29.85,19.52a36.93,36.93,0,0,1-1.14,20.46C791.42,622.54,785.64,628.74,770.45,628.58Zm18.13-33.3c.23-6.3-1.17-11.91-5.33-16.92-5.56-6.69-16.66-5.82-20.19,2.08a72.42,72.42,0,0,0-4.92,14.47c-2,9.62-.54,18.51,6.94,25.8,5.13,5,12,2.82,16-1.4C787.6,612.54,788,603.87,788.58,595.28Z" transform="translate(-537.27 -140.8)"/><path d="M827.87,569c10.93-.38,18.25,6.25,22,14.74,2.85,6.55,2.48,13.45,1.84,20.37a30.84,30.84,0,0,1-8.53,18.47,23.13,23.13,0,0,1-9.81,5.66c-10.36,3.21-19,1.42-26.42-8.25-3.51-4.58-4.18-10.15-5-15.66-1-6.7-.48-13.09,2.47-19.31C809.12,574.94,817.08,569.87,827.87,569Zm7.9,6.5c-.78-.12-1.81-.22-2.8-.47-7.3-1.88-14.66.73-17.93,8.22-4.45,10.2-5.49,20.82-1.18,31.23,4,9.72,12.38,12.66,19.61,7.2,5-3.82,7.88-9.75,8.23-16.43.06-1,.09-2.1.25-3.13,1-6.46.69-12.81-2-18.85C838.84,580.58,837.24,578.13,835.77,575.45Z" transform="translate(-537.27 -140.8)"/><path d="M1148.13,602.33c.07,10.42-3.54,19.38-11.31,26.35-7,6.23-18.39,6.83-25.22,3.07a23.87,23.87,0,0,1-12-14.94c-2.26-8.18-1.8-15.83.38-23.84,2.5-9.16,8.35-15.21,16.9-18.07,10.77-3.61,23.65.69,28.23,12.45,1.83,4.7,2.64,9.8,3.91,14.72ZM1123.93,579c-4.47.86-9.58,1.52-12.41,7.68a46.49,46.49,0,0,0-3.59,12.87c-1.25,8.33-.32,16.34,4.08,23.71a11.23,11.23,0,0,0,12.32,5.32c5.9-1.16,9.51-5,11.48-10.21,3.7-9.78,4.58-19.74.72-29.82C1134.22,582.5,1130.22,579,1123.93,579Z" transform="translate(-537.27 -140.8)"/><path d="M965.34,272.68c1.06,1.68,2.09,3.38,3.16,5.05,1.24,1.94.52,3.49-1.76,3.75-.81.09-2,0-2.35.43a23.17,23.17,0,0,0-1.92,4c1.35-.14,2.88.07,4-.51,2-1,5.33-1.28,4.22-5.65,4.67,5.1,10.6,2,15.85,2.83l.26,1.41c-1.79.64-3.55,1.7-5.37,1.83-5.17.36-5.4,1.09-6.82,5.84a24,24,0,0,1-6,10.08,22.32,22.32,0,0,1-19.31,6.14,18.5,18.5,0,0,1-8.08-3.07c-2.62-1.95-5.3-1.84-8.08-1.87-5.07-.05-10.15.23-15.2,0-1.88-.09-3.73-1.23-5.53-2-.14-.07.13-1.82.38-1.86,1.48-.26,3.32-.85,4.46-.24,4.94,2.64,9.44.28,14-.89.74-.19,1.21-2,1.52-3.11.17-.63-.29-1.42-.39-2.15-.79-5.3-.79-5.3-6.34-5.39-2.7-.05-5.2.09-7.73-1.8-5.23-3.92-5-9.85,1.42-13.48a8.19,8.19,0,0,1,0,2.75c-2.11,4.94.92,9.48,6.38,9.26,2.73-.11,5-1,6.36-3.83s3.42-5.27,5.12-7.92c1.4-2.17,2.73-4.39,3.76-6.06a62.56,62.56,0,0,0,7.63-1.27c6.05-1.76,11,.05,15.18,4.35.78.81.89,2.28,1.32,3.44a24.69,24.69,0,0,0-2.28-2.5c-.89-.76-2-1.83-3-1.83a87.46,87.46,0,0,0-11.55.7c-2,.27-4.68,0-5.41,2.86a24.43,24.43,0,0,1-8.51,13.31c-2.09,1.7-2.07,5.09-.55,8.11,1.32,2.61,3.45,2.45,5.69,1.76s4.61-1.48,6.84-2.41c3.48-1.45,3.58-2.17.91-4.69-2.47-2.34-3.3-5.88-1.77-8.6.48-.86,1.58-1.36,2.87-2.4a17.83,17.83,0,0,1,.2,2.19c-.17,2.33-.09,4.5,2.62,5.44s8.71.09,9-1.84c.58-3.53,3.24-5.54,4.7-8.36A4.32,4.32,0,0,0,965.34,272.68Zm8.19,19.4c-1.93-2.84-4.55-3.05-8.37-1.3-5.75,2.63-11.55,5.14-17.33,7.7a22,22,0,0,0-3.43,1.61,2.5,2.5,0,0,0-1,2c.08.49,1.1,1,1.78,1.18a10.26,10.26,0,0,0,3.73.24c4.81-.85,9.93-1.08,14.27-3C967,298.68,970,295,973.53,292.08Z" transform="translate(-537.27 -140.8)"/><path d="M912.74,301.12a18.32,18.32,0,0,1-8.79-5.3,18.65,18.65,0,0,1-4.59-11c-.86-8.54,1.23-16.1,7.45-22.17,4.21-4.1,9.61-5.95,15.35-6.41a37.34,37.34,0,0,1,8.91.81c.83.13,1.48,1.29,2.47,2.21-4,.47-7.41.65-10.71,1.31a35.2,35.2,0,0,0-8.91,2.69c-2.15,1.09-3.62,3.45-5.66,4.88-3.88,2.73-5,7.1-6.94,11-1.1,2.14.24,4.18,1.31,7.76.91,3.06,1.74,5.84,4.16,8.39a15.08,15.08,0,0,0,6.11,3.85C912.85,299.75,912.79,300.43,912.74,301.12Z" transform="translate(-537.27 -140.8)"/><path d="M990.76,292c-1.63,2-2.92,3.38-3.91,4.92-1.69,2.64-.19,5.35,3,5.52,8.42.44,13-5.72,10.18-12.73-.52-1.27-2-2.17-3.19-3.13-.92-.77-2-1.38-3.52-2.43a10.4,10.4,0,0,1,11.87,12.76A14.21,14.21,0,0,1,991,307.72a7.54,7.54,0,0,1-7.43-6c-.91-3.83.66-7.51,4-9.06A16,16,0,0,1,990.76,292Z" transform="translate(-537.27 -140.8)"/></svg>