<?xml version="1.0" encoding="UTF-8" standalone="no"?>
<!-- Created with Inkscape (http://www.inkscape.org/) -->

<svg
   xmlns:dc="http://purl.org/dc/elements/1.1/"
   xmlns:cc="http://creativecommons.org/ns#"
   xmlns:rdf="http://www.w3.org/1999/02/22-rdf-syntax-ns#"
   xmlns:svg="http://www.w3.org/2000/svg"
   xmlns="http://www.w3.org/2000/svg"
   xmlns:sodipodi="http://sodipodi.sourceforge.net/DTD/sodipodi-0.dtd"
   xmlns:inkscape="http://www.inkscape.org/namespaces/inkscape"
   width="196.29173"
   height="33.20834"
   viewBox="0 0 51.935519 8.7863729"
   version="1.1"
   id="svg2408"
   inkscape:version="0.92.0 r15299"
   sodipodi:docname="wh smith.svg">
  <defs
     id="defs2402" />
  <sodipodi:namedview
     id="base"
     pagecolor="#ffffff"
     bordercolor="#666666"
     borderopacity="1.0"
     inkscape:pageopacity="0.0"
     inkscape:pageshadow="2"
     inkscape:zoom="4.5931281"
     inkscape:cx="97.645873"
     inkscape:cy="16.10417"
     inkscape:document-units="mm"
     inkscape:current-layer="layer1"
     showgrid="false"
     fit-margin-top="0"
     fit-margin-left="0"
     fit-margin-right="0"
     fit-margin-bottom="0"
     units="px"
     inkscape:window-width="1280"
     inkscape:window-height="744"
     inkscape:window-x="-4"
     inkscape:window-y="-4"
     inkscape:window-maximized="1" />
  <metadata
     id="metadata2405">
    <rdf:RDF>
      <cc:Work
         rdf:about="">
        <dc:format>image/svg+xml</dc:format>
        <dc:type
           rdf:resource="http://purl.org/dc/dcmitype/StillImage" />
        <dc:title></dc:title>
      </cc:Work>
    </rdf:RDF>
  </metadata>
  <g
     inkscape:label="Layer 1"
     inkscape:groupmode="layer"
     id="layer1"
     transform="translate(25.843962,-43.187678)">
    <g
       id="g2466"
       transform="translate(0.13228998,-0.13229156)">
      <path
         style="fill:#002e85;fill-opacity:1;stroke:none;stroke-width:0.35277778"
         d="m -17.327682,51.974051 h -0.2701 l -2.48598,-6.74137 -2.1773,6.74137 h -0.29214 l -1.96784,-6.36654 c -0.18053,-0.57602 -0.31006,-0.96049 -0.38585,-1.15204 -0.0772,-0.19017 -0.18053,-0.33211 -0.30868,-0.42443 -0.12541,-0.091 -0.33487,-0.14332 -0.62839,-0.15435 v -0.2756 h 3.07027 v 0.2756 c -0.37207,0.0262 -0.61047,0.0813 -0.71658,0.16537 -0.10335,0.0813 -0.15434,0.19568 -0.15434,0.34175 0,0.13229 0.0841,0.47267 0.25356,1.01975 l 1.46072,4.7625 2.1332,-6.56497 h 0.33624 l 2.4033,6.56497 1.24575,-4.34358 c 0.16399,-0.58291 0.24805,-0.966 0.24805,-1.14652 0,-0.53193 -0.28388,-0.79927 -0.84888,-0.79927 v -0.2756 h 2.22691 v 0.2756 c -0.32797,0.0262 -0.57188,0.15021 -0.73311,0.36932 -0.16261,0.21773 -0.36656,0.74138 -0.61185,1.57096 z m 0,0"
         id="path2336"
         inkscape:connector-curvature="0" />
      <path
         style="fill:#002e85;fill-opacity:1;stroke:none;stroke-width:0.35277778"
         d="m -7.4260919,47.674571 h -4.2664101 v 1.97335 c 0,0.64354 0.0138,1.06522 0.0441,1.26228 0.0317,0.19844 0.113,0.34865 0.24253,0.44649 0.13092,0.0965 0.38172,0.14331 0.74965,0.14331 h 0.20947 v 0.27561 h -3.67661 v -0.27561 h 0.20946 c 0.34865,0 0.59118,-0.0441 0.72761,-0.13229 0.13504,-0.0868 0.22186,-0.226 0.25907,-0.41341 0.04,-0.18604 0.0606,-0.62287 0.0606,-1.30638 v -4.00734 c 0,-0.65319 -0.0207,-1.07487 -0.0606,-1.26228 -0.0372,-0.18603 -0.11851,-0.31695 -0.24254,-0.39136 -0.12126,-0.073 -0.38998,-0.11025 -0.80477,-0.11025 h -0.14883 v -0.2756 h 3.67661 v 0.2756 h -0.14883 c -0.39688,0 -0.6587,0.0345 -0.78273,0.0992 -0.1254,0.0661 -0.21084,0.19155 -0.25356,0.37483 -0.0413,0.18052 -0.0606,0.61047 -0.0606,1.28984 v 1.62058 h 4.2664101 v -1.62058 c 0,-0.65319 -0.0193,-1.07487 -0.0551,-1.26228 -0.0372,-0.18603 -0.11714,-0.31695 -0.23703,-0.39136 -0.12126,-0.073 -0.38998,-0.11025 -0.80477,-0.11025 h -0.21498 v -0.2756 h 3.72071 v 0.2756 h -0.12127 c -0.40514,0 -0.66973,0.0345 -0.79375,0.0992 -0.12127,0.0661 -0.20533,0.19155 -0.24805,0.37483 -0.0413,0.18052 -0.0606,0.61047 -0.0606,1.28984 v 4.00734 c 0,0.64354 0.0138,1.06522 0.0441,1.26228 0.0289,0.19844 0.11024,0.34865 0.24253,0.44649 0.13092,0.0965 0.38172,0.14331 0.74965,0.14331 h 0.18742 v 0.27561 h -3.72071 v -0.27561 h 0.28112 c 0.34451,0 0.58429,-0.0441 0.71658,-0.13229 0.13505,-0.0868 0.22187,-0.226 0.25908,-0.41341 0.0358,-0.18604 0.0551,-0.62287 0.0551,-1.30638 z m 0,0"
         id="path2340"
         inkscape:connector-curvature="0" />
      <path
         style="fill:#002e85;fill-opacity:1;stroke:none;stroke-width:0.35277778"
         d=""
         id="path2344"
         inkscape:connector-curvature="0" />
      <path
         style="fill:#002e85;fill-opacity:1;stroke:none;stroke-width:0.35277778"
         d="m -1.5496919,51.692931 v -2.6293 h 0.30317 c 0.34037,1.7129 1.15204,2.56866 2.430861,2.56866 0.571879,0 1.01699,-0.1626 1.33394,-0.49058 0.315568,-0.32935 0.47404,-0.69729 0.47404,-1.10243 0,-0.41065 -0.14056,-0.75516 -0.41892,-1.03077 -0.275611,-0.27147 -0.781351,-0.565 -1.51584,-0.88195 -0.658711,-0.27836 -1.154801,-0.52365 -1.488291,-0.73311 -0.33072,-0.21222 -0.59117,-0.48783 -0.77721,-0.82682 -0.18741,-0.33762 -0.28112,-0.69729 -0.28112,-1.08039 0,-0.58015 0.2012,-1.06384 0.60634,-1.44969 0.40376,-0.38861 0.91502,-0.58429 1.532381,-0.58429 0.344508,0 0.669718,0.0579 0.975648,0.17088 0.307301,0.11024 0.622872,0.34313 0.942581,0.69453 0.183272,-0.21911 0.28801,-0.45889 0.31419,-0.71658 h 0.264581 v 2.13871 h -0.264581 c -0.154339,-0.62011 -0.427191,-1.10932 -0.8158,-1.46623 -0.38585,-0.35967 -0.835089,-0.54019 -1.34497,-0.54019 -0.48506,0 -0.84198,0.13367 -1.06935,0.39687 -0.22876,0.26183 -0.34176,0.54984 -0.34176,0.86541 0,0.37483 0.14332,0.69316 0.42995,0.9536 0.2825,0.26872 0.791,0.56638 1.526871,0.89297 0.701418,0.31695 1.21267,0.57051 1.532379,0.76068 0.318321,0.19155 0.574641,0.45613 0.766191,0.79375 0.1943,0.33486 0.29214,0.72485 0.29214,1.16858 0,0.69866 -0.23427,1.26641 -0.70004,1.70325 -0.467161,0.43822 -1.09003,0.65595 -1.86862,0.65595 -0.897111,0 -1.645381,-0.34313 -2.243451,-1.03077 -0.13229,0.19154 -0.23013,0.45888 -0.29214,0.79926 z m 0,0"
         id="path2348"
         inkscape:connector-curvature="0" />
      <path
         style="fill:#002e85;fill-opacity:1;stroke:none;stroke-width:0.35277778"
         d="m 5.7856581,46.638281 h 0.0606 c 0.117131,0.26872 0.17639,0.61461 0.17639,1.03629 0.26734,-0.34451 0.556731,-0.60358 0.86541,-0.77722 0.31143,-0.17225 0.64767,-0.25907 1.008721,-0.25907 0.40377,0 0.733121,0.0951 0.986679,0.28112 0.252179,0.18466 0.42994,0.46027 0.529161,0.82683 0.304549,-0.36656 0.6173599,-0.64217 0.9370699,-0.82683 0.322461,-0.18603 0.651809,-0.28112 0.986671,-0.28112 0.381719,0 0.705559,0.0896 0.970139,0.26459 0.267341,0.17639 0.429948,0.37896 0.485069,0.60633 0.0538,0.22462 0.0827,0.58843 0.0827,1.09141 v 1.48277 c 0,0.57326 0.01101,0.92328 0.0331,1.04731 0.02069,0.1254 0.0854,0.21911 0.192921,0.28112 0.106109,0.0592 0.304549,0.0882 0.59532,0.0882 v 0.27561 h -2.46394 v -0.27561 c 0.260448,0 0.44373,-0.0289 0.55122,-0.0882 0.106108,-0.0579 0.170878,-0.14607 0.192918,-0.26459 0.02479,-0.11988 0.0386,-0.47542 0.0386,-1.06384 v -1.64813 c 0,-0.33349 -0.02069,-0.58567 -0.0606,-0.75517 -0.0372,-0.16812 -0.13643,-0.31144 -0.297659,-0.42995 -0.16261,-0.11989 -0.37207,-0.1819 -0.628391,-0.1819 -0.261818,0 -0.525028,0.0896 -0.788228,0.26458 -0.2618309,0.17639 -0.5250409,0.44373 -0.7882409,0.79927 v 1.9513 c 0,0.52641 0.007,0.85714 0.02199,0.99219 0.01381,0.13229 0.0689,0.2384 0.165359,0.31419 0.0978,0.0744 0.275611,0.11024 0.5291719,0.11024 v 0.27561 H 7.7810451 v -0.27561 c 0.26734,0 0.45475,-0.0276 0.562239,-0.0827 0.106101,-0.0579 0.172252,-0.14469 0.19843,-0.25907 0.02479,-0.11713 0.0386,-0.47542 0.0386,-1.07487 v -1.37253 c 0,-0.4327 -0.01791,-0.74689 -0.0496,-0.94258 -0.0331,-0.1943 -0.13643,-0.35966 -0.308679,-0.49609 -0.17363,-0.13918 -0.388612,-0.20946 -0.644921,-0.20946 -0.25081,0 -0.505741,0.0813 -0.766189,0.24253 -0.2577,0.15848 -0.5209,0.39963 -0.78824,0.7221 v 2.05603 c 0,0.54019 0.007,0.87781 0.02209,1.00872 0.01381,0.13229 0.073,0.23427 0.176389,0.30317 0.106101,0.0703 0.293521,0.10473 0.56224,0.10473 v 0.27561 h -2.414328 v -0.27561 c 0.26321,0 0.449241,-0.0289 0.556731,-0.0882 0.106111,-0.0579 0.170881,-0.1447 0.192929,-0.25907 0.02479,-0.11714 0.0386,-0.47405 0.0386,-1.06936 v -1.47723 c 0,-0.56086 -0.01,-0.90537 -0.0276,-1.03077 -0.019287,-0.12816 -0.0813,-0.22324 -0.187408,-0.28663 -0.10749,-0.0648 -0.29904,-0.0992 -0.57327,-0.0992 v -0.28112 c 0.569129,-0.0537 1.041799,-0.14469 1.416629,-0.2701 z m 0,0"
         id="path2324"
         inkscape:connector-curvature="0" />
      <path
         style="fill:#002e85;fill-opacity:1;stroke:none;stroke-width:0.35277778"
         d="m 14.413707,44.119231 c 0,-0.17226 0.0606,-0.32108 0.181901,-0.44648 0.124032,-0.12403 0.27286,-0.18742 0.44649,-0.18742 0.172252,0 0.31695,0.0634 0.435462,0.18742 0.119888,0.1254 0.181898,0.27422 0.181898,0.44648 0,0.17639 -0.062,0.32797 -0.181898,0.452 -0.118512,0.1254 -0.26321,0.18741 -0.435462,0.18741 -0.17363,0 -0.322458,-0.062 -0.44649,-0.18741 -0.121258,-0.12403 -0.181901,-0.27561 -0.181901,-0.452 z m 1.163071,2.51905 v 3.4451 c 0,0.52641 0.007,0.85714 0.02201,0.99219 0.01789,0.13642 0.0772,0.24115 0.176379,0.31419 0.0978,0.0744 0.27699,0.11024 0.534681,0.11024 h 0.12678 v 0.27561 h -2.656847 v -0.27561 h 0.203952 c 0.28525,0 0.471278,-0.04 0.556717,-0.12127 0.0868,-0.0841 0.139182,-0.18327 0.154343,-0.29765 0.01381,-0.11713 0.02209,-0.44924 0.02209,-0.9977 v -1.49931 c 0,-0.57602 -0.0289,-0.92879 -0.0827,-1.05833 -0.0551,-0.12816 -0.12954,-0.20946 -0.22049,-0.24253 -0.0882,-0.0317 -0.24529,-0.0496 -0.46853,-0.0496 h -0.165358 v -0.27561 c 0.715201,-0.073 1.27055,-0.17915 1.664671,-0.31971 z m 0,0"
         id="path2328"
         inkscape:connector-curvature="0" />
      <path
         style="fill:#002e85;fill-opacity:1;stroke:none;stroke-width:0.35277778"
         d="m 19.693259,47.117841 h -1.488282 v 2.98208 c 0,0.46026 0.01791,0.76894 0.0551,0.92604 0.04,0.15847 0.126778,0.28801 0.25908,0.38585 0.130908,0.0965 0.271468,0.14331 0.41892,0.14331 0.289389,0 0.541568,-0.16536 0.755158,-0.49609 l 0.192932,0.11576 c -0.125397,0.26458 -0.311439,0.46577 -0.556729,0.60082 -0.24253,0.13091 -0.48782,0.19844 -0.73311,0.19844 -0.290769,0 -0.54709,-0.0854 -0.766189,-0.25356 -0.21773,-0.17226 -0.35416,-0.37207 -0.4079,-0.60083 -0.0551,-0.23013 -0.0827,-0.63389 -0.0827,-1.20716 v -2.79466 H 16.62296 v -0.28112 c 0.329359,-0.007 0.625629,-0.14469 0.887461,-0.41341 0.260447,-0.27147 0.427188,-0.65043 0.501607,-1.1355 h 0.192921 v 1.54891 h 1.488281 z m 0,0"
         id="path2332"
         inkscape:connector-curvature="0" />
      <path
         style="fill:#002e85;fill-opacity:1;stroke:none;stroke-width:0.35277778"
         d="m 21.544019,47.652521 c 0.241149,-0.33762 0.51263,-0.59118 0.810278,-0.76068 0.300411,-0.16812 0.629772,-0.25356 0.986682,-0.25356 0.406519,0 0.744141,0.0854 1.008719,0.25356 0.26734,0.1695 0.442351,0.37896 0.52366,0.62839 0.0799,0.24667 0.121262,0.6463 0.121262,1.19614 v 1.36701 c 0,0.5774 0.01101,0.9288 0.0331,1.05282 0.02069,0.1254 0.0854,0.21773 0.192921,0.27561 0.108868,0.0592 0.311438,0.0882 0.606338,0.0882 v 0.27561 h -2.55213 v -0.27561 h 0.115761 c 0.293518,0 0.482308,-0.0413 0.567748,-0.12678 0.0868,-0.0841 0.139181,-0.18328 0.154342,-0.29765 0.01381,-0.11714 0.02199,-0.44787 0.02199,-0.99219 v -1.48277 c 0,-0.41066 -0.02619,-0.71382 -0.0772,-0.90951 -0.0482,-0.19705 -0.16261,-0.36104 -0.341762,-0.49058 -0.176379,-0.12815 -0.399629,-0.19292 -0.66697,-0.19292 -0.316949,0 -0.59944,0.0923 -0.84887,0.27561 -0.246669,0.18052 -0.46577,0.45475 -0.655939,0.82131 v 1.97886 c 0,0.55535 0.008,0.8971 0.0276,1.02526 0.01791,0.12953 0.0785,0.22738 0.181898,0.29214 0.106111,0.0661 0.29903,0.0992 0.578771,0.0992 v 0.27561 h -2.50803 v -0.27561 h 0.121269 c 0.28939,0 0.4768,-0.04 0.562242,-0.12127 0.0868,-0.0841 0.139179,-0.18327 0.154339,-0.29765 0.01381,-0.11713 0.02201,-0.44924 0.02201,-0.9977 v -4.92235 c 0,-0.49472 -0.0482,-0.81029 -0.14332,-0.94258 -0.0923,-0.13505 -0.31832,-0.20395 -0.677992,-0.20395 v -0.27561 c 0.62425,0 1.142391,-0.0841 1.554432,-0.25356 h 0.126778 z m 0,0"
         id="path2312"
         inkscape:connector-curvature="0" />
      <path
         style="fill:#002e85;fill-opacity:1;stroke:none;stroke-width:0.35277778"
         d=""
         id="path2316"
         inkscape:connector-curvature="0" />
      <path
         style="fill:#002e85;fill-opacity:1;stroke:none;stroke-width:0.35277778"
         d=""
         id="path2272"
         inkscape:connector-curvature="0" />
    </g>
  </g>
</svg>
