<svg viewBox="0 0 522.5 101.17" xmlns="http://www.w3.org/2000/svg"><g fill="#006a2e"><path d="m77.05 90.02h-4.58v-10.93s22.06-.1 22.06 0c0 16.19-7.99 21.51-17.48 21.51-.07 0 0-4.58 0-4.58 7.31 0 12.91-5.46 12.91-13.04h-12.91v7.03z"/><path d="m109.92 86.36s0 14.23 0 14.23h-4.67v-10.81s-5.77 4.2-9.39 5.37c0 0-.02-5.05 0-5.06 4.76-2.26 10.73-5.82 14.46-11.14.03-.04 5.9-.05 5.88 0-.61 2.03-4.17 5.72-6.28 7.4z"/><path d="m136.02 79.08h-16.78v3.8s11.72-.05 11.72 0c-1.03 6.94-4.31 11.76-13.12 12.84l.04 4.87c4.22.38 9.8-1.87 12.94-6.28 1.31.8 3.42 4.08 3.42 6.24 0 .05 5.48.05 5.48 0 .09-4.03-5.67-9.66-6.37-10.31 2.34-3.94 2.67-11.15 2.67-11.15z"/><path d="m141.87 80.78c0-1.52-1.23-2.75-2.75-2.75s-2.75 1.23-2.75 2.75c0 1.14.69 2.12 1.68 2.54-.08.83-.44 2.36-1.46 3.45l1.03-.02s3.68-3.68 3.97-4.75c.18-.37.29-.78.29-1.22z"/><path d="m147.33 80.8c0-1.52-1.23-2.75-2.75-2.75s-2.75 1.23-2.75 2.75c0 1.14.69 2.12 1.68 2.54-.08.83-.44 2.36-1.46 3.45l1.02-.02s3.68-3.68 3.97-4.75c.18-.37.28-.78.28-1.21z"/><path d="m0 6.45h38.47l26.46 43.73s4.12-4.3 6.45-9.68-1.97-6.09-1.97-6.09-10.75-4.66-10.75-16.31 13.08-18.1 21.14-18.1 21.15 5.73 21.86 16.84c0 0 1.61-14.87 20.25-16.67 6.09-.18 22.04 3.23 22.58 17.74.18 7.89-5.38 14.16-12.36 20.25-6.99 6.09-19.71 17.02-22.58 18.1h-6.45s8.96-9.5 10.93-15.23c1.25-3.4 2.51-4.48-1.79-6.81s-9.14-5.55-10.57-13.98c0 0-.18 6.09-7.71 13.08s-13.98 13.62-27.06 22.76v44.8h-33.51v-45.51z"/><path d="m211.58 10.15v23.18s-10.63-5.85-27.6-4.3c-6.45.6-6.69 5.02-6.57 6.09.12 1.08 1.67 4.3 7.17 5.5 5.5 1.19 27.96 4.18 31.18 21.86.6 7.05.72 22.46-6.81 28.67s-10.27 8-25.09 9.92h-33.81v-22.1h28.55c2.39 0 9.32-1.55 9.32-6.33s-4.9-5.62-9.56-6.81-21.98-4.54-26.52-16.61-4.06-25.09 5.5-34.17 32.85-10.87 54.24-4.9z"/><path d="m224.31 39.76h27.42v9.94s5.39-11.26 20.84-11.26 18.8 10.18 18.8 10.18 5.39-10.9 20.48-10.06 19.64 8.14 19.88 20.48 0 40.72 0 40.72h-28.62v-37.37c0-2.75-2.27-5.39-5.87-5.39s-4.91 4.07-4.91 6.11v36.52h-28.5v-36.4c0-2.52-1.08-5.99-5.39-5.99s-5.27 3.59-5.27 5.27v37.24h-28.86z"/><path d="m381.79 39.76c-5.75-.72-37.12-.24-37.12-.24v15.93s19.88-1.2 26.23-1.08c13.41.96 11.02 8.74 11.02 8.74-3.71-.96-10.78-.84-18.68-.6s-18.68 4.79-21.44 14.13c-4.07 15.93 5.39 23.23 19.16 24.43s20.6-9.34 20.6-9.34v8.03h26.11v-37.97c0-19.4-20.12-21.32-25.87-22.03zm-9.22 46.1c-3.12-.24-5.63-.96-5.63-4.91s3.59-6.71 7.43-6.95c3.83-.24 7.78 0 7.78 0s.84 12.93-9.58 11.85z"/><path d="m418.31 39.64h27.66v15.09s5.15-14.97 17.12-15.45h17.6v-14.01l28.5-8.98v22.99h13.17v18.8h-13.29v17.12c0 3.35 3.71 6.59 7.3 6.35s6.11-1.32 6.11-1.32v17.6s-12.81 4.43-24.07 2.64c-11.26-1.8-16.29-6.71-17.84-20.96v-21.43h-15.57s-17.84-.72-17.84 17.72v24.19h-28.86v-60.35z"/></g></svg>