<?xml version="1.0" encoding="UTF-8" standalone="no"?>
<svg
   width="160"
   height="81"
   viewBox="0 0 160 81"
   stroke="#000"
   fill="none"
   version="1.1"
   id="yeme-logo"
   sodipodi:docname="Yeme-Logo.svg"
   xmlns:inkscape="http://www.inkscape.org/namespaces/inkscape"
   xmlns:sodipodi="http://sodipodi.sourceforge.net/DTD/sodipodi-0.dtd"
   xmlns="http://www.w3.org/2000/svg"
   xmlns:svg="http://www.w3.org/2000/svg">
  <sodipodi:namedview
     id="namedview6"
     pagecolor="#ffffff"
     bordercolor="#666666"
     borderopacity="1.0"
     inkscape:pageshadow="2"
     inkscape:pageopacity="0.0"
     inkscape:pagecheckerboard="true"
     showgrid="false"
     inkscape:window-maximized="1"
     inkscape:current-layer="yeme" />
  <g
     id="yeme">
    <path
       d="m 159.868,66.895 a 2.377,2.377 0 0 0 -3.031,-1.478 C 137.225,72.273 109.219,76.205 80,76.205 c -16.454,0 -32.524,-1.247 -46.927,-3.561 a 10.494,10.494 0 0 0 2.21,-3.221 c 0.837,-1.867 1.227,-3.97 1.228,-6.621 V 2.4 C 36.505,1.654 36.148,1.063 35.478,0.69 A 2.707,2.707 0 0 0 34.176,0.34 c -1.352,0 -2.37,1.075 -2.37,2.499 v 38.71 c 0,1.513 -0.144,2.742 -0.455,3.864 -0.768,2.77 -2.588,4.455 -5.125,4.743 a 8.21,8.21 0 0 1 -0.912,0.052 c -1.683,0 -3.97,-0.558 -5.312,-3.22 -0.71,-1.407 -1.04,-3.049 -1.04,-5.168 0.002,-10.86 0.001,-39.156 0.001,-39.156 0,-1.348 -0.91,-2.288 -2.216,-2.288 -0.131,0 -0.267,0.009 -0.408,0.03 -0.955,0.136 -1.636,0.605 -2.022,1.39 l -0.06,0.123 v 41.383 c 0,0 0.087,0.533 0.124,0.776 0.083,0.535 0.168,1.089 0.287,1.635 0.732,3.37 2.316,5.777 4.843,7.36 1.521,0.954 3.411,1.479 5.32,1.479 2.068,0 4.023,-0.625 5.505,-1.76 a 8.48,8.48 0 0 0 1.468,-1.44 v 0.495 c 0.002,3.681 0.004,7.363 -10e-4,11.045 -0.003,2.155 -0.321,3.733 -1.034,5.115 -0.91,1.763 -2.356,2.767 -4.422,3.07 a 7.92,7.92 0 0 1 -1.124,0.083 c -0.19,0 -0.376,-0.016 -0.562,-0.031 A 191.61,191.61 0 0 1 15.813,69.15 C 11.303,68.026 7.064,66.78 3.163,65.416 A 2.377,2.377 0 0 0 0.133,66.894 2.402,2.402 0 0 0 1.6,69.947 C 21.696,76.97 50.27,81 80,81 c 29.73,0 58.305,-4.029 78.399,-11.053 a 2.403,2.403 0 0 0 1.469,-3.052 z"
       id="letter-y"
       style="fill:#fff" />
    <path
       id="letter-e-1"
       d="M 55.273438 0 L 55.058594 0.0625 C 55.008594 0.0775 54.96025 0.096515625 54.90625 0.10351562 C 51.13025 0.60551563 48.401969 2.5573438 46.792969 5.9023438 C 45.850969 7.8623437 45.412156 10.052734 45.410156 12.802734 C 45.405156 20.508734 45.40525 28.213922 45.40625 35.919922 L 45.40625 41.6875 C 45.40625 43.5585 45.613156 45.182344 46.035156 46.652344 C 46.994156 49.992344 48.912281 52.330562 51.738281 53.601562 C 53.180281 54.250563 54.756875 54.578125 56.421875 54.578125 C 57.003875 54.578125 57.60875 54.538984 58.21875 54.458984 C 61.12175 54.080984 63.43475 52.789141 65.09375 50.619141 C 66.55375 48.707141 67.376063 46.404391 67.539062 43.775391 C 67.609062 42.639391 67.616094 41.489953 67.621094 40.376953 A 66.13 66.13 0 0 1 67.679688 37.421875 C 67.713688 36.727875 67.508844 36.125641 67.089844 35.681641 C 66.653844 35.220641 65.993297 34.955078 65.279297 34.955078 C 65.079297 34.955078 64.879547 34.975625 64.685547 35.015625 C 63.558547 35.250625 62.960078 35.990297 62.955078 37.154297 C 62.955078 37.678297 62.958891 38.203516 62.962891 38.728516 C 62.968891 39.721516 62.975359 40.748953 62.943359 41.751953 C 62.911359 42.744953 62.855297 43.802641 62.654297 44.806641 C 62.208297 47.041641 60.924797 49.788594 57.341797 50.183594 A 7.89 7.89 0 0 1 56.478516 50.232422 C 54.035516 50.232422 52.118125 49.02775 51.078125 46.84375 C 50.424125 45.46775 50.117281 43.862016 50.113281 41.791016 C 50.112281 41.139016 50.117094 40.486938 50.121094 39.835938 C 50.128094 38.505938 50.137562 37.128484 50.101562 35.771484 C 50.063563 34.346484 50.672484 33.397156 52.021484 32.785156 C 52.906484 32.383156 53.795594 31.989703 54.683594 31.595703 C 56.498594 30.792703 58.373406 29.961219 60.191406 29.074219 C 65.013406 26.718219 67.521437 22.816469 67.648438 17.480469 C 67.692437 15.619469 67.674438 13.790094 67.648438 12.246094 C 67.612437 10.059094 67.24725 8.1727031 66.53125 6.4707031 C 65.18625 3.2727031 62.880781 1.2292969 59.675781 0.40429688 C 59.257781 0.29629687 58.832203 0.21390625 58.408203 0.12890625 L 57.777344 0 L 55.273438 0 z M 56.472656 4.3417969 C 56.752656 4.3417969 57.042031 4.3576719 57.332031 4.3886719 C 60.918031 4.7786719 62.205344 7.5238594 62.652344 9.7558594 C 62.872344 10.850859 62.921406 12.012344 62.941406 12.902344 A 69.726 69.726 0 0 1 62.882812 17.671875 C 62.707813 21.337875 60.965594 23.857047 57.558594 25.373047 C 56.396594 25.890047 55.244797 26.428797 54.091797 26.966797 C 53.279797 27.344797 52.469297 27.724703 51.654297 28.095703 C 51.086297 28.354703 50.576281 28.623656 50.113281 28.972656 L 50.113281 12.794922 C 50.113281 10.720922 50.418266 9.1132813 51.072266 7.7382812 C 52.408266 4.9302813 54.745656 4.3417969 56.472656 4.3417969 z "
       style="fill:#fff" />
    <path
       id="letter-e-2"
       d="M 133.35742 0 L 133.14258 0.0625 C 133.09258 0.0775 133.04323 0.096515625 132.99023 0.10351562 C 129.21323 0.60551563 126.484 2.5563437 124.875 5.9023438 C 123.931 7.8663438 123.49123 10.106172 123.49023 12.951172 L 123.49023 19.183594 C 123.48823 26.636594 123.48491 34.087063 123.50391 41.539062 A 24.06 24.06 0 0 0 123.81641 45.279297 C 124.20141 47.671297 125.15539 49.704219 126.65039 51.324219 C 128.46739 53.291219 130.90077 54.375922 133.88477 54.544922 C 134.16377 54.560922 134.4408 54.568359 134.7168 54.568359 C 136.8538 54.568359 138.70219 54.091375 140.36719 53.109375 C 142.95519 51.584375 144.57998 49.184391 145.33398 45.775391 A 24.11 24.11 0 0 0 145.62305 44.107422 C 145.66005 43.860422 145.69633 43.612234 145.73633 43.365234 L 145.74414 43.318359 L 145.74414 36.611328 L 145.70703 36.513672 C 145.37503 35.626672 144.67686 35.106797 143.63086 34.966797 A 2.702 2.702 0 0 0 143.25977 34.939453 C 141.95777 34.939453 141.04406 35.87875 141.03906 37.21875 C 141.03606 37.80375 141.03902 38.387656 141.04102 38.972656 C 141.04502 40.167656 141.04967 41.404281 141.01367 42.613281 C 140.95767 44.501281 140.56083 46.055188 139.79883 47.367188 C 138.72383 49.214188 136.90192 50.232422 134.66992 50.232422 A 7.72 7.72 0 0 1 133.81641 50.183594 C 130.22741 49.780594 128.94595 47.037641 128.50195 44.806641 C 128.32995 43.944641 128.24094 42.987031 128.21094 41.707031 C 128.18794 40.700031 128.19227 39.693547 128.19727 38.685547 C 128.20227 37.691547 128.2085 36.696125 128.1875 35.703125 C 128.1575 34.328125 128.74506 33.411359 130.03906 32.818359 C 131.05806 32.352359 132.08247 31.895453 133.10547 31.439453 C 134.81347 30.679453 136.57797 29.895406 138.29297 29.066406 C 142.25797 27.148406 144.67837 24.087703 145.48438 19.970703 C 145.55238 19.620703 145.60711 19.269922 145.66211 18.919922 L 145.74414 18.400391 L 145.74414 11.257812 L 145.73633 11.208984 A 46.01 46.01 0 0 1 145.62305 10.46875 A 24.178 24.178 0 0 0 145.33594 8.8027344 C 144.47594 4.9447344 142.55208 2.3976719 139.45508 1.0136719 C 138.75008 0.69867188 138.00039 0.52442187 137.27539 0.35742188 C 136.95539 0.28242187 136.63527 0.20709375 136.32227 0.12109375 L 135.87891 0 L 133.35742 0 z M 134.56641 4.34375 C 134.85641 4.34375 135.15508 4.3615313 135.45508 4.3945312 C 138.21608 4.7045312 140.09223 6.6079531 140.74023 9.7519531 C 140.91023 10.578953 141.00548 11.468484 141.02148 12.396484 A 83.426 83.426 0 0 1 140.96484 17.666016 C 140.79884 21.330016 139.05844 23.849094 135.64844 25.371094 C 134.48444 25.891094 133.32983 26.42975 132.17383 26.96875 C 131.33583 27.35875 130.49825 27.751766 129.65625 28.134766 C 129.17525 28.353766 128.67927 28.607656 128.19727 28.972656 L 128.19727 12.849609 C 128.19627 10.716609 128.4913 9.1421406 129.1543 7.7441406 C 130.1923 5.5511406 132.11441 4.34375 134.56641 4.34375 z "
       style="fill:#fff" />
    <path
       d="m 77.957,54.024 c 0.282,0.093 0.59,0.142 0.893,0.142 0.695,0 1.321,-0.246 1.764,-0.694 0.445,-0.45 0.678,-1.078 0.675,-1.819 C 81.241,39.698 81.254,27.542 81.267,15.785 l 0.004,-2.393 a 24.95,24.95 0 0 1 0.205,-3.333 c 0.246,-1.817 0.882,-3.23 1.948,-4.316 0.858,-0.876 2.313,-1.42 3.796,-1.42 1.114,0 3.845,0.332 5.135,3.397 0.589,1.4 0.863,3.007 0.862,5.057 l -0.002,38.948 c 0,0.146 -0.001,0.292 0.006,0.438 0.044,0.867 0.514,1.517 1.323,1.83 0.378,0.145 0.75,0.219 1.107,0.219 1.337,0 2.271,-1.039 2.271,-2.525 l -10e-4,-8.598 c -0.002,-10.07 -0.004,-20.141 0.019,-30.212 0.003,-1.329 0.136,-2.59 0.396,-3.752 0.622,-2.775 2.342,-4.456 4.842,-4.733 0.278,-0.032 0.554,-0.047 0.82,-0.047 1.606,0 3.771,0.559 4.957,3.218 0.816,1.83 0.921,3.784 0.921,5.282 l 10e-4,39.01 c 0,1.43 0.935,2.319 2.451,2.319 1.369,-0.006 2.253,-0.903 2.254,-2.286 v -3.713 c 0.001,-11.864 0.002,-23.73 -0.002,-35.594 -0.001,-2.319 -0.333,-4.31 -1.016,-6.093 -1.123,-2.931 -3.05,-4.892 -5.727,-5.828 -0.613,-0.214 -1.248,-0.344 -1.86,-0.47 A 31.737,31.737 0 0 1 105.164,0.015 L 105.1,0 h -2.001 l -0.06,0.013 c -0.241,0.052 -0.483,0.097 -0.726,0.143 -0.546,0.103 -1.11,0.209 -1.661,0.383 -2.11,0.665 -3.754,2.104 -5.026,4.398 A 8.082,8.082 0 0 0 95.563,5.052 C 95.389,4.742 95.214,4.442 95.027,4.149 93.445,1.685 91.166,0.313 88.25,0.061 L 88.065,0 h -2.023 l -0.226,0.053 c -0.085,0.021 -0.17,0.043 -0.257,0.055 -3.583,0.487 -6.16,2.376 -7.66,5.616 -0.917,1.981 -1.344,4.254 -1.344,7.155 v 38.915 c 0,0.125 -0.001,0.25 0.006,0.373 0.045,0.887 0.567,1.582 1.396,1.857 z"
       id="letter-m"
       style="fill:#fff" />
  </g>
</svg>
