<?xml version="1.0" encoding="utf-8"?>
<!-- Generator: Adobe Adobe Illustrator 29.1.0, SVG Export Plug-In . SVG Version: 6.00 Build 0)  -->
<svg version="1.1" id="图层_1" xmlns="http://www.w3.org/2000/svg" xmlns:xlink="http://www.w3.org/1999/xlink" x="0px" y="0px"
	 viewBox="0 0 428.02 104.42" style="enable-background:new 0 0 428.02 104.42;" xml:space="preserve">
<style type="text/css">
	.st0{fill-rule:evenodd;clip-rule:evenodd;fill:#E50012;}
	
		.st1{clip-path:url(#SVGID_00000039115527497136177090000002092700787733754800_);fill-rule:evenodd;clip-rule:evenodd;fill:#E50012;}
	
		.st2{clip-path:url(#SVGID_00000039115527497136177090000002092700787733754800_);fill-rule:evenodd;clip-rule:evenodd;fill:#00A0E9;}
</style>
<g>
	<path class="st0" d="M185.37,86.7c-0.01,0.06-0.02,0.12-0.03,0.18c-0.72,5.43-0.32,8.05,3.76,8.11c4.22,0.06,6.21-3.4,7.11-8.18
		c0.01-0.04,0.02-0.08,0.02-0.12l0,0c0.76-5.55,0.39-8.23-3.73-8.29c-4.22-0.06-6.21,3.41-7.11,8.19
		C185.39,86.62,185.38,86.67,185.37,86.7L185.37,86.7z M188.31,101c-9.42,0-12.25-4.96-11.13-13.87c0.06-0.45,0.08-0.8,0.17-1.3
		c1.7-9.47,6.32-13.43,16.08-13.43c9.16,0,12.09,4.69,11.22,13.13c-0.08,0.76-0.15,1.36-0.29,2.09
		C202.66,97.05,198.05,101,188.31,101L188.31,101z M267.75,86.7c-0.01,0.06-0.02,0.12-0.02,0.18c-0.72,5.43-0.32,8.05,3.76,8.11
		c4.22,0.06,6.21-3.4,7.11-8.18c0.01-0.04,0.02-0.08,0.02-0.12l0,0c0.76-5.55,0.39-8.23-3.73-8.29c-4.22-0.06-6.21,3.41-7.12,8.19
		C267.76,86.62,267.75,86.67,267.75,86.7L267.75,86.7z M270.68,101c-9.42,0-12.25-4.96-11.13-13.87c0.06-0.45,0.08-0.8,0.17-1.3
		c1.7-9.47,6.32-13.43,16.08-13.43c9.16,0,12.09,4.69,11.21,13.13c-0.08,0.76-0.15,1.36-0.29,2.09
		C285.03,97.05,280.43,101,270.68,101L270.68,101z M408.45,86.7c-0.01,0.06-0.02,0.12-0.03,0.18c-0.72,5.43-0.32,8.05,3.76,8.11
		c4.22,0.06,6.21-3.4,7.11-8.18c0.01-0.04,0.02-0.08,0.02-0.12l0,0c0.76-5.55,0.39-8.23-3.73-8.29c-4.22-0.06-6.21,3.41-7.12,8.19
		C408.46,86.62,408.45,86.67,408.45,86.7L408.45,86.7z M411.39,101c-9.42,0-12.25-4.96-11.13-13.87c0.06-0.45,0.08-0.8,0.17-1.3
		c1.7-9.47,6.32-13.43,16.08-13.43c9.16,0,12.09,4.69,11.22,13.13c-0.08,0.76-0.15,1.36-0.29,2.09
		C425.73,97.05,421.13,101,411.39,101L411.39,101z M352.82,75.53c1.82,2.38,2.03,4.47,1.16,8.65c-0.76,3.69-2.32,9.58-2.91,11.95
		c-0.46,1.83,0.6,3.58,0.9,4.86c-7.02-0.04-11.17,0.04-18.2,0c-6.22-0.88-8.81-7.04-5.87-12.4c1.78-2.83,3.84-3.75,7.45-4.07
		c3.57-0.55,6.35,0.54,9.38-1.5c2.13-1.99,2.09-6.07-3.27-5.59c-1.68,0.34-2.74,1.81-3.58,3.72h-8.69c2.3-5.3,5.78-7.71,9.2-8.72
		C343.5,71.44,349.17,71.68,352.82,75.53L352.82,75.53z M339.33,88.97c2.4-0.14,4.02-0.33,4.97-0.24c-0.38,1.93-0.9,3.96-1.44,5.8
		c-0.47,1.58-1.49,1.32-3.41,1.33c-2.8,0.01-4.4-1.65-4.33-3.02C335.18,91.49,335.92,89.17,339.33,88.97L339.33,88.97z
		 M149.43,65.11c-1.99,2.69-2.2,5.33-2.83,8.6c-1.28,6.68-2.87,14.91-3.94,20.42c-0.65,3.43-0.61,4.75,0.31,6.87
		c-4.59-0.04-7.85-0.05-12.44-0.09c1.93-1.92,2.51-4.39,3.18-8.46c0.45-2.7,1.23-6.98,2.05-11.49c2.23-12.28,2.42-14.43,1.26-15.85
		H149.43z M172.64,73.71l-0.99,6.15l-5.96,0.02c-0.68,3.65-1.82,8.46-2.5,12.11c-0.68,3.51,2.49,3.14,5.84,3l-0.85,5.95
		c-6.46,0.03-10.03,0.51-13.15-2.57c-1.63-1.61-1.12-4.77-0.57-7.08l2.43-11.68h-3.77l1.2-6c0.79,0.23,1.9,0.29,3.76,0.15l1.24-6.91
		c0.22-1.2-0.43-1.4-0.75-1.75h10.89c-1.37,0.93-1.56,3.71-2.59,8.6H172.64z M311.12,65.11c-0.69,0.86-1.91,2.4-2.12,3.49
		l-3.41,15.8l9.51-10.98h11.42c-1.17,0.58-1.66,0.99-2.44,1.85c-3.15,3.5-6.36,6.89-9.39,10.49l4.83,12.03
		c0.7,1.8,0.86,2.35,2.23,3.21l-10.87-0.09l-5.6-13.71c-2.1,10.37-2.03,11.68-1.76,13.62c-4.47-0.04-7.33,0.22-11.81,0.18
		c1.35-1.33,1.83-2.3,2.86-6.47c1.73-7.74,3.28-18.52,4.67-25.99c0.4-2.13,0.24-1.68-0.52-3.43H311.12z M250.21,65.11h14.23
		c-0.7,0.81-1.54,1.43-2.27,2.31c-5.09,6.13-10.11,13.83-15.35,20.39l-1.62,10.96c-0.12,0.86,0.15,1.61,0.81,2.23h-12.68
		c0.5-0.77,1.55-1.22,1.87-2.19c0.59-1.79,0.86-5.78,1.55-11.27c-3.35-8.66-5.3-13.1-6.74-16.23c-0.92-2-1.26-3.7-3.51-6.2
		c4.5,0,9,0,13.5,0c-1.58,2.43,0.98,6.52,3.16,13.28C248.58,70.89,251.98,66.77,250.21,65.11L250.21,65.11z M379.23,80.36
		c1.64-0.07,3.66-0.2,3.42,0.92l-2.8,13c-0.24,1.13-2.21,0.82-3.41,0.82c-3.2,0-4.21-3.21-3.64-7.15
		C373.36,84.01,375.19,80.54,379.23,80.36L379.23,80.36z M384.71,65.11l12.55,0.03c-0.61,0.58-2.14,2.42-2.48,4.45l-5.56,26.54
		c-0.65,2.34,0.04,3.15,0.78,4.67c-3.41,0.04-9.01,0.02-13.69,0.12c-4.32,0.09-6.49,0.29-8.85-0.79c-3.24-1.47-5.41-5.1-4.22-11.69
		c0.78-4.31,1.69-7.65,3.56-10c1.89-2.37,4.59-3.63,7.27-4.29c2.87-0.9,7.77-0.82,10.26-0.46c0.43-1.18,0.95-3.6,1.03-4.76
		C385.57,65.97,385.67,66.42,384.71,65.11L384.71,65.11z M148.24,6.45c1.6,1.01,2.99,4.13,1.92,6.8c-0.92,2.66-4.63,9.73-8.95,16.89
		c1.89,1.59,1.95,2.46,1.93,3.79c-0.01,0.96-0.46,3.96-0.04,4.35c1.6-2.46,2.14-4.56,3.41-6.6c0.81-1.3,1.16-2.34,1.92-1.46
		c0.57,0.65-0.77,3.56-1.2,4.69c-2.15,5.72-2.88,8.15-3.54,13.61c-0.42,3.51-1.01,4.71-2.55,4.67c-1.92-0.05-3-3.23-3.47-5.06
		c-0.62-2.41,0.12-3.4,0.32-6.56c0.17-2.65,1.78-6.64,1.82-8.12c0.04-1.82-1.8,0.72-2.44,1.58c-1.88,2.55-3.5,4.21-6.38,5.98
		c-3.02,1.85-3.6,0.58-1.81-1.7c5.16-6.58,10.2-18.04,13.08-25.33c2.95-7.47,0.16-7.34,0.87-8.76
		C143.66,4.15,145.62,4.79,148.24,6.45L148.24,6.45z M178.85,7.34c5.5,0.87,4.69,3.37,4.11,5.88c0.45,2.1-2.08,7.27-5.43,11.07
		c1.04,1.39,3.61,1.37,4.42,2.69c1.05,1.72,0.65,3.05-1.15,3.18c-1.99,0.15-11.77,1.09-14.12,3.03c-0.87,4.33-2.3,10.47-3.54,15.03
		c-0.58,2.12-2.05,3.6-3,4.83c-1.43,1.93-2.91,2.7-4.69,2.7c-2.73,0.01-2.63-0.37-2.86-1.05c1.94-1.58,3.56-3.6,4.89-7.8
		c1.16-3.66,2.88-9.17,2.49-11.35c-0.71-0.1-1.27,0.31-2.03,0.66c-1.26,0.59-2.16,1.14-2.89,1.34c-1.85,0.18-1.82-0.13-2.89-1.07
		c-0.97-0.86-1.76-1.65-2.05-2.33c-0.3-0.7-0.5-1.17,0.65-1.34c1.88-0.27,2.22-0.67,4.71-1.43c2.39-2.2,2.32-3.39,6.31-7.5
		c0.43-0.44,0.33-1.01-0.29-1.18c-1.23-0.34-3.05,0.25-5.12-0.67c-1.06-0.47-1.22-0.96-0.05-1.66c0.76-0.46,2.34-0.29,3.83-1.4
		c1.02-0.76,2.56-0.02,2.5-1.83c-3.3-2.73-1.02-2.14-2.7-2.97c-4.06,0.32-6.21,0.7-5.82-0.68c0.23-0.8,1.26-2.3,4.58-3.57
		c2.21-0.85,4.26-1.06,6.51-1.6C168.14,7.61,172.34,6.31,178.85,7.34L178.85,7.34z M164.44,13.98c-0.19,0.78,2.58-0.05,4.64,2.12
		c2.21,0.23,2.99,0.26,5.2,2.06c0.69-1.03,0.86-2.83,1.32-4.82c0.51-2.21-2.05-2.75-3.93-2.19
		C169.02,11.94,165.09,13.37,164.44,13.98L164.44,13.98z M168.19,27.6c0.37-0.05,0.89-0.05,1.95-1.37c0.8-2.19,3.92-4.91,2.32-5.57
		c-2.23,0.68-3.36,0.4-4.06,2.33C168.2,24.09,167.86,26.24,168.19,27.6L168.19,27.6z M159.09,30.22c0.84,0.72,1.88-0.47,2.33-0.78
		c-0.05-0.8,0.52-1.11-0.11-2.1C160.25,27.63,158.81,29.25,159.09,30.22L159.09,30.22z M224.02,1.25c3.11,0.68,5.04,1.56,2.97,4.88
		c3.35,0.1,5.77-2.95,11.15,2.38c1.76,1.75-1.5,2.34-3.37,2.26c-3.97-0.17-9.56-1.03-11.22-0.26c-1.79,0.84-0.18,1.28,0.33,1.39
		c2.77-0.08,4.27,0.7,5.16,3.14c0.64-0.18,1.4-0.95,1.26-1.33c-0.76-0.72-0.21-1.47,0.13-1.52c0.39-0.06,1.99,0.28,2.52,0.62
		c1.66,1.07,2.35,1.27,2.13,2.32c-0.14,0.66-3.74,3.98-4.86,4.58c-1.24,0.67-2.22,0.87-3.22,1.46c-0.11,0.64-0.22,0.59,0.63,0.97
		c0.41,0.18,2.63-0.6,3.26-0.58c2.29,0.06,4.32,0.74,1.26,3.32c-0.87,0.74-1.57,0.36-1.97,1.93c0.41,1.26,4.43-1.21,7.38-1.33
		c0.79,0.07,3.18,0.99,3.7,1.6c1.02,1.19-0.37,2.6-1.95,2.8c-1.84,0.24-3.66,0.91-5.28,1.04c-2.21,0.17-3.83-1.25-4.51,1.47
		c0.62,0.79,4.66-0.45,10.69,2.59c2.71,1.37,5.59,3.18,7.08,6.21c0.41,0.84,0.18,1.51-0.39,2.14c-0.57,0.63-2.02,0.55-2.79-0.02
		c-1.99-1.45-2.38-1.43-4.4-1.77c-1.84-0.31-4.36-1.05-4.27-1.35c0.08-0.27,1.7-0.89,3.28-0.9c-0.71-0.71-1.61-1.98-2.58-1.52
		c-1.03,1.35-2.48,2.68-3.85,3.69c-0.72,0.52-1.95,0.72-2.56,1.22c-1.23,1-0.96,1.03-0.95,1.6c3.63,0.05,8.44,0.99,10.51,3.52
		c0.81,1,1.85,1.95,1.11,3.7c-0.33,0.8-0.95,0.96-1.57,0.67c-1.45-0.69-1.37-0.77-2.77-1.04c-1.54,0.04-3.69,0.32-4.68,0.64
		c-1.31,0.43-2.2-0.23-0.97-1.07c0.94-0.64,2.58-0.75,3.27-1.59c0.29-1.15-4.48-3.26-5.62-2.05c-0.01,0.78,0.25,6.9,0.38,9.62
		c0.04,0.87-0.45,2.43-1.07,2.62c-2.07,0.64-3.06-1.33-3.66-2.24c-1.63-2.42-2.08-1.29-5.36-4.56c-2.52,2.29-4.55-0.51-3.48-4.93
		c0.54-2.22,2.5-3.55,2-4.47c-0.76-0.53-2.27,1.11-3.67,1.71c-1.16,0.5-1.99,1.24-2.45,1.45c0.11,2.69,0.99,8.58-1.06,10.15
		c-1.78,1.37-2.76-0.89-3.24-1.49c-0.63-0.78-2.07-1.96-3.37-3.39c-2.52-2.79-5.27-5.42-6.48-4.68c-1.45,2.54-1.78,3.62-3.53,4.38
		c-1.44,0.62-2.37,0.39-1.69-0.95c1.85-3.64,2.54-6.29,3.41-10.43c0.93-4.4,1.61-9.43,1.7-15.77c-1.2-0.62-3.02-1.41-1.4-2.67
		c2.05-1.58,3.82-0.9,5.81-2.4c2.15-1.62,4.53-1.74,6.95-1.3c-0.19-1.3-0.34-1.97-1.37-3.33c-1.21,0.57-2.21,1.01-3.12,1.15
		c-2.68,0.48-5.37-0.39-7.16-1.78c-1.44-1.13-1.21-1.73,0.4-1.95c3.16-0.42,6.03-0.98,8.86-1.69c-0.02-3.74-1.9-2.76-1.93-4.41
		c-0.03-1.46,0.49-1.64,1.58-1.35c3.23,0.84,4.42,3.8,5.19,4.49c0.95-0.06,2.96-0.64,5.22-1.09c3.88-0.78,4.51-0.71,4.64-1.39
		c0.33-1.03,0.76-1.91,0.73-2.49c-0.09-1.83-2.39-0.73-1.34-2.18C220.17,0.83,222.7,0.96,224.02,1.25L224.02,1.25z M211.56,12.75
		c0.39,1.58,0.81,5.11-1.7,5.75c0.88,0.8,0.34,3.31-0.02,6.46c-0.37,3.15-0.04,5.97,0.29,8.18c0.65,0.3,0.98,1.62,1.19,1.28
		c1.79-2.9,4.18-1.62,6.7-3.2c1.15-1.44,0.75-2.62-0.19-2.19c-0.6,0.01-1.93,0.34-3.5,0.27c-1.88-0.08-3.29-1.18-1.2-2.35
		c2.93-1.65,5.36-1.73,7.95-3.27c0.3-0.47,0.92-1.81-0.09-2.14c-1.01-0.7-1.57,3.23-4.22,2.15c-0.7-0.18-1.36-1.01-1.06-1.82
		c0.66-1.78,0.08-2.16,0.71-4.01c0.84-2.52,2.25-1.17,2.28-0.24c0.03,1.23,0.8,0.85,2.29,0.19c1.14-0.5,2.58-1,1.65-3.93
		c-0.65-2.03-1.32-1.04-2.87-0.13c-1.43,0.84-4.68,2.91-5.89,2.32c-0.84-0.41,0.27-1.31,0.76-1.65c0.84-0.58,2.09-2.1,2.7-3.08
		C215.83,11.14,212.59,12.03,211.56,12.75L211.56,12.75z M201.53,21.79c-1.45,0.88-2.12,1.14-0.87,2.7
		c0.27,0.34,1.09,1.61,1.33,2.15c0.78-0.09,2.23-0.61,2.84-1.3c-0.06-1.08-0.1-1.6-0.17-2.67
		C204.53,20.29,203.59,20.53,201.53,21.79L201.53,21.79z M201.15,29.59c0.23,0.4-0.51,1.76,0.08,2.82c0.77-0.11,1.58-2.71,1.94-2.9
		C202.83,29.37,201.82,29.49,201.15,29.59L201.15,29.59z M204.71,32.3c-0.84,0.91-0.82,1.07-1.74,1.83
		c-1.33,1.63-0.51,2.38,0.14,1.94C204.55,35.1,206.6,33.83,204.71,32.3L204.71,32.3z M227.38,32.3c-0.49,0.18-3.12,0.78-4.56,1.45
		c-2.02,1.31,3.72,0.37,4.57,3.46c0.15,0.52,0.19,2.17,1.54,1.81c0.64-1.21,1.12-1.33,1.38-2.46c0.15-0.63,0.72-1.12,0.26-1.43
		C229.51,34.04,227.94,34.86,227.38,32.3L227.38,32.3z M220.25,38.73c0.83,0.45,1.41,0.98,1.01,2.73c0.15,0.01,0.58,0.3,1.09,0.26
		c1.37-0.89,0.51-3.81,0.37-4.95c-0.11-0.88-0.96-1.3-1.83,0.11C220.63,37.29,220.5,38.37,220.25,38.73L220.25,38.73z M209.83,36.91
		c0.09,1.85,0.32,3.57,0.42,5.42c1.54,0.17,3.5-3.17,4.46-4.36c-0.17-1.36-1.78,0.23-2.54-0.11
		C211.23,37.44,210.72,35.76,209.83,36.91L209.83,36.91z M205.09,48.43c0.71-0.17,0.61-0.9,0.58-4.03c-0.02-2,0.88-6.38-0.96-5.93
		c-1.78,1.01-1.04,2.76-2.94,4.07c-0.46,0.32-2.13,0.4-3.5,0.23c-0.32,0.85-0.35,1.71-0.67,2.56
		C200.19,46.48,202,47.39,205.09,48.43L205.09,48.43z M222.36,43.52c-0.82,0.76-2.48,4.92-3.43,7.22c0.62,1.13,2.67,1.45,4.42,1.57
		C222.9,49.32,223.63,43.13,222.36,43.52L222.36,43.52z M268.36,6.84c1.48,1.38,2.24,2.35,0.58,3.6c-2.78,2.09-8.05,3.54-8.57,6.7
		c-0.43,2.6,1.28,4.35,1.39,6.53c0.12,2.4-0.49,5.84-1.44,9.21c-0.66,2.35-0.51,5.15,0.33,5.65c1.52-0.09,3.15-8.68,5.31-12.24
		c1.86-3.06,2.62-1.61,1.93,0.73c-1.66,5.65-2.98,11.75-3.92,17.41c-0.34,2.06-1.25,4.36-2.47,4.9c-1.73,0.77-2.71-0.73-3.78-2.18
		c-2.55-3.48-2.82-9.27-2.31-14.97c0.52-5.84,0.09-6.72,1.43-11.15c0.88-2.9,2.75-7.73,4.54-10.03c1.01-1.29,0.97-2.55-1.22-3.25
		c-2.46-0.79-3.86-1.24-0.44-2.33C263.04,4.35,266.87,5.45,268.36,6.84L268.36,6.84z M294.35,6.32c-1.31,1.36-2.9,2.7-5.6,4.93
		c-0.4,0.33-2.13,0.95-2.26,2.18c-0.04,0.39,0.51,0.6,2.16-0.1c4.07-1.73,5.26-1.47,7-0.81c1.53,0.59,3.46,2.58,1.68,3.84
		c-1.41,0.99-4.13,0.79-6.93,2.11c-1.63,0.77-2.98,1.27-2.8,1.6c0.65,1.15,1.69,0.82,3.23,0.72c1.49-0.09,2.24,0.18,3.75,1
		c0.66,0.35,0.31,1.59-0.74,2.66c-1.93,1.98-2.9,1.54-4.29,3.46c0.05,0.95,0.04,2.07,0.09,3.03c2.74-0.04,4.33-0.95,6.07-0.85
		c2.9,0.17,4.09-0.62,5.79-0.12c3.88,1.13,7.89,6.01,4.48,6.96c-1.67,0.47-3.84-0.46-6.24-0.96c-3.38-0.72-7-0.77-10.06-0.64
		c0.13,8.71,0.86,15.92-4.57,22.87c-2.77,3.55-2.43,0.76-2.12-2c0.66-5.81,0.01-12.6,0.3-16.83c0.15-2.21-0.4-2.6-2.95-1.48
		c-7.04,3.1-3.36,2.92-6.28,3.31c-2.21,0.3-3.38-1.28-4.97-2.73c-1.5-1.37-1.97-2.19-1.79-2.58c0.4-0.87,3.22,0.4,4.51-0.32
		c2.16-1.63,6.83-3.65,10.13-6.66c-0.08-1.04-2.79-0.15-4.76-0.37c-2.45-0.27-3.3-1.08-1.29-2.48c0.74-0.52,1.78-0.62,2.73-1.03
		c1.68-0.73,1.03-1.48,1.79-1.98c1.15-0.76,1.74-0.77,1.02-2.12c-3.02,1.22-5.27,2-8.24,0.49c-4.08-2.09,0.89-1.36,2.95-3.47
		c3.31-3.38,5.3-3.9,11.01-11.75c0.68-0.94,0.87-2.32-0.8-1.09c-1.83,1.34-5.15,5.14-7.37,7.07c-1.93,1.67-3.6,0.41-3.83-2.42
		c-0.2-2.56-0.19-3.81,0.85-5.65c0.91-1.6,2.21-1.14,2.47,0.67c0.26,1.77,1.06,1.17,2.56,0.46c1.09-0.51,1.93-1.5,3.08-2.07
		C287.19,1.64,291-0.3,294.61,1C298.14,2.26,296.28,4.32,294.35,6.32L294.35,6.32z M346.85,7.42c-0.08,0.36-0.99,2.67,0.48,3.1
		c1.54-0.75,3.14-1.74,5.66-4.55c-0.82-1.86-0.84-1.92,0.88-2.13c3.06-0.36,8.77,2.6,8.05,4.94c-4.93,3.35-10.72,4.59-16.39,5.95
		c-0.3,2.75-0.96,3.92,3.03,4.45c3.84,0.51,9.5,0.27,11.71-0.79c1.49-0.71,3.22-0.61,4.85,0.06c2.58,1.06,5.3,4.06,2.63,5.47
		c-2.57,0.99-6.36,0.5-8.59,0.95c-4.97,2.34-9.1,2.67-13.43,4.29c0,0.47-0.23,1.51-0.23,1.99c3.1-0.38,4.68-0.91,6.91-1.18
		c3.11-0.37,4.65-1.35,7.99-0.94c0.82,0.06,3.46,0.8,4.75,1.99c1.13,1.05,2.22,2.18,1.51,3.04c-1.09,1.42-5.61,0.71-8.02,0.34
		c-2.36,0-13-0.32-13.22,0.97c-0.29,3.41,0.45,10.19-0.79,14.55c-1.1,3.92-2.16,6.25-4.19,8.32c-0.56,0.57-1.9,1.63-1.98,0.43
		c-0.08-7.12,0.27-14.74,0.17-21.97c-3.72,1.17-6.93,2.86-9.46,4.5c-3.01,1.95-5.33,2.38-8.35,0.84c-1.34-0.49-2.53-0.97-3.53-1.76
		c-1.06-0.84-1.37-2.02,0-2.26c1.71-0.3,4.4-0.5,6.34-0.88c4.59-1.22,9.84-2.61,14.97-5.92c0.36-3.37-1.11-4.94-3.15-6.51
		c1.29-1.26,4.37-1.19,6.74-0.37c1.84,0.64,3.07,2.06,3.15,3.15c0.38-0.19,3.17-1.45,4.77-2.36c0.73-0.41,1.48-0.96,1.06-1.31
		c-8.26-0.3-11.26-2.91-11.99-6.05c-0.42-1.8-0.16-7.09,0.02-12.38c0.07-2.1-3.39-2.61-0.39-3.57c1.74-0.56,5-1.11,6.92,0.1
		C347.17,2.81,347.45,4.8,346.85,7.42L346.85,7.42z M325.99,2.16c2.46,0.32,7.39,0.08,8.17,2.48c0.49,2.36-3.11,5.55-4.26,8.12
		c1.94,2.38,2.55,4.74,1.58,10.47c-0.57,3.33,0.16,5.08-1.4,6.39c-2.5,1.48-2.85,0.08-4.2-2.34c-1.48-2.65-0.94-6.36-0.88-9.31
		c-0.05,0-0.09,0-0.14,0c-1.26,1.14-2.68,2.7-3.96,3.63c-0.96,0.71-2.13,1.45-4.18,1.91c-1.08,0.25-2.33-0.08-2.3-0.5
		c2.32-2.34,6.07-6.65,8.68-11.07c1.62-2.74,2.93-5.21,3.45-7.37c-0.44-0.7-1.54-1.02-1.52-1.75
		C324.99,2.41,325.45,2.17,325.99,2.16L325.99,2.16z M399.09,1.72c2.12,0.5,4.13,1.07,4.65,2.22c0.6,1.34-0.79,2.28-0.45,6.99
		c1.5,0.04,3.35-2.44,4.07-4.01c0.52-1.13-2.4-2.1,0.9-2.42c2.26-0.22,7.72,0.98,6.97,3.17c-0.88,2.24-6.37,4.76-10.22,6.46
		c-0.7,0.3-2.54,0.84-2.5,1.11c0.18,1.2,1.17,0.91,3.35,0.42c6.61-1.46,12.27-1.73,16.61-1.06c1.78,0.5,3.78,1,4.87,2.69
		c1.68,2.58-2.04,3.57-2.92,3.66c-6.68,0.7-10.23,2.44-11.26,2.39c-0.22-0.01-0.98,0.31-0.88,0.5c1.14,2.16-1.66,4.21-2.39,4.87
		c-0.88,0.81-1.99,1.14-1.65,2.22c1.05,1,2.01,0.66,1.54,2.65c-0.65,2-5.72,2.2-7.73,4.36c1.33,0.57,2.34,1.99,2.44,2.99
		c1.56-0.43,3.05-1.03,4.82-0.57c1.26,0.33,3.92,1.37,3.99,2.89c-0.24,0.77-1.59,1.96-2.74,2.14c-1.82,0.28-5.23,0.5-6.48,0.76
		c-0.5,1.66-0.89,2.93-1.4,4.49c0.55,1.18,3.18-0.08,6.53,0.07c3.13,0.15,4.41-0.67,8.29,0.84c1.24,0.48,4.04,1.24,4.75,2.3
		c1.88,2.82-1.78,4.28-4.01,3.79c-2.14-0.43-5.28-0.46-8.4,0.04c-1.47,0.32-3.26,1.21-4.84,1.33c-0.94,0.07-1.74-0.25-0.59-1.11
		c0.76-0.57,2.41-1.05,3.57-1.79c0.47-0.3,0.43-0.59-0.54-0.62c-5.91-0.22-12.39,2.17-14.06,2.59c-2.69,0.57-4.22,1.39-6.04,1.05
		c-2.07-0.45-3.02-1.99-4.57-3.03c-1.67-1.12-1.92-2.66,0.16-2.53c1.57,0.1,3.46,0.3,5.58,0.06c3.43-0.38,7.26-1.49,8.88-1.98
		c0.04-0.96,0.02-2.49,0.06-3.45c-2.34,0.87-6-0.47-7.9-1.29c-1.33-0.58-1.73-0.9-0.36-2.31c0.47-0.48,0.66-0.09,3.8-1.07
		c1.1-0.34,2.73,0.04,4.81-0.88c0.14-0.96-0.79-2.44-1.45-3.68c-1.72,1.05-3.13,0.88-5.01-1.27c-1.36-1.57-2.37-3.7-2.57-5.96
		c-0.19-2.15-0.39-3.72-0.51-5.55c-0.07-0.99,0.23-1.86,0.78-2.41c-3.58-0.12-4.47-0.99-5.4-1.48c-0.31-0.16-0.91,0.01-0.98,0.27
		c-0.42,1.79,0.09,5.52-0.05,8.08c-0.1,1.77-0.75,2.47-1.88,3.04c-1.33,0.55-2.53-1.09-3.51-3.04c-0.6-1.21-0.97-2.16-0.72-3.48
		c0.59-3.13,2.53-6.81,4.27-8.86c0.71-0.84,1.61-0.86,1.79,0.65c0.07,0.57-0.09,1.22-0.02,1.95c3.43-1.35,6.81-2.52,14.56-3.88
		c0.04-1.73,0.07-4.42,0.05-5.4c-2.87,1.47-4.11,3.45-5.79,4.4c-1.3,0.73-2.02,1.93-3.12,1.38c-1.36-0.68-2.34-2.07-2.07-4.06
		c0.27-1.94,2.27-3.27,3.13-5.07c0.79-1.65,2.23-0.77,2.13,2.31c-0.03,0.85,0.74,0.58,1.4,0.28c1.23-0.56,2.58-1.15,4.36-2.02
		c0.07-6.38-3.42-4.88-3.09-6.68C394.54,0.6,398.06,1.48,399.09,1.72L399.09,1.72z M391.26,25.94c1.62-0.73,2.43-1.23,4.09-1.67
		c3.99-1.05,7.68-2.08,10.73-2.45c2.28-0.3,4.63,0.58,5.62,1.31c-0.43-0.12,0.06-0.92,0.71-1.57c0.61-0.61,2.14-1.11,4.24-2.69
		c-0.82-1.22-5.08-0.28-8.47,0.29c-7.51,1.24-11.46,2.26-15.66,4.12c-1.62,0.71-2.38,0.63-3.08,0.5
		C389.22,23.74,390.18,24.85,391.26,25.94L391.26,25.94z M396.77,29.15c-1.6,0.27-2.88-0.82-4.14,0.06
		c0.12,0.99,1.18,2.98,1.76,3.86c2.03-0.75,5.12-0.81,5.45-1.38c0.89-1.24,1.81-2.12,2.62-3.46c0.56-0.93,1.49-1.87,2.05-2.78
		C402.61,23.96,398.62,28.74,396.77,29.15L396.77,29.15z"/>
	<g>
		<g>
			<defs>
				<rect id="SVGID_1_" y="0.34" width="103.76" height="103.76"/>
			</defs>
			<clipPath id="SVGID_00000036243382034154446810000009162842425021499821_">
				<use xlink:href="#SVGID_1_"  style="overflow:visible;"/>
			</clipPath>
			
				<path style="clip-path:url(#SVGID_00000036243382034154446810000009162842425021499821_);fill-rule:evenodd;clip-rule:evenodd;fill:#E50012;" d="
				M103.76,0.95V104.1H0V34.65c3.13-0.09,6.82,0.73,8.83,3.39c2.66,3.5-1.11,14.47,1.82,22.4C15.79,75.32,28,82.51,42.44,84.38
				c16.89,2.18,37.27-2.55,50.05-10.31l-0.14-11.33c-5.2,1.87-25.57,8.09-44.61-5.07c30.79,3.8,46.28-27.21,54.91-56.71H103.76z"/>
			
				<path style="clip-path:url(#SVGID_00000036243382034154446810000009162842425021499821_);fill-rule:evenodd;clip-rule:evenodd;fill:#00A0E9;" d="
				M0,0.34h92.11v0.67C50.51,11.92,41.23,28.88,35.37,48.45c-1.74-1.99-3.92-5.15-5.84-8.55c-2.29-4.05-2.9-7.08-4.3-11.21
				C22,19.11,8.79,20.03,6.57,31.2L0,33.49V0.34z"/>
		</g>
	</g>
</g>
</svg>
