<?xml version="1.0" encoding="UTF-8" standalone="no"?>
<!-- Created with Inkscape (http://www.inkscape.org/) -->

<svg
   xmlns:dc="http://purl.org/dc/elements/1.1/"
   xmlns:cc="http://creativecommons.org/ns#"
   xmlns:rdf="http://www.w3.org/1999/02/22-rdf-syntax-ns#"
   xmlns:svg="http://www.w3.org/2000/svg"
   xmlns="http://www.w3.org/2000/svg"
   xmlns:sodipodi="http://sodipodi.sourceforge.net/DTD/sodipodi-0.dtd"
   xmlns:inkscape="http://www.inkscape.org/namespaces/inkscape"
   width="111.52698mm"
   height="64.202148mm"
   viewBox="0 0 111.52698 64.202148"
   version="1.1"
   id="svg714"
   inkscape:version="0.92.0 r15299"
   sodipodi:docname="yokes.svg">
  <defs
     id="defs708">
	
	
	
	
	

		
		
		
		
		
	
		
	
		
		
		
		
		
		
		
		
		
		
		
		
		
		
		
		
		
		
		
		
		
		
	
		
		
		
		
		
	
		
	
			
		
			
		
			
		
			
		
			
		
			
		
			
		
			
		
			
		
			
		
			
		
			
		
			
		
			
		
			
		
			
		
			
		
			
		
			
		
			
		
			
		
			
		
			
		
			
		
			
		
			
		
			
		</defs>
  <sodipodi:namedview
     id="base"
     pagecolor="#ffffff"
     bordercolor="#666666"
     borderopacity="1.0"
     inkscape:pageopacity="0.0"
     inkscape:pageshadow="2"
     inkscape:zoom="2.1472699"
     inkscape:cx="208.86987"
     inkscape:cy="119.43715"
     inkscape:document-units="mm"
     inkscape:current-layer="layer1"
     showgrid="false"
     fit-margin-top="0"
     fit-margin-left="0"
     fit-margin-right="0"
     fit-margin-bottom="0"
     inkscape:window-width="1280"
     inkscape:window-height="744"
     inkscape:window-x="-4"
     inkscape:window-y="-4"
     inkscape:window-maximized="1" />
  <metadata
     id="metadata711">
    <rdf:RDF>
      <cc:Work
         rdf:about="">
        <dc:format>image/svg+xml</dc:format>
        <dc:type
           rdf:resource="http://purl.org/dc/dcmitype/StillImage" />
        <dc:title></dc:title>
      </cc:Work>
    </rdf:RDF>
  </metadata>
  <g
     inkscape:label="Layer 1"
     inkscape:groupmode="layer"
     id="layer1"
     transform="translate(-46.790084,-300.68464)">
    <g
       id="g1113"
       transform="translate(0.50000171,-0.50000289)">
      <path
         style="fill:#63a430;stroke-width:0.26458332"
         inkscape:connector-curvature="0"
         d="m 141.49399,314.97395 -1.16013,0.0704 c -1.00382,0.0689 -1.9774,0.34533 -3.09206,1.27873 -4.45167,3.72432 -1.16557,10.92905 -1.16557,10.92905 v -0.0116 c -0.33331,-1.39591 -1.26814,-6.8749 3.56671,-9.90702 l 0.14237,-0.089 c 0,0 -2.93057,2.39624 -2.43809,6.59508 1.19036,-1.44979 2.93186,-2.5421 4.03231,-3.17436 l 0.21626,-0.14082 v 0.007 c 0,0 5.05783,-3.12061 4.13748,-7.69888 0,0 -0.0388,1.95543 -4.23928,2.14186"
         id="path718" />
      <path
         style="fill:#fb8924;fill-rule:evenodd;stroke-width:0.26458332"
         inkscape:connector-curvature="0"
         d="m 149.4501,322.00026 c -1.04697,-0.58006 -4.9395,0.61121 -6.21952,1.2591 -10.32702,5.24038 -1.40017,8.98679 -1.16427,9.08627 1.51619,0.65035 3.66696,1.53556 2.41561,3.53622 -0.5395,0.86325 -3.47007,2.95511 -6.81379,4.02585 -0.601,0.19404 -1.56683,0.8108 -0.51367,1.61514 0.21782,0.16537 1.03637,0.6178 2.09212,0.48757 2.32855,-0.28964 8.09408,-3.53415 9.61027,-6.41898 1.48337,-2.82748 0.24236,-4.39845 -4.51807,-6.55994 -2.22415,-0.88212 -1.02733,-2.285 3.07371,-3.89511 0.0442,-0.009 1.34256,-0.49661 2.36084,-0.29159 1.18624,0.24482 1.33222,-1.93321 -0.32323,-2.84453"
         id="path722" />
      <path
         style="fill:#fb8924;fill-rule:evenodd;stroke-width:0.26458332"
         inkscape:connector-curvature="0"
         d="m 128.81544,327.25615 c 1.01182,-1.86798 0.2191,-2.06499 0.0444,-2.01771 -0.49274,0.13526 -2.11718,1.61902 -2.11718,1.61902 -2.0283,1.84188 -3.81683,4.58977 -3.81683,4.58977 l 1.09632,-0.34261 c 2.20452,-1.0325 3.86514,-2.13941 4.79325,-3.84847 m 4.06719,-1.495 c 0.10439,2.0947 -2.05181,4.45166 -4.19096,5.88271 -3.53389,2.36265 -7.12024,2.54351 -7.48119,2.54351 0,0 -1.80274,1.92676 -2.12752,4.68499 -0.0912,0.78367 0.0106,0.82269 0.24494,0.86558 0.41729,0.0824 1.17978,-0.16045 1.40405,-0.18267 0.37956,-0.0687 1.01028,0.27646 0.88522,1.12913 -0.2974,1.98411 -2.47944,1.9283 -2.47944,1.9283 -2.39881,0.0181 -2.89388,-3.3985 -2.89388,-4.27984 0,-2.58253 1.70352,-5.87664 1.70352,-5.87664 1.35986,-2.78575 5.44385,-9.34155 10.24899,-10.30364 2.19133,0.15128 4.58731,1.5959 4.68627,3.60857"
         id="path724" />
      <path
         style="fill:#fb8924;fill-rule:evenodd;stroke-width:0.26458332"
         inkscape:connector-curvature="0"
         d="m 88.19324,328.78267 c 0,-0.81882 -1.26323,-1.40534 -1.410507,-1.41852 l -0.448294,0.24288 c -1.135589,0.75189 -5.725361,4.99801 -6.015006,8.82776 l 0.02363,0.61779 c 0.07816,0.29352 0.350626,0.3036 0.891548,0.0982 0.281766,-0.10981 0.813517,-0.3837 1.529107,-0.93767 0.530587,-0.40902 2.822178,-2.14586 4.678526,-5.31208 0.440669,-0.75202 0.750985,-1.74537 0.750985,-2.11834 m 4.511742,-0.39907 c 0.444288,1.14359 0.149733,2.2881 -0.965833,3.93696 -3.940974,5.82342 -8.361375,8.07574 -10.9607,8.12819 -1.315294,0.0295 -3.853511,-0.64415 -4.114091,-3.89769 -0.456174,-5.72704 8.475969,-13.91595 10.496388,-13.93959 1.467869,-0.017 2.463933,0.7993 2.9723,1.47032 0.109294,0.18151 0.333571,0.53485 0.0181,0.90886 l -0.312902,0.21756 c -0.0872,0.0393 -0.317939,0.10813 -0.675023,0.37052 l 0.404109,0.19404 c 0.147277,0.0548 2.586278,1.19528 3.137664,2.61083"
         id="path726" />
      <path
         style="fill:#fb8924;fill-rule:evenodd;stroke-width:0.26458332"
         inkscape:connector-curvature="0"
         d="m 118.46517,302.81797 c -0.017,-0.53588 -0.55294,-1.02849 -2.34792,-0.96467 -1.76656,0.0638 -2.882,0.89181 -2.882,0.89181 -2.99336,4.62104 -13.00734,20.18959 -15.314567,24.74578 0,0 -2.840654,4.67232 -5.69681,8.93898 0,0 -0.883925,1.16272 -0.523999,2.35387 0,0 1.081976,3.19153 2.813137,1.24255 0.544928,-0.61417 1.433891,-2.49907 1.909702,-3.42459 0.430207,-0.83302 3.844337,-6.90358 12.870147,-10.20468 0.93896,-0.34274 1.65313,-0.33873 1.85906,-0.26988 0,0 0.0535,0.0915 -0.28939,0.70267 -1.15238,1.78749 -2.72077,3.36996 -4.7594,5.08406 l -1.22654,-0.78471 c 0,0 -0.49416,-0.43925 -1.1082,-0.23228 0,0 -0.54235,0.0966 -1.04555,1.00795 0,0 -0.32568,0.56689 -0.47581,1.33506 -0.0532,0.27104 -0.32569,1.12603 0.59325,1.61256 1.31671,0.65939 6.18438,2.36058 10.02187,7.46414 0,0 1.12009,1.58776 1.86035,1.7924 0.97126,0.28009 1.19011,-0.64931 1.14308,-1.04541 -0.40669,-3.28094 -5.51671,-8.1579 -6.14768,-8.63384 l -1.30613,-1.01803 c 3.57059,-2.6696 7.77447,-6.30543 8.05636,-8.60102 0.2527,-2.03735 -2.52258,-2.10775 -2.52258,-2.10775 -4.02146,0.0167 -10.00495,3.20006 -10.00495,3.20006 -0.13578,0.0668 -1.84601,0.90731 -2.254,1.22693 l 2.30723,-3.60715 c 6.57957,-10.47455 10.43928,-15.57657 13.41274,-18.88515 0.69092,-0.76662 1.0741,-1.314 1.0586,-1.81966"
         id="path728" />
      <path
         style="fill:#fb8924;fill-rule:evenodd;stroke-width:0.26458332"
         inkscape:connector-curvature="0"
         d="m 86.950939,310.23677 c 0.385765,-1.30638 -0.488857,-1.66631 -1.526651,-1.66631 -4.077528,0 -5.344504,2.60088 -6.414725,3.83788 -8.253113,9.53857 -15.528379,15.66416 -15.793092,15.86622 -4.073653,3.09852 -4.79441,3.3954 -5.027858,3.33313 -0.01964,-0.005 -0.126478,-0.0261 -0.153867,-0.39016 l -0.009,-0.13151 c 0,-8.49419 11.213527,-22.8583 11.213527,-22.8583 1.901822,-2.44804 4.009703,-4.34056 4.009703,-4.34056 0.659522,-0.49971 0.752279,-0.88522 0.810805,-1.13055 0.161618,-0.9148 -0.838193,-0.98818 -0.838193,-0.98818 -0.791166,-0.0975 -1.23455,-0.10155 -1.641114,-0.0548 -3.819534,0.43679 -5.712313,2.49261 -10.308802,10.13827 0,0 -6.512781,10.80128 -6.512781,18.09605 0,4.28256 2.229063,5.63286 4.580858,5.28353 4.62504,-0.68833 16.760089,-14.38091 16.865766,-14.44524 l 0.06007,0.0915 -0.392353,0.86713 c 0,0 -4.415493,10.67467 -15.198684,24.59062 -4.466007,5.76942 -5.7304,6.48927 -7.391281,8.22043 0,0 -1.233257,1.05317 -1.320461,2.02029 -0.09521,1.05368 0.790003,1.12655 0.994513,1.12655 0.542344,-0.0116 1.011695,-0.19405 2.301022,-1.14567 6.998797,-5.2312 12.627782,-14.07873 12.627782,-14.07873 7.27126,-10.19007 17.376587,-28.84449 17.376587,-28.84449 0.612754,-1.0179 1.423556,-2.49778 1.688269,-3.39708"
         id="path730" />
      <polygon
         transform="matrix(0.26458333,0,0,0.26458333,46.790084,301.68458)"
         id="polygon734"
         points="0,190.45361 17.225098,190.45361 17.225098,195.91162 6.4394531,195.91162 6.4394531,211.02686 16.175293,211.02686 16.175293,216.47705 6.4394531,216.47705 6.4394531,238.27783 0,238.27783 "
         style="fill:#2ac2fa;fill-rule:evenodd" />
      <path
         id="path738"
         d="m 55.913946,352.07543 h 2.245986 c 0.926946,0 1.619023,0.22247 2.072742,0.66585 0.574771,0.57206 0.861575,1.44979 0.861575,2.63214 0,0.90331 -0.153866,1.63556 -0.458757,2.18695 -0.301015,0.54648 -0.735356,0.88263 -1.295786,1.01441 l 2.328023,6.15414 h -1.729611 l -2.320271,-6.19445 v 6.19445 h -1.703901 z m 1.703901,5.60508 c 0.661975,0 1.129905,-0.15115 1.401077,-0.45733 0.272464,-0.30515 0.409407,-0.82295 0.409407,-1.54874 0,-0.39249 -0.0301,-0.72993 -0.08863,-1.0064 l -0.271173,-0.68316 -0.474519,-0.38344 -0.689492,-0.12377 h -0.286675 z"
         inkscape:connector-curvature="0"
         style="fill:#2ac2fa;fill-rule:evenodd;stroke-width:0.26458332" />
      <polygon
         transform="matrix(0.26458333,0,0,0.26458333,46.790084,301.68458)"
         id="polygon742"
         points="77.717773,232.83447 88.40918,232.83447 88.40918,238.27783 71.27832,238.27783 71.27832,190.45361 88.40918,190.45361 88.40918,195.91162 77.717773,195.91162 77.717773,211.05713 87.197266,211.05713 87.197266,216.50537 77.717773,216.50537 "
         style="fill:#2ac2fa;fill-rule:evenodd" />
      <path
         id="path746"
         d="m 78.851691,352.33976 v 1.6632 c -0.519993,-0.37129 -0.986761,-0.55629 -1.399913,-0.55629 -0.449844,0 -0.816099,0.15787 -1.10032,0.47439 -0.28422,0.30127 -0.42504,0.70279 -0.42504,1.20587 0,0.44183 0.09909,0.82088 0.302567,1.13817 l 0.508238,0.65551 c 0.240036,0.26743 0.550225,0.59067 0.926944,0.96713 0.692206,0.70512 1.165434,1.31387 1.416968,1.82753 0.250373,0.49429 0.375561,1.10433 0.375561,1.82625 0,0.97823 -0.273757,1.7849 -0.826696,2.41587 -0.552678,0.61935 -1.259097,0.9294 -2.121964,0.9294 -0.727604,0 -1.348108,-0.19947 -1.860352,-0.60229 v -1.68542 c 0.606166,0.44287 1.156391,0.66456 1.654295,0.66456 0.463923,0 0.826304,-0.15477 1.092308,-0.45734 0.259546,-0.31419 0.393777,-0.73406 0.393777,-1.26478 0,-0.45734 -0.104259,-0.87049 -0.305152,-1.23817 l -0.434081,-0.59712 -0.697373,-0.76248 c -0.431498,-0.42478 -0.787421,-0.80177 -1.074224,-1.12887 -0.2828,-0.32841 -0.492606,-0.61547 -0.62955,-0.86016 -0.263419,-0.48111 -0.393644,-1.08727 -0.393644,-1.82263 0,-0.98521 0.256831,-1.77146 0.770366,-2.34895 0.518703,-0.5842 1.214914,-0.87618 2.089536,-0.87876 0.606296,0 1.185072,0.1447 1.737749,0.43538"
         inkscape:connector-curvature="0"
         style="fill:#2ac2fa;fill-rule:evenodd;stroke-width:0.26458332" />
      <polygon
         transform="matrix(0.26458333,0,0,0.26458333,46.790084,301.68458)"
         id="polygon750"
         points="153.99658,214.62451 144.55176,214.62451 144.55176,238.27783 138.10742,238.27783 138.10742,190.45361 144.55176,190.45361 144.55176,209.16064 153.99658,209.16064 153.99658,190.45361 160.4458,190.45361 160.4458,238.27783 153.99658,238.27783 "
         style="fill:#2ac2fa;fill-rule:evenodd" />
      <path
         id="path754"
         d="m 101.92509,352.07543 h 1.45753 l 1.11441,5.16429 c 0.13435,0.6444 0.26096,1.29191 0.36897,1.93967 0.11498,0.64957 0.2191,1.32473 0.3129,2.03631 l 0.0233,-0.21342 0.016,-0.11214 0.23719,-1.45366 0.21368,-1.3764 0.18759,-0.90976 0.99089,-5.07489 h 1.47563 l 1.1653,12.65349 h -1.6322 l -0.28655,-4.29276 -0.0326,-0.56689 -0.006,-0.39377 -0.0757,-1.69344 -0.0393,-1.55779 -0.0103,-0.0664 -0.008,-0.14857 -0.0393,0.2558 -0.12221,0.7847 -0.0912,0.56534 -0.21394,1.15523 -0.0835,0.43693 -1.06376,5.52162 h -1.14722 l -1.0011,-4.76715 c -0.13694,-0.62838 -0.25812,-1.26426 -0.36768,-1.91074 -0.10283,-0.65086 -0.20063,-1.33118 -0.28525,-2.04173 l -0.49286,8.71962 h -1.60611 z"
         inkscape:connector-curvature="0"
         style="fill:#2ac2fa;fill-rule:evenodd;stroke-width:0.26458332" />
      <path
         id="path758"
         d="m 115.81597,352.07543 h 1.32705 l 2.71172,12.65349 h -1.68697 l -0.47439,-2.46496 h -2.50812 l -0.48498,2.46496 h -1.63866 z m 1.63091,8.86793 -0.37801,-2.01408 c -0.25012,-1.37382 -0.4563,-2.83652 -0.61392,-4.39302 -0.077,0.76016 -0.17466,1.53014 -0.29455,2.31149 -0.12274,0.77541 -0.2633,1.59784 -0.42763,2.47246 l -0.31031,1.62315 z"
         inkscape:connector-curvature="0"
         style="fill:#2ac2fa;fill-rule:evenodd;stroke-width:0.26458332" />
      <path
         id="path762"
         d="m 123.66614,352.07543 h 2.24508 c 0.9307,0 1.62161,0.22247 2.07403,0.66585 0.57465,0.57206 0.86145,1.44979 0.86145,2.63214 0,0.90331 -0.15373,1.63556 -0.46018,2.18695 -0.30101,0.54648 -0.73122,0.88263 -1.29423,1.01441 l 2.32673,6.15414 h -1.72987 l -2.31898,-6.19445 v 6.19445 h -1.70403 z m 1.70403,5.60508 c 0.66224,0 1.12887,-0.15115 1.4025,-0.45733 0.2713,-0.30515 0.40824,-0.82295 0.40824,-1.54874 0,-0.39249 -0.0287,-0.72993 -0.0886,-1.0064 l -0.2713,-0.68316 -0.47465,-0.38344 -0.68807,-0.12377 h -0.2881 z"
         inkscape:connector-curvature="0"
         style="fill:#2ac2fa;fill-rule:evenodd;stroke-width:0.26458332" />
      <polygon
         transform="matrix(0.26458333,0,0,0.26458333,46.790084,301.68458)"
         id="polygon766"
         points="332.94678,238.27783 326.51318,238.27783 326.51318,190.45361 332.94678,190.45361 332.94678,213.62354 341.93408,190.45361 348.43701,190.45361 339.02295,213.62354 349.18701,238.27783 341.93408,238.27783 332.94678,213.62354 "
         style="fill:#2ac2fa;fill-rule:evenodd" />
      <polygon
         transform="matrix(0.26458333,0,0,0.26458333,46.790084,301.68458)"
         id="polygon770"
         points="370.54932,232.83447 381.24072,232.83447 381.24072,238.27783 364.11475,238.27783 364.11475,190.45361 381.24072,190.45361 381.24072,195.91162 370.54932,195.91162 370.54932,211.05713 380.02881,211.05713 380.02881,216.50537 370.54932,216.50537 "
         style="fill:#2ac2fa;fill-rule:evenodd" />
      <polygon
         transform="matrix(0.26458333,0,0,0.26458333,46.790084,301.68458)"
         id="polygon774"
         points="410.52197,238.27783 404.21045,238.27783 404.21045,196.09424 396.771,196.09424 396.771,190.45361 417.73975,190.45361 417.73975,196.09424 410.52197,196.09424 "
         style="fill:#2ac2fa;fill-rule:evenodd" />
      <polygon
         transform="matrix(0.26458333,0,0,0.26458333,46.790084,301.68458)"
         id="polygon778"
         points="0,190.45361 17.225098,190.45361 17.225098,195.91162 6.4394531,195.91162 6.4394531,211.02686 16.175293,211.02686 16.175293,216.47705 6.4394531,216.47705 6.4394531,238.27783 0,238.27783 "
         style="fill:#2ac2fa;fill-rule:evenodd" />
      <path
         id="path782"
         d="m 55.913946,352.07543 h 2.245986 c 0.926946,0 1.619023,0.22247 2.072742,0.66585 0.574771,0.57206 0.861575,1.44979 0.861575,2.63214 0,0.90331 -0.153866,1.63556 -0.458757,2.18695 -0.301015,0.54648 -0.735356,0.88263 -1.295786,1.01441 l 2.328023,6.15414 h -1.729611 l -2.320271,-6.19445 v 6.19445 h -1.703901 z m 1.703901,5.60508 c 0.661975,0 1.129905,-0.15115 1.401077,-0.45733 0.272464,-0.30515 0.409407,-0.82295 0.409407,-1.54874 0,-0.39249 -0.0301,-0.72993 -0.08863,-1.0064 l -0.271173,-0.68316 -0.474519,-0.38344 -0.689492,-0.12377 h -0.286675 z"
         inkscape:connector-curvature="0"
         style="fill:#2ac2fa;fill-rule:evenodd;stroke-width:0.26458332" />
      <polygon
         transform="matrix(0.26458333,0,0,0.26458333,46.790084,301.68458)"
         id="polygon786"
         points="77.717773,232.83447 88.40918,232.83447 88.40918,238.27783 71.27832,238.27783 71.27832,190.45361 88.40918,190.45361 88.40918,195.91162 77.717773,195.91162 77.717773,211.05713 87.197266,211.05713 87.197266,216.50537 77.717773,216.50537 "
         style="fill:#2ac2fa;fill-rule:evenodd" />
      <path
         id="path790"
         d="m 78.851691,352.33976 v 1.6632 c -0.519993,-0.37129 -0.986761,-0.55629 -1.399913,-0.55629 -0.449844,0 -0.816099,0.15787 -1.10032,0.47439 -0.28422,0.30127 -0.42504,0.70279 -0.42504,1.20587 0,0.44183 0.09909,0.82088 0.302567,1.13817 l 0.508238,0.65551 c 0.240036,0.26743 0.550225,0.59067 0.926944,0.96713 0.692206,0.70512 1.165434,1.31387 1.416968,1.82753 0.250373,0.49429 0.375561,1.10433 0.375561,1.82625 0,0.97823 -0.273757,1.7849 -0.826696,2.41587 -0.552678,0.61935 -1.259097,0.9294 -2.121964,0.9294 -0.727604,0 -1.348108,-0.19947 -1.860352,-0.60229 v -1.68542 c 0.606166,0.44287 1.156391,0.66456 1.654295,0.66456 0.463923,0 0.826304,-0.15477 1.092308,-0.45734 0.259546,-0.31419 0.393777,-0.73406 0.393777,-1.26478 0,-0.45734 -0.104259,-0.87049 -0.305152,-1.23817 l -0.434081,-0.59712 -0.697373,-0.76248 c -0.431498,-0.42478 -0.787421,-0.80177 -1.074224,-1.12887 -0.2828,-0.32841 -0.492606,-0.61547 -0.62955,-0.86016 -0.263419,-0.48111 -0.393644,-1.08727 -0.393644,-1.82263 0,-0.98521 0.256831,-1.77146 0.770366,-2.34895 0.518703,-0.5842 1.214914,-0.87618 2.089536,-0.87876 0.606296,0 1.185072,0.1447 1.737749,0.43538"
         inkscape:connector-curvature="0"
         style="fill:#2ac2fa;fill-rule:evenodd;stroke-width:0.26458332" />
      <polygon
         transform="matrix(0.26458333,0,0,0.26458333,46.790084,301.68458)"
         id="polygon794"
         points="153.99658,214.62451 144.55176,214.62451 144.55176,238.27783 138.10742,238.27783 138.10742,190.45361 144.55176,190.45361 144.55176,209.16064 153.99658,209.16064 153.99658,190.45361 160.4458,190.45361 160.4458,238.27783 153.99658,238.27783 "
         style="fill:#2ac2fa;fill-rule:evenodd" />
      <path
         id="path798"
         d="m 101.92509,352.07543 h 1.45753 l 1.11441,5.16429 c 0.13435,0.6444 0.26096,1.29191 0.36897,1.93967 0.11498,0.64957 0.2191,1.32473 0.3129,2.03631 l 0.0233,-0.21342 0.016,-0.11214 0.23719,-1.45366 0.21368,-1.3764 0.18759,-0.90976 0.99089,-5.07489 h 1.47563 l 1.1653,12.65349 h -1.6322 l -0.28655,-4.29276 -0.0326,-0.56689 -0.006,-0.39377 -0.0757,-1.69344 -0.0393,-1.55779 -0.0103,-0.0664 -0.008,-0.14857 -0.0393,0.2558 -0.12221,0.7847 -0.0912,0.56534 -0.21394,1.15523 -0.0835,0.43693 -1.06376,5.52162 h -1.14722 l -1.0011,-4.76715 c -0.13694,-0.62838 -0.25812,-1.26426 -0.36768,-1.91074 -0.10283,-0.65086 -0.20063,-1.33118 -0.28525,-2.04173 l -0.49286,8.71962 h -1.60611 z"
         inkscape:connector-curvature="0"
         style="fill:#2ac2fa;fill-rule:evenodd;stroke-width:0.26458332" />
      <path
         id="path802"
         d="m 115.81597,352.07543 h 1.32705 l 2.71172,12.65349 h -1.68697 l -0.47439,-2.46496 h -2.50812 l -0.48498,2.46496 h -1.63866 z m 1.63091,8.86793 -0.37801,-2.01408 c -0.25012,-1.37382 -0.4563,-2.83652 -0.61392,-4.39302 -0.077,0.76016 -0.17466,1.53014 -0.29455,2.31149 -0.12274,0.77541 -0.2633,1.59784 -0.42763,2.47246 l -0.31031,1.62315 z"
         inkscape:connector-curvature="0"
         style="fill:#2ac2fa;fill-rule:evenodd;stroke-width:0.26458332" />
      <path
         id="path806"
         d="m 123.66614,352.07543 h 2.24508 c 0.9307,0 1.62161,0.22247 2.07403,0.66585 0.57465,0.57206 0.86145,1.44979 0.86145,2.63214 0,0.90331 -0.15373,1.63556 -0.46018,2.18695 -0.30101,0.54648 -0.73122,0.88263 -1.29423,1.01441 l 2.32673,6.15414 h -1.72987 l -2.31898,-6.19445 v 6.19445 h -1.70403 z m 1.70403,5.60508 c 0.66224,0 1.12887,-0.15115 1.4025,-0.45733 0.2713,-0.30515 0.40824,-0.82295 0.40824,-1.54874 0,-0.39249 -0.0287,-0.72993 -0.0886,-1.0064 l -0.2713,-0.68316 -0.47465,-0.38344 -0.68807,-0.12377 h -0.2881 z"
         inkscape:connector-curvature="0"
         style="fill:#2ac2fa;fill-rule:evenodd;stroke-width:0.26458332" />
      <polygon
         transform="matrix(0.26458333,0,0,0.26458333,46.790084,301.68458)"
         id="polygon810"
         points="332.94678,238.27783 326.51318,238.27783 326.51318,190.45361 332.94678,190.45361 332.94678,213.62354 341.93408,190.45361 348.43701,190.45361 339.02295,213.62354 349.18701,238.27783 341.93408,238.27783 332.94678,213.62354 "
         style="fill:#2ac2fa;fill-rule:evenodd" />
      <polygon
         transform="matrix(0.26458333,0,0,0.26458333,46.790084,301.68458)"
         id="polygon814"
         points="370.54932,232.83447 381.24072,232.83447 381.24072,238.27783 364.11475,238.27783 364.11475,190.45361 381.24072,190.45361 381.24072,195.91162 370.54932,195.91162 370.54932,211.05713 380.02881,211.05713 380.02881,216.50537 370.54932,216.50537 "
         style="fill:#2ac2fa;fill-rule:evenodd" />
      <polygon
         transform="matrix(0.26458333,0,0,0.26458333,46.790084,301.68458)"
         id="polygon818"
         points="410.52197,238.27783 404.21045,238.27783 404.21045,196.09424 396.771,196.09424 396.771,190.45361 417.73975,190.45361 417.73975,196.09424 410.52197,196.09424 "
         style="fill:#2ac2fa;fill-rule:evenodd" />
      <path
         style="fill:#63a430;stroke-width:0.26458332"
         inkscape:connector-curvature="0"
         d="m 141.49399,314.97395 -1.16013,0.0704 c -1.00382,0.0689 -1.9774,0.34533 -3.09206,1.27873 -4.45167,3.72432 -1.16557,10.92905 -1.16557,10.92905 v -0.0116 c -0.33331,-1.39591 -1.26814,-6.8749 3.56671,-9.90702 l 0.14237,-0.089 c 0,0 -2.93057,2.39624 -2.43809,6.59508 1.19036,-1.44979 2.93186,-2.5421 4.03231,-3.17436 l 0.21626,-0.14082 v 0.007 c 0,0 5.05783,-3.12061 4.13748,-7.69888 0,0 -0.0388,1.95543 -4.23928,2.14186"
         id="path824" />
      <path
         id="path828"
         d="m 149.4501,322.00026 c -1.04697,-0.58006 -4.9395,0.61121 -6.21952,1.2591 -10.32702,5.24038 -1.40017,8.98679 -1.16427,9.08627 1.51619,0.65035 3.66696,1.53556 2.41561,3.53622 -0.5395,0.86325 -3.47007,2.95511 -6.81379,4.02585 -0.601,0.19404 -1.56683,0.8108 -0.51367,1.61514 0.21782,0.16537 1.03637,0.6178 2.09212,0.48757 2.32855,-0.28964 8.09408,-3.53415 9.61027,-6.41898 1.48337,-2.82748 0.24236,-4.39845 -4.51807,-6.55994 -2.22415,-0.88212 -1.02733,-2.285 3.07371,-3.89511 0.0442,-0.009 1.34256,-0.49661 2.36084,-0.29159 1.18624,0.24482 1.33222,-1.93321 -0.32323,-2.84453"
         inkscape:connector-curvature="0"
         style="fill:#fb8924;fill-rule:evenodd;stroke-width:0.26458332" />
      <path
         id="path832"
         d="m 128.81544,327.25615 c 1.01182,-1.86798 0.2191,-2.06499 0.0444,-2.01771 -0.49274,0.13526 -2.11718,1.61902 -2.11718,1.61902 -2.0283,1.84188 -3.81683,4.58977 -3.81683,4.58977 l 1.09632,-0.34261 c 2.20452,-1.0325 3.86514,-2.13941 4.79325,-3.84847 m 4.06719,-1.495 c 0.10439,2.0947 -2.05181,4.45166 -4.19096,5.88271 -3.53389,2.36265 -7.12024,2.54351 -7.48119,2.54351 0,0 -1.80274,1.92676 -2.12752,4.68499 -0.0912,0.78367 0.0106,0.82269 0.24494,0.86558 0.41729,0.0824 1.17978,-0.16045 1.40405,-0.18267 0.37956,-0.0687 1.01028,0.27646 0.88522,1.12913 -0.2974,1.98411 -2.47944,1.9283 -2.47944,1.9283 -2.39881,0.0181 -2.89388,-3.3985 -2.89388,-4.27984 0,-2.58253 1.70352,-5.87664 1.70352,-5.87664 1.35986,-2.78575 5.44385,-9.34155 10.24899,-10.30364 2.19133,0.15128 4.58731,1.5959 4.68627,3.60857"
         inkscape:connector-curvature="0"
         style="fill:#fb8924;fill-rule:evenodd;stroke-width:0.26458332" />
      <path
         id="path836"
         d="m 88.19324,328.78267 c 0,-0.81882 -1.26323,-1.40534 -1.410507,-1.41852 l -0.448294,0.24288 c -1.135589,0.75189 -5.725361,4.99801 -6.015006,8.82776 l 0.02363,0.61779 c 0.07816,0.29352 0.350626,0.3036 0.891548,0.0982 0.281766,-0.10981 0.813517,-0.3837 1.529107,-0.93767 0.530587,-0.40902 2.822178,-2.14586 4.678526,-5.31208 0.440669,-0.75202 0.750985,-1.74537 0.750985,-2.11834 m 4.511742,-0.39907 c 0.444288,1.14359 0.149733,2.2881 -0.965833,3.93696 -3.940974,5.82342 -8.361375,8.07574 -10.9607,8.12819 -1.315294,0.0295 -3.853511,-0.64415 -4.114091,-3.89769 -0.456174,-5.72704 8.475969,-13.91595 10.496388,-13.93959 1.467869,-0.017 2.463933,0.7993 2.9723,1.47032 0.109294,0.18151 0.333571,0.53485 0.0181,0.90886 l -0.312902,0.21756 c -0.0872,0.0393 -0.317939,0.10813 -0.675023,0.37052 l 0.404109,0.19404 c 0.147277,0.0548 2.586278,1.19528 3.137664,2.61083"
         inkscape:connector-curvature="0"
         style="fill:#fb8924;fill-rule:evenodd;stroke-width:0.26458332" />
      <path
         id="path840"
         d="m 118.46517,302.81797 c -0.017,-0.53588 -0.55294,-1.02849 -2.34792,-0.96467 -1.76656,0.0638 -2.882,0.89181 -2.882,0.89181 -2.99336,4.62104 -13.00734,20.18959 -15.314567,24.74578 0,0 -2.840654,4.67232 -5.69681,8.93898 0,0 -0.883925,1.16272 -0.523999,2.35387 0,0 1.081976,3.19153 2.813137,1.24255 0.544928,-0.61417 1.433891,-2.49907 1.909702,-3.42459 0.430207,-0.83302 3.844337,-6.90358 12.870147,-10.20468 0.93896,-0.34274 1.65313,-0.33873 1.85906,-0.26988 0,0 0.0535,0.0915 -0.28939,0.70267 -1.15238,1.78749 -2.72077,3.36996 -4.7594,5.08406 l -1.22654,-0.78471 c 0,0 -0.49416,-0.43925 -1.1082,-0.23228 0,0 -0.54235,0.0966 -1.04555,1.00795 0,0 -0.32568,0.56689 -0.47581,1.33506 -0.0532,0.27104 -0.32569,1.12603 0.59325,1.61256 1.31671,0.65939 6.18438,2.36058 10.02187,7.46414 0,0 1.12009,1.58776 1.86035,1.7924 0.97126,0.28009 1.19011,-0.64931 1.14308,-1.04541 -0.40669,-3.28094 -5.51671,-8.1579 -6.14768,-8.63384 l -1.30613,-1.01803 c 3.57059,-2.6696 7.77447,-6.30543 8.05636,-8.60102 0.2527,-2.03735 -2.52258,-2.10775 -2.52258,-2.10775 -4.02146,0.0167 -10.00495,3.20006 -10.00495,3.20006 -0.13578,0.0668 -1.84601,0.90731 -2.254,1.22693 l 2.30723,-3.60715 c 6.57957,-10.47455 10.43928,-15.57657 13.41274,-18.88515 0.69092,-0.76662 1.0741,-1.314 1.0586,-1.81966"
         inkscape:connector-curvature="0"
         style="fill:#fb8924;fill-rule:evenodd;stroke-width:0.26458332" />
      <path
         id="path844"
         d="m 86.950939,310.23677 c 0.385765,-1.30638 -0.488857,-1.66631 -1.526651,-1.66631 -4.077528,0 -5.344504,2.60088 -6.414725,3.83788 -8.253113,9.53857 -15.528379,15.66416 -15.793092,15.86622 -4.073653,3.09852 -4.79441,3.3954 -5.027858,3.33313 -0.01964,-0.005 -0.126478,-0.0261 -0.153867,-0.39016 l -0.009,-0.13151 c 0,-8.49419 11.213527,-22.8583 11.213527,-22.8583 1.901822,-2.44804 4.009703,-4.34056 4.009703,-4.34056 0.659522,-0.49971 0.752279,-0.88522 0.810805,-1.13055 0.161618,-0.9148 -0.838193,-0.98818 -0.838193,-0.98818 -0.791166,-0.0975 -1.23455,-0.10155 -1.641114,-0.0548 -3.819534,0.43679 -5.712313,2.49261 -10.308802,10.13827 0,0 -6.512781,10.80128 -6.512781,18.09605 0,4.28256 2.229063,5.63286 4.580858,5.28353 4.62504,-0.68833 16.760089,-14.38091 16.865766,-14.44524 l 0.06007,0.0915 -0.392353,0.86713 c 0,0 -4.415493,10.67467 -15.198684,24.59062 -4.466007,5.76942 -5.7304,6.48927 -7.391281,8.22043 0,0 -1.233257,1.05317 -1.320461,2.02029 -0.09521,1.05368 0.790003,1.12655 0.994513,1.12655 0.542344,-0.0116 1.011695,-0.19405 2.301022,-1.14567 6.998797,-5.2312 12.627782,-14.07873 12.627782,-14.07873 7.27126,-10.19007 17.376587,-28.84449 17.376587,-28.84449 0.612754,-1.0179 1.423556,-2.49778 1.688269,-3.39708"
         inkscape:connector-curvature="0"
         style="fill:#fb8924;fill-rule:evenodd;stroke-width:0.26458332" />
    </g>
  </g>
</svg>
