<svg xmlns="http://www.w3.org/2000/svg" viewBox="0 0 451 94"><path d="M101.52 0h4.89c3.02.67 6.62 1.35 8.45 4.09.23 5.41-.02 10.83.11 16.25-2.2-2.76-4.39-6.11-8.06-6.96-3.63-.38-6.46 2.64-7.99 5.6-3.12 6.08-3.83 13.03-4.3 19.75-.38 8.72-.3 17.53 1.13 26.16.92 5.04 2.14 10.41 5.85 14.18.18-6.42.04-12.85.09-19.27-1.6-.02-3.2-.05-4.8-.07-.03-4.39-.02-8.78-.01-13.16 6.02-.01 12.04-.02 18.06 0 .01 15.81 0 31.62 0 47.43h-12.48c-7.69-.95-13.75-6.78-16.78-13.64-5.69-12.59-6.14-26.81-5.27-40.38.79-10.28 2.47-20.87 7.73-29.91 2.86-5 7.62-9 13.38-10.07zM2.19.95C17.2.93 32.2.93 47.21.95c-7.82 25.32-15.74 50.6-23.57 75.92 8.41 0 16.82-.11 25.23-.05.02 5.52.01 11.03 0 16.54-16.29.03-32.58.01-48.87.01v-.51C8.02 67.99 15.67 43 23.52 18.07c-7.11.02-14.22-.07-21.34-.08.01-5.68 0-11.36.01-17.04m6.37 6.5c.04 1.53.07 3.07.09 4.6 7.85.03 15.7-.01 23.55.02-7.75 25.04-15.61 50.05-23.35 75.1 11.06.03 22.13.02 33.2.01.02-1.37.05-2.74.09-4.11-9.13-.03-18.25.02-27.38-.02 7.87-25.23 15.76-50.46 23.69-75.67-9.96-.07-19.93-.2-29.89.07zm137.83-6.33c5.12-.25 10.24-.09 15.36-.1 3.44 31 6.92 61.99 10.39 92.98h-14.18c-.4-5.5-.84-10.99-1.22-16.49-1.85.01-3.7.06-5.55.18-.26 5.45-.77 10.87-1.15 16.31h-14.2c3.48-30.96 7.19-61.9 10.55-92.88M152.04 64c1.29-.01 2.57-.01 3.86 0-.77-10.32-.97-20.68-2.07-30.96-.49 10.32-1.2 20.64-1.79 30.96zm41.37-62.95c4.78-.09 9.57-.06 14.35-.03-.04 26.51.04 53.01-.04 79.52 2.46.07 4.93.14 7.39.09.03 4.46.01 8.91.02 13.37H193.5c.03-30.99-.03-61.97-.09-92.95zm42.71-.04C240.91.99 245.7 1 250.49 1c-.05 26.56-.07 53.12-.05 79.67 2.46 0 4.92.03 7.38.04 0 4.43-.01 8.86 0 13.29h-21.64c-.02-31 .06-61.99-.06-92.99zm41.76 0c7.69-.02 15.37-.01 23.06 0 0 4.27.01 8.54-.01 12.8-2.77.01-5.53.04-8.28-.09-.49 9.28-.08 18.6-.21 27.89 2.83 0 5.66.03 8.49.02.01 4.4.02 8.79 0 13.18-2.78.01-5.56.03-8.33-.07-.37 8.62-.06 17.25-.15 25.88 2.82-.01 5.65.02 8.49.01.01 4.46 0 8.91 0 13.37h-23.06c0-31-.02-61.99 0-92.99zm45.24 0c7.69.54 16.25-1.75 23.13 2.74 7.12 4.47 10 13.18 10.61 21.17.41 7.74-1.37 16.42-7.62 21.59 8.9 14.06 10.54 31.25 11.27 47.49h-14.26c-.61-9.56-1.44-19.17-3.64-28.52-1-3.68-2.02-7.66-5-10.28-.24 12.93-.04 25.87-.11 38.8h-14.38c0-31 .01-61.99 0-92.99m14.41 14.97c-.03 7.52-.09 15.04.03 22.56 4.05-2.23 4.47-7.37 4.51-11.49-.08-3.96-.5-9.07-4.54-11.07zm40.42-14.97c4.86 0 9.72-.06 14.58.04-.06 30.98-.01 61.97-.03 92.95h-14.56c0-31-.02-61.99.01-92.99zm34.47.02c7.69-.06 15.38-.02 23.07-.03.02 4.27.02 8.55 0 12.82-2.83-.02-5.66 0-8.48 0-.01 9.29-.03 18.59.01 27.88 2.82-.02 5.64-.01 8.47 0 .04 4.32-.05 8.65.09 12.98-2.86.18-5.72.17-8.57.13-.01 8.63-.03 17.26.01 25.89 2.82-.02 5.64-.01 8.47 0 .02 4.43 0 8.86.01 13.3h-23.06c-.01-30.99.01-61.98-.02-92.97z" fill="#202020"/></svg>